<?xml version="1.0" encoding="utf-8"?>
<!-- Generator: Adobe Illustrator 16.0.0, SVG Export Plug-In . SVG Version: 6.00 Build 0)  -->
<!DOCTYPE svg PUBLIC "-//W3C//DTD SVG 1.1//EN" "http://www.w3.org/Graphics/SVG/1.1/DTD/svg11.dtd">
<svg version="1.1" id="Layer_1" xmlns="http://www.w3.org/2000/svg" xmlns:xlink="http://www.w3.org/1999/xlink" x="0px" y="0px"
	 width="91.083px" height="116.448px" viewBox="0 0 91.083 116.448" enable-background="new 0 0 91.083 116.448"
	 xml:space="preserve">
<g>
	<path fill="#FFFFFF" d="M13.648,1.493c5.589,0.293,11.862,0,17.474,0c6.628,0,11.782,0.184,17.674,1.887
		c6.063,1.754,10.589-1.137,16.888-2.385c4.753-0.941,13.931-1.99,18.073,0.848c5.206,3.568,3.892,12.092,3.892,17.635
		c0,12.975-1.243,25.531,0.022,37.891c1.126,11.004-1.272,22.426,0.088,33.402c0.566,4.572,4.834,10.994,2.759,15.318
		c-1.524,3.18-3.091,5.887-6.818,5.797c-6.288-0.15-10.029-3.709-15.888-2.332c-5.986,1.406-13.894,6.861-20.18,6.895
		c-6.256,0.031-8.939-7.537-15.494-6.563c-5.474,0.813-20.143,6.855-26.1,3.779c-6.271-3.238-6.304-18.867-5.89-25.023
		c0.612-9.156,3-18.199,3.388-27.023c0.362-8.246-1.388-15.408-1.388-23.848C2.148,29.19-1.35,0.708,13.648,1.493z"/>
	<path fill="#7CCDCD" d="M48.009,16.028c0,0,0,38.84,3.14,40.965c3.138,2.125,17-2.125,17-2.125l13,0.943L67.684,21.305
		L48.009,16.028z"/>
	<path fill="#7CCDCD" d="M78.648,105.717c-1.5-0.225-12.793-3.465-12.793-3.465l-17.847,8.096c0,0-3.86-40.172,2.64-45.014
		s19.5,4.236,19.5,4.236L78.648,105.717z"/>
	<path fill="#7CCDCD" d="M11.268,60.995c0,0-6.38,41.16,0,50.436c7.788-3.709,18.182-6.895,18.182-6.895l12.699,3.186l-3-46.727
		H11.268z"/>
	<path fill="#7CCDCD" d="M11.268,9.596c0,0-8.38,39.314,0,46.215c7.788-1.934,20.881-4.152,20.881-4.152l10,3.209l-8.5-40.135
		L11.268,9.596z"/>
	<g>
		<path fill="#231F20" d="M46.377,51.19c-1.477-6.75-4.798-8.58,0.012-39.037c0.145-0.922-1.709-1.344-2.46-1.951
			c-1.78-1.44-26.204-4.508-31.189-2.412c-2.886,26.627-1.073,34.074,4.95,46.443c0.266,0.545,2.171,0.898,2.857,0.576
			c5.943-2.793,11.414-5.197,11.414-5.197l12.537,2.777C44.498,52.389,46.621,52.303,46.377,51.19z"/>
		<path fill="#231F20" d="M19.803,55.682c-0.624,0-2.34-0.202-2.788-1.121C11.02,42.25,9.034,35.021,11.994,7.708l0.047-0.439
			l0.408-0.171c1.214-0.51,3.468-0.769,6.7-0.769c8.712,0,23.58,1.937,25.251,3.29c0.182,0.147,0.521,0.313,0.848,0.474
			c0.871,0.427,2.063,1.012,1.881,2.177c-3.986,25.242-2.333,30.746-0.875,35.603c0.297,0.989,0.604,2.012,0.855,3.158
			c0.094,0.432,0.002,0.856-0.259,1.196c-0.621,0.805-2.043,0.902-2.322,0.913l-0.097,0.004l-12.393-2.745
			c-1.088,0.48-5.978,2.649-11.173,5.09C20.591,55.617,20.234,55.682,19.803,55.682z M13.435,8.339
			c-2.845,26.536-0.895,33.606,4.929,45.566c0.084,0.049,0.752,0.277,1.439,0.277c0.311,0,0.424-0.051,0.425-0.052
			c5.884-2.765,11.376-5.181,11.431-5.205l0.225-0.099l12.674,2.808c0.475-0.037,1.004-0.189,1.105-0.325
			c-0.257-1.049-0.543-2-0.845-3.006c-1.504-5.009-3.209-10.688,0.83-36.267c-0.083-0.117-0.718-0.429-1.06-0.597
			c-0.402-0.197-0.818-0.401-1.131-0.654C42.294,9.929,28.61,7.829,19.149,7.829C15.963,7.829,14.301,8.082,13.435,8.339z"/>
	</g>
	<g>
		<path fill="#BE1E2D" d="M83.681,51.19c-1.477-6.75-7.628-6.203,0.011-36.076c1.039-4.064-2.094-3.24-2.691-4
			c-1.368-1.734-32.756-3.748-31.535,2.449c-2.301,17.586-2.071,23.006,2.104,40.598c0.141,0.59,2.173,0.898,2.858,0.576
			c5.942-2.793,14.054-6.607,14.054-6.607l13.32,4.26C81.801,52.389,83.925,52.303,83.681,51.19z"/>
		<path fill="#231F20" d="M53.617,55.617c-0.101,0-2.476-0.015-2.778-1.282c-4.174-17.586-4.458-22.948-2.132-40.757
			c-0.101-0.694,0.091-1.357,0.559-1.926c2.065-2.512,9.653-3.039,15.655-3.039c5.252,0,15.533,0.598,16.669,2.038
			c0.04,0.016,0.325,0.089,0.514,0.137c0.596,0.152,1.412,0.359,1.971,1.048c0.629,0.775,0.742,1.908,0.344,3.465
			c-5.865,22.936-3.571,27.598-1.547,31.71c0.614,1.247,1.193,2.424,1.542,4.021c0.094,0.432,0.002,0.856-0.259,1.196
			c-0.621,0.805-2.044,0.902-2.323,0.913l-0.132,0.005l-13.166-4.21l-13.787,6.482C54.462,55.549,54.082,55.617,53.617,55.617z
			 M52.266,53.851c0.197,0.107,0.743,0.266,1.352,0.266c0.3,0,0.456-0.042,0.491-0.059l14.32-6.733l13.466,4.306
			c0.466-0.041,0.974-0.19,1.073-0.322c-0.329-1.376-0.869-2.475-1.441-3.637c-2.139-4.346-4.563-9.271,1.439-32.744
			c0.185-0.722,0.325-1.68-0.055-2.147c-0.247-0.304-0.72-0.424-1.177-0.541c-0.493-0.125-1.002-0.255-1.322-0.662
			c-0.757-0.545-7.793-1.466-15.491-1.466c-7.794,0-13.213,0.932-14.496,2.492c-0.214,0.26-0.283,0.512-0.223,0.814l0.024,0.121
			l-0.016,0.122C47.904,31.275,48.17,36.571,52.266,53.851z"/>
	</g>
	<g>
		<path fill="#C3996B" d="M46.377,100.956c-1.477-6.752-3.564-11.283,1.246-41.74c0.145-0.924-1.494-1.934-2.46-1.953
			c-2.636-0.053-30.897-2.33-32.59,1.865c-2.886,26.627-0.907,32.502,5.116,44.871c0.266,0.545,2.171,0.898,2.857,0.576
			c5.943-2.793,11.684-7.91,11.684-7.91l12.268,5.49C44.498,102.155,46.621,102.069,46.377,100.956z"/>
		<path fill="#231F20" d="M19.803,105.448c-0.624,0-2.34-0.202-2.788-1.121c-6.24-12.814-8.019-19.153-5.188-45.281l0.05-0.2
			c0.563-1.396,2.843-2.999,15.581-2.999c5.956,0,12.158,0.357,15.49,0.548c1.104,0.063,1.886,0.109,2.229,0.116
			c0.893,0.018,2.082,0.616,2.707,1.361c0.493,0.588,0.533,1.117,0.479,1.458c-4.402,27.87-2.988,33.964-1.62,39.858
			c0.123,0.531,0.246,1.062,0.366,1.606c0.094,0.432,0.002,0.856-0.259,1.196c-0.621,0.805-2.043,0.902-2.322,0.913l-0.176,0.007
			l-11.991-5.366c-1.374,1.18-6.314,5.273-11.496,7.708C20.591,105.382,20.234,105.448,19.803,105.448z M13.305,59.335
			c-2.857,26.435-0.927,32.044,5.059,44.335c0.084,0.049,0.752,0.277,1.439,0.277c0.311,0,0.424-0.051,0.425-0.052
			c5.778-2.715,11.447-7.741,11.503-7.792l0.362-0.323l12.539,5.611c0.455-0.045,0.935-0.189,1.031-0.318
			c-0.137-0.498-0.258-1.022-0.38-1.546c-1.4-6.034-2.848-12.272,1.599-40.43c0.001-0.019-0.026-0.13-0.187-0.306
			c-0.398-0.437-1.146-0.772-1.547-0.78c-0.352-0.007-1.154-0.053-2.286-0.118c-3.317-0.191-9.491-0.546-15.403-0.546
			C15.628,57.348,13.632,58.784,13.305,59.335z"/>
	</g>
	<g>
		<path fill="#468885" d="M83.681,100.956c-1.477-6.752-4.8-5.621,0.011-36.078c0.146-0.924,0.209-3.084-2.691-3.998
			c-2.106-0.664-32.756-3.748-31.535,2.449c-2.301,17.584-2.071,23.004,2.104,40.598c0.141,0.59,2.173,0.898,2.858,0.576
			c5.942-2.793,15.304-7.838,15.304-7.838l12.07,5.49C81.801,102.155,83.925,102.069,83.681,100.956z"/>
		<path fill="#231F20" d="M53.617,105.382c-0.101,0-2.476-0.015-2.778-1.282c-4.174-17.588-4.458-22.95-2.132-40.757
			c-0.101-0.691,0.084-1.346,0.54-1.9c1.476-1.795,5.958-2.667,13.703-2.667c7.868,0,17,0.985,18.277,1.388
			c3.412,1.075,3.379,3.736,3.207,4.83c-3.85,24.375-2.483,28.269-1.037,32.392c0.355,1.011,0.722,2.057,1.018,3.409
			c0.094,0.432,0.002,0.856-0.259,1.196c-0.621,0.805-2.044,0.902-2.323,0.913l-0.178,0.007l-11.895-5.411
			c-1.714,0.919-9.745,5.205-15.012,7.68C54.462,105.315,54.082,105.382,53.617,105.382z M52.266,103.617
			c0.197,0.107,0.743,0.266,1.352,0.266c0.3,0,0.456-0.042,0.491-0.059c5.855-2.752,15.173-7.769,15.267-7.819l0.328-0.177
			l12.235,5.565c0.454-0.046,0.934-0.19,1.029-0.318c-0.295-1.221-0.631-2.178-0.986-3.192c-1.511-4.306-2.939-8.374,0.97-33.123
			c0.247-1.567-0.485-2.633-2.176-3.166c-1.011-0.319-9.844-1.319-17.826-1.319c-9.748,0-12.02,1.483-12.544,2.12
			c-0.2,0.244-0.263,0.487-0.204,0.788l0.024,0.121l-0.016,0.122C47.904,81.039,48.17,86.334,52.266,103.617z"/>
	</g>
	<path fill="#FFFFFF" d="M75.635,23.1c0.729,3.059-1.936,18.592-4.432,19.766C66.22,45.19,57.5,32.792,56.343,28.885
		c-0.841-2.822-0.561-7.402,3.247-6.846c3.448,0.5,3.688,4.738,5.297,6.906C64.49,20.995,73.644,14.766,75.635,23.1z"/>
	<g>
		<path fill="#FFFFFF" d="M24.35,15.096c0.24-0.033,0.602-0.008,1.085,0.078c0.481,0.086,0.809,0.129,0.981,0.129
			c0.068-0.034,0.12-0.017,0.154,0.052c0.034,0.035,0.069,0.052,0.104,0.052l0.104-0.052c0.068-0.034,0.137-0.034,0.207,0
			c0.206,0.138,0.361,0.189,0.465,0.155c0,0.034,0.017,0.077,0.052,0.129c0.033,0.052,0.051,0.112,0.051,0.181
			c0.104,0,0.224,0.035,0.362,0.104c0.137,0.069,0.258,0.104,0.361,0.104c0.034,0.069,0.138,0.138,0.31,0.206
			c0,0.035,0.034,0.087,0.104,0.155c0.034,0,0.104,0.025,0.207,0.077s0.172,0.078,0.206,0.078c0.172,0.241,0.293,0.361,0.362,0.361
			c0.31,0.31,0.568,0.482,0.774,0.517c0.138,0.138,0.207,0.241,0.207,0.31h0.104c0.103,0,0.214,0.044,0.335,0.13
			s0.215,0.129,0.284,0.129c0.207,0.276,0.327,0.482,0.362,0.62h0.258c0.034,0.069,0.111,0.146,0.232,0.232
			c0.12,0.086,0.198,0.146,0.232,0.181v0.155c0,0.31,0.12,0.517,0.362,0.619v0.155c0.24,0.173,0.361,0.345,0.361,0.517
			c0,0.035,0,0.069,0,0.104l-0.052,0.104l0.155,0.774v0.155c0,0.069,0.033,0.121,0.103,0.155c0.069,0.069,0.121,0.12,0.155,0.154
			c-0.138,0.38-0.206,0.81-0.206,1.292c0,0.069,0.008,0.173,0.025,0.31c0.017,0.138,0.025,0.259,0.025,0.361
			c0,0.104,0.009,0.216,0.026,0.336c0.017,0.121,0.043,0.259,0.077,0.413c0.034,0.155,0.052,0.268,0.052,0.336
			c0.034,0.38,0.026,0.913-0.025,1.602c-0.052,0.689-0.078,1.137-0.078,1.344c0,0.344,0.069,0.654,0.207,0.93
			c0,0.104-0.009,0.258-0.025,0.465c-0.019,0.206-0.026,0.361-0.026,0.465c0,0.034,0.017,0.086,0.052,0.155
			c0.034,0.069,0.052,0.138,0.052,0.206l-0.052,0.207c0,0.034,0.008,0.077,0.025,0.129s0.026,0.096,0.026,0.129
			c-0.035,0-0.052,0.019-0.052,0.052c-0.035,0.069-0.035,0.155,0,0.259c0.034,0.104,0.052,0.173,0.052,0.206
			c-0.035,0.069-0.077,0.139-0.129,0.207c-0.052,0.069-0.078,0.121-0.078,0.155c0.172,0.345,0.259,0.551,0.259,0.619
			c0,0.104-0.018,0.173-0.052,0.207c0,0.035,0,0.096,0,0.181c0,0.087,0.034,0.164,0.104,0.232c0,0.069-0.018,0.121-0.052,0.155
			l0.052,0.104c0,0.069,0.033,0.103,0.103,0.103c-0.034,0.035-0.051,0.087-0.051,0.155c0,0.173-0.019,0.276-0.052,0.311
			c-0.035,0.034-0.052,0.069-0.052,0.103c-0.035,0.069-0.018,0.104,0.052,0.104c0.068,0,0.103,0.018,0.103,0.052
			c-0.034,0.138-0.051,0.31-0.051,0.517c0,0.173,0.033,0.293,0.103,0.361c0,0.035-0.025,0.069-0.077,0.104
			c-0.052,0.035-0.077,0.069-0.077,0.104l0.154,0.155v0.258c0,0.448,0.018,0.724,0.052,0.827c0,0.034,0.009,0.051,0.026,0.051
			c0.017,0,0.025,0.019,0.025,0.052c-0.034,0.104-0.018,0.155,0.052,0.155c0.034,0.035,0.034,0.069,0,0.104
			s-0.052,0.069-0.052,0.104c0.034,0.069,0.052,0.189,0.052,0.361c0,0.173,0.034,0.293,0.104,0.361c0,0.207,0.017,0.345,0.052,0.413
			H34.01c-0.035,0.035-0.052,0.07-0.052,0.104c0.068,0.207,0.447,0.345,1.137,0.413v0.155c0.068,0,0.172-0.034,0.31-0.104
			c0.172,0.104,0.259,0.173,0.259,0.207c0.033,0,0.068-0.017,0.103-0.052c0.034-0.034,0.069-0.052,0.104-0.052l0.775,0.311
			c0.033,0,0.085-0.018,0.154-0.052c0.138,0,0.275,0.069,0.414,0.206c0.31,0.104,0.671,0.432,1.085,0.981
			c0.033,0.035,0.085,0.104,0.154,0.207s0.104,0.189,0.104,0.258c0,0.414-0.018,0.689-0.052,0.827c0,0.104-0.104,0.31-0.31,0.62
			c-0.035,0-0.069,0.018-0.104,0.052c-0.035,0.034-0.069,0.051-0.104,0.051l-0.052,0.104c0,0.035-0.018,0.052-0.052,0.052
			l-0.413,0.311c-0.034,0-0.104,0.034-0.206,0.103c-0.104,0.069-0.173,0.104-0.207,0.104c-0.035,0.035-0.121,0.052-0.259,0.052
			s-0.241,0.017-0.31,0.052c-0.207,0.068-0.361,0.104-0.465,0.104c-0.104,0.033-0.241,0.033-0.413,0
			c-0.173-0.035-0.293-0.035-0.362,0l-0.051,0.052l-0.052,0.051c-0.069,0-0.207,0.018-0.414,0.052
			c-0.206,0.034-0.344,0.052-0.413,0.052h-0.154c-0.035-0.034-0.069-0.052-0.104-0.052l-0.052-0.052l-0.207,0.052
			c-0.104,0-0.241-0.025-0.413-0.077c-0.173-0.052-0.276-0.077-0.31-0.077c-0.207-0.035-0.517-0.061-0.93-0.078
			c-0.414-0.018-0.689-0.025-0.827-0.025c-0.517,0-0.896-0.035-1.137-0.104c-0.034,0-0.086-0.034-0.154-0.104l-0.207,0.052
			c-0.069,0-0.173-0.025-0.31-0.077c-0.139-0.052-0.242-0.077-0.311-0.077c-0.034,0.034-0.052,0.034-0.052,0l-0.052-0.052h-0.051
			c-0.07,0-0.104,0.018-0.104,0.052c-0.069-0.069-0.189-0.121-0.362-0.155c-0.172-0.034-0.275-0.068-0.31-0.104
			c-0.034,0-0.069-0.025-0.104-0.077s-0.069-0.078-0.104-0.078c-0.103,0-0.172-0.017-0.206-0.052l-0.672-0.31
			c-0.206-0.068-0.327-0.12-0.361-0.155l-0.052-0.052h-0.104c-0.034,0-0.095-0.033-0.181-0.103s-0.181-0.104-0.284-0.104
			c0-0.034-0.104-0.086-0.31-0.155c-0.035-0.068-0.112-0.146-0.232-0.232c-0.121-0.086-0.199-0.146-0.232-0.181
			c-0.035-0.138-0.13-0.292-0.284-0.465c-0.155-0.172-0.251-0.292-0.284-0.361c-0.035-0.034-0.069-0.13-0.104-0.284
			c-0.035-0.155-0.087-0.267-0.155-0.336c0-0.104-0.025-0.259-0.077-0.465c-0.052-0.207-0.078-0.362-0.078-0.465
			c-0.069-0.173-0.103-0.482-0.103-0.931c0-0.033-0.018-0.068-0.052-0.103c-0.035-0.034-0.052-0.069-0.052-0.104
			c0-0.172,0.017-0.259,0.052-0.259c-0.069-0.068-0.112-0.188-0.129-0.361c-0.019-0.172-0.061-0.275-0.13-0.31v-0.104
			c0-0.104-0.025-0.292-0.077-0.568c-0.052-0.275-0.077-0.482-0.077-0.62c0-0.24,0.033-0.413,0.103-0.517l-0.154-0.104
			c0-0.068,0.008-0.137,0.025-0.206s0.026-0.138,0.026-0.207v-0.052c-0.035-0.034-0.052-0.068-0.052-0.104
			c0-0.033,0.017-0.085,0.052-0.154l0.051-0.052c0-0.034-0.018-0.052-0.051-0.052c-0.035,0-0.052-0.017-0.052-0.052l0.052-0.517
			l-0.052-0.207v-0.154c0-0.413-0.035-0.672-0.104-0.775c0-0.068,0.034-0.137,0.104-0.206c0-0.034-0.026-0.061-0.078-0.078
			c-0.052-0.017-0.061-0.043-0.025-0.077c0-0.068,0.008-0.215,0.025-0.439c0.018-0.224,0.026-0.387,0.026-0.49
			c0-0.207-0.018-0.344-0.052-0.413c-0.035-0.173-0.052-0.431-0.052-0.775c0-0.034-0.018-0.077-0.052-0.129
			s-0.052-0.095-0.052-0.129v-0.155c0-0.068-0.025-0.189-0.077-0.361c-0.052-0.173-0.078-0.311-0.078-0.414
			c0-0.033,0.009-0.077,0.026-0.129c0.017-0.052,0.025-0.095,0.025-0.129c-0.069-0.068-0.095-0.172-0.077-0.311
			c0.017-0.137,0.06-0.224,0.129-0.258v-0.052c-0.069,0-0.104-0.034-0.104-0.104c0-0.172-0.009-0.456-0.025-0.853
			c-0.018-0.396-0.025-0.697-0.025-0.903v-0.775c0-0.378,0.033-0.637,0.103-0.774c0-0.034,0-0.095,0-0.181s-0.034-0.146-0.103-0.182
			c0.033-0.103,0.033-0.274,0-0.517c-0.035-0.24-0.019-0.396,0.051-0.465c-0.069-0.068-0.12-0.137-0.154-0.206
			c0-0.034,0-0.104,0-0.207s0.017-0.172,0.052-0.206c-0.104-0.241-0.155-0.551-0.155-0.931v-1.291c0-0.034,0.025-0.06,0.077-0.078
			c0.052-0.017,0.078-0.042,0.078-0.077c0-0.068-0.035-0.137-0.104-0.206c0.137-0.414,0.206-0.706,0.206-0.879
			c0-0.206-0.051-0.378-0.154-0.517c0-0.033,0.008-0.077,0.025-0.129s0.026-0.095,0.026-0.129c-0.069-0.138-0.104-0.259-0.104-0.362
			c0-0.033,0.008-0.103,0.025-0.206s0.026-0.189,0.026-0.259c0-0.033-0.009-0.077-0.026-0.129s-0.025-0.095-0.025-0.129
			c0.104-0.138,0.155-0.275,0.155-0.413c0.103-0.138,0.274-0.311,0.517-0.517C24.125,15.303,24.28,15.166,24.35,15.096z"/>
	</g>
	<g>
		<path fill="#FFFFFF" d="M36.775,68.61c0.172,0,0.326,0.069,0.465,0.207h0.258c0.344,0,0.654,0.138,0.93,0.413h0.413
			c0.173,0.173,0.224,0.31,0.155,0.413c0.034,0.035,0.068,0.052,0.104,0.052l0.104,0.052c-0.069,0.069-0.104,0.121-0.104,0.155
			s0.025,0.069,0.077,0.103c0.052,0.035,0.078,0.069,0.078,0.104c0,0.035-0.018,0.087-0.052,0.155
			c-0.035,0.069-0.052,0.138-0.052,0.206l0.413,0.155c0,0.035,0.034,0.164,0.104,0.388c0.068,0.225,0.104,0.405,0.104,0.542
			c0,0.173-0.069,0.311-0.207,0.414l0.155,0.465l-0.052,0.103l-0.052,0.104c0,0.276-0.052,0.432-0.155,0.465
			c0.104,0.207,0.104,0.328,0,0.362c0.034,0.034,0.052,0.103,0.052,0.206c0,0.173-0.086,0.293-0.258,0.361
			c0.068,0.07,0.172,0.207,0.31,0.414c-0.069,0.103-0.104,0.275-0.104,0.517s-0.052,0.396-0.154,0.465
			c0,0.104,0.017,0.189,0.051,0.258c-0.206,0.276-0.31,0.448-0.31,0.517c-0.034,0.069-0.034,0.155,0,0.259s0.052,0.173,0.052,0.206
			c0,0.069-0.018,0.121-0.052,0.155c0,0.035,0.034,0.087,0.104,0.155c-0.276,0.275-0.431,0.413-0.465,0.413
			c0,0.069,0.025,0.121,0.077,0.155s0.077,0.069,0.077,0.103c0,0.035-0.025,0.07-0.077,0.104c-0.052,0.035-0.061,0.069-0.025,0.104
			c0.068,0.138,0.103,0.241,0.103,0.31c0,0.07-0.043,0.207-0.129,0.414c-0.086,0.206-0.129,0.361-0.129,0.465V79.2
			c0,0.035-0.025,0.061-0.077,0.078s-0.061,0.043-0.026,0.077c0.034,0.035,0.052,0.155,0.052,0.361l0.052,0.155
			c0,0.241-0.035,0.432-0.104,0.568c-0.069,0.517-0.154,0.81-0.258,0.878c0.068,0.069,0.104,0.121,0.104,0.155
			c-0.139,0.138-0.207,0.276-0.207,0.413c0,0.035,0.017,0.069,0.052,0.104c-0.139,0.379-0.276,0.638-0.413,0.775
			c0,0.034,0,0.069,0,0.103c0,0.035,0,0.069,0,0.104l-0.207,0.155v0.258c0.034,0.035,0.025,0.069-0.025,0.104
			c-0.052,0.035-0.078,0.069-0.078,0.104v0.155c-0.104,0.172-0.189,0.275-0.258,0.31c0.068,0.069,0.068,0.155,0,0.258
			c-0.069,0.104-0.087,0.173-0.052,0.207c-0.035,0.035-0.061,0.104-0.078,0.207c-0.018,0.103-0.061,0.173-0.129,0.206
			c0.034,0.035,0.034,0.104,0,0.207l-0.052,0.052c0,0.173-0.018,0.275-0.052,0.31c-0.069,0.069-0.121,0.104-0.154,0.104
			c-0.035,0.069-0.061,0.173-0.078,0.31c-0.018,0.139-0.061,0.242-0.129,0.311c-0.173,0.034-0.258,0.154-0.258,0.361
			c0,0.035,0,0.069,0,0.104l0.052,0.104c-0.035,0.069-0.139,0.173-0.311,0.31v0.207c-0.069,0.034-0.138,0.121-0.206,0.258
			c-0.07,0.138-0.155,0.225-0.259,0.259v0.103c0,0.207-0.104,0.345-0.31,0.414c0,0.069,0.017,0.121,0.052,0.154
			c0.033,0.035,0.051,0.069,0.051,0.104c0,0.069-0.061,0.147-0.181,0.232c-0.121,0.087-0.181,0.164-0.181,0.232
			c-0.034,0.035-0.061,0.096-0.077,0.181c-0.018,0.087-0.052,0.155-0.104,0.207s-0.112,0.096-0.181,0.129
			c0,0.069-0.052,0.147-0.155,0.232c-0.104,0.087-0.155,0.181-0.155,0.284c-0.069,0.035-0.181,0.121-0.335,0.259
			c-0.155,0.138-0.284,0.206-0.388,0.206h-0.104c-0.034,0.035-0.052,0.121-0.052,0.259c-0.069,0.069-0.206,0.138-0.413,0.206
			c-0.138,0.139-0.276,0.242-0.413,0.311l-0.311,0.206c-0.034,0.035-0.121,0.052-0.258,0.052c-0.035,0.035-0.147,0.121-0.336,0.259
			c-0.189,0.138-0.336,0.225-0.439,0.258h-0.154c-0.035,0-0.121-0.008-0.259-0.025c-0.138-0.017-0.241-0.026-0.31-0.026
			c-0.139,0-0.241,0.019-0.311,0.052c-0.034,0-0.103,0.018-0.206,0.052c-0.104,0.035-0.173,0.052-0.207,0.052
			c-0.173,0.035-0.448,0.052-0.826,0.052c-0.104,0-0.259-0.025-0.465-0.077c-0.207-0.052-0.38-0.078-0.517-0.078
			c-0.035,0-0.096,0.026-0.181,0.078c-0.087,0.052-0.147,0.077-0.182,0.077c-0.138,0.035-0.396,0.052-0.774,0.052
			c-0.276,0-0.465-0.017-0.568-0.052c-0.069-0.068-0.138-0.104-0.207-0.104c-0.034,0-0.121-0.017-0.258-0.052
			c-0.138-0.033-0.225-0.052-0.259-0.052s-0.111-0.042-0.232-0.129c-0.121-0.085-0.215-0.146-0.284-0.181
			c-0.069-0.068-0.103-0.12-0.103-0.155c-0.069,0-0.147-0.042-0.232-0.129c-0.087-0.086-0.182-0.129-0.284-0.129
			c-0.069-0.068-0.139-0.146-0.207-0.232c-0.069-0.086-0.155-0.172-0.258-0.259c-0.104-0.085-0.173-0.146-0.207-0.181
			c-0.138-0.344-0.276-0.568-0.413-0.672v-0.154c-0.241-0.311-0.396-0.568-0.465-0.775c-0.035-0.068-0.069-0.172-0.104-0.31
			c-0.035-0.138-0.069-0.24-0.104-0.311c0-0.033-0.025-0.077-0.077-0.129s-0.096-0.111-0.13-0.181
			c-0.034-0.034-0.061-0.111-0.077-0.232c-0.018-0.12-0.025-0.198-0.025-0.232c-0.035-0.068-0.087-0.146-0.155-0.232
			c-0.069-0.086-0.104-0.146-0.104-0.181v-0.207c-0.104-0.24-0.173-0.413-0.206-0.517c-0.173-0.344-0.259-0.602-0.259-0.774v-0.104
			c-0.207-0.344-0.31-0.637-0.31-0.878v-0.155c0-0.034-0.019-0.06-0.052-0.077c-0.035-0.018-0.052-0.043-0.052-0.078
			c0-0.137-0.044-0.336-0.129-0.594c-0.087-0.259-0.13-0.439-0.13-0.543V83.23c-0.069-0.172-0.327-0.947-0.774-2.325l-0.104-0.206
			v-0.414c-0.173-0.517-0.258-0.964-0.258-1.343v-0.155v-0.052l-0.052-0.103c-0.035-0.104-0.035-0.267,0-0.491
			c0.033-0.224,0.033-0.388,0-0.491c0-0.033-0.018-0.085-0.052-0.154v-0.311c0-0.137-0.035-0.326-0.104-0.568
			c-0.069-0.24-0.104-0.413-0.104-0.517v-0.154c-0.069-0.068-0.121-0.215-0.155-0.439c-0.034-0.224-0.086-0.369-0.154-0.439v-0.723
			c0-0.138-0.018-0.292-0.052-0.465c-0.035-0.172-0.052-0.292-0.052-0.361c0-0.034,0.017-0.095,0.052-0.182
			c0.034-0.085,0.034-0.146,0-0.181l-0.052-0.104c0-0.068,0-0.12,0-0.154c0-0.069,0.052-0.465,0.155-1.188
			c0-0.068-0.009-0.188-0.026-0.361c-0.018-0.172-0.025-0.292-0.025-0.362v-0.051l0.052-0.052c0.033,0,0.033-0.018,0-0.052
			c-0.035-0.034-0.035-0.052,0-0.052c0.033-0.104,0.094-0.267,0.181-0.491c0.085-0.224,0.146-0.404,0.181-0.542l0.774-0.311
			c0.034,0,0.138-0.051,0.311-0.154c0.172-0.104,0.292-0.172,0.361-0.207h0.311c0.068,0,0.172-0.017,0.31-0.052
			c0.137-0.033,0.224-0.052,0.258-0.052c0.138-0.033,0.345-0.12,0.62-0.258c0.069,0.034,0.155,0.052,0.259,0.052
			c0.068,0,0.172-0.009,0.31-0.026c0.138-0.017,0.259-0.025,0.361-0.025l0.052,0.052c0,0.069,0.034,0.104,0.104,0.104
			c0.034,0,0.068-0.018,0.104-0.052c0.034-0.034,0.086-0.052,0.155-0.052c0.033,0.069,0.137,0.104,0.31,0.104
			c0.172,0,0.259,0.051,0.259,0.154c0.033,0,0.094,0.018,0.181,0.052c0.085,0.035,0.146,0.052,0.181,0.052
			c0.104,0.173,0.137,0.293,0.104,0.361c0.103,0.104,0.154,0.173,0.154,0.207c0.104,0,0.241,0.052,0.414,0.155v0.154
			c0,0.38-0.019,0.604-0.052,0.672c0.137,0.207,0.206,0.413,0.206,0.62v0.155c0.034,0.034,0.086,0.069,0.155,0.103
			c0.068,0.035,0.104,0.069,0.104,0.104c0,0.173-0.018,0.293-0.052,0.361c0,0.035,0.025,0.087,0.077,0.155
			c0.052,0.069,0.078,0.138,0.078,0.207c0.24,0.241,0.396,0.654,0.465,1.239c0.033,0.069,0.025,0.112-0.026,0.13
			s-0.077,0.043-0.077,0.077l0.104,0.104c0.068,0.069,0.094,0.121,0.077,0.154c-0.018,0.035-0.044,0.087-0.077,0.155
			c0.172,0.173,0.326,0.293,0.465,0.361c0,0.311,0.085,0.517,0.258,0.62v0.104c0,0.207,0.034,0.413,0.104,0.62
			c0.034,0,0.086,0,0.155,0c0.068,0,0.104,0.018,0.104,0.052c0.137,0.206,0.206,0.345,0.206,0.413
			c0.104,0.104,0.207,0.267,0.311,0.49c0.103,0.225,0.188,0.371,0.258,0.439c0,0.31,0.017,0.482,0.052,0.517
			c-0.035,0.069-0.052,0.164-0.052,0.284c0,0.121-0.035,0.198-0.104,0.232c0,0.035,0.052,0.104,0.155,0.207
			c-0.035,0.069-0.052,0.173-0.052,0.31c0,0.448-0.018,0.706-0.052,0.775c0.034,0.069,0.077,0.129,0.129,0.181
			s0.078,0.095,0.078,0.129c-0.035,0.069-0.052,0.189-0.052,0.361c0,0.413,0.188,0.81,0.568,1.188c0,0.034,0.017,0.121,0.052,0.258
			c0.033,0.139,0.051,0.225,0.051,0.259s0.018,0.112,0.052,0.232c0.034,0.121,0.061,0.225,0.078,0.31
			c0.017,0.087,0.043,0.147,0.077,0.182c0,0.069,0.034,0.129,0.104,0.181c0.068,0.052,0.12,0.112,0.155,0.181
			c0.068,0.104,0.12,0.258,0.154,0.465c0.034,0.206,0.069,0.361,0.104,0.465c0.068-0.034,0.12-0.111,0.155-0.232
			c0.034-0.12,0.06-0.259,0.077-0.413c0.017-0.155,0.043-0.267,0.077-0.336c0-0.034,0.034-0.086,0.104-0.155
			c0.069-0.653,0.155-1.137,0.259-1.446c0.104-0.207,0.154-0.327,0.154-0.361s0.052-0.327,0.155-0.879l0.155-0.413
			c0.034-0.068,0.095-0.224,0.181-0.465c0.086-0.24,0.146-0.43,0.181-0.568l0.155-0.413c0-0.068,0.008-0.181,0.025-0.336
			c0.018-0.154,0.043-0.267,0.078-0.336c0-0.033,0.033-0.085,0.103-0.154v-0.155c0-0.172,0.034-0.31,0.104-0.413
			c0-0.138-0.018-0.207-0.052-0.207c0.034-0.068,0.061-0.197,0.078-0.388c0.017-0.188,0.06-0.317,0.129-0.387
			c0-0.104,0.025-0.232,0.077-0.388s0.078-0.284,0.078-0.388c0.033,0,0.052-0.025,0.052-0.077s0.033-0.06,0.103-0.026
			c-0.034-0.033-0.052-0.12-0.052-0.258c0-0.275,0.086-0.447,0.259-0.517c0-0.034-0.018-0.068-0.052-0.104l-0.052-0.052
			c0.034-0.104,0.078-0.275,0.129-0.517c0.052-0.24,0.111-0.413,0.182-0.517c0.033-0.068,0.085-0.137,0.154-0.206
			c0-0.034,0-0.095,0-0.182c0-0.085,0.018-0.154,0.052-0.206s0.086-0.077,0.155-0.077v-0.104c0-0.311,0.085-0.586,0.258-0.827
			c0-0.137-0.034-0.224-0.103-0.258c0.103-0.311,0.224-0.534,0.361-0.672c0.034-0.034,0.095-0.077,0.181-0.129
			s0.146-0.104,0.181-0.155s0.052-0.129,0.052-0.232c0.207-0.068,0.327-0.188,0.361-0.361c0.172-0.034,0.344-0.138,0.517-0.311
			h0.207c0.034,0,0.086-0.068,0.155-0.206c0.619-0.172,0.946-0.311,0.981-0.413l0.31-0.155c0.034,0,0.086-0.008,0.155-0.026
			C36.688,68.619,36.74,68.61,36.775,68.61z M33.262,74.396c0.034,0,0.069,0.018,0.104,0.052
			C33.331,74.448,33.296,74.431,33.262,74.396z"/>
	</g>
	<g>
		<path fill="#FFFFFF" d="M64.581,67.681h0.155c0.379,0,0.603,0.034,0.672,0.104c0.103-0.034,0.274-0.052,0.517-0.052
			c0.137,0,0.326,0.009,0.567,0.025c0.241,0.018,0.396,0.026,0.466,0.026c0.103,0,0.258-0.009,0.465-0.026
			c0.206-0.017,0.361-0.025,0.465-0.025c0.033,0,0.085,0.018,0.154,0.052s0.121,0.052,0.155,0.052s0.095-0.009,0.181-0.026
			c0.086-0.017,0.163-0.025,0.232-0.025c0.034,0,0.207,0.009,0.517,0.025c0.311,0.018,0.551,0.061,0.724,0.129
			c0.068,0,0.12-0.017,0.155-0.052h0.103c0.138,0.104,0.293,0.155,0.466,0.155h0.206c0.068,0,0.189-0.008,0.361-0.025
			c0.173-0.018,0.311-0.026,0.414-0.026h0.154c0.069,0,0.241,0.035,0.517,0.104c0.447,0.104,0.758,0.259,0.931,0.465
			c0.033,0.035,0.103,0.121,0.206,0.259s0.189,0.241,0.259,0.31c0.033,0.035,0.085,0.096,0.154,0.181
			c0.069,0.087,0.12,0.164,0.155,0.232l0.052,0.62c-0.069,0.38-0.207,0.724-0.413,1.033c-0.173,0.241-0.345,0.396-0.517,0.465
			c-0.069,0.035-0.19,0.069-0.362,0.104s-0.293,0.069-0.361,0.104c-0.138,0.069-0.276,0.104-0.413,0.104
			c-0.069,0-0.173-0.034-0.31-0.104c-0.207,0.173-0.604,0.258-1.188,0.258h-1.033c-0.138,0-0.38,0.009-0.724,0.026
			c-0.345,0.018-0.62,0.025-0.826,0.025h-0.361c-0.139-0.034-0.311-0.034-0.517,0c-0.104,0-0.232-0.008-0.388-0.025
			s-0.268-0.026-0.336-0.026c-0.069,0-0.164,0.009-0.284,0.026c-0.121,0.018-0.216,0.025-0.284,0.025
			c-0.069,0-0.164-0.008-0.284-0.025c-0.121-0.018-0.198-0.026-0.232-0.026c-0.173,0-0.293,0.035-0.361,0.104
			c0.034,0.069,0.052,0.173,0.052,0.31c-0.207,0.104-0.328,0.173-0.362,0.207c0.034,0.035,0.052,0.138,0.052,0.31l-0.052,0.311
			c0,0.069-0.034,0.138-0.103,0.206c-0.069,0.069-0.104,0.121-0.104,0.155c0.034,0.035,0.034,0.069,0,0.104l0.104,0.052
			c0.033,0,0.052,0.018,0.052,0.052c0.033,0.206,0.06,0.638,0.077,1.291c0.017,0.655,0.077,1.137,0.181,1.446
			c-0.104,0.276-0.173,0.448-0.207,0.517c0.034,0.069,0.086,0.104,0.155,0.104c0.068,0,0.104,0.018,0.104,0.052
			c0,0.276-0.018,0.465-0.052,0.568c0.104,0.173,0.155,0.361,0.155,0.568c0,0.241-0.087,0.482-0.259,0.723
			c0,0.07-0.009,0.147-0.025,0.232c-0.018,0.087-0.026,0.147-0.026,0.182c0,0.206,0.018,0.49,0.052,0.852
			c0.034,0.362,0.052,0.612,0.052,0.75c0,0.172-0.018,0.31-0.052,0.413c0.207,0.138,0.379,0.31,0.517,0.517
			c0.104,0,0.259-0.009,0.465-0.026c0.207-0.017,0.344-0.025,0.413-0.025c0.173,0,0.362,0.034,0.568,0.104
			c0.345-0.069,0.62-0.104,0.827-0.104l0.517,0.052c0.033,0.034,0.137,0.086,0.31,0.154c0.172,0.069,0.275,0.139,0.311,0.207h0.206
			c0.034,0.035,0.155,0.138,0.361,0.31c0.207,0.173,0.379,0.276,0.517,0.311c0,0.104,0.069,0.206,0.207,0.31
			c-0.069,0.069-0.077,0.173-0.025,0.311s0.077,0.224,0.077,0.258v0.104l-0.207,0.206c0,0.07-0.043,0.173-0.129,0.311
			s-0.129,0.258-0.129,0.361c-0.035,0.035-0.104,0.052-0.207,0.052c-0.034,0.138-0.121,0.31-0.258,0.517l-0.724,0.155
			c-0.069,0-0.173,0.018-0.31,0.052c-0.069,0.069-0.139,0.103-0.207,0.103c-0.104,0-0.225-0.017-0.361-0.051
			c-0.138-0.034-0.259-0.052-0.361-0.052l-0.517,0.052h-0.155c-0.069,0-0.164-0.018-0.284-0.052
			c-0.121-0.034-0.198-0.052-0.232-0.052c-0.104,0-0.173,0.018-0.207,0.052c-0.103,0.103-0.154,0.293-0.154,0.568
			c0,0.034-0.009,0.103-0.026,0.206s-0.025,0.189-0.025,0.259c0,0.138,0.017,0.327,0.052,0.568c0.033,0.241,0.052,0.413,0.052,0.517
			v0.567c0.103,0.035,0.378,0.13,0.826,0.284c0.447,0.155,0.757,0.303,0.93,0.439c0.068,0,0.12-0.008,0.155-0.025
			c0.034-0.018,0.068-0.026,0.104-0.026c0.31,0.104,0.671,0.155,1.084,0.155c0.311,0,0.706-0.034,1.188-0.104
			c0.034,0,0.12,0.069,0.259,0.207c0.103,0,0.317-0.026,0.646-0.078c0.327-0.052,0.576-0.077,0.749-0.077
			c0.24,0,0.43,0.052,0.568,0.155c0.034-0.069,0.12-0.078,0.258-0.026s0.224,0.078,0.259,0.078h0.104
			c0.033,0.034,0.068,0.069,0.103,0.103l0.104,0.052l0.465,0.155c0.138,0.207,0.207,0.379,0.207,0.517
			c0.034,0.034,0.104,0.095,0.207,0.181c0.103,0.087,0.172,0.147,0.206,0.181c0.068,0.069,0.104,0.259,0.104,0.568
			c0,0.276-0.035,0.465-0.104,0.568l-0.155,0.104c-0.241,0.345-0.447,0.551-0.619,0.62l-0.465,0.206h-0.259
			c-0.104,0-0.225,0.044-0.361,0.129c-0.139,0.087-0.241,0.13-0.311,0.13s-0.138-0.009-0.206-0.026
			c-0.069-0.017-0.121-0.025-0.155-0.025s-0.104,0.052-0.207,0.155c-0.103,0-0.25,0.051-0.438,0.154
			c-0.189,0.104-0.336,0.172-0.439,0.207c-0.069,0-0.225,0.008-0.465,0.025c-0.241,0.018-0.431,0.043-0.568,0.078
			c-0.276,0.068-0.551,0.103-0.826,0.103c-0.207,0-0.345-0.018-0.413-0.052l-0.155,0.052c-0.069,0.034-0.121,0.069-0.155,0.104
			c-0.069-0.034-0.173-0.052-0.31-0.052c-0.069,0-0.173,0.009-0.311,0.026c-0.138,0.017-0.241,0.025-0.31,0.025
			c-0.035,0-0.086,0-0.155,0l-0.052-0.052c-0.034,0-0.086,0.009-0.154,0.026c-0.069,0.017-0.121,0.025-0.155,0.025
			c-0.104,0.034-0.328,0.052-0.672,0.052H64.84c-0.139,0.068-0.225,0.104-0.259,0.104c-0.104,0.034-0.258,0.052-0.465,0.052
			c-0.31,0-0.534-0.018-0.672-0.052l-0.258,0.155c-0.173,0-0.422,0.017-0.749,0.051c-0.328,0.034-0.577,0.052-0.749,0.052
			c-0.207,0-0.38-0.018-0.517-0.052c-0.069-0.069-0.259-0.154-0.568-0.258s-0.5-0.241-0.568-0.413c-0.069,0-0.164-0.052-0.284-0.155
			c-0.121-0.104-0.232-0.172-0.336-0.206c-0.069-0.207-0.258-0.405-0.568-0.595c-0.31-0.188-0.499-0.318-0.568-0.388
			c0-0.137-0.069-0.24-0.206-0.31c0-0.068-0.009-0.146-0.026-0.232s-0.025-0.146-0.025-0.181c-0.138-0.104-0.31-0.292-0.517-0.568
			c-0.035-0.068-0.035-0.138,0-0.207v-0.052c-0.241-0.31-0.361-0.585-0.361-0.826v-0.104c-0.104-0.172-0.19-0.499-0.259-0.981
			c-0.069-0.481-0.173-0.809-0.31-0.981v-0.104c0-0.068-0.035-0.188-0.104-0.361c-0.069-0.172-0.104-0.292-0.104-0.361l0.052-0.207
			c-0.138-0.24-0.207-0.517-0.207-0.826c0-0.207-0.009-0.447-0.025-0.724c-0.018-0.275-0.044-0.585-0.077-0.93
			c-0.035-0.344-0.052-0.62-0.052-0.826v-1.24c0-0.138,0.017-0.336,0.052-0.594c0.033-0.259,0.052-0.439,0.052-0.543
			c0-0.068-0.009-0.188-0.026-0.361c-0.018-0.172-0.025-0.311-0.025-0.413c0-0.172,0.017-0.311,0.052-0.414
			c-0.035-0.033-0.035-0.051,0-0.051l0.103-0.052c-0.172-1.137-0.258-1.929-0.258-2.377c0-0.104,0.034-0.292,0.104-0.568h-0.052
			c-0.069,0-0.104-0.017-0.104-0.052c0-0.206,0.008-0.542,0.025-1.007s0.026-0.817,0.026-1.06c0-0.033-0.009-0.103-0.026-0.206
			s-0.025-0.189-0.025-0.259c0-0.137,0.052-0.258,0.155-0.361l-0.052-0.052c-0.069,0-0.087-0.034-0.052-0.104
			c0.104-0.826,0.155-1.635,0.155-2.428c0.033-0.034,0.085-0.077,0.154-0.129s0.12-0.095,0.155-0.129
			c-0.035-0.069-0.069-0.086-0.104-0.052s-0.069,0.034-0.104,0c0-0.207,0.052-0.439,0.155-0.697
			c0.104-0.259,0.172-0.439,0.207-0.543c0.033,0,0.077-0.034,0.129-0.104c0.052-0.068,0.111-0.103,0.181-0.103
			c0.068-0.138,0.24-0.302,0.517-0.491c0.275-0.188,0.447-0.353,0.517-0.491c0.034,0,0.275-0.051,0.724-0.154
			c0.206,0,0.344-0.086,0.413-0.259c0.034,0.035,0.085,0.052,0.155,0.052c0.068,0,0.181-0.034,0.335-0.104
			c0.155-0.068,0.25-0.103,0.284-0.103c0.104-0.034,0.259-0.052,0.465-0.052c0.207,0,0.414,0.034,0.62,0.103
			c0.069,0,0.163-0.017,0.284-0.051c0.12-0.034,0.232-0.061,0.336-0.078c0.104-0.017,0.207-0.025,0.31-0.025
			c0.034,0,0.086,0.018,0.155,0.052h0.104c0.068,0,0.172-0.018,0.31-0.052s0.259-0.052,0.362-0.052l0.206,0.052
			c0.138,0,0.318-0.018,0.543-0.052c0.224-0.034,0.387-0.052,0.49-0.052h0.155L64.581,67.681z"/>
	</g>
</g>
</svg>
