<?xml version="1.0" encoding="utf-8"?>
<!-- Generator: Adobe Illustrator 16.0.0, SVG Export Plug-In . SVG Version: 6.00 Build 0)  -->
<!DOCTYPE svg PUBLIC "-//W3C//DTD SVG 1.1//EN" "http://www.w3.org/Graphics/SVG/1.1/DTD/svg11.dtd">
<svg version="1.1" id="Layer_1" xmlns="http://www.w3.org/2000/svg" xmlns:xlink="http://www.w3.org/1999/xlink" x="0px" y="0px"
	 width="75.32px" height="65.793px" viewBox="0 0 75.32 65.793" enable-background="new 0 0 75.32 65.793" xml:space="preserve">
<g id="Layer_2">
</g>
<g>
	<path fill="#FFFFFF" d="M0.941,37.973c7.134,13.479,24.156,4.81,23.861,8.104c-2.814,7.334-3.401,20.631,6.984,19.666
		c8.035-0.744,8.862-6.98,12.596-10.522c2.235,3.11,3.987-0.356,6.193,0.84c2.411,1.308,0.333,3.758,1.631,5.651
		c2.901,4.236,10.946,3.77,14.455,1.461c3.437-2.262,7.968-7.766,6.153-12.199c-0.851-2.075-4.269-3.191-4.558-5.051
		c-0.256-1.646,2.579-5.27,3.428-6.58c4.59-7.108,6.377-22.229-4.096-26.18c-4.789-1.806-7.33,1.1-11.279-2.619
		c-1.533-1.442-2.742-3.592-5.092-4.325c-3.164-0.987-5.067,1.893-8.081,1.957c-8.554,0.18-16.975-7.893-25.42-8.172
		C4.141-0.446-2.621,31.242,0.941,37.973z"/>
	<g>
		<path fill="#BE1E2D" d="M44.273,43.436c-3.42,5.296-9.545,22.464-14.81,14.331c-3.664-5.665,1.494-12.084,0.99-16.124
			c-0.451-3.604-13.98-1.313-16.376-1.574C4.855,39.067,1.407,11.116,20.605,5.882c5.681-1.547,17.539,6.565,19.707,6.789
			c2.715,0.285,5.421-1.666,8.043-1.025c5.397,1.315,10.346,10.655,10.939,16.126c0.878,8.055-3.2,10-9.828,12.213L44.273,43.436z"
			/>
		<path fill="#231F20" d="M32.472,60.667c-1.343,0-2.565-0.838-3.638-2.494c-2.522-3.9-1.177-8.146-0.096-11.555
			c0.584-1.84,1.135-3.576,0.972-4.884c-0.053-0.42-0.709-1.397-5.65-1.397c-2.094,0-4.4,0.176-6.255,0.314
			c-1.737,0.133-3.147,0.235-3.808,0.161c-4.151-0.45-7.448-5.753-8.014-12.895c-0.673-8.502,2.7-19.564,14.424-22.761
			c0.542-0.147,1.15-0.223,1.809-0.223c4.19,0,9.933,2.96,14.124,5.121c1.73,0.892,3.521,1.813,4.05,1.868
			c1.147,0.117,2.276-0.203,3.501-0.545c1.082-0.302,2.199-0.614,3.339-0.614c0.461,0,0.887,0.05,1.304,0.151
			c5.771,1.406,10.88,10.995,11.509,16.773c0.931,8.538-3.444,10.699-10.242,12.975l-4.979,3.308
			c-0.706,1.12-1.557,2.791-2.455,4.557C39.469,54.219,36.189,60.667,32.472,60.667z M24.06,38.837c2.92,0,6.836,0.281,7.14,2.713
			c0.204,1.633-0.396,3.521-1.03,5.521c-1.037,3.271-2.214,6.979-0.073,10.287c0.775,1.2,1.575,1.809,2.377,1.809
			c2.797,0,6.126-6.541,8.557-11.317c0.993-1.952,1.851-3.638,2.615-4.821l0.085-0.131l5.502-3.623
			c6.929-2.314,10.106-4.195,9.319-11.421c-0.57-5.253-5.444-14.277-10.372-15.479c-1.12-0.273-2.48,0.06-3.885,0.45
			c-1.301,0.364-2.666,0.742-4.06,0.593c-0.773-0.08-2.104-0.75-4.58-2.027c-3.827-1.973-9.611-4.954-13.438-4.954
			c-0.524,0-1.001,0.058-1.414,0.17C9.964,9.561,6.852,19.871,7.48,27.801c0.5,6.311,3.31,11.155,6.681,11.521
			c0.579,0.065,1.923-0.044,3.531-0.164C19.571,39.015,21.91,38.837,24.06,38.837z"/>
	</g>
	<path fill="#77111A" d="M47.898,37.503c0,0,2.358-16.44-3.868-20.418c-6.224-3.978,1.314-3.879,4.781-3.499
		c3.465,0.382,14.551,15.735,3.218,22.967C51.4,36.953,47.898,37.503,47.898,37.503z"/>
	<g>
		<path fill="#231F20" d="M57.338,60.928c-0.505,0-1.038-0.022-1.602-0.069c-0.413-0.033-0.72-0.396-0.687-0.809
			c0.034-0.413,0.403-0.721,0.81-0.686c3.946,0.322,6.778-0.621,8.2-2.74c1.306-1.945,1.307-4.856,0.002-7.416
			c-0.581-1.142-1.34-2.056-2.195-2.685c-0.234,0.231-0.475,0.464-0.72,0.697c-4.377,4.161-8.017,4.349-9.805,3.245
			c-1.062-0.654-1.524-1.807-1.183-2.936c0.553-1.822,3.243-3.703,9.155-3.468c0.794,0.028,1.571,0.228,2.308,0.575
			c8.911-9.201,9.368-16.962,6.675-21.28c-2.352-3.768-7.1-5.122-11.818-3.373c-0.387,0.147-0.819-0.053-0.964-0.442
			c-0.146-0.389,0.054-0.819,0.441-0.964c5.402-2.004,10.875-0.404,13.613,3.985c2.972,4.765,2.645,13.157-6.646,22.881
			c0.973,0.759,1.821,1.804,2.474,3.08c1.548,3.036,1.511,6.543-0.095,8.935C64.21,59.094,61.951,60.928,57.338,60.928z
			 M58.359,45.546c-4.731,0-6.481,1.49-6.765,2.422c-0.146,0.478,0.051,0.924,0.535,1.223c1.393,0.861,4.485,0.27,7.982-3.057
			c0.121-0.115,0.241-0.229,0.359-0.346c-0.396-0.133-0.804-0.211-1.214-0.227C58.948,45.552,58.648,45.546,58.359,45.546z"/>
	</g>
	<g>
		<path fill="#FFFFFF" d="M31.891,34.803c-1.646-1.005-4.855-1.656-3.358-3.697c0.52-0.71,1.535-1.642,1.764-2.426
			c0.291-1.008-1.282-1.264-2.217-1.704c-1.659-0.786-1.744-0.836-0.486-2.031c0.519-0.489,2.01-1.793,1.93-2.501
			c-0.067-0.655-1.78-1.438-2.439-1.862c-1.21-0.78-2.213-0.962-0.645-2.208c1.063-0.84,2.586-1.267,1.395-2.336
			c-0.771-0.688-1.91-1.074-2.896-1.559c-0.584-0.257,1.743-2.006,2.514-2.449c0.899-0.443,2.123-0.478,1.323,0.773
			c-0.773,1.213-1.879,0.986-0.133,2.059c0.753,0.467,2.249,1.393,1.963,2.23c-0.286,0.833-2.753,2.021-2.296,2.308
			c1.699,0.989,4.017,2.228,2.408,4.081c-0.604,0.693-1.448,1.571-1.108,1.926c0.51,0.536,1.701,1.097,2.341,1.576
			c1.117,0.838,1.589,1.007,0.856,2.349c-0.404,0.745-1.115,1.249-1.592,2.021c-0.818,1.344,1.181,1.545,2.387,2.146
			c0.57,0.283,1.773,1.545,0.093,1.754C33.122,35.326,32.335,35.111,31.891,34.803z"/>
		<path fill="#FFFFFF" d="M33.781,31.87c0.094,0.743,1.648,1.115,1.966,0.19c0.394-1.153-1.737-1.523-1.975-0.297L33.781,31.87z"/>
		<path fill="#FFFFFF" d="M32.26,24.24c-0.686,1.181,1.396,1.649,1.68,0.697C34.202,24.047,32.847,23.575,32.26,24.24z"/>
		<path fill="#FFFFFF" d="M30.981,19.255c0.3,1.117,2.134,0.74,1.901-0.336C32.669,17.906,30.774,18.133,30.981,19.255z"/>
		<path fill="#FFFFFF" d="M30.001,14.019c0.24,0.956,1.734,0.758,1.705-0.123C31.672,12.808,29.906,13.038,30.001,14.019z"/>
		<path fill="#FFFFFF" d="M24.26,17.933c1.087,0.785,2.334-0.801,1.372-1.34C24.635,16.032,23.373,17.168,24.26,17.933z"/>
		<path fill="#FFFFFF" d="M25.596,23.782c1.027,0.379,1.586-0.773,1.045-1.145C25.132,21.9,24.891,23.538,25.596,23.782z"/>
		<path fill="#FFFFFF" d="M26.811,29.161c-0.595,0.779,0.773,1.287,1.282,0.654C28.783,28.954,27.007,28.824,26.811,29.161z"/>
	</g>
	<g>
		<g>
			<defs>
				<path id="SVGID_1_" d="M42.302,42.697c-3.285,5.088-8.754,24.09-13.809,16.277c-3.52-5.441-1.131-15.166-1.615-19.047
					c-0.433-3.463-9.882,0.074-12.181-0.176C5.839,38.789,2.526,11.937,20.968,6.91c5.457-1.486,16.849,6.308,18.934,6.522
					c2.606,0.274,5.207-1.6,7.725-0.984c5.188,1.263,9.94,10.236,10.512,15.49c0.844,7.738-5.105,10.318-11.473,12.443
					L42.302,42.697z"/>
			</defs>
			<clipPath id="SVGID_2_">
				<use xlink:href="#SVGID_1_"  overflow="visible"/>
			</clipPath>
			<g clip-path="url(#SVGID_2_)">
				<path fill="#FFFFFF" d="M35.314,9.021c-0.988,1.511-3.368,3.157-1.457,4.696c0.666,0.536,1.811,1.134,2.264,1.833
					c0.583,0.898-0.607,1.649-1.213,2.374c-1.078,1.298-1.134,1.374,0.299,2.15c0.589,0.322,2.242,1.134,2.425,1.854
					c0.167,0.668-0.957,1.974-1.344,2.603c-0.715,1.15-1.468,1.647,0.234,2.377c1.146,0.495,2.529,0.433,1.93,1.858
					c-0.392,0.92-1.182,1.656-1.816,2.443c-0.386,0.438,2.101,1.427,2.879,1.62c0.883,0.153,1.89-0.2,0.811-1.179
					c-1.043-0.949-1.861-0.379-0.815-1.984c0.457-0.696,1.354-2.078,0.832-2.812c-0.519-0.728-2.926-1.122-2.65-1.551
					c1.038-1.503,2.494-3.452,0.557-4.772c-0.729-0.494-1.714-1.088-1.561-1.544c0.228-0.687,1.005-1.614,1.359-2.291
					c0.615-1.176,0.941-1.487-0.108-2.58c-0.585-0.604-1.335-0.878-1.985-1.487c-1.126-1.064,0.426-1.894,1.201-2.861
					c0.365-0.461,0.91-2.082-0.525-1.757C36.135,8.123,35.571,8.58,35.314,9.021z"/>
				<path fill="#FFFFFF" d="M37.856,11.312c-0.182-0.757,0.954-1.617,1.531-0.803c0.711,1.008-0.89,2.045-1.505,0.913L37.856,11.312
					z"/>
				<path fill="#FFFFFF" d="M39.233,19.3c-0.96-0.947,0.568-2.062,1.126-1.214C40.88,18.877,39.94,19.77,39.233,19.3z"/>
				<path fill="#FFFFFF" d="M39.905,24.607c-0.141-1.193,1.479-1.4,1.658-0.269C41.732,25.403,40.12,25.774,39.905,24.607z"/>
				<path fill="#FFFFFF" d="M40.903,30.068c-0.133-1.013,1.146-1.29,1.426-0.416C42.675,30.733,41.162,31.066,40.903,30.068z"/>
				<path fill="#FFFFFF" d="M34.905,28.026c0.611-1.112,2.168,0.054,1.57,0.886C35.86,29.775,34.444,29.06,34.905,28.026z"/>
				<path fill="#FFFFFF" d="M33.985,21.849c0.706-0.695,1.55,0.265,1.237,0.799C34.253,23.848,33.495,22.312,33.985,21.849z"/>
				<path fill="#FFFFFF" d="M33.127,16.175c-0.749-0.581,0.187-1.513,0.816-1.047C34.8,15.758,33.401,16.445,33.127,16.175z"/>
			</g>
		</g>
	</g>
</g>
</svg>
