<?xml version="1.0" encoding="utf-8"?>
<!-- Generator: Adobe Illustrator 16.0.0, SVG Export Plug-In . SVG Version: 6.00 Build 0)  -->
<!DOCTYPE svg PUBLIC "-//W3C//DTD SVG 1.1//EN" "http://www.w3.org/Graphics/SVG/1.1/DTD/svg11.dtd">
<svg version="1.1" id="Layer_1" xmlns="http://www.w3.org/2000/svg" xmlns:xlink="http://www.w3.org/1999/xlink" x="0px" y="0px"
	 width="102.766px" height="59.25px" viewBox="0 0 102.766 59.25" enable-background="new 0 0 102.766 59.25" xml:space="preserve">
<g id="Layer_2">
</g>
<g>
	<path fill="#FFFFFF" d="M0,11.905c0.001-0.063,0.013-0.122,0.02-0.184c-0.003-0.099-0.007-0.191-0.011-0.291L0,11.905z
		 M92.657,11.779c-4.804,0.162-10.851-0.792-15.873-1.737c-5.438-1.021-10.434-3.566-16.198-0.999
		c-3.188,1.418-6.913,10.38-9.927,8.597c-3.256-1.927,0.117-11.839-2.814-15.271c-4.363-5.104-10.941-0.631-16.263,1.103
		C26.034,5.276,20.188,5.61,14.447,7.064C11.278,7.867,0.434,7.929,0.02,11.722c0.184,5.292,0.421,9.538,2.799,14.119
		c2.076,3.998,5.56,8.148,5.527,12.752c-0.853-0.077-2.708,0.091-3.128,1.046C0.916,49.45,23.585,55.016,28.805,55.896
		c2.815,0.476,6.328,1.391,9.283,0.885c2.487-0.428,5.229-3.268,7.631-3.26c2.506,0.012,6.548,3.418,9.012,4.274
		c3.15,1.097,6.646,1.688,10.27,1.367c3.2-0.284,5.831-1.537,8.63-2.236c2.613-0.653,5.658-0.54,8.422-1.45
		c1.334-0.438,5.256-2.067,6.512-2.834c3.799-2.317,2.396-2.231,2.344-5.791c-0.088-5.938,1.688-5.336,4.148-10.795
		c2.011-4.459,5.777-13.563,7.238-18.044C104.721,10.565,97.229,11.625,92.657,11.779z"/>
	<g>
		<path fill="#7CCDCD" d="M12.348,44.171c0.918,0.632,2.018,2.099,3.431,2.437c1.504,0.357,2.887,0.979,4.645,1.297
			c3.545,0.635,6.515,2.637,10.302,2.775c3.447,0.127,22.905-0.723,20.059-7.166c-2.996-6.777-15.296-1.437-21-2.056
			c-3.391-0.367-6.428,0.149-9.85-0.213c-2.575-0.272-5.956-1.351-7.543,2.516L12.348,44.171z"/>
		<path fill="#7CCDCD" d="M84.908,46.314c-0.956,0.593-2.146,2.012-3.575,2.287c-1.522,0.295-2.942,0.854-4.718,1.1
			c-3.578,0.484-6.667,2.355-10.458,2.335c-3.45-0.021-22.831-1.695-19.595-8.009c3.406-6.643,15.366-0.786,21.1-1.161
			c3.407-0.224,6.409,0.423,9.85,0.204c2.59-0.162,6.029-1.096,7.379,2.832L84.908,46.314z"/>
		<g>
			<path fill="#231F20" d="M63.705,12.587l28.147,3.571l-13.444,2.48l-13.351-2.751c0,0-3.036,0.505-1.725,2.468
				c1.313,1.959-5.646-0.601-3.836-3.566C61.31,11.822,63.705,12.587,63.705,12.587z"/>
			<path fill="#231F20" d="M39.977,5.192c-8.033,2.427-32.228,9.379-32.228,9.379l20.294-0.036l12.771-5.72
				c0,0,4.205-0.401,3.154,2.659c-1.048,3.06,6.964-0.97,3.52-4.262C44.044,3.92,41.839,4.632,39.977,5.192z"/>
			<g>
				<path fill="#468885" d="M74.152,17.63c-5.569,0.626-11.637,3.059-15.514,7.205c-1.231,1.315-2.354,3.013-3.159,4.85
					c-2.827,0.035-5.532-0.332-6.74-0.53c-0.956-2.685-2.358-5.413-4.28-7.029c-3.458-2.91-10.492-6.852-16.154-7.32
					C23.15,14.38,8.4,10.538,7.75,14.499c0.849,5.873,3.234,11.917,5.912,16.692c1.52,2.711,3.153,5.484,5.337,7.66
					c1.712,1.707,9.29,12.398,26.331,2.813c2.015-1.135,3.225-2.693,3.837-4.469c0.052,0.096,0.099,0.072,0.136-0.112
					c0.139-0.697,3.741-1.19,5.675-0.272c0.144,2.813,1.817,5.072,5.104,6.594c17.472,8.078,26.538-5.93,29.607-11.448
					c2.626-4.724,4.315-9.982,4.778-15.333C93.573,13.056,79.225,17.062,74.152,17.63z"/>
				<path fill="#231F20" d="M70.205,46.518c-0.001,0-0.002,0-0.003,0c-3.294,0-6.793-0.846-10.398-2.513
					c-3.274-1.515-5.152-3.838-5.455-6.735c-0.563-0.193-1.29-0.299-2.092-0.299c-1.229,0-2.088,0.238-2.342,0.387
					c-0.06,0.186-0.148,0.31-0.246,0.393c-0.742,1.9-2.091,3.41-4.015,4.492c-4.752,2.674-9.222,4.029-13.285,4.029
					c-7.548,0-11.782-4.688-13.377-6.453c-0.188-0.205-0.34-0.375-0.461-0.498c-2.243-2.233-3.922-5.08-5.447-7.805
					c-1.783-3.183-4.935-9.612-5.99-16.922c-0.01-0.067-0.009-0.135,0.002-0.202c0.383-2.331,3.965-2.331,5.144-2.331
					c3.153,0,7.277,0.697,10.917,1.313c2.118,0.359,3.949,0.669,5.202,0.772c6.178,0.511,13.415,4.854,16.526,7.473
					c2.093,1.76,3.501,4.675,4.344,6.942c1.145,0.174,3.392,0.46,5.822,0.464c0.8-1.713,1.892-3.349,3.104-4.643
					c3.678-3.933,9.631-6.703,15.924-7.41c1.235-0.139,3.029-0.485,5.105-0.886c3.672-0.708,8.24-1.589,11.426-1.589
					c0.991,0,4.009,0,4.501,1.964c0.02,0.071,0.024,0.145,0.019,0.218c-0.459,5.313-2.14,10.707-4.859,15.598
					C85.087,41.594,78.147,46.518,70.205,46.518z M52.257,35.646c0.827,0,2.021,0.098,3.005,0.564
					c0.221,0.104,0.365,0.321,0.378,0.564c0.132,2.61,1.721,4.639,4.721,6.025c3.431,1.586,6.741,2.391,9.844,2.391h0.001
					c7.435,0,13.972-4.688,18.906-13.56c2.606-4.689,4.227-9.851,4.687-14.937c-0.237-0.564-1.36-0.874-3.188-0.874
					c-3.059,0-7.559,0.868-11.175,1.565c-2.104,0.406-3.922,0.757-5.209,0.9c-5.989,0.674-11.636,3.29-15.104,7
					c-1.205,1.286-2.283,2.941-3.036,4.662c-0.104,0.237-0.339,0.394-0.601,0.397l-0.39,0.002c-2.858,0-5.474-0.38-6.466-0.542
					c-0.238-0.039-0.437-0.204-0.518-0.432c-1.103-3.093-2.515-5.426-4.084-6.745c-3.744-3.15-10.549-6.732-15.781-7.166
					c-1.311-0.107-3.166-0.422-5.315-0.785c-3.587-0.606-7.651-1.294-10.695-1.294c-1.319,0-3.533,0.149-3.814,1.135
					c0.765,5.157,2.881,11.107,5.817,16.346c1.479,2.643,3.104,5.4,5.227,7.515c0.135,0.136,0.304,0.321,0.509,0.548
					c1.627,1.801,5.437,6.016,12.395,6.016c3.834,0,8.085-1.299,12.636-3.857c1.744-0.982,2.934-2.363,3.535-4.107
					c0.045-0.129,0.127-0.238,0.231-0.315C49.38,35.698,51.748,35.646,52.257,35.646z"/>
			</g>
			<path fill="#C5E7E9" d="M19.855,31.281c0.945,1.339,3.604,9.773,10.684,9.939c3.857,0.094,8.055,0.521,11.815-0.906
				c2.35-0.892,4.104-1.289,4.497-4.233c0.317-2.356-0.277-4.353-1.782-6.161c-1.875-2.257-7.906-8.931-21.12-7.474
				C14.811,23.45,18.885,29.907,19.855,31.281z"/>
			<path fill="#FFFFFF" d="M42.768,39.124c0,0-11.254,3.463-16.579-1.208c-5.326-4.675-7.623-11.833-4.386-12.775
				c2.933-0.854,9.146-3.326,16.526-0.558c-3.369-1.659-8.043-2.836-14.381-2.137c-9.139,1.004-5.132,7.622-4.354,9.125
				c0.872,1.688,3.952,8.545,10.944,9.65c2.51,0.396,7.038,0.482,11.189-0.709L42.768,39.124z"/>
			<g>
				<path fill="#7CCDCD" d="M25.621,42.172c-6.229-2.474-12.49-16.701-13.998-22.089c-0.929-3.323-0.521-5.189-0.07-6.131
					c-1.541,0.159-2.589,0.623-2.744,1.582c0.789,5.459,3.008,11.079,5.495,15.518c1.411,2.521,2.934,5.101,4.963,7.121
					c0.927,0.927,3.716,4.688,9.019,5.897c1.863,0.386,4.105,1.26,8.67-0.387C34.078,43.581,29.797,43.83,25.621,42.172z"/>
			</g>
			<path fill="#5AB1AF" d="M48.112,29.973c0,0-0.275,1.243,0.636,1.304c1.028,0.074,5.592,1.115,6.892-0.445
				C54.271,30.906,48.112,29.973,48.112,29.973z"/>
			<path fill="#C5E7E9" d="M86.059,31.001c-1.175,2.446-3.706,9.96-10.698,10.364c-3.813,0.22-7.935,0.754-11.749-0.403
				c-2.382-0.724-4.143-1.022-4.721-3.677c-0.465-2.123-0.006-3.953,1.367-5.646c1.711-2.111,8.019-9.348,21.186-8.499
				C90.549,23.728,86.729,29.605,86.059,31.001z"/>
			<path fill="#FFFFFF" d="M71.787,24.053c-1.922,1.977-9.739,5.655-10.91,9.982c-1.06,3.91,0.742,5.16,3.28,6.345
				s4.569,1.29,4.569,1.29s-7.753,0.325-9.598-3.58c-1.846-3.904,0.848-6.283,1.868-7.318
				C60.998,30.771,65.479,24.908,71.787,24.053z"/>
			<path fill="#FFFFFF" d="M74.754,26.543c2.324-1.052,11.99-0.62,7.561,6.843c-4.432,7.462-2.116-1.02-2.018-2.544
				C80.479,28.034,71.592,27.978,74.754,26.543z"/>
			<g>
				<path fill="#7CCDCD" d="M91.785,18.731c-0.155-0.869-0.771-0.819-1.282-0.451c-0.516,0.365-0.274,1.475,0.187,1.41
					C91.273,19.608,91.904,19.376,91.785,18.731z"/>
				<path fill="#7CCDCD" d="M91.721,22.223c-0.157-0.87-0.77-0.82-1.283-0.453c-0.515,0.366-0.273,1.474,0.187,1.41
					C91.207,23.099,91.838,22.866,91.721,22.223z"/>
			</g>
			<g>
				<path fill="#7CCDCD" d="M16.199,17.081c-0.552-1.014-1.288-0.703-1.776-0.041c-0.489,0.664,0.257,1.939,0.805,1.674
					C15.917,18.377,16.604,17.832,16.199,17.081z"/>
				<path fill="#7CCDCD" d="M17.531,21.435c-0.55-1.015-1.287-0.703-1.774-0.043c-0.491,0.666,0.256,1.941,0.803,1.676
					C17.25,22.729,17.938,22.185,17.531,21.435z"/>
			</g>
			<path fill="#7CCDCD" d="M49.265,34.955c0,0,7.086-1.729,7.115-0.266c-0.935,6.347,8.403,9.232,8.799,9.898
				c-1.19-0.01-8.916-1.771-10.335-8.662c-4.782-0.091-6.048,0.396-6.048,0.396L49.265,34.955z"/>
		</g>
	</g>
</g>
</svg>
