<?xml version="1.0" encoding="utf-8"?>
<!-- Generator: Adobe Illustrator 16.0.0, SVG Export Plug-In . SVG Version: 6.00 Build 0)  -->
<!DOCTYPE svg PUBLIC "-//W3C//DTD SVG 1.1//EN" "http://www.w3.org/Graphics/SVG/1.1/DTD/svg11.dtd">
<svg version="1.1" id="Layer_1" xmlns="http://www.w3.org/2000/svg" xmlns:xlink="http://www.w3.org/1999/xlink" x="0px" y="0px"
	 width="88.99px" height="45.629px" viewBox="0 0 88.99 45.629" enable-background="new 0 0 88.99 45.629" xml:space="preserve">
<g>
	<path fill="#FFFFFF" d="M0.995,29.515c0.307-1.576,3.062-3.754,4.815-5.52c2.382-2.399,2.216-2.547,3.244-5.41
		c1.163-3.23,0.683-3.397,4.404-5.502c2.524-1.426,4.124-3.063,7.161-2.834C22.138,0.314,38.059,0.208,45.687,0.208
		c4.949,0,11.012-0.986,15.12,1.333c2.551,1.44,3.29,4.193,5.248,5.825c0.667,0.558,2.339,0.554,3.268,1.255
		c1.405,1.062,2.71,2.22,3.987,3.368c3.403,3.063,6.127,6.214,10.233,9.133c4.226,3.003,5.835,6.62,5.37,11.875
		c-0.642,7.271-5.713,8.344-12.104,8.154c-5.395-0.159-9.592,1.879-14.932,1.441c-1.641-0.134-3.54-0.677-5.025-0.574
		c-3.027,0.213-2.648,0.766-5.507,1.787c-3.694,1.322-8.714,2.317-12.866,1.563c-3.889-0.706-5.666-4.099-8.728-3.949
		c-3.864,0.188-8.936,4.535-12.554,0.871c-4.55,2.358-7.16,1.62-12.268-0.621C-2.97,38.204,0.995,29.515,0.995,29.515z"/>
	<g>
		<g>
			<path fill="#C3996B" d="M14.208,26.604c-3.234-0.521-6.051,3.225-7.342,5.747c-2.34,4.568,1.458,4.115,5.242,4.456
				c3.102,0.277,7.66,0.308,7.803-3.668c0.087-2.454-3.58-6.827-6.302-6.535H14.208z"/>
			<path fill="#231F20" d="M14.239,37.455c-0.651,0-1.344-0.034-2.179-0.109c-0.48-0.043-0.961-0.073-1.429-0.103
				c-2.168-0.138-4.041-0.256-4.759-1.518c-0.482-0.847-0.319-1.997,0.512-3.62c1.622-3.169,4.605-6.57,7.909-6.034l-0.001,0.01
				c3.017,0.422,6.247,4.574,6.158,7.078C20.349,36.01,18.259,37.455,14.239,37.455z M13.596,27.096
				c-2.533,0-4.949,2.964-6.248,5.502c-0.632,1.234-0.813,2.106-0.535,2.594c0.429,0.754,2.109,0.86,3.888,0.973
				c0.478,0.03,0.967,0.062,1.457,0.105c0.802,0.071,1.463,0.104,2.082,0.104c4.495,0,5.082-1.856,5.132-3.254
				c0.071-2.014-2.917-5.741-5.278-5.978l-0.483,0.002l-0.003-0.049C13.604,27.096,13.6,27.096,13.596,27.096z"/>
		</g>
		<g>
			<path fill="#C3996B" d="M12.409,24.806c1.705-3.488,8.593-8.855,13.423-6.939c3.371,1.339,6.686,11.27,5.797,14.44
				c-0.823,2.949-9.241,5.237-11.967,3.982c-2.853-1.309-6.23-8.087-6.952-10.884L12.409,24.806z"/>
			<path fill="#231F20" d="M21.769,37.181c-0.97,0-1.755-0.135-2.332-0.4c-3.182-1.46-6.529-8.532-7.235-11.184l-0.396-0.788
				l0.118-0.24c1.487-3.043,6.914-7.645,11.704-7.645c0.858,0,1.667,0.148,2.403,0.44c3.701,1.47,7.044,11.785,6.118,15.088
				C31.384,35.195,25.417,37.181,21.769,37.181z M13.016,24.81l0.218,0.461c0.749,2.902,4.074,9.344,6.654,10.527
				c0.43,0.197,1.08,0.302,1.881,0.302c3.522,0,8.784-1.947,9.34-3.938c0.876-3.124-2.498-12.61-5.476-13.793
				c-0.608-0.241-1.283-0.363-2.005-0.363C19.513,18.005,14.558,21.983,13.016,24.81z"/>
		</g>
		<g>
			<path fill="#C3996B" d="M25.612,16.402c-1.698-7.238,10.787-10.604,15.6-10.811c5.96-0.255,14.195-0.768,18.977,2.349
				c5.063,3.297,2.966,12.147,0.493,16.573c-3.198,5.717-8.963,13.313-16.229,12.595c-5.738-0.567-10.927,0.231-13.356-6.222
				c-1.473-3.916-6.218-10.196-5.483-14.185V16.402z"/>
			<path fill="#231F20" d="M45.412,37.696c-0.335,0-0.673-0.017-1.013-0.05c-0.866-0.086-1.72-0.14-2.552-0.193
				c-4.667-0.297-9.074-0.577-11.258-6.376c-0.459-1.22-1.257-2.7-2.103-4.268c-1.847-3.425-3.94-7.307-3.406-10.205l-0.006-0.126
				c-0.418-1.838-0.026-3.564,1.165-5.135c3.313-4.371,11.653-6.15,14.948-6.292l0.788-0.034c1.741-0.076,3.714-0.163,5.691-0.163
				c3.767,0,9.194,0.272,12.815,2.633c5.167,3.365,3.454,12.307,0.67,17.29C58.454,29.603,52.819,37.696,45.412,37.696z
				 M47.668,5.936c-1.954,0-3.914,0.086-5.644,0.162l-0.789,0.034c-3.491,0.149-11.221,2.023-14.134,5.864
				c-0.997,1.315-1.321,2.756-0.963,4.283l0.014,0.123v0.3c-0.474,2.623,1.524,6.326,3.286,9.594c0.863,1.602,1.679,3.113,2.163,4.4
				c1.938,5.146,5.634,5.381,10.314,5.679c0.845,0.054,1.711,0.108,2.589,0.195c7.291,0.722,13.008-7.5,15.705-12.32
				c2.585-4.628,4.273-12.868-0.316-15.856C56.514,6.19,51.297,5.936,47.668,5.936z"/>
		</g>
		<g>
			<path fill="#C3996B" d="M74.841,21.878c-0.722-2.976-1.957-4.699-4.586-6.31c-1.386-0.848-5.801-4.144-6.83-2.467
				c-1.818,2.593-2.197,5.644-3.736,8.278c-1.791,3.066-4.761,5.422-5.865,8.91c-2.145,6.773,9.024,7.85,13.178,5.267
				C70.983,33.08,75.966,26.495,74.841,21.878z"/>
			<path fill="#231F20" d="M61.451,37.386c-3.442,0-6.283-1.073-7.601-2.872c-0.882-1.204-1.07-2.722-0.543-4.387
				c0.708-2.236,2.143-4.018,3.529-5.741c0.842-1.046,1.713-2.128,2.385-3.278c0.667-1.142,1.104-2.354,1.566-3.637
				c0.566-1.569,1.151-3.193,2.194-4.68c0.186-0.304,0.597-0.698,1.4-0.698c1.44,0,3.464,1.253,5.414,2.536
				c0.295,0.194,0.547,0.36,0.74,0.479c2.72,1.666,4.073,3.528,4.829,6.644c1.193,4.897-3.988,11.72-8.08,14.265
				C65.886,36.887,63.759,37.386,61.451,37.386z M64.383,13.173c-0.368,0-0.459,0.148-0.497,0.212
				c-0.978,1.396-1.514,2.881-2.081,4.453c-0.458,1.271-0.933,2.588-1.649,3.814c-0.713,1.221-1.609,2.334-2.477,3.411
				c-1.385,1.722-2.693,3.347-3.34,5.39c-0.425,1.342-0.296,2.493,0.384,3.422c1.098,1.499,3.676,2.43,6.729,2.43
				c2.08,0,4.049-0.451,5.265-1.207c3.73-2.319,8.664-8.725,7.6-13.092c-0.688-2.84-1.865-4.459-4.343-5.977
				c-0.2-0.123-0.464-0.296-0.771-0.497C67.95,14.708,65.619,13.173,64.383,13.173z"/>
		</g>
		<g>
			<path fill="#C3996B" d="M75.129,24.206c4.582-1.133,16.747,11.145,4.801,12.003c-3.284,0.234-9.761,1.404-10.8-2.468
				C68.386,30.968,75.129,24.206,75.129,24.206z"/>
			<path fill="#231F20" d="M74.89,37.098c-1.34,0-5.419,0-6.282-3.217c-0.802-2.987,5.426-9.342,6.139-10.057l0.106-0.106
				l0.146-0.036c0.24-0.06,0.502-0.09,0.776-0.09c3.513,0,9.654,5.174,9.796,9.103c0.049,1.36-0.614,3.695-5.603,4.054
				c-0.399,0.028-0.846,0.071-1.324,0.116C77.494,36.974,76.189,37.098,74.89,37.098z M75.398,24.702
				c-2.521,2.554-6.223,7.126-5.746,8.899c0.441,1.647,2.106,2.415,5.237,2.415c1.249,0,2.526-0.121,3.653-0.229
				c0.487-0.046,0.941-0.089,1.349-0.118c2.141-0.154,4.676-0.788,4.599-2.937c-0.119-3.322-5.739-8.061-8.715-8.061
				C75.643,24.673,75.516,24.683,75.398,24.702z"/>
		</g>
		<path fill="#A87C4F" d="M48.871,21.203c-0.771,1.85-4.943,13.825,0.375,12.932c2.174-0.364,2.943-4.953,3.976-6.645
			c1.294-2.121,2.82-3.739,4.437-5.688C60.638,18.207,64.106,8.06,57.724,9.5C54.144,10.307,50.089,18.28,48.871,21.203z"/>
		<path fill="#A87C4F" d="M64.243,34.393c2.223-1.36,4.035-4.357,5.717-6.328c0.809-0.95,5.744-7.574,1.269-6.56
			C71.229,21.505,61.031,31.639,64.243,34.393z"/>
		<path fill="#A87C4F" d="M77.23,27.807c0.003,0.149,4.397,10.434,5.722,4.881C83.454,30.584,77.177,25.405,77.23,27.807z"/>
		<g>
			<path fill="#F9C989" d="M37.087,16.831c0.383,0.416,1.837-0.354,2.146-0.764C38.68,15.647,36.882,15.93,37.087,16.831z"/>
			<path fill="#F9C989" d="M40.345,16.952c0.733,0.7,1.752,1.136,3.055,0.861C44.317,16.479,40.345,16.952,40.345,16.952z"/>
			<path fill="#F9C989" d="M45.552,14.012c0.086-1.445-2.592,0.203-2.54,0.623C43.012,14.635,44.907,14.767,45.552,14.012z"/>
			<path fill="#F9C989" d="M53.018,8.449c-0.337-0.458-1.865,0.146-2.216,0.52C51.308,9.446,53.125,9.369,53.018,8.449z"/>
			<path fill="#F9C989" d="M31.752,18.425c0.338,0.948,2.287-0.789,2.83-1.059C34.582,17.366,31.347,17.306,31.752,18.425z"/>
			<path fill="#F9C989" d="M44.804,17.292c0,0,3.581-0.296,3.424-1.507C48.081,14.611,45.249,16.989,44.804,17.292z"/>
			<path fill="#F9C989" d="M33.884,10.548c-0.007,0.222-0.03,0.441-0.077,0.655c0.611,0.465,2.904-1.31,2.904-1.308
				C35.804,9.686,34.806,9.807,33.884,10.548z"/>
			<path fill="#F9C989" d="M50.546,12.11c0.916,0.419,2.017,0.49,3.156-0.208C54.144,10.332,50.546,12.11,50.546,12.11z"/>
			<path fill="#F9C989" d="M42.792,11.25c-0.493,1.065,3.146,0.642,3.679,0.635C46.471,11.885,43.297,10.145,42.792,11.25z"/>
			<path fill="#F9C989" d="M53.805,14.841c0.506,0.48,2.319,0.4,2.212-0.518C55.681,13.863,54.155,14.468,53.805,14.841z"/>
			<path fill="#F9C989" d="M45.679,9.949c0,0,3.159,0.727,2.982-0.453C48.516,8.5,46.264,9.797,45.679,9.949z"/>
			<path fill="#F9C989" d="M34.441,14.796c0.917,0.419,2.016,0.491,3.155-0.208C38.038,13.018,34.441,14.796,34.441,14.796z"/>
			<path fill="#F9C989" d="M38.838,9.467c-0.15,0.244-0.325,0.476-0.522,0.701c0.778,0.195,1.646,0.127,2.542-0.422
				C41.13,8.773,39.85,9.088,38.838,9.467z"/>
		</g>
	</g>
</g>
</svg>
