<?xml version="1.0" encoding="utf-8"?>
<!-- Generator: Adobe Illustrator 16.0.0, SVG Export Plug-In . SVG Version: 6.00 Build 0)  -->
<!DOCTYPE svg PUBLIC "-//W3C//DTD SVG 1.1//EN" "http://www.w3.org/Graphics/SVG/1.1/DTD/svg11.dtd">
<svg version="1.1" id="Layer_1" xmlns="http://www.w3.org/2000/svg" xmlns:xlink="http://www.w3.org/1999/xlink" x="0px" y="0px"
	 width="155.678px" height="184.355px" viewBox="0 0 155.678 184.355" enable-background="new 0 0 155.678 184.355"
	 xml:space="preserve">
<g id="Layer_2">
</g>
<g>
	<path fill="#FFFFFF" d="M146.688,38.18c-8.255-4.15-13.074,0.96-19.559,2.828c0.83-7.288-9.816-3.299-12.987-3.771
		c-0.614-1.936-2.084-3.171-4.115-3.828c-0.066-0.494-0.134-0.991-0.202-1.487c-5.979-2.825-10.911,1.596-16.64,2.011
		c-0.188-2.479-1.345-3.538-3.726-2.725c-1.351-2.49-0.947-5.392-1.377-8.051C79.06,2.918,63.663-2.685,61.953,1.109
		c-0.606,1.347,0.005,6.46,0.014,7.889c0.029,4.608,0.989,17.217-7.023,15.822c-1.326-7.06-8.727-2.979-12.338-0.526
		c-4.253,2.891-4.246,6.16-4.387,11.127c-0.048,1.7,0.123,6.028-1.031,7.192c-1.549,1.563-3.339-0.435-4.53,0.05
		c-3.262,1.325-12.951,6.726-12.671,10.251c-4.074,0.218-4.097-1.637-8.987-1.374C3.961,51.917-0.028,60.673,0,68.1
		c0.02,5.489,0.841,9.979,6.059,12.332l-0.525,0.586c-11.104,7.398,1.734,24.601,6.215,32.549c1.211,2.148,2.439,6.841,4.862,8.031
		c3.365,1.652,5.686-1.605,7.774-2.479c7.289-3.049,9.035-2.104,11.336,5.364c1.627,5.28,6.003,11.348,2.043,15.271
		c-4.188,4.153-10.506,5.669-14.675,10.356c-3.563,4.006-5.105,8.643-4.731,14.212c0.388,5.746,4.425,9.298,8.977,12.625
		c8.956,6.545,16.829,6.349,27.58,7.252c10.675,0.899,85.333-1.462,87.405-25.169c0.95-10.849-3.398-13.751-5.65-22.265
		c-0.793-3-2.011-16.709-11.871-23.702c-4.77-3.383,0.976-12.608,3.301-17.141c1.221-2.376,2.728-3.393,4.125-5.364
		c2.36-3.329,1.694-5.86,2.565-9.367c1.846-7.427,4.621-8.934,11.224-11.733c5.746-2.437,9.559-9.242,9.664-15.921
		C155.766,47.764,151.205,40.45,146.688,38.18z"/>
	<g>
		<path fill="#231F20" d="M11.47,59.68c0.261-0.161,0.618-0.163,0.963-0.304c0.209-0.129,0.354-0.359,0.511-0.457
			c0.156-0.096,0.293-0.106,0.408-0.035c0.68-0.417,1.448-0.098,2.183-0.188c0.368,0.133,0.842,0.202,1.117,0.535
			c0.115,0.072,0.013,0.137,0.044,0.188c0.284,0.113,0.465,0.289,0.624,0.552c0.225,0.364,0.355,0.931,0.476,1.359
			c-0.092,0.199-0.209,0.128-0.301,0.328c0.03,0.052,0.14,0.345,0.15,0.48l-0.156,0.097c-0.21,0.128-0.449,0.203-0.649,0.111
			c-0.072,0.114-0.092,0.199-0.365,0.224c-0.137,0.011-0.2-0.094-0.264-0.196c-0.062,0.252-0.271,0.38-0.342,0.496
			c-0.189,0.043-0.431,0.12-0.586,0.214c-0.157,0.097-0.229,0.212-0.218,0.35c-0.085-0.021-0.201-0.094-0.305-0.027
			c-0.438,0.34-0.475,0.865-0.913,1.204c-0.133,0.37,0.135,0.924-0.146,1.168c0.021,0.271-0.025,0.661,0.01,1.07
			c0.022,0.271-0.133,0.368,0.026,0.629c0.128,0.209,0.213,0.229,0.328,0.302l0.076,0.24c0.095,0.156,0.265,0.195,0.235,0.502
			c0.264,0.195,0.571,0.582,0.876,0.61c-0.021,0.084,0.044,0.188,0.107,0.293c0.128,0.208,0.425,0.458,0.612,0.414
			c0.63-0.025,1.071-0.01,1.918-0.387c0.104-0.063,0.177-0.18,0.28-0.244c0.104-0.063,0.241-0.075,0.396-0.17
			c0.156-0.097,0.249-0.298,0.511-0.457c0.188-0.045,0.43-0.12,0.639-0.248c0.313-0.191,0.646-0.469,0.927-0.711
			c0.302-0.328,0.615-0.521,0.729-0.805l0.156-0.097c0.364-0.226,0.529-0.54,0.663-0.909c0.053-0.032,0.124-0.147,0.28-0.244
			c0.124-0.147,0.081-0.337,0.153-0.453c0.542-0.403,0.884-0.9,1.342-1.324c0.093-0.2,0.185-0.399,0.394-0.527
			c0.153-0.453,0.454-0.78,0.841-1.09c0.125-0.148,0.186-0.4,0.342-0.497l0.104-0.063c0.032,0.053,0.063,0.104,0.116,0.073
			l0.208-0.128c0.366-0.226,0.525,0.036,0.839-0.155c0.148,0.124,0.306,0.029,0.475,0.068c0.167,0.041,0.255,0.418,0.464,0.291
			c0.031,0.051,0.012,0.136,0.044,0.188c0.19,0.313,0.486,0.563,0.207,0.807c0.128,0.209,0.022,0.273,0.15,0.48
			c-0.177,0.181-0.186,0.401-0.342,0.497c-0.133,0.369-0.446,0.561-0.441,0.917c-0.156,0.097-0.229,0.212-0.387,0.309
			c-0.021,0.085,0.084,0.021-0.009,0.222c-0.261,0.158-0.289,0.465-0.298,0.686c-0.156,0.097-0.164,0.316-0.373,0.443
			c0.036,0.408-0.266,0.736-0.495,0.949c-0.33,0.634-0.628,1.318-1.158,1.857c-0.021,0.085-0.04,0.169,0.023,0.274
			c-0.188,0.043-0.261,0.158-0.345,0.139c-0.311,0.55-0.632,0.961-0.974,1.458c-0.137,0.011-0.241,0.075-0.43,0.119
			c-0.112,0.284-0.12,0.506-0.214,0.705l-0.364,0.225c-0.157,0.096-0.281,0.244-0.322,0.412c-0.208,0.128-0.249,0.296-0.354,0.36
			c-0.261,0.159-0.501,0.234-0.762,0.396c-0.073,0.115-0.134,0.368-0.238,0.434l-0.104,0.063c-0.313,0.191-0.742,0.312-1.056,0.503
			l-0.104,0.063c-0.052,0.031-0.155,0.097-0.195,0.266c-0.241,0.074-0.574,0.351-0.899,0.406c-0.104,0.063-0.356,0.004-0.577-0.005
			c-0.188,0.044-0.502,0.235-0.723,0.228c-0.806,0.207-1.74,0.205-2.301-0.241c-0.431,0.119-0.67,0.196-0.914-0.086
			c-0.87,0.104-1.41-0.428-2.096-0.725c-0.097-0.156-0.181-0.177-0.244-0.282c-0.181-0.176-0.4-0.185-0.496-0.34
			c-0.369-0.134-0.613-0.415-0.993-0.684c-0.212-0.229-0.433-0.238-0.657-0.604l-0.765-0.896c-0.095-0.156-0.181-0.178-0.225-0.364
			c-0.063-0.104-0.18-0.177-0.223-0.365c-0.032-0.053-0.076-0.24-0.141-0.345l-0.097-0.157c-0.106-0.293-0.234-0.5-0.312-0.742
			c-0.075-0.24-0.101-0.513-0.175-0.754c-0.057-0.324-0.204-0.449-0.313-0.742c-0.063-0.104,0.028-0.304,0.058-0.608
			c0.068-0.474,0.099-0.777,0.336-1.21c0.1-0.42,0.097-0.777,0.462-1.002l0.104-0.064c0.214-0.704,0.323-1.346,0.537-2.052
			l0.156-0.095c0.366-0.226,0.583-0.573,0.664-0.909c0.594-0.438,0.968-0.881,1.107-1.471c0.281-0.243,0.458-0.425,0.771-0.615
			L11.47,59.68z"/>
		<path fill="#231F20" d="M27.66,50.759c0.28-0.119,0.675-0.29,1.093-0.403c0.248-0.04,0.529-0.162,0.778-0.203
			c0.272,0.016,0.65,0.12,1.036,0.087l0.226-0.097c0.45-0.193,0.884-0.115,1.35-0.115c0.732,0.617,1.922,0.438,2.759,1.144
			c0.192-0.016,0.259,0.289,0.508,0.248c-0.031,0.08-0.009,0.138,0.017,0.193c0.048,0.112,0.209,0.177,0.25,0.425
			c0.024,0.056,0.185,0.121,0.233,0.232c0.079,0.031,0.129,0.146,0.071,0.17c0.396,0.295,0.727,0.752,0.991,1.371
			c0.041,0.249,0.001,0.467,0.098,0.689c0.025,0.058,0.105,0.089,0.131,0.146c0.209,0.177,0.426,0.217,0.707,0.095l0.169-0.072
			c0.392-0.636,1.042-0.98,1.516-1.587l0.394-0.168c-0.024-0.057,0.145-0.129,0.145-0.129c0.271-0.452,0.648-0.813,0.922-1.265
			c0.297-0.396,0.625-0.868,0.897-1.32l0.473-0.603c0.216-0.427,0.456-0.799,0.834-1.159c0.176-0.209,0.401-0.308,0.607-0.597
			c0.233-0.233,0.186-0.346,0.529-0.628c0.177-0.209,0.417-0.58,0.754-0.725c0.169-0.072,0.338-0.146,0.578-0.049
			c0.161,0.063,0.347,0.183,0.443,0.408c0.048,0.111,0.017,0.191,0.041,0.249c0.033,0.385-0.007,0.603-0.279,1.053
			c-0.04,0.218,0.113,0.417,0.05,0.578c-0.128,0.321-0.337,0.611-0.304,0.998c-0.112,0.048-0.145,0.129-0.337,0.146
			c0.008,0.329-0.192,0.482-0.151,0.731c-0.394,0.169-0.271,0.451-0.528,0.628c-0.056,0.49-0.514,0.82-0.624,1.335
			c-0.249,0.041-0.232,0.232-0.369,0.226c0.017,0.193-0.048,0.354-0.111,0.517c-0.458,0.328-0.433,0.853-0.914,1.126
			c-0.032,0.08-0.04,0.218,0.009,0.33c-0.345,0.28-0.448,0.658-0.873,0.908c-0.097,0.241-0.266,0.313-0.44,0.524
			c-0.153,0.265-0.715,0.507-0.762,0.86c-0.339,0.146-0.435,0.387-0.69,0.563c-0.096,0.241-0.248,0.507-0.537,0.766
			c-0.257,0.178-0.729,0.314-0.987,0.492c-0.168,0.072-0.288,0.258-0.562,0.242c-0.088,0.104-0.12,0.185-0.128,0.321
			c-0.169,0.072-0.161-0.063-0.217-0.04c-0.297,0.395-0.296,0.859-0.399,1.238c-0.618,0.731-0.64,1.607-1.257,2.341
			c-0.016,0.273-0.272,0.451-0.288,0.725c-0.521,0.491-1.019,1.039-1.516,1.587c-0.161-0.064-0.226,0.097-0.418,0.113
			c-0.151,0.265-0.537,0.297-0.771,0.53c-0.104-0.088-0.192,0.018-0.271-0.016c-1.045,0.517-2.17,0.535-2.926,0.327
			c-0.249,0.041-0.546-0.031-0.73-0.15c-0.137-0.008-0.169,0.072-0.249,0.04c-0.048-0.111-0.217-0.038-0.321-0.128l-0.08-0.031
			c-0.081-0.031-0.169,0.072-0.249,0.041c-0.081-0.032-0.13-0.145-0.242-0.098c-0.369-0.238-0.965-0.383-1.134-0.775
			c-0.25,0.041-0.291-0.208-0.508-0.248c-0.338-0.32-0.659-0.448-0.997-0.771c-0.41-0.022-0.829-0.375-0.975-0.713
			c-0.427-0.216-0.708-0.562-0.902-1.011l-0.048-0.113c-0.049-0.11-0.129-0.144-0.153-0.2l-0.113-0.417l-0.097-0.226
			c-0.073-0.168,0.017-0.272-0.009-0.329c-0.122-0.281-0.299-0.537-0.34-0.786c-0.048-0.113,0.017-0.273-0.001-0.467
			c-0.049-0.578-0.066-1.237-0.012-1.729c0.063-0.159,0.151-0.265,0.159-0.4c-0.022-0.057,0.064-0.161,0.017-0.274
			c0.089-0.104,0.063-0.16,0.231-0.231c0.007-0.604,0.359-1.022,0.423-1.648c0.377-0.363,0.359-1.021,0.873-1.376
			c-0.032-0.386,0.231-0.7,0.335-1.078c0.09-0.104,0.128-0.321,0.248-0.507c0.146-0.129,0.37-0.226,0.515-0.354
			c0.231-0.233,0.385-0.499,0.674-0.758l0.506-0.218c0.506-0.219,0.569-0.379,0.907-0.522C27.443,50.719,27.547,50.808,27.66,50.759
			z M29.09,54.542c-0.146,0.129-0.186,0.347-0.272,0.449c-0.28,0.122-0.359,0.557-0.465,0.935l0.073,0.17
			c-0.128,0.319-0.096,0.706-0.384,0.964c0.152,0.2,0.45,0.271,0.579,0.418l0.29,0.207c0.209,0.177,0.627,0.063,0.804,0.319
			c0.25-0.041,0.579-0.05,0.82,0.047c0.386-0.032,0.907-0.059,1.205,0.015c0.226-0.098,0.328-0.009,0.521-0.024
			c0.249-0.041,0.522-0.024,0.747-0.122c0.169-0.072,0.257-0.178,0.346-0.283c-0.002-0.466,0.134-0.924-0.06-1.373l-0.072-0.17
			c0.04-0.216,0.047-0.353-0.024-0.521c-0.073-0.168-0.228-0.367-0.322-0.594c-0.049-0.111-0.09-0.36-0.162-0.53l-0.049-0.111
			c-0.153-0.201-0.37-0.24-0.499-0.385c-0.153-0.2-0.258-0.289-0.339-0.321c-0.347-0.185-1.646,0.044-2.16,0.398
			C29.411,54.204,29.258,54.469,29.09,54.542z M28.138,60.682c0.001,0.467,0.251,0.893,0.309,1.334
			c0.16,0.063,0.281,0.346,0.476,0.327c-0.096,0.241,0.121,0.281,0.242,0.563c0.305-0.064,0.434,0.08,0.595,0.145
			c0.394-0.17,0.763-0.396,1.18-0.51c0.112-0.515,0.818-0.886,1.123-1.417c0.008-0.137-0.017-0.192-0.146-0.337
			c-0.298-0.071-0.635,0.074-0.884,0.115c-0.081-0.032-0.187-0.121-0.299-0.072c-0.08-0.032-0.249,0.04-0.305,0.065
			c-0.08-0.032-0.29-0.209-0.515-0.112l-0.058,0.024c-0.057,0.023-0.08-0.032-0.16-0.064c-0.057,0.024-0.169,0.073-0.248,0.041
			l-0.187-0.12c-0.08-0.032-0.192,0.017-0.249,0.04c-0.217-0.039-0.426-0.216-0.707-0.095L28.138,60.682z"/>
		<path fill="#231F20" d="M46.588,30.118c0.328,0.031,0.614,0.141,0.899,0.249l0.117-0.034c0.589-0.171,0.802,0.342,1.272,0.65
			c0.117-0.033,0.192,0.009,0.387,0.016c0.145,0.277,0.455,0.251,0.783,0.284c0.195,0.453,0.557,0.604,0.794,0.98
			c0.403,0.073,0.422,0.577,0.7,0.88c0.094,0.101,0.052,0.177,0.086,0.294c0.15,0.083,0.161,0.336,0.329,0.479
			c0.169,0.143,0.15,0.082,0.296,0.359c0.093,0.102,0.127,0.219,0.178,0.395c0.034,0.117,0.068,0.236,0.078,0.488
			c-0.008,0.192-0.016,0.387,0.035,0.563c0.034,0.116,0.144,0.275,0.296,0.358c-0.008,0.193-0.033,0.328,0.153,0.529
			c-0.118,0.033-0.16,0.109-0.186,0.244l0.085,0.295c-0.05,0.269,0.078,0.486-0.064,0.655c-0.008,0.192,0.17,0.143,0.161,0.335
			c-0.073,0.404,0.021,0.95-0.188,1.329c0.034,0.117,0.168,0.144,0.144,0.276c-0.167,0.303,0.02,0.505-0.014,0.833
			c-0.016,0.387-0.366,0.934-0.576,1.313c-0.008,0.192,0.021,0.504-0.081,0.597c0.109,0.16,0.01,0.253,0.062,0.429
			c-0.243,0.263-0.553,0.733-0.435,1.146c0.019,0.06,0.034,0.117-0.007,0.191c0.009,0.254-0.251,0.456-0.183,0.69
			c-0.311,0.473-0.562,0.928-0.659,1.466l0.765-0.222c0.41-0.119,0.822-0.238,1.064-0.5c0.178-0.053,0.16-0.11,0.354-0.103
			c0.243-0.261,0.537-0.347,0.855-0.566l1.284-0.626c0.275-0.146,0.578-0.423,0.872-0.508c0.135,0.023,0.229,0.124,0.403,0.073
			c0.27,0.049,0.193,0.007,0.479,0.116c0.27,0.049,0.631,0.199,0.683,0.376c0.068,0.234,0.062,0.429,0.095,0.546
			c0.067,0.234,0.179,0.396,0.246,0.629c0.034,0.118,0.068,0.235,0.026,0.313c-0.016,0.387-0.452,0.641-0.771,0.859
			c-0.144,0.169-0.167,0.305-0.27,0.396c-0.436,0.253-0.804,0.743-1.356,1.03c-0.379,0.235-0.864,0.313-1.074,0.692l-0.252,0.01
			c-0.354,0.103-0.461,0.389-0.662,0.573c-0.06,0.018-0.134-0.022-0.192-0.007c-0.234,0.067-0.437,0.253-0.579,0.422L52.729,50
			c-0.471,0.138-0.806,0.297-1.201,0.476c-0.116,0.033-0.233,0.068-0.269-0.05c-0.143,0.168-0.438,0.255-0.672,0.322l-0.588,0.17
			c-0.083,0.152,0.192,0.008,0.052,0.176c-0.286-0.105-0.066,0.212-0.302,0.279c0.092,0.102,0.186,0.201,0.22,0.318
			c0.051,0.176,0.043,0.37,0.094,0.547c0.019,0.059,0.053,0.177,0.146,0.276l-0.091,0.346c0.066,0.235,0.303,0.167,0.403,0.519
			c0.068,0.236,0.12,0.412,0.212,0.514c0.104,0.353,0.163,0.779,0.282,1.192c0.051,0.176,0.137,0.471,0.246,0.629
			c0.052,0.177-0.008,0.192-0.032,0.328c0.076,0.042,0.11,0.16,0.145,0.277c0.067,0.234,0.036,0.563-0.03,0.772
			c0.093,0.101,0.286,0.107,0.379,0.208l0.374,1.293c0.034,0.118,0.01,0.254,0.044,0.371c0.103,0.353,0.422,0.579,0.667,0.764
			c0.026,0.311,0.194,0.452,0.288,0.554c0.026,0.311,0.119,0.411,0.111,0.604c0.135,0.025,0.303,0.167,0.371,0.402
			c0.033,0.118,0.01,0.252-0.032,0.328c0.067,0.234,0.286,0.108,0.295,0.36c0.152,0.084,0.228,0.126,0.287,0.106
			c-0.042,0.077-0.008,0.194,0.009,0.254c0.034,0.116,0.186,0.2,0.255,0.437l0.018,0.059c0.032,0.118,0.21,0.066,0.345,0.092
			c0.144,0.275,0.254,0.437,0.339,0.729c0.052,0.176,0.002,0.445,0.07,0.681c0.084,0.293,0.193,0.453,0.086,0.74
			c-0.007,0.192,0.211,0.065,0.245,0.184c-0.135,0.421-0.84,0.625-1.218,0.861c-0.092-0.101-0.327-0.032-0.462-0.057
			c-0.059,0.017-0.101,0.093-0.159,0.108c-0.295,0.086-0.579-0.021-0.892,0.004l-0.117,0.034c-0.588,0.17-0.655-0.064-0.884-0.19
			l-0.294,0.086c-0.135-0.025-0.244-0.185-0.32-0.226c-0.27-0.051-0.444,0.001-0.715-0.049c-0.202-0.26-0.405-0.52-0.773-0.476
			c-0.414-0.328-0.811-0.596-1.308-0.771c-0.066-0.234-0.313-0.42-0.582-0.469l-0.034-0.117c-0.066-0.234-0.337-0.285-0.599-0.526
			c-0.017-0.06-0.085-0.296-0.194-0.455c-0.033-0.117-0.262-0.241-0.354-0.343c-0.126-0.219-0.118-0.412-0.347-0.537l-0.051-0.176
			c-0.615-0.586-0.965-1.568-1.456-2.384c-0.032-0.116,0.16-0.109,0.051-0.269c0.008-0.193-0.234,0.067-0.286-0.108
			c-0.034-0.117-0.068-0.235-0.043-0.369c-0.32-0.227-0.508-0.872-0.771-1.562c-0.178-0.396-0.195-0.899-0.375-1.293
			c-0.034-0.118-0.202-0.262-0.235-0.378c-0.053-0.177-0.011-0.252-0.045-0.369c-0.017-0.06-0.169-0.144-0.202-0.262
			c-0.118-0.409-0.18-0.839-0.3-1.251c-0.152-0.528-0.348-0.981-0.441-1.527c-0.068-0.235-0.153-0.529-0.087-0.739
			c-0.043-0.37-0.196-0.899-0.315-1.311c-0.085-0.296-0.077-0.487-0.121-0.857c-0.102-0.354-0.237-0.823-0.238-1.269
			c-0.034-0.117,0.031-0.329-0.02-0.506l-0.068-0.233l0.051-0.271c-0.046-0.814-0.46-1.586-0.236-2.353
			c-0.476-1.2-0.135-2.446-0.434-3.697c0.105-0.731,0.306-1.363,0.085-2.128c0.084-0.151,0.065-0.209,0.092-0.345
			c-0.154-0.529,0.138-1.061,0.002-1.529c0.156-1.002,0.522-1.937,0.679-2.938c-0.051-0.178,0.186-0.244,0.228-0.319
			c-0.027-0.313,0.057-0.464,0.048-0.715c0.117-0.034,0.083-0.152,0.218-0.128c-0.034-0.117-0.151-0.083-0.052-0.177
			c0.261-0.202,0.579-0.422,0.805-0.742c0.102-0.094,0.102-0.094,0.318-0.222c0.201-0.184,0.191-0.437,0.41-0.563
			c0.158-0.109,0.471-0.137,0.688-0.263c0.117-0.033,0.201-0.187,0.261-0.202c0.158-0.11,0.395-0.179,0.629-0.246
			C45.555,30.289,46.16,30.177,46.588,30.118z M46.952,35.11c-0.385,0.877-0.067,2.187,0.271,3.362
			c-0.107,0.285-0.022,0.579,0.063,0.874c0.011,0.697-0.308,1.362,0.05,2.151c-0.145,0.169-0.059,0.462-0.143,0.614
			c0.011,0.253,0.013,0.698,0.098,0.991c0.067,0.234,0.254,0.437,0.506,0.427c0.218-0.127,0.336-0.16,0.402-0.372
			c0.023-0.134-0.062-0.428,0.022-0.58l0.125-0.227c0.05-0.271,0.032-0.328,0.064-0.656c0.024-0.134,0.126-0.228,0.133-0.42
			c0.008-0.194-0.084-0.295-0.094-0.547c0.008-0.193,0.148-0.362,0.141-0.613l0.205-1.271c-0.009-0.252-0.077-0.487-0.011-0.696
			c0.008-0.193,0.167-0.306,0.209-0.38c-0.034-0.118-0.085-0.293-0.077-0.487c0.032-0.328-0.028-0.757-0.164-1.227
			c-0.068-0.236-0.213-0.515-0.264-0.688c-0.245-0.185-0.271-0.496-0.498-0.62c-0.136-0.024-0.271-0.05-0.388-0.016
			C47.371,34.797,47.169,34.983,46.952,35.11z"/>
		<path fill="#231F20" d="M65.498,25.87c0.321,0.066,0.596,0.203,0.869,0.342l0.119-0.021c0.604-0.108,0.762,0.423,1.198,0.777
			c0.12-0.021,0.191,0.027,0.383,0.056c0.115,0.291,0.428,0.297,0.75,0.363c0.146,0.47,0.491,0.656,0.688,1.057
			c0.395,0.115,0.361,0.618,0.605,0.948c0.082,0.108,0.032,0.18,0.056,0.301c0.143,0.098,0.126,0.351,0.277,0.51
			c0.153,0.158,0.144,0.099,0.258,0.39c0.082,0.109,0.104,0.23,0.136,0.41c0.021,0.12,0.044,0.241,0.027,0.492
			c-0.027,0.19-0.056,0.383-0.022,0.563c0.021,0.121,0.114,0.289,0.257,0.389c-0.026,0.191-0.065,0.323,0.099,0.542
			c-0.121,0.021-0.171,0.093-0.208,0.224l0.054,0.303c-0.077,0.263,0.025,0.491-0.132,0.646c-0.027,0.191,0.152,0.158,0.125,0.35
			c-0.115,0.396-0.077,0.947-0.324,1.304c0.021,0.121,0.153,0.159,0.114,0.291c-0.196,0.283-0.033,0.503-0.1,0.826
			c-0.056,0.383-0.462,0.891-0.708,1.246c-0.026,0.191-0.033,0.504-0.144,0.586c0.093,0.17-0.018,0.252,0.017,0.433
			c-0.269,0.234-0.625,0.672-0.55,1.094c0.012,0.062,0.022,0.121-0.027,0.192c-0.017,0.251-0.296,0.427-0.252,0.667
			c-0.355,0.438-0.652,0.862-0.807,1.389l0.782-0.141c0.422-0.076,0.844-0.152,1.111-0.389c0.182-0.031,0.17-0.094,0.361-0.064
			c0.27-0.233,0.569-0.289,0.909-0.476l1.342-0.489c0.29-0.114,0.618-0.361,0.92-0.416c0.131,0.039,0.213,0.147,0.395,0.116
			c0.263,0.076,0.19,0.027,0.465,0.164c0.263,0.076,0.606,0.265,0.64,0.443c0.044,0.242,0.017,0.433,0.038,0.554
			c0.043,0.241,0.136,0.41,0.18,0.651c0.021,0.12,0.044,0.241-0.006,0.313c-0.055,0.383-0.516,0.591-0.854,0.775
			c-0.158,0.152-0.196,0.284-0.308,0.366c-0.46,0.207-0.876,0.655-1.456,0.885c-0.399,0.196-0.894,0.225-1.14,0.579l-0.252-0.018
			c-0.361,0.064-0.498,0.34-0.718,0.502c-0.061,0.011-0.131-0.037-0.191-0.025c-0.241,0.042-0.46,0.206-0.618,0.358l-0.302,0.055
			c-0.48,0.088-0.832,0.213-1.243,0.35c-0.119,0.022-0.239,0.044-0.262-0.076c-0.159,0.153-0.461,0.207-0.701,0.25l-0.603,0.108
			c-0.1,0.144,0.19,0.027,0.031,0.181c-0.271-0.138-0.088,0.203-0.327,0.246c0.082,0.109,0.162,0.22,0.186,0.341
			c0.032,0.181,0.005,0.371,0.038,0.553c0.01,0.06,0.032,0.18,0.114,0.29l-0.127,0.333c0.044,0.241,0.284,0.197,0.35,0.56
			c0.044,0.24,0.076,0.422,0.158,0.531c0.064,0.36,0.082,0.793,0.157,1.216c0.032,0.18,0.087,0.48,0.18,0.65
			c0.033,0.181-0.027,0.191-0.065,0.323c0.07,0.049,0.094,0.17,0.114,0.289c0.044,0.241-0.021,0.563-0.11,0.767
			c0.082,0.109,0.273,0.138,0.355,0.247l0.239,1.325c0.021,0.118-0.019,0.251,0.005,0.372c0.064,0.36,0.359,0.617,0.585,0.826
			c-0.006,0.313,0.146,0.472,0.229,0.58c-0.006,0.313,0.076,0.422,0.05,0.613c0.131,0.039,0.283,0.198,0.326,0.438
			c0.022,0.12-0.017,0.253-0.064,0.323c0.043,0.241,0.272,0.138,0.257,0.39c0.142,0.098,0.213,0.146,0.273,0.137
			c-0.051,0.071-0.028,0.19-0.018,0.252c0.021,0.121,0.164,0.218,0.207,0.46l0.011,0.06c0.021,0.121,0.202,0.089,0.334,0.127
			c0.114,0.29,0.207,0.459,0.263,0.762c0.031,0.181-0.045,0.442-0.001,0.685c0.055,0.301,0.146,0.471,0.01,0.745
			c-0.027,0.19,0.203,0.086,0.225,0.207c-0.176,0.405-0.897,0.536-1.299,0.731c-0.081-0.109-0.322-0.065-0.453-0.104
			c-0.061,0.011-0.109,0.082-0.171,0.094c-0.301,0.055-0.574-0.084-0.886-0.089L67.8,62.395c-0.602,0.106-0.646-0.133-0.858-0.281
			l-0.301,0.054c-0.132-0.037-0.225-0.208-0.296-0.257c-0.262-0.077-0.442-0.045-0.706-0.121c-0.174-0.278-0.35-0.559-0.722-0.555
			c-0.376-0.366-0.743-0.674-1.219-0.898c-0.045-0.24-0.269-0.447-0.53-0.524l-0.021-0.12c-0.044-0.242-0.307-0.319-0.542-0.588
			c-0.011-0.061-0.054-0.301-0.146-0.472c-0.022-0.119-0.235-0.269-0.317-0.378c-0.104-0.229-0.076-0.421-0.289-0.568L61.817,57.5
			c-0.552-0.646-0.797-1.658-1.2-2.52c-0.021-0.12,0.171-0.092,0.077-0.264c0.027-0.189-0.24,0.043-0.272-0.136
			c-0.022-0.121-0.044-0.242-0.005-0.373c-0.296-0.259-0.415-0.921-0.606-1.632c-0.136-0.41-0.103-0.914-0.238-1.326
			c-0.021-0.119-0.176-0.277-0.196-0.397c-0.032-0.183,0.018-0.253-0.005-0.372c-0.012-0.061-0.153-0.159-0.175-0.279
			c-0.076-0.422-0.093-0.854-0.169-1.276c-0.098-0.541-0.244-1.013-0.281-1.564c-0.044-0.24-0.099-0.542-0.012-0.744
			c-0.005-0.372-0.103-0.913-0.178-1.336c-0.055-0.3-0.027-0.492-0.032-0.864c-0.064-0.361-0.151-0.843-0.107-1.286
			c-0.021-0.12,0.065-0.322,0.034-0.504l-0.044-0.24l0.075-0.264c0.04-0.813-0.292-1.625,0.011-2.364
			c-0.351-1.242,0.116-2.445-0.051-3.721c0.182-0.717,0.444-1.325,0.304-2.106c0.1-0.144,0.088-0.203,0.127-0.334
			c-0.1-0.542,0.247-1.04,0.16-1.521c0.259-0.979,0.72-1.872,0.979-2.851c-0.033-0.183,0.208-0.226,0.257-0.296
			c0.006-0.312,0.105-0.453,0.122-0.706c0.12-0.022,0.098-0.144,0.229-0.104c-0.021-0.12-0.144-0.098-0.033-0.181
			c0.28-0.174,0.62-0.361,0.877-0.655c0.108-0.082,0.108-0.082,0.34-0.186c0.22-0.164,0.235-0.417,0.466-0.521
			c0.17-0.092,0.481-0.085,0.712-0.189c0.12-0.021,0.22-0.164,0.279-0.175c0.17-0.094,0.411-0.137,0.651-0.18
			C64.452,25.934,65.065,25.885,65.498,25.87z M65.343,30.873c-0.472,0.832-0.293,2.167-0.075,3.372
			c-0.138,0.273-0.083,0.574-0.028,0.875c-0.062,0.695-0.444,1.324-0.173,2.146c-0.158,0.151-0.104,0.452-0.202,0.596
			c-0.018,0.252-0.063,0.696-0.008,0.996c0.043,0.241,0.207,0.461,0.459,0.478c0.229-0.104,0.352-0.126,0.438-0.328
			c0.038-0.132-0.017-0.433,0.083-0.573l0.146-0.214c0.077-0.264,0.066-0.323,0.133-0.646c0.038-0.132,0.147-0.214,0.177-0.404
			c0.026-0.191-0.056-0.302-0.038-0.555c0.027-0.19,0.187-0.344,0.203-0.595l0.336-1.242c0.017-0.252-0.027-0.492,0.061-0.695
			c0.027-0.191,0.197-0.284,0.247-0.354c-0.021-0.121-0.055-0.303-0.025-0.493c0.064-0.323,0.05-0.756-0.037-1.237
			c-0.044-0.24-0.158-0.531-0.19-0.712c-0.225-0.208-0.219-0.52-0.433-0.668c-0.131-0.039-0.263-0.078-0.383-0.056
			C65.792,30.604,65.574,30.769,65.343,30.873z"/>
		<path fill="#231F20" d="M84.3,38.956c0.513,0.268,0.738,0.801,1.188,1.072c0.016,0.184,0.142,0.235,0.096,0.422
			c0.318,0.16,0.357,0.647,0.61,0.751c0.029,0.366,0.218,0.413,0.24,0.718c0.203,0.229,0.324,0.222,0.414,0.582
			c0.015,0.185-0.027,0.434-0.018,0.555c0.009,0.12,0.08,0.238,0.149,0.355c0.029,0.366-0.018,0.554,0.129,0.852
			c-0.107,0.19-0.004,0.735-0.233,0.938c0.132,0.112,0.15,0.357,0.165,0.54l0.034,0.427c-0.297,0.147-0.328,0.519-0.559,0.721
			c0.001,0.798-0.66,0.973-0.855,1.602c0.089,0.362,0.229,0.597,0.498,0.882l0.122-0.01c0.306-0.023,0.474-0.221,0.719-0.24
			l0.121-0.01c0.286-0.269,0.77-0.367,1.183-0.584c0.469-0.282,1.051-0.696,1.479-0.729c0.106-0.192,0.153-0.38,0.327-0.517
			c0.122-0.009,0.132,0.113,0.192,0.107l0.455-0.467c0.244-0.02,0.22-0.322,0.525-0.348l0.12-0.01
			c0.567-0.597,1.268-1.081,1.904-1.562c0.116-0.07,0.3-0.085,0.361-0.091c0.178-0.074,0.286-0.268,0.524-0.347
			c0.179-0.075,0.361-0.09,0.539-0.165c0.353-0.213,0.567-0.599,0.923-0.748c0.123-0.01,0.185-0.015,0.303-0.086
			c0.121-0.01,0.233-0.142,0.29-0.206c0.238-0.081,0.482-0.102,0.656-0.236l0.121-0.011c0.118-0.068,0.18-0.074,0.302-0.083
			c0.36-0.09,0.672-0.053,1.099-0.087c0.521,0.389,0.396,1.136,0.565,1.735c-0.175,0.137-0.221,0.324-0.47,0.282
			c-0.153,0.38-0.242,0.817-0.6,0.969c-0.047,0.188,0.023,0.306,0.033,0.428c-0.285,0.267-0.571,0.536-0.66,0.972l-0.121,0.01
			c-0.245,0.021-0.291,0.207-0.343,0.334c-0.598,0.231-0.93,0.688-1.2,1.139c-0.366,0.028-0.397,0.398-0.689,0.605
			c-0.233,0.143-0.481,0.101-0.655,0.236c-0.122,0.009-0.048,0.188-0.164,0.258c-0.423,0.096-0.445,0.588-0.935,0.626
			c-0.117,0.071-0.106,0.193-0.29,0.208c-0.057,0.065-0.047,0.188-0.104,0.252c-0.53,0.288-0.815,0.558-1.355,0.721
			c-0.459,0.405-1.051,0.696-1.515,1.041c-0.127-0.053-0.249-0.043-0.311-0.037c-0.305,0.022-0.47,0.282-0.773,0.307
			c-0.173,0.136-0.403,0.338-0.586,0.353c-0.122,0.011-0.185,0.016-0.249-0.042c-0.117,0.07-0.107,0.193-0.229,0.203
			c-0.365,0.028-0.482,0.1-0.793,0.063c-0.657,0.235-1.619,0.495-2.412,0.558c-0.488,0.038-0.921,0.01-1.234-0.088
			c-0.188-0.046-0.179,0.075-0.307,0.023c-1.116-0.156-2.061-0.451-2.896-0.938c0.052-0.127-0.07-0.118-0.075-0.178
			c-0.122,0.009-0.183,0.014-0.37-0.033c-0.15-0.356-0.598-0.566-0.626-0.933c-0.371-0.032-0.568-0.201-0.659-0.563
			c-0.12,0.009-0.188-0.047-0.369-0.033c-0.721-0.557-1.229-1.562-1.676-2.569c0.112-0.133-0.081-0.239-0.09-0.362
			c-0.01-0.122,0.052-0.126,0.047-0.187l-0.137-0.174c-0.146-0.296-0.113-0.667-0.138-0.973l-0.023-0.304
			c-0.104-0.546-0.326-1.02-0.364-1.509c-0.02-0.242,0.022-0.49-0.053-0.671c0.117-0.069,0.037-0.311,0.159-0.318
			c-0.065-0.058-0.07-0.117-0.075-0.179c-0.015-0.184,0.089-0.438,0.141-0.563c-0.005-0.061-0.137-0.173-0.146-0.295
			c0.253-0.695,0.251-1.493,0.832-1.906c-0.053-0.672,0.567-0.599,0.651-1.096c0.233-0.143,0.534-0.228,0.709-0.362
			c0.347-0.272,0.627-0.603,0.853-0.865c0.062-0.004,0.117-0.069,0.174-0.137c0.179-0.075,0.534-0.227,0.77-0.366
			c0.234-0.143,0.479-0.161,0.651-0.298c0.122-0.01,0.234-0.141,0.353-0.212c0.122-0.009,0.188,0.047,0.249,0.042
			c0.178-0.075,0.355-0.15,0.539-0.167c0.245-0.02,0.371,0.033,0.555,0.018c0.062-0.004,0.122-0.009,0.239-0.077
			C83.008,38.135,83.881,38.313,84.3,38.956z M82.219,43.723l-0.244,0.02c-0.671,0.052-1.202,0.339-1.158,0.89
			c0.004,0.06,0.01,0.12-0.042,0.248l-0.164,0.259c-0.031,0.369,0.134,0.909,0.102,1.28c-0.047,0.188-0.032,0.369-0.02,0.554
			c0.011,0.123,0.021,0.244,0.092,0.362c0.126,0.052,0.313,0.098,0.497,0.083c0.55-0.043,1.136-0.396,1.544-0.674
			c0.229-0.201,0.401-0.338,0.506-0.592c0.111-0.132,0.295-0.146,0.285-0.271c0.099-0.313,0.126-0.744,0.098-1.111
			c-0.024-0.306-0.048-0.61-0.246-0.777c-0.38-0.154-0.704-0.375-1.192-0.336C82.271,43.596,82.153,43.667,82.219,43.723z"/>
		<path fill="#231F20" d="M103.597,38.306c0.483,0.315,0.658,0.869,1.081,1.184c-0.004,0.184,0.117,0.247,0.053,0.43
			c0.304,0.188,0.295,0.68,0.537,0.806c-0.007,0.367,0.176,0.433,0.17,0.736c0.181,0.249,0.303,0.251,0.356,0.618
			c-0.003,0.186-0.068,0.428-0.07,0.551c-0.003,0.121,0.058,0.245,0.116,0.369c-0.007,0.367-0.071,0.55,0.046,0.857
			c-0.126,0.182-0.075,0.733-0.323,0.913c0.12,0.125,0.116,0.37,0.112,0.553l-0.008,0.429c-0.309,0.116-0.375,0.482-0.623,0.662
			c-0.075,0.795-0.751,0.905-1.006,1.513c0.054,0.368,0.172,0.615,0.411,0.926l0.122,0.002c0.307,0.005,0.492-0.174,0.737-0.17
			l0.122,0.002c0.312-0.239,0.801-0.291,1.233-0.469c0.493-0.234,1.111-0.592,1.54-0.585c0.126-0.182,0.189-0.363,0.376-0.48
			c0.122,0.002,0.121,0.123,0.182,0.124l0.497-0.42c0.245,0.005,0.25-0.302,0.556-0.296l0.123,0.002
			c0.622-0.539,1.363-0.954,2.045-1.372c0.123-0.059,0.308-0.056,0.368-0.055c0.186-0.058,0.312-0.238,0.557-0.296
			c0.185-0.058,0.367-0.055,0.553-0.111c0.37-0.179,0.622-0.539,0.991-0.656c0.123,0.002,0.184,0.004,0.307-0.056
			c0.123,0.002,0.248-0.118,0.311-0.179c0.245-0.058,0.49-0.053,0.677-0.172l0.122,0.001c0.124-0.059,0.186-0.058,0.308-0.056
			c0.368-0.054,0.673,0.013,1.102,0.021c0.482,0.438,0.285,1.168,0.396,1.782c-0.187,0.119-0.25,0.302-0.493,0.235
			c-0.191,0.365-0.32,0.791-0.688,0.907c-0.065,0.183-0.007,0.305-0.009,0.428c-0.311,0.239-0.621,0.479-0.751,0.905l-0.122-0.002
			c-0.244-0.006-0.31,0.178-0.373,0.299c-0.614,0.172-0.989,0.595-1.304,1.018c-0.367-0.006-0.435,0.359-0.744,0.537
			c-0.247,0.119-0.49,0.053-0.677,0.172c-0.122-0.002-0.064,0.184-0.188,0.241c-0.431,0.055-0.499,0.542-0.989,0.534
			c-0.123,0.059-0.126,0.182-0.31,0.179c-0.063,0.06-0.063,0.183-0.127,0.242c-0.555,0.233-0.864,0.474-1.419,0.587
			c-0.495,0.358-1.11,0.592-1.605,0.89c-0.122-0.063-0.244-0.065-0.307-0.065c-0.306-0.005-0.493,0.235-0.8,0.229
			c-0.186,0.119-0.434,0.298-0.617,0.295c-0.122-0.002-0.184-0.004-0.243-0.065c-0.123,0.06-0.127,0.183-0.248,0.18
			c-0.367-0.007-0.49,0.053-0.796-0.014c-0.677,0.171-1.658,0.338-2.454,0.322c-0.489-0.008-0.917-0.076-1.222-0.205
			c-0.183-0.064-0.185,0.06-0.306-0.006c-1.097-0.264-2.009-0.647-2.794-1.212c0.063-0.122-0.061-0.125-0.06-0.185
			c-0.121-0.002-0.184-0.004-0.364-0.068c-0.117-0.37-0.541-0.621-0.534-0.989c-0.366-0.066-0.546-0.254-0.602-0.622
			c-0.123-0.003-0.184-0.064-0.365-0.067c-0.662-0.624-1.072-1.672-1.421-2.72c0.124-0.119-0.058-0.245-0.056-0.367
			c0.002-0.123,0.063-0.122,0.064-0.184l-0.119-0.186c-0.117-0.309-0.05-0.674-0.044-0.98l0.006-0.307
			c-0.052-0.552-0.227-1.043-0.218-1.532c0.004-0.245,0.068-0.489,0.012-0.674c0.124-0.06,0.066-0.306,0.189-0.303
			c-0.062-0.063-0.06-0.124-0.059-0.187c0.003-0.183,0.129-0.426,0.192-0.547c0.001-0.062-0.119-0.187-0.116-0.308
			c0.317-0.668,0.394-1.463,1.012-1.819c0.013-0.674,0.621-0.54,0.753-1.025c0.247-0.118,0.555-0.175,0.739-0.294
			c0.372-0.238,0.684-0.539,0.934-0.779c0.061,0.002,0.122-0.06,0.186-0.119c0.186-0.058,0.554-0.174,0.801-0.291
			c0.247-0.118,0.492-0.114,0.678-0.233c0.122,0.002,0.247-0.117,0.371-0.177c0.122,0.001,0.183,0.063,0.243,0.065
			c0.186-0.059,0.369-0.116,0.553-0.115c0.244,0.005,0.366,0.069,0.551,0.071c0.061,0.001,0.122,0.003,0.246-0.056
			C102.389,37.367,103.242,37.627,103.597,38.306z M101.067,42.853l-0.243-0.003c-0.674-0.014-1.229,0.222-1.238,0.772
			c-0.001,0.061-0.002,0.121-0.065,0.242l-0.188,0.242c-0.068,0.366,0.045,0.918-0.023,1.284c-0.063,0.183-0.067,0.365-0.071,0.55
			c-0.002,0.122-0.004,0.245,0.056,0.37c0.122,0.063,0.304,0.127,0.486,0.129c0.553,0.011,1.17-0.283,1.603-0.521
			c0.248-0.18,0.434-0.298,0.56-0.54c0.125-0.121,0.31-0.116,0.312-0.24c0.128-0.305,0.197-0.731,0.204-1.099
			c0.005-0.307,0.011-0.61-0.17-0.798c-0.363-0.19-0.666-0.44-1.155-0.449C101.13,42.733,101.007,42.791,101.067,42.853z"/>
	</g>
	<g>
		<path fill="#231F20" d="M9.073,85.36c0.479,0.137,1.274-0.371,1.71-0.074l0.309-0.171c0.492,0.4,1.464,0.331,1.688,0.612
			c0.098-0.189,0.304-0.304,0.291-0.567c0.354-0.331,0.607-0.605,1.064-0.994c0.178-0.166,0.297-0.435,0.503-0.549l0.104-0.058
			c0.383-0.28,0.736-0.612,1.098-0.812c0.206-0.115,0.36-0.201,0.543-0.234l0.258-0.144c0.311-0.173,0.642-0.424,0.956-0.463
			c0.051-0.029,0.211,0.018,0.343,0.011l0.257-0.143c0,0,0.583,0.08,0.818,0.018c0.314-0.04,0.543-0.233,0.777-0.298
			c0.132-0.006,0.319,0.092,0.445-0.046c0.611,0.132,1.247,0.184,1.646,0.905c0.138,0.125,0.32,0.091,0.412,0.376
			c0.006,0.132,0.154-0.086,0.211,0.018c0.229,0.412,0.658,0.577,0.944,1.093l0.058,0.104c0.371,0.063,0.622,0.396,0.948,0.618
			c-0.018,0.212,0.12,0.338,0.177,0.438c0.114,0.204,0.063,0.233,0.098,0.417c0.059,0.104,0.08,0.022,0.188,0.101
			c0.058,0.103,0.034,0.183,0.063,0.233c0.138,0.125,0.43,0.165,0.516,0.32c0.143,0.257,0.188,0.702,0.303,0.909l0.086,0.152
			c0.154,0.521,0.325,1.437,0.354,2.094c-0.31,0.173,0.052,0.579-0.178,0.771c0.274,0.253,0.715,0.075,1.086,0.139
			c0.351,0.144,0.722,0.205,0.989,0.325c0.104-0.057,0.161,0.046,0.234-0.063c0.138,0.126,0.319,0.092,0.479,0.137
			c0.059,0.104,0.087,0.155,0.194,0.229c0.372,0.063,0.669,0.234,1.019,0.377l0.144,0.258c0.485,0.269,0.767,0.652,1.247,0.79
			c-0.019,0.211,0.143,0.257,0.206,0.491c0.371,0.063,0.65,0.445,0.978,0.67c0.137,0.126,0.057,0.103,0.092,0.285
			c0.138,0.126,0.325,0.224,0.515,0.318c-0.04,0.292,0.113,0.207,0.309,0.437c-0.068,0.238,0.12,0.337,0.234,0.544
			c0.144,0.258,0.184,0.571,0.298,0.777c0.172,0.31,0.497,0.531,0.72,0.813c0.04,0.313,0.007,0.736,0.206,1.098
			c0.058,0.104,0.138,0.125,0.194,0.229c0.063,0.234,0.017,0.395,0.074,0.497c-0.04,0.292-0.08,0.583-0.092,0.927
			c0.107,0.074-0.022,0.08-0.126,0.138c0.148,0.39-0.081,0.583,0.119,0.942c-0.309,0.173,0.052,0.579-0.257,0.749
			c0.177,0.44,0.058,0.71-0.115,1.008c-0.097,0.189-0.107,0.531-0.263,0.617c0.011,0.264-0.006,0.475-0.075,0.715
			c-0.257,0.144-0.239,0.538-0.411,0.835c-0.075,0.109-0.154,0.086-0.229,0.193c-0.12,0.271-0.109,0.532-0.259,0.75
			c-0.657,0.634-1.274,0.978-2.063,1.617c-0.104,0.058-0.178,0.166-0.253,0.274c-0.595,0.263-0.828,0.325-1.475,0.618
			c-0.189-0.098-0.396,0.017-0.556-0.029c-1.013,0.36-1.698,0.338-2.597,0.297c-0.08,0.583,0.08,1.235-0.43,1.652
			c-0.007,0.476-0.789,1.247-1.378,1.642c-0.465,0.259-1.036,0.44-1.478,0.616c-0.257,0.146-0.411,0.229-0.777,0.299
			c-0.521,0.154-0.571,0.184-0.994,0.148c-0.562-0.161-1.019-0.379-1.584-0.67c-0.35-0.145-0.35-0.145-0.646-0.315l-0.554-0.635
			c-0.219-0.147-0.458-0.217-0.596-0.343c-0.107-0.074-0.166-0.18-0.224-0.281c-0.172-0.308-0.24-0.675-0.435-0.902
			c-0.133,0.007-0.24-0.068-0.371-0.063c-0.086-0.155-0.166-0.179-0.144-0.258c-0.452-0.087-0.611-0.738-0.943-1.094
			c-0.138-0.126,0.073-0.107-0.063-0.233c-0.246-0.199-0.469-0.48-0.641-0.789l-0.715-1.288c-0.144-0.257-0.285-0.515-0.48-0.743
			c0.023-0.08-0.063-0.233-0.04-0.314c-0.085-0.154-0.193-0.229-0.273-0.25c-0.663-1.316-1.48-2.547-2.194-3.832
			c-0.059-0.104,0.045-0.16-0.012-0.265c-0.139-0.125-0.252-0.332-0.366-0.538c-0.343-0.616-0.617-1.475-0.886-2.2
			c0.073-0.108-0.093-0.286,0.092-0.32c-0.132,0.005-0.086-0.155-0.225-0.28c-0.027-0.051-0.159-0.046-0.217-0.147
			c-0.2-0.361-0.525-1.189-0.816-1.836c-0.292-0.646-0.63-1.135-0.304-1.518c-0.086-0.153-0.264,0.013-0.319-0.093
			c0.021-0.08-0.086-0.154,0.046-0.16c-0.006-0.132-0.132,0.006-0.16-0.045c-0.154-0.521-0.44-1.034-0.436-1.508
			c-0.027-0.054-0.132,0.005-0.138-0.127c-0.097-0.418-0.564-0.898-0.537-1.452c-0.092-0.287-0.263-0.595-0.331-0.962
			c-0.035-0.183-0.018-0.396-0.021-0.525l-0.099-0.418l0.378-0.412c0.092-0.318,0.184-0.641,0.304-0.908
			c0.332-0.252,0.584-0.526,0.783-0.771c0.313-0.041,0.411-0.229,0.617-0.344l-0.058-0.104L9.073,85.36z M15.265,88.385
			c-0.051,0.028-0.154,0.086-0.337,0.119c0.046,0.447-0.057,0.505,0.171,0.916c0.292,0.04,0.481,0.139,0.566,0.293
			c0.172,0.309,0.034,0.788,0.183,1.178c0.172,0.31,0.544,0.371,0.688,0.629c0.006,0.132-0.099,0.188-0.013,0.342
			c0.108,0.074,0.274,0.252,0.331,0.354c0.059,0.104,0.063,0.233,0.04,0.315c0.315-0.04,0.481,0.138,0.87-0.012
			c0.097-0.188,0.068-0.238,0.063-0.371l1.646-1.521c0.383-0.28,1.127-0.761,1.299-1.059c0.298-0.436,0.258-0.749,0.086-1.058
			c-0.171-0.311-0.475-0.611-0.727-0.943c-0.159-0.047-0.497,0.073-0.583-0.081c-0.16-0.045-0.446,0.046-0.504-0.057
			c-0.263,0.012-0.32-0.093-0.525,0.022c-0.194-0.229-0.817-0.019-1.012-0.247c-0.44,0.178-0.818-0.018-1.207,0.132
			c-0.132,0.005-0.234,0.063-0.338,0.12C15.552,87.688,15.409,88.038,15.265,88.385z M20.823,98.635
			c0.033,0.185,0.118,0.34,0.204,0.492l0.086,0.154c0.087,0.154,0.406,0.247,0.492,0.4c0.058,0.104-0.012,0.343,0.046,0.444
			c0.098,0.417,0.399,0.723,0.313,1.173c0.418-0.097,0.458,0.218,0.63,0.527c0.085,0.154,0.223,0.279,0.435,0.298
			c0.006,0.131,0.012,0.262,0.068,0.365c0.144,0.258,0.439,0.429,0.555,0.635c0.058,0.104,0.086,0.154,0.04,0.314
			c0.365-0.068,0.344,0.013,0.354,0.273c0.286-0.092,0.371,0.063,0.56,0.161c-0.097,0.188-0.171,0.297-0.113,0.399
			c0.172,0.31,1.063,0.218,1.366,0.521c0.934-0.383,1.379-1.035,1.974-1.299c-0.138-0.125-0.012-0.262,0.012-0.343l0.258-0.144
			c-0.017-0.395,0.543-0.842,0.709-1.27c0.139-0.48-0.039-0.921,0.229-1.407c-0.068-0.366-0.074-0.497-0.194-0.834
			c-0.138-0.127-0.423-0.035-0.561-0.161L28.2,99.186c-0.114-0.205-0.074-0.498-0.188-0.703c-0.086-0.154-0.217-0.148-0.274-0.252
			l-0.285-0.516c-0.114-0.207-0.258-0.463-0.503-0.664c-0.108-0.073-0.48-0.138-0.642-0.183c-0.188-0.098-0.188-0.098-0.398-0.114
			c-0.532-0.108-1.156,0.104-1.819,0c-0.183,0.033-0.126,0.137-0.36,0.199c-0.948-0.012-1.848-0.053-3.043,0.343
			c-0.051,0.028-0.103,0.059-0.183,0.034C20.417,97.783,20.617,98.144,20.823,98.635z"/>
		<path fill="#231F20" d="M32.384,73.285c0.069-0.15,0.276-0.104,0.441-0.165c0.323,0.191,0.784,0.08,1.108,0.273
			c0.166-0.063,0.241-0.028,0.386-0.146c0.14,0.2,0.414,0.096,0.553,0.296c0.165-0.063,0.221-0.083,0.372-0.015
			c0.151,0.069,0.249,0.158,0.435,0.151l0.125,0.33c0.311-0.181,0.427-0.537,0.64-0.809c0.146-0.117,0.311-0.18,0.399-0.275
			c0.668-0.566,1.184-1.201,1.955-1.49c0.331-0.124,0.737-0.215,1.068-0.339c0.329-0.125,0.585-0.284,0.915-0.41l0.274-0.104
			c0.462-0.11,1.109-0.229,1.489-0.058c0.165-0.063,0.262,0.025,0.372-0.014c0.724,0.42,1.799,0.266,2.421,0.911
			c0.186-0.007,0.282,0.083,0.468,0.076c0.201,0.364,0.614,0.46,0.884,0.674c0.041,0.11,0.007,0.187,0.048,0.295
			c0.152,0.069,0.317,0.008,0.47,0.076c0.083,0.222,0.234,0.289,0.421,0.282l0.125,0.33c0.063,0.166,0.172,0.124,0.248,0.158
			c0.325,0.694,0.925,0.784,1.25,1.479c0.15,0.069,0.29,0.269,0.353,0.435c0.082,0.221,0.09,0.405,0.042,0.612
			c0.2,0.365,0.436,0.654,0.58,1.039l0.063,0.165c0.007,0.188-0.063,0.339,0.001,0.504l0.062,0.165
			c0.104,0.275-0.006,0.317,0.022,0.56c0.007,0.186,0.165,0.44-0.015,0.634l0.125,0.33c0.188,0.496,0.276,0.903,0.313,1.33
			c-0.09,0.097-0.124,0.173-0.233,0.214c0.057,0.482-0.191,0.828-0.061,1.345c-0.158,0.248-0.24,0.53-0.419,0.726
			c0.021,0.055,0.096,0.089,0.138,0.198c-0.427,0.538-0.308,1.187-0.68,1.703c0.021,0.056,0.097,0.09,0.117,0.146
			c0.063,0.166-0.063,0.337-0.131,0.489c-0.062,0.339,0.042,0.612-0.227,0.903c0.104,0.274,0.111,0.461,0.215,0.736
			c0.042,0.11,0.084,0.22,0.18,0.31c0.063,0.165-0.122,0.172-0.062,0.338c0.063,0.166,0.159,0.256,0.276,0.399
			c-0.033,0.578,0.395,1.048,0.175,1.634c0.117,0.146,0.214,0.233,0.275,0.398c0.021,0.056,0.063,0.166,0.028,0.241
			c0.503,0.503,0.897,1.046,1.47,1.396l0.041,0.11c0.104,0.274,0.366,0.302,0.43,0.468c0.021,0.056-0.015,0.132,0.026,0.241
			c0.264,0.025,0.47,0.074,0.696,0.178c0.076,0.034,0.097,0.09,0.117,0.145c0.316,0.008,0.497,0.316,0.78,0.398
			c0.021,0.056-0.015,0.132-0.015,0.132c0.083,0.222,0.365,0.303,0.572,0.352c0.117,0.144-0.048,0.206,0.069,0.352
			c0.151,0.068,0.187-0.008,0.405-0.091c0.249,0.158,0.553,0.296,0.72,0.736c0.281,0.083,0.428,0.468,0.696,0.682
			c-0.042,0.392-0.041,0.896-0.419,1.227c0.041,0.11,0.063,0.165,0.027,0.242c-0.199,0.138-0.344,0.255-0.393,0.461
			c-0.841,0.444-1.831,0.816-2.658,1.128c-0.379-0.171-0.793-0.268-1.311-0.136l-0.083-0.221c-0.241,0.027-0.413-0.097-0.71-0.048
			c-0.476-0.262-0.985-0.445-1.476-0.576l-0.063-0.165c-0.315-0.006-0.717-0.233-1.007-0.502c-0.503,0-0.903-0.227-1.371-0.301
			c-0.166,0.063-0.297,0.049-0.448-0.021c-0.075-0.034-0.117-0.145-0.158-0.255c-0.297,0.048-0.489-0.13-0.786-0.082
			c-0.076-0.034-0.117-0.145-0.083-0.221c-0.296,0.05-0.523-0.055-0.684-0.31c-0.165,0.063-0.145,0.117-0.274,0.104
			c-0.09,0.097,0.026,0.241-0.063,0.339c0.098,0.089,0.229,0.103,0.304,0.137c0.104,0.274,0.152,0.572,0.235,0.792
			c0.042,0.11,0.172,0.124,0.193,0.179c0.117,0.146,0.18,0.312,0.241,0.477c0.063,0.165,0.104,0.275,0.256,0.345l0.091,0.405
			c0.165,0.44,0.455,0.709,0.621,1.15l0.125,0.33c-0.172,0.381-0.674,0.884-1.501,1.193c-1.104,0.416-2.28,0.796-3.004,0.378
			c-0.669,0.063-1.2-0.179-1.676-0.438c-0.132-0.015-0.263-0.026-0.339-0.062l-0.669-0.439c-0.131-0.015-0.173-0.124-0.249-0.158
			c-0.172-0.124-0.379-0.173-0.551-0.297c-0.38-0.17-0.711-0.55-1.042-0.929c-0.234-0.289-0.291-0.771-0.636-1.02
			c-0.042-0.109-0.083-0.219-0.049-0.296c-0.436-0.15-0.566-0.668-0.787-1.088c-0.063-0.165-0.215-0.234-0.331-0.379
			c-0.201-0.364-0.347-0.75-0.604-1.095c-0.04-0.109-0.007-0.187,0.028-0.263c-0.263-0.027-0.18-0.309-0.263-0.529
			c-0.021-0.056-0.042-0.109-0.118-0.145c0.034-0.076-0.007-0.188-0.049-0.297c-0.063-0.165-0.199-0.365-0.152-0.572
			c-0.15-0.068-0.104-0.274-0.221-0.42c-0.097-0.09-0.248-0.158-0.29-0.268c-0.083-0.222-0.132-0.519-0.104-0.778
			c-0.116-0.146-0.214-0.234-0.263-0.532c0,0,0.014-0.13-0.007-0.185c-0.084-0.222-0.298-0.455-0.38-0.676
			c-0.063-0.166-0.049-0.297,0.02-0.447c-0.173-0.123-0.255-0.345-0.338-0.565c-0.146-0.386-0.236-0.792-0.209-1.054
			c-0.021-0.055-0.097-0.089-0.172-0.124l-0.208-0.551c-0.187-0.496-0.395-1.049-0.319-1.517c-0.256-0.344-0.422-0.786-0.588-1.227
			c-0.02-0.056,0.068-0.151,0.027-0.262c-0.021-0.056-0.096-0.09-0.138-0.198c-0.063-0.166-0.092-0.407-0.194-0.684l-0.083-0.221
			c-0.097-0.089,0.014-0.131,0.026-0.263c-0.138-0.198-0.297-0.453-0.381-0.675c-0.103-0.274-0.131-0.517-0.083-0.724
			c-0.021-0.055-0.097-0.089-0.116-0.145c-0.104-0.276-0.001-0.504-0.029-0.744c-0.048-0.297-0.249-0.661-0.354-0.938
			c-0.083-0.22-0.166-0.439-0.193-0.682l-0.027-0.241l-0.042-0.109c-0.062-0.165-0.18-0.311-0.076-0.537
			c0.014-0.133-0.097-0.089-0.116-0.146c0.026-0.262-0.07-0.352-0.152-0.571c-0.084-0.221-0.035-0.427-0.063-0.668
			c-0.104-0.274-0.317-0.51-0.18-0.813c-0.097-0.09-0.056,0.021-0.132-0.014c-0.097-0.091,0.09-0.098,0.048-0.208l-0.146-0.386
			c-0.146-0.386-0.193-0.683-0.229-1.109l0.386-0.145c0.33-0.126,0.552-0.208,0.688-0.513c0.315,0.007,0.461-0.11,0.682-0.194
			l0.241-0.026c0.11-0.041,0.124-0.172,0.275-0.104c0.186-0.008,0.109-0.042,0.364-0.201c0.199-0.139,0.345-0.256,0.511-0.317
			C32.068,73.278,32.177,73.237,32.384,73.285z M38.853,75.756c-0.068,0.151-0.158,0.248-0.248,0.346
			c-0.055,0.021-0.109,0.043-0.186,0.008c-0.158,0.248-0.337,0.439-0.462,0.614c-0.123,0.173-0.281,0.42-0.426,0.537L37.2,77.385
			c-0.18,0.194-0.116,0.358-0.232,0.719c-0.069,0.15-0.158,0.248-0.192,0.323c0.008,0.187,0.124,0.331,0.188,0.496
			c0.048,0.296-0.089,0.6-0.021,0.951c0.069,0.353,0.216,0.736,0.36,1.123c0.146,0.385,0.29,0.771,0.449,1.025l0.083,0.221
			c0.146,0.386,0.159,0.758,0.193,1.187c0.229,0.103,0.271,0.213,0.354,0.434c0.042,0.11-0.124,0.173-0.063,0.338
			c0.104,0.274,0.276,0.398,0.448,0.522l0.063,0.166c0.063,0.165,0.069,0.351,0.242,0.475c-0.034,0.075-0.275,0.104-0.233,0.214
			c0.151,0.068,0.337,0.063,0.455,0.205c0.041,0.11,0.026,0.241,0.068,0.352c0.104,0.276,0.331,0.38,0.482,0.447
			c0.275-0.605,0.984-1.063,1.162-1.759c0.634-0.49,1.019-1.139,1.045-1.903c0.269-0.29,0.178-0.695,0.316-1
			c0.254-0.159,0.378-0.331,0.273-0.605l-0.042-0.11c0.221-0.083,0.104-0.229,0.063-0.339c0.371-0.517,0.536-1.081,0.549-1.716
			c0.282-0.422,0.04-0.896,0.419-1.228c-0.076-0.033-0.207-0.049-0.229-0.104c0.104-0.229,0.021-0.449,0.015-0.635
			c-0.098-0.09-0.14-0.199-0.181-0.311c-0.146-0.386-0.091-0.909-0.235-1.296c-0.118-0.145-0.429-0.468-0.579-0.536
			c-0.271-0.214-0.731-0.103-1.076-0.35C40.444,74.968,39.693,75.315,38.853,75.756z"/>
		<path fill="#231F20" d="M60.507,66.124c0.287-0.063,0.562-0.188,0.771-0.055c0.159-0.097,0.332-0.135,0.562-0.188
			c0.402-0.091,0.875-0.138,1.162-0.203c0.345-0.077,0.677-0.214,1.021-0.292c0.115-0.024,0.257,0.063,0.371,0.037
			c0.114-0.024,0.274-0.122,0.446-0.159c0.415-0.034,0.919-0.209,1.417-0.142c0.173-0.039,0.218-0.108,0.274-0.122
			c0.197,0.075,0.384,0.094,0.557,0.056l0.229-0.053c0.23-0.052,0.505-0.176,0.85-0.254l0.173-0.038
			c0.114-0.025,0.356-0.021,0.6-0.016c0.544-0.002,0.716-0.041,1.151,0.283c0.211,0.133,0.378,0.337,0.66,0.515
			c0.153,0.146,0.353,0.221,0.449,0.381l0.213,0.676c0.008,0.302-0.123,1.057-0.199,1.253c-0.076,0.198-0.298,0.552-0.457,0.646
			c-0.146,0.154-0.491,0.232-0.752,0.412c-0.104,0.084-0.261,0.181-0.435,0.22c-0.114,0.026-0.241-0.006-0.37-0.037
			c-0.234,0.295-0.738,0.47-1.256,0.587l-1.148,0.262c-0.459,0.103-1.077,0.304-1.71,0.446l-0.401,0.092
			c-0.186-0.02-0.301,0.008-0.574,0.131c-0.286,0.064-0.588,0.071-0.816,0.124c-0.229,0.052-0.39,0.147-0.618,0.198
			c-0.23,0.054-0.415,0.034-0.588,0.074c-0.172,0.038-0.287,0.065-0.376,0.206c0.084,0.104,0.108,0.216,0.136,0.331
			c-0.103,0.083-0.261,0.18-0.351,0.32c0.123,0.274,0.104,0.46,0.156,0.688c0.053,0.23-0.12,0.271-0.14,0.454
			c0.071,0.044,0.071,0.044,0.026,0.115c0.069,0.044,0.186,0.019,0.197,0.075c0.382,0.881,0.426,2.139,0.978,2.979
			c-0.02,0.186-0.023,0.429-0.099,0.627c0.096,0.159,0.241,0.005,0.325,0.106c0.053,0.229,0.104,0.46,0.086,0.645
			c0.153,0.146,0.264,0.363,0.315,0.595c0.064,0.285,0.015,0.6-0.105,0.867c0.039,0.173,0.021,0.357,0.047,0.474
			c0.144,0.632,0.4,1.236,0.519,1.754c0.039,0.173,0.065,0.288,0.047,0.474c0.27,0.119,0.479,0.253,0.704,0.443
			c0.345-0.078,0.677-0.213,0.964-0.278c0.229-0.053,0.474-0.047,0.657-0.027c0.274-0.124,0.604-0.26,0.894-0.322l0.587-0.074
			c0.212,0.133,0.613,0.042,0.78,0.246l0.229-0.052c0.396,0.15,0.705,0.443,1.132,0.468c0.039,0.172,0.109,0.217,0.309,0.293
			c-0.05,0.313,0.148,0.388,0.2,0.618l0.026,0.115c0.025,0.114-0.089,0.141-0.179,0.28c0.065,0.288-0.195,0.467-0.117,0.813
			c-0.044,0.07-0.159,0.097-0.217,0.108c-0.006,0.243-0.082,0.442-0.156,0.641l-0.767,0.354c-0.172,0.038-0.317,0.192-0.535,0.303
			c-0.286,0.063-0.543,0.002-0.828,0.066l-0.563,0.188l-0.172,0.038c-0.229,0.053-0.428-0.022-0.602,0.016
			c-0.058,0.014-0.172,0.039-0.217,0.11c-0.133,0.211-0.094,0.383-0.028,0.67c0.038,0.173,0.021,0.356,0.06,0.528
			c0.092,0.403,0.298,0.778,0.389,1.182c0.053,0.229-0.022,0.429,0.145,0.633c0.695,0.144,1.525,0.075,2.135,0.361
			c0.172-0.04,0.159-0.098,0.273-0.123c0.37,0.036,0.785,0.003,1.244-0.102c0.46-0.104,0.906-0.266,1.297-0.414
			c0.172-0.039,0.196,0.075,0.339,0.164c0.4-0.092,0.994-0.406,1.512-0.522c0.229-0.053,0.472-0.048,0.67,0.028
			c0.204-0.167,0.357-0.021,0.588-0.072l0.114-0.025c0.128,0.031,0.212,0.134,0.27,0.121c0.187,0.019,0.356-0.021,0.557,0.054
			c0.152,0.146,0.308,0.292,0.358,0.522c0.154,0.146,0.396,0.151,0.552,0.298c0.142,0.089,0.192,0.317,0.258,0.604
			c0.052,0.229,0.104,0.46,0.027,0.658l-0.146,0.153c-0.075,0.199-0.271,0.665-0.532,0.846c-0.16,0.097-0.465,0.348-0.465,0.348
			l-0.287,0.063c-0.287,0.065-0.408,0.335-0.682,0.457c-0.173,0.04-0.301,0.009-0.415,0.034c-0.172,0.039-0.146,0.152-0.19,0.225
			c-0.345,0.077-0.51,0.417-0.886,0.623c-0.332,0.136-0.746,0.169-1.122,0.375c-0.218,0.109-0.606,0.258-0.894,0.323
			c-0.173,0.038-0.346,0.078-0.474,0.047c-0.044,0.069-0.272,0.122-0.305,0.249c-0.128-0.031-0.243-0.005-0.357,0.021
			c-0.229,0.053-0.446,0.161-0.677,0.215c-0.115,0.024-0.186-0.02-0.242-0.007c-0.173,0.039-0.16,0.098-0.332,0.136
			c-0.159,0.097-0.445,0.162-0.732,0.228L67.193,95.1c-0.102,0.083-0.146,0.151-0.261,0.18c-0.159,0.097-0.331,0.135-0.504,0.175
			c-0.287,0.064-0.517,0.116-0.76,0.111l-0.248,0.237c-0.574,0.131-1.064,0.36-1.641,0.491c-0.172,0.039-0.345,0.078-0.587,0.073
			c-0.409-0.21-1.099-0.054-1.433-0.46c-0.3,0.007-0.479-0.255-0.78-0.247c-0.359-0.521-1.018-0.494-1.511-0.805
			c-0.039-0.172-0.18-0.261-0.308-0.293C59.111,94.334,59.04,94.29,59,94.119c-0.27-0.121-0.493-0.312-0.717-0.503
			c-0.098-0.158-0.053-0.229-0.065-0.286c-0.225-0.19-0.532-0.482-0.61-0.828l-0.024-0.114c-0.533-0.482-0.596-1.557-1.127-2.039
			l-0.025-0.114c-0.064-0.287-0.347-0.465-0.412-0.752l0.005-0.243c-0.235-0.248-0.358-0.522-0.438-0.867
			c-0.125-0.815-0.52-1.754-0.797-2.718l-0.313-1.379c-0.104-0.458-0.081-0.887-0.173-1.289c-0.063-0.286-0.187-0.562-0.252-0.848
			c-0.039-0.174-0.065-0.287-0.047-0.474c-0.083-0.102,0.103-0.083,0.089-0.141c-0.283-0.72-0.677-1.658-0.885-2.577
			c-0.053-0.229-0.034-0.414-0.029-0.657c-0.013-0.059-0.114,0.025-0.186-0.019c-0.156-0.69-0.294-1.563-0.463-2.312
			c-0.038-0.172-0.136-0.331-0.175-0.503c-0.039-0.173-0.008-0.301,0.081-0.44c-0.014-0.06-0.172,0.038-0.153-0.146
			c-0.094-0.945-0.244-1.877-0.439-2.738c0.089-0.14,0.249-0.236,0.28-0.364c-0.098-0.16-0.16,0.096-0.243-0.005
			c-0.13-0.575,0.092-0.929,0.09-1.472c0.103-0.083,0.12-0.268,0.292-0.307c0.126-0.513,0.776-0.84,0.901-1.354
			c0.16-0.096,0.491-0.229,0.766-0.354c0.114-0.026,0.376-0.206,0.396-0.393c0.068,0.045,0.127,0.031,0.185,0.019
			c0.23-0.051,0.421-0.274,0.637-0.386c0.16-0.097,0.332-0.136,0.505-0.175c0.229-0.052,0.529-0.06,0.716-0.041
			c0.332-0.137,0.649-0.328,0.994-0.406c0.114-0.025,0.242,0.006,0.301-0.007c0.287-0.065,0.434-0.22,0.721-0.284l0.242,0.005
			c0.401-0.091,0.777-0.297,1.123-0.375l0.173-0.038l0.414-0.034L60.507,66.124z"/>
		<path fill="#231F20" d="M88.062,61.331c0.994-0.134,2.285-0.231,3.415-0.142c0.116-0.009,0.186,0.104,0.302,0.096
			c0.542,0.137,0.71,0.005,1.08,0.215c0.004,0.06,0.066,0.112,0.13,0.167c0.122,0.048,0.356,0.032,0.542,0.137
			c0.613,0.308,0.901,0.993,1.508,1.185l0.631,1.311c0.216,0.517,0.485,0.968,0.525,1.495c0.019,0.235-0.072,0.597,0.181,0.813
			c-0.045,0.181-0.036,0.298-0.023,0.474c0.031,0.411,0.176,0.754,0.482,0.909c0.021,0.294-0.082,0.478-0.063,0.714
			c0.072,0.171,0.193,0.222,0.207,0.396c0.015,0.176-0.096,0.304-0.077,0.538l0.01,0.115c0.013,0.178,0.242,0.102,0.312,0.214
			c0.009,0.117-0.046,0.182-0.037,0.299c0.026,0.352,0.227,0.633,0.248,0.926l0.009,0.118c0.014,0.175-0.104,0.185-0.087,0.419
			c0.009,0.117,0.077,0.229-0.036,0.298c0.252,0.218,0.121,0.818,0.373,1.034c-0.045,0.182-0.031,0.356-0.021,0.476
			c0.021,0.292,0.099,0.523,0.238,0.81c-0.046,0.18-0.028,0.414-0.011,0.648c0.022,0.294,0.045,0.588-0.234,0.787
			c0.009,0.116,0.075,0.229,0.084,0.347c0.019,0.235-0.085,0.42-0.253,0.552l0.045,0.587c0.021,0.293,0.044,0.587-0.114,0.836
			c-0.045,0.18,0.077,0.229,0.144,0.344c-0.044,0.18-0.106,0.125-0.03,0.354c0.188,0.164,0.044,0.589,0.226,0.634
			c-0.177,0.014-0.229,0.077-0.335,0.262c0.026,0.353,0.338,0.563,0.364,0.917c0.014,0.177-0.148,0.366-0.137,0.542l0.01,0.117
			c0.03,0.411,0.233,0.75,0.318,1.098c0.198,0.28,0.344,0.624,0.541,0.903c0.094,1.233,1.109,1.393,1.643,2.18
			c0.112-0.066,0.229-0.077,0.406-0.091c0.294-0.021,0.592,0.015,0.779,0.178c0.041,0.529,0.248,0.927,0.275,1.278
			c0.013,0.177-0.037,0.299-0.082,0.479c-0.046,0.182-0.213,0.313-0.263,0.435c-0.056,0.063-0.041,0.237-0.092,0.359
			c-0.107,0.127-0.275,0.259-0.258,0.492c-0.33,0.32-0.669,0.523-0.813,0.947l-0.117,0.01c-0.47,0.035-0.732,0.468-1.201,0.504
			c-0.06,0.004-0.118,0.01-0.172,0.072c-0.172,0.071-0.457,0.211-0.751,0.234c-0.176,0.013-0.353,0.025-0.479-0.082
			c-0.69,0.229-2.194-0.129-2.532-0.694c-0.537-0.077-0.926-0.521-1.31-0.904c-0.188-0.163-0.438-0.321-0.636-0.602
			c-0.068-0.112-0.081-0.289-0.208-0.398c-0.131-0.166-0.312-0.211-0.496-0.314c-0.108,0.126-0.267,0.373-0.502,0.392
			c-0.059,0.005-0.117,0.009-0.181-0.046c-0.055,0.063,0.021,0.295,0.03,0.412c-0.396,0.207-0.658,0.641-1.069,0.671
			c-0.056,0.063,0.021,0.295-0.032,0.356c-0.339,0.202-0.619,0.401-0.832,0.713c-0.583,0.104-0.909,0.481-1.438,0.521l-0.177,0.014
			c-0.284,0.141-0.69,0.229-1.044,0.257l-0.352,0.026c-0.117,0.01-0.182-0.045-0.239-0.041c-0.181-0.046-0.353,0.026-0.47,0.036
			l-0.542-0.137c-0.239-0.041-0.415-0.027-0.546-0.195c-0.122-0.05-0.113,0.068-0.231,0.076c-0.063-0.055-0.13-0.167-0.252-0.217
			c-0.532-0.021-0.79-0.294-1.214-0.439c-0.375-0.267-0.921-0.461-1.245-0.851c-0.411,0.031-0.773-0.061-1.139-0.209l-0.434-0.263
			c-0.186-0.104-0.258-0.275-0.388-0.442c-0.442-0.38-0.931-0.579-1.142-1.035c-0.435-0.263-0.649-0.778-0.916-1.172
			c-0.005-0.059-0.121-0.05-0.239-0.041c0.046-0.18-0.072-0.171-0.022-0.293c-0.063-0.054-0.176,0.014-0.243-0.1
			c-0.212-0.456-0.641-0.66-0.685-1.247c-0.005-0.061-0.014-0.178-0.081-0.289c-0.005-0.061-0.127-0.108-0.131-0.167l-0.014-0.176
			c-0.055-0.706-0.496-1.085-0.595-1.61c-0.021-0.292,0.072-0.595,0.056-0.829c-0.015-0.177-0.198-0.281-0.212-0.457l-0.104-0.583
			c-0.018-0.235,0.028-0.415,0.015-0.591c0.073-0.598-0.044-1.355,0.025-2.01c0.054-0.063,0.171-0.071,0.167-0.132
			c0.045-0.181-0.188-0.162-0.198-0.28c0.168-0.897,0.201-2.022,0.486-2.93c0.234-0.019,0.217-0.254,0.326-0.38
			c-0.015-0.176-0.131-0.167-0.203-0.339c-0.02-0.234,0.082-0.479,0.244-0.668c-0.022-0.294,0.015-0.592,0.177-0.781l-0.009-0.116
			c-0.026-0.354,0.235-0.786,0.386-1.151c0.049-0.122,0.032-0.357,0.208-0.37c-0.059,0.004-0.067-0.113-0.072-0.172
			c0.439-0.446,0.436-1.273,0.934-1.724c0.239-0.728,0.602-1.404,1.095-1.914c-0.018-0.234,0.036-0.3,0.087-0.42
			c0.104-0.186,0.271-0.314,0.316-0.496l0.293-0.022c0.507-0.334,0.892-0.717,1.4-0.992c0.046-0.18,0.213-0.311,0.317-0.496
			c0.054-0.063,0.112-0.066,0.176-0.014c0.285-0.14,0.506-0.332,0.729-0.526c0.227-0.136,0.442-0.389,0.729-0.527
			c0.167-0.13,0.46-0.152,0.688-0.288l0.396-0.207c0.344-0.146,0.81-0.239,1.085-0.495c0.063,0.055,0.181,0.045,0.239,0.041
			c0.175-0.014,0.343-0.145,0.451-0.271c0.181,0.047,0.29-0.08,0.527-0.039c0.218-0.254,0.512-0.274,0.806-0.299L88.062,61.331z
			 M84.885,70.842c0.009,0.118-0.163,0.188-0.095,0.303c-0.345,0.145-0.688,0.289-0.841,0.597c0.018,0.233-0.158,0.247-0.146,0.424
			c-0.104,0.186-0.087,0.419-0.25,0.608l0.076,0.23c-0.23,0.077-0.217,0.252-0.203,0.429c0.03,0.41,0.063,0.821-0.024,1.241
			c0.122,0.052,0.132,0.167,0.141,0.285c0.014,0.178-0.142,0.482-0.187,0.663c0.063,0.055,0.067,0.113,0.076,0.231
			c0.019,0.233-0.141,0.481-0.123,0.717c0.015,0.177,0.081,0.289,0.325,0.39c-0.046,0.182,0.081,0.289,0.207,0.397
			c-0.271,0.315,0.045,0.586-0.29,0.849c0.068,0.113,0.14,0.285,0.153,0.461c0.013,0.176-0.036,0.298-0.082,0.479
			c0.066,0.111,0.244,0.1,0.253,0.217c-0.045,0.181,0.135,0.226,0.198,0.28c0.121,0.05,0.131,0.167,0.257,0.274
			c0.071,0.172,0.244,0.102,0.262,0.335c0.009,0.117,0.018,0.235-0.027,0.415c0.243,0.101,0.32,0.33,0.563,0.431l0.063,0.82
			c0.366,0.15,0.728,0.241,1.033,0.396c0.136,0.225,0.43,0.203,0.79,0.294c0.064,0.054,0.181,0.046,0.244,0.1
			c0.181,0.046,0.24,0.042,0.475,0.023c0.181,0.046,0.248,0.158,0.42,0.087c0.177-0.014,0.167-0.132,0.401-0.149l-0.013-0.176
			c0.389-0.325,0.714-0.705,0.858-1.129c0.051-0.121,0.285-0.14,0.28-0.198c-0.005-0.058-0.063-0.054-0.068-0.111
			c-0.013-0.177,0.204-0.431,0.313-0.557l-0.004-0.059c-0.014-0.176,0.095-0.302,0.321-0.438c-0.063-0.055-0.127-0.107-0.072-0.171
			c0.163-0.189,0.091-0.36,0.189-0.605c0.05-0.121,0.218-0.252,0.264-0.433c0.147-0.365,0.356-0.735,0.389-1.094
			c0.041-0.238-0.03-0.41,0.195-0.546c-0.176,0.014-0.182-0.045-0.187-0.104c-0.013-0.177,0.091-0.36,0.204-0.43
			c-0.025-0.352,0.001-0.768,0.15-1.133c-0.06,0.004-0.182-0.045-0.186-0.104c0.091-0.36-0.176-0.755-0.085-1.115
			c-0.004-0.06,0.113-0.067,0.108-0.126c-0.009-0.117-0.067-0.113-0.072-0.173c-0.008-0.116,0.104-0.185,0.158-0.246
			c-0.009-0.118-0.076-0.231-0.08-0.291c-0.005-0.059,0.05-0.12,0.041-0.239l-0.054-0.704c-0.026-0.354-0.059-0.764-0.197-1.048
			c-0.063-0.056,0.176-0.015,0.108-0.126c-0.299-0.036-0.315-0.271-0.394-0.502c-0.176,0.013-0.229,0.075-0.47,0.035l-0.189-0.162
			l-0.116,0.009c-0.471,0.036-0.674-0.304-1.083-0.272l-0.231,0.076c-0.063-0.054-0.066-0.111-0.243-0.1l-0.233,0.018
			c-0.178,0.015-0.354,0.027-0.525,0.1l-0.252-0.218l-0.176,0.015c-0.528,0.04-0.777-0.118-1.188-0.087
			C85.618,70.373,85.219,70.581,84.885,70.842z"/>
		<path fill="#231F20" d="M108.858,58.222c0.293,0.019,0.592-0.023,0.877,0.112c0.118,0.008,0.053,0.121,0.106,0.185l0.236,0.015
			c0.233,0.015,0.527,0.032,0.571,0.271l0.235,0.015l0.162,0.247c0.176,0.01,0.349,0.08,0.399,0.201
			c0.063-0.056,0.174,0.069,0.29,0.075c0.09,0.479,0.313,0.67,0.654,0.866c-0.011,0.178-0.069,0.174-0.073,0.232
			c0.226,0.189,0.452,0.321,0.428,0.733c0.287,0.136,0.202,0.542,0.359,0.847c-0.068,0.174-0.139,0.347-0.095,0.585
			c-0.007,0.117,0.114,0.065,0.173,0.069c-0.015,0.235,0.037,0.355-0.096,0.584c0.049,0.181,0.229,0.133,0.275,0.313
			c-0.018,0.295,0.21,0.427,0.311,0.727l-0.021,0.353c0.053,0.121,0.104,0.242,0.101,0.302c-0.013,0.176-0.145,0.404-0.15,0.521
			c-0.004,0.06,0.051,0.122,0.048,0.181c-0.012,0.176,0.106,0.184,0.213,0.368c-0.084,0.407-0.104,0.759-0.131,1.171
			c-0.028,0.47-0.055,0.882,0.034,1.357c-0.065,0.114-0.132,0.229-0.194,0.283c-0.031,0.529,0.061,0.947,0.034,1.357
			c-0.007,0.118-0.015,0.236-0.084,0.408c0.052,0.121,0.037,0.355,0.026,0.532l-0.065,1.06c-0.011,0.176-0.021,0.353-0.205,0.459
			l-0.011,0.176c-0.018,0.294-0.148,0.522-0.168,0.815l-0.015,0.234c0.483-0.207,0.696-0.782,1.127-1.051
			c0.007-0.118,0.128-0.17,0.139-0.346c0.367-0.214,0.684-0.548,0.884-0.948c0.863-0.596,1.396-1.565,2.481-1.972
			c0.495-0.382,0.994-0.823,1.935-0.767c0.528,0.033,0.93,0.235,0.891,0.882c-0.021,0.353-0.161,0.698-0.241,1.047
			c-0.004,0.059,0.113,0.065,0.105,0.184c-0.015,0.235-0.197,0.342-0.321,0.452c-0.338,0.687-0.684,1.492-1.299,1.927
			c0.048,0.178-0.133,0.228-0.089,0.466c-0.437,0.387-0.873,0.772-1.198,1.282c-0.063,0.056-0.121,0.052-0.181,0.048
			c-0.019,0.295-0.146,0.463-0.386,0.508c-0.146,0.463-0.458,0.738-0.821,0.894c-0.173,0.874-1.067,1.056-1.354,1.863
			c-0.069,0.173-0.313,0.275-0.153,0.58c0.345,0.14,0.566,0.39,0.911,0.528l-0.014,0.233c0.406,0.085,0.564,0.39,0.599,0.805
			c0.052,0.121,0.232,0.073,0.283,0.194c0.037,0.355,0.386,0.437,0.423,0.793l0.235,0.015c-0.14,0.346,0.157,0.304,0.202,0.544
			c0.056,0.063,0.11,0.124,0.229,0.132c0.096,0.358,0.254,0.665,0.536,0.858c-0.003,0.059,0.056,0.063,0.048,0.181
			c0.456,0.265,0.538,0.858,0.993,1.122c0.041,0.297,0.269,0.431,0.368,0.73c0.052,0.121,0.228,0.132,0.338,0.257l-0.011,0.177
			c-0.016,0.234,0.217,0.309,0.205,0.484c0.045,0.236,0.339,0.256,0.384,0.495c0.23,0.072,0.274,0.312,0.443,0.439
			c0.101,0.301,0.254,0.664,0.229,1.076c-0.008,0.117-0.017,0.234-0.081,0.349c-0.008,0.117,0.169,0.129,0.158,0.306
			c-0.096,0.584-0.631,0.669-0.727,1.253c-0.434,0.328-1.036,0.525-1.41,0.856l-0.116-0.008c-0.234-0.015-0.481,0.147-0.664,0.255
			c-0.479,0.088-0.831,0.066-1.305,0.098c-0.625-0.395-1.378-0.615-1.504-1.45l-0.224-0.19c-0.048-0.181-0.162-0.246-0.151-0.422
			c-0.283-0.194-0.383-0.497-0.604-0.745c-0.06-0.004-0.117-0.008-0.113-0.065c-0.111-0.124-0.162-0.246-0.214-0.367l-0.221-0.249
			c-0.161-0.246-0.202-0.544-0.368-0.73c-0.11-0.125-0.345-0.14-0.455-0.265c-0.113-0.065-0.166-0.186-0.279-0.252l-0.827-0.938
			c-0.055-0.063-0.048-0.181-0.104-0.241c0.004-0.06-0.055-0.063-0.055-0.063c-0.235-0.014-0.215-0.368-0.508-0.385
			c-0.063,0.055-0.065,0.114-0.069,0.173c-0.012,0.176,0.096,0.36,0.146,0.479c-0.004,0.06-0.065,0.113-0.068,0.173
			c-0.013,0.178,0.157,0.306,0.144,0.54c-0.066,0.113-0.19,0.225-0.253,0.279c0.052,0.12,0.1,0.301,0.093,0.418
			c-0.025,0.412-0.345,0.806-0.598,1.084c-0.066,0.114,0.054,0.063,0.047,0.181c-0.18,0.048-0.19,0.225-0.26,0.396
			c-0.118-0.007-0.07,0.173-0.246,0.162c-0.077,0.289-0.375,0.33-0.394,0.625l-0.008,0.117c-0.176-0.011-0.241,0.103-0.308,0.217
			c-0.121,0.052-0.235-0.015-0.239,0.044c-0.121,0.052-0.011,0.176-0.132,0.229c-0.231-0.073-0.242,0.104-0.363,0.154
			c-0.528-0.032-0.608,0.316-0.91,0.415c-0.059-0.003-0.113-0.065-0.23-0.072c-0.235-0.015-0.536,0.085-0.761-0.105
			c-0.117-0.006-0.238,0.045-0.356,0.038c-0.23-0.074-0.521-0.15-0.688-0.339c-0.643-0.099-1.293-0.079-1.811-0.287
			c-0.056-0.063-0.169-0.128-0.162-0.246c-0.114-0.065-0.125,0.11-0.239,0.044l-0.396-0.261c-0.111-0.124-0.449-0.381-0.614-0.568
			c-0.214-0.366-0.185-0.836-0.397-1.204l0.008-0.117c0.014-0.234-0.098-0.358-0.086-0.535c-0.04-0.298,0.036-0.588-0.004-0.887
			c-0.067-0.83-0.075-1.655-0.024-2.479l0.047-0.765c0.069-0.173,0.144-0.403,0.161-0.696c-0.055-0.063-0.107-0.186-0.104-0.242
			c-0.029-0.474,0.116-0.938,0.084-1.353c-0.053-0.121-0.122,0.052-0.235-0.016c0.011-0.176,0.246-0.161,0.253-0.277
			c0.007-1.063,0.079-2.237,0.372-3.163c-0.045-0.238-0.089-0.479-0.074-0.711c0.028-0.472,0.175-0.936,0.146-1.408
			c0.063-0.056,0.068-0.172,0.08-0.35c0.021-0.352-0.066-0.83,0.014-1.179c0.008-0.118,0.07-0.173,0.074-0.23
			c0.021-0.354-0.067-0.831-0.042-1.241l0.074-1.234c0.066-0.113,0.134-0.228,0.141-0.346c0.085-0.407-0.004-0.884,0.08-1.293
			c0.01-0.176,0.128-0.169,0.189-0.226c-0.394-0.316,0.23-0.868-0.049-1.124c0.011-0.177,0.077-0.29,0.201-0.399
			c-0.052-0.121-0.041-0.298-0.154-0.362c0.278-0.69,0.216-1.579,0.388-2.454c0.081-0.349,0.22-0.693,0.244-1.105l0.012-0.175
			c0.012-0.178,0.133-0.229,0.198-0.344l0.021-0.352c0.015-0.235,0.029-0.471,0.103-0.701c0.069-0.174,0.077-0.291,0.089-0.468
			l0.067-1.116c0.077-0.291,0.271-0.572,0.293-0.926l-0.044-0.238c0.337-0.687,0.942-0.945,1.942-0.884
			c0.117,0.008,0.165,0.188,0.345,0.14c0.533-0.024,1.124-0.049,1.652-0.017L108.858,58.222z"/>
	</g>
	<g>
		<path fill="#7CCDCD" d="M75.805,141.575c-59.109,0.735-54.458,24.269-39.959,29.153c34.723,11.697,95.558-2.177,97.198-11.824
			C136.97,135.859,87.119,141.436,75.805,141.575z"/>
		<path fill="#231F20" d="M68.23,176.032c-0.001,0-0.001,0-0.003,0c-12.774,0-23.76-1.519-32.647-4.513
			c-6.516-2.195-10.625-7.715-9.772-13.126c0.809-5.131,7.297-17.122,49.988-17.652c1.338-0.017,3.28-0.113,5.526-0.225
			c4.188-0.208,9.4-0.467,15.087-0.467c18.556,0,29.987,2.857,34.949,8.736c2.351,2.784,3.194,6.235,2.51,10.258
			C132.49,167.141,98.139,176.032,68.23,176.032z M96.408,141.719c-5.645,0-10.833,0.258-15.004,0.465
			c-2.265,0.111-4.22,0.209-5.59,0.226c-42.581,0.53-47.779,12.567-48.359,16.244c-0.726,4.604,2.916,9.35,8.656,11.284
			c8.717,2.937,19.521,4.426,32.115,4.426c32.672,0.001,62.995-9.722,63.994-15.599c0.607-3.565-0.092-6.478-2.139-8.901
			C125.521,144.459,114.191,141.719,96.408,141.719z"/>
	</g>
	<g opacity="0.5">
		<path fill="#C1B49A" d="M57.396,64.468c-0.466-8.846,1.291-14.126,5.468-21.807c3.884-7.136,5.835-15.35,6.749-23.391
			c0.741-6.521-0.034-10.219-3.13-15.68c5.587,7.522,10.532,13.847,9.27,23.564c-1.098,8.435-7.779,15.821-9.993,23.574
			c-1.994,6.978-0.455,19.377,1.647,25.663c2.529,7.565,6.937,15.42,6.283,23.704C72.723,94.027,58.485,85.193,57.396,64.468z"/>
		<path fill="#C1B49A" d="M77.149,68.083c0.078,3.175,1.01,9.783,1.073,10.631c-8.636-15.665-2.973-31.535,2.43-45.226
			C82.075,48.115,76.37,53.558,77.149,68.083z"/>
	</g>
	<path fill="#468885" d="M77.146,146.877c-39.579,0.906-36.681,12.624-27.018,14.934c23.14,5.528,63.994-1.961,65.182-6.798
		C118.148,143.462,84.722,146.704,77.146,146.877z"/>
	<g>
		<g>
			<path fill="#7CCDCD" d="M44.784,126.387c1.105,5.801,1.975,12.576,5.568,17.491c2.574,3.521,6.896,6.507,10.839,8.081
				c9.687,3.864,18.616,5.319,27.59,4.708c7.928-0.538,15.039-10.563,20.163-16.586c3.729-4.384,12.021-15.808,9.871-22.038
				c-1.183-3.432-5.458-5.35-8.405-6.979C86.032,97.568,59.696,96.152,51.693,94.87C38.408,92.744,42.994,117.016,44.784,126.387z"
				/>
			<path fill="#231F20" d="M84.848,157.637L84.848,157.637c-7.859,0-15.698-1.604-23.965-4.901
				c-4.432-1.77-8.725-4.974-11.204-8.364c-3.278-4.481-4.366-10.451-5.325-15.719c-0.13-0.714-0.258-1.418-0.39-2.109
				c-1.48-7.747-4.56-23.869,0.612-30.122c1.707-2.062,4.158-2.867,7.248-2.376c1.15,0.186,2.736,0.378,4.573,0.603
				c10.857,1.324,33.449,4.079,54.416,15.687c0.346,0.191,0.708,0.387,1.083,0.587c2.922,1.566,6.559,3.518,7.708,6.853
				c2.64,7.652-8.721,21.317-10.023,22.852c-0.67,0.787-1.375,1.645-2.11,2.539c-5.073,6.169-11.387,13.848-18.632,14.339
				C87.509,157.591,86.167,157.637,84.848,157.637z M50.125,95.573c-1.805,0-3.198,0.626-4.264,1.913
				c-4.671,5.646-1.578,21.833-0.259,28.745c0.132,0.694,0.263,1.403,0.394,2.123c0.927,5.09,1.979,10.858,5.03,15.033
				c2.305,3.15,6.318,6.14,10.476,7.798c8.065,3.219,15.703,4.782,23.346,4.782h0.001c1.281,0,2.584-0.044,3.876-0.133
				c6.527-0.441,12.587-7.812,17.457-13.732c0.742-0.902,1.452-1.767,2.128-2.562c4.193-4.929,11.621-15.709,9.718-21.225
				c-0.937-2.718-4.253-4.497-6.919-5.926c-0.381-0.204-0.75-0.402-1.102-0.598c-20.684-11.451-43.058-14.179-53.811-15.489
				c-1.93-0.235-3.453-0.422-4.636-0.61C51.06,95.614,50.577,95.573,50.125,95.573z"/>
		</g>
		<g>
			<path fill="#C3996B" d="M61.733,100.379c-6.601-0.592-14.813-1.665-12.44,0.961c1.104,0.756,2.426,3.843,15.937,8.014
				c4.721,1.455,25.519,8.134,32.433,9.402c1.817,0.334,15.499,2.286,14.268-0.458C108.479,110.597,68.685,101.003,61.733,100.379z"
				/>
			<path fill="#231F20" d="M107.973,120.576L107.973,120.576c-4.101,0-9.619-0.844-10.463-0.998
				c-5.96-1.095-21.892-6.094-29.548-8.496c-1.271-0.397-2.294-0.72-2.979-0.931c-11.528-3.561-14.331-6.34-15.678-7.677
				c-0.206-0.204-0.369-0.366-0.484-0.444l-0.147-0.13c-0.753-0.834-0.699-1.487-0.521-1.89c0.376-0.848,1.496-1.192,3.863-1.192
				c2.074,0,4.886,0.268,7.605,0.525c0.737,0.07,1.472,0.141,2.188,0.204c7.135,0.642,47.179,10.142,50.882,18.409
				c0.226,0.501,0.198,1.009-0.074,1.432C112.077,120.22,110.688,120.576,107.973,120.576z M49.857,100.719
				c0.203,0.153,0.394,0.342,0.624,0.57c1.154,1.146,3.857,3.828,14.994,7.267c0.688,0.212,1.712,0.533,2.987,0.934
				c7.625,2.393,23.491,7.371,29.35,8.446c1.166,0.215,6.454,0.972,10.162,0.972c2.115,0,2.885-0.247,3.142-0.373
				c-3.529-6.961-41.738-16.63-49.456-17.323c-0.719-0.063-1.456-0.135-2.196-0.205c-2.681-0.255-5.453-0.518-7.447-0.518
				c-1.29,0-1.903,0.112-2.184,0.199C49.839,100.698,49.848,100.708,49.857,100.719z"/>
		</g>
		<g>
			<path fill="#5AB1AF" d="M100.976,149.362c-4.011-1.499,0.925-6.444,4.867-7.549c1.685-0.476,1.06,0.737,2.416,1.177
				c0.904,0.293,3.979,1.004,4.979,0.865c2.365-0.329,4.173-1.68,5.306-4.081c1.839-3.899-0.643-6.26-3.585-4.941
				c-1.639,0.734-6.018-2.504-0.606-8.729c1.512-1.739,2.145-1.196,4.061-1.01c4.206,0.411,7.516,2.196,8.982,6.463
				C132.008,144.965,113.549,154.058,100.976,149.362z"/>
			<path fill="#231F20" d="M108.235,151.448c-2.694,0-5.234-0.439-7.552-1.304c-1.834-0.687-2.059-1.96-2.029-2.658
				c0.107-2.537,3.896-5.617,6.963-6.478c1.492-0.421,2.064,0.313,2.351,0.729c0.16,0.233,0.248,0.361,0.546,0.458
				c0.928,0.3,3.772,0.927,4.607,0.833c2.104-0.293,3.673-1.508,4.665-3.61c0.643-1.363,0.729-2.593,0.235-3.37
				c-0.497-0.782-1.584-0.965-2.725-0.454c-0.26,0.116-0.55,0.177-0.862,0.177c-1.247,0-2.538-0.923-3.14-2.243
				c-0.579-1.27-1.033-3.992,2.424-7.972c0.942-1.083,1.737-1.525,2.747-1.525c0.362,0,0.713,0.054,1.12,0.114
				c0.268,0.041,0.564,0.086,0.903,0.118c4.996,0.489,8.258,2.853,9.691,7.021c1.436,4.169,0.86,8.241-1.662,11.776
				C122.942,148.077,115.594,151.448,108.235,151.448z M106.465,142.51c-0.031,0.029-0.158,0.039-0.396,0.106
				c-2.618,0.733-5.68,3.365-5.746,4.939c-0.008,0.196-0.027,0.659,0.945,1.023c2.129,0.795,4.474,1.197,6.968,1.197
				c6.846,0,13.647-3.089,16.928-7.688c2.194-3.076,2.693-6.626,1.441-10.264c-1.22-3.547-3.927-5.478-8.274-5.904
				c-0.371-0.036-0.696-0.084-0.99-0.129c-0.34-0.051-0.634-0.095-0.872-0.095c-0.361,0-0.722,0.071-1.487,0.951
				c-2.078,2.391-2.867,4.645-2.166,6.184c0.375,0.822,1.115,1.268,1.621,1.268c0.1,0,0.155-0.02,0.181-0.03
				c1.903-0.853,3.882-0.391,4.816,1.083c0.806,1.271,0.756,3.085-0.136,4.976c-1.229,2.608-3.285,4.183-5.945,4.553
				c-1.141,0.157-4.427-0.6-5.352-0.897c-0.84-0.271-1.196-0.792-1.409-1.103C106.549,142.619,106.49,142.534,106.465,142.51z"/>
		</g>
		<path fill="#603813" d="M65.374,108.439c5.866,2.279,28.414,9.164,32.886,9.496c1.577,0.116,14.398,2.243,12.509-0.251
			c-1.366-1.8-6.459-4.286-11.554-6.395c-4.868-0.441-10.162-2.076-15.649-1.782C80.69,109.663,68.083,108.09,65.374,108.439z"/>
		<path fill="#603813" d="M104.445,101.84c1-4.136-2.871-6.134-3.018-9.44c-0.11-2.473,0.977-6.413,4.739-4.28
			C109,89.727,107.954,97.413,104.445,101.84z"/>
		<path fill="#804D23" d="M82.757,109.215c7.241,10.436,17.921-13.445,19.873-2.214c0.828,4.766,18.968-8.111,16.434-0.29
			c-1.455,4.491-6.892,11.066-12.695,10.892c-7.961-0.243-15.857-1.776-22.8-5.766c-1.559-0.893-5.93-0.705-7.248-1.982
			C77.058,105.175,82.757,109.215,82.757,109.215z"/>
		<path fill="#603813" d="M119.961,96.062c4.104-1.865,0.04-16.461,7.748-14.173c2.354,1.611,2.981,4.437,1.398,8.146
			C127.392,94.06,119.961,96.062,119.961,96.062z"/>
		<path fill="#C3996B" d="M104.762,110.116c1.629,1.513,4.291-1.278,5.824-1.96c1.615-0.72,5.255-2.317,5.544-1.032
			c0.11,1.151-0.162,2.82-1.11,3.528c-0.582,0.435-0.965,0.148-1.49-0.131c-0.806-0.431-0.75-0.827-1.833-0.777
			c-2.229,0.104-5.72,4.076-6.922,0.616L104.762,110.116z"/>
		<path fill="#C3996B" d="M97.951,108.052c-0.078-0.392,0.805-1.198,1.196-1.22c1.074-0.06,1.31,0.537,1.426,1.079
			c0.134,0.635,0.362,0.903,0.494,1.394c0.111,0.419,0.296,0.614,0.587,0.937c-0.836,0.313-1.641-0.435-1.845-0.947
			c-0.125-0.311-0.558-1.405-0.923-1.446c-0.286-0.034-0.624,0.089-0.854,0.229L97.951,108.052z"/>
		<path fill="#C3996B" d="M127.448,85.875c-0.108-0.47-0.636-2.931,0.87-1.301c0.766,1.08,1.019,2.629-1.236,3.37
			C127.289,88.015,127.597,86.518,127.448,85.875z"/>
	</g>
	<path fill="#468885" d="M46.601,115.485c4.229,3.114,39.935,23.653,59.273,15.375c0,0,7.63-9.229,3.539-8.729
		c-20.639,2.534-55.068-11.056-62.147-20.191C43.452,97.016,44.494,113.933,46.601,115.485z"/>
	<g>
		<path fill="#231F20" d="M128.979,72.827c0.316-1.813,1.765-2.872,3.479-2.572c1.714,0.301,2.667,1.779,2.351,3.592
			c-0.3,1.715-1.657,2.841-3.47,2.522C129.623,76.069,128.679,74.542,128.979,72.827z M131.255,66.158l0.125-1.292
			c0.168-2.696,1.555-5.432,4.518-7.942c2.659-2.211,4.219-3.906,4.604-6.111c0.438-2.498-0.84-4.438-3.918-5.025
			c-1.762-0.309-3.825-0.063-5.212,0.653l-0.637-3.292c1.821-0.894,4.751-1.188,7.349-0.734c5.633,0.985,7.572,4.908,6.922,8.631
			c-0.583,3.331-2.865,5.406-5.704,7.787c-2.601,2.171-3.762,4.188-4.052,6.713l-0.173,1.282L131.255,66.158z"/>
	</g>
</g>
</svg>
