<?xml version="1.0" encoding="utf-8"?>
<!-- Generator: Adobe Illustrator 16.0.0, SVG Export Plug-In . SVG Version: 6.00 Build 0)  -->
<!DOCTYPE svg PUBLIC "-//W3C//DTD SVG 1.1//EN" "http://www.w3.org/Graphics/SVG/1.1/DTD/svg11.dtd">
<svg version="1.1" id="Layer_1" xmlns="http://www.w3.org/2000/svg" xmlns:xlink="http://www.w3.org/1999/xlink" x="0px" y="0px"
	 width="111.354px" height="149.023px" viewBox="0 0 111.354 149.023" enable-background="new 0 0 111.354 149.023"
	 xml:space="preserve">
<g>
	<path fill="#FFFFFF" d="M110.141,121.355c-0.08-15.248,5.482-44.825-7.185-55.096c-6.645-5.385-12.593-2.059-17.812-2.139
		c-0.176-0.483-0.349-0.968-0.5-1.449c4.457-0.563,11.042-1.187,10.501-5.229c-0.351-2.63-6.292-4.555-9.08-5.868
		c-3.555-1.676-7.6-3.538-10.416-6.457c6.228-1.852,17.363-4.656,19.407-12.14c1.144-4.183-0.88-9.348-2.45-12.789
		c-2.021-4.425-1.455-8.685-3.21-13.092c-3.81-9.583-16.617-8.4-23.427-2.715c-8.058,6.729-14.037,21.443-14.037,21.443
		c-4.825,5.703-17.718-2.284-24.375-2.3c-6.375-0.016-16.073,3.83-19.566,9.298c-5.306,8.3,2.82,20.04,7.254,26.965
		c1.834,2.867,4.929,5.274,6.842,8.022C14.336,69.176,7.688,72.3,3.147,80.33c0,0-2.404,12.888-2.721,19.041
		c-0.35,6.819,1.173,15.983-0.046,22.668c-1.898,10.407,3.511,27.26,11.688,26.98c15.208-0.52,44.269-5.21,57.354-3.669
		c21.028,2.478,32.515,4.877,38.152-0.288C114.112,139.071,110.196,131.837,110.141,121.355z"/>
	<path fill="#C3996B" d="M45.219,114.817c1.331-0.31,2.423-1.068,3.807-1.36c1.078-0.228,2.254-0.211,3.312-0.547
		c0.135-2.816-11.472-0.36-13.183,0.423c0.058,0.277,0.246,0.391,0.566,0.34C39.721,113.673,42.69,115.401,45.219,114.817z"/>
	<g>
		<path fill="#8A5D3B" d="M103.193,101.653c0-6.891,0.132-13.907,0.452-20.748c0.134-2.841-0.224-5.508-2.373-7.513
			c-0.732-0.684-4.107-2.523-5.104-2.764c-0.048-0.047-0.106-0.091-0.203-0.127c0.047,0.028,0.075,0.067,0.105,0.104
			c-0.056-0.009-0.102-0.012-0.133-0.004l0.229,0.229c0.001,0.014,0.01,0.024,0.01,0.039c-1.186,2.297,0.488,5.156,1.02,7.214
			c0.791,3.058,0.606,6.505,0.996,9.538c0.831,6.468,0.918,13.237,0.918,19.761c0,6.686-0.624,13.29-0.905,19.657
			c-0.148,3.356-0.213,5.017-1.749,7.804c-0.821,1.485-3.765,6.098-2.979,7.596c4.515,1.043,6.306-1.673,7.943-5.253
			c2.16-4.718,3.076-10.946,3.131-16.298C104.62,114.149,103.193,108.389,103.193,101.653z"/>
		<g>
			<path fill="#C3996B" d="M10.42,94.068c-0.662,6.383-0.354,11.403-0.017,17.851c0.235,4.456-0.677,8.709,0.146,13.793
				c0.686,4.236-1.231,7.792-0.811,11.63c0.646,5.878,7.94,3.436,10.964,3.436c4.172,0,7.669-0.345,11.818-0.002
				c9.095,0.743,18.238,1.331,27.216,0.547c1.987-0.175,4.131-0.377,6.179-0.555c2.047-0.178,3.964-1.164,6.022-1.363
				c2.831-0.272,6.913,0.93,10.111,0.93c3.517,0,7.5,2.673,10.867,1.241c2.673-1.139,5.582-6.719,6.97-10.668
				c1.609-4.581,0.988-12.884,0.987-18.388c-0.002-6.929-1.399-13.179-1.353-20.154c0.036-5.903,0.322-11.326-1.195-17.146
				c-1.468-5.62-6.215-4.554-9.56-3.947c-3.755,0.681-7.879,0.603-11.535,1.878c-3.064,1.07-7.797-0.778-10.935-0.444
				c-6.992,0.738-11.741,4.738-18.827,4.762c-3.632,0.013-6.204-1.883-9.591-3c-3.017-0.992-7.093-0.449-10.185-0.1
				c-5.359,0.61-12.462,0.898-16.083,4.87C9.108,81.984,10.845,89.977,10.42,94.068z"/>
			<path fill="#231F20" d="M90.711,142.686c-1.515,0-3.062-0.438-4.558-0.863c-1.449-0.411-2.818-0.8-4.104-0.8
				c-1.504,0-3.183-0.254-4.806-0.5c-1.944-0.295-3.767-0.575-5.239-0.434c-0.952,0.093-1.876,0.365-2.854,0.655
				c-1.02,0.302-2.071,0.613-3.177,0.709c-1.114,0.097-2.256,0.2-3.386,0.303l-2.791,0.252c-2.886,0.252-5.879,0.374-9.151,0.374
				c-5.734,0-11.416-0.367-18.182-0.921c-1.235-0.102-2.479-0.148-3.91-0.148c-1.259,0-2.494,0.037-3.754,0.073
				c-1.323,0.039-2.672,0.079-4.099,0.079c-0.568,0-1.354,0.102-2.187,0.206c-1.096,0.141-2.337,0.298-3.55,0.298l0,0
				c-3.592,0-5.581-1.531-5.913-4.553c-0.208-1.893,0.123-3.722,0.443-5.49c0.353-1.948,0.718-3.964,0.371-6.104
				c-0.509-3.149-0.368-5.967-0.233-8.691c0.088-1.774,0.172-3.452,0.081-5.176l-0.042-0.809
				c-0.323-6.137-0.579-10.982,0.061-17.149c0.136-1.297,0.041-3.043-0.059-4.891c-0.219-4.071-0.445-8.281,1.428-10.335
				c3.398-3.728,9.658-4.375,14.688-4.896c0.626-0.063,1.236-0.128,1.827-0.194l0.499-0.058c1.691-0.194,3.608-0.414,5.502-0.414
				c1.783,0,3.248,0.197,4.477,0.602c1.127,0.372,2.159,0.823,3.157,1.261c1.999,0.876,3.888,1.705,6.185,1.705
				c3.747-0.013,6.775-1.146,9.98-2.346c2.713-1.016,5.517-2.064,8.808-2.412c1.388-0.148,3.101,0.109,4.745,0.362
				c1.329,0.204,2.703,0.416,3.929,0.416c0.842,0,1.529-0.098,2.105-0.299c2.407-0.839,4.997-1.109,7.502-1.371
				c1.378-0.144,2.803-0.292,4.138-0.534l0.331-0.061c1.154-0.211,2.462-0.451,3.761-0.451c3.34,0,5.387,1.624,6.258,4.964
				c1.354,5.189,1.299,10.031,1.239,15.157c-0.009,0.716-0.017,1.438-0.021,2.167c-0.023,3.515,0.33,6.914,0.673,10.202
				c0.333,3.201,0.678,6.512,0.679,9.948c0.001,1.133,0.027,2.386,0.056,3.699c0.11,5.232,0.236,11.164-1.081,14.916
				c-1.136,3.231-4.132,9.703-7.351,11.074C92.433,142.53,91.624,142.686,90.711,142.686z M72.84,138.673
				c1.413,0,3.039,0.247,4.611,0.485c1.571,0.238,3.198,0.485,4.599,0.485c1.477,0,3.004,0.433,4.479,0.852
				c1.405,0.398,2.858,0.812,4.182,0.812c0.723,0,1.354-0.119,1.937-0.366c2.278-0.972,5.096-6.012,6.589-10.262
				c1.234-3.517,1.106-9.567,1.004-14.431c-0.028-1.325-0.056-2.587-0.056-3.729c-0.001-3.364-0.343-6.64-0.672-9.807
				c-0.347-3.323-0.705-6.763-0.68-10.354c0.004-0.731,0.013-1.455,0.021-2.174c0.059-5.031,0.112-9.783-1.193-14.792
				c-0.71-2.721-2.229-3.934-4.924-3.934c-1.174,0-2.416,0.229-3.513,0.429l-0.333,0.061c-1.387,0.251-2.837,0.403-4.24,0.549
				c-2.427,0.253-4.936,0.516-7.189,1.301c-0.726,0.253-1.563,0.376-2.562,0.376c-1.331,0-2.758-0.219-4.138-0.431
				c-1.627-0.25-3.144-0.487-4.391-0.354c-3.117,0.329-5.838,1.348-8.47,2.333c-3.179,1.188-6.466,2.42-10.43,2.433
				c-2.621,0.001-4.639-0.884-6.772-1.82c-0.97-0.424-1.972-0.862-3.035-1.214c-1.087-0.357-2.41-0.532-4.045-0.532
				c-1.813,0-3.689,0.216-5.346,0.406l-0.5,0.058c-0.595,0.066-1.211,0.131-1.841,0.196c-5.047,0.522-10.767,1.114-13.811,4.453
				c-1.484,1.627-1.265,5.72-1.07,9.331c0.102,1.904,0.199,3.702,0.053,5.107c-0.628,6.06-0.375,10.857-0.055,16.935l0.042,0.809
				c0.094,1.795,0.006,3.586-0.081,5.316c-0.132,2.653-0.269,5.397,0.217,8.402c0.385,2.374-0.002,4.508-0.375,6.569
				c-0.316,1.749-0.616,3.401-0.43,5.096c0.256,2.329,1.614,3.322,4.542,3.322c1.125,0,2.32-0.151,3.376-0.285
				c0.914-0.116,1.703-0.218,2.359-0.218c1.412,0,2.748-0.04,4.058-0.079c1.272-0.037,2.521-0.074,3.795-0.074
				c1.472,0,2.75,0.049,4.023,0.153c6.73,0.551,12.38,0.916,18.067,0.916c3.231,0,6.187-0.12,9.031-0.368l2.786-0.252
				c1.132-0.103,2.274-0.206,3.392-0.304c0.966-0.083,1.907-0.362,2.904-0.657s2.028-0.601,3.112-0.705
				C72.182,138.687,72.505,138.673,72.84,138.673z"/>
		</g>
		<path fill="#A78056" d="M26.116,75.844c7.195-1.455,11.533,2.499,17.913,3.239c3.406,0.395,6.862,1.092,10.275,0
			c3.751-1.201,7.209-3.624,11.106-4.114c3.493-0.438,6.854,0.166,10.276,0.479c3.741,0.341,7.553-0.594,11.241-0.915
			c2.62-0.228,8.951-2.414,9.359,1.642c0.06-0.031,1.068,0.301,0.802,0.482c-0.39,3.92-1.27,6.001-0.442,9.504
			c0.779,3.309,1.177,6.646,1.18,10.209c0.001,1.635-0.082,3.16-0.303,4.695c-0.102,0.705-0.844,1.291-0.953,1.97
			c-0.115,0.726,1.203,1.411,0.671,2.334c-1.309,2.271-6.82,2.386-9.465,2.412c-4.244,0.042-8.265-0.411-12.562-0.604
			c-4.726-0.212-7.762-2.559-12.165-3.332c-7.438-1.306-17.717-0.548-25.114,0.317c-6.976,0.813-17.683,7.262-24.268,2.174
			c-3.139-2.424-1.982-7.314-1.982-11.249c0-3.062-0.084-8.774,0.604-11.788C13.379,78.538,21.018,76.876,26.116,75.844z"/>
		<path fill="#A78056" d="M19.956,109.447c2.059,0.271,4.272-0.096,6.277-0.274c2.479-0.221,4.189-0.863,6.532-1.511
			c1.879-0.521,3.977-0.271,5.871-0.823c4.48-1.309,8.481-2.574,13.283-1.97c2.624,0.333,4.787,1.416,7.198,2.266
			c1.747,0.616,3.644,0.417,5.464,0.71c2.043,0.329,4.266,0.979,6.345,1.296c1.387,0.211,2.33-0.446,3.688-0.269
			c1.62,0.213,3.094,0.793,4.757,0.905c1.304,0.088,3.104,0.436,4.247,0.438c0.925,0.003,1.631-0.403,2.645-0.259
			c4.047,0.582,8.077-0.052,12.031-0.581c0.102,2.354-0.191,4.844-0.165,7.292c0.018,1.439,0.032,2.278-0.297,3.539
			c-0.239,0.91-0.468,1.813-0.475,2.819c-6.973-0.409-14.478,0.41-21.455-1.16c-2.069-0.468-4.46-0.469-6.636-0.487
			c-2.648-0.022-5.209-0.489-7.897-0.151c-2.27,0.287-4.438,1.23-6.735,1.578c-1.789,0.271-3.801,0.104-5.649,0.379
			c-2.698,0.401-5.376,0.992-8.101,0.532c-2.735-0.462-4.707-1.831-7.289-2.58c-2.807-0.813-6.156-1.125-9.144-1.116
			c-3.122,0.007-6.039-0.517-9.1-1.011c-0.434-0.068-3.035-0.354-3.336-0.636c-0.748-0.693-0.329-2.964-0.329-3.948
			c0-1.495-0.484-7.061,2.569-5.286C14.258,109.14,18.131,109.209,19.956,109.447z"/>
		<path fill="#A78056" d="M12.292,120.927c-2.446,1.861,0.002,5.727-0.149,8.729c-0.065,1.282-0.129,2.718,0,3.997
			c0.156,1.577,1.077,2.604,1.529,3.992c1.617,0.707,3.147,0.03,4.863,0.058c1.661,0.024,3.313,0.22,5.047,0.303
			c3.61,0.172,7.163,0.854,10.905,0.744c-0.056-0.252,0.107-0.664,0.068-0.884c1.008-0.23,3.59,0.524,4.553,0.82
			c1.944,0.595,4.182,0.783,6.249,0.979c2.293,0.217,4.701,0.045,6.996,0.154c2.046,0.097,4.227,0.438,6.186,0.299
			c1.098-0.078,2.114-0.442,3.135-0.61c1.12-0.186,2.33-0.018,3.426-0.255c0.871-0.188,1.465-0.742,2.315-0.955
			c0.854-0.21,1.621-0.07,2.495-0.365c3.688-1.243,7.315-0.178,11.041,0.527c1.822,0.343,3.676,0.309,5.438,0.745
			c1.797,0.444,4.116,0.818,5.932,0.115c3.09-1.194,5.834-5.04,6.447-8.089c0.214-1.067,0.575-3.984,0.131-5.055
			c-0.747-1.803-2.813-1.251-4.477-1.66c-3.61-0.894-7.507-1.121-11.34-1.693c-3.546-0.527-8.103-0.235-11.92-0.235
			c-2.087,0-4.211-0.285-6.268-0.149c-3.108,0.206-6.097,1.461-9.23,1.695c-3.952,0.297-8.188,1.117-12.086,0.877
			c-2.138-0.133-4.045-0.932-6.095-1.217c-2.104-0.292-3.799-0.524-5.848-1.163c-5.837-1.818-16.92-2.06-16.775-2.06
			C14.862,120.571,12.389,120.854,12.292,120.927z"/>
		<path fill="#C3996B" d="M13.083,133.559c4.39,0,8.815-0.28,13.2,0.29c1.924,0.249,3.041,1.367,4.886,1.783
			c2.104,0.476,4.423-0.273,6.47-0.425c2.134-0.16,4.127,0.086,5.817,1.298c1.761,1.262,2.302,2.3,4.551,2.562
			c3.161,0.368,9.708-0.257,11.01-3.61c6.417-0.228,12.694,0.383,18.895,0.658c5.167,0.229,11.106,3.65,16.186,2.005
			c0.082-0.383,0.062-0.711-0.057-1.077c-1.558,0.142-3.098-1.2-4.751-1.455c-1.898-0.293-3.423-0.548-5.243-1.059
			c-3.596-1.014-7.344-1.361-11.172-1.361c-3.407-0.002-6.846-0.862-10.021-0.917c-2.791-0.046-8.006,0.664-9.431,2.951
			c-0.522-1.754-1.987-2.673-3.673-2.997c-2.301-0.439-3.322,0.994-5.445,1.466c-1.72,0.384-3.532-0.013-5.089-0.503
			c-1.994-0.627-3.054-0.813-5.218-1.134c-3.679-0.546-7.911-0.413-11.688-1.122c-3.861-0.724-6.53-0.241-10.448,0.533
			c-0.271,1.132-0.569,1.688,0.496,1.933C12.358,133.377,13.374,133.559,13.083,133.559z"/>
		<path fill="#C3996B" d="M12.292,127.954c6.443,0,12.886-1.541,18.859,0.629c2.646,0.961,5.652,0.82,8.299,1.733
			c1.159,0.399,2.012,1.245,3.478,1.167c1.705-0.09,3.344-1.267,5.139-1.262c1.85,0.003,2.707,0.682,4.402,1.191
			c1.764,0.533,2.415-0.048,4.026-0.31c2.846-0.464,6.215-0.104,9.092-0.203c6.619-0.231,12.414,0.957,18.684,2.087
			c2.646,0.479,5.322,1.712,8.041,1.715c2.325,0.004,7.352-1.896,2.431-2.442c-2.867-0.319-5.007-0.849-7.932-0.906
			c-3.133-0.063-5.579-1.753-8.548-2.063c-5.943-0.624-12.179-0.203-18.196-0.203c-3.092,0-5.875,0.763-8.955,0.463
			c-2.612-0.249-5.229-0.729-7.938-0.474c-3.055,0.288-5.075,0.575-7.982-0.625c-1.229-0.509-2.563-0.604-3.813-1.118
			c-1.163-0.477-2.412-1.727-3.487-1.999c-2.192-0.555-5.9,0.527-8.337,0.578c-2.601,0.055-4.992,0.612-7.685,0.702
			C11.621,127.455,12.292,127.954,12.292,127.954z"/>
		<path fill="#C3996B" d="M14.333,110.272c6.593,1.816,14.104,0.629,20.729-0.579c5.767-1.054,12.313-3.678,18.354-2.604
			c1.482,0.264,2.705,1.074,4.093,1.535c1.751,0.579,3.531,0.933,5.316,1.537c3.639,1.234,6.953,1.562,10.6,2.146
			c3.338,0.536,6.836,0.93,10.139,1.265c3.629,0.366,7.142,0.122,10.626-0.938c0.862-0.263,1.15-0.201,1.872-0.773
			c2.19,3.194-3.676,3.519-5.416,3.625c-2.992,0.185-5.98,0.751-9.036,0.455c-2.78-0.271-5.69-0.341-8.57-0.681
			c-3.559-0.418-6.021-0.285-9.768,0.807c-5.137,1.5-9.847,4.438-15.622,4.635c-2.328,0.078-6.325,0.65-8.508-0.166
			c-2.184-0.818-4.793-2.67-6.743-3.914c-1.627-1.04-2.738-2.23-4.781-2.505c-2.243-0.299-4.343,0.482-6.554,0.47
			c-1.545-0.009-4.65,0.037-5.944-0.794C13.949,113.04,14.333,110.272,14.333,110.272z"/>
		<path fill="#C3996B" d="M31.428,80.521c2.681,0.578,4.903,1.964,7.442,2.715c2.958,0.875,5.802,0.741,8.929,0.741
			c3.402,0,5.736-0.555,8.978-1.423c3.845-1.027,7.98-0.604,11.79-1.522c3.101-0.748,5.958-0.907,9.229-0.907
			c4.062-0.002,8.524-0.378,12.539-1.032c0.834-0.137,2.899-1.07,3.569-0.784c2.786,1.188-1.344,3.603-2.775,3.855
			c-6.152,1.099-12.821,0.058-18.768,1.917c-3.229,1.012-6.558,0.69-9.781,1.666c-3.743,1.13-6.688,2.021-10.753,1.857
			c-2.476-0.098-4.849-0.155-7.008-0.964c-1.064-0.399-1.983-0.922-3.179-1.183c-1.412-0.308-3.353-0.246-4.938-0.625
			c-3.7-0.886-7.262-2.268-11.316-2.222c-2.222,0.024-4.015,1.351-6.089,2.047c-1.019,0.341-1.072,0.82-2.179,0.454
			c-4.013-1.333,2.433-4.329,3.824-4.703C24.312,79.506,28.052,79.794,31.428,80.521z"/>
		<path fill="#C3996B" d="M13.426,88.737c2.986,1.419,6.989,0.114,9.928-0.832c2.938-0.945,5.72-1.208,8.933-1.208
			c1.629,0,3.597-0.34,5.172-0.022c1.054,0.211,2.233,1.177,3.271,1.547c2.838,1.009,6.053,1.085,9.094,1.195
			c5.835,0.215,11.717,0.608,17.096-0.503c5.642-1.165,10.875-1.573,16.785-1.99c3.453-0.243,6.796-0.785,10.387-0.657
			c0.233,0.431,0.353,0.994,0.266,1.479c-3.518,0.47-7.507,0.714-11.061,0.551c-3.343-0.151-7.237-0.991-10.301,0.651
			c-5.396,2.893-12.368,2.011-18.521,2.295c-6.353,0.297-12.704,0.231-19.005,0.217c-3.561-0.009-6.369,1.83-9.81,2.267
			c-3.18,0.402-5.424-0.879-8.222-1.995c-1.437-0.571-5.094-0.414-4.898-2.686c0.441-0.21-0.009-0.362,0.441-0.21L13.426,88.737z"/>
		<path fill="#C3996B" d="M15.693,96.671c4.152,0.458,7.896,1.281,12.26,0.691c4.458-0.604,8.596-1.123,13.06-1.371
			c3.64-0.204,7.673-0.512,11.294-1.123c1.83-0.31,3.469-1.083,5.325-1.32c1.653-0.209,3.347,0.125,4.999-0.039
			c5.904-0.592,11.495,1.181,17.396,1.123c2.629-0.024,5.027-0.454,7.695-0.454c3.348,0,7.799-1.154,8.444,1.856
			c0.703,3.278-2.091,3.496-5.938,2.959c-2.857-0.396-5.526-1.197-8.561-1.188c-1.933,0.006-3.4,0.119-4.811,0.691
			c-1.6,0.652-2.642,1.27-4.546,1.358c-3.631,0.175-7.083,0.401-10.874,0.217c-6.818-0.333-13.719-0.259-20.585-0.228
			c-2.024,0.009-3.928-0.636-5.91-0.465c-1.882,0.161-3.684,0.961-5.53,1.243c-3.243,0.5-6.573,0.921-10.026,1.084
			c-2.692,0.128-7.287-0.165-7.318-3.96c-0.038-4.4,1.594-1.032,3.231-1.105L15.693,96.671z"/>
		<path fill="#C3996B" d="M77.906,104.44c2.515,0.372,5.243-0.276,7.748,0.154c1.856,0.317,2.962,1.563,5.069,1.143
			c2.144-0.427,4.345-1.224,1.815-3.244c-2.81-2.244-8.49-0.834-12.01-0.834c-1.693,0-3.459-0.078-5.03,0.239
			c-1.234,0.249-6.048,0.508-5.39,1.546c0.44,0.688,1.655,0.02,2.48,0.028C72.59,103.473,75.583,104.098,77.906,104.44z"/>
		<path fill="none" d="M10.42,94.068c-0.662,6.383-0.354,11.403-0.017,17.851c0.235,4.456-0.677,8.709,0.146,13.793
			c0.686,4.236-1.231,7.792-0.811,11.63c0.646,5.878,7.94,3.436,10.964,3.436c4.172,0,7.669-0.345,11.818-0.002
			c9.095,0.743,18.238,1.331,27.216,0.547c1.987-0.175,4.131-0.377,6.179-0.555c2.047-0.178,3.964-1.164,6.022-1.363
			c2.831-0.272,6.913,0.93,10.111,0.93c3.517,0,7.5,2.673,10.867,1.241c2.673-1.139,5.582-6.719,6.97-10.668
			c1.609-4.581,0.988-12.884,0.987-18.388c-0.002-6.929-1.399-13.179-1.353-20.154c0.036-5.903,0.322-11.326-1.195-17.146
			c-1.468-5.62-6.215-4.554-9.56-3.947c-3.755,0.681-7.879,0.603-11.535,1.878c-3.064,1.07-7.797-0.778-10.935-0.444
			c-6.992,0.738-11.741,4.738-18.827,4.762c-3.632,0.013-6.204-1.883-9.591-3c-3.017-0.992-7.093-0.449-10.185-0.1
			c-5.359,0.61-12.462,0.898-16.083,4.87C9.108,81.984,10.845,89.977,10.42,94.068z"/>
	</g>
	<g>
		<path fill="#8A5D3B" d="M27.943,75.187c-3.523,2.739-8.646,9.472-8.646,9.472l5.504,1.589l0.859,7.478
			c6.591-1.654,24.347-10.375,22.058-14.975C37.764,75.091,37.217,73.74,27.943,75.187z"/>
		<path fill="#8A5D3B" d="M92.249,79.554c0,0-4.941-6.188-7.164-7.012c-7.267,0.414-6.63,1.738-10.272,1.687
			c-4.081-0.806-8.144-0.986-9.181-0.731c-0.604,1.075,7,4.57,7,4.57s10.113,11.224,12.413,10.304s0-6.375,0-6.375L92.249,79.554z"
			/>
	</g>
	<path fill="#231F20" d="M74.696,82.828c3.097-0.144,5.643,4.015,5.603,5.972c-0.083,3.96-2.094,5.35-5.833,5.498
		c-4.634,0.188-6.686-6.166-4.706-9.645C71.165,82.185,74.696,82.828,74.696,82.828z"/>
	<path fill="#231F20" d="M37.364,86.09c4.23-0.144,4.549,2.007,4.492,3.962c-0.113,3.96-2.862,5.35-7.973,5.499
		c-6.337,0.187-6.58-1.958-3.874-5.438C31.932,87.646,37.364,86.09,37.364,86.09z"/>
	<g>
		<g>
			<path fill="#BE1E2D" d="M30.082,90.955c0-0.745,13.802-36.165,14.136-37.652c0.203-0.9,4.932-16.75,6.033-17.972
				c1.088-1.21,2.615-1.763,4.119-1.83c0.948-0.044,1.485,0.002,2.277,0.443c0.684,0.384,5.309,7.601,5.993,9.059
				c1.535,3.272,1.873,6.719,2.815,10.154c0.393,1.432,5.036,15.393,5.447,16.497c0.635,1.705,7.187,21.287,7.148,21.807
				c-1.28,0.596-5.692-1.543-6.833-2.978c-0.18-0.224-5.296-14.32-5.589-14.986c-1.159-2.638-5.676-18.521-6.074-19.794
				c-0.218-0.692-2.369-6.56-2.713-8.014c-0.303-1.274-0.332-3.147-0.953-4.313c-0.533-0.993-1.271-2.034-1.818-0.934
				c-0.596,1.199-0.714,3.37-1.021,4.767c-0.299,1.366-4.69,12.985-5.51,15.685c-1.104,3.641-2.15,7.146-3.563,10.801
				c-0.462,1.195-5.515,21.029-6.579,21.693C35.642,94.489,30.432,92.107,30.082,90.955z"/>
			<path fill="#231F20" d="M36.164,94.361c-2.226,0-6.299-1.75-6.742-3.205c-0.021-0.065-0.029-0.133-0.029-0.201
				c0-0.407,0.934-2.958,7.495-20.121c3.046-7.966,6.498-16.995,6.657-17.683c0.034-0.152,4.854-16.798,6.192-18.282
				c1.118-1.244,2.754-1.975,4.602-2.057c1.16-0.058,1.797,0.057,2.646,0.529c0.995,0.561,5.738,8.213,6.281,9.368
				c1.063,2.267,1.573,4.627,2.066,6.91c0.237,1.103,0.484,2.242,0.79,3.355c0.358,1.312,4.973,15.213,5.43,16.438
				c0.073,0.199,7.249,21.271,7.19,22.097c-0.02,0.25-0.172,0.472-0.397,0.577c-0.238,0.11-0.527,0.166-0.861,0.166
				c-2.002,0-5.706-1.96-6.803-3.34c-0.129-0.16-0.174-0.216-3.561-9.424c-0.987-2.685-2.009-5.459-2.12-5.714
				c-0.932-2.119-3.926-12.413-5.365-17.359c-0.383-1.313-0.651-2.237-0.735-2.506c-0.062-0.195-0.279-0.811-0.568-1.624
				c-0.758-2.136-1.903-5.364-2.156-6.437c-0.111-0.466-0.184-0.979-0.261-1.523c-0.138-0.965-0.278-1.963-0.63-2.624
				C55,41.175,54.8,40.909,54.678,40.776c-0.344,0.711-0.521,1.91-0.679,2.969c-0.087,0.582-0.171,1.141-0.274,1.613
				c-0.155,0.711-1.154,3.484-2.78,7.969c-1.16,3.199-2.359,6.506-2.742,7.767l-0.175,0.572c-1.059,3.492-2.058,6.791-3.403,10.277
				c-0.117,0.304-0.652,2.27-1.272,4.545c-3.929,14.43-4.897,17.056-5.585,17.484C37.355,94.23,36.816,94.361,36.164,94.361z
				 M30.817,90.865c0.541,0.633,3.359,2.116,5.348,2.116c0.42,0,0.668-0.072,0.812-0.146c0.816-1.18,3.666-11.646,5.045-16.709
				c0.771-2.833,1.181-4.327,1.316-4.681c1.328-3.438,2.32-6.713,3.371-10.18l0.174-0.572c0.394-1.296,1.6-4.621,2.766-7.837
				c1.211-3.337,2.583-7.12,2.73-7.794c0.099-0.446,0.176-0.974,0.257-1.521c0.184-1.23,0.372-2.503,0.82-3.406
				c0.351-0.705,0.823-0.854,1.158-0.854c0.824,0,1.416,0.894,1.886,1.769c0.468,0.876,0.627,1.997,0.779,3.081
				c0.072,0.512,0.142,0.995,0.236,1.398c0.237,1.001,1.412,4.313,2.115,6.294c0.297,0.836,0.521,1.471,0.585,1.672
				c0.085,0.272,0.356,1.206,0.743,2.534c1.432,4.918,4.409,15.153,5.305,17.188c0.123,0.279,0.897,2.384,2.151,5.793
				c1.316,3.581,3.106,8.448,3.389,9.094c0.865,1.013,3.781,2.563,5.384,2.749c-1.054-3.562-6.282-19.221-6.929-20.96
				c-0.486-1.303-5.083-15.154-5.467-16.556c-0.315-1.149-0.566-2.309-0.809-3.429c-0.5-2.31-0.971-4.491-1.968-6.615
				c-0.678-1.441-5.046-8.208-5.747-8.776c-0.566-0.312-1.003-0.365-1.867-0.329c-1.478,0.065-2.769,0.635-3.639,1.603
				c-0.919,1.085-5.554,16.247-5.873,17.662c-0.158,0.705-2.643,7.222-6.715,17.873C35.11,79.344,31.333,89.225,30.817,90.865z"/>
		</g>
		<path fill="#77111A" d="M58.849,49.71c0,0,7.665,17.093,10.501,17.706c-0.767-3.334-5.061-15.211-5.251-16.977
			c-0.19-1.765-3.794-4.715-3.794-4.715L58.849,49.71z"/>
	</g>
	<g>
		<g>
			<g>
				<path fill="#BE1E2D" d="M67.726,10.642c3.293-2.777,7.029-7.289,12.202-5.55c5.151,1.733,4.467,7.582,5.83,12.255
					c3.151,10.805,6.67,18.54-7.252,21.443c-4.408,0.92-10.48,2.859-15.345,1.659c-2.608-0.646-11.544-4.396-11.707-6.884
					C51.455,33.566,61.75,15.687,67.726,10.642z"/>
				<path fill="#231F20" d="M66.588,41.521c-1.324,0-2.499-0.131-3.592-0.4c-1.701-0.421-12.019-4.266-12.23-7.509l-0.014-0.208
					l0.104-0.181C51.279,32.489,61.28,15.18,67.28,10.115c0.489-0.412,0.987-0.863,1.499-1.325c2.476-2.238,5.28-4.773,8.853-4.773
					c0.833,0,1.68,0.143,2.517,0.424c4.226,1.421,4.88,5.306,5.515,9.063c0.207,1.228,0.421,2.495,0.759,3.651
					c0.233,0.805,0.472,1.592,0.703,2.362c1.766,5.875,3.29,10.947,1.065,14.687c-1.517,2.549-4.549,4.222-9.543,5.264
					c-0.79,0.165-1.635,0.363-2.517,0.57C73.163,40.732,69.798,41.521,66.588,41.521z M52.177,33.695
					c0.574,1.792,7.906,5.282,11.15,6.085c0.969,0.239,2.065,0.36,3.261,0.36c3.051,0,6.332-0.771,9.227-1.448
					c0.895-0.209,1.749-0.41,2.552-0.577c4.524-0.944,7.352-2.455,8.639-4.618c1.914-3.218,0.539-7.793-1.202-13.585
					c-0.232-0.772-0.471-1.563-0.706-2.373c-0.36-1.233-0.581-2.543-0.795-3.809c-0.618-3.663-1.151-6.827-4.593-7.985
					c-0.695-0.234-1.395-0.353-2.077-0.353c-3.04,0-5.636,2.348-7.927,4.418c-0.523,0.474-1.034,0.935-1.534,1.355
					C62.705,15.783,53.367,31.654,52.177,33.695z"/>
			</g>
			<path fill="#77111A" d="M69.472,12.717c-3.248,3.632-4.892,6.705-6.501,11.616v0.619c3.094-3.765,14.781-9.282,15.307-14.989
				C78.915,3.045,71.493,10.46,69.472,12.717z"/>
			<g>
				<path fill="#77111A" d="M49.164,36.281c0.991,6.178-5.48,16.441-8.502,21.643c-3.007,5.171-9.702,10.054-11.723,15.712
					c3.609,0.197,10.296-3.504,12.952-5.793c0.36,5.277-0.022,10.696,0.186,15.998c5.714-0.388,9.784-17.286,11.382-22.146
					c2.968-9.035,3.648-15.094,2.968-23.529c5.219-7.51-2.889-15.397-6.667-1.885C49.719,36.424,49.164,36.281,49.164,36.281z"/>
				<path fill="#231F20" d="M41.416,84.577l-0.028-0.709c-0.093-2.366-0.068-4.786-0.045-7.126c0.025-2.484,0.052-5.041-0.063-7.542
					c-3.027,2.206-8.819,5.308-12.377,5.125l-0.922-0.051l0.312-0.87c1.21-3.392,3.996-6.471,6.689-9.448
					c1.979-2.186,3.849-4.251,5.084-6.378l0.844-1.437c3.157-5.365,8.442-14.344,7.574-19.75l-0.167-1.035l0.927,0.232
					c1.974-6.607,4.794-7.336,5.936-7.336c1.225,0,2.313,0.735,2.981,2.017c0.891,1.705,1.141,4.824-1.025,8.084
					c0.668,8.563-0.13,14.759-3.02,23.558c-0.229,0.692-0.506,1.629-0.831,2.729c-2.801,9.446-6.201,19.553-11.159,19.89
					L41.416,84.577z M42.487,66.42l0.095,1.376c0.202,2.967,0.172,6.014,0.142,8.96c-0.021,2.055-0.042,4.17,0.018,6.244
					c4.104-1.483,7.527-13.04,9.222-18.753c0.33-1.115,0.612-2.064,0.843-2.767c2.889-8.796,3.63-14.665,2.937-23.258l-0.021-0.247
					l0.141-0.203c1.966-2.827,1.809-5.465,1.076-6.864c-0.424-0.811-1.064-1.276-1.759-1.276c-1.374,0-3.345,1.795-4.754,6.834
					c-0.057,0.202-0.212,0.414-0.489,0.513c0.378,5.905-4.729,14.582-7.838,19.86L41.26,58.27c-1.31,2.252-3.314,4.468-5.254,6.61
					c-2.336,2.581-4.743,5.241-6.021,8.023c3.511-0.422,9.039-3.5,11.459-5.584L42.487,66.42z"/>
			</g>
			<g>
				<g>
					<path fill="#BE1E2D" d="M25.245,32.15c-4.281,0.479-10.127,0.088-12.422,5.04c-2.285,4.931,2.432,8.455,4.886,12.658
						c5.676,9.722,8.869,17.597,20.553,9.487c3.7-2.567,9.284-5.641,11.759-9.996c1.326-2.338,4.75-11.404,3.058-13.231
						C53.077,36.108,33.018,31.281,25.245,32.15z"/>
					<path fill="#231F20" d="M29.945,63.393L29.945,63.393c-5.264,0-8.199-5.125-11.601-11.061
						c-0.399-0.698-0.809-1.412-1.231-2.137c-0.607-1.041-1.382-2.069-2.13-3.063c-2.291-3.043-4.659-6.189-2.786-10.232
						c2.121-4.577,7.034-4.956,10.982-5.26c0.688-0.054,1.354-0.104,1.989-0.176c0.646-0.071,1.397-0.108,2.234-0.108
						c8.772,0,25.143,3.915,25.834,4.082l0.203,0.049l0.143,0.153c2.209,2.383-2.099,12.517-2.963,14.042
						c-2.108,3.712-6.382,6.523-9.814,8.782c-0.759,0.499-1.485,0.979-2.15,1.439C35.271,62.251,32.422,63.393,29.945,63.393z
						 M27.404,32.735c-0.785,0-1.485,0.034-2.083,0.101c-0.647,0.073-1.333,0.125-2.034,0.181c-3.961,0.306-8.057,0.621-9.837,4.465
						c-1.526,3.293,0.401,5.855,2.637,8.824c0.771,1.024,1.569,2.086,2.219,3.196c0.425,0.729,0.836,1.445,1.237,2.146
						c3.317,5.792,5.938,10.367,10.402,10.367c2.188,0,4.778-1.062,7.924-3.244c0.675-0.469,1.409-0.952,2.179-1.458
						c3.481-2.292,7.429-4.89,9.374-8.313c1.647-2.907,4.16-10.63,3.253-12.277C50.577,36.229,35.445,32.735,27.404,32.735z"/>
				</g>
				<g>
					<path fill="#77111A" d="M42.881,36.811c-5.904,0.426-20.172,8.276-25.851,4.718c-6.885-4.315,5.786-6.501,9.454-6.922
						c5.899-0.681,10.026-0.133,15.823,1.759L42.881,36.811z"/>
					<path fill="#231F20" d="M20.929,43.142c-1.765,0-3.16-0.337-4.264-1.029c-1.783-1.118-2.554-2.275-2.289-3.441
						c0.746-3.293,10.151-4.534,12.029-4.751c1.662-0.19,3.164-0.283,4.593-0.283c3.674,0,7.013,0.601,11.523,2.072l0.21,0.111
						l1.99,1.548l-1.792,0.129c-1.978,0.144-5.084,1.207-8.374,2.333C30.029,41.383,24.896,43.142,20.929,43.142z M30.999,35.016
						c-1.375,0-2.825,0.09-4.435,0.274c-5.051,0.58-10.486,2.117-10.843,3.686c-0.117,0.518,0.479,1.216,1.676,1.967
						c0.866,0.542,2.055,0.817,3.531,0.817c3.737,0,8.755-1.719,13.182-3.234c2.394-0.82,4.563-1.563,6.387-2.005
						C36.916,35.46,34.073,35.016,30.999,35.016z"/>
				</g>
			</g>
			<g>
				<path fill="#BE1E2D" d="M61.118,36.952c0.928,4.616,10.252,10.741,13.748,13.612c3.478,2.854,9.474,4.535,12.386,7.992
					c-2.488,1.087-8.17,0.236-10.643-0.679c1.138,3.813,2.832,7.533,4.08,11.323c-4.123,1.229-12.86-9.047-15.498-11.849
					c-4.648-4.941-7.644-10.533-10.729-16.522c-4.328-10.19,4.572-5.334,4.536-5.435L61.118,36.952z"/>
				<path fill="#231F20" d="M79.956,69.994c-4.149,0-10.69-7.165-14.205-11.015c-0.417-0.456-0.775-0.85-1.062-1.153
					c-4.599-4.887-7.512-10.218-10.842-16.679c-1.347-3.167-1.604-5.268-0.813-6.465c0.314-0.478,0.959-1.045,2.233-1.045
					c1.338,0,2.816,0.599,3.813,1.049l0.322,0.154l2.337,1.715l0.053,0.262c0.696,3.469,6.846,8.125,10.915,11.207
					c1.015,0.769,1.914,1.449,2.594,2.008c1.417,1.163,3.269,2.124,5.229,3.14c2.693,1.398,5.479,2.844,7.246,4.941l0.597,0.707
					l-0.848,0.37c-0.862,0.377-2.077,0.567-3.608,0.567c-2.159,0-4.532-0.376-6.257-0.832c0.555,1.686,1.203,3.37,1.835,5.012
					c0.634,1.647,1.289,3.352,1.849,5.05l0.222,0.674l-0.68,0.203C80.597,69.95,80.284,69.994,79.956,69.994z M55.27,35.017
					c-0.801,0-1.014,0.32-1.083,0.426c-0.288,0.435-0.552,1.677,0.909,5.119c3.259,6.316,6.123,11.563,10.598,16.318
					c0.29,0.309,0.653,0.706,1.075,1.168c2.834,3.104,9.402,10.299,12.991,10.559c-0.484-1.4-1.025-2.808-1.552-4.174
					c-0.796-2.069-1.62-4.209-2.261-6.356l-0.395-1.324l1.295,0.479c1.5,0.555,4.487,1.146,7.069,1.146
					c0.786,0,1.479-0.055,2.054-0.163c-1.604-1.499-3.872-2.676-6.076-3.818c-1.937-1.005-3.938-2.043-5.468-3.298
					c-0.669-0.55-1.554-1.22-2.552-1.976c-4.389-3.322-10.36-7.845-11.373-11.766l-1.833-1.345
					c-0.045-0.021-0.097-0.043-0.156-0.069C58.007,35.713,56.465,35.017,55.27,35.017z"/>
			</g>
			<g>
				<path fill="#BE1E2D" d="M55.167,28.08c-3.723,1.146-8.127,6.959-4.085,11.032c3.053,3.079,9.94,2.766,10.035-2.16
					c-2.496-1.137-4.592-6.414-2.339-7.908c1.155,2.569,1.472,5.044,2.966,7.365C67.831,34.866,61.356,26.173,55.167,28.08z"/>
				<path fill="#231F20" d="M56.195,41.796c-2.144,0-4.236-0.82-5.603-2.197c-1.596-1.609-2.153-3.607-1.609-5.777
					c0.705-2.816,3.276-5.567,5.981-6.4c0.651-0.201,1.331-0.303,2.019-0.303c3.993,0,7.505,3.326,7.861,6.188
					c0.229,1.839-0.865,3.249-2.93,3.771l-0.111,0.028C61.665,40.344,58.904,41.796,56.195,41.796z M56.983,28.498
					c-0.55,0-1.093,0.081-1.611,0.241c-1.968,0.604-4.395,2.797-5.051,5.417c-0.426,1.701-0.005,3.205,1.251,4.471
					c1.096,1.104,2.866,1.79,4.623,1.79c1.903,0,3.945-0.814,4.206-3.066c-1.778-1.1-3.097-3.737-3.254-5.723
					c-0.104-1.312,0.265-2.365,1.039-3.002C57.791,28.543,57.388,28.498,56.983,28.498z M58.603,30.435
					c-0.101,0.356-0.106,0.749-0.081,1.083c0.12,1.504,1.008,3.256,2.048,4.226c-0.587-1.152-0.969-2.328-1.341-3.475
					C59.034,31.667,58.834,31.052,58.603,30.435z M59.542,29.065c0.404,0.949,0.706,1.877,0.999,2.777
					c0.426,1.312,0.83,2.559,1.514,3.749c1.068-0.398,1.546-1.108,1.42-2.115C63.274,31.86,61.629,29.984,59.542,29.065z"/>
			</g>
		</g>
		<path fill="#77111A" d="M74.986,23.093c-2.617-2.221-10.227,7.648-10.227,7.648S77.604,25.314,74.986,23.093z M75.697,33.527
			c-0.497-2.36-8.973-0.151-8.973-0.151S76.194,35.885,75.697,33.527z M44.42,47.751c1.255,1.783,5.231-6.088,5.231-6.088
			S43.166,45.967,44.42,47.751z M37.602,42.765c1.933,3.357,10.759-3.162,10.759-3.162S35.669,39.406,37.602,42.765z"/>
	</g>
	<path fill="#A78056" d="M33.354,112.13c-0.112,0.124-0.19,0.26-0.206,0.409L33.354,112.13z M33.354,112.13
		C33.354,112.129,33.355,112.129,33.354,112.13c0.01-0.015,0.013-0.028,0.021-0.043L33.354,112.13z M61.171,112.34
		c-5.396-1.269-9.162-5.069-15.152-3.479c-2.216,0.59-4.222,1.474-6.567,1.854c-1.225,0.197-5.158,0.384-6.097,1.413
		c-1.082,1.586,3.888,4.346,5.3,5.007c2.334,1.091,5.738,0.778,8.265,0.22c2.678-0.594,5.068-1.369,7.688-2.271
		C56.281,114.507,62.04,114.684,61.171,112.34z"/>
	<g>
		<path fill="#FFFFFF" d="M15.531,94.724c0.255-0.035,0.638-0.009,1.146,0.082c0.512,0.092,0.857,0.137,1.039,0.137
			c0.072-0.036,0.127-0.019,0.164,0.055c0.035,0.037,0.072,0.055,0.108,0.055l0.109-0.055c0.072-0.036,0.146-0.036,0.219,0
			c0.22,0.146,0.384,0.201,0.492,0.164c0,0.037,0.019,0.082,0.055,0.137c0.035,0.056,0.056,0.118,0.056,0.191
			c0.108,0,0.235,0.036,0.383,0.109c0.145,0.072,0.273,0.108,0.383,0.108c0.035,0.073,0.146,0.146,0.326,0.219
			c0,0.036,0.037,0.092,0.109,0.163c0.037,0,0.108,0.027,0.219,0.082c0.11,0.056,0.182,0.082,0.219,0.082
			c0.183,0.256,0.312,0.384,0.383,0.384c0.328,0.327,0.603,0.511,0.82,0.547c0.145,0.146,0.219,0.255,0.219,0.328h0.109
			c0.108,0,0.227,0.046,0.354,0.136c0.127,0.092,0.228,0.137,0.302,0.137c0.219,0.292,0.346,0.511,0.381,0.656H23.4
			c0.037,0.073,0.119,0.155,0.246,0.246s0.209,0.154,0.246,0.19v0.164c0,0.327,0.127,0.546,0.383,0.655v0.164
			c0.254,0.183,0.384,0.364,0.384,0.547c0,0.036,0,0.073,0,0.109l-0.056,0.108l0.164,0.819v0.164c0,0.073,0.035,0.128,0.109,0.164
			c0.072,0.073,0.127,0.128,0.164,0.164c-0.146,0.4-0.22,0.855-0.22,1.366c0,0.072,0.009,0.183,0.027,0.327
			c0.019,0.146,0.027,0.272,0.027,0.383c0,0.109,0.008,0.229,0.026,0.354c0.019,0.128,0.045,0.273,0.082,0.438
			c0.035,0.164,0.056,0.281,0.056,0.354c0.035,0.401,0.026,0.966-0.027,1.694c-0.054,0.728-0.082,1.202-0.082,1.421
			c0,0.364,0.072,0.691,0.219,0.982c0,0.109-0.01,0.273-0.026,0.492c-0.021,0.22-0.027,0.383-0.027,0.492
			c0,0.036,0.018,0.091,0.055,0.163c0.035,0.074,0.056,0.146,0.056,0.219l-0.056,0.22c0,0.036,0.009,0.081,0.027,0.137
			c0.018,0.055,0.027,0.101,0.027,0.137c-0.037,0-0.056,0.02-0.056,0.055c-0.037,0.073-0.037,0.164,0,0.273
			c0.035,0.109,0.056,0.183,0.056,0.219c-0.037,0.073-0.082,0.146-0.138,0.218c-0.055,0.074-0.082,0.13-0.082,0.164
			c0.183,0.365,0.273,0.584,0.273,0.656c0,0.109-0.021,0.184-0.055,0.219c0,0.036,0,0.102,0,0.191s0.034,0.173,0.108,0.246
			c0,0.073-0.02,0.128-0.055,0.163l0.055,0.108c0,0.074,0.035,0.109,0.109,0.109c-0.037,0.037-0.055,0.092-0.055,0.164
			c0,0.183-0.021,0.292-0.056,0.328c-0.037,0.037-0.055,0.073-0.055,0.108c-0.037,0.073-0.021,0.109,0.055,0.109
			c0.072,0,0.109,0.02,0.109,0.055c-0.037,0.146-0.055,0.328-0.055,0.547c0,0.184,0.034,0.311,0.108,0.383
			c0,0.037-0.027,0.072-0.082,0.108c-0.055,0.037-0.082,0.073-0.082,0.109l0.164,0.164v0.272c0,0.475,0.019,0.766,0.055,0.874
			c0,0.037,0.009,0.056,0.027,0.056s0.027,0.019,0.027,0.055c-0.037,0.109-0.021,0.164,0.055,0.164c0.035,0.037,0.035,0.073,0,0.109
			c-0.037,0.036-0.055,0.072-0.055,0.108c0.035,0.073,0.055,0.2,0.055,0.383c0,0.184,0.035,0.311,0.109,0.384
			c0,0.218,0.018,0.363,0.055,0.437h-0.055c-0.037,0.037-0.056,0.073-0.056,0.109c0.072,0.219,0.474,0.364,1.201,0.438v0.164
			c0.072,0,0.183-0.036,0.328-0.108c0.182,0.108,0.273,0.183,0.273,0.219c0.034,0,0.071-0.02,0.108-0.056
			c0.035-0.035,0.072-0.055,0.109-0.055l0.82,0.328c0.034,0,0.09-0.019,0.163-0.055c0.146,0,0.291,0.072,0.438,0.218
			c0.326,0.109,0.709,0.456,1.146,1.039c0.037,0.036,0.093,0.109,0.164,0.219c0.072,0.11,0.109,0.2,0.109,0.273
			c0,0.437-0.018,0.729-0.055,0.874c0,0.108-0.109,0.328-0.328,0.655c-0.037,0-0.072,0.02-0.109,0.056s-0.072,0.054-0.108,0.054
			l-0.056,0.109c0,0.037-0.018,0.055-0.055,0.055l-0.438,0.328c-0.034,0-0.106,0.037-0.217,0.108
			c-0.108,0.073-0.184,0.109-0.219,0.109c-0.037,0.037-0.129,0.055-0.273,0.055c-0.146,0-0.256,0.019-0.327,0.056
			c-0.22,0.071-0.384,0.108-0.492,0.108c-0.109,0.036-0.256,0.036-0.438,0c-0.182-0.037-0.311-0.037-0.383,0l-0.055,0.056
			l-0.056,0.055c-0.071,0-0.219,0.018-0.438,0.055c-0.219,0.036-0.363,0.056-0.437,0.056h-0.164
			c-0.036-0.037-0.073-0.056-0.108-0.056l-0.055-0.055l-0.22,0.055c-0.108,0-0.256-0.026-0.438-0.082
			c-0.185-0.055-0.293-0.082-0.328-0.082c-0.219-0.037-0.547-0.063-0.984-0.082s-0.729-0.026-0.873-0.026
			c-0.547,0-0.948-0.037-1.203-0.109c-0.036,0-0.092-0.036-0.163-0.108l-0.22,0.055c-0.073,0-0.184-0.027-0.328-0.082
			c-0.146-0.055-0.256-0.082-0.327-0.082c-0.037,0.037-0.056,0.037-0.056,0l-0.055-0.055h-0.055c-0.072,0-0.109,0.019-0.109,0.055
			c-0.072-0.072-0.199-0.127-0.383-0.164c-0.183-0.035-0.291-0.072-0.326-0.109c-0.037,0-0.074-0.026-0.109-0.082
			c-0.037-0.055-0.073-0.082-0.108-0.082c-0.109,0-0.185-0.018-0.22-0.055l-0.711-0.327c-0.219-0.073-0.348-0.128-0.383-0.164
			l-0.055-0.055H17.99c-0.037,0-0.103-0.036-0.191-0.109c-0.092-0.071-0.191-0.108-0.301-0.108c0-0.036-0.109-0.091-0.328-0.164
			c-0.035-0.072-0.117-0.154-0.246-0.246c-0.127-0.09-0.209-0.154-0.246-0.191c-0.035-0.145-0.135-0.309-0.299-0.49
			c-0.164-0.183-0.267-0.311-0.301-0.384c-0.037-0.036-0.074-0.137-0.109-0.301c-0.037-0.164-0.092-0.281-0.164-0.354
			c0-0.109-0.027-0.273-0.082-0.491c-0.055-0.219-0.082-0.383-0.082-0.492c-0.074-0.182-0.108-0.51-0.108-0.983
			c0-0.035-0.021-0.072-0.056-0.108c-0.037-0.036-0.055-0.073-0.055-0.109c0-0.183,0.018-0.272,0.055-0.272
			c-0.074-0.072-0.119-0.2-0.137-0.384c-0.021-0.182-0.064-0.291-0.137-0.327v-0.109c0-0.109-0.027-0.309-0.082-0.601
			c-0.056-0.291-0.082-0.511-0.082-0.656c0-0.254,0.035-0.438,0.108-0.547l-0.164-0.108c0-0.073,0.009-0.146,0.027-0.219
			c0.018-0.073,0.027-0.146,0.027-0.219v-0.056c-0.037-0.036-0.056-0.072-0.056-0.108s0.019-0.092,0.056-0.164l0.055-0.056
			c0-0.036-0.02-0.055-0.055-0.055c-0.037,0-0.056-0.018-0.056-0.055l0.056-0.547l-0.056-0.219v-0.164
			c0-0.438-0.037-0.711-0.108-0.819c0-0.072,0.035-0.146,0.108-0.22c0-0.034-0.026-0.063-0.082-0.082
			c-0.055-0.018-0.063-0.045-0.026-0.081c0-0.072,0.008-0.228,0.026-0.465c0.019-0.235,0.027-0.409,0.027-0.52
			c0-0.219-0.02-0.363-0.055-0.438c-0.037-0.182-0.056-0.455-0.056-0.818c0-0.036-0.02-0.082-0.055-0.138
			c-0.037-0.055-0.055-0.1-0.055-0.137v-0.164c0-0.072-0.027-0.199-0.082-0.383c-0.056-0.182-0.082-0.327-0.082-0.437
			c0-0.036,0.01-0.082,0.026-0.138c0.018-0.055,0.027-0.101,0.027-0.137c-0.072-0.072-0.1-0.182-0.082-0.328
			c0.019-0.146,0.064-0.236,0.137-0.272v-0.056c-0.071,0-0.108-0.035-0.108-0.108c0-0.183-0.01-0.482-0.027-0.901
			c-0.017-0.419-0.026-0.738-0.026-0.956v-0.82c0-0.399,0.036-0.674,0.108-0.818c0-0.036,0-0.102,0-0.191s-0.037-0.155-0.108-0.19
			c0.036-0.109,0.036-0.291,0-0.548c-0.037-0.254-0.019-0.418,0.055-0.491c-0.072-0.072-0.127-0.146-0.164-0.219
			c0-0.036,0-0.108,0-0.219s0.018-0.183,0.055-0.219c-0.108-0.255-0.164-0.583-0.164-0.984v-1.366c0-0.034,0.027-0.063,0.082-0.082
			c0.056-0.018,0.082-0.045,0.082-0.081c0-0.072-0.037-0.146-0.108-0.219c0.146-0.438,0.219-0.747,0.219-0.93
			c0-0.219-0.055-0.4-0.164-0.547c0-0.035,0.01-0.081,0.027-0.136c0.017-0.056,0.026-0.102,0.026-0.138
			c-0.072-0.146-0.108-0.272-0.108-0.383c0-0.036,0.01-0.109,0.026-0.219c0.018-0.11,0.027-0.2,0.027-0.273
			c0-0.036-0.01-0.082-0.027-0.137c-0.017-0.055-0.026-0.1-0.026-0.137c0.108-0.146,0.164-0.291,0.164-0.438
			c0.108-0.146,0.291-0.328,0.547-0.547C15.292,94.942,15.457,94.797,15.531,94.724z"/>
		<path fill="#FFFFFF" d="M44.386,95.599h0.164c0.109,0,0.264,0.026,0.465,0.082c0.201,0.055,0.336,0.082,0.41,0.082
			c0.072,0,0.145,0.009,0.219,0.026c0.072,0.02,0.146,0.027,0.219,0.027h0.656c0.474,0,0.818,0.055,1.037,0.163
			c0.037,0,0.109,0.055,0.219,0.164c0.328,0,0.675,0.146,1.039,0.438c0.22,0,0.455,0.082,0.711,0.246
			c0.254,0.164,0.474,0.246,0.656,0.246c0,0.183,0.127,0.31,0.381,0.383c0.074,0.255,0.129,0.382,0.164,0.382
			c0.109,0.074,0.267,0.237,0.465,0.492c0.201,0.255,0.373,0.419,0.521,0.492c0.072,0.219,0.145,0.347,0.219,0.382
			c0.035,0.037,0.035,0.082,0,0.137c-0.037,0.056-0.055,0.103-0.055,0.138c0.071,0.146,0.199,0.347,0.383,0.602
			c0.182,0.255,0.328,0.456,0.438,0.603c0,0.292-0.02,0.455-0.055,0.49c0,0.037,0.019,0.056,0.055,0.056
			c0.146,0,0.255,0.055,0.328,0.164c0.072,0.108,0.138,0.256,0.191,0.438c0.055,0.184,0.117,0.311,0.191,0.383
			c-0.037,0.073-0.056,0.184-0.056,0.327c0,0.184,0.072,0.401,0.219,0.656c0.146,0.255,0.236,0.419,0.271,0.492
			c0,0.073,0,0.19,0,0.354c0,0.164,0.02,0.283,0.055,0.355c0.037,0.073,0.082,0.137,0.138,0.19c0.055,0.055,0.082,0.102,0.082,0.138
			c0.108,0.655,0.182,1.003,0.219,1.038c0,0.036-0.01,0.118-0.027,0.245c-0.018,0.129-0.027,0.229-0.027,0.302
			c0,0.547,0.093,1.003,0.273,1.365c0,0.438,0.018,0.82,0.055,1.147c0,0.109,0.037,0.265,0.109,0.465
			c0.072,0.201,0.109,0.338,0.109,0.41c0,0.109-0.056,0.219-0.164,0.328c0,0.073,0.01,0.173,0.026,0.3
			c0.019,0.129,0.027,0.229,0.027,0.301c0,0.328-0.055,0.62-0.164,0.875c0.037,0.109,0.055,0.255,0.055,0.438
			c0,0.256-0.018,0.438-0.055,0.547c0,0.073,0.018,0.146,0.055,0.219s0.037,0.146,0,0.219c0,0.036-0.037,0.073-0.108,0.109
			c-0.072,0.036-0.109,0.109-0.109,0.219v0.602c0,0.037,0.019,0.082,0.055,0.137c0.037,0.055,0.056,0.101,0.056,0.137
			c-0.109,0.328-0.164,0.512-0.164,0.547c0,0.146,0.055,0.328,0.164,0.547c0,0.073-0.037,0.146-0.109,0.219
			s-0.108,0.128-0.108,0.164c0.036,0.037,0.055,0.183,0.055,0.438c0,0.109,0.018,0.184,0.055,0.22
			c-0.037,0.035-0.072,0.081-0.108,0.137c-0.037,0.055-0.072,0.101-0.109,0.137c-0.035,0.036-0.072,0.082-0.109,0.136
			c-0.035,0.056-0.09,0.082-0.164,0.082c-0.145,0.656-0.254,1.095-0.325,1.313c-0.037,0-0.093,0.026-0.164,0.082
			c-0.074,0.055-0.146,0.063-0.22,0.026c-0.219,0.364-0.364,0.547-0.438,0.547c-0.037,0.219-0.146,0.42-0.328,0.602
			c-0.037,0.073-0.027,0.128,0.027,0.164c0.054,0.036,0.082,0.073,0.082,0.109c-0.767,0.4-1.494,0.966-2.187,1.693
			c-0.184,0-0.42,0.109-0.711,0.327c-0.109,0-0.238,0.047-0.383,0.137c-0.146,0.093-0.256,0.138-0.328,0.138h-0.328
			c-0.074,0-0.328,0.092-0.766,0.272c-0.363,0.184-0.564,0.292-0.601,0.328c-0.438,0.073-0.729,0.164-0.875,0.273l-0.219-0.056
			c-0.074,0-0.174,0.036-0.301,0.109c-0.129,0.073-0.229,0.109-0.301,0.109h-1.203c-0.437,0.072-0.783,0.107-1.037,0.107h-0.219
			c-0.074,0-0.146-0.035-0.22-0.107c-0.108,0-0.266,0.019-0.465,0.055c-0.201,0.036-0.354,0.054-0.465,0.054
			c-0.4,0-0.691-0.018-0.875-0.054c-0.072,0-0.182-0.02-0.326-0.055c-0.146-0.036-0.272-0.056-0.383-0.056
			c-0.037,0-0.092,0.009-0.164,0.027c-0.074,0.019-0.129,0.027-0.164,0.027c-0.108,0-0.256-0.056-0.438-0.164
			c-0.185-0.109-0.312-0.164-0.384-0.164h-0.219c-0.219,0-0.455-0.092-0.711-0.273c-0.108-0.036-0.236-0.1-0.383-0.19
			c-0.146-0.092-0.236-0.138-0.271-0.138h-0.164c-0.036-0.036-0.108-0.108-0.219-0.219c-0.109-0.11-0.201-0.182-0.272-0.219
			c-0.328-0.219-0.492-0.347-0.492-0.382c-0.402-0.036-0.894-0.273-1.478-0.712c-0.071-0.035-0.164-0.108-0.272-0.219
			c-0.109-0.109-0.199-0.182-0.271-0.219c-0.256-0.254-0.401-0.418-0.438-0.491l-0.438-0.328c0-0.071-0.055-0.153-0.164-0.246
			c-0.108-0.091-0.164-0.19-0.164-0.301l-0.272-0.108c-0.146-0.255-0.338-0.629-0.574-1.12c-0.236-0.492-0.41-0.828-0.52-1.012
			c-0.183-0.363-0.347-0.819-0.492-1.366c-0.107-0.363-0.162-0.564-0.162-0.602l-0.219-0.383c0-0.036-0.056-0.602-0.164-1.694
			c-0.109-0.546-0.164-0.838-0.164-0.874c-0.037-0.146-0.047-0.363-0.027-0.655c0.019-0.291,0.027-0.492,0.027-0.602
			c0-0.073-0.021-0.19-0.055-0.354c-0.037-0.164-0.056-0.282-0.056-0.355c0-0.072,0.019-0.146,0.056-0.219
			c0.034-0.072,0.055-0.127,0.055-0.164c0-0.072-0.01-0.199-0.027-0.383c-0.02-0.183-0.01-0.327,0.027-0.438l0.055-0.219
			c0.035-0.072,0.035-0.164,0-0.273l-0.055-0.219c0.108-0.438,0.182-0.71,0.219-0.818c0.035-0.109,0.055-0.282,0.055-0.521
			c0-0.236,0.019-0.455,0.056-0.656c0.035-0.198,0.108-0.354,0.219-0.464c0-0.399,0.145-0.819,0.436-1.258
			c0.074-0.655,0.257-1.074,0.548-1.257v-0.109c-0.037-0.072-0.056-0.127-0.056-0.164c0.072-0.035,0.146-0.107,0.22-0.218
			c0.072-0.11,0.127-0.164,0.163-0.164c0.035-0.036,0.035-0.073,0-0.109c-0.036-0.035-0.055-0.072-0.055-0.108
			c0.072-0.036,0.137-0.101,0.191-0.191s0.117-0.153,0.19-0.19c0.035-0.255,0.164-0.527,0.383-0.819
			c0.22-0.292,0.347-0.51,0.384-0.656c0.619-0.729,0.946-1.129,0.981-1.202c0.074-0.035,0.349-0.182,0.82-0.438
			c0.072-0.036,0.182-0.118,0.328-0.246c0.145-0.127,0.272-0.209,0.383-0.246c0.035,0,0.1-0.018,0.191-0.055
			c0.09-0.035,0.153-0.056,0.19-0.056c0.035,0,0.164-0.055,0.383-0.162c0.22-0.109,0.4-0.164,0.547-0.164
			c0.035-0.036,0.128-0.138,0.273-0.302s0.291-0.264,0.437-0.301c0.073-0.036,0.256-0.082,0.547-0.137s0.473-0.137,0.547-0.246
			c0.145,0.037,0.399,0.055,0.766,0.055h0.273c0.071,0,0.153-0.036,0.246-0.108c0.09-0.072,0.172-0.109,0.246-0.109
			c0.727-0.182,1.108-0.291,1.146-0.327c0.072,0.036,0.164,0.056,0.273,0.056c0.219,0,0.399-0.073,0.547-0.22
			c0.071-0.036,0.219-0.055,0.438-0.055h0.711C44.113,95.653,44.277,95.635,44.386,95.599z M44.605,98.987
			c-0.035,0.292-0.219,0.528-0.545,0.71v0.272l-0.164,0.109c0,0.146-0.037,0.265-0.108,0.355c-0.074,0.091-0.156,0.19-0.246,0.3
			c-0.092,0.108-0.156,0.201-0.191,0.272c0,0.037,0.019,0.093,0.055,0.164c0.035,0.073,0.056,0.128,0.056,0.164l-0.109,0.056
			c-0.108,0.036-0.184,0.072-0.219,0.108v0.328c0,0.438-0.201,0.929-0.603,1.477v0.219c0,0.108-0.01,0.282-0.026,0.519
			c-0.021,0.238-0.027,0.41-0.027,0.521c0,0.219,0.035,0.438,0.109,0.655c-0.109,0.036-0.164,0.129-0.164,0.273
			c0,0.036,0,0.073,0,0.108c0,0.036-0.037,0.092-0.109,0.164c-0.037,0.108-0.063,0.236-0.082,0.383
			c-0.02,0.146-0.026,0.256-0.026,0.328c0.108,0.108,0.164,0.272,0.164,0.491s-0.074,0.438-0.22,0.655
			c0.072,0.219,0.109,0.383,0.109,0.492c0,0.183-0.037,0.419-0.109,0.71c0,0.037,0.035,0.092,0.109,0.164
			c0.072,0.074,0.09,0.146,0.055,0.219c-0.074,0.219-0.108,0.62-0.108,1.202c0,0.219,0.008,0.557,0.026,1.012
			c0.019,0.456,0.027,0.792,0.027,1.012v0.327c0,0.037,0.018,0.102,0.055,0.191c0.035,0.091,0.056,0.155,0.056,0.191
			c0.071,0.255,0.116,0.619,0.137,1.093c0.018,0.474,0.045,0.802,0.082,0.982l0.164,0.492c0.145,0.547,0.272,0.875,0.383,0.983
			c0.109,0.108,0.309,0.238,0.602,0.383c0.072,0,0.138,0.019,0.191,0.055c0.055,0.037,0.1,0.056,0.137,0.056
			c0.072,0.037,0.146,0.055,0.217,0.055c0.037,0,0.13-0.018,0.273-0.055c0.146-0.036,0.256-0.036,0.328,0
			c0.51-0.363,0.91-0.602,1.203-0.71c0.035-0.073,0.1-0.184,0.19-0.328c0.091-0.146,0.172-0.255,0.246-0.328
			c0.072-0.109,0.154-0.311,0.246-0.603c0.09-0.291,0.154-0.49,0.191-0.601l0.164-0.273c0.035-0.071,0.063-0.163,0.082-0.272
			c0.018-0.109,0.045-0.2,0.08-0.273c0.219-0.328,0.327-0.546,0.327-0.654c0-0.109-0.018-0.184-0.055-0.22
			c0.074-0.108,0.156-0.272,0.246-0.491c0.092-0.22,0.154-0.363,0.191-0.438l-0.056-0.218c0-0.109,0.037-0.237,0.109-0.383
			c0.072-0.146,0.109-0.236,0.109-0.273c0-0.036,0-0.118,0-0.246c0-0.127,0.018-0.227,0.055-0.301c0-0.072,0.018-0.146,0.055-0.219
			c0.037-0.072,0.055-0.127,0.055-0.163v-0.82c0.037-0.182,0.101-0.465,0.191-0.847c0.09-0.383,0.137-0.629,0.137-0.738
			c0.072-0.438,0.009-1.057-0.19-1.858c-0.201-0.801-0.301-1.384-0.301-1.749c-0.109-0.182-0.191-0.481-0.246-0.9
			c-0.056-0.419-0.101-0.685-0.138-0.793c-0.254-0.582-0.383-0.946-0.383-1.093c-0.436-0.766-0.674-1.274-0.709-1.53
			c-0.146-0.072-0.354-0.2-0.629-0.383c-0.272-0.183-0.502-0.31-0.684-0.383C45.152,99.023,44.896,98.987,44.605,98.987z"/>
		<path fill="#FFFFFF" d="M82.535,96.691h0.164c0.399,0,0.639,0.037,0.711,0.108c0.108-0.035,0.291-0.055,0.547-0.055
			c0.145,0,0.346,0.01,0.602,0.027c0.254,0.019,0.418,0.026,0.492,0.026c0.109,0,0.273-0.009,0.49-0.026
			c0.219-0.019,0.383-0.027,0.492-0.027c0.036,0,0.092,0.02,0.163,0.055c0.072,0.037,0.128,0.056,0.164,0.056
			c0.037,0,0.101-0.009,0.191-0.027c0.09-0.018,0.172-0.027,0.246-0.027c0.035,0,0.219,0.011,0.547,0.027
			c0.328,0.02,0.582,0.064,0.766,0.137c0.072,0,0.127-0.019,0.164-0.055h0.109c0.145,0.109,0.309,0.164,0.49,0.164h0.219
			c0.072,0,0.201-0.009,0.383-0.027c0.183-0.018,0.328-0.026,0.438-0.026h0.164c0.071,0,0.254,0.036,0.547,0.108
			c0.473,0.109,0.801,0.273,0.983,0.491c0.035,0.037,0.107,0.129,0.218,0.273c0.108,0.146,0.2,0.256,0.272,0.328
			c0.037,0.036,0.092,0.101,0.164,0.19c0.072,0.092,0.127,0.173,0.164,0.246l0.055,0.655c-0.071,0.4-0.219,0.766-0.438,1.094
			c-0.183,0.255-0.363,0.419-0.545,0.491c-0.074,0.037-0.201,0.074-0.383,0.108c-0.185,0.037-0.312,0.074-0.384,0.109
			c-0.146,0.073-0.293,0.109-0.438,0.109c-0.074,0-0.185-0.036-0.328-0.109c-0.219,0.183-0.639,0.273-1.258,0.273h-1.092
			c-0.146,0-0.402,0.01-0.767,0.026c-0.365,0.02-0.656,0.027-0.875,0.027h-0.383c-0.146-0.036-0.326-0.036-0.545,0
			c-0.109,0-0.246-0.009-0.41-0.027c-0.164-0.018-0.283-0.026-0.354-0.026c-0.074,0-0.175,0.01-0.302,0.026
			c-0.129,0.02-0.229,0.027-0.301,0.027c-0.074,0-0.174-0.009-0.301-0.027c-0.127-0.018-0.209-0.026-0.246-0.026
			c-0.182,0-0.312,0.036-0.383,0.108c0.037,0.073,0.055,0.184,0.055,0.328c-0.219,0.109-0.346,0.183-0.383,0.219
			c0.037,0.036,0.055,0.146,0.055,0.327l-0.055,0.328c0,0.073-0.035,0.146-0.109,0.219c-0.071,0.073-0.108,0.128-0.108,0.164
			c0.037,0.037,0.037,0.073,0,0.109l0.108,0.055c0.037,0,0.056,0.02,0.056,0.055c0.036,0.22,0.063,0.676,0.082,1.366
			c0.02,0.692,0.082,1.202,0.19,1.53c-0.108,0.292-0.182,0.474-0.219,0.547c0.037,0.073,0.092,0.109,0.164,0.109
			c0.074,0,0.108,0.019,0.108,0.055c0,0.292-0.018,0.491-0.055,0.601c0.109,0.184,0.164,0.384,0.164,0.603
			c0,0.255-0.09,0.511-0.273,0.765c0,0.074-0.008,0.156-0.026,0.246c-0.019,0.092-0.027,0.155-0.027,0.191
			c0,0.219,0.021,0.52,0.056,0.901c0.036,0.383,0.055,0.646,0.055,0.792c0,0.184-0.019,0.328-0.055,0.438
			c0.219,0.146,0.399,0.328,0.547,0.546c0.108,0,0.272-0.008,0.491-0.027c0.22-0.018,0.363-0.026,0.438-0.026
			c0.182,0,0.383,0.037,0.602,0.108c0.363-0.071,0.656-0.108,0.873-0.108l0.547,0.055c0.037,0.037,0.146,0.092,0.328,0.164
			c0.183,0.074,0.291,0.146,0.328,0.219h0.219c0.035,0.037,0.164,0.146,0.384,0.328c0.219,0.184,0.399,0.292,0.547,0.328
			c0,0.109,0.072,0.219,0.219,0.328c-0.074,0.073-0.082,0.183-0.027,0.327c0.056,0.146,0.082,0.236,0.082,0.272v0.109l-0.219,0.219
			c0,0.073-0.047,0.184-0.137,0.328c-0.092,0.146-0.137,0.273-0.137,0.383c-0.037,0.036-0.109,0.055-0.22,0.055
			c-0.037,0.146-0.129,0.327-0.272,0.547l-0.767,0.164c-0.071,0-0.182,0.019-0.328,0.055c-0.071,0.073-0.145,0.109-0.219,0.109
			c-0.108,0-0.235-0.019-0.383-0.056c-0.145-0.036-0.271-0.055-0.381-0.055l-0.547,0.055h-0.164c-0.074,0-0.174-0.018-0.301-0.055
			c-0.129-0.036-0.211-0.055-0.246-0.055c-0.109,0-0.185,0.019-0.22,0.055c-0.108,0.109-0.164,0.31-0.164,0.602
			c0,0.036-0.01,0.109-0.026,0.219c-0.021,0.108-0.027,0.2-0.027,0.272c0,0.146,0.019,0.347,0.056,0.603
			c0.034,0.255,0.055,0.438,0.055,0.547v0.601c0.108,0.037,0.399,0.137,0.875,0.301c0.473,0.164,0.801,0.319,0.983,0.466
			c0.072,0,0.128-0.01,0.162-0.027c0.037-0.02,0.074-0.027,0.109-0.027c0.328,0.109,0.711,0.164,1.148,0.164
			c0.327,0,0.745-0.036,1.258-0.108c0.035,0,0.127,0.072,0.272,0.219c0.109,0,0.336-0.027,0.683-0.082
			c0.346-0.055,0.61-0.082,0.793-0.082c0.254,0,0.455,0.055,0.602,0.164c0.035-0.073,0.127-0.082,0.273-0.027
			c0.145,0.055,0.235,0.082,0.272,0.082h0.109c0.035,0.036,0.072,0.073,0.108,0.109l0.109,0.054l0.49,0.164
			c0.146,0.219,0.219,0.401,0.219,0.547c0.037,0.037,0.109,0.102,0.219,0.191c0.11,0.09,0.183,0.154,0.22,0.19
			c0.071,0.073,0.108,0.273,0.108,0.602c0,0.292-0.037,0.491-0.108,0.602l-0.164,0.109c-0.254,0.363-0.474,0.583-0.654,0.655
			l-0.492,0.219h-0.272c-0.109,0-0.238,0.047-0.384,0.137c-0.146,0.092-0.256,0.137-0.327,0.137c-0.074,0-0.146-0.009-0.22-0.026
			c-0.073-0.019-0.129-0.027-0.164-0.027c-0.037,0-0.108,0.055-0.219,0.164c-0.109,0-0.264,0.055-0.465,0.164
			c-0.199,0.108-0.355,0.182-0.465,0.219c-0.072,0-0.236,0.009-0.49,0.027c-0.256,0.018-0.457,0.045-0.602,0.082
			c-0.293,0.071-0.584,0.108-0.875,0.108c-0.22,0-0.365-0.019-0.438-0.055l-0.164,0.055c-0.072,0.036-0.127,0.072-0.164,0.109
			c-0.072-0.037-0.182-0.055-0.328-0.055c-0.071,0-0.182,0.009-0.326,0.026c-0.146,0.019-0.256,0.027-0.327,0.027
			c-0.037,0-0.093,0-0.164,0l-0.056-0.055c-0.037,0-0.092,0.009-0.164,0.026c-0.073,0.019-0.129,0.027-0.164,0.027
			c-0.108,0.035-0.348,0.055-0.711,0.055h-0.766c-0.145,0.072-0.236,0.109-0.273,0.109c-0.108,0.035-0.272,0.055-0.489,0.055
			c-0.328,0-0.566-0.02-0.711-0.055l-0.273,0.164c-0.184,0-0.447,0.018-0.793,0.054s-0.611,0.055-0.793,0.055
			c-0.219,0-0.4-0.019-0.545-0.055c-0.074-0.073-0.273-0.163-0.602-0.271c-0.329-0.109-0.529-0.257-0.603-0.438
			c-0.074,0-0.174-0.055-0.301-0.164c-0.129-0.108-0.246-0.182-0.355-0.219c-0.073-0.219-0.272-0.428-0.602-0.628
			s-0.527-0.337-0.603-0.41c0-0.146-0.071-0.255-0.217-0.328c0-0.072-0.01-0.154-0.026-0.246c-0.021-0.091-0.027-0.154-0.027-0.19
			c-0.146-0.109-0.328-0.31-0.547-0.602c-0.037-0.073-0.037-0.146,0-0.219v-0.055c-0.256-0.328-0.383-0.619-0.383-0.875v-0.109
			c-0.109-0.182-0.201-0.527-0.273-1.038c-0.074-0.51-0.184-0.854-0.328-1.038v-0.108c0-0.072-0.037-0.2-0.108-0.384
			c-0.074-0.182-0.109-0.309-0.109-0.383l0.055-0.219c-0.146-0.254-0.219-0.546-0.219-0.874c0-0.219-0.01-0.473-0.027-0.766
			c-0.018-0.291-0.045-0.618-0.082-0.983c-0.037-0.363-0.055-0.655-0.055-0.874v-1.313c0-0.145,0.018-0.354,0.055-0.628
			c0.037-0.273,0.056-0.465,0.056-0.573c0-0.072-0.011-0.199-0.027-0.384c-0.018-0.182-0.027-0.326-0.027-0.437
			c0-0.183,0.019-0.328,0.056-0.438c-0.037-0.035-0.037-0.055,0-0.055l0.108-0.055c-0.182-1.202-0.272-2.04-0.272-2.515
			c0-0.108,0.037-0.31,0.108-0.602h-0.055c-0.072,0-0.109-0.018-0.109-0.055c0-0.22,0.011-0.574,0.027-1.065
			c0.019-0.492,0.027-0.865,0.027-1.121c0-0.035-0.01-0.107-0.027-0.218c-0.017-0.11-0.027-0.2-0.027-0.273
			c0-0.146,0.056-0.272,0.164-0.383l-0.055-0.055c-0.072,0-0.092-0.036-0.055-0.109c0.108-0.874,0.164-1.729,0.164-2.567
			c0.037-0.036,0.092-0.082,0.164-0.138c0.071-0.055,0.127-0.1,0.164-0.137c-0.037-0.072-0.074-0.091-0.109-0.055
			c-0.037,0.037-0.072,0.037-0.109,0c0-0.22,0.056-0.465,0.164-0.738c0.109-0.272,0.183-0.464,0.22-0.573
			c0.034,0,0.082-0.036,0.137-0.108s0.117-0.109,0.19-0.109c0.072-0.146,0.255-0.318,0.548-0.52c0.291-0.199,0.473-0.373,0.547-0.52
			c0.035,0,0.291-0.055,0.764-0.164c0.219,0,0.365-0.091,0.438-0.272c0.036,0.035,0.092,0.055,0.163,0.055
			c0.072,0,0.191-0.036,0.355-0.109c0.164-0.071,0.264-0.108,0.301-0.108c0.109-0.036,0.273-0.056,0.492-0.056
			s0.438,0.037,0.656,0.109c0.071,0,0.172-0.018,0.299-0.055c0.129-0.036,0.246-0.063,0.354-0.082
			c0.109-0.019,0.22-0.027,0.328-0.027c0.037,0,0.093,0.02,0.164,0.055h0.109c0.072,0,0.182-0.018,0.328-0.055
			c0.145-0.036,0.272-0.055,0.383-0.055l0.219,0.055c0.146,0,0.336-0.018,0.574-0.055c0.236-0.036,0.41-0.056,0.52-0.056h0.164
			L82.535,96.691z"/>
	</g>
	<g>
		<path fill="#FFFFFF" d="M63.706,106.483c2.43-4.974-7.17-11.351-8.727-4.103c-0.572,2.659,1.544,6.706,1.979,9.393
			c0.308,1.88,0.057,6.645,2.235,7.601c4.354,1.91,11.649-8.977,12.571-12.366c0.672-2.458,0.337-6.409-2.939-5.857
			c-2.975,0.5-3.095,4.172-4.444,6.069c-0.424-0.097-0.47-0.059-0.706-0.299L63.706,106.483z"/>
	</g>
</g>
</svg>
