<?xml version="1.0" encoding="utf-8"?>
<!-- Generator: Adobe Illustrator 16.0.0, SVG Export Plug-In . SVG Version: 6.00 Build 0)  -->
<!DOCTYPE svg PUBLIC "-//W3C//DTD SVG 1.1//EN" "http://www.w3.org/Graphics/SVG/1.1/DTD/svg11.dtd">
<svg version="1.1" id="Layer_1" xmlns="http://www.w3.org/2000/svg" xmlns:xlink="http://www.w3.org/1999/xlink" x="0px" y="0px"
	 width="100.334px" height="103.37px" viewBox="0 0 100.334 103.37" enable-background="new 0 0 100.334 103.37"
	 xml:space="preserve">
<path fill="#998282" d="M82.516,66.531c3.163-1.628,6.092-3.748,8.68-6.336c13.518-13.521,13.518-35.52-0.001-49.041
	C84.646,4.606,75.938,1,66.676,1s-17.97,3.606-24.52,10.155c-1.272,1.271-2.429,2.627-3.474,4.05
	c-0.167-0.098-0.33-0.197-0.504-0.29c-1.354-0.725-2.845-1.092-4.434-1.092c-0.721,0-1.462,0.078-2.211,0.235
	c-1.763,0.371-3.265,1.084-4.479,2.123c-0.394,0.325-0.759,0.695-1.088,1.111l-0.078,0.099c-0.496,0.626-0.874,1.308-1.136,2.018
	c-0.529,1.264-0.89,2.774-1.135,4.709c-0.23,1.806-0.378,3.977-0.451,6.636c-0.026,0.945-0.039,1.945-0.039,2.995
	c-0.252-0.48-0.362-0.731-0.397-0.818c-0.715-2.384-1.681-4.485-2.874-6.251c-2.028-2.998-4.535-4.701-7.459-5.065
	c-0.528-0.064-1.052-0.098-1.556-0.098c-4.668,0-8.385,2.844-9.469,7.238c-0.595,2.405-0.483,5.499,0.401,10.758
	c0.737,4.113,1.313,7.398,1.731,9.85c0.404,2.38,0.712,4.309,0.914,5.715c0.231,1.641,0.295,2.447,0.312,2.782
	c0.022,0.428,0.012,0.845-0.029,1.238c-0.012,0.113-0.021,0.227-0.028,0.34c-0.296,5.079,0.668,9.045,2.83,11.869
	c-0.061,0.074-0.125,0.139-0.184,0.217c-1.069,1.42-1.407,2.899-1.581,4.029c-0.107,0.695-0.177,1.509-0.219,2.551
	c-0.032,0.786,0.006,1.785-0.025,2.992c-0.033,1.224,0.022,2.684,0.022,4.381v3.091c0,0.959-0.05,1.686-0.005,2.271
	c0.09,1.228,0.298,2.299,0.71,3.273c0.191,0.453,0.404,0.924,0.669,1.399c0.496,0.927,1.134,1.812,1.91,2.625
	c0.713,0.75,1.473,1.396,2.27,1.921c1.099,0.742,1.996,1.211,2.92,1.521c0.911,0.302,1.864,0.449,2.916,0.449
	c0.429,0,0.867-0.024,1.417-0.083c1.206-0.141,2.467-0.468,3.754-0.954c0.53,0.422,1.088,0.808,1.702,1.108
	c1.245,0.614,2.558,0.926,3.902,0.926c1.448,0,2.876-0.373,4.146-1.082c0.294-0.162,0.567-0.338,0.819-0.521
	c0.209,0.236,0.439,0.47,0.693,0.693c1.57,1.395,3.516,2.171,5.627,2.245c0.087,0.003,0.233,0.006,0.32,0.006
	c2.075,0,4.026-0.721,5.575-2.034c0.214,0.016,0.416,0.023,0.597,0.023c1.872,0,3.679-0.66,5.161-1.86
	c1.16,1.688,2.828,2.916,4.786,3.474c0.893,0.267,1.795,0.402,2.685,0.402c2.529,0,4.815-1.082,6.414-2.941
	c0.28,0.044,0.563,0.078,0.85,0.097c0.211,0.014,0.417,0.02,0.616,0.02c2.334,0,4.491-0.887,6.073-2.498
	c0.01-0.01,0.02-0.02,0.029-0.029c1.151,0.412,2.415,0.668,3.783,0.668c0.823,0,1.625-0.081,2.356-0.235
	c0.29-0.06,0.564-0.132,0.827-0.212c0.095,0.07,0.187,0.146,0.283,0.213c0.035,0.023,0.07,0.048,0.105,0.071
	c1.033,0.688,2.198,1.25,3.553,1.717c1.549,0.535,2.966,0.796,4.331,0.796c1.938,0,5.649-0.609,8.744-4.688
	c1.495-1.971,2.601-4.359,3.382-7.302c0.011-0.04,0.021-0.08,0.031-0.121c0.556-2.248,0.738-4.065,0.572-5.72
	c-0.188-1.874-0.98-3.583-2.042-5.035c0.431-0.948,0.518-1.986,0.518-3.05v-0.989c0-1.459-0.141-2.812-0.709-4.042
	c-0.543-1.164-1.29-2.223-2.428-3.235c-1.813-1.613-3.929-2.524-6.212-2.638c-0.113-0.005-0.308-0.01-0.42-0.01
	c-1.745,0-3.498,0.463-5.377,1.416c-0.29,0.146-0.562,0.312-0.825,0.491c-0.002-0.001-0.003-0.002-0.005-0.004
	C82.531,66.914,82.524,66.725,82.516,66.531z"/>
<g>
	<ellipse fill="#FFFFFF" cx="45.8" cy="64.704" rx="23.855" ry="20.698"/>
	<g>
		<path fill="#D94128" d="M30.74,20.867l-0.078,0.099c0.258-0.325,0.721-0.558,1.389-0.698c0.667-0.14,1.221-0.091,1.661,0.148
			c0.815,0.429,1.347,0.923,1.591,1.479c0.244,0.558,0.292,1.433,0.146,2.626c-0.143,1.72-0.258,3.289-0.349,4.709
			c-0.091,1.422-0.123,2.834-0.097,4.241c0.024,1.405,0.104,2.894,0.237,4.463c0.133,1.569,0.317,3.308,0.551,5.217
			c0.255,2.083,0.438,4.057,0.548,5.923c0.11,1.867,0.168,3.547,0.176,5.044c0.007,1.494-0.043,2.766-0.152,3.805
			c-0.108,1.041-0.285,1.753-0.533,2.136c-0.096,0.188-0.381,0.37-0.861,0.546c-0.479,0.177-1.009,0.3-1.589,0.371
			c-3.077,0.377-6.85-1.804-11.317-6.542c-1.078-1.101-2.047-2.024-2.903-2.771c-0.856-0.745-1.373-1.109-1.547-1.088
			c-0.29,0.036-0.435,0.788-0.431,2.255c0.003,1.468,0.028,3.123,0.078,4.967c0.049,1.844,0.059,3.604,0.028,5.281
			c-0.031,1.678-0.192,2.77-0.482,3.275c-0.35,0.513-0.921,0.787-1.711,0.824c-0.791,0.04-1.48-0.17-2.064-0.627
			c-1.562-1.219-2.229-3.779-2.002-7.683c0.081-0.772,0.102-1.567,0.06-2.385c-0.042-0.818-0.167-1.962-0.375-3.435
			c-0.211-1.471-0.525-3.442-0.945-5.917c-0.422-2.473-1.002-5.778-1.743-9.916c-0.647-3.854-0.815-6.419-0.501-7.689
			c0.313-1.271,1.305-1.803,2.976-1.598c0.715,0.089,1.467,0.716,2.256,1.882c0.788,1.166,1.433,2.6,1.937,4.299
			c0.199,0.681,0.711,1.75,1.536,3.203c0.824,1.456,1.792,3.012,2.906,4.664c1.112,1.657,2.251,3.278,3.414,4.867
			c1.163,1.59,2.213,2.856,3.151,3.798c1.832,2.008,3.098,2.998,3.799,2.971c0.23-0.028,0.413-0.096,0.549-0.199
			c0.133-0.104,0.223-0.337,0.267-0.693c0.045-0.357,0.052-0.887,0.026-1.589c-0.028-0.701-0.091-1.691-0.188-2.972
			c-0.257-3.55-0.44-6.874-0.552-9.974c-0.112-3.099-0.136-5.842-0.07-8.228s0.196-4.353,0.395-5.905
			C30.12,22.5,30.393,21.439,30.74,20.867z"/>
	</g>
	<g>
		<path fill="#231F20" d="M20.176,72.688l0.047,0.082c0.277-0.082,0.586-0.137,0.927-0.165c0.339-0.026,0.672-0.041,0.996-0.041
			s0.618,0.021,0.881,0.063c0.262,0.041,0.471,0.103,0.625,0.186c0.216,0.138,0.271,0.329,0.163,0.576
			c-0.109,0.248-0.364,0.522-0.765,0.825c-0.186,0.164-0.541,0.378-1.066,0.639s-1.097,0.529-1.715,0.804s-1.213,0.522-1.784,0.741
			c-0.572,0.221-0.997,0.357-1.274,0.413c-0.371,0.082-0.711,0.288-1.02,0.618c-0.31,0.329-0.564,0.687-0.765,1.071
			c-0.202,0.385-0.317,0.77-0.348,1.154c-0.031,0.385,0.062,0.674,0.277,0.865c0.186,0.165,0.401,0.262,0.649,0.289
			c0.247,0.027,0.726-0.027,1.437-0.165c1.081-0.165,1.854-0.213,2.317-0.145c0.464,0.069,0.695,0.268,0.695,0.598
			c0,0.77-1.144,1.663-3.43,2.679l-1.9,0.825l-0.093,2.391c-0.031,0.55-0.046,0.989-0.046,1.318c0,0.33,0.015,0.598,0.046,0.804
			c0.03,0.206,0.085,0.371,0.162,0.495c0.077,0.123,0.178,0.24,0.302,0.35c0.186,0.165,0.362,0.289,0.533,0.371
			c0.169,0.083,0.386,0.117,0.648,0.104c0.262-0.014,0.603-0.089,1.02-0.227s0.98-0.33,1.691-0.577
			c1.267-0.439,2.186-0.681,2.758-0.722c0.571-0.041,0.98,0.104,1.229,0.433c0.186,0.248,0.062,0.598-0.371,1.052
			c-0.433,0.453-1.02,0.906-1.761,1.359c-0.742,0.454-1.546,0.859-2.41,1.216c-0.865,0.357-1.653,0.577-2.364,0.66
			c-0.525,0.056-0.911,0.041-1.158-0.041c-0.248-0.083-0.634-0.303-1.159-0.66c-0.34-0.22-0.68-0.508-1.02-0.865
			c-0.34-0.356-0.603-0.714-0.787-1.071c-0.155-0.274-0.278-0.522-0.371-0.742s-0.155-0.536-0.186-0.948
			c-0.031-0.412-0.046-0.989-0.046-1.731c0-0.741,0-1.771,0-3.091c0-1.621,0.015-3.016,0.046-4.184
			c0.03-1.168,0.062-2.129,0.093-2.885c0.03-0.756,0.077-1.333,0.139-1.731s0.123-0.639,0.186-0.722
			c0.062-0.082,0.255-0.178,0.579-0.288c0.325-0.109,0.688-0.22,1.09-0.33c0.432-0.109,0.927-0.233,1.482-0.371
			c0.557-0.137,1.12-0.288,1.692-0.453c0.571-0.165,1.127-0.315,1.668-0.453C19.256,72.922,19.743,72.799,20.176,72.688z"/>
		<path fill="#231F20" d="M30.51,72.771l0.093,0.124c0.865-0.687,1.745-0.687,2.643,0c0.092,0.082,0.238,0.323,0.439,0.722
			s0.401,0.838,0.603,1.318c0.201,0.481,0.371,0.941,0.51,1.381c0.14,0.439,0.209,0.756,0.209,0.948c0,0.082,0.046,0.316,0.139,0.7
			c0.093,0.386,0.216,0.812,0.371,1.278c0.247,0.852,0.533,1.841,0.857,2.968s0.648,2.246,0.974,3.358
			c0.324,1.113,0.633,2.15,0.927,3.112c0.293,0.962,0.517,1.689,0.672,2.185c0.154,0.468,0.278,0.955,0.371,1.463
			c0.093,0.509,0.154,0.989,0.185,1.443c0.031,0.453,0.016,0.845-0.046,1.174c-0.063,0.33-0.155,0.563-0.278,0.701
			c-0.247,0.247-0.563,0.364-0.95,0.351s-0.718-0.145-0.996-0.392c-0.124-0.109-0.286-0.364-0.486-0.763
			c-0.201-0.398-0.417-0.887-0.649-1.463c-0.231-0.577-0.472-1.223-0.718-1.938c-0.248-0.715-0.479-1.429-0.695-2.144l-0.557-1.813
			h-0.927c-1.175,0-2.132,0.233-2.873,0.701c-0.742,0.467-1.129,1.085-1.159,1.854c0,0.22-0.077,0.563-0.231,1.03
			c-0.155,0.468-0.332,0.948-0.533,1.442c-0.201,0.495-0.41,0.935-0.626,1.319s-0.387,0.604-0.51,0.659
			c-0.37,0.221-0.78,0.221-1.228,0c-0.448-0.22-0.796-0.577-1.043-1.071c-0.155-0.385-0.24-0.728-0.255-1.03
			c-0.016-0.303,0.054-0.77,0.208-1.401c0.093-0.439,0.255-1.113,0.487-2.021c0.231-0.906,0.493-1.909,0.788-3.009
			c0.293-1.099,0.602-2.211,0.927-3.338c0.324-1.127,0.625-2.144,0.903-3.051c0.216-0.687,0.44-1.448,0.672-2.287
			c0.232-0.838,0.409-1.518,0.533-2.04c0.186-0.715,0.363-1.237,0.533-1.566C29.961,73.348,30.201,73.046,30.51,72.771z
			 M32.781,83.116h-0.047c-0.154-0.604-0.378-1.023-0.672-1.257s-0.518-0.172-0.672,0.186c-0.401,1.071-0.563,1.834-0.486,2.287
			c0.076,0.453,0.424,0.681,1.043,0.681c0.524,0,0.85-0.138,0.973-0.412S32.997,83.831,32.781,83.116z"/>
		<path fill="#231F20" d="M43.441,75.45l-0.093-0.041c0.433-0.33,0.942-0.516,1.529-0.557s1.097,0.062,1.529,0.309
			c0.247,0.138,0.471,0.221,0.672,0.248s0.487,0,0.857-0.083c0.464-0.109,0.98-0.199,1.553-0.268
			c0.571-0.068,1.128-0.117,1.669-0.145c0.54-0.027,1.012-0.034,1.413-0.021s0.649,0.062,0.741,0.145
			c0.433,0.303,0.518,0.741,0.255,1.318s-0.749,1.03-1.46,1.36c-0.247,0.11-0.618,0.213-1.112,0.31s-1.02,0.199-1.575,0.309
			c-0.557,0.11-1.074,0.227-1.553,0.351c-0.479,0.124-0.827,0.241-1.043,0.351c-0.124,0.082-0.225,0.151-0.301,0.206
			c-0.078,0.055-0.14,0.172-0.186,0.35c-0.047,0.18-0.093,0.461-0.139,0.846c-0.047,0.385-0.093,0.935-0.14,1.648
			c-0.046,0.715-0.101,1.628-0.162,2.741c-0.063,1.112-0.124,2.493-0.186,4.142c-0.063,0.907-0.108,1.643-0.139,2.206
			c-0.031,0.563-0.069,1.023-0.116,1.38c-0.046,0.357-0.101,0.619-0.162,0.783c-0.063,0.165-0.139,0.289-0.231,0.371
			c-0.526,0.495-1.082,0.33-1.669-0.494c-0.093-0.138-0.17-0.303-0.231-0.495c-0.063-0.191-0.108-0.48-0.139-0.865
			c-0.031-0.385-0.055-0.907-0.07-1.566s-0.022-1.525-0.022-2.597c0-0.659,0.007-1.325,0.022-1.999
			c0.016-0.673,0.031-1.284,0.047-1.834c0.015-0.55,0.038-1.037,0.069-1.463c0.03-0.426,0.062-0.722,0.093-0.887
			c0.093-0.467,0.131-0.831,0.116-1.092c-0.017-0.261-0.101-0.468-0.255-0.618c-0.155-0.151-0.426-0.248-0.812-0.289
			c-0.387-0.041-0.903-0.062-1.553-0.062c-1.638-0.027-2.711-0.151-3.221-0.371s-0.672-0.646-0.486-1.278
			c0.123-0.412,0.579-0.775,1.367-1.092c0.787-0.315,1.722-0.516,2.804-0.598c0.586-0.055,1.058-0.13,1.413-0.227
			C42.893,75.787,43.193,75.643,43.441,75.45z"/>
		<path fill="#231F20" d="M56.232,73.389l-0.093,0.124c0.247-0.22,0.563-0.315,0.95-0.288c0.386,0.027,0.718,0.179,0.996,0.453
			c0.093,0.11,0.17,0.22,0.231,0.329c0.062,0.11,0.108,0.269,0.14,0.475c0.03,0.206,0.046,0.48,0.046,0.824s0,0.776,0,1.299
			c-0.031,0.687-0.077,1.359-0.139,2.02c-0.063,0.659-0.124,1.112-0.186,1.359c-0.063,0.221-0.108,0.646-0.139,1.278
			c-0.031,0.632-0.055,1.374-0.07,2.226s-0.022,1.752-0.022,2.7c0,0.947,0.015,1.861,0.046,2.74c0.03,0.88,0.062,1.656,0.093,2.329
			c0.03,0.674,0.077,1.147,0.139,1.422c0.247,1.21,0.209,2.109-0.115,2.7s-0.873,0.762-1.646,0.515
			c-0.433-0.109-0.758-0.419-0.974-0.927c-0.216-0.509-0.433-1.436-0.648-2.782c-0.063-0.303-0.101-0.79-0.116-1.464
			c-0.016-0.673-0.031-1.442-0.046-2.308c-0.016-0.866-0.008-1.786,0.023-2.762c0.03-0.976,0.062-1.923,0.093-2.844
			c0.03-0.921,0.076-1.766,0.139-2.535c0.062-0.77,0.123-1.388,0.186-1.854c0.277-1.704,0.493-2.927,0.648-3.669
			C55.923,74.007,56.077,73.554,56.232,73.389z"/>
		<path fill="#231F20" d="M76.05,72.399l-0.047,0.042c0.156-0.138,0.415-0.22,0.775-0.248c0.36-0.026,0.648,0.028,0.865,0.165
			c0.4,0.247,0.648,0.509,0.741,0.783c0.093,0.275,0.062,0.688-0.093,1.236c-0.186,0.798-0.348,1.525-0.486,2.185
			c-0.14,0.66-0.248,1.319-0.325,1.979c-0.077,0.66-0.132,1.36-0.162,2.103c-0.031,0.741-0.046,1.566-0.046,2.473
			c0,0.989-0.031,1.924-0.094,2.803c-0.063,0.88-0.14,1.67-0.232,2.37c-0.093,0.701-0.201,1.292-0.325,1.772
			c-0.124,0.481-0.264,0.804-0.418,0.969c-0.063,0.082-0.225,0.151-0.488,0.206c-0.264,0.056-0.551,0.082-0.86,0.082
			c-1.644,0-3.487-1.236-5.533-3.709c-0.497-0.577-0.946-1.064-1.35-1.464c-0.402-0.397-0.65-0.598-0.743-0.598
			c-0.155,0-0.28,0.344-0.372,1.03c-0.093,0.688-0.187,1.464-0.279,2.329s-0.201,1.69-0.325,2.474
			c-0.124,0.782-0.279,1.284-0.465,1.504c-0.217,0.221-0.535,0.316-0.954,0.289c-0.418-0.027-0.768-0.165-1.045-0.413
			c-0.743-0.659-0.93-1.896-0.559-3.709c0.093-0.356,0.154-0.728,0.186-1.113c0.03-0.384,0.038-0.927,0.022-1.628
			c-0.016-0.7-0.054-1.642-0.115-2.823c-0.063-1.181-0.155-2.762-0.278-4.74c-0.093-1.841-0.016-3.05,0.231-3.627
			s0.804-0.769,1.669-0.577c0.371,0.083,0.726,0.419,1.065,1.01c0.34,0.592,0.587,1.299,0.742,2.123
			c0.062,0.33,0.262,0.859,0.603,1.587c0.339,0.729,0.748,1.512,1.228,2.35s0.974,1.662,1.483,2.473s0.98,1.463,1.414,1.958
			c0.834,1.044,1.437,1.58,1.807,1.607c0.123,0,0.225-0.021,0.302-0.062c0.077-0.042,0.139-0.145,0.186-0.31
			c0.046-0.165,0.084-0.412,0.115-0.742c0.031-0.329,0.062-0.796,0.093-1.401c0.095-1.676,0.212-3.242,0.353-4.698
			s0.306-2.741,0.493-3.854c0.188-1.112,0.384-2.025,0.589-2.74C75.619,73.128,75.83,72.647,76.05,72.399z"/>
		<path fill="#231F20" d="M85.707,72.317v-0.124c0.865-0.438,1.583-0.645,2.155-0.618c0.571,0.028,1.136,0.289,1.691,0.783
			c0.371,0.33,0.61,0.612,0.719,0.845c0.108,0.234,0.162,0.543,0.162,0.928v0.989l-1.668-0.165l-1.622-0.123l-0.881,0.865
			c-0.989,0.989-1.801,2.178-2.434,3.565s-1.059,2.782-1.274,4.184s-0.216,2.72,0,3.957c0.216,1.236,0.695,2.198,1.437,2.885
			c0.896,0.824,1.831,0.811,2.805-0.041c0.973-0.852,1.769-2.335,2.387-4.451c0.154-0.604,0.169-1.023,0.046-1.258
			c-0.124-0.232-0.494-0.405-1.112-0.515c-1.02-0.165-1.529-0.55-1.529-1.154c0-0.385,0.154-0.701,0.464-0.948
			c0.309-0.247,0.679-0.412,1.112-0.494c0.432-0.083,0.888-0.075,1.367,0.021c0.479,0.097,0.888,0.295,1.228,0.598
			c0.557,0.494,0.873,1.127,0.95,1.896c0.077,0.77-0.054,1.842-0.394,3.215c-0.525,1.979-1.236,3.56-2.132,4.74
			c-0.896,1.182-1.854,1.772-2.874,1.772c-0.525,0-1.166-0.13-1.923-0.392c-0.758-0.261-1.383-0.557-1.877-0.886
			c-0.278-0.192-0.572-0.48-0.881-0.866c-0.31-0.384-0.603-0.824-0.881-1.318c-0.277-0.495-0.525-0.996-0.741-1.505
			c-0.217-0.508-0.371-0.982-0.464-1.422c-0.092-0.439-0.146-0.941-0.162-1.505c-0.016-0.563-0.016-1.146,0-1.751
			s0.07-1.209,0.162-1.813c0.093-0.604,0.216-1.168,0.371-1.69c0.216-0.797,0.54-1.621,0.974-2.473
			c0.432-0.852,0.911-1.655,1.437-2.411s1.081-1.429,1.668-2.02S85.151,72.593,85.707,72.317z"/>
	</g>
	<g>
		<g>
			<path d="M72.904,39.608l-2.654,0.015c0.154,0.064,0.313,0.119,0.481,0.163c-0.324,10.92-0.67,17.954-0.995,28.871
				c-0.039,0.886,0.839,2.072,2.026,2.06c1.186-0.001,2.048-1.198,2-2.084c-0.455-10.912-0.885-17.941-1.34-28.855
				C72.59,39.73,72.748,39.674,72.904,39.608z"/>
			<path d="M78.895,30.98c-0.478-4.678-3.275-11.079-6.923-11.168c-3.648,0.131-6.373,6.563-6.79,11.251
				c-0.435,4.403,2.259,8.269,6.062,8.872c-0.004,0.131-0.008,0.26-0.012,0.39c0.283,0.026,0.568,0.051,0.857,0.05
				c0.293-0.001,0.58-0.03,0.869-0.063c-0.006-0.13-0.011-0.259-0.018-0.389C76.734,39.276,79.382,35.382,78.895,30.98z"/>
			<path d="M73.418,39.808l-2.653,0.015c0.156,0.065,0.314,0.12,0.479,0.164c-0.321,10.849-0.669,17.836-0.994,28.683
				c-0.039,0.878,0.839,2.059,2.026,2.045c1.186-0.001,2.048-1.189,2-2.069c-0.454-10.842-0.886-17.826-1.34-28.668
				C73.104,39.931,73.264,39.872,73.418,39.808z"/>
			<path d="M65.973,31.132c0.433-4.824,3.194-10.508,6.109-10.609c1.978,0.045,3.935,2.742,5.123,5.986
				c-1.078-1.746-2.377-2.948-3.687-2.979c-2.916,0.104-5.675,5.787-6.109,10.611c-0.094,0.949-0.021,1.887,0.185,2.773
				C66.354,35.356,65.761,33.275,65.973,31.132z"/>
			<path d="M72.172,39.215c-0.525-0.018-1.033-0.129-1.528-0.281c0.357,0.074,0.715,0.138,1.085,0.15
				c1.75-0.077,3.377-0.889,4.58-2.286c1.449-1.689,2.129-4.03,1.866-6.432c-0.023-0.226-0.059-0.455-0.089-0.687
				c0.076,0.432,0.142,0.861,0.188,1.285c0.249,2.272-0.395,4.486-1.768,6.085C75.366,38.373,73.83,39.141,72.172,39.215z"/>
		</g>
	</g>
	<g>
		<path d="M56.035,33.857l-0.257,0.004c-0.016-0.632,0.067-1.301,0.212-1.987L55.726,20.13c-0.113-0.001-0.218-0.007-0.336-0.004
			c-0.262,0.007-0.525,8.153-0.843,13.765c0,0,0,0.002,0,0.005c-0.003,0.023-0.003,0.05-0.006,0.072l0.007,0.001
			c0.006,0.177,0.015,0.354,0.027,0.527l1.906-0.043l-0.005-0.23l-0.434,0.011L56.035,33.857z"/>
		<path d="M58.205,33.8l-0.199,0.009c-0.026-0.634,0.023-1.304,0.12-1.989L57.66,20.08c-0.086-0.002-0.167-0.004-0.26-0.001
			c-0.201,0.008-0.227,8.155-0.35,13.767c0,0,0.001,0.003,0.002,0.005c-0.002,0.023-0.002,0.048-0.003,0.073c0,0,0.004,0,0.005,0
			c0.008,0.177,0.018,0.354,0.034,0.527l1.475-0.059l-0.009-0.229l-0.335,0.014L58.205,33.8z"/>
		<path d="M60.534,33.731l-0.189,0.011c-0.04-0.632-0.012-1.301,0.06-1.99L59.623,20.03c-0.081,0-0.158-0.002-0.245,0.005
			c-0.19,0.013,0.02,8.155,0.064,13.768c0,0,0.001,0.003,0,0.005c0,0.023,0.001,0.048,0.001,0.071c0,0,0.003,0,0.005,0.001
			c0.013,0.177,0.028,0.353,0.048,0.526l1.396-0.092l-0.015-0.229l-0.316,0.021L60.534,33.731z"/>
		<path d="M61.023,33.767c0-0.009,0-0.016,0-0.024h-0.001c-0.443-3.635-0.91-8.347-1.269-11.191l0.261,11.593l-6.009,0.137
			l-0.009-0.378l-0.318,0.008c-0.015-0.633,0.091-1.303,0.272-1.988l-0.267-11.745c-0.138-0.001-0.267-0.007-0.413-0.003
			c-0.322,0.008-0.694,8.156-1.116,13.772c0,0,0,0.001-0.001,0.003c-0.003,0.023-0.005,0.048-0.006,0.072
			c0,0,0.006,0.001,0.007,0.001c0.091,2.922,1.437,5.433,3.725,5.988c-0.142,10.852-0.371,17.844-0.516,28.693
			c-0.021,0.882,0.874,2.045,2.062,2.012c1.186-0.021,2.029-1.225,1.966-2.104c-0.635-10.832-1.183-17.806-1.817-28.641
			c2.263-0.655,3.495-3.227,3.451-6.152c0.003,0.002,0.004,0.001,0.006,0.001C61.028,33.802,61.027,33.783,61.023,33.767z"/>
		<g>
			<g>
				<path d="M61.407,33.812c0.002,0,0.004-0.001,0.007,0c-0.005-0.019-0.005-0.037-0.009-0.054c0.001-0.008,0-0.017,0-0.023l0,0
					c-0.68-5.588-1.418-13.715-1.741-13.704c-0.319,0.006,0.099,8.138,0.221,13.739l-0.928,0.021
					c-0.496-5.591-0.971-13.723-1.293-13.717c-0.318,0.009-0.162,8.146-0.222,13.752l-0.926,0.021
					c-0.32-5.597-0.532-13.733-0.854-13.728c-0.322,0.009-0.428,8.153-0.67,13.762l-0.933,0.022
					c-0.135-5.603-0.087-13.745-0.406-13.737c-0.324,0.008-0.695,8.157-1.119,13.77l0,0c0.001,0.001,0.001,0.004,0.001,0.007
					c-0.002,0.022-0.004,0.048-0.005,0.071c0,0,0.005,0,0.008,0c0.089,2.923,1.434,5.434,3.724,5.985
					c-0.142,10.854-0.371,17.849-0.514,28.696c-0.023,0.881,0.872,2.046,2.058,2.014c1.186-0.021,2.029-1.226,1.967-2.104
					c-0.635-10.833-1.183-17.81-1.818-28.641C60.221,39.307,61.452,36.734,61.407,33.812z"/>
			</g>
		</g>
	</g>
	<g>
		<g>
			<path fill="#D94128" d="M65.676,61.984c-7.295,0-14.153-2.841-19.312-7.998c-5.158-5.158-7.998-12.017-7.998-19.312
				c0-7.294,2.841-14.152,7.999-19.311c5.158-5.157,12.016-7.997,19.311-7.997s14.152,2.84,19.311,7.997
				c10.646,10.648,10.646,27.974,0,38.622C79.828,59.144,72.97,61.984,65.676,61.984z M65.676,13.372
				c-5.69,0-11.04,2.215-15.063,6.239c-4.025,4.023-6.241,9.374-6.241,15.064c-0.001,5.69,2.216,11.04,6.24,15.063
				c4.023,4.024,9.373,6.24,15.064,6.24c5.69,0,11.04-2.216,15.063-6.24c8.307-8.306,8.307-21.822,0-30.128
				C76.716,15.587,71.366,13.372,65.676,13.372z"/>
		</g>
		<g>
			
				<rect x="61.763" y="9.292" transform="matrix(0.7071 0.7071 -0.7071 0.7071 43.1317 -35.7883)" fill="#D94128" width="6.006" height="49.757"/>
		</g>
	</g>
	<g>
		<g>
			<g>
				<path fill="#FFFFFF" d="M14.906,74.548c-2.361,0-4.58-0.76-6.417-2.197c-3.569-2.786-5.191-7.469-4.816-13.913
					c0.007-0.113,0.016-0.227,0.028-0.34c0.041-0.394,0.051-0.811,0.029-1.238c-0.017-0.335-0.081-1.142-0.312-2.782
					c-0.202-1.406-0.51-3.335-0.914-5.715c-0.418-2.451-0.995-5.736-1.731-9.85c-0.884-5.259-0.996-8.353-0.401-10.758
					c1.083-4.395,4.801-7.238,9.469-7.238c0.504,0,1.027,0.033,1.556,0.098c2.925,0.364,5.431,2.067,7.459,5.065
					c1.193,1.766,2.159,3.867,2.874,6.251c0.036,0.087,0.145,0.338,0.397,0.818c0-1.05,0.013-2.05,0.039-2.995
					c0.073-2.659,0.221-4.83,0.451-6.636c0.245-1.935,0.605-3.445,1.135-4.709c0.263-0.71,0.641-1.392,1.136-2.018l0.078-0.099
					c0.329-0.416,0.695-0.786,1.088-1.111c1.214-1.039,2.717-1.752,4.479-2.123c0.749-0.157,1.49-0.235,2.211-0.235
					c1.588,0,3.08,0.367,4.434,1.092c2.306,1.221,3.944,2.908,4.87,5.017c0.789,1.801,1.021,3.813,0.732,6.326
					c-0.133,1.619-0.242,3.1-0.328,4.441c-0.078,1.213-0.105,2.436-0.083,3.634c0.021,1.244,0.093,2.578,0.212,3.975
					c0.123,1.448,0.298,3.111,0.523,4.949c0.274,2.241,0.473,4.391,0.59,6.386c0.116,1.968,0.18,3.799,0.188,5.437
					c0.008,1.796-0.055,3.304-0.192,4.614c-0.224,2.152-0.695,3.748-1.516,5.112c-0.989,1.693-2.559,2.942-4.674,3.717
					c-0.985,0.363-2.076,0.623-3.222,0.764c-0.524,0.064-1.058,0.097-1.59,0.097c-2.692,0.001-5.417-0.807-8.219-2.446
					c-0.216,1.662-0.625,2.95-1.273,4.079c-0.095,0.166-0.197,0.328-0.305,0.486c-1.648,2.418-4.365,3.888-7.452,4.033
					C15.277,74.543,15.09,74.548,14.906,74.548z"/>
			</g>
			<g>
				<path fill="#FFFFFF" d="M15.905,101.027c-1.052,0-2.006-0.147-2.917-0.45c-0.923-0.309-1.822-0.777-2.921-1.52
					c-0.797-0.525-1.562-1.171-2.274-1.921c-0.776-0.813-1.423-1.698-1.919-2.625c-0.265-0.476-0.496-0.946-0.687-1.398
					c-0.412-0.976-0.656-2.047-0.746-3.274c-0.044-0.586-0.066-1.313-0.066-2.271v-3.091c0-1.697,0.016-3.157,0.049-4.381
					c0.031-1.207,0.064-2.206,0.096-2.992c0.042-1.042,0.111-1.855,0.219-2.551c0.174-1.13,0.512-2.609,1.581-4.029
					c1.449-1.932,3.437-2.608,4.091-2.83c0.47-0.158,0.965-0.311,1.515-0.461c0.046-0.013,1.659-0.417,1.659-0.417
					c0.478-0.118,0.947-0.244,1.423-0.381c0.646-0.188,1.278-0.358,1.893-0.515l1.456-0.37c0.537-0.137,1.079-0.211,1.615-0.226
					c0.188-0.024,0.377-0.045,0.569-0.061c0.572-0.045,1.096-0.066,1.606-0.066c0.713,0,1.401,0.053,2.043,0.155
					c1.065,0.167,2.065,0.495,2.953,0.973c0.161,0.086,0.318,0.179,0.472,0.276c3.259,2.079,4.502,6.169,2.957,9.725
					c-0.607,1.378-1.532,2.541-2.835,3.576c0.057,0.389,0.086,0.788,0.086,1.194c0,0.76-0.096,1.465-0.268,2.119
					c0.639,0.474,1.213,1.04,1.704,1.689c2.01,2.688,2.495,6.983-0.92,10.567c-0.89,0.932-1.952,1.769-3.252,2.563
					c-1.065,0.652-2.225,1.238-3.444,1.741c-1.482,0.612-2.937,1.006-4.318,1.167C16.772,101.003,16.334,101.027,15.905,101.027z"/>
				<path fill="#FFFFFF" d="M37.966,103.359c-2.111-0.074-4.057-0.851-5.627-2.245c-0.254-0.224-0.484-0.457-0.693-0.693
					c-0.252,0.184-0.525,0.359-0.819,0.521c-1.27,0.709-2.698,1.082-4.146,1.082c-1.344,0-2.657-0.312-3.902-0.926
					c-1.884-0.924-3.402-2.442-4.373-4.383c-0.088-0.176-0.169-0.355-0.242-0.538c-0.464-1.149-0.727-2.304-0.782-3.431
					c-0.052-1.008,0.066-2.065,0.382-3.393c0.11-0.506,0.287-1.244,0.535-2.214c0.237-0.927,0.506-1.958,0.809-3.089
					c0.303-1.136,0.625-2.297,0.964-3.473c0.335-1.167,0.649-2.225,0.938-3.168c0.208-0.661,0.407-1.339,0.613-2.086
					c0.205-0.738,0.359-1.328,0.467-1.782c0.012-0.05,0.024-0.1,0.037-0.149c0.332-1.276,0.687-2.26,1.118-3.096
					c0.57-1.115,1.368-2.14,2.358-3.023c0.823-0.735,1.791-1.267,2.827-1.571c1.109-0.456,2.282-0.69,3.48-0.69
					c2.064,0,4.073,0.702,5.81,2.03c0.149,0.114,0.293,0.233,0.433,0.358c1.037,0.926,1.646,1.982,2.107,2.895
					c0.279,0.552,0.547,1.139,0.822,1.794c0.288,0.688,0.536,1.362,0.74,2.009c0.253,0.798,0.414,1.5,0.493,2.174
					c0.05,0.201,0.114,0.413,0.191,0.645c0.03,0.09,0.059,0.181,0.085,0.272c0,0,1.504,5.209,1.827,6.312
					c0.317,1.088,0.616,2.094,0.901,3.026c0.279,0.915,0.492,1.609,0.642,2.09c0.251,0.771,0.454,1.573,0.603,2.387
					c0.143,0.783,0.24,1.549,0.288,2.277c0.074,1.07,0.023,2.063-0.155,3.018c-0.318,1.68-0.999,3.106-2.027,4.257
					c-0.092,0.103-0.187,0.203-0.284,0.3c-1.618,1.618-3.784,2.51-6.099,2.51C38.2,103.365,38.053,103.362,37.966,103.359z"/>
				<path fill="#FFFFFF" d="M44.458,101.354c-1.61,0-4.669-0.502-7.065-3.866c-0.037-0.052-0.073-0.104-0.109-0.157
					c-0.482-0.715-0.865-1.512-1.139-2.367c-0.235-0.721-0.388-1.539-0.466-2.531c-0.038-0.47-0.071-1.133-0.091-1.97
					c-0.017-0.704-0.025-1.628-0.025-2.771c0-0.486,0.003-0.976,0.011-1.469c-0.369-0.109-0.717-0.235-1.052-0.38
					c-3.913-1.687-5.864-5.941-4.64-10.117c0.558-1.869,1.988-4.368,5.692-5.855c1.332-0.533,2.814-0.887,4.417-1.055
					c1.322-0.754,2.811-1.203,4.371-1.312c0.258-0.019,0.512-0.027,0.76-0.027c0.933,0,1.852,0.126,2.729,0.37
					c0.248-0.038,0.503-0.072,0.761-0.104c0.743-0.089,1.474-0.151,2.171-0.187c0.495-0.025,0.949-0.037,1.36-0.037
					c0.238,0,0.463,0.004,0.676,0.012c0.757,0.025,2.954,0.101,4.974,1.66c3.134,2.372,4.156,6.525,2.476,10.217
					c-0.997,2.189-2.748,3.916-5.063,4.99c-0.032,0.016-0.065,0.03-0.098,0.045c-0.556,0.248-1.157,0.452-1.85,0.625
					c-0.003,0.055-0.006,0.109-0.009,0.165c-0.061,1.082-0.12,2.417-0.18,4.01c-0.003,0.077-0.007,0.155-0.012,0.231
					c-0.06,0.862-0.103,1.561-0.132,2.096c-0.043,0.776-0.098,1.408-0.168,1.945c-0.118,0.92-0.3,1.692-0.568,2.409
					c-0.483,1.275-1.204,2.35-2.152,3.216C48.488,100.569,46.51,101.354,44.458,101.354z"/>
				<path fill="#FFFFFF" d="M57.09,103.37c-0.889,0-1.792-0.136-2.685-0.402c-2.549-0.727-4.616-2.58-5.695-5.119
					c-0.466-1.101-0.804-2.415-1.124-4.384c-0.131-0.71-0.201-1.516-0.226-2.573c-0.016-0.687-0.032-1.471-0.046-2.354
					c-0.018-0.977-0.009-2.029,0.026-3.123l0.093-2.857c0.034-1.032,0.087-2.005,0.159-2.882c0.074-0.922,0.151-1.67,0.227-2.235
					c0.009-0.068,0.019-0.138,0.03-0.206c0.299-1.835,0.531-3.142,0.709-3.994c0.222-1.069,0.489-1.933,0.837-2.692
					c0.199-0.453,0.447-0.892,0.744-1.309c0.222-0.318,0.466-0.62,0.728-0.898c0.907-0.964,2.016-1.632,3.201-1.995
					c0.919-0.323,1.898-0.492,2.896-0.492c0.211,0,0.426,0.007,0.646,0.022c2.125,0.15,4.13,1.059,5.649,2.556
					c0.163,0.161,0.319,0.33,0.467,0.506c0.387,0.46,0.728,0.95,1.013,1.457c0.506,0.908,0.839,1.903,1.002,2.982
					c0.088,0.603,0.129,1.222,0.129,1.929v1.299c0,0.111-0.003,0.224-0.008,0.335c-0.037,0.805-0.091,1.594-0.163,2.368
					c-0.085,0.892-0.174,1.542-0.29,2.095c-0.004,0.064-0.007,0.135-0.011,0.212c-0.028,0.578-0.049,1.244-0.063,2.008
					c-0.015,0.81-0.021,1.665-0.021,2.565c0,0.856,0.013,1.684,0.041,2.479c0.029,0.854,0.06,1.602,0.089,2.249
					c0.008,0.17,0.015,0.309,0.024,0.424c0.569,2.906,0.266,5.457-0.901,7.584C63.04,101.708,60.244,103.37,57.09,103.37z"/>
				<path fill="#FFFFFF" d="M64.97,100.545c-0.2,0-0.405-0.006-0.616-0.02c-2.072-0.136-3.965-0.922-5.476-2.273
					c-1.582-1.403-4.091-4.686-2.865-10.677c0.019-0.093,0.039-0.185,0.062-0.275c0.003-0.095,0.009-0.349-0.001-0.825
					c-0.014-0.646-0.05-1.514-0.107-2.604c-0.062-1.157-0.153-2.716-0.274-4.666c-0.165-3.257,0.072-5.255,0.812-6.983
					c1.351-3.156,4.359-5.116,7.851-5.116c0.711,0,1.445,0.082,2.182,0.245c0.906,0.203,2.002,0.604,3.094,1.39
					c0.013-0.021,0.027-0.044,0.041-0.065c0.373-0.626,0.846-1.207,1.417-1.72l0.047-0.042c0.41-0.367,0.85-0.68,1.312-0.939
					c1.107-0.637,2.366-1.015,3.756-1.124c0.283-0.021,0.519-0.028,0.747-0.028c1.67,0,3.269,0.451,4.625,1.307
					c2.304,1.422,3.339,3.319,3.791,4.655c0.557,1.654,0.582,3.465,0.075,5.391c-0.161,0.692-0.302,1.328-0.424,1.906
					c-0.094,0.445-0.167,0.887-0.217,1.318c-0.056,0.481-0.096,1.002-0.118,1.546c-0.028,0.659-0.04,1.38-0.04,2.173
					c0,1.158-0.038,2.277-0.112,3.325c-0.074,1.043-0.165,1.965-0.278,2.815c-0.133,1.004-0.295,1.87-0.495,2.646
					c-0.422,1.64-1.095,2.961-2.052,4.03c-0.862,0.97-2.279,2.059-4.491,2.518c-0.732,0.154-1.533,0.235-2.356,0.235
					c-1.368,0-2.632-0.256-3.783-0.668c-0.01,0.01-0.02,0.02-0.029,0.03C69.461,99.658,67.304,100.545,64.97,100.545z"/>
				<path fill="#FFFFFF" d="M86.311,101.035c-1.365,0-2.781-0.261-4.331-0.796c-1.354-0.467-2.52-1.029-3.553-1.717
					c-0.036-0.023-0.071-0.048-0.105-0.071c-0.881-0.609-1.681-1.369-2.444-2.324c-0.541-0.671-1.067-1.454-1.547-2.306
					c-0.42-0.751-0.789-1.5-1.104-2.243c-0.396-0.929-0.698-1.868-0.89-2.777c-0.185-0.884-0.291-1.828-0.318-2.822
					c-0.019-0.688-0.02-1.404,0-2.146c0.023-0.902,0.105-1.82,0.243-2.729c0.141-0.915,0.331-1.785,0.567-2.596
					c0.347-1.256,0.85-2.535,1.496-3.804c0.575-1.134,1.234-2.239,1.952-3.273c0.767-1.104,1.605-2.115,2.491-3.007
					c0.66-0.664,1.346-1.246,2.052-1.741c0.466-0.414,0.988-0.771,1.559-1.061c1.88-0.953,3.642-1.416,5.387-1.416
					c0.113,0,0.325,0.005,0.438,0.01c2.283,0.113,4.435,1.024,6.248,2.638c1.139,1.013,1.957,2.071,2.5,3.235
					c0.569,1.23,0.853,2.583,0.853,4.042v0.989c0,1.063-0.23,2.102-0.661,3.05c1.061,1.452,1.71,3.161,1.898,5.035
					c0.166,1.654-0.016,3.472-0.572,5.72c-0.01,0.041-0.021,0.081-0.031,0.121c-0.781,2.942-1.888,5.331-3.382,7.302
					C91.96,100.426,88.248,101.035,86.311,101.035z"/>
			</g>
			<g>
				<path fill="#FFFFFF" d="M71.744,78.084c-2.541,0-4.929-1.033-6.724-2.909c-1.771-1.851-2.733-4.313-2.646-6.766
					c0.162-5.449,0.33-9.935,0.497-14.417c0.142-3.789,0.283-7.575,0.421-11.948c-0.419-1.204-0.531-2.526-0.269-3.849
					c0.679-3.437,3.684-5.92,7.187-5.939c0,0,2.682-0.015,2.695-0.015c3.5,0,6.519,2.463,7.218,5.896
					c0.266,1.308,0.168,2.617-0.234,3.813c0.19,4.353,0.376,8.124,0.562,11.896c0.222,4.502,0.444,9.004,0.672,14.479
					c0.13,2.405-0.82,4.922-2.612,6.815c-1.794,1.896-4.188,2.94-6.743,2.942C71.767,78.084,71.746,78.084,71.744,78.084z"/>
				<path fill="#FFFFFF" d="M72.072,47.742c-0.569,0-1.068-0.039-1.523-0.082c-1.336-0.124-2.56-0.6-3.584-1.329
					c-5.956-2.463-9.812-8.921-9.114-15.991c0.62-6.972,4.829-17.565,13.857-17.89c0.088-0.003,0.384-0.004,0.444-0.003
					c9.015,0.22,13.354,10.757,14.072,17.785C87,37.241,83.22,43.737,77.294,46.27c-1.003,0.731-2.204,1.218-3.52,1.364
					c-0.491,0.055-1.033,0.106-1.661,0.108C72.105,47.742,72.08,47.742,72.072,47.742z"/>
				<path fill="#FFFFFF" d="M72.255,78.081c-2.543,0-4.932-1.034-6.728-2.912c-1.767-1.848-2.727-4.305-2.64-6.751
					c0.161-5.367,0.328-9.794,0.494-14.209c0.143-3.798,0.286-7.588,0.424-11.971c-0.418-1.204-0.528-2.525-0.267-3.848
					c0.68-3.435,3.685-5.916,7.186-5.936c0,0,2.681-0.015,2.694-0.015c3.501,0,6.521,2.465,7.219,5.899
					c0.266,1.306,0.167,2.614-0.234,3.809c0.189,4.315,0.375,8.056,0.561,11.797c0.222,4.474,0.445,8.948,0.672,14.391
					c0.131,2.398-0.817,4.91-2.605,6.8c-1.769,1.87-4.229,2.943-6.75,2.945C72.28,78.081,72.257,78.081,72.255,78.081z"/>
				<path fill="#FFFFFF" d="M67.597,44.281c-2.19,0-4.333-0.977-5.769-2.78c-2.457-3.089-3.589-7.028-3.187-11.094
					c0.58-6.47,4.679-16.951,13.184-17.247c0.085-0.003,0.368-0.004,0.424-0.003c5.069,0.115,9.396,4.058,11.873,10.817
					c1.301,3.551-0.298,7.509-3.699,9.161c-1.033,0.502-2.131,0.741-3.214,0.741c-0.771,0-1.535-0.121-2.263-0.356
					c-0.091,0.417-0.161,0.848-0.2,1.281c-0.018,0.183-0.008,0.312,0.023,0.445c0.78,3.354-0.869,6.802-3.97,8.3
					C69.774,44.043,68.679,44.281,67.597,44.281z"/>
				<path fill="#FFFFFF" d="M71.925,46.578c-1.124-0.038-2.252-0.235-3.448-0.604c-3.76-1.157-5.948-5.064-4.969-8.875
					c0.852-3.312,3.834-5.534,7.129-5.534c0.072,0,0.144,0.001,0.216,0.003c0.013-0.112,0.015-0.246-0.002-0.401l-0.07-0.532
					c-0.52-3.971,2.229-7.629,6.187-8.236c0.378-0.059,0.755-0.087,1.126-0.087c3.516,0,6.617,2.521,7.247,6.088
					c0.104,0.59,0.192,1.177,0.256,1.756c0.471,4.296-0.806,8.556-3.501,11.694c-2.486,2.885-5.891,4.56-9.594,4.725
					c-0.11,0.005-0.22,0.008-0.33,0.008C72.09,46.582,72.008,46.58,71.925,46.578z"/>
			</g>
			<g>
				<path fill="#FFFFFF" d="M54.572,41.863c-3.849,0-7.063-2.973-7.345-6.831c-0.01-0.133-0.018-0.268-0.025-0.403
					c-0.036-0.404-0.039-0.815-0.007-1.231c0.097-1.713,0.188-3.658,0.275-5.528c0.102-2.157,0.199-4.218,0.293-5.739
					c0.055-0.881,0.111-1.604,0.164-2.109c0.593-5.596,4.849-7.196,7.269-7.259c0.064-0.002,0.197-0.004,0.261-0.004l0.33,0.005
					c3.979,0.034,7.213,3.223,7.303,7.201l0.262,11.614c0.303,0.787,0.471,1.629,0.489,2.488l0.005,0.23
					c0.086,4.064-3.136,7.43-7.199,7.521C56.647,41.818,54.628,41.863,54.572,41.863z"/>
				<path fill="#FFFFFF" d="M57.084,41.818c-3.778,0-6.967-2.873-7.329-6.667c-0.019-0.193-0.033-0.389-0.044-0.584
					c-0.022-0.257-0.032-0.516-0.027-0.775c0-0.035,0-0.071,0.001-0.107c0.038-1.746,0.067-3.739,0.095-5.652
					c0.031-2.142,0.061-4.186,0.1-5.695c0.022-0.848,0.048-1.544,0.077-2.03c0.347-5.785,4.662-7.492,7.158-7.589
					c0.095-0.004,0.289-0.007,0.384-0.007l0.324,0.004c3.889,0.089,7.044,3.187,7.198,7.073c0,0,0.469,11.844,0.47,11.896
					c0.25,0.699,0.396,1.439,0.424,2.196l0.009,0.229c0.156,4.063-3.007,7.483-7.069,7.645l-1.475,0.059
					C57.282,41.816,57.183,41.818,57.084,41.818z"/>
				<path fill="#FFFFFF" d="M59.49,41.773c-3.72,0-6.894-2.797-7.314-6.545c-0.018-0.157-0.034-0.316-0.047-0.476
					c-0.031-0.262-0.048-0.528-0.051-0.798c0-0.018-0.001-0.081-0.001-0.094c-0.014-1.743-0.044-3.733-0.073-5.645
					c-0.033-2.142-0.063-4.187-0.069-5.696c-0.003-0.843,0.001-1.537,0.015-2.021c0.163-5.815,4.438-7.648,6.939-7.815
					c0.171-0.014,0.41-0.021,0.648-0.021c3.878,0,7.18,3.008,7.438,6.877c0,0,0.79,11.864,0.792,11.936
					c0.257,0.68,0.416,1.4,0.463,2.139l0.015,0.229c0.26,4.056-2.813,7.556-6.869,7.823l-1.396,0.092
					C59.815,41.769,59.652,41.773,59.49,41.773z"/>
				<path fill="#FFFFFF" d="M57.376,78.084c-2.51,0-4.878-1.011-6.669-2.846c-1.78-1.824-2.767-4.271-2.708-6.714
					c0.07-5.316,0.163-9.763,0.256-14.201c0.07-3.362,0.14-6.72,0.201-10.49c-2.127-2.281-3.445-5.475-3.646-9.156
					c-0.028-0.313-0.036-0.631-0.022-0.953c0.005-0.122,0.015-0.271,0.028-0.414c0.127-1.698,0.249-3.625,0.367-5.479
					c0.138-2.174,0.27-4.251,0.396-5.786c0.184-2.244,0.744-9.07,7.515-9.235h0.598c2.134,0.016,4.067,0.938,5.417,2.403
					c0.034-0.003,0.068-0.006,0.103-0.008c0.185-0.014,0.369-0.021,0.551-0.021c3.68,0,6.835,2.739,7.302,6.446
					c0.185,1.465,0.397,3.412,0.621,5.461c0.212,1.944,0.435,3.982,0.651,5.76c0.003,0.03,0.007,0.061,0.01,0.092
					c0.046,0.382,0.062,0.765,0.047,1.144c-0.022,3.713-1.196,6.985-3.229,9.372c0.229,3.72,0.45,7.037,0.67,10.354
					c0.296,4.467,0.593,8.934,0.912,14.368c0.173,2.388-0.731,4.916-2.486,6.838c-1.737,1.9-4.179,3.018-6.701,3.063
					C57.515,78.082,57.42,78.084,57.376,78.084z"/>
				<g>
					<path fill="#FFFFFF" d="M57.758,78.075c-2.512,0-4.883-1.013-6.674-2.853c-1.78-1.829-2.764-4.279-2.699-6.725
						c0.069-5.327,0.162-9.794,0.255-14.258c0.07-3.337,0.139-6.673,0.199-10.414c-2.126-2.28-3.444-5.474-3.645-9.157
						c-0.029-0.319-0.037-0.642-0.023-0.966c0.001-0.025,0.012-0.243,0.018-0.323c0.13-1.728,0.256-3.698,0.376-5.593
						c0.138-2.167,0.27-4.236,0.396-5.766c0.184-2.24,0.745-9.059,7.516-9.222c0.059-0.001,0.118-0.002,0.177-0.002
						c0.253,0,0.532,0.018,0.829,0.057c0.348-0.061,0.678-0.093,0.979-0.101c0.067-0.002,0.134-0.003,0.201-0.003
						c0.26,0,0.542,0.017,0.838,0.054c0.339-0.057,0.663-0.088,0.96-0.096c0.067-0.002,0.135-0.003,0.203-0.003
						c0.254,0,0.529,0.017,0.819,0.053c0.344-0.056,0.693-0.088,1.045-0.095c0.045,0,0.09-0.001,0.135-0.001
						c6.632,0,7.486,6.666,7.767,8.856c0.193,1.51,0.417,3.557,0.652,5.703c0.208,1.903,0.424,3.887,0.635,5.622
						c0.003,0.027,0.006,0.054,0.009,0.081c0.048,0.397,0.064,0.795,0.047,1.189c-0.029,3.698-1.202,6.957-3.229,9.336
						c0.229,3.699,0.448,7,0.667,10.3c0.298,4.484,0.596,8.967,0.916,14.423c0.171,2.394-0.734,4.92-2.49,6.839
						c-1.737,1.899-4.179,3.016-6.698,3.062C57.896,78.074,57.803,78.075,57.758,78.075z"/>
				</g>
			</g>
			<g>
				<g>
					<path fill="#FFFFFF" d="M65.676,69.352c-9.262,0-17.97-3.606-24.521-10.155c-6.549-6.55-10.156-15.258-10.156-24.521
						c0-9.262,3.607-17.97,10.157-24.52C47.706,3.606,56.414,0,65.676,0s17.97,3.606,24.52,10.154
						c13.519,13.521,13.519,35.521,0.001,49.041C83.645,65.745,74.938,69.352,65.676,69.352z M65.676,20.739
						c-3.723,0-7.223,1.449-9.854,4.081c-2.634,2.633-4.084,6.132-4.084,9.855c-0.001,3.723,1.449,7.222,4.082,9.854
						c2.633,2.634,6.133,4.083,9.856,4.083c3.723,0,7.222-1.449,9.854-4.082c2.627-2.626,4.073-6.126,4.073-9.854
						c0-3.729-1.446-7.229-4.072-9.854C72.898,22.188,69.399,20.739,65.676,20.739z"/>
				</g>
				<g>
					<path fill="#FFFFFF" d="M49.298,61.253c-1.954,0-3.828-0.776-5.209-2.158l-4.247-4.247c-2.877-2.877-2.877-7.541,0-10.418
						L75.025,9.246c1.382-1.382,3.256-2.158,5.209-2.158c0,0,0,0,0,0c1.954,0,3.828,0.776,5.209,2.158l4.246,4.247
						c2.876,2.877,2.876,7.541,0,10.418L54.507,59.095C53.125,60.477,51.252,61.253,49.298,61.253z"/>
				</g>
			</g>
		</g>
		<g>
			<g>
				<path fill="#FFFFFF" d="M30.74,20.867l-0.078,0.099c0.258-0.325,0.721-0.558,1.389-0.698c0.667-0.14,1.221-0.091,1.661,0.148
					c0.815,0.429,1.347,0.923,1.591,1.479c0.244,0.558,0.292,1.433,0.146,2.626c-0.143,1.72-0.258,3.289-0.349,4.709
					c-0.091,1.422-0.123,2.834-0.097,4.241c0.024,1.405,0.104,2.894,0.237,4.463c0.133,1.569,0.317,3.308,0.551,5.217
					c0.255,2.083,0.438,4.057,0.548,5.923c0.11,1.867,0.168,3.547,0.176,5.044c0.007,1.494-0.043,2.766-0.152,3.805
					c-0.108,1.041-0.285,1.753-0.533,2.136c-0.096,0.188-0.381,0.37-0.861,0.546c-0.479,0.177-1.009,0.3-1.589,0.371
					c-3.077,0.377-6.85-1.804-11.317-6.542c-1.078-1.101-2.047-2.024-2.903-2.771c-0.856-0.745-1.373-1.109-1.547-1.088
					c-0.29,0.036-0.435,0.788-0.431,2.255c0.003,1.468,0.028,3.123,0.078,4.967c0.049,1.844,0.059,3.604,0.028,5.281
					c-0.031,1.678-0.192,2.77-0.482,3.275c-0.35,0.513-0.921,0.787-1.711,0.824c-0.791,0.04-1.48-0.17-2.064-0.627
					c-1.562-1.219-2.229-3.779-2.002-7.683c0.081-0.772,0.102-1.567,0.06-2.385c-0.042-0.818-0.167-1.962-0.375-3.435
					c-0.211-1.471-0.525-3.442-0.945-5.917c-0.422-2.473-1.002-5.778-1.743-9.916c-0.647-3.854-0.815-6.419-0.501-7.689
					c0.313-1.271,1.305-1.803,2.976-1.598c0.715,0.089,1.467,0.716,2.256,1.882c0.788,1.166,1.433,2.6,1.937,4.299
					c0.199,0.681,0.711,1.75,1.536,3.203c0.824,1.456,1.792,3.012,2.906,4.664c1.112,1.657,2.251,3.278,3.414,4.867
					c1.163,1.59,2.213,2.856,3.151,3.798c1.832,2.008,3.098,2.998,3.799,2.971c0.23-0.028,0.413-0.096,0.549-0.199
					c0.133-0.104,0.223-0.337,0.267-0.693c0.045-0.357,0.052-0.887,0.026-1.589c-0.028-0.701-0.091-1.691-0.188-2.972
					c-0.257-3.55-0.44-6.874-0.552-9.974c-0.112-3.099-0.136-5.842-0.07-8.228s0.196-4.353,0.395-5.905
					C30.12,22.5,30.393,21.439,30.74,20.867z"/>
			</g>
			<g>
				<path fill="#FFFFFF" d="M20.176,72.688l0.047,0.082c0.277-0.082,0.586-0.137,0.927-0.165c0.339-0.026,0.672-0.041,0.996-0.041
					s0.618,0.021,0.881,0.063c0.262,0.041,0.471,0.103,0.625,0.186c0.216,0.138,0.271,0.329,0.163,0.576
					c-0.109,0.248-0.364,0.522-0.765,0.825c-0.186,0.164-0.541,0.378-1.066,0.639s-1.097,0.529-1.715,0.804
					s-1.213,0.522-1.784,0.741c-0.572,0.221-0.997,0.357-1.274,0.413c-0.371,0.082-0.711,0.288-1.02,0.618
					c-0.31,0.329-0.564,0.687-0.765,1.071c-0.202,0.385-0.317,0.77-0.348,1.154c-0.031,0.385,0.062,0.674,0.277,0.865
					c0.186,0.165,0.401,0.262,0.649,0.289c0.247,0.027,0.726-0.027,1.437-0.165c1.081-0.165,1.854-0.213,2.317-0.145
					c0.464,0.069,0.695,0.268,0.695,0.598c0,0.77-1.144,1.663-3.43,2.679l-1.9,0.825l-0.093,2.391
					c-0.031,0.55-0.046,0.989-0.046,1.318c0,0.33,0.015,0.598,0.046,0.804c0.03,0.206,0.085,0.371,0.162,0.495
					c0.077,0.123,0.178,0.24,0.302,0.35c0.186,0.165,0.362,0.289,0.533,0.371c0.169,0.083,0.386,0.117,0.648,0.104
					c0.262-0.014,0.603-0.089,1.02-0.227s0.98-0.33,1.691-0.577c1.267-0.439,2.186-0.681,2.758-0.722
					c0.571-0.041,0.98,0.104,1.229,0.433c0.186,0.248,0.062,0.598-0.371,1.052c-0.433,0.453-1.02,0.906-1.761,1.359
					c-0.742,0.454-1.546,0.859-2.41,1.216c-0.865,0.357-1.653,0.577-2.364,0.66c-0.525,0.056-0.911,0.041-1.158-0.041
					c-0.248-0.083-0.634-0.303-1.159-0.66c-0.34-0.22-0.68-0.508-1.02-0.865c-0.34-0.356-0.603-0.714-0.787-1.071
					c-0.155-0.274-0.278-0.522-0.371-0.742s-0.155-0.536-0.186-0.948c-0.031-0.412-0.046-0.989-0.046-1.731c0-0.741,0-1.771,0-3.091
					c0-1.621,0.015-3.016,0.046-4.184c0.03-1.168,0.062-2.129,0.093-2.885c0.03-0.756,0.077-1.333,0.139-1.731
					s0.123-0.639,0.186-0.722c0.062-0.082,0.255-0.178,0.579-0.288c0.325-0.109,0.688-0.22,1.09-0.33
					c0.432-0.109,0.927-0.233,1.482-0.371c0.557-0.137,1.12-0.288,1.692-0.453c0.571-0.165,1.127-0.315,1.668-0.453
					C19.256,72.922,19.743,72.799,20.176,72.688z"/>
				<path fill="#FFFFFF" d="M30.51,72.771l0.093,0.124c0.865-0.687,1.745-0.687,2.643,0c0.092,0.082,0.238,0.323,0.439,0.722
					s0.401,0.838,0.603,1.318c0.201,0.481,0.371,0.941,0.51,1.381c0.14,0.439,0.209,0.756,0.209,0.948
					c0,0.082,0.046,0.316,0.139,0.7c0.093,0.386,0.216,0.812,0.371,1.278c0.247,0.852,0.533,1.841,0.857,2.968
					s0.648,2.246,0.974,3.358c0.324,1.113,0.633,2.15,0.927,3.112c0.293,0.962,0.517,1.689,0.672,2.185
					c0.154,0.468,0.278,0.955,0.371,1.463c0.093,0.509,0.154,0.989,0.185,1.443c0.031,0.453,0.016,0.845-0.046,1.174
					c-0.063,0.33-0.155,0.563-0.278,0.701c-0.247,0.247-0.563,0.364-0.95,0.351s-0.718-0.145-0.996-0.392
					c-0.124-0.109-0.286-0.364-0.486-0.763c-0.201-0.398-0.417-0.887-0.649-1.463c-0.231-0.577-0.472-1.223-0.718-1.938
					c-0.248-0.715-0.479-1.429-0.695-2.144l-0.557-1.813h-0.927c-1.175,0-2.132,0.233-2.873,0.701
					c-0.742,0.467-1.129,1.085-1.159,1.854c0,0.22-0.077,0.563-0.231,1.03c-0.155,0.468-0.332,0.948-0.533,1.442
					c-0.201,0.495-0.41,0.935-0.626,1.319s-0.387,0.604-0.51,0.659c-0.37,0.221-0.78,0.221-1.228,0
					c-0.448-0.22-0.796-0.577-1.043-1.071c-0.155-0.385-0.24-0.728-0.255-1.03c-0.016-0.303,0.054-0.77,0.208-1.401
					c0.093-0.439,0.255-1.113,0.487-2.021c0.231-0.906,0.493-1.909,0.788-3.009c0.293-1.099,0.602-2.211,0.927-3.338
					c0.324-1.127,0.625-2.144,0.903-3.051c0.216-0.687,0.44-1.448,0.672-2.287c0.232-0.838,0.409-1.518,0.533-2.04
					c0.186-0.715,0.363-1.237,0.533-1.566C29.961,73.348,30.201,73.046,30.51,72.771z M32.781,83.116h-0.047
					c-0.154-0.604-0.378-1.023-0.672-1.257s-0.518-0.172-0.672,0.186c-0.401,1.071-0.563,1.834-0.486,2.287
					c0.076,0.453,0.424,0.681,1.043,0.681c0.524,0,0.85-0.138,0.973-0.412S32.997,83.831,32.781,83.116z"/>
				<path fill="#FFFFFF" d="M43.441,75.45l-0.093-0.041c0.433-0.33,0.942-0.516,1.529-0.557s1.097,0.062,1.529,0.309
					c0.247,0.138,0.471,0.221,0.672,0.248s0.487,0,0.857-0.083c0.464-0.109,0.98-0.199,1.553-0.268
					c0.571-0.068,1.128-0.117,1.669-0.145c0.54-0.027,1.012-0.034,1.413-0.021s0.649,0.062,0.741,0.145
					c0.433,0.303,0.518,0.741,0.255,1.318s-0.749,1.03-1.46,1.36c-0.247,0.11-0.618,0.213-1.112,0.31s-1.02,0.199-1.575,0.309
					c-0.557,0.11-1.074,0.227-1.553,0.351c-0.479,0.124-0.827,0.241-1.043,0.351c-0.124,0.082-0.225,0.151-0.301,0.206
					c-0.078,0.055-0.14,0.172-0.186,0.35c-0.047,0.18-0.093,0.461-0.139,0.846c-0.047,0.385-0.093,0.935-0.14,1.648
					c-0.046,0.715-0.101,1.628-0.162,2.741c-0.063,1.112-0.124,2.493-0.186,4.142c-0.063,0.907-0.108,1.643-0.139,2.206
					c-0.031,0.563-0.069,1.023-0.116,1.38c-0.046,0.357-0.101,0.619-0.162,0.783c-0.063,0.165-0.139,0.289-0.231,0.371
					c-0.526,0.495-1.082,0.33-1.669-0.494c-0.093-0.138-0.17-0.303-0.231-0.495c-0.063-0.191-0.108-0.48-0.139-0.865
					c-0.031-0.385-0.055-0.907-0.07-1.566s-0.022-1.525-0.022-2.597c0-0.659,0.007-1.325,0.022-1.999
					c0.016-0.673,0.031-1.284,0.047-1.834c0.015-0.55,0.038-1.037,0.069-1.463c0.03-0.426,0.062-0.722,0.093-0.887
					c0.093-0.467,0.131-0.831,0.116-1.092c-0.017-0.261-0.101-0.468-0.255-0.618c-0.155-0.151-0.426-0.248-0.812-0.289
					c-0.387-0.041-0.903-0.062-1.553-0.062c-1.638-0.027-2.711-0.151-3.221-0.371s-0.672-0.646-0.486-1.278
					c0.123-0.412,0.579-0.775,1.367-1.092c0.787-0.315,1.722-0.516,2.804-0.598c0.586-0.055,1.058-0.13,1.413-0.227
					C42.893,75.787,43.193,75.643,43.441,75.45z"/>
				<path fill="#FFFFFF" d="M56.232,73.389l-0.093,0.124c0.247-0.22,0.563-0.315,0.95-0.288c0.386,0.027,0.718,0.179,0.996,0.453
					c0.093,0.11,0.17,0.22,0.231,0.329c0.062,0.11,0.108,0.269,0.14,0.475c0.03,0.206,0.046,0.48,0.046,0.824s0,0.776,0,1.299
					c-0.031,0.687-0.077,1.359-0.139,2.02c-0.063,0.659-0.124,1.112-0.186,1.359c-0.063,0.221-0.108,0.646-0.139,1.278
					c-0.031,0.632-0.055,1.374-0.07,2.226s-0.022,1.752-0.022,2.7c0,0.947,0.015,1.861,0.046,2.74
					c0.03,0.88,0.062,1.656,0.093,2.329c0.03,0.674,0.077,1.147,0.139,1.422c0.247,1.21,0.209,2.109-0.115,2.7
					s-0.873,0.762-1.646,0.515c-0.433-0.109-0.758-0.419-0.974-0.927c-0.216-0.509-0.433-1.436-0.648-2.782
					c-0.063-0.303-0.101-0.79-0.116-1.464c-0.016-0.673-0.031-1.442-0.046-2.308c-0.016-0.866-0.008-1.786,0.023-2.762
					c0.03-0.976,0.062-1.923,0.093-2.844c0.03-0.921,0.076-1.766,0.139-2.535c0.062-0.77,0.123-1.388,0.186-1.854
					c0.277-1.704,0.493-2.927,0.648-3.669C55.923,74.007,56.077,73.554,56.232,73.389z"/>
				<path fill="#FFFFFF" d="M76.051,72.399l-0.047,0.042c0.156-0.138,0.415-0.22,0.775-0.248c0.36-0.026,0.648,0.028,0.865,0.165
					c0.4,0.247,0.648,0.509,0.741,0.783c0.093,0.275,0.062,0.688-0.093,1.236c-0.186,0.798-0.348,1.525-0.486,2.185
					c-0.14,0.66-0.248,1.319-0.325,1.979c-0.077,0.66-0.132,1.36-0.162,2.103c-0.031,0.741-0.046,1.566-0.046,2.473
					c0,0.989-0.031,1.924-0.094,2.803c-0.063,0.88-0.14,1.67-0.232,2.37c-0.093,0.701-0.201,1.292-0.325,1.772
					c-0.124,0.481-0.264,0.804-0.418,0.969c-0.063,0.082-0.225,0.151-0.488,0.206c-0.264,0.056-0.551,0.082-0.86,0.082
					c-1.644,0-3.487-1.236-5.533-3.709c-0.497-0.577-0.946-1.064-1.35-1.464c-0.402-0.397-0.65-0.598-0.743-0.598
					c-0.155,0-0.28,0.344-0.372,1.03c-0.093,0.688-0.187,1.464-0.279,2.329s-0.201,1.69-0.325,2.474
					c-0.124,0.782-0.279,1.284-0.465,1.504c-0.217,0.221-0.535,0.316-0.954,0.289c-0.418-0.027-0.768-0.165-1.045-0.413
					c-0.743-0.659-0.93-1.896-0.559-3.709c0.093-0.356,0.154-0.728,0.186-1.113c0.03-0.384,0.038-0.927,0.022-1.628
					c-0.016-0.7-0.054-1.642-0.115-2.823c-0.063-1.181-0.155-2.762-0.278-4.74c-0.093-1.841-0.016-3.05,0.231-3.627
					s0.804-0.769,1.669-0.577c0.371,0.083,0.726,0.419,1.065,1.01c0.34,0.592,0.587,1.299,0.742,2.123
					c0.062,0.33,0.262,0.859,0.603,1.587c0.339,0.729,0.748,1.512,1.228,2.35s0.974,1.662,1.483,2.473s0.98,1.463,1.414,1.958
					c0.834,1.044,1.437,1.58,1.807,1.607c0.123,0,0.225-0.021,0.302-0.062c0.077-0.042,0.139-0.145,0.186-0.31
					c0.046-0.165,0.084-0.412,0.115-0.742c0.031-0.329,0.062-0.796,0.093-1.401c0.095-1.676,0.212-3.242,0.353-4.698
					s0.306-2.741,0.493-3.854c0.188-1.112,0.384-2.025,0.589-2.74C75.62,73.128,75.831,72.647,76.051,72.399z"/>
				<path fill="#FFFFFF" d="M85.708,72.317v-0.124c0.865-0.438,1.583-0.645,2.155-0.618c0.571,0.028,1.136,0.289,1.691,0.783
					c0.371,0.33,0.61,0.612,0.719,0.845c0.108,0.234,0.162,0.543,0.162,0.928v0.989l-1.668-0.165l-1.622-0.123l-0.881,0.865
					c-0.989,0.989-1.801,2.178-2.434,3.565s-1.059,2.782-1.274,4.184s-0.216,2.72,0,3.957c0.216,1.236,0.695,2.198,1.437,2.885
					c0.896,0.824,1.831,0.811,2.805-0.041c0.973-0.852,1.769-2.335,2.387-4.451c0.154-0.604,0.169-1.023,0.046-1.258
					c-0.124-0.232-0.494-0.405-1.112-0.515c-1.02-0.165-1.529-0.55-1.529-1.154c0-0.385,0.154-0.701,0.464-0.948
					c0.309-0.247,0.679-0.412,1.112-0.494c0.432-0.083,0.888-0.075,1.367,0.021c0.479,0.097,0.888,0.295,1.228,0.598
					c0.557,0.494,0.873,1.127,0.95,1.896c0.077,0.77-0.054,1.842-0.394,3.215c-0.525,1.979-1.236,3.56-2.132,4.74
					c-0.896,1.182-1.854,1.772-2.874,1.772c-0.525,0-1.166-0.13-1.923-0.392c-0.758-0.261-1.383-0.557-1.877-0.886
					c-0.278-0.192-0.572-0.48-0.881-0.866c-0.31-0.384-0.603-0.824-0.881-1.318c-0.277-0.495-0.525-0.996-0.741-1.505
					c-0.217-0.508-0.371-0.982-0.464-1.422c-0.092-0.439-0.146-0.941-0.162-1.505c-0.016-0.563-0.016-1.146,0-1.751
					s0.07-1.209,0.162-1.813c0.093-0.604,0.216-1.168,0.371-1.69c0.216-0.797,0.54-1.621,0.974-2.473
					c0.432-0.852,0.911-1.655,1.437-2.411s1.081-1.429,1.668-2.02S85.152,72.593,85.708,72.317z"/>
			</g>
			<g>
				<path fill="#FFFFFF" d="M72.904,39.608l-2.654,0.015c0.154,0.064,0.313,0.119,0.481,0.163
					c-0.324,10.92-0.67,17.954-0.995,28.871c-0.039,0.886,0.839,2.072,2.026,2.06c1.186-0.001,2.048-1.198,2-2.084
					c-0.455-10.912-0.885-17.941-1.34-28.855C72.59,39.73,72.748,39.674,72.904,39.608z"/>
				<path fill="#FFFFFF" d="M78.895,30.98c-0.478-4.678-3.275-11.079-6.923-11.168c-3.648,0.131-6.373,6.563-6.79,11.251
					c-0.435,4.403,2.259,8.269,6.062,8.872c-0.004,0.131-0.008,0.26-0.012,0.39c0.283,0.026,0.568,0.051,0.857,0.05
					c0.293-0.001,0.58-0.03,0.869-0.063c-0.006-0.13-0.011-0.259-0.018-0.389C76.734,39.276,79.382,35.382,78.895,30.98z"/>
				<path fill="#FFFFFF" d="M73.418,39.808l-2.653,0.015c0.156,0.065,0.314,0.12,0.479,0.164
					c-0.321,10.849-0.669,17.836-0.994,28.683c-0.039,0.878,0.839,2.059,2.026,2.045c1.186-0.001,2.048-1.189,2-2.069
					c-0.454-10.842-0.886-17.826-1.34-28.668C73.104,39.931,73.264,39.872,73.418,39.808z"/>
				<path fill="#FFFFFF" d="M65.973,31.132c0.433-4.824,3.194-10.508,6.109-10.609c1.978,0.045,3.935,2.742,5.123,5.986
					c-1.078-1.746-2.377-2.948-3.687-2.979c-2.916,0.104-5.675,5.787-6.109,10.611c-0.094,0.949-0.021,1.887,0.185,2.773
					C66.354,35.356,65.761,33.275,65.973,31.132z"/>
				<path fill="#FFFFFF" d="M72.172,39.215c-0.525-0.018-1.033-0.129-1.528-0.281c0.357,0.074,0.715,0.138,1.085,0.15
					c1.75-0.077,3.377-0.889,4.58-2.286c1.449-1.689,2.129-4.03,1.866-6.432c-0.023-0.226-0.059-0.455-0.089-0.687
					c0.076,0.432,0.142,0.861,0.188,1.285c0.249,2.272-0.395,4.486-1.768,6.085C75.366,38.373,73.83,39.141,72.172,39.215z"/>
			</g>
			<g>
				<path fill="#FFFFFF" d="M56.035,33.857l-0.257,0.004c-0.016-0.632,0.067-1.301,0.212-1.987L55.726,20.13
					c-0.113-0.001-0.218-0.007-0.336-0.004c-0.262,0.007-0.525,8.153-0.843,13.765c0,0,0,0.002,0,0.005
					c-0.003,0.023-0.003,0.05-0.006,0.072l0.007,0.001c0.006,0.177,0.015,0.354,0.027,0.527l1.906-0.043l-0.005-0.23l-0.434,0.011
					L56.035,33.857z"/>
				<path fill="#FFFFFF" d="M58.205,33.8l-0.199,0.009c-0.026-0.634,0.023-1.304,0.12-1.989L57.66,20.08
					c-0.086-0.002-0.167-0.004-0.26-0.001c-0.201,0.008-0.227,8.155-0.35,13.767c0,0,0.001,0.003,0.002,0.005
					c-0.002,0.023-0.002,0.048-0.003,0.073c0,0,0.004,0,0.005,0c0.008,0.177,0.018,0.354,0.034,0.527l1.475-0.059l-0.009-0.229
					l-0.335,0.014L58.205,33.8z"/>
				<path fill="#FFFFFF" d="M60.534,33.731l-0.189,0.011c-0.04-0.632-0.012-1.301,0.06-1.99L59.623,20.03
					c-0.081,0-0.158-0.002-0.245,0.005c-0.19,0.013,0.02,8.155,0.064,13.768c0,0,0.001,0.003,0,0.005
					c0,0.023,0.001,0.048,0.001,0.071c0,0,0.003,0,0.005,0.001c0.013,0.177,0.028,0.353,0.048,0.526l1.396-0.092l-0.015-0.229
					l-0.316,0.021L60.534,33.731z"/>
				<path fill="#FFFFFF" d="M61.023,33.767c0-0.009,0-0.016,0-0.024h-0.001c-0.443-3.635-0.91-8.347-1.269-11.191l0.261,11.593
					l-6.009,0.137l-0.009-0.378l-0.318,0.008c-0.015-0.633,0.091-1.303,0.272-1.988l-0.267-11.745
					c-0.138-0.001-0.267-0.007-0.413-0.003c-0.322,0.008-0.694,8.156-1.116,13.772c0,0,0,0.001-0.001,0.003
					c-0.003,0.023-0.005,0.048-0.006,0.072c0,0,0.006,0.001,0.007,0.001c0.091,2.922,1.437,5.433,3.725,5.988
					c-0.142,10.852-0.371,17.844-0.516,28.693c-0.021,0.882,0.874,2.045,2.062,2.012c1.186-0.021,2.029-1.225,1.966-2.104
					c-0.635-10.832-1.183-17.806-1.817-28.641c2.263-0.655,3.495-3.227,3.451-6.152c0.003,0.002,0.004,0.001,0.006,0.001
					C61.028,33.802,61.027,33.783,61.023,33.767z"/>
				<g>
					<path fill="#FFFFFF" d="M61.407,33.812c0.002,0,0.004-0.001,0.007,0c-0.005-0.019-0.005-0.037-0.009-0.054
						c0.001-0.008,0-0.017,0-0.023l0,0c-0.68-5.588-1.418-13.715-1.741-13.704c-0.319,0.006,0.099,8.138,0.221,13.739l-0.928,0.021
						c-0.496-5.591-0.971-13.723-1.293-13.717c-0.318,0.009-0.162,8.146-0.222,13.752l-0.926,0.021
						c-0.32-5.597-0.532-13.733-0.854-13.728c-0.322,0.009-0.428,8.153-0.67,13.762l-0.933,0.022
						c-0.135-5.603-0.087-13.745-0.406-13.737c-0.324,0.008-0.695,8.157-1.119,13.77l0,0c0.001,0.001,0.001,0.004,0.001,0.007
						c-0.002,0.022-0.004,0.048-0.005,0.071c0,0,0.005,0,0.008,0c0.089,2.923,1.434,5.434,3.724,5.985
						c-0.142,10.854-0.371,17.849-0.514,28.696c-0.023,0.881,0.872,2.046,2.058,2.014c1.186-0.021,2.029-1.226,1.967-2.104
						c-0.635-10.833-1.183-17.81-1.818-28.641C60.221,39.307,61.452,36.734,61.407,33.812z"/>
				</g>
			</g>
			<g>
				<g>
					<path fill="#FFFFFF" d="M65.676,61.984c-7.295,0-14.153-2.841-19.312-7.998c-5.158-5.158-7.998-12.017-7.998-19.312
						c0-7.294,2.841-14.152,7.999-19.311c5.158-5.157,12.016-7.997,19.311-7.997s14.152,2.84,19.311,7.997
						c10.646,10.648,10.646,27.974,0,38.622C79.828,59.144,72.97,61.984,65.676,61.984z M65.676,13.372
						c-5.69,0-11.04,2.215-15.063,6.239c-4.025,4.023-6.241,9.374-6.241,15.064c-0.001,5.69,2.216,11.04,6.24,15.063
						c4.023,4.024,9.373,6.24,15.064,6.24c5.69,0,11.04-2.216,15.063-6.24c8.307-8.306,8.307-21.822,0-30.128
						C76.716,15.587,71.366,13.372,65.676,13.372z"/>
				</g>
				<g>
					
						<rect x="61.763" y="9.292" transform="matrix(0.7071 0.7071 -0.7071 0.7071 43.1317 -35.7883)" fill="#FFFFFF" width="6.006" height="49.757"/>
				</g>
			</g>
		</g>
		<g>
			<g>
				<path fill="#D94128" d="M30.74,20.867l-0.078,0.099c0.258-0.325,0.721-0.558,1.389-0.698c0.667-0.14,1.221-0.091,1.661,0.148
					c0.815,0.429,1.347,0.923,1.591,1.479c0.244,0.558,0.292,1.433,0.146,2.626c-0.143,1.72-0.258,3.289-0.349,4.709
					c-0.091,1.422-0.123,2.834-0.097,4.241c0.024,1.405,0.104,2.894,0.237,4.463c0.133,1.569,0.317,3.308,0.551,5.217
					c0.255,2.083,0.438,4.057,0.548,5.923c0.11,1.867,0.168,3.547,0.176,5.044c0.007,1.494-0.043,2.766-0.152,3.805
					c-0.108,1.041-0.285,1.753-0.533,2.136c-0.096,0.188-0.381,0.37-0.861,0.546c-0.479,0.177-1.009,0.3-1.589,0.371
					c-3.077,0.377-6.85-1.804-11.317-6.542c-1.078-1.101-2.047-2.024-2.903-2.771c-0.856-0.745-1.373-1.109-1.547-1.088
					c-0.29,0.036-0.435,0.788-0.431,2.255c0.003,1.468,0.028,3.123,0.078,4.967c0.049,1.844,0.059,3.604,0.028,5.281
					c-0.031,1.678-0.192,2.77-0.482,3.275c-0.35,0.513-0.921,0.787-1.711,0.824c-0.791,0.04-1.48-0.17-2.064-0.627
					c-1.562-1.219-2.229-3.779-2.002-7.683c0.081-0.772,0.102-1.567,0.06-2.385c-0.042-0.818-0.167-1.962-0.375-3.435
					c-0.211-1.471-0.525-3.442-0.945-5.917c-0.422-2.473-1.002-5.778-1.743-9.916c-0.647-3.854-0.815-6.419-0.501-7.689
					c0.313-1.271,1.305-1.803,2.976-1.598c0.715,0.089,1.467,0.716,2.256,1.882c0.788,1.166,1.433,2.6,1.937,4.299
					c0.199,0.681,0.711,1.75,1.536,3.203c0.824,1.456,1.792,3.012,2.906,4.664c1.112,1.657,2.251,3.278,3.414,4.867
					c1.163,1.59,2.213,2.856,3.151,3.798c1.832,2.008,3.098,2.998,3.799,2.971c0.23-0.028,0.413-0.096,0.549-0.199
					c0.133-0.104,0.223-0.337,0.267-0.693c0.045-0.357,0.052-0.887,0.026-1.589c-0.028-0.701-0.091-1.691-0.188-2.972
					c-0.257-3.55-0.44-6.874-0.552-9.974c-0.112-3.099-0.136-5.842-0.07-8.228s0.196-4.353,0.395-5.905
					C30.12,22.5,30.393,21.439,30.74,20.867z"/>
			</g>
			<g>
				<path fill="#231F20" d="M20.176,72.688l0.047,0.082c0.277-0.082,0.586-0.137,0.927-0.165c0.339-0.026,0.672-0.041,0.996-0.041
					s0.618,0.021,0.881,0.063c0.262,0.041,0.471,0.103,0.625,0.186c0.216,0.138,0.271,0.329,0.163,0.576
					c-0.109,0.248-0.364,0.522-0.765,0.825c-0.186,0.164-0.541,0.378-1.066,0.639s-1.097,0.529-1.715,0.804
					s-1.213,0.522-1.784,0.741c-0.572,0.221-0.997,0.357-1.274,0.413c-0.371,0.082-0.711,0.288-1.02,0.618
					c-0.31,0.329-0.564,0.687-0.765,1.071c-0.202,0.385-0.317,0.77-0.348,1.154c-0.031,0.385,0.062,0.674,0.277,0.865
					c0.186,0.165,0.401,0.262,0.649,0.289c0.247,0.027,0.726-0.027,1.437-0.165c1.081-0.165,1.854-0.213,2.317-0.145
					c0.464,0.069,0.695,0.268,0.695,0.598c0,0.77-1.144,1.663-3.43,2.679l-1.9,0.825l-0.093,2.391
					c-0.031,0.55-0.046,0.989-0.046,1.318c0,0.33,0.015,0.598,0.046,0.804c0.03,0.206,0.085,0.371,0.162,0.495
					c0.077,0.123,0.178,0.24,0.302,0.35c0.186,0.165,0.362,0.289,0.533,0.371c0.169,0.083,0.386,0.117,0.648,0.104
					c0.262-0.014,0.603-0.089,1.02-0.227s0.98-0.33,1.691-0.577c1.267-0.439,2.186-0.681,2.758-0.722
					c0.571-0.041,0.98,0.104,1.229,0.433c0.186,0.248,0.062,0.598-0.371,1.052c-0.433,0.453-1.02,0.906-1.761,1.359
					c-0.742,0.454-1.546,0.859-2.41,1.216c-0.865,0.357-1.653,0.577-2.364,0.66c-0.525,0.056-0.911,0.041-1.158-0.041
					c-0.248-0.083-0.634-0.303-1.159-0.66c-0.34-0.22-0.68-0.508-1.02-0.865c-0.34-0.356-0.603-0.714-0.787-1.071
					c-0.155-0.274-0.278-0.522-0.371-0.742s-0.155-0.536-0.186-0.948c-0.031-0.412-0.046-0.989-0.046-1.731c0-0.741,0-1.771,0-3.091
					c0-1.621,0.015-3.016,0.046-4.184c0.03-1.168,0.062-2.129,0.093-2.885c0.03-0.756,0.077-1.333,0.139-1.731
					s0.123-0.639,0.186-0.722c0.062-0.082,0.255-0.178,0.579-0.288c0.325-0.109,0.688-0.22,1.09-0.33
					c0.432-0.109,0.927-0.233,1.482-0.371c0.557-0.137,1.12-0.288,1.692-0.453c0.571-0.165,1.127-0.315,1.668-0.453
					C19.256,72.922,19.743,72.799,20.176,72.688z"/>
				<path fill="#231F20" d="M30.51,72.771l0.093,0.124c0.865-0.687,1.745-0.687,2.643,0c0.092,0.082,0.238,0.323,0.439,0.722
					s0.401,0.838,0.603,1.318c0.201,0.481,0.371,0.941,0.51,1.381c0.14,0.439,0.209,0.756,0.209,0.948
					c0,0.082,0.046,0.316,0.139,0.7c0.093,0.386,0.216,0.812,0.371,1.278c0.247,0.852,0.533,1.841,0.857,2.968
					s0.648,2.246,0.974,3.358c0.324,1.113,0.633,2.15,0.927,3.112c0.293,0.962,0.517,1.689,0.672,2.185
					c0.154,0.468,0.278,0.955,0.371,1.463c0.093,0.509,0.154,0.989,0.185,1.443c0.031,0.453,0.016,0.845-0.046,1.174
					c-0.063,0.33-0.155,0.563-0.278,0.701c-0.247,0.247-0.563,0.364-0.95,0.351s-0.718-0.145-0.996-0.392
					c-0.124-0.109-0.286-0.364-0.486-0.763c-0.201-0.398-0.417-0.887-0.649-1.463c-0.231-0.577-0.472-1.223-0.718-1.938
					c-0.248-0.715-0.479-1.429-0.695-2.144l-0.557-1.813h-0.927c-1.175,0-2.132,0.233-2.873,0.701
					c-0.742,0.467-1.129,1.085-1.159,1.854c0,0.22-0.077,0.563-0.231,1.03c-0.155,0.468-0.332,0.948-0.533,1.442
					c-0.201,0.495-0.41,0.935-0.626,1.319s-0.387,0.604-0.51,0.659c-0.37,0.221-0.78,0.221-1.228,0
					c-0.448-0.22-0.796-0.577-1.043-1.071c-0.155-0.385-0.24-0.728-0.255-1.03c-0.016-0.303,0.054-0.77,0.208-1.401
					c0.093-0.439,0.255-1.113,0.487-2.021c0.231-0.906,0.493-1.909,0.788-3.009c0.293-1.099,0.602-2.211,0.927-3.338
					c0.324-1.127,0.625-2.144,0.903-3.051c0.216-0.687,0.44-1.448,0.672-2.287c0.232-0.838,0.409-1.518,0.533-2.04
					c0.186-0.715,0.363-1.237,0.533-1.566C29.961,73.348,30.201,73.046,30.51,72.771z M32.781,83.116h-0.047
					c-0.154-0.604-0.378-1.023-0.672-1.257s-0.518-0.172-0.672,0.186c-0.401,1.071-0.563,1.834-0.486,2.287
					c0.076,0.453,0.424,0.681,1.043,0.681c0.524,0,0.85-0.138,0.973-0.412S32.997,83.831,32.781,83.116z"/>
				<path fill="#231F20" d="M43.441,75.45l-0.093-0.041c0.433-0.33,0.942-0.516,1.529-0.557s1.097,0.062,1.529,0.309
					c0.247,0.138,0.471,0.221,0.672,0.248s0.487,0,0.857-0.083c0.464-0.109,0.98-0.199,1.553-0.268
					c0.571-0.068,1.128-0.117,1.669-0.145c0.54-0.027,1.012-0.034,1.413-0.021s0.649,0.062,0.741,0.145
					c0.433,0.303,0.518,0.741,0.255,1.318s-0.749,1.03-1.46,1.36c-0.247,0.11-0.618,0.213-1.112,0.31s-1.02,0.199-1.575,0.309
					c-0.557,0.11-1.074,0.227-1.553,0.351c-0.479,0.124-0.827,0.241-1.043,0.351c-0.124,0.082-0.225,0.151-0.301,0.206
					c-0.078,0.055-0.14,0.172-0.186,0.35c-0.047,0.18-0.093,0.461-0.139,0.846c-0.047,0.385-0.093,0.935-0.14,1.648
					c-0.046,0.715-0.101,1.628-0.162,2.741c-0.063,1.112-0.124,2.493-0.186,4.142c-0.063,0.907-0.108,1.643-0.139,2.206
					c-0.031,0.563-0.069,1.023-0.116,1.38c-0.046,0.357-0.101,0.619-0.162,0.783c-0.063,0.165-0.139,0.289-0.231,0.371
					c-0.526,0.495-1.082,0.33-1.669-0.494c-0.093-0.138-0.17-0.303-0.231-0.495c-0.063-0.191-0.108-0.48-0.139-0.865
					c-0.031-0.385-0.055-0.907-0.07-1.566s-0.022-1.525-0.022-2.597c0-0.659,0.007-1.325,0.022-1.999
					c0.016-0.673,0.031-1.284,0.047-1.834c0.015-0.55,0.038-1.037,0.069-1.463c0.03-0.426,0.062-0.722,0.093-0.887
					c0.093-0.467,0.131-0.831,0.116-1.092c-0.017-0.261-0.101-0.468-0.255-0.618c-0.155-0.151-0.426-0.248-0.812-0.289
					c-0.387-0.041-0.903-0.062-1.553-0.062c-1.638-0.027-2.711-0.151-3.221-0.371s-0.672-0.646-0.486-1.278
					c0.123-0.412,0.579-0.775,1.367-1.092c0.787-0.315,1.722-0.516,2.804-0.598c0.586-0.055,1.058-0.13,1.413-0.227
					C42.893,75.787,43.193,75.643,43.441,75.45z"/>
				<path fill="#231F20" d="M56.232,73.389l-0.093,0.124c0.247-0.22,0.563-0.315,0.95-0.288c0.386,0.027,0.718,0.179,0.996,0.453
					c0.093,0.11,0.17,0.22,0.231,0.329c0.062,0.11,0.108,0.269,0.14,0.475c0.03,0.206,0.046,0.48,0.046,0.824s0,0.776,0,1.299
					c-0.031,0.687-0.077,1.359-0.139,2.02c-0.063,0.659-0.124,1.112-0.186,1.359c-0.063,0.221-0.108,0.646-0.139,1.278
					c-0.031,0.632-0.055,1.374-0.07,2.226s-0.022,1.752-0.022,2.7c0,0.947,0.015,1.861,0.046,2.74
					c0.03,0.88,0.062,1.656,0.093,2.329c0.03,0.674,0.077,1.147,0.139,1.422c0.247,1.21,0.209,2.109-0.115,2.7
					s-0.873,0.762-1.646,0.515c-0.433-0.109-0.758-0.419-0.974-0.927c-0.216-0.509-0.433-1.436-0.648-2.782
					c-0.063-0.303-0.101-0.79-0.116-1.464c-0.016-0.673-0.031-1.442-0.046-2.308c-0.016-0.866-0.008-1.786,0.023-2.762
					c0.03-0.976,0.062-1.923,0.093-2.844c0.03-0.921,0.076-1.766,0.139-2.535c0.062-0.77,0.123-1.388,0.186-1.854
					c0.277-1.704,0.493-2.927,0.648-3.669C55.923,74.007,56.077,73.554,56.232,73.389z"/>
				<path fill="#231F20" d="M76.051,72.399l-0.047,0.042c0.156-0.138,0.415-0.22,0.775-0.248c0.36-0.026,0.648,0.028,0.865,0.165
					c0.4,0.247,0.648,0.509,0.741,0.783c0.093,0.275,0.062,0.688-0.093,1.236c-0.186,0.798-0.348,1.525-0.486,2.185
					c-0.14,0.66-0.248,1.319-0.325,1.979c-0.077,0.66-0.132,1.36-0.162,2.103c-0.031,0.741-0.046,1.566-0.046,2.473
					c0,0.989-0.031,1.924-0.094,2.803c-0.063,0.88-0.14,1.67-0.232,2.37c-0.093,0.701-0.201,1.292-0.325,1.772
					c-0.124,0.481-0.264,0.804-0.418,0.969c-0.063,0.082-0.225,0.151-0.488,0.206c-0.264,0.056-0.551,0.082-0.86,0.082
					c-1.644,0-3.487-1.236-5.533-3.709c-0.497-0.577-0.946-1.064-1.35-1.464c-0.402-0.397-0.65-0.598-0.743-0.598
					c-0.155,0-0.28,0.344-0.372,1.03c-0.093,0.688-0.187,1.464-0.279,2.329s-0.201,1.69-0.325,2.474
					c-0.124,0.782-0.279,1.284-0.465,1.504c-0.217,0.221-0.535,0.316-0.954,0.289c-0.418-0.027-0.768-0.165-1.045-0.413
					c-0.743-0.659-0.93-1.896-0.559-3.709c0.093-0.356,0.154-0.728,0.186-1.113c0.03-0.384,0.038-0.927,0.022-1.628
					c-0.016-0.7-0.054-1.642-0.115-2.823c-0.063-1.181-0.155-2.762-0.278-4.74c-0.093-1.841-0.016-3.05,0.231-3.627
					s0.804-0.769,1.669-0.577c0.371,0.083,0.726,0.419,1.065,1.01c0.34,0.592,0.587,1.299,0.742,2.123
					c0.062,0.33,0.262,0.859,0.603,1.587c0.339,0.729,0.748,1.512,1.228,2.35s0.974,1.662,1.483,2.473s0.98,1.463,1.414,1.958
					c0.834,1.044,1.437,1.58,1.807,1.607c0.123,0,0.225-0.021,0.302-0.062c0.077-0.042,0.139-0.145,0.186-0.31
					c0.046-0.165,0.084-0.412,0.115-0.742c0.031-0.329,0.062-0.796,0.093-1.401c0.095-1.676,0.212-3.242,0.353-4.698
					s0.306-2.741,0.493-3.854c0.188-1.112,0.384-2.025,0.589-2.74C75.62,73.128,75.831,72.647,76.051,72.399z"/>
				<path fill="#231F20" d="M85.708,72.317v-0.124c0.865-0.438,1.583-0.645,2.155-0.618c0.571,0.028,1.136,0.289,1.691,0.783
					c0.371,0.33,0.61,0.612,0.719,0.845c0.108,0.234,0.162,0.543,0.162,0.928v0.989l-1.668-0.165l-1.622-0.123l-0.881,0.865
					c-0.989,0.989-1.801,2.178-2.434,3.565s-1.059,2.782-1.274,4.184s-0.216,2.72,0,3.957c0.216,1.236,0.695,2.198,1.437,2.885
					c0.896,0.824,1.831,0.811,2.805-0.041c0.973-0.852,1.769-2.335,2.387-4.451c0.154-0.604,0.169-1.023,0.046-1.258
					c-0.124-0.232-0.494-0.405-1.112-0.515c-1.02-0.165-1.529-0.55-1.529-1.154c0-0.385,0.154-0.701,0.464-0.948
					c0.309-0.247,0.679-0.412,1.112-0.494c0.432-0.083,0.888-0.075,1.367,0.021c0.479,0.097,0.888,0.295,1.228,0.598
					c0.557,0.494,0.873,1.127,0.95,1.896c0.077,0.77-0.054,1.842-0.394,3.215c-0.525,1.979-1.236,3.56-2.132,4.74
					c-0.896,1.182-1.854,1.772-2.874,1.772c-0.525,0-1.166-0.13-1.923-0.392c-0.758-0.261-1.383-0.557-1.877-0.886
					c-0.278-0.192-0.572-0.48-0.881-0.866c-0.31-0.384-0.603-0.824-0.881-1.318c-0.277-0.495-0.525-0.996-0.741-1.505
					c-0.217-0.508-0.371-0.982-0.464-1.422c-0.092-0.439-0.146-0.941-0.162-1.505c-0.016-0.563-0.016-1.146,0-1.751
					s0.07-1.209,0.162-1.813c0.093-0.604,0.216-1.168,0.371-1.69c0.216-0.797,0.54-1.621,0.974-2.473
					c0.432-0.852,0.911-1.655,1.437-2.411s1.081-1.429,1.668-2.02S85.152,72.593,85.708,72.317z"/>
			</g>
			<g>
				<path d="M72.904,39.608l-2.654,0.015c0.154,0.064,0.313,0.119,0.481,0.163c-0.324,10.92-0.67,17.954-0.995,28.871
					c-0.039,0.886,0.839,2.072,2.026,2.06c1.186-0.001,2.048-1.198,2-2.084c-0.455-10.912-0.885-17.941-1.34-28.855
					C72.59,39.73,72.748,39.674,72.904,39.608z"/>
				<path d="M78.895,30.98c-0.478-4.678-3.275-11.079-6.923-11.168c-3.648,0.131-6.373,6.563-6.79,11.251
					c-0.435,4.403,2.259,8.269,6.062,8.872c-0.004,0.131-0.008,0.26-0.012,0.39c0.283,0.026,0.568,0.051,0.857,0.05
					c0.293-0.001,0.58-0.03,0.869-0.063c-0.006-0.13-0.011-0.259-0.018-0.389C76.734,39.276,79.382,35.382,78.895,30.98z"/>
				<path d="M73.418,39.808l-2.653,0.015c0.156,0.065,0.314,0.12,0.479,0.164c-0.321,10.849-0.669,17.836-0.994,28.683
					c-0.039,0.878,0.839,2.059,2.026,2.045c1.186-0.001,2.048-1.189,2-2.069c-0.454-10.842-0.886-17.826-1.34-28.668
					C73.104,39.931,73.264,39.872,73.418,39.808z"/>
				<path d="M65.973,31.132c0.433-4.824,3.194-10.508,6.109-10.609c1.978,0.045,3.935,2.742,5.123,5.986
					c-1.078-1.746-2.377-2.948-3.687-2.979c-2.916,0.104-5.675,5.787-6.109,10.611c-0.094,0.949-0.021,1.887,0.185,2.773
					C66.354,35.356,65.761,33.275,65.973,31.132z"/>
				<path d="M72.172,39.215c-0.525-0.018-1.033-0.129-1.528-0.281c0.357,0.074,0.715,0.138,1.085,0.15
					c1.75-0.077,3.377-0.889,4.58-2.286c1.449-1.689,2.129-4.03,1.866-6.432c-0.023-0.226-0.059-0.455-0.089-0.687
					c0.076,0.432,0.142,0.861,0.188,1.285c0.249,2.272-0.395,4.486-1.768,6.085C75.366,38.373,73.83,39.141,72.172,39.215z"/>
			</g>
			<g>
				<path d="M56.035,33.857l-0.257,0.004c-0.016-0.632,0.067-1.301,0.212-1.987L55.726,20.13c-0.113-0.001-0.218-0.007-0.336-0.004
					c-0.262,0.007-0.525,8.153-0.843,13.765c0,0,0,0.002,0,0.005c-0.003,0.023-0.003,0.05-0.006,0.072l0.007,0.001
					c0.006,0.177,0.015,0.354,0.027,0.527l1.906-0.043l-0.005-0.23l-0.434,0.011L56.035,33.857z"/>
				<path d="M58.205,33.8l-0.199,0.009c-0.026-0.634,0.023-1.304,0.12-1.989L57.66,20.08c-0.086-0.002-0.167-0.004-0.26-0.001
					c-0.201,0.008-0.227,8.155-0.35,13.767c0,0,0.001,0.003,0.002,0.005c-0.002,0.023-0.002,0.048-0.003,0.073c0,0,0.004,0,0.005,0
					c0.008,0.177,0.018,0.354,0.034,0.527l1.475-0.059l-0.009-0.229l-0.335,0.014L58.205,33.8z"/>
				<path d="M60.534,33.731l-0.189,0.011c-0.04-0.632-0.012-1.301,0.06-1.99L59.623,20.03c-0.081,0-0.158-0.002-0.245,0.005
					c-0.19,0.013,0.02,8.155,0.064,13.768c0,0,0.001,0.003,0,0.005c0,0.023,0.001,0.048,0.001,0.071c0,0,0.003,0,0.005,0.001
					c0.013,0.177,0.028,0.353,0.048,0.526l1.396-0.092l-0.015-0.229l-0.316,0.021L60.534,33.731z"/>
				<path d="M61.023,33.767c0-0.009,0-0.016,0-0.024h-0.001c-0.443-3.635-0.91-8.347-1.269-11.191l0.261,11.593l-6.009,0.137
					l-0.009-0.378l-0.318,0.008c-0.015-0.633,0.091-1.303,0.272-1.988l-0.267-11.745c-0.138-0.001-0.267-0.007-0.413-0.003
					c-0.322,0.008-0.694,8.156-1.116,13.772c0,0,0,0.001-0.001,0.003c-0.003,0.023-0.005,0.048-0.006,0.072
					c0,0,0.006,0.001,0.007,0.001c0.091,2.922,1.437,5.433,3.725,5.988c-0.142,10.852-0.371,17.844-0.516,28.693
					c-0.021,0.882,0.874,2.045,2.062,2.012c1.186-0.021,2.029-1.225,1.966-2.104c-0.635-10.832-1.183-17.806-1.817-28.641
					c2.263-0.655,3.495-3.227,3.451-6.152c0.003,0.002,0.004,0.001,0.006,0.001C61.028,33.802,61.027,33.783,61.023,33.767z"/>
				<g>
					<path d="M61.407,33.812c0.002,0,0.004-0.001,0.007,0c-0.005-0.019-0.005-0.037-0.009-0.054c0.001-0.008,0-0.017,0-0.023l0,0
						c-0.68-5.588-1.418-13.715-1.741-13.704c-0.319,0.006,0.099,8.138,0.221,13.739l-0.928,0.021
						c-0.496-5.591-0.971-13.723-1.293-13.717c-0.318,0.009-0.162,8.146-0.222,13.752l-0.926,0.021
						c-0.32-5.597-0.532-13.733-0.854-13.728c-0.322,0.009-0.428,8.153-0.67,13.762l-0.933,0.022
						c-0.135-5.603-0.087-13.745-0.406-13.737c-0.324,0.008-0.695,8.157-1.119,13.77l0,0c0.001,0.001,0.001,0.004,0.001,0.007
						c-0.002,0.022-0.004,0.048-0.005,0.071c0,0,0.005,0,0.008,0c0.089,2.923,1.434,5.434,3.724,5.985
						c-0.142,10.854-0.371,17.849-0.514,28.696c-0.023,0.881,0.872,2.046,2.058,2.014c1.186-0.021,2.029-1.226,1.967-2.104
						c-0.635-10.833-1.183-17.81-1.818-28.641C60.221,39.307,61.452,36.734,61.407,33.812z"/>
				</g>
			</g>
			<g>
				<g>
					<path fill="#D94128" d="M65.676,61.984c-7.295,0-14.153-2.841-19.312-7.998c-5.158-5.158-7.998-12.017-7.998-19.312
						c0-7.294,2.841-14.152,7.999-19.311c5.158-5.157,12.016-7.997,19.311-7.997s14.152,2.84,19.311,7.997
						c10.646,10.648,10.646,27.974,0,38.622C79.828,59.144,72.97,61.984,65.676,61.984z M65.676,13.372
						c-5.69,0-11.04,2.215-15.063,6.239c-4.025,4.023-6.241,9.374-6.241,15.064c-0.001,5.69,2.216,11.04,6.24,15.063
						c4.023,4.024,9.373,6.24,15.064,6.24c5.69,0,11.04-2.216,15.063-6.24c8.307-8.306,8.307-21.822,0-30.128
						C76.716,15.587,71.366,13.372,65.676,13.372z"/>
				</g>
				<g>
					
						<rect x="61.763" y="9.292" transform="matrix(0.7071 0.7071 -0.7071 0.7071 43.1317 -35.7883)" fill="#D94128" width="6.006" height="49.757"/>
				</g>
			</g>
		</g>
	</g>
</g>
</svg>
