<?xml version="1.0" encoding="utf-8"?>
<!-- Generator: Adobe Illustrator 16.0.0, SVG Export Plug-In . SVG Version: 6.00 Build 0)  -->
<!DOCTYPE svg PUBLIC "-//W3C//DTD SVG 1.1//EN" "http://www.w3.org/Graphics/SVG/1.1/DTD/svg11.dtd">
<svg version="1.1" id="Layer_1" xmlns="http://www.w3.org/2000/svg" xmlns:xlink="http://www.w3.org/1999/xlink" x="0px" y="0px"
	 width="141.09px" height="105.441px" viewBox="0 0 141.09 105.441" enable-background="new 0 0 141.09 105.441"
	 xml:space="preserve">
<g>
	<path fill="#FFFFFF" d="M32.491,20.078c-1.123-7.385,11.402-3.99,15.117-5.826c1.336-0.662,1.688-1.625,3.236-1.889
		c1.525-0.26,2.557,0.436,3.834,0.896c3.182,1.148,7.48,2.578,9.525-0.77C67.837,6.541,68.999,0,77.543,0
		c9.06,0,35.056,13.045,38.728,15.088c7.25,4.035,17.66,12.57,22.131,19.943c6.869,11.324-1.528,19.34-2.024,20.674
		c-0.517,1.373-1.871,2.353-2.474,3.646c-1.483,3.188,0.425,5.627,0.947,8.795c1.063,6.401-5.894,8.09-10.144,10.68
		c-2.442,1.492-3.002,3.986-5.264,5.822c-1.307,1.063-2.465-0.14-3.68,1.146c-3.879,4.092-9.775,3.744-12.514,4.144
		c-4.537,0.662-4.236,0.608-6.117,4.588c-1.105,2.338-2.789,6.188-5.371,7.102c-3.35,1.185-8.393-0.61-11.494-1.215
		c-2.533-0.494-4.869-1.291-7.314-1.875c-2.496-0.594-5.587-0.252-7.876-1.416c-0.352,2.711-4.975,5.215-7.494,5.34
		c-1.133,0.06-2.625-0.987-3.598-0.801c-1.588,0.303-2.074,2.762-3.924,3.344c-2.619,0.822-8.934,0.531-11.016-1.211
		c-2.324-1.944-3.188-5.303-3.186-8.141c0.002-2.844,1.313-6.42,0.117-9.096c-0.967-2.166-3.426-3.47-5.402-3.957
		c-5.141-1.271-13.279-3.957-15.182,2.414c-0.883,2.952,0.168,6.146-0.475,9.145c-0.676,3.154-3.793,2.678-6.734,2.467
		c-6.592-0.471-6.895-7.08-6.016-12.215C3.255,78.051-1.956,72.006,0.831,66c1.221-2.637,4.57-4.879,6.512-7.098
		c2.246-2.572,4.902-4.564,7.768-6.451c4.543-2.992,8.648-7.08,13.631-9.41c4.459-2.084,7.672-5.021,11.57-7.744
		c3.68-2.571,1.049-5.266-0.371-8.514c-1.516-3.467-5.758-3.418-7.449-7.186L32.491,20.078L32.491,20.078z"/>
	<g>
		<path fill="#468885" d="M42.493,79.483l0.048,0.035c0.617-0.095,1.298-0.129,2.042-0.106c0.063,0.047,0.096,0.083,0.1,0.109
			c0.099-0.07,0.161-0.107,0.188-0.111c0.053-0.008,0.131,0.001,0.23,0.027c0.101,0.024,0.177,0.034,0.231,0.024l0.08-0.012
			l0.186,0.137c0.321-0.049,0.521-0.01,0.595,0.115l0.16-0.024c0.269-0.04,0.453,0,0.554,0.122c0.081-0.013,0.172,0.001,0.274,0.04
			c0.103,0.04,0.18,0.057,0.233,0.049c0.066,0.07,0.176,0.164,0.331,0.277c0.16-0.023,0.317,0.056,0.469,0.237
			c0.152,0.182,0.282,0.28,0.395,0.289c0.077,0.152,0.146,0.24,0.204,0.258c0.055,0.185,0.211,0.359,0.472,0.526
			c0.257,0.166,0.397,0.315,0.418,0.449c0.034,0.052,0.075,0.087,0.118,0.106c0.045,0.021,0.069,0.044,0.073,0.07
			c0.021,0.135,0.089,0.27,0.205,0.4c0.117,0.135,0.183,0.254,0.199,0.36l0.019,0.121c0.004,0.026,0.034,0.05,0.093,0.068
			l0.08-0.013c0.035,0.05,0.071,0.147,0.107,0.292c0.035,0.146,0.074,0.271,0.118,0.373c0.043,0.104,0.108,0.177,0.197,0.218
			l0.024,0.16c0.008,0.056,0.029,0.146,0.063,0.279s0.058,0.238,0.069,0.319c-0.055,0.008-0.102,0.057-0.143,0.146
			c0.008,0.054,0.041,0.09,0.1,0.108c0.029,0.022,0.047,0.048,0.051,0.072c-0.019,0.061-0.015,0.167,0.01,0.329
			c0.05,0.322,0.008,0.509-0.122,0.555c0.004,0.026,0.016,0.054,0.033,0.076c0.018,0.025,0.028,0.053,0.032,0.078
			c-0.092,0.123-0.123,0.279-0.095,0.468l-0.13,0.227c-0.113,0.154-0.207,0.265-0.278,0.33l0.076,0.236
			c-0.019,0.058-0.053,0.104-0.103,0.139s-0.086,0.067-0.108,0.098l-0.065,0.382c-0.021,0.224-0.08,0.369-0.18,0.438
			c0.008,0.055-0.01,0.119-0.053,0.193c-0.044,0.075-0.062,0.14-0.054,0.193l-0.201,0.03l-0.084,0.26
			c-0.099,0.07-0.225,0.247-0.372,0.53c-0.149,0.285-0.314,0.467-0.494,0.549c-0.021,0.032-0.039,0.104-0.049,0.214
			c-0.01,0.111-0.039,0.197-0.084,0.26l-0.08,0.013c-0.056,0.009-0.105,0.037-0.151,0.085c-0.049,0.05-0.1,0.077-0.153,0.085
			c0.004,0.027,0.004,0.063-0.004,0.104c-0.008,0.043-0.009,0.078-0.005,0.104c-0.02,0.058-0.072,0.113-0.159,0.168
			c-0.089,0.056-0.145,0.099-0.167,0.128c-0.05,0.036-0.113,0.06-0.193,0.072c-0.084,0.177-0.205,0.291-0.36,0.342
			c-0.019,0.059-0.071,0.128-0.153,0.209c-0.085,0.081-0.134,0.165-0.148,0.25c-0.355,0.189-0.581,0.417-0.679,0.679
			c0.087,0.207,0.137,0.352,0.148,0.432c0.024,0.16,0.013,0.355-0.036,0.582l0.047,0.033c0.026-0.004,0.056,0,0.085,0.007
			c0.027,0.012,0.044,0.028,0.048,0.057c-0.021,0.224-0.027,0.36-0.019,0.415c-0.022,0.031-0.058,0.076-0.102,0.139l-0.075,0.053
			c0.028,0.188,0.071,0.292,0.13,0.311c-0.023,0.031-0.034,0.095-0.034,0.189c0.002,0.097-0.036,0.163-0.113,0.202
			c0.063,0.046,0.104,0.135,0.124,0.271c0.009,0.054,0.014,0.136,0.017,0.245c0.003,0.108,0.009,0.19,0.018,0.243l0.019,0.121
			c-0.023,0.031-0.032,0.114-0.025,0.251c0.007,0.137-0.011,0.234-0.058,0.298c0.098,0.095,0.129,0.214,0.097,0.355
			c0.004,0.027,0.028,0.05,0.071,0.07c0.045,0.021,0.072,0.059,0.08,0.111c-0.044,0.254-0.062,0.407-0.054,0.46
			c-0.083,0.18-0.126,0.351-0.129,0.516L46.703,98.2c-0.05,0.035-0.088,0.055-0.114,0.059c-0.046,0.419-0.131,0.681-0.252,0.78
			c0.001,0.191-0.174,0.396-0.524,0.615c-0.199,0.14-0.338,0.216-0.419,0.229c-0.103,0.043-0.301,0.087-0.597,0.133
			c-0.153,0.077-0.243,0.118-0.271,0.123l-0.12,0.019c-0.08,0.012-0.184,0.015-0.309,0.007c-0.124-0.009-0.213-0.01-0.268-0.001
			l-0.08,0.012l-0.174-0.056l-0.12,0.02c-0.055,0.008-0.137,0.007-0.247-0.004c-0.111-0.012-0.223-0.009-0.33,0.009
			c-0.034-0.05-0.115-0.093-0.245-0.128c-0.129-0.034-0.209-0.063-0.239-0.088c-0.05,0.035-0.111,0.038-0.185,0.009
			c-0.073-0.029-0.123-0.043-0.15-0.039c-0.058-0.018-0.09-0.055-0.099-0.107c-0.458-0.122-0.705-0.306-0.741-0.547l-0.14-0.102
			c-0.004-0.027,0.006-0.051,0.031-0.067c0.024-0.018,0.021-0.037-0.01-0.06l-0.121,0.019c-0.244-0.705-0.395-1.148-0.449-1.333
			c-0.031-0.021-0.065-0.064-0.102-0.128c-0.038-0.063-0.085-0.104-0.142-0.123c-0.037-0.24-0.099-0.369-0.183-0.385
			c-0.004-0.025-0.008-0.054-0.012-0.08l0.032-0.046c-0.078-0.153-0.168-0.387-0.271-0.7s-0.155-0.483-0.159-0.51
			c-0.078-0.154-0.121-0.257-0.13-0.313c-0.012-0.08-0.007-0.136,0.016-0.167c-0.035-0.049-0.076-0.234-0.126-0.557l-0.064-0.154
			c-0.012-0.082,0.003-0.152,0.05-0.215c-0.063-0.045-0.091-0.102-0.087-0.172c0.002-0.068-0.015-0.127-0.049-0.178
			c0.041-0.09,0.06-0.324,0.058-0.709c-0.045-0.296-0.046-0.475,0-0.535c-0.008-0.055-0.031-0.07-0.068-0.053
			c-0.039,0.021-0.061,0.018-0.064-0.01c-0.009-0.055,0.01-0.11,0.056-0.174c0.046-0.062,0.064-0.119,0.056-0.173
			c-0.065-0.073-0.114-0.12-0.145-0.145l-0.036-0.241l-0.013-0.08c-0.012-0.08-0.007-0.186,0.014-0.312
			c0.022-0.127,0.022-0.256,0.002-0.392l-0.002-0.288l-0.053-0.073c-0.03-0.021-0.048-0.048-0.053-0.074l-0.012-0.082
			c-0.033-0.214,0.016-0.439,0.143-0.681c-0.035-0.048-0.137-0.089-0.307-0.118c-0.038-0.076-0.028-0.188,0.032-0.333
			c-0.078-0.152-0.122-0.257-0.13-0.311c-0.009-0.054-0.011-0.204-0.006-0.451c0.003-0.249-0.022-0.368-0.076-0.36
			c0.065-0.118,0.084-0.26,0.06-0.421c-0.029-0.188-0.089-0.314-0.182-0.384c-0.009-0.054-0.017-0.106-0.024-0.16
			c-0.009-0.055-0.03-0.104-0.065-0.156c0.087-0.149,0.115-0.318,0.087-0.507c-0.078-0.152-0.118-0.242-0.123-0.27l-0.055-0.362
			c0.022-0.031,0.044-0.069,0.064-0.113c0.021-0.044,0.044-0.081,0.066-0.112l-0.088-0.027c-0.026,0.004-0.041-0.007-0.045-0.034
			c-0.004-0.026-0.002-0.096,0.009-0.208c0.011-0.109,0.012-0.191,0.004-0.247c-0.004-0.024-0.042-0.09-0.111-0.188
			c0.076-0.039,0.11-0.127,0.104-0.265c-0.007-0.136,0.015-0.222,0.064-0.257c-0.004-0.024-0.01-0.065-0.019-0.12l-0.052-0.073
			c0.063-0.119,0.07-0.342,0.021-0.663l-0.012-0.081c-0.036-0.049-0.055-0.088-0.059-0.113c-0.004-0.027,0.013-0.092,0.054-0.193
			c0.038-0.104,0.054-0.181,0.046-0.234c-0.008-0.053-0.027-0.133-0.057-0.237c-0.03-0.104-0.048-0.171-0.052-0.197l-0.019-0.122
			c0.016-0.085,0.057-0.215,0.127-0.391c0.069-0.175,0.111-0.305,0.126-0.389c0.022-0.03,0.029-0.073,0.021-0.127
			c0.047-0.063,0.082-0.096,0.11-0.1c-0.004-0.026-0.006-0.074-0.002-0.144c0.004-0.069,0.016-0.119,0.039-0.151
			c0.019-0.058,0.075-0.134,0.171-0.23c0.094-0.098,0.152-0.174,0.17-0.231c0.022-0.031,0.083-0.088,0.18-0.172
			c0.098-0.082,0.168-0.156,0.214-0.218c0.054-0.009,0.118-0.045,0.19-0.111c0.071-0.064,0.134-0.104,0.188-0.111
			c0.055-0.009,0.16-0.029,0.32-0.067c0.159-0.038,0.275-0.077,0.352-0.116c0.605-0.174,0.973-0.286,1.104-0.333
			c0.026-0.004,0.07,0.017,0.134,0.063c0.151-0.08,0.322-0.134,0.51-0.161l0.121-0.02C42.472,79.611,42.506,79.564,42.493,79.483z
			 M39.362,91.369c0.004,0.027-0.009,0.043-0.035,0.047l0.007,0.04C39.355,91.426,39.366,91.396,39.362,91.369z M45.332,81.894
			c-0.027,0.004-0.099,0.027-0.215,0.073c-0.117,0.047-0.218,0.063-0.303,0.047l-0.52,0.367c-0.073,0.066-0.095,0.192-0.066,0.38
			l0.031,0.201c0.004,0.027-0.022,0.126-0.078,0.302c0.005,0.025,0.026,0.085,0.067,0.175c0.042,0.09,0.049,0.137,0.021,0.142
			c0.008,0.054,0.046,0.115,0.111,0.188c0.066,0.072,0.101,0.123,0.104,0.147c0.033,0.217,0.071,0.375,0.115,0.479l0.006,0.04
			l0.051,0.073c0.036,0.052,0.063,0.144,0.084,0.276c0.021,0.135,0.035,0.229,0.043,0.282c0.031,0.021,0.104,0.229,0.219,0.625
			c0.07,0.1,0.113,0.203,0.13,0.31l0.012,0.08c0.054-0.008,0.111,0.012,0.174,0.058c0.054-0.009,0.096-0.05,0.125-0.122
			c0.03-0.073,0.06-0.111,0.087-0.116c0.029,0.021,0.077,0.016,0.141-0.021c0.063-0.037,0.106-0.059,0.133-0.063
			c0.035-0.143,0.159-0.354,0.379-0.634c0.218-0.28,0.323-0.529,0.318-0.749l0.103-0.14c-0.021-0.134-0.021-0.313,0-0.535
			c0.021-0.222,0.026-0.375,0.014-0.454c-0.049-0.322-0.097-0.535-0.139-0.64c-0.021-0.134-0.108-0.258-0.264-0.372
			c-0.092-0.066-0.213-0.146-0.364-0.232c-0.093-0.067-0.166-0.099-0.22-0.089l-0.092-0.068
			C45.481,81.885,45.412,81.881,45.332,81.894z"/>
	</g>
	<g>
		<path fill="#468885" d="M53.577,76.869l0.241-0.037l0.26,0.083c0.269-0.04,0.418-0.05,0.449-0.025
			c0.049-0.035,0.141-0.063,0.276-0.084c0.08-0.013,0.225-0.007,0.434,0.016c0.21,0.023,0.368,0.027,0.476,0.011
			c0.088,0.043,0.227,0.09,0.413,0.145c0.187,0.055,0.33,0.101,0.434,0.141c0.102,0.039,0.21,0.119,0.325,0.238
			c0.114,0.12,0.195,0.258,0.248,0.415c0.034,0.05,0.098,0.096,0.186,0.137c0.088,0.042,0.148,0.074,0.18,0.096
			c0.029,0.023,0.059,0.081,0.087,0.173c0.028,0.093,0.044,0.151,0.048,0.179c0.004,0.026,0.021,0.052,0.053,0.075l0.053,0.072
			l0.037,0.241c0.004,0.027,0.045,0.083,0.128,0.167c0.081,0.084,0.125,0.152,0.134,0.205c0.008,0.054,0.024,0.12,0.051,0.199
			c0.026,0.078,0.056,0.143,0.091,0.19c0.009,0.056,0.031,0.118,0.071,0.195c0.039,0.076,0.062,0.128,0.065,0.154l0.019,0.122
			c0.008,0.054,0.013,0.128,0.013,0.224c0.001,0.097,0.003,0.157,0.007,0.184c0.005,0.027,0.038,0.063,0.1,0.109
			c0.009,0.055,0.037,0.152,0.086,0.295c0.049,0.145,0.08,0.256,0.093,0.337c0.082,0.181,0.117,0.326,0.108,0.438
			c0.008,0.054,0.014,0.142,0.02,0.265c0.003,0.122,0.013,0.225,0.025,0.305l0.024,0.161c0.103,0.313,0.164,0.539,0.185,0.672
			c0.023,0.16,0.016,0.286-0.025,0.375c0.004,0.026,0.023,0.064,0.06,0.114c0.033,0.051,0.056,0.102,0.063,0.155
			c0.004,0.026,0.002,0.062-0.005,0.104c-0.007,0.043-0.008,0.077-0.004,0.104l0.052,0.074c0.004,0.026,0.008,0.055,0.012,0.079
			l0.007,0.041c-0.022,0.031-0.031,0.062-0.027,0.088c0.005,0.025,0.02,0.087,0.046,0.179c0.028,0.091,0.047,0.164,0.055,0.217
			l0.053,0.074c0.034,0.05,0.055,0.089,0.059,0.115c0.009,0.054,0.006,0.137-0.003,0.248c-0.046,0.063-0.063,0.118-0.056,0.173
			c0.004,0.025,0.021,0.094,0.049,0.197c0.03,0.105,0.05,0.187,0.058,0.238c-0.018,0.06-0.024,0.102-0.021,0.127
			c0.004,0.027,0.015,0.095,0.03,0.201c0.017,0.107-0.003,0.165-0.056,0.173c0.102,0.123,0.158,0.237,0.175,0.345
			c0.004,0.027,0.007,0.09,0.007,0.185c0.002,0.097,0.007,0.171,0.016,0.225c-0.047,0.063-0.064,0.12-0.057,0.173
			c0.056,0.733,0.063,1.132,0.017,1.192c0.118,0.229,0.198,0.492,0.243,0.787c0.033,0.215,0.03,0.38-0.007,0.495
			c0.086,0.206,0.14,0.376,0.16,0.511s0.008,0.232-0.038,0.293c0.036,0.051,0.07,0.155,0.109,0.314
			c0.038,0.158,0.062,0.264,0.07,0.317l-0.103,0.14c0.034,0.051,0.06,0.129,0.076,0.235c0.017,0.106,0.023,0.243,0.021,0.408
			c-0.003,0.165,0.003,0.288,0.015,0.368l0.025,0.162c-0.061,0.146-0.103,0.234-0.125,0.266c0.037,0.241,0.044,0.377,0.021,0.408
			l0.037,0.241c0.045,0.296,0.025,0.612-0.06,0.956l0.145,0.679c0.057,0.376-0.016,0.62-0.219,0.733
			c0.031,0.022,0.052,0.061,0.06,0.114c0.009,0.055-0.009,0.124-0.05,0.213c-0.043,0.089-0.059,0.16-0.051,0.215
			c-0.045,0.063-0.148,0.192-0.31,0.396c-0.161,0.203-0.306,0.341-0.432,0.415l-0.154,0.064c-0.294,0.236-0.468,0.359-0.521,0.367
			c-0.671,0.104-1.118,0.145-1.341,0.122c-0.027,0.004-0.099-0.013-0.214-0.05c-0.115-0.037-0.202-0.064-0.26-0.085
			c-0.027,0.004-0.102-0.038-0.226-0.131c-0.389-0.022-0.683-0.156-0.885-0.4c-0.139-0.005-0.278-0.072-0.423-0.203
			c-0.143-0.129-0.229-0.204-0.26-0.228c-0.044-0.104-0.134-0.24-0.27-0.411c-0.136-0.173-0.227-0.31-0.268-0.413
			c-0.036-0.049-0.067-0.12-0.096-0.212c-0.027-0.092-0.045-0.164-0.053-0.219c-0.08-0.152-0.123-0.271-0.136-0.35l-0.073-0.483
			c-0.013-0.081-0.065-0.244-0.158-0.49c-0.093-0.247-0.166-0.463-0.222-0.646c-0.056-0.185-0.111-0.463-0.169-0.841
			c-0.043-0.104-0.081-0.262-0.113-0.477c-0.025-0.161-0.015-0.271,0.03-0.334c-0.062-0.046-0.104-0.15-0.129-0.311
			c-0.008-0.055-0.011-0.163-0.009-0.328s-0.003-0.289-0.016-0.369l-0.043-0.281c-0.036-0.24-0.02-0.409,0.048-0.501
			c-0.004-0.026-0.027-0.051-0.072-0.072c-0.044-0.02-0.071-0.058-0.079-0.109c-0.008-0.056-0.01-0.109-0.004-0.165
			c0.005-0.057,0.004-0.109-0.004-0.163l-0.093-0.604c-0.061-0.402-0.082-0.715-0.061-0.938c-0.035-0.05-0.063-0.143-0.083-0.276
			c-0.016-0.105-0.015-0.271,0.007-0.495c0.021-0.223,0.028-0.359,0.02-0.415l-0.013-0.08c-0.035-0.05-0.054-0.087-0.058-0.113
			l0.027-0.087c-0.004-0.026-0.008-0.055-0.012-0.08c-0.017-0.107-0.043-0.282-0.08-0.523s-0.051-0.418-0.04-0.529
			c-0.003-0.384-0.019-0.67-0.047-0.857c-0.004-0.026,0.015-0.07,0.062-0.134c-0.009-0.054-0.028-0.091-0.06-0.113
			c-0.03-0.022-0.049-0.062-0.058-0.115l-0.021-0.944l-0.007-0.039L52.4,82.692c-0.013-0.08-0.002-0.187,0.034-0.314
			c0.035-0.129,0.049-0.22,0.041-0.273c-0.013-0.08-0.03-0.235-0.05-0.466c-0.023-0.229-0.026-0.388-0.011-0.473l0.089-0.219
			c-0.006-0.411,0.037-0.665,0.132-0.763c-0.004-0.025-0.021-0.052-0.052-0.074c-0.031-0.021-0.051-0.061-0.059-0.113
			c0.028-0.17,0.039-0.281,0.031-0.336l-0.074-0.482c-0.008-0.053,0.004-0.149,0.038-0.294c0.032-0.142,0.046-0.239,0.038-0.294
			c-0.029-0.188-0.096-0.438-0.197-0.752c0.045-0.063,0.071-0.161,0.077-0.301c0.007-0.137,0.021-0.222,0.044-0.254
			C52.703,77.084,53.066,76.946,53.577,76.869z"/>
	</g>
	<g>
		<path fill="#BE1E2D" d="M102.931,65.736l0.442-0.067c0.877-0.188,1.66-0.279,2.347-0.274c0.026-0.004,0.063,0.004,0.108,0.023
			c0.043,0.021,0.078,0.03,0.105,0.025c0.109,0.011,0.242,0.019,0.395,0.021c0.151,0.003,0.271,0.027,0.359,0.067
			c0.004,0.027,0.038,0.063,0.1,0.109c0.026-0.004,0.082,0.002,0.166,0.016c0.086,0.015,0.157,0.032,0.215,0.049
			c0.146,0.062,0.33,0.191,0.554,0.392c0.223,0.198,0.405,0.315,0.548,0.35l0.503,0.87c0.272,0.534,0.422,0.869,0.442,1.004
			c0.049,0.321,0.104,0.506,0.164,0.551c-0.014,0.085-0.012,0.194,0.01,0.328c0.049,0.321,0.175,0.522,0.38,0.602
			c0.013,0.08,0.012,0.171,0,0.27c-0.013,0.098-0.015,0.174-0.007,0.227c0.004,0.027,0.031,0.064,0.078,0.111
			c0.049,0.048,0.078,0.099,0.086,0.152c0.004,0.025-0.002,0.083-0.018,0.167c-0.015,0.084-0.018,0.152-0.009,0.206l0.013,0.082
			c0.008,0.055,0.047,0.081,0.115,0.085c0.069,0.003,0.105,0.019,0.11,0.045c0.004,0.026,0.002,0.062-0.007,0.104
			c-0.006,0.042-0.008,0.077-0.004,0.104c0.013,0.08,0.049,0.191,0.113,0.333c0.061,0.143,0.098,0.239,0.104,0.293l0.013,0.082
			c0.004,0.024-0.004,0.067-0.021,0.126c-0.02,0.058-0.024,0.112-0.017,0.166c0.017,0.107,0.013,0.177-0.01,0.208
			c0.063,0.046,0.112,0.162,0.155,0.348c0.041,0.187,0.095,0.301,0.156,0.346c-0.015,0.085-0.013,0.194,0.008,0.328
			c0.029,0.188,0.099,0.37,0.207,0.546c-0.015,0.085-0.006,0.234,0.026,0.449c0.041,0.269,0.001,0.452-0.12,0.553
			c0.004,0.027,0.016,0.067,0.038,0.118c0.021,0.052,0.034,0.092,0.038,0.118c0.025,0.161-0.025,0.291-0.146,0.393l0.063,0.403
			c0.041,0.269,0.029,0.463-0.033,0.581c0.004,0.027,0.041,0.104,0.115,0.229c-0.011,0.111-0.011,0.193-0.003,0.248
			c0.034,0.051,0.062,0.129,0.077,0.233c0.016,0.107,0.053,0.171,0.111,0.189c-0.082,0.012-0.153,0.078-0.219,0.196
			c0.012,0.08,0.063,0.185,0.149,0.309s0.138,0.226,0.149,0.306c0.004,0.027-0.008,0.084-0.035,0.172
			c-0.028,0.086-0.037,0.156-0.029,0.209l0.014,0.081c0.016,0.107,0.063,0.244,0.143,0.411c0.082,0.166,0.125,0.276,0.135,0.329
			c0.064,0.072,0.143,0.171,0.229,0.295c0.09,0.124,0.151,0.225,0.19,0.301c0.049,0.322,0.261,0.626,0.634,0.912
			c0.372,0.286,0.577,0.455,0.612,0.504c0.049-0.035,0.142-0.063,0.276-0.083c0.24-0.037,0.422-0.01,0.547,0.081
			c0.021,0.135,0.063,0.292,0.134,0.476c0.067,0.181,0.108,0.312,0.122,0.392c0.008,0.055-0.004,0.166-0.032,0.335
			c-0.021,0.059-0.05,0.117-0.097,0.18c-0.045,0.063-0.065,0.105-0.063,0.134c-0.021,0.031-0.035,0.074-0.042,0.131
			c-0.006,0.056-0.006,0.097-0.002,0.123c-0.112,0.154-0.164,0.271-0.151,0.353c-0.305,0.351-0.476,0.581-0.512,0.695l-0.08,0.013
			c-0.107,0.018-0.242,0.086-0.402,0.206c-0.159,0.12-0.295,0.188-0.399,0.205c-0.056,0.008-0.093,0.027-0.114,0.059
			c-0.229,0.116-0.398,0.186-0.506,0.2c-0.16,0.024-0.273,0.015-0.335-0.032c-0.231,0.092-0.554,0.101-0.964,0.023
			c-0.409-0.074-0.682-0.197-0.816-0.369c-0.225-0.021-0.541-0.207-0.951-0.556c-0.273-0.177-0.432-0.307-0.469-0.382l-0.06-0.114
			c-0.039-0.076-0.074-0.126-0.104-0.147c-0.031-0.022-0.15-0.088-0.358-0.192c-0.138,0.186-0.245,0.285-0.326,0.297
			c-0.054,0.009-0.097,0.001-0.126-0.022l0.043,0.282c-0.051,0.035-0.152,0.126-0.309,0.272s-0.289,0.229-0.396,0.246
			c-0.027,0.005-0.033,0.046-0.021,0.127l0.02,0.119c-0.249,0.177-0.427,0.354-0.537,0.535c-0.134,0.021-0.295,0.094-0.48,0.218
			c-0.188,0.125-0.348,0.197-0.481,0.219l-0.12,0.018c-0.177,0.11-0.41,0.187-0.707,0.23l-0.24,0.037
			c-0.027,0.004-0.07-0.002-0.127-0.021l-0.041,0.006l-0.322,0.049l-0.381-0.064c-0.223-0.021-0.352-0.057-0.388-0.106
			c-0.03-0.021-0.058-0.019-0.079,0.014c-0.021,0.03-0.048,0.049-0.074,0.053l-0.186-0.137c-0.141-0.007-0.311-0.049-0.516-0.128
			c-0.202-0.078-0.319-0.116-0.346-0.112c-0.031-0.022-0.166-0.091-0.401-0.207c-0.238-0.113-0.404-0.219-0.501-0.314
			c-0.241,0.036-0.508,0.01-0.797-0.084l-0.312-0.158c-0.03-0.022-0.129-0.116-0.291-0.285c-0.062-0.044-0.161-0.112-0.299-0.201
			s-0.251-0.161-0.342-0.216s-0.157-0.135-0.2-0.236c-0.089-0.042-0.32-0.296-0.691-0.761c-0.004-0.026-0.063-0.032-0.168-0.018
			c0.019-0.057,0.02-0.098,0.002-0.123c-0.02-0.022-0.029-0.051-0.033-0.076l-0.086-0.028l-0.088-0.027
			c-0.033-0.05-0.125-0.159-0.274-0.329c-0.149-0.169-0.237-0.335-0.263-0.496c-0.012-0.08-0.035-0.145-0.069-0.192l-0.046-0.035
			c-0.031-0.022-0.049-0.047-0.053-0.074l-0.02-0.121c-0.027-0.187-0.113-0.388-0.257-0.6c-0.142-0.21-0.222-0.371-0.237-0.479
			c-0.013-0.08-0.015-0.183-0.006-0.308c0.01-0.125,0.01-0.213,0.001-0.268s-0.036-0.104-0.085-0.152
			c-0.048-0.048-0.076-0.098-0.084-0.152L95.75,79.19c-0.008-0.054-0.013-0.129-0.014-0.225c0-0.096-0.003-0.157-0.007-0.186
			c0.006-0.139-0.01-0.369-0.045-0.693c-0.035-0.322-0.049-0.555-0.043-0.691l0.073-0.055c0.027-0.004,0.039-0.019,0.035-0.046
			c0.019-0.058-0.002-0.096-0.061-0.114c-0.059-0.018-0.088-0.04-0.092-0.067c0.014-0.085,0.029-0.382,0.049-0.895
			c0.018-0.511,0.063-0.895,0.135-1.15c0.053-0.009,0.092-0.028,0.113-0.061c0.023-0.03,0.037-0.067,0.046-0.109
			c0.007-0.042,0.021-0.078,0.044-0.109c-0.008-0.054-0.027-0.093-0.059-0.115c-0.063-0.046-0.096-0.081-0.1-0.107
			c-0.023-0.16,0.021-0.318,0.135-0.475c-0.037-0.24-0.01-0.424,0.08-0.547l-0.013-0.081c-0.012-0.08,0.058-0.351,0.206-0.813
			c0.057-0.174,0.1-0.263,0.125-0.268c-0.025,0.005-0.047-0.033-0.059-0.113c0.095-0.098,0.181-0.295,0.259-0.597
			c0.078-0.3,0.176-0.514,0.294-0.643c0.133-0.567,0.352-1.027,0.654-1.376c-0.012-0.08,0-0.178,0.037-0.294
			c0.023-0.029,0.058-0.084,0.101-0.159c0.043-0.074,0.075-0.142,0.093-0.199l0.201-0.029c0.073-0.066,0.211-0.19,0.418-0.373
			c0.204-0.184,0.371-0.311,0.496-0.386c0.02-0.057,0.05-0.124,0.096-0.198c0.043-0.075,0.075-0.128,0.098-0.159
			c0.051-0.035,0.091-0.042,0.121-0.02c0.125-0.073,0.283-0.208,0.476-0.4c0.049-0.035,0.121-0.102,0.217-0.198
			c0.095-0.097,0.181-0.164,0.259-0.203c0.047-0.035,0.125-0.075,0.229-0.118c0.104-0.042,0.179-0.082,0.229-0.117l0.264-0.162
			c0.457-0.234,0.699-0.367,0.722-0.398c0.03,0.023,0.088,0.027,0.168,0.016c0.106-0.017,0.206-0.087,0.297-0.21
			c0.026-0.004,0.08-0.019,0.158-0.045c0.079-0.025,0.146-0.028,0.205-0.01C102.481,65.859,102.663,65.777,102.931,65.736z
			 M102.429,71.908c-0.283,0.125-0.533,0.287-0.75,0.484c0.004,0.026-0.011,0.063-0.044,0.108c-0.035,0.047-0.037,0.082-0.006,0.104
			c-0.307,0.155-0.488,0.308-0.549,0.454c0.008,0.055-0.004,0.109-0.035,0.169c-0.033,0.062-0.047,0.104-0.043,0.131
			c-0.022,0.031-0.041,0.096-0.053,0.192c-0.013,0.1-0.043,0.18-0.087,0.239l0.063,0.155c-0.104,0.044-0.143,0.146-0.117,0.307
			c0.059,0.377,0.072,0.661,0.048,0.858c0.06,0.019,0.095,0.081,0.11,0.188c0.005,0.026-0.004,0.069-0.021,0.126
			c-0.021,0.06-0.036,0.124-0.053,0.194c-0.019,0.07-0.022,0.12-0.021,0.146c0.03,0.022,0.053,0.073,0.065,0.153
			c0.009,0.056,0,0.14-0.024,0.252c-0.022,0.112-0.031,0.196-0.022,0.251c0.017,0.107,0.099,0.189,0.244,0.25
			c-0.015,0.085,0.04,0.173,0.163,0.264c-0.045,0.063-0.064,0.162-0.057,0.298c0.006,0.137-0.027,0.238-0.1,0.303
			c0.07,0.101,0.113,0.203,0.129,0.312c0.01,0.055-0.001,0.166-0.031,0.334c0.006,0.026,0.035,0.05,0.094,0.067
			c0.059,0.021,0.09,0.042,0.094,0.068c-0.02,0.058,0.031,0.119,0.15,0.184c0.03,0.022,0.063,0.046,0.094,0.068
			c0.031,0.021,0.047,0.04,0.049,0.053c0.002,0.015,0.02,0.033,0.05,0.055c0.005,0.027,0.036,0.059,0.097,0.089
			c0.059,0.032,0.094,0.075,0.102,0.129c0.017,0.107,0.018,0.204,0.004,0.288c0.057,0.02,0.125,0.063,0.204,0.134
			c0.079,0.069,0.147,0.115,0.206,0.134l0.086,0.563c0.058,0.018,0.173,0.049,0.344,0.091c0.172,0.043,0.301,0.085,0.391,0.127
			c0.034,0.05,0.221,0.104,0.561,0.161c0.004,0.026,0.031,0.035,0.086,0.027c0.027-0.004,0.057,0.005,0.087,0.027
			c0.085,0.016,0.194,0.013,0.328-0.008c0.169,0.028,0.267,0.041,0.294,0.037c0.025-0.004,0.064-0.022,0.115-0.06
			c0.049-0.035,0.101-0.056,0.154-0.063l-0.019-0.121c0.284-0.29,0.463-0.564,0.532-0.822c0.023-0.03,0.06-0.063,0.109-0.1
			l0.073-0.054l-0.046-0.033l-0.006-0.039c-0.014-0.08,0.049-0.214,0.186-0.399l-0.006-0.04c-0.017-0.106,0.051-0.214,0.198-0.319
			c-0.062-0.044-0.082-0.083-0.06-0.113c0.047-0.063,0.074-0.148,0.084-0.261c-0.008-0.053-0.002-0.108,0.017-0.168
			c-0.004-0.024,0.017-0.069,0.063-0.132c0.045-0.062,0.078-0.122,0.097-0.181c0.153-0.436,0.224-0.692,0.212-0.772
			c0.021-0.222,0.056-0.352,0.105-0.387c-0.08,0.012-0.125-0.009-0.135-0.063c-0.02-0.134,0.02-0.235,0.118-0.307
			c-0.045-0.295-0.028-0.558,0.045-0.789c-0.08,0.014-0.125-0.008-0.133-0.062c0.015-0.086-0.005-0.212-0.06-0.383
			c-0.054-0.17-0.072-0.298-0.059-0.383c-0.004-0.026,0.008-0.043,0.035-0.047c0.025-0.004,0.038-0.02,0.033-0.046
			c-0.004-0.025-0.008-0.054-0.012-0.081l-0.047-0.034c-0.004-0.025,0.028-0.086,0.096-0.18c-0.004-0.025-0.01-0.065-0.019-0.121
			l-0.053-0.074l0.034-0.046c-0.008-0.054-0.014-0.094-0.02-0.121l-0.072-0.481c-0.054-0.349-0.117-0.586-0.19-0.713l0.034-0.046
			L106,72.389c-0.11-0.01-0.211-0.117-0.297-0.324l-0.322,0.049l-0.139-0.104l-0.08,0.013c-0.107,0.017-0.242-0.004-0.399-0.063
			c-0.161-0.059-0.281-0.081-0.361-0.068l-0.153,0.063c-0.063-0.044-0.121-0.063-0.176-0.055l-0.16,0.023
			c-0.162,0.024-0.279,0.058-0.355,0.096l-0.186-0.137l-0.121,0.02c-0.133,0.021-0.285,0.021-0.453,0.007
			C102.633,71.896,102.511,71.896,102.429,71.908z"/>
	</g>
	<g>
		<path fill="#231F20" d="M70.848,74.974l0.354,0.103c0.445,0.214,0.682,0.325,0.707,0.333l0.861,0.249
			c0.025,0.008,0.061,0.032,0.105,0.074l0.066,0.062c0.313,0.091,0.486,0.17,0.523,0.237c0.033-0.019,0.115-0.01,0.246,0.028
			c0.053,0.016,0.119,0.033,0.195,0.058c0.078,0.022,0.157,0.045,0.234,0.067c0.078,0.021,0.131,0.038,0.156,0.046
			s0.074,0.036,0.146,0.084c0.07,0.05,0.132,0.081,0.185,0.096c0.043,0.042,0.129,0.095,0.25,0.158
			c0.123,0.063,0.189,0.126,0.201,0.186l0.078,0.022c0.104,0.03,0.217,0.104,0.338,0.226c0.119,0.119,0.205,0.188,0.258,0.202
			c0.026,0.206,0.139,0.353,0.34,0.438c0.004,0.086,0.047,0.184,0.128,0.292c0.081,0.107,0.132,0.18,0.149,0.213
			c-0.016,0.053-0.041,0.095-0.078,0.125c-0.037,0.032-0.062,0.061-0.068,0.087c-0.033,0.019-0.044,0.058-0.034,0.117l0.028,0.051
			l-0.012,0.039c-0.033,0.019-0.056,0.041-0.063,0.065l0.027,0.052c-0.008,0.025-0.015,0.053-0.021,0.077
			c-0.068,0.038-0.104,0.069-0.111,0.096c-0.009,0.025-0.014,0.066-0.016,0.123s-0.008,0.097-0.016,0.123
			c-0.082,0.089-0.143,0.198-0.18,0.329l-0.022,0.077c-0.022,0.078-0.029,0.177-0.021,0.291c0.008,0.116,0.008,0.188,0.002,0.213
			c-0.023,0.078-0.111,0.138-0.265,0.178c0.04,0.153-0.013,0.236-0.158,0.251c0.003,0.086-0.014,0.193-0.051,0.325
			c-0.062,0.209-0.224,0.443-0.481,0.707c-0.261,0.264-0.427,0.471-0.498,0.618c-0.061,0.013-0.131,0.04-0.215,0.087
			c-0.086,0.047-0.145,0.078-0.178,0.098c-0.008,0.024,0.004,0.058,0.036,0.094c0.03,0.038,0.039,0.083,0.024,0.136
			c-0.043,0.045-0.123,0.077-0.242,0.1l-0.012,0.039c0.02,0.034,0.024,0.063,0.019,0.09c-0.022,0.078-0.119,0.164-0.287,0.256
			c-0.06,0.012-0.103,0.013-0.128,0.006c-0.229,0.104-0.426,0.244-0.59,0.422l-0.068,0.234l-0.039-0.011
			c-0.033,0.019-0.063,0.022-0.089,0.017c-0.022,0.078-0.085,0.145-0.187,0.2c-0.008,0.025-0.027,0.069-0.06,0.131
			c-0.03,0.062-0.065,0.102-0.101,0.12c-0.031,0.018-0.108,0.038-0.229,0.061c-0.033,0.019-0.063,0.023-0.09,0.017
			s-0.057-0.002-0.09,0.017c-0.042,0.046-0.045,0.108-0.012,0.188c0.031,0.081,0.045,0.134,0.037,0.159s-0.066,0.085-0.18,0.182
			c-0.111,0.095-0.197,0.146-0.257,0.158l-0.091,0.017c-0.025-0.008-0.041,0.002-0.049,0.027c-0.034,0.019-0.094,0.072-0.176,0.161
			c-0.168,0.094-0.26,0.164-0.274,0.218c-0.007,0.025-0.001,0.099,0.021,0.218c-0.034,0.019-0.09,0.066-0.169,0.142
			c-0.078,0.077-0.147,0.12-0.207,0.132l-0.033,0.116l-0.114,0.392c-0.053,0.184-0.166,0.276-0.337,0.284
			c-0.008,0.025-0.011,0.061-0.01,0.104c0.003,0.043-0.001,0.078-0.009,0.104c-0.034,0.019-0.066,0.059-0.098,0.118
			c-0.033,0.063-0.072,0.107-0.124,0.135c-0.05,0.027-0.104,0.048-0.165,0.058c0.004,0.086-0.022,0.179-0.079,0.274
			c-0.068,0.036-0.111,0.037-0.129,0.005c-0.034,0.019-0.042,0.045-0.022,0.078c0.018,0.032,0.023,0.063,0.017,0.09
			c-0.016,0.053-0.052,0.077-0.107,0.074c-0.057-0.002-0.087,0.011-0.095,0.036l0.049,0.269c-0.075,0.063-0.159,0.109-0.252,0.14
			c-0.105,0.167-0.171,0.247-0.196,0.239c0.018,0.034,0.016,0.09-0.007,0.168c-0.053,0.183-0.233,0.313-0.539,0.395l-0.068,0.234
			c-0.034,0.02-0.089,0.017-0.167-0.006c-0.049,0.07-0.135,0.145-0.256,0.223c-0.122,0.077-0.211,0.165-0.267,0.263
			c0.018,0.032,0.079,0.064,0.184,0.096c0.443,0.129,0.674,0.21,0.693,0.244l0.05-0.028c0.033-0.019,0.063-0.024,0.09-0.017
			c0.111,0.004,0.324,0.052,0.637,0.143c0.209,0.061,0.361,0.119,0.458,0.176c0.173-0.006,0.297,0.001,0.374,0.023
			c0.078,0.022,0.206,0.066,0.386,0.134c0.179,0.065,0.32,0.114,0.426,0.146c0.155,0.045,0.263,0.063,0.322,0.052
			c0.044,0.041,0.184,0.103,0.414,0.184c0.23,0.082,0.359,0.168,0.391,0.262c0.025,0.008,0.061,0.012,0.104,0.01
			c0.042-0.002,0.09,0.005,0.143,0.021c0.151,0.157,0.424,0.292,0.814,0.405l0.316,0.22c-0.008,0.026,0.037,0.188,0.135,0.484
			c0.099,0.298,0.119,0.537,0.066,0.72l-0.045,0.156l-0.252,0.139l0.083,0.151l-0.409,0.39c-0.121,0.021-0.248,0.098-0.386,0.229
			c-0.138,0.13-0.239,0.214-0.306,0.25c-0.112-0.004-0.328-0.038-0.647-0.104c-0.321-0.063-0.567-0.094-0.738-0.087
			c-0.157-0.046-0.244-0.085-0.263-0.119c-0.025-0.007-0.063,0.003-0.114,0.03c-0.052,0.027-0.089,0.038-0.114,0.03L70.14,93.9
			c-0.105-0.03-0.321-0.064-0.649-0.104l-0.234-0.067c-0.183-0.054-0.324-0.053-0.425,0.004c-0.026-0.008-0.068-0.014-0.122-0.016
			c-0.057-0.002-0.095-0.02-0.113-0.054c-0.078-0.021-0.124-0.008-0.14,0.044c-0.026-0.008-0.063-0.023-0.112-0.054
			c-0.048-0.028-0.085-0.046-0.111-0.054c-0.077-0.022-0.215-0.041-0.408-0.056c-0.193-0.014-0.343-0.036-0.446-0.065l-0.704-0.205
			c-0.026-0.007-0.069-0.005-0.129,0.006s-0.103,0.012-0.128,0.005l-0.117-0.034c-0.209-0.061-0.33-0.081-0.363-0.063
			c-0.09-0.083-0.16-0.132-0.213-0.147c-0.053-0.015-0.158-0.017-0.315-0.006c-0.159,0.011-0.276,0.004-0.355-0.02l-0.151,0.084
			c-0.138-0.013-0.326-0.047-0.564-0.102c-0.238-0.055-0.426-0.088-0.563-0.101l-0.297-0.001c-0.078-0.022-0.203-0.03-0.374-0.024
			c-0.172,0.008-0.311-0.005-0.414-0.035c-0.026-0.008-0.051-0.021-0.073-0.042c-0.022-0.021-0.047-0.035-0.072-0.042
			c-0.061,0.012-0.129,0.005-0.207-0.019c-0.052-0.016-0.138-0.063-0.256-0.139c-0.12-0.076-0.218-0.127-0.297-0.148
			c-0.2-0.284-0.378-0.548-0.532-0.791c-0.148-0.27-0.216-0.43-0.2-0.482c-0.483-0.28-0.682-0.622-0.593-1.021
			c0.015-0.051-0.006-0.128-0.062-0.229c0.015-0.052,0.056-0.096,0.124-0.133c-0.142-0.098-0.223-0.164-0.24-0.197l0.022-0.077
			c0.023-0.078,0.081-0.183,0.175-0.312c0.095-0.127,0.149-0.217,0.164-0.27c0.033-0.02,0.073-0.035,0.121-0.052
			c0.046-0.014,0.086-0.029,0.119-0.049c0.015-0.053,0.014-0.095-0.004-0.129c-0.02-0.033-0.024-0.063-0.017-0.09
			c0.1-0.055,0.243-0.112,0.431-0.171c-0.045-0.041-0.061-0.081-0.049-0.12c0.011-0.039,0.039-0.088,0.084-0.146
			c0.045-0.058,0.071-0.1,0.079-0.126c0.007-0.024,0.012-0.065,0.015-0.121c0.001-0.058,0.007-0.099,0.015-0.124
			c0.007-0.025,0.023-0.035,0.05-0.027c0.052,0.016,0.086-0.003,0.102-0.056c0.029-0.104,0.08-0.133,0.151-0.083
			c0.243-0.354,0.438-0.537,0.584-0.552c0.046-0.155,0.102-0.253,0.169-0.291l-0.078-0.021c0.063-0.122,0.22-0.175,0.47-0.16
			c0.041-0.044,0.062-0.088,0.06-0.131c-0.002-0.043,0.001-0.077,0.008-0.104c0.034-0.019,0.091-0.016,0.169,0.008l0.196-0.24
			c0.061-0.208,0.225-0.387,0.496-0.534c0.029-0.104,0.105-0.195,0.228-0.273c0.121-0.076,0.202-0.138,0.242-0.184
			c0.008-0.025,0.005-0.063-0.009-0.109c-0.016-0.046-0.002-0.092,0.039-0.137c0.008-0.025,0.037-0.031,0.09-0.017l0.051-0.027
			c0.236-0.326,0.418-0.472,0.55-0.434c0.089-0.115,0.129-0.202,0.118-0.264c0.026,0.008,0.051-0.006,0.075-0.042
			c0.025-0.035,0.059-0.03,0.104,0.011c0.038-0.132,0.097-0.186,0.174-0.162l0.022-0.078c0.038-0.13,0.142-0.263,0.308-0.398
			c0.167-0.135,0.265-0.255,0.295-0.358c0.153-0.04,0.253-0.14,0.298-0.295c0.078,0.021,0.177,0.022,0.297,0.001
			c0.008-0.025,0.002-0.057-0.018-0.09c-0.019-0.032-0.02-0.076-0.005-0.129c0.087-0.003,0.171-0.05,0.254-0.139
			c0.08-0.089,0.148-0.126,0.201-0.111l0.012-0.039c0.015-0.052,0.042-0.1,0.083-0.145c0.042-0.045,0.086-0.074,0.133-0.089
			c0.047-0.016,0.105-0.026,0.179-0.033c0.072-0.007,0.126-0.021,0.16-0.038c-0.063-0.075-0.058-0.145,0.018-0.207
			c0.066-0.037,0.108-0.081,0.123-0.134l0.202-0.111c-0.018-0.033-0.017-0.089,0.006-0.168c0.033-0.018,0.145-0.105,0.331-0.264
			c0.188-0.157,0.335-0.299,0.441-0.423s0.184-0.267,0.229-0.421l0.264-0.18l0.022-0.078c0.016-0.051,0.039-0.088,0.073-0.104
			c0.034-0.02,0.076-0.042,0.127-0.069c0.05-0.027,0.093-0.052,0.125-0.068c0.041-0.045,0.052-0.084,0.034-0.117
			s-0.023-0.064-0.016-0.09l0.419-0.134c0.008-0.024-0.003-0.058-0.034-0.095c-0.033-0.037-0.041-0.082-0.025-0.135l0.09-0.016
			c0.025,0.007,0.042-0.003,0.05-0.028l0.022-0.078c0.022-0.078,0.084-0.166,0.184-0.265c0.099-0.1,0.156-0.174,0.172-0.227
			l-0.117-0.035c-0.157-0.045-0.254-0.102-0.291-0.168c-0.257,0.011-0.398,0.012-0.425,0.004c-0.078-0.022-0.136-0.067-0.173-0.135
			c-0.026-0.008-0.057-0.003-0.09,0.017l-0.05,0.027c-0.087,0.003-0.194-0.015-0.325-0.052c-0.182-0.054-0.422-0.151-0.719-0.295
			l-0.47-0.137c-0.183-0.054-0.309-0.104-0.38-0.151c-0.026-0.008-0.057-0.003-0.09,0.016c-0.034,0.02-0.06,0.012-0.077-0.021
			l-0.029-0.051c-0.044-0.041-0.079-0.065-0.105-0.073l-0.077-0.022c-0.026-0.008-0.357-0.229-0.993-0.67
			c0.03-0.104,0.02-0.19-0.03-0.264c-0.05-0.07-0.12-0.146-0.208-0.229c-0.089-0.083-0.156-0.145-0.2-0.186
			c0.134-0.074,0.123-0.134-0.033-0.179l0.023-0.078c0.007-0.025,0.027-0.049,0.061-0.067c0.034-0.019,0.069-0.044,0.107-0.075
			c0.037-0.03,0.059-0.061,0.066-0.086c0.008-0.025,0.006-0.067-0.004-0.129c-0.012-0.06,0.004-0.11,0.046-0.156
			c0.196,0,0.311-0.051,0.341-0.153l0.27-0.05c0.053-0.184,0.314-0.305,0.784-0.366c0.041-0.045,0.1-0.076,0.177-0.098
			c0.076-0.021,0.163-0.029,0.263-0.028c0.099,0,0.177-0.005,0.237-0.018l0.102-0.055l0.117,0.033l0.358-0.065l0.027,0.052
			c0.025,0.007,0.052,0.015,0.078,0.021c0.034-0.018,0.114-0.023,0.239-0.016c0.124,0.009,0.22-0.006,0.287-0.043
			c0.019,0.032,0.054,0.058,0.106,0.072c0.025,0.008,0.073,0.016,0.143,0.021c0.067,0.006,0.128,0.016,0.181,0.031l0.017,0.089
			c0.025,0.008,0.056,0.003,0.09-0.018c0.033-0.018,0.063-0.022,0.089-0.016C70.185,74.822,70.509,74.875,70.848,74.974z"/>
	</g>
	<g>
		<path fill="#231F20" d="M87.592,72.296l0.451,0.132c0.574,0.275,0.877,0.419,0.91,0.429l1.104,0.319
			c0.032,0.011,0.078,0.041,0.137,0.095l0.086,0.079c0.401,0.116,0.625,0.219,0.673,0.305c0.043-0.023,0.148-0.011,0.316,0.038
			c0.066,0.02,0.15,0.043,0.25,0.072c0.102,0.028,0.201,0.059,0.302,0.088c0.101,0.028,0.167,0.048,0.2,0.058
			s0.096,0.047,0.188,0.108c0.09,0.063,0.168,0.104,0.235,0.123c0.058,0.054,0.164,0.121,0.322,0.202
			c0.157,0.082,0.243,0.162,0.257,0.238l0.102,0.028c0.133,0.039,0.277,0.136,0.433,0.289s0.267,0.241,0.334,0.261
			c0.032,0.264,0.176,0.45,0.435,0.563c0.004,0.109,0.059,0.234,0.164,0.374c0.104,0.139,0.17,0.23,0.192,0.272
			c-0.021,0.067-0.054,0.121-0.101,0.161c-0.049,0.041-0.078,0.078-0.088,0.111c-0.043,0.022-0.059,0.073-0.043,0.149l0.035,0.064
			l-0.015,0.05c-0.044,0.024-0.069,0.054-0.079,0.087l0.035,0.064c-0.01,0.033-0.02,0.066-0.029,0.101
			c-0.088,0.047-0.135,0.088-0.145,0.121c-0.01,0.034-0.019,0.086-0.02,0.158c-0.004,0.071-0.009,0.125-0.018,0.157
			c-0.107,0.114-0.186,0.256-0.233,0.423l-0.028,0.1c-0.029,0.102-0.039,0.226-0.025,0.374c0.011,0.148,0.012,0.24,0.002,0.272
			c-0.029,0.101-0.143,0.177-0.34,0.229c0.053,0.196-0.016,0.305-0.202,0.322c0.005,0.108-0.019,0.249-0.065,0.416
			c-0.078,0.268-0.283,0.569-0.617,0.909c-0.334,0.338-0.547,0.603-0.64,0.794c-0.077,0.014-0.17,0.051-0.276,0.109
			c-0.108,0.06-0.184,0.102-0.228,0.124c-0.01,0.034,0.006,0.074,0.047,0.123c0.04,0.048,0.052,0.105,0.031,0.172
			c-0.054,0.059-0.156,0.101-0.312,0.128l-0.014,0.051c0.023,0.044,0.03,0.082,0.021,0.114c-0.029,0.102-0.152,0.21-0.368,0.328
			c-0.077,0.016-0.132,0.017-0.165,0.007c-0.293,0.134-0.545,0.313-0.756,0.542l-0.088,0.302l-0.049-0.015
			c-0.045,0.024-0.084,0.03-0.115,0.021c-0.029,0.101-0.109,0.187-0.239,0.259c-0.011,0.033-0.034,0.09-0.076,0.168
			c-0.041,0.078-0.084,0.13-0.126,0.153c-0.043,0.023-0.143,0.05-0.295,0.077c-0.043,0.023-0.082,0.03-0.115,0.021
			s-0.072-0.002-0.113,0.021c-0.055,0.057-0.061,0.137-0.017,0.239c0.043,0.104,0.06,0.172,0.05,0.205s-0.088,0.11-0.23,0.231
			c-0.145,0.122-0.256,0.189-0.331,0.204l-0.115,0.021c-0.032-0.01-0.056,0.003-0.063,0.035c-0.045,0.024-0.119,0.095-0.224,0.208
			c-0.217,0.119-0.334,0.211-0.354,0.278c-0.01,0.032-0.002,0.127,0.027,0.279c-0.043,0.023-0.115,0.084-0.217,0.183
			c-0.102,0.098-0.189,0.153-0.268,0.168l-0.043,0.149l-0.146,0.502c-0.068,0.234-0.212,0.355-0.432,0.364
			c-0.01,0.034-0.014,0.077-0.012,0.132c0.002,0.057-0.002,0.102-0.012,0.134c-0.044,0.023-0.086,0.075-0.127,0.153
			c-0.041,0.079-0.094,0.138-0.158,0.172c-0.064,0.035-0.136,0.062-0.211,0.074c0.002,0.11-0.031,0.229-0.104,0.353
			c-0.087,0.048-0.143,0.05-0.165,0.007c-0.043,0.022-0.054,0.058-0.029,0.1c0.022,0.044,0.03,0.083,0.021,0.115
			c-0.021,0.067-0.065,0.099-0.137,0.097c-0.072-0.003-0.113,0.015-0.123,0.046l0.063,0.346c-0.097,0.081-0.205,0.141-0.323,0.178
			c-0.136,0.215-0.221,0.317-0.254,0.308c0.023,0.044,0.021,0.115-0.008,0.216c-0.066,0.234-0.299,0.402-0.691,0.508l-0.086,0.302
			c-0.044,0.022-0.115,0.021-0.216-0.009c-0.063,0.091-0.174,0.187-0.329,0.286c-0.156,0.1-0.271,0.211-0.342,0.335
			c0.021,0.044,0.104,0.084,0.236,0.123c0.568,0.165,0.863,0.271,0.889,0.313l0.064-0.036c0.043-0.021,0.08-0.03,0.115-0.021
			c0.143,0.006,0.416,0.066,0.817,0.184c0.267,0.077,0.463,0.153,0.587,0.227c0.221-0.01,0.381,0.001,0.48,0.029
			c0.101,0.029,0.266,0.087,0.494,0.171c0.229,0.085,0.412,0.146,0.545,0.187c0.201,0.059,0.34,0.08,0.416,0.065
			c0.059,0.054,0.233,0.133,0.529,0.236c0.297,0.104,0.465,0.215,0.502,0.336c0.032,0.01,0.076,0.014,0.133,0.011
			c0.055-0.002,0.115,0.007,0.184,0.025c0.195,0.202,0.544,0.377,1.046,0.522l0.407,0.28c-0.01,0.034,0.048,0.241,0.174,0.622
			c0.125,0.382,0.152,0.688,0.085,0.923l-0.058,0.201l-0.324,0.178l0.107,0.194l-0.525,0.501c-0.154,0.028-0.318,0.125-0.494,0.291
			c-0.176,0.167-0.307,0.274-0.393,0.322c-0.145-0.006-0.422-0.05-0.834-0.133c-0.41-0.084-0.727-0.121-0.947-0.112
			c-0.199-0.059-0.313-0.108-0.336-0.152c-0.033-0.01-0.082,0.003-0.146,0.038c-0.064,0.036-0.115,0.049-0.146,0.04l-0.152-0.044
			c-0.133-0.039-0.41-0.083-0.831-0.133l-0.302-0.088c-0.233-0.068-0.415-0.066-0.545,0.005c-0.033-0.01-0.088-0.017-0.158-0.02
			c-0.073-0.003-0.119-0.024-0.143-0.067c-0.103-0.029-0.162-0.011-0.182,0.056c-0.033-0.01-0.081-0.032-0.145-0.067
			c-0.063-0.036-0.108-0.061-0.143-0.069c-0.101-0.029-0.275-0.053-0.523-0.07s-0.44-0.046-0.573-0.085l-0.903-0.263
			c-0.033-0.01-0.089-0.007-0.166,0.006c-0.076,0.016-0.132,0.017-0.164,0.007l-0.15-0.044c-0.27-0.077-0.424-0.104-0.467-0.08
			c-0.115-0.104-0.205-0.169-0.271-0.188c-0.066-0.021-0.203-0.022-0.404-0.01c-0.205,0.015-0.355,0.007-0.455-0.022l-0.195,0.105
			c-0.178-0.015-0.42-0.058-0.726-0.129c-0.306-0.068-0.547-0.111-0.724-0.128l-0.381-0.002c-0.102-0.028-0.262-0.039-0.481-0.03
			c-0.221,0.01-0.397-0.008-0.53-0.046c-0.033-0.01-0.064-0.026-0.094-0.055c-0.027-0.026-0.061-0.045-0.093-0.054
			c-0.078,0.014-0.166,0.006-0.267-0.023c-0.067-0.02-0.176-0.078-0.328-0.177c-0.153-0.1-0.279-0.163-0.381-0.192
			c-0.256-0.363-0.485-0.702-0.686-1.015c-0.189-0.346-0.275-0.551-0.256-0.619c-0.62-0.36-0.874-0.799-0.762-1.311
			c0.02-0.066-0.006-0.164-0.077-0.294c0.021-0.067,0.071-0.124,0.157-0.172c-0.181-0.125-0.283-0.21-0.308-0.254l0.029-0.1
			c0.028-0.102,0.104-0.233,0.226-0.397c0.119-0.164,0.188-0.279,0.209-0.348c0.043-0.022,0.094-0.046,0.154-0.063
			c0.061-0.021,0.111-0.041,0.154-0.064c0.021-0.065,0.018-0.122-0.006-0.165c-0.025-0.043-0.031-0.081-0.021-0.115
			c0.13-0.07,0.313-0.145,0.555-0.22c-0.059-0.053-0.08-0.104-0.064-0.155c0.015-0.05,0.051-0.111,0.109-0.187
			c0.058-0.073,0.09-0.127,0.101-0.16c0.01-0.033,0.016-0.086,0.021-0.158c0.002-0.07,0.008-0.124,0.019-0.157
			c0.01-0.032,0.03-0.046,0.063-0.035c0.066,0.02,0.11-0.004,0.131-0.071c0.037-0.133,0.104-0.169,0.192-0.106
			c0.313-0.452,0.563-0.688,0.75-0.708c0.06-0.199,0.131-0.323,0.218-0.372l-0.101-0.028c0.081-0.157,0.282-0.226,0.604-0.205
			c0.051-0.059,0.078-0.113,0.075-0.169c-0.003-0.057,0.003-0.1,0.013-0.132c0.041-0.024,0.115-0.021,0.215,0.008l0.252-0.309
			c0.078-0.268,0.289-0.495,0.636-0.687c0.039-0.134,0.138-0.251,0.292-0.351c0.156-0.101,0.26-0.179,0.313-0.235
			c0.01-0.033,0.006-0.08-0.013-0.141c-0.021-0.061-0.002-0.117,0.052-0.176c0.008-0.032,0.047-0.041,0.114-0.021l0.063-0.036
			c0.304-0.42,0.539-0.605,0.705-0.557c0.117-0.147,0.166-0.261,0.152-0.336c0.033,0.01,0.066-0.01,0.098-0.056
			c0.031-0.045,0.076-0.04,0.134,0.012c0.049-0.167,0.123-0.235,0.223-0.206l0.029-0.101c0.049-0.168,0.18-0.338,0.396-0.512
			c0.213-0.174,0.338-0.328,0.377-0.462c0.196-0.053,0.325-0.179,0.383-0.379c0.101,0.027,0.229,0.029,0.381,0.002
			c0.011-0.033,0.003-0.071-0.021-0.115c-0.024-0.043-0.024-0.097-0.006-0.165c0.11-0.004,0.216-0.063,0.322-0.178
			c0.106-0.115,0.192-0.162,0.26-0.144l0.015-0.05c0.021-0.067,0.057-0.129,0.109-0.187c0.053-0.059,0.109-0.097,0.17-0.115
			c0.059-0.019,0.135-0.032,0.229-0.041s0.162-0.025,0.205-0.05c-0.08-0.097-0.072-0.186,0.022-0.266
			c0.087-0.048,0.14-0.104,0.159-0.172l0.259-0.143c-0.024-0.043-0.021-0.115,0.009-0.216c0.043-0.022,0.184-0.138,0.424-0.34
			s0.43-0.384,0.566-0.543c0.137-0.158,0.234-0.34,0.293-0.541l0.338-0.229l0.029-0.1c0.02-0.066,0.052-0.112,0.095-0.137
			c0.043-0.023,0.097-0.054,0.161-0.09c0.064-0.035,0.119-0.064,0.163-0.089c0.052-0.057,0.065-0.107,0.044-0.15
			c-0.025-0.043-0.031-0.082-0.021-0.114l0.539-0.17c0.01-0.033-0.004-0.074-0.045-0.122c-0.041-0.049-0.053-0.104-0.031-0.174
			l0.113-0.021c0.033,0.01,0.055-0.002,0.064-0.036l0.029-0.1c0.029-0.102,0.106-0.214,0.233-0.34
			c0.128-0.128,0.201-0.224,0.222-0.291l-0.15-0.044c-0.201-0.059-0.325-0.131-0.373-0.217c-0.33,0.013-0.512,0.015-0.545,0.004
			c-0.1-0.028-0.176-0.086-0.223-0.173c-0.033-0.01-0.072-0.003-0.114,0.021l-0.063,0.036c-0.111,0.005-0.25-0.019-0.416-0.066
			c-0.234-0.068-0.544-0.193-0.926-0.378l-0.598-0.17c-0.233-0.068-0.396-0.133-0.486-0.195c-0.034-0.01-0.072-0.003-0.115,0.021
			c-0.043,0.023-0.076,0.015-0.101-0.029l-0.035-0.064c-0.058-0.053-0.104-0.084-0.136-0.094l-0.102-0.029
			c-0.033-0.01-0.457-0.296-1.271-0.858c0.037-0.135,0.023-0.247-0.039-0.338c-0.064-0.092-0.154-0.189-0.268-0.296
			c-0.115-0.105-0.201-0.186-0.259-0.238c0.173-0.094,0.158-0.171-0.042-0.229l0.029-0.101c0.01-0.032,0.035-0.062,0.079-0.086
			c0.042-0.023,0.089-0.056,0.137-0.097c0.047-0.04,0.077-0.076,0.087-0.109c0.01-0.034,0.008-0.089-0.007-0.166
			s0.005-0.144,0.058-0.201c0.254,0.001,0.4-0.063,0.439-0.199l0.346-0.063c0.067-0.234,0.402-0.391,1.008-0.47
			c0.051-0.059,0.127-0.1,0.227-0.124c0.098-0.026,0.21-0.039,0.338-0.038c0.126,0.001,0.229-0.007,0.305-0.021l0.131-0.07
			l0.149,0.044l0.46-0.084l0.035,0.063c0.033,0.01,0.066,0.021,0.102,0.029c0.041-0.023,0.146-0.03,0.305-0.021
			c0.16,0.011,0.283-0.008,0.369-0.057c0.023,0.044,0.068,0.074,0.138,0.094c0.032,0.01,0.094,0.021,0.184,0.026
			c0.087,0.008,0.165,0.021,0.231,0.04l0.021,0.115c0.032,0.01,0.07,0.004,0.115-0.021c0.041-0.023,0.08-0.03,0.113-0.021
			C86.741,72.104,87.157,72.17,87.592,72.296z"/>
	</g>
	<g>
		<g>
			<path fill="#FAAF40" d="M16.763,60.668c2.59-3.494,7.023-5.834,9.883-9.291c2.705-3.266,5.197-6.408,9.018-8.467
				c9.246-4.979,17.311-11.947,26.428-17.799c1.617-1.041,3.574-2.109,4.729-3.322c1.307-1.369,2.225-5.447,3.949-6.315
				c3.395-1.707,10.156,2.741,13.223,3.911c4.941,1.884,8.258,5.41,13.049,7.56c4.629,2.074,9.635,4.459,14.189,7.813
				c4.518,3.326,7.766,6.476,11.365,11.025c1.479,1.871,3.857,1.629,2.99,4.895c-0.885,3.347-4.01,1.988-6.9,2.642
				c-5.781,1.305-11.9,2.744-17.109,5.463c-4.543,2.375-10.525,3.318-15.941,4.805c-6.098,1.67-12.354,4.537-18.802,5.748
				c-5.793,1.088-11.51,0.832-17.258,1.906c-2.143,0.4-3.748,1.553-6.682,1.465c-3.25-0.096-6.322-0.791-9.518-0.973
				c-6.023-0.347-10.719,0.973-16.717,0.973c-2.924,0-12.25,1.854-11.629-3.123C5.29,67.486,16.763,60.668,16.763,60.668z"/>
			<path fill="#231F20" d="M10.685,73.608c-2.833,0-4.591-0.497-5.532-1.563c-0.583-0.661-0.814-1.514-0.687-2.535
				c0.271-2.173,9.055-7.57,11.91-9.271c1.397-1.854,3.301-3.396,5.142-4.892c1.657-1.345,3.369-2.733,4.69-4.331l0.386-0.467
				c2.604-3.149,5.064-6.126,8.8-8.139c5.535-2.98,10.542-6.604,15.843-10.441c3.396-2.458,6.908-4.998,10.548-7.336
				c0.361-0.231,0.74-0.467,1.123-0.702c1.305-0.809,2.653-1.643,3.501-2.532c0.48-0.503,0.955-1.541,1.414-2.544
				c0.742-1.618,1.508-3.292,2.691-3.89c0.588-0.296,1.289-0.444,2.084-0.444c2.695,0,6.107,1.691,8.848,3.053
				c1.088,0.54,2.026,1.006,2.748,1.281c2.71,1.033,4.961,2.562,7.139,4.039c1.85,1.257,3.763,2.556,5.94,3.531
				c4.45,1.994,9.593,4.412,14.293,7.873c4.541,3.345,7.865,6.568,11.476,11.132c0.422,0.534,0.942,0.885,1.446,1.223
				c1.148,0.771,2.337,1.568,1.646,4.169c-0.729,2.763-2.827,2.8-4.855,2.837c-0.816,0.015-1.662,0.03-2.467,0.212
				c-6.363,1.437-12.033,2.834-16.973,5.412c-3.35,1.751-7.488,2.743-11.492,3.703c-1.512,0.362-3.072,0.737-4.561,1.146
				c-2.412,0.66-4.803,1.493-7.332,2.375c-3.734,1.303-7.597,2.647-11.518,3.385c-2.939,0.552-5.89,0.764-8.743,0.969
				c-2.794,0.201-5.684,0.408-8.515,0.938c-0.722,0.136-1.386,0.361-2.088,0.604c-1.26,0.431-2.563,0.877-4.382,0.877l-0.333-0.005
				c-1.785-0.054-3.531-0.285-5.219-0.51c-1.41-0.188-2.867-0.383-4.314-0.465c-3.295-0.188-6.12,0.119-9.131,0.447
				c-2.381,0.259-4.844,0.526-7.554,0.526c-0.506,0-1.231,0.06-2.071,0.129C13.392,73.497,12.039,73.608,10.685,73.608z
				 M72.598,15.654c-0.616,0-1.146,0.109-1.574,0.325c-0.827,0.417-1.54,1.974-2.169,3.348c-0.521,1.139-1.014,2.214-1.625,2.854
				c-0.947,0.995-2.36,1.869-3.726,2.715c-0.377,0.232-0.75,0.464-1.106,0.691c-3.614,2.32-7.112,4.853-10.496,7.302
				c-5.098,3.688-10.368,7.504-15.97,10.521c-3.54,1.908-5.932,4.801-8.464,7.863l-0.386,0.467c-1.393,1.684-3.149,3.109-4.85,4.488
				c-1.9,1.543-3.696,3-5.014,4.777l-0.166,0.149C11.649,64.367,5.731,68.527,5.59,69.65c-0.086,0.693,0.048,1.23,0.412,1.644
				c0.691,0.783,2.267,1.181,4.682,1.181c1.308,0,2.636-0.109,3.809-0.205c0.865-0.071,1.612-0.134,2.164-0.134
				c2.648,0,5.08-0.265,7.432-0.52c2.921-0.317,5.94-0.648,9.317-0.452c1.49,0.085,2.969,0.281,4.399,0.472
				c1.659,0.222,3.376,0.449,5.103,0.5l0.3,0.006c1.631,0,2.843-0.415,4.015-0.816c0.71-0.242,1.443-0.493,2.246-0.644
				c2.895-0.541,5.816-0.751,8.643-0.954c2.821-0.202,5.739-0.412,8.615-0.952c3.837-0.722,7.656-2.052,11.354-3.34
				c2.437-0.85,4.955-1.728,7.404-2.397c1.506-0.413,3.076-0.79,4.596-1.154c3.938-0.943,8.008-1.92,11.232-3.605
				c5.061-2.642,10.805-4.061,17.247-5.514c0.918-0.207,1.821-0.224,2.696-0.239c2.147-0.038,3.291-0.146,3.779-1.992
				c0.483-1.819-0.106-2.217-1.181-2.937c-0.55-0.369-1.173-0.787-1.706-1.463c-3.541-4.477-6.803-7.641-11.256-10.92
				c-4.611-3.396-9.688-5.78-14.086-7.752c-2.27-1.018-4.225-2.345-6.114-3.629c-2.221-1.508-4.317-2.932-6.903-3.917
				c-0.772-0.295-1.734-0.771-2.849-1.325C78.307,17.282,75.027,15.654,72.598,15.654z"/>
		</g>
		<path fill="#F9C989" d="M69.036,27.441c-1.623-4.646,2.203-10.783,6.199-8.308c1.916,1.188,1.1,4.05,3.496,4.869
			c1.412,0.482,3.584-1.258,5.234-0.739c0.701,2.993,2.453,2.731,4.541,3.309c1.033,0.285,2.248,0.086,3.106,0.861
			c1,0.901,0.949,2.664,1.959,3.858c1.503,1.773,3.8,1.164,5.183,3.654c1.381,2.486,0.957,6.01-1.959,4.512
			C95.2,31.242,84.915,29.182,79.853,28.75c-4.229-0.358-4.99,4.246-8.472,5.674c-3.718,1.527-4.417-3.5-2.02-6.547L69.036,27.441z"
			/>
		<path fill="#C3996B" d="M71.526,27.643c2.377-0.404,12.682-4.345,10.287,1.948c-1.139,2.992-9.719,3.308-12.176,4.334
			c-2.334,0.976-2.719,2.111-4.877,3.238c-1.492,0.779-4.939,3.25-3.707-0.854C61.054,36.309,65.774,28.623,71.526,27.643z"/>
		<g>
			<path fill="#C3996B" d="M70.983,14.986c-3.039-4.787,0.387-9.607,5.404-10.107C81.599,4.361,85.633,6.74,89.901,9.1
				c7.586,4.192,16.523,7.774,23.594,11.998c8.582,5.125,22.545,15.098,23.051,25.428c0.129,2.651-1.557,5.838-3.209,7.682
				c-1.217,1.359-5.946,3.476-7.614,2.59c-2.673-1.424-5.056-10.442-7.187-13.299c-5.293-7.1-14.162-11.141-21.125-15.49
				c-4.178-2.608-6.994-5.823-11.705-7.457c-4.701-1.631-10.094-1.694-13.76-5.084L70.983,14.986z"/>
			<path fill="#231F20" d="M126.764,57.574c-0.521,0-0.963-0.093-1.309-0.276c-1.777-0.946-3.289-4.558-4.75-8.048
				c-0.932-2.223-1.811-4.32-2.625-5.413c-4.078-5.472-10.256-9.06-16.229-12.527c-1.66-0.965-3.229-1.875-4.741-2.819
				c-1.491-0.933-2.813-1.94-4.091-2.915c-2.33-1.779-4.532-3.459-7.499-4.487c-1.461-0.507-3.026-0.868-4.541-1.217
				c-3.317-0.766-6.75-1.557-9.356-3.932l-1.034-0.516l-0.084-0.134c-1.418-2.231-1.626-4.64-0.586-6.775
				c1.123-2.309,3.581-3.917,6.413-4.199c0.496-0.05,0.998-0.074,1.492-0.074c4.479,0,8.055,1.981,11.84,4.079l0.513,0.284
				c3.403,1.881,7.14,3.667,10.753,5.395c4.4,2.104,8.949,4.279,12.857,6.612c8.485,5.068,22.801,15.17,23.325,25.888
				c0.138,2.832-1.642,6.178-3.353,8.088C132.616,55.862,128.948,57.574,126.764,57.574z M71.379,14.551l0.951,0.499
				c2.396,2.214,5.557,2.942,8.903,3.716c1.544,0.354,3.14,0.724,4.657,1.25c3.14,1.088,5.41,2.821,7.816,4.656
				c1.256,0.959,2.556,1.95,4.004,2.854c1.496,0.936,3.058,1.842,4.709,2.802c6.072,3.526,12.352,7.172,16.57,12.831
				c0.896,1.202,1.801,3.364,2.76,5.652c1.319,3.152,2.816,6.728,4.236,7.483c0.178,0.095,0.444,0.145,0.775,0.145
				c1.966,0,5.271-1.629,6.15-2.61c1.563-1.743,3.188-4.764,3.064-7.276c-0.499-10.188-14.482-20.017-22.775-24.968
				c-3.861-2.307-8.388-4.471-12.765-6.563c-3.628-1.734-7.38-3.528-10.813-5.426L89.11,9.312c-3.65-2.025-7.1-3.938-11.285-3.938
				c-0.457,0-0.922,0.022-1.382,0.068C74,5.686,71.891,7.052,70.939,9.009C70.098,10.738,70.256,12.701,71.379,14.551z"/>
		</g>
		<g>
			<path fill="#F9C989" d="M7.136,71.742c-0.502-0.104-0.99-0.076-1.465,0.082c2.613,1.57,2.883,2.586,5.916,3.287
				c2.4,0.555,5.756,0.096,8.172,0.215c5.186,0.25,11.152-0.215,16.852-0.215c6.152,0,11.355-0.734,17.211-1.445
				c5.268-0.639,11.645-0.584,16.979-1.924c10.258-2.58,20.243-5.979,30.344-9.602c5.17-1.854,10.941-3.185,16.234-4.148
				c4.137-0.754,11.246-0.064,14.361-3.318c2.405-2.514,3.696-11.58,0.227-14.391c-5.217-4.225-9.33,2.531-10.266,6.908
				c-0.65,3.051-0.318,2.488-2.849,4.74c-1.416,1.262-5.785,1.973-7.787,2.649c-4.328,1.469-9.883,3.82-14.353,5.371
				c-18.768,6.516-39.602,12.15-60.694,11.217C27.29,70.781,7.136,71.742,7.136,71.742z"/>
			<path fill="#231F20" d="M23.15,75.967c-1.261,0-2.379-0.022-3.419-0.073c-0.853-0.044-1.822-0.011-2.823,0.021
				c-0.7,0.022-1.417,0.046-2.121,0.046c-1.398,0-2.455-0.095-3.328-0.296c-2.131-0.492-2.997-1.148-4.094-1.98
				c-0.531-0.403-1.133-0.859-1.986-1.372c-0.19-0.114-0.296-0.328-0.271-0.549c0.023-0.221,0.174-0.405,0.384-0.477
				c0.544-0.181,1.111-0.219,1.687-0.113c1.075-0.051,14.349-0.663,23.616-0.663c2.096,0,3.862,0.031,5.25,0.095
				c1.516,0.065,3.068,0.101,4.614,0.101c20.703,0,40.733-6.032,55.87-11.287c2.146-0.745,4.587-1.69,6.948-2.606
				c2.533-0.983,5.154-2.001,7.406-2.766c0.63-0.213,1.476-0.427,2.371-0.652c1.934-0.489,4.338-1.098,5.222-1.885l0.67-0.592
				c1.474-1.294,1.474-1.294,1.837-3.063l0.163-0.779c0.771-3.61,3.616-8.693,7.524-8.693c1.226,0,2.453,0.492,3.652,1.464
				c1.696,1.372,2.189,3.834,2.307,5.655c0.231,3.669-0.857,7.872-2.479,9.567c-2.392,2.497-6.802,2.806-10.692,3.078
				c-1.463,0.103-2.846,0.199-3.978,0.404c-6.265,1.144-11.696,2.53-16.146,4.125c-9.561,3.43-19.859,6.969-30.396,9.617
				c-3.545,0.892-7.5,1.171-11.325,1.441c-2.018,0.143-3.923,0.276-5.724,0.496l-1.888,0.23c-5.078,0.626-9.873,1.219-15.392,1.219
				c-2.26,0-4.593,0.073-6.85,0.146C27.564,75.895,25.293,75.967,23.15,75.967z M18.817,74.738c0.336,0,0.66,0.006,0.97,0.021
				c2.766,0.133,6.471,0.042,9.938-0.067c2.266-0.072,4.607-0.147,6.886-0.147c5.448,0,10.211-0.587,15.252-1.209l1.891-0.231
				c1.829-0.223,3.748-0.357,5.78-0.501c3.776-0.269,7.681-0.544,11.128-1.409c10.489-2.639,20.758-6.166,30.292-9.586
				c4.506-1.615,9.998-3.021,16.323-4.172c1.193-0.219,2.604-0.316,4.101-0.422c3.688-0.259,7.865-0.551,9.953-2.731
				c1.405-1.469,2.377-5.376,2.166-8.711c-0.143-2.255-0.813-3.978-1.888-4.847c-0.991-0.804-1.979-1.21-2.938-1.21
				c-3.239,0-5.744,4.651-6.416,7.796l-0.16,0.771c-0.428,2.082-0.489,2.187-2.199,3.688l-0.665,0.587
				c-1.09,0.971-3.537,1.59-5.696,2.136c-0.873,0.221-1.699,0.43-2.285,0.628c-2.229,0.756-4.838,1.77-7.36,2.748
				c-2.37,0.919-4.821,1.87-6.987,2.622C81.68,65.774,61.533,71.84,40.66,71.84c-1.563,0-3.132-0.033-4.665-0.103
				c-1.371-0.062-3.12-0.092-5.199-0.092c-8.889,0-21.481,0.564-23.387,0.652c0.23,0.168,0.441,0.328,0.644,0.48
				c1.065,0.809,1.77,1.343,3.664,1.78c0.786,0.182,1.763,0.267,3.072,0.267c0.692,0,1.396-0.022,2.085-0.045
				C17.543,74.759,18.2,74.738,18.817,74.738z"/>
		</g>
		<path fill="#FFFFFF" d="M63.642,46.76c0.543,0.937-4.83,5.117-5.775-0.844c-0.926-5.844,5.143-6.104,9.146-6.809
			c3.695-0.652,8.776-2.498,11.454,1.748c2.785,4.418-0.905,7.58-5.137,7.287c0.174-1.07-0.451-2.662-0.264-3.632
			c-3.225,0.804-1.73,8.677-1.291,11.337c-3.816,0.12-4.957,0.774-6.207-2.468c-0.783-2.03,0.031-5.815-0.047-8.002
			c-1.033-0.399-1.381,0.15-1.881,0.418L63.642,46.76L63.642,46.76z"/>
		<path fill="#FFFFFF" d="M88.896,45.131c5.793,4.607,6.013-2.127,10.978-2.713c-0.273,1.445-0.174,2.89-0.998,4.051
			c5.744,1.855,6.99-4.192,4.307-7.354c-2.625-3.092-7.299-4.559-11.385-3.947c-1.131,1.293-0.113,1.563,0.135,2.295
			c0.6,0.425,2.703,0.416,3.609,0.24C95.37,38.535,90.489,42.588,88.896,45.131z"/>
		<path fill="#F9C989" d="M91.804,47.139c3.188,0.729,8.469-1.123,11.858-1.13c3.572-0.006,9.625-2.674,12.607-1.274
			c-0.963,5.57-15.424,6.842-19.852,8.123c-4.152,1.201-17.992,5.692-13.279-3.674C83.858,49.129,87.04,38.881,91.804,47.139z"/>
		<g>
			<path fill="#BE1E2D" d="M42.505,55.564v5.598c0,0,6.918-4.469,14.051-2.799c7.135,1.67,12.43,3.92,15.317,0.869s0-7.023,0-7.023
				s-2.408,4.662-8.666,3.355C56.95,54.256,45.392,51.576,42.505,55.564z"/>
			<path fill="#77111A" d="M42.505,59.234c0,0,3.643-2.797,5.719-2.547c2.076,0.248,5.234-1.965,11.555,1.082
				c1.332,0.721,7.762,1.465,9.838,1.061c2.076-0.402,3.217-4.736,3.07-5.078c-0.147-0.344,2.437,5.482-2.527,7.41
				c-2.73,1.063-4.334-0.666-12.908-1.928c-8.576-1.267-12.695,0.727-14.082,2.186C41.784,62.879,42.505,59.727,42.505,59.234z"/>
		</g>
		<g>
			<path fill="#BE1E2D" d="M49.45,31.262c2.555-2.257,9.779-0.535,13.631,0.428c3.852,0.961,10.109,2.848,12.998,0.701
				c2.889-2.147,3.369,0.985,3.369,0.985s-8.346,3.107-13.08,2.152c-4.732-0.951-17.25-2.533-17.73,0.184
				C48.157,38.427,48.603,32.012,49.45,31.262z"/>
			<path fill="#77111A" d="M48.44,36.379c0,0,0.467,1.027,0.828,0.486c0.361-0.543,0.84-1.264,1.773-1.445
				c0.936-0.18,8.697-0.631,10.143,0c1.443,0.631,6.063,1.713,7.492,0.959c1.429-0.754,7.355-1.362,8.667-1.282
				c1.713,0.104,2.104-1.72,2.104-1.72l-4.362,1.051c0,0-11.04,1.369-12.999,0c-1.961-1.368-11.045-0.723-11.045-0.723l-2.404,0.813
				L48.44,36.379z"/>
		</g>
		<g>
			<path fill="#468885" d="M53.587,30.324c-1.51,3.043-3.955,5.533-3.381,9.158c0.59,3.727,3.955,5.313,6.891,3.006
				c1.613-1.271,4.484-7.441,3.732-9.662C59.979,30.318,55.522,27.607,53.587,30.324z"/>
			<path fill="#7CCDCD" d="M58.565,30.744c-1.045-0.58-2.533-0.723-3.867-0.291c1.039,1.775,2.928,2.191,5.031,1.676
				C59.649,31.424,58.565,30.744,58.565,30.744z"/>
		</g>
		<g>
			<path fill="#468885" d="M93.215,56.371c2.836-0.375,5.728,0.166,7.99-1.938c2.33-2.166,1.859-5.267-1.137-6.232
				c-1.645-0.533-7.311,0.359-8.508,1.93C90.206,51.904,90.405,56.297,93.215,56.371z"/>
			<path fill="#7CCDCD" d="M91.17,52.693c0.084,1.002,0.683,2.108,1.609,2.838c0.756-1.559,0.16-3.076-1.191-4.305
				C91.136,51.613,91.17,52.693,91.17,52.693z"/>
		</g>
		<path fill="#F9C989" d="M27.474,59.227c4.602-0.06,5.781,4.494,9.578,3.403c2.189-0.629,2.723-2.844,5.346-2.932
			c2.357-0.076,2.99,2.104,5.191,1.953c2.633-0.183,6.309-4.578,9.131-2.941c4.373,2.537-3.266,3.758-5.188,4.623
			c-4.15,1.867-5.514,2.418-10.217,2.631c-5.664,0.254-15.689-1.188-20.639,1.418c-0.322-1.291,0.004-2.401,0.42-3.346
			C21.097,64.037,24.653,59.262,27.474,59.227z"/>
		<path fill="#A87C4F" d="M73.088,61.871c-0.381-4.643,3.355-5.875,6.802-4.988c2.373,0.609,6.709-2.879,8.896-1.11
			c3.17,2.559-6.524,3.215-7.705,3.446c-1.488,0.294-2.317,1.519-3.641,1.923c-1.424,0.44-3.178-0.232-4.117,1.012
			c-0.346-0.223-0.182-0.408-0.234-0.762V61.871z"/>
		<path fill="#A87C4F" d="M28.077,54.65c-1.063-1.492,1.002-2.746,2.406-2.887c1.84-0.187,2.111,0.922,3.494,1.508
			c2.172,0.92,5.879-0.873,8.75-0.765c0.568,2.853-4.318,5.24-6.273,5.406c-3.381,0.283-5.422-1.895-8.58-1.854
			C27.827,55.645,28.077,54.65,28.077,54.65z"/>
		<path fill="#F9C989" d="M40.446,43.807c-5.697,1.42-1.947,6.78-4.428,12.049c5.973,1.498,7.018-10.719,11.027-6.515
			c-0.99,1.226-0.352,1.789-0.867,3.095c2.088,0.151,4.174,0.215,6.162-0.496C52.634,44.941,47.263,42.109,40.446,43.807z"/>
		<g>
			<path fill="#468885" d="M25.952,66.434c0.34-1.979,2.191-4.002,3.799-5.582c1.848-1.816,2.508-2.47,2.488-4.906
				c-0.014-1.445-0.934-4.297,1.408-5.121c3.045-1.072,0.859,2.596,1.73,3.533c2.777-0.799,1.43-4.17,1.451-5.724
				c0.094-0.483,0.641-1.159,1.877-1.143c0.969,1.076,0.023,2.127,0.85,3.115c1.254-0.293,1.949-1.822,2.031-2.767
				c0.154-1.729-0.945-2.698,1.676-3.235c1.199,0.66,0.518,3.334,2.574,1.287c1.133-1.127,0.234-2.976,2.436-3.513
				c1.182,1.449,0.191,3.422-1.115,4.91c-0.381,0.435-2.361,0.867-1.867,1.795c0.447,0.847,2.365-0.742,2.949-1.057
				c0.646,1.09-0.955,3.428-2.311,4.182c-1.648,0.92-3.096,0.076-4.807,1.033c-0.373,0.16-0.336,0.404,0.104,0.717
				c4.764-0.196,2.287,2.558-1.41,2.711c-0.652,0.029-4.326-0.131-2.107,1.351c0.828,0.555,3.445-0.994,2.729,1.399
				c-1.178,3.924-6.332,1.312-7.686,1.533c-3.213,0.521-4.73,4.414-5.779,6.644C26.14,67.611,25.884,66.832,25.952,66.434z"/>
			<g>
				<path fill="#7CCDCD" d="M33.087,59.152c-0.018,0-0.035-0.003-0.053-0.008c-0.101-0.029-0.158-0.135-0.129-0.234
					c0.638-2.19,3.637-4.522,6.813-6.992c3.614-2.811,7.352-5.717,7.877-8.599c0.019-0.103,0.11-0.178,0.22-0.151
					c0.103,0.02,0.171,0.116,0.151,0.221c-0.551,3.022-4.346,5.975-8.017,8.828c-3.125,2.432-6.078,4.727-6.681,6.8
					C33.244,59.099,33.169,59.152,33.087,59.152z"/>
			</g>
		</g>
		<g>
			<path fill="#468885" d="M36.187,18.42c1.371-0.715,3.635-0.563,5.494-0.352c2.139,0.244,2.904,0.33,4.344-0.813
				c0.852-0.676,2.025-2.537,3.854-1.543c2.379,1.293-1.053,1.707-1.113,2.654c2.064,1.26,3.299-1.092,4.236-1.801
				c0.342-0.168,1.057-0.158,1.756,0.576c-0.088,1.067-1.254,0.998-1.369,1.94c0.891,0.603,2.197,0.301,2.807-0.088
				c1.115-0.709,1.066-1.807,2.885-0.514c0.291,1.012-1.688,1.85,0.705,2.108c1.32,0.146,1.906-1.239,3.484-0.194
				c-0.186,1.366-1.928,1.694-3.561,1.616c-0.477-0.021-1.867-0.985-2.139-0.266c-0.244,0.654,1.797,1.047,2.318,1.244
				c-0.279,0.885-2.586,1.027-3.813,0.58c-1.488-0.543-1.814-1.783-3.363-2.346c-0.309-0.146-0.432-0.011-0.367,0.393
				c2.844,2.709-0.213,2.527-2.42,0.426c-0.389-0.369-2.396-2.604-2.01-0.61c0.145,0.741,2.564,1.563,0.729,2.252
				c-3.008,1.125-4.4-3.115-5.307-3.81c-2.148-1.645-5.336-0.733-7.26-0.315C35.591,19.074,35.911,18.564,36.187,18.42z"/>
			<g>
				<path fill="#7CCDCD" d="M59.823,21.233c-2.074,0-4.659-0.568-7.188-1.125c-3.231-0.71-6.281-1.38-7.854-0.779
					c-0.096,0.038-0.206-0.012-0.244-0.109c-0.037-0.097,0.012-0.205,0.109-0.243c1.673-0.646,4.781,0.04,8.069,0.764
					c3.736,0.821,7.6,1.675,9.605,0.65c0.091-0.046,0.206-0.011,0.255,0.083c0.047,0.093,0.01,0.207-0.083,0.255
					C61.781,21.09,60.867,21.233,59.823,21.233z"/>
			</g>
		</g>
		<path fill="#FAAF40" d="M33.95,69.58c0,0,4.775,5.172,5.348,9.926c0.572,4.752,6.656,13.039,4.828,4.222
			c-1.828-8.818,10.117-14.492,3.654-16.129C41.315,65.965,33.95,69.58,33.95,69.58z"/>
		<path fill="#FAAF40" d="M8.577,67.76c0,0-4.852-1.02-2.906,8.716c1.945,9.731-2.609,16.69,1.551,15.133
			c5.385-2.021,0.604-9.609,0.98-12.078s7.15-8.414,6.652-10.738C14.356,66.471,8.577,67.76,8.577,67.76z"/>
		<path fill="#FAAF40" d="M58.052,66.465c0,0,3.281,3.988,2.9,9.207c-0.381,5.215,1.162,6.074,2.316,3.238
			c1.154-2.836,4.039-12.891,4.039-12.891L58.052,66.465z"/>
		<g>
			<path fill="#BE1E2D" d="M64.3,35.072c0,0,28.814-3.09,28.504-9.104c1.997,2.552,2.565,2.369,2.157,3.259
				c-3.032,6.61-24.037,12.221-27.875,10.227C63.251,37.463,64.3,35.072,64.3,35.072z"/>
			<path fill="#F05A28" d="M66.188,33.436c0,0,23.699-12.4,26.615-7.468c2.914,4.935-17.91,12.306-26.238,11.289
				C61.44,36.631,66.188,33.436,66.188,33.436z"/>
			<g>
				<path fill="#BE1E2D" d="M74.793,30.947c0,0-9.832,3.047-9.934,4.025c-0.102,0.979,5.643,2.413,7.578,0.813
					C74.372,34.184,75.692,30.664,74.793,30.947z"/>
				<path fill="#BE1E2D" d="M82.013,27.482c0,0,9.106-3.545,9.36-1.857c0.252,1.688-4.555,6.336-6.156,5.527
					C83.616,30.348,81.112,27.82,82.013,27.482z"/>
				<path fill="#BE1E2D" d="M78.575,28.896c0,0-4.908,5.444-3.389,5.725c1.518,0.279,7.121-1.383,7.229-2.576
					C82.522,30.854,79.222,28.154,78.575,28.896z"/>
			</g>
			<g>
				<path fill="#F6921E" d="M87.22,26.533c0.485,0.455,2.364,0.502,2.323-0.314C89.231,25.795,87.612,26.229,87.22,26.533z"/>
				<path fill="#F6921E" d="M85.665,28.051c0.613-0.092,3.033-1.094,3.109-0.204C88.87,28.9,85.665,28.051,85.665,28.051z"/>
				<path fill="#F6921E" d="M87.2,29.355c-1.332,0.174-2.377-0.273-3.131-0.943C84.069,28.412,88.136,28.219,87.2,29.355z"/>
			</g>
			<g>
				<path fill="#F6921E" d="M68.608,33.266c-0.113,0.655-1.582,1.83-2.043,1.151C66.556,33.891,68.11,33.258,68.608,33.266z"/>
				<path fill="#F6921E" d="M70.765,33.537c-0.545,0.295-3.082,0.959-2.604,1.713C68.72,36.146,70.765,33.537,70.765,33.537z"/>
				<path fill="#F6921E" d="M70.327,35.504c1.166-0.666,1.729-1.653,1.927-2.645C72.254,32.859,68.894,35.16,70.327,35.504z"/>
			</g>
			<g>
				<path fill="#F6921E" d="M76.937,32.045c0.334,0.576-0.037,2.418-0.826,2.193C75.765,33.84,76.551,32.357,76.937,32.045z"/>
				<path fill="#F6921E" d="M79.204,30.677c0.178,0.435,1.465,2.226,0.629,2.181C78.849,32.811,79.204,30.677,79.204,30.677z"/>
				<path fill="#F6921E" d="M78.228,33.674c0.397-0.963,0.142-1.848-0.379-2.563C77.849,31.109,76.956,34.119,78.228,33.674z"/>
			</g>
		</g>
		<g>
			<path fill="#BE1E2D" d="M95.892,35.984c0.774,0.195,2.332,2.192,2.332,2.192s-2.854,1.511-9.021,2.798
				c-6.164,1.289-6.416,1.459-7.136,5.862c-0.721,4.404-0.301,7.404-2.147,7.615c-1.853,0.213-4.39-2.313-4.39-2.313
				s3.119-3.199,3.388-5.189c0.27-1.988,2.303-6.338,4.567-7.061c2.271-0.724,4.888-0.021,6.918-1.494
				C92.435,36.926,94.438,35.623,95.892,35.984z"/>
			<path fill="#77111A" d="M97.536,37.359c0,0-4.561,2.461-6.25,2.553c-1.688,0.092-6.627,0.564-7.713,1.432
				c-1.088,0.863-1.807,1.566-2.123,3.25c-0.318,1.685-0.715,4.687-1.188,5.613c-0.478,0.928-0.828,2.066-1.205,2.344
				c-0.375,0.275,1.514,2.246,1.942,1.464c0.43-0.783,0.582-4.146,0.742-4.691c0.162-0.547,0.336-5.385,1.193-5.803
				c2.043-2.033,10.094-2.838,12.824-4.33c0.641-0.353,2.672-1.033,2.465-1.013C98.013,38.199,97.536,37.359,97.536,37.359z"/>
		</g>
	</g>
	<g>
		<path fill="#231F20" d="M118.683,78.258c0.911,0.21,1.389,1.017,1.163,1.99c-0.275,1.195-1.596,2.183-2.822,1.899
			c-0.691-0.159-1.542-0.786-1.259-2.014C116.098,78.688,117.645,78.018,118.683,78.258z M124.191,73.897
			c-1.624,0.154-2.241,0.245-2.801,1.374c-0.377,0.773-1.188,1.283-2.031,1.055c-0.748-0.205-1.302-0.962-0.993-1.719
			c0.338-0.75,0.711-1.36,1.18-1.814c0.885-0.821,1.572-0.93,3.59-1.061c1.517-0.113,2.658-0.183,3.889-1.354
			c0.895-0.854,1.57-2.354,1.868-3.644c0.131-0.565,0.339-1.609-0.313-2.522c-0.449-0.634-1.367-1.109-2.404-1.35
			c-0.881-0.203-1.576-0.198-2.155-0.133c-0.647,0.083-1.213-0.479-1.067-1.107c0.195-0.85,0.879-1.519,1.758-1.449
			c0.715,0.065,1.49,0.146,2.371,0.349c4.904,1.132,5.717,4.067,5.094,6.772c-0.262,1.132-0.848,2.389-1.381,3.258
			c-1.597,2.612-3.25,2.895-4.936,3.167L124.191,73.897z"/>
	</g>
</g>
</svg>
