<?xml version="1.0" encoding="utf-8"?>
<!-- Generator: Adobe Illustrator 16.0.0, SVG Export Plug-In . SVG Version: 6.00 Build 0)  -->
<!DOCTYPE svg PUBLIC "-//W3C//DTD SVG 1.1//EN" "http://www.w3.org/Graphics/SVG/1.1/DTD/svg11.dtd">
<svg version="1.1" id="Layer_1" xmlns="http://www.w3.org/2000/svg" xmlns:xlink="http://www.w3.org/1999/xlink" x="0px" y="0px"
	 width="137.813px" height="156.848px" viewBox="0 0 137.813 156.848" enable-background="new 0 0 137.813 156.848"
	 xml:space="preserve">
<g>
	<path fill="#FFFFFF" d="M4.761,60.173C-2.738,60.45,1.006,38.981,0.47,33.854c-0.785-7.511,0.799-17.902,10.081-17.998
		c3.438-0.035,6.644,2.969,10.303,2.854c4.163-0.13,6.438-3.227,10.085-3.736c7.961-1.116,11.293,4.501,19.556,1.972
		c3.073-0.941,4.905-1.632,7.58-1.346c2.533,0.271,4.813,3.188,8.477,1.795c2.93-1.113,5.859-6.353,8.227-8.386
		c3.058-2.623,5.747-7.385,9.621-8.332c14.965-3.658,53.826,8.088,53.412,21.634c-0.262,8.586-0.708,16.982-2.771,24.871
		c-4.203,16.063-8.129,32.733-13.366,48.301c-2.15,6.392-7.012,13.176-8.307,20.229c-1.222,6.655,5.553,13.347-1.779,18.686
		c-2.402,1.75-6.096,1.631-8.869,2.875c-6.342,2.846-1.776,2.664-4.706,7.219c-2.589,4.023-11.812,7.088-16.12,8.16
		c-17.418,4.328-33.242,4.687-51.627,3.813c-9.405-0.446-16.803,0.608-24.076-4.94c-7.055-5.381-6.68-12.658-3.981-20.057
		c2.415-6.619,1.918-14.396,6.985-19.134c3.744-3.498,5.219-1.503,3.078-6.146c-1.352-2.935-5.188-5.189-6.481-8.895
		c-1.95-5.597-3.228-15.72-0.562-21.621c2.164-4.787,5.479-2.593,7.579-5.124c2.302-2.772,0.224-7.358-1.438-9.391
		c-1.025-1.254-1.572-1.771-2.929-2.635L4.761,60.173z"/>
	<path fill="#7CCDCD" d="M65.831,127.92c1.088,0.579,2.456,2.007,4.076,2.235c1.721,0.244,3.33,0.771,5.338,0.951
		c4.037,0.358,7.557,2.184,11.824,2.008c3.885-0.16,25.666-2.691,21.877-9.131c-3.984-6.775-17.314-0.193-23.779-0.354
		c-3.842-0.095-7.205,0.7-11.084,0.613c-2.918-0.065-6.814-0.896-8.243,3.247L65.831,127.92z"/>
	<g>
		<path fill="#468885" d="M27.693,48.498c0.461,0,0.96,0.039,1.499,0.115c0.191,0.078,0.441,0.23,0.749,0.461h0.115
			c0.192,0,0.337,0.039,0.433,0.115c0.097,0.078,0.192,0.212,0.288,0.403c0.097,0.192,0.184,0.327,0.261,0.403l0.346,0.115
			c0.038,0.154,0.25,0.308,0.635,0.461c0.037,0.154,0.115,0.346,0.23,0.576c0.114,0.23,0.19,0.403,0.229,0.519
			c0.115,0.039,0.191,0.115,0.23,0.23c0.038,0.115,0.065,0.25,0.087,0.403c0.019,0.154,0.047,0.27,0.086,0.347v0.288
			c0.038,0.039,0.065,0.125,0.087,0.26c0.019,0.135,0.048,0.222,0.086,0.259c0.077,0.115,0.135,0.25,0.173,0.404
			c0.038,0.077,0.059,0.211,0.059,0.402c0,0.154-0.021,0.309-0.059,0.462c-0.077,0.229-0.115,0.402-0.115,0.519
			c0,0.154,0.059,0.289,0.174,0.404c-0.077,0.192-0.077,0.365,0,0.519c-0.115,0-0.192,0.059-0.23,0.173v0.288
			c-0.038,0.039-0.067,0.135-0.086,0.288c-0.021,0.154-0.067,0.25-0.145,0.289c-0.039,0.077-0.039,0.135,0,0.173
			c0.037,0.039,0.058,0.097,0.058,0.173c-0.039,0.039-0.106,0.212-0.201,0.52c-0.097,0.308-0.202,0.519-0.317,0.634
			c0,0.039,0.02,0.086,0.059,0.146c0.038,0.058,0.038,0.105,0,0.144c-0.077,0.077-0.125,0.202-0.146,0.375
			c-0.02,0.173-0.049,0.298-0.086,0.375c-0.078,0.154-0.365,0.5-0.864,1.038c-0.115,0.308-0.192,0.48-0.23,0.519
			c0.038,0.078,0.038,0.154,0,0.231L31.037,61.7c-0.461,0.27-0.691,0.577-0.691,0.922c0,0.078-0.021,0.135-0.058,0.173
			c0,0.078-0.059,0.173-0.175,0.289c-0.114,0.115-0.173,0.211-0.173,0.288c-0.461,0.423-0.788,0.808-0.979,1.153h0.749
			c0.538,0,0.901-0.059,1.096-0.173h0.346c0.077-0.038,0.153-0.077,0.23-0.115s0.145-0.058,0.202-0.058
			c0.057,0,0.134-0.01,0.229-0.029c0.097-0.02,0.183-0.048,0.261-0.086l1.324-0.23c0.038,0,0.175-0.038,0.404-0.116
			c0.23-0.075,0.403-0.114,0.52-0.114l0.346,0.173c0.191,0.078,0.326,0.154,0.402,0.23c0.348,0.154,0.521,0.327,0.521,0.52
			c0,0.078-0.01,0.173-0.029,0.289c-0.019,0.116-0.027,0.191-0.027,0.229c0,0.078,0.009,0.184,0.027,0.317
			c0.021,0.135,0.029,0.241,0.029,0.317c0,0.153-0.021,0.25-0.058,0.287c-0.078,0.193-0.386,0.386-0.924,0.577
			c-0.076,0.039-0.144,0.086-0.2,0.145c-0.058,0.058-0.106,0.105-0.146,0.144c-0.115,0.039-0.346,0.135-0.69,0.288
			c-0.348,0.154-0.615,0.25-0.809,0.289c-0.077,0.039-0.202,0.067-0.375,0.086c-0.173,0.021-0.326,0.049-0.461,0.086
			c-0.135,0.039-0.24,0.096-0.317,0.173l-0.229-0.058c-0.038,0-0.288,0.115-0.749,0.346h-0.058l-0.115-0.058
			c-0.193,0-0.404,0.078-0.635,0.23h-0.288c-0.271,0-0.673,0.039-1.211,0.115c-0.153,0-0.23-0.038-0.23-0.115
			c-0.115,0.077-0.346,0.115-0.69,0.115H26.83c-0.039,0.039-0.029,0.067,0.027,0.086c0.059,0.021,0.049,0.049-0.027,0.086
			c-0.078-0.077-0.137-0.065-0.174,0.029c-0.038,0.097-0.097,0.144-0.174,0.144c0.077,0.154,0.115,0.271,0.115,0.347
			c0,0.039-0.01,0.114-0.028,0.229c-0.02,0.115-0.028,0.212-0.028,0.288c0,0.115,0.02,0.212,0.058,0.289l-0.173,0.288
			c0,0.078,0.038,0.164,0.115,0.259c0.077,0.098,0.115,0.202,0.115,0.317c0,0.269,0.02,0.441,0.058,0.519
			c0,0.115-0.01,0.298-0.028,0.548c-0.02,0.25-0.028,0.452-0.028,0.605c0,0.308,0.02,0.519,0.058,0.634
			c0,0.039-0.038,0.135-0.115,0.289c0.038,0.039,0.059,0.135,0.059,0.288c0,0.23-0.077,0.461-0.23,0.692
			c0,0.039,0.038,0.086,0.115,0.144s0.135,0.106,0.173,0.145v1.269c0,0.039-0.01,0.096-0.028,0.173
			c-0.02,0.078-0.028,0.135-0.028,0.173c0,0.231,0.135,0.52,0.403,0.865c-0.039,0.154,0,0.346,0.115,0.577
			c-0.039,0.077-0.058,0.182-0.058,0.317c0,0.134,0,0.221,0,0.26c0.151,0.076,0.229,0.229,0.229,0.461
			c0,0.115-0.039,0.211-0.115,0.289c0,0.076,0.037,0.144,0.115,0.202c0.076,0.058,0.096,0.124,0.059,0.201
			c0.114,0.115,0.19,0.174,0.229,0.174c-0.039,0.038-0.058,0.114-0.058,0.23c0,0.038,0.019,0.105,0.058,0.202
			c0.038,0.095,0.058,0.182,0.058,0.259v0.059l0.288,0.173c0.077,0.384,0.115,0.634,0.115,0.75c0,0.038-0.02,0.134-0.058,0.289
			c-0.038,0.152-0.059,0.268-0.059,0.346c0,0.346-0.038,0.577-0.114,0.692c-0.039,0.076-0.021,0.124,0.058,0.144
			c0.077,0.02,0.115,0.048,0.115,0.086c-0.038,0.077-0.48,0.23-1.326,0.461c-0.038-0.039-0.115-0.078-0.23-0.115
			c-0.076-0.038-0.135-0.058-0.173-0.058h-0.058c-0.038,0.038-0.077,0.058-0.115,0.058c-0.115,0-0.26-0.038-0.433-0.115
			s-0.298-0.115-0.374-0.115h-0.115c-0.231,0-0.481-0.135-0.75-0.403h-0.288c-0.039-0.039-0.097-0.097-0.173-0.173l-0.058-0.116
			c-0.078-0.039-0.184-0.077-0.317-0.114c-0.135-0.039-0.24-0.077-0.317-0.115c-0.152-0.385-0.346-0.597-0.576-0.634
			c-0.346-0.461-0.673-0.808-0.979-1.038c0-0.23-0.135-0.423-0.403-0.577v-0.115c0-0.077-0.02-0.144-0.058-0.202
			c-0.038-0.058-0.096-0.125-0.173-0.202c-0.077-0.078-0.136-0.153-0.173-0.229c0-0.193-0.021-0.346-0.059-0.461
			c0-0.039-0.039-0.115-0.115-0.23l-0.114-0.173c-0.078-0.346-0.137-0.538-0.173-0.577v-0.173c-0.115-0.192-0.213-0.433-0.288-0.721
			c-0.078-0.289-0.154-0.614-0.231-0.98c-0.077-0.364-0.135-0.644-0.173-0.836c0-0.038,0.029-0.066,0.087-0.086
			c0.058-0.019,0.066-0.066,0.028-0.145c0.038-0.038,0-0.059-0.115-0.059c-0.077,0-0.115-0.038-0.115-0.114
			c0-0.153,0.021-0.27,0.059-0.347c-0.115-0.152-0.212-0.691-0.288-1.614c-0.039-0.152-0.039-0.375,0-0.662
			c0.038-0.288,0.038-0.49,0-0.605c0-0.038-0.021-0.104-0.059-0.202c-0.039-0.096-0.058-0.163-0.058-0.202
			c0-0.077,0.009-0.144,0.029-0.202c0.019-0.058,0.027-0.104,0.027-0.145l-0.058-0.115c-0.039-0.077-0.059-0.134-0.059-0.173
			c0-0.153,0.01-0.365,0.029-0.634s0.028-0.461,0.028-0.576V67.41c0-0.346,0.038-0.577,0.115-0.692
			c0.037-0.229,0.058-0.652,0.058-1.269c0-0.076,0.038-0.346,0.115-0.807c0-0.538,0.038-0.941,0.114-1.21
			c0-0.038,0.021-0.105,0.059-0.202s0.058-0.183,0.058-0.26v-0.23l0.115-0.23c0.038-0.114,0.077-0.45,0.115-1.009
			c0.038-0.557,0.135-0.951,0.289-1.182c-0.039-0.461,0.048-1.066,0.259-1.816s0.317-1.297,0.317-1.643
			c0.423-0.922,0.634-1.557,0.634-1.902c0.038-0.038,0.096-0.134,0.173-0.288c0-0.191,0.067-0.433,0.202-0.721
			c0.135-0.289,0.202-0.509,0.202-0.663c0.114-0.269,0.336-0.672,0.663-1.211c0.325-0.538,0.565-0.96,0.721-1.268
			c0-0.077,0.058-0.135,0.173-0.174l0.115-0.058c0.037-0.115,0.086-0.23,0.144-0.346c0.059-0.115,0.087-0.21,0.087-0.288
			c0.038,0,0.076-0.02,0.115-0.059c0.038-0.037,0.076-0.037,0.115,0v-0.173c0.461-0.191,0.769-0.346,0.923-0.461
			c0.076-0.038,0.191-0.077,0.346-0.115c0.076-0.037,0.163-0.104,0.259-0.201c0.097-0.097,0.184-0.163,0.261-0.202
			c0.038-0.038,0.145-0.059,0.316-0.059s0.297,0,0.374,0c0.038,0,0.097-0.019,0.174-0.058l0.115-0.058
			C27.175,48.518,27.386,48.498,27.693,48.498z M28.904,53.052l-0.691,0.174c-0.423,0.5-0.634,1.538-0.634,3.112
			c-0.115,0.154-0.174,0.423-0.174,0.808c-0.038,0.153-0.114,0.346-0.229,0.576c-0.115,0.229-0.202,0.461-0.26,0.691
			c-0.059,0.231-0.067,0.461-0.028,0.692c-0.078,0.039-0.136,0.125-0.174,0.259c-0.038,0.135-0.077,0.222-0.115,0.259
			c-0.115,0.461-0.173,0.771-0.173,0.923c0,0.309,0.115,0.481,0.346,0.52c0.231-0.077,0.384-0.153,0.462-0.23
			c0-0.038,0.02-0.125,0.059-0.259c0.038-0.134,0.076-0.221,0.114-0.26l0.174-0.173l0.229-0.577c0-0.038,0.029-0.086,0.087-0.145
			c0.059-0.058,0.105-0.124,0.145-0.202c0-0.037,0-0.114,0-0.229s0.02-0.211,0.058-0.289c0-0.038,0.038-0.115,0.115-0.229
			c0.077-0.115,0.135-0.212,0.173-0.288l0.52-1.097c0.115-0.383,0.174-0.595,0.174-0.634l0.288-0.289
			c0-0.191,0.019-0.346,0.058-0.461c0.115-0.307,0.173-0.692,0.173-1.153c0-0.075-0.01-0.201-0.028-0.375
			c-0.021-0.173-0.028-0.277-0.028-0.316c-0.039-0.077-0.077-0.192-0.115-0.346c-0.039-0.153-0.097-0.27-0.173-0.347
			C29.096,53.091,28.98,53.052,28.904,53.052z"/>
		<path fill="#468885" d="M39.454,59.855c0.229,0,0.499,0.153,0.807,0.461h0.115c0.152,0,0.308,0.067,0.461,0.202
			s0.289,0.201,0.404,0.201c0.114,0.115,0.249,0.309,0.402,0.576c0.153,0.271,0.27,0.442,0.347,0.52
			c0,0.039-0.021,0.078-0.059,0.115l-0.058,0.058c0.152,0.154,0.229,0.289,0.229,0.404c0.038,0.076,0.097,0.114,0.173,0.114
			c0.077,0.078,0.115,0.136,0.115,0.174s-0.038,0.097-0.115,0.173c0.153,0.385,0.23,0.673,0.23,0.864
			c0,0.078,0.02,0.116,0.059,0.116c0,0.039-0.021,0.077-0.059,0.115c-0.038,0.039-0.038,0.096,0,0.173
			c0.153,0.039,0.326,0,0.52-0.115h0.461l0.115-0.114c0.077-0.038,0.192-0.059,0.347-0.059l0.229-0.058
			c0.116-0.038,0.355-0.115,0.721-0.23c0.366-0.114,0.625-0.211,0.778-0.288c0.038,0,0.135-0.028,0.289-0.086
			c0.152-0.058,0.268-0.104,0.346-0.144c0.808-0.27,1.326-0.404,1.558-0.404h0.058c0.037,0,0.058-0.019,0.058-0.058
			c0-0.038,0.02-0.038,0.059,0c0.115-0.038,0.288-0.059,0.519-0.059c0.27,0,0.461,0.021,0.576,0.059l0.404,0.058
			c0.076,0.039,0.173,0.106,0.288,0.202c0.114,0.097,0.211,0.164,0.288,0.202c0.038,0,0.104,0.02,0.201,0.058
			c0.096,0.039,0.183,0.077,0.26,0.115v0.173c0.077,0,0.163,0.039,0.26,0.115c0.096,0.078,0.163,0.115,0.202,0.115
			c0.151,0.423,0.268,0.673,0.346,0.75c-0.078,0.308-0.115,0.519-0.115,0.634c0,0.039,0.037,0.173,0.115,0.403l-0.115,0.115v0.115
			c0,0.154-0.021,0.288-0.058,0.403c-0.039,0.115-0.087,0.25-0.146,0.404c-0.058,0.153-0.105,0.269-0.144,0.346
			c0,0.27-0.059,0.519-0.174,0.75l0.058,0.229c-0.191,0-0.354,0.115-0.489,0.347c-0.136,0.229-0.26,0.346-0.375,0.346
			c-0.076,0.385-0.191,0.596-0.346,0.634c0.037,0,0.059,0.059,0.059,0.173c-0.078,0.078-0.154,0.115-0.23,0.115
			c-0.154,0.385-0.289,0.634-0.404,0.75v0.288c-0.077,0.078-0.191,0.212-0.346,0.404s-0.288,0.327-0.403,0.402
			c0.038,0.078,0.059,0.154,0.059,0.231s0,0.135,0,0.173c-0.271,0.308-0.442,0.807-0.52,1.499l-0.114,0.23
			c0.036,0.077,0.047,0.173,0.027,0.287c-0.02,0.115-0.027,0.213-0.027,0.289l-0.175,0.174c0.077,0.076,0.097,0.201,0.06,0.375
			c-0.039,0.173-0.039,0.316,0,0.433l0.115,0.058c0.075,0,0.134,0,0.173,0c0.269,0,0.479-0.077,0.634-0.229
			c0.076-0.077,0.153-0.096,0.229-0.059c0-0.037,0.021-0.075,0.059-0.114c0.038-0.038,0.058-0.076,0.058-0.115
			c0.192-0.077,0.395-0.23,0.605-0.461c0.211-0.231,0.375-0.384,0.489-0.461c0.115-0.192,0.23-0.288,0.347-0.288
			c0.346-0.422,0.894-0.98,1.644-1.672c0.749-0.692,1.2-1.114,1.354-1.27l0.229-0.114c0.23-0.308,0.48-0.52,0.75-0.635
			c0-0.076,0.02-0.134,0.059-0.173c0.461-0.346,0.71-0.519,0.749-0.519c0.19-0.385,0.519-0.577,0.979-0.577h0.115
			c0.037,0,0.144-0.02,0.315-0.059c0.174-0.037,0.299-0.058,0.375-0.058h0.115c0.077,0,0.192,0.048,0.347,0.145
			c0.152,0.096,0.269,0.144,0.347,0.144c0.037,0,0.134,0.078,0.288,0.23v0.461c0,0.077-0.029,0.135-0.087,0.173
			c-0.059,0.039-0.125,0.078-0.201,0.114c-0.078,0.039-0.136,0.078-0.174,0.115c-0.038,0.078-0.105,0.146-0.201,0.202
			c-0.097,0.058-0.164,0.106-0.202,0.145c-0.038,0.229-0.192,0.365-0.461,0.402c-0.115,0.078-0.251,0.241-0.403,0.49
			c-0.153,0.25-0.309,0.414-0.462,0.49c-0.038,0-0.058,0.078-0.058,0.23c-0.077,0.039-0.184,0.145-0.316,0.317
			c-0.136,0.173-0.278,0.298-0.433,0.375c-0.039,0.115-0.098,0.229-0.173,0.346c-0.078,0.115-0.184,0.25-0.317,0.403
			c-0.135,0.154-0.24,0.27-0.317,0.346c-0.037,0-0.096,0.039-0.173,0.115c-0.077,0.078-0.152,0.135-0.229,0.173
			c0,0.078-0.086,0.154-0.259,0.23c-0.175,0.077-0.261,0.153-0.261,0.23c0,0.039,0.02,0.059,0.059,0.059
			c-0.077,0.076-0.173,0.173-0.288,0.287c-0.115,0.115-0.212,0.223-0.288,0.317c-0.078,0.096-0.185,0.192-0.317,0.288
			c-0.135,0.096-0.26,0.164-0.375,0.202c0,0.078-0.058,0.164-0.173,0.259c-0.115,0.097-0.191,0.164-0.229,0.202
			c-0.077,0-0.146,0.029-0.202,0.086c-0.058,0.057-0.115,0.115-0.173,0.173c-0.059,0.058-0.106,0.106-0.145,0.145
			c-0.039,0.038-0.145,0.086-0.316,0.144c-0.173,0.058-0.279,0.106-0.317,0.144c-0.038,0.039-0.115,0.106-0.23,0.202
			c-0.114,0.097-0.173,0.184-0.173,0.26l-0.346,0.114c-0.078,0.154-0.309,0.289-0.692,0.404c-0.383,0.115-0.614,0.23-0.69,0.346
			c-0.154,0-0.355,0.038-0.605,0.115s-0.413,0.115-0.49,0.115h-0.173c-0.114,0-0.239-0.01-0.375-0.029
			c-0.135-0.02-0.239-0.029-0.315-0.029h-0.173c-0.692-0.268-1.499-0.786-2.423-1.557c-0.037-0.038-0.096-0.115-0.173-0.229
			c-0.077-0.115-0.153-0.192-0.229-0.23c-0.077-0.23-0.154-0.365-0.23-0.404c-0.077-0.384-0.153-0.69-0.229-0.922
			c-0.193-0.307-0.288-0.595-0.288-0.865c0-0.037,0.009-0.114,0.028-0.229c0.019-0.115,0.028-0.211,0.028-0.288v-0.98
			c0-0.037,0.02-0.104,0.059-0.201c0.036-0.096,0.036-0.183,0-0.26c0.075-0.152,0.095-0.25,0.058-0.288
			c0.037-0.037,0.058-0.087,0.058-0.145s0.02-0.086,0.059-0.086V71.04c0-0.077,0.027-0.173,0.086-0.288
			c0.058-0.114,0.087-0.211,0.087-0.289c0.038-0.075,0.096-0.114,0.173-0.114c0-0.038-0.01-0.086-0.029-0.145
			c-0.019-0.058-0.027-0.104-0.027-0.144c0-0.038,0.058-0.23,0.173-0.577c0.038-0.038,0.096-0.059,0.173-0.059l0.115,0.059
			c0-0.038-0.028-0.066-0.086-0.086c-0.059-0.02-0.087-0.048-0.087-0.086c0-0.153,0.075-0.326,0.229-0.52
			c0.153-0.19,0.23-0.346,0.23-0.461v-0.173l0.114-0.115c0.077-0.116,0.153-0.191,0.231-0.23v-0.115c0-0.077,0.076-0.23,0.229-0.461
			h-0.114c-0.115,0-0.289,0.029-0.521,0.086c-0.23,0.057-0.385,0.086-0.461,0.086h-0.749l-1.211,0.173h-0.403
			c-0.114,0.039-0.251,0.059-0.403,0.059c-0.153,0-0.288,0.02-0.403,0.058c-0.115,0.115-0.191,0.308-0.229,0.577
			c-0.039,0.269-0.077,0.441-0.115,0.519c0,0.347-0.059,0.598-0.173,0.75c0.038,0.078,0.058,0.193,0.058,0.347
			c0,0.229-0.077,0.423-0.229,0.575c0.114,0.154,0.095,0.309-0.059,0.461v0.23c0,0.154-0.039,0.346-0.115,0.577
			c0,0.039,0.02,0.078,0.059,0.115l0.058,0.058v0.461c0,0.115,0.009,0.259,0.028,0.432c0.019,0.174,0.029,0.299,0.029,0.375v0.461
			c-0.193,0.309-0.31,0.539-0.347,0.692c0.037,0.078,0.059,0.135,0.059,0.173c0,0.115-0.039,0.231-0.116,0.347
			c-0.077,0.114-0.115,0.191-0.115,0.229c-0.077,0.385-0.115,0.615-0.115,0.692l-0.114,0.229c-0.077,0.115-0.136,0.212-0.174,0.288
			c-0.076,0.078-0.183,0.193-0.316,0.346c-0.135,0.154-0.27,0.279-0.403,0.375c-0.135,0.098-0.279,0.164-0.433,0.202
			c-0.115-0.038-0.288-0.087-0.52-0.145c-0.23-0.059-0.385-0.086-0.461-0.086c-0.5-0.347-0.808-0.596-0.923-0.75l-0.229-0.115
			c-0.077-0.115-0.174-0.21-0.288-0.288c0-0.038-0.039-0.096-0.115-0.173c-0.23-0.192-0.423-0.48-0.576-0.865
			c0.077-0.077,0.115-0.134,0.115-0.173h-0.115V74.44c0-0.115,0.028-0.278,0.086-0.49c0.059-0.211,0.087-0.355,0.087-0.433
			l0.23-0.115c0-0.038,0-0.115,0-0.23c0-0.114-0.021-0.191-0.059-0.23l0.059-0.059c0.039,0,0.077-0.019,0.114-0.058l-0.058-0.058
			c-0.038,0-0.038-0.02,0-0.059c0.039-0.038,0.058-0.115,0.058-0.229c0-0.27,0.059-0.441,0.174-0.52
			c0.038-0.038,0.038-0.077,0-0.114h-0.059c0.038-0.038,0.076-0.145,0.115-0.317c0.038-0.173,0.115-0.278,0.23-0.317v-0.058
			l-0.059-0.115c0-0.038,0.115-0.229,0.346-0.577v-0.114c0-0.076,0.029-0.174,0.088-0.288c0.058-0.115,0.086-0.192,0.086-0.23
			v-0.115l0.059-0.058v-0.058c0-0.115,0.019-0.21,0.058-0.288c0.037-0.077,0.059-0.135,0.059-0.174
			c-0.115-0.114-0.327-0.277-0.635-0.489c-0.309-0.21-0.52-0.395-0.635-0.547c-0.96-0.808-1.44-1.691-1.44-2.652
			c0-0.076,0.039-0.115,0.115-0.115l-0.115-0.229c0.039-0.115,0.077-0.27,0.115-0.461s0.076-0.326,0.114-0.403
			c0.115-0.192,0.327-0.441,0.634-0.75l0.116-0.115c0.115-0.077,0.153-0.152,0.115-0.229c0.384-0.538,0.634-0.865,0.749-0.98
			l0.173-0.173c0.309-0.307,0.48-0.461,0.52-0.461l0.115-0.173c0.191-0.116,0.403-0.289,0.635-0.52
			c0.075,0.039,0.288-0.058,0.634-0.288c0.038-0.038,0.115-0.125,0.229-0.26c0.116-0.134,0.231-0.221,0.348-0.259
			c0.229-0.077,0.461-0.115,0.69-0.115h0.23c0.077-0.152,0.211-0.134,0.402,0.059C39.261,59.894,39.376,59.855,39.454,59.855z
			 M39.627,62.737c-0.115,0-0.23,0.154-0.347,0.461c-0.077,0.077-0.174,0.115-0.288,0.115c-0.038,0.153-0.136,0.27-0.288,0.346
			c0,0.193-0.038,0.327-0.115,0.404l-0.059,0.058c-0.038,0-0.097,0.021-0.173,0.059c-0.229,0.229-0.365,0.441-0.402,0.634
			l-0.115,0.114c-0.078,0.039-0.097,0.097-0.058,0.174c0.151,0.078,0.325,0.114,0.519,0.114c0.115,0,0.308-0.019,0.576-0.058
			c0.269-0.038,0.462-0.058,0.577-0.058c0.307-0.038,0.519-0.211,0.634-0.52v-0.173c0-0.038-0.01-0.134-0.028-0.288
			c-0.021-0.153-0.029-0.346-0.029-0.577c0-0.152-0.02-0.269-0.058-0.346c-0.115-0.115-0.173-0.211-0.173-0.289
			C39.8,62.795,39.742,62.737,39.627,62.737z"/>
		<path fill="#468885" d="M58.479,60.316c0.076,0,0.145,0.02,0.201,0.058c0.058,0.039,0.115,0.078,0.173,0.116
			c0.059,0.039,0.125,0.077,0.202,0.115c0.076,0.039,0.135,0.077,0.173,0.115c0,0.114,0.066,0.259,0.202,0.432
			c0.134,0.173,0.201,0.316,0.201,0.433c0,0.039-0.021,0.077-0.058,0.115c-0.077,0.078-0.115,0.135-0.115,0.173v0.461
			c-0.077,0.461-0.115,0.922-0.115,1.383c-0.038,0.039-0.077,0.098-0.115,0.174s-0.077,0.114-0.115,0.114
			c0.038,0.154,0.059,0.403,0.059,0.75c0,0.309-0.021,0.539-0.059,0.691c0,0.039-0.01,0.105-0.027,0.202
			c-0.021,0.096-0.029,0.183-0.029,0.259c0,0.539-0.039,0.846-0.115,0.922c0,0.078,0.038,0.193,0.115,0.346
			c0.076,0.154,0.115,0.288,0.115,0.403c0,0.078-0.028,0.154-0.086,0.23c-0.059,0.077-0.087,0.153-0.087,0.23v0.346
			c0,0.386-0.059,0.635-0.173,0.75c0.075,0.115,0.096,0.288,0.058,0.52c-0.039,0.23-0.039,0.404,0,0.519
			c-0.23,0.309-0.346,0.654-0.346,1.038c0,0.039,0.027,0.115,0.086,0.231c0.058,0.115,0.066,0.211,0.028,0.288
			c0,0.039,0.028,0.078,0.086,0.115c0.059,0.038,0.088,0.077,0.088,0.114c0,0.039-0.039,0.136-0.115,0.289
			c0.038,0.039,0.058,0.23,0.058,0.576v0.231v0.634c0.115,0.115,0.288,0.173,0.52,0.173c0.191,0,0.557-0.077,1.096-0.231
			l1.384-0.691c0.076-0.076,0.183-0.145,0.316-0.202s0.221-0.105,0.26-0.145c0.346-0.269,0.576-0.422,0.691-0.461
			c0.191-0.152,0.596-0.422,1.211-0.807c0.613-0.383,1.057-0.71,1.325-0.979h0.115c0.038-0.038,0.076-0.059,0.115-0.059
			c0.038-0.038,0.087-0.104,0.145-0.202c0.059-0.096,0.105-0.163,0.145-0.202c0.038-0.037,0.135-0.104,0.288-0.201
			c0.152-0.097,0.269-0.163,0.347-0.202c0.346-0.23,0.537-0.347,0.576-0.347h0.173c0-0.037,0.058-0.086,0.173-0.144
			s0.211-0.067,0.288-0.029h0.289h0.23c0.075-0.038,0.211-0.058,0.402-0.058c0.115,0,0.288,0.058,0.52,0.173
			c0.384,0.269,0.577,0.5,0.577,0.692c0.036,0.039,0.036,0.076,0,0.114c-0.039,0.077-0.059,0.136-0.059,0.174
			c-0.039,0.077-0.058,0.135-0.058,0.173c0,0.114,0,0.192,0,0.229c-0.039,0.039-0.06,0.098-0.06,0.173
			c-0.191,0.309-0.288,0.52-0.288,0.635c-0.114,0-0.2,0.077-0.259,0.23c-0.058,0.154-0.105,0.25-0.145,0.288
			c-0.077,0-0.135,0.01-0.173,0.029c-0.039,0.02-0.077,0.028-0.115,0.028c-0.077,0.078-0.154,0.23-0.23,0.462
			c-0.539,0.423-0.846,0.711-0.923,0.864h-0.288c0,0.039-0.027,0.086-0.087,0.145c-0.058,0.058-0.086,0.105-0.086,0.144
			c-0.077,0.039-0.173,0.125-0.288,0.259c-0.115,0.136-0.229,0.241-0.346,0.317c-0.039,0.039-0.116,0.058-0.231,0.058l-0.346,0.288
			c-0.077,0.039-0.212,0.154-0.403,0.347c-0.575,0.039-0.961,0.308-1.152,0.807c-0.271,0.154-0.423,0.269-0.461,0.346
			c-0.039,0-0.173,0.059-0.403,0.173l-0.346,0.174c-0.231,0-0.521,0.135-0.865,0.403h-0.23c-0.039,0.039-0.087,0.097-0.145,0.173
			c-0.058,0.078-0.106,0.136-0.145,0.174H61.65c-0.114,0-0.251,0.039-0.403,0.114c-0.153,0.078-0.27,0.116-0.347,0.116
			c-0.038,0-0.097-0.019-0.173-0.058c-0.229,0.192-0.48,0.308-0.749,0.346c-0.039,0.078-0.153,0.153-0.347,0.23
			c-0.192,0.076-0.308,0.134-0.346,0.173c-0.23-0.077-0.403-0.115-0.52-0.115H58.42c-0.115-0.039-0.251-0.125-0.404-0.259
			c-0.153-0.135-0.269-0.222-0.346-0.26l-0.52-0.288c-0.153-0.115-0.365-0.317-0.634-0.605c-0.27-0.289-0.462-0.49-0.577-0.604
			c0.038-0.038,0.038-0.077,0-0.115s-0.058-0.077-0.058-0.115c-0.154-0.077-0.337-0.308-0.548-0.692
			c-0.211-0.384-0.374-0.634-0.489-0.75c-0.039-0.076-0.039-0.152,0-0.229c-0.078-0.077-0.136-0.116-0.174-0.116
			c-0.038-0.076-0.115-0.307-0.23-0.691c-0.114-0.384-0.191-0.691-0.229-0.923c0-0.114-0.049-0.325-0.145-0.634
			c-0.097-0.307-0.145-0.538-0.145-0.691s0.058-0.288,0.173-0.404L54.04,70.29c-0.039-0.077-0.077-0.134-0.115-0.173
			c0.076-0.614,0.269-1.652,0.576-3.113c0-0.038,0.038-0.086,0.115-0.144c0.076-0.059,0.114-0.105,0.114-0.145
			c0-0.229-0.038-0.422-0.114-0.576c0.076-0.115,0.152-0.347,0.23-0.692c0.076-0.346,0.173-0.595,0.288-0.749l-0.058-0.058
			c0-0.038,0-0.076,0-0.115c0-0.076,0.036-0.202,0.114-0.375c0.076-0.173,0.115-0.278,0.115-0.317v-0.23
			c0-0.077,0.115-0.347,0.346-0.808c0.192-0.346,0.326-0.557,0.403-0.634v-0.289c0.423-0.422,0.635-0.691,0.635-0.807
			c0.076,0,0.135-0.038,0.173-0.115c0.037-0.077,0.076-0.115,0.115-0.115c0-0.038,0.009-0.086,0.028-0.144
			c0.019-0.059,0.029-0.125,0.029-0.202C57.269,60.374,57.749,60.316,58.479,60.316z M59.286,54.608
			c0.576,0,1.096,0.116,1.557,0.346c0,0.154,0.115,0.385,0.346,0.692c0.038,0.077,0.097,0.173,0.173,0.288l0.059,0.173v0.23
			c0,0.23-0.077,0.403-0.23,0.52c-0.038,0.078-0.038,0.144,0,0.202c0.038,0.058,0.059,0.105,0.059,0.145
			c-0.077,0.077-0.153,0.202-0.23,0.375s-0.135,0.298-0.173,0.375c-0.039,0.078-0.097,0.125-0.173,0.146
			c-0.077,0.02-0.173,0.039-0.288,0.058c-0.115,0.02-0.212,0.048-0.288,0.086c-0.039,0-0.087,0.039-0.145,0.115
			c-0.059,0.078-0.106,0.115-0.145,0.115l-0.462,0.114h-0.346c-0.271,0-0.771-0.134-1.499-0.402
			c-0.039-0.077-0.098-0.261-0.173-0.548c-0.077-0.288-0.154-0.471-0.23-0.549v-0.229c0-0.153,0.038-0.346,0.115-0.577
			c0.038-0.268,0.153-0.499,0.346-0.691c0.038-0.038,0.115-0.096,0.23-0.173c0.308-0.19,0.479-0.383,0.52-0.576
			c0.037,0,0.173-0.037,0.403-0.114C58.94,54.647,59.132,54.608,59.286,54.608z"/>
	</g>
	<g>
		<path fill="#468885" d="M18.5,79.438h0.127c0.313,0,0.496,0.028,0.553,0.085c0.086-0.028,0.228-0.042,0.426-0.042
			c0.113,0,0.27,0.007,0.469,0.021c0.197,0.016,0.324,0.021,0.383,0.021c0.085,0,0.212-0.006,0.382-0.021
			c0.171-0.014,0.298-0.021,0.383-0.021c0.028,0,0.07,0.015,0.128,0.042c0.058,0.028,0.1,0.042,0.128,0.042
			c0.027,0,0.077-0.006,0.148-0.021c0.069-0.014,0.134-0.021,0.19-0.021c0.027,0,0.17,0.007,0.426,0.021
			c0.255,0.016,0.452,0.05,0.596,0.106c0.057,0,0.099-0.015,0.127-0.043h0.085c0.113,0.085,0.241,0.128,0.383,0.128h0.17
			c0.058,0,0.156-0.007,0.298-0.021c0.143-0.014,0.255-0.021,0.342-0.021h0.127c0.057,0,0.197,0.028,0.426,0.085
			c0.367,0.085,0.623,0.212,0.765,0.382c0.028,0.029,0.085,0.1,0.17,0.213s0.156,0.199,0.213,0.255
			c0.028,0.029,0.07,0.079,0.128,0.149c0.057,0.071,0.1,0.135,0.128,0.19l0.043,0.511c-0.059,0.312-0.171,0.595-0.341,0.85
			c-0.143,0.199-0.283,0.326-0.426,0.383c-0.057,0.029-0.156,0.058-0.298,0.085c-0.142,0.029-0.241,0.058-0.297,0.085
			c-0.114,0.058-0.229,0.085-0.341,0.085c-0.058,0-0.143-0.027-0.255-0.085c-0.171,0.144-0.496,0.213-0.979,0.213h-0.851
			c-0.113,0-0.313,0.008-0.597,0.021c-0.282,0.015-0.51,0.021-0.68,0.021h-0.298c-0.113-0.027-0.255-0.027-0.425,0
			c-0.085,0-0.191-0.007-0.319-0.021s-0.22-0.021-0.276-0.021c-0.056,0-0.135,0.008-0.232,0.021
			c-0.101,0.015-0.178,0.021-0.234,0.021c-0.056,0-0.135-0.007-0.232-0.021c-0.101-0.014-0.164-0.021-0.191-0.021
			c-0.143,0-0.241,0.028-0.298,0.086c0.028,0.057,0.043,0.142,0.043,0.255c-0.171,0.085-0.271,0.142-0.298,0.17
			c0.026,0.027,0.042,0.112,0.042,0.255l-0.042,0.255c0,0.057-0.028,0.113-0.085,0.17c-0.059,0.057-0.085,0.1-0.085,0.127
			c0.026,0.029,0.026,0.057,0,0.085l0.085,0.042c0.026,0,0.042,0.015,0.042,0.042c0.027,0.17,0.05,0.525,0.063,1.063
			c0.015,0.539,0.063,0.936,0.148,1.189c-0.085,0.229-0.144,0.369-0.17,0.425c0.026,0.058,0.069,0.085,0.127,0.085
			c0.057,0,0.085,0.016,0.085,0.042c0,0.229-0.015,0.384-0.042,0.469c0.085,0.142,0.128,0.298,0.128,0.468
			c0,0.199-0.071,0.396-0.213,0.595c0,0.058-0.008,0.121-0.021,0.191c-0.015,0.07-0.021,0.121-0.021,0.148
			c0,0.17,0.015,0.404,0.043,0.702c0.026,0.297,0.042,0.503,0.042,0.616c0,0.142-0.016,0.255-0.042,0.34
			c0.17,0.113,0.312,0.255,0.425,0.425c0.085,0,0.213-0.007,0.383-0.021s0.283-0.021,0.34-0.021c0.143,0,0.299,0.029,0.469,0.085
			c0.282-0.057,0.511-0.085,0.681-0.085l0.425,0.043c0.028,0.028,0.113,0.071,0.256,0.127c0.142,0.058,0.228,0.113,0.255,0.17h0.17
			c0.027,0.029,0.129,0.114,0.299,0.256s0.312,0.227,0.425,0.255c0,0.085,0.057,0.17,0.17,0.255
			c-0.057,0.057-0.063,0.143-0.021,0.255c0.043,0.114,0.064,0.185,0.064,0.212v0.085l-0.17,0.17c0,0.058-0.036,0.143-0.106,0.255
			c-0.07,0.114-0.105,0.213-0.105,0.298c-0.028,0.028-0.085,0.042-0.17,0.042c-0.028,0.113-0.101,0.256-0.213,0.426l-0.596,0.127
			c-0.058,0-0.143,0.015-0.256,0.042c-0.057,0.057-0.113,0.085-0.17,0.085c-0.085,0-0.185-0.015-0.298-0.042
			c-0.113-0.028-0.212-0.042-0.297-0.042l-0.426,0.042h-0.127c-0.059,0-0.136-0.015-0.234-0.042
			c-0.101-0.028-0.163-0.042-0.191-0.042c-0.085,0-0.142,0.015-0.17,0.042c-0.085,0.085-0.128,0.24-0.128,0.468
			c0,0.028-0.007,0.085-0.021,0.17c-0.016,0.085-0.021,0.156-0.021,0.212c0,0.114,0.014,0.271,0.042,0.468
			c0.028,0.199,0.043,0.341,0.043,0.426v0.468c0.085,0.027,0.313,0.105,0.682,0.233c0.367,0.127,0.622,0.249,0.765,0.361
			c0.057,0,0.1-0.007,0.128-0.021c0.028-0.015,0.057-0.021,0.085-0.021c0.255,0.085,0.553,0.127,0.893,0.127
			c0.257,0,0.581-0.028,0.979-0.085c0.027,0,0.099,0.057,0.212,0.17c0.085,0,0.262-0.021,0.532-0.063
			c0.269-0.042,0.474-0.064,0.616-0.064c0.197,0,0.354,0.042,0.468,0.127c0.026-0.056,0.099-0.063,0.213-0.021
			c0.112,0.042,0.184,0.063,0.212,0.063h0.085c0.028,0.029,0.057,0.058,0.085,0.085l0.085,0.043l0.383,0.127
			c0.113,0.17,0.17,0.313,0.17,0.425c0.028,0.029,0.086,0.079,0.171,0.149c0.086,0.071,0.142,0.121,0.171,0.149
			c0.057,0.057,0.085,0.212,0.085,0.468c0,0.227-0.028,0.383-0.085,0.468l-0.128,0.085c-0.198,0.284-0.368,0.454-0.511,0.51
			l-0.383,0.17H24.92c-0.085,0-0.186,0.036-0.298,0.106c-0.113,0.071-0.198,0.106-0.255,0.106c-0.058,0-0.113-0.007-0.171-0.021
			c-0.058-0.014-0.1-0.021-0.128-0.021c-0.027,0-0.085,0.042-0.17,0.128c-0.085,0-0.206,0.042-0.36,0.127
			c-0.156,0.085-0.276,0.142-0.361,0.17c-0.057,0-0.185,0.007-0.383,0.021c-0.198,0.015-0.354,0.035-0.468,0.063
			c-0.228,0.057-0.453,0.085-0.681,0.085c-0.17,0-0.284-0.015-0.341-0.042l-0.127,0.042c-0.058,0.027-0.1,0.057-0.128,0.085
			c-0.057-0.029-0.142-0.042-0.255-0.042c-0.059,0-0.144,0.006-0.255,0.021c-0.114,0.015-0.199,0.021-0.256,0.021
			c-0.028,0-0.07,0-0.127,0l-0.044-0.042c-0.027,0-0.069,0.006-0.127,0.021s-0.1,0.021-0.128,0.021
			c-0.085,0.028-0.27,0.042-0.553,0.042h-0.595c-0.114,0.056-0.187,0.085-0.213,0.085c-0.085,0.028-0.213,0.042-0.383,0.042
			c-0.256,0-0.439-0.015-0.554-0.042l-0.213,0.127c-0.142,0-0.347,0.014-0.616,0.042s-0.475,0.042-0.615,0.042
			c-0.171,0-0.313-0.015-0.427-0.042c-0.057-0.057-0.212-0.127-0.468-0.212c-0.255-0.085-0.411-0.199-0.467-0.34
			c-0.058,0-0.136-0.042-0.234-0.127c-0.1-0.085-0.19-0.143-0.275-0.17c-0.058-0.171-0.213-0.333-0.469-0.489
			c-0.255-0.155-0.41-0.262-0.468-0.319c0-0.113-0.057-0.198-0.17-0.255c0-0.057-0.007-0.121-0.021-0.191
			c-0.016-0.069-0.021-0.119-0.021-0.148c-0.114-0.085-0.256-0.24-0.426-0.468c-0.028-0.057-0.028-0.113,0-0.17v-0.042
			c-0.198-0.256-0.298-0.482-0.298-0.681v-0.085c-0.085-0.142-0.155-0.411-0.212-0.808c-0.059-0.396-0.144-0.666-0.257-0.809v-0.085
			c0-0.056-0.027-0.154-0.085-0.297c-0.057-0.142-0.085-0.241-0.085-0.298L11.782,95c-0.113-0.198-0.171-0.425-0.171-0.68
			c0-0.17-0.008-0.368-0.021-0.595c-0.015-0.228-0.036-0.482-0.063-0.767c-0.028-0.283-0.043-0.51-0.043-0.68v-1.021
			c0-0.112,0.015-0.275,0.043-0.488c0.027-0.212,0.042-0.361,0.042-0.446c0-0.057-0.007-0.156-0.021-0.298
			c-0.015-0.143-0.021-0.255-0.021-0.34c0-0.143,0.015-0.255,0.042-0.34c-0.027-0.028-0.027-0.043,0-0.043l0.085-0.042
			c-0.142-0.936-0.212-1.587-0.212-1.955c0-0.085,0.027-0.24,0.085-0.469h-0.043c-0.057,0-0.085-0.014-0.085-0.042
			c0-0.17,0.008-0.445,0.021-0.829c0.014-0.382,0.021-0.673,0.021-0.872c0-0.027-0.008-0.085-0.021-0.17
			c-0.016-0.085-0.021-0.154-0.021-0.212c0-0.112,0.043-0.213,0.128-0.298l-0.043-0.042c-0.057,0-0.07-0.028-0.042-0.085
			c0.085-0.68,0.127-1.346,0.127-1.999c0.028-0.028,0.07-0.063,0.129-0.105c0.057-0.042,0.099-0.078,0.127-0.106
			c-0.028-0.057-0.058-0.07-0.085-0.042c-0.028,0.028-0.058,0.028-0.086,0c0-0.17,0.044-0.361,0.129-0.574
			c0.085-0.212,0.142-0.36,0.17-0.445c0.027,0,0.063-0.028,0.105-0.085c0.042-0.058,0.092-0.086,0.148-0.086
			c0.057-0.112,0.197-0.247,0.426-0.403c0.227-0.155,0.367-0.29,0.425-0.404c0.028,0,0.228-0.042,0.596-0.127
			c0.171,0,0.282-0.07,0.341-0.212c0.026,0.028,0.069,0.042,0.127,0.042c0.057,0,0.148-0.028,0.275-0.085
			c0.128-0.057,0.206-0.085,0.234-0.085c0.085-0.028,0.213-0.042,0.383-0.042s0.34,0.029,0.51,0.085
			c0.058,0,0.136-0.014,0.234-0.042s0.191-0.049,0.276-0.063c0.085-0.014,0.17-0.021,0.255-0.021c0.026,0,0.069,0.015,0.128,0.042
			h0.085c0.056,0,0.141-0.014,0.255-0.042c0.112-0.028,0.212-0.042,0.298-0.042l0.17,0.042c0.112,0,0.262-0.014,0.446-0.042
			c0.184-0.028,0.317-0.042,0.403-0.042h0.128L18.5,79.438z"/>
		<path fill="#468885" d="M29.895,78.631c0.481,0,0.864,0.071,1.147,0.212c0.057,0.114,0.171,0.241,0.341,0.384
			c0.17,0.142,0.269,0.27,0.298,0.382c0.085,0.029,0.162,0.121,0.233,0.275c0.069,0.156,0.134,0.264,0.19,0.319
			c0.027,0.539,0.185,1.134,0.469,1.786c-0.059,0.17-0.044,0.297,0.042,0.382c0,0.057-0.042,0.128-0.128,0.213
			c0.112,0.313,0.228,0.51,0.341,0.596l0.128,0.553c0.111-0.028,0.219-0.113,0.317-0.255c0.101-0.142,0.191-0.228,0.276-0.255
			c0.028-0.198,0.17-0.39,0.426-0.574c0.255-0.185,0.41-0.305,0.467-0.361c0.058,0,0.149-0.035,0.276-0.105
			c0.128-0.071,0.234-0.106,0.319-0.106c0.425-0.255,0.751-0.396,0.978-0.425l0.725-0.085c0.026,0,0.119-0.028,0.275-0.085
			c0.155-0.058,0.29-0.085,0.403-0.085l0.723-0.085c0.028,0,0.07-0.008,0.128-0.021s0.1-0.021,0.128-0.021
			c0.027,0,0.077,0.007,0.148,0.021c0.07,0.016,0.134,0.021,0.19,0.021l0.469-0.043c0.057,0.057,0.127,0.085,0.212,0.085h0.171
			l0.042,0.042c0.028,0,0.057,0,0.085,0c0.057,0,0.148,0,0.276,0s0.22,0.015,0.275,0.042c0.028,0.057,0.058,0.085,0.085,0.085h0.17
			c0.086,0.085,0.156,0.127,0.213,0.127c0.058,0.028,0.1,0.057,0.128,0.085c0.027,0.029,0.063,0.057,0.106,0.085
			c0.042,0.029,0.077,0.057,0.105,0.085c0.027,0.028,0.07,0.057,0.128,0.085l0.085,0.042c0,0.028,0.014,0.057,0.043,0.085
			c0.026,0.028,0.042,0.057,0.042,0.085c0.282,0.199,0.438,0.355,0.468,0.468c0.142,0,0.383,0.101,0.723,0.297
			c-0.027,0.085-0.015,0.156,0.043,0.213c0.143,0.114,0.325,0.319,0.554,0.616c0.227,0.298,0.367,0.476,0.425,0.532v0.212
			c0,0.17,0.043,0.284,0.128,0.34c0,0.085-0.028,0.156-0.085,0.212c0.142,0.114,0.24,0.454,0.297,1.021l0.128,0.17
			c0.085,0.114,0.142,0.199,0.17,0.255v0.085c0,0.114,0.028,0.228,0.085,0.34c0.057,0.143,0.028,0.241-0.085,0.297
			c0.057,0.058,0.085,0.101,0.085,0.127c0,0.144,0.05,0.313,0.149,0.511c0.099,0.198,0.147,0.354,0.147,0.468
			c0,0.057-0.007,0.127-0.021,0.213c-0.016,0.085-0.021,0.142-0.021,0.17c0,0.085,0.015,0.156,0.042,0.212
			c0,0.029-0.036,0.071-0.105,0.127c-0.071,0.058-0.106,0.114-0.106,0.17c0.171,0,0.283,0.071,0.341,0.212v0.085
			c0,0.029-0.008,0.079-0.021,0.149c-0.016,0.071-0.021,0.135-0.021,0.191v0.085c0,0.057,0.021,0.127,0.063,0.212
			c0.043,0.085,0.063,0.143,0.063,0.17c0,0.057-0.021,0.113-0.063,0.17c-0.042,0.057-0.063,0.1-0.063,0.127
			c0,0.085,0.028,0.185,0.085,0.298c0.058,0.113,0.085,0.212,0.085,0.297v0.128c0.058,0.085,0.101,0.143,0.128,0.17
			c-0.058,0.199-0.058,0.313,0,0.341c0,0.057-0.027,0.1-0.085,0.127s-0.085,0.057-0.085,0.085c0.027,0.057,0.07,0.1,0.127,0.127
			c0.058,0.028,0.085,0.057,0.085,0.085l0.044,0.17c0,0.085-0.044,0.177-0.129,0.275c-0.085,0.101-0.127,0.178-0.127,0.233
			c0,0.029,0.015,0.071,0.042,0.128v0.042c-0.027,0.028-0.069,0.028-0.127,0c0.085,0.085,0.085,0.17,0,0.255
			c0.085,0.114,0.127,0.255,0.127,0.425c0,0.058-0.015,0.085-0.042,0.085s-0.05,0-0.063,0s-0.021,0.016-0.021,0.042
			c0,0.058,0.035,0.085,0.106,0.085c0.07,0,0.104,0.042,0.104,0.129c0,0.027-0.027,0.07-0.085,0.127h0.085
			c0.058,0,0.085,0.015,0.085,0.042s-0.027,0.063-0.085,0.105c-0.057,0.042-0.085,0.092-0.085,0.148
			c0.058,0,0.156-0.028,0.299-0.085c-0.113,0.369-0.299,0.553-0.554,0.553l0.128,0.255c0.143-0.057,0.17-0.113,0.085-0.17
			c0.058,0.029,0.127,0.071,0.212,0.128c0.087,0.057,0.143,0.085,0.172,0.085c-0.029,0.028-0.043,0.156-0.043,0.382
			c-0.028,0-0.042-0.014-0.042-0.042c0-0.027-0.009-0.049-0.021-0.063c-0.015-0.015-0.036-0.021-0.064-0.021
			c-0.027,0-0.057,0.016-0.085,0.042c-0.027,0.029-0.069,0.029-0.127,0c0.027,0.085,0.085,0.191,0.17,0.319
			c0.086,0.128,0.129,0.233,0.129,0.319c0,0.113-0.043,0.263-0.129,0.446c-0.085,0.186-0.128,0.319-0.128,0.404l-0.127,0.085
			c-0.085,0.057-0.143,0.114-0.17,0.17c0.027,0.057,0.085,0.085,0.17,0.085c0,0.057-0.015,0.127-0.043,0.212
			c-0.027,0.085-0.042,0.143-0.042,0.17c0,0.058,0.021,0.101,0.063,0.127c0.042,0.029,0.063,0.071,0.063,0.128
			c-0.227,0.058-0.34,0.143-0.34,0.256c-0.17,0.057-0.27,0.113-0.298,0.17v0.085c0,0.057-0.015,0.147-0.042,0.275
			c-0.029,0.127-0.043,0.221-0.043,0.276c-0.057,0.028-0.1,0.071-0.128,0.127c-0.057,0.057-0.1,0.085-0.127,0.085
			c0,0.029-0.015,0.063-0.043,0.106c-0.028,0.042-0.028,0.092,0,0.147c-0.283,0.229-0.468,0.425-0.553,0.596
			c-0.058,0-0.101-0.014-0.127-0.043c-0.029-0.027-0.059-0.042-0.086-0.042v0.255c-0.143,0.058-0.256,0.127-0.341,0.213
			c-0.368,0.085-0.566,0.155-0.595,0.213c-0.028,0-0.143,0.042-0.34,0.127c-0.029,0.027-0.086,0.042-0.171,0.042
			c-0.058,0-0.12-0.016-0.191-0.042c-0.07-0.029-0.12-0.042-0.147-0.042c-0.085,0-0.144,0.014-0.17,0.042v-0.085h-0.086
			l-0.383-0.128H40.48c-0.027,0-0.085,0.014-0.17,0.043c-0.085,0.027-0.156,0.042-0.213,0.042l-0.085-0.042
			c-0.028,0-0.028,0.014,0,0.042c0.028,0.027,0.014,0.042-0.043,0.042c-0.057,0.027-0.1,0-0.127-0.085
			c-0.028-0.085-0.058-0.128-0.085-0.128c-0.058-0.028-0.106-0.036-0.149-0.021c-0.042,0.014-0.078,0.006-0.104-0.021
			c-0.029-0.027-0.043-0.142-0.043-0.34c0-0.027-0.016-0.07-0.043-0.128c-0.028,0-0.042,0.029-0.042,0.085
			c-0.059,0.058-0.113,0.101-0.17,0.127c-0.059-0.142-0.114-0.213-0.17-0.213c-0.029-0.056-0.016-0.091,0.042-0.105
			c0.057-0.015,0.085-0.035,0.085-0.064c0-0.142-0.085-0.262-0.255-0.361c-0.171-0.099-0.271-0.162-0.299-0.19
			c-0.027-0.057-0.021-0.12,0.021-0.191c0.043-0.069,0.063-0.12,0.063-0.148h-0.127c-0.113,0-0.198-0.015-0.256-0.042
			c0-0.057-0.021-0.113-0.063-0.17c-0.042-0.058-0.063-0.1-0.063-0.127v-0.085c-0.028-0.058-0.071-0.121-0.128-0.191
			s-0.1-0.12-0.127-0.149c-0.228-1.274-0.341-1.927-0.341-1.956c0-0.085,0.028-0.155,0.085-0.213
			c0.028-0.027,0.021-0.049-0.021-0.063c-0.043-0.014-0.063-0.036-0.063-0.064c0-0.085-0.028-0.312-0.085-0.68
			c-0.058-0.368-0.085-0.638-0.085-0.808c0-0.142,0.027-0.228,0.085-0.256c-0.028-0.027-0.05-0.119-0.063-0.275
			c-0.015-0.156-0.063-0.248-0.147-0.276c0-0.027,0.006-0.085,0.021-0.17c0.016-0.085,0.035-0.156,0.064-0.213
			c-0.085-0.113-0.128-0.312-0.128-0.595c0.057-0.198,0.069-0.368,0.043-0.51v-0.341c0.056-0.227,0.085-0.383,0.085-0.468
			s-0.043-0.17-0.128-0.255c0-0.312,0.027-0.75,0.085-1.318c0-0.057-0.028-0.085-0.085-0.085c-0.028-0.027-0.043-0.057-0.043-0.085
			c0.027-0.085,0.043-0.213,0.043-0.383v-1.021c-0.085-0.085-0.128-0.185-0.128-0.298c0-0.085,0.015-0.197,0.043-0.34
			c0.026-0.142,0.042-0.24,0.042-0.298v-0.34v-0.042l0.043-0.085c0-0.057-0.007-0.128-0.021-0.213
			c-0.014-0.085-0.021-0.143-0.021-0.17c0-0.085,0.015-0.143,0.043-0.17l-0.128-0.724v-0.808c0-0.453-0.016-0.793-0.042-1.021
			c0-0.057-0.036-0.092-0.106-0.105c-0.071-0.014-0.156-0.028-0.255-0.042c-0.1-0.014-0.164-0.035-0.191-0.063
			c-0.566,0.284-0.906,0.567-1.021,0.851c-0.028,0-0.05,0.021-0.063,0.063c-0.015,0.042-0.05,0.063-0.105,0.063
			c-0.028,0.057-0.106,0.185-0.234,0.383c-0.127,0.199-0.206,0.369-0.232,0.51c-0.028,0.029-0.059,0.058-0.085,0.085l-0.043,0.042
			c0,0.114-0.028,0.199-0.085,0.255c0,0.028,0.007,0.063,0.021,0.106c0.014,0.042,0.021,0.079,0.021,0.106
			c0,0.17-0.085,0.34-0.257,0.51c0.028,0,0.058,0.015,0.086,0.042v0.085c0,0.029-0.008,0.1-0.021,0.213
			c-0.015,0.113-0.021,0.198-0.021,0.255c0,0.085,0.015,0.156,0.044,0.212c-0.114,0.057-0.187,0.114-0.214,0.17
			c0.027,0.085,0.042,0.228,0.042,0.425c0,0.199-0.027,0.525-0.085,0.979c0,0.029-0.034,0.057-0.105,0.085
			c-0.07,0.029-0.12,0.071-0.148,0.128c0.028,0.057,0.07,0.071,0.128,0.042c0.058-0.028,0.1-0.042,0.127-0.042
			c0,0.057-0.007,0.135-0.021,0.234c-0.015,0.1-0.021,0.19-0.021,0.275c0,0.028-0.035,0.063-0.105,0.106
			c-0.071,0.042-0.093,0.092-0.063,0.148c0,0.058,0.042,0.085,0.127,0.085c0.085,0.17,0.07,0.313-0.042,0.426
			c0.058,0.057,0.085,0.127,0.085,0.212s-0.027,0.206-0.085,0.36c-0.058,0.156-0.085,0.264-0.085,0.319l0.042,0.127
			c0.028,0.085,0.028,0.156,0,0.212c0,0.029-0.015,0.085-0.042,0.17v0.085c0,0.028,0.015,0.071,0.042,0.127l0.043,0.085v0.085
			c0,0.085-0.036,0.206-0.105,0.361c-0.071,0.156-0.106,0.276-0.106,0.361l0.043,0.17v0.042c-0.028,0.027-0.07,0.042-0.128,0.042
			l0.128,0.34c-0.113,0-0.171,0.015-0.171,0.043c0,0.057,0.028,0.092,0.085,0.106c0.058,0.015,0.086,0.035,0.086,0.063v0.127
			c0,0.313,0.027,0.496,0.085,0.553c-0.028,0.029-0.05,0.071-0.063,0.127c-0.016,0.058-0.035,0.114-0.063,0.171
			c-0.027,0.057-0.057,0.112-0.085,0.17l-0.043-0.042c-0.027-0.028-0.057-0.042-0.085-0.042c0.058,0.057,0.064,0.112,0.021,0.17
			c-0.042,0.057-0.036,0.127,0.021,0.212c-0.027,0-0.063,0.036-0.105,0.105c-0.043,0.071-0.094,0.121-0.148,0.149
			c0,0.199-0.043,0.369-0.128,0.51c0,0.199-0.085,0.553-0.255,1.063c-0.085,0.34-0.186,0.624-0.298,0.85v0.213
			c0,0.228-0.058,0.482-0.17,0.765c-0.028,0-0.059,0.016-0.085,0.042c-0.028,0.029-0.071,0.029-0.128,0
			c-0.058,0.143-0.113,0.213-0.171,0.213c-0.057,0.34-0.313,0.609-0.766,0.808c-0.113,0-0.185-0.014-0.212-0.042
			c-0.029-0.028-0.05-0.028-0.064,0s-0.034,0.042-0.063,0.042s-0.106-0.007-0.233-0.021c-0.128-0.014-0.233-0.021-0.318-0.021
			c-0.482,0-0.865,0.042-1.147,0.127l-0.936-0.127c-0.029-0.057-0.079-0.099-0.149-0.127s-0.121-0.057-0.147-0.085
			c-0.028,0-0.043-0.028-0.043-0.085c-0.171-0.085-0.298-0.17-0.383-0.255l-0.171-0.34l-0.127-0.127
			c-0.027-0.058-0.058-0.155-0.085-0.299c-0.028-0.141-0.07-0.255-0.128-0.34c0-0.027,0.028-0.113,0.085-0.255
			c0-0.028-0.021-0.049-0.063-0.063c-0.043-0.015-0.063-0.035-0.063-0.064c0-0.028,0.021-0.063,0.063-0.106
			c0.042-0.043,0.063-0.077,0.063-0.105c-0.085-0.028-0.135-0.07-0.147-0.127c-0.016-0.057-0.051-0.099-0.106-0.128
			c0-0.085-0.008-0.248-0.021-0.489c-0.016-0.241-0.021-0.418-0.021-0.531c0-0.227,0.015-0.383,0.043-0.468
			c-0.085-0.028-0.128-0.113-0.128-0.255s0.028-0.269,0.085-0.382c-0.028-0.028-0.05-0.1-0.063-0.213
			c-0.016-0.113-0.051-0.185-0.106-0.212c0-0.426,0.028-0.724,0.085-0.894c-0.057-0.227-0.085-0.453-0.085-0.68
			c0-0.425,0.043-0.737,0.128-0.937c-0.17-0.17-0.17-0.312,0-0.425c-0.085-0.34-0.128-0.624-0.128-0.851V90.9
			c0-0.028,0-0.058,0-0.085l0.043-0.085c0-0.028-0.015-0.085-0.043-0.17s-0.028-0.155,0-0.212l0.043-0.171
			c0-0.255-0.028-0.638-0.085-1.147l0.042-0.042c0-0.028,0-0.056,0-0.085c0-0.085-0.036-0.205-0.106-0.361
			c-0.069-0.155-0.104-0.275-0.104-0.361c0-0.085,0.027-0.184,0.085-0.298c-0.058-0.34-0.085-0.595-0.085-0.765v-0.893
			c0-0.368-0.015-0.639-0.043-0.809c0-0.028,0.014-0.07,0.043-0.127l0.042-0.042c0-0.028-0.028-0.099-0.085-0.213
			c0-0.142,0.014-0.297,0.043-0.468c0.027-0.17,0.063-0.361,0.104-0.574c0.043-0.213,0.078-0.375,0.106-0.489
			c0-0.056,0.007-0.163,0.021-0.318c0.014-0.155,0.034-0.263,0.063-0.319c0-0.028,0.035-0.184,0.106-0.467
			c0.069-0.283,0.105-0.482,0.105-0.597v-0.085c0.085-0.17,0.128-0.34,0.128-0.51c-0.058-0.113-0.085-0.184-0.085-0.212
			c0.027-0.028,0.056-0.028,0.085,0v0.042c0.057-0.085,0.1-0.227,0.127-0.425c0.028-0.198,0.058-0.325,0.085-0.382
			c0.113-0.085,0.213-0.213,0.298-0.383c0-0.028,0.015-0.07,0.043-0.128l0.042-0.085c0.028-0.027,0.05-0.085,0.063-0.17
			s0.036-0.142,0.064-0.17c0.026-0.027,0.092-0.085,0.19-0.17s0.162-0.17,0.191-0.255C28.731,78.716,29.214,78.631,29.895,78.631z
			 M30.66,96.658h-0.128c0.057,0.085,0.112,0.114,0.17,0.085c0-0.028-0.008-0.042-0.021-0.042S30.66,96.687,30.66,96.658z
			 M37.633,89.728h-0.128v0.17C37.533,89.898,37.575,89.841,37.633,89.728z M39.716,100.357c-0.113,0-0.17,0.07-0.17,0.212
			C39.659,100.57,39.716,100.5,39.716,100.357z M39.886,100.442h-0.085c0,0.057-0.015,0.085-0.042,0.085h0.127V100.442z
			 M41.544,98.614c0,0.028-0.016,0.057-0.042,0.085l0.042-0.042C41.572,98.657,41.572,98.643,41.544,98.614z M42.353,96.531v0.212
			c0.085,0.029,0.127,0.015,0.127-0.042C42.508,96.588,42.465,96.531,42.353,96.531z M44.945,94.745
			c-0.112,0-0.197,0.015-0.255,0.042C44.719,94.901,44.804,94.887,44.945,94.745z M44.86,96.361v0.085
			c-0.027,0.028-0.027,0.057,0,0.085c0.058,0,0.085-0.028,0.085-0.085S44.917,96.361,44.86,96.361z"/>
		<path fill="#468885" d="M51.322,79.523l0.129,0.128c0.111-0.028,0.282-0.043,0.51-0.043c0.227,0,0.553,0.071,0.979,0.213
			c0.425,0.142,0.766,0.212,1.021,0.212c0.027,0.029,0.07,0.057,0.128,0.085l0.043,0.042c0.085,0,0.155-0.014,0.212-0.042
			c0.028,0.029,0.354,0.199,0.979,0.51c0.058,0,0.1-0.006,0.127-0.021c0.028-0.015,0.058-0.021,0.086-0.021
			c0.057,0.029,0.135,0.079,0.233,0.149c0.1,0.071,0.177,0.105,0.233,0.105c0,0.028,0.015,0.058,0.043,0.085
			c0.026,0.028,0.042,0.058,0.042,0.085c0.453,0.313,0.766,0.639,0.936,0.979c0.028,0.057,0.078,0.1,0.149,0.127
			c0.07,0.028,0.104,0.057,0.104,0.085c0,0.029,0.008,0.071,0.021,0.127c0.015,0.057,0.021,0.114,0.021,0.17
			c0.426,0.34,0.639,0.652,0.639,0.936l-0.042,0.17c0.026,0.057,0.069,0.085,0.127,0.085l0.128,0.042
			c0.057,0.085,0.099,0.212,0.127,0.383c0.027,0.17,0.057,0.27,0.085,0.297v0.425c0,0.028,0.021,0.05,0.063,0.063
			c0.042,0.015,0.077,0.05,0.106,0.105v0.127c0,0.255-0.015,0.412-0.043,0.469c0.028,0.028,0.043,0.17,0.043,0.425
			c0,0.085,0.021,0.185,0.063,0.298s0.063,0.212,0.063,0.297s-0.015,0.156-0.042,0.212c0,0.058,0.027,0.093,0.085,0.106
			c0.057,0.015,0.085,0.036,0.085,0.063c0.027,0.199,0.042,0.482,0.042,0.851c0,0.283-0.015,0.497-0.042,0.638h-0.17l0.383,0.638
			c0.027,0.058,0.014,0.101-0.043,0.127c-0.028,0.058-0.043,0.101-0.043,0.127c0.057,0.199,0.057,0.355,0,0.469
			c0.057,0.113,0.086,0.312,0.086,0.595c0,0.255-0.015,0.454-0.043,0.595c0.028,0.085,0.085,0.143,0.17,0.17
			c-0.027,0.029-0.042,0.071-0.042,0.128c0,0.228-0.015,0.354-0.043,0.382c0.028,0.058,0.043,0.128,0.043,0.214l-0.043,0.425
			c0.058,0.17,0.085,0.298,0.085,0.383l-0.042,0.085c-0.029,0.057-0.058,0.114-0.085,0.17c0,0.229-0.029,0.355-0.086,0.383
			c0.028,0.058,0.043,0.143,0.043,0.255c0,0.113-0.021,0.256-0.063,0.426c-0.043,0.17-0.064,0.298-0.064,0.383
			c0,0.142,0.015,0.241,0.043,0.298c-0.058,0.255-0.085,0.396-0.085,0.425c0,0.029-0.071,0.114-0.213,0.255
			c0.028,0.028,0.043,0.085,0.043,0.17c0,0.058-0.029,0.136-0.085,0.234c-0.058,0.1-0.085,0.164-0.085,0.191v0.127
			c0,0.425-0.128,0.694-0.383,0.808l0.042,0.085c0,0.028,0,0.057,0,0.085c0,0.199-0.127,0.354-0.383,0.468
			c0,0.058-0.008,0.121-0.021,0.191c-0.015,0.071-0.008,0.121,0.021,0.147c-0.171,0.229-0.271,0.426-0.298,0.596
			c-0.171,0.085-0.256,0.213-0.256,0.383c-0.17,0.17-0.283,0.313-0.34,0.425c-0.539,0.228-0.893,0.51-1.063,0.851
			c-0.029,0-0.101,0.028-0.214,0.085c-0.085,0.142-0.283,0.29-0.596,0.445c-0.312,0.155-0.51,0.276-0.595,0.361
			c-0.028,0.028-0.059,0.042-0.085,0.042c-0.028,0-0.059,0-0.085,0c-0.059,0.085-0.156,0.155-0.298,0.212
			c-0.144,0.057-0.241,0.113-0.299,0.17h-0.17c-0.112,0-0.248,0.028-0.403,0.085c-0.155,0.058-0.276,0.085-0.361,0.085
			c-0.057,0-0.191,0.021-0.403,0.064c-0.213,0.042-0.403,0.063-0.573,0.063H51.66c-0.058-0.027-0.101-0.042-0.127-0.042h-0.299
			c-0.282,0-0.496-0.057-0.638-0.17h-0.085c-0.113,0-0.284-0.057-0.511-0.17c-0.567-0.17-0.964-0.354-1.19-0.553
			c-0.481-0.114-0.808-0.271-0.978-0.468c-0.255,0-0.468-0.185-0.639-0.554c0-0.027-0.027-0.057-0.085-0.085l-0.085-0.042
			c-0.027-0.142-0.135-0.347-0.318-0.617c-0.186-0.269-0.276-0.503-0.276-0.701h-0.042c-0.029-0.028-0.043-0.057-0.043-0.085
			c-0.028-0.085-0.057-0.178-0.085-0.276s-0.057-0.212-0.085-0.34c-0.028-0.127-0.058-0.219-0.085-0.276l-0.085-0.17
			c-0.028-0.085-0.036-0.184-0.021-0.297s0.021-0.198,0.021-0.255c0-0.028-0.021-0.063-0.063-0.106
			c-0.043-0.042-0.063-0.078-0.063-0.105c0-0.028,0-0.078,0-0.149c0-0.07-0.016-0.12-0.042-0.148c0-0.028-0.008-0.063-0.021-0.106
			c-0.015-0.043-0.021-0.092-0.021-0.149v-0.17c0-0.056-0.007-0.141-0.021-0.255c-0.015-0.112-0.021-0.212-0.021-0.298
			c-0.029-0.17-0.036-0.404-0.021-0.701c0.015-0.298,0.021-0.503,0.021-0.617c0-0.112,0.014-0.184,0.042-0.212
			c0-0.027-0.042-0.312-0.127-0.851c0-0.028,0.014-0.056,0.042-0.085c0.027-0.028,0.043-0.057,0.043-0.085l-0.043-0.042
			c-0.028-0.028-0.042-0.127-0.042-0.298c-0.029-0.228-0.043-0.666-0.043-1.318c0-0.057,0.014-0.134,0.043-0.234
			c0.026-0.099,0.042-0.162,0.042-0.19v-0.297v-0.724c0-0.197,0.014-0.354,0.043-0.468c0-0.085,0.014-0.198,0.042-0.34
			c0.027-0.142,0.043-0.241,0.043-0.298v-0.34c0-0.17,0.026-0.453,0.085-0.852c0.057-0.396,0.085-0.666,0.085-0.808
			c0.057-0.68,0.112-1.063,0.17-1.148c-0.028-0.057-0.043-0.128-0.043-0.213c0-0.112,0.028-0.255,0.086-0.425
			c0-0.028-0.008-0.085-0.021-0.17c-0.016-0.085-0.021-0.155-0.021-0.212c0-0.143,0.028-0.298,0.085-0.468
			c0-0.198,0.014-0.354,0.043-0.469c0-0.425,0.014-0.765,0.042-1.021c0.057-0.113,0.085-0.212,0.085-0.297
			c0-0.058-0.007-0.143-0.021-0.255c-0.016-0.113-0.021-0.185-0.021-0.212c0-0.085,0.014-0.155,0.042-0.213
			c0-0.085-0.028-0.155-0.085-0.213c0-0.056,0.028-0.12,0.085-0.19s0.085-0.12,0.085-0.148l0.383-0.255
			c0.028,0,0.07-0.006,0.128-0.021s0.112-0.028,0.171-0.042c0.057-0.015,0.099-0.036,0.128-0.064
			c0.056-0.028,0.134-0.085,0.232-0.17c0.1-0.085,0.177-0.142,0.233-0.17c0.283-0.028,0.553-0.113,0.809-0.255
			c0.112-0.028,0.228-0.042,0.34-0.042c0.028,0,0.07-0.015,0.128-0.042l0.085-0.042h0.171c0.026,0,0.105-0.007,0.232-0.021
			c0.128-0.014,0.234-0.021,0.319-0.021c0.111,0,0.198,0.027,0.255,0.085c0.085-0.085,0.19-0.134,0.319-0.149
			c0.127-0.014,0.275-0.021,0.445-0.021S51.209,79.552,51.322,79.523z M46.476,89.218v0.127c0.027,0,0.058-0.014,0.085-0.042
			C46.561,89.246,46.532,89.218,46.476,89.218z M52.088,83.86c-0.059,0-0.213,0.127-0.468,0.383c0,0.028,0.021,0.057,0.063,0.085
			c0.043,0.028,0.063,0.071,0.063,0.127c-0.058,0.114-0.085,0.213-0.085,0.298c0,0.113,0.027,0.255,0.085,0.425
			c-0.113,0.397-0.186,0.71-0.212,0.937c0,0.029,0.021,0.063,0.063,0.105c0.043,0.043,0.063,0.078,0.063,0.106
			c-0.17,0.113-0.256,0.297-0.256,0.553c0,0.085,0.015,0.212,0.044,0.382c0.026,0.171,0.042,0.299,0.042,0.384l0.213,2.338
			c0,0.17,0.021,0.425,0.063,0.765c0.043,0.34,0.064,0.582,0.064,0.724l-0.043,0.425c0,0.085,0.014,0.142,0.043,0.17
			c-0.059,0.085-0.086,0.34-0.086,0.765v0.085c0,0.029-0.015,0.085-0.042,0.17c-0.028,0.085-0.043,0.143-0.043,0.17
			c0,0.058,0.007,0.149,0.021,0.276s0.021,0.22,0.021,0.276v0.127c0,0.057-0.009,0.121-0.021,0.19
			c-0.015,0.071-0.021,0.121-0.021,0.149c0,0.057,0.027,0.17,0.085,0.34v0.213c0,0.17,0.092,0.34,0.275,0.51
			c0.186,0.17,0.349,0.255,0.489,0.255c0.17-0.027,0.312-0.099,0.426-0.212l0.297-0.298c0-0.056,0.035-0.142,0.106-0.255
			c0.07-0.113,0.105-0.213,0.105-0.298c0.058-0.255,0.155-0.425,0.299-0.51c0-0.028,0.026-0.142,0.085-0.34
			c0-0.313,0.069-0.639,0.213-0.979v-0.255c0-0.34,0.042-0.666,0.127-0.979c0-0.027-0.021-0.057-0.063-0.085
			c-0.043-0.027-0.05-0.07-0.021-0.128c0.027-0.963-0.042-1.956-0.213-2.976c-0.058-0.481-0.143-0.765-0.255-0.85
			c0.027-0.283-0.128-0.852-0.469-1.701c-0.112-0.227-0.17-0.41-0.17-0.554v-0.127l-0.17-0.34c0.028-0.027,0.042-0.057,0.042-0.085
			c-0.057,0-0.113-0.027-0.17-0.085c0-0.085-0.042-0.177-0.127-0.275c-0.085-0.1-0.143-0.191-0.17-0.276
			C52.243,83.903,52.145,83.86,52.088,83.86z M52.003,97.168c0,0.143,0.014,0.228,0.042,0.255c0.17-0.085,0.255-0.141,0.255-0.17
			C52.187,97.197,52.088,97.168,52.003,97.168z"/>
		<path fill="#468885" d="M65.821,78.46c0.481,0,0.837,0.016,1.063,0.042c0.68,0.058,1.034,0.114,1.063,0.17
			c0.313,0.028,0.794,0.113,1.445,0.255l0.81,0.256c0.255,0.112,0.409,0.185,0.467,0.212c0.086,0.057,0.177,0.105,0.275,0.148
			c0.1,0.043,0.191,0.078,0.276,0.106c0.171,0.112,0.313,0.255,0.426,0.425c0.058,0,0.12,0.029,0.191,0.085
			c0.07,0.057,0.12,0.085,0.147,0.085c0.028,0.085,0.12,0.206,0.276,0.361c0.155,0.155,0.248,0.291,0.276,0.403
			c0.197,0.171,0.298,0.44,0.298,0.809c0,0.143-0.016,0.255-0.043,0.34c-0.028,0.284-0.228,0.525-0.596,0.723
			c-0.027,0.029-0.07,0.071-0.128,0.128l-0.127,0.042c-0.028,0-0.085-0.014-0.171-0.042c-0.085-0.027-0.142-0.043-0.17-0.043
			c-0.34-0.056-0.595-0.112-0.765-0.17c-0.059-0.027-0.144-0.069-0.256-0.127c-0.113-0.057-0.198-0.085-0.255-0.085h-0.214
			c-0.085,0-0.22-0.007-0.402-0.021c-0.186-0.015-0.319-0.021-0.404-0.021c-0.057,0-0.142,0.016-0.255,0.042
			c-0.113,0.028-0.198,0.042-0.255,0.042l-0.17-0.042c-0.059,0-0.135,0.028-0.234,0.085c-0.1,0.058-0.19,0.101-0.275,0.127
			c-0.198,0.199-0.341,0.313-0.426,0.34c0,0.085-0.1,0.256-0.298,0.511c-0.057,0.112-0.143,0.185-0.255,0.212
			c0,0.113-0.05,0.318-0.148,0.617c-0.101,0.297-0.148,0.546-0.148,0.743c0,0.171,0.014,0.298,0.043,0.383
			c0.112,0.34,0.325,0.566,0.638,0.68c0.057,0,0.127,0,0.212,0s0.178,0,0.276,0s0.177,0,0.234,0c0.312,0,0.893,0.1,1.742,0.298
			c0.027,0.028,0.07,0.015,0.128-0.042c0.027,0.028,0.24,0.127,0.639,0.297l0.17,0.085c0.027,0,0.057,0.016,0.085,0.042
			c0.027,0.028,0.057,0.042,0.085,0.042c0.027,0.028,0.099,0.078,0.213,0.149c0.112,0.071,0.212,0.121,0.297,0.147l0.128,0.299
			c0.085,0.027,0.155,0.092,0.213,0.19c0.057,0.101,0.1,0.163,0.127,0.191c0.028,0.028,0.085,0.07,0.171,0.128
			c0.085,0.057,0.142,0.112,0.171,0.17c0,0.029,0.006,0.063,0.021,0.105c0.016,0.042,0.021,0.078,0.021,0.106
			c0.538,0.396,0.878,0.851,1.021,1.361c0.396,0.85,0.596,1.333,0.596,1.444c0.057,0.058,0.142,0.17,0.256,0.34
			c-0.029,0.058-0.043,0.127-0.043,0.213c0,0.085,0,0.143,0,0.17l0.085,0.085c0.027,0.027,0.057,0.07,0.085,0.127
			c0,0.028,0,0.085,0,0.17s0.015,0.156,0.043,0.213c0.057,0.227,0.085,0.354,0.085,0.382c0,0.085-0.059,0.17-0.17,0.255
			c0.026,0.028,0.042,0.071,0.042,0.127c0,0.029-0.016,0.092-0.042,0.191c-0.028,0.1-0.028,0.177,0,0.233
			c-0.059,0.028-0.106,0.106-0.149,0.234c-0.042,0.127-0.092,0.206-0.148,0.234c0.086,0.142,0.129,0.283,0.129,0.425
			c0,0.227-0.071,0.438-0.214,0.638c0,0.028-0.027,0.058-0.085,0.085c-0.058,0.028-0.1,0.058-0.128,0.085
			c-0.027,0.114-0.092,0.255-0.19,0.425c-0.101,0.171-0.163,0.313-0.191,0.426c-0.028,0-0.078,0.021-0.147,0.063
			c-0.071,0.042-0.136,0.064-0.191,0.064c-0.028,0.085-0.085,0.185-0.17,0.297c-0.085,0.114-0.143,0.199-0.17,0.255
			c-0.028,0-0.063,0.015-0.106,0.042c-0.043,0.028-0.078,0.057-0.105,0.085c-0.028,0.028-0.058,0.042-0.085,0.042v0.212
			c-0.028,0.029-0.058,0.071-0.085,0.128c-0.028,0.058-0.059,0.101-0.085,0.127c-0.028,0.028-0.059,0.042-0.085,0.042
			c-0.059,0-0.085,0.016-0.085,0.042l-0.043,0.085c-0.028,0.058-0.058,0.101-0.085,0.127c-0.058,0-0.101,0.016-0.128,0.042
			c-0.058,0.029-0.113,0.085-0.171,0.17c-0.057,0.085-0.104,0.149-0.147,0.191s-0.106,0.092-0.191,0.148s-0.17,0.085-0.255,0.085
			c-0.028,0.057-0.1,0.112-0.213,0.17c-0.113,0.057-0.185,0.1-0.213,0.127c-0.028,0-0.085,0.007-0.17,0.021
			c-0.085,0.016-0.156,0.021-0.212,0.021c-0.229,0.113-0.369,0.17-0.427,0.17c-0.057,0-0.112-0.028-0.17-0.085
			c-0.282,0.057-0.481,0.155-0.595,0.298c-0.058,0-0.121,0.007-0.19,0.021c-0.071,0.016-0.121,0.021-0.149,0.021
			c-0.057,0.028-0.156,0.042-0.298,0.042c-0.028,0-0.101,0.042-0.212,0.127c-0.114,0.085-0.199,0.127-0.255,0.127
			c-0.059,0-0.128-0.042-0.213-0.127c-0.113,0.029-0.411,0.042-0.894,0.042c-0.199,0-0.341,0.015-0.426,0.042
			c-0.113,0-0.186-0.014-0.213-0.042c-0.058,0.029-0.148,0.05-0.276,0.064c-0.127,0.015-0.22,0.05-0.276,0.105
			c-0.085-0.028-0.197-0.042-0.34-0.042c-0.085,0-0.213,0.007-0.383,0.021s-0.283,0.021-0.34,0.021c-0.085,0-0.22-0.028-0.404-0.085
			c-0.185-0.056-0.333-0.099-0.445-0.127h-0.127l-0.043-0.042c-0.028,0-0.058,0-0.086,0H63.44c-0.085,0-0.213-0.028-0.383-0.085
			s-0.298-0.085-0.383-0.085c-0.51-0.085-0.808-0.156-0.894-0.213l-0.128-0.127c-0.197-0.028-0.438-0.24-0.723-0.639
			c-0.142-0.367-0.227-0.651-0.255-0.85v-0.553l-0.043-0.085l0.043-0.042c0-0.028,0-0.057,0-0.085c0-0.143-0.015-0.24-0.043-0.297
			c0.341-0.482,0.724-0.793,1.147-0.937c0.028,0,0.1-0.007,0.214-0.021c0.111-0.015,0.196-0.035,0.255-0.063h0.128
			c0.026,0,0.099-0.007,0.212-0.021c0.113-0.015,0.198-0.021,0.255-0.021c0.086,0,0.156,0.015,0.213,0.042
			c0.17-0.057,0.325-0.085,0.468-0.085c0.17,0,0.313,0.028,0.426,0.085c0.086-0.028,0.298-0.042,0.639-0.042h0.17
			c0.027,0,0.092-0.014,0.191-0.042c0.099-0.028,0.177-0.042,0.232-0.042h0.213c0.112,0,0.205-0.042,0.276-0.128
			c0.07-0.085,0.12-0.141,0.147-0.17c0.028-0.028,0.078-0.064,0.148-0.106c0.071-0.042,0.121-0.078,0.149-0.105
			c0.34-0.852,0.51-1.361,0.51-1.531c0-0.142-0.028-0.227-0.085-0.255c0.057-0.51-0.198-1.105-0.766-1.786
			c-0.086-0.056-0.228-0.155-0.426-0.297s-0.34-0.241-0.425-0.298c-0.058,0-0.1-0.006-0.128-0.021
			c-0.028-0.014-0.071-0.021-0.127-0.021c-0.059-0.085-0.144-0.127-0.256-0.127c-0.058-0.113-0.143-0.155-0.255-0.127
			c-0.028-0.085-0.17-0.185-0.426-0.298c-0.341-0.283-0.609-0.469-0.808-0.554c-0.029-0.027-0.043-0.069-0.043-0.127
			c-0.085-0.027-0.191-0.092-0.319-0.19c-0.127-0.1-0.22-0.163-0.275-0.191v-0.085c-0.028-0.028-0.042-0.057-0.042-0.085
			c-0.085-0.085-0.229-0.205-0.426-0.361c-0.198-0.155-0.341-0.262-0.426-0.318c-0.057-0.143-0.283-0.439-0.68-0.894
			c-0.086-0.17-0.143-0.255-0.171-0.255v-0.17c-0.143-0.141-0.212-0.24-0.212-0.297v-0.127c0-0.028-0.029-0.121-0.085-0.276
			c-0.059-0.156-0.085-0.262-0.085-0.318c-0.284-0.597-0.454-0.964-0.512-1.105c-0.057-0.17-0.085-0.298-0.085-0.383
			c0-0.058,0.028-0.143,0.085-0.255c-0.027-0.085-0.042-0.212-0.042-0.382c0-0.397,0.07-0.737,0.212-1.021
			c0-0.142,0.058-0.298,0.171-0.468v-0.17c0.057-0.143,0.162-0.313,0.318-0.511c0.155-0.197,0.263-0.367,0.318-0.51
			c0.227-0.227,0.354-0.411,0.383-0.553c0.028,0,0.128-0.085,0.298-0.255c0.028-0.028,0.1-0.085,0.213-0.17
			c0.112-0.085,0.197-0.155,0.255-0.212h0.043c0.027-0.028,0.057-0.042,0.085-0.042c0.057-0.058,0.171-0.128,0.341-0.213
			s0.282-0.155,0.34-0.213c0.113-0.027,0.283-0.092,0.511-0.19s0.41-0.163,0.553-0.191c0.057-0.085,0.17-0.127,0.341-0.127h0.213
			c0.056-0.027,0.127-0.057,0.212-0.085c0.085-0.027,0.142-0.057,0.171-0.085h0.17l0.382-0.128
			C65.254,78.475,65.481,78.46,65.821,78.46z"/>
	</g>
	<path fill="#7CCDCD" d="M11.97,145.259c1.896,0.697,4.285,2.411,7.096,2.702c2.986,0.313,5.785,0.956,9.264,1.192
		c7.003,0.477,13.126,2.684,20.523,2.524c6.73-0.143,44.461-2.884,37.813-10.573c-6.988-8.089-30.019-0.438-41.228-0.705
		c-6.663-0.158-12.48,0.742-19.207,0.594c-5.058-0.111-11.822-1.145-14.251,3.757L11.97,145.259z"/>
	<g>
		<g>
			<path fill="#7CCDCD" d="M70.058,75.111c0.637-13.015,1.471-30.224,1.935-42.8C72.48,18.948,70.21,12.683,83.278,10.06
				c7.185-1.442,48.18,3.823,47.271,12.217c-1.791,16.558-24.027,97.883-29.623,102.906c-5.096,4.571-30.172,1.03-32.771-5.314
				c-0.806-1.979-0.742-2.029-0.232-4.425L70.058,75.111z"/>
			<path fill="#231F20" d="M91.527,128.004c-8.521,0-21.997-2.796-24.066-7.852c-0.837-2.055-0.816-2.323-0.333-4.587l0.047-0.222
				l2.133-40.272c0.7-14.301,1.484-30.583,1.934-42.788c0.072-1.997,0.084-3.875,0.095-5.532
				c0.059-9.723,0.091-15.078,11.794-17.427c0.833-0.167,2.069-0.252,3.676-0.252c10.436,0,37.625,3.858,43.329,10.213
				c0.882,0.983,1.272,2.017,1.158,3.072c-1.738,16.07-23.84,97.973-29.868,103.384C99.341,127.611,94.892,128.004,91.527,128.004z
				 M86.807,10.572c-1.487,0-2.656,0.077-3.381,0.223c-10.506,2.109-10.532,6.451-10.59,15.965c-0.01,1.668-0.022,3.56-0.096,5.579
				c-0.45,12.213-1.234,28.501-1.935,42.81L68.654,115.6l-0.06,0.278c-0.432,2.021-0.432,2.021,0.254,3.707
				c1.595,3.896,13.501,6.919,22.678,6.919c4.322,0,7.565-0.686,8.896-1.88c5.21-4.677,27.474-84.825,29.378-102.429
				c0.067-0.623-0.188-1.247-0.783-1.909C123.982,14.675,98.272,10.572,86.807,10.572z"/>
		</g>
		<path fill="#C5E7E9" d="M74.8,36.507c0,0-0.776,6.271,0.568,12.074c1.344,5.805-6.714,68.178-5.433,69.744
			c1.279,1.566,20.439,8.877,28.813,4.536c4.819-2.5,25.004-76.956,24.383-78.579C122.513,42.661,98.398,48.029,74.8,36.507z"/>
		
			<ellipse transform="matrix(0.0025 -1 1 0.0025 44.1551 153.3125)" fill="#5AB1AF" cx="98.923" cy="54.524" rx="3.167" ry="22.631"/>
		
			<ellipse transform="matrix(0.1554 -0.9879 0.9879 0.1554 66.7931 117.664)" fill="#5AB1AF" cx="102.207" cy="19.771" rx="5.458" ry="26.101"/>
		<path fill="#FFFFFF" d="M76.294,54.464c-2.445,25.17-7.273,62.741-6.357,63.861c1.279,1.566,20.439,8.877,28.813,4.536
			c3.013-1.563,15.952-41.04,22.807-68.286C118.909,56.685,82.044,60.173,76.294,54.464z"/>
		
			<ellipse transform="matrix(0.1554 -0.9879 0.9879 0.1554 -48.6154 185.8755)" fill="#5AB1AF" cx="84.392" cy="121.368" rx="2.445" ry="15.143"/>
		<g opacity="0.5">
			<path fill="#7CCDCD" d="M77.112,47.751c0.176,9.154-10.09,83.679-0.284,72.786c1.107-1.23,5.221-28.325,6.489-42.604
				c1.276-14.366,6.478-34.35-4.094-34.223C77.614,44.539,77.112,47.751,77.112,47.751z"/>
			<path fill="#7CCDCD" d="M111.486,54.35c-2.736,8.603-17.333,80.564-20.251,67.28c-0.327-1.501,4.91-28.37,8.229-42.261
				c2.589-10.84,2.264-25.563,6.1-30.08c1.11-1.307,5.138-0.481,6.591,0.265C112.913,50.825,111.486,54.35,111.486,54.35z"/>
			<path fill="#7CCDCD" d="M120.065,54.071c-2.845,8.567-23.049,82.312-22.889,69.518c0.018-1.446,6.938-27.998,10.873-41.758
				c3.074-10.738,6.01-27.22,8.923-31.858c0.845-1.345,2.884-0.894,3.64-0.249C120.878,50.919,120.065,54.071,120.065,54.071z"/>
			<path fill="#7CCDCD" d="M90.547,47.53c-1.452,3.686-7.108,52.521-8.365,68.016c-0.958,11.832,3.145,9.847,9.007-11.705
				c3.424-12.585,9.383-41.996,9.451-54.25C100.661,45.866,90.613,47.364,90.547,47.53z"/>
		</g>
		<path fill="#C5E7E9" d="M76.056,21.544c0,0,37.805,12.533,49.05,6.408c4.028,1.354-0.105,11.014-2.955,12.488
			c-10.177,5.259-40.938-2.32-45.017-8.556C73.053,25.651,76.056,21.544,76.056,21.544z"/>
	</g>
	<g>
		<g>
			<path fill="#C3996B" d="M22.854,113.54c6.084-3.94,15.35-7.586,22.364-9.756c8.272-2.561,15.749-4.529,24.114-3.811
				c8.076,0.69,15.321-1.72,23.331,1.155c23.755,8.527-2.909,23.908-13.745,28.809c-14.622,6.611-31.42,10.481-47.744,14.841
				c-6.875,1.835-12.963,3.695-19.177-0.736c-6.126-4.371-6.27-9.841,0.179-14.603C12.177,129.439,16.735,117.505,22.854,113.54z"/>
			<path fill="#231F20" d="M20.526,147.528c-3.317,0-6.25-0.94-8.963-2.876c-3.209-2.29-4.917-4.952-4.939-7.699
				c-0.022-2.775,1.682-5.533,4.934-7.986c0.656-1.663,5.011-12.247,10.892-16.056c6.246-4.047,15.744-7.738,22.55-9.843
				c6.799-2.105,13.509-3.994,20.833-3.994c1.189,0,2.391,0.051,3.566,0.152c2.614,0.223,5.75,0.086,8.631-0.085
				c1.751-0.104,3.563-0.211,5.356-0.211c3.715,0,6.655,0.46,9.533,1.493c6.52,2.342,9.901,5.44,10.053,9.212
				c0.392,9.785-21.271,19.867-23.743,20.985c-12.398,5.606-26.531,9.297-40.198,12.866c-2.559,0.668-5.115,1.336-7.661,2.016
				l-0.739,0.198C27.124,146.641,23.813,147.528,20.526,147.528z M65.83,100.574c-7.115,0-13.705,1.857-20.391,3.926
				c-6.71,2.076-16.06,5.706-22.178,9.669c-5.841,3.785-10.34,15.42-10.385,15.538l-0.079,0.205l-0.176,0.131
				c-2.963,2.188-4.52,4.573-4.5,6.898c0.019,2.246,1.509,4.491,4.311,6.49c2.484,1.771,5.056,2.597,8.092,2.597
				c3.091,0,6.309-0.862,9.716-1.776l0.74-0.197c2.548-0.682,5.108-1.35,7.669-2.019c13.606-3.554,27.677-7.228,39.959-12.782
				c8.626-3.899,23.148-12.407,22.862-19.558c-0.125-3.103-3.173-5.747-9.062-7.86c-2.708-0.972-5.492-1.405-9.026-1.405
				c-1.749,0-3.538,0.105-5.268,0.208c-2.93,0.174-6.145,0.313-8.848,0.081C68.135,100.624,66.978,100.574,65.83,100.574z"/>
		</g>
		<g>
			<path fill="#8A5D3B" d="M48.87,119.289c-1.511,1.498-2.195,3.449-2.183,5.536c8.375,1.598,13.168,2.066,10.023-7.514
				c-2.491-0.187-4.996,0.211-7.358,1.146L48.87,119.289z"/>
			<path fill="#754C28" d="M47.637,123.174c0,0,0.63-2.171,2.317-2.619c1.688-0.449,3.015,1.952,4.184,1.813
				c1.168-0.138,4.738,0.333,2.084,1.362C53.567,124.757,47.637,123.174,47.637,123.174z"/>
		</g>
		<g>
			<path fill="#8A5D3B" d="M17.233,124.649c1.49,0.524,3.02,0.354,4.41-0.33c-1.638-6.121-2.876-9.48-8.271-4.277
				c0.683,1.729,1.759,3.274,3.148,4.553L17.233,124.649z"/>
			<path fill="#754C28" d="M20.23,124.219c0,0-1.656,0.281-2.503-0.702c-0.845-0.983,0.332-2.649-0.137-3.387
				c-0.471-0.736-1.312-3.277,0.234-1.836C19.374,119.737,20.23,124.219,20.23,124.219z"/>
		</g>
		<g>
			<path fill="#8A5D3B" d="M74.403,105.698c1.182-1.18,8.533-2.943,9.82-1.939c7.909,6.166-6.387,10.3-10.16,10.765
				c-0.305-0.529-0.479-1.099-0.523-1.705C73.539,112.817,71.997,108.099,74.403,105.698z"/>
			<path fill="#754C28" d="M74.876,113.329c0,0,0.271-2.313,1.938-4.086c1.669-1.771,4.073-1.796,4.693-2.697
				c0.623-0.901,1.255-1.76,1.78-1.727c0.524,0.032,3.379,3.031,3.065,3.625C86.042,109.038,74.642,114.375,74.876,113.329z"/>
		</g>
		<g>
			<path fill="#8A5D3B" d="M56.702,106.577c0.768-8.41,9.987-8.521,10.283,0.008c-3.249,0.956-8.286,4.856-9.99,1.095
				L56.702,106.577z"/>
			<path fill="#754C28" d="M58.272,104.235c0,0-1.491,0.942-0.238,2.994c1.251,2.05,8.966-0.317,8.504-1.229
				s-2.53-0.409-4.176-1.669C60.716,103.073,58.272,104.235,58.272,104.235z"/>
		</g>
		<g>
			<path fill="#754C28" d="M26.544,120.956c-1.826-7.133-2.544-11.828,6.354-12.659c5.793,4.188,1.157,11.792-4.991,12.297
				L26.544,120.956z"/>
			<path fill="#8A5D3B" d="M27.299,118.264c0,0-0.329-2.151,2.355-3.897c2.686-1.746,2.485-3.793,3.673-3.215
				s0.994,3.529,0.03,4.729C32.394,117.084,29.616,118.7,27.299,118.264z"/>
		</g>
		<path fill="#A78056" d="M15.112,130.358c0,0,7.38-1.387,9.918,1.037c2.54,2.427,9.987,3.891,12.109,2.811
			c2.123-1.082,16.646-3.447,21.574-4.988c4.928-1.54,19.942-3.989,23.645-6.262c3.702-2.271,4.552-7.491,7.886-5.967
			c3.332,1.525-9.468,11.025-14.763,12.483c-5.293,1.457-33.705,9.869-38.313,11.955c-4.611,2.089-11.226-2.063-14.146-0.743
			c-2.92,1.321-7.01,3.123-9.941-1.276C10.151,135.009,10.927,132.101,15.112,130.358z"/>
	</g>
	<g>
		<path fill="#231F20" d="M11.653,24.072h0.102c0.102,0.101,0.328,0.201,0.681,0.302c0.354,0.102,0.563,0.219,0.629,0.354h0.304
			c0.065,0.168,0.252,0.377,0.554,0.629c0.303,0.252,0.454,0.428,0.454,0.528l0.453-0.302c0.065-0.033,0.158-0.058,0.276-0.075
			c0.117-0.017,0.219-0.042,0.303-0.075c0.083-0.033,0.185-0.059,0.302-0.076c0.118-0.018,0.228-0.042,0.328-0.075
			c0.032,0,0.126-0.033,0.275-0.101c0.151-0.067,0.261-0.102,0.328-0.102h0.102c0.032,0,0.2-0.024,0.504-0.076
			c0.302-0.05,0.52-0.076,0.653-0.076c0.234,0,0.403,0.019,0.504,0.052h0.252c0.537,0,0.84,0.017,0.906,0.05
			c0.033,0,0.067,0.017,0.103,0.05c0.031,0.034,0.058,0.06,0.074,0.076c0.018,0.017,0.042,0.025,0.075,0.025h0.252
			c0.27,0.201,0.471,0.319,0.604,0.353c0.101,0.034,0.233,0.059,0.403,0.076c0.168,0.018,0.269,0.024,0.302,0.024
			c0.202,0.102,0.318,0.151,0.353,0.151c0.571,0.504,0.856,0.957,0.856,1.36c0,0.033,0.017,0.084,0.051,0.15
			c0.101,0.102,0.134,0.202,0.101,0.303v0.05h0.052c0.031,0,0.058,0,0.074,0c0.018,0,0.025,0.018,0.025,0.05
			c0,0.135,0.041,0.328,0.126,0.58c0.083,0.251,0.126,0.462,0.126,0.629v0.101c0.033,0.034,0.185,0.319,0.453,0.856
			c-0.034,0.068-0.051,0.202-0.051,0.403c0,0.033-0.033,0.15-0.102,0.353c0,0.034,0.018,0.059,0.052,0.075
			c0.032,0.018,0.05,0.042,0.05,0.076s-0.018,0.067-0.05,0.101v0.102c0,0.033,0.041,0.101,0.126,0.2
			c0.083,0.102,0.126,0.186,0.126,0.252c0,0.102-0.025,0.244-0.076,0.429c-0.05,0.185-0.075,0.311-0.075,0.378v0.15
			c-0.135,0.604-0.336,1.177-0.604,1.713c-0.101,0-0.185,0.085-0.252,0.253c-0.066,0.168-0.135,0.251-0.2,0.251
			c0.032,0.135,0.158,0.252,0.378,0.353c0.218,0.101,0.344,0.168,0.377,0.201c0.066,0.067,0.168,0.176,0.303,0.328
			c0.134,0.15,0.234,0.26,0.302,0.327c0.033,0,0.067,0.018,0.103,0.051c0.031,0.034,0.065,0.034,0.101,0L24.4,36.16
			c0,0.101,0.018,0.185,0.052,0.252c0.065,0.068,0.269,0.302,0.604,0.706v0.251c0.066,0.101,0.159,0.286,0.276,0.554
			c0.118,0.27,0.228,0.454,0.328,0.555c-0.034,0.067-0.052,0.143-0.052,0.227s0,0.16,0,0.228l0.453,0.906
			c0,0.034-0.017,0.118-0.05,0.252c0.033,0.102,0.117,0.252,0.252,0.454c-0.034,0.034-0.018,0.186,0.05,0.453
			c-0.033,0.034-0.05,0.202-0.05,0.504c0,0.102-0.018,0.228-0.051,0.377c-0.034,0.151-0.05,0.262-0.05,0.328
			c0,0.102,0.031,0.26,0.101,0.479c0.066,0.219,0.101,0.36,0.101,0.428c-0.2,0.503-0.303,0.806-0.303,0.907
			c0,0.034,0.008,0.076,0.025,0.126c0.017,0.05,0.024,0.093,0.024,0.126c0,0.066-0.024,0.143-0.074,0.227
			c-0.052,0.084-0.076,0.144-0.076,0.176c-0.201,0.27-0.354,0.487-0.453,0.655l-0.151,0.05c0,0.102-0.05,0.22-0.15,0.354
			c-0.102,0.135-0.15,0.27-0.15,0.402c-0.101,0-0.186,0.075-0.252,0.228c-0.067,0.151-0.151,0.227-0.252,0.227
			c-0.034,0.303-0.201,0.538-0.504,0.705c-0.034,0.034-0.084,0.084-0.151,0.151c-0.134,0.134-0.234,0.201-0.302,0.201
			c-0.101,0.202-0.219,0.37-0.353,0.504c-0.067,0-0.136,0.024-0.201,0.076c-0.068,0.05-0.145,0.117-0.229,0.2
			c-0.084,0.085-0.159,0.145-0.227,0.177c-0.033,0-0.075,0-0.126,0c-0.05,0-0.093,0.018-0.126,0.051
			c-0.067,0.034-0.15,0.109-0.252,0.227C21.98,49,21.896,49.075,21.83,49.109c-0.304,0.067-0.706,0.135-1.209,0.202
			c-0.504,0.066-0.841,0.118-1.009,0.15c-0.066,0-0.168,0.034-0.302,0.102c-0.169,0-0.387-0.018-0.655-0.051
			c-0.27-0.033-0.504-0.067-0.704-0.102c-0.034-0.067-0.102-0.117-0.201-0.151c-0.103-0.032-0.169-0.066-0.202-0.101
			c-0.604-0.101-1.293-0.386-2.065-0.856c-0.066,0.067-0.143,0.169-0.227,0.303c-0.084,0.135-0.15,0.244-0.201,0.328
			s-0.126,0.168-0.227,0.252c-0.102,0.084-0.22,0.143-0.354,0.176c-0.202,0.37-0.772,0.588-1.713,0.655
			c-0.101,0-0.554-0.051-1.36-0.151c-0.269,0-0.503-0.033-0.705-0.101c-0.336-0.067-0.604-0.167-0.806-0.303
			c-0.27-0.268-0.571-0.654-0.907-1.157C8.85,48.135,8.733,47.969,8.631,47.8l-0.15-0.705c-0.034-0.066-0.085-0.15-0.15-0.252
			c-0.067-0.101-0.118-0.184-0.151-0.252c-0.034-0.066-0.05-0.167-0.05-0.302c0-0.066,0.016-0.202,0.05-0.403
			c0.033-0.201,0.033-0.353,0-0.453c-0.034-0.033-0.075-0.067-0.126-0.102c-0.05-0.033-0.093-0.066-0.126-0.101v-0.252
			c-0.101-0.067-0.159-0.168-0.176-0.303c-0.019-0.134-0.025-0.293-0.025-0.479c0-0.184-0.018-0.328-0.051-0.428
			c0-0.033,0-0.067,0-0.102c0.067,0,0.084-0.033,0.051-0.101c-0.101-0.269-0.15-0.554-0.15-0.856V41.45
			c0-0.335-0.019-0.587-0.051-0.756c0.032-0.033,0.051-0.083,0.051-0.151c0-0.066,0.017-0.101,0.051-0.101
			c0-0.134-0.034-0.234-0.102-0.302c0.032-0.471,0.032-1.15,0-2.04c-0.033-0.89-0.051-1.47-0.051-1.738
			c0-0.033,0.018-0.067,0.051-0.102c0.032-0.032,0.051-0.066,0.051-0.101c-0.033-0.101-0.051-0.285-0.051-0.554
			c0-0.27,0.083-0.94,0.251-2.016c0.033,0,0.06-0.042,0.076-0.126c0.018-0.083,0.059-0.107,0.126-0.074
			c-0.034-0.033-0.051-0.083-0.051-0.151c0-0.067,0-0.117,0-0.151l-0.05-0.101c-0.034-0.033-0.051-0.067-0.051-0.102
			c0-0.101,0.008-0.242,0.024-0.428c0.018-0.184,0.042-0.411,0.075-0.68s0.051-0.47,0.051-0.604c0.066-0.771,0.201-1.19,0.402-1.259
			c0-0.066-0.033-0.107-0.102-0.125c-0.066-0.017-0.101-0.042-0.101-0.076l0.101-0.101c0.033-0.033,0.033-0.05,0-0.05l-0.101-0.05
			c0.201-0.84,0.303-1.276,0.303-1.311l-0.051-0.05c-0.034-0.033-0.034-0.067,0-0.102c0.033-0.066,0.051-0.26,0.051-0.578
			c0-0.319,0.05-0.563,0.15-0.73c0-0.033,0.017-0.151,0.051-0.353c0.033-0.202,0.066-0.369,0.102-0.505l0.2-0.402l0.103-0.354
			l0.453-0.15c0.269-0.27,0.47-0.454,0.604-0.555c0.302-0.032,0.604-0.116,0.906-0.252c0.033,0.034,0.151,0.051,0.353,0.051
			l0.252-0.051V24.072z M16.036,28.504c-0.271,0-0.571,0.136-0.907,0.403c-0.102,0-0.201-0.017-0.302-0.05
			c-0.169,0.402-0.252,0.655-0.252,0.755c0.2,0.168,0.302,0.32,0.302,0.454c0,0.101-0.06,0.26-0.176,0.479
			c-0.118,0.22-0.178,0.378-0.178,0.479c0,0.101,0.042,0.234,0.126,0.402s0.126,0.286,0.126,0.354c0,0.034-0.017,0.068-0.05,0.101
			c-0.034,0-0.06,0.018-0.076,0.051s-0.024,0.067-0.024,0.101c0.066,0.135,0.102,0.269,0.102,0.403c0,0.101-0.034,0.185-0.102,0.251
			c0.066,0.033,0.159,0.093,0.276,0.176c0.117,0.084,0.243,0.144,0.378,0.176c0.067-0.033,0.135-0.117,0.201-0.251l1.864-0.454
			c0.839-0.101,1.31-0.184,1.41-0.252c0.335-0.167,0.504-0.419,0.504-0.755c0-0.101-0.009-0.202-0.025-0.302
			c-0.018-0.102-0.042-0.228-0.074-0.378c-0.034-0.151-0.052-0.261-0.052-0.327c-0.032-0.033-0.084-0.067-0.15-0.102
			c-0.134-0.101-0.22-0.167-0.251-0.2c-0.034-0.033-0.085-0.067-0.151-0.102c-0.135-0.066-0.202-0.117-0.202-0.15l-0.401-0.202
			c0-0.067-0.102-0.159-0.304-0.277c-0.201-0.117-0.318-0.227-0.353-0.328c-0.135-0.033-0.302-0.107-0.504-0.227
			c-0.201-0.117-0.354-0.176-0.453-0.176C16.271,28.521,16.17,28.504,16.036,28.504z M15.331,37.773
			c-0.136,0.168-0.235,0.538-0.304,1.107c-0.033,0.102-0.05,0.252-0.05,0.454v0.151c0,0.034,0.032,0.118,0.102,0.252
			c0.065,0.135,0.101,0.219,0.101,0.252c0,0.034-0.025,0.093-0.075,0.176c-0.051,0.084-0.076,0.144-0.076,0.176
			c0,0.034-0.018,0.177-0.05,0.429c-0.034,0.252-0.102,0.444-0.202,0.579c0.168,0.033,0.252,0.252,0.252,0.654
			c0,0.168,0.067,0.303,0.201,0.403c-0.066,0.134-0.101,0.235-0.101,0.302c0,0.102,0.024,0.228,0.076,0.377
			c0.05,0.151,0.074,0.262,0.074,0.328c0,0.102-0.033,0.186-0.101,0.252c0.201,0.067,0.252,0.186,0.151,0.354
			c0.101,0.033,0.218,0.15,0.353,0.353c-0.169,0.102-0.252,0.186-0.252,0.252c0,0.102,0.126,0.26,0.378,0.479
			c0.252,0.219,0.395,0.377,0.428,0.479c0.304,0.034,0.673,0.018,1.108-0.05s0.738-0.101,0.906-0.101
			c0-0.033,0.051-0.117,0.15-0.252h0.252c0.066-0.102,0.243-0.219,0.529-0.354c0.284-0.134,0.461-0.234,0.528-0.302
			c0.066-0.067,0.168-0.218,0.303-0.453c0.134-0.234,0.284-0.403,0.453-0.504c0.101-0.335,0.168-0.57,0.201-0.705
			c0-0.067-0.05-0.126-0.151-0.176c-0.101-0.051-0.168-0.108-0.201-0.177v-0.15c0-0.067,0.025-0.167,0.076-0.302
			c0.05-0.135,0.075-0.234,0.075-0.303c0-0.066-0.018-0.125-0.051-0.176c-0.033-0.05-0.05-0.092-0.05-0.125V40.95
			c0-0.302-0.034-0.537-0.102-0.705l-0.403-0.403c-0.066-0.101-0.15-0.184-0.252-0.251c-0.101-0.101-0.311-0.218-0.63-0.353
			c-0.318-0.134-0.563-0.269-0.729-0.403c-0.033,0-0.084,0.009-0.15,0.025c-0.067,0.017-0.135,0.008-0.202-0.025
			c-0.975-0.537-1.779-0.873-2.418-1.007C15.414,37.823,15.363,37.807,15.331,37.773z"/>
		<path fill="#231F20" d="M35.277,25.331h0.151c0.369,0,0.587,0.034,0.654,0.102c0.101-0.033,0.269-0.051,0.504-0.051
			c0.134,0,0.318,0.01,0.555,0.025c0.234,0.018,0.385,0.025,0.453,0.025c0.101,0,0.252-0.009,0.453-0.025
			c0.201-0.016,0.353-0.025,0.453-0.025c0.033,0,0.084,0.018,0.15,0.051s0.117,0.05,0.151,0.05c0.033,0,0.092-0.008,0.176-0.025
			c0.084-0.017,0.159-0.024,0.228-0.024c0.032,0,0.202,0.009,0.504,0.024c0.303,0.018,0.537,0.06,0.705,0.125
			c0.066,0,0.117-0.016,0.15-0.05h0.102c0.134,0.101,0.285,0.151,0.453,0.151h0.201c0.066,0,0.185-0.009,0.354-0.025
			c0.167-0.017,0.302-0.025,0.402-0.025h0.15c0.067,0,0.234,0.034,0.504,0.102c0.438,0.101,0.738,0.252,0.906,0.453
			c0.033,0.034,0.102,0.118,0.202,0.252c0.101,0.135,0.184,0.234,0.252,0.302c0.033,0.034,0.083,0.093,0.15,0.176
			c0.066,0.084,0.117,0.16,0.15,0.228l0.051,0.604c-0.067,0.37-0.201,0.706-0.402,1.008c-0.168,0.235-0.336,0.387-0.504,0.453
			c-0.067,0.034-0.186,0.068-0.354,0.102s-0.285,0.067-0.353,0.101c-0.136,0.067-0.27,0.102-0.402,0.102
			c-0.068,0-0.169-0.033-0.303-0.102c-0.201,0.168-0.588,0.252-1.158,0.252h-1.008c-0.135,0-0.37,0.008-0.705,0.025
			c-0.336,0.018-0.604,0.024-0.806,0.024h-0.354c-0.135-0.032-0.303-0.032-0.504,0c-0.101,0-0.228-0.008-0.378-0.024
			c-0.151-0.018-0.261-0.025-0.327-0.025c-0.068,0-0.16,0.008-0.277,0.025s-0.21,0.024-0.276,0.024
			c-0.067,0-0.159-0.008-0.276-0.024c-0.118-0.018-0.194-0.025-0.228-0.025c-0.168,0-0.285,0.034-0.354,0.102
			c0.033,0.067,0.051,0.168,0.051,0.302c-0.2,0.101-0.318,0.168-0.353,0.202c0.033,0.033,0.05,0.134,0.05,0.302l-0.05,0.302
			c0,0.068-0.034,0.135-0.102,0.202c-0.067,0.068-0.101,0.118-0.101,0.151c0.032,0.033,0.032,0.066,0,0.101l0.101,0.05
			c0.033,0,0.051,0.019,0.051,0.05c0.032,0.202,0.059,0.622,0.075,1.26c0.018,0.639,0.075,1.107,0.177,1.411
			c-0.102,0.269-0.168,0.437-0.201,0.503c0.033,0.067,0.083,0.101,0.151,0.101c0.065,0,0.101,0.017,0.101,0.05
			c0,0.27-0.018,0.453-0.051,0.555c0.101,0.168,0.15,0.353,0.15,0.554c0,0.234-0.084,0.47-0.252,0.705
			c0,0.066-0.009,0.143-0.024,0.227c-0.019,0.084-0.025,0.144-0.025,0.176c0,0.202,0.018,0.479,0.051,0.831
			c0.033,0.354,0.052,0.598,0.052,0.73c0,0.168-0.019,0.302-0.052,0.403c0.201,0.135,0.369,0.302,0.504,0.504
			c0.102,0,0.252-0.009,0.453-0.025c0.201-0.016,0.335-0.025,0.403-0.025c0.167,0,0.353,0.034,0.554,0.102
			c0.335-0.067,0.604-0.102,0.807-0.102l0.504,0.051c0.032,0.033,0.134,0.084,0.303,0.15c0.167,0.067,0.269,0.134,0.302,0.201h0.201
			c0.033,0.034,0.151,0.135,0.354,0.302c0.2,0.168,0.368,0.27,0.503,0.303c0,0.101,0.066,0.201,0.201,0.302
			c-0.067,0.067-0.075,0.168-0.024,0.302c0.05,0.135,0.075,0.219,0.075,0.252v0.102l-0.201,0.201c0,0.067-0.043,0.168-0.126,0.303
			c-0.084,0.134-0.126,0.252-0.126,0.353c-0.034,0.034-0.102,0.05-0.201,0.05c-0.034,0.136-0.118,0.303-0.252,0.504l-0.705,0.151
			c-0.068,0-0.169,0.018-0.303,0.05c-0.067,0.068-0.136,0.102-0.201,0.102c-0.102,0-0.219-0.018-0.354-0.051
			c-0.135-0.032-0.252-0.051-0.353-0.051l-0.504,0.051h-0.151c-0.066,0-0.159-0.017-0.276-0.051c-0.117-0.033-0.193-0.05-0.228-0.05
			c-0.101,0-0.168,0.018-0.201,0.05c-0.101,0.102-0.15,0.286-0.15,0.555c0,0.033-0.01,0.101-0.024,0.201
			c-0.018,0.102-0.024,0.186-0.024,0.252c0,0.135,0.017,0.319,0.05,0.555c0.032,0.234,0.051,0.402,0.051,0.504v0.554
			c0.101,0.034,0.369,0.126,0.806,0.277c0.438,0.15,0.738,0.294,0.907,0.428c0.066,0,0.117-0.008,0.15-0.025
			c0.032-0.016,0.066-0.024,0.102-0.024c0.302,0.101,0.654,0.15,1.058,0.15c0.303,0,0.688-0.032,1.158-0.101
			c0.033,0,0.117,0.068,0.252,0.202c0.102,0,0.312-0.025,0.63-0.076c0.318-0.05,0.563-0.076,0.73-0.076
			c0.234,0,0.419,0.05,0.554,0.151c0.033-0.067,0.117-0.076,0.252-0.025c0.135,0.05,0.219,0.076,0.252,0.076h0.102
			c0.033,0.034,0.066,0.067,0.101,0.101l0.102,0.051l0.454,0.15c0.134,0.201,0.2,0.37,0.2,0.503
			c0.033,0.034,0.102,0.094,0.201,0.178c0.102,0.084,0.168,0.143,0.202,0.176c0.066,0.066,0.101,0.251,0.101,0.554
			c0,0.271-0.033,0.454-0.101,0.554l-0.151,0.102c-0.234,0.336-0.437,0.538-0.604,0.604l-0.453,0.202h-0.252
			c-0.101,0-0.219,0.042-0.353,0.126c-0.136,0.084-0.235,0.126-0.304,0.126c-0.067,0-0.135-0.008-0.201-0.024
			c-0.066-0.018-0.117-0.025-0.15-0.025c-0.034,0-0.102,0.05-0.201,0.151c-0.101,0-0.244,0.05-0.429,0.15
			c-0.186,0.102-0.327,0.167-0.429,0.201c-0.066,0-0.219,0.008-0.452,0.025c-0.235,0.017-0.422,0.042-0.556,0.076
			c-0.269,0.066-0.537,0.101-0.806,0.101c-0.201,0-0.336-0.017-0.403-0.05l-0.149,0.05c-0.068,0.033-0.118,0.067-0.151,0.101
			c-0.067-0.033-0.169-0.05-0.303-0.05c-0.067,0-0.168,0.008-0.303,0.025c-0.135,0.017-0.234,0.024-0.303,0.024
			c-0.033,0-0.084,0-0.149,0l-0.052-0.05c-0.033,0-0.084,0.008-0.15,0.025c-0.067,0.017-0.118,0.024-0.15,0.024
			c-0.102,0.033-0.32,0.051-0.655,0.051h-0.705c-0.135,0.066-0.219,0.101-0.252,0.101c-0.101,0.033-0.252,0.05-0.452,0.05
			c-0.304,0-0.521-0.018-0.655-0.05l-0.252,0.151c-0.168,0-0.411,0.017-0.73,0.05c-0.318,0.033-0.563,0.051-0.729,0.051
			c-0.201,0-0.369-0.018-0.503-0.051c-0.068-0.067-0.252-0.151-0.556-0.251c-0.302-0.102-0.486-0.235-0.554-0.403
			c-0.067,0-0.16-0.05-0.277-0.15c-0.117-0.102-0.227-0.167-0.326-0.202c-0.067-0.201-0.252-0.395-0.555-0.579
			s-0.486-0.311-0.555-0.378c0-0.134-0.067-0.234-0.201-0.303c0-0.066-0.009-0.143-0.024-0.227
			c-0.019-0.083-0.025-0.143-0.025-0.176c-0.135-0.102-0.302-0.285-0.504-0.554c-0.033-0.067-0.033-0.135,0-0.202v-0.051
			c-0.235-0.302-0.354-0.569-0.354-0.806v-0.101c-0.101-0.167-0.185-0.486-0.252-0.957c-0.066-0.471-0.168-0.789-0.302-0.957v-0.102
			c0-0.066-0.034-0.184-0.101-0.353c-0.068-0.168-0.102-0.285-0.102-0.354l0.05-0.201c-0.135-0.234-0.2-0.505-0.2-0.807
			c0-0.201-0.01-0.436-0.025-0.705c-0.018-0.269-0.042-0.57-0.075-0.906c-0.034-0.336-0.051-0.604-0.051-0.807v-1.209
			c0-0.134,0.017-0.328,0.051-0.58c0.033-0.251,0.05-0.428,0.05-0.528c0-0.067-0.009-0.185-0.023-0.354
			c-0.019-0.167-0.025-0.302-0.025-0.403c0-0.168,0.018-0.302,0.05-0.402c-0.032-0.033-0.032-0.05,0-0.05l0.102-0.051
			c-0.168-1.107-0.251-1.88-0.251-2.316c0-0.102,0.032-0.285,0.101-0.555H26.97c-0.067,0-0.101-0.017-0.101-0.05
			c0-0.202,0.008-0.528,0.024-0.981c0.018-0.453,0.025-0.797,0.025-1.033c0-0.033-0.009-0.102-0.025-0.201
			c-0.018-0.101-0.024-0.185-0.024-0.252c0-0.134,0.051-0.252,0.15-0.353l-0.051-0.052c-0.067,0-0.084-0.032-0.05-0.101
			c0.101-0.806,0.149-1.595,0.149-2.367c0.033-0.033,0.084-0.076,0.151-0.126c0.067-0.051,0.117-0.092,0.151-0.126
			c-0.034-0.067-0.068-0.083-0.102-0.05c-0.034,0.034-0.067,0.034-0.102,0c0-0.202,0.051-0.428,0.15-0.681
			c0.101-0.252,0.168-0.428,0.202-0.528c0.032,0,0.075-0.033,0.126-0.102c0.05-0.066,0.108-0.101,0.176-0.101
			c0.067-0.134,0.234-0.293,0.505-0.479c0.269-0.184,0.436-0.344,0.504-0.479c0.032,0,0.268-0.05,0.705-0.151
			c0.2,0,0.335-0.083,0.401-0.251c0.033,0.034,0.084,0.051,0.151,0.051c0.066,0,0.177-0.033,0.327-0.102
			c0.15-0.067,0.243-0.101,0.276-0.101c0.102-0.033,0.252-0.051,0.453-0.051c0.202,0,0.403,0.034,0.604,0.102
			c0.066,0,0.159-0.018,0.276-0.05c0.117-0.033,0.228-0.059,0.327-0.076c0.102-0.017,0.202-0.025,0.303-0.025
			c0.033,0,0.083,0.018,0.151,0.05h0.102c0.065,0,0.167-0.017,0.302-0.05c0.134-0.033,0.252-0.05,0.353-0.05l0.202,0.05
			c0.134,0,0.311-0.017,0.528-0.05s0.378-0.05,0.479-0.05h0.151L35.277,25.331z"/>
		<path fill="#231F20" d="M52.354,24.172c0.571,0,0.99,0.018,1.26,0.051c0.807,0.067,1.227,0.135,1.26,0.201
			c0.369,0.034,0.939,0.135,1.713,0.303l0.957,0.302c0.303,0.134,0.485,0.219,0.555,0.252c0.102,0.067,0.209,0.125,0.327,0.176
			c0.117,0.05,0.227,0.093,0.327,0.125c0.202,0.135,0.369,0.302,0.504,0.504c0.067,0,0.143,0.034,0.227,0.102
			s0.144,0.101,0.178,0.101c0.031,0.102,0.143,0.244,0.326,0.428c0.185,0.185,0.294,0.346,0.327,0.479
			c0.234,0.201,0.354,0.521,0.354,0.957c0,0.168-0.018,0.302-0.05,0.403c-0.034,0.336-0.271,0.621-0.705,0.855
			c-0.034,0.034-0.085,0.084-0.151,0.151l-0.151,0.05c-0.033,0-0.101-0.017-0.2-0.05c-0.102-0.033-0.169-0.051-0.202-0.051
			c-0.402-0.066-0.705-0.134-0.906-0.201c-0.067-0.033-0.169-0.083-0.303-0.151c-0.135-0.067-0.235-0.101-0.303-0.101h-0.252
			c-0.101,0-0.261-0.009-0.479-0.025c-0.219-0.017-0.378-0.025-0.479-0.025c-0.066,0-0.168,0.018-0.302,0.051
			c-0.135,0.033-0.234,0.05-0.303,0.05l-0.201-0.05c-0.068,0-0.16,0.033-0.277,0.101c-0.117,0.068-0.227,0.118-0.326,0.151
			c-0.235,0.234-0.403,0.37-0.505,0.402c0,0.102-0.117,0.303-0.353,0.604c-0.067,0.134-0.169,0.219-0.303,0.252
			c0,0.134-0.06,0.377-0.176,0.729c-0.118,0.354-0.178,0.647-0.178,0.883c0,0.2,0.018,0.353,0.051,0.452
			c0.135,0.403,0.387,0.673,0.757,0.807c0.065,0,0.149,0,0.252,0c0.101,0,0.209,0,0.327,0c0.116,0,0.209,0,0.276,0
			c0.369,0,1.059,0.118,2.064,0.353c0.033,0.034,0.084,0.018,0.15-0.05c0.033,0.034,0.285,0.151,0.756,0.354l0.201,0.101
			c0.033,0,0.067,0.018,0.102,0.05c0.033,0.034,0.066,0.051,0.101,0.051c0.033,0.034,0.118,0.094,0.252,0.177
			c0.134,0.084,0.252,0.143,0.354,0.176l0.15,0.353c0.102,0.034,0.186,0.109,0.252,0.228c0.067,0.118,0.117,0.193,0.151,0.227
			c0.033,0.034,0.101,0.084,0.201,0.151c0.101,0.066,0.168,0.134,0.201,0.201c0,0.033,0.009,0.075,0.024,0.126
			c0.017,0.05,0.025,0.093,0.025,0.126c0.638,0.471,1.041,1.007,1.209,1.611c0.47,1.009,0.705,1.579,0.705,1.713
			c0.066,0.067,0.168,0.202,0.303,0.403c-0.034,0.068-0.051,0.151-0.051,0.252c0,0.102,0,0.168,0,0.202l0.101,0.101
			c0.033,0.034,0.067,0.084,0.102,0.151c0,0.034,0,0.102,0,0.202s0.017,0.185,0.051,0.252c0.065,0.269,0.101,0.42,0.101,0.453
			c0,0.101-0.066,0.202-0.201,0.302c0.033,0.034,0.051,0.084,0.051,0.151c0,0.034-0.018,0.108-0.051,0.227s-0.033,0.21,0,0.277
			c-0.067,0.034-0.126,0.126-0.177,0.276c-0.05,0.151-0.108,0.244-0.176,0.277c0.101,0.168,0.15,0.336,0.15,0.504
			c0,0.27-0.084,0.521-0.251,0.755c0,0.034-0.034,0.068-0.103,0.102c-0.066,0.034-0.118,0.066-0.149,0.101
			c-0.034,0.135-0.109,0.302-0.228,0.504c-0.118,0.201-0.194,0.37-0.228,0.503c-0.033,0-0.094,0.025-0.177,0.076
			c-0.084,0.05-0.159,0.076-0.227,0.076c-0.034,0.101-0.101,0.219-0.202,0.353c-0.101,0.135-0.168,0.235-0.201,0.303
			c-0.034,0-0.075,0.017-0.126,0.05c-0.05,0.034-0.093,0.068-0.126,0.101c-0.033,0.034-0.066,0.051-0.101,0.051v0.252
			c-0.034,0.033-0.067,0.084-0.102,0.15c-0.033,0.067-0.066,0.118-0.101,0.151c-0.034,0.034-0.068,0.05-0.101,0.05
			c-0.068,0-0.103,0.018-0.103,0.05l-0.05,0.102c-0.034,0.066-0.068,0.117-0.102,0.15c-0.067,0-0.117,0.019-0.15,0.05
			c-0.067,0.034-0.135,0.102-0.201,0.202c-0.068,0.102-0.126,0.177-0.177,0.228s-0.126,0.108-0.228,0.176
			c-0.101,0.068-0.201,0.101-0.303,0.101c-0.033,0.067-0.117,0.135-0.251,0.201c-0.135,0.068-0.22,0.118-0.252,0.151
			c-0.034,0-0.102,0.009-0.202,0.024c-0.101,0.019-0.185,0.025-0.252,0.025c-0.269,0.135-0.437,0.202-0.503,0.202
			c-0.068,0-0.135-0.033-0.202-0.101c-0.336,0.067-0.571,0.185-0.705,0.353c-0.066,0-0.144,0.009-0.227,0.025
			c-0.084,0.018-0.145,0.024-0.177,0.024c-0.067,0.034-0.186,0.05-0.354,0.05c-0.033,0-0.117,0.051-0.251,0.151
			c-0.135,0.101-0.235,0.151-0.303,0.151c-0.068,0-0.151-0.051-0.252-0.151c-0.136,0.034-0.487,0.05-1.059,0.05
			c-0.234,0-0.402,0.019-0.504,0.051c-0.135,0-0.219-0.017-0.252-0.051c-0.066,0.034-0.176,0.06-0.327,0.076
			c-0.15,0.018-0.261,0.059-0.327,0.126c-0.102-0.033-0.234-0.05-0.402-0.05c-0.102,0-0.252,0.009-0.453,0.024
			c-0.202,0.018-0.336,0.025-0.403,0.025c-0.101,0-0.261-0.033-0.479-0.101c-0.219-0.067-0.396-0.117-0.528-0.151H49.78l-0.051-0.05
			c-0.033,0-0.066,0-0.101,0h-0.102c-0.101,0-0.252-0.033-0.452-0.102c-0.202-0.066-0.354-0.101-0.454-0.101
			c-0.604-0.101-0.957-0.184-1.059-0.251l-0.15-0.151c-0.235-0.032-0.521-0.285-0.855-0.755c-0.169-0.436-0.27-0.771-0.303-1.007
			v-0.655l-0.05-0.101l0.05-0.05c0-0.033,0-0.067,0-0.102c0-0.168-0.019-0.285-0.05-0.353c0.401-0.57,0.854-0.939,1.358-1.108
			c0.033,0,0.117-0.008,0.252-0.024c0.135-0.018,0.234-0.042,0.304-0.075h0.149c0.033,0,0.117-0.008,0.252-0.025
			c0.134-0.017,0.234-0.024,0.303-0.024c0.102,0,0.185,0.018,0.253,0.051c0.2-0.067,0.386-0.102,0.554-0.102
			c0.201,0,0.369,0.034,0.504,0.102c0.101-0.033,0.353-0.051,0.756-0.051h0.201c0.033,0,0.107-0.017,0.227-0.051
			c0.117-0.032,0.209-0.05,0.277-0.05h0.252c0.134,0,0.243-0.05,0.327-0.15c0.083-0.102,0.143-0.168,0.176-0.202
			c0.033-0.033,0.093-0.076,0.177-0.126c0.083-0.051,0.144-0.093,0.177-0.126c0.402-1.008,0.604-1.612,0.604-1.813
			c0-0.167-0.033-0.268-0.101-0.302c0.066-0.604-0.235-1.311-0.906-2.115c-0.102-0.066-0.271-0.185-0.504-0.353
			c-0.235-0.167-0.403-0.285-0.504-0.354c-0.067,0-0.118-0.008-0.151-0.024c-0.033-0.018-0.084-0.025-0.15-0.025
			c-0.067-0.101-0.169-0.151-0.303-0.151c-0.066-0.134-0.168-0.185-0.302-0.15c-0.034-0.102-0.202-0.218-0.504-0.354
			c-0.403-0.335-0.723-0.554-0.957-0.654c-0.034-0.033-0.051-0.083-0.051-0.151c-0.102-0.033-0.228-0.108-0.378-0.228
			c-0.15-0.116-0.261-0.192-0.327-0.227v-0.101c-0.033-0.033-0.05-0.067-0.05-0.102c-0.103-0.101-0.271-0.243-0.505-0.428
			s-0.402-0.311-0.504-0.377c-0.066-0.168-0.336-0.521-0.806-1.059c-0.101-0.2-0.169-0.302-0.202-0.302v-0.201
			c-0.168-0.168-0.252-0.284-0.252-0.353v-0.151c0-0.032-0.033-0.143-0.101-0.327c-0.068-0.184-0.102-0.311-0.102-0.378
			c-0.336-0.705-0.537-1.141-0.604-1.31c-0.067-0.202-0.102-0.354-0.102-0.454c0-0.067,0.033-0.167,0.102-0.302
			C45.017,30.67,45,30.519,45,30.318c0-0.47,0.083-0.873,0.251-1.209c0-0.168,0.066-0.354,0.202-0.554v-0.202
			c0.065-0.167,0.191-0.369,0.378-0.604c0.184-0.233,0.31-0.436,0.378-0.604c0.268-0.27,0.419-0.487,0.453-0.655
			c0.032,0,0.149-0.101,0.353-0.302c0.033-0.033,0.117-0.102,0.252-0.201c0.134-0.102,0.234-0.185,0.302-0.252h0.052
			c0.032-0.033,0.065-0.05,0.101-0.05c0.066-0.067,0.201-0.151,0.403-0.252c0.201-0.102,0.335-0.185,0.401-0.252
			c0.135-0.033,0.336-0.108,0.604-0.228c0.269-0.117,0.486-0.193,0.655-0.227c0.065-0.102,0.2-0.151,0.401-0.151h0.252
			c0.067-0.033,0.151-0.067,0.252-0.101c0.102-0.033,0.168-0.067,0.202-0.102h0.201l0.453-0.15
			C51.682,24.189,51.951,24.172,52.354,24.172z"/>
		<path fill="#231F20" d="M71.948,25.583c0.101,0,0.554,0.051,1.358,0.151c0.033,0,0.108,0.009,0.228,0.024
			c0.116,0.018,0.21,0.025,0.276,0.025l0.051,0.05h0.051c0.233,0,0.369,0.034,0.402,0.102c1.311,0.033,2.535,0.2,3.678,0.503
			c0,0.034,0.032,0.084,0.101,0.15l0.102,0.151h0.303c0.134,0.135,0.201,0.235,0.201,0.302c0.102,0,0.201,0.042,0.303,0.126
			c0.101,0.084,0.184,0.126,0.252,0.126c0,0.068,0.033,0.151,0.101,0.252c0.066,0.102,0.102,0.186,0.102,0.252l-0.354,0.354
			c-0.066,0.066-0.27,0.318-0.604,0.755c-0.504,0.269-0.856,0.437-1.059,0.504h-0.15c-0.336,0-0.622,0.084-0.856,0.252
			c-0.336,0-0.975,0.067-1.914,0.201c-0.034,0.034-0.093,0.068-0.176,0.101c-0.085,0.034-0.144,0.067-0.177,0.102
			c0.101,0.604,0.15,0.924,0.15,0.957c0,0.234-0.051,0.386-0.15,0.453c0,0.067,0.017,0.15,0.051,0.252
			c0.033,0.101,0.05,0.168,0.05,0.202c0,0.033-0.024,0.108-0.075,0.227s-0.075,0.227-0.075,0.328c0,0.134,0.051,0.403,0.15,0.806
			c0,0.034-0.017,0.068-0.05,0.102v0.101c0,0.068,0.017,0.176,0.05,0.327c0.033,0.15,0.051,0.261,0.051,0.328
			c0,0.034-0.024,0.101-0.075,0.202c-0.051,0.101-0.075,0.168-0.075,0.2c0,0.034,0.008,0.094,0.024,0.177
			c0.018,0.084,0.025,0.159,0.025,0.227c0,0.168-0.068,0.42-0.202,0.755l0.151,0.302c-0.034,0.102-0.06,0.319-0.075,0.655
			c-0.018,0.336-0.076,0.571-0.177,0.705v0.354c0,0.168-0.01,0.377-0.025,0.629s-0.023,0.444-0.023,0.579
			c0,0.234,0.017,0.42,0.05,0.554c0,0.034,0.051,0.101,0.15,0.202c0.033,0.066,0.033,0.118,0,0.15l-0.051,0.151
			c0.102,0.168,0.151,0.336,0.151,0.503c0,0.271-0.051,0.504-0.151,0.706c0.033,0.201,0.033,0.336,0,0.403
			c0.067,0.033,0.102,0.168,0.102,0.402c0,0.034,0,0.084,0,0.151l0.051,0.101c0,0.068-0.034,0.168-0.102,0.303l0.051,0.101
			c0,0.068,0,0.118,0,0.151c0,0.066-0.018,0.143-0.051,0.227s-0.051,0.144-0.051,0.176c0.033,0.068,0.084,0.126,0.151,0.177
			c0.066,0.05,0.101,0.093,0.101,0.126c-0.033,0.101-0.033,0.234,0,0.402s0.033,0.286,0,0.354c-0.033,0.066-0.084,0.15-0.15,0.251
			c-0.067,0.101-0.102,0.168-0.102,0.202c0,0.033,0.018,0.075,0.051,0.126c0.033,0.05,0.051,0.093,0.051,0.126v0.252
			c0,0.234-0.051,0.486-0.15,0.755c0.134,0.269,0.201,0.521,0.201,0.756l-0.051,0.201c0.032,0.034,0.051,0.269,0.051,0.705
			c0,0.101,0.033,0.234,0.101,0.402s0.102,0.303,0.102,0.403c0,0.135-0.051,0.252-0.15,0.354c-0.034,0.033-0.109,0.075-0.227,0.126
			c-0.118,0.05-0.194,0.126-0.229,0.227c-0.033,0-0.126,0.025-0.276,0.076c-0.15,0.05-0.276,0.076-0.378,0.076
			c-0.066,0.066-0.521,0.286-1.359,0.654l-1.007,0.151c-0.034,0-0.076,0.009-0.126,0.025c-0.052,0.017-0.094,0.024-0.126,0.024
			c-0.068,0-0.194-0.017-0.379-0.051c-0.186-0.033-0.326-0.05-0.429-0.05l-0.201,0.05c-0.402-0.101-0.639-0.151-0.705-0.151h-0.101
			c-0.202-0.202-0.37-0.335-0.504-0.402c-0.034-0.033-0.126-0.151-0.277-0.354c-0.15-0.201-0.294-0.335-0.428-0.402
			c0-0.102-0.034-0.185-0.101-0.253c-0.538-0.536-0.808-1.041-0.808-1.511c0-0.167-0.017-0.268-0.05-0.302
			c-0.034-0.033-0.034-0.067,0-0.101l0.05-0.051c-0.101-0.101-0.149-0.233-0.149-0.402v-0.555c0-0.032,0.017-0.066,0.05-0.101
			c0.033-0.033,0.051-0.067,0.051-0.101s-0.025-0.083-0.076-0.151c-0.05-0.067-0.075-0.117-0.075-0.151
			c0.067-1.778,0.135-2.82,0.201-3.123c0-0.066,0.033-0.116,0.103-0.15c0-0.033,0.008-0.051,0.023-0.051
			c0.017,0,0.025-0.017,0.025-0.051c-0.102-0.066-0.084-0.167,0.051-0.302h-0.101c-0.068,0-0.103-0.017-0.103-0.051l0.051-1.007
			c0-0.033,0.025-0.067,0.075-0.102c0.051-0.033,0.076-0.066,0.076-0.101c0-0.033-0.018-0.067-0.051-0.102
			c-0.034-0.032-0.05-0.066-0.05-0.101c0-0.033,0.008-0.277,0.023-0.73c0.018-0.453,0.06-0.764,0.126-0.932
			c0-0.033-0.017-0.067-0.05-0.101v-0.102c0.033-0.302,0.05-0.771,0.05-1.411v-2.568c0-0.102,0.025-0.243,0.076-0.429
			c0.05-0.184,0.075-0.326,0.075-0.428c0.033-0.066,0.065-0.209,0.101-0.428c0.033-0.218,0.102-0.344,0.201-0.377
			c-0.067-0.27-0.101-0.437-0.101-0.504s0.042-0.219,0.126-0.453c0.084-0.235,0.143-0.403,0.177-0.504
			c0.033-0.102,0.058-0.234,0.075-0.403c0.017-0.168,0.042-0.302,0.076-0.403c0.2-0.402,0.302-0.637,0.302-0.705
			c-0.168-0.101-0.496-0.184-0.982-0.252c-0.486-0.066-0.813-0.167-0.981-0.302h-0.15c-0.202,0-0.337-0.033-0.403-0.101
			c-0.336,0-0.504-0.067-0.504-0.202h-0.302c-0.101-0.067-0.32-0.167-0.655-0.302c-0.336-0.135-0.57-0.251-0.705-0.354V27.9
			c0-0.102,0.018-0.218,0.052-0.354c0.031-0.134,0.05-0.218,0.05-0.252l0.907-0.705c0.065,0,0.167-0.042,0.302-0.126
			c0.134-0.083,0.269-0.126,0.403-0.126c0.032,0,0.058,0.018,0.074,0.051c0.018,0.033,0.06,0.05,0.126,0.05
			c0.772-0.167,1.227-0.252,1.36-0.252h0.151c0.335-0.234,0.771-0.354,1.31-0.354c0.101-0.066,0.268-0.101,0.503-0.101h0.354
			l0.654-0.151c0.067,0,0.135,0.009,0.201,0.025c0.067,0.018,0.134,0.024,0.202,0.024c0.033,0,0.083-0.008,0.15-0.024
			c0.066-0.018,0.117-0.025,0.15-0.025h0.403c0.369,0,0.654,0.019,0.855,0.051C71.545,25.6,71.713,25.583,71.948,25.583z"/>
	</g>
</g>
</svg>
