<?xml version="1.0" encoding="utf-8"?>
<!-- Generator: Adobe Illustrator 16.0.0, SVG Export Plug-In . SVG Version: 6.00 Build 0)  -->
<!DOCTYPE svg PUBLIC "-//W3C//DTD SVG 1.1//EN" "http://www.w3.org/Graphics/SVG/1.1/DTD/svg11.dtd">
<svg version="1.1" id="Layer_1" xmlns="http://www.w3.org/2000/svg" xmlns:xlink="http://www.w3.org/1999/xlink" x="0px" y="0px"
	 width="144.542px" height="84.611px" viewBox="0 0 144.542 84.611" enable-background="new 0 0 144.542 84.611"
	 xml:space="preserve">
<path fill="#998282" d="M145.334,50.31c0.142-2.078,0.263-4.128,0.263-6.448c0-2.193-0.134-4.047-0.134-5.804V38
	c0-0.269-0.071-0.554-0.1-0.821c-0.465-4.164-3.947-7.322-8.025-7.322h-3.384c-1.366,0-2.655,0.341-3.784,0.955
	c-1.158-0.616-2.456-0.955-3.792-0.955h-2.526c-1.683,0-3.2,0.395-4.491,1.072c-0.295-0.025-0.57-0.005-0.778-0.012
	c-1.787-0.052-7.759-0.061-9.452-0.061h-0.715c-1.18,0-2.28,0.188-3.293,0.559c-1.635-0.688-3.474-1.08-5.474-1.08
	c-2.262,0-4.393,0.583-6.278,1.61c-1.58-1.246-3.627-1.986-6.319-2.229c-0.215-0.02-0.432,0.14-0.648,0.14h-4.527
	c-1.157,0-2.598-0.174-4.191,0.027c-0.416,0.053-0.827,0.054-1.229,0.177c-0.515,0.158-1.257,0.391-2.04,0.896
	c-0.257-0.023-0.517-0.1-0.781-0.1h-3.098c-0.465,0-0.918,0.064-1.361,0.141c-1.239-0.867-2.728-1.37-4.313-1.459l-1-13.633
	c-0.156-3.687-2.605-7.771-7.022-8.366c-0.104-0.014-0.208-0.024-0.313-0.034l-1.977,0.102c-0.218-0.02-0.438,0.25-0.656,0.25h-0.24
	c-1.153,0-2.221-0.088-3.185,0.285c-1.091-0.359-2.394-0.719-3.938-0.73c-1.572-1.072-3.157-1.396-4.289-1.396
	c-2.594,0-4.38,0.842-5.589,1.842h-0.433c-3.403,0-6.302,2.145-7.416,5.131c-0.003-0.002-0.005-0.001-0.008-0.003l-0.109-0.911
	c-0.006-0.051-0.021-0.099-0.028-0.149c-0.018-0.2-0.036-0.4-0.069-0.601l-0.656-3.942C27.315,3.664,24.096,1,20.412,1
	c-0.29,0-0.583,0.017-0.878,0.051l-4.988,0.572c-0.037,0.004-2.222,0.287-2.222,0.287C10.268,2.176,8.41,3.267,7.174,4.931
	s-1.74,3.759-1.4,5.804l0.646,3.884c0.004,0.038,0.003,0.076,0.008,0.114l0.114,0.956C3.098,19.641,0.964,25.085,1,30.479
	c0.018,2.401,0.511,4.572,1.469,6.482l3.372,28.318c-0.171,2.033-0.185,4.151-0.036,6.187c0.975,13.125,9.522,14.146,12.119,14.146
	c0.525,0,1.063-0.034,1.602-0.103c0.938-0.109,1.829-0.311,2.668-0.602c0.275,0.011,0.554,0.017,0.834,0.017
	c0.974,0,2.012-0.067,3.015-0.191c1.399-0.16,2.682-0.406,3.866-0.744c0.385,0.037,0.774,0.057,1.169,0.057
	c0.508,0,1.028-0.032,1.55-0.095c3.226-0.362,6.021-1.729,7.877-4.168c0.71-0.932,1.25-1.926,1.661-2.926h1.452
	c1.908,0,3.614-0.824,4.957-1.944c1.394,0.724,3.083,0.944,5.048,0.944h0.905c0.095,0,0.19-0.008,0.285-0.012
	c0.425-0.018,2.468-0.17,4.442-1.474c0.348,0.151,0.709,0.279,1.084,0.387c1.458,0.42,2.792,0.42,3.433,0.42
	c0.588,0,1.14-0.032,1.657-0.091c1.271,0.867,2.797,1.377,4.44,1.377c0.349,0,0.696-0.024,1.041-0.075l2.911-0.423
	c0.738-0.101,1.436-0.24,2.087-0.506c0.801,0.236,1.566,0.396,2.202,0.396h3.336c1.199,0,2.402-0.316,3.496-0.836
	c1.516,0.711,2.917,0.755,3.414,0.755c0.354,0,0.708-0.039,1.058-0.091l0.186-0.027c1.55-0.169,2.848-0.479,3.937-0.878
	c1.861,0.935,4.031,1.448,6.446,1.448c2.645,0,4.957-0.359,6.895-1.363c1.393,1.143,3.183,1.992,5.159,1.992h3.193
	c3.062,0,5.61-1.896,6.95-4.494c1.231,2.629,3.844,4.494,7.677,4.494h0.417l0.269,0.053c0.382,0.02,0.812,0.058,1.221,0.058
	c4.898,0,7.477-2.387,8.571-4.396c0.578-1.063,1.129-2.243,1.129-3.453V68.45c0-1.854-0.323-3.657-0.395-5.4
	c-0.057-1.318-0.232-2.581-0.253-3.837C143.64,57.236,145.074,54.253,145.334,50.31z"/>
<g>
	<g>
		<g>
			<path fill="#FFFFFF" d="M16.925,84.611c-2.597,0-11.146-1.021-12.119-14.146c-0.148-2.035-0.135-4.153,0.036-6.187L1.469,35.961
				C0.511,34.051,0.019,31.88,0,29.479c-0.036-5.394,2.098-10.838,5.542-14.79l-0.113-0.956C5.19,11.72,5.761,9.696,7.016,8.105
				c0.472-0.598,1.025-1.116,1.639-1.542c1.105-0.94,2.491-1.577,4.04-1.762l5.839-0.694c0.3-0.035,0.6-0.053,0.898-0.053
				c1.186,0,2.353,0.276,3.409,0.804c2.556,0.981,4.497,3.309,4.847,6.216l0.11,0.912c4.303,3.028,7.675,7.834,8.914,13.115
				c0.637,2.703,0.494,4.984,0.062,6.782l3.33,27.948c0.688,2.027,1.226,4.17,1.566,6.25c0.883,5.352,0.176,9.453-2.164,12.527
				c-1.856,2.439-4.651,3.979-7.877,4.341c-0.521,0.063-1.042,0.095-1.55,0.095c-0.395,0-0.785-0.02-1.169-0.057
				c-1.184,0.338-2.466,0.584-3.866,0.744c-1.003,0.124-2.042,0.191-3.015,0.191c-0.281,0-0.559-0.006-0.834-0.017
				c-0.839,0.291-1.729,0.492-2.668,0.602C17.988,84.577,17.45,84.611,16.925,84.611z"/>
			<path fill="#FFFFFF" d="M12.952,20.058c-3.7,0-6.929-2.687-7.529-6.426L4.791,9.689c-0.327-2.04,0.187-4.126,1.425-5.781
				c1.237-1.655,3.093-2.737,5.143-3l2.135-0.273l5.06-0.584C18.85,0.017,19.145,0,19.436,0c3.701,0,6.93,2.688,7.529,6.426
				l0.632,3.942c0.329,2.052-0.192,4.148-1.444,5.808c-1.251,1.658-3.125,2.735-5.188,2.981l-7.106,0.847
				C13.555,20.04,13.251,20.058,12.952,20.058z"/>
		</g>
		<g>
			<path fill="#FFFFFF" d="M34.135,67.314c-0.322-1.971-0.862-3.973-1.513-5.74l-3.63-30.465c0.559-1.15,0.688-2.56,0.286-4.266
				c-1.072-4.575-5.01-9.108-9.265-10.257l-0.278-2.342l0.635-0.075l-0.053-0.444l-0.138-1.146l-0.071-0.591l-0.634,0.075
				l-0.044-0.375l-2.982,0.354l0,0l-2.852,0.34l0.044,0.377l-0.632,0.074l0.07,0.593l0.136,1.146l0.054,0.444l0.632-0.075
				l0.281,2.366c-3.84,2.133-6.579,7.433-6.548,12.115c0.013,1.71,0.446,3.014,1.221,4.001l3.664,30.769
				c-0.197,1.803-0.24,3.796-0.101,5.71c0.431,5.804,2.522,7.382,5.187,7.029c0.848-0.094,1.593-0.355,2.184-0.858
				c1.284,0.277,2.77,0.275,4.39,0.075c1.619-0.185,3.062-0.531,4.244-1.104c0.69,0.349,1.479,0.43,2.322,0.323
				C33.426,75.082,35.083,73.058,34.135,67.314z"/>
			<polygon fill="#FFFFFF" points="12.96,12.423 15.259,12.149 15.259,12.15 20.06,11.577 19.428,7.635 14.463,8.205 14.463,8.207 
				12.328,8.48 			"/>
		</g>
		<g>
			<path fill="#FFFFFF" d="M34.135,67.314c-0.322-1.971-0.862-3.973-1.513-5.74l-3.63-30.465c0.559-1.15,0.688-2.56,0.286-4.266
				c-1.072-4.575-5.01-9.108-9.265-10.257l-0.278-2.342l0.635-0.075l-0.053-0.444l-0.138-1.146l-0.071-0.591l-0.634,0.075
				l-0.044-0.375l-2.982,0.354l0,0l-2.852,0.34l0.044,0.377l-0.632,0.074l0.07,0.593l0.136,1.146l0.054,0.444l0.632-0.075
				l0.281,2.366c-3.84,2.133-6.579,7.433-6.548,12.115c0.013,1.71,0.446,3.014,1.221,4.001l3.664,30.769
				c-0.197,1.803-0.24,3.796-0.101,5.71c0.431,5.804,2.522,7.382,5.187,7.029c0.848-0.094,1.593-0.355,2.184-0.858
				c1.284,0.277,2.77,0.275,4.39,0.075c1.619-0.185,3.062-0.531,4.244-1.104c0.69,0.349,1.479,0.43,2.322,0.323
				C33.426,75.082,35.083,73.058,34.135,67.314z"/>
			<polygon fill="#FFFFFF" points="12.96,12.423 15.259,12.149 15.259,12.15 20.06,11.577 19.428,7.635 14.463,8.205 14.463,8.207 
				12.328,8.48 			"/>
		</g>
	</g>
	<g>
		<g>
			<g>
				<path fill="#FFFFFF" d="M39.424,75.512c-4.546,0-8.108-3.583-8.108-8.157c0-3.914,0.012-7.829,0.024-11.744
					c0.007-2.43,0.015-4.86,0.02-7.29c-2.523-1.185-4.523-3.725-4.523-7.794v-0.429c0-9.804,7.469-10.301,8.966-10.301h0.715
					c1.693,0,7.666,0.047,9.452,0.099l0,0c0.546,0.018,1.489,0.096,2.287,0.233c3.347,0.536,6.757,3.391,6.757,8.682
					c0,0.37-0.021,0.739-0.048,1.078v0.542c0,3.467-1.771,6.41-4.42,7.876l0.035,18.605c0,4.908-3.424,8.6-7.964,8.6H39.424z"/>
				<path fill="#FFFFFF" d="M52.623,74.844c-5.917,0-9.394-3.431-9.537-9.413l-0.856-29.123c-0.002-0.071-0.003-0.142-0.003-0.213
					c0-4.55,3.702-8.252,8.251-8.252h3.145c1.372,0,2.818,0.359,4.103,1.104c0.83-0.286,1.726-0.438,2.664-0.438h3.003
					c3.57,0,6.716,2.24,7.83,5.573c0.248,0.741,0.374,1.517,0.374,2.298v0.476c0,0.754,0.05,1.6,0.126,2.88
					c0.206,3.474,0.588,9.939,0.588,26.094c0,0.341-0.108,8.347-9.538,8.347c-1.798,0-3.28-0.311-4.496-0.822
					c-1.981,1.316-4.036,1.467-4.463,1.483c-0.095,0.004-0.19,0.006-0.285,0.006H52.623z"/>
				<path fill="#FFFFFF" d="M68.87,75.464c-4.279,0-7.781-3.433-7.958-7.72c-0.172-2.711-0.245-4.9-0.245-7.299
					c0-3.485,0.155-7.734,0.388-13.041l0.099-2.011c0.115-2.361,0.243-4.977,0.426-7.931c0.184-4.205,3.683-7.571,7.958-7.571h3.098
					c4.568,0,8.013,3.568,8.013,8.3c0,0.057-0.668,28.516-0.668,28.516c-0.051,4.313-2.974,7.688-7.157,8.259l-2.911,0.423
					C69.566,75.438,69.218,75.464,68.87,75.464z"/>
				<path fill="#FFFFFF" d="M87.357,74.749c-0.497,0-1.898-0.072-3.415-0.783c-1.094,0.52-2.297,0.783-3.496,0.783h-3.336
					c-2.804,0-8.108-1.914-8.108-9.157c0-0.053,0.621-28.464,0.621-28.464c0.003-0.167,0.013-0.334,0.028-0.501
					c0.495-5.451,4.224-7.167,5.804-7.652c0.401-0.124,0.812-0.212,1.228-0.265c1.594-0.2,3.034-0.2,4.191-0.2h4.527
					c0.217,0,0.433,0.01,0.649,0.029c3.101,0.279,10.421,2.126,11.432,13.236c0.02,0.219,0.03,0.438,0.03,0.657
					c0,5.152-0.123,7.462-0.227,8.492c-0.031,0.308-0.082,0.613-0.151,0.914c-0.347,1.494-0.892,2.718-1.51,3.716
					c1.587,4.155,2.364,7.747,2.364,10.895c0,2.68-1.22,7.309-9.391,8.201l-0.185,0.021C88.065,74.723,87.711,74.749,87.357,74.749z
					"/>
				<path fill="#FFFFFF" d="M98.983,75.226c-8.014,0-13.398-5.576-13.398-13.875v-1.763c0-0.191,0.008-1.905,0.303-3.107
					c0.345-1.372,0.999-2.584,1.869-3.561c-1.55-2.09-2.887-4.955-2.887-9.011c0-8.044,6.181-14.589,13.779-14.589
					c7.72,0,13.112,5.529,13.112,13.445c0,3.333-0.948,5.539-2.199,7c1.328,2.396,2.469,5.351,3.023,9.025
					c0.054,0.358,0.081,0.72,0.081,1.082v0.524C112.666,69.682,107.551,75.226,98.983,75.226z"/>
				<path fill="#FFFFFF" d="M111.037,75.512c-4.546,0-8.108-3.583-8.108-8.157c0-3.914,0.012-7.829,0.024-11.744
					c0.007-2.43,0.015-4.86,0.02-7.29c-2.523-1.185-4.523-3.725-4.523-7.794v-0.429c0-9.804,7.469-10.301,8.966-10.301h0.715
					c1.693,0,7.666,0.047,9.452,0.099l0,0c0.546,0.018,1.489,0.096,2.287,0.233c3.347,0.536,6.757,3.391,6.757,8.682
					c0,0.37-0.021,0.739-0.048,1.078v0.542c0,3.467-1.771,6.41-4.42,7.876l0.036,18.605c0,4.908-3.424,8.6-7.965,8.6H111.037z"/>
				<path fill="#FFFFFF" d="M130.763,75.988c-0.409,0-0.839-0.019-1.221-0.037l-0.269-0.012l-0.417,0.001
					c-5.294,0-8.273-3.959-8.479-7.869c-0.003-0.058-0.244-8.306-0.244-8.306c-6.295-3.663-6.295-11.969-6.295-14.808
					c0-0.766,0.014-1.502,0.028-2.186c0.01-0.501,0.02-0.968,0.02-1.389V37.81c0-5.25,3.687-8.918,8.965-8.918h2.526
					c1.35,0,2.66,0.346,3.827,0.974c1.327-0.708,2.71-0.974,3.749-0.974h3.384c4.078,0,7.503,3.141,7.968,7.304
					c0.03,0.268,0.045,0.536,0.045,0.805v0.058c0.13,1.757,0.19,3.61,0.19,5.804c0,2.32-0.066,4.37-0.207,6.448
					c-0.261,3.943-1.819,6.927-4.644,8.903c0.021,1.256,0.073,2.519,0.128,3.837c0.073,1.743,0.147,3.546,0.147,5.4v0.667
					c0,1.21-0.303,2.4-0.881,3.464C137.993,73.591,135.662,75.988,130.763,75.988z"/>
			</g>
			<g>
				<path fill="#FFFFFF" d="M34.682,40.118c-4.196,0-7.61-3.549-7.61-7.91c0-3.81,0.067-6.91,0.132-9.908
					c0.056-2.581,0.108-5.02,0.108-7.614c0-4.312,3.548-7.82,7.909-7.82h1.768c3.892,0,8.029,2.962,8.029,8.449
					c0,0.272-0.012,0.562-0.027,0.832l-0.002-0.054c0,1.446-0.103,6.354-0.194,10.683c-0.051,2.429-0.095,4.532-0.106,5.352
					c0,5.188-3.874,7.991-7.52,7.991H34.682z"/>
				<path fill="#FFFFFF" d="M40.32,26.218c-4.735-0.076-7.382-3.279-7.908-6.453c-0.105-0.637-0.125-1.285-0.06-1.928
					c0.153-1.49,0.232-2.609,0.292-3.45c0.132-1.866,0.237-3.341,1.015-4.951c0.652-1.349,2.697-4.487,7.583-4.487
					c1.303,0,3.206,0.33,5,1.864c1.675,1.307,2.7,3.29,2.785,5.431l0.239,6.081c0.003,0.095,0.005,0.19,0.005,0.285
					c0,3.75-2.804,7.64-8,7.64C41.181,26.249,40.32,26.218,40.32,26.218z"/>
				<path fill="#FFFFFF" d="M43.103,40.477c-3.574,0-7.463-2.814-7.463-8.029c0-0.259,0.014-0.517,0.042-0.772l0.286-6.734
					c0.236-5.592,0.355-8.397,0.467-10.035c0.133-1.947,0.411-6,4.558-7.912l0.023,0.051c1.134-0.479,2.571-0.777,4.391-0.777
					c1.602,0,2.943,0.226,4.063,0.594c0.964-0.372,2.031-0.564,3.185-0.564h0.24c0.219,0,0.438,0.011,0.656,0.03l1.977,0.18
					c0.104,0.01,0.208,0.021,0.313,0.035c4.417,0.596,6.867,4.683,7.023,8.369l1.187,16.198c0.013,0.177,0.02,0.354,0.02,0.53v0.809
					c0,0.403-0.034,0.807-0.101,1.205c-0.61,3.617-3.89,6.346-7.629,6.346h-2.157c-0.203,0-0.406-0.009-0.608-0.026
					c-1.226-0.103-2.359-0.479-3.346-1.075c-1.366,1.093-3.019,1.61-4.582,1.61C45.617,40.507,43.103,40.477,43.103,40.477z"/>
			</g>
		</g>
		<g>
			<g>
				<path fill="#202933" d="M38.615,43.909v-1.286c0-0.096-0.238-0.811-0.524-0.811l-3.146,0.048c-0.857,0-0.857-0.524-0.857-1.334
					v-0.429c0-1.906,0.048-3.05,1.716-3.05h0.715c1.715,0,7.576,0.047,9.244,0.095c0.238,0,1.144,0.096,1.334,0.144
					c0.524,0.047,0.668,0.81,0.668,1.524c0,0.334-0.048,0.667-0.048,0.905v0.715c0,0.858-0.429,1.62-1.049,1.62l-3.383,0.191
					l0.047,24.684c0,0.524-0.143,1.335-0.714,1.335h-3.193c-0.429,0-0.857-0.286-0.857-0.906
					C38.567,59.54,38.615,51.725,38.615,43.909z"/>
				<path fill="#202933" d="M60.247,58.729c-0.048-0.715-0.143-2.383-0.143-2.383l-0.382-0.429h-3.288c-0.381,0-0.715,0-0.953,0.048
					c-0.429,0.143-0.523,0.429-0.523,0.857c0,2.145,0.095,5.719,0.095,7.529c0,1.858-0.333,3.193-1.524,3.24h-0.905
					c-2.05,0-2.24-0.333-2.288-2.335l-0.857-29.163c0-0.524,0.429-1.001,1.001-1.001h3.145c0.667,0,0.811,0.572,0.858,1.096
					c0.19,5.1,0.143,9.722,0.477,14.772h4.86c-0.19-6.1-0.334-9.149-0.334-11.484c0-3.383,0.238-3.717,0.905-3.717h3.003
					c0.429,0,0.81,0.19,0.953,0.62v0.476c0,3.432,0.714,6.768,0.714,28.974c0,1.096-1.334,1.096-2.287,1.096
					c-0.763,0-2.287,0-2.287-1.096L60.247,58.729z"/>
				<path fill="#202933" d="M67.917,60.445c0-3.288,0.143-7.291,0.381-12.724c0.144-2.859,0.286-6.1,0.524-9.912
					c0-0.333,0.334-0.667,0.715-0.667h3.098c0.619,0,0.763,0.524,0.763,1.049l-0.668,28.401c0,0.571-0.143,1.096-0.905,1.191
					l-2.954,0.429c-0.429,0-0.715-0.429-0.715-0.811C68.011,65.163,67.917,63.019,67.917,60.445z"/>
				<path fill="#202933" d="M76.873,37.286c0.048-0.524,0.096-1.191,0.715-1.382c1.144-0.144,2.24-0.144,3.288-0.144h4.527
					c3.717,0.334,4.574,3.526,4.86,6.672c0,5.433-0.143,7.291-0.19,7.768c-0.619,2.668-2.383,2.906-3.002,3.717
					c0,0.048,0,0.143,0.048,0.19c1.238,2.621,3.621,8.054,3.621,12.342c0,0.811-2.812,0.953-3.383,1.049
					c-0.763,0-0.858-1.144-1.001-1.764c0-1.905-2.097-10.388-4.193-10.388c-0.334,0-0.905,0.047-1.001,0.429v5.194
					c0,1.858-0.048,3.669-0.048,5.527c0,0.572-0.048,1.001-0.667,1.001h-3.336c-0.857,0-0.857-1.239-0.857-1.906L76.873,37.286z
					 M81.542,50.391c0,0.619,0.62,0.81,1.191,0.81c1.287,0,2.145-0.19,2.479-1.524c0.19-2.002,0.19-3.24,0.19-5.146v-2.335
					c-0.238-1.001-0.953-1.525-1.954-1.525c-1.048,0-1.668,0.382-1.763,1.43L81.542,50.391z"/>
				<path fill="#202933" d="M92.835,59.588c0-0.238,0.048-1.191,0.095-1.383c0.048-0.19,0.238-0.619,0.477-0.619h0.811
					c0.572,0,1.144,0,1.954,0.048c1.811,0.286,0,6.004,2.335,6.242c0.333,0.048,0.667,0.048,0.953,0.048
					c1.382,0,1.524-0.524,1.524-1.716v-1.096c0-0.333-0.048-0.619-0.095-1.001c-1.43-9.959-8.769-8.72-8.769-16.202
					c0-3.717,2.764-7.338,6.528-7.338c4.956,0,5.861,3.955,5.861,6.194c0,1.191,0,2.526-1.239,2.621
					c-0.143,0-1.191,0.144-1.715,0.144h-0.238c-0.144,0-0.811-0.144-0.811-0.382c-0.238-3.383-1.048-3.813-1.62-3.813
					c-1.524,0-2.383,1.049-2.383,2.621c0,3.288,7.387,5.813,8.911,15.916v0.524c0,5.575-2.287,7.577-6.433,7.577
					c-3.67,0-6.147-2.049-6.147-6.624V59.588z"/>
				<path fill="#202933" d="M110.227,43.909v-1.286c0-0.096-0.238-0.811-0.524-0.811l-3.146,0.048c-0.857,0-0.857-0.524-0.857-1.334
					v-0.429c0-1.906,0.048-3.05,1.716-3.05h0.715c1.715,0,7.576,0.047,9.244,0.095c0.238,0,1.144,0.096,1.334,0.144
					c0.524,0.047,0.668,0.81,0.668,1.524c0,0.334-0.048,0.667-0.048,0.905v0.715c0,0.858-0.429,1.62-1.049,1.62l-3.383,0.191
					l0.048,24.684c0,0.524-0.144,1.335-0.715,1.335h-3.193c-0.429,0-0.857-0.286-0.857-0.906
					C110.179,59.54,110.227,51.725,110.227,43.909z"/>
				<path fill="#202933" d="M121.137,37.81c0-1.524,0.81-1.667,1.715-1.667h2.526c0.333,0,0.667,0.238,0.857,0.571v0.953
					c0,2.049-0.238,4.051-0.238,6.147v1.382c0,1.62,0.096,4.432,1.668,4.432c1.286,0,2.668-0.238,3.955-0.286
					c0.381-0.143,0.619-0.619,0.619-3.336c0-2.62-0.095-5.193-0.095-7.767v-0.191c0-0.81,0-1.905,0.81-1.905h3.384
					c0.429,0,0.715,0.429,0.763,0.857v0.333c0.143,1.812,0.19,3.622,0.19,5.528s-0.048,3.859-0.19,5.957
					c-0.334,5.051-4.241,3.573-4.67,5.337v2.954c0,3.526,0.285,6.91,0.285,10.341v0.667c-0.285,0.524-1.096,0.62-1.953,0.62
					c-0.524,0-1.097-0.048-1.43-0.048h-0.477c-0.62,0-1.191-0.096-1.239-1.001l-0.381-13.104c-0.048-0.715-2.383-0.619-3.003-0.857
					c-2.764-1.191-3.145-5.242-3.145-8.769c0-1.334,0.048-2.573,0.048-3.574V37.81z"/>
			</g>
			<g>
				<path fill="#202933" d="M34.563,14.686c0-0.359,0.359-0.569,0.658-0.569h1.768c0.659,0,0.778,0.569,0.778,1.198
					c0,0.27-0.029,0.569-0.029,0.778c0,2.187-0.27,13.719-0.3,15.936c0,0,0,0.029,0,0.09c0,0.239-0.03,0.749-0.27,0.749h-2.486
					c-0.239,0-0.359-0.45-0.359-0.659C34.323,25.139,34.563,20.347,34.563,14.686z"/>
				<path fill="#202933" d="M40.494,18.969c-0.419,0-0.869-0.03-0.929-0.39c0.629-6.11,0.09-6.38,1.678-6.38
					c0.239,0,0.27,0.149,0.539,0.329l0.239,6.081v0.09c0,0.27-0.419,0.299-0.749,0.299L40.494,18.969z"/>
				<path fill="#202933" d="M42.92,32.088c0.749-17.433,0.719-18.331,1.108-18.511c-0.061,0,0.778-0.06,1.378-0.06
					c0.988,0,2.396,0.149,2.575,0.838l1.827,6.59c1.768-7.398,1.827-7.398,2.846-7.398h0.24l1.977,0.18
					c0.449,0.061,0.749,1.229,0.749,1.558l1.198,16.354v0.809c-0.03,0.18-0.33,0.3-0.479,0.3h-2.157
					c-0.359-0.03-0.479-0.39-0.509-0.719c-0.18-3.415-0.12-0.929-0.749-12.431c-1.647,5.631-2.396,7.068-3.025,7.068
					c-0.419,0-0.778-0.029-0.928-0.149c-0.869-0.629-0.39-1.168-2.696-7.249c-0.06,0.63-0.06,2.906-0.06,5.452
					c0,3.953-0.03,8.536-0.569,8.536l-2.456-0.029c-0.3,0-0.3-0.479-0.3-0.779C42.92,32.388,42.92,32.088,42.92,32.088z"/>
			</g>
		</g>
		<g>
			<g>
				<path fill="#0077C7" d="M38.615,43.909v-1.286c0-0.096-0.238-0.811-0.524-0.811l-3.146,0.048c-0.857,0-0.857-0.524-0.857-1.334
					v-0.429c0-1.906,0.048-3.05,1.716-3.05h0.715c1.715,0,7.576,0.047,9.244,0.095c0.238,0,1.144,0.096,1.334,0.144
					c0.524,0.047,0.668,0.81,0.668,1.524c0,0.334-0.048,0.667-0.048,0.905v0.715c0,0.858-0.429,1.62-1.049,1.62l-3.383,0.191
					l0.047,24.684c0,0.524-0.143,1.335-0.714,1.335h-3.193c-0.429,0-0.857-0.286-0.857-0.906
					C38.567,59.54,38.615,51.725,38.615,43.909z"/>
				<path fill="#0077C7" d="M60.247,58.729c-0.048-0.715-0.143-2.383-0.143-2.383l-0.382-0.429h-3.288c-0.381,0-0.715,0-0.953,0.048
					c-0.429,0.143-0.523,0.429-0.523,0.857c0,2.145,0.095,5.719,0.095,7.529c0,1.858-0.333,3.193-1.524,3.24h-0.905
					c-2.05,0-2.24-0.333-2.288-2.335l-0.857-29.163c0-0.524,0.429-1.001,1.001-1.001h3.145c0.667,0,0.811,0.572,0.858,1.096
					c0.19,5.1,0.143,9.722,0.477,14.772h4.86c-0.19-6.1-0.334-9.149-0.334-11.484c0-3.383,0.238-3.717,0.905-3.717h3.003
					c0.429,0,0.81,0.19,0.953,0.62v0.476c0,3.432,0.714,6.768,0.714,28.974c0,1.096-1.334,1.096-2.287,1.096
					c-0.763,0-2.287,0-2.287-1.096L60.247,58.729z"/>
				<path fill="#0077C7" d="M67.917,60.445c0-3.288,0.143-7.291,0.381-12.724c0.144-2.859,0.286-6.1,0.524-9.912
					c0-0.333,0.334-0.667,0.715-0.667h3.098c0.619,0,0.763,0.524,0.763,1.049l-0.668,28.401c0,0.571-0.143,1.096-0.905,1.191
					l-2.954,0.429c-0.429,0-0.715-0.429-0.715-0.811C68.011,65.163,67.917,63.019,67.917,60.445z"/>
				<path fill="#0077C7" d="M76.873,37.286c0.048-0.524,0.096-1.191,0.715-1.382c1.144-0.144,2.24-0.144,3.288-0.144h4.527
					c3.717,0.334,4.574,3.526,4.86,6.672c0,5.433-0.143,7.291-0.19,7.768c-0.619,2.668-2.383,2.906-3.002,3.717
					c0,0.048,0,0.143,0.048,0.19c1.238,2.621,3.621,8.054,3.621,12.342c0,0.811-2.812,0.953-3.383,1.049
					c-0.763,0-0.858-1.144-1.001-1.764c0-1.905-2.097-10.388-4.193-10.388c-0.334,0-0.905,0.047-1.001,0.429v5.194
					c0,1.858-0.048,3.669-0.048,5.527c0,0.572-0.048,1.001-0.667,1.001h-3.336c-0.857,0-0.857-1.239-0.857-1.906L76.873,37.286z
					 M81.542,50.391c0,0.619,0.62,0.81,1.191,0.81c1.287,0,2.145-0.19,2.479-1.524c0.19-2.002,0.19-3.24,0.19-5.146v-2.335
					c-0.238-1.001-0.953-1.525-1.954-1.525c-1.048,0-1.668,0.382-1.763,1.43L81.542,50.391z"/>
				<path fill="#0077C7" d="M92.835,59.588c0-0.238,0.048-1.191,0.095-1.383c0.048-0.19,0.238-0.619,0.477-0.619h0.811
					c0.572,0,1.144,0,1.954,0.048c1.811,0.286,0,6.004,2.335,6.242c0.333,0.048,0.667,0.048,0.953,0.048
					c1.382,0,1.524-0.524,1.524-1.716v-1.096c0-0.333-0.048-0.619-0.095-1.001c-1.43-9.959-8.769-8.72-8.769-16.202
					c0-3.717,2.764-7.338,6.528-7.338c4.956,0,5.861,3.955,5.861,6.194c0,1.191,0,2.526-1.239,2.621
					c-0.143,0-1.191,0.144-1.715,0.144h-0.238c-0.144,0-0.811-0.144-0.811-0.382c-0.238-3.383-1.048-3.813-1.62-3.813
					c-1.524,0-2.383,1.049-2.383,2.621c0,3.288,7.387,5.813,8.911,15.916v0.524c0,5.575-2.287,7.577-6.433,7.577
					c-3.67,0-6.147-2.049-6.147-6.624V59.588z"/>
				<path fill="#0077C7" d="M110.227,43.909v-1.286c0-0.096-0.238-0.811-0.524-0.811l-3.146,0.048c-0.857,0-0.857-0.524-0.857-1.334
					v-0.429c0-1.906,0.048-3.05,1.716-3.05h0.715c1.715,0,7.576,0.047,9.244,0.095c0.238,0,1.144,0.096,1.334,0.144
					c0.524,0.047,0.668,0.81,0.668,1.524c0,0.334-0.048,0.667-0.048,0.905v0.715c0,0.858-0.429,1.62-1.049,1.62l-3.383,0.191
					l0.048,24.684c0,0.524-0.144,1.335-0.715,1.335h-3.193c-0.429,0-0.857-0.286-0.857-0.906
					C110.179,59.54,110.227,51.725,110.227,43.909z"/>
				<path fill="#0077C7" d="M121.137,37.81c0-1.524,0.81-1.667,1.715-1.667h2.526c0.333,0,0.667,0.238,0.857,0.571v0.953
					c0,2.049-0.238,4.051-0.238,6.147v1.382c0,1.62,0.096,4.432,1.668,4.432c1.286,0,2.668-0.238,3.955-0.286
					c0.381-0.143,0.619-0.619,0.619-3.336c0-2.62-0.095-5.193-0.095-7.767v-0.191c0-0.81,0-1.905,0.81-1.905h3.384
					c0.429,0,0.715,0.429,0.763,0.857v0.333c0.143,1.812,0.19,3.622,0.19,5.528s-0.048,3.859-0.19,5.957
					c-0.334,5.051-4.241,3.573-4.67,5.337v2.954c0,3.526,0.285,6.91,0.285,10.341v0.667c-0.285,0.524-1.096,0.62-1.953,0.62
					c-0.524,0-1.097-0.048-1.43-0.048h-0.477c-0.62,0-1.191-0.096-1.239-1.001l-0.381-13.104c-0.048-0.715-2.383-0.619-3.003-0.857
					c-2.764-1.191-3.145-5.242-3.145-8.769c0-1.334,0.048-2.573,0.048-3.574V37.81z"/>
			</g>
			<g>
				<path fill="#0077C7" d="M34.563,14.686c0-0.359,0.359-0.569,0.658-0.569h1.768c0.659,0,0.778,0.569,0.778,1.198
					c0,0.27-0.029,0.569-0.029,0.778c0,2.187-0.27,13.719-0.3,15.936c0,0,0,0.029,0,0.09c0,0.239-0.03,0.749-0.27,0.749h-2.486
					c-0.239,0-0.359-0.45-0.359-0.659C34.323,25.139,34.563,20.347,34.563,14.686z"/>
				<path fill="#0077C7" d="M40.494,18.969c-0.419,0-0.869-0.03-0.929-0.39c0.629-6.11,0.09-6.38,1.678-6.38
					c0.239,0,0.27,0.149,0.539,0.329l0.239,6.081v0.09c0,0.27-0.419,0.299-0.749,0.299L40.494,18.969z"/>
				<path fill="#0077C7" d="M42.92,32.088c0.749-17.433,0.719-18.331,1.108-18.511c-0.061,0,0.778-0.06,1.378-0.06
					c0.988,0,2.396,0.149,2.575,0.838l1.827,6.59c1.768-7.398,1.827-7.398,2.846-7.398h0.24l1.977,0.18
					c0.449,0.061,0.749,1.229,0.749,1.558l1.198,16.354v0.809c-0.03,0.18-0.33,0.3-0.479,0.3h-2.157
					c-0.359-0.03-0.479-0.39-0.509-0.719c-0.18-3.415-0.12-0.929-0.749-12.431c-1.647,5.631-2.396,7.068-3.025,7.068
					c-0.419,0-0.778-0.029-0.928-0.149c-0.869-0.629-0.39-1.168-2.696-7.249c-0.06,0.63-0.06,2.906-0.06,5.452
					c0,3.953-0.03,8.536-0.569,8.536l-2.456-0.029c-0.3,0-0.3-0.479-0.3-0.779C42.92,32.388,42.92,32.088,42.92,32.088z"/>
			</g>
		</g>
	</g>
	<g>
		<g>
			<g>
				<path fill="#8AD6FF" d="M33.044,67.314c-0.322-1.971-0.861-3.973-1.513-5.74l-3.63-30.465c0.559-1.15,0.689-2.56,0.286-4.266
					c-1.071-4.575-5.011-9.108-9.266-10.257l-0.277-2.342l0.635-0.075l-0.054-0.444l-0.137-1.146l-0.07-0.591l-0.635,0.075
					l-0.043-0.375l-5.835,0.693l0.044,0.377l-0.632,0.074l0.07,0.593l0.136,1.146l0.054,0.444l0.633-0.075l0.281,2.366
					c-3.84,2.133-6.579,7.433-6.548,12.115c0.012,1.71,0.445,3.014,1.22,4.001l3.665,30.769c-0.197,1.803-0.241,3.796-0.102,5.71
					c0.432,5.804,2.523,7.382,5.188,7.029c0.847-0.094,1.592-0.355,2.183-0.858c1.285,0.277,2.769,0.275,4.391,0.075
					c1.618-0.185,3.061-0.531,4.242-1.104c0.692,0.349,1.479,0.43,2.323,0.323C32.334,75.082,33.993,73.058,33.044,67.314z"/>
				<path fill="#61CDFF" d="M28.188,26.844c-1.071-4.575-5.011-9.108-9.266-10.257l-0.277-2.342l0.635-0.075l-0.054-0.444
					l-0.137-1.146l-0.07-0.591l-0.635,0.075l-0.043-0.375l-2.984,0.354l7.635,64.111c0.035-0.005,0.063-0.001,0.097-0.006
					c1.618-0.185,3.061-0.531,4.242-1.104c0.692,0.349,1.479,0.43,2.323,0.323c2.681-0.285,4.339-2.31,3.391-8.053
					c-0.322-1.971-0.861-3.973-1.513-5.74l-3.63-30.465C28.46,29.959,28.591,28.55,28.188,26.844z"/>
				
					<rect x="11.61" y="8.044" transform="matrix(0.993 -0.1183 0.1183 0.993 -1.0798 1.8667)" fill="#06B5FF" width="7.149" height="3.97"/>
				
					<rect x="13.917" y="7.906" transform="matrix(0.993 -0.118 0.118 0.993 -1.0529 1.996)" fill="#0077C7" width="4.835" height="3.973"/>
				<path fill="#FFFFFF" d="M8.013,29.247c-0.028-3.624,1.616-7.619,4.133-10.232c-1.634,2.83-2.598,6.414-2.525,9.749
					c0.036,1.406,0.281,2.576,0.696,3.56c-0.024,0.003-0.052,0.006-0.076,0.008c-0.507,0.072-1.006,0.112-1.489,0.15
					C8.285,31.602,8.021,30.549,8.013,29.247z"/>
				<path fill="#FFFFFF" d="M12.836,69.737c-0.116-1.494-0.092-3.04,0.033-4.483l1.089-0.129c-0.126,1.514-0.152,3.14-0.027,4.712
					c0.279,3.749,1.301,5.535,2.729,6.141C14.669,75.897,13.175,74.303,12.836,69.737z"/>
				<path fill="#FFFFFF" d="M30.047,62.591l-16.946,2.019c-0.213,0.025-0.41-0.126-0.434-0.34c-0.026-0.214,0.128-0.409,0.341-0.434
					l16.947-2.018c0.214-0.026,0.407,0.126,0.433,0.343C30.413,62.371,30.262,62.565,30.047,62.591z"/>
				
					<rect x="-1.109" y="46.753" transform="matrix(0.1183 0.993 -0.993 0.1183 59.51 29.9878)" fill="#FFFFFF" width="27.957" height="3.5"/>
				<path fill="#FFFFFF" d="M26.392,31.898L9.445,33.916c-0.212,0.025-0.408-0.126-0.434-0.347
					c-0.025-0.207,0.128-0.411,0.341-0.437l16.946-2.017c0.215-0.025,0.41,0.136,0.435,0.343
					C26.758,31.679,26.605,31.873,26.392,31.898z"/>
			</g>
		</g>
	</g>
</g>
</svg>
