<?xml version="1.0" encoding="utf-8"?>
<!-- Generator: Adobe Illustrator 16.0.0, SVG Export Plug-In . SVG Version: 6.00 Build 0)  -->
<!DOCTYPE svg PUBLIC "-//W3C//DTD SVG 1.1//EN" "http://www.w3.org/Graphics/SVG/1.1/DTD/svg11.dtd">
<svg version="1.1" id="Layer_1" xmlns="http://www.w3.org/2000/svg" xmlns:xlink="http://www.w3.org/1999/xlink" x="0px" y="0px"
	 width="101.133px" height="126.072px" viewBox="0 0 101.133 126.072" enable-background="new 0 0 101.133 126.072"
	 xml:space="preserve">
<g id="Layer_2">
</g>
<g>
	<path fill="#FFFFFF" d="M65.545,56.958c-1.771-9.604-4.38-12.139-12.62-16.521c-6.228-3.313-13.003-6.326-20.231-5.845
		c-4.095,0.273-8.604-0.539-12.324,1.001c-3.655,1.512-3.591,4.583-6.496,6.456l0.724,0.449c-0.744,0.47-0.449,7.149-1.597,9.6
		c-1.458,3.114-5.119,5.782-6.811,9.144C2.389,68.787,4.313,79.667,0,86.021c8.008,6.766,10.251,14.465,15.552,23.246
		c5.826,9.647,16.557,15.192,27.659,16.55c30.342,3.704,22.713-33.838,28.071-50.836C68.814,71.149,66.258,60.806,65.545,56.958z"/>
	<g>
		<path fill="#77111A" d="M43.95,62.143c0,0,12.758,10.044,10.54,28.264c-2.219,18.22-26.893,13.996-26.893,13.996L11.424,84.447
			c0,0,11.769-22.255,12.928-22.346C25.513,62.01,43.95,62.143,43.95,62.143z"/>
		<path fill="#231F20" d="M44.534,62.433c0,0,9.005,6.213,10.899,21.791c-4.008-3.08-18.823-13.357-29.81-8.684
			c-12.195-0.041-10.542,9.873-12.244,5.24c-1.701-4.634,8.726-14.886,14.142-16.154C32.938,63.359,44.534,62.433,44.534,62.433z"/>
		<path fill="#FFFFFF" d="M55.436,84.224c0,0-0.225,32.563-35.142,8.229c-8.952-3.255,8.311,11.77,8.311,11.77
			s21.996,1.506,22.915,0.673c0.918-0.831,4.625-10.728,4.625-10.728L55.436,84.224z"/>
		<path fill="#FFFFFF" d="M53.723,70.014c0,0-4.716-16.04-39.035,4.065c-6.954-0.294,14.354-15.479,14.354-15.479l21.299-0.898
			l4.763,9.021L53.723,70.014z"/>
		<g>
			<path fill="#BE1E2D" d="M50.207,52.781c-3.502-2.657-9.604-4.699-12.141-2.053c-2.225,2.318-4.606,2.845-8.059,2.355
				C13.086,50.689,7.35,75.309,9.823,86.047c5.854-0.148,6.955-22.678,22.034-25.726c8.112-1.64,12.967-1.509,15.916-0.561
				c5.042,1.622,4.72,14.354,10.444,11.444C57.93,71.222,56.302,57.415,50.207,52.781z"/>
			<path fill="#231F20" d="M9.823,86.715c-0.311,0-0.581-0.214-0.651-0.518c-1.697-7.368,0.437-20.221,6.317-27.61
				c3.881-4.877,8.85-6.979,14.612-6.164c0.762,0.107,1.435,0.16,2.056,0.16c2.246,0,3.869-0.692,5.427-2.316
				c0.916-0.956,2.237-1.44,3.928-1.44c3.168,0,6.853,1.719,9.098,3.423c5.121,3.895,7.156,13.748,7.923,17.458
				c0.098,0.476,0.199,0.963,0.25,1.146c0.037,0.061,0.064,0.127,0.083,0.197c0.071,0.301-0.071,0.61-0.347,0.751
				c-0.656,0.333-1.289,0.504-1.877,0.504c-2.545,0-3.715-2.873-4.953-5.914c-1.073-2.641-2.185-5.369-4.123-5.993
				c-3.249-1.045-8.507-0.852-15.579,0.578C23.183,62.756,19.355,71.37,16.279,78.29c-2.075,4.668-3.713,8.354-6.44,8.425
				C9.834,86.715,9.829,86.715,9.823,86.715z M27.747,53.589c-4.361,0-8.133,1.961-11.211,5.83
				c-5.478,6.883-7.567,18.705-6.193,25.854c1.65-0.623,3.083-3.848,4.718-7.524c3.032-6.821,7.185-16.164,16.665-18.08
				c7.329-1.481,12.76-1.665,16.253-0.541c2.531,0.814,3.761,3.838,4.951,6.762c1.063,2.612,2.068,5.082,3.715,5.082
				c0.235,0,0.492-0.048,0.765-0.142c-0.054-0.23-0.112-0.513-0.183-0.854c-0.738-3.575-2.701-13.073-7.422-16.663
				c-2.445-1.854-5.854-3.15-8.29-3.15c-1.313,0-2.31,0.346-2.964,1.028c-1.81,1.888-3.781,2.729-6.391,2.729
				c-0.685,0-1.418-0.057-2.244-0.174C29.181,53.642,28.452,53.589,27.747,53.589z"/>
		</g>
		<g>
			<path fill="#BE1E2D" d="M58.9,75.047c0.447-0.038,0.586-0.028,0.498,0.383c-1.916,2.089-1.428,29.5-2.86,32.461
				c-2.986,6.18-10.844,7.818-17.116,9.081c-10.539,2.121-21.55-21.778-28.799-30.842c4.227-3.416,12.673,9.037,21.181,15.974
				c4.621,3.766,19.381,6.865,21.824-6.324C55.098,87.856,53.393,75.519,58.9,75.047z"/>
			<path fill="#231F20" d="M38.084,117.772c-7.733,0-15.13-11.625-21.656-21.882c-2.292-3.604-4.458-7.007-6.327-9.344l-0.415-0.519
				l0.517-0.418c0.6-0.484,1.295-0.729,2.067-0.729c3.154,0,7.184,4.147,11.85,8.949c2.635,2.712,5.36,5.518,8.105,7.755
				c1.835,1.495,5.727,3.105,9.935,3.105h0.001c3.413,0,9.354-1.174,10.81-9.034c0.438-2.356,0.592-5.161,0.74-7.874
				c0.367-6.697,0.714-13.022,5.132-13.4c0.122-0.011,0.224-0.018,0.31-0.018c0.33,0,0.584,0.106,0.752,0.315
				c0.267,0.327,0.181,0.733,0.148,0.887l-0.037,0.18l-0.125,0.134c-0.873,0.982-1.256,10.82-1.509,17.331
				c-0.327,8.392-0.573,13.586-1.243,14.971c-3.162,6.543-11.499,8.221-17.584,9.443c-0.48,0.098-0.974,0.146-1.467,0.146
				C38.086,117.772,38.085,117.772,38.084,117.772z M11.621,86.323c1.797,2.348,3.812,5.515,5.934,8.85
				c6.027,9.475,13.53,21.264,20.529,21.265c0.001,0,0.001,0,0.002,0c0.405,0,0.81-0.04,1.204-0.119
				c5.813-1.17,13.772-2.771,16.647-8.718c0.597-1.232,0.869-8.249,1.11-14.439c0.351-9.025,0.644-15.067,1.433-17.361
				c-2.817,0.783-3.119,6.269-3.436,12.059c-0.15,2.755-0.307,5.604-0.76,8.045c-1.633,8.81-8.295,10.126-12.123,10.126H42.16
				c-4.534-0.001-8.766-1.766-10.778-3.406c-2.806-2.287-5.558-5.12-8.22-7.858C18.511,89.974,14.09,85.453,11.621,86.323z"/>
		</g>
		<path fill="#FFFFFF" d="M16.245,60.873c-1.869,2.662-2.629,5.51-3.529,8.416c1.21,0.908,4.134-5.308,4.989-6.354
			c0.996-1.209,1.546-1.901,2.959-2.608c1.126-0.561,3.123-1.836,2.815-1.827C23.479,58.5,18.472,57.704,16.245,60.873z"/>
		<path fill="#FFFFFF" d="M40.049,110.134c-0.653-0.04-1.33,0.038-1.977-0.063c-0.569-0.088-1.191-0.323-1.719-0.593
			c-0.92-0.475-1.881-0.992-2.853-1.23c-0.429-0.105-1.439-0.239-1.85,0.023c-1.011,0.647-0.095,2.048,0.485,2.64
			c4.205,4.27,10.8,2.015,12.097,1.086c0.601-0.43,2.927-1.748,2.278-2.972c-0.773-1.455-2.392,0.055-3.183,0.41
			C42.601,109.758,40.477,110.158,40.049,110.134z"/>
	</g>
	<g>
		<path fill="#231F20" d="M23.287,29.811c-0.648-2.695,0.461-13.435,5.187-16.575C34.236,9.404,39.559,3.714,46.29,1.844
			c6.603-1.831,13.608-2.304,20.431-1.396c5.648,0.753,11.965,4.136,16.816,7.064c5.115,3.087,10.139,7.289,11.559,13.431
			c1.125,4.883,0.945,12.502-2.064,16.581c-4.361,5.91-12.037,11.706-19.264,13.553c-2.533,0.648-5.385,0.752-8.037,0.744
			c-2.24-0.008-2.947,0.851-4.578,2.135c-3.575,2.81-7.563,4.725-11.754,6.647c-1.764,0.813-4.249,1.817-6.238,1.291
			c-2.734-0.727-0.996-1.404,0.281-2.447c2.507-2.046,2.683-6.574,2.643-9.698c-1.767-0.397-9.198-1.459-10.758-2.091
			C28.194,44.777,24.887,36.458,23.287,29.811z"/>
		<g>
			<path fill="#FFFFFF" d="M36.304,16.677c0.122-0.06,0.097,0.073,0.226,0.057c0.048,0.037,0.114-0.104,0.248-0.078
				c0.14,0.067,0.194,0.146,0.4,0.074c0.012,0.084,0.104,0.113,0.121,0.242c0.255-0.036,0.357,0.079,0.619,0.087
				c0.055,0.077,0.146,0.108,0.278,0.135c0.006,0.042,0.055,0.079,0.104,0.115c0.128-0.02,0.23,0.098,0.358,0.08
				c0.103,0.114,0.211,0.271,0.339,0.255c0.193,0.146,0.394,0.335,0.697,0.336c0.097,0.072,0.188,0.104,0.206,0.23l0.085-0.012
				c0.212-0.03,0.321,0.127,0.54,0.14c0.15,0.152,0.296,0.264,0.369,0.471l0.212-0.03c0.109,0.158,0.285,0.177,0.431,0.286
				l0.018,0.127c0.036,0.256,0.188,0.408,0.369,0.469l0.019,0.128c0.187,0.104,0.327,0.17,0.356,0.383
				c0.013,0.085-0.024,0.135-0.019,0.178c0.072,0.206,0.188,0.405,0.218,0.617l0.018,0.128c0.061,0.122,0.188,0.104,0.248,0.228
				c-0.08,0.355-0.074,0.703-0.021,1.086c0.023,0.169,0.09,0.334,0.12,0.546c0.041,0.298,0.169,0.583,0.253,0.875
				c0.198,0.795,0.142,1.627,0.255,2.436c0.035,0.256,0.114,0.505,0.277,0.739c0.035,0.256,0.029,0.519,0.064,0.773
				c0.013,0.085,0.109,0.156,0.127,0.284l-0.019,0.176c0.012,0.085,0.061,0.122,0.072,0.207c0,0-0.042,0.006-0.036,0.048
				c-0.024,0.135,0.078,0.25,0.096,0.377c-0.024,0.133-0.097,0.231-0.127,0.322c0.107,0.158,0.26,0.31,0.283,0.479
				c0.006,0.041,0.018,0.126-0.019,0.176c0.061,0.121-0.013,0.219,0.133,0.327c0.006,0.043,0.012,0.086-0.024,0.135
				c0.048,0.036,0.023,0.17,0.151,0.151c-0.036,0.049-0.03,0.092-0.024,0.133c0.048,0.342-0.056,0.226-0.038,0.354
				c-0.024,0.133,0.134,0.023,0.146,0.109c-0.019,0.177-0.001,0.304,0.017,0.431c0.018,0.128,0.03,0.213,0.127,0.286
				c0.012,0.085-0.073,0.097-0.104,0.188c0.013,0.086,0.098,0.074,0.146,0.11l0.029,0.213c0.036,0.255,0.023,0.473,0.139,0.674
				c0.006,0.043,0.048,0.037,0.054,0.078c0,0-0.024,0.135,0.061,0.122c0.054,0.079-0.03,0.091-0.019,0.175
				c0.157,0.195,0.054,0.385,0.211,0.578c0.019,0.128,0.036,0.256,0.091,0.334c0.006,0.043-0.086,0.012-0.074,0.097
				c0.127,0.286,0.595,0.222,0.983,0.21c0.006,0.042-0.024,0.134,0.019,0.127c0.127-0.018,0.163-0.065,0.243-0.12
				c0.091,0.03,0.218,0.014,0.235,0.142c0.086-0.013,0.074-0.099,0.158-0.11c0.304,0.001,0.449,0.111,0.674,0.166
				c0.042-0.006,0.079-0.055,0.121-0.061c0.128-0.019,0.268,0.049,0.364,0.122c0.4,0.073,0.703,0.379,1.007,0.683
				c0.107,0.158,0.241,0.183,0.266,0.354c0.029,0.213,0.071,0.51,0.053,0.687c0.018,0.127-0.116,0.406-0.184,0.546
				c-0.036,0.048-0.121,0.061-0.158,0.109c-0.036,0.048-0.024,0.134-0.066,0.14l-0.305,0.302c-0.121,0.062-0.231,0.205-0.316,0.219
				c-0.121,0.061-0.334,0.09-0.455,0.149c-0.122,0.062-0.243,0.121-0.371,0.141c-0.206,0.07-0.431,0.017-0.638,0.089
				c-0.042,0.007-0.03,0.092-0.072,0.098c-0.213,0.029-0.456,0.15-0.669,0.18l-0.127,0.02c-0.091-0.031-0.097-0.073-0.14-0.067
				l-0.164,0.066c-0.213,0.029-0.394-0.031-0.613-0.044c-0.479-0.021-0.983,0.095-1.457,0.117c-0.297,0.042-0.637,0.09-0.947,0.046
				c-0.042,0.007-0.091-0.029-0.139-0.066l-0.164,0.066c-0.171,0.023-0.31-0.043-0.528-0.058c-0.079,0.057-0.049-0.035-0.091-0.029
				c0.006,0.043-0.134-0.024-0.122,0.061c-0.188-0.104-0.4-0.074-0.582-0.136c-0.085,0.013-0.097-0.071-0.188-0.104
				c-0.043,0.007-0.128,0.019-0.177-0.019l-0.588-0.178c-0.134-0.024-0.219-0.014-0.316-0.085c-0.054-0.079-0.042,0.006-0.133-0.025
				c-0.134-0.024-0.194-0.146-0.407-0.116c-0.012-0.085-0.139-0.066-0.271-0.092c-0.104-0.115-0.285-0.177-0.431-0.285
				c-0.127-0.286-0.399-0.379-0.563-0.615c-0.109-0.157-0.139-0.37-0.284-0.48c-0.042-0.298-0.193-0.448-0.235-0.746
				c-0.114-0.201-0.162-0.54-0.191-0.753c-0.013-0.085-0.098-0.073-0.109-0.158c-0.018-0.128-0.066-0.165,0.013-0.219
				c-0.188-0.104-0.103-0.419-0.29-0.522l-0.013-0.085c-0.042-0.298-0.222-0.662-0.264-0.96c-0.024-0.17-0.042-0.298,0.024-0.438
				l-0.139-0.066c-0.018-0.128,0.013-0.219-0.005-0.347c-0.007-0.042-0.055-0.079-0.061-0.121c-0.013-0.085,0.066-0.14,0.061-0.183
				c-0.006-0.042-0.091-0.03-0.097-0.073l-0.018-0.431l-0.066-0.164l-0.018-0.128c-0.035-0.256-0.023-0.474-0.175-0.626
				c-0.012-0.085,0.025-0.134,0.062-0.182c-0.012-0.085-0.134-0.025-0.104-0.116c-0.029-0.213-0.028-0.516-0.064-0.771
				c-0.018-0.128-0.035-0.256-0.091-0.335c-0.072-0.206-0.102-0.419-0.132-0.632c-0.012-0.085-0.103-0.114-0.114-0.199l-0.019-0.127
				c-0.029-0.213-0.181-0.365-0.216-0.621c-0.013-0.085,0.023-0.133,0.012-0.219c-0.103-0.114-0.139-0.37-0.023-0.474
				c0.031-0.091-0.084,0.013-0.103-0.116c-0.065-0.467-0.174-0.929-0.245-1.438l-0.09-0.639c-0.036-0.254-0.065-0.468-0.005-0.648
				c-0.054-0.079,0.013-0.219-0.127-0.286c0.05-0.267-0.168-0.583-0.07-0.813c-0.049-0.037-0.097-0.073-0.151-0.152
				c0.03-0.091-0.036-0.255-0.005-0.346c-0.115-0.201-0.193-0.449-0.235-0.746c-0.048-0.342-0.059-0.729-0.149-1.064
				c-0.012-0.084,0.122-0.06,0.109-0.145c-0.012-0.086-0.06-0.122-0.108-0.159c0.05-0.266,0.099-0.533,0.069-0.746
				c-0.024-0.17-0.085-0.292-0.188-0.406c-0.013-0.085,0.024-0.134,0.013-0.219c-0.055-0.079-0.109-0.158-0.127-0.286
				c-0.013-0.085,0.007-0.262-0.012-0.389c-0.012-0.084-0.06-0.121-0.072-0.206c0.067-0.14,0.098-0.23,0.08-0.358
				c0.213-0.334,0.48-0.587,0.7-0.878C35.121,16.583,35.8,16.792,36.304,16.677z"/>
		</g>
		<g>
			<path fill="#FFFFFF" d="M65.568,11.643c0.218,0.036,0.414,0.188,0.666,0.292c0.131,0.021,0.207,0.095,0.338,0.115l0.521,0.088
				c0.305,0.051,0.565,0.094,0.797,0.313c0.131,0.021,0.112,0.14,0.146,0.205c0.305,0.051,0.568,0.337,0.747,0.608
				c0.479,0.078,0.575,0.577,0.999,0.709c-0.049,0.294,0.117,0.382,0.236,0.462c0.016,0.184-0.015,0.359,0.063,0.434
				c0.256,0.345,0.342,0.902,0.607,1.188c0.014,0.185-0.017,0.359,0.104,0.44c0.024,0.124-0.071,0.169-0.092,0.286
				c0.14,0.507,0.298,0.896,0.438,1.402c-0.029,0.176,0.019,0.426-0.132,0.521c-0.01,0.061-0.01,0.061,0.033,0.066
				c0.349,0.058,0.229,0.764,0.39,1.151c-0.063,0.11-0.082,0.229-0.102,0.347c-0.088,0.527,0.167,0.873,0.186,1.299
				c0.006,0.243-0.088,0.53-0.082,0.771c0.014,0.184,0.09,0.257,0.114,0.382c-0.015,0.359-0.137,0.822-0.012,1.146
				c-0.029,0.177-0.103,0.346-0.142,0.58c-0.088,0.529-0.1,1.132-0.026,1.507c-0.06,0.354-0.117,0.705-0.161,1.241
				c-0.025,0.419,0.057,0.735,0.018,0.97c-0.029,0.177-0.082,0.229-0.188,0.331c-0.039,0.236-0.024,0.419-0.063,0.654
				c-0.05,0.294-0.15,0.64-0.287,0.919c0.016,0.184-0.015,0.36-0.033,0.478c-0.029,0.178-0.068,0.412-0.143,0.581
				c-0.082,0.229,0.081,0.315-0.033,0.479c0.022,0.125-0.186,0.03-0.233,0.324l-0.106,0.646c-0.021,0.117,0.059,0.19,0.038,0.308
				c-0.073,0.171-0.198,0.392-0.229,0.567c-0.038,0.234,0.01,0.484,0.033,0.608c-0.039,0.235-0.17,0.214-0.242,0.384
				c0.066,0.132-0.006,0.301-0.034,0.478c-0.011,0.06-0.029,0.177,0.004,0.242c-0.159,0.154-0.251,0.441-0.479,0.464
				c-0.175,0.516-0.276,0.86-0.496,1.368c-0.129-0.021-0.158,0.155-0.322,0.066c-0.116,0.162-0.176,0.516-0.446,0.529
				c-0.092,0.288-0.207,0.449-0.366,0.604c-0.072,0.169,0.059,0.19,0.038,0.308c-0.678,0.312-1.446,0.907-2.043,1.534
				c-0.261-0.044-0.42,0.111-0.624,0.259c-0.218-0.035-0.387,0.179-0.613,0.2l-0.262-0.044c-0.261-0.043-0.421,0.111-0.658,0.193
				c-0.191,0.089-0.377,0.118-0.535,0.272c-0.271,0.017-0.543,0.031-0.744,0.18l-0.165-0.089c-0.173-0.027-0.335,0.127-0.517,0.155
				c-0.358,0.001-0.654-0.107-0.959-0.159c-0.27,0.017-0.539,0.031-0.845-0.019l-0.175-0.029c-0.043-0.007-0.12-0.081-0.153-0.146
				c-0.262-0.043-0.498,0.038-0.76-0.005c-0.217-0.036-0.478-0.08-0.687-0.176c-0.217-0.035-0.328-0.175-0.545-0.211
				c-0.088-0.015-0.185,0.029-0.271,0.016c-0.207-0.095-0.387-0.365-0.594-0.461l-0.174-0.028c-0.088-0.015-0.373-0.183-0.518-0.389
				c-0.208-0.096-0.332-0.417-0.464-0.438l-0.13-0.021c-0.111-0.141-0.159-0.391-0.313-0.536c-0.111-0.141-0.318-0.234-0.324-0.478
				c-0.467-0.138-0.756-0.549-1.047-0.959c-0.111-0.14-0.246-0.402-0.355-0.543c-0.102-0.197-0.213-0.337-0.26-0.587l-0.291-0.41
				c-0.004-0.241-0.211-0.338-0.162-0.631l-0.199-0.153c-0.188-0.757-0.313-1.623-0.489-2.438c-0.095-0.499-0.122-0.866-0.146-1.535
				c-0.006-0.242,0.023-0.418-0.022-0.668l-0.106-0.439c-0.041-0.552,0.108-1.19,0.174-1.846c0.006-0.301-0.023-0.668,0.025-0.962
				c0.033-0.478,0.198-0.934,0.225-1.353c0.039-0.235,0.001-0.544,0.04-0.778c0.028-0.177,0.136-0.28,0.155-0.396
				c0.082-0.229,0.043-0.536,0.146-0.884l0.082-0.228c0.074-0.169,0.024-0.419,0.045-0.536c0.082-0.229,0.177-0.515,0.319-0.853
				c0.176-0.517,0.226-1.354,0.556-1.722c0.099-0.589,0.339-0.971,0.572-1.295c0.141-0.581,0.315-1.096,0.659-1.28
				c0.01-0.059-0.016-0.183,0.004-0.301c0.186-0.03,0.234-0.324,0.373-0.36c0.063-0.11-0.022-0.125-0.004-0.242
				c0.149-0.097,0.223-0.267,0.373-0.361c0.17-0.757,0.645-0.92,0.873-1.486c0.328-0.367,0.734-0.663,0.996-1.164
				c0.203-0.146,0.439-0.229,0.73-0.36c0.193-0.089,0.416-0.354,0.652-0.437c0.098-0.044,0.229-0.021,0.324-0.065
				c0.28-0.074,0.536-0.273,0.799-0.23c0.201-0.146,0.393-0.479,0.672-0.553c0.334-0.126,0.705,0.057,0.938-0.268
				c0.165,0.088,0.383,0.125,0.6,0.159l0.218,0.036c0.131,0.022,0.247-0.14,0.432-0.171c0.367-0.059,0.705,0.059,0.972-0.2
				c0.078,0.073,0.121,0.081,0.207,0.096c0.176,0.028,0.367-0.061,0.475-0.163c0.098-0.044,0.228-0.022,0.357-0.001l0.564,0.094
				c0.131,0.021,0.262,0.044,0.402,0.007L65.568,11.643z M64.445,15.988c-0.029,0.177,0.014,0.184-0.049,0.294l-0.15,0.096
				c-0.121,0.463-0.412,0.598-0.602,0.928c-0.028,0.177,0.059,0.19,0.028,0.366c-0.053,0.053-0.228,0.023-0.29,0.135l-0.059,0.353
				c-0.107,0.646-0.402,1.081-0.742,1.509l-0.039,0.234c-0.059,0.353-0.17,0.758-0.229,1.11c-0.039,0.233-0.045,0.535-0.03,0.72
				c-0.185,0.03-0.136,0.278-0.198,0.39c-0.01,0.06-0.064,0.11-0.117,0.162c-0.136,0.279-0.121,0.464-0.214,0.75
				c0.067,0.132,0.081,0.315,0.042,0.551c-0.039,0.236-0.174,0.516-0.29,0.678c0.015,0.184,0.028,0.366-0.001,0.544
				c-0.049,0.294-0.132,0.521-0.214,0.749c-0.028,0.177,0.144,0.204,0.062,0.434c-0.146,0.339-0.224,0.809-0.302,1.279
				c-0.116,0.705-0.2,1.477-0.317,2.183l-0.059,0.354c-0.02,0.116,0.037,0.309,0.018,0.426c0.005,0.787-0.176,1.603-0.195,2.263
				c-0.029,0.178,0.027,0.368,0.042,0.552c0.022,0.668-0.039,0.778,0.129,1.108c0.169,0.33,0.179,0.271,0.41,0.491
				c0.13,0.021,0.153,0.146,0.241,0.161c0.076,0.072,0.121,0.079,0.164,0.088c0.175,0.027,0.324-0.067,0.488,0.021
				c0.354-0.244,0.707-0.485,1.084-0.604c0.168-0.214,0.305-0.493,0.465-0.648c0.197-0.39,0.363-0.846,0.563-1.235l0.18-0.271
				c0.127-0.221,0.112-0.404,0.229-0.566c0.115-0.162,0.34-0.427,0.379-0.662c0.01-0.059,0.029-0.176-0.005-0.241
				c0.223-0.267,0.334-0.67,0.514-0.941L65.376,29.5c0.049-0.293,0.208-0.448,0.291-0.677c0.071-0.169,0.067-0.411,0.142-0.58
				c0.028-0.177,0.137-0.279,0.155-0.396c0.093-0.287,0.099-0.589,0.146-0.883c0.142-0.581,0.423-1.197,0.545-1.66
				c0.345-1.272,0.027-2.595,0.253-3.945c-0.14-0.507,0.03-1.266-0.003-1.874c-0.062-0.435-0.178-0.814-0.108-1.228
				c-0.129-0.563-0.312-1.078-0.293-1.738c-0.351-0.302-0.545-0.756-0.905-0.997c-0.119-0.08-0.414-0.189-0.591-0.22
				C64.896,15.7,64.691,15.847,64.445,15.988z"/>
		</g>
		<g>
			<path fill="#FFFFFF" d="M80.854,18.311c0.127,0.017,0.037,0.107,0.146,0.161c0.02,0.054,0.146-0.021,0.238,0.067
				c0.074,0.126,0.074,0.217,0.275,0.269c-0.035,0.073,0.021,0.146-0.031,0.255c0.219,0.104,0.238,0.25,0.442,0.393
				c0.001,0.09,0.058,0.161,0.148,0.251c-0.019,0.037,0.002,0.091,0.021,0.146c0.11,0.053,0.131,0.195,0.24,0.249
				c0.021,0.146,0.023,0.327,0.134,0.38c0.076,0.216,0.136,0.47,0.374,0.629c0.038,0.107,0.094,0.18,0.04,0.29l0.073,0.034
				c0.184,0.088,0.188,0.27,0.352,0.394c0.041,0.199,0.1,0.361,0.047,0.563l0.184,0.088c0.003,0.182,0.132,0.288,0.189,0.45
				l-0.054,0.109c-0.104,0.219-0.065,0.419,0.046,0.563l-0.053,0.108c0.094,0.182,0.169,0.308,0.081,0.489
				c-0.035,0.073-0.09,0.092-0.106,0.129c-0.051,0.201-0.065,0.418-0.154,0.603l-0.053,0.108c-0.016,0.129,0.094,0.182,0.08,0.309
				c-0.252,0.239-0.429,0.517-0.586,0.846c-0.07,0.146-0.104,0.31-0.191,0.493c-0.123,0.256-0.172,0.548-0.258,0.819
				c-0.261,0.731-0.74,1.356-1.074,2.054c-0.104,0.219-0.174,0.456-0.168,0.729c-0.104,0.22-0.248,0.422-0.354,0.643
				c-0.035,0.072,0.004,0.181-0.05,0.291l-0.104,0.129c-0.035,0.072-0.018,0.127-0.053,0.199c0,0-0.035-0.018-0.054,0.021
				c-0.09,0.092-0.069,0.236-0.122,0.347c-0.089,0.093-0.197,0.131-0.27,0.188c0.004,0.182,0.043,0.381-0.026,0.526
				c-0.019,0.036-0.054,0.109-0.106,0.128c-0.017,0.129-0.125,0.166-0.066,0.328c-0.018,0.037-0.034,0.073-0.09,0.094
				c0.021,0.055-0.069,0.146,0.039,0.198c-0.054,0.02-0.07,0.056-0.088,0.093c-0.142,0.292-0.162,0.147-0.215,0.258
				c-0.09,0.092,0.092,0.09,0.057,0.162c-0.104,0.129-0.157,0.237-0.211,0.349c-0.053,0.109-0.088,0.183-0.051,0.291
				c-0.035,0.073-0.106,0.038-0.179,0.095c-0.035,0.073,0.037,0.108,0.056,0.162l-0.086,0.184c-0.105,0.22-0.229,0.386-0.244,0.603
				c-0.019,0.037,0.019,0.055,0,0.092c0,0-0.088,0.092-0.015,0.127c0.002,0.091-0.071,0.057-0.106,0.129
				c0.021,0.236-0.158,0.33-0.135,0.565c-0.055,0.11-0.105,0.22-0.104,0.31c-0.019,0.037-0.073-0.034-0.108,0.039
				c-0.05,0.291,0.354,0.484,0.664,0.679c-0.018,0.036-0.09,0.093-0.053,0.109c0.109,0.054,0.164,0.034,0.255,0.032
				c0.056,0.071,0.165,0.124,0.112,0.234c0.072,0.034,0.107-0.039,0.182-0.004c0.239,0.159,0.296,0.321,0.443,0.482
				c0.037,0.018,0.092-0.002,0.128,0.016c0.11,0.054,0.186,0.18,0.224,0.286c0.276,0.27,0.355,0.666,0.436,1.064
				c0.004,0.182,0.097,0.271,0.025,0.418c-0.088,0.183-0.211,0.438-0.316,0.567c-0.053,0.108-0.305,0.26-0.43,0.334
				c-0.056,0.019-0.129-0.018-0.184,0.003c-0.055,0.019-0.09,0.092-0.126,0.073l-0.396,0.08c-0.129-0.017-0.291,0.041-0.365,0.006
				c-0.125-0.016-0.31-0.104-0.438-0.118c-0.128-0.018-0.254-0.033-0.363-0.086c-0.201-0.051-0.35-0.212-0.55-0.263
				c-0.036-0.018-0.071,0.057-0.108,0.037c-0.183-0.087-0.438-0.119-0.621-0.206l-0.108-0.053c-0.056-0.072-0.038-0.108-0.075-0.126
				l-0.164-0.034c-0.183-0.087-0.293-0.229-0.459-0.354c-0.367-0.267-0.824-0.44-1.209-0.669c-0.257-0.123-0.551-0.265-0.771-0.46
				c-0.036-0.018-0.057-0.071-0.074-0.125l-0.164-0.033c-0.146-0.07-0.221-0.196-0.387-0.321c-0.092,0.002-0.02-0.054-0.057-0.071
				c-0.018,0.036-0.093-0.089-0.127-0.017c-0.095-0.179-0.277-0.268-0.389-0.41c-0.072-0.035-0.038-0.107-0.095-0.181
				c-0.036-0.018-0.109-0.053-0.13-0.106l-0.369-0.447c-0.092-0.09-0.165-0.124-0.203-0.231c-0.002-0.091-0.037-0.019-0.094-0.09
				c-0.092-0.088-0.075-0.216-0.26-0.305c0.035-0.072-0.074-0.126-0.166-0.215c-0.021-0.145-0.133-0.288-0.188-0.451
				c0.05-0.291-0.117-0.506-0.121-0.777c-0.005-0.183,0.083-0.364,0.026-0.526c0.121-0.257,0.082-0.456,0.205-0.712
				c0.016-0.218,0.154-0.511,0.242-0.694c0.035-0.072-0.037-0.107-0.002-0.181c0.053-0.11,0.032-0.164,0.123-0.166
				c-0.094-0.18,0.139-0.384,0.045-0.563l0.035-0.073c0.123-0.256,0.172-0.64,0.293-0.896c0.07-0.146,0.123-0.256,0.249-0.331
				l-0.073-0.126c0.053-0.108,0.123-0.165,0.176-0.274c0.018-0.036-0.002-0.09,0.017-0.127c0.035-0.073,0.125-0.075,0.144-0.111
				c0.018-0.037-0.056-0.071-0.037-0.108l0.211-0.349l0.033-0.164l0.054-0.109c0.104-0.22,0.229-0.385,0.19-0.584
				c0.034-0.073,0.09-0.093,0.143-0.11c0.035-0.073-0.092-0.09-0.021-0.146c0.088-0.184,0.248-0.423,0.354-0.642
				c0.053-0.11,0.104-0.22,0.104-0.313c0.053-0.199,0.141-0.383,0.227-0.565c0.037-0.073-0.021-0.146,0.015-0.218l0.053-0.109
				c0.089-0.184,0.05-0.382,0.154-0.602c0.034-0.073,0.088-0.094,0.123-0.166c-0.021-0.146,0.085-0.364,0.229-0.386
				c0.071-0.056-0.072-0.035-0.021-0.146c0.192-0.402,0.349-0.822,0.56-1.262l0.264-0.551c0.104-0.22,0.191-0.401,0.336-0.514
				c-0.002-0.09,0.125-0.165,0.05-0.292c0.178-0.184,0.172-0.546,0.37-0.677c-0.02-0.056-0.038-0.108-0.04-0.199
				c0.071-0.056,0.104-0.22,0.177-0.274c0.016-0.219,0.084-0.456,0.207-0.713c0.141-0.293,0.334-0.604,0.438-0.914
				c0.035-0.073,0.127,0.017,0.162-0.058c0.035-0.073,0.016-0.128-0.004-0.182c0.18-0.186,0.357-0.368,0.445-0.553
				c0.068-0.146,0.085-0.273,0.064-0.419c0.035-0.072,0.09-0.092,0.125-0.165c-0.002-0.091-0.004-0.182,0.049-0.291
				c0.035-0.073,0.142-0.203,0.193-0.313c0.035-0.073,0.018-0.127,0.053-0.201c0.125-0.074,0.197-0.131,0.25-0.24
				c0.343-0.149,0.687-0.211,1.012-0.325C79.971,17.618,80.396,18.137,80.854,18.311z"/>
		</g>
		<g>
			<path fill="#231F20" d="M83.078,52.641c-0.01,0.058,0.04,0.125,0.04,0.125c-0.044,0.287-0.294,0.571-0.247,0.844
				c-0.23,0.171-0.225,0.319-0.309,0.482c-0.266,0.194-0.49,0.515-0.795,0.584c-0.092,0.017-0.346-0.052-0.494-0.045
				c-0.146,0.008-0.319-0.02-0.45-0.127c-0.173-0.026-0.312-0.078-0.47-0.014c-0.194-0.266-0.364-0.497-0.586-0.589
				c0.018-0.115-0.057-0.215-0.129-0.314c-0.195-0.265-0.035-0.533-0.174-0.79c0.108-0.131,0.102-0.279,0.037-0.437
				c0.075-0.106,0.148-0.213,0.109-0.336c0.307-0.277,0.427-0.671,0.725-0.891c0.033-0.023,0.256-0.138,0.313-0.129
				c0.101-0.072,0.271-0.048,0.363-0.063c0.057,0.01,0.041-0.082,0.1-0.073c0.123-0.038,0.287,0.045,0.396-0.086
				c0.14,0.051,0.255,0.068,0.369,0.086c0.122,0.165,0.304,0.135,0.442,0.187c0.203,0.207,0.447,0.539,0.594,0.736
				C83.018,52.074,83.064,52.345,83.078,52.641z M101.133,38.392c-0.208,0.204-0.07,0.46-0.162,0.681
				c-0.125,0.04-0.117,0.188-0.232,0.171c-0.036,0.437-0.375,0.531-0.805,0.849c-0.143,0.154-0.425,0.465-0.656,0.635
				c-0.133,0.098-0.256,0.139-0.348,0.153c-0.125,0.245-0.406,0.351-0.613,0.554c-0.107,0.131-0.135,0.305-0.365,0.475
				c-0.309,0.276-0.729,0.536-1.094,0.805c-0.066,0.05-0.123,0.04-0.215,0.056c-0.065,0.049-0.106,0.131-0.174,0.18
				c-0.066,0.049-0.156,0.064-0.189,0.089c-0.291,0.161-0.448,0.433-0.682,0.604c-0.1,0.072-0.223,0.112-0.347,0.151
				c-0.065,0.049-0.106,0.131-0.149,0.213c-0.397,0.292-0.771,0.617-1.201,0.935c-0.397,0.293-0.819,0.553-1.299,0.803
				c-0.041,0.082-0.084,0.164-0.149,0.213s-0.188,0.089-0.347,0.153l-0.199,0.146c-0.299,0.221-0.571,0.473-0.846,0.726
				l-0.498,0.365c-0.133,0.098-0.174,0.179-0.239,0.228c-0.101,0.073-0.247,0.081-0.313,0.13c-0.066,0.048-0.084,0.162-0.184,0.235
				c-0.066,0.049-0.157,0.064-0.189,0.09c-0.074,0.104-0.06,0.196-0.158,0.269c-0.101,0.073-0.215,0.057-0.281,0.104
				c-0.133,0.098-0.24,0.229-0.34,0.302c-0.198,0.146-0.248,0.08-0.404,0.146c-0.156,0.063,0.007,0.146-0.092,0.221
				c-0.332,0.243-0.68,0.396-0.978,0.617c-0.166,0.121-0.34,0.3-0.456,0.487c-0.158,0.063-0.314,0.128-0.479,0.25
				c-0.199,0.146-0.373,0.325-0.457,0.489c-0.199,0.146-0.354,0.211-0.474,0.398c-0.133,0.098-0.016-0.091-0.121-0.165
				c-0.14-0.053-0.32-0.021-0.469-0.014c-0.05-0.065-0.105-0.074-0.154-0.142c-0.146-0.198-0.121-0.371-0.268-0.569
				c0.084-0.164,0.028-0.379-0.003-0.56c0.134-0.097,0.035-0.23,0.201-0.354c0.035-0.229,0.012-0.469,0.139-0.713
				c0.125-0.247,0.39-0.441,0.573-0.678c0.066-0.049,0.084-0.164,0.126-0.246c0.142-0.155,0.308-0.275,0.481-0.455
				c0.307-0.276,0.498-0.571,0.985-0.881c0.065-0.048,0.183-0.029,0.281-0.103s0.183-0.238,0.28-0.313
				c0.365-0.268,0.804-0.436,1.177-0.761c0.108-0.131,0.298-0.22,0.464-0.341c0.166-0.122,0.307-0.277,0.539-0.448
				c0.23-0.17,0.473-0.399,0.736-0.594c0.133-0.099,0.313-0.128,0.447-0.227c0.065-0.049,0.115-0.188,0.183-0.236l0.165-0.122
				c0.232-0.171,0.521-0.331,0.812-0.493l0.134-0.099l0.265-0.194c0.1-0.072,0.224-0.112,0.362-0.063
				c0.065-0.049-0.039-0.123,0.06-0.195c0.305-0.072,0.464-0.342,0.711-0.423c0.042-0.082,0.026-0.172,0.126-0.244
				c0.232-0.171,0.406-0.351,0.639-0.521c0.166-0.121,0.355-0.21,0.547-0.299c0.065-0.049,0.123-0.041,0.172,0.024
				c0.051-0.14,0.183-0.235,0.168-0.325c0.1-0.073,0.181-0.032,0.246-0.081c0.1-0.073,0.217-0.262,0.315-0.333
				c0.134-0.099,0.28-0.105,0.347-0.154c0.19-0.089,0.342-0.3,0.53-0.39c0.479-0.251,1.084-0.747,1.621-0.988
				c0.091-0.016,0.173,0.026,0.265,0.011c0.09-0.015,0.148-0.213,0.223-0.111c0.009-0.059,0.074-0.106,0.142-0.155l0.39-0.235
				c0.041-0.082,0.084-0.163,0.117-0.188c0.065-0.05,0.18-0.031,0.279-0.104c0.033-0.023,0.075-0.105,0.143-0.155
				c0.1-0.072,0.246-0.078,0.346-0.151c0.289-0.163,0.539-0.447,0.734-0.184C101.262,37.736,100.955,38.012,101.133,38.392z"/>
		</g>
	</g>
	<g>
		<path fill="#231F20" d="M34.032,81.045c-0.274,0-0.531-0.17-0.629-0.441c-1.543-4.311-9.696-5.485-9.778-5.497
			c-0.366-0.05-0.621-0.389-0.57-0.753c0.051-0.365,0.396-0.627,0.753-0.569c0.369,0.051,9.04,1.306,10.853,6.368
			c0.124,0.348-0.057,0.729-0.404,0.854C34.183,81.033,34.107,81.045,34.032,81.045z"/>
	</g>
</g>
</svg>
