<?xml version="1.0" encoding="utf-8"?>
<!-- Generator: Adobe Illustrator 16.0.0, SVG Export Plug-In . SVG Version: 6.00 Build 0)  -->
<!DOCTYPE svg PUBLIC "-//W3C//DTD SVG 1.1//EN" "http://www.w3.org/Graphics/SVG/1.1/DTD/svg11.dtd">
<svg version="1.1" id="Layer_1" xmlns="http://www.w3.org/2000/svg" xmlns:xlink="http://www.w3.org/1999/xlink" x="0px" y="0px"
	 width="116.332px" height="153.639px" viewBox="0 0 116.332 153.639" enable-background="new 0 0 116.332 153.639"
	 xml:space="preserve">
<g>
	<path fill="#999999" d="M110.814,124.199c-0.514-0.048-1.181-0.149-2.012-0.274c-0.25-0.038-0.502-0.053-0.753-0.057
		c0.438-0.979,0.691-2.09,0.691-3.356c0-0.155-0.007-0.312-0.021-0.467l-0.066-0.811c0.296-1.553,0.353-2.138,0.353-2.688
		c0-0.569-0.03-1.417-0.09-2.435c0.338-1.649,0.487-3.87,0.487-7.081c0-0.237,0.195-0.509,0.17-0.813
		c0.205-0.979,0.514-2.086,0.514-3.379v-0.112c0-0.954-0.111-1.837-0.199-2.641c0.178-0.817,0.199-1.709,0.199-2.685v-0.113
		c0-1.718-0.264-3.21-0.512-4.529l0.158-4.594c0.029-0.602-0.073-1.204-0.235-1.784c-0.204-0.73-0.534-1.521-1.001-2.476
		c-0.066-0.546-0.176-0.932-0.34-1.565c-0.405-3.008-2.85-5.703-7.668-5.703h-0.663c-0.198,0-0.396-0.222-0.595-0.201
		c-4.45,0.475-6.229,2.556-6.934,4.36c-2.469-2.47-7.177-2.526-9.324-2.526c-1.293,0-2.486,0.154-3.558,0.52
		c-0.606,0.15-1.321,0.397-2.026,0.839c-0.104-0.051-0.197-0.112-0.306-0.162c-0.661-0.305-1.375-0.479-2.103-0.51
		c-1.916-0.08-3.938-0.215-6.188-0.411c-0.16-0.014-0.321-0.021-0.481-0.021c-0.125,0-0.242,0.007-0.362,0.01l12.161-3.076
		c2.648-0.67,4.263-3.356,3.591-6.006l-0.81-3.199c0-0.003-0.002-0.006-0.002-0.009l-8.525-33.709
		c-0.67-2.647-3.364-4.249-6.016-3.579L65.411,29.7l-1.252-4.954c-1.104-4.369-3.716-7.965-7.129-10.396l0.936-2.771l0.349-1.037
		c1.273-3.762-0.749-7.844-4.515-9.116l-0.141-0.047c-3.766-1.27-7.843,0.751-9.113,4.516l-0.352,1.033l-1.036-0.35
		c-3.764-1.267-7.846,0.753-9.116,4.513l-0.047,0.144c-0.248,0.733-0.367,1.479-0.375,2.216c-0.377,0.3-0.696,0.658-0.945,1.063
		c-7.022,3.95-10.85,12.244-8.783,20.418l1.254,4.956l-2.943,0.743c-2.646,0.668-4.248,3.355-3.578,6.003l8.717,34.464
		c0.001,0.004,0.004,0.008,0.004,0.013l0.348,1.386c-1.976-1.104-4.678-1.856-8.405-1.856H18.49c-0.897,0-1.547,0-2.688,1h-0.23
		c-6.208,0-8.677,3.378-9.551,5.3c-2.583,4.797-3.39,6.958-3.567,8.659c-1.21,5.343-1.368,7.181-1.368,8.232
		c0,0.356,0.02,0.604,0.088,0.953c0.051,0.356,0.129,1.717,0.186,2.721c0.017,0.291,0.056,0.572,0.117,0.857
		c1.158,5.358,3.233,11.324,6.943,15.297c-4.722,1.189-4.871,5.324-4.871,5.824c0,0.07,0.001,0.142,0.004,0.212
		c0.055,1.432,0.099,2.896,0.131,4.371c0.003,0.117,0.009,0.232,0.019,0.35c0.194,2.29,0.512,3.852,1.045,5.09
		c0.032,0.087,0.321,0.175,0.356,0.26c-0.178,0.585-0.014,1.207-0.014,1.853v0.273l-0.483,0.356
		c-0.048,0.617-0.517,0.974-0.517,1.064v0.134c0,0.865,0.25,1.544,0.369,2.144c0.598,4.278,2.65,6.062,4.416,6.78
		c1.043,0.605,2.197,0.911,3.344,0.911c0.131,0,0.287-0.005,0.418-0.014l0.091-0.007c0.155,0.014,0.316,0.021,0.472,0.021
		c1.028,0,1.874-0.271,2.705-0.582c1.071-0.368,1.998-1.09,3.023-1.994c1.16,0.683,2.415,0.935,3.548,0.935h0.179
		c0.345,0,0.704,0.024,1.115-0.033c0.412,0.059,0.771,0.109,1.116,0.109c1.483,0,2.858-0.396,3.969-1.215
		c1.849,1.683,3.679,2.139,4.944,2.139c0.014,0,0.073,0,0.089,0c0.323,0,0.646-0.084,0.965-0.142
		c1.194-0.11,2.451-0.488,3.815-1.083c0.16-0.068,0.318-0.161,0.472-0.246c0.046-0.024,0.088-0.063,0.134-0.089
		c0.961,1.053,2.568,2.083,5.19,2.083c0.194,0,0.389-0.012,0.582-0.032c0.408-0.043,0.794-0.109,1.159-0.197
		c0.736,0.266,1.53,0.403,2.363,0.403c0.25,0,0.5-0.017,0.748-0.05c0.573-0.078,1.19-0.215,1.835-0.407
		c0.057-0.017,0.36-0.033,0.417-0.053c2.596-0.865,4.521-3.247,4.521-6.068v-0.134c0-0.016-0.252-0.031-0.252-0.047
		c0.01,0.064-0.109,0.275-0.1,0.34c0.25,4.32,3.392,6.722,6.619,6.722h0.355c0.479,0,0.98-0.195,1.488-0.298
		c0.392-0.075,0.771-0.269,1.136-0.426c0.167-0.037,0.333-0.118,0.497-0.17c0.475,0.097,0.967,0.13,1.475,0.13
		c0.205,0,0.409-0.021,0.612-0.043l0.058-0.015c0.201,0,0.401-0.013,0.602-0.034c1.126-0.123,2.074-0.446,2.87-0.896
		c1.024,0.377,2.172,0.684,3.489,0.684c0.313,0,0.644,0.068,0.992,0.068h0.03c1.806,0,3.218-0.453,4.326-0.979
		c0.907,0.389,1.911,0.568,2.995,0.568c0.478,0,0.947-0.083,1.412-0.196c0.906,0.47,2.064,0.782,3.541,0.782
		c0.953,0,1.852-0.165,2.688-0.466c0.902,0.479,2.061,0.813,3.549,0.813c0.194,0,0.389-0.011,0.582-0.032
		c0.408-0.043,0.795-0.108,1.159-0.196c0.736,0.266,1.53,0.403,2.363,0.403c0.25,0,0.5-0.017,0.748-0.05
		c0.573-0.078,1.19-0.215,1.835-0.407c0.057-0.017,0.111-0.033,0.168-0.053c0.43-0.143,0.822-0.342,1.199-0.563
		c0.893,0.512,2.053,0.904,3.568,0.904c0.192,0,0.387-0.01,0.577-0.029c6.604-0.686,7.116-5.049,7.116-6.369
		c0-0.488-0.055-0.98-0.204-1.732c0.006-0.048,0.013-0.099,0.021-0.151c0.033-0.247,0.051-0.588,0.051-0.838
		c0-0.581-0.062-1.181-0.182-1.793c-0.004-0.148-0.016-0.45-0.037-0.903l-0.047-0.971c0.008-0.099,0.023-0.216,0.041-0.352
		c0.03-0.235,0.045-0.474,0.045-0.711c0-0.317-0.023-0.628-0.07-0.98c0.033-0.342,0.035-0.687,0.005-1.028l-0.101-1.123
		c1.899-1.277,3.021-3.321,3.021-5.656c0-2.347-1.375-3.922-1.826-4.439C113.563,125.01,112.241,124.333,110.814,124.199z
		 M30.605,33.232c-1.246-4.926,0.942-9.927,5.052-12.466c0.502,0.064,1.022,0.047,1.543-0.085c0.377-0.096,0.717-0.255,1.037-0.438
		c0.092,0.035,0.179,0.076,0.272,0.107l1.033,0.351l13.774,4.65l1.336-3.956c1.311,1.37,2.301,3.081,2.799,5.047l1.252,4.954
		l-26.846,6.792L30.605,33.232z M73.303,108.232c-0.105,0.593-0.169,1.094-0.169,1.631c0,0.697,0.056,1.95,0.513,4.856
		c-0.013,0.205-0.033,0.514-0.064,0.967c-0.252-0.013-0.486-0.035-0.755-0.035c-0.127,0-0.402,0.004-0.528,0.013
		c-0.035-0.57-0.209-1.328-0.209-2.316v-0.758l0.251-0.984c0.099-0.944,0.028-1.896-0.339-2.761c0.094-1.003,0.182-1.644,0.203-2.13
		c0.381-0.046,0.771-0.111,1.133-0.196c-0.012,0.108-0.015,0.226-0.031,0.356C73.246,107.325,73.251,107.781,73.303,108.232z
		 M52.692,82.646c-0.085-0.063-0.169-0.127-0.253-0.188l0.401-0.102C52.782,82.45,52.743,82.55,52.692,82.646z M55.497,134.404
		c-0.17,1.432-0.408,2.347-0.408,3.041v0.313c0,2.228,0.131,3.057,0.113,3.332c-0.055,0.313,0,0.633,0,0.951
		c0,0.979,0.081,1.898,0.151,2.782c-0.018-0.084-0.005-0.171-0.024-0.255c-0.043-0.183-0.085-0.36-0.146-0.537
		c-0.431-1.24-0.601-1.79-0.662-1.992c-0.114-0.521-0.298-1.022-0.556-1.494c-0.076-0.138-0.142-0.259-0.195-0.363
		c-0.031-0.115-0.063-0.229-0.101-0.345c0.158-0.335,0.297-0.696,0.4-1.088c0.488-1.479,0.652-3.095,0.78-4.366
		c0.019-0.187,0.028-0.375,0.028-0.563c0-0.139-0.01-0.569-0.055-1.291c-0.012-0.173-0.03-0.346-0.058-0.519
		c-0.284-1.806-0.803-4.044-2.275-5.802c-0.579-0.785-1.546-1.752-3.04-2.38c0.078-0.729,0.154-1.415,0.227-2.007
		c1.118-0.475,1.956-1.102,2.604-1.771c0.271,1.96,0.65,3.938,1.157,5.924c0.347,1.357,1.205,2.511,2.37,3.273
		c-0.125,0.485-0.209,0.977-0.209,1.459c0,0.213,0.012,0.425,0.036,0.637l0.05,1.161C55.667,132.88,55.55,133.51,55.497,134.404z"/>
	<ellipse fill="#FFFFFF" cx="60.491" cy="121.075" rx="30" ry="27.5"/>
	<g>
		<g>
			<g>
				<g>
					<path fill="#FFFFFF" d="M12.12,152.281c-0.155,0-0.311-0.007-0.466-0.021l-0.079,0.007c-0.131,0.009-0.262,0.014-0.393,0.014
						c-1.146,0-2.251-0.306-3.295-0.911c-1.765-0.72-3.72-2.502-4.317-6.78c-0.118-0.6-0.171-1.277-0.171-2.144v-0.134
						c0-0.092,0.014-0.447,0.063-1.065l0.027-0.355v-0.273c0-0.646,0.094-1.268,0.271-1.853c-0.034-0.085-0.066-0.173-0.099-0.26
						c-0.533-1.238-0.851-2.8-1.045-5.09c-0.01-0.116-0.016-0.231-0.019-0.35c-0.032-1.477-0.076-2.94-0.131-4.372
						c-0.003-0.071-0.004-0.143-0.004-0.213c0-0.536,0.167-5.257,5.965-6.038c0.248-0.033,0.497-0.05,0.747-0.05
						c0.232,0,0.465,0.015,0.696,0.043c0.813,0.103,1.522,0.271,2.142,0.49c0.655-0.172,1.375-0.267,2.159-0.267h0.224
						c2.92,0,5.379,2.088,5.978,5.076c0.031,0.155,0.056,0.312,0.073,0.469c0.206,1.808,0.561,3.821,1.056,5.989
						c0.076,0.334,0.122,0.674,0.136,1.016c0.018,0.229,0.067,0.707,0.149,1.439c0.022,0.206,0.034,0.413,0.034,0.62v0.445
						c0,0.387-0.017,0.752-0.051,1.104c0.004,0.106,0.006,0.215,0.006,0.324c0,0.17-0.008,0.339-0.023,0.508
						c-0.108,1.19-0.245,2.688-0.665,4.087h0.002c-0.222,0.936-0.503,1.735-0.86,2.442c-0.406,1.267-1.047,2.324-1.914,3.157
						c-0.034,0.032-0.069,0.064-0.104,0.098c-1.183,1.078-2.19,1.851-3.391,2.264C13.99,152.011,13.148,152.281,12.12,152.281z"/>
					<path fill="#FFFFFF" d="M23.8,150.742c-0.345,0-0.704-0.026-1.116-0.085c-0.411,0.059-0.771,0.085-1.115,0.085H21.39
						c-2.436,0-5.447-1.332-6.818-5.025c-0.476-1.008-0.851-2.229-1.166-3.793c-0.039-0.192-0.067-0.389-0.086-0.585
						c-0.076-0.479-0.091-0.974-0.038-1.468l0.041-0.39c-0.021-0.421-0.027-0.811-0.027-1.162v-0.179c0-0.664,0-1.648,0.195-2.697
						c0.044-0.632,0.182-1.359,0.461-2.458c0.136-0.926,0.472-2.079,1.129-3.962c0.221-0.631,0.552-1.218,0.979-1.732
						c1.132-1.36,2.377-2.014,3.362-2.324c1.264-0.448,2.585-0.677,3.932-0.677c3.623,0,6.545,2.249,7.699,5.896
						c0.538,1.396,0.845,2.865,0.915,4.381c0.04,0.288,0.061,0.587,0.061,0.896c0,0.348-0.029,0.663-0.094,1.054
						c0.092,0.757,0.139,1.555,0.139,2.383c0,0.965-0.093,1.964-0.291,3.188c-0.094,1.235-0.479,2.48-1.147,3.719
						c-0.511,1.476-1.357,2.518-2.329,3.212C27.119,150.108,25.531,150.742,23.8,150.742z"/>
					<path fill="#FFFFFF" d="M32.713,151.523c-1.411,0-3.523-0.466-5.58-2.688c-0.119-0.129-0.232-0.264-0.339-0.402
						c-0.76-0.993-1.433-2.202-2.056-3.695c-0.058-0.137-0.108-0.275-0.155-0.416c-0.577-1.764-0.857-3.705-0.857-5.937
						c0-0.636,0.104-3.023,0.312-7.102v-0.572c0-3.163,2.011-5.65,4.857-6.258c0.662-0.206,1.339-0.325,2.022-0.355
						c0.252-0.035,0.509-0.054,0.77-0.054c0.471,0,0.93,0.044,1.376,0.129c0.466-0.226,0.969-0.406,1.503-0.541
						c0.444-0.11,0.901-0.168,1.359-0.168h0.179c2.926,0,5.369,1.671,6.339,4.292c0.457,1.102,0.862,2.516,1.236,4.313
						c0.018,0.08,0.032,0.161,0.046,0.243l0.269,1.649c0.069,0.43,0.089,0.865,0.058,1.3l-0.022,0.313
						c0.028,0.721,0.037,1.228,0.037,1.519c0,1.041-0.159,2.192-0.485,3.504c-0.068,1.143-0.206,2.612-0.687,3.961l0.036,0.013
						c-0.853,2.36-2.539,4.292-4.876,5.585c-0.153,0.085-0.312,0.162-0.472,0.231c-1.364,0.596-2.621,0.942-3.815,1.054
						c-0.319,0.056-0.642,0.084-0.965,0.084C32.786,151.523,32.727,151.523,32.713,151.523z"/>
					<path fill="#FFFFFF" d="M47.481,152.336c-0.833,0-1.627-0.14-2.363-0.403c-0.365,0.087-0.751,0.152-1.159,0.195
						c-0.193,0.021-0.388,0.03-0.582,0.03c-4.531,0-6.043-3.084-6.398-4.029c-0.047-0.126-0.09-0.254-0.128-0.383
						c-0.559-1.889-0.838-4.196-0.853-7.048l-0.204-2.355c-0.031-0.364-0.027-0.731,0.014-1.097l0.02-0.181
						c-0.036-0.399-0.054-0.79-0.054-1.168v-0.401c0-0.323,0.007-0.665,0.022-1.028c-0.015-0.189-0.022-0.383-0.022-0.577
						c0-0.235,0.015-0.473,0.045-0.705c-0.03-0.401-0.045-0.808-0.045-1.213c0-0.226,0.014-0.448,0.04-0.672
						c0.258-2.137,0.679-3.604,1.363-4.765c0.023-0.04,0.048-0.079,0.072-0.118c0.318-0.705,0.781-1.343,1.357-1.861
						c2.032-1.829,4.092-2.286,5.53-2.327c0.063-0.005,0.159-0.014,0.284-0.023c0.172-0.017,0.345-0.023,0.518-0.023
						c3.581,0,5.527,1.757,6.467,3.027c1.472,1.758,1.989,3.996,2.274,5.802c0.027,0.173,0.046,0.346,0.058,0.519
						c0.045,0.722,0.055,1.152,0.055,1.291c0,0.188-0.01,0.376-0.028,0.563c-0.129,1.271-0.292,2.887-0.78,4.366
						c-0.103,0.393-0.241,0.753-0.4,1.088c0.037,0.114,0.071,0.229,0.103,0.345c0.054,0.104,0.12,0.227,0.195,0.363
						c0.258,0.472,0.445,0.975,0.56,1.494c0.062,0.202,0.236,0.752,0.667,1.992c0.062,0.177,0.113,0.354,0.157,0.537
						c0.16,0.673,0.241,1.364,0.241,2.057v0.134c0,2.821-1.678,5.203-4.273,6.068c-0.056,0.02-0.112,0.036-0.168,0.053
						c-0.645,0.192-1.262,0.329-1.835,0.407C47.981,152.32,47.731,152.336,47.481,152.336z"/>
					<path fill="#FFFFFF" d="M61.27,152.348c-3.227,0-6.491-2.257-6.741-6.576c-0.221-1.459-0.328-3.013-0.328-4.731
						c0-0.318,0.027-0.638,0.081-0.952c0.018-0.274,0.053-1.104,0.053-3.331v-0.313c0-0.694,0.073-1.609,0.243-3.041
						c0.053-0.894,0.088-1.523,0.104-1.898l-0.133-1.16c-0.024-0.213-0.036-0.425-0.036-0.638c0-2.635,1.82-5.549,5.887-6.122
						c0.259-0.036,0.52-0.055,0.781-0.055c0.106,0,0.215,0.003,0.323,0.008c0.113-0.005,0.229-0.008,0.345-0.008
						c0.104,0,0.207,0.002,0.311,0.007c0.814-0.471,1.834-0.815,3.098-0.955c0.202-0.021,0.405-0.033,0.608-0.033h0.313
						c3.084,0,4.782,1.45,5.659,2.647c1.17,1.499,1.397,3.283,1.442,4.475c0.217,0.929,0.322,1.764,0.322,2.535
						c0,0.313-0.021,0.601-0.062,0.964c0.042,0.522,0.081,1.123,0.115,1.78c0.053,0.313,0.079,0.632,0.079,0.959
						c0,0.333-0.028,0.665-0.088,0.992c-0.055,0.298-0.1,0.548-0.135,0.752c0,0.014,0,0.026,0,0.04c0,0.256-0.01,0.521-0.027,0.797
						c0.019,0.33,0.027,0.672,0.027,1.033c0,0.341-0.031,0.681-0.094,1.016c0.032,0.329,0.049,0.645,0.049,0.947v0.624
						c0,0.391-0.015,0.87-0.09,1.396c-0.001,0.368-0.011,0.714-0.029,1.039c0.049,0.358,0.074,0.724,0.074,1.092
						c0,2.696-1.855,5.703-5.933,6.145c-0.199,0.021-0.399,0.032-0.601,0.032l-0.059,0.011c-0.203,0.022-0.408,0.033-0.611,0.033
						c-0.509,0-1.002-0.051-1.476-0.147c-0.164,0.053-0.33,0.098-0.497,0.135c-0.364,0.156-0.744,0.275-1.137,0.354
						c-0.508,0.101-1.008,0.151-1.487,0.151H61.27V152.348z"/>
					<path fill="#FFFFFF" d="M73.854,151.467c-2.017,0-3.66-0.434-5.022-1.322c-1.229-0.805-2.097-2.06-2.409-3.495
						c-0.41-1.887-0.619-3.762-0.619-5.575c0-0.402,0.018-0.843,0.053-1.373c-0.045-0.329-0.086-0.729-0.125-1.221
						c-0.023-0.313-0.021-0.627,0.008-0.938l0.039-0.429c-0.025-0.367-0.041-0.775-0.06-1.249c-0.008-0.215-0.004-0.43,0.013-0.644
						l0.156-2c-0.025-0.229-0.039-0.455-0.039-0.681c0,0,0-0.221,0-0.248c-0.06-0.468-0.061-0.943,0-1.419v-0.765
						c0-1.001,0.332-4.39,4.609-5.965c0.534-0.197,1.096-0.313,1.665-0.339c0.247-0.034,0.498-0.052,0.75-0.052
						c0.171,0,0.342,0.009,0.515,0.023c0.491,0.046,0.92,0.096,1.301,0.152c0.125-0.007,0.254-0.01,0.383-0.01
						c0.188,0,0.378,0.011,0.564,0.028c0.665,0.067,1.283,0.116,1.871,0.146c0.835,0.04,1.648,0.269,2.385,0.664
						c2.246,1.211,3.586,3.383,3.586,5.809c0,0.855-0.195,1.702-0.574,2.471c-0.151,0.311-0.321,0.604-0.506,0.883
						c0.146,0.531,0.223,1.086,0.223,1.654c0,0.751-0.151,1.495-0.445,2.187c-0.334,0.787-0.797,1.481-1.361,2.063
						c1.592,1.175,2.41,3.003,2.41,4.818c0,0.646-0.113,1.289-0.332,1.897c-0.531,1.472-2.373,4.895-8.014,4.895h-0.029
						C74.495,151.457,74.164,151.467,73.854,151.467z"/>
					<path fill="#FFFFFF" d="M87.148,151.801c-1.476,0-2.635-0.324-3.541-0.796c-0.463,0.114-0.935,0.172-1.412,0.172
						c-3.379,0-6.1-2.042-6.93-5.201c-0.121-0.465-0.184-0.941-0.184-1.422v-0.534c0-0.997,0.1-2.129,0.3-3.447
						c-0.005-0.116-0.013-0.254-0.022-0.411c-0.025-0.446,0-0.894,0.08-1.333c0.166-0.916,0.475-2.737,1-6.219
						c0.022-0.154,0.054-0.31,0.09-0.461c0.308-1.292,0.408-1.855,0.438-2.035c0.037-0.607,0.174-1.205,0.403-1.771
						c0.36-0.885,1.043-2.005,2.328-2.918c1.108-1.06,2.735-1.814,4.95-1.814c2.875,0,5.139,1.705,6.773,5.067
						c0.146,0.303,0.266,0.616,0.355,0.938c0.261,0.489,0.445,1.016,0.553,1.562c0.049,0.256,0.091,0.454,0.129,0.594
						c0.004,0.014,0.009,0.026,0.014,0.04c0.228,0.7,0.459,1.537,0.49,2.481c0.049,0.228,0.09,0.463,0.126,0.709
						c0.228,0.813,0.371,1.632,0.429,2.447c0.088,0.409,0.15,0.837,0.188,1.278c0.028,0.332,0.026,0.666-0.004,0.998
						c0.047,0.306,0.069,0.604,0.069,0.902c0,0.076-0.002,0.15-0.004,0.224c0.019,0.155,0.03,0.313,0.039,0.47
						c0.06,0.237,0.11,0.486,0.154,0.748c0.072,0.432,0.094,0.868,0.064,1.3c0.097,1.344,0.102,1.488,0.102,1.722v0.224
						c0,3.181-1.873,5.217-4.068,5.955C89.163,151.622,88.188,151.801,87.148,151.801z"/>
					<path fill="#FFFFFF" d="M97.49,152.336c-0.833,0-1.627-0.14-2.363-0.403c-0.365,0.087-0.751,0.152-1.159,0.195
						c-0.192,0.021-0.388,0.03-0.581,0.03c-4.533,0-6.045-3.084-6.4-4.029c-0.047-0.126-0.09-0.254-0.127-0.383
						c-0.56-1.889-0.838-4.196-0.854-7.048l-0.204-2.355c-0.03-0.366-0.026-0.735,0.015-1.104l0.02-0.173
						c-0.035-0.399-0.054-0.79-0.054-1.169v-0.401c0-0.323,0.007-0.665,0.022-1.028c-0.016-0.189-0.022-0.383-0.022-0.577
						c0-0.236,0.015-0.473,0.045-0.706c-0.03-0.4-0.045-0.807-0.045-1.212c0-0.226,0.014-0.448,0.04-0.672
						c0.258-2.137,0.679-3.604,1.363-4.765c0.022-0.04,0.047-0.079,0.071-0.118c0.319-0.707,0.782-1.346,1.36-1.865
						c2.031-1.826,4.091-2.282,5.527-2.323c0.063-0.005,0.16-0.014,0.285-0.023c0.172-0.017,0.344-0.023,0.518-0.023
						c3.58,0,5.527,1.757,6.467,3.027c1.473,1.758,1.988,3.996,2.273,5.802c0.027,0.173,0.047,0.346,0.059,0.519
						c0.045,0.722,0.055,1.152,0.055,1.291c0,0.188-0.01,0.376-0.027,0.563c-0.129,1.271-0.293,2.887-0.78,4.366
						c-0.103,0.393-0.241,0.753-0.4,1.088c0.037,0.114,0.071,0.229,0.103,0.345c0.055,0.104,0.121,0.227,0.195,0.363
						c0.258,0.472,0.445,0.975,0.561,1.494c0.063,0.202,0.236,0.752,0.667,1.992c0.062,0.177,0.112,0.355,0.157,0.538
						c0.16,0.672,0.24,1.363,0.24,2.056v0.134c0,2.821-1.678,5.203-4.272,6.068c-0.056,0.019-0.112,0.036-0.168,0.053
						c-0.646,0.192-1.263,0.329-1.835,0.407C97.99,152.32,97.74,152.336,97.49,152.336z"/>
					<path fill="#FFFFFF" d="M105.01,152.169c-3.371,0-5.061-1.906-5.697-2.87l0,0c-1.037-1.572-1.47-3.615-1.504-7.2
						c-0.031-0.27-0.047-0.548-0.047-0.835c0-0.117,0.004-0.234,0.012-0.353c0.01-0.146,0.021-0.289,0.037-0.429
						c-0.002-0.067-0.004-1.049-0.004-1.049c0-0.228-0.015-0.329-0.016-0.33c-0.129-0.602-0.15-1.186-0.08-1.795l0.014-0.12
						c-0.063-0.648-0.119-1.447-0.17-2.406c-1.433-1.189-2.246-2.892-2.246-4.718c0-0.146,0.006-0.291,0.017-0.437
						c0.266-3.401,2.679-5.904,5.942-6.249c1.106-0.188,2.116-0.315,3.063-0.386c0.336-0.058,0.682-0.088,1.037-0.088
						c0.117,0,0.236,0.004,0.354,0.011c0.151-0.007,0.301-0.011,0.449-0.011h0.006c0.235-0.03,0.473-0.045,0.708-0.045
						c0.278,0,0.558,0.021,0.834,0.063c0.831,0.125,1.498,0.228,2.011,0.274c1.428,0.135,2.748,0.812,3.691,1.892
						c0.451,0.519,1.826,2.094,1.826,4.439c0,2.335-1.122,4.379-3.021,5.656l0.101,1.123c0.03,0.343,0.028,0.688-0.005,1.028
						c0.047,0.354,0.07,0.663,0.07,0.98c0,0.236-0.015,0.476-0.045,0.711c-0.018,0.136-0.033,0.253-0.041,0.352l0.047,0.971
						c0.021,0.452,0.032,0.755,0.037,0.903c0.12,0.612,0.182,1.212,0.182,1.793c0,0.25-0.018,0.59-0.051,0.838
						c-0.008,0.054-0.015,0.104-0.021,0.151c0.147,0.752,0.204,1.244,0.204,1.732c0,1.32-0.514,5.685-7.116,6.368
						C105.396,152.16,105.202,152.169,105.01,152.169z"/>
				</g>
				<g>
					<path fill="#FFFFFF" d="M17.538,127.175c-5.867,0-13.605-3.438-17.147-19.819c-0.062-0.285-0.101-0.574-0.117-0.865
						c-0.057-1.004-0.135-2.378-0.186-2.734C0.02,103.406,0,103.13,0,102.774c0-1.053,0.158-2.947,1.368-8.29
						c0.178-1.7,0.984-3.977,3.567-8.771c0.874-1.922,3.343-5.527,9.551-5.527h0.23c1.142-0.396,1.791-0.566,2.688-0.566h0.797
						c9.384,0,12.346,4.805,13.279,7.813c0.123,0.327,0.389,0.866,0.96,1.667c0.288,0.402,0.521,0.842,0.693,1.306
						c0.413,1.111,0.686,2.587,0.829,4.498c1.003,3.614,1.512,7.213,1.512,10.705c0,4.603-0.832,8.959-2.475,12.951
						c-0.68,1.956-1.944,3.647-3.698,4.96c-1.82,2.017-4.535,2.72-5.716,3.025c-0.163,0.042-0.328,0.077-0.494,0.104
						c-2.155,0.354-3.798,0.526-5.023,0.526H17.538z"/>
					<path fill="#FFFFFF" d="M36.214,132.131c-5.244,0-7.211-2.46-7.946-4.395c-0.799-1.619-1.29-3.822-1.606-7.126
						c-0.017-0.177-0.025-0.355-0.025-0.533c0-0.719,0.08-1.297,0.773-4.469c-0.014-0.201-0.037-0.464-0.073-0.791
						c-0.039-0.337-0.046-0.678-0.022-1.017c0.067-0.988,0.106-1.901,0.116-2.773c-0.355-2.146-0.528-4.416-0.528-6.923
						c0-0.229,0.012-0.457,0.035-0.684c-0.023-0.269-0.035-0.531-0.035-0.79v-1.586c0-0.229,0.01-0.453,0.029-0.671
						c-0.02-0.189-0.029-0.383-0.029-0.575v-3.852c0-1.067,0.093-3.845,0.261-8.886l0.005-0.158
						c-0.001-0.413,0.043-0.826,0.133-1.231v-0.26c0-5.773,6.688-7.202,9.205-7.739c0.296-0.063,0.596-0.102,0.897-0.116
						c1.629-0.079,2.837-0.12,3.189-0.12c3.83,0,7.771,1.591,11.713,4.729c0.414,0.33,0.775,0.713,1.076,1.136
						c0.217,0.23,0.734,0.761,1.822,1.8c0.752,0.718,1.289,1.631,1.552,2.638c0.12,0.463,0.517,1.758,1.815,5.226
						c0.369,0.986,0.453,2.057,0.242,3.086c-0.054,0.262-0.115,0.518-0.188,0.769c0.36,1.806,0.435,2.464,0.435,3.094v1.021
						c0,0.439-0.018,0.945-0.053,1.498c0.075,0.547,0.07,1.106-0.02,1.664c-0.738,4.548-1.894,7.809-3.606,10.157
						c-0.684,1.335-1.79,2.593-3.433,3.904c-0.692,0.991-1.748,1.982-3.356,2.665c-0.097,0.798-0.2,1.722-0.309,2.773
						c-0.023,0.224-0.06,0.443-0.107,0.658c0.003,0.08,0.005,0.16,0.005,0.24c0,6.155-7.294,7.156-10.409,7.584
						c-0.252,0.034-0.506,0.052-0.761,0.052L36.214,132.131L36.214,132.131z"/>
					<path fill="#FFFFFF" d="M63.613,130.235c-3.691,0-6.413-0.56-8.563-1.757c-1.343-0.748-2.317-2.016-2.698-3.504
						c-1.083-4.243-1.633-8.453-1.633-12.516c0-1.038,0.064-2.254,0.202-3.773c-0.147-0.755-0.304-1.826-0.445-3.397
						c-0.033-0.367-0.029-0.736,0.01-1.103l0.185-1.713c-0.092-0.847-0.141-1.945-0.211-3.527c-0.012-0.252-0.006-0.504,0.017-0.755
						l0.537-5.909c-0.109-0.514-0.162-1.003-0.162-1.487V90.37c0-0.237,0.008-0.47,0.023-0.701c-0.174-0.722-0.204-1.479-0.08-2.226
						c0.051-0.308,0.057-0.512,0.057-0.585v-2.237c0-3.34,2.268-5.746,6.738-7.15c0.543-0.172,1.109-0.259,1.68-0.259
						c0.112,0,0.215,0,0.309,0c0.365-0.074,0.738-0.112,1.117-0.112c0.146,0,0.291,0.006,0.438,0.017
						c2.118,0.167,3.504,0.341,4.458,0.507c0.513-0.065,1.058-0.099,1.64-0.099c0.16,0,0.321,0.007,0.481,0.021
						c2.249,0.194,4.272,0.328,6.188,0.409c0.728,0.031,1.44,0.203,2.103,0.506c4.679,2.15,5.185,5.837,5.185,7.323
						c0,0.982-0.26,1.948-0.75,2.799c-0.856,1.482-2.265,3.125-4.563,4.282c0.375,0.297,0.706,0.631,0.982,1.011
						c1.515,1.715,1.774,3.561,1.774,4.624c0,0.866-0.2,1.722-0.587,2.496c-1.333,2.674-3.802,4.349-6.889,4.721
						c-0.021,0.486-0.072,1.127-0.165,2.131c0.366,0.865,0.511,1.813,0.411,2.76l-0.103,0.984v0.758
						c0,0.989,0.025,1.747,0.062,2.316c0.125-0.009,0.252-0.013,0.38-0.013c8.438,0,8.682,6.168,8.682,6.871
						c0,0.747-0.149,1.485-0.438,2.174c-1.808,4.285-6.295,6.458-13.34,6.458c0,0-0.293-0.001-0.439-0.002
						C65.293,130.207,64.423,130.235,63.613,130.235z"/>
					<path fill="#FFFFFF" d="M94.762,129.526c-1.73,0-4.045-0.479-6.255-2.434c0,0.001,0,0.001,0,0.001
						c-2.043,1.162-4.091,1.753-6.086,1.753c-6.125,0-10.239-3.979-10.239-9.901c0-0.151,0.006-0.303,0.019-0.453
						c0.237-2.93,0.327-4.218,0.36-4.771c-0.457-2.907-0.513-4.16-0.513-4.857c0-0.537,0.063-1.038,0.169-1.631
						c-0.052-0.451-0.048-0.907,0.012-1.357c0.078-0.604,0.084-0.986,0.084-1.09c0-0.365-0.072-1.113-0.217-2.223
						c-0.057-0.432-0.063-0.866-0.019-1.299c0.442-4.285,0.778-8.25,1.021-12.108c-0.101-1.621-0.121-2.615-0.121-3.175
						c0-5.961,3.291-7.71,5.355-8.221c1.07-0.363,2.266-0.548,3.559-0.548c2.146,0,6.854,0,9.323,2.471
						c0.705-1.806,2.481-4.003,6.935-4.479c0.197-0.021,0.396-0.032,0.594-0.032h0.662c4.82,0,7.255,2.929,7.66,5.937
						c0.164,0.633,0.265,1.252,0.33,1.798c0.467,0.956,0.779,1.744,0.983,2.476c0.162,0.58,0.229,1.184,0.199,1.784l-0.229,4.594
						c0.248,1.32,0.369,2.813,0.369,4.53v0.113c0,0.976-0.088,1.866-0.267,2.685c0.089,0.804,0.134,1.687,0.134,2.641v0.112
						c0,1.293-0.1,2.4-0.305,3.38c0.025,0.304,0.039,0.574,0.039,0.813c0,3.211-0.149,5.432-0.487,7.081
						c0.06,1.018,0.09,1.864,0.09,2.435c0,0.551-0.057,1.136-0.353,2.688l0.066,0.811c0.014,0.155,0.02,0.312,0.02,0.468
						c0,3.582-2.069,8.213-11.934,9.932C95.404,129.499,95.084,129.526,94.762,129.526z"/>
				</g>
			</g>
			<g>
				<g>
					<path fill="#FFFFFF" d="M10.647,128.615c0.101,0,0.189,0.435,0.268,1.294c0.569,2.554,1.026,4.473,1.383,5.756
						c0.034,0.057,0.078,0.256,0.134,0.624h0.045c0-0.179,0.134-0.848,0.401-2.008v-0.044c0-0.446,0.012-1.16,0.045-2.143
						c-0.089-0.469-0.134-0.858-0.134-1.159v-0.58c0-0.279,0.011-0.625,0.045-1.026l-0.045-0.268c0-0.535,0.457-0.805,1.383-0.805
						h0.224c0.245,0,0.412,0.19,0.49,0.58c0.234,2.063,0.625,4.262,1.16,6.604c0,0.123,0.056,0.726,0.179,1.829v0.445
						c0,0.401-0.033,0.727-0.09,0.981c0.034,0.156,0.045,0.302,0.045,0.446c-0.2,2.196-0.379,3.302-0.535,3.302
						c-0.167,0.703-0.368,1.216-0.625,1.562c-0.122,0.604-0.313,1.037-0.58,1.294c-0.758,0.691-1.249,1.061-1.472,1.115
						c-0.469,0.179-0.748,0.269-0.848,0.269l-0.313-0.044l-0.625,0.044c-0.234,0-0.535-0.146-0.893-0.446
						c-0.591,0-0.992-0.881-1.204-2.632c-0.056-0.18-0.09-0.569-0.09-1.16v-0.134c0-0.078,0.034-0.479,0.09-1.205v-0.49
						c0-0.469,0.323-0.747,0.981-0.848c0.424-0.123,0.837-0.18,1.249-0.18h0.179c0.156,0,0.257,0.392,0.313,1.16
						c0.044,0.156,0.134,0.792,0.268,1.918c0.123,0.368,0.179,0.638,0.179,0.805c0.981-1.584,1.472-3.091,1.472-4.508
						c-0.022-0.68-0.066-1.024-0.134-1.024c-0.568,0.39-1.327,0.58-2.275,0.58h-0.134c-1.093,0-1.862-0.703-2.32-2.099
						c-0.301-0.603-0.523-1.762-0.669-3.479c-0.033-1.506-0.078-3.001-0.134-4.462c0-0.225,0.368-0.392,1.115-0.491
						C10.156,128.113,10.647,128.314,10.647,128.615z"/>
					<path fill="#FFFFFF" d="M25.763,132.028c0.412,1.004,0.624,2.074,0.624,3.213c0.034,0,0.045,0.077,0.045,0.223
						c0,0.057-0.056,0.368-0.179,0.938c0.146,0.726,0.224,1.562,0.224,2.499v0.089c0,0.636-0.09,1.462-0.268,2.499
						c0,0.613-0.257,1.315-0.759,2.097c-0.134,0.658-0.368,0.981-0.714,0.981c-0.146,0.391-0.457,0.58-0.937,0.58
						c-0.19,0-0.559-0.057-1.116-0.18c-0.558,0.123-0.926,0.18-1.115,0.18H21.39c-0.77,0-1.315-0.535-1.65-1.606
						c-0.323-0.591-0.603-1.506-0.848-2.722c0-0.212-0.012-0.323-0.045-0.356l0.09-0.848c-0.034-0.479-0.045-0.915-0.045-1.294
						v-0.179c0-1.351,0.078-2.053,0.223-2.098c-0.033-0.056-0.044-0.101-0.044-0.134c0-0.268,0.134-0.903,0.401-1.919
						c0-0.391,0.301-1.428,0.893-3.123c0.278-0.335,0.546-0.524,0.803-0.58c0.703-0.268,1.428-0.401,2.187-0.401
						C24.558,129.885,25.361,130.6,25.763,132.028z M22.862,132.162c-0.123,0.437-0.257,1.249-0.401,2.454v0.759
						c0,0.101-0.045,0.2-0.134,0.313v0.179c0,0.781-0.033,1.271-0.09,1.473c0.034,0.2,0.045,0.368,0.045,0.49v0.446
						c0,1.06,0.167,2.442,0.491,4.148h0.044c0.257-0.355,0.48-1.104,0.67-2.229c0.122-0.882,0.178-1.773,0.178-2.677
						c0-0.458-0.056-1.217-0.178-2.275v-0.224c0-0.123,0.011-0.29,0.044-0.491c-0.233-0.959-0.445-1.751-0.624-2.364L22.862,132.162
						L22.862,132.162z"/>
					<path fill="#FFFFFF" d="M36.104,129.061c0.603,0,0.971,0.233,1.115,0.714c0.324,0.735,0.658,1.885,0.981,3.436l0.269,1.65
						l-0.045,0.625c0.033,0.78,0.045,1.315,0.045,1.605c0,0.681-0.146,1.551-0.446,2.633c-0.101,1.963-0.224,2.943-0.357,2.943
						c-0.391,1.082-1.171,1.952-2.32,2.588c-0.947,0.413-1.751,0.625-2.409,0.625h-0.044l-0.09,0.045v-0.045l-0.089,0.045
						c-0.436,0-0.926-0.302-1.473-0.893c-0.469-0.613-0.914-1.439-1.338-2.454c-0.391-1.193-0.58-2.588-0.58-4.194
						c0-0.468,0.1-2.787,0.312-6.96v-0.714c0-0.535,0.212-0.803,0.625-0.803c0.335-0.146,0.681-0.224,1.026-0.224h0.268l0.089-0.044
						v0.044c0.034,0,0.045-0.012,0.045-0.044c0.58,0,1.037,0.277,1.383,0.848c0.123,0.424,0.179,0.747,0.179,0.98
						c-0.056,0.691-0.089,1.139-0.089,1.34c0,0.167,0.089,0.734,0.268,1.694c-0.033,0.714-0.078,1.282-0.134,1.695l0.089,1.115
						l-0.044,0.089c0,0.067,0.011,0.123,0.044,0.179c-0.033,0.392-0.044,0.703-0.044,0.938v0.669c0,0.457,0.056,1.093,0.178,1.918
						h-0.044c0.056,0.356,0.134,0.681,0.223,0.981c0.167-0.155,0.401-1.038,0.714-2.633c0-0.188,0.134-0.971,0.401-2.32
						c0.123-0.591,0.189-1.906,0.224-3.926c0.033,0,0.056-0.179,0.089-0.536c-0.033-0.366-0.067-0.567-0.089-0.624h0.044
						c-0.056-0.155-0.089-0.502-0.089-1.025v-1.115c0-0.413,0.313-0.691,0.937-0.848L36.104,129.061L36.104,129.061z"/>
					<path fill="#FFFFFF" d="M46.991,128.67c0.524,0.514,0.903,1.584,1.16,3.213c0.033,0.523,0.044,0.836,0.044,0.938
						c-0.234,2.32-0.446,3.479-0.624,3.479c0,0.111-0.224,0.469-0.67,1.07c-0.502,0.413-0.836,0.714-0.981,0.894l-0.044,0.089
						c0.77,0.882,1.249,1.673,1.428,2.364c0,0.189,0.223,0.702,0.669,1.518c0,0.11,0.278,0.993,0.848,2.633
						c0.056,0.233,0.089,0.49,0.089,0.758v0.134c0,0.413-0.145,0.658-0.446,0.76c-0.412,0.123-0.735,0.188-0.981,0.223
						c-0.658,0-1.115-0.401-1.383-1.204c-0.179-0.502-0.479-1.104-0.893-1.829c-0.167-0.726-0.356-1.271-0.58-1.65
						c-0.089-0.212-0.134-0.356-0.134-0.446h-0.044c0,0.123-0.034,0.436-0.09,0.938c0.012,0.356,0.045,0.535,0.09,0.535
						c-0.057,0.123-0.09,0.368-0.09,0.714v0.849c0,0.101-0.011,0.233-0.045,0.4c0.123,0.324,0.179,0.614,0.179,0.894
						c0,0.335-0.368,0.547-1.115,0.625c-0.668,0-1.059-0.134-1.159-0.401c-0.412-1.395-0.624-3.291-0.624-5.711l-0.224-2.588
						l0.089-0.804c-0.056-0.391-0.089-0.78-0.089-1.16V135.5c0-0.379,0.012-0.792,0.045-1.249c-0.033-0.123-0.045-0.233-0.045-0.356
						l0.089-0.535c-0.056-0.424-0.089-0.881-0.089-1.383c0.156-1.294,0.368-2.153,0.625-2.588c0.089,0,0.212-0.224,0.356-0.669
						c0.657-0.593,1.326-0.894,2.007-0.894c0.012,0,0.212-0.011,0.58-0.045C45.976,127.778,46.668,128.08,46.991,128.67z
						 M43.957,131.169c0,0.591,0.078,1.371,0.223,2.364v0.223c0,0.102-0.011,0.234-0.044,0.402c0.122,0.39,0.178,0.926,0.178,1.605
						l0.045,0.179c0.681-0.591,1.026-1.784,1.026-3.569c0-1.528-0.313-2.564-0.937-3.123h-0.045c-0.257,0-0.401,0.568-0.446,1.695
						V131.169z M44.403,141.475v0.09h0.045v-0.09H44.403z"/>
					<path fill="#FFFFFF" d="M66.178,128.146c0.68,0,1.082,0.146,1.204,0.445c0.212,0.189,0.313,0.804,0.313,1.829
						c0.212,0.748,0.313,1.351,0.313,1.785c0,0.122-0.033,0.412-0.09,0.893c0.057,0.568,0.123,1.473,0.18,2.722
						c0.032,0,0.045,0.034,0.045,0.09c-0.18,0.992-0.269,1.494-0.269,1.517c0,0.023,0.011,0.111,0.044,0.269
						c0,0.188-0.011,0.446-0.044,0.759c0.033,0.368,0.044,0.726,0.044,1.071l-0.178,0.848c0.089,0.445,0.134,0.813,0.134,1.115
						v0.624c0,0.479-0.045,0.804-0.134,0.98c0.033,0.168,0.044,0.279,0.044,0.357c0,0.603-0.033,1.082-0.089,1.428
						c0.089,0.234,0.134,0.491,0.134,0.759v0.09c0,0.257-0.313,0.424-0.937,0.49c-0.146,0-0.369,0.012-0.67,0.044
						c-0.58,0-0.938-0.212-1.07-0.623c-0.303-0.781-0.446-1.507-0.446-2.188v-0.089c0-0.056-0.033-0.09-0.089-0.09
						c-0.592,0-0.893,0.056-0.893,0.179v0.045c0,0.167,0.055,0.636,0.178,1.428c-0.045,0.804-0.211,1.204-0.49,1.204
						c-0.167,0.18-0.335,0.269-0.491,0.269h-0.223c-0.067,0-0.123-0.012-0.179-0.044c-0.045,0-0.213,0.122-0.49,0.355
						c-0.168,0.033-0.303,0.045-0.402,0.045H61.27c-0.77,0-1.16-0.502-1.16-1.517c-0.211-1.272-0.313-2.666-0.313-4.194
						c0.09-0.302,0.135-1.729,0.135-4.283v-0.313c0-0.491,0.077-1.339,0.223-2.543c0.09-1.506,0.135-2.376,0.135-2.633l-0.18-1.563
						c0-0.29,0.357-0.479,1.072-0.58c0.088,0,0.188,0.013,0.312,0.045c0.123-0.032,0.233-0.045,0.356-0.045
						c0.502,0,0.76,0.234,0.76,0.714c0.134,0,0.232,0.357,0.312,1.071c0,0.011-0.011,0.212-0.044,0.58
						c0.145,0.836,0.223,1.55,0.223,2.142v0.044c0,0.392-0.033,0.658-0.088,0.805c0.032,0.145,0.055,0.591,0.088,1.338
						c-0.033,0.592-0.045,0.926-0.045,0.981c0,0.356,0.102,1.249,0.313,2.678c0,0.681,0.077,1.506,0.224,2.454h0.045
						c0.391-0.091,0.635-0.135,0.758-0.135h0.135l0.045-0.224c0-0.691-0.012-1.45-0.045-2.275c0.123-0.837,0.188-1.527,0.224-2.053
						c-0.056-0.502-0.09-0.881-0.09-1.159c0.09-1.473,0.134-3.972,0.134-7.496c0-0.212,0.357-0.367,1.071-0.445H66.178z"/>
					<path fill="#FFFFFF" d="M74.512,129.607c0.122-0.057,0.313-0.089,0.557-0.089c0.771,0.078,1.483,0.134,2.164,0.167
						c0.436,0.233,0.646,0.523,0.646,0.882c-0.391,0.792-1.171,1.182-2.331,1.182h-0.524l-0.211,0.045v-0.045l-0.09,0.045
						c-0.056-0.033-0.111-0.045-0.166-0.045c-0.091,0.225-0.135,0.437-0.135,0.625v0.089c0,0.225,0.012,0.515,0.044,0.883
						l-0.212,0.591c0.045,0.413,0.102,0.625,0.168,0.625s0.278-0.013,0.646-0.045c1.127,0.257,1.685,0.445,1.685,0.547
						c0.179,0.155,0.269,0.322,0.269,0.513c-0.189,0.446-0.547,0.669-1.082,0.669c-0.09,0-0.524,0.146-1.306,0.425h-0.168
						l0.046,0.077c0,0.078-0.012,0.123-0.046,0.123c0.034,0.335,0.046,0.569,0.046,0.714v0.637c0,0.188-0.033,0.625-0.09,1.306
						c0.033,0.223,0.09,0.424,0.178,0.591l-0.043,0.502v0.412c0,1.049,0.055,1.774,0.166,2.187c-0.033,0.29-0.045,0.515-0.045,0.682
						v0.078c0,0.167,0.102,0.257,0.303,0.257c0.522,0,1.06-0.034,1.604-0.09c0.692,0,1.038,0.167,1.038,0.502
						c-0.303,0.837-1.283,1.228-2.945,1.192c-1.314,0.102-2.242-0.021-2.787-0.379c-0.324-1.482-0.492-2.943-0.492-4.384
						c0-0.446,0.035-0.992,0.091-1.64c-0.056-0.2-0.123-0.658-0.179-1.383l0.088-0.972c-0.032-0.065-0.056-0.547-0.088-1.428
						l0.211-2.732c-0.056-0.179-0.078-0.302-0.078-0.38v-0.167c0-0.134,0.012-0.268,0.045-0.413
						c-0.033-0.188-0.055-0.322-0.09-0.379c0.035-0.233,0.045-0.435,0.045-0.591v-0.882c0-0.233,0.313-0.479,0.949-0.714
						c0.322,0,0.479-0.012,0.479-0.044C73.719,129.429,74.266,129.518,74.512,129.607z"/>
					<path fill="#FFFFFF" d="M84.695,129.206c0.502,0,1.07,0.636,1.695,1.919c0,0.301,0.146,0.682,0.445,1.115
						c0.123,0.636,0.234,1.071,0.313,1.294c0.146,0.446,0.224,0.771,0.224,0.981c0,0.077-0.033,0.167-0.089,0.268
						c0.123,0,0.223,0.458,0.313,1.384c0.234,0.702,0.356,1.405,0.356,2.098c0.077,0.233,0.146,0.546,0.179,0.937l-0.134,0.804
						c0.123,0.323,0.179,0.535,0.179,0.624c0,0.057-0.033,0.212-0.09,0.446c0.09,0.212,0.135,0.401,0.135,0.58
						c-0.033,0.301-0.045,0.479-0.045,0.535c0.09,0,0.178,0.268,0.268,0.804l-0.045,0.089v0.045c0.09,1.216,0.135,1.862,0.135,1.963
						v0.224c0,0.445-0.123,0.67-0.355,0.67c-0.27,0.145-0.615,0.223-1.027,0.223c-0.702,0-1.127-0.145-1.248-0.445
						c-0.647-1.282-1.016-2.666-1.116-4.149c-0.033-0.089-0.356-0.146-0.981-0.178h-0.268c-0.033,0-0.078,0.056-0.135,0.178
						l0.046,0.09v0.269c0,0.155-0.046,0.391-0.134,0.714c0.065,0.445,0.11,0.669,0.134,0.669c-0.056,0.257-0.189,0.592-0.401,0.98
						c0,0.559-0.102,0.882-0.313,0.981c-0.234,0.179-0.414,0.269-0.536,0.269c-0.837,0-1.339-0.346-1.517-1.025v-0.535
						c0-0.792,0.101-1.818,0.313-3.079c0-0.167-0.012-0.547-0.045-1.115c0.234-1.294,0.58-3.425,1.025-6.38
						c0.392-1.64,0.58-2.644,0.58-2.989c0.123-0.302,0.413-0.536,0.848-0.714c0.102-0.356,0.525-0.536,1.25-0.536h0.043V129.206z
						 M84.204,134.292c-0.146,1.315-0.323,2.51-0.535,3.569v0.089c0,0.257,0.013,0.524,0.045,0.803
						c-0.09,0.446-0.134,0.837-0.134,1.16c0.301,0.034,0.523,0.045,0.669,0.045h0.401v-0.045c0-0.145-0.033-0.479-0.09-0.98
						c0.09-0.47,0.135-0.858,0.135-1.16v-0.224c0-0.947-0.146-2.041-0.446-3.257H84.204z"/>
					<path fill="#FFFFFF" d="M97,128.67c0.523,0.514,0.902,1.584,1.16,3.213c0.033,0.523,0.044,0.836,0.044,0.938
						c-0.233,2.32-0.446,3.479-0.624,3.479c0,0.111-0.225,0.469-0.67,1.07c-0.502,0.413-0.836,0.714-0.98,0.894l-0.045,0.089
						c0.77,0.882,1.249,1.673,1.428,2.364c0,0.189,0.224,0.702,0.67,1.518c0,0.11,0.277,0.993,0.848,2.633
						c0.057,0.233,0.089,0.49,0.089,0.758v0.134c0,0.413-0.146,0.658-0.446,0.76c-0.412,0.123-0.734,0.188-0.98,0.223
						c-0.658,0-1.115-0.401-1.383-1.204c-0.18-0.502-0.479-1.104-0.894-1.829c-0.167-0.726-0.356-1.271-0.579-1.65
						c-0.09-0.212-0.135-0.356-0.135-0.446h-0.044c0,0.123-0.034,0.436-0.09,0.938c0.012,0.356,0.045,0.535,0.09,0.535
						c-0.058,0.123-0.09,0.368-0.09,0.714v0.849c0,0.101-0.011,0.233-0.044,0.4c0.121,0.324,0.178,0.614,0.178,0.894
						c0,0.335-0.368,0.547-1.115,0.625c-0.669,0-1.06-0.134-1.16-0.401c-0.412-1.395-0.623-3.291-0.623-5.711l-0.225-2.588
						l0.09-0.804c-0.057-0.391-0.09-0.78-0.09-1.16V135.5c0-0.379,0.012-0.792,0.045-1.249c-0.033-0.123-0.045-0.233-0.045-0.356
						l0.09-0.535c-0.057-0.424-0.09-0.881-0.09-1.383c0.156-1.294,0.368-2.153,0.625-2.588c0.089,0,0.212-0.224,0.355-0.669
						c0.658-0.593,1.328-0.894,2.009-0.894c0.012,0,0.212-0.011,0.58-0.045C95.984,127.778,96.677,128.08,97,128.67z
						 M93.966,131.169c0,0.591,0.078,1.371,0.224,2.364v0.223c0,0.102-0.012,0.234-0.045,0.402c0.123,0.39,0.18,0.926,0.18,1.605
						l0.044,0.179c0.681-0.591,1.026-1.784,1.026-3.569c0-1.528-0.313-2.564-0.938-3.123h-0.045c-0.258,0-0.4,0.568-0.446,1.695
						V131.169z M94.412,141.475v0.09h0.045v-0.09H94.412z"/>
					<path fill="#FFFFFF" d="M106.884,128.458c0.959,0.146,1.729,0.257,2.319,0.313c0.302,0.346,0.445,0.603,0.445,0.759
						c0,0.591-0.346,1.003-1.025,1.249c-0.391,0.122-0.758,0.179-1.115,0.179h-1.249c-0.032,0.167-0.045,0.278-0.045,0.356
						c0.212,0.902,0.313,1.438,0.313,1.605c-0.033,0.234-0.078,0.412-0.135,0.535c0.123,0.212,0.213,0.436,0.269,0.669l-0.089,0.67
						l0.178,2.008c-0.057,0.302-0.089,0.49-0.089,0.579c0.089,0.502,0.134,0.814,0.134,0.938c-0.056,0.435-0.089,0.77-0.089,0.98
						v0.18c0.056,1.171,0.089,1.796,0.089,1.874l-0.045,0.4c0.146,0.47,0.225,0.903,0.225,1.294v0.09
						c-0.09,0.657-0.135,1.06-0.135,1.204c0.18,0.78,0.268,1.261,0.268,1.429c0,0.391-0.703,0.657-2.096,0.803
						c-0.548,0-0.883-0.123-1.027-0.356c-0.391-0.592-0.58-2.131-0.58-4.596c-0.032,0-0.045-0.123-0.045-0.356
						c0.022-0.356,0.057-0.535,0.091-0.535l-0.046-0.446v-0.848c0-0.568-0.045-1.061-0.133-1.474l0.088-0.758
						c-0.145-1.082-0.268-3.224-0.355-6.425c-0.268-0.056-0.882-0.146-1.829-0.269c-0.179-0.134-0.269-0.278-0.269-0.445
						c0.057-0.727,0.412-1.104,1.07-1.127c1.193-0.212,2.275-0.347,3.258-0.392c0-0.032,0.045-0.044,0.134-0.044
						c0.067,0,0.123,0.012,0.179,0.044c0.258-0.032,0.457-0.044,0.625-0.044h0.445L106.884,128.458z"/>
				</g>
				<g>
					<path fill="#FFFFFF" d="M18.202,85.215c4.544,0,7.198,1.331,7.961,3.966c0.332,0.963,0.896,2.011,1.726,3.172
						c0.231,0.623,0.431,1.783,0.53,3.512c0.962,3.285,1.46,6.542,1.46,9.742c0,3.937-0.697,7.59-2.123,10.987
						c-0.365,1.161-1.161,2.097-2.389,2.832c-0.266,0.651-1.327,1.219-3.185,1.699c-1.891,0.313-3.251,0.453-4.113,0.453h-0.531
						c-5.539,0-9.454-5.126-11.677-15.406c-0.1-1.756-0.166-2.889-0.265-3.397c0-1.076,0.431-3.568,1.326-7.478
						c0-1.02,1.028-3.397,3.052-7.137c0.631-1.586,2.156-2.379,4.512-2.379h1.194c1.028-0.368,1.593-0.566,1.725-0.566H18.202z
						 M16.079,97.676c-0.266,1.389-0.398,2.747-0.398,4.078c0,0.991,0.299,3.257,0.929,6.797v0.228c0,0.085-0.033,0.113-0.133,0.113
						c0.995,1.331,1.792,3.002,2.389,4.983c0.365,0.766,0.696,1.218,1.062,1.359c1.062-1.474,1.593-4.391,1.593-8.724l-0.133-0.227
						c0-0.085,0.033-0.113,0.133-0.113c-0.365-3.482-0.896-6.372-1.593-8.723c-0.63-1.359-1.228-3.313-1.857-5.891
						c-0.365-0.453-0.664-0.708-0.929-0.793C16.443,92.267,16.079,94.561,16.079,97.676z"/>
					<path fill="#FFFFFF" d="M48.818,86.546c0,0.113,0.829,0.991,2.521,2.605c0.266,1.02,0.93,2.945,1.99,5.776
						c-0.099,0.481-0.265,0.936-0.53,1.359c0.432,2.039,0.663,3.257,0.663,3.625v1.021c0,0.48-0.033,1.245-0.133,2.266h0.133
						c-0.63,3.88-1.592,6.599-2.919,8.156c-0.266,0.82-1.228,1.841-2.919,3.059c-0.365,1.133-1.692,1.699-3.98,1.699
						c-0.232,1.076-0.564,3.37-0.929,6.91c-0.099,0-0.198,0.227-0.265,0.68l0.133,0.793c0,0.85-1.858,1.529-5.573,2.039h-0.796
						c-1.858,0-2.787-0.34-2.787-1.02c-0.53-0.851-0.929-2.662-1.194-5.438c0-0.255,0.266-1.558,0.797-3.965
						c0-0.396-0.033-1.048-0.133-1.926c0.1-1.444,0.133-2.635,0.133-3.625c-0.365-2.012-0.531-4.163-0.531-6.457
						c0-0.17,0.033-0.313,0.133-0.453c-0.1-0.425-0.133-0.766-0.133-1.021v-1.586c0-0.312,0.033-0.453,0.133-0.453L32.498,99.8
						v-3.852c0-0.991,0.1-3.965,0.266-8.949c0.1,0,0.133-0.027,0.133-0.113h-0.133l0.133-0.227v-1.246
						c0-0.821,1.592-1.586,4.776-2.266c1.759-0.085,2.754-0.113,2.919-0.113C43.112,83.035,45.866,84.196,48.818,86.546z
						 M42.715,88.925v0.113c0.431,1.331,0.696,2.294,0.796,2.832l-0.133,1.021c0.1,0.905,0.133,1.586,0.133,2.039l-0.133,0.452
						c0.166,0.708,0.497,2.407,0.929,5.099l-0.796,2.944c0,0.651,0.232,2.237,0.663,4.759v0.112c0,0.681-0.133,1.729-0.397,3.172
						c0.431,0,1.359-2.181,2.786-6.569c0.232,0,0.365-0.878,0.397-2.605c-0.231-3.965-0.696-6.569-1.326-7.815
						c-0.896-2.067-1.825-3.908-2.787-5.552L42.715,88.925L42.715,88.925z"/>
					<path fill="#FFFFFF" d="M65.57,83.346c0.363-0.143,0.929-0.228,1.658-0.228c2.289,0.198,4.412,0.34,6.436,0.425
						c1.294,0.596,1.924,1.331,1.924,2.237c-1.161,2.011-3.482,3.002-6.934,3.002h-1.559l-0.631,0.113v-0.113L66.2,88.897
						c-0.166-0.085-0.332-0.113-0.497-0.113c-0.266,0.566-0.398,1.104-0.398,1.586v0.228c0,0.565,0.033,1.303,0.133,2.236
						l-0.629,1.501c0.131,1.048,0.297,1.586,0.496,1.586s0.829-0.027,1.924-0.112c3.352,0.65,5.01,1.133,5.01,1.388
						c0.531,0.396,0.797,0.821,0.797,1.303c-0.564,1.133-1.626,1.699-3.219,1.699c-0.266,0-1.56,0.368-3.881,1.076h-0.498
						l0.133,0.198c0,0.197-0.032,0.312-0.133,0.312c0.101,0.85,0.133,1.444,0.133,1.813v1.613c0,0.481-0.1,1.586-0.266,3.313
						c0.1,0.565,0.266,1.076,0.531,1.501l-0.133,1.273v1.049c0,2.661,0.165,4.503,0.497,5.551c-0.101,0.735-0.134,1.303-0.134,1.728
						v0.198c0,0.425,0.3,0.651,0.896,0.651c1.561,0,3.15-0.085,4.777-0.228c2.057,0,3.085,0.425,3.085,1.274
						c-0.896,2.124-3.813,3.114-8.759,3.029c-3.914,0.256-6.666-0.057-8.292-0.963c-0.962-3.767-1.459-7.477-1.459-11.13
						c0-1.133,0.099-2.521,0.265-4.163c-0.166-0.51-0.364-1.671-0.53-3.512l0.266-2.464c-0.1-0.17-0.166-1.388-0.266-3.625
						l0.63-6.938c-0.166-0.452-0.232-0.765-0.232-0.963V90.37c0-0.34,0.033-0.68,0.133-1.048c-0.1-0.481-0.166-0.821-0.265-0.963
						c0.099-0.595,0.132-1.104,0.132-1.501v-2.237c0-0.595,0.929-1.218,2.819-1.813c0.963,0,1.426-0.028,1.426-0.113
						C63.215,82.893,64.84,83.12,65.57,83.346z"/>
					<path fill="#FFFFFF" d="M99.404,80.769c1.428,0,2.123,0.425,2.123,1.246c0.134,0,0.267,0.82,0.398,2.491
						c0.53,0.991,0.896,1.784,1.063,2.379l-0.266,5.324c0.266,1.076,0.397,2.437,0.397,4.078v0.113c0,0.963-0.134,1.728-0.397,2.266
						c0.166,0.736,0.266,1.756,0.266,3.06v0.112c0,1.331-0.133,2.294-0.398,2.945c0.1,0.651,0.133,1.076,0.133,1.246
						c0,3.257-0.166,5.438-0.529,6.57c0.1,1.501,0.133,2.464,0.133,2.944c0,0.255-0.133,1.048-0.398,2.379l0.133,1.586
						c0,2.097-2.422,3.568-7.297,4.418c-1.395,0-2.621-0.793-3.717-2.379c-0.365-1.218-1.229-3.652-2.652-7.25l-1.992-6.004H86.27
						c-0.1,0.766-0.133,1.331-0.133,1.699v0.453c0.166,3.965,0.266,6.146,0.266,6.57c-0.198,3.172-0.432,4.898-0.664,5.211
						c-1.193,0.68-2.288,1.02-3.316,1.02c-3.085,0-4.645-1.444-4.645-4.305c0.266-3.257,0.397-5.126,0.397-5.551
						c-0.364-2.237-0.53-3.738-0.53-4.531c0-0.255,0.101-0.765,0.266-1.586l-0.133-0.681c0.101-0.765,0.133-1.388,0.133-1.813
						c0-0.708-0.1-1.671-0.266-2.945c0.432-4.163,0.797-8.383,1.063-12.688c-0.1-1.529-0.133-2.577-0.133-3.172
						c0-1.897,0.431-2.832,1.326-2.832c0.531-0.228,1.195-0.34,1.99-0.34c3.549,0,5.309,0.34,5.309,1.02
						c0.133,0.481,0.695,1.189,1.725,2.152c0.398,0.623,0.797,1.501,1.194,2.604c0.896,0.851,1.327,2.067,1.327,3.625
						c1.062,0.878,1.592,2.237,1.592,4.078c0.697,0.821,1.294,2.747,1.727,5.777c0.264,0.057,0.396,0.48,0.396,1.246h0.133
						c0-0.538,0.232-2.69,0.664-6.457c0-1.954,0.031-3.087,0.132-3.398c-0.101-0.368-0.132-0.878-0.132-1.473V91.3
						c0-0.396,0.031-0.735,0.132-1.02c-0.101-0.396-0.132-0.765-0.132-1.133v-1.474c0.266-1.671,0.396-2.774,0.396-3.284v-2.38
						c0-0.65,0.797-1.075,2.39-1.245h0.661V80.769z M95.025,103.765v0.34h0.134v-0.34H95.025z"/>
				</g>
			</g>
			<g>
				<g>
					<path fill="#48172D" d="M10.647,128.615c0.101,0,0.189,0.435,0.268,1.294c0.569,2.554,1.026,4.473,1.383,5.756
						c0.034,0.057,0.078,0.256,0.134,0.624h0.045c0-0.179,0.134-0.848,0.401-2.008v-0.044c0-0.446,0.012-1.16,0.045-2.143
						c-0.089-0.469-0.134-0.858-0.134-1.159v-0.58c0-0.279,0.011-0.625,0.045-1.026l-0.045-0.268c0-0.535,0.457-0.805,1.383-0.805
						h0.224c0.245,0,0.412,0.19,0.49,0.58c0.234,2.063,0.625,4.262,1.16,6.604c0,0.123,0.056,0.726,0.179,1.829v0.445
						c0,0.401-0.033,0.727-0.09,0.981c0.034,0.156,0.045,0.302,0.045,0.446c-0.2,2.196-0.379,3.302-0.535,3.302
						c-0.167,0.703-0.368,1.216-0.625,1.562c-0.122,0.604-0.313,1.037-0.58,1.294c-0.758,0.691-1.249,1.061-1.472,1.115
						c-0.469,0.179-0.748,0.269-0.848,0.269l-0.313-0.044l-0.625,0.044c-0.234,0-0.535-0.146-0.893-0.446
						c-0.591,0-0.992-0.881-1.204-2.632c-0.056-0.18-0.09-0.569-0.09-1.16v-0.134c0-0.078,0.034-0.479,0.09-1.205v-0.49
						c0-0.469,0.323-0.747,0.981-0.848c0.424-0.123,0.837-0.18,1.249-0.18h0.179c0.156,0,0.257,0.392,0.313,1.16
						c0.044,0.156,0.134,0.792,0.268,1.918c0.123,0.368,0.179,0.638,0.179,0.805c0.981-1.584,1.472-3.091,1.472-4.508
						c-0.022-0.68-0.066-1.024-0.134-1.024c-0.568,0.39-1.327,0.58-2.275,0.58h-0.134c-1.093,0-1.862-0.703-2.32-2.099
						c-0.301-0.603-0.523-1.762-0.669-3.479c-0.033-1.506-0.078-3.001-0.134-4.462c0-0.225,0.368-0.392,1.115-0.491
						C10.156,128.113,10.647,128.314,10.647,128.615z"/>
					<path fill="#48172D" d="M25.763,132.028c0.412,1.004,0.624,2.074,0.624,3.213c0.034,0,0.045,0.077,0.045,0.223
						c0,0.057-0.056,0.368-0.179,0.938c0.146,0.726,0.224,1.562,0.224,2.499v0.089c0,0.636-0.09,1.462-0.268,2.499
						c0,0.613-0.257,1.315-0.759,2.097c-0.134,0.658-0.368,0.981-0.714,0.981c-0.146,0.391-0.457,0.58-0.937,0.58
						c-0.19,0-0.559-0.057-1.116-0.18c-0.558,0.123-0.926,0.18-1.115,0.18H21.39c-0.77,0-1.315-0.535-1.65-1.606
						c-0.323-0.591-0.603-1.506-0.848-2.722c0-0.212-0.012-0.323-0.045-0.356l0.09-0.848c-0.034-0.479-0.045-0.915-0.045-1.294
						v-0.179c0-1.351,0.078-2.053,0.223-2.098c-0.033-0.056-0.044-0.101-0.044-0.134c0-0.268,0.134-0.903,0.401-1.919
						c0-0.391,0.301-1.428,0.893-3.123c0.278-0.335,0.546-0.524,0.803-0.58c0.703-0.268,1.428-0.401,2.187-0.401
						C24.558,129.885,25.361,130.6,25.763,132.028z M22.862,132.162c-0.123,0.437-0.257,1.249-0.401,2.454v0.759
						c0,0.101-0.045,0.2-0.134,0.313v0.179c0,0.781-0.033,1.271-0.09,1.473c0.034,0.2,0.045,0.368,0.045,0.49v0.446
						c0,1.06,0.167,2.442,0.491,4.148h0.044c0.257-0.355,0.48-1.104,0.67-2.229c0.122-0.882,0.178-1.773,0.178-2.677
						c0-0.458-0.056-1.217-0.178-2.275v-0.224c0-0.123,0.011-0.29,0.044-0.491c-0.233-0.959-0.445-1.751-0.624-2.364L22.862,132.162
						L22.862,132.162z"/>
					<path fill="#48172D" d="M36.104,129.061c0.603,0,0.971,0.233,1.115,0.714c0.324,0.735,0.658,1.885,0.981,3.436l0.269,1.65
						l-0.045,0.625c0.033,0.78,0.045,1.315,0.045,1.605c0,0.681-0.146,1.551-0.446,2.633c-0.101,1.963-0.224,2.943-0.357,2.943
						c-0.391,1.082-1.171,1.952-2.32,2.588c-0.947,0.413-1.751,0.625-2.409,0.625h-0.044l-0.09,0.045v-0.045l-0.089,0.045
						c-0.436,0-0.926-0.302-1.473-0.893c-0.469-0.613-0.914-1.439-1.338-2.454c-0.391-1.193-0.58-2.588-0.58-4.194
						c0-0.468,0.1-2.787,0.312-6.96v-0.714c0-0.535,0.212-0.803,0.625-0.803c0.335-0.146,0.681-0.224,1.026-0.224h0.268l0.089-0.044
						v0.044c0.034,0,0.045-0.012,0.045-0.044c0.58,0,1.037,0.277,1.383,0.848c0.123,0.424,0.179,0.747,0.179,0.98
						c-0.056,0.691-0.089,1.139-0.089,1.34c0,0.167,0.089,0.734,0.268,1.694c-0.033,0.714-0.078,1.282-0.134,1.695l0.089,1.115
						l-0.044,0.089c0,0.067,0.011,0.123,0.044,0.179c-0.033,0.392-0.044,0.703-0.044,0.938v0.669c0,0.457,0.056,1.093,0.178,1.918
						h-0.044c0.056,0.356,0.134,0.681,0.223,0.981c0.167-0.155,0.401-1.038,0.714-2.633c0-0.188,0.134-0.971,0.401-2.32
						c0.123-0.591,0.189-1.906,0.224-3.926c0.033,0,0.056-0.179,0.089-0.536c-0.033-0.366-0.067-0.567-0.089-0.624h0.044
						c-0.056-0.155-0.089-0.502-0.089-1.025v-1.115c0-0.413,0.313-0.691,0.937-0.848L36.104,129.061L36.104,129.061z"/>
					<path fill="#48172D" d="M46.991,128.67c0.524,0.514,0.903,1.584,1.16,3.213c0.033,0.523,0.044,0.836,0.044,0.938
						c-0.234,2.32-0.446,3.479-0.624,3.479c0,0.111-0.224,0.469-0.67,1.07c-0.502,0.413-0.836,0.714-0.981,0.894l-0.044,0.089
						c0.77,0.882,1.249,1.673,1.428,2.364c0,0.189,0.223,0.702,0.669,1.518c0,0.11,0.278,0.993,0.848,2.633
						c0.056,0.233,0.089,0.49,0.089,0.758v0.134c0,0.413-0.145,0.658-0.446,0.76c-0.412,0.123-0.735,0.188-0.981,0.223
						c-0.658,0-1.115-0.401-1.383-1.204c-0.179-0.502-0.479-1.104-0.893-1.829c-0.167-0.726-0.356-1.271-0.58-1.65
						c-0.089-0.212-0.134-0.356-0.134-0.446h-0.044c0,0.123-0.034,0.436-0.09,0.938c0.012,0.356,0.045,0.535,0.09,0.535
						c-0.057,0.123-0.09,0.368-0.09,0.714v0.849c0,0.101-0.011,0.233-0.045,0.4c0.123,0.324,0.179,0.614,0.179,0.894
						c0,0.335-0.368,0.547-1.115,0.625c-0.668,0-1.059-0.134-1.159-0.401c-0.412-1.395-0.624-3.291-0.624-5.711l-0.224-2.588
						l0.089-0.804c-0.056-0.391-0.089-0.78-0.089-1.16V135.5c0-0.379,0.012-0.792,0.045-1.249c-0.033-0.123-0.045-0.233-0.045-0.356
						l0.089-0.535c-0.056-0.424-0.089-0.881-0.089-1.383c0.156-1.294,0.368-2.153,0.625-2.588c0.089,0,0.212-0.224,0.356-0.669
						c0.657-0.593,1.326-0.894,2.007-0.894c0.012,0,0.212-0.011,0.58-0.045C45.976,127.778,46.668,128.08,46.991,128.67z
						 M43.957,131.169c0,0.591,0.078,1.371,0.223,2.364v0.223c0,0.102-0.011,0.234-0.044,0.402c0.122,0.39,0.178,0.926,0.178,1.605
						l0.045,0.179c0.681-0.591,1.026-1.784,1.026-3.569c0-1.528-0.313-2.564-0.937-3.123h-0.045c-0.257,0-0.401,0.568-0.446,1.695
						V131.169z M44.403,141.475v0.09h0.045v-0.09H44.403z"/>
					<path fill="#48172D" d="M66.178,128.146c0.68,0,1.082,0.146,1.204,0.445c0.212,0.189,0.313,0.804,0.313,1.829
						c0.212,0.748,0.313,1.351,0.313,1.785c0,0.122-0.033,0.412-0.09,0.893c0.057,0.568,0.123,1.473,0.18,2.722
						c0.032,0,0.045,0.034,0.045,0.09c-0.18,0.992-0.269,1.494-0.269,1.517c0,0.023,0.011,0.111,0.044,0.269
						c0,0.188-0.011,0.446-0.044,0.759c0.033,0.368,0.044,0.726,0.044,1.071l-0.178,0.848c0.089,0.445,0.134,0.813,0.134,1.115
						v0.624c0,0.479-0.045,0.804-0.134,0.98c0.033,0.168,0.044,0.279,0.044,0.357c0,0.603-0.033,1.082-0.089,1.428
						c0.089,0.234,0.134,0.491,0.134,0.759v0.09c0,0.257-0.313,0.424-0.937,0.49c-0.146,0-0.369,0.012-0.67,0.044
						c-0.58,0-0.938-0.212-1.07-0.623c-0.303-0.781-0.446-1.507-0.446-2.188v-0.089c0-0.056-0.033-0.09-0.089-0.09
						c-0.592,0-0.893,0.056-0.893,0.179v0.045c0,0.167,0.055,0.636,0.178,1.428c-0.045,0.804-0.211,1.204-0.49,1.204
						c-0.167,0.18-0.335,0.269-0.491,0.269h-0.223c-0.067,0-0.123-0.012-0.179-0.044c-0.045,0-0.213,0.122-0.49,0.355
						c-0.168,0.033-0.303,0.045-0.402,0.045H61.27c-0.77,0-1.16-0.502-1.16-1.517c-0.211-1.272-0.313-2.666-0.313-4.194
						c0.09-0.302,0.135-1.729,0.135-4.283v-0.313c0-0.491,0.077-1.339,0.223-2.543c0.09-1.506,0.135-2.376,0.135-2.633l-0.18-1.563
						c0-0.29,0.357-0.479,1.072-0.58c0.088,0,0.188,0.013,0.312,0.045c0.123-0.032,0.233-0.045,0.356-0.045
						c0.502,0,0.76,0.234,0.76,0.714c0.134,0,0.232,0.357,0.312,1.071c0,0.011-0.011,0.212-0.044,0.58
						c0.145,0.836,0.223,1.55,0.223,2.142v0.044c0,0.392-0.033,0.658-0.088,0.805c0.032,0.145,0.055,0.591,0.088,1.338
						c-0.033,0.592-0.045,0.926-0.045,0.981c0,0.356,0.102,1.249,0.313,2.678c0,0.681,0.077,1.506,0.224,2.454h0.045
						c0.391-0.091,0.635-0.135,0.758-0.135h0.135l0.045-0.224c0-0.691-0.012-1.45-0.045-2.275c0.123-0.837,0.188-1.527,0.224-2.053
						c-0.056-0.502-0.09-0.881-0.09-1.159c0.09-1.473,0.134-3.972,0.134-7.496c0-0.212,0.357-0.367,1.071-0.445H66.178z"/>
					<path fill="#48172D" d="M74.512,129.607c0.122-0.057,0.313-0.089,0.557-0.089c0.771,0.078,1.483,0.134,2.164,0.167
						c0.436,0.233,0.646,0.523,0.646,0.882c-0.391,0.792-1.171,1.182-2.331,1.182h-0.524l-0.211,0.045v-0.045l-0.09,0.045
						c-0.056-0.033-0.111-0.045-0.166-0.045c-0.091,0.225-0.135,0.437-0.135,0.625v0.089c0,0.225,0.012,0.515,0.044,0.883
						l-0.212,0.591c0.045,0.413,0.102,0.625,0.168,0.625s0.278-0.013,0.646-0.045c1.127,0.257,1.685,0.445,1.685,0.547
						c0.179,0.155,0.269,0.322,0.269,0.513c-0.189,0.446-0.547,0.669-1.082,0.669c-0.09,0-0.524,0.146-1.306,0.425h-0.168
						l0.046,0.077c0,0.078-0.012,0.123-0.046,0.123c0.034,0.335,0.046,0.569,0.046,0.714v0.637c0,0.188-0.033,0.625-0.09,1.306
						c0.033,0.223,0.09,0.424,0.178,0.591l-0.043,0.502v0.412c0,1.049,0.055,1.774,0.166,2.187c-0.033,0.29-0.045,0.515-0.045,0.682
						v0.078c0,0.167,0.102,0.257,0.303,0.257c0.522,0,1.06-0.034,1.604-0.09c0.692,0,1.038,0.167,1.038,0.502
						c-0.303,0.837-1.283,1.228-2.945,1.192c-1.314,0.102-2.242-0.021-2.787-0.379c-0.324-1.482-0.492-2.943-0.492-4.384
						c0-0.446,0.035-0.992,0.091-1.64c-0.056-0.2-0.123-0.658-0.179-1.383l0.088-0.972c-0.032-0.065-0.056-0.547-0.088-1.428
						l0.211-2.732c-0.056-0.179-0.078-0.302-0.078-0.38v-0.167c0-0.134,0.012-0.268,0.045-0.413
						c-0.033-0.188-0.055-0.322-0.09-0.379c0.035-0.233,0.045-0.435,0.045-0.591v-0.882c0-0.233,0.313-0.479,0.949-0.714
						c0.322,0,0.479-0.012,0.479-0.044C73.719,129.429,74.266,129.518,74.512,129.607z"/>
					<path fill="#48172D" d="M84.695,129.206c0.502,0,1.07,0.636,1.695,1.919c0,0.301,0.146,0.682,0.445,1.115
						c0.123,0.636,0.234,1.071,0.313,1.294c0.146,0.446,0.224,0.771,0.224,0.981c0,0.077-0.033,0.167-0.089,0.268
						c0.123,0,0.223,0.458,0.313,1.384c0.234,0.702,0.356,1.405,0.356,2.098c0.077,0.233,0.146,0.546,0.179,0.937l-0.134,0.804
						c0.123,0.323,0.179,0.535,0.179,0.624c0,0.057-0.033,0.212-0.09,0.446c0.09,0.212,0.135,0.401,0.135,0.58
						c-0.033,0.301-0.045,0.479-0.045,0.535c0.09,0,0.178,0.268,0.268,0.804l-0.045,0.089v0.045c0.09,1.216,0.135,1.862,0.135,1.963
						v0.224c0,0.445-0.123,0.67-0.355,0.67c-0.27,0.145-0.615,0.223-1.027,0.223c-0.702,0-1.127-0.145-1.248-0.445
						c-0.647-1.282-1.016-2.666-1.116-4.149c-0.033-0.089-0.356-0.146-0.981-0.178h-0.268c-0.033,0-0.078,0.056-0.135,0.178
						l0.046,0.09v0.269c0,0.155-0.046,0.391-0.134,0.714c0.065,0.445,0.11,0.669,0.134,0.669c-0.056,0.257-0.189,0.592-0.401,0.98
						c0,0.559-0.102,0.882-0.313,0.981c-0.234,0.179-0.414,0.269-0.536,0.269c-0.837,0-1.339-0.346-1.517-1.025v-0.535
						c0-0.792,0.101-1.818,0.313-3.079c0-0.167-0.012-0.547-0.045-1.115c0.234-1.294,0.58-3.425,1.025-6.38
						c0.392-1.64,0.58-2.644,0.58-2.989c0.123-0.302,0.413-0.536,0.848-0.714c0.102-0.356,0.525-0.536,1.25-0.536h0.043V129.206z
						 M84.204,134.292c-0.146,1.315-0.323,2.51-0.535,3.569v0.089c0,0.257,0.013,0.524,0.045,0.803
						c-0.09,0.446-0.134,0.837-0.134,1.16c0.301,0.034,0.523,0.045,0.669,0.045h0.401v-0.045c0-0.145-0.033-0.479-0.09-0.98
						c0.09-0.47,0.135-0.858,0.135-1.16v-0.224c0-0.947-0.146-2.041-0.446-3.257H84.204z"/>
					<path fill="#48172D" d="M97,128.67c0.523,0.514,0.902,1.584,1.16,3.213c0.033,0.523,0.044,0.836,0.044,0.938
						c-0.233,2.32-0.446,3.479-0.624,3.479c0,0.111-0.225,0.469-0.67,1.07c-0.502,0.413-0.836,0.714-0.98,0.894l-0.045,0.089
						c0.77,0.882,1.249,1.673,1.428,2.364c0,0.189,0.224,0.702,0.67,1.518c0,0.11,0.277,0.993,0.848,2.633
						c0.057,0.233,0.089,0.49,0.089,0.758v0.134c0,0.413-0.146,0.658-0.446,0.76c-0.412,0.123-0.734,0.188-0.98,0.223
						c-0.658,0-1.115-0.401-1.383-1.204c-0.18-0.502-0.479-1.104-0.894-1.829c-0.167-0.726-0.356-1.271-0.579-1.65
						c-0.09-0.212-0.135-0.356-0.135-0.446h-0.044c0,0.123-0.034,0.436-0.09,0.938c0.012,0.356,0.045,0.535,0.09,0.535
						c-0.058,0.123-0.09,0.368-0.09,0.714v0.849c0,0.101-0.011,0.233-0.044,0.4c0.121,0.324,0.178,0.614,0.178,0.894
						c0,0.335-0.368,0.547-1.115,0.625c-0.669,0-1.06-0.134-1.16-0.401c-0.412-1.395-0.623-3.291-0.623-5.711l-0.225-2.588
						l0.09-0.804c-0.057-0.391-0.09-0.78-0.09-1.16V135.5c0-0.379,0.012-0.792,0.045-1.249c-0.033-0.123-0.045-0.233-0.045-0.356
						l0.09-0.535c-0.057-0.424-0.09-0.881-0.09-1.383c0.156-1.294,0.368-2.153,0.625-2.588c0.089,0,0.212-0.224,0.355-0.669
						c0.658-0.593,1.328-0.894,2.009-0.894c0.012,0,0.212-0.011,0.58-0.045C95.984,127.778,96.677,128.08,97,128.67z
						 M93.966,131.169c0,0.591,0.078,1.371,0.224,2.364v0.223c0,0.102-0.012,0.234-0.045,0.402c0.123,0.39,0.18,0.926,0.18,1.605
						l0.044,0.179c0.681-0.591,1.026-1.784,1.026-3.569c0-1.528-0.313-2.564-0.938-3.123h-0.045c-0.258,0-0.4,0.568-0.446,1.695
						V131.169z M94.412,141.475v0.09h0.045v-0.09H94.412z"/>
					<path fill="#48172D" d="M106.884,128.458c0.959,0.146,1.729,0.257,2.319,0.313c0.302,0.346,0.445,0.603,0.445,0.759
						c0,0.591-0.346,1.003-1.025,1.249c-0.391,0.122-0.758,0.179-1.115,0.179h-1.249c-0.032,0.167-0.045,0.278-0.045,0.356
						c0.212,0.902,0.313,1.438,0.313,1.605c-0.033,0.234-0.078,0.412-0.135,0.535c0.123,0.212,0.213,0.436,0.269,0.669l-0.089,0.67
						l0.178,2.008c-0.057,0.302-0.089,0.49-0.089,0.579c0.089,0.502,0.134,0.814,0.134,0.938c-0.056,0.435-0.089,0.77-0.089,0.98
						v0.18c0.056,1.171,0.089,1.796,0.089,1.874l-0.045,0.4c0.146,0.47,0.225,0.903,0.225,1.294v0.09
						c-0.09,0.657-0.135,1.06-0.135,1.204c0.18,0.78,0.268,1.261,0.268,1.429c0,0.391-0.703,0.657-2.096,0.803
						c-0.548,0-0.883-0.123-1.027-0.356c-0.391-0.592-0.58-2.131-0.58-4.596c-0.032,0-0.045-0.123-0.045-0.356
						c0.022-0.356,0.057-0.535,0.091-0.535l-0.046-0.446v-0.848c0-0.568-0.045-1.061-0.133-1.474l0.088-0.758
						c-0.145-1.082-0.268-3.224-0.355-6.425c-0.268-0.056-0.882-0.146-1.829-0.269c-0.179-0.134-0.269-0.278-0.269-0.445
						c0.057-0.727,0.412-1.104,1.07-1.127c1.193-0.212,2.275-0.347,3.258-0.392c0-0.032,0.045-0.044,0.134-0.044
						c0.067,0,0.123,0.012,0.179,0.044c0.258-0.032,0.457-0.044,0.625-0.044h0.445L106.884,128.458z"/>
				</g>
				<g>
					<path fill="#48172D" d="M18.202,85.215c4.544,0,7.198,1.331,7.961,3.966c0.332,0.963,0.896,2.011,1.726,3.172
						c0.231,0.623,0.431,1.783,0.53,3.512c0.962,3.285,1.46,6.542,1.46,9.742c0,3.937-0.697,7.59-2.123,10.987
						c-0.365,1.161-1.161,2.097-2.389,2.832c-0.266,0.651-1.327,1.219-3.185,1.699c-1.891,0.313-3.251,0.453-4.113,0.453h-0.531
						c-5.539,0-9.454-5.126-11.677-15.406c-0.1-1.756-0.166-2.889-0.265-3.397c0-1.076,0.431-3.568,1.326-7.478
						c0-1.02,1.028-3.397,3.052-7.137c0.631-1.586,2.156-2.379,4.512-2.379h1.194c1.028-0.368,1.593-0.566,1.725-0.566H18.202z
						 M16.079,97.676c-0.266,1.389-0.398,2.747-0.398,4.078c0,0.991,0.299,3.257,0.929,6.797v0.228c0,0.085-0.033,0.113-0.133,0.113
						c0.995,1.331,1.792,3.002,2.389,4.983c0.365,0.766,0.696,1.218,1.062,1.359c1.062-1.474,1.593-4.391,1.593-8.724l-0.133-0.227
						c0-0.085,0.033-0.113,0.133-0.113c-0.365-3.482-0.896-6.372-1.593-8.723c-0.63-1.359-1.228-3.313-1.857-5.891
						c-0.365-0.453-0.664-0.708-0.929-0.793C16.443,92.267,16.079,94.561,16.079,97.676z"/>
					<path fill="#48172D" d="M48.818,86.546c0,0.113,0.829,0.991,2.521,2.605c0.266,1.02,0.93,2.945,1.99,5.776
						c-0.099,0.481-0.265,0.936-0.53,1.359c0.432,2.039,0.663,3.257,0.663,3.625v1.021c0,0.48-0.033,1.245-0.133,2.266h0.133
						c-0.63,3.88-1.592,6.599-2.919,8.156c-0.266,0.82-1.228,1.841-2.919,3.059c-0.365,1.133-1.692,1.699-3.98,1.699
						c-0.232,1.076-0.564,3.37-0.929,6.91c-0.099,0-0.198,0.227-0.265,0.68l0.133,0.793c0,0.85-1.858,1.529-5.573,2.039h-0.796
						c-1.858,0-2.787-0.34-2.787-1.02c-0.53-0.851-0.929-2.662-1.194-5.438c0-0.255,0.266-1.558,0.797-3.965
						c0-0.396-0.033-1.048-0.133-1.926c0.1-1.444,0.133-2.635,0.133-3.625c-0.365-2.012-0.531-4.163-0.531-6.457
						c0-0.17,0.033-0.313,0.133-0.453c-0.1-0.425-0.133-0.766-0.133-1.021v-1.586c0-0.312,0.033-0.453,0.133-0.453L32.498,99.8
						v-3.852c0-0.991,0.1-3.965,0.266-8.949c0.1,0,0.133-0.027,0.133-0.113h-0.133l0.133-0.227v-1.246
						c0-0.821,1.592-1.586,4.776-2.266c1.759-0.085,2.754-0.113,2.919-0.113C43.112,83.035,45.866,84.196,48.818,86.546z
						 M42.715,88.925v0.113c0.431,1.331,0.696,2.294,0.796,2.832l-0.133,1.021c0.1,0.905,0.133,1.586,0.133,2.039l-0.133,0.452
						c0.166,0.708,0.497,2.407,0.929,5.099l-0.796,2.944c0,0.651,0.232,2.237,0.663,4.759v0.112c0,0.681-0.133,1.729-0.397,3.172
						c0.431,0,1.359-2.181,2.786-6.569c0.232,0,0.365-0.878,0.397-2.605c-0.231-3.965-0.696-6.569-1.326-7.815
						c-0.896-2.067-1.825-3.908-2.787-5.552L42.715,88.925L42.715,88.925z"/>
					<path fill="#48172D" d="M65.57,83.346c0.363-0.143,0.929-0.228,1.658-0.228c2.289,0.198,4.412,0.34,6.436,0.425
						c1.294,0.596,1.924,1.331,1.924,2.237c-1.161,2.011-3.482,3.002-6.934,3.002h-1.559l-0.631,0.113v-0.113L66.2,88.897
						c-0.166-0.085-0.332-0.113-0.497-0.113c-0.266,0.566-0.398,1.104-0.398,1.586v0.228c0,0.565,0.033,1.303,0.133,2.236
						l-0.629,1.501c0.131,1.048,0.297,1.586,0.496,1.586s0.829-0.027,1.924-0.112c3.352,0.65,5.01,1.133,5.01,1.388
						c0.531,0.396,0.797,0.821,0.797,1.303c-0.564,1.133-1.626,1.699-3.219,1.699c-0.266,0-1.56,0.368-3.881,1.076h-0.498
						l0.133,0.198c0,0.197-0.032,0.312-0.133,0.312c0.101,0.85,0.133,1.444,0.133,1.813v1.613c0,0.481-0.1,1.586-0.266,3.313
						c0.1,0.565,0.266,1.076,0.531,1.501l-0.133,1.273v1.049c0,2.661,0.165,4.503,0.497,5.551c-0.101,0.735-0.134,1.303-0.134,1.728
						v0.198c0,0.425,0.3,0.651,0.896,0.651c1.561,0,3.15-0.085,4.777-0.228c2.057,0,3.085,0.425,3.085,1.274
						c-0.896,2.124-3.813,3.114-8.759,3.029c-3.914,0.256-6.666-0.057-8.292-0.963c-0.962-3.767-1.459-7.477-1.459-11.13
						c0-1.133,0.099-2.521,0.265-4.163c-0.166-0.51-0.364-1.671-0.53-3.512l0.266-2.464c-0.1-0.17-0.166-1.388-0.266-3.625
						l0.63-6.938c-0.166-0.452-0.232-0.765-0.232-0.963V90.37c0-0.34,0.033-0.68,0.133-1.048c-0.1-0.481-0.166-0.821-0.265-0.963
						c0.099-0.595,0.132-1.104,0.132-1.501v-2.237c0-0.595,0.929-1.218,2.819-1.813c0.963,0,1.426-0.028,1.426-0.113
						C63.215,82.893,64.84,83.12,65.57,83.346z"/>
					<path fill="#48172D" d="M99.404,80.769c1.428,0,2.123,0.425,2.123,1.246c0.134,0,0.267,0.82,0.398,2.491
						c0.53,0.991,0.896,1.784,1.063,2.379l-0.266,5.324c0.266,1.076,0.397,2.437,0.397,4.078v0.113c0,0.963-0.134,1.728-0.397,2.266
						c0.166,0.736,0.266,1.756,0.266,3.06v0.112c0,1.331-0.133,2.294-0.398,2.945c0.1,0.651,0.133,1.076,0.133,1.246
						c0,3.257-0.166,5.438-0.529,6.57c0.1,1.501,0.133,2.464,0.133,2.944c0,0.255-0.133,1.048-0.398,2.379l0.133,1.586
						c0,2.097-2.422,3.568-7.297,4.418c-1.395,0-2.621-0.793-3.717-2.379c-0.365-1.218-1.229-3.652-2.652-7.25l-1.992-6.004H86.27
						c-0.1,0.766-0.133,1.331-0.133,1.699v0.453c0.166,3.965,0.266,6.146,0.266,6.57c-0.198,3.172-0.432,4.898-0.664,5.211
						c-1.193,0.68-2.288,1.02-3.316,1.02c-3.085,0-4.645-1.444-4.645-4.305c0.266-3.257,0.397-5.126,0.397-5.551
						c-0.364-2.237-0.53-3.738-0.53-4.531c0-0.255,0.101-0.765,0.266-1.586l-0.133-0.681c0.101-0.765,0.133-1.388,0.133-1.813
						c0-0.708-0.1-1.671-0.266-2.945c0.432-4.163,0.797-8.383,1.063-12.688c-0.1-1.529-0.133-2.577-0.133-3.172
						c0-1.897,0.431-2.832,1.326-2.832c0.531-0.228,1.195-0.34,1.99-0.34c3.549,0,5.309,0.34,5.309,1.02
						c0.133,0.481,0.695,1.189,1.725,2.152c0.398,0.623,0.797,1.501,1.194,2.604c0.896,0.851,1.327,2.067,1.327,3.625
						c1.062,0.878,1.592,2.237,1.592,4.078c0.697,0.821,1.294,2.747,1.727,5.777c0.264,0.057,0.396,0.48,0.396,1.246h0.133
						c0-0.538,0.232-2.69,0.664-6.457c0-1.954,0.031-3.087,0.132-3.398c-0.101-0.368-0.132-0.878-0.132-1.473V91.3
						c0-0.396,0.031-0.735,0.132-1.02c-0.101-0.396-0.132-0.765-0.132-1.133v-1.474c0.266-1.671,0.396-2.774,0.396-3.284v-2.38
						c0-0.65,0.797-1.075,2.39-1.245h0.661V80.769z M95.025,103.765v0.34h0.134v-0.34H95.025z"/>
				</g>
			</g>
		</g>
		<g>
			<g>
				<path fill="#48172D" d="M10.647,128.615c0.101,0,0.189,0.435,0.268,1.294c0.569,2.554,1.026,4.473,1.383,5.756
					c0.034,0.057,0.078,0.256,0.134,0.624h0.045c0-0.179,0.134-0.848,0.401-2.008v-0.044c0-0.446,0.012-1.16,0.045-2.143
					c-0.089-0.469-0.134-0.858-0.134-1.159v-0.58c0-0.279,0.011-0.625,0.045-1.026l-0.045-0.268c0-0.535,0.457-0.805,1.383-0.805
					h0.224c0.245,0,0.412,0.19,0.49,0.58c0.234,2.063,0.625,4.262,1.16,6.604c0,0.123,0.056,0.726,0.179,1.829v0.445
					c0,0.401-0.033,0.727-0.09,0.981c0.034,0.156,0.045,0.302,0.045,0.446c-0.2,2.196-0.379,3.302-0.535,3.302
					c-0.167,0.703-0.368,1.216-0.625,1.562c-0.122,0.604-0.313,1.037-0.58,1.294c-0.758,0.691-1.249,1.061-1.472,1.115
					c-0.469,0.179-0.748,0.269-0.848,0.269l-0.313-0.044l-0.625,0.044c-0.234,0-0.535-0.146-0.893-0.446
					c-0.591,0-0.992-0.881-1.204-2.632c-0.056-0.18-0.09-0.569-0.09-1.16v-0.134c0-0.078,0.034-0.479,0.09-1.205v-0.49
					c0-0.469,0.323-0.747,0.981-0.848c0.424-0.123,0.837-0.18,1.249-0.18h0.179c0.156,0,0.257,0.392,0.313,1.16
					c0.044,0.156,0.134,0.792,0.268,1.918c0.123,0.368,0.179,0.638,0.179,0.805c0.981-1.584,1.472-3.091,1.472-4.508
					c-0.022-0.68-0.066-1.024-0.134-1.024c-0.568,0.39-1.327,0.58-2.275,0.58h-0.134c-1.093,0-1.862-0.703-2.32-2.099
					c-0.301-0.603-0.523-1.762-0.669-3.479c-0.033-1.506-0.078-3.001-0.134-4.462c0-0.225,0.368-0.392,1.115-0.491
					C10.156,128.113,10.647,128.314,10.647,128.615z"/>
				<path fill="#48172D" d="M25.763,132.028c0.412,1.004,0.624,2.074,0.624,3.213c0.034,0,0.045,0.077,0.045,0.223
					c0,0.057-0.056,0.368-0.179,0.938c0.146,0.726,0.224,1.562,0.224,2.499v0.089c0,0.636-0.09,1.462-0.268,2.499
					c0,0.613-0.257,1.315-0.759,2.097c-0.134,0.658-0.368,0.981-0.714,0.981c-0.146,0.391-0.457,0.58-0.937,0.58
					c-0.19,0-0.559-0.057-1.116-0.18c-0.558,0.123-0.926,0.18-1.115,0.18H21.39c-0.77,0-1.315-0.535-1.65-1.606
					c-0.323-0.591-0.603-1.506-0.848-2.722c0-0.212-0.012-0.323-0.045-0.356l0.09-0.848c-0.034-0.479-0.045-0.915-0.045-1.294
					v-0.179c0-1.351,0.078-2.053,0.223-2.098c-0.033-0.056-0.044-0.101-0.044-0.134c0-0.268,0.134-0.903,0.401-1.919
					c0-0.391,0.301-1.428,0.893-3.123c0.278-0.335,0.546-0.524,0.803-0.58c0.703-0.268,1.428-0.401,2.187-0.401
					C24.558,129.885,25.361,130.6,25.763,132.028z M22.862,132.162c-0.123,0.437-0.257,1.249-0.401,2.454v0.759
					c0,0.101-0.045,0.2-0.134,0.313v0.179c0,0.781-0.033,1.271-0.09,1.473c0.034,0.2,0.045,0.368,0.045,0.49v0.446
					c0,1.06,0.167,2.442,0.491,4.148h0.044c0.257-0.355,0.48-1.104,0.67-2.229c0.122-0.882,0.178-1.773,0.178-2.677
					c0-0.458-0.056-1.217-0.178-2.275v-0.224c0-0.123,0.011-0.29,0.044-0.491c-0.233-0.959-0.445-1.751-0.624-2.364L22.862,132.162
					L22.862,132.162z"/>
				<path fill="#48172D" d="M36.104,129.061c0.603,0,0.971,0.233,1.115,0.714c0.324,0.735,0.658,1.885,0.981,3.436l0.269,1.65
					l-0.045,0.625c0.033,0.78,0.045,1.315,0.045,1.605c0,0.681-0.146,1.551-0.446,2.633c-0.101,1.963-0.224,2.943-0.357,2.943
					c-0.391,1.082-1.171,1.952-2.32,2.588c-0.947,0.413-1.751,0.625-2.409,0.625h-0.044l-0.09,0.045v-0.045l-0.089,0.045
					c-0.436,0-0.926-0.302-1.473-0.893c-0.469-0.613-0.914-1.439-1.338-2.454c-0.391-1.193-0.58-2.588-0.58-4.194
					c0-0.468,0.1-2.787,0.312-6.96v-0.714c0-0.535,0.212-0.803,0.625-0.803c0.335-0.146,0.681-0.224,1.026-0.224h0.268l0.089-0.044
					v0.044c0.034,0,0.045-0.012,0.045-0.044c0.58,0,1.037,0.277,1.383,0.848c0.123,0.424,0.179,0.747,0.179,0.98
					c-0.056,0.691-0.089,1.139-0.089,1.34c0,0.167,0.089,0.734,0.268,1.694c-0.033,0.714-0.078,1.282-0.134,1.695l0.089,1.115
					l-0.044,0.089c0,0.067,0.011,0.123,0.044,0.179c-0.033,0.392-0.044,0.703-0.044,0.938v0.669c0,0.457,0.056,1.093,0.178,1.918
					h-0.044c0.056,0.356,0.134,0.681,0.223,0.981c0.167-0.155,0.401-1.038,0.714-2.633c0-0.188,0.134-0.971,0.401-2.32
					c0.123-0.591,0.189-1.906,0.224-3.926c0.033,0,0.056-0.179,0.089-0.536c-0.033-0.366-0.067-0.567-0.089-0.624h0.044
					c-0.056-0.155-0.089-0.502-0.089-1.025v-1.115c0-0.413,0.313-0.691,0.937-0.848L36.104,129.061L36.104,129.061z"/>
				<path fill="#48172D" d="M46.991,128.67c0.524,0.514,0.903,1.584,1.16,3.213c0.033,0.523,0.044,0.836,0.044,0.938
					c-0.234,2.32-0.446,3.479-0.624,3.479c0,0.111-0.224,0.469-0.67,1.07c-0.502,0.413-0.836,0.714-0.981,0.894l-0.044,0.089
					c0.77,0.882,1.249,1.673,1.428,2.364c0,0.189,0.223,0.702,0.669,1.518c0,0.11,0.278,0.993,0.848,2.633
					c0.056,0.233,0.089,0.49,0.089,0.758v0.134c0,0.413-0.145,0.658-0.446,0.76c-0.412,0.123-0.735,0.188-0.981,0.223
					c-0.658,0-1.115-0.401-1.383-1.204c-0.179-0.502-0.479-1.104-0.893-1.829c-0.167-0.726-0.356-1.271-0.58-1.65
					c-0.089-0.212-0.134-0.356-0.134-0.446h-0.044c0,0.123-0.034,0.436-0.09,0.938c0.012,0.356,0.045,0.535,0.09,0.535
					c-0.057,0.123-0.09,0.368-0.09,0.714v0.849c0,0.101-0.011,0.233-0.045,0.4c0.123,0.324,0.179,0.614,0.179,0.894
					c0,0.335-0.368,0.547-1.115,0.625c-0.668,0-1.059-0.134-1.159-0.401c-0.412-1.395-0.624-3.291-0.624-5.711l-0.224-2.588
					l0.089-0.804c-0.056-0.391-0.089-0.78-0.089-1.16V135.5c0-0.379,0.012-0.792,0.045-1.249c-0.033-0.123-0.045-0.233-0.045-0.356
					l0.089-0.535c-0.056-0.424-0.089-0.881-0.089-1.383c0.156-1.294,0.368-2.153,0.625-2.588c0.089,0,0.212-0.224,0.356-0.669
					c0.657-0.593,1.326-0.894,2.007-0.894c0.012,0,0.212-0.011,0.58-0.045C45.976,127.778,46.668,128.08,46.991,128.67z
					 M43.957,131.169c0,0.591,0.078,1.371,0.223,2.364v0.223c0,0.102-0.011,0.234-0.044,0.402c0.122,0.39,0.178,0.926,0.178,1.605
					l0.045,0.179c0.681-0.591,1.026-1.784,1.026-3.569c0-1.528-0.313-2.564-0.937-3.123h-0.045c-0.257,0-0.401,0.568-0.446,1.695
					V131.169z M44.403,141.475v0.09h0.045v-0.09H44.403z"/>
				<path fill="#48172D" d="M66.178,128.146c0.68,0,1.082,0.146,1.204,0.445c0.212,0.189,0.313,0.804,0.313,1.829
					c0.212,0.748,0.313,1.351,0.313,1.785c0,0.122-0.033,0.412-0.09,0.893c0.057,0.568,0.123,1.473,0.18,2.722
					c0.032,0,0.045,0.034,0.045,0.09c-0.18,0.992-0.269,1.494-0.269,1.517c0,0.023,0.011,0.111,0.044,0.269
					c0,0.188-0.011,0.446-0.044,0.759c0.033,0.368,0.044,0.726,0.044,1.071l-0.178,0.848c0.089,0.445,0.134,0.813,0.134,1.115v0.624
					c0,0.479-0.045,0.804-0.134,0.98c0.033,0.168,0.044,0.279,0.044,0.357c0,0.603-0.033,1.082-0.089,1.428
					c0.089,0.234,0.134,0.491,0.134,0.759v0.09c0,0.257-0.313,0.424-0.937,0.49c-0.146,0-0.369,0.012-0.67,0.044
					c-0.58,0-0.938-0.212-1.07-0.623c-0.303-0.781-0.446-1.507-0.446-2.188v-0.089c0-0.056-0.033-0.09-0.089-0.09
					c-0.592,0-0.893,0.056-0.893,0.179v0.045c0,0.167,0.055,0.636,0.178,1.428c-0.045,0.804-0.211,1.204-0.49,1.204
					c-0.167,0.18-0.335,0.269-0.491,0.269h-0.223c-0.067,0-0.123-0.012-0.179-0.044c-0.045,0-0.213,0.122-0.49,0.355
					c-0.168,0.033-0.303,0.045-0.402,0.045H61.27c-0.77,0-1.16-0.502-1.16-1.517c-0.211-1.272-0.313-2.666-0.313-4.194
					c0.09-0.302,0.135-1.729,0.135-4.283v-0.313c0-0.491,0.077-1.339,0.223-2.543c0.09-1.506,0.135-2.376,0.135-2.633l-0.18-1.563
					c0-0.29,0.357-0.479,1.072-0.58c0.088,0,0.188,0.013,0.312,0.045c0.123-0.032,0.233-0.045,0.356-0.045
					c0.502,0,0.76,0.234,0.76,0.714c0.134,0,0.232,0.357,0.312,1.071c0,0.011-0.011,0.212-0.044,0.58
					c0.145,0.836,0.223,1.55,0.223,2.142v0.044c0,0.392-0.033,0.658-0.088,0.805c0.032,0.145,0.055,0.591,0.088,1.338
					c-0.033,0.592-0.045,0.926-0.045,0.981c0,0.356,0.102,1.249,0.313,2.678c0,0.681,0.077,1.506,0.224,2.454h0.045
					c0.391-0.091,0.635-0.135,0.758-0.135h0.135l0.045-0.224c0-0.691-0.012-1.45-0.045-2.275c0.123-0.837,0.188-1.527,0.224-2.053
					c-0.056-0.502-0.09-0.881-0.09-1.159c0.09-1.473,0.134-3.972,0.134-7.496c0-0.212,0.357-0.367,1.071-0.445H66.178z"/>
				<path fill="#48172D" d="M74.512,129.607c0.122-0.057,0.313-0.089,0.557-0.089c0.771,0.078,1.483,0.134,2.164,0.167
					c0.436,0.233,0.646,0.523,0.646,0.882c-0.391,0.792-1.171,1.182-2.331,1.182h-0.524l-0.211,0.045v-0.045l-0.09,0.045
					c-0.056-0.033-0.111-0.045-0.166-0.045c-0.091,0.225-0.135,0.437-0.135,0.625v0.089c0,0.225,0.012,0.515,0.044,0.883
					l-0.212,0.591c0.045,0.413,0.102,0.625,0.168,0.625s0.278-0.013,0.646-0.045c1.127,0.257,1.685,0.445,1.685,0.547
					c0.179,0.155,0.269,0.322,0.269,0.513c-0.189,0.446-0.547,0.669-1.082,0.669c-0.09,0-0.524,0.146-1.306,0.425h-0.168
					l0.046,0.077c0,0.078-0.012,0.123-0.046,0.123c0.034,0.335,0.046,0.569,0.046,0.714v0.637c0,0.188-0.033,0.625-0.09,1.306
					c0.033,0.223,0.09,0.424,0.178,0.591l-0.043,0.502v0.412c0,1.049,0.055,1.774,0.166,2.187c-0.033,0.29-0.045,0.515-0.045,0.682
					v0.078c0,0.167,0.102,0.257,0.303,0.257c0.522,0,1.06-0.034,1.604-0.09c0.692,0,1.038,0.167,1.038,0.502
					c-0.303,0.837-1.283,1.228-2.945,1.192c-1.314,0.102-2.242-0.021-2.787-0.379c-0.324-1.482-0.492-2.943-0.492-4.384
					c0-0.446,0.035-0.992,0.091-1.64c-0.056-0.2-0.123-0.658-0.179-1.383l0.088-0.972c-0.032-0.065-0.056-0.547-0.088-1.428
					l0.211-2.732c-0.056-0.179-0.078-0.302-0.078-0.38v-0.167c0-0.134,0.012-0.268,0.045-0.413c-0.033-0.188-0.055-0.322-0.09-0.379
					c0.035-0.233,0.045-0.435,0.045-0.591v-0.882c0-0.233,0.313-0.479,0.949-0.714c0.322,0,0.479-0.012,0.479-0.044
					C73.719,129.429,74.266,129.518,74.512,129.607z"/>
				<path fill="#48172D" d="M84.695,129.206c0.502,0,1.07,0.636,1.695,1.919c0,0.301,0.146,0.682,0.445,1.115
					c0.123,0.636,0.234,1.071,0.313,1.294c0.146,0.446,0.224,0.771,0.224,0.981c0,0.077-0.033,0.167-0.089,0.268
					c0.123,0,0.223,0.458,0.313,1.384c0.234,0.702,0.356,1.405,0.356,2.098c0.077,0.233,0.146,0.546,0.179,0.937l-0.134,0.804
					c0.123,0.323,0.179,0.535,0.179,0.624c0,0.057-0.033,0.212-0.09,0.446c0.09,0.212,0.135,0.401,0.135,0.58
					c-0.033,0.301-0.045,0.479-0.045,0.535c0.09,0,0.178,0.268,0.268,0.804l-0.045,0.089v0.045c0.09,1.216,0.135,1.862,0.135,1.963
					v0.224c0,0.445-0.123,0.67-0.355,0.67c-0.27,0.145-0.615,0.223-1.027,0.223c-0.702,0-1.127-0.145-1.248-0.445
					c-0.647-1.282-1.016-2.666-1.116-4.149c-0.033-0.089-0.356-0.146-0.981-0.178h-0.268c-0.033,0-0.078,0.056-0.135,0.178
					l0.046,0.09v0.269c0,0.155-0.046,0.391-0.134,0.714c0.065,0.445,0.11,0.669,0.134,0.669c-0.056,0.257-0.189,0.592-0.401,0.98
					c0,0.559-0.102,0.882-0.313,0.981c-0.234,0.179-0.414,0.269-0.536,0.269c-0.837,0-1.339-0.346-1.517-1.025v-0.535
					c0-0.792,0.101-1.818,0.313-3.079c0-0.167-0.012-0.547-0.045-1.115c0.234-1.294,0.58-3.425,1.025-6.38
					c0.392-1.64,0.58-2.644,0.58-2.989c0.123-0.302,0.413-0.536,0.848-0.714c0.102-0.356,0.525-0.536,1.25-0.536h0.043V129.206z
					 M84.204,134.292c-0.146,1.315-0.323,2.51-0.535,3.569v0.089c0,0.257,0.013,0.524,0.045,0.803
					c-0.09,0.446-0.134,0.837-0.134,1.16c0.301,0.034,0.523,0.045,0.669,0.045h0.401v-0.045c0-0.145-0.033-0.479-0.09-0.98
					c0.09-0.47,0.135-0.858,0.135-1.16v-0.224c0-0.947-0.146-2.041-0.446-3.257H84.204z"/>
				<path fill="#48172D" d="M97,128.67c0.523,0.514,0.902,1.584,1.16,3.213c0.033,0.523,0.044,0.836,0.044,0.938
					c-0.233,2.32-0.446,3.479-0.624,3.479c0,0.111-0.225,0.469-0.67,1.07c-0.502,0.413-0.836,0.714-0.98,0.894l-0.045,0.089
					c0.77,0.882,1.249,1.673,1.428,2.364c0,0.189,0.224,0.702,0.67,1.518c0,0.11,0.277,0.993,0.848,2.633
					c0.057,0.233,0.089,0.49,0.089,0.758v0.134c0,0.413-0.146,0.658-0.446,0.76c-0.412,0.123-0.734,0.188-0.98,0.223
					c-0.658,0-1.115-0.401-1.383-1.204c-0.18-0.502-0.479-1.104-0.894-1.829c-0.167-0.726-0.356-1.271-0.579-1.65
					c-0.09-0.212-0.135-0.356-0.135-0.446h-0.044c0,0.123-0.034,0.436-0.09,0.938c0.012,0.356,0.045,0.535,0.09,0.535
					c-0.058,0.123-0.09,0.368-0.09,0.714v0.849c0,0.101-0.011,0.233-0.044,0.4c0.121,0.324,0.178,0.614,0.178,0.894
					c0,0.335-0.368,0.547-1.115,0.625c-0.669,0-1.06-0.134-1.16-0.401c-0.412-1.395-0.623-3.291-0.623-5.711l-0.225-2.588
					l0.09-0.804c-0.057-0.391-0.09-0.78-0.09-1.16V135.5c0-0.379,0.012-0.792,0.045-1.249c-0.033-0.123-0.045-0.233-0.045-0.356
					l0.09-0.535c-0.057-0.424-0.09-0.881-0.09-1.383c0.156-1.294,0.368-2.153,0.625-2.588c0.089,0,0.212-0.224,0.355-0.669
					c0.658-0.593,1.328-0.894,2.009-0.894c0.012,0,0.212-0.011,0.58-0.045C95.984,127.778,96.677,128.08,97,128.67z M93.966,131.169
					c0,0.591,0.078,1.371,0.224,2.364v0.223c0,0.102-0.012,0.234-0.045,0.402c0.123,0.39,0.18,0.926,0.18,1.605l0.044,0.179
					c0.681-0.591,1.026-1.784,1.026-3.569c0-1.528-0.313-2.564-0.938-3.123h-0.045c-0.258,0-0.4,0.568-0.446,1.695V131.169z
					 M94.412,141.475v0.09h0.045v-0.09H94.412z"/>
				<path fill="#48172D" d="M106.884,128.458c0.959,0.146,1.729,0.257,2.319,0.313c0.302,0.346,0.445,0.603,0.445,0.759
					c0,0.591-0.346,1.003-1.025,1.249c-0.391,0.122-0.758,0.179-1.115,0.179h-1.249c-0.032,0.167-0.045,0.278-0.045,0.356
					c0.212,0.902,0.313,1.438,0.313,1.605c-0.033,0.234-0.078,0.412-0.135,0.535c0.123,0.212,0.213,0.436,0.269,0.669l-0.089,0.67
					l0.178,2.008c-0.057,0.302-0.089,0.49-0.089,0.579c0.089,0.502,0.134,0.814,0.134,0.938c-0.056,0.435-0.089,0.77-0.089,0.98
					v0.18c0.056,1.171,0.089,1.796,0.089,1.874l-0.045,0.4c0.146,0.47,0.225,0.903,0.225,1.294v0.09
					c-0.09,0.657-0.135,1.06-0.135,1.204c0.18,0.78,0.268,1.261,0.268,1.429c0,0.391-0.703,0.657-2.096,0.803
					c-0.548,0-0.883-0.123-1.027-0.356c-0.391-0.592-0.58-2.131-0.58-4.596c-0.032,0-0.045-0.123-0.045-0.356
					c0.022-0.356,0.057-0.535,0.091-0.535l-0.046-0.446v-0.848c0-0.568-0.045-1.061-0.133-1.474l0.088-0.758
					c-0.145-1.082-0.268-3.224-0.355-6.425c-0.268-0.056-0.882-0.146-1.829-0.269c-0.179-0.134-0.269-0.278-0.269-0.445
					c0.057-0.727,0.412-1.104,1.07-1.127c1.193-0.212,2.275-0.347,3.258-0.392c0-0.032,0.045-0.044,0.134-0.044
					c0.067,0,0.123,0.012,0.179,0.044c0.258-0.032,0.457-0.044,0.625-0.044h0.445L106.884,128.458z"/>
			</g>
			<g>
				<path fill="#48172D" d="M18.202,85.215c4.544,0,7.198,1.331,7.961,3.966c0.332,0.963,0.896,2.011,1.726,3.172
					c0.231,0.623,0.431,1.783,0.53,3.512c0.962,3.285,1.46,6.542,1.46,9.742c0,3.937-0.697,7.59-2.123,10.987
					c-0.365,1.161-1.161,2.097-2.389,2.832c-0.266,0.651-1.327,1.219-3.185,1.699c-1.891,0.313-3.251,0.453-4.113,0.453h-0.531
					c-5.539,0-9.454-5.126-11.677-15.406c-0.1-1.756-0.166-2.889-0.265-3.397c0-1.076,0.431-3.568,1.326-7.478
					c0-1.02,1.028-3.397,3.052-7.137c0.631-1.586,2.156-2.379,4.512-2.379h1.194c1.028-0.368,1.593-0.566,1.725-0.566H18.202z
					 M16.079,97.676c-0.266,1.389-0.398,2.747-0.398,4.078c0,0.991,0.299,3.257,0.929,6.797v0.228c0,0.085-0.033,0.113-0.133,0.113
					c0.995,1.331,1.792,3.002,2.389,4.983c0.365,0.766,0.696,1.218,1.062,1.359c1.062-1.474,1.593-4.391,1.593-8.724l-0.133-0.227
					c0-0.085,0.033-0.113,0.133-0.113c-0.365-3.482-0.896-6.372-1.593-8.723c-0.63-1.359-1.228-3.313-1.857-5.891
					c-0.365-0.453-0.664-0.708-0.929-0.793C16.443,92.267,16.079,94.561,16.079,97.676z"/>
				<path fill="#48172D" d="M48.818,86.546c0,0.113,0.829,0.991,2.521,2.605c0.266,1.02,0.93,2.945,1.99,5.776
					c-0.099,0.481-0.265,0.936-0.53,1.359c0.432,2.039,0.663,3.257,0.663,3.625v1.021c0,0.48-0.033,1.245-0.133,2.266h0.133
					c-0.63,3.88-1.592,6.599-2.919,8.156c-0.266,0.82-1.228,1.841-2.919,3.059c-0.365,1.133-1.692,1.699-3.98,1.699
					c-0.232,1.076-0.564,3.37-0.929,6.91c-0.099,0-0.198,0.227-0.265,0.68l0.133,0.793c0,0.85-1.858,1.529-5.573,2.039h-0.796
					c-1.858,0-2.787-0.34-2.787-1.02c-0.53-0.851-0.929-2.662-1.194-5.438c0-0.255,0.266-1.558,0.797-3.965
					c0-0.396-0.033-1.048-0.133-1.926c0.1-1.444,0.133-2.635,0.133-3.625c-0.365-2.012-0.531-4.163-0.531-6.457
					c0-0.17,0.033-0.313,0.133-0.453c-0.1-0.425-0.133-0.766-0.133-1.021v-1.586c0-0.312,0.033-0.453,0.133-0.453L32.498,99.8
					v-3.852c0-0.991,0.1-3.965,0.266-8.949c0.1,0,0.133-0.027,0.133-0.113h-0.133l0.133-0.227v-1.246
					c0-0.821,1.592-1.586,4.776-2.266c1.759-0.085,2.754-0.113,2.919-0.113C43.112,83.035,45.866,84.196,48.818,86.546z
					 M42.715,88.925v0.113c0.431,1.331,0.696,2.294,0.796,2.832l-0.133,1.021c0.1,0.905,0.133,1.586,0.133,2.039l-0.133,0.452
					c0.166,0.708,0.497,2.407,0.929,5.099l-0.796,2.944c0,0.651,0.232,2.237,0.663,4.759v0.112c0,0.681-0.133,1.729-0.397,3.172
					c0.431,0,1.359-2.181,2.786-6.569c0.232,0,0.365-0.878,0.397-2.605c-0.231-3.965-0.696-6.569-1.326-7.815
					c-0.896-2.067-1.825-3.908-2.787-5.552L42.715,88.925L42.715,88.925z"/>
				<path fill="#48172D" d="M65.57,83.346c0.363-0.143,0.929-0.228,1.658-0.228c2.289,0.198,4.412,0.34,6.436,0.425
					c1.294,0.596,1.924,1.331,1.924,2.237c-1.161,2.011-3.482,3.002-6.934,3.002h-1.559l-0.631,0.113v-0.113L66.2,88.897
					c-0.166-0.085-0.332-0.113-0.497-0.113c-0.266,0.566-0.398,1.104-0.398,1.586v0.228c0,0.565,0.033,1.303,0.133,2.236
					l-0.629,1.501c0.131,1.048,0.297,1.586,0.496,1.586s0.829-0.027,1.924-0.112c3.352,0.65,5.01,1.133,5.01,1.388
					c0.531,0.396,0.797,0.821,0.797,1.303c-0.564,1.133-1.626,1.699-3.219,1.699c-0.266,0-1.56,0.368-3.881,1.076h-0.498
					l0.133,0.198c0,0.197-0.032,0.312-0.133,0.312c0.101,0.85,0.133,1.444,0.133,1.813v1.613c0,0.481-0.1,1.586-0.266,3.313
					c0.1,0.565,0.266,1.076,0.531,1.501l-0.133,1.273v1.049c0,2.661,0.165,4.503,0.497,5.551c-0.101,0.735-0.134,1.303-0.134,1.728
					v0.198c0,0.425,0.3,0.651,0.896,0.651c1.561,0,3.15-0.085,4.777-0.228c2.057,0,3.085,0.425,3.085,1.274
					c-0.896,2.124-3.813,3.114-8.759,3.029c-3.914,0.256-6.666-0.057-8.292-0.963c-0.962-3.767-1.459-7.477-1.459-11.13
					c0-1.133,0.099-2.521,0.265-4.163c-0.166-0.51-0.364-1.671-0.53-3.512l0.266-2.464c-0.1-0.17-0.166-1.388-0.266-3.625
					l0.63-6.938c-0.166-0.452-0.232-0.765-0.232-0.963V90.37c0-0.34,0.033-0.68,0.133-1.048c-0.1-0.481-0.166-0.821-0.265-0.963
					c0.099-0.595,0.132-1.104,0.132-1.501v-2.237c0-0.595,0.929-1.218,2.819-1.813c0.963,0,1.426-0.028,1.426-0.113
					C63.215,82.893,64.84,83.12,65.57,83.346z"/>
				<path fill="#48172D" d="M99.404,80.769c1.428,0,2.123,0.425,2.123,1.246c0.134,0,0.267,0.82,0.398,2.491
					c0.53,0.991,0.896,1.784,1.063,2.379l-0.266,5.324c0.266,1.076,0.397,2.437,0.397,4.078v0.113c0,0.963-0.134,1.728-0.397,2.266
					c0.166,0.736,0.266,1.756,0.266,3.06v0.112c0,1.331-0.133,2.294-0.398,2.945c0.1,0.651,0.133,1.076,0.133,1.246
					c0,3.257-0.166,5.438-0.529,6.57c0.1,1.501,0.133,2.464,0.133,2.944c0,0.255-0.133,1.048-0.398,2.379l0.133,1.586
					c0,2.097-2.422,3.568-7.297,4.418c-1.395,0-2.621-0.793-3.717-2.379c-0.365-1.218-1.229-3.652-2.652-7.25l-1.992-6.004H86.27
					c-0.1,0.766-0.133,1.331-0.133,1.699v0.453c0.166,3.965,0.266,6.146,0.266,6.57c-0.198,3.172-0.432,4.898-0.664,5.211
					c-1.193,0.68-2.288,1.02-3.316,1.02c-3.085,0-4.645-1.444-4.645-4.305c0.266-3.257,0.397-5.126,0.397-5.551
					c-0.364-2.237-0.53-3.738-0.53-4.531c0-0.255,0.101-0.765,0.266-1.586l-0.133-0.681c0.101-0.765,0.133-1.388,0.133-1.813
					c0-0.708-0.1-1.671-0.266-2.945c0.432-4.163,0.797-8.383,1.063-12.688c-0.1-1.529-0.133-2.577-0.133-3.172
					c0-1.897,0.431-2.832,1.326-2.832c0.531-0.228,1.195-0.34,1.99-0.34c3.549,0,5.309,0.34,5.309,1.02
					c0.133,0.481,0.695,1.189,1.725,2.152c0.398,0.623,0.797,1.501,1.194,2.604c0.896,0.851,1.327,2.067,1.327,3.625
					c1.062,0.878,1.592,2.237,1.592,4.078c0.697,0.821,1.294,2.747,1.727,5.777c0.264,0.057,0.396,0.48,0.396,1.246h0.133
					c0-0.538,0.232-2.69,0.664-6.457c0-1.954,0.031-3.087,0.132-3.398c-0.101-0.368-0.132-0.878-0.132-1.473V91.3
					c0-0.396,0.031-0.735,0.132-1.02c-0.101-0.396-0.132-0.765-0.132-1.133v-1.474c0.266-1.671,0.396-2.774,0.396-3.284v-2.38
					c0-0.65,0.797-1.075,2.39-1.245h0.661V80.769z M95.025,103.765v0.34h0.134v-0.34H95.025z"/>
			</g>
		</g>
		<g>
			<g>
				<g>
					<g>
						<path fill="#48172D" d="M82.704,68.452c0.672,2.648-0.94,5.336-3.591,6.006L32.966,86.13c-2.648,0.671-5.333-0.93-6.004-3.58
							l-0.808-3.197c-0.673-2.646,0.931-5.33,3.577-6l46.15-11.673c2.651-0.672,5.344,0.928,6.014,3.572L82.704,68.452z"/>
						<path fill="#6BC6B5" d="M82.083,65.998c0.67,2.651-0.938,5.339-3.59,6.01L32.343,83.68c-2.646,0.67-5.331-0.933-6.002-3.583
							l-8.717-34.464c-0.67-2.646,0.932-5.335,3.578-6.003l46.149-11.675c2.65-0.67,5.346,0.933,6.016,3.579L82.083,65.998z"/>
						<path fill="#5CAA9B" d="M67.354,27.956l-23.172,5.862l11.141,44.05l23.172-5.86c2.652-0.671,4.26-3.357,3.59-6.01
							l-8.716-34.463C72.697,28.887,70.003,27.286,67.354,27.956z"/>
						<path fill="#48172D" d="M74.173,34.727c0.671,2.646-0.937,5.346-3.587,6.017L24.438,52.416
							c-2.647,0.67-5.335-0.941-6.005-3.59l-0.809-3.192c-0.67-2.646,0.932-5.335,3.578-6.003l46.149-11.675
							c2.65-0.67,5.346,0.933,6.016,3.579L74.173,34.727z"/>
						<g>
							<g>
								<path fill="#F6E4E7" d="M63.324,38.5c-1.854,0.47-3.735-0.661-4.205-2.509l-2.667-10.549
									c-1.539-6.079-7.742-9.773-13.817-8.237l-4.796,1.214c-6.08,1.538-9.771,7.734-8.233,13.813l2.667,10.548
									c0.469,1.85-0.652,3.739-2.512,4.211c-1.852,0.467-3.734-0.663-4.201-2.514L22.892,33.93
									c-2.472-9.774,3.47-19.748,13.25-22.223l4.797-1.213c9.779-2.474,19.749,3.477,22.221,13.25l2.666,10.548
									C66.294,36.142,65.184,38.03,63.324,38.5L63.324,38.5z"/>
							</g>
							<path fill="#FFFFFF" d="M40.938,10.496l-2.168,0.549c-9.785,2.475-15.725,12.447-13.252,22.223l3.496,13.82
								c0.244-0.011,0.5-0.037,0.746-0.097c0.198-0.052,0.379-0.127,0.563-0.204c0.17-0.276,0.391-0.449,0.682-0.397l0.01-0.009
								c0.15-0.117,0.301-0.256,0.428-0.393c0.044-0.051,0.084-0.098,0.121-0.146c0.097-0.113,0.178-0.229,0.25-0.342
								c0.039-0.055,0.07-0.107,0.105-0.165c0.094-0.159,0.174-0.322,0.233-0.503c0.013-0.016,0.011-0.021,0.011-0.021
								c0.078-0.199,0.122-0.396,0.154-0.595c0.008-0.055,0.021-0.114,0.025-0.18c0.02-0.146,0.029-0.295,0.026-0.446
								c-0.007-0.062-0.003-0.129-0.007-0.187c-0.012-0.209-0.037-0.415-0.09-0.625l-2.667-10.548
								c-1.538-6.079,2.153-12.275,8.233-13.813l2.628-0.665l2.168-0.549l2.626-0.663c6.078-1.539,12.278,2.156,13.816,8.236
								l3.495,13.821c0.246-0.012,0.498-0.035,0.752-0.101c0.191-0.048,0.376-0.125,0.552-0.2c0.174-0.277,0.399-0.448,0.692-0.399
								v-0.006c0.152-0.116,0.302-0.254,0.435-0.395c0.045-0.051,0.085-0.099,0.127-0.147c0.088-0.11,0.172-0.227,0.246-0.341
								c0.038-0.054,0.067-0.106,0.103-0.163c0.1-0.162,0.178-0.324,0.233-0.504c0.015-0.016,0.021-0.022,0.021-0.022
								c0.071-0.199,0.115-0.395,0.146-0.593c0.016-0.057,0.016-0.114,0.021-0.18c0.019-0.145,0.031-0.295,0.031-0.445
								c-0.006-0.063-0.011-0.128-0.013-0.188c-0.01-0.207-0.038-0.412-0.094-0.623l-2.666-10.548
								C60.688,13.971,50.718,8.022,40.938,10.496z"/>
						</g>
					</g>
					<g>
						<path fill="#48172D" d="M55.544,58.681c0.652,2.579-0.914,5.198-3.489,5.853c-2.579,0.651-5.192-0.911-5.845-3.49
							c-0.652-2.58,0.903-5.197,3.482-5.851C52.269,54.542,54.892,56.101,55.544,58.681z"/>
						<polygon fill="#48172D" points="49.884,55.942 53.449,61.808 57.011,67.672 53.099,68.663 49.183,69.653 49.534,62.799 						
							"/>
					</g>
				</g>
			</g>
			<g>
				<path fill="#EF6159" d="M56.966,10.58l0.349-1.037c1.273-3.762-0.749-7.844-4.515-9.116L52.659,0.38
					c-3.766-1.27-7.843,0.751-9.113,4.516l-0.352,1.034l-1.036-0.351c-3.764-1.267-7.846,0.753-9.116,4.513l-0.047,0.144
					c-1.271,3.765,0.75,7.847,4.515,9.116l1.033,0.351l13.774,4.65L56.966,10.58z"/>
			</g>
			<g>
				<g>
					<defs>
						<circle id="SVGID_1_" cx="35.189" cy="15.677" r="4.131"/>
					</defs>
					<clipPath id="SVGID_2_">
						<use xlink:href="#SVGID_1_"  overflow="visible"/>
					</clipPath>
					<g clip-path="url(#SVGID_2_)">
						<g>
							<path fill="#F6E4E7" d="M63.324,38.5c-1.854,0.47-3.735-0.661-4.205-2.509l-2.667-10.549
								c-1.539-6.079-7.742-9.773-13.817-8.237l-4.796,1.214c-6.08,1.538-9.771,7.734-8.233,13.813l2.667,10.548
								c0.469,1.85-0.652,3.739-2.512,4.211c-1.852,0.467-3.734-0.663-4.201-2.514L22.892,33.93
								c-2.472-9.774,3.47-19.748,13.25-22.223l4.797-1.213c9.779-2.474,19.749,3.477,22.221,13.25l2.666,10.548
								C66.294,36.142,65.184,38.03,63.324,38.5L63.324,38.5z"/>
						</g>
						<path fill="#FFFFFF" d="M40.938,10.496l-2.168,0.549c-9.785,2.475-15.725,12.447-13.252,22.223l3.496,13.82
							c0.244-0.011,0.5-0.037,0.746-0.097c0.198-0.052,0.379-0.127,0.563-0.204c0.17-0.276,0.391-0.449,0.682-0.397l0.01-0.009
							c0.15-0.117,0.301-0.256,0.428-0.393c0.044-0.051,0.084-0.098,0.121-0.146c0.097-0.113,0.178-0.229,0.25-0.342
							c0.039-0.055,0.07-0.107,0.105-0.165c0.094-0.159,0.174-0.322,0.233-0.503c0.013-0.016,0.011-0.021,0.011-0.021
							c0.078-0.199,0.122-0.396,0.154-0.595c0.008-0.055,0.021-0.114,0.025-0.18c0.02-0.146,0.029-0.295,0.026-0.446
							c-0.007-0.062-0.003-0.129-0.007-0.187c-0.012-0.209-0.037-0.415-0.09-0.625l-2.667-10.548
							c-1.538-6.079,2.153-12.275,8.233-13.813l2.628-0.665l2.168-0.549l2.626-0.663c6.078-1.539,12.278,2.156,13.816,8.236
							l3.495,13.821c0.246-0.012,0.498-0.035,0.752-0.101c0.191-0.048,0.376-0.125,0.552-0.2c0.174-0.277,0.399-0.448,0.692-0.399
							v-0.006c0.152-0.116,0.302-0.254,0.435-0.395c0.045-0.051,0.085-0.099,0.127-0.147c0.088-0.11,0.172-0.227,0.246-0.341
							c0.038-0.054,0.067-0.106,0.103-0.163c0.1-0.162,0.178-0.324,0.233-0.504c0.015-0.016,0.021-0.022,0.021-0.022
							c0.071-0.199,0.115-0.395,0.146-0.593c0.016-0.057,0.016-0.114,0.021-0.18c0.019-0.145,0.031-0.295,0.031-0.445
							c-0.006-0.063-0.011-0.128-0.013-0.188c-0.01-0.207-0.038-0.412-0.094-0.623l-2.666-10.548
							C60.688,13.971,50.718,8.022,40.938,10.496z"/>
					</g>
				</g>
			</g>
		</g>
	</g>
</g>
</svg>
