<?xml version="1.0" encoding="utf-8"?>
<!-- Generator: Adobe Illustrator 16.0.0, SVG Export Plug-In . SVG Version: 6.00 Build 0)  -->
<!DOCTYPE svg PUBLIC "-//W3C//DTD SVG 1.1//EN" "http://www.w3.org/Graphics/SVG/1.1/DTD/svg11.dtd">
<svg version="1.1" id="Layer_1" xmlns="http://www.w3.org/2000/svg" xmlns:xlink="http://www.w3.org/1999/xlink" x="0px" y="0px"
	 width="147.807px" height="124.598px" viewBox="0 0 147.807 124.598" enable-background="new 0 0 147.807 124.598"
	 xml:space="preserve">
<path fill="#999999" d="M126.84,30.142c0-0.629-0.054-1.213-0.151-1.755c-0.121-3.798-0.877-7.47-2.252-10.937
	c-2.142-7.115-7.191-11.186-13.912-11.186c-2.995,0-5.932,0.518-8.734,1.535c-2.095,0.607-4.004,1.934-5.688,3.951
	c-0.08,0.097-0.138,0.208-0.213,0.308c-0.39-2.896-2.409-7.729-11.413-8.564c-0.216-0.021-0.432-0.03-0.646-0.03
	c-0.158,0-0.315,0.111-0.474,0.122c-0.156-0.011-0.314,0.09-0.473,0.09c-0.068,0-0.676,0-0.676,0c-0.767,0-1.526,0.02-2.252,0.266
	c-2.975,1.012-4.777,2.399-5.869,3.891c-1.576-1.999-4.442-3.831-9.623-4.313c-0.216-0.021-0.432-0.043-0.646-0.043
	c-0.157,0-0.314,0.104-0.473,0.115c-0.157-0.011-0.315,0.083-0.473,0.083c-0.068,0-0.677,0-0.677,0c-0.766,0-1.525,0.02-2.252,0.266
	c-1.729,0.588-3.059,1.271-4.089,2.076c-0.545-0.165-1.107-0.296-1.681-0.324C52.264,5.599,50.24,5.429,47.99,5.2
	c-0.235-0.023-0.472-0.042-0.707-0.042c-0.553,0-1.084,0.025-1.597,0.088c-1.025-0.191-2.424-0.387-4.411-0.57
	c-0.215-0.02-0.43-0.082-0.643-0.082c-0.462,0-0.919,0.082-1.367,0.082c-0.027,0-0.055,0-0.084,0c-0.826,0-1.646,0.199-2.421,0.484
	c-0.033,0.012-0.063-0.111-0.096-0.098c-1.306-1.996-3.972-4.387-9.359-4.387h-0.945c-0.254,0-0.509,0.175-0.762,0.205
	c-4.16,0.455-6.516,1.996-7.838,3.627C16.682,4.107,15.488,3.93,14.21,3.93c-0.358,0-0.708,0.036-1.052,0.066
	c-0.323-0.03-0.647-0.035-0.975-0.035s-0.65,0.026-0.975,0.073c-8.599,1.209-9.267,6.957-9.267,8.688
	c0,0.267,0.016,0.532,0.045,0.795l0.487,4.267c-0.021,0.67-0.118,2.424-0.39,7.009c-0.482,4.045-0.715,6.616-0.715,8.318v0.945
	c0,8.58-0.16,10.892-0.222,11.43c-0.11,0.504-0.16,1.017-0.16,1.531c0,4.905,0.316,9.271,0.962,13.325
	c0.084,2.34,0.638,4.278,1.508,5.843c-0.753,1.006-1.317,2.277-1.563,3.854c-0.145,0.924-0.211,2.054-0.211,3.554
	c0,0.083,0.002,0.165,0.004,0.248c-0.002,0.089-0.004,0.57-0.004,0.57c-0.188,1.814-0.206,2.272-0.206,2.638
	c0,0.111,0.003,0.222,0.008,0.333c0.061,1.257,0.091,2.418,0.096,3.541c-0.065,0.926-0.115,2.175-0.153,3.801
	c-0.001,0.056-0.002,0.109-0.002,0.164c0,0.372,0.022,0.845,0.064,1.191c0.317,9.014,6.669,9.596,7.968,9.596h1.134
	c0.151,0,0.304-0.12,0.455-0.129c1.048-0.068,1.979-0.297,2.802-0.548c1.479,0.965,3.176,1.458,4.944,1.458
	c0.464,0,1.002-0.066,1.579-0.187c1.248,0.695,2.563,1.055,3.934,1.055c0.167,0,0.334-0.01,0.501-0.021l0.041-0.005
	c0.18,0.014,0.36,0.02,0.541,0.02c1.269,0,2.288-0.323,3.292-0.7c1.468-0.503,2.686-1.433,4.104-2.725
	c0.044-0.04,0.088-0.081,0.131-0.122c0.071-0.068,0.134-0.149,0.203-0.223c1.919,1.87,4.633,2.827,8.111,2.827
	c0.199,0,0.398,0.167,0.598,0.15c0.087-0.008,0.179,0.149,0.272,0.149h0.162c1.391,0,2.746-0.481,3.98-1.067
	c0.012-0.004,0.021-0.029,0.031-0.033c0.475,0.077,0.941,0.101,1.394,0.101h0.207c0.4,0,0.817-0.098,1.289-0.163
	c0.471,0.064,0.888,0.06,1.289,0.06c0.936,0,1.833-0.176,2.674-0.456c0.898,0.67,1.909,1.13,3.003,1.375l-0.98,0.976
	c-0.264,0.264-0.503,0.545-0.717,0.846l-4.738,4.738c-1.613,1.609-2.505,3.75-2.507,6.031c-0.002,2.293,0.895,4.452,2.521,6.079
	l7.903,7.9c1.625,1.637,3.787,2.536,6.089,2.536c2.278,0,4.421-0.887,6.03-2.496l4.627-4.628c0.348-0.238,0.677-0.512,0.984-0.818
	l18.87-18.871c0.269-0.2,0.525-0.424,0.771-0.666l35.444-35.445c0.464-0.431,0.875-0.931,1.216-1.492l16.143-26.555
	c1.676-2.758,1.249-6.303-1.033-8.584c-1.352-1.351-3.143-2.05-4.951-2.05c-1.25,0-2.508,0.334-3.634,1.019l-11.538,7.014
	C126.818,30.99,126.84,30.57,126.84,30.142z"/>
<g>
	<ellipse fill="#FFFFFF" cx="80.229" cy="68.612" rx="19" ry="22"/>
	<g>
		<path fill="#FFFFFF" d="M62.704,124.598c-2.302,0-4.462-0.899-6.087-2.536l-7.904-7.901c-1.626-1.626-2.521-3.786-2.521-6.079
			c0.002-2.28,0.893-4.422,2.507-6.032l4.737-4.739c0.214-0.3,0.453-0.583,0.716-0.847l18.849-18.846
			c0.205-0.279,0.434-0.547,0.686-0.799l35.301-35.301c0.459-0.523,1.006-0.986,1.631-1.367L137.17,24.01
			c1.126-0.685,2.384-1.019,3.634-1.019c1.81,0,3.603,0.699,4.952,2.049c2.282,2.28,2.708,5.827,1.034,8.585L130.647,60.18
			c-0.341,0.563-0.752,1.062-1.216,1.492L93.987,97.117c-0.243,0.243-0.501,0.466-0.77,0.667l-18.871,18.871
			c-0.308,0.308-0.638,0.581-0.984,0.819l-4.627,4.627C67.125,123.711,64.983,124.598,62.704,124.598L62.704,124.598z"/>
		<path fill="#FFFFFF" d="M53.662,109.21l6.662,6.662l0,0l1.258,1.256c0.61,0.615,1.598,0.629,2.203,0.022l5.528-5.528l0.082,0.082
			l19.588-19.588l0.054,0.051l35.625-35.625c0.002,0,0.004,0,0.004,0.002l11.297-18.584c0,0,0.002,0,0.002,0.002l4.842-7.971
			l-26.553,16.141c0.002,0.004,0.004,0.008,0.008,0.012L78.637,81.769l0.057,0.058l-19.59,19.588l0.066,0.063l-5.529,5.529
			C53.033,107.612,53.047,108.595,53.662,109.21z M123.516,55.937c0.301,0.103,0.59,0.252,0.867,0.429
			C124.104,56.19,123.816,56.038,123.516,55.937z M122.908,55.781c0.17,0.03,0.338,0.077,0.506,0.131
			C123.246,55.858,123.078,55.812,122.908,55.781z"/>
	</g>
	<g>
		<g>
			<path fill="#FFFFFF" d="M11.455,70.3c-5.092,0-10.227-3.395-10.499-10.956C0.313,55.29,0,50.924,0,46.019
				c0-0.516,0.057-1.028,0.169-1.531c0.06-0.539,0.235-2.85,0.235-11.43v-0.945c0-1.703,0.217-4.274,0.7-8.319
				c0.271-4.584,0.353-6.337,0.373-7.007l-0.486-4.266c-0.03-0.264-0.046-0.528-0.046-0.795c0-1.731,0.668-7.478,9.267-8.687
				c0.323-0.045,0.647-0.068,0.975-0.068s0.65,0.015,0.974,0.046c0.344-0.031,0.693-0.046,1.052-0.046
				c1.276,0,2.472,0.217,3.551,0.618c1.322-1.632,3.678-3.092,7.838-3.547C24.853,0.014,25.107,0,25.361,0h0.945
				c5.474,0,8.141,2.327,9.423,4.345c1.622,2.171,2.092,5.049,2.158,8.576c0.633,2.437,0.954,4.575,0.954,6.365
				c0,0.667-0.073,1.394-0.232,2.777c0.13,1.465,0.292,3.651,0.442,6.696c0.128,0.553,0.195,1.133,0.195,1.731
				c0,0.416-0.037,0.829-0.11,1.238c-0.274,1.523-0.477,2.651-0.607,3.39c0.029,0.256,0.043,0.515,0.043,0.772
				c0,0.732-0.036,1.521-0.107,2.35c0.073,1.006,0.107,2.055,0.107,3.187c0,0.484-0.05,0.968-0.149,1.442l-0.261,1.239
				c0.185,1.199,0.274,2.274,0.274,3.26v1.891c0,1.341-0.091,2.487-0.285,3.498c0.012,0.187,0.017,0.371,0.017,0.552
				c0,1.396-0.052,2.661-0.155,3.785c0.193,0.917,0.29,1.863,0.29,2.831v0.271c0,1.247-0.438,7.519-9.09,8.444
				c-0.248,0.026-0.496,0.04-0.745,0.04c-0.043,0-0.442,0.002-1.25,0.093c-0.257,0.029-0.516,0.043-0.775,0.043
				c-1.883,0-3.615-0.403-5.104-1.148c-1.227,0.836-2.585,1.352-3.992,1.506c-0.683,0.409-1.433,0.699-2.219,0.857
				c-0.901,0.18-1.773,0.271-2.591,0.271h-1.081V70.3z"/>
			<path fill="#FFFFFF" d="M42.605,67.633c-4.112,0-7.308-0.781-9.77-2.389c-1.538-1.005-2.619-2.573-3.01-4.368
				c-1.094-5.006-1.646-9.973-1.646-14.757c0-1.232,0.068-2.691,0.212-4.537c-0.145-0.855-0.313-2.143-0.462-4.072
				c-0.03-0.393-0.027-0.788,0.009-1.18l0.195-2.114c-0.095-0.984-0.146-2.292-0.219-4.234c-0.011-0.27-0.005-0.539,0.016-0.808
				l0.555-7.146c-0.114-0.604-0.17-1.171-0.17-1.729v-0.507c0-0.302,0.011-0.599,0.029-0.891c-0.18-0.814-0.213-1.661-0.093-2.501
				c0.056-0.387,0.063-0.664,0.063-0.794V12.94c0-2.729,1.292-6.459,7.449-8.729c0.775-0.286,1.594-0.433,2.42-0.433
				c0.029,0,0.058,0,0.084,0c0.447-0.089,0.905-0.135,1.366-0.135c0.214,0,0.428,0.01,0.643,0.029
				c1.988,0.183,3.386,0.376,4.412,0.568c0.513-0.062,1.044-0.093,1.596-0.093c0.235,0,0.472,0.013,0.707,0.036
				c2.25,0.229,4.273,0.385,6.187,0.479c1.041,0.052,2.057,0.334,2.974,0.829c3.583,1.93,5.64,5.147,5.64,8.829
				c0,1.073-0.247,2.133-0.723,3.096c-0.775,1.574-2.245,3.748-4.88,5.348c0.424,0.378,0.8,0.802,1.116,1.28
				c1.228,1.581,1.886,3.457,1.886,5.432c0,0.94-0.188,1.871-0.557,2.737c-1.322,3.112-3.868,5.233-7.055,5.985
				c-0.026,0.593-0.082,1.378-0.172,2.52c0.377,0.988,0.526,2.053,0.433,3.114l-0.107,1.21v0.938c0,0.996,0.019,1.799,0.045,2.44
				c7.265,0.387,9.237,5.454,9.237,8.495c0,0.808-0.14,1.609-0.414,2.371c-1.354,3.762-5.041,8.247-14.911,8.247
				c-0.128,0-0.257,0-0.387-0.002C44.356,67.601,43.451,67.633,42.605,67.633z"/>
			<path fill="#FFFFFF" d="M66.733,67.633c-2.602,0-10.52,0-14.692-5.699c-0.485-0.663-0.852-1.406-1.078-2.194
				c-0.656-2.275-0.949-3.957-0.949-5.452c0-1,0.017-3.169,0.13-6.588c-0.015-0.25-0.047-0.683-0.102-1.287
				c-0.053-0.571-0.033-1.147,0.056-1.714c0.008-0.072,0.05-0.524,0.05-2.021c0-0.034,0-0.068,0-0.102
				c-0.092-0.794-0.135-1.693-0.135-2.733v-1.891c0-0.939,0.046-1.766,0.142-2.509c-0.005-0.108-0.007-0.218-0.007-0.326
				c0-0.594,0.058-1.263,0.209-2.588c-0.14-1.076-0.209-2.139-0.209-3.219v-0.675c0-3.697,0.333-7.314,0.99-10.759
				c0.144-2.174,0.266-3.781,0.458-5.054c-0.062-0.39-0.097-0.772-0.097-1.198c0-2.337,0.968-6.587,7.447-8.788
				c0.726-0.247,1.486-0.372,2.251-0.372c0,0,0.608,0,0.677,0c0.156,0,0.314,0.005,0.473,0.016c0.157-0.011,0.314-0.016,0.472-0.016
				c0.216,0,0.432,0.01,0.647,0.03c9.127,0.847,11.08,5.807,11.432,8.688c0.008,0.068,0.832,8.98,0.832,8.98
				c0.021,0.214,0.03,0.428,0.03,0.643v2.16c0,1.932-0.163,4.208-0.483,6.779c0.15,1.295,0.215,2.184,0.215,2.941v4.996
				c0,0.857-0.028,1.65-0.088,2.4c0.068,0.701,0.088,1.456,0.088,2.325c0,0.571-0.04,1.333-0.484,4.129l0.219,2.187
				c1.453,0.373,2.754,1.204,3.704,2.379c1.75,2.164,2.637,4.462,2.637,6.831c0,2.908-1.638,6.617-6.145,8.118
				c-1.833,0.961-3.841,1.448-5.985,1.448h-0.54c-0.159,0-0.317-0.005-0.477-0.017c-0.369,0.057-0.73,0.095-1.079,0.125
				C67.137,67.624,66.936,67.633,66.733,67.633z"/>
			<path fill="#FFFFFF" d="M86.745,67.633c-2.603,0-10.521,0-14.693-5.699c-0.485-0.663-0.851-1.406-1.078-2.194
				c-0.656-2.275-0.949-3.957-0.949-5.452c0-1,0.018-3.169,0.13-6.588c-0.015-0.25-0.047-0.683-0.102-1.287
				c-0.052-0.571-0.033-1.147,0.056-1.714c0.009-0.072,0.051-0.524,0.051-2.021c0-0.034,0-0.068,0-0.102
				c-0.093-0.794-0.136-1.693-0.136-2.733v-1.891c0-0.939,0.046-1.766,0.143-2.509c-0.005-0.108-0.007-0.218-0.007-0.326
				c0-0.594,0.057-1.263,0.209-2.588c-0.141-1.076-0.209-2.139-0.209-3.219v-0.675c0-3.697,0.333-7.314,0.989-10.759
				c0.145-2.174,0.267-3.781,0.458-5.054c-0.062-0.39-0.097-0.772-0.097-1.198c0-2.337,0.968-6.587,7.448-8.788
				c0.725-0.247,1.485-0.372,2.251-0.372c0,0,0.607,0,0.676,0c0.157,0,0.315,0.005,0.473,0.016c0.157-0.011,0.314-0.016,0.473-0.016
				c0.215,0,0.431,0.01,0.646,0.03c9.127,0.847,11.08,5.807,11.433,8.688c0.008,0.068,0.832,8.98,0.832,8.98
				c0.02,0.214,0.029,0.428,0.029,0.643v2.16c0,1.932-0.163,4.208-0.482,6.779c0.149,1.295,0.214,2.184,0.214,2.941v4.996
				c0,0.857-0.028,1.65-0.087,2.4c0.067,0.701,0.087,1.456,0.087,2.325c0,0.571-0.04,1.333-0.484,4.129l0.219,2.187
				c1.453,0.373,2.755,1.204,3.704,2.379c1.75,2.164,2.638,4.462,2.638,6.831c0,2.908-1.639,6.617-6.146,8.118
				c-1.833,0.961-3.841,1.448-5.984,1.448h-0.54c-0.159,0-0.318-0.005-0.478-0.017c-0.369,0.057-0.729,0.095-1.079,0.125
				C87.149,67.624,86.947,67.633,86.745,67.633z"/>
			<path fill="#FFFFFF" d="M110.874,65.438c-0.629,0-1.567-0.051-3.375-0.393c-1.809,0.342-2.746,0.393-3.375,0.393h-0.54
				c-2.528,0-8.607-0.904-11.464-9.127c-1.172-2.348-2.119-5.42-2.958-9.585c-0.07-0.349-0.114-0.704-0.131-1.06
				c-0.143-0.695-0.181-1.415-0.104-2.136l0.208-1.976c-0.074-1.241-0.111-2.507-0.111-3.773v-0.54c0-2.584,0-5.208,0.564-7.451
				c0.08-1.186,0.383-2.88,1.257-6.257c0.203-1.817,0.933-4.605,3.024-10.604c0.276-0.794,0.694-1.533,1.233-2.179
				c1.684-2.019,3.593-3.344,5.688-3.951c2.804-1.019,5.741-1.535,8.734-1.535c6.721,0,11.771,4.07,13.912,11.186
				c1.375,3.466,2.131,7.139,2.251,10.937c0.1,0.542,0.152,1.126,0.152,1.755c0,0.554-0.032,1.077-0.411,2.948
				c0.363,2.297,0.546,4.795,0.546,7.449v0.27c0,2.215-0.271,4.919-0.827,8.254c-0.136,2.682-1.059,5.497-2.749,8.395
				c-0.896,3.067-2.463,4.842-4.051,5.863C116.535,64.315,113.919,65.438,110.874,65.438z"/>
		</g>
		<g>
			<path fill="#FFFFFF" d="M26.307,7c2.06,0,3.273,0.438,3.646,1.351c0.641,0.573,0.943,2.431,0.943,5.535
				c0.643,2.262,0.945,4.084,0.945,5.4c0,0.371-0.102,1.249-0.271,2.699c0.169,1.723,0.371,4.455,0.54,8.235
				c0.102,0,0.136,0.103,0.136,0.271c-0.54,3.004-0.812,4.521-0.812,4.59c0,0.067,0.034,0.338,0.136,0.811
				c0,0.573-0.033,1.351-0.136,2.295c0.103,1.114,0.136,2.194,0.136,3.24l-0.539,2.565c0.27,1.35,0.403,2.464,0.403,3.375v1.891
				c0,1.451-0.135,2.43-0.403,2.97c0.101,0.506,0.135,0.845,0.135,1.08c0,1.822-0.103,3.274-0.271,4.32
				c0.271,0.709,0.405,1.485,0.405,2.295v0.271c0,0.776-0.945,1.282-2.835,1.484c-0.439,0-1.114,0.034-2.025,0.136
				c-1.755,0-2.835-0.642-3.239-1.891c-0.911-2.362-1.351-4.557-1.351-6.615v-0.271c0-0.168-0.102-0.271-0.271-0.271
				c-1.789,0-2.7,0.169-2.7,0.54v0.135c0,0.508,0.169,1.925,0.54,4.32c-0.135,2.431-0.643,3.646-1.485,3.646
				c-0.506,0.54-1.013,0.811-1.483,0.811h-0.677c-0.202,0-0.371-0.034-0.54-0.136c-0.135,0-0.641,0.371-1.483,1.08
				c-0.507,0.102-0.912,0.136-1.216,0.136h-1.08c-2.328,0-3.511-1.52-3.511-4.591C7.304,54.861,7,50.643,7,46.019
				c0.271-0.912,0.404-5.231,0.404-12.961v-0.945c0-1.484,0.236-4.051,0.676-7.694c0.271-4.558,0.404-7.189,0.404-7.966l-0.54-4.727
				c0-0.878,1.08-1.451,3.24-1.755c0.271,0,0.573,0.033,0.945,0.135c0.371-0.102,0.708-0.135,1.08-0.135
				c1.519,0,2.295,0.709,2.295,2.16c0.405,0,0.709,1.08,0.945,3.24c0,0.032-0.034,0.641-0.137,1.755
				c0.439,2.531,0.677,4.69,0.677,6.479v0.136c0,1.182-0.103,1.99-0.271,2.431c0.102,0.438,0.169,1.789,0.271,4.05
				c-0.103,1.789-0.137,2.802-0.137,2.971c0,1.08,0.305,3.78,0.945,8.102c0,2.059,0.236,4.557,0.675,7.425h0.136
				c1.182-0.27,1.925-0.404,2.295-0.404h0.405l0.135-0.676c0-2.092-0.033-4.388-0.135-6.885c0.371-2.531,0.573-4.624,0.675-6.211
				c-0.169-1.52-0.271-2.666-0.271-3.51c0.271-4.455,0.405-12.017,0.405-22.683c0-0.642,1.08-1.114,3.239-1.351H26.307z"/>
			<path fill="#FFFFFF" d="M44.596,11.422c0.371-0.169,0.945-0.271,1.688-0.271c2.328,0.236,4.488,0.405,6.548,0.508
				c1.315,0.709,1.958,1.586,1.958,2.666c-1.183,2.396-3.544,3.577-7.056,3.577h-1.586l-0.642,0.136v-0.136l-0.271,0.136
				c-0.169-0.102-0.338-0.136-0.507-0.136c-0.27,0.676-0.404,1.316-0.404,1.891v0.271c0,0.675,0.033,1.554,0.136,2.666l-0.643,1.789
				c0.136,1.249,0.305,1.892,0.507,1.892s0.845-0.034,1.958-0.137c3.408,0.776,5.097,1.352,5.097,1.654
				c0.54,0.473,0.81,0.979,0.81,1.553c-0.572,1.351-1.652,2.025-3.272,2.025c-0.271,0-1.586,0.438-3.949,1.282h-0.506l0.135,0.235
				c0,0.236-0.034,0.371-0.135,0.371c0.101,1.014,0.135,1.723,0.135,2.16v1.924c0,0.574-0.102,1.892-0.271,3.949
				c0.102,0.675,0.271,1.282,0.54,1.789l-0.136,1.519v1.249c0,3.174,0.169,5.366,0.507,6.615c-0.102,0.878-0.136,1.553-0.136,2.061
				v0.234c0,0.507,0.305,0.776,0.912,0.776c1.586,0,3.206-0.102,4.86-0.271c2.092,0,3.139,0.507,3.139,1.52
				c-0.911,2.531-3.882,3.713-8.911,3.611c-3.981,0.304-6.784-0.067-8.438-1.147c-0.979-4.489-1.485-8.91-1.485-13.265
				c0-1.351,0.103-3.004,0.271-4.962c-0.169-0.607-0.372-1.991-0.541-4.186l0.271-2.937c-0.102-0.203-0.169-1.654-0.271-4.32
				l0.642-8.271c-0.169-0.54-0.236-0.91-0.236-1.146V19.79c0-0.404,0.034-0.811,0.137-1.248c-0.103-0.574-0.169-0.979-0.271-1.148
				c0.103-0.708,0.135-1.314,0.135-1.788V12.94c0-0.709,0.945-1.45,2.869-2.159c0.979,0,1.451-0.033,1.451-0.136
				C42.199,10.882,43.854,11.151,44.596,11.422z"/>
			<path fill="#FFFFFF" d="M61.468,9.464l0.27,0.136c0.102,0,0.136-0.034,0.136-0.136L62.548,9.6c0.169,0,0.271-0.034,0.271-0.136
				c3.273,0.304,4.961,1.182,5.131,2.564l0.81,8.775v2.16c0,1.756-0.168,4.017-0.539,6.751c0.168,1.316,0.271,2.329,0.271,2.97
				v4.996c0,0.844-0.034,1.721-0.136,2.564c0.102,0.404,0.136,1.113,0.136,2.16c0,0.371-0.17,1.653-0.54,3.915l0.54,5.4
				c-0.17,0.844-0.271,1.52-0.271,2.024v0.136c1.215,0.708,2.97,1.248,5.265,1.62c0.709,0.877,1.08,1.688,1.08,2.43
				c0,0.812-0.641,1.352-1.89,1.62c-0.979,0.642-2.06,0.945-3.24,0.945h-0.54l-0.811-0.136c-0.135,0.102-0.573,0.202-1.351,0.271
				c-4.657,0-7.662-0.945-9.046-2.835c-0.438-1.521-0.675-2.7-0.675-3.511c0-1.385,0.033-3.611,0.135-6.615
				c0-0.135-0.034-0.776-0.135-1.89c0.101-0.643,0.135-1.654,0.135-3.105h0.136c-0.17-0.473-0.271-1.418-0.271-2.835v-1.891
				c0-1.183,0.101-1.991,0.271-2.431c-0.102-0.169-0.136-0.304-0.136-0.404c0-0.371,0.103-1.283,0.271-2.7
				c-0.169-0.979-0.271-1.991-0.271-3.105v-0.675c0-3.342,0.305-6.649,0.945-9.855c0.236-3.611,0.438-5.604,0.675-5.939
				c-0.169-0.676-0.27-1.08-0.27-1.216c0-0.845,0.911-1.554,2.698-2.16L61.468,9.464L61.468,9.464z"/>
			<path fill="#FFFFFF" d="M81.479,9.464L81.75,9.6c0.101,0,0.135-0.034,0.135-0.136L82.56,9.6c0.169,0,0.271-0.034,0.271-0.136
				c3.272,0.304,4.961,1.182,5.13,2.564l0.81,8.775v2.16c0,1.756-0.168,4.017-0.539,6.751c0.168,1.316,0.271,2.329,0.271,2.97v4.996
				c0,0.844-0.034,1.721-0.135,2.564c0.101,0.404,0.135,1.113,0.135,2.16c0,0.371-0.169,1.653-0.54,3.915l0.54,5.4
				c-0.169,0.844-0.271,1.52-0.271,2.024v0.136c1.215,0.708,2.971,1.248,5.266,1.62c0.709,0.877,1.08,1.688,1.08,2.43
				c0,0.812-0.642,1.352-1.891,1.62c-0.979,0.642-2.06,0.945-3.24,0.945h-0.539l-0.812-0.136c-0.135,0.102-0.573,0.202-1.35,0.271
				c-4.658,0-7.662-0.945-9.046-2.835c-0.438-1.521-0.676-2.7-0.676-3.511c0-1.385,0.033-3.611,0.136-6.615
				c0-0.135-0.034-0.776-0.136-1.89c0.102-0.643,0.136-1.654,0.136-3.105h0.135c-0.169-0.473-0.271-1.418-0.271-2.835v-1.891
				c0-1.183,0.102-1.991,0.271-2.431c-0.102-0.169-0.135-0.304-0.135-0.404c0-0.371,0.102-1.283,0.271-2.7
				c-0.169-0.979-0.271-1.991-0.271-3.105v-0.675c0-3.342,0.304-6.649,0.944-9.855c0.236-3.611,0.438-5.604,0.675-5.939
				c-0.169-0.676-0.27-1.08-0.27-1.216c0-0.845,0.911-1.554,2.699-2.16L81.479,9.464L81.479,9.464z"/>
			<path fill="#FFFFFF" d="M116.814,18.746c1.249,3.038,1.892,6.277,1.892,9.721c0.102,0,0.135,0.236,0.135,0.675
				c0,0.169-0.169,1.114-0.54,2.836c0.438,2.193,0.675,4.726,0.675,7.562v0.27c0,1.924-0.27,4.422-0.81,7.562
				c0,1.855-0.776,3.981-2.295,6.346c-0.405,1.991-1.114,2.97-2.16,2.97c-0.439,1.183-1.384,1.755-2.836,1.755
				c-0.573,0-1.688-0.168-3.375-0.539c-1.688,0.371-2.803,0.539-3.375,0.539h-0.54c-2.329,0-3.982-1.618-4.995-4.858
				c-0.979-1.789-1.823-4.558-2.565-8.236c0-0.641-0.033-0.979-0.135-1.08l0.271-2.563c-0.103-1.452-0.136-2.77-0.136-3.916v-0.54
				c0-4.084,0.236-6.21,0.676-6.346c-0.103-0.169-0.136-0.305-0.136-0.404c0-0.812,0.405-2.734,1.215-5.807
				c0-1.182,0.911-4.319,2.7-9.45c0.844-1.013,1.654-1.587,2.432-1.756c2.126-0.81,4.319-1.215,6.614-1.215
				C113.17,12.266,115.6,14.426,116.814,18.746z M108.039,19.151c-0.371,1.316-0.776,3.78-1.215,7.427v2.295
				c0,0.304-0.136,0.606-0.405,0.944v0.539c0,2.363-0.103,3.85-0.271,4.456c0.102,0.607,0.136,1.113,0.136,1.485v1.35
				c0,3.206,0.506,7.393,1.484,12.557h0.135c0.776-1.08,1.451-3.342,2.025-6.75c0.371-2.667,0.54-5.367,0.54-8.102
				c0-1.384-0.169-3.68-0.54-6.886v-0.675c0-0.371,0.033-0.878,0.135-1.485c-0.709-2.902-1.351-5.299-1.891-7.155H108.039z"/>
		</g>
	</g>
	<g>
		<g>
			<path fill="#FFFFFF" d="M17.798,95.428c-1.77,0-3.465-0.521-4.944-1.486c-0.823,0.251-1.753,0.424-2.802,0.491
				c-0.151,0.01-0.303,0.016-0.455,0.016H8.463c-1.299,0-7.649-0.468-7.968-9.483c-0.042-0.345-0.064-0.704-0.064-1.076
				c0-0.055,0-0.108,0.002-0.165c0.038-1.626,0.088-2.875,0.153-3.801c-0.004-1.123-0.035-2.284-0.095-3.541
				c-0.006-0.111-0.009-0.222-0.009-0.333c0-0.364,0.017-0.822,0.206-2.638c0,0,0.001-0.481,0.004-0.57
				c-0.003-0.083-0.004-0.165-0.004-0.248c0-8,3.752-9.925,6.555-10.247c0.763-0.142,1.422-0.208,2.045-0.208
				c1.234,0,2.758,0.259,4.352,1.146c1.198-0.453,2.537-0.683,4.003-0.683h0.206c4.026,0,7.208,3.161,7.403,7.269
				c0.021,0.182,0.056,0.462,0.104,0.838c0.039,0.3,0.06,0.603,0.06,0.904c0,0.357-0.021,0.727-0.067,1.176l0.354,4.342
				c0.015,0.188,0.022,0.379,0.022,0.569v0.538c0.018,0.083,0.033,0.165,0.047,0.248c0.15,0.845,0.144,1.706-0.017,2.543
				c0.154,1.195,0.228,2.188,0.228,3.066c0,1.437-0.026,2.527-0.082,3.337c-0.186,2.724-1.171,4.454-2.354,5.556
				C21.464,95,19.278,95.428,17.798,95.428z"/>
			<path fill="#FFFFFF" d="M24.394,96.317c-0.181,0-0.36-0.007-0.541-0.021l-0.042,0.003c-0.167,0.012-0.334,0.018-0.501,0.018
				c-1.474,0-2.886-0.404-4.216-1.208c-2.079-0.938-4.402-3.121-5.106-8.125c-0.142-0.723-0.204-1.536-0.204-2.565v-0.155
				c0-0.11,0.017-0.548,0.075-1.313l0.027-0.353v-0.296c0-0.735,0.098-1.445,0.283-2.118c-0.017-0.042-0.031-0.084-0.047-0.126
				c-0.638-1.484-1.016-3.338-1.243-6.036c-0.012-0.146-0.021-0.292-0.023-0.437c-0.037-1.703-0.087-3.394-0.15-5.044
				c-0.003-0.089-0.005-0.179-0.005-0.268c0-0.667,0.207-6.542,7.354-7.505c0.311-0.042,0.622-0.063,0.934-0.063
				c0.292,0,0.583,0.018,0.873,0.055c0.913,0.115,1.72,0.299,2.433,0.538c0.756-0.183,1.581-0.283,2.472-0.283h0.258
				c3.638,0,6.693,2.592,7.434,6.304c0.038,0.191,0.067,0.385,0.09,0.578c0.233,2.063,0.641,4.372,1.209,6.864
				c0.095,0.413,0.151,0.833,0.169,1.256c0.021,0.269,0.078,0.812,0.17,1.639c0.029,0.258,0.043,0.518,0.043,0.776v0.518
				c0,0.447-0.019,0.876-0.058,1.289c0.004,0.119,0.006,0.239,0.006,0.361c0,0.213-0.01,0.426-0.029,0.639
				c-0.122,1.337-0.284,3.107-0.792,4.796l0.013,0.003c-0.263,1.104-0.596,2.057-1.019,2.9c-0.499,1.533-1.282,2.817-2.339,3.831
				c-0.043,0.042-0.087,0.083-0.131,0.123c-1.419,1.292-2.637,2.222-4.104,2.725C26.682,95.994,25.662,96.317,24.394,96.317z"/>
			<path fill="#FFFFFF" d="M40.235,95.376c-4.123,0-7.186-1.328-9.104-3.948c-0.483-0.661-0.848-1.401-1.075-2.188
				c-0.364-1.259-0.534-2.304-0.534-3.288c0-0.525,0.012-1.345,0.045-2.433c-0.004-0.051-0.009-0.109-0.016-0.176
				c-0.045-0.489-0.038-0.979,0.02-1.467c0.003-0.057,0.003-0.117,0.004-0.184c-0.035-0.392-0.053-0.809-0.053-1.261v-0.722
				c0-0.411,0.018-0.8,0.053-1.169c0.003-0.288,0.021-0.574,0.054-0.9c-0.036-0.408-0.054-0.815-0.054-1.23v-0.259
				c0-1.585,0.136-3.146,0.402-4.646c0.035-0.515,0.071-1,0.123-1.461c-0.007-0.125-0.011-0.255-0.011-0.392
				c0-2.652,1.518-6.004,5.778-7.452c0.726-0.247,1.486-0.373,2.253-0.373c0,0,0.559,0,0.618,0c0.216,0,0.433,0.01,0.648,0.029
				c7.12,0.662,8.131,6.034,8.261,7.104c0.008,0.066,0.331,3.554,0.331,3.554c0.021,0.214,0.03,0.429,0.03,0.645v0.824
				c0,0.781-0.053,1.659-0.159,2.618c0.039,0.417,0.056,0.764,0.056,1.097v1.907c0,0.312-0.007,0.609-0.022,0.896
				c0.019,0.313,0.022,0.616,0.022,0.908c0,0.064-0.001,0.131-0.002,0.196c0.124,0.131,0.243,0.268,0.356,0.408
				c1.626,2.013,1.967,4.008,1.967,5.327c0,3.225-1.954,5.939-4.979,7.088c-1.234,0.586-2.589,0.893-3.98,0.893h-0.163
				c-0.094,0.01-0.186,0.019-0.272,0.025C40.633,95.368,40.435,95.376,40.235,95.376z"/>
			<path fill="#FFFFFF" d="M49.458,94.538c-0.402,0-0.818-0.029-1.289-0.094c-0.471,0.064-0.887,0.094-1.289,0.094h-0.207
				c-2.994,0-6.692-1.627-8.373-6.136c-0.563-1.199-1.006-2.646-1.376-4.484c-0.048-0.237-0.083-0.477-0.106-0.716
				c-0.093-0.595-0.108-1.204-0.045-1.814l0.044-0.414c-0.021-0.438-0.03-0.883-0.03-1.327V79.44c0-0.798,0-1.976,0.231-3.233
				c0.059-0.733,0.218-1.574,0.529-2.806c0.161-1.098,0.553-2.439,1.331-4.672c0.275-0.793,0.693-1.53,1.231-2.176
				c1.383-1.659,2.906-2.458,4.114-2.842c1.517-0.539,3.103-0.813,4.718-0.813c4.426,0,7.992,2.735,9.401,7.17
				c0.636,1.655,1,3.396,1.086,5.188c0.047,0.351,0.072,0.714,0.072,1.09c0,0.41-0.032,0.78-0.104,1.228
				c0.104,0.872,0.155,1.791,0.155,2.743v0.104c0,1.046-0.108,2.213-0.339,3.646c-0.118,1.49-0.58,2.987-1.379,4.471
				c-0.588,1.636-1.544,2.873-2.671,3.74C53.683,93.705,51.665,94.538,49.458,94.538z"/>
			<path fill="#FFFFFF" d="M56.917,95.698c-3.214,0-5.969-1.816-7.516-4.903c-0.72-1.175-1.198-2.543-1.43-4.086
				c-0.754-2.848-1.153-5.083-1.236-6.937c-0.081-0.423-0.143-0.874-0.184-1.354c-0.068-0.804-0.135-1.879-0.205-3.275
				c-0.077-0.437-0.125-0.899-0.14-1.393c-0.002-0.072-0.003-0.862-0.003-0.862c-0.015-0.1-0.034-0.217-0.057-0.353
				c-0.077-0.453-0.107-0.912-0.095-1.371c-0.063-0.375-0.106-0.785-0.106-1.241c0-3.647,2.494-6.71,6.206-7.623
				c0.548-0.134,1.108-0.202,1.672-0.202h0.722c1.375,0,2.552,0.192,3.555,0.521c0.338-0.119,0.679-0.216,1.019-0.289
				c0.59-0.146,1.248-0.232,1.978-0.232h0.104c4.52,0,7.929,3.253,7.929,7.567v0.465c0,0.468-0.047,0.935-0.14,1.393
				c-0.041,0.2-0.082,0.398-0.125,0.594c0.006,0.046,0.011,0.092,0.017,0.139c0.028,0.253,0.042,0.507,0.042,0.762v0.413
				c0,0.865-0.096,1.942-0.309,3.446v0.628c0,0.732-0.096,1.433-0.414,2.882c-0.003,0.241-0.02,0.482-0.048,0.721
				c-0.064,0.557-0.133,1.083-0.223,1.591c0.008,0.136,0.013,0.275,0.013,0.428c0,0.699-0.104,1.395-0.311,2.063
				c-0.063,0.201-0.172,0.657-0.214,1.451c-0.021,0.39-0.074,0.778-0.159,1.16c-0.214,0.957-0.865,3.867-3.445,5.737
				c-0.059,0.043-0.118,0.084-0.178,0.125c-1.32,0.896-2.975,1.487-5.366,1.921c-0.412,0.074-0.829,0.111-1.247,0.111h-0.106V95.698
				z"/>
			<path fill="#FFFFFF" d="M65.816,95.376c-2.435,0-4.427-0.528-6.092-1.613c-1.54-1.005-2.623-2.575-3.015-4.372
				c-0.483-2.215-0.729-4.422-0.729-6.559c0-0.463,0.02-0.975,0.059-1.57c-0.051-0.38-0.099-0.835-0.142-1.388
				c-0.029-0.394-0.026-0.787,0.01-1.181l0.042-0.452c-0.028-0.424-0.047-0.886-0.066-1.408c-0.011-0.271-0.005-0.54,0.016-0.811
				l0.177-2.264c-0.028-0.266-0.042-0.529-0.042-0.792c0,0,0-0.236,0-0.257c-0.069-0.563-0.069-1.133,0-1.701v-0.853
				c0-1.245,0.409-5.457,5.679-7.396c0.657-0.242,1.346-0.383,2.043-0.42c0.306-0.041,0.616-0.063,0.927-0.063
				c0.215,0,0.431,0.011,0.647,0.03c0.553,0.051,1.04,0.108,1.476,0.172c0.138-0.006,0.277-0.009,0.417-0.009
				c0.237,0,0.475,0.012,0.711,0.036c0.781,0.08,1.478,0.134,2.129,0.166c1.045,0.05,2.065,0.335,2.986,0.832
				c2.77,1.495,4.423,4.178,4.423,7.178c0,1.073-0.247,2.131-0.72,3.093c-0.149,0.303-0.313,0.594-0.489,0.873
				c0.143,0.59,0.216,1.2,0.216,1.825c0,0.939-0.188,1.869-0.556,2.734c-0.337,0.795-0.781,1.513-1.313,2.141
				c1.687,1.475,2.564,3.576,2.564,5.608c0,0.808-0.14,1.608-0.413,2.369c-0.65,1.808-2.903,6.012-9.765,6.013h-0.02
				C66.569,95.365,66.182,95.376,65.816,95.376z"/>
		</g>
		<g>
			<path fill="#FFFFFF" d="M12.228,71.511c0.349,0.684,0.723,1.689,1.135,3.043h0.053c1.121-2.669,1.816-4.139,2.113-4.384
				c0.451-0.374,1.16-0.567,2.114-0.567h0.206c0.271,0,0.413,0.221,0.413,0.671c0,0.104,0.052,0.556,0.154,1.342
				c0,0.219-0.038,0.566-0.104,1.03l0.412,5.056v0.772c0,0.143-0.013,0.335-0.052,0.567c0.104,0.219,0.168,0.451,0.207,0.671
				c-0.144,0.451-0.207,0.799-0.207,1.031v0.206c0.207,1.341,0.31,2.386,0.31,3.146c0,2.54-0.09,3.816-0.258,3.816
				c-0.348,0.348-0.657,0.516-0.928,0.516c-0.761,0-1.432-0.413-2.012-1.238v-1.855c0-0.219,0.013-0.451,0.052-0.67l-0.104-1.444
				c0.039-0.271,0.053-0.542,0.053-0.825l-0.206-2.631l0.103-1.031V78.68h-0.051c-0.271,1.432-0.529,2.282-0.774,2.579
				c-0.219,0.168-0.488,0.297-0.824,0.412c-1.136,0-1.701-0.143-1.701-0.412c-0.144-0.297-0.297-0.993-0.465-2.063h-0.053V79.3
				c0.039,0.593,0.053,0.941,0.053,1.031c0,0.929-0.091,2.229-0.259,3.92c0.104,0.413,0.155,0.709,0.155,0.877
				c0,0.129-0.052,0.541-0.155,1.237l0.053,0.104c0,0.555-0.685,0.89-2.063,0.979H8.463c-0.658,0-0.98-1.069-0.98-3.197
				c-0.038,0-0.052-0.116-0.052-0.361c0.039-1.663,0.091-2.899,0.155-3.713c0-1.405-0.039-2.772-0.104-4.126
				c0-0.193,0.064-0.941,0.206-2.27v-0.671c0-0.115,0.015-0.192,0.053-0.258l-0.053-0.259c0-2.204,0.168-3.301,0.518-3.301
				c0.477-0.104,0.838-0.154,1.083-0.154C10.229,69.139,11.209,69.925,12.228,71.511z M11.764,78.99v0.154h0.051V78.99H11.764z"/>
			<path fill="#FFFFFF" d="M22.691,68.43c0.116,0,0.22,0.503,0.311,1.495c0.657,2.953,1.187,5.171,1.599,6.653
				c0.039,0.063,0.09,0.297,0.154,0.723h0.052c0-0.207,0.155-0.98,0.465-2.321v-0.052c0-0.516,0.014-1.341,0.051-2.476
				c-0.103-0.541-0.153-0.992-0.153-1.342v-0.67c0-0.322,0.013-0.723,0.052-1.187l-0.052-0.311c0-0.618,0.527-0.929,1.599-0.929
				h0.258c0.284,0,0.479,0.22,0.567,0.671c0.271,2.385,0.723,4.925,1.341,7.633c0,0.143,0.064,0.839,0.207,2.114v0.518
				c0,0.464-0.039,0.838-0.104,1.134c0.039,0.181,0.052,0.349,0.052,0.517c-0.232,2.54-0.438,3.816-0.619,3.816
				c-0.193,0.813-0.426,1.405-0.722,1.805c-0.144,0.696-0.361,1.199-0.671,1.496c-0.877,0.799-1.444,1.225-1.702,1.289
				c-0.541,0.206-0.863,0.31-0.979,0.31l-0.36-0.052l-0.723,0.052c-0.271,0-0.619-0.168-1.032-0.516
				c-0.683,0-1.146-1.019-1.392-3.043c-0.063-0.206-0.104-0.658-0.104-1.341v-0.155c0-0.09,0.039-0.554,0.104-1.393v-0.567
				c0-0.541,0.373-0.863,1.134-0.979c0.49-0.143,0.969-0.206,1.444-0.206h0.206c0.181,0,0.297,0.45,0.361,1.341
				c0.052,0.181,0.154,0.915,0.31,2.218c0.142,0.425,0.206,0.734,0.206,0.928c1.135-1.83,1.702-3.57,1.702-5.209
				c-0.025-0.786-0.077-1.186-0.154-1.186c-0.658,0.451-1.535,0.67-2.631,0.67h-0.154c-1.264,0-2.152-0.813-2.683-2.424
				c-0.349-0.696-0.605-2.037-0.773-4.022c-0.038-1.741-0.09-3.469-0.153-5.158c0-0.258,0.426-0.45,1.289-0.566
				C22.124,67.85,22.691,68.081,22.691,68.43z"/>
			<path fill="#FFFFFF" d="M38.225,68.829l0.104,0.052c0.039,0,0.052-0.013,0.052-0.052l0.258,0.052
				c0.064,0,0.104-0.013,0.104-0.052c1.251,0.115,1.896,0.451,1.96,0.979l0.31,3.353v0.824c0,0.672-0.063,1.535-0.207,2.579
				c0.064,0.503,0.104,0.891,0.104,1.136v1.907c0,0.322-0.014,0.657-0.053,0.979c0.039,0.155,0.053,0.426,0.053,0.825
				c0,0.143-0.064,0.632-0.206,1.496l0.206,2.063c-0.064,0.323-0.104,0.581-0.104,0.774v0.051c0.465,0.271,1.135,0.478,2.012,0.619
				c0.271,0.335,0.413,0.645,0.413,0.929c0,0.31-0.245,0.516-0.723,0.619c-0.374,0.244-0.786,0.36-1.237,0.36h-0.207l-0.309-0.053
				c-0.052,0.039-0.22,0.078-0.518,0.104c-1.778,0-2.927-0.361-3.454-1.083c-0.169-0.58-0.259-1.031-0.259-1.341
				c0-0.528,0.014-1.381,0.053-2.527c0-0.052-0.014-0.297-0.053-0.722c0.039-0.245,0.053-0.633,0.053-1.188h0.052
				c-0.064-0.181-0.104-0.542-0.104-1.083V79.71c0-0.452,0.039-0.761,0.104-0.929c-0.039-0.064-0.052-0.116-0.052-0.154
				c0-0.144,0.037-0.49,0.103-1.032c-0.063-0.374-0.103-0.761-0.103-1.186v-0.259c0-1.276,0.115-2.541,0.359-3.766
				c0.091-1.38,0.168-2.141,0.259-2.27c-0.064-0.259-0.104-0.412-0.104-0.465c0-0.321,0.348-0.593,1.031-0.824h0.103V68.829z"/>
			<path fill="#FFFFFF" d="M51.728,72.375c0.478,1.16,0.723,2.397,0.723,3.714c0.038,0,0.052,0.09,0.052,0.258
				c0,0.064-0.064,0.425-0.206,1.083c0.168,0.838,0.258,1.805,0.258,2.888v0.104c0,0.734-0.104,1.688-0.31,2.888
				c0,0.709-0.298,1.521-0.877,2.424c-0.154,0.762-0.426,1.136-0.825,1.136c-0.167,0.45-0.528,0.671-1.083,0.671
				c-0.219,0-0.646-0.064-1.289-0.206c-0.646,0.142-1.07,0.206-1.289,0.206h-0.207c-0.89,0-1.521-0.619-1.908-1.856
				c-0.374-0.684-0.696-1.741-0.979-3.146c0-0.245-0.014-0.374-0.053-0.412l0.104-0.98c-0.039-0.555-0.052-1.058-0.052-1.495V79.44
				c0-1.56,0.09-2.372,0.258-2.424c-0.039-0.063-0.052-0.116-0.052-0.154c0-0.31,0.154-1.045,0.464-2.218
				c0-0.451,0.349-1.649,1.031-3.609c0.322-0.388,0.633-0.606,0.929-0.672c0.813-0.31,1.649-0.464,2.526-0.464
				C50.335,69.899,51.264,70.725,51.728,72.375z M48.375,72.529c-0.143,0.504-0.297,1.444-0.464,2.838v0.877
				c0,0.115-0.053,0.231-0.155,0.36v0.206c0,0.902-0.038,1.471-0.104,1.702c0.038,0.231,0.053,0.425,0.053,0.567v0.516
				c0,1.225,0.192,2.823,0.566,4.796h0.052c0.297-0.412,0.555-1.275,0.773-2.578c0.142-1.019,0.206-2.051,0.206-3.095
				c0-0.528-0.064-1.405-0.206-2.63V75.83c0-0.143,0.013-0.335,0.051-0.567c-0.271-1.107-0.516-2.022-0.722-2.732h-0.051V72.529z"/>
			<path fill="#FFFFFF" d="M54.544,69.1c1.238,0,1.855,0.207,1.855,0.619c0.232,0.606,0.503,1.754,0.825,3.456
				c-0.038,0.451-0.051,0.838-0.051,1.134c0.31,0.632,0.58,1.857,0.825,3.662c0.038,0.916,0.103,1.741,0.206,2.477h0.052
				c0.271-1.51,0.412-2.694,0.412-3.56c0.142-0.684,0.374-2.229,0.723-4.642v-0.361c0-1.728,0.451-2.643,1.341-2.733
				c0.038-0.037,0.167-0.052,0.36-0.052h0.104c0.619,0,0.93,0.193,0.93,0.567v0.465c-0.182,0.89-0.322,1.393-0.413,1.495
				l0.052,0.258V72.4l-0.052,0.104c0.091,0,0.168,0.168,0.206,0.516v0.413c0,0.58-0.104,1.561-0.31,2.939v1.135
				c0,0.219-0.154,0.992-0.465,2.32l0.052,0.31v0.155c-0.129,1.096-0.244,1.728-0.36,1.908v0.103
				c0.063,0.49,0.104,0.761,0.104,0.825c-0.271,0.877-0.451,1.922-0.516,3.146c-0.193,0.864-0.438,1.394-0.723,1.6
				c-0.438,0.297-1.327,0.58-2.683,0.825h-0.103c-0.567,0-1.032-0.451-1.394-1.342c-0.36-0.45-0.58-1.122-0.671-2.012
				c-0.761-2.798-1.135-4.887-1.135-6.292c-0.116,0-0.258-1.638-0.412-4.899c-0.063,0-0.091-0.205-0.104-0.618v-0.877
				c0-0.259-0.053-0.684-0.154-1.289c0.038-0.427,0.051-0.685,0.051-0.773c-0.103-0.387-0.154-0.605-0.154-0.671
				c0-0.399,0.298-0.683,0.877-0.825H54.544z"/>
			<path fill="#FFFFFF" d="M66.578,69.577c0.143-0.064,0.36-0.104,0.646-0.104c0.89,0.091,1.715,0.155,2.501,0.193
				c0.503,0.271,0.748,0.605,0.748,1.019c-0.451,0.916-1.354,1.367-2.695,1.367h-0.604l-0.245,0.052v-0.052l-0.104,0.052
				c-0.064-0.039-0.13-0.052-0.193-0.052c-0.104,0.258-0.154,0.503-0.154,0.722v0.104c0,0.258,0.014,0.593,0.052,1.019l-0.244,0.685
				c0.052,0.477,0.115,0.722,0.192,0.722s0.322-0.013,0.748-0.052c1.302,0.297,1.946,0.516,1.946,0.632
				c0.207,0.181,0.31,0.374,0.31,0.594c-0.219,0.517-0.632,0.773-1.251,0.773c-0.103,0-0.604,0.167-1.508,0.49h-0.193l0.052,0.09
				c0,0.09-0.014,0.142-0.052,0.142c0.038,0.387,0.052,0.658,0.052,0.825v0.735c0,0.219-0.038,0.722-0.104,1.509
				c0.038,0.258,0.104,0.488,0.206,0.683l-0.052,0.58v0.479c0,1.212,0.063,2.05,0.193,2.526c-0.038,0.335-0.053,0.593-0.053,0.786
				v0.091c0,0.193,0.116,0.296,0.35,0.296c0.605,0,1.225-0.038,1.855-0.103c0.8,0,1.199,0.193,1.199,0.58
				c-0.348,0.967-1.482,1.418-3.404,1.379c-1.521,0.116-2.591-0.025-3.223-0.438c-0.374-1.715-0.567-3.403-0.567-5.066
				c0-0.517,0.038-1.147,0.104-1.896c-0.064-0.231-0.143-0.761-0.206-1.599l0.104-1.122c-0.039-0.077-0.063-0.632-0.104-1.65
				l0.245-3.158c-0.064-0.206-0.09-0.349-0.09-0.438v-0.193c0-0.153,0.013-0.31,0.051-0.477c-0.038-0.22-0.064-0.374-0.104-0.438
				c0.038-0.271,0.053-0.503,0.053-0.684v-1.019c0-0.271,0.359-0.556,1.096-0.825c0.374,0,0.555-0.014,0.555-0.052
				C65.663,69.371,66.295,69.474,66.578,69.577z"/>
		</g>
	</g>
	<g>
		<path fill="#6A2242" d="M26.307,7c2.06,0,3.273,0.438,3.646,1.351c0.641,0.573,0.943,2.431,0.943,5.535
			c0.643,2.262,0.945,4.084,0.945,5.4c0,0.371-0.102,1.249-0.271,2.699c0.169,1.723,0.371,4.455,0.54,8.235
			c0.102,0,0.136,0.103,0.136,0.271c-0.54,3.004-0.812,4.521-0.812,4.59c0,0.067,0.034,0.338,0.136,0.811
			c0,0.573-0.033,1.351-0.136,2.295c0.103,1.114,0.136,2.194,0.136,3.24l-0.539,2.565c0.27,1.35,0.403,2.464,0.403,3.375v1.891
			c0,1.451-0.135,2.43-0.403,2.97c0.101,0.506,0.135,0.845,0.135,1.08c0,1.822-0.103,3.274-0.271,4.32
			c0.271,0.709,0.405,1.485,0.405,2.295v0.271c0,0.776-0.945,1.282-2.835,1.484c-0.439,0-1.114,0.034-2.025,0.136
			c-1.755,0-2.835-0.642-3.239-1.891c-0.911-2.362-1.351-4.557-1.351-6.615v-0.271c0-0.168-0.102-0.271-0.271-0.271
			c-1.789,0-2.7,0.169-2.7,0.54v0.135c0,0.508,0.169,1.925,0.54,4.32c-0.135,2.431-0.643,3.646-1.485,3.646
			c-0.506,0.54-1.013,0.811-1.483,0.811h-0.677c-0.202,0-0.371-0.034-0.54-0.136c-0.135,0-0.641,0.371-1.483,1.08
			c-0.507,0.102-0.912,0.136-1.216,0.136h-1.08c-2.328,0-3.511-1.52-3.511-4.591C7.304,54.861,7,50.643,7,46.019
			c0.271-0.912,0.404-5.231,0.404-12.961v-0.945c0-1.484,0.236-4.051,0.676-7.694c0.271-4.558,0.404-7.189,0.404-7.966l-0.54-4.727
			c0-0.878,1.08-1.451,3.24-1.755c0.271,0,0.573,0.033,0.945,0.135c0.371-0.102,0.708-0.135,1.08-0.135
			c1.519,0,2.295,0.709,2.295,2.16c0.405,0,0.709,1.08,0.945,3.24c0,0.032-0.034,0.641-0.137,1.755
			c0.439,2.531,0.677,4.69,0.677,6.479v0.136c0,1.182-0.103,1.99-0.271,2.431c0.102,0.438,0.169,1.789,0.271,4.05
			c-0.103,1.789-0.137,2.802-0.137,2.971c0,1.08,0.305,3.78,0.945,8.102c0,2.059,0.236,4.557,0.675,7.425h0.136
			c1.182-0.27,1.925-0.404,2.295-0.404h0.405l0.135-0.676c0-2.092-0.033-4.388-0.135-6.885c0.371-2.531,0.573-4.624,0.675-6.211
			c-0.169-1.52-0.271-2.666-0.271-3.51c0.271-4.455,0.405-12.017,0.405-22.683c0-0.642,1.08-1.114,3.239-1.351H26.307z"/>
		<path fill="#6A2242" d="M44.596,11.422c0.371-0.169,0.945-0.271,1.688-0.271c2.328,0.236,4.488,0.405,6.548,0.508
			c1.315,0.709,1.958,1.586,1.958,2.666c-1.183,2.396-3.544,3.577-7.056,3.577h-1.586l-0.642,0.136v-0.136l-0.271,0.136
			c-0.169-0.102-0.338-0.136-0.507-0.136c-0.27,0.676-0.404,1.316-0.404,1.891v0.271c0,0.675,0.033,1.554,0.136,2.666l-0.643,1.789
			c0.136,1.249,0.305,1.892,0.507,1.892s0.845-0.034,1.958-0.137c3.408,0.776,5.097,1.352,5.097,1.654
			c0.54,0.473,0.81,0.979,0.81,1.553c-0.572,1.351-1.652,2.025-3.272,2.025c-0.271,0-1.586,0.438-3.949,1.282h-0.506l0.135,0.235
			c0,0.236-0.034,0.371-0.135,0.371c0.101,1.014,0.135,1.723,0.135,2.16v1.924c0,0.574-0.102,1.892-0.271,3.949
			c0.102,0.675,0.271,1.282,0.54,1.789l-0.136,1.519v1.249c0,3.174,0.169,5.366,0.507,6.615c-0.102,0.878-0.136,1.553-0.136,2.061
			v0.234c0,0.507,0.305,0.776,0.912,0.776c1.586,0,3.206-0.102,4.86-0.271c2.092,0,3.139,0.507,3.139,1.52
			c-0.911,2.531-3.882,3.713-8.911,3.611c-3.981,0.304-6.784-0.067-8.438-1.147c-0.979-4.489-1.485-8.91-1.485-13.265
			c0-1.351,0.103-3.004,0.271-4.962c-0.169-0.607-0.372-1.991-0.541-4.186l0.271-2.937c-0.102-0.203-0.169-1.654-0.271-4.32
			l0.642-8.271c-0.169-0.54-0.236-0.91-0.236-1.146V19.79c0-0.404,0.034-0.811,0.137-1.248c-0.103-0.574-0.169-0.979-0.271-1.148
			c0.103-0.708,0.135-1.314,0.135-1.788V12.94c0-0.709,0.945-1.45,2.869-2.159c0.979,0,1.451-0.033,1.451-0.136
			C42.199,10.882,43.854,11.151,44.596,11.422z"/>
		<path fill="#6A2242" d="M61.468,9.464l0.27,0.136c0.102,0,0.136-0.034,0.136-0.136L62.548,9.6c0.169,0,0.271-0.034,0.271-0.136
			c3.273,0.304,4.961,1.182,5.131,2.564l0.81,8.775v2.16c0,1.756-0.168,4.017-0.539,6.751c0.168,1.316,0.271,2.329,0.271,2.97v4.996
			c0,0.844-0.034,1.721-0.136,2.564c0.102,0.404,0.136,1.113,0.136,2.16c0,0.371-0.17,1.653-0.54,3.915l0.54,5.4
			c-0.17,0.844-0.271,1.52-0.271,2.024v0.136c1.215,0.708,2.97,1.248,5.265,1.62c0.709,0.877,1.08,1.688,1.08,2.43
			c0,0.812-0.641,1.352-1.89,1.62c-0.979,0.642-2.06,0.945-3.24,0.945h-0.54l-0.811-0.136c-0.135,0.102-0.573,0.202-1.351,0.271
			c-4.657,0-7.662-0.945-9.046-2.835c-0.438-1.521-0.675-2.7-0.675-3.511c0-1.385,0.033-3.611,0.135-6.615
			c0-0.135-0.034-0.776-0.135-1.89c0.101-0.643,0.135-1.654,0.135-3.105h0.136c-0.17-0.473-0.271-1.418-0.271-2.835v-1.891
			c0-1.183,0.101-1.991,0.271-2.431c-0.102-0.169-0.136-0.304-0.136-0.404c0-0.371,0.103-1.283,0.271-2.7
			c-0.169-0.979-0.271-1.991-0.271-3.105v-0.675c0-3.342,0.305-6.649,0.945-9.855c0.236-3.611,0.438-5.604,0.675-5.939
			c-0.169-0.676-0.27-1.08-0.27-1.216c0-0.845,0.911-1.554,2.698-2.16L61.468,9.464L61.468,9.464z"/>
		<path fill="#6A2242" d="M81.479,9.464L81.75,9.6c0.101,0,0.135-0.034,0.135-0.136L82.56,9.6c0.169,0,0.271-0.034,0.271-0.136
			c3.272,0.304,4.961,1.182,5.13,2.564l0.81,8.775v2.16c0,1.756-0.168,4.017-0.539,6.751c0.168,1.316,0.271,2.329,0.271,2.97v4.996
			c0,0.844-0.034,1.721-0.135,2.564c0.101,0.404,0.135,1.113,0.135,2.16c0,0.371-0.169,1.653-0.54,3.915l0.54,5.4
			c-0.169,0.844-0.271,1.52-0.271,2.024v0.136c1.215,0.708,2.971,1.248,5.266,1.62c0.709,0.877,1.08,1.688,1.08,2.43
			c0,0.812-0.642,1.352-1.891,1.62c-0.979,0.642-2.06,0.945-3.24,0.945h-0.539l-0.812-0.136c-0.135,0.102-0.573,0.202-1.35,0.271
			c-4.658,0-7.662-0.945-9.046-2.835c-0.438-1.521-0.676-2.7-0.676-3.511c0-1.385,0.033-3.611,0.136-6.615
			c0-0.135-0.034-0.776-0.136-1.89c0.102-0.643,0.136-1.654,0.136-3.105h0.135c-0.169-0.473-0.271-1.418-0.271-2.835v-1.891
			c0-1.183,0.102-1.991,0.271-2.431c-0.102-0.169-0.135-0.304-0.135-0.404c0-0.371,0.102-1.283,0.271-2.7
			c-0.169-0.979-0.271-1.991-0.271-3.105v-0.675c0-3.342,0.304-6.649,0.944-9.855c0.236-3.611,0.438-5.604,0.675-5.939
			c-0.169-0.676-0.27-1.08-0.27-1.216c0-0.845,0.911-1.554,2.699-2.16L81.479,9.464L81.479,9.464z"/>
		<path fill="#6A2242" d="M116.814,18.746c1.249,3.038,1.892,6.277,1.892,9.721c0.102,0,0.135,0.236,0.135,0.675
			c0,0.169-0.169,1.114-0.54,2.836c0.438,2.193,0.675,4.726,0.675,7.562v0.27c0,1.924-0.27,4.422-0.81,7.562
			c0,1.855-0.776,3.981-2.295,6.346c-0.405,1.991-1.114,2.97-2.16,2.97c-0.439,1.183-1.384,1.755-2.836,1.755
			c-0.573,0-1.688-0.168-3.375-0.539c-1.688,0.371-2.803,0.539-3.375,0.539h-0.54c-2.329,0-3.982-1.618-4.995-4.858
			c-0.979-1.789-1.823-4.558-2.565-8.236c0-0.641-0.033-0.979-0.135-1.08l0.271-2.563c-0.103-1.452-0.136-2.77-0.136-3.916v-0.54
			c0-4.084,0.236-6.21,0.676-6.346c-0.103-0.169-0.136-0.305-0.136-0.404c0-0.812,0.405-2.734,1.215-5.807
			c0-1.182,0.911-4.319,2.7-9.45c0.844-1.013,1.654-1.587,2.432-1.756c2.126-0.81,4.319-1.215,6.614-1.215
			C113.17,12.266,115.6,14.426,116.814,18.746z M108.039,19.151c-0.371,1.316-0.776,3.78-1.215,7.427v2.295
			c0,0.304-0.136,0.606-0.405,0.944v0.539c0,2.363-0.103,3.85-0.271,4.456c0.102,0.607,0.136,1.113,0.136,1.485v1.35
			c0,3.206,0.506,7.393,1.484,12.557h0.135c0.776-1.08,1.451-3.342,2.025-6.75c0.371-2.667,0.54-5.367,0.54-8.102
			c0-1.384-0.169-3.68-0.54-6.886v-0.675c0-0.371,0.033-0.878,0.135-1.485c-0.709-2.902-1.351-5.299-1.891-7.155H108.039z"/>
	</g>
	<g>
		<g>
			<path fill="#EF6159" d="M53.641,107.007l5.73-5.73l10.143,10.146l-5.729,5.729c-0.605,0.605-1.593,0.593-2.203-0.022l-7.92-7.918
				C53.047,108.595,53.033,107.612,53.641,107.007z"/>
			<path fill="#D65750" d="M67.146,109.05l2.367,2.371l-5.729,5.729c-0.605,0.605-1.593,0.593-2.203-0.022l-1.258-1.256
				L67.146,109.05z"/>
		</g>
		<path fill="#F7991C" d="M89.037,92.167l35.627-35.627c-1.437-1.063-3.347-1.099-4.685-0.068L86.66,89.79L89.037,92.167z"/>
		<path fill="#FFC400" d="M81.006,84.14l5.654,5.65l33.319-33.318l0,0c0.008-0.01,0.015-0.027,0.019-0.039
			c-0.004,0.012-0.023,0.019-0.031,0.025c1.152-1.482,0.973-3.699-0.473-5.154c-1.449-1.449-3.664-1.617-5.154-0.473
			c0.008-0.011,0.021-0.021,0.021-0.037c-0.008,0.01-0.021,0.02-0.03,0.026l-0.004-0.002L81.006,84.14z"/>
		<path fill="#F7991C" d="M114.326,50.819c1.028-1.342,0.993-3.254-0.063-4.678L78.637,81.769l2.369,2.371L114.326,50.819z"/>
		<path fill="#FFFFFF" d="M114.254,46.132c1.065,1.428,1.102,3.346,0.072,4.688l0.004,0.003c0.01-0.009,0.022-0.019,0.03-0.027
			c0,0.016-0.014,0.027-0.021,0.037c1.49-1.146,3.705-0.978,5.154,0.473c1.444,1.455,1.625,3.672,0.473,5.154
			c0.008-0.008,0.027-0.015,0.031-0.025c-0.004,0.012-0.011,0.029-0.019,0.039l0,0c1.34-1.027,3.258-0.994,4.687,0.072
			l16.141-26.553L114.254,46.132z"/>
		<path fill="#CFEAF9" d="M114.254,46.132c1.065,1.428,1.102,3.346,0.072,4.688l0.004,0.003c0.01-0.009,0.022-0.019,0.03-0.027
			c0,0.016-0.014,0.027-0.021,0.037c1.49-1.146,26.467-20.84,26.467-20.84L114.254,46.132z"/>
		<g>
			
				<rect x="66.773" y="82.912" transform="matrix(-0.7072 -0.707 0.707 -0.7072 58.0073 217.5494)" fill="#CFEAF9" width="14.556" height="27.702"/>
		</g>
		<g>
			
				<rect x="73.249" y="83.594" transform="matrix(-0.7069 -0.7073 0.7073 -0.7069 58.6477 219.1928)" fill="#FFFFFF" width="2.971" height="27.704"/>
		</g>
		<path fill="#EF6159" d="M132.805,34.854c0.414,0.554,0.854,1.09,1.357,1.595c0.565,0.563,1.176,1.057,1.803,1.514l4.842-7.971
			L132.805,34.854z"/>
		<g>
			
				<rect x="82.924" y="94.508" transform="matrix(0.7075 -0.7067 0.7067 0.7075 -42.2822 87.7975)" fill="#FFFFFF" width="3.988" height="0.934"/>
			
				<rect x="81.408" y="92.996" transform="matrix(0.707 -0.7072 0.7072 0.707 -41.6621 86.3707)" fill="#FFFFFF" width="3.988" height="0.936"/>
			
				<rect x="79.905" y="91.482" transform="matrix(0.707 -0.7072 0.7072 0.707 -41.0332 84.8652)" fill="#CFEAF9" width="3.989" height="0.939"/>
			
				<rect x="78.386" y="89.964" transform="matrix(0.7074 -0.7069 0.7069 0.7074 -40.4031 83.283)" fill="#CFEAF9" width="3.987" height="0.945"/>
			
				<rect x="76.88" y="88.455" transform="matrix(0.7076 -0.7066 0.7066 0.7076 -39.7716 81.735)" fill="#FFFFFF" width="3.989" height="0.936"/>
			
				<rect x="75.369" y="86.946" transform="matrix(0.7071 -0.7071 0.7071 0.7071 -39.1527 80.3076)" fill="#FFFFFF" width="3.99" height="0.938"/>
			
				<rect x="73.855" y="85.433" transform="matrix(0.7066 -0.7076 0.7076 0.7066 -38.5311 78.873)" fill="#FFFFFF" width="3.989" height="0.939"/>
		</g>
		<g>
			
				<rect x="70.922" y="106.519" transform="matrix(0.707 -0.7072 0.7072 0.707 -54.2988 82.9174)" fill="#FFFFFF" width="3.989" height="0.936"/>
			
				<rect x="69.409" y="105.007" transform="matrix(0.7066 -0.7076 0.7076 0.7066 -53.6847 81.4693)" fill="#FFFFFF" width="3.989" height="0.936"/>
			
				<rect x="67.898" y="103.491" transform="matrix(0.7072 -0.707 0.707 0.7072 -53.0358 79.8493)" fill="#CFEAF9" width="3.989" height="0.939"/>
			
				<rect x="66.384" y="101.975" transform="matrix(0.7076 -0.7066 0.7066 0.7076 -52.3957 78.2726)" fill="#CFEAF9" width="3.989" height="0.942"/>
			
				<rect x="64.871" y="100.466" transform="matrix(0.707 -0.7072 0.7072 0.707 -51.7911 76.8646)" fill="#FFFFFF" width="3.989" height="0.936"/>
			
				<rect x="63.354" y="98.952" transform="matrix(0.7074 -0.7069 0.7069 0.7074 -51.1525 75.2867)" fill="#FFFFFF" width="3.987" height="0.936"/>
			
				<rect x="61.845" y="97.441" transform="matrix(0.7071 -0.7071 0.7071 0.7071 -50.5337 73.8186)" fill="#FFFFFF" width="3.99" height="0.936"/>
		</g>
	</g>
	<g>
		<path fill="#EF6159" d="M12.228,71.511c0.349,0.684,0.723,1.689,1.135,3.043h0.053c1.121-2.669,1.816-4.139,2.113-4.384
			c0.451-0.374,1.16-0.567,2.114-0.567h0.206c0.271,0,0.413,0.221,0.413,0.671c0,0.104,0.052,0.556,0.154,1.342
			c0,0.219-0.038,0.566-0.104,1.03l0.412,5.056v0.772c0,0.143-0.013,0.335-0.052,0.567c0.104,0.219,0.168,0.451,0.207,0.671
			c-0.144,0.451-0.207,0.799-0.207,1.031v0.206c0.207,1.341,0.31,2.386,0.31,3.146c0,2.54-0.09,3.816-0.258,3.816
			c-0.348,0.348-0.657,0.516-0.928,0.516c-0.761,0-1.432-0.413-2.012-1.238v-1.855c0-0.219,0.013-0.451,0.052-0.67l-0.104-1.444
			c0.039-0.271,0.053-0.542,0.053-0.825l-0.206-2.631l0.103-1.031V78.68h-0.051c-0.271,1.432-0.529,2.282-0.774,2.579
			c-0.219,0.168-0.488,0.297-0.824,0.412c-1.136,0-1.701-0.143-1.701-0.412c-0.144-0.297-0.297-0.993-0.465-2.063h-0.053V79.3
			c0.039,0.593,0.053,0.941,0.053,1.031c0,0.929-0.091,2.229-0.259,3.92c0.104,0.413,0.155,0.709,0.155,0.877
			c0,0.129-0.052,0.541-0.155,1.237l0.053,0.104c0,0.555-0.685,0.89-2.063,0.979H8.463c-0.658,0-0.98-1.069-0.98-3.197
			c-0.038,0-0.052-0.116-0.052-0.361c0.039-1.663,0.091-2.899,0.155-3.713c0-1.405-0.039-2.772-0.104-4.126
			c0-0.193,0.064-0.941,0.206-2.27v-0.671c0-0.115,0.015-0.192,0.053-0.258l-0.053-0.259c0-2.204,0.168-3.301,0.518-3.301
			c0.477-0.104,0.838-0.154,1.083-0.154C10.229,69.139,11.209,69.925,12.228,71.511z M11.764,78.99v0.154h0.051V78.99H11.764z"/>
		<path fill="#EF6159" d="M22.691,68.43c0.116,0,0.22,0.503,0.311,1.495c0.657,2.953,1.187,5.171,1.599,6.653
			c0.039,0.063,0.09,0.297,0.154,0.723h0.052c0-0.207,0.155-0.98,0.465-2.321v-0.052c0-0.516,0.014-1.341,0.051-2.476
			c-0.103-0.541-0.153-0.992-0.153-1.342v-0.67c0-0.322,0.013-0.723,0.052-1.187l-0.052-0.311c0-0.618,0.527-0.929,1.599-0.929
			h0.258c0.284,0,0.479,0.22,0.567,0.671c0.271,2.385,0.723,4.925,1.341,7.633c0,0.143,0.064,0.839,0.207,2.114v0.518
			c0,0.464-0.039,0.838-0.104,1.134c0.039,0.181,0.052,0.349,0.052,0.517c-0.232,2.54-0.438,3.816-0.619,3.816
			c-0.193,0.813-0.426,1.405-0.722,1.805c-0.144,0.696-0.361,1.199-0.671,1.496c-0.877,0.799-1.444,1.225-1.702,1.289
			c-0.541,0.206-0.863,0.31-0.979,0.31l-0.36-0.052l-0.723,0.052c-0.271,0-0.619-0.168-1.032-0.516
			c-0.683,0-1.146-1.019-1.392-3.043c-0.063-0.206-0.104-0.658-0.104-1.341v-0.155c0-0.09,0.039-0.554,0.104-1.393v-0.567
			c0-0.541,0.373-0.863,1.134-0.979c0.49-0.143,0.969-0.206,1.444-0.206h0.206c0.181,0,0.297,0.45,0.361,1.341
			c0.052,0.181,0.154,0.915,0.31,2.218c0.142,0.425,0.206,0.734,0.206,0.928c1.135-1.83,1.702-3.57,1.702-5.209
			c-0.025-0.786-0.077-1.186-0.154-1.186c-0.658,0.451-1.535,0.67-2.631,0.67h-0.154c-1.264,0-2.152-0.813-2.683-2.424
			c-0.349-0.696-0.605-2.037-0.773-4.022c-0.038-1.741-0.09-3.469-0.153-5.158c0-0.258,0.426-0.45,1.289-0.566
			C22.124,67.85,22.691,68.081,22.691,68.43z"/>
		<path fill="#EF6159" d="M38.225,68.829l0.104,0.052c0.039,0,0.052-0.013,0.052-0.052l0.258,0.052c0.064,0,0.104-0.013,0.104-0.052
			c1.251,0.115,1.896,0.451,1.96,0.979l0.31,3.353v0.824c0,0.672-0.063,1.535-0.207,2.579c0.064,0.503,0.104,0.891,0.104,1.136
			v1.907c0,0.322-0.014,0.657-0.053,0.979c0.039,0.155,0.053,0.426,0.053,0.825c0,0.143-0.064,0.632-0.206,1.496l0.206,2.063
			c-0.064,0.323-0.104,0.581-0.104,0.774v0.051c0.465,0.271,1.135,0.478,2.012,0.619c0.271,0.335,0.413,0.645,0.413,0.929
			c0,0.31-0.245,0.516-0.723,0.619c-0.374,0.244-0.786,0.36-1.237,0.36h-0.207l-0.309-0.053c-0.052,0.039-0.22,0.078-0.518,0.104
			c-1.778,0-2.927-0.361-3.454-1.083c-0.169-0.58-0.259-1.031-0.259-1.341c0-0.528,0.014-1.381,0.053-2.527
			c0-0.052-0.014-0.297-0.053-0.722c0.039-0.245,0.053-0.633,0.053-1.188h0.052c-0.064-0.181-0.104-0.542-0.104-1.083V79.71
			c0-0.452,0.039-0.761,0.104-0.929c-0.039-0.064-0.052-0.116-0.052-0.154c0-0.144,0.037-0.49,0.103-1.032
			c-0.063-0.374-0.103-0.761-0.103-1.186v-0.259c0-1.276,0.115-2.541,0.359-3.766c0.091-1.38,0.168-2.141,0.259-2.27
			c-0.064-0.259-0.104-0.412-0.104-0.465c0-0.321,0.348-0.593,1.031-0.824h0.103V68.829z"/>
		<path fill="#EF6159" d="M51.728,72.375c0.478,1.16,0.723,2.397,0.723,3.714c0.038,0,0.052,0.09,0.052,0.258
			c0,0.064-0.064,0.425-0.206,1.083c0.168,0.838,0.258,1.805,0.258,2.888v0.104c0,0.734-0.104,1.688-0.31,2.888
			c0,0.709-0.298,1.521-0.877,2.424c-0.154,0.762-0.426,1.136-0.825,1.136c-0.167,0.45-0.528,0.671-1.083,0.671
			c-0.219,0-0.646-0.064-1.289-0.206c-0.646,0.142-1.07,0.206-1.289,0.206h-0.207c-0.89,0-1.521-0.619-1.908-1.856
			c-0.374-0.684-0.696-1.741-0.979-3.146c0-0.245-0.014-0.374-0.053-0.412l0.104-0.98c-0.039-0.555-0.052-1.058-0.052-1.495V79.44
			c0-1.56,0.09-2.372,0.258-2.424c-0.039-0.063-0.052-0.116-0.052-0.154c0-0.31,0.154-1.045,0.464-2.218
			c0-0.451,0.349-1.649,1.031-3.609c0.322-0.388,0.633-0.606,0.929-0.672c0.813-0.31,1.649-0.464,2.526-0.464
			C50.335,69.899,51.264,70.725,51.728,72.375z M48.375,72.529c-0.143,0.504-0.297,1.444-0.464,2.838v0.877
			c0,0.115-0.053,0.231-0.155,0.36v0.206c0,0.902-0.038,1.471-0.104,1.702c0.038,0.231,0.053,0.425,0.053,0.567v0.516
			c0,1.225,0.192,2.823,0.566,4.796h0.052c0.297-0.412,0.555-1.275,0.773-2.578c0.142-1.019,0.206-2.051,0.206-3.095
			c0-0.528-0.064-1.405-0.206-2.63V75.83c0-0.143,0.013-0.335,0.051-0.567c-0.271-1.107-0.516-2.022-0.722-2.732h-0.051V72.529z"/>
		<path fill="#EF6159" d="M54.544,69.1c1.238,0,1.855,0.207,1.855,0.619c0.232,0.606,0.503,1.754,0.825,3.456
			c-0.038,0.451-0.051,0.838-0.051,1.134c0.31,0.632,0.58,1.857,0.825,3.662c0.038,0.916,0.103,1.741,0.206,2.477h0.052
			c0.271-1.51,0.412-2.694,0.412-3.56c0.142-0.684,0.374-2.229,0.723-4.642v-0.361c0-1.728,0.451-2.643,1.341-2.733
			c0.038-0.037,0.167-0.052,0.36-0.052h0.104c0.619,0,0.93,0.193,0.93,0.567v0.465c-0.182,0.89-0.322,1.393-0.413,1.495l0.052,0.258
			V72.4l-0.052,0.104c0.091,0,0.168,0.168,0.206,0.516v0.413c0,0.58-0.104,1.561-0.31,2.939v1.135c0,0.219-0.154,0.992-0.465,2.32
			l0.052,0.31v0.155c-0.129,1.096-0.244,1.728-0.36,1.908v0.103c0.063,0.49,0.104,0.761,0.104,0.825
			c-0.271,0.877-0.451,1.922-0.516,3.146c-0.193,0.864-0.438,1.394-0.723,1.6c-0.438,0.297-1.327,0.58-2.683,0.825h-0.103
			c-0.567,0-1.032-0.451-1.394-1.342c-0.36-0.45-0.58-1.122-0.671-2.012c-0.761-2.798-1.135-4.887-1.135-6.292
			c-0.116,0-0.258-1.638-0.412-4.899c-0.063,0-0.091-0.205-0.104-0.618v-0.877c0-0.259-0.053-0.684-0.154-1.289
			c0.038-0.427,0.051-0.685,0.051-0.773c-0.103-0.387-0.154-0.605-0.154-0.671c0-0.399,0.298-0.683,0.877-0.825H54.544z"/>
		<path fill="#EF6159" d="M66.578,69.577c0.143-0.064,0.36-0.104,0.646-0.104c0.89,0.091,1.715,0.155,2.501,0.193
			c0.503,0.271,0.748,0.605,0.748,1.019c-0.451,0.916-1.354,1.367-2.695,1.367h-0.604l-0.245,0.052v-0.052l-0.104,0.052
			c-0.064-0.039-0.13-0.052-0.193-0.052c-0.104,0.258-0.154,0.503-0.154,0.722v0.104c0,0.258,0.014,0.593,0.052,1.019l-0.244,0.685
			c0.052,0.477,0.115,0.722,0.192,0.722s0.322-0.013,0.748-0.052c1.302,0.297,1.946,0.516,1.946,0.632
			c0.207,0.181,0.31,0.374,0.31,0.594c-0.219,0.517-0.632,0.773-1.251,0.773c-0.103,0-0.604,0.167-1.508,0.49h-0.193l0.052,0.09
			c0,0.09-0.014,0.142-0.052,0.142c0.038,0.387,0.052,0.658,0.052,0.825v0.735c0,0.219-0.038,0.722-0.104,1.509
			c0.038,0.258,0.104,0.488,0.206,0.683l-0.052,0.58v0.479c0,1.212,0.063,2.05,0.193,2.526c-0.038,0.335-0.053,0.593-0.053,0.786
			v0.091c0,0.193,0.116,0.296,0.35,0.296c0.605,0,1.225-0.038,1.855-0.103c0.8,0,1.199,0.193,1.199,0.58
			c-0.348,0.967-1.482,1.418-3.404,1.379c-1.521,0.116-2.591-0.025-3.223-0.438c-0.374-1.715-0.567-3.403-0.567-5.066
			c0-0.517,0.038-1.147,0.104-1.896c-0.064-0.231-0.143-0.761-0.206-1.599l0.104-1.122c-0.039-0.077-0.063-0.632-0.104-1.65
			l0.245-3.158c-0.064-0.206-0.09-0.349-0.09-0.438v-0.193c0-0.153,0.013-0.31,0.051-0.477c-0.038-0.22-0.064-0.374-0.104-0.438
			c0.038-0.271,0.053-0.503,0.053-0.684v-1.019c0-0.271,0.359-0.556,1.096-0.825c0.374,0,0.555-0.014,0.555-0.052
			C65.663,69.371,66.295,69.474,66.578,69.577z"/>
	</g>
</g>
</svg>
