<?xml version="1.0" encoding="utf-8"?>
<!-- Generator: Adobe Illustrator 16.0.0, SVG Export Plug-In . SVG Version: 6.00 Build 0)  -->
<!DOCTYPE svg PUBLIC "-//W3C//DTD SVG 1.1//EN" "http://www.w3.org/Graphics/SVG/1.1/DTD/svg11.dtd">
<svg version="1.1" id="Layer_1" xmlns="http://www.w3.org/2000/svg" xmlns:xlink="http://www.w3.org/1999/xlink" x="0px" y="0px"
	 width="155.219px" height="75.639px" viewBox="0 0 155.219 75.639" enable-background="new 0 0 155.219 75.639"
	 xml:space="preserve">
<g>
	<path fill="#FFFFFF" d="M27.251,5.181C37.92,5.446,53.513-5.865,63.964,4.135c6.753,6.462,1.877,31.324,5.642,30.056
		c4.909-1.656,13.365-1.984,15.791,3.287c3.84,8.346,5.943,10.989,7.885,10.651c2.518-0.438,9.482-9.323,19.15-9.998
		c2.762-0.19,5.817-0.321,8.541,0c2.105,0.25,14.229-9.754,26.795-4.371c7.619,3.265,4.33,8.636,5.66,16.074
		c0.924,5.168,3.438,10.099,0.151,15.377c-2.38,3.822-10.097,6.229-14.279,6.722c-5.905,0.694-12.182,0.307-17.702,1.321
		c-13.171,2.425-28.803,3.035-42.556,1.664c-4.003-0.397-8.087-2.008-11.633-2.58c-5.127-0.828-11.003-0.037-16.222-1.139
		c-9.159-1.936-18.893-1.461-28.15-0.186c-4.804,0.659-9.332-0.992-13.748-2.814c-2.789-1.15-8.152-3.729-9.135-7.553
		c-2.01-7.814,16.196-6.316,21.574-8.418c0.888-4.267-1.647-6.541-3.189-10.148c-0.719-1.682-0.584-3.363-1.489-4.887
		c-0.953-1.605,7.425-6.492,6.434-8.098C18.118,20.423,27.251,5.181,27.251,5.181z"/>
	<path fill="#C5E7E9" d="M29.458,61.286c0,0,36.166-5.402,40.042-0.83c3.878,4.568,43.116-1.463,51-0.606
		c7.887,0.858,11.48-5.132,21.572,1.887c14.308,7.42-27.256,8.772-75.991,4.229C47.511,64.233,15.328,67.981,29.458,61.286z"/>
	<g>
		<path fill="#231F20" d="M25.835,36.292c0.023-0.002,0.056,0.016,0.094,0.048c0.038,0.034,0.082,0.063,0.132,0.081
			c0.024-0.002,0.055-0.01,0.09-0.023c0.034-0.016,0.063-0.023,0.088-0.025c0.048-0.003,0.097,0.019,0.148,0.063
			c0.051,0.044,0.101,0.063,0.149,0.062c0.023-0.002,0.06-0.011,0.106-0.025c0.046-0.017,0.081-0.024,0.105-0.026
			c0.047-0.027,0.101-0.025,0.164,0.006c0.062,0.032,0.105,0.047,0.129,0.045c0.048-0.004,0.109,0.022,0.187,0.076
			c0.076,0.055,0.138,0.08,0.185,0.077c0.002,0.022,0.016,0.053,0.043,0.087c0.026,0.034,0.029,0.076,0.01,0.125
			c0.023-0.002,0.059-0.018,0.105-0.043c0.021-0.025,0.047-0.017,0.075,0.029c0.074,0.043,0.177,0.145,0.31,0.304l0.113,0.063
			c0.002,0.024,0.01,0.055,0.025,0.089c0.015,0.034,0.034,0.064,0.061,0.087c0.027,0.046,0.115,0.194,0.267,0.449
			c0.151,0.254,0.241,0.414,0.271,0.484l0.243,0.849c0.114-0.081,0.188-0.229,0.22-0.449l0.666-0.771
			c0.208-0.424,0.639-0.792,1.29-1.104c0.021-0.025,0.057-0.04,0.104-0.045c0.139-0.083,0.266-0.141,0.385-0.173
			c0.048-0.003,0.159-0.036,0.336-0.098c0.175-0.06,0.322-0.095,0.443-0.104l0.035-0.003c0.022-0.024,0.044-0.04,0.068-0.042
			c0.335-0.023,0.542-0.003,0.62,0.063c0.139-0.057,0.221-0.088,0.245-0.09c0.19-0.015,0.354,0.059,0.485,0.217
			c0.171,0.037,0.371,0.13,0.599,0.281s0.379,0.249,0.454,0.291c0.009,0.12,0.067,0.261,0.177,0.42
			c0.106,0.16,0.177,0.301,0.21,0.419c0.025,0.021,0.052,0.05,0.079,0.083c0.026,0.035,0.053,0.067,0.08,0.103
			c0.026,0.034,0.053,0.074,0.079,0.121c0.034,0.119,0.088,0.276,0.162,0.476c0.074,0.199,0.128,0.334,0.156,0.403
			c0.046-0.026,0.078-0.07,0.099-0.134c0.019-0.061,0.04-0.104,0.063-0.131c0.021-0.025,0.045-0.046,0.067-0.06
			c0.023-0.015,0.046-0.033,0.068-0.061c-0.002-0.023,0.008-0.049,0.031-0.072c0.021-0.025,0.044-0.059,0.065-0.097
			c0.02-0.037,0.042-0.069,0.063-0.095c0.022-0.025,0.056-0.077,0.098-0.151c0.061-0.173,0.125-0.272,0.194-0.304l0.087-0.295
			c0.002,0.023,0.003,0.048,0.005,0.071l0.039,0.033c0.091-0.079,0.213-0.209,0.368-0.388c0.044-0.052,0.151-0.139,0.323-0.26
			c0.172-0.12,0.291-0.22,0.358-0.297c0.093-0.03,0.245-0.104,0.453-0.215c0.208-0.109,0.373-0.172,0.492-0.181l0.072-0.005
			c0.048-0.004,0.075-0.023,0.085-0.062c0.01-0.037,0.025-0.057,0.05-0.059c0.194,0.035,0.353,0.047,0.472,0.038
			c0.168-0.013,0.417-0.055,0.748-0.128c0.048-0.004,0.122,0.016,0.223,0.057c0.313,0.001,0.764,0.077,1.352,0.226
			c0.025,0.021,0.066,0.08,0.121,0.172c0.021-0.025,0.057-0.027,0.107-0.008c0.076,0.066,0.159,0.127,0.248,0.18
			c0.087,0.055,0.188,0.106,0.3,0.159c0.113,0.052,0.193,0.1,0.245,0.144c0.036,0.166,0.149,0.303,0.337,0.409
			c0.189,0.106,0.311,0.205,0.364,0.297c0.026,0.022,0.063,0.039,0.113,0.047c0.048,0.009,0.085,0.013,0.109,0.011
			c0.059,0.141,0.172,0.307,0.343,0.497c0.171,0.192,0.285,0.358,0.343,0.498c0.104,0.091,0.171,0.182,0.202,0.273
			c0.025,0.023,0.027,0.048,0.006,0.072l-0.031,0.073l0.15,0.099c0.025,0.021,0.027,0.046,0.005,0.071
			c-0.021,0.05-0.029,0.087-0.027,0.109c0.051,0.045,0.145,0.171,0.28,0.377c0.134,0.184,0.222,0.395,0.264,0.63
			c0.059,0.142,0.089,0.233,0.093,0.281c0.004,0.049-0.015,0.123-0.056,0.223c0.009,0.119,0.054,0.248,0.137,0.388
			c0.053,0.066,0.119,0.135,0.194,0.201c0.031,0.095,0.055,0.247,0.07,0.464c0.01,0.12,0.017,0.301,0.022,0.54
			c0.005,0.24,0.013,0.421,0.021,0.54c0.002,0.023,0.021,0.048,0.06,0.067c0.039,0.021,0.059,0.057,0.062,0.104
			c0.013,0.168,0.081,0.281,0.206,0.345c-0.02,0.051-0.015,0.11,0.014,0.18c0.028,0.07,0.044,0.117,0.046,0.142
			c0.002,0.024-0.008,0.051-0.03,0.073c0.128,0.111,0.199,0.253,0.212,0.419c0.005,0.071-0.013,0.157-0.054,0.256
			c0.081,0.116,0.127,0.244,0.138,0.389c0.012,0.168-0.013,0.326-0.074,0.475c0.124,0.039,0.19,0.129,0.201,0.273
			c0.005,0.072-0.003,0.121-0.026,0.146c0.083,0.14,0.131,0.291,0.144,0.459c0.01,0.144-0.007,0.242-0.052,0.293
			c-0.02,0.05-0.01,0.097,0.029,0.142c0.04,0.047,0.06,0.08,0.062,0.104c0.004,0.048-0.011,0.099-0.043,0.146
			c-0.032,0.051-0.049,0.088-0.047,0.111c0.052,0.045,0.097,0.168,0.137,0.368c0.037,0.203,0.096,0.324,0.17,0.367
			c-0.02,0.049-0.025,0.129-0.018,0.234c0.008,0.108,0.001,0.188-0.02,0.238c0.031,0.094,0.042,0.248,0.035,0.465
			c-0.009,0.219,0.004,0.387,0.037,0.504c-0.021,0.051-0.063,0.113-0.131,0.19l0.014,0.179c0.012,0.168-0.028,0.268-0.123,0.299
			c0.027,0.045,0.044,0.092,0.047,0.141c0.004,0.049-0.01,0.121-0.038,0.219c-0.028,0.101-0.041,0.185-0.035,0.257l0.005,0.069
			c-0.093,0.031-0.15,0.084-0.168,0.158c-0.02,0.072-0.03,0.16-0.035,0.256c-0.006,0.097-0.02,0.17-0.039,0.22
			c0.004,0.049,0.019,0.094,0.047,0.141c0.026,0.047,0.042,0.082,0.044,0.104c-0.022,0.025-0.117,0.123-0.285,0.291
			c-0.169,0.17-0.324,0.261-0.468,0.271c-0.153,0.203-0.466,0.373-0.938,0.502c-0.139,0.082-0.22,0.125-0.242,0.127
			c-0.063,0.125-0.168,0.193-0.312,0.203c-0.048,0.004-0.098-0.017-0.148-0.062l-0.133,0.152c-0.049,0.004-0.107,0.008-0.18,0.014
			c-0.073,0.007-0.119,0.021-0.142,0.047c-0.169-0.012-0.377-0.049-0.622-0.114c-0.245-0.066-0.392-0.101-0.439-0.097l-0.671-0.274
			l-0.008-0.107c-0.067,0.054-0.144,0.013-0.227-0.127c-0.095,0.006-0.182-0.022-0.259-0.09c-0.076-0.066-0.144-0.146-0.197-0.236
			c-0.056-0.094-0.109-0.162-0.16-0.207c-0.004-0.047,0.054-0.098,0.17-0.155c-0.088-0.211-0.133-0.326-0.135-0.353
			c-0.006-0.069,0.014-0.133,0.059-0.184l-0.038-0.035c-0.05-0.021-0.088-0.041-0.114-0.063c-0.011-0.143-0.052-0.225-0.126-0.243
			l-0.008-0.107c-0.002-0.021-0.013-0.088-0.033-0.195c-0.02-0.106-0.032-0.196-0.037-0.268c-0.006-0.072,0.002-0.133,0.022-0.184
			l-0.205-0.347c-0.029-0.069-0.048-0.164-0.057-0.283c-0.011-0.145-0.031-0.237-0.058-0.284c-0.002-0.023,0.021-0.043,0.068-0.062
			c0.047-0.014,0.069-0.033,0.067-0.059c-0.025-0.021-0.063-0.049-0.114-0.082c-0.052-0.031-0.077-0.06-0.079-0.084
			c-0.024-0.334-0.063-0.523-0.114-0.568c0.02-0.051,0.027-0.123,0.021-0.219c-0.004-0.047-0.024-0.154-0.061-0.32
			c-0.037-0.166-0.046-0.285-0.026-0.358c-0.002-0.023-0.005-0.06-0.008-0.107l0.03-0.074c-0.001-0.022-0.017-0.059-0.044-0.104
			c-0.026-0.023-0.014-0.035,0.034-0.039c-0.05-0.021-0.091-0.078-0.12-0.174c-0.031-0.095-0.061-0.15-0.085-0.173
			c-0.002-0.022-0.026-0.022-0.072,0.005c-0.047,0.028-0.071,0.028-0.072,0.006c0.022-0.025,0.026-0.123,0.015-0.291l0.033-0.037
			c0.021-0.025,0.032-0.051,0.031-0.074l-0.055-0.25c-0.002-0.023,0.001-0.059,0.01-0.107c0.009-0.048,0.012-0.086,0.01-0.11
			l-0.005-0.07c-0.004-0.049-0.015-0.113-0.033-0.195c-0.018-0.084-0.027-0.137-0.029-0.161c-0.004-0.048,0.015-0.121,0.057-0.22
			c-0.06-0.143-0.127-0.399-0.203-0.78c-0.021-0.287-0.014-0.517,0.021-0.688c-0.088-0.209-0.142-0.446-0.161-0.709
			c-0.011-0.144,0.002-0.313,0.035-0.508c-0.027-0.046-0.045-0.117-0.052-0.213c-0.005-0.072-0.002-0.182,0.013-0.325
			c0.013-0.146,0.018-0.254,0.012-0.326c-0.007-0.096-0.038-0.188-0.093-0.282c-0.002-0.022,0-0.07,0.008-0.145
			c0.006-0.073,0.008-0.133,0.004-0.181c-0.005-0.071-0.021-0.118-0.047-0.143c0.02-0.073,0.023-0.182,0.013-0.325
			c-0.018-0.238-0.099-0.438-0.242-0.596c-0.145-0.157-0.324-0.229-0.539-0.213l-0.145,0.011c-0.093,0.03-0.272,0.2-0.539,0.509
			c0.007,0.097-0.009,0.218-0.046,0.364c-0.038,0.146-0.054,0.256-0.048,0.328l0.016,0.215c0.002,0.024-0.008,0.063-0.027,0.111
			l-0.03,0.074l0.038,0.033c0.025,0.021,0.039,0.045,0.041,0.068c0.012,0.168,0.007,0.265-0.015,0.29l-0.092,0.223l0.045,0.105
			l-0.1,0.621c0.002,0.022,0.012,0.084,0.031,0.179c0.02,0.094,0.03,0.165,0.034,0.213c0.01,0.146-0.017,0.278-0.08,0.403
			c0.063,0.188,0.097,0.316,0.102,0.389l0.014,0.18c0.003,0.05-0.017,0.109-0.06,0.187c-0.042,0.076-0.061,0.137-0.057,0.184
			c0.002,0.025,0.016,0.066,0.044,0.123c0.028,0.06,0.044,0.111,0.048,0.16l0.005,0.07c0.005,0.072-0.012,0.158-0.052,0.258
			c-0.042,0.098-0.06,0.172-0.057,0.221c0.069,0.283,0.109,0.498,0.12,0.642l0.011,0.145c0.004,0.049-0.011,0.109-0.042,0.183
			c-0.029,0.075-0.044,0.137-0.04,0.186l0.029,0.396c0.003,0.049-0.015,0.133-0.054,0.256s-0.056,0.221-0.051,0.293
			c0.002,0.022,0.028,0.059,0.08,0.102c0.051,0.045,0.066,0.092,0.046,0.144c0.027,0.045,0.03,0.086,0.01,0.125
			c-0.021,0.036-0.031,0.067-0.029,0.092c0.081,0.115,0.128,0.256,0.14,0.424l0.043,0.574c0.001,0.022-0.009,0.061-0.028,0.108
			c-0.021,0.052-0.03,0.088-0.028,0.111s0.011,0.064,0.027,0.123s0.026,0.113,0.03,0.162l0.005,0.07
			c0.004,0.049-0.022,0.114-0.075,0.204c-0.055,0.089-0.079,0.156-0.075,0.203c0.003,0.047,0.021,0.131,0.055,0.25
			c0.032,0.117,0.051,0.211,0.056,0.283c0.006,0.072-0.002,0.133-0.021,0.182c0.004,0.05-0.016,0.123-0.057,0.222
			c-0.041,0.102-0.059,0.174-0.055,0.223c0.005,0.07,0.02,0.195,0.046,0.375c0.024,0.178,0.028,0.316,0.012,0.414
			c-0.022,0.025-0.06,0.096-0.111,0.207s-0.101,0.193-0.145,0.244c-0.021,0.051-0.027,0.111-0.022,0.182
			c0.006,0.072,0.009,0.121,0.011,0.146c0.002,0.023-0.03,0.063-0.1,0.115c-0.068,0.055-0.102,0.104-0.098,0.151
			c-0.23,0.137-0.405,0.211-0.524,0.219l-0.071,0.007c-0.024,0.002-0.054,0.026-0.086,0.077c-0.031,0.052-0.062,0.076-0.085,0.078
			L36.6,53.549c-0.071,0.007-0.157,0-0.254-0.016c-0.098-0.016-0.158-0.023-0.182-0.021c-0.072,0.004-0.119,0.02-0.141,0.045
			c-0.051-0.021-0.143-0.043-0.276-0.07c-0.135-0.025-0.227-0.049-0.275-0.07c-0.051-0.02-0.098-0.004-0.142,0.047l-0.036,0.004
			c-0.1-0.041-0.231-0.043-0.397-0.008c-0.165,0.037-0.263,0.033-0.29-0.016l-0.431,0.033c-0.056-0.093-0.083-0.15-0.085-0.174
			c-0.293-0.052-0.526-0.3-0.705-0.742c-0.003-0.049,0-0.09,0.01-0.127c0.009-0.037,0.013-0.068,0.011-0.093
			c-0.002-0.023-0.039-0.038-0.111-0.045c-0.072-0.006-0.109-0.021-0.111-0.047c-0.007-0.096-0.051-0.201-0.132-0.313
			c-0.081-0.115-0.124-0.209-0.129-0.279l-0.006-0.072l-0.145-0.494c-0.001-0.022-0.01-0.059-0.025-0.106
			c-0.016-0.047-0.024-0.082-0.026-0.105l-0.023-0.323c-0.006-0.07-0.022-0.144-0.052-0.212c-0.029-0.071-0.045-0.131-0.049-0.178
			c-0.002-0.022,0-0.061,0.01-0.108c0.008-0.05,0.011-0.097,0.007-0.146l-0.04-0.07c-0.004-0.047-0.007-0.082-0.009-0.106
			l-0.005-0.072c-0.005-0.07-0.021-0.201-0.048-0.393c-0.025-0.191-0.042-0.334-0.049-0.431c-0.009-0.118,0.003-0.276,0.036-0.471
			l-0.123-0.209c0.019-0.074,0.023-0.17,0.015-0.289c-0.009-0.121-0.047-0.309-0.114-0.57c-0.068-0.26-0.106-0.461-0.117-0.604
			l0.021-1.193l-0.027-0.358l-0.002-0.035c0.02-0.049,0.029-0.086,0.028-0.111l-0.009-0.106c-0.008-0.119-0.046-0.297-0.111-0.533
			c-0.039-0.189-0.071-0.477-0.1-0.859c-0.02-0.263-0.022-0.456-0.007-0.577c0.021-0.386,0.02-0.723-0.001-1.01
			c-0.036-0.479-0.113-0.87-0.232-1.175c-0.007-0.096-0.001-0.169,0.021-0.219c-0.107-0.16-0.317-0.229-0.629-0.206
			c-0.168,0.013-0.285,0.034-0.355,0.063c-0.234,0.089-0.447,0.311-0.638,0.66l-0.191,0.339c0.002,0.024,0.005,0.062,0.008,0.108
			c0.004,0.048-0.006,0.085-0.028,0.109c0.002,0.024-0.029,0.074-0.097,0.151l-0.01,0.362c0.004,0.048,0.003,0.12-0.002,0.217
			c-0.005,0.097-0.006,0.168-0.002,0.216c0.002,0.024,0.012,0.084,0.03,0.179c0.021,0.096,0.031,0.166,0.034,0.215l0.009,0.107
			c0.003,0.049-0.018,0.098-0.062,0.147c-0.045,0.053-0.066,0.09-0.064,0.112c-0.019,0.074-0.012,0.171,0.021,0.287
			c0.033,0.119,0.027,0.191-0.019,0.22c0.005,0.071,0.027,0.143,0.069,0.211c0.041,0.067,0.063,0.129,0.066,0.176l0.006,0.07
			c0.007,0.098-0.009,0.219-0.046,0.364c-0.036,0.146-0.052,0.259-0.047,0.33l0.008,0.105c0.004,0.049,0.032,0.106,0.084,0.176
			c0.053,0.068,0.083,0.137,0.088,0.209c0.002,0.025-0.002,0.055-0.011,0.092c-0.01,0.037-0.014,0.068-0.012,0.092
			c0.005,0.07,0.035,0.146,0.089,0.228c0.055,0.082,0.083,0.133,0.085,0.158c0.028,0.067,0.055,0.182,0.078,0.336
			c0.023,0.153,0.038,0.256,0.041,0.303c0.01,0.121,0.029,0.229,0.06,0.322c0.004,0.049,0.021,0.125,0.053,0.229
			c0.031,0.105,0.049,0.183,0.053,0.23c0.004,0.047-0.01,0.108-0.039,0.184c-0.031,0.074-0.044,0.135-0.041,0.185l0.016,0.215
			c0.011,0.145-0.006,0.239-0.051,0.293c0.104,0.112,0.165,0.274,0.181,0.492c0.007,0.096-0.007,0.239-0.039,0.436
			c-0.021,0.049-0.007,0.084,0.043,0.105l0.076,0.065c-0.014,0.146,0.031,0.262,0.135,0.351c0.006,0.071,0,0.17-0.015,0.291
			c-0.016,0.122-0.021,0.206-0.018,0.254c0.009,0.121,0.052,0.213,0.13,0.278c0.007,0.097,0.003,0.211-0.012,0.345
			c-0.015,0.133-0.019,0.235-0.014,0.309l0.009,0.107c0.005,0.069-0.001,0.161-0.017,0.271c-0.017,0.109-0.022,0.188-0.019,0.236
			c0.007,0.096,0.035,0.166,0.088,0.211c-0.031,0.242-0.079,0.391-0.147,0.44l0.019,0.252l-0.201,0.232
			c0.019,0.24-0.026,0.447-0.133,0.623c-0.134,0.154-0.284,0.238-0.451,0.25c-0.022,0.025-0.057,0.059-0.102,0.098
			s-0.078,0.072-0.101,0.099c-0.049,0.002-0.137,0.026-0.267,0.073c-0.128,0.046-0.229,0.07-0.3,0.076l-0.107,0.008l-0.036,0.002
			c-0.05-0.02-0.087-0.028-0.11-0.026l-0.373-0.152c-0.024,0.002-0.04,0.021-0.05,0.058c-0.01,0.036-0.038,0.057-0.086,0.061
			c-0.41-0.016-0.643-0.061-0.695-0.129c-0.046,0.027-0.081,0.031-0.106,0.008c-0.026-0.021-0.063-0.031-0.111-0.027
			c-0.131-0.135-0.486-0.229-1.067-0.282c-0.146-0.037-0.259-0.076-0.334-0.119c-0.029-0.07-0.078-0.15-0.145-0.242
			s-0.115-0.172-0.145-0.242c-0.363-0.356-0.554-0.668-0.573-0.932l-0.005-0.072c-0.002-0.022-0.017-0.053-0.043-0.088
			c-0.027-0.033-0.041-0.063-0.043-0.086c-0.002-0.023,0.002-0.062,0.011-0.109c0.008-0.049,0.012-0.086,0.01-0.108
			c-0.006-0.072-0.026-0.197-0.064-0.375c-0.036-0.179-0.06-0.313-0.066-0.408c-0.012-0.168,0.013-0.326,0.074-0.478
			c-0.083-0.137-0.131-0.291-0.143-0.457c-0.006-0.071-0.008-0.182-0.006-0.325c0.001-0.144,0-0.24-0.003-0.289
			c-0.009-0.117-0.035-0.314-0.08-0.588c-0.044-0.273-0.072-0.494-0.084-0.662c-0.07-0.957-0.113-1.688-0.127-2.193l-0.081-0.139
			l-0.011-0.144c-0.009-0.119,0.009-0.276,0.055-0.473c0.046-0.197,0.065-0.342,0.059-0.438c0.015-0.122,0.015-0.291-0.001-0.506
			c-0.016-0.215-0.028-0.382-0.037-0.502c-0.007-0.096-0.012-0.238-0.015-0.433c-0.002-0.191-0.007-0.349-0.016-0.469l-0.016-0.216
			c-0.077-0.065-0.121-0.158-0.13-0.278l-0.026-0.359c-0.002-0.022-0.01-0.059-0.025-0.104c-0.015-0.046-0.024-0.083-0.026-0.107
			c-0.005-0.07,0.004-0.198,0.026-0.38c0.022-0.183,0.031-0.311,0.026-0.381c-0.005-0.072-0.038-0.185-0.098-0.337
			c-0.059-0.151-0.091-0.251-0.095-0.299c-0.005-0.071-0.02-0.187-0.043-0.342c-0.023-0.152-0.05-0.266-0.078-0.337
			c-0.007-0.095-0.019-0.245-0.033-0.449c-0.015-0.201-0.026-0.353-0.033-0.446l0.073-0.477c-0.034-0.142-0.015-0.354,0.062-0.636
			c0.075-0.281,0.094-0.519,0.056-0.708c0.022-0.025,0.063-0.113,0.126-0.263c0.072-0.005,0.131-0.021,0.176-0.048l0.03-0.074
			c-0.001-0.024,0.01-0.037,0.034-0.039c0.021-0.025,0.08-0.048,0.176-0.066c0.095-0.021,0.165-0.03,0.214-0.035
			C25.335,36.366,25.619,36.308,25.835,36.292z M41.786,50.927l-0.008-0.106l-0.036,0.002c-0.021,0.027-0.046,0.029-0.071,0.006
			C41.652,50.902,41.69,50.936,41.786,50.927z M42.106,45.959c-0.049,0.004-0.084,0.019-0.105,0.043
			C42.073,45.998,42.108,45.982,42.106,45.959z"/>
		<path fill="#231F20" d="M50.304,42.106c0.048-0.004,0.091,0.005,0.129,0.025c0.038,0.021,0.075,0.043,0.113,0.063
			c0.038,0.021,0.08,0.044,0.131,0.063c0.049,0.021,0.087,0.043,0.112,0.064c0.006,0.071,0.054,0.158,0.146,0.259
			c0.09,0.104,0.14,0.188,0.146,0.261c0.002,0.024-0.01,0.05-0.031,0.074c-0.045,0.052-0.065,0.09-0.063,0.113l0.021,0.287
			c-0.027,0.291-0.03,0.579-0.009,0.866c-0.022,0.026-0.044,0.063-0.064,0.112c-0.02,0.052-0.042,0.076-0.065,0.078
			c0.03,0.094,0.055,0.248,0.07,0.463c0.014,0.191,0.012,0.338-0.005,0.435c0.002,0.022-0.002,0.067-0.009,0.129
			c-0.008,0.059-0.01,0.115-0.006,0.162c0.024,0.336,0.015,0.526-0.03,0.578c0.004,0.049,0.032,0.12,0.089,0.211
			c0.055,0.092,0.085,0.174,0.091,0.246c0.003,0.049-0.012,0.098-0.045,0.147c-0.032,0.051-0.046,0.1-0.043,0.148l0.017,0.215
			c0.018,0.24-0.008,0.396-0.073,0.475c0.053,0.068,0.071,0.174,0.06,0.32c-0.013,0.145-0.005,0.252,0.024,0.322
			c-0.13,0.202-0.187,0.424-0.169,0.661c0.002,0.023,0.024,0.07,0.064,0.142c0.042,0.067,0.052,0.129,0.032,0.178
			c0.002,0.023,0.021,0.047,0.059,0.068c0.038,0.02,0.058,0.043,0.06,0.065c0.001,0.025-0.018,0.088-0.059,0.187
			c0.025,0.021,0.047,0.141,0.063,0.354l0.011,0.146L51.1,50.42c0.076,0.066,0.187,0.097,0.33,0.084
			c0.12-0.008,0.343-0.071,0.672-0.192l0.831-0.496c0.042-0.049,0.105-0.097,0.187-0.14s0.133-0.075,0.155-0.102
			c0.203-0.184,0.341-0.289,0.41-0.318c0.111-0.104,0.351-0.291,0.717-0.559c0.364-0.268,0.624-0.492,0.781-0.672l0.071-0.006
			c0.021-0.025,0.045-0.039,0.069-0.041c0.021-0.025,0.048-0.068,0.08-0.134c0.031-0.063,0.059-0.104,0.08-0.131
			c0.021-0.025,0.079-0.071,0.172-0.139c0.09-0.068,0.158-0.115,0.205-0.143c0.204-0.158,0.319-0.24,0.343-0.242l0.108-0.008
			c-0.002-0.023,0.032-0.058,0.101-0.099c0.069-0.041,0.128-0.051,0.179-0.031l0.179-0.014l0.145-0.01
			c0.046-0.027,0.129-0.045,0.248-0.055c0.072-0.005,0.183,0.022,0.331,0.084c0.252,0.149,0.382,0.284,0.391,0.403
			c0.024,0.023,0.026,0.047,0.005,0.072c-0.021,0.051-0.03,0.086-0.028,0.109c-0.019,0.051-0.029,0.088-0.027,0.11
			c0.006,0.072,0.009,0.121,0.011,0.146c-0.021,0.024-0.03,0.063-0.027,0.108c-0.106,0.201-0.156,0.336-0.151,0.408
			c-0.071,0.006-0.121,0.058-0.15,0.154c-0.028,0.1-0.055,0.162-0.076,0.188c-0.049,0.004-0.084,0.013-0.106,0.025
			c-0.023,0.014-0.048,0.021-0.071,0.023c-0.044,0.051-0.085,0.149-0.122,0.299c-0.315,0.287-0.494,0.479-0.534,0.58l-0.18,0.014
			c0.001,0.023-0.014,0.055-0.048,0.094c-0.033,0.037-0.049,0.07-0.047,0.095c-0.047,0.026-0.103,0.086-0.168,0.174
			c-0.064,0.09-0.132,0.16-0.201,0.213c-0.022,0.024-0.069,0.041-0.14,0.047l-0.203,0.197c-0.047,0.024-0.124,0.104-0.234,0.231
			c-0.357,0.051-0.585,0.236-0.682,0.558c-0.161,0.106-0.251,0.186-0.271,0.235c-0.023,0-0.104,0.043-0.244,0.125l-0.207,0.125
			c-0.144,0.01-0.316,0.107-0.52,0.289L53.315,52.1c-0.022,0.024-0.05,0.063-0.082,0.114c-0.032,0.052-0.06,0.088-0.083,0.113
			l-0.106,0.008c-0.072,0.004-0.154,0.035-0.246,0.09c-0.093,0.058-0.162,0.087-0.21,0.089c-0.024,0.002-0.062-0.007-0.11-0.027
			c-0.135,0.131-0.286,0.215-0.45,0.248c-0.021,0.051-0.09,0.104-0.205,0.162c-0.117,0.057-0.186,0.098-0.208,0.123
			c-0.147-0.037-0.257-0.054-0.328-0.049l-0.217,0.018c-0.071-0.021-0.161-0.068-0.263-0.146c-0.102-0.076-0.177-0.125-0.227-0.145
			l-0.337-0.158c-0.101-0.063-0.241-0.18-0.422-0.348c-0.182-0.166-0.311-0.283-0.388-0.351c0.022-0.022,0.021-0.049-0.005-0.069
			c-0.026-0.023-0.04-0.045-0.041-0.07c-0.1-0.041-0.225-0.176-0.373-0.404c-0.149-0.229-0.263-0.379-0.339-0.444
			c-0.028-0.045-0.031-0.095-0.011-0.144c-0.053-0.045-0.09-0.065-0.113-0.063c-0.028-0.047-0.086-0.187-0.176-0.42
			c-0.09-0.234-0.15-0.425-0.186-0.564c-0.006-0.072-0.046-0.201-0.119-0.389c-0.074-0.188-0.114-0.328-0.122-0.424
			c-0.007-0.097,0.023-0.183,0.09-0.261l-0.041-0.067c-0.028-0.047-0.055-0.082-0.08-0.104c0.02-0.385,0.092-1.041,0.217-1.965
			c-0.002-0.022,0.019-0.055,0.064-0.094c0.045-0.041,0.067-0.072,0.065-0.096c-0.011-0.146-0.044-0.263-0.099-0.354
			c0.042-0.076,0.08-0.223,0.112-0.441c0.031-0.219,0.079-0.379,0.145-0.479l-0.039-0.033c-0.001-0.022-0.003-0.047-0.005-0.072
			c-0.004-0.047,0.014-0.127,0.055-0.237c0.04-0.111,0.06-0.181,0.058-0.203l-0.01-0.144c-0.004-0.049,0.055-0.221,0.178-0.519
			c0.104-0.224,0.177-0.362,0.222-0.414l-0.014-0.179c0.244-0.283,0.363-0.46,0.357-0.532c0.048-0.004,0.082-0.029,0.104-0.08
			c0.02-0.05,0.043-0.075,0.066-0.077c-0.001-0.023,0.002-0.054,0.012-0.091c0.009-0.036,0.013-0.078,0.009-0.127
			C49.553,42.198,49.85,42.139,50.304,42.106z M50.545,38.514c0.359-0.026,0.688,0.021,0.985,0.145
			c0.007,0.096,0.089,0.233,0.247,0.415c0.026,0.046,0.067,0.103,0.12,0.171l0.044,0.106l0.011,0.143
			c0.011,0.146-0.029,0.254-0.119,0.334c-0.021,0.049-0.018,0.091,0.01,0.126c0.025,0.034,0.04,0.063,0.042,0.087
			c-0.045,0.053-0.087,0.132-0.127,0.244c-0.04,0.11-0.07,0.19-0.09,0.24c-0.021,0.051-0.055,0.082-0.102,0.099
			c-0.046,0.017-0.105,0.031-0.177,0.048c-0.071,0.02-0.13,0.041-0.177,0.068c-0.021,0.002-0.051,0.027-0.083,0.078
			c-0.032,0.052-0.062,0.076-0.085,0.078l-0.281,0.093l-0.216,0.017c-0.167,0.013-0.485-0.049-0.951-0.183
			c-0.028-0.046-0.072-0.157-0.134-0.333c-0.063-0.177-0.117-0.286-0.168-0.331l-0.011-0.144c-0.007-0.096,0.008-0.218,0.044-0.364
			c0.012-0.168,0.073-0.318,0.185-0.447c0.022-0.023,0.067-0.063,0.136-0.118c0.183-0.133,0.282-0.261,0.298-0.382
			c0.022-0.002,0.104-0.031,0.245-0.091C50.33,38.554,50.449,38.521,50.545,38.514z"/>
		<path fill="#231F20" d="M56.178,41.961c0.144-0.011,0.327,0.03,0.55,0.122c0.224,0.092,0.383,0.134,0.479,0.127
			c0.133,0.159,0.246,0.235,0.342,0.229c0.027,0.046,0.086,0.106,0.177,0.185c0.09,0.078,0.149,0.164,0.181,0.258
			c0.073,0.02,0.163,0.253,0.27,0.702l0.036-0.003c0.023-0.001,0.069-0.021,0.139-0.063c0.069-0.042,0.115-0.063,0.14-0.065
			c0.043-0.075,0.104-0.135,0.185-0.176c0.082-0.042,0.193-0.086,0.334-0.133c0.141-0.047,0.259-0.085,0.352-0.116
			c0.071-0.028,0.168-0.104,0.292-0.221c0.122-0.117,0.249-0.21,0.375-0.28c0.128-0.069,0.266-0.097,0.409-0.084
			c0.319-0.239,0.731-0.366,1.236-0.38c0.024-0.002,0.056,0.014,0.095,0.047c0.036,0.034,0.081,0.061,0.132,0.081
			c0.307-0.071,0.609,0.032,0.907,0.312c0.297,0.28,0.481,0.43,0.556,0.446c0.051,0.046,0.119,0.148,0.204,0.311
			c0.084,0.162,0.164,0.277,0.241,0.343c0.002,0.023-0.003,0.056-0.012,0.093c-0.009,0.036-0.013,0.067-0.011,0.091
			c0.003,0.048,0.02,0.113,0.05,0.193c0.03,0.083,0.048,0.147,0.051,0.196l0.009,0.107c0.023-0.002,0.049,0.02,0.076,0.066
			l0.041,0.067l0.009,0.109c0.005,0.072,0.031,0.176,0.077,0.317c0.047,0.142,0.073,0.259,0.08,0.354
			c0.025,0.023,0.052,0.053,0.079,0.086c0.025,0.033,0.052,0.062,0.078,0.084l0.026,0.359c0.005,0.071-0.013,0.162-0.052,0.274
			c-0.041,0.109-0.059,0.189-0.055,0.236c-0.038,0.461-0.068,0.703-0.091,0.729c0.061,0.164,0.068,0.271,0.023,0.322
			c0.002,0.023,0.016,0.053,0.043,0.088c0.026,0.033,0.041,0.064,0.043,0.088c-0.144,0.347-0.227,0.533-0.249,0.56
			c0.078,0.065,0.124,0.195,0.138,0.387c0.009,0.119-0.021,0.205-0.09,0.258c0.002,0.025,0.026,0.035,0.075,0.031
			c0.048-0.004,0.062,0.021,0.041,0.07c0.004,0.047-0.016,0.108-0.059,0.184l-0.066,0.078c0.006,0.072,0.042,0.148,0.106,0.227
			c0.065,0.08,0.113,0.144,0.141,0.188c0.002,0.025-0.014,0.057-0.047,0.094c-0.034,0.039-0.048,0.082-0.045,0.129l0.006,0.072
			c0.001,0.025,0.018,0.09,0.05,0.195c0.032,0.106,0.051,0.184,0.054,0.231l-0.033,0.037c0.002,0.023,0.003,0.049,0.005,0.072
			c0.002,0.022,0.041,0.059,0.115,0.1c0.05,0.021,0.077,0.056,0.08,0.103c0.237-0.041,0.468-0.101,0.691-0.176
			c0.223-0.076,0.461-0.181,0.718-0.308c0.255-0.127,0.439-0.219,0.556-0.274c0.091-0.078,0.244-0.191,0.463-0.343
			c0.217-0.147,0.371-0.272,0.46-0.375l0.21-0.088c0.067-0.078,0.317-0.264,0.753-0.563c0.853-0.832,1.325-1.287,1.414-1.367
			l0.288-0.021c0.044-0.051,0.106-0.108,0.186-0.176c0.08-0.065,0.131-0.11,0.153-0.137l0.071-0.006
			c0.144-0.01,0.313-0.07,0.51-0.183c0.197-0.111,0.354-0.172,0.475-0.18c0.383-0.029,0.622,0.123,0.719,0.451l0.029,0.396
			c-0.014,0.146-0.108,0.332-0.283,0.563c-0.177,0.229-0.272,0.404-0.286,0.525l-0.103,0.079c-0.069,0.056-0.113,0.105-0.133,0.154
			c-0.097,0.006-0.173,0.029-0.229,0.07c-0.059,0.041-0.114,0.1-0.168,0.176c-0.055,0.076-0.093,0.127-0.114,0.152
			c-0.046,0.053-0.126,0.104-0.241,0.162c-0.117,0.059-0.203,0.118-0.258,0.182c-0.057,0.063-0.079,0.156-0.07,0.275
			c-0.321,0.217-0.503,0.352-0.548,0.401l-0.033,0.039c-0.022,0.025-0.045,0.039-0.069,0.041c-0.167,0.012-0.268,0.115-0.302,0.312
			c-0.024,0.002-0.054,0.01-0.088,0.024c-0.034,0.015-0.064,0.023-0.089,0.023c-0.023,0.002-0.065,0.09-0.125,0.262
			c-0.045,0.053-0.159,0.121-0.346,0.205c-0.187,0.088-0.3,0.18-0.34,0.279c-0.072,0.006-0.178,0.049-0.315,0.131
			c-0.14,0.082-0.23,0.139-0.276,0.166c-0.069,0.053-0.186,0.115-0.348,0.188c-0.164,0.072-0.278,0.146-0.344,0.226
			c-0.024,0.002-0.065,0.016-0.124,0.045c-0.059,0.026-0.1,0.043-0.122,0.045c-0.022,0.024-0.114,0.104-0.272,0.236
			c-0.159,0.131-0.286,0.2-0.382,0.209l-0.143,0.01c-0.047,0.026-0.109,0.082-0.188,0.158c-0.078,0.077-0.13,0.116-0.153,0.118
			c-0.164,0.062-0.256,0.13-0.274,0.201c-0.118,0.033-0.264,0.099-0.437,0.195c-0.174,0.096-0.295,0.16-0.365,0.188l-0.18,0.015
			l-0.176,0.049c-0.15-0.063-0.248-0.092-0.296-0.088l-0.432,0.033c-0.342-0.072-0.59-0.175-0.744-0.308l-0.123-0.207
			c-0.056-0.092-0.159-0.205-0.313-0.338c-0.215-0.297-0.322-0.457-0.324-0.481c-0.26-0.244-0.449-0.545-0.572-0.896
			c-0.153-0.133-0.305-0.379-0.452-0.742c-0.146-0.36-0.234-0.565-0.261-0.612c-0.002-0.023,0.008-0.056,0.029-0.093
			c0.021-0.036,0.031-0.067,0.029-0.092c-0.11-0.186-0.179-0.457-0.205-0.815c-0.013-0.166-0.01-0.287,0.01-0.361
			c-0.083-0.139-0.089-0.221-0.019-0.25c-0.078-0.068-0.124-0.209-0.141-0.424c-0.016-0.215-0.036-0.334-0.062-0.355
			c0.021-0.051,0.053-0.102,0.097-0.151c-0.027-0.045-0.045-0.117-0.052-0.214c-0.007-0.096,0.011-0.19,0.051-0.293
			c-0.055-0.092-0.084-0.161-0.088-0.211l0.093-0.223c-0.028-0.045-0.044-0.104-0.05-0.176c-0.007-0.096,0.008-0.219,0.046-0.363
			c0.037-0.147,0.054-0.258,0.049-0.33c-0.002-0.022-0.004-0.047-0.006-0.072l-0.041-0.067c-0.024,0.002-0.06,0.016-0.105,0.045
			c-0.047,0.027-0.095,0.029-0.144,0.01c0.005,0.072-0.024,0.164-0.088,0.277c-0.064,0.112-0.093,0.217-0.086,0.313
			c-0.115,0.08-0.229,0.24-0.344,0.478c-0.115,0.237-0.218,0.395-0.308,0.475l0.005,0.07c0.004,0.049,0.031,0.102,0.084,0.158
			c0.053,0.055,0.08,0.096,0.082,0.118c-0.02,0.072-0.065,0.175-0.141,0.3c-0.076,0.127-0.122,0.237-0.139,0.336
			c0.083,0.139,0.13,0.291,0.142,0.459c0.021,0.287-0.049,0.483-0.208,0.592c0.068,0.283,0.107,0.475,0.114,0.568
			c-0.021,0.051-0.065,0.096-0.135,0.137c-0.069,0.043-0.104,0.074-0.102,0.098c0.004,0.049,0.031,0.103,0.084,0.156
			c0.053,0.057,0.079,0.098,0.081,0.121l0.034,0.467c-0.065,0.078-0.095,0.176-0.086,0.295l0.008,0.109
			c-0.047,0.026-0.083,0.174-0.112,0.438c-0.044,0.054-0.063,0.113-0.058,0.187c0.002,0.022,0.017,0.065,0.046,0.123
			c0.027,0.057,0.042,0.1,0.044,0.123c0.004,0.047-0.022,0.108-0.076,0.186c-0.055,0.078-0.081,0.139-0.077,0.187
			c-0.024,0.002-0.1,0.116-0.227,0.342c0.026,0.047,0.038,0.11,0.032,0.197c-0.006,0.084,0.005,0.147,0.032,0.194
			c-0.062,0.15-0.211,0.256-0.445,0.322c-0.022,0.025-0.055,0.082-0.097,0.17c-0.04,0.086-0.084,0.145-0.131,0.172l-0.359,0.027
			c-0.148-0.063-0.271-0.09-0.367-0.082c-0.051-0.045-0.191-0.148-0.419-0.313c-0.229-0.164-0.385-0.313-0.467-0.453
			c-0.074-0.02-0.151-0.084-0.231-0.198c-0.08-0.113-0.146-0.183-0.196-0.203c-0.038-0.188-0.152-0.373-0.347-0.551
			c-0.193-0.179-0.304-0.289-0.332-0.337c-0.076-0.381-0.126-0.735-0.15-1.071l-0.019-0.252c-0.004-0.047,0.004-0.109,0.021-0.183
			c0.02-0.073,0.027-0.121,0.025-0.146c-0.002-0.023-0.016-0.06-0.044-0.104c-0.026-0.047-0.041-0.082-0.043-0.106
			c-0.002-0.023,0.001-0.06,0.01-0.107c0.008-0.049,0.012-0.084,0.01-0.108c-0.002-0.023-0.019-0.091-0.05-0.195
			c-0.032-0.105-0.051-0.195-0.057-0.266l-0.008-0.109c-0.016-0.215-0.051-0.357-0.104-0.424l-0.061-0.826
			c0.062-0.15,0.075-0.281,0.043-0.4c0.065-0.075,0.101-0.172,0.105-0.278c0.004-0.107,0-0.24-0.012-0.396
			c-0.011-0.154-0.009-0.281,0.009-0.379c-0.002-0.023,0.012-0.086,0.04-0.184c0.028-0.099,0.042-0.173,0.038-0.22
			c-0.018-0.239-0.016-0.373,0.007-0.397c-0.003-0.047-0.033-0.117-0.088-0.209c-0.041-0.238-0.051-0.599-0.025-1.082
			c0.024-0.483,0.029-0.82,0.016-1.013c-0.014-0.19,0.119-0.357,0.397-0.497C55.765,42.077,55.986,41.976,56.178,41.961z"/>
		<path fill="#231F20" d="M73.714,41.39c0.667,0.217,1.066,0.427,1.202,0.633c0.102,0.064,0.225,0.178,0.367,0.335
			c0.145,0.158,0.255,0.259,0.33,0.302c0.001,0.021,0.016,0.058,0.044,0.104c0.026,0.047,0.03,0.095,0.011,0.145
			c0.074,0.042,0.141,0.121,0.198,0.237c0.057,0.117,0.108,0.186,0.158,0.206c0.005,0.069,0.029,0.146,0.071,0.229
			s0.065,0.146,0.068,0.192c0.156,0.159,0.236,0.272,0.242,0.343c0.003,0.049,0.002,0.109-0.005,0.182
			c-0.007,0.073-0.009,0.123-0.007,0.146c0.004,0.049,0.031,0.119,0.087,0.211c0.021,0.287,0.046,0.453,0.073,0.5
			c-0.022,0.025-0.041,0.111-0.054,0.256c-0.014,0.146-0.042,0.244-0.085,0.295c0.05,0.047,0.083,0.152,0.095,0.318l0.019,0.252
			c-0.069,0.029-0.131,0.1-0.184,0.213c-0.052,0.111-0.101,0.18-0.146,0.207c-0.012,0.172-0.09,0.344-0.233,0.522
			c-0.143,0.181-0.234,0.318-0.275,0.418c0.037,0.189,0.135,0.363,0.29,0.521l0.072-0.006c0.071-0.006,0.148-0.029,0.229-0.07
			c0.081-0.041,0.145-0.063,0.193-0.068l0.072-0.006c0.068-0.053,0.189-0.114,0.365-0.188c0.175-0.072,0.284-0.123,0.332-0.15
			c0.461-0.272,0.75-0.416,0.87-0.426c0.107-0.176,0.173-0.275,0.195-0.303c0.022-0.002,0.049,0.008,0.072,0.03L78.423,47
			l0.271-0.271c0.048-0.004,0.093-0.037,0.137-0.103c0.044-0.064,0.102-0.098,0.174-0.104l0.072-0.006
			c0.178-0.181,0.553-0.484,1.122-0.912c0.047-0.027,0.118-0.045,0.214-0.054c0.023,0,0.068-0.026,0.138-0.082
			c0.069-0.053,0.126-0.092,0.173-0.12c0.047-0.005,0.105-0.021,0.176-0.05c0.072-0.028,0.117-0.045,0.143-0.047
			c0.07-0.028,0.16-0.102,0.271-0.217c0.112-0.117,0.203-0.188,0.272-0.221c0.072-0.004,0.131-0.021,0.177-0.049
			c0.049-0.004,0.104-0.043,0.172-0.121c0.234-0.088,0.362-0.136,0.387-0.138l0.072-0.004c0.047-0.026,0.104-0.045,0.176-0.051
			l0.647-0.047c0.101,0.063,0.166,0.15,0.198,0.256c0.031,0.106,0.055,0.244,0.066,0.41c0.013,0.168,0.033,0.285,0.063,0.354
			c-0.162,0.109-0.253,0.164-0.276,0.166c-0.145,0.349-0.263,0.537-0.355,0.566l0.02,0.254c-0.226,0.207-0.355,0.398-0.392,0.568
			l-0.072,0.006c-0.071,0.004-0.139,0.07-0.202,0.195c-0.258,0.092-0.494,0.313-0.709,0.666c-0.072,0.006-0.146,0.059-0.223,0.161
			c-0.076,0.101-0.139,0.166-0.186,0.193c-0.045,0.027-0.11,0.049-0.191,0.068c-0.084,0.018-0.148,0.041-0.193,0.067
			c-0.025,0.002-0.041,0.027-0.049,0.076c-0.01,0.047-0.025,0.072-0.049,0.074c-0.07,0.006-0.158,0.066-0.258,0.182
			c-0.1,0.117-0.198,0.179-0.295,0.185c-0.022,0.002-0.047,0.018-0.067,0.041c-0.021,0.051-0.055,0.078-0.103,0.082
			c-0.022,0.022-0.032,0.049-0.03,0.071c0.002,0.025-0.009,0.052-0.031,0.076c-0.509,0.277-0.774,0.418-0.799,0.42
			c-0.115,0.08-0.274,0.188-0.481,0.324s-0.344,0.229-0.412,0.283c-0.049-0.021-0.11-0.029-0.183-0.023
			c-0.072,0.006-0.153,0.035-0.245,0.09c-0.094,0.058-0.164,0.085-0.21,0.089c-0.184,0.135-0.299,0.202-0.346,0.207
			c-0.072,0.004-0.121-0.002-0.147-0.025c-0.023,0.002-0.047,0.021-0.067,0.059c-0.021,0.037-0.045,0.058-0.068,0.06l-0.466,0.035
			c-0.517,0.182-0.99,0.289-1.421,0.321c-0.288,0.021-0.529,0.002-0.726-0.057c-0.051-0.02-0.086-0.023-0.109-0.01
			c-0.022,0.014-0.047,0.021-0.07,0.022c-0.657-0.096-1.226-0.282-1.701-0.561c0.021-0.025,0.02-0.049-0.006-0.072l-0.038-0.033
			c-0.072,0.006-0.145,0-0.219-0.02c-0.028-0.047-0.094-0.131-0.199-0.256c-0.105-0.125-0.161-0.224-0.167-0.295
			c-0.216-0.009-0.345-0.119-0.386-0.332c-0.023,0.002-0.054-0.002-0.09-0.013c-0.037-0.01-0.079-0.012-0.127-0.008
			c-0.307-0.242-0.633-0.748-0.979-1.518c0.047-0.025,0.051-0.063,0.011-0.107c-0.039-0.045-0.06-0.08-0.062-0.104
			c-0.002-0.025,0.009-0.049,0.03-0.076l-0.003-0.035l-0.078-0.102c-0.029-0.07-0.056-0.263-0.078-0.572l-0.014-0.18
			c-0.007-0.097-0.042-0.244-0.105-0.443c-0.063-0.201-0.098-0.348-0.105-0.443l-0.029-0.396c0.024-0.002,0.041-0.031,0.049-0.092
			c0.007-0.062,0.023-0.093,0.047-0.095c-0.025-0.021-0.041-0.057-0.044-0.104c-0.006-0.072,0.022-0.183,0.084-0.332l-0.041-0.068
			c-0.028-0.047-0.042-0.082-0.044-0.104c0.018-0.074,0.051-0.203,0.097-0.386c0.047-0.185,0.103-0.334,0.167-0.445
			c0.064-0.114,0.14-0.21,0.23-0.289c-0.01-0.144,0.047-0.269,0.172-0.373c0.123-0.104,0.195-0.195,0.214-0.27
			c0.047-0.026,0.116-0.063,0.209-0.105c0.093-0.042,0.163-0.077,0.21-0.104c0.136-0.105,0.304-0.275,0.504-0.507
			c0.023-0.002,0.058-0.026,0.102-0.08c0.21-0.088,0.361-0.158,0.454-0.213c0.045-0.027,0.109-0.057,0.191-0.087
			s0.146-0.06,0.193-0.087l0.207-0.123c0.023-0.002,0.049,0.009,0.074,0.03l0.071-0.005c0.141-0.06,0.247-0.092,0.318-0.098
			c0.047-0.003,0.107-0.002,0.181,0.005c0.072,0.008,0.121,0.011,0.146,0.009C73.622,41.433,73.668,41.418,73.714,41.39z
			 M73.712,44.783l-0.033,0.039l-0.144,0.012c-0.479,0.035-0.706,0.209-0.683,0.521c0.003,0.049-0.006,0.096-0.025,0.146
			l-0.099,0.15c0.006,0.072,0.015,0.197,0.028,0.377c0.013,0.18,0.022,0.307,0.027,0.377c-0.018,0.074-0.021,0.182-0.011,0.326
			c0.007,0.096,0.023,0.166,0.051,0.213c0.1,0.041,0.196,0.057,0.292,0.051c0.239-0.018,0.543-0.15,0.911-0.393
			c0.157-0.132,0.258-0.246,0.3-0.349c0.021-0.024,0.055-0.051,0.101-0.078c0.046-0.026,0.069-0.053,0.067-0.077
			c0.058-0.195,0.077-0.416,0.06-0.654c-0.017-0.238-0.064-0.394-0.142-0.459C74.064,44.844,73.832,44.775,73.712,44.783z"/>
	</g>
	<g>
		<path fill="#77111A" d="M141.65,62.218c3.723,0.449,14.175,0.13,8.246-8.805c-2.375-3.582,2.271-10.016-2.455-13.313
			c-7.762-5.41-33.594,0.627-27.899,14.655c3.446,8.488,4.774,3.658,12.817,5.515C137.395,61.431,141.088,62.151,141.65,62.218z"/>
		<g>
			<path fill="#BE1E2D" d="M118.751,51.419c-2.505,15.572,18.032,9.938,25.655,5.148c0.506-1.361,1.365-3.326-1.518-2.801
				c-0.568,0.291-4.246-1.822-4.88-1.873c-2.254-2.99,2.853-2.203,2.714-5.771C140.499,40.479,120.037,43.458,118.751,51.419z"/>
			<path fill="#BE1E2D" d="M142.982,47.812c0.311-3.736,4.929-2.043,4.58,2.688c-3.084,3.283-6.07-0.051-6.479-0.85L142.982,47.812z
				"/>
		</g>
	</g>
	<g>
		<g>
			<path fill="#468885" d="M88.346,56.159c-9.279,1.037-18.926,1.205-28.421,1.883c-17.559,1.248-37.642,1.371-53.87,3.978
				c6.528,2.092,22.206,0.188,30.683-0.234c10.341-0.514,21.217-0.633,31.485-1.549c8.937-0.801,19.505-1.998,28.164-3.217
				c5.465-0.769,23.771-1.109,24.586-3.83c-3.289-0.131-6.488-0.357-8.677,0.629C112.296,53.817,96.805,55.214,88.346,56.159z"/>
			<path fill="#5AB1AF" d="M113.971,61.79c-3.604-0.264-7.213-1.553-8.595-4.979c3.274,0.266,8.424-0.328,10.89,1.879
				c-0.654,0.848,2.36,2.783,1.576,3.43L113.971,61.79z"/>
			<path fill="#468885" d="M95.8,56.911c3.527-0.934,5.663-2.818,8.929-3.535c3.123-0.686,4.315-1.08,6.851-3.436
				c-0.329-2.681,1.942-4.164,2.894-6.553c-4.056,0.092-8.142,1.122-10.529,3.805c-1.36,1.524-2.094,3.69-3.642,5.11
				c-1.631,1.5-4.163,1.953-5.718,3.688C94.764,57.062,95.8,56.911,95.8,56.911z"/>
		</g>
		<path fill="#C3996B" d="M82.979,58.714c-0.229,1.142,4.209,3.533,4.758,2.754c0.402-0.565-0.711-3.582-1.891-3.93
			C85.292,57.372,83.093,58.149,82.979,58.714z"/>
		<path fill="#C3996B" d="M75.754,59.056c1.13-0.271,1.444-5.302,0.508-5.476c-0.685-0.127-2.955,2.15-2.778,3.365
			C73.566,57.519,75.193,59.19,75.754,59.056z"/>
		<path fill="#C3996B" d="M48.775,61.521c-0.012,1.164,4.791,2.688,5.187,1.823c0.289-0.635-1.367-3.391-2.591-3.514
			C50.796,59.774,48.779,60.944,48.775,61.521z"/>
	</g>
	<g>
		<path fill="#231F20" d="M29.537,9.712l0.096-0.009c0.104,0.087,0.326,0.163,0.669,0.229c0.342,0.063,0.55,0.156,0.625,0.277
			l0.286-0.025c0.078,0.152,0.271,0.335,0.578,0.547s0.465,0.364,0.474,0.461l0.402-0.325c0.061-0.037,0.146-0.068,0.255-0.095
			c0.11-0.025,0.203-0.06,0.28-0.1c0.075-0.038,0.169-0.069,0.278-0.098c0.109-0.025,0.211-0.06,0.303-0.1
			c0.031-0.003,0.116-0.042,0.253-0.118c0.138-0.077,0.237-0.118,0.302-0.124l0.094-0.009c0.031-0.004,0.189-0.042,0.47-0.115
			c0.281-0.074,0.485-0.116,0.613-0.128c0.221-0.021,0.382-0.02,0.479,0.004l0.238-0.021c0.506-0.047,0.794-0.056,0.861-0.031
			c0.031-0.002,0.065,0.012,0.1,0.04c0.033,0.028,0.06,0.05,0.077,0.063s0.042,0.021,0.073,0.018l0.238-0.021
			c0.271,0.166,0.473,0.261,0.602,0.279c0.099,0.022,0.227,0.036,0.388,0.037c0.16,0.003,0.257,0.001,0.289-0.002
			c0.198,0.077,0.313,0.113,0.345,0.11c0.584,0.427,0.893,0.831,0.928,1.212c0.003,0.031,0.022,0.078,0.06,0.139
			c0.104,0.087,0.145,0.179,0.122,0.276l0.004,0.048l0.048-0.004c0.031-0.003,0.056-0.006,0.072-0.007
			c0.015-0.002,0.024,0.015,0.027,0.046c0.012,0.127,0.068,0.306,0.169,0.535c0.102,0.231,0.159,0.426,0.174,0.585l0.009,0.094
			c0.034,0.029,0.202,0.287,0.503,0.771c-0.026,0.065-0.03,0.194-0.013,0.384c0.003,0.033-0.02,0.146-0.065,0.343
			c0.003,0.032,0.021,0.056,0.055,0.066c0.032,0.014,0.051,0.036,0.055,0.067c0.002,0.03-0.012,0.064-0.04,0.1l0.009,0.095
			c0.003,0.032,0.049,0.092,0.137,0.182c0.088,0.087,0.136,0.163,0.142,0.227c0.009,0.096-0.003,0.233-0.034,0.411
			c-0.032,0.18-0.045,0.3-0.039,0.363l0.014,0.144c-0.076,0.582-0.216,1.14-0.424,1.671c-0.096,0.009-0.167,0.095-0.216,0.26
			c-0.05,0.164-0.105,0.249-0.169,0.255c0.044,0.124,0.172,0.226,0.387,0.301c0.215,0.077,0.341,0.13,0.376,0.157
			c0.069,0.059,0.173,0.152,0.313,0.283s0.244,0.227,0.313,0.283c0.031-0.003,0.065,0.011,0.101,0.038
			c0.034,0.029,0.066,0.026,0.096-0.009l0.311,0.261c0.009,0.094,0.031,0.173,0.069,0.232c0.069,0.059,0.28,0.263,0.634,0.613
			l0.021,0.237c0.071,0.09,0.174,0.257,0.31,0.501c0.134,0.243,0.253,0.408,0.356,0.495c-0.026,0.067-0.035,0.139-0.028,0.218
			c0.008,0.08,0.015,0.151,0.021,0.215l0.507,0.817c0.003,0.031-0.006,0.113-0.025,0.241c0.04,0.093,0.133,0.229,0.276,0.406
			c-0.029,0.035,0,0.178,0.088,0.426c-0.029,0.033-0.03,0.193-0.005,0.479c0.009,0.095,0.003,0.216-0.015,0.361
			c-0.02,0.146-0.025,0.25-0.02,0.313c0.009,0.096,0.055,0.243,0.137,0.443c0.082,0.201,0.127,0.332,0.132,0.396
			c-0.146,0.493-0.215,0.788-0.206,0.884c0.003,0.031,0.014,0.069,0.034,0.116s0.031,0.087,0.034,0.117
			c0.006,0.063-0.011,0.139-0.051,0.221c-0.04,0.085-0.059,0.143-0.056,0.174c-0.167,0.271-0.292,0.491-0.372,0.657L44.33,28.66
			c0.008,0.095-0.028,0.211-0.112,0.346c-0.083,0.138-0.118,0.269-0.106,0.396c-0.096,0.009-0.17,0.087-0.219,0.236
			c-0.052,0.147-0.124,0.227-0.219,0.234c-0.006,0.289-0.145,0.525-0.415,0.71c-0.029,0.035-0.072,0.087-0.13,0.155
			c-0.115,0.14-0.205,0.212-0.268,0.218c-0.078,0.199-0.176,0.367-0.29,0.506c-0.064,0.006-0.124,0.035-0.184,0.089
			c-0.06,0.055-0.125,0.125-0.196,0.21c-0.073,0.088-0.14,0.15-0.199,0.188c-0.032,0.003-0.071,0.007-0.119,0.012
			c-0.048,0.004-0.086,0.024-0.114,0.06c-0.062,0.037-0.134,0.114-0.219,0.234s-0.159,0.199-0.219,0.235
			c-0.279,0.09-0.654,0.188-1.124,0.296c-0.471,0.107-0.783,0.184-0.939,0.229c-0.064,0.006-0.156,0.047-0.277,0.121
			c-0.159,0.016-0.366,0.019-0.622,0.01c-0.258-0.009-0.482-0.021-0.677-0.034c-0.036-0.062-0.104-0.104-0.202-0.126
			s-0.165-0.049-0.199-0.078c-0.579-0.042-1.257-0.251-2.025-0.629c-0.059,0.07-0.121,0.171-0.188,0.306
			c-0.068,0.134-0.122,0.243-0.162,0.326c-0.041,0.084-0.104,0.171-0.192,0.258c-0.088,0.089-0.194,0.154-0.317,0.197
			c-0.159,0.366-0.68,0.621-1.562,0.767c-0.096,0.01-0.528,0-1.299-0.023c-0.255,0.021-0.479,0.012-0.676-0.034
			c-0.323-0.034-0.585-0.105-0.788-0.216c-0.276-0.231-0.596-0.569-0.956-1.018c-0.142-0.146-0.267-0.296-0.377-0.444l-0.204-0.652
			c-0.037-0.061-0.093-0.137-0.164-0.226c-0.073-0.091-0.128-0.163-0.165-0.226c-0.038-0.061-0.063-0.153-0.074-0.282
			c-0.006-0.063-0.002-0.189,0.013-0.384c0.014-0.192,0.001-0.337-0.039-0.429c-0.035-0.028-0.077-0.058-0.127-0.085
			c-0.051-0.027-0.094-0.056-0.128-0.084L27.83,29.79c-0.101-0.054-0.166-0.145-0.193-0.27c-0.028-0.126-0.049-0.275-0.065-0.45
			c-0.016-0.175-0.045-0.31-0.084-0.401c-0.003-0.029-0.006-0.063-0.009-0.095c0.063-0.006,0.076-0.038,0.039-0.1
			c-0.119-0.244-0.191-0.512-0.217-0.797l-0.109-1.188c-0.029-0.317-0.067-0.554-0.113-0.709c0.028-0.035,0.04-0.084,0.034-0.148
			c-0.005-0.063,0.008-0.096,0.039-0.099c-0.012-0.127-0.052-0.219-0.121-0.277c-0.01-0.445-0.068-1.089-0.177-1.928
			c-0.109-0.837-0.176-1.384-0.198-1.639c-0.003-0.03,0.01-0.063,0.039-0.1c0.028-0.033,0.042-0.067,0.039-0.1
			c-0.041-0.092-0.073-0.265-0.096-0.519c-0.023-0.255-0.003-0.896,0.063-1.928c0.031-0.003,0.051-0.044,0.061-0.125
			c0.007-0.08,0.045-0.106,0.111-0.082c-0.034-0.027-0.054-0.073-0.06-0.139c-0.006-0.063-0.011-0.11-0.014-0.143l-0.057-0.093
			c-0.034-0.027-0.053-0.059-0.056-0.09c-0.009-0.096-0.014-0.229-0.014-0.407c-0.001-0.176,0.004-0.392,0.013-0.648
			c0.008-0.256,0.006-0.448-0.006-0.575c-0.003-0.735,0.088-1.144,0.272-1.224c-0.007-0.064-0.041-0.102-0.106-0.111
			c-0.065-0.01-0.099-0.03-0.102-0.063l0.087-0.104c0.028-0.034,0.026-0.051-0.005-0.048l-0.1-0.039
			c0.117-0.811,0.176-1.232,0.172-1.264l-0.052-0.044c-0.035-0.028-0.038-0.062-0.009-0.096c0.025-0.065,0.025-0.25-0.002-0.551
			c-0.028-0.302-0.001-0.536,0.079-0.704c-0.003-0.031,0.003-0.145,0.018-0.338c0.014-0.192,0.031-0.354,0.052-0.484l0.154-0.397
			l0.065-0.342l0.415-0.183c0.231-0.276,0.404-0.47,0.522-0.576c0.283-0.059,0.562-0.162,0.836-0.315
			c0.033,0.029,0.147,0.034,0.337,0.018l0.233-0.069L29.537,9.712z M34.063,13.521c-0.255,0.022-0.528,0.178-0.821,0.461
			c-0.096,0.009-0.191,0.002-0.29-0.021c-0.125,0.396-0.182,0.641-0.173,0.735c0.205,0.141,0.313,0.275,0.325,0.401
			c0.009,0.096-0.034,0.251-0.125,0.468c-0.093,0.217-0.135,0.372-0.126,0.467c0.009,0.096,0.061,0.22,0.155,0.37
			c0.093,0.152,0.143,0.259,0.148,0.322c0.003,0.031-0.011,0.065-0.038,0.101c-0.032,0.003-0.055,0.021-0.067,0.053
			c-0.014,0.034-0.019,0.067-0.016,0.1c0.075,0.121,0.119,0.246,0.131,0.372c0.009,0.096-0.017,0.178-0.074,0.244
			c0.066,0.027,0.159,0.075,0.277,0.146c0.117,0.069,0.243,0.113,0.372,0.133c0.061-0.037,0.116-0.122,0.169-0.255l1.722-0.59
			c0.784-0.168,1.223-0.287,1.312-0.36c0.302-0.188,0.438-0.439,0.41-0.758c-0.009-0.096-0.025-0.188-0.05-0.283
			c-0.025-0.094-0.061-0.211-0.104-0.351c-0.045-0.142-0.07-0.24-0.076-0.305c-0.035-0.028-0.086-0.058-0.152-0.083
			c-0.135-0.083-0.221-0.14-0.255-0.17c-0.034-0.027-0.085-0.055-0.15-0.079c-0.134-0.054-0.201-0.095-0.204-0.126l-0.399-0.155
			c-0.006-0.063-0.107-0.144-0.308-0.236c-0.201-0.093-0.322-0.187-0.362-0.277c-0.13-0.021-0.296-0.076-0.496-0.173
			c-0.2-0.093-0.348-0.135-0.443-0.126C34.285,13.518,34.189,13.509,34.063,13.521z M34.199,22.341
			c-0.111,0.17-0.176,0.528-0.189,1.073c-0.023,0.1-0.025,0.241-0.008,0.433l0.014,0.144c0.003,0.032,0.04,0.108,0.116,0.229
			c0.075,0.12,0.114,0.197,0.117,0.229s-0.016,0.091-0.057,0.174c-0.04,0.085-0.059,0.143-0.056,0.173
			c0.003,0.032-0.002,0.168-0.01,0.409c-0.011,0.241-0.058,0.43-0.142,0.564c0.162,0.018,0.26,0.217,0.295,0.598
			c0.015,0.159,0.09,0.279,0.226,0.363c-0.052,0.132-0.074,0.229-0.068,0.294c0.009,0.095,0.043,0.213,0.104,0.35
			c0.061,0.141,0.093,0.24,0.099,0.304c0.009,0.095-0.015,0.178-0.071,0.246c0.195,0.049,0.253,0.153,0.172,0.32
			c0.099,0.023,0.219,0.125,0.364,0.304c-0.151,0.109-0.222,0.195-0.217,0.26c0.009,0.095,0.143,0.234,0.398,0.419
			c0.257,0.186,0.405,0.321,0.445,0.416c0.289,0.006,0.638-0.042,1.044-0.146c0.406-0.102,0.688-0.158,0.848-0.173
			c-0.003-0.031,0.038-0.116,0.122-0.251l0.238-0.021c0.054-0.102,0.21-0.228,0.468-0.38c0.258-0.149,0.416-0.262,0.475-0.332
			c0.058-0.067,0.139-0.22,0.245-0.454c0.106-0.232,0.235-0.404,0.386-0.516c0.066-0.324,0.109-0.553,0.128-0.684
			c-0.006-0.063-0.057-0.113-0.157-0.152c-0.1-0.039-0.168-0.089-0.205-0.15l-0.014-0.143c-0.006-0.063,0.01-0.16,0.046-0.292
			c0.035-0.131,0.051-0.229,0.045-0.292c-0.006-0.063-0.027-0.117-0.063-0.162c-0.035-0.045-0.055-0.082-0.058-0.114l-0.044-0.477
			c-0.026-0.285-0.078-0.504-0.156-0.657L38.662,23.9c-0.072-0.089-0.158-0.161-0.259-0.217c-0.104-0.086-0.313-0.18-0.627-0.278
			s-0.555-0.205-0.725-0.317c-0.032,0.003-0.079,0.016-0.141,0.036c-0.063,0.022-0.126,0.021-0.191-0.006
			c-0.968-0.423-1.759-0.67-2.373-0.741C34.282,22.382,34.233,22.371,34.199,22.341z"/>
		<path fill="#231F20" d="M52.922,8.769l0.143-0.015c0.349-0.03,0.558-0.02,0.628,0.038c0.092-0.04,0.249-0.07,0.471-0.091
			c0.126-0.012,0.302-0.02,0.526-0.024c0.224-0.003,0.366-0.01,0.431-0.016c0.095-0.009,0.237-0.028,0.427-0.063
			c0.188-0.033,0.329-0.056,0.425-0.063c0.031-0.003,0.081,0.009,0.147,0.034c0.066,0.026,0.115,0.038,0.147,0.035
			c0.031-0.003,0.086-0.016,0.164-0.039c0.077-0.022,0.148-0.038,0.212-0.044c0.032-0.003,0.191-0.009,0.479-0.021
			c0.288-0.009,0.512,0.011,0.677,0.059c0.063-0.006,0.11-0.025,0.14-0.062l0.095-0.009c0.136,0.084,0.282,0.118,0.44,0.104
			l0.19-0.017c0.063-0.006,0.174-0.022,0.332-0.055c0.156-0.03,0.283-0.051,0.378-0.061l0.144-0.013
			c0.063-0.006,0.225,0.012,0.485,0.052c0.42,0.059,0.719,0.175,0.896,0.352c0.034,0.027,0.104,0.102,0.211,0.22
			s0.195,0.207,0.265,0.265c0.034,0.028,0.087,0.079,0.159,0.152c0.069,0.073,0.124,0.142,0.162,0.202l0.1,0.564
			c-0.032,0.355-0.129,0.686-0.294,0.987c-0.139,0.236-0.283,0.396-0.437,0.473c-0.061,0.037-0.169,0.079-0.324,0.125
			c-0.156,0.048-0.265,0.091-0.325,0.127c-0.12,0.074-0.245,0.117-0.371,0.13c-0.064,0.006-0.162-0.018-0.295-0.068
			c-0.176,0.177-0.533,0.289-1.073,0.339l-0.951,0.087c-0.127,0.012-0.349,0.04-0.665,0.085c-0.315,0.045-0.568,0.075-0.759,0.093
			l-0.332,0.031c-0.131-0.02-0.289-0.005-0.477,0.043c-0.096,0.009-0.215,0.012-0.36,0.01c-0.144-0.003-0.248-0.001-0.312,0.006
			c-0.064,0.006-0.149,0.021-0.259,0.047c-0.11,0.025-0.196,0.042-0.259,0.048c-0.064,0.006-0.153,0.006-0.266,0.001
			c-0.112-0.006-0.185-0.007-0.216-0.004c-0.16,0.015-0.267,0.057-0.324,0.125c0.037,0.061,0.062,0.154,0.073,0.279
			c-0.181,0.113-0.287,0.188-0.315,0.223c0.034,0.029,0.06,0.123,0.074,0.281l-0.022,0.29c0.006,0.063-0.02,0.13-0.077,0.198
			c-0.059,0.07-0.085,0.12-0.082,0.151c0.034,0.029,0.037,0.062,0.009,0.096l0.1,0.039c0.031-0.003,0.05,0.012,0.053,0.042
			c0.048,0.188,0.107,0.583,0.179,1.185c0.071,0.603,0.169,1.041,0.29,1.317c-0.072,0.264-0.122,0.427-0.147,0.493
			c0.037,0.062,0.088,0.087,0.152,0.081c0.063-0.006,0.097,0.008,0.1,0.039c0.022,0.255,0.022,0.431,0.001,0.529
			c0.109,0.148,0.172,0.317,0.189,0.51c0.021,0.223-0.038,0.452-0.177,0.688c0.006,0.063,0.004,0.137-0.004,0.217
			c-0.01,0.08-0.012,0.138-0.009,0.169c0.018,0.188,0.058,0.45,0.12,0.78s0.1,0.56,0.111,0.687c0.015,0.159,0.01,0.287-0.014,0.386
			c0.202,0.108,0.375,0.253,0.52,0.432c0.096-0.009,0.237-0.028,0.427-0.063c0.188-0.034,0.314-0.054,0.379-0.061
			c0.158-0.015,0.336,0.003,0.532,0.049c0.311-0.094,0.563-0.148,0.753-0.166l0.479,0.005c0.034,0.028,0.134,0.067,0.3,0.116
			c0.164,0.05,0.266,0.104,0.302,0.165l0.191-0.019c0.033,0.027,0.153,0.113,0.358,0.254c0.205,0.144,0.373,0.224,0.502,0.242
			c0.009,0.096,0.081,0.185,0.217,0.269c-0.058,0.07-0.056,0.165,0.003,0.288c0.06,0.122,0.09,0.2,0.093,0.231l0.009,0.095
			l-0.173,0.208c0.006,0.063-0.025,0.163-0.093,0.296c-0.067,0.137-0.097,0.249-0.088,0.346c-0.029,0.034-0.092,0.057-0.187,0.064
			c-0.021,0.13-0.086,0.296-0.194,0.496l-0.652,0.205c-0.064,0.006-0.159,0.031-0.282,0.074c-0.059,0.068-0.119,0.105-0.182,0.111
			c-0.096,0.01-0.208,0.003-0.338-0.018c-0.129-0.019-0.242-0.025-0.337-0.017l-0.472,0.091l-0.144,0.013
			c-0.063,0.006-0.151-0.001-0.266-0.021c-0.115-0.021-0.188-0.031-0.219-0.028c-0.094,0.009-0.157,0.031-0.186,0.064
			c-0.086,0.104-0.118,0.282-0.095,0.535c0.003,0.032,0,0.098-0.007,0.194c-0.007,0.096-0.008,0.177-0.002,0.24
			c0.012,0.127,0.044,0.299,0.096,0.518c0.052,0.22,0.083,0.378,0.092,0.473l0.048,0.523c0.098,0.023,0.359,0.087,0.785,0.191
			c0.426,0.104,0.723,0.215,0.895,0.325c0.063-0.006,0.109-0.017,0.141-0.036c0.029-0.019,0.061-0.03,0.093-0.032
			c0.293,0.068,0.632,0.086,1.012,0.052c0.286-0.026,0.647-0.091,1.087-0.196c0.03-0.003,0.116,0.056,0.256,0.169
			c0.095-0.009,0.29-0.051,0.588-0.125c0.297-0.075,0.524-0.121,0.683-0.136c0.222-0.021,0.401,0.012,0.538,0.095
			c0.025-0.064,0.104-0.081,0.236-0.046c0.13,0.037,0.211,0.054,0.243,0.05l0.095-0.009c0.034,0.029,0.069,0.06,0.104,0.087
			l0.1,0.039l0.441,0.104c0.144,0.179,0.223,0.331,0.234,0.458c0.034,0.028,0.103,0.079,0.205,0.148
			c0.104,0.07,0.171,0.121,0.206,0.148c0.069,0.059,0.118,0.229,0.144,0.515c0.023,0.255,0.008,0.433-0.048,0.533l-0.134,0.109
			c-0.193,0.337-0.366,0.545-0.519,0.622l-0.411,0.229l-0.238,0.021c-0.095,0.009-0.202,0.059-0.321,0.148
			c-0.12,0.091-0.212,0.14-0.275,0.146c-0.064,0.006-0.128,0.005-0.192-0.006s-0.113-0.016-0.146-0.013
			c-0.031,0.003-0.09,0.058-0.177,0.161c-0.096,0.009-0.226,0.069-0.391,0.18c-0.166,0.112-0.296,0.188-0.388,0.229
			c-0.064,0.006-0.207,0.027-0.427,0.063c-0.222,0.036-0.394,0.077-0.517,0.121c-0.249,0.086-0.5,0.143-0.753,0.165
			c-0.19,0.019-0.319,0.014-0.385-0.013l-0.14,0.061c-0.062,0.036-0.104,0.073-0.134,0.108c-0.066-0.026-0.163-0.033-0.289-0.022
			c-0.064,0.007-0.159,0.021-0.284,0.051c-0.126,0.026-0.221,0.045-0.284,0.051c-0.03,0.003-0.078,0.008-0.142,0.013l-0.052-0.043
			c-0.032,0.003-0.079,0.015-0.141,0.036c-0.063,0.021-0.11,0.035-0.142,0.038c-0.092,0.04-0.297,0.075-0.613,0.104l-0.667,0.063
			c-0.12,0.074-0.197,0.113-0.229,0.116c-0.093,0.04-0.234,0.067-0.425,0.086c-0.285,0.025-0.493,0.029-0.622,0.01l-0.226,0.165
			c-0.159,0.014-0.388,0.051-0.685,0.11c-0.301,0.06-0.528,0.097-0.688,0.11c-0.19,0.019-0.352,0.017-0.48-0.004
			c-0.068-0.059-0.25-0.122-0.545-0.189c-0.295-0.068-0.48-0.181-0.559-0.333c-0.064,0.006-0.155-0.033-0.275-0.118
			c-0.119-0.086-0.229-0.14-0.327-0.162c-0.08-0.185-0.271-0.353-0.572-0.5c-0.303-0.147-0.487-0.251-0.558-0.309
			c-0.012-0.128-0.084-0.217-0.216-0.269c-0.005-0.063-0.021-0.135-0.044-0.213c-0.023-0.077-0.035-0.133-0.038-0.164
			c-0.136-0.084-0.312-0.243-0.524-0.479c-0.038-0.062-0.044-0.124-0.018-0.19l-0.005-0.048c-0.248-0.267-0.382-0.509-0.402-0.731
			l-0.009-0.095c-0.109-0.15-0.217-0.444-0.32-0.883c-0.105-0.438-0.229-0.729-0.369-0.878l-0.009-0.096
			c-0.006-0.063-0.048-0.172-0.126-0.324c-0.078-0.152-0.119-0.262-0.125-0.324l0.029-0.195c-0.146-0.21-0.233-0.458-0.26-0.743
			c-0.018-0.19-0.047-0.412-0.086-0.664s-0.089-0.535-0.148-0.851c-0.062-0.313-0.101-0.566-0.117-0.758l-0.105-1.144
			c-0.012-0.126-0.013-0.31-0.002-0.551c0.008-0.24,0.01-0.41,0.001-0.505c-0.006-0.063-0.024-0.173-0.055-0.33
			c-0.031-0.157-0.049-0.283-0.058-0.379c-0.015-0.158-0.011-0.288,0.012-0.385c-0.034-0.029-0.035-0.045-0.004-0.048l0.091-0.058
			c-0.255-1.033-0.401-1.754-0.438-2.168c-0.009-0.095,0.006-0.271,0.047-0.53l-0.048,0.004c-0.064,0.006-0.097-0.008-0.1-0.039
			c-0.018-0.19-0.038-0.501-0.062-0.931c-0.022-0.431-0.045-0.756-0.065-0.979c-0.003-0.031-0.017-0.096-0.042-0.188
			c-0.024-0.094-0.039-0.172-0.045-0.234c-0.012-0.127,0.026-0.242,0.113-0.348l-0.053-0.043c-0.064,0.006-0.083-0.022-0.057-0.091
			c0.026-0.771,0.005-1.521-0.063-2.25c0.028-0.034,0.072-0.079,0.133-0.133c0.059-0.053,0.103-0.098,0.131-0.131
			c-0.037-0.063-0.07-0.074-0.099-0.04c-0.029,0.035-0.062,0.038-0.096,0.009c-0.017-0.189,0.011-0.408,0.084-0.655
			c0.073-0.246,0.121-0.42,0.145-0.518c0.03-0.003,0.068-0.038,0.11-0.105s0.094-0.104,0.157-0.109
			c0.052-0.133,0.196-0.299,0.435-0.496c0.239-0.197,0.382-0.362,0.435-0.496c0.031-0.003,0.25-0.07,0.653-0.204
			c0.191-0.018,0.311-0.107,0.36-0.271c0.034,0.028,0.082,0.039,0.146,0.033s0.164-0.046,0.302-0.124
			c0.136-0.074,0.221-0.114,0.253-0.118c0.092-0.039,0.234-0.069,0.424-0.088c0.19-0.018,0.384-0.003,0.58,0.043
			c0.063-0.006,0.148-0.027,0.257-0.07c0.108-0.041,0.209-0.074,0.304-0.101c0.093-0.023,0.188-0.042,0.283-0.051
			c0.031-0.003,0.08,0.01,0.146,0.035l0.096-0.009c0.063-0.006,0.156-0.03,0.28-0.074c0.124-0.043,0.234-0.068,0.33-0.077
			l0.193,0.029c0.127-0.012,0.293-0.043,0.496-0.093c0.203-0.052,0.352-0.081,0.447-0.09l0.143-0.014L52.922,8.769z"/>
	</g>
</g>
</svg>
