<?xml version="1.0" encoding="utf-8"?>
<!-- Generator: Adobe Illustrator 16.0.0, SVG Export Plug-In . SVG Version: 6.00 Build 0)  -->
<!DOCTYPE svg PUBLIC "-//W3C//DTD SVG 1.1//EN" "http://www.w3.org/Graphics/SVG/1.1/DTD/svg11.dtd">
<svg version="1.1" id="Layer_1" xmlns="http://www.w3.org/2000/svg" xmlns:xlink="http://www.w3.org/1999/xlink" x="0px" y="0px"
	 width="150.246px" height="110.284px" viewBox="0 0 150.246 110.284" enable-background="new 0 0 150.246 110.284"
	 xml:space="preserve">
<g>
	<path fill="#FFFFFF" d="M3.271,14.221c2.043-0.816,5.248,0.457,7.137-0.719c2.426-1.508,1.953-5.234,5.199-6.695
		c4.789-2.158,10.342,1.896,13.283,5.285c1.52,1.75,1.824,4.256,4.24,5.664c1.17,0.682,1.818,1.195,3.227,1.221
		c2.771,0.047,2.568-1.953,4.199-2.449c4.029-1.229,5.641,1.139,8.842,0.986c3.027-0.145,6.43-2.803,9.16-3.908
		c2.645-1.072,4.477-2.313,7.832-1.43c2.465,0.648,2.49,2.67,5.74,1.949c1.691-0.375,4.357-3.023,6.658-3.631
		c4.258-1.125,5.883,0.027,9.4,1.344c8.799,3.295,5.023-2.645,9.014-7.789c8.5-10.965,25.424,2.627,23.773,13.682
		c-0.877,5.879-3.094,11.689,0.48,17.584c3.504,5.781,7.736,6.891,11.908,1.775c3.285-4.029,7.439-11.266,11.979-4.463
		c2.898,4.346,1.066,9.629-0.086,14.699c-1.551,6.822-0.359,10.037,2.748,16.291c2.334,4.697,3.064,11.805,1.135,16.908
		c-1.512,4.002-4.965,6.658-8.732,7.939c-2.146,0.73-4.846,0.523-7.063,1.625c-2.359,1.174-3.52,3.336-5.717,4.51
		c-4.166,2.223-8.787,2.887-13.178,5.754c-4.547,2.973-8.629,5.502-13.994,6.123c-5.016,0.58-11.689,1.266-16.477,0.027
		c-5.898-1.529-8.293-4.873-13.852-1.428c-7.801,4.834-21.371,9.809-25.711-2.523c-4.625,0.174-7.359-0.734-9.787-4.688
		c-2.287-3.727-2.896-5.533-5.529-7.838c-6.373-5.574-12.807-10.682-17.389-17.674c-2.264-3.455-4.777-7.568-6.256-11.523
		c-1.826-4.885-0.023-6.363,1.789-10.777c2.695-6.566-2.73-14.346-5.766-20.588C1.479,29.465-2.835,16.658,3.271,14.221z"/>
	<path fill="#231F20" d="M113.927,54.412c5.01-6.145,20.855-2.648,23.084-6.615c1.07-1.908,1.666-4.471,2.484-6.596
		c1.18-3.063,3.48-6.367,2.35-0.969c-1.188,5.664-5.268,9.965-2.936,15.439c1.764,4.143,5.545,9.465,2.967,14.174
		c-1.486-0.855-1.1-5.814-1.826-7.74c-1.102-2.928-2.809-4.402-4.371-6.939c-2.828,0.785-1.131,5.758-3.904,6.645
		c-1.658-1.928,1.84-7.398,2.58-9.377c-3.25,0-10.375-3.344-18.697,2.785C112.171,57.787,113.927,54.412,113.927,54.412z"/>
	<g>
		<path fill="#4A2F8D" d="M119.884,66.564c1.223,3.848,7.197,5.891,10.869,4.012c2.82-1.445,4.334-6.35,3.25-9.303
			c-1.314-3.57-6.967-5.182-11.006-3.162C120.774,59.357,118.905,63.496,119.884,66.564z"/>
		<path fill="#231F20" d="M127.58,72.033L127.58,72.033c-3.271,0-7.329-1.837-8.411-5.241c-1.107-3.475,0.987-7.948,3.461-9.335
			c1.29-0.646,2.752-0.979,4.259-0.979c3.62,0,6.835,1.865,7.818,4.536c1.141,3.108-0.331,8.548-3.612,10.229
			C130.085,71.761,128.869,72.033,127.58,72.033z M126.889,57.979c-1.275,0-2.505,0.278-3.557,0.804
			c-1.905,1.069-3.596,4.852-2.733,7.555c0.835,2.627,4.205,4.196,6.981,4.196l0,0c1.053,0,2.032-0.216,2.831-0.625
			c2.345-1.201,3.884-5.664,2.888-8.376C132.528,59.44,129.893,57.979,126.889,57.979z"/>
	</g>
	<g>
		<path fill="#4A2F8D" d="M129.347,74.799c1.223,3.848,7.197,5.891,10.869,4.012c2.82-1.445,4.334-6.35,3.25-9.303
			c-1.314-3.57-6.967-5.182-11.006-3.162C130.237,67.592,128.368,71.73,129.347,74.799z"/>
		<path fill="#231F20" d="M137.043,80.268L137.043,80.268c-3.271,0-7.329-1.837-8.411-5.241c-1.107-3.475,0.987-7.948,3.461-9.335
			c1.29-0.646,2.752-0.979,4.259-0.979c3.62,0,6.835,1.865,7.818,4.536c1.141,3.108-0.331,8.548-3.612,10.229
			C139.548,79.995,138.332,80.268,137.043,80.268z M136.352,66.213c-1.275,0-2.505,0.278-3.557,0.804
			c-1.905,1.069-3.596,4.852-2.733,7.555c0.835,2.627,4.205,4.196,6.981,4.196l0,0c1.053,0,2.032-0.216,2.831-0.625
			c2.345-1.201,3.884-5.664,2.888-8.376C141.991,67.675,139.355,66.213,136.352,66.213z"/>
	</g>
	<g>
		<path fill="#4A2F8D" d="M121.876,77.748c1.223,3.846,7.197,5.891,10.869,4.01c2.82-1.445,4.334-6.35,3.25-9.301
			c-1.314-3.572-6.967-5.182-11.006-3.164C122.767,70.539,120.897,74.678,121.876,77.748z"/>
		<path fill="#231F20" d="M129.571,83.216L129.571,83.216c-3.27,0-7.328-1.837-8.41-5.24c-1.107-3.476,0.988-7.95,3.461-9.337
			c1.29-0.646,2.752-0.978,4.259-0.978c3.62,0,6.835,1.866,7.818,4.537c1.142,3.107-0.331,8.545-3.612,10.227
			C132.077,82.942,130.861,83.216,129.571,83.216z M128.881,69.161c-1.275,0-2.506,0.277-3.557,0.803
			c-1.905,1.069-3.596,4.853-2.733,7.557c0.835,2.626,4.205,4.195,6.98,4.195c1.053,0,2.032-0.216,2.832-0.626
			c2.346-1.201,3.884-5.663,2.888-8.374C134.521,70.623,131.885,69.161,128.881,69.161z"/>
	</g>
	<g>
		<path fill="#FAAF40" d="M97.747,35.076c-6.955,31.668-57.389,45.627-80.018,17.719c-13.285,7.818,18.816,51.91,65.191,35.127
			c13.584-4.916,23.668-18.924,29.133-33.207c3.299-8.629,2.133-14.916-0.32-23.18c-1.477-4.975,2.297-17.5-2.195-21.094
			c-2.672-2.135-5.904-0.711-7.543,1.986C105.118,16.238,97.747,35.076,97.747,35.076z"/>
		<path fill="#231F20" d="M62.169,92.451c-25.761,0-44.236-17.453-47.668-30.053c-1.279-4.695-0.241-8.432,2.848-10.25l0.557-0.327
			l0.407,0.501c7.702,9.499,19.315,14.73,32.7,14.73c22.201,0,41.978-13.815,46.002-32.138l0.034-0.112
			c2.787-7.125,6.438-19.372,4.366-21.899l-0.337-0.411l0.276-0.454c1.267-2.085,3.328-3.38,5.38-3.38
			c1.16,0,2.291,0.414,3.271,1.197c3.082,2.466,2.699,8.145,2.329,13.638c-0.21,3.114-0.408,6.057,0.117,7.828
			c2.315,7.799,3.808,14.492,0.302,23.661c-6.474,16.922-17.255,29.185-29.578,33.645C76.164,91.165,69.097,92.451,62.169,92.451z
			 M17.581,53.794c-2.777,2.098-2.236,5.995-1.633,8.21c3.223,11.831,21.537,28.947,46.221,28.947
			c6.753,0,13.649-1.257,20.497-3.734c11.737-4.248,22.462-16.498,28.688-32.77c3.337-8.729,1.894-15.177-0.339-22.698
			c-0.603-2.031-0.396-5.104-0.177-8.356c0.329-4.87,0.701-10.391-1.769-12.365c-0.722-0.577-1.507-0.869-2.335-0.869
			c-1.407,0-2.847,0.86-3.845,2.272c2.503,4.727-3.59,20.728-4.423,22.864c-4.2,18.964-24.589,33.258-47.454,33.258
			C37.415,68.553,25.572,63.318,17.581,53.794z"/>
	</g>
	<g>
		<defs>
			<path id="SVGID_5_" d="M62.169,92.451c-25.761,0-44.236-17.453-47.668-30.053c-1.279-4.695-0.241-8.432,2.848-10.25l0.557-0.327
				l0.407,0.501c7.702,9.499,19.315,14.73,32.7,14.73c22.201,0,41.978-13.815,46.002-32.138l0.034-0.112
				c2.787-7.125,6.438-19.372,4.366-21.899l-0.337-0.411l0.276-0.454c1.267-2.085,3.328-3.38,5.38-3.38
				c1.16,0,2.291,0.414,3.271,1.197c3.082,2.466,2.699,8.145,2.329,13.638c-0.21,3.114-0.408,6.057,0.117,7.828
				c2.315,7.799,3.808,14.492,0.302,23.661c-6.474,16.922-17.255,29.185-29.578,33.645C76.164,91.165,69.097,92.451,62.169,92.451z
				 M17.581,53.794c-2.777,2.098-2.236,5.995-1.633,8.21c3.223,11.831,21.537,28.947,46.221,28.947
				c6.753,0,13.649-1.257,20.497-3.734c11.737-4.248,22.462-16.498,28.688-32.77c3.337-8.729,1.894-15.177-0.339-22.698
				c-0.603-2.031-0.396-5.104-0.177-8.356c0.329-4.87,0.701-10.391-1.769-12.365c-0.722-0.577-1.507-0.869-2.335-0.869
				c-1.407,0-2.847,0.86-3.845,2.272c2.503,4.727-3.59,20.728-4.423,22.864c-4.2,18.964-24.589,33.258-47.454,33.258
				C37.415,68.553,25.572,63.318,17.581,53.794z"/>
		</defs>
		<use xlink:href="#SVGID_5_"  overflow="visible" fill="#231F20"/>
		<clipPath id="SVGID_2_">
			<use xlink:href="#SVGID_5_"  overflow="visible"/>
		</clipPath>
		<path clip-path="url(#SVGID_2_)" fill="#F6921E" d="M104.456,30.771c2.256,6.541-13.385,33.797-31.688,39.211
			c-11.453,3.389-29.791,5.125-41.381-1.453c-3.996-2.268-17.381-10.883-13.268-16.246c3.012-3.93,20.426,3.623,25.512,4.387
			c13.477,2.021,32.805-6.043,43.311-13.514c5.26-3.74,6.643-10.646,11.676-14.197C100.79,28.506,104.456,30.771,104.456,30.771z"/>
		<path clip-path="url(#SVGID_2_)" fill="#F6921E" d="M109.247,31.316c1.482,5.803-1.016,18.035-2.813,22.938
			c-3.988,10.887-21.84,25.607-35.389,28.646c-26.242,5.889-45.914-8-57.156-29.711c-0.582,30.977,27.451,52.279,58.094,44.352
			c14.5-3.752,23.756-12.385,31.645-24.682c3.955-6.17,6.836-10.717,10.232-16.809c1.881-3.373,0.631-18.59,1.186-22.408
			C115.673,29.314,109.247,31.316,109.247,31.316z"/>
	</g>
	<g>
		<path fill="#231F20" d="M7.519,21.667l0.289-0.128l0.354,0.018c0.321-0.143,0.507-0.203,0.553-0.187
			c0.05-0.06,0.155-0.126,0.317-0.197c0.097-0.042,0.279-0.085,0.55-0.127s0.47-0.091,0.599-0.148
			c0.125,0.022,0.313,0.035,0.565,0.04c0.252,0.004,0.448,0.014,0.59,0.028s0.304,0.078,0.487,0.188
			c0.184,0.113,0.334,0.258,0.452,0.437c0.06,0.051,0.153,0.087,0.278,0.108s0.211,0.042,0.258,0.06
			c0.045,0.019,0.102,0.08,0.168,0.186c0.065,0.106,0.105,0.175,0.119,0.206c0.016,0.033,0.045,0.059,0.092,0.076l0.091,0.075
			l0.128,0.29c0.014,0.033,0.086,0.088,0.217,0.164c0.13,0.078,0.209,0.148,0.238,0.213c0.027,0.064,0.07,0.142,0.13,0.23
			c0.059,0.09,0.118,0.16,0.179,0.21c0.029,0.065,0.08,0.138,0.155,0.221c0.074,0.083,0.12,0.14,0.134,0.172l0.063,0.146
			c0.028,0.064,0.06,0.156,0.093,0.275c0.033,0.121,0.059,0.197,0.072,0.229c0.014,0.033,0.066,0.066,0.16,0.103
			c0.029,0.065,0.098,0.179,0.208,0.341c0.11,0.164,0.187,0.293,0.229,0.391c0.164,0.197,0.258,0.367,0.283,0.51
			c0.027,0.064,0.066,0.173,0.113,0.324c0.048,0.152,0.094,0.277,0.137,0.373l0.084,0.193c0.234,0.359,0.389,0.619,0.459,0.779
			c0.086,0.193,0.117,0.354,0.096,0.479c0.014,0.031,0.051,0.073,0.111,0.123c0.061,0.051,0.105,0.107,0.134,0.172
			c0.015,0.033,0.024,0.076,0.029,0.132s0.015,0.1,0.028,0.132l0.092,0.075c0.014,0.032,0.028,0.065,0.043,0.097l0.021,0.048
			c-0.02,0.047-0.021,0.087-0.006,0.118c0.014,0.033,0.053,0.102,0.119,0.207s0.113,0.191,0.142,0.255l0.091,0.075
			c0.061,0.051,0.098,0.092,0.112,0.124c0.028,0.065,0.055,0.169,0.079,0.312c-0.036,0.094-0.039,0.172-0.012,0.236
			c0.016,0.031,0.059,0.109,0.131,0.23c0.073,0.122,0.124,0.215,0.152,0.279c-0.004,0.079,0.002,0.135,0.016,0.166
			c0.014,0.033,0.05,0.113,0.106,0.242c0.058,0.129,0.053,0.207-0.011,0.236c0.167,0.118,0.279,0.242,0.336,0.371
			c0.014,0.031,0.038,0.107,0.072,0.228c0.033,0.12,0.064,0.212,0.092,0.276c-0.035,0.094-0.039,0.172-0.011,0.236
			c0.318,0.898,0.46,1.395,0.425,1.486c0.224,0.248,0.414,0.549,0.57,0.902c0.113,0.259,0.166,0.467,0.158,0.623
			c0.179,0.23,0.303,0.425,0.374,0.586c0.071,0.162,0.089,0.289,0.053,0.381c0.06,0.051,0.142,0.169,0.243,0.354
			c0.101,0.187,0.166,0.312,0.194,0.376l-0.081,0.209c0.061,0.051,0.119,0.141,0.176,0.27s0.111,0.297,0.164,0.504
			s0.102,0.359,0.145,0.457l0.084,0.193c-0.025,0.203-0.047,0.328-0.064,0.375c0.127,0.289,0.182,0.459,0.164,0.504l0.128,0.29
			c0.156,0.354,0.239,0.761,0.248,1.218l0.411,0.801c0.198,0.451,0.189,0.782-0.025,0.992c0.047,0.019,0.084,0.06,0.112,0.123
			c0.028,0.065,0.032,0.16,0.011,0.285c-0.023,0.125-0.02,0.22,0.01,0.284c-0.037,0.093-0.121,0.294-0.254,0.603
			c-0.134,0.309-0.268,0.531-0.4,0.666l-0.172,0.134c-0.287,0.396-0.463,0.608-0.527,0.636c-0.806,0.355-1.352,0.559-1.637,0.607
			c-0.033,0.014-0.128,0.018-0.285,0.01s-0.275-0.014-0.354-0.018c-0.033,0.014-0.142-0.015-0.326-0.087
			c-0.495,0.103-0.908,0.034-1.244-0.202c-0.176,0.039-0.375,0.002-0.598-0.112c-0.223-0.112-0.358-0.179-0.404-0.196
			c-0.089-0.115-0.248-0.256-0.477-0.426c-0.228-0.168-0.387-0.311-0.475-0.426c-0.062-0.049-0.125-0.127-0.19-0.233
			c-0.065-0.104-0.112-0.19-0.142-0.255c-0.15-0.165-0.246-0.296-0.288-0.393l-0.255-0.58c-0.043-0.097-0.164-0.283-0.363-0.562
			c-0.199-0.277-0.365-0.521-0.496-0.733c-0.133-0.211-0.297-0.542-0.496-0.994c-0.089-0.113-0.189-0.301-0.304-0.559
			c-0.085-0.193-0.11-0.336-0.073-0.43c-0.094-0.035-0.183-0.15-0.268-0.344c-0.028-0.064-0.069-0.2-0.122-0.408
			c-0.054-0.207-0.101-0.359-0.144-0.455l-0.148-0.339c-0.129-0.29-0.165-0.505-0.111-0.644c-0.014-0.032-0.053-0.055-0.115-0.065
			s-0.107-0.048-0.137-0.112c-0.027-0.064-0.049-0.133-0.061-0.205c-0.012-0.07-0.032-0.139-0.061-0.203l-0.32-0.725
			c-0.213-0.484-0.344-0.868-0.393-1.154c-0.061-0.051-0.127-0.156-0.197-0.318c-0.057-0.127-0.11-0.335-0.159-0.622
			c-0.05-0.286-0.087-0.461-0.116-0.526l-0.043-0.096c-0.061-0.051-0.098-0.092-0.111-0.124l0.006-0.118
			c-0.015-0.031-0.029-0.064-0.043-0.097c-0.057-0.128-0.149-0.338-0.277-0.628c-0.127-0.29-0.204-0.506-0.229-0.65
			c-0.135-0.479-0.251-0.831-0.351-1.057C8.654,31.056,8.665,30.994,8.7,30.9c-0.027-0.064-0.065-0.105-0.111-0.124
			c-0.047-0.018-0.084-0.06-0.112-0.124l-0.345-1.176L8.11,29.429L8.02,29.354c-0.043-0.097-0.064-0.232-0.063-0.405
			c0-0.173-0.013-0.292-0.041-0.356c-0.043-0.098-0.117-0.285-0.221-0.566c-0.105-0.281-0.163-0.477-0.173-0.588l0.038-0.306
			c-0.148-0.512-0.18-0.845-0.094-0.998c-0.014-0.032-0.045-0.057-0.09-0.075C7.329,26.041,7.292,26,7.263,25.935
			c-0.021-0.222-0.045-0.364-0.073-0.429l-0.255-0.58c-0.029-0.064-0.047-0.191-0.053-0.381c-0.007-0.189-0.023-0.316-0.053-0.381
			c-0.1-0.226-0.267-0.518-0.502-0.876c0.037-0.093,0.035-0.227-0.004-0.402c-0.039-0.175-0.049-0.286-0.031-0.333
			C6.497,22.232,6.905,21.937,7.519,21.667z"/>
		<path fill="#231F20" d="M22.032,27.801c0.102-0.029,0.332-0.057,0.689-0.084c0.078,0.016,0.182,0.031,0.315,0.049
			c0.133,0.018,0.216,0.022,0.251,0.013l0.152-0.042c0.203-0.058,0.529,0.126,0.977,0.549c0.105,0.117,0.226,0.156,0.361,0.119
			l-0.008,0.166c0.02,0.068,0.05,0.115,0.094,0.139c0.176,0.499,0.36,0.933,0.555,1.298c0.193,0.366,0.34,0.628,0.438,0.782
			c0.099,0.156,0.157,0.268,0.176,0.335c0.17-0.047,0.246-0.233,0.229-0.558c0.092-0.062,0.16-0.145,0.205-0.248
			c0.043-0.104,0.078-0.178,0.102-0.221c0.025-0.043,0.074-0.094,0.15-0.152c0.074-0.057,0.125-0.107,0.149-0.151
			c0.049-0.087,0.146-0.196,0.292-0.328s0.243-0.241,0.293-0.329c0.066-0.019,0.244-0.104,0.53-0.258
			c0.286-0.152,0.514-0.253,0.685-0.301c0.305-0.085,0.561-0.083,0.769,0.004l0.102-0.027c0.067-0.02,0.151-0.016,0.25,0.012
			s0.183,0.031,0.251,0.013c0.033-0.01,0.165-0.028,0.395-0.056c0.23-0.027,0.401-0.039,0.512-0.033
			c0.131,0.072,0.213,0.105,0.246,0.096c0.043,0.024,0.104,0.045,0.182,0.059c0.077,0.016,0.138,0.035,0.182,0.059
			c0.163,0.064,0.397,0.182,0.701,0.354c-0.006,0.11,0.066,0.236,0.215,0.378c0.17-0.048,0.324-0.017,0.465,0.089
			c0.175-0.158,0.398-0.402,0.672-0.735c0.271-0.331,0.501-0.56,0.686-0.686c0.293-0.521,0.799-1.063,1.518-1.631
			c0.068-0.019,0.185-0.06,0.35-0.125c0.164-0.063,0.293-0.128,0.386-0.19c1.069-0.225,1.829-0.127,2.276,0.297
			c0.246-0.032,0.516,0.047,0.808,0.24c0.291,0.192,0.493,0.292,0.604,0.297c0.143,0.253,0.279,0.416,0.41,0.488l0.128,0.458
			c0.114,0.407,0.245,0.681,0.395,0.822c0.053,0.06,0.122,0.112,0.209,0.161c-0.015,0.078,0.002,0.201,0.049,0.37
			c0.048,0.17,0.143,0.381,0.287,0.633c0.019,0.068,0.046,0.134,0.082,0.196c0.036,0.063,0.059,0.111,0.068,0.146l0.213,0.763
			l0.193,0.494c0.038,0.137,0.044,0.227,0.02,0.27c0.01,0.033-0.008,0.166-0.053,0.398c0.115,0.15,0.178,0.243,0.188,0.277
			c0.002,0.401,0.056,0.788,0.16,1.161c0.066,0.237,0.135,0.419,0.207,0.546c0.028,0.102,0.006,0.217-0.067,0.348
			c0.105,0.117,0.229,0.429,0.372,0.938c0.066,0.238,0.146,0.397,0.244,0.48c0.406-0.113,0.748-0.264,1.025-0.451
			c0.276-0.188,0.581-0.473,0.911-0.858c0.332-0.385,0.539-0.625,0.621-0.722c0.024-0.043,0.053-0.105,0.085-0.188
			c0.031-0.081,0.06-0.145,0.084-0.188c0.194-0.09,0.355-0.299,0.482-0.628c0.128-0.328,0.289-0.538,0.482-0.628
			c-0.008-0.291,0.148-0.517,0.469-0.68c0.036-0.521,0.383-1.112,1.04-1.771c0.727-0.934,1.261-1.504,1.606-1.711
			c0.391-0.693,0.823-1.107,1.298-1.24c0.17-0.047,0.336-0.039,0.501,0.025c0.284,0.104,0.479,0.342,0.583,0.714
			c0.048,0.17,0.049,0.37,0.004,0.603c-0.015,0.078-0.042,0.176-0.081,0.297c-0.04,0.121-0.067,0.22-0.082,0.297l0.058,0.203
			c-0.016,0.078-0.06,0.182-0.133,0.312s-0.118,0.234-0.133,0.312c-0.039,0.121-0.064,0.292-0.075,0.514
			c0.008,0.291-0.074,0.588-0.244,0.892c-0.024,0.044-0.102,0.13-0.23,0.257s-0.179,0.241-0.15,0.344
			c-0.034,0.009-0.126,0.072-0.277,0.187c-0.034,0.009-0.063,0.036-0.087,0.079l-0.088,0.08c-0.015,0.077-0.044,0.203-0.085,0.38
			c-0.043,0.177-0.088,0.308-0.137,0.395l-0.22,0.391c-0.146,0.261-0.219,0.464-0.214,0.608c-0.093,0.063-0.262,0.274-0.508,0.635
			c-0.247,0.362-0.496,0.615-0.748,0.758c-0.05,0.088-0.129,0.229-0.238,0.424c-0.11,0.195-0.217,0.371-0.319,0.527
			c-0.103,0.157-0.233,0.275-0.394,0.356c-0.312,0.453-0.553,0.703-0.723,0.751c0.01,0.033-0.013,0.086-0.066,0.155
			s-0.088,0.144-0.103,0.221c-0.034,0.009-0.109,0.067-0.226,0.173c-0.604,0.717-1.215,1.345-1.832,1.883l-0.152,0.043
			c-0.17,0.047-0.291,0.137-0.364,0.266c-0.272,0.076-0.443,0.18-0.518,0.31c-0.542,0.151-0.942,0.227-1.198,0.226l-0.26-0.146
			l-0.255,0.07c-0.087-0.049-0.157-0.102-0.209-0.16c-0.136,0.037-0.226,0.044-0.269,0.02c-0.111-0.006-0.182-0.059-0.21-0.16
			c-0.294-0.137-0.473-0.252-0.534-0.344c-0.035,0.01-0.146,0.004-0.334-0.018c-0.212-0.233-0.411-0.359-0.601-0.38
			c-0.053-0.058-0.178-0.179-0.375-0.361s-0.314-0.341-0.353-0.478c-0.009-0.033-0.007-0.089,0.009-0.166l-0.015-0.051
			c-0.087-0.049-0.145-0.125-0.173-0.227l-0.107-0.189c-0.053-0.058-0.145-0.152-0.271-0.281s-0.223-0.238-0.284-0.331l-0.042-0.153
			c-0.058-0.203-0.197-0.475-0.42-0.814c-0.224-0.34-0.395-0.657-0.514-0.953c-0.01-0.033-0.014-0.078-0.01-0.135
			c0.002-0.055-0.001-0.1-0.01-0.134c-0.029-0.103-0.076-0.234-0.14-0.399c-0.065-0.165-0.11-0.299-0.14-0.4
			c-0.028-0.102-0.049-0.242-0.063-0.422c-0.014-0.178-0.029-0.301-0.049-0.369c-0.028-0.102-0.096-0.211-0.201-0.328l0.146-0.26
			c0.015-0.078-0.022-0.112-0.111-0.106c-0.09,0.007-0.139-0.007-0.148-0.04l-0.058-0.204c-0.038-0.136-0.094-0.303-0.167-0.501
			c-0.074-0.199-0.125-0.35-0.154-0.451c-0.057-0.203-0.078-0.344-0.063-0.422c0.015-0.076-0.01-0.134-0.075-0.17
			c-0.065-0.037-0.103-0.072-0.112-0.106c-0.009-0.033-0.018-0.132-0.027-0.294c-0.009-0.162-0.021-0.276-0.041-0.345
			c-0.028-0.102-0.064-0.165-0.107-0.189c-0.238,0.066-0.451,0.218-0.641,0.454c-0.035,0.009-0.047,0.031-0.037,0.064l-0.022,0.116
			c-0.034,0.009-0.1,0.037-0.196,0.082c-0.098,0.046-0.158,0.091-0.183,0.134c-0.083,0.096-0.134,0.238-0.155,0.427
			c-0.059,0.054-0.139,0.222-0.242,0.507c-0.102,0.027-0.174,0.03-0.217,0.006l0.027,0.102l-0.176,0.543
			c0.037,0.136,0.035,0.393-0.006,0.77c0.169,0.209,0.217,0.378,0.143,0.508c0.131,0.074,0.262,0.221,0.396,0.438l0.114,0.407
			c0.075,0.272,0.166,0.466,0.272,0.582c0.412,0.689,0.637,1.103,0.675,1.237c0.009,0.034,0.001,0.073-0.022,0.116
			c-0.025,0.044-0.011,0.095,0.043,0.152c-0.016,0.078,0.011,0.106,0.079,0.087c0.067-0.018,0.106-0.01,0.116,0.023
			c0.057,0.203,0.152,0.515,0.288,0.934c0.136,0.42,0.228,0.714,0.274,0.883c-0.025,0.044-0.051,0.115-0.078,0.214
			s-0.074,0.158-0.143,0.177l-0.102,0.029c0.1,0.484-0.191,0.82-0.869,1.01l-0.203,0.057c-0.17,0.048-0.634-0.041-1.392-0.269
			c-0.097-0.083-0.305-0.207-0.626-0.374c-0.32-0.166-0.547-0.357-0.682-0.576c-0.164-0.064-0.363-0.219-0.596-0.465
			c-0.232-0.245-0.372-0.38-0.415-0.404l-0.028-0.103c-0.037-0.135-0.137-0.291-0.295-0.466c-0.01-0.033-0.016-0.086-0.018-0.16
			c-0.002-0.072-0.008-0.125-0.017-0.159c-0.279-0.214-0.48-0.542-0.604-0.983c-0.057-0.203-0.082-0.36-0.076-0.472
			c-0.159-0.175-0.271-0.381-0.338-0.618l-0.313-1.119c-0.01-0.033-0.03-0.074-0.061-0.121c-0.032-0.045-0.057-0.102-0.076-0.17
			l-0.043-0.152c-0.018-0.068-0.067-0.146-0.146-0.233c-0.08-0.088-0.124-0.147-0.133-0.183c-0.035,0.01-0.075-0.07-0.123-0.24
			l-0.006-0.217c-0.037-0.136-0.133-0.283-0.287-0.441c-0.154-0.157-0.24-0.27-0.26-0.338l-0.152,0.042
			c-0.441,0.124-0.806,0.39-1.093,0.8c-0.083,0.096-0.161,0.209-0.234,0.339c-0.263,0.366-0.405,0.644-0.425,0.832
			c0.009,0.034,0.017,0.097,0.023,0.185c0.006,0.09-0.002,0.157-0.026,0.199c-0.041,0.378-0.047,0.617-0.019,0.719
			c0.02,0.068,0.063,0.193,0.133,0.375c0.068,0.182,0.117,0.322,0.146,0.425c0.004,0.146,0.058,0.404,0.163,0.777
			c0.084,0.306,0.185,0.533,0.301,0.684c-0.109,0.396-0.088,0.866,0.064,1.407c0.037,0.137,0.102,0.338,0.195,0.604
			c0.093,0.268,0.158,0.469,0.196,0.604c-0.021,0.189-0.021,0.481-0.001,0.878c0.02,0.397,0.03,0.669,0.035,0.813
			c-0.341,0.351-0.526,0.604-0.557,0.758c-0.479,0.244-0.771,0.381-0.873,0.408c-0.203,0.057-0.344,0.078-0.42,0.063
			c-0.035,0.009-0.1-0.027-0.195-0.11c-0.035,0.01-0.066,0.028-0.096,0.055s-0.078,0.049-0.145,0.067
			c-0.02-0.067-0.092-0.13-0.217-0.187c-0.125-0.055-0.221-0.13-0.281-0.223c-0.981-0.237-1.723-1.254-2.225-3.053l-0.256-0.916
			c-0.092-0.193-0.184-0.459-0.279-0.799c-0.019-0.068-0.055-0.167-0.11-0.299c-0.054-0.13-0.087-0.213-0.097-0.246
			c-0.08-0.16-0.162-0.421-0.246-0.781c-0.082-0.361-0.143-0.609-0.18-0.745c-0.159-0.175-0.243-0.279-0.253-0.313l-0.028-0.102
			c-0.028-0.102-0.044-0.289-0.047-0.563c-0.004-0.273-0.02-0.461-0.049-0.563c-0.037-0.136-0.078-0.216-0.121-0.24
			c-0.038-0.135-0.027-0.23,0.03-0.283c-0.087-0.049-0.158-0.175-0.216-0.379c-0.009-0.033-0.023-0.12-0.045-0.261
			c-0.021-0.14-0.041-0.244-0.061-0.313l-0.027-0.102l0.036-0.065c0.024-0.043,0.048-0.086,0.073-0.13
			c-0.01-0.034-0.042-0.052-0.098-0.056c-0.056-0.002-0.076-0.041-0.061-0.119l-0.271-0.967c-0.009-0.033,0.013-0.149,0.067-0.348
			l-0.029-0.102c-0.075-0.271-0.084-0.434-0.025-0.486c-0.182-0.389-0.281-0.615-0.301-0.684c-0.133-0.475-0.014-0.765,0.36-0.869
			c0.194-0.09,0.33-0.257,0.409-0.498C21.618,27.953,21.862,27.848,22.032,27.801z"/>
		<path fill="#231F20" d="M66.9,19.752c0.035-0.002,0.08,0.014,0.135,0.046s0.1,0.048,0.135,0.046
			c0.422-0.023,0.757-0.023,1.005-0.002c0.072,0.031,0.188,0.042,0.346,0.033s0.273,0.004,0.346,0.034l0.272,0.144
			c0.219,0.129,0.399,0.208,0.542,0.234l0.211-0.012c0.176-0.01,0.552,0.094,1.128,0.309c0.119,0.24,0.426,0.523,0.919,0.85
			c0.494,0.325,0.819,0.625,0.976,0.898c0.034-0.002,0.082,0.048,0.141,0.15s0.123,0.17,0.196,0.201
			c-0.034,0.037-0.048,0.091-0.045,0.16L73.268,23c0.041,0.104,0.046,0.191,0.015,0.264l0.059,0.102
			c0.039,0.07,0.06,0.121,0.062,0.156c0.036,0.033,0.057,0.068,0.059,0.103c0.002,0.035-0.016,0.054-0.05,0.056
			c0.232,0.375,0.363,0.844,0.395,1.406c0.002,0.035-0.02,0.125-0.064,0.268c-0.045,0.145-0.065,0.252-0.062,0.321l0.003,0.053
			l0.059,0.103c0.116,0.205,0.298,0.301,0.544,0.287l0.158-0.008c0.168-0.15,0.451-0.298,0.849-0.443s0.681-0.275,0.852-0.391
			l0.369-0.021l0.155-0.062c0.102-0.076,0.28-0.201,0.535-0.373c0.255-0.173,0.45-0.298,0.588-0.377
			c0.408-0.268,0.781-0.535,1.119-0.801l0.563-0.35c0.336-0.3,0.676-0.529,1.021-0.69c0.068-0.038,0.172-0.079,0.311-0.122
			c0.138-0.043,0.259-0.103,0.36-0.18c0.068-0.037,0.153-0.096,0.255-0.172s0.222-0.136,0.36-0.179
			c0.41-0.233,0.686-0.354,0.827-0.362c0.211-0.012,0.372,0.032,0.482,0.132c0.148,0.134,0.228,0.288,0.237,0.463
			c0.002,0.036,0.005,0.089,0.009,0.158l-0.05,0.056c-0.09,0.287-0.271,0.544-0.539,0.77c-0.034,0.038-0.056,0.119-0.066,0.242
			c-0.012,0.125-0.033,0.205-0.066,0.242c-0.332,0.371-0.514,0.609-0.542,0.717l-0.103,0.059c-0.105,0.006-0.178-0.008-0.214-0.041
			c-0.03,0.107-0.086,0.208-0.169,0.301s-0.141,0.175-0.172,0.247c-0.141,0.008-0.261,0.067-0.36,0.179s-0.185,0.168-0.255,0.172
			c-0.063,0.146-0.213,0.303-0.45,0.475s-0.389,0.313-0.452,0.422c-0.073-0.031-0.144-0.027-0.211,0.012
			c-0.069,0.039-0.121,0.06-0.155,0.061c-0.03,0.107-0.111,0.236-0.244,0.385c-0.139,0.043-0.309,0.148-0.511,0.318
			c-0.203,0.17-0.391,0.277-0.564,0.322c-0.067,0.074-0.097,0.164-0.091,0.27c-0.104,0.041-0.258,0.119-0.464,0.236
			c-0.205,0.117-0.377,0.198-0.516,0.24l-0.513,0.293c-0.033,0.037-0.172,0.098-0.413,0.182c-0.242,0.084-0.396,0.18-0.46,0.289
			c-0.105,0.006-0.235,0.049-0.39,0.127c-0.154,0.08-0.268,0.121-0.337,0.125c-0.2,0.223-0.421,0.376-0.663,0.459
			c-0.105,0.006-0.264,0.016-0.475,0.027c-0.211,0.011-0.368,0.037-0.472,0.078l-0.527,0.029c-0.104,0.041-0.17,0.115-0.199,0.223
			c-0.071,0.004-0.125-0.011-0.161-0.045l-0.003-0.053c-0.069,0.039-0.299,0.334-0.692,0.885c-0.24,0.119-0.526,0.365-0.858,0.734
			c-0.333,0.371-0.618,0.635-0.856,0.788c-0.031,0.073-0.105,0.156-0.224,0.251c-0.119,0.094-0.193,0.178-0.225,0.25
			c-0.38,0.162-0.946,0.439-1.699,0.834c-0.038-0.033-0.092-0.049-0.161-0.045c-0.071,0.004-0.142,0.008-0.211,0.012
			c-0.067,0.075-0.197,0.117-0.391,0.127c-0.193,0.012-0.324,0.037-0.393,0.075c-0.037-0.032-0.073-0.049-0.108-0.047l-0.108-0.047
			c-0.947,0.087-1.77-0.114-2.466-0.605c-0.215-0.058-0.398-0.171-0.548-0.34c-0.035,0.002-0.079,0.005-0.132,0.007
			c-0.053,0.003-0.08-0.013-0.082-0.049c-0.002-0.034-0.039-0.067-0.111-0.1c-0.072-0.03-0.109-0.063-0.111-0.1l-0.056-0.049
			c-0.035,0.002-0.07,0.004-0.105,0.006s-0.071-0.014-0.108-0.047l-0.056-0.051c-0.002-0.034-0.013-0.061-0.03-0.077
			c-0.02-0.017-0.046-0.024-0.081-0.022c-0.039-0.068-0.123-0.16-0.253-0.277c-0.131-0.115-0.233-0.232-0.311-0.353
			c-0.077-0.119-0.118-0.231-0.124-0.337c-0.073-0.031-0.138-0.09-0.195-0.175c-0.057-0.085-0.105-0.144-0.142-0.177
			c-0.041-0.104-0.129-0.258-0.264-0.462s-0.24-0.357-0.315-0.459c-0.362-0.156-0.554-0.445-0.577-0.867
			c-0.262-0.268-0.404-0.63-0.43-1.087l-0.006-0.105c-0.002-0.035-0.021-0.07-0.059-0.104l-0.006-0.105l0.032-0.371l-0.012-0.211
			c-0.004-0.07,0.012-0.125,0.044-0.162l0.048-0.107l-0.041-0.738c-0.002-0.035,0.021-0.099,0.069-0.189
			c0.048-0.09,0.07-0.153,0.068-0.189c0.145-0.571,0.313-1.039,0.505-1.402l0.249-0.278l0.047-0.108
			c0.033-0.037,0.049-0.073,0.047-0.108c0.137-0.077,0.223-0.118,0.259-0.12c0.06-0.18,0.198-0.389,0.414-0.631
			c0.216-0.24,0.355-0.434,0.418-0.578c0.104-0.041,0.272-0.182,0.506-0.425c0.233-0.241,0.437-0.386,0.611-0.431
			c0.027-0.142,0.124-0.297,0.292-0.465c0.167-0.168,0.267-0.271,0.3-0.309c0.033-0.035,0.092-0.092,0.177-0.168
			c0.083-0.074,0.142-0.131,0.176-0.168c0.067-0.039,0.155-0.062,0.261-0.067s0.191-0.028,0.261-0.067
			c0.068-0.038,0.188-0.107,0.358-0.205c0.171-0.097,0.309-0.166,0.412-0.207l0.475-0.026c0.176-0.01,0.342-0.036,0.498-0.08
			S66.795,19.758,66.9,19.752z M64.763,28.016l-0.158,0.01c-0.063,0.145-0.096,0.349-0.099,0.613
			c-0.004,0.265-0.02,0.451-0.049,0.559c0.037,0.033,0.076,0.102,0.117,0.205c0.04,0.104,0.097,0.171,0.17,0.201l0.029,0.527
			c0.105-0.006,0.251,0.092,0.438,0.294l1.107-0.062c0.099-0.146,0.318-0.299,0.663-0.459c0.343-0.16,0.566-0.277,0.668-0.354
			c0.031-0.072,0.025-0.178-0.018-0.316c-0.037-0.033-0.287-0.091-0.75-0.171c-0.111-0.101-0.185-0.149-0.22-0.147
			c-0.037-0.032-0.126-0.045-0.267-0.037c-0.186-0.166-0.313-0.248-0.383-0.244l-0.053,0.003l-0.111-0.1
			c-0.105,0.006-0.178-0.007-0.214-0.041l-0.114-0.152c-0.038-0.032-0.108-0.047-0.214-0.041
			C64.979,28.109,64.797,28.014,64.763,28.016z M67.824,23.087c-0.07,0.004-0.174,0.046-0.311,0.123
			c-0.137,0.079-0.24,0.119-0.311,0.123c-0.069,0.039-0.136,0.096-0.202,0.169c-0.067,0.076-0.118,0.113-0.152,0.115
			c-0.142,0.008-0.358,0.213-0.654,0.617l0.009,0.158l-0.196,0.275c-0.129,0.219-0.264,0.35-0.401,0.393
			c0.038,0.068,0.105,0.162,0.2,0.279c0.095,0.119,0.144,0.195,0.146,0.23l0.172,0.255c0.039,0.069,0.132,0.144,0.277,0.224
			c0.145,0.08,0.238,0.172,0.279,0.275c0.285,0.055,0.502,0.148,0.65,0.281c0.464,0.115,0.788,0.239,0.973,0.369
			c0.069-0.004,0.15,0.019,0.241,0.066c0.091,0.049,0.153,0.071,0.189,0.069c0.034-0.002,0.097,0.013,0.188,0.042
			c0.089,0.031,0.17,0.053,0.241,0.066c0.071,0.015,0.142,0.02,0.213,0.016c0.105-0.006,0.226-0.048,0.363-0.127
			c0.244-0.682,0.364-1.059,0.36-1.131l-0.009-0.158c0.099-0.145,0.144-0.289,0.136-0.43c-0.002-0.035-0.016-0.123-0.041-0.262
			c-0.026-0.14-0.04-0.244-0.044-0.316c-0.002-0.033,0.003-0.105,0.015-0.212s0.016-0.194,0.012-0.265l-0.006-0.105
			c-0.039-0.068-0.097-0.154-0.172-0.256c-0.077-0.102-0.115-0.169-0.117-0.205c-0.045-0.173-0.104-0.293-0.179-0.359
			c-0.113-0.135-0.393-0.234-0.836-0.299C68.412,23.047,68.068,23.039,67.824,23.087z"/>
		<path fill="#231F20" d="M81.839,19.18c0.211,0.013,0.47,0.107,0.777,0.285c0.307,0.177,0.53,0.27,0.671,0.278
			c0.16,0.257,0.312,0.39,0.452,0.397c0.03,0.072,0.104,0.174,0.22,0.305c0.115,0.131,0.187,0.268,0.214,0.409
			c0.104,0.042,0.188,0.399,0.253,1.073l0.053,0.004c0.034,0.002,0.106-0.021,0.216-0.066c0.108-0.047,0.18-0.068,0.215-0.066
			c0.077-0.102,0.178-0.175,0.305-0.221c0.126-0.045,0.296-0.088,0.511-0.127c0.214-0.041,0.392-0.074,0.535-0.101
			c0.107-0.028,0.262-0.116,0.465-0.263c0.202-0.146,0.403-0.258,0.603-0.334c0.198-0.076,0.402-0.091,0.611-0.043
			c0.511-0.287,1.134-0.391,1.87-0.311c0.035,0.002,0.077,0.03,0.127,0.086c0.05,0.057,0.108,0.104,0.177,0.144
			c0.461-0.043,0.88,0.167,1.259,0.631c0.377,0.464,0.618,0.717,0.722,0.758c0.065,0.075,0.144,0.239,0.234,0.49
			c0.091,0.253,0.186,0.435,0.285,0.546c-0.002,0.036-0.014,0.079-0.034,0.131c-0.021,0.052-0.032,0.096-0.034,0.131
			c-0.005,0.07,0.007,0.168,0.035,0.293c0.027,0.125,0.039,0.223,0.035,0.293l-0.01,0.158c0.035,0.002,0.068,0.039,0.1,0.111
			l0.046,0.109l-0.01,0.157c-0.006,0.105,0.011,0.266,0.051,0.479s0.056,0.393,0.048,0.531c0.032,0.038,0.064,0.084,0.097,0.139
			s0.064,0.102,0.098,0.139l-0.031,0.527c-0.007,0.105-0.05,0.234-0.129,0.389c-0.081,0.154-0.122,0.266-0.127,0.336
			c-0.146,0.662-0.237,1.01-0.273,1.042c0.055,0.251,0.045,0.409-0.029,0.475c-0.002,0.036,0.013,0.08,0.045,0.135
			c0.031,0.056,0.047,0.101,0.045,0.136c-0.275,0.477-0.433,0.732-0.47,0.766c0.1,0.111,0.141,0.308,0.124,0.589
			c-0.011,0.177-0.071,0.296-0.181,0.359c-0.002,0.036,0.031,0.055,0.103,0.06c0.069,0.004,0.085,0.04,0.046,0.108
			c-0.004,0.071-0.045,0.155-0.121,0.257l-0.111,0.1c-0.007,0.105,0.03,0.223,0.11,0.35c0.08,0.129,0.137,0.229,0.168,0.302
			c-0.003,0.036-0.031,0.077-0.088,0.127c-0.056,0.05-0.086,0.11-0.09,0.18l-0.006,0.105c-0.003,0.036,0.009,0.133,0.035,0.294
			c0.024,0.16,0.036,0.275,0.032,0.346l-0.057,0.049c-0.002,0.035-0.004,0.071-0.006,0.105c-0.002,0.035,0.047,0.092,0.148,0.168
			c0.068,0.039,0.101,0.094,0.096,0.164c0.354-0.014,0.7-0.055,1.039-0.123c0.34-0.066,0.707-0.168,1.104-0.303
			c0.396-0.136,0.684-0.232,0.864-0.293c0.146-0.097,0.393-0.231,0.738-0.404c0.346-0.174,0.593-0.326,0.742-0.459l0.322-0.086
			c0.112-0.1,0.514-0.322,1.205-0.668c1.402-1.045,2.178-1.615,2.325-1.713l0.422,0.025c0.074-0.065,0.175-0.139,0.304-0.22
			c0.128-0.08,0.211-0.137,0.248-0.171l0.105,0.007c0.211,0.013,0.47-0.042,0.777-0.165c0.307-0.121,0.548-0.178,0.725-0.168
			c0.562,0.034,0.882,0.301,0.957,0.799l-0.034,0.58c-0.049,0.209-0.223,0.463-0.522,0.762c-0.301,0.3-0.474,0.537-0.519,0.71
			l-0.165,0.096c-0.109,0.064-0.185,0.13-0.224,0.198c-0.141-0.008-0.257,0.012-0.348,0.059s-0.184,0.121-0.277,0.221
			c-0.095,0.101-0.16,0.168-0.197,0.2c-0.075,0.067-0.202,0.13-0.382,0.188c-0.181,0.061-0.317,0.132-0.409,0.214
			c-0.094,0.083-0.146,0.212-0.156,0.388c-0.51,0.252-0.801,0.41-0.875,0.477l-0.056,0.049c-0.038,0.033-0.074,0.049-0.108,0.047
			c-0.247-0.015-0.413,0.117-0.5,0.393c-0.036-0.002-0.08,0.005-0.134,0.02s-0.099,0.02-0.133,0.018
			c-0.036-0.002-0.113,0.117-0.233,0.357c-0.075,0.066-0.256,0.143-0.543,0.231c-0.288,0.089-0.472,0.201-0.55,0.337
			c-0.105-0.006-0.267,0.037-0.484,0.13c-0.217,0.093-0.362,0.155-0.434,0.186c-0.11,0.064-0.291,0.133-0.542,0.206
			c-0.252,0.072-0.433,0.158-0.545,0.258c-0.035-0.002-0.098,0.012-0.188,0.041s-0.153,0.045-0.188,0.042
			c-0.037,0.032-0.185,0.13-0.44,0.291c-0.257,0.161-0.456,0.237-0.596,0.229l-0.211-0.014c-0.073,0.031-0.174,0.096-0.303,0.193
			c-0.13,0.099-0.213,0.146-0.247,0.145c-0.251,0.055-0.396,0.135-0.438,0.238c-0.179,0.023-0.402,0.09-0.674,0.197
			c-0.271,0.107-0.46,0.175-0.567,0.204l-0.264-0.017l-0.267,0.037c-0.205-0.117-0.343-0.179-0.412-0.184l-0.633-0.037
			c-0.484-0.171-0.825-0.367-1.023-0.591l-0.139-0.326c-0.063-0.146-0.191-0.329-0.39-0.553c-0.255-0.474-0.38-0.728-0.378-0.763
			c-0.328-0.408-0.547-0.88-0.655-1.416c-0.198-0.223-0.369-0.612-0.512-1.168c-0.144-0.555-0.23-0.869-0.261-0.941
			c0.002-0.035,0.021-0.078,0.061-0.129c0.037-0.051,0.059-0.094,0.061-0.129c-0.124-0.289-0.17-0.697-0.139-1.225
			c0.016-0.246,0.043-0.422,0.085-0.524c-0.093-0.218-0.085-0.341,0.022-0.369c-0.1-0.112-0.14-0.325-0.12-0.642
			c0.019-0.316,0.011-0.494-0.021-0.531c0.039-0.068,0.096-0.135,0.171-0.201c-0.031-0.072-0.042-0.179-0.033-0.319
			c0.008-0.14,0.051-0.278,0.131-0.415c-0.063-0.145-0.091-0.252-0.087-0.323l0.177-0.307c-0.03-0.072-0.043-0.161-0.036-0.267
			c0.008-0.141,0.054-0.314,0.137-0.521s0.128-0.362,0.134-0.468c0.002-0.034,0.005-0.07,0.007-0.105L87.492,24.6
			c-0.035-0.002-0.089,0.013-0.161,0.043c-0.073,0.031-0.143,0.027-0.211-0.013c-0.006,0.105-0.066,0.233-0.182,0.386
			s-0.177,0.299-0.186,0.439c-0.183,0.094-0.38,0.303-0.593,0.625c-0.214,0.322-0.395,0.531-0.541,0.629l-0.006,0.105
			c-0.004,0.07,0.025,0.152,0.091,0.244s0.097,0.156,0.095,0.19c-0.042,0.103-0.13,0.239-0.263,0.407
			c-0.134,0.169-0.223,0.322-0.266,0.461c0.093,0.217,0.132,0.449,0.117,0.694c-0.025,0.422-0.166,0.696-0.42,0.821
			c0.044,0.426,0.063,0.71,0.055,0.85c-0.04,0.069-0.113,0.126-0.223,0.172c-0.108,0.047-0.164,0.088-0.166,0.123
			c-0.004,0.07,0.026,0.151,0.092,0.243c0.064,0.093,0.096,0.156,0.094,0.19l-0.041,0.686c-0.111,0.1-0.173,0.237-0.184,0.412
			l-0.01,0.158c-0.072,0.031-0.155,0.238-0.248,0.621c-0.075,0.066-0.115,0.151-0.122,0.256c-0.002,0.036,0.012,0.1,0.042,0.188
			c0.029,0.091,0.044,0.153,0.042,0.188c-0.005,0.071-0.055,0.155-0.148,0.256s-0.144,0.186-0.147,0.256
			c-0.035-0.003-0.168,0.148-0.397,0.452c0.03,0.072,0.034,0.169,0.009,0.291s-0.022,0.219,0.009,0.292
			c-0.118,0.204-0.355,0.331-0.71,0.38c-0.038,0.033-0.096,0.109-0.173,0.229c-0.078,0.119-0.153,0.193-0.226,0.225l-0.526-0.031
			c-0.205-0.119-0.378-0.182-0.519-0.19c-0.066-0.075-0.249-0.253-0.55-0.536c-0.3-0.282-0.497-0.532-0.59-0.75
			c-0.103-0.041-0.202-0.152-0.297-0.335c-0.095-0.182-0.177-0.292-0.245-0.332c-0.019-0.283-0.15-0.573-0.397-0.87
			c-0.246-0.297-0.386-0.481-0.416-0.555c-0.037-0.566-0.04-1.096-0.011-1.588l0.022-0.369c0.005-0.07,0.027-0.156,0.068-0.26
			s0.063-0.173,0.065-0.208c0.003-0.034-0.013-0.089-0.043-0.161c-0.031-0.072-0.045-0.127-0.043-0.162
			c0.002-0.034,0.014-0.086,0.036-0.156c0.021-0.068,0.033-0.121,0.035-0.156c0.003-0.035-0.01-0.133-0.035-0.293
			s-0.035-0.293-0.028-0.398l0.009-0.158c0.02-0.316-0.003-0.529-0.067-0.64l0.073-1.212c0.118-0.205,0.164-0.396,0.141-0.574
			c0.111-0.1,0.181-0.227,0.208-0.385c0.026-0.156,0.048-0.35,0.062-0.578s0.042-0.412,0.086-0.551
			c0.002-0.034,0.033-0.121,0.095-0.258s0.094-0.241,0.098-0.313c0.021-0.351,0.051-0.543,0.088-0.576
			c0.004-0.07-0.024-0.178-0.086-0.322c-0.015-0.354,0.043-0.879,0.174-1.578c0.13-0.697,0.204-1.186,0.221-1.468
			c0.017-0.28,0.241-0.496,0.674-0.647C81.217,19.266,81.558,19.162,81.839,19.18z"/>
	</g>
	<g>
		<path fill="#8A5D3B" d="M18.323,51.945l2.117,3.861c0,0-1.348,3.264-3.357,3.17s-3.047-0.459-3.111-1.891
			c-0.064-1.43,1.781-4.047,2.623-4.641C17.435,51.852,18.323,51.945,18.323,51.945z"/>
		<path fill="#231F20" d="M17.168,59.729l-0.12-0.003c-1.299-0.061-3.716-0.173-3.825-2.605c-0.081-1.8,2.021-4.64,2.939-5.288
			c1.058-0.747,2.239-0.634,2.24-0.633l0.383,0.046l0.195,0.34l2.29,4.176l-0.137,0.332C20.98,56.465,19.563,59.729,17.168,59.729z
			 M17.891,52.716c-0.251,0.038-0.563,0.129-0.863,0.342c-0.719,0.507-2.355,2.9-2.307,3.994c0.029,0.645,0.212,1.073,2.397,1.176
			l0.05,0.751v-0.75c1.044,0,2.014-1.536,2.435-2.391L17.891,52.716z"/>
	</g>
	<path fill="#8A5D3B" d="M102.714,11.486c0,0,1.604-2.115,3.547-1.75c1.943,0.363,4.969,2.508,4.641,3.217
		c-0.328,0.711-2.848,2.49-4.252,1.217S101.407,12.682,102.714,11.486z"/>
	<g>
		<path fill="#231F20" d="M48.277,43.906l0.152,0.152c0.135-0.033,0.338-0.051,0.608-0.051s0.659,0.086,1.167,0.254
			c0.507,0.17,0.913,0.254,1.217,0.254c0.034,0.034,0.084,0.068,0.152,0.102l0.051,0.051c0.102,0,0.186-0.018,0.254-0.051
			c0.033,0.033,0.422,0.236,1.167,0.608c0.067,0,0.117-0.008,0.151-0.025c0.033-0.017,0.067-0.025,0.102-0.025
			c0.067,0.034,0.16,0.094,0.279,0.178c0.118,0.085,0.211,0.127,0.279,0.127c0,0.034,0.017,0.067,0.051,0.101
			c0.033,0.035,0.05,0.068,0.05,0.102c0.541,0.373,0.913,0.762,1.116,1.167c0.033,0.068,0.093,0.119,0.178,0.152
			c0.084,0.034,0.127,0.068,0.127,0.102c0,0.034,0.008,0.085,0.025,0.152c0.017,0.067,0.025,0.136,0.025,0.202
			c0.507,0.406,0.761,0.779,0.761,1.116l-0.051,0.203c0.033,0.068,0.084,0.102,0.152,0.102l0.152,0.051
			c0.067,0.101,0.118,0.253,0.151,0.456c0.034,0.203,0.067,0.322,0.102,0.355v0.508c0,0.033,0.025,0.059,0.076,0.075
			c0.051,0.018,0.093,0.06,0.127,0.127v0.152c0,0.304-0.018,0.49-0.051,0.558c0.033,0.034,0.051,0.203,0.051,0.508
			c0,0.102,0.025,0.22,0.076,0.354c0.051,0.136,0.076,0.254,0.076,0.355c0,0.101-0.018,0.187-0.051,0.253
			c0,0.068,0.033,0.111,0.102,0.127c0.067,0.018,0.102,0.043,0.102,0.076c0.033,0.237,0.051,0.576,0.051,1.015
			c0,0.339-0.018,0.593-0.051,0.761h-0.203l0.456,0.762c0.034,0.067,0.017,0.118-0.051,0.151c-0.033,0.068-0.05,0.119-0.05,0.152
			c0.067,0.237,0.067,0.423,0,0.558c0.067,0.136,0.101,0.373,0.101,0.711c0,0.304-0.017,0.541-0.051,0.709
			c0.034,0.102,0.102,0.17,0.203,0.203c-0.034,0.035-0.051,0.086-0.051,0.152c0,0.271-0.018,0.424-0.051,0.457
			c0.033,0.068,0.051,0.152,0.051,0.254l-0.051,0.507c0.067,0.202,0.102,0.354,0.102,0.456l-0.051,0.102
			c-0.034,0.068-0.067,0.136-0.102,0.203c0,0.271-0.033,0.424-0.101,0.457c0.033,0.067,0.05,0.169,0.05,0.304
			c0,0.136-0.024,0.304-0.075,0.507s-0.076,0.355-0.076,0.457c0,0.17,0.017,0.287,0.051,0.355c-0.068,0.304-0.102,0.474-0.102,0.507
			c0,0.034-0.085,0.136-0.254,0.304c0.033,0.035,0.051,0.102,0.051,0.203c0,0.068-0.034,0.161-0.102,0.279
			c-0.068,0.119-0.102,0.195-0.102,0.229v0.152c0,0.507-0.152,0.828-0.456,0.963l0.051,0.102c0,0.034,0,0.068,0,0.102
			c0,0.237-0.152,0.424-0.457,0.559c0,0.068-0.009,0.145-0.025,0.229c-0.018,0.084-0.009,0.144,0.025,0.177
			c-0.203,0.271-0.321,0.507-0.354,0.71c-0.203,0.102-0.305,0.254-0.305,0.457c-0.203,0.203-0.339,0.372-0.406,0.507
			c-0.643,0.271-1.064,0.608-1.268,1.015c-0.034,0-0.119,0.034-0.254,0.102c-0.102,0.17-0.338,0.346-0.71,0.532
			c-0.372,0.186-0.608,0.33-0.71,0.431c-0.034,0.034-0.068,0.051-0.102,0.051c-0.034,0-0.068,0-0.102,0
			c-0.068,0.102-0.187,0.186-0.355,0.254s-0.287,0.135-0.354,0.203h-0.203c-0.136,0-0.296,0.033-0.481,0.102
			c-0.187,0.067-0.33,0.102-0.432,0.102c-0.068,0-0.229,0.025-0.481,0.076c-0.254,0.051-0.482,0.076-0.685,0.076h-0.051
			c-0.068-0.034-0.119-0.051-0.152-0.051h-0.355c-0.338,0-0.592-0.068-0.761-0.203h-0.102c-0.136,0-0.338-0.068-0.608-0.203
			c-0.677-0.203-1.15-0.423-1.42-0.659c-0.576-0.136-0.964-0.321-1.167-0.558c-0.305,0-0.558-0.22-0.761-0.66
			c0-0.033-0.034-0.066-0.102-0.102L43.154,68c-0.034-0.168-0.161-0.413-0.381-0.734s-0.329-0.601-0.329-0.838h-0.051
			c-0.034-0.033-0.051-0.066-0.051-0.102c-0.034-0.102-0.068-0.211-0.102-0.329c-0.034-0.118-0.068-0.254-0.102-0.405
			c-0.034-0.152-0.068-0.262-0.102-0.33l-0.102-0.203c-0.033-0.102-0.042-0.22-0.025-0.355c0.018-0.135,0.025-0.236,0.025-0.304
			c0-0.034-0.025-0.076-0.075-0.127c-0.051-0.051-0.076-0.093-0.076-0.127c0-0.033,0-0.093,0-0.177s-0.018-0.145-0.051-0.178
			c0-0.033-0.009-0.076-0.025-0.127c-0.018-0.051-0.025-0.109-0.025-0.178v-0.203c0-0.067-0.009-0.169-0.025-0.305
			c-0.018-0.135-0.025-0.253-0.025-0.354c-0.034-0.203-0.043-0.481-0.025-0.837c0.017-0.355,0.025-0.6,0.025-0.736
			c0-0.135,0.017-0.219,0.051-0.253c0-0.033-0.051-0.372-0.152-1.015c0-0.033,0.017-0.067,0.051-0.102
			c0.033-0.033,0.051-0.066,0.051-0.102l-0.051-0.051c-0.034-0.033-0.051-0.152-0.051-0.354c-0.034-0.271-0.051-0.794-0.051-1.573
			c0-0.066,0.017-0.159,0.051-0.278c0.033-0.118,0.051-0.194,0.051-0.228V56.74v-0.863c0-0.235,0.017-0.422,0.051-0.557
			c0-0.102,0.017-0.236,0.051-0.406c0.033-0.169,0.051-0.287,0.051-0.355v-0.406c0-0.202,0.033-0.54,0.102-1.014
			c0.067-0.473,0.101-0.795,0.101-0.964c0.067-0.812,0.135-1.269,0.203-1.37c-0.034-0.066-0.051-0.151-0.051-0.253
			c0-0.135,0.033-0.304,0.102-0.507c0-0.033-0.009-0.102-0.025-0.203c-0.018-0.102-0.025-0.186-0.025-0.254
			c0-0.169,0.033-0.355,0.102-0.559c0-0.235,0.017-0.422,0.051-0.557c0-0.508,0.017-0.914,0.051-1.218
			c0.067-0.135,0.102-0.254,0.102-0.355c0-0.067-0.009-0.169-0.025-0.304c-0.018-0.135-0.025-0.221-0.025-0.254
			c0-0.102,0.017-0.186,0.051-0.254c0-0.102-0.034-0.186-0.102-0.254c0-0.066,0.033-0.143,0.102-0.229
			c0.067-0.084,0.102-0.143,0.102-0.177l0.456-0.305c0.033,0,0.084-0.008,0.152-0.024c0.067-0.018,0.135-0.034,0.203-0.051
			c0.067-0.018,0.118-0.043,0.152-0.076c0.067-0.033,0.16-0.102,0.278-0.203s0.211-0.169,0.279-0.203
			c0.338-0.033,0.659-0.135,0.964-0.305c0.135-0.033,0.271-0.051,0.405-0.051c0.033,0,0.084-0.016,0.152-0.051l0.102-0.051h0.203
			c0.033,0,0.127-0.008,0.279-0.025c0.151-0.016,0.278-0.025,0.38-0.025c0.135,0,0.236,0.035,0.305,0.102
			c0.102-0.102,0.228-0.16,0.38-0.178c0.152-0.016,0.33-0.025,0.533-0.025C47.973,43.957,48.142,43.941,48.277,43.906z
			 M42.495,55.472v0.152c0.033,0,0.067-0.017,0.102-0.051C42.597,55.506,42.563,55.472,42.495,55.472z M49.19,49.08
			c-0.068,0-0.254,0.152-0.558,0.457c0,0.034,0.025,0.068,0.076,0.102c0.051,0.034,0.076,0.085,0.076,0.152
			c-0.068,0.135-0.102,0.254-0.102,0.355c0,0.135,0.033,0.304,0.102,0.507c-0.136,0.474-0.221,0.846-0.254,1.116
			c0,0.033,0.025,0.076,0.076,0.127s0.076,0.093,0.076,0.126c-0.203,0.136-0.305,0.355-0.305,0.659c0,0.102,0.017,0.254,0.051,0.457
			c0.033,0.203,0.051,0.355,0.051,0.457l0.254,2.789c0,0.203,0.025,0.508,0.075,0.913c0.051,0.405,0.076,0.693,0.076,0.862
			l-0.051,0.508c0,0.102,0.017,0.169,0.051,0.202c-0.067,0.102-0.101,0.406-0.101,0.913v0.102c0,0.034-0.018,0.102-0.051,0.203
			c-0.034,0.102-0.051,0.17-0.051,0.203c0,0.068,0.008,0.178,0.025,0.329c0.017,0.152,0.025,0.263,0.025,0.33v0.151
			c0,0.068-0.009,0.145-0.025,0.229c-0.018,0.085-0.025,0.145-0.025,0.178c0,0.068,0.033,0.203,0.102,0.406v0.254
			c0,0.202,0.109,0.405,0.329,0.607c0.22,0.203,0.414,0.305,0.583,0.305c0.203-0.033,0.372-0.117,0.508-0.254l0.354-0.354
			c0-0.067,0.042-0.169,0.127-0.304c0.084-0.135,0.127-0.254,0.127-0.355c0.067-0.305,0.186-0.508,0.355-0.609
			c0-0.033,0.033-0.168,0.102-0.405c0-0.372,0.084-0.761,0.253-1.167v-0.305c0-0.405,0.051-0.793,0.152-1.166
			c0-0.033-0.025-0.067-0.076-0.102c-0.051-0.033-0.06-0.084-0.025-0.152c0.033-1.148-0.051-2.333-0.253-3.551
			c-0.068-0.574-0.17-0.912-0.305-1.014c0.033-0.338-0.152-1.015-0.558-2.029c-0.136-0.27-0.203-0.49-0.203-0.659v-0.152
			l-0.203-0.405c0.033-0.033,0.051-0.068,0.051-0.102c-0.068,0-0.136-0.033-0.203-0.102c0-0.102-0.051-0.211-0.152-0.33
			c-0.102-0.118-0.169-0.229-0.202-0.33C49.376,49.131,49.258,49.08,49.19,49.08z M49.089,64.957c0,0.17,0.017,0.271,0.051,0.305
			c0.203-0.102,0.305-0.169,0.305-0.203C49.309,64.991,49.19,64.957,49.089,64.957z"/>
		<path fill="#231F20" d="M62.327,42.131h0.305l0.305,0.152c0.337,0,0.523,0.018,0.558,0.051c0.067-0.033,0.186-0.051,0.355-0.051
			c0.101,0,0.278,0.035,0.532,0.102c0.254,0.068,0.447,0.102,0.583,0.102c0.102,0.068,0.262,0.152,0.482,0.254
			c0.219,0.102,0.388,0.186,0.507,0.254c0.118,0.068,0.236,0.186,0.355,0.355c0.118,0.169,0.193,0.354,0.228,0.557
			c0.033,0.068,0.102,0.137,0.203,0.203c0.102,0.068,0.169,0.119,0.203,0.152c0.033,0.034,0.059,0.11,0.076,0.229
			c0.017,0.119,0.025,0.195,0.025,0.229s0.017,0.068,0.051,0.102l0.051,0.102v0.304c0,0.034,0.042,0.11,0.127,0.229
			c0.084,0.118,0.126,0.212,0.126,0.278c0,0.068,0.008,0.152,0.025,0.254c0.017,0.102,0.042,0.187,0.076,0.254
			c0,0.068,0.017,0.152,0.051,0.254c0.033,0.102,0.051,0.17,0.051,0.203v0.151c0,0.068-0.009,0.161-0.025,0.279
			c-0.018,0.118-0.025,0.194-0.025,0.228c0,0.035,0.033,0.086,0.102,0.152c0,0.068,0.017,0.195,0.051,0.381
			c0.033,0.186,0.051,0.33,0.051,0.432c0.067,0.236,0.084,0.423,0.051,0.558c0,0.067-0.009,0.177-0.025,0.329
			c-0.018,0.152-0.025,0.279-0.025,0.381v0.203c0.067,0.406,0.102,0.693,0.102,0.862c0,0.202-0.034,0.354-0.102,0.456
			c0,0.034,0.017,0.085,0.051,0.152c0.033,0.068,0.051,0.136,0.051,0.203c0,0.034-0.009,0.076-0.025,0.127
			c-0.018,0.051-0.025,0.094-0.025,0.127l0.051,0.102c0,0.033,0,0.067,0,0.102v0.051c-0.034,0.033-0.051,0.067-0.051,0.101
			c0,0.034,0.008,0.11,0.025,0.229c0.017,0.118,0.025,0.212,0.025,0.278l0.051,0.102c0.033,0.068,0.051,0.119,0.051,0.152
			c0,0.068-0.018,0.17-0.051,0.305c-0.068,0.068-0.102,0.135-0.102,0.203c0,0.033,0.008,0.119,0.025,0.254
			c0.017,0.135,0.025,0.236,0.025,0.304c-0.034,0.068-0.051,0.119-0.051,0.152c0,0.034,0,0.118,0,0.253
			c0,0.137-0.034,0.203-0.102,0.203c0.102,0.17,0.152,0.322,0.152,0.457c0,0.033-0.009,0.109-0.025,0.229
			c-0.018,0.119-0.025,0.211-0.025,0.278c-0.068,0.068-0.102,0.136-0.102,0.203c-0.068,0.913-0.136,1.403-0.203,1.471
			c0.102,0.305,0.152,0.644,0.152,1.015c0,0.271-0.034,0.475-0.102,0.609c0.067,0.271,0.102,0.49,0.102,0.658
			c0,0.17-0.034,0.288-0.102,0.355c0.033,0.068,0.059,0.203,0.076,0.406c0.017,0.203,0.025,0.338,0.025,0.405l-0.152,0.152
			c0.033,0.068,0.051,0.169,0.051,0.304c0,0.137-0.018,0.305-0.051,0.508c-0.034,0.203-0.051,0.355-0.051,0.457v0.203
			c-0.102,0.169-0.169,0.271-0.202,0.304c0,0.304-0.018,0.474-0.051,0.507v0.305c0,0.373-0.085,0.761-0.254,1.166l0.051,0.863
			c0,0.474-0.136,0.761-0.406,0.861c0.033,0.035,0.051,0.086,0.051,0.152c0,0.068-0.034,0.152-0.102,0.254s-0.101,0.187-0.101,0.254
			c-0.068,0.068-0.221,0.211-0.457,0.432c-0.237,0.22-0.439,0.363-0.608,0.431l-0.203,0.051c-0.406,0.237-0.643,0.354-0.71,0.354
			c-0.846,0-1.404-0.033-1.674-0.102c-0.034,0-0.119-0.033-0.254-0.102c-0.136-0.066-0.237-0.117-0.305-0.151
			c-0.033,0-0.118-0.067-0.253-0.203c-0.475-0.102-0.812-0.321-1.015-0.659c-0.17-0.033-0.33-0.144-0.482-0.33
			c-0.151-0.186-0.245-0.295-0.278-0.33c-0.034-0.135-0.119-0.32-0.254-0.557c-0.136-0.236-0.221-0.424-0.254-0.559
			c-0.034-0.067-0.06-0.16-0.076-0.279c-0.017-0.117-0.025-0.211-0.025-0.279c-0.067-0.202-0.101-0.354-0.101-0.456v-0.608
			c0-0.102-0.034-0.313-0.102-0.635c-0.068-0.32-0.119-0.6-0.152-0.836c-0.034-0.236-0.051-0.592-0.051-1.065
			c-0.034-0.135-0.051-0.338-0.051-0.608c0-0.203,0.033-0.338,0.102-0.406c-0.068-0.067-0.102-0.203-0.102-0.406
			c0-0.066,0.017-0.203,0.051-0.405c0.033-0.203,0.051-0.354,0.051-0.456v-0.355c0-0.305,0.051-0.508,0.152-0.609
			c0-0.033-0.025-0.066-0.076-0.102c-0.051-0.033-0.076-0.084-0.076-0.151s0.008-0.135,0.025-0.203
			c0.017-0.067,0.025-0.135,0.025-0.202v-0.762c0-0.507,0.033-0.896,0.102-1.166c-0.034-0.068-0.051-0.186-0.051-0.355
			c0-0.135,0.033-0.338,0.102-0.609c0.067-0.27,0.102-0.438,0.102-0.506v-0.102c-0.034-0.068-0.051-0.119-0.051-0.152l0.051-0.102
			c0-0.033,0-0.068,0-0.102c0-0.135,0-0.355,0-0.66c0-0.304,0.017-0.523,0.05-0.658c0.067-0.474,0.102-0.829,0.102-1.066
			c0-0.033,0.033-0.084,0.102-0.152c0-0.066-0.018-0.117-0.051-0.151c-0.034-0.033-0.051-0.084-0.051-0.152l0.152-1.167v-0.051
			l-0.051-0.102c0-0.102,0.033-0.228,0.102-0.38c0.067-0.151,0.102-0.261,0.102-0.329c0-0.102,0.008-0.297,0.025-0.584
			c0.017-0.287,0.042-0.482,0.076-0.583l0.152-0.254c0.067-0.507,0.169-0.812,0.304-0.913c0-0.033-0.018-0.067-0.051-0.102
			c-0.033-0.033-0.051-0.084-0.051-0.152c0.067-0.203,0.102-0.338,0.102-0.405V44.77c0-0.068,0.033-0.186,0.102-0.355
			c0.067-0.169,0.102-0.287,0.102-0.355c0-0.236-0.034-0.558-0.102-0.963c0.067-0.068,0.118-0.186,0.152-0.355
			c0.033-0.169,0.067-0.27,0.102-0.305C61.212,42.232,61.685,42.131,62.327,42.131z"/>
		<path fill="#231F20" d="M77.95,43.806h0.152c0.372,0,0.591,0.034,0.659,0.101c0.102-0.033,0.271-0.051,0.508-0.051
			c0.135,0,0.32,0.01,0.558,0.025c0.236,0.018,0.389,0.025,0.456,0.025c0.102,0,0.254-0.008,0.457-0.025
			c0.203-0.016,0.354-0.025,0.456-0.025c0.033,0,0.084,0.018,0.152,0.051c0.067,0.035,0.118,0.051,0.152,0.051
			c0.033,0,0.093-0.008,0.178-0.025c0.084-0.016,0.16-0.025,0.229-0.025c0.033,0,0.202,0.01,0.507,0.025
			c0.305,0.018,0.54,0.061,0.71,0.127c0.067,0,0.118-0.016,0.152-0.051h0.102c0.135,0.102,0.287,0.152,0.456,0.152h0.203
			c0.067,0,0.186-0.008,0.355-0.025c0.169-0.016,0.304-0.025,0.405-0.025h0.152c0.067,0,0.236,0.035,0.507,0.102
			c0.439,0.102,0.744,0.254,0.913,0.457c0.033,0.033,0.102,0.119,0.203,0.254s0.186,0.236,0.254,0.304
			c0.033,0.034,0.084,0.094,0.152,0.178c0.067,0.085,0.118,0.161,0.151,0.228l0.051,0.609c-0.067,0.373-0.202,0.71-0.405,1.015
			c-0.17,0.237-0.339,0.389-0.508,0.456c-0.067,0.034-0.186,0.068-0.354,0.102c-0.17,0.034-0.288,0.068-0.355,0.102
			c-0.135,0.068-0.271,0.102-0.405,0.102c-0.068,0-0.17-0.033-0.305-0.102c-0.203,0.17-0.592,0.254-1.167,0.254h-1.014
			c-0.136,0-0.373,0.008-0.711,0.025s-0.608,0.025-0.812,0.025h-0.354c-0.136-0.033-0.305-0.033-0.508,0
			c-0.101,0-0.228-0.008-0.38-0.025s-0.263-0.025-0.33-0.025c-0.068,0-0.16,0.008-0.278,0.025c-0.119,0.018-0.212,0.025-0.279,0.025
			c-0.068,0-0.161-0.008-0.279-0.025c-0.119-0.018-0.194-0.025-0.229-0.025c-0.169,0-0.287,0.033-0.354,0.102
			c0.033,0.068,0.051,0.17,0.051,0.304c-0.203,0.102-0.322,0.17-0.355,0.203c0.033,0.034,0.051,0.136,0.051,0.304l-0.051,0.305
			c0,0.068-0.034,0.136-0.102,0.203c-0.067,0.068-0.102,0.119-0.102,0.152c0.034,0.034,0.034,0.068,0,0.102l0.102,0.051
			c0.033,0,0.051,0.018,0.051,0.051c0.033,0.203,0.059,0.626,0.076,1.268c0.017,0.643,0.076,1.116,0.178,1.42
			c-0.102,0.271-0.17,0.44-0.203,0.508c0.033,0.068,0.084,0.102,0.152,0.102c0.067,0,0.102,0.018,0.102,0.051
			c0,0.271-0.018,0.456-0.051,0.558c0.102,0.17,0.152,0.354,0.152,0.558c0,0.237-0.085,0.475-0.254,0.711
			c0,0.068-0.009,0.145-0.025,0.229c-0.018,0.084-0.025,0.144-0.025,0.177c0,0.203,0.017,0.481,0.051,0.837
			c0.033,0.355,0.051,0.602,0.051,0.736c0,0.169-0.018,0.304-0.051,0.405c0.203,0.136,0.372,0.304,0.508,0.507
			c0.101,0,0.253-0.008,0.456-0.025c0.203-0.017,0.338-0.025,0.406-0.025c0.168,0,0.354,0.034,0.558,0.102
			c0.338-0.067,0.608-0.102,0.812-0.102l0.507,0.051c0.033,0.034,0.135,0.085,0.305,0.152c0.169,0.068,0.271,0.136,0.305,0.203
			h0.202c0.034,0.033,0.152,0.135,0.355,0.305c0.203,0.169,0.372,0.271,0.507,0.304c0,0.102,0.067,0.203,0.203,0.305
			c-0.068,0.067-0.076,0.169-0.025,0.304c0.051,0.136,0.076,0.221,0.076,0.254v0.102l-0.203,0.203c0,0.068-0.042,0.17-0.126,0.305
			c-0.085,0.135-0.127,0.253-0.127,0.354c-0.034,0.034-0.102,0.051-0.203,0.051c-0.034,0.136-0.119,0.304-0.254,0.507l-0.71,0.152
			c-0.068,0-0.17,0.018-0.305,0.051c-0.067,0.068-0.135,0.102-0.202,0.102c-0.102,0-0.221-0.017-0.355-0.051
			c-0.136-0.033-0.254-0.051-0.355-0.051l-0.507,0.051h-0.152c-0.068,0-0.161-0.017-0.278-0.051
			c-0.119-0.033-0.195-0.051-0.229-0.051c-0.102,0-0.17,0.018-0.203,0.051c-0.102,0.102-0.152,0.287-0.152,0.559
			c0,0.033-0.009,0.102-0.025,0.202c-0.018,0.102-0.025,0.187-0.025,0.254c0,0.136,0.017,0.321,0.051,0.558
			c0.033,0.237,0.051,0.406,0.051,0.508v0.558c0.102,0.034,0.372,0.127,0.812,0.278c0.439,0.152,0.743,0.297,0.913,0.432
			c0.067,0,0.118-0.008,0.152-0.025c0.033-0.017,0.067-0.025,0.102-0.025c0.304,0.102,0.659,0.152,1.065,0.152
			c0.304,0,0.692-0.033,1.166-0.102c0.033,0,0.118,0.068,0.254,0.203c0.102,0,0.313-0.025,0.634-0.076s0.566-0.076,0.735-0.076
			c0.236,0,0.423,0.051,0.559,0.152c0.033-0.067,0.118-0.076,0.253-0.025s0.22,0.076,0.254,0.076h0.102
			c0.033,0.034,0.067,0.068,0.102,0.102l0.102,0.051l0.456,0.152c0.135,0.203,0.203,0.372,0.203,0.507
			c0.033,0.034,0.102,0.093,0.203,0.178s0.169,0.144,0.203,0.177c0.067,0.068,0.101,0.254,0.101,0.559
			c0,0.271-0.033,0.457-0.101,0.559l-0.152,0.101c-0.237,0.339-0.44,0.542-0.609,0.608l-0.456,0.203h-0.254
			c-0.102,0-0.22,0.043-0.354,0.127c-0.136,0.085-0.237,0.127-0.305,0.127c-0.068,0-0.136-0.008-0.203-0.025
			c-0.068-0.017-0.118-0.025-0.152-0.025c-0.033,0-0.101,0.051-0.202,0.152c-0.102,0-0.246,0.051-0.432,0.152
			c-0.187,0.102-0.329,0.168-0.431,0.203c-0.068,0-0.221,0.008-0.457,0.025c-0.236,0.016-0.423,0.041-0.558,0.076
			c-0.271,0.066-0.541,0.101-0.812,0.101c-0.203,0-0.339-0.017-0.406-0.051l-0.152,0.051c-0.067,0.033-0.118,0.067-0.151,0.102
			c-0.068-0.034-0.17-0.051-0.305-0.051c-0.068,0-0.17,0.008-0.305,0.025c-0.135,0.017-0.236,0.025-0.304,0.025
			c-0.034,0-0.085,0-0.152,0l-0.051-0.051c-0.034,0-0.085,0.008-0.152,0.025c-0.068,0.017-0.119,0.025-0.152,0.025
			c-0.102,0.033-0.321,0.051-0.659,0.051h-0.71c-0.136,0.067-0.221,0.102-0.254,0.102c-0.102,0.033-0.254,0.051-0.456,0.051
			c-0.305,0-0.525-0.018-0.66-0.051l-0.253,0.151c-0.17,0-0.415,0.018-0.735,0.051c-0.322,0.033-0.567,0.051-0.736,0.051
			c-0.202,0-0.372-0.018-0.507-0.051c-0.068-0.067-0.254-0.151-0.558-0.253c-0.305-0.102-0.491-0.237-0.559-0.405
			c-0.067,0-0.16-0.051-0.278-0.152c-0.119-0.102-0.229-0.17-0.33-0.203c-0.068-0.203-0.254-0.397-0.558-0.584
			c-0.305-0.186-0.491-0.313-0.559-0.38c0-0.135-0.067-0.236-0.202-0.304c0-0.068-0.009-0.145-0.025-0.229
			c-0.018-0.084-0.025-0.145-0.025-0.178c-0.136-0.102-0.305-0.287-0.508-0.559c-0.034-0.066-0.034-0.135,0-0.203v-0.051
			c-0.236-0.304-0.354-0.574-0.354-0.811v-0.102c-0.102-0.169-0.187-0.49-0.254-0.964c-0.068-0.474-0.17-0.794-0.305-0.964v-0.102
			c0-0.067-0.034-0.186-0.102-0.355c-0.067-0.168-0.101-0.287-0.101-0.354l0.05-0.203c-0.135-0.235-0.202-0.507-0.202-0.812
			c0-0.203-0.009-0.439-0.025-0.71c-0.018-0.271-0.043-0.575-0.076-0.913c-0.034-0.338-0.051-0.609-0.051-0.812v-1.218
			c0-0.135,0.017-0.33,0.051-0.583c0.033-0.253,0.051-0.431,0.051-0.532c0-0.068-0.009-0.186-0.025-0.355
			c-0.018-0.169-0.025-0.305-0.025-0.406c0-0.168,0.017-0.304,0.051-0.405c-0.034-0.033-0.034-0.051,0-0.051l0.102-0.051
			c-0.17-1.116-0.254-1.894-0.254-2.333c0-0.102,0.033-0.287,0.102-0.559h-0.051c-0.068,0-0.102-0.016-0.102-0.051
			c0-0.202,0.008-0.532,0.025-0.988c0.017-0.457,0.025-0.803,0.025-1.04c0-0.033-0.009-0.102-0.025-0.203
			c-0.018-0.101-0.025-0.186-0.025-0.253c0-0.135,0.051-0.254,0.152-0.355l-0.051-0.051c-0.068,0-0.085-0.033-0.051-0.102
			c0.102-0.812,0.152-1.605,0.152-2.384c0.033-0.034,0.084-0.076,0.152-0.127c0.067-0.051,0.118-0.093,0.151-0.127
			c-0.033-0.067-0.067-0.084-0.101-0.051c-0.034,0.034-0.068,0.034-0.102,0c0-0.202,0.051-0.431,0.151-0.685
			c0.102-0.254,0.169-0.432,0.203-0.533c0.033,0,0.076-0.033,0.127-0.102c0.051-0.066,0.109-0.101,0.178-0.101
			c0.067-0.135,0.236-0.296,0.507-0.481s0.439-0.348,0.508-0.482c0.033,0,0.27-0.051,0.71-0.152c0.203,0,0.338-0.084,0.405-0.254
			c0.033,0.035,0.084,0.051,0.152,0.051c0.067,0,0.178-0.033,0.33-0.102c0.152-0.066,0.245-0.102,0.279-0.102
			c0.101-0.033,0.253-0.051,0.456-0.051s0.406,0.035,0.608,0.102c0.067,0,0.16-0.016,0.279-0.051
			c0.118-0.033,0.229-0.059,0.33-0.076c0.101-0.016,0.202-0.025,0.304-0.025c0.033,0,0.084,0.018,0.152,0.051h0.102
			c0.067,0,0.169-0.016,0.305-0.051c0.135-0.033,0.253-0.05,0.354-0.05l0.203,0.05c0.135,0,0.313-0.016,0.532-0.05
			s0.381-0.051,0.482-0.051h0.152L77.95,43.806z"/>
		<path fill="#231F20" d="M97.479,44.059c0.102,0,0.558,0.051,1.369,0.152c0.033,0,0.109,0.009,0.229,0.025
			c0.118,0.018,0.211,0.025,0.279,0.025l0.051,0.051h0.05c0.236,0,0.372,0.034,0.406,0.102c1.318,0.034,2.553,0.203,3.703,0.508
			c0,0.033,0.033,0.084,0.102,0.152l0.101,0.151h0.305c0.135,0.136,0.203,0.237,0.203,0.305c0.102,0,0.203,0.042,0.305,0.126
			c0.101,0.086,0.185,0.127,0.253,0.127c0,0.068,0.033,0.152,0.102,0.254c0.067,0.102,0.102,0.187,0.102,0.254l-0.355,0.355
			c-0.067,0.068-0.271,0.321-0.608,0.76c-0.507,0.271-0.862,0.44-1.065,0.508h-0.151c-0.339,0-0.627,0.085-0.862,0.254
			c-0.339,0-0.981,0.068-1.928,0.203c-0.034,0.033-0.094,0.068-0.178,0.102c-0.085,0.033-0.145,0.067-0.178,0.101
			c0.102,0.608,0.152,0.931,0.152,0.964c0,0.237-0.051,0.389-0.152,0.457c0,0.068,0.017,0.152,0.051,0.254
			c0.033,0.101,0.051,0.169,0.051,0.202c0,0.034-0.025,0.11-0.076,0.229s-0.076,0.228-0.076,0.329c0,0.136,0.051,0.406,0.152,0.813
			c0,0.033-0.018,0.067-0.051,0.102v0.101c0,0.068,0.017,0.178,0.051,0.33c0.033,0.151,0.051,0.263,0.051,0.329
			c0,0.035-0.025,0.102-0.076,0.203s-0.076,0.17-0.076,0.203c0,0.034,0.008,0.094,0.025,0.178c0.017,0.084,0.025,0.16,0.025,0.229
			c0,0.169-0.068,0.423-0.203,0.76l0.152,0.305c-0.034,0.102-0.06,0.322-0.076,0.66c-0.018,0.338-0.076,0.574-0.178,0.709v0.355
			c0,0.17-0.008,0.381-0.024,0.635c-0.018,0.253-0.025,0.448-0.025,0.583c0,0.237,0.017,0.423,0.05,0.558
			c0,0.034,0.051,0.102,0.152,0.203c0.033,0.068,0.033,0.119,0,0.152l-0.051,0.152c0.102,0.17,0.152,0.338,0.152,0.507
			c0,0.271-0.051,0.507-0.152,0.71c0.033,0.203,0.033,0.338,0,0.406c0.067,0.033,0.102,0.17,0.102,0.405c0,0.034,0,0.085,0,0.152
			l0.051,0.102c0,0.067-0.034,0.169-0.102,0.304l0.051,0.102c0,0.068,0,0.119,0,0.152c0,0.068-0.018,0.145-0.051,0.229
			c-0.034,0.085-0.051,0.145-0.051,0.178c0.033,0.068,0.084,0.127,0.152,0.178c0.067,0.051,0.102,0.094,0.102,0.127
			c-0.034,0.102-0.034,0.236,0,0.405c0.033,0.169,0.033,0.288,0,0.354c-0.034,0.068-0.085,0.152-0.152,0.254
			c-0.068,0.102-0.102,0.17-0.102,0.203c0,0.034,0.017,0.076,0.051,0.127c0.033,0.051,0.051,0.094,0.051,0.127v0.254
			c0,0.236-0.051,0.49-0.152,0.76c0.135,0.271,0.203,0.525,0.203,0.762l-0.051,0.203c0.033,0.033,0.051,0.271,0.051,0.709
			c0,0.102,0.033,0.238,0.102,0.406c0.067,0.17,0.102,0.305,0.102,0.406c0,0.135-0.051,0.254-0.152,0.355
			c-0.034,0.033-0.11,0.075-0.229,0.126s-0.194,0.127-0.228,0.229c-0.034,0-0.127,0.025-0.279,0.076
			c-0.152,0.05-0.279,0.075-0.381,0.075c-0.067,0.068-0.524,0.289-1.369,0.66l-1.015,0.152c-0.034,0-0.076,0.008-0.127,0.025
			s-0.093,0.025-0.126,0.025c-0.068,0-0.195-0.018-0.381-0.051c-0.187-0.033-0.33-0.051-0.432-0.051l-0.202,0.051
			c-0.406-0.102-0.644-0.152-0.71-0.152h-0.102c-0.203-0.203-0.373-0.338-0.508-0.406c-0.034-0.033-0.127-0.152-0.278-0.354
			c-0.152-0.203-0.297-0.338-0.432-0.405c0-0.102-0.034-0.186-0.102-0.254c-0.541-0.541-0.812-1.049-0.812-1.521
			c0-0.17-0.018-0.271-0.051-0.305c-0.034-0.033-0.034-0.068,0-0.102l0.051-0.051c-0.102-0.102-0.152-0.236-0.152-0.406v-0.558
			c0-0.033,0.017-0.067,0.051-0.102c0.033-0.033,0.051-0.067,0.051-0.102c0-0.033-0.025-0.084-0.076-0.151
			c-0.051-0.068-0.076-0.119-0.076-0.152c0.067-1.793,0.135-2.841,0.203-3.146c0-0.067,0.033-0.118,0.102-0.151
			c0-0.033,0.008-0.051,0.025-0.051c0.017,0,0.025-0.018,0.025-0.051c-0.102-0.068-0.085-0.17,0.051-0.305h-0.102
			c-0.068,0-0.102-0.017-0.102-0.051l0.051-1.015c0-0.033,0.025-0.067,0.076-0.102c0.051-0.033,0.076-0.067,0.076-0.101
			s-0.018-0.068-0.051-0.102c-0.034-0.033-0.051-0.068-0.051-0.102s0.008-0.279,0.025-0.736c0.017-0.456,0.059-0.769,0.127-0.938
			c0-0.033-0.018-0.068-0.051-0.102v-0.102c0.033-0.305,0.051-0.777,0.051-1.42v-2.588c0-0.102,0.025-0.244,0.076-0.431
			c0.051-0.186,0.076-0.329,0.076-0.431c0.033-0.068,0.067-0.211,0.102-0.432c0.033-0.22,0.101-0.346,0.202-0.381
			c-0.068-0.27-0.102-0.438-0.102-0.507c0-0.067,0.042-0.22,0.127-0.456c0.084-0.236,0.144-0.406,0.178-0.508
			c0.033-0.102,0.059-0.236,0.076-0.406c0.017-0.168,0.042-0.304,0.076-0.405c0.203-0.405,0.305-0.642,0.305-0.71
			c-0.17-0.102-0.5-0.186-0.989-0.254c-0.491-0.067-0.82-0.168-0.989-0.305h-0.152c-0.203,0-0.339-0.033-0.406-0.102
			c-0.338,0-0.507-0.066-0.507-0.202h-0.305c-0.101-0.067-0.321-0.169-0.659-0.305c-0.338-0.134-0.575-0.253-0.71-0.354v-0.102
			c0-0.102,0.017-0.22,0.051-0.355c0.033-0.135,0.051-0.219,0.051-0.254l0.913-0.709c0.067,0,0.169-0.043,0.304-0.127
			s0.271-0.127,0.406-0.127c0.033,0,0.059,0.018,0.076,0.051c0.017,0.033,0.059,0.051,0.127,0.051
			c0.777-0.17,1.233-0.254,1.369-0.254h0.152c0.338-0.236,0.777-0.355,1.318-0.355c0.102-0.067,0.271-0.102,0.508-0.102h0.354
			l0.66-0.152c0.067,0,0.135,0.01,0.202,0.025c0.067,0.018,0.135,0.025,0.203,0.025c0.033,0,0.084-0.008,0.152-0.025
			c0.067-0.016,0.118-0.025,0.152-0.025h0.405c0.372,0,0.66,0.018,0.862,0.051C97.073,44.076,97.242,44.059,97.479,44.059z"/>
	</g>
	<g>
		<path fill="#231F20" d="M20.823,14.439l0.127,0.021c0.049,0.023,0.09,0.031,0.131,0.023c0.084,0.016,0.244-0.004,0.479-0.059
			l0.209,0.107c0.006,0.033,0.029,0.045,0.068,0.033c0.086,0.018,0.201,0.068,0.344,0.156s0.279,0.152,0.41,0.189
			c0.229,0.088,0.361,0.141,0.41,0.164c0.057,0.09,0.143,0.199,0.258,0.328c0.107,0.129,0.172,0.229,0.189,0.293l0.045,0.195
			l0.09,0.393l0.035,0.146c0.006,0.033,0.027,0.08,0.061,0.141c0.035,0.063,0.043,0.127,0.02,0.203
			c0.029,0.131,0.029,0.232,0.008,0.309c0.021,0.098,0.014,0.244-0.021,0.445c-0.035,0.197-0.049,0.326-0.031,0.393l-0.047,0.063
			L23.546,18c0.016,0.063-0.002,0.172-0.049,0.318l0.025,0.1c-0.025,0.074-0.051,0.184-0.08,0.328
			c-0.029,0.143-0.039,0.23-0.031,0.264l-0.057,0.014c0.035,0.164,0.02,0.271-0.051,0.322c0,0.174-0.051,0.416-0.137,0.729
			c-0.094,0.313-0.15,0.525-0.164,0.633c-0.068,0.049-0.113,0.137-0.125,0.26c-0.01,0.123-0.035,0.207-0.064,0.248
			c0.035-0.01,0.047,0.023,0.023,0.1c-0.033,0.039-0.096,0.211-0.189,0.508l0.008,0.049l-0.045,0.063
			c-0.033,0.215-0.074,0.396-0.119,0.543l-0.107,0.076c-0.156,0.209-0.314,0.332-0.469,0.367l-0.34,0.129l-0.383-0.068
			c0.063-0.082,0.082-0.174,0.059-0.268l-0.055-0.25c0.061-0.082,0.088-0.156,0.07-0.221l-0.023-0.098
			c0.066-0.086,0.086-0.158,0.074-0.223c0.086-0.158,0.113-0.318,0.072-0.482l-0.012-0.049l-0.021-0.1l0.035-0.111
			c-0.008-0.033-0.016-0.066-0.021-0.098l0.047-0.063c-0.033-0.131-0.02-0.254,0.039-0.369l0.033-0.113
			c-0.016-0.063-0.029-0.113-0.033-0.146c-0.006-0.033,0-0.086,0.025-0.16c0.023-0.076,0.027-0.146,0.012-0.209
			c-0.021-0.098-0.023-0.188,0-0.258c-0.008-0.035,0.004-0.088,0.029-0.162c0.031-0.213,0.068-0.326,0.105-0.336
			c-0.121-0.176-0.123-0.352,0.006-0.518l-0.063,0.014c0.01-0.139-0.012-0.324-0.064-0.555l0.047-0.061l-0.074-0.344
			c0.027-0.041,0.037-0.078,0.029-0.111l-0.078-0.342l0.047-0.064l-0.01-0.049c-0.023-0.098-0.016-0.168,0.014-0.209
			c-0.156-0.311-0.248-0.529-0.277-0.66c-0.092-0.047-0.156-0.154-0.193-0.316c-0.008-0.033-0.031-0.043-0.07-0.037l-0.08-0.084
			l-0.057-0.244c-0.127-0.006-0.199-0.076-0.23-0.205c-0.08,0.016-0.17-0.029-0.279-0.145c-0.119,0.027-0.178,0.025-0.184-0.008
			c-0.096-0.047-0.156-0.139-0.188-0.27c-0.006-0.375,0.221-0.547,0.68-0.516C20.634,14.502,20.708,14.467,20.823,14.439z"/>
	</g>
	<g>
		<path fill="#4A2F8D" d="M98.911,75.799c1.223,3.846,7.197,5.891,10.869,4.01c2.82-1.445,4.334-6.35,3.25-9.301
			c-1.314-3.572-6.967-5.182-11.006-3.164C99.804,68.59,97.933,72.729,98.911,75.799z"/>
		<path fill="#231F20" d="M106.606,81.267L106.606,81.267c-3.27,0-7.328-1.837-8.41-5.24c-1.107-3.475,0.988-7.949,3.461-9.337
			c1.29-0.646,2.752-0.978,4.259-0.978c3.62,0,6.835,1.866,7.818,4.537c1.142,3.107-0.331,8.545-3.612,10.227
			C109.112,80.993,107.896,81.267,106.606,81.267z M105.916,67.212c-1.275,0-2.506,0.277-3.557,0.803
			c-1.904,1.07-3.595,4.854-2.733,7.557c0.835,2.626,4.205,4.195,6.98,4.195c1.053,0,2.032-0.216,2.832-0.626
			c2.346-1.201,3.884-5.663,2.888-8.374C111.557,68.674,108.92,67.212,105.916,67.212z"/>
	</g>
	<g>
		<path fill="#4A2F8D" d="M89.081,82.209c1.223,3.848,7.197,5.891,10.869,4.012c2.82-1.445,4.334-6.35,3.25-9.303
			c-1.314-3.57-6.967-5.182-11.006-3.162C89.972,75.002,88.103,79.141,89.081,82.209z"/>
		<path fill="#231F20" d="M96.777,87.678L96.777,87.678c-3.271,0-7.329-1.837-8.411-5.241c-1.107-3.475,0.987-7.948,3.461-9.335
			c1.29-0.646,2.752-0.979,4.259-0.979c3.62,0,6.835,1.865,7.818,4.536c1.141,3.108-0.331,8.548-3.612,10.229
			C99.282,87.405,98.066,87.678,96.777,87.678z M96.086,73.623c-1.275,0-2.505,0.278-3.557,0.804
			c-1.905,1.069-3.596,4.852-2.733,7.555c0.835,2.627,4.205,4.196,6.981,4.196l0,0c1.053,0,2.032-0.216,2.831-0.625
			c2.345-1.201,3.884-5.664,2.888-8.376C101.726,75.085,99.09,73.623,96.086,73.623z"/>
	</g>
	<g>
		<path fill="#4A2F8D" d="M106.218,63.748c1.223,3.846,7.197,5.891,10.869,4.01c2.82-1.445,4.334-6.35,3.25-9.301
			c-1.314-3.572-6.967-5.182-11.006-3.164C107.108,56.539,105.239,60.678,106.218,63.748z"/>
		<path fill="#231F20" d="M113.913,69.216L113.913,69.216c-3.27,0-7.328-1.837-8.41-5.24c-1.107-3.476,0.988-7.95,3.461-9.337
			c1.29-0.646,2.752-0.978,4.259-0.978c3.62,0,6.835,1.866,7.818,4.537c1.142,3.107-0.331,8.545-3.612,10.227
			C116.419,68.942,115.203,69.216,113.913,69.216z M113.223,55.161c-1.275,0-2.506,0.277-3.557,0.803
			c-1.905,1.069-3.596,4.853-2.733,7.557c0.835,2.626,4.205,4.195,6.98,4.195c1.053,0,2.032-0.216,2.832-0.626
			c2.346-1.201,3.884-5.663,2.888-8.374C118.863,56.623,116.227,55.161,113.223,55.161z"/>
	</g>
	<g>
		<path fill="#4A2F8D" d="M111.649,74.799c1.223,3.848,7.197,5.891,10.869,4.012c2.82-1.445,4.334-6.35,3.25-9.303
			c-1.314-3.57-6.967-5.182-11.006-3.162C112.54,67.592,110.671,71.73,111.649,74.799z"/>
		<path fill="#231F20" d="M119.346,80.268L119.346,80.268c-3.271,0-7.329-1.837-8.411-5.241c-1.107-3.475,0.987-7.948,3.461-9.335
			c1.29-0.646,2.752-0.979,4.259-0.979c3.62,0,6.835,1.865,7.818,4.536c1.141,3.108-0.331,8.548-3.612,10.229
			C121.851,79.995,120.635,80.268,119.346,80.268z M118.654,66.213c-1.275,0-2.505,0.278-3.557,0.804
			c-1.905,1.069-3.596,4.852-2.733,7.555c0.835,2.627,4.205,4.196,6.981,4.196l0,0c1.053,0,2.032-0.216,2.831-0.625
			c2.345-1.201,3.884-5.664,2.888-8.376C124.294,67.675,121.658,66.213,118.654,66.213z"/>
	</g>
	<g>
		<path fill="#4A2F8D" d="M77.358,88.5c1.223,3.846,7.197,5.889,10.869,4.01c2.82-1.445,4.334-6.35,3.25-9.301
			c-1.314-3.572-6.967-5.182-11.006-3.164C78.249,81.291,76.38,85.43,77.358,88.5z"/>
		<path fill="#231F20" d="M85.055,93.967C85.055,93.967,85.055,93.967,85.055,93.967c-3.271,0-7.329-1.837-8.411-5.239
			c-1.107-3.476,0.988-7.95,3.461-9.337c1.29-0.646,2.751-0.978,4.259-0.978c3.62,0,6.835,1.866,7.818,4.537
			c1.142,3.107-0.331,8.546-3.612,10.227C87.56,93.694,86.344,93.967,85.055,93.967z M84.363,79.913
			c-1.275,0-2.506,0.277-3.557,0.803c-1.905,1.069-3.596,4.853-2.733,7.557c0.835,2.626,4.205,4.194,6.98,4.194
			c0.001,0,0.001,0,0.001,0c1.053,0,2.032-0.216,2.831-0.625c2.346-1.201,3.884-5.663,2.888-8.374
			C90.004,81.375,87.367,79.913,84.363,79.913z"/>
	</g>
	<g>
		<g>
			<path fill="#F6921E" d="M126.218,73.186c0,0-38.533,22.5-43.723,14.879c0.611,2.619,1.174,6.002,3.363,7.67
				c4.424,5.516,35.906,1.08,41.809-13.125C128.198,77.17,126.218,73.186,126.218,73.186z"/>
			<path fill="#231F20" d="M94.684,98.781C94.683,98.781,94.684,98.781,94.684,98.781c-2.713,0-7.506-0.328-9.351-2.505
				c-2.135-1.682-2.829-4.767-3.388-7.251l-0.181-0.79c-0.082-0.353,0.099-0.713,0.429-0.857c0.331-0.145,0.718-0.034,0.922,0.265
				c0.563,0.828,1.746,1.248,3.515,1.248c11.075-0.001,38.93-16.189,39.21-16.353c0.179-0.105,0.394-0.129,0.593-0.071
				c0.199,0.06,0.364,0.199,0.457,0.385c0.085,0.171,2.069,4.241,1.523,9.831c-0.007,0.073-0.025,0.146-0.054,0.215
				C123.857,93.732,105.604,98.781,94.684,98.781z M83.686,89.9c0.494,2.047,1.161,4.121,2.627,5.237
				c0.049,0.037,0.093,0.08,0.131,0.127c1.013,1.263,4.093,2.017,8.239,2.017c10.894,0,28.114-5.163,32.248-14.856
				c0.345-3.767-0.57-6.818-1.076-8.163c-4.628,2.653-28.65,16.128-39.225,16.129C85.469,90.391,84.485,90.227,83.686,89.9z"/>
		</g>
		<g>
			<path fill="#FAAF40" d="M105.327,76.094c-11.02,2.824-23.395,7.1-22.832,11.971c1.016,8.711,34.174-0.682,42.438-10.514
				C133.032,66.475,106.624,75.102,105.327,76.094z"/>
			<path fill="#231F20" d="M89.587,92.262C89.587,92.262,89.587,92.262,89.587,92.262c-6.081,0-7.618-2.235-7.837-4.11
				c-0.511-4.428,7.105-8.601,23.286-12.757c1.66-0.923,11.643-4.186,17.376-4.186c2.459,0,3.946,0.575,4.547,1.759
				c0.622,1.224,0.157,2.868-1.421,5.025C119.348,85.361,100.05,92.262,89.587,92.262z M122.412,72.709
				c-5.728,0-15.775,3.406-16.638,3.986l-0.261,0.125C90.97,80.548,82.852,84.614,83.24,87.979c0.269,2.3,3.599,2.783,6.346,2.783
				c10.158,0,28.845-6.64,34.772-13.693c1.536-2.104,1.452-3.049,1.264-3.422C125.314,73.042,124.175,72.709,122.412,72.709z"/>
		</g>
		<g>
			<path fill="#F6921E" d="M109.06,77.475c0,0,14.803-5.385,15.838-4.283c1.027,1.1-4.648,8.16-8.488,7.998
				C112.567,81.027,107.706,77.955,109.06,77.475z"/>
			<path fill="#F6921E" d="M97.054,79.924c0,0-14.383,4.107-13.129,6.396c1.252,2.295,11.414,3.512,12.619,1.047
				S98.466,79.504,97.054,79.924z"/>
			<path fill="#F6921E" d="M102.554,78.471c0,0,11.021,2.098,9.43,3.842c-1.592,1.746-9.965,4.902-11.197,3.551
				C99.552,84.51,101.077,78.164,102.554,78.471z"/>
		</g>
		<g>
			<path fill="#FAAF40" d="M89.829,83.586c-0.174,1.006-2.422,2.803-3.127,1.77C86.69,84.549,89.067,83.576,89.829,83.586z"/>
			<path fill="#FAAF40" d="M93.128,83.998c-0.836,0.455-4.711,1.473-3.982,2.627C90.005,88,93.128,83.998,93.128,83.998z"/>
			<path fill="#FAAF40" d="M92.462,87.01c1.785-1.021,2.646-2.531,2.947-4.047C95.409,82.963,90.269,86.488,92.462,87.01z"/>
		</g>
		<g>
			<path fill="#FAAF40" d="M118.747,74.572c0.746,0.697,3.625,0.77,3.559-0.48C121.827,73.438,119.347,74.104,118.747,74.572z"/>
			<path fill="#FAAF40" d="M116.368,76.902c0.939-0.146,4.646-1.682,4.762-0.32C121.276,78.189,116.368,76.902,116.368,76.902z"/>
			<path fill="#FAAF40" d="M118.724,78.895c-2.037,0.268-3.637-0.416-4.797-1.439C113.927,77.455,120.151,77.15,118.724,78.895z"/>
		</g>
		<g>
			<path fill="#FAAF40" d="M107.464,80.793c0.127,1.008,2.285,2.914,3.037,1.91C110.556,81.898,108.224,80.816,107.464,80.793z"/>
			<path fill="#FAAF40" d="M103.433,81.227c0.189,0.691,0.275,4.064,1.252,3.24C105.839,83.498,103.433,81.227,103.433,81.227z"/>
			<path fill="#FAAF40" d="M107.397,83.975c-1.375-0.807-1.881-2.121-1.912-3.48C105.485,80.494,109.362,83.338,107.397,83.975z"/>
		</g>
	</g>
	<g>
		<g>
			<path fill="#BE1E2D" d="M44.302,94.648c3.184,2.479,9.268,0.783,11.23-2.844c1.508-2.789-0.02-7.688-2.584-9.51
				c-3.105-2.199-8.678-0.328-10.865,3.621C40.956,88.201,41.757,92.672,44.302,94.648z"/>
			<path fill="#231F20" d="M48.089,96.569C48.089,96.569,48.089,96.569,48.089,96.569c-1.662,0-3.131-0.46-4.248-1.329
				c-2.88-2.237-3.686-7.112-2.431-9.656c1.629-2.941,5.054-4.974,8.347-4.974c1.38,0,2.634,0.37,3.625,1.072
				c2.699,1.919,4.563,7.236,2.811,10.479C54.787,94.757,51.455,96.569,48.089,96.569z M49.757,82.11
				c-2.729,0-5.68,1.753-7.018,4.169c-0.966,1.961-0.219,6.036,2.022,7.776c0.852,0.663,2.002,1.014,3.326,1.014
				c2.796,0,5.649-1.523,6.785-3.622c1.253-2.317-0.004-6.867-2.359-8.541C51.778,82.386,50.824,82.11,49.757,82.11z"/>
		</g>
		<path fill="#231F20" d="M42.534,87.273c0.049-0.172,4.236,0.48,4.842-0.137c1.064-1.084-0.436-3.205,1.186-4.148
			c1.252,1.471-0.424,2.85,0.355,4.104c0.615,0.99,2.643,0.48,3.207,1.777c-1.201,0.395-1.715-0.248-2.744-0.441
			c-1.625-0.303-1.564,0.645-1.807,1.877c-0.168,0.859-0.488,3.047-1.588,1.803c-0.836-0.941,0.514-2.023,0.238-3.031
			C46.224,89.076,42.866,88.162,42.534,87.273z"/>
	</g>
	<g>
		<g>
			<path fill="#BE1E2D" d="M52.423,97.973c1.449,4.563,8.535,6.988,12.891,4.758c3.346-1.715,5.141-7.531,3.855-11.033
				c-1.559-4.236-8.264-6.145-13.055-3.752C53.478,89.424,51.261,94.332,52.423,97.973z"/>
			<path fill="#231F20" d="M61.55,104.32c-3.829,0-8.579-2.146-9.842-6.121c-1.296-4.061,1.149-9.288,4.039-10.908
				c1.505-0.752,3.217-1.141,4.983-1.141c4.237,0,7.997,2.174,9.143,5.288c1.334,3.636-0.385,9.995-4.218,11.959
				C64.478,104.001,63.058,104.32,61.55,104.32z M60.73,87.65c-1.535,0-3.016,0.334-4.281,0.966
				c-2.31,1.296-4.354,5.865-3.312,9.128c1.009,3.178,5.069,5.076,8.412,5.076c1.271,0,2.454-0.262,3.422-0.758
				c2.89-1.48,4.718-6.771,3.493-10.106C67.532,89.421,64.352,87.65,60.73,87.65z"/>
		</g>
		<path fill="#231F20" d="M55.644,89.576c0.162-0.137,3.82,3.313,4.826,3.117c1.77-0.346,1.727-3.43,3.945-3.262
			c0.236,2.279-2.326,2.502-2.406,4.25c-0.063,1.383,2.26,2.244,1.943,3.891c-1.441-0.42-1.512-1.393-2.389-2.273
			c-1.385-1.387-1.963-0.418-3.025,0.623c-0.742,0.727-2.523,2.652-2.764,0.699c-0.186-1.484,1.859-1.635,2.268-2.805
			C58.042,93.816,55.37,90.668,55.644,89.576z"/>
	</g>
</g>
</svg>
