<?xml version="1.0" encoding="utf-8"?>
<!-- Generator: Adobe Illustrator 16.0.0, SVG Export Plug-In . SVG Version: 6.00 Build 0)  -->
<!DOCTYPE svg PUBLIC "-//W3C//DTD SVG 1.1//EN" "http://www.w3.org/Graphics/SVG/1.1/DTD/svg11.dtd">
<svg version="1.1" id="Layer_1" xmlns="http://www.w3.org/2000/svg" xmlns:xlink="http://www.w3.org/1999/xlink" x="0px" y="0px"
	 width="118.352px" height="96.73px" viewBox="0 0 118.352 96.73" enable-background="new 0 0 118.352 96.73" xml:space="preserve">
<path fill="#998282" d="M117.408,72.071l-0.372-0.396c-0.008-0.698-0.059-1.54-0.218-2.313c-0.602-2.884-2.34-4.941-2.858-5.505
	c-0.021-0.022-10.705-11.221-14.077-14.754c0.237-0.256,0.46-0.525,0.662-0.814c0.477-0.486,0.881-1.042,1.2-1.656
	c0.307-0.509,0.544-1.05,0.71-1.609c0.404-0.667,0.7-1.399,0.86-2.168c0.049-0.234,0.085-0.464,0.108-0.686
	c0.003-0.015,0.008-0.026,0.011-0.04c0.056-0.184,0.104-0.368,0.146-0.557c0.128-0.592,0.178-1.188,0.153-1.774
	c0.178-0.76,0.23-1.556,0.145-2.357c0.053-0.44,0.092-1.018,0.054-1.679c-0.018-0.303-0.055-0.604-0.109-0.901
	c0.088-0.937-0.014-1.882-0.3-2.777c-0.027-0.124-0.059-0.247-0.091-0.369c-0.174-0.87-0.485-1.683-0.936-2.43
	c-0.274-0.601-0.633-1.186-1.074-1.755c-0.358-0.65-0.771-1.161-1.146-1.548c-0.493-0.65-1.021-1.189-1.51-1.63
	c-0.406-0.466-0.877-0.881-1.403-1.229c-0.307-0.24-0.814-0.607-1.482-0.937c-0.168-0.082-0.338-0.157-0.512-0.226
	c-0.519-0.412-1.09-0.747-1.696-0.996c-0.359-0.187-0.739-0.341-1.138-0.463c-0.167-0.066-0.313-0.15-0.464-0.227
	c-0.635-0.319-1.595-0.804-2.869-1.153c-0.541-0.236-1.118-0.407-1.724-0.502l-0.165-0.038c-0.356-0.086-0.879-0.21-1.518-0.28
	c-0.002,0-0.005-0.001-0.007-0.002c-0.353-0.083-0.704-0.146-1.077-0.204l-0.086-0.02c-0.465-0.105-0.94-0.165-1.421-0.177
	c-0.176-0.02-0.365-0.034-0.579-0.047c-0.133-0.008-0.265-0.012-0.396-0.012c-0.202,0-0.404,0.009-0.606,0.026
	c-0.205-0.02-0.411-0.027-0.617-0.027c-0.302,0-0.604,0.02-0.903,0.059c-0.313,0.041-0.6,0.098-0.858,0.16
	c-0.188,0.012-0.377,0.035-0.563,0.063c-1.388-1.003-2.598-1.322-3.277-1.496l-0.073-0.02c-0.498-0.137-1.063-0.292-1.766-0.365
	l-0.19-0.021c-0.247-0.025-0.478-0.042-0.718-0.055c-0.358-0.099-0.726-0.168-1.097-0.208c-0.086-0.01-0.174-0.018-0.263-0.022
	c-0.49-0.089-0.906-0.131-1.211-0.161l-0.071-0.004c-0.19-0.029-0.384-0.053-0.575-0.066c-0.073-0.007-0.146-0.011-0.22-0.015
	c-0.253-0.043-0.529-0.077-0.834-0.098c-0.278-0.016-0.555-0.021-0.829-0.021l-0.329,0.006l-0.246-0.021
	c-0.386-0.034-0.816-0.068-1.225-0.082c-0.056-0.001-0.108-0.021-0.162-0.021c-0.562-0.078-0.997-0.097-1.235-0.097H64.26
	l-0.112,0.006c-0.213-0.022-0.429-0.027-0.643-0.03l-0.317,0.002c-0.355,0-0.727,0.012-1.107,0.048
	c-0.135-0.008-0.269-0.024-0.403-0.024c-0.015,0-0.027,0-0.043,0c-0.365,0-0.691,0-0.967,0c-0.039,0-0.236,0-0.291,0
	c-0.478,0-0.9,0.103-1.252,0.154c-0.127-0.004-0.252,0.016-0.375,0.016c-0.147,0-0.293,0.015-0.395,0.02
	c-0.391,0.016-1.171,0.054-2.121,0.316c-0.677,0.093-1.345,0.286-1.979,0.576c-0.188,0.05-0.383,0.107-0.584,0.176
	c-0.41,0.138-0.796,0.148-1.168,0.355c-1.091-0.363-2.041-0.613-2.918-0.613h-0.038c-0.188,0-0.37,0.164-0.532,0.164
	c-0.097,0-0.18,0.092-0.271,0.096c-0.68-1.404-1.752-2.533-3.064-3.275l-1.015-2.865c0.378-1.457,0.315-2.984-0.196-4.434
	c-0.635-1.785-1.905-3.255-3.613-4.169c-1.088-0.574-2.306-0.876-3.521-0.876c-0.854,0-1.694,0.146-2.477,0.424
	c-2.568,0.9-3.478,1.299-4.027,1.566C30.712,3.043,30.6,3.103,30.49,3.164c-0.864,0.48-1.613,1.114-2.216,1.86
	C28.221,5,28.169,4.972,28.116,4.948c-1.07-0.486-2.193-0.733-3.338-0.733c-0.876,0-1.738,0.146-2.584,0.441
	c-0.981,0.345-1.862,0.877-2.623,1.552c-0.136-0.007-0.271-0.021-0.408-0.021c-0.886,0-1.758,0.149-2.59,0.443
	c-1.837,0.647-3.333,1.936-4.305,3.644c-0.097-0.019-0.19-0.044-0.287-0.059c-0.378-0.063-0.858-0.103-1.242-0.103
	c-1.544,0-3.033,0.468-4.305,1.354c-0.198,0.138-0.391,0.286-0.572,0.444c-0.544,0.469-1.012,1.002-1.397,1.587
	C3.645,14.594,3.133,15.909,3,17.328c-0.431,4.534-0.601,8.621-0.508,12.168c-0.178,1.218-0.059,2.472,0.351,3.622
	c0.181,0.516,0.414,1.001,0.69,1.457c-0.896,0.933-1.586,1.923-2.007,2.975c-0.352,0.873-0.517,1.795-0.502,2.71
	c-0.02,0.246-0.026,0.512-0.02,0.794c0.017,0.67,0.127,1.458,0.434,2.297c0.108,0.644,0.309,1.271,0.597,1.868
	c0.027,0.059,0.057,0.115,0.085,0.171c0.347,1.021,0.934,1.97,1.738,2.757c0.01,0.01,0.019,0.019,0.026,0.026
	c0.045,0.056,0.09,0.11,0.136,0.164c0.038,0.064,0.077,0.128,0.113,0.188c0.369,0.674,0.773,1.172,1.063,1.494
	c0.039,0.059,0.078,0.116,0.116,0.174c0.315,0.471,0.709,1.055,1.238,1.684c0.18,0.212,0.369,0.412,0.57,0.6
	C7.18,52.54,7.24,52.602,7.3,52.663c0.188,0.188,0.389,0.364,0.598,0.53l0.913,0.936c0.178,0.183,0.353,0.35,0.521,0.501
	c0.117,0.146,0.243,0.29,0.378,0.434c0.53,0.559,1.079,0.961,1.543,1.247c0.03,0.026,0.062,0.054,0.091,0.078
	c0.23,0.302,0.484,0.585,0.763,0.852c0.02,0.021,0.184,0.2,0.203,0.223c0.254,0.276,0.509,0.521,0.756,0.743
	c0.1,0.116,0.203,0.229,0.309,0.34c0.23,0.313,0.484,0.625,0.761,0.936c0.188,0.209,0.376,0.402,0.56,0.578
	c0.257,0.337,0.497,0.613,0.688,0.835c0.26,0.297,0.539,0.569,0.84,0.815c0.229,0.253,0.473,0.488,0.729,0.705
	c0.147,0.165,0.301,0.33,0.452,0.49l0.161,0.171c0.368,0.436,0.782,0.818,1.23,1.146c0.373,0.363,0.736,0.64,1.033,0.838
	c0.056,0.038,0.112,0.074,0.17,0.11c0.29,0.221,0.723,0.521,1.269,0.792c0.291,0.145,0.591,0.269,0.896,0.371
	c0.563,0.247,1.158,0.418,1.769,0.51c0.328,0.05,0.749,0.081,1.09,0.084c0.169,0.013,0.339,0.021,0.509,0.021
	c0.2,0,0.4-0.01,0.599-0.026c1.341-0.036,2.672-0.456,3.822-1.262c0.238-0.166,0.478-0.33,0.718-0.493
	c0.63-0.427,1.186-0.953,1.645-1.557c0.199-0.153,0.391-0.317,0.573-0.492c0.007-0.008,0.014-0.014,0.021-0.02
	c0.779-0.688,1.396-1.543,1.804-2.5c0.019-0.043,0.036-0.085,0.055-0.128c0.182,0.021,0.363,0.032,0.548,0.037
	c0.243,0.023,0.461,0.031,0.647,0.031c1.314,0,2.626-0.391,3.746-1.082c0.196-0.081,0.39-0.17,0.576-0.269
	c0.078,0.573,0.166,1.181,0.274,1.863c0.162,1.005,0.313,1.865,0.456,2.595c-1.497,0.778-3.329,2.396-4.491,8.46
	c-0.475,0.348-0.952,0.766-1.394,1.268c-1.222,1.347-2.538,3.788-1.769,7.721c0.926,4.725,3.501,6.494,5.514,7.15l28.013,9.069
	c0.856,0.277,1.784,0.418,2.759,0.418c1.544,0,3.166-0.348,4.577-0.983l10.447-4.736c0.851,0.409,1.694,0.688,2.438,0.848
	c0.483,0.104,0.978,0.156,1.47,0.156c0.627,0,1.254-0.084,1.862-0.252l21.103-5.826c2.686-0.444,5.011-2.365,6.638-5.521
	c2.18-4.226,0.837-7.201-0.157-8.601C117.833,72.555,117.629,72.306,117.408,72.071z"/>
<g>
	<g>
		<g>
			<path fill="#FFFFFF" d="M48.878,71.054c-2.511,0-4.872-1.088-6.477-2.984c-0.059-0.067-0.289-0.362-0.293-0.368
				c-0.571-0.654-1.05-1.452-1.401-2.344c-0.102-0.26-0.188-0.525-0.259-0.796c-0.051-0.164-0.104-0.355-0.141-0.516
				c-0.068-0.294-0.151-0.674-0.245-1.143c-0.156-0.78-0.325-1.731-0.506-2.854c-0.172-1.079-0.305-2.017-0.402-2.829
				c-0.055-0.413-0.094-0.765-0.121-1.056c-0.041-0.354-0.061-0.697-0.059-1.037c-0.005-0.405,0.019-0.805,0.071-1.195
				c-0.496-2.345,0.062-4.785,1.585-6.914c0.156-0.218,0.324-0.427,0.504-0.625c0.007-0.008,0.014-0.016,0.021-0.022
				c1.413-1.701,3.491-2.688,5.701-2.701c0,0,0,0,0.001,0c1.877,0,3.604,0.649,4.978,1.845c0.046,0.038,0.389,0.329,0.425,0.362
				c0.885,0.784,1.585,1.696,2.08,2.708c0.46,0.961,0.731,1.951,0.813,2.943c1.651,0.7,3.031,2.003,3.832,3.647
				c0.78,1.582,0.98,3.436,0.549,5.186c-0.019,0.075-0.346,1.266-0.346,1.266c-0.068,0.268-0.165,0.604-0.295,1.008
				c-0.136,0.408-0.254,0.746-0.375,1.062c-0.014,0.032-0.293,0.731-0.293,0.731c-0.061,0.15-0.125,0.298-0.195,0.442
				c-2.261,4.677-5.944,5.832-7.938,6.104c-0.033,0.005-0.068,0.009-0.104,0.014C49.618,71.031,49.245,71.054,48.878,71.054z"/>
			<path fill="#FFFFFF" d="M53.572,69.878c-1.309,0-2.609-0.334-3.762-0.967c-1.85-0.983-3.29-2.54-4.096-4.464
				c-0.665-1.556-0.862-3.235-0.587-4.921c-1.252-2.424-1.342-5.197-0.247-7.859c0.989-2.483,2.526-3.992,3.97-4.901
				c0.654-0.554,1.375-1.003,2.142-1.338c0.997-0.435,2.058-0.655,3.153-0.655c0.447,0,0.899,0.038,1.346,0.112
				c1.939,0.317,3.696,1.386,4.923,3.008c0.07,0.092,0.138,0.186,0.204,0.279c0.093,0.034,0.186,0.069,0.277,0.106
				c1.842,0.787,3.239,2.156,4.025,3.894c0.798,1.814,0.885,3.768,0.275,5.569c-0.399,1.189-1.088,2.25-1.985,3.092
				c-0.108,1.161-0.437,2.312-0.979,3.412c-1.146,2.314-3.038,4.05-5.363,4.923c-0.166,0.073-0.354,0.147-0.561,0.222
				C55.422,69.714,54.504,69.878,53.572,69.878z"/>
		</g>
		<g>
			<path fill="#FFFFFF" d="M46.445,50.984c0.025-0.046,0.058-0.094,0.095-0.143c0.097-0.115,0.217-0.173,0.363-0.174
				c0.146-0.002,0.277,0.059,0.391,0.178c0.028,0.021,0.074,0.056,0.136,0.107l0.184,0.155c0.2,0.179,0.348,0.363,0.44,0.554
				c0.119,0.251,0.153,0.49,0.104,0.723c-0.05,0.229-0.162,0.418-0.336,0.564c-0.264,0.233-0.58,0.341-0.952,0.321
				c-0.197-0.006-0.39-0.067-0.575-0.184s-0.313-0.299-0.385-0.547c-0.111-0.425,0.027-0.908,0.414-1.448L46.445,50.984z
				 M52.738,58.683l-0.15,0.532l-0.177,0.658c-0.037,0.153-0.098,0.356-0.179,0.607c-0.083,0.251-0.165,0.485-0.249,0.704
				l-0.255,0.636c-0.645,1.331-1.505,2.068-2.584,2.217c-0.596,0.071-1.062-0.09-1.398-0.489c-0.053-0.067-0.101-0.142-0.145-0.226
				c-0.062-0.052-0.125-0.115-0.192-0.193c-0.066-0.076-0.13-0.188-0.188-0.334c-0.021-0.087-0.054-0.199-0.098-0.335
				c-0.056-0.239-0.122-0.548-0.198-0.929c-0.142-0.709-0.295-1.575-0.46-2.599c-0.155-0.983-0.278-1.85-0.367-2.598
				c-0.052-0.373-0.084-0.677-0.104-0.912c-0.019-0.127-0.023-0.231-0.019-0.313c-0.01-0.144,0.001-0.259,0.028-0.346
				c0.069-0.174,0.191-0.335,0.365-0.48c0.031-0.021,0.059-0.041,0.077-0.06c0.099-0.262,0.278-0.383,0.539-0.365l0.018-0.004
				c0.013-0.002,0.035-0.005,0.071-0.006c0.037-0.002,0.078-0.008,0.124-0.019c0.313-0.021,0.558,0.081,0.733,0.306
				c0.104,0.134,0.199,0.363,0.288,0.688c0.067,0.236,0.134,0.547,0.197,0.929c0.106,0.56,0.241,1.396,0.403,2.511
				c0.29,1.976,0.455,3.076,0.496,3.306c0.038,0.163,0.087,0.291,0.146,0.385c0.113,0.172,0.353,0.249,0.716,0.229
				c0.201-0.231,0.393-0.542,0.57-0.929c0.096-0.168,0.177-0.347,0.242-0.534l0.216-0.646c0.081-0.229,0.143-0.417,0.183-0.559
				l0.164-0.636c0.079-0.284,0.129-0.468,0.146-0.552c0.037-0.154,0.121-0.268,0.251-0.338c0.131-0.069,0.27-0.082,0.414-0.036
				c0.145,0.045,0.253,0.14,0.322,0.281C52.759,58.379,52.776,58.528,52.738,58.683z"/>
			<path fill="#FFFFFF" d="M53.551,55.172c-0.157,0.422-0.172,0.756-0.041,1.004c0.142,0.232,0.498,0.533,1.073,0.902
				c0.588-0.521,1.195-1.002,1.82-1.439c0.626-0.438,1.099-0.727,1.421-0.869c0.131-0.069,0.268-0.074,0.41-0.016
				c0.142,0.061,0.244,0.16,0.31,0.305c0.063,0.146,0.071,0.293,0.021,0.443c-0.051,0.15-0.143,0.256-0.275,0.313
				c-0.274,0.133-0.699,0.399-1.271,0.806c-0.572,0.405-1.133,0.845-1.685,1.317c0.283,0.267,0.497,0.554,0.644,0.864
				c0.368,0.788,0.359,1.569-0.021,2.342c-0.381,0.773-0.938,1.276-1.666,1.514c-0.022,0.005-0.063,0.021-0.117,0.047
				c-0.099,0.049-0.171,0.08-0.217,0.091c-0.277,0.118-0.537,0.112-0.774-0.02c-0.503-0.268-0.843-0.618-1.019-1.055
				c-0.181-0.408-0.201-0.861-0.06-1.358c0.184-0.679,0.668-1.435,1.452-2.269l-0.088-0.059c-0.378-0.204-0.631-0.345-0.759-0.42
				c-0.64-0.382-1.076-0.783-1.31-1.205c-0.351-0.608-0.365-1.302-0.045-2.079c0.378-0.948,0.925-1.567,1.641-1.854
				c0.115-0.134,0.23-0.246,0.343-0.339c0.144-0.125,0.293-0.225,0.454-0.295s0.341-0.089,0.538-0.056
				c0.197,0.031,0.367,0.146,0.51,0.338c0.279,0.357,0.295,0.846,0.049,1.46c0.003,0.119-0.014,0.234-0.048,0.35
				c-0.104,0.289-0.396,0.59-0.873,0.9l-0.033,0.008C53.815,54.965,53.688,55.074,53.551,55.172z M53.574,61.71
				c0.011-0.003,0.061-0.028,0.147-0.075c0.088-0.046,0.165-0.078,0.234-0.095c0.466-0.147,0.813-0.454,1.033-0.917
				s0.235-0.903,0.04-1.322c-0.097-0.202-0.266-0.401-0.507-0.598l-0.072,0.077c-0.727,0.767-1.163,1.41-1.31,1.937
				c-0.069,0.229-0.068,0.414,0.002,0.557C53.203,61.431,53.347,61.577,53.574,61.71z"/>
		</g>
	</g>
	<g>
		<path fill="#FFFFFF" d="M68.644,96.731c-0.975,0-1.902-0.141-2.76-0.418l-28.012-9.069c-2.013-0.656-4.588-2.427-5.513-7.15
			c-0.771-3.933,0.546-6.374,1.768-7.721c0.44-0.502,0.918-0.92,1.393-1.268c1.361-7.104,3.646-8.109,5.228-8.808
			c0.189-0.083,0.381-0.158,0.576-0.224l19.708-6.683c1.01-3.646,3.192-6.161,6.003-7.019c0.391-0.136,0.74-0.229,1.003-0.295
			c0.229-0.059,0.457-0.104,0.689-0.14c1.516-1.449,2.683-1.942,3.726-2.221c0.36-0.096,0.729-0.163,1.101-0.2l16.396-1.646
			c0.073-0.008,0.147-0.015,0.222-0.02c0.159-0.011,0.373-0.019,0.532-0.019c2.497,0,5.438,1.331,7.171,3.21
			c0,0,15.061,15.784,15.086,15.813c0.52,0.563,2.258,2.621,2.858,5.505c0.159,0.772,0.21,1.614,0.218,2.313l0.373,0.396
			c0.221,0.234,0.425,0.483,0.612,0.745c0.994,1.398,2.338,4.375,0.157,8.602c-1.628,3.152-3.952,5.074-6.638,5.52l-21.103,5.826
			c-0.608,0.168-1.235,0.252-1.862,0.252c-0.492,0-0.985-0.052-1.47-0.156c-0.743-0.158-1.588-0.438-2.438-0.848L73.22,95.746
			C71.81,96.384,70.189,96.731,68.644,96.731z"/>
		<path fill="#FFFFFF" d="M111.317,75.875l-0.931-0.986l0.042-0.012l-1.128-1.307l-0.268-2.449c0,0,0.021-0.897-0.069-1.332
			c-0.252-1.211-1.148-2.185-1.148-2.185l-15.07-15.794c-0.337-0.411-1.524-1.013-2.097-0.974l-16.396,1.646
			c-0.338,0.091-1.292,1.096-2.053,2.071l-2.446,0.311c-0.271,0.067-0.456,0.127-0.6,0.188c-0.521,0.058-1.16,1.364-1.403,2.311
			c-0.005,0.02-0.01,0.038-0.015,0.059c-0.019,0.073-0.032,0.143-0.045,0.21c-0.005,0.027-0.01,0.054-0.015,0.079
			c-0.009,0.058-0.015,0.109-0.019,0.161c-0.002,0.025-0.005,0.053-0.006,0.076c-0.002,0.049,0.001,0.091,0.005,0.131
			c0.002,0.018,0.002,0.038,0.004,0.054c0.01,0.053,0.023,0.097,0.046,0.127l1.775,2.541c-1.047-0.203-1.729-0.308-1.84-0.259
			l-24.07,8.16c-0.479,0.211-1.383,4.547-1.656,6.951l-1.729,0.792c-0.392,0.179-0.693,0.399-0.84,0.596
			c-0.598,0.505,0.166,3.373,0.684,3.542l28.011,9.068c0.537,0.175,1.563,0.048,2.291-0.281l14.516-6.579l0.778,1.116
			c0.321,0.448,1.196,0.943,1.951,1.105l21.678-5.984C110.012,79.19,111.637,76.325,111.317,75.875z"/>
	</g>
	<g>
		<g>
			<path fill="#FFFFFF" d="M9.552,37.448c-0.225,0-0.532-0.016-0.756-0.036c-0.142-0.015-0.282-0.032-0.423-0.055
				c-0.641-0.103-1.267-0.284-1.906-0.558c-0.28-0.104-0.556-0.224-0.823-0.359c-1.797-0.897-3.145-2.431-3.805-4.334
				c-0.406-1.142-0.524-2.394-0.347-3.61C1.399,24.948,1.569,20.862,2,16.328c0.133-1.419,0.646-2.734,1.466-3.832
				c0.386-0.585,0.854-1.117,1.396-1.586c0.192-0.166,0.394-0.322,0.604-0.467c1.266-0.87,2.743-1.331,4.274-1.331
				c0.383,0,0.862,0.039,1.24,0.103c1.899,0.291,3.651,1.353,4.852,2.978c0.042,0.058,0.084,0.114,0.125,0.174
				c0.445,0.643,1.324,1.841,2.613,3.563c0.022,0.032,0.047,0.063,0.07,0.095c0.316-0.041,0.637-0.063,0.957-0.063
				c0.784,0,1.563,0.123,2.315,0.365c1.94,0.614,3.585,2.048,4.484,3.922c0.759,1.582,0.956,3.388,0.554,5.086
				c-0.02,0.082-0.041,0.164-0.063,0.245c-0.368,1.337-0.793,2.459-1.301,3.431c-1.75,3.314-4.678,5.198-8.048,5.198
				c-0.11,0-0.302-0.005-0.414-0.01c-0.256-0.013-0.527-0.035-0.813-0.077c-1.151,1.67-2.946,2.821-5.008,3.144
				c0,0-0.305,0.06-0.395,0.073C10.449,37.41,9.992,37.448,9.552,37.448z"/>
			<path fill="#FFFFFF" d="M21.489,33.836c-1.575,0-4.605-0.465-7.201-3.579c-0.044-0.053-0.087-0.106-0.13-0.161
				c-0.783-0.998-1.363-2.187-1.938-3.975c-0.277-0.831-0.578-1.895-0.898-3.183c-0.607-2.425-0.97-4.155-1.139-5.438
				c-0.146-1.062-0.202-2.184-0.163-3.297c0.02-0.972,0.14-1.911,0.363-2.774c0.015-0.055,0.029-0.107,0.045-0.162
				c0.771-2.702,2.646-4.757,5.145-5.639c0.852-0.297,1.714-0.443,2.591-0.443c1.146,0,2.269,0.246,3.337,0.732
				c0.134,0.061,0.267,0.126,0.396,0.194l0.209,0.111c0.291,0.154,0.57,0.33,0.837,0.524c1.872,1.246,3.228,3.09,3.934,5.321
				c1.278,0.451,2.441,1.253,3.327,2.327c1.113,1.363,1.728,3.048,1.75,4.769c0.001,0.089,0,0.179-0.002,0.268
				c-0.051,2.038-0.271,3.78-0.677,5.325c-0.235,0.892-0.562,1.801-0.971,2.716c-0.556,1.237-1.262,2.334-2.101,3.26
				c-1.738,1.975-4.142,3.102-6.704,3.102C21.5,33.836,21.489,33.836,21.489,33.836z"/>
			<path fill="#FFFFFF" d="M27.104,31.865c-1.579,0-4.614-0.467-7.208-3.588c-0.042-0.051-0.083-0.102-0.123-0.152
				c-0.781-0.995-1.36-2.183-1.938-3.968c-0.28-0.843-0.582-1.905-0.899-3.192c-0.604-2.412-0.967-4.139-1.139-5.42
				c-0.146-1.082-0.202-2.201-0.164-3.312c0.021-0.969,0.141-1.907,0.365-2.773c0.014-0.051,0.027-0.102,0.041-0.15
				c0.771-2.718,2.655-4.778,5.17-5.657c0.812-0.285,1.684-0.436,2.569-0.436c1.136,0,2.252,0.242,3.316,0.722
				c0.141,0.063,0.279,0.132,0.417,0.205l0.209,0.111c0.294,0.156,0.576,0.334,0.846,0.531c1.868,1.246,3.222,3.09,3.926,5.319
				c1.298,0.457,2.463,1.267,3.346,2.349c1.097,1.34,1.695,2.966,1.729,4.695c0.002,0.104,0.002,0.209-0.001,0.313
				c-0.051,2.041-0.273,3.784-0.679,5.331c-0.234,0.887-0.56,1.794-0.969,2.707c-0.55,1.227-1.246,2.311-2.069,3.229
				c-1.797,2.021-4.188,3.136-6.735,3.136l-0.011-7V31.865z"/>
			<path fill="#FFFFFF" d="M37.074,28.103c-0.87,0-1.728-0.15-2.553-0.447c-1.778-0.638-3.257-1.923-4.149-3.615
				c-0.906-1.72-1.122-3.695-0.607-5.564c-0.137-0.375-1.093-3.013-1.371-3.794c-0.859-0.704-1.564-1.601-2.056-2.637
				c-0.811-1.688-0.964-3.639-0.415-5.456c0.571-1.89,1.837-3.461,3.566-4.424c0.11-0.063,0.222-0.12,0.336-0.175
				c0.547-0.269,1.454-0.663,4.023-1.565C34.664,0.14,35.491,0,36.328,0c1.216,0,2.435,0.304,3.522,0.878
				c1.708,0.914,2.979,2.39,3.613,4.175c0.513,1.449,0.575,2.988,0.197,4.444l1.014,2.887c1.401,0.793,2.548,2.063,3.214,3.596
				c0.806,1.873,0.839,3.924,0.101,5.794c-0.724,1.835-2.106,3.293-3.892,4.106c-0.086,0.039-0.174,0.076-0.261,0.112
				c-0.279,0.113-1.058,0.399-2.333,0.849c-0.58,0.204-0.795,0.315-0.804,0.319C39.656,27.76,38.373,28.103,37.074,28.103z"/>
		</g>
		<g>
			<path fill="#FFFFFF" d="M10.203,16.352c0.511,0.737,1.434,1.994,2.763,3.771c1.287,1.724,2.209,3.001,2.767,3.831
				c0.033,0.058,0.17,0.282,0.41,0.678c0.187,0.317,0.346,0.556,0.478,0.716c0.337,0.455,0.622,0.691,0.854,0.705
				c0.318,0.011,0.638-0.285,0.956-0.89c0.237-0.439,0.461-1.045,0.67-1.815c0.034-0.148,0.121-0.258,0.256-0.326
				c0.133-0.066,0.271-0.078,0.414-0.031c0.142,0.045,0.248,0.142,0.317,0.287c0.07,0.146,0.088,0.296,0.054,0.443
				c-0.233,0.848-0.486,1.531-0.759,2.052c-0.522,0.991-1.163,1.471-1.921,1.435c-0.552-0.024-1.111-0.416-1.681-1.175
				c-0.146-0.195-0.323-0.469-0.534-0.818c-0.234-0.383-0.365-0.59-0.389-0.623l-0.545-0.794c-0.827,0.304-1.939,0.75-3.337,1.337
				c-0.006,0.918-0.068,2.411-0.188,4.479c-0.01,0.154-0.064,0.283-0.167,0.388c-0.063,0.215-0.206,0.332-0.425,0.354
				c-0.071,0.013-0.196,0.035-0.374,0.07c-0.143,0.021-0.261,0.029-0.352,0.021c-0.08-0.013-0.188-0.05-0.324-0.111L9.029,30.27
				c-0.08-0.014-0.159-0.039-0.236-0.081c-0.167-0.078-0.279-0.202-0.34-0.374c-0.052-0.146-0.055-0.28-0.011-0.405
				c0.018-0.062,0.044-0.111,0.08-0.15c-0.148-3.479,0-7.568,0.445-12.268c0.02-0.198,0.106-0.347,0.263-0.441
				c0.028-0.133,0.097-0.246,0.203-0.338c0.122-0.084,0.257-0.114,0.403-0.09C9.984,16.144,10.106,16.221,10.203,16.352z
				 M10.989,23.875c1.041-0.448,1.92-0.806,2.635-1.069l-1.497-1.998l-1.279-1.706c-0.003,0.425,0.008,0.921,0.028,1.488
				c0.006,0.229,0.021,0.557,0.042,0.979c0.022,0.424,0.038,0.813,0.049,1.163l0.016,0.96L10.989,23.875z"/>
			<path fill="#FFFFFF" d="M19.888,18.533c0.045,0.162,0.128,0.525,0.251,1.092c0.123,0.565,0.26,1.138,0.411,1.714
				c0.152,0.575,0.314,1.094,0.488,1.553c0.306,0.796,0.604,1.301,0.893,1.515c0.111,0.068,0.218,0.102,0.316,0.094
				c0.166-0.03,0.354-0.159,0.566-0.384c0.047-0.044,0.097-0.081,0.147-0.114c0.206-0.455,0.372-0.917,0.498-1.386
				c0.226-0.872,0.359-2.015,0.407-3.428c0.004-0.166,0.063-0.299,0.172-0.398c0.11-0.102,0.239-0.146,0.388-0.137
				s0.272,0.075,0.373,0.197s0.15,0.259,0.152,0.408c-0.037,1.478-0.188,2.722-0.451,3.729c-0.136,0.516-0.331,1.056-0.586,1.623
				c-0.255,0.568-0.556,1.045-0.9,1.427c-0.471,0.532-0.977,0.8-1.52,0.799c-0.63,0.003-1.24-0.353-1.831-1.062
				c-0.228-0.29-0.489-0.889-0.782-1.799c-0.235-0.71-0.492-1.619-0.769-2.727c-0.532-2.125-0.862-3.681-0.991-4.66
				c-0.097-0.705-0.133-1.418-0.106-2.138c0.011-0.511,0.058-0.933,0.144-1.264c0.147-0.517,0.396-0.836,0.743-0.959
				c0.213-0.074,0.447-0.055,0.703,0.063l0.209,0.11l0.13,0.1c0.767,0.456,1.238,1.242,1.415,2.355
				c0.146,0.921,0.063,1.783-0.246,2.591c-0.065,0.175-0.209,0.43-0.432,0.768C19.788,18.302,19.857,18.408,19.888,18.533z
				 M18.928,13.965c-0.002,0.068-0.012,0.202-0.029,0.4l-0.021,0.377l-0.031,0.339c-0.018,0.17-0.026,0.304-0.03,0.399
				c-0.004,0.099-0.007,0.215-0.009,0.354l0.021,0.383c0.005,0.121,0.019,0.247,0.038,0.377l0.094,0.644
				c0.082-0.123,0.135-0.21,0.154-0.259c0.227-0.612,0.284-1.276,0.173-1.989C19.233,14.583,19.114,14.242,18.928,13.965z"/>
			<path fill="#FFFFFF" d="M25.502,16.563c0.045,0.162,0.129,0.525,0.251,1.093c0.124,0.565,0.262,1.137,0.412,1.713
				c0.152,0.575,0.315,1.094,0.488,1.553c0.306,0.797,0.603,1.301,0.892,1.514c0.113,0.07,0.22,0.103,0.317,0.094
				c0.166-0.029,0.354-0.157,0.566-0.383c0.048-0.045,0.097-0.082,0.148-0.114c0.206-0.455,0.371-0.916,0.498-1.387
				c0.225-0.872,0.359-2.014,0.406-3.427c0.005-0.166,0.063-0.299,0.172-0.398c0.11-0.102,0.239-0.146,0.389-0.137
				c0.147,0.01,0.272,0.075,0.372,0.197c0.102,0.123,0.15,0.259,0.153,0.408c-0.037,1.478-0.188,2.722-0.452,3.729
				c-0.136,0.515-0.331,1.055-0.586,1.623s-0.555,1.043-0.901,1.425c-0.469,0.533-0.975,0.801-1.518,0.8
				c-0.631,0.003-1.241-0.352-1.831-1.062c-0.229-0.29-0.489-0.889-0.783-1.799c-0.236-0.71-0.493-1.619-0.768-2.727
				c-0.532-2.126-0.862-3.681-0.993-4.66c-0.096-0.705-0.132-1.418-0.106-2.139c0.012-0.51,0.06-0.932,0.146-1.263
				c0.146-0.517,0.394-0.836,0.743-0.958c0.213-0.075,0.446-0.055,0.703,0.061l0.209,0.111l0.129,0.099
				c0.768,0.456,1.237,1.242,1.415,2.356c0.146,0.921,0.063,1.783-0.245,2.59c-0.066,0.175-0.21,0.431-0.434,0.769
				C25.403,16.33,25.471,16.437,25.502,16.563z M24.543,11.993c-0.002,0.067-0.012,0.201-0.03,0.4l-0.02,0.376l-0.032,0.339
				c-0.016,0.172-0.024,0.306-0.029,0.4c-0.003,0.098-0.008,0.215-0.01,0.353l0.021,0.384c0.004,0.122,0.017,0.247,0.037,0.377
				l0.094,0.644c0.082-0.123,0.135-0.21,0.155-0.259c0.227-0.613,0.284-1.276,0.173-1.99C24.848,12.611,24.728,12.271,24.543,11.993
				z"/>
			<path fill="#FFFFFF" d="M41.196,19.509c-0.242,0.099-0.915,0.342-2.017,0.729c-0.786,0.275-1.413,0.544-1.878,0.803
				c-0.126,0.071-0.263,0.081-0.405,0.028c-0.146-0.052-0.255-0.148-0.331-0.294c-0.076-0.145-0.093-0.292-0.051-0.443
				c0.041-0.151,0.131-0.266,0.268-0.341c0.258-0.132,0.533-0.263,0.828-0.394c-0.234-0.67-0.804-2.245-1.707-4.727
				c-0.902-2.482-1.58-4.403-2.033-5.764c-0.164,0.071-0.326,0.148-0.486,0.231c-0.13,0.061-0.265,0.063-0.403,0.009
				c-0.14-0.054-0.243-0.153-0.313-0.3c-0.069-0.146-0.085-0.292-0.041-0.438c0.044-0.146,0.136-0.256,0.271-0.332
				c0.496-0.241,1.587-0.658,3.272-1.252c0.136-0.047,0.271-0.032,0.412,0.041c0.14,0.074,0.234,0.186,0.286,0.33
				c0.052,0.146,0.046,0.293-0.018,0.438s-0.161,0.241-0.296,0.289L35.963,8.33c0.01,0.023,0.014,0.051,0.011,0.079
				c0.019,0.089,0.011,0.175-0.024,0.255l3.484,9.922c0.038,0.108,0.044,0.217,0.018,0.322c0.555-0.183,0.985-0.341,1.292-0.475
				c0.142-0.063,0.282-0.062,0.419,0.007c0.138,0.067,0.239,0.177,0.304,0.324c0.063,0.147,0.067,0.293,0.012,0.438
				C41.421,19.346,41.327,19.449,41.196,19.509z"/>
		</g>
	</g>
	<g>
		<g>
			<path fill="#FFFFFF" d="M24.533,65.943c-0.146,0-0.294-0.006-0.44-0.015c-0.389,0-0.778-0.029-1.157-0.086
				c-0.615-0.092-1.214-0.266-1.783-0.516c-0.333-0.112-0.657-0.249-0.971-0.41c-0.396-0.203-0.769-0.438-1.146-0.725
				c-0.44-0.272-0.852-0.596-1.224-0.961c-0.442-0.318-0.852-0.692-1.215-1.119c0,0-0.52-0.558-0.641-0.691
				c-0.263-0.222-0.512-0.462-0.746-0.722c-0.292-0.24-0.566-0.508-0.82-0.799c-0.251-0.287-0.475-0.558-0.674-0.817
				c-0.207-0.198-0.405-0.404-0.596-0.617c-0.187-0.209-0.361-0.416-0.523-0.621c-0.291-0.273-0.563-0.572-0.811-0.896
				c-0.17-0.162-0.332-0.326-0.485-0.494l-0.045-0.049c-0.35-0.317-0.667-0.669-0.948-1.048c-0.021-0.018-0.04-0.034-0.062-0.054
				C9.669,54.95,9.16,54.537,8.707,54.06c-0.138-0.146-0.269-0.295-0.394-0.449c-0.196-0.176-0.374-0.348-0.54-0.521
				c0,0-0.837-0.858-0.873-0.895c-0.175-0.138-0.343-0.284-0.503-0.438c-0.104-0.099-0.203-0.2-0.299-0.305
				c-0.048-0.045-0.095-0.091-0.141-0.137c-0.415-0.413-0.805-0.877-1.161-1.379c-0.151-0.212-0.342-0.488-0.547-0.799
				c-0.047-0.07-0.138-0.207-0.139-0.209c-0.348-0.412-0.645-0.829-0.894-1.258c-0.076-0.121-0.148-0.24-0.221-0.359
				c-0.038-0.045-0.074-0.091-0.11-0.137c-0.809-0.778-1.407-1.729-1.765-2.766c-0.187-0.365-0.356-0.772-0.493-1.228
				c-0.08-0.266-0.144-0.535-0.19-0.807c-0.423-1.146-0.481-2.224-0.417-3.046c-0.023-0.901,0.128-1.81,0.455-2.669
				c0.647-1.704,1.872-3.208,3.74-4.598c1.33-0.99,2.739-1.656,4.18-1.972C8.889,29.984,9.39,29.93,9.89,29.93
				c0.383,0,0.766,0.031,1.145,0.094c0.455,0.021,0.891,0.07,1.31,0.148c0.405,0.05,0.811,0.132,1.212,0.246
				c0.052-0.042,0.417-0.323,0.542-0.419c0.446-0.461,0.917-0.854,1.415-1.187c0.169-0.122,0.339-0.243,0.509-0.363
				c0.298-0.242,0.598-0.453,0.912-0.642c0.138-0.083,0.278-0.161,0.423-0.232c0.077-0.039,0.185-0.093,0.324-0.153l0.024-0.018
				c0.604-0.39,1.258-0.68,1.939-0.866c0.688-0.328,1.432-0.561,2.189-0.676c0.488-0.104,0.986-0.156,1.485-0.156
				c0.014,0,0.313-0.012,0.423-0.012c0.283,0,0.564,0.017,0.842,0.047c0.01,0,0.019,0,0.027,0c0.556,0,1.104,0.065,1.633,0.193
				c0.168-0.005,0.585-0.007,0.603-0.007c1.083,0.008,2.115,0.264,3.039,0.718c0.188,0.063,0.381,0.128,0.581,0.201
				c0.208,0.076,0.356,0.132,0.464,0.169c1.196,0.356,2.271,1.025,3.117,1.932c0.252,0.221,0.49,0.46,0.71,0.718
				c0.022,0.014,0.046,0.027,0.068,0.043c0.561,0.354,1.064,0.786,1.5,1.279c0.281,0.268,0.538,0.554,0.77,0.855
				c0.608,0.537,1.105,1.13,1.508,1.794c0.306,0.339,0.579,0.708,0.813,1.101c0.207,0.253,0.396,0.518,0.564,0.795
				c0.386,0.411,0.722,0.87,1,1.365c0.248,0.315,0.468,0.651,0.659,1.004c0.152,0.285,0.287,0.577,0.399,0.876
				c0.355,0.427,0.66,0.896,0.907,1.397c0.36,0.53,0.643,1.104,0.843,1.704c0.035,0.086,0.067,0.172,0.1,0.258
				c0.316,0.671,0.536,1.408,0.653,2.193c0.613,1.407,0.732,2.938,0.401,4.37c-0.004,0.25-0.023,0.501-0.054,0.749
				c-0.023,0.635-0.134,1.271-0.334,1.893c-0.094,0.508-0.241,1-0.44,1.47c-0.134,0.36-0.298,0.71-0.493,1.048
				c-0.292,0.594-0.669,1.144-1.118,1.633c-0.04,0.053-0.08,0.104-0.121,0.156c-0.591,0.849-1.367,1.569-2.294,2.116
				c-0.255,0.151-0.518,0.286-0.789,0.405c-0.16,0.085-0.323,0.163-0.491,0.235c-1.121,0.726-2.441,1.123-3.834,1.123
				c-0.218,0-0.434-0.01-0.647-0.028c-0.189-0.005-0.379-0.018-0.566-0.037c-0.021,0.05-0.041,0.1-0.063,0.147
				c-0.429,0.998-1.084,1.884-1.914,2.583c-0.022,0.021-0.078,0.066-0.082,0.069c-0.13,0.118-0.258,0.227-0.382,0.324
				c-0.464,0.614-1.028,1.148-1.671,1.582c-0.234,0.158-0.466,0.317-0.698,0.479c-1.156,0.811-2.502,1.235-3.861,1.267
				C24.908,65.936,24.721,65.942,24.533,65.943L24.533,65.943z"/>
			<path fill="#FFFFFF" d="M45.499,54.512c-0.2,0-0.398-0.009-0.597-0.025c-0.021,0-0.041,0-0.063,0
				c-0.838,0-1.647-0.124-2.409-0.362c-0.518-0.096-1.021-0.247-1.501-0.454c-0.374-0.087-0.765-0.204-1.178-0.373
				c-0.467-0.191-0.909-0.432-1.317-0.714c-0.304-0.188-0.59-0.397-0.861-0.629c-0.267-0.167-0.522-0.353-0.765-0.555
				c-0.258-0.214-0.497-0.441-0.72-0.685c-0.434-0.395-0.79-0.8-1.081-1.196c-0.226-0.261-0.423-0.517-0.594-0.755
				c-0.239-0.23-0.462-0.479-0.667-0.742c-0.31-0.332-0.583-0.678-0.821-1.04c-0.387-0.482-0.724-1.013-1.002-1.574
				c-0.024-0.052-0.057-0.108-0.095-0.175c-0.092-0.157-0.191-0.318-0.307-0.497c-0.288-0.443-0.536-0.867-0.74-1.266l-0.518-1.007
				c-0.165-0.319-0.314-0.655-0.463-1.04c-0.125-0.204-0.234-0.398-0.336-0.595c-0.109-0.205-0.212-0.419-0.304-0.639
				c-0.37-0.516-0.645-0.932-0.869-1.31c-0.141-0.191-0.271-0.39-0.394-0.596c-0.024-0.042-0.049-0.084-0.072-0.126
				c-0.126-0.226-0.324-0.598-0.586-1.112c-0.047-0.093-0.09-0.177-0.13-0.254c-0.166-0.229-0.319-0.466-0.457-0.707
				c-0.161-0.278-0.302-0.567-0.423-0.862c-0.098-0.203-0.185-0.411-0.262-0.623c-0.147-0.35-0.313-0.682-0.496-0.988
				c-0.361-0.609-0.623-1.264-0.783-1.937c-0.216-0.66-0.351-1.355-0.402-2.08l-0.014-0.188c-0.199-1.618,0.174-3.197,0.979-4.512
				c0.025-0.043,0.051-0.087,0.076-0.13c0.142-0.271,0.298-0.539,0.472-0.804c0.591-1.214,1.523-2.24,2.692-2.943
				c0.141-0.125,0.287-0.246,0.438-0.359c0.419-0.318,0.867-0.584,1.338-0.798c0.093-0.057,0.188-0.111,0.289-0.167
				c0.525-0.299,1.101-0.543,1.768-0.756c0.234-0.072,0.471-0.139,0.708-0.194c0.376-0.165,0.762-0.308,1.149-0.421
				c0.074-0.022,0.15-0.045,0.228-0.064c0.301-0.122,0.605-0.227,0.909-0.313c0.146-0.041,0.296-0.077,0.445-0.108
				c0.426-0.162,0.785-0.278,1.134-0.366c0.001,0,0.098-0.025,0.1-0.025c0.232-0.06,0.551-0.127,0.788-0.161l0.092-0.015
				c0.365-0.087,0.708-0.152,1.038-0.201c0.099-0.024,0.197-0.05,0.299-0.073c0.22-0.055,0.598-0.131,1.088-0.217l0.236-0.039
				l0.113-0.031c0.48-0.134,0.809-0.212,1.028-0.258c0.273-0.059,0.563-0.101,0.853-0.125c0.016-0.004,0.14-0.028,0.187-0.037
				c0.061-0.012,0.354-0.063,0.895-0.14c0.302-0.046,0.604-0.079,0.902-0.101c0.428-0.081,0.856-0.122,1.284-0.122
				c0.024,0,0.05,0.001,0.073,0.001c0.254-0.053,0.459-0.089,0.631-0.114l0.135-0.021c0.438-0.069,0.857-0.1,1.378-0.1
				c0.157,0,0.353,0.003,0.584,0.011c1.645,0.03,3.109,0.389,4.396,1.092c0.152,0.082,0.345,0.189,0.576,0.33
				c0.142,0.07,0.33,0.173,0.561,0.306c0.518,0.303,0.952,0.613,1.352,0.962c0.712,0.623,1.29,1.384,1.7,2.236l0.263,0.551
				c0.35,0.736,0.568,1.528,0.646,2.34c0.154,1.634-0.15,3.272-0.885,4.739c-0.044,0.089-0.091,0.177-0.139,0.264
				c-0.537,0.97-1.236,1.8-2.063,2.458c0.8,0.711,1.433,1.603,1.84,2.61c0.07,0.145,0.139,0.297,0.204,0.457
				c1.002,0.265,1.938,0.749,2.735,1.425c0.094,0.079,0.185,0.159,0.272,0.239c1.146,0.802,2.461,2.217,3.008,4.642
				c0.505,2.228,0.009,3.965-0.497,5.029c-0.216,0.455-0.48,0.885-0.788,1.281c-0.644,0.975-1.429,1.759-2.346,2.344l-0.278,0.184
				c-0.354,0.237-0.728,0.44-1.117,0.608c-0.251,0.145-0.51,0.274-0.775,0.388c-0.134,0.091-0.267,0.178-0.399,0.258
				c-0.542,0.328-1.126,0.582-1.736,0.754c-0.382,0.177-0.757,0.324-1.132,0.449c-0.462,0.22-0.948,0.388-1.449,0.501
				c-0.13,0.046-0.239,0.081-0.332,0.109c-0.221,0.091-0.436,0.169-0.641,0.239c-0.323,0.175-0.665,0.331-1.028,0.47
				c-0.271,0.148-0.552,0.279-0.841,0.392c-0.026,0.015-0.061,0.029-0.065,0.032c-0.532,0.261-0.943,0.438-1.233,0.547
				c-0.577,0.226-1.235,0.401-1.883,0.497C46.185,54.486,45.842,54.512,45.499,54.512z"/>
			<path fill="#FFFFFF" d="M63.31,50.419c-0.361,0-0.688-0.021-0.982-0.052c-0.477-0.053-0.945-0.152-1.396-0.3
				c-0.851-0.188-1.577-0.478-2.195-0.817c-0.492-0.193-0.958-0.44-1.392-0.737c-0.353-0.157-0.706-0.341-1.076-0.581
				c-0.412-0.268-0.791-0.575-1.134-0.917c-0.258-0.232-0.497-0.486-0.718-0.756c-0.223-0.204-0.433-0.423-0.628-0.654
				c-0.22-0.262-0.42-0.536-0.598-0.82c-0.367-0.483-0.649-0.968-0.866-1.43c-0.152-0.27-0.282-0.528-0.393-0.772
				c-0.174-0.252-0.33-0.516-0.47-0.786c-0.247-0.396-0.454-0.803-0.622-1.226c-0.29-0.573-0.515-1.185-0.668-1.818
				c-0.066-0.222-0.125-0.385-0.192-0.566c-0.198-0.521-0.35-0.994-0.461-1.446l-0.245-0.959c-0.085-0.316-0.154-0.669-0.208-1.065
				c-0.048-0.146-0.093-0.293-0.133-0.438c-0.063-0.233-0.114-0.465-0.157-0.691c-0.214-0.493-0.374-0.905-0.5-1.284
				c-0.11-0.247-0.207-0.502-0.289-0.765c-0.016-0.054-0.032-0.104-0.046-0.157c-0.065-0.228-0.165-0.599-0.29-1.112
				c-0.011-0.042-0.021-0.084-0.032-0.125c-0.119-0.278-0.221-0.563-0.305-0.851c-0.086-0.291-0.153-0.583-0.203-0.876
				c-0.06-0.268-0.102-0.536-0.128-0.81c-0.042-0.235-0.1-0.462-0.167-0.674c-0.246-0.764-0.356-1.55-0.336-2.326
				c-0.036-0.727,0.023-1.465,0.182-2.193l0.029-0.135c0.265-1.627,1.083-3.056,2.25-4.097c0.12-0.115,0.244-0.225,0.371-0.33
				c0.186-0.174,0.382-0.343,0.588-0.505c0.906-0.921,2.057-1.583,3.332-1.894c0.05-0.023,0.1-0.046,0.148-0.067
				c0.589-0.255,1.202-0.426,1.823-0.513c0.106-0.028,0.216-0.057,0.329-0.081c0.556-0.13,1.153-0.207,1.81-0.235
				c0.159-0.006,0.292-0.009,0.427-0.009c0.114,0,0.229,0.002,0.346,0.006c0.038-0.005,0.075-0.011,0.113-0.016
				c0.376-0.052,0.759-0.082,1.146-0.091c0.058-0.002,0.238-0.003,0.272-0.002c0.313-0.036,0.621-0.058,0.92-0.063
				c0.036-0.001,0.072-0.001,0.107-0.001c0.14,0,0.278,0.004,0.417,0.013c0.385-0.038,0.757-0.058,1.099-0.058
				c0.036,0,0.313,0.004,0.313,0.004c0.202,0.003,0.403,0.015,0.604,0.035l0.158,0.017c0.347,0.008,0.724,0.027,1.123,0.074
				c0.11,0,0.23,0.002,0.358,0.006c0.264,0.008,0.637,0.029,1.113,0.071c0,0,0.347,0.029,0.351,0.029c0,0,0.186-0.004,0.187-0.004
				c0.441,0,0.755,0.01,0.968,0.021c0.286,0.013,0.577,0.046,0.873,0.098c0.051,0.003,0.256,0.018,0.308,0.021
				c0.055,0.005,0.326,0.03,0.817,0.087c0.322,0.035,0.635,0.08,0.938,0.137l0.143,0.011c0.412,0.038,0.819,0.111,1.217,0.222
				c0.298,0.015,0.559,0.038,0.768,0.062l0.137,0.016c0.558,0.063,1.043,0.165,1.795,0.372c1.519,0.405,2.784,1.027,3.819,1.887
				c0.144,0.117,0.319,0.268,0.525,0.456c0.122,0.096,0.303,0.244,0.532,0.449c0.367,0.319,0.73,0.7,1.052,1.109
				c0.635,0.811,1.084,1.748,1.314,2.75l0.128,0.56c0.202,0.898,0.225,1.83,0.064,2.738c-0.303,1.733-1.133,3.312-2.398,4.563
				c-0.088,0.086-0.178,0.171-0.271,0.253c-0.56,0.496-1.17,0.909-1.817,1.232c0.3,0.606,0.512,1.261,0.626,1.938
				c0.013,0.056,0.024,0.112,0.037,0.169c0.91,0.443,1.719,1.08,2.362,1.871c0.079,0.098,0.155,0.194,0.229,0.292
				c0.911,0.938,2.134,2.718,2.078,5.475c-0.047,2.563-1.186,4.245-2.13,5.204c-0.365,0.37-0.771,0.697-1.205,0.978
				c-0.897,0.673-1.865,1.139-2.891,1.39l-0.377,0.098c-0.379,0.101-0.766,0.167-1.155,0.202c-0.302,0.063-0.606,0.108-0.914,0.136
				c-0.194,0.057-0.382,0.104-0.567,0.146c-0.497,0.109-1.004,0.165-1.512,0.165c-0.045,0-0.186-0.001-0.186-0.001
				c-0.438,0.062-0.881,0.097-1.321,0.106c-0.342,0.052-0.688,0.076-1.034,0.076c-0.146,0-0.289-0.004-0.435-0.014
				c-0.153,0.01-0.276,0.014-0.376,0.015c-0.024,0.001-0.052,0.001-0.077,0.001c-0.28,0.029-0.55,0.044-0.802,0.054
				c-0.384,0.079-0.783,0.132-1.206,0.161c-0.298,0.063-0.602,0.105-0.907,0.131l-0.143,0.021c-0.545,0.087-0.955,0.138-1.237,0.161
				C63.859,50.409,63.572,50.419,63.31,50.419z"/>
			<path fill="#FFFFFF" d="M86.843,52.744c-0.426,0-0.853-0.039-1.272-0.117c-0.312-0.016-0.653-0.046-1.022-0.108
				c-0.594-0.056-1.095-0.132-1.565-0.233c-0.043-0.01-0.085-0.02-0.127-0.028c-0.207-0.049-0.414-0.107-0.621-0.176
				c-0.673-0.158-1.304-0.378-1.888-0.657c-0.385-0.149-0.728-0.315-1.021-0.472c-0.612-0.274-1.145-0.552-1.619-0.844
				c-0.413-0.184-0.855-0.409-1.303-0.693c-0.972-0.502-1.833-1.206-2.538-2.079c-0.462-0.483-0.853-1.03-1.159-1.625
				c-0.356-0.521-0.632-1.037-0.841-1.535c-0.159-0.326-0.292-0.664-0.399-1.012c-0.022-0.068-0.087-0.268-0.097-0.295
				c-0.021-0.052-0.045-0.104-0.065-0.154c-0.254-0.607-0.423-1.239-0.508-1.881c-0.031-0.141-0.06-0.281-0.082-0.423
				c-0.11-0.48-0.173-0.973-0.186-1.471c-0.008-0.074-0.014-0.148-0.021-0.224c-0.063-0.57-0.073-1.164-0.029-1.797
				c-0.066-0.398-0.1-0.803-0.097-1.207c-0.04-0.433-0.063-0.938-0.073-1.596c-0.009-0.42,0.021-0.842,0.088-1.261l-0.001-0.048
				c-0.017-0.596,0.021-1.156,0.111-1.692c0.008-0.048,0.015-0.096,0.021-0.144c0.014-0.516,0.073-1.065,0.186-1.723
				c0.003-0.042,0.006-0.085,0.01-0.127c0.021-0.271,0.046-0.607,0.097-0.987c0.004-0.134,0.01-0.268,0.021-0.401
				c-0.014-0.51,0.024-1.021,0.11-1.524c-0.002-0.23,0.001-0.451,0.011-0.664c-0.021-0.15-0.041-0.303-0.055-0.456
				c-0.189-2.199,0.627-4.301,2.214-5.803c0.854-0.87,1.944-1.526,3.195-1.858l0.596-0.158c0.438-0.113,0.887-0.186,1.338-0.213
				c0.301-0.073,0.6-0.128,0.898-0.165c0.285-0.035,0.571-0.053,0.857-0.053c0.208,0,0.415,0.009,0.622,0.027
				c0.2-0.018,0.4-0.025,0.602-0.025c0.12,0,0.241,0.003,0.36,0.01c0.207,0.011,0.415,0.027,0.623,0.051
				c0.443,0.011,0.886,0.062,1.318,0.153l0.145,0.032l0.087,0.014c0.438,0.071,0.746,0.133,0.994,0.19
				c0.002,0,0.006,0.001,0.008,0.001c0.168,0.02,0.335,0.043,0.502,0.072c0.325,0.058,0.705,0.136,1.141,0.243
				c0.617,0.091,1.217,0.263,1.784,0.51c0.003,0.001,0.006,0.001,0.009,0.002c0.854,0.233,1.734,0.589,2.807,1.125
				c0.222,0.11,0.401,0.2,0.555,0.262c0.363,0.116,0.717,0.262,1.056,0.435c0.528,0.212,1.03,0.488,1.495,0.823
				c0.086,0.059,0.209,0.138,0.366,0.24c0.41,0.169,0.803,0.378,1.175,0.622c0.141,0.094,0.324,0.222,0.541,0.387
				c0.612,0.381,1.156,0.853,1.617,1.39c0.541,0.496,1.011,1.002,1.414,1.521c0.487,0.487,0.896,1.034,1.221,1.623
				c0.458,0.594,0.826,1.205,1.104,1.832c0.412,0.715,0.706,1.489,0.879,2.313c0.035,0.126,0.066,0.254,0.096,0.384
				c0.286,0.894,0.391,1.839,0.304,2.777c0.078,0.413,0.119,0.834,0.121,1.262c0.007,0.422-0.016,0.859-0.068,1.322
				c0.087,0.799,0.039,1.61-0.142,2.394c0.018,0.457-0.011,0.92-0.086,1.383c-0.052,0.323-0.127,0.639-0.221,0.945
				c-0.03,0.268-0.074,0.532-0.135,0.799c-0.168,0.749-0.456,1.46-0.849,2.105c-0.184,0.605-0.451,1.19-0.8,1.736
				c-0.26,0.463-0.6,0.946-1.041,1.408c-0.417,0.617-0.917,1.165-1.482,1.629c-0.397,0.391-0.842,0.731-1.321,1.021
				c-0.054,0.039-0.105,0.077-0.159,0.114c-0.405,0.339-0.847,0.631-1.314,0.87c-0.327,0.194-0.672,0.363-1.031,0.504
				c-0.745,0.362-1.554,0.59-2.383,0.671c-0.403,0.131-0.817,0.226-1.237,0.281c-0.56,0.121-1.071,0.175-1.507,0.204
				c-0.26,0.05-0.521,0.088-0.783,0.109c-0.17,0.024-0.343,0.043-0.517,0.057C87.53,52.719,87.187,52.744,86.843,52.744z"/>
		</g>
		<g>
			<path fill="#73323A" d="M8.394,37.685c0.543-0.404,1.046-0.652,1.498-0.752c0.165,0.062,0.408,0.088,0.729,0.083
				c0.32-0.002,0.545,0.039,0.676,0.122c0.123-0.04,0.293-0.016,0.51,0.075c0.217,0.092,0.38,0.142,0.494,0.152
				c0.499,0.487,1.189,0.931,2.056,1.336c0.081,0.208,0.203,0.316,0.369,0.334c0.049,0.054,0.06,0.152,0.039,0.302
				c0.387,0.211,0.675,0.314,0.869,0.31c0.2,0.146,0.399,0.291,0.598,0.438c0.101-0.112,0.146-0.274,0.139-0.484
				c-0.008-0.209,0.024-0.36,0.095-0.452c-0.13-0.21-0.131-0.503,0.005-0.869s0.215-0.596,0.232-0.692
				c0.064-0.041,0.14-0.145,0.229-0.304c0.088-0.163,0.18-0.274,0.277-0.337c0.283-0.554,0.549-0.925,0.791-1.111
				c0.258-0.198,0.519-0.396,0.779-0.591c0.034-0.02,0.122-0.11,0.261-0.274c0.141-0.162,0.276-0.283,0.413-0.359
				c0.265-0.191,0.531-0.383,0.798-0.571c0.033-0.021,0.08-0.056,0.138-0.108c0.058-0.051,0.104-0.086,0.137-0.104
				c0.035-0.019,0.101-0.043,0.196-0.078c0.096-0.032,0.178-0.067,0.246-0.104c0.178-0.117,0.355-0.232,0.534-0.349
				c0.112,0.02,0.22,0.002,0.322-0.053c0.069-0.036,0.138-0.072,0.207-0.108c0.027,0.005,0.054,0.009,0.082,0.014
				c0.035-0.018,0.069-0.037,0.104-0.055c0.069-0.036,0.182-0.095,0.338-0.175c0.155-0.082,0.277-0.125,0.368-0.132
				c0.075,0.039,0.129,0.048,0.166,0.029c0.069-0.034,0.139-0.07,0.208-0.106c0.167,0.033,0.283,0.033,0.353-0.002
				c0.09-0.008,0.163-0.005,0.216,0.005c0.055,0.012,0.119,0.019,0.192,0.021c0.07,0.002,0.135,0.01,0.189,0.021
				c0.055,0.011,0.126,0.013,0.216,0.007c0.045-0.003,0.091-0.007,0.136-0.011c0.019,0.029,0.056,0.051,0.109,0.062
				c0.055,0.012,0.093,0.03,0.111,0.06c0.484,0.027,0.783,0.095,0.895,0.188c0.174-0.084,0.537-0.127,1.087-0.123
				c0.022,0.104,0.087,0.167,0.194,0.188c0.249,0.034,0.611,0.137,1.08,0.308c0.471,0.174,0.756,0.275,0.861,0.301
				c0.045,0.072,0.091,0.145,0.137,0.216c0.107,0.172,0.231,0.263,0.369,0.273c0.054,0.085,0.063,0.173,0.032,0.262
				c0.241,0.037,0.575,0.328,0.992,0.871c0.087,0.034,0.172,0.068,0.258,0.104c0.17,0.068,0.289,0.125,0.357,0.169
				c0.019,0.028,0.035,0.057,0.052,0.085c0.069,0.114,0.171,0.216,0.307,0.3c0.151,0.113,0.178,0.229,0.08,0.348
				c0.101,0.027,0.159,0.056,0.177,0.084c0.085,0.146,0.243,0.29,0.478,0.438c0.233,0.149,0.385,0.284,0.45,0.396
				c0.033,0.062,0.067,0.137,0.102,0.229c0.031,0.094,0.058,0.156,0.074,0.184c0.051,0.087,0.106,0.151,0.173,0.193
				c0.017,0.03,0.001,0.091-0.048,0.188c-0.05,0.094-0.057,0.169-0.023,0.227c0.196-0.089,0.366-0.074,0.513,0.041
				c0.017,0.028,0.032,0.057,0.048,0.085c0.018,0.029,0.036,0.084,0.063,0.163c0.023,0.08,0.053,0.147,0.085,0.204
				c0.017,0.027,0.033,0.058,0.049,0.087c0.033,0.058,0.098,0.119,0.193,0.183c0.097,0.065,0.153,0.112,0.168,0.142
				c0.033,0.059,0.042,0.126,0.025,0.207c-0.016,0.079-0.017,0.132,0,0.159c0.049,0.088,0.137,0.176,0.264,0.262
				c0.127,0.085,0.215,0.171,0.262,0.258c0.023,0.043,0.047,0.086,0.07,0.129c0.11,0.061,0.189,0.096,0.237,0.11
				c0.046,0.229,0.109,0.346,0.188,0.346c0.032,0.058,0.022,0.114-0.024,0.172c-0.047,0.061-0.062,0.103-0.046,0.13
				c0.063,0.044,0.133,0.065,0.21,0.064c0.078,0.001,0.125,0.016,0.14,0.043c0.046,0.051,0.093,0.102,0.139,0.151
				c0.047,0.088,0.052,0.202,0.012,0.346c-0.039,0.145-0.042,0.246-0.012,0.304c0.016,0.028,0.054,0.064,0.116,0.106
				c0.008,0.015,0.016,0.027,0.022,0.043c-0.016,0.044-0.062,0.064-0.138,0.065c0.138,0.044,0.183,0.129,0.139,0.261
				c0.152,0.07,0.275,0.193,0.366,0.366c0.03,0.059,0.028,0.093-0.001,0.107c-0.03,0.015-0.053,0.023-0.069,0.032
				c-0.016,0.008-0.013,0.024,0.002,0.055c0.03,0.058,0.083,0.067,0.159,0.032c0.075-0.035,0.135-0.013,0.182,0.075
				c0.016,0.029,0.008,0.087-0.023,0.172c0.031-0.015,0.061-0.028,0.092-0.042c0.061-0.028,0.099-0.027,0.113,0.001
				s0.003,0.078-0.034,0.151c-0.038,0.069-0.042,0.135-0.011,0.192c0.059-0.028,0.148-0.106,0.271-0.234
				c0.073,0.431-0.023,0.708-0.292,0.839c0.09,0.064,0.18,0.13,0.27,0.195c0.118-0.129,0.119-0.201-0.001-0.216
				c0.075,0,0.172,0.009,0.29,0.021c0.12,0.016,0.192,0.018,0.225,0.003c-0.016,0.043,0.035,0.182,0.152,0.41
				c-0.03,0.015-0.051,0.007-0.066-0.021c-0.015-0.03-0.033-0.046-0.056-0.057c-0.021-0.005-0.047-0.003-0.077,0.012
				c-0.029,0.015-0.052,0.044-0.066,0.087c-0.016,0.044-0.059,0.063-0.133,0.063c0.073,0.072,0.188,0.152,0.343,0.239
				c0.153,0.087,0.252,0.173,0.297,0.261c0.058,0.115,0.089,0.287,0.096,0.518s0.032,0.387,0.075,0.474
				c-0.028,0.051-0.058,0.101-0.085,0.15c-0.059,0.101-0.086,0.188-0.086,0.259c0.057,0.043,0.129,0.044,0.216,0.001
				c0.028,0.058,0.049,0.138,0.063,0.237c0.015,0.102,0.029,0.167,0.043,0.193c0.029,0.058,0.071,0.09,0.128,0.097
				c0.058,0.009,0.101,0.041,0.128,0.1c-0.197,0.172-0.268,0.313-0.21,0.43c-0.141,0.144-0.209,0.252-0.208,0.322
				c0.016,0.028,0.029,0.058,0.043,0.087c0.029,0.058,0.063,0.159,0.1,0.302c0.036,0.145,0.068,0.245,0.098,0.304
				c-0.041,0.058-0.06,0.123-0.06,0.193c-0.027,0.087-0.053,0.139-0.08,0.151c0.014,0.029,0.017,0.071,0.013,0.131
				c-0.007,0.057,0.019,0.106,0.074,0.15c-0.158,0.374-0.23,0.673-0.224,0.889c-0.056,0.03-0.102,0.038-0.144,0.021
				c-0.042-0.014-0.077-0.014-0.102,0.004c0.043,0.086,0.087,0.173,0.131,0.259c-0.104,0.132-0.174,0.262-0.21,0.394
				c-0.3,0.281-0.445,0.458-0.442,0.532c-0.025,0.016-0.107,0.119-0.244,0.313c-0.012,0.044-0.055,0.089-0.133,0.135
				c-0.053,0.031-0.119,0.052-0.198,0.062s-0.132,0.024-0.157,0.039c-0.077,0.047-0.122,0.092-0.132,0.136
				c-0.015-0.027-0.029-0.057-0.045-0.085c-0.025,0.017-0.052,0.031-0.078,0.048c-0.139,0.027-0.277,0.056-0.417,0.084
				c-0.025,0.016-0.051,0.03-0.076,0.048c-0.025,0.017-0.068,0.063-0.13,0.14c-0.061,0.075-0.117,0.131-0.168,0.163
				c-0.032,0.001-0.065,0.003-0.1,0.005c-0.025,0.019-0.018,0.03,0.023,0.043c0.042,0.012,0.036,0.036-0.015,0.067
				c-0.036,0.06-0.089,0.057-0.162-0.014c-0.073-0.068-0.123-0.096-0.147-0.078c-0.067,0.003-0.115,0.022-0.146,0.063
				c-0.03,0.038-0.065,0.052-0.106,0.038c-0.042-0.012-0.118-0.116-0.231-0.317c-0.016-0.026-0.054-0.062-0.11-0.103
				c-0.026,0.017-0.021,0.054,0.01,0.11c-0.019,0.091-0.044,0.164-0.079,0.227c-0.131-0.108-0.223-0.148-0.274-0.114
				c-0.059-0.041-0.065-0.085-0.023-0.133c0.042-0.046,0.057-0.084,0.04-0.114c-0.082-0.142-0.229-0.214-0.44-0.213
				s-0.339-0.004-0.381-0.015c-0.06-0.041-0.091-0.11-0.095-0.206s-0.014-0.159-0.03-0.188c-0.039,0.025-0.078,0.052-0.116,0.075
				c-0.102,0.068-0.188,0.104-0.256,0.11c-0.034-0.058-0.087-0.103-0.16-0.133c-0.072-0.032-0.117-0.063-0.134-0.091
				c-0.017-0.027-0.035-0.057-0.052-0.085c-0.061-0.04-0.137-0.077-0.232-0.115c-0.096-0.034-0.165-0.062-0.207-0.071
				c-0.992-1.139-1.521-1.72-1.538-1.747c-0.054-0.086-0.071-0.173-0.055-0.265c0.008-0.046-0.011-0.063-0.061-0.052
				c-0.05,0.014-0.083,0.003-0.103-0.024c-0.054-0.084-0.224-0.292-0.516-0.625c-0.293-0.333-0.496-0.583-0.608-0.755
				c-0.092-0.141-0.122-0.242-0.084-0.308c-0.046-0.009-0.127-0.087-0.243-0.234c-0.115-0.146-0.227-0.207-0.329-0.182
				c-0.02-0.028-0.049-0.09-0.092-0.184c-0.043-0.093-0.067-0.177-0.078-0.251c-0.158-0.061-0.334-0.229-0.525-0.512
				c-0.076-0.232-0.178-0.411-0.302-0.534c-0.076-0.113-0.152-0.228-0.229-0.34c-0.097-0.263-0.175-0.435-0.232-0.519
				c-0.059-0.085-0.158-0.142-0.305-0.173c-0.214-0.309-0.488-0.764-0.824-1.364c-0.038-0.055-0.088-0.063-0.147-0.026
				c-0.05-0.012-0.084-0.03-0.104-0.06c-0.03-0.101-0.104-0.237-0.225-0.405c-0.239-0.338-0.479-0.675-0.721-1.011
				c-0.151-0.029-0.269-0.099-0.35-0.211c-0.061-0.085-0.127-0.207-0.199-0.366c-0.07-0.157-0.126-0.266-0.167-0.321
				c-0.081-0.112-0.163-0.225-0.244-0.336c-0.011-0.015-0.021-0.028-0.031-0.042c-0.005-0.038-0.011-0.075-0.018-0.113
				c-0.04-0.055-0.099-0.121-0.177-0.194c-0.076-0.074-0.125-0.127-0.145-0.154c-0.063-0.085-0.088-0.147-0.078-0.195
				c-0.224-0.21-0.446-0.421-0.671-0.631c-0.198-0.266-0.397-0.529-0.598-0.795c-0.337-0.448-0.608-0.771-0.812-0.978
				c-0.042-0.056-0.11-0.065-0.201-0.032c-0.092,0.034-0.2,0.079-0.323,0.133c-0.125,0.055-0.213,0.076-0.268,0.068
				c-0.429,0.667-0.587,1.187-0.495,1.54c-0.031,0.021-0.039,0.059-0.021,0.109c0.016,0.049-0.005,0.096-0.067,0.136
				c0.011,0.074,0.024,0.255,0.038,0.536c0.015,0.286,0.061,0.507,0.141,0.665c-0.01,0.048-0.018,0.096-0.025,0.144
				c-0.005,0.023-0.009,0.049-0.013,0.071c0.088,0.11,0.122,0.213,0.105,0.311c0.021,0.026,0.058,0.057,0.105,0.089
				c0.047,0.029,0.083,0.06,0.105,0.089c0.132,0.165,0.172,0.391,0.123,0.676c0.028-0.019,0.07-0.024,0.123-0.018
				c0.021,0.026,0.043,0.056,0.064,0.083c0.022,0.026,0.07,0.103,0.142,0.222c0.071,0.122,0.131,0.209,0.175,0.264
				c0.064,0.084,0.134,0.145,0.207,0.179c-0.074,0.136-0.106,0.239-0.092,0.315c0.095,0.063,0.219,0.191,0.37,0.384
				c0.15,0.194,0.37,0.534,0.654,1.017c0.021,0.027,0.006,0.081-0.044,0.157c-0.051,0.078-0.067,0.154-0.053,0.229
				c0.071,0.036,0.125,0.021,0.16-0.049c0.037-0.065,0.068-0.109,0.098-0.13c0.043,0.057,0.094,0.136,0.156,0.243
				c0.058,0.105,0.121,0.2,0.185,0.285c0.021,0.028,0.014,0.087-0.026,0.178s-0.022,0.154,0.048,0.189
				c0.043,0.058,0.105,0.053,0.19-0.006c0.212,0.107,0.305,0.258,0.275,0.445c0.099,0.017,0.181,0.066,0.243,0.149
				c0.063,0.084,0.124,0.222,0.184,0.411c0.061,0.192,0.111,0.317,0.153,0.371c0.045,0.032,0.09,0.064,0.136,0.097
				c0.09,0.064,0.144,0.136,0.156,0.208c0.021,0.027,0.05,0.096,0.083,0.196c0.021,0.027,0.042,0.056,0.063,0.084
				c0.021,0.027,0.066,0.06,0.136,0.095c0.033,0.019,0.067,0.036,0.102,0.055c0.021,0.027,0.042,0.057,0.063,0.085
				c0.062,0.081,0.115,0.227,0.161,0.427c0.048,0.202,0.102,0.344,0.163,0.428c0.056,0.046,0.109,0.092,0.164,0.139
				c0.011,0.015,0.021,0.027,0.031,0.043c-0.006,0.047-0.036,0.089-0.089,0.129c0.123,0.082,0.244,0.164,0.366,0.246
				c-0.106,0.075-0.149,0.13-0.129,0.156c0.042,0.059,0.094,0.072,0.155,0.046c0.064-0.022,0.105-0.021,0.126,0.007
				c0.03,0.042,0.062,0.083,0.092,0.125c0.225,0.307,0.381,0.469,0.474,0.484c-0.005,0.047,0.005,0.104,0.033,0.168
				c0.025,0.067,0.048,0.136,0.063,0.212c0.016,0.075,0.028,0.149,0.043,0.225c-0.022-0.004-0.046-0.008-0.068-0.013
				c-0.046-0.009-0.083-0.005-0.107,0.017c0.092,0.018,0.138,0.066,0.141,0.153c0.001,0.085,0.059,0.148,0.171,0.193
				c-0.025,0.021-0.033,0.078-0.021,0.176c0.012,0.099,0.004,0.183-0.027,0.247c0.142,0.196,0.226,0.393,0.249,0.589
				c0.142,0.193,0.315,0.601,0.528,1.217c0.167,0.395,0.281,0.739,0.344,1.04c0.05,0.069,0.101,0.14,0.149,0.209
				c0.159,0.224,0.29,0.513,0.393,0.866c-0.022,0.021-0.037,0.055-0.041,0.102c-0.003,0.047-0.039,0.075-0.104,0.087
				c0.052,0.177,0.055,0.285,0.009,0.324c0.192,0.374,0.171,0.811-0.047,1.317c-0.091,0.077-0.158,0.112-0.2,0.104
				c-0.042-0.007-0.059,0.009-0.05,0.045c0.008,0.037,0.001,0.066-0.021,0.085c-0.021,0.021-0.088,0.068-0.199,0.142
				c-0.109,0.077-0.199,0.145-0.266,0.203c-0.377,0.338-0.64,0.654-0.794,0.938c-0.27,0.182-0.537,0.366-0.803,0.553
				c-0.065-0.035-0.134-0.038-0.209-0.016c-0.075,0.024-0.133,0.035-0.176,0.027c-0.021,0.021-0.055,0.003-0.097-0.052
				c-0.193,0.041-0.354,0.057-0.483,0.037c-0.13-0.067-0.262-0.134-0.393-0.201c-0.064-0.009-0.13-0.018-0.194-0.025
				c-0.066-0.034-0.165-0.106-0.3-0.223c-0.133-0.115-0.254-0.189-0.364-0.229c-0.023-0.028-0.069-0.13-0.139-0.31
				c-0.022-0.027-0.056-0.03-0.099-0.013c-0.044,0.02-0.077,0.014-0.101-0.014c-0.022-0.025-0.035-0.076-0.035-0.148
				c-0.001-0.072-0.015-0.123-0.036-0.148c-0.089,0.034-0.16,0.034-0.217-0.012c-0.058-0.042-0.119-0.057-0.187-0.041
				c-0.066-0.08-0.203-0.229-0.409-0.45c-0.206-0.217-0.354-0.381-0.445-0.487c-0.186-0.218-0.303-0.374-0.349-0.479
				c-0.091,0.039-0.192-0.009-0.311-0.144c-0.116-0.135-0.199-0.278-0.246-0.43c-0.046-0.006-0.122-0.058-0.226-0.152
				c-0.104-0.096-0.192-0.136-0.263-0.118c-0.352-0.403-0.579-0.706-0.674-0.912c-0.235-0.169-0.45-0.361-0.64-0.575
				c-0.358-0.4-0.587-0.729-0.685-0.982c-0.29-0.026-0.411-0.158-0.359-0.401c-0.363-0.251-0.645-0.483-0.839-0.697
				c-0.037-0.04-0.073-0.078-0.11-0.118c-0.024-0.025-0.048-0.054-0.073-0.08c-0.012-0.038-0.023-0.076-0.036-0.114
				c-0.023-0.025-0.088-0.068-0.184-0.124c-0.102-0.058-0.162-0.124-0.187-0.201c-0.036-0.063-0.072-0.129-0.108-0.193
				c-0.222-0.238-0.58-0.573-1.081-1.005c0.001-0.023,0.002-0.049,0.003-0.072c-0.026-0.027-0.051-0.056-0.075-0.08
				c-0.073-0.078-0.213-0.162-0.416-0.252c-0.202-0.086-0.343-0.169-0.418-0.248c-0.076-0.08-0.139-0.194-0.187-0.349
				c-0.355-0.269-0.611-0.48-0.765-0.641c-0.268-0.276-0.536-0.552-0.806-0.827c-0.334-0.342-0.594-0.577-0.776-0.712
				c-0.024-0.024-0.052-0.076-0.076-0.153c0.001-0.024,0.003-0.05,0.004-0.074c-0.026-0.025-0.119-0.068-0.277-0.125
				c-0.129-0.13-0.261-0.285-0.389-0.467c-0.13-0.181-0.271-0.388-0.425-0.619c-0.156-0.232-0.271-0.411-0.348-0.543
				c-0.052-0.05-0.144-0.154-0.274-0.311c-0.13-0.156-0.208-0.271-0.231-0.348c-0.027-0.025-0.136-0.199-0.328-0.521
				c-0.193-0.321-0.34-0.534-0.446-0.638c-0.026-0.026-0.054-0.053-0.081-0.079c-0.07-0.23-0.186-0.423-0.345-0.578
				c-0.17-0.06-0.265-0.101-0.292-0.126c0.003-0.05,0.032-0.075,0.089-0.074c0.014,0.014,0.026,0.026,0.04,0.039
				c-0.021-0.127-0.107-0.294-0.266-0.5c-0.156-0.207-0.248-0.349-0.271-0.427c0.041-0.173,0.027-0.377-0.042-0.607
				c-0.025-0.023-0.05-0.075-0.075-0.154c-0.011-0.037-0.021-0.075-0.033-0.113c0.005-0.048-0.028-0.121-0.092-0.212
				c-0.063-0.09-0.096-0.161-0.091-0.212c0.005-0.049,0.021-0.157,0.048-0.321c0.03-0.164,0.02-0.296-0.028-0.399
				C7.172,38.751,7.626,38.255,8.394,37.685z M24.19,54.256c-0.036,0.03-0.071,0.061-0.107,0.092c0.111,0.042,0.18,0.029,0.205-0.04
				c-0.021-0.025-0.038-0.036-0.049-0.024C24.227,54.293,24.211,54.284,24.19,54.256z M25.776,42.702
				c-0.044,0.026-0.089,0.054-0.134,0.081c0.04,0.057,0.079,0.111,0.117,0.169C25.79,42.934,25.795,42.852,25.776,42.702z
				 M34.5,52.08c-0.102,0.064-0.111,0.169-0.03,0.313C34.57,52.326,34.581,52.225,34.5,52.08z M34.702,52.069
				c-0.025,0.017-0.051,0.032-0.077,0.049c0.033,0.057,0.034,0.094,0.01,0.107c0.038-0.022,0.076-0.048,0.114-0.072
				C34.734,52.126,34.718,52.098,34.702,52.069z M35.22,49.296c0.014,0.028,0.016,0.063,0.005,0.107
				c0.006-0.021,0.012-0.045,0.018-0.066C35.269,49.323,35.262,49.309,35.22,49.296z M34.854,46.747
				c0.04,0.071,0.079,0.145,0.118,0.217c0.101-0.019,0.135-0.054,0.103-0.113C35.041,46.722,34.966,46.687,34.854,46.747z
				 M36.552,43.584c-0.119,0.058-0.201,0.115-0.246,0.171C36.396,43.856,36.478,43.8,36.552,43.584z M37.306,45.269
				c0.014,0.029,0.028,0.06,0.043,0.088c-0.017,0.043,0,0.071,0.044,0.085c0.057-0.027,0.072-0.069,0.043-0.127
				C37.409,45.257,37.364,45.242,37.306,45.269z"/>
			<path fill="#73323A" d="M39.244,24.146c0.061-0.016,0.119-0.03,0.178-0.046c0.439-0.108,0.713-0.143,0.823-0.104
				c0.105-0.06,0.297-0.121,0.579-0.188c0.16-0.039,0.383-0.081,0.672-0.131c0.288-0.048,0.474-0.081,0.553-0.1
				c0.122-0.026,0.299-0.073,0.534-0.142c0.236-0.064,0.417-0.11,0.538-0.137c0.039-0.009,0.106-0.006,0.202,0.006
				c0.093,0.014,0.16,0.016,0.201,0.008c0.039-0.009,0.107-0.028,0.204-0.063c0.093-0.036,0.182-0.062,0.263-0.077
				c0.042-0.008,0.247-0.041,0.621-0.095c0.372-0.057,0.673-0.07,0.901-0.049c0.082-0.015,0.135-0.042,0.165-0.077
				c0.041-0.008,0.08-0.016,0.121-0.022c0.201,0.063,0.401,0.072,0.606,0.037c0.082-0.014,0.163-0.027,0.245-0.041
				c0.082-0.015,0.222-0.044,0.421-0.093s0.361-0.08,0.484-0.1c0.062-0.01,0.124-0.02,0.185-0.028
				c0.081-0.014,0.299-0.017,0.65-0.005c0.568,0.011,0.989,0.091,1.261,0.24c0.051,0.024,0.162,0.087,0.328,0.188
				s0.302,0.177,0.403,0.225c0.051,0.024,0.132,0.068,0.241,0.132c0.107,0.063,0.192,0.12,0.254,0.176
				c0.083,0.174,0.167,0.348,0.249,0.521c0.032,0.334-0.026,0.648-0.176,0.946c-0.129,0.231-0.281,0.393-0.46,0.478
				c-0.069,0.042-0.198,0.091-0.386,0.149c-0.189,0.059-0.318,0.108-0.386,0.149c-0.137,0.082-0.285,0.139-0.443,0.161
				c-0.079,0.014-0.208,0.003-0.389-0.03c-0.183,0.187-0.608,0.333-1.275,0.45c-0.392,0.07-0.784,0.145-1.174,0.221
				c-0.157,0.03-0.428,0.091-0.811,0.184c-0.383,0.096-0.689,0.168-0.922,0.219c-0.136,0.029-0.271,0.059-0.406,0.087
				c-0.167,0.006-0.359,0.05-0.579,0.132c-0.115,0.024-0.263,0.053-0.442,0.076c-0.181,0.026-0.309,0.049-0.385,0.065
				c-0.077,0.019-0.181,0.053-0.307,0.099c-0.128,0.051-0.229,0.081-0.307,0.101c-0.076,0.019-0.186,0.039-0.325,0.057
				c-0.142,0.021-0.23,0.034-0.269,0.043c-0.19,0.048-0.312,0.112-0.359,0.189c0.064,0.05,0.125,0.134,0.178,0.25
				c-0.188,0.146-0.292,0.241-0.315,0.279c0.052,0.021,0.109,0.104,0.177,0.248c0.021,0.094,0.043,0.187,0.065,0.278
				c0.026,0.059,0.016,0.128-0.032,0.206s-0.066,0.132-0.052,0.162c0.051,0.019,0.064,0.049,0.04,0.087
				c0.044,0.005,0.088,0.01,0.132,0.015c0.039-0.011,0.063-0.001,0.078,0.029c0.115,0.165,0.31,0.523,0.576,1.072
				c0.267,0.553,0.51,0.942,0.732,1.178c-0.006,0.263-0.017,0.428-0.026,0.497c0.062,0.048,0.128,0.063,0.201,0.044
				s0.113-0.017,0.126,0.014c0.102,0.233,0.151,0.398,0.153,0.497c0.169,0.116,0.29,0.264,0.364,0.438
				c0.086,0.205,0.082,0.434-0.009,0.686c0.024,0.06,0.043,0.127,0.057,0.205c0.013,0.077,0.025,0.133,0.037,0.161
				c0.072,0.174,0.19,0.409,0.353,0.706c0.16,0.296,0.264,0.503,0.312,0.619c0.06,0.146,0.09,0.266,0.09,0.363
				c0.254,0.058,0.483,0.153,0.689,0.291c0.104-0.029,0.254-0.078,0.455-0.149c0.2-0.071,0.336-0.114,0.404-0.133
				c0.172-0.046,0.375-0.066,0.603-0.063c0.324-0.146,0.593-0.244,0.802-0.295c0.179-0.027,0.358-0.057,0.539-0.084
				c0.044,0.022,0.166,0.04,0.36,0.059c0.195,0.018,0.319,0.051,0.375,0.101c0.069-0.016,0.14-0.032,0.209-0.048
				c0.045,0.022,0.197,0.081,0.457,0.18c0.258,0.101,0.46,0.149,0.609,0.146c0.028,0.089,0.127,0.157,0.294,0.218
				c-0.051,0.073-0.03,0.161,0.06,0.267c0.091,0.104,0.139,0.172,0.148,0.2c0.009,0.029,0.018,0.06,0.027,0.088
				c-0.051,0.072-0.102,0.146-0.15,0.218c0.019,0.061,0.003,0.154-0.045,0.291c-0.049,0.135-0.059,0.244-0.031,0.332
				c-0.023,0.037-0.087,0.066-0.189,0.091c0.004,0.125-0.035,0.287-0.113,0.491c-0.223,0.1-0.445,0.199-0.666,0.302
				c-0.067,0.017-0.164,0.056-0.286,0.116c-0.049,0.075-0.105,0.121-0.172,0.139c-0.102,0.024-0.223,0.041-0.366,0.046
				c-0.144,0.006-0.265,0.02-0.365,0.047c-0.162,0.059-0.321,0.118-0.482,0.178c-0.05,0.015-0.101,0.027-0.15,0.041
				c-0.065,0.019-0.163,0.029-0.288,0.031c-0.128,0.005-0.207,0.011-0.24,0.019c-0.099,0.028-0.159,0.063-0.182,0.101
				c-0.068,0.115-0.058,0.289,0.026,0.521c0.011,0.029,0.022,0.09,0.039,0.183c0.015,0.091,0.032,0.166,0.054,0.224
				c0.042,0.116,0.116,0.271,0.222,0.465c0.104,0.192,0.171,0.333,0.203,0.419c0.057,0.159,0.111,0.319,0.167,0.479
				c0.107,0.002,0.391,0.004,0.853,0.017c0.459,0.011,0.789,0.057,0.985,0.127c0.064-0.018,0.11-0.037,0.139-0.061
				c0.027-0.022,0.058-0.039,0.09-0.048c0.316,0.01,0.668-0.036,1.056-0.135c0.291-0.071,0.654-0.193,1.095-0.356
				c0.031-0.008,0.129,0.031,0.293,0.116c0.099-0.023,0.293-0.093,0.596-0.203c0.298-0.112,0.529-0.184,0.695-0.217
				c0.23-0.05,0.423-0.044,0.577,0.017c0.019-0.063,0.1-0.086,0.242-0.069c0.143,0.018,0.231,0.022,0.264,0.017
				c0.033-0.008,0.066-0.014,0.1-0.02c0.04,0.021,0.081,0.046,0.121,0.066c0.037,0.009,0.072,0.017,0.109,0.023
				c0.159,0.016,0.318,0.03,0.478,0.046c0.174,0.147,0.274,0.279,0.303,0.395c0.039,0.021,0.117,0.061,0.231,0.114
				c0.116,0.054,0.193,0.093,0.232,0.114c0.078,0.048,0.146,0.195,0.205,0.453c0.052,0.23,0.054,0.393,0.008,0.488
				c-0.042,0.038-0.084,0.075-0.126,0.113c-0.162,0.326-0.315,0.536-0.463,0.622c-0.131,0.085-0.261,0.171-0.391,0.258
				c-0.08,0.016-0.16,0.032-0.239,0.049c-0.095,0.021-0.199,0.079-0.308,0.177c-0.109,0.101-0.196,0.155-0.259,0.169
				c-0.063,0.015-0.128,0.021-0.194,0.021c-0.067,0-0.117,0.003-0.147,0.011c-0.029,0.007-0.083,0.063-0.157,0.17
				c-0.093,0.021-0.216,0.097-0.366,0.222c-0.149,0.127-0.27,0.216-0.354,0.268c-0.063,0.016-0.202,0.056-0.414,0.125
				c-0.213,0.068-0.378,0.133-0.494,0.194c-0.23,0.119-0.47,0.214-0.715,0.279c-0.184,0.051-0.31,0.07-0.379,0.06
				c-0.042,0.025-0.083,0.054-0.125,0.081c-0.052,0.046-0.09,0.089-0.112,0.125c-0.069-0.011-0.166,0-0.286,0.035
				c-0.062,0.019-0.15,0.051-0.268,0.102c-0.117,0.05-0.207,0.085-0.266,0.103c-0.032,0.01-0.076,0.023-0.138,0.041
				c-0.02-0.011-0.038-0.021-0.059-0.029c-0.03,0.01-0.073,0.028-0.129,0.063c-0.057,0.031-0.1,0.054-0.129,0.063
				c-0.081,0.056-0.273,0.131-0.572,0.227c-0.21,0.066-0.419,0.134-0.628,0.202c-0.101,0.096-0.166,0.149-0.195,0.159
				c-0.08,0.059-0.208,0.118-0.385,0.179c-0.267,0.092-0.463,0.145-0.59,0.156c-0.059,0.068-0.118,0.14-0.176,0.209
				c-0.146,0.052-0.354,0.143-0.62,0.273c-0.268,0.132-0.471,0.227-0.616,0.28c-0.173,0.067-0.323,0.107-0.448,0.126
				c-0.081-0.037-0.265-0.046-0.557-0.028s-0.495-0.034-0.609-0.155c-0.058,0.022-0.152,0.014-0.288-0.032
				c-0.136-0.043-0.251-0.064-0.351-0.057c-0.126-0.148-0.352-0.249-0.676-0.299c-0.326-0.05-0.531-0.089-0.612-0.121
				c-0.048-0.116-0.144-0.178-0.284-0.187c-0.024-0.059-0.061-0.119-0.104-0.186c-0.046-0.064-0.074-0.114-0.086-0.142
				c-0.155-0.039-0.367-0.133-0.646-0.288c-0.055-0.046-0.08-0.103-0.077-0.174c-0.006-0.015-0.012-0.028-0.019-0.043
				c-0.32-0.171-0.527-0.354-0.618-0.559c-0.014-0.028-0.027-0.058-0.04-0.085c-0.154-0.107-0.353-0.35-0.601-0.729
				c-0.247-0.379-0.468-0.614-0.657-0.706c-0.013-0.028-0.027-0.058-0.041-0.087c-0.028-0.058-0.105-0.145-0.235-0.263
				c-0.131-0.119-0.209-0.207-0.236-0.266c-0.014-0.063-0.026-0.129-0.039-0.192c-0.221-0.147-0.396-0.354-0.522-0.613
				c-0.085-0.173-0.191-0.373-0.323-0.597c-0.131-0.227-0.284-0.476-0.462-0.751c-0.177-0.273-0.31-0.499-0.398-0.673
				c-0.178-0.348-0.356-0.693-0.536-1.041c-0.061-0.115-0.131-0.29-0.212-0.521c-0.081-0.229-0.144-0.389-0.189-0.475
				c-0.029-0.061-0.091-0.155-0.185-0.295c-0.093-0.139-0.163-0.25-0.208-0.338c-0.077-0.145-0.123-0.268-0.135-0.367
				c-0.05-0.016-0.057-0.028-0.023-0.041c0.026-0.028,0.051-0.058,0.077-0.085c-0.676-0.888-1.128-1.518-1.335-1.895
				c-0.047-0.087-0.104-0.26-0.162-0.52c-0.017,0.008-0.034,0.015-0.05,0.021c-0.07,0.027-0.11,0.026-0.126-0.001
				c-0.098-0.173-0.248-0.46-0.449-0.855c-0.203-0.398-0.363-0.697-0.479-0.899c-0.017-0.03-0.059-0.084-0.125-0.164
				c-0.068-0.079-0.116-0.146-0.15-0.207c-0.066-0.115-0.073-0.236-0.016-0.367c-0.025-0.007-0.052-0.014-0.077-0.021
				c-0.072,0.028-0.106,0.006-0.104-0.065c-0.294-0.735-0.638-1.438-1.031-2.103c0.02-0.042,0.053-0.102,0.101-0.172
				c0.047-0.071,0.083-0.128,0.102-0.171c-0.071-0.045-0.116-0.045-0.135-0.002c-0.021,0.043-0.057,0.056-0.111,0.042
				c-0.103-0.174-0.164-0.391-0.183-0.648c-0.019-0.26-0.034-0.438-0.048-0.54c0.038-0.013,0.066-0.06,0.089-0.139
				c0.021-0.078,0.068-0.133,0.144-0.16c0.006-0.143,0.112-0.35,0.319-0.619c0.208-0.269,0.315-0.474,0.325-0.616
				c0.039-0.013,0.277-0.15,0.724-0.409c0.229-0.077,0.341-0.201,0.336-0.372c0.055,0.017,0.12,0.01,0.197-0.017
				c0.076-0.024,0.186-0.095,0.326-0.21c0.142-0.116,0.229-0.18,0.271-0.191c0.1-0.066,0.267-0.138,0.499-0.212
				c0.232-0.072,0.483-0.116,0.748-0.13c0.078-0.023,0.178-0.069,0.297-0.142c0.121-0.07,0.237-0.13,0.346-0.181
				c0.109-0.05,0.225-0.093,0.342-0.126c0.037-0.014,0.104-0.015,0.199-0.01c0.039-0.011,0.077-0.021,0.115-0.032
				c0.079-0.021,0.189-0.071,0.332-0.146c0.142-0.073,0.273-0.127,0.392-0.16c0.086-0.008,0.173-0.015,0.259-0.021
				c0.158-0.045,0.357-0.116,0.6-0.214c0.242-0.1,0.425-0.163,0.543-0.193c0.061-0.016,0.119-0.03,0.18-0.046
				C38.951,24.188,39.097,24.166,39.244,24.146z"/>
			<path fill="#73323A" d="M62.858,21.389c0.063,0,0.128,0.001,0.191,0.001c0.474,0.009,0.759,0.045,0.859,0.106
				c0.121-0.026,0.332-0.035,0.634-0.026c0.17,0.005,0.409,0.021,0.714,0.048c0.305,0.027,0.499,0.043,0.586,0.046
				c0.131,0.007,0.32,0.009,0.577,0.007c0.256,0,0.448,0.005,0.579,0.012c0.042,0.002,0.109,0.021,0.201,0.055
				c0.093,0.035,0.158,0.053,0.203,0.056c0.041,0.002,0.117,0.001,0.223-0.007c0.104-0.009,0.2-0.009,0.286-0.003
				c0.043,0.004,0.261,0.024,0.652,0.069c0.393,0.043,0.701,0.104,0.926,0.182c0.087,0.007,0.149-0.004,0.188-0.026
				c0.043,0.003,0.087,0.007,0.13,0.011c0.187,0.104,0.388,0.162,0.604,0.183c0.086,0.009,0.173,0.018,0.259,0.024
				c0.087,0.009,0.236,0.018,0.451,0.024c0.215,0.008,0.388,0.021,0.518,0.034c0.063,0.007,0.129,0.015,0.193,0.021
				c0.086,0.01,0.309,0.062,0.662,0.159c0.573,0.152,0.979,0.33,1.217,0.53c0.048,0.034,0.145,0.117,0.286,0.248
				c0.145,0.132,0.262,0.231,0.354,0.3c0.045,0.035,0.116,0.095,0.21,0.179c0.094,0.082,0.166,0.153,0.216,0.218
				c0.04,0.174,0.08,0.348,0.119,0.521c-0.053,0.303-0.195,0.563-0.421,0.784c-0.191,0.17-0.388,0.271-0.591,0.3
				c-0.082,0.021-0.227,0.03-0.434,0.033s-0.351,0.017-0.431,0.033c-0.161,0.039-0.325,0.048-0.492,0.029
				c-0.084-0.009-0.214-0.052-0.388-0.126c-0.233,0.118-0.704,0.139-1.414,0.074c-0.417-0.036-0.833-0.069-1.25-0.102
				c-0.168-0.012-0.458-0.026-0.87-0.039c-0.414-0.012-0.745-0.023-0.994-0.036c-0.146-0.008-0.29-0.016-0.436-0.022
				c-0.172-0.036-0.38-0.046-0.622-0.027c-0.124-0.006-0.281-0.019-0.471-0.04c-0.188-0.021-0.324-0.032-0.406-0.036
				c-0.083-0.001-0.196,0.003-0.339,0.013c-0.143,0.013-0.254,0.017-0.336,0.014c-0.084-0.002-0.197-0.011-0.346-0.029
				c-0.146-0.017-0.241-0.024-0.283-0.025c-0.206-0.005-0.345,0.022-0.415,0.079c0.055,0.061,0.094,0.146,0.116,0.263
				c-0.229,0.083-0.36,0.142-0.395,0.171c0.047,0.028,0.084,0.115,0.113,0.26c-0.002,0.087-0.005,0.173-0.007,0.26
				c0.012,0.06-0.018,0.116-0.086,0.174c-0.07,0.058-0.103,0.101-0.096,0.131c0.045,0.027,0.052,0.058,0.018,0.085
				c0.043,0.016,0.086,0.029,0.13,0.045c0.04,0.001,0.064,0.015,0.071,0.044c0.073,0.173,0.177,0.534,0.304,1.081
				c0.125,0.549,0.271,0.951,0.437,1.211c-0.075,0.229-0.129,0.372-0.158,0.43c0.051,0.059,0.114,0.086,0.194,0.087
				c0.078,0.001,0.119,0.015,0.125,0.043c0.042,0.229,0.049,0.388,0.024,0.475c0.143,0.143,0.229,0.301,0.257,0.473
				c0.034,0.201-0.028,0.399-0.188,0.599c0.009,0.061,0.01,0.123,0.003,0.194c-0.008,0.071-0.009,0.123-0.005,0.15
				c0.029,0.171,0.088,0.405,0.175,0.705c0.086,0.299,0.138,0.506,0.156,0.618c0.021,0.145,0.021,0.257-0.004,0.342
				c0.243,0.112,0.454,0.254,0.629,0.424c0.112,0,0.28-0.006,0.504-0.021c0.225-0.014,0.373-0.018,0.45-0.017
				c0.188,0.002,0.399,0.034,0.633,0.094c0.37-0.048,0.67-0.067,0.896-0.061c0.19,0.02,0.383,0.04,0.573,0.061
				c0.039,0.031,0.157,0.076,0.354,0.141s0.314,0.127,0.357,0.184c0.076,0.004,0.151,0.007,0.229,0.011
				c0.039,0.031,0.182,0.121,0.422,0.273c0.239,0.15,0.433,0.247,0.587,0.281c0.007,0.086,0.089,0.173,0.246,0.267
				c-0.071,0.052-0.072,0.134-0.007,0.248c0.063,0.115,0.097,0.187,0.1,0.214c0.002,0.027,0.004,0.056,0.006,0.084
				c-0.069,0.051-0.141,0.102-0.21,0.152c0.003,0.057-0.037,0.137-0.121,0.242c-0.085,0.104-0.123,0.2-0.117,0.284
				c-0.035,0.025-0.107,0.035-0.219,0.029c-0.028,0.11-0.109,0.244-0.243,0.403c-0.255,0.029-0.509,0.062-0.762,0.095
				c-0.073-0.002-0.183,0.009-0.324,0.031c-0.069,0.054-0.139,0.079-0.212,0.076c-0.109-0.003-0.241-0.021-0.388-0.051
				c-0.149-0.03-0.278-0.048-0.388-0.051c-0.182,0.012-0.362,0.023-0.543,0.035c-0.055,0-0.108,0-0.163-0.001
				c-0.073-0.001-0.176-0.016-0.306-0.044c-0.132-0.027-0.215-0.042-0.25-0.043c-0.109,0-0.182,0.015-0.214,0.042
				c-0.099,0.085-0.134,0.24-0.106,0.464c0.003,0.029-0.001,0.085-0.009,0.169c-0.009,0.084-0.01,0.153-0.003,0.21
				c0.015,0.112,0.05,0.267,0.105,0.462c0.059,0.195,0.091,0.335,0.101,0.418c0.018,0.154,0.032,0.309,0.048,0.461
				c0.108,0.028,0.399,0.101,0.871,0.228c0.472,0.125,0.8,0.246,0.983,0.357c0.07,0.002,0.123-0.004,0.158-0.018
				c0.033-0.015,0.068-0.021,0.104-0.021c0.324,0.088,0.697,0.138,1.122,0.149c0.319,0.011,0.726-0.002,1.22-0.033
				c0.036,0.002,0.128,0.062,0.273,0.177c0.107,0.006,0.327-0.004,0.666-0.023c0.335-0.021,0.594-0.022,0.772-0.01
				c0.25,0.017,0.446,0.072,0.592,0.166c0.034-0.052,0.125-0.051,0.268,0.002c0.145,0.052,0.233,0.079,0.271,0.083
				c0.035,0.003,0.07,0.006,0.105,0.01c0.036,0.028,0.072,0.062,0.107,0.09c0.036,0.018,0.072,0.034,0.107,0.051
				c0.16,0.056,0.32,0.11,0.481,0.166c0.143,0.175,0.212,0.316,0.211,0.424c0.036,0.03,0.107,0.085,0.212,0.162
				c0.105,0.078,0.176,0.133,0.213,0.163c0.068,0.063,0.103,0.211,0.098,0.451c-0.005,0.216-0.044,0.358-0.114,0.431
				c-0.053,0.021-0.105,0.043-0.159,0.065c-0.25,0.243-0.462,0.386-0.636,0.422c-0.157,0.04-0.314,0.081-0.472,0.122
				c-0.086-0.007-0.173-0.014-0.26-0.021c-0.104-0.007-0.226,0.019-0.364,0.074c-0.139,0.06-0.241,0.085-0.311,0.08
				s-0.139-0.015-0.206-0.033c-0.07-0.018-0.122-0.027-0.155-0.027c-0.034-0.003-0.104,0.031-0.206,0.106
				c-0.102-0.006-0.25,0.027-0.437,0.1c-0.188,0.07-0.332,0.117-0.435,0.141c-0.068-0.003-0.224-0.002-0.461,0.003
				s-0.425,0.02-0.561,0.044c-0.271,0.045-0.541,0.065-0.813,0.063c-0.203-0.003-0.34-0.019-0.406-0.047
				c-0.052,0.014-0.103,0.026-0.151,0.039c-0.067,0.027-0.117,0.056-0.148,0.081c-0.069-0.025-0.171-0.042-0.306-0.041
				c-0.066,0-0.169,0.007-0.303,0.021c-0.135,0.014-0.235,0.021-0.303,0.021c-0.033,0-0.084,0.001-0.15,0.001
				c-0.018-0.014-0.035-0.026-0.053-0.041c-0.034,0.003-0.084,0.009-0.15,0.023s-0.117,0.022-0.148,0.023
				c-0.101,0.026-0.316,0.046-0.651,0.055c-0.234,0.006-0.468,0.013-0.702,0.021c-0.13,0.06-0.21,0.091-0.244,0.094
				c-0.098,0.029-0.245,0.051-0.443,0.06c-0.301,0.015-0.518,0.013-0.652-0.009c-0.079,0.047-0.157,0.094-0.236,0.14
				c-0.165,0.01-0.401,0.039-0.712,0.089c-0.312,0.051-0.548,0.083-0.711,0.098c-0.197,0.017-0.363,0.016-0.498,0.001
				c-0.072-0.053-0.261-0.104-0.566-0.159c-0.307-0.055-0.5-0.149-0.587-0.283c-0.066,0.007-0.162-0.023-0.288-0.097
				c-0.13-0.07-0.244-0.117-0.348-0.134c-0.091-0.16-0.297-0.304-0.618-0.424c-0.321-0.121-0.521-0.202-0.598-0.252
				c-0.02-0.112-0.101-0.188-0.242-0.229c-0.01-0.058-0.031-0.119-0.059-0.188c-0.03-0.066-0.047-0.117-0.052-0.145
				c-0.147-0.07-0.343-0.203-0.585-0.404c-0.045-0.053-0.057-0.107-0.033-0.171c-0.002-0.014-0.005-0.028-0.008-0.042
				c-0.283-0.225-0.446-0.437-0.486-0.636c-0.005-0.028-0.011-0.058-0.018-0.085c-0.13-0.13-0.269-0.39-0.421-0.779
				c-0.152-0.391-0.313-0.648-0.482-0.773c-0.006-0.027-0.014-0.058-0.02-0.086c-0.013-0.058-0.069-0.15-0.17-0.285
				c-0.102-0.136-0.159-0.229-0.172-0.287c0.004-0.061,0.008-0.119,0.013-0.181c-0.185-0.181-0.308-0.402-0.369-0.66
				c-0.04-0.172-0.096-0.371-0.168-0.599c-0.075-0.229-0.164-0.484-0.271-0.768c-0.107-0.282-0.183-0.512-0.226-0.686
				c-0.087-0.346-0.176-0.691-0.267-1.04c-0.031-0.114-0.055-0.285-0.076-0.506c-0.021-0.221-0.041-0.375-0.064-0.461
				c-0.015-0.06-0.052-0.158-0.108-0.303c-0.058-0.143-0.098-0.258-0.123-0.347c-0.038-0.144-0.051-0.262-0.037-0.354
				c-0.045-0.024-0.049-0.038-0.012-0.042c0.033-0.019,0.066-0.038,0.101-0.057c-0.448-0.936-0.736-1.595-0.846-1.974
				c-0.023-0.088-0.034-0.253-0.023-0.495c-0.021,0.003-0.039,0.006-0.059,0.009c-0.077,0.009-0.119-0.002-0.128-0.03
				c-0.05-0.175-0.125-0.461-0.222-0.856c-0.101-0.396-0.181-0.696-0.242-0.9c-0.009-0.03-0.037-0.088-0.083-0.173
				c-0.048-0.085-0.08-0.156-0.097-0.218c-0.036-0.116-0.011-0.226,0.082-0.327c-0.024-0.012-0.049-0.023-0.073-0.035
				c-0.079,0.009-0.107-0.019-0.085-0.081c-0.1-0.715-0.257-1.412-0.475-2.087c0.03-0.033,0.079-0.076,0.146-0.128
				c0.067-0.054,0.116-0.096,0.148-0.129c-0.061-0.056-0.105-0.065-0.138-0.032c-0.03,0.033-0.072,0.037-0.122,0.012
				c-0.058-0.176-0.061-0.38-0.01-0.612c0.052-0.231,0.083-0.395,0.096-0.486c0.041-0.004,0.082-0.038,0.126-0.103
				c0.042-0.063,0.104-0.102,0.188-0.107c0.043-0.125,0.206-0.283,0.486-0.474c0.28-0.189,0.443-0.345,0.491-0.47
				c0.041-0.003,0.318-0.07,0.839-0.195c0.251-0.016,0.396-0.1,0.438-0.251c0.05,0.026,0.118,0.036,0.203,0.031
				c0.083-0.005,0.212-0.041,0.383-0.11c0.174-0.068,0.28-0.104,0.324-0.105c0.118-0.035,0.305-0.061,0.559-0.07
				c0.253-0.01,0.518,0.009,0.788,0.061c0.085-0.005,0.197-0.021,0.337-0.057c0.142-0.033,0.272-0.06,0.396-0.079
				c0.124-0.017,0.249-0.026,0.376-0.029c0.042-0.002,0.109,0.014,0.205,0.038c0.042-0.001,0.084-0.001,0.126-0.002
				c0.085-0.001,0.209-0.018,0.373-0.05c0.162-0.031,0.309-0.048,0.436-0.05c0.089,0.015,0.179,0.028,0.269,0.042
				c0.171-0.002,0.39-0.017,0.662-0.045c0.271-0.03,0.471-0.043,0.6-0.042c0.063,0.001,0.129,0.002,0.193,0.003
				C62.551,21.355,62.705,21.372,62.858,21.389z"/>
			<path fill="#73323A" d="M85.397,24.536c0.064,0.059,0.132,0.116,0.198,0.176c0.173,0.021,0.435,0.073,0.781,0.167
				c0.35,0.096,0.851,0.303,1.498,0.627c0.649,0.326,1.168,0.552,1.558,0.67c0.041,0.04,0.104,0.089,0.19,0.142
				c0.021,0.021,0.043,0.041,0.063,0.063c0.13,0.04,0.237,0.06,0.325,0.061c0.042,0.041,0.533,0.357,1.463,0.967
				c0.086,0.028,0.149,0.044,0.193,0.045c0.043,0.001,0.088,0.008,0.131,0.021c0.083,0.055,0.199,0.145,0.346,0.26
				c0.146,0.12,0.261,0.193,0.348,0.225c-0.001,0.024,0.016,0.06,0.058,0.101c0.041,0.043,0.063,0.077,0.061,0.104
				c0.66,0.529,1.102,1.005,1.326,1.415c0.035,0.068,0.105,0.135,0.21,0.199c0.103,0.064,0.151,0.11,0.149,0.138
				c-0.003,0.026,0.004,0.068,0.021,0.131c0.015,0.061,0.019,0.118,0.016,0.169c0.597,0.549,0.876,0.958,0.846,1.219
				c-0.027,0.045-0.056,0.09-0.083,0.135c0.033,0.067,0.095,0.116,0.178,0.148c0.061,0.036,0.121,0.073,0.182,0.11
				c0.073,0.108,0.121,0.251,0.143,0.425c0.021,0.17,0.051,0.275,0.088,0.317c-0.018,0.131-0.034,0.261-0.053,0.391
				c-0.004,0.025,0.023,0.058,0.083,0.093c0.061,0.038,0.105,0.09,0.142,0.157c-0.006,0.039-0.012,0.078-0.019,0.117
				c-0.031,0.232-0.072,0.365-0.122,0.399c0.037,0.043,0.04,0.181,0.006,0.411c-0.014,0.077,0.006,0.18,0.05,0.305
				c0.045,0.127,0.063,0.229,0.05,0.306c-0.013,0.076-0.043,0.132-0.091,0.169c-0.008,0.052,0.025,0.099,0.104,0.142
				c0.079,0.045,0.115,0.081,0.111,0.105c0.012,0.193-0.01,0.457-0.065,0.788c-0.043,0.253-0.096,0.436-0.155,0.547
				c-0.079-0.03-0.158-0.062-0.237-0.091c0.146,0.258,0.29,0.517,0.433,0.773c0.029,0.066,0.003,0.097-0.081,0.091
				c-0.048,0.035-0.072,0.065-0.076,0.09c0.045,0.207,0.02,0.348-0.076,0.415c0.059,0.132,0.063,0.323,0.016,0.573
				c-0.043,0.225-0.097,0.393-0.159,0.502c0.023,0.089,0.09,0.17,0.201,0.238c-0.042,0.01-0.07,0.04-0.079,0.089
				c-0.041,0.199-0.084,0.305-0.126,0.313c0.027,0.064,0.035,0.134,0.02,0.209c-0.044,0.115-0.089,0.231-0.135,0.349
				c0.047,0.178,0.062,0.304,0.044,0.378c-0.023,0.019-0.048,0.034-0.07,0.052c-0.05,0.035-0.099,0.069-0.146,0.105
				c-0.042,0.196-0.104,0.292-0.185,0.288c0.025,0.063,0.03,0.144,0.009,0.242c-0.021,0.101-0.076,0.212-0.165,0.337
				c-0.089,0.126-0.141,0.226-0.157,0.299c-0.026,0.123-0.026,0.215-0.001,0.278c-0.126,0.191-0.188,0.301-0.194,0.323
				c-0.007,0.025-0.114,0.063-0.325,0.116c0.03,0.037,0.038,0.095,0.021,0.166c-0.011,0.05-0.063,0.102-0.155,0.161
				c-0.095,0.059-0.143,0.1-0.146,0.123c-0.009,0.037-0.018,0.073-0.026,0.11c-0.083,0.363-0.302,0.533-0.651,0.515
				c0.013,0.03,0.024,0.061,0.038,0.092c-0.006,0.024-0.012,0.049-0.018,0.073c-0.04,0.17-0.233,0.243-0.582,0.228
				c-0.011,0.049-0.031,0.102-0.063,0.154c-0.033,0.054-0.033,0.1-0.004,0.137c-0.262,0.119-0.426,0.245-0.494,0.378
				c-0.232,0.001-0.363,0.074-0.398,0.221c-0.248,0.072-0.417,0.147-0.509,0.223c-0.721-0.027-1.215,0.082-1.49,0.311
				c-0.035-0.012-0.128-0.014-0.279-0.007c-0.132,0.089-0.404,0.145-0.817,0.168c-0.415,0.023-0.678,0.063-0.798,0.106
				c-0.04,0.014-0.078,0.017-0.111,0.008c-0.035-0.01-0.071-0.019-0.104-0.028c-0.086,0.055-0.221,0.084-0.403,0.087
				c-0.183,0.001-0.313,0.021-0.392,0.052c-0.069-0.019-0.141-0.035-0.209-0.055c-0.141-0.034-0.31-0.054-0.51-0.05
				c-0.198,0.001-0.351-0.008-0.455-0.033c-0.068-0.017-0.234-0.038-0.502-0.062c-0.267-0.024-0.502-0.06-0.71-0.104
				c-0.017-0.004-0.032-0.008-0.051-0.012c-0.065-0.041-0.116-0.063-0.148-0.072c-0.121-0.025-0.242-0.053-0.364-0.078
				c-0.344-0.074-0.597-0.179-0.755-0.313c-0.034-0.007-0.068-0.015-0.104-0.021c-0.139-0.026-0.338-0.119-0.603-0.272
				c-0.672-0.287-1.14-0.539-1.396-0.768c-0.581-0.206-0.968-0.411-1.16-0.625c-0.314-0.051-0.562-0.26-0.747-0.63
				c0.004-0.024-0.031-0.057-0.1-0.095c-0.034-0.018-0.068-0.036-0.103-0.055c-0.026-0.135-0.146-0.346-0.359-0.628
				c-0.216-0.282-0.32-0.518-0.311-0.701c-0.019-0.002-0.035-0.005-0.055-0.008c-0.033-0.029-0.051-0.062-0.05-0.086
				c-0.032-0.084-0.063-0.176-0.095-0.273c-0.032-0.097-0.063-0.209-0.096-0.333c-0.029-0.124-0.063-0.217-0.098-0.272
				c-0.033-0.06-0.066-0.117-0.102-0.177c-0.034-0.082-0.041-0.178-0.019-0.28c0.021-0.105,0.031-0.185,0.034-0.238
				c0-0.025-0.025-0.063-0.079-0.11c-0.053-0.048-0.08-0.085-0.078-0.11c0.001-0.027,0.001-0.073,0.003-0.142
				c0.002-0.065-0.017-0.115-0.051-0.146c0-0.028-0.008-0.063-0.024-0.104c-0.018-0.043-0.025-0.092-0.024-0.146
				c0.001-0.055,0.002-0.106,0.003-0.16s-0.007-0.136-0.023-0.245c-0.017-0.11-0.022-0.207-0.021-0.286
				c-0.034-0.167-0.041-0.391-0.021-0.672c0.021-0.28,0.031-0.476,0.032-0.583c0.001-0.108,0.021-0.173,0.059-0.195
				c-0.001-0.024-0.056-0.304-0.171-0.837c0.001-0.025,0.021-0.051,0.058-0.072s0.057-0.047,0.057-0.074
				c-0.019-0.017-0.038-0.032-0.057-0.048c-0.04-0.032-0.06-0.132-0.062-0.296c-0.038-0.222-0.062-0.645-0.071-1.275
				c-0.001-0.054,0.017-0.127,0.053-0.217c0.037-0.091,0.056-0.148,0.055-0.177c-0.002-0.096-0.004-0.19-0.006-0.286
				c-0.005-0.233-0.011-0.468-0.017-0.701c-0.005-0.191,0.009-0.343,0.046-0.444c-0.003-0.083,0.014-0.188,0.05-0.322
				c0.034-0.132,0.052-0.225,0.049-0.279c-0.003-0.11-0.007-0.223-0.011-0.332c-0.006-0.166,0.023-0.436,0.088-0.812
				c0.064-0.374,0.094-0.633,0.088-0.771c0.05-0.653,0.11-1.017,0.189-1.086c-0.043-0.063-0.067-0.137-0.071-0.22
				c-0.006-0.11,0.027-0.245,0.102-0.397c-0.002-0.027-0.016-0.085-0.04-0.173c-0.025-0.087-0.039-0.159-0.044-0.216
				c-0.007-0.139,0.024-0.287,0.099-0.44c-0.012-0.195,0.001-0.345,0.036-0.45c-0.027-0.421-0.03-0.755-0.004-1.001
				c0.076-0.098,0.111-0.188,0.105-0.272c-0.005-0.057-0.021-0.145-0.05-0.26c-0.03-0.115-0.046-0.188-0.048-0.218
				c-0.006-0.084,0.011-0.15,0.049-0.199c-0.006-0.085-0.054-0.163-0.146-0.233c-0.005-0.058,0.033-0.112,0.113-0.169
				c0.08-0.056,0.121-0.098,0.118-0.126c0.188-0.051,0.375-0.102,0.563-0.149c0.042,0.008,0.104,0.013,0.191,0.016
				c0.085,0.001,0.169,0.004,0.257,0.006c0.084,0.004,0.146-0.008,0.188-0.025c0.085-0.013,0.199-0.046,0.347-0.103
				c0.146-0.055,0.26-0.088,0.348-0.099c0.43,0.06,0.838,0.06,1.223,0.002c0.17,0.009,0.344,0.032,0.52,0.069
				c0.041,0.01,0.107,0.011,0.194,0.001c0.043-0.004,0.085-0.008,0.128-0.011c0.087,0.019,0.174,0.037,0.261,0.058
				c0.043,0.009,0.163,0.029,0.358,0.06c0.195,0.032,0.358,0.063,0.489,0.094c0.174,0.042,0.306,0.101,0.395,0.177
				c0.127-0.052,0.29-0.063,0.485-0.027c0.194,0.035,0.423,0.083,0.686,0.148C85.005,24.476,85.223,24.519,85.397,24.536z
				 M78.447,32.453c0.001,0.042,0.002,0.084,0.003,0.125c0.038,0.006,0.077-0.001,0.117-0.021
				C78.565,32.502,78.526,32.468,78.447,32.453z M86.515,29.043c-0.085-0.023-0.318,0.037-0.698,0.184
				c0,0.028,0.029,0.063,0.091,0.105c0.063,0.045,0.093,0.094,0.09,0.146c-0.086,0.088-0.13,0.172-0.132,0.255
				c-0.003,0.108,0.033,0.254,0.111,0.438c-0.18,0.335-0.292,0.606-0.339,0.813c-0.001,0.027,0.025,0.067,0.086,0.125
				c0.061,0.056,0.091,0.099,0.088,0.125c-0.248,0.044-0.377,0.189-0.387,0.431c-0.005,0.082,0.012,0.208,0.045,0.379
				c0.031,0.171,0.048,0.298,0.044,0.378c0.063,0.763,0.119,1.521,0.168,2.274c-0.012,0.158,0.003,0.404,0.035,0.736
				c0.035,0.332,0.047,0.563,0.034,0.693c-0.028,0.127-0.06,0.254-0.09,0.381c-0.007,0.078,0.008,0.136,0.044,0.172
				c-0.085,0.058-0.142,0.285-0.177,0.678c-0.003,0.026-0.006,0.054-0.009,0.079c-0.002,0.025-0.025,0.073-0.071,0.143
				c-0.046,0.068-0.068,0.116-0.07,0.145c-0.006,0.052-0.005,0.139,0.004,0.26c0.008,0.123,0.01,0.21,0.005,0.262
				c-0.005,0.039-0.01,0.077-0.014,0.116c-0.005,0.054-0.02,0.11-0.045,0.171c-0.024,0.061-0.039,0.104-0.041,0.129
				c-0.006,0.052,0.021,0.165,0.08,0.339c-0.007,0.063-0.014,0.129-0.021,0.193c-0.019,0.156,0.087,0.341,0.312,0.556
				c0.222,0.215,0.425,0.345,0.61,0.393c0.225,0.031,0.417,0.017,0.579-0.048c0.142-0.056,0.282-0.11,0.426-0.165
				c0.007-0.05,0.063-0.115,0.17-0.192c0.104-0.075,0.165-0.152,0.175-0.229c0.104-0.209,0.256-0.327,0.454-0.35
				c0.004-0.025,0.055-0.119,0.154-0.276c0.036-0.282,0.169-0.55,0.398-0.805c0.011-0.077,0.02-0.153,0.028-0.23
				c0.039-0.311,0.133-0.591,0.281-0.84c0.004-0.026-0.022-0.063-0.076-0.104c-0.055-0.042-0.062-0.085-0.018-0.124
				c0.142-0.87,0.145-1.811-0.009-2.83c-0.04-0.471-0.14-0.771-0.293-0.897c0.061-0.254-0.115-0.848-0.558-1.79
				c-0.151-0.262-0.226-0.459-0.217-0.594c0.002-0.04,0.005-0.08,0.007-0.12c-0.077-0.132-0.154-0.263-0.231-0.396
				c0.041-0.014,0.063-0.033,0.064-0.063c-0.084-0.023-0.164-0.073-0.245-0.15c0.003-0.082-0.053-0.187-0.176-0.314
				c-0.119-0.13-0.201-0.24-0.239-0.333C86.742,29.146,86.598,29.065,86.515,29.043z M85.429,41.395
				c-0.017,0.128-0.01,0.209,0.024,0.243c0.227-0.022,0.342-0.048,0.346-0.074C85.663,41.478,85.538,41.421,85.429,41.395z"/>
		</g>
	</g>
	<g>
		<path fill="#73323A" d="M10.203,16.352c0.511,0.737,1.434,1.994,2.763,3.771c1.287,1.724,2.209,3.001,2.767,3.831
			c0.033,0.058,0.17,0.282,0.41,0.678c0.187,0.317,0.346,0.556,0.478,0.716c0.337,0.455,0.622,0.691,0.854,0.705
			c0.318,0.011,0.638-0.285,0.956-0.89c0.237-0.439,0.461-1.045,0.67-1.815c0.034-0.148,0.121-0.258,0.256-0.326
			c0.133-0.066,0.271-0.078,0.414-0.031c0.142,0.045,0.248,0.142,0.317,0.287c0.07,0.146,0.088,0.296,0.054,0.443
			c-0.233,0.848-0.486,1.531-0.759,2.052c-0.522,0.991-1.163,1.471-1.921,1.435c-0.552-0.024-1.111-0.416-1.681-1.175
			c-0.146-0.195-0.323-0.469-0.534-0.818c-0.234-0.383-0.365-0.59-0.389-0.623l-0.545-0.794c-0.827,0.304-1.939,0.75-3.337,1.337
			c-0.006,0.918-0.068,2.411-0.188,4.479c-0.01,0.154-0.064,0.283-0.167,0.388c-0.063,0.215-0.206,0.332-0.425,0.354
			c-0.071,0.013-0.196,0.035-0.374,0.07c-0.143,0.021-0.261,0.029-0.352,0.021c-0.08-0.013-0.188-0.05-0.324-0.111L9.029,30.27
			c-0.08-0.014-0.159-0.039-0.236-0.081c-0.167-0.078-0.279-0.202-0.34-0.374c-0.052-0.146-0.055-0.28-0.011-0.405
			c0.018-0.062,0.044-0.111,0.08-0.15c-0.148-3.479,0-7.568,0.445-12.268c0.02-0.198,0.106-0.347,0.263-0.441
			c0.028-0.133,0.097-0.246,0.203-0.338c0.122-0.084,0.257-0.114,0.403-0.09C9.984,16.144,10.106,16.221,10.203,16.352z
			 M10.989,23.875c1.041-0.448,1.92-0.806,2.635-1.069l-1.497-1.998l-1.279-1.706c-0.003,0.425,0.008,0.921,0.028,1.488
			c0.006,0.229,0.021,0.557,0.042,0.979c0.022,0.424,0.038,0.813,0.049,1.163l0.016,0.96L10.989,23.875z"/>
		<path fill="#73323A" d="M19.888,18.533c0.045,0.162,0.128,0.525,0.251,1.092c0.123,0.565,0.26,1.138,0.411,1.714
			c0.152,0.575,0.314,1.094,0.488,1.553c0.306,0.796,0.604,1.301,0.893,1.515c0.111,0.068,0.218,0.102,0.316,0.094
			c0.166-0.03,0.354-0.159,0.566-0.384c0.047-0.044,0.097-0.081,0.147-0.114c0.206-0.455,0.372-0.917,0.498-1.386
			c0.226-0.872,0.359-2.015,0.407-3.428c0.004-0.166,0.063-0.299,0.172-0.398c0.11-0.102,0.239-0.146,0.388-0.137
			s0.272,0.075,0.373,0.197s0.15,0.259,0.152,0.408c-0.037,1.478-0.188,2.722-0.451,3.729c-0.136,0.516-0.331,1.056-0.586,1.623
			c-0.255,0.568-0.556,1.045-0.9,1.427c-0.471,0.532-0.977,0.8-1.52,0.799c-0.63,0.003-1.24-0.353-1.831-1.062
			c-0.228-0.29-0.489-0.889-0.782-1.799c-0.235-0.71-0.492-1.619-0.769-2.727c-0.532-2.125-0.862-3.681-0.991-4.66
			c-0.097-0.705-0.133-1.418-0.106-2.138c0.011-0.511,0.058-0.933,0.144-1.264c0.147-0.517,0.396-0.836,0.743-0.959
			c0.213-0.074,0.447-0.055,0.703,0.063l0.209,0.11l0.13,0.1c0.767,0.456,1.238,1.242,1.415,2.355
			c0.146,0.921,0.063,1.783-0.246,2.591c-0.065,0.175-0.209,0.43-0.432,0.768C19.788,18.302,19.857,18.408,19.888,18.533z
			 M18.928,13.965c-0.002,0.068-0.012,0.202-0.029,0.4l-0.021,0.377l-0.031,0.339c-0.018,0.17-0.026,0.304-0.03,0.399
			c-0.004,0.099-0.007,0.215-0.009,0.354l0.021,0.383c0.005,0.121,0.019,0.247,0.038,0.377l0.094,0.644
			c0.082-0.123,0.135-0.21,0.154-0.259c0.227-0.612,0.284-1.276,0.173-1.989C19.233,14.583,19.114,14.242,18.928,13.965z"/>
		<path fill="#73323A" d="M25.502,16.563c0.045,0.162,0.129,0.525,0.251,1.093c0.124,0.565,0.262,1.137,0.412,1.713
			c0.152,0.575,0.315,1.094,0.488,1.553c0.306,0.797,0.603,1.301,0.892,1.514c0.113,0.07,0.22,0.103,0.317,0.094
			c0.166-0.029,0.354-0.157,0.566-0.383c0.048-0.045,0.097-0.082,0.148-0.114c0.206-0.455,0.371-0.916,0.498-1.387
			c0.225-0.872,0.359-2.014,0.406-3.427c0.005-0.166,0.063-0.299,0.172-0.398c0.11-0.102,0.239-0.146,0.389-0.137
			c0.147,0.01,0.272,0.075,0.372,0.197c0.102,0.123,0.15,0.259,0.153,0.408c-0.037,1.478-0.188,2.722-0.452,3.729
			c-0.136,0.515-0.331,1.055-0.586,1.623s-0.555,1.043-0.901,1.425c-0.469,0.533-0.975,0.801-1.518,0.8
			c-0.631,0.003-1.241-0.352-1.831-1.062c-0.229-0.29-0.489-0.889-0.783-1.799c-0.236-0.71-0.493-1.619-0.768-2.727
			c-0.532-2.126-0.862-3.681-0.993-4.66c-0.096-0.705-0.132-1.418-0.106-2.139c0.012-0.51,0.06-0.932,0.146-1.263
			c0.146-0.517,0.394-0.836,0.743-0.958c0.213-0.075,0.446-0.055,0.703,0.061l0.209,0.111l0.129,0.099
			c0.768,0.456,1.237,1.242,1.415,2.356c0.146,0.921,0.063,1.783-0.245,2.59c-0.066,0.175-0.21,0.431-0.434,0.769
			C25.403,16.33,25.471,16.437,25.502,16.563z M24.543,11.993c-0.002,0.067-0.012,0.201-0.03,0.4l-0.02,0.376l-0.032,0.339
			c-0.016,0.172-0.024,0.306-0.029,0.4c-0.003,0.098-0.008,0.215-0.01,0.353l0.021,0.384c0.004,0.122,0.017,0.247,0.037,0.377
			l0.094,0.644c0.082-0.123,0.135-0.21,0.155-0.259c0.227-0.613,0.284-1.276,0.173-1.99C24.848,12.611,24.728,12.271,24.543,11.993z
			"/>
		<path fill="#73323A" d="M41.196,19.509c-0.242,0.099-0.915,0.342-2.017,0.729c-0.786,0.275-1.413,0.544-1.878,0.803
			c-0.126,0.071-0.263,0.081-0.405,0.028c-0.146-0.052-0.255-0.148-0.331-0.294c-0.076-0.145-0.093-0.292-0.051-0.443
			c0.041-0.151,0.131-0.266,0.268-0.341c0.258-0.132,0.533-0.263,0.828-0.394c-0.234-0.67-0.804-2.245-1.707-4.727
			c-0.902-2.482-1.58-4.403-2.033-5.764c-0.164,0.071-0.326,0.148-0.486,0.231c-0.13,0.061-0.265,0.063-0.403,0.009
			c-0.14-0.054-0.243-0.153-0.313-0.3c-0.069-0.146-0.085-0.292-0.041-0.438c0.044-0.146,0.136-0.256,0.271-0.332
			c0.496-0.241,1.587-0.658,3.272-1.252c0.136-0.047,0.271-0.032,0.412,0.041c0.14,0.074,0.234,0.186,0.286,0.33
			c0.052,0.146,0.046,0.293-0.018,0.438s-0.161,0.241-0.296,0.289L35.963,8.33c0.01,0.023,0.014,0.051,0.011,0.079
			c0.019,0.089,0.011,0.175-0.024,0.255l3.484,9.922c0.038,0.108,0.044,0.217,0.018,0.322c0.555-0.183,0.985-0.341,1.292-0.475
			c0.142-0.063,0.282-0.062,0.419,0.007c0.138,0.067,0.239,0.177,0.304,0.324c0.063,0.147,0.067,0.293,0.012,0.438
			C41.421,19.346,41.327,19.449,41.196,19.509z"/>
	</g>
	<g>
		<path fill="#73323A" d="M46.445,50.984c0.025-0.046,0.058-0.094,0.095-0.143c0.097-0.115,0.217-0.173,0.363-0.174
			c0.146-0.002,0.277,0.059,0.391,0.178c0.028,0.021,0.074,0.056,0.136,0.107l0.184,0.155c0.2,0.179,0.348,0.363,0.44,0.554
			c0.119,0.251,0.153,0.49,0.104,0.723c-0.05,0.229-0.162,0.418-0.336,0.564c-0.264,0.233-0.58,0.341-0.952,0.321
			c-0.197-0.006-0.39-0.067-0.575-0.184s-0.313-0.299-0.385-0.547c-0.111-0.425,0.027-0.908,0.414-1.448L46.445,50.984z
			 M52.738,58.683l-0.15,0.532l-0.177,0.658c-0.037,0.153-0.098,0.356-0.179,0.607c-0.083,0.251-0.165,0.485-0.249,0.704
			l-0.255,0.636c-0.645,1.331-1.505,2.068-2.584,2.217c-0.596,0.071-1.062-0.09-1.398-0.489c-0.053-0.067-0.101-0.142-0.145-0.226
			c-0.062-0.052-0.125-0.115-0.192-0.193c-0.066-0.076-0.13-0.188-0.188-0.334c-0.021-0.087-0.054-0.199-0.098-0.335
			c-0.056-0.239-0.122-0.548-0.198-0.929c-0.142-0.709-0.295-1.575-0.46-2.599c-0.155-0.983-0.278-1.85-0.367-2.598
			c-0.052-0.373-0.084-0.677-0.104-0.912c-0.019-0.127-0.023-0.231-0.019-0.313c-0.01-0.144,0.001-0.259,0.028-0.346
			c0.069-0.174,0.191-0.335,0.365-0.48c0.031-0.021,0.059-0.041,0.077-0.06c0.099-0.262,0.278-0.383,0.539-0.365l0.018-0.004
			c0.013-0.002,0.035-0.005,0.071-0.006c0.037-0.002,0.078-0.008,0.124-0.019c0.313-0.021,0.558,0.081,0.733,0.306
			c0.104,0.134,0.199,0.363,0.288,0.688c0.067,0.236,0.134,0.547,0.197,0.929c0.106,0.56,0.241,1.396,0.403,2.511
			c0.29,1.976,0.455,3.076,0.496,3.306c0.038,0.163,0.087,0.291,0.146,0.385c0.113,0.172,0.353,0.249,0.716,0.229
			c0.201-0.231,0.393-0.542,0.57-0.929c0.096-0.168,0.177-0.347,0.242-0.534l0.216-0.646c0.081-0.229,0.143-0.417,0.183-0.559
			l0.164-0.636c0.079-0.284,0.129-0.468,0.146-0.552c0.037-0.154,0.121-0.268,0.251-0.338c0.131-0.069,0.27-0.082,0.414-0.036
			c0.145,0.045,0.253,0.14,0.322,0.281C52.759,58.379,52.776,58.528,52.738,58.683z"/>
		<path fill="#73323A" d="M53.551,55.172c-0.157,0.422-0.172,0.756-0.041,1.004c0.142,0.232,0.498,0.533,1.073,0.902
			c0.588-0.521,1.195-1.002,1.82-1.439c0.626-0.438,1.099-0.727,1.421-0.869c0.131-0.069,0.268-0.074,0.41-0.016
			c0.142,0.061,0.244,0.16,0.31,0.305c0.063,0.146,0.071,0.293,0.021,0.443c-0.051,0.15-0.143,0.256-0.275,0.313
			c-0.274,0.133-0.699,0.399-1.271,0.806c-0.572,0.405-1.133,0.845-1.685,1.317c0.283,0.267,0.497,0.554,0.644,0.864
			c0.368,0.788,0.359,1.569-0.021,2.342c-0.381,0.773-0.938,1.276-1.666,1.514c-0.022,0.005-0.063,0.021-0.117,0.047
			c-0.099,0.049-0.171,0.08-0.217,0.091c-0.277,0.118-0.537,0.112-0.774-0.02c-0.503-0.268-0.843-0.618-1.019-1.055
			c-0.181-0.408-0.201-0.861-0.06-1.358c0.184-0.679,0.668-1.435,1.452-2.269l-0.088-0.059c-0.378-0.204-0.631-0.345-0.759-0.42
			c-0.64-0.382-1.076-0.783-1.31-1.205c-0.351-0.608-0.365-1.302-0.045-2.079c0.378-0.948,0.925-1.567,1.641-1.854
			c0.115-0.134,0.23-0.246,0.343-0.339c0.144-0.125,0.293-0.225,0.454-0.295s0.341-0.089,0.538-0.056
			c0.197,0.031,0.367,0.146,0.51,0.338c0.279,0.357,0.295,0.846,0.049,1.46c0.003,0.119-0.014,0.234-0.048,0.35
			c-0.104,0.289-0.396,0.59-0.873,0.9l-0.033,0.008C53.815,54.965,53.688,55.074,53.551,55.172z M53.574,61.71
			c0.011-0.003,0.061-0.028,0.147-0.075c0.088-0.046,0.165-0.078,0.234-0.095c0.466-0.147,0.813-0.454,1.033-0.917
			s0.235-0.903,0.04-1.322c-0.097-0.202-0.266-0.401-0.507-0.598l-0.072,0.077c-0.727,0.767-1.163,1.41-1.31,1.937
			c-0.069,0.229-0.068,0.414,0.002,0.557C53.203,61.431,53.347,61.577,53.574,61.71z"/>
	</g>
	<g>
		<g>
			<path fill="#452024" d="M71.998,88.705c-0.729,0.329-1.754,0.456-2.291,0.281l-28.011-9.068
				c-0.537-0.176-1.343-3.269-0.613-3.598l28.9-9.979c0.729-0.329,1.756-0.457,2.291-0.282l27.513,6.113
				c0.536,0.176,0.879,3.538,0.151,3.869L71.998,88.705z"/>
			<path fill="#73323A" d="M71.344,85.562c-0.729,0.329-1.756,0.456-2.291,0.283l-28.012-9.07c-0.36-0.175,0.082-0.66,0.811-0.992
				L69.33,63.198c0.729-0.33,1.756-0.458,2.291-0.283l28.013,9.068c0.536,0.175,0.38,0.584-0.349,0.914L71.344,85.562z"/>
			<path fill="#452024" d="M70.813,83.885c-0.66,0.29-1.585,0.411-2.068,0.266l-25.15-7.584c-0.48-0.145,0.986-8.238,1.645-8.528
				l24.07-8.16c0.658-0.292,21.406,4.789,21.889,4.935l5.207,7.137c0.479,0.146,0.337,0.498-0.323,0.789L70.813,83.885z"/>
			<path fill="#73323A" d="M47.366,68.385l20.153,4.566l21.315-7.334c0,0-17.643,7.992-18.012,9.257
				c-0.371,1.262-0.17,6.315-0.165,7.482c0.003,0.832-1.205,2.284-2.189,0.593c-0.982-1.693-2.63-7.811-4.238-7.952
				c-1.61-0.14-13.629-4.162-13.629-4.162S44.48,68.194,47.366,68.385z"/>
		</g>
		<g>
			<path fill="#452024" d="M89.243,84.349c-0.755-0.162-1.63-0.657-1.951-1.105L69.373,57.595c-0.323-0.45,0.789-3.372,1.544-3.209
				l21.065-0.483c0.757,0.162,1.63,0.659,1.952,1.109l19.049,20.197c0.32,0.45-1.305,3.314-2.063,3.155L89.243,84.349z"/>
			<path fill="#73323A" d="M112.615,74.821c0.331,0.617-0.966,1.229-1.311,1.156l-21.68,5.983c-0.754-0.162-1.629-0.656-1.952-1.107
				l-17.77-25.436c-0.425,0.836-0.718,1.916-0.531,2.177l17.919,25.647c0.321,0.448,1.196,0.943,1.951,1.105l21.678-5.984
				c0.759,0.16,2.384-2.704,2.063-3.154L112.615,74.821z"/>
			<path fill="#73323A" d="M91.431,79.902l20.663-5.69L93.56,52.751c-0.322-0.45-1.43-1.132-1.953-1.108L71.419,54.2
				c-0.764,0.192-1.044,0.28-0.721,0.729L88.55,80.369C89.416,81.604,89.904,80.057,91.431,79.902z"/>
			<path fill="#452024" d="M91.139,79.361c-0.819-0.128-1.76-0.563-2.096-0.975L72.847,55.75c-0.339-0.413,2.438-3.766,3.069-3.933
				l16.396-1.646c0.57-0.039,1.76,0.563,2.097,0.974l15.07,15.794c0,0,0.896,0.974,1.148,2.185c0.091,0.435,0.069,1.332,0.069,1.332
				l0.404,3.706l-1.438,0.417L91.139,79.361z"/>
			<path fill="#73323A" d="M77.6,53.944c0,0,12.979,16.979,14.176,17.444c1.195,0.464,17.684-3.234,17.684-3.234
				s0.28,0.818-1.512,1.19c-1.791,0.373-14.051,3.525-14.345,3.97c-0.967,1.477-1.787,3.561-1.949,4.363s-1.954,1.176-1.923-0.261
				c0.032-1.437,0.793-4.121,0.15-5.087C89.243,71.363,72.485,48.632,77.6,53.944z"/>
		</g>
	</g>
</g>
</svg>
