<?xml version="1.0" encoding="utf-8"?>
<!-- Generator: Adobe Illustrator 16.0.0, SVG Export Plug-In . SVG Version: 6.00 Build 0)  -->
<!DOCTYPE svg PUBLIC "-//W3C//DTD SVG 1.1//EN" "http://www.w3.org/Graphics/SVG/1.1/DTD/svg11.dtd">
<svg version="1.1" id="Layer_1" xmlns="http://www.w3.org/2000/svg" xmlns:xlink="http://www.w3.org/1999/xlink" x="0px" y="0px"
	 width="155.401px" height="120.337px" viewBox="0 0 155.401 120.337" enable-background="new 0 0 155.401 120.337"
	 xml:space="preserve">
<g>
	<path fill="#7CCDCD" d="M0.002,29.408c0.072-7.075,2.057-10.476,8.857-13.542c4.583-2.067,9.971-3.337,15.294-2.067
		c2.39,0.57,4.459,2.984,6.933,2.538c2.826-0.508,3.684-3.846,7.941-3.484c0.644-4.149,0.824-10.599,5.711-12.41
		c5.02-1.862,7.332,2.529,8.672,6.166c0.752,2.034,0.506,8.863,2.594,10.052c2.4,1.367,3.306-1.353,5.331-1.353
		c2.224-0.001,2.876,1.589,4.186,1.623c1.774,0.046,3.511-1.415,4.892-1.324c3.629,0.239,2.438,1.969,4.689,2.763
		c2.766,0.977,8.354,1.204,10.854,1.391c2.639,0.199,7.617-1.584,11.295-0.682c3.582,0.876,6.357,1.999,9.796,1.552
		c0.224-3.974-0.526-4.72,2.685-7.465c3.594-3.074,4.736-0.454,7.828-0.122c3.263,0.35,8.43-2.328,11.412,0.467
		c2.672,2.503,0.434,7.806,0.699,11.11c4.561-0.646,6.938,3.216,6.859,7.348c3.109-0.234,7.366-0.243,7.604,3.479
		c9.827,0.07,3.187,7.828,5.101,11.479c0.875,1.673,4.412,1.256,5.568,4.11c1.383,3.419,0.348,5.076-2.869,6.321
		c-3.658,1.415-4.086-1.295-5.781,2.563c-1.646,3.741,0.852,4.926-3.232,8.121c-2.338,1.829-4.826,1.951-6.48,3.646
		c-1.207,1.237-3.314,4.78-3.49,6.697c-1.321,14.394-0.718,21.924-4.881,32.057c-0.811,1.977-6.174,4.798-7.584,6.393
		c-2.876,3.254-4.48,1.893-7.915,2.483c-6.45,1.112-12.116,1.746-17.817-0.42c-2.093-0.794-5.961-2.224-7.789-3.872
		c-2.777-2.509-0.598-4.913-2.266-7.63c-2.715-4.427-12.125-0.883-16.334-3.965c-0.936,4.498-3.223,8.103-7.975,9.438
		c-2.451,0.688-3.465-0.61-5.691-0.274c-2.256,0.34-3.168,1.887-5.295,2.656c-7.514,2.719-13.936-2.298-20.951-4.767
		c-2.672-6.242-2.957-11.316-3.683-18.03c-0.584-5.375-2.168-10.836-1.628-16.648c0.529-5.686,1.336-8.678-1.754-14.078
		c-2.898-5.067-7.441-8.149-10.592-12.657C10.795,49.068-0.149,43.672,0.002,29.408z"/>
	<g>
		<path fill="#BE1E2D" d="M77.713,42.081c-1.676-3.935-3.266-7.522-0.643-11.354c1.918-2.795,6.088-4.716,9.252-1.997
			c0.848,0.73,1.302,1.281,1.531,1.733c0.44,0.863-0.201,1.86,0.422,2.112c1.209,0.486-0.453-3.031,4.432-4.672
			c5.553-1.864,8.254,4.089,7.77,7.771c-0.822,6.236-13.095,19.438-15.411,17.051C85.065,52.727,78.632,44.236,77.713,42.081z"/>
		<path fill="#231F20" d="M85.817,53.787c-0.664,0-1.078-0.283-1.309-0.521c-0.326-0.421-6.563-8.664-7.509-10.881l-0.071-0.167
			c-1.709-4.012-3.324-7.801-0.498-11.929c1.521-2.215,4.05-3.646,6.445-3.646c1.443,0,2.81,0.519,3.951,1.499
			c0.87,0.75,1.415,1.375,1.718,1.971c0.021,0.041,0.04,0.082,0.058,0.122c0.497-1.057,1.522-2.281,3.857-3.065
			c2.596-0.873,4.995-0.256,6.692,1.68c1.563,1.781,2.403,4.565,2.093,6.927C100.49,41.5,89.965,53.787,85.817,53.787z
			 M85.67,52.225c0.018,0,0.064,0.012,0.147,0.012c2.762,0,13.146-11.017,13.891-16.662c0.252-1.916-0.455-4.261-1.721-5.703
			c-1.299-1.48-3.025-1.907-5.033-1.232c-2.758,0.926-3.086,2.411-3.304,3.393c-0.112,0.511-0.302,1.365-1.177,1.365
			c-0.158,0-0.317-0.033-0.487-0.102c-0.855-0.346-0.792-1.209-0.758-1.673c0.022-0.305,0.043-0.593-0.065-0.806
			c-0.202-0.399-0.655-0.902-1.347-1.499c-0.868-0.746-1.857-1.124-2.94-1.124c-1.87,0-3.946,1.195-5.167,2.973
			c-2.345,3.426-0.959,6.678,0.646,10.445l0.071,0.167c0.721,1.689,5.449,8.094,7.237,10.455
			C85.661,52.227,85.663,52.225,85.67,52.225z"/>
	</g>
	<path fill="#231F20" d="M27.165,60.117c0,0-11.812-10.398-1.951-17.086c9.86-6.688,27.78-10.051,31.71-2.899
		c1.822,3.314-1.793,10.734-1.793,10.734L27.165,60.117z"/>
	<path fill="#231F20" d="M108.559,54.888c0,0-7.282-11.638,0.945-14.189c8.229-2.552,37.266,14.963,31.873,22.91
		c-5.391,7.947-25.246-2.999-25.246-2.999L108.559,54.888z"/>
	<g>
		<g>
			<path fill="#C3996B" d="M31.871,77.595c-1.029,3.892-1.086,31.315,6.763,28.754c2.153-0.702,0.89-4.384,0.954-6.779
				c0.066-2.296-0.992-4.801,1.066-6.349c3.496,2.896,0.639,18.173,7.42,16.858c7.103-1.377-0.928-15.653,3.853-18.051
				c3.351,3.979,1.665,14.722,8.381,15.527c7.645,0.915-1.096-16.852,0.004-19.933c2.026-5.683,11.396,13.24,15.665,10.451
				c5.043-3.297-2.617-12.221-4.742-15.021c-1.961-2.585-11.02-7.626-6.908-14.245c3.705-5.967,14.16,4.066,15.355-2.632
				c1.125-6.3-11.671-7.142-13.953-9.234c-4.727-4.335-9.732-4.322-12.827-10.688c-1.862-3.832-1.404-5.939-6.46-5.499
				c-3.709,0.32-7.117,1.429-10.398,2.956c-7.711,3.601-11.756,6.357-8.878,15.109c1.323,4.018,3.196,7.56,4.175,11.794
				C32.08,73.802,31.871,77.595,31.871,77.595z"/>
			<path fill="#231F20" d="M47.286,110.934c-4.034,0-4.666-5.309-5.225-9.994c-0.31-2.599-0.628-5.273-1.452-6.59
				c-0.567,0.78-0.504,1.813-0.357,3.276c0.063,0.64,0.13,1.301,0.11,1.965c-0.017,0.61,0.063,1.33,0.147,2.093
				c0.231,2.093,0.52,4.698-1.636,5.401c-0.42,0.137-0.838,0.207-1.241,0.207l0,0c-1.21,0-2.287-0.603-3.202-1.79
				c-4.369-5.676-4.229-24.34-3.33-28.022c0.023-0.531,0.136-3.887-0.516-6.689c-0.586-2.538-1.486-4.783-2.438-7.161
				c-0.589-1.469-1.197-2.988-1.718-4.566c-3.107-9.451,1.659-12.492,9.286-16.054c3.737-1.74,7.224-2.729,10.66-3.026
				c0.467-0.041,0.891-0.061,1.274-0.061c3.481,0,4.184,1.749,5.071,3.963c0.243,0.605,0.519,1.291,0.878,2.03
				c1.821,3.747,4.296,5.127,7.161,6.727c1.791,1,3.645,2.033,5.492,3.729c0.589,0.54,2.351,1.075,4.216,1.642
				c4.587,1.395,10.869,3.304,9.977,8.3c-0.361,2.023-1.535,3.05-3.488,3.05c-1.258,0-2.701-0.414-4.229-0.852
				c-1.566-0.449-3.187-0.914-4.593-0.914c-1.463,0-2.464,0.515-3.15,1.62c-2.845,4.581,1.461,8.383,4.605,11.159
				c0.953,0.842,1.776,1.568,2.262,2.209c0.175,0.229,0.387,0.501,0.626,0.807c2.29,2.932,6.553,8.388,5.893,12.367
				c-0.206,1.247-0.869,2.244-1.97,2.963c-0.415,0.271-0.88,0.409-1.382,0.409c-2.455,0-5.26-3.291-8.229-6.775
				c-1.91-2.241-4.286-5.029-5.322-5.029c-0.188,0-0.336,0.303-0.427,0.556c-0.291,0.815,0.541,3.808,1.275,6.448
				c1.366,4.914,2.914,10.484,1.101,12.87c-0.692,0.911-1.731,1.299-3.201,1.125c-4.703-0.564-5.746-5.342-6.665-9.557
				c-0.475-2.171-0.925-4.239-1.789-5.643c-1.062,1.246-0.658,4.231-0.266,7.13c0.614,4.545,1.311,9.696-3.274,10.585
				C47.899,110.902,47.585,110.934,47.286,110.934z M40.678,92.234l0.471,0.39c1.646,1.364,2.038,4.652,2.452,8.133
				c0.505,4.241,1.027,8.627,3.686,8.627c0.199,0,0.415-0.022,0.641-0.066c2.929-0.568,2.707-3.875,2.033-8.855
				c-0.518-3.829-1.053-7.787,1.619-9.127l0.547-0.274l0.394,0.468c1.4,1.664,1.957,4.211,2.545,6.908
				c0.889,4.071,1.728,7.916,5.336,8.349c0.158,0.019,0.31,0.029,0.451,0.029c0.817,0,1.151-0.315,1.332-0.552
				c1.348-1.773-0.218-7.405-1.36-11.517c-1.084-3.899-1.677-6.165-1.241-7.383c0.467-1.311,1.283-1.585,1.886-1.585
				c1.667,0,3.557,2.118,6.502,5.574c2.365,2.776,5.31,6.23,7.049,6.23c0.201,0,0.371-0.049,0.534-0.156
				c0.732-0.479,1.154-1.106,1.289-1.919c0.548-3.307-3.595-8.61-5.586-11.159c-0.244-0.313-0.461-0.59-0.639-0.825
				c-0.393-0.517-1.162-1.197-2.054-1.984c-3.153-2.785-8.432-7.445-4.896-13.138c0.97-1.561,2.473-2.353,4.467-2.353
				c1.624,0,3.351,0.495,5.02,0.974c1.42,0.407,2.762,0.792,3.802,0.792c0.988,0,1.7-0.301,1.963-1.772
				c0.601-3.367-3.676-4.956-8.901-6.544c-2.216-0.673-3.965-1.205-4.813-1.982c-1.715-1.573-3.487-2.562-5.2-3.518
				c-2.965-1.655-5.766-3.217-7.801-7.402c-0.383-0.789-0.669-1.501-0.921-2.13c-0.874-2.176-1.2-2.99-3.634-2.99
				c-0.344,0-0.722,0.018-1.141,0.055c-3.253,0.281-6.569,1.225-10.139,2.887c-7.912,3.694-11.104,6.151-8.469,14.165
				c0.504,1.532,1.104,3.028,1.684,4.474c0.933,2.328,1.896,4.734,2.51,7.388c0.757,3.256,0.559,7.037,0.55,7.196l-0.024,0.156
				c-0.827,3.126-0.924,21.616,3.039,26.764c0.614,0.798,1.26,1.186,1.974,1.186l0,0c0.24,0,0.495-0.044,0.761-0.13
				c0.888-0.29,0.799-1.74,0.576-3.757c-0.087-0.781-0.176-1.588-0.156-2.306c0.017-0.566-0.045-1.177-0.104-1.768
				c-0.177-1.773-0.378-3.783,1.479-5.179L40.678,92.234z"/>
		</g>
		<g>
			<path fill="#C3996B" d="M36.586,99.406c2.699,2.412,1.321,6.5-1.018,4.662C35.568,104.068,32.088,97.97,36.586,99.406z"/>
			<path fill="#231F20" d="M36.689,105.305c-0.532,0-1.07-0.211-1.6-0.627l-0.119-0.094l-0.075-0.131
				c-0.48-0.843-1.982-3.708-1.119-5.194c0.184-0.316,0.641-0.847,1.64-0.847c0.407,0,0.867,0.084,1.405,0.256l0.158,0.05
				l0.123,0.11c1.754,1.568,2.015,3.692,1.515,5.003C38.266,104.754,37.545,105.305,36.689,105.305z M36.163,103.544
				c0.198,0.136,0.382,0.21,0.526,0.21c0.26,0,0.412-0.297,0.479-0.475c0.256-0.671,0.194-2.051-0.979-3.184
				c-0.308-0.089-0.567-0.134-0.773-0.134c-0.06,0-0.259,0.005-0.299,0.075C34.851,100.496,35.439,102.229,36.163,103.544z"/>
		</g>
		<g>
			<path fill="#C3996B" d="M45.434,107.727c-0.781-2.322-0.158-7.547,2.789-3.898c2.063,2.549,0.332,6.587-2.696,4.409
				L45.434,107.727z"/>
			<path fill="#231F20" d="M47.167,109.635c-0.68,0-1.384-0.259-2.093-0.769l-0.254-0.183l-0.14-0.766
				c-0.512-1.583-0.479-4.148,0.392-5.361c0.354-0.491,0.845-0.761,1.386-0.761c0.753,0,1.527,0.505,2.367,1.545
				c1.109,1.371,1.392,3.264,0.701,4.711C49.054,109.043,48.172,109.635,47.167,109.635z M46.229,107.774
				c0.341,0.204,0.661,0.311,0.938,0.311c0.518,0,0.808-0.381,0.96-0.7c0.354-0.74,0.346-2.016-0.507-3.069
				c-0.774-0.958-1.146-0.969-1.162-0.969c-0.034,0-0.096,0.073-0.127,0.116c-0.501,0.698-0.585,2.763-0.163,4.018L46.229,107.774z"
				/>
		</g>
		<g>
			<path fill="#C3996B" d="M58.233,105.214c-1.331-0.932-1.265-3.513-0.819-4.328c0.723-1.318,2.422-0.832,3.196,0.057
				c0.516,0.585,1.243,3.047,1.013,3.866C61.091,106.71,58.233,105.214,58.233,105.214z"/>
			<path fill="#231F20" d="M60.254,106.548c-1.11,0-2.253-0.582-2.38-0.648c-1.772-1.232-1.778-4.218-1.14-5.386
				c0.423-0.772,1.167-1.215,2.041-1.215c0.869,0,1.819,0.445,2.419,1.134c0.632,0.716,1.494,3.451,1.175,4.585
				C62.097,105.99,61.326,106.548,60.254,106.548z M58.639,104.551c0.294,0.144,1.031,0.448,1.615,0.448
				c0.473,0,0.562-0.181,0.623-0.399c0.14-0.496-0.455-2.699-0.848-3.145c-0.313-0.358-0.826-0.605-1.254-0.605
				c-0.313,0-0.528,0.13-0.682,0.409C57.816,101.767,57.727,103.853,58.639,104.551z"/>
		</g>
		<g>
			<path fill="#C3996B" d="M70.111,92.278c0.17-1.111,1.99-3.062,4.258-0.938c1.578,1.478,1.309,3.911,1.15,4.537
				C74.799,98.738,70.021,94.937,70.111,92.278z"/>
			<path fill="#231F20" d="M74.346,97.67c-0.987,0-2.212-0.657-3.275-1.756c-1.141-1.18-1.772-2.514-1.733-3.662
				c0.172-1.157,1.306-2.635,3.011-2.635c0.873,0,1.731,0.389,2.551,1.157c1.798,1.683,1.601,4.392,1.372,5.293
				C76.015,97.086,75.313,97.67,74.346,97.67z M72.348,91.167c-0.83,0-1.406,0.812-1.471,1.229
				c-0.015,0.618,0.482,1.588,1.308,2.441c0.73,0.756,1.619,1.284,2.161,1.284c0.14,0,0.313,0,0.423-0.433
				c0.006-0.024,0.529-2.417-0.929-3.782C73.316,91.416,72.814,91.167,72.348,91.167z"/>
		</g>
		<g>
			<path fill="#C3996B" d="M71.908,60.03c-4.283,2.682,3.924,5.363,6.041,2.018c-1.244-0.981-4.054-1.528-5.533-2.171L71.908,60.03z
				"/>
			<path fill="#231F20" d="M74.495,64.383C74.495,64.383,74.495,64.383,74.495,64.383c-1.917,0-4.081-0.783-4.511-2.279
				c-0.162-0.564-0.181-1.669,1.513-2.73l0.188-0.085l0.779-0.236l0.261,0.113c0.488,0.212,1.163,0.422,1.878,0.645
				c1.432,0.446,2.913,0.908,3.826,1.628l0.549,0.433l-0.373,0.59C77.832,63.683,76.334,64.383,74.495,64.383z M72.235,60.741
				c-0.537,0.352-0.827,0.706-0.762,0.935c0.136,0.472,1.38,1.157,3.021,1.157c0.001,0,0.001,0,0.001,0
				c0.478,0,1.491-0.07,2.241-0.612c-0.733-0.35-1.707-0.653-2.595-0.93c-0.641-0.2-1.251-0.39-1.766-0.592L72.235,60.741z"/>
		</g>
	</g>
	<g>
		<g>
			<path fill="#C3996B" d="M126.354,84.396c0.494,3.995-3.168,31.174-10.598,27.57c-2.039-0.989-0.285-4.464-0.026-6.847
				c0.246-2.283,1.635-4.621-0.194-6.435c-3.857,2.396-3.098,17.919-9.64,15.697c-6.849-2.327,3.044-15.384-1.368-18.407
				c-3.859,3.488-3.646,14.359-10.409,14.248c-7.698-0.131,3.372-16.548,2.7-19.749c-1.236-5.906-13.087,11.571-16.938,8.229
				c-4.549-3.951,1.707-10.004,6.734-14.238c2.48-2.09,13.238-4.473,8.776-13.177c-2.894-5.645-14.579,2.108-14.856-4.689
				c-0.261-6.395,12.531-5.494,15.076-7.258c5.271-3.653,10.23-2.962,14.158-8.848c2.365-3.545,2.196-5.694,7.146-4.574
				c3.633,0.821,6.857,2.381,9.902,4.341c7.152,4.613,10.783,7.893,6.744,16.173c-1.854,3.802-4.189,7.057-5.734,11.118
				C126.664,80.608,126.354,84.396,126.354,84.396z"/>
			<path fill="#231F20" d="M107.106,115.375c-0.465,0-0.956-0.086-1.46-0.258c-4.421-1.502-3.032-6.511-1.808-10.93
				c0.782-2.82,1.587-5.724,0.703-7.102c-1.046,1.274-1.773,3.261-2.537,5.348c-1.47,4.015-3.136,8.566-7.784,8.567l-0.115-0.001
				c-1.359-0.023-2.345-0.493-2.928-1.396c-1.652-2.559,0.684-7.975,2.745-12.753c1.085-2.516,2.314-5.368,2.137-6.215
				c-0.128-0.613-0.312-0.613-0.411-0.613c-1.115,0-3.653,2.266-5.892,4.265c-3.095,2.764-6.295,5.622-8.677,5.622
				c-0.001,0-0.001,0-0.001,0c-0.659,0-1.233-0.208-1.706-0.618c-1.233-1.071-1.853-2.359-1.842-3.828
				c0.029-3.887,4.604-8.235,8.585-11.588c0.607-0.512,1.574-0.999,2.694-1.563c2.428-1.223,5.754-2.897,6.642-5.619
				c0.48-1.475,0.235-3.126-0.75-5.049c-0.638-1.244-1.866-1.798-3.983-1.798c-1.052,0-2.203,0.134-3.315,0.264
				c-1.127,0.131-2.191,0.255-3.185,0.255c-1.064,0-4.306,0-4.458-3.732c-0.207-5.071,6.276-6.111,11.01-6.871
				c1.926-0.309,3.744-0.601,4.399-1.055c2.062-1.429,4.037-2.202,5.948-2.949c3.056-1.195,5.694-2.227,8.007-5.692
				c0.456-0.684,0.822-1.327,1.145-1.893c1.338-2.349,2.314-4.025,6.817-3.007c3.366,0.761,6.687,2.215,10.151,4.445
				c7.073,4.563,11.383,8.222,7.021,17.165c-0.73,1.498-1.541,2.925-2.325,4.304c-1.264,2.222-2.457,4.321-3.381,6.75
				c-1.024,2.689-1.37,6.031-1.42,6.561c0.364,3.552-1.917,21.475-6.746,26.938c-1.51,1.71-3.252,2.172-4.969,1.338
				c-2.039-0.989-1.401-3.528-0.89-5.568c0.188-0.746,0.364-1.45,0.431-2.06c0.071-0.66,0.227-1.306,0.376-1.931
				c0.344-1.431,0.547-2.445,0.091-3.295c-0.995,1.193-1.674,3.8-2.333,6.333C111.912,110.682,110.691,115.374,107.106,115.375z
				 M104.461,94.991l0.505,0.346c2.467,1.69,1.399,5.541,0.367,9.264c-1.343,4.843-2.012,8.089,0.812,9.048
				c0.344,0.117,0.667,0.176,0.962,0.176c2.387,0,3.502-4.289,4.487-8.072c0.883-3.393,1.717-6.598,3.532-7.726l0.521-0.323
				l0.435,0.431c1.649,1.635,1.178,3.6,0.762,5.333c-0.139,0.577-0.282,1.174-0.343,1.735c-0.078,0.717-0.276,1.506-0.468,2.271
				c-0.494,1.965-0.778,3.388,0.062,3.796c1.1,0.532,2.085,0.215,3.132-0.97c4.513-5.105,6.742-22.707,6.358-25.808l-0.01-0.079
				l0.007-0.08c0.013-0.159,0.333-3.934,1.522-7.057c0.967-2.54,2.245-4.789,3.482-6.964c0.772-1.358,1.571-2.763,2.28-4.218
				c3.698-7.583,0.869-10.449-6.468-15.182c-3.355-2.16-6.423-3.506-9.653-4.236c-0.829-0.188-1.502-0.279-2.056-0.279
				c-1.548,0-1.998,0.653-3.072,2.541c-0.336,0.589-0.716,1.257-1.203,1.987c-2.583,3.87-5.569,5.038-8.731,6.275
				c-1.828,0.715-3.718,1.454-5.63,2.779c-0.945,0.655-2.751,0.945-5.036,1.312c-5.394,0.865-9.847,1.86-9.707,5.277
				c0.067,1.658,0.829,2.246,2.909,2.246c0.903,0,1.924-0.119,3.005-0.245c1.157-0.135,2.354-0.274,3.495-0.274
				c1.721,0,4.148,0.274,5.362,2.641c1.167,2.277,1.451,4.375,0.845,6.236c-1.088,3.335-4.747,5.178-7.419,6.523
				c-1.032,0.52-1.924,0.969-2.393,1.364c-3.437,2.895-8.008,7.123-8.033,10.415c-0.008,1.009,0.42,1.875,1.308,2.646
				c0.188,0.163,0.407,0.239,0.69,0.239l0,0c1.791,0,5.037-2.899,7.646-5.229c2.799-2.5,5.217-4.659,6.924-4.659
				c0.576,0,1.593,0.24,1.929,1.845c0.266,1.266-0.629,3.43-2.231,7.147c-1.718,3.981-4.069,9.435-2.866,11.298
				c0.106,0.165,0.431,0.667,1.651,0.688c3.655,0,4.997-3.667,6.418-7.549c0.949-2.592,1.846-5.041,3.459-6.499L104.461,94.991z"/>
		</g>
		<g>
			<path fill="#C3996B" d="M118.727,105.366c-2.999,2.023-2.189,6.262,0.375,4.758C119.102,110.124,123.378,104.553,118.727,105.366
				z"/>
			<path fill="#231F20" d="M118.1,111.215L118.1,111.215c-0.901,0-1.641-0.592-1.933-1.544c-0.442-1.447,0.146-3.611,2.126-4.947
				l0.138-0.092l0.162-0.028c0.353-0.062,0.676-0.093,0.964-0.093c1.189,0,1.704,0.537,1.927,0.987
				c0.778,1.58-1.155,4.302-1.768,5.099l-0.092,0.12l-0.131,0.077C119.016,111.073,118.546,111.215,118.1,111.215z M119.026,106.103
				c-1.311,0.962-1.6,2.385-1.377,3.115c0.137,0.448,0.372,0.448,0.45,0.448l0,0c0.098,0,0.257-0.026,0.483-0.141
				c1.006-1.352,1.719-2.918,1.51-3.342C120.058,106.111,119.66,106.01,119.026,106.103z"/>
		</g>
		<g>
			<path fill="#C3996B" d="M108.83,112.411c1.092-2.196,1.182-7.457-2.233-4.242c-2.388,2.246-1.222,6.481,2.075,4.734
				L108.83,112.411z"/>
			<path fill="#231F20" d="M107.229,114.09L107.229,114.09c-1.093,0-1.997-0.635-2.419-1.7c-0.613-1.546-0.097-3.514,1.256-4.786
				c0.876-0.824,1.636-1.225,2.325-1.225c0.589,0,1.094,0.293,1.424,0.825c0.838,1.352,0.414,4.084-0.264,5.496l-0.237,0.739
				l-0.278,0.147C108.406,113.921,107.798,114.09,107.229,114.09z M108.391,107.93c-0.068,0-0.45,0.039-1.263,0.804
				c-1.005,0.945-1.202,2.268-0.878,3.086c0.189,0.478,0.519,0.721,0.979,0.721l0,0c0.241,0,0.512-0.064,0.808-0.19l0.1-0.284
				c0.597-1.2,0.789-3.355,0.361-4.045C108.44,107.93,108.416,107.93,108.391,107.93z"/>
		</g>
		<g>
			<path fill="#C3996B" d="M96.492,108.185c1.444-0.743,1.727-3.31,1.398-4.177c-0.535-1.405-2.287-1.152-3.176-0.379
				c-0.588,0.512-1.645,2.851-1.527,3.694C93.459,109.279,96.492,108.185,96.492,108.185z"/>
			<path fill="#231F20" d="M94.808,109.265L94.808,109.265c-1.355,0-2.226-0.669-2.388-1.835c-0.161-1.162,1.062-3.755,1.786-4.385
				c0.589-0.513,1.402-0.819,2.176-0.819c1.039,0,1.874,0.563,2.233,1.506c0.471,1.245,0.058,4.202-1.769,5.142
				C96.716,108.928,95.771,109.265,94.808,109.265z M96.382,103.775c-0.398,0-0.853,0.172-1.158,0.438
				c-0.408,0.355-1.345,2.452-1.269,3.003c0.027,0.198,0.069,0.498,0.853,0.498l0,0c0.684,0,1.414-0.256,1.422-0.259
				c0.941-0.492,1.145-2.623,0.937-3.173C97.083,104.065,96.912,103.775,96.382,103.775z"/>
		</g>
		<g>
			<path fill="#C3996B" d="M86.477,93.758c-0.018-1.124-1.555-3.304-4.092-1.508c-1.764,1.249-1.826,3.697-1.756,4.339
				C80.957,99.521,86.205,96.403,86.477,93.758z"/>
			<path fill="#231F20" d="M81.891,98.548L81.891,98.548c-1.142,0-1.9-0.7-2.032-1.873c-0.004-0.035-0.336-3.347,2.078-5.057
				c0.775-0.549,1.547-0.827,2.292-0.827c1.845,0,3.004,1.721,3.022,2.955C87.008,96.174,83.929,98.548,81.891,98.548z
				 M84.229,92.341c-0.418,0-0.888,0.182-1.396,0.542c-1.386,0.982-1.502,2.995-1.433,3.622c0.047,0.422,0.189,0.494,0.491,0.494
				l0,0c1.32,0,3.665-1.854,3.815-3.319C85.695,93.342,85.186,92.341,84.229,92.341z"/>
		</g>
		<g>
			<path fill="#C3996B" d="M89.07,61.563c3.881,3.237-4.615,4.781-6.258,1.181c1.365-0.805,4.225-0.965,5.775-1.401L89.07,61.563z"
				/>
			<path fill="#231F20" d="M86.902,65.592c-1.761,0-3.945-0.664-4.795-2.526l-0.29-0.635l0.602-0.354
				c1.002-0.591,2.532-0.847,4.011-1.095c0.738-0.124,1.436-0.24,1.948-0.385l0.273-0.077l0.915,0.449
				c1.389,1.158,1.406,2.159,1.176,2.793C90.253,65.112,88.368,65.592,86.902,65.592z M83.992,63.079
				c0.736,0.699,1.947,0.962,2.91,0.962c1.364,0,2.26-0.469,2.383-0.808c0.077-0.213-0.171-0.605-0.636-1.011l-0.133-0.061
				c-0.538,0.131-1.169,0.237-1.831,0.348C85.77,62.664,84.766,62.832,83.992,63.079z"/>
		</g>
	</g>
	<g>
		<path fill="#231F20" d="M13.214,20.371l0.111-0.073c0.074-0.049,0.191-0.1,0.353-0.15c0.159-0.053,0.266-0.096,0.315-0.128
			s0.103-0.058,0.161-0.078c0.057-0.021,0.11-0.047,0.16-0.079l0.446-0.293c0.321-0.211,0.581-0.328,0.779-0.352
			c0.024-0.016,0.098-0.012,0.221,0.014c0.224-0.146,0.523-0.201,0.901-0.165c0.148-0.098,0.345-0.147,0.593-0.149
			c0.245-0.002,0.431-0.045,0.555-0.126c0.081,0.124,0.225,0.154,0.431,0.09c0.163,0.142,0.258,0.203,0.282,0.187
			c0.106,0.002,0.284,0.044,0.535,0.127c0.249,0.085,0.441,0.12,0.573,0.104c0.146,0.117,0.252,0.171,0.318,0.163
			c0.041,0.009,0.062,0.039,0.061,0.093s0.009,0.093,0.024,0.117c0.113,0.066,0.29,0.146,0.527,0.238s0.427,0.163,0.565,0.213
			c0.131,0.199,0.19,0.319,0.182,0.359c0.018,0.024,0.038,0.029,0.062,0.013c0.1-0.064,0.198-0.076,0.297-0.034
			c0.098,0.041,0.206,0.111,0.325,0.211c0.119,0.101,0.218,0.158,0.299,0.175c0.009,0.067,0.046,0.148,0.11,0.248
			c0.081,0.124,0.229,0.24,0.441,0.348c0.212,0.109,0.347,0.18,0.404,0.213c0.033,0.05,0.086,0.13,0.159,0.241
			s0.137,0.185,0.194,0.218c0.058,0.034,0.117,0.056,0.179,0.069c0.063,0.013,0.102,0.031,0.117,0.056
			c0.366,0.397,0.569,0.601,0.611,0.608c0.016,0.025,0.046,0.085,0.091,0.18c0.045,0.096,0.083,0.166,0.115,0.216
			c0.243,0.372,0.509,0.642,0.796,0.808c0.193,0.297,0.377,0.55,0.548,0.756c0.048,0.074,0.143,0.164,0.282,0.268
			c0.139,0.104,0.224,0.18,0.256,0.229c0.05,0.073,0.061,0.173,0.036,0.296c0.031,0.05,0.082,0.114,0.151,0.191
			c0.069,0.08,0.12,0.144,0.152,0.193c0.147,0.222,0.24,0.445,0.28,0.667c0.072,0.059,0.149,0.149,0.23,0.273
			c0.114,0.173,0.184,0.305,0.208,0.396c0.031,0.05,0.076,0.091,0.134,0.124c0.057,0.033,0.09,0.083,0.097,0.148
			c0.018,0.025,0.009,0.066-0.025,0.123c-0.033,0.058-0.025,0.123,0.023,0.197l0.269,0.409c0.016,0.024,0.049,0.047,0.097,0.068
			c0.05,0.021,0.083,0.044,0.099,0.068c0.072,0.271,0.117,0.42,0.133,0.444c0.064,0.1,0.183,0.199,0.355,0.299
			c0.032,0.05,0.04,0.115,0.022,0.197c-0.017,0.082-0.017,0.136,0,0.16c0.04,0.009,0.117,0.1,0.23,0.272
			c0.05,0.074,0.095,0.116,0.136,0.125c-0.009,0.041-0.014,0.088-0.014,0.141c-0.001,0.054-0.005,0.102-0.013,0.143
			c-0.009,0.041-0.014,0.088-0.014,0.141c-0.001,0.055-0.026,0.098-0.075,0.129c0.192,0.512,0.313,0.857,0.361,1.038
			c-0.024,0.017-0.05,0.06-0.075,0.129c-0.025,0.07-0.071,0.108-0.136,0.116c0.013,0.346-0.005,0.534-0.055,0.566
			c0.073,0.165,0.088,0.35,0.046,0.555c0.008,0.066,0.039,0.1,0.092,0.1c0.054,0,0.088,0.013,0.104,0.037
			c-0.341,0.614-0.585,1.323-0.73,2.127c-0.125,0.081-0.236,0.261-0.337,0.539c-0.074,0.049-0.141,0.138-0.199,0.264
			c-0.059,0.127-0.113,0.207-0.161,0.239l-0.224,0.146c-0.05,0.032-0.184,0.208-0.398,0.526c-0.167,0.287-0.254,0.451-0.263,0.491
			c-0.265,0.245-0.423,0.437-0.473,0.576l-0.173,0.06c-0.05,0.033-0.102,0.103-0.155,0.209c-0.055,0.106-0.106,0.176-0.156,0.208
			l-0.817,0.536c-0.264,0.245-0.483,0.424-0.656,0.537l-0.149,0.098c-0.049,0.032-0.115,0.04-0.197,0.023
			c-0.074,0.049-0.172,0.13-0.291,0.244c-0.12,0.114-0.218,0.195-0.291,0.243c-0.273,0.18-0.479,0.298-0.619,0.354
			c-0.05,0.033-0.132,0.069-0.247,0.108c-0.115,0.041-0.21,0.086-0.284,0.134c-0.025,0.017-0.059,0.047-0.1,0.092
			c-0.042,0.046-0.075,0.076-0.101,0.092c-0.073,0.048-0.197,0.076-0.369,0.083c-0.174,0.008-0.283,0.027-0.333,0.06l-0.149,0.098
			c-0.148,0.098-0.35,0.142-0.604,0.131c-0.09,0.024-0.205,0.038-0.345,0.04c-0.141,0.004-0.223,0.014-0.246,0.029l-0.112,0.073
			c-0.041-0.008-0.124-0.025-0.246-0.051c-0.123-0.026-0.218-0.034-0.283-0.027c-0.32-0.002-0.489-0.016-0.505-0.04
			c-0.289,0.153-0.729,0.212-1.32,0.175c-0.066,0.008-0.16-0.001-0.282-0.027c-0.124-0.025-0.219-0.034-0.284-0.026
			c-0.287-0.06-0.46-0.106-0.517-0.14l-0.444-0.028c-0.031-0.049-0.104-0.08-0.22-0.094c-0.115-0.013-0.197-0.057-0.245-0.131
			l-0.235,0.047c-0.212-0.108-0.51-0.276-0.89-0.506c-0.38-0.228-0.646-0.381-0.804-0.455c-0.286-0.166-0.601-0.403-0.943-0.71
			c-0.236-0.199-0.362-0.311-0.38-0.336l-0.318-0.162c-0.016-0.024-0.307-0.385-0.867-1.079c-0.317-0.323-0.484-0.496-0.501-0.521
			c-0.091-0.082-0.193-0.227-0.311-0.434c-0.118-0.205-0.202-0.347-0.251-0.421c-0.032-0.049-0.097-0.121-0.194-0.217
			c-0.099-0.095-0.164-0.167-0.195-0.217c-0.033-0.05-0.054-0.106-0.062-0.174c-0.008-0.064-0.02-0.11-0.034-0.136
			c-0.033-0.049-0.097-0.132-0.189-0.247c-0.095-0.116-0.153-0.219-0.177-0.31l-0.061-0.173c-0.008-0.065-0.049-0.127-0.122-0.186
			L9.249,34.66c-0.12-0.346-0.192-0.563-0.216-0.654c-0.024-0.091-0.089-0.216-0.195-0.377c-0.105-0.161-0.189-0.317-0.256-0.471
			c-0.064-0.151-0.083-0.29-0.058-0.413c-0.179-0.272-0.267-0.622-0.264-1.05c-0.243-0.478-0.305-0.844-0.189-1.098l-0.048-0.075
			c-0.057-0.032-0.093-0.062-0.11-0.086c0.033-0.057,0.051-0.14,0.052-0.246c0-0.107,0.013-0.169,0.039-0.185
			c0.008-0.041-0.009-0.065-0.05-0.074s-0.069-0.025-0.086-0.051c0.033-0.057,0.048-0.129,0.045-0.215s0.012-0.157,0.045-0.216
			c-0.089-0.188-0.124-0.432-0.105-0.728s0.008-0.501-0.033-0.616c0.096-0.771,0.142-1.189,0.133-1.257
			c0.033-0.056,0.154-0.276,0.362-0.662c0.033-0.057,0.071-0.161,0.113-0.313c0.042-0.15,0.093-0.264,0.15-0.338
			c0.024-0.016,0.061-0.057,0.106-0.122c0.045-0.065,0.081-0.106,0.105-0.122c0.025-0.017,0.087-0.11,0.187-0.282
			c0.101-0.172,0.199-0.29,0.299-0.354c0.009-0.041,0.025-0.15,0.052-0.327c0.024-0.176,0.079-0.309,0.163-0.398
			c0.033-0.058,0.137-0.17,0.312-0.337c0.173-0.167,0.26-0.304,0.262-0.411c0.114-0.04,0.295-0.142,0.543-0.304l0.187-0.122
			c0.049-0.032,0.089-0.093,0.118-0.184c0.029-0.09,0.069-0.151,0.118-0.185c0.414-0.448,0.626-0.693,0.635-0.734
			c0.065-0.008,0.135-0.035,0.21-0.085c0.148-0.098,0.24-0.228,0.273-0.392c0.034-0.058,0.124-0.135,0.273-0.232l0.483-0.316
			C13.053,20.53,13.156,20.444,13.214,20.371z M14.873,22.577c0.104,0.215,0.087,0.456-0.055,0.727l0.121,0.186l-0.063,0.148
			c0.065,0.099,0.094,0.195,0.084,0.289c-0.009,0.096-0.02,0.199-0.032,0.314c-0.014,0.115-0.017,0.205-0.009,0.271
			c0.017,0.024,0.053,0.054,0.11,0.086c0.058,0.034,0.095,0.063,0.11,0.088l-0.05,0.086c-0.058,0.073-0.091,0.131-0.1,0.172
			l0.146,0.223c0.194,0.298,0.277,0.721,0.249,1.271l0.098,0.148c0.048,0.074,0.118,0.196,0.212,0.365
			c0.093,0.17,0.165,0.29,0.214,0.365c0.097,0.148,0.219,0.281,0.366,0.396c-0.058,0.074-0.054,0.16,0.011,0.259
			c0.017,0.025,0.032,0.051,0.049,0.074c0.016,0.025,0.016,0.079-0.002,0.161c0.023,0.09,0.063,0.189,0.115,0.296
			c0.053,0.107,0.096,0.186,0.127,0.235C16.7,28.765,16.81,28.852,16.907,29c0.098,0.149,0.146,0.33,0.144,0.543
			c0.146,0.117,0.245,0.212,0.294,0.286c0.082,0.124,0.162,0.302,0.242,0.532c0.016,0.024,0.065,0.046,0.147,0.063
			c0.083,0.018,0.127,0.059,0.136,0.124c0.047,0.182,0.201,0.47,0.462,0.866c0.096,0.148,0.253,0.374,0.468,0.675
			c0.216,0.302,0.373,0.526,0.47,0.676l0.146,0.223c0.016,0.025,0.058,0.061,0.122,0.105c0.065,0.046,0.106,0.081,0.122,0.105
			c0.164,0.142,0.358,0.369,0.581,0.683c0.224,0.314,0.388,0.525,0.494,0.632l0.33,0.262c0.343,0.307,0.576,0.472,0.699,0.498
			c0.123,0.025,0.316,0.023,0.579-0.009c0.049-0.031,0.102-0.048,0.155-0.047c0.053,0,0.092-0.008,0.117-0.024
			c0.064-0.008,0.122-0.027,0.172-0.061c0.024-0.016,0.079-0.068,0.162-0.159c0.083-0.089,0.157-0.138,0.223-0.146
			c0.185-0.475,0.351-0.814,0.501-1.02c-0.008-0.065-0.013-0.168-0.017-0.308c-0.003-0.14,0.004-0.25,0.021-0.333
			c0.001-0.106-0.033-0.279-0.101-0.519c-0.068-0.238-0.115-0.403-0.139-0.493l-0.011-0.26c-0.008-0.064-0.03-0.14-0.066-0.222
			c-0.035-0.082-0.057-0.156-0.065-0.222c0.003-0.321-0.021-0.519-0.07-0.593c-0.048-0.074-0.093-0.115-0.134-0.124
			c0-0.107-0.018-0.255-0.053-0.444c-0.036-0.188-0.056-0.316-0.064-0.383l-0.134-0.124c-0.049-0.074-0.082-0.177-0.098-0.309
			c-0.015-0.131-0.031-0.21-0.047-0.234c-0.017-0.024-0.053-0.08-0.109-0.168c-0.057-0.086-0.089-0.161-0.098-0.229
			c-0.031-0.049-0.052-0.106-0.06-0.172c-0.008-0.066-0.02-0.111-0.036-0.137l-0.365-0.557c-0.057-0.14-0.14-0.36-0.247-0.661
			c-0.11-0.301-0.188-0.489-0.237-0.563c-0.145-0.33-0.465-0.723-0.959-1.178c-0.492-0.455-0.82-0.808-0.982-1.056
			c-0.156-0.075-0.346-0.242-0.57-0.503c-0.224-0.261-0.373-0.42-0.446-0.478c-0.433-0.282-0.682-0.474-0.747-0.573
			c-0.639-0.324-1.026-0.565-1.164-0.724c-0.133,0.017-0.331,0.022-0.599,0.021c-0.266-0.001-0.479,0.014-0.636,0.045
			C15.262,22.358,15.071,22.447,14.873,22.577z"/>
		<path fill="#231F20" d="M29.802,22.982c0.171-0.045,0.403-0.037,0.695,0.024c0.291,0.062,0.494,0.077,0.609,0.047
			c0.195,0.163,0.351,0.229,0.466,0.199c0.042,0.051,0.128,0.112,0.254,0.186c0.127,0.074,0.219,0.166,0.277,0.271
			c0.094,0.007,0.256,0.271,0.484,0.792l0.043-0.011c0.028-0.008,0.081-0.045,0.155-0.109c0.075-0.066,0.126-0.103,0.155-0.109
			c0.033-0.102,0.095-0.187,0.185-0.256c0.089-0.069,0.215-0.147,0.375-0.236c0.161-0.088,0.295-0.161,0.401-0.221
			c0.078-0.05,0.18-0.161,0.304-0.331c0.124-0.171,0.255-0.312,0.394-0.425c0.14-0.112,0.299-0.178,0.479-0.194
			c0.332-0.363,0.804-0.608,1.413-0.738c0.028-0.007,0.07,0.005,0.124,0.036c0.055,0.031,0.113,0.055,0.179,0.068
			c0.357-0.155,0.748-0.097,1.172,0.175c0.424,0.272,0.681,0.411,0.774,0.417c0.073,0.043,0.178,0.153,0.317,0.33
			c0.138,0.179,0.261,0.299,0.37,0.362c0.007,0.029,0.01,0.066,0.006,0.113c-0.003,0.047,0,0.085,0.007,0.113
			c0.016,0.058,0.05,0.133,0.105,0.225c0.055,0.094,0.09,0.169,0.105,0.226l0.033,0.129c0.028-0.008,0.063,0.014,0.108,0.063
			l0.065,0.074l0.034,0.129c0.022,0.086,0.077,0.21,0.166,0.37c0.088,0.161,0.147,0.299,0.177,0.413
			c0.036,0.021,0.074,0.05,0.114,0.085s0.078,0.064,0.115,0.085l0.111,0.43c0.022,0.086,0.021,0.201-0.002,0.345
			c-0.023,0.145-0.027,0.244-0.012,0.302c0.057,0.567,0.074,0.869,0.053,0.904c0.111,0.187,0.145,0.315,0.103,0.387
			c0.007,0.029,0.031,0.062,0.071,0.097c0.039,0.035,0.063,0.068,0.07,0.097c-0.095,0.454-0.153,0.698-0.174,0.734
			c0.107,0.063,0.191,0.21,0.252,0.438c0.038,0.144,0.021,0.255-0.05,0.335c0.008,0.028,0.039,0.036,0.098,0.021
			c0.057-0.015,0.078,0.01,0.065,0.075c0.015,0.057,0.005,0.136-0.029,0.237l-0.064,0.107c0.023,0.087,0.083,0.171,0.181,0.252
			c0.098,0.082,0.169,0.147,0.213,0.196c0.008,0.029-0.005,0.07-0.037,0.125c-0.031,0.054-0.039,0.11-0.024,0.167l0.022,0.086
			c0.007,0.029,0.043,0.104,0.105,0.226c0.063,0.121,0.101,0.211,0.115,0.268l-0.03,0.054c0.007,0.029,0.014,0.059,0.021,0.087
			c0.008,0.029,0.062,0.06,0.163,0.095c0.065,0.014,0.104,0.049,0.12,0.106c0.278-0.104,0.545-0.227,0.798-0.37
			c0.254-0.142,0.521-0.32,0.802-0.532c0.282-0.211,0.486-0.364,0.615-0.459c0.092-0.116,0.253-0.288,0.484-0.518
			c0.23-0.229,0.388-0.416,0.473-0.561l0.236-0.153c0.063-0.108,0.325-0.392,0.787-0.85c0.848-1.202,1.317-1.861,1.41-1.978
			l0.344-0.09c0.042-0.072,0.104-0.157,0.187-0.256c0.081-0.097,0.132-0.165,0.154-0.201l0.086-0.022
			c0.171-0.045,0.364-0.156,0.577-0.335c0.214-0.179,0.393-0.286,0.535-0.325c0.458-0.119,0.784,0.011,0.975,0.389l0.124,0.473
			c0.017,0.179-0.057,0.428-0.218,0.746c-0.162,0.318-0.238,0.553-0.229,0.702l-0.106,0.12c-0.07,0.081-0.113,0.152-0.127,0.218
			c-0.114,0.03-0.203,0.076-0.263,0.138s-0.115,0.146-0.164,0.249c-0.049,0.105-0.084,0.176-0.104,0.212
			c-0.043,0.073-0.128,0.155-0.255,0.251c-0.129,0.095-0.221,0.188-0.272,0.277c-0.054,0.091-0.061,0.208-0.023,0.351
			c-0.341,0.335-0.532,0.538-0.575,0.61l-0.031,0.054c-0.022,0.037-0.047,0.059-0.074,0.066c-0.201,0.052-0.301,0.201-0.297,0.445
			c-0.029,0.007-0.063,0.023-0.103,0.049c-0.039,0.026-0.073,0.042-0.102,0.05c-0.028,0.007-0.059,0.124-0.093,0.346
			c-0.042,0.073-0.167,0.182-0.374,0.328c-0.207,0.146-0.323,0.284-0.351,0.413c-0.086,0.022-0.203,0.1-0.353,0.23
			c-0.15,0.131-0.25,0.219-0.299,0.262c-0.071,0.08-0.197,0.183-0.379,0.307c-0.182,0.125-0.305,0.24-0.368,0.35
			c-0.029,0.007-0.075,0.034-0.14,0.082c-0.063,0.047-0.11,0.074-0.139,0.082c-0.021,0.036-0.113,0.152-0.276,0.348
			c-0.162,0.196-0.302,0.31-0.416,0.34l-0.173,0.044c-0.05,0.044-0.112,0.122-0.19,0.234s-0.131,0.172-0.16,0.18
			c-0.185,0.109-0.28,0.212-0.287,0.305c-0.137,0.066-0.299,0.177-0.486,0.335c-0.189,0.156-0.322,0.26-0.4,0.312l-0.216,0.057
			l-0.202,0.099c-0.194-0.041-0.321-0.054-0.378-0.038l-0.516,0.135c-0.433-0.01-0.756-0.078-0.972-0.204l-0.197-0.225
			c-0.089-0.1-0.239-0.213-0.457-0.34c-0.327-0.312-0.494-0.482-0.502-0.511c-0.369-0.24-0.667-0.561-0.894-0.96
			c-0.218-0.127-0.455-0.393-0.716-0.8c-0.26-0.406-0.411-0.634-0.455-0.685c-0.007-0.028-0.003-0.068,0.015-0.119
			c0.017-0.05,0.022-0.09,0.016-0.118c-0.175-0.199-0.318-0.514-0.432-0.943c-0.052-0.2-0.075-0.348-0.068-0.441
			c-0.132-0.149-0.158-0.249-0.08-0.301c-0.108-0.063-0.196-0.224-0.264-0.481c-0.067-0.259-0.12-0.397-0.156-0.419
			c0.014-0.064,0.042-0.133,0.084-0.206c-0.044-0.049-0.08-0.131-0.11-0.246c-0.03-0.114-0.032-0.236-0.004-0.366
			c-0.089-0.1-0.14-0.178-0.154-0.235l0.062-0.292c-0.044-0.05-0.076-0.118-0.099-0.203c-0.03-0.114-0.039-0.266-0.027-0.453
			c0.013-0.187,0.008-0.323-0.015-0.409c-0.009-0.028-0.016-0.057-0.023-0.086l-0.065-0.074c-0.029,0.007-0.068,0.033-0.118,0.077
			c-0.05,0.043-0.107,0.059-0.172,0.044c0.023,0.087,0.009,0.205-0.044,0.356c-0.052,0.151-0.063,0.285-0.032,0.399
			c-0.122,0.123-0.227,0.342-0.312,0.655c-0.086,0.314-0.175,0.529-0.267,0.645l0.022,0.086c0.015,0.058,0.061,0.114,0.136,0.171
			c0.076,0.057,0.118,0.1,0.126,0.128c-0.007,0.094-0.041,0.225-0.104,0.395c-0.063,0.17-0.094,0.315-0.093,0.438
			c0.132,0.149,0.225,0.324,0.276,0.525c0.09,0.343,0.05,0.6-0.12,0.766c0.147,0.329,0.236,0.552,0.266,0.665
			c-0.014,0.065-0.058,0.13-0.133,0.195c-0.073,0.066-0.107,0.113-0.101,0.142c0.017,0.058,0.062,0.115,0.136,0.171
			c0.077,0.057,0.119,0.1,0.126,0.128l0.147,0.559c-0.063,0.108-0.076,0.234-0.039,0.378l0.034,0.129
			c-0.051,0.044-0.063,0.23-0.036,0.561c-0.043,0.073-0.053,0.151-0.03,0.237c0.008,0.029,0.035,0.075,0.082,0.14
			c0.047,0.063,0.075,0.11,0.083,0.139c0.015,0.058-0.004,0.139-0.052,0.243c-0.05,0.104-0.065,0.187-0.051,0.243
			c-0.029,0.008-0.095,0.163-0.199,0.466c0.043,0.05,0.071,0.126,0.083,0.23c0.012,0.104,0.039,0.181,0.083,0.23
			c-0.041,0.194-0.196,0.358-0.469,0.49c-0.021,0.036-0.047,0.112-0.077,0.228c-0.032,0.115-0.072,0.195-0.121,0.238l-0.43,0.113
			c-0.194-0.041-0.351-0.046-0.464-0.017c-0.073-0.042-0.266-0.137-0.58-0.284c-0.313-0.147-0.537-0.296-0.668-0.444
			c-0.093-0.007-0.201-0.069-0.325-0.19s-0.218-0.188-0.282-0.202c-0.09-0.222-0.271-0.418-0.546-0.592
			c-0.274-0.173-0.436-0.283-0.479-0.334c-0.178-0.443-0.318-0.865-0.424-1.267l-0.078-0.301c-0.016-0.058-0.021-0.133-0.013-0.227
			c0.005-0.093,0.005-0.154-0.003-0.184c-0.007-0.027-0.034-0.066-0.077-0.117c-0.043-0.049-0.069-0.089-0.077-0.118
			c-0.007-0.027-0.012-0.072-0.012-0.134c-0.001-0.061-0.005-0.105-0.013-0.135c-0.007-0.027-0.043-0.104-0.104-0.225
			c-0.063-0.122-0.105-0.226-0.127-0.312l-0.035-0.129c-0.067-0.258-0.142-0.423-0.221-0.493l-0.259-0.988
			c0.041-0.194,0.027-0.359-0.038-0.495c0.063-0.108,0.084-0.229,0.065-0.361c-0.02-0.134-0.054-0.292-0.103-0.479
			c-0.048-0.187-0.074-0.341-0.074-0.463c-0.008-0.028-0.005-0.106,0.007-0.231c0.014-0.126,0.013-0.218-0.002-0.275
			c-0.075-0.286-0.104-0.447-0.082-0.483c-0.015-0.058-0.065-0.136-0.153-0.236c-0.104-0.278-0.195-0.714-0.274-1.306
			c-0.078-0.592-0.146-1.002-0.207-1.231s0.063-0.461,0.368-0.694C29.326,23.215,29.571,23.043,29.802,22.982z"/>
		<path fill="#231F20" d="M48.481,5.517c0.204-0.021,0.518-0.025,0.938-0.012c0.091,0.021,0.346,0.171,0.764,0.453
			c0.349,0.201,0.53,0.359,0.543,0.477l-0.039,0.05c0.004,0.029,0.007,0.059,0.01,0.088s0.037,0.071,0.103,0.123
			c0.065,0.054,0.069,0.097,0.015,0.132c0.116-0.013,0.209,0.008,0.274,0.061c0.036,0.056,0.137,0.224,0.301,0.504
			c0.165,0.279,0.255,0.493,0.27,0.641c0.007,0.06-0.01,0.18-0.049,0.363c0.083,0.229,0.135,0.417,0.15,0.563
			c0.016,0.148-0.001,0.269-0.05,0.364c0.17,0.189,0.265,0.373,0.283,0.55c0.006,0.059-0.014,0.15-0.06,0.274
			c0.153,0.043,0.243,0.182,0.269,0.418c0.017,0.147-0.02,0.375-0.104,0.682c0.107,0.167,0.175,0.369,0.199,0.604
			c0.026,0.236-0.015,0.42-0.118,0.55c0.169,0.189,0.261,0.345,0.272,0.462c0.008,0.059-0.002,0.119-0.024,0.181L52.3,13.102
			l0.014,0.133c0.01,0.089,0.029,0.198,0.059,0.329c0.028,0.131,0.047,0.226,0.053,0.285l0.01,0.088
			c-0.023,0.063-0.066,0.148-0.129,0.26c-0.062,0.111-0.091,0.182-0.088,0.21c-0.024,0.063-0.029,0.153-0.017,0.271
			c0.014,0.118,0.007,0.193-0.02,0.226c0.003,0.029,0.03,0.071,0.081,0.125c0.051,0.055,0.077,0.097,0.081,0.125
			c-0.018,0.39-0.115,0.728-0.292,1.016c0.035,0.056,0.06,0.143,0.073,0.26c0.028,0.265-0.057,0.453-0.252,0.563
			c0.039,0.085,0.041,0.168,0.004,0.246c-0.035,0.078-0.053,0.132-0.049,0.161l0.014,0.133c-0.111,0.072-0.188,0.252-0.231,0.539
			c-0.043,0.288-0.106,0.467-0.188,0.534l0.024,0.221l-0.118,0.147c-0.023,0.331-0.093,0.517-0.207,0.559
			c0.002,0.298-0.125,0.639-0.381,1.024c0.102,0.108,0.142,0.208,0.122,0.3c0.098,0.079,0.192,0.263,0.283,0.55
			c0.004,0.03-0.022,0.063-0.078,0.099l-0.039,0.048c0.038,0.086,0.072,0.194,0.103,0.325c0.028,0.131,0.076,0.237,0.146,0.319
			l0.015,0.133c0.013,0.117,0.053,0.277,0.118,0.479c0.067,0.201,0.106,0.346,0.115,0.434c0.013,0.118-0.017,0.256-0.089,0.412
			c0.003,0.029,0.021,0.058,0.053,0.084s0.052,0.069,0.059,0.127l-0.176,0.02c0.006,0.06,0.038,0.086,0.098,0.079
			c0.064,0.053,0.099,0.094,0.102,0.122c0.029,0.266,0.091,0.423,0.186,0.472l-0.034,0.094c-0.022,0.063-0.05,0.095-0.079,0.098
			l0.217,0.334c-0.027,0.033-0.039,0.064-0.036,0.094c0.059-0.007,0.108,0.048,0.151,0.162s0.109,0.182,0.201,0.201
			c0.036,0.324,0.171,0.622,0.41,0.894c0.003,0.03-0.009,0.062-0.034,0.094c-0.026,0.033-0.024,0.063,0.01,0.088
			c0.003,0.03,0.036,0.071,0.103,0.124c0.064,0.053,0.085,0.109,0.063,0.171c0.092,0.021,0.167,0.087,0.223,0.199
			c0.058,0.113,0.103,0.184,0.136,0.209c0.296,0.266,0.71,0.37,1.24,0.313c0.234-0.025,0.553-0.119,0.953-0.282
			c0.255-0.117,0.526-0.296,0.813-0.535c0.287-0.239,0.487-0.381,0.602-0.423c0.111-0.071,0.246-0.205,0.403-0.401
			c0.174-0.049,0.346-0.172,0.519-0.37c0.172-0.197,0.315-0.316,0.431-0.359c0.281-0.417,0.593-0.719,0.93-0.905
			c0.098-0.189,0.22-0.307,0.363-0.353c0.029-0.003,0.042-0.026,0.037-0.07c-0.005-0.045,0.008-0.068,0.037-0.071
			c0.164-0.137,0.303-0.227,0.418-0.269c0.131-0.163,0.254-0.267,0.368-0.309c0.111-0.071,0.26-0.215,0.445-0.428
			c0.185-0.215,0.349-0.358,0.488-0.434c0.162-0.435,0.552-0.686,1.171-0.753c0.47-0.052,0.73,0.145,0.778,0.586
			c0.031,0.294-0.024,0.599-0.17,0.912c0.004,0.03-0.035,0.079-0.116,0.146c-0.082,0.069-0.136,0.135-0.158,0.196
			c-0.026,0.033-0.091,0.137-0.19,0.312s-0.19,0.296-0.273,0.364c-0.01,0.181-0.125,0.356-0.344,0.529
			c0.007,0.059-0.004,0.105-0.029,0.138c-0.026,0.032-0.06,0.073-0.1,0.122c-0.039,0.049-0.072,0.09-0.098,0.123
			c-0.026,0.032-0.052,0.08-0.074,0.142l-0.04,0.049c-0.026,0.033-0.074,0.075-0.142,0.127c-0.069,0.053-0.117,0.095-0.143,0.128
			c-0.446,0.555-0.741,0.87-0.88,0.944l0.019,0.177c-0.082,0.068-0.232,0.204-0.447,0.406c-0.218,0.202-0.392,0.378-0.524,0.525
			c-0.133,0.149-0.249,0.318-0.347,0.508c-0.115,0.042-0.24,0.123-0.376,0.242c-0.138,0.119-0.247,0.198-0.332,0.236
			c-0.05,0.096-0.17,0.22-0.36,0.375c-0.193,0.155-0.313,0.295-0.358,0.419c-0.147,0.016-0.317,0.095-0.511,0.234
			c-0.192,0.14-0.361,0.232-0.506,0.277c-0.029,0.004-0.058,0.022-0.083,0.054c0.007,0.061-0.006,0.09-0.034,0.094l-0.177,0.019
			c-0.148,0.017-0.277,0.061-0.389,0.132l-0.132,0.015c-0.061,0.007-0.16,0.04-0.302,0.1c-0.144,0.061-0.244,0.094-0.304,0.1
			l-0.131,0.015l-0.144-0.073c-0.205,0.022-0.342,0.008-0.407-0.045l-0.034,0.093l-0.034,0.093
			c-0.295,0.032-0.492-0.006-0.594-0.114c-0.081,0.069-0.211,0.112-0.388,0.132c-0.029,0.003-0.156,0.002-0.38-0.004
			c-0.224-0.005-0.423,0.017-0.597,0.065c-0.062-0.022-0.269-0.075-0.619-0.156c-0.353-0.08-0.58-0.19-0.686-0.328
			c-0.061-0.022-0.105-0.018-0.131,0.015c-0.057,0.036-0.099,0.056-0.129,0.059c-0.006-0.059-0.048-0.099-0.125-0.12
			s-0.115-0.047-0.118-0.077c-0.057,0.036-0.116,0.043-0.179,0.02c-0.062-0.022-0.107-0.033-0.137-0.03
			c-0.163-0.13-0.434-0.288-0.811-0.47c-0.378-0.183-0.647-0.339-0.811-0.471c-0.076-0.142-0.129-0.21-0.157-0.206
			c-0.036-0.057-0.136-0.149-0.298-0.281c-0.164-0.131-0.279-0.237-0.349-0.319l-0.019-0.177c-0.029,0.003-0.07-0.022-0.12-0.076
			c-0.051-0.055-0.105-0.078-0.163-0.072c-0.01-0.088-0.065-0.187-0.167-0.294c-0.102-0.108-0.157-0.206-0.167-0.296l0.039-0.049
			c-0.003-0.028-0.006-0.059-0.009-0.088l-0.322-0.501c-0.036-0.056-0.077-0.148-0.12-0.277c-0.043-0.13-0.085-0.237-0.123-0.322
			c-0.003-0.029-0.022-0.057-0.055-0.083c-0.032-0.025-0.051-0.054-0.054-0.084c-0.036-0.056-0.068-0.148-0.098-0.28
			c-0.03-0.13-0.047-0.225-0.053-0.284c-0.011-0.088-0.052-0.21-0.129-0.365s-0.135-0.276-0.174-0.361l-0.059-0.53
			c-0.025-0.235-0.03-0.414-0.013-0.535c-0.007-0.059-0.025-0.101-0.058-0.128l-0.104-0.122c-0.01-0.089-0.098-0.481-0.262-1.179
			c-0.166-0.697-0.272-1.267-0.32-1.708c0.027-0.032,0.063-0.11,0.108-0.235c-0.003-0.028-0.029-0.057-0.075-0.081
			c-0.048-0.024-0.072-0.052-0.076-0.081c-0.003-0.029,0-0.067,0.011-0.113s0.013-0.083,0.01-0.112
			c-0.01-0.089-0.039-0.227-0.09-0.415c-0.05-0.188-0.082-0.341-0.095-0.459c-0.013-0.117-0.008-0.207,0.015-0.27
			c-0.074-0.141-0.168-0.458-0.281-0.953c-0.072-0.11-0.11-0.195-0.117-0.255c-0.004-0.029,0.004-0.098,0.021-0.204
			c0.019-0.105,0.024-0.188,0.019-0.247c-0.007-0.06-0.046-0.152-0.119-0.278s-0.115-0.232-0.125-0.321
			c-0.003-0.028,0.008-0.074,0.03-0.137c-0.071-0.111-0.111-0.196-0.117-0.256c-0.007-0.059-0.007-0.134-0.002-0.224
			s0.006-0.148,0.003-0.179c-0.017-0.146-0.057-0.247-0.121-0.3c-0.003-0.029,0.019-0.105,0.063-0.23
			c-0.119-0.284-0.262-0.91-0.427-1.875c-0.003-0.029,0.009-0.061,0.036-0.093c0.025-0.032,0.055-0.036,0.087-0.01
			c-0.003-0.029-0.021-0.058-0.053-0.084c-0.032-0.025-0.053-0.068-0.059-0.128c0.02-0.091,0.006-0.224-0.044-0.397
			c-0.049-0.173-0.063-0.306-0.044-0.397c-0.006-0.059,0.003-0.118,0.026-0.181c0.022-0.063,0.032-0.107,0.029-0.138l-0.063-0.172
			c-0.02-0.177,0.012-0.448,0.09-0.814c0.052-0.631,0.205-1.14,0.461-1.524c0.025-0.032,0.037-0.063,0.034-0.094
			c-0.004-0.028-0.01-0.088-0.02-0.177c0.028-0.003,0.041-0.033,0.034-0.093c-0.01-0.088,0.024-0.188,0.102-0.302
			c0.078-0.112,0.128-0.199,0.15-0.262c-0.003-0.029,0.013-0.098,0.045-0.206c0.034-0.108,0.061-0.192,0.084-0.255
			c0.085-0.039,0.173-0.115,0.266-0.229c0.092-0.114,0.181-0.191,0.265-0.23c-0.012-0.117,0.063-0.245,0.228-0.382
			c0.046-0.124,0.115-0.236,0.209-0.336c0.093-0.1,0.217-0.202,0.369-0.309c0.151-0.105,0.254-0.19,0.307-0.257
			c0.436-0.106,0.793-0.234,1.076-0.385c0.056-0.035,0.101-0.04,0.132-0.015c0.063,0.023,0.107,0.033,0.138,0.03
			C48.045,5.609,48.244,5.542,48.481,5.517z M49.734,10.476c-0.144,0.046-0.534,0.297-1.169,0.752
			c0.098,0.079,0.149,0.148,0.156,0.207c0.003,0.029-0.013,0.091-0.047,0.184c-0.034,0.094-0.048,0.17-0.042,0.229
			c0.004,0.029,0.03,0.071,0.08,0.125c0.051,0.055,0.078,0.097,0.081,0.126s-0.028,0.085-0.095,0.167
			c-0.064,0.081-0.095,0.151-0.088,0.21c0.011,0.088,0.077,0.245,0.207,0.47c0.129,0.225,0.2,0.396,0.212,0.513
			c0.003,0.029-0.018,0.113-0.062,0.253c-0.044,0.139-0.063,0.237-0.057,0.297l0.023,0.221c0.025,0.235-0.071,0.439-0.291,0.612
			c0.134,0.135,0.411,0.491,0.832,1.071c-0.193,0.141-0.277,0.328-0.251,0.563c0.009,0.089,0.043,0.204,0.104,0.347
			s0.095,0.258,0.104,0.346c0.029-0.003,0.082-0.001,0.158,0.006c0.074,0.007,0.14-0.008,0.195-0.044
			c0.075-0.127,0.079-0.5,0.012-1.119c-0.034-0.323,0.043-0.569,0.233-0.74c-0.099-0.078-0.152-0.162-0.162-0.25
			c0.217-0.203,0.306-0.548,0.269-1.035c-0.039-0.486-0.048-0.776-0.027-0.868c-0.004-0.029,0.015-0.062,0.057-0.096
			c0.041-0.033,0.089-0.068,0.145-0.105l0.079-0.098c0.063-0.245,0.082-0.47,0.061-0.677C50.404,11.699,50.165,11.144,49.734,10.476
			z M51.535,24.581l0.094,0.034c0.025-0.032,0.023-0.054-0.008-0.065S51.561,24.549,51.535,24.581z"/>
		<path fill="#231F20" d="M62.338,19.91c0.001,0.06,0.03,0.088,0.091,0.087l0.178-0.004c0.178-0.004,0.356,0.052,0.536,0.166
			c0.031,0.089,0.108,0.19,0.229,0.307s0.196,0.218,0.229,0.306l0.002,0.089c0,0.03,0.017,0.089,0.048,0.177
			c0.031,0.089,0.049,0.177,0.051,0.266l0.091,0.087c-0.028,0.089-0.04,0.187-0.038,0.289c0.002,0.104,0.003,0.171,0.004,0.201
			c0.029,0.028,0.055,0.117,0.073,0.265c0.017,0.147,0.04,0.236,0.07,0.265c-0.028,0.061-0.04,0.208-0.034,0.445
			c0.006,0.297,0.025,0.504,0.058,0.621c0.002,0.06,0.041,0.177,0.119,0.353c0.077,0.176,0.117,0.295,0.118,0.354
			c0.002,0.06,0.003,0.126,0.004,0.2c0.002,0.074,0.018,0.125,0.048,0.154l0.047,0.088c0,0.029,0.001,0.06,0.001,0.088
			c0.006,0.268,0.127,0.398,0.365,0.394c0.117-0.003,0.22-0.094,0.305-0.274l-0.003-0.133c-0.008-0.385,0.017-0.607,0.075-0.668
			c-0.001-0.029-0.017-0.051-0.046-0.065c-0.03-0.015-0.03-0.036-0.002-0.067c0-0.029,0.028-0.074,0.087-0.135
			c-0.032-0.059-0.048-0.133-0.05-0.221c-0.003-0.148,0.052-0.313,0.167-0.493c-0.001-0.029-0.022-0.044-0.066-0.043
			c-0.046,0.001-0.067-0.013-0.068-0.043c0.027-0.089,0.038-0.282,0.032-0.578l-0.004-0.178c0.029-0.001,0.045-0.008,0.044-0.023
			c0-0.015,0.014-0.022,0.044-0.022c-0.031-0.059-0.032-0.104-0.003-0.134l0.042-0.134c-0.001-0.029-0.01-0.045-0.023-0.045
			c-0.016,0.001-0.022-0.014-0.023-0.043c-0.001-0.03,0.014-0.082,0.041-0.156c0.028-0.075,0.042-0.157,0.04-0.246
			c-0.002-0.059,0.02-0.133,0.061-0.224c0.042-0.089,0.063-0.148,0.063-0.179c0-0.029-0.017-0.059-0.045-0.088
			c-0.03-0.028-0.031-0.059-0.002-0.089c0.027-0.029,0.087-0.046,0.176-0.048l0.043-0.091c0.028-0.029,0.058-0.045,0.088-0.045
			c-0.006-0.237,0.213-0.42,0.655-0.548l0.219-0.138c0.028-0.001,0.081-0.009,0.155-0.025c0.073-0.017,0.124-0.04,0.153-0.07
			c0.416,0.051,0.654,0.119,0.716,0.207c0.207-0.005,0.416,0.065,0.626,0.208c0.091,0.028,0.196,0.145,0.319,0.349
			c0.003,0.149,0.049,0.222,0.138,0.22c0.059-0.001,0.09,0.014,0.091,0.042l0.006,0.312c0.062,0.117,0.094,0.235,0.097,0.354
			l0.016,0.71c0.001,0.03-0.021,0.061-0.065,0.091c-0.044,0.031-0.065,0.062-0.064,0.09c0.031,0.118,0.035,0.296,0.011,0.533
			c-0.024,0.238-0.006,0.4,0.056,0.487c-0.028,0.062-0.05,0.113-0.063,0.157c-0.015,0.045-0.021,0.083-0.02,0.112l0.135,0.13
			c-0.028,0.061-0.039,0.238-0.033,0.534l-0.085,0.091c0.092,0.176,0.155,0.396,0.19,0.662c0.06-0.001,0.134-0.024,0.222-0.071
			c0.088-0.046,0.176-0.07,0.265-0.072l0.352-0.186c0.058-0.06,0.116-0.091,0.176-0.093l0.044-0.001
			c0.029-0.029,0.066-0.06,0.11-0.091c0.042-0.03,0.078-0.061,0.108-0.091l0.178-0.004l0.219-0.139c0.029,0,0.089-0.009,0.178-0.025
			s0.147-0.04,0.177-0.07l0.133-0.003c0.058-0.031,0.161-0.063,0.309-0.096c0.146-0.032,0.25-0.079,0.309-0.141l0.134-0.002
			c0.232-0.123,0.365-0.186,0.396-0.187l0.088-0.047c0.089-0.002,0.147-0.003,0.178-0.003l0.178-0.004l0.044-0.001
			c0.028-0.03,0.058-0.046,0.089-0.046l0.132-0.003c0.029-0.001,0.06-0.017,0.089-0.047l0.088-0.002l0.224-0.005
			c0.058-0.001,0.146-0.018,0.265-0.05s0.205-0.049,0.266-0.05c0.117-0.003,0.207,0.025,0.269,0.083
			c0.06-0.001,0.117-0.01,0.177-0.026c0.059-0.016,0.103-0.024,0.133-0.025c0.029,0,0.082,0.021,0.157,0.064
			c0.075,0.042,0.142,0.078,0.201,0.105c0.002,0.061,0.063,0.148,0.184,0.264c-0.169,0.358-0.416,0.602-0.74,0.727l0.005,0.178
			c-0.264,0.154-0.513,0.278-0.748,0.371l-0.13,0.137c-0.089,0.031-0.214,0.079-0.375,0.142c-0.162,0.063-0.271,0.109-0.329,0.14
			c-0.06,0.031-0.141,0.069-0.243,0.116c-0.104,0.047-0.169,0.086-0.197,0.116c-0.059,0.03-0.117,0.068-0.175,0.114
			c-0.06,0.046-0.118,0.084-0.176,0.115c-0.03,0.001-0.06,0.017-0.087,0.046c-0.06,0.061-0.103,0.091-0.132,0.092
			c-0.029,0.03-0.096,0.068-0.198,0.115c-0.104,0.046-0.183,0.101-0.241,0.161l-0.045-0.044c-0.029,0.001-0.06,0.001-0.089,0.002
			l-0.13,0.181c-0.089,0.031-0.234,0.102-0.439,0.209c-0.205,0.108-0.367,0.164-0.485,0.166l-0.087,0.136
			c-0.177,0.003-0.31,0.066-0.396,0.186c-0.117,0.033-0.264,0.11-0.439,0.231l-0.043,0.09l0.002,0.089
			c0.003,0.119-0.031,0.245-0.103,0.381c-0.07,0.134-0.105,0.246-0.104,0.335c-0.056,0.18-0.067,0.298-0.037,0.356
			c-0.086,0.091-0.128,0.211-0.125,0.357c0.002,0.09,0.019,0.163,0.049,0.222l-0.042,0.09c-0.028,0.061-0.058,0.09-0.088,0.091
			c0.002,0.089,0.033,0.163,0.095,0.22c0.001,0.06-0.011,0.238-0.033,0.534c-0.023,0.297-0.078,0.506-0.165,0.626l0.008,0.355
			c0.001,0.029-0.021,0.059-0.064,0.09c-0.044,0.03-0.065,0.061-0.065,0.091c0.001,0.029,0.002,0.059,0.002,0.089l0.046,0.043
			c-0.028,0.06-0.042,0.135-0.04,0.223c0.002,0.09,0.003,0.148,0.004,0.178c-0.028,0.061-0.071,0.143-0.128,0.247
			c-0.057,0.105-0.085,0.173-0.084,0.202c0.002,0.089-0.026,0.163-0.084,0.224c0.093,0.235,0.052,0.369-0.125,0.403l0.003,0.134
			l-0.044,0.045c-0.029,0.029-0.059,0.046-0.088,0.047c0.062,0.116,0.049,0.176-0.041,0.178c0.002,0.089-0.04,0.193-0.126,0.314
			c-0.086,0.119-0.128,0.225-0.126,0.313c-0.088,0.061-0.197,0.166-0.328,0.317c-0.129,0.151-0.237,0.257-0.326,0.318
			c0.001,0.029-0.014,0.074-0.041,0.135c-0.06,0.001-0.118,0.039-0.175,0.114c-0.059,0.075-0.116,0.114-0.176,0.115
			c0.001,0.029-0.021,0.06-0.064,0.09s-0.081,0.075-0.108,0.136l-0.132,0.003c-0.088,0.091-0.19,0.167-0.308,0.229
			c-0.029,0.001-0.082,0.031-0.154,0.093c-0.071,0.061-0.138,0.092-0.197,0.093c-0.029,0.03-0.088,0.047-0.177,0.049
			c-0.09,0.002-0.147,0.018-0.176,0.048c-0.06,0.03-0.133,0.047-0.222,0.049c-0.118,0.062-0.206,0.078-0.266,0.05
			c-0.029,0.001-0.06,0.023-0.088,0.069c-0.028,0.045-0.073,0.067-0.132,0.069l-0.4,0.008c-0.029,0.001-0.073,0.017-0.132,0.048
			l-0.044,0.045c-0.147,0.004-0.355-0.014-0.622-0.053c-0.268-0.039-0.476-0.057-0.624-0.054c-0.061-0.058-0.091-0.103-0.091-0.131
			c-0.148,0.003-0.253-0.01-0.313-0.038c-0.029,0.001-0.061-0.014-0.09-0.042l-0.089-0.043c-0.27-0.083-0.42-0.14-0.448-0.168
			l-0.178,0.003c-0.001-0.029-0.023-0.059-0.069-0.087c-0.045-0.028-0.083-0.072-0.113-0.131c-0.178,0.004-0.284-0.083-0.316-0.26
			c-0.091-0.028-0.211-0.129-0.362-0.304c-0.152-0.174-0.272-0.275-0.362-0.303l-0.004-0.178l-0.544-0.521l0.043-0.046
			c0-0.029-0.023-0.088-0.07-0.176s-0.07-0.162-0.071-0.221c-0.002-0.06-0.011-0.134-0.027-0.222
			c-0.016-0.089-0.024-0.148-0.024-0.178c-0.001-0.029,0.012-0.104,0.039-0.223c0.025-0.119,0.011-0.178-0.049-0.177l0.043-0.09
			c0.028-0.06,0.057-0.09,0.086-0.091c0.028-0.03,0.064-0.098,0.107-0.202c0.042-0.104,0.092-0.188,0.149-0.247
			c-0.001-0.089,0.085-0.225,0.259-0.405c0.027-0.09,0.084-0.195,0.171-0.315c0.086-0.121,0.144-0.211,0.172-0.27l0.045-0.002
			l0.087-0.046c-0.001-0.06,0.034-0.128,0.106-0.202c0.073-0.076,0.108-0.129,0.108-0.158c0.029,0,0.052-0.017,0.066-0.046
			c0.014-0.029,0.036-0.03,0.066-0.001c-0.001-0.06,0.026-0.135,0.084-0.225c0.057-0.09,0.085-0.149,0.084-0.18
			c0.029-0.029,0.059-0.045,0.088-0.046l0.045-0.045c0.057-0.091,0.165-0.227,0.323-0.407c0.159-0.182,0.268-0.302,0.326-0.362
			l0.308-0.141c0.086-0.149,0.261-0.323,0.522-0.521c0.264-0.198,0.437-0.343,0.524-0.434c0.029-0.001,0.073-0.017,0.132-0.047
			c0.029-0.061,0.073-0.076,0.132-0.048l0.395-0.275c-0.03-0.028-0.09-0.049-0.179-0.063c-0.09-0.013-0.15-0.049-0.181-0.107
			c-0.117,0.032-0.221,0.034-0.311,0.007c-0.061-0.028-0.194-0.077-0.402-0.146c-0.211-0.069-0.344-0.134-0.404-0.191
			c-0.12-0.027-0.269-0.098-0.449-0.213l-0.134,0.003l-0.18-0.129c-0.151-0.086-0.286-0.143-0.403-0.17
			c-0.032-0.058-0.092-0.115-0.183-0.174c-0.09-0.058-0.151-0.101-0.181-0.129c-0.03-0.029-0.105-0.132-0.228-0.307l-0.183-0.174
			c-0.031-0.028-0.055-0.088-0.069-0.177c-0.018-0.088-0.041-0.146-0.07-0.176l0.043-0.045l-0.001-0.045
			c0-0.028-0.045-0.043-0.135-0.041l0.044-0.046c-0.001-0.029-0.002-0.06-0.002-0.089c-0.06,0.001-0.104-0.013-0.134-0.041
			c-0.002-0.03,0.012-0.06,0.042-0.09l-0.001-0.045c-0.031-0.028-0.055-0.072-0.07-0.132c-0.017-0.059-0.039-0.103-0.069-0.132
			c-0.001-0.06-0.011-0.17-0.028-0.333c-0.019-0.162-0.028-0.288-0.03-0.377l-0.004-0.177c-0.002-0.09,0.012-0.148,0.04-0.179
			c0-0.029-0.008-0.067-0.023-0.111c-0.018-0.044-0.024-0.08-0.025-0.11c-0.002-0.118,0.016-0.304,0.055-0.557
			c0.039-0.252,0.058-0.438,0.055-0.557c0.028-0.06,0.048-0.164,0.061-0.313c0.011-0.147,0.017-0.237,0.016-0.267
			c0.028-0.061,0.064-0.142,0.105-0.247c0.042-0.104,0.063-0.172,0.063-0.201c0.052-0.356,0.178-0.729,0.377-1.119
			c0.175-0.093,0.307-0.229,0.391-0.408c0.09-0.002,0.19-0.063,0.308-0.185c0.029,0,0.081-0.009,0.154-0.025s0.141-0.01,0.2,0.018
			c0-0.029,0.133-0.047,0.399-0.053C62.25,19.956,62.309,19.94,62.338,19.91z M64.242,29.957l-0.264,0.139
			c0.003,0.149-0.039,0.253-0.128,0.314c0-0.03-0.03-0.045-0.088-0.043c-0.088,0.091-0.146,0.136-0.176,0.137
			c-0.026,0.149-0.128,0.292-0.302,0.429c-0.175,0.138-0.292,0.251-0.349,0.341c-0.088,0.031-0.183,0.1-0.284,0.206
			c-0.102,0.105-0.182,0.174-0.24,0.205l-0.216,0.271l-0.045,0.001c-0.028,0.029-0.06,0.046-0.088,0.046
			c0.002,0.089-0.041,0.149-0.129,0.181c-0.029,0.09-0.101,0.194-0.216,0.316c0.002,0.089-0.033,0.192-0.104,0.313
			c-0.071,0.119-0.107,0.194-0.106,0.225c0.03,0.028,0.047,0.087,0.049,0.176c-0.06,0.061-0.085,0.209-0.08,0.446l0.004,0.133
			c0.028,0,0.073,0.013,0.134,0.042c0.089-0.002,0.198-0.026,0.331-0.074c0.134-0.047,0.229-0.071,0.287-0.072
			c0.177-0.064,0.353-0.171,0.526-0.322c0.026-0.119,0.158-0.256,0.392-0.408c0.233-0.154,0.349-0.334,0.345-0.541
			c0.058-0.061,0.114-0.158,0.17-0.293c0.058-0.134,0.113-0.232,0.173-0.292c0.197-0.479,0.295-0.733,0.295-0.762l-0.002-0.089
			c-0.002-0.089,0.017-0.252,0.056-0.49C64.225,30.254,64.243,30.075,64.242,29.957z"/>
		<path fill="#231F20" d="M122.867,17.882c0.019,0.038,0.095,0.094,0.226,0.167c0.132,0.073,0.203,0.144,0.213,0.208l0.169,0.055
			c0.227,0.072,0.357,0.146,0.396,0.221c0.028,0.01,0.047,0,0.055-0.028l0.043,0.014c0.085,0.027,0.225,0.104,0.417,0.228
			c0.193,0.125,0.333,0.2,0.417,0.228c0.084,0.026,0.159,0.035,0.225,0.025c-0.009,0.028-0.018,0.057-0.027,0.085
			c-0.008,0.028-0.018,0.057-0.026,0.084l0.253,0.082c0.02,0.037,0.01,0.066-0.026,0.085l-0.013,0.042
			c0.083,0.027,0.145,0.078,0.183,0.152c0.038,0.075,0.085,0.121,0.143,0.14c0.019,0.037,0.058,0.111,0.114,0.224
			c0.058,0.111,0.072,0.21,0.045,0.294l0.086,0.168c-0.018,0.057-0.026,0.132-0.025,0.226s-0.003,0.155-0.012,0.183
			c-0.027,0.084-0.06,0.207-0.095,0.366c-0.037,0.159-0.054,0.286-0.053,0.38s0.018,0.208,0.053,0.344
			c0.033,0.135,0.042,0.231,0.024,0.288c-0.01,0.027-0.033,0.052-0.07,0.07c-0.027-0.009-0.047,0.001-0.056,0.029
			c-0.019,0.057-0.008,0.145,0.031,0.267c0.038,0.121,0.049,0.21,0.03,0.267c-0.009,0.027-0.069,0.07-0.181,0.128
			s-0.177,0.114-0.194,0.171c-0.019,0.057-0.009,0.099,0.028,0.126c0.039,0.028,0.053,0.056,0.044,0.084
			c-0.102,0.216-0.132,0.408-0.093,0.577l-0.278,0.283l-0.336,0.173c0.001,0.093,0.072,0.163,0.213,0.208
			c0.02,0.037,0.011,0.137-0.023,0.295c-0.036,0.16-0.036,0.277,0.003,0.352c-0.147,0.264-0.235,0.438-0.262,0.522
			c-0.037,0.113-0.046,0.188-0.026,0.226l-0.027,0.084c-0.018,0.058-0.111,0.151-0.278,0.284c0.021,0.131-0.005,0.31-0.078,0.534
			c-0.072,0.227-0.085,0.409-0.037,0.549c-0.009,0.028-0.048,0.078-0.117,0.148c-0.069,0.071-0.081,0.131-0.033,0.177
			c-0.038,0.019-0.085,0.02-0.142,0.001l-0.066,0.212c-0.038,0.019-0.099,0.015-0.184-0.013c-0.009,0.028-0.002,0.102,0.023,0.218
			c0.023,0.117,0.027,0.204,0.01,0.26c-0.036,0.113-0.116,0.166-0.238,0.157c-0.019,0.057-0.024,0.318-0.02,0.787
			c-0.028-0.01-0.062-0.004-0.099,0.015l-0.055,0.028l0.074,0.492c-0.009,0.028-0.041,0.056-0.097,0.084
			c-0.056,0.029-0.088,0.059-0.098,0.086c-0.009,0.028,0.001,0.14,0.031,0.337c-0.147,0.264-0.248,0.48-0.303,0.649
			c-0.091,0.282-0.116,0.554-0.076,0.815c-0.11,0.058-0.185,0.144-0.222,0.256c-0.018,0.057-0.026,0.178-0.024,0.365
			c-0.026,0.085-0.097,0.108-0.21,0.072c-0.044,0.328-0.031,0.534,0.034,0.618c-0.019,0.057-0.074,0.085-0.167,0.086l-0.152,0.185
			c-0.01,0.027-0.026,0.054-0.049,0.077c-0.023,0.023-0.029,0.068-0.02,0.134c-0.019,0.057,0.016,0.098,0.1,0.125
			c-0.082,0.254-0.108,0.386-0.081,0.395c-0.037,0.02-0.064,0.057-0.082,0.113c-0.009,0.028,0,0.093,0.029,0.196l0.044,0.154
			c-0.037,0.02-0.096,0.056-0.175,0.107c-0.08,0.053-0.138,0.088-0.175,0.107c-0.01,0.027,0.005,0.079,0.044,0.154
			c0.038,0.074,0.067,0.13,0.086,0.167c-0.12,0.18-0.213,0.274-0.277,0.284l-0.055,0.169c-0.036,0.112-0.138,0.329-0.303,0.649
			c0.076,0.149,0.092,0.295,0.047,0.435c-0.019,0.058-0.065,0.104-0.14,0.143c-0.09,0.282-0.187,0.484-0.289,0.607
			c0.02,0.036,0.013,0.104-0.018,0.204c-0.032,0.099-0.044,0.181-0.033,0.246l-0.225,0.114c-0.063,0.197-0.118,0.319-0.164,0.367
			l0.085,0.026c0.055,0.019,0.079,0.042,0.07,0.07c0.02,0.131-0.039,0.268-0.178,0.409c-0.018,0.244-0.048,0.436-0.093,0.577
			l-0.055,0.169c0.021,0.225-0.043,0.375-0.192,0.452c0.012,0.252-0.022,0.506-0.104,0.759l-0.04,0.127
			c0.037,0.074,0.036,0.176-0.003,0.303c-0.042,0.127-0.053,0.208-0.033,0.246c-0.038,0.019-0.085,0.066-0.14,0.143
			c-0.057,0.074-0.103,0.122-0.139,0.142c-0.037,0.112-0.074,0.178-0.111,0.197c-0.065,0.01-0.146,0.046-0.244,0.107
			c-0.099,0.063-0.166,0.103-0.203,0.122c-0.036,0.112-0.113,0.212-0.235,0.298c-0.121,0.085-0.195,0.171-0.223,0.255l-0.056,0.029
			c-0.028-0.01-0.058-0.019-0.084-0.028c0.009,0.065-0.031,0.146-0.124,0.24l-0.155,0.044c-0.111,0.058-0.195,0.077-0.252,0.06
			c-0.009,0.027-0.051,0.061-0.125,0.099c-0.075,0.038-0.136,0.081-0.182,0.129c-0.057-0.019-0.134-0.02-0.231-0.005
			c-0.099,0.016-0.162,0.018-0.19,0.009s-0.065-0.037-0.112-0.083c-0.196,0.03-0.38,0.018-0.548-0.036
			c-0.17-0.055-0.412-0.196-0.729-0.422c-0.317-0.227-0.573-0.37-0.771-0.434c-0.058-0.019-0.086-0.052-0.085-0.099
			c-0.001-0.046-0.016-0.074-0.044-0.083l-0.168-0.055c-0.132,0.02-0.254,0.012-0.365-0.024c-0.339-0.109-0.647-0.364-0.922-0.764
			c0.037-0.112,0.026-0.178-0.03-0.196l-0.169-0.055c-0.021-0.037-0.061-0.128-0.122-0.272c-0.063-0.145-0.108-0.269-0.138-0.371
			c0.01-0.028,0.032-0.053,0.069-0.071l0.086,0.028c-0.116-0.225-0.175-0.477-0.177-0.758c0.009-0.027,0.038-0.05,0.09-0.063
			c0.052-0.015,0.082-0.036,0.091-0.064c0.01-0.028,0.011-0.083,0.006-0.161c-0.006-0.08,0.006-0.115,0.033-0.106
			c0.019-0.057-0.02-0.131-0.114-0.224c0.037-0.02,0.054-0.068,0.048-0.147c-0.006-0.08-0.004-0.134,0.006-0.161
			c0.055-0.076,0.088-0.129,0.097-0.156l0.081-0.254c0.01-0.028,0.012-0.082,0.006-0.162c-0.006-0.079,0.001-0.147,0.02-0.203
			l0.025-0.085l-0.027-0.056c0.009-0.028,0.019-0.057,0.026-0.084c0.009-0.029,0.029-0.116,0.061-0.262s0.042-0.251,0.032-0.315
			c0.037-0.02,0.088-0.081,0.152-0.185s0.116-0.165,0.153-0.185l-0.045-0.294c0.092-0.095,0.148-0.171,0.166-0.227l0.056-0.029
			c0.009-0.027,0.018-0.057,0.027-0.085l0.04-0.126c0.019-0.057,0.038-0.144,0.061-0.261s0.048-0.219,0.075-0.303
			c0.027-0.085,0.079-0.2,0.158-0.346c0.077-0.146,0.131-0.262,0.158-0.347l0.039-0.127c0.019-0.056,0.008-0.121-0.029-0.195
			c0.219-0.677,0.396-1.134,0.534-1.369c0.009-0.028,0.031-0.052,0.069-0.071l0.056-0.028c-0.011-0.065,0.006-0.162,0.046-0.288
			c0.041-0.128,0.07-0.219,0.089-0.275l-0.015-0.099c-0.02-0.036-0.024-0.069-0.016-0.098s0.046-0.094,0.111-0.197
			c0.063-0.104,0.105-0.184,0.124-0.24c-0.039-0.168-0.022-0.271,0.054-0.31c-0.021-0.038-0.016-0.099,0.012-0.184
			c0.018-0.057,0.047-0.124,0.088-0.204c0.042-0.08,0.066-0.134,0.075-0.163c0.019-0.056,0.039-0.143,0.062-0.26
			c0.021-0.117,0.038-0.189,0.047-0.219c0.037-0.112,0.111-0.197,0.223-0.255c-0.011-0.065-0.049-0.116-0.114-0.153
			c-0.066-0.037-0.109-0.074-0.128-0.111c-0.038,0.019-0.196-0.017-0.479-0.107c-0.084-0.027-0.146-0.031-0.183-0.013
			c-0.048-0.045-0.143-0.092-0.283-0.138c-0.056-0.018-0.18-0.042-0.373-0.073c-0.192-0.031-0.34-0.078-0.443-0.143
			c-0.029-0.009-0.078-0.049-0.148-0.118c-0.071-0.069-0.121-0.108-0.149-0.117c-0.028-0.01-0.078-0.025-0.147-0.048
			c-0.071-0.023-0.115-0.053-0.135-0.09l-0.028-0.057c-0.028-0.009-0.057-0.018-0.085-0.026l-0.128-0.182l-0.211-0.068l-0.583-0.514
			c-0.112-0.036-0.188-0.045-0.225-0.025c-0.066-0.084-0.231-0.223-0.495-0.417c-0.265-0.193-0.436-0.365-0.512-0.515l-0.212-0.067
			c-0.058-0.112-0.136-0.255-0.236-0.427c-0.101-0.173-0.195-0.335-0.285-0.489c-0.091-0.153-0.156-0.313-0.195-0.482
			c-0.256-0.363-0.386-0.639-0.388-0.825c-0.058-0.111-0.106-0.298-0.146-0.561c-0.04-0.262-0.065-0.425-0.074-0.49l0.054-0.17
			c-0.038-0.074-0.063-0.144-0.072-0.21l0.014-0.042l0.07-0.071c-0.1-0.467-0.066-0.954,0.098-1.462l0.135-0.423
			c0.018-0.056,0.031-0.122,0.04-0.197c0.008-0.074,0.018-0.127,0.026-0.154c0.027-0.086,0.06-0.137,0.097-0.156
			c0.01-0.027,0.032-0.122,0.068-0.281c0.034-0.159,0.076-0.263,0.123-0.311l0.208-0.213c0.009-0.027,0.011-0.059,0.006-0.092
			c-0.006-0.032-0.003-0.063,0.006-0.091s0.028-0.062,0.056-0.1s0.046-0.07,0.056-0.099c0.018-0.056,0.028-0.138,0.032-0.246
			c0.003-0.107,0.02-0.204,0.046-0.288l0.193-0.452l0.04-0.127c0.072-0.225,0.127-0.348,0.165-0.366l0.026-0.085
			c0.019-0.057,0.064-0.15,0.139-0.283c0.073-0.132,0.124-0.239,0.15-0.324l0.042-0.127c0.028,0.009,0.065,0.014,0.112,0.014
			c0.046-0.001,0.088-0.011,0.125-0.03c0.01-0.027,0.002-0.054-0.021-0.077c-0.023-0.022-0.013-0.058,0.035-0.105
			c0.009-0.027,0.043-0.04,0.104-0.036s0.097-0.008,0.104-0.036c-0.021-0.131-0.017-0.239,0.012-0.323l0.069-0.071
			c0.045-0.047,0.077-0.099,0.096-0.155l0.027-0.085l0.099-0.015c0.046-0.048,0.091-0.135,0.131-0.262
			c0.041-0.127,0.099-0.209,0.173-0.247c0.091-0.282,0.164-0.414,0.221-0.396c0.036-0.113,0.087-0.197,0.152-0.255
			c0.065-0.057,0.152-0.113,0.266-0.172c0.111-0.057,0.19-0.108,0.236-0.156c0.15,0.018,0.493,0.065,1.027,0.144
			c0.028,0.009,0.061,0.052,0.1,0.126c0.094-0.001,0.248,0.002,0.464,0.009l0.085,0.027l0.675,0.078
			c0.197,0.063,0.42,0.196,0.665,0.399c0.028,0.01,0.074,0.009,0.141-0.001c0.103,0.064,0.227,0.167,0.368,0.306
			s0.25,0.236,0.326,0.292c-0.009,0.121,0.037,0.269,0.139,0.44c0.099,0.173,0.141,0.334,0.123,0.483l0.072,0.211
			c-0.009,0.028-0.039,0.073-0.089,0.134c-0.053,0.062-0.072,0.125-0.062,0.19c-0.01,0.028,0.002,0.063,0.036,0.104
			c0.033,0.043,0.045,0.078,0.036,0.105l-0.014,0.042c-0.037,0.02-0.061,0.044-0.069,0.071c-0.01,0.028,0,0.047,0.028,0.056
			l0.016,0.099l-0.057,0.028l-0.068,0.211c0.18,0.121,0.225,0.322,0.133,0.604c-0.027,0.085-0.064,0.15-0.109,0.198
			c-0.01,0.028-0.001,0.046,0.028,0.056l0.071,0.069c0,0.094-0.029,0.209-0.089,0.345c-0.06,0.137-0.084,0.238-0.074,0.303
			c-0.101,0.124-0.138,0.235-0.108,0.339c-0.057-0.019-0.104-0.018-0.141,0.001l-0.091,0.718c-0.073,0.133-0.147,0.311-0.22,0.536
			c-0.046,0.142-0.139,0.531-0.282,1.169c-0.112,0.058-0.173,0.194-0.179,0.41c-0.01,0.028-0.033,0.052-0.069,0.07l-0.057,0.028
			c-0.038,0.02-0.047,0.048-0.027,0.085l0.071,0.069c0.019,0.038,0.008,0.072-0.034,0.106c-0.042,0.032-0.067,0.063-0.076,0.092
			c0.018,0.037,0.001,0.141-0.052,0.31l0.027,0.056c0.01,0.066,0.011,0.113,0.002,0.141l-0.069,0.071
			c-0.127,0.396-0.153,0.667-0.075,0.815c-0.019,0.057-0.033,0.123-0.041,0.197c-0.009,0.075-0.018,0.127-0.026,0.154l-0.027,0.085
			c0.058,0.112,0.082,0.275,0.075,0.491s0.004,0.374,0.032,0.477l0.299,0.377c0.048,0.047,0.108,0.051,0.183,0.012
			c0.074-0.037,0.14-0.048,0.197-0.03l0.222-0.255c0.131-0.02,0.271-0.138,0.419-0.355c0.146-0.217,0.244-0.348,0.29-0.396
			c0.028,0.01,0.136-0.033,0.321-0.13c-0.02-0.036-0.019-0.083,0-0.14c0.017-0.057,0.016-0.104-0.002-0.141
			c0.064-0.01,0.14-0.072,0.223-0.185c0.083-0.114,0.176-0.185,0.278-0.214c0.01-0.028,0.049-0.078,0.118-0.149
			c0.07-0.07,0.08-0.129,0.033-0.176c0.074-0.038,0.163-0.142,0.264-0.312c0.102-0.17,0.203-0.269,0.307-0.298
			c-0.048-0.047-0.063-0.098-0.044-0.154s0.06-0.09,0.126-0.1c-0.02-0.037-0.02-0.084-0.001-0.141s0.066-0.135,0.144-0.233
			c0.079-0.1,0.123-0.162,0.132-0.191l0.014-0.042c-0.019-0.037-0.023-0.07-0.015-0.099c0.081-0.254,0.252-0.541,0.511-0.862
			c-0.021-0.13-0.021-0.224-0.003-0.281c0.019-0.056,0.076-0.162,0.173-0.317c0.098-0.155,0.159-0.275,0.187-0.36
			c0.035-0.112,0.082-0.283,0.142-0.514c0.059-0.23,0.105-0.401,0.142-0.515l0.028-0.085c0.036-0.019,0.06-0.042,0.069-0.07
			l0.041-0.128c0.027-0.084,0.056-0.223,0.087-0.415c0.03-0.191,0.06-0.331,0.087-0.415l0.04-0.127
			c0.01-0.027,0.036-0.065,0.084-0.113c0.045-0.047,0.074-0.085,0.083-0.113l0.054-0.169c0.01-0.027,0.032-0.052,0.071-0.071
			c0.073-0.038,0.116-0.071,0.125-0.1l0.666-0.766c0.384-0.031,0.716-0.003,0.999,0.089
			C122.812,18.005,122.84,17.967,122.867,17.882z"/>
		<path fill="#231F20" d="M130.723,29.956c0.025,0.014,0.052,0.044,0.079,0.09c0.026,0.047,0.052,0.076,0.079,0.09
			c0.317,0.159,0.562,0.299,0.734,0.419c0.039,0.053,0.118,0.109,0.237,0.169c0.119,0.061,0.198,0.117,0.238,0.17l0.139,0.219
			c0.105,0.187,0.204,0.318,0.298,0.398l0.158,0.08c0.132,0.066,0.363,0.299,0.693,0.696c-0.014,0.226,0.091,0.561,0.315,1.005
			c0.224,0.444,0.336,0.799,0.335,1.063c0.027,0.014,0.04,0.07,0.04,0.169c-0.001,0.1,0.019,0.176,0.059,0.229
			c-0.04,0.014-0.072,0.047-0.1,0.1l-0.02,0.139c-0.015,0.093-0.048,0.159-0.101,0.198v0.1c0,0.066-0.008,0.113-0.02,0.14
			c0.012,0.039,0.013,0.073-0.001,0.099c-0.014,0.027-0.033,0.033-0.061,0.021c0.014,0.371-0.087,0.768-0.3,1.19
			c-0.014,0.027-0.066,0.083-0.159,0.169c-0.094,0.086-0.153,0.155-0.181,0.209l-0.019,0.038l-0.001,0.1
			c0,0.199,0.092,0.345,0.278,0.438l0.117,0.06c0.187-0.039,0.454-0.028,0.807,0.032c0.35,0.061,0.611,0.084,0.783,0.071l0.277,0.14
			l0.14,0.02c0.106-0.013,0.288-0.028,0.547-0.048c0.259-0.019,0.453-0.028,0.586-0.028c0.411-0.025,0.795-0.064,1.153-0.116
			l0.556-0.019c0.371-0.079,0.715-0.104,1.033-0.077c0.065,0.001,0.159,0.014,0.279,0.04c0.118,0.027,0.23,0.034,0.337,0.021
			c0.066,0,0.153-0.006,0.258-0.02c0.106-0.013,0.219-0.006,0.339,0.021c0.397,0.001,0.647,0.028,0.754,0.081
			c0.159,0.08,0.258,0.18,0.297,0.299c0.053,0.159,0.046,0.305-0.021,0.438c-0.014,0.026-0.033,0.066-0.06,0.119l-0.06,0.02
			c-0.186,0.172-0.425,0.283-0.717,0.336c-0.04,0.013-0.089,0.063-0.148,0.148c-0.06,0.087-0.11,0.136-0.149,0.149
			c-0.398,0.131-0.63,0.229-0.696,0.296h-0.1c-0.079-0.04-0.126-0.08-0.139-0.12c-0.066,0.066-0.149,0.116-0.249,0.148
			c-0.101,0.033-0.175,0.069-0.228,0.109c-0.106-0.054-0.22-0.061-0.338-0.021c-0.12,0.04-0.206,0.046-0.259,0.02
			c-0.107,0.079-0.282,0.132-0.527,0.157c-0.245,0.026-0.414,0.065-0.507,0.118c-0.041-0.053-0.093-0.079-0.158-0.079
			c-0.067-0.001-0.113-0.008-0.14-0.021c-0.066,0.066-0.181,0.125-0.338,0.178c-0.12-0.026-0.289-0.021-0.506,0.02
			c-0.22,0.039-0.402,0.038-0.548-0.002c-0.08,0.026-0.14,0.079-0.179,0.158c-0.093-0.013-0.238-0.021-0.438-0.021
			c-0.198-0.001-0.357-0.014-0.477-0.041l-0.496-0.001c-0.04,0.013-0.167-0.001-0.378-0.041c-0.212-0.04-0.364-0.034-0.457,0.02
			c-0.079-0.04-0.191-0.063-0.338-0.071c-0.146-0.006-0.245-0.023-0.297-0.05c-0.239,0.079-0.465,0.098-0.677,0.058
			c-0.08-0.04-0.198-0.1-0.357-0.18s-0.283-0.126-0.377-0.14l-0.396-0.199c-0.094-0.014-0.173,0.012-0.238,0.078
			c-0.055-0.027-0.087-0.061-0.099-0.1l0.019-0.04c-0.066,0-0.357,0.119-0.875,0.355c-0.225-0.014-0.537,0.046-0.935,0.177
			c-0.398,0.132-0.716,0.204-0.953,0.217c-0.054,0.039-0.144,0.069-0.27,0.089s-0.215,0.049-0.268,0.089
			c-0.346-0.041-0.875-0.075-1.59-0.104c-0.014-0.04-0.047-0.073-0.1-0.1c-0.052-0.027-0.105-0.054-0.157-0.08
			c-0.08,0.026-0.193,0.002-0.338-0.07c-0.146-0.073-0.253-0.109-0.318-0.11c-0.015-0.039-0.034-0.066-0.06-0.079l-0.059-0.08
			c-0.729-0.332-1.244-0.824-1.547-1.474c-0.132-0.133-0.218-0.292-0.257-0.478c-0.026-0.014-0.06-0.03-0.1-0.05
			c-0.04-0.021-0.053-0.043-0.04-0.07c0.014-0.025,0-0.065-0.039-0.119c-0.04-0.053-0.054-0.093-0.04-0.119l-0.02-0.06
			c-0.026-0.013-0.052-0.026-0.079-0.04c-0.026-0.013-0.046-0.04-0.06-0.079l-0.02-0.061c0.014-0.025,0.018-0.049,0.011-0.069
			c-0.008-0.02-0.024-0.036-0.05-0.05c0-0.065-0.023-0.168-0.068-0.308c-0.047-0.14-0.073-0.269-0.079-0.388
			c-0.007-0.12,0.011-0.219,0.05-0.299c-0.04-0.052-0.063-0.122-0.069-0.208c-0.006-0.086-0.016-0.148-0.027-0.188
			c0.013-0.093,0.013-0.242,0.001-0.447c-0.015-0.206-0.026-0.361-0.039-0.467c-0.199-0.267-0.219-0.558-0.059-0.875
			c-0.079-0.305-0.031-0.629,0.142-0.974l0.041-0.079c0.014-0.025,0.014-0.06-0.001-0.1l0.041-0.079l0.179-0.258l0.08-0.159
			c0.026-0.053,0.061-0.085,0.1-0.099l0.079-0.06l0.28-0.556c0.013-0.025,0.056-0.063,0.129-0.108s0.116-0.083,0.13-0.109
			c0.345-0.356,0.663-0.627,0.955-0.813l0.298-0.099l0.081-0.06c0.039-0.013,0.065-0.032,0.079-0.06
			c0.132,0,0.212,0.007,0.238,0.021c0.119-0.105,0.309-0.2,0.567-0.286c0.257-0.086,0.44-0.168,0.547-0.247
			c0.093,0.014,0.274-0.019,0.547-0.098c0.271-0.079,0.479-0.099,0.625-0.059c0.08-0.092,0.216-0.165,0.408-0.218
			c0.192-0.052,0.309-0.085,0.349-0.099c0.039-0.013,0.104-0.029,0.198-0.049c0.093-0.02,0.159-0.036,0.199-0.049
			c0.065,0,0.139,0.02,0.218,0.06c0.08,0.04,0.152,0.061,0.219,0.061s0.182,0,0.348,0c0.165,0.001,0.294,0.008,0.388,0.021
			l0.356,0.18c0.132,0.066,0.266,0.117,0.397,0.15C130.536,29.881,130.643,29.916,130.723,29.956z M125.702,35.09l-0.119-0.06
			c-0.105,0.079-0.216,0.215-0.328,0.407c-0.113,0.191-0.203,0.319-0.269,0.387c0.012,0.039,0.013,0.105,0,0.198
			c-0.015,0.093-0.002,0.166,0.037,0.219l-0.199,0.396c0.08,0.04,0.146,0.173,0.198,0.398l0.833,0.419
			c0.133-0.065,0.357-0.085,0.676-0.058c0.317,0.027,0.53,0.034,0.636,0.021c0.052-0.039,0.093-0.118,0.12-0.237
			c-0.014-0.039-0.172-0.187-0.477-0.438c-0.038-0.119-0.072-0.186-0.098-0.199c-0.014-0.039-0.073-0.086-0.179-0.139
			c-0.066-0.199-0.126-0.313-0.178-0.339l-0.04-0.02l-0.039-0.12c-0.08-0.04-0.127-0.079-0.14-0.119l-0.019-0.159
			c-0.015-0.039-0.061-0.079-0.14-0.119C125.821,35.25,125.729,35.104,125.702,35.09z M130,32.776
			c-0.054-0.027-0.146-0.04-0.277-0.04c-0.134-0.001-0.227-0.015-0.279-0.041c-0.066,0-0.139,0.013-0.218,0.039
			c-0.08,0.026-0.134,0.032-0.159,0.02c-0.106-0.054-0.352,0.006-0.735,0.177l-0.06,0.119l-0.26,0.118
			c-0.186,0.106-0.339,0.146-0.458,0.118c0,0.066,0.011,0.163,0.029,0.289c0.02,0.126,0.023,0.202,0.01,0.228l0.02,0.259
			c-0.001,0.066,0.036,0.159,0.108,0.278c0.073,0.12,0.103,0.226,0.09,0.318c0.185,0.16,0.303,0.319,0.356,0.478
			c0.29,0.279,0.475,0.505,0.554,0.677c0.053,0.027,0.102,0.077,0.149,0.149c0.045,0.073,0.082,0.116,0.108,0.13
			c0.026,0.013,0.065,0.051,0.119,0.109c0.052,0.06,0.102,0.109,0.148,0.149c0.046,0.04,0.096,0.072,0.148,0.1
			c0.08,0.04,0.185,0.061,0.318,0.061c0.464-0.396,0.71-0.621,0.737-0.674l0.059-0.119c0.133-0.065,0.226-0.151,0.279-0.258
			c0.014-0.026,0.04-0.096,0.08-0.208s0.074-0.194,0.101-0.248c0.012-0.026,0.046-0.076,0.099-0.148
			c0.054-0.073,0.093-0.136,0.12-0.189l0.04-0.079c0-0.066-0.006-0.152-0.019-0.259c-0.014-0.105-0.014-0.171,0-0.198
			c0.04-0.145,0.047-0.258,0.021-0.338c-0.027-0.146-0.188-0.335-0.485-0.567C130.446,32.992,130.198,32.843,130,32.776z"/>
		<path fill="#231F20" d="M147.094,41.771c0.044,0.04,0.089,0.102,0.136,0.183c0.044,0.081,0.078,0.132,0.101,0.152
			c0.022,0.02,0.065,0.038,0.13,0.056l0.036,0.093l0.036,0.093c0.29,0.384,0.44,0.66,0.449,0.827
			c-0.036,0.127-0.052,0.233-0.047,0.316c0.001,0.042,0.014,0.094,0.039,0.155c0.026,0.104,0.03,0.188,0.013,0.252
			c0.002,0.041-0.022,0.09-0.072,0.145c-0.049,0.055-0.063,0.113-0.038,0.175c-0.104,0.025-0.206,0.095-0.305,0.204
			c-0.06,0.065-0.143,0.19-0.249,0.374s-0.201,0.298-0.281,0.344l-0.029,0.033c-0.043,0.002-0.074,0.015-0.093,0.036
			c-0.021,0.022-0.076,0.071-0.166,0.149c-0.091,0.078-0.157,0.118-0.198,0.12l-0.126,0.006l-0.119,0.133
			c-0.14,0.153-0.206,0.271-0.202,0.355c0.021,0.02-0.009,0.032-0.093,0.036c-0.02,0.021-0.024,0.049-0.012,0.079
			c0.012,0.031-0.003,0.047-0.045,0.049c-0.481,0.443-0.775,0.678-0.877,0.705c-0.019,0.063-0.058,0.128-0.116,0.194
			c-0.12,0.132-0.262,0.243-0.424,0.336c-0.034,0.169-0.11,0.319-0.229,0.451s-0.242,0.2-0.368,0.207
			c-0.018,0.063-0.115,0.194-0.294,0.393c-0.06,0.064-0.09,0.119-0.086,0.161l-0.21,0.23c-0.218,0.242-0.323,0.446-0.314,0.613
			l-0.061,0.065c-0.021,0.022-0.033,0.06-0.042,0.112c-0.007,0.053-0.016,0.105-0.022,0.158c-0.009,0.053-0.021,0.111-0.039,0.176
			c0.046,0.081,0.135,0.182,0.266,0.301c0.177,0.159,0.473,0.328,0.891,0.506c0.417,0.179,0.714,0.327,0.888,0.444
			c0.126-0.007,0.321,0.042,0.589,0.144c0.267,0.102,0.464,0.15,0.59,0.144c0.15,0.098,0.401,0.174,0.749,0.23
			c0.349,0.056,0.587,0.102,0.715,0.138l0.192,0.053c0.105,0.016,0.262,0.019,0.472,0.009c0.065,0.06,0.178,0.111,0.338,0.156
			c0.159,0.045,0.293,0.095,0.401,0.152c0.04-0.002,0.094,0.006,0.158,0.023c0.063,0.019,0.138,0.035,0.222,0.053
			c0.085,0.017,0.159,0.034,0.224,0.052l0.287,0.08c0.213,0.073,0.504,0.237,0.874,0.491c0.127,0.036,0.201,0.063,0.224,0.083
			c0.063,0.019,0.15,0.076,0.26,0.177c0.352,0.317,0.368,0.652,0.051,1.003c-0.239,0.264-0.52,0.31-0.843,0.137
			c-0.022-0.021-0.042-0.009-0.061,0.034c-0.02,0.043-0.04,0.076-0.059,0.098c-0.544,0.027-0.858,0.021-0.944-0.016
			c-0.043,0.002-0.137,0.018-0.281,0.044c-0.146,0.029-0.251,0.014-0.317-0.046c-0.102,0.067-0.209,0.1-0.325,0.095
			s-0.254-0.041-0.414-0.105c-0.161-0.065-0.272-0.106-0.336-0.125c-0.041,0.044-0.228,0.095-0.559,0.153
			c-0.11-0.1-0.31-0.121-0.601-0.064c-0.131-0.078-0.278-0.091-0.443-0.041c-0.021-0.021-0.17-0.055-0.445-0.104
			c-0.066-0.06-0.14-0.088-0.224-0.083c-0.085,0.004-0.148-0.014-0.191-0.054c-0.085,0.004-0.199-0.001-0.348-0.015
			c-0.147-0.014-0.263-0.019-0.346-0.014l-0.133-0.12c-0.084,0.004-0.314-0.005-0.692-0.028c-0.175-0.117-0.397-0.18-0.671-0.187
			c-0.272-0.008-0.474-0.05-0.604-0.128l-0.191-0.053c-0.303-0.194-0.52-0.31-0.646-0.346l-0.131-0.119
			c-0.045-0.04-0.097-0.049-0.158-0.024c-0.043,0.002-0.075-0.007-0.097-0.026c-0.087-0.079-0.187-0.169-0.296-0.268
			c-0.11-0.101-0.208-0.169-0.293-0.206c0.021-0.022,0.008-0.063-0.038-0.124c-0.045-0.062-0.057-0.103-0.038-0.124
			c-0.18-0.243-0.242-0.418-0.184-0.525c-0.064-0.06-0.107-0.078-0.128-0.057c-0.116-0.226-0.164-0.349-0.145-0.37
			c-0.112-0.141-0.186-0.337-0.217-0.587c-0.035-0.25-0.085-0.426-0.153-0.527c0.021-0.021,0.028-0.054,0.027-0.096
			c-0.002-0.041,0.018-0.063,0.061-0.065c-0.069-0.102-0.102-0.242-0.1-0.42c0-0.179-0.01-0.299-0.035-0.36
			c-0.004-0.084,0.024-0.158,0.084-0.224c-0.069-0.102-0.086-0.237-0.052-0.407c0.033-0.169,0.049-0.274,0.047-0.316l-0.319-0.11
			c-0.14,0.154-0.316,0.173-0.532,0.058c-0.042,0.003-0.063,0.024-0.06,0.066c0.002,0.041-0.008,0.074-0.026,0.096
			c-0.146,0.028-0.313,0.016-0.506-0.038c-0.04,0.044-0.101,0.068-0.184,0.072c-0.085,0.005-0.146,0.028-0.187,0.071l-0.065-0.059
			c-0.066-0.06-0.152-0.108-0.259-0.145c-0.107-0.037-0.172-0.066-0.193-0.086c-0.777-0.023-1.366-0.277-1.769-0.762
			c-0.041,0.003-0.104-0.025-0.191-0.084c-0.088-0.059-0.143-0.098-0.164-0.118c-0.065-0.06-0.129-0.166-0.188-0.32
			c-0.061-0.154-0.123-0.261-0.188-0.321l-0.359-0.265c-0.088-0.08-0.145-0.151-0.169-0.212c-0.002-0.042-0.016-0.105-0.04-0.188
			s-0.039-0.145-0.04-0.187c-0.068-0.101-0.155-0.38-0.263-0.836c-0.108-0.498-0.138-1.104-0.089-1.82
			c0.017-0.063,0.023-0.137,0.021-0.221c-0.006-0.084-0.003-0.162,0.004-0.236s0.04-0.144,0.1-0.21l-0.042-0.218
			c0.018-0.063,0.028-0.163,0.032-0.3c0.003-0.137,0.023-0.258,0.061-0.365c0.036-0.106,0.094-0.204,0.174-0.292l0.089-0.099
			c-0.011-0.209,0.074-0.412,0.254-0.61c0.059-0.065,0.117-0.163,0.174-0.291c0.056-0.129,0.104-0.215,0.145-0.259
			c0.06-0.066,0.152-0.103,0.277-0.108c-0.045-0.04-0.026-0.104,0.054-0.191c0.123-0.048,0.196-0.062,0.219-0.042
			c-0.007-0.126,0.021-0.222,0.079-0.287c0.041-0.044,0.214-0.126,0.522-0.246c0.061-0.024,0.091-0.058,0.089-0.099
			c-0.002-0.042,0.007-0.074,0.027-0.096c0.102-0.068,0.255-0.16,0.458-0.274c0.204-0.115,0.348-0.196,0.428-0.241
			c0.082-0.047,0.196-0.095,0.34-0.144s0.237-0.074,0.279-0.076l0.09-0.1c0.159-0.175,0.322-0.247,0.492-0.213
			c0.263-0.201,0.564-0.269,0.902-0.202l0.15-0.164c0.064,0.06,0.261,0.019,0.591-0.124c0.248-0.055,0.392-0.104,0.432-0.147
			l0.162,0.087c0.122-0.09,0.302-0.146,0.543-0.169c0.238-0.022,0.41-0.067,0.512-0.135l0.067,0.06
			c0.042,0.039,0.123,0.082,0.241,0.129c0.117,0.047,0.198,0.09,0.241,0.13l0.1,0.089c0.022,0.021,0.065,0.061,0.132,0.12
			s0.132,0.119,0.197,0.179c0.066,0.06,0.12,0.109,0.165,0.149l0.036,0.092c0.046,0.082,0.091,0.143,0.135,0.183
			c0.002,0.042,0.005,0.104,0.01,0.188l0.068,0.122l-0.027,0.096c0.066,0.06,0.089,0.101,0.069,0.122
			c0.021,0.02,0.014,0.052-0.026,0.096s-0.05,0.075-0.027,0.096c-0.018,0.064-0.02,0.132-0.006,0.204
			c0.015,0.073,0.011,0.121-0.008,0.144c-0.278,0.307-0.403,0.554-0.372,0.741c-0.042,0.002-0.093,0.057-0.149,0.165
			c-0.058,0.107-0.096,0.173-0.115,0.194s-0.052,0.033-0.094,0.036c0.003,0.041,0.005,0.104,0.011,0.188l-0.027,0.095
			c-0.255,0.37-0.368,0.605-0.343,0.709l-0.06,0.066c-0.042,0.002-0.072,0.015-0.092,0.036c-0.179,0.197-0.291,0.297-0.332,0.3
			c-0.019,0.021-0.064,0.082-0.133,0.179c-0.067,0.098-0.102,0.168-0.099,0.21c-0.35,0.163-0.583,0.313-0.702,0.443l-0.026,0.096
			c-0.04,0.044-0.069,0.077-0.09,0.099c-0.042,0.002-0.237,0.085-0.585,0.25c-0.085,0.004-0.148-0.014-0.191-0.054
			c-0.04,0.044-0.079,0.108-0.116,0.194c0.027,0.146-0.018,0.284-0.137,0.415c-0.12,0.133-0.262,0.224-0.427,0.273
			c-0.053,0.191-0.27,0.496-0.647,0.913c0.064,0.018,0.158,0.014,0.283-0.015c0.123-0.026,0.218-0.032,0.282-0.014
			c0.119-0.132,0.252-0.191,0.4-0.177c-0.003-0.042,0.018-0.064,0.06-0.066l0.063-0.003c0.063,0.019,0.151-0.002,0.264-0.06
			c0.111-0.059,0.221-0.079,0.327-0.064c0.059-0.066,0.156-0.106,0.292-0.124c0.135-0.018,0.223-0.048,0.264-0.092
			c0.063,0.019,0.151,0.008,0.267-0.029c0.112-0.037,0.211-0.058,0.295-0.062l-0.033-0.029l-0.004-0.063
			c0.021-0.021,0.063-0.003,0.13,0.057c0.409-0.188,0.704-0.359,0.886-0.516c0.167-0.008,0.279-0.066,0.338-0.174
			c0.043,0.039,0.117,0.046,0.221,0.021c0.062-0.025,0.08-0.066,0.058-0.129l0.056-0.129l0.06-0.065
			c0.14-0.153,0.252-0.212,0.338-0.174c-0.002-0.042,0.026-0.097,0.086-0.162s0.166-0.149,0.317-0.251
			c0.152-0.103,0.248-0.175,0.288-0.219l0.06-0.066c0.041-0.002,0.1-0.01,0.172-0.024c0.072-0.014,0.16-0.034,0.265-0.061
			c0.104-0.025,0.176-0.04,0.218-0.042c0.019-0.063,0.057-0.128,0.116-0.194c0.119-0.132,0.264-0.181,0.434-0.147
			c0.017-0.063,0.065-0.139,0.146-0.228c0.158-0.176,0.383-0.291,0.675-0.348c0.063,0.019,0.097,0.068,0.101,0.152l0.039,0.155
			c0.022,0.02,0.047,0.003,0.077-0.051c0.028-0.054,0.054-0.071,0.076-0.052c0.063,0.019,0.14,0.088,0.23,0.209
			c0.295,0.027,0.452,0.051,0.475,0.071c0.022,0.02,0.06,0.033,0.113,0.042C147.034,41.738,147.072,41.752,147.094,41.771z"/>
	</g>
</g>
</svg>
