<?xml version="1.0" encoding="utf-8"?>
<!-- Generator: Adobe Illustrator 16.0.0, SVG Export Plug-In . SVG Version: 6.00 Build 0)  -->
<!DOCTYPE svg PUBLIC "-//W3C//DTD SVG 1.1//EN" "http://www.w3.org/Graphics/SVG/1.1/DTD/svg11.dtd">
<svg version="1.1" id="Layer_1" xmlns="http://www.w3.org/2000/svg" xmlns:xlink="http://www.w3.org/1999/xlink" x="0px" y="0px"
	 width="58.662px" height="77.754px" viewBox="0 0 58.662 77.754" enable-background="new 0 0 58.662 77.754" xml:space="preserve">
<g>
	<path fill="#998282" d="M56.923,61.782l-2.592-5.113c4.346-4.152,5.675-10.824,2.82-16.457L41.22,8.765
		c-1.205-2.379-3.638-3.836-6.242-3.836c-0.371,0-0.748,0.029-1.123,0.09c-0.289,0.047-0.582,0.071-0.869,0.071
		c-1.411,0-2.664-0.546-3.435-1.496C28.186,1.908,26.168,1,24.109,1c-1.06,0-2.13,0.24-3.128,0.739
		c-0.01,0.005-12.3,6.232-12.3,6.232c-3.337,1.69-5.814,4.579-6.979,8.133c-1.164,3.555-0.873,7.35,0.817,10.683L19.09,59.499
		c2.398,4.731,7.186,7.672,12.494,7.672c0.817,0,1.636-0.072,2.44-0.217l2.461,4.857c1.857,3.666,5.57,5.943,9.687,5.943h0.001
		c0.844,0,1.68-0.098,2.497-0.291c1.211-0.158,2.373-0.518,3.468-1.07C57.485,73.684,59.632,67.129,56.923,61.782z"/>
	<g>
		<path fill="#FFFFFF" d="M45.173,76.754c-4.115,0-7.828-2.277-9.686-5.943l-2.461-4.857c-0.807,0.145-1.625,0.217-2.441,0.217
			c-5.309,0-10.096-2.939-12.494-7.672L1.52,25.786c-1.69-3.333-1.981-7.128-0.817-10.683c1.164-3.554,3.642-6.442,6.979-8.133
			c0,0,12.29-6.227,12.301-6.23C20.979,0.24,22.05,0,23.109,0c2.059,0,4.076,0.908,5.441,2.594c0.771,0.95,2.021,1.496,3.434,1.496
			c0.289,0,0.582-0.024,0.869-0.071c0.377-0.061,0.752-0.09,1.125-0.09c2.604,0,5.035,1.457,6.24,3.836l15.934,31.447
			c2.854,5.632,1.524,12.304-2.82,16.457l2.592,5.113c2.709,5.348,0.563,11.901-4.783,14.61c-1.096,0.554-2.258,0.912-3.469,1.071
			C46.854,76.657,46.019,76.754,45.173,76.754C45.174,76.754,45.174,76.754,45.173,76.754z"/>
		<path fill="#FFFFFF" d="M44.192,53.12l2.635-1.336c3.447-1.746,4.828-5.959,3.081-9.408L33.976,10.929
			c-4.148,0.673-8.32-0.79-10.863-3.929l-0.077,0.038c0,0.001-0.001,0.001-0.001,0.001l-12.19,6.177
			c-3.449,1.747-4.828,5.96-3.08,9.407l16.571,32.709c1.747,3.449,5.96,4.828,9.409,3.08l2.634-1.334l5.354,10.567
			c0.879,1.733,2.882,2.505,4.67,1.908c0.533-0.022,1.066-0.15,1.572-0.406c1.906-0.966,2.672-3.295,1.705-5.203L44.192,53.12z"/>
	</g>
	<g>
		<g>
			<path fill="#E28438" d="M49.679,63.945c0.967,1.908,0.202,4.237-1.703,5.203l0,0c-1.906,0.965-4.235,0.204-5.203-1.704
				l-8.967-17.695c-0.967-1.908-0.201-4.236,1.703-5.203l0,0c1.908-0.967,4.236-0.203,5.203,1.703L49.679,63.945z"/>
			<path fill="#FF9540" d="M48.638,64.146c0.967,1.907,0.203,4.235-1.703,5.203l0,0c-1.906,0.966-4.235,0.204-5.203-1.703
				L32.767,49.95c-0.967-1.906-0.203-4.236,1.703-5.203l0,0c1.906-0.965,4.235-0.203,5.201,1.703L48.638,64.146z"/>
		</g>
		<path fill="#F2EAB8" d="M23.112,7l-12.269,6.216c-3.449,1.747-4.828,5.96-3.08,9.407l16.571,32.709
			c1.747,3.449,5.96,4.828,9.409,3.08l13.083-6.629c3.448-1.746,4.827-5.959,3.081-9.408L33.976,10.929
			C29.826,11.602,25.655,10.139,23.112,7z"/>
		<path fill="#4A0B14" d="M23.112,7l-12.269,6.216c-3.449,1.747-4.828,5.96-3.08,9.407l16.028,31.635
			c1.844,0.363,3.929,0.105,5.872-0.879l15.518-7.861c1.944-0.984,3.385-2.514,4.182-4.217L33.976,10.929
			C29.826,11.602,25.655,10.139,23.112,7z"/>
		<path fill="#6C111C" d="M33.976,10.929c-4.148,0.673-8.32-0.79-10.863-3.929l-0.077,0.038c-1.378,1.844-1.688,4.379-0.577,6.57
			c1.559,3.078,5.319,4.312,8.399,2.751c1.955-0.992,3.162-2.873,3.386-4.899L33.976,10.929z"/>
		<path fill="#F2EAB8" d="M30.405,15.467c-2.582,1.309-5.747,0.271-7.056-2.311c-0.73-1.441-0.751-3.094-0.102-4.527
			c2.541,2.475,6.16,3.73,9.88,3.412C32.765,13.519,31.78,14.77,30.405,15.467L30.405,15.467z"/>
		<path fill="#6C111C" d="M28.333,51.79L13.051,21.626c-1.748-3.448-0.37-7.66,3.079-9.407l-2.527,1.28
			c-3.448,1.747-4.827,5.96-3.08,9.408l15.025,29.656C26.478,52.458,27.415,52.2,28.333,51.79z"/>
	</g>
</g>
</svg>
