<?xml version="1.0" encoding="utf-8"?>
<!-- Generator: Adobe Illustrator 16.0.0, SVG Export Plug-In . SVG Version: 6.00 Build 0)  -->
<!DOCTYPE svg PUBLIC "-//W3C//DTD SVG 1.1//EN" "http://www.w3.org/Graphics/SVG/1.1/DTD/svg11.dtd">
<svg version="1.1" id="Layer_1" xmlns="http://www.w3.org/2000/svg" xmlns:xlink="http://www.w3.org/1999/xlink" x="0px" y="0px"
	 width="62.434px" height="36.637px" viewBox="0 0 62.434 36.637" enable-background="new 0 0 62.434 36.637" xml:space="preserve">
<path fill="#999999" d="M32.219,37.637c13.401,0,25.072-7.389,31.214-18.316C57.292,8.391,45.621,1,32.219,1
	C18.817,1,7.144,8.391,1,19.32C7.144,30.248,18.816,37.637,32.219,37.637z"/>
<g>
	<path fill="#FFFFFF" d="M31.219,0C17.816,0,6.144,7.391,0,18.32c6.145,10.929,17.816,18.316,31.22,18.316
		c13.402,0,25.072-7.389,31.214-18.316C56.292,7.391,44.621,0,31.219,0z"/>
	<path fill="#6BC6B5" d="M46.719,18.039c0,8.557-6.941,15.5-15.507,15.5c-8.557,0-15.5-6.943-15.5-15.5
		c0-8.563,6.943-15.504,15.5-15.504C39.777,2.535,46.719,9.477,46.719,18.039z"/>
	<path fill="#48172D" d="M40.375,18.036c0,5.059-4.1,9.162-9.16,9.162c-5.057,0-9.155-4.104-9.155-9.162s4.1-9.16,9.155-9.16
		C36.275,8.876,40.375,12.979,40.375,18.036z"/>
	<path fill="#FFFFFF" d="M30.133,12.569c0,2.219-1.791,4.008-4.006,4.008c-2.213,0-4.008-1.789-4.008-4.008
		c0-2.212,1.795-4.003,4.008-4.003C28.342,8.566,30.133,10.357,30.133,12.569z"/>
	<circle fill="#FFFFFF" cx="33.465" cy="14.029" r="1.822"/>
</g>
</svg>
