<?xml version="1.0" encoding="utf-8"?>
<!-- Generator: Adobe Illustrator 16.0.0, SVG Export Plug-In . SVG Version: 6.00 Build 0)  -->
<!DOCTYPE svg PUBLIC "-//W3C//DTD SVG 1.1//EN" "http://www.w3.org/Graphics/SVG/1.1/DTD/svg11.dtd">
<svg version="1.1" xmlns="http://www.w3.org/2000/svg" xmlns:xlink="http://www.w3.org/1999/xlink" x="0px" y="0px"
	 width="138.994px" height="156.432px" viewBox="0 0 138.994 156.432" enable-background="new 0 0 138.994 156.432"
	 xml:space="preserve">
<g id="Layer_2">
</g>
<g id="Layer_1">
	<g>
		<path fill="#FFFFFF" d="M16.739,45.95c10.148-6.312-3.225-19.292,1.115-28.497c5.318-11.285,18.702-4.313,26.717-4.438
			c4.004-0.062,15.369-2.83,25.084-3.319C75.937-1.373,90.19-3.917,90.089,7.072c10.674,1.585,19.905,2.323,28.75,9.425
			c10.404,8.358,8.712,17.405-0.03,24.387c9.392,5.589,20.031,19.147,16.432,30.094c-3.726,11.335-18.229,17.368-18.705,30.02
			c10.661,3.963,17.216,8.946,22.459,19.146c-5.943,2.58-12.333,8.344-18.937,8.725c-0.142,3.823,1.73,13.743-0.087,17.006
			c-4.423,7.936-4.863,2.185-11.01-0.082c-5.488-2.025-10.404-1.878-15.114-4.111c-4.691-2.224-7.824-7.144-13.661-6.841
			c-3.728,7.431-13.387,24.367-23.331,21.203c-8.502-2.706-11.979-18.827-19.151-23.57c-8.03,6.457-16.581,15.853-28.01,14.125
			c-0.3-7.195,2.701-16.262,1.13-21.677C8.868,118.183,1.272,114.708,0,107.155c4.712-2.564,9.248-4.712,14.183-6.484
			c-1.18-3.787,0.766-11.604,0.297-12.926c-2.047-5.773-5.344-10.433-7.607-16.297C2.008,58.855,16.739,45.95,16.739,45.95z"/>
		<path fill="#EACCAD" d="M40.778,104.423c0,0-23.338,1.876-29.337,9.122c0.013,6.056,12.536,7.198,12.536,7.198
			s-10.964,13.835-7.6,17.076c13.381-12.656,31.699-15.519,31.699-15.519L40.778,104.423z"/>
		<path fill="#EACCAD" d="M89.056,104.959c0,0,40.659,11.061,36.603,14.792c-5.573,5.126-16,4.688-16,4.688l2.056,14.475
			c0,0-26.229-12.681-31.058-13.393C75.826,124.81,89.056,104.959,89.056,104.959z"/>
		<polygon fill="#231F20" points="101.27,120.748 74.341,126.94 84.703,111.335 		"/>
		<polygon fill="#231F20" points="30.912,116.631 49.657,122.928 46.952,107.221 		"/>
		<g>
			<g>
				<polygon fill="#468885" points="13.939,63.578 43.541,35.461 54.741,70.314 				"/>
				<path fill="#231F20" d="M54.741,71.116c-0.043,0-0.087-0.003-0.131-0.011l-40.802-6.736c-0.3-0.049-0.546-0.265-0.636-0.556
					c-0.089-0.291-0.006-0.607,0.214-0.817L42.988,34.88c0.201-0.189,0.485-0.264,0.751-0.195c0.268,0.068,0.48,0.269,0.565,0.532
					l11.148,34.692c0.07,0.119,0.11,0.257,0.11,0.405c0,0.443-0.359,0.802-0.803,0.802C54.756,71.116,54.751,71.116,54.741,71.116z
					 M15.66,63.049l37.916,6.26L43.168,36.922L15.66,63.049z"/>
			</g>
			<g>
				<polygon fill="#7CCDCD" points="62.741,144.668 13.939,63.578 54.741,70.314 				"/>
				<path fill="#231F20" d="M62.741,145.471c-0.275,0-0.539-0.143-0.688-0.389L13.252,63.991c-0.161-0.268-0.151-0.605,0.024-0.864
					c0.175-0.258,0.48-0.394,0.794-0.341l40.802,6.736c0.355,0.059,0.628,0.347,0.666,0.705l7.981,74.179
					c0.028,0.082,0.044,0.17,0.044,0.261c0,0.445-0.321,0.779-0.809,0.802C62.75,145.47,62.746,145.471,62.741,145.471z
					 M15.521,64.652l46.034,76.491l-7.547-70.137L15.521,64.652z"/>
			</g>
			<g>
				<polygon fill="#7CCDCD" points="43.541,35.461 58.742,33.045 99.542,35.461 108.332,41.507 				"/>
				<path fill="#231F20" d="M108.332,42.309c-0.024,0-0.05-0.001-0.074-0.003L43.467,36.26c-0.402-0.038-0.714-0.369-0.728-0.772
					c-0.013-0.404,0.276-0.754,0.676-0.818l15.201-2.416c0.058-0.009,0.111-0.013,0.174-0.008l40.8,2.416
					c0.146,0.008,0.286,0.057,0.406,0.14l8.692,5.979c0.274,0.127,0.466,0.405,0.466,0.728c0,0.443-0.359,0.802-0.803,0.802
					C108.346,42.309,108.34,42.309,108.332,42.309z M49.953,35.254l55.387,5.168l-6.068-4.174l-40.489-2.397L49.953,35.254z"/>
			</g>
			<g>
				<polygon fill="#5AB1AF" points="54.741,70.314 93.941,72.887 108.332,41.507 43.541,35.461 				"/>
				<path fill="#231F20" d="M93.941,73.689c-0.018,0-0.035,0-0.053-0.001l-39.2-2.573c-0.328-0.021-0.61-0.242-0.711-0.555
					l-11.2-34.853c-0.082-0.256-0.03-0.537,0.139-0.747c0.168-0.209,0.432-0.32,0.699-0.296l64.791,6.046
					c0.259,0.024,0.49,0.172,0.62,0.397c0.13,0.225,0.143,0.5,0.034,0.736L94.67,73.222C94.539,73.508,94.253,73.689,93.941,73.689z
					 M55.338,69.549l38.104,2.501l13.689-29.85l-62.456-5.828L55.338,69.549z"/>
			</g>
			<g>
				<polygon fill="#C5E7E9" points="108.332,41.507 125.943,63.953 93.941,72.887 				"/>
				<path fill="#231F20" d="M93.941,73.689c-0.231,0-0.455-0.1-0.61-0.281c-0.202-0.237-0.249-0.571-0.118-0.855l14.391-31.38
					c0.116-0.254,0.356-0.429,0.635-0.462c0.277-0.031,0.552,0.082,0.725,0.301l17.611,22.445c0.165,0.211,0.215,0.49,0.131,0.745
					c-0.083,0.255-0.288,0.451-0.546,0.523L94.157,73.66C94.086,73.68,94.014,73.689,93.941,73.689z M108.513,43.037L95.391,71.65
					l29.181-8.147L108.513,43.037z"/>
			</g>
			<g>
				<polygon fill="#C5E7E9" points="62.741,144.668 93.941,72.887 54.741,70.314 				"/>
				<path fill="#231F20" d="M62.741,145.47c-0.04,0-0.08-0.003-0.121-0.009c-0.359-0.055-0.638-0.345-0.676-0.707l-8-74.354
					c-0.025-0.235,0.055-0.47,0.218-0.641c0.165-0.171,0.393-0.261,0.632-0.245l39.2,2.573c0.26,0.017,0.496,0.16,0.632,0.383
					s0.155,0.498,0.051,0.737l-31.2,71.781C63.348,145.284,63.057,145.47,62.741,145.47z M55.641,71.177l7.573,70.392l29.538-67.956
					L55.641,71.177z"/>
			</g>
			<g>
				<polygon fill="#5AB1AF" points="125.943,63.953 62.741,144.668 93.941,72.887 				"/>
				<path fill="#231F20" d="M62.741,145.47c-0.141,0-0.282-0.037-0.41-0.113c-0.347-0.207-0.486-0.639-0.325-1.009l31.2-71.781
					c0.096-0.221,0.287-0.388,0.52-0.453l32.002-8.935c0.335-0.092,0.69,0.039,0.883,0.327c0.192,0.288,0.178,0.667-0.035,0.94
					l-63.202,80.716C63.216,145.363,62.98,145.47,62.741,145.47z M94.524,73.557l-28.547,65.678l57.828-73.853L94.524,73.557z"/>
			</g>
		</g>
		<g>
			<path fill="#A78056" d="M21.539,96.888c0,0,58.45-10.766,86.793,7.235c-6.037,19.479-8.829,16.453-8.829,16.453l-68.963-4.21
				L21.539,96.888z"/>
			<path fill="#231F20" d="M99.979,121.548c-0.294,0-0.548-0.078-0.745-0.185l-69.222-4.226l-9.635-20.852l1.016-0.187
				c0.175-0.032,17.646-3.207,37.854-3.207c21.828,0,38.487,3.551,49.514,10.554l0.518,0.329l-0.182,0.585
				C105.563,115.766,102.495,121.548,99.979,121.548z M31.067,115.595l68.807,4.201l0.135,0.146
				c0.308-0.045,2.791-0.871,7.373-15.467c-10.769-6.622-26.959-9.979-48.134-9.979c-17.283,0-32.537,2.336-36.543,3.004
				L31.067,115.595z"/>
		</g>
		<g>
			<g>
				<path fill="#231F20" d="M34.876,18.673l0.17-0.09c0.169-0.089,0.405-0.158,0.469-0.138c0.085-0.045,0.021-0.064,0.064-0.087
					c0.318-0.113,0.726-0.164,0.98-0.299c0.086-0.044,0.128-0.066,0.19-0.153c0.088,0.063,0.002,0.106,0.089,0.169
					c0.107-0.002,0.086-0.044,0.256-0.133c0.088,0.063,0.002,0.107,0.066,0.127c0.213-0.111,0.302,0.059,0.472-0.03
					c0.174,0.126,0.409,0.057,0.521,0.269c0.044,0.086,0.129,0.041,0.193,0.061c0.067,0.129,0.219,0.211,0.286,0.339
					c0.176,0.233,0.311,0.487,0.464,0.678c0.177,0.233,0.456,0.249,0.545,0.419c0.045,0.086-0.082,0.152-0.019,0.172
					c0.154,0.189,0.369,0.187,0.459,0.356c0.065,0.128-0.145,0.347-0.055,0.516c0.066,0.128,0.129,0.04,0.217,0.104
					c0.091,0.277,0.157,0.404,0.374,0.508c0.004,0.215-0.038,0.236,0.009,0.427c-0.041,0.13-0.146,0.239-0.121,0.39
					c0.087,0.063,0.194,0.061,0.321-0.006c0.174,0.126,0.224,0.426,0.482,0.507c0.069,0.233,0.138,0.47,0.205,0.597
					c0.044,0.085,0.09,0.17,0.154,0.19l0.044,0.085c0.09,0.17,0.026,0.257,0.009,0.43c0.371,0.293,0.356,0.68,0.747,0.908
					c0.067,0.127-0.059,0.302,0.136,0.363c-0.021,0.064-0.063,0.086-0.104,0.108l0.111,0.213c-0.021,0.064-0.063,0.087-0.147,0.13
					c0.109,0.105,0.325,0.209,0.393,0.336c0.045,0.085,0.047,0.192-0.06,0.303c0.157,0.298,0.374,0.4,0.593,0.611
					c-0.085,0.045-0.04,0.13-0.083,0.152c0.174,0.125,0.346,0.143,0.436,0.312c0.045,0.085-0.018,0.173-0.017,0.28
					c0.067,0.127,0.198,0.167,0.284,0.232c0.068,0.234,0.138,0.469,0.271,0.725c0.134,0.254,0.311,0.486,0.571,0.676
					c-0.04,0.129-0.038,0.236,0.028,0.363c0.066,0.128,0.153,0.191,0.264,0.297c0.045,0.084-0.018,0.171-0.104,0.216
					c0.176,0.233,0.223,0.425,0.503,0.441c0.044,0.085,0.002,0.106-0.062,0.194c0.13,0.041,0.025,0.149,0.027,0.258
					c0.087,0.063,0.002,0.106,0.111,0.211c0.021,0.043,0.087,0.063,0.173,0.018c0.089,0.17,0.093,0.385,0.243,0.359
					c-0.021,0.064,0.002,0.107,0.023,0.152c0.045,0.084,0.239,0.145,0.325,0.208c-0.017,0.173-0.08,0.259-0.098,0.431
					c0.109,0.105,0.237,0.039,0.346,0.145c0.024,0.149,0.092,0.277,0.009,0.429l0.089,0.171c0.111,0.212,0.181,0.446,0.272,0.725
					c0.063,0.02,0.28,0.123,0.369,0.293c0.022,0.043,0.025,0.149,0.006,0.213c0.111,0.212,0.223,0.425,0.25,0.682
					c0.172,0.019,0.09,0.277,0.306,0.383c-0.062,0.086-0.06,0.193-0.081,0.259c0.091,0.171,0.178,0.233,0.158,0.405
					c0.023,0.042,0.128-0.067,0.193-0.047c0.087,0.063,0.178,0.34,0.181,0.447c0.132,0.147,0.264,0.295,0.374,0.508l0.09,0.17
					c0.174,0.126,0.284,0.23,0.203,0.49c0.196,0.168,0.373,0.4,0.506,0.654l0.067,0.129c0.194,0.061,0.243,0.359,0.395,0.443
					c-0.04,0.129,0.071,0.342,0.009,0.43c0.045,0.084,0.089,0.17,0.068,0.234c-0.125,0.174-0.078,0.366-0.161,0.518
					c0.156,0.298-0.013,0.494,0.079,0.771c-0.042,0.022-0.02,0.065-0.104,0.109c0.086,0.063,0.089,0.17,0.091,0.277
					c-0.063,0.088-0.059,0.302-0.229,0.391c0.002,0.108-0.081,0.26-0.057,0.41c-0.127,0.066-0.188,0.261-0.315,0.328
					c-0.043,0.021-0.108,0.002-0.149,0.023c-0.127,0.174-0.273,0.307-0.443,0.396c-0.553,0.29-1.199,0.195-1.794,0.507
					c-0.128,0.066-0.129-0.04-0.236-0.038c-0.042,0.022-0.148,0.132-0.17,0.089c-0.063,0.088-0.168,0.197-0.296,0.264
					c-0.383,0.201-0.983,0.191-1.285,0.133c-0.046-0.086,0.038-0.237-0.175-0.126l-0.171,0.089
					c-0.216-0.103-0.453-0.141-0.692-0.287c-0.044-0.084,0.105-0.109,0.084-0.152c-0.259-0.08-0.499-0.226-0.718-0.436
					c-0.044-0.086,0.041-0.13,0.038-0.236c-0.065-0.129-0.217-0.104-0.176-0.234c-0.067-0.127-0.152-0.082-0.258-0.081
					c-0.003-0.107-0.155-0.19-0.199-0.275c-0.024-0.149,0.063-0.087-0.048-0.191c-0.086-0.063-0.089-0.17-0.133-0.255
					c-0.067-0.128-0.196-0.168-0.264-0.296l-0.045-0.085c-0.021-0.043-0.087-0.063-0.109-0.105
					c-0.132-0.146-0.201-0.383-0.375-0.508c0.019-0.172-0.07-0.342-0.053-0.514l-0.262-0.188c-0.001-0.106,0.019-0.172-0.048-0.3
					c-0.022-0.042-0.003-0.107-0.024-0.149l-0.067-0.128c-0.089-0.17-0.221-0.316-0.333-0.53c-0.133-0.255-0.16-0.512-0.293-0.767
					l-0.067-0.129c-0.045-0.084-0.108-0.104-0.173-0.124c-0.269-0.511-0.535-1.021-0.651-1.447c-0.045-0.085,0.04-0.13,0.017-0.173
					c-0.132-0.147-0.199-0.382-0.331-0.531c-0.022-0.042-0.13-0.04-0.173-0.125c-0.068-0.127-0.073-0.342-0.162-0.512
					c-0.086-0.063-0.259-0.08-0.198-0.275c-0.065-0.02-0.109-0.104-0.131-0.148c-0.067-0.127-0.092-0.277-0.159-0.404
					c-0.088-0.17-0.221-0.318-0.287-0.443c-0.068-0.129-0.069-0.236-0.029-0.365c-0.109-0.105-0.257,0.027-0.386-0.014
					c-0.041,0.129-0.318,0.221-0.446,0.287c-0.084,0.045-0.127,0.066-0.147,0.131c-0.106,0.003-0.234,0.068-0.319,0.113
					c-0.256,0.135-0.466,0.354-0.786,0.468c-0.149,0.024-0.321,0.006-0.406,0.05c-0.151,0.025-0.213,0.112-0.32,0.115
					c-0.042,0.021-0.107,0.002-0.149,0.023l-0.236-0.039l-0.213,0.111l-0.837,0.061c-0.127,0.066-0.169,0.088-0.189,0.153
					c-0.495-0.012-1.026,0.214-1.48,0.071c-0.063,0.088-0.128,0.067-0.213,0.111c-0.518-0.16-1.077-0.193-1.619-0.504
					c-0.302-0.06-0.646-0.096-0.93-0.326c-0.39-0.121-0.675-0.459-0.979-0.625c-0.022-0.043-0.132-0.148-0.09-0.17
					c-0.064-0.02-0.13-0.041-0.216-0.104c-0.023-0.043-0.002-0.107-0.024-0.149c-0.327-0.208-0.809-0.714-1.054-1.183
					c-0.067-0.127-0.113-0.319-0.224-0.425c-0.066-0.128-0.176-0.231-0.22-0.317c-0.046-0.085-0.067-0.127-0.047-0.191
					c-0.023-0.15-0.267-0.403-0.313-0.596c-0.002-0.107,0.061-0.195-0.006-0.322c-0.045-0.085-0.088-0.063-0.132-0.147
					c-0.045-0.085-0.024-0.149-0.069-0.235c-0.089-0.17-0.241-0.253-0.353-0.465l-0.203-0.49l-0.066-0.127
					c-0.066-0.127-0.262-0.189-0.158-0.405l-0.044-0.085c-0.111-0.213-0.139-0.471-0.251-0.682l-0.065-0.128
					c0.062-0.087,0.146-0.132,0.167-0.196c-0.044-0.086-0.106,0.002-0.132-0.148c-0.044-0.084,0.105-0.109,0.104-0.217
					c-0.087-0.063-0.197-0.168-0.241-0.253c-0.021-0.042,0.019-0.172-0.048-0.299l-0.045-0.085l0.063-0.088
					c-0.004-0.215-0.223-0.425-0.162-0.619c-0.111-0.213-0.329-0.315-0.138-0.47c-0.179-0.34,0.009-0.602,0.046-0.945
					c0.252-0.241,0.613-0.484,0.888-0.683c0.085-0.045,0.107-0.002,0.173,0.018c0.189-0.154,0.253-0.24,0.357-0.35l0.085-0.045
					c0.213-0.111,0.381-0.309,0.57-0.463c0.255-0.133,0.556-0.182,0.813-0.209c0.042-0.021,0.063-0.087,0.105-0.109
					c0.386-0.093,0.643-0.012,0.985-0.083c0.286,0.338,0.669,0.138,0.912,0.497l0.216,0.104c0.067,0.127,0.004,0.215,0.136,0.362
					c0.045,0.085,0.131,0.04,0.218,0.104c0.021,0.042,0.002,0.106,0.023,0.149c0.022,0.043,0.13,0.041,0.153,0.084
					c0.021,0.042-0.084,0.15,0.09,0.275c0.193-0.045,0.433,0.1,0.566,0.355c0.021,0.042,0.065,0.127,0.068,0.234
					c0.022,0.043,0.107-0.002,0.172,0.018c0.219,0.211,0.203,0.49,0.377,0.615c0.024,0.15,0.027,0.258,0.179,0.341
					c-0.043,0.022-0.085,0.045-0.104,0.109c0.175,0.232,0.289,0.552,0.483,0.613c0.069,0.234,0.158,0.405,0.248,0.575
					c0.178,0.34,0.398,0.657,0.687,1.103c-0.04,0.13,0.07,0.343,0.18,0.446c0.045,0.086-0.041,0.13-0.018,0.173
					c0.003,0.106,0.13,0.04,0.151,0.083c0.088,0.063,0.025,0.148,0.069,0.234c0.13,0.04,0.109,0.105,0.199,0.275
					c0.021,0.043,0.129,0.041,0.173,0.126l0.003,0.106c0.155,0.299,0.312,0.596,0.57,0.676c0.068,0.129,0.178,0.233,0.222,0.318
					l0.045,0.086c0.324,0.101,0.524,0.482,0.829,0.648c0.191-0.047,0.344,0.037,0.516,0.055c0.191-0.047,0.126-0.174,0.272-0.307
					l-0.028-0.363c0.209-0.326-0.056-0.729-0.043-1.115c0.105-0.109,0.104-0.218,0.144-0.347c-0.087-0.063-0.132-0.147-0.219-0.21
					c0.104-0.217-0.051-0.407,0.071-0.689c-0.066-0.127,0.06-0.302-0.135-0.361c0.081-0.26-0.227-0.641-0.039-0.901
					c-0.108,0.002-0.196-0.168-0.133-0.255c-0.065-0.021-0.088-0.063-0.11-0.105c-0.089-0.17-0.07-0.342-0.117-0.535
					c-0.023-0.042-0.088-0.063-0.109-0.105c-0.157-0.297-0.228-0.639-0.278-1.046c-0.088-0.063-0.174-0.126-0.219-0.21
					c-0.111-0.213-0.117-0.535-0.252-0.789c-0.179-0.342-0.398-0.658-0.577-0.998c-0.022-0.043-0.002-0.108-0.047-0.193
					l-0.066-0.127c-0.135-0.256-0.375-0.508-0.51-0.763l-0.066-0.128c-0.044-0.085-0.004-0.215-0.048-0.3l-0.09-0.17
					c-0.021-0.042,0.018-0.173,0.017-0.279c-0.029-0.364-0.188-0.769-0.087-1.093c0.231-0.284,0.483-0.525,0.824-0.703
					c0.043-0.023-0.002-0.107-0.023-0.15C34.406,18.811,34.701,18.548,34.876,18.673z"/>
				<path fill="#231F20" d="M49.94,21.685c0.227-0.079,0.543-0.192,0.876-0.26c0.196-0.02,0.423-0.1,0.62-0.119
					c0.212,0.026,0.503,0.127,0.806,0.121l0.183-0.064c0.361-0.129,0.697-0.045,1.063-0.021c0.541,0.521,1.481,0.441,2.101,1.037
					c0.151-0.004,0.188,0.238,0.384,0.22c-0.029,0.062-0.013,0.106,0.003,0.151c0.032,0.091,0.155,0.148,0.173,0.346
					c0.018,0.045,0.14,0.104,0.172,0.193c0.062,0.029,0.094,0.119,0.049,0.137c0.293,0.252,0.528,0.627,0.706,1.125
					c0.02,0.196-0.024,0.364,0.041,0.545c0.017,0.045,0.077,0.074,0.094,0.119c0.154,0.148,0.322,0.191,0.549,0.111l0.136-0.049
					c0.34-0.477,0.866-0.715,1.268-1.164L59.478,24c-0.016-0.044,0.119-0.092,0.119-0.092c0.235-0.34,0.55-0.604,0.785-0.943
					c0.253-0.293,0.534-0.648,0.771-0.986l0.401-0.449c0.19-0.322,0.396-0.6,0.711-0.863c0.148-0.156,0.33-0.221,0.508-0.437
					c0.193-0.171,0.161-0.261,0.446-0.464c0.148-0.155,0.355-0.433,0.627-0.529c0.136-0.049,0.271-0.097,0.456-0.01
					c0.121,0.059,0.261,0.162,0.325,0.344c0.032,0.09,0.003,0.151,0.02,0.196c0.006,0.304-0.037,0.472-0.272,0.812
					c-0.042,0.167,0.067,0.332,0.01,0.455c-0.118,0.244-0.295,0.461-0.289,0.764c-0.091,0.033-0.12,0.094-0.271,0.097
					c-0.01,0.259-0.176,0.368-0.156,0.565c-0.316,0.113-0.236,0.338-0.445,0.465c-0.068,0.381-0.443,0.615-0.557,1.013
					c-0.198,0.02-0.194,0.171-0.301,0.159c0.003,0.15-0.055,0.273-0.114,0.396c-0.375,0.235-0.382,0.645-0.771,0.835
					c-0.03,0.062-0.043,0.168-0.011,0.259c-0.285,0.203-0.385,0.494-0.73,0.668c-0.088,0.183-0.223,0.231-0.372,0.387
					c-0.132,0.199-0.585,0.36-0.641,0.635c-0.271,0.097-0.358,0.28-0.568,0.406c-0.088,0.184-0.22,0.384-0.46,0.571
					c-0.21,0.126-0.588,0.21-0.798,0.335c-0.136,0.048-0.238,0.187-0.452,0.16c-0.074,0.078-0.104,0.139-0.116,0.246
					c-0.137,0.047-0.123-0.059-0.169-0.043c-0.251,0.295-0.275,0.658-0.374,0.949c-0.521,0.543-0.584,1.227-1.105,1.769
					c-0.024,0.214-0.235,0.339-0.262,0.552c-0.432,0.358-0.85,0.762-1.267,1.164c-0.123-0.058-0.181,0.064-0.333,0.068
					c-0.133,0.199-0.436,0.205-0.63,0.377c-0.077-0.074-0.151,0.002-0.213-0.027c-0.844,0.352-1.726,0.309-2.307,0.107
					c-0.196,0.02-0.426-0.053-0.564-0.156c-0.107-0.012-0.136,0.049-0.196,0.02c-0.032-0.09-0.169-0.042-0.246-0.115l-0.062-0.029
					c-0.062-0.03-0.136,0.047-0.197,0.019c-0.061-0.029-0.094-0.12-0.184-0.088c-0.278-0.207-0.736-0.351-0.849-0.667
					c-0.196,0.02-0.216-0.177-0.385-0.219c-0.247-0.269-0.492-0.385-0.741-0.654c-0.32-0.039-0.629-0.336-0.726-0.607
					c-0.323-0.191-0.525-0.475-0.655-0.837l-0.031-0.091c-0.032-0.09-0.094-0.119-0.11-0.165l-0.067-0.333l-0.064-0.181
					c-0.048-0.136,0.026-0.213,0.011-0.258c-0.081-0.227-0.206-0.437-0.226-0.634c-0.032-0.09,0.026-0.213,0.023-0.365
					c-0.009-0.455,0.01-0.972,0.078-1.352c0.06-0.123,0.134-0.201,0.147-0.307c-0.018-0.045,0.058-0.123,0.026-0.214
					c0.073-0.077,0.057-0.123,0.193-0.171c0.036-0.471,0.333-0.781,0.414-1.268c0.313-0.266,0.333-0.781,0.754-1.033
					c-0.006-0.305,0.217-0.536,0.317-0.826c0.074-0.078,0.116-0.246,0.22-0.385c0.12-0.093,0.301-0.157,0.421-0.251
					c0.193-0.171,0.327-0.37,0.566-0.558l0.407-0.145c0.406-0.146,0.464-0.268,0.735-0.365C49.772,21.644,49.85,21.718,49.94,21.685
					z M49.808,29.478c-0.022,0.365,0.151,0.711,0.174,1.06c0.121,0.059,0.203,0.284,0.354,0.28c-0.088,0.186,0.081,0.228,0.16,0.453
					c0.243-0.035,0.336,0.084,0.459,0.143c0.316-0.112,0.617-0.27,0.95-0.338c0.113-0.396,0.686-0.65,0.95-1.051
					c0.014-0.107-0.002-0.152-0.096-0.271c-0.229-0.072-0.501,0.024-0.698,0.045c-0.061-0.029-0.138-0.104-0.229-0.072
					c-0.062-0.029-0.196,0.02-0.241,0.035c-0.062-0.029-0.218-0.178-0.397-0.113l-0.045,0.016c-0.046,0.017-0.063-0.029-0.124-0.058
					c-0.045,0.017-0.135,0.048-0.196,0.019l-0.139-0.104c-0.062-0.029-0.151,0.004-0.197,0.02c-0.167-0.043-0.322-0.191-0.549-0.111
					L49.808,29.478z M50.866,24.719c-0.119,0.093-0.161,0.262-0.235,0.339c-0.227,0.08-0.311,0.416-0.411,0.707l0.048,0.136
					c-0.116,0.245-0.11,0.549-0.351,0.735c0.11,0.166,0.339,0.236,0.434,0.356l0.216,0.177c0.155,0.15,0.487,0.082,0.614,0.293
					c0.196-0.02,0.454-0.01,0.639,0.078c0.304-0.008,0.713,0,0.942,0.072c0.181-0.065,0.259,0.01,0.411,0.006
					c0.196-0.02,0.409,0.008,0.591-0.057c0.135-0.049,0.209-0.127,0.284-0.203c0.022-0.365,0.152-0.717,0.023-1.078l-0.047-0.137
					c0.042-0.168,0.055-0.274,0.005-0.409c-0.048-0.136-0.157-0.301-0.221-0.481c-0.033-0.091-0.052-0.287-0.101-0.424l-0.031-0.091
					c-0.109-0.165-0.278-0.207-0.371-0.327c-0.109-0.164-0.188-0.238-0.249-0.268c-0.262-0.162-1.291-0.05-1.711,0.201
					C51.135,24.47,51.003,24.671,50.866,24.719z"/>
				<path fill="#231F20" d="M71.015,17.119c0.048-0.007,0.088-0.063,0.134-0.07c0.056,0.041,0.15,0.025,0.206,0.064
					c0.292,0.002,0.78,0.021,1.001,0.181c0.062,0.087,0.124,0.175,0.233,0.254c0.166,0.12,0.302,0.05,0.379,0.231
					c0.116,0.127,0.038,0.236,0.195,0.307c-0.071,0.157-0.05,0.301-0.034,0.395c0.053,0.332,0.249,0.641,0.246,0.935
					c0.008,0.047-0.039,0.055-0.024,0.149c-0.024,0.15,0.014,0.387-0.019,0.489l-0.081,0.11l0.031,0.189
					c0.031,0.189,0.108,0.371,0.164,0.41c0.055,0.039,0.007,0.047-0.032,0.102c-0.032,0.103,0.103,0.032,0.07,0.137
					c0.02,0.434,0.096,0.908-0.001,1.215c0.063,0.086,0.07,0.134,0.086,0.229c0.03,0.189,0.02,0.434-0.004,0.583
					c0.117,0.127,0.195,0.309,0.226,0.498c0.023,0.143,0.007,0.34-0.074,0.45c0.125,0.174,0.109,0.372,0.131,0.514
					c0.009,0.048,0.023,0.142,0.079,0.182l0.052,0.331c0.038,0.238,0.084,0.521,0.304,0.682l0.016,0.094
					c0.021,0.143,0.18,0.215,0.305,0.389c0.15,0.025,0.292,0.002,0.435-0.021c0.71-0.114,1.258-0.64,2.001-0.854
					c0.191-0.323,0.753-0.462,1.039-0.799c0.515-0.131,0.81-0.713,1.3-0.986c0.032-0.102,0.088-0.063,0.175-0.125
					c0.127-0.117,0.246-0.282,0.325-0.393c0.277-0.093,0.437-0.313,0.761-0.413c0.119-0.165,0.301-0.243,0.515-0.423
					c0.087-0.063,0.168-0.172,0.262-0.188c0.31-0.195,0.634-0.295,1.005-0.404c0.088-0.063,0.127-0.117,0.222-0.133
					c0.087-0.063,0.229-0.085,0.324-0.1c0.475-0.076,0.818,0.257,0.88,0.637c0.045,0.283-0.091,0.646-0.455,0.801
					c-0.087,0.063,0.063,0.088,0.03,0.189c-0.198,0.275-0.295,0.583-0.652,0.785c-0.166,0.174-0.168,0.465-0.405,0.503
					c-0.025,0.442-0.54,0.572-0.841,0.815c0.038,0.236-0.137,0.361-0.248,0.574c-0.236,0.038-0.349,0.25-0.46,0.463
					c-0.182,0.078-0.263,0.188-0.335,0.345c-0.236,0.038-0.262,0.188-0.388,0.306c-0.237,0.037-0.207,0.228-0.396,0.258
					c-0.159,0.219-0.333,0.345-0.493,0.564l-0.189,0.031c-0.111,0.212-0.326,0.392-0.493,0.564
					c-0.607,0.146-0.626,0.635-1.125,0.861c-0.04,0.055-0.087,0.062-0.174,0.125c-0.277,0.093-0.555,0.186-0.728,0.311l-0.19,0.03
					c-0.142,0.022-0.127,0.118-0.215,0.181c-0.323,0.1-0.521,0.084-0.797,0.176c-0.063-0.088-0.245-0.01-0.26-0.104
					c-0.293-0.002-0.49-0.02-0.567-0.201c-0.047,0.008-0.142,0.022-0.135,0.07c-0.149-0.025-0.339,0.006-0.409-0.129
					c-0.537-0.012-0.746-0.416-1.189-0.441c-0.015-0.096-0.11-0.08-0.077-0.182c-0.347-0.043-0.494-0.359-0.746-0.416
					c-0.056-0.039-0.117-0.127-0.133-0.221c-0.34,0.005-0.401-0.375-0.612-0.486l-0.31,0.195c0.045,0.285-0.081,0.402-0.312,0.487
					c-0.086,0.063,0.063,0.087,0.078,0.183c-0.072,0.157-0.199,0.273-0.373,0.399c-0.017,0.197-0.151,0.268-0.128,0.409
					l-0.096,0.016c-0.237,0.038-0.317,0.148-0.499,0.227c-0.365,0.447-0.913,0.972-1.836,0.975c-0.079,0.109-0.277,0.092-0.41,0.162
					c-0.285,0.046-0.505-0.113-0.797-0.115L66.013,30.8c-0.096,0.016-0.189,0.031-0.292-0.002c-0.103-0.031-0.213-0.111-0.369-0.184
					c-0.3-0.049-0.567-0.201-0.881-0.345c-0.631-0.288-1.078-0.653-1.596-1.153c-0.18-0.215-0.384-0.279-0.478-0.557l-0.213-0.111
					c-0.188-0.262-0.564-0.493-0.625-0.871l-0.022-0.143c-0.165-0.119-0.306-0.389-0.344-0.627
					c-0.038-0.236-0.218-0.451-0.248-0.641c-0.016-0.094,0.017-0.197,0.097-0.306c-0.096,0.015-0.11-0.08-0.125-0.175
					c0.032-0.104-0.03-0.189,0.111-0.213c-0.11-0.08-0.173-0.167-0.188-0.261c-0.038-0.237,0.114-0.505,0.146-0.606
					c0.024-0.15-0.069-0.135-0.085-0.229c-0.013-0.387,0.131-0.701,0.165-1.096c0.056-0.252,0.168-0.464,0.231-0.669l-0.021-0.143
					c-0.038-0.236,0.026-0.441,0.153-0.559c-0.005-0.34,0.139-0.654,0.439-0.896c-0.016-0.096,0.079-0.111-0.038-0.238
					c0.277-0.092,0.23-0.377,0.296-0.581c0.071-0.157,0.199-0.275,0.169-0.465l0.182-0.077c-0.029-0.482,0.382-0.645,0.457-1.094
					l0.095-0.016c0.188-0.031,0.356-0.203,0.545-0.233l0.144-0.022c0.188-0.031,0.466-0.124,0.711-0.114
					c0.046-0.008,0.204,0.064,0.347,0.042c0.108,0.079,0.259,0.104,0.314,0.144l0.062,0.087c0.049-0.008,0.143-0.022,0.15,0.025
					c0.055,0.039,0.07,0.135,0.125,0.174c0.07,0.135,0.22,0.159,0.283,0.246c0.06,0.379,0.161,0.704,0.373,0.815
					c-0.064,0.205,0.1,0.324,0.123,0.466c0,0,0.008,0.049-0.032,0.104c0.103,0.031,0.172,0.166,0.227,0.206
					c0.11,0.372,0.107,0.663,0.366,0.768c0.009,0.048-0.031,0.103-0.016,0.196c0.03,0.189,0.155,0.365,0.028,0.482
					c0.069,0.135,0.061,0.379,0.17,0.459c-0.057,0.252-0.153,0.559-0.101,0.891c0.009,0.047,0.07,0.135,0.086,0.229
					c-0.119,0.165-0.129,0.409-0.185,0.661c-0.04,0.055-0.081,0.109-0.176,0.125c0.015,0.096,0.015,0.096,0.085,0.23
					c0.158,0.071,0.229,0.205,0.259,0.395s0.014,0.387-0.059,0.543c0.188,0.264,0.249,0.642,0.332,1.164
					c0.166-0.173,0.176-0.417,0.357-0.495c-0.029-0.189-0.006-0.339,0.121-0.456c-0.063-0.088,0.033-0.104,0.025-0.15
					c0.166-0.173,0.081-0.402,0.295-0.582c-0.037-0.237,0.185-0.369,0.193-0.614c0.126-0.118,0.145-0.315,0.303-0.534
					c-0.007-0.048-0.046,0.008-0.101-0.032c-0.008-0.048,0.086-0.063,0.133-0.071c0.09-0.354,0.188-0.661,0.165-1.096
					c0.08-0.109,0.167-0.172,0.081-0.4c0.096-0.017,0.136-0.07,0.168-0.174c0.023-0.149-0.117-0.127-0.141-0.269l-0.016-0.095
					c-0.03-0.189-0.101-0.324,0.082-0.402c-0.056-0.039-0.07-0.135-0.077-0.182c-0.046-0.285,0.051-0.591,0.013-0.828l-0.016-0.095
					c0.12-0.165,0.224-0.425,0.336-0.638c-0.063-0.086-0.07-0.135-0.086-0.229c-0.03-0.189,0.042-0.347,0.168-0.465
					c-0.063-0.087-0.077-0.182-0.092-0.276c-0.038-0.237,0.051-0.592,0.163-0.804c0.134-0.07,0.212,0.111,0.354,0.089
					c0.086-0.063-0.07-0.134,0.016-0.197c0.128-0.118,0.135-0.07,0.333-0.054c0.166-0.172,0.104-0.259,0.381-0.352
					c0.095-0.016,0.126-0.118,0.221-0.133C70.715,17.07,70.872,17.142,71.015,17.119z"/>
				<path fill="#231F20" d="M93.011,15.541l0.094,0.02c0.329,0.066,0.367,0.368,0.639,0.473c0.234,0.293,0.252,0.688,0.43,1.02
					c-0.02,0.094-0.114,0.074-0.123,0.121c0.075,0.113,0.158,0.18,0.12,0.367c0.019,0.151,0.17,0.133,0.188,0.283
					c-0.019,0.094-0.066,0.085-0.122,0.123c0.046,0.254,0.081,0.555,0.043,0.744c-0.01,0.047-0.019,0.094,0.027,0.103
					c-0.02,0.095-0.113,0.075-0.094,0.226c0.131,0.076,0.281,0.058,0.441-0.008l0.377,0.077c0.056-0.038,0.066-0.085,0.112-0.075
					c0.162-0.064,0.292,0.011,0.49,0.002c0.358-0.073,0.941-0.053,1.31-0.173c0.15-0.019,0.358-0.073,0.556-0.083
					c0.452-0.055,1.008-0.137,1.337-0.069l0.047,0.009c0.084,0.066,0.02-0.093,0.104-0.027c0.151-0.018,0.292,0.011,0.433,0.039
					c0.188,0.039,0.329,0.068,0.462,0.145l0.318,0.113c0.169,0.133,0.234,0.293,0.403,0.426c0.085,0.066,0.226,0.095,0.348,0.218
					l-0.028,0.142c0.188,0.037,0.196,0.235,0.337,0.264c0.037,0.303,0.045,0.5,0.158,0.67c-0.086,0.179-0.162,0.31-0.2,0.498
					c-0.02,0.094,0.008,0.197,0.027,0.349c-0.048-0.01-0.058,0.037-0.114,0.074l-0.02,0.095c-0.077,0.375-0.313,0.572-0.474,0.883
					c-0.048,0.234-0.134,0.414-0.266,0.582l0.008,0.197c-0.423-0.086-0.491,0.488-0.82,0.421c-0.085,0.179-0.134,0.413-0.389,0.46
					c0.047,0.01,0.028,0.104,0.019,0.15c-0.056,0.037-0.112,0.074-0.207,0.056c-0.142,0.216-0.285,0.433-0.455,0.544
					c-0.027,0.141-0.074,0.131-0.048,0.235c-0.272,0.14-0.425,0.403-0.746,0.534c0.057,0.207-0.037,0.188-0.019,0.338
					c-0.35,0.271-0.541,0.723-0.674,1.137c-0.065,0.084-0.028,0.141-0.133,0.169c0.046,0.254-0.104,0.272-0.095,0.47
					c-0.104,0.028-0.114,0.074-0.171,0.112c0.14,0.274-0.114,0.319-0.088,0.668c0.048,0.01,0.132,0.076,0.226,0.095
					c0.189,0.039,0.387,0.03,0.557-0.082c0.112-0.074,0.112-0.074,0.197-0.009c0.058-0.037,0.075-0.132,0.133-0.169
					c0.462-0.102,0.622-0.411,1.047-0.57c0.066-0.084,0.143-0.215,0.331-0.177c0.925-0.692,1.972-1.263,2.936-1.898
					c0.094,0.019,0.103-0.028,0.207-0.056c0.178-0.16,0.358-0.318,0.717-0.393c0.009-0.047,0.02-0.095,0.075-0.132
					c0.218-0.103,0.406-0.309,0.697-0.298c0.2-0.254,0.614-0.365,0.896-0.308l0.095,0.021c0.14,0.028,0.396-0.018,0.583,0.021
					l0.094,0.02c0.179,0.085,0.328,0.312,0.517,0.351c0.094,0.019,0.159,0.18,0.196,0.235c-0.066,0.085-0.048,0.235-0.076,0.376
					c-0.039,0.188-0.274,0.141-0.444,0.252c-0.122,0.123-0.273,0.141-0.386,0.216c-0.086,0.179-0.199,0.253-0.444,0.252
					c-0.33,0.178-0.502,0.534-0.868,0.655c-0.104,0.028-0.076,0.131-0.085,0.18c-0.265,0.092-0.36,0.318-0.728,0.439
					c-0.161,0.309-0.539,0.477-0.841,0.758c-0.151,0.019-0.18,0.16-0.377,0.168c-0.086,0.18-0.462,0.102-0.501,0.289
					c0,0-0.009,0.049,0.038,0.058c-0.444,0.252-0.708,0.591-1.217,0.683c-0.029,0.141-0.284,0.187-0.406,0.309
					c-0.235-0.048-0.33,0.178-0.491,0.242c-0.16,0.066-0.452,0.055-0.564,0.131c-0.123,0.121-0.369,0.12-0.406,0.308
					c-0.133-0.075-0.151,0.019-0.301,0.037c-0.209,0.3-0.999,0.09-1.255,0.381c-0.329-0.067-0.64,0.016-0.932,0.005l-0.142-0.028
					c-0.235-0.048-0.366-0.124-0.554-0.162l-0.141-0.029c-0.696-0.436-1.212-1.031-1.718-1.673c-0.111-0.17-0.129-0.32-0.251-0.443
					c-0.009-0.198,0.011-0.293-0.121-0.367c0-0.246,0.002-0.49-0.035-0.791c-0.064-0.16-0.148-0.473-0.091-0.754
					c0.028-0.142,0.105-0.273,0.135-0.414c0.047-0.234,0.059-0.527,0.163-0.799c0.028-0.142,0.142-0.217,0.122-0.367
					c0.066-0.084,0.134-0.169,0.097-0.227c0.113-0.074,0.028-0.141,0.132-0.168l0.02-0.094c0.038-0.188,0.198-0.254,0.237-0.441
					c0.066-0.085,0.066-0.085,0.16-0.065c0.02-0.095-0.019-0.151,0.001-0.245c0.039-0.188,0.161-0.31,0.237-0.441
					c0.104-0.027,0.179,0.086,0.235,0.048c0.019-0.094-0.132-0.075-0.113-0.17c0.067-0.329,0.473-0.394,0.54-0.722l0.028-0.143
					c0.113-0.074,0.143-0.215,0.34-0.224l0.02-0.095c0.039-0.188,0.143-0.215,0.266-0.337l-0.095-0.02
					c-0.281-0.058-0.593,0.026-0.828-0.022c-0.197,0.009-0.424-0.086-0.611-0.125c-0.339-0.02-0.688,0.007-1.017-0.061l-0.33-0.066
					c-0.254,0.045-0.422-0.088-0.677-0.041c-0.282,0.188-0.267,0.582-0.465,0.836c-0.038,0.188-0.087,0.424-0.266,0.582
					c0.028,0.104,0.009,0.198-0.011,0.293c-0.038,0.188-0.114,0.318-0.285,0.431c0.066,0.161-0.01,0.292-0.122,0.366l-0.038,0.189
					c-0.04,0.188-0.114,0.319-0.191,0.451c-0.02,0.094,0.074,0.113,0.066,0.16l-0.078,0.376c-0.048,0.235-0.049,0.479-0.087,0.668
					l-0.077,0.376c-0.123,0.122-0.303,0.281-0.397,0.506c0,0,0.027,0.104,0.018,0.151c-0.048,0.235-0.255,0.291-0.284,0.433
					c-0.095,0.225-0.16,0.31-0.209,0.545c-0.066,0.084-0.245,0.244-0.322,0.375c-0.386,0.215-0.594,0.516-1.093,0.561
					c-0.273-0.104-0.536-0.257-0.763-0.352c-0.243-0.246-0.497-0.444-0.626-0.766c-0.085-0.066-0.122-0.123-0.17-0.133
					c-0.027-0.104-0.102-0.217-0.188-0.283c0.01-0.047-0.027-0.103-0.064-0.16c-0.158-0.179-0.263-0.396-0.327-0.801
					c0.058-0.037,0.105-0.027,0.123-0.122c0.021-0.094-0.065,0.085-0.094-0.019l0.029-0.143c0.058-0.281,0.246-0.487,0.295-0.723
					c0.104-0.028,0.113-0.075,0.207-0.057c-0.027-0.103,0.048-0.234,0.03-0.385c0.057-0.037,0.095,0.02,0.16-0.065
					c0.01-0.047-0.094-0.019-0.027-0.103c0.056-0.039,0.065-0.086,0.085-0.18c0.029-0.141,0.02-0.339,0.227-0.395
					c0.066-0.084-0.037-0.057-0.027-0.104c0.171-0.112,0.145-0.46,0.388-0.46c0.011-0.047-0.027-0.104-0.018-0.15
					c0.048-0.235,0.255-0.29,0.378-0.413l0.019-0.094c0.03-0.141,0.21-0.301,0.229-0.395l0.02-0.094
					c0.009-0.047,0.057-0.037,0.057-0.037l0.01-0.047c0.049-0.235,0.198-0.254,0.171-0.357c-0.216-0.387-0.657-0.625-0.861-1.058
					c-0.469-0.586-0.927-1.464-0.734-2.403c0.01-0.047,0.066-0.084,0.112-0.075l-0.056-0.208c0.143-0.215,0.191-0.451,0.333-0.666
					c0.189-0.207,0.416-0.356,0.642-0.506c0.059-0.037,0.066-0.084,0.114-0.075c0.104-0.028,0.16-0.065,0.132-0.169
					c0.303-0.281,0.491-0.488,0.776-0.674c0.065-0.086,0.112-0.076,0.169-0.113c0.171-0.111,0.255-0.29,0.5-0.289l0.122-0.122
					c0.265-0.094,0.435-0.206,0.604-0.317c0.084,0.066,0.405-0.064,0.565-0.129c0.217-0.104,0.302-0.282,0.557-0.328
					c0.151-0.018,0.396-0.018,0.584,0.021l0.188,0.038c0.066-0.085,0.245,0.001,0.32,0.114c0.103-0.028,0.207-0.055,0.301-0.037
					C92.712,15.087,92.861,15.314,93.011,15.541z M91.73,17.728c-0.111,0.075-0.159,0.065-0.254,0.047
					c-0.075,0.131-0.189,0.205-0.292,0.234c-0.02,0.094-0.049,0.234-0.162,0.31c-0.047-0.011-0.056,0.037-0.207,0.056
					c-0.17,0.112-0.34,0.225-0.435,0.45c-0.066,0.084-0.208,0.056-0.189,0.206c0.085,0.066,0.216,0.143,0.404,0.181
					c0.281,0.058,0.677,0.04,0.959,0.098c0.34,0.021,0.462-0.102,0.604-0.317l0.029-0.141c0.028-0.141,0-0.245,0.097-0.716
					c0.02-0.094,0.039-0.188,0.011-0.292c-0.038-0.057-0.113-0.17-0.093-0.264c0.009-0.047,0.028-0.141-0.112-0.17
					C91.949,17.38,91.808,17.597,91.73,17.728z"/>
				<path fill="#231F20" d="M110.423,23.111c0.247,0.379,0.196,0.831,0.401,1.189c-0.062,0.131,0.006,0.215-0.099,0.326
					c0.157,0.23-0.003,0.579,0.131,0.747c-0.121,0.261-0.011,0.365-0.111,0.583c0.05,0.234,0.137,0.275,0.06,0.557
					c-0.061,0.13-0.185,0.285-0.225,0.371c-0.04,0.088-0.036,0.195-0.034,0.303c-0.12,0.261-0.225,0.371-0.238,0.63
					c-0.148,0.091-0.285,0.502-0.52,0.552c0.047,0.128-0.034,0.303-0.096,0.434l-0.141,0.305c-0.258-0.014-0.423,0.227-0.656,0.277
					c-0.307,0.546-0.825,0.411-1.201,0.766c-0.077,0.282-0.07,0.497,0.003,0.795l0.087,0.041c0.218,0.1,0.409,0.03,0.583,0.111
					l0.088,0.039c0.297-0.073,0.666,0.045,1.032,0.055c0.429-0.012,0.984-0.072,1.289,0.068c0.147-0.09,0.253-0.201,0.423-0.227
					c0.088,0.039,0.047,0.127,0.09,0.146l0.491-0.144c0.174,0.081,0.273-0.138,0.491-0.036l0.087,0.04
					c0.618-0.19,1.281-0.253,1.901-0.337c0.107-0.002,0.238,0.057,0.282,0.078c0.151,0.016,0.299-0.074,0.493-0.037
					c0.15,0.018,0.281,0.078,0.431,0.094c0.322-0.01,0.618-0.189,0.92-0.156c0.087,0.041,0.13,0.061,0.238,0.057
					c0.087,0.041,0.214-0.006,0.277-0.029c0.195,0.037,0.368,0.117,0.539,0.091l0.087,0.04c0.108-0.004,0.151,0.018,0.239,0.058
					c0.281,0.077,0.479,0.222,0.784,0.362c0.206,0.467-0.166,0.928-0.279,1.404c-0.172,0.027-0.275,0.138-0.43,0.014
					c-0.252,0.2-0.48,0.465-0.78,0.432c-0.105,0.109-0.102,0.218-0.143,0.305c-0.299,0.073-0.598,0.146-0.825,0.411l-0.086-0.04
					c-0.175-0.08-0.278,0.03-0.363,0.098c-0.496-0.071-0.898,0.112-1.256,0.316c-0.262-0.121-0.427,0.121-0.705,0.15
					c-0.214,0.007-0.368-0.118-0.54-0.091c-0.087-0.04-0.104,0.11-0.21,0.114c-0.325-0.098-0.53,0.23-0.879,0.068
					c-0.107,0.004-0.147,0.091-0.278,0.031c-0.064,0.023-0.104,0.11-0.168,0.133c-0.473-0.007-0.771,0.066-1.203-0.027
					c-0.47,0.1-0.984,0.073-1.435,0.129c-0.066-0.084-0.153-0.124-0.197-0.145c-0.218-0.1-0.43,0.014-0.647-0.088
					c-0.172,0.027-0.405,0.077-0.536,0.018c-0.087-0.041-0.131-0.061-0.153-0.125c-0.108,0.004-0.148,0.091-0.235,0.051
					c-0.261-0.121-0.369-0.118-0.566-0.262c-0.54-0.092-1.296-0.283-1.862-0.545c-0.35-0.162-0.634-0.346-0.812-0.534
					c-0.11-0.104-0.15-0.017-0.219-0.101c-0.702-0.537-1.235-1.101-1.62-1.754c0.084-0.068-0.003-0.108,0.018-0.152
					c-0.087-0.039-0.131-0.06-0.242-0.164c0.034-0.301-0.189-0.617-0.068-0.877c-0.242-0.166-0.312-0.357-0.234-0.638
					c-0.088-0.04-0.11-0.104-0.241-0.165c-0.277-0.656-0.24-1.539-0.159-2.398c0.128-0.047,0.038-0.195,0.077-0.282
					c0.041-0.087,0.085-0.066,0.104-0.11l-0.027-0.172c0.015-0.258,0.179-0.499,0.279-0.717l0.102-0.218
					c0.137-0.412,0.167-0.821,0.329-1.17c0.081-0.174,0.205-0.328,0.222-0.479c0.107-0.004,0.145-0.198,0.232-0.158
					c-0.024-0.063-0.005-0.106,0.016-0.15c0.06-0.131,0.228-0.265,0.313-0.331c0.02-0.044-0.027-0.172,0.013-0.258
					c0.44-0.379,0.746-0.926,1.302-0.984c0.221-0.48,0.617-0.191,0.865-0.5c0.215-0.006,0.453,0.051,0.623,0.024
					c0.343-0.053,0.661-0.171,0.916-0.264c0.043,0.021,0.107-0.003,0.171-0.026c0.15,0.017,0.453,0.051,0.667,0.044
					c0.215-0.007,0.388,0.073,0.56,0.048c0.087,0.039,0.214-0.007,0.321-0.01c0.088,0.04,0.11,0.104,0.154,0.124
					c0.151,0.017,0.303,0.033,0.433,0.096c0.174,0.081,0.241,0.164,0.372,0.225c0.043,0.021,0.087,0.04,0.195,0.035
					C109.854,22.054,110.383,22.51,110.423,23.111z M107.169,25.572l-0.174-0.081c-0.479-0.222-0.953-0.229-1.134,0.163
					c-0.02,0.044-0.04,0.088-0.124,0.154l-0.212,0.113c-0.164,0.242-0.259,0.674-0.423,0.916c-0.104,0.111-0.164,0.241-0.225,0.372
					c-0.041,0.087-0.08,0.174-0.077,0.28c0.066,0.084,0.178,0.188,0.308,0.248c0.393,0.182,0.929,0.166,1.313,0.133
					c0.235-0.051,0.406-0.077,0.574-0.211c0.127-0.047,0.258,0.014,0.299-0.072c0.187-0.179,0.372-0.463,0.492-0.725
					c0.101-0.217,0.202-0.436,0.132-0.627c-0.201-0.252-0.337-0.527-0.686-0.688C107.253,25.504,107.146,25.507,107.169,25.572z"/>
			</g>
			<g>
				<path fill="#231F20" d="M80.91,6.208l0.19,0.025c0.07,0.032,0.137,0.04,0.193,0.025c0.128,0.019,0.368-0.019,0.711-0.112
					l0.318,0.147c0.012,0.05,0.048,0.066,0.107,0.05c0.124,0.017,0.299,0.088,0.518,0.211c0.222,0.124,0.43,0.212,0.627,0.26
					c0.34,0.119,0.545,0.192,0.619,0.226c0.095,0.132,0.229,0.288,0.403,0.476c0.174,0.186,0.274,0.328,0.301,0.427l0.079,0.29
					l0.154,0.579L85.19,9.03c0.014,0.048,0.047,0.116,0.101,0.208c0.054,0.088,0.067,0.188,0.037,0.299
					c0.051,0.195,0.06,0.348,0.03,0.46c0.039,0.146,0.035,0.365-0.007,0.666c-0.046,0.299-0.052,0.495-0.026,0.591l-0.066,0.099
					l-0.089,0.022c0.025,0.094,0.008,0.256-0.056,0.481l0.04,0.146c-0.032,0.112-0.064,0.277-0.099,0.494
					c-0.035,0.214-0.045,0.348-0.033,0.396l-0.086,0.022c0.064,0.243,0.048,0.404-0.056,0.485c0.007,0.258-0.049,0.622-0.168,1.095
					c-0.121,0.474-0.191,0.793-0.208,0.954c-0.104,0.078-0.162,0.211-0.171,0.396c-0.013,0.185-0.042,0.31-0.086,0.372
					c0.058-0.017,0.069,0.034,0.041,0.148c-0.046,0.061-0.13,0.317-0.257,0.769l0.018,0.072l-0.063,0.097
					c-0.04,0.319-0.091,0.598-0.152,0.816l-0.153,0.12c-0.222,0.321-0.451,0.513-0.68,0.574l-0.5,0.211l-0.576-0.08
					c0.088-0.128,0.113-0.264,0.075-0.405l-0.099-0.367c0.088-0.126,0.121-0.237,0.095-0.335l-0.04-0.146
					c0.09-0.13,0.121-0.239,0.098-0.338c0.119-0.238,0.148-0.482,0.082-0.728l-0.019-0.068l-0.04-0.146l0.046-0.171
					c-0.014-0.046-0.026-0.097-0.037-0.143l0.068-0.096c-0.054-0.195-0.044-0.378,0.034-0.554l0.048-0.171
					c-0.027-0.094-0.044-0.169-0.059-0.218c-0.015-0.048-0.005-0.127,0.028-0.241c0.03-0.113,0.034-0.219,0.008-0.312
					c-0.038-0.146-0.045-0.277-0.012-0.385c-0.014-0.052-0.004-0.131,0.029-0.244c0.034-0.321,0.084-0.492,0.142-0.507
					c-0.193-0.257-0.202-0.518-0.022-0.773l-0.088,0.023c0.007-0.209-0.038-0.484-0.128-0.825l0.067-0.096l-0.135-0.506
					c0.04-0.063,0.056-0.122,0.042-0.169l-0.136-0.509l0.068-0.096l-0.021-0.073c-0.038-0.143-0.033-0.249,0.011-0.314
					c-0.246-0.454-0.396-0.774-0.448-0.969c-0.14-0.066-0.243-0.222-0.307-0.465c-0.016-0.045-0.05-0.063-0.107-0.049l-0.124-0.122
					l-0.098-0.36c-0.188-0.003-0.305-0.103-0.358-0.297c-0.115,0.031-0.256-0.034-0.425-0.196c-0.171,0.044-0.263,0.044-0.275-0.004
					c-0.142-0.063-0.239-0.197-0.292-0.393c-0.028-0.56,0.302-0.829,0.987-0.809C80.626,6.31,80.736,6.252,80.91,6.208z"/>
			</g>
		</g>
		<g>
			<path fill="#231F20" d="M70.503,44.151c0.096-0.048,0.24-0.096,0.336-0.096c0.336,0,0.672,0.144,0.96,0.144
				c0.192,0,0.288-0.096,0.433,0c0.096-0.048,0.144-0.144,0.24-0.144c0.144,0.048,0.239,0.048,0.384,0.048h0.864
				c0.048,0,0.096,0.096,0.191,0.096c0.145,0,0.336-0.048,0.528,0c0.096,0,0.192,0.097,0.288,0.145
				c0.191,0.096,0.384,0.048,0.576,0.096c0.576,0.24,1.2,0.432,1.632,0.864h0.192c0,0.096,0.096,0.144,0.191,0.191
				c0.145,0.24,0.288,0.433,0.48,0.624c0,0.145,0.096,0.24,0.191,0.337c0.049,0.239,0.145,0.432,0.145,0.672v0.096
				c0,0.048-0.048,0.145-0.048,0.145c0,0.191,0.096,0.432,0.096,0.624v0.096l-0.096,0.24c0,0.096,0.048,0.144,0.048,0.239
				c0,0.049-0.048,0.097-0.048,0.192c0,0,0.048,0.096,0.048,0.145c0.048,0.191,0,0.287-0.048,0.479c0,0.145,0.048,0.192,0.048,0.288
				c0,0.145-0.096,0.288-0.096,0.432c0,0.145,0.144,0.24,0.191,0.385c0.048,0.144,0,0.288,0.145,0.384c0,0.144,0.048,0.144,0,0.24
				c0.096,0.144,0.191,0.288,0.191,0.479c0.097,0.048,0.288,0.097,0.288,0.24c0.24,0.048,0.433,0.048,0.528,0.192
				c0.72,0.048,1.68-0.192,2.305-0.576c0.191-0.336,0.768-0.288,0.912-0.672c0.144,0,0.287-0.048,0.432-0.145
				c0.144-0.096,0.24-0.288,0.384-0.432c0.096-0.097,0.288-0.097,0.288-0.24c0.288-0.096,0.432-0.288,0.72-0.336
				c0.097-0.145,0.24-0.192,0.433-0.24c0.144-0.096,0.144-0.24,0.24-0.288C85.192,49,85.288,49,85.433,48.952
				c0.048-0.048,0.096-0.145,0.191-0.24c0.145-0.145,0.336-0.24,0.433-0.336c0.24-0.24,0.24-0.433,0.72-0.433
				c0.048,0,0.145,0,0.192,0.049c0.288,0.048,0.672,0.288,0.672,0.672v0.288c0,0.239-0.048,0.527-0.145,0.672
				c-0.048,0.144-0.191,0.192-0.239,0.288c-0.049,0.144-0.049,0.336-0.145,0.432c-0.096,0.097-0.144,0.145-0.24,0.192l-0.384,0.432
				c-0.144,0.24-0.191,0.48-0.432,0.624c-0.145,0.336-0.336,0.528-0.624,0.721c-0.192,0.384-0.576,0.624-0.96,0.863
				c-0.192,0.24-0.433,0.433-0.769,0.528c-0.144,0-0.144,0.145-0.24,0.192H83.32c-0.24,0-0.24,0.24-0.528,0.24
				c0,0.288-0.384,0.336-0.528,0.527h-0.096c-0.24,0-0.384,0.097-0.528,0.145c-0.288,0.096-0.576,0.096-0.815,0.144
				C80.632,55,80.392,55.096,80.2,55.096h-0.097c-0.048,0,0,0.096-0.048,0.096c-0.096,0.096-0.191,0.048-0.288,0.048
				c-0.191,0-0.288,0.145-0.479,0.145c-0.145,0-0.288-0.145-0.433-0.145c0,0-0.048,0.048-0.096,0.048
				c-0.624-0.336-1.488-0.239-1.92-0.768c-0.192,0-0.24-0.048-0.384-0.145c-0.192-0.096-0.385-0.239-0.528-0.384
				c-0.24-0.144-0.288-0.24-0.528-0.384c-0.048-0.048-0.144-0.096-0.192-0.096c-0.048-0.049-0.336,0.096-0.479,0.191
				c-0.096,0.048-0.24,0.145-0.24,0.24c-0.24,0.048-0.336,0.24-0.384,0.384c-0.384,0.24-0.672,0.528-1.104,0.672
				c-0.384,0.24-0.768,0.48-1.296,0.528c-0.096,0-0.144,0.096-0.24,0.145c-0.288,0-0.479,0.048-0.768,0.096h-0.145
				c-0.768,0-1.488-0.384-2.208-0.48c-0.192-0.144-0.432-0.239-0.624-0.384c-0.048-0.048-0.144-0.096-0.24-0.144
				c-0.191-0.145-0.288-0.385-0.576-0.48c0-0.096-0.048-0.096-0.048-0.144c-0.336-0.24-0.576-0.528-0.912-0.721
				c-0.096-0.191-0.384-0.336-0.479-0.624c-0.048-0.096-0.048-0.191-0.048-0.288l-0.145-0.144c-0.192-0.336-0.24-0.769-0.336-1.248
				c0-0.192,0-0.528,0.144-0.769c0-0.096-0.048-0.144-0.096-0.24c0-0.287,0.145-0.432,0.145-0.72c0-0.096,0.144-0.048,0.144-0.144
				c0-0.097,0-0.192-0.048-0.24c0.048-0.145,0.144-0.192,0.24-0.288c0-0.048-0.048-0.096-0.048-0.145
				c0-0.144,0.096-0.287,0.096-0.384c0.191,0,0.288-0.096,0.336-0.24c0.048-0.096-0.096-0.096-0.096-0.191
				c0.096-0.096,0.144-0.192,0.239-0.24c0-0.336,0.24-0.384,0.337-0.624c0.096-0.096,0.287-0.144,0.336-0.336
				c0.048-0.048,0.191-0.048,0.239-0.096v-0.049c0-0.239,0.192-0.239,0.192-0.384v-0.096c0.336-0.384,0.672-0.816,1.2-1.057
				c0.048-0.048,0.048-0.144,0.048-0.191c0.096,0,0.192-0.048,0.24-0.096c0.096-0.049,0.096-0.192,0.144-0.24
				c0.097-0.048,0.145,0.048,0.24,0.048c0.24-0.24,0.528-0.288,0.864-0.288h0.288l0.048-0.096L70.503,44.151z M72.472,46.695
				c-0.049,0.097-0.145,0.097-0.24,0.097c0,0.096-0.048,0.144-0.048,0.239c-0.192,0-0.192,0.192-0.385,0.192
				c-0.096,0.24-0.239,0.336-0.384,0.528c-0.144,0.24-0.288,0.528-0.384,0.864c-0.096,0.288-0.192,0.624-0.24,0.912
				c-0.048,0.191-0.048,0.336-0.096,0.479c-0.048,0.288-0.192,0.576-0.192,0.864v0.144c0.048,0.288,0.288,0.48,0.576,0.48
				c0.096,0,0.24-0.048,0.336-0.144c0.048,0,0.096-0.097,0.145-0.192c0.048-0.096,0.144-0.145,0.191-0.192
				c0.048-0.144,0.096-0.336,0.145-0.432c0.191-0.336,0.336-0.433,0.336-0.816c0.288-0.288,0.288-0.624,0.432-1.008l0.145-0.24
				c0.144-0.24,0.191-0.479,0.288-0.768c0.048-0.097,0-0.288,0.048-0.433c-0.048-0.096-0.097-0.191-0.097-0.336
				c-0.191-0.048-0.288-0.288-0.432-0.288C72.567,46.647,72.52,46.647,72.472,46.695z"/>
		</g>
		<g>
			<path fill="#FFFFFF" d="M37.775,98.048l0.106-0.002c0.105-0.002,0.237,0.022,0.291,0.047c0.078-0.054,0.237-0.03,0.396-0.031
				c0.053-0.001,0.105-0.002,0.158-0.029c0.053-0.001,0.079,0.024,0.132,0.023c0.053-0.027,0.158-0.029,0.264-0.031
				c0.053-0.001,0.132-0.003,0.159,0.021c0.053,0.025,0.052-0.054,0.104-0.055c0.237-0.005,0.501-0.036,0.765-0.041
				c0.211-0.005,0.396,0.019,0.608,0.04c0.317,0.047,0.819,0.037,1.113,0.189l0.264-0.005c0.079-0.002,0.185-0.004,0.238,0.021
				c0.133,0.077,0.477,0.07,0.532,0.228c0.185-0.004,0.239,0.101,0.372,0.099l0.053-0.001c0.027,0.078,0.133,0.076,0.239,0.101
				c0.135,0.129,0.166,0.366,0.274,0.525c-0.024,0.105,0.004,0.185-0.047,0.291c0.001,0.053,0.054,0.078,0.055,0.129
				c-0.023,0.132-0.154,0.161-0.179,0.294c-0.236,0.058-0.418,0.246-0.629,0.25l-0.079,0.001c-0.182,0.162-0.633,0.065-0.814,0.228
				c-0.289,0.032-0.552,0.116-0.814,0.175c0.001,0.053-0.025,0.079-0.024,0.132c0.004,0.212,0.166,0.367,0.195,0.524l-0.022,0.186
				c0.027,0.053,0.107,0.104,0.136,0.183c0.028,0.104,0.004,0.211,0.06,0.342c-0.026,0.027-0.079,0.028-0.078,0.081
				c0.112,0.341,0.016,0.792,0.232,1.078c0.003,0.132-0.021,0.265-0.019,0.396c0.003,0.158,0.032,0.316,0.114,0.42
				c-0.024,0.106-0.023,0.186,0.031,0.264l-0.024,0.106c0.003,0.132,0.083,0.209,0.086,0.341c0.002,0.079-0.022,0.186-0.021,0.238
				c0,0.026-0.052,0.054-0.052,0.08c0.002,0.079,0.004,0.186-0.02,0.317c-0.024,0.106,0.003,0.185-0.021,0.291
				c0.001,0.053-0.104,0.107-0.023,0.186c-0.077,0.081-0.074,0.239-0.152,0.293c0.028,0.079,0.056,0.158,0.058,0.264
				c0.003,0.132-0.021,0.264-0.019,0.396c0.002,0.105,0.004,0.211,0.059,0.289c-0.13,0.082-0.048,0.238-0.126,0.319
				c0.108,0.104,0.084,0.21,0.086,0.315c0,0.026,0.001,0.079,0.028,0.131c-0.103,0.135-0.099,0.346-0.202,0.453
				c0.001,0.053,0.055,0.078,0.056,0.131c-0.051,0.106-0.128,0.214-0.126,0.319l0.001,0.053c-0.102,0.214-0.068,0.53-0.251,0.639
				l0.002,0.106c-0.104,0.107-0.208,0.188-0.231,0.348c-0.131,0.028-0.05,0.106-0.182,0.136c0.028,0.104-0.05,0.159-0.048,0.238
				c-0.079,0.028-0.131,0.056-0.129,0.161c-0.131,0.055-0.208,0.162-0.232,0.295c-0.104,0.028-0.129,0.135-0.234,0.163
				c-0.284,0.296-0.757,0.464-1.095,0.708c-0.264,0.058-0.499,0.168-0.789,0.174c-0.185,0.004-0.369,0.034-0.554,0.037
				c-0.079,0.002-0.132,0.003-0.186-0.022c-0.053,0.001-0.079,0.028-0.132,0.029l-0.185-0.023l-0.105,0.028
				c-0.212-0.021-0.424-0.07-0.583-0.12c-0.239-0.048-0.479-0.149-0.665-0.251c-0.054-0.025-0.107-0.077-0.135-0.103
				c-0.026-0.026-0.053-0.025-0.079-0.025c-0.159,0.003-0.294-0.152-0.428-0.229c-0.079-0.024-0.185-0.022-0.239-0.074
				c-0.053,0.001-0.08-0.051-0.133-0.076c-0.027-0.026-0.028-0.105-0.003-0.133c-0.212-0.021-0.4-0.203-0.404-0.414l0.024-0.106
				c0.025-0.053-0.079,0.002-0.08-0.051s-0.028-0.105-0.029-0.158c-0.004-0.185,0.045-0.37-0.036-0.475
				c-0.002-0.105,0.104-0.134,0.048-0.238c0.156-0.109,0.126-0.346,0.201-0.506c0.131-0.082,0.262-0.164,0.285-0.296
				c0.211-0.031,0.342-0.086,0.526-0.09l0.105-0.002c0.079-0.002,0.028,0.104,0.082,0.13s0.106,0.024,0.186,0.023
				c0.137,0.261,0.352,0.441,0.515,0.676c0.212,0.022,0.268,0.18,0.401,0.257c0.158-0.003,0.237-0.031,0.422-0.035
				c0.023-0.132,0.155-0.161,0.152-0.293l-0.001-0.053c0.053-0.001,0.053-0.027,0.079-0.028c-0.004-0.185,0.179-0.32,0.175-0.505
				c-0.002-0.105-0.031-0.237-0.033-0.343c0.024-0.08,0.102-0.187-0.004-0.211c-0.001-0.053,0.052-0.054,0.077-0.08
				c-0.001-0.053-0.054-0.052-0.081-0.105c0.051-0.106,0.021-0.237,0.019-0.37c-0.002-0.105,0.022-0.237,0.073-0.345
				c-0.029-0.104-0.058-0.21-0.06-0.315l-0.011-0.555c-0.003-0.158-0.006-0.29-0.035-0.448c0.053-0.027,0.024-0.079,0.078-0.08
				c-0.082-0.104-0.031-0.211-0.007-0.315c-0.002-0.105-0.057-0.21-0.059-0.29c-0.002-0.105,0.049-0.212,0.047-0.318
				c-0.002-0.079-0.029-0.132-0.004-0.212l0.022-0.185c-0.003-0.132-0.031-0.264-0.008-0.396c-0.002-0.105-0.005-0.237,0.047-0.316
				c-0.027-0.052-0.029-0.131-0.083-0.183c-0.001-0.053,0.024-0.08,0.077-0.109c-0.055-0.104-0.085-0.262-0.088-0.42
				c-0.003-0.186,0.046-0.371,0.043-0.503c-0.001-0.053-0.055-0.131,0.023-0.186c-0.055-0.078-0.057-0.157-0.058-0.236l-0.005-0.211
				c-0.001-0.079-0.003-0.186,0.049-0.239c-0.003-0.132-0.085-0.288-0.088-0.419c-0.001-0.053,0.051-0.106,0.076-0.159
				c-0.001-0.053-0.083-0.184-0.084-0.265c-0.185,0.057-0.448,0.062-0.578,0.144c-0.291,0.006-0.713,0.014-0.901-0.141l-0.053,0.003
				c-0.105,0.002-0.185-0.022-0.238-0.021c-0.026,0-0.079,0.001-0.104,0.026c-0.188-0.129-0.453-0.203-0.589-0.385
				c-0.079,0.001-0.133-0.051-0.212-0.022c-0.053-0.025-0.054-0.078-0.081-0.104c-0.054-0.052-0.132-0.023-0.187-0.075
				c-0.026-0.025-0.054-0.078-0.107-0.104c-0.108-0.156-0.22-0.418-0.223-0.576c-0.005-0.238,0.07-0.45,0.119-0.663
				c0.207-0.241,0.467-0.458,0.834-0.57c0.079-0.002,0.132-0.003,0.159,0.022c0.077-0.08,0.183-0.082,0.287-0.138
				c0.238-0.004,0.526-0.089,0.791-0.092c0.105-0.002,0.185,0.022,0.291,0.047c0.079-0.001,0.052-0.054,0.104-0.058
				C37.115,98.009,37.562,97.921,37.775,98.048z"/>
			<path fill="#FFFFFF" d="M48.584,98.663c0.132,0.001,0.264-0.025,0.343,0.055c0.079-0.026,0.158-0.026,0.264-0.026
				c0.186,0.001,0.396,0.028,0.528,0.028c0.158,0.001,0.316-0.025,0.476-0.024c0.053,0,0.105,0.054,0.158,0.054
				s0.132-0.026,0.211-0.025c0.185,0.026,0.422,0.001,0.633,0.081c0.08,0,0.106-0.026,0.133-0.026
				c0.079,0.054,0.158,0.08,0.237,0.08l0.105,0.001c0.105,0,0.237-0.026,0.396-0.025h0.079c0.054,0,0.159,0.027,0.265,0.054
				c0.237,0.054,0.316,0.054,0.474,0.239c0.079,0.08,0.132,0.186,0.237,0.291c0.052,0.08,0.131,0.133,0.157,0.212l0.025,0.317
				c-0.027,0.132-0.16,0.448-0.213,0.527c-0.054,0.078-0.186,0.21-0.265,0.236c-0.08,0.053-0.238,0.052-0.37,0.104
				c-0.053,0.025-0.133,0.052-0.212,0.052c-0.053,0-0.105-0.026-0.158-0.054c-0.132,0.105-0.37,0.131-0.607,0.13l-0.527-0.001
				c-0.212-0.001-0.502,0.024-0.792,0.023l-0.186-0.001c-0.079-0.026-0.132-0.026-0.264-0.001c-0.132,0-0.264-0.027-0.369-0.027
				c-0.105-0.001-0.186,0.025-0.291,0.025c-0.105-0.001-0.185-0.027-0.264-0.027s-0.132-0.001-0.185,0.052
				c0.025,0.053,0.025,0.105,0.025,0.159c-0.053,0.025-0.132,0.052-0.186,0.104c0.026,0.132,0,0.211-0.001,0.316
				c0,0.106-0.079,0.105-0.105,0.185c0.026,0.026,0.026,0.026-0.001,0.053c0.026,0.026,0.079,0.027,0.079,0.054
				c0.078,0.422-0.029,0.977,0.127,1.399c-0.026,0.079-0.053,0.185-0.106,0.264c0.026,0.079,0.105,0.026,0.132,0.079
				c0,0.105,0,0.212-0.027,0.291c0.053,0.079,0.079,0.185,0.078,0.29c0,0.132-0.054,0.264-0.133,0.369
				c0,0.079-0.027,0.158-0.027,0.211c-0.001,0.291,0.051,0.581,0.05,0.818c0,0.08,0,0.133-0.027,0.212
				c0.105,0.079,0.185,0.158,0.264,0.265c0.158,0,0.316-0.025,0.448-0.025c0.106,0.001,0.212,0.027,0.291,0.054
				c0.132-0.025,0.29-0.052,0.422-0.051l0.264,0.027c0.079,0.079,0.265,0.08,0.316,0.186l0.105,0.001
				c0.158,0.105,0.264,0.265,0.448,0.318c-0.001,0.079,0.025,0.105,0.104,0.158c-0.053,0.132,0.026,0.185,0.025,0.291v0.053
				c0,0.053-0.053,0.053-0.105,0.104c-0.001,0.133-0.133,0.185-0.134,0.343c-0.026,0.026-0.079,0.026-0.105,0.026
				c-0.026,0.105-0.08,0.185-0.133,0.264l-0.37,0.078c-0.079-0.001-0.158,0.052-0.264,0.078c-0.133-0.001-0.237-0.054-0.37-0.055
				l-0.264,0.025h-0.079c-0.105,0-0.185-0.053-0.264-0.054c-0.026,0-0.079,0-0.106,0.026c-0.079,0.079-0.079,0.158-0.08,0.29
				c0,0.079-0.026,0.158-0.027,0.237c0,0.185,0.052,0.37,0.052,0.555c-0.001,0.105-0.054,0.185-0.001,0.29
				c0.289,0.134,0.659,0.188,0.896,0.373c0.079,0,0.079-0.026,0.133-0.026c0.158,0.054,0.343,0.081,0.554,0.081
				c0.211,0.001,0.423-0.024,0.607-0.05c0.079,0,0.079,0.053,0.132,0.105c0.185,0.001,0.475-0.077,0.713-0.076
				c0.105,0,0.211,0.026,0.29,0.08c0.105-0.053,0.158,0.026,0.264,0.027h0.053c0.053,0.026,0.079,0.079,0.105,0.079
				c0.079,0.027,0.158,0.027,0.237,0.08c0.053,0.08,0.104,0.159,0.104,0.265c0.053,0.079,0.158,0.106,0.211,0.186
				c0.053,0.053,0.052,0.158,0.052,0.29c-0.001,0.106-0.001,0.212-0.054,0.291l-0.08,0.052c-0.053,0.079-0.186,0.264-0.317,0.316
				c-0.079,0.025-0.238,0.104-0.238,0.104l-0.132-0.001c-0.132,0-0.212,0.105-0.344,0.131c-0.079,0-0.132-0.026-0.185-0.026
				c-0.079-0.001-0.079,0.052-0.105,0.078c-0.159,0-0.265,0.132-0.45,0.184c-0.158,0.026-0.343-0.001-0.527,0.051
				c-0.106,0.026-0.291,0.052-0.423,0.052c-0.079,0-0.158-0.001-0.211-0.027c-0.026,0.026-0.132,0.026-0.159,0.079
				c-0.053-0.027-0.105-0.027-0.158-0.027c-0.105,0-0.211,0.025-0.316,0.025c-0.053,0-0.079-0.026-0.105-0.027
				c-0.079,0-0.079,0.026-0.159,0.026c-0.079,0.026-0.211,0.025-0.343,0.025l-0.369-0.002c-0.054,0.026-0.08,0.053-0.133,0.053
				c-0.079,0.026-0.158,0.025-0.237,0.025c-0.132,0-0.237-0.001-0.343-0.027l-0.133,0.079c-0.264-0.001-0.502,0.051-0.766,0.05
				c-0.079,0-0.158-0.001-0.264-0.027c-0.158-0.133-0.475-0.134-0.58-0.346c-0.132-0.026-0.184-0.158-0.315-0.186
				c-0.105-0.265-0.396-0.318-0.579-0.504c0-0.079-0.053-0.132-0.105-0.158c0-0.105-0.025-0.132-0.025-0.211
				c-0.105-0.08-0.185-0.186-0.263-0.292c-0.026-0.079,0-0.105,0-0.132c-0.079-0.105-0.184-0.265-0.184-0.423v-0.053
				c-0.184-0.265-0.103-0.739-0.286-1.004v-0.053c0-0.133-0.104-0.238-0.104-0.37l0.026-0.105c-0.078-0.133-0.104-0.265-0.104-0.423
				c0.027-0.369-0.05-0.818-0.075-1.268l0.003-0.634c0-0.211,0.054-0.396,0.055-0.58c0-0.132-0.025-0.265-0.025-0.396
				c0-0.079,0-0.132,0.027-0.211c-0.026-0.053,0.053-0.026,0.053-0.053c-0.052-0.343-0.129-0.792-0.128-1.215
				c0.001-0.105,0.027-0.185,0.054-0.29c0-0.026-0.053,0-0.079-0.026c0.001-0.316,0.029-0.713,0.03-1.056
				c0-0.079-0.025-0.159-0.025-0.238s0.026-0.132,0.08-0.185c0-0.026-0.079,0-0.053-0.079c0.054-0.422,0.082-0.845,0.083-1.24
				c0.054-0.053,0.133-0.079,0.159-0.132c-0.026-0.079-0.079,0.026-0.105-0.026c0.001-0.264,0.134-0.396,0.187-0.633
				c0.054-0.026,0.08-0.105,0.159-0.105c0.106-0.211,0.424-0.289,0.529-0.499c0.08-0.026,0.238-0.053,0.37-0.078
				c0.053,0,0.186-0.053,0.212-0.132c0.026,0.027,0.053,0.027,0.079,0.027c0.105,0,0.211-0.079,0.317-0.104
				c0.079-0.026,0.158-0.026,0.237-0.025c0.105,0,0.237,0.026,0.316,0.054c0.158-0.026,0.317-0.078,0.476-0.078
				c0.053,0.001,0.105,0.027,0.132,0.027c0.132,0,0.212-0.052,0.344-0.052l0.105,0.026c0.185,0.001,0.369-0.051,0.528-0.051h0.079
				l0.185,0.027H48.584z"/>
			<path fill="#FFFFFF" d="M57.639,99.099c0.237,0.011,0.363,0.148,0.521,0.155l0.079,0.004c0.13,0.059,0.204,0.167,0.389,0.176
				c0.022,0.08,0.153,0.112,0.202,0.194c0.026,0.001,0.054-0.024,0.105,0.004c0.103,0.084,0.391,0.124,0.383,0.309
				c-0.004,0.079-0.058,0.103-0.062,0.182c-0.006,0.132,0.124,0.19,0.115,0.375c-0.006,0.132-0.038,0.263-0.017,0.369l0.021,0.107
				c0.024,0.054-0.006,0.132,0.071,0.188c-0.058,0.104-0.063,0.209-0.067,0.314c-0.003,0.079-0.006,0.132-0.061,0.182
				c0.049,0.082,0.097,0.189,0.014,0.266c0.076,0.082,0.042,0.239,0.036,0.371s0.015,0.265,0.115,0.375
				c0.021,0.106-0.033,0.157-0.063,0.235c0.046,0.16,0.174,0.245,0.191,0.458c-0.005,0.105,0.042,0.239,0.037,0.345l-0.003,0.053
				c0.051,0.055,0.125,0.164,0.12,0.271c-0.001,0.026-0.028,0.052-0.029,0.078c0.051,0.028-0.005,0.105,0.019,0.157
				c0.05,0.081,0.127,0.111,0.147,0.244c-0.055,0.051-0.056,0.077-0.059,0.13c-0.003,0.079,0.045,0.187,0.065,0.32
				c-0.026-0.002-0.003,0.053-0.056,0.05l-0.016,0.343c-0.005,0.105-0.011,0.237,0.01,0.37c-0.003,0.079,0.103,0.084,0.126,0.138
				c-0.027,0.025-0.028,0.052-0.03,0.078c-0.007,0.158,0.147,0.245,0.193,0.405c-0.001,0.026-0.028,0.052-0.031,0.104
				c-0.002,0.053,0.074,0.108-0.008,0.185c-0.004,0.079,0.101,0.11,0.123,0.19l-0.005,0.105c-0.003,0.079-0.008,0.185,0.04,0.294
				c-0.03,0.077-0.109,0.074-0.112,0.153c0.022,0.08,0.098,0.163,0.093,0.267c-0.001,0.026-0.003,0.079-0.03,0.104
				c0.186-0.018,0.086-0.154,0.193-0.202l0.004-0.079c0.005-0.105,0.035-0.184,0.065-0.288c0.029-0.052,0.063-0.209,0.145-0.258
				c-0.024-0.054,0.03-0.104,0.008-0.185c0.17-0.257,0.163-0.68,0.435-0.853l0.004-0.079c0.006-0.132,0.063-0.234,0.118-0.285
				c0.092-0.26,0.208-0.492,0.425-0.614c0.057-0.104,0.166-0.178,0.225-0.308c0.031-0.104,0.143-0.231,0.252-0.306
				c0.09-0.233,0.307-0.355,0.445-0.508l0.001-0.024c0.005-0.105-0.074-0.108-0.069-0.214c0.025,0.027,0.052,0.028,0.079,0.001
				c0.137-0.1,0.349-0.116,0.536-0.161c0.053,0.003,0.056-0.076,0.108-0.074l0.053,0.002c0.185,0.009,0.348-0.09,0.506-0.082
				c0.053,0.002,0.131,0.032,0.183,0.061c0.054-0.023,0.133-0.021,0.212-0.017c0.105,0.005,0.236,0.037,0.313,0.094
				c0.237,0.011,0.421,0.045,0.521,0.182c0.211,0.01,0.257,0.17,0.385,0.255l-0.002,0.053c-0.008,0.158,0.039,0.293,0.086,0.427
				c0.235,0.063,0.252,0.275,0.405,0.389l-0.006,0.132c0.024,0.054,0.131,0.032,0.154,0.086c-0.001,0.026,0.024,0.054,0.023,0.08
				c0.128,0.085,0.146,0.271,0.273,0.383c-0.006,0.131-0.013,0.264,0.064,0.319c-0.055,0.051-0.005,0.105-0.01,0.211
				c0.104,0.058,0.098,0.189,0.2,0.247c0.015,0.265,0.113,0.428,0.293,0.542c0.122,0.217,0.19,0.457,0.396,0.599
				c-0.004,0.079,0.021,0.106-0.008,0.185c0.077,0.03,0.185,0.009,0.153,0.112c-0.08,0.023-0.079-0.003-0.104-0.031
				c0.022,0.081,0.043,0.214,0.036,0.372c0.18,0.113,0.389,0.176,0.376,0.439c-0.002,0.053,0.052,0.029,0.104,0.031
				c-0.002,0.053,0.074,0.109,0.021,0.133c0.024,0.054,0.077,0.057,0.1,0.137c0.048,0.108-0.012,0.264,0.146,0.297
				c0.057-0.103,0.063-0.234,0.094-0.339c0.029-0.052,0.005-0.105,0.01-0.211c0.031-0.104,0.114-0.18,0.12-0.312l0.002-0.053
				c0.003-0.053,0.058-0.104,0.085-0.128c0.004-0.079,0.006-0.132,0.061-0.156c0.028-0.052-0.024-0.054-0.023-0.08
				c0.003-0.053,0.057-0.077,0.11-0.101c0.003-0.053-0.05-0.056-0.021-0.106c0.088-0.182,0.072-0.42,0.21-0.546
				c-0.024-0.054-0.021-0.106-0.021-0.133c0.008-0.185,0.122-0.364,0.129-0.522l0.007-0.158c0.008-0.158,0.014-0.29,0.124-0.391
				l0.005-0.105c0.006-0.132,0.09-0.234,0.098-0.419l0.002-0.053c0.029-0.052,0.082-0.049,0.137-0.1
				c-0.049-0.081-0.044-0.187-0.039-0.292c0.01-0.211,0.072-0.446,0.16-0.627c0.002-0.053-0.024-0.054-0.051-0.055
				c0.029-0.052,0.03-0.078,0.033-0.131c0.011-0.237,0.154-0.495,0.191-0.731c0.002-0.053-0.021-0.106-0.019-0.186
				c0.005-0.105,0.037-0.236,0.069-0.367c0.037-0.235,0.101-0.471,0.163-0.68l0.012-0.264c0.03-0.077,0.032-0.13,0.088-0.181
				c-0.048-0.107,0.008-0.185,0.038-0.263c0.032-0.13,0.041-0.315,0.126-0.443l0.059-0.129c0.002-0.053,0.058-0.104,0.059-0.13
				l0.003-0.079c0.004-0.079-0.02-0.133-0.043-0.213c0.026,0.001,0.027-0.025,0.029-0.052c0.055-0.051,0.105,0.005,0.159-0.02
				c0.061-0.182,0.169-0.23,0.407-0.246c0.106-0.021,0.215-0.069,0.294-0.065c0.026,0.001,0.051,0.028,0.077,0.029
				c0.083-0.075,0.187-0.018,0.32-0.064c0.053,0.003,0.078,0.03,0.131,0.032c0.132,0.006,0.292-0.039,0.424-0.033
				c0.079,0.003,0.157,0.033,0.206,0.114l0.053,0.003c0.132,0.006,0.182,0.087,0.313,0.094l0.053,0.002
				c0.048,0.107,0.205,0.142,0.336,0.174c-0.03,0.078,0.048,0.107,0.098,0.163c0.026,0.001,0.082-0.05,0.105,0.005
				c0.076,0.082,0.178,0.166,0.28,0.224c-0.006,0.132,0.071,0.188,0.15,0.191c-0.027,0.025-0.005,0.105-0.033,0.157
				c0.105,0.005,0.098,0.163,0.176,0.193c-0.005,0.105-0.059,0.129-0.089,0.21c-0.002,0.053,0.077,0.057,0.1,0.137
				c0.021,0.133-0.085,0.128-0.115,0.203c-0.003,0.079,0.05,0.081,0.075,0.109c0.023,0.054-0.056,0.05-0.058,0.103
				c0.05,0.056,0.071,0.162,0.067,0.268c-0.003,0.053-0.033,0.131-0.062,0.182c-0.002,0.053,0.099,0.163-0.009,0.185
				c0.149,0.219,0.003,0.529,0.123,0.799c-0.056,0.05-0.088,0.181-0.165,0.153c-0.029,0.052,0.022,0.08,0.048,0.107
				c-0.03,0.078-0.062,0.183-0.066,0.285l-0.005,0.105c-0.055,0.051-0.086,0.155-0.141,0.205c0.024,0.027-0.004,0.079,0.021,0.133
				c-0.084,0.103,0.014,0.266-0.146,0.311c-0.032,0.131,0.014,0.292-0.122,0.365c-0.011,0.236-0.07,0.393-0.157,0.547
				c0.024,0.055,0.021,0.107,0.021,0.134c-0.011,0.237-0.228,0.359-0.365,0.485c-0.028,0.052,0.078,0.029,0.049,0.081
				c-0.085,0.129,0.012,0.344-0.153,0.469c0.022,0.106-0.033,0.157-0.062,0.209l-0.003,0.053c-0.003,0.079-0.061,0.182-0.064,0.261
				c-0.001,0.026-0.028,0.052-0.028,0.052c-0.004,0.079-0.008,0.158-0.037,0.236c0,0-0.028,0.025-0.029,0.052
				c-0.028,0.051-0.059,0.129-0.14,0.178c-0.031,0.104,0.016,0.239-0.119,0.286c0.103,0.083,0.044,0.213-0.039,0.288
				c0.023,0.055,0.101,0.11,0.099,0.163c-0.03,0.078-0.11,0.101-0.168,0.204c-0.026-0.001-0.003,0.053-0.03,0.078l-0.054,0.023
				c-0.027,0.025-0.004,0.079-0.005,0.105c-0.002,0.053-0.083,0.076-0.084,0.103l-0.01,0.211c-0.029,0.077-0.06,0.155-0.066,0.313
				l-0.057,0.077c-0.038,0.263-0.153,0.469-0.292,0.621c0.023,0.054,0.021,0.133,0.017,0.212c-0.24,0.068-0.229,0.412-0.472,0.507
				c-0.001,0.026,0.076,0.057-0.003,0.053c-0.112,0.153-0.197,0.282-0.386,0.353c-0.035,0.21-0.253,0.332-0.438,0.324
				c-0.108,0.074-0.165,0.15-0.324,0.17c-0.194,0.202-0.609,0.025-0.775,0.203c-0.265,0.014-0.582,0.026-0.846,0.015
				c-0.369-0.017-0.737-0.061-0.941-0.228c-0.078-0.03-0.184-0.035-0.263-0.039l-0.396-0.018c-0.132-0.006-0.264-0.012-0.339-0.095
				c-0.078-0.029-0.056,0.051-0.106,0.022c-0.078-0.03-0.129-0.086-0.234-0.09c-0.124-0.165-0.387-0.203-0.43-0.416
				c-0.053-0.003-0.078-0.03-0.131-0.032c0.001-0.026-0.025-0.028-0.022-0.081c-0.104-0.057-0.205-0.141-0.226-0.273
				c-0.101-0.11-0.229-0.195-0.248-0.355c-0.181-0.113-0.193-0.404-0.399-0.52c0.001-0.026,0.028-0.052,0.029-0.078
				c-0.123-0.19-0.165-0.43-0.29-0.595c-0.023-0.054,0.029-0.051,0.03-0.077c-0.126-0.138-0.169-0.352-0.213-0.564
				c-0.149-0.192-0.108-0.507-0.177-0.748c-0.046-0.16-0.145-0.323-0.139-0.455c0.002-0.026,0.004-0.079,0.031-0.104
				c-0.05-0.056-0.102-0.084-0.07-0.188c-0.296,0.119-0.111,0.709-0.436,0.853c-0.002,0.053,0.024,0.054,0.022,0.106
				c-0.056,0.051-0.058,0.104-0.061,0.156l0.015,0.265c-0.004,0.079-0.032,0.131-0.061,0.182c0.024,0.028,0.022,0.081,0.021,0.107
				c-0.009,0.185-0.199,0.308-0.285,0.462c-0.006,0.133-0.035,0.184-0.09,0.234l-0.003,0.053c-0.009,0.211-0.175,0.362-0.288,0.542
				c0.048,0.107-0.032,0.13-0.063,0.208l-0.005,0.105c-0.01,0.211-0.095,0.34-0.282,0.41c-0.004,0.079-0.058,0.104-0.062,0.183
				c-0.139,0.151-0.406,0.219-0.546,0.397c-0.241,0.068-0.506,0.083-0.773,0.15c-0.187,0.044-0.322,0.117-0.508,0.136L59.95,111.7
				c-0.268,0.067-0.399,0.062-0.795,0.044l-0.079-0.004c-0.079-0.003-0.155-0.06-0.234-0.063c-0.052-0.028-0.158-0.007-0.236-0.037
				c-0.105-0.005-0.208-0.089-0.34-0.095c-0.079-0.003-0.318,0.039-0.477,0.032c-0.132-0.007-0.235-0.063-0.367-0.07
				c-0.102-0.083-0.259-0.117-0.415-0.15c-0.024-0.054-0.075-0.109-0.154-0.112c-0.049-0.082-0.127-0.111-0.175-0.22
				c-0.079-0.004-0.103-0.058-0.182-0.061c-0.021-0.134-0.178-0.167-0.172-0.299c-0.128-0.085-0.229-0.195-0.302-0.331
				c0.002-0.053,0.028-0.051,0.03-0.104c-0.103-0.058-0.122-0.217-0.251-0.276c-0.018-0.212-0.115-0.375-0.109-0.507
				c0.003-0.079,0.032-0.13,0.061-0.182c0.002-0.026-0.079-0.004-0.104-0.031c-0.051-0.056,0.003-0.079-0.02-0.159
				c0,0-0.025-0.027-0.024-0.054c0.003-0.053,0.03-0.078,0.032-0.131c0.005-0.105-0.101-0.11-0.122-0.217
				c-0.073-0.136-0.013-0.292-0.086-0.427c0.002-0.053,0.056-0.077,0.058-0.104c-0.052-0.028-0.022-0.106,0.006-0.132
				c0.002-0.053-0.076-0.083-0.102-0.109c0.03-0.077-0.02-0.133-0.017-0.212c0.005-0.105,0.035-0.184,0.04-0.29l0.002-0.053
				c-0.021-0.106-0.047-0.134,0.01-0.209c0.002-0.053-0.078-0.03-0.076-0.083c0.053,0.002,0.056-0.051,0.082-0.051
				c-0.021-0.106-0.102-0.084-0.045-0.187c-0.024-0.027-0.05-0.056-0.103-0.058c-0.024-0.054-0.021-0.106-0.02-0.158
				c0.008-0.158,0.064-0.261,0.125-0.417c-0.024-0.054-0.076-0.082-0.1-0.138c0.003-0.079,0.092-0.287-0.039-0.319
				c0.003-0.053,0.082-0.049,0.084-0.102c0.002-0.026-0.053-0.002-0.05-0.055c-0.045-0.188-0.01-0.371-0.003-0.529
				c0.005-0.105,0.01-0.211-0.065-0.293c0.026,0.001,0.028-0.052,0.081-0.05c-0.021-0.106-0.146-0.271-0.141-0.402
				c0.003-0.053,0.031-0.104,0.061-0.156l-0.019-0.186c0.003-0.053,0.056-0.05,0.059-0.129c0.008-0.158-0.068-0.241-0.063-0.371
				c0.003-0.053,0.058-0.103,0.061-0.155c0.003-0.079-0.046-0.161-0.042-0.242c0.001-0.026,0.002-0.053,0.029-0.078
				c0.029-0.052-0.052-0.028-0.049-0.081c0.002-0.053,0.028-0.052,0.03-0.078c0.006-0.132-0.071-0.188-0.064-0.347
				c0.005-0.105,0.036-0.209,0.041-0.314l-0.151-0.166l0.003-0.053l-0.015-0.265c0.001-0.026,0.004-0.079,0.058-0.104
				c-0.023-0.08-0.043-0.213,0.039-0.288c0.004-0.079-0.074-0.109,0.008-0.155c-0.024-0.055-0.049-0.108-0.044-0.214
				c0.003-0.053,0.058-0.103,0.061-0.158c0.029-0.078,0.007-0.158,0.009-0.211c0.003-0.053,0.059-0.13,0.063-0.209
				c0.001-0.026,0.002-0.053-0.022-0.077c0.002-0.053,0.081-0.049,0.084-0.102c-0.047-0.135-0.07-0.215-0.065-0.323
				c0.005-0.105,0.036-0.21,0.042-0.342c0.053,0.003,0.08-0.022,0.105,0.005c0.056-0.051,0.059-0.13,0.139-0.152
				c0.081-0.022,0.187-0.018,0.267-0.041c0.107-0.048,0.165-0.15,0.323-0.144c0.053,0.002,0.08-0.022,0.082-0.049
				c0.13,0.032,0.237,0.01,0.292-0.04c0.026,0.001,0.052,0.028,0.104,0.031c0.105,0.005,0.213-0.043,0.263,0.038
				c0.108-0.074,0.266-0.041,0.428-0.113c0.053,0.003,0.134-0.046,0.213-0.043C57.538,98.989,57.615,99.044,57.639,99.099z"/>
			<path fill="#FFFFFF" d="M80.149,100.186c0.131,0.016,0.266,0.005,0.335,0.093c0.081-0.017,0.16-0.007,0.265,0.002
				c0.184,0.021,0.391,0.073,0.521,0.089c0.157,0.019,0.317,0.011,0.475,0.033c0.053,0.007,0.099,0.065,0.151,0.071
				c0.053,0.007,0.135-0.011,0.213-0.001c0.181,0.048,0.42,0.05,0.62,0.153c0.078,0.01,0.107-0.014,0.134-0.01
				c0.072,0.062,0.148,0.097,0.227,0.106l0.104,0.013c0.105,0.013,0.239,0.002,0.396,0.021l0.079,0.01
				c0.053,0.006,0.154,0.045,0.256,0.083c0.229,0.081,0.309,0.09,0.443,0.292c0.069,0.089,0.109,0.199,0.202,0.317
				c0.043,0.085,0.115,0.146,0.132,0.229l-0.012,0.317c-0.041,0.128-0.21,0.427-0.271,0.499c-0.063,0.072-0.209,0.188-0.291,0.205
				c-0.085,0.043-0.242,0.024-0.379,0.058c-0.056,0.021-0.138,0.037-0.216,0.027c-0.053-0.006-0.103-0.038-0.151-0.068
				c-0.144,0.09-0.383,0.088-0.618,0.06l-0.524-0.063c-0.21-0.025-0.502-0.033-0.79-0.067l-0.184-0.022
				c-0.075-0.035-0.128-0.042-0.262-0.031c-0.131-0.016-0.259-0.058-0.364-0.072c-0.104-0.013-0.187,0.004-0.291-0.009
				c-0.105-0.013-0.181-0.048-0.26-0.055c-0.078-0.009-0.131-0.016-0.189,0.03c0.021,0.056,0.014,0.108,0.008,0.161
				c-0.056,0.02-0.138,0.036-0.196,0.083c0.011,0.134-0.025,0.209-0.037,0.314c-0.013,0.104-0.092,0.096-0.127,0.171
				c0.022,0.029,0.022,0.029-0.007,0.053c0.023,0.029,0.076,0.035,0.073,0.062c0.028,0.429-0.143,0.967-0.035,1.405
				c-0.035,0.075-0.074,0.177-0.136,0.249c0.017,0.082,0.102,0.039,0.121,0.095c-0.013,0.104-0.024,0.21-0.061,0.285
				c0.043,0.085,0.057,0.192,0.044,0.298c-0.016,0.131-0.083,0.256-0.175,0.352c-0.009,0.078-0.045,0.153-0.051,0.206
				c-0.034,0.288-0.017,0.583-0.045,0.819c-0.009,0.078-0.016,0.131-0.051,0.206c0.096,0.092,0.165,0.18,0.23,0.294
				c0.157,0.019,0.318,0.011,0.449,0.025c0.104,0.013,0.206,0.051,0.282,0.087c0.134-0.011,0.294-0.019,0.426-0.001l0.259,0.058
				c0.069,0.088,0.253,0.109,0.292,0.221l0.105,0.013c0.145,0.123,0.23,0.293,0.408,0.367c-0.01,0.079,0.014,0.108,0.086,0.17
				c-0.068,0.125,0.004,0.187-0.008,0.292l-0.007,0.052c-0.006,0.053-0.059,0.047-0.117,0.093c-0.016,0.131-0.153,0.168-0.172,0.325
				c-0.029,0.023-0.082,0.017-0.108,0.014c-0.038,0.102-0.1,0.174-0.162,0.246l-0.376,0.035c-0.079-0.01-0.164,0.034-0.271,0.048
				c-0.131-0.016-0.229-0.081-0.361-0.097l-0.265-0.005l-0.079-0.01c-0.104-0.013-0.177-0.074-0.256-0.083
				c-0.026-0.004-0.078-0.01-0.107,0.014c-0.089,0.069-0.098,0.147-0.113,0.278c-0.01,0.079-0.045,0.154-0.055,0.233
				c-0.021,0.184,0.009,0.373-0.013,0.557c-0.013,0.104-0.075,0.177-0.035,0.288c0.273,0.166,0.634,0.262,0.848,0.474
				c0.079,0.009,0.082-0.017,0.135-0.011c0.15,0.071,0.331,0.119,0.541,0.145c0.209,0.024,0.422,0.023,0.609,0.02
				c0.078,0.009,0.072,0.062,0.118,0.12c0.184,0.021,0.481-0.022,0.717,0.006c0.105,0.012,0.207,0.051,0.279,0.113
				c0.111-0.04,0.154,0.045,0.259,0.058l0.053,0.006c0.049,0.032,0.069,0.088,0.096,0.091c0.075,0.036,0.154,0.046,0.227,0.107
				c0.043,0.085,0.086,0.17,0.073,0.274c0.043,0.085,0.145,0.124,0.188,0.208c0.047,0.059,0.034,0.164,0.019,0.295
				c-0.013,0.104-0.025,0.21-0.087,0.282l-0.085,0.043c-0.062,0.072-0.215,0.24-0.353,0.277c-0.081,0.017-0.248,0.076-0.248,0.076
				l-0.131-0.016c-0.131-0.016-0.223,0.08-0.356,0.091c-0.079-0.01-0.128-0.042-0.181-0.048c-0.078-0.01-0.085,0.043-0.114,0.065
				c-0.157-0.019-0.277,0.101-0.468,0.131c-0.16,0.008-0.341-0.041-0.53-0.01c-0.108,0.014-0.295,0.018-0.426,0.002
				c-0.078-0.01-0.157-0.019-0.206-0.051c-0.029,0.022-0.135,0.01-0.167,0.06c-0.05-0.032-0.102-0.039-0.154-0.045
				c-0.104-0.013-0.213,0.001-0.317-0.012c-0.053-0.006-0.076-0.035-0.102-0.038c-0.079-0.01-0.082,0.017-0.161,0.007
				c-0.081,0.017-0.213,0.001-0.344-0.015l-0.367-0.043c-0.056,0.02-0.085,0.043-0.137,0.036c-0.082,0.018-0.161,0.008-0.239-0.002
				c-0.131-0.016-0.236-0.028-0.338-0.066l-0.141,0.063c-0.262-0.031-0.504-0.007-0.767-0.038c-0.078-0.01-0.157-0.019-0.259-0.058
				c-0.142-0.149-0.456-0.188-0.536-0.409c-0.128-0.042-0.164-0.18-0.292-0.222c-0.074-0.274-0.356-0.361-0.518-0.566
				c0.009-0.079-0.037-0.138-0.086-0.17c0.013-0.104-0.011-0.134-0.002-0.213c-0.095-0.091-0.161-0.205-0.228-0.319
				c-0.017-0.082,0.013-0.105,0.016-0.131c-0.065-0.114-0.152-0.284-0.133-0.441l0.006-0.053c-0.152-0.284-0.018-0.747-0.17-1.03
				l0.007-0.053c0.016-0.131-0.077-0.248-0.062-0.38l0.039-0.102c-0.063-0.141-0.073-0.274-0.055-0.432
				c0.07-0.364,0.044-0.819,0.071-1.268l0.075-0.63c0.025-0.209,0.1-0.387,0.121-0.571c0.016-0.132,0.005-0.266,0.021-0.396
				c0.01-0.079,0.016-0.132,0.052-0.205c-0.021-0.056,0.056-0.021,0.059-0.046c-0.012-0.348-0.037-0.803,0.013-1.222
				c0.013-0.105,0.048-0.181,0.087-0.282c0.003-0.026-0.053-0.006-0.075-0.036c0.037-0.314,0.11-0.704,0.151-1.045
				c0.009-0.079-0.008-0.16,0.002-0.239c0.009-0.078,0.041-0.128,0.101-0.174c0.003-0.026-0.079-0.01-0.044-0.085
				c0.103-0.413,0.179-0.83,0.227-1.223c0.059-0.046,0.14-0.063,0.173-0.112c-0.018-0.082-0.082,0.017-0.103-0.039
				c0.031-0.262,0.179-0.377,0.259-0.607c0.056-0.02,0.092-0.095,0.17-0.086c0.13-0.197,0.454-0.238,0.584-0.436
				c0.082-0.017,0.242-0.024,0.376-0.034c0.053,0.006,0.19-0.031,0.226-0.106c0.023,0.029,0.049,0.032,0.075,0.035
				c0.105,0.013,0.22-0.054,0.327-0.067c0.082-0.017,0.161-0.007,0.239,0.002c0.104,0.013,0.232,0.055,0.309,0.091
				c0.16-0.008,0.324-0.042,0.481-0.022c0.052,0.006,0.102,0.038,0.128,0.042c0.131,0.016,0.216-0.028,0.347-0.012l0.102,0.038
				c0.184,0.022,0.373-0.009,0.53,0.011l0.079,0.009l0.181,0.048L80.149,100.186z"/>
			<path fill="#FFFFFF" d="M88.541,100.542c0.083-0.008,0.039,0.063,0.116,0.081c0.02,0.031,0.09-0.033,0.16,0.01
				c0.065,0.07,0.079,0.127,0.214,0.132c-0.012,0.051,0.033,0.089,0.016,0.166c0.154,0.036,0.188,0.125,0.336,0.187
				c0.014,0.058,0.059,0.096,0.13,0.139c-0.006,0.026,0.014,0.058,0.033,0.09c0.077,0.018,0.111,0.106,0.188,0.125
				c0.033,0.089,0.061,0.204,0.138,0.222c0.079,0.127,0.151,0.279,0.325,0.347c0.04,0.063,0.085,0.102,0.067,0.179l0.052,0.012
				c0.128,0.03,0.155,0.146,0.278,0.201c0.053,0.12,0.112,0.216,0.107,0.351l0.129,0.029c0.027,0.115,0.124,0.165,0.184,0.26
				l-0.019,0.077c-0.035,0.154,0.018,0.275,0.108,0.351l-0.018,0.077c0.085,0.102,0.149,0.171,0.12,0.299
				c-0.013,0.052-0.044,0.071-0.05,0.097c-0.005,0.135,0.017,0.275-0.013,0.404l-0.019,0.077c0.008,0.083,0.085,0.101,0.093,0.184
				c-0.125,0.188-0.199,0.388-0.253,0.619c-0.023,0.103-0.022,0.212-0.052,0.341c-0.042,0.18-0.033,0.371-0.049,0.558
				c-0.063,0.5-0.279,0.965-0.394,1.453c-0.036,0.154-0.046,0.314-0.005,0.487c-0.036,0.154-0.098,0.303-0.134,0.456
				c-0.012,0.052,0.027,0.115,0.01,0.192l-0.05,0.097c-0.013,0.052,0.008,0.083-0.005,0.135c0,0-0.025-0.006-0.031,0.02
				c-0.044,0.071-0.011,0.16-0.028,0.237c-0.044,0.071-0.107,0.111-0.145,0.156c0.027,0.115,0.08,0.235,0.056,0.339
				c-0.006,0.025-0.018,0.077-0.049,0.097c0.008,0.083-0.056,0.122,0.003,0.218c-0.006,0.025-0.012,0.051-0.044,0.071
				c0.021,0.031-0.023,0.103,0.054,0.12c-0.032,0.021-0.038,0.046-0.044,0.071c-0.048,0.206-0.081,0.117-0.1,0.193
				c-0.043,0.071,0.071,0.044,0.06,0.096c-0.05,0.097-0.067,0.174-0.086,0.251c-0.018,0.077-0.03,0.129,0.01,0.192
				c-0.012,0.052-0.063,0.04-0.102,0.085c-0.012,0.052,0.04,0.063,0.06,0.095l-0.03,0.129c-0.036,0.154-0.092,0.276-0.07,0.417
				c-0.006,0.025,0.02,0.031,0.014,0.058c0,0-0.043,0.071,0.008,0.084c0.014,0.057-0.037,0.045-0.05,0.096
				c0.048,0.146-0.054,0.231-0.007,0.378c-0.018,0.077-0.036,0.154-0.022,0.212c-0.006,0.025-0.051-0.012-0.063,0.039
				c0.009,0.192,0.292,0.258,0.518,0.338c-0.007,0.025-0.044,0.071-0.019,0.077c0.077,0.018,0.109-0.002,0.166-0.016
				c0.046,0.038,0.123,0.056,0.105,0.133c0.051,0.012,0.063-0.039,0.114-0.027c0.174,0.067,0.233,0.163,0.35,0.244
				c0.026,0.006,0.058-0.014,0.083-0.008c0.077,0.019,0.143,0.088,0.182,0.151c0.214,0.131,0.32,0.372,0.427,0.614
				c0.027,0.114,0.099,0.158,0.074,0.261c-0.03,0.129-0.072,0.309-0.122,0.406c-0.018,0.077-0.156,0.207-0.226,0.272
				c-0.032,0.02-0.083,0.008-0.115,0.027c-0.031,0.02-0.044,0.071-0.069,0.064l-0.241,0.106c-0.084,0.008-0.179,0.067-0.23,0.055
				c-0.083,0.008-0.211-0.021-0.294-0.014c-0.084,0.008-0.167,0.015-0.244-0.003c-0.134-0.004-0.251-0.086-0.386-0.09
				c-0.025-0.006-0.037,0.045-0.063,0.039c-0.128-0.029-0.294-0.015-0.423-0.044l-0.077-0.019c-0.046-0.037-0.039-0.063-0.065-0.069
				l-0.108,0.002c-0.129-0.03-0.22-0.105-0.342-0.161c-0.271-0.117-0.586-0.164-0.862-0.255c-0.181-0.042-0.386-0.091-0.554-0.184
				c-0.026-0.006-0.046-0.038-0.065-0.069l-0.108,0.001c-0.104-0.023-0.168-0.093-0.291-0.148c-0.058,0.014-0.02-0.032-0.045-0.038
				c-0.007,0.026-0.071-0.044-0.084,0.008c-0.084-0.101-0.213-0.131-0.304-0.206c-0.052-0.013-0.039-0.063-0.085-0.102
				c-0.025-0.006-0.077-0.018-0.097-0.05l-0.299-0.232c-0.07-0.043-0.122-0.056-0.161-0.119c-0.015-0.057-0.026-0.006-0.071-0.043
				c-0.071-0.044-0.079-0.127-0.208-0.157c0.013-0.052-0.064-0.069-0.136-0.113c-0.033-0.089-0.125-0.164-0.184-0.26
				c-0.01-0.191-0.146-0.305-0.187-0.477c-0.028-0.115,0.002-0.244-0.057-0.339c0.042-0.18-0.012-0.301,0.03-0.48
				c-0.021-0.141,0.026-0.347,0.057-0.476c0.012-0.051-0.039-0.063-0.027-0.114c0.018-0.077-0.002-0.109,0.056-0.123
				c-0.085-0.101,0.034-0.263-0.051-0.364l0.012-0.051c0.042-0.181,0.02-0.43,0.062-0.609c0.023-0.104,0.042-0.181,0.111-0.245
				l-0.065-0.068c0.018-0.077,0.056-0.123,0.073-0.2c0.007-0.025-0.014-0.058-0.007-0.083c0.012-0.052,0.069-0.065,0.075-0.091
				s-0.046-0.038-0.04-0.064l0.086-0.251l-0.002-0.108l0.019-0.077c0.036-0.154,0.092-0.277,0.038-0.397
				c0.013-0.051,0.044-0.07,0.076-0.091c0.012-0.051-0.071-0.043-0.034-0.089c0.03-0.128,0.098-0.303,0.134-0.457
				c0.019-0.076,0.036-0.153,0.022-0.213c0.004-0.134,0.034-0.263,0.064-0.392c0.012-0.051-0.034-0.089-0.021-0.14l0.018-0.077
				c0.03-0.129-0.023-0.25,0.013-0.404c0.013-0.051,0.044-0.071,0.056-0.122c-0.033-0.09,0.003-0.244,0.092-0.277
				c0.038-0.045-0.051-0.012-0.033-0.089c0.066-0.283,0.106-0.571,0.178-0.88l0.091-0.384c0.035-0.154,0.065-0.283,0.141-0.374
				c-0.014-0.058,0.056-0.122-0.009-0.193c0.087-0.143,0.032-0.372,0.14-0.483c-0.021-0.031-0.04-0.063-0.054-0.12
				c0.038-0.046,0.036-0.154,0.074-0.2c-0.021-0.141-0.012-0.301,0.03-0.48c0.048-0.206,0.128-0.432,0.15-0.643
				c0.012-0.052,0.083-0.008,0.095-0.06s-0.008-0.083-0.027-0.115c0.088-0.142,0.175-0.284,0.205-0.413
				c0.023-0.103,0.016-0.186-0.018-0.274c0.012-0.052,0.044-0.071,0.056-0.123c-0.014-0.058-0.027-0.114-0.009-0.189
				c0.012-0.051,0.062-0.147,0.079-0.225c0.012-0.052-0.008-0.084,0.004-0.138c0.07-0.065,0.107-0.11,0.126-0.188
				c0.196-0.145,0.406-0.23,0.596-0.349C87.883,100.225,88.227,100.495,88.541,100.542z"/>
		</g>
		<g>
			<path fill="#C3996B" d="M102.728,73.353c-0.833-0.359-1.492-1.063-2.388-1.289c-0.095-0.081-0.19-0.158-0.286-0.24
				c0.031-0.142,0.063-0.288,0.094-0.431c0.263-0.272,0.497-1.514,0.609-1.599c0,0,0.451-2.025,0.302-2.217l-0.003-0.004
				c-0.22-0.279-0.455-0.239-0.707-0.118c-0.236,0.066-0.491,0.146-0.727,0.213c-0.101,0.029-2.441,0.392-2.832,0.551
				c-0.078-0.383-2.86-2.377-3.373-3.117c-0.015-0.023-0.048-0.029-0.068-0.049c-0.773-0.743-1.066,0.598-1.07,0.638
				c-0.145,0.971-0.281,1.941-0.42,2.913c-0.026,0.1-0.052,0.196-0.076,0.298c-0.076,0.168-0.188,0.328-0.208,0.504
				c-0.042,0.326-0.258,0.43-0.511,0.522c-1.629-0.243-3.065,0.238-4.405,0.99c-0.801,0.301-0.472,0.716-0.341,0.782
				c0.784,0.388,1.41,0.961,2.07,1.524c0.128,0.108,1.158,1.071,1.553,1.469c-0.103,0.146-0.18,0.254-0.253,0.363
				c-0.723,0.815-0.807,1.886-1.134,2.9c-0.819,2.51,1.948,1.355,2.021,1.319c0.892-0.443,3.644-0.885,3.876-1.035
				c0.3,0.202,0.566,0.364,0.869,0.564c0.229,0.151,0.447,0.277,0.678,0.425c0.49,0.317,0.94,0.7,1.444,0.946
				c0.526,0.257,2.622,2.088,1.607-1.018c-0.166-0.505-0.208-1.05-0.199-1.569c0.009-0.46,0.102-0.917-0.072-1.403
				c0.343-0.072,0.628-0.134,0.911-0.194c0.581-0.113,1.175-0.177,1.735-0.348c0.607-0.19,1.215-0.431,1.657-0.927
				C103.351,74.561,103.483,73.678,102.728,73.353z"/>
			<path fill="#FAAF40" d="M102.728,73.353c-0.833-0.359-1.492-1.063-2.388-1.289c-0.095-0.081-0.19-0.158-0.286-0.24
				c0.031-0.142,0.063-0.288,0.094-0.431c0.263-0.272,0.497-1.514,0.609-1.599c0,0,0.451-2.025,0.302-2.217l-0.003-0.004
				c-0.22-0.279-0.455-0.239-0.707-0.118c-0.236,0.066-0.491,0.146-0.727,0.213c-0.101,0.029-2.441,0.392-2.832,0.551
				c-0.078-0.383-2.86-2.377-3.373-3.117c-0.015-0.023-0.048-0.029-0.068-0.049c-0.773-0.743-1.066,0.598-1.07,0.638
				c-0.145,0.971-0.281,1.941-0.42,2.913c-0.026,0.1-0.052,0.196-0.076,0.298c-0.076,0.168-0.188,0.328-0.208,0.504
				c-0.042,0.326-0.258,0.43-0.511,0.522c-1.629-0.243-3.065,0.238-4.405,0.99c-0.801,0.301-0.472,0.716-0.341,0.782
				c0.784,0.388,1.41,0.961,2.07,1.524c0.128,0.108,1.158,1.071,1.553,1.469c-0.103,0.146-0.18,0.254-0.253,0.363
				c-0.723,0.815-0.807,1.886-1.134,2.9c-0.819,2.51,1.948,1.355,2.021,1.319c0.892-0.443,3.644-0.885,3.876-1.035
				c0.3,0.202,0.566,0.364,0.869,0.564c0.229,0.151,0.447,0.277,0.678,0.425c0.49,0.317,0.94,0.7,1.444,0.946
				c0.526,0.257,2.622,2.088,1.607-1.018c-0.166-0.505-0.208-1.05-0.199-1.569c0.009-0.46,0.102-0.917-0.072-1.403
				c0.343-0.072,0.628-0.134,0.911-0.194c0.581-0.113,1.175-0.177,1.735-0.348c0.607-0.19,1.215-0.431,1.657-0.927
				C103.351,74.561,103.483,73.678,102.728,73.353z"/>
		</g>
	</g>
</g>
</svg>
