<?xml version="1.0" encoding="utf-8"?>
<!-- Generator: Adobe Illustrator 16.0.0, SVG Export Plug-In . SVG Version: 6.00 Build 0)  -->
<!DOCTYPE svg PUBLIC "-//W3C//DTD SVG 1.1//EN" "http://www.w3.org/Graphics/SVG/1.1/DTD/svg11.dtd">
<svg version="1.1" id="Layer_1" xmlns="http://www.w3.org/2000/svg" xmlns:xlink="http://www.w3.org/1999/xlink" x="0px" y="0px"
	 width="205.141px" height="108.846px" viewBox="0 0 205.141 108.846" enable-background="new 0 0 205.141 108.846"
	 xml:space="preserve">
<path fill="#999999" d="M15.621,70.203c0.475-0.56,0.325-1.212,0.261-1.84c-0.034-0.341-0.127-0.677-0.2-1.015
	c-0.243-1.104-0.963-1.971-1.707-2.7c-0.941-0.932-2.174-1.27-3.537-0.764c-0.835,0.312-1.686,0.6-2.404,1.114
	c-1.635,1.175-3.318,2.303-4.596,3.951c-0.478,0.515-0.996,1.043-1.483,1.601c-0.856,0.994-0.87,1.604-0.276,2.824
	c0.346,0.718,0.891,1.109,1.627,1.028c0.92-0.104,1.867-0.088,2.757-0.404c1.255-0.447,2.515-0.88,3.737-1.395
	c1.176-0.488,2.309-1.031,3.631-1.041C14.391,71.557,15.037,70.896,15.621,70.203z"/>
<path fill="#999999" d="M2.494,48.957c0.428,0.47,0.91,0.779,1.5,0.952c0.654,0.191,1.331,0.364,1.933,0.673
	c0.831,0.419,1.694,0.777,2.533,1.173c0.472,0.225,0.923,0.294,1.423,0.271c1.563-0.076,2.611-1.458,2.134-2.937
	c-0.328-1.02-0.854-1.978-1.193-2.993c-0.315-0.942-1.164-1.422-1.677-2.186c-0.668-0.991-1.578-1.15-2.713-0.879
	c-1.723,0.412-3.136,1.369-4.541,2.359c-0.237,0.166-0.407,0.424-0.613,0.635c-0.322,0.326-0.35,0.713-0.166,1.088
	C1.461,47.823,1.859,48.503,2.494,48.957z"/>
<g>
	<path fill="#999999" d="M197.047,88.913c-0.003-0.228-0.005-1.43-0.005-1.43l0.081-0.915c0.084-0.953-0.027-1.908-0.324-2.81
		c0.023-0.3,0.043-0.565,0.06-0.802c2.524-0.876,4.529-2.735,5.632-5.329c0.368-0.866,0.558-1.798,0.558-2.738
		c0-1.849-0.598-3.604-1.712-5.088c-0.015-0.022-0.03-0.045-0.045-0.068c1.591-1.298,2.562-2.8,3.128-3.949
		c0.475-0.963,0.722-2.021,0.722-3.096c0-3.483-1.917-6.513-5.259-8.312c-0.918-0.494-1.935-0.776-2.976-0.827
		c-1.497-0.073-3.104-0.198-4.91-0.381c-0.234-0.023-0.469-0.035-0.704-0.035c-0.424,0-0.836,0.021-1.236,0.061
		c-0.85-0.15-1.964-0.3-3.475-0.439c-0.215-0.02-0.429-0.029-0.643-0.029c-0.416,0-0.829,0.037-1.234,0.109
		c-0.548,0.006-1.086,0.098-1.615,0.229c-0.265-0.24-0.544-0.468-0.847-0.675c0.082-0.208,0.172-0.408,0.242-0.626
		c0.423-0.844,0.756-1.795,1.019-2.9l-0.012-0.004c0.508-1.688,0.67-3.459,0.792-4.796c0.02-0.212,0.029-0.425,0.029-0.638
		c0-0.122,0.113-0.242,0.107-0.361c0.039-0.413,0.174-0.841,0.174-1.289v-0.517c0-0.26-0.129-0.52-0.158-0.777
		c-0.092-0.827-0.207-1.37-0.229-1.639c-0.018-0.423-0.103-0.843-0.197-1.256c-0.568-2.492-0.988-4.802-1.223-6.864
		c-0.021-0.193-0.06-0.391-0.098-0.582c-0.739-3.711-3.804-6.307-7.44-6.307h-0.258c-0.892,0-1.716,0.104-2.473,0.285
		c-0.712-0.236-1.519-0.421-2.431-0.535c-0.29-0.036-0.582-0.054-0.873-0.054c-0.312,0-0.624,0.021-0.934,0.063
		c-2.282,0.309-3.852,1.118-4.938,2.098c-0.512,0.108-1.008,0.24-1.478,0.418c-1.594-0.887-3.117-1.146-4.352-1.146
		c-0.713,0-1.474,0.089-2.382,0.275c-1.22,0.227-2.418,0.794-3.436,1.693c-0.305-0.216-0.624-0.417-0.962-0.6
		c-0.921-0.497-1.941-0.781-2.986-0.832c-0.651-0.031-1.348-0.085-2.129-0.165c-0.236-0.024-0.474-0.036-0.711-0.036
		c-0.141,0-0.279,0.003-0.418,0.009c-0.436-0.064-0.922-0.121-1.476-0.172c-0.216-0.021-0.432-0.03-0.646-0.03
		c-0.312,0-0.621,0.021-0.928,0.062c-0.039,0.002-0.077,0.013-0.115,0.015c-1.365-1.029-3.329-1.894-6.093-1.894
		c-0.208,0-0.416,0.01-0.624,0.028c-0.144,0.013-0.254,0.021-0.328,0.026c-1.516,0.045-3.592,0.472-5.719,2.017
		c-0.813-0.276-1.676-0.421-2.593-0.421c-2.716,0-4.714,0.929-6.082,2.232c-0.591,0.426-1.077,0.922-1.478,1.391
		c-1.48-2.328-4.045-3.727-7.032-3.727h-0.207c-0.573,0-1.144,0.039-1.7,0.178c-0.594,0.148-1.156,0.527-1.683,0.769
		c-0.493-0.084-1,0.054-1.517,0.054c-0.008,0-0.043,0-0.052,0c-0.321,0-0.643-0.174-0.961-0.131
		c-0.821,0.047-1.634,0.099-2.43,0.351c-0.228,0.053-0.45,0.068-0.669,0.142c-0.906-0.273-1.87-0.447-2.882-0.447
		c-0.854,0-1.698,0.066-2.528,0.217c-1.361-1.326-3.186-2.131-5.188-2.131h-0.258c-0.892,0-1.716,0.104-2.473,0.285
		c-0.712-0.236-1.519-0.421-2.431-0.535c-0.29-0.036-0.582-0.054-0.873-0.054c-0.312,0-0.624,0.021-0.934,0.063
		c-7.149,0.963-7.355,6.839-7.355,7.506c0,0.089,0.002,0.178,0.005,0.267c0.063,1.652,0.114,3.341,0.151,5.044
		c0.003,0.146,0.011,0.292,0.023,0.438c0.228,2.698,0.606,4.551,1.243,6.036c0.016,0.042,0.114,0.084,0.131,0.126
		c-0.186,0.673-0.199,1.383-0.199,2.118v0.296l-0.111,0.352c-0.029,0.383-0.092,0.684-0.104,0.902
		c-0.199-0.317-0.405-0.642-0.46-1.029c-0.262-1.873-0.948-3.582-1.862-5.222c-0.385-0.695-0.701-1.387-0.504-2.207
		c0.082-0.333-0.072-0.596-0.252-0.858c-1.336-1.915-2.702-3.815-4.384-5.435c-2.588-2.499-5.487-4.549-8.818-6.002
		c-2.1-0.912-4.247-1.657-6.456-2.222c-2.507-0.641-5.064-1.054-7.676-0.907c-0.389,0.026-0.782,0.055-1.171,0.082
		c-0.202-0.173-0.421-0.198-0.663-0.097c-2.153,0.226-4.314,0.232-6.445,0.827c-2.115,0.589-4.121,1.363-6.041,2.394
		c-0.098,0.096-0.199,0.185-0.307,0.268c-0.189,0.067-0.381,0.143-0.57,0.213c-0.158,0.012-0.242,0.105-0.293,0.244
		c-0.193,0.08-0.389,0.161-0.582,0.247c-0.146,0-0.21,0.092-0.243,0.213c-0.106,0.05-0.216,0.096-0.321,0.143
		c-0.096,0.079-0.189,0.167-0.273,0.256c-0.1,0.051-0.195,0.096-0.296,0.139c-0.093,0.085-0.187,0.176-0.275,0.266
		c-0.097,0.05-0.194,0.094-0.293,0.14c-0.091,0.089-0.183,0.176-0.271,0.266c-0.096,0.05-0.195,0.098-0.294,0.148
		c-0.095,0.079-0.18,0.164-0.254,0.26c-0.106,0.056-0.213,0.109-0.316,0.167c-0.14,0.014-0.204,0.106-0.225,0.239
		c-0.201,0.163-0.399,0.324-0.598,0.486c-0.092,0.086-0.175,0.178-0.251,0.271c-0.194,0.181-0.387,0.355-0.58,0.533
		c-0.096,0.054-0.161,0.134-0.202,0.232c-0.506,0.282-0.768,0.791-1.138,1.198c-0.089,0.079-0.158,0.173-0.21,0.281l-0.101-0.033
		c-0.147,0.045-0.239,0.142-0.308,0.229c0,0-0.001,0.002-0.003,0.004l0.043,0.108c-0.083,0.106-0.132,0.253-0.217,0.364
		c-0.843,0.853-1.544,1.815-2.062,2.898c-0.076,0.095-0.139,0.206-0.195,0.316c-0.955,1.354-1.4,2.982-2.299,4.365
		c-0.592,0.915-1.007,1.906-1.379,2.925c-1.335,3.615-1.338,7.354-1.064,11.118c-0.348,0.646,0.014,1.255,0.099,1.874
		c-0.05,0.542,0.04,1.067,0.18,1.586c0.065,0.41,0.132,0.82,0.198,1.232c-0.133,0.544-0.023,1.058,0.228,1.547
		c0.321,1.985,0.502,3.997,1.514,5.807c0.27,0.484,0.452,1.048,0.548,1.601c0.194,1.084,0.503,2.106,1.234,2.961
		c0.102,0.118,0.211,0.242,0.255,0.389c0.347,1.073,1.203,1.775,1.933,2.541c0.459,0.483,0.96,0.938,1.34,1.487
		c0.603,0.885,1.416,1.498,2.348,1.967c1.383,0.69,2.709,1.515,4.288,1.731c0.239,0.029,0.465,0.218,0.687,0.347
		c0.273,0.16,0.566,0.254,0.885,0.253c1.08,0.322,2.156,0.646,3.242,0.959c0.143,0.038,0.314,0.045,0.457,0.004
		c0.211-0.06,0.42-0.087,0.627-0.11c0.15,0.263,0.295,0.522,0.454,0.791c0.158,0.512,0.339,1.035,0.562,1.571
		c-3.465,1.26-5.752,4.445-5.752,8.479v0.761c0,1.758,0.42,3.464,1.203,5.015c0.469,1.66,1.232,3.229,2.27,4.683
		c2.1,4.174,6.188,6.543,11.372,6.543c0.432,0,0.862-0.04,1.28-0.117c4.504-0.16,6.921-2.397,8.088-4.017
		c0.428-0.495,0.832-1.141,1.213-1.664c2.666,2.813,5.541,4.109,8.553,4.109c0.036,0,0.181,0,0.217,0
		c0.483,0,0.968,0.088,1.443-0.012c2.277-0.17,4.759-0.78,7.548-1.995c0.203-0.089,0.401-0.151,0.595-0.258
		c0.941-0.521,1.816-1.088,2.637-1.714c1.881,1.749,4.436,2.777,7.423,2.777c1.566,0,3.125-0.352,4.655-1.057
		c2.072,1.424,4.128,1.716,5.454,1.716c0.47,0,0.939-0.047,1.399-0.141c2.021-0.413,3.685-0.979,5.073-1.642
		c2.285,2.578,5.627,4.013,9.641,4.013c0.432,0,0.859-0.04,1.277-0.117c2.974-0.105,5.023-1.263,6.419-2.403
		c1.608,1.783,3.938,2.832,7.059,2.832h0.87c0.744,0,1.532,0.061,2.342-0.1c0.691-0.137,1.356-0.306,1.972-0.64
		c0.998-0.146,1.966-0.444,2.869-0.951c1.211,0.486,2.564,0.764,4.014,0.764c0.26,0,0.52-0.006,0.778-0.034
		c0.58-0.065,0.85-0.063,0.85-0.063c0.252,0,0.501-0.011,0.749-0.038c1.044-0.111,1.966-0.265,2.795-0.546
		c1.393,0.928,3.178,1.607,5.424,1.607h0.544c1.875,0,3.515-0.314,4.976-0.836c2.119-0.441,3.691-1.354,4.825-2.444
		c0.532,0.069,1.075,0.103,1.639,0.103c1.566,0,3.125-0.362,4.655-1.067c2.072,1.424,4.128,1.709,5.454,1.709
		c0.47,0,0.939-0.05,1.399-0.144c1.916-0.391,3.518-0.919,4.862-1.536c0.097,0.07,0.189,0.145,0.29,0.21
		c2.211,1.444,5.027,2.115,8.61,2.115c0.696,0,1.439-0.109,2.213-0.109c0.092,0,0.183,0,0.272,0c9.197,0,12.272-4.691,13.287-7.508
		c0.273-0.76,0.414-1.549,0.414-2.357C204.516,93.45,202.162,89.708,197.047,88.913z"/>
	<path fill="#999999" d="M77.417,7.254c-1.144,0.445-2.312,0.83-3.462,1.265c-2.308,0.881-4.52,1.961-6.61,3.285
		c-0.597,0.381-1.106,0.854-1.493,1.413c-0.892,1.306-1.376,2.707-0.822,4.324c0.326,0.945,0.824,1.789,1.306,2.642
		c0.288,0.513,0.787,0.877,1.325,1.157c1.713,0.886,3.199,0.569,4.454-0.958c0.435-0.53,0.925-1.02,1.071-1.741
		c0.088-0.443,0.424-0.772,0.724-1.101c0.532-0.58,1.073-1.154,1.608-1.731c0.002,0.002,0.004,0.002,0.008,0.005
		c0.603-0.651,1.283-1.246,1.794-1.963c0.685-0.951,1.423-1.893,1.785-3.036c0.294-0.935,0.399-1.938,1.097-2.713
		c0.133-0.151,0.057-0.394-0.125-0.518C79.25,7.028,78.377,6.877,77.417,7.254z"/>
	<path fill="#999999" d="M20.941,32.783c1.003-0.125,1.756-1.065,1.694-2.067c-0.087-1.385-0.378-2.724-1.036-3.97
		c-0.602-1.133-1.281-2.214-2.103-3.199c-0.347-0.414-0.515-0.988-1.001-1.265c-0.667-0.384-1.098-0.961-1.492-1.589
		c-0.365-0.576-0.458-0.614-1.074-0.416c-1.547,0.501-3.06,1.107-4.48,1.902c-0.549,0.309-1.092,0.655-1.536,1.142
		c-0.372,0.406-0.528,0.863-0.347,1.354c0.306,0.836,0.499,1.697,0.723,2.555c0.03,0.127,0.178,0.335,0.248,0.328
		c0.918-0.133,1.549,0.574,2.34,0.784c0.885,0.234,1.445,0.778,1.816,1.591c0.24,0.533,0.494,1.083,1.018,1.396
		C17.205,32.747,19.014,33.024,20.941,32.783z"/>
	<path fill="#999999" d="M32.141,8.686c-0.508-0.843-1.316-0.925-2.182-0.667c-1.133,0.332-2.26,0.696-3.375,1.098
		c-0.781,0.28-1.207,0.981-1.666,1.618c-0.103,0.142-0.125,0.39-0.092,0.569c0.229,1.268,0.484,2.523,1.599,3.383
		c0.349,0.272,0.641,0.616,0.976,0.905c0.346,0.297,0.604,0.637,0.773,1.063c0.4,1.012,1.039,1.894,1.58,2.829
		c0.875,1.513,2.276,1.934,3.833,2.125c0.498,0.061,0.986-0.021,1.356-0.441c0.127-0.143,0.287-0.291,0.462-0.358
		c0.648-0.239,0.846-0.787,0.981-1.375c0.2-0.882,0.195-1.767-0.088-2.628c-0.761-2.298-1.738-4.501-2.936-6.607
		C33.043,9.638,32.711,9.095,32.141,8.686z"/>
	<path fill="#999999" d="M18.369,90.52c0.732,0.637,1.481,0.703,2.306,0.297c0.312-0.15,0.623-0.316,0.881-0.534
		c1.312-1.113,2.729-2.08,4.183-2.99c0.285-0.183,0.563-0.394,0.813-0.623c0.798-0.726,1.216-1.608,1.303-2.707
		c0.072-0.915-0.112-1.75-0.381-2.595c-0.334-1.041-1.014-1.774-1.975-2.268c-0.525-0.27-1.069-0.505-1.557-0.831
		c-0.538-0.365-0.977-0.271-1.488,0.049c-0.766,0.477-1.319,1.172-2.027,1.812c-1.643,1.737-2.637,3.929-3.426,6.205
		C16.422,88.015,17.06,89.384,18.369,90.52z"/>
	<path fill="#999999" d="M51.369,3.86c-0.244-0.694-0.479-1.4-0.957-1.984c-0.779-0.958-2.236-1.379-3.196,0.046
		c-0.622,0.455-0.87,1.249-1.044,2.083c-0.254,1.217-0.285,2.427-0.049,3.663c0.338,1.787,0.631,3.584,0.889,5.384
		c0.224,1.604,1.023,2.85,2.254,3.837c1.201,0.973,2.688,0.512,3.175-0.954c0.153-0.467,0.247-0.957,0.445-1.403
		c0.585-1.306,0.64-2.681,0.491-4.045c-0.115-1.067-0.382-2.126-0.787-3.144C52.139,6.201,51.779,5.021,51.369,3.86z"/>
	<g>
		<g>
			<path fill="#FFFFFF" d="M47.441,107.522c-5.185,0-9.27-2.369-11.37-6.543c-1.037-1.454-1.795-3.022-2.265-4.683
				c-0.783-1.551-1.192-3.257-1.192-5.015v-0.761c0-4.034,2.276-7.22,5.741-8.479c-0.223-0.536-0.413-1.06-0.571-1.571
				c-2.156-3.627-3.426-6.777-3.868-9.598c-0.688-3.366-0.758-4.03-0.758-4.81v-1.196c0-0.161,0.005-0.321,0.014-0.48
				c-0.034-0.299-0.065-0.626-0.097-0.99c-0.069-0.813,0.004-1.631,0.217-2.418c1.089-4.037,3.305-6.279,5.111-7.488
				c2.938-2.217,6.232-3.341,9.799-3.341c4.126,0,9.924,1.792,14.112,10.331c0.138,0.282,0.257,0.572,0.355,0.869
				c0.524,1.572,0.823,3.685,1.001,7.064c0.007,0.122,0.01,0.244,0.01,0.367c0,0.633-0.163,4.972-4.521,7.067
				c0.027,0.073,0.054,0.146,0.08,0.219c0.137,0.377,0.241,0.766,0.312,1.161c0.111,0.627,0.39,1.828,1.08,3.986
				c0.092,0.286,0.165,0.578,0.219,0.874l0.093,0.506c0.564,3.088,0.564,3.088,0.564,3.796v0.761c0,0.846,0.108,2.159,0.19,3.074
				c0.077,0.871-0.009,1.748-0.254,2.587c-0.023,0.123-0.102,0.599-0.163,1.771c-0.038,0.735-0.192,1.46-0.457,2.147
				c-0.929,2.413-2.278,4.649-4.017,6.657c-1.167,1.619-3.584,3.856-8.088,4.017C48.301,107.482,47.873,107.522,47.441,107.522z"/>
			<path fill="#FFFFFF" d="M66.572,106.109c-3.076,0-6.012-1.487-8.726-4.42c-0.15-0.162-0.293-0.332-0.428-0.508
				c-1.505-1.974-2.864-4.437-4.155-7.53c-0.071-0.17-0.136-0.343-0.193-0.519c-1.184-3.62-1.76-7.675-1.76-12.395
				c0-1.867,0.473-11.455,0.761-17.136v-1.562c0-4.58,2.792-8.053,6.843-8.805c1.242-0.419,2.511-0.65,3.787-0.689
				c0.418-0.076,0.84-0.114,1.262-0.114c0.018,0,0.091,0,0.108,0c1.51,0,2.953,0.306,4.275,0.885c1.11-0.902,2.545-1.637,4.356-2.09
				c0.555-0.138,1.124-0.208,1.695-0.208h0.435c4.379,0,7.883,2.376,9.261,6.235c0.972,2.302,1.856,5.396,2.701,9.444
				c0.021,0.103,0.04,0.205,0.058,0.309l0.652,4.021c0.086,0.535,0.11,1.078,0.072,1.618l-0.08,1.129
				c0.063,1.565,0.098,2.907,0.098,3.81c0,2.145-0.372,4.612-1.136,7.524c-0.121,2.191-0.255,3.871-0.407,5.119
				c-0.179,1.464-0.514,2.661-0.948,3.64c-1.559,4.072-4.57,7.433-8.729,9.734c-0.193,0.106-0.392,0.204-0.595,0.293
				c-2.789,1.215-5.271,1.894-7.548,2.063c-0.476,0.101-0.96,0.15-1.443,0.15C66.753,106.109,66.608,106.109,66.572,106.109z"/>
			<path fill="#FFFFFF" d="M96.544,105.294c-1.326,0-3.382-0.289-5.454-1.713c-1.53,0.705-3.089,1.061-4.655,1.061
				c-6.361,0-10.805-4.577-10.805-11.131c0-0.162,0.006-0.324,0.017-0.486c0.188-2.696,0.263-3.941,0.291-4.497
				c-0.371-2.784-0.416-4.006-0.416-4.691c0-0.527,0.051-1.025,0.134-1.582c-0.039-0.456-0.033-0.915,0.018-1.37
				c0.063-0.562,0.066-0.899,0.066-0.961c0-0.316-0.059-1.008-0.175-2.054c-0.052-0.462-0.057-0.927-0.016-1.39
				c0.36-4.074,0.633-7.858,0.833-11.555c-0.065-1.238-0.1-2.286-0.1-3.047c0-6.001,3.111-8.56,5.904-9.39
				c1.169-0.434,2.447-0.653,3.813-0.653c2.935,0,5.128,0.441,6.761,1.141c1.323-1.524,3.356-2.691,6.177-3.044
				c0.288-0.036,0.578-0.054,0.868-0.054h0.543c4.957,0,7.872,3.077,8.573,6.541c0.112,0.404,0.202,0.838,0.265,1.301
				c0.041,0.297,0.078,0.635,0.114,1.029c0.37,0.901,0.623,1.664,0.794,2.381c0.148,0.627,0.211,1.272,0.183,1.916l-0.185,4.336
				c0.201,1.288,0.3,2.733,0.3,4.389v0.108c0,0.938-0.07,1.803-0.212,2.606c0.068,0.769,0.104,1.604,0.104,2.503v0.108
				c0,1.24-0.079,2.317-0.246,3.28c0.019,0.274,0.028,0.522,0.028,0.742c0,3.062-0.122,5.213-0.397,6.838
				c0.047,0.961,0.071,1.743,0.071,2.293c0,0.557-0.046,1.136-0.284,2.61l0.05,0.692c0.012,0.167,0.018,0.335,0.018,0.502
				c0,3.262-1.504,9.041-11.58,11.098C97.483,105.246,97.014,105.294,96.544,105.294z"/>
			<path fill="#FFFFFF" d="M112.657,107.522c-5.185,0-9.27-2.369-11.37-6.543c-1.037-1.454-1.795-3.022-2.265-4.683
				c-0.783-1.551-1.192-3.257-1.192-5.015v-0.761c0-4.034,2.276-7.22,5.741-8.479c-0.223-0.536-0.413-1.06-0.571-1.571
				c-2.156-3.627-3.426-6.777-3.868-9.598c-0.688-3.366-0.758-4.03-0.758-4.81v-1.196c0-0.161,0.005-0.321,0.014-0.48
				c-0.034-0.299-0.065-0.626-0.097-0.99c-0.069-0.813,0.004-1.631,0.217-2.418c1.089-4.037,3.305-6.279,5.111-7.488
				c2.938-2.217,6.232-3.341,9.799-3.341c4.126,0,9.924,1.792,14.112,10.331c0.138,0.282,0.257,0.572,0.355,0.869
				c0.524,1.572,0.823,3.685,1.001,7.064c0.007,0.122,0.01,0.244,0.01,0.367c0,0.633-0.163,4.972-4.521,7.067
				c0.027,0.073,0.054,0.146,0.08,0.219c0.137,0.377,0.241,0.766,0.312,1.161c0.111,0.627,0.39,1.828,1.08,3.986
				c0.092,0.286,0.165,0.578,0.219,0.874l0.093,0.506c0.564,3.088,0.564,3.088,0.564,3.796v0.761c0,0.846,0.108,2.159,0.19,3.074
				c0.077,0.871-0.009,1.748-0.254,2.587c-0.023,0.123-0.102,0.599-0.163,1.771c-0.038,0.735-0.192,1.46-0.457,2.147
				c-0.929,2.413-2.278,4.649-4.017,6.657c-1.167,1.619-3.584,3.856-8.088,4.017C113.517,107.482,113.089,107.522,112.657,107.522z"
				/>
			<path fill="#FFFFFF" d="M127.412,108.12c-4.592,0-9.523-3.151-9.813-10.05c-0.521-3.313-0.774-6.872-0.774-10.864
				c0-0.486,0.051-0.972,0.151-1.446c0.048-0.49,0.175-2.413,0.175-8.989V76.01c0-1.438,0.17-3.484,0.567-6.819
				c0.206-3.472,0.272-4.889,0.293-5.467l-0.381-3.334c-0.03-0.264-0.045-0.528-0.045-0.794c0-1.191,0.416-7.191,8.637-8.345
				c0.322-0.046,0.647-0.068,0.973-0.068c0.26,0,0.521,0.011,0.781,0.032c0.278-0.021,0.561-0.032,0.849-0.032
				c0.862,0,1.684,0.104,2.455,0.301c1.31-1.249,3.36-2.3,6.566-2.65c0.253-0.028,0.507-0.042,0.762-0.042h0.762
				c5.068,0,7.558,2.234,8.763,4.164c1.492,2.088,1.86,4.737,1.922,7.414c0.519,2.025,0.771,3.771,0.771,5.313
				c0,0.573-0.053,1.143-0.18,2.255c0.103,1.167,0.226,2.863,0.341,5.183c0.108,0.509,0.165,1.039,0.165,1.585
				c0,0.415-0.037,0.829-0.11,1.237c-0.2,1.116-0.353,1.967-0.457,2.556c0.016,0.189,0.024,0.377,0.024,0.556
				c0,0.596-0.027,1.232-0.083,1.9c0.056,0.81,0.083,1.652,0.083,2.557c0,0.484-0.051,0.968-0.15,1.442l-0.159,0.758
				c0.135,0.938,0.201,1.792,0.201,2.582v1.522c0,1.098-0.072,2.055-0.225,2.914c0.005,0.116,0.007,0.231,0.007,0.347
				c0,1.08-0.038,2.073-0.113,2.97c0.147,0.767,0.222,1.554,0.222,2.356v0.218c0,3.34-2.235,7.48-8.536,8.155
				c-0.248,0.026-0.497,0.04-0.746,0.04c-0.003,0-0.272,0.001-0.853,0.066c-0.259,0.028-0.519,0.043-0.778,0.043
				c-1.449,0-2.803-0.259-4.014-0.745c-0.903,0.507-1.871,0.841-2.869,0.986c-0.615,0.334-1.28,0.574-1.972,0.712
				c-0.81,0.16-1.598,0.242-2.342,0.242H127.412z"/>
			<path fill="#FFFFFF" d="M150.074,107.713c-3.979,0-6.562-1.9-7.949-4.134c-1.851-2.394-1.977-5.35-1.984-6.724l-0.633-8.331
				c-0.014-0.177-0.021-0.354-0.021-0.53c0-0.643,0.055-1.546,0.204-3.653l-0.194-3.696c-0.015-0.281-0.013-0.564,0.007-0.846
				c0.153-2.243,0.462-5.022,0.776-7.705c0.052-0.689,0.076-1.514,0.076-2.579v-0.979c0-0.896,0.151-2.11,0.757-3.379
				c-0.791-1.262-1.127-2.455-1.263-3.107c-0.021-0.105-0.041-0.211-0.058-0.316l-0.3-1.875c-0.143-0.892-0.111-1.802,0.092-2.681
				c0.384-1.661,1.144-3.265,2.259-4.769c0.87-1.173,2.085-2.045,3.476-2.493c2.262-0.729,4.666-1.098,7.146-1.098
				c7.764,0,11.239,4.88,11.239,9.717c0,2.407-0.852,4.696-2.537,6.833c0.435,0.847,0.761,1.774,0.966,2.771
				c0.479,2.049,0.702,3.629,0.702,4.962c0,0.411-0.034,0.803-0.092,1.179c0.062,0.464,0.092,0.94,0.092,1.431v0.543
				c0,0.987-0.109,1.964-0.326,2.919v0.56c0,0.632-0.055,1.575-0.31,4.021c0.023,0.253,0.08,0.748,0.218,1.59
				c0.109,0.672,0.121,1.355,0.033,2.03c-0.152,1.181-0.285,2.069-0.389,2.663c-0.004,0.025-0.009,0.05-0.013,0.075l0.751,7.513
				c0.023,0.232,0.035,0.465,0.035,0.697v0.543c0,3.109-1.92,6.964-7.242,8.072c-1.461,0.521-3.101,0.776-4.976,0.776H150.074z"/>
			<path fill="#FFFFFF" d="M172.167,105.294c-1.326,0-3.382-0.289-5.454-1.713c-1.53,0.705-3.089,1.061-4.655,1.061
				c-6.361,0-10.805-4.577-10.805-11.131c0-0.162,0.006-0.324,0.017-0.486c0.188-2.696,0.263-3.941,0.291-4.497
				c-0.371-2.784-0.416-4.006-0.416-4.691c0-0.527,0.051-1.025,0.134-1.582c-0.039-0.456-0.033-0.915,0.018-1.37
				c0.063-0.562,0.066-0.899,0.066-0.961c0-0.316-0.059-1.008-0.175-2.054c-0.052-0.462-0.057-0.927-0.016-1.39
				c0.36-4.074,0.633-7.858,0.833-11.555c-0.065-1.238-0.1-2.286-0.1-3.047c0-6.001,3.111-8.56,5.904-9.39
				c1.169-0.434,2.447-0.653,3.813-0.653c2.935,0,5.128,0.441,6.761,1.141c1.323-1.524,3.356-2.691,6.177-3.044
				c0.288-0.036,0.578-0.054,0.868-0.054h0.543c4.957,0,7.872,3.077,8.573,6.541c0.112,0.404,0.202,0.838,0.265,1.301
				c0.041,0.297,0.078,0.635,0.114,1.029c0.37,0.901,0.623,1.664,0.794,2.381c0.148,0.627,0.211,1.272,0.183,1.916l-0.185,4.336
				c0.201,1.288,0.3,2.733,0.3,4.389v0.108c0,0.938-0.07,1.803-0.212,2.606c0.068,0.769,0.104,1.604,0.104,2.503v0.108
				c0,1.24-0.079,2.317-0.246,3.28c0.019,0.274,0.028,0.522,0.028,0.742c0,3.062-0.122,5.213-0.397,6.838
				c0.047,0.961,0.071,1.743,0.071,2.293c0,0.557-0.046,1.136-0.284,2.61l0.05,0.692c0.012,0.167,0.018,0.335,0.018,0.502
				c0,3.262-1.504,9.041-11.58,11.098C173.106,105.246,172.637,105.294,172.167,105.294z"/>
			<path fill="#FFFFFF" d="M187.329,105.975c-3.583,0-6.399-0.702-8.61-2.146c-1.538-1.005-2.62-2.574-3.011-4.369
				c-0.9-4.126-1.356-8.222-1.356-12.171c0-0.993,0.052-2.151,0.161-3.592c-0.12-0.744-0.246-1.773-0.358-3.237
				c-0.03-0.393-0.027-0.786,0.009-1.178l0.146-1.579c-0.073-0.83-0.113-1.884-0.17-3.354c-0.01-0.27-0.005-0.54,0.016-0.809
				l0.434-5.579c-0.086-0.503-0.128-0.984-0.128-1.462v-0.407c0-0.209,0.005-0.415,0.016-0.619
				c-0.144-0.751-0.164-1.525-0.055-2.294c0.036-0.255,0.039-0.414,0.039-0.457v-2.146c0-2.155,0.896-6.101,6.891-8.308
				c0.754-0.278,1.55-0.424,2.354-0.432c0.405-0.072,0.818-0.109,1.234-0.109c0.214,0,0.428,0.01,0.643,0.029
				c1.511,0.14,2.625,0.289,3.475,0.439c0.4-0.04,0.813-0.061,1.236-0.061c0.235,0,0.47,0.012,0.704,0.035
				c1.807,0.183,3.413,0.308,4.91,0.381c1.041,0.051,2.058,0.333,2.976,0.827c3.342,1.799,5.259,4.828,5.259,8.312
				c0,1.074-0.247,2.133-0.722,3.096c-0.566,1.149-1.537,2.651-3.128,3.949c0.015,0.023,0.03,0.046,0.045,0.068
				c1.114,1.484,1.712,3.239,1.712,5.088c0,0.94-0.189,1.872-0.558,2.738c-1.103,2.594-3.107,4.453-5.632,5.329
				c-0.017,0.236-0.036,0.502-0.06,0.802c0.297,0.901,0.408,1.856,0.324,2.81l-0.081,0.915c0,0,0.002,1.202,0.005,1.43
				c5.115,0.795,7.469,4.553,7.469,8.071c0,0.809-0.141,1.612-0.414,2.373c-1.015,2.815-4.09,7.539-13.287,7.539
				c-0.09,0-0.181,0-0.272-0.001C188.769,105.947,188.025,105.975,187.329,105.975z"/>
		</g>
		<g>
			<path fill="#FFFFFF" d="M56.029,63.563c0.299,0.896,0.516,2.636,0.651,5.218c0,0.788-1.087,1.195-3.261,1.195
				c-1.44-0.299-2.392-0.733-2.826-1.305c-0.299-0.489-0.652-1.576-1.087-3.261c-1.386-1.821-2.419-2.718-3.044-2.718v0.761
				c0,1.033,0.408,2.637,1.196,4.783c2.337,4.049,3.994,7.446,5,10.218c0.218,1.224,0.652,2.854,1.305,4.893
				c0.353,1.929,0.543,2.962,0.543,3.043v0.761c0,0.951,0.082,2.175,0.218,3.696c-0.218,0.707-0.354,1.821-0.435,3.37
				c-0.68,1.767-1.686,3.396-3.044,4.892c-0.462,0.869-1.468,1.305-3.044,1.305c-0.407,0-0.68,0.026-0.761,0.108
				c-2.718,0-4.484-1.06-5.326-3.152c-0.897-1.114-1.495-2.364-1.739-3.696c-0.517-0.733-0.762-1.549-0.762-2.392v-0.761
				c0-1.386,0.734-2.065,2.175-2.065c0-0.136,0.244-0.19,0.761-0.217c1.631,0,2.907,1.386,3.805,4.13
				c0.489,1.821,0.951,2.908,1.413,3.262h0.108c0.218-1.25,0.354-2.337,0.435-3.262c-0.189-2.717-0.57-4.782-1.087-6.195v-1.305
				c-0.407-0.245-0.815-1.305-1.195-3.152c-0.951-1.604-1.522-2.962-1.739-4.022c-2.011-3.233-3.18-5.924-3.479-8.044
				c-0.435-2.119-0.652-3.315-0.652-3.587v-1.196c0-0.163,0.027-0.299,0.108-0.435c-0.054-0.136-0.136-0.68-0.217-1.631
				c0.462-1.712,1.277-2.907,2.392-3.587c1.766-1.386,3.668-2.065,5.761-2.065C51.327,57.149,53.937,59.297,56.029,63.563z"/>
			<path fill="#FFFFFF" d="M74.833,58.02c1.468,0,2.364,0.57,2.718,1.739c0.788,1.793,1.604,4.593,2.392,8.37l0.652,4.021
				l-0.108,1.522c0.081,1.902,0.108,3.206,0.108,3.913c0,1.657-0.354,3.777-1.087,6.413c-0.245,4.783-0.544,7.175-0.87,7.175
				c-0.951,2.636-2.854,4.756-5.652,6.305c-2.31,1.006-4.267,1.522-5.87,1.522h-0.108l-0.218,0.108v-0.108l-0.217,0.108
				c-1.061,0-2.256-0.734-3.588-2.174c-1.141-1.495-2.229-3.506-3.261-5.979c-0.951-2.907-1.413-6.305-1.413-10.218
				c0-1.142,0.244-6.794,0.761-16.958v-1.739c0-1.304,0.517-1.956,1.521-1.956c0.815-0.354,1.658-0.544,2.501-0.544h0.651
				l0.218-0.108v0.108c0.082,0,0.108-0.027,0.108-0.108c1.413,0,2.527,0.679,3.37,2.065c0.299,1.032,0.435,1.82,0.435,2.392
				c-0.136,1.685-0.217,2.771-0.217,3.261c0,0.407,0.217,1.794,0.652,4.131c-0.082,1.739-0.19,3.125-0.326,4.131l0.217,2.718
				l-0.108,0.217c0,0.163,0.027,0.299,0.108,0.435c-0.081,0.951-0.108,1.713-0.108,2.283v1.631c0,1.114,0.136,2.663,0.435,4.674
				H68.42c0.136,0.87,0.326,1.658,0.543,2.392c0.408-0.381,0.979-2.527,1.739-6.413c0-0.463,0.326-2.365,0.979-5.653
				c0.299-1.44,0.462-4.646,0.544-9.565c0.081,0,0.136-0.435,0.217-1.305c-0.081-0.896-0.162-1.386-0.217-1.521h0.108
				c-0.136-0.381-0.217-1.224-0.217-2.501v-2.717c0-1.006,0.761-1.686,2.282-2.065H74.833z"/>
			<path fill="#FFFFFF" d="M100.349,56.878c1.169,0,1.739,0.407,1.739,1.195c0.109,0,0.218,0.788,0.326,2.392
				c0.436,0.951,0.734,1.712,0.87,2.283l-0.218,5.108c0.218,1.033,0.326,2.338,0.326,3.914v0.108c0,0.924-0.108,1.658-0.326,2.174
				c0.136,0.707,0.218,1.686,0.218,2.936v0.108c0,1.277-0.108,2.201-0.326,2.826c0.081,0.625,0.108,1.033,0.108,1.196
				c0,3.125-0.136,5.218-0.435,6.305c0.081,1.44,0.108,2.364,0.108,2.826c0,0.244-0.108,1.006-0.326,2.282l0.109,1.522
				c0,2.011-1.984,3.424-5.979,4.239c-1.141,0-2.146-0.761-3.043-2.283c-0.299-1.168-1.006-3.505-2.175-6.957l-1.63-5.761h-0.109
				c-0.081,0.733-0.108,1.277-0.108,1.631v0.435c0.136,3.805,0.218,5.897,0.218,6.305c-0.163,3.044-0.354,4.701-0.544,5
				c-0.979,0.652-1.875,0.979-2.718,0.979c-2.527,0-3.805-1.386-3.805-4.131c0.218-3.125,0.326-4.919,0.326-5.326
				c-0.299-2.146-0.435-3.587-0.435-4.349c0-0.244,0.082-0.733,0.218-1.521l-0.109-0.652c0.082-0.733,0.109-1.331,0.109-1.739
				c0-0.68-0.082-1.604-0.218-2.826c0.354-3.995,0.652-8.044,0.87-12.175c-0.082-1.468-0.109-2.473-0.109-3.044
				c0-1.82,0.354-2.717,1.087-2.717c0.436-0.218,0.979-0.326,1.631-0.326c2.908,0,4.349,0.326,4.349,0.978
				c0.108,0.462,0.57,1.142,1.413,2.065c0.326,0.599,0.652,1.44,0.979,2.5c0.733,0.815,1.087,1.984,1.087,3.479
				c0.869,0.843,1.304,2.147,1.304,3.914c0.571,0.788,1.061,2.636,1.413,5.544c0.218,0.054,0.326,0.462,0.326,1.195h0.109
				c0-0.517,0.189-2.582,0.543-6.196c0-1.875,0.027-2.962,0.109-3.261c-0.082-0.354-0.109-0.843-0.109-1.413v-0.652
				c0-0.381,0.027-0.707,0.109-0.979c-0.082-0.38-0.109-0.733-0.109-1.087v-1.413c0.218-1.604,0.326-2.663,0.326-3.152v-2.283
				c0-0.625,0.652-1.032,1.957-1.195H100.349z M96.762,78.944v0.326h0.108v-0.326H96.762z"/>
			<path fill="#FFFFFF" d="M121.245,63.563c0.299,0.896,0.516,2.636,0.651,5.218c0,0.788-1.087,1.195-3.261,1.195
				c-1.44-0.299-2.392-0.733-2.826-1.305c-0.299-0.489-0.652-1.576-1.087-3.261c-1.386-1.821-2.419-2.718-3.044-2.718v0.761
				c0,1.033,0.408,2.637,1.196,4.783c2.337,4.049,3.994,7.446,5,10.218c0.218,1.224,0.652,2.854,1.305,4.893
				c0.353,1.929,0.543,2.962,0.543,3.043v0.761c0,0.951,0.082,2.175,0.218,3.696c-0.218,0.707-0.354,1.821-0.435,3.37
				c-0.68,1.767-1.686,3.396-3.044,4.892c-0.462,0.869-1.468,1.305-3.044,1.305c-0.407,0-0.68,0.026-0.761,0.108
				c-2.718,0-4.484-1.06-5.326-3.152c-0.897-1.114-1.495-2.364-1.739-3.696c-0.517-0.733-0.762-1.549-0.762-2.392v-0.761
				c0-1.386,0.734-2.065,2.175-2.065c0-0.136,0.244-0.19,0.761-0.217c1.631,0,2.907,1.386,3.805,4.13
				c0.489,1.821,0.951,2.908,1.413,3.262h0.108c0.218-1.25,0.354-2.337,0.435-3.262c-0.189-2.717-0.57-4.782-1.087-6.195v-1.305
				c-0.407-0.245-0.815-1.305-1.195-3.152c-0.951-1.604-1.522-2.962-1.739-4.022c-2.011-3.233-3.18-5.924-3.479-8.044
				c-0.435-2.119-0.652-3.315-0.652-3.587v-1.196c0-0.163,0.027-0.299,0.108-0.435c-0.054-0.136-0.136-0.68-0.217-1.631
				c0.462-1.712,1.277-2.907,2.392-3.587c1.766-1.386,3.668-2.065,5.761-2.065C116.543,57.149,119.152,59.297,121.245,63.563z"/>
			<path fill="#FFFFFF" d="M139.37,55.791c1.657,0,2.636,0.354,2.935,1.087c0.517,0.462,0.761,1.957,0.761,4.457
				c0.517,1.82,0.761,3.288,0.761,4.348c0,0.299-0.081,1.006-0.217,2.174c0.136,1.387,0.299,3.588,0.435,6.632
				c0.082,0,0.108,0.081,0.108,0.217c-0.435,2.419-0.651,3.642-0.651,3.696c0,0.054,0.026,0.271,0.108,0.652
				c0,0.462-0.027,1.087-0.108,1.848c0.081,0.896,0.108,1.767,0.108,2.609l-0.435,2.064c0.217,1.088,0.326,1.984,0.326,2.718v1.522
				c0,1.168-0.109,1.956-0.326,2.391c0.081,0.408,0.108,0.68,0.108,0.87c0,1.468-0.082,2.636-0.218,3.479
				c0.218,0.57,0.326,1.195,0.326,1.848v0.218c0,0.625-0.761,1.032-2.282,1.195c-0.354,0-0.897,0.027-1.631,0.109
				c-1.413,0-2.283-0.517-2.609-1.522c-0.733-1.902-1.087-3.668-1.087-5.326v-0.218c0-0.136-0.081-0.217-0.217-0.217
				c-1.44,0-2.175,0.136-2.175,0.435v0.108c0,0.408,0.137,1.55,0.436,3.479c-0.109,1.957-0.517,2.936-1.196,2.936
				c-0.407,0.435-0.815,0.652-1.195,0.652h-0.544c-0.163,0-0.299-0.027-0.435-0.109c-0.108,0-0.517,0.299-1.195,0.87
				c-0.408,0.081-0.734,0.108-0.979,0.108h-0.87c-1.875,0-2.826-1.223-2.826-3.695c-0.517-3.099-0.761-6.495-0.761-10.219
				c0.218-0.733,0.326-4.212,0.326-10.436V76.01c0-1.196,0.19-3.261,0.543-6.196c0.218-3.669,0.326-5.788,0.326-6.413l-0.435-3.805
				c0-0.707,0.87-1.169,2.609-1.413c0.217,0,0.462,0.027,0.761,0.108c0.299-0.081,0.57-0.108,0.869-0.108
				c1.224,0,1.849,0.57,1.849,1.739c0.326,0,0.57,0.869,0.761,2.608c0,0.027-0.027,0.517-0.108,1.413
				c0.353,2.038,0.543,3.777,0.543,5.218v0.109c0,0.951-0.081,1.603-0.218,1.956c0.082,0.354,0.137,1.44,0.218,3.262
				c-0.081,1.439-0.108,2.255-0.108,2.391c0,0.87,0.244,3.044,0.761,6.522c0,1.658,0.19,3.669,0.544,5.979h0.108
				c0.951-0.217,1.549-0.326,1.848-0.326h0.326l0.108-0.543c0-1.685-0.026-3.533-0.108-5.544c0.299-2.038,0.462-3.724,0.544-5
				c-0.136-1.224-0.218-2.147-0.218-2.827c0.218-3.587,0.326-9.674,0.326-18.262c0-0.517,0.869-0.896,2.608-1.087H139.37z"/>
			<path fill="#FFFFFF" d="M156.705,58.535c0,1.169-0.761,2.446-2.282,3.805c0,0.137-1.196,0.3-3.614,0.517
				c-2.446-0.055-3.805-0.788-4.104-2.229l-0.3-1.875c0.163-0.706,0.517-1.44,1.061-2.174c1.604-0.517,3.261-0.761,5-0.761
				C155.292,55.818,156.705,56.715,156.705,58.535z M151.379,66.797c2.256,0,3.56,0.951,3.913,2.826
				c0.354,1.495,0.544,2.663,0.544,3.479c0,0.19-0.109,0.571-0.326,1.196c0.217,0.354,0.326,0.815,0.326,1.413v0.543
				c0,0.762-0.136,1.522-0.435,2.283l0.108,0.544v0.651c0,0.517-0.108,1.767-0.326,3.805c0,0.625,0.108,1.604,0.326,2.936
				c-0.271,2.093-0.462,3.152-0.544,3.152l0.87,8.696v0.543c0,0.68-0.734,1.114-2.174,1.305c-0.734,0.354-1.739,0.544-3.044,0.544
				h-0.544c-1.223,0-1.93-0.408-2.174-1.196c-0.517-0.354-0.761-1.331-0.761-2.935l-0.652-8.588c0-0.489,0.081-1.685,0.218-3.587
				l-0.218-4.131c0.136-1.984,0.407-4.484,0.761-7.501c0.082-1.005,0.108-2.092,0.108-3.261v-0.979c0-0.57,0.652-1.114,1.957-1.63
				c0.381-0.082,0.815-0.109,1.305-0.109H151.379z"/>
			<path fill="#FFFFFF" d="M175.972,56.878c1.169,0,1.739,0.407,1.739,1.195c0.109,0,0.218,0.788,0.326,2.392
				c0.436,0.951,0.734,1.712,0.87,2.283l-0.218,5.108c0.218,1.033,0.326,2.338,0.326,3.914v0.108c0,0.924-0.108,1.658-0.326,2.174
				c0.136,0.707,0.218,1.686,0.218,2.936v0.108c0,1.277-0.108,2.201-0.326,2.826c0.081,0.625,0.108,1.033,0.108,1.196
				c0,3.125-0.136,5.218-0.435,6.305c0.081,1.44,0.108,2.364,0.108,2.826c0,0.244-0.108,1.006-0.326,2.282l0.109,1.522
				c0,2.011-1.984,3.424-5.979,4.239c-1.141,0-2.146-0.761-3.043-2.283c-0.299-1.168-1.006-3.505-2.175-6.957l-1.63-5.761h-0.109
				c-0.081,0.733-0.108,1.277-0.108,1.631v0.435c0.136,3.805,0.218,5.897,0.218,6.305c-0.163,3.044-0.354,4.701-0.544,5
				c-0.979,0.652-1.875,0.979-2.718,0.979c-2.527,0-3.805-1.386-3.805-4.131c0.218-3.125,0.326-4.919,0.326-5.326
				c-0.299-2.146-0.435-3.587-0.435-4.349c0-0.244,0.082-0.733,0.218-1.521l-0.109-0.652c0.082-0.733,0.109-1.331,0.109-1.739
				c0-0.68-0.082-1.604-0.218-2.826c0.354-3.995,0.652-8.044,0.87-12.175c-0.082-1.468-0.109-2.473-0.109-3.044
				c0-1.82,0.354-2.717,1.087-2.717c0.436-0.218,0.979-0.326,1.631-0.326c2.908,0,4.349,0.326,4.349,0.978
				c0.108,0.462,0.57,1.142,1.413,2.065c0.326,0.599,0.652,1.44,0.979,2.5c0.733,0.815,1.087,1.984,1.087,3.479
				c0.869,0.843,1.304,2.147,1.304,3.914c0.571,0.788,1.061,2.636,1.413,5.544c0.218,0.054,0.326,0.462,0.326,1.195h0.109
				c0-0.517,0.189-2.582,0.543-6.196c0-1.875,0.027-2.962,0.109-3.261c-0.082-0.354-0.109-0.843-0.109-1.413v-0.652
				c0-0.381,0.027-0.707,0.109-0.979c-0.082-0.38-0.109-0.733-0.109-1.087v-1.413c0.218-1.604,0.326-2.663,0.326-3.152v-2.283
				c0-0.625,0.652-1.032,1.957-1.195H175.972z M172.385,78.944v0.326h0.108v-0.326H172.385z"/>
			<path fill="#FFFFFF" d="M188.934,59.351c0.299-0.136,0.761-0.217,1.358-0.217c1.875,0.189,3.614,0.326,5.272,0.407
				c1.06,0.57,1.576,1.277,1.576,2.147c-0.951,1.929-2.854,2.88-5.68,2.88h-1.277l-0.517,0.109v-0.109l-0.217,0.109
				c-0.137-0.082-0.272-0.109-0.408-0.109c-0.218,0.544-0.326,1.061-0.326,1.522v0.217c0,0.544,0.027,1.25,0.108,2.147l-0.516,1.44
				c0.108,1.005,0.244,1.521,0.407,1.521s0.68-0.027,1.576-0.108c2.745,0.625,4.104,1.087,4.104,1.331
				c0.435,0.381,0.652,0.788,0.652,1.25c-0.462,1.087-1.331,1.631-2.636,1.631c-0.218,0-1.277,0.354-3.18,1.033h-0.408l0.109,0.189
				c0,0.19-0.027,0.299-0.109,0.299c0.082,0.815,0.109,1.387,0.109,1.739v1.55c0,0.462-0.082,1.521-0.218,3.18
				c0.082,0.543,0.218,1.032,0.435,1.439l-0.108,1.224v1.005c0,2.555,0.136,4.321,0.408,5.327c-0.082,0.706-0.109,1.25-0.109,1.657
				v0.19c0,0.407,0.245,0.625,0.734,0.625c1.276,0,2.581-0.082,3.913-0.218c1.685,0,2.527,0.408,2.527,1.224
				c-0.734,2.038-3.125,2.989-7.175,2.907c-3.206,0.245-5.462-0.054-6.794-0.924c-0.788-3.614-1.195-7.175-1.195-10.68
				c0-1.088,0.081-2.419,0.217-3.995c-0.136-0.489-0.299-1.604-0.435-3.37l0.218-2.364c-0.082-0.163-0.136-1.331-0.218-3.479
				l0.517-6.658c-0.136-0.435-0.19-0.733-0.19-0.924v-0.407c0-0.326,0.027-0.652,0.108-1.006c-0.081-0.462-0.136-0.788-0.217-0.924
				c0.081-0.571,0.108-1.06,0.108-1.44v-2.146c0-0.571,0.761-1.169,2.31-1.739c0.788,0,1.169-0.027,1.169-0.109
				C187.004,58.916,188.336,59.134,188.934,59.351z"/>
		</g>
	</g>
	<g>
		<g>
			<path fill="#FFFFFF" d="M87.933,58.142c-0.181,0-0.361-0.007-0.541-0.021l-0.041,0.003c-0.167,0.012-0.334,0.018-0.501,0.018
				c-1.474,0-2.887-0.405-4.217-1.208c-2.079-0.939-4.401-3.121-5.106-8.125c-0.141-0.723-0.204-1.537-0.204-2.566v-0.155
				c0-0.109,0.017-0.548,0.076-1.313l0.027-0.352v-0.296c0-0.735,0.098-1.445,0.283-2.118c-0.017-0.042-0.031-0.084-0.047-0.126
				c-0.637-1.485-1.016-3.338-1.243-6.036c-0.013-0.146-0.021-0.291-0.023-0.437c-0.037-1.703-0.088-3.393-0.151-5.045
				c-0.003-0.089-0.005-0.178-0.005-0.267c0-0.667,0.206-6.543,7.355-7.505c0.31-0.042,0.622-0.063,0.934-0.063
				c0.291,0,0.583,0.019,0.873,0.055c0.912,0.114,1.719,0.3,2.431,0.537c0.757-0.183,1.581-0.282,2.473-0.282h0.258
				c3.637,0,6.693,2.592,7.433,6.304c0.038,0.191,0.068,0.385,0.09,0.578c0.234,2.063,0.642,4.372,1.21,6.864
				c0.095,0.413,0.151,0.833,0.169,1.256c0.021,0.269,0.078,0.812,0.171,1.639c0.028,0.258,0.043,0.518,0.043,0.777v0.517
				c0,0.448-0.02,0.876-0.059,1.289c0.005,0.119,0.007,0.239,0.007,0.361c0,0.213-0.01,0.426-0.029,0.638
				c-0.122,1.337-0.284,3.107-0.792,4.796l0.012,0.004c-0.263,1.105-0.596,2.057-1.019,2.9c-0.498,1.533-1.281,2.818-2.339,3.832
				c-0.043,0.041-0.087,0.082-0.131,0.122c-1.419,1.292-2.636,2.221-4.104,2.724C90.221,57.818,89.2,58.142,87.933,58.142z"/>
			<path fill="#FFFFFF" d="M98.794,56.362c-0.401,0-0.818-0.029-1.289-0.094c-0.471,0.064-0.888,0.094-1.289,0.094h-0.207
				c-2.993,0-6.691-1.627-8.373-6.135c-0.563-1.2-1.006-2.647-1.377-4.485c-0.048-0.236-0.083-0.476-0.105-0.716
				c-0.093-0.594-0.109-1.203-0.045-1.814l0.043-0.413c-0.02-0.439-0.03-0.883-0.03-1.327v-0.207c0-0.798,0-1.976,0.232-3.234
				c0.058-0.733,0.218-1.573,0.529-2.806c0.16-1.098,0.553-2.44,1.331-4.672c0.276-0.793,0.694-1.53,1.231-2.176
				c1.383-1.659,2.906-2.458,4.115-2.842c1.516-0.539,3.102-0.812,4.718-0.812c4.425,0,7.992,2.735,9.401,7.17
				c0.636,1.655,1,3.395,1.086,5.187c0.047,0.351,0.071,0.715,0.071,1.091c0,0.41-0.032,0.78-0.103,1.227
				c0.103,0.874,0.154,1.791,0.154,2.744v0.104c0,1.046-0.108,2.214-0.34,3.646c-0.117,1.49-0.579,2.987-1.379,4.471
				c-0.589,1.636-1.544,2.873-2.672,3.741C103.019,55.529,101.001,56.362,98.794,56.362z"/>
			<path fill="#FFFFFF" d="M106.458,57.265c-1.738,0-4.337-0.569-6.843-3.28c-0.149-0.161-0.291-0.33-0.424-0.505
				c-0.91-1.191-1.709-2.628-2.443-4.39c-0.071-0.17-0.135-0.343-0.192-0.518c-0.685-2.095-1.018-4.392-1.018-7.023
				c0-0.273,0-1.102,0.361-8.224v-0.647c0-3.811,2.491-6.914,5.93-7.723c0.796-0.252,1.608-0.402,2.43-0.448
				c0.318-0.044,0.64-0.066,0.961-0.066c0.009,0,0.044,0,0.052,0c0.517,0,1.023,0.043,1.517,0.127
				c0.526-0.241,1.088-0.439,1.683-0.588c0.557-0.14,1.127-0.21,1.7-0.21h0.207c3.605,0,6.62,2.063,7.821,5.299
				c0.539,1.303,1.017,2.965,1.455,5.068c0.021,0.103,0.04,0.205,0.057,0.309l0.31,1.908c0.088,0.536,0.111,1.08,0.073,1.622
				l-0.024,0.331c0.031,0.828,0.042,1.41,0.042,1.746c0,1.235-0.186,2.594-0.565,4.134c-0.057,0.952-0.121,1.713-0.194,2.313
				c-0.144,1.175-0.433,2.152-0.814,2.966c-1.086,2.583-3.027,4.7-5.646,6.15c-0.194,0.107-0.395,0.206-0.599,0.295
				c-1.622,0.706-3.12,1.119-4.549,1.254c-0.392,0.067-0.788,0.101-1.184,0.101C106.544,57.265,106.475,57.265,106.458,57.265z"/>
			<path fill="#FFFFFF" d="M127.858,57.587c-1.711,0-3.078-0.359-4.165-0.889c-0.512,0.111-1.033,0.167-1.561,0.167
				c-4.158,0-7.505-2.518-8.524-6.414c-0.151-0.578-0.229-1.174-0.229-1.772V48.06c0-1.166,0.113-2.483,0.345-4.01
				c-0.006-0.125-0.014-0.27-0.023-0.433c-0.032-0.553,0.002-1.106,0.1-1.65c0.192-1.063,0.549-3.17,1.152-7.175
				c0.029-0.194,0.067-0.388,0.113-0.579c0.34-1.428,0.459-2.071,0.494-2.287c0.049-0.75,0.219-1.488,0.503-2.186
				c0.439-1.081,1.27-2.45,2.824-3.57c1.368-1.304,3.366-2.232,6.082-2.232c3.542,0,6.319,2.071,8.307,6.155
				c0.176,0.361,0.319,0.736,0.431,1.12c0.312,0.599,0.535,1.24,0.663,1.906c0.052,0.264,0.095,0.474,0.135,0.624
				c0.005,0.015,0.01,0.029,0.015,0.043c0.271,0.838,0.547,1.837,0.591,2.976c0.051,0.244,0.096,0.499,0.136,0.763
				c0.265,0.952,0.433,1.91,0.503,2.864c0.101,0.48,0.174,0.981,0.218,1.499c0.035,0.398,0.035,0.799,0.001,1.197
				c0.052,0.355,0.076,0.704,0.076,1.056c0,0.078-0.001,0.155-0.004,0.23c0.02,0.163,0.033,0.325,0.042,0.488
				c0.067,0.277,0.127,0.567,0.178,0.871c0.086,0.521,0.112,1.049,0.081,1.571c0.11,1.526,0.116,1.72,0.116,1.996v0.258
				c0,3.942-2.329,6.468-5.061,7.385C130.305,57.37,129.119,57.587,127.858,57.587z"/>
			<path fill="#FFFFFF" d="M137.173,58.206c-0.974,0-1.903-0.154-2.771-0.447c-0.396,0.089-0.81,0.157-1.243,0.203
				c-0.243,0.025-0.487,0.038-0.731,0.038c-5.582,0-7.453-3.831-7.895-5.005c-0.059-0.156-0.111-0.314-0.159-0.475
				c-0.658-2.228-0.988-4.937-1.008-8.275l-0.233-2.701c-0.039-0.459-0.033-0.92,0.018-1.378l0.017-0.148
				c-0.04-0.458-0.06-0.907-0.06-1.345v-0.464c0-0.403,0.008-0.794,0.025-1.182c-0.017-0.222-0.025-0.446-0.025-0.675
				c0-0.277,0.017-0.554,0.049-0.829c-0.032-0.459-0.049-0.923-0.049-1.389c0-0.28,0.017-0.561,0.051-0.839
				c0.307-2.539,0.812-4.298,1.638-5.702c0.037-0.063,0.075-0.126,0.114-0.188c0.402-0.844,0.971-1.63,1.653-2.243
				c2.464-2.214,4.966-2.77,6.718-2.821c0.074-0.005,0.185-0.014,0.328-0.026c0.208-0.019,0.416-0.028,0.624-0.028
				c4.351,0,6.73,2.139,7.889,3.699c1.78,2.128,2.4,4.802,2.739,6.958c0.033,0.211,0.057,0.424,0.07,0.637
				c0.056,0.858,0.066,1.37,0.066,1.533c0,0.234-0.012,0.469-0.035,0.702c-0.141,1.396-0.328,3.256-0.891,5.014
				c-0.111,0.455-0.263,0.879-0.437,1.271c0.017,0.057,0.033,0.113,0.049,0.17c0.056,0.107,0.121,0.229,0.195,0.363
				c0.318,0.581,0.551,1.201,0.693,1.843c0.073,0.239,0.275,0.87,0.76,2.267c0.077,0.221,0.143,0.445,0.197,0.674
				c0.194,0.816,0.293,1.657,0.293,2.499v0.154c0,3.493-2.081,6.444-5.302,7.518c-0.073,0.024-0.146,0.048-0.22,0.069
				c-0.763,0.227-1.495,0.389-2.176,0.482C137.811,58.185,137.491,58.206,137.173,58.206z"/>
			<path fill="#FFFFFF" d="M142.502,57.2c-2.435,0-4.427-0.527-6.092-1.613c-1.54-1.005-2.623-2.575-3.015-4.371
				c-0.483-2.216-0.729-4.423-0.729-6.56c0-0.463,0.019-0.975,0.058-1.57c-0.05-0.38-0.098-0.835-0.141-1.387
				c-0.03-0.394-0.027-0.788,0.009-1.18l0.042-0.454c-0.028-0.422-0.046-0.884-0.066-1.407c-0.01-0.271-0.005-0.541,0.016-0.81
				l0.176-2.265c-0.027-0.266-0.041-0.529-0.041-0.792c0,0,0-0.235,0-0.257c-0.068-0.562-0.069-1.133,0-1.701v-0.853
				c0-1.245,0.409-5.456,5.679-7.395c0.657-0.242,1.347-0.384,2.044-0.421c0.307-0.041,0.616-0.062,0.928-0.062
				c0.215,0,0.431,0.01,0.646,0.03c0.554,0.051,1.04,0.107,1.476,0.172c0.139-0.006,0.277-0.009,0.418-0.009
				c0.237,0,0.475,0.012,0.711,0.036c0.78,0.08,1.477,0.134,2.129,0.165c1.045,0.051,2.065,0.335,2.986,0.832
				c2.77,1.495,4.423,4.179,4.423,7.179c0,1.072-0.246,2.131-0.721,3.093c-0.148,0.303-0.312,0.594-0.488,0.873
				c0.143,0.589,0.216,1.2,0.216,1.824c0,0.939-0.189,1.869-0.556,2.733c-0.338,0.795-0.781,1.513-1.313,2.142
				c1.687,1.474,2.564,3.575,2.564,5.607c0,0.808-0.14,1.608-0.413,2.369c-0.65,1.808-2.902,6.012-9.766,6.012h-0.019
				C143.255,57.188,142.867,57.2,142.502,57.2z"/>
			<path fill="#FFFFFF" d="M165.024,57.252c-1.769,0-3.465-0.521-4.944-1.486c-0.823,0.251-1.754,0.423-2.802,0.491
				c-0.151,0.01-0.304,0.015-0.455,0.015h-1.134c-1.299,0-7.649-0.468-7.968-9.482c-0.042-0.346-0.064-0.704-0.064-1.076
				c0-0.055,0.001-0.109,0.002-0.164c0.038-1.626,0.088-2.875,0.153-3.801c-0.005-1.123-0.036-2.284-0.096-3.541
				c-0.005-0.111-0.008-0.222-0.008-0.333c0-0.364,0.017-0.822,0.206-2.638c0,0,0.002-0.481,0.004-0.57
				c-0.002-0.083-0.004-0.165-0.004-0.248c0-8,3.752-9.925,6.555-10.247c0.763-0.142,1.422-0.208,2.045-0.208
				c1.234,0,2.758,0.259,4.352,1.146c1.198-0.453,2.536-0.682,4.003-0.682h0.206c4.026,0,7.207,3.161,7.403,7.268
				c0.021,0.183,0.057,0.463,0.105,0.839c0.039,0.3,0.059,0.603,0.059,0.905c0,0.357-0.021,0.726-0.067,1.175l0.354,4.343
				c0.016,0.188,0.023,0.379,0.023,0.568v0.539c0.017,0.082,0.032,0.164,0.047,0.247c0.15,0.845,0.144,1.706-0.017,2.544
				c0.154,1.194,0.228,2.188,0.228,3.065c0,1.436-0.027,2.527-0.082,3.338c-0.186,2.723-1.171,4.454-2.355,5.555
				C168.69,56.824,166.505,57.252,165.024,57.252z"/>
			<path fill="#FFFFFF" d="M171.619,58.142c-0.181,0-0.361-0.007-0.541-0.021l-0.041,0.003c-0.167,0.012-0.334,0.018-0.501,0.018
				c-1.474,0-2.887-0.405-4.217-1.208c-2.079-0.939-4.401-3.121-5.106-8.125c-0.141-0.723-0.204-1.537-0.204-2.566v-0.155
				c0-0.109,0.017-0.548,0.076-1.312l0.027-0.353v-0.296c0-0.735,0.098-1.445,0.283-2.118c-0.017-0.042-0.031-0.083-0.047-0.126
				c-0.637-1.485-1.016-3.338-1.243-6.036c-0.013-0.146-0.021-0.291-0.023-0.437c-0.037-1.703-0.088-3.393-0.151-5.045
				c-0.003-0.089-0.005-0.178-0.005-0.267c0-0.667,0.206-6.542,7.355-7.505c0.31-0.042,0.621-0.063,0.934-0.063
				c0.291,0,0.583,0.019,0.873,0.055c0.912,0.114,1.719,0.3,2.431,0.537c0.757-0.183,1.581-0.282,2.473-0.282h0.258
				c3.637,0,6.693,2.592,7.433,6.304c0.038,0.191,0.068,0.385,0.09,0.578c0.234,2.063,0.642,4.372,1.21,6.864
				c0.095,0.413,0.151,0.833,0.169,1.256c0.021,0.269,0.078,0.812,0.171,1.639c0.028,0.258,0.043,0.518,0.043,0.777v0.517
				c0,0.448-0.02,0.876-0.059,1.289c0.005,0.119,0.007,0.239,0.007,0.361c0,0.213-0.01,0.426-0.029,0.638
				c-0.122,1.337-0.284,3.107-0.792,4.796l0.012,0.004c-0.263,1.105-0.596,2.057-1.019,2.9c-0.498,1.533-1.281,2.818-2.339,3.832
				c-0.043,0.041-0.087,0.082-0.131,0.122c-1.419,1.292-2.636,2.221-4.104,2.724C173.907,57.818,172.887,58.142,171.619,58.142z"/>
		</g>
		<g>
			<path fill="#FFFFFF" d="M86.23,30.254c0.116,0,0.219,0.503,0.31,1.495c0.657,2.953,1.187,5.171,1.599,6.653
				c0.039,0.064,0.09,0.297,0.154,0.723h0.052c0-0.207,0.155-0.98,0.465-2.321v-0.052c0-0.516,0.013-1.341,0.051-2.476
				c-0.103-0.541-0.154-0.992-0.154-1.341v-0.67c0-0.323,0.013-0.723,0.052-1.187l-0.052-0.31c0-0.619,0.528-0.929,1.599-0.929
				h0.258c0.284,0,0.478,0.22,0.567,0.671c0.271,2.385,0.723,4.925,1.341,7.633c0,0.142,0.064,0.838,0.207,2.114v0.517
				c0,0.464-0.039,0.838-0.104,1.134c0.039,0.181,0.052,0.349,0.052,0.517c-0.232,2.54-0.438,3.816-0.619,3.816
				c-0.193,0.813-0.426,1.405-0.722,1.805c-0.143,0.696-0.361,1.199-0.671,1.496c-0.877,0.799-1.444,1.225-1.702,1.289
				c-0.541,0.206-0.863,0.31-0.979,0.31l-0.361-0.052l-0.722,0.052c-0.271,0-0.619-0.168-1.032-0.516
				c-0.683,0-1.147-1.019-1.392-3.043c-0.064-0.206-0.104-0.658-0.104-1.341v-0.155c0-0.09,0.039-0.554,0.104-1.393v-0.567
				c0-0.541,0.373-0.863,1.134-0.979c0.49-0.142,0.968-0.206,1.444-0.206h0.206c0.181,0,0.297,0.451,0.361,1.341
				c0.052,0.181,0.155,0.915,0.31,2.218c0.142,0.425,0.206,0.734,0.206,0.928c1.135-1.83,1.702-3.571,1.702-5.209
				c-0.025-0.786-0.077-1.186-0.154-1.186c-0.658,0.451-1.535,0.67-2.631,0.67H86.85c-1.264,0-2.153-0.813-2.683-2.424
				c-0.348-0.696-0.605-2.037-0.773-4.022c-0.038-1.741-0.09-3.469-0.154-5.158c0-0.258,0.426-0.451,1.289-0.567
				C85.663,29.674,86.23,29.905,86.23,30.254z"/>
			<path fill="#FFFFFF" d="M101.063,34.199c0.477,1.16,0.722,2.398,0.722,3.714c0.039,0,0.052,0.09,0.052,0.258
				c0,0.064-0.064,0.425-0.206,1.083c0.168,0.838,0.258,1.805,0.258,2.888v0.104c0,0.734-0.104,1.688-0.31,2.888
				c0,0.709-0.297,1.521-0.877,2.424c-0.154,0.761-0.425,1.135-0.825,1.135c-0.167,0.451-0.528,0.671-1.083,0.671
				c-0.219,0-0.645-0.064-1.289-0.206c-0.645,0.142-1.07,0.206-1.289,0.206h-0.207c-0.89,0-1.521-0.619-1.908-1.856
				c-0.374-0.684-0.696-1.741-0.979-3.146c0-0.245-0.013-0.374-0.052-0.412l0.104-0.98c-0.039-0.555-0.052-1.058-0.052-1.495v-0.207
				c0-1.56,0.09-2.372,0.258-2.424c-0.039-0.064-0.052-0.116-0.052-0.154c0-0.31,0.155-1.045,0.464-2.218
				c0-0.451,0.349-1.65,1.032-3.61c0.322-0.387,0.632-0.606,0.928-0.671c0.813-0.31,1.65-0.464,2.527-0.464
				C99.671,31.724,100.6,32.549,101.063,34.199z M97.711,34.354c-0.142,0.503-0.297,1.444-0.464,2.837v0.877
				c0,0.116-0.052,0.232-0.155,0.361v0.206c0,0.902-0.038,1.47-0.103,1.702c0.038,0.231,0.052,0.425,0.052,0.567v0.516
				c0,1.225,0.193,2.823,0.567,4.796h0.051c0.297-0.412,0.555-1.276,0.774-2.578c0.142-1.019,0.206-2.051,0.206-3.095
				c0-0.528-0.064-1.405-0.206-2.63v-0.259c0-0.142,0.013-0.335,0.051-0.567c-0.271-1.108-0.516-2.023-0.722-2.733H97.711z"/>
			<path fill="#FFFFFF" d="M110.378,30.77c0.696,0,1.121,0.271,1.289,0.825c0.374,0.851,0.761,2.179,1.135,3.972l0.31,1.908
				l-0.052,0.722c0.038,0.902,0.052,1.521,0.052,1.856c0,0.787-0.168,1.792-0.516,3.043c-0.116,2.27-0.259,3.404-0.413,3.404
				c-0.451,1.25-1.354,2.256-2.682,2.991c-1.096,0.477-2.024,0.722-2.785,0.722h-0.052l-0.104,0.052v-0.052l-0.103,0.052
				c-0.503,0-1.07-0.348-1.702-1.031c-0.541-0.709-1.058-1.663-1.547-2.837c-0.451-1.38-0.671-2.991-0.671-4.848
				c0-0.542,0.116-3.224,0.361-8.046v-0.825c0-0.619,0.245-0.929,0.722-0.929c0.387-0.167,0.787-0.258,1.187-0.258h0.31l0.103-0.051
				v0.051c0.039,0,0.052-0.013,0.052-0.051c0.671,0,1.199,0.322,1.599,0.979c0.143,0.49,0.207,0.864,0.207,1.135
				c-0.064,0.799-0.104,1.315-0.104,1.547c0,0.193,0.104,0.852,0.31,1.96c-0.039,0.825-0.091,1.482-0.155,1.96l0.104,1.289
				l-0.052,0.104c0,0.077,0.013,0.142,0.052,0.206c-0.039,0.451-0.052,0.813-0.052,1.083v0.773c0,0.529,0.064,1.264,0.206,2.218
				h-0.051c0.064,0.413,0.154,0.787,0.258,1.135c0.193-0.181,0.464-1.199,0.825-3.043c0-0.219,0.154-1.121,0.464-2.682
				c0.142-0.684,0.219-2.205,0.258-4.538c0.039,0,0.064-0.207,0.104-0.619c-0.039-0.426-0.077-0.658-0.104-0.723h0.052
				c-0.064-0.18-0.104-0.58-0.104-1.186v-1.29c0-0.477,0.361-0.799,1.083-0.979H110.378z"/>
			<path fill="#FFFFFF" d="M125.021,30.938c0.58,0,1.238,0.734,1.96,2.218c0,0.348,0.168,0.786,0.516,1.289
				c0.142,0.734,0.271,1.237,0.361,1.495c0.167,0.517,0.258,0.89,0.258,1.135c0,0.091-0.039,0.193-0.104,0.31
				c0.142,0,0.258,0.529,0.361,1.599c0.271,0.813,0.412,1.625,0.412,2.425c0.091,0.271,0.168,0.631,0.207,1.083l-0.155,0.928
				c0.142,0.374,0.206,0.619,0.206,0.723c0,0.064-0.038,0.244-0.103,0.516c0.103,0.245,0.154,0.464,0.154,0.67
				c-0.038,0.349-0.052,0.555-0.052,0.619c0.104,0,0.207,0.31,0.31,0.929l-0.052,0.103v0.052c0.104,1.405,0.155,2.153,0.155,2.27
				v0.258c0,0.516-0.142,0.773-0.413,0.773c-0.31,0.168-0.709,0.258-1.186,0.258c-0.813,0-1.303-0.167-1.444-0.516
				c-0.748-1.482-1.174-3.082-1.289-4.797c-0.039-0.103-0.413-0.167-1.135-0.206h-0.31c-0.039,0-0.091,0.064-0.155,0.206
				l0.052,0.104v0.31c0,0.181-0.052,0.451-0.154,0.825c0.077,0.516,0.129,0.773,0.154,0.773c-0.064,0.297-0.219,0.684-0.464,1.135
				c0,0.645-0.116,1.019-0.361,1.135c-0.271,0.206-0.477,0.31-0.619,0.31c-0.967,0-1.547-0.399-1.753-1.187V48.06
				c0-0.915,0.116-2.102,0.361-3.559c0-0.193-0.014-0.632-0.052-1.289c0.271-1.496,0.67-3.958,1.186-7.375
				c0.452-1.896,0.671-3.056,0.671-3.456c0.142-0.348,0.478-0.618,0.979-0.825c0.116-0.412,0.606-0.618,1.444-0.618H125.021z
				 M124.454,36.816c-0.168,1.521-0.374,2.901-0.619,4.126v0.104c0,0.297,0.014,0.605,0.052,0.928
				c-0.104,0.517-0.154,0.968-0.154,1.342c0.348,0.038,0.605,0.051,0.773,0.051h0.464v-0.051c0-0.168-0.038-0.555-0.103-1.135
				c0.103-0.542,0.154-0.993,0.154-1.341v-0.258c0-1.097-0.168-2.36-0.516-3.766H124.454z"/>
			<path fill="#FFFFFF" d="M136.605,30.318c0.606,0.593,1.045,1.831,1.341,3.713c0.039,0.606,0.052,0.968,0.052,1.083
				c-0.271,2.683-0.516,4.023-0.722,4.023c0,0.129-0.258,0.541-0.773,1.237c-0.581,0.478-0.968,0.825-1.135,1.032l-0.052,0.103
				c0.89,1.019,1.444,1.935,1.65,2.733c0,0.22,0.258,0.813,0.773,1.754c0,0.129,0.322,1.147,0.98,3.043
				c0.064,0.271,0.103,0.567,0.103,0.877v0.154c0,0.478-0.167,0.761-0.516,0.877c-0.477,0.142-0.851,0.219-1.135,0.258
				c-0.761,0-1.289-0.464-1.599-1.393c-0.206-0.58-0.555-1.276-1.031-2.114c-0.193-0.839-0.413-1.47-0.671-1.908
				c-0.103-0.245-0.154-0.413-0.154-0.517h-0.052c0,0.143-0.039,0.503-0.104,1.084c0.014,0.412,0.052,0.618,0.104,0.618
				c-0.064,0.143-0.104,0.426-0.104,0.825v0.98c0,0.116-0.013,0.271-0.051,0.464c0.142,0.374,0.206,0.709,0.206,1.031
				c0,0.387-0.426,0.632-1.29,0.723c-0.773,0-1.225-0.155-1.341-0.465c-0.477-1.611-0.722-3.804-0.722-6.602l-0.258-2.991
				l0.104-0.928c-0.065-0.451-0.104-0.903-0.104-1.342v-0.464c0-0.438,0.013-0.915,0.052-1.444
				c-0.039-0.142-0.052-0.271-0.052-0.412l0.104-0.619c-0.065-0.49-0.104-1.019-0.104-1.599c0.181-1.496,0.426-2.488,0.722-2.991
				c0.104,0,0.245-0.258,0.413-0.773c0.761-0.684,1.534-1.032,2.32-1.032c0.014,0,0.245-0.013,0.671-0.051
				C135.433,29.287,136.231,29.635,136.605,30.318z M133.099,33.206c0,0.684,0.09,1.586,0.258,2.733v0.258
				c0,0.116-0.013,0.271-0.052,0.465c0.142,0.451,0.207,1.07,0.207,1.856l0.051,0.206c0.787-0.683,1.187-2.063,1.187-4.126
				c0-1.767-0.361-2.965-1.083-3.61h-0.052c-0.297,0-0.464,0.658-0.516,1.96V33.206z M133.614,45.12v0.104h0.052V45.12H133.614z"/>
			<path fill="#FFFFFF" d="M143.264,31.401c0.143-0.064,0.361-0.104,0.646-0.104c0.89,0.091,1.715,0.155,2.501,0.193
				c0.503,0.271,0.748,0.606,0.748,1.019c-0.451,0.916-1.354,1.367-2.695,1.367h-0.605l-0.245,0.052v-0.052l-0.104,0.052
				c-0.064-0.039-0.129-0.052-0.193-0.052c-0.103,0.258-0.154,0.503-0.154,0.722v0.104c0,0.258,0.013,0.593,0.052,1.019
				l-0.245,0.684c0.052,0.477,0.116,0.722,0.193,0.722s0.322-0.013,0.748-0.052c1.302,0.297,1.946,0.516,1.946,0.632
				c0.207,0.181,0.31,0.374,0.31,0.594c-0.219,0.516-0.632,0.773-1.251,0.773c-0.103,0-0.605,0.167-1.508,0.49h-0.193l0.051,0.09
				c0,0.09-0.013,0.142-0.051,0.142c0.038,0.387,0.051,0.658,0.051,0.825v0.735c0,0.219-0.038,0.722-0.103,1.509
				c0.038,0.258,0.103,0.489,0.206,0.683l-0.052,0.58v0.478c0,1.212,0.064,2.05,0.193,2.527c-0.038,0.335-0.052,0.593-0.052,0.786
				v0.091c0,0.193,0.116,0.296,0.349,0.296c0.606,0,1.225-0.038,1.856-0.103c0.8,0,1.199,0.193,1.199,0.58
				c-0.348,0.967-1.482,1.418-3.404,1.379c-1.521,0.116-2.591-0.025-3.223-0.438c-0.374-1.715-0.567-3.404-0.567-5.067
				c0-0.516,0.038-1.147,0.103-1.896c-0.064-0.232-0.142-0.761-0.206-1.599l0.104-1.122c-0.039-0.077-0.064-0.632-0.104-1.65
				l0.245-3.159c-0.064-0.206-0.09-0.348-0.09-0.438v-0.193c0-0.154,0.013-0.31,0.051-0.477c-0.038-0.22-0.064-0.374-0.103-0.438
				c0.038-0.271,0.052-0.503,0.052-0.684v-1.019c0-0.271,0.36-0.555,1.096-0.825c0.374,0,0.555-0.013,0.555-0.052
				C142.349,31.195,142.98,31.298,143.264,31.401z"/>
			<path fill="#FFFFFF" d="M159.454,33.335c0.348,0.684,0.722,1.689,1.135,3.043h0.052c1.121-2.669,1.817-4.139,2.114-4.384
				c0.451-0.374,1.16-0.567,2.114-0.567h0.206c0.271,0,0.413,0.22,0.413,0.671c0,0.104,0.052,0.555,0.154,1.341
				c0,0.219-0.038,0.567-0.103,1.031l0.412,5.055v0.773c0,0.142-0.013,0.335-0.052,0.567c0.104,0.219,0.168,0.451,0.207,0.671
				c-0.143,0.451-0.207,0.799-0.207,1.031v0.206c0.207,1.341,0.31,2.386,0.31,3.146c0,2.54-0.09,3.816-0.258,3.816
				c-0.348,0.348-0.657,0.516-0.928,0.516c-0.761,0-1.432-0.413-2.012-1.238v-1.856c0-0.219,0.013-0.451,0.052-0.67l-0.104-1.444
				c0.039-0.271,0.052-0.542,0.052-0.825l-0.206-2.631l0.103-1.031v-0.052h-0.051c-0.271,1.432-0.529,2.282-0.774,2.579
				c-0.219,0.168-0.489,0.297-0.825,0.412c-1.135,0-1.701-0.142-1.701-0.412c-0.143-0.297-0.297-0.993-0.465-2.063h-0.052v0.104
				c0.039,0.593,0.052,0.941,0.052,1.031c0,0.929-0.09,2.23-0.258,3.92c0.104,0.413,0.155,0.709,0.155,0.877
				c0,0.129-0.052,0.541-0.155,1.237l0.052,0.104c0,0.555-0.684,0.89-2.063,0.979h-1.134c-0.658,0-0.98-1.069-0.98-3.197
				c-0.038,0-0.052-0.116-0.052-0.361c0.039-1.663,0.091-2.9,0.155-3.713c0-1.405-0.039-2.772-0.104-4.126
				c0-0.193,0.064-0.941,0.206-2.27v-0.67c0-0.116,0.014-0.193,0.052-0.258l-0.052-0.259c0-2.204,0.168-3.301,0.517-3.301
				c0.477-0.103,0.838-0.154,1.083-0.154C157.455,30.963,158.436,31.749,159.454,33.335z M158.99,40.813v0.155h0.051v-0.155H158.99z
				"/>
			<path fill="#FFFFFF" d="M169.917,30.254c0.116,0,0.219,0.503,0.31,1.495c0.657,2.953,1.187,5.171,1.599,6.653
				c0.039,0.064,0.09,0.297,0.154,0.723h0.052c0-0.207,0.155-0.98,0.465-2.321v-0.052c0-0.516,0.013-1.341,0.051-2.476
				c-0.103-0.541-0.154-0.992-0.154-1.341v-0.67c0-0.323,0.013-0.723,0.052-1.187l-0.052-0.31c0-0.619,0.528-0.929,1.599-0.929
				h0.258c0.284,0,0.478,0.22,0.567,0.671c0.271,2.385,0.723,4.925,1.341,7.633c0,0.142,0.064,0.838,0.207,2.114v0.517
				c0,0.464-0.039,0.838-0.104,1.134c0.039,0.181,0.052,0.349,0.052,0.517c-0.232,2.54-0.438,3.816-0.619,3.816
				c-0.193,0.813-0.426,1.405-0.722,1.805c-0.143,0.696-0.361,1.199-0.671,1.496c-0.877,0.799-1.444,1.225-1.702,1.289
				c-0.541,0.206-0.863,0.31-0.979,0.31l-0.361-0.052l-0.722,0.052c-0.271,0-0.619-0.168-1.032-0.516
				c-0.683,0-1.147-1.019-1.392-3.043c-0.064-0.206-0.104-0.658-0.104-1.341v-0.155c0-0.09,0.039-0.554,0.104-1.393v-0.567
				c0-0.541,0.373-0.863,1.134-0.979c0.49-0.142,0.968-0.206,1.444-0.206h0.206c0.181,0,0.297,0.451,0.361,1.341
				c0.052,0.181,0.155,0.915,0.31,2.218c0.142,0.425,0.206,0.734,0.206,0.928c1.135-1.83,1.702-3.571,1.702-5.209
				c-0.025-0.786-0.077-1.186-0.154-1.186c-0.658,0.451-1.535,0.67-2.631,0.67h-0.154c-1.264,0-2.153-0.813-2.683-2.424
				c-0.348-0.696-0.605-2.037-0.773-4.022c-0.038-1.741-0.09-3.469-0.154-5.158c0-0.258,0.426-0.451,1.289-0.567
				C169.35,29.674,169.917,29.905,169.917,30.254z"/>
		</g>
	</g>
	<g>
		<path fill="#FFFFFF" d="M40.647,79.686c0.311-0.595,0.571-1.211,0.862-1.816c0.094-0.188,0.243-0.428,0.45-0.37
			c0.68,0.177,1.022-0.298,1.461-0.642c0.782-0.622,1.006-0.618,1.905-0.01c0.234,0.155,0.479,0.286,0.706,0.131
			c0.757-0.532,1.423-0.41,2.132,0.133c0.356,0.278,0.822,0.421,1.223,0.652c0.281,0.166,0.567,0.199,0.889,0.205
			c0.787,0.015,1.533-0.136,2.25-0.452c0.283-0.125,0.563-0.304,0.857-0.344c1.764-0.242,3.064-1.234,4.063-2.609
			c0.727-1.006,1.67-1.496,2.846-1.658c0.618-0.084,1.244-0.147,1.842-0.308c0.693-0.184,1.486-0.357,1.793-1.073
			c0.369-0.85,1.056-1.302,1.799-1.616c0.918-0.387,1.693-0.987,2.569-1.425c0.102,0,0.208-0.017,0.306,0.004
			c1.938,0.364,3.401-0.31,4.491-1.948c0.984-1.473,1.673-3.065,2.124-4.768c0.381-1.444,0.76-2.888,1.139-4.329
			c1.031-0.965,1.604-2.229,2.221-3.452c0.695-1.38,0.926-3.144,0.506-4.619c-0.057-0.208,0.174-0.495-0.166-0.761l-0.006-0.004
			c0.649-0.828-0.289-0.12-0.332-0.327c-0.032-0.19-0.168-0.226-0.202-0.414c-0.034-0.448-0.041-0.849-0.488-1.15
			c-0.224-0.748-0.876-1.274-0.987-2.067c-0.262-1.873-0.939-3.582-1.854-5.222c-0.385-0.695-0.695-1.387-0.498-2.207
			c0.082-0.333-0.068-0.596-0.249-0.858c-1.336-1.915-2.7-3.815-4.382-5.435c-2.588-2.499-5.486-4.549-8.817-6.002
			c-2.1-0.912-4.248-1.657-6.457-2.222c-2.507-0.641-5.063-1.054-7.675-0.907c-0.389,0.026-0.782,0.055-1.171,0.082
			c-0.202-0.173-0.421-0.198-0.663-0.097c-2.153,0.226-4.314,0.232-6.445,0.827c-2.115,0.589-4.121,1.363-6.041,2.394
			c-0.098,0.096-0.199,0.185-0.307,0.268c-0.189,0.067-0.381,0.143-0.57,0.213c-0.158,0.012-0.242,0.105-0.293,0.244
			c-0.193,0.08-0.389,0.161-0.582,0.247c-0.146,0-0.21,0.092-0.243,0.213c-0.106,0.05-0.216,0.096-0.321,0.143
			c-0.096,0.079-0.189,0.167-0.273,0.256c-0.1,0.051-0.195,0.096-0.296,0.139c-0.093,0.085-0.187,0.176-0.275,0.266
			c-0.097,0.05-0.194,0.094-0.293,0.14c-0.091,0.089-0.183,0.176-0.271,0.266c-0.096,0.05-0.195,0.098-0.294,0.148
			c-0.095,0.079-0.18,0.164-0.254,0.26c-0.106,0.056-0.213,0.109-0.316,0.167c-0.14,0.014-0.204,0.106-0.225,0.239
			c-0.201,0.163-0.399,0.324-0.598,0.486c-0.092,0.086-0.175,0.178-0.251,0.271c-0.194,0.181-0.387,0.355-0.58,0.533
			c-0.096,0.054-0.161,0.134-0.202,0.232c-0.506,0.282-0.768,0.791-1.138,1.198c-0.089,0.079-0.158,0.173-0.21,0.281l-0.101-0.033
			c-0.147,0.045-0.239,0.142-0.308,0.229c0,0-0.001,0.002-0.003,0.004l0.043,0.108c-0.083,0.106-0.132,0.253-0.217,0.364
			c-0.843,0.853-1.544,1.815-2.062,2.898c-0.076,0.095-0.139,0.206-0.195,0.316c-0.955,1.354-1.4,2.982-2.299,4.365
			c-0.592,0.915-1.007,1.906-1.379,2.925c-1.335,3.615-1.338,7.354-1.064,11.118c-0.348,0.646,0.014,1.255,0.099,1.874
			c-0.05,0.542,0.04,1.067,0.18,1.586c0.065,0.41,0.132,0.82,0.198,1.232c-0.133,0.544-0.023,1.058,0.228,1.547
			c0.321,1.985,0.502,3.997,1.514,5.807c0.27,0.484,0.452,1.048,0.548,1.601c0.194,1.084,0.503,2.106,1.234,2.961
			c0.102,0.118,0.211,0.242,0.255,0.389c0.347,1.073,1.203,1.775,1.933,2.541c0.459,0.483,0.96,0.938,1.34,1.487
			c0.603,0.885,1.416,1.498,2.348,1.967c1.383,0.69,2.709,1.515,4.288,1.731c0.239,0.029,0.465,0.218,0.687,0.347
			c0.273,0.16,0.566,0.254,0.885,0.253c1.08,0.322,2.156,0.646,3.242,0.959c0.143,0.038,0.314,0.045,0.457,0.004
			c1.051-0.295,2.053-0.12,3.035,0.266C40.16,80.22,40.468,80.04,40.647,79.686z M45.198,65.667c0.1,0.001,0.199-0.004,0.294-0.012
			C45.4,65.704,45.301,65.701,45.198,65.667z M35.76,65.643c-0.059,0.022-0.123,0.037-0.189,0.037
			C35.635,65.669,35.7,65.659,35.76,65.643z M31.272,26.428c0.103-0.048,0.206-0.077,0.317-0.088
			C31.485,26.366,31.379,26.391,31.272,26.428z"/>
		<path fill="#F8C44F" d="M42.379,77.164c0.24-0.502,0.441-1.021,0.667-1.531c0.071-0.158,0.187-0.36,0.349-0.313
			c0.525,0.15,0.791-0.25,1.131-0.539c0.605-0.524,0.779-0.521,1.476-0.008c0.183,0.131,0.37,0.242,0.548,0.111
			c0.586-0.449,1.102-0.346,1.65,0.112c0.277,0.235,0.637,0.355,0.947,0.551c0.219,0.141,0.44,0.168,0.689,0.174
			c0.61,0.013,1.188-0.114,1.742-0.381c0.219-0.105,0.436-0.255,0.664-0.288c1.367-0.204,2.373-1.039,3.146-2.198
			c0.563-0.848,1.293-1.261,2.204-1.396c0.479-0.071,0.963-0.124,1.426-0.26c0.537-0.153,1.152-0.3,1.389-0.903
			c0.286-0.717,0.816-1.097,1.393-1.362c0.711-0.325,1.312-0.831,1.99-1.199c0.078,0,0.16-0.014,0.236,0.003
			c1.502,0.309,2.635-0.26,3.479-1.64c0.762-1.242,1.294-2.584,1.643-4.02c0.294-1.218,0.586-2.435,0.879-3.649
			c0.799-0.813,1.242-1.879,1.719-2.91c0.538-1.162,0.716-2.649,0.39-3.895c-0.044-0.175,0.135-0.416-0.129-0.641l-0.004-0.003
			c0.503-0.698-0.225-0.103-0.259-0.277c-0.025-0.16-0.129-0.19-0.156-0.349c-0.026-0.378-0.031-0.715-0.379-0.971
			c-0.174-0.63-0.679-1.075-0.766-1.743c-0.203-1.579-0.73-3.021-1.438-4.404c-0.298-0.586-0.539-1.17-0.388-1.86
			c0.064-0.282-0.053-0.503-0.193-0.724c-1.035-1.616-2.094-3.22-3.397-4.585c-2.005-2.109-4.253-3.84-6.833-5.065
			c-1.627-0.771-3.292-1.4-5.004-1.878c-1.941-0.541-3.922-0.891-5.945-0.769c-0.301,0.022-0.605,0.046-0.906,0.068
			c-0.156-0.146-0.326-0.167-0.514-0.082c-1.668,0.189-3.342,0.193-4.992,0.694c-1.639,0.495-3.191,1.147-4.679,2.015
			c-0.075,0.081-0.154,0.155-0.237,0.226c-0.146,0.058-0.295,0.12-0.441,0.18c-0.123,0.009-0.188,0.089-0.227,0.206
			c-0.15,0.066-0.303,0.136-0.451,0.208c-0.113,0-0.164,0.076-0.189,0.179c-0.082,0.042-0.166,0.08-0.248,0.12
			c-0.074,0.066-0.146,0.141-0.212,0.216c-0.076,0.043-0.15,0.081-0.229,0.117c-0.072,0.071-0.145,0.147-0.213,0.223
			c-0.075,0.043-0.15,0.08-0.228,0.118c-0.07,0.075-0.142,0.148-0.21,0.224c-0.073,0.042-0.151,0.082-0.228,0.126
			c-0.072,0.065-0.139,0.138-0.197,0.219c-0.082,0.047-0.164,0.091-0.244,0.14c-0.107,0.012-0.158,0.091-0.174,0.202
			c-0.156,0.137-0.31,0.272-0.463,0.41c-0.071,0.072-0.136,0.149-0.194,0.228c-0.151,0.152-0.3,0.299-0.45,0.449
			c-0.072,0.045-0.123,0.112-0.156,0.196c-0.391,0.236-0.593,0.666-0.88,1.009c-0.068,0.067-0.122,0.146-0.161,0.237l-0.078-0.027
			c-0.115,0.037-0.186,0.118-0.238,0.191c0,0-0.002,0.003-0.004,0.004l0.035,0.091c-0.064,0.091-0.104,0.214-0.168,0.308
			c-0.653,0.718-1.197,1.529-1.596,2.442c-0.059,0.08-0.107,0.174-0.152,0.267c-0.738,1.143-1.083,2.515-1.777,3.68
			c-0.459,0.771-0.779,1.607-1.066,2.466c-1.033,3.048-1.033,6.2-0.818,9.374c-0.27,0.545,0.01,1.059,0.076,1.58
			c-0.038,0.457,0.032,0.9,0.141,1.338c0.051,0.345,0.102,0.691,0.154,1.039c-0.104,0.458-0.018,0.892,0.177,1.305
			c0.25,1.673,0.391,3.37,1.175,4.896c0.209,0.409,0.352,0.884,0.426,1.35c0.152,0.914,0.391,1.776,0.957,2.497
			c0.08,0.101,0.164,0.205,0.198,0.328c0.271,0.905,0.933,1.498,1.499,2.144c0.355,0.407,0.744,0.792,1.038,1.255
			c0.468,0.747,1.099,1.264,1.819,1.66c1.072,0.583,2.101,1.277,3.323,1.462c0.186,0.025,0.36,0.184,0.531,0.292
			c0.214,0.136,0.44,0.215,0.687,0.215c0.838,0.272,1.67,0.546,2.512,0.811c0.111,0.031,0.244,0.037,0.354,0.003
			c0.813-0.248,1.59-0.101,2.351,0.225C42.001,77.614,42.239,77.463,42.379,77.164z M45.896,65.347
			c0.076,0.001,0.154-0.004,0.227-0.01C46.053,65.377,45.976,65.375,45.896,65.347z M38.584,65.321
			c-0.045,0.018-0.095,0.03-0.146,0.03C38.488,65.342,38.539,65.335,38.584,65.321z M35.088,32.253
			c0.078-0.04,0.158-0.064,0.246-0.074C35.252,32.201,35.17,32.221,35.088,32.253z"/>
		<path fill="#FFFFFF" d="M79.91,37.351c0.271,0.548,0.812,0.888,1.064,1.402c0.461,0.923,1.326,1.121,2.159,1.377
			c0.484,0.147,0.942,0.035,1.36-0.343c0.761-0.688,1.514-1.417,2.386-1.948c1.881-1.161,3.831-2.207,5.759-3.289
			c0.166-0.093,0.373-0.135,0.563-0.151c0.831-0.068,1.459-0.522,2.089-1.01c0.693-0.537,1.393-1.093,2.148-1.53
			c0.827-0.479,1.532-1.066,2.123-1.805c0.368-0.396,0.798-0.752,1.095-1.198c0.635-0.952,0.146-2.009-0.971-2.204
			c-0.098-0.018-0.195-0.032-0.293-0.032c-1.227-0.01-2.453-0.228-3.674,0.111c-0.564,0.156-1.166,0.176-1.747,0.283
			c-2.518,0.472-5.021,1-7.403,1.985c-1.553,0.642-3.037,1.407-4.443,2.324c-2.428,1.588-1.983,0.872-2.585,3.899
			C79.387,35.985,79.574,36.666,79.91,37.351z"/>
		<path fill="#FFFFFF" d="M64.029,16.541c0.326,0.945,0.824,1.789,1.306,2.642c0.288,0.513,0.787,0.877,1.325,1.157
			c1.713,0.886,3.199,0.569,4.454-0.958c0.435-0.53,0.925-1.02,1.071-1.741c0.088-0.443,0.424-0.772,0.724-1.101
			c0.532-0.58,1.073-1.154,1.608-1.731c0.002,0.002,0.004,0.002,0.008,0.005c0.603-0.651,1.283-1.246,1.794-1.963
			c0.685-0.951,1.423-1.893,1.785-3.036c0.294-0.935,0.399-1.938,1.097-2.713c0.133-0.151,0.057-0.394-0.125-0.518
			c-0.826-0.556-1.699-0.707-2.659-0.33c-1.144,0.445-2.312,0.83-3.462,1.265c-2.308,0.881-4.52,1.961-6.61,3.285
			c-0.597,0.381-1.106,0.854-1.493,1.413C63.96,13.522,63.476,14.924,64.029,16.541z"/>
		<path fill="#FFFFFF" d="M89.26,73.026c-0.371-0.319-0.766-0.613-1.148-0.915c-0.875-0.676-1.92-0.988-2.873-1.494
			c-2.323-1.23-4.796-2.052-7.395-2.498c-1.031-0.178-2.044-0.183-3.046,0.23c-1.357,0.556-2.204,2.052-1.868,3.462
			c0.285,1.183,0.93,2.158,1.962,3.207c0.157,0.181,0.595,0.394,1.071,0.553c1.265,0.427,2.576,0.642,3.892,0.851
			c0.238,0.039,0.503,0.066,0.73,0.004c0.552-0.161,1.08-0.015,1.61,0.068c1.505,0.224,3.012,0.43,4.506,0.73
			c0.577,0.116,1.096,0.018,1.592-0.147C89.844,76.554,91.023,74.55,89.26,73.026z"/>
		<path fill="#FFFFFF" d="M82.313,58.706c1.369-0.096,2.733,0.04,4.102,0.023c1.572-0.019,3.143-0.119,4.716-0.212
			c1.099-0.066,2.122-0.42,3.038-1.022c1.246-0.826,1.304-2.339,0.088-3.193c-0.84-0.585-1.7-1.146-2.684-1.508
			c-3.082-1.128-6.254-1.662-9.534-1.66c-1.146,0.005-2.165,0.125-2.639,0.93c-1.175,1.109-1.478,2.173-1.159,3.428
			c0.048,0.188,0.105,0.377,0.155,0.565c0.526,1.921,1.077,2.431,3.183,2.637C81.822,58.717,82.069,58.726,82.313,58.706z"/>
		<path fill="#FFFFFF" d="M19.941,31.783c1.003-0.125,1.756-1.065,1.694-2.067c-0.087-1.385-0.378-2.724-1.036-3.97
			c-0.602-1.133-1.281-2.214-2.103-3.199c-0.347-0.414-0.515-0.988-1.001-1.265c-0.667-0.384-1.098-0.961-1.492-1.589
			c-0.365-0.576-0.458-0.614-1.074-0.416c-1.547,0.501-3.06,1.107-4.48,1.902c-0.549,0.309-1.092,0.655-1.536,1.142
			c-0.372,0.406-0.528,0.863-0.347,1.354c0.306,0.836,0.499,1.697,0.723,2.555c0.03,0.127,0.178,0.335,0.248,0.328
			c0.918-0.133,1.549,0.574,2.34,0.784c0.885,0.234,1.445,0.778,1.816,1.591c0.24,0.533,0.494,1.083,1.018,1.396
			C16.205,31.747,18.014,32.024,19.941,31.783z"/>
		<path fill="#FFFFFF" d="M25.425,13.687c0.349,0.272,0.641,0.616,0.976,0.905c0.346,0.297,0.604,0.637,0.773,1.063
			c0.4,1.012,1.039,1.894,1.58,2.829c0.875,1.513,2.276,1.934,3.833,2.125c0.498,0.061,0.986-0.021,1.356-0.441
			c0.127-0.143,0.287-0.291,0.462-0.358c0.648-0.239,0.846-0.787,0.981-1.375c0.2-0.882,0.195-1.767-0.088-2.628
			c-0.761-2.298-1.738-4.501-2.936-6.607c-0.32-0.562-0.652-1.104-1.223-1.514c-0.508-0.843-1.316-0.925-2.182-0.667
			c-1.133,0.332-2.26,0.696-3.375,1.098c-0.781,0.28-1.207,0.981-1.666,1.618c-0.103,0.142-0.125,0.39-0.092,0.569
			C24.055,11.571,24.311,12.827,25.425,13.687z"/>
		<path fill="#FFFFFF" d="M14.882,67.363c-0.034-0.341-0.127-0.677-0.2-1.015c-0.243-1.104-0.963-1.971-1.707-2.7
			c-0.941-0.932-2.174-1.27-3.537-0.764c-0.835,0.312-1.686,0.6-2.404,1.114c-1.635,1.175-3.318,2.303-4.596,3.951
			c-0.478,0.515-0.996,1.043-1.483,1.601c-0.856,0.994-0.87,1.604-0.276,2.824c0.346,0.718,0.891,1.109,1.627,1.028
			c0.92-0.104,1.867-0.088,2.757-0.404c1.255-0.447,2.515-0.88,3.737-1.395c1.176-0.488,2.309-1.031,3.631-1.041
			c0.961-0.007,1.607-0.668,2.191-1.36C15.096,68.644,14.946,67.991,14.882,67.363z"/>
		<path fill="#FFFFFF" d="M26.473,80.367c-0.334-1.041-1.014-1.774-1.975-2.268c-0.525-0.27-1.069-0.505-1.557-0.831
			c-0.538-0.365-0.977-0.271-1.488,0.049c-0.766,0.477-1.319,1.172-2.027,1.812c-1.643,1.737-2.637,3.929-3.426,6.205
			c-0.578,1.681,0.06,3.05,1.369,4.186c0.732,0.637,1.481,0.703,2.306,0.297c0.312-0.15,0.623-0.316,0.881-0.534
			c1.312-1.113,2.729-2.08,4.183-2.99c0.285-0.183,0.563-0.394,0.813-0.623c0.798-0.726,1.216-1.608,1.303-2.707
			C26.926,82.047,26.741,81.212,26.473,80.367z"/>
		<path fill="#FFFFFF" d="M45.172,3.005c-0.254,1.217-0.285,2.427-0.049,3.663c0.338,1.787,0.631,3.584,0.889,5.384
			c0.224,1.604,1.023,2.85,2.254,3.837c1.201,0.973,2.688,0.512,3.175-0.954c0.153-0.467,0.247-0.957,0.445-1.403
			c0.585-1.306,0.64-2.681,0.491-4.045c-0.115-1.067-0.382-2.126-0.787-3.144c-0.451-1.142-0.811-2.322-1.221-3.482
			c-0.244-0.694-0.479-1.4-0.957-1.984c-0.779-0.958-2.236-1.379-3.196,0.046C45.594,1.377,45.346,2.171,45.172,3.005z"/>
		<path fill="#FFFFFF" d="M48.297,85.719c-0.489-0.308-1.079-0.452-1.541-0.84c-0.336-0.282-0.745-0.313-1.113-0.128
			c-0.881,0.451-1.723,0.959-1.908,2.069c-0.044,0.293-0.117,0.585-0.244,0.844c-0.229,0.489-0.152,0.936,0.011,1.424
			c0.397,1.16,0.849,2.294,1.132,3.496c0.262,1.104,0.8,2.117,1.789,2.935c0.664,0.855,1.668,1.087,2.715,0.721
			c1.039-0.366,1.917-1.085,2.313-2.145C52.865,90.292,51.395,87.625,48.297,85.719z"/>
		<path fill="#FFFFFF" d="M11.017,48.09c-0.328-1.02-0.854-1.978-1.193-2.993c-0.315-0.942-1.164-1.422-1.677-2.186
			c-0.668-0.991-1.578-1.15-2.713-0.879c-1.723,0.412-3.136,1.369-4.541,2.359c-0.237,0.166-0.407,0.424-0.613,0.635
			c-0.322,0.326-0.35,0.713-0.166,1.088c0.348,0.709,0.746,1.389,1.381,1.843c0.428,0.47,0.91,0.779,1.5,0.952
			c0.654,0.191,1.331,0.364,1.933,0.673c0.831,0.419,1.694,0.777,2.533,1.173c0.472,0.225,0.923,0.294,1.423,0.271
			C10.446,50.95,11.494,49.568,11.017,48.09z"/>
		<path fill="#FFFFFF" d="M72.592,87.839c-0.069-0.546-0.296-1.036-0.516-1.529c-0.176-0.404-0.402-0.789-0.563-1.199
			c-0.709-1.816-1.672-3.45-3.283-4.631c-0.642-0.533-1.285-1.066-1.926-1.603c-0.23-0.193-0.488-0.376-0.799-0.304
			c-1.039,0.254-1.95,0.705-2.355,1.79c-0.385,1.014-0.316,2.109,0.063,3.032c0.561,1.359,1.564,2.509,2.698,3.436
			c0.714,0.581,1.479,1.112,2.181,1.729c0.749,0.658,1.633,1.07,2.637,1.186C72.059,89.905,72.767,89.181,72.592,87.839z"/>
	</g>
	<g>
		<path fill="#EF6159" d="M56.029,63.563c0.299,0.896,0.516,2.636,0.651,5.218c0,0.788-1.087,1.195-3.261,1.195
			c-1.44-0.299-2.392-0.733-2.826-1.305c-0.299-0.489-0.652-1.576-1.087-3.261c-1.386-1.821-2.419-2.718-3.044-2.718v0.761
			c0,1.033,0.408,2.637,1.196,4.783c2.337,4.049,3.994,7.446,5,10.218c0.218,1.224,0.652,2.854,1.305,4.893
			c0.353,1.929,0.543,2.962,0.543,3.043v0.761c0,0.951,0.082,2.175,0.218,3.696c-0.218,0.707-0.354,1.821-0.435,3.37
			c-0.68,1.767-1.686,3.396-3.044,4.892c-0.462,0.869-1.468,1.305-3.044,1.305c-0.407,0-0.68,0.026-0.761,0.108
			c-2.718,0-4.484-1.06-5.326-3.152c-0.897-1.114-1.495-2.364-1.739-3.696c-0.517-0.733-0.762-1.549-0.762-2.392v-0.761
			c0-1.386,0.734-2.065,2.175-2.065c0-0.136,0.244-0.19,0.761-0.217c1.631,0,2.907,1.386,3.805,4.13
			c0.489,1.821,0.951,2.908,1.413,3.262h0.108c0.218-1.25,0.354-2.337,0.435-3.262c-0.189-2.717-0.57-4.782-1.087-6.195v-1.305
			c-0.407-0.245-0.815-1.305-1.195-3.152c-0.951-1.604-1.522-2.962-1.739-4.022c-2.011-3.233-3.18-5.924-3.479-8.044
			c-0.435-2.119-0.652-3.315-0.652-3.587v-1.196c0-0.163,0.027-0.299,0.108-0.435c-0.054-0.136-0.136-0.68-0.217-1.631
			c0.462-1.712,1.277-2.907,2.392-3.587c1.766-1.386,3.668-2.065,5.761-2.065C51.327,57.149,53.937,59.297,56.029,63.563z"/>
		<path fill="#EF6159" d="M74.833,58.02c1.468,0,2.364,0.57,2.718,1.739c0.788,1.793,1.604,4.593,2.392,8.37l0.652,4.021
			l-0.108,1.522c0.081,1.902,0.108,3.206,0.108,3.913c0,1.657-0.354,3.777-1.087,6.413c-0.245,4.783-0.544,7.175-0.87,7.175
			c-0.951,2.636-2.854,4.756-5.652,6.305c-2.31,1.006-4.267,1.522-5.87,1.522h-0.108l-0.218,0.108v-0.108l-0.217,0.108
			c-1.061,0-2.256-0.734-3.588-2.174c-1.141-1.495-2.229-3.506-3.261-5.979c-0.951-2.907-1.413-6.305-1.413-10.218
			c0-1.142,0.244-6.794,0.761-16.958v-1.739c0-1.304,0.517-1.956,1.521-1.956c0.815-0.354,1.658-0.544,2.501-0.544h0.651
			l0.218-0.108v0.108c0.082,0,0.108-0.027,0.108-0.108c1.413,0,2.527,0.679,3.37,2.065c0.299,1.032,0.435,1.82,0.435,2.392
			c-0.136,1.685-0.217,2.771-0.217,3.261c0,0.407,0.217,1.794,0.652,4.131c-0.082,1.739-0.19,3.125-0.326,4.131l0.217,2.718
			l-0.108,0.217c0,0.163,0.027,0.299,0.108,0.435c-0.081,0.951-0.108,1.713-0.108,2.283v1.631c0,1.114,0.136,2.663,0.435,4.674
			H68.42c0.136,0.87,0.326,1.658,0.543,2.392c0.408-0.381,0.979-2.527,1.739-6.413c0-0.463,0.326-2.365,0.979-5.653
			c0.299-1.44,0.462-4.646,0.544-9.565c0.081,0,0.136-0.435,0.217-1.305c-0.081-0.896-0.162-1.386-0.217-1.521h0.108
			c-0.136-0.381-0.217-1.224-0.217-2.501v-2.717c0-1.006,0.761-1.686,2.282-2.065H74.833z"/>
		<path fill="#EF6159" d="M100.349,56.878c1.169,0,1.739,0.407,1.739,1.195c0.109,0,0.218,0.788,0.326,2.392
			c0.436,0.951,0.734,1.712,0.87,2.283l-0.218,5.108c0.218,1.033,0.326,2.338,0.326,3.914v0.108c0,0.924-0.108,1.658-0.326,2.174
			c0.136,0.707,0.218,1.686,0.218,2.936v0.108c0,1.277-0.108,2.201-0.326,2.826c0.081,0.625,0.108,1.033,0.108,1.196
			c0,3.125-0.136,5.218-0.435,6.305c0.081,1.44,0.108,2.364,0.108,2.826c0,0.244-0.108,1.006-0.326,2.282l0.109,1.522
			c0,2.011-1.984,3.424-5.979,4.239c-1.141,0-2.146-0.761-3.043-2.283c-0.299-1.168-1.006-3.505-2.175-6.957l-1.63-5.761h-0.109
			c-0.081,0.733-0.108,1.277-0.108,1.631v0.435c0.136,3.805,0.218,5.897,0.218,6.305c-0.163,3.044-0.354,4.701-0.544,5
			c-0.979,0.652-1.875,0.979-2.718,0.979c-2.527,0-3.805-1.386-3.805-4.131c0.218-3.125,0.326-4.919,0.326-5.326
			c-0.299-2.146-0.435-3.587-0.435-4.349c0-0.244,0.082-0.733,0.218-1.521l-0.109-0.652c0.082-0.733,0.109-1.331,0.109-1.739
			c0-0.68-0.082-1.604-0.218-2.826c0.354-3.995,0.652-8.044,0.87-12.175c-0.082-1.468-0.109-2.473-0.109-3.044
			c0-1.82,0.354-2.717,1.087-2.717c0.436-0.218,0.979-0.326,1.631-0.326c2.908,0,4.349,0.326,4.349,0.978
			c0.108,0.462,0.57,1.142,1.413,2.065c0.326,0.599,0.652,1.44,0.979,2.5c0.733,0.815,1.087,1.984,1.087,3.479
			c0.869,0.843,1.304,2.147,1.304,3.914c0.571,0.788,1.061,2.636,1.413,5.544c0.218,0.054,0.326,0.462,0.326,1.195h0.109
			c0-0.517,0.189-2.582,0.543-6.196c0-1.875,0.027-2.962,0.109-3.261c-0.082-0.354-0.109-0.843-0.109-1.413v-0.652
			c0-0.381,0.027-0.707,0.109-0.979c-0.082-0.38-0.109-0.733-0.109-1.087v-1.413c0.218-1.604,0.326-2.663,0.326-3.152v-2.283
			c0-0.625,0.652-1.032,1.957-1.195H100.349z M96.762,78.944v0.326h0.108v-0.326H96.762z"/>
		<path fill="#EF6159" d="M121.245,63.563c0.299,0.896,0.516,2.636,0.651,5.218c0,0.788-1.087,1.195-3.261,1.195
			c-1.44-0.299-2.392-0.733-2.826-1.305c-0.299-0.489-0.652-1.576-1.087-3.261c-1.386-1.821-2.419-2.718-3.044-2.718v0.761
			c0,1.033,0.408,2.637,1.196,4.783c2.337,4.049,3.994,7.446,5,10.218c0.218,1.224,0.652,2.854,1.305,4.893
			c0.353,1.929,0.543,2.962,0.543,3.043v0.761c0,0.951,0.082,2.175,0.218,3.696c-0.218,0.707-0.354,1.821-0.435,3.37
			c-0.68,1.767-1.686,3.396-3.044,4.892c-0.462,0.869-1.468,1.305-3.044,1.305c-0.407,0-0.68,0.026-0.761,0.108
			c-2.718,0-4.484-1.06-5.326-3.152c-0.897-1.114-1.495-2.364-1.739-3.696c-0.517-0.733-0.762-1.549-0.762-2.392v-0.761
			c0-1.386,0.734-2.065,2.175-2.065c0-0.136,0.244-0.19,0.761-0.217c1.631,0,2.907,1.386,3.805,4.13
			c0.489,1.821,0.951,2.908,1.413,3.262h0.108c0.218-1.25,0.354-2.337,0.435-3.262c-0.189-2.717-0.57-4.782-1.087-6.195v-1.305
			c-0.407-0.245-0.815-1.305-1.195-3.152c-0.951-1.604-1.522-2.962-1.739-4.022c-2.011-3.233-3.18-5.924-3.479-8.044
			c-0.435-2.119-0.652-3.315-0.652-3.587v-1.196c0-0.163,0.027-0.299,0.108-0.435c-0.054-0.136-0.136-0.68-0.217-1.631
			c0.462-1.712,1.277-2.907,2.392-3.587c1.766-1.386,3.668-2.065,5.761-2.065C116.543,57.149,119.152,59.297,121.245,63.563z"/>
		<path fill="#EF6159" d="M139.37,55.791c1.657,0,2.636,0.354,2.935,1.087c0.517,0.462,0.761,1.957,0.761,4.457
			c0.517,1.82,0.761,3.288,0.761,4.348c0,0.299-0.081,1.006-0.217,2.174c0.136,1.387,0.299,3.588,0.435,6.632
			c0.082,0,0.108,0.081,0.108,0.217c-0.435,2.419-0.651,3.642-0.651,3.696c0,0.054,0.026,0.271,0.108,0.652
			c0,0.462-0.027,1.087-0.108,1.848c0.081,0.896,0.108,1.767,0.108,2.609l-0.435,2.064c0.217,1.088,0.326,1.984,0.326,2.718v1.522
			c0,1.168-0.109,1.956-0.326,2.391c0.081,0.408,0.108,0.68,0.108,0.87c0,1.468-0.082,2.636-0.218,3.479
			c0.218,0.57,0.326,1.195,0.326,1.848v0.218c0,0.625-0.761,1.032-2.282,1.195c-0.354,0-0.897,0.027-1.631,0.109
			c-1.413,0-2.283-0.517-2.609-1.522c-0.733-1.902-1.087-3.668-1.087-5.326v-0.218c0-0.136-0.081-0.217-0.217-0.217
			c-1.44,0-2.175,0.136-2.175,0.435v0.108c0,0.408,0.137,1.55,0.436,3.479c-0.109,1.957-0.517,2.936-1.196,2.936
			c-0.407,0.435-0.815,0.652-1.195,0.652h-0.544c-0.163,0-0.299-0.027-0.435-0.109c-0.108,0-0.517,0.299-1.195,0.87
			c-0.408,0.081-0.734,0.108-0.979,0.108h-0.87c-1.875,0-2.826-1.223-2.826-3.695c-0.517-3.099-0.761-6.495-0.761-10.219
			c0.218-0.733,0.326-4.212,0.326-10.436V76.01c0-1.196,0.19-3.261,0.543-6.196c0.218-3.669,0.326-5.788,0.326-6.413l-0.435-3.805
			c0-0.707,0.87-1.169,2.609-1.413c0.217,0,0.462,0.027,0.761,0.108c0.299-0.081,0.57-0.108,0.869-0.108
			c1.224,0,1.849,0.57,1.849,1.739c0.326,0,0.57,0.869,0.761,2.608c0,0.027-0.027,0.517-0.108,1.413
			c0.353,2.038,0.543,3.777,0.543,5.218v0.109c0,0.951-0.081,1.603-0.218,1.956c0.082,0.354,0.137,1.44,0.218,3.262
			c-0.081,1.439-0.108,2.255-0.108,2.391c0,0.87,0.244,3.044,0.761,6.522c0,1.658,0.19,3.669,0.544,5.979h0.108
			c0.951-0.217,1.549-0.326,1.848-0.326h0.326l0.108-0.543c0-1.685-0.026-3.533-0.108-5.544c0.299-2.038,0.462-3.724,0.544-5
			c-0.136-1.224-0.218-2.147-0.218-2.827c0.218-3.587,0.326-9.674,0.326-18.262c0-0.517,0.869-0.896,2.608-1.087H139.37z"/>
		<path fill="#EF6159" d="M156.705,58.535c0,1.169-0.761,2.446-2.282,3.805c0,0.137-1.196,0.3-3.614,0.517
			c-2.446-0.055-3.805-0.788-4.104-2.229l-0.3-1.875c0.163-0.706,0.517-1.44,1.061-2.174c1.604-0.517,3.261-0.761,5-0.761
			C155.292,55.818,156.705,56.715,156.705,58.535z M151.379,66.797c2.256,0,3.56,0.951,3.913,2.826
			c0.354,1.495,0.544,2.663,0.544,3.479c0,0.19-0.109,0.571-0.326,1.196c0.217,0.354,0.326,0.815,0.326,1.413v0.543
			c0,0.762-0.136,1.522-0.435,2.283l0.108,0.544v0.651c0,0.517-0.108,1.767-0.326,3.805c0,0.625,0.108,1.604,0.326,2.936
			c-0.271,2.093-0.462,3.152-0.544,3.152l0.87,8.696v0.543c0,0.68-0.734,1.114-2.174,1.305c-0.734,0.354-1.739,0.544-3.044,0.544
			h-0.544c-1.223,0-1.93-0.408-2.174-1.196c-0.517-0.354-0.761-1.331-0.761-2.935l-0.652-8.588c0-0.489,0.081-1.685,0.218-3.587
			l-0.218-4.131c0.136-1.984,0.407-4.484,0.761-7.501c0.082-1.005,0.108-2.092,0.108-3.261v-0.979c0-0.57,0.652-1.114,1.957-1.63
			c0.381-0.082,0.815-0.109,1.305-0.109H151.379z"/>
		<path fill="#EF6159" d="M175.972,56.878c1.169,0,1.739,0.407,1.739,1.195c0.109,0,0.218,0.788,0.326,2.392
			c0.436,0.951,0.734,1.712,0.87,2.283l-0.218,5.108c0.218,1.033,0.326,2.338,0.326,3.914v0.108c0,0.924-0.108,1.658-0.326,2.174
			c0.136,0.707,0.218,1.686,0.218,2.936v0.108c0,1.277-0.108,2.201-0.326,2.826c0.081,0.625,0.108,1.033,0.108,1.196
			c0,3.125-0.136,5.218-0.435,6.305c0.081,1.44,0.108,2.364,0.108,2.826c0,0.244-0.108,1.006-0.326,2.282l0.109,1.522
			c0,2.011-1.984,3.424-5.979,4.239c-1.141,0-2.146-0.761-3.043-2.283c-0.299-1.168-1.006-3.505-2.175-6.957l-1.63-5.761h-0.109
			c-0.081,0.733-0.108,1.277-0.108,1.631v0.435c0.136,3.805,0.218,5.897,0.218,6.305c-0.163,3.044-0.354,4.701-0.544,5
			c-0.979,0.652-1.875,0.979-2.718,0.979c-2.527,0-3.805-1.386-3.805-4.131c0.218-3.125,0.326-4.919,0.326-5.326
			c-0.299-2.146-0.435-3.587-0.435-4.349c0-0.244,0.082-0.733,0.218-1.521l-0.109-0.652c0.082-0.733,0.109-1.331,0.109-1.739
			c0-0.68-0.082-1.604-0.218-2.826c0.354-3.995,0.652-8.044,0.87-12.175c-0.082-1.468-0.109-2.473-0.109-3.044
			c0-1.82,0.354-2.717,1.087-2.717c0.436-0.218,0.979-0.326,1.631-0.326c2.908,0,4.349,0.326,4.349,0.978
			c0.108,0.462,0.57,1.142,1.413,2.065c0.326,0.599,0.652,1.44,0.979,2.5c0.733,0.815,1.087,1.984,1.087,3.479
			c0.869,0.843,1.304,2.147,1.304,3.914c0.571,0.788,1.061,2.636,1.413,5.544c0.218,0.054,0.326,0.462,0.326,1.195h0.109
			c0-0.517,0.189-2.582,0.543-6.196c0-1.875,0.027-2.962,0.109-3.261c-0.082-0.354-0.109-0.843-0.109-1.413v-0.652
			c0-0.381,0.027-0.707,0.109-0.979c-0.082-0.38-0.109-0.733-0.109-1.087v-1.413c0.218-1.604,0.326-2.663,0.326-3.152v-2.283
			c0-0.625,0.652-1.032,1.957-1.195H175.972z M172.385,78.944v0.326h0.108v-0.326H172.385z"/>
		<path fill="#EF6159" d="M188.934,59.351c0.299-0.136,0.761-0.217,1.358-0.217c1.875,0.189,3.614,0.326,5.272,0.407
			c1.06,0.57,1.576,1.277,1.576,2.147c-0.951,1.929-2.854,2.88-5.68,2.88h-1.277l-0.517,0.109v-0.109l-0.217,0.109
			c-0.137-0.082-0.272-0.109-0.408-0.109c-0.218,0.544-0.326,1.061-0.326,1.522v0.217c0,0.544,0.027,1.25,0.108,2.147l-0.516,1.44
			c0.108,1.005,0.244,1.521,0.407,1.521s0.68-0.027,1.576-0.108c2.745,0.625,4.104,1.087,4.104,1.331
			c0.435,0.381,0.652,0.788,0.652,1.25c-0.462,1.087-1.331,1.631-2.636,1.631c-0.218,0-1.277,0.354-3.18,1.033h-0.408l0.109,0.189
			c0,0.19-0.027,0.299-0.109,0.299c0.082,0.815,0.109,1.387,0.109,1.739v1.55c0,0.462-0.082,1.521-0.218,3.18
			c0.082,0.543,0.218,1.032,0.435,1.439l-0.108,1.224v1.005c0,2.555,0.136,4.321,0.408,5.327c-0.082,0.706-0.109,1.25-0.109,1.657
			v0.19c0,0.407,0.245,0.625,0.734,0.625c1.276,0,2.581-0.082,3.913-0.218c1.685,0,2.527,0.408,2.527,1.224
			c-0.734,2.038-3.125,2.989-7.175,2.907c-3.206,0.245-5.462-0.054-6.794-0.924c-0.788-3.614-1.195-7.175-1.195-10.68
			c0-1.088,0.081-2.419,0.217-3.995c-0.136-0.489-0.299-1.604-0.435-3.37l0.218-2.364c-0.082-0.163-0.136-1.331-0.218-3.479
			l0.517-6.658c-0.136-0.435-0.19-0.733-0.19-0.924v-0.407c0-0.326,0.027-0.652,0.108-1.006c-0.081-0.462-0.136-0.788-0.217-0.924
			c0.081-0.571,0.108-1.06,0.108-1.44v-2.146c0-0.571,0.761-1.169,2.31-1.739c0.788,0,1.169-0.027,1.169-0.109
			C187.004,58.916,188.336,59.134,188.934,59.351z"/>
	</g>
	<g>
		<path fill="#6A2242" d="M86.23,30.254c0.116,0,0.219,0.503,0.31,1.495c0.657,2.953,1.187,5.171,1.599,6.653
			c0.039,0.064,0.09,0.297,0.154,0.723h0.052c0-0.207,0.155-0.98,0.465-2.321v-0.052c0-0.516,0.013-1.341,0.051-2.476
			c-0.103-0.541-0.154-0.992-0.154-1.341v-0.67c0-0.323,0.013-0.723,0.052-1.187l-0.052-0.31c0-0.619,0.528-0.929,1.599-0.929h0.258
			c0.284,0,0.478,0.22,0.567,0.671c0.271,2.385,0.723,4.925,1.341,7.633c0,0.142,0.064,0.838,0.207,2.114v0.517
			c0,0.464-0.039,0.838-0.104,1.134c0.039,0.181,0.052,0.349,0.052,0.517c-0.232,2.54-0.438,3.816-0.619,3.816
			c-0.193,0.813-0.426,1.405-0.722,1.805c-0.143,0.696-0.361,1.199-0.671,1.496c-0.877,0.799-1.444,1.225-1.702,1.289
			c-0.541,0.206-0.863,0.31-0.979,0.31l-0.361-0.052l-0.722,0.052c-0.271,0-0.619-0.168-1.032-0.516
			c-0.683,0-1.147-1.019-1.392-3.043c-0.064-0.206-0.104-0.658-0.104-1.341v-0.155c0-0.09,0.039-0.554,0.104-1.393v-0.567
			c0-0.541,0.373-0.863,1.134-0.979c0.49-0.142,0.968-0.206,1.444-0.206h0.206c0.181,0,0.297,0.451,0.361,1.341
			c0.052,0.181,0.155,0.915,0.31,2.218c0.142,0.425,0.206,0.734,0.206,0.928c1.135-1.83,1.702-3.571,1.702-5.209
			c-0.025-0.786-0.077-1.186-0.154-1.186c-0.658,0.451-1.535,0.67-2.631,0.67H86.85c-1.264,0-2.153-0.813-2.683-2.424
			c-0.348-0.696-0.605-2.037-0.773-4.022c-0.038-1.741-0.09-3.469-0.154-5.158c0-0.258,0.426-0.451,1.289-0.567
			C85.663,29.674,86.23,29.905,86.23,30.254z"/>
		<path fill="#6A2242" d="M101.063,34.199c0.477,1.16,0.722,2.398,0.722,3.714c0.039,0,0.052,0.09,0.052,0.258
			c0,0.064-0.064,0.425-0.206,1.083c0.168,0.838,0.258,1.805,0.258,2.888v0.104c0,0.734-0.104,1.688-0.31,2.888
			c0,0.709-0.297,1.521-0.877,2.424c-0.154,0.761-0.425,1.135-0.825,1.135c-0.167,0.451-0.528,0.671-1.083,0.671
			c-0.219,0-0.645-0.064-1.289-0.206c-0.645,0.142-1.07,0.206-1.289,0.206h-0.207c-0.89,0-1.521-0.619-1.908-1.856
			c-0.374-0.684-0.696-1.741-0.979-3.146c0-0.245-0.013-0.374-0.052-0.412l0.104-0.98c-0.039-0.555-0.052-1.058-0.052-1.495v-0.207
			c0-1.56,0.09-2.372,0.258-2.424c-0.039-0.064-0.052-0.116-0.052-0.154c0-0.31,0.155-1.045,0.464-2.218
			c0-0.451,0.349-1.65,1.032-3.61c0.322-0.387,0.632-0.606,0.928-0.671c0.813-0.31,1.65-0.464,2.527-0.464
			C99.671,31.724,100.6,32.549,101.063,34.199z M97.711,34.354c-0.142,0.503-0.297,1.444-0.464,2.837v0.877
			c0,0.116-0.052,0.232-0.155,0.361v0.206c0,0.902-0.038,1.47-0.103,1.702c0.038,0.231,0.052,0.425,0.052,0.567v0.516
			c0,1.225,0.193,2.823,0.567,4.796h0.051c0.297-0.412,0.555-1.276,0.774-2.578c0.142-1.019,0.206-2.051,0.206-3.095
			c0-0.528-0.064-1.405-0.206-2.63v-0.259c0-0.142,0.013-0.335,0.051-0.567c-0.271-1.108-0.516-2.023-0.722-2.733H97.711z"/>
		<path fill="#6A2242" d="M110.378,30.77c0.696,0,1.121,0.271,1.289,0.825c0.374,0.851,0.761,2.179,1.135,3.972l0.31,1.908
			l-0.052,0.722c0.038,0.902,0.052,1.521,0.052,1.856c0,0.787-0.168,1.792-0.516,3.043c-0.116,2.27-0.259,3.404-0.413,3.404
			c-0.451,1.25-1.354,2.256-2.682,2.991c-1.096,0.477-2.024,0.722-2.785,0.722h-0.052l-0.104,0.052v-0.052l-0.103,0.052
			c-0.503,0-1.07-0.348-1.702-1.031c-0.541-0.709-1.058-1.663-1.547-2.837c-0.451-1.38-0.671-2.991-0.671-4.848
			c0-0.542,0.116-3.224,0.361-8.046v-0.825c0-0.619,0.245-0.929,0.722-0.929c0.387-0.167,0.787-0.258,1.187-0.258h0.31l0.103-0.051
			v0.051c0.039,0,0.052-0.013,0.052-0.051c0.671,0,1.199,0.322,1.599,0.979c0.143,0.49,0.207,0.864,0.207,1.135
			c-0.064,0.799-0.104,1.315-0.104,1.547c0,0.193,0.104,0.852,0.31,1.96c-0.039,0.825-0.091,1.482-0.155,1.96l0.104,1.289
			l-0.052,0.104c0,0.077,0.013,0.142,0.052,0.206c-0.039,0.451-0.052,0.813-0.052,1.083v0.773c0,0.529,0.064,1.264,0.206,2.218
			h-0.051c0.064,0.413,0.154,0.787,0.258,1.135c0.193-0.181,0.464-1.199,0.825-3.043c0-0.219,0.154-1.121,0.464-2.682
			c0.142-0.684,0.219-2.205,0.258-4.538c0.039,0,0.064-0.207,0.104-0.619c-0.039-0.426-0.077-0.658-0.104-0.723h0.052
			c-0.064-0.18-0.104-0.58-0.104-1.186v-1.29c0-0.477,0.361-0.799,1.083-0.979H110.378z"/>
		<path fill="#6A2242" d="M125.021,30.938c0.58,0,1.238,0.734,1.96,2.218c0,0.348,0.168,0.786,0.516,1.289
			c0.142,0.734,0.271,1.237,0.361,1.495c0.167,0.517,0.258,0.89,0.258,1.135c0,0.091-0.039,0.193-0.104,0.31
			c0.142,0,0.258,0.529,0.361,1.599c0.271,0.813,0.412,1.625,0.412,2.425c0.091,0.271,0.168,0.631,0.207,1.083l-0.155,0.928
			c0.142,0.374,0.206,0.619,0.206,0.723c0,0.064-0.038,0.244-0.103,0.516c0.103,0.245,0.154,0.464,0.154,0.67
			c-0.038,0.349-0.052,0.555-0.052,0.619c0.104,0,0.207,0.31,0.31,0.929l-0.052,0.103v0.052c0.104,1.405,0.155,2.153,0.155,2.27
			v0.258c0,0.516-0.142,0.773-0.413,0.773c-0.31,0.168-0.709,0.258-1.186,0.258c-0.813,0-1.303-0.167-1.444-0.516
			c-0.748-1.482-1.174-3.082-1.289-4.797c-0.039-0.103-0.413-0.167-1.135-0.206h-0.31c-0.039,0-0.091,0.064-0.155,0.206l0.052,0.104
			v0.31c0,0.181-0.052,0.451-0.154,0.825c0.077,0.516,0.129,0.773,0.154,0.773c-0.064,0.297-0.219,0.684-0.464,1.135
			c0,0.645-0.116,1.019-0.361,1.135c-0.271,0.206-0.477,0.31-0.619,0.31c-0.967,0-1.547-0.399-1.753-1.187V48.06
			c0-0.915,0.116-2.102,0.361-3.559c0-0.193-0.014-0.632-0.052-1.289c0.271-1.496,0.67-3.958,1.186-7.375
			c0.452-1.896,0.671-3.056,0.671-3.456c0.142-0.348,0.478-0.618,0.979-0.825c0.116-0.412,0.606-0.618,1.444-0.618H125.021z
			 M124.454,36.816c-0.168,1.521-0.374,2.901-0.619,4.126v0.104c0,0.297,0.014,0.605,0.052,0.928
			c-0.104,0.517-0.154,0.968-0.154,1.342c0.348,0.038,0.605,0.051,0.773,0.051h0.464v-0.051c0-0.168-0.038-0.555-0.103-1.135
			c0.103-0.542,0.154-0.993,0.154-1.341v-0.258c0-1.097-0.168-2.36-0.516-3.766H124.454z"/>
		<path fill="#6A2242" d="M136.605,30.318c0.606,0.593,1.045,1.831,1.341,3.713c0.039,0.606,0.052,0.968,0.052,1.083
			c-0.271,2.683-0.516,4.023-0.722,4.023c0,0.129-0.258,0.541-0.773,1.237c-0.581,0.478-0.968,0.825-1.135,1.032l-0.052,0.103
			c0.89,1.019,1.444,1.935,1.65,2.733c0,0.22,0.258,0.813,0.773,1.754c0,0.129,0.322,1.147,0.98,3.043
			c0.064,0.271,0.103,0.567,0.103,0.877v0.154c0,0.478-0.167,0.761-0.516,0.877c-0.477,0.142-0.851,0.219-1.135,0.258
			c-0.761,0-1.289-0.464-1.599-1.393c-0.206-0.58-0.555-1.276-1.031-2.114c-0.193-0.839-0.413-1.47-0.671-1.908
			c-0.103-0.245-0.154-0.413-0.154-0.517h-0.052c0,0.143-0.039,0.503-0.104,1.084c0.014,0.412,0.052,0.618,0.104,0.618
			c-0.064,0.143-0.104,0.426-0.104,0.825v0.98c0,0.116-0.013,0.271-0.051,0.464c0.142,0.374,0.206,0.709,0.206,1.031
			c0,0.387-0.426,0.632-1.29,0.723c-0.773,0-1.225-0.155-1.341-0.465c-0.477-1.611-0.722-3.804-0.722-6.602l-0.258-2.991
			l0.104-0.928c-0.065-0.451-0.104-0.903-0.104-1.342v-0.464c0-0.438,0.013-0.915,0.052-1.444c-0.039-0.142-0.052-0.271-0.052-0.412
			l0.104-0.619c-0.065-0.49-0.104-1.019-0.104-1.599c0.181-1.496,0.426-2.488,0.722-2.991c0.104,0,0.245-0.258,0.413-0.773
			c0.761-0.684,1.534-1.032,2.32-1.032c0.014,0,0.245-0.013,0.671-0.051C135.433,29.287,136.231,29.635,136.605,30.318z
			 M133.099,33.206c0,0.684,0.09,1.586,0.258,2.733v0.258c0,0.116-0.013,0.271-0.052,0.465c0.142,0.451,0.207,1.07,0.207,1.856
			l0.051,0.206c0.787-0.683,1.187-2.063,1.187-4.126c0-1.767-0.361-2.965-1.083-3.61h-0.052c-0.297,0-0.464,0.658-0.516,1.96V33.206
			z M133.614,45.12v0.104h0.052V45.12H133.614z"/>
		<path fill="#6A2242" d="M143.264,31.401c0.143-0.064,0.361-0.104,0.646-0.104c0.89,0.091,1.715,0.155,2.501,0.193
			c0.503,0.271,0.748,0.606,0.748,1.019c-0.451,0.916-1.354,1.367-2.695,1.367h-0.605l-0.245,0.052v-0.052l-0.104,0.052
			c-0.064-0.039-0.129-0.052-0.193-0.052c-0.103,0.258-0.154,0.503-0.154,0.722v0.104c0,0.258,0.013,0.593,0.052,1.019l-0.245,0.684
			c0.052,0.477,0.116,0.722,0.193,0.722s0.322-0.013,0.748-0.052c1.302,0.297,1.946,0.516,1.946,0.632
			c0.207,0.181,0.31,0.374,0.31,0.594c-0.219,0.516-0.632,0.773-1.251,0.773c-0.103,0-0.605,0.167-1.508,0.49h-0.193l0.051,0.09
			c0,0.09-0.013,0.142-0.051,0.142c0.038,0.387,0.051,0.658,0.051,0.825v0.735c0,0.219-0.038,0.722-0.103,1.509
			c0.038,0.258,0.103,0.489,0.206,0.683l-0.052,0.58v0.478c0,1.212,0.064,2.05,0.193,2.527c-0.038,0.335-0.052,0.593-0.052,0.786
			v0.091c0,0.193,0.116,0.296,0.349,0.296c0.606,0,1.225-0.038,1.856-0.103c0.8,0,1.199,0.193,1.199,0.58
			c-0.348,0.967-1.482,1.418-3.404,1.379c-1.521,0.116-2.591-0.025-3.223-0.438c-0.374-1.715-0.567-3.404-0.567-5.067
			c0-0.516,0.038-1.147,0.103-1.896c-0.064-0.232-0.142-0.761-0.206-1.599l0.104-1.122c-0.039-0.077-0.064-0.632-0.104-1.65
			l0.245-3.159c-0.064-0.206-0.09-0.348-0.09-0.438v-0.193c0-0.154,0.013-0.31,0.051-0.477c-0.038-0.22-0.064-0.374-0.103-0.438
			c0.038-0.271,0.052-0.503,0.052-0.684v-1.019c0-0.271,0.36-0.555,1.096-0.825c0.374,0,0.555-0.013,0.555-0.052
			C142.349,31.195,142.98,31.298,143.264,31.401z"/>
		<path fill="#6A2242" d="M159.454,33.335c0.348,0.684,0.722,1.689,1.135,3.043h0.052c1.121-2.669,1.817-4.139,2.114-4.384
			c0.451-0.374,1.16-0.567,2.114-0.567h0.206c0.271,0,0.413,0.22,0.413,0.671c0,0.104,0.052,0.555,0.154,1.341
			c0,0.219-0.038,0.567-0.103,1.031l0.412,5.055v0.773c0,0.142-0.013,0.335-0.052,0.567c0.104,0.219,0.168,0.451,0.207,0.671
			c-0.143,0.451-0.207,0.799-0.207,1.031v0.206c0.207,1.341,0.31,2.386,0.31,3.146c0,2.54-0.09,3.816-0.258,3.816
			c-0.348,0.348-0.657,0.516-0.928,0.516c-0.761,0-1.432-0.413-2.012-1.238v-1.856c0-0.219,0.013-0.451,0.052-0.67l-0.104-1.444
			c0.039-0.271,0.052-0.542,0.052-0.825l-0.206-2.631l0.103-1.031v-0.052h-0.051c-0.271,1.432-0.529,2.282-0.774,2.579
			c-0.219,0.168-0.489,0.297-0.825,0.412c-1.135,0-1.701-0.142-1.701-0.412c-0.143-0.297-0.297-0.993-0.465-2.063h-0.052v0.104
			c0.039,0.593,0.052,0.941,0.052,1.031c0,0.929-0.09,2.23-0.258,3.92c0.104,0.413,0.155,0.709,0.155,0.877
			c0,0.129-0.052,0.541-0.155,1.237l0.052,0.104c0,0.555-0.684,0.89-2.063,0.979h-1.134c-0.658,0-0.98-1.069-0.98-3.197
			c-0.038,0-0.052-0.116-0.052-0.361c0.039-1.663,0.091-2.9,0.155-3.713c0-1.405-0.039-2.772-0.104-4.126
			c0-0.193,0.064-0.941,0.206-2.27v-0.67c0-0.116,0.014-0.193,0.052-0.258l-0.052-0.259c0-2.204,0.168-3.301,0.517-3.301
			c0.477-0.103,0.838-0.154,1.083-0.154C157.455,30.963,158.436,31.749,159.454,33.335z M158.99,40.813v0.155h0.051v-0.155H158.99z"
			/>
		<path fill="#6A2242" d="M169.917,30.254c0.116,0,0.219,0.503,0.31,1.495c0.657,2.953,1.187,5.171,1.599,6.653
			c0.039,0.064,0.09,0.297,0.154,0.723h0.052c0-0.207,0.155-0.98,0.465-2.321v-0.052c0-0.516,0.013-1.341,0.051-2.476
			c-0.103-0.541-0.154-0.992-0.154-1.341v-0.67c0-0.323,0.013-0.723,0.052-1.187l-0.052-0.31c0-0.619,0.528-0.929,1.599-0.929h0.258
			c0.284,0,0.478,0.22,0.567,0.671c0.271,2.385,0.723,4.925,1.341,7.633c0,0.142,0.064,0.838,0.207,2.114v0.517
			c0,0.464-0.039,0.838-0.104,1.134c0.039,0.181,0.052,0.349,0.052,0.517c-0.232,2.54-0.438,3.816-0.619,3.816
			c-0.193,0.813-0.426,1.405-0.722,1.805c-0.143,0.696-0.361,1.199-0.671,1.496c-0.877,0.799-1.444,1.225-1.702,1.289
			c-0.541,0.206-0.863,0.31-0.979,0.31l-0.361-0.052l-0.722,0.052c-0.271,0-0.619-0.168-1.032-0.516
			c-0.683,0-1.147-1.019-1.392-3.043c-0.064-0.206-0.104-0.658-0.104-1.341v-0.155c0-0.09,0.039-0.554,0.104-1.393v-0.567
			c0-0.541,0.373-0.863,1.134-0.979c0.49-0.142,0.968-0.206,1.444-0.206h0.206c0.181,0,0.297,0.451,0.361,1.341
			c0.052,0.181,0.155,0.915,0.31,2.218c0.142,0.425,0.206,0.734,0.206,0.928c1.135-1.83,1.702-3.571,1.702-5.209
			c-0.025-0.786-0.077-1.186-0.154-1.186c-0.658,0.451-1.535,0.67-2.631,0.67h-0.154c-1.264,0-2.153-0.813-2.683-2.424
			c-0.348-0.696-0.605-2.037-0.773-4.022c-0.038-1.741-0.09-3.469-0.154-5.158c0-0.258,0.426-0.451,1.289-0.567
			C169.35,29.674,169.917,29.905,169.917,30.254z"/>
	</g>
</g>
</svg>
