<?xml version="1.0" encoding="utf-8"?>
<!-- Generator: Adobe Illustrator 16.0.0, SVG Export Plug-In . SVG Version: 6.00 Build 0)  -->
<!DOCTYPE svg PUBLIC "-//W3C//DTD SVG 1.1//EN" "http://www.w3.org/Graphics/SVG/1.1/DTD/svg11.dtd">
<svg version="1.1" id="Layer_1" xmlns="http://www.w3.org/2000/svg" xmlns:xlink="http://www.w3.org/1999/xlink" x="0px" y="0px"
	 width="62.848px" height="113.896px" viewBox="0 0 62.848 113.896" enable-background="new 0 0 62.848 113.896"
	 xml:space="preserve">
<path fill="#999999" d="M39.896,52.846V36.409h2v-8h-2.457H25.407h-1.511v8h2v16.438c-14,3.188-24.652,15.685-24.652,30.628
	c0,17.354,13.945,31.423,31.301,31.423c17.354,0,31.592-14.068,31.592-31.423C64.136,68.53,53.896,56.034,39.896,52.846z"/>
<path fill="#999999" d="M26.223,8.588l-0.308,0.308l-0.308-0.308c-1.115-1.114-2.925-1.113-4.038,0l-0.041,0.041
	c-1.115,1.116-1.116,2.926,0,4.039l0.305,0.308l4.082,4.081l4.081-4.081l0.307-0.308c1.115-1.113,1.114-2.923,0-4.039L30.26,8.588
	C29.145,7.473,27.338,7.473,26.223,8.588z"/>
<g>
	<path fill="#FFFFFF" d="M38.439,51.846v-16.08h2.041v-8.135h-2.041H24.407h-2.042v8.135h2.042v16.08
		C10.432,55.034,0,67.53,0,82.474c0,17.354,14.068,31.423,31.423,31.423c17.355,0,31.425-14.068,31.425-31.423
		C62.847,67.53,52.413,55.034,38.439,51.846z"/>
	<g>
		<rect x="26.487" y="30.259" fill="#F6E4E7" width="1.006" height="20.613"/>
	</g>
	<g>
		<rect x="29" y="36.269" fill="#F6E4E7" width="1.008" height="7.563"/>
	</g>
	<g>
		<g>
			<g>
				<path fill="#FFFFFF" d="M32.378,3.393c-0.273,0-0.497-0.224-0.497-0.497V0.497C31.881,0.223,32.104,0,32.378,0
					c0.274,0,0.497,0.224,0.497,0.497v2.398C32.875,3.17,32.652,3.393,32.378,3.393z"/>
			</g>
			<g>
				<path fill="#FFFFFF" d="M33.578,2.193h-2.399c-0.274,0-0.497-0.224-0.497-0.497c0-0.274,0.223-0.497,0.497-0.497h2.399
					c0.274,0,0.497,0.223,0.497,0.497C34.075,1.969,33.853,2.193,33.578,2.193z"/>
			</g>
		</g>
	</g>
	<g>
		<g>
			<g>
				<path fill="#F6E4E7" d="M33.274,49.231c-0.274,0-0.497-0.223-0.497-0.497v-2.396c0-0.274,0.223-0.498,0.497-0.498
					c0.273,0,0.497,0.224,0.497,0.498v2.396C33.771,49.01,33.549,49.231,33.274,49.231z"/>
			</g>
			<g>
				<path fill="#F6E4E7" d="M34.475,48.032h-2.4c-0.273,0-0.497-0.222-0.497-0.497c0-0.274,0.224-0.497,0.497-0.497h2.4
					c0.272,0,0.496,0.223,0.496,0.497C34.971,47.811,34.748,48.032,34.475,48.032z"/>
			</g>
		</g>
	</g>
	<g>
		<g>
			<g>
				<path fill="#FFFFFF" d="M35.008,24.14c-0.273,0-0.496-0.224-0.496-0.497v-6.449c0-0.274,0.223-0.497,0.496-0.497
					c0.274,0,0.497,0.223,0.497,0.497v6.449C35.505,23.917,35.282,24.14,35.008,24.14z"/>
			</g>
			<g>
				<path fill="#FFFFFF" d="M38.234,20.917h-6.45c-0.274,0-0.497-0.223-0.497-0.497c0-0.273,0.223-0.497,0.497-0.497h6.45
					c0.273,0,0.497,0.224,0.497,0.497C38.731,20.694,38.509,20.917,38.234,20.917z"/>
			</g>
		</g>
	</g>
	<g>
		<g>
			<g>
				<path fill="#FFFFFF" d="M45.381,16.772c-0.273,0-0.497-0.224-0.497-0.497V4.117c0-0.274,0.224-0.497,0.497-0.497
					c0.274,0,0.497,0.223,0.497,0.497v12.158C45.878,16.55,45.655,16.772,45.381,16.772z"/>
			</g>
			<g>
				<path fill="#FFFFFF" d="M51.463,10.694H39.301c-0.273,0-0.496-0.223-0.496-0.497S39.026,9.7,39.301,9.7h12.162
					c0.274,0,0.497,0.223,0.497,0.497S51.737,10.694,51.463,10.694z"/>
			</g>
		</g>
	</g>
	<g>
		<path fill="#FC611F" d="M28.997,11.975l0.307-0.308c1.115-1.113,1.114-2.923,0-4.039L29.26,7.588
			c-1.114-1.114-2.922-1.114-4.036,0l-0.308,0.308l-0.308-0.308c-1.115-1.114-2.925-1.113-4.038,0l-0.041,0.041
			c-1.115,1.116-1.116,2.926,0,4.039l0.305,0.308l4.082,4.081L28.997,11.975z"/>
		<path fill="#DE3F18" d="M29.303,7.629L29.26,7.588c-1.114-1.114-2.922-1.114-4.036,0l-0.308,0.308v8.161l4.081-4.081l0.307-0.308
			C30.419,10.554,30.418,8.745,29.303,7.629z"/>
	</g>
	<g>
		<path fill="#FC611F" d="M56.35,92.115l0.489-0.49c1.784-1.781,1.783-4.674,0-6.457l-0.067-0.065c-1.783-1.782-4.672-1.782-6.455,0
			l-0.491,0.489l-0.491-0.489c-1.783-1.782-4.674-1.781-6.455,0l-0.065,0.065c-1.783,1.783-1.783,4.676,0,6.457l0.487,0.49
			l6.524,6.525L56.35,92.115z"/>
		<path fill="#DE3F18" d="M56.84,85.168l-0.067-0.065c-1.783-1.782-4.672-1.782-6.455,0l-0.491,0.489v13.05l6.524-6.525l0.489-0.49
			C58.624,89.844,58.623,86.951,56.84,85.168z"/>
	</g>
	<g>
		<path fill="#FC611F" d="M30.778,85.638l0.71-0.712c2.59-2.586,2.588-6.781,0-9.372l-0.098-0.096c-2.591-2.588-6.782-2.588-9.37,0
			l-0.714,0.713l-0.711-0.713c-2.589-2.588-6.785-2.586-9.371,0l-0.098,0.096c-2.587,2.591-2.588,6.786,0,9.372l0.711,0.712
			l9.469,9.472L30.778,85.638z"/>
		<path fill="#DE3F18" d="M31.488,75.554l-0.098-0.096c-2.591-2.588-6.782-2.588-9.37,0l-0.714,0.713V95.11l9.472-9.472l0.71-0.712
			C34.078,82.341,34.076,78.145,31.488,75.554z"/>
	</g>
	<g>
		<path fill="#FC611F" d="M44.488,67.646l0.547-0.547c1.996-1.992,1.994-5.228,0-7.223l-0.076-0.072
			c-1.994-1.994-5.225-1.994-7.217,0l-0.55,0.549l-0.55-0.549c-1.992-1.994-5.228-1.991-7.22,0l-0.073,0.072
			c-1.993,1.995-1.994,5.229,0,7.223l0.547,0.547l7.296,7.297L44.488,67.646z"/>
		<path fill="#DE3F18" d="M45.035,59.877l-0.076-0.072c-1.994-1.994-5.225-1.994-7.217,0l-0.55,0.549v14.59l7.296-7.297l0.547-0.547
			C47.031,65.106,47.029,61.872,45.035,59.877z"/>
	</g>
	<path fill="#FC611F" d="M4.739,89.552c3.058,11.884,13.845,20.663,26.684,20.663s23.625-8.779,26.684-20.663H4.739z"/>
	<path fill="#DE3F18" d="M49.853,89.552c-4.137,10.21-13.219,17.88-24.278,20.041c1.885,0.407,3.842,0.622,5.849,0.622
		c12.839,0,23.625-8.779,26.684-20.663H49.853z"/>
</g>
</svg>
