<?xml version="1.0" encoding="utf-8"?>
<!-- Generator: Adobe Illustrator 16.0.0, SVG Export Plug-In . SVG Version: 6.00 Build 0)  -->
<!DOCTYPE svg PUBLIC "-//W3C//DTD SVG 1.1//EN" "http://www.w3.org/Graphics/SVG/1.1/DTD/svg11.dtd">
<svg version="1.1" id="Layer_1" xmlns="http://www.w3.org/2000/svg" xmlns:xlink="http://www.w3.org/1999/xlink" x="0px" y="0px"
	 width="149.772px" height="93.863px" viewBox="0 0 149.772 93.863" enable-background="new 0 0 149.772 93.863"
	 xml:space="preserve">
<g>
	<path fill="#FFFFFF" d="M10.419,12.202c4.678,1.033,6.954,5.877,8.582,9.854c3.82,9.323,6.858,22.72,7.283,33.296
		c0.182,4.516-2.023,10.396-5.971,12.377c-5.661,2.841-9.985-3.652-11.746-8.133c-2.486-6.319-3.395-13.928-5.451-20.285
		c-1.404-4.339-2.531-20.441-3.035-15.861C-0.326,27.151,0.475,10.01,10.419,12.202z"/>
	<path fill="#FFFFFF" d="M118.482,8.866c3.504-4.95,8.795,4.165,13.292,4.097c6.18-0.093,12.164-5.091,15.888,1.644
		c4.563,8.255,0.767,23.172-2.398,31.232c-3.724,9.487-16.999,16.988-25.41,10.033c-4.931-4.078-8.179-5.616-9.021-12.017
		c-0.852-6.488-1.519-13.467-0.028-19.983c1.13-4.93,3.179-11.808,7.2-15.016L118.482,8.866z"/>
	<g>
		<path fill="#FFFFFF" d="M20.373,19.047C24.422,8.773,34.729,7.154,44.577,6.478c5.753-0.394,10.336,0.083,15.702,2.349
			c3.593,1.519,8.199,4.992,11.907,4.633c4.411-0.431,7.888-7.3,11.766-8.958c4.379-1.877,12.13-3.26,16.537-4.056
			c22.873-4.133,26.333,21.401,26.286,38.527c-0.014,4.829,3.286,10.886,3.232,14.568c-0.083,5.654-2.849,8.503-4.59,13.153
			c-3.301,8.817-0.865,19.877-14.417,21.6c-4.475,0.57-13.55-2.357-17.032-4.726c-5.167,6.292-31.682,16.644-33.718,5.055
			c-11.156-0.028-29.648,13.402-35.221-4.585c-2.26-7.293,0.797-10.936-1.477-17.654c-1.236-3.647-4.391-4.394-4.406-8.286
			c-0.007-1.715,3.367-6.253,3.797-8.19C22.944,49.907,17.169,27.18,20.373,19.047z"/>
		<g>
			<g>
				<path fill="#BE1E2D" d="M61.212,62.063c9.327,5.444,20.645,1.287,7.455-9.717c-3.721-3.105-11.723-5.105-14.003-8.516
					c-3.349-5.006-2.546-8.92-0.119-12.357c5.794-8.215-26.146-12.552-28.562-3.031c-1.57,6.181,3.54,20.714,3.45,23.076
					c-0.104,2.957-2.606,5.562-2.317,8.472c0.594,5.99,9.863,12.713,15.641,14.181c8.507,2.159,12.326-4.075,15.706-10.849
					L61.212,62.063z"/>
				<path fill="#231F20" d="M46.011,75.322C46.01,75.322,46.011,75.322,46.011,75.322c-1.082,0-2.235-0.154-3.431-0.457
					c-6.076-1.544-15.547-8.441-16.177-14.806c-0.174-1.74,0.521-3.325,1.19-4.859c0.556-1.269,1.079-2.467,1.123-3.708
					c0.025-0.652-0.518-2.813-1.093-5.103c-1.374-5.471-3.45-13.738-2.335-18.125c0.945-3.727,6.004-5.952,13.532-5.952
					c6.709,0,14.854,1.959,16.735,5.588c0.461,0.89,0.761,2.303-0.426,3.985c-2.697,3.82-2.657,7.381,0.129,11.546
					c1.186,1.771,4.294,3.238,7.301,4.657c2.403,1.134,4.888,2.307,6.565,3.706c6.219,5.188,6.714,8.511,6.035,10.384
					c-0.687,1.896-2.812,2.983-5.828,2.983c-2.583,0-5.536-0.834-8.157-2.295l-2.185,1.001
					C56.066,69.698,52.629,75.322,46.011,75.322z M38.821,23.746c-5.272,0-11.232,1.28-12.143,4.871
					c-1.025,4.036,0.997,12.093,2.336,17.424c0.768,3.055,1.166,4.687,1.136,5.504c-0.054,1.513-0.658,2.895-1.243,4.23
					c-0.624,1.427-1.214,2.775-1.078,4.143c0.564,5.689,9.552,12.146,15.104,13.558c1.079,0.273,2.114,0.412,3.077,0.412
					c5.891,0.001,8.948-5.149,11.811-10.887l0.113-0.227l3.317-1.519l0.321,0.188c2.487,1.452,5.315,2.284,7.76,2.284
					c2.343,0,4.018-0.761,4.48-2.037c0.345-0.95,0.487-3.711-5.605-8.794c-1.537-1.283-3.938-2.416-6.259-3.511
					c-3.33-1.571-6.476-3.055-7.881-5.157c-3.122-4.667-3.157-8.852-0.109-13.169c0.628-0.891,0.734-1.708,0.324-2.499
					C52.907,25.906,45.972,23.746,38.821,23.746z"/>
			</g>
			<path fill="#77111A" d="M56.267,19.296c5.916,4.01-0.738,7.301-3.547,10.887c-1.645,2.103-4.033,7.43-2.336,11.142
				c1.013,2.209,5.645,6.44-1.503,4.543c-11.592-3.075-9.083-9.478-9.488-11.52C37.13,22.961,49.974,15.025,56.267,19.296z"/>
			<path fill="#77111A" d="M54.924,63.417c0,0-17.996,0.041-21.317-7.243c-3.325-7.277-4.361,0.826-4.48,4.6
				c-0.112,3.776,14.678,17.991,24.151,6.931C53.803,67.091,54.924,63.417,54.924,63.417z"/>
			<g>
				<path fill="#231F20" d="M44.26,87.185c-3.626,0-6.532-1.137-8.583-2.857c-4.257-3.572-5.137-9.635-2.189-15.087
					c0.188-0.349,0.624-0.479,0.972-0.29c0.349,0.188,0.479,0.624,0.29,0.972c-2.615,4.837-1.872,10.185,1.85,13.307
					c4.26,3.575,12.726,4.271,24.028-3.981c-0.284-0.848-0.391-1.719-0.301-2.581c0.652-6.313,3.023-8.897,5.025-9.21
					c1.21-0.187,2.344,0.46,2.867,1.658c0.899,2.054,0.146,5.882-4.938,9.913c-0.299,0.237-0.595,0.468-0.891,0.692
					c0.544,1.005,1.409,1.952,2.543,2.747c2.717,1.907,6.065,2.366,8.534,1.172c2.576-1.246,4.069-4.174,4.317-8.465
					c0.023-0.396,0.396-0.698,0.757-0.675c0.396,0.023,0.697,0.362,0.675,0.757c-0.354,6.117-2.982,8.637-5.125,9.674
					c-2.929,1.417-6.846,0.911-9.981-1.289c-1.252-0.878-2.229-1.929-2.88-3.061C54.605,85.358,48.855,87.184,44.26,87.185z
					 M65.773,68.856c-0.065,0-0.133,0.006-0.201,0.017c-1.132,0.177-3.211,2.048-3.82,7.94c-0.052,0.5-0.016,1.008,0.102,1.512
					c0.178-0.139,0.357-0.278,0.537-0.421c4.753-3.77,5.074-6.938,4.516-8.216C66.671,69.151,66.265,68.856,65.773,68.856z"/>
			</g>
			<g>
				<path fill="#BE1E2D" d="M50.449,29.56c4.247-0.53,16.489,7.812,20.271,4.398c7.997-7.225-5.951-15.553-14.097-19.869
					C46.44,8.694,21.9,14.815,25.915,34.667c0.403,1.994,7.905-5.773,9.822,1.161C37.056,39.787,36.124,31.353,50.449,29.56z"/>
				<path fill="#231F20" d="M36.354,37.713L36.354,37.713c-0.873,0-1.185-0.937-1.412-1.62c-0.583-2.104-1.573-2.368-2.372-2.368
					c-1.204,0-2.673,0.709-3.854,1.278c-1.013,0.489-1.743,0.842-2.369,0.842c-0.647,0-1.128-0.388-1.254-1.012
					c-1.18-5.832-0.028-11.085,3.329-15.189c4.982-6.091,13.316-8.262,19.455-8.262c3.552,0,6.713,0.68,9.14,1.966
					C63.909,17,73.159,22.549,73.903,28.541c0.272,2.19-0.608,4.223-2.62,6.04c-0.765,0.689-1.827,1.039-3.158,1.039
					c-2.803,0-6.479-1.5-10.035-2.95c-3.095-1.263-5.994-2.47-7.537-2.277c-8.69,1.088-11.523,4.689-12.733,6.228
					C37.32,37.254,36.96,37.713,36.354,37.713z M32.569,32.047c1.356,0,3.14,0.608,3.96,3.498c1.354-1.72,4.508-5.653,13.815-6.818
					c1.906-0.234,5.038,1.027,8.379,2.39c3.247,1.324,6.928,2.825,9.401,2.825c0.916,0,1.581-0.198,2.033-0.606
					c1.604-1.448,2.284-2.949,2.08-4.587C71.515,22.93,60.012,16.833,56.231,14.83c-2.155-1.142-5.122-1.77-8.354-1.77
					c-7.23,0-14.356,3.001-18.156,7.646c-2.993,3.658-4.022,8.159-3.063,13.382c0.358-0.128,0.9-0.39,1.328-0.596
					C29.32,32.848,30.981,32.047,32.569,32.047z"/>
			</g>
			<path fill="#BE1E2D" d="M34.887,38.558c0,0-5.424-5.694-3.369,0.009c1.158,3.203-3.682,0.944-4.183,0.026
				c-0.796-1.463-0.949-6.598-0.949-6.598s10.338-2.668,10.155,3.563C35.259,36.984,34.887,38.558,34.887,38.558z"/>
			<path fill="#77111A" d="M56.238,28.422c0,0-10.097-3.013-16.899,2.162c-3.766,2.857-6.376,0.771-4.824-1.806
				c1.553-2.572,17.044-9.137,23.96-6.714c5.009,1.757,5.168,3.713,4.39,6.038C62.022,30.612,58.61,29.356,56.238,28.422z"/>
			<g>
				<defs>
					<path id="SVGID_3_" d="M49.933,29.271c3.982-0.498,15.471,7.346,19.018,4.138c7.501-6.782-5.59-14.607-13.23-18.663
						c-9.556-5.071-32.575,0.668-28.805,19.313c0.379,1.871,7.414-5.42,9.217,1.092C37.372,38.872,36.496,30.948,49.933,29.271z"/>
				</defs>
				<clipPath id="SVGID_2_">
					<use xlink:href="#SVGID_3_"  overflow="visible"/>
				</clipPath>
				<g clip-path="url(#SVGID_2_)">
					<path fill="#FFFFFF" d="M55.747,13.477c-0.648-2.488-1.842-8.021-4.805-5.165c-0.981,1-2.118,2.943-3.05,3.645
						c-1.172,0.923-1.778-1.414-2.746-2.606c-1.694-2.081-2-2.106-2.757,0.62c-0.343,1.132-0.955,4.284-1.616,4.693
						c-0.6,0.37-2.414-1.366-3.387-1.767c-1.674-0.829-2.928-1.599-2.474,1.294c0.325,1.962,1.441,3.941-0.291,3.538
						c-1.131-0.225-2.553-0.871-3.962-1.021c-0.859-0.047,0.963,2.983,1.707,3.712c0.879,0.839,2.135,1.864,1.702,0.508
						c-0.364-1.386-1.53-2.34,0.716-1.486c0.99,0.351,2.638,1.532,2.825,0.648c0.2-0.904-0.872-4.944-0.27-4.626
						c2.247,1.246,4.013,3.9,4.98,0.21c0.377-1.384,0.984-3.27,1.522-2.983c0.81,0.427,1.747,1.96,2.324,2.701
						c1.051,1.318,1.091,1.917,2.619,0.228c0.861-0.905,1.518-2.169,2.545-3.082c1.855-1.523,1.939,1.684,2.232,3.328
						c0.19,0.793,1.155,2.407,2.122,0.236C56.018,15.348,56.035,14.189,55.747,13.477z"/>
					<path fill="#FFFFFF" d="M51.568,16.324c0.891,0.029,0.771,2.125-0.364,2.738c-1.296,0.914-1.185-2.04,0.241-2.727
						C51.486,16.331,51.527,16.328,51.568,16.324z"/>
					<path fill="#FFFFFF" d="M43.551,17.509c0.957-1.814,1.788,1.146,0.948,2.153C43.842,20.614,43.176,18.837,43.551,17.509z"/>
					<path fill="#FFFFFF" d="M39.136,19.076c0.97-0.405,1.611,2.531,0.925,2.877C39.481,22.246,38.296,19.586,39.136,19.076z"/>
					<path fill="#FFFFFF" d="M35.725,21.352c0.62-0.354,1.787,1.515,1.496,1.904C36.928,23.651,35.29,21.811,35.725,21.352z"/>
					<path fill="#FFFFFF" d="M32.373,12.48c1.784,0.192,1.704,3.069,0.397,2.65C31.32,14.86,30.725,12.626,32.373,12.48z"/>
					<path fill="#FFFFFF" d="M39.722,8.056c1.165,1.102,0.169,2.848-0.583,2.428C37.159,9.167,38.848,7.318,39.722,8.056z"/>
					<path fill="#FFFFFF" d="M47.715,6.19c0.997-1.312,2.145,0.756,1.299,1.794C47.986,9.417,47.326,6.666,47.715,6.19z"/>
				</g>
			</g>
		</g>
		<g>
			<g>
				<path fill="#BE1E2D" d="M89.387,59.407c-9.692,7.199-20.309,3.922-8.639-8.682c3.294-3.557,10.973-6.564,12.798-10.238
					c2.68-5.395,1.489-8.321-1.465-12.271c-6.02-8.052,24.322-15.796,27.939-6.664c2.348,5.93-0.857,20.998-0.469,23.329
					c0.482,2.917,3.298,5.183,3.385,8.105c0.179,6.017-8.152,13.869-13.696,16.063c-8.161,3.234-12.748-2.462-16.966-8.746
					L89.387,59.407z"/>
				<path fill="#231F20" d="M104.753,70.703c-5.79,0-9.572-4.804-12.933-9.789l-2.302-0.715c-3.254,2.344-6.758,3.683-9.66,3.684
					c-0.001,0-0.001,0-0.001,0c-2.295,0-3.934-0.858-4.615-2.417c-0.792-1.813-0.571-5.232,4.979-11.228
					c1.485-1.604,3.8-3.084,6.038-4.516c2.8-1.792,5.695-3.646,6.645-5.555c2.466-4.964,1.562-7.566-1.397-11.521
					c-1.054-1.409-1.216-2.941-0.47-4.431c2.216-4.423,11.958-7.505,19.316-7.505c5.494,0,9.164,1.626,10.333,4.578
					c1.668,4.211,0.666,12.682,0.003,18.286c-0.276,2.339-0.537,4.548-0.431,5.188c0.203,1.226,0.876,2.347,1.589,3.534
					c0.862,1.436,1.754,2.92,1.806,4.668c0.189,6.394-8.32,14.444-14.149,16.752C107.854,70.371,106.255,70.703,104.753,70.703z
					 M89.252,58.614l3.477,1.081l0.142,0.21c3.312,4.935,6.713,9.364,11.883,9.364c1.32,0,2.741-0.298,4.224-0.885
					c5.326-2.108,13.413-9.661,13.243-15.376c-0.041-1.374-0.799-2.637-1.601-3.973c-0.751-1.251-1.527-2.544-1.774-4.037
					c-0.135-0.805,0.052-2.471,0.421-5.592c0.646-5.462,1.622-13.716,0.088-17.591c-0.924-2.334-4.204-3.672-9-3.672
					c-7.541,0-16.306,3.263-18.035,6.713c-0.5,0.999-0.39,1.958,0.337,2.93c3.188,4.263,4.301,7.446,1.532,13.02
					c-1.125,2.265-4.054,4.139-7.155,6.123c-2.162,1.384-4.397,2.814-5.758,4.283c-5.486,5.925-5.128,8.742-4.719,9.679
					c0.593,1.354,2.322,1.557,3.302,1.557c0,0,0,0,0.001,0c2.649,0,6.052-1.352,9.101-3.616L89.252,58.614z"/>
			</g>
			<path fill="#77111A" d="M90.069,15.847c-6.162,5.646-0.944,6.774,2.959,10.775c2.287,2.346,4.461,6.902,3.146,11.639
				c-0.781,2.817,0.235,7.077,7.133,1.699c3.995-3.116,4.007-7.069,4.116-9.607C108.021,16.203,96.626,9.84,90.069,15.847z"/>
			<path fill="#77111A" d="M95.798,59.948c0,0,17.85-2.267,20.214-9.914c2.363-7.646,4.43,0.259,5.029,3.985
				c0.597,3.732-12.251,19.725-23.062,9.97C97.379,63.448,95.798,59.948,95.798,59.948z"/>
			<g>
				<path fill="#231F20" d="M80.334,84.24c-0.947,0-1.866-0.148-2.715-0.477c-1.555-0.603-3.495-2.082-3.913-5.707
					c-0.096-0.817-0.503-5.012,0.866-7.17c0.646-1.017,1.702-1.523,2.637-1.255c0.95,0.271,2.09,1.374,2.121,5.087
					c0.003,0.396-0.314,0.72-0.711,0.723c-0.002,0-0.004,0-0.006,0c-0.394,0-0.714-0.316-0.717-0.711
					c-0.021-2.523-0.596-3.582-1.082-3.721c-0.304-0.086-0.739,0.185-1.031,0.645c-0.921,1.451-0.844,4.604-0.653,6.237
					c0.271,2.341,1.282,3.866,3.008,4.535c2.672,1.035,6.977-0.171,10.006-2.809c0.979-0.852,1.705-1.753,2.155-2.648
					c-0.263-0.152-0.528-0.31-0.795-0.47c-5.557-3.348-6.795-7.048-6.166-9.2c0.372-1.274,1.422-2.05,2.632-2.011
					c2.025,0.053,4.709,2.311,6.166,8.489c0.194,0.823,0.169,1.684-0.063,2.548c12.317,6.797,20.657,5.021,24.436,0.922
					c3.291-3.574,3.344-8.973,0.13-13.436c-0.231-0.321-0.158-0.77,0.163-1.001c0.323-0.23,0.77-0.158,1.001,0.163
					c3.622,5.03,3.525,11.156-0.239,15.244c-4.132,4.487-13.063,6.536-26.017-0.546c-0.536,1.045-1.364,2.073-2.461,3.027
					C86.816,82.675,83.421,84.24,80.334,84.24z M85.896,66.722c-0.569,0-0.999,0.355-1.182,0.98
					c-0.392,1.339,0.334,4.439,5.53,7.569c0.176,0.106,0.353,0.211,0.527,0.313c0.09-0.508,0.081-1.004-0.03-1.478
					c-1.361-5.766-3.663-7.355-4.809-7.386C85.92,66.722,85.908,66.722,85.896,66.722z"/>
			</g>
			<g>
				<path fill="#BE1E2D" d="M95.896,25.797c-4.279,0.019-15.349,9.86-19.542,6.958c-8.855-6.141,3.912-16.189,11.438-21.511
					c9.408-6.657,34.531-3.728,33.093,16.476c-0.144,2.026-8.579-4.713-9.594,2.408C110.491,34.227,110.333,25.739,95.896,25.797z"
					/>
				<path fill="#231F20" d="M78.281,34.13c-0.939,0-1.748-0.23-2.404-0.685c-2.228-1.545-3.362-3.448-3.372-5.656
					c-0.028-6.042,8.435-12.728,14.803-17.23c3.011-2.13,7.551-3.352,12.457-3.352c7.139,0,13.514,2.449,17.492,6.721
					c3.36,3.608,4.862,8.269,4.465,13.852c-0.038,0.543-0.415,1.177-1.351,1.178c-0.579,0-1.303-0.241-2.219-0.546
					c-1.075-0.357-2.412-0.803-3.528-0.803c-1.052,0-2.171,0.313-2.502,2.638c-0.147,0.758-0.358,1.84-1.335,1.84
					c-0.538,0-0.905-0.36-1.46-0.904c-1.387-1.36-4.635-4.546-13.284-4.546h-0.144c-1.505,0.007-4.39,1.643-7.179,3.224
					C85.019,31.958,81.19,34.129,78.281,34.13C78.282,34.13,78.282,34.13,78.281,34.13z M99.765,8.885
					c-4.566,0-8.754,1.109-11.488,3.044c-3.492,2.47-14.12,9.985-14.094,15.854c0.008,1.65,0.875,3.052,2.65,4.283
					c0.375,0.26,0.849,0.386,1.448,0.386c0.001,0,0.001,0,0.001,0c2.465,0,6.261-2.152,9.61-4.052c3.25-1.842,6.056-3.434,8-3.441
					l0.15-0.001c9.27,0,12.875,3.474,14.427,4.994c0.478-3.315,2.522-4.021,4.154-4.021c1.388,0,2.868,0.492,4.059,0.889
					c0.51,0.169,1.032,0.343,1.392,0.419c0.261-4.911-1.1-9.003-4.046-12.166C112.421,11.198,106.341,8.885,99.765,8.885z"/>
			</g>
			<path fill="#BE1E2D" d="M112.485,32.726c0,0,4.648-6.34,3.342-0.424c-0.738,3.324,3.771,0.465,4.15-0.509
				c0.604-1.554,0.097-6.665,0.097-6.665s-10.594-1.323-9.612,4.835C111.912,31.212,112.485,32.726,112.485,32.726z"/>
			<path fill="#77111A" d="M85.071,27.147c0,0,8.341-6.436,16.549-4.052c4.539,1.321,6.227-1.566,3.854-3.41
				c-2.371-1.849-19.188-2.417-24.773,2.33c-4.044,3.436-3.492,5.319-1.929,7.21C80.457,31.267,83.191,28.869,85.071,27.147z"/>
			<g>
				<defs>
					<path id="SVGID_5_" d="M96.374,25.444c-4.015,0.016-14.403,9.263-18.33,6.54c-8.309-5.767,3.67-15.205,10.729-20.206
						c8.828-6.255,32.396-3.511,31.042,15.465c-0.138,1.904-8.048-4.426-9.001,2.265C110.063,33.354,109.915,25.387,96.374,25.444z"
						/>
				</defs>
				<clipPath id="SVGID_4_">
					<use xlink:href="#SVGID_5_"  overflow="visible"/>
				</clipPath>
				<g clip-path="url(#SVGID_4_)">
					<path fill="#FFFFFF" d="M89.984,11.619c-0.03-2.078-0.049-7.566,3.445-5.729c1.16,0.683,2.578,2.318,3.545,2.815
						c1.22,0.662,1.443-1.852,2.206-3.366c1.333-2.643,1.678-2.814,2.781-0.159c0.499,1.083,1.39,4.272,2.058,4.535
						c0.609,0.235,2.341-2.164,3.327-2.904c1.681-1.417,2.968-2.686,2.761,0.688c-0.168,2.297-1.312,4.772,0.599,3.888
						c1.259-0.53,2.813-1.627,4.387-2.188c0.975-0.284-0.736,3.849-1.543,4.841c-0.93,1.179-2.352,2.532-1.966,0.882
						c0.316-1.673,1.573-3.031-0.945-1.565c-1.112,0.617-2.928,2.297-3.142,1.384c-0.2-0.925,0.739-5.646,0.099-5.133
						c-2.329,2.021-3.895,5.311-5.015,1.608c-0.449-1.387-1.23-3.211-1.719-2.759c-0.729,0.667-1.421,2.485-1.839,3.358
						c-0.774,1.568-0.659,2.13-2.255,0.7c-0.904-0.759-1.721-1.865-2.852-2.525c-2.044-1.037-1.449,1.926-1.283,3.313
						c0.022,0.724-0.377,1.974-1.903,0.41C90.209,13.175,89.887,12.267,89.984,11.619z"/>
					<path fill="#FFFFFF" d="M94.508,13.515c-0.783,0.136-0.122,1.867,0.971,2.39c1.223,0.842,0.506-1.895-0.86-2.39
						C94.581,13.515,94.545,13.515,94.508,13.515z"/>
					<path fill="#FFFFFF" d="M101.564,13.47c-1.021-1.687-1.464,1.577-0.674,2.473C101.489,16.833,101.986,14.795,101.564,13.47z"/>
					<path fill="#FFFFFF" d="M105.866,14.036c-0.993-0.174-1.575,3.153-0.925,3.342C105.517,17.554,106.762,14.373,105.866,14.036z"
						/>
					<path fill="#FFFFFF" d="M109.663,15.701c-0.729-0.265-2.011,2.039-1.677,2.391C108.354,18.473,110.213,16.149,109.663,15.701z"
						/>
					<path fill="#FFFFFF" d="M112.689,4.79c-1.898,0.79-1.548,3.983-0.141,3.151C114.15,7.222,114.509,4.416,112.689,4.79z"/>
					<path fill="#FFFFFF" d="M104.396,2.303c-1.026,1.554,0.176,3.109,0.896,2.425C107.188,2.666,105.188,1.214,104.396,2.303z"/>
					<path fill="#FFFFFF" d="M96.155,2.889c-1.237-0.981-1.945,1.387-0.929,2.157C96.474,6.189,96.624,3.251,96.155,2.889z"/>
				</g>
			</g>
		</g>
	</g>
	<g>
		<path fill="#231F20" d="M125.508,15.41c0.088,0.018,0.166,0.078,0.238,0.185c0.071,0.106,0.15,0.167,0.239,0.185
			c0.706,0.369,1.095,0.605,1.166,0.712c0.176,0.034,0.305,0.083,0.385,0.144c0.079,0.063,0.171,0.184,0.272,0.363
			c0.102,0.182,0.192,0.303,0.273,0.363c-0.131,0.662-0.32,1.153-0.566,1.471c0.018,0.142,0.093,0.283,0.227,0.424
			c0.133,0.141,0.186,0.277,0.16,0.41c-0.018,0.088-0.058,0.172-0.118,0.251c-0.063,0.08-0.137,0.169-0.225,0.266
			c-0.088,0.098-0.163,0.186-0.225,0.266c0.124,0.299,0.125,0.529,0.003,0.688c0.018,0.141,0.114,0.229,0.291,0.263l-0.026,0.133
			c-0.018,0.089,0.016,0.21,0.102,0.364c0.083,0.153,0.122,0.254,0.113,0.297c0.035,0.282,0.036,0.513,0.001,0.688
			c-0.018,0.089-0.201,0.557-0.553,1.404c0.071,0.106,0.095,0.226,0.069,0.357c-0.009,0.045-0.036,0.12-0.08,0.226
			s-0.073,0.203-0.091,0.291l-0.039,0.199c-0.009,0.045,0.027,0.211,0.106,0.502l-0.039,0.199c-0.018,0.089-0.056,0.219-0.111,0.391
			c-0.058,0.173-0.095,0.303-0.111,0.391c-0.035,0.178-0.027,0.362,0.028,0.557c-0.026,0.132-0.093,0.234-0.198,0.305
			c-0.026,0.133-0.035,0.406-0.023,0.82c0.009,0.415-0.008,0.732-0.051,0.953l-0.053,0.265c-0.026,0.133-0.103,0.29-0.229,0.471
			c-0.129,0.182-0.2,0.316-0.218,0.405c-0.009,0.044,0.074,0.198,0.253,0.462c0.001,0.459-0.007,0.733-0.023,0.821
			c0.221,0.273,0.331,0.639,0.334,1.098c0.025,0.098-0.01,0.159-0.106,0.186c-0.105,0.071-0.162,0.129-0.171,0.172
			c-0.042,0.91-0.066,1.387-0.075,1.43c0.025,0.098,0.018,0.257-0.025,0.477l-0.092,0.464c-0.087,0.441-0.131,0.777-0.129,1.007
			c-0.018,0.088-0.012,0.228,0.021,0.416c0.032,0.19,0.034,0.352,0.008,0.483c0.025,0.098,0.027,0.212,0.001,0.345
			c-0.034,0.176-0.055,0.391-0.058,0.642c-0.004,0.252,0,0.527,0.009,0.827c0.01,0.301,0.019,0.543,0.029,0.729l-0.185,0.582
			c-0.078,0.397-0.096,0.601-0.051,0.609c0.018,0.141,0.089,0.361,0.214,0.661c0.124,0.3,0.204,0.477,0.239,0.529l0.373,0.555
			c0.371,0.44,0.8,0.708,1.285,0.804c0.495,0.052,0.873-0.011,1.139-0.188c0.264-0.177,0.466-0.618,0.605-1.325l0.065-0.331
			c0.008-0.044,0.038-0.084,0.092-0.12c0.052-0.034,0.083-0.074,0.092-0.119l0.421-0.742l0.053-0.266l0.156-0.794
			c0.026-0.133,0.127-0.296,0.304-0.49c-0.106-0.159-0.155-0.26-0.147-0.305c0.647-2.118,0.987-3.383,1.023-3.788
			c0.017-0.088,0.029-0.212,0.038-0.371c0.007-0.158,0.021-0.281,0.039-0.371c0.008-0.043,0.031-0.107,0.072-0.191
			c0.038-0.084,0.063-0.147,0.072-0.192c0.017-0.088,0.027-0.201,0.032-0.337c0.002-0.138,0.01-0.228,0.019-0.271
			c0.034-0.176,0.12-0.435,0.255-0.775c0.137-0.34,0.213-0.554,0.23-0.643c0.018-0.088,0.026-0.189,0.025-0.305
			c0-0.114,0.005-0.193,0.014-0.238c0.018-0.088,0.086-0.212,0.21-0.371c0.009-0.044-0.003-0.104-0.034-0.179
			c-0.031-0.075-0.037-0.155-0.02-0.245c0.185-0.238,0.303-0.49,0.355-0.755c0.034-0.176,0.06-0.48,0.076-0.914
			c0.016-0.432,0.047-0.758,0.091-0.979l0.025-0.133c0.009-0.043,0.011-0.111,0.005-0.205c-0.005-0.092-0.001-0.161,0.008-0.205
			l0.365-1.854l0.222-1.126l0.443-2.251l0.395-0.954l0.091-0.463c0.035-0.176,0.094-0.418,0.177-0.723
			c0.082-0.304,0.142-0.545,0.177-0.722l0.078-0.397c0.158-0.106,0.384-0.199,0.674-0.279l0.675-0.28
			c0.149-0.063,0.498-0.085,1.046-0.069l0.847-0.108c0.044,0.009,0.149,0.054,0.318,0.132c0.166,0.079,0.273,0.123,0.317,0.131
			c0.486,0.096,0.745,0.171,0.781,0.224c0.459-0.001,0.798,0.02,1.02,0.063l0.266,0.053c0.264,0.052,0.597,0.222,1.001,0.507
			c0.401,0.285,0.713,0.449,0.934,0.493c0.23,0.459,0.426,0.75,0.586,0.873c-0.018,0.089,0.004,0.206,0.066,0.356
			c0.063,0.149,0.089,0.248,0.081,0.291c0.025,0.098,0.021,0.234-0.014,0.41c-0.018,0.089-0.061,0.252-0.13,0.49
			c-0.071,0.238-0.118,0.424-0.144,0.557c-0.009,0.045-0.026,0.133-0.053,0.265l-0.092,0.12c-0.009,0.044,0,0.114,0.026,0.211
			c0.026,0.098,0.035,0.168,0.026,0.211c-0.025,0.133-0.088,0.328-0.183,0.584c-0.096,0.256-0.157,0.45-0.184,0.582
			c-0.053,0.266-0.049,0.473,0.015,0.623c-0.236,0.504-0.368,0.821-0.395,0.954c-0.052,0.265-0.033,0.521,0.055,0.767
			c-0.053,0.036-0.094,0.132-0.124,0.285c-0.03,0.155-0.055,0.277-0.071,0.365c-0.009,0.044-0.066,0.102-0.172,0.172
			c-0.107,0.071-0.176,0.195-0.211,0.372c-0.034,0.177-0.009,0.503,0.082,0.979l-0.091,0.464c-0.07,0.354-0.233,0.597-0.489,0.729
			c-0.113,0.574-0.222,0.897-0.327,0.968c-0.018,0.089-0.005,0.137,0.039,0.146c0.071,0.106,0.104,0.182,0.095,0.225
			c-0.063,0.08-0.106,0.186-0.133,0.318c-0.018,0.088-0.028,0.2-0.031,0.338c-0.004,0.137-0.01,0.228-0.019,0.271
			c0.061,0.149,0.109,0.365,0.147,0.647l-0.17,0.861c-0.069,0.354-0.074,0.604-0.012,0.754c-0.018,0.089-0.063,0.149-0.138,0.18
			c-0.076,0.031-0.121,0.091-0.139,0.179c-0.018,0.089,0.005,0.266,0.068,0.529c0.062,0.265,0.079,0.463,0.053,0.596
			c-0.009,0.045-0.074,0.146-0.197,0.305c0.026,0.098,0.001,0.344-0.077,0.742c0.081,0.291,0.117,0.459,0.108,0.502l-0.039,0.199
			c-0.053,0.265-0.115,0.459-0.185,0.583c-0.009,0.044-0.075,0.146-0.197,0.305c-0.07,0.124-0.137,0.341-0.197,0.648
			c-0.069,0.354-0.128,0.938-0.173,1.755c-0.048,0.816-0.132,1.419-0.253,1.808c-0.009,0.044-0.038,0.13-0.087,0.258
			c-0.048,0.128-0.08,0.237-0.097,0.325c-0.15,0.292-0.32,0.693-0.514,1.206c-0.359,0.892-0.654,1.453-0.882,1.684
			c-0.229,0.229-0.371,0.363-0.423,0.397c-0.281,0.266-0.45,0.417-0.502,0.452l-0.078,0.397c-0.098,0.026-0.215,0.095-0.35,0.205
			c-0.138,0.111-0.254,0.181-0.351,0.207c-0.063,0.08-0.134,0.157-0.218,0.232c-0.084,0.076-0.135,0.157-0.152,0.245
			c-1.039,0.392-2.211,0.87-3.517,1.439l-0.33-0.065c-0.273,0.221-0.438,0.351-0.488,0.386c-0.133-0.026-0.321-0.006-0.563,0.061
			c-0.242,0.067-0.43,0.088-0.562,0.062c-0.099,0.027-0.224,0.024-0.378-0.006s-0.292-0.033-0.41-0.012
			c-0.119,0.022-0.21,0.073-0.271,0.152c-0.097,0.027-0.28,0.025-0.548-0.005c-0.271-0.029-0.479-0.014-0.629,0.049
			c-0.037-0.053-0.122-0.082-0.259-0.086c-0.137-0.003-0.228-0.011-0.271-0.019c-0.054,0.035-0.42,0.032-1.1-0.01
			c-0.575-0.113-0.989-0.219-1.245-0.315c-0.256-0.095-0.605-0.244-1.047-0.446c-0.441-0.201-0.773-0.324-0.994-0.368
			c-0.044-0.009-0.146-0.074-0.304-0.197c-1.077-0.12-1.821-0.542-2.229-1.265c-0.177-0.035-0.374-0.143-0.59-0.322
			c-0.217-0.181-0.392-0.284-0.524-0.311l-0.277,0.015c-0.372-0.44-0.709-0.712-1.009-0.817c-0.105-0.159-0.352-0.368-0.735-0.627
			c-0.386-0.259-0.618-0.534-0.698-0.825c-0.512-0.192-0.782-0.452-0.809-0.778c-0.248-0.141-0.492-0.418-0.731-0.832
			c-0.24-0.414-0.376-0.648-0.412-0.701c0.018-0.088,0.015-0.191-0.007-0.311c-0.022-0.118-0.008-0.195,0.045-0.232
			c-0.044-0.008-0.099-0.019-0.166-0.032c-0.065-0.013-0.139-0.05-0.218-0.112c-0.027-0.096-0.125-0.356-0.294-0.779
			s-0.25-0.771-0.24-1.045c0.018-0.088,0.016-0.203-0.001-0.344c-0.02-0.143-0.023-0.234-0.015-0.278
			c0.018-0.089,0.016-0.317-0.001-0.688c-0.02-0.37-0.007-0.666,0.036-0.887c0.044-0.221,0.101-0.394,0.17-0.518
			c-0.123-0.299-0.066-0.586,0.17-0.86c-0.08-0.291-0.082-0.749-0.003-1.377c0.077-0.626,0.125-0.983,0.143-1.072
			c0.026-0.132,0.024-0.362-0.002-0.688c-0.028-0.325-0.028-0.556-0.003-0.688c0.018-0.088,0.03-0.211,0.04-0.37
			c0.007-0.159,0.02-0.281,0.037-0.371c0.053-0.265,0.167-0.609,0.343-1.033l-0.041-0.146c-0.026-0.097-0.058-0.172-0.093-0.225
			l0.065-0.331c0.043-0.221,0.083-0.545,0.122-0.974c0.039-0.428,0.08-0.751,0.123-0.974c0.018-0.087,0.06-0.183,0.125-0.285
			c0.064-0.101,0.104-0.174,0.112-0.218c0.026-0.133,0.049-0.311,0.071-0.536c0.021-0.225,0.045-0.404,0.071-0.537
			c0.018-0.088,0.072-0.248,0.164-0.483c0.092-0.233,0.15-0.417,0.177-0.55c0.025-0.132,0.061-0.366,0.104-0.701
			c0.042-0.336,0.082-0.592,0.117-0.769c0.043-0.22,0.055-0.401,0.038-0.542c0.06-0.08,0.171-0.173,0.33-0.279
			c0.009-0.044-0.006-0.093-0.041-0.146c-0.079-0.061-0.11-0.135-0.093-0.225c0.07-0.123,0.135-0.339,0.196-0.648l0.326-1.656
			c-0.026-0.096-0.022-0.232,0.013-0.41c0.034-0.176,0.157-0.564,0.367-1.166l0.208-1.06c0.174-0.882,0.363-1.486,0.564-1.814
			c-0.054-0.193-0.075-0.313-0.066-0.357c0.018-0.088,0.219-0.3,0.606-0.637c0.053-0.034,0.114-0.115,0.186-0.238l0.157-0.106
			c0.159-0.106,0.749-0.311,1.773-0.614l0.594-0.227c0.424-0.055,0.922-0.024,1.496,0.088c0.176,0.035,0.429,0.097,0.756,0.184
			c0.325,0.088,0.556,0.144,0.688,0.17c0.089,0.018,0.234,0.036,0.438,0.052C125.34,15.389,125.463,15.4,125.508,15.41z"/>
	</g>
	<g>
		<path fill="#231F20" d="M6.158,20.471l0.467-0.137l0.535,0.097c0.518-0.151,0.811-0.207,0.878-0.173
			c0.089-0.08,0.263-0.16,0.522-0.236c0.154-0.046,0.442-0.072,0.861-0.084c0.42-0.009,0.731-0.046,0.939-0.106
			c0.187,0.059,0.47,0.116,0.853,0.173c0.382,0.057,0.679,0.11,0.892,0.161c0.211,0.052,0.445,0.179,0.703,0.385
			c0.257,0.207,0.457,0.456,0.602,0.753c0.081,0.089,0.215,0.162,0.4,0.22c0.187,0.059,0.313,0.106,0.379,0.142
			c0.067,0.037,0.141,0.143,0.221,0.316c0.078,0.175,0.125,0.287,0.141,0.338c0.015,0.053,0.056,0.098,0.123,0.133l0.124,0.133
			l0.137,0.467c0.015,0.052,0.114,0.15,0.296,0.293c0.183,0.144,0.29,0.268,0.32,0.369c0.03,0.105,0.08,0.23,0.152,0.379
			c0.071,0.147,0.147,0.267,0.23,0.354c0.03,0.104,0.094,0.226,0.192,0.366c0.096,0.141,0.153,0.236,0.169,0.287l0.068,0.233
			c0.03,0.104,0.058,0.251,0.085,0.438c0.027,0.191,0.05,0.311,0.064,0.361c0.015,0.053,0.089,0.115,0.224,0.188
			c0.03,0.104,0.113,0.291,0.249,0.56c0.134,0.271,0.226,0.483,0.271,0.639c0.209,0.332,0.317,0.611,0.326,0.832
			c0.031,0.105,0.067,0.276,0.11,0.518c0.041,0.241,0.087,0.438,0.133,0.594l0.091,0.312c0.284,0.591,0.466,1.018,0.542,1.276
			c0.091,0.312,0.107,0.56,0.051,0.745c0.015,0.052,0.062,0.122,0.144,0.21c0.083,0.09,0.14,0.186,0.169,0.289
			c0.016,0.052,0.021,0.121,0.02,0.205c-0.005,0.086,0.002,0.155,0.017,0.206l0.124,0.133c0.016,0.053,0.03,0.104,0.045,0.155
			l0.023,0.078c-0.037,0.066-0.048,0.127-0.033,0.178c0.016,0.052,0.063,0.166,0.143,0.338c0.078,0.176,0.133,0.313,0.164,0.417
			l0.123,0.132c0.082,0.091,0.131,0.16,0.146,0.211c0.03,0.104,0.05,0.268,0.06,0.49c-0.074,0.135-0.096,0.252-0.065,0.356
			c0.016,0.052,0.066,0.179,0.154,0.376c0.085,0.201,0.145,0.353,0.175,0.456c-0.021,0.12-0.025,0.205-0.01,0.256
			c0.016,0.053,0.053,0.182,0.113,0.389s0.039,0.327-0.063,0.356c0.23,0.215,0.377,0.426,0.437,0.632
			c0.016,0.053,0.036,0.173,0.064,0.36c0.026,0.191,0.056,0.337,0.085,0.439c-0.072,0.135-0.093,0.252-0.063,0.357
			c0.305,1.43,0.422,2.211,0.349,2.345c0.293,0.421,0.521,0.917,0.688,1.486c0.122,0.416,0.16,0.743,0.118,0.979
			c0.224,0.385,0.376,0.706,0.451,0.965c0.076,0.26,0.077,0.457,0.004,0.59c0.081,0.09,0.182,0.285,0.299,0.588
			c0.116,0.303,0.19,0.507,0.221,0.61l-0.165,0.302c0.082,0.09,0.154,0.236,0.215,0.443c0.062,0.209,0.109,0.475,0.149,0.8
			c0.038,0.327,0.083,0.567,0.128,0.723l0.092,0.312c-0.081,0.305-0.14,0.492-0.176,0.559c0.137,0.465,0.186,0.733,0.15,0.799
			l0.137,0.467c0.166,0.571,0.211,1.204,0.135,1.902l0.465,1.298c0.213,0.727,0.135,1.227-0.235,1.503
			c0.066,0.039,0.115,0.109,0.146,0.211c0.031,0.105,0.017,0.249-0.04,0.436c-0.06,0.186-0.072,0.33-0.042,0.434
			c-0.074,0.136-0.243,0.424-0.506,0.867c-0.266,0.443-0.511,0.754-0.739,0.933l-0.289,0.169c-0.516,0.546-0.825,0.833-0.929,0.863
			c-1.297,0.38-2.167,0.579-2.611,0.596c-0.053,0.016-0.198,0.002-0.435-0.041c-0.238-0.043-0.416-0.074-0.535-0.097
			c-0.052,0.015-0.212-0.05-0.479-0.198c-0.773,0.059-1.39-0.127-1.852-0.554c-0.274,0.024-0.57-0.073-0.888-0.29
			c-0.316-0.216-0.508-0.343-0.574-0.381c-0.113-0.19-0.326-0.438-0.64-0.74s-0.527-0.549-0.639-0.742
			c-0.083-0.088-0.164-0.219-0.243-0.393s-0.133-0.313-0.163-0.417c-0.196-0.28-0.314-0.498-0.36-0.653l-0.272-0.933
			c-0.046-0.156-0.193-0.464-0.441-0.927c-0.248-0.461-0.452-0.866-0.608-1.215c-0.158-0.347-0.343-0.883-0.556-1.609
			c-0.113-0.191-0.229-0.495-0.352-0.911c-0.091-0.311-0.101-0.532-0.026-0.667c-0.135-0.072-0.247-0.266-0.338-0.576
			c-0.03-0.104-0.065-0.318-0.104-0.645c-0.042-0.326-0.083-0.566-0.128-0.723l-0.159-0.545c-0.137-0.467-0.15-0.8-0.04-1
			c-0.016-0.053-0.069-0.093-0.163-0.121c-0.092-0.029-0.154-0.096-0.185-0.199s-0.048-0.211-0.052-0.323
			c-0.004-0.111-0.021-0.218-0.053-0.323L7.87,43.606c-0.228-0.778-0.352-1.388-0.368-1.835c-0.082-0.087-0.16-0.26-0.237-0.521
			c-0.06-0.206-0.102-0.532-0.117-0.979c-0.019-0.444-0.042-0.718-0.073-0.823l-0.045-0.156c-0.083-0.087-0.131-0.157-0.146-0.21
			l0.031-0.177C6.9,38.854,6.885,38.801,6.87,38.75c-0.062-0.207-0.159-0.545-0.296-1.012s-0.211-0.81-0.219-1.033
			c-0.109-0.755-0.217-1.314-0.322-1.678c-0.016-0.051,0.013-0.145,0.087-0.278c-0.03-0.104-0.079-0.174-0.146-0.21
			c-0.066-0.036-0.115-0.107-0.146-0.211l-0.291-1.856l-0.023-0.078l-0.122-0.133c-0.046-0.156-0.052-0.364-0.016-0.628
			c0.035-0.265,0.038-0.447,0.007-0.551c-0.045-0.156-0.12-0.458-0.223-0.906c-0.104-0.447-0.151-0.757-0.146-0.929l0.12-0.457
			c-0.125-0.807-0.105-1.319,0.057-1.536c-0.016-0.051-0.057-0.095-0.123-0.133c-0.067-0.035-0.115-0.104-0.146-0.21
			c0.013-0.342,0.004-0.563-0.027-0.668l-0.272-0.933c-0.03-0.104-0.032-0.299-0.003-0.59c0.026-0.289,0.026-0.485-0.004-0.589
			c-0.106-0.363-0.304-0.841-0.589-1.433c0.073-0.133,0.098-0.337,0.074-0.611c-0.025-0.274-0.019-0.445,0.018-0.513
			C4.494,21.127,5.174,20.76,6.158,20.471z"/>
	</g>
</g>
</svg>
