<?xml version="1.0" encoding="utf-8"?>
<!-- Generator: Adobe Illustrator 16.0.0, SVG Export Plug-In . SVG Version: 6.00 Build 0)  -->
<!DOCTYPE svg PUBLIC "-//W3C//DTD SVG 1.1//EN" "http://www.w3.org/Graphics/SVG/1.1/DTD/svg11.dtd">
<svg version="1.1" id="Layer_1" xmlns="http://www.w3.org/2000/svg" xmlns:xlink="http://www.w3.org/1999/xlink" x="0px" y="0px"
	 width="129.538px" height="151.249px" viewBox="0 0 129.538 151.249" enable-background="new 0 0 129.538 151.249"
	 xml:space="preserve">
<g>
	<path fill="#FFFFFF" d="M22.625,40.962C21.8,46.634,22.49,52.526,22.98,56.648c0.963-1.929,2.184-3.982,2.37-6.04
		c1.825,0.145,3.061,1.75,4.019,3.012c0.249-3.772,0.031-8.687,1.372-12.215c4.347-0.216,10.32,1.299,13.525,4.531
		c0.465-8.506,1.821-19.581,7.378-26.11c1.066,8.155,3.943,10.629,9.646,16.141C66.318,31.993,81.099,6.432,81.413,0
		c3.946,0.31,10.996,27.808,8.681,32.698c3.341-3.263,5.373-4.306,9.771-5.952c3.162-1.184,9.352-0.432,11.582-2.459
		c-4.248,8.31-3.447,17.929-6.462,26.202c4.274,0.608,9.36-3.18,12.891-4.873c-0.168,8.832,0.986,16.98-1.647,25.693
		c-1.061,3.51-3.764,6.654-4.939,10.059c-1.027,2.979-3.787,7.25-4.059,10.258c3.47,0.234,5.93-1.533,9.318-1.197
		c4.545,0.449,9.506,3.172,10.429,7.502c0.681,3.195-0.138,5.754-1.282,8.529c-1.714,4.156-0.154,5.514,3.414,1.934
		c1.053,6.143,0.412,11.307-4.739,14.822c-5.654,3.861-11.632,0.186-17.943,0.402c0.227,3.602-4.017,9.291-7.838,6.217
		c-3.303,5.227-5.952,11.186-9.005,16.699c-3.568,6.441-12.708,1.955-13.038-4.775c-5.491,4.16-8.104,1.953-10.963,1.953
		c-10.573,6.861-22.292,7.537-27.884,7.537c-8.703,0.002-17.423-2.082-23.826-7.803c-2.495-2.23-4.516-5.332-5.956-8.211
		c-0.722-1.443-2.284-4.643-1.27-6.271c1.466-2.355,3.259-0.797,5.591,0.008c7.132,2.465,17.584,6.061,24.951,2.635
		c0.418-2.291-2.832-7.205-3.859-9.074c-2.527-4.611-5.135-3.123-9.926-3.734c-8.713-1.109-14.381-5.365-19.129-12.574
		C0.647,100.72-2.462,91.47,2.814,85.856c3.987-4.246,4.505-0.309,7.608,2.688c1.99,1.92,4.39,2.742,6.111,4.949
		c-3.828-5.621,1.012-8.895,5.803-8.678c-3.121-1.834-7.259-6.891-9.261-9.832c-2.828-4.159-3.133-7.617-3.133-12.792
		c0-4.703,0.227-9.434,2.95-13.264c1.634-2.3,10.179-8.305,10.116-7.966C23.009,40.962,22.638,40.867,22.625,40.962z"/>
	<g>
		<path fill="#FAAF40" d="M32.759,80.821c-3.347-8.563-5.373-14.388-4.768-22.163c2.889,2.309,7.307,3.627,10.414,6.959
			c-3.033-7.561-2.6-14.462-5.219-21.407c6.207,1.296,12.091,6.978,15.573,12.96c1.282-9.528-3.373-20.363,2.636-28.093
			c0.07,4.837,6.059,13.491,7.242,14.738c0,0,23.603,41.762,6.667,59.648C61.736,107.235,39.759,98.745,32.759,80.821z"/>
	</g>
	<g>
		<path fill="#FAAF40" d="M107.777,82.726c4.857-12.43,7.799-20.885,6.92-32.175c-4.194,3.352-10.607,5.266-15.119,10.104
			c4.404-10.977,3.775-20.996,7.576-31.08c-9.01,1.883-17.553,10.131-22.607,18.815c-1.861-13.832,4.896-29.563-3.827-40.784
			C78.882,21.748,66.3,35.912,62.073,46.063c-8.296,19.922-17.835,52.335-1.548,69.54C65.708,121.077,97.613,108.749,107.777,82.726
			z"/>
		<path fill="#F6921E" d="M94.558,84.562c3.429-6.641,1.403-15.86,0.449-22.129c-2.204,2.041-5.707,3.373-8.029,6.259
			c2.01-6.31,1.25-11.88,2.958-17.665c-4.952,1.418-9.386,6.375-11.854,11.43c-1.605-7.647,1.525-16.709-3.806-22.619
			c0.229,3.926-4.112,11.3-4.997,12.38c0,0-16.658,35.259-1.865,48.759C70.532,103.821,88.911,95.497,94.558,84.562z"/>
	</g>
	<g>
		<path fill="#231F20" d="M51.475,73.26c0.726-0.141,1.263-0.221,1.612-0.245c1.041-0.114,1.591-0.131,1.65-0.055
			c0.477-0.049,1.227-0.061,2.25-0.038l1.291,0.148c0.417,0.097,0.672,0.158,0.766,0.183c0.145,0.063,0.297,0.108,0.459,0.145
			c0.161,0.035,0.312,0.062,0.447,0.079c0.289,0.121,0.544,0.293,0.764,0.516c0.085-0.017,0.189,0.008,0.313,0.072
			c0.122,0.066,0.206,0.094,0.248,0.085c0.067,0.119,0.241,0.274,0.521,0.464c0.279,0.188,0.458,0.365,0.534,0.526
			c0.348,0.198,0.576,0.575,0.684,1.129c0.042,0.215,0.053,0.389,0.035,0.525c0.04,0.435-0.188,0.856-0.685,1.261
			c-0.035,0.051-0.086,0.128-0.155,0.23l-0.179,0.1c-0.044,0.009-0.133,0.004-0.269-0.013c-0.137-0.019-0.228-0.023-0.269-0.015
			c-0.528,0.013-0.929,0.004-1.202-0.033c-0.094-0.025-0.234-0.064-0.421-0.117c-0.188-0.053-0.323-0.07-0.409-0.054l-0.32,0.062
			c-0.127,0.025-0.332,0.055-0.613,0.086c-0.282,0.033-0.486,0.061-0.614,0.086c-0.086,0.017-0.21,0.063-0.372,0.139
			c-0.162,0.076-0.286,0.122-0.371,0.139l-0.269-0.015c-0.086,0.017-0.194,0.082-0.327,0.196c-0.134,0.115-0.259,0.206-0.379,0.272
			c-0.241,0.357-0.421,0.569-0.541,0.636c0.025,0.128-0.075,0.413-0.299,0.854c-0.053,0.188-0.16,0.32-0.322,0.396
			c0.033,0.171,0.019,0.493-0.044,0.972c-0.063,0.477-0.065,0.864-0.007,1.163c0.049,0.256,0.107,0.443,0.176,0.563
			c0.27,0.479,0.655,0.759,1.158,0.838c0.085-0.017,0.192-0.037,0.32-0.062c0.128-0.025,0.266-0.052,0.416-0.081
			c0.149-0.028,0.266-0.052,0.352-0.068c0.47-0.091,1.373-0.11,2.711-0.062c0.051,0.035,0.11,0.002,0.18-0.102
			c0.05,0.036,0.399,0.123,1.047,0.264l0.281,0.077c0.042-0.008,0.089,0.006,0.141,0.04c0.05,0.034,0.097,0.048,0.14,0.039
			c0.051,0.035,0.172,0.09,0.363,0.162c0.191,0.074,0.355,0.119,0.492,0.137l0.278,0.411c0.137,0.018,0.261,0.093,0.376,0.226
			c0.114,0.134,0.196,0.217,0.247,0.251c0.051,0.035,0.149,0.083,0.294,0.142c0.145,0.063,0.246,0.131,0.306,0.206
			c0.008,0.044,0.028,0.095,0.063,0.154c0.034,0.061,0.055,0.112,0.063,0.154c0.926,0.441,1.57,1.023,1.933,1.75
			c0.846,1.164,1.285,1.833,1.318,2.003c0.102,0.069,0.262,0.215,0.482,0.438c-0.025,0.094-0.026,0.203-0.002,0.332
			c0.025,0.128,0.042,0.214,0.05,0.256l0.153,0.104c0.051,0.035,0.105,0.091,0.165,0.168c0.009,0.041,0.025,0.127,0.05,0.256
			c0.024,0.127,0.066,0.23,0.126,0.307c0.151,0.325,0.231,0.509,0.239,0.551c0.025,0.129-0.036,0.273-0.181,0.435
			c0.05,0.035,0.084,0.095,0.101,0.179c0.009,0.043,0.005,0.144-0.008,0.301c-0.014,0.159,0.009,0.275,0.068,0.353
			c-0.078,0.059-0.13,0.19-0.156,0.396c-0.026,0.203-0.079,0.336-0.156,0.395c0.17,0.189,0.275,0.39,0.316,0.603
			c0.066,0.343,0.021,0.684-0.134,1.023c0.009,0.043-0.026,0.094-0.104,0.151c-0.077,0.061-0.133,0.116-0.167,0.166
			c-0.01,0.18-0.064,0.411-0.164,0.695c-0.1,0.285-0.154,0.519-0.164,0.696c-0.043,0.009-0.111,0.055-0.205,0.14
			c-0.095,0.085-0.185,0.135-0.27,0.151c-0.018,0.138-0.073,0.303-0.169,0.497c-0.095,0.196-0.156,0.341-0.182,0.435
			c-0.043,0.008-0.092,0.041-0.147,0.095c-0.056,0.056-0.102,0.108-0.136,0.158c-0.034,0.053-0.073,0.081-0.115,0.09l0.063,0.32
			c-0.035,0.051-0.065,0.123-0.091,0.217c-0.026,0.095-0.057,0.167-0.091,0.216c-0.035,0.052-0.073,0.081-0.116,0.09
			c-0.086,0.017-0.123,0.046-0.115,0.088l-0.039,0.141c-0.026,0.095-0.057,0.167-0.091,0.217c-0.086,0.017-0.146,0.052-0.18,0.101
			c-0.078,0.061-0.146,0.162-0.206,0.306c-0.062,0.146-0.117,0.256-0.169,0.333c-0.051,0.076-0.132,0.17-0.244,0.278
			c-0.111,0.111-0.231,0.179-0.359,0.203c-0.026,0.095-0.116,0.2-0.27,0.318c-0.155,0.119-0.25,0.203-0.283,0.253
			c-0.043,0.009-0.126,0.037-0.25,0.083s-0.229,0.077-0.313,0.093c-0.31,0.237-0.506,0.364-0.591,0.381
			c-0.086,0.017-0.179-0.01-0.28-0.078c-0.411,0.168-0.681,0.375-0.81,0.621c-0.086,0.017-0.18,0.046-0.282,0.088
			c-0.103,0.043-0.176,0.068-0.217,0.076c-0.078,0.059-0.224,0.109-0.436,0.15c-0.044,0.008-0.139,0.094-0.283,0.254
			c-0.146,0.161-0.262,0.251-0.348,0.268c-0.085,0.016-0.203-0.027-0.356-0.131c-0.163,0.075-0.607,0.184-1.332,0.324
			c-0.299,0.058-0.508,0.121-0.627,0.188c-0.171,0.033-0.282,0.032-0.333-0.003c-0.077,0.06-0.209,0.12-0.397,0.178
			c-0.188,0.059-0.316,0.14-0.385,0.24c-0.136-0.017-0.311-0.006-0.523,0.035c-0.128,0.025-0.318,0.073-0.57,0.145
			c-0.252,0.07-0.421,0.113-0.506,0.13c-0.128,0.024-0.339,0.023-0.633-0.009c-0.295-0.032-0.531-0.053-0.709-0.063l-0.192,0.037
			l-0.076-0.052c-0.043,0.009-0.086,0.017-0.128,0.024l-0.128,0.025c-0.128,0.024-0.328,0.02-0.602-0.017
			c-0.272-0.035-0.473-0.041-0.601-0.017c-0.793,0.021-1.261,0.003-1.405-0.06l-0.229-0.154c-0.308,0.017-0.732-0.233-1.274-0.75
			c-0.321-0.511-0.532-0.914-0.633-1.204l-0.161-0.832l-0.089-0.116l0.052-0.077c-0.008-0.041-0.017-0.084-0.024-0.127
			c-0.041-0.213-0.093-0.357-0.151-0.437c0.372-0.823,0.856-1.404,1.456-1.742c0.041-0.008,0.146-0.039,0.313-0.094
			c0.167-0.054,0.289-0.11,0.366-0.171l0.191-0.038c0.042-0.008,0.147-0.037,0.314-0.093c0.166-0.055,0.292-0.089,0.378-0.105
			c0.128-0.025,0.238-0.024,0.332,0c0.24-0.134,0.466-0.222,0.68-0.264c0.256-0.049,0.478-0.048,0.664,0.003
			c0.12-0.065,0.436-0.149,0.948-0.248l0.256-0.05c0.042-0.008,0.134-0.048,0.275-0.12c0.141-0.071,0.254-0.116,0.34-0.133
			l0.319-0.063c0.171-0.032,0.297-0.124,0.379-0.271c0.081-0.149,0.14-0.248,0.175-0.3c0.034-0.051,0.099-0.118,0.192-0.203
			s0.158-0.152,0.193-0.204c0.264-1.379,0.371-2.196,0.321-2.452c-0.041-0.213-0.109-0.333-0.202-0.36
			c-0.064-0.783-0.621-1.604-1.673-2.465c-0.145-0.06-0.388-0.167-0.727-0.323c-0.341-0.154-0.583-0.262-0.728-0.324
			c-0.086,0.017-0.151,0.02-0.198,0.006c-0.047-0.013-0.113-0.012-0.198,0.005c-0.11-0.11-0.251-0.15-0.421-0.117
			c-0.118-0.153-0.26-0.192-0.421-0.117c-0.067-0.121-0.31-0.228-0.728-0.325c-0.594-0.326-1.055-0.525-1.377-0.596
			c-0.051-0.033-0.085-0.094-0.102-0.18c-0.136-0.018-0.314-0.082-0.535-0.195c-0.222-0.112-0.379-0.181-0.472-0.207l-0.025-0.128
			c-0.051-0.034-0.08-0.073-0.089-0.116c-0.152-0.103-0.401-0.242-0.745-0.42c-0.345-0.175-0.588-0.294-0.733-0.355
			c-0.127-0.196-0.555-0.578-1.284-1.146c-0.178-0.231-0.289-0.343-0.33-0.334l-0.05-0.256c-0.256-0.172-0.391-0.301-0.407-0.386
			l-0.037-0.193c-0.008-0.041-0.078-0.171-0.209-0.391c-0.131-0.217-0.204-0.369-0.221-0.455c-0.601-0.813-0.965-1.317-1.09-1.516
			c-0.136-0.238-0.216-0.422-0.24-0.551c-0.017-0.084,0.001-0.221,0.054-0.409c-0.068-0.119-0.126-0.308-0.176-0.563
			c-0.116-0.597-0.109-1.13,0.022-1.597c-0.041-0.213-0.002-0.465,0.119-0.754l-0.05-0.257c0.044-0.229,0.154-0.517,0.331-0.861
			c0.177-0.343,0.287-0.63,0.331-0.861c0.275-0.406,0.414-0.721,0.415-0.942c0.042-0.009,0.167-0.166,0.373-0.472
			c0.035-0.05,0.125-0.157,0.271-0.318c0.145-0.16,0.252-0.291,0.322-0.395l0.063-0.012c0.035-0.051,0.073-0.08,0.116-0.089
			c0.068-0.102,0.219-0.242,0.45-0.419c0.23-0.178,0.381-0.316,0.449-0.419c0.162-0.075,0.4-0.222,0.713-0.438
			c0.313-0.214,0.57-0.363,0.775-0.448c0.061-0.145,0.219-0.241,0.476-0.291l0.32-0.063c0.076-0.059,0.175-0.122,0.294-0.189
			c0.12-0.067,0.197-0.127,0.232-0.178l0.256-0.05l0.539-0.303C50.625,73.448,50.963,73.359,51.475,73.26z"/>
	</g>
	<g>
		<path fill="#231F20" d="M39.264,109.463c0.006,0.03,0.189,0.088,0.55,0.175c0.186,0.151,0.363,0.257,0.532,0.319
			c0.018,0.09,0.092,0.193,0.224,0.309s0.21,0.232,0.233,0.354c0.18,0.121,0.263,0.231,0.251,0.326
			c0.035,0.025,0.086,0.048,0.153,0.065l0.099,0.027c0.054,0.115,0.169,0.265,0.346,0.449s0.285,0.384,0.326,0.594
			c0.162,0.032,0.311,0.19,0.445,0.478c0.133,0.288,0.235,0.454,0.308,0.503c-0.062,0.325-0.09,0.503-0.084,0.533
			s0.054,0.036,0.145,0.019l0.1,0.027c0.042,0.056,0.087,0.132,0.138,0.231c0.051,0.101,0.098,0.178,0.14,0.232
			c0.041,0.054,0.107,0.072,0.198,0.055c-0.024,0.036-0.027,0.099-0.01,0.189c0.006,0.03,0.033,0.095,0.085,0.194
			c0.05,0.101,0.066,0.184,0.048,0.25c0.006,0.029-0.009,0.079-0.042,0.148c-0.033,0.07-0.044,0.134-0.032,0.194
			c-0.02,0.066,0.011,0.1,0.089,0.101c0.078,0,0.121,0.016,0.127,0.045l0.018,0.091c0.018,0.09,0.07,0.205,0.161,0.344
			c0.088,0.14,0.137,0.225,0.143,0.254l-0.028,0.1c0.144,0.254,0.218,0.396,0.224,0.426c0.018,0.09-0.01,0.19-0.083,0.298
			c0.066,0.02,0.105,0.059,0.117,0.118c0.023,0.121,0.116,0.322,0.281,0.603c0.164,0.282,0.261,0.498,0.29,0.648l0.017,0.09
			c-0.134,0.121-0.185,0.256-0.155,0.406l0.018,0.09c0.018,0.091,0.095,0.17,0.232,0.236c0.139,0.068,0.211,0.117,0.217,0.146
			l0.026,0.137c0.018,0.09,0.063,0.206,0.138,0.348c0.075,0.143,0.118,0.244,0.13,0.305c0.023,0.121-0.002,0.235-0.075,0.342
			c0.007,0.031,0.059,0.1,0.158,0.205c0.098,0.105,0.168,0.187,0.21,0.24c0.012,0.061,0.007,0.155-0.015,0.284
			c-0.022,0.13-0.027,0.226-0.016,0.285c0.006,0.03,0.029,0.073,0.071,0.127c0.107,0.23,0.202,0.399,0.287,0.508
			c-0.164,0.125-0.165,0.204-0.002,0.235c-0.078,0.078-0.114,0.179-0.106,0.302c0.009,0.123-0.012,0.223-0.06,0.293
			c0.035,0.025,0.069,0.081,0.103,0.168c0.032,0.087,0.067,0.145,0.103,0.169c-0.018,0.065-0.019,0.144-0.001,0.234
			c-0.019,0.066-0.021,0.13-0.01,0.19c0.047,0.084,0.177,0.105,0.388,0.064l0.181-0.035c0.313,0.002,0.606-0.024,0.877-0.077
			l0.362-0.07c0.362-0.069,0.615-0.055,0.759,0.042c0.05-0.071,0.133-0.119,0.254-0.143c0.211-0.041,0.365-0.056,0.461-0.043
			c0.068-0.138,0.075-0.343,0.022-0.614l-0.062-0.317c-0.012-0.06-0.035-0.141-0.07-0.243c-0.036-0.103-0.057-0.17-0.063-0.2
			L49,121.188c-0.036-0.024-0.018-0.092,0.056-0.199c-0.012-0.061-0.033-0.088-0.063-0.082c-0.036-0.024-0.056-0.051-0.062-0.081
			c-0.012-0.217-0.099-0.505-0.263-0.865c-0.163-0.358-0.22-0.653-0.171-0.882c-0.096-0.169-0.148-0.283-0.16-0.345
			c-0.006-0.029,0.01-0.111,0.047-0.244c-0.006-0.029-0.021-0.065-0.045-0.107c-0.023-0.043-0.038-0.079-0.044-0.109l-0.078-0.642
			l0.011-0.19c-0.006-0.029,0.019-0.145,0.074-0.343l-0.062-0.317c-0.012-0.06,0.006-0.125,0.055-0.198l-0.053-0.271
			c0.05-0.071,0.071-0.123,0.065-0.153l-0.009-0.045c-0.036-0.023-0.042-0.054-0.019-0.091c0.03-0.006,0.043-0.023,0.037-0.054
			c-0.018-0.09-0.039-0.203-0.065-0.34c-0.026-0.135-0.03-0.235-0.013-0.303c0.024-0.035,0.053-0.095,0.083-0.18
			c0.03-0.084,0.058-0.145,0.083-0.181c-0.059-0.301-0.067-0.503-0.024-0.605l-0.026-0.136c-0.012-0.061-0.016-0.161-0.012-0.304
			c0.004-0.14,0-0.241-0.012-0.302l-0.035-0.182l-0.131-0.678c-0.053-0.271-0.031-0.479,0.066-0.623
			c-0.036-0.023-0.084-0.031-0.145-0.02l-0.07-0.362c0.024-0.034,0.067-0.098,0.128-0.188c0.061-0.089,0.101-0.167,0.118-0.234
			c-0.011-0.06-0.049-0.091-0.111-0.096c-0.063-0.002-0.114-0.017-0.148-0.041l-0.055-0.037l-0.009-0.045
			c-0.012-0.059-0.004-0.14,0.024-0.239c0.027-0.099,0.038-0.163,0.032-0.194c-0.053-0.271-0.067-0.425-0.042-0.461
			c-0.018-0.09-0.063-0.159-0.135-0.209c0.002-0.312-0.006-0.514-0.023-0.605c-0.023-0.119-0.057-0.208-0.098-0.262
			c0.062-0.169,0.098-0.379,0.111-0.632c0.079-0.078,0.221-0.114,0.426-0.107s0.331-0.024,0.38-0.097
			c0.061-0.012,0.124-0.008,0.19,0.011c0.065,0.018,0.113,0.024,0.145,0.019c0.06-0.012,0.101-0.044,0.122-0.095
			s0.047-0.08,0.078-0.086c0.035,0.025,0.107,0.035,0.216,0.029c0.108-0.005,0.178-0.011,0.208-0.017
			c0.061-0.012,0.133-0.003,0.217,0.027c0.084,0.032,0.159,0.057,0.226,0.074l0.362-0.07c0.12-0.023,0.283,0.009,0.487,0.094
			c0.205,0.086,0.367,0.116,0.487,0.093l0.091-0.018c0.072,0.049,0.209,0.109,0.41,0.179c0.201,0.071,0.338,0.131,0.41,0.18
			c0.137,0.224,0.391,0.439,0.76,0.649s0.604,0.415,0.706,0.614c0.071,0.05,0.165,0.126,0.278,0.228
			c0.113,0.104,0.207,0.18,0.278,0.228c0.082,0.423,0.081,0.658-0.004,0.705c0.006,0.031,0.033,0.05,0.082,0.056
			c0.048,0.007,0.074,0.024,0.08,0.055l0.026,0.135c0.047,0.242,0.208,0.429,0.484,0.563c0.096,0.169,0.161,0.345,0.196,0.525
			l0.185,0.95c0.083,0.108,0.132,0.193,0.143,0.253l0.053,0.272c0.012,0.061,0.035,0.142,0.071,0.244
			c0.035,0.104,0.056,0.169,0.062,0.2c0.023,0.121-0.007,0.204-0.092,0.251l0.088,0.453c0.064,0.332,0.072,0.534,0.023,0.605
			c0.006,0.03,0.031,0.081,0.076,0.149c0.045,0.07,0.058,0.139,0.039,0.203c0.083,0.109,0.168,0.345,0.254,0.703
			c0.085,0.359,0.202,0.602,0.353,0.729c-0.019,0.067-0.014,0.175,0.016,0.325c0.012,0.061,0.038,0.157,0.08,0.29
			c0.041,0.133,0.067,0.23,0.079,0.29l-0.055,0.197l0.053,0.271c0.006,0.031-0.007,0.049-0.037,0.055
			c-0.024,0.037-0.033,0.069-0.027,0.1l0.035,0.18c-0.014,0.098-0.047,0.166-0.101,0.208c-0.019,0.067,0.005,0.11,0.071,0.127
			c0.029-0.005,0.048,0.007,0.054,0.036c-0.019,0.066-0.02,0.185-0.002,0.354c0.017,0.169,0.032,0.282,0.044,0.343
			c0.006,0.031,0,0.087-0.016,0.167c-0.016,0.082-0.02,0.138-0.015,0.167c0.007,0.031,0.042,0.095,0.107,0.19
			c0.066,0.098,0.107,0.191,0.125,0.281l0.035,0.181l0.114,0.588c-0.044,0.103-0.049,0.276-0.017,0.521
			c0.031,0.245,0.04,0.414,0.028,0.511c-0.115,0.054-0.193,0.131-0.236,0.233s-0.073,0.227-0.093,0.37
			c-0.019,0.146-0.053,0.253-0.101,0.325c0.083,0.108,0.14,0.239,0.169,0.39c0.023,0.121,0.008,0.202-0.047,0.244
			c-0.019,0.065-0.005,0.095,0.04,0.086c0.046-0.009,0.071,0.002,0.077,0.031c0.023,0.121,0.008,0.688-0.046,1.699
			c-0.024,0.036-0.076,0.094-0.154,0.171c0.012,0.061,0.01,0.139-0.003,0.234c-0.013,0.097-0.016,0.16-0.01,0.19l0.054,0.036
			c0.012,0.062,0.021,0.106,0.026,0.136c-0.042,0.102-0.047,0.237-0.015,0.402c0.031,0.166,0.041,0.297,0.028,0.394
			c0.006,0.03,0.002,0.094-0.01,0.189l0.018,0.09c0.006,0.031-0.016,0.082-0.064,0.154s-0.082,0.141-0.101,0.207
			c0.029,0.15-0.01,0.275-0.115,0.375c-0.106,0.098-0.156,0.162-0.15,0.193l-0.036,0.053c-0.019,0.066-0.04,0.119-0.064,0.152
			c-0.049,0.074-0.123,0.174-0.223,0.303c-0.101,0.13-0.163,0.211-0.187,0.247l-0.453,0.088c-0.091,0.018-0.249,0.048-0.475,0.092
			c-0.227,0.044-0.382,0.091-0.467,0.139l-0.452,0.087c-0.241,0.047-0.429,0.052-0.561,0.015c-0.066-0.019-0.17-0.069-0.311-0.151
			c-0.142-0.082-0.245-0.132-0.312-0.151l-0.036,0.056l-0.037,0.054l-0.595-0.166c-0.03,0.006-0.092-0.029-0.185-0.106
			c-0.093-0.075-0.188-0.119-0.284-0.133c-0.036-0.023-0.104-0.088-0.202-0.195c-0.1-0.105-0.185-0.183-0.256-0.232
			c-0.043-0.054-0.098-0.137-0.166-0.248c-0.069-0.111-0.124-0.195-0.165-0.25c-0.043-0.055-0.035-0.095,0.022-0.122
			c0.058-0.026,0.084-0.055,0.077-0.086c-0.192-0.024-0.313-0.157-0.359-0.399l-0.07-0.361c-0.006-0.03-0.032-0.088-0.08-0.173
			c-0.047-0.084-0.076-0.156-0.088-0.218c-0.043-0.053-0.072-0.126-0.09-0.217s-0.029-0.15-0.035-0.181l-0.009-0.046
			c-0.036-0.023-0.057-0.051-0.063-0.081l-0.026-0.137c-0.07-0.361-0.156-0.563-0.259-0.606c-0.247,0.174-0.553,0.295-0.915,0.365
			l-1.402,0.271c-0.361,0.07-0.686,0.181-0.969,0.328c0.006,0.031-0.005,0.096-0.033,0.195c-0.027,0.099-0.035,0.18-0.023,0.24
			l0.018,0.09c-0.115,0.053-0.17,0.214-0.166,0.478c0.004,0.266-0.002,0.431-0.021,0.497l0.185,0.95
			c0.006,0.03-0.002,0.079-0.021,0.144c0.019,0.091,0.045,0.148,0.081,0.173c-0.078,0.078-0.144,0.191-0.191,0.343
			c-0.05,0.149-0.087,0.243-0.111,0.278c-0.023,0.037-0.063,0.076-0.117,0.117c-0.055,0.043-0.095,0.081-0.118,0.117
			c-0.03,0.006-0.062,0.09-0.092,0.252c-0.073,0.109-0.188,0.241-0.346,0.396c-0.062,0.169-0.159,0.313-0.292,0.433l-0.09,0.018
			c-0.062,0.012-0.124,0.056-0.188,0.13c-0.063,0.076-0.11,0.115-0.14,0.121l-0.271,0.053c-0.109,0.084-0.194,0.131-0.255,0.143
			c-0.09,0.018-0.255,0.012-0.496-0.021c-0.241-0.03-0.422-0.034-0.542-0.011l-0.227,0.044c-0.03,0.006-0.048-0.006-0.054-0.037
			l-0.1-0.027c-0.066-0.018-0.13-0.021-0.189-0.01c-0.061,0.012-0.106,0.021-0.136,0.025c-0.03,0.006-0.064-0.004-0.1-0.028
			c-0.042-0.054-0.096-0.09-0.162-0.108c-0.03,0.006-0.086,0.001-0.167-0.014c-0.082-0.016-0.138-0.022-0.167-0.017
			c-0.103-0.041-0.28-0.148-0.531-0.318l-0.162-0.109c-0.414-0.201-0.625-0.316-0.631-0.348c-0.541-0.208-0.85-0.508-0.926-0.9
			c-0.107-0.072-0.171-0.154-0.188-0.245l-0.07-0.362l-0.214-0.38l-0.017-0.326c-0.018-0.09-0.089-0.218-0.215-0.38
			c-0.125-0.164-0.196-0.291-0.214-0.381l-0.026-0.137c-0.012-0.06-0.022-0.151-0.03-0.275c-0.009-0.122-0.019-0.216-0.03-0.276
			l-0.025-0.135c-0.006-0.029,0.008-0.079,0.041-0.148s0.048-0.119,0.042-0.15l-0.018-0.09c-0.144-0.254-0.244-0.531-0.303-0.834
			l-0.175-0.903c-0.006-0.03-0.02-0.059-0.041-0.087c-0.021-0.026-0.034-0.056-0.04-0.086l-0.035-0.182
			c-0.035-0.181-0.043-0.304-0.024-0.37c-0.107-0.229-0.17-0.39-0.187-0.479c-0.047-0.242-0.043-0.462,0.013-0.66l-0.035-0.182
			c-0.088-0.452-0.11-0.729-0.067-0.831c-0.139-0.067-0.223-0.176-0.252-0.327c-0.006-0.03-0.011-0.098-0.017-0.207
			c-0.006-0.108-0.014-0.193-0.025-0.255c-0.072-0.047-0.113-0.102-0.125-0.162c-0.023-0.121-0.03-0.276-0.021-0.466
			c0.011-0.189,0.01-0.314-0.002-0.376l-0.018-0.09c-0.006-0.029-0.05-0.092-0.13-0.187c-0.082-0.093-0.143-0.167-0.185-0.222
			l-0.035-0.182c-0.018-0.09-0.036-0.267-0.055-0.528c-0.021-0.262-0.044-0.469-0.073-0.62l-0.035-0.181
			c-0.006-0.029-0.026-0.096-0.063-0.199c-0.036-0.102-0.059-0.184-0.07-0.244l-0.018-0.091c-0.006-0.03,0-0.078,0.019-0.145
			s0.022-0.129,0.01-0.189c-0.006-0.03-0.028-0.104-0.066-0.222c-0.038-0.117-0.063-0.207-0.075-0.268
			c-0.017-0.09-0.017-0.168,0.002-0.235c-0.006-0.029-0.034-0.055-0.085-0.076c-0.052-0.021-0.08-0.048-0.086-0.078
			c-0.108-1.043-0.166-1.58-0.171-1.609c-0.012-0.061,0-0.156,0.038-0.289c0.036-0.133,0.046-0.244,0.028-0.335l-0.07-0.361
			c0.037-0.133,0.059-0.262,0.065-0.389c-0.042-0.054-0.048-0.084-0.017-0.09l0.036-0.054c-0.006-0.03-0.02-0.099-0.04-0.205
			c-0.021-0.104-0.004-0.177,0.052-0.221c-0.018-0.09-0.003-0.657,0.046-1.698c0.023-0.035,0.044-0.094,0.061-0.176
			c0.015-0.08,0.05-0.142,0.104-0.185l-0.018-0.09c-0.059-0.302,0.199-0.664,0.774-1.09
			C37.586,109.928,38.22,109.729,39.264,109.463z"/>
	</g>
	<g>
		<path fill="#231F20" d="M85.1,65.934l0.194,0.022c0.13,0.015,0.31,0.067,0.541,0.159c0.229,0.092,0.387,0.143,0.473,0.152
			c0.087,0.01,0.172,0.031,0.257,0.063c0.083,0.031,0.169,0.052,0.255,0.062l0.778,0.089c0.56,0.063,0.963,0.174,1.208,0.334
			c0.042,0.004,0.122,0.079,0.237,0.224c0.388,0.044,0.778,0.264,1.171,0.657c0.259,0.029,0.528,0.158,0.809,0.387
			c0.28,0.229,0.529,0.355,0.745,0.381c-0.025,0.217,0.109,0.385,0.401,0.505c0.053,0.313,0.1,0.47,0.144,0.476
			c0.119,0.102,0.28,0.316,0.483,0.645c0.203,0.33,0.387,0.547,0.549,0.653c0.058,0.27,0.127,0.431,0.209,0.482
			c0.037,0.049,0.031,0.103-0.019,0.162c-0.052,0.06-0.078,0.112-0.083,0.155c0.065,0.183,0.189,0.438,0.372,0.764
			c0.182,0.327,0.326,0.585,0.438,0.771c-0.039,0.346-0.083,0.538-0.131,0.576c-0.005,0.043,0.014,0.066,0.058,0.071
			c0.171,0.02,0.295,0.1,0.365,0.238c0.071,0.14,0.128,0.321,0.169,0.544c0.04,0.224,0.098,0.383,0.175,0.479
			c-0.054,0.082-0.09,0.209-0.109,0.381c-0.024,0.217,0.033,0.486,0.172,0.807c0.138,0.322,0.224,0.529,0.258,0.62
			c-0.01,0.087-0.025,0.227-0.048,0.421s-0.017,0.337,0.017,0.429c0.032,0.092,0.079,0.173,0.136,0.245
			c0.058,0.071,0.085,0.131,0.08,0.173c0.04,0.792,0.08,1.213,0.119,1.26c-0.005,0.044-0.028,0.14-0.066,0.288
			c-0.04,0.149-0.063,0.267-0.073,0.353c-0.073,0.648-0.027,1.201,0.141,1.656c-0.059,0.518-0.089,0.974-0.09,1.367
			c-0.015,0.13,0.006,0.319,0.067,0.565c0.059,0.248,0.083,0.415,0.073,0.501c-0.015,0.129-0.094,0.252-0.238,0.366
			c-0.01,0.087-0.013,0.207-0.008,0.36c0.004,0.154,0.002,0.273-0.008,0.359c-0.044,0.389-0.148,0.728-0.312,1.015
			c0.027,0.135,0.03,0.31,0.005,0.525c-0.034,0.303-0.081,0.516-0.138,0.641c-0.01,0.087,0.002,0.176,0.035,0.267
			c0.032,0.092,0.022,0.178-0.029,0.259c-0.005,0.044-0.053,0.082-0.144,0.114c-0.093,0.034-0.146,0.115-0.16,0.245l-0.081,0.713
			c-0.005,0.043,0.011,0.099,0.047,0.169c0.036,0.069,0.052,0.127,0.047,0.169c-0.175,0.374-0.263,0.583-0.268,0.626
			c-0.02,0.173,0.02,0.396,0.12,0.67c-0.01,0.087-0.063,0.168-0.16,0.244c-0.096,0.077-0.146,0.138-0.15,0.18
			c0.038,0.049,0.041,0.224,0.006,0.525c-0.015,0.13-0.004,0.22,0.034,0.267c-0.048,0.039-0.097,0.088-0.146,0.147
			c-0.051,0.06-0.101,0.109-0.148,0.146c-0.049,0.039-0.098,0.088-0.147,0.148c-0.052,0.059-0.119,0.084-0.205,0.074
			c-0.263,0.758-0.45,1.261-0.565,1.511c-0.044-0.005-0.112,0.021-0.206,0.075s-0.182,0.057-0.262,0.002
			c-0.31,0.403-0.507,0.6-0.593,0.59c-0.073,0.254-0.229,0.477-0.47,0.668c-0.054,0.082-0.049,0.148,0.012,0.198
			c0.059,0.051,0.087,0.099,0.082,0.141c-0.961,0.373-1.901,0.943-2.82,1.714c-0.217-0.024-0.512,0.073-0.886,0.293
			c-0.13-0.015-0.287,0.022-0.473,0.109c-0.184,0.09-0.321,0.128-0.406,0.118l-0.389-0.044c-0.087-0.01-0.4,0.064-0.942,0.222
			c-0.458,0.167-0.711,0.27-0.758,0.308c-0.528,0.027-0.886,0.096-1.073,0.206l-0.252-0.095c-0.087-0.01-0.21,0.021-0.371,0.09
			s-0.284,0.099-0.371,0.089l-1.425-0.162c-0.528,0.028-0.943,0.024-1.245-0.011l-0.259-0.029c-0.088-0.01-0.168-0.062-0.245-0.158
			c-0.13-0.015-0.315-0.014-0.557,0.002c-0.243,0.017-0.429,0.017-0.559,0.002c-0.476-0.054-0.818-0.114-1.029-0.183
			c-0.087-0.01-0.214-0.046-0.382-0.108s-0.315-0.102-0.445-0.116c-0.044-0.005-0.108-0.001-0.198,0.01
			c-0.089,0.013-0.156,0.016-0.197,0.011c-0.131-0.015-0.295-0.1-0.496-0.253c-0.203-0.155-0.347-0.236-0.433-0.246l-0.258-0.029
			c-0.26-0.029-0.529-0.169-0.806-0.42c-0.125-0.057-0.268-0.15-0.429-0.278c-0.16-0.127-0.263-0.193-0.306-0.198l-0.193-0.022
			c-0.039-0.047-0.115-0.145-0.229-0.288c-0.114-0.145-0.213-0.242-0.295-0.296c-0.358-0.304-0.536-0.477-0.531-0.521
			c-0.472-0.096-1.021-0.443-1.653-1.04c-0.083-0.053-0.18-0.151-0.295-0.296c-0.114-0.144-0.212-0.243-0.293-0.296
			c-0.269-0.336-0.421-0.55-0.453-0.642l-0.473-0.447c0.01-0.086-0.045-0.19-0.163-0.314c-0.116-0.122-0.168-0.248-0.153-0.378
			l-0.309-0.166c-0.139-0.322-0.315-0.79-0.53-1.405s-0.373-1.037-0.479-1.269c-0.167-0.456-0.3-1.019-0.399-1.686
			c-0.08-0.445-0.118-0.69-0.113-0.734l-0.207-0.482c0.005-0.043,0.016-0.721,0.033-2.03c-0.056-0.663-0.08-1.015-0.075-1.059
			c-0.024-0.177-0.007-0.438,0.055-0.78c0.061-0.344,0.1-0.58,0.114-0.71c0.01-0.086,0.003-0.229-0.018-0.428
			c-0.021-0.199-0.027-0.342-0.018-0.429c0.01-0.086,0.041-0.17,0.095-0.252c0.053-0.081,0.083-0.144,0.088-0.187
			c0.01-0.086,0.015-0.238,0.018-0.457c0.002-0.219,0.034-0.391,0.093-0.515l0.093-0.252c0.053-0.081,0.064-0.189,0.037-0.324
			l-0.034-0.266c0.188-0.504,0.311-0.818,0.369-0.942c0.057-0.125,0.101-0.327,0.133-0.608c0.032-0.28,0.083-0.537,0.154-0.77
			c0.069-0.232,0.178-0.406,0.321-0.521c0.054-0.475,0.282-0.952,0.688-1.431c0.174-0.768,0.446-1.239,0.817-1.416l0.015-0.13
			c-0.034-0.091-0.048-0.158-0.043-0.201c0.091-0.033,0.187-0.11,0.288-0.23c0.102-0.119,0.173-0.177,0.217-0.172
			c0.048-0.038,0.053-0.081,0.015-0.13c-0.039-0.047-0.056-0.093-0.051-0.137c0.092-0.032,0.176-0.1,0.253-0.201
			c0.077-0.1,0.16-0.167,0.252-0.2c0.077-0.297,0.266-0.604,0.563-0.921c0.3-0.315,0.479-0.558,0.542-0.726
			c0.833-0.779,1.274-1.21,1.329-1.292c0.09-0.033,0.434-0.17,1.029-0.408c0.092-0.033,0.231-0.115,0.423-0.247
			c0.188-0.132,0.353-0.211,0.486-0.24c0.043,0.004,0.12-0.008,0.233-0.039c0.112-0.03,0.19-0.044,0.234-0.039
			c0.043,0.005,0.202-0.043,0.476-0.143c0.273-0.101,0.497-0.141,0.67-0.121c0.047-0.038,0.17-0.145,0.363-0.319
			c0.194-0.175,0.382-0.273,0.56-0.298c0.092-0.032,0.313-0.063,0.667-0.088c0.352-0.025,0.577-0.099,0.681-0.218
			c0.165,0.063,0.466,0.118,0.899,0.167l0.322,0.037c0.087,0.01,0.188-0.021,0.308-0.097c0.116-0.073,0.219-0.106,0.306-0.097
			c0.888-0.117,1.355-0.195,1.404-0.233c0.081,0.054,0.187,0.087,0.317,0.102c0.259,0.029,0.483-0.032,0.676-0.186
			c0.092-0.033,0.267-0.035,0.525-0.006l0.842,0.096C84.769,65.962,84.966,65.963,85.1,65.934z M84.904,69.979
			c-0.083,0.341-0.331,0.597-0.743,0.769l-0.037,0.323l-0.21,0.107c-0.02,0.173-0.078,0.309-0.177,0.406
			c-0.099,0.099-0.21,0.206-0.332,0.323c-0.122,0.118-0.211,0.217-0.263,0.299c-0.005,0.043,0.009,0.11,0.043,0.202
			c0.031,0.091,0.047,0.158,0.042,0.2L83.09,72.66c-0.136,0.028-0.227,0.063-0.274,0.1l-0.044,0.389
			c-0.059,0.519-0.362,1.074-0.911,1.668l-0.029,0.26c-0.015,0.129-0.049,0.333-0.103,0.611c-0.055,0.279-0.087,0.482-0.103,0.611
			c-0.029,0.26-0.017,0.523,0.042,0.792c-0.135,0.029-0.212,0.13-0.231,0.302c-0.005,0.044-0.01,0.087-0.015,0.13
			c-0.005,0.044-0.056,0.104-0.151,0.18c-0.058,0.124-0.108,0.272-0.149,0.442c-0.042,0.171-0.065,0.299-0.075,0.385
			c0.114,0.145,0.156,0.347,0.127,0.605s-0.146,0.508-0.347,0.748c0.056,0.269,0.078,0.468,0.063,0.597
			c-0.024,0.217-0.101,0.493-0.226,0.828c-0.005,0.044,0.03,0.113,0.107,0.209c0.076,0.097,0.087,0.185,0.035,0.267
			c-0.116,0.249-0.212,0.72-0.291,1.41c-0.029,0.259-0.065,0.66-0.104,1.202c-0.04,0.542-0.073,0.942-0.103,1.202l-0.044,0.389
			c-0.006,0.043,0.008,0.121,0.038,0.233c0.03,0.113,0.044,0.191,0.039,0.234c0.053,0.313,0.056,0.751,0.015,1.314
			c-0.042,0.563-0.054,0.955-0.035,1.177l0.128,0.604c0.099,0.668,0.206,1.073,0.321,1.218c0.114,0.145,0.334,0.323,0.661,0.534
			c0.086,0.01,0.16,0.04,0.22,0.091s0.11,0.078,0.154,0.083c0.08,0.053,0.165,0.085,0.252,0.095c0.042,0.004,0.152-0.005,0.33-0.028
			s0.307-0.009,0.39,0.044c0.653-0.362,1.16-0.59,1.521-0.68c0.052-0.082,0.143-0.203,0.271-0.363
			c0.127-0.16,0.239-0.278,0.337-0.355c0.1-0.12,0.224-0.346,0.371-0.68c0.147-0.333,0.25-0.563,0.308-0.687l0.231-0.302
			c0.053-0.082,0.098-0.186,0.134-0.313c0.036-0.127,0.08-0.23,0.134-0.313c0.304-0.359,0.463-0.604,0.478-0.733
			s0.002-0.218-0.035-0.267c0.101-0.119,0.221-0.303,0.357-0.55c0.137-0.246,0.232-0.41,0.285-0.492l-0.035-0.267
			c0.015-0.129,0.074-0.275,0.182-0.438c0.104-0.163,0.16-0.266,0.165-0.31c0.005-0.042,0.017-0.14,0.033-0.291
			c0.018-0.151,0.053-0.267,0.106-0.349c0.01-0.086,0.04-0.17,0.094-0.252c0.053-0.082,0.081-0.144,0.087-0.188l0.11-0.971
			c0.066-0.212,0.182-0.538,0.34-0.979c0.16-0.441,0.247-0.727,0.262-0.856c0.146-0.509,0.152-1.251,0.023-2.229
			c-0.13-0.976-0.17-1.681-0.121-2.112c-0.104-0.231-0.16-0.598-0.169-1.102c-0.01-0.504-0.027-0.824-0.056-0.958
			c-0.225-0.726-0.326-1.175-0.307-1.347c-0.415-0.967-0.628-1.603-0.636-1.91c-0.164-0.105-0.395-0.285-0.694-0.538
			c-0.299-0.252-0.552-0.434-0.757-0.545C85.546,70.097,85.249,70.019,84.904,69.979z"/>
	</g>
	<g>
		<path fill="#231F20" d="M74.987,109.879l0.165,0.02c0.108,0.012,0.261,0.057,0.456,0.135c0.193,0.077,0.327,0.12,0.4,0.128
			c0.072,0.009,0.145,0.026,0.216,0.053s0.144,0.044,0.217,0.052l0.657,0.075c0.475,0.054,0.814,0.148,1.021,0.282
			c0.036,0.004,0.103,0.066,0.2,0.189c0.329,0.037,0.658,0.223,0.991,0.556c0.219,0.025,0.446,0.134,0.684,0.328
			c0.236,0.193,0.445,0.3,0.629,0.321c-0.021,0.182,0.092,0.324,0.34,0.427c0.044,0.263,0.083,0.397,0.12,0.401
			c0.102,0.086,0.238,0.268,0.41,0.546c0.171,0.278,0.325,0.463,0.464,0.552c0.048,0.228,0.105,0.363,0.176,0.408
			c0.032,0.041,0.026,0.086-0.016,0.137c-0.043,0.051-0.067,0.095-0.071,0.131c0.057,0.154,0.162,0.37,0.315,0.646
			c0.153,0.277,0.277,0.494,0.37,0.652c-0.033,0.292-0.071,0.455-0.111,0.487c-0.005,0.035,0.012,0.056,0.049,0.061
			c0.146,0.016,0.249,0.083,0.31,0.201c0.06,0.118,0.107,0.271,0.143,0.46c0.033,0.189,0.083,0.324,0.147,0.405
			c-0.045,0.069-0.075,0.177-0.092,0.322c-0.021,0.183,0.027,0.41,0.145,0.682c0.116,0.272,0.189,0.446,0.218,0.523
			c-0.009,0.074-0.022,0.192-0.041,0.356c-0.019,0.165-0.015,0.285,0.015,0.362c0.027,0.077,0.066,0.146,0.115,0.207
			s0.071,0.11,0.067,0.146c0.034,0.669,0.067,1.025,0.101,1.064c-0.005,0.037-0.023,0.118-0.056,0.244
			c-0.034,0.126-0.054,0.226-0.063,0.298c-0.063,0.548-0.022,1.015,0.119,1.399c-0.05,0.438-0.075,0.824-0.076,1.156
			c-0.013,0.109,0.006,0.27,0.058,0.479c0.05,0.209,0.071,0.35,0.063,0.423c-0.012,0.109-0.08,0.213-0.202,0.31
			c-0.009,0.074-0.011,0.175-0.006,0.305c0.003,0.131,0.001,0.231-0.007,0.305c-0.037,0.328-0.126,0.614-0.265,0.856
			c0.023,0.114,0.025,0.263,0.005,0.445c-0.029,0.255-0.068,0.436-0.117,0.54c-0.008,0.074,0.002,0.148,0.03,0.226
			c0.027,0.078,0.02,0.151-0.024,0.22c-0.005,0.036-0.045,0.069-0.122,0.097c-0.078,0.028-0.122,0.098-0.135,0.206l-0.068,0.603
			c-0.004,0.037,0.01,0.085,0.039,0.144c0.03,0.059,0.044,0.107,0.039,0.144c-0.146,0.315-0.222,0.493-0.226,0.528
			c-0.017,0.146,0.018,0.335,0.102,0.566c-0.009,0.073-0.054,0.142-0.134,0.206c-0.083,0.065-0.125,0.116-0.13,0.152
			c0.032,0.041,0.035,0.189,0.006,0.444c-0.012,0.109-0.003,0.186,0.03,0.226c-0.041,0.032-0.083,0.073-0.126,0.124
			c-0.042,0.051-0.084,0.093-0.125,0.124c-0.04,0.033-0.081,0.074-0.124,0.125c-0.043,0.05-0.101,0.071-0.174,0.063
			c-0.221,0.641-0.38,1.066-0.478,1.276c-0.037-0.004-0.095,0.018-0.175,0.064c-0.078,0.046-0.152,0.047-0.221,0.002
			c-0.261,0.341-0.429,0.506-0.501,0.498c-0.062,0.214-0.193,0.403-0.396,0.564c-0.045,0.069-0.043,0.126,0.009,0.168
			c0.05,0.043,0.074,0.082,0.069,0.119c-0.813,0.314-1.607,0.797-2.384,1.448c-0.182-0.021-0.433,0.062-0.748,0.247
			c-0.109-0.012-0.243,0.02-0.398,0.094c-0.157,0.075-0.272,0.108-0.345,0.1l-0.329-0.037c-0.073-0.009-0.339,0.054-0.798,0.187
			c-0.386,0.142-0.599,0.229-0.639,0.26c-0.447,0.024-0.749,0.082-0.907,0.175l-0.213-0.08c-0.073-0.008-0.179,0.018-0.313,0.075
			c-0.138,0.06-0.241,0.084-0.314,0.076l-1.204-0.137c-0.446,0.023-0.799,0.02-1.053-0.009l-0.22-0.025
			c-0.073-0.009-0.143-0.052-0.206-0.134c-0.109-0.013-0.267-0.012-0.472,0.002c-0.206,0.014-0.362,0.014-0.472,0.001
			c-0.402-0.045-0.691-0.097-0.869-0.153c-0.074-0.009-0.182-0.039-0.323-0.093c-0.142-0.053-0.268-0.086-0.378-0.099
			c-0.036-0.004-0.092,0-0.166,0.01c-0.076,0.01-0.132,0.013-0.167,0.008c-0.11-0.012-0.251-0.084-0.421-0.213
			c-0.169-0.131-0.291-0.2-0.364-0.209l-0.22-0.024c-0.218-0.024-0.445-0.143-0.68-0.354c-0.105-0.049-0.226-0.127-0.361-0.235
			c-0.136-0.107-0.223-0.163-0.259-0.168l-0.164-0.019c-0.032-0.041-0.097-0.122-0.193-0.244s-0.182-0.205-0.249-0.25
			c-0.304-0.256-0.453-0.402-0.449-0.438c-0.398-0.083-0.864-0.377-1.397-0.881c-0.07-0.044-0.152-0.128-0.249-0.25
			c-0.098-0.122-0.181-0.205-0.249-0.25c-0.228-0.284-0.355-0.465-0.383-0.542l-0.4-0.379c0.009-0.072-0.037-0.161-0.137-0.265
			c-0.099-0.104-0.143-0.211-0.13-0.32l-0.261-0.141c-0.118-0.271-0.267-0.668-0.448-1.188c-0.183-0.519-0.315-0.876-0.405-1.071
			c-0.141-0.386-0.254-0.86-0.337-1.425c-0.067-0.377-0.1-0.584-0.096-0.621l-0.176-0.408c0.004-0.036,0.014-0.608,0.028-1.716
			c-0.047-0.561-0.068-0.858-0.064-0.896c-0.02-0.149-0.005-0.369,0.047-0.66c0.051-0.289,0.084-0.489,0.096-0.599
			c0.009-0.073,0.003-0.194-0.014-0.362c-0.018-0.168-0.022-0.289-0.015-0.362c0.009-0.072,0.035-0.144,0.08-0.213
			c0.043-0.068,0.069-0.121,0.073-0.157c0.008-0.073,0.013-0.202,0.016-0.387s0.029-0.33,0.077-0.436l0.08-0.213
			c0.044-0.068,0.055-0.16,0.031-0.273l-0.03-0.225c0.16-0.426,0.264-0.691,0.313-0.797c0.048-0.105,0.086-0.276,0.112-0.515
			c0.027-0.236,0.07-0.454,0.13-0.65c0.059-0.196,0.149-0.344,0.272-0.44c0.045-0.401,0.238-0.805,0.581-1.209
			c0.147-0.649,0.376-1.048,0.69-1.198l0.012-0.109c-0.028-0.077-0.039-0.134-0.034-0.17c0.075-0.028,0.156-0.094,0.242-0.194
			c0.086-0.102,0.146-0.149,0.184-0.146c0.04-0.032,0.045-0.068,0.013-0.109c-0.033-0.04-0.048-0.079-0.043-0.116
			c0.077-0.027,0.147-0.084,0.214-0.17c0.064-0.085,0.135-0.142,0.213-0.17c0.065-0.251,0.225-0.51,0.477-0.777
			c0.253-0.268,0.404-0.472,0.458-0.614c0.703-0.659,1.078-1.023,1.122-1.093c0.077-0.027,0.367-0.143,0.871-0.344
			c0.076-0.028,0.196-0.099,0.357-0.21c0.16-0.11,0.297-0.178,0.411-0.203c0.035,0.005,0.103-0.006,0.198-0.032
			c0.094-0.025,0.16-0.037,0.197-0.033c0.035,0.004,0.171-0.036,0.401-0.121c0.232-0.084,0.421-0.118,0.566-0.102
			c0.04-0.032,0.144-0.123,0.309-0.271c0.164-0.147,0.321-0.231,0.473-0.251c0.076-0.027,0.264-0.054,0.562-0.074
			c0.299-0.021,0.49-0.084,0.577-0.185c0.142,0.053,0.395,0.1,0.761,0.142l0.273,0.03c0.072,0.009,0.158-0.018,0.258-0.081
			c0.1-0.063,0.186-0.09,0.26-0.081c0.75-0.1,1.146-0.165,1.187-0.198c0.068,0.045,0.158,0.074,0.268,0.086
			c0.22,0.025,0.41-0.027,0.572-0.157c0.077-0.027,0.226-0.03,0.445-0.005l0.711,0.081
			C74.708,109.902,74.873,109.903,74.987,109.879z M74.82,113.299c-0.069,0.289-0.278,0.505-0.627,0.649l-0.031,0.274l-0.178,0.091
			c-0.017,0.146-0.067,0.261-0.149,0.343c-0.084,0.084-0.178,0.175-0.28,0.273c-0.104,0.1-0.18,0.184-0.223,0.252
			c-0.004,0.037,0.007,0.095,0.035,0.171c0.027,0.077,0.041,0.135,0.037,0.17l-0.116,0.043c-0.114,0.024-0.191,0.053-0.232,0.085
			l-0.037,0.328c-0.05,0.438-0.307,0.908-0.77,1.41l-0.024,0.219c-0.013,0.109-0.042,0.282-0.088,0.518
			c-0.045,0.235-0.073,0.406-0.086,0.517c-0.025,0.22-0.014,0.442,0.035,0.669c-0.114,0.025-0.178,0.11-0.194,0.256
			c-0.005,0.037-0.009,0.073-0.013,0.109c-0.004,0.037-0.048,0.088-0.129,0.152c-0.049,0.105-0.091,0.23-0.126,0.373
			c-0.035,0.145-0.057,0.253-0.064,0.326c0.097,0.121,0.133,0.292,0.108,0.511c-0.025,0.22-0.123,0.43-0.293,0.633
			c0.047,0.228,0.065,0.396,0.053,0.505c-0.021,0.184-0.085,0.416-0.189,0.699c-0.004,0.037,0.024,0.096,0.09,0.178
			c0.063,0.082,0.074,0.156,0.03,0.225c-0.099,0.211-0.181,0.608-0.247,1.192c-0.024,0.219-0.054,0.558-0.087,1.016
			c-0.034,0.459-0.063,0.798-0.088,1.017l-0.037,0.328c-0.005,0.037,0.007,0.104,0.032,0.198c0.026,0.096,0.037,0.162,0.033,0.198
			c0.044,0.264,0.048,0.635,0.013,1.11c-0.036,0.477-0.046,0.809-0.029,0.994l0.108,0.512c0.083,0.564,0.174,0.907,0.271,1.03
			c0.097,0.121,0.282,0.272,0.56,0.451c0.072,0.008,0.134,0.035,0.186,0.076c0.05,0.044,0.094,0.066,0.131,0.07
			c0.068,0.045,0.139,0.071,0.211,0.08c0.036,0.004,0.131-0.004,0.282-0.023c0.148-0.021,0.258-0.008,0.328,0.037
			c0.551-0.307,0.98-0.499,1.286-0.575c0.043-0.068,0.12-0.171,0.228-0.307c0.108-0.136,0.201-0.235,0.284-0.301
			c0.085-0.102,0.19-0.292,0.314-0.575c0.123-0.281,0.211-0.475,0.26-0.58l0.196-0.255c0.043-0.068,0.081-0.157,0.112-0.265
			c0.03-0.107,0.068-0.194,0.114-0.264c0.256-0.305,0.39-0.511,0.402-0.62s0.002-0.185-0.03-0.226
			c0.085-0.102,0.187-0.256,0.303-0.465s0.196-0.347,0.242-0.416l-0.031-0.226c0.013-0.109,0.063-0.232,0.154-0.37
			c0.089-0.138,0.136-0.225,0.141-0.262c0.004-0.036,0.013-0.118,0.027-0.246s0.045-0.226,0.089-0.295
			c0.009-0.073,0.034-0.144,0.08-0.213c0.044-0.069,0.069-0.121,0.073-0.158l0.093-0.822c0.058-0.178,0.153-0.453,0.289-0.826
			c0.134-0.373,0.208-0.614,0.221-0.724c0.122-0.43,0.129-1.058,0.02-1.884c-0.11-0.825-0.144-1.421-0.103-1.786
			c-0.088-0.195-0.137-0.505-0.145-0.932c-0.006-0.426-0.022-0.696-0.046-0.81c-0.189-0.612-0.275-0.992-0.259-1.139
			c-0.352-0.816-0.531-1.354-0.537-1.614c-0.138-0.089-0.333-0.24-0.587-0.454c-0.253-0.214-0.467-0.367-0.641-0.461
			C75.364,113.398,75.112,113.332,74.82,113.299z"/>
	</g>
	<g>
		<path fill="#231F20" d="M96.028,119.877c0.099,0.048,0.521,0.313,1.267,0.796c0.032,0.016,0.104,0.06,0.212,0.133
			s0.194,0.124,0.262,0.156l0.024,0.073l0.051,0.025c0.229,0.111,0.347,0.208,0.349,0.29c1.274,0.656,2.401,1.405,3.384,2.246
			c-0.017,0.033-0.008,0.099,0.025,0.197l0.027,0.196l0.298,0.145c0.068,0.195,0.088,0.327,0.056,0.393
			c0.099,0.049,0.177,0.139,0.237,0.268c0.06,0.132,0.121,0.213,0.188,0.245c-0.032,0.066-0.039,0.164-0.02,0.296
			c0.017,0.131,0.011,0.229-0.021,0.296l-0.516,0.18c-0.099,0.034-0.418,0.187-0.955,0.457c-0.623,0.024-1.052,0.022-1.282-0.008
			l-0.149-0.072c-0.33-0.159-0.651-0.212-0.962-0.159c-0.331-0.159-0.992-0.396-1.981-0.712c-0.05,0.018-0.123,0.022-0.223,0.015
			c-0.099-0.006-0.173-0.001-0.221,0.016c-0.188,0.644-0.291,0.982-0.307,1.016c-0.112,0.231-0.233,0.355-0.364,0.374
			c-0.032,0.066-0.057,0.157-0.071,0.272c-0.016,0.114-0.03,0.189-0.046,0.223s-0.077,0.095-0.182,0.187
			c-0.107,0.093-0.184,0.188-0.231,0.286c-0.064,0.133-0.141,0.422-0.234,0.867c-0.016,0.033-0.05,0.058-0.098,0.075l-0.048,0.099
			c-0.032,0.066-0.067,0.182-0.105,0.347c-0.039,0.165-0.074,0.28-0.106,0.347c-0.016,0.033-0.073,0.088-0.171,0.162
			c-0.097,0.075-0.153,0.131-0.169,0.163c-0.017,0.033-0.037,0.095-0.06,0.185c-0.024,0.092-0.052,0.17-0.084,0.236
			c-0.08,0.166-0.267,0.382-0.559,0.648l0.007,0.369c-0.082,0.084-0.211,0.287-0.387,0.609c-0.177,0.323-0.348,0.527-0.509,0.611
			l-0.168,0.348c-0.08,0.166-0.188,0.367-0.325,0.607s-0.236,0.427-0.301,0.559c-0.111,0.232-0.184,0.422-0.213,0.57
			c-0.016,0.033,0.001,0.123,0.053,0.271c0,0.082-0.023,0.132-0.072,0.148l-0.122,0.125c0.02,0.214-0.01,0.403-0.09,0.568
			c-0.128,0.265-0.29,0.472-0.485,0.622c-0.063,0.215-0.127,0.347-0.192,0.397c0.051,0.065,0.02,0.214-0.092,0.444
			c-0.017,0.033-0.04,0.083-0.072,0.149l0.003,0.124c-0.032,0.066-0.114,0.149-0.243,0.249l0.001,0.123
			c-0.032,0.066-0.057,0.116-0.072,0.148c-0.032,0.067-0.085,0.134-0.156,0.2c-0.073,0.066-0.119,0.116-0.135,0.149
			c0.001,0.082,0.023,0.164,0.066,0.246c0.041,0.081,0.055,0.14,0.039,0.172c-0.082,0.083-0.146,0.216-0.192,0.396
			c-0.047,0.183-0.103,0.298-0.168,0.348c-0.065,0.051-0.154,0.108-0.269,0.176s-0.18,0.118-0.195,0.15
			c-0.017,0.033-0.019,0.083-0.01,0.148s0.005,0.115-0.011,0.147l-0.12,0.248c-0.112,0.232-0.28,0.457-0.508,0.673
			c0.004,0.329-0.049,0.609-0.16,0.841l-0.146,0.174c0.016,0.05-0.078,0.29-0.285,0.719c-0.048,0.1-0.08,0.248-0.094,0.445
			c-0.014,0.198-0.045,0.346-0.093,0.445c-0.063,0.132-0.169,0.224-0.316,0.275c-0.049,0.017-0.144,0.022-0.283,0.016
			c-0.14-0.006-0.25,0.032-0.331,0.115c-0.033-0.016-0.136-0.035-0.309-0.057c-0.173-0.022-0.31-0.058-0.408-0.105
			c-0.099,0.034-0.648,0.033-1.651-0.002l-1.064-0.331c-0.034-0.017-0.078-0.027-0.136-0.035c-0.059-0.007-0.104-0.02-0.136-0.035
			c-0.067-0.032-0.184-0.108-0.349-0.229c-0.167-0.12-0.299-0.205-0.397-0.254l-0.223-0.045c-0.35-0.292-0.558-0.453-0.623-0.484
			l-0.099-0.049c-0.104-0.294-0.206-0.506-0.306-0.637c-0.018-0.049-0.052-0.209-0.104-0.479c-0.053-0.271-0.131-0.471-0.23-0.602
			c0.048-0.1,0.055-0.197,0.021-0.296c-0.273-0.784-0.299-1.408-0.075-1.872c0.08-0.165,0.111-0.272,0.095-0.321
			c-0.018-0.049-0.002-0.082,0.048-0.1l0.073-0.025c-0.051-0.147-0.036-0.303,0.044-0.469l0.264-0.546
			c0.016-0.033,0.048-0.059,0.098-0.075c0.048-0.017,0.08-0.042,0.097-0.075c0.016-0.033,0.015-0.094-0.003-0.186
			c-0.018-0.09-0.018-0.15-0.002-0.185c0.913-1.721,1.475-2.716,1.685-2.98c0.032-0.066,0.089-0.1,0.172-0.102
			c0.016-0.032,0.031-0.046,0.049-0.037c0.016,0.008,0.032-0.005,0.049-0.038c-0.068-0.113-0.005-0.205,0.192-0.273l-0.099-0.048
			c-0.066-0.032-0.092-0.064-0.075-0.098l0.528-0.969c0.017-0.032,0.057-0.054,0.124-0.063c0.064-0.008,0.104-0.029,0.121-0.063
			c0.016-0.033,0.015-0.074-0.001-0.124c-0.018-0.048-0.019-0.089-0.002-0.123c0.016-0.032,0.14-0.269,0.373-0.707
			c0.231-0.438,0.42-0.725,0.567-0.858c0.016-0.032,0.014-0.074-0.003-0.123l0.048-0.1c0.177-0.282,0.418-0.736,0.722-1.365
			l1.223-2.53c0.048-0.1,0.141-0.228,0.277-0.386c0.138-0.158,0.23-0.287,0.278-0.387c0.064-0.05,0.165-0.174,0.304-0.373
			c0.136-0.199,0.263-0.291,0.378-0.276c0.062-0.297,0.107-0.478,0.141-0.545c0.031-0.065,0.145-0.195,0.34-0.386
			c0.193-0.191,0.332-0.33,0.413-0.413c0.08-0.083,0.169-0.203,0.266-0.361c0.096-0.157,0.187-0.277,0.268-0.36
			c0.389-0.302,0.6-0.484,0.632-0.551c-0.118-0.18-0.4-0.418-0.847-0.716c-0.448-0.298-0.723-0.553-0.825-0.765l-0.148-0.072
			c-0.198-0.096-0.314-0.192-0.349-0.291c-0.331-0.16-0.465-0.306-0.4-0.438l-0.297-0.144c-0.068-0.114-0.235-0.317-0.502-0.609
			c-0.268-0.292-0.442-0.521-0.526-0.684l0.048-0.099c0.048-0.1,0.12-0.207,0.217-0.323c0.096-0.116,0.153-0.191,0.169-0.225
			l1.229-0.263c0.066,0.031,0.185,0.038,0.357,0.019c0.172-0.018,0.325,0.005,0.458,0.068c0.032,0.017,0.048,0.045,0.049,0.086
			s0.035,0.077,0.101,0.109c0.84,0.202,1.326,0.335,1.459,0.399l0.149,0.071c0.441-0.071,0.929,0.02,1.458,0.276
			c0.131-0.019,0.313,0.028,0.544,0.141l0.348,0.167l0.718,0.164c0.065,0.031,0.127,0.071,0.187,0.119
			c0.057,0.05,0.119,0.089,0.186,0.121c0.032,0.016,0.086,0.032,0.16,0.047c0.075,0.016,0.129,0.031,0.162,0.048l0.396,0.191
			c0.364,0.176,0.637,0.329,0.819,0.457C95.622,119.702,95.795,119.765,96.028,119.877z"/>
	</g>
	<g>
		<g>
			<path fill="#BE1E2D" d="M92.679,87.06c-6.943-9.738-17.99,5.354-20.639,11.01c-4.13,8.828-6.479,17.084-13.396,25.168
				c-7.227,8.445-13.012,12.705-23.393,14.715c-6.619,1.283-22.525-9.318-22.229-3.541c6.137,9.574,19.008,13.313,29.129,12.119
				c11.393-1.344,18.336-4.859,27.081-13.256c8.401-8.072,10.904-17.018,19.823-23.479c7.262-5.264,18.201-16.988,4.248-22.146
				L92.679,87.06z"/>
			<path fill="#231F20" d="M38.417,147.428C38.417,147.428,38.417,147.428,38.417,147.428c-8.635,0-19.991-3.323-25.968-12.648
				l-0.098-0.152l-0.009-0.181c-0.038-0.748,0.147-1.343,0.552-1.769c0.432-0.454,1.093-0.685,1.965-0.685
				c1.972,0,4.95,1.119,8.399,2.416c3.703,1.392,7.899,2.97,10.752,2.97c0.001,0,0.001,0,0.001,0c0.407,0,0.781-0.033,1.11-0.097
				c10.687-2.069,16.329-6.688,23.004-14.488c5.127-5.992,7.706-12.067,10.436-18.499c0.899-2.117,1.828-4.307,2.861-6.515
				c1.825-3.898,8.978-14.6,15.873-14.6c2.275,0,4.26,1.153,5.9,3.428l0.477,0.45c4.217,1.588,6.564,3.918,6.977,6.925
				c0.761,5.539-5.554,12.277-11.193,16.365c-4.857,3.519-7.778,7.794-10.87,12.321c-2.505,3.667-5.095,7.459-8.881,11.097
				c-8.943,8.586-16.132,12.104-27.474,13.441C40.996,147.354,39.712,147.428,38.417,147.428z M13.702,134.204
				c5.719,8.748,16.868,11.858,24.714,11.858h0c1.242,0,2.472-0.07,3.655-0.21c11.145-1.314,17.88-4.612,26.688-13.07
				c3.684-3.54,6.234-7.272,8.7-10.883c3.161-4.627,6.146-8.998,11.196-12.656c5.755-4.171,11.277-10.45,10.642-15.074
				c-0.343-2.5-2.439-4.479-6.23-5.88l-0.13-0.048l-0.813-0.785c-1.377-1.932-3.001-2.91-4.828-2.91
				c-5.702,0-12.452,9.146-14.637,13.813c-1.023,2.187-1.947,4.363-2.841,6.47c-2.772,6.531-5.391,12.701-10.655,18.853
				c-6.875,8.035-12.702,12.797-23.781,14.941c-0.415,0.08-0.876,0.121-1.37,0.121c0,0-0.001,0-0.002,0
				c-3.102,0-7.235-1.554-11.232-3.057c-3.187-1.197-6.196-2.329-7.919-2.329c-0.332,0-0.771,0.045-0.976,0.261
				C13.769,133.737,13.708,133.935,13.702,134.204z"/>
		</g>
		<g>
			<path fill="#468885" d="M97.619,73.031c3.637,4.515-3.427,14.433-8.847,12.874c5.655,16.512,17.477-10.896,9.554-13.624
				C97.304,71.928,97.619,73.031,97.619,73.031z"/>
			<path fill="#231F20" d="M93.314,91.846C93.313,91.846,93.314,91.846,93.314,91.846c-2.143,0-3.888-1.925-5.188-5.72l-0.424-1.238
				l1.258,0.361c0.318,0.092,0.654,0.139,0.997,0.139c0,0,0,0,0,0c2.466-0.001,5.506-2.468,7.071-5.738
				c1.195-2.496,1.216-4.753,0.058-6.19L97,73.352l-0.038-0.133c-0.052-0.183-0.195-0.816,0.158-1.283
				c0.297-0.394,0.806-0.515,1.428-0.299c2.583,0.889,3.631,3.987,2.876,8.499C100.479,85.79,96.993,91.846,93.314,91.846z
				 M89.816,86.75c1.001,2.446,2.2,3.73,3.498,3.73c2.568,0,5.855-5.137,6.765-10.571c0.222-1.326,0.728-5.565-1.576-6.808
				c1.144,1.843,1.065,4.404-0.243,7.137c-1.549,3.237-4.898,6.514-8.302,6.514C89.902,86.77,89.864,86.752,89.816,86.75z"/>
		</g>
		<path fill="#77111A" d="M92.453,94.39c-7.294-6.875-5.67,6.926-16.59,21.803c-2.418,3.295-9.555,14.113-12.648,16.953
			c-3.566,3.275-5.519,4.445-8.205,5.648c6.223,4.459,21.356-17.23,24.509-21.887c5.371-7.941,17.709-12.4,19.574-21.438
			C99.828,93.368,93.455,95.333,92.453,94.39z"/>
		<path fill="#77111A" d="M62.924,120.839c2.251,4.324-16.748,22.912-21.861,18.336C53.759,134.22,62.924,120.839,62.924,120.839z"
			/>
		<path fill="#FFFFFF" d="M85.69,92.097c0,0,0.909-0.58,1.925,1.014c1.016,1.598,3.603,3.275,5.059,2.428
			c1.455-0.848,2.689,4.146-0.936,3.023c-3.629-1.123-5.524-2.652-6.189-4.139S85.69,92.097,85.69,92.097z"/>
		<path fill="#5AB1AF" d="M98.603,82.589c0,0-1.291,6.766-4.26,6.779c-2.968,0.012-4.061-1.025-2.549-1.371
			c1.51-0.348,2.252-0.201,3.817-1.703C97.177,84.794,97.723,82.202,98.603,82.589z"/>
	</g>
	<path fill="#F6921E" d="M90.442,111.14c0,0,8.416-19.107,27.481-15.469c9.593,1.83,4.28,10.475,1.746,15.512
		c-2.533,5.037,3.83,6.248,6.646,3.484C130.154,110.899,125.859,133.919,90.442,111.14z"/>
	<path fill="#FAAF40" d="M48.941,103.854c0,0-9.832,20.619-34.453,6.705c-14.293-8.078-7.528-22.52-5.321-18.299
		c6.035,11.543,21.124,13.801,21.124,13.801s-15.089-13.801-8.363-15.846C33.437,86.716,40.303,111.876,48.941,103.854z"/>
	<path fill="#FAAF40" d="M93.667,108.478c0,0,12.956-16.189,20.449-8.512c-1.791,4.787-5.959,5.949-5.959,5.949
		s3.635-1.355,6.871,2.131c-3.629,1.365-10.648,1.703-10.648,1.703s2.669,5.389,5.149,8.346
		C98.923,116.052,93.667,108.478,93.667,108.478z"/>
	<path fill="#F6921E" d="M25.47,81.19c0,0-15.131-11.807-7.703-29.483c1.537,10.634,4.489,11.402,7.891,15.848
		C30.779,74.244,25.47,81.19,25.47,81.19z"/>
	<path fill="#F6921E" d="M62.292,81.19c0,0-15.132-11.807-7.702-29.483c1.537,10.634,4.488,11.402,7.891,15.848
		C67.599,74.244,62.292,81.19,62.292,81.19z"/>
	<path fill="#BE1E2D" d="M79.21,74.138c0.381-0.078,0.816-0.234,1.311-0.48c2.67-1.311,1.476-3.301-0.863-3.319
		C76.336,70.314,76.178,74.78,79.21,74.138z"/>
	<path fill="#BE1E2D" d="M77.187,36.012c-0.419-2.068-1.874-1.921-3.087-1.023s-0.587,3.531,0.511,3.358
		C75.998,38.127,77.497,37.542,77.187,36.012z"/>
	<path fill="#BE1E2D" d="M65.542,24.365c-0.418-2.066-1.874-1.919-3.087-1.023c-1.211,0.899-0.587,3.534,0.512,3.36
		C64.352,26.481,65.851,25.897,65.542,24.365z"/>
	<g>
		<path fill="#BE1E2D" d="M73.988,25.484c2.65,1.536,6.551-0.341,4.616-1.773c-0.928-0.684-3.554-0.22-4.223,0.305
			C73.896,24.4,73.672,24.726,73.988,25.484z"/>
		<path fill="#BE1E2D" d="M41.67,45.885c3.003-0.605,4.678-4.599,2.28-4.387c-1.148,0.101-2.807,2.188-2.961,3.026
			C40.882,45.137,40.932,45.526,41.67,45.885z"/>
		<path fill="#BE1E2D" d="M51.976,20.888c1.662-1.702-0.303-4.141-1.844-2.894c-0.736,0.596-0.27,2.25,0.283,2.668
			C50.823,20.964,51.167,21.098,51.976,20.888z"/>
		<path fill="#BE1E2D" d="M58.681,32.43c1.662-1.701-0.3-4.141-1.844-2.894c-0.738,0.596-0.268,2.25,0.283,2.666
			C57.527,32.504,57.873,32.639,58.681,32.43z"/>
		<path fill="#BE1E2D" d="M83.452,56.382c2.651,1.536,6.55-0.343,4.618-1.773c-0.928-0.684-3.554-0.22-4.223,0.305
			C83.359,55.3,83.136,55.623,83.452,56.382z"/>
		<path fill="#BE1E2D" d="M69.152,77.601c1.658-1.703-0.303-4.14-1.847-2.896c-0.737,0.598-0.269,2.252,0.284,2.668
			C67.997,77.677,68.34,77.81,69.152,77.601z"/>
	</g>
	<path fill="#BE1E2D" d="M39.265,107.313c0,0-13.815,2.182-19.53-10.568c6.427,4.473,8.304,3.283,12.362,3.684
		C38.208,101.03,39.265,107.313,39.265,107.313z"/>
	<path fill="#BE1E2D" d="M64.251,58.875c0,0-8.876-10.81-0.773-22.193c-0.604,7.807,1.373,8.823,3.081,12.526
		C69.133,54.782,64.251,58.875,64.251,58.875z"/>
</g>
</svg>
