<?xml version="1.0" encoding="utf-8"?>
<!-- Generator: Adobe Illustrator 16.0.0, SVG Export Plug-In . SVG Version: 6.00 Build 0)  -->
<!DOCTYPE svg PUBLIC "-//W3C//DTD SVG 1.1//EN" "http://www.w3.org/Graphics/SVG/1.1/DTD/svg11.dtd">
<svg version="1.1" id="Layer_1" xmlns="http://www.w3.org/2000/svg" xmlns:xlink="http://www.w3.org/1999/xlink" x="0px" y="0px"
	 width="153.104px" height="51.753px" viewBox="0 0 153.104 51.753" enable-background="new 0 0 153.104 51.753"
	 xml:space="preserve">
<g>
	<g>
		<path fill="#FFFFFF" d="M67.176,42.693c-6.944,0-14.208-4.679-18.505-11.719c-4.249-6.962-4.644-14.997-1.079-21.931
			c0.016-0.032,0.032-0.096,0.049-0.127C51.771,1.173,57.415,0,60.412,0c3.432,0,6.52,1.42,8.902,3.519
			c1.393-0.632,2.927-0.979,4.536-0.979c5.447,0,10.374,3.87,12.552,9.861c3.139,8.63-3.175,15.265-6.564,18.829
			c-0.691,0.727-1.344,1.412-1.719,1.889c-0.615,0.779-0.703,1.123-0.896,1.873c-0.442,1.717-1.789,7.072-9.049,7.541
			c-0.329,0.02-0.66,0.16-0.996,0.16C67.178,42.693,67.177,42.693,67.176,42.693z"/>
		<path fill="#FFFFFF" d="M79.824,14.791c-2.392-6.577-8.91-6.899-10.26-1.419s-1.882,1.195-2.38-0.684
			c-0.863-4.073-8.184-10.231-13.368-0.51c-5.929,11.537,5.493,23.783,13.906,23.24c3.911-0.252,1.415-2.211,4.896-6.629
			C75.322,25.354,81.932,20.586,79.824,14.791z"/>
	</g>
	<g>
		<g>
			<path fill="#FFFFFF" d="M25.346,50.99c-0.284,0-0.568-0.021-0.849-0.063c-0.315-0.021-0.63-0.071-0.94-0.145
				c-0.75-0.052-1.483-0.246-2.162-0.574c-0.087-0.033-0.173-0.068-0.258-0.105c-0.63-0.182-1.229-0.439-1.796-0.771
				c-0.057-0.031-0.112-0.065-0.167-0.102c-0.647-0.266-1.25-0.648-1.773-1.139c-0.076-0.072-0.184-0.166-0.316-0.281
				c-0.209-0.178-0.439-0.383-0.673-0.623c-0.244-0.195-0.474-0.409-0.686-0.643c-0.005-0.002-0.01-0.006-0.016-0.01
				c-0.484-0.334-0.933-0.732-1.336-1.195c-0.222-0.211-0.425-0.438-0.61-0.678c-0.1-0.1-0.197-0.201-0.29-0.307
				c-0.296-0.289-0.556-0.602-0.783-0.938c-0.039-0.058-0.078-0.117-0.117-0.178c-0.015-0.015-0.028-0.029-0.044-0.043
				c-0.567-0.426-1.072-0.953-1.508-1.578c-0.123-0.177-0.236-0.359-0.346-0.553c-0.014-0.018-0.028-0.033-0.043-0.051
				c-0.313-0.286-0.599-0.61-0.85-0.971c-0.095-0.135-0.182-0.271-0.263-0.41c-0.056-0.071-0.11-0.145-0.168-0.223
				c-0.233-0.199-0.451-0.416-0.648-0.646c-0.434-0.365-0.803-0.771-1.116-1.225c-0.161-0.23-0.308-0.475-0.437-0.729
				c-0.025-0.039-0.053-0.078-0.077-0.117c-0.189-0.2-0.382-0.43-0.563-0.688c-0.075-0.104-0.146-0.211-0.213-0.32
				c-0.124-0.127-0.241-0.26-0.354-0.396c-0.095-0.09-0.188-0.184-0.276-0.277c-0.523-0.352-0.989-0.785-1.379-1.291l-0.231-0.266
				c-0.132-0.148-0.255-0.306-0.371-0.467c-0.217-0.306-0.402-0.626-0.559-0.955c-0.144-0.166-0.277-0.339-0.405-0.518
				c-0.023-0.035-0.049-0.07-0.072-0.105c-0.229-0.339-0.422-0.697-0.576-1.072c-0.075-0.127-0.146-0.26-0.214-0.396
				c-0.032-0.052-0.063-0.103-0.096-0.153c-0.104-0.127-0.203-0.258-0.298-0.392c-0.212-0.306-0.384-0.592-0.554-0.913
				c-0.846-1.326-1.12-2.943-0.758-4.482c0.148-0.626,0.397-1.217,0.731-1.751c0.174-0.351,0.381-0.688,0.622-1.006
				c0.281-0.372,0.604-0.708,0.964-1.001c0.453-0.675,1.042-1.246,1.727-1.68c0.322-0.268,0.678-0.502,1.06-0.697l0.222-0.111
				c0.109-0.053,0.222-0.103,0.332-0.149c0.038-0.032,0.077-0.065,0.115-0.097c0.502-0.458,1.042-0.822,1.625-1.101
				c0.768-0.372,1.65-0.589,2.537-0.616c0.054-0.01,0.107-0.019,0.163-0.027c0.581-0.195,1.188-0.299,1.804-0.305
				c0.384-0.078,0.772-0.116,1.161-0.116c0.204,0,0.408,0.011,0.611,0.031c0.062-0.003,0.123-0.006,0.185-0.007
				c0.313-0.035,0.605-0.052,0.892-0.052c0.376,0,0.749,0.028,1.109,0.085c1.766,0.295,3.271,1.26,4.227,2.677
				c0.341,0.34,0.641,0.713,0.896,1.115c0.058,0.053,0.115,0.106,0.171,0.162c0.446,0.44,0.814,0.944,1.096,1.491
				c0.264-0.257,0.549-0.488,0.853-0.69c0.055-0.045,0.11-0.09,0.167-0.136c0.506-0.558,1.118-1.024,1.809-1.361
				c0.564-0.396,1.126-0.693,1.703-0.902c0.278-0.101,0.563-0.182,0.854-0.244c0.027-0.01,0.056-0.02,0.082-0.029
				c0.633-0.222,1.267-0.358,1.898-0.413c0.575-0.126,1.136-0.188,1.695-0.188c0.236,0,0.47,0.012,0.701,0.034
				c0.017-0.001,0.033-0.001,0.051-0.001c0.349,0,0.699,0.028,1.041,0.084c0.55,0.094,1.063,0.242,1.553,0.444
				c0.176,0.058,0.35,0.123,0.519,0.197c-0.017-0.13-0.028-0.262-0.04-0.396c-0.156-0.538-0.234-1.097-0.231-1.657
				c-0.021-0.18-0.037-0.362-0.045-0.548c-0.03-0.289-0.058-0.607-0.067-0.947c-0.145-0.533-0.214-1.085-0.204-1.639
				c-0.009-1.181,0.344-2.352,1.029-3.348c0.248-0.361,0.534-0.691,0.854-0.987c0.673-0.801,1.581-1.486,2.748-1.951
				c0.472-0.253,0.946-0.447,1.433-0.581c0.125-0.047,0.252-0.089,0.38-0.128c0.313-0.124,0.64-0.221,0.971-0.288
				c0.118-0.024,0.238-0.045,0.358-0.063c0.396-0.132,0.692-0.214,0.993-0.274c0.433-0.088,0.882-0.134,1.327-0.134
				c0.387,0,0.77,0.034,1.146,0.101c0.106-0.006,0.213-0.009,0.318-0.009c0.481,0,0.962,0.06,1.426,0.175
				c0.692,0.053,1.361,0.229,1.979,0.515c0.189,0.063,0.377,0.138,0.561,0.222c0.645,0.184,1.24,0.474,1.771,0.851
				c0.674,0.386,1.27,0.904,1.745,1.529c0.7,0.686,1.234,1.555,1.521,2.553c0.245,0.555,0.401,1.134,0.472,1.717
				c0.063,0.187,0.119,0.378,0.167,0.572c0.027,0.112,0.053,0.227,0.073,0.341c0.083,0.195,0.16,0.397,0.23,0.605
				c0.598,1.112,0.811,2.376,0.635,3.598c0.047,0.483,0.034,0.968-0.038,1.443c-0.001,0.046-0.003,0.091-0.005,0.137
				c0.006,0.289-0.006,0.575-0.037,0.856c0.002,0.309-0.019,0.613-0.061,0.916c0,0.042,0,0.085,0,0.127
				c0.136,1.011,0.008,1.931-0.224,2.713c0,0.236-0.011,0.471-0.034,0.702c-0.002,0.05-0.003,0.101-0.006,0.15
				c0.002,0.057,0.012,0.26,0.015,0.307c0.06,0.451,0.072,0.891,0.042,1.324c-0.004,0.065-0.01,0.131-0.017,0.196
				c0.258,0.994,0.247,2.027-0.019,3.001c0.05,0.381,0.063,0.766,0.038,1.148c0.015,0.398,0,0.797-0.046,1.188
				c0.08,1.073-0.14,2.139-0.619,3.083c-0.043,0.141-0.091,0.277-0.142,0.414c-0.139,0.48-0.31,0.934-0.512,1.355
				c-0.41,1.352-1.245,2.529-2.396,3.367c-0.51,0.563-1.191,1.122-2.106,1.576c-0.373,0.271-0.779,0.497-1.212,0.675
				c-0.845,0.347-1.5,0.586-2.065,0.759c-1.144,0.348-2.161,0.516-3.108,0.516c-0.001,0-0.003,0-0.005,0
				c-0.5,0.162-0.983,0.27-1.462,0.324c-0.392,0.08-0.795,0.125-1.184,0.125c-0.021,0-0.567-0.006-0.567-0.006
				c-0.607-0.008-1.211-0.109-1.784-0.303c-0.294-0.063-0.579-0.143-0.855-0.24c-0.252,0.618-0.608,1.19-1.058,1.693
				c-0.373,0.416-0.814,0.814-1.393,1.257l-0.229,0.173c-0.07,0.071-0.141,0.139-0.206,0.202c-0.254,0.247-0.484,0.457-0.663,0.608
				c-0.292,0.25-0.608,0.471-0.944,0.658c-0.542,0.389-1.174,0.754-1.926,1.117l-0.196,0.094c-0.433,0.211-0.934,0.377-1.472,0.484
				c-0.09,0.032-0.181,0.063-0.272,0.09c-0.159,0.1-0.316,0.188-0.476,0.271c-0.458,0.233-0.938,0.416-1.441,0.549
				c-0.494,0.177-1.011,0.283-1.531,0.321C26.229,50.94,25.787,50.99,25.346,50.99z"/>
			<path fill="#FFFFFF" d="M106.389,41.24c-0.229,0-0.465-0.011-0.703-0.031c-0.156,0.014-0.313,0.02-0.471,0.02
				c-0.263,0-0.525-0.018-0.788-0.053c-0.891-0.123-1.565-0.235-2.124-0.359c-0.818-0.182-1.848-0.464-2.852-1.003
				c-0.493-0.097-0.939-0.228-1.345-0.384c-0.408-0.119-0.806-0.282-1.18-0.488l-0.408-0.225c-0.547-0.297-1.041-0.68-1.464-1.131
				c-0.227-0.196-0.438-0.405-0.633-0.625c-0.115,0.062-0.228,0.117-0.333,0.168c-0.531,0.365-1.122,0.642-1.749,0.814
				c-0.498,0.139-1.025,0.232-1.71,0.307l-0.333,0.035c-0.113,0.025-0.226,0.049-0.334,0.071c-0.313,0.067-0.602,0.122-0.819,0.156
				c-0.305,0.049-0.611,0.073-0.921,0.073c-0.036,0-0.072,0-0.107-0.002c-0.325,0.031-0.667,0.045-1.028,0.045
				c-0.332,0-0.701-0.012-1.109-0.039l0.255-5.836l-0.361,5.828c-0.504-0.027-1.014-0.119-1.518-0.273
				c-0.108-0.018-0.218-0.037-0.327-0.061c-0.101,0.004-0.188,0.004-0.266,0.004c-0.074,0-0.2-0.002-0.274-0.004
				c-0.471-0.019-0.95-0.088-1.433-0.205c-0.489-0.08-0.966-0.223-1.417-0.422c-0.703-0.197-1.359-0.521-1.938-0.951
				c-0.247-0.162-0.483-0.342-0.706-0.541c-0.65-0.424-1.21-0.975-1.646-1.614c-0.032-0.041-0.063-0.081-0.095-0.122
				c-0.454-0.477-0.842-1.006-1.157-1.588c-0.019-0.032-0.036-0.066-0.053-0.1c-0.453-0.625-0.785-1.342-0.964-2.117
				c-0.017-0.062-0.042-0.151-0.073-0.264c-0.068-0.228-0.145-0.509-0.205-0.832c-0.069-0.227-0.126-0.457-0.169-0.691
				c-0.211-0.526-0.354-1.086-0.43-1.672c-0.05-0.23-0.084-0.465-0.105-0.699c-0.046-0.221-0.079-0.444-0.101-0.669
				c-0.055-0.342-0.078-0.688-0.073-1.04c-0.22-0.676-0.326-1.395-0.315-2.147c0.001-0.156,0.01-0.312,0.021-0.461
				c-0.079-0.385-0.121-0.783-0.121-1.191c0-0.165,0.007-0.329,0.02-0.492c0-0.002,0-0.004,0-0.006
				c-0.059-0.229-0.104-0.463-0.134-0.699c-0.151-0.559-0.228-1.126-0.222-1.697c0-0.272,0.021-0.548,0.061-0.823
				c-0.035-0.269-0.053-0.535-0.053-0.803c0-0.08,0.001-0.161,0.005-0.241c-0.018-0.12-0.031-0.241-0.041-0.363
				c-0.008-0.033-0.015-0.067-0.021-0.101c-0.242-0.596-0.387-1.232-0.42-1.885l-0.031-0.265c-0.026-0.225-0.039-0.45-0.039-0.677
				c0-0.344,0.027-0.682,0.082-1.012c-0.013-0.17-0.021-0.34-0.021-0.511c0-0.376,0.037-0.848,0.162-1.374
				c0.013-0.104,0.044-0.337,0.045-0.351c-0.01-0.142-0.014-0.283-0.014-0.425c0-0.335,0.024-0.672,0.077-1.048
				c0.091-1.438,0.71-2.797,1.746-3.81c0.486-0.477,1.048-0.858,1.655-1.136c0.315-0.183,0.651-0.341,1.004-0.47
				c0.408-0.15,0.833-0.253,1.264-0.309c0.688-0.309,1.43-0.48,2.183-0.507c0.306-0.049,0.613-0.073,0.927-0.073
				c0.129,0,0.258,0.004,0.388,0.013c0.154,0.007,0.308,0.02,0.46,0.038c0.015-0.001,0.088-0.008,0.122-0.011
				c0.049-0.009,0.098-0.017,0.146-0.023c0.443-0.089,0.896-0.135,1.341-0.135c0.129,0,0.305,0.006,0.434,0.015
				c0.847,0.057,1.656,0.278,2.39,0.642c0.072,0.024,0.146,0.05,0.219,0.076c0.536,0.111,1.077,0.29,1.55,0.527
				c0.554,0.171,1.077,0.423,1.553,0.744c0.03,0.016,0.062,0.03,0.093,0.046c0.646,0.26,1.229,0.59,1.754,0.999
				c1.522,1.198,2.386,2.966,2.393,4.832c0.069,0.406,0.102,0.819,0.093,1.236c0.048,0.225,0.083,0.45,0.104,0.677
				c0.224-0.035,0.447-0.057,0.674-0.065c0.099-0.014,0.2-0.027,0.309-0.04c0.523-0.147,1.068-0.224,1.621-0.224
				c0.158,0,0.319,0.006,0.479,0.02c0.245-0.019,0.464-0.025,0.651-0.025c0.396,0,0.764,0.028,1.129,0.088
				c0.285,0.049,0.565,0.114,0.839,0.196c0.039,0.007,0.079,0.013,0.119,0.021c0.628,0.11,1.218,0.287,1.77,0.527
				c0.794,0.233,1.503,0.56,2.125,0.979c0.314,0.169,0.614,0.364,0.897,0.585c0.442,0.349,0.826,0.73,1.158,1.149
				c0.234,0.258,0.445,0.536,0.629,0.829c0.001-0.003,0.003-0.007,0.005-0.01c0.171-0.333,0.366-0.668,0.587-1.01
				c0.208-0.511,0.486-0.989,0.828-1.422c0.084-0.137,0.175-0.274,0.272-0.412c0.122-0.193,0.257-0.402,0.41-0.616
				c0.359-0.884,0.936-1.678,1.692-2.302c0.032-0.026,0.064-0.053,0.097-0.079c0.489-0.402,1.047-0.728,1.651-0.956
				c0.352-0.132,0.733-0.233,1.122-0.3c0.617-0.182,1.272-0.276,1.949-0.276c0.398,0,0.809,0.034,1.224,0.101
				c0.511,0.024,0.988,0.094,1.441,0.21c0.142,0.023,0.284,0.053,0.426,0.086c0.331,0.05,0.658,0.129,0.978,0.235
				c0.101,0.033,0.199,0.069,0.299,0.107c0.358,0.072,0.668,0.146,0.981,0.247c0.781,0.251,1.491,0.631,2.107,1.12
				c0.5,0.245,0.962,0.558,1.372,0.927c0.549,0.359,1.026,0.807,1.422,1.316c0.148,0.158,0.291,0.326,0.424,0.501
				c0.491,0.494,0.883,1.063,1.165,1.676c0.104,0.184,0.2,0.374,0.285,0.57c0.255,0.588,0.409,1.208,0.462,1.834
				c0.229,1.071,0.15,2.191-0.23,3.231c-0.139,0.598-0.365,1.162-0.67,1.678c-0.055,0.153-0.116,0.307-0.183,0.459
				c-0.034,0.079-0.07,0.158-0.108,0.235c-0.033,0.129-0.069,0.259-0.111,0.392c-0.195,1.292-0.819,2.471-1.749,3.356
				c-0.259,0.391-0.561,0.746-0.899,1.063c-0.02,0.023-0.039,0.047-0.06,0.07c-0.176,0.229-0.362,0.445-0.563,0.646
				c-0.181,0.229-0.376,0.441-0.585,0.643c-0.006,0.008-0.012,0.016-0.019,0.022c-0.517,0.876-1.19,1.519-1.858,1.988
				c-0.127,0.159-0.261,0.312-0.4,0.457c-0.039,0.047-0.078,0.094-0.119,0.141c-0.021,0.029-0.105,0.146-0.127,0.177
				c-0.228,0.377-0.481,0.721-0.769,1.037c-0.031,0.034-0.063,0.067-0.094,0.102c-0.409,0.898-1.037,1.673-1.817,2.257
				c-0.188,0.31-0.403,0.599-0.646,0.866c-0.228,0.307-0.475,0.596-0.74,0.865c-0.577,0.84-1.363,1.512-2.272,1.951
				c-0.134,0.098-0.27,0.188-0.406,0.272c-0.377,0.276-0.762,0.517-1.15,0.721c-1.039,0.769-2.289,1.218-3.63,1.277
				C107.604,41.166,107.008,41.24,106.389,41.24z"/>
			<path fill="#FFFFFF" d="M121.327,48.115c-0.638,0-1.278-0.104-1.897-0.316c-0.944-0.141-1.832-0.512-2.589-1.067
				c-0.571-0.351-1.18-0.842-1.73-1.54c-0.491-0.503-0.887-1.089-1.168-1.727c-0.317-0.578-0.537-1.209-0.646-1.864
				c-0.219-0.923-0.213-1.896,0.034-2.833c0.102-0.93,0.351-1.77,0.754-2.539c0.531-1.018,1.199-1.732,1.868-2.234
				c0.222-0.213,0.462-0.41,0.72-0.592c0.196-0.162,0.402-0.313,0.619-0.449c0.039-0.273,0.095-0.55,0.168-0.826
				c0.003-0.047,0.008-0.092,0.013-0.139c0.065-0.615,0.218-1.229,0.466-1.871c0.09-0.229,0.173-0.422,0.249-0.588l0.024-0.063
				c0.589-1.502,0.589-1.502,0.763-1.826c0.063-0.116,0.127-0.229,0.195-0.34c0.051-0.115,0.104-0.229,0.163-0.342
				c0.229-0.428,0.468-0.798,0.814-1.274c0.035-0.075,0.072-0.149,0.111-0.223l0.218-0.41c0.141-0.35,0.272-0.638,0.397-0.881
				l0.071-0.166c0.184-0.423,0.33-0.728,0.437-0.931c0.08-0.149,0.163-0.293,0.251-0.433c0.066-0.153,0.139-0.306,0.218-0.454
				l0.116-0.22c0.198-0.377,0.467-0.802,0.842-1.324l0.088-0.165c0.149-0.282,0.32-0.551,0.51-0.803
				c0.084-0.246,0.184-0.487,0.301-0.723c0.167-0.422,0.326-0.76,0.47-1.03c0.152-0.289,0.33-0.575,0.539-0.866
				c0.037-0.079,0.077-0.158,0.118-0.236c0.068-0.133,0.144-0.263,0.223-0.389c0.057-0.128,0.119-0.259,0.189-0.391
				c0.188-0.365,0.429-0.723,0.714-1.063c0.159-0.296,0.344-0.578,0.551-0.842c0.047-0.074,0.1-0.164,0.16-0.267
				c0.489-0.838,0.981-1.508,1.523-2.062c0.008-0.014,0.016-0.028,0.021-0.042c0.134-0.25,0.31-0.534,0.539-0.83
				c0.206-0.335,0.443-0.649,0.711-0.942c0.335-0.473,0.719-0.886,1.152-1.238c1.064-0.948,2.482-1.497,3.972-1.515
				c0.001,0,0.002,0,0.003,0c0.973,0,1.854,0.188,2.691,0.561c1.226,0.542,2.272,1.399,3.048,2.492
				c0.558,0.584,0.984,1.273,1.26,2.021c0.301,0.562,0.573,1.255,0.69,2.095c0.107,0.775,0.059,1.56-0.141,2.307
				c-0.107,0.705-0.336,1.473-0.729,2.299c-0.213,0.696-0.46,1.279-0.76,1.799c-0.045,0.078-0.091,0.154-0.138,0.229
				c-0.152,0.633-0.391,1.226-0.709,1.769L139,24.201c-0.16,0.272-0.33,0.518-0.507,0.737c-0.01,0.015-0.02,0.029-0.028,0.044
				c-0.118,0.294-0.25,0.565-0.397,0.824c-0.066,0.113-0.137,0.224-0.208,0.331c-0.059,0.118-0.121,0.234-0.188,0.348
				c-0.066,0.115-0.156,0.29-0.274,0.521c-0.231,0.455-0.435,0.826-0.591,1.095c-0.258,0.444-0.55,0.89-0.873,1.327
				c-0.073,0.156-0.154,0.313-0.241,0.465c-0.196,0.335-0.4,0.615-0.602,0.855c-0.033,0.076-0.067,0.16-0.105,0.252
				c-0.101,0.244-0.217,0.479-0.349,0.707l-0.142,0.242c-0.099,0.24-0.225,0.51-0.391,0.793c-0.018,0.029-0.036,0.061-0.054,0.09
				c-0.123,0.36-0.28,0.711-0.472,1.047c-0.152,0.263-0.319,0.51-0.501,0.742c-0.015,0.022-0.027,0.047-0.042,0.07
				c-0.062,0.104-0.125,0.208-0.192,0.311c-0.057,0.111-0.117,0.225-0.182,0.334c-0.153,0.263-0.332,0.533-0.563,0.851
				c-0.177,0.517-0.427,1.007-0.741,1.455c-0.104,0.274-0.23,0.544-0.379,0.803c-0.098,0.236-0.211,0.468-0.339,0.69
				c-0.278,0.482-0.624,0.918-1.021,1.3c-0.017,0.209-0.042,0.417-0.08,0.623c-0.064,0.911-0.342,1.806-0.811,2.592l-0.607,1.022
				c-0.569,0.938-1.603,2.09-3.467,2.662c-0.406,0.174-0.821,0.305-1.241,0.396C122.751,47.984,122.042,48.115,121.327,48.115z"/>
			<path fill="#FFFFFF" d="M129.419,51.753c-0.793,0-1.59-0.162-2.338-0.488c-0.918-0.213-1.763-0.643-2.468-1.242
				c-0.632-0.451-1.182-1.02-1.63-1.686c-0.455-0.543-0.806-1.162-1.037-1.823c-0.276-0.616-0.445-1.279-0.497-1.957
				c-0.139-0.955-0.04-1.942,0.304-2.869c0.195-0.922,0.532-1.739,1.021-2.476c0.639-0.957,1.379-1.596,2.096-2.022
				c0.235-0.185,0.487-0.351,0.756-0.501c0.217-0.146,0.444-0.279,0.682-0.396c0.063-0.25,0.143-0.502,0.235-0.752
				c0.005-0.027,0.01-0.055,0.016-0.082c0.123-0.623,0.34-1.234,0.661-1.871c0.117-0.225,0.221-0.412,0.314-0.568l0.235-0.458
				c0.496-0.959,0.537-1.037,0.745-1.345c0.069-0.1,0.142-0.193,0.213-0.286c0.067-0.12,0.141-0.237,0.215-0.353
				c0.264-0.387,0.54-0.731,0.938-1.172c0.04-0.066,0.082-0.132,0.125-0.195l0.263-0.393c0.152-0.291,0.312-0.563,0.478-0.816
				l0.104-0.182c0.212-0.38,0.396-0.674,0.523-0.867c0.094-0.139,0.188-0.271,0.289-0.396c0.066-0.12,0.139-0.238,0.215-0.354
				l0.175-0.261c0.253-0.377,0.566-0.773,0.99-1.248l0.084-0.125c0.184-0.271,0.384-0.525,0.6-0.761
				c0.108-0.235,0.233-0.465,0.374-0.686c0.186-0.355,0.373-0.677,0.574-0.976c0.182-0.271,0.388-0.535,0.625-0.801
				c0.049-0.08,0.1-0.159,0.151-0.237c0.078-0.116,0.16-0.229,0.247-0.34c0.056-0.098,0.115-0.197,0.182-0.297
				c0.252-0.381,0.54-0.729,0.863-1.045c0.186-0.267,0.4-0.532,0.631-0.772c0.054-0.068,0.115-0.152,0.188-0.249
				c0.59-0.799,1.151-1.413,1.747-1.905c0.008-0.013,0.018-0.025,0.025-0.038c0.161-0.237,0.362-0.497,0.614-0.76
				c0.242-0.315,0.519-0.608,0.821-0.876c0.39-0.44,0.813-0.807,1.275-1.108c1.034-0.728,2.247-1.11,3.523-1.11
				c0.161,0,0.357,0.009,0.52,0.021c0.911,0.077,1.779,0.341,2.585,0.786c1.148,0.622,2.12,1.554,2.803,2.695
				c0.517,0.63,0.89,1.355,1.104,2.128c0.238,0.558,0.473,1.302,0.518,2.172c0.04,0.795-0.082,1.584-0.354,2.32
				c-0.18,0.702-0.486,1.456-0.972,2.251c-0.28,0.667-0.586,1.219-0.937,1.704c-0.05,0.067-0.101,0.133-0.151,0.198
				c-0.213,0.603-0.51,1.168-0.883,1.679l-0.96,1.313c-0.193,0.26-0.394,0.49-0.598,0.693c-0.156,0.297-0.326,0.566-0.515,0.824
				c-0.071,0.098-0.146,0.191-0.224,0.283c-0.07,0.111-0.146,0.221-0.224,0.326c-0.073,0.103-0.175,0.256-0.307,0.457
				c-0.298,0.455-0.535,0.803-0.719,1.053c-0.3,0.408-0.635,0.816-0.999,1.216c-0.09,0.149-0.188,0.295-0.29,0.437
				c-0.231,0.313-0.462,0.567-0.685,0.785c-0.036,0.063-0.074,0.135-0.116,0.213c-0.131,0.244-0.278,0.479-0.442,0.701l-0.15,0.207
				c-0.119,0.223-0.27,0.469-0.456,0.725c-0.021,0.029-0.044,0.06-0.065,0.088c-0.174,0.375-0.387,0.736-0.639,1.076
				c-0.164,0.227-0.35,0.442-0.552,0.647c-0.009,0.013-0.019,0.024-0.026,0.038c-0.07,0.098-0.145,0.189-0.221,0.283
				c-0.068,0.105-0.143,0.212-0.22,0.314c-0.164,0.227-0.364,0.471-0.632,0.768c-0.229,0.496-0.53,0.957-0.889,1.369
				c-0.132,0.258-0.282,0.506-0.452,0.744c-0.132,0.244-0.28,0.479-0.446,0.703c-0.314,0.424-0.688,0.803-1.102,1.127
				c-0.037,0.199-0.084,0.396-0.142,0.592c-0.166,0.891-0.533,1.773-1.068,2.49l-0.71,0.948c-0.89,1.201-2.139,1.974-3.706,2.287
				c-0.419,0.13-0.843,0.22-1.269,0.269C130.474,51.682,129.947,51.753,129.419,51.753z"/>
		</g>
		<g>
			<path fill="#282D33" d="M10.063,21.682c0.161-0.078,0.326-0.068,0.493,0.026c0.203-0.097,0.453-0.161,0.75-0.192
				c0.297-0.031,0.505-0.074,0.627-0.131c0.063-0.028,0.122-0.057,0.185-0.085c0.133,0.004,0.266,0.007,0.396,0.011
				c0.308-0.012,0.541-0.054,0.703-0.127c0.082,0.048,0.204,0.078,0.367,0.091c0.163,0.013,0.273,0.026,0.336,0.041
				c0.08-0.036,0.161-0.073,0.242-0.109c0.061,0.017,0.197,0.008,0.411-0.023c0.213-0.03,0.389-0.034,0.53-0.012
				c0.142,0.023,0.242,0.085,0.304,0.188c0.039,0.068,0.06,0.146,0.06,0.23c0,0.086,0.01,0.146,0.029,0.179
				c0.041,0.068,0.15,0.148,0.332,0.238c0.18,0.091,0.312,0.205,0.391,0.34c0.141,0.238,0.28,0.476,0.421,0.713
				c0.061,0.059,0.119,0.118,0.179,0.177c0.051,0.042,0.1,0.085,0.148,0.127c0.06,0.102,0.14,0.153,0.239,0.151
				c-0.001,0.171,0.08,0.393,0.238,0.663c0.102,0.171,0.133,0.306,0.095,0.408c0.295,0.169,0.414,0.329,0.357,0.483
				c0.117,0.034,0.295,0.253,0.534,0.66c0.18,0.306,0.415,0.5,0.707,0.584c0.04,0.069,0.091,0.239,0.153,0.511
				c0.077,0.051,0.224,0.137,0.438,0.254c0.212,0.121,0.388,0.256,0.523,0.409c0.039,0.067,0.121,0.169,0.249,0.306
				c0.126,0.138,0.209,0.24,0.248,0.307c0.02,0.033,0.039,0.068,0.059,0.104c0.287,0.088,0.479,0.215,0.576,0.385
				c-0.009,0.025-0.018,0.052-0.026,0.076c0.021,0.035,0.039,0.068,0.06,0.103c0.057,0.019,0.104,0.062,0.145,0.129
				c0.039,0.067,0.068,0.119,0.088,0.151c0.476,0.262,0.672,0.365,0.599,0.313c-0.037,0.103-0.024,0.202,0.034,0.306
				c0.038,0.068,0.126,0.158,0.259,0.271s0.219,0.201,0.258,0.271c0.01,0.017,0.019,0.033,0.028,0.051
				c-0.018,0.051-0.045,0.084-0.081,0.101c0.127,0.222,0.254,0.442,0.38,0.664c0.175,0.308,0.329,0.537,0.463,0.69
				c0.039,0.068,0.113,0.101,0.224,0.094c0.109-0.006,0.175,0.009,0.193,0.042c-0.018,0.051-0.006,0.11,0.032,0.177
				c0.059,0.104,0.198,0.212,0.421,0.327c0.222,0.114,0.369,0.198,0.442,0.25c-0.008,0.024-0.017,0.051-0.023,0.075
				c0.038,0.068,0.066,0.119,0.086,0.154c0.067,0.119,0.135,0.237,0.202,0.357c0.02,0.034,0.057,0.061,0.11,0.078
				c0.055,0.02,0.123,0.042,0.205,0.068c0.081,0.027,0.132,0.06,0.15,0.094c0.039,0.068,0.077,0.137,0.115,0.205
				c0.134,0.238,0.272,0.412,0.42,0.518c0.02,0.034,0.013,0.102-0.02,0.2c-0.052,0.065-0.058,0.132-0.019,0.2
				c0.02,0.033,0.097,0.096,0.232,0.184c0.137,0.09,0.225,0.167,0.263,0.235c0.057,0.104,0.077,0.181,0.063,0.229
				c0.119-0.096,0.159-0.199,0.12-0.311c-0.04-0.109-0.034-0.196,0.018-0.262c-0.028-0.053-0.058-0.104-0.086-0.154
				c-0.057-0.104-0.127-0.307-0.206-0.611c-0.008-0.209-0.015-0.419-0.02-0.628c-0.019-0.034-0.039-0.089-0.059-0.166
				c-0.021-0.075-0.066-0.142-0.141-0.192c0.016-0.135-0.038-0.451-0.153-0.951c-0.118-0.496-0.104-0.861,0.04-1.092
				c-0.028-0.053-0.057-0.104-0.084-0.154c-0.13-0.24-0.158-0.459-0.087-0.658c-0.148-0.693-0.091-1.223,0.174-1.581
				c0.001-0.082,0.025-0.208,0.072-0.374c0.051-0.166,0.065-0.309,0.051-0.426c-0.033-0.237,0.027-0.514,0.187-0.824
				c-0.034-0.15-0.024-0.313,0.027-0.479c0.053-0.165,0.113-0.333,0.186-0.507c0.071-0.173,0.129-0.309,0.172-0.407
				c-0.009-0.018-0.018-0.035-0.025-0.052c-0.035-0.069-0.099-0.127-0.191-0.175c-0.093-0.047-0.156-0.104-0.19-0.174
				c0.094,0.005,0.151-0.018,0.173-0.067c0.082-0.112,0.402-0.382,0.977-0.803c0.038-0.014,0.064-0.055,0.078-0.121
				c0.013-0.066,0.038-0.107,0.077-0.121c0.038-0.015,0.077-0.029,0.116-0.044c0.153-0.058,0.333-0.163,0.531-0.317
				c0.2-0.155,0.359-0.254,0.477-0.296s0.27-0.056,0.459-0.042c0.062-0.063,0.208-0.136,0.441-0.219
				c0.273-0.096,0.53-0.125,0.774-0.09c0.585-0.203,1.022-0.229,1.313-0.086c0.154-0.053,0.294-0.068,0.413-0.049
				c0.12,0.021,0.238,0.061,0.355,0.122c0.115,0.062,0.22,0.098,0.313,0.106c0.017,0.035,0.03,0.069,0.047,0.104
				c0.091,0.21,0.291,0.466,0.596,0.764c0.208-0.028,0.443,0.034,0.706,0.188c0.263,0.153,0.438,0.236,0.53,0.246
				c0.036,0.088,0.073,0.176,0.11,0.264c0.016,0.034,0.083,0.042,0.204,0.022c0.122-0.019,0.19-0.011,0.205,0.023
				c0.007,0.018,0.015,0.035,0.021,0.053c0.053,0.024,0.087,0.053,0.102,0.088c0.145,0.034,0.31,0.12,0.495,0.259
				c0.188,0.141,0.332,0.232,0.438,0.278c0.146,0.352,0.288,0.545,0.43,0.578c0.058,0.141,0.114,0.281,0.173,0.422
				c0.09,0.013,0.196,0.067,0.32,0.167c0.125,0.1,0.23,0.155,0.32,0.166c0.235,0.481,0.601,0.762,1.09,0.848
				c0.724,0.568,1.163,0.867,1.337,0.893c0.039,0.049,0.077,0.096,0.116,0.143c0.04,0.104,0.049,0.183,0.026,0.229
				c0.137,0.037,0.272,0.074,0.41,0.111c-0.062,0.059-0.14,0.063-0.239,0.014c0.154,0.189,0.285,0.426,0.395,0.708
				c0.05,0.022,0.139,0.046,0.267,0.065c0.129,0.021,0.223,0.031,0.283,0.033c0.062,0.002,0.132,0.028,0.213,0.084
				c0.081,0.055,0.151,0.111,0.215,0.172c0.062,0.06,0.112,0.143,0.152,0.248c0.013,0.035,0.091,0.031,0.233-0.012
				c0.015,0.035,0.044,0.066,0.094,0.09c0.063,0.063,0.08,0.113,0.06,0.158c0.013,0.036,0.054,0.063,0.12,0.083
				c0.065,0.021,0.13,0.06,0.191,0.119c0.048,0.024,0.094,0.091,0.132,0.196c0.039,0.104,0.09,0.188,0.149,0.248
				c0.063,0.063,0.146,0.076,0.252,0.045c0.009-0.082,0-0.215-0.029-0.401c-0.028-0.188-0.049-0.299-0.063-0.335
				c-0.052-0.141-0.104-0.281-0.154-0.424c-0.013-0.034-0.01-0.135,0.013-0.297c0.02-0.159,0.011-0.295-0.027-0.401
				c-0.013-0.034-0.025-0.069-0.039-0.104c-0.025-0.07-0.003-0.176,0.068-0.313c-0.064-0.177-0.066-0.293-0.007-0.35
				c0.023-0.045,0.012-0.082-0.038-0.105c-0.023-0.013-0.049-0.025-0.072-0.037c-0.025-0.07,0.021-0.162,0.143-0.273
				c-0.012-0.035-0.044-0.065-0.093-0.092c-0.049-0.023-0.063-0.061-0.038-0.105c0.011-0.081-0.006-0.27-0.052-0.568
				c-0.046-0.298-0.031-0.517,0.042-0.652c-0.063-0.062-0.111-0.145-0.149-0.25c-0.05-0.141-0.079-0.337-0.085-0.588
				c-0.006-0.25-0.026-0.429-0.063-0.535c-0.037-0.106-0.075-0.212-0.112-0.318c-0.137-0.389-0.155-0.676-0.052-0.857
				c-0.025-0.07-0.05-0.142-0.074-0.212c-0.025-0.071-0.04-0.202-0.044-0.395s-0.03-0.359-0.079-0.501
				c-0.013-0.035-0.025-0.071-0.037-0.106c0.025-0.045,0.052-0.091,0.079-0.137c0.025-0.045,0.048-0.071,0.068-0.076
				c0.019-0.005,0.042-0.03,0.067-0.076c-0.113-0.086-0.22-0.27-0.317-0.554c-0.146-0.425-0.196-0.875-0.146-1.351
				c-0.023-0.07-0.076-0.096-0.153-0.076c0.015-0.08,0.004-0.175-0.032-0.281c-0.062-0.177-0.091-0.448-0.085-0.815
				c0.005-0.367-0.017-0.621-0.064-0.763c-0.012-0.035-0.04-0.086-0.084-0.152c-0.045-0.065-0.078-0.134-0.103-0.204
				c-0.049-0.142-0.094-0.4-0.133-0.775c-0.092-0.4-0.146-0.886-0.16-1.458c-0.06-0.177-0.118-0.354-0.179-0.531
				c0.012-0.232,0.031-0.371,0.063-0.418c-0.077-0.096-0.116-0.278-0.115-0.547c-0.063-0.597-0.08-0.919-0.049-0.964
				c0.013-0.099,0.023-0.197,0.037-0.296c-0.012-0.035-0.008-0.093,0.011-0.175c0.01-0.041,0.019-0.081,0.028-0.122
				c-0.019-0.053-0.035-0.105-0.053-0.158c-0.022-0.071-0.112-0.203-0.268-0.396c0.042-0.01,0.052-0.051,0.028-0.122
				c0.029-0.044,0.089-0.077,0.175-0.098c0.084-0.021,0.147-0.035,0.19-0.045c-0.02-0.34,0.243-0.591,0.788-0.752
				c0.042-0.009,0.142-0.061,0.296-0.151c0.154-0.092,0.273-0.146,0.36-0.165c0.021-0.005,0.043-0.01,0.064-0.015
				c0.054,0.026,0.103,0.034,0.146,0.025c0.063-0.09,0.183-0.153,0.354-0.19c0.172-0.036,0.296-0.082,0.371-0.136
				c0.043-0.009,0.1-0.012,0.17-0.008c0.067,0.005,0.125,0.002,0.168-0.007c0.086-0.018,0.253-0.071,0.501-0.161
				c0.247-0.088,0.413-0.141,0.5-0.158c0.216-0.044,0.407-0.006,0.578,0.11c0.043-0.009,0.086-0.018,0.129-0.025
				c0.085-0.018,0.223-0.016,0.408,0.004c0.187,0.021,0.322,0.022,0.409,0.006c0.043-0.009,0.086-0.017,0.128-0.025
				c0.125,0.126,0.434,0.18,0.924,0.162c-0.023,0.08,0.092,0.172,0.344,0.274c0.086-0.017,0.171-0.032,0.257-0.048
				c0.26,0.14,0.532,0.239,0.814,0.301c0.063,0.249,0.224,0.351,0.479,0.306c0.009,0.036,0.021,0.09,0.041,0.161
				c0.018,0.072,0.009,0.128-0.023,0.172c0.084-0.015,0.186,0.032,0.303,0.142c0.115,0.111,0.192,0.162,0.235,0.154
				c0.019,0.072,0.006,0.157-0.035,0.257c-0.04,0.101-0.056,0.169-0.047,0.203c0.01,0.036,0.051,0.066,0.12,0.091
				c0.072,0.025,0.139,0.069,0.198,0.134c0.067,0.099,0.058,0.193-0.028,0.283c-0.086,0.09-0.125,0.152-0.116,0.188
				c0.01,0.036,0.091,0.096,0.24,0.181c0.05,0.028,0.05,0.066-0.004,0.112c-0.054,0.047-0.075,0.089-0.065,0.123
				c0.149,0.086,0.258,0.253,0.318,0.502c0.026,0.107,0.017,0.24-0.031,0.396c0.01,0.035,0.038,0.067,0.09,0.096
				c0.034,0.143,0.035,0.236,0.005,0.278c0.159,0.12,0.294,0.366,0.408,0.736c0.111,0.371,0.23,0.639,0.356,0.802
				c-0.031,0.044-0.061,0.104-0.082,0.183c-0.047,0.157-0.114,0.226-0.204,0.203c-0.029,0.044,0.027,0.107,0.175,0.192
				c-0.027,0.229-0.019,0.432,0.025,0.61c0.02,0.071,0.036,0.143,0.054,0.214c-0.029,0.042-0.063,0.122-0.096,0.24
				c-0.033,0.118-0.065,0.199-0.096,0.242c0.009,0.035,0.018,0.071,0.026,0.107c0.019,0.07,0.052,0.12,0.101,0.148
				c-0.031,0.043-0.034,0.156-0.009,0.338c0.023,0.182-0.018,0.302-0.126,0.358c0.009,0.036,0.028,0.117,0.062,0.241
				c0.031,0.125,0.038,0.235,0.022,0.331c-0.019,0.098-0.06,0.172-0.129,0.222c0.102,0.392,0.1,0.784-0.003,1.179
				c0.058,0.064,0.101,0.149,0.128,0.255c0.057,0.214-0.108,0.602-0.481,1.165c-0.029,0.043-0.004,0.065,0.078,0.067
				c0.081,0.004,0.106,0.026,0.079,0.069c-0.021,0.08-0.009,0.236,0.035,0.472c0.042,0.236,0.021,0.418-0.063,0.548
				c0.065,0.099,0.067,0.249,0.002,0.451c0.01,0.035,0.021,0.071,0.028,0.106c0.01,0.036,0.015,0.129,0.017,0.278
				c0.001,0.151,0.006,0.245,0.017,0.279c-0.01,0.04-0.019,0.079-0.026,0.119c0.058,0.213,0.082,0.378,0.074,0.492
				c-0.027,0.044-0.036,0.083-0.026,0.118c-0.054,0.237-0.11,0.383-0.175,0.434c0.01,0.036,0.029,0.107,0.059,0.213
				s0.033,0.19,0.013,0.253c-0.022,0.063-0.065,0.117-0.13,0.169c0.261,0.095,0.296,0.295,0.108,0.601
				c0.011,0.035,0.063,0.082,0.154,0.135c0.093,0.057,0.144,0.103,0.152,0.138c-0.025,0.044-0.063,0.118-0.11,0.224
				c-0.048,0.104-0.081,0.196-0.098,0.274c-0.035,0.009-0.049,0.03-0.039,0.065c0.011,0.035,0.021,0.071,0.03,0.106
				c-0.031,0.026-0.062,0.052-0.093,0.077c0.021,0.07,0.04,0.143,0.061,0.214c0.011,0.036-0.012,0.097-0.063,0.185
				c-0.013,0.021-0.025,0.043-0.038,0.065c0.04,0.142,0.08,0.284,0.12,0.427c-0.011,0.23,0.015,0.452,0.075,0.665
				c-0.021,0.062-0.04,0.123-0.062,0.185c0.106,0.508,0.055,0.975-0.157,1.404c0.056,0.063,0.114,0.2,0.178,0.414
				c-0.152,0.113-0.257,0.328-0.312,0.646s-0.138,0.529-0.253,0.635c0.011,0.035,0.021,0.07,0.032,0.105
				c-0.122,0.451-0.283,0.76-0.487,0.928c0.073,0.479-0.123,0.777-0.592,0.902c-0.234,0.295-0.394,0.475-0.482,0.535
				c-0.088,0.18-0.308,0.336-0.661,0.473c-0.354,0.14-0.563,0.277-0.623,0.412c-0.64,0.262-1.152,0.453-1.549,0.574
				c-0.89,0.27-1.525,0.336-1.918,0.184c-0.111-0.002-0.283,0.031-0.515,0.107c-0.247,0.079-0.494,0.161-0.74,0.243
				c-0.329,0.108-0.563,0.13-0.704,0.058c-0.081-0.012-0.105,0.018-0.076,0.088c-0.033,0.011-0.066,0.021-0.1,0.033
				c-0.17-0.002-0.34-0.004-0.509-0.006c-0.097-0.048-0.288-0.102-0.577-0.162c-0.29-0.059-0.49-0.168-0.599-0.334
				c-0.032,0.012-0.077,0.018-0.135,0.018s-0.104,0.007-0.136,0.019c-0.023-0.012-0.049-0.022-0.071-0.034
				c-0.017-0.035-0.03-0.068-0.047-0.104c-0.324-0.045-0.552-0.167-0.676-0.364c-0.438-0.208-0.707-0.373-0.802-0.502
				c-0.133-0.031-0.332-0.152-0.601-0.359c-0.271-0.207-0.489-0.318-0.655-0.338c-0.017-0.035-0.023-0.094-0.021-0.178
				c-0.115-0.079-0.295-0.236-0.542-0.473c-0.248-0.234-0.446-0.385-0.599-0.45c-0.05-0.021-0.066-0.058-0.048-0.104
				c0.009-0.023,0.019-0.049,0.026-0.072c-0.252-0.108-0.575-0.418-0.975-0.924c-0.205-0.086-0.422-0.312-0.654-0.674
				c-0.231-0.363-0.383-0.572-0.45-0.629c-0.068-0.058-0.157-0.136-0.269-0.238c-0.11-0.102-0.21-0.197-0.294-0.289
				c-0.086-0.09-0.145-0.17-0.178-0.239c-0.05-0.104-0.064-0.181-0.045-0.229c-0.209-0.084-0.321-0.187-0.334-0.304
				c-0.147,0.138-0.141,0.462,0.022,0.976s0.165,0.862,0.004,1.049c0.019,0.033,0.042,0.064,0.077,0.093
				c0.034,0.028,0.062,0.062,0.077,0.094c-0.037,0.099-0.021,0.216,0.047,0.354c0.103,0.166,0.203,0.332,0.305,0.5
				c0.051,0.103,0.075,0.238,0.073,0.404c0.051,0.021,0.104,0.082,0.153,0.188c0.067,0.139,0.078,0.352,0.035,0.638
				c-0.044,0.286-0.074,0.454-0.091,0.501c0.103,0.207,0.128,0.385,0.077,0.529c0.018,0.033,0.034,0.068,0.053,0.104
				c0.052,0.104,0.061,0.535,0.039,1.295c0.018,0.035,0.053,0.188,0.108,0.455c0.035,0.068,0.07,0.139,0.104,0.207
				c0.209,0.416,0.183,0.76-0.074,1.034c0.035,0.069,0.055,0.146,0.058,0.228c0.003,0.084,0.014,0.143,0.03,0.178
				c-0.013,0.13-0.101,0.324-0.263,0.583c-0.162,0.26-0.255,0.479-0.278,0.657c-0.125,0.14-0.322,0.31-0.588,0.513
				c-0.268,0.202-0.471,0.356-0.611,0.463c-0.045,0.063-0.15,0.177-0.319,0.338c-0.168,0.163-0.307,0.291-0.413,0.384
				c-0.096,0.043-0.189,0.086-0.284,0.131c-0.259,0.25-0.702,0.521-1.328,0.822c-0.047,0.021-0.094,0.047-0.142,0.068
				c-0.063,0.029-0.15,0.052-0.266,0.064c-0.111,0.012-0.187,0.024-0.217,0.039c-0.052-0.018-0.124-0.004-0.219,0.041
				c-0.094,0.047-0.173,0.086-0.234,0.116c-0.063,0.03-0.172,0.052-0.327,0.063s-0.279,0.039-0.374,0.086
				c-0.03,0.017-0.146,0.098-0.344,0.24c-0.198,0.146-0.344,0.24-0.437,0.289c-0.095,0.047-0.215,0.086-0.358,0.117
				c-0.146,0.03-0.265,0.068-0.358,0.117c-0.188-0.036-0.488,0.01-0.905,0.141c-0.147-0.101-0.284-0.119-0.408-0.054
				c-0.053-0.017-0.146-0.045-0.278-0.088c-0.132-0.042-0.234-0.088-0.309-0.14c-0.063,0.035-0.137,0.052-0.221,0.052
				c-0.086,0.001-0.144,0.009-0.175,0.024c-0.044-0.065-0.153-0.121-0.328-0.162c-0.176-0.039-0.297-0.109-0.361-0.209
				c-0.362-0.03-0.685-0.127-0.966-0.291c-0.022-0.032-0.037-0.07-0.043-0.112c-0.008-0.042-0.021-0.079-0.043-0.112
				c-0.088,0.002-0.214-0.041-0.383-0.133c-0.168-0.089-0.312-0.124-0.43-0.105c-0.122-0.113-0.287-0.262-0.498-0.442
				c-0.21-0.179-0.338-0.302-0.383-0.369c-0.068-0.101-0.114-0.231-0.14-0.399c-0.021-0.033-0.066-0.033-0.132,0.002
				c-0.031,0.019-0.063,0.035-0.097,0.055c-0.055-0.016-0.1-0.049-0.133-0.098c-0.034-0.051-0.073-0.107-0.119-0.176
				c-0.055-0.015-0.093-0.037-0.116-0.07c-0.021-0.033-0.043-0.08-0.061-0.139c-0.019-0.06-0.037-0.104-0.062-0.139
				c-0.045-0.064-0.131-0.109-0.258-0.13s-0.213-0.063-0.259-0.132c-0.135-0.063-0.266-0.172-0.396-0.328
				c-0.13-0.156-0.246-0.275-0.347-0.357c-0.021-0.031-0.041-0.091-0.054-0.175c0.005-0.024,0.011-0.052,0.016-0.077
				c-0.144-0.012-0.201-0.095-0.171-0.248c-0.111-0.029-0.224-0.061-0.335-0.089c-0.013-0.084-0.064-0.157-0.154-0.224
				c-0.091-0.063-0.146-0.112-0.17-0.146c-0.045-0.064-0.101-0.16-0.163-0.285s-0.116-0.222-0.163-0.287
				c-0.022-0.033-0.046-0.065-0.067-0.1c-0.171-0.18-0.264-0.313-0.274-0.396c-0.021-0.033-0.063-0.043-0.127-0.031
				c-0.063,0.012-0.104,0.001-0.128-0.032c0.033-0.019,0.057-0.054,0.067-0.104c0.006-0.026,0.012-0.053,0.017-0.078
				c-0.021-0.032-0.097-0.071-0.222-0.117c-0.126-0.045-0.166-0.104-0.12-0.174c-0.114-0.027-0.205-0.023-0.273,0.014
				c-0.08-0.046-0.166-0.137-0.258-0.27c-0.092-0.131-0.208-0.434-0.343-0.904c-0.058-0.014-0.122-0.036-0.19-0.067
				c-0.068-0.03-0.133-0.052-0.189-0.065c-0.275-0.396-0.447-0.576-0.518-0.539c-0.021-0.031-0.02-0.077,0.01-0.141
				c0.029-0.061,0.032-0.107,0.01-0.142c-0.019,0.01-0.035,0.019-0.053,0.028c-0.058-0.014-0.099-0.037-0.121-0.07
				c-0.104-0.08-0.352-0.398-0.741-0.961c-0.186-0.264-0.364-0.416-0.54-0.457c0.006-0.025,0.012-0.053,0.019-0.078
				c0.014-0.053,0.036-0.089,0.072-0.107c-0.021-0.033-0.151-0.111-0.385-0.233c-0.234-0.122-0.388-0.233-0.456-0.332
				c-0.046-0.065-0.08-0.185-0.102-0.354c-0.099-0.105-0.196-0.211-0.296-0.316c-0.021-0.032-0.027-0.075-0.015-0.129
				c0.013-0.051-0.003-0.111-0.05-0.178c-0.069-0.1-0.184-0.207-0.342-0.326c-0.159-0.119-0.262-0.211-0.308-0.276
				c-0.022-0.032-0.04-0.091-0.05-0.179c-0.01-0.084-0.025-0.145-0.049-0.178c-0.046-0.066-0.123-0.139-0.229-0.218
				c-0.106-0.079-0.171-0.135-0.193-0.168c-0.046-0.065-0.063-0.125-0.049-0.179c0.014-0.053-0.014-0.071-0.08-0.059
				c-0.066,0.014-0.111,0.004-0.136-0.029c-0.021-0.031-0.046-0.064-0.068-0.1c0.007-0.025,0.014-0.053,0.021-0.078
				c-0.046-0.065-0.144-0.149-0.292-0.252c-0.146-0.101-0.258-0.201-0.327-0.301c-0.046-0.066-0.105-0.17-0.18-0.311
				c-0.074-0.143-0.134-0.246-0.181-0.313c-0.184-0.038-0.364-0.075-0.547-0.112c-0.023-0.033-0.048-0.065-0.07-0.1
				c-0.135-0.154-0.271-0.309-0.406-0.463c-0.069-0.1-0.079-0.184-0.024-0.26c-0.239-0.188-0.35-0.379-0.326-0.572
				c-0.07-0.1-0.141-0.197-0.209-0.296c-0.171-0.091-0.303-0.201-0.396-0.332c-0.021-0.033-0.039-0.093-0.047-0.181
				c-0.009-0.086-0.022-0.146-0.047-0.18c-0.093-0.131-0.187-0.263-0.279-0.395c-0.021-0.031-0.045-0.1-0.063-0.204
				C7.031,27.078,7,26.994,6.953,26.927c-0.048-0.066-0.102-0.105-0.163-0.117c-0.023-0.032-0.019-0.082,0.017-0.146
				c0.036-0.063,0.042-0.111,0.021-0.145c-0.278-0.169-0.479-0.335-0.595-0.499c-0.046-0.066-0.105-0.17-0.18-0.313
				c-0.073-0.142-0.144-0.263-0.213-0.361c0.078-0.042,0.157-0.083,0.236-0.125c0.017-0.053,0.021-0.124,0.016-0.211
				c-0.008-0.087,0.018-0.167,0.075-0.243c0.079-0.042,0.176-0.114,0.294-0.22c0.116-0.106,0.194-0.169,0.234-0.189
				c0.172-0.224,0.344-0.446,0.517-0.669c0.119-0.061,0.157-0.124,0.111-0.191c0.366-0.096,0.564-0.24,0.598-0.434
				c0.04-0.021,0.081-0.041,0.121-0.061c0.062,0.013,0.112,0.01,0.153-0.011c0.362-0.182,0.574-0.264,0.639-0.252
				c0.036-0.106,0.154-0.229,0.354-0.372c0.2-0.142,0.353-0.26,0.45-0.352c0.04-0.02,0.103-0.071,0.182-0.154
				C9.9,21.782,9.981,21.721,10.063,21.682z"/>
			<path fill="#282D33" d="M83.245,7.568c0.175,0.012,0.301,0.091,0.382,0.235c0.218,0.016,0.455,0.075,0.712,0.181
				s0.449,0.164,0.579,0.175c0.064,0.005,0.131,0.011,0.195,0.016c0.105,0.061,0.211,0.121,0.315,0.182
				c0.254,0.125,0.466,0.196,0.639,0.21c0.039,0.073,0.12,0.149,0.245,0.229c0.124,0.081,0.207,0.141,0.247,0.179
				c0.087,0.007,0.173,0.015,0.259,0.022c0.04,0.039,0.155,0.093,0.347,0.163c0.189,0.069,0.335,0.144,0.437,0.223
				c0.102,0.079,0.148,0.17,0.14,0.273c-0.008,0.07-0.035,0.137-0.083,0.201c-0.051,0.064-0.075,0.113-0.079,0.147
				c-0.006,0.069,0.038,0.178,0.133,0.326c0.094,0.146,0.135,0.29,0.122,0.428c-0.022,0.24-0.044,0.481-0.066,0.722
				c0.016,0.071,0.029,0.142,0.044,0.212c0.017,0.054,0.032,0.107,0.048,0.161c-0.01,0.104,0.025,0.177,0.106,0.219
				c-0.098,0.129-0.158,0.331-0.184,0.604c-0.018,0.173-0.068,0.289-0.158,0.35c0.143,0.257,0.146,0.431,0.015,0.521
				c0.075,0.078,0.095,0.321,0.056,0.733c-0.028,0.31,0.051,0.56,0.239,0.75c-0.007,0.069-0.063,0.221-0.168,0.452
				c0.033,0.073,0.104,0.201,0.209,0.385c0.104,0.183,0.168,0.362,0.191,0.537c-0.007,0.068,0.002,0.182,0.025,0.34
				c0.024,0.158,0.033,0.273,0.026,0.34c-0.003,0.035-0.007,0.069-0.01,0.104c0.183,0.191,0.265,0.373,0.247,0.543
				c-0.021,0.016-0.044,0.03-0.065,0.046c-0.004,0.035-0.007,0.069-0.011,0.104c0.035,0.038,0.051,0.092,0.044,0.16
				c-0.008,0.068-0.013,0.12-0.017,0.153c0.236,0.405,0.339,0.57,0.307,0.498c-0.087,0.061-0.135,0.142-0.146,0.245
				c-0.007,0.068,0.013,0.175,0.057,0.317c0.045,0.143,0.063,0.248,0.056,0.316c-0.002,0.017-0.004,0.034-0.006,0.051
				c-0.043,0.031-0.085,0.044-0.123,0.04c-0.024,0.223-0.049,0.446-0.072,0.669c-0.033,0.308-0.04,0.549-0.02,0.724
				c-0.008,0.069,0.035,0.125,0.128,0.168c0.092,0.044,0.138,0.083,0.134,0.117c-0.043,0.03-0.067,0.08-0.075,0.147
				c-0.012,0.103,0.04,0.247,0.155,0.431c0.114,0.184,0.187,0.312,0.218,0.384c-0.021,0.016-0.043,0.03-0.063,0.046
				c-0.01,0.069-0.015,0.12-0.019,0.154c-0.014,0.119-0.026,0.239-0.042,0.358c-0.004,0.034,0.012,0.071,0.046,0.108
				c0.033,0.038,0.076,0.085,0.127,0.143c0.052,0.056,0.074,0.102,0.07,0.136c-0.008,0.068-0.016,0.137-0.023,0.205
				c-0.027,0.239-0.014,0.431,0.046,0.574c-0.006,0.035-0.05,0.082-0.131,0.144c-0.079,0.026-0.122,0.074-0.131,0.143
				c-0.004,0.034,0.024,0.114,0.085,0.241c0.061,0.128,0.086,0.225,0.078,0.292c-0.013,0.103-0.04,0.17-0.08,0.2
				c0.151-0.02,0.244-0.08,0.275-0.181c0.03-0.1,0.086-0.163,0.165-0.19c0.007-0.052,0.013-0.103,0.019-0.154
				c0.014-0.103,0.073-0.286,0.184-0.552c0.113-0.161,0.229-0.321,0.346-0.482c0.004-0.033,0.021-0.083,0.048-0.15
				c0.027-0.065,0.025-0.135-0.003-0.207c0.089-0.095,0.229-0.356,0.42-0.784c0.189-0.428,0.411-0.696,0.661-0.807
				c0.007-0.051,0.014-0.103,0.021-0.153c0.032-0.237,0.135-0.416,0.309-0.534c0.278-0.589,0.63-0.961,1.052-1.114
				c0.049-0.063,0.143-0.146,0.276-0.25c0.136-0.103,0.23-0.203,0.286-0.299c0.108-0.193,0.317-0.373,0.628-0.537
				c0.06-0.13,0.16-0.246,0.299-0.349c0.138-0.101,0.286-0.2,0.445-0.3c0.158-0.098,0.283-0.175,0.376-0.23
				c0.003-0.017,0.006-0.033,0.009-0.05c0.011-0.067-0.008-0.14-0.057-0.216c-0.051-0.076-0.068-0.148-0.059-0.216
				c0.075,0.045,0.136,0.054,0.183,0.026c0.132-0.049,0.552-0.109,1.268-0.172c0.039,0.007,0.085-0.013,0.135-0.057
				c0.049-0.044,0.094-0.063,0.133-0.057c0.041,0.007,0.081,0.013,0.121,0.02c0.161,0.025,0.369,0.024,0.624-0.003
				c0.255-0.027,0.443-0.03,0.563-0.011c0.121,0.021,0.256,0.079,0.403,0.173c0.088-0.02,0.252-0.009,0.493,0.033
				c0.281,0.05,0.514,0.143,0.693,0.277c0.604,0.108,0.98,0.285,1.139,0.521c0.159,0.03,0.285,0.08,0.373,0.148
				c0.088,0.069,0.163,0.152,0.226,0.25c0.061,0.099,0.127,0.173,0.198,0.221c-0.007,0.033-0.015,0.066-0.021,0.1
				c-0.046,0.197-0.028,0.479,0.052,0.838c0.189,0.072,0.352,0.225,0.479,0.458c0.13,0.232,0.228,0.374,0.299,0.422
				c-0.021,0.083-0.04,0.165-0.062,0.247c-0.008,0.033,0.045,0.069,0.157,0.108c0.113,0.041,0.165,0.078,0.157,0.11
				c-0.004,0.017-0.008,0.033-0.012,0.049c0.028,0.042,0.042,0.079,0.033,0.111c0.101,0.09,0.188,0.229,0.264,0.416
				c0.073,0.189,0.142,0.323,0.203,0.405c-0.084,0.327-0.076,0.536,0.021,0.625c-0.034,0.131-0.068,0.263-0.102,0.394
				c0.066,0.049,0.125,0.138,0.171,0.269s0.103,0.221,0.172,0.269c-0.083,0.467,0.059,0.84,0.42,1.125
				c0.274,0.75,0.472,1.172,0.602,1.27c0.006,0.053,0.011,0.105,0.016,0.158c-0.027,0.097-0.064,0.158-0.11,0.183
				c0.094,0.089,0.188,0.179,0.279,0.269c-0.085,0.018-0.153-0.016-0.209-0.098c0.019,0.211-0.009,0.445-0.082,0.705
				c0.026,0.039,0.09,0.098,0.186,0.17c0.097,0.074,0.169,0.125,0.221,0.152c0.05,0.029,0.093,0.082,0.13,0.158
				c0.036,0.078,0.063,0.153,0.08,0.227c0.018,0.072,0.012,0.156-0.018,0.254c-0.01,0.033,0.06,0.064,0.204,0.099
				c-0.01,0.032-0.001,0.069,0.026,0.109c0.016,0.073,0.002,0.12-0.043,0.146c-0.011,0.032,0.008,0.071,0.053,0.115
				c0.045,0.045,0.075,0.104,0.093,0.178c0.025,0.041,0.025,0.108-0.004,0.205c-0.029,0.096-0.035,0.182-0.02,0.254
				c0.016,0.073,0.079,0.121,0.188,0.146c0.055-0.057,0.125-0.16,0.211-0.313c0.084-0.152,0.133-0.244,0.144-0.277
				c0.039-0.129,0.078-0.258,0.116-0.387c0.011-0.031,0.07-0.104,0.185-0.217c0.11-0.109,0.182-0.215,0.212-0.313
				c0.01-0.031,0.02-0.063,0.029-0.096c0.02-0.064,0.1-0.131,0.238-0.201c0.051-0.162,0.115-0.248,0.2-0.264
				c0.046-0.023,0.058-0.056,0.03-0.096c-0.014-0.021-0.027-0.042-0.041-0.063c0.021-0.063,0.113-0.11,0.282-0.14
				c0.01-0.03,0-0.069-0.025-0.11c-0.028-0.039-0.018-0.072,0.03-0.097c0.056-0.055,0.151-0.202,0.288-0.447
				c0.136-0.242,0.275-0.398,0.419-0.467c-0.019-0.074-0.011-0.158,0.02-0.255c0.04-0.127,0.13-0.287,0.272-0.477
				c0.141-0.189,0.228-0.331,0.258-0.428c0.031-0.097,0.062-0.192,0.093-0.289c0.111-0.352,0.265-0.573,0.457-0.661
				c0.021-0.064,0.041-0.129,0.063-0.192c0.021-0.064,0.085-0.169,0.193-0.313c0.109-0.146,0.186-0.282,0.227-0.409
				c0.011-0.032,0.021-0.064,0.03-0.097c0.049-0.021,0.099-0.044,0.147-0.065c0.048-0.021,0.082-0.031,0.103-0.025
				c0.02,0.005,0.054-0.004,0.104-0.025c-0.047-0.116-0.028-0.301,0.056-0.558c0.124-0.384,0.346-0.741,0.667-1.071
				c0.021-0.064-0.008-0.107-0.086-0.128c0.061-0.053,0.105-0.128,0.138-0.224c0.053-0.16,0.188-0.375,0.405-0.646
				c0.22-0.271,0.352-0.469,0.394-0.597c0.01-0.031,0.016-0.082,0.018-0.152c0-0.069,0.012-0.135,0.033-0.198
				c0.042-0.128,0.155-0.341,0.343-0.637c0.156-0.34,0.396-0.727,0.718-1.159c0.055-0.159,0.106-0.317,0.16-0.477
				c0.146-0.168,0.244-0.262,0.297-0.282c-0.009-0.107,0.064-0.261,0.224-0.459c0.296-0.474,0.471-0.721,0.522-0.74
				c0.068-0.067,0.138-0.135,0.205-0.203c0.012-0.03,0.048-0.072,0.112-0.125c0.031-0.025,0.063-0.051,0.095-0.077
				c0.018-0.047,0.033-0.095,0.049-0.142c0.021-0.063,0.023-0.203,0.005-0.417c0.041,0.012,0.074-0.014,0.097-0.077
				c0.052-0.02,0.12-0.018,0.205,0.007c0.084,0.024,0.146,0.043,0.188,0.055c0.184-0.261,0.552-0.327,1.11-0.195
				c0.041,0.013,0.155,0.021,0.341,0.024c0.185,0.003,0.318,0.018,0.403,0.044c0.021,0.006,0.042,0.013,0.063,0.019
				c0.029,0.045,0.065,0.073,0.108,0.086c0.105-0.037,0.245-0.029,0.412,0.022c0.168,0.052,0.3,0.075,0.396,0.07
				c0.041,0.014,0.092,0.038,0.148,0.073c0.056,0.036,0.104,0.06,0.146,0.072c0.084,0.026,0.259,0.064,0.522,0.113
				c0.263,0.05,0.436,0.088,0.521,0.115c0.21,0.067,0.353,0.186,0.43,0.35c0.042,0.015,0.084,0.028,0.125,0.042
				c0.084,0.027,0.199,0.092,0.348,0.193s0.264,0.167,0.348,0.194c0.042,0.015,0.083,0.028,0.124,0.042
				c0.033,0.151,0.268,0.335,0.697,0.552c-0.067,0.048-0.023,0.169,0.134,0.362c0.082,0.028,0.164,0.057,0.247,0.086
				c0.143,0.225,0.317,0.426,0.523,0.604c-0.091,0.215-0.015,0.364,0.231,0.451c-0.014,0.031-0.032,0.077-0.06,0.138
				c-0.027,0.063-0.068,0.1-0.121,0.116c0.081,0.029,0.14,0.111,0.176,0.247c0.034,0.137,0.071,0.21,0.112,0.225
				c-0.026,0.063-0.087,0.119-0.181,0.174c-0.095,0.056-0.148,0.099-0.161,0.128c-0.014,0.031,0.004,0.073,0.051,0.124
				c0.048,0.053,0.077,0.116,0.092,0.191c0,0.105-0.063,0.171-0.189,0.196c-0.129,0.026-0.198,0.055-0.212,0.085
				c-0.014,0.03,0.021,0.112,0.102,0.246c0.026,0.045,0.004,0.072-0.07,0.081c-0.073,0.009-0.116,0.029-0.129,0.06
				c0.079,0.134,0.073,0.308-0.021,0.521c-0.04,0.092-0.128,0.185-0.261,0.277c-0.014,0.031-0.008,0.069,0.021,0.113
				c-0.054,0.122-0.108,0.191-0.16,0.208c0.066,0.164,0.038,0.409-0.082,0.736c-0.121,0.328-0.176,0.581-0.164,0.761
				c-0.053,0.018-0.113,0.049-0.178,0.097c-0.133,0.094-0.23,0.112-0.295,0.055c-0.054,0.018-0.04,0.092,0.037,0.224
				c-0.16,0.156-0.271,0.311-0.338,0.463c-0.026,0.062-0.054,0.123-0.08,0.184c-0.052,0.018-0.125,0.062-0.225,0.133
				c-0.099,0.072-0.174,0.117-0.226,0.135c-0.013,0.03-0.026,0.061-0.039,0.092c-0.026,0.061-0.027,0.113-0.002,0.156
				c-0.052,0.018-0.121,0.1-0.206,0.246c-0.086,0.146-0.192,0.215-0.32,0.206c-0.014,0.031-0.043,0.101-0.089,0.207
				c-0.047,0.107-0.105,0.192-0.176,0.256c-0.072,0.064-0.151,0.1-0.24,0.104c-0.145,0.338-0.378,0.627-0.696,0.871
				c0.011,0.075-0.002,0.157-0.041,0.249c-0.077,0.185-0.446,0.394-1.101,0.639c-0.051,0.018-0.042,0.047,0.027,0.086
				c0.067,0.039,0.076,0.068,0.026,0.088c-0.063,0.05-0.146,0.172-0.247,0.365c-0.103,0.194-0.229,0.319-0.376,0.377
				c-0.002,0.104-0.09,0.217-0.265,0.334c-0.013,0.031-0.025,0.063-0.038,0.094c-0.013,0.031-0.063,0.103-0.15,0.214
				c-0.088,0.112-0.138,0.185-0.149,0.215c-0.03,0.024-0.063,0.05-0.093,0.075c-0.076,0.186-0.151,0.316-0.227,0.398
				c-0.05,0.021-0.08,0.045-0.093,0.075c-0.185,0.151-0.319,0.231-0.404,0.24c-0.013,0.03-0.037,0.093-0.075,0.185
				c-0.036,0.094-0.084,0.157-0.139,0.192c-0.056,0.036-0.126,0.06-0.21,0.065c0.168,0.19,0.079,0.355-0.26,0.496
				c-0.013,0.03,0.004,0.088,0.052,0.172c0.047,0.084,0.064,0.142,0.052,0.172c-0.049,0.021-0.125,0.059-0.227,0.113
				c-0.104,0.057-0.187,0.108-0.245,0.16c-0.036-0.012-0.061,0-0.072,0.029c-0.013,0.031-0.024,0.063-0.037,0.094
				c-0.042,0.006-0.084,0.01-0.125,0.016c-0.023,0.063-0.05,0.123-0.073,0.187c-0.014,0.031-0.067,0.065-0.162,0.106
				c-0.024,0.011-0.048,0.021-0.072,0.031c-0.049,0.123-0.098,0.248-0.147,0.371c-0.146,0.166-0.254,0.344-0.326,0.528
				c-0.054,0.036-0.107,0.071-0.16,0.108c-0.207,0.426-0.527,0.748-0.961,0.97c0.01,0.073-0.021,0.2-0.093,0.389
				c-0.197,0.015-0.413,0.125-0.646,0.337c-0.233,0.211-0.43,0.329-0.59,0.354c-0.012,0.03-0.023,0.063-0.035,0.094
				c-0.369,0.278-0.688,0.435-0.961,0.465c-0.219,0.392-0.563,0.522-1.036,0.4c-0.372,0.11-0.612,0.172-0.726,0.178
				c-0.18,0.093-0.458,0.108-0.842,0.05c-0.382-0.059-0.639-0.051-0.771,0.021c-0.695-0.096-1.243-0.186-1.648-0.274
				c-0.909-0.2-1.485-0.438-1.727-0.729c-0.093-0.053-0.258-0.104-0.496-0.151c-0.255-0.051-0.51-0.101-0.765-0.149
				c-0.34-0.065-0.549-0.156-0.625-0.272c-0.062-0.045-0.1-0.035-0.115,0.03c-0.034-0.008-0.068-0.014-0.104-0.021
				c-0.141-0.077-0.28-0.155-0.423-0.231c-0.053-0.078-0.182-0.205-0.389-0.379c-0.208-0.174-0.313-0.347-0.306-0.519
				c-0.033-0.006-0.075-0.021-0.122-0.047c-0.048-0.024-0.09-0.041-0.124-0.048c-0.015-0.02-0.026-0.038-0.04-0.059
				c0.008-0.033,0.016-0.064,0.022-0.099c-0.246-0.181-0.363-0.372-0.353-0.575c-0.245-0.352-0.372-0.595-0.377-0.732
				c-0.09-0.084-0.188-0.264-0.29-0.539c-0.104-0.274-0.222-0.457-0.35-0.545c0.008-0.032,0.035-0.08,0.087-0.143
				c-0.052-0.111-0.108-0.311-0.178-0.596c-0.068-0.286-0.146-0.486-0.233-0.604c-0.029-0.039-0.022-0.072,0.021-0.101
				c0.021-0.015,0.043-0.028,0.064-0.042c-0.146-0.193-0.235-0.57-0.272-1.127c-0.119-0.154-0.169-0.421-0.149-0.797
				c0.018-0.376,0.014-0.6-0.01-0.673c-0.023-0.072-0.053-0.171-0.085-0.297c-0.032-0.125-0.059-0.242-0.076-0.348
				s-0.021-0.192-0.007-0.259c0.021-0.102,0.052-0.165,0.096-0.192c-0.123-0.156-0.157-0.283-0.101-0.377
				c-0.201,0.037-0.384,0.285-0.546,0.743s-0.363,0.721-0.604,0.79c-0.007,0.032-0.004,0.067,0.01,0.104
				c0.012,0.036,0.015,0.072,0.009,0.104c-0.087,0.058-0.142,0.153-0.166,0.287c-0.013,0.17-0.023,0.34-0.037,0.511
				c-0.019,0.1-0.077,0.213-0.174,0.336c0.029,0.039,0.036,0.108,0.018,0.211c-0.023,0.133-0.139,0.297-0.34,0.494
				c-0.202,0.195-0.323,0.309-0.364,0.336c-0.035,0.201-0.116,0.346-0.241,0.434c-0.006,0.033-0.013,0.066-0.019,0.101
				c-0.018,0.103-0.26,0.431-0.716,0.991c-0.006,0.033-0.063,0.164-0.174,0.393c-0.011,0.066-0.022,0.135-0.033,0.201
				c-0.067,0.404-0.289,0.652-0.659,0.745c-0.012,0.067-0.039,0.134-0.085,0.196c-0.046,0.064-0.069,0.113-0.076,0.146
				c-0.086,0.092-0.271,0.2-0.554,0.323c-0.283,0.124-0.485,0.248-0.607,0.373c-0.185,0.051-0.442,0.092-0.778,0.128
				c-0.336,0.035-0.592,0.063-0.768,0.081c-0.072,0.028-0.227,0.065-0.457,0.114c-0.231,0.05-0.417,0.086-0.559,0.107
				c-0.103-0.009-0.205-0.017-0.308-0.023c-0.355,0.074-0.873,0.086-1.556,0.041c-0.052-0.004-0.103-0.008-0.153-0.01
				c-0.069-0.004-0.152-0.026-0.252-0.067c-0.1-0.04-0.166-0.062-0.2-0.063c-0.031-0.035-0.098-0.059-0.2-0.063
				c-0.104-0.007-0.188-0.011-0.257-0.015c-0.069-0.004-0.17-0.035-0.302-0.096c-0.135-0.061-0.251-0.091-0.354-0.097
				c-0.035-0.002-0.174,0.009-0.416,0.032c-0.243,0.022-0.415,0.031-0.518,0.027c-0.104-0.004-0.224-0.025-0.357-0.066
				c-0.136-0.039-0.253-0.063-0.355-0.065c-0.133-0.108-0.4-0.204-0.812-0.286c-0.062-0.141-0.162-0.215-0.299-0.218
				c-0.034-0.035-0.092-0.099-0.174-0.188c-0.082-0.088-0.141-0.168-0.17-0.238c-0.07-0.002-0.14-0.021-0.206-0.057
				c-0.069-0.037-0.12-0.057-0.154-0.058c0.002-0.069-0.056-0.157-0.172-0.265c-0.118-0.106-0.176-0.213-0.172-0.317
				c-0.273-0.179-0.478-0.392-0.61-0.638c0.001-0.035,0.011-0.07,0.029-0.104c0.018-0.035,0.029-0.07,0.03-0.104
				c-0.07-0.035-0.147-0.124-0.231-0.265c-0.084-0.142-0.179-0.229-0.285-0.268c-0.032-0.141-0.082-0.322-0.146-0.553
				c-0.067-0.227-0.101-0.375-0.099-0.445c0.002-0.104,0.04-0.227,0.116-0.363c0-0.035-0.035-0.055-0.106-0.055
				c-0.036-0.001-0.071-0.001-0.107-0.002c-0.035-0.035-0.052-0.079-0.051-0.132c0.001-0.054,0.002-0.113,0.003-0.185
				c-0.035-0.035-0.053-0.068-0.052-0.104c0-0.034,0.01-0.079,0.028-0.131c0.02-0.053,0.029-0.096,0.03-0.131
				c0.001-0.07-0.044-0.141-0.133-0.211c-0.09-0.071-0.134-0.142-0.133-0.213c-0.072-0.104-0.115-0.246-0.132-0.42
				c-0.016-0.175-0.039-0.314-0.074-0.421c0.001-0.034,0.02-0.087,0.057-0.155c0.02-0.018,0.037-0.035,0.056-0.052
				c-0.107-0.071-0.106-0.159,0.004-0.263c-0.071-0.071-0.145-0.142-0.218-0.212c0.037-0.069,0.038-0.148,0.003-0.236
				c-0.036-0.088-0.054-0.149-0.053-0.185c0.001-0.069,0.011-0.165,0.031-0.288c0.02-0.122,0.03-0.218,0.031-0.288
				c0.001-0.035,0.001-0.069,0.002-0.104c-0.035-0.211-0.033-0.35,0.005-0.42c0.001-0.034-0.027-0.062-0.083-0.079
				c-0.058-0.018-0.084-0.045-0.084-0.08c0.037,0,0.074-0.017,0.112-0.051c0.021-0.018,0.038-0.035,0.059-0.052
				c0-0.034-0.037-0.097-0.111-0.186c-0.075-0.088-0.074-0.15,0.002-0.183c-0.075-0.071-0.149-0.107-0.226-0.108
				c-0.038-0.07-0.057-0.176-0.055-0.316c0.001-0.14,0.079-0.419,0.237-0.836c-0.038-0.034-0.076-0.079-0.114-0.133
				c-0.038-0.053-0.075-0.098-0.112-0.133c0.004-0.42-0.032-0.631-0.109-0.632c0-0.034,0.029-0.068,0.087-0.103
				c0.06-0.034,0.087-0.068,0.088-0.104c-0.02,0-0.039,0-0.059-0.001c-0.037-0.034-0.058-0.07-0.058-0.105
				c-0.036-0.106-0.054-0.455-0.049-1.051c0.002-0.28-0.056-0.474-0.173-0.58c0.021-0.018,0.039-0.035,0.061-0.052
				c0.039-0.034,0.077-0.052,0.117-0.051c0.001-0.034-0.058-0.149-0.175-0.344c-0.118-0.194-0.178-0.345-0.177-0.449
				c0-0.07,0.04-0.175,0.121-0.313c-0.021-0.123-0.038-0.246-0.059-0.368c0-0.035,0.021-0.069,0.062-0.104
				c0.039-0.033,0.061-0.086,0.061-0.156c0.001-0.105-0.027-0.236-0.088-0.396c-0.06-0.16-0.089-0.273-0.089-0.343
				c0-0.034,0.021-0.087,0.063-0.156c0.04-0.069,0.061-0.121,0.062-0.157c0-0.069-0.021-0.158-0.06-0.263
				c-0.041-0.106-0.062-0.177-0.062-0.212c0.001-0.069,0.021-0.122,0.063-0.156c0.04-0.034,0.031-0.061-0.03-0.08
				c-0.062-0.018-0.092-0.044-0.092-0.079s0-0.07,0.001-0.105c0.02-0.018,0.041-0.034,0.061-0.052
				c0.001-0.069-0.028-0.176-0.091-0.317c-0.061-0.14-0.091-0.265-0.091-0.369c0-0.07,0.012-0.175,0.032-0.314
				c0.021-0.139,0.03-0.244,0.03-0.314c-0.123-0.108-0.246-0.216-0.37-0.323c0-0.035,0-0.07,0-0.105
				c-0.021-0.175-0.042-0.351-0.063-0.526c0-0.105,0.041-0.175,0.125-0.208c-0.084-0.246-0.063-0.438,0.063-0.576
				c0-0.105,0-0.21,0-0.315c-0.084-0.142-0.126-0.283-0.126-0.423c0-0.034,0.021-0.087,0.063-0.156s0.063-0.121,0.063-0.157
				c0-0.14,0-0.279,0.001-0.42c-0.001-0.034,0.021-0.096,0.063-0.183c0.042-0.086,0.064-0.163,0.064-0.234
				c0.001-0.069-0.021-0.123-0.063-0.159c0-0.034,0.032-0.068,0.096-0.103c0.063-0.033,0.098-0.067,0.098-0.102
				c-0.127-0.249-0.191-0.461-0.191-0.636c0-0.07,0.011-0.175,0.033-0.315c0.021-0.139,0.033-0.261,0.033-0.366
				c0.086,0.002,0.173,0.005,0.259,0.008c0.043-0.033,0.087-0.085,0.132-0.154c0.043-0.068,0.108-0.119,0.196-0.151
				c0.087,0.002,0.205-0.011,0.357-0.04c0.152-0.029,0.251-0.043,0.296-0.042c0.262-0.095,0.523-0.189,0.787-0.283
				c0.131,0.006,0.196-0.026,0.198-0.097c0.347,0.086,0.587,0.063,0.722-0.07c0.045,0.003,0.089,0.005,0.133,0.007
				c0.042,0.036,0.085,0.057,0.13,0.06c0.392,0.02,0.608,0.049,0.651,0.086c0.09-0.064,0.256-0.106,0.496-0.128
				c0.241-0.02,0.431-0.043,0.562-0.07c0.043,0.003,0.121-0.01,0.231-0.037C83.058,7.574,83.157,7.563,83.245,7.568z"/>
			<path fill="#282D33" d="M122.728,38.119c0.285,0.223,0.529,0.482,0.73,0.778c0.042,0.035,0.083,0.069,0.125,0.104
				c0.03,0.086,0.062,0.248,0.086,0.488c0.021,0.241,0.066,0.411,0.132,0.51c-0.051,0.084-0.078,0.306-0.082,0.658
				c-0.203,0.34-0.405,0.682-0.608,1.021c-0.017,0.027-0.107,0.063-0.271,0.1c-0.162,0.038-0.276,0.078-0.342,0.123
				c-0.23,0.118-0.434,0.158-0.609,0.121c-0.292,0.094-0.479,0.178-0.56,0.251c-0.479-0.192-0.823-0.276-1.031-0.253
				c-0.033-0.083-0.146-0.161-0.336-0.234c-0.129-0.052-0.249-0.168-0.361-0.353c-0.113-0.185-0.22-0.295-0.314-0.331
				c0.046-0.158-0.029-0.311-0.226-0.454c0.029-0.198,0.003-0.332-0.08-0.397c0.078-0.146,0.125-0.365,0.143-0.658
				c0.016-0.293,0.062-0.512,0.139-0.659c0.092-0.177,0.186-0.28,0.284-0.313c0.128-0.094,0.256-0.186,0.385-0.277
				c0.008-0.014,0.016-0.028,0.023-0.043c0.015-0.029,0.029-0.059,0.046-0.088c0.016-0.029,0.088-0.073,0.219-0.129
				c0.129-0.057,0.193-0.119,0.19-0.19c0.132-0.021,0.295-0.063,0.492-0.128c0.033,0.014,0.247-0.01,0.646-0.064
				C121.796,37.764,122.19,37.901,122.728,38.119z M134.913,13.138c0.303,0.134,0.54,0.341,0.711,0.617
				c0.169,0.275,0.331,0.467,0.486,0.574c-0.021,0.135,0.034,0.297,0.17,0.485c0.136,0.189,0.207,0.322,0.219,0.399
				c-0.018,0.029-0.036,0.084-0.056,0.166s-0.06,0.127-0.116,0.136c0.146,0.212,0.021,0.663-0.376,1.351
				c-0.121,0.488-0.241,0.833-0.356,1.033c-0.082,0.143-0.199,0.252-0.348,0.328c0.032,0.125-0.013,0.294-0.137,0.509
				c-0.124,0.214-0.202,0.351-0.235,0.408c0,0.09,0,0.181,0,0.271c-0.002,0.181-0.037,0.329-0.104,0.442
				c-0.272,0.472-0.548,0.943-0.82,1.415c-0.018,0.028-0.1,0.082-0.245,0.16c-0.018,0.028-0.032,0.076-0.044,0.143
				c-0.015,0.065-0.028,0.113-0.045,0.142c-0.018,0.029-0.041,0.072-0.074,0.129c-0.037,0.02-0.073,0.039-0.11,0.059
				c-0.105,0.097-0.19,0.265-0.256,0.507c-0.064,0.241-0.123,0.404-0.173,0.491c-0.051,0.086-0.164,0.196-0.342,0.332
				c-0.034,0.058-0.045,0.161-0.032,0.311c-0.101,0.171-0.238,0.433-0.42,0.785c-0.181,0.352-0.328,0.628-0.444,0.827
				c-0.299,0.515-0.665,1.017-1.094,1.509c0.01,0.148-0.003,0.252-0.036,0.31c-0.017,0.028-0.129,0.14-0.337,0.335
				c-0.05,0.086-0.101,0.172-0.148,0.258c-0.149,0.258-0.336,0.66-0.562,1.208c-0.124,0.214-0.249,0.429-0.373,0.644
				c-0.033,0.058-0.063,0.125-0.085,0.205c-0.023,0.08-0.043,0.135-0.061,0.162c-0.032,0.058-0.089,0.113-0.167,0.168
				c-0.077,0.057-0.125,0.099-0.142,0.127c-0.018,0.028-0.024,0.08-0.021,0.152c0.003,0.073-0.013,0.139-0.046,0.194
				c-0.017,0.028-0.042,0.071-0.074,0.129c-0.034,0.021-0.069,0.041-0.104,0.063c-0.017,0.027-0.015,0.084,0.008,0.164
				c0.021,0.08,0.016,0.149-0.018,0.207c-0.034,0.059-0.086,0.105-0.155,0.147c-0.07,0.04-0.112,0.075-0.129,0.104
				c-0.033,0.057-0.075,0.146-0.123,0.27c-0.049,0.123-0.081,0.197-0.098,0.227c-0.05,0.086-0.127,0.159-0.23,0.223
				c-0.103,0.063-0.163,0.106-0.18,0.136c-0.07,0.042-0.077,0.093-0.022,0.151c0.056,0.06,0.075,0.104,0.06,0.133
				c-0.084,0.145-0.224,0.343-0.416,0.599c-0.194,0.257-0.323,0.44-0.391,0.556c-0.134,0.229-0.213,0.48-0.24,0.754
				c-0.204,0.199-0.348,0.369-0.431,0.514c-0.166,0.285-0.247,0.535-0.241,0.752c-0.219,0.371-0.326,0.593-0.324,0.664
				c-0.033,0.058-0.076,0.057-0.128-0.002c-0.055-0.059-0.097-0.094-0.131-0.107c-0.085-0.001-0.279,0.076-0.583,0.233
				c-0.035-0.015-0.082-0.025-0.143-0.032s-0.105-0.018-0.14-0.031c-0.104-0.043-0.22-0.119-0.352-0.226
				c-0.129-0.106-0.246-0.183-0.35-0.226c-0.021-0.115-0.145-0.308-0.377-0.578c0.032-0.059,0.029-0.131-0.008-0.217
				c-0.038-0.086-0.033-0.174,0.015-0.26c-0.208-0.475-0.317-0.746-0.319-0.818c-0.023-0.117,0.01-0.299,0.101-0.545
				c0.09-0.248,0.132-0.408,0.128-0.48c-0.006-0.107-0.013-0.219-0.021-0.327c0.012-0.103,0.048-0.229,0.106-0.383
				c0.061-0.153,0.113-0.272,0.16-0.361c0.373-0.95,0.564-1.44,0.581-1.471c0.016-0.03,0.056-0.065,0.124-0.11
				c0.066-0.044,0.117-0.095,0.146-0.152c0.017-0.028,0.031-0.104,0.05-0.221s0.042-0.205,0.072-0.264
				c0.063-0.116,0.21-0.334,0.443-0.648c0.232-0.313,0.386-0.58,0.458-0.801c0.107-0.205,0.217-0.41,0.326-0.615
				c0.029-0.059,0.079-0.172,0.146-0.34c0.065-0.17,0.131-0.314,0.192-0.431c0.047-0.088,0.122-0.252,0.227-0.495
				c0.104-0.242,0.188-0.421,0.25-0.539c0.031-0.059,0.098-0.139,0.197-0.24c0.099-0.101,0.166-0.181,0.197-0.239
				c0.015-0.029,0.021-0.089,0.022-0.179c0-0.089,0.008-0.147,0.023-0.177c0.038-0.073,0.077-0.146,0.116-0.22
				c0.106-0.205,0.322-0.526,0.649-0.963c0.031-0.059,0.063-0.117,0.093-0.176c0.063-0.117,0.124-0.234,0.188-0.352
				c0.077-0.146,0.218-0.231,0.421-0.253c0.016-0.029-0.002-0.063-0.054-0.104c-0.052-0.039-0.062-0.087-0.029-0.146
				c0.14-0.085,0.251-0.226,0.333-0.424c0.081-0.198,0.164-0.335,0.251-0.404c-0.013-0.113-0.025-0.226-0.038-0.339
				c0.063-0.117,0.129-0.268,0.202-0.452c0.072-0.185,0.14-0.334,0.202-0.452c0.077-0.146,0.231-0.349,0.47-0.608
				c0.047-0.087,0.13-0.105,0.251-0.054c-0.024-0.046-0.033-0.122-0.028-0.228c0.008-0.104-0.003-0.181-0.026-0.228
				c0.03-0.058,0.078-0.101,0.143-0.127c0.063-0.027,0.104-0.055,0.118-0.085c0.031-0.058,0.058-0.154,0.079-0.288
				c0.021-0.134,0.04-0.217,0.056-0.246c0.03-0.059,0.09-0.124,0.179-0.193c0.087-0.07,0.138-0.12,0.152-0.15
				c0.031-0.059,0.094-0.175,0.188-0.351c0.093-0.176,0.154-0.293,0.187-0.352c0.119-0.128,0.316-0.431,0.596-0.903
				c0.276-0.474,0.521-0.81,0.729-1.006c0.016-0.029,0.077-0.049,0.186-0.056c0.107-0.007,0.171-0.024,0.187-0.054
				c0.016-0.03,0.039-0.073,0.07-0.131c-0.027-0.048-0.022-0.082,0.016-0.102c0.036-0.021,0.076-0.021,0.119-0.003
				c-0.028-0.047-0.009-0.13,0.054-0.247c0.107-0.15,0.215-0.302,0.323-0.453c-0.024-0.153-0.027-0.245-0.012-0.274
				c0.015-0.029,0.061-0.063,0.136-0.104c0.072-0.04,0.126-0.088,0.157-0.146c-0.006-0.038-0.012-0.077-0.018-0.116
				c0.031-0.058,0.056-0.102,0.07-0.131c0.031-0.059,0.092-0.123,0.183-0.191c0.089-0.068,0.144-0.116,0.158-0.146
				c0.031-0.059,0.071-0.132,0.118-0.22c0.047-0.087,0.092-0.147,0.137-0.183c0.045-0.034,0.096-0.075,0.148-0.124
				c0.053-0.049,0.119-0.073,0.2-0.074C134.742,13.08,134.825,13.099,134.913,13.138z"/>
			<path fill="#282D33" d="M131.218,41.96c0.269,0.242,0.491,0.521,0.668,0.828c0.039,0.039,0.078,0.076,0.117,0.114
				c0.023,0.087,0.039,0.249,0.042,0.487c0.001,0.238,0.031,0.41,0.087,0.512c-0.059,0.078-0.107,0.292-0.145,0.639
				c-0.235,0.315-0.474,0.633-0.71,0.949c-0.02,0.025-0.114,0.051-0.282,0.073c-0.169,0.022-0.288,0.052-0.358,0.09
				c-0.243,0.095-0.452,0.116-0.628,0.063c-0.304,0.066-0.501,0.132-0.589,0.195c-0.468-0.23-0.81-0.344-1.021-0.338
				c-0.023-0.084-0.131-0.173-0.316-0.263c-0.126-0.062-0.237-0.187-0.334-0.376c-0.099-0.191-0.194-0.311-0.288-0.354
				c0.061-0.151-0.001-0.308-0.187-0.465c0.048-0.193,0.034-0.326-0.044-0.398c0.094-0.139,0.16-0.348,0.204-0.633
				c0.043-0.287,0.109-0.498,0.201-0.635c0.109-0.164,0.214-0.26,0.316-0.285c0.138-0.078,0.275-0.158,0.415-0.235
				c0.009-0.015,0.018-0.027,0.026-0.041c0.02-0.028,0.037-0.056,0.055-0.083c0.02-0.025,0.097-0.063,0.233-0.105
				c0.136-0.043,0.206-0.101,0.21-0.17c0.135-0.009,0.305-0.035,0.511-0.082c0.032,0.016,0.251,0.012,0.658-0.008
				C130.309,41.527,130.695,41.699,131.218,41.96z M145.852,18.527c0.294,0.159,0.516,0.383,0.662,0.67
				c0.146,0.286,0.291,0.488,0.439,0.607c-0.035,0.131,0.007,0.295,0.127,0.493c0.12,0.198,0.18,0.335,0.184,0.411
				c-0.02,0.027-0.044,0.08-0.07,0.158c-0.027,0.078-0.071,0.119-0.132,0.122c0.128,0.223-0.04,0.653-0.504,1.294
				c-0.168,0.468-0.321,0.795-0.456,0.981c-0.098,0.133-0.226,0.23-0.383,0.291c0.022,0.125-0.039,0.287-0.185,0.487
				c-0.146,0.199-0.237,0.326-0.276,0.379c-0.008,0.089-0.017,0.178-0.025,0.267c-0.018,0.178-0.066,0.319-0.145,0.425
				c-0.32,0.438-0.643,0.877-0.962,1.315c-0.021,0.025-0.107,0.072-0.264,0.135c-0.02,0.025-0.038,0.07-0.058,0.137
				c-0.02,0.063-0.039,0.108-0.058,0.135c-0.021,0.026-0.049,0.066-0.088,0.121c-0.039,0.016-0.078,0.03-0.117,0.047
				c-0.117,0.086-0.218,0.242-0.307,0.476c-0.087,0.231-0.16,0.386-0.22,0.466s-0.184,0.178-0.377,0.295
				c-0.039,0.055-0.06,0.155-0.061,0.303c-0.117,0.16-0.282,0.403-0.497,0.733c-0.215,0.328-0.391,0.587-0.526,0.772
				c-0.35,0.478-0.767,0.938-1.245,1.383c-0.005,0.146-0.025,0.246-0.064,0.3c-0.021,0.026-0.144,0.126-0.372,0.299
				c-0.059,0.08-0.116,0.159-0.174,0.239c-0.176,0.238-0.401,0.617-0.68,1.136c-0.146,0.199-0.292,0.397-0.438,0.597
				c-0.039,0.056-0.073,0.119-0.104,0.194c-0.031,0.076-0.057,0.13-0.075,0.154c-0.038,0.053-0.101,0.104-0.185,0.149
				c-0.085,0.049-0.136,0.086-0.155,0.111c-0.019,0.025-0.03,0.076-0.035,0.146c-0.003,0.074-0.023,0.136-0.063,0.188
				c-0.021,0.026-0.049,0.065-0.088,0.119c-0.037,0.019-0.074,0.034-0.112,0.052c-0.02,0.026-0.021,0.081-0.007,0.161
				c0.014,0.083,0.002,0.149-0.037,0.203s-0.097,0.097-0.17,0.131c-0.075,0.033-0.121,0.063-0.141,0.091
				c-0.039,0.055-0.091,0.139-0.149,0.254c-0.061,0.115-0.1,0.187-0.119,0.213c-0.059,0.08-0.144,0.146-0.254,0.197
				c-0.11,0.053-0.176,0.092-0.194,0.116c-0.074,0.035-0.087,0.085-0.035,0.147c0.05,0.063,0.064,0.108,0.046,0.136
				c-0.099,0.134-0.258,0.315-0.477,0.55c-0.22,0.234-0.368,0.404-0.444,0.51c-0.156,0.215-0.261,0.453-0.313,0.721
				c-0.225,0.176-0.385,0.33-0.482,0.463c-0.193,0.267-0.298,0.505-0.313,0.718c-0.254,0.345-0.384,0.553-0.389,0.623
				c-0.039,0.053-0.082,0.048-0.131-0.015c-0.048-0.062-0.088-0.101-0.121-0.117c-0.085-0.008-0.29,0.051-0.612,0.178
				c-0.033-0.018-0.08-0.032-0.14-0.044c-0.062-0.013-0.105-0.026-0.14-0.044c-0.101-0.053-0.211-0.137-0.333-0.254
				c-0.122-0.116-0.232-0.199-0.334-0.25c-0.011-0.115-0.117-0.315-0.327-0.602c0.037-0.056,0.041-0.125,0.013-0.215
				c-0.03-0.087-0.019-0.172,0.038-0.253c-0.166-0.483-0.252-0.761-0.247-0.833c-0.015-0.115,0.036-0.291,0.15-0.525
				c0.113-0.234,0.171-0.388,0.174-0.459c0.004-0.107,0.009-0.215,0.012-0.324c0.02-0.098,0.067-0.219,0.143-0.365
				c0.075-0.145,0.141-0.258,0.195-0.34c0.466-0.899,0.705-1.365,0.724-1.393c0.02-0.027,0.063-0.06,0.137-0.098
				c0.071-0.037,0.126-0.083,0.163-0.139c0.019-0.025,0.041-0.098,0.07-0.211c0.028-0.113,0.063-0.196,0.098-0.252
				c0.074-0.108,0.243-0.31,0.51-0.598c0.265-0.285,0.443-0.535,0.536-0.744c0.129-0.191,0.258-0.385,0.387-0.576
				c0.037-0.055,0.097-0.162,0.18-0.32c0.081-0.159,0.161-0.295,0.234-0.404c0.055-0.082,0.146-0.236,0.273-0.465
				s0.229-0.396,0.304-0.508c0.036-0.055,0.109-0.129,0.222-0.219c0.108-0.09,0.185-0.162,0.222-0.217
				c0.019-0.027,0.031-0.086,0.04-0.174c0.008-0.087,0.021-0.145,0.04-0.172c0.046-0.068,0.092-0.137,0.138-0.205
				c0.129-0.191,0.376-0.488,0.747-0.888c0.037-0.056,0.074-0.108,0.11-0.163c0.074-0.109,0.146-0.221,0.221-0.329
				c0.092-0.136,0.242-0.207,0.45-0.211c0.018-0.026,0.003-0.063-0.045-0.104c-0.049-0.043-0.054-0.092-0.017-0.146
				c0.147-0.07,0.273-0.199,0.375-0.387c0.101-0.188,0.197-0.313,0.292-0.375c-0.002-0.111-0.006-0.223-0.009-0.335
				c0.074-0.109,0.155-0.251,0.247-0.426c0.09-0.175,0.172-0.315,0.246-0.426c0.092-0.137,0.269-0.321,0.532-0.555
				c0.055-0.081,0.141-0.093,0.259-0.031c-0.021-0.047-0.022-0.122-0.008-0.226c0.017-0.102,0.014-0.178-0.007-0.226
				c0.036-0.054,0.088-0.092,0.155-0.112c0.065-0.021,0.107-0.044,0.128-0.072c0.036-0.055,0.071-0.146,0.105-0.276
				c0.033-0.13,0.062-0.208,0.079-0.236c0.036-0.055,0.104-0.113,0.197-0.174c0.095-0.062,0.149-0.105,0.169-0.134
				c0.037-0.054,0.111-0.164,0.222-0.327c0.11-0.165,0.186-0.273,0.222-0.329c0.133-0.114,0.359-0.394,0.686-0.834
				c0.324-0.439,0.601-0.747,0.832-0.922c0.018-0.026,0.082-0.04,0.192-0.037c0.108,0.002,0.174-0.01,0.191-0.037
				c0.02-0.026,0.046-0.067,0.083-0.122c-0.022-0.049-0.015-0.082,0.025-0.099c0.038-0.016,0.078-0.014,0.12,0.009
				c-0.023-0.049,0.003-0.128,0.077-0.237c0.122-0.139,0.245-0.277,0.368-0.417c-0.01-0.152-0.004-0.242,0.016-0.27
				c0.018-0.027,0.065-0.058,0.146-0.09c0.078-0.032,0.137-0.075,0.174-0.13c-0.003-0.038-0.005-0.076-0.007-0.115
				c0.036-0.054,0.064-0.095,0.083-0.123c0.037-0.054,0.104-0.111,0.202-0.171c0.097-0.059,0.155-0.102,0.174-0.129
				c0.037-0.055,0.084-0.123,0.141-0.205c0.056-0.08,0.105-0.137,0.154-0.167c0.049-0.029,0.104-0.064,0.161-0.108
				s0.128-0.062,0.21-0.055C145.684,18.455,145.767,18.48,145.852,18.527z"/>
		</g>
	</g>
	<g>
		<g>
			<path fill="#BE1E2D" d="M69.724,35.417c3.911-0.252,1.415-2.209,4.896-6.629c2.704-3.436,9.313-8.203,7.206-13.998
				c-2.392-6.577-8.91-6.899-10.26-1.419s-1.882,1.195-2.38-0.684c-0.862-4.073-8.184-10.231-13.368-0.51
				C49.889,23.716,61.311,35.962,69.724,35.417z"/>
			<path fill="#231F20" d="M69.178,36.186L69.178,36.186c-4.667-0.001-10.083-3.535-13.172-8.597
				c-3.088-5.059-3.4-10.801-0.855-15.753c2.471-4.632,5.313-5.602,7.263-5.602c3.823,0,6.949,3.669,7.507,6.299
				c0.064,0.242,0.141,0.572,0.218,0.917c0.072,0.32,0.178,0.784,0.288,1.188c0.113-0.33,0.252-0.794,0.412-1.446
				c0.669-2.718,2.591-4.406,5.015-4.406c2.787,0,5.408,2.257,6.679,5.749c1.814,4.991-2.252,9.266-5.221,12.386
				c-0.795,0.836-1.545,1.625-2.103,2.332c-1.427,1.813-1.779,3.18-2.036,4.179c-0.409,1.586-0.792,2.565-3.399,2.733
				C69.575,36.179,69.378,36.186,69.178,36.186z M62.412,7.734c-2.208,0-4.26,1.659-5.934,4.797
				c-3.145,6.118-0.845,11.572,0.808,14.277c2.831,4.638,7.72,7.876,11.891,7.877h0.001c0.167,0,0.333-0.005,0.497-0.016
				c1.655-0.107,1.715-0.338,2.043-1.612c0.274-1.063,0.688-2.673,2.312-4.731c0.601-0.764,1.374-1.576,2.193-2.438
				c2.849-2.995,6.396-6.722,4.896-10.841c-1.052-2.892-3.119-4.761-5.269-4.761c-1.725,0-3.055,1.221-3.558,3.266
				c-0.602,2.437-1.083,3.26-1.911,3.261l0,0c-1.024,0-1.326-1.338-1.709-3.032c-0.073-0.324-0.145-0.637-0.213-0.899
				C68.011,10.761,65.438,7.734,62.412,7.734z"/>
		</g>
		<path fill="#FFFFFF" d="M57.752,11.602c-1.1,1.38-0.875,3.946,0.199,3.355c0.991-0.547,0.653-2.782,2.02-2.995
			c1.365-0.214,4.832,2.061,5.191,0.138C65.519,10.179,61.332,7.116,57.752,11.602z"/>
		<path fill="#77111A" d="M78.477,11.648c0,0-1.049-1.206-2.834-1.125c-1.782,0.083-3.055,1.504-3.1,3.718
			c-0.021,1.038-0.316,1.465-0.56,1.836c-0.571,0.878,0.333,1.64,1.117,0.59c0.783-1.048,0.357-2.449,1.415-2.895
			c1.061-0.444,2.298,0.144,2.856,0.608C77.93,14.847,80.916,13.833,78.477,11.648z"/>
		<path fill="#FFFFFF" d="M58.912,16.555c0,0,1.121,1.21,0.073,2.608c-1.042,1.398-2.491-0.179-1.729-1.71
			C58.021,15.92,58.912,16.555,58.912,16.555z"/>
	</g>
</g>
</svg>
