<?xml version="1.0" encoding="utf-8"?>
<!-- Generator: Adobe Illustrator 16.0.0, SVG Export Plug-In . SVG Version: 6.00 Build 0)  -->
<!DOCTYPE svg PUBLIC "-//W3C//DTD SVG 1.1//EN" "http://www.w3.org/Graphics/SVG/1.1/DTD/svg11.dtd">
<svg version="1.1" xmlns="http://www.w3.org/2000/svg" xmlns:xlink="http://www.w3.org/1999/xlink" x="0px" y="0px"
	 width="55.131px" height="45.312px" viewBox="0 0 55.131 45.312" enable-background="new 0 0 55.131 45.312" xml:space="preserve">
<g id="Layer_2">
</g>
<g id="Layer_1">
	<g>
		<path fill="#FFFFFF" d="M35,6.085c3.521,2.766,8.463,4.813,11.273,8.395c1.309,1.668,1.125,2.697,1.881,4.396
			c1.064,2.39,1.94,3.112,3.881,4.97c3.618,3.465,1.978,4.386,0.531,8.676c-1.408,4.17-2.427,6.394-6.188,9.476
			c-7.234,5.93-12.19,2.058-20.209,2.249c-3.815,0.091-6.963,1.73-10.536-0.89c-2.788-2.044-5.714-4.928-8.168-7.352
			c-3.392-3.347-7.141-7.905-6.938-12.782c0.236-5.64,6.524-8.272,9.551-12.263c6.098-8.039,16.004-16.784,24.114-5.78L35,6.085z"/>
		<path fill="#468885" d="M40.328,27.109c2.479-1.84,4.351-4.79,7.341-5.568c1.593-0.417,6.536-0.588,7.463,0.877
			c-1.492,1.549-4.091,4.294-5.874,5.385c-3.182,1.945-4.814,0.46-8.428-0.059L40.328,27.109z"/>
		<g>
			<path fill="#77111A" d="M19.674,36.013c0.928,1.908,2.27,3.375,4.063,4.044c4.793,1.787,7.432-5.337,11.302-5.506
				c9.651-0.423,7.599-9.245,7.467-12.024c-0.024-0.487-1.067-2-4.387-5.207c-3.104-3.002-5.113-4.801-7.66-4.947
				c-4.693-4.471-6.931-5.732-13.605-1.778c-7.067,4.188-7.789,22.401,0.076,25.333C17.93,36.3,18.832,36.271,19.674,36.013z"/>
			<g>
				<path fill="#BE1E2D" d="M27.491,32.8c1.452,3.708,9.69-0.14,10.851-3.809c1.866-5.898-5.129-11.854-10.176-11.195
					c-5.908,0.771-7.145,5.694-2.707,9.1c1.255,0.967,2.769,3.104,4.801,0.737c2.31-2.693-2.068-3.888-3.298-1.2
					c-1.51-0.861-0.966-3.521,0.914-4.17c1.613-0.559,5.503-0.014,5.934,3.188c0.84,6.257-7.509,1.813-7.074,6.399
					C26.766,32.189,27.491,32.8,27.491,32.8z"/>
				<path fill="#BE1E2D" d="M18.457,10.791c4.141,2.305-1.446,3.384-2.978,5.528c-1.414,1.983-1.152,13.689-4.552,9.978
					C6.059,20.983,15.745,9.28,18.457,10.791z"/>
				<path fill="#BE1E2D" d="M15.947,33.016c2.468,4.103,8.546,3.654,7.971,2.644c-5.725-10.039-1.902-19.063,3.604-19.434
					c4.104-0.277,7.689,0.33,12.331,6.675c0.392,0.534,1.407-0.285,1.676-0.874c2.244-4.93-9.029-12.689-14.461-12.765
					c-4.853-0.065-5.414,4.074-8.491,6.879c-2.854,2.602-5.598,3.555-0.864,6.803C17.712,22.943,12.41,27.131,15.947,33.016z"/>
				<path fill="#BE1E2D" d="M30.583,38.069c4.951,4.018,17.903-4.458,15.269-8.777c-3.106-5.092-5.271,1.77-7.413,3.693
					c-2.31,2.077-10.036,1.753-8.942,4.375C29.622,37.661,30.583,38.069,30.583,38.069z"/>
			</g>
		</g>
		<path fill="#468885" d="M4.682,11.163c6.87,1.918,6.16,9.071,10.24,13.857C8.57,27.699,3.257,21.207,1.026,16.028
			c3.586,0.059-2.608-5.373-0.624-6.498L4.682,11.163z"/>
	</g>
</g>
</svg>
