<?xml version="1.0" encoding="utf-8"?>
<!-- Generator: Adobe Illustrator 16.0.0, SVG Export Plug-In . SVG Version: 6.00 Build 0)  -->
<!DOCTYPE svg PUBLIC "-//W3C//DTD SVG 1.1//EN" "http://www.w3.org/Graphics/SVG/1.1/DTD/svg11.dtd">
<svg version="1.1" id="Layer_1" xmlns="http://www.w3.org/2000/svg" xmlns:xlink="http://www.w3.org/1999/xlink" x="0px" y="0px"
	 width="123.656px" height="117.806px" viewBox="0 0 123.656 117.806" enable-background="new 0 0 123.656 117.806"
	 xml:space="preserve">
<path fill="#998282" d="M4.572,69.328c-0.092,0.112-0.182,0.229-0.271,0.35c-1.221,1.677-1.702,3.747-1.353,5.837
	c0.54,3.207,2.832,5.582,5.799,6.212c-1.94,7.005-3.969,14.375-6.239,22.806c-0.79,2.799-0.325,5.948,1.276,8.64
	c1.588,2.669,4.067,4.506,6.984,5.176c0.107,0.024,0.211,0.047,0.311,0.065c0.154,0.043,0.3,0.08,0.436,0.11
	c0.798,0.188,1.62,0.283,2.441,0.283h0c5.293,0,10.156-3.986,11.056-8.985c2.038-10.526,3.689-19.411,5.274-27.958
	c0.199,0.662,0.438,1.246,0.746,1.88c2.557,16.242,4.172,23.366,11.166,23.366h1.317c1.155,0,2.28-0.219,3.269-0.776
	c0.167-0.012,0.392,0.021,0.684,0.021c0.976,0,1.939-0.194,2.822-0.608c3.297-1.546,6.125-3.318,8.515-5.157
	c1.153,3.409,3.281,6.52,7.664,6.52h0.878c0.384,0,0.765,0.039,1.143-0.028c1.603,2.482,3.957,4.327,7.436,4.327
	c0.288,0,0.576,0.002,0.861-0.035c5.273-0.689,9.343-1.597,12.401-2.79c4.561-0.832,7.895-2.264,10.004-4.309
	c1.101,0.545,2.292,0.835,3.445,0.835h1.757c1.823,0,3.566-0.764,4.822-2.086c2.669-2.811,4.022-5.836,4.022-8.977
	c0-0.082-0.001-0.168-0.004-0.25l-0.684-18.48c1.154-0.058,2.748-0.099,4.678-0.099c2.795,0,7.624-1.863,7.624-8.845v-1.318
	c0-1.313-0.486-2.595-1.213-3.687l-0.927-1.317c-1.239-1.859-3.344-2.962-5.556-2.962c-0.176,0-0.366,0.007-0.544,0.021l-8.874,0.71
	l-1.547-1.158c-1.189-0.892-2.592-1.329-3.988-1.329c-1.065,0-2.128,0.256-3.089,0.759c0.005-0.444,0-0.949-0.027-1.552
	l-0.005-0.217c-0.016-0.831-0.036-1.865-0.23-3.023c-0.405-2.424-1.873-4.822-2.987-6.116c-1.614-1.892-3.733-2.43-4.872-2.719
	l-0.083-0.019c-0.386-0.118-0.838-0.207-1.239-0.254c-0.376-0.043-0.728-0.068-1.082-0.068c-0.424,0-0.85,0.034-1.297,0.108
	c-1.436,0.243-2.525,0.827-3.11,1.142c0,0-0.198,0.104-0.232,0.121c-1.698,0.896-3.125,2.375-3.915,4.055
	c-0.04,0.086-0.079,0.172-0.115,0.259c-0.233,0.557-0.414,1.058-0.556,1.525c-0.315-0.338-0.646-0.669-1.002-0.991
	c-1.511-1.392-3.476-2.17-5.545-2.198c-1.086-0.588-2.344-0.915-3.694-0.915c-0.463,0-0.935,0.039-1.416,0.119
	c-1.675,0.284-3.12,0.997-4.236,2.005c-0.727,0.002-1.476,0.067-2.292,0.205c-1.528,0.256-3.784,0.857-5.892,2.289
	c-0.859,0.592-1.6,1.32-2.21,2.151c-1.739-1.581-3.896-2.24-5.874-2.24c-0.531,0-1.076,0.047-1.619,0.138
	c-0.627,0.104-1.198,0.257-1.707,0.424c-0.527-0.186-1.124-0.332-1.774-0.413c1.681-2.315,2.994-5.108,3.81-8.283
	c0.156-0.498,0.258-1.018,0.3-1.55c0.011-0.135,0.017-0.269,0.02-0.403c0.331-2.351,0.688-4.834,1.044-7.31
	c0.72-5.003,1.465-10.176,1.951-14.02c0.272-2.15,0.448-3.759,0.538-4.922c0.075-0.97,0.079-2.177-0.146-3.402
	c-0.118-0.836-0.385-1.63-0.781-2.358c-0.463-0.899-1.13-1.708-2.075-2.342c-0.68-0.487-1.458-0.836-2.313-1.059
	c-0.323-0.093-0.648-0.096-0.991-0.159c-0.417-0.076-0.844,0.01-1.269,0.01c-0.038,0-0.076,0-0.113,0
	c-0.509,0-1.087-0.598-1.742-0.752c-0.054-0.012-0.108-0.135-0.162-0.146c-0.212-0.056-0.429-0.113-0.664-0.158
	c-0.43-0.081-0.869-0.126-1.307-0.126c-0.071,0-0.141-0.002-0.209,0c-0.174-0.089-0.354-0.171-0.537-0.246
	c-0.432-0.186-0.883-0.329-1.348-0.424c-0.018-0.004-0.275-0.067-0.385-0.092c-0.516-0.119-1.049-0.18-1.579-0.18
	c-0.078,0-0.156,0.001-0.232,0.003c-0.589-0.312-1.225-0.541-1.889-0.675c-0.034-0.007-0.067-0.013-0.101-0.02
	c-0.153-0.04-0.309-0.078-0.471-0.115C30.938,1.061,30.404,1,29.877,1c-3.532,0-5.368,1.959-6.634,4.517
	c-3.189-2.485-7.125-3.595-11.006-2.702C11.56,2.972,10.918,3.2,10.293,3.462c0.073,0.952,0.204,1.914,0.428,2.881
	c1.188,5.16,4.324,9.262,8.223,11.456c-0.115,0.356-0.23,0.714-0.347,1.075c-1.415,4.383-3.012,9.333-4.456,13.489
	c-0.252,0.573-0.423,1.171-0.515,1.775c-1.4,6.821-0.076,13.102,3.439,17.386c-0.112,0.413-0.22,0.812-0.331,1.22
	c-0.434,0.016-0.798,0.057-1.032,0.085c-0.022,0.003-0.254,0.032-0.304,0.04c-0.699-0.245-1.503-0.408-2.411-0.408
	c-1.034,0-1.864,0.216-2.319,0.355c-1.798,0.523-3.052,1.362-3.927,2.281l-0.083,0.033c-1.075,0.428-3.313,1.317-4.724,3.701
	c-0.621,1.051-0.938,2.245-0.926,3.451c-0.002,0.407,0.029,0.83,0.093,1.209C1.63,66.637,3.079,68.372,4.572,69.328z M94.451,83.726
	c-0.385-0.684-0.876-1.266-1.45-1.751c0.56-0.533,1.026-1.11,1.391-1.739L94.451,83.726z M50.177,83.585
	c-0.195,0.639-0.506,1.282-0.99,1.921c-0.116-0.57-0.24-1.19-0.369-1.864c0.314-0.028,0.655-0.055,1.023-0.079
	C49.963,83.565,50.074,83.573,50.177,83.585z"/>
<g>
	<g>
		<path fill="#FFFFFF" d="M12.957,117.806c-0.821,0-1.643-0.095-2.441-0.283c-0.136-0.03-0.282-0.067-0.436-0.11
			c-0.1-0.019-0.203-0.041-0.311-0.065c-2.917-0.67-5.396-2.507-6.984-5.176c-1.602-2.691-2.066-5.84-1.276-8.64
			c2.886-10.72,5.386-19.734,7.804-28.452c2.117-7.632,4.296-15.49,6.751-24.556c-3.515-4.285-4.839-10.565-3.439-17.386
			c0.092-0.605,0.263-1.203,0.515-1.776c1.444-4.156,3.042-9.106,4.456-13.489c1.141-3.535,2.219-6.874,3.058-9.307
			C22.105,4.355,23.607,0,28.877,0c0.527,0,1.061,0.061,1.574,0.178c0.162,0.037,0.317,0.075,0.471,0.115
			c0.033,0.006,0.067,0.013,0.101,0.02c0.664,0.133,1.299,0.362,1.889,0.674c0.077-0.002,0.154-0.002,0.232-0.002
			c0.53,0,1.063,0.061,1.579,0.18c0.11,0.025,0.367,0.088,0.385,0.091c0.464,0.095,0.916,0.238,1.348,0.424
			c0.184,0.075,0.363,0.156,0.537,0.245c0.069-0.001,0.139-0.002,0.209-0.002c0.438,0,0.876,0.042,1.307,0.123l0,0
			c0.235,0.044,0.452,0.095,0.664,0.15c0.054,0.011,0.108,0.023,0.162,0.036c0.385,0.091,0.999,0.274,1.679,0.628
			c0.058-0.001,0.117-0.001,0.177-0.001c0.424,0,0.851,0.039,1.269,0.115c0.342,0.063,0.668,0.145,0.991,0.239
			c1.058,0.275,1.998,0.78,2.779,1.448c0.662,0.541,1.273,1.265,1.736,2.233c0.266,0.539,0.463,1.113,0.583,1.709
			c0.24,1.057,0.333,2.315,0.217,3.814c-0.09,1.163-0.266,2.773-0.538,4.922c-0.486,3.844-1.231,9.018-1.951,14.021
			c-0.356,2.475-0.714,4.959-1.044,7.311c-0.003,0.134-0.009,0.269-0.02,0.403c-0.042,0.533-0.144,1.052-0.3,1.55
			c-1.345,5.229-4.021,9.445-7.507,12.149c-0.813,1.173-1.974,2.086-3.333,2.588c-1.698,8.869-3.137,16.626-4.536,24.166
			c-1.661,8.958-3.379,18.22-5.522,29.294C23.114,113.82,18.25,117.806,12.957,117.806L12.957,117.806z"/>
		<path fill="#FFFFFF" d="M17.141,107.491c4.27-22.059,6.739-36.334,11.008-58.394c4.878-0.158,8.665-4.687,10.072-10.575
			c0.005,0,0.008-0.001,0.013,0.002c0.003-0.037-0.026,0.033-0.026-0.002c0.007-0.019-0.025,0.062-0.025,0.062l-0.006-0.002
			c1.693-12.119,4.214-28.347,3.563-28.495c-0.028-0.006-0.045-0.023-0.083,0.031l0.029-0.133c-0.166-0.041-0.314-0.096-0.492-0.128
			c-0.388-0.071-4.12,16.323-6.9,27.601l-0.979-0.229c1.867-11.473,5.074-28.029,4.422-28.183c-0.006-0.001-0.013,0.008-0.02,0.009
			c-0.168-0.047-0.325-0.097-0.511-0.132c-0.408-0.092-4.617,16.221-7.735,27.414l-1.079-0.251
			c2.074-10.64,5.47-25.677,5.384-27.733l0.042-0.188c-0.03-0.009-0.063-0.017-0.093-0.025c-0.008-0.008-0.013-0.023-0.021-0.025
			c-0.008-0.002-0.019,0.01-0.028,0.013c-0.171-0.049-0.339-0.099-0.524-0.141c-0.529-0.122-5.228,16.088-8.734,27.184v0.001
			l-0.981-0.227c2.503-10.905,6.556-26.463,6.26-27.687l0.009-0.042c-0.012-0.003-0.023-0.006-0.035-0.01
			c-0.008-0.01-0.014-0.027-0.023-0.029s-0.022,0.011-0.033,0.015c-0.241-0.065-0.462-0.13-0.725-0.189
			c-0.651-0.149-5.432,16.058-9.274,27.063c0,0-0.001,0.004-0.003,0.008c-0.017,0.047-0.069,0.121-0.068,0.122
			c0,0,0.012,0.004,0.016,0.005c-1.313,5.897,0.098,11.643,4.406,13.925c-5.837,21.699-9.877,35.618-15.717,57.312
			c-0.496,1.757,0.705,4.552,3.104,5.094c0.097,0.023,0.19,0.018,0.286,0.032c0.155,0.059,0.314,0.111,0.481,0.148
			C14.51,111.271,16.817,109.287,17.141,107.491z"/>
	</g>
	<g>
		<g>
			<g>
				<path fill="#FFFFFF" d="M41.199,106.273c-6.993,0-8.608-7.206-11.166-23.448c-0.989-2.042-1.333-4.396-1.561-5.951
					c-0.143-0.971-0.068-1.961,0.218-2.899c2.037-6.69,10.478-7.905,19.296-8.222c0.08-0.003,0.159-0.004,0.239-0.004
					c0.189,0,0.379,0.008,0.568,0.024c16.585,1.422,18.376,12.17,18.376,16.725c0,9.215-6.015,16.708-17.879,22.269
					c-0.883,0.414-1.846,0.628-2.822,0.628c-0.292,0-0.517,0.008-0.684,0.019c-0.989,0.558-2.113,0.859-3.269,0.859H41.199z
					 M47.818,82.641c0.129,0.675,0.253,1.295,0.369,1.865c0.484-0.638,0.794-1.283,0.99-1.921c-0.103-0.011-0.214-0.019-0.336-0.022
					C48.473,82.587,48.133,82.613,47.818,82.641z"/>
				<path fill="#FFFFFF" d="M65.47,106.273c-6.906,0-8.222-7.899-8.93-12.143c-0.774-4.643-1.459-11.313-2.094-20.39
					c-0.167-2.382,0.957-4.67,2.942-5.995l1.317-0.879c1.093-0.729,2.376-1.118,3.69-1.118h1.317c6.915,0,8.275,7.865,8.857,11.224
					c0.694,4.012,1.252,9.711,1.706,17.411l0.348,1.742c0.264,1.315,0.123,2.68-0.404,3.914c-1.449,3.396-3.604,5.438-6.407,6.071
					c-0.48,0.108-0.972,0.163-1.464,0.163H65.47z"/>
				<path fill="#FFFFFF" d="M74.926,110.449c-3.605,0-8.293-2.021-10.151-11.646c-0.894-4.631-1.328-11.184-1.328-20.033
					c0-9.289,12.849-10.587,21.351-11.446c0.223-0.022,0.446-0.034,0.668-0.034c0.55,0,1.1,0.068,1.635,0.204
					c6.506,1.65,7.209,5.978,7.209,7.762v0.439c0,2.208-0.776,3.904-2.267,5.315c1.346,1.156,2.267,2.82,2.267,5.225
					c0,0.815-0.103,1.551-0.305,2.222c1.365,0.223,2.637,0.869,3.627,1.86l1.317,1.317c1.247,1.247,1.947,2.938,1.947,4.701v0.438
					c0,5.641-4.274,9.278-12.708,10.82c-3.058,1.192-7.127,2.11-12.401,2.799C75.501,110.431,75.214,110.449,74.926,110.449z"/>
				<path fill="#FFFFFF" d="M101.638,104.078c-3.436,0-7.214-2.327-7.907-7.526c-0.034-0.254-0.053-0.51-0.058-0.767l-0.321-18.938
					l-5.714,0.424c-0.164,0.012-0.328,0.018-0.492,0.018h-0.878c-3.794,0-7.065-2.106-8.974-5.779
					c-0.492-0.947-0.749-1.999-0.749-3.066c0-1.527,0.553-6.646,7.671-8.426c2.308-0.577,5.421-0.857,9.518-0.857
					c0.035,0,0.069,0,0.103,0c0.258-0.404,0.561-0.782,0.905-1.126l1.756-1.756c1.289-1.289,2.991-1.947,4.703-1.947
					c1.396,0,2.798,0.438,3.987,1.329l1.544,1.158l8.868-0.71c0.178-0.014,0.355-0.021,0.532-0.021c2.211,0,4.292,1.103,5.532,2.961
					l0.878,1.317c0.728,1.092,1.116,2.375,1.116,3.687v1.318c0,6.981-4.731,8.844-7.526,8.844c-1.93,0-3.426,0.04-4.58,0.097
					l0.684,18.479c0.003,0.082,0.004,0.164,0.004,0.246c0,3.14-1.353,6.158-4.022,8.969c-1.255,1.322-2.999,2.071-4.822,2.071
					H101.638z"/>
			</g>
			<g>
				<path fill="#FFFFFF" d="M13.611,80.944c-0.485,0-0.962-0.044-1.417-0.131c-0.241-0.043-0.478-0.099-0.709-0.165
					c-0.142,0.029-0.283,0.056-0.422,0.08c-0.629,0.105-1.193,0.156-1.726,0.156c-0.735,0-1.446-0.099-2.115-0.294
					c-2.74-0.795-4.748-3.118-5.247-6.079c-0.385-2.305,0.249-4.505,1.636-6.189c-1.636-1.063-3.023-2.919-3.513-5.839
					c-0.132-0.808-0.13-1.6,0.001-2.378c0.135-0.795,0.414-1.56,0.822-2.256c0.858-1.461,2.182-2.6,3.934-3.384
					c0.045-0.02,0.971-0.411,0.971-0.411c0.855-0.879,2.068-1.7,3.785-2.22c0.049-0.015,0.099-0.029,0.149-0.043
					c0.733-0.204,1.476-0.307,2.207-0.307c0.834,0,1.641,0.13,2.411,0.387c0.086-0.014,0.173-0.026,0.261-0.037
					c0.598-0.072,1.084-0.105,1.531-0.105c0.115,0,0.319,0.005,0.434,0.011c0.062,0.003,0.123,0.007,0.184,0.012
					c1.889,0.15,3.655,0.973,4.974,2.317c0.25,0.255,0.48,0.53,0.686,0.822c0.911,1.291,1.11,2.478,1.302,3.625
					c0.383,2.264-0.314,4.432-1.836,6.046c2.237,1.102,3.781,3.249,4.058,5.909c0.383,3.147-1.209,6.93-5.769,8.306
					c-0.215,0.065-0.434,0.119-0.655,0.162l-0.067,0.013c-1.022,0.877-2.37,1.54-4.063,1.823
					C14.738,80.891,14.162,80.944,13.611,80.944z"/>
				<path fill="#FFFFFF" d="M30.224,78.649c-0.771,0-1.55-0.063-2.315-0.188c-2.362-0.413-4.348-1.62-5.821-3.501
					c-0.03-0.038-0.059-0.076-0.088-0.115c-1.021-1.365-1.688-2.94-1.981-4.68c-0.362-2.159-0.165-4.175,0.587-5.996
					c-0.06-0.227-0.11-0.458-0.149-0.694c-0.375-2.247-0.058-4.602,0.944-7.007c0.808-1.864,2.169-3.317,3.974-4.294
					c1.262-0.661,2.28-1.11,3.421-1.3c0.42-0.072,0.874-0.11,1.325-0.11c0.581,0,1.166,0.063,1.74,0.188
					c0.131,0.029,0.262,0.061,0.392,0.098c0,0,1.082,0.305,1.126,0.318c1.558,0.474,2.778,1.19,3.729,2.189
					c0.072,0.076,0.143,0.153,0.211,0.232c1.638,1.892,2.654,3.962,3.021,6.155c0.124,0.728,0.193,1.687,0.235,3.291
					c0.004,0.135,0.003,0.27-0.001,0.405c-0.014,0.394-0.025,0.922-0.034,1.585c0.594,0.865,1.001,1.868,1.183,2.958
					c0.349,2.066-0.107,4.112-1.285,5.749c-0.479,0.677-1.03,1.169-1.646,1.692c-0.028,0.024-0.056,0.047-0.084,0.07
					c-1.757,1.444-3.804,2.371-6.084,2.753C31.829,78.581,31.021,78.649,30.224,78.649z"/>
				<path fill="#FFFFFF" d="M38.348,77.076c-1.139,0-2.247-0.251-3.293-0.747c-0.464-0.22-0.899-0.492-1.297-0.808
					c-1.811-1.153-2.978-3.132-3.07-5.329c-0.044-1.044-0.155-2.104-0.33-3.149c-0.108-0.644-0.366-1.903-0.972-4.211
					c-0.628-2.371-1.039-4.089-1.252-5.24l-0.024-0.14c-0.387-2.111,0.044-4.199,1.218-5.886c1.203-1.73,3.094-2.889,5.325-3.263
					c0.682-0.115,1.291-0.17,1.861-0.17c0.787,0,1.543,0.108,2.249,0.323c0.341,0.103,0.671,0.233,0.988,0.388
					c0.117-0.005,0.234-0.008,0.352-0.008c0.945,0,1.885,0.166,2.81,0.495c0.598-0.207,1.157-0.351,1.704-0.442
					c0.533-0.089,1.075-0.135,1.603-0.135c3.515,0,7.995,2.238,9.051,8.545c0.607,3.619,0.883,6.464,0.843,8.694
					c-0.001,0.498-0.036,1.236-0.105,2.166c-0.021,0.288-0.061,0.575-0.12,0.857c-0.616,2.981-2.967,5.164-6.137,5.696
					c-0.424,0.071-0.85,0.106-1.272,0.106c-1.172,0-2.319-0.261-3.411-0.776c-0.081-0.037-0.161-0.076-0.24-0.116
					c-0.215,0.24-0.45,0.466-0.705,0.678c-1.174,0.975-2.589,2.042-4.514,2.367C39.187,77.041,38.766,77.076,38.348,77.076z"/>
				<path fill="#FFFFFF" d="M61.762,68.993c-2.412,0-4.734-0.719-6.9-2.136c-2.365-1.506-3.984-4.021-4.492-7.038
					c-1.078-6.427,1.996-9.628,3.923-10.965c1.707-1.163,3.681-1.928,5.912-2.302c0.831-0.14,1.596-0.207,2.341-0.207
					c4.117,0,6.318,2.138,7.264,3.413c1.523,2.017,2.51,4.249,2.903,6.591c0.685,4.084-0.659,7.8-3.69,10.208
					c-1.434,1.16-3.208,1.923-5.273,2.271C63.09,68.937,62.422,68.993,61.762,68.993z"/>
				<path fill="#FFFFFF" d="M69.771,71.604c-3.581,0-6.535-2.388-7.351-5.943c-0.033-0.146-0.062-0.292-0.085-0.439l-0.687-4.093
					c-0.045-0.266-0.14-0.747-0.343-1.535c-0.342-1.276-0.601-2.435-0.777-3.482c-0.099-0.592-0.16-1.071-0.19-1.504
					c-0.016-0.178-0.037-0.351-0.065-0.519l-0.132-0.785c-0.728-4.372,2.113-8.21,6.603-8.963c0.488-0.082,0.977-0.124,1.45-0.124
					c1.344,0,2.598,0.33,3.679,0.922c2.081,0.036,4.037,0.817,5.532,2.21c2.485,2.285,4.085,5.201,4.629,8.436
					c0.082,0.488,0.176,1.206,0.281,2.165c0.068,0.631,0.127,1.101,0.179,1.414c0.04,0.236,0.078,0.458,0.118,0.664
					c0.011,0.029,0.023,0.061,0.035,0.093c0.277,0.74,0.453,1.366,0.557,1.983c0.73,4.361-2.049,8.205-6.465,8.946
					c-0.449,0.075-0.898,0.113-1.341,0.113c-0.754,0-1.486-0.109-2.181-0.317c-0.65,0.301-1.356,0.521-2.105,0.646
					C70.671,71.565,70.217,71.604,69.771,71.604z"/>
				<path fill="#FFFFFF" d="M87.765,68.998c-0.772,0-1.551-0.063-2.317-0.188c-2.363-0.413-4.349-1.62-5.821-3.503
					c-0.027-0.035-0.054-0.069-0.08-0.104c-1.028-1.369-1.697-2.95-1.989-4.698c-0.361-2.151-0.164-4.167,0.588-5.989
					c-0.061-0.23-0.111-0.465-0.151-0.705c-0.375-2.23-0.058-4.587,0.944-6.994c0.015-0.035,0.029-0.07,0.044-0.104
					c0.771-1.766,2.13-3.214,3.929-4.189c0.029-0.016,0.059-0.032,0.088-0.047c1.178-0.615,2.196-1.063,3.334-1.253
					c0.432-0.072,0.879-0.109,1.323-0.109c0.581,0,1.167,0.063,1.742,0.188c0.128,0.028,0.256,0.06,0.383,0.095
					c0,0,1.089,0.306,1.139,0.321c1.557,0.475,2.775,1.191,3.725,2.188c0.072,0.076,0.143,0.153,0.211,0.232
					c1.635,1.888,2.651,3.957,3.02,6.148c0.125,0.752,0.194,1.706,0.236,3.297c0.004,0.138,0.003,0.275-0.002,0.413
					c-0.014,0.393-0.025,0.919-0.034,1.579c0.595,0.866,1.001,1.868,1.183,2.957c0.348,2.061-0.104,4.103-1.276,5.737
					c-0.491,0.695-1.067,1.207-1.662,1.711c-1.833,1.508-3.879,2.434-6.16,2.818C89.366,68.93,88.56,68.998,87.765,68.998z"/>
			</g>
		</g>
		<g>
			<g>
				<path fill="#6F8412" d="M48.226,72.397c8.197,0.703,12.296,4.069,12.296,10.101c0,6.441-4.685,11.857-14.053,16.249
					c-2.05,0-3.367,0.292-3.952,0.878h-1.317c-1.211,0-2.821-6.44-4.831-19.322c-0.449,0-0.889-1.464-1.317-4.392
					C35.675,73.861,40.066,72.69,48.226,72.397z M40.32,78.546c1.679,9.778,2.996,15.048,3.953,15.81h0.878
					c7.319-2.908,10.979-7.593,10.979-14.053v-0.439c-1.718-2.635-4.206-3.952-7.466-3.952C43.102,76.262,40.32,77.141,40.32,78.546
					z"/>
				<path fill="#6F8412" d="M62.396,72.397h1.317c1.757,0,3.074,7.612,3.952,22.836l0.439,2.196
					c-0.566,1.327-1.151,2.059-1.757,2.195H65.47c-1.698,0-3.162-8.783-4.392-26.349L62.396,72.397z"/>
				<path fill="#6F8412" d="M85.466,73.938c1.463,0.371,2.195,0.811,2.195,1.317v0.439c0,1.074-4.245,2.83-12.735,5.27v3.953
					l0.439,0.438v0.439l7.026-0.878c3.513,0.215,5.27,0.653,5.27,1.317c0,0.78-4.099,2.244-12.296,4.392v0.438
					c0,5.271,0.878,7.905,2.635,7.905h0.438c3.006,0,7.251-1.317,12.736-3.952h1.756l1.317,1.317v0.438
					c0,2.069-2.635,3.533-7.904,4.392c-2.537,1.093-6.344,1.972-11.418,2.635c-3.221,0-4.831-8.344-4.831-25.031
					C70.095,76.584,75.219,74.974,85.466,73.938z"/>
				<path fill="#6F8412" d="M101.198,60.98l3.514,2.635h0.439l10.979-0.879l0.878,1.317v1.318c0,1.464-0.293,2.195-0.878,2.195
					c-7.612,0-11.418,0.586-11.418,1.757l0.878,23.714c0,1.386-0.731,2.85-2.195,4.392h-1.757c-0.723,0-1.161-0.586-1.317-1.757
					l-0.439-25.91h-0.878l-11.857,0.879h-0.878c-1.288,0-2.313-0.732-3.074-2.196c0-1.756,3.514-2.635,10.54-2.635
					c3.806,0,5.709-1.024,5.709-3.074L101.198,60.98z"/>
			</g>
			<g>
				<path fill="#6F8412" d="M14.322,74.219c-0.433,0.073-0.727,0.094-0.88,0.064c-0.269-0.048-0.428-0.226-0.479-0.533
					c-0.024-0.145-0.109-0.212-0.256-0.207c0.146-0.005,0.005,0.026-0.426,0.099c-0.665,0.111-1.158,0.218-1.483,0.319
					c-0.323,0.102-0.604,0.172-0.836,0.211c-0.432,0.072-0.725,0.083-0.881,0.035c-0.289-0.081-0.473-0.348-0.549-0.8
					c-0.111-0.667,0.255-1.137,1.101-1.408c0.611-0.122,1.231-0.245,1.86-0.369c0.424-0.127,0.811-0.312,1.16-0.557
					c-0.019-0.664-0.084-1.332-0.196-2c-0.097-0.578-0.302-1.574-0.613-2.989s-0.514-2.403-0.607-2.962
					c-0.015-0.09-0.034-0.207-0.06-0.353c-0.026-0.161-0.047-0.279-0.059-0.352c-0.058-0.343-0.258-0.486-0.598-0.429
					c-0.251,0.042-0.73,0.183-1.438,0.422c-0.706,0.24-1.186,0.381-1.437,0.423c-0.484,0.081-0.814-0.402-0.99-1.45
					c-0.009-0.054-0.01-0.109,0-0.167c0.145-0.246,0.451-0.474,0.918-0.683c0.365-0.154,0.73-0.308,1.096-0.462
					c0.036-0.006,0.374-0.1,1.014-0.282c0.371-0.118,0.601-0.36,0.688-0.727s0.478-0.655,1.168-0.864
					c0.338-0.094,0.618-0.086,0.843,0.025c0.103,0.057,0.327,0.233,0.674,0.527c0.178,0.175,0.439,0.233,0.783,0.176
					c0.163-0.027,0.429-0.11,0.797-0.246c0.368-0.136,0.634-0.217,0.798-0.244c0.382-0.046,0.658-0.064,0.828-0.056
					c0.301,0.024,0.553,0.139,0.756,0.346c0.023,0.033,0.083,0.33,0.177,0.889c0.046,0.271-0.156,0.509-0.604,0.715
					c-0.325,0.166-0.66,0.277-1.002,0.334c-0.234,0.04-0.572,0.074-1.014,0.101c-0.44,0.027-0.771,0.059-0.987,0.095
					c-0.126,0.021-0.245,0.112-0.358,0.27c-0.112,0.158-0.164,0.297-0.153,0.416s0.045,0.35,0.103,0.693
					c0.112,0.668,0.381,1.882,0.806,3.64c0.425,1.757,0.694,2.979,0.81,3.665c0.009,0.055,0.025,0.153,0.05,0.298
					s0.043,0.254,0.055,0.325c0.061,0.362,0.326,0.613,0.796,0.757c0.201-0.015,0.532-0.089,0.993-0.222
					c0.536-0.125,0.92-0.209,1.155-0.249c0.976-0.163,1.482,0.095,1.523,0.775c0.107,0.539-0.252,0.934-1.082,1.185
					c-0.685,0.133-1.377,0.268-2.078,0.404c-0.568,0.151-0.857,0.395-0.866,0.73S14.991,74.107,14.322,74.219z"/>
				<path fill="#6F8412" d="M28.632,64.549c0.198-0.033,0.505-0.062,0.919-0.085c0.414-0.023,0.721-0.05,0.92-0.084
					c1.191-0.2,1.701-0.815,1.528-1.845c-0.049-0.288-0.252-0.894-0.611-1.819c-0.115-0.351-0.471-0.7-1.066-1.046
					c-0.124-0.072-0.24-0.099-0.349-0.081c-0.108,0.019-0.209,0.082-0.302,0.19c-0.431,0.425-0.659,0.778-0.686,1.062
					c-0.006,0.41-0.011,0.828-0.012,1.255c-0.025,0.191-0.147,0.368-0.371,0.536c-0.222,0.167-0.442,0.269-0.659,0.305
					c-0.541,0.091-0.852-0.098-0.931-0.568c-0.166-0.993,0.01-2.109,0.525-3.347c0.174-0.4,0.508-0.736,1.002-1.003
					c0.682-0.356,1.132-0.552,1.349-0.588c0.181-0.031,0.367-0.025,0.561,0.017c0.331,0.093,0.662,0.186,0.993,0.279
					c0.432,0.131,0.714,0.271,0.85,0.414c0.829,0.958,1.326,1.923,1.489,2.899c0.067,0.396,0.115,1.188,0.146,2.37
					c-0.028,0.822-0.049,2.2-0.059,4.132c0.013,0.406,0.186,0.758,0.521,1.054c0.146,0.069,0.302,0.145,0.468,0.228
					c0.167,0.083,0.27,0.234,0.306,0.451c0.055,0.324,0.014,0.582-0.123,0.772c-0.045,0.063-0.23,0.234-0.557,0.512
					c-0.852,0.7-1.839,1.144-2.962,1.332c-0.852,0.143-1.698,0.146-2.542,0.008c-0.652-0.114-1.204-0.46-1.655-1.037
					c-0.384-0.513-0.633-1.114-0.749-1.803c-0.155-0.925-0.093-1.717,0.187-2.378c0.216-0.484,0.365-0.808,0.45-0.97
					c0.197-0.369,0.423-0.63,0.675-0.785C28.202,64.706,28.451,64.58,28.632,64.549z M28.636,68.559
					c0.027,0.163,0.092,0.375,0.19,0.638c0.327,0.836,0.878,1.189,1.654,1.059c0.922-0.154,1.456-0.504,1.606-1.049
					c-0.013-0.072-0.061-0.167-0.145-0.282c-0.085-0.116-0.135-0.219-0.149-0.31c-0.037-0.217-0.032-0.551,0.013-1.004
					c0.044-0.455,0.049-0.789,0.013-1.005c-0.091-0.542-0.407-0.768-0.95-0.677c-0.072,0.012-0.18,0.03-0.324,0.055
					c-0.146,0.024-0.254,0.042-0.325,0.055c-0.597,0.1-1.034,0.396-1.313,0.889C28.626,67.419,28.536,67.964,28.636,68.559z"/>
				<path fill="#6F8412" d="M36.832,54.817c0.093,0.115,0.158,0.281,0.194,0.498c0.024,0.145,0.036,0.352,0.035,0.621
					c-0.001,0.27,0.008,0.467,0.029,0.594c0.027,0.161,0.096,0.234,0.203,0.216c0.199-0.034,0.598-0.235,1.194-0.604
					c0.598-0.369,1.067-0.584,1.411-0.641c0.434-0.073,0.958,0.095,1.574,0.503c0.615,0.408,1.023,0.593,1.222,0.56
					c0.253-0.042,0.719-0.222,1.399-0.541c0.681-0.318,1.219-0.511,1.616-0.577c1.626-0.273,2.626,0.711,3.001,2.95
					c0.533,3.179,0.785,5.671,0.753,7.478c-0.002,0.428-0.031,1.027-0.088,1.797c-0.052,0.25-0.293,0.412-0.727,0.484
					c-0.234,0.039-0.483-0.002-0.745-0.126c-0.442-0.204-0.723-0.659-0.841-1.363c-0.127-0.759-0.171-1.874-0.131-3.349
					c0.041-1.473,0.002-2.562-0.116-3.267c-0.16-0.956-0.451-1.8-0.87-2.528c-0.156-0.271-0.353-0.386-0.587-0.347
					c-0.217,0.036-0.463,0.199-0.74,0.486c-0.276,0.289-0.452,0.541-0.527,0.757c-0.051,0.138-0.064,0.28-0.04,0.424
					c0.04,0.235,0.181,0.559,0.428,0.973c0.246,0.414,0.388,0.739,0.428,0.973c0.058,0.344-0.045,0.648-0.307,0.915
					c-0.261,0.267-0.564,0.429-0.907,0.487c-0.162,0.027-0.307-0.005-0.433-0.094c-0.374-0.235-0.706-0.718-0.995-1.449
					c-0.384-0.957-0.627-1.52-0.729-1.688c-0.712-1.031-1.356-1.5-1.935-1.402c-0.397,0.067-0.734,0.323-1.012,0.768
					c-0.279,0.446-0.438,0.887-0.476,1.32c-0.054,0.678-0.026,1.332,0.079,1.963c0.063,0.38,0.194,0.942,0.395,1.689
					c0.199,0.746,0.333,1.318,0.399,1.715c0.036,0.217,0.093,0.551,0.168,1.003c0.076,0.451,0.132,0.786,0.168,1.003
					c0.021,0.126,0.052,0.307,0.091,0.541c0.043,0.253,0.074,0.442,0.096,0.569c0.012,0.072,0.032,0.189,0.06,0.353
					c0.026,0.161,0.048,0.288,0.063,0.378c0.042,0.254,0.122,0.462,0.243,0.628c-0.7,0.581-1.159,0.891-1.376,0.928
					c-0.198,0.033-0.398,0.001-0.601-0.094c-0.082-0.154-0.271-0.289-0.569-0.407c-0.056-1.328-0.194-2.65-0.415-3.968
					c-0.194-1.155-0.562-2.756-1.099-4.802c-0.584-2.205-0.966-3.793-1.146-4.766l-0.019-0.108c-0.151-0.791,0.216-1.261,1.101-1.41
					C36.276,54.772,36.636,54.758,36.832,54.817z"/>
				<path fill="#6F8412" d="M61.306,53.109c1.607-0.27,2.663-0.067,3.166,0.611c0.908,1.203,1.47,2.445,1.685,3.728
					c0.288,1.717-0.144,3.023-1.292,3.921c-0.539,0.444-1.278,0.744-2.217,0.901c-1.409,0.236-2.79-0.089-4.146-0.977
					c-0.853-0.543-1.377-1.402-1.574-2.576c-0.36-2.148,0.024-3.616,1.155-4.4C58.948,53.727,60.022,53.324,61.306,53.109z
					 M60.318,55.029c-0.56,0.094-0.909,0.33-1.05,0.708c-0.229,0.747-0.281,1.483-0.159,2.21c0.14,0.835,0.56,1.505,1.257,2.014
					c0.698,0.508,1.462,0.692,2.293,0.553c1.102-0.185,1.538-0.958,1.31-2.319c-0.103-0.616-0.34-1.305-0.707-2.065
					c-0.476-0.946-1.082-1.356-1.823-1.232c-0.126,0.021-0.313,0.043-0.56,0.066S60.444,55.007,60.318,55.029z"/>
				<path fill="#6F8412" d="M67.843,50.897c0.687-0.115,1.072,0.082,1.156,0.586c0.019,0.108,0.022,0.275,0.015,0.499
					c-0.009,0.225-0.005,0.392,0.014,0.5c0.214-0.054,0.593-0.174,1.138-0.358c0.457-0.151,0.83-0.251,1.119-0.3
					c0.669-0.112,1.201,0.021,1.6,0.4c1.426,1.303,2.29,2.857,2.594,4.663c0.066,0.397,0.142,0.993,0.229,1.786
					c0.086,0.792,0.164,1.388,0.23,1.786c0.085,0.506,0.168,0.957,0.254,1.35c0.039,0.123,0.117,0.343,0.235,0.656
					c0.118,0.315,0.191,0.563,0.222,0.743c0.121,0.723-0.216,1.151-1.01,1.284c-0.596,0.1-1.011-0.156-1.242-0.767
					c-0.063-0.156-0.174-0.695-0.328-1.616c-0.069-0.415-0.152-1.047-0.248-1.894c-0.095-0.848-0.178-1.479-0.248-1.895
					c-0.209-1.247-0.721-2.534-1.538-3.864c-0.356-0.571-0.688-0.832-0.994-0.78c-0.325,0.055-0.658,0.176-0.998,0.362
					c-0.425,0.238-0.633,0.487-0.628,0.746c0.018,0.759,0.111,1.652,0.283,2.682c0.085,0.505,0.24,1.259,0.463,2.262
					c0.224,1.003,0.378,1.757,0.463,2.262c0.182,1.084,0.27,1.82,0.262,2.212s-0.297,0.635-0.867,0.73
					c-0.605,0.102-0.978-0.152-1.117-0.76c0.004,0.019-0.229-1.362-0.695-4.145c-0.097-0.577-0.251-1.276-0.462-2.094
					c-0.3-1.12-0.52-2.096-0.659-2.926c-0.063-0.38-0.103-0.678-0.116-0.9c-0.031-0.384-0.077-0.757-0.138-1.119
					c-0.015-0.09-0.038-0.226-0.068-0.407c-0.03-0.18-0.053-0.315-0.068-0.406C66.575,51.472,66.958,51.045,67.843,50.897z"/>
				<path fill="#6F8412" d="M86.172,54.898c0.198-0.033,0.505-0.062,0.919-0.084c0.413-0.023,0.72-0.05,0.919-0.084
					c1.191-0.2,1.702-0.815,1.529-1.845c-0.049-0.288-0.253-0.895-0.611-1.819c-0.115-0.351-0.471-0.7-1.067-1.046
					c-0.123-0.073-0.239-0.1-0.348-0.081c-0.108,0.018-0.209,0.081-0.302,0.19c-0.431,0.425-0.659,0.778-0.686,1.062
					c-0.006,0.41-0.011,0.828-0.012,1.255c-0.025,0.191-0.147,0.368-0.371,0.536c-0.222,0.168-0.442,0.269-0.659,0.305
					c-0.541,0.091-0.852-0.098-0.93-0.567c-0.167-0.993,0.008-2.109,0.523-3.348c0.175-0.4,0.509-0.736,1.002-1.003
					c0.683-0.356,1.133-0.553,1.35-0.589c0.181-0.03,0.367-0.024,0.561,0.018c0.331,0.093,0.661,0.186,0.993,0.279
					c0.431,0.131,0.714,0.271,0.85,0.414c0.829,0.958,1.325,1.923,1.489,2.899c0.066,0.396,0.115,1.188,0.146,2.37
					c-0.029,0.822-0.049,2.2-0.059,4.132c0.013,0.406,0.186,0.758,0.52,1.055c0.146,0.069,0.303,0.144,0.469,0.228
					s0.269,0.234,0.305,0.451c0.055,0.324,0.014,0.583-0.122,0.772c-0.045,0.063-0.229,0.234-0.557,0.512
					c-0.852,0.7-1.839,1.144-2.963,1.333c-0.852,0.143-1.698,0.145-2.542,0.007c-0.652-0.114-1.203-0.459-1.654-1.037
					c-0.385-0.513-0.634-1.114-0.749-1.803c-0.155-0.925-0.093-1.717,0.186-2.378c0.217-0.484,0.366-0.807,0.451-0.97
					c0.197-0.368,0.423-0.63,0.675-0.785C85.742,55.055,85.991,54.929,86.172,54.898z M86.176,58.908
					c0.027,0.163,0.091,0.375,0.19,0.638c0.326,0.836,0.878,1.189,1.654,1.059c0.922-0.155,1.455-0.504,1.606-1.05
					c-0.013-0.072-0.062-0.167-0.146-0.282s-0.134-0.219-0.148-0.31c-0.037-0.217-0.032-0.551,0.012-1.004
					c0.045-0.454,0.05-0.789,0.014-1.005c-0.092-0.542-0.408-0.768-0.95-0.677c-0.072,0.013-0.18,0.03-0.324,0.055
					c-0.146,0.024-0.254,0.042-0.325,0.055c-0.597,0.1-1.034,0.396-1.313,0.889C86.166,57.768,86.076,58.313,86.176,58.908z"/>
			</g>
		</g>
		<g>
			<g>
				<path fill="#6F8412" d="M48.226,72.397c8.197,0.703,12.296,4.069,12.296,10.101c0,6.441-4.685,11.857-14.053,16.249
					c-2.05,0-3.367,0.292-3.952,0.878h-1.317c-1.211,0-2.821-6.44-4.831-19.322c-0.449,0-0.889-1.464-1.317-4.392
					C35.675,73.861,40.066,72.69,48.226,72.397z M40.32,78.546c1.679,9.778,2.996,15.048,3.953,15.81h0.878
					c7.319-2.908,10.979-7.593,10.979-14.053v-0.439c-1.718-2.635-4.206-3.952-7.466-3.952C43.102,76.262,40.32,77.141,40.32,78.546
					z"/>
				<path fill="#6F8412" d="M62.396,72.397h1.317c1.757,0,3.074,7.612,3.952,22.836l0.439,2.196
					c-0.566,1.327-1.151,2.059-1.757,2.195H65.47c-1.698,0-3.162-8.783-4.392-26.349L62.396,72.397z"/>
				<path fill="#6F8412" d="M85.466,73.938c1.463,0.371,2.195,0.811,2.195,1.317v0.439c0,1.074-4.245,2.83-12.735,5.27v3.953
					l0.439,0.438v0.439l7.026-0.878c3.513,0.215,5.27,0.653,5.27,1.317c0,0.78-4.099,2.244-12.296,4.392v0.438
					c0,5.271,0.878,7.905,2.635,7.905h0.438c3.006,0,7.251-1.317,12.736-3.952h1.756l1.317,1.317v0.438
					c0,2.069-2.635,3.533-7.904,4.392c-2.537,1.093-6.344,1.972-11.418,2.635c-3.221,0-4.831-8.344-4.831-25.031
					C70.095,76.584,75.219,74.974,85.466,73.938z"/>
				<path fill="#6F8412" d="M101.198,60.98l3.514,2.635h0.439l10.979-0.879l0.878,1.317v1.318c0,1.464-0.293,2.195-0.878,2.195
					c-7.612,0-11.418,0.586-11.418,1.757l0.878,23.714c0,1.386-0.731,2.85-2.195,4.392h-1.757c-0.723,0-1.161-0.586-1.317-1.757
					l-0.439-25.91h-0.878l-11.857,0.879h-0.878c-1.288,0-2.313-0.732-3.074-2.196c0-1.756,3.514-2.635,10.54-2.635
					c3.806,0,5.709-1.024,5.709-3.074L101.198,60.98z"/>
			</g>
			<g>
				<path fill="#6F8412" d="M14.322,74.219c-0.433,0.073-0.727,0.094-0.88,0.064c-0.269-0.048-0.428-0.226-0.479-0.533
					c-0.024-0.145-0.109-0.212-0.256-0.207c0.146-0.005,0.005,0.026-0.426,0.099c-0.665,0.111-1.158,0.218-1.483,0.319
					c-0.323,0.102-0.604,0.172-0.836,0.211c-0.432,0.072-0.725,0.083-0.881,0.035c-0.289-0.081-0.473-0.348-0.549-0.8
					c-0.111-0.667,0.255-1.137,1.101-1.408c0.611-0.122,1.231-0.245,1.86-0.369c0.424-0.127,0.811-0.312,1.16-0.557
					c-0.019-0.664-0.084-1.332-0.196-2c-0.097-0.578-0.302-1.574-0.613-2.989s-0.514-2.403-0.607-2.962
					c-0.015-0.09-0.034-0.207-0.06-0.353c-0.026-0.161-0.047-0.279-0.059-0.352c-0.058-0.343-0.258-0.486-0.598-0.429
					c-0.251,0.042-0.73,0.183-1.438,0.422c-0.706,0.24-1.186,0.381-1.437,0.423c-0.484,0.081-0.814-0.402-0.99-1.45
					c-0.009-0.054-0.01-0.109,0-0.167c0.145-0.246,0.451-0.474,0.918-0.683c0.365-0.154,0.73-0.308,1.096-0.462
					c0.036-0.006,0.374-0.1,1.014-0.282c0.371-0.118,0.601-0.36,0.688-0.727s0.478-0.655,1.168-0.864
					c0.338-0.094,0.618-0.086,0.843,0.025c0.103,0.057,0.327,0.233,0.674,0.527c0.178,0.175,0.439,0.233,0.783,0.176
					c0.163-0.027,0.429-0.11,0.797-0.246c0.368-0.136,0.634-0.217,0.798-0.244c0.382-0.046,0.658-0.064,0.828-0.056
					c0.301,0.024,0.553,0.139,0.756,0.346c0.023,0.033,0.083,0.33,0.177,0.889c0.046,0.271-0.156,0.509-0.604,0.715
					c-0.325,0.166-0.66,0.277-1.002,0.334c-0.234,0.04-0.572,0.074-1.014,0.101c-0.44,0.027-0.771,0.059-0.987,0.095
					c-0.126,0.021-0.245,0.112-0.358,0.27c-0.112,0.158-0.164,0.297-0.153,0.416s0.045,0.35,0.103,0.693
					c0.112,0.668,0.381,1.882,0.806,3.64c0.425,1.757,0.694,2.979,0.81,3.665c0.009,0.055,0.025,0.153,0.05,0.298
					s0.043,0.254,0.055,0.325c0.061,0.362,0.326,0.613,0.796,0.757c0.201-0.015,0.532-0.089,0.993-0.222
					c0.536-0.125,0.92-0.209,1.155-0.249c0.976-0.163,1.482,0.095,1.523,0.775c0.107,0.539-0.252,0.934-1.082,1.185
					c-0.685,0.133-1.377,0.268-2.078,0.404c-0.568,0.151-0.857,0.395-0.866,0.73S14.991,74.107,14.322,74.219z"/>
				<path fill="#6F8412" d="M28.632,64.549c0.198-0.033,0.505-0.062,0.919-0.085c0.414-0.023,0.721-0.05,0.92-0.084
					c1.191-0.2,1.701-0.815,1.528-1.845c-0.049-0.288-0.252-0.894-0.611-1.819c-0.115-0.351-0.471-0.7-1.066-1.046
					c-0.124-0.072-0.24-0.099-0.349-0.081c-0.108,0.019-0.209,0.082-0.302,0.19c-0.431,0.425-0.659,0.778-0.686,1.062
					c-0.006,0.41-0.011,0.828-0.012,1.255c-0.025,0.191-0.147,0.368-0.371,0.536c-0.222,0.167-0.442,0.269-0.659,0.305
					c-0.541,0.091-0.852-0.098-0.931-0.568c-0.166-0.993,0.01-2.109,0.525-3.347c0.174-0.4,0.508-0.736,1.002-1.003
					c0.682-0.356,1.132-0.552,1.349-0.588c0.181-0.031,0.367-0.025,0.561,0.017c0.331,0.093,0.662,0.186,0.993,0.279
					c0.432,0.131,0.714,0.271,0.85,0.414c0.829,0.958,1.326,1.923,1.489,2.899c0.067,0.396,0.115,1.188,0.146,2.37
					c-0.028,0.822-0.049,2.2-0.059,4.132c0.013,0.406,0.186,0.758,0.521,1.054c0.146,0.069,0.302,0.145,0.468,0.228
					c0.167,0.083,0.27,0.234,0.306,0.451c0.055,0.324,0.014,0.582-0.123,0.772c-0.045,0.063-0.23,0.234-0.557,0.512
					c-0.852,0.7-1.839,1.144-2.962,1.332c-0.852,0.143-1.698,0.146-2.542,0.008c-0.652-0.114-1.204-0.46-1.655-1.037
					c-0.384-0.513-0.633-1.114-0.749-1.803c-0.155-0.925-0.093-1.717,0.187-2.378c0.216-0.484,0.365-0.808,0.45-0.97
					c0.197-0.369,0.423-0.63,0.675-0.785C28.202,64.706,28.451,64.58,28.632,64.549z M28.636,68.559
					c0.027,0.163,0.092,0.375,0.19,0.638c0.327,0.836,0.878,1.189,1.654,1.059c0.922-0.154,1.456-0.504,1.606-1.049
					c-0.013-0.072-0.061-0.167-0.145-0.282c-0.085-0.116-0.135-0.219-0.149-0.31c-0.037-0.217-0.032-0.551,0.013-1.004
					c0.044-0.455,0.049-0.789,0.013-1.005c-0.091-0.542-0.407-0.768-0.95-0.677c-0.072,0.012-0.18,0.03-0.324,0.055
					c-0.146,0.024-0.254,0.042-0.325,0.055c-0.597,0.1-1.034,0.396-1.313,0.889C28.626,67.419,28.536,67.964,28.636,68.559z"/>
				<path fill="#6F8412" d="M36.832,54.817c0.093,0.115,0.158,0.281,0.194,0.498c0.024,0.145,0.036,0.352,0.035,0.621
					c-0.001,0.27,0.008,0.467,0.029,0.594c0.027,0.161,0.096,0.234,0.203,0.216c0.199-0.034,0.598-0.235,1.194-0.604
					c0.598-0.369,1.067-0.584,1.411-0.641c0.434-0.073,0.958,0.095,1.574,0.503c0.615,0.408,1.023,0.593,1.222,0.56
					c0.253-0.042,0.719-0.222,1.399-0.541c0.681-0.318,1.219-0.511,1.616-0.577c1.626-0.273,2.626,0.711,3.001,2.95
					c0.533,3.179,0.785,5.671,0.753,7.478c-0.002,0.428-0.031,1.027-0.088,1.797c-0.052,0.25-0.293,0.412-0.727,0.484
					c-0.234,0.039-0.483-0.002-0.745-0.126c-0.442-0.204-0.723-0.659-0.841-1.363c-0.127-0.759-0.171-1.874-0.131-3.349
					c0.041-1.473,0.002-2.562-0.116-3.267c-0.16-0.956-0.451-1.8-0.87-2.528c-0.156-0.271-0.353-0.386-0.587-0.347
					c-0.217,0.036-0.463,0.199-0.74,0.486c-0.276,0.289-0.452,0.541-0.527,0.757c-0.051,0.138-0.064,0.28-0.04,0.424
					c0.04,0.235,0.181,0.559,0.428,0.973c0.246,0.414,0.388,0.739,0.428,0.973c0.058,0.344-0.045,0.648-0.307,0.915
					c-0.261,0.267-0.564,0.429-0.907,0.487c-0.162,0.027-0.307-0.005-0.433-0.094c-0.374-0.235-0.706-0.718-0.995-1.449
					c-0.384-0.957-0.627-1.52-0.729-1.688c-0.712-1.031-1.356-1.5-1.935-1.402c-0.397,0.067-0.734,0.323-1.012,0.768
					c-0.279,0.446-0.438,0.887-0.476,1.32c-0.054,0.678-0.026,1.332,0.079,1.963c0.063,0.38,0.194,0.942,0.395,1.689
					c0.199,0.746,0.333,1.318,0.399,1.715c0.036,0.217,0.093,0.551,0.168,1.003c0.076,0.451,0.132,0.786,0.168,1.003
					c0.021,0.126,0.052,0.307,0.091,0.541c0.043,0.253,0.074,0.442,0.096,0.569c0.012,0.072,0.032,0.189,0.06,0.353
					c0.026,0.161,0.048,0.288,0.063,0.378c0.042,0.254,0.122,0.462,0.243,0.628c-0.7,0.581-1.159,0.891-1.376,0.928
					c-0.198,0.033-0.398,0.001-0.601-0.094c-0.082-0.154-0.271-0.289-0.569-0.407c-0.056-1.328-0.194-2.65-0.415-3.968
					c-0.194-1.155-0.562-2.756-1.099-4.802c-0.584-2.205-0.966-3.793-1.146-4.766l-0.019-0.108c-0.151-0.791,0.216-1.261,1.101-1.41
					C36.276,54.772,36.636,54.758,36.832,54.817z"/>
				<path fill="#6F8412" d="M61.306,53.109c1.607-0.27,2.663-0.067,3.166,0.611c0.908,1.203,1.47,2.445,1.685,3.728
					c0.288,1.717-0.144,3.023-1.292,3.921c-0.539,0.444-1.278,0.744-2.217,0.901c-1.409,0.236-2.79-0.089-4.146-0.977
					c-0.853-0.543-1.377-1.402-1.574-2.576c-0.36-2.148,0.024-3.616,1.155-4.4C58.948,53.727,60.022,53.324,61.306,53.109z
					 M60.318,55.029c-0.56,0.094-0.909,0.33-1.05,0.708c-0.229,0.747-0.281,1.483-0.159,2.21c0.14,0.835,0.56,1.505,1.257,2.014
					c0.698,0.508,1.462,0.692,2.293,0.553c1.102-0.185,1.538-0.958,1.31-2.319c-0.103-0.616-0.34-1.305-0.707-2.065
					c-0.476-0.946-1.082-1.356-1.823-1.232c-0.126,0.021-0.313,0.043-0.56,0.066S60.444,55.007,60.318,55.029z"/>
				<path fill="#6F8412" d="M67.843,50.897c0.687-0.115,1.072,0.082,1.156,0.586c0.019,0.108,0.022,0.275,0.015,0.499
					c-0.009,0.225-0.005,0.392,0.014,0.5c0.214-0.054,0.593-0.174,1.138-0.358c0.457-0.151,0.83-0.251,1.119-0.3
					c0.669-0.112,1.201,0.021,1.6,0.4c1.426,1.303,2.29,2.857,2.594,4.663c0.066,0.397,0.142,0.993,0.229,1.786
					c0.086,0.792,0.164,1.388,0.23,1.786c0.085,0.506,0.168,0.957,0.254,1.35c0.039,0.123,0.117,0.343,0.235,0.656
					c0.118,0.315,0.191,0.563,0.222,0.743c0.121,0.723-0.216,1.151-1.01,1.284c-0.596,0.1-1.011-0.156-1.242-0.767
					c-0.063-0.156-0.174-0.695-0.328-1.616c-0.069-0.415-0.152-1.047-0.248-1.894c-0.095-0.848-0.178-1.479-0.248-1.895
					c-0.209-1.247-0.721-2.534-1.538-3.864c-0.356-0.571-0.688-0.832-0.994-0.78c-0.325,0.055-0.658,0.176-0.998,0.362
					c-0.425,0.238-0.633,0.487-0.628,0.746c0.018,0.759,0.111,1.652,0.283,2.682c0.085,0.505,0.24,1.259,0.463,2.262
					c0.224,1.003,0.378,1.757,0.463,2.262c0.182,1.084,0.27,1.82,0.262,2.212s-0.297,0.635-0.867,0.73
					c-0.605,0.102-0.978-0.152-1.117-0.76c0.004,0.019-0.229-1.362-0.695-4.145c-0.097-0.577-0.251-1.276-0.462-2.094
					c-0.3-1.12-0.52-2.096-0.659-2.926c-0.063-0.38-0.103-0.678-0.116-0.9c-0.031-0.384-0.077-0.757-0.138-1.119
					c-0.015-0.09-0.038-0.226-0.068-0.407c-0.03-0.18-0.053-0.315-0.068-0.406C66.575,51.472,66.958,51.045,67.843,50.897z"/>
				<path fill="#6F8412" d="M86.172,54.898c0.198-0.033,0.505-0.062,0.919-0.084c0.413-0.023,0.72-0.05,0.919-0.084
					c1.191-0.2,1.702-0.815,1.529-1.845c-0.049-0.288-0.253-0.895-0.611-1.819c-0.115-0.351-0.471-0.7-1.067-1.046
					c-0.123-0.073-0.239-0.1-0.348-0.081c-0.108,0.018-0.209,0.081-0.302,0.19c-0.431,0.425-0.659,0.778-0.686,1.062
					c-0.006,0.41-0.011,0.828-0.012,1.255c-0.025,0.191-0.147,0.368-0.371,0.536c-0.222,0.168-0.442,0.269-0.659,0.305
					c-0.541,0.091-0.852-0.098-0.93-0.567c-0.167-0.993,0.008-2.109,0.523-3.348c0.175-0.4,0.509-0.736,1.002-1.003
					c0.683-0.356,1.133-0.553,1.35-0.589c0.181-0.03,0.367-0.024,0.561,0.018c0.331,0.093,0.661,0.186,0.993,0.279
					c0.431,0.131,0.714,0.271,0.85,0.414c0.829,0.958,1.325,1.923,1.489,2.899c0.066,0.396,0.115,1.188,0.146,2.37
					c-0.029,0.822-0.049,2.2-0.059,4.132c0.013,0.406,0.186,0.758,0.52,1.055c0.146,0.069,0.303,0.144,0.469,0.228
					s0.269,0.234,0.305,0.451c0.055,0.324,0.014,0.583-0.122,0.772c-0.045,0.063-0.229,0.234-0.557,0.512
					c-0.852,0.7-1.839,1.144-2.963,1.333c-0.852,0.143-1.698,0.145-2.542,0.007c-0.652-0.114-1.203-0.459-1.654-1.037
					c-0.385-0.513-0.634-1.114-0.749-1.803c-0.155-0.925-0.093-1.717,0.186-2.378c0.217-0.484,0.366-0.807,0.451-0.97
					c0.197-0.368,0.423-0.63,0.675-0.785C85.742,55.055,85.991,54.929,86.172,54.898z M86.176,58.908
					c0.027,0.163,0.091,0.375,0.19,0.638c0.326,0.836,0.878,1.189,1.654,1.059c0.922-0.155,1.455-0.504,1.606-1.05
					c-0.013-0.072-0.062-0.167-0.146-0.282s-0.134-0.219-0.148-0.31c-0.037-0.217-0.032-0.551,0.012-1.004
					c0.045-0.454,0.05-0.789,0.014-1.005c-0.092-0.542-0.408-0.768-0.95-0.677c-0.072,0.013-0.18,0.03-0.324,0.055
					c-0.146,0.024-0.254,0.042-0.325,0.055c-0.597,0.1-1.034,0.396-1.313,0.889C86.166,57.768,86.076,58.313,86.176,58.908z"/>
			</g>
		</g>
	</g>
	<path fill="#7FBCB6" d="M17.141,107.491c4.27-22.059,6.739-36.334,11.008-58.394c4.878-0.158,8.665-4.687,10.072-10.575
		c0.005,0,0.008-0.001,0.013,0.002c0.003-0.037-0.026,0.033-0.026-0.002c0.007-0.019-0.025,0.062-0.025,0.062l-0.006-0.002
		c1.693-12.119,4.214-28.347,3.563-28.495c-0.028-0.006-0.045-0.023-0.083,0.031l0.029-0.133c-0.166-0.041-0.314-0.096-0.492-0.128
		c-0.388-0.071-4.12,16.323-6.9,27.601l-0.979-0.229c1.867-11.473,5.074-28.029,4.422-28.183c-0.006-0.001-0.013,0.008-0.02,0.009
		c-0.168-0.047-0.325-0.097-0.511-0.132c-0.408-0.092-4.617,16.221-7.735,27.414l-1.079-0.251c2.074-10.64,5.47-25.677,5.384-27.733
		l0.042-0.188c-0.03-0.009-0.063-0.017-0.093-0.025c-0.008-0.008-0.013-0.023-0.021-0.025c-0.008-0.002-0.019,0.01-0.028,0.013
		c-0.171-0.049-0.339-0.099-0.524-0.141c-0.529-0.122-5.228,16.088-8.734,27.184v0.001l-0.981-0.227
		c2.503-10.905,6.556-26.463,6.26-27.687l0.009-0.042c-0.012-0.003-0.023-0.006-0.035-0.01c-0.008-0.01-0.014-0.027-0.023-0.029
		s-0.022,0.011-0.033,0.015c-0.241-0.065-0.462-0.13-0.725-0.189c-0.651-0.149-5.432,16.058-9.274,27.063
		c0,0-0.001,0.004-0.003,0.008c-0.017,0.047-0.069,0.121-0.068,0.122c0,0,0.012,0.004,0.016,0.005
		c-1.313,5.897,0.098,11.643,4.406,13.925c-5.837,21.699-9.877,35.618-15.717,57.312c-0.496,1.757,0.705,4.552,3.104,5.094
		c0.097,0.023,0.19,0.018,0.286,0.032c0.155,0.059,0.314,0.111,0.481,0.148C14.51,111.271,16.817,109.287,17.141,107.491z"/>
	<g>
		<path fill="#6F8412" d="M27.067,18.248c0.675-0.16,1.314-0.385,1.939-0.649c-0.071-0.95-0.198-1.914-0.428-2.877
			C26.544,5.857,18.776,0.081,11.237,1.814C10.56,1.972,9.918,2.2,9.293,2.462c0.073,0.952,0.204,1.914,0.428,2.881
			C11.759,14.201,19.525,19.981,27.067,18.248z"/>
		<path fill="#849C18" d="M11.237,1.814C10.571,1.97,9.94,2.194,9.325,2.452c5.942,6.214,14.026,12.439,19.653,15.16
			c0.012-0.004,0.021-0.008,0.028-0.014c-0.071-0.95-0.198-1.914-0.428-2.877C26.544,5.857,18.776,0.081,11.237,1.814z"/>
	</g>
</g>
</svg>
