<?xml version="1.0" encoding="utf-8"?>
<!-- Generator: Adobe Illustrator 16.0.0, SVG Export Plug-In . SVG Version: 6.00 Build 0)  -->
<!DOCTYPE svg PUBLIC "-//W3C//DTD SVG 1.1//EN" "http://www.w3.org/Graphics/SVG/1.1/DTD/svg11.dtd">
<svg version="1.1" id="Layer_1" xmlns="http://www.w3.org/2000/svg" xmlns:xlink="http://www.w3.org/1999/xlink" x="0px" y="0px"
	 width="133.691px" height="134.742px" viewBox="0 0 133.691 134.742" enable-background="new 0 0 133.691 134.742"
	 xml:space="preserve">
<g>
	<path fill="#FFFFFF" d="M14.556,1.404c4.675-2.671,9.169,0.197,13.961-0.772c5.729-1.156,9.134-1.294,12.193,4.637
		c1.776,3.444,0.962,13.627,5.657,14.036c2.184,0.189,3.188-2.271,4.867-3.151c3.063-1.598,7.198-3.687,10.796-3.001
		c3.312,0.63,4.68,2.313,6.321,4.528c1.665,2.244,0.856,5.579,5.129,3.813c2.838-1.173,7.979-13.743,10.91-3.646
		c6.063-0.359,7.085-7.723,12.438-3.029c3.877,3.4,4.729,10.609,6.146,15.59c1.683,5.911,2.824,12.761,5.604,18.085
		c2.623,5.03,5.268,8.325,7.125,13.921c3.833,11.545,9.606,21.452,14.267,32.357c1.375,3.215,5.798,10.084,2.562,13.409
		c-3.519,3.611-12.435,0.061-15.502-2.208c-2.459-1.822-2.404-5.97-4.944-7.197c-2.781-1.347-6.379,2.159-9.146,2.009
		c-3.861-0.209-4.27-2.326-8.459-0.843c-2.913,1.033-5.514,2.501-8.381,3.752c-5.542,2.416-2.102,1.312-2.893,6.179
		c-0.472,2.908-3.943,5.047-6.506,6.775c-3.854,2.602-15.164,7.596-18.849,4.02c-2.058,2.355-7.833,6.133-11.441,5.77
		c-3.185-0.318-9.507-4.563-9.659-3.578c-0.26,1.682-0.704,1.704-1.717,3.249c-1.104,1.69-3.081,3.474-4.427,4.882
		c-9.798,10.277-15.618-3.433-16.313-6.88c-1.183-5.858,0.486-11.44,0.678-17.603c0.176-5.678-1.845-26.984-3.723-29.952
		C11,76.16,10.98,75.494,10.789,75.05C1.843,76.468,0.061,54.054,0.004,48.637c-0.047-4.368,0.344-8.979,1.53-12.974
		c1.602-5.399,5.063-5.212,9.195-5.809C10.73,29.854,4.953,6.89,14.556,1.404z"/>
	<g>
		<path fill="#231F20" d="M15.227,9.786l0.477-0.135l0.542,0.102c0.526-0.15,0.824-0.205,0.894-0.168
			c0.091-0.082,0.267-0.162,0.531-0.237c0.158-0.045,0.451-0.07,0.877-0.077s0.744-0.042,0.955-0.102
			c0.188,0.062,0.477,0.122,0.865,0.182c0.388,0.061,0.688,0.118,0.903,0.17c0.214,0.054,0.451,0.186,0.711,0.397
			c0.262,0.212,0.461,0.467,0.604,0.769c0.083,0.093,0.218,0.167,0.407,0.226c0.188,0.062,0.315,0.111,0.384,0.148
			c0.065,0.038,0.141,0.146,0.221,0.323c0.077,0.178,0.126,0.293,0.141,0.345c0.017,0.053,0.057,0.099,0.123,0.135l0.124,0.137
			l0.137,0.475c0.015,0.053,0.114,0.154,0.3,0.3c0.185,0.148,0.292,0.275,0.322,0.379c0.028,0.105,0.08,0.234,0.151,0.384
			c0.07,0.152,0.148,0.272,0.23,0.362c0.029,0.107,0.094,0.23,0.19,0.374c0.098,0.144,0.155,0.242,0.17,0.294l0.067,0.238
			c0.03,0.105,0.058,0.254,0.085,0.446c0.025,0.193,0.046,0.316,0.063,0.368c0.015,0.053,0.089,0.118,0.226,0.193
			c0.03,0.105,0.113,0.296,0.248,0.571c0.135,0.275,0.227,0.492,0.271,0.649c0.209,0.34,0.318,0.624,0.326,0.849
			c0.029,0.107,0.065,0.281,0.106,0.526c0.04,0.245,0.085,0.446,0.13,0.604l0.091,0.317c0.284,0.603,0.465,1.037,0.54,1.3
			c0.09,0.317,0.104,0.57,0.045,0.758c0.017,0.054,0.063,0.126,0.146,0.216c0.082,0.091,0.139,0.188,0.169,0.294
			c0.015,0.054,0.021,0.122,0.017,0.21c-0.004,0.086,0.002,0.156,0.018,0.208l0.124,0.136c0.016,0.054,0.029,0.106,0.045,0.159
			l0.022,0.079c-0.038,0.068-0.05,0.128-0.035,0.18c0.017,0.054,0.063,0.169,0.143,0.347c0.079,0.177,0.134,0.317,0.163,0.423
			l0.125,0.137c0.082,0.091,0.132,0.162,0.146,0.215c0.031,0.106,0.049,0.272,0.058,0.497c-0.077,0.137-0.101,0.257-0.069,0.362
			c0.015,0.053,0.064,0.181,0.153,0.385c0.086,0.203,0.144,0.358,0.174,0.463c-0.022,0.122-0.026,0.208-0.013,0.261
			c0.017,0.053,0.054,0.185,0.112,0.396c0.062,0.211,0.038,0.332-0.067,0.362c0.233,0.219,0.381,0.434,0.439,0.645
			c0.016,0.053,0.036,0.176,0.063,0.367c0.024,0.194,0.054,0.342,0.084,0.447c-0.075,0.136-0.099,0.256-0.068,0.362
			c0.299,1.455,0.411,2.25,0.337,2.385c0.293,0.43,0.522,0.936,0.688,1.516c0.119,0.423,0.156,0.754,0.111,0.995
			c0.227,0.393,0.376,0.721,0.451,0.984c0.075,0.265,0.074,0.463-0.001,0.599c0.082,0.091,0.182,0.291,0.3,0.599
			c0.116,0.311,0.189,0.518,0.219,0.624l-0.17,0.305c0.084,0.091,0.154,0.241,0.216,0.452c0.06,0.211,0.107,0.482,0.146,0.815
			c0.038,0.331,0.079,0.576,0.124,0.735l0.09,0.316c-0.084,0.31-0.145,0.499-0.181,0.565c0.135,0.475,0.183,0.747,0.146,0.813
			l0.136,0.476c0.166,0.581,0.205,1.225,0.122,1.934l0.462,1.323c0.211,0.739,0.126,1.248-0.25,1.527
			c0.066,0.037,0.115,0.108,0.146,0.214c0.03,0.107,0.018,0.252-0.044,0.441c-0.062,0.188-0.077,0.335-0.047,0.44
			c-0.075,0.136-0.25,0.428-0.521,0.875c-0.271,0.449-0.523,0.763-0.759,0.943l-0.294,0.169c-0.528,0.55-0.847,0.839-0.95,0.869
			c-1.319,0.375-2.205,0.571-2.657,0.585c-0.054,0.016-0.201,0.001-0.441-0.046c-0.24-0.045-0.422-0.078-0.542-0.103
			c-0.054,0.015-0.216-0.053-0.486-0.204c-0.784,0.052-1.409-0.141-1.876-0.578c-0.278,0.022-0.578-0.078-0.897-0.302
			c-0.319-0.223-0.516-0.353-0.582-0.391c-0.113-0.195-0.328-0.448-0.644-0.758c-0.316-0.309-0.532-0.563-0.645-0.76
			c-0.083-0.089-0.164-0.223-0.242-0.4c-0.08-0.177-0.133-0.318-0.163-0.425c-0.197-0.287-0.315-0.509-0.361-0.667l-0.271-0.95
			c-0.045-0.157-0.192-0.472-0.44-0.944c-0.249-0.471-0.45-0.884-0.607-1.239c-0.158-0.354-0.343-0.899-0.553-1.64
			c-0.113-0.196-0.229-0.505-0.35-0.927c-0.091-0.318-0.1-0.543-0.021-0.68c-0.138-0.074-0.248-0.271-0.338-0.588
			c-0.03-0.105-0.064-0.324-0.103-0.655c-0.038-0.332-0.078-0.577-0.123-0.735l-0.158-0.555c-0.135-0.475-0.146-0.814-0.032-1.017
			c-0.017-0.053-0.069-0.095-0.164-0.126c-0.095-0.029-0.155-0.097-0.187-0.203c-0.029-0.105-0.047-0.215-0.051-0.328
			c-0.004-0.112-0.021-0.222-0.05-0.327l-0.338-1.188c-0.227-0.792-0.348-1.413-0.36-1.866c-0.082-0.091-0.161-0.267-0.236-0.532
			c-0.06-0.21-0.098-0.541-0.111-0.995c-0.016-0.453-0.036-0.73-0.066-0.837l-0.046-0.158c-0.082-0.09-0.131-0.162-0.146-0.216
			l0.034-0.18c-0.015-0.053-0.03-0.105-0.045-0.159c-0.06-0.21-0.157-0.554-0.293-1.029c-0.135-0.475-0.206-0.825-0.212-1.051
			c-0.106-0.769-0.211-1.339-0.316-1.708c-0.015-0.052,0.016-0.146,0.093-0.282c-0.03-0.105-0.08-0.177-0.147-0.215
			c-0.066-0.036-0.117-0.109-0.146-0.216l-0.279-1.889l-0.022-0.078l-0.124-0.136c-0.045-0.159-0.05-0.372-0.012-0.64
			c0.038-0.266,0.043-0.452,0.013-0.559c-0.045-0.159-0.119-0.466-0.22-0.922c-0.102-0.456-0.146-0.77-0.141-0.944l0.125-0.464
			c-0.119-0.821-0.098-1.341,0.068-1.561c-0.015-0.052-0.057-0.098-0.123-0.136c-0.068-0.036-0.117-0.108-0.146-0.214
			c0.016-0.346,0.008-0.572-0.022-0.678l-0.271-0.951c-0.029-0.104-0.03-0.304,0.002-0.599c0.03-0.293,0.03-0.493,0-0.599
			c-0.104-0.369-0.3-0.856-0.586-1.459c0.076-0.136,0.103-0.343,0.079-0.622c-0.022-0.278-0.016-0.452,0.023-0.521
			C13.53,10.439,14.224,10.071,15.227,9.786z"/>
		<path fill="#231F20" d="M34.533,23.207c0.157-0.045,0.517-0.09,1.073-0.136c0.12,0.023,0.284,0.048,0.492,0.074
			c0.207,0.026,0.337,0.032,0.39,0.017l0.238-0.067c0.316-0.09,0.825,0.193,1.525,0.851c0.164,0.182,0.354,0.241,0.563,0.182
			l-0.011,0.261c0.03,0.105,0.078,0.177,0.146,0.215c0.276,0.776,0.568,1.45,0.874,2.019c0.305,0.57,0.533,0.975,0.688,1.217
			c0.154,0.242,0.246,0.414,0.276,0.52c0.264-0.075,0.38-0.364,0.353-0.871c0.144-0.097,0.248-0.227,0.316-0.39
			c0.067-0.159,0.12-0.275,0.158-0.344c0.036-0.066,0.114-0.146,0.231-0.237c0.116-0.09,0.193-0.169,0.232-0.238
			c0.073-0.135,0.226-0.305,0.452-0.514c0.226-0.206,0.378-0.377,0.453-0.514c0.104-0.03,0.381-0.165,0.824-0.406
			c0.445-0.24,0.799-0.399,1.063-0.475c0.476-0.135,0.874-0.132,1.197,0.002l0.16-0.045c0.104-0.03,0.234-0.023,0.39,0.018
			c0.153,0.041,0.282,0.047,0.391,0.017c0.053-0.015,0.258-0.044,0.616-0.089c0.356-0.046,0.624-0.064,0.797-0.057
			c0.204,0.114,0.331,0.163,0.384,0.147c0.068,0.039,0.162,0.069,0.283,0.091c0.119,0.023,0.214,0.054,0.282,0.091
			c0.255,0.099,0.622,0.28,1.096,0.543c-0.008,0.175,0.104,0.37,0.339,0.589c0.263-0.075,0.506-0.028,0.725,0.137
			c0.271-0.249,0.617-0.632,1.042-1.152c0.422-0.519,0.775-0.876,1.063-1.073c0.454-0.813,1.239-1.665,2.355-2.552
			c0.104-0.03,0.286-0.095,0.543-0.198c0.256-0.102,0.457-0.201,0.6-0.3c1.666-0.357,2.85-0.211,3.55,0.445
			c0.384-0.052,0.804,0.071,1.26,0.37c0.455,0.298,0.771,0.452,0.944,0.458c0.225,0.394,0.44,0.646,0.644,0.758l0.202,0.713
			c0.181,0.634,0.388,1.06,0.621,1.279c0.082,0.091,0.19,0.173,0.327,0.249c-0.023,0.121,0.003,0.313,0.078,0.576
			c0.075,0.266,0.225,0.592,0.451,0.985c0.03,0.105,0.071,0.207,0.129,0.305c0.057,0.098,0.094,0.173,0.108,0.226l0.338,1.188
			l0.305,0.77c0.061,0.211,0.07,0.352,0.033,0.418c0.016,0.053-0.013,0.26-0.08,0.622c0.181,0.234,0.277,0.379,0.293,0.431
			c0.008,0.626,0.094,1.229,0.258,1.809c0.105,0.37,0.215,0.652,0.327,0.849c0.045,0.158,0.011,0.339-0.104,0.542
			c0.166,0.182,0.361,0.668,0.586,1.459c0.105,0.37,0.232,0.619,0.385,0.747c0.633-0.181,1.165-0.417,1.596-0.71
			c0.43-0.294,0.902-0.741,1.415-1.345c0.512-0.602,0.834-0.978,0.962-1.13c0.038-0.066,0.082-0.165,0.131-0.292
			c0.049-0.127,0.092-0.227,0.13-0.294c0.303-0.142,0.552-0.47,0.747-0.983c0.196-0.511,0.446-0.84,0.747-0.982
			c-0.014-0.452,0.229-0.806,0.727-1.061c0.054-0.814,0.589-1.737,1.607-2.769c1.125-1.46,1.954-2.353,2.49-2.678
			c0.604-1.083,1.275-1.73,2.016-1.941c0.263-0.074,0.523-0.063,0.779,0.035c0.444,0.158,0.75,0.529,0.915,1.109
			c0.075,0.265,0.078,0.576,0.009,0.938c-0.021,0.122-0.063,0.275-0.123,0.463c-0.063,0.189-0.104,0.343-0.125,0.463l0.09,0.316
			c-0.022,0.123-0.092,0.283-0.203,0.486c-0.113,0.203-0.184,0.365-0.205,0.486c-0.062,0.189-0.1,0.457-0.114,0.803
			c0.015,0.453-0.11,0.917-0.373,1.39c-0.039,0.069-0.157,0.203-0.357,0.401c-0.199,0.199-0.276,0.378-0.231,0.537
			c-0.055,0.015-0.195,0.113-0.431,0.293c-0.054,0.016-0.099,0.057-0.136,0.124l-0.137,0.125c-0.022,0.122-0.066,0.319-0.13,0.593
			c-0.064,0.276-0.135,0.481-0.21,0.616l-0.341,0.61c-0.228,0.406-0.337,0.724-0.328,0.95c-0.145,0.099-0.405,0.43-0.787,0.994
			c-0.381,0.565-0.77,0.961-1.16,1.187c-0.076,0.136-0.198,0.355-0.369,0.661c-0.169,0.304-0.334,0.58-0.491,0.824
			c-0.159,0.244-0.361,0.432-0.611,0.559c-0.483,0.708-0.856,1.099-1.12,1.173c0.016,0.054-0.02,0.135-0.103,0.244
			c-0.084,0.109-0.138,0.225-0.159,0.345c-0.053,0.015-0.17,0.105-0.35,0.271c-0.938,1.122-1.885,2.104-2.843,2.947l-0.237,0.067
			c-0.265,0.075-0.451,0.215-0.565,0.418c-0.423,0.12-0.688,0.282-0.804,0.485c-0.844,0.24-1.467,0.36-1.864,0.36l-0.407-0.228
			l-0.396,0.112c-0.137-0.075-0.246-0.158-0.328-0.249c-0.211,0.061-0.352,0.071-0.418,0.034c-0.174-0.008-0.281-0.09-0.326-0.249
			c-0.461-0.211-0.739-0.389-0.838-0.533c-0.053,0.015-0.227,0.007-0.52-0.022c-0.332-0.364-0.646-0.559-0.938-0.59
			c-0.084-0.09-0.277-0.276-0.588-0.561c-0.309-0.282-0.491-0.529-0.553-0.741c-0.015-0.052-0.012-0.139,0.012-0.26l-0.021-0.079
			c-0.137-0.075-0.229-0.193-0.271-0.351l-0.169-0.294c-0.083-0.09-0.225-0.236-0.424-0.436c-0.2-0.201-0.35-0.373-0.445-0.515
			l-0.067-0.238c-0.09-0.316-0.312-0.738-0.66-1.267c-0.352-0.527-0.619-1.021-0.806-1.482c-0.016-0.052-0.022-0.122-0.019-0.21
			c0.003-0.085-0.002-0.155-0.017-0.208c-0.045-0.158-0.119-0.365-0.221-0.623c-0.103-0.255-0.174-0.462-0.22-0.621
			c-0.045-0.158-0.079-0.375-0.102-0.655c-0.023-0.279-0.049-0.471-0.078-0.577c-0.045-0.158-0.15-0.328-0.315-0.509l0.228-0.406
			c0.021-0.121-0.037-0.175-0.176-0.165c-0.141,0.011-0.217-0.01-0.23-0.063l-0.091-0.317c-0.061-0.209-0.149-0.47-0.267-0.78
			c-0.116-0.31-0.196-0.542-0.241-0.702c-0.091-0.316-0.123-0.534-0.101-0.655c0.021-0.12-0.018-0.21-0.12-0.266
			c-0.101-0.057-0.158-0.111-0.175-0.165c-0.015-0.051-0.029-0.205-0.045-0.458c-0.015-0.252-0.035-0.43-0.066-0.537
			c-0.045-0.157-0.102-0.255-0.17-0.294c-0.368,0.105-0.7,0.343-0.994,0.712c-0.054,0.015-0.071,0.05-0.058,0.102l-0.034,0.181
			c-0.053,0.015-0.153,0.059-0.305,0.13c-0.151,0.073-0.246,0.142-0.284,0.209c-0.127,0.15-0.207,0.373-0.238,0.666
			c-0.09,0.084-0.214,0.348-0.372,0.792c-0.159,0.045-0.272,0.049-0.34,0.01l0.045,0.158L53.8,30.474
			c0.061,0.213,0.06,0.612-0.001,1.198c0.264,0.325,0.339,0.59,0.226,0.792c0.203,0.114,0.41,0.342,0.621,0.68l0.181,0.633
			c0.12,0.424,0.264,0.726,0.429,0.906c0.646,1.071,1.001,1.712,1.062,1.922c0.016,0.054,0.003,0.115-0.034,0.182
			c-0.038,0.068-0.017,0.147,0.066,0.237c-0.021,0.122,0.019,0.165,0.125,0.134c0.105-0.029,0.166-0.018,0.181,0.035
			c0.091,0.316,0.241,0.803,0.456,1.454c0.215,0.652,0.358,1.109,0.436,1.373c-0.039,0.069-0.078,0.181-0.12,0.334
			c-0.04,0.155-0.115,0.247-0.22,0.277l-0.159,0.045c0.157,0.754-0.291,1.281-1.347,1.581l-0.317,0.09
			c-0.265,0.076-0.987-0.061-2.17-0.409c-0.151-0.128-0.478-0.321-0.979-0.578c-0.501-0.256-0.855-0.555-1.066-0.895
			c-0.257-0.098-0.566-0.337-0.934-0.719c-0.364-0.381-0.582-0.59-0.647-0.629l-0.045-0.157c-0.061-0.211-0.215-0.453-0.464-0.725
			c-0.016-0.052-0.024-0.135-0.027-0.249c-0.003-0.113-0.013-0.196-0.028-0.25c-0.437-0.331-0.752-0.84-0.946-1.527
			c-0.092-0.316-0.133-0.562-0.124-0.735c-0.248-0.272-0.426-0.591-0.53-0.961l-0.495-1.742c-0.015-0.052-0.048-0.115-0.096-0.186
			c-0.051-0.071-0.089-0.161-0.118-0.266l-0.068-0.238c-0.028-0.104-0.106-0.226-0.23-0.361c-0.124-0.137-0.193-0.229-0.208-0.284
			c-0.056,0.015-0.117-0.107-0.193-0.373l-0.01-0.339c-0.061-0.21-0.211-0.438-0.451-0.685c-0.241-0.244-0.377-0.42-0.407-0.526
			l-0.236,0.068c-0.688,0.195-1.254,0.613-1.697,1.252c-0.128,0.152-0.249,0.327-0.362,0.531c-0.408,0.573-0.627,1.006-0.657,1.3
			c0.016,0.053,0.027,0.149,0.039,0.289c0.012,0.141-0.003,0.244-0.04,0.311c-0.062,0.588-0.068,0.96-0.023,1.119
			c0.029,0.107,0.1,0.301,0.21,0.583c0.107,0.282,0.186,0.502,0.229,0.66c0.007,0.228,0.094,0.631,0.258,1.21
			c0.136,0.476,0.294,0.831,0.476,1.063c-0.166,0.62-0.13,1.352,0.11,2.194c0.06,0.212,0.161,0.524,0.31,0.938
			c0.146,0.417,0.251,0.729,0.311,0.938c-0.031,0.294-0.029,0.75,0.004,1.368c0.032,0.619,0.055,1.042,0.062,1.266
			c-0.528,0.549-0.815,0.947-0.86,1.187c-0.747,0.384-1.198,0.598-1.356,0.643c-0.317,0.09-0.536,0.124-0.656,0.101
			c-0.053,0.015-0.154-0.042-0.305-0.17c-0.056,0.015-0.104,0.045-0.148,0.086c-0.044,0.042-0.12,0.077-0.226,0.106
			c-0.03-0.105-0.145-0.202-0.338-0.289c-0.196-0.085-0.346-0.202-0.441-0.345c-1.53-0.363-2.692-1.943-3.488-4.741l-0.404-1.426
			c-0.145-0.301-0.289-0.716-0.439-1.244c-0.03-0.104-0.087-0.26-0.175-0.463c-0.086-0.204-0.138-0.333-0.152-0.385
			c-0.127-0.25-0.257-0.655-0.388-1.217s-0.229-0.947-0.288-1.159c-0.248-0.271-0.38-0.433-0.396-0.486l-0.046-0.158
			c-0.045-0.159-0.069-0.451-0.077-0.877c-0.007-0.426-0.033-0.718-0.078-0.876c-0.061-0.21-0.123-0.334-0.191-0.373
			c-0.061-0.211-0.045-0.357,0.045-0.44c-0.135-0.075-0.248-0.272-0.338-0.589c-0.015-0.052-0.039-0.188-0.072-0.406
			c-0.032-0.219-0.065-0.381-0.097-0.487l-0.045-0.158l0.057-0.102c0.038-0.066,0.075-0.135,0.114-0.203
			c-0.015-0.053-0.066-0.081-0.154-0.085c-0.085-0.003-0.116-0.065-0.095-0.187l-0.429-1.505c-0.015-0.052,0.021-0.232,0.103-0.543
			l-0.045-0.157c-0.12-0.422-0.136-0.674-0.044-0.758c-0.287-0.604-0.443-0.958-0.475-1.063c-0.209-0.738-0.025-1.19,0.557-1.356
			c0.301-0.142,0.512-0.403,0.634-0.779C33.888,23.447,34.269,23.282,34.533,23.207z"/>
	</g>
	<g>
		<path fill="#231F20" d="M30.281,54.834c0.545-0.155,0.948-0.251,1.215-0.293c0.787-0.154,1.203-0.204,1.255-0.15
			c0.359-0.067,0.933-0.125,1.715-0.175l0.994,0.027c0.324,0.047,0.522,0.078,0.596,0.09c0.114,0.038,0.234,0.063,0.361,0.079
			c0.125,0.016,0.241,0.027,0.346,0.032c0.229,0.072,0.435,0.188,0.616,0.343c0.063-0.018,0.146-0.006,0.244,0.034
			c0.097,0.042,0.162,0.057,0.193,0.048c0.061,0.087,0.202,0.195,0.43,0.32c0.226,0.126,0.373,0.249,0.44,0.367
			c0.278,0.128,0.479,0.4,0.598,0.816c0.046,0.16,0.063,0.293,0.062,0.397c0.058,0.33-0.089,0.666-0.44,1.008
			c-0.023,0.042-0.059,0.103-0.104,0.185l-0.13,0.089c-0.033,0.009-0.102,0.013-0.205,0.006c-0.107-0.002-0.175-0.002-0.207,0.007
			c-0.402,0.045-0.709,0.064-0.919,0.054c-0.073-0.014-0.183-0.034-0.329-0.063c-0.146-0.027-0.252-0.032-0.314-0.014l-0.239,0.068
			c-0.097,0.027-0.25,0.063-0.464,0.106c-0.214,0.044-0.366,0.078-0.463,0.105c-0.064,0.019-0.155,0.063-0.274,0.13
			c-0.119,0.068-0.21,0.111-0.274,0.13l-0.205,0.006c-0.063,0.018-0.144,0.076-0.235,0.17c-0.096,0.097-0.188,0.174-0.272,0.234
			c-0.161,0.289-0.283,0.462-0.37,0.521c0.027,0.096-0.031,0.319-0.173,0.671c-0.026,0.147-0.102,0.255-0.221,0.322
			c0.037,0.128,0.047,0.376,0.031,0.744c-0.018,0.368,0.008,0.665,0.07,0.889c0.056,0.191,0.11,0.331,0.171,0.418
			c0.237,0.349,0.551,0.536,0.939,0.563c0.063-0.018,0.144-0.041,0.239-0.068c0.096-0.027,0.199-0.057,0.312-0.088
			c0.112-0.032,0.2-0.057,0.266-0.076c0.352-0.1,1.04-0.174,2.063-0.225c0.041,0.024,0.084-0.005,0.132-0.089
			c0.039,0.024,0.313,0.068,0.815,0.132l0.219,0.041c0.031-0.009,0.068-0.001,0.11,0.021c0.04,0.023,0.077,0.03,0.109,0.021
			c0.039,0.023,0.138,0.056,0.287,0.1c0.15,0.044,0.278,0.068,0.383,0.072l0.239,0.296c0.107,0.004,0.206,0.053,0.303,0.147
			c0.097,0.094,0.164,0.153,0.205,0.175c0.042,0.024,0.12,0.054,0.233,0.09c0.114,0.037,0.197,0.083,0.246,0.137
			c0.01,0.033,0.027,0.071,0.059,0.114c0.03,0.043,0.05,0.081,0.06,0.113c0.735,0.275,1.266,0.678,1.589,1.208
			c0.722,0.833,1.101,1.313,1.138,1.441c0.082,0.046,0.214,0.146,0.396,0.302c-0.014,0.074-0.008,0.157,0.021,0.254
			c0.028,0.097,0.046,0.16,0.055,0.192l0.124,0.068c0.041,0.023,0.087,0.063,0.138,0.116c0.01,0.033,0.026,0.097,0.055,0.192
			c0.028,0.095,0.066,0.172,0.116,0.227c0.137,0.239,0.211,0.373,0.22,0.405c0.027,0.097-0.011,0.21-0.11,0.342
			c0.04,0.024,0.07,0.067,0.09,0.132c0.009,0.031,0.013,0.108,0.014,0.229c0,0.123,0.023,0.209,0.075,0.265
			c-0.058,0.05-0.087,0.154-0.096,0.312c-0.006,0.158-0.036,0.264-0.092,0.313c0.142,0.135,0.235,0.279,0.28,0.439
			c0.073,0.257,0.062,0.52-0.035,0.789c0.01,0.031-0.014,0.072-0.067,0.123c-0.056,0.051-0.095,0.097-0.117,0.138
			c0.005,0.137-0.022,0.317-0.079,0.541c-0.059,0.223-0.084,0.405-0.08,0.542c-0.031,0.009-0.081,0.05-0.147,0.119
			c-0.064,0.07-0.132,0.115-0.194,0.135c-0.005,0.104-0.036,0.234-0.097,0.391c-0.06,0.155-0.098,0.27-0.109,0.342
			c-0.032,0.01-0.066,0.039-0.105,0.084c-0.041,0.045-0.072,0.09-0.094,0.129c-0.023,0.043-0.051,0.068-0.082,0.076l0.068,0.24
			c-0.023,0.041-0.042,0.098-0.057,0.172c-0.013,0.071-0.032,0.129-0.055,0.17c-0.023,0.041-0.052,0.065-0.083,0.074
			c-0.064,0.018-0.09,0.045-0.082,0.075l-0.021,0.108c-0.014,0.076-0.031,0.131-0.055,0.174c-0.063,0.018-0.107,0.047-0.129,0.089
			c-0.057,0.049-0.102,0.132-0.139,0.246s-0.072,0.202-0.107,0.264c-0.033,0.063-0.089,0.138-0.168,0.229
			c-0.077,0.092-0.164,0.15-0.26,0.178c-0.015,0.074-0.076,0.16-0.187,0.26c-0.109,0.104-0.177,0.174-0.199,0.213
			c-0.031,0.01-0.094,0.035-0.186,0.079c-0.091,0.044-0.17,0.075-0.231,0.093c-0.222,0.2-0.362,0.311-0.428,0.328
			c-0.064,0.018-0.136,0.004-0.219-0.041c-0.302,0.154-0.495,0.332-0.577,0.527c-0.063,0.018-0.133,0.046-0.209,0.084
			c-0.075,0.04-0.129,0.063-0.161,0.072c-0.056,0.051-0.163,0.098-0.321,0.144c-0.032,0.009-0.101,0.08-0.199,0.211
			c-0.102,0.134-0.184,0.21-0.247,0.228c-0.064,0.019-0.157-0.008-0.281-0.076c-0.119,0.068-0.45,0.18-0.994,0.334
			c-0.225,0.064-0.379,0.127-0.467,0.186c-0.128,0.035-0.213,0.045-0.254,0.021c-0.055,0.052-0.152,0.104-0.291,0.161
			c-0.14,0.059-0.232,0.127-0.278,0.209c-0.104-0.004-0.236,0.017-0.397,0.063c-0.096,0.027-0.237,0.075-0.425,0.146
			c-0.188,0.07-0.313,0.115-0.378,0.134c-0.097,0.026-0.258,0.039-0.482,0.032c-0.228-0.004-0.409-0.004-0.546,0l-0.145,0.041
			l-0.063-0.034c-0.032,0.009-0.063,0.019-0.096,0.026l-0.097,0.027c-0.096,0.027-0.249,0.038-0.459,0.027
			c-0.212-0.01-0.363,0-0.46,0.027c-0.604,0.066-0.962,0.082-1.077,0.047l-0.185-0.104c-0.233,0.032-0.574-0.13-1.021-0.488
			c-0.277-0.371-0.465-0.664-0.561-0.879l-0.178-0.625l-0.075-0.082l0.034-0.062c-0.009-0.031-0.019-0.063-0.027-0.097
			c-0.046-0.16-0.094-0.268-0.144-0.322c0.229-0.653,0.562-1.127,0.995-1.424c0.031-0.01,0.109-0.041,0.232-0.094
			c0.124-0.053,0.213-0.104,0.27-0.152l0.145-0.041c0.031-0.01,0.108-0.041,0.232-0.094c0.123-0.053,0.217-0.088,0.279-0.105
			c0.098-0.027,0.182-0.033,0.255-0.02c0.175-0.119,0.341-0.201,0.5-0.248c0.192-0.055,0.362-0.067,0.509-0.039
			c0.088-0.061,0.321-0.145,0.706-0.254l0.191-0.055c0.031-0.009,0.101-0.045,0.203-0.109c0.104-0.063,0.187-0.104,0.25-0.123
			l0.24-0.068c0.127-0.036,0.218-0.113,0.271-0.232c0.052-0.117,0.09-0.197,0.113-0.24c0.021-0.039,0.066-0.096,0.135-0.166
			c0.064-0.071,0.109-0.127,0.133-0.168c0.111-1.07,0.141-1.701,0.086-1.895c-0.047-0.158-0.105-0.246-0.179-0.26
			c-0.101-0.596-0.58-1.186-1.438-1.771c-0.114-0.037-0.309-0.103-0.576-0.199c-0.271-0.096-0.461-0.162-0.576-0.2
			c-0.063,0.019-0.115,0.024-0.15,0.017c-0.036-0.005-0.087,0-0.15,0.018c-0.091-0.078-0.2-0.098-0.329-0.063
			c-0.1-0.107-0.209-0.129-0.328-0.063c-0.06-0.086-0.251-0.152-0.576-0.199c-0.475-0.21-0.839-0.331-1.09-0.363
			c-0.041-0.023-0.071-0.066-0.09-0.131c-0.104-0.004-0.245-0.042-0.421-0.113c-0.176-0.07-0.3-0.113-0.373-0.128l-0.027-0.096
			c-0.042-0.023-0.064-0.05-0.075-0.082c-0.124-0.069-0.323-0.16-0.598-0.271c-0.272-0.112-0.468-0.187-0.582-0.224
			c-0.11-0.141-0.461-0.405-1.055-0.79c-0.15-0.165-0.243-0.242-0.273-0.233l-0.055-0.192c-0.207-0.114-0.318-0.203-0.337-0.269
			l-0.041-0.144c-0.009-0.031-0.07-0.126-0.186-0.284c-0.113-0.157-0.18-0.269-0.197-0.333c-0.513-0.582-0.822-0.942-0.933-1.085
			c-0.118-0.173-0.19-0.309-0.218-0.404c-0.019-0.064-0.015-0.169,0.013-0.315c-0.06-0.087-0.115-0.227-0.171-0.419
			c-0.127-0.448-0.157-0.854-0.087-1.221c-0.046-0.16-0.032-0.354,0.041-0.583l-0.055-0.192c0.018-0.177,0.085-0.403,0.196-0.678
			c0.111-0.273,0.177-0.5,0.196-0.679c0.183-0.329,0.269-0.577,0.254-0.748c0.031-0.009,0.115-0.137,0.254-0.384
			c0.021-0.04,0.084-0.127,0.188-0.26c0.099-0.133,0.173-0.24,0.218-0.322l0.049-0.014c0.023-0.041,0.052-0.066,0.082-0.076
			c0.047-0.083,0.151-0.199,0.316-0.35c0.165-0.15,0.271-0.265,0.315-0.349c0.117-0.068,0.29-0.194,0.516-0.38
			c0.223-0.185,0.411-0.316,0.563-0.394c0.036-0.114,0.15-0.199,0.345-0.254l0.238-0.068c0.056-0.049,0.126-0.105,0.213-0.165
			c0.088-0.057,0.143-0.108,0.164-0.15l0.192-0.055l0.392-0.267C29.646,55.033,29.896,54.943,30.281,54.834z"/>
		<path fill="#BE1E2D" d="M49.343,50.865c0.096-0.027,0.541-0.102,1.336-0.225c0.033-0.01,0.106-0.022,0.224-0.037
			c0.116-0.017,0.206-0.034,0.271-0.052l0.063,0.034l0.05-0.014c0.223-0.064,0.358-0.068,0.41-0.013
			c1.258-0.323,2.471-0.496,3.643-0.518c0.009,0.032,0.054,0.071,0.137,0.117l0.137,0.117l0.289-0.082
			c0.163,0.091,0.256,0.169,0.272,0.232c0.096-0.027,0.204-0.015,0.322,0.038c0.12,0.054,0.21,0.07,0.273,0.052
			c0.02,0.065,0.072,0.135,0.165,0.212c0.09,0.08,0.146,0.149,0.164,0.214l-0.24,0.432c-0.047,0.083-0.17,0.378-0.371,0.885
			c-0.406,0.393-0.698,0.648-0.871,0.766l-0.145,0.041c-0.32,0.091-0.57,0.249-0.748,0.472c-0.32,0.091-0.911,0.329-1.771,0.712
			c-0.023,0.04-0.07,0.09-0.142,0.144c-0.07,0.055-0.117,0.103-0.141,0.145c0.26,0.548,0.395,0.839,0.404,0.871
			c0.063,0.225,0.056,0.382-0.022,0.473c0.019,0.065,0.057,0.139,0.116,0.227c0.06,0.087,0.094,0.146,0.103,0.179
			c0.009,0.031,0.007,0.11-0.01,0.236c-0.016,0.126-0.011,0.236,0.017,0.332c0.037,0.129,0.157,0.371,0.362,0.728
			c0.009,0.033,0.003,0.069-0.021,0.109l0.026,0.097c0.019,0.064,0.063,0.163,0.138,0.299c0.071,0.135,0.118,0.233,0.137,0.298
			c0.01,0.032,0.004,0.104-0.018,0.213c-0.021,0.109-0.025,0.181-0.019,0.212c0.01,0.033,0.032,0.087,0.072,0.161
			c0.039,0.076,0.066,0.146,0.086,0.21c0.045,0.16,0.049,0.418,0.013,0.774l0.227,0.248c-0.006,0.104,0.029,0.319,0.104,0.644
			c0.074,0.325,0.084,0.565,0.024,0.721l0.096,0.336c0.046,0.161,0.094,0.362,0.146,0.607c0.051,0.244,0.097,0.432,0.133,0.559
			c0.063,0.225,0.13,0.396,0.198,0.515c0.011,0.032,0.075,0.082,0.199,0.151c0.048,0.056,0.063,0.104,0.04,0.144l-0.007,0.157
			c0.142,0.134,0.234,0.279,0.28,0.439c0.072,0.258,0.089,0.494,0.048,0.714c0.085,0.184,0.121,0.312,0.108,0.384
			c0.072,0.014,0.143,0.134,0.205,0.356c0.01,0.032,0.022,0.081,0.041,0.145l0.075,0.083c0.02,0.063,0.013,0.169-0.015,0.314
			l0.076,0.083c0.018,0.063,0.03,0.112,0.041,0.144c0.018,0.065,0.021,0.142,0.014,0.229c-0.01,0.09-0.01,0.15,0,0.183
			c0.049,0.056,0.111,0.098,0.191,0.127c0.075,0.029,0.119,0.061,0.129,0.093c-0.004,0.104,0.031,0.233,0.108,0.384
			c0.078,0.152,0.11,0.264,0.097,0.336c-0.015,0.072-0.039,0.166-0.075,0.281c-0.038,0.113-0.05,0.188-0.041,0.219
			c0.009,0.033,0.036,0.066,0.082,0.105c0.044,0.041,0.072,0.076,0.082,0.106l0.067,0.241c0.063,0.224,0.084,0.478,0.063,0.761
			c0.199,0.221,0.332,0.44,0.396,0.665l0.007,0.206c0.04,0.022,0.12,0.243,0.239,0.659c0.027,0.096,0.097,0.213,0.205,0.355
			s0.178,0.262,0.205,0.357c0.037,0.127,0.021,0.253-0.049,0.375c-0.022,0.043-0.084,0.103-0.182,0.183
			c-0.101,0.08-0.15,0.173-0.155,0.276c-0.031,0.01-0.113,0.06-0.243,0.148c-0.13,0.088-0.243,0.146-0.339,0.174
			c-0.047,0.082-0.419,0.414-1.12,0.992l-0.919,0.418c-0.031,0.01-0.07,0.028-0.113,0.059c-0.043,0.031-0.081,0.05-0.113,0.059
			c-0.063,0.02-0.188,0.037-0.372,0.055c-0.187,0.02-0.325,0.041-0.424,0.067l-0.178,0.104c-0.411,0.013-0.648,0.027-0.713,0.047
			l-0.097,0.027c-0.246-0.138-0.442-0.22-0.589-0.248c-0.043-0.021-0.161-0.109-0.359-0.263c-0.199-0.149-0.372-0.239-0.52-0.269
			c-0.026-0.096-0.081-0.166-0.164-0.211c-0.657-0.366-1.051-0.773-1.179-1.223c-0.045-0.16-0.089-0.25-0.129-0.275
			c-0.041-0.021-0.051-0.053-0.027-0.096l0.038-0.06c-0.123-0.067-0.208-0.183-0.253-0.345l-0.149-0.526
			c-0.01-0.032-0.002-0.067,0.021-0.108s0.03-0.078,0.021-0.111c-0.01-0.03-0.047-0.071-0.113-0.123
			c-0.066-0.051-0.104-0.092-0.113-0.123c-0.418-1.715-0.637-2.725-0.653-3.032c-0.02-0.063,0-0.12,0.056-0.171
			c-0.009-0.031-0.007-0.05,0.011-0.055c0.017-0.005,0.02-0.022,0.01-0.056c-0.114-0.035-0.126-0.136-0.033-0.301l-0.097,0.027
			c-0.063,0.019-0.102,0.012-0.109-0.021l-0.227-0.975c-0.009-0.031,0.007-0.071,0.046-0.116c0.039-0.046,0.054-0.085,0.044-0.116
			c-0.009-0.032-0.033-0.06-0.074-0.082c-0.041-0.023-0.065-0.051-0.075-0.084c-0.009-0.03-0.068-0.266-0.173-0.702
			c-0.107-0.438-0.153-0.744-0.134-0.923c-0.01-0.031-0.035-0.06-0.075-0.082l-0.027-0.096c-0.051-0.298-0.161-0.75-0.334-1.359
			l-0.697-2.448c-0.025-0.096-0.042-0.239-0.044-0.429c-0.002-0.188-0.017-0.333-0.044-0.429c0.013-0.072,0.007-0.217-0.021-0.435
			c-0.027-0.218,0.003-0.355,0.09-0.416c-0.139-0.236-0.215-0.388-0.233-0.452c-0.018-0.064-0.019-0.219-0.003-0.467
			c0.018-0.246,0.027-0.422,0.032-0.527c0.004-0.104-0.009-0.239-0.037-0.405c-0.029-0.164-0.043-0.299-0.039-0.404
			c0.085-0.439,0.117-0.689,0.099-0.755c-0.188-0.05-0.521-0.042-1.005,0.027c-0.481,0.069-0.821,0.061-1.018-0.021l-0.146,0.041
			c-0.19,0.055-0.33,0.059-0.411,0.014c-0.32,0.091-0.498,0.072-0.534-0.056l-0.288,0.082c-0.115-0.038-0.352-0.074-0.706-0.112
			c-0.356-0.035-0.613-0.084-0.77-0.144l-0.026-0.097c-0.027-0.096-0.043-0.212-0.048-0.351c-0.005-0.135-0.012-0.221-0.021-0.253
			l0.673-0.917c0.064-0.018,0.15-0.085,0.254-0.203c0.105-0.114,0.225-0.192,0.352-0.228c0.033-0.009,0.061,0,0.086,0.027
			c0.024,0.028,0.069,0.032,0.135,0.014c0.689-0.369,1.1-0.572,1.228-0.609l0.145-0.041c0.256-0.314,0.641-0.545,1.152-0.691
			c0.079-0.092,0.229-0.168,0.453-0.233l0.336-0.095l0.584-0.321c0.063-0.019,0.13-0.029,0.196-0.031
			c0.07-0.002,0.137-0.012,0.201-0.03c0.03-0.009,0.076-0.031,0.137-0.065c0.06-0.034,0.104-0.056,0.139-0.064l0.384-0.109
			c0.352-0.1,0.628-0.162,0.83-0.185C48.962,50.99,49.118,50.93,49.343,50.865z"/>
		<path fill="#231F20" d="M66.086,45.323l0.526-0.15c1.039-0.365,1.977-0.597,2.813-0.696c0.032-0.009,0.077-0.004,0.134,0.014
			c0.058,0.02,0.104,0.022,0.135,0.014c0.137-0.003,0.298-0.016,0.483-0.033c0.185-0.018,0.334-0.009,0.448,0.027
			c0.009,0.032,0.055,0.072,0.137,0.116c0.031-0.009,0.103-0.01,0.207-0.006c0.104,0.005,0.193,0.015,0.267,0.028
			c0.188,0.05,0.434,0.18,0.733,0.388c0.301,0.209,0.541,0.322,0.719,0.34l0.747,0.981c0.414,0.608,0.646,0.994,0.691,1.153
			c0.108,0.384,0.205,0.599,0.288,0.645c-0.006,0.105,0.015,0.239,0.061,0.398c0.109,0.384,0.293,0.608,0.556,0.673
			c0.025,0.096,0.04,0.205,0.039,0.325c0.001,0.122,0.01,0.214,0.027,0.277c0.01,0.033,0.048,0.074,0.113,0.125
			c0.065,0.05,0.107,0.107,0.126,0.171c0.01,0.032,0.012,0.1,0.007,0.206c-0.004,0.104,0.002,0.189,0.021,0.253l0.026,0.097
			c0.02,0.064,0.07,0.093,0.154,0.085c0.085-0.005,0.132,0.007,0.141,0.039c0.009,0.031,0.014,0.074,0.011,0.127
			c-0.003,0.052,0.002,0.094,0.011,0.126c0.026,0.096,0.089,0.225,0.188,0.387c0.1,0.163,0.157,0.276,0.177,0.341l0.026,0.096
			c0.009,0.031,0.005,0.084-0.007,0.157c-0.016,0.073-0.013,0.143,0.006,0.206c0.036,0.128,0.043,0.212,0.021,0.252
			c0.082,0.047,0.163,0.18,0.242,0.399c0.08,0.22,0.161,0.353,0.243,0.397c-0.004,0.104,0.017,0.238,0.063,0.396
			c0.063,0.225,0.176,0.437,0.335,0.632c-0.005,0.104,0.028,0.286,0.103,0.542c0.091,0.32,0.07,0.551-0.063,0.692
			c0.009,0.032,0.029,0.078,0.063,0.137c0.034,0.061,0.059,0.106,0.066,0.139c0.054,0.191,0.015,0.358-0.118,0.5l0.137,0.48
			c0.092,0.32,0.106,0.558,0.047,0.712c0.011,0.032,0.068,0.119,0.179,0.261c0.006,0.137,0.016,0.237,0.034,0.302
			c0.051,0.055,0.094,0.146,0.13,0.274s0.092,0.2,0.164,0.212c-0.097,0.027-0.174,0.12-0.232,0.275
			c0.027,0.096,0.104,0.212,0.229,0.35c0.126,0.137,0.201,0.254,0.229,0.35c0.009,0.032,0.004,0.102-0.017,0.212
			c-0.021,0.111-0.022,0.196-0.004,0.261l0.026,0.096c0.036,0.129,0.115,0.288,0.238,0.477c0.124,0.19,0.194,0.317,0.212,0.381
			c0.093,0.078,0.201,0.186,0.326,0.322c0.125,0.138,0.218,0.249,0.276,0.337c0.109,0.384,0.413,0.722,0.911,1.013
			c0.498,0.29,0.771,0.463,0.822,0.518c0.055-0.048,0.162-0.098,0.322-0.144c0.289-0.082,0.515-0.075,0.68,0.015
			c0.045,0.16,0.123,0.346,0.235,0.556c0.111,0.21,0.181,0.364,0.208,0.46c0.019,0.064,0.022,0.202,0.014,0.411
			c-0.014,0.074-0.044,0.152-0.088,0.233c-0.048,0.083-0.065,0.14-0.057,0.171c-0.022,0.042-0.033,0.097-0.03,0.165
			c0.001,0.069,0.008,0.119,0.017,0.151c-0.115,0.206-0.159,0.355-0.132,0.452c-0.314,0.471-0.486,0.779-0.514,0.925l-0.098,0.027
			c-0.128,0.036-0.279,0.141-0.456,0.312c-0.177,0.171-0.328,0.275-0.455,0.312c-0.065,0.018-0.108,0.048-0.133,0.089
			c-0.26,0.178-0.454,0.285-0.582,0.322c-0.191,0.055-0.329,0.06-0.412,0.014c-0.271,0.146-0.659,0.206-1.169,0.176
			c-0.511-0.027-0.86-0.135-1.053-0.322c-0.272,0.008-0.688-0.168-1.241-0.529c-0.358-0.175-0.57-0.306-0.63-0.393l-0.088-0.13
			c-0.061-0.086-0.111-0.141-0.15-0.165c-0.042-0.021-0.196-0.082-0.467-0.178c-0.139,0.246-0.255,0.382-0.351,0.41
			c-0.065,0.019-0.117,0.017-0.157-0.006l0.095,0.336c-0.055,0.051-0.166,0.177-0.333,0.379c-0.167,0.205-0.313,0.324-0.441,0.36
			c-0.032,0.009-0.034,0.063-0.007,0.158l0.041,0.144c-0.274,0.25-0.467,0.496-0.57,0.732c-0.161,0.046-0.344,0.159-0.553,0.34
			c-0.207,0.181-0.394,0.293-0.553,0.339l-0.144,0.041c-0.197,0.161-0.473,0.291-0.823,0.391l-0.289,0.082
			c-0.03,0.008-0.085,0.008-0.156-0.008l-0.05,0.014l-0.384,0.109l-0.474-0.021c-0.274,0.01-0.437-0.014-0.486-0.067
			c-0.041-0.022-0.072-0.015-0.096,0.026s-0.052,0.066-0.082,0.076l-0.247-0.14c-0.17,0.017-0.384-0.011-0.646-0.075
			c-0.261-0.063-0.407-0.092-0.438-0.082c-0.041-0.022-0.215-0.086-0.521-0.188c-0.306-0.103-0.523-0.206-0.657-0.308
			c-0.288,0.082-0.615,0.09-0.98,0.021L64.776,69c-0.041-0.021-0.173-0.123-0.396-0.303c-0.083-0.045-0.214-0.111-0.396-0.199
			c-0.18-0.086-0.331-0.156-0.448-0.209c-0.119-0.053-0.214-0.139-0.281-0.258c-0.114-0.035-0.436-0.309-0.959-0.818
			c-0.009-0.03-0.078-0.029-0.206,0.007c0.015-0.073,0.009-0.123-0.017-0.15c-0.025-0.027-0.044-0.057-0.053-0.089l-0.108-0.021
			l-0.109-0.021c-0.052-0.054-0.179-0.174-0.387-0.357c-0.208-0.182-0.339-0.371-0.395-0.563c-0.026-0.097-0.066-0.171-0.117-0.226
			l-0.061-0.034c-0.042-0.023-0.067-0.051-0.076-0.083l-0.041-0.145c-0.063-0.224-0.198-0.453-0.402-0.689
			c-0.205-0.234-0.327-0.417-0.363-0.546c-0.027-0.096-0.046-0.22-0.056-0.373c-0.009-0.154-0.021-0.261-0.04-0.327
			c-0.02-0.063-0.061-0.121-0.127-0.171c-0.065-0.05-0.107-0.107-0.127-0.172l-0.185-0.467c-0.019-0.063-0.035-0.152-0.051-0.271
			c-0.018-0.115-0.028-0.19-0.038-0.223c-0.013-0.169-0.066-0.448-0.16-0.837c-0.093-0.388-0.146-0.666-0.16-0.836l0.083-0.076
			c0.031-0.009,0.043-0.029,0.034-0.062c0.013-0.072-0.016-0.116-0.089-0.131c-0.073-0.013-0.115-0.036-0.124-0.068
			c0.005-0.105-0.021-0.469-0.077-1.094c-0.056-0.623-0.062-1.098-0.015-1.422c0.063-0.018,0.105-0.048,0.129-0.089
			c0.022-0.042,0.035-0.089,0.039-0.142c0.002-0.052,0.014-0.098,0.037-0.141c-0.019-0.063-0.049-0.107-0.089-0.13
			c-0.083-0.045-0.129-0.083-0.138-0.116c-0.056-0.192-0.023-0.391,0.09-0.598c-0.082-0.287-0.077-0.513,0.015-0.677l-0.027-0.096
			c-0.027-0.097,0.015-0.437,0.125-1.022c0.042-0.219,0.077-0.334,0.11-0.343c-0.033,0.009-0.063-0.036-0.089-0.131
			c0.1-0.131,0.175-0.386,0.224-0.763c0.049-0.378,0.134-0.652,0.259-0.826c0.072-0.713,0.27-1.305,0.584-1.776
			c-0.027-0.096-0.026-0.216,0.001-0.363c0.022-0.04,0.055-0.109,0.096-0.209c0.041-0.097,0.068-0.183,0.082-0.257l0.24-0.068
			c0.078-0.091,0.229-0.263,0.45-0.517c0.222-0.253,0.403-0.435,0.546-0.545c0.014-0.073,0.041-0.158,0.082-0.256
			c0.041-0.098,0.073-0.168,0.097-0.209c0.056-0.049,0.104-0.063,0.145-0.041c0.143-0.109,0.313-0.297,0.516-0.563
			c0.056-0.049,0.133-0.142,0.232-0.273c0.102-0.132,0.194-0.228,0.281-0.288c0.057-0.049,0.143-0.109,0.262-0.178
			c0.119-0.067,0.206-0.128,0.262-0.178l0.295-0.24c0.521-0.356,0.793-0.554,0.816-0.595c0.04,0.023,0.108,0.021,0.205-0.007
			c0.128-0.036,0.237-0.136,0.33-0.301c0.03-0.009,0.094-0.035,0.186-0.079c0.091-0.042,0.174-0.058,0.246-0.044
			C65.56,45.542,65.766,45.414,66.086,45.323z M66.427,52.908c-0.325,0.196-0.604,0.43-0.838,0.705
			c0.009,0.032-0.003,0.08-0.037,0.142s-0.031,0.104,0.01,0.127c-0.348,0.236-0.547,0.449-0.598,0.637
			c0.018,0.064,0.013,0.135-0.018,0.212c-0.029,0.079-0.039,0.134-0.031,0.164c-0.021,0.042-0.034,0.123-0.033,0.244
			c-0.002,0.122-0.024,0.224-0.069,0.306l0.104,0.178c-0.119,0.068-0.15,0.198-0.097,0.392c0.127,0.448,0.19,0.793,0.19,1.036
			c0.073,0.013,0.128,0.084,0.164,0.212c0.009,0.031,0.007,0.085-0.007,0.157c-0.015,0.073-0.026,0.155-0.034,0.244
			c-0.011,0.089-0.009,0.15,0,0.181c0.04,0.024,0.075,0.083,0.103,0.18c0.02,0.064,0.021,0.167,0.011,0.309
			c-0.012,0.142-0.01,0.244,0.01,0.308c0.036,0.129,0.146,0.218,0.336,0.268c-0.006,0.105,0.074,0.204,0.239,0.296
			c-0.046,0.083-0.056,0.206-0.024,0.37c0.029,0.166,0.006,0.293-0.072,0.384c0.101,0.11,0.169,0.229,0.205,0.357
			c0.02,0.063,0.021,0.201,0.015,0.411c0.01,0.032,0.049,0.056,0.123,0.068c0.071,0.014,0.113,0.038,0.123,0.068
			c-0.015,0.074,0.057,0.141,0.212,0.2c0.042,0.022,0.082,0.045,0.124,0.068c0.041,0.022,0.063,0.042,0.067,0.059
			c0.005,0.016,0.027,0.035,0.068,0.058c0.01,0.033,0.052,0.063,0.13,0.093c0.078,0.03,0.126,0.077,0.144,0.141
			c0.037,0.129,0.054,0.245,0.049,0.351c0.072,0.013,0.164,0.057,0.271,0.13c0.106,0.074,0.197,0.117,0.271,0.131l0.19,0.673
			c0.072,0.013,0.217,0.033,0.433,0.059c0.215,0.026,0.38,0.057,0.493,0.093c0.05,0.054,0.285,0.092,0.705,0.109
			c0.011,0.033,0.045,0.039,0.109,0.021c0.033-0.009,0.07,0,0.11,0.022c0.105,0.004,0.236-0.016,0.397-0.063
			c0.21,0.01,0.331,0.01,0.362,0.001c0.033-0.009,0.076-0.04,0.131-0.09c0.055-0.05,0.114-0.084,0.18-0.103l-0.041-0.145
			c0.303-0.396,0.477-0.757,0.521-1.083c0.022-0.039,0.062-0.086,0.116-0.137l0.084-0.075l-0.063-0.034l-0.014-0.049
			c-0.027-0.096,0.027-0.267,0.165-0.514l-0.015-0.048c-0.035-0.128,0.027-0.268,0.192-0.419c-0.083-0.044-0.113-0.088-0.089-0.13
			c0.045-0.082,0.065-0.191,0.062-0.329c-0.019-0.063-0.02-0.131-0.007-0.205c-0.009-0.032,0.01-0.089,0.057-0.171
			c0.046-0.082,0.075-0.16,0.089-0.234c0.119-0.552,0.166-0.877,0.139-0.974c-0.009-0.273,0.015-0.436,0.069-0.486
			c-0.097,0.027-0.153,0.008-0.171-0.055c-0.047-0.161-0.015-0.29,0.096-0.39c-0.102-0.353-0.122-0.674-0.067-0.968
			c-0.096,0.027-0.151,0.009-0.171-0.055c0.004-0.104-0.039-0.256-0.13-0.456c-0.093-0.198-0.136-0.351-0.13-0.456
			c-0.009-0.032,0.002-0.052,0.034-0.062c0.03-0.009,0.044-0.03,0.034-0.061c-0.01-0.032-0.019-0.064-0.027-0.098l-0.063-0.035
			c-0.009-0.03,0.021-0.109,0.09-0.232c-0.01-0.031-0.022-0.08-0.041-0.145l-0.075-0.082l0.034-0.062
			c-0.019-0.063-0.031-0.112-0.041-0.144l-0.164-0.577c-0.117-0.415-0.23-0.694-0.342-0.837l0.034-0.062l0.034-0.062
			c-0.138,0.005-0.273-0.112-0.411-0.35l-0.384,0.109l-0.185-0.104l-0.098,0.027c-0.128,0.037-0.294,0.032-0.497-0.014
			c-0.204-0.046-0.353-0.056-0.447-0.028l-0.181,0.103c-0.083-0.045-0.153-0.06-0.219-0.041l-0.192,0.055
			c-0.19,0.055-0.331,0.112-0.418,0.171l-0.247-0.138l-0.145,0.041c-0.16,0.045-0.343,0.072-0.548,0.078
			C66.673,52.863,66.522,52.88,66.427,52.908z"/>
		<path fill="#231F20" d="M80.3,40.189c0.127-0.036,0.25-0.036,0.363,0.001l0.384-0.109c0.092,0.077,0.247,0.137,0.467,0.178
			c0.219,0.042,0.369,0.086,0.452,0.131c0.031-0.009,0.098-0.019,0.198-0.03c0.102-0.011,0.146-0.033,0.138-0.065
			c0.019,0.065,0.086,0.115,0.199,0.151c0.112,0.037,0.194,0.083,0.247,0.138c0.127-0.036,0.231-0.031,0.313,0.014
			c0.164,0.093,0.282,0.145,0.356,0.158l0.082,0.288c0.097-0.027,0.178-0.077,0.244-0.147c0.064-0.07,0.127-0.156,0.186-0.261
			c0.057-0.102,0.112-0.178,0.168-0.229c0.031-0.009,0.094-0.035,0.186-0.078s0.147-0.084,0.173-0.127
			c0.978-0.693,1.563-1.068,1.756-1.123c0.097-0.027,0.25-0.062,0.463-0.106c0.213-0.042,0.367-0.078,0.463-0.105
			c0.097-0.027,0.23-0.073,0.401-0.14c0.171-0.065,0.306-0.113,0.4-0.14l0.24-0.069c0.594-0.099,1.015-0.08,1.262,0.058
			c0.063-0.019,0.125-0.019,0.183,0c0.057,0.018,0.102,0.022,0.134,0.014c0.132,0.102,0.454,0.226,0.964,0.374
			c0.509,0.149,0.848,0.339,1.017,0.566c0.073,0.016,0.146,0.029,0.221,0.042c0.073,0.014,0.13,0.033,0.172,0.055
			c0.068,0.12,0.193,0.258,0.376,0.412l0.321,0.22c0.01,0.032,0.013,0.075,0.011,0.126c-0.003,0.053,0.001,0.096,0.01,0.126
			c0.042,0.024,0.107,0.041,0.195,0.05c0.089,0.008,0.155,0.025,0.196,0.048c0.046,0.16,0.155,0.25,0.336,0.268l0.082,0.288
			c0.01,0.032,0.074,0.082,0.197,0.15c0.086,0.184,0.253,0.405,0.5,0.662c0.247,0.26,0.397,0.485,0.452,0.677
			c0.123,0.068,0.213,0.198,0.269,0.391c0.045,0.161,0.042,0.334-0.01,0.521c0.011,0.032,0.072,0.161,0.188,0.388
			s0.193,0.404,0.229,0.531l0.041,0.145c0.01,0.032,0.001,0.095-0.023,0.188c-0.025,0.093-0.029,0.173-0.011,0.236l0.04,0.145
			c0.02,0.064,0.025,0.122,0.024,0.174c-0.004,0.053-0.016,0.1-0.039,0.141c-0.021,0.041-0.024,0.094-0.007,0.157
			c-0.005,0.347-0.024,0.525-0.056,0.534l0.082,0.289c0.108,0.384,0.166,0.766,0.17,1.145c-0.11,0.101-0.182,0.155-0.213,0.165
			c-0.006,0.104-0.033,0.278-0.087,0.517c-0.053,0.241-0.071,0.445-0.06,0.614c-0.021,0.042-0.081,0.136-0.178,0.284
			c-0.098,0.15-0.172,0.249-0.228,0.298l0.063,0.035c0.019,0.064,0.032,0.112,0.041,0.145c-0.134,0.143-0.256,0.376-0.371,0.702
			c-0.115,0.327-0.223,0.558-0.322,0.689l0.062,0.034c0.01,0.032,0.02,0.064,0.026,0.096c0.021,0.064-0.029,0.2-0.145,0.404
			c-0.115,0.449-0.199,0.697-0.254,0.748c0.025,0.096,0.051,0.21,0.069,0.343c0.021,0.133,0.041,0.23,0.06,0.295
			c0.037,0.128,0.08,0.219,0.13,0.274c0.019,0.064-0.004,0.104-0.068,0.123c-0.014,0.074-0.016,0.126-0.007,0.158
			c0.02,0.063,0.086,0.183,0.205,0.356c-0.037,0.115-0.018,0.334,0.058,0.658c0.075,0.325,0.067,0.57-0.023,0.734
			c0.117,0.173,0.187,0.293,0.205,0.356c0.026,0.096,0.028,0.166,0.006,0.205c0.672,0.779,1.052,1.207,1.145,1.284l0.027,0.096
			c0.027,0.097,0.086,0.184,0.178,0.261c0.091,0.078,0.143,0.134,0.15,0.165l0.014,0.048c-0.014,0.074-0.016,0.127-0.007,0.158
			c0.22,0.041,0.412,0.108,0.576,0.199c0.04,0.023,0.07,0.066,0.089,0.13c0.105,0.006,0.218,0.068,0.34,0.188
			c0.12,0.123,0.217,0.19,0.291,0.204l-0.021,0.109c0.036,0.128,0.188,0.241,0.459,0.336c0.019,0.065,0.031,0.113,0.04,0.144
			c-0.045,0.084-0.05,0.137-0.008,0.159c0.041,0.023,0.157,0.007,0.35-0.047c0.306,0.224,0.492,0.448,0.557,0.672
			c0.081,0.046,0.181,0.148,0.294,0.306c0.114,0.159,0.196,0.265,0.246,0.319c-0.097,0.512-0.244,0.848-0.439,1.008
			c0.026,0.096,0.028,0.164,0.007,0.205c-0.205,0.128-0.327,0.249-0.363,0.363c-0.493,0.21-1.269,0.465-2.325,0.766
			c-0.371-0.206-0.736-0.274-1.097-0.207l-0.055-0.192c-0.065,0.018-0.154,0.01-0.27-0.027c-0.113-0.037-0.223-0.058-0.329-0.063
			c-0.348-0.248-0.749-0.444-1.206-0.591l-0.041-0.145c-0.282-0.022-0.555-0.188-0.815-0.494c-0.177-0.019-0.395-0.078-0.646-0.179
			c-0.255-0.101-0.418-0.158-0.491-0.172c-0.128,0.036-0.254,0.021-0.377-0.049c-0.041-0.022-0.08-0.098-0.115-0.226
			c-0.064,0.018-0.164,0.002-0.299-0.045c-0.137-0.048-0.255-0.075-0.359-0.08c-0.083-0.045-0.102-0.109-0.055-0.191
			c-0.242,0-0.43-0.103-0.556-0.309l-0.24,0.068c-0.021,0.042-0.024,0.094-0.007,0.157c-0.014,0.074-0.038,0.114-0.067,0.123
			l0.246,0.138c0.026,0.096,0.053,0.219,0.078,0.367c0.022,0.148,0.047,0.255,0.063,0.318c0.01,0.033,0.035,0.061,0.076,0.083
			l0.075,0.083c0.06,0.086,0.115,0.226,0.171,0.419c0.045,0.16,0.108,0.263,0.19,0.308l0.047,0.35
			c0.037,0.128,0.111,0.298,0.224,0.508c0.111,0.211,0.187,0.379,0.223,0.506l0.082,0.289c-0.229,0.412-0.68,0.712-1.352,0.903
			c-1.28,0.364-2.138,0.401-2.565,0.108c-0.411,0.012-0.873-0.151-1.385-0.489c-0.146-0.028-0.239-0.053-0.28-0.076l-0.535-0.419
			c-0.041-0.022-0.087-0.062-0.137-0.116l-0.063-0.035c-0.04-0.022-0.114-0.07-0.223-0.144c-0.107-0.074-0.181-0.121-0.222-0.145
			c-0.207-0.114-0.478-0.399-0.815-0.858c-0.05-0.055-0.117-0.2-0.202-0.436c-0.084-0.235-0.172-0.392-0.263-0.47
			c-0.036-0.127-0.043-0.212-0.021-0.253c-0.156-0.06-0.354-0.385-0.59-0.975c-0.018-0.063-0.063-0.128-0.134-0.195
			c-0.069-0.065-0.108-0.116-0.119-0.148L81.39,58.98c-0.019-0.064-0.006-0.138,0.041-0.22c-0.041-0.022-0.103-0.179-0.185-0.467
			c-0.02-0.063-0.05-0.107-0.089-0.13c0.021-0.042,0.016-0.126-0.021-0.254c-0.082-0.289-0.112-0.453-0.089-0.494
			c-0.041-0.023-0.072-0.073-0.096-0.154c-0.022-0.08-0.043-0.151-0.063-0.216l-0.226-0.249c-0.063-0.223-0.075-0.445-0.033-0.664
			c-0.119-0.175-0.181-0.33-0.187-0.468c0.015-0.072,0.018-0.125,0.009-0.157c-0.02-0.063-0.064-0.164-0.138-0.298
			c-0.073-0.136-0.119-0.235-0.137-0.298c-0.036-0.128-0.021-0.254,0.048-0.377c-0.092-0.079-0.173-0.244-0.246-0.501
			c-0.108-0.385-0.144-0.686-0.102-0.906c-0.009-0.031-0.057-0.07-0.138-0.116l-0.138-0.479c-0.173-0.607-0.228-1.043-0.162-1.303
			c-0.129-0.206-0.265-0.565-0.409-1.077l0.021-0.109c0.022-0.041,0.03-0.078,0.021-0.11L79,49.85
			c-0.009-0.032-0.02-0.064-0.027-0.097c-0.009-0.031-0.023-0.114-0.045-0.247c-0.021-0.133-0.044-0.247-0.071-0.343l-0.055-0.191
			l0.041-0.22c-0.137-0.237-0.228-0.436-0.273-0.596c-0.063-0.224-0.069-0.429-0.02-0.618l-0.014-0.048l-0.076-0.082
			c-0.026-0.096-0.026-0.216,0-0.363c0.026-0.146,0.038-0.236,0.028-0.268l-0.231-0.816c-0.073-0.256-0.111-0.452-0.116-0.589
			l-0.007-0.205l-0.027-0.097c-0.063-0.224-0.072-0.376-0.026-0.46c0.022-0.04,0.014-0.073-0.027-0.096l-0.062-0.034
			c0.014-0.072-0.017-0.237-0.09-0.493c-0.018-0.064-0.021-0.167-0.01-0.31c0.012-0.141,0.015-0.228,0.004-0.261
			c-0.108-0.384-0.142-0.617-0.094-0.699l-0.062-0.034l-0.05,0.014c-0.042-0.022-0.04-0.049,0.004-0.079
			c0.043-0.029,0.062-0.06,0.053-0.093l-0.097-0.336c-0.082-0.287-0.121-0.605-0.115-0.953l0.336-0.096
			c0.318-0.091,0.525-0.218,0.617-0.383c0.072,0.015,0.27-0.025,0.59-0.116l0.206-0.006l0.239-0.068
			c0.032-0.009,0.14-0.057,0.322-0.144C80.085,40.285,80.234,40.208,80.3,40.189z M88.136,42.009
			c-0.649,0.15-1.378,0.392-2.182,0.724c-0.046,0.083-0.123,0.173-0.233,0.274c-0.063,0.019-0.116,0.017-0.157-0.008
			c-0.047,0.083-0.125,0.174-0.232,0.274c-0.11,0.101-0.178,0.171-0.2,0.212c-0.21,0.234-0.343,0.375-0.397,0.424l-0.288,0.082
			c-0.056,0.051-0.095,0.098-0.116,0.138c-0.021,0.042-0.047,0.109-0.072,0.202c-0.025,0.094-0.045,0.178-0.059,0.25
			c-0.023,0.042-0.059,0.104-0.104,0.186l-0.082,0.075l0.123,0.433c0.018,0.063,0.01,0.187-0.024,0.37s-0.055,0.326-0.059,0.432
			c0.021,0.201,0.098,0.525,0.225,0.974c0.129,0.449,0.23,0.748,0.309,0.898l0.055,0.192c0.055,0.192,0.08,0.531,0.08,1.015
			c0.124,0.068,0.214,0.2,0.27,0.392c0.009,0.032-0.007,0.071-0.047,0.117c-0.039,0.046-0.05,0.101-0.031,0.164
			c0.047,0.161,0.159,0.318,0.344,0.474l0.041,0.146c0.073,0.256,0.13,0.395,0.172,0.418l-0.132,0.089
			c-0.064,0.019-0.092,0.044-0.083,0.075l0.124,0.068c0.115,0.038,0.197,0.083,0.247,0.139c0.01,0.031,0.014,0.082,0.018,0.15
			c0.001,0.069,0.008,0.119,0.018,0.15c0.046,0.16,0.17,0.298,0.377,0.412c0.067-0.124,0.251-0.331,0.549-0.624
			c0.297-0.291,0.481-0.551,0.556-0.781c0.619-0.383,0.957-0.894,1.019-1.535c0.077-0.091,0.146-0.24,0.21-0.448
			c0.062-0.208,0.104-0.333,0.126-0.375c0.237-0.135,0.331-0.301,0.275-0.493l-0.026-0.096c0.096-0.027,0.121-0.12,0.074-0.28
			c0.334-0.407,0.528-0.878,0.585-1.412c0.078-0.092,0.144-0.257,0.195-0.498c0.053-0.238,0.135-0.409,0.243-0.509l-0.061-0.034
			c-0.074-0.014-0.114-0.038-0.124-0.07c0.021-0.04,0.042-0.219,0.056-0.535c-0.05-0.054-0.094-0.146-0.131-0.274
			c-0.027-0.096-0.045-0.281-0.055-0.556c-0.009-0.273-0.024-0.459-0.053-0.555c-0.18-0.262-0.33-0.426-0.453-0.495
			c-0.05-0.054-0.187-0.111-0.411-0.168C88.386,42.153,88.227,42.087,88.136,42.009z"/>
	</g>
	<g>
		<path fill="#231F20" d="M47.99,81.328c0.16-0.045,0.322-0.021,0.486,0.069l0.24-0.067c0.319-0.092,0.644-0.045,0.974,0.137
			l0.385-0.108c0.205,0.116,0.29,0.229,0.254,0.345c0.04,0.021,0.076,0.029,0.108,0.021l0.11,0.021
			c-0.047,0.084-0.064,0.139-0.056,0.17c0.009,0.033,0.041,0.059,0.1,0.078c0.058,0.018,0.09,0.043,0.1,0.074
			c0.01,0.032,0.007,0.084-0.007,0.157c-0.015,0.073-0.013,0.142,0.006,0.206l0.426,0.035c0.01,0.031,0.074,0.144,0.198,0.332
			c0.123,0.191,0.202,0.351,0.238,0.479c0.046,0.16,0.019,0.307-0.082,0.438l0.267,0.392l-0.021,0.11l-0.021,0.109
			c0.073,0.256,0.066,0.413-0.021,0.473c0.15,0.164,0.183,0.277,0.096,0.336c0.04,0.023,0.075,0.082,0.104,0.179
			c0.046,0.16-0.004,0.294-0.146,0.403c0.082,0.047,0.214,0.146,0.397,0.303c-0.037,0.113-0.023,0.283,0.041,0.507
			c0.063,0.226,0.057,0.382-0.021,0.474c0.027,0.096,0.065,0.172,0.115,0.227c-0.119,0.311-0.169,0.498-0.151,0.563
			c-0.014,0.073,0.01,0.152,0.069,0.239c0.058,0.087,0.093,0.147,0.102,0.179c0.02,0.064,0.017,0.117-0.007,0.157
			c0.011,0.032,0.055,0.071,0.138,0.117c-0.184,0.329-0.291,0.498-0.322,0.507c0.019,0.064,0.056,0.105,0.113,0.123
			c0.058,0.02,0.09,0.045,0.099,0.075c0.01,0.032-0.005,0.071-0.044,0.116c-0.04,0.047-0.038,0.082,0.003,0.104
			c0.102,0.111,0.16,0.197,0.178,0.262c0.019,0.063,0.016,0.203-0.011,0.418c-0.025,0.215-0.024,0.369,0.004,0.467l0.041,0.144
			c0.009,0.031-0.009,0.063-0.052,0.093c-0.044,0.029-0.045,0.057-0.004,0.078c0.041,0.024,0.089,0.131,0.143,0.322l0.09,0.131
			c0.064,0.225,0.081,0.41,0.056,0.557c0.07,0.498,0.069,0.793-0.009,0.883c0.082,0.048,0.129,0.086,0.138,0.117
			c-0.092,0.166-0.118,0.312-0.082,0.438c0.01,0.033,0.033,0.062,0.075,0.083c-0.028,0.391-0.09,0.666-0.181,0.829
			c0.009,0.032,0.02,0.063,0.027,0.097s0.019,0.064,0.027,0.096l-0.151,0.199l0.068,0.24c0.041,0.021,0.043,0.059,0.004,0.104
			s-0.056,0.084-0.045,0.115l0.041,0.146c-0.052,0.188-0.104,0.308-0.158,0.354c0.081,0.049,0.104,0.127,0.067,0.241
			S52.492,96,52.533,96.022c-0.022,0.042-0.029,0.112-0.017,0.213c0.009,0.101-0.012,0.177-0.066,0.226
			c0.041,0.024,0.06,0.088,0.055,0.192l-0.034,0.062c0.046,0.162,0.057,0.263,0.033,0.304c-0.045,0.082-0.084,0.128-0.116,0.137
			c-0.014,0.074-0.011,0.177,0.01,0.31c0.021,0.133,0.01,0.24-0.037,0.32c-0.15,0.08-0.198,0.213-0.145,0.405
			c0.009,0.032,0.019,0.063,0.027,0.097l0.074,0.082c-0.014,0.072-0.082,0.196-0.207,0.371l0.056,0.19
			c-0.056,0.05-0.096,0.149-0.123,0.296c-0.028,0.146-0.084,0.249-0.172,0.309l0.026,0.096c0.056,0.191-0.005,0.349-0.178,0.466
			c0.018,0.063,0.046,0.108,0.088,0.131c0.041,0.022,0.066,0.051,0.076,0.083c0.018,0.064-0.019,0.15-0.107,0.264
			c-0.09,0.112-0.124,0.2-0.105,0.264c-0.022,0.041-0.031,0.104-0.025,0.188c0.007,0.084-0.007,0.157-0.04,0.22
			c-0.035,0.063-0.079,0.119-0.135,0.168c0.02,0.063-0.009,0.149-0.082,0.258c-0.072,0.106-0.097,0.209-0.069,0.305
			c-0.056,0.051-0.135,0.158-0.242,0.328s-0.21,0.268-0.307,0.295l-0.096,0.027c-0.024,0.041-0.017,0.127,0.02,0.254
			c-0.045,0.082-0.154,0.183-0.328,0.302c-0.093,0.165-0.193,0.298-0.304,0.396l-0.231,0.274c-0.024,0.041-0.1,0.08-0.228,0.116
			c-0.022,0.041-0.104,0.152-0.244,0.33c-0.14,0.177-0.252,0.297-0.34,0.354l-0.144,0.041c-0.032,0.009-0.116,0.024-0.247,0.046
			c-0.133,0.02-0.23,0.038-0.295,0.057c-0.128,0.037-0.222,0.08-0.274,0.129c-0.032,0.011-0.091,0.046-0.179,0.105
			c-0.087,0.061-0.146,0.092-0.178,0.102c-0.152,0.078-0.402,0.168-0.755,0.268c-0.097,0.027-0.247,0.044-0.453,0.051
			c-0.206,0.008-0.372,0.028-0.5,0.064c-0.033,0.01-0.082,0.05-0.147,0.119c-0.066,0.072-0.117,0.111-0.146,0.121
			c-0.12,0.068-0.354,0.152-0.707,0.252c-0.258,0.074-0.438,0.107-0.542,0.104c-0.083-0.045-0.156-0.061-0.222-0.042
			c-0.03,0.009-0.115,0.017-0.252,0.021c-0.139,0.006-0.223,0.012-0.254,0.021c-0.032,0.011-0.116-0.01-0.251-0.06
			c-0.135-0.047-0.238-0.077-0.312-0.092c-0.083-0.047-0.128-0.086-0.138-0.117c-0.063,0.019-0.147,0-0.25-0.059
			c-0.104-0.056-0.201-0.072-0.299-0.046c-0.082-0.044-0.167-0.099-0.254-0.161c-0.087-0.061-0.188-0.119-0.309-0.17
			c-0.118-0.054-0.199-0.092-0.239-0.113c-0.22-0.283-0.407-0.455-0.563-0.517l-0.041-0.144c-0.307-0.227-0.52-0.424-0.638-0.598
			c-0.051-0.056-0.108-0.142-0.178-0.262c-0.069-0.117-0.128-0.206-0.178-0.261c-0.011-0.031-0.044-0.065-0.106-0.101
			c-0.061-0.033-0.119-0.076-0.167-0.134c-0.043-0.022-0.087-0.088-0.134-0.194c-0.049-0.108-0.076-0.178-0.085-0.209
			c-0.052-0.057-0.12-0.115-0.207-0.176c-0.087-0.063-0.135-0.109-0.145-0.142l-0.055-0.192c-0.159-0.197-0.27-0.338-0.328-0.426
			c-0.251-0.273-0.398-0.492-0.444-0.652l-0.027-0.096c-0.283-0.264-0.456-0.51-0.521-0.734l-0.04-0.143
			c-0.01-0.033-0.032-0.052-0.067-0.059c-0.037-0.008-0.061-0.027-0.069-0.06c-0.036-0.127-0.13-0.302-0.278-0.521
			c-0.146-0.215-0.234-0.373-0.263-0.469l-0.028-0.096c-0.107-0.143-0.553-0.794-1.333-1.957L35.63,96.99l-0.109-0.384
			c-0.297-0.437-0.494-0.828-0.596-1.183l-0.04-0.143l-0.014-0.049l-0.075-0.082c-0.062-0.086-0.104-0.238-0.13-0.456
			c-0.028-0.217-0.071-0.368-0.13-0.457c-0.01-0.03-0.039-0.073-0.091-0.13l-0.082-0.288c-0.035-0.127-0.117-0.294-0.245-0.501
			c-0.127-0.205-0.205-0.355-0.232-0.451l-0.041-0.146c-0.082-0.046-0.169-0.167-0.26-0.367c-0.092-0.198-0.178-0.321-0.26-0.367
			l-0.191-0.672c-0.036-0.128-0.094-0.267-0.171-0.418s-0.125-0.259-0.145-0.323c-0.009-0.031-0.01-0.093,0-0.182
			s-0.008-0.145-0.048-0.168l-0.075-0.082c-0.018-0.063-0.03-0.111-0.041-0.145c-0.018-0.064-0.074-0.447-0.17-1.146
			c-0.019-0.063-0.059-0.174-0.118-0.33c-0.063-0.153-0.103-0.265-0.121-0.329l-0.015-0.048l0.035-0.062
			c0.031-0.01,0.026-0.024-0.014-0.049c-0.041-0.022-0.047-0.039-0.015-0.049c0.005-0.104,0.019-0.271,0.038-0.504
			c0.021-0.229,0.028-0.414,0.024-0.552l0.639-0.493c0.031-0.009,0.114-0.085,0.247-0.227s0.227-0.236,0.281-0.289l0.288-0.082
			c0.063-0.018,0.154-0.059,0.273-0.129c0.119-0.067,0.194-0.107,0.228-0.116c0.118-0.067,0.288-0.202,0.508-0.403
			c0.073,0.014,0.157,0.008,0.254-0.021c0.063-0.019,0.158-0.053,0.28-0.105c0.123-0.052,0.234-0.092,0.33-0.119l0.062,0.034
			c0.02,0.063,0.06,0.087,0.124,0.067c0.031-0.008,0.06-0.033,0.082-0.074s0.066-0.07,0.13-0.09
			c0.052,0.056,0.155,0.061,0.315,0.015c0.16-0.045,0.255-0.021,0.282,0.075c0.029-0.01,0.092-0.008,0.181,0
			c0.09,0.01,0.149,0.01,0.182,0.001c0.144,0.132,0.205,0.235,0.192,0.308c0.123,0.069,0.188,0.12,0.198,0.152
			c0.096-0.027,0.236-0.016,0.426,0.033l0.041,0.146c0.1,0.353,0.142,0.563,0.129,0.638c0.183,0.156,0.301,0.33,0.355,0.521
			l0.041,0.145c0.041,0.022,0.099,0.041,0.172,0.056c0.072,0.014,0.113,0.036,0.123,0.067c0.046,0.16,0.061,0.277,0.048,0.351
			c0.01,0.032,0.047,0.075,0.112,0.125c0.066,0.049,0.108,0.106,0.127,0.171c0.286,0.161,0.541,0.504,0.761,1.029
			c0.05,0.056,0.054,0.098,0.01,0.127s-0.061,0.061-0.052,0.093l0.124,0.067c0.081,0.045,0.12,0.088,0.112,0.123
			c-0.009,0.037-0.019,0.092-0.03,0.164c0.204,0.115,0.381,0.187,0.526,0.213c0.082,0.289,0.218,0.459,0.404,0.51l0.026,0.096
			c0.056,0.191,0.141,0.375,0.26,0.549c0.032-0.009,0.08-0.021,0.145-0.041c0.063-0.018,0.103-0.011,0.111,0.021
			c0.181,0.154,0.282,0.266,0.301,0.328c0.123,0.068,0.264,0.193,0.417,0.375c0.155,0.181,0.274,0.295,0.356,0.34
			c0.082,0.287,0.144,0.443,0.185,0.466c-0.014,0.075-0.005,0.166,0.027,0.278c0.032,0.111,0.021,0.193-0.035,0.242
			c0.009,0.033,0.075,0.082,0.199,0.151c-0.015,0.074-0.002,0.175,0.034,0.302c0.118,0.416,0.17,0.662,0.155,0.733
			c0.052,0.058,0.105,0.101,0.168,0.134c0.062,0.034,0.098,0.068,0.105,0.1c-0.012,0.076,0.003,0.19,0.049,0.352
			c0.109,0.385,0.391,0.702,0.842,0.953c0.011,0.033,0.049,0.107,0.116,0.227c0.069,0.121,0.107,0.195,0.116,0.227
			c0.01,0.033,0.045,0.101,0.11,0.203c0.063,0.104,0.114,0.193,0.152,0.268c0.038,0.077,0.079,0.125,0.12,0.146
			c0.02,0.064,0.065,0.111,0.145,0.142s0.142,0.073,0.19,0.127c0.092,0.079,0.183,0.209,0.269,0.392
			c0.086,0.185,0.159,0.318,0.219,0.404c0.055-0.048,0.082-0.134,0.082-0.256c0.001-0.121-0.011-0.256-0.037-0.404
			c-0.024-0.148-0.031-0.259-0.016-0.334c-0.01-0.029,0.008-0.088,0.055-0.171c-0.109-0.625-0.157-1.097-0.144-1.413
			c0.041-0.218,0.059-0.344,0.049-0.375s-0.037-0.318-0.088-0.857l0.035-0.426c0.013-0.072,0.027-0.232,0.045-0.479
			c0.017-0.246,0.021-0.438,0.019-0.576l0.034-0.425c-0.02-0.063-0.04-0.17-0.064-0.318c-0.024-0.15-0.03-0.26-0.018-0.332
			c-0.009-0.031,0.01-0.089,0.055-0.173l-0.041-0.144c-0.046-0.16-0.05-0.297-0.012-0.411c-0.036-0.128-0.072-0.188-0.104-0.181
			c0.015-0.07,0.004-0.197-0.029-0.379c-0.034-0.182-0.029-0.313,0.018-0.395c-0.027-0.098-0.037-0.225-0.029-0.383
			c0.006-0.156-0.004-0.283-0.03-0.379c0.031-0.01,0.041-0.039,0.026-0.086c-0.014-0.049,0.017-0.064,0.09-0.051
			c-0.043-0.023-0.08-0.1-0.115-0.228c-0.073-0.256-0.04-0.438,0.103-0.55c-0.01-0.031-0.034-0.059-0.075-0.082l-0.062-0.034
			c0.005-0.104-0.001-0.276-0.018-0.515c-0.016-0.237-0.006-0.414,0.031-0.527c0.013-0.072,0.043-0.15,0.09-0.232
			c-0.009-0.031-0.023-0.088-0.048-0.168c-0.021-0.08-0.024-0.148-0.007-0.207c0.018-0.057,0.059-0.095,0.124-0.113l-0.027-0.096
			c-0.082-0.287-0.076-0.566,0.021-0.836c-0.036-0.127-0.091-0.199-0.163-0.213c0.014-0.314,0.064-0.555,0.158-0.72
			c0.021-0.041,0.065-0.097,0.133-0.168c0.066-0.071,0.108-0.136,0.129-0.192c0.017-0.057,0.014-0.134-0.014-0.229
			c0.173-0.118,0.253-0.262,0.239-0.432c0.15-0.078,0.283-0.219,0.397-0.424l0.192-0.055c0.03-0.01,0.061-0.087,0.09-0.234
			c0.528-0.322,0.798-0.539,0.803-0.643l0.247-0.227c0.031-0.01,0.077-0.031,0.137-0.064C47.913,81.359,47.959,81.337,47.99,81.328z
			 M46.256,87.634c0.032-0.008,0.067,0,0.109,0.021C46.333,87.666,46.297,87.658,46.256,87.634z"/>
		<path fill="#231F20" d="M53.586,77.089l0.287-0.082l0.329,0.063c0.318-0.091,0.5-0.125,0.542-0.104
			c0.054-0.049,0.161-0.098,0.321-0.143c0.097-0.027,0.272-0.043,0.532-0.049c0.258-0.004,0.449-0.023,0.578-0.061
			c0.115,0.037,0.289,0.072,0.526,0.109c0.232,0.037,0.417,0.071,0.548,0.104c0.13,0.033,0.272,0.113,0.432,0.24
			c0.157,0.129,0.278,0.285,0.366,0.467c0.049,0.055,0.133,0.102,0.246,0.138c0.114,0.039,0.19,0.067,0.232,0.089
			c0.041,0.023,0.086,0.088,0.134,0.197c0.048,0.107,0.076,0.177,0.086,0.208c0.01,0.032,0.033,0.06,0.074,0.083l0.075,0.083
			l0.082,0.288c0.01,0.031,0.07,0.093,0.183,0.182c0.11,0.09,0.177,0.166,0.194,0.23c0.019,0.063,0.049,0.142,0.093,0.232
			c0.044,0.092,0.091,0.166,0.142,0.221c0.019,0.064,0.056,0.139,0.116,0.227c0.059,0.087,0.093,0.146,0.102,0.18l0.041,0.143
			c0.02,0.064,0.035,0.156,0.053,0.271c0.015,0.116,0.027,0.191,0.037,0.223c0.009,0.033,0.055,0.072,0.138,0.117
			c0.018,0.064,0.066,0.18,0.148,0.346c0.083,0.168,0.138,0.3,0.165,0.396c0.127,0.206,0.193,0.378,0.198,0.515
			c0.019,0.064,0.039,0.17,0.063,0.319c0.024,0.147,0.053,0.271,0.079,0.366l0.056,0.191c0.172,0.365,0.281,0.629,0.327,0.789
			c0.056,0.192,0.063,0.346,0.027,0.461c0.009,0.031,0.037,0.074,0.088,0.129c0.051,0.057,0.085,0.115,0.104,0.179
			c0.009,0.032,0.012,0.073,0.01,0.127c-0.002,0.052,0.001,0.097,0.01,0.127l0.075,0.083c0.01,0.032,0.019,0.064,0.027,0.096
			l0.015,0.049c-0.024,0.041-0.03,0.078-0.021,0.109c0.011,0.031,0.038,0.102,0.086,0.209s0.082,0.193,0.1,0.258l0.075,0.082
			c0.05,0.057,0.08,0.1,0.089,0.131c0.019,0.063,0.029,0.166,0.034,0.301c-0.046,0.084-0.06,0.156-0.041,0.221
			c0.01,0.031,0.04,0.109,0.092,0.232c0.053,0.123,0.088,0.218,0.105,0.281c-0.015,0.073-0.016,0.127-0.007,0.158
			c0.01,0.031,0.031,0.111,0.068,0.239c0.036,0.129,0.021,0.2-0.042,0.22c0.143,0.135,0.23,0.264,0.268,0.393
			c0.01,0.031,0.021,0.104,0.037,0.223c0.018,0.117,0.033,0.207,0.052,0.271c-0.047,0.082-0.061,0.155-0.043,0.219
			c0.183,0.883,0.25,1.365,0.205,1.447c0.179,0.262,0.316,0.567,0.417,0.92c0.073,0.256,0.097,0.457,0.068,0.604
			c0.136,0.238,0.228,0.438,0.272,0.598c0.046,0.159,0.046,0.28,0,0.362c0.051,0.056,0.108,0.177,0.182,0.364
			c0.07,0.188,0.115,0.313,0.133,0.377l-0.103,0.185c0.049,0.058,0.094,0.147,0.13,0.274c0.037,0.129,0.063,0.294,0.089,0.494
			c0.021,0.201,0.048,0.35,0.075,0.445l0.055,0.192c-0.051,0.187-0.088,0.301-0.111,0.343c0.082,0.287,0.111,0.453,0.089,0.493
			l0.082,0.289c0.102,0.353,0.126,0.741,0.074,1.171l0.28,0.803c0.128,0.449,0.076,0.756-0.151,0.926
			c0.04,0.022,0.071,0.065,0.089,0.131c0.02,0.064,0.01,0.152-0.026,0.268c-0.038,0.114-0.047,0.203-0.028,0.268
			c-0.046,0.082-0.152,0.26-0.315,0.531c-0.165,0.272-0.318,0.463-0.459,0.571l-0.181,0.103c-0.319,0.334-0.513,0.51-0.575,0.527
			c-0.803,0.229-1.338,0.348-1.611,0.355c-0.033,0.009-0.122-0.002-0.269-0.027c-0.146-0.027-0.257-0.048-0.329-0.063
			c-0.031,0.008-0.131-0.033-0.295-0.125c-0.476,0.033-0.854-0.086-1.139-0.352c-0.169,0.016-0.35-0.046-0.544-0.182
			c-0.194-0.135-0.313-0.215-0.354-0.237c-0.068-0.117-0.198-0.271-0.392-0.46c-0.191-0.188-0.321-0.34-0.391-0.46
			c-0.051-0.056-0.101-0.136-0.146-0.243c-0.049-0.105-0.082-0.193-0.1-0.257c-0.119-0.175-0.191-0.31-0.22-0.405l-0.163-0.576
			c-0.027-0.096-0.117-0.287-0.268-0.572s-0.274-0.537-0.37-0.752s-0.207-0.545-0.335-0.994c-0.067-0.118-0.139-0.307-0.212-0.563
			c-0.055-0.191-0.06-0.33-0.014-0.412c-0.082-0.045-0.15-0.164-0.204-0.355c-0.02-0.063-0.04-0.197-0.063-0.396
			c-0.022-0.203-0.048-0.352-0.074-0.447l-0.097-0.336c-0.082-0.287-0.089-0.494-0.02-0.617c-0.009-0.03-0.043-0.057-0.101-0.075
			c-0.057-0.019-0.095-0.06-0.112-0.123c-0.019-0.063-0.029-0.13-0.03-0.199c-0.002-0.069-0.013-0.135-0.031-0.198l-0.205-0.721
			c-0.137-0.48-0.21-0.857-0.217-1.132c-0.052-0.056-0.1-0.162-0.145-0.323c-0.036-0.126-0.062-0.328-0.067-0.604
			c-0.009-0.273-0.021-0.442-0.041-0.508l-0.027-0.097c-0.05-0.054-0.08-0.098-0.089-0.13l0.021-0.109
			c-0.009-0.031-0.02-0.063-0.027-0.096c-0.036-0.128-0.096-0.336-0.178-0.625c-0.082-0.287-0.125-0.501-0.13-0.638
			c-0.063-0.466-0.127-0.812-0.19-1.035c-0.01-0.032,0.009-0.089,0.057-0.172c-0.02-0.063-0.05-0.106-0.091-0.132
			c-0.041-0.021-0.069-0.063-0.089-0.129l-0.17-1.146l-0.014-0.048l-0.075-0.082c-0.027-0.097-0.03-0.226-0.007-0.388
			c0.022-0.164,0.024-0.274,0.007-0.34c-0.027-0.097-0.071-0.281-0.133-0.56c-0.063-0.276-0.09-0.468-0.086-0.573l0.078-0.279
			c-0.074-0.5-0.061-0.814,0.041-0.947c-0.01-0.031-0.034-0.059-0.075-0.082c-0.041-0.021-0.07-0.064-0.089-0.13
			c0.009-0.21,0.005-0.347-0.015-0.412l-0.164-0.576c-0.018-0.063-0.018-0.185,0.001-0.362c0.02-0.179,0.02-0.301,0-0.363
			c-0.063-0.225-0.183-0.52-0.354-0.887c0.046-0.08,0.062-0.207,0.049-0.375c-0.014-0.17-0.009-0.275,0.014-0.315
			C52.556,77.485,52.977,77.263,53.586,77.089z"/>
		<path fill="#468885" d="M63.233,75.071c0.545-0.153,1-0.196,1.365-0.129c0.102,0.11,0.271,0.218,0.508,0.325
			c0.237,0.105,0.392,0.217,0.458,0.336c0.105,0.005,0.225,0.084,0.354,0.236c0.13,0.154,0.234,0.252,0.317,0.299
			c0.205,0.599,0.572,1.222,1.104,1.865c-0.01,0.211,0.047,0.351,0.17,0.418c0.019,0.065-0.006,0.158-0.074,0.281
			c0.228,0.317,0.42,0.504,0.574,0.563l0.322,0.583c0.119-0.066,0.211-0.197,0.276-0.391c0.066-0.191,0.144-0.317,0.23-0.377
			c-0.032-0.232,0.066-0.494,0.297-0.785c0.228-0.289,0.364-0.477,0.41-0.559c0.063-0.018,0.158-0.087,0.279-0.209
			c0.12-0.119,0.229-0.193,0.325-0.222c0.398-0.425,0.721-0.688,0.968-0.795l0.79-0.328c0.03-0.009,0.127-0.069,0.283-0.185
			c0.157-0.113,0.302-0.188,0.431-0.227l0.789-0.329c0.029-0.009,0.075-0.03,0.137-0.063c0.059-0.034,0.104-0.057,0.137-0.065
			c0.032-0.01,0.09-0.017,0.175-0.022c0.085-0.008,0.159-0.021,0.224-0.039l0.516-0.197c0.081,0.046,0.171,0.056,0.268,0.027
			l0.191-0.055l0.063,0.034c0.03-0.009,0.063-0.019,0.097-0.026c0.063-0.02,0.168-0.049,0.312-0.09
			c0.146-0.041,0.252-0.055,0.326-0.041c0.05,0.057,0.091,0.078,0.123,0.068l0.191-0.055c0.125,0.067,0.217,0.094,0.281,0.074
			c0.072,0.016,0.131,0.034,0.172,0.057c0.041,0.023,0.09,0.043,0.146,0.063c0.058,0.018,0.106,0.04,0.147,0.063
			c0.04,0.023,0.098,0.041,0.17,0.055l0.109,0.021c0.01,0.031,0.034,0.059,0.075,0.082c0.041,0.022,0.066,0.049,0.076,0.082
			c0.383,0.133,0.609,0.26,0.678,0.377c0.159-0.045,0.464-0.01,0.912,0.104c-0.005,0.104,0.034,0.181,0.116,0.228
			c0.196,0.082,0.471,0.254,0.822,0.519c0.351,0.265,0.567,0.418,0.65,0.463l0.068,0.241c0.055,0.191,0.139,0.307,0.253,0.343
			c0.027,0.097,0.018,0.185-0.027,0.267c0.196,0.084,0.417,0.438,0.663,1.059l0.199,0.15c0.134,0.101,0.224,0.18,0.274,0.232
			l0.027,0.098c0.036,0.127,0.104,0.248,0.204,0.355c0.109,0.143,0.108,0.264,0,0.363c0.082,0.045,0.128,0.084,0.138,0.117
			c0.046,0.16,0.155,0.336,0.331,0.527s0.282,0.354,0.318,0.48c0.02,0.063,0.032,0.146,0.044,0.246s0.021,0.168,0.031,0.199
			c0.027,0.096,0.064,0.17,0.115,0.227c0.01,0.031-0.018,0.092-0.078,0.179c-0.063,0.086-0.084,0.162-0.066,0.226
			c0.193-0.055,0.344-0.01,0.453,0.131l0.027,0.097c0.009,0.032,0.017,0.091,0.022,0.175s0.021,0.158,0.037,0.223l0.027,0.096
			c0.019,0.064,0.064,0.138,0.141,0.221c0.075,0.082,0.118,0.141,0.127,0.171c0.02,0.065,0.014,0.136-0.018,0.214
			c-0.029,0.077-0.04,0.133-0.031,0.164c0.027,0.096,0.092,0.199,0.191,0.309c0.101,0.111,0.165,0.211,0.191,0.309l0.041,0.145
			c0.092,0.078,0.158,0.129,0.199,0.152c-0.002,0.242,0.035,0.37,0.109,0.385c0.019,0.063-0.001,0.121-0.057,0.17
			c-0.056,0.051-0.077,0.092-0.067,0.123c0.049,0.057,0.11,0.09,0.186,0.104c0.072,0.016,0.113,0.038,0.123,0.07l0.103,0.178
			c0.026,0.096,0.01,0.214-0.056,0.352c-0.063,0.141-0.087,0.242-0.067,0.307c0.009,0.031,0.038,0.076,0.088,0.131l0.014,0.048
			c-0.021,0.041-0.07,0.056-0.145,0.042c0.124,0.068,0.151,0.165,0.082,0.288c0.134,0.101,0.227,0.247,0.28,0.438
			c0.02,0.064,0.012,0.101-0.021,0.108c-0.032,0.011-0.057,0.017-0.072,0.021c-0.017,0.006-0.02,0.025-0.011,0.057
			c0.019,0.064,0.067,0.085,0.146,0.063c0.08-0.022,0.136,0.014,0.162,0.108c0.009,0.03-0.009,0.09-0.056,0.171l0.097-0.027
			c0.063-0.018,0.102-0.01,0.109,0.022s-0.012,0.081-0.063,0.146c-0.052,0.066-0.065,0.133-0.049,0.195
			c0.064-0.018,0.167-0.08,0.31-0.191c-0.011,0.453-0.158,0.721-0.446,0.803l0.226,0.246c0.143-0.108,0.156-0.182,0.042-0.219
			c0.072,0.016,0.167,0.039,0.281,0.076s0.187,0.051,0.22,0.041c-0.023,0.043,0.001,0.191,0.074,0.447
			c-0.033,0.009-0.053-0.002-0.062-0.034c-0.01-0.03-0.024-0.053-0.044-0.065c-0.022-0.012-0.049-0.014-0.079-0.004
			c-0.032,0.01-0.062,0.037-0.082,0.076c-0.023,0.043-0.072,0.057-0.146,0.041c0.059,0.088,0.157,0.188,0.295,0.307
			c0.138,0.115,0.22,0.223,0.245,0.318c0.037,0.129,0.037,0.311,0,0.545c-0.037,0.235-0.042,0.4-0.015,0.496l-0.116,0.139
			c-0.078,0.091-0.124,0.172-0.138,0.246c0.05,0.057,0.123,0.068,0.219,0.041c0.019,0.064,0.025,0.149,0.021,0.254
			c-0.004,0.104-0.002,0.174,0.008,0.205c0.019,0.063,0.057,0.104,0.112,0.123c0.059,0.02,0.096,0.061,0.112,0.125
			c-0.237,0.137-0.338,0.27-0.302,0.397c-0.173,0.119-0.27,0.215-0.28,0.287l0.027,0.097c0.019,0.063,0.029,0.174,0.04,0.325
			c0.009,0.153,0.021,0.263,0.041,0.326c-0.057,0.051-0.091,0.112-0.104,0.187c-0.046,0.082-0.085,0.127-0.116,0.137
			c0.01,0.031,0.004,0.076-0.015,0.134c-0.019,0.057-0.003,0.114,0.048,0.168c-0.248,0.348-0.391,0.631-0.432,0.851
			c-0.066,0.018-0.118,0.016-0.158-0.008c-0.041-0.021-0.078-0.029-0.111-0.021l0.082,0.289c-0.142,0.108-0.246,0.226-0.314,0.349
			c-0.389,0.215-0.591,0.358-0.604,0.431c-0.032,0.01-0.146,0.094-0.343,0.254c-0.023,0.041-0.083,0.075-0.179,0.104
			c-0.064,0.018-0.143,0.021-0.23,0.014c-0.088-0.009-0.148-0.009-0.182,0c-0.096,0.027-0.155,0.061-0.178,0.102l-0.027-0.096
			l-0.096,0.026l-0.475-0.021l-0.096,0.026c-0.031,0.009-0.092,0.043-0.178,0.103c-0.088,0.06-0.164,0.099-0.229,0.117l-0.107-0.021
			c-0.033,0.009-0.028,0.025,0.013,0.048s0.029,0.043-0.034,0.062c-0.057,0.051-0.113,0.032-0.172-0.055s-0.105-0.126-0.137-0.117
			c-0.074-0.013-0.134-0.006-0.177,0.024s-0.086,0.032-0.127,0.01c-0.04-0.022-0.093-0.146-0.155-0.37
			c-0.011-0.031-0.039-0.074-0.09-0.13c-0.031,0.009-0.038,0.045-0.021,0.108c-0.047,0.084-0.098,0.148-0.15,0.199
			c-0.109-0.142-0.196-0.203-0.262-0.186c-0.05-0.057-0.045-0.1,0.014-0.134c0.061-0.035,0.086-0.067,0.076-0.101
			c-0.046-0.16-0.18-0.269-0.402-0.326c-0.227-0.057-0.358-0.098-0.398-0.121c-0.05-0.055-0.063-0.129-0.038-0.221
			c0.025-0.095,0.033-0.158,0.024-0.189l-0.145,0.041c-0.129,0.037-0.229,0.048-0.302,0.033c-0.019-0.063-0.061-0.119-0.127-0.172
			c-0.065-0.049-0.104-0.09-0.112-0.123l-0.026-0.096c-0.052-0.054-0.12-0.113-0.206-0.175c-0.087-0.062-0.151-0.104-0.192-0.127
			c-0.666-1.369-1.003-2.067-1.012-2.101c-0.027-0.096-0.02-0.186,0.026-0.267c0.023-0.042,0.009-0.063-0.044-0.065
			s-0.084-0.02-0.093-0.053c-0.026-0.096-0.133-0.342-0.313-0.74c-0.184-0.396-0.302-0.692-0.355-0.885
			c-0.045-0.16-0.041-0.265,0.014-0.316c-0.042-0.02-0.095-0.118-0.16-0.291c-0.065-0.17-0.151-0.258-0.258-0.264
			c-0.009-0.031-0.02-0.099-0.029-0.199c-0.014-0.1-0.012-0.188,0.003-0.26c-0.132-0.101-0.243-0.312-0.334-0.631
			c0-0.242-0.039-0.439-0.116-0.59l-0.109-0.385c-0.01-0.273-0.026-0.458-0.055-0.555c-0.027-0.096-0.103-0.18-0.226-0.248
			c-0.101-0.353-0.21-0.856-0.328-1.517c-0.019-0.063-0.06-0.086-0.123-0.067c-0.041-0.023-0.065-0.051-0.075-0.084
			c0.003-0.104-0.021-0.254-0.075-0.445l-0.327-1.152c-0.123-0.068-0.203-0.167-0.238-0.294c-0.027-0.097-0.05-0.228-0.063-0.397
			c-0.016-0.17-0.029-0.287-0.048-0.351l-0.109-0.384l-0.014-0.048l0.021-0.111c-0.019-0.063-0.051-0.141-0.094-0.231
			c-0.043-0.092-0.067-0.152-0.078-0.187c-0.026-0.096-0.028-0.165-0.006-0.204l-0.376-0.775l-0.26-0.914
			c-0.146-0.51-0.272-0.891-0.377-1.137c-0.02-0.064-0.07-0.094-0.154-0.086c-0.085,0.006-0.185,0.018-0.302,0.033
			s-0.195,0.012-0.236-0.011c-0.549,0.503-0.842,0.933-0.879,1.288c-0.032,0.009-0.05,0.039-0.052,0.093
			c-0.003,0.052-0.035,0.088-0.1,0.106c-0.016,0.072-0.062,0.242-0.143,0.506c-0.08,0.266-0.113,0.482-0.1,0.652
			c-0.023,0.041-0.045,0.082-0.068,0.123l-0.034,0.063c0.036,0.128,0.031,0.232-0.015,0.314c0.01,0.032,0.027,0.069,0.059,0.112
			c0.029,0.043,0.05,0.082,0.06,0.113c0.054,0.192,0.014,0.411-0.126,0.657c0.032-0.008,0.068,0,0.109,0.021l0.027,0.096
			c0.01,0.032,0.024,0.116,0.045,0.246c0.021,0.133,0.039,0.231,0.059,0.297c0.026,0.096,0.064,0.172,0.115,0.227
			c-0.108,0.1-0.172,0.188-0.186,0.259c0.059,0.087,0.121,0.244,0.185,0.468c0.063,0.225,0.137,0.602,0.219,1.131
			c0.01,0.031-0.021,0.076-0.093,0.129c-0.071,0.058-0.113,0.121-0.127,0.192c0.049,0.056,0.104,0.058,0.156,0.007
			c0.056-0.05,0.1-0.08,0.132-0.089c0.019,0.063,0.035,0.155,0.05,0.271c0.017,0.119,0.037,0.224,0.064,0.32
			c0.01,0.031-0.021,0.082-0.084,0.153c-0.068,0.071-0.075,0.134-0.025,0.188c0.02,0.063,0.075,0.082,0.171,0.055
			c0.151,0.165,0.182,0.331,0.09,0.492c0.083,0.048,0.137,0.119,0.163,0.215c0.027,0.096,0.035,0.242,0.021,0.436
			c-0.014,0.194-0.011,0.323,0.007,0.387l0.089,0.131c0.061,0.087,0.082,0.166,0.068,0.24c0.009,0.031,0.012,0.1,0.007,0.205
			l0.027,0.096c0.009,0.033,0.038,0.076,0.089,0.131l0.075,0.082l0.026,0.097c0.027,0.097,0.025,0.244-0.004,0.442
			c-0.029,0.199-0.03,0.345-0.003,0.441l0.104,0.18l0.014,0.048c-0.024,0.04-0.068,0.071-0.131,0.089l0.253,0.342
			c-0.129,0.037-0.188,0.071-0.179,0.104c0.019,0.063,0.062,0.096,0.131,0.093c0.066,0,0.106,0.014,0.116,0.045l0.041,0.144
			c0.101,0.354,0.189,0.553,0.272,0.598c-0.021,0.043-0.034,0.098-0.031,0.166c0.003,0.07-0.003,0.14-0.017,0.211
			c-0.015,0.074-0.028,0.146-0.042,0.221l-0.063-0.035c-0.041-0.021-0.077-0.029-0.108-0.021c0.082,0.049,0.107,0.107,0.079,0.187
			c-0.03,0.078-0.001,0.156,0.092,0.233c-0.032,0.009-0.062,0.061-0.086,0.154c-0.025,0.092-0.065,0.166-0.121,0.215
			c0.063,0.225,0.07,0.431,0.021,0.617c0.063,0.226,0.082,0.651,0.054,1.282c0.014,0.411-0.008,0.765-0.063,1.058l0.068,0.238
			c0.073,0.258,0.091,0.563,0.054,0.92c-0.031,0.008-0.06,0.034-0.082,0.074c-0.022,0.042-0.071,0.057-0.145,0.041
			c-0.02,0.18-0.061,0.275-0.123,0.295c0.045,0.403-0.157,0.788-0.604,1.157c-0.129,0.037-0.213,0.045-0.254,0.021
			c-0.041-0.021-0.065-0.015-0.072,0.021c-0.008,0.037-0.026,0.061-0.059,0.066c-0.033,0.011-0.122,0.027-0.271,0.053
			c-0.149,0.025-0.272,0.052-0.368,0.078c-0.545,0.154-0.963,0.326-1.254,0.514l-1.099,0.156c-0.051-0.055-0.121-0.088-0.209-0.096
			c-0.09-0.01-0.154-0.024-0.195-0.049c-0.031,0.01-0.059-0.019-0.075-0.082c-0.22-0.043-0.392-0.097-0.515-0.164l-0.301-0.332
			l-0.186-0.103c-0.052-0.056-0.114-0.157-0.192-0.31c-0.077-0.15-0.161-0.266-0.253-0.344c-0.009-0.029-0.005-0.136,0.014-0.314
			c-0.009-0.032-0.04-0.049-0.093-0.053c-0.052-0.002-0.082-0.019-0.092-0.051c-0.009-0.031,0.003-0.078,0.037-0.14
			c0.034-0.063,0.048-0.108,0.038-0.142c-0.104-0.004-0.174-0.037-0.209-0.096c-0.033-0.06-0.088-0.097-0.161-0.111
			c-0.027-0.096-0.087-0.276-0.182-0.545c-0.094-0.267-0.157-0.463-0.194-0.592c-0.072-0.256-0.106-0.437-0.103-0.541
			c-0.104-0.006-0.18-0.088-0.226-0.25c-0.046-0.158-0.055-0.312-0.027-0.457c-0.042-0.023-0.089-0.096-0.14-0.221
			c-0.053-0.122-0.116-0.191-0.188-0.206c-0.137-0.479-0.2-0.823-0.19-1.036c-0.137-0.236-0.241-0.482-0.314-0.74
			c-0.136-0.479-0.188-0.846-0.155-1.096c-0.246-0.139-0.292-0.298-0.138-0.48c-0.205-0.356-0.344-0.664-0.417-0.92l-0.041-0.144
			c-0.009-0.032-0.018-0.063-0.026-0.097l0.021-0.109c-0.009-0.031-0.044-0.091-0.103-0.178c-0.062-0.086-0.083-0.166-0.068-0.241
			l-0.006-0.205c-0.082-0.288-0.238-0.711-0.465-1.271l0.033-0.061c-0.009-0.031-0.019-0.064-0.026-0.097
			c-0.027-0.097-0.107-0.222-0.236-0.374c-0.131-0.152-0.209-0.277-0.235-0.374c-0.027-0.097-0.028-0.218,0-0.362
			c-0.175-0.367-0.287-0.646-0.343-0.838L62.07,84.69c-0.117-0.415-0.221-0.715-0.308-0.897c-0.008-0.031-0.006-0.084,0.008-0.158
			l0.034-0.062c-0.009-0.032-0.063-0.103-0.164-0.214c-0.046-0.158-0.08-0.34-0.103-0.541c-0.023-0.201-0.044-0.43-0.064-0.684
			s-0.033-0.448-0.037-0.586c-0.018-0.063-0.045-0.187-0.079-0.367c-0.033-0.18-0.044-0.307-0.029-0.381
			c-0.01-0.031-0.021-0.219-0.029-0.563c-0.013-0.343-0.035-0.578-0.071-0.706L61.2,79.435c0.041-0.219,0.033-0.424-0.021-0.617
			c-0.102-0.109-0.155-0.182-0.164-0.212c0.022-0.041,0.056-0.05,0.096-0.026l0.015,0.047c0.037-0.113,0.039-0.289,0.008-0.521
			c-0.032-0.233-0.041-0.386-0.026-0.46c0.1-0.133,0.171-0.309,0.212-0.527c-0.009-0.031-0.007-0.084,0.008-0.158l0.021-0.109
			c0.022-0.041,0.028-0.111,0.018-0.213c-0.013-0.1-0.006-0.172,0.018-0.211c0.023-0.043,0.076-0.125,0.161-0.254
			s0.13-0.246,0.136-0.351C61.948,75.541,62.466,75.291,63.233,75.071z M69.89,95.185l-0.143,0.041
			c0.09,0.078,0.164,0.092,0.219,0.042c-0.01-0.031-0.021-0.045-0.037-0.042C69.911,95.23,69.899,95.216,69.89,95.185z
			 M75.538,85.117l-0.145,0.041l0.057,0.192C75.481,85.341,75.511,85.264,75.538,85.117z M81.308,96.453
			c-0.129,0.037-0.17,0.135-0.125,0.295C81.31,96.71,81.353,96.612,81.308,96.453z M81.526,96.494l-0.096,0.027
			c0.019,0.063,0.01,0.102-0.021,0.109l0.145-0.041L81.526,96.494z M82.812,93.897c0.01,0.032,0.002,0.067-0.021,0.108l0.034-0.062
			C82.856,93.936,82.853,93.919,82.812,93.897z M83.056,91.285l0.068,0.239c0.104,0.005,0.146-0.024,0.129-0.088
			C83.247,91.298,83.182,91.248,83.056,91.285z M85.41,88.434c-0.129,0.037-0.221,0.081-0.275,0.13
			C85.203,88.683,85.295,88.641,85.41,88.434z M85.833,90.285l0.026,0.096c-0.022,0.043-0.015,0.076,0.027,0.098
			c0.064-0.018,0.087-0.059,0.068-0.124C85.938,90.291,85.897,90.268,85.833,90.285z"/>
		<path fill="#231F20" d="M93.081,66.321l0.467-0.185c0.096-0.027,0.28-0.046,0.555-0.054c0.273-0.009,0.492-0.036,0.652-0.081
			l0.24-0.068c0.528-0.082,1.557-0.185,3.078-0.306c0.04,0.023,0.141,0.039,0.299,0.045c0.157,0.008,0.266,0.055,0.326,0.142
			l0.286-0.082c0.083,0.046,0.354,0.116,0.813,0.209c0.46,0.095,0.789,0.251,0.99,0.472l0.026,0.096
			c0.02,0.064,0.033,0.146,0.045,0.246c0.011,0.102,0.021,0.168,0.03,0.199c0.027,0.096,0.063,0.157,0.104,0.179
			c-0.023,0.042-0.083,0.136-0.179,0.284c-0.098,0.149-0.185,0.27-0.262,0.36l-0.096,0.027c-0.064,0.019-0.144,0.049-0.233,0.092
			c-0.091,0.044-0.154,0.07-0.185,0.079c-0.033,0.009-0.09-0.009-0.172-0.056c-0.057,0.052-0.146,0.103-0.269,0.154
			c-0.124,0.053-0.218,0.088-0.281,0.105c-0.032,0.009-0.114,0.084-0.247,0.227c-0.134,0.141-0.249,0.225-0.345,0.252l-0.096,0.027
			c-0.226,0.064-0.363,0.123-0.417,0.172c-0.248,0.105-0.424,0.277-0.53,0.514c-0.396,0.184-0.802,0.401-1.213,0.657
			c-0.033,0.009-0.087,0.06-0.166,0.149c-0.077,0.094-0.147,0.146-0.213,0.166L95.9,70.398c-0.067,0.123-0.131,0.211-0.186,0.26
			c-0.033,0.01-0.135,0.049-0.305,0.113c-0.173,0.066-0.285,0.125-0.342,0.175l-0.066,0.124c-0.068,0.123-0.138,0.194-0.2,0.213
			c-0.045,0.082-0.059,0.155-0.041,0.217c-0.225,0.064-0.397,0.217-0.519,0.459c-0.122,0.244-0.226,0.394-0.313,0.453
			c-0.023,0.041-0.014,0.074,0.027,0.096l0.026,0.097c-0.086,0.06-0.166,0.177-0.236,0.353c-0.071,0.176-0.134,0.291-0.188,0.34
			l0.082,0.289c-0.046,0.082-0.087,0.24-0.124,0.476c-0.036,0.235-0.111,0.403-0.219,0.504c-0.03,0.631-0.024,1.131,0.011,1.502
			c-0.032,0.009-0.057,0.043-0.076,0.101c-0.019,0.057-0.055,0.109-0.108,0.16l0.178,0.625c0.01,0.03-0.013,0.106-0.065,0.227
			c-0.053,0.117-0.064,0.226-0.038,0.32c-0.086,0.062-0.139,0.18-0.157,0.357c-0.02,0.178-0.056,0.292-0.11,0.344
			c0.183,0.154,0.208,0.303,0.075,0.444c0.101,0.108,0.159,0.196,0.178,0.263c0.019,0.063,0.029,0.164,0.033,0.301
			c0.006,0.138,0.017,0.237,0.035,0.301c0.236,0.107,0.641,0.096,1.211-0.032c0.567-0.127,0.938-0.196,1.106-0.212
			c0.064-0.018,0.093-0.043,0.082-0.075c0.056-0.049,0.099-0.079,0.132-0.088c0.018,0.063,0.09,0.078,0.219,0.041
			c0.225-0.063,0.71-0.209,1.457-0.44c0.748-0.229,1.341-0.424,1.78-0.584c1.029-0.396,1.677-0.613,1.941-0.654
			c0.064-0.02,0.164-0.029,0.303-0.034c0.136-0.005,0.236-0.017,0.302-0.034c0.096-0.027,0.28-0.07,0.559-0.134
			c0.275-0.06,0.483-0.095,0.621-0.099c0.201-0.022,0.432,0,0.693,0.063c0.309,0.119,0.532,0.177,0.67,0.171
			c0.397,0.302,0.616,0.465,0.658,0.487c0.261,0.549,0.399,0.857,0.417,0.92c0.063,0.225,0.05,0.418-0.042,0.583
			c0.02,0.063,0.061,0.183,0.127,0.354c0.065,0.17,0.112,0.303,0.142,0.4c0.018,0.063,0.03,0.234,0.04,0.507
			c0.009,0.032,0.038,0.11,0.092,0.233c0.053,0.125,0.088,0.218,0.105,0.281l0.041,0.145c0.019,0.064,0.014,0.17-0.015,0.314
			c0.082,0.289,0.116,0.469,0.104,0.543c0.149,0.164,0.234,0.278,0.253,0.342c0.019,0.064,0.016,0.117-0.007,0.158
			c-0.015,0.074,0.016,0.117,0.089,0.131l0.097-0.027c-0.011,0.21-0.01,0.332-0.001,0.363c0.072,0.015,0.17,0.229,0.288,0.646
			c0.009,0.031,0.049,0.056,0.123,0.068c0.072,0.014,0.118,0.054,0.136,0.116c-0.027,0.146-0.031,0.252-0.014,0.314
			c0.02,0.064,0.047,0.135,0.086,0.209c0.038,0.076,0.088,0.157,0.146,0.244c0.062,0.087,0.1,0.164,0.117,0.227
			c0.019,0.064,0.039,0.17,0.064,0.318c0.024,0.148,0.047,0.256,0.063,0.32l0.104,0.178c0.009,0.032,0.005,0.076-0.015,0.133
			c-0.019,0.057-0.021,0.102-0.014,0.135c0.101,0.109,0.159,0.196,0.178,0.26c0.01,0.033,0.007,0.084-0.007,0.158l0.014,0.049
			c0.02,0.064,0.042,0.117,0.072,0.16c0.028,0.043,0.049,0.082,0.059,0.115l0.149,0.526c-0.06,0.155-0.056,0.293,0.015,0.412
			c-0.092,0.405-0.13,0.644-0.11,0.704c0.009,0.033,0.035,0.068,0.082,0.107c0.045,0.039,0.073,0.074,0.082,0.106
			c0.01,0.03,0.004,0.138-0.015,0.315c0.081,0.045,0.134,0.101,0.15,0.164c0.02,0.064,0.021,0.16,0.003,0.285
			c-0.016,0.127,0.001,0.217,0.052,0.271c0.003,0.136-0.061,0.277-0.192,0.418c0.01,0.031,0.036,0.068,0.082,0.105
			c0.045,0.039,0.057,0.08,0.034,0.12c0.009,0.032-0.029,0.173-0.113,0.423c-0.085,0.25-0.121,0.457-0.107,0.627
			c-0.278,0.6-0.623,0.973-1.028,1.123c0.009,0.032-0.007,0.07-0.044,0.116c-0.04,0.046-0.097,0.097-0.166,0.151
			c-0.07,0.054-0.118,0.104-0.142,0.145c-0.032,0.008-0.071,0.055-0.117,0.137s-0.084,0.127-0.114,0.137
			c-0.033,0.009-0.066,0.018-0.099,0.027c-0.063,0.018-0.107,0.049-0.129,0.09c-0.087,0.059-0.259,0.125-0.515,0.199
			c-0.16,0.045-0.293,0.063-0.397,0.061c-0.559-0.014-0.902-0.073-1.037-0.174l-0.608-0.5c-0.082-0.047-0.19-0.092-0.325-0.141
			c-0.136-0.05-0.243-0.096-0.325-0.142c-0.102-0.11-0.223-0.292-0.363-0.546c-0.142-0.254-0.217-0.396-0.226-0.43
			c-0.051-0.056-0.128-0.146-0.233-0.271c-0.104-0.126-0.195-0.265-0.273-0.416c-0.019-0.063-0.055-0.166-0.112-0.306
			c-0.057-0.139-0.1-0.256-0.126-0.354c-0.019-0.063-0.036-0.311-0.054-0.736c-0.02-0.428-0.079-0.765-0.186-1.012
			c-0.293,0.188-0.545,0.396-0.754,0.629l-0.097,0.027c-0.064,0.02-0.156,0.088-0.278,0.209c-0.121,0.122-0.229,0.195-0.324,0.223
			l-0.192,0.055c-0.402,0.289-0.654,0.498-0.755,0.629l-0.097,0.027c-0.097,0.027-0.27,0.121-0.519,0.277
			c-0.25,0.158-0.454,0.258-0.614,0.305c-0.256,0.072-0.617,0.141-1.084,0.205l-0.185-0.104c-0.064,0.018-0.108,0.047-0.13,0.088
			c-0.024,0.042-0.072,0.055-0.146,0.042l-0.19,0.054c-0.193,0.055-0.334,0.043-0.427-0.033c-0.623,0.246-1.239,0.266-1.852,0.059
			l-0.145,0.041c-0.031,0.009-0.278-0.008-0.74-0.049c-0.104-0.006-0.264-0.012-0.475-0.021c-0.21-0.01-0.372-0.031-0.485-0.068
			l-0.309-0.174c-0.294-0.053-0.484-0.121-0.577-0.197c-0.054,0.049-0.117,0.068-0.19,0.054c-0.141-0.132-0.313-0.188-0.515-0.165
			c-0.698-0.389-1.118-0.65-1.263-0.783c-0.039-0.021-0.163-0.091-0.368-0.206c-0.206-0.114-0.383-0.187-0.526-0.213
			c-0.063-0.088-0.153-0.173-0.282-0.258c-0.128-0.085-0.217-0.153-0.267-0.21c-0.01-0.03-0.06-0.113-0.147-0.243
			s-0.174-0.22-0.257-0.265c0.022-0.041,0.029-0.077,0.021-0.108c-0.009-0.032-0.063-0.104-0.164-0.213
			c-0.101-0.11-0.181-0.209-0.238-0.296l-0.041-0.145l-0.228-0.246c-0.183-0.156-0.292-0.299-0.328-0.426
			c-0.018-0.064-0.021-0.133-0.007-0.207c-0.184-0.154-0.42-0.623-0.712-1.404c-0.026-0.099,0.007-0.16,0.104-0.187
			c-0.01-0.03-0.052-0.056-0.124-0.069c-0.072-0.013-0.114-0.035-0.123-0.067c-0.102-0.353-0.132-0.585-0.097-0.699
			c-0.117-0.174-0.19-0.31-0.219-0.405c-0.028-0.095-0.052-0.244-0.075-0.445c-0.021-0.203-0.048-0.35-0.074-0.445
			c-0.01-0.031,0.01-0.089,0.056-0.171l-0.286-1.009c-0.019-0.063-0.017-0.15,0.004-0.26c0.021-0.109,0.021-0.197,0.004-0.261
			c-0.101-0.353-0.106-0.558-0.021-0.618c-0.073-0.014-0.102-0.082-0.085-0.209c0.016-0.125,0.02-0.203,0.01-0.236
			c-0.014-0.168-0.057-0.381-0.13-0.637c-0.073-0.258-0.127-0.449-0.164-0.578l0.077-0.279c0.003-0.106-0.025-0.271-0.09-0.494
			c-0.063-0.225-0.095-0.391-0.089-0.494c0.023-0.041,0.049-0.134,0.075-0.279l-0.042-0.146c-0.045-0.16,0.023-0.403,0.208-0.733
			l-0.041-0.145c-0.026-0.096-0.027-0.217,0.001-0.363c0.027-0.146,0.032-0.251,0.015-0.314l-0.026-0.1
			c0.045-0.081,0.096-0.27,0.151-0.563c0.055-0.291,0.152-0.492,0.296-0.604c-0.052-0.055-0.069-0.119-0.056-0.191
			s0.018-0.125,0.008-0.158l0.138-0.245c0.014-0.316,0.077-0.576,0.19-0.782c-0.03-0.232,0.044-0.514,0.229-0.843
			c0.183-0.328,0.276-0.546,0.281-0.65l0.439-0.646l0.392-0.629l0.191-0.055c0.443-0.508,0.778-0.793,1.003-0.857
			c0.353-0.342,0.948-0.797,1.792-1.365c0.841-0.568,1.388-0.957,1.64-1.167l0.172,0.055c0.165-0.15,0.375-0.263,0.631-0.336
			l0.145-0.041c0.046-0.083,0.193-0.141,0.441-0.177c0.25-0.037,0.396-0.095,0.443-0.178C92.9,66.354,92.985,66.348,93.081,66.321z
			 M99.274,82.257c-0.086,0.061-0.225,0.117-0.417,0.172c-0.19,0.055-0.337,0.096-0.433,0.123c-0.43,0.191-1.099,0.425-2.006,0.699
			c-0.909,0.276-1.396,0.422-1.459,0.44c-0.097,0.026-0.215,0.035-0.355,0.022c-0.143-0.01-0.244-0.006-0.309,0.012
			c-0.471,0.169-0.612,0.589-0.421,1.261c0.133,0.345,0.272,0.599,0.426,0.763l0.267,0.392l0.37,0.206l0.15,0.165
			c0.04,0.022,0.135,0.11,0.28,0.257c0.146,0.148,0.256,0.23,0.329,0.244l0.156,0.007c0.099-0.026,0.183-0.033,0.254-0.021
			l0.199,0.15c0.082,0.047,0.236,0.036,0.459-0.027c0.256-0.072,0.468-0.185,0.632-0.334c0.064-0.019,0.115-0.051,0.154-0.097
			c0.038-0.046,0.075-0.101,0.11-0.161c0.033-0.061,0.063-0.113,0.086-0.154c0.04,0.022,0.077,0.031,0.108,0.021
			c0.093-0.165,0.174-0.24,0.247-0.227c0.015-0.073,0.078-0.211,0.192-0.418c0.156-0.182,0.282-0.289,0.378-0.315
			c0.036-0.114,0.249-0.521,0.639-1.22c0.014-0.072,0.102-0.252,0.262-0.54l0.351-0.412c-0.009-0.03,0.077-0.211,0.261-0.541
			c-0.05-0.054-0.121-0.155-0.215-0.302c-0.094-0.147-0.178-0.227-0.25-0.24C99.68,82.162,99.532,82.184,99.274,82.257z"/>
	</g>
	<g>
		<path fill="#231F20" d="M29.241,7.65l0.14-0.021c0.058,0.009,0.104,0.002,0.141-0.02c0.095-0.014,0.254-0.087,0.479-0.223
			l0.251,0.042c0.02,0.031,0.047,0.036,0.087,0.012c0.091-0.012,0.229,0.002,0.407,0.045c0.178,0.045,0.342,0.063,0.49,0.059
			c0.264,0.015,0.421,0.026,0.479,0.033c0.094,0.073,0.219,0.157,0.378,0.254c0.161,0.097,0.26,0.177,0.298,0.239l0.112,0.188
			l0.225,0.377l0.086,0.143c0.021,0.031,0.057,0.073,0.112,0.125c0.056,0.052,0.085,0.119,0.085,0.205
			c0.075,0.124,0.112,0.23,0.114,0.315c0.058,0.096,0.098,0.25,0.128,0.47c0.028,0.217,0.062,0.357,0.101,0.42l-0.026,0.082
			l-0.058,0.034c0.035,0.063,0.057,0.18,0.058,0.348l0.057,0.096c0,0.085,0.01,0.208,0.028,0.367
			c0.019,0.157,0.037,0.253,0.056,0.285l-0.055,0.033c0.093,0.158,0.112,0.273,0.06,0.352c0.055,0.182,0.088,0.447,0.101,0.804
			c0.009,0.357,0.022,0.597,0.044,0.711c-0.06,0.077-0.072,0.183-0.041,0.313c0.026,0.134,0.031,0.228,0.014,0.279
			c0.039-0.022,0.056,0.011,0.06,0.097c-0.021,0.052-0.027,0.251-0.027,0.591l0.026,0.048l-0.023,0.08
			c0.035,0.234,0.056,0.438,0.056,0.606L33.6,15.552c-0.094,0.271-0.216,0.452-0.364,0.541l-0.309,0.247l-0.422,0.06
			c0.035-0.108,0.025-0.21-0.029-0.301l-0.144-0.238c0.038-0.107,0.037-0.191,0-0.254l-0.056-0.095
			c0.035-0.109,0.036-0.192-0.001-0.256c0.038-0.192,0.01-0.37-0.087-0.527l-0.026-0.046l-0.058-0.095l-0.002-0.129
			c-0.019-0.032-0.038-0.062-0.054-0.093l0.027-0.081c-0.076-0.127-0.104-0.258-0.085-0.396l-0.003-0.13
			c-0.036-0.062-0.063-0.109-0.084-0.142c-0.021-0.031-0.029-0.089-0.029-0.176c0-0.085-0.02-0.161-0.056-0.222
			c-0.058-0.094-0.089-0.185-0.087-0.268c-0.019-0.033-0.027-0.091-0.026-0.177c-0.039-0.231-0.038-0.362-0.002-0.385
			c-0.188-0.144-0.244-0.324-0.172-0.539l-0.055,0.034c-0.039-0.147-0.126-0.333-0.256-0.555l0.027-0.08l-0.195-0.329
			c0.016-0.053,0.015-0.097-0.004-0.127l-0.197-0.33l0.027-0.083l-0.029-0.046c-0.055-0.092-0.073-0.169-0.053-0.222
			c-0.268-0.271-0.436-0.467-0.511-0.594c-0.111-0.018-0.216-0.106-0.31-0.264c-0.02-0.03-0.048-0.034-0.085-0.015l-0.112-0.06
			L29.64,8.943c-0.135,0.038-0.235-0.008-0.311-0.136c-0.075,0.046-0.188,0.028-0.338-0.053c-0.113,0.067-0.178,0.085-0.195,0.053
			c-0.113-0.017-0.205-0.091-0.282-0.216c-0.132-0.39,0.045-0.644,0.532-0.768C29.064,7.777,29.13,7.717,29.241,7.65z"/>
	</g>
	<g>
		<g>
			<path fill="#5AB1AF" d="M124.464,101.595c-3.173-0.002-6.527-1.535-6.715-2.682c-1.076-6.558-4.853-19.718-7.007-26.978
				c-0.084-0.28-0.342-0.472-0.632-0.472c-0.012,0-0.022,0-0.034,0.002c-0.56,0.029-1.15,0.049-1.748,0.049
				c-3.517,0-4.713-0.659-5.114-1.053c-7.723-7.583-16.921-37.095-13.454-48.044c0.626-1.977,1.633-3.202,2.997-3.649
				c3.085,10.5,13.609,36.816,18.058,47.804c0.051,0.123,0.136,0.228,0.245,0.301c0.606,0.404,1.11,1.245,1.499,2.5
				c0.569,1.844,3.216,6.75,6.281,12.431c3.73,6.916,7.962,14.754,8.645,17.556c0.144,0.586,0.083,1.034-0.182,1.371
				C126.872,101.279,125.837,101.595,124.464,101.595L124.464,101.595z"/>
			<path fill="#231F20" d="M128.123,99.203c-1.254-5.146-13.685-25.968-14.938-30.025c-0.486-1.575-1.12-2.424-1.763-2.852
				c-4.691-11.59-15.403-38.406-18.209-48.344c-11.547,1.9-0.167,43.419,9.539,52.951c0.994,0.976,3.324,1.239,5.574,1.239
				c0.608,0,1.213-0.02,1.782-0.049c2.205,7.428,5.928,20.424,6.988,26.896c0.285,1.74,4.25,3.23,7.363,3.23
				C126.803,102.251,128.662,101.412,128.123,99.203z M126.786,100.324c-0.233,0.297-0.967,0.612-2.322,0.612
				c-3.008,0-5.912-1.429-6.066-2.129c-1.081-6.595-4.864-19.784-7.024-27.06c-0.166-0.561-0.682-0.94-1.261-0.94
				c-0.022,0-0.047,0-0.069,0.002c-0.601,0.032-1.176,0.048-1.714,0.048c-3.5,0-4.446-0.662-4.652-0.863
				c-7.622-7.485-16.706-36.586-13.289-47.377c0.549-1.735,1.312-2.551,1.953-2.947c3.34,10.965,13.511,36.395,17.864,47.15
				c0.1,0.245,0.271,0.455,0.49,0.602c0.465,0.309,0.902,1.071,1.234,2.146c0.589,1.907,3.25,6.839,6.331,12.55
				c3.529,6.539,7.922,14.68,8.584,17.398C126.981,100.074,126.834,100.262,126.786,100.324z"/>
		</g>
		<path fill="#7CCDCD" d="M103.979,68.13c-3.908-6.529-13.922-21.958-11.925-45.771c0.243,17.755,12.702,45.42,14.351,45.358
			C108.055,67.655,104.583,68.455,103.979,68.13z"/>
	</g>
	<g>
		<g>
			<path fill="#5AB1AF" d="M23.939,129.646c-4.224-1.068-3.597-8.691-3.183-13.736c0.107-1.322,0.202-2.463,0.201-3.336
				c-0.019-12.379-0.16-15.666-1.904-29.232l-0.071-0.612C18.181,75.671,17.374,71.507,16.514,70
				c-0.117-0.207-0.336-0.332-0.571-0.332c-0.014,0-0.183,0.008-0.253,0.008c-1.44,0-2.829-0.93-4.125-2.764
				c-4.38-6.199-6.448-21.462-4.03-29.145c1.45,0.523,1.678,5.294,1.879,9.531c0.308,6.483,0.625,13.187,4.517,14.174
				c0.054,0.013,0.108,0.02,0.162,0.02c0.142,0,0.281-0.046,0.396-0.133c0.159-0.121,0.256-0.307,0.261-0.507
				c0.062-2.319-0.426-6.026-0.941-9.951c-0.797-6.063-1.788-13.609-0.432-15.156c0.114-0.129,0.224-0.183,0.378-0.183
				c0.066,0,0.142,0.01,0.224,0.031c1.206,2.638,1.854,6.687,2.536,10.966c0.741,4.645,1.508,9.447,3.083,13.035
				c0.033,0.075,0.08,0.143,0.138,0.201c0.554,0.552,1.016,0.81,1.452,0.81c0.35,0,0.656-0.17,0.846-0.466
				c0.407-0.643,0.156-1.747-0.194-2.529l-0.272-1.283c-1.441-6.768-2.933-13.764-2.854-20.7c0.479-1.159,1.537-2.076,2.128-2.076
				c0.088,0,0.294,0,0.438,0.522c0.402,1.168,0.615,4.713,0.664,5.984c0.116,1.456,0.604,3.437,1.119,5.535
				c0.467,1.9,0.949,3.866,1.128,5.36c0.181,1.496,0.464,2.739,0.739,3.941c0.34,1.487,0.661,2.891,0.767,4.672
				c0.2,3.402-0.351,4.105-2.12,5.812c-0.282,0.272-0.537,0.496-0.765,0.695c-1.5,1.316-1.951,1.927-1.449,5.994
				c0.95,7.708,2.944,16.507,4.873,25.017c1.528,6.746,2.974,13.117,3.937,18.977c0.037,0.223,0.091,0.523,0.155,0.88
				c0.326,1.813,1.093,6.062,0.647,7.276c-0.484,1.328-5.504,5.437-6.987,5.437C23.953,129.648,23.939,129.646,23.939,129.646z"/>
			<path fill="#231F20" d="M30.817,115.949c-2.218-13.486-7.128-30.361-8.806-43.967c-0.569-4.619,0.105-4.292,2.018-6.135
				c1.948-1.879,2.529-2.78,2.32-6.324c-0.194-3.305-1.115-5.364-1.509-8.653c-0.377-3.152-2.027-8.162-2.243-10.842
				c0,0-0.18-4.664-0.688-6.136c-0.199-0.71-0.6-1.002-1.073-1.002c-0.976,0-2.267,1.232-2.784,2.604
				c-0.104,7.511,1.6,14.98,3.156,22.32c0.476,1.016,0.537,2.13-0.022,2.13c-0.225,0-0.55-0.18-0.986-0.617
				c-3.034-6.911-3.056-18.748-5.746-24.27c-0.259-0.105-0.489-0.156-0.699-0.156c-4.092,0,0.516,19.21,0.338,25.93
				c-6.438-1.633-1.874-23.773-6.83-23.773c-0.061,0-0.124,0.003-0.188,0.01C3.67,46.672,7.717,70.33,15.691,70.33
				c0.084,0,0.169-0.002,0.253-0.008c1.356,2.383,2.322,12.045,2.458,13.102c1.752,13.623,1.883,16.931,1.898,29.148
				c0.007,4.313-2.448,16.211,3.479,17.711c0.063,0.016,0.132,0.022,0.206,0.022c1.786,0,7.042-4.325,7.605-5.869
				C32.18,122.824,31.069,117.482,30.817,115.949z M30.354,123.984c-0.438,1.109-4.996,4.852-6.33,5.003
				c-3.599-1.013-3.006-8.235-2.611-13.024c0.108-1.336,0.204-2.489,0.203-3.392c-0.018-12.413-0.16-15.711-1.909-29.315
				c-0.016-0.109-0.038-0.317-0.07-0.603c-0.822-7.245-1.633-11.37-2.55-12.979c-0.234-0.414-0.672-0.666-1.144-0.666
				c-0.026,0-0.055,0.002-0.082,0.002c-0.057,0.004-0.113,0.006-0.171,0.006c-1.215,0-2.422-0.836-3.588-2.487
				C8.035,60.771,6.003,47.03,7.824,39.203c0.108,0.297,0.223,0.692,0.328,1.216c0.359,1.786,0.479,4.273,0.604,6.907
				C9.075,54.049,9.404,61,13.769,62.107c0.106,0.027,0.215,0.041,0.323,0.041c0.283,0,0.563-0.092,0.794-0.267
				c0.318-0.241,0.511-0.614,0.521-1.014c0.063-2.371-0.43-6.103-0.947-10.054c-0.577-4.392-1.616-12.296-0.805-14.292
				c0.997,2.557,1.588,6.252,2.207,10.139c0.748,4.686,1.521,9.53,3.133,13.196c0.064,0.15,0.157,0.286,0.273,0.402
				c0.432,0.43,1.099,1.002,1.917,1.002c0.577,0,1.088-0.281,1.399-0.771c0.647-1.021,0.143-2.479-0.119-3.084l-0.26-1.218
				c-1.426-6.689-2.898-13.604-2.843-20.424c0.345-0.753,0.937-1.297,1.287-1.486c0.004,0.015,0.01,0.03,0.016,0.045
				c0.322,0.937,0.55,4.028,0.616,5.757c0.001,0.018,0.002,0.037,0.003,0.055c0.119,1.481,0.611,3.487,1.135,5.611
				c0.462,1.881,0.938,3.827,1.114,5.281c0.183,1.531,0.472,2.791,0.75,4.01c0.334,1.459,0.648,2.837,0.751,4.564
				c0.185,3.133-0.245,3.685-1.92,5.299c-0.274,0.265-0.521,0.481-0.742,0.674c-1.786,1.567-2.169,2.504-1.668,6.569
				c0.955,7.74,2.952,16.557,4.885,25.082c1.526,6.734,2.969,13.098,3.929,18.938c0.037,0.225,0.092,0.528,0.156,0.891
				C30.381,120.957,30.608,123.291,30.354,123.984z"/>
		</g>
		<path fill="#7CCDCD" d="M24.506,95.31c0,0,5.689,23.543,4.949,26.451c-0.741,2.91-2.656,4.4-3.542,4.162
			c-0.887-0.236,1.734-3.039,1.199-7.002c-0.385-2.834-4.104-24.625-3.602-24.85C24.011,93.849,24.506,95.31,24.506,95.31z"/>
	</g>
	<path fill="#FAAF40" d="M37.182,62.472c0,0-5.641,0.057-0.111,3.481c5.528,3.425,4.406,7.117,3.951,9.136
		c-0.453,2.021-0.586,6.9,1.948,6.849c2.535-0.054-0.271-4.31-0.153-5.556c0.119-1.245,5.171-5.818,2.937-9.529
		C41.498,59.795,37.182,62.472,37.182,62.472z"/>
	<path fill="#F9C989" d="M39.041,63.134c0,0,3.439-0.979,4.76,3.966c0.523,1.967-3.799-0.591-4.279-2.278
		C39.042,63.135,39.041,63.134,39.041,63.134z"/>
	<path fill="#C3996B" d="M67.043,112.941c-1.798,0.512-3.376,0.289-3,2.271c0.34,1.787,1.392,1.564,2.833,1.146
		c1.011-0.296,2.801-1.071,2.519-2.465C69.179,112.835,67.452,112.725,67.043,112.941z"/>
	<path fill="#C3996B" d="M54.956,114.972c-1.381,0.63-2.088,2.095-3.501,2.678c0.894,1.773,2.181,0.543,3.571,0.232
		c0.646-0.51,1.938-2.553,1.047-2.918C55.813,114.857,54.956,114.972,54.956,114.972z"/>
	<path fill="#C3996B" d="M57.822,109.826c-0.279,0.944,0.822,1.37,1.825,1.465c1.313-0.65-0.281-1.486-0.474-2.043
		c-0.502,0.057-0.861-0.752-1.85,0.248c0.136-0.25-0.138,0.236,0.077,0.277L57.822,109.826z"/>
	<path fill="#77111A" d="M50.386,52.327c0,0,6.432-2.413,4.733-0.354c-1.699,2.062-4.507,1.02-3.611,4.297
		c0.358,1.314,5.953,14.587,4.488,15.776c-1.467,1.193-4.104,1.031-3.356-1.688c0.751-2.721-3.852-14.963-3.452-16.697
		C49.24,53.428,49.499,52.805,50.386,52.327z"/>
</g>
</svg>
