<?xml version="1.0" encoding="utf-8"?>
<!-- Generator: Adobe Illustrator 16.0.0, SVG Export Plug-In . SVG Version: 6.00 Build 0)  -->
<!DOCTYPE svg PUBLIC "-//W3C//DTD SVG 1.1//EN" "http://www.w3.org/Graphics/SVG/1.1/DTD/svg11.dtd">
<svg version="1.1" id="Layer_1" xmlns="http://www.w3.org/2000/svg" xmlns:xlink="http://www.w3.org/1999/xlink" x="0px" y="0px"
	 width="143.311px" height="135.618px" viewBox="0 0 143.311 135.618" enable-background="new 0 0 143.311 135.618"
	 xml:space="preserve">
<g>
	<path fill="#FFFFFF" d="M12.152,29.943c5.67-5.422,11.417-10.462,16.729-16.345c5.682-6.288,8.75-7.304,17.608-8.709
		C54.822,3.564,60.658-0.035,68.736,0c3.477,0.015,7.252,0.273,10.593,1.654c2.823,1.167,4.356,4.063,7.051,5.43
		c6.337,3.216,7.978-1.412,13.161-2.822c3.551-0.965,7.82,0.616,10.477,1.866c6.802,3.215,9.488,10.495,14.68,15.199
		c5.852,5.303,9.801,8.061,14.148,15.119c4.129,6.699,3.461,13.876,4.209,21.735c1.324,13.938-2.554,29.421-9.979,40.573
		c-2.189,3.294-4.232,6.183-7.742,8.711c-2.873,2.069-6.844,2.485-8.99,5.004c-4.07,4.779,0.978,13.116-5.242,17.562
		c-3.865,2.761-11.48,5.163-15.566,5.549c-4.656,0.441-9.898-3.057-14.955-3.331c-9.398-0.513-19.545-2.916-28.385-5.618
		c-14.387-4.395-36.148-1.706-42.282-18.252c-2.82-7.609-0.147-14.947-2.989-22.653c-2.502-6.797-5.178-13.496-6.313-20.552
		c-1.135-7.043-0.776-13.993,1.802-20.708c1.161-3.03,2.784-6.313,4.3-9.234C7.636,33.45,12.152,29.943,12.152,29.943z"/>
	<g>
		<path fill="#754C28" d="M11.851,49.557c20.673-2.27,41.853,6.901,61.19,14.377c5.064,1.956,8.615,4.088,14.466,4.99
			c5.404,0.832,10.509,1.008,15.358,1.308c5.085,0.318,10.156,1.757,15.219,2.37c4.531,0.548,12.197-3.304,13.436,1.104
			c2.313,8.253-5.881,22.756-14.83,24.679c-12.871,2.769-29.906,5.686-43.257,6.137c-15.724,0.532-39.468-9.133-50.616-20.34
			c-6.88-6.917-15.701-19.34-13.946-29.567c0.21-1.232-0.288-2.922,0.649-3.729C9.922,50.543,11.185,49.631,11.851,49.557z"/>
		<path fill="#231F20" d="M72.171,105.415c-15.971,0-38.855-9.441-49.974-20.618C14.568,77.127,6.274,64.58,8.01,54.467
			c0.056-0.326,0.049-0.73,0.041-1.16c-0.018-1.014-0.039-2.275,0.899-3.083c0.02-0.017,1.683-1.41,2.804-1.535
			c2.159-0.237,4.398-0.357,6.659-0.357c17.069,0,33.95,6.594,50.275,12.971c1.566,0.611,3.123,1.22,4.667,1.816
			c1.391,0.537,2.666,1.086,3.898,1.617c3.206,1.381,6.234,2.685,10.386,3.325c4.4,0.677,8.6,0.915,12.66,1.146
			c0.881,0.05,1.754,0.1,2.619,0.153c2.989,0.187,5.992,0.758,8.896,1.31c2.095,0.397,4.261,0.81,6.373,1.065
			c1.486,0.176,3.394-0.165,5.253-0.494c1.532-0.271,3.117-0.551,4.49-0.551c2.421,0,3.91,0.936,4.429,2.779
			c1.176,4.196-0.152,10.213-3.465,15.702c-3.249,5.384-7.743,9.146-12.022,10.066c-7.775,1.673-27.571,5.62-43.411,6.155
			C73.038,105.408,72.606,105.415,72.171,105.415z M18.413,50.078c-2.197,0-4.373,0.117-6.467,0.347
			c-0.313,0.035-1.33,0.674-1.86,1.126c-0.314,0.271-0.302,1.011-0.289,1.727c0.008,0.49,0.017,0.996-0.066,1.483
			c-1.623,9.46,6.368,21.43,13.705,28.806c10.942,11,34.632,20.582,49.968,20.083c15.699-0.531,35.373-4.455,43.103-6.118
			c3.817-0.82,7.89-4.282,10.895-9.262c3.072-5.091,4.328-10.581,3.278-14.328c-0.219-0.781-0.704-1.505-2.747-1.505
			c-1.22,0-2.661,0.255-4.187,0.524c-1.99,0.352-4.07,0.712-5.766,0.507c-2.172-0.263-4.367-0.68-6.49-1.083
			c-2.852-0.542-5.8-1.102-8.679-1.282c-0.861-0.053-1.731-0.103-2.609-0.152c-4.103-0.232-8.344-0.474-12.827-1.164
			c-4.372-0.674-7.499-2.021-10.811-3.446c-1.218-0.524-2.478-1.066-3.837-1.592c-1.547-0.598-3.104-1.207-4.673-1.819
			C51.879,56.611,35.154,50.078,18.413,50.078z"/>
	</g>
	<g>
		<path fill="#231F20" d="M36.56,44.748l0.188,0.045c0.095,0.022,0.214,0.085,0.355,0.187c0.143,0.102,0.262,0.162,0.356,0.186
			c0.063,0.016,0.159,0.023,0.294,0.021c0.133-0.001,0.216,0.002,0.248,0.011c0.157,0.037,0.24,0.107,0.249,0.21
			c0.252,0.062,0.522,0.251,0.813,0.572c0.289,0.319,0.46,0.503,0.517,0.549c0.216,0.487,0.324,0.797,0.326,0.93
			c0.022,0.039,0.016,0.071-0.022,0.095l-0.06,0.036c0.088,0.188,0.102,0.408,0.041,0.661c-0.046,0.188-0.213,0.532-0.5,1.028
			c-0.071,0.017-0.138,0.017-0.201,0.002c-0.063-0.016-0.114-0.011-0.152,0.012c-0.031,0.127-0.093,0.246-0.187,0.356l-0.142-0.034
			c-0.222-0.054-0.363-0.155-0.427-0.304c-0.142,0.032-0.252,0.006-0.331-0.08c-0.056-0.047-0.067-0.133-0.037-0.259
			c-0.039,0.024-0.094,0.044-0.165,0.061s-0.132,0.026-0.183,0.03c-0.051,0.005-0.093,0.003-0.124-0.004
			c-0.173-0.109-0.323-0.18-0.449-0.21s-0.232-0.006-0.317,0.073c-0.072-0.118-0.124-0.18-0.156-0.188
			c-0.133,0.001-0.325,0.038-0.576,0.11s-0.454,0.09-0.612,0.052c-0.078,0.049-0.196,0.151-0.353,0.314
			c-0.156,0.162-0.285,0.248-0.387,0.257c-0.046,0.056-0.136,0.15-0.269,0.286c-0.133,0.134-0.243,0.24-0.329,0.32
			c-0.046,0.056-0.104,0.091-0.176,0.107c-0.086,0.079-0.14,0.165-0.163,0.26c-0.021,0.096-0.018,0.214,0.014,0.354l-0.091,0.177
			c-0.062,0.254-0.112,0.391-0.15,0.415c0.074,0.518,0.124,0.797,0.146,0.835c-0.038,0.025-0.073,0.1-0.104,0.226
			c-0.069,0.282-0.033,0.476,0.109,0.577c0.467,0.414,0.897,0.7,1.293,0.863c0.031,0.007,0.079,0.011,0.147,0.01
			c0.066,0,0.116,0.003,0.146,0.012c0.032,0.007,0.077,0.026,0.137,0.058c0.059,0.031,0.12,0.054,0.183,0.069
			c0.031,0.007,0.106,0.009,0.225,0.004c0.118-0.004,0.225,0.004,0.319,0.027c0.174,0.109,0.338,0.183,0.497,0.221
			c0.22,0.053,0.527,0.095,0.92,0.122l0.861-0.041l0.141,0.034c0.253,0.062,0.547,0.016,0.885-0.137l0.094,0.023
			c0.071-0.017,0.138-0.018,0.2-0.002c0.071-0.016,0.138-0.049,0.201-0.102c0.061-0.052,0.107-0.073,0.14-0.066
			c0.197,0.015,0.471,0.022,0.821,0.023c0.349,0.002,0.575-0.002,0.678-0.011c0.219-0.08,0.391-0.105,0.517-0.075
			c0.299-0.127,0.659-0.173,1.085-0.137c0.031,0.008,0.103-0.008,0.212-0.049c0.11-0.04,0.196-0.053,0.26-0.038l0.093,0.023
			c-0.015,0.063-0.007,0.099,0.024,0.106l0.19,0.045c0.126,0.03,0.227,0.097,0.302,0.198c0.075,0.103,0.161,0.164,0.256,0.187
			c0.015,0.071,0.051,0.13,0.106,0.177s0.095,0.091,0.119,0.129c0.023,0.039,0.029,0.116,0.02,0.229
			c-0.011,0.114,0.015,0.178,0.078,0.193c-0.009,0.032-0.036,0.076-0.082,0.131c-0.091,0.378-0.205,0.568-0.337,0.569
			c-0.016,0.063-0.047,0.121-0.094,0.177c-0.046,0.056-0.077,0.115-0.093,0.178c-0.063-0.016-0.142-0.001-0.236,0.043
			c-0.094,0.045-0.172,0.059-0.234,0.043c-0.071,0.017-0.195,0.046-0.371,0.086c-0.177,0.04-0.309,0.101-0.395,0.18
			c-0.031-0.008-0.096-0.015-0.194-0.022c-0.099-0.007-0.164-0.015-0.194-0.021l-0.012,0.047c-0.007,0.032-0.047,0.056-0.117,0.072
			c-0.158-0.038-0.343,0.034-0.554,0.215c-0.031-0.007-0.1,0.002-0.205,0.026c-0.106,0.024-0.19,0.028-0.253,0.014
			c-0.148,0.197-0.42,0.282-0.813,0.254c-0.832,0.266-1.396,0.396-1.695,0.39c-0.079,0.048-0.125,0.104-0.141,0.165
			c-0.024-0.038-0.067-0.065-0.13-0.081c-0.063-0.016-0.111-0.026-0.143-0.034c-0.142,0.033-0.597,0.123-1.365,0.27
			c-0.025-0.038-0.074-0.076-0.148-0.11c-0.075-0.035-0.128-0.057-0.16-0.064c-0.078,0.049-0.174,0.101-0.288,0.156
			c-0.113,0.057-0.19,0.096-0.229,0.119l-0.33-0.079c-0.158-0.039-0.296-0.021-0.413,0.05c-0.064-0.016-0.139-0.016-0.224-0.004
			c-0.087,0.013-0.146,0.015-0.177,0.007c-0.064-0.016-0.172-0.05-0.325-0.104c-0.155-0.055-0.263-0.089-0.326-0.104l-0.164,0.061
			c-0.109,0.041-0.181,0.057-0.212,0.049l-0.095-0.022c-0.094-0.023-0.24-0.075-0.438-0.156c-0.198-0.081-0.343-0.134-0.437-0.156
			l-0.095-0.023c-0.095-0.022-0.182-0.01-0.261,0.038c-0.03-0.008-0.14-0.042-0.324-0.104c-0.185-0.061-0.32-0.119-0.408-0.173
			c-0.032-0.009-0.14-0.116-0.32-0.328c-0.032-0.008-0.115-0.044-0.249-0.11c-0.134-0.065-0.229-0.121-0.284-0.169
			c-0.703-0.403-1.088-0.88-1.154-1.43c-0.324-0.178-0.479-0.366-0.464-0.563c-0.166-0.14-0.29-0.286-0.369-0.438
			c-0.08-0.152-0.155-0.362-0.224-0.63c-0.068-0.267-0.127-0.438-0.174-0.518c0.015-0.063,0.021-0.12,0.017-0.171
			c-0.006-0.052-0.004-0.093,0.005-0.124c0.015-0.063,0.001-0.142-0.043-0.236c-0.045-0.092-0.059-0.171-0.044-0.234
			c-0.023-0.039-0.082-0.354-0.172-0.941c0.015-0.063,0.006-0.166-0.025-0.308c-0.034-0.141-0.035-0.275-0.003-0.401l0.075-0.933
			l0.08-0.33l0.079-0.331l0.023-0.095c0.054-0.087,0.086-0.146,0.094-0.177l0.033-0.143c0.016-0.063,0.048-0.163,0.099-0.302
			c0.05-0.138,0.099-0.233,0.146-0.289s0.101-0.142,0.163-0.261c0.061-0.118,0.116-0.205,0.162-0.261
			c0.054-0.087,0.105-0.192,0.151-0.314s0.078-0.213,0.093-0.276l0.375-0.311c0.36-0.245,0.649-0.409,0.869-0.489
			c0.39-0.238,0.665-0.34,0.823-0.301l0.095,0.022c0.188-0.087,0.43-0.229,0.728-0.424c0.298-0.194,0.539-0.337,0.729-0.425
			l0.142,0.035c0.315,0.076,0.608,0.031,0.884-0.137c0.612,0.082,1.097,0.015,1.448-0.2C36.173,44.688,36.433,44.716,36.56,44.748z"
			/>
		<path fill="#231F20" d="M50.716,47.791c0.031,0.007,0.067,0.033,0.107,0.075c0.04,0.043,0.075,0.068,0.106,0.075
			c0.379,0.088,0.674,0.176,0.889,0.259c0.056,0.047,0.154,0.086,0.296,0.12s0.24,0.074,0.297,0.12l0.203,0.197
			c0.159,0.172,0.297,0.288,0.417,0.349l0.189,0.045c0.157,0.037,0.463,0.226,0.915,0.566c0.043,0.243,0.239,0.572,0.592,0.988
			c0.352,0.416,0.561,0.766,0.627,1.048c0.031,0.007,0.06,0.064,0.086,0.17c0.024,0.104,0.063,0.181,0.119,0.228
			c-0.039,0.023-0.065,0.067-0.08,0.131l0.013,0.153c0.01,0.102-0.01,0.182-0.055,0.237l0.024,0.105
			c0.016,0.07,0.021,0.121,0.014,0.152c0.023,0.039,0.032,0.075,0.025,0.105c-0.007,0.032-0.027,0.044-0.059,0.037
			c0.107,0.393,0.102,0.84-0.018,1.345c-0.008,0.032-0.051,0.105-0.126,0.22c-0.078,0.115-0.123,0.204-0.139,0.267l-0.011,0.048
			l0.025,0.105c0.05,0.212,0.184,0.345,0.405,0.396l0.143,0.034c0.187-0.088,0.476-0.146,0.864-0.171
			c0.389-0.024,0.672-0.066,0.853-0.123l0.332,0.078l0.153-0.014c0.109-0.041,0.299-0.104,0.569-0.191
			c0.271-0.086,0.476-0.146,0.616-0.179c0.432-0.131,0.83-0.27,1.198-0.416l0.588-0.162c0.374-0.178,0.734-0.292,1.079-0.344
			c0.07-0.017,0.174-0.025,0.307-0.027c0.134-0.002,0.256-0.023,0.366-0.064c0.069-0.016,0.16-0.045,0.27-0.086
			s0.23-0.062,0.365-0.063c0.422-0.101,0.697-0.136,0.823-0.105c0.19,0.045,0.32,0.125,0.394,0.242
			c0.095,0.156,0.125,0.313,0.088,0.47c-0.008,0.032-0.019,0.079-0.034,0.143l-0.058,0.036c-0.154,0.23-0.38,0.41-0.678,0.54
			c-0.039,0.023-0.079,0.09-0.121,0.196c-0.043,0.106-0.083,0.172-0.121,0.196c-0.39,0.241-0.612,0.404-0.666,0.491l-0.105,0.025
			c-0.095-0.022-0.154-0.052-0.178-0.091c-0.055,0.086-0.13,0.16-0.227,0.22c-0.098,0.062-0.17,0.119-0.217,0.175
			c-0.126-0.03-0.248-0.009-0.365,0.063c-0.116,0.072-0.206,0.102-0.269,0.087c-0.094,0.111-0.268,0.212-0.522,0.302
			c-0.255,0.089-0.423,0.174-0.509,0.253c-0.057-0.045-0.119-0.061-0.189-0.044c-0.071,0.017-0.122,0.021-0.153,0.014
			c-0.055,0.088-0.159,0.18-0.315,0.276c-0.132,0.001-0.311,0.051-0.533,0.148c-0.224,0.097-0.418,0.144-0.582,0.138
			c-0.078,0.049-0.129,0.119-0.15,0.213c-0.103,0.01-0.26,0.039-0.472,0.09c-0.21,0.05-0.384,0.076-0.517,0.077l-0.53,0.125
			c-0.04,0.024-0.177,0.041-0.412,0.053c-0.236,0.012-0.396,0.057-0.481,0.137c-0.095-0.023-0.22-0.02-0.377,0.011
			s-0.268,0.036-0.331,0.022c-0.233,0.144-0.468,0.222-0.703,0.232c-0.095-0.022-0.237-0.057-0.427-0.102
			c-0.189-0.044-0.335-0.062-0.438-0.053l-0.473-0.11c-0.102,0.009-0.181,0.056-0.233,0.144c-0.063-0.015-0.107-0.042-0.131-0.081
			l0.011-0.047c-0.071,0.017-0.352,0.217-0.841,0.602c-0.244,0.042-0.561,0.185-0.949,0.425c-0.392,0.241-0.712,0.399-0.962,0.473
			c-0.047,0.057-0.134,0.11-0.263,0.163c-0.13,0.052-0.218,0.106-0.264,0.162c-0.377,0.044-0.95,0.144-1.718,0.294
			c-0.024-0.038-0.068-0.065-0.132-0.081c-0.063-0.015-0.127-0.029-0.188-0.044c-0.078,0.049-0.204,0.052-0.377,0.011
			c-0.175-0.041-0.296-0.053-0.366-0.036c-0.025-0.039-0.053-0.063-0.084-0.07l-0.083-0.069c-0.86-0.169-1.534-0.562-2.021-1.176
			c-0.175-0.108-0.307-0.256-0.396-0.443c-0.032-0.008-0.071-0.018-0.119-0.028c-0.047-0.011-0.066-0.032-0.06-0.063
			c0.008-0.032-0.018-0.071-0.07-0.117c-0.057-0.046-0.081-0.085-0.073-0.117l-0.036-0.059c-0.031-0.007-0.063-0.015-0.095-0.021
			c-0.031-0.009-0.06-0.031-0.083-0.071l-0.037-0.058c0.008-0.031,0.005-0.057-0.007-0.077c-0.012-0.018-0.034-0.032-0.064-0.039
			c-0.018-0.07-0.068-0.174-0.152-0.312c-0.085-0.136-0.146-0.267-0.183-0.393c-0.037-0.125-0.045-0.234-0.021-0.329
			c-0.056-0.047-0.098-0.114-0.126-0.205c-0.029-0.09-0.057-0.155-0.08-0.194c-0.009-0.102-0.047-0.261-0.112-0.475
			c-0.066-0.217-0.119-0.379-0.16-0.488c-0.279-0.232-0.372-0.538-0.283-0.916c-0.161-0.306-0.192-0.662-0.097-1.072l0.023-0.095
			c0.007-0.031-0.001-0.066-0.025-0.106L42.6,52.97l0.125-0.32l0.044-0.189c0.016-0.063,0.043-0.106,0.081-0.131l0.069-0.083
			l0.157-0.663c0.007-0.031,0.044-0.08,0.109-0.148c0.066-0.067,0.104-0.118,0.11-0.149c0.277-0.466,0.547-0.836,0.812-1.107
			l0.293-0.181l0.069-0.083c0.038-0.023,0.062-0.052,0.069-0.084c0.14-0.033,0.227-0.046,0.258-0.039
			c0.101-0.143,0.277-0.291,0.532-0.449c0.252-0.156,0.425-0.29,0.519-0.402c0.103-0.008,0.288-0.09,0.558-0.243
			c0.269-0.152,0.485-0.226,0.652-0.221c0.06-0.118,0.187-0.229,0.378-0.335s0.306-0.17,0.345-0.194
			c0.038-0.023,0.105-0.058,0.199-0.103c0.094-0.043,0.161-0.077,0.2-0.102c0.07-0.017,0.153-0.014,0.247,0.008
			c0.095,0.022,0.177,0.026,0.248,0.009c0.07-0.017,0.193-0.046,0.37-0.088c0.177-0.04,0.315-0.066,0.418-0.076l0.427,0.101
			c0.156,0.037,0.311,0.058,0.46,0.059C50.498,47.757,50.621,47.769,50.716,47.791z M46.677,54.531l-0.142-0.033
			c-0.094,0.111-0.176,0.283-0.247,0.517c-0.073,0.231-0.134,0.393-0.188,0.479c0.024,0.039,0.041,0.109,0.051,0.212
			c0.009,0.103,0.04,0.177,0.096,0.223l-0.109,0.474c0.093,0.021,0.196,0.146,0.311,0.374l0.994,0.233
			c0.124-0.103,0.358-0.181,0.703-0.233c0.346-0.051,0.573-0.097,0.684-0.139c0.045-0.056,0.067-0.15,0.066-0.284
			c-0.023-0.039-0.229-0.154-0.618-0.346c-0.072-0.116-0.125-0.179-0.156-0.186c-0.024-0.04-0.099-0.074-0.224-0.104
			c-0.121-0.195-0.213-0.301-0.276-0.315l-0.047-0.011L47.5,55.275c-0.094-0.022-0.154-0.053-0.178-0.093l-0.061-0.163
			c-0.025-0.039-0.084-0.07-0.178-0.092C46.844,54.671,46.708,54.539,46.677,54.531z M50.663,50.976
			c-0.063-0.016-0.166-0.006-0.307,0.027c-0.142,0.034-0.243,0.042-0.307,0.027c-0.07,0.018-0.144,0.051-0.222,0.098
			c-0.078,0.05-0.133,0.069-0.164,0.062c-0.127-0.03-0.372,0.096-0.737,0.375l-0.034,0.142l-0.246,0.192
			c-0.171,0.16-0.323,0.241-0.456,0.242c0.015,0.071,0.051,0.171,0.104,0.299c0.053,0.13,0.075,0.21,0.068,0.241l0.086,0.271
			c0.017,0.071,0.079,0.161,0.188,0.269c0.106,0.11,0.165,0.214,0.175,0.315c0.236,0.124,0.404,0.264,0.5,0.419
			c0.381,0.223,0.634,0.416,0.763,0.579c0.063,0.015,0.128,0.055,0.196,0.122c0.067,0.065,0.117,0.102,0.148,0.109
			c0.031,0.007,0.084,0.037,0.155,0.086c0.071,0.051,0.137,0.092,0.196,0.122c0.059,0.031,0.119,0.054,0.184,0.068
			c0.095,0.022,0.212,0.018,0.354-0.016c0.395-0.541,0.598-0.842,0.612-0.905l0.034-0.142c0.124-0.104,0.202-0.22,0.231-0.346
			c0.007-0.031,0.018-0.112,0.032-0.242c0.014-0.13,0.028-0.226,0.043-0.29c0.008-0.03,0.03-0.092,0.068-0.184
			c0.038-0.091,0.064-0.167,0.08-0.23l0.022-0.096c-0.018-0.069-0.046-0.159-0.087-0.269s-0.057-0.18-0.05-0.212
			c0.006-0.165-0.016-0.286-0.063-0.365c-0.065-0.147-0.286-0.309-0.66-0.48C51.193,51.094,50.892,50.996,50.663,50.976z"/>
		<path fill="#231F20" d="M70.425,41.75c0.379,0.087,0.782,0.212,1.21,0.377c0.143,0.101,0.318,0.273,0.529,0.521l0.095,0.021
			c0.157,0.037,0.269,0.096,0.333,0.178c0.064,0.081,0.118,0.21,0.161,0.386c0.043,0.177,0.089,0.303,0.138,0.38l0.263,0.16
			c0.002,0.135,0.146,0.301,0.435,0.5c0.001,0.133,0.029,0.305,0.08,0.517C73.72,45,73.75,45.156,73.76,45.259
			c0.088,0.053,0.137,0.13,0.147,0.232c0.009,0.102,0.007,0.218-0.006,0.348c-0.013,0.131-0.012,0.231,0.007,0.302l-0.055,0.236
			c0.023,0.038,0.031,0.115,0.022,0.229c-0.011,0.114-0.003,0.191,0.021,0.229c0.042,0.109,0.063,0.232,0.066,0.364
			c0.017,0.07,0.007,0.185-0.028,0.343c-0.029,0.126-0.074,0.25-0.135,0.369c-0.107,0.175-0.171,0.309-0.193,0.404
			c-0.028,0.127-0.006,0.248,0.066,0.364c-0.1,0.144-0.133,0.286-0.098,0.426c-0.095-0.021-0.169,0.012-0.222,0.1L73.3,49.443
			c-0.039,0.024-0.081,0.098-0.125,0.22c-0.046,0.123-0.104,0.194-0.174,0.21c-0.046,0.056-0.058,0.104-0.032,0.142
			c0.023,0.039,0.028,0.091,0.015,0.153c-0.039,0.024-0.126,0.155-0.264,0.39c-0.137,0.234-0.264,0.388-0.38,0.461
			c-0.008,0.031-0.001,0.075,0.021,0.13c0.02,0.054,0.011,0.095-0.027,0.118c-0.079,0.049-0.142,0.142-0.189,0.281
			c-0.049,0.138-0.096,0.235-0.142,0.29c-0.092,0.112-0.395,0.344-0.906,0.691c-0.152,0.23-0.249,0.358-0.287,0.383
			c0.016,0.07,0.002,0.135-0.043,0.19l-0.081,0.131c-0.43,0.135-0.677,0.343-0.742,0.627c-0.015,0.064-0.041,0.108-0.079,0.133
			c-0.015,0.063-0.081,0.131-0.198,0.204c-0.115,0.073-0.182,0.141-0.196,0.203c-0.458,0.262-0.8,0.517-1.022,0.764l0.616,0.142
			c0.442,0.101,0.754,0.123,0.933,0.063l0.284,0.065c0.07-0.017,0.141-0.034,0.212-0.051c0.07-0.017,0.129-0.021,0.177-0.01
			s0.112,0.018,0.194,0.02c0.083,0.003,0.159-0.005,0.229-0.022l1.135,0.061c0.03,0.007,0.149,0.002,0.353-0.018
			c0.204-0.021,0.354-0.02,0.448,0.002l0.252,0.208c0.144,0.1,0.24,0.188,0.289,0.266c0.254,0.192,0.364,0.366,0.328,0.523
			c-0.015,0.063-0.041,0.141-0.078,0.232c-0.038,0.091-0.061,0.152-0.067,0.184c-0.015,0.064-0.026,0.152-0.036,0.267
			c-0.01,0.115-0.021,0.202-0.035,0.266c-0.029,0.127-0.064,0.202-0.103,0.227c-0.099,0.144-0.389,0.244-0.866,0.3
			c-0.071,0.018-0.136,0.045-0.193,0.081c-0.059,0.037-0.107,0.067-0.146,0.092c-0.103,0.01-0.31,0.045-0.624,0.105
			c-0.313,0.062-0.552,0.09-0.717,0.086c-0.071,0.017-0.18,0.017-0.324-0.001c-0.146-0.016-0.278-0.021-0.396-0.015
			c-0.119,0.006-0.216,0.033-0.294,0.082l-0.179-0.091c-0.031-0.007-0.258,0.04-0.682,0.143l-0.048-0.011l-0.084-0.068
			c-0.157-0.037-0.346-0.014-0.563,0.069l-0.237-0.054c-0.222-0.052-0.561-0.096-1.018-0.134c-0.127-0.028-0.182-0.074-0.167-0.139
			c-0.109,0.042-0.307,0.03-0.591-0.035l-0.474-0.108c-0.039,0.024-0.036,0.05,0.008,0.076s0.03,0.049-0.04,0.065
			c-0.05-0.077-0.1-0.08-0.148-0.009c-0.05,0.072-0.106,0.101-0.169,0.087c0.034,0.14,0.044,0.242,0.029,0.306
			c-0.007,0.031-0.029,0.093-0.067,0.185c-0.038,0.09-0.063,0.167-0.078,0.23c-0.021,0.095-0.023,0.178-0.007,0.248l-0.197,0.205
			c-0.014,0.063,0.001,0.142,0.047,0.235c0.045,0.092,0.058,0.187,0.035,0.281c-0.052,0.222-0.067,0.368-0.051,0.438
			c-0.021,0.095-0.063,0.243-0.127,0.444c-0.063,0.202-0.108,0.366-0.137,0.492c-0.059,0.253-0.082,0.43-0.072,0.532
			c-0.008,0.032-0.058,0.104-0.149,0.215c0.024,0.04,0.022,0.123-0.007,0.249c-0.043,0.188-0.151,0.363-0.32,0.524
			c-0.007,0.031,0.016,0.078,0.068,0.14c0.052,0.063,0.09,0.113,0.114,0.152l-0.239,1.042c-0.007,0.032-0.026,0.077-0.057,0.136
			c-0.03,0.061-0.049,0.105-0.056,0.138c-0.043,0.188,0.012,0.452,0.169,0.787c-0.062,0.118-0.065,0.283-0.015,0.495
			c-0.045,0.056-0.081,0.14-0.106,0.251c-0.025,0.109-0.041,0.18-0.049,0.212c0.111,0.092,0.146,0.233,0.103,0.424
			c-0.021,0.095-0.072,0.166-0.149,0.215c-0.014,0.063,0.004,0.125,0.057,0.187c0.052,0.063,0.056,0.121,0.01,0.178
			c0.073,0.116,0.126,0.178,0.157,0.186c-0.039,0.023-0.069,0.084-0.091,0.179c-0.008,0.031-0.005,0.091,0.009,0.177
			c0.013,0.085,0.014,0.161-0.001,0.224l-0.011,0.048l0.205,0.196c-0.01,0.33-0.025,0.544-0.048,0.638
			c-0.007,0.031-0.041,0.106-0.101,0.227c-0.062,0.118-0.099,0.21-0.113,0.273c-0.065,0.284-0.141,0.466-0.226,0.546
			c-0.046,0.057-0.04,0.1,0.021,0.131c0.06,0.029,0.086,0.061,0.079,0.093c-0.047,0.056-0.44,0.099-1.178,0.129
			c-0.024-0.039-0.08-0.086-0.168-0.139c-0.056-0.047-0.1-0.073-0.13-0.079l-0.048-0.012c-0.039,0.024-0.075,0.033-0.105,0.025
			c-0.096-0.021-0.207-0.08-0.335-0.176c-0.127-0.097-0.224-0.151-0.287-0.166l-0.094-0.021c-0.189-0.043-0.37-0.201-0.541-0.473
			l-0.236-0.054c-0.024-0.039-0.061-0.098-0.108-0.176l-0.026-0.105c-0.056-0.047-0.136-0.099-0.239-0.155s-0.183-0.108-0.239-0.152
			c-0.054-0.347-0.172-0.557-0.354-0.631c-0.197-0.444-0.401-0.791-0.61-1.039c0.043-0.188-0.032-0.372-0.224-0.549l0.022-0.096
			c0.015-0.063,0.012-0.121-0.01-0.176c-0.021-0.055-0.055-0.121-0.104-0.199c-0.049-0.077-0.082-0.151-0.098-0.222
			c0.035-0.159,0.048-0.288,0.039-0.391c0.008-0.032-0.01-0.103-0.052-0.211l-0.062-0.163c0.001-0.3-0.01-0.469-0.033-0.508
			l0.031-0.143c-0.058-0.18-0.092-0.395-0.101-0.646c-0.009-0.252-0.011-0.533-0.005-0.85c0.005-0.314,0.01-0.555,0.016-0.72
			c0.006-0.03,0.035-0.049,0.087-0.055c0.051-0.004,0.067-0.043,0.051-0.113c0.038-0.023,0.011-0.047-0.084-0.069
			c-0.063-0.015-0.087-0.053-0.072-0.116c0.028-0.126,0.065-0.218,0.112-0.274c-0.066-0.146-0.044-0.607,0.066-1.38
			c-0.002-0.134,0.039-0.315,0.125-0.546c0.086-0.229,0.124-0.396,0.114-0.497c0.008-0.031,0.004-0.09-0.009-0.177
			c-0.014-0.086-0.017-0.146-0.009-0.178c0.014-0.063,0.034-0.116,0.062-0.159c0.026-0.044,0.044-0.082,0.051-0.113l-0.025-0.105
			c-0.019-0.071-0.022-0.121-0.016-0.153c0.029-0.126,0.076-0.299,0.144-0.516c0.066-0.218,0.111-0.374,0.132-0.469l0.282-1.232
			c0.065-0.284,0.141-0.467,0.226-0.547c0.074-0.184,0.171-0.526,0.287-1.032c0.014-0.063,0.096-0.277,0.247-0.642
			c0.101-0.442,0.208-0.767,0.322-0.974c0.007-0.031,0.035-0.083,0.085-0.154c0.05-0.072,0.082-0.14,0.097-0.203l0.043-0.189
			l0.139-0.168c0.054-0.087,0.148-0.356,0.285-0.808c0.137-0.45,0.29-0.757,0.46-0.917c0.055-0.387,0.24-0.868,0.556-1.444
			c0.313-0.576,0.505-1.007,0.569-1.291c0.522-0.679,0.815-1.16,0.881-1.444c0.038-0.025,0.104-0.093,0.196-0.205
			c0.036-0.157,0.136-0.343,0.302-0.555c0.165-0.21,0.262-0.379,0.29-0.506c0.146-0.199,0.403-0.49,0.774-0.87
			c0.369-0.382,0.646-0.683,0.831-0.907c0.015-0.063,0.073-0.1,0.175-0.11l0.106-0.025c0.052-0.087,0.113-0.174,0.182-0.258
			c0.069-0.084,0.111-0.156,0.126-0.219c0.031,0.006,0.066-0.002,0.106-0.026c0.038-0.024,0.069-0.017,0.095,0.021l0.033-0.143
			c0.415-0.07,0.696-0.14,0.845-0.205c0.069-0.017,0.172-0.026,0.306-0.03c0.07-0.016,0.154-0.055,0.251-0.116
			c0.097-0.061,0.181-0.101,0.251-0.117c0.039-0.024,0.131-0.021,0.272,0.013c0.143,0.032,0.244,0.056,0.309,0.07
			c0.029,0.008,0.081,0.002,0.152-0.016l0.105-0.025C69.994,41.668,70.171,41.691,70.425,41.75z M70.561,45.722l-0.602,0.013
			c-0.441,0.331-0.81,1.145-1.107,2.438c-0.124,0.105-0.223,0.316-0.295,0.632c-0.061,0.118-0.159,0.263-0.297,0.431
			c-0.139,0.168-0.254,0.341-0.344,0.52c-0.092,0.179-0.144,0.367-0.154,0.563c-0.071,0.017-0.135,0.077-0.191,0.181
			c-0.058,0.103-0.105,0.167-0.145,0.191c-0.181,0.357-0.287,0.6-0.315,0.726c-0.058,0.253,0.005,0.417,0.188,0.492
			c0.203-0.02,0.344-0.055,0.422-0.103c0.007-0.032,0.039-0.099,0.096-0.203c0.057-0.104,0.104-0.167,0.145-0.191l0.175-0.109
			l0.298-0.431c0.007-0.031,0.039-0.066,0.098-0.103s0.11-0.082,0.157-0.139c0.008-0.031,0.022-0.094,0.043-0.188
			c0.022-0.096,0.056-0.17,0.103-0.227c0.007-0.031,0.053-0.088,0.138-0.168c0.085-0.081,0.151-0.148,0.196-0.205l0.634-0.803
			c0.167-0.293,0.255-0.456,0.261-0.488l0.292-0.183c0.035-0.158,0.08-0.281,0.134-0.369c0.153-0.229,0.272-0.535,0.359-0.915
			c0.015-0.062,0.03-0.166,0.047-0.313s0.03-0.234,0.037-0.267c-0.019-0.07-0.028-0.173-0.03-0.307
			c-0.003-0.132-0.028-0.238-0.077-0.315C70.711,45.79,70.624,45.736,70.561,45.722z"/>
		<path fill="#231F20" d="M84.159,44.85c0.38,0.084,0.784,0.207,1.214,0.368c0.144,0.099,0.321,0.271,0.533,0.518L86,45.756
			c0.158,0.035,0.271,0.093,0.336,0.174c0.064,0.081,0.119,0.209,0.164,0.385c0.043,0.176,0.09,0.303,0.141,0.381l0.263,0.157
			c0.003,0.133,0.149,0.299,0.438,0.495c0.003,0.135,0.032,0.306,0.085,0.517s0.084,0.367,0.095,0.47
			c0.089,0.053,0.136,0.131,0.146,0.231c0.011,0.103,0.01,0.218-0.002,0.349c-0.012,0.13-0.01,0.23,0.009,0.301l-0.054,0.237
			c0.024,0.039,0.033,0.115,0.024,0.229c-0.009,0.114-0.002,0.191,0.024,0.229c0.042,0.109,0.064,0.231,0.068,0.364
			c0.017,0.07,0.009,0.186-0.026,0.343c-0.028,0.127-0.073,0.25-0.131,0.369c-0.105,0.177-0.169,0.312-0.189,0.406
			c-0.028,0.126-0.006,0.248,0.068,0.363c-0.099,0.146-0.13,0.288-0.095,0.429c-0.095-0.021-0.17,0.012-0.222,0.101l-0.053,0.236
			c-0.038,0.024-0.08,0.099-0.124,0.222s-0.101,0.194-0.171,0.212c-0.046,0.057-0.057,0.104-0.031,0.143
			c0.023,0.038,0.029,0.089,0.016,0.153c-0.04,0.023-0.127,0.153-0.261,0.389c-0.136,0.236-0.261,0.392-0.377,0.465
			c-0.007,0.032,0,0.073,0.021,0.129c0.021,0.055,0.011,0.094-0.026,0.119c-0.078,0.049-0.141,0.143-0.188,0.281
			c-0.048,0.14-0.095,0.237-0.14,0.294c-0.092,0.112-0.392,0.345-0.901,0.696c-0.151,0.233-0.246,0.36-0.284,0.385
			c0.017,0.071,0.002,0.134-0.043,0.19l-0.078,0.132c-0.429,0.138-0.676,0.349-0.739,0.633c-0.014,0.064-0.041,0.107-0.078,0.133
			c-0.015,0.063-0.079,0.131-0.194,0.205c-0.116,0.074-0.182,0.144-0.195,0.206c-0.458,0.264-0.797,0.521-1.018,0.771l0.616,0.136
			c0.443,0.099,0.754,0.117,0.934,0.058l0.285,0.063c0.07-0.018,0.141-0.035,0.212-0.053c0.069-0.018,0.128-0.021,0.176-0.011
			c0.047,0.01,0.112,0.018,0.194,0.018c0.083,0.002,0.159-0.006,0.23-0.023l1.134,0.053c0.032,0.007,0.149,0,0.354-0.021
			c0.203-0.021,0.354-0.021,0.448,0l0.254,0.205c0.143,0.098,0.239,0.186,0.29,0.264c0.256,0.189,0.367,0.364,0.332,0.521
			c-0.014,0.064-0.04,0.142-0.076,0.231c-0.038,0.092-0.06,0.154-0.065,0.186c-0.015,0.063-0.027,0.152-0.035,0.267
			c-0.008,0.115-0.021,0.203-0.034,0.267c-0.028,0.127-0.062,0.201-0.101,0.226c-0.099,0.145-0.386,0.247-0.864,0.307
			c-0.07,0.019-0.134,0.045-0.192,0.082c-0.058,0.037-0.107,0.068-0.146,0.093c-0.102,0.011-0.309,0.048-0.621,0.11
			c-0.313,0.064-0.552,0.096-0.717,0.091c-0.071,0.018-0.18,0.019-0.325,0.003c-0.146-0.016-0.277-0.02-0.395-0.013
			c-0.119,0.007-0.217,0.034-0.293,0.083l-0.18-0.089c-0.032-0.006-0.26,0.042-0.681,0.147l-0.047-0.011l-0.085-0.068
			c-0.159-0.035-0.348-0.009-0.563,0.075l-0.238-0.054c-0.222-0.048-0.561-0.091-1.018-0.125c-0.127-0.028-0.184-0.074-0.169-0.138
			c-0.109,0.043-0.305,0.032-0.591-0.031l-0.475-0.104c-0.039,0.024-0.037,0.05,0.007,0.076s0.031,0.05-0.039,0.065
			c-0.05-0.076-0.098-0.078-0.146-0.008c-0.05,0.072-0.106,0.102-0.169,0.087c0.035,0.142,0.045,0.243,0.031,0.307
			c-0.007,0.032-0.028,0.094-0.065,0.185c-0.037,0.092-0.063,0.17-0.077,0.232c-0.021,0.094-0.022,0.177-0.004,0.247l-0.196,0.206
			c-0.014,0.063,0.002,0.143,0.048,0.234c0.046,0.095,0.059,0.188,0.037,0.283c-0.049,0.221-0.064,0.367-0.047,0.438
			c-0.021,0.095-0.063,0.243-0.124,0.446c-0.063,0.201-0.106,0.365-0.135,0.492c-0.056,0.254-0.078,0.432-0.067,0.532
			c-0.008,0.032-0.057,0.104-0.148,0.217c0.024,0.039,0.023,0.122-0.005,0.248c-0.042,0.189-0.147,0.365-0.315,0.527
			c-0.008,0.032,0.015,0.078,0.069,0.14c0.053,0.062,0.09,0.112,0.115,0.15l-0.231,1.045c-0.007,0.032-0.025,0.077-0.056,0.138
			c-0.03,0.06-0.048,0.105-0.055,0.137c-0.042,0.189,0.016,0.451,0.175,0.785c-0.061,0.12-0.063,0.284-0.011,0.496
			c-0.045,0.056-0.08,0.139-0.105,0.25c-0.024,0.111-0.04,0.183-0.047,0.215c0.112,0.09,0.147,0.23,0.105,0.421
			c-0.021,0.095-0.07,0.167-0.147,0.216c-0.014,0.064,0.005,0.127,0.058,0.188c0.053,0.063,0.056,0.12,0.012,0.177
			c0.073,0.116,0.125,0.178,0.156,0.185c-0.038,0.023-0.068,0.084-0.088,0.179c-0.007,0.032-0.004,0.091,0.009,0.178
			c0.015,0.085,0.016,0.16,0.001,0.225l-0.011,0.047l0.206,0.194c-0.007,0.331-0.021,0.544-0.042,0.639
			c-0.007,0.032-0.041,0.107-0.101,0.227c-0.059,0.119-0.096,0.211-0.11,0.274c-0.062,0.285-0.136,0.468-0.22,0.55
			c-0.046,0.056-0.039,0.098,0.021,0.128c0.059,0.029,0.086,0.061,0.079,0.093c-0.046,0.056-0.438,0.102-1.178,0.138
			c-0.024-0.04-0.08-0.085-0.168-0.138c-0.057-0.045-0.101-0.072-0.132-0.079l-0.048-0.01c-0.039,0.023-0.074,0.032-0.105,0.026
			c-0.095-0.021-0.206-0.079-0.335-0.174c-0.128-0.096-0.225-0.148-0.287-0.164l-0.096-0.021c-0.189-0.042-0.37-0.199-0.543-0.47
			l-0.237-0.052c-0.025-0.039-0.062-0.098-0.111-0.175l-0.026-0.104c-0.057-0.046-0.136-0.098-0.24-0.153
			c-0.104-0.057-0.183-0.107-0.239-0.153c-0.057-0.345-0.177-0.554-0.36-0.627c-0.2-0.442-0.405-0.788-0.616-1.032
			c0.042-0.19-0.034-0.374-0.228-0.549l0.021-0.096c0.014-0.063,0.01-0.122-0.012-0.177c-0.021-0.054-0.056-0.119-0.105-0.197
			c-0.05-0.077-0.083-0.151-0.1-0.222c0.034-0.159,0.046-0.289,0.036-0.391c0.008-0.032-0.011-0.103-0.053-0.21l-0.063-0.164
			c-0.001-0.299-0.013-0.468-0.037-0.506l0.031-0.143c-0.06-0.179-0.095-0.396-0.105-0.646c-0.011-0.252-0.015-0.534-0.012-0.849
			c0.003-0.315,0.007-0.555,0.011-0.72c0.006-0.031,0.035-0.051,0.087-0.056c0.051-0.006,0.067-0.043,0.05-0.113
			c0.038-0.024,0.01-0.048-0.085-0.068c-0.063-0.015-0.088-0.053-0.073-0.117c0.028-0.126,0.064-0.216,0.11-0.272
			c-0.066-0.148-0.049-0.609,0.058-1.384c-0.004-0.133,0.036-0.315,0.121-0.545c0.083-0.231,0.12-0.396,0.11-0.499
			c0.008-0.031,0.003-0.091-0.011-0.177c-0.015-0.085-0.018-0.144-0.011-0.176c0.015-0.063,0.033-0.117,0.062-0.161
			c0.025-0.044,0.042-0.081,0.049-0.113L73.3,61.268c-0.019-0.07-0.023-0.121-0.017-0.153c0.028-0.126,0.073-0.298,0.139-0.516
			c0.064-0.219,0.108-0.375,0.129-0.47l0.273-1.234c0.063-0.285,0.138-0.468,0.223-0.549c0.073-0.184,0.166-0.527,0.278-1.034
			c0.014-0.062,0.095-0.277,0.241-0.644c0.1-0.442,0.204-0.768,0.316-0.976c0.008-0.031,0.035-0.083,0.085-0.155
			c0.048-0.072,0.081-0.14,0.096-0.203l0.042-0.19l0.137-0.168c0.052-0.088,0.146-0.358,0.278-0.81
			c0.132-0.453,0.284-0.759,0.453-0.922c0.053-0.387,0.234-0.868,0.545-1.447s0.498-1.01,0.562-1.295
			c0.516-0.682,0.806-1.167,0.869-1.45c0.038-0.025,0.104-0.094,0.195-0.207c0.035-0.157,0.134-0.344,0.298-0.556
			c0.163-0.213,0.259-0.383,0.286-0.51c0.145-0.2,0.4-0.491,0.767-0.876c0.367-0.382,0.643-0.687,0.826-0.913
			c0.014-0.063,0.072-0.1,0.174-0.11l0.104-0.026c0.053-0.089,0.114-0.175,0.183-0.258c0.068-0.085,0.109-0.158,0.123-0.223
			c0.031,0.008,0.067-0.001,0.106-0.026c0.038-0.024,0.07-0.017,0.095,0.021l0.032-0.143c0.413-0.073,0.695-0.145,0.844-0.211
			c0.069-0.018,0.171-0.028,0.306-0.032c0.069-0.018,0.152-0.058,0.25-0.119c0.096-0.061,0.179-0.101,0.25-0.118
			c0.039-0.024,0.13-0.021,0.271,0.011c0.144,0.031,0.244,0.055,0.309,0.068c0.032,0.007,0.082,0.002,0.153-0.016l0.105-0.027
			C83.729,44.771,83.906,44.794,84.159,44.85z M84.325,48.821l-0.601,0.015c-0.44,0.335-0.803,1.151-1.09,2.448
			c-0.124,0.106-0.221,0.317-0.291,0.634c-0.061,0.12-0.158,0.264-0.295,0.433c-0.136,0.169-0.25,0.343-0.34,0.522
			c-0.089,0.179-0.14,0.367-0.15,0.564c-0.071,0.018-0.134,0.078-0.189,0.182c-0.057,0.104-0.104,0.169-0.143,0.192
			c-0.179,0.358-0.282,0.603-0.31,0.729c-0.057,0.254,0.007,0.416,0.188,0.489c0.205-0.021,0.346-0.056,0.423-0.105
			c0.008-0.031,0.038-0.099,0.095-0.202c0.056-0.104,0.104-0.168,0.143-0.193l0.174-0.11l0.295-0.434
			c0.008-0.03,0.039-0.064,0.098-0.102c0.058-0.037,0.109-0.084,0.155-0.14c0.008-0.031,0.021-0.096,0.042-0.19
			c0.021-0.095,0.055-0.171,0.101-0.228c0.008-0.03,0.052-0.088,0.137-0.169c0.083-0.08,0.148-0.148,0.195-0.205l0.627-0.807
			c0.165-0.296,0.25-0.46,0.258-0.492l0.29-0.184c0.035-0.158,0.079-0.281,0.132-0.369c0.151-0.232,0.269-0.538,0.354-0.918
			c0.014-0.063,0.028-0.168,0.044-0.314c0.016-0.146,0.027-0.234,0.035-0.267c-0.019-0.07-0.029-0.172-0.032-0.305
			c-0.005-0.134-0.031-0.239-0.079-0.316C84.477,48.888,84.388,48.835,84.325,48.821z"/>
		<path fill="#231F20" d="M93.971,58.578c0.783,0.531,1.225,0.953,1.323,1.273c0.106,0.121,0.224,0.312,0.352,0.57
			c0.127,0.259,0.232,0.43,0.314,0.515c-0.007,0.031-0.001,0.081,0.018,0.151s0.005,0.134-0.04,0.19
			c0.082,0.084,0.137,0.211,0.168,0.384c0.029,0.172,0.072,0.279,0.129,0.324c-0.02,0.096-0.017,0.203,0.007,0.325
			c0.024,0.121,0.029,0.214,0.017,0.276c0.144,0.263,0.205,0.44,0.186,0.536c-0.014,0.064-0.039,0.142-0.074,0.232
			c-0.037,0.093-0.058,0.155-0.063,0.187c-0.014,0.063-0.003,0.165,0.034,0.305c-0.08,0.381-0.111,0.606-0.093,0.677
			c-0.038,0.024-0.094,0.129-0.165,0.313c-0.072,0.184-0.146,0.301-0.222,0.351c0.049,0.078,0.051,0.227,0.005,0.447l-0.07,0.334
			c-0.103,0.012-0.208,0.08-0.317,0.207c-0.11,0.126-0.199,0.198-0.27,0.217c-0.079,0.215-0.243,0.412-0.496,0.591
			c-0.254,0.179-0.426,0.325-0.516,0.438c-0.022,0.261,0.039,0.522,0.183,0.785l0.096,0.02c0.096,0.02,0.203,0.018,0.324-0.006
			c0.121-0.025,0.212-0.03,0.276-0.017l0.096,0.02c0.108-0.043,0.29-0.079,0.545-0.108c0.254-0.028,0.416-0.054,0.487-0.071
			c0.7-0.185,1.13-0.26,1.289-0.227c0.206-0.188,0.327-0.295,0.365-0.32c0.031,0.006,0.06,0.03,0.085,0.067l0.037,0.059l0.452-0.253
			c0.063,0.014,0.135-0.013,0.215-0.078c0.08-0.066,0.168-0.09,0.263-0.069l0.096,0.02c0.3-0.169,0.9-0.424,1.801-0.764
			c0.069-0.018,0.168-0.014,0.296,0.013c0.031,0.006,0.102-0.011,0.21-0.055c0.107-0.044,0.197-0.074,0.268-0.094
			c0.063,0.014,0.146,0.015,0.248,0.003c0.102-0.011,0.168-0.014,0.2-0.008c0.103-0.011,0.247-0.072,0.436-0.181
			c0.188-0.11,0.334-0.171,0.437-0.183c0.095,0.02,0.178,0.021,0.248,0.003c0.063,0.014,0.152-0.018,0.268-0.092
			c0.337-0.028,0.522-0.039,0.554-0.033l0.096,0.021c0.069-0.018,0.151-0.018,0.247,0.002l0.855,0.18
			c0.107,0.122,0.162,0.259,0.163,0.408c0.001,0.148-0.021,0.336-0.067,0.557c-0.047,0.222-0.064,0.384-0.053,0.485
			c-0.248,0.081-0.39,0.117-0.42,0.111c-0.316,0.397-0.542,0.599-0.674,0.603l-0.069,0.334c-0.372,0.187-0.613,0.385-0.723,0.593
			l-0.095-0.021c-0.096-0.02-0.206,0.04-0.335,0.179c-0.37,0.021-0.759,0.22-1.17,0.599c-0.095-0.021-0.213,0.021-0.351,0.125
			c-0.137,0.104-0.24,0.165-0.311,0.183c-0.07,0.019-0.163,0.024-0.277,0.017c-0.114-0.007-0.207-0.002-0.276,0.016
			c-0.032-0.006-0.063,0.021-0.092,0.081c-0.03,0.06-0.061,0.085-0.092,0.079c-0.094-0.021-0.229,0.026-0.4,0.139
			c-0.174,0.113-0.324,0.156-0.45,0.129c-0.032-0.006-0.068,0.003-0.104,0.027c-0.046,0.058-0.101,0.079-0.163,0.066
			c-0.039,0.024-0.062,0.054-0.068,0.085c-0.006,0.031-0.029,0.06-0.067,0.085c-0.765,0.171-1.163,0.251-1.194,0.245
			c-0.18,0.061-0.428,0.143-0.746,0.24c-0.319,0.099-0.532,0.17-0.641,0.213c-0.058-0.045-0.134-0.077-0.229-0.098
			c-0.096-0.02-0.214-0.012-0.354,0.024c-0.141,0.038-0.241,0.049-0.306,0.036c-0.287,0.105-0.463,0.15-0.525,0.137
			c-0.095-0.02-0.156-0.048-0.181-0.087c-0.032-0.007-0.069,0.011-0.11,0.052s-0.078,0.058-0.109,0.052l-0.619-0.131
			c-0.738,0.043-1.392,0.005-1.964-0.115c-0.38-0.08-0.688-0.195-0.922-0.343c-0.057-0.045-0.102-0.063-0.136-0.055
			c-0.036,0.009-0.069,0.011-0.102,0.004c-0.815-0.37-1.483-0.826-1.998-1.364c0.038-0.025,0.044-0.057,0.021-0.096L88.92,69.59
			c-0.096-0.02-0.188-0.056-0.275-0.108c-0.02-0.069-0.073-0.205-0.162-0.406c-0.091-0.201-0.126-0.35-0.105-0.444
			c-0.279-0.092-0.405-0.284-0.376-0.576c-0.032-0.008-0.07-0.023-0.114-0.05c-0.045-0.025-0.099-0.046-0.161-0.059
			c-0.308-0.428-0.541-1.207-0.701-2.334c0.069-0.018,0.088-0.063,0.054-0.138c-0.034-0.072-0.048-0.126-0.041-0.158
			c0.006-0.031,0.028-0.06,0.067-0.085l0.01-0.048l-0.064-0.161c-0.013-0.103,0.025-0.36,0.112-0.772l0.051-0.236
			c0.026-0.127,0.035-0.332,0.029-0.616c-0.007-0.281,0.004-0.487,0.03-0.614l0.11-0.523c0.032,0.007,0.063-0.027,0.097-0.104
			c0.033-0.075,0.064-0.11,0.096-0.104c-0.024-0.038-0.031-0.089-0.018-0.153c0.021-0.095,0.098-0.229,0.234-0.397l-0.028-0.104
			c-0.019-0.07-0.024-0.121-0.018-0.153c0.051-0.089,0.143-0.244,0.271-0.465c0.13-0.221,0.258-0.393,0.383-0.517
			c0.126-0.122,0.261-0.218,0.408-0.286c0.04-0.19,0.16-0.33,0.362-0.421c0.2-0.089,0.327-0.18,0.379-0.268
			c0.07-0.018,0.174-0.038,0.312-0.06c0.135-0.021,0.238-0.04,0.31-0.059c0.218-0.086,0.499-0.243,0.844-0.468
			c0.031,0.007,0.086-0.015,0.163-0.065c0.306-0.034,0.528-0.07,0.668-0.107c0.07-0.018,0.164-0.032,0.283-0.04
			c0.116-0.009,0.21-0.021,0.281-0.04l0.315-0.083c0.031,0.007,0.059,0.03,0.085,0.067l0.095,0.021
			c0.204-0.023,0.354-0.025,0.449-0.005c0.063,0.014,0.142,0.039,0.231,0.074c0.093,0.036,0.154,0.057,0.187,0.063
			C93.834,58.6,93.9,58.597,93.971,58.578z M92.696,62.981l-0.057,0.037l-0.191-0.04c-0.635-0.134-0.994,0.006-1.081,0.419
			c-0.014,0.063-0.043,0.123-0.088,0.179l-0.183,0.161c-0.02,0.095-0.055,0.262-0.105,0.5c-0.05,0.237-0.085,0.404-0.105,0.499
			c-0.052,0.089-0.098,0.229-0.138,0.418c-0.027,0.128-0.031,0.226-0.013,0.295c0.113,0.092,0.234,0.149,0.361,0.177
			c0.315,0.066,0.759,0.011,1.327-0.169c0.254-0.11,0.428-0.224,0.519-0.337c0.038-0.024,0.092-0.047,0.162-0.065
			c0.07-0.018,0.109-0.043,0.116-0.075c0.147-0.234,0.256-0.509,0.322-0.826s0.063-0.533-0.013-0.648
			C93.134,63.189,92.854,63.014,92.696,62.981z"/>
		<path fill="#231F20" d="M109.114,61.676c0.792,0.516,1.241,0.93,1.347,1.248c0.108,0.119,0.229,0.308,0.361,0.564
			c0.132,0.256,0.241,0.425,0.324,0.508c-0.006,0.031,0.001,0.082,0.021,0.151c0.019,0.07,0.007,0.134-0.036,0.192
			c0.083,0.082,0.141,0.207,0.175,0.379c0.033,0.172,0.078,0.279,0.137,0.323c-0.019,0.096-0.015,0.204,0.013,0.324
			c0.025,0.121,0.033,0.212,0.021,0.276c0.147,0.259,0.213,0.437,0.194,0.532c-0.013,0.064-0.036,0.142-0.069,0.233
			c-0.035,0.093-0.056,0.155-0.061,0.187c-0.013,0.064,0,0.166,0.04,0.306c-0.073,0.382-0.101,0.607-0.08,0.677
			c-0.038,0.026-0.091,0.132-0.158,0.316c-0.068,0.187-0.142,0.303-0.217,0.354c0.051,0.076,0.056,0.227,0.013,0.449l-0.063,0.333
			c-0.102,0.015-0.207,0.085-0.313,0.213c-0.108,0.128-0.196,0.203-0.266,0.222c-0.075,0.218-0.236,0.418-0.486,0.6
			c-0.25,0.185-0.418,0.334-0.506,0.448c-0.018,0.261,0.048,0.521,0.198,0.78l0.095,0.019c0.096,0.019,0.204,0.014,0.324-0.013
			c0.121-0.025,0.212-0.033,0.276-0.021l0.095,0.02c0.107-0.046,0.29-0.086,0.544-0.12c0.253-0.033,0.415-0.061,0.485-0.08
			c0.697-0.197,1.126-0.28,1.285-0.249c0.202-0.192,0.32-0.302,0.359-0.328c0.03,0.007,0.06,0.028,0.086,0.066l0.039,0.058
			l0.445-0.263c0.064,0.013,0.136-0.016,0.215-0.083c0.077-0.066,0.166-0.092,0.261-0.073l0.096,0.019
			c0.298-0.173,0.893-0.439,1.786-0.797c0.069-0.02,0.168-0.019,0.296,0.007c0.031,0.005,0.102-0.014,0.209-0.06
			c0.108-0.046,0.197-0.078,0.267-0.098c0.063,0.012,0.146,0.012,0.247-0.003c0.103-0.012,0.17-0.017,0.201-0.01
			c0.102-0.013,0.245-0.077,0.432-0.189c0.187-0.113,0.331-0.177,0.433-0.19c0.096,0.019,0.179,0.018,0.249-0.002
			c0.063,0.013,0.151-0.021,0.265-0.098c0.336-0.035,0.521-0.049,0.554-0.043l0.096,0.019c0.069-0.02,0.152-0.021,0.247-0.003
			l0.86,0.164c0.108,0.121,0.165,0.256,0.17,0.404c0.004,0.149-0.015,0.336-0.058,0.559s-0.057,0.386-0.043,0.486
			c-0.248,0.085-0.388,0.124-0.419,0.118c-0.308,0.404-0.53,0.61-0.661,0.616l-0.064,0.334c-0.367,0.194-0.604,0.396-0.71,0.608
			l-0.097-0.02c-0.094-0.018-0.205,0.044-0.331,0.184c-0.369,0.029-0.755,0.236-1.158,0.621c-0.096-0.018-0.212,0.026-0.348,0.131
			c-0.135,0.106-0.238,0.17-0.308,0.188c-0.07,0.021-0.162,0.028-0.276,0.021c-0.115-0.004-0.208,0.002-0.277,0.021
			c-0.032-0.005-0.062,0.021-0.09,0.082c-0.028,0.062-0.059,0.089-0.089,0.082c-0.095-0.019-0.229,0.03-0.399,0.147
			c-0.171,0.116-0.32,0.162-0.447,0.138c-0.032-0.007-0.067,0.003-0.104,0.029c-0.044,0.057-0.098,0.079-0.161,0.066
			c-0.039,0.026-0.061,0.056-0.066,0.087c-0.006,0.032-0.029,0.061-0.066,0.086c-0.761,0.186-1.158,0.274-1.189,0.269
			c-0.179,0.064-0.424,0.15-0.742,0.255c-0.317,0.104-0.529,0.178-0.637,0.225c-0.058-0.044-0.134-0.076-0.229-0.095
			c-0.095-0.018-0.214-0.008-0.353,0.032c-0.14,0.039-0.24,0.054-0.305,0.041c-0.286,0.11-0.46,0.159-0.523,0.147
			c-0.096-0.019-0.157-0.046-0.182-0.085c-0.032-0.005-0.069,0.012-0.109,0.054c-0.041,0.042-0.077,0.061-0.109,0.054l-0.621-0.118
			c-0.737,0.057-1.392,0.031-1.965-0.079c-0.383-0.073-0.691-0.182-0.929-0.326c-0.057-0.043-0.103-0.06-0.138-0.051
			c-0.035,0.012-0.068,0.013-0.1,0.006c-0.823-0.355-1.499-0.798-2.024-1.327c0.037-0.025,0.044-0.058,0.019-0.097l-0.039-0.056
			c-0.096-0.019-0.188-0.052-0.277-0.104c-0.02-0.069-0.077-0.204-0.17-0.403c-0.095-0.199-0.132-0.347-0.113-0.442
			c-0.281-0.087-0.41-0.276-0.387-0.568c-0.032-0.006-0.07-0.021-0.115-0.047c-0.045-0.024-0.099-0.044-0.163-0.056
			c-0.313-0.424-0.563-1.197-0.744-2.321c0.069-0.02,0.087-0.065,0.052-0.139c-0.036-0.072-0.051-0.124-0.045-0.156
			c0.006-0.031,0.027-0.061,0.066-0.087l0.009-0.047l-0.068-0.162c-0.014-0.103,0.02-0.359,0.099-0.773l0.046-0.238
			c0.024-0.127,0.029-0.334,0.019-0.616c-0.012-0.282-0.006-0.487,0.019-0.615l0.101-0.525c0.032,0.007,0.063-0.028,0.094-0.104
			c0.032-0.077,0.064-0.113,0.095-0.106c-0.025-0.037-0.033-0.089-0.021-0.152c0.019-0.097,0.095-0.229,0.227-0.402l-0.03-0.104
			c-0.02-0.069-0.025-0.121-0.021-0.153c0.05-0.089,0.138-0.246,0.264-0.469c0.125-0.224,0.248-0.398,0.371-0.523
			c0.124-0.125,0.258-0.224,0.403-0.293c0.036-0.191,0.154-0.335,0.354-0.429c0.199-0.093,0.325-0.186,0.375-0.274
			c0.069-0.02,0.172-0.042,0.31-0.065c0.136-0.024,0.238-0.045,0.309-0.063c0.216-0.09,0.494-0.253,0.836-0.484
			c0.03,0.005,0.084-0.017,0.161-0.069c0.305-0.04,0.527-0.08,0.667-0.119c0.069-0.02,0.162-0.035,0.28-0.046
			c0.117-0.011,0.21-0.025,0.28-0.046l0.314-0.087c0.032,0.006,0.061,0.028,0.087,0.064l0.095,0.02
			c0.203-0.027,0.354-0.031,0.448-0.013c0.064,0.012,0.143,0.034,0.235,0.068c0.092,0.034,0.154,0.054,0.187,0.061
			C108.978,61.699,109.044,61.695,109.114,61.676z M107.922,66.103l-0.057,0.037l-0.191-0.035c-0.637-0.121-0.994,0.024-1.073,0.438
			c-0.013,0.064-0.041,0.124-0.084,0.183l-0.181,0.163c-0.018,0.096-0.05,0.263-0.095,0.502c-0.047,0.238-0.078,0.406-0.097,0.501
			c-0.051,0.089-0.093,0.23-0.131,0.421c-0.023,0.127-0.025,0.227-0.007,0.296c0.116,0.088,0.237,0.145,0.364,0.169
			c0.318,0.06,0.76-0.004,1.325-0.193c0.252-0.116,0.423-0.232,0.512-0.348c0.037-0.025,0.091-0.049,0.161-0.068
			c0.069-0.019,0.108-0.046,0.114-0.077c0.145-0.235,0.246-0.514,0.307-0.833c0.062-0.317,0.053-0.533-0.024-0.647
			C108.362,66.302,108.081,66.132,107.922,66.103z"/>
	</g>
	<g>
		<path fill="#231F20" d="M18.725,96.866l0.249,0.283c0.146-0.001,0.265,0.02,0.354,0.062c0.119,0.058,0.264,0.155,0.436,0.293
			c0.171,0.137,0.302,0.228,0.392,0.271l0.399,0.193c0.03,0.015,0.078,0.01,0.144-0.013s0.114-0.027,0.144-0.012
			c0.075,0.071,0.187,0.144,0.336,0.216l0.801,0.388L22,98.611c0.045,0.058,0.083,0.094,0.112,0.109l0.489,0.236l0.204,0.261
			c0.044,0.06,0.13,0.128,0.258,0.207c0.125,0.079,0.203,0.126,0.233,0.14c0.646,0.711,1.021,1.219,1.13,1.525l0.178,0.086
			c-0.027,0.06,0.003,0.146,0.093,0.264c0.005,0.292,0.062,0.555,0.168,0.787c-0.043,0.089-0.033,0.22,0.029,0.396
			c-0.015,0.029-0.034,0.128-0.062,0.296c-0.026,0.17-0.062,0.298-0.103,0.385l-0.043,0.089l-0.108,0.111
			c-0.029,0.059-0.06,0.161-0.094,0.309c-0.035,0.146-0.065,0.249-0.095,0.308l-0.043,0.088l-0.195,0.177
			c-0.015,0.03-0.025,0.07-0.031,0.122c-0.007,0.051-0.018,0.093-0.031,0.121l-0.065,0.022c-0.028,0.06-0.05,0.104-0.064,0.133
			c0.001,0.073-0.005,0.125-0.02,0.154c-0.014,0.102-0.1,0.241-0.256,0.418c-0.029,0.06-0.047,0.114-0.053,0.166
			c-0.007,0.051-0.018,0.093-0.031,0.121c-0.029,0.06-0.079,0.125-0.151,0.199s-0.116,0.126-0.13,0.154
			c-0.028,0.059-0.031,0.14-0.007,0.242c0.023,0.102,0.028,0.169,0.015,0.197l-0.037,0.418l-0.107,0.22
			c0.033,0.234,0.022,0.41-0.035,0.527c0.136,0.175,0.189,0.291,0.161,0.349c0.269,0.202,0.402,0.341,0.404,0.413
			c0.744,0.432,1.541,0.601,2.393,0.504c0.103-0.06,0.289-0.087,0.562-0.082s0.467-0.038,0.582-0.127
			c0.119,0.058,0.273,0.077,0.466,0.061c0.073,0.001,0.172-0.034,0.296-0.102c0.123-0.066,0.207-0.107,0.251-0.123
			c0.043-0.015,0.11-0.02,0.198-0.013c0.088,0.006,0.147-0.02,0.177-0.079c0.103,0.015,0.238,0.017,0.408,0.008
			c0.168-0.009,0.305-0.007,0.408,0.007c0.102-0.06,0.27-0.068,0.507-0.027c0.072-0.001,0.143-0.03,0.208-0.09
			c0.064-0.06,0.112-0.082,0.142-0.067c0.044-0.016,0.17-0.009,0.376,0.018l0.088-0.066c0.087-0.03,0.152-0.052,0.196-0.067
			c0.088-0.029,0.19-0.052,0.309-0.069c0.117-0.015,0.198-0.03,0.242-0.045c0.395-0.137,0.682-0.161,0.859-0.075
			c0.089,0.043,0.141,0.087,0.156,0.13c0.387,0.26,0.496,0.566,0.325,0.919l-0.128,0.264c-0.127,0.265-0.271,0.45-0.432,0.555
			c-0.059,0.044-0.128,0.074-0.208,0.089c-0.082,0.016-0.129,0.039-0.143,0.068c-0.015,0.029-0.044,0.07-0.086,0.12
			c-0.045,0.052-0.084,0.096-0.12,0.133c-0.035,0.037-0.075,0.063-0.119,0.078c-0.131,0.046-0.235,0.069-0.308,0.068l-0.548,0.226
			c-0.378,0.254-0.605,0.379-0.678,0.38c-0.246,0.208-0.546,0.335-0.898,0.382c-0.233,0.18-0.658,0.301-1.273,0.364
			c-0.322,0.136-0.638,0.182-0.947,0.141c-0.06-0.029-0.118-0.021-0.176,0.024c-0.06,0.044-0.103,0.059-0.132,0.045l-0.134-0.065
			c-0.061-0.028-0.151-0.026-0.276,0.003c-0.123,0.031-0.23,0.024-0.32-0.019c-0.042,0.089-0.163,0.149-0.361,0.18
			c-0.198,0.031-0.319,0.055-0.362,0.069l-0.089-0.043c-0.06-0.029-0.244-0.063-0.554-0.104c-0.133-0.028-0.296-0.07-0.487-0.128
			c-0.192-0.056-0.305-0.092-0.333-0.106c-0.398-0.084-0.613-0.133-0.644-0.146l-0.089-0.044l-0.021,0.044
			c-0.015,0.03-0.037,0.037-0.066,0.022c-0.044,0.016-0.141-0.013-0.289-0.085c-0.059-0.028-0.143-0.041-0.253-0.041
			c-0.111,0.001-0.196-0.013-0.255-0.041c-0.03-0.014-0.079-0.064-0.146-0.151s-0.131-0.146-0.19-0.174
			c-0.045,0.016-0.081,0.016-0.11,0.001c-0.09-0.116-0.337-0.344-0.741-0.684c-0.403-0.34-0.636-0.635-0.699-0.883
			c-0.118-0.057-0.216-0.159-0.292-0.305c-0.135-0.174-0.241-0.37-0.318-0.59c-0.061-0.101-0.111-0.206-0.149-0.316
			c-0.039-0.108-0.096-0.2-0.17-0.271c-0.031-0.088-0.077-0.146-0.136-0.175c-0.031-0.088-0.207-0.101-0.53-0.039
			c-0.178-0.013-0.287,0.024-0.329,0.113c-0.192-0.057-0.368,0.004-0.526,0.181c-0.853,0.098-1.293,0.138-1.322,0.124
			c-0.617,0.064-1.097,0.033-1.437-0.097c-0.029-0.014-0.077-0.01-0.144,0.014c-0.065,0.022-0.113,0.025-0.144,0.012
			c-0.118-0.058-0.369-0.143-0.754-0.256l-0.133-0.065c-0.269-0.129-0.6-0.371-0.995-0.725c-0.396-0.355-0.677-0.59-0.841-0.706
			c-0.031-0.086-0.096-0.199-0.193-0.338c-0.098-0.138-0.17-0.235-0.214-0.294c-0.017-0.043-0.069-0.124-0.159-0.239
			c-0.016-0.044-0.047-0.149-0.094-0.318c-0.048-0.167-0.123-0.295-0.227-0.381c0.014-0.029,0.013-0.066-0.003-0.109l0.021-0.046
			c-0.062-0.102-0.141-0.275-0.24-0.523c-0.1-0.247-0.195-0.43-0.286-0.546c-0.001-0.072-0.032-0.197-0.094-0.372
			c-0.063-0.174-0.088-0.314-0.074-0.416c-0.001-0.074,0.026-0.169,0.084-0.286l-0.07-0.197c-0.018-0.189,0.063-0.623,0.243-1.297
			c0.156-0.323,0.314-0.537,0.474-0.642c0.015-0.029,0.021-0.118,0.018-0.264c0.043-0.088,0.118-0.188,0.227-0.298
			c0.109-0.111,0.185-0.211,0.228-0.299c0.015-0.029,0.047-0.041,0.099-0.034s0.084-0.004,0.099-0.034
			c0.057-0.117,0.077-0.198,0.062-0.242c0.029-0.059,0.146-0.111,0.352-0.157l-0.023-0.064c0.014-0.029,0.027-0.059,0.042-0.088
			c0.028-0.06,0.075-0.118,0.141-0.178c0.064-0.059,0.105-0.104,0.119-0.134c0.148,0.072,0.287,0.05,0.418-0.069
			c0.044-0.015,0.052-0.048,0.021-0.099c-0.03-0.051-0.038-0.091-0.023-0.121l0.328-0.113c0.057-0.116,0.158-0.213,0.305-0.288
			c0.146-0.074,0.24-0.119,0.284-0.135l0.461-0.158c0.014-0.029,0.051-0.03,0.11-0.001s0.11,0.035,0.154,0.021l0.021-0.044
			c0.044-0.089,0.107-0.147,0.196-0.178c0.088-0.03,0.138-0.06,0.152-0.089l0.042-0.088c0.702-0.314,1.229-0.459,1.583-0.434
			c0.043-0.015,0.087-0.066,0.13-0.154c0.088,0.042,0.176,0.049,0.264,0.019c0.044-0.015,0.095-0.044,0.154-0.09l0.087-0.065
			c0.043-0.015,0.08,0.003,0.111,0.054c0.029,0.051,0.06,0.083,0.09,0.097c0.264-0.09,0.573-0.049,0.93,0.123l0.266,0.129
			L18.725,96.866z M19.971,100.596c-0.039-0.109-0.088-0.178-0.147-0.207c-0.06-0.028-0.111-0.034-0.154-0.02
			c-0.059,0.044-0.147,0.037-0.266-0.02c-0.014,0.029-0.039,0.062-0.075,0.1c-0.037,0.036-0.061,0.07-0.075,0.099
			c-0.06-0.028-0.134-0.027-0.221,0.003c-0.089,0.03-0.162,0.03-0.222,0.002c-0.014,0.03-0.212,0.135-0.59,0.313
			c-0.277,0.192-0.523,0.399-0.739,0.622c-0.275,0.267-0.485,0.51-0.628,0.73c-0.029,0.059-0.071,0.128-0.129,0.21
			c-0.059,0.08-0.116,0.144-0.174,0.188c-0.027,0.06-0.118,0.17-0.27,0.331c-0.152,0.163-0.249,0.288-0.292,0.376l-0.063,0.133
			c-0.083,0.323,0.023,0.556,0.321,0.699c0.118,0.058,0.243,0.063,0.375,0.019c0.029,0.014,0.102-0.023,0.219-0.112l0.264-0.091
			c0.014-0.028,0.05-0.066,0.108-0.11s0.105-0.085,0.142-0.121c0.036-0.038,0.061-0.071,0.074-0.101
			c0.379-0.253,0.604-0.452,0.675-0.601c0.088-0.029,0.37-0.273,0.849-0.731l0.239-0.156c0.072-0.073,0.275-0.266,0.608-0.577
			c0.014-0.028,0.043-0.088,0.086-0.176c0.042-0.089,0.092-0.154,0.15-0.198c-0.003-0.147,0.019-0.265,0.061-0.353
			C20.051,100.79,20.01,100.705,19.971,100.596z"/>
		<path fill="#231F20" d="M52.549,94.706c0.187,0.065,0.422,0.192,0.706,0.379c0.283,0.186,0.473,0.296,0.566,0.328
			c0.092,0.135,0.347,0.45,0.769,0.945c-0.101,0.482-0.141,0.747-0.12,0.788c-0.022,0.063-0.013,0.134,0.028,0.217
			c0.04,0.084,0.045,0.171,0.013,0.265c-0.002,0.103,0.043,0.3,0.133,0.592c0.091,0.29,0.103,0.528,0.038,0.714l-0.032,0.092
			c0.082,0.064,0.122,0.198,0.119,0.405l-0.113,0.324c-0.086,0.247-0.115,0.427-0.085,0.54c-0.011,0.032-0.045,0.055-0.103,0.069
			c-0.058,0.014-0.092,0.036-0.103,0.067c0.009,0.072,0.031,0.159,0.067,0.258c0.034,0.098,0.063,0.169,0.083,0.211
			c-0.063,0.081-0.134,0.229-0.21,0.445c-0.086,0.246-0.136,0.438-0.147,0.57c-0.032,0.093-0.099,0.208-0.199,0.346
			c-0.1,0.138-0.156,0.223-0.167,0.253l-0.178,0.508l-0.222,0.183c-0.054,0.051-0.104,0.146-0.152,0.284
			c-0.049,0.139-0.089,0.254-0.122,0.346c-0.084,0.04-0.151,0.086-0.204,0.137c-0.234,0.369-0.394,0.573-0.477,0.611
			c-0.022,0.063-0.07,0.123-0.144,0.183c-0.074,0.062-0.121,0.123-0.143,0.185l-0.017,0.046c-0.239-0.014-0.344,0.087-0.315,0.305
			c-0.012,0.032-0.054,0.052-0.126,0.06l-0.109,0.014c-0.022,0.063-0.022,0.113-0.002,0.154c0.02,0.042,0.024,0.079,0.014,0.109
			c-0.053,0.051-0.163,0.116-0.33,0.195c-0.257,0.532-0.443,0.866-0.56,0.998c-0.128,0.163-0.187,0.282-0.177,0.354
			c-0.251,0.119-0.425,0.266-0.521,0.44l-0.374-0.131c-0.064,0.185-0.155,0.344-0.271,0.476c-0.117,0.132-0.259,0.264-0.426,0.395
			c-0.17,0.132-0.291,0.254-0.364,0.366c-0.147,0.019-0.236,0.073-0.269,0.166c-0.124-0.044-0.249-0.035-0.375,0.024l0.028,0.217
			c-0.021,0.063-0.101,0.138-0.237,0.229s-0.227,0.198-0.27,0.321c-0.396,0.034-0.664,0.251-0.806,0.651
			c-0.084,0.04-0.199,0.121-0.346,0.242c-0.147,0.121-0.243,0.192-0.284,0.212c-0.043,0.02-0.085,0.065-0.127,0.137
			c-0.043,0.071-0.091,0.133-0.143,0.184l-0.252,0.119l-0.192,0.399c-0.021,0.063-0.023,0.166-0.003,0.311l-0.082,0.231
			c-0.043,0.123-0.088,0.349-0.134,0.68s-0.111,0.566-0.196,0.709c-0.012,0.031-0.002,0.104,0.028,0.218
			c0.029,0.115,0.033,0.203,0.012,0.265l-0.032,0.093c0.179,0.686,0.247,1.09,0.203,1.212l-0.032,0.093
			c0.071,0.095,0.131,0.247,0.181,0.453c0.05,0.209,0.11,0.358,0.182,0.453c0.01,0.073-0.022,0.114-0.096,0.123
			c-0.03-0.012-0.052-0.001-0.062,0.029c-0.002,0.104,0.129,0.428,0.394,0.97l-0.033,0.092c-0.032,0.093-0.054,0.206-0.066,0.341
			c-0.013,0.134-0.023,0.216-0.035,0.246l-0.031,0.093c0.051,0.053,0.117,0.162,0.199,0.33c-0.012,0.03-0.07,0.097-0.175,0.198
			l0.057,0.435c-0.043,0.124-0.181,0.266-0.411,0.428c-0.209-0.004-0.481-0.048-0.819-0.132c-0.337-0.083-0.558-0.127-0.661-0.129
			c-0.021-0.041-0.127-0.113-0.318-0.215c-0.191-0.103-0.307-0.194-0.348-0.278c-0.187-0.065-0.412-0.316-0.678-0.757
			c-0.204-0.313-0.403-0.59-0.599-0.833c-0.124-0.146-0.247-0.242-0.37-0.286c-0.218-0.076-0.563-0.016-1.033,0.183
			c-0.473,0.198-0.822,0.275-1.05,0.229c-0.315,0.098-0.534,0.125-0.657,0.081c-0.336,0.159-0.747,0.188-1.236,0.086l-0.558-0.196
			c-0.188-0.065-0.563-0.171-1.122-0.316c-0.561-0.144-0.991-0.286-1.291-0.427c-0.154-0.156-0.479-0.323-0.978-0.498
			c-0.194-0.242-0.432-0.411-0.712-0.51l-0.141-0.05c-0.103-0.104-0.159-0.192-0.168-0.266c-0.187-0.065-0.536-0.361-1.051-0.888
			c-0.041-0.083-0.049-0.155-0.027-0.218c-0.032-0.011-0.114-0.074-0.248-0.191c-0.135-0.115-0.222-0.216-0.262-0.3
			c-0.072-0.093-0.146-0.257-0.22-0.491c-0.075-0.234-0.148-0.398-0.221-0.493c0.011-0.03,0.017-0.071,0.018-0.123
			c0-0.052,0.007-0.093,0.018-0.124c-0.144-0.188-0.188-0.411-0.133-0.669c-0.041-0.083-0.064-0.239-0.072-0.467
			c-0.008-0.229-0.032-0.383-0.072-0.467l0.079-0.076c0.011-0.029,0.022-0.062,0.032-0.092c-0.121-0.251-0.139-0.499-0.052-0.746
			c0.021-0.061,0.084-0.143,0.19-0.244c0.021-0.062,0.038-0.159,0.051-0.294c0.012-0.134,0.034-0.248,0.066-0.341
			c0.032-0.091,0.083-0.211,0.153-0.36c0.069-0.148,0.115-0.253,0.137-0.315c0.011-0.031,0.006-0.067-0.014-0.109l0.032-0.093
			c0.063-0.08,0.147-0.173,0.253-0.274c0.105-0.101,0.169-0.182,0.191-0.244l0.113-0.324c0.084-0.143,0.251-0.317,0.498-0.525
			c0.247-0.207,0.376-0.326,0.388-0.358c0.134,0.015,0.275-0.015,0.424-0.085c0.145-0.068,0.271-0.102,0.375-0.101l-0.047-0.016
			c-0.03-0.012-0.042-0.032-0.03-0.063c0.043-0.122,0.327-0.334,0.852-0.636c0.011-0.031,0.034-0.074,0.072-0.13
			c0.037-0.056,0.076-0.095,0.119-0.114c0.041-0.02,0.185-0.056,0.431-0.108c0.244-0.053,0.398-0.12,0.463-0.201
			c0.761-0.079,1.251-0.132,1.471-0.159c0.031,0.011,0.06,0.029,0.086,0.056c0.025,0.027,0.053,0.045,0.084,0.057
			c0.041-0.021,0.083-0.041,0.126-0.061c0.041-0.02,0.083-0.04,0.125-0.06c0.084,0.063,0.218,0.128,0.404,0.193
			c0.094,0.033,0.253,0.072,0.483,0.118c0.228,0.046,0.404,0.09,0.53,0.134c0.122,0.043,0.21,0.092,0.262,0.145
			c0.354-0.015,0.992,0.106,1.917,0.36c0.139-0.297,0.338-0.764,0.597-1.4c0.257-0.637,0.462-1.118,0.612-1.446
			c0.021-0.062,0.062-0.1,0.118-0.113c0.058-0.015,0.097-0.053,0.119-0.115l-0.015-0.108c0.021-0.062,0.071-0.131,0.151-0.207
			c0.079-0.076,0.129-0.145,0.149-0.206c0.012-0.03-0.003-0.088-0.043-0.172c0.177-0.11,0.315-0.305,0.413-0.582
			c0.146-0.018,0.341-0.174,0.584-0.47l0.113-0.324c0.03,0.012,0.073-0.034,0.127-0.137c0.054-0.102,0.116-0.157,0.189-0.166
			c-0.01-0.073,0.002-0.156,0.035-0.248c0.032-0.093,0.117-0.21,0.254-0.353s0.228-0.274,0.271-0.397
			c0.062-0.082,0.171-0.217,0.324-0.406c0.153-0.188,0.277-0.317,0.372-0.388c0.012-0.03,0.018-0.072,0.018-0.124
			c0.001-0.052,0.012-0.107,0.033-0.17c0.104,0.003,0.273-0.181,0.507-0.549c0.011-0.03-0.001-0.069-0.037-0.116
			s-0.049-0.087-0.038-0.117c0.033-0.093,0.134-0.283,0.305-0.568l0.141,0.049c0.442-0.468,0.805-0.756,1.089-0.865l0.032-0.091
			c0.054-0.154,0.188-0.314,0.403-0.481c0.217-0.167,0.347-0.313,0.39-0.435c0.093,0.033,0.15,0.019,0.172-0.044l0.173-0.043
			c0.041-0.02,0.067-0.045,0.078-0.076c0.011-0.03,0.021-0.062,0.033-0.093c0.209-0.099,0.522-0.197,0.94-0.293
			s0.669-0.163,0.753-0.203c0.062,0.022,0.215,0.033,0.46,0.032c0.244-0.001,0.415,0.016,0.507,0.048l0.094,0.031
			c0.094-0.068,0.264-0.078,0.508-0.028c0.245,0.051,0.402,0.072,0.475,0.063l0.141,0.05c0.063,0.021,0.159,0.047,0.289,0.075
			C52.391,94.66,52.486,94.685,52.549,94.706z M39.43,109.104c-0.156-0.054-0.338-0.083-0.545-0.087
			c-0.041-0.084-0.093-0.136-0.154-0.158c-0.063-0.021-0.159-0.021-0.29,0.003s-0.227,0.023-0.288,0.002
			c-0.315,0.201-0.588,0.279-0.815,0.233c-0.231,0.162-0.478,0.265-0.738,0.312c-0.193,0.349-0.524,0.648-0.995,0.896
			c0.123,0.044,0.175,0.098,0.154,0.159c-0.044,0.123-0.111,0.264-0.201,0.423c-0.092,0.158-0.147,0.269-0.169,0.33
			c-0.054,0.154-0.062,0.273-0.021,0.356c-0.063,0.081-0.126,0.215-0.191,0.399c-0.043,0.123-0.055,0.205-0.034,0.247
			c0.067,0.405,0.472,0.841,1.217,1.311c0.029,0.01,0.09,0.04,0.178,0.088c0.088,0.049,0.163,0.083,0.227,0.104
			c0.402,0.143,0.773,0.082,1.111-0.181c0.135-0.09,0.335-0.263,0.599-0.516c0.577-0.352,0.883-0.574,0.915-0.666
			c0.032-0.093,0.021-0.26-0.032-0.505c-0.055-0.244-0.06-0.428-0.016-0.551l0.031-0.093c-0.021-0.041-0.019-0.196,0.006-0.465
			l-0.043-0.327c-0.009-0.071-0.016-0.203-0.018-0.396c-0.004-0.191-0.004-0.339-0.002-0.442
			C39.411,109.307,39.449,109.146,39.43,109.104z M51.053,96.881c-0.252,0.12-0.533,0.178-0.845,0.172
			c-0.295,0.138-0.506,0.394-0.635,0.763c-0.076,0.217-0.11,0.463-0.104,0.742c-0.084,0.041-0.178,0.181-0.279,0.422
			c-0.103,0.241-0.181,0.387-0.232,0.438c-0.021,0.063-0.018,0.098,0.015,0.109c0.02,0.042,0.024,0.078,0.015,0.109
			c-0.15,0.224-0.246,0.398-0.289,0.521c-0.054,0.155-0.075,0.269-0.067,0.341c-0.124,0.06-0.204,0.136-0.235,0.229
			c-0.012,0.03-0.023,0.112-0.035,0.247c-0.013,0.135-0.029,0.232-0.051,0.294c-0.162,0.462-0.177,0.804-0.044,1.022
			c-0.168,0.08-0.279,0.197-0.333,0.35c-0.044,0.124-0.034,0.248,0.026,0.373c-0.126,0.061-0.211,0.152-0.254,0.275
			c-0.021,0.062-0.038,0.159-0.051,0.293c-0.013,0.135-0.029,0.232-0.051,0.295c-0.043,0.123-0.091,0.21-0.143,0.26
			c0.02,0.042,0.019,0.119-0.003,0.232c-0.023,0.114-0.024,0.191-0.003,0.232c0.104-0.101,0.283-0.263,0.537-0.486
			c0.253-0.223,0.438-0.399,0.553-0.533c-0.021-0.041,0.049-0.138,0.207-0.289c0.26-0.74,0.598-1.158,1.016-1.254
			c-0.021-0.041-0.02-0.093,0.002-0.154c0.021-0.063,0.091-0.159,0.207-0.291s0.186-0.229,0.208-0.291l-0.031-0.063
			c0.011-0.029,0.021-0.061,0.032-0.092c0.063-0.081,0.189-0.193,0.379-0.334c0.245-0.398,0.567-0.719,0.965-0.959
			c0.085-0.144,0.205-0.31,0.358-0.498s0.256-0.307,0.31-0.358c0.043-0.122,0.043-0.297-0.001-0.52
			c-0.045-0.224-0.039-0.411,0.015-0.566c-0.009-0.071-0.087-0.15-0.231-0.236c-0.145-0.085-0.223-0.164-0.23-0.236
			c-0.125-0.045-0.248-0.141-0.372-0.286C51.254,97.004,51.146,96.914,51.053,96.881z"/>
		<path fill="#231F20" d="M69.963,99.228c0.192,0.046,0.438,0.148,0.739,0.306s0.5,0.248,0.597,0.271
			c0.104,0.127,0.39,0.415,0.858,0.864c-0.052,0.49-0.065,0.757-0.041,0.797c-0.016,0.063,0,0.135,0.05,0.213
			c0.049,0.08,0.062,0.166,0.039,0.262c0.008,0.102,0.072,0.295,0.19,0.575c0.117,0.28,0.154,0.517,0.108,0.707l-0.023,0.096
			c0.088,0.055,0.141,0.186,0.159,0.391l-0.081,0.333c-0.062,0.256-0.073,0.438-0.031,0.548c-0.008,0.031-0.04,0.058-0.096,0.077
			c-0.056,0.021-0.087,0.047-0.095,0.077c0.017,0.072,0.047,0.155,0.093,0.25c0.044,0.096,0.078,0.162,0.103,0.202
			c-0.055,0.087-0.108,0.243-0.163,0.464c-0.062,0.255-0.092,0.448-0.091,0.584c-0.022,0.095-0.078,0.216-0.164,0.362
			c-0.087,0.147-0.134,0.237-0.141,0.269l-0.127,0.523l-0.202,0.203c-0.049,0.057-0.09,0.155-0.124,0.298
			c-0.035,0.143-0.063,0.262-0.087,0.356c-0.08,0.049-0.144,0.101-0.19,0.156c-0.195,0.389-0.334,0.607-0.413,0.655
			c-0.016,0.063-0.058,0.129-0.124,0.196c-0.067,0.068-0.109,0.134-0.125,0.197l-0.011,0.047c-0.24,0.01-0.335,0.121-0.285,0.335
			c-0.008,0.032-0.048,0.056-0.119,0.072l-0.106,0.024c-0.017,0.063-0.012,0.114,0.013,0.153c0.023,0.04,0.032,0.076,0.024,0.106
			c-0.048,0.057-0.15,0.132-0.309,0.229c-0.204,0.555-0.356,0.904-0.459,1.048c-0.11,0.175-0.157,0.298-0.142,0.369
			c-0.237,0.144-0.396,0.307-0.474,0.49l-0.385-0.094c-0.046,0.19-0.121,0.357-0.222,0.5c-0.104,0.144-0.232,0.288-0.387,0.436
			c-0.155,0.147-0.265,0.282-0.326,0.399c-0.144,0.033-0.226,0.096-0.249,0.192c-0.129-0.032-0.252-0.011-0.372,0.061l0.05,0.214
			c-0.016,0.064-0.087,0.147-0.213,0.251c-0.127,0.104-0.207,0.219-0.237,0.346c-0.391,0.074-0.636,0.316-0.736,0.729
			c-0.08,0.048-0.187,0.14-0.321,0.274c-0.134,0.137-0.222,0.216-0.261,0.239c-0.04,0.024-0.077,0.075-0.113,0.149
			c-0.035,0.076-0.077,0.141-0.123,0.196l-0.239,0.144l-0.152,0.418c-0.016,0.063-0.007,0.167,0.027,0.308l-0.059,0.238
			c-0.03,0.128-0.054,0.358-0.065,0.69c-0.013,0.333-0.056,0.574-0.124,0.726c-0.009,0.032,0.008,0.103,0.049,0.213
			c0.041,0.111,0.054,0.198,0.038,0.263l-0.023,0.095c0.246,0.664,0.354,1.062,0.323,1.188l-0.023,0.096
			c0.08,0.086,0.155,0.23,0.226,0.432c0.07,0.202,0.146,0.347,0.225,0.434c0.017,0.072-0.011,0.116-0.081,0.131
			c-0.033-0.007-0.053,0.004-0.06,0.035c0.008,0.104,0.17,0.412,0.486,0.926l-0.022,0.095c-0.023,0.096-0.034,0.211-0.033,0.346
			s-0.002,0.218-0.01,0.25l-0.023,0.095c0.057,0.048,0.133,0.15,0.231,0.308c-0.009,0.031-0.06,0.104-0.154,0.215l0.1,0.429
			c-0.031,0.125-0.153,0.281-0.367,0.464c-0.209,0.018-0.483,0.001-0.828-0.05c-0.343-0.049-0.567-0.069-0.671-0.062
			c-0.025-0.039-0.138-0.101-0.338-0.183c-0.201-0.083-0.325-0.163-0.373-0.242c-0.192-0.047-0.442-0.275-0.749-0.686
			c-0.234-0.292-0.461-0.548-0.679-0.771c-0.138-0.134-0.269-0.217-0.396-0.248c-0.225-0.054-0.563,0.04-1.011,0.284
			c-0.45,0.245-0.79,0.355-1.021,0.333c-0.304,0.127-0.518,0.176-0.646,0.144c-0.319,0.193-0.726,0.263-1.222,0.209l-0.575-0.14
			c-0.193-0.048-0.575-0.115-1.146-0.203c-0.572-0.089-1.016-0.188-1.328-0.296c-0.168-0.143-0.51-0.276-1.021-0.4
			c-0.22-0.221-0.472-0.367-0.76-0.438l-0.144-0.034c-0.113-0.094-0.179-0.177-0.194-0.248c-0.192-0.047-0.571-0.307-1.134-0.78
			c-0.05-0.078-0.065-0.149-0.05-0.213c-0.032-0.008-0.121-0.063-0.266-0.165s-0.241-0.193-0.289-0.272
			c-0.081-0.088-0.171-0.243-0.269-0.468c-0.098-0.226-0.188-0.382-0.269-0.47c0.009-0.031,0.01-0.073,0.005-0.125
			c-0.005-0.051-0.003-0.092,0.005-0.124c-0.16-0.173-0.227-0.391-0.197-0.653c-0.049-0.078-0.088-0.23-0.117-0.456
			c-0.031-0.226-0.07-0.378-0.118-0.458l0.071-0.084c0.008-0.03,0.015-0.063,0.023-0.095c-0.146-0.236-0.188-0.481-0.127-0.736
			c0.015-0.063,0.07-0.151,0.165-0.263c0.016-0.063,0.022-0.162,0.021-0.297c-0.001-0.134,0.01-0.25,0.033-0.345
			c0.023-0.096,0.062-0.221,0.117-0.374c0.054-0.155,0.089-0.265,0.104-0.328c0.008-0.032-0.001-0.067-0.025-0.107l0.023-0.096
			c0.055-0.087,0.129-0.187,0.225-0.299c0.095-0.109,0.149-0.197,0.165-0.261l0.081-0.333c0.07-0.151,0.219-0.342,0.445-0.572
			c0.225-0.231,0.341-0.363,0.35-0.396c0.135,0.001,0.272-0.042,0.413-0.127c0.139-0.082,0.26-0.129,0.363-0.138l-0.048-0.011
			c-0.031-0.009-0.043-0.027-0.036-0.06c0.03-0.127,0.292-0.366,0.785-0.718c0.007-0.03,0.025-0.076,0.058-0.137
			c0.031-0.06,0.067-0.101,0.106-0.125c0.04-0.023,0.178-0.074,0.419-0.151c0.238-0.076,0.386-0.158,0.441-0.245
			c0.749-0.153,1.231-0.255,1.447-0.304c0.03,0.008,0.062,0.023,0.09,0.048c0.028,0.023,0.059,0.039,0.091,0.047
			c0.039-0.023,0.079-0.048,0.118-0.072s0.08-0.048,0.12-0.072c0.088,0.056,0.228,0.106,0.421,0.153
			c0.096,0.023,0.26,0.047,0.491,0.069s0.412,0.048,0.54,0.08c0.128,0.03,0.22,0.07,0.277,0.117c0.35-0.05,0.998,0.007,1.942,0.169
			c0.108-0.308,0.26-0.793,0.454-1.451c0.193-0.659,0.349-1.158,0.467-1.501c0.016-0.063,0.051-0.104,0.106-0.125
			c0.056-0.019,0.092-0.062,0.107-0.125l-0.025-0.107c0.016-0.063,0.059-0.137,0.129-0.221c0.071-0.084,0.114-0.156,0.13-0.221
			c0.008-0.031-0.013-0.086-0.062-0.166c0.167-0.127,0.285-0.334,0.354-0.619c0.144-0.032,0.322-0.206,0.534-0.525l0.081-0.334
			c0.031,0.008,0.068-0.042,0.113-0.149c0.042-0.105,0.1-0.168,0.172-0.184c-0.018-0.071-0.014-0.155,0.01-0.25
			c0.022-0.096,0.096-0.221,0.219-0.377c0.121-0.153,0.198-0.295,0.229-0.422c0.056-0.087,0.149-0.232,0.284-0.436
			c0.133-0.201,0.243-0.344,0.331-0.424c0.008-0.03,0.01-0.072,0.005-0.125c-0.004-0.051,0.001-0.108,0.017-0.172
			c0.104-0.008,0.254-0.208,0.451-0.596c0.007-0.032-0.009-0.07-0.05-0.113c-0.04-0.043-0.057-0.081-0.049-0.112
			c0.023-0.097,0.104-0.295,0.246-0.596l0.144,0.035c0.396-0.511,0.728-0.831,0.998-0.968l0.023-0.096
			c0.038-0.158,0.157-0.331,0.355-0.52c0.197-0.186,0.312-0.343,0.342-0.47c0.097,0.022,0.152,0.003,0.168-0.062l0.168-0.06
			c0.039-0.023,0.063-0.052,0.071-0.084c0.007-0.03,0.015-0.063,0.022-0.096c0.198-0.118,0.5-0.247,0.907-0.384
			c0.407-0.136,0.648-0.228,0.729-0.277c0.064,0.016,0.218,0.012,0.462-0.014c0.242-0.024,0.413-0.025,0.509-0.002l0.096,0.023
			c0.088-0.08,0.256-0.105,0.504-0.08c0.246,0.027,0.406,0.032,0.479,0.016l0.145,0.035c0.063,0.016,0.162,0.031,0.295,0.046
			C69.8,99.196,69.898,99.212,69.963,99.228z M58.334,114.854c-0.161-0.039-0.344-0.05-0.551-0.033
			c-0.05-0.079-0.106-0.126-0.17-0.142c-0.064-0.016-0.16-0.005-0.287,0.031c-0.129,0.036-0.225,0.047-0.287,0.031
			c-0.294,0.229-0.557,0.335-0.789,0.312c-0.214,0.184-0.448,0.312-0.703,0.385c-0.157,0.364-0.457,0.694-0.901,0.99
			c0.128,0.031,0.184,0.079,0.168,0.141c-0.03,0.128-0.084,0.275-0.157,0.441c-0.075,0.168-0.119,0.283-0.135,0.346
			c-0.039,0.159-0.035,0.277,0.016,0.356c-0.056,0.087-0.106,0.227-0.152,0.418c-0.031,0.126-0.035,0.21-0.01,0.248
			c0.106,0.396,0.555,0.791,1.341,1.184c0.032,0.007,0.095,0.03,0.187,0.07c0.091,0.039,0.169,0.066,0.234,0.082
			c0.416,0.101,0.777,0.005,1.088-0.291c0.127-0.103,0.308-0.294,0.546-0.573c0.539-0.405,0.821-0.656,0.845-0.753
			c0.022-0.095-0.005-0.261-0.083-0.498s-0.101-0.419-0.07-0.547l0.022-0.096c-0.024-0.038-0.038-0.193-0.04-0.463l-0.074-0.32
			c-0.018-0.071-0.037-0.202-0.059-0.392s-0.037-0.337-0.045-0.44C58.336,115.057,58.358,114.894,58.334,114.854z M68.689,101.54
			c-0.238,0.143-0.514,0.228-0.825,0.252c-0.278,0.169-0.463,0.442-0.556,0.823c-0.054,0.223-0.063,0.473-0.029,0.75
			c-0.08,0.048-0.158,0.196-0.235,0.446c-0.078,0.251-0.142,0.403-0.188,0.459c-0.016,0.063-0.008,0.099,0.024,0.105
			c0.024,0.041,0.032,0.076,0.025,0.107c-0.127,0.239-0.205,0.422-0.234,0.549c-0.038,0.159-0.05,0.272-0.033,0.344
			c-0.119,0.073-0.19,0.155-0.214,0.252c-0.008,0.031-0.011,0.114-0.009,0.25c0,0.135-0.006,0.233-0.021,0.296
			c-0.116,0.477-0.097,0.818,0.057,1.022c-0.16,0.096-0.258,0.224-0.296,0.382c-0.032,0.128-0.01,0.25,0.063,0.369
			c-0.119,0.07-0.194,0.171-0.225,0.298c-0.016,0.063-0.023,0.162-0.021,0.298c0,0.135-0.006,0.233-0.022,0.297
			c-0.03,0.126-0.069,0.218-0.117,0.273c0.023,0.039,0.031,0.117,0.021,0.232c-0.011,0.114-0.005,0.192,0.02,0.231
			c0.096-0.111,0.258-0.291,0.488-0.538c0.228-0.246,0.395-0.44,0.497-0.585c-0.025-0.038,0.035-0.142,0.178-0.31
			c0.185-0.762,0.479-1.21,0.886-1.347c-0.024-0.039-0.028-0.091-0.013-0.155c0.016-0.063,0.074-0.166,0.177-0.31
			c0.103-0.143,0.162-0.245,0.178-0.31l-0.037-0.059c0.008-0.032,0.016-0.064,0.023-0.097c0.055-0.087,0.169-0.211,0.343-0.37
			c0.205-0.42,0.494-0.77,0.866-1.049c0.069-0.15,0.173-0.328,0.308-0.531c0.133-0.202,0.225-0.332,0.272-0.387
			c0.03-0.127,0.013-0.3-0.053-0.519c-0.067-0.217-0.08-0.403-0.042-0.563c-0.017-0.071-0.102-0.142-0.254-0.213
			c-0.151-0.07-0.236-0.142-0.252-0.213c-0.129-0.031-0.262-0.113-0.399-0.248C68.9,101.642,68.785,101.563,68.689,101.54z"/>
		<path fill="#231F20" d="M73.909,112.508c0.065,0.01,0.12,0.034,0.164,0.074s0.089,0.079,0.133,0.118
			c0.044,0.04,0.096,0.082,0.157,0.123c0.06,0.043,0.104,0.083,0.132,0.118c-0.015,0.098,0.024,0.227,0.115,0.39
			c0.093,0.162,0.131,0.292,0.116,0.39c-0.005,0.032-0.026,0.063-0.063,0.089c-0.076,0.055-0.115,0.099-0.121,0.131l-0.058,0.388
			c-0.124,0.378-0.215,0.76-0.272,1.148c-0.038,0.027-0.078,0.07-0.12,0.13c-0.043,0.06-0.08,0.087-0.112,0.081
			c0.013,0.135-0.002,0.348-0.046,0.638c-0.039,0.259-0.086,0.45-0.138,0.574c-0.004,0.032-0.021,0.088-0.049,0.166
			c-0.029,0.078-0.049,0.149-0.059,0.215c-0.067,0.452-0.14,0.705-0.214,0.76c-0.01,0.065,0.007,0.167,0.054,0.306
			c0.045,0.139,0.061,0.256,0.047,0.354c-0.01,0.064-0.044,0.126-0.104,0.183c-0.059,0.058-0.093,0.118-0.103,0.184l-0.043,0.289
			c-0.049,0.323-0.129,0.526-0.241,0.608c0.05,0.107,0.044,0.254-0.018,0.442c-0.062,0.189-0.084,0.335-0.065,0.437
			c-0.234,0.229-0.376,0.505-0.426,0.828c-0.004,0.032,0.01,0.1,0.045,0.204c0.034,0.104,0.029,0.187-0.013,0.245
			c-0.005,0.033,0.016,0.069,0.06,0.108c0.043,0.04,0.063,0.076,0.059,0.108c-0.006,0.032-0.05,0.108-0.135,0.228
			c0.027,0.038,0.02,0.202-0.023,0.491l-0.03,0.194l-0.08,0.532c0.083,0.112,0.223,0.183,0.419,0.212
			c0.162,0.025,0.481,0.007,0.958-0.054l1.26-0.403c0.074-0.056,0.173-0.099,0.295-0.129c0.121-0.032,0.2-0.061,0.238-0.088
			c0.327-0.182,0.542-0.282,0.645-0.299c0.183-0.104,0.559-0.279,1.13-0.524c0.568-0.244,0.986-0.462,1.248-0.654l0.098,0.016
			c0.036-0.026,0.072-0.039,0.105-0.034c0.036-0.026,0.086-0.077,0.147-0.15s0.109-0.124,0.148-0.152
			c0.036-0.026,0.126-0.071,0.27-0.132c0.143-0.061,0.248-0.103,0.318-0.124c0.323-0.151,0.501-0.223,0.532-0.218l0.148,0.021
			c0.004-0.032,0.06-0.064,0.164-0.099c0.104-0.033,0.188-0.028,0.248,0.013l0.245,0.037l0.195,0.029
			c0.069-0.021,0.186-0.021,0.349,0.003c0.098,0.016,0.237,0.085,0.418,0.212c0.292,0.275,0.426,0.494,0.401,0.655
			c0.026,0.037,0.022,0.069-0.016,0.097c-0.042,0.06-0.065,0.105-0.07,0.138c-0.041,0.061-0.064,0.106-0.069,0.139
			c-0.016,0.097-0.025,0.16-0.029,0.192c-0.038,0.028-0.062,0.074-0.071,0.139c-0.202,0.234-0.311,0.399-0.325,0.496
			c-0.099-0.015-0.181,0.039-0.249,0.16s-0.122,0.196-0.159,0.224c-0.066-0.01-0.115-0.009-0.15,0.002
			c-0.034,0.013-0.068,0.015-0.101,0.011c-0.076,0.055-0.16,0.173-0.255,0.357c-0.51,0.286-0.807,0.489-0.892,0.609l-0.244-0.038
			c-0.005,0.033-0.036,0.069-0.092,0.11c-0.057,0.041-0.087,0.078-0.092,0.11c-0.07,0.022-0.161,0.083-0.276,0.182
			s-0.227,0.172-0.335,0.222c-0.037,0.027-0.104,0.033-0.202,0.019l-0.329,0.198c-0.07,0.022-0.199,0.103-0.387,0.238
			c-0.493-0.04-0.854,0.137-1.08,0.53c-0.248,0.096-0.393,0.173-0.434,0.232c-0.033-0.005-0.154,0.026-0.365,0.094l-0.315,0.101
			c-0.194-0.029-0.456,0.048-0.784,0.229l-0.196-0.029c-0.037,0.027-0.085,0.07-0.143,0.127c-0.06,0.058-0.107,0.1-0.145,0.127
			l-0.147-0.021c-0.097-0.016-0.217,0-0.357,0.045c-0.14,0.045-0.241,0.062-0.307,0.052c-0.033-0.004-0.08-0.028-0.14-0.069
			c-0.22,0.132-0.447,0.197-0.68,0.194c-0.041,0.061-0.149,0.109-0.321,0.149c-0.174,0.04-0.279,0.074-0.316,0.102
			c-0.187-0.095-0.326-0.149-0.425-0.163l-0.293-0.044c-0.093-0.048-0.197-0.139-0.31-0.271c-0.114-0.133-0.2-0.22-0.26-0.262
			l-0.404-0.309c-0.115-0.117-0.27-0.313-0.461-0.59s-0.329-0.471-0.412-0.583c0.037-0.026,0.042-0.059,0.015-0.096
			c-0.028-0.038-0.039-0.072-0.034-0.104c-0.121-0.085-0.247-0.303-0.377-0.652c-0.131-0.349-0.237-0.581-0.32-0.691
			c-0.022-0.069-0.013-0.134,0.029-0.194c-0.056-0.074-0.1-0.114-0.132-0.119c-0.023-0.069-0.059-0.272-0.107-0.61
			c-0.051-0.337-0.077-0.606-0.08-0.806c0.015-0.097,0.001-0.279-0.042-0.551c-0.042-0.27-0.054-0.47-0.034-0.6
			c0.02-0.128,0.086-0.234,0.198-0.316l-0.034-0.104c-0.023-0.069-0.049-0.123-0.076-0.16c0.144-0.506,0.438-1.354,0.884-2.542
			c0.005-0.032,0.044-0.068,0.116-0.106c0.072-0.039,0.11-0.073,0.115-0.106c0.029-0.193,0.021-0.359-0.024-0.498
			c0.08-0.088,0.174-0.272,0.283-0.552c0.109-0.282,0.222-0.479,0.34-0.595l-0.041-0.056c0.004-0.031,0.01-0.063,0.014-0.097
			c0.01-0.064,0.058-0.164,0.146-0.299c0.086-0.136,0.132-0.22,0.138-0.252l0.028-0.194c0.009-0.064,0.142-0.276,0.396-0.634
			c0.207-0.266,0.348-0.426,0.424-0.481l0.036-0.241c0.411-0.302,0.625-0.501,0.64-0.599c0.065,0.011,0.119-0.014,0.161-0.074
			c0.042-0.059,0.08-0.087,0.112-0.081c0.005-0.032,0.019-0.071,0.044-0.117c0.022-0.047,0.039-0.102,0.05-0.166
			C72.876,112.401,73.291,112.413,73.909,112.508z M75.318,107.814c0.488,0.073,0.914,0.237,1.275,0.49
			c-0.019,0.13,0.049,0.338,0.206,0.626c0.022,0.069,0.059,0.157,0.11,0.264l0.027,0.153l-0.03,0.192
			c-0.029,0.194-0.117,0.33-0.261,0.408c-0.043,0.06-0.052,0.115-0.026,0.169c0.024,0.054,0.035,0.097,0.03,0.128
			c-0.075,0.055-0.156,0.149-0.242,0.286c-0.087,0.135-0.152,0.232-0.194,0.292c-0.043,0.061-0.097,0.094-0.165,0.099
			c-0.067,0.007-0.151,0.011-0.252,0.013c-0.1,0.002-0.186,0.014-0.254,0.036c-0.033-0.006-0.078,0.021-0.138,0.077
			c-0.059,0.059-0.104,0.083-0.137,0.078l-0.406,0.038l-0.292-0.044c-0.229-0.035-0.637-0.211-1.221-0.53
			c-0.023-0.069-0.049-0.231-0.077-0.482c-0.03-0.253-0.071-0.415-0.127-0.49l0.03-0.194c0.019-0.128,0.075-0.285,0.17-0.469
			c0.066-0.221,0.194-0.399,0.383-0.537c0.036-0.027,0.109-0.066,0.215-0.115c0.286-0.122,0.457-0.262,0.514-0.419
			c0.033,0.005,0.152-0.009,0.356-0.045C75.02,107.803,75.188,107.795,75.318,107.814z"/>
		<path fill="#231F20" d="M86.19,114.6l0.196,0.01c0.099,0.006,0.229,0.045,0.392,0.119c0.16,0.074,0.291,0.113,0.39,0.119
			c0.065,0.003,0.165-0.008,0.298-0.034c0.134-0.025,0.216-0.037,0.249-0.035c0.165,0.009,0.262,0.063,0.289,0.162
			c0.263,0.014,0.568,0.153,0.92,0.417c0.348,0.263,0.554,0.413,0.619,0.448c0.306,0.442,0.472,0.729,0.498,0.861
			c0.031,0.033,0.029,0.066-0.005,0.098l-0.052,0.046c0.122,0.171,0.178,0.387,0.164,0.646c-0.01,0.196-0.112,0.567-0.306,1.112
			c-0.068,0.029-0.135,0.042-0.2,0.038c-0.066-0.003-0.116,0.012-0.15,0.041c-0.007,0.131-0.047,0.26-0.119,0.387l-0.148-0.008
			c-0.23-0.012-0.392-0.085-0.483-0.222c-0.136,0.06-0.25,0.053-0.346-0.018c-0.064-0.036-0.093-0.12-0.086-0.251
			c-0.035,0.031-0.086,0.062-0.153,0.091c-0.068,0.029-0.127,0.051-0.177,0.064s-0.092,0.019-0.124,0.018
			c-0.194-0.075-0.358-0.117-0.489-0.124c-0.133-0.007-0.233,0.037-0.303,0.131c-0.095-0.103-0.157-0.154-0.19-0.157
			c-0.134,0.026-0.319,0.099-0.557,0.217c-0.236,0.118-0.438,0.173-0.603,0.163c-0.069,0.063-0.167,0.188-0.292,0.378
			c-0.127,0.19-0.238,0.3-0.339,0.326c-0.037,0.063-0.107,0.174-0.216,0.331c-0.107,0.159-0.197,0.285-0.267,0.38
			c-0.037,0.063-0.09,0.11-0.156,0.138c-0.072,0.095-0.109,0.19-0.114,0.288c-0.006,0.099,0.021,0.214,0.081,0.348l-0.061,0.193
			c-0.014,0.263-0.038,0.407-0.072,0.438c0.171,0.501,0.273,0.767,0.304,0.8c-0.034,0.032-0.055,0.113-0.062,0.243
			c-0.016,0.294,0.057,0.479,0.219,0.552c0.543,0.322,1.027,0.527,1.452,0.616c0.032,0.001,0.082-0.003,0.149-0.017
			c0.066-0.013,0.116-0.02,0.149-0.017c0.032,0.001,0.082,0.013,0.147,0.032c0.064,0.02,0.13,0.031,0.195,0.034
			c0.032,0.002,0.107-0.011,0.225-0.037s0.226-0.037,0.323-0.032c0.195,0.076,0.373,0.118,0.539,0.127
			c0.229,0.013,0.545-0.004,0.942-0.049l0.852-0.2l0.148,0.008c0.264,0.013,0.551-0.086,0.857-0.298l0.099,0.006
			c0.068-0.029,0.135-0.043,0.201-0.039c0.067-0.029,0.127-0.075,0.18-0.139c0.053-0.062,0.096-0.092,0.129-0.091
			c0.199-0.022,0.474-0.065,0.824-0.128c0.35-0.063,0.574-0.109,0.675-0.138c0.205-0.118,0.373-0.175,0.504-0.168
			c0.273-0.183,0.626-0.294,1.057-0.338c0.033,0.003,0.102-0.026,0.204-0.087c0.102-0.061,0.185-0.089,0.251-0.085l0.1,0.005
			c-0.004,0.066,0.012,0.1,0.045,0.101l0.196,0.011c0.132,0.007,0.245,0.054,0.34,0.141c0.094,0.087,0.19,0.133,0.29,0.138
			c0.028,0.068,0.075,0.119,0.14,0.155c0.063,0.036,0.111,0.071,0.143,0.105c0.031,0.035,0.052,0.108,0.063,0.223
			c0.01,0.116,0.049,0.175,0.115,0.179c-0.003,0.032-0.021,0.08-0.058,0.145c-0.021,0.392-0.099,0.601-0.232,0.625
			c-0.003,0.065-0.023,0.13-0.059,0.193c-0.036,0.063-0.056,0.128-0.059,0.192c-0.066-0.003-0.144,0.026-0.229,0.087
			c-0.086,0.062-0.161,0.089-0.227,0.086c-0.069,0.029-0.187,0.081-0.355,0.152c-0.169,0.073-0.288,0.157-0.359,0.251
			c-0.033-0.001-0.099,0.004-0.199,0.015c-0.1,0.011-0.166,0.016-0.198,0.015l-0.003,0.049c-0.002,0.032-0.036,0.063-0.104,0.092
			c-0.165-0.009-0.335,0.098-0.512,0.316c-0.033-0.001-0.1,0.021-0.202,0.063c-0.101,0.043-0.185,0.063-0.25,0.06
			c-0.11,0.225-0.365,0.357-0.765,0.401c-0.78,0.417-1.319,0.65-1.62,0.7c-0.069,0.063-0.105,0.125-0.108,0.19
			c-0.032-0.033-0.08-0.054-0.146-0.057c-0.066-0.004-0.115-0.006-0.148-0.008c-0.134,0.059-0.573,0.232-1.313,0.519
			c-0.031-0.033-0.089-0.061-0.169-0.082c-0.082-0.021-0.14-0.032-0.172-0.033c-0.07,0.063-0.155,0.131-0.259,0.207
			c-0.103,0.076-0.172,0.13-0.205,0.161l-0.347-0.019c-0.165-0.009-0.299,0.033-0.403,0.127c-0.065-0.005-0.141,0.009-0.224,0.036
			c-0.085,0.029-0.143,0.042-0.175,0.04c-0.066-0.003-0.182-0.018-0.346-0.043c-0.164-0.023-0.278-0.039-0.344-0.042l-0.152,0.09
			c-0.104,0.061-0.171,0.089-0.203,0.088l-0.1-0.006c-0.099-0.005-0.254-0.029-0.466-0.073c-0.213-0.043-0.368-0.068-0.467-0.074
			l-0.099-0.005c-0.099-0.005-0.184,0.023-0.252,0.085c-0.033-0.002-0.147-0.016-0.344-0.042c-0.197-0.027-0.344-0.06-0.441-0.097
			c-0.033-0.003-0.16-0.091-0.382-0.267c-0.033-0.002-0.122-0.022-0.27-0.063c-0.146-0.04-0.251-0.078-0.314-0.114
			c-0.779-0.271-1.252-0.671-1.422-1.204c-0.357-0.116-0.547-0.273-0.569-0.471c-0.192-0.108-0.344-0.23-0.452-0.367
			c-0.107-0.137-0.222-0.33-0.34-0.582s-0.21-0.411-0.271-0.48c0.003-0.064-0.002-0.122-0.017-0.172
			c-0.014-0.05-0.019-0.091-0.018-0.124c0.003-0.065-0.025-0.14-0.087-0.226c-0.062-0.084-0.091-0.16-0.088-0.226
			c-0.03-0.033-0.147-0.334-0.348-0.9c0.004-0.065-0.024-0.166-0.083-0.3c-0.06-0.133-0.086-0.266-0.078-0.396l-0.1-0.937
			l0.019-0.343l0.018-0.342l0.005-0.099c0.037-0.096,0.058-0.16,0.06-0.193l0.008-0.146c0.004-0.065,0.017-0.171,0.042-0.315
			c0.023-0.146,0.054-0.251,0.091-0.315c0.035-0.063,0.074-0.159,0.114-0.288c0.039-0.128,0.078-0.225,0.114-0.288
			c0.038-0.097,0.068-0.208,0.092-0.339c0.023-0.129,0.037-0.227,0.04-0.292l0.316-0.375c0.314-0.311,0.573-0.526,0.777-0.647
			c0.346-0.308,0.602-0.458,0.767-0.449l0.099,0.005c0.171-0.121,0.387-0.306,0.647-0.554c0.262-0.249,0.476-0.434,0.648-0.556
			l0.147,0.008c0.329,0.018,0.614-0.082,0.857-0.297c0.628-0.032,1.1-0.188,1.411-0.466C85.794,114.611,86.059,114.593,86.19,114.6z
			"/>
		<path fill="#231F20" d="M97.436,105.614l0.099-0.01c0.032-0.003,0.066,0.011,0.103,0.039l0.06,0.093
			c0.031-0.004,0.098-0.001,0.198,0.005c0.101,0.007,0.184,0.023,0.253,0.047c0.032-0.002,0.069,0.027,0.108,0.089
			c0.075,0.09,0.161,0.116,0.256,0.072c0.049,0.161,0.181,0.327,0.398,0.503c0.261,0.631,0.428,0.975,0.501,1.033
			c0.007,0.065,0.034,0.178,0.082,0.336c0.049,0.159,0.079,0.288,0.088,0.386c0.011,0.097,0.002,0.181-0.024,0.248
			c0.01,0.099,0.093,0.434,0.25,1.01l0.028,0.291c0.014,0.131,0.04,0.316,0.081,0.559c0.041,0.241,0.066,0.412,0.076,0.51
			c0.026,0.26,0.011,0.441-0.045,0.546c0.078,0.451,0.149,1.002,0.215,1.653c0.006,0.064,0.051,0.109,0.138,0.133
			c0.084,0.024,0.129,0.053,0.132,0.085c0.975,0.133,1.618,0.282,1.933,0.447l0.148-0.015c0.064-0.007,0.237,0.059,0.516,0.195
			c0.089,0.222,0.201,0.357,0.339,0.408c-0.023,0.101-0.006,0.182,0.049,0.242c0.056,0.061,0.087,0.122,0.094,0.188
			c0.038,0.063,0.089,0.146,0.149,0.256c0.06,0.109,0.108,0.179,0.145,0.207c0.078,0.123,0.12,0.202,0.123,0.233
			c0.01,0.097-0.014,0.207-0.066,0.326c-0.055,0.122-0.098,0.199-0.127,0.235c-0.065,0.007-0.143,0.047-0.235,0.121
			c-0.092,0.075-0.154,0.114-0.187,0.117l-0.099,0.01l-0.104-0.039l-0.045,0.054c-0.026,0.069-0.056,0.104-0.088,0.107l-0.394,0.039
			c-0.098,0.011-0.146,0.032-0.143,0.064c-0.033,0.003-0.066-0.001-0.102-0.015c-0.034-0.014-0.068-0.018-0.101-0.016
			c-0.032,0.004-0.07,0.041-0.113,0.11c-0.043,0.07-0.081,0.106-0.113,0.11c-0.033,0.003-0.105,0.027-0.217,0.07
			c-0.111,0.045-0.183,0.067-0.216,0.071c-0.065,0.007-0.166,0-0.3-0.019c-0.136-0.02-0.252-0.024-0.35-0.016l-0.098,0.01
			l-0.094,0.06c-0.063,0.039-0.11,0.059-0.143,0.062c-0.066,0.007-0.123,0.014-0.173,0.018c-0.049,0.005-0.098,0.011-0.147,0.015
			c-0.05,0.005-0.106,0.011-0.173,0.018c-0.065,0.007-0.115,0.012-0.147,0.015l-0.043,0.054l-0.045,0.054
			c0.101,0.352,0.091,0.582-0.03,0.692c0.137,0.381,0.21,0.619,0.221,0.718l0.068,0.682c-0.027,0.068-0.07,0.138-0.129,0.21
			c0.114,0.152,0.186,0.358,0.212,0.618c0.016,0.163,0.007,0.41-0.026,0.74c0.006,0.066,0.021,0.131,0.044,0.193
			c0.022,0.064,0.036,0.112,0.04,0.145c-0.053,0.465-0.106,0.766-0.159,0.902l0.015,0.146c0.007,0.064,0.005,0.139-0.003,0.222
			c-0.009,0.082-0.01,0.14-0.008,0.172c0.021,0.194,0.049,0.324,0.089,0.386c0.007,0.064-0.018,0.166-0.069,0.302
			c0.081,0.155,0.141,0.413,0.177,0.771s0.078,0.615,0.127,0.774c0.006,0.065,0.034,0.187,0.084,0.361
			c0.051,0.176,0.082,0.311,0.091,0.409l0.015,0.146c-0.053,0.137-0.076,0.222-0.074,0.253c0.007,0.066,0.021,0.129,0.045,0.192
			c0.022,0.064,0.036,0.112,0.039,0.145c-0.026,0.068-0.058,0.161-0.097,0.28c-0.038,0.119-0.055,0.195-0.052,0.227l0.015,0.146
			c0.02,0.194,0.09,0.401,0.211,0.618l0.099-0.009c0.036,0.029,0.07,0.041,0.104,0.039c0.131-0.014,0.251-0.058,0.36-0.136
			c0.106-0.076,0.228-0.194,0.36-0.355c0.133-0.16,0.23-0.261,0.293-0.3c0.111-0.208,0.231-0.335,0.359-0.381
			c0.114-0.176,0.318-0.458,0.611-0.849c0.292-0.39,0.493-0.689,0.605-0.897l0.045-0.054c0.028-0.035,0.063-0.038,0.098-0.01
			c0.026-0.067,0.033-0.167,0.021-0.297c0.091-0.074,0.279-0.34,0.564-0.796c0.056-0.104,0.15-0.244,0.282-0.422
			c0.132-0.177,0.21-0.299,0.236-0.367c0.099-0.011,0.162-0.033,0.192-0.069c-0.004-0.032,0-0.073,0.012-0.123
			c0.012-0.051,0.032-0.094,0.063-0.129c0.146-0.18,0.457-0.719,0.931-1.62l0.178-0.215c0.029-0.035,0.072-0.089,0.133-0.161
			l0.039-0.102c0.028-0.036,0.059-0.072,0.089-0.107l0.045-0.055c0.028-0.035,0.057-0.087,0.083-0.156l0.045-0.053l0.315-0.327
			c0.167-0.312,0.279-0.504,0.339-0.575c-0.004-0.031,0.019-0.066,0.064-0.104c0.046-0.037,0.067-0.072,0.063-0.104l0.483-0.641
			c0.243-0.22,0.442-0.371,0.601-0.452c0.029-0.036,0.076-0.058,0.144-0.064c0.163-0.017,0.335,0.049,0.515,0.195
			c0.313,0.133,0.487,0.394,0.526,0.784l0.015,0.146c-0.014,0.198-0.064,0.432-0.153,0.704c-0.089,0.271-0.143,0.49-0.158,0.655
			c-0.053,0.138-0.149,0.327-0.291,0.571c-0.142,0.243-0.222,0.433-0.24,0.565l-0.281,0.176c0.016,0.163-0.006,0.28-0.064,0.352
			c-0.089,0.106-0.219,0.3-0.39,0.58c-0.17,0.28-0.317,0.475-0.438,0.584c0.01,0.099-0.006,0.191-0.047,0.276
			c-0.041,0.087-0.06,0.146-0.057,0.179c-0.063,0.039-0.138,0.112-0.227,0.218c0.006,0.066-0.02,0.15-0.074,0.254
			c-0.057,0.104-0.082,0.174-0.08,0.206c-0.157,0.082-0.272,0.241-0.349,0.477c-0.171,0.281-0.253,0.453-0.246,0.518
			c-0.033,0.003-0.078,0.057-0.134,0.161c-0.056,0.105-0.118,0.144-0.188,0.117c-0.033,0.332-0.13,0.521-0.289,0.571
			c-0.104,0.633-0.323,1.083-0.662,1.346c0.004,0.032-0.008,0.091-0.032,0.176c-0.024,0.084-0.051,0.16-0.076,0.229
			c-0.033,0.004-0.063,0.03-0.091,0.083c-0.029,0.052-0.06,0.08-0.091,0.083c-0.264,0.682-0.541,1.055-0.833,1.116
			c-0.125,0.077-0.286,0.282-0.484,0.616c-0.199,0.33-0.413,0.523-0.639,0.58c-0.032,0.003-0.063,0.038-0.088,0.107
			c-0.026,0.067-0.056,0.104-0.088,0.106c-0.23,0.023-0.387,0.121-0.469,0.293c-0.066,0.007-0.117-0.005-0.152-0.033
			c-0.026,0.066-0.071,0.12-0.134,0.16c-0.062,0.038-0.142,0.063-0.24,0.073c-0.098,0.01-0.164,0.017-0.196,0.02
			c-0.033,0.003-0.08,0.032-0.142,0.088c-0.061,0.055-0.131,0.095-0.211,0.119c-0.081,0.025-0.154,0.04-0.218,0.047
			c-0.526,0.053-1.068-0.074-1.629-0.38c-0.771-0.414-1.255-0.793-1.455-1.135l-0.058-0.091c-0.007-0.065,0.004-0.116,0.034-0.152
			c-0.135-0.019-0.324-0.263-0.57-0.73c-0.075-0.091-0.161-0.205-0.258-0.343c-0.097-0.139-0.165-0.239-0.203-0.3
			c-0.211-0.438-0.336-0.706-0.378-0.8c-0.04-0.062-0.074-0.157-0.103-0.286c-0.03-0.127-0.048-0.223-0.055-0.289
			c-0.003-0.031-0.027-0.103-0.07-0.215c-0.045-0.109-0.088-0.204-0.128-0.282c-0.042-0.077-0.065-0.149-0.071-0.215
			s-0.03-0.218-0.071-0.46s-0.083-0.41-0.125-0.505c-0.003-0.032,0.01-0.065,0.04-0.103c0.028-0.035,0.024-0.084-0.015-0.146
			c-0.046-0.126-0.083-0.337-0.112-0.63l-0.156-1.559c-0.006-0.065,0.006-0.115,0.035-0.152c0.028-0.035,0.043-0.069,0.04-0.102
			l-0.015-0.146c-0.004-0.033-0.02-0.104-0.047-0.218c-0.028-0.112-0.047-0.218-0.057-0.314c-0.006-0.065-0.01-0.179-0.009-0.345
			c-0.001-0.163-0.005-0.293-0.015-0.392l-0.024-0.244c-0.004-0.031,0.009-0.082,0.034-0.15c0.026-0.068,0.036-0.134,0.029-0.199
			c-0.006-0.065-0.023-0.162-0.053-0.291c-0.03-0.127-0.046-0.208-0.05-0.242c0.04-0.266,0.059-0.415,0.056-0.447
			c-0.049-1.144-0.018-1.836,0.09-2.077c-0.104-0.384-0.168-0.688-0.19-0.916c-0.02-0.195-0.002-0.345,0.054-0.449L95.55,115.6
			c-0.032-0.324-0.003-0.524,0.089-0.6l-0.117-0.186c0.025-0.067,0.034-0.225,0.027-0.471c-0.008-0.245,0.017-0.403,0.077-0.475
			l-0.055-0.044c-0.04-0.062-0.044-0.11-0.015-0.146c-0.006-0.064,0.011-0.141,0.052-0.227s0.06-0.146,0.058-0.179
			c-0.04-0.062-0.067-0.173-0.084-0.335c-0.031-0.325,0.004-0.624,0.109-0.897c0.086-0.797,0.14-1.245,0.164-1.346
			c-0.01-0.098,0.005-0.197,0.045-0.301c0.038-0.102,0.058-0.168,0.054-0.201c0.025-0.068,0.034-0.151,0.025-0.249
			c-0.021-0.194,0.005-0.444,0.074-0.745c0.069-0.303,0.092-0.568,0.069-0.795c0.029-0.035,0.059-0.08,0.087-0.132
			c0.027-0.053,0.056-0.096,0.086-0.132l-0.005-0.049c-0.036-0.028-0.056-0.06-0.059-0.093c-0.006-0.065-0.001-0.164,0.021-0.298
			c0.059-0.07,0.084-0.139,0.079-0.204c0.025-0.068,0.049-0.169,0.068-0.302s0.028-0.217,0.025-0.25
			c0.022-0.101,0.068-0.22,0.138-0.357s0.118-0.226,0.148-0.261l-0.03-0.293c0.124-0.078,0.184-0.149,0.178-0.215
			c0.099-0.01,0.211-0.046,0.337-0.107S97.402,105.618,97.436,105.614z"/>
	</g>
	<g>
		<path fill="#754C28" d="M37.354,16.11c5.609-2.493,12.182-2.295,17.697-3.901c6.32-1.84,10.049-2.586,16.715-1.44
			c6.154,1.06,8.264,7.463,14.594,7.159c5.969-0.282,9.498-5.805,16.139-2.684c4.165,1.954,10.328,9.061,13.51,12.426
			c4.123,4.355,9.651,9.558,12.849,14.889c2.132,3.547,5.726,11.752,5.343,16.088c-0.094,1.076,0.09,1.709,0.225,2.623
			c-2.81,2.358-10.988-2.01-14.678-2.961c-6.061-1.563-12.268-2.427-17.781-4.742c-11.012-4.634-25.609-3.006-36.813-8.33
			c-3.337-1.584-3.795-2.82-7.757-3.666c-3.615-0.77-8.03-1.783-11.701-1.877c-2.654-0.071-5.886,1.393-8.571,1.486
			c-2.907,0.1-5.953-0.93-8.896-0.4c-3.002,0.54-13.789,4.769-15.242-1.479c-0.388-1.669,8.492-11.085,10.26-11.712
			C23.244,27.588,31.902,18.539,37.354,16.11z"/>
		<path fill="#231F20" d="M132.064,62.832c-2.585,0-5.939-1.279-8.9-2.407c-1.387-0.529-2.698-1.029-3.636-1.271
			c-1.885-0.486-3.816-0.912-5.685-1.323c-4.109-0.904-8.358-1.839-12.217-3.46c-5.138-2.162-10.997-2.922-17.2-3.727
			c-6.716-0.871-13.659-1.772-19.65-4.619c-1.254-0.596-2.12-1.146-2.885-1.631c-1.286-0.817-2.303-1.463-4.68-1.97l-0.962-0.206
			c-3.426-0.735-7.309-1.568-10.579-1.652l-0.168-0.002c-1.249,0-2.717,0.368-4.137,0.724c-1.405,0.353-2.859,0.717-4.214,0.765
			c-1.283,0.045-2.586-0.119-3.843-0.277c-1.697-0.214-3.516-0.39-4.929-0.137c-0.465,0.084-1.177,0.275-2.002,0.497
			c-2.224,0.598-5.27,1.416-8.003,1.416c-4.38,0-5.812-2.204-6.242-4.053c-0.547-2.354,8.355-11.385,10.585-12.623
			c1.054-1.091,8.999-9.209,14.279-11.562c3.427-1.523,7.159-2.068,10.769-2.595c2.49-0.363,4.843-0.707,7.04-1.347
			c4.501-1.311,7.618-2.021,11.199-2.021c1.792,0,3.725,0.183,5.907,0.558c3.059,0.526,5.131,2.224,7.135,3.866
			c2.159,1.768,4.205,3.427,7.27,3.281c2.142-0.101,3.935-0.926,5.834-1.799c1.965-0.904,3.997-1.838,6.371-1.838
			c1.442,0,2.864,0.339,4.347,1.036c3.706,1.739,8.815,7.265,12.196,10.922c0.579,0.626,1.11,1.201,1.577,1.694
			c0.786,0.831,1.625,1.694,2.489,2.583c3.673,3.778,7.836,8.06,10.474,12.457c2.106,3.505,5.872,11.978,5.463,16.614
			c-0.063,0.731,0.02,1.222,0.126,1.842c0.031,0.184,0.063,0.373,0.093,0.577c0.045,0.3-0.07,0.601-0.302,0.796
			C134.278,62.531,133.296,62.832,132.064,62.832z M45.503,38.818l0.214,0.003c3.432,0.087,7.399,0.939,10.899,1.69l0.96,0.205
			c2.684,0.573,3.874,1.329,5.252,2.204c0.757,0.48,1.54,0.978,2.697,1.527c5.741,2.729,12.546,3.611,19.126,4.465
			c6.045,0.785,12.297,1.596,17.652,3.849c3.712,1.559,7.696,2.436,11.915,3.364c1.884,0.415,3.831,0.844,5.745,1.337
			c1.033,0.267,2.388,0.783,3.822,1.33c2.68,1.021,6.016,2.294,8.278,2.294c0.572,0,1.044-0.082,1.405-0.244
			c-0.115-0.679-0.223-1.323-0.14-2.272c0.341-3.86-2.871-11.651-5.222-15.562c-2.533-4.224-6.621-8.429-10.229-12.139
			c-0.869-0.894-1.714-1.763-2.506-2.6c-0.471-0.498-1.006-1.077-1.591-1.709c-3.288-3.557-8.259-8.933-11.656-10.527
			c-1.245-0.585-2.425-0.87-3.604-0.87c-1.991,0-3.765,0.815-5.642,1.678c-1.967,0.904-4.001,1.84-6.48,1.957
			c-3.737,0.167-6.146-1.781-8.459-3.675c-1.913-1.567-3.72-3.048-6.324-3.496c-2.084-0.358-3.919-0.532-5.611-0.532
			c-3.391,0-6.268,0.657-10.711,1.95c-2.313,0.674-4.836,1.042-7.275,1.398c-3.493,0.51-7.105,1.038-10.312,2.463
			C32.475,19.24,23.96,28.102,23.875,28.191c-0.095,0.099-0.211,0.174-0.339,0.219c-1.516,0.538-9.537,9.095-9.691,10.782
			c0.26,1.07,1.024,2.612,4.531,2.612c2.503,0,5.42-0.784,7.55-1.356c0.863-0.232,1.608-0.433,2.146-0.529
			c1.632-0.292,3.634-0.106,5.455,0.123c1.244,0.157,2.416,0.303,3.564,0.265c1.17-0.041,2.472-0.367,3.851-0.713
			C42.464,39.212,44.038,38.818,45.503,38.818z"/>
	</g>
	<path fill="#603813" d="M121.721,78.84c-1.436,1.702-3.089,8.191-7.308,5.412c-5.095-3.353,7.528-6.4,1.286-9.175
		c-8.807-3.91-10.408,16.071-17.133,5.94c-1.993-2.998,3.004-9.851-4.621-9.179c-4.215,0.374-6.025,5.989-6.113,8.434
		c-0.08,2.245,0.453,4.798-1.889,6.424c-2.078,1.441-4.729,1.604-6.188-0.508c-2.351-3.407,1.615-11.004,0.949-14.619
		c-0.752-4.048-4.227-2.946-5.782,0.143c-2.591,5.139,3.558,5.987-2.534,9.111c-7.171,3.672-0.855-13.612-7.27-14.675
		c-5.295-0.879-2.736,9.676-2.545,11.57c0.449,4.383-6.555,11.803-0.463,15.186c1.209,0.673,8.27,3.157,9.471,3.877
		c3.576,2.158,3.488-7.959,5.415-6.515c8.154,6.116,12.091,9.242,14.433,6.67c0.791-0.866,1.41-3.318,2.731-2.459
		c7.563,4.935,7.72-2.244,10.395-2.78c4.302-0.863,9.872-1.095,13.313-3.293c1.307-0.834,2.432-2.251,3.625-3.231
		c1.579-1.297,4.479-2.514,5.576-4.096C130.316,76.41,125.709,74.114,121.721,78.84z M53.313,60.493
		c-8.083-3.222-4.929,5.327-8.103,7.676c-10.717,7.934-5.783-12.677-16.688-11.691c-7.727,0.698,5.011,7.979-1.666,9.646
		c-5.528,1.384-5.158-5.689-6.155-7.882c-2.765-6.084-8.55-5.316-6.577,0.46c0.674,1.957,3.42,4.148,4.71,5.977
		c0.969,1.384,1.726,3.188,2.873,4.463c3.013,3.358,9.008,5.45,13.407,7.759c2.73,1.435,0.504,8.697,10.395,6.269
		c1.727-0.423,13.137,6.863,11.559-5.069c-0.414-3.116-0.575-4.802,0.089-7.091C57.877,68.524,57.779,62.282,53.313,60.493z
		 M81.059,48.524c4.724,0.672,4.902-17.565,8.904-12.153c3.395,4.598-1.088,3.792-0.648,9.404c0.266,3.371,2.379,5.346,3.967,1.657
		c1.416-3.29,0.67-11.618,3.199-14.267c1.564-1.642,3.355-0.785,4.414,1.144c1.196,2.176,0.154,4.485-0.385,6.658
		c-0.583,2.367-0.806,8.229,2.012,9.699c5.104,2.655,3.447-5.232,5.618-7.582c7.329-7.944,3.17,11.64,10.3,10.21
		c5.053-1.014-2.885-7.265,1.527-9.138c3.656-1.553,3.09,5.104,3.637,7.116c1.515,5.587,5.307,4.598,4.293-0.733
		c-0.345-1.807-2.028-3.735-2.783-5.396c-0.567-1.255-0.975-2.91-1.66-4.058c-1.804-3.016-5.6-4.701-8.35-6.664
		c-1.711-1.223,0.071-8.146-6.463-5.408c-1.143,0.478-0.927-2.037-1.247-3.08c-0.944-3.084-4.494-1.119-11.749,2.594
		c-1.717,0.879,1.008-8.801-2.036-7.677c-1.019,0.376-6.565,0.896-7.579,1.225c-5.109,1.64-2.218,10.603-3.681,14.685
		C81.716,38.523,77.16,47.972,81.059,48.524z M61.64,40.143c3.833,0.639,5.196-8.379,7.515-4.902
		c0.943,1.416-1.574,5.032-0.39,6.416c1.419,1.655,6.642,1.303,8.18,0.564c2.376-1.139,6.47-6.988,1.556-8.994
		c-3.589-0.645-2.182-2.774,0.295-5.841c0.988-1.221,2.746-6.777-2.448-7.993c-3.429-0.805-4.659,5.319-6.304,7.896
		c-1.728,2.704-6.307,2.523-4.67-0.223c2.779-4.66,8.799-10.288,1.777-11.534c-4.431-0.785-6.216,7.163-7.621,10.429
		c-0.717,1.66-5.28,0.872-3.738-0.86c2.415-2.719,4.973-4.39,2.088-6.604c-3.188-2.449-5.574,2.79-7.273,4.722
		c-2.992,3.407-6.238,6.737-10.572,8.987c-2.152,1.118-3.211,0.167-3.544-0.776c-0.492-1.394,0.835-3.277,1.812-4.233
		c2.698-2.627,9.76,0.05,9.092-4.979c-2.64-3.358-4.843,0.002-7.716,0.663c-2.419,0.555-3.343,1.785-5.813,2.151
		c-7.313,1.079-11.604,6.273-14.643,10.983l-0.104,0.661c0.545,2.771,5.406-1.809,6.254-2.816c0.469-0.555,1.494-2.393,2.453-2.4
		c1.924-0.017,1.66,2.594,2.52,3.526c2.572,2.788,7.636,1.864,10.79,1.485c2.413-0.288,2.33-0.043,3.872-1.628
		c1.139-1.169,2.172-3.088,4.436-2.235c-0.328,2.072,0.732,4.994,3.839,4.246c2.114-0.509,3.813-4.979,6.222-4.028
		C59.615,34.786,57.35,39.429,61.64,40.143z"/>
</g>
</svg>
