<?xml version="1.0" encoding="utf-8"?>
<!-- Generator: Adobe Illustrator 16.0.0, SVG Export Plug-In . SVG Version: 6.00 Build 0)  -->
<!DOCTYPE svg PUBLIC "-//W3C//DTD SVG 1.1//EN" "http://www.w3.org/Graphics/SVG/1.1/DTD/svg11.dtd">
<svg version="1.1" xmlns="http://www.w3.org/2000/svg" xmlns:xlink="http://www.w3.org/1999/xlink" x="0px" y="0px"
	 width="84.295px" height="158.336px" viewBox="0 0 84.295 158.336" enable-background="new 0 0 84.295 158.336"
	 xml:space="preserve">
<g id="Layer_2">
</g>
<g id="Layer_1">
	<g>
		<path fill="#FFFFFF" d="M6.042,16.042c2.778-2.266,3.69-1.295,6.761-2.129c3.437-0.934,2.576-1.408,5.5-3.426
			c1.746-1.205,4.345-2.862,6.35-3.363c2.417-0.604,5.128,0.307,7.414-0.647c2.596-1.084,1.236-3.393,5.223-3.573
			c4.063-0.184,8.758,1.625,13.317,1.46c0.964-9.326,11.879-1.322,14.173,2.126c3.836-1.84,12.994,1.217,16.164,4.034
			c3.9,3.466,1.582,8.979-4.089,8.578c-0.431,4.45-2.366,8.228-2.762,12.334c2.738,1.361,5.617-1.093,8.206,0.858
			c2.879,2.17,1.135,4.844-0.483,7.229c-3.438,5.069-8.694,5.007-12.591,8.462c-0.464,0.88-0.965,3.029-1.018,3.989
			c3.664,1.268,6.678-0.542,8.983,3.331c1.596,2.68-0.229,6.464,0.914,9.132c1.1,2.565,6.509,3.868,4.01,8.349
			c-1.257,2.254-9.026,4.621-11.384,5.325c-0.313,3.87,0.89,4.725,2.018,7.641c1.236,3.199,1.739,6.761,1.916,10.661
			c0.148,3.264-0.334,6.631-0.021,9.877c0.044,0.45,0.859,5.044,1.073,5.27c1.865,1.972,3.961,0.174,5.609,1.28
			c1.962,1.317,3.421,6.732,2.841,9.196c-1.059,4.495-5.309,3.433-7.134,7.339c-3.333,7.135,8.167,12.715-2.305,17.623
			c0.542,4.388-4.351,9.553-8.063,10.423c-2.824,0.662-4.758-1.106-7.279-1.621c-4.18-0.852-3.672-0.077-8.119,1.377
			c-5.192,1.697-12.982,1.146-18.477,0.736c-5.639-0.42-13.709,0.02-17.744-5c-2.135-2.656-1.63-4.377-4.213-6.374
			c-2.172-1.678-5.175-0.401-6.053-3.725c-0.863-3.264,1.857-3.267,1.912-5.753c0.075-3.348-2.489-4.54-3.748-7.211
			c-3.407-7.231-5.136-26.254,6.173-25.626c0.146-4.201-0.538-8.945,0.438-12.937c1.09-4.453,4.391-5.861,7.123-9.528
			c3.475-4.664,0.33-5.907-1.676-11.349c-0.907-2.462-1.629-4.307-0.971-6.923c0.402-1.6,2.58-1.971,2.758-3.677
			c0.468-4.488-10.074-8.863-11.757-15.036c-1.151-4.226-0.126-7.055-1.866-11.214c-1.09-2.605-4.623-8.394-2.5-10.148
			C0.666,23.413,3.438,18.166,6.042,16.042z"/>
		<path fill="#7CCDCD" d="M25.635,134.172c0,0,26.107-3.316,34.537-1.225c48.45,12.03-32.244,14.991-35.854,11.244
			C15.647,135.188,25.635,134.172,25.635,134.172z"/>
		<g>
			<path fill="#A78056" d="M25.742,85.891c-4.322,1.009-23.76,11.716,2.067,14.642c21.373,2.422,35.441-0.878,39.562-4.41
				c0.858-0.735,1.286-1.482,1.257-2.189c-0.17-4.098,2.311-8.318-17.014-8.337C34.663,85.579,31.831,84.47,25.742,85.891z"/>
			<path fill="#231F20" d="M41.852,102.032c-0.001,0-0.002,0-0.003,0c-4.476,0-9.225-0.28-14.114-0.835
				c-9.057-1.025-13.55-3.08-13.736-6.279c-0.272-4.667,9.219-9.125,11.592-9.68c3.547-0.826,6.172-0.817,11.919-0.604
				c3.248,0.12,7.697,0.285,14.106,0.292c9.299,0.009,14.368,0.962,16.436,3.093c1.346,1.387,1.297,3.092,1.254,4.597
				c-0.013,0.427-0.025,0.858-0.008,1.289c0.038,0.928-0.463,1.845-1.49,2.726C64.899,99.122,56.357,102.032,41.852,102.032z
				 M32.397,85.837c-2.505,0-4.328,0.198-6.503,0.706c-2.634,0.614-10.757,4.931-10.561,8.297c0.079,1.355,1.814,3.811,12.551,5.027
				c4.841,0.549,9.538,0.826,13.964,0.826c14.143,0.001,22.354-2.736,25.087-5.079c0.69-0.592,1.044-1.163,1.023-1.654
				c-0.019-0.461-0.006-0.924,0.007-1.383c0.041-1.419,0.076-2.645-0.876-3.626c-1.771-1.824-6.688-2.678-15.477-2.687
				c-6.433-0.006-10.896-0.172-14.154-0.292C35.426,85.896,33.819,85.837,32.397,85.837z"/>
		</g>
		<g>
			<path fill="#5AB1AF" d="M29.825,88.23c-3.194,0.633-17.499,7.587,1.664,9.771c15.859,1.807,26.254-0.264,29.274-2.579
				c0.63-0.481,0.939-0.976,0.912-1.446c-0.164-2.731,1.636-5.52-12.684-5.707C36.433,88.104,34.324,87.34,29.825,88.23z"/>
			<path fill="#231F20" d="M42.957,99.158C42.956,99.158,42.957,99.158,42.957,99.158c-3.625,0-7.501-0.232-11.521-0.69
				c-6.781-0.772-10.121-2.209-10.211-4.392c-0.128-3.109,6.787-5.966,8.508-6.307c2.652-0.525,4.672-0.481,8.812-0.293
				c2.407,0.109,5.705,0.26,10.453,0.322c7.035,0.092,10.825,0.807,12.289,2.316c0.889,0.918,0.869,2.013,0.852,2.979
				c-0.005,0.283-0.011,0.568,0.007,0.854c0.037,0.643-0.332,1.264-1.097,1.849C58.929,97.421,53.061,99.158,42.957,99.158z
				 M34.287,88.276c-1.615,0-2.882,0.121-4.37,0.415c-2.229,0.441-7.838,3.242-7.752,5.346c0.038,0.911,1.306,2.577,9.378,3.497
				c3.984,0.453,7.824,0.684,11.413,0.684c9.881,0,15.614-1.707,17.521-3.169c0.487-0.373,0.746-0.744,0.729-1.046
				c-0.019-0.309-0.013-0.619-0.008-0.927c0.017-0.896,0.03-1.67-0.587-2.307c-1.258-1.298-4.952-1.943-11.625-2.031
				c-4.764-0.063-8.07-0.213-10.484-0.322C36.799,88.338,35.454,88.276,34.287,88.276z"/>
		</g>
		<g>
			<path fill="#C3996B" d="M21.107,106.278c0,0,0.743,23.997,4.62,29.948c4.742,7.28,22.222,6.958,33.976-0.76
				c1.355-6.979,4.083-31.211,4.083-31.211L21.107,106.278z"/>
			<path fill="#231F20" d="M39.395,142.297L39.395,142.297c-6.794-0.001-12.025-2.05-14.353-5.624
				c-3.957-6.073-4.722-29.38-4.753-30.369c-0.014-0.446,0.333-0.821,0.779-0.843l42.679-2.022c0.262-0.015,0.474,0.082,0.636,0.258
				c0.164,0.175,0.243,0.413,0.217,0.651c-0.111,0.99-2.747,24.345-4.093,31.275c-0.042,0.217-0.17,0.407-0.354,0.528
				C54.292,139.999,46.531,142.297,39.395,142.297z M21.956,107.058c0.172,4.206,1.14,23.63,4.457,28.723
				c2.021,3.101,6.751,4.879,12.98,4.88h0.001c6.714,0,14.001-2.123,19.57-5.689c1.197-6.438,3.388-25.375,3.899-29.852
				L21.956,107.058z"/>
		</g>
		<g>
			<path fill="#468885" d="M58.563,78.828c-5.166,4.852,0.431,16.539-6,19.775c-2.154,1.084-24.985,2.714-24.888,1.505
				c1.277-15.92-3.095-35.574,0.676-51.287c2.485-10.357,9.224-18.414,20.256-16.307c12.156,2.321,8.366,15.371,8.575,24.586
				c0.203,8.943,3.813,4.222,8.529,1.808c6.289-3.219,8.771,2.901,6.604,8.821C69.785,74.636,63.082,74.582,58.563,78.828z"/>
			<path fill="#231F20" d="M31.227,101.286c-3.265,0-3.774-0.266-4.07-0.586c-0.142-0.154-0.246-0.443-0.229-0.652
				c0.517-6.428,0.11-13.348-0.318-20.673c-0.614-10.474-1.249-21.304,1.013-30.729c2.587-10.782,9.15-17.219,17.555-17.219
				c1.153,0,2.354,0.118,3.571,0.351c10.399,1.985,9.854,11.324,9.374,19.563c-0.118,2.031-0.23,3.95-0.189,5.742
				c0.047,2.051,0.312,4.496,1.308,4.496c0.746,0,1.977-0.795,3.279-1.636c0.859-0.555,1.834-1.184,2.851-1.704
				c3.082-1.574,5.765-1.177,7.269,0.976c1.454,2.08,1.6,5.441,0.381,8.771c-1.688,4.608-5.139,6.316-8.477,7.968
				c-1.897,0.939-3.859,1.91-5.466,3.42c-2.206,2.071-2.244,5.743-2.282,9.294c-0.045,4.272-0.092,8.69-3.895,10.604
				C51.019,100.22,37.371,101.286,31.227,101.286z M28.462,99.657c0.38,0.059,1.171,0.129,2.765,0.129
				c6.636,0,19.588-1.143,20.999-1.853c2.986-1.503,3.026-5.281,3.068-9.28c0.041-3.865,0.083-7.862,2.755-10.372
				c1.77-1.662,3.832-2.683,5.827-3.67c3.216-1.592,6.253-3.095,7.734-7.14c1.037-2.834,0.958-5.737-0.202-7.396
				c-1.082-1.549-2.983-1.713-5.355-0.499c-0.95,0.486-1.851,1.067-2.721,1.629c-1.559,1.006-2.904,1.875-4.093,1.875
				c-2.368,0-2.744-3.187-2.808-5.963c-0.042-1.852,0.072-3.8,0.192-5.863c0.466-7.995,0.948-16.264-8.158-18.003
				c-1.125-0.215-2.231-0.323-3.29-0.323c-3.68,0-12.616,1.565-16.096,16.068c-2.21,9.21-1.582,19.927-0.975,30.291
				C28.526,86.475,28.925,93.273,28.462,99.657z"/>
		</g>
		<path fill="#7CCDCD" d="M40.355,35.301l-3.438,13.016c-0.692,5.867-1.226,11.495-1.097,17.12
			c0.247,10.946-0.643,21.402-1.467,32.526c0.949-0.092,2.712-0.221,3.717-0.532c4.873-9.471,0.172-20.975,1.33-30.429
			C39.938,62.635,43.77,36.142,40.355,35.301z M50.201,65.572c-0.206-5.346,0.761-11.335,0.375-16.787
			c-0.228-3.211-0.383-12.359-3.55-14.103l0.356,0.963c-1.438,10.602-0.988,21.699-0.832,32.433
			c0.143,9.867-2.012,19.802-2.751,29.727C49.773,99.515,50.388,70.412,50.201,65.572z M53.317,73.698
			c-1.41,3.051-1.077,8.146-1.478,11.501c-0.474,3.968-2.641,8.766-2.354,12.427c4.04-1.232,3.237-17.873,6.016-21.792
			c1.665-2.35,7.063-3.784,9.294-5.32c2.993-2.064,4.152-4.979,4.794-7.692l0.056-0.465C66.422,62.424,54.617,70.89,53.317,73.698z
			 M32.945,69.762c0.405-5.727-0.613-10.66,0.08-16.472c0.521-4.372,5.882-12.919,4.176-16.646c0,0-3.944,6.146-4.705,8.349
			c-0.815,2.367-1.073,4.508-1.635,7.097c-1.198,5.521-1.738,10.435-1.535,16.414c0.197,5.805,0.878,12.05,0.592,17.863
			c-0.171,3.48-2.401,11.515,2.181,12.264C34.687,87.98,32.211,80.199,32.945,69.762z M53.613,65.615
			c3.198-6.568,4.245-27.08-2.814-30.954l-0.465-0.056c2.547,4.761,2.426,10.233,2.987,15.345
			C53.731,53.69,51.679,62.551,53.613,65.615z"/>
		<g>
			<path fill="#231F20" d="M53.286,43.662c5.219-4.09,8.401-7.453,7.136-4.554c-1.264,2.898-5.297,5.905-7.369,6.511
				C50.979,46.226,53.286,43.662,53.286,43.662z"/>
			<path fill="#231F20" d="M52.534,46.462c-0.671,0-0.929-0.416-1.008-0.595c-0.102-0.227-0.408-0.917,1.202-2.707
				c0.029-0.032,0.061-0.062,0.095-0.088c1.435-1.125,2.744-2.218,3.795-3.097c2.462-2.056,3.271-2.706,3.927-2.706
				c0.312,0,0.585,0.145,0.751,0.397c0.286,0.438,0.141,0.991-0.187,1.741c-1.394,3.195-5.646,6.288-7.847,6.931
				C52.98,46.422,52.742,46.462,52.534,46.462z M52.531,44.962l0.003,0.75v-0.75H52.531z M53.802,44.211
				c-0.135,0.153-0.269,0.318-0.389,0.479c1.75-0.757,4.424-2.802,5.792-4.911c-0.491,0.401-1.063,0.879-1.625,1.349
				C56.533,42.001,55.234,43.087,53.802,44.211z"/>
		</g>
		<g>
			<path fill="#231F20" d="M46.224,37.279c2.147-6.273,2.983-10.829,3.502-7.709c0.52,3.121-1.224,7.84-2.632,9.477
				C45.688,40.685,46.224,37.279,46.224,37.279z"/>
			<path fill="#231F20" d="M46.477,40.242c-0.289,0-0.554-0.124-0.746-0.349c-0.473-0.554-0.396-1.79-0.248-2.73
				c0.007-0.043,0.018-0.086,0.031-0.127c0.591-1.726,1.093-3.356,1.496-4.666c1.105-3.593,1.402-4.559,2.312-4.559
				c0.872,0,1.049,1.064,1.145,1.636c0.572,3.44-1.309,8.351-2.804,10.089C47.402,39.839,46.996,40.242,46.477,40.242z
				 M46.955,37.458c-0.029,0.201-0.052,0.412-0.065,0.611c1.053-1.585,2.178-4.747,2.181-7.259
				c-0.197,0.604-0.413,1.308-0.627,2.001C48.042,34.115,47.544,35.734,46.955,37.458z"/>
		</g>
		<g>
			<path fill="#231F20" d="M47.753,61.436c4.894-4.477,7.81-8.07,6.77-5.084c-1.042,2.987-4.834,6.292-6.854,7.054
				C45.647,64.167,47.753,61.436,47.753,61.436z"/>
			<path fill="#231F20" d="M47.101,64.289c-0.432,0-0.779-0.201-0.952-0.554c-0.107-0.219-0.435-0.884,1.011-2.758
				c0.026-0.034,0.056-0.066,0.088-0.096c1.344-1.229,2.565-2.419,3.547-3.374c2.393-2.33,3.112-3.002,3.785-3.002
				c0.294,0,0.558,0.135,0.725,0.369c0.295,0.415,0.19,0.967-0.073,1.724c-1.148,3.292-5.152,6.699-7.297,7.509
				C47.607,64.229,47.336,64.289,47.101,64.289z M48.309,61.943c-0.123,0.163-0.244,0.338-0.352,0.508
				c1.684-0.887,4.188-3.123,5.396-5.327c-0.464,0.437-0.992,0.951-1.514,1.458C50.863,59.533,49.65,60.714,48.309,61.943z"/>
		</g>
		<g>
			<path fill="#231F20" d="M69.828,69.508c4.556,0.743,7.862,0.806,5.599,1.479c-2.267,0.673-5.692,0.03-6.883-0.719
				C67.354,69.519,69.828,69.508,69.828,69.508z"/>
			<path fill="#231F20" d="M73.197,72.021c-1.899,0-4.024-0.47-5.053-1.117c-0.733-0.462-0.715-0.975-0.64-1.238
				c0.077-0.27,0.258-0.898,2.32-0.907c0.065-0.006,0.084,0.003,0.124,0.01c1.255,0.205,2.414,0.357,3.387,0.485
				c2.761,0.364,3.503,0.462,3.569,1.297c0.061,0.762-0.769,1.009-1.265,1.156C74.938,71.915,74.116,72.021,73.197,72.021z"/>
		</g>
		<g>
			<path fill="#231F20" d="M46.024,87.036c3.698-2.762,6.039-5.098,4.952-3.001c-1.09,2.099-3.932,4.117-5.297,4.454
				C44.314,88.824,46.024,87.036,46.024,87.036z"/>
			<path fill="#231F20" d="M45.394,89.281c-0.425,0-0.768-0.21-0.918-0.561c-0.102-0.237-0.34-0.795,1.007-2.203
				c0.028-0.03,0.06-0.058,0.093-0.082c1.02-0.762,1.935-1.49,2.703-2.101c1.85-1.473,2.354-1.857,2.871-1.857
				c0.262,0,0.583,0.174,0.72,0.397c0.275,0.454,0.05,0.972-0.227,1.505c-1.222,2.352-4.289,4.469-5.783,4.838
				C45.685,89.261,45.532,89.281,45.394,89.281z"/>
		</g>
		<g>
			<path fill="#231F20" d="M40.489,63.151c-5.504-3.7-9.687-5.687-6.538-5.378c3.147,0.307,7.255,3.211,8.472,4.995
				S40.489,63.151,40.489,63.151z"/>
			<path fill="#231F20" d="M42.303,64.425c-0.758,0-1.897-0.49-2.118-0.588c-0.04-0.018-0.078-0.039-0.113-0.063
				c-1.516-1.019-2.961-1.926-4.123-2.655c-3.192-2.004-4.05-2.543-3.796-3.426c0.134-0.465,0.557-0.7,1.258-0.7
				c0.168,0,0.372,0.011,0.614,0.035c3.471,0.338,7.727,3.425,9.018,5.318c0.171,0.25,0.623,0.913,0.296,1.532
				C43.229,64.082,42.952,64.425,42.303,64.425z M40.852,62.491c0.162,0.07,0.366,0.149,0.574,0.221
				c-1.258-1.426-4.019-3.33-6.443-3.983c0.531,0.346,1.151,0.735,1.764,1.119C37.902,60.574,39.338,61.475,40.852,62.491z"/>
		</g>
		<g>
			<path fill="#231F20" d="M47.548,71.988c-6.628,0.25-11.179,1.107-8.453-0.498c2.726-1.604,7.755-1.676,9.789-0.95
				C50.92,71.266,47.548,71.988,47.548,71.988z"/>
			<path fill="#231F20" d="M39.403,73.191c-0.646,0-1.62,0-1.832-0.775c-0.211-0.774,0.637-1.273,1.143-1.572
				c1.591-0.937,4.124-1.495,6.777-1.495c1.473,0,2.768,0.172,3.645,0.485c0.799,0.284,1.186,0.71,1.149,1.265
				c-0.018,0.269-0.071,1.085-2.58,1.623c-0.043,0.009-0.086,0.015-0.129,0.016c-1.824,0.069-3.527,0.187-4.896,0.281
				C41.286,73.115,40.185,73.191,39.403,73.191z M45.491,70.849c-1.874,0-3.657,0.294-5.001,0.808
				c0.59-0.03,1.289-0.079,2.087-0.134c1.362-0.094,3.053-0.211,4.875-0.281c0.198-0.044,0.401-0.1,0.592-0.158
				C47.357,70.934,46.451,70.849,45.491,70.849z"/>
		</g>
		<g>
			<path fill="#231F20" d="M27.271,55.765c-0.668-6.599-1.811-11.086-0.037-8.467c1.774,2.619,2.161,7.634,1.565,9.71
				C28.205,59.083,27.271,55.765,27.271,55.765z"/>
			<path fill="#231F20" d="M28.334,58.44c-0.27,0-1.089,0-1.784-2.473c-0.012-0.042-0.021-0.084-0.024-0.128
				c-0.184-1.815-0.409-3.508-0.59-4.867c-0.457-3.438-0.558-4.358-0.1-4.881c0.171-0.195,0.405-0.303,0.661-0.303
				c0.518,0,0.903,0.416,1.358,1.088c1.956,2.888,2.298,8.134,1.665,10.338C29.288,58.028,28.889,58.44,28.334,58.44z
				 M28.011,55.622c0.058,0.195,0.125,0.396,0.195,0.582c0.295-1.879-0.004-5.22-1.048-7.503c0.072,0.63,0.169,1.357,0.265,2.074
				C27.603,52.128,27.826,53.809,28.011,55.622z"/>
		</g>
		<g>
			<path fill="#231F20" d="M28.073,72.51c-4.11-5.203-6.413-9.221-5.864-6.105c0.548,3.115,3.759,6.985,5.631,8.063
				C29.712,75.543,28.073,72.51,28.073,72.51z"/>
			<path fill="#231F20" d="M28.465,75.448L28.465,75.448c-0.289-0.001-0.606-0.105-0.999-0.331
				c-1.987-1.144-5.392-5.149-5.995-8.583c-0.133-0.752-0.153-1.292,0.154-1.659c0.168-0.199,0.413-0.313,0.674-0.313
				c0.723,0,1.257,0.684,3.403,3.582c0.815,1.101,1.83,2.471,2.96,3.901c0.026,0.034,0.051,0.07,0.071,0.108
				c1.082,2.004,0.718,2.615,0.598,2.816C29.149,75.273,28.834,75.448,28.465,75.448z M23.239,67.357
				c0.839,2.367,2.951,4.976,4.47,6.121c-0.079-0.185-0.171-0.376-0.266-0.557c-1.128-1.43-2.136-2.79-2.947-3.886
				C24.064,68.453,23.627,67.861,23.239,67.357z"/>
		</g>
		<path fill="#468885" d="M74.412,39.302c3.914-1.986,6.326-3.704,5.32-2.111c-1.005,1.595-4.023,3.039-5.549,3.233
			C72.66,40.619,74.412,39.302,74.412,39.302z"/>
		<path fill="#468885" d="M15.274,49.299c-3.774-4.247-5.901-7.518-5.369-4.996c0.531,2.521,3.478,5.683,5.181,6.573
			C16.79,51.767,15.274,49.299,15.274,49.299z"/>
		<g>
			<path fill="#EACCAD" d="M66.908,103.563c0,0,3.338-9.19,1.313-11.125c-9.026,6.252-52.215,8.311-53.56,1.539
				c-0.708,8,1.884,14.028,1.884,14.028S59.523,116.126,66.908,103.563z"/>
			<path fill="#231F20" d="M43.453,111.337C43.452,111.337,43.453,111.337,43.453,111.337c-13.162,0-26.91-2.569-27.048-2.595
				c-0.245-0.047-0.451-0.212-0.55-0.441c-0.108-0.253-2.658-6.295-1.941-14.391c0.033-0.371,0.334-0.662,0.707-0.683
				c0.4-0.033,0.704,0.237,0.775,0.603c0.356,1.793,6.166,3.603,18.342,3.603c0.001,0,0.003,0,0.003,0
				c12.758-0.001,28.981-2.1,34.053-5.611c0.293-0.203,0.688-0.172,0.944,0.074c2.266,2.163-0.54,10.312-1.125,11.923
				c-0.016,0.043-0.035,0.085-0.059,0.124C64.671,108.849,56.561,111.337,43.453,111.337z M17.09,107.342
				c2.362,0.421,14.606,2.495,26.362,2.495c12.308,0,20.181-2.28,22.775-6.597c1.135-3.149,2.322-7.996,1.757-9.766
				c-6.083,3.549-21.913,5.457-34.242,5.458c0,0-0.003,0-0.004,0c-5.811,0-14.95-0.426-18.44-2.923
				C15.162,101.694,16.619,106.081,17.09,107.342z"/>
		</g>
		<g>
			<g>
				<path fill="#231F20" d="M8.052,20.689c0.123-0.11,0.265-0.187,0.405-0.261c0.602-0.32,1.213-0.192,1.849-0.531
					c0.072,0.053,0.145,0.015,0.197,0.031c0.071-0.037,0.105-0.057,0.158-0.129c0.323,0.099,0.68,0,1.037-0.008
					c0.106-0.058,0.087-0.092,0.158-0.13c0.159-0.04,0.342,0.045,0.501,0.005c0.037,0.07,0.108,0.033,0.146,0.104
					c0.432,0.043,0.845,0.141,1.21,0.398c0.126,0.069,0.232,0.013,0.307,0.064c0.055,0.105,0.109,0.123,0.166,0.229
					c0.305,0.064,0.773,0.177,0.942,0.495l0.041,0.16c0.091,0.087,0.214-0.023,0.269-0.007c0.234,0.101,0.314,0.421,0.477,0.471
					c0.002,0.09,0.132,0.247,0.188,0.354c0.037,0.07,0.125-0.021,0.216,0.066l0.057,0.104c0.074,0.142,0.167,0.229,0.172,0.407
					c0.162,0.05,0.148,0.193,0.223,0.335c0.094,0.177,0.275,0.262,0.369,0.438c0.037,0.07,0.056,0.105,0.059,0.195
					c0.057,0.105,0.145,0.015,0.217,0.065c0.166,0.229,0.298,0.476,0.411,0.688c0.094,0.177,0.188,0.354,0.246,0.549
					c0.002,0.09-0.069,0.038-0.141,0.075c0.183,0.175,0.399,0.24,0.6,0.36c0.091,0.088-0.014,0.144,0.042,0.25
					c0.093,0.087,0.221,0.245,0.207,0.389c0.145,0.104,0.239,0.28,0.334,0.457c0.074,0.141,0.169,0.317,0.227,0.513
					c0.074,0.053,0.128,0.069,0.218,0.066c-0.017,0.054,0.002,0.089,0.021,0.124c0.057,0.106,0.184,0.175,0.135,0.337
					c0.072,0.052,0.091,0.087,0.128,0.158l0.153,0.372c0.092,0.087,0.184,0.174,0.239,0.28c0.019,0.035-0.015,0.144,0.008,0.269
					c0.074,0.142,0.201,0.209,0.098,0.354c0.072,0.052,0.11,0.123,0.148,0.193c0.131,0.247,0.139,0.516,0.251,0.728
					c0.057,0.106,0.094,0.177,0.167,0.229c0.039,0.159-0.048,0.252,0.117,0.391c0.057,0.106-0.031,0.197-0.063,0.306
					c0.054,0.017,0.091,0.088,0.109,0.122c0.076,0.143,0.025,0.304,0.047,0.429l0.057,0.106c0.151,0.282,0.195,0.621,0.039,0.84
					c0.02,0.035,0.073,0.052,0.111,0.123c0.094,0.177,0.027,0.393-0.111,0.558c0.109,0.122,0.022,0.213,0.149,0.281
					c-0.029,0.199-0.062,0.396,0.017,0.627c-0.104,0.146-0.138,0.254-0.043,0.431c-0.05,0.162-0.1,0.324-0.094,0.504
					c-0.295,0.383-0.5,0.764-0.507,1.176c-0.071,0.038-0.089,0.092-0.14,0.164c0.011,0.447-0.535,0.783-0.632,1.197
					c0.002,0.09-0.07,0.038-0.122,0.11c-0.013,0.233-0.26,0.365-0.326,0.582l-0.141,0.074c-0.247,0.132-0.332,0.313-0.561,0.48
					c-0.177,0.094-0.402,0.35-0.756,0.538c-0.035,0.019-0.09,0.002-0.16,0.04l-0.247,0.131c-0.176,0.094-0.354,0.188-0.605,0.141
					l-0.07,0.037c-0.141,0.076-0.321,0.08-0.499,0.085c-0.41,0.082-0.873,0.147-1.233,0.067c-0.354,0.098-0.729,0.162-1.019,0.044
					c-0.317,0.169-0.536,0.014-0.774-0.178c-0.037-0.07-0.144-0.015-0.198-0.03c-0.296-0.387-0.832-0.373-1.077-0.832
					c-0.018-0.035-0.07,0.038-0.107-0.032c-0.219-0.156-0.404-0.42-0.606-0.63c-0.073-0.052-0.127-0.068-0.145-0.104
					c-0.13-0.158-0.135-0.337-0.246-0.459c-0.073-0.052-0.161-0.05-0.199-0.12c-0.073-0.052-0.094-0.177-0.167-0.229
					c-0.037-0.07-0.091-0.087-0.148-0.193l-0.074-0.142c-0.095-0.177-0.187-0.264-0.279-0.439c-0.243-0.37-0.38-0.796-0.583-1.096
					c-0.039-0.07-0.076-0.141-0.06-0.195c-0.11-0.121-0.314-0.422-0.482-0.649c-0.037-0.071,0.034-0.108-0.003-0.179
					c-0.021-0.036-0.055-0.017-0.055-0.017c-0.054-0.017-0.13-0.157-0.167-0.229c-0.186-0.264-0.393-0.652-0.617-1.075
					c-0.058-0.107-0.062-0.285-0.118-0.391l-0.132-0.248l-0.319-0.601c-0.075-0.142-0.132-0.247-0.172-0.407
					c-0.094-0.176-0.116-0.391-0.211-0.567l-0.15-0.282c-0.206-0.389-0.383-0.976-0.591-1.452c-0.153-0.372-0.377-0.706-0.366-1.029
					c-0.073-0.052-0.11-0.122-0.13-0.158c-0.075-0.141-0.096-0.266-0.118-0.391c-0.055-0.105-0.147-0.192-0.203-0.299
					c-0.076-0.141-0.115-0.302-0.137-0.426c-0.075-0.142-0.132-0.247-0.171-0.407c-0.151-0.283-0.282-0.529-0.417-0.866
					c-0.002-0.09-0.022-0.215-0.061-0.285c-0.075-0.142-0.186-0.264-0.241-0.37c-0.039-0.07-0.057-0.105-0.06-0.195
					c-0.057-0.105-0.11-0.122-0.164-0.139c-0.057-0.105,0.012-0.233-0.01-0.357c0.143-0.075,0.138-0.254,0.205-0.381
					c0.087-0.092,0.229-0.168,0.297-0.295c0.104-0.146,0.135-0.343,0.238-0.488c0.229-0.167,0.403-0.351,0.558-0.569
					c0.123-0.11,0.158-0.13,0.265-0.186c0.07-0.037,0.104-0.146,0.14-0.165l0.141-0.075c0.105-0.056,0.265-0.185,0.439-0.279
					c0.071-0.038,0.142-0.075,0.251-0.042c0.134-0.344,0.543-0.426,0.895-0.703C7.909,20.675,7.998,20.673,8.052,20.689z
					 M8.205,30.94c0.036-0.02,0.036-0.02,0.053-0.073c-0.019-0.035-0.073-0.052-0.109-0.033L8.205,30.94z M10.224,24.428
					c0.037,0.071,0.144,0.015,0.2,0.12c0.002,0.09,0.005,0.179,0.061,0.285c0.075,0.141,0.167,0.229,0.258,0.315
					c0.063,0.285,0.123,0.57,0.238,0.872c0.072,0.051,0.162,0.049,0.2,0.119c-0.086,0.182-0.063,0.396,0.032,0.572
					c0.111,0.211,0.296,0.387,0.408,0.598l1.211,1.849c0.225,0.424,0.557,0.791,0.764,1.18l0.152,0.372
					c0.02,0.035,0.057,0.106,0.111,0.123c-0.049,0.251,0.154,0.46,0.267,0.673l0.038,0.07c0.056,0.105,0.023,0.214,0.08,0.32
					c0.074,0.142,0.203,0.299,0.279,0.44l0.056,0.106c0.057,0.105,0.079,0.23,0.116,0.301c0.055,0.105,0.129,0.157,0.221,0.245
					l0.093,0.176c0.151,0.283,0.728,0.43,0.975,0.299c0.159-0.13,0.226-0.258,0.26-0.365c0.032-0.108,0.046-0.252,0.115-0.379
					c-0.094-0.177,0.045-0.342-0.067-0.553c-0.059-0.195-0.082-0.41,0.021-0.556c-0.092-0.087-0.059-0.195-0.08-0.32
					c-0.169-0.318-0.23-0.603-0.256-0.906l-0.112-0.212c-0.169-0.318-0.266-0.584-0.326-0.869c-0.057-0.105-0.144-0.014-0.164-0.139
					c-0.436-0.901-0.919-1.641-1.493-2.378c-0.204-0.299-0.301-0.565-0.588-0.593c-0.229-0.604-0.738-0.877-1.14-1.207
					c-0.146-0.104-0.292-0.207-0.386-0.384l-0.058-0.105c-0.071-0.052-0.234-0.102-0.29-0.208c0,0,0.015-0.054-0.003-0.089
					c-0.106,0.056-0.124,0.021-0.178,0.005c-0.149-0.193-0.345-0.135-0.493-0.328c-0.143-0.015-0.232-0.012-0.303,0.025
					C10.267,23.997,10.29,24.212,10.224,24.428z M16.403,35.188c0.052-0.072,0.193-0.148,0.137-0.254
					c-0.089,0.002-0.179,0.004-0.285,0.061C16.292,35.065,16.349,35.172,16.403,35.188z"/>
				<path fill="#231F20" d="M25.822,11.758c0.19-0.065,0.406-0.055,0.645-0.096c0.114-0.038,0.202-0.027,0.316-0.065l0.453-0.157
					c0.266-0.091,0.491-0.169,0.758-0.134c0.113-0.039,0.14,0.037,0.19,0.062c0.266-0.092,0.582-0.031,0.823,0.055
					c0.416-0.144,0.672,0.106,1.063,0.015c0.065,0.189,0.229,0.175,0.356,0.174c0.076,0.1,0.115,0.213,0.204,0.225
					c0.33,0.099,0.598,0.387,0.915,0.447c0.077,0.1,0.115,0.213,0.242,0.211c0.064,0.063,0.001,0.127,0.027,0.203
					c0.293,0.237,0.561,0.398,0.854,0.637c0.038,0.112,0.166,0.238,0.078,0.354c0.015,0.037,0.015,0.037,0.053,0.024
					c0.301-0.104,0.458,0.349,0.725,0.511c-0.011,0.089,0.015,0.165,0.041,0.24c0.117,0.341,0.446,0.438,0.613,0.677
					c0.09,0.138,0.118,0.341,0.208,0.479c0.077,0.101,0.165,0.112,0.229,0.175c0.116,0.214,0.182,0.529,0.398,0.666
					c0.039,0.113,0.041,0.24,0.093,0.392c0.117,0.341,0.323,0.692,0.516,0.88c0.077,0.227,0.155,0.454,0.311,0.781
					c0.129,0.252,0.308,0.402,0.359,0.553c0.039,0.113,0.015,0.164-0.036,0.266c0.054,0.151,0.13,0.252,0.183,0.403
					c0.064,0.188,0.105,0.429,0.095,0.644c0.077,0.101,0.116,0.215,0.143,0.291c0.038,0.112,0.09,0.264,0.092,0.391
					c0.015,0.164,0.18,0.15,0.143,0.289c0.063,0.063-0.139,0.09-0.074,0.279l0.145,0.416c0.025,0.075,0.114,0.087,0.141,0.163
					c0.001,0.126-0.023,0.304,0.018,0.417c0.051,0.151,0.179,0.276,0.243,0.339c0.052,0.151-0.063,0.19-0.06,0.316
					c0.102,0.05,0.103,0.176,0.142,0.29c0.013,0.037,0.039,0.113,0.09,0.138c-0.074,0.153-0.047,0.354-0.223,0.458
					c0.04,0.366,0.082,0.606,0.085,0.986c-0.113,0.038-0.074,0.152-0.238,0.166c-0.036,0.14,0.041,0.366-0.172,0.482
					c0.026,0.202-0.01,0.342-0.083,0.494c0.001,0.127,0.114,0.088,0.141,0.163c-0.438,0.447-0.85,1.097-1.108,1.694
					c-0.229,0.077-0.303,0.229-0.414,0.396c-0.189,0.065-0.25,0.255-0.426,0.358l-0.229,0.078c-0.226,0.078-0.301,0.23-0.464,0.371
					c-0.125,0.128-0.263,0.219-0.337,0.37c-0.214,0.117-0.428,0.232-0.54,0.397l-0.165,0.015c-0.15,0.053-0.226,0.205-0.363,0.295
					c-0.29,0.143-0.566,0.195-0.832,0.287c-0.214,0.115-0.427,0.231-0.692,0.323l-0.151,0.052c-0.037,0.013-0.126,0.001-0.177-0.023
					c-0.227,0.078-0.39,0.219-0.617,0.297c-0.188,0.065-0.416,0.144-0.617,0.171c-0.189,0.065-0.329,0.028-0.519,0.094
					c-0.076,0.026-0.138,0.09-0.214,0.115c-0.202,0.027-0.443-0.058-0.646-0.031l-0.15,0.053c-0.076,0.026-0.367,0.042-0.558-0.02
					c-0.201,0.027-0.417-0.109-0.532-0.07l-0.113,0.039c-0.14-0.037-0.267-0.162-0.444-0.186c-0.14-0.037-0.341-0.01-0.431-0.147
					c-0.43,0.105-0.812-0.017-1.19-0.14c-0.14-0.037-0.343-0.135-0.482-0.172c-0.153-0.074-0.292-0.111-0.42-0.236l-0.381-0.123
					c-0.091-0.138-0.292-0.11-0.357-0.299l-0.215-0.011c-0.422-0.363-0.831-0.814-1.265-1.215c-0.256-0.251-0.408-0.451-0.666-0.827
					c-0.091-0.139-0.129-0.252-0.257-0.378l-0.243-0.212c-0.23-0.302-0.336-0.73-0.517-1.133c-0.104-0.176-0.257-0.377-0.322-0.566
					c-0.142-0.29-0.171-0.617-0.3-0.869c-0.052-0.151-0.192-0.314-0.245-0.466c-0.039-0.113,0.011-0.215-0.016-0.291
					c-0.014-0.165-0.154-0.327-0.196-0.567l-0.013-0.164c-0.002-0.126-0.129-0.252-0.155-0.327
					c-0.015-0.165-0.043-0.366-0.045-0.619c-0.041-0.366-0.299-0.87-0.164-1.213c-0.13-0.378-0.07-0.694,0.003-0.974
					c-0.093-0.392-0.134-0.758,0.078-1.001c-0.013-0.037-0.076-0.1-0.103-0.175c0.139-0.091,0.073-0.279,0.173-0.356
					c0.013-0.089-0.063-0.063-0.089-0.138c0.087-0.115,0.086-0.242,0.173-0.356c-0.131-0.505,0.195-0.786,0.178-1.204
					c0.136-0.343,0.36-0.673,0.395-1.066c0.112-0.165,0.274-0.306,0.462-0.498c0.127-0.127,0.212-0.368,0.375-0.51
					c0.063-0.063,0.176-0.102,0.238-0.166c0.201-0.154,0.338-0.371,0.564-0.449c0.112-0.165,0.148-0.432,0.348-0.585
					c0.227-0.204,0.593-0.246,0.666-0.525c0.165-0.014,0.353-0.079,0.542-0.145l0.19-0.065c0.113-0.039,0.149-0.178,0.288-0.268
					c0.275-0.18,0.591-0.247,0.715-0.501c0.089,0.012,0.127-0.001,0.202-0.027c0.151-0.052,0.275-0.181,0.326-0.281
					c0.063-0.063,0.176-0.104,0.29-0.143l0.491-0.169c0.113-0.039,0.228-0.078,0.326-0.155L25.822,11.758z M26.461,14.711
					c0.038,0.113,0.076,0.101,0.064,0.188l-0.087,0.115c0.066,0.315-0.121,0.507-0.157,0.772c0.039,0.114,0.115,0.088,0.153,0.201
					c-0.024,0.051-0.175,0.104-0.187,0.192l0.078,0.227c0.143,0.416,0.058,0.783-0.064,1.164l0.052,0.151
					c0.078,0.228,0.132,0.505,0.211,0.731c0.051,0.151,0.153,0.327,0.231,0.428c-0.138,0.09-0.011,0.215-0.022,0.304
					c0.014,0.038-0.012,0.089-0.037,0.14c-0.011,0.215,0.067,0.315,0.095,0.518c0.102,0.049,0.179,0.15,0.229,0.301
					c0.053,0.152,0.043,0.367,0.006,0.507c0.076,0.101,0.154,0.201,0.193,0.314c0.064,0.189,0.078,0.354,0.094,0.517
					c0.038,0.113,0.19,0.062,0.204,0.227c0.002,0.252,0.107,0.555,0.211,0.857c0.157,0.454,0.363,0.933,0.521,1.386l0.078,0.227
					c0.025,0.076,0.141,0.164,0.167,0.239c0.283,0.453,0.427,0.995,0.646,1.385c0.038,0.113,0.154,0.201,0.23,0.301
					c0.257,0.377,0.244,0.466,0.499,0.59c0.254,0.124,0.241,0.086,0.507,0.121c0.114-0.039,0.178,0.023,0.253-0.002
					c0.089,0.012,0.127-0.002,0.164-0.015c0.151-0.052,0.239-0.166,0.403-0.181c0.199-0.281,0.399-0.561,0.663-0.779
					c0.061-0.189,0.071-0.404,0.146-0.558c0.022-0.304-0.006-0.632,0.017-0.936l0.048-0.229c0.022-0.178-0.054-0.278-0.017-0.417
					c0.037-0.14,0.122-0.381,0.069-0.532c-0.012-0.038-0.038-0.113-0.089-0.139c0.087-0.24,0.032-0.519,0.081-0.747l-0.09-0.138
					c-0.066-0.189,0.009-0.342-0.005-0.506c-0.002-0.126-0.091-0.265-0.093-0.392c-0.04-0.113,0.011-0.215-0.016-0.29
					c-0.027-0.202-0.131-0.378-0.195-0.567c-0.093-0.392-0.085-0.859-0.151-1.176c-0.174-0.87-0.901-1.508-1.2-2.377
					c-0.294-0.238-0.426-0.743-0.669-1.082c-0.204-0.226-0.435-0.4-0.525-0.665c-0.307-0.275-0.637-0.499-0.856-0.889
					c-0.393-0.034-0.71-0.221-1.091-0.218c-0.126,0.002-0.403,0.056-0.555,0.107C26.723,14.366,26.611,14.532,26.461,14.711z"/>
				<path fill="#231F20" d="M40.101,8.233c0.191,0.302,0.557,0.346,0.669,0.656c0.246,0.055,0.237,0.377,0.453,0.517
					c0.096,0.553,0.358,1.169,0.605,1.627c-0.023,0.163-0.056,0.247,0.075,0.354c0.013,0.119-0.063,0.167-0.099,0.211
					c0.104,0.23,0.202,0.422,0.374,0.524c0.06,0.195,0.044,0.438,0.172,0.506c0.271-0.107,0.282-0.39,0.509-0.533
					c0.031-0.485,0.541-0.617,0.748-0.96c0.194-0.06,0.299-0.23,0.537-0.255c0.187-0.14,0.561-0.418,0.875-0.489l0.668-0.147
					c0.194-0.06,0.382-0.199,0.621-0.224l0.669-0.148c0.08-0.008,0.155-0.057,0.234-0.064c0.08-0.008,0.203,0.021,0.322,0.01
					l0.434-0.084c0.044,0.036,0.048,0.076,0.206,0.06l0.159-0.016c0.04-0.005,0.045,0.036,0.124,0.027
					c0.124,0.028,0.317-0.031,0.521-0.012c0,0,0.048,0.075,0.088,0.071c0.043,0.036,0.119-0.012,0.158-0.016
					c0.045,0.036,0.132,0.107,0.212,0.1c0.211,0.099,0.171,0.104,0.342,0.207c0.047,0.074,0.168,0.063,0.211,0.099
					c0.044,0.036,0.052,0.115,0.095,0.151c0.172,0.104,0.379,0.163,0.482,0.394c0.278-0.028,0.494,0.111,0.704,0.21
					c-0.028,0.124,0.017,0.16,0.06,0.195c0.387,0.243,0.67,0.656,1.023,0.982l0.021,0.199c0.016,0.159,0.022,0.238,0.151,0.307
					c0.007,0.079-0.025,0.163-0.06,0.207c0.258,0.175,0.298,0.572,0.374,0.927c0.091,0.111,0.263,0.215,0.318,0.37l0.008,0.08
					c0.012,0.119,0.063,0.234,0.113,0.309c0.051,0.115,0.022,0.238-0.053,0.287c0.044,0.035,0.088,0.071,0.092,0.112
					c0.036,0.357,0.294,0.532,0.37,0.886c0.012,0.119-0.016,0.243-0.003,0.362c0.004,0.04,0.011,0.119,0.059,0.195
					c-0.027,0.124-0.187,0.14-0.171,0.299c0.12-0.012,0.287,0.052,0.338,0.167l0.008,0.08c0.009,0.079-0.019,0.203-0.007,0.322
					l0.007,0.078c0.058,0.156,0.148,0.267,0.157,0.347c0.011,0.119-0.101,0.211-0.092,0.291c0.063,0.235,0.194,0.342,0.215,0.541
					l0.012,0.12c0.047,0.074,0.051,0.115,0.136,0.146c-0.027,0.123-0.132,0.295,0.031,0.318c0.013,0.119-0.107,0.132-0.14,0.215
					c0.053,0.115,0.172,0.104,0.22,0.18l0.056,0.154c0.023,0.239-0.206,0.343-0.191,0.502c0.004,0.039,0.049,0.075,0.053,0.115
					c-0.04,0.004,0.009,0.08-0.116,0.052c0.131,0.107,0.096,0.15,0.025,0.238c0.091,0.111,0.143,0.227,0.158,0.386
					c0.013,0.119-0.076,0.048-0.107,0.132c0.016,0.159,0.199-0.02,0.22,0.179c0.004,0.04-0.032,0.084-0.068,0.127
					c0.045,0.036,0.16-0.016,0.163,0.023c0.012,0.12-0.15,0.097-0.136,0.256c0.128,0.067,0.151-0.096,0.271-0.107
					c-0.053,0.286-0.188,0.541-0.466,0.568c0.048,0.076,0.133,0.108,0.144,0.228c0.076-0.048,0.191-0.1,0.063-0.167
					c0.164,0.024,0.255,0.135,0.378,0.163c-0.103,0.171-0.02,0.202-0.003,0.362c-0.076,0.047-0.013-0.119-0.131-0.107
					c-0.081,0.008-0.072,0.088-0.196,0.059c0.064,0.236,0.274,0.335,0.34,0.569c0.031,0.318-0.148,0.537-0.16,0.82
					c-0.072,0.088-0.227,0.144-0.255,0.267c0.048,0.075,0.128,0.067,0.168,0.063c0.016,0.159-0.057,0.246-0.044,0.366
					c0.012,0.119,0.132,0.107,0.143,0.227c-0.154,0.056-0.31,0.111-0.293,0.271c-0.115,0.052-0.231,0.104-0.263,0.188l0.007,0.079
					c0.017,0.16-0.043,0.367-0.026,0.525c-0.116,0.052-0.104,0.172-0.22,0.223c0.008,0.08-0.066,0.128-0.016,0.243
					c-0.183,0.179-0.365,0.358-0.461,0.609c-0.119,0.012-0.128-0.068-0.206-0.06c-0.036,0.044,0.015,0.159,0.022,0.238
					c-0.114,0.052-0.227,0.144-0.298,0.23c-0.194,0.061-0.474,0.089-0.537,0.256c-0.163-0.024-0.23,0.104-0.306,0.151
					c-0.036,0.044-0.116,0.052-0.155,0.056c-0.12,0.012-0.247-0.056-0.327-0.048c-0.04,0.004-0.118,0.012-0.154,0.056l-0.009-0.08
					l-0.079,0.009c-0.159,0.016-0.247-0.056-0.371-0.084l-0.078,0.009c-0.12,0.012-0.191,0.099-0.311,0.111
					c-0.04,0.004-0.084-0.032-0.124-0.028c-0.079,0.009,0.088,0.072-0.031,0.083c-0.155,0.057-0.136-0.146-0.22-0.178
					c-0.127-0.068-0.155,0.056-0.242-0.016c-0.127-0.068-0.061-0.195-0.072-0.314c-0.004-0.04-0.047-0.076-0.052-0.115
					c-0.075,0.047-0.023,0.162-0.178,0.219c-0.053-0.115-0.062-0.195-0.18-0.184c-0.052-0.115,0.071-0.088,0.104-0.171
					c-0.036-0.358-0.391-0.282-0.569-0.465c-0.056-0.155,0.06-0.207,0.047-0.327c-0.043-0.035-0.235,0.064-0.362-0.004
					c-0.012-0.119-0.139-0.187-0.146-0.267l-0.009-0.079c-0.051-0.115-0.178-0.183-0.271-0.295
					c-0.188-0.664-0.398-1.166-0.502-1.798c-0.008-0.08,0.023-0.163,0.06-0.207c0.032-0.084-0.082-0.032-0.091-0.11
					c-0.085-0.435-0.256-0.939-0.299-1.377c-0.013-0.12-0.021-0.199,0.056-0.247c-0.132-0.107-0.049-0.478-0.252-0.497
					c0.023-0.164-0.024-0.239,0.044-0.367c-0.092-0.111-0.151-0.306-0.176-0.545c0.023-0.162,0.056-0.246-0.008-0.481l-0.031-0.317
					c0.023-0.164,0.047-0.327,0.035-0.446c-0.009-0.08-0.056-0.155-0.143-0.227c-0.049-0.478-0.045-0.839-0.046-1.241
					c-0.012-0.12-0.127-0.068-0.135-0.147c0.027-0.123,0.017-0.243,0.004-0.362c-0.027-0.278-0.104-0.633-0.097-0.955
					c-0.087-0.071-0.134-0.147-0.146-0.267c-0.021-0.198,0.036-0.445,0.02-0.604c-0.012-0.119-0.063-0.234-0.032-0.318
					c-0.004-0.04,0.032-0.084,0.028-0.125c-0.012-0.119-0.063-0.234-0.076-0.354c-0.004-0.039-0.011-0.119,0.023-0.162l-0.186-0.664
					l-0.077-0.756c-0.032-0.319-0.063-0.637-0.136-0.951c-0.056-0.155-0.369-0.084-0.538-0.147
					c-0.377,0.239-0.759,0.438-0.874,0.892c-0.075,0.048-0.028,0.123-0.147,0.136c-0.092,0.29-0.31,0.514-0.354,0.88
					c-0.076,0.047-0.068,0.127-0.108,0.131c0.013,0.119-0.02,0.203-0.056,0.247c0.009,0.079,0.053,0.115,0.061,0.194
					c0.021,0.199-0.083,0.37-0.191,0.502c0.005,0.039,0.093,0.111,0.084,0.031l0.009,0.079c0.012,0.119-0.012,0.282,0.004,0.442
					c0.004,0.039,0.013,0.119,0.06,0.195c-0.076,0.047-0.151,0.096-0.184,0.179c0.053,0.115,0.064,0.235,0.08,0.394
					c0.028,0.279,0.021,0.602,0.013,0.923c-0.032,0.084-0.19,0.1-0.218,0.224c0.051,0.115,0.115-0.053,0.237-0.023
					c0.021,0.198-0.015,0.242,0.009,0.48c0.012,0.12-0.191,0.101-0.137,0.255c-0.027,0.124,0.16-0.015,0.129,0.068
					c0.095,0.151,0.107,0.271,0,0.401c0.044,0.036,0.092,0.111,0.1,0.191c0.02,0.199-0.08,0.41-0.096,0.651
					c0.009,0.08,0.101,0.191,0.072,0.314c0.008,0.08-0.02,0.203-0.016,0.243c0.008,0.08,0.096,0.151,0.1,0.191l0.007,0.08
					c0.024,0.238-0.153,0.457-0.131,0.695l0.057,0.156c-0.04,0.004,0.008,0.079-0.111,0.091l0.151,0.306
					c-0.039,0.004-0.162-0.023-0.156,0.057c0.013,0.119,0.128,0.067,0.176,0.143l0.013,0.12c0.02,0.199-0.001,0.401,0.132,0.509
					c-0.068,0.128-0.093,0.291-0.156,0.458c-0.039,0.005-0.048-0.075-0.127-0.067c0.175,0.143-0.104,0.171,0.076,0.354
					c-0.117,0.051-0.1,0.21-0.216,0.262c0.021,0.199-0.003,0.362-0.071,0.489c0.036,0.359-0.056,0.649-0.139,1.02
					c-0.048,0.326-0.103,0.572-0.198,0.824l0.02,0.198c0.028,0.279-0.026,0.525-0.087,0.732c-0.08,0.008-0.071,0.088-0.195,0.06
					c-0.031,0.084-0.02,0.203-0.139,0.215c-0.04,0.406-0.297,0.633-0.64,0.828c-0.081,0.008-0.16,0.016-0.203-0.02
					c-0.084-0.032-0.032,0.084-0.116,0.052c-0.119,0.012-0.321-0.008-0.521,0.013c-0.357,0.035-0.791,0.119-1.062,0.227
					l-0.888-0.031c-0.052-0.116-0.211-0.1-0.299-0.171c-0.039,0.004-0.043-0.036-0.047-0.076c-0.084-0.031-0.296-0.132-0.383-0.202
					c-0.049-0.076-0.104-0.231-0.191-0.303c-0.003-0.04-0.087-0.071-0.131-0.107c-0.096-0.151-0.119-0.39-0.259-0.577
					c-0.052-0.115,0.024-0.163,0.056-0.247c-0.008-0.079-0.124-0.027-0.131-0.106c-0.009-0.08,0.106-0.132,0.099-0.211
					c-0.203-0.021-0.096-0.151-0.263-0.215c-0.027-0.279-0.104-0.633-0.136-0.952c-0.016-0.158-0.032-0.318-0.005-0.44
					c-0.083-0.032-0.131-0.108-0.143-0.228c-0.012-0.118,0.012-0.282,0.043-0.365c-0.095-0.151-0.071-0.314-0.198-0.383
					c-0.032-0.318-0.06-0.597-0.005-0.844c-0.056-0.154-0.12-0.39-0.144-0.628c-0.031-0.318-0.028-0.681,0.032-0.888
					c-0.088-0.071-0.151-0.306-0.041-0.397c-0.056-0.155-0.167-0.466-0.199-0.784l-0.012-0.12c-0.008-0.079,0.028-0.123,0.024-0.163
					c-0.012-0.119-0.104-0.23-0.076-0.354l0.024-0.162c-0.032-0.319-0.113-0.713-0.188-1.066c-0.003-0.04,0.032-0.085,0.028-0.124
					c-0.068-0.274-0.246-0.458-0.267-0.657c-0.009-0.08,0.02-0.203,0.051-0.287c-0.063-0.234-0.127-0.469-0.151-0.707l-0.084-0.836
					c-0.024-0.238-0.051-0.517-0.115-0.752c-0.009-0.08,0.068-0.128,0.063-0.168c-0.008-0.08-0.051-0.115-0.1-0.189
					c-0.008-0.481,0.063-0.971,0.095-1.457c0.02-0.203-0.043-0.438,0.021-0.604c0.015-0.243,0.126-0.736,0.099-1.015l-0.009-0.08
					c0.032-0.084,0.091-0.29,0.073-0.49c-0.049-0.075-0.097-0.151-0.1-0.191c0.074-0.048,0.043,0.036,0.082,0.033
					c0.096-0.251,0.068-0.529,0.123-0.775c0.111-0.092,0.18-0.22,0.243-0.387c-0.009-0.079,0.063-0.167,0.06-0.207
					c0.068-0.127,0.016-0.243,0.087-0.33c0.104-0.171,0.298-0.23,0.318-0.434c0.263-0.188,0.812-0.323,1.329-0.375
					C39.443,8.098,39.849,8.138,40.101,8.233z M41.297,24.953c0.049,0.075,0.092,0.11,0.167,0.063
					c-0.004-0.04-0.043-0.036-0.048-0.075L41.297,24.953z M47.172,17.812l0.016,0.16c0.079-0.009,0.071-0.088,0.103-0.172
					C47.251,17.804,47.247,17.765,47.172,17.812z M50.1,27.767c0.119-0.012,0.151-0.096,0.141-0.215
					C50.08,27.567,50.088,27.647,50.1,27.767z M50.327,27.623c0.004,0.04,0.008,0.08-0.032,0.084l0.12-0.012l-0.009-0.08
					L50.327,27.623z M51.754,25.832c-0.003-0.04,0.081-0.009,0.032-0.084C51.742,25.712,51.675,25.84,51.754,25.832z M52.367,23.922
					c0.202,0.02,0.099-0.211-0.021-0.199L52.367,23.922z M54.372,21.871c0.013,0.119,0.202,0.02,0.233-0.063
					C54.526,21.815,54.447,21.823,54.372,21.871z M54.679,23.327c0.044,0.035-0.032,0.084,0.016,0.159
					C54.814,23.475,54.758,23.319,54.679,23.327L54.679,23.327z"/>
				<path fill="#231F20" d="M73.027,11.278c0.114,0.034,0.219,0.105,0.372,0.15c0.038,0.012,0.027,0.05,0.065,0.061
					c0.077,0.023,0.241,0.029,0.284,0.167c1.063,0.352,1.837,0.703,2.691,1.202c0.004,0.127,0.119,0.16,0.086,0.275l0.23,0.067
					c0.054,0.1,0.119,0.16,0.087,0.275c0.191,0.056,0.185,0.221,0.365,0.314c-0.006,0.165,0.075,0.314,0.042,0.43
					c-0.083,0.142-0.198,0.108-0.347,0.189c-0.237,0.098-0.47,0.321-0.63,0.441c-0.313,0.075-0.588,0.161-0.918,0.149l-0.115-0.034
					c-0.23-0.067-0.522-0.069-0.709,0.001c-0.423-0.123-0.943-0.192-1.504-0.272c-0.099,0.055-0.253,0.01-0.313,0.073
					c-0.027,0.242-0.029,0.533-0.097,0.764c-0.045,0.153-0.079,0.269-0.217,0.313c-0.033,0.115,0.009,0.253-0.024,0.366
					c-0.082,0.143-0.182,0.197-0.238,0.389c-0.056,0.191-0.058,0.483-0.064,0.65c-0.022,0.076-0.072,0.104-0.083,0.142
					c-0.046,0.153-0.023,0.368-0.069,0.521c-0.033,0.116-0.17,0.159-0.205,0.274c-0.021,0.077-0.017,0.203-0.051,0.318
					c-0.057,0.191-0.188,0.361-0.321,0.531c-0.034,0.115,0.032,0.176,0.048,0.264c-0.205,0.273-0.187,0.779-0.495,0.98l-0.078,0.269
					c-0.101,0.345-0.217,0.603-0.308,0.91c-0.032,0.115-0.078,0.269-0.085,0.434c-0.034,0.115,0.043,0.138,0.07,0.188
					c0.005,0.126-0.071,0.104-0.104,0.219c0.042,0.138,0.047,0.264,0.002,0.417c-0.056,0.192-0.15,0.373-0.271,0.505
					c-0.007,0.165,0.02,0.214-0.091,0.307c0.094,0.11,0.032,0.176-0.013,0.33c-0.021,0.076-0.006,0.165-0.018,0.203
					c-0.022,0.077-0.083,0.143-0.144,0.208c-0.011,0.038,0.005,0.126-0.019,0.203c-0.044,0.153-0.144,0.208-0.166,0.284
					c0.005,0.127,0.108,0.198,0.125,0.287c-0.095,0.181-0.074,0.395-0.168,0.576c-0.072,0.104-0.221,0.185-0.294,0.288
					c-0.022,0.077,0.044,0.138,0.021,0.215l-0.057,0.192c-0.056,0.191-0.15,0.372-0.282,0.542c0.03,0.176,0.052,0.391-0.016,0.621
					l-0.083,0.142c0.043,0.138-0.052,0.318-0.119,0.549c-0.028,0.242,0.03,0.467-0.025,0.659c-0.022,0.077-0.094,0.181-0.193,0.235
					c-0.149,0.082-0.329-0.014-0.425,0.168c-0.202-0.018-0.34,0.025-0.531-0.031c-0.337,0.152-0.793,0.145-1.183,0.197l-0.802-0.109
					c-0.077-0.022-0.127,0.005-0.204-0.018c-0.19-0.056-0.36-0.188-0.591-0.256l-0.165-0.007c-0.142-0.083-0.312-0.216-0.504-0.272
					l-0.077-0.022c-0.082-0.148-0.163-0.298-0.294-0.419c-0.136-0.248-0.172-0.551-0.37-0.732c0.024-0.077,0.008-0.165-0.02-0.215
					c-0.19-0.347-0.4-0.908-0.277-1.331c0.033-0.115,0.12-0.132,0.027-0.241c-0.015-0.088,0.063-0.066,0.073-0.104
					c-0.055-0.099-0.06-0.226-0.025-0.341l0.123-0.422c0.021-0.076,0.099-0.055,0.122-0.131c0.032-0.115-0.082-0.149-0.049-0.265
					c0.297-0.872,0.46-1.574,0.849-2.335c0.034-0.115,0.11-0.093,0.171-0.158c-0.053-0.1,0.007-0.165,0.106-0.22
					c0.011-0.038-0.116-0.034-0.142-0.083l0.262-0.757c0.022-0.077,0.1-0.054,0.16-0.12c0.021-0.076-0.055-0.099-0.032-0.176
					c0.14-0.334,0.27-0.922,0.485-1.233c0.022-0.076-0.005-0.126,0.006-0.165c0.14-0.334,0.241-0.68,0.353-1.063
					c0.19-0.653,0.354-1.355,0.571-1.959c0.067-0.23,0.239-0.388,0.307-0.619c0.16-0.119,0.195-0.525,0.41-0.546
					c0.006-0.165,0-0.292,0.035-0.407c0.094-0.181,0.338-0.442,0.442-0.662c0.145-0.208,0.163-0.411,0.295-0.58
					c0.121-0.132,0.321-0.24,0.388-0.471c-0.306-0.381-1.106-0.49-1.373-0.859l-0.116-0.033c-0.115-0.034-0.258-0.117-0.285-0.167
					c-0.191-0.057-0.383-0.112-0.339-0.266c-0.077-0.022-0.165-0.007-0.23-0.067c-0.289-0.293-0.688-0.492-0.891-0.802l0.022-0.077
					c0.056-0.191,0.178-0.322,0.212-0.438l0.848-0.336C66.079,9.958,66.25,9.8,66.52,9.878C66.597,9.9,66.535,9.966,66.65,10
					c0.367,0.024,0.746,0.01,1.092,0.11l0.116,0.034c0.274-0.087,0.73-0.078,1.076,0.022c0.138-0.043,0.253-0.01,0.407,0.035
					l0.268,0.078l0.533,0.029c0.116,0.033,0.182,0.094,0.297,0.128c0.077,0.022,0.165,0.007,0.24,0.03l0.308,0.088
					c0.23,0.067,0.423,0.124,0.643,0.229c0.126-0.005,0.241,0.029,0.394,0.075C72.369,10.961,72.73,11.15,73.027,11.278z"/>
			</g>
			<g>
				<path fill="#231F20" d="M56.553,4.987l0.159,0.021c0.06,0.027,0.114,0.034,0.161,0.021c0.106,0.016,0.307-0.016,0.593-0.094
					l0.265,0.124c0.011,0.041,0.04,0.054,0.09,0.04c0.104,0.015,0.25,0.074,0.432,0.176c0.184,0.104,0.357,0.176,0.522,0.218
					c0.284,0.099,0.454,0.16,0.516,0.187c0.079,0.109,0.19,0.24,0.337,0.396c0.144,0.155,0.228,0.274,0.25,0.355l0.065,0.242
					l0.129,0.483L60.12,7.34c0.012,0.041,0.039,0.098,0.084,0.173s0.056,0.156,0.03,0.251c0.043,0.161,0.05,0.288,0.025,0.383
					c0.033,0.121,0.029,0.305-0.006,0.555c-0.037,0.247-0.043,0.411-0.021,0.492l-0.056,0.081l-0.074,0.02
					c0.021,0.079,0.006,0.214-0.046,0.4l0.033,0.121c-0.027,0.095-0.055,0.232-0.083,0.412c-0.029,0.179-0.038,0.289-0.027,0.33
					l-0.072,0.02c0.054,0.203,0.04,0.336-0.045,0.404c0.005,0.216-0.042,0.519-0.141,0.912c-0.102,0.395-0.159,0.661-0.174,0.795
					c-0.086,0.065-0.135,0.176-0.143,0.33c-0.01,0.154-0.034,0.259-0.071,0.311c0.048-0.013,0.058,0.028,0.034,0.123
					c-0.038,0.051-0.108,0.267-0.215,0.642l0.016,0.061l-0.054,0.079c-0.032,0.269-0.075,0.498-0.126,0.682l-0.127,0.1
					c-0.187,0.268-0.377,0.428-0.567,0.479L57.88,15.67l-0.481-0.067c0.073-0.107,0.095-0.221,0.063-0.338l-0.082-0.306
					c0.074-0.106,0.102-0.198,0.079-0.28l-0.032-0.12c0.074-0.108,0.101-0.199,0.08-0.281c0.101-0.2,0.124-0.403,0.069-0.605
					l-0.017-0.059l-0.032-0.121l0.038-0.143c-0.011-0.04-0.021-0.081-0.031-0.119l0.057-0.08c-0.045-0.162-0.035-0.315,0.029-0.461
					l0.039-0.143c-0.022-0.079-0.037-0.141-0.049-0.182c-0.012-0.04-0.004-0.106,0.023-0.201c0.026-0.094,0.028-0.183,0.008-0.261
					c-0.033-0.121-0.038-0.23-0.011-0.32c-0.011-0.043-0.003-0.108,0.025-0.203c0.028-0.267,0.069-0.409,0.117-0.422
					c-0.161-0.215-0.168-0.432-0.019-0.645l-0.072,0.02c0.004-0.173-0.032-0.403-0.107-0.687l0.056-0.08l-0.112-0.422
					c0.034-0.054,0.047-0.102,0.036-0.142L57.44,8.58l0.056-0.081l-0.017-0.061c-0.032-0.119-0.028-0.208,0.009-0.261
					c-0.206-0.379-0.33-0.647-0.374-0.809c-0.116-0.055-0.202-0.185-0.256-0.387c-0.012-0.038-0.042-0.053-0.089-0.041L56.666,6.84
					l-0.081-0.302c-0.157-0.001-0.255-0.084-0.298-0.246c-0.098,0.026-0.215-0.028-0.354-0.164c-0.144,0.038-0.22,0.037-0.23-0.004
					c-0.118-0.053-0.198-0.163-0.243-0.325c-0.023-0.468,0.251-0.691,0.823-0.674C56.317,5.073,56.409,5.025,56.553,4.987z"/>
			</g>
		</g>
		<g>
			<path fill="#231F20" d="M10.439,107.768c0.073,0,0.073,0.109,0.11,0.109c0.11,0.037,0.221,0,0.331,0.074
				c0.073,0.035,0.073,0.221,0.257,0.146c0.037,0.184,0.147,0.293,0.258,0.404c0.073,0.258,0.11,0.625,0.294,0.809
				c0,0.184,0.073,0.33,0.073,0.551c0,0.037,0,0.111-0.036,0.184c0,0.295,0.073,0.553,0.109,0.773v0.221
				c0,0.293,0.037,0.588,0.037,0.809c0,0.146,0,0.293-0.073,0.404c0.036,0.514,0.036,0.697,0.036,1.248
				c0,0.111,0.147,0.074,0.185,0.186c0.478,0.109,0.992,0.184,1.396,0.477h0.11c0.184,0,0.257,0.111,0.367,0.184
				c0.037,0.148,0.074,0.258,0.221,0.332c-0.073,0.184,0.073,0.184,0.073,0.33c0.074,0.111,0.11,0.258,0.185,0.367
				c0.036,0.074,0.073,0.111,0.073,0.184c0,0.221-0.11,0.221-0.184,0.404c-0.147,0-0.221,0.111-0.331,0.148
				c-0.037,0.037-0.073-0.037-0.147-0.037c-0.036,0.037-0.073,0.109-0.11,0.109c-0.109,0-0.22-0.035-0.294,0
				c-0.036,0-0.11,0-0.11,0.037c-0.073,0-0.073-0.037-0.146-0.037s-0.11,0.111-0.184,0.148c-0.074,0.035-0.258,0.035-0.331,0.072
				c-0.147,0-0.294-0.072-0.478-0.072h-0.074c-0.036,0-0.11,0.072-0.184,0.072c-0.184,0.037-0.331,0-0.478,0
				c-0.037,0-0.037,0.074-0.073,0.074c0.036,0.221,0.073,0.404-0.074,0.514c0.037,0.148,0.11,0.332,0.11,0.553
				c0,0.184-0.036,0.33,0,0.514c-0.036,0.074-0.073,0.111-0.11,0.146c0.074,0.111,0.11,0.295,0.11,0.479s-0.036,0.367-0.073,0.551
				c0,0.148,0.037,0.148,0.037,0.258c-0.037,0.184-0.074,0.479-0.185,0.662v0.109c0,0.111-0.036,0.221-0.036,0.295
				c0,0.109,0,0.221,0.036,0.295c0,0.109-0.036,0.146-0.073,0.219c0.11,0.332,0.037,0.773,0.11,1.178
				c0,0.146,0.073,0.367,0.073,0.588v0.109c-0.036,0.074-0.073,0.148-0.073,0.184c0,0.111,0.037,0.186,0.037,0.258
				c-0.037,0.146-0.11,0.258-0.147,0.367v0.111c0,0.184,0.037,0.293,0.11,0.477c0.037,0,0.073,0.037,0.147,0.037
				c0.294,0,0.551-0.33,0.809-0.514c0.073-0.111,0.146-0.221,0.294-0.258c0.33-0.441,0.735-0.771,1.029-1.213
				c0.036,0,0.036-0.074,0.11-0.037c0.036-0.072,0.036-0.146,0.036-0.221c0.184-0.146,0.331-0.367,0.479-0.551
				c0.109-0.221,0.33-0.367,0.44-0.551c0.074,0,0.11,0,0.147-0.037c0.036-0.074,0.036-0.146,0.073-0.184
				c0.331-0.295,0.552-0.736,0.809-1.141c0.073-0.072,0.11-0.072,0.147-0.146c0.073-0.037,0.11-0.146,0.146-0.184
				c0.037-0.074,0.11-0.074,0.11-0.111c0.074-0.035,0.074-0.109,0.11-0.146l0.258-0.221c0.073-0.109,0.146-0.256,0.294-0.404
				c0-0.072,0.073-0.072,0.11-0.146l0.404-0.441c0.146-0.109,0.294-0.221,0.478-0.293c0.037-0.037,0.073-0.037,0.11-0.037
				c0.147,0,0.294,0.109,0.367,0.184c0.185,0.109,0.331,0.293,0.331,0.625v0.109c-0.037,0.404-0.257,0.588-0.331,0.992
				c-0.11,0.332-0.367,0.479-0.478,0.809c-0.073,0.037-0.11,0.111-0.221,0.111c0,0.074,0,0.184-0.073,0.258
				c-0.258,0.256-0.441,0.588-0.698,0.809c0,0.184-0.11,0.221-0.11,0.33c-0.073,0.037-0.147,0.111-0.184,0.146
				c-0.037,0.111-0.11,0.221-0.147,0.332c-0.146,0.072-0.221,0.184-0.294,0.33c-0.073,0.111-0.184,0.221-0.221,0.367
				c-0.11-0.037-0.11,0.221-0.257,0.184c-0.037,0.221-0.11,0.369-0.258,0.404c-0.11,0.404-0.294,0.773-0.588,0.957
				c-0.037,0.072-0.037,0.184-0.11,0.293c-0.073,0-0.073,0.074-0.147,0.111c-0.184,0.367-0.367,0.734-0.698,0.771
				c-0.367,0.184-0.478,0.771-0.919,0.809c-0.073,0-0.073,0.111-0.146,0.146c-0.185,0-0.294,0.037-0.368,0.184
				c-0.073,0-0.073,0-0.11-0.035c-0.11,0.184-0.294,0.109-0.44,0.146c-0.11,0.037-0.258,0.146-0.441,0.146
				c-0.441,0-0.846-0.184-1.177-0.404c-0.367-0.258-0.771-0.514-0.992-0.955c0-0.074-0.037-0.074,0-0.184
				c-0.221-0.074-0.257-0.332-0.367-0.588c-0.11-0.221-0.221-0.369-0.294-0.516c-0.074-0.184-0.185-0.404-0.221-0.625
				c-0.037-0.146-0.037-0.258-0.074-0.441c-0.036-0.146-0.146-0.404-0.146-0.551c-0.037-0.258,0-0.514-0.073-0.734
				c0-0.074,0.073-0.074,0.036-0.184c-0.036-0.148-0.036-0.295-0.036-0.479c0-0.404,0.036-0.883,0-1.176
				c0-0.111,0.073-0.111,0.073-0.184v-0.111c0-0.109-0.037-0.184-0.037-0.404c0-0.146,0.037-0.33,0.037-0.551v-0.184
				c0-0.111,0.073-0.148,0.073-0.258c0-0.146-0.036-0.295-0.036-0.404c0.036-0.146,0.073-0.221,0.073-0.332
				c0.036-0.551,0-1.102,0.221-1.543c-0.037-0.221-0.074-0.479-0.074-0.699c0-0.109,0-0.219,0.074-0.33v-0.146
				c0-0.184,0.036-0.404,0.11-0.441c-0.037-0.074-0.074-0.111-0.074-0.146c0.074-0.184,0-0.588,0.147-0.699
				c0-0.037-0.073-0.074-0.037-0.146c0-0.148,0.074-0.184,0.11-0.295c-0.036-0.072-0.036-0.184-0.036-0.258
				c0-0.256,0.073-0.514,0.146-0.66c0.073-0.367,0.11-0.736,0.221-0.992c0-0.186,0.11-0.258,0.11-0.369
				c0.036-0.072,0.036-0.146,0.036-0.184c0-0.441,0.221-0.662,0.221-1.139c0.074-0.074,0.074-0.146,0.147-0.184
				c0-0.037-0.037-0.074-0.037-0.111c0-0.109,0.074-0.221,0.11-0.367c0.073-0.146,0.073-0.33,0.11-0.404
				c0.073-0.184,0.184-0.295,0.258-0.441c0.036-0.037,0-0.146,0-0.221c0.073-0.037,0.146-0.109,0.146-0.146
				c0.221,0,0.331-0.109,0.441-0.109H10.439z"/>
			<path fill="#231F20" d="M22.496,114.346c0.185,0,0.441,0,0.699,0.037c0.146,0.037,0.33,0.037,0.478,0.074
				c0.146,0.072,0.331,0.221,0.551,0.293h0.147c0.294,0,0.515,0.148,0.771,0.258c0.258,0.516,0.956,0.699,1.25,1.287
				c0.11,0.037,0.074,0.221,0.221,0.258c-0.037,0.035-0.037,0.072-0.037,0.109c0,0.074,0.074,0.146,0.037,0.295
				c0,0.035,0.073,0.109,0.073,0.184c0.037,0.037,0.037,0.109,0,0.109c0.147,0.258,0.221,0.588,0.221,0.992
				c-0.036,0.148-0.11,0.258-0.11,0.404c0,0.037,0.037,0.074,0.037,0.111c0.073,0.146,0.184,0.221,0.367,0.221h0.11
				c0.368-0.258,0.809-0.295,1.213-0.516h0.258c0-0.037,0.11-0.037,0.11-0.037c0.257-0.184,0.551-0.293,0.809-0.477
				c0.257-0.148,0.551-0.332,0.809-0.516l0.404-0.221c0.221-0.184,0.441-0.33,0.735-0.439c0.146-0.074,0.294-0.074,0.478-0.186
				c0.184-0.072,0.184-0.146,0.441-0.221c0.146-0.072,0.367-0.219,0.588-0.219c0.11,0,0.221,0,0.331,0.109
				c0.073,0.074,0.146,0.184,0.146,0.33c0,0.074-0.036,0.111-0.036,0.148c-0.073,0.221-0.147,0.33-0.404,0.514
				c-0.074,0.111-0.037,0.258-0.11,0.332c-0.147,0.146-0.331,0.256-0.404,0.477c-0.073,0-0.11,0.037-0.221,0
				c-0.073,0.184-0.221,0.221-0.258,0.367c-0.257,0-0.257,0.186-0.44,0.221c-0.147,0.258-0.479,0.332-0.662,0.588
				c-0.146-0.035-0.184,0.074-0.257,0.037c-0.037,0.111-0.11,0.184-0.184,0.258c-0.331,0.074-0.441,0.367-0.772,0.404
				c-0.037,0.037-0.073,0.111-0.073,0.184c-0.258,0.074-0.404,0.258-0.698,0.295c-0.11,0.109-0.221,0.109-0.368,0.184
				c-0.146,0.109-0.515,0.109-0.625,0.293c-0.22,0-0.33,0.111-0.515,0.148c-0.11,0.109-0.257,0.221-0.478,0.293
				c-0.184,0.037-0.478,0-0.661,0.037c-0.11,0-0.221,0.074-0.368,0c-0.073,0.037-0.11,0.074-0.146,0.146
				c-0.11,0-0.074-0.072-0.11-0.072c-0.258,0.146-0.368,0.404-0.515,0.588c-0.515,0.258-0.735,0.734-1.25,0.992
				c-0.073,0.146-0.258,0.184-0.331,0.33c-0.404,0.148-0.809,0.332-1.213,0.516c-0.073-0.074-0.147,0-0.258-0.037
				c-0.146,0.109-0.367,0.037-0.551,0.109c-0.037-0.072-0.11-0.035-0.147-0.072c-0.698,0.037-1.323-0.221-1.69-0.516
				c-0.147-0.035-0.294-0.146-0.368-0.256c-0.073-0.037-0.109,0-0.146-0.037c0-0.074-0.11-0.074-0.147-0.148l-0.036-0.035
				c-0.037-0.037-0.11,0-0.147-0.037s-0.037-0.111-0.11-0.111c-0.146-0.221-0.44-0.439-0.44-0.697
				c-0.147-0.037-0.11-0.184-0.221-0.258c-0.11-0.258-0.258-0.404-0.368-0.662c-0.221-0.109-0.367-0.404-0.367-0.625
				c-0.184-0.221-0.258-0.477-0.258-0.771v-0.074c0-0.072-0.036-0.109-0.036-0.146l0.036-0.258v-0.146
				c0-0.109,0.074-0.146,0.074-0.184c0-0.184-0.037-0.367,0-0.514c0-0.074,0.073-0.148,0.11-0.258
				c0.109-0.332,0.257-0.699,0.404-0.955c0.073-0.074,0.146-0.111,0.184-0.186c0-0.035,0.073-0.072,0.073-0.146
				c0.073-0.037,0.073-0.072,0.184-0.072c0.147-0.332,0.441-0.479,0.625-0.811c0.294-0.109,0.441-0.477,0.809-0.551
				c0.074-0.221,0.294-0.33,0.441-0.514c0.073-0.037,0.147-0.148,0.257-0.221c0.11-0.037,0.258-0.037,0.368-0.074
				c0.184-0.074,0.331-0.184,0.551-0.258h0.331c0.331,0,0.404-0.072,0.625-0.072C22.386,114.273,22.423,114.346,22.496,114.346z
				 M20.401,119.934c-0.11,0.258-0.073,0.551-0.147,0.809c0.074,0.074,0.074,0.258,0.184,0.295c-0.109,0.109,0,0.184,0,0.367
				c0.185,0.037,0.221,0.146,0.295,0.221c0.257,0,0.515-0.037,0.771,0c0.184-0.258,0.662-0.295,0.956-0.516
				c0.036-0.072,0.036-0.109,0-0.221c-0.147-0.109-0.368-0.109-0.515-0.146c-0.037-0.037-0.074-0.109-0.147-0.109
				c-0.036-0.037-0.146-0.037-0.184-0.037c-0.037-0.037-0.11-0.184-0.258-0.184H21.32c-0.037,0-0.037-0.037-0.073-0.074
				c-0.037,0-0.11,0-0.147-0.037l-0.073-0.109c-0.037-0.037-0.11-0.037-0.147-0.037c-0.11-0.074-0.184-0.221-0.367-0.221H20.401z
				 M22.386,116.773c-0.11,0.035-0.184,0.146-0.257,0.184c-0.184,0-0.331,0.221-0.478,0.404v0.109
				c-0.147,0.146-0.221,0.367-0.441,0.441c0.037,0.146,0.184,0.258,0.221,0.367l0.11,0.184c0.073,0.148,0.33,0.184,0.367,0.367
				c0.147,0.037,0.331,0.111,0.441,0.221c0.221,0.074,0.515,0.184,0.661,0.295c0.147,0,0.185,0.074,0.294,0.109
				c0.147,0.037,0.295,0.111,0.441,0.111c0.11,0,0.184-0.037,0.258-0.074c0.11-0.258,0.294-0.477,0.294-0.771v-0.109
				c0.073-0.111,0.11-0.186,0.11-0.295c0-0.111-0.037-0.258-0.037-0.404c0-0.074,0.037-0.221,0.037-0.33v-0.074
				c-0.037-0.146-0.147-0.221-0.185-0.33c-0.036-0.148-0.073-0.221-0.109-0.258c-0.147-0.184-0.919-0.367-1.287-0.295
				C22.644,116.662,22.496,116.773,22.386,116.773z"/>
			<path fill="#231F20" d="M40.69,115.045c0.036,0,0.073-0.037,0.11-0.037c0.036,0.037,0.11,0.037,0.146,0.074
				c0.221,0.037,0.589,0.109,0.735,0.258c0.037,0.072,0.073,0.146,0.147,0.219c0.11,0.111,0.221,0.074,0.257,0.221
				c0.073,0.111,0,0.184,0.11,0.258c-0.073,0.111-0.073,0.221-0.073,0.295c0,0.256,0.11,0.514,0.073,0.734
				c0,0.037-0.037,0.037-0.037,0.111c-0.036,0.109-0.036,0.293-0.073,0.367l-0.073,0.072v0.148c0,0.146,0.037,0.293,0.073,0.33
				c0.037,0.037,0,0.037-0.036,0.074c-0.037,0.072,0.073,0.035,0.036,0.109c-0.036,0.332-0.036,0.699-0.146,0.92
				c0.036,0.072,0.036,0.109,0.036,0.184c0,0.146-0.036,0.33-0.073,0.441c0.073,0.109,0.11,0.256,0.11,0.404
				c0,0.109-0.037,0.256-0.11,0.33c0.073,0.146,0.037,0.295,0.037,0.404c0,0.037,0,0.109,0.036,0.146v0.258
				c0,0.184,0,0.404,0.147,0.551v0.074c0,0.109,0.11,0.184,0.184,0.33c0.11,0.037,0.221,0.037,0.331,0.037
				c0.551,0,1.029-0.33,1.617-0.404c0.184-0.221,0.625-0.258,0.882-0.477c0.404-0.037,0.699-0.441,1.104-0.59
				c0.036-0.072,0.073-0.035,0.146-0.072c0.11-0.074,0.221-0.184,0.294-0.258c0.221-0.037,0.368-0.184,0.625-0.221
				c0.11-0.109,0.258-0.146,0.441-0.258c0.073-0.035,0.146-0.109,0.221-0.109c0.257-0.111,0.515-0.146,0.809-0.184
				c0.073-0.037,0.11-0.074,0.184-0.074c0.073-0.037,0.184-0.037,0.257-0.037c0.368,0,0.589,0.295,0.589,0.588
				c0,0.221-0.147,0.479-0.441,0.553c-0.073,0.037,0.037,0.072,0,0.146c-0.184,0.184-0.294,0.404-0.588,0.516
				c-0.147,0.109-0.184,0.33-0.368,0.33c-0.073,0.33-0.478,0.367-0.734,0.514c0,0.184-0.147,0.258-0.258,0.404
				c-0.184,0-0.294,0.148-0.404,0.295c-0.147,0.037-0.221,0.109-0.294,0.221c-0.184,0-0.221,0.109-0.331,0.184
				c-0.184,0-0.184,0.146-0.331,0.146c-0.146,0.148-0.294,0.221-0.44,0.367h-0.147c-0.11,0.148-0.294,0.258-0.441,0.369
				c-0.478,0.035-0.551,0.404-0.955,0.514c-0.037,0.037-0.074,0.037-0.147,0.074c-0.221,0.037-0.44,0.072-0.588,0.146h-0.147
				c-0.11,0-0.11,0.074-0.184,0.111c-0.257,0.035-0.404,0-0.625,0.035c-0.036-0.072-0.184-0.035-0.184-0.109
				c-0.221-0.037-0.367-0.074-0.404-0.221c-0.037,0-0.11,0-0.11,0.037c-0.11-0.037-0.257-0.037-0.294-0.146
				c-0.404-0.074-0.515-0.406-0.846-0.479c0-0.074-0.073-0.074-0.036-0.146c-0.258-0.074-0.331-0.332-0.515-0.404
				c-0.037-0.037-0.074-0.111-0.074-0.186c-0.257-0.035-0.257-0.33-0.404-0.439l-0.257,0.109c0,0.221-0.11,0.295-0.294,0.33
				c-0.074,0.037,0.036,0.074,0.036,0.148c-0.073,0.109-0.184,0.184-0.33,0.256c-0.037,0.148-0.147,0.186-0.147,0.295h-0.073
				c-0.184,0-0.258,0.074-0.404,0.109c-0.331,0.295-0.809,0.625-1.508,0.516c-0.073,0.074-0.22,0.037-0.33,0.074
				c-0.221,0-0.368-0.148-0.589-0.184l-0.367,0.035c-0.073,0-0.147,0-0.221-0.035c-0.073-0.037-0.146-0.111-0.257-0.186
				c-0.221-0.072-0.404-0.221-0.625-0.367c-0.441-0.293-0.735-0.625-1.066-1.066c-0.11-0.184-0.257-0.256-0.294-0.477l-0.146-0.111
				c-0.11-0.221-0.368-0.441-0.368-0.734v-0.111c-0.11-0.109-0.184-0.33-0.184-0.514s-0.11-0.367-0.11-0.516
				c0-0.072,0.037-0.146,0.11-0.219c-0.073,0-0.073-0.074-0.073-0.148c0.036-0.072,0-0.146,0.11-0.146
				c-0.074-0.074-0.11-0.146-0.11-0.221c0-0.184,0.146-0.367,0.184-0.441c0.036-0.109-0.037-0.109-0.037-0.184
				c0.037-0.293,0.184-0.514,0.258-0.809c0.073-0.184,0.184-0.33,0.257-0.479v-0.109c0-0.184,0.073-0.33,0.184-0.404
				c0.037-0.258,0.185-0.479,0.441-0.625c0-0.074,0.073-0.074,0-0.184c0.221-0.037,0.221-0.258,0.294-0.404
				c0.073-0.111,0.184-0.184,0.184-0.332l0.147-0.035c0.037-0.369,0.367-0.441,0.478-0.773h0.074c0.146,0,0.294-0.109,0.44-0.109
				h0.11c0.147,0,0.368-0.037,0.552,0c0.036,0,0.146,0.074,0.257,0.074c0.074,0.072,0.184,0.109,0.221,0.146l0.037,0.074
				c0.036,0,0.11,0,0.11,0.035c0.036,0.037,0.036,0.111,0.073,0.148c0.037,0.109,0.147,0.146,0.184,0.221
				c0,0.293,0.037,0.551,0.184,0.66c-0.073,0.148,0.037,0.258,0.037,0.369c0,0,0,0.035-0.037,0.072
				c0.074,0.037,0.11,0.146,0.147,0.184c0.037,0.295,0,0.516,0.184,0.625c0,0.037-0.037,0.074-0.037,0.146
				c0,0.148,0.074,0.295-0.036,0.369c0.036,0.109,0,0.293,0.073,0.367c-0.073,0.184-0.184,0.404-0.184,0.662
				c0,0.035,0.037,0.109,0.037,0.184c-0.11,0.109-0.147,0.293-0.221,0.477c-0.037,0.037-0.074,0.074-0.147,0.074
				c0,0.074,0,0.074,0.037,0.184c0.11,0.074,0.146,0.184,0.146,0.332c0,0.146-0.036,0.293-0.11,0.404
				c0.11,0.219,0.11,0.514,0.11,0.918c0.147-0.109,0.185-0.293,0.331-0.33c0-0.148,0.037-0.258,0.147-0.332
				c-0.037-0.072,0.036-0.072,0.036-0.109c0.147-0.111,0.11-0.295,0.294-0.404c0-0.184,0.185-0.258,0.221-0.441
				c0.11-0.074,0.147-0.221,0.294-0.367c0-0.037-0.036,0-0.073-0.037c0-0.037,0.073-0.037,0.11-0.037
				c0.11-0.258,0.221-0.479,0.258-0.809c0.073-0.074,0.146-0.109,0.109-0.293c0.074,0,0.11-0.037,0.147-0.111
				c0.037-0.109-0.073-0.109-0.073-0.221v-0.074c0-0.146-0.037-0.256,0.11-0.293c-0.037-0.037-0.037-0.111-0.037-0.146
				c0-0.221,0.11-0.441,0.11-0.625v-0.074c0.11-0.109,0.221-0.293,0.331-0.441c-0.037-0.072-0.037-0.109-0.037-0.184
				c0-0.146,0.073-0.258,0.184-0.33c-0.036-0.074-0.036-0.148-0.036-0.221c0-0.184,0.11-0.441,0.22-0.588
				c0.11-0.037,0.147,0.109,0.258,0.109c0.073-0.037-0.037-0.109,0.037-0.146c0.11-0.074,0.11-0.037,0.257,0
				c0.147-0.111,0.11-0.184,0.331-0.221c0.073,0,0.11-0.074,0.184-0.074C40.47,114.971,40.58,115.045,40.69,115.045z"/>
			<path fill="#231F20" d="M53.85,114.529c0.184,0,0.367,0.111,0.588,0.148c0.146,0,0.294-0.074,0.404-0.074
				s0.184,0.037,0.221,0.111c0.478,0,0.771,0.404,1.176,0.588c0.147,0.184,0.368,0.367,0.404,0.625
				c0.037,0.072-0.036,0.072-0.036,0.109c0.11,0.146,0.146,0.295,0.146,0.479c0,0.258-0.11,0.588-0.184,0.846
				c-0.11,0.072-0.146,0-0.257,0.072c0,0.037-0.037,0.221-0.074,0.295h-0.11c-0.146,0-0.294-0.037-0.367-0.146
				c-0.073,0.035-0.11,0.072-0.257,0c-0.074-0.037-0.074-0.111-0.074-0.186c-0.11,0.111-0.257,0.111-0.331,0.148
				c-0.109-0.037-0.257-0.074-0.367-0.074s-0.184,0.037-0.221,0.111c-0.036-0.037-0.073-0.111-0.146-0.111
				c-0.331,0.037-0.515,0.295-0.846,0.33c-0.184,0.148-0.221,0.516-0.441,0.553c-0.073,0.146-0.221,0.33-0.331,0.551
				c-0.073,0.146-0.184,0.146-0.184,0.33c0,0.148,0.037,0.186,0.074,0.258l-0.037,0.146c0,0.111,0.073,0.186-0.037,0.332
				c0.074,0.184,0.11,0.479,0.258,0.588c-0.037,0.037-0.037,0.109-0.037,0.184c0,0.146,0.073,0.367,0.184,0.404
				c0.331,0.184,0.552,0.332,1.104,0.404c0.073,0,0.146-0.037,0.22-0.037c0.074,0,0.147,0.037,0.258,0.037s0.221-0.072,0.404-0.072
				c0.11,0.035,0.257,0.072,0.404,0.072c0.221,0,0.478-0.037,0.698-0.072c0.258-0.074,0.478-0.074,0.625-0.186h0.11
				c0.257,0,0.441-0.109,0.625-0.256c0.036,0,0.11-0.037,0.221-0.037c0.11-0.037,0.146-0.146,0.221-0.184
				c0.404-0.037,0.734-0.184,1.103-0.258c0.11-0.074,0.221-0.146,0.367-0.146c0.221-0.184,0.478-0.258,0.772-0.295
				c0.11-0.037,0.22-0.146,0.33-0.146h0.074c0,0.037,0,0.074,0.036,0.074h0.147c0.257,0,0.257,0.184,0.478,0.184
				c0.037,0.109,0.147,0.109,0.221,0.184c0.073,0.072,0,0.293,0.147,0.293c0,0.037-0.037,0.074-0.037,0.111
				c0,0.221,0.073,0.441-0.147,0.477c0,0.148-0.073,0.148-0.073,0.295c-0.146,0.037-0.221,0.146-0.331,0.146
				c-0.184,0.148-0.404,0.148-0.515,0.332c-0.11,0-0.184,0.035-0.294,0.035c-0.036,0.037,0.037,0.037-0.073,0.111
				c-0.184,0-0.294,0.146-0.367,0.258c-0.11,0-0.185,0.109-0.331,0.109c-0.11,0.221-0.368,0.295-0.552,0.33
				c-0.367,0.221-0.735,0.479-1.176,0.59c-0.037,0.035-0.074,0.072-0.074,0.146c-0.11-0.037-0.184,0-0.22-0.037
				c-0.331,0.184-0.625,0.295-0.956,0.441c-0.073-0.037-0.147-0.037-0.258-0.074c-0.146,0.111-0.22,0.221-0.33,0.295H55.54
				c-0.11,0-0.221,0.037-0.294,0.109c-0.147,0-0.221,0.074-0.294,0.074c-0.184,0-0.331-0.037-0.515-0.037
				c-0.073,0.037-0.184,0.146-0.258,0.146h-0.073c-0.221,0-0.478-0.072-0.698-0.072h-0.073c-0.037,0-0.11,0-0.184,0.072
				c-0.147-0.035-0.405,0-0.589-0.072c-0.073,0-0.184-0.111-0.294-0.184c-0.11-0.037-0.331-0.037-0.441-0.111
				c-0.478-0.146-0.955-0.441-1.103-0.846c-0.257-0.072-0.404-0.109-0.44-0.33c-0.479-0.221-0.589-0.662-0.846-1.029
				c0-0.109-0.037-0.146-0.037-0.221c-0.036-0.146-0.146-0.221-0.146-0.33c-0.147-0.184-0.185-0.404-0.295-0.662
				c-0.036-0.184-0.146-0.258-0.146-0.516l-0.11-0.697c0-0.111-0.037-0.146,0-0.258c0-0.074-0.037-0.146,0-0.258
				c0-0.035,0.037-0.146,0.037-0.221v-0.109c0.036-0.184,0.036-0.33,0.073-0.479c0.037-0.146,0.11-0.293,0.146-0.441
				c0.074-0.184,0.037-0.293,0.074-0.477c0-0.074,0.11-0.146,0.221-0.295c0.184-0.221,0.294-0.367,0.551-0.514
				c0.184-0.184,0.294-0.367,0.552-0.367h0.073c0.331-0.295,0.588-0.59,0.919-0.883h0.11c0.258,0,0.478-0.111,0.625-0.258
				c0.441-0.037,0.771-0.146,1.029-0.404c0.221-0.037,0.367-0.074,0.588-0.074H53.85z"/>
			<path fill="#231F20" d="M68.11,103.502c0.11,0.037,0.184,0.148,0.294,0.148c0.037,0,0.073-0.037,0.11-0.037
				c0.037,0.072,0.147,0.109,0.294,0.109c0.11,0,0.221-0.037,0.294-0.037c0.147,0.148,0.331,0.258,0.479,0.479
				c0.404,0,0.404,0.404,0.809,0.404c0.11,0.332,0.478,0.479,0.661,0.699c0.037,0.367,0,0.588,0.185,0.809l-0.037,0.146
				c0,0.184,0.073,0.33,0.073,0.516c0,0.072,0,0.184-0.073,0.256l0.11,0.258c0,0.111-0.11,0.146,0,0.221
				c-0.073,0.074-0.073,0.184-0.073,0.33v0.332c-0.037,0.072-0.074,0.072-0.074,0.109c-0.073,0.258-0.036,0.516-0.036,0.736
				c0,0.146,0,0.256-0.074,0.367c-0.036,0.109,0.074,0.072,0.037,0.146c0,0.221-0.11,0.516-0.147,0.809c0,0.295,0,0.441-0.184,0.588
				c0.037,0.074,0.037,0.111,0.037,0.221c0,0.221-0.11,0.479-0.258,0.625c0.11,0.846-0.588,1.176-0.588,2.021
				c-0.037,0.037-0.037,0.074-0.11,0.074c0,0.258-0.146,0.404-0.146,0.625v0.072c-0.074,0.111-0.185,0.148-0.295,0.221
				c0,0.184-0.146,0.258-0.146,0.479c-0.331,0.146-0.294,0.588-0.662,0.662c0,0.109-0.073,0.221-0.11,0.293
				c0.074,0.111,0.074,0.258,0,0.369c0.11,0.035,0.295,0.035,0.441,0c0.147,0,0.552-0.037,0.846-0.037h0.221
				c0.184,0,0.331,0.146,0.515,0.146c0.184,0.295,0.625,0.295,0.735,0.588c0.22,0.074,0.44,0.332,0.515,0.551
				c0,0.037-0.037,0.074-0.037,0.148c0,0.146,0.073,0.146-0.037,0.256c0,0.074,0.037,0.111,0.074,0.148
				c-0.11,0.146-0.11,0.477-0.147,0.588c0,0.037,0.11,0,0.147,0.037c0,0.367-0.037,0.918-0.221,1.25
				c0,0.146,0.146,0.184,0.184,0.256v0.111c0,0.146-0.037,0.221-0.037,0.33c0,0.037,0,0.074,0.037,0.146
				c-0.073,0.074-0.184,0.111-0.221,0.258c0.037,0.074,0.11,0.111,0.147,0.184c-0.037,0.295,0.036,0.516,0,0.736
				c0,0.072-0.037,0.109-0.037,0.184c0,0.109,0.037,0.221,0.037,0.33c0,0.074,0,0.111-0.037,0.184c0,0.111,0.11,0.111,0.184,0.184
				c0,0.186,0.037,0.369,0.037,0.553c0,0.146-0.037,0.293-0.184,0.367c0,0.109,0.073,0.146,0.184,0.184
				c0.404-0.258,0.771-0.588,1.103-0.918c0.184-0.037,0.257-0.186,0.404-0.295c0.037-0.074,0.184-0.111,0.147-0.184
				c0.073,0,0.073-0.037,0.11-0.037c0.109-0.258,0.404-0.295,0.514-0.551c0.037-0.037,0.11-0.037,0.147-0.037
				c0-0.221,0.184-0.258,0.258-0.404c0.184-0.037,0.22-0.221,0.404-0.258c0.184-0.184,0.44-0.293,0.661-0.441
				c0.184-0.146,0.368-0.367,0.588-0.477c0.185-0.332,0.479-0.588,0.735-0.846c0.441-0.148,0.809-0.367,1.25-0.553
				c0.184,0.037,0.367,0.037,0.478,0.148c0.074,0,0.11-0.037,0.184-0.037c0.258,0.184,0.368,0.551,0.589,0.771
				c-0.074,0.221,0.036,0.441-0.037,0.699c-0.294,0.146-0.588,0.33-0.625,0.734c-0.11,0-0.073,0.111-0.184,0.074
				c0,0.258-0.257,0.293-0.367,0.477c0,0.037,0.036,0.037,0.073,0c0,0.221-0.331,0.258-0.331,0.516c-0.11,0-0.146,0.074-0.257,0.037
				c-0.037,0.221-0.331,0.256-0.368,0.477h-0.184c-0.073,0.186-0.11,0.404-0.331,0.441c-0.073,0.074-0.036,0.111-0.073,0.148
				c-0.073,0-0.147,0.072-0.221,0.072c-0.036,0.221-0.184,0.295-0.294,0.441c-0.147-0.037-0.221,0.037-0.331,0.074
				c0.074,0.035,0.037,0.146,0.037,0.221c-0.11,0.072-0.331,0.072-0.441,0.221c-0.073,0.035-0.11,0.072-0.184,0.035
				c-0.037,0.074,0.037,0.074,0,0.184c-0.073,0.037-0.184,0-0.257-0.035c0,0.109-0.037,0.109-0.037,0.221
				c-0.11,0.035-0.147,0.109-0.294,0.109c-0.368,0.479-1.029,0.625-1.508,0.955c-0.109,0-0.109-0.035-0.184-0.035
				c-0.11,0.035-0.221,0.072-0.257,0.146c-0.147-0.037-0.184,0-0.258,0.037h-0.146c-0.184,0-0.331-0.037-0.479,0.035
				c-0.073-0.035-0.146-0.035-0.257-0.035c-0.588,0-1.213-0.148-1.691-0.369c-0.184-0.367-0.698-0.404-0.919-0.734
				c-0.146,0-0.184-0.109-0.33-0.109c-0.037-0.221-0.221-0.295-0.294-0.441c0-0.074,0-0.148,0.036-0.148
				c-0.036-0.072-0.146-0.035-0.184-0.109c-0.037-0.111,0.11-0.074,0.11-0.146c-0.037-0.037-0.147,0-0.221-0.074
				c0.073-0.109,0-0.146-0.073-0.258c0.036-0.146,0-0.146-0.037-0.256v-0.074c0-0.221-0.073-0.404-0.146-0.551
				c0-0.111,0.073-0.111,0.073-0.186c0.037-0.109-0.073-0.072-0.073-0.109c0.036-0.146-0.037-0.295,0-0.441
				c-0.074-0.293-0.147-0.734-0.147-1.176c0-0.111,0.073-0.221,0.073-0.295c0-0.035-0.073-0.072-0.073-0.109v-0.258
				c0-0.258,0-0.514,0.147-0.662c-0.037-0.072-0.037-0.146-0.037-0.221c0-0.146,0.037-0.33,0.037-0.477
				c-0.11,0-0.295,0.146-0.404,0.221c-0.037,0.072-0.037,0.184-0.074,0.221l-0.11,0.072c-0.073,0.074-0.036,0.148-0.073,0.221
				c-0.146,0.037-0.331,0.184-0.331,0.332c0,0.035,0,0.072,0.037,0.109c0,0.074-0.147,0.184-0.037,0.258
				c-0.146,0.037-0.221,0.221-0.221,0.441c-0.073,0.072-0.109,0.146-0.184,0.184c-0.146,0.588-0.331,1.102-0.625,1.58v0.146
				c0,0.258-0.11,0.662-0.11,0.957c0,0.146,0.037,0.293,0.11,0.404c-0.22,0.109-0.11,0.514-0.33,0.66v0.074
				c0,0.221-0.11,0.33-0.221,0.479c-0.147,0-0.258,0.109-0.404,0.146l-0.735-0.037c-0.073,0-0.147,0.037-0.221,0.037
				c-0.184-0.037-0.404-0.295-0.552-0.479c-0.073-0.072-0.109-0.072-0.146-0.221c-0.221-0.109-0.258-0.33-0.441-0.514
				c-0.073-0.037-0.146,0-0.184-0.037c-0.073-0.074-0.147-0.146-0.257-0.221c-0.11-0.072-0.185-0.221-0.258-0.367
				c-0.147-0.221-0.257-0.404-0.367-0.699c-0.037-0.109,0.073-0.035,0.073-0.109s-0.11-0.074-0.184-0.111
				c-0.037-0.109-0.11-0.219-0.11-0.33c0-0.037,0-0.109,0.036-0.146c-0.146-0.146-0.11-0.367-0.146-0.551
				c-0.037-0.148-0.11-0.186-0.147-0.441c0-0.074-0.073-0.184-0.073-0.258c0-0.184,0.073-0.441,0.073-0.699
				c0-0.184-0.073-0.404,0.074-0.551c-0.037-0.109-0.037-0.258,0.073-0.33c-0.147-0.148,0.036-0.295-0.037-0.479
				c0.073-0.074,0.11-0.184,0.184-0.258c-0.073-0.072-0.11-0.184-0.11-0.293c0-0.074,0-0.148,0.074-0.221
				c0-0.221-0.037-0.404,0.036-0.588c0,0,0.074-0.074,0.074-0.111c0,0-0.074-0.072-0.074-0.109c0-0.148,0.037-0.404,0.147-0.553
				c-0.037-0.109-0.037-0.256-0.037-0.33c0-0.441,0.185-0.734,0.147-1.139c0-0.111,0.11-0.074,0.11-0.111
				c-0.037-0.109-0.037-0.221-0.037-0.33c0-0.332,0.073-0.662,0.221-0.883c0-0.184,0-0.404,0.073-0.551
				c0-0.074,0.037-0.037,0.074-0.037c-0.037-0.111-0.037-0.258-0.037-0.404c0-0.441,0.11-0.883,0.221-1.139
				c0-0.074-0.037-0.074-0.037-0.111c0.037-0.074,0.073-0.146,0.147-0.184c-0.037-0.074-0.037-0.111-0.037-0.184
				c0-0.146,0.11-0.295,0.11-0.404c0-0.111-0.073-0.146-0.073-0.221c0.036-0.295,0.33-0.551,0.33-0.883c0-0.184,0-0.367,0.221-0.441
				c-0.073-0.035-0.11-0.109-0.11-0.146c0-0.146,0.147-0.293,0.11-0.514c0.037-0.037,0.074-0.037,0.147-0.037
				c0.037-0.111-0.073-0.111-0.073-0.221l0.22-0.516l-0.036-0.146c0-0.184,0.11-0.33,0.184-0.551
				c0.11-0.258,0.147-0.441,0.257-0.625c0.074-0.111,0.147-0.221,0.295-0.295c-0.11-0.146,0.036-0.184,0.11-0.293
				c0-0.295,0.109-0.479,0.294-0.553c0.036-0.439,0.404-0.881,0.992-0.955c0.073-0.037,0.073-0.109,0.147-0.184
				c0.44-0.109,0.698-0.367,0.955-0.625c0.368-0.109,0.515-0.367,0.992-0.367c0.185-0.074,0.295-0.111,0.405-0.111H68.11z
				 M67.559,106.848c-0.036,0.441-0.551,0.367-0.551,0.846v0.109c0,0.111-0.147,0.148-0.184,0.258l0.036,0.146
				c-0.036,0.074-0.11,0.148-0.073,0.295c-0.11,0.037-0.11,0.184-0.221,0.221c-0.036,0.367-0.331,0.588-0.331,0.883
				c0,0.072,0.037,0.184,0.074,0.256c-0.11,0-0.147,0.074-0.147,0.148c0,0.072,0,0.146,0.037,0.219
				c-0.11,0.111-0.074,0.332-0.074,0.553v0.109c-0.036,0.148-0.109,0.295-0.109,0.404c0,0.037,0.036,0.074,0.036,0.111
				c-0.073,0.146-0.11,0.221-0.11,0.367v0.109c-0.073,0.037-0.184,0.037-0.184,0.148c0,0.109,0.147,0.109,0.11,0.256
				c-0.221,0.186-0.073,0.553-0.294,0.736c0.037,0.184,0.073,0.33,0,0.477c0,0.111,0.073,0.221,0.073,0.332c0,0,0,0.037-0.036,0.074
				c0.109,0.109,0.109,0.256,0.109,0.404c0,0.33-0.109,0.697-0.036,0.918l-0.11,0.184c0.037,0.111,0.073,0.184,0.073,0.295
				c0.037,0.184,0,0.367,0,0.551c0,0.146,0.037,0.295,0.147,0.404c0.11-0.146,0.221-0.295,0.367-0.404v-0.037
				c0-0.221,0.184-0.258,0.294-0.404c-0.073,0-0.036-0.037-0.036-0.072c0.404-0.479,0.698-1.029,1.065-1.545
				c0.184-0.293,0.147-0.809,0.441-1.029c-0.073-0.037-0.073-0.146-0.073-0.221c0.073-0.184,0.22-0.293,0.22-0.514
				c0.074-0.037,0.11-0.111,0.185-0.148c-0.11,0.037-0.11-0.035-0.147-0.072c0.147-0.146,0.073-0.479,0.221-0.662
				c-0.037-0.074-0.037-0.146-0.037-0.221c0-0.221,0.11-0.404,0.184-0.588c0.037-0.074-0.073-0.074-0.073-0.146
				c0.147,0,0.221-0.184,0.258-0.295c0-0.146-0.11-0.33-0.11-0.514v-0.074c0-0.074,0.036-0.074,0.036-0.146
				c0-0.221-0.036-0.367,0-0.553l0.11-0.184v-0.109c0-0.146,0.037-0.184,0.037-0.221v-0.111c0-0.33-0.11-0.551-0.184-0.881
				c-0.037-0.441-0.037-0.736-0.147-1.029c-0.073-0.037-0.11-0.037-0.184-0.037C67.927,106.443,67.779,106.773,67.559,106.848z"/>
		</g>
		<g>
			<path fill="#231F20" d="M20.751,130.334c0.08,0,0.12-0.04,0.201-0.04c0.121,0,0.201,0.161,0.322,0.161
				c0.08,0,0.161-0.04,0.241-0.04c0.121-0.041,0.201,0.08,0.322,0.08c0.201,0,0.201,0.201,0.402,0.201
				c0,0.081,0.081,0.121,0.041,0.242c0.12,0.04,0.161-0.121,0.201,0c0.121,0.08,0.201,0.201,0.322,0.362l0.12,0.08
				c0.041,0.081,0.041,0.161,0.081,0.201c0.121,0.282,0.483,0.887,0.523,1.088l0.201,0.966c0.161-0.08,0.242-0.241,0.282-0.482
				l0.805-0.806c0.282-0.483,0.927-0.886,1.53-1.128c0.041-0.04,0.081-0.04,0.121-0.04c0.161-0.08,0.201-0.121,0.443-0.161
				c0.281-0.04,0.563-0.161,0.886-0.161c0.04,0,0.08-0.04,0.12-0.04c0.242,0,0.564,0,0.685,0.121
				c0.121-0.041,0.202-0.081,0.282-0.081c0.242,0,0.402,0.121,0.523,0.282c0.523,0.121,0.725,0.523,1.128,0.725
				c0.04,0.402,0.322,0.563,0.362,0.967c0.08,0.12,0.161,0.201,0.241,0.362c0.04,0.362,0.201,0.645,0.282,1.007
				c0.121-0.041,0.121-0.202,0.201-0.282c0.081-0.08,0.081-0.04,0.161-0.121c0-0.12,0.121-0.161,0.201-0.281
				c0.121-0.161,0.161-0.403,0.362-0.483l0.121-0.322c0,0.08,0.04,0.08,0.04,0.121c0.161-0.121,0.282-0.242,0.443-0.403
				c0.241-0.201,0.604-0.322,0.805-0.563c0.403-0.08,0.726-0.362,1.088-0.362h0.08c0.121,0,0.081-0.08,0.161-0.121
				c0.161,0.041,0.362,0.081,0.523,0.081c0.282,0,0.564-0.04,0.846-0.081c0.081,0,0.161,0.041,0.242,0.081
				c0.563,0.04,1.006,0.201,1.489,0.362c0.04,0.04,0.081,0.121,0.121,0.201c0.08-0.04,0.04-0.04,0.121,0
				c0.241,0.241,0.563,0.402,0.846,0.604c0.08,0.482,0.563,0.482,0.725,0.845c0.04,0.081,0.161,0.041,0.241,0.081
				c0.161,0.483,0.563,0.685,0.685,1.168c0.081,0.08,0.161,0.201,0.201,0.322c0.041,0.08-0.04,0.12-0.04,0.161l0.161,0.12
				c0.04,0.081-0.04,0.081-0.04,0.201c0.161,0.121,0.161,0.202,0.281,0.443c0.121,0.201,0.202,0.402,0.242,0.725
				c0.04,0.121,0.08,0.242,0.08,0.322c0,0.081-0.04,0.161-0.08,0.241c0,0.121,0.08,0.363,0.121,0.443
				c0.08,0.121,0.12,0.161,0.201,0.241c0.04,0.161,0.04,0.322,0.04,0.524c0,0.402-0.04,0.805-0.04,1.208
				c0,0.12,0.12,0.08,0.12,0.201c0,0.201,0.081,0.322,0.202,0.402c-0.041,0.161,0.04,0.241,0.04,0.362c0,0,0,0.04-0.04,0.081
				c0.12,0.12,0.201,0.322,0.201,0.482c0,0.081-0.04,0.202-0.081,0.282c0.081,0.121,0.121,0.282,0.121,0.443
				c0,0.201-0.04,0.362-0.121,0.523c0.081,0.04,0.201,0.201,0.201,0.322c0,0.04,0,0.12-0.04,0.161
				c0.081,0.16,0.121,0.362,0.121,0.523c0,0.12,0,0.241-0.081,0.321c-0.04,0.161,0.081,0.161,0.081,0.282
				c0,0.161-0.121,0.161-0.121,0.282c0.161,0.201,0.081,0.685,0.282,0.846c-0.081,0.201,0,0.362-0.081,0.523
				c0.081,0.362-0.08,0.725,0,1.087c-0.04,0.081-0.08,0.121-0.161,0.201v0.201c0,0.161,0,0.282-0.16,0.322
				c0.04,0.081,0.04,0.121,0.04,0.161c0,0.201-0.121,0.322-0.121,0.523v0.081c-0.322,0.12-0.201,0.442-0.322,0.685
				c0,0.12,0.081,0.161,0.081,0.281c-0.282,0.161-0.483,0.564-0.886,0.564c-0.242,0.281-0.645,0.402-1.088,0.482
				c-0.08,0.041-0.161,0.161-0.281,0.121c-0.081,0.121-0.202,0.201-0.363,0.201c-0.04,0-0.12-0.04-0.16-0.08
				c-0.041,0.04-0.081,0.121-0.161,0.161c-0.202,0.04-0.322-0.121-0.363,0.04c-0.482-0.08-0.845-0.241-1.167-0.322
				c-0.242-0.121-0.403-0.322-0.726-0.362v-0.121c-0.08,0.041-0.201-0.08-0.241-0.161c-0.402-0.04-0.443-0.442-0.645-0.644
				c0-0.121,0.121-0.121,0.201-0.161c-0.04-0.121-0.12-0.242-0.12-0.403c0-0.08,0.04-0.161,0.08-0.201
				c-0.04-0.04-0.12-0.04-0.161-0.121c0-0.12,0-0.241-0.12-0.281v-0.121c0-0.121-0.041-0.322-0.041-0.523
				c0-0.08,0-0.121,0.041-0.201c-0.081-0.161-0.121-0.322-0.202-0.402c-0.04-0.121-0.04-0.242-0.04-0.322
				c0-0.121,0-0.242-0.04-0.322c0-0.081,0.121-0.04,0.161-0.121c-0.04-0.08-0.161-0.121-0.201-0.201c0-0.282,0.08-0.483-0.081-0.645
				c0.04-0.08,0.04-0.161,0.04-0.241c0-0.242-0.08-0.523-0.04-0.766c0-0.08,0.04-0.161,0.04-0.201c0.041-0.08-0.12-0.161,0-0.161
				c-0.16-0.04-0.08-0.322-0.201-0.402c-0.04-0.081-0.12,0.08-0.161,0c0.081-0.121,0.041-0.161,0.041-0.322
				c0-0.04,0.08-0.08,0.08-0.121l-0.04-0.281c0-0.081,0.04-0.161,0.04-0.242v-0.08c0-0.161-0.04-0.282-0.04-0.403
				c0-0.08,0.04-0.16,0.08-0.241c-0.08-0.282-0.12-0.604-0.161-0.886c0-0.242,0-0.483,0.081-0.766
				c-0.081-0.241-0.121-0.523-0.121-0.805c0-0.201,0.04-0.403,0.081-0.564c-0.041-0.08-0.041-0.16-0.041-0.241
				c0-0.241,0.081-0.483,0.081-0.725c0-0.121-0.04-0.242-0.081-0.322c0-0.121,0.041-0.241,0.041-0.362c0-0.04,0-0.121-0.041-0.161
				c0.041-0.121,0.041-0.241,0.041-0.362c0-0.523-0.322-0.967-0.806-0.967h-0.161c-0.282,0.081-0.443,0.322-0.645,0.523
				c0,0.322-0.161,0.523-0.161,0.766v0.241c0,0.04-0.08,0.161-0.08,0.201s0.08,0.081,0.08,0.121c0,0.121,0,0.282-0.04,0.322
				c0,0.08-0.08,0.161-0.121,0.241c0,0.04,0.041,0.121,0.041,0.121l-0.161,0.685c0,0.121,0.04,0.282,0.04,0.442
				c0,0.161-0.04,0.322-0.121,0.443c0.04,0.161,0.081,0.282,0.081,0.443v0.201c0,0.161-0.161,0.241-0.161,0.402
				c0,0.121,0.08,0.201,0.08,0.322v0.081c0,0.201-0.121,0.321-0.161,0.523c0.04,0.241,0.081,0.482,0.081,0.725v0.161
				c0,0.12-0.121,0.281-0.121,0.402c-0.04,0.161,0,0.322,0,0.443c-0.04,0.201-0.161,0.402-0.161,0.604
				c0,0.121,0.161,0.121,0.121,0.282c0.04,0.12-0.04,0.161-0.04,0.241c0.08,0.121,0.12,0.322,0.12,0.483v0.645
				c0,0.12-0.08,0.12-0.08,0.241c0,0.081,0.04,0.201,0.04,0.322v0.081c0,0.16-0.161,0.281-0.201,0.442
				c0,0.161,0.08,0.402,0.08,0.604c0,0.08,0,0.12-0.04,0.201c0,0.161-0.161,0.322-0.161,0.483c-0.04,0.281,0.04,0.563,0,0.886
				c-0.121,0.161-0.161,0.362-0.322,0.483c-0.04,0.12,0,0.281-0.04,0.362c-0.04,0.12-0.241,0.12-0.241,0.281
				c-0.161,0.081-0.443,0.201-0.604,0.201h-0.08c-0.081,0.041-0.121,0.161-0.202,0.161H31.1c-0.201,0-0.362-0.08-0.483-0.08
				c-0.04,0-0.121,0-0.161,0.04c-0.161-0.08-0.442-0.121-0.604-0.201c-0.121-0.04-0.161,0.04-0.201,0.04
				c-0.282-0.161-0.604,0.081-0.766-0.08c-0.161,0.04-0.241,0-0.483,0c-0.04-0.081-0.12-0.081-0.08-0.201
				c-0.362-0.081-0.604-0.483-0.725-0.887c0-0.12,0.04-0.16,0.04-0.241c-0.04-0.08-0.201-0.04-0.242-0.121
				c0-0.281-0.241-0.402-0.241-0.685v-0.08c-0.121-0.161-0.08-0.362-0.121-0.563c0-0.081-0.04-0.161-0.04-0.242
				c-0.04-0.12,0-0.241,0-0.362c0-0.201-0.08-0.282-0.08-0.442c0-0.081,0.04-0.161,0.04-0.282c0-0.04-0.04-0.121-0.04-0.201v-0.081
				c0-0.281-0.041-0.645-0.041-0.926c0-0.161,0.041-0.362,0.081-0.523c0-0.121-0.081-0.161-0.121-0.242
				c0.04-0.12,0.04-0.241,0.04-0.321c0-0.443-0.161-0.887-0.161-1.329l0.121-1.329c0-0.121-0.04-0.241,0-0.402
				c0-0.041,0.04-0.081,0.04-0.161v-0.121c0-0.201-0.04-0.402-0.08-0.604c-0.04-0.322-0.04-0.645-0.04-0.967
				c0-0.241,0-0.443,0.04-0.645c0.04-0.322,0.08-0.725,0.08-1.127c0-0.483-0.04-0.927-0.161-1.329c0-0.121,0-0.161,0.041-0.242
				c-0.121-0.201-0.403-0.281-0.685-0.281c-0.121,0-0.282,0-0.403,0.04c-0.362,0.121-0.523,0.322-0.765,0.685
				c-0.081,0.121-0.201,0.241-0.241,0.362c-0.041,0.081,0,0.161-0.041,0.242c0,0.08-0.08,0.12-0.12,0.161l-0.041,0.402
				c0,0.161-0.04,0.322-0.04,0.483c0,0.12,0.04,0.281,0.04,0.442v0.121c0,0.121-0.161,0.201-0.161,0.282
				c-0.08,0.241,0.121,0.402-0.04,0.563c0,0.201,0.121,0.281,0.121,0.442v0.081c0,0.282-0.161,0.523-0.161,0.765v0.121
				c0,0.161,0.161,0.201,0.161,0.443c0,0.08-0.04,0.12-0.04,0.201c0,0.201,0.12,0.281,0.161,0.442c0.08,0.202,0.04,0.483,0.08,0.726
				c0,0.12,0,0.201,0.04,0.362c0,0.161,0.081,0.362,0.081,0.523s-0.121,0.241-0.121,0.402v0.242c0,0.12,0,0.241-0.08,0.321
				c0.12,0.161,0.161,0.362,0.161,0.564c0,0.161-0.041,0.322-0.081,0.482c-0.04,0.121,0.081,0.121,0.121,0.202
				c-0.04,0.201,0,0.281,0.12,0.402c0,0.201-0.08,0.443-0.08,0.604c0,0.12,0.04,0.241,0.121,0.321c0,0.282-0.081,0.483-0.081,0.726
				v0.12c0,0.201-0.08,0.403-0.08,0.564c0,0.08,0,0.161,0.08,0.241c-0.04,0.201-0.08,0.402-0.201,0.483c-0.04,0.08,0,0.161,0,0.281
				c-0.08,0.121-0.161,0.161-0.241,0.242c0,0.281-0.081,0.523-0.202,0.685c-0.12,0.121-0.362,0.241-0.523,0.241
				c-0.08,0.081-0.201,0.121-0.241,0.201c-0.201,0-0.402,0.121-0.645,0.121h-0.12c-0.041,0-0.081-0.04-0.161-0.04
				c-0.081-0.04-0.282-0.081-0.403-0.201c-0.08,0-0.04,0.12-0.161,0.12c-0.281-0.04-0.604,0-0.765-0.201
				c-0.121,0.04-0.081-0.04-0.242-0.04c-0.241-0.282-0.725-0.322-1.167-0.402c-0.121-0.041-0.242-0.081-0.362-0.161
				c-0.081-0.201-0.202-0.362-0.282-0.564c-0.241-0.281-0.563-0.644-0.563-1.087v-0.08c0-0.081-0.081-0.121-0.081-0.202
				c0-0.08,0.04-0.16,0.04-0.241c0-0.282-0.08-0.563-0.08-0.886c0-0.161,0.04-0.362,0.121-0.523
				c-0.081-0.161-0.121-0.362-0.121-0.523c0-0.242,0.04-0.483,0.04-0.685c0-0.443-0.08-0.886-0.08-1.409c0-0.806,0-1.611,0.04-2.457
				c-0.04-0.08-0.081-0.08-0.081-0.161v-0.161c0-0.362,0.161-0.644,0.202-1.006c0.04-0.363,0-0.685,0.04-1.128
				c0-0.322,0.04-0.645,0.04-1.007v-0.241c-0.08-0.081-0.121-0.201-0.121-0.322v-0.402c0-0.081-0.04-0.161-0.04-0.242
				c0-0.241,0.121-0.604,0.121-0.846c0-0.241-0.121-0.483-0.161-0.725c-0.04-0.282-0.04-0.563-0.081-0.765
				c-0.04-0.322,0.041-0.685,0-1.007l0.121-0.523c-0.08-0.523,0.282-0.846,0.242-1.49c0.08-0.08,0.12-0.201,0.161-0.282
				c0.04,0,0.12,0,0.201-0.04c0.04-0.04,0.04-0.121,0.08-0.121c0.081-0.04,0.282-0.04,0.443-0.08
				c0.201-0.04,0.644-0.121,0.966-0.121C20.59,130.213,20.63,130.294,20.751,130.334z M37.1,147.689c-0.04-0.04-0.04,0.04-0.121,0
				c-0.04,0.121,0.04,0.121,0.121,0.121V147.689z M37.744,142.334c0.08,0,0.12,0,0.12-0.04
				C37.824,142.254,37.744,142.254,37.744,142.334z"/>
			<path fill="#231F20" d="M52.601,130.777c0.201,0,0.402-0.04,0.523,0.08c0.121-0.04,0.241-0.04,0.402-0.04
				c0.282,0,0.604,0.04,0.806,0.04c0.241,0,0.483-0.04,0.725-0.04c0.081,0,0.161,0.08,0.242,0.08c0.08,0,0.201-0.04,0.321-0.04
				c0.282,0.04,0.645,0,0.967,0.121c0.121,0,0.161-0.04,0.201-0.04c0.121,0.08,0.242,0.12,0.362,0.12h0.161
				c0.161,0,0.362-0.04,0.604-0.04h0.12c0.081,0,0.242,0.04,0.403,0.081c0.362,0.08,0.483,0.08,0.725,0.362
				c0.121,0.12,0.201,0.281,0.362,0.442c0.081,0.121,0.201,0.201,0.242,0.322l0.04,0.483c-0.04,0.201-0.242,0.685-0.322,0.806
				c-0.081,0.12-0.282,0.322-0.402,0.362c-0.121,0.08-0.363,0.08-0.564,0.161c-0.08,0.04-0.201,0.08-0.322,0.08
				c-0.08,0-0.161-0.04-0.241-0.08c-0.201,0.161-0.563,0.201-0.926,0.201h-0.806c-0.322,0-0.766,0.04-1.208,0.04h-0.282
				c-0.12-0.04-0.201-0.04-0.402,0c-0.201,0-0.402-0.04-0.563-0.04s-0.282,0.04-0.443,0.04s-0.282-0.04-0.402-0.04
				c-0.121,0-0.201,0-0.282,0.08c0.04,0.081,0.04,0.161,0.04,0.242c-0.08,0.04-0.201,0.08-0.281,0.161c0.04,0.201,0,0.322,0,0.483
				c0,0.16-0.121,0.16-0.161,0.281c0.04,0.04,0.04,0.04,0,0.081c0.04,0.04,0.12,0.04,0.12,0.08c0.121,0.645-0.04,1.49,0.202,2.135
				c-0.041,0.12-0.081,0.281-0.161,0.402c0.04,0.121,0.161,0.04,0.201,0.121c0,0.161,0,0.321-0.04,0.442
				c0.08,0.121,0.12,0.282,0.12,0.443c0,0.201-0.08,0.402-0.201,0.563c0,0.121-0.04,0.241-0.04,0.322c0,0.442,0.08,0.886,0.08,1.248
				c0,0.121,0,0.201-0.04,0.322c0.161,0.121,0.282,0.241,0.402,0.402c0.242,0,0.483-0.04,0.685-0.04c0.161,0,0.322,0.04,0.443,0.081
				c0.201-0.041,0.443-0.081,0.645-0.081l0.402,0.04c0.121,0.121,0.402,0.121,0.483,0.282h0.161
				c0.241,0.161,0.402,0.402,0.685,0.483c0,0.121,0.04,0.161,0.161,0.241c-0.081,0.201,0.04,0.282,0.04,0.443v0.08
				c0,0.081-0.08,0.081-0.161,0.161c0,0.201-0.201,0.282-0.201,0.523c-0.04,0.04-0.121,0.04-0.161,0.04
				c-0.04,0.161-0.121,0.282-0.201,0.403l-0.563,0.121c-0.121,0-0.242,0.08-0.403,0.12c-0.201,0-0.362-0.08-0.563-0.08l-0.402,0.04
				h-0.121c-0.161,0-0.282-0.08-0.402-0.08c-0.041,0-0.121,0-0.161,0.04c-0.121,0.12-0.121,0.241-0.121,0.442
				c0,0.121-0.04,0.242-0.04,0.362c0,0.282,0.08,0.564,0.08,0.846c0,0.161-0.08,0.282,0,0.443c0.443,0.201,1.007,0.282,1.369,0.563
				c0.121,0,0.121-0.04,0.201-0.04c0.242,0.08,0.523,0.121,0.846,0.121s0.645-0.041,0.927-0.081c0.12,0,0.12,0.081,0.201,0.161
				c0.281,0,0.725-0.121,1.087-0.121c0.161,0,0.322,0.041,0.443,0.121c0.161-0.08,0.241,0.04,0.402,0.04h0.08
				c0.081,0.041,0.121,0.121,0.161,0.121c0.121,0.04,0.242,0.04,0.363,0.121c0.08,0.121,0.16,0.241,0.16,0.402
				c0.081,0.121,0.242,0.161,0.322,0.282c0.081,0.08,0.081,0.241,0.081,0.442c0,0.161,0,0.322-0.081,0.443l-0.12,0.08
				c-0.081,0.121-0.282,0.403-0.483,0.483c-0.121,0.04-0.362,0.161-0.362,0.161h-0.201c-0.202,0-0.322,0.161-0.524,0.201
				c-0.12,0-0.201-0.04-0.281-0.04c-0.121,0-0.121,0.081-0.161,0.121c-0.241,0-0.402,0.201-0.685,0.281
				c-0.241,0.041-0.523,0-0.806,0.081c-0.161,0.04-0.442,0.08-0.645,0.08c-0.12,0-0.241,0-0.321-0.04
				c-0.041,0.04-0.202,0.04-0.242,0.121c-0.08-0.04-0.161-0.04-0.241-0.04c-0.161,0-0.322,0.04-0.483,0.04
				c-0.08,0-0.121-0.04-0.161-0.04c-0.121,0-0.121,0.04-0.241,0.04c-0.121,0.04-0.322,0.04-0.523,0.04h-0.564
				c-0.08,0.04-0.12,0.081-0.201,0.081c-0.121,0.04-0.241,0.04-0.362,0.04c-0.201,0-0.362,0-0.523-0.04l-0.201,0.12
				c-0.403,0-0.766,0.081-1.168,0.081c-0.121,0-0.241,0-0.402-0.04c-0.242-0.202-0.726-0.202-0.886-0.524
				c-0.202-0.04-0.282-0.241-0.483-0.281c-0.161-0.403-0.604-0.483-0.886-0.766c0-0.12-0.081-0.201-0.161-0.241
				c0-0.161-0.041-0.201-0.041-0.322c-0.161-0.121-0.281-0.282-0.402-0.442c-0.04-0.121,0-0.161,0-0.202
				c-0.121-0.161-0.282-0.402-0.282-0.644v-0.081c-0.281-0.402-0.161-1.127-0.442-1.53v-0.08c0-0.201-0.161-0.362-0.161-0.564
				l0.04-0.16c-0.121-0.202-0.161-0.403-0.161-0.645c0.04-0.564-0.08-1.248-0.121-1.933v-0.967c0-0.322,0.081-0.604,0.081-0.886
				c0-0.201-0.04-0.403-0.04-0.604c0-0.12,0-0.201,0.04-0.322c-0.04-0.08,0.08-0.04,0.08-0.08c-0.08-0.523-0.201-1.208-0.201-1.853
				c0-0.161,0.04-0.282,0.081-0.442c0-0.041-0.081,0-0.121-0.041c0-0.483,0.04-1.087,0.04-1.61c0-0.121-0.04-0.241-0.04-0.362
				s0.04-0.201,0.121-0.282c0-0.04-0.121,0-0.081-0.121c0.081-0.644,0.121-1.288,0.121-1.893c0.08-0.08,0.201-0.12,0.241-0.201
				c-0.04-0.12-0.12,0.041-0.161-0.04c0-0.402,0.202-0.604,0.282-0.967c0.081-0.04,0.121-0.161,0.241-0.161
				c0.161-0.321,0.645-0.442,0.806-0.765c0.121-0.04,0.362-0.08,0.563-0.121c0.081,0,0.282-0.08,0.322-0.201
				c0.041,0.04,0.081,0.04,0.121,0.04c0.161,0,0.322-0.12,0.483-0.161c0.121-0.04,0.241-0.04,0.362-0.04
				c0.161,0,0.362,0.04,0.483,0.081c0.241-0.041,0.483-0.121,0.725-0.121c0.08,0,0.161,0.04,0.201,0.04
				c0.201,0,0.322-0.08,0.523-0.08l0.161,0.04c0.282,0,0.563-0.08,0.806-0.08h0.121l0.281,0.04H52.601z"/>
			<path fill="#231F20" d="M68.627,148.535c0.04,0.04,0.121,0.04,0.121,0.04c0.201,0.202,0.281,0.564,0.523,0.685
				c0,0.282,0.12,0.362,0.201,0.523c0,0.322,0.121,0.685,0,0.967c-0.04,0.08-0.242,0.241-0.322,0.362
				c-0.081,0.121-0.201,0.242-0.362,0.282c-0.121,0.12-0.242,0.201-0.282,0.362c-0.322,0-0.604,0-0.805,0.121
				c-0.081-0.081-0.202-0.081-0.322-0.081c-0.322,0-0.443-0.282-0.726-0.322c-0.04-0.161-0.16-0.241-0.321-0.281
				c-0.041-0.121-0.081-0.242-0.202-0.282c-0.04-0.402-0.281-0.725-0.281-1.087c0-0.041,0.04-0.282,0.08-0.322
				c0-0.121,0.121-0.242,0.161-0.322c0.04-0.04-0.04-0.081,0-0.121c0.04-0.121,0.201-0.201,0.161-0.362
				c0.121-0.08,0.201-0.161,0.282-0.241c0.201,0,0.281-0.161,0.402-0.242c0.282-0.04,0.685-0.04,0.926-0.04
				C68.144,148.253,68.386,148.374,68.627,148.535z M67.861,126.025c0.041,0.282,0.322,0.322,0.443,0.523
				c-0.04,0.121,0.081,0.201,0,0.282c0.322,0.281,0.201,0.604,0.201,1.127c0.04,0.202,0.121,0.604,0.121,0.886
				c0,0.161-0.04,0.282-0.081,0.363c0.121,0.241,0.041,0.523,0.081,0.805c0.04,0.161,0.161,0.282,0.161,0.564
				c0.04,0.402,0,0.886,0,1.328c0,0.081-0.04,0.121-0.081,0.201c0,0.081,0.041,0.161,0.041,0.242c0,0.08-0.041,0.161-0.041,0.201
				c-0.04,0.322,0.081,0.604,0.081,0.886c0,0.121-0.04,0.242-0.081,0.362c0,0.081,0.041,0.161,0.081,0.242
				c0,0.483,0.04,0.966,0.04,1.489c0,0.483-0.04,0.967-0.121,1.49c0.041,0.081,0.081,0.161,0.081,0.241
				c0,0.081-0.04,0.202-0.081,0.363v0.241c0,0.362,0.041,0.725,0.081,1.087v0.604c0,0.161,0.04,0.241,0.04,0.322
				c0,0.12-0.08,0.241-0.08,0.322c0,0.08,0.08,0.161,0.08,0.281c0,0.081-0.04,0.161-0.04,0.201c0.04,0.121,0.121,0.161,0.121,0.282
				s-0.081,0.201-0.081,0.282c0,0.161,0.04,0.322,0.04,0.442c0,0.242-0.08,0.242-0.12,0.403c-0.041,0.161,0.12,0.08,0.12,0.201
				c0,0.402-0.08,0.765-0.08,1.127c0,0.202,0.04,0.443,0.121,0.645c-0.041,0.161-0.081,0.322-0.081,0.523
				c0,0.242,0.04,0.483,0.121,0.645c0,0.241-0.04,0.402,0.04,0.604c0,0.161-0.08-0.04-0.201,0c-0.121,0.081-0.201,0.242-0.282,0.363
				c-0.08,0-0.12,0.04-0.201,0.04c-0.241,0-0.362-0.121-0.604-0.121c-0.081-0.161-0.282-0.241-0.443-0.322
				c0-0.161-0.161-0.161-0.161-0.362c-0.161-0.161-0.362-0.282-0.483-0.523c-0.12-0.241-0.12-0.563-0.201-0.846
				c0-0.08-0.08-0.161-0.121-0.241c-0.04-0.201-0.04-0.403-0.08-0.645c-0.04-0.402-0.161-0.725-0.121-1.289
				c0-0.08,0.081-0.16,0.081-0.281s-0.081-0.282-0.081-0.403c0-0.442,0.121-0.886,0.081-1.369c-0.041-0.16,0-0.362,0-0.563
				s-0.041-0.402-0.041-0.685c0-0.281-0.04-0.604-0.04-0.926c0-0.161,0.081-0.322,0.081-0.483c0-0.08-0.081-0.201-0.081-0.282
				v-0.201c0-0.281,0.04-0.604,0.081-0.926v-0.161v-0.322c0-0.121,0.04-0.241,0.161-0.322c0-0.08-0.121-0.04-0.121-0.161
				c0.121-0.281,0-0.563,0.08-0.806c-0.04-0.08-0.12-0.12-0.12-0.241c0-0.282-0.041-0.523-0.041-0.806
				c0-0.201,0.041-0.402,0.081-0.604c0-0.081,0.04-0.121,0.121-0.121c-0.081-0.121-0.081-0.281-0.161-0.322
				c0-0.12,0.08-0.161,0.08-0.241c0-0.121-0.08-0.322-0.08-0.443c0-0.161,0.08-0.281,0.08-0.362c0.04-0.201-0.04-0.442,0-0.645
				c0.081-0.523,0.04-1.288,0.161-1.852c0.04-0.081,0.121-0.121,0.161-0.201c0.04-0.081-0.08-0.242,0.04-0.242
				c-0.04-0.04-0.04-0.121-0.04-0.201l0.04-0.443c-0.04-0.08-0.08-0.161-0.08-0.201c0-0.08,0.08-0.161,0.08-0.281
				c0-0.041-0.04-0.121-0.04-0.202c0-0.12,0.08-0.241,0.08-0.362c0.041-0.322-0.04-0.685,0.282-0.685
				C67.419,125.542,67.459,125.945,67.861,126.025z"/>
		</g>
		<path fill="#468885" d="M16.259,140.138c4.556,0.743,7.862,0.806,5.599,1.479c-2.267,0.673-5.692,0.03-6.883-0.719
			C13.785,140.148,16.259,140.138,16.259,140.138z"/>
	</g>
</g>
</svg>
