<?xml version="1.0" encoding="utf-8"?>
<!-- Generator: Adobe Illustrator 16.0.0, SVG Export Plug-In . SVG Version: 6.00 Build 0)  -->
<!DOCTYPE svg PUBLIC "-//W3C//DTD SVG 1.1//EN" "http://www.w3.org/Graphics/SVG/1.1/DTD/svg11.dtd">
<svg version="1.1" xmlns="http://www.w3.org/2000/svg" xmlns:xlink="http://www.w3.org/1999/xlink" x="0px" y="0px"
	 width="127.984px" height="158.623px" viewBox="0 0 127.984 158.623" enable-background="new 0 0 127.984 158.623"
	 xml:space="preserve">
<g id="Layer_2">
</g>
<g id="Layer_1">
	<g>
		<path fill="#FFFFFF" d="M16.743,70.505C15.271,56.482,4.739,44.146,2.825,30.316c-1.86-13.426,23.84-18.51,34.013-22.283
			C47.15,4.209,81.93-6.824,88.254,6.109c3.373,6.902,0.68,20.732,0.68,28.313c0,3.331-0.767,7.72,0.16,10.923
			c1.651,5.717,3.768,4.379,7.865,6.922c8.451,5.245,13.569,16.009,9.013,26.061c-2.271,5.01-8.897,7.986-2.997,13.57
			c0.926,0.875,4.342,0.174,5.883,1.116c2.468,1.508,4.885,4.769,6.786,6.778c7.121,7.533,13.949,17.662,12.005,28.829
			c-0.614,3.526-4.431,11.673-7.252,13.952c-4.553,3.682-9.436-0.018-14.715,0.885c1.034,15.15-35.817,18.262-41.157,4.982
			c-10.67,4.568-30.369,14.924-41.824,7.686c-14.896-9.41-8.858-35.057,8.898-35.693c-1.943,5.832,3.502,6.064,6.506,2.672
			c1.89-2.134,2.803-9.664,1.576-12.354c-3.686-8.081-18.744-4.457-25.864-7.483C5.729,99.83-0.818,93.633,0.083,84.002
			c0.617-6.595,8.82-15.859,16.66-14.191V70.505z"/>
		<g>
			<path fill="#231F20" d="M26.397,82.929c0,0-4.511-28.766-14.822-47.448C1.265,16.799,73.439,2.553,80.528,13.542
				s1.594,50.163,2.882,63.316C84.7,90.014,26.397,82.929,26.397,82.929z"/>
			<path fill="#231F20" d="M35.419,89.855c-7.17-0.479-34.154,11.415-28.355-4.723c5.801-16.137,46.145,0.038,52.199-2.204
				C91.483,70.99,72.15,62.333,89.55,59.874C97.861,58.699,127.57,96.018,35.419,89.855z"/>
			<path fill="#FFFFFF" d="M31.896,81.693c0,0,42.387,0,54.811-15.998c5.189,2.225,4.307,6.169,2.172,8.129
				C69.341,91.754,31.896,81.693,31.896,81.693z"/>
		</g>
		<g>
			<g>
				<path fill="#231F20" d="M82.947,131.93c2.604,2.723,6.085,4.969,9.699,4.707c1.573-0.115,2.648-0.75,3.516-2.336
					c1.187-2.162,0.26-3.076-0.485-5.063c1.708-0.292,4.291,1.904,5.105,3.564c0.856,1.745,4.413,11.414-8.645,15.603
					c-5.125,1.645-33.076,2.635-28.066-21.342C72.252,122.475,78.329,127.1,82.947,131.93z"/>
				<path fill="#FFFFFF" d="M80.772,133.652c1.517,1.242,3.437,2.523,5.277,2.876c-2.787,1.026-9.428-4.569-10.228-5.361
					c-1.542-1.526-6.007-4.599-10.683-1.239c-0.247-0.156,2.546-2.848,7.143-2.114C76.686,128.518,78.979,132.18,80.772,133.652z"/>
				<path fill="#FFFFFF" d="M96.584,138.037c-1.205,0.482-4.179,0.864-7.901-0.191c1.804,1.089,5.099,1.811,8.533,0.934
					c0.943-0.242,3.463-1.641,2.977-4.238c-0.193-1.039-0.657-1.592-1.374-2.189C100.451,134.08,98.653,137.208,96.584,138.037z"/>
			</g>
			<g>
				<path fill="#231F20" d="M43.13,131.93c-2.604,2.723-6.084,4.969-9.698,4.707c-1.572-0.115-2.647-0.75-3.517-2.336
					c-1.186-2.162-0.258-3.076,0.486-5.063c-1.708-0.292-4.29,1.904-5.104,3.564c-0.858,1.745-4.413,11.414,8.644,15.603
					c5.126,1.645,33.078,2.635,28.068-21.342C53.827,122.475,47.749,127.1,43.13,131.93z"/>
				<path fill="#FFFFFF" d="M30.462,138.037c1.205,0.482,4.182,0.864,7.904-0.191c-1.804,1.089-5.101,1.811-8.535,0.934
					c-0.942-0.242-3.463-1.641-2.977-4.238c0.195-1.039,0.659-1.592,1.375-2.189C26.598,134.08,28.395,137.208,30.462,138.037z"/>
				<path fill="#FFFFFF" d="M60.997,130.068c-0.375-1.583-1.234-2.284-2.229-2.477c-0.951-0.475-3.111-0.75-4.856-0.239
					c-2.856,0.836-6.112,4.155-7.298,5.247c-1.002,0.921-2.272,1.871-3.488,2.132c2.723,1.343,8.014-5.598,13.035-5.095
					c0.527,0.311,0.99,0.842,1.178,1.676C57.942,134,61.754,132.795,60.997,130.068z"/>
			</g>
		</g>
		<g>
			
				<ellipse transform="matrix(0.9685 -0.2489 0.2489 0.9685 -23.0887 24.412)" fill="#7CCDCD" cx="85.009" cy="103.525" rx="14.127" ry="14.337"/>
			<path fill="#231F20" d="M96.275,93.042c-2.582-2.789-6.173-6.248-9.431-6.604c-5.668-0.62-11.484,1.781-11.484,1.781
				c-19.669,9.295-0.169,40.93,17.51,30.199C102.775,112.406,104.042,101.43,96.275,93.042z M96.209,110.215
				c0,0-2.944,3.82-6.948,5.576c-2.302,1.01-6.012,0.086-8.795-0.779c-8.37-2.603-11.729-10.381-7.446-18.166
				C80.662,82.951,105.724,96.513,96.209,110.215z"/>
			<path fill="#C5E7E9" d="M78.353,97.209c0.046-2.646,8.93-7.189,14.341,1.931C84.45,95.642,86.674,95.07,78.353,97.209z"/>
			
				<ellipse transform="matrix(0.9686 -0.2487 0.2487 0.9686 -21.7362 28.0203)" fill="#231F20" cx="100.024" cy="100.033" rx="1.506" ry="2.908"/>
			<g>
				<path fill="#231F20" d="M115.305,134.926c-0.093,0-0.186-0.003-0.279-0.01c-1.435-0.1-4.884-1.203-5.925-9.281
					c-0.072-0.557-0.169-1.064-0.288-1.522c-0.322,0.104-0.656,0.197-0.999,0.277c-2.412,0.36-3.904,0.03-4.503-0.978
					c-0.396-0.666-0.295-1.511,0.271-2.26c0.689-0.915,2.13-1.71,3.658-1.307c0.809,0.215,1.759,0.796,2.477,2.223
					c1.466-0.75,2.554-1.861,3.225-3.319c1.122-2.436,1.016-5.822-0.218-9.23c-2.845-2.705-6.594-5.349-11.423-7.768
					c-0.386-0.193-0.542-0.662-0.349-1.048c0.192-0.386,0.66-0.545,1.048-0.349c3.414,1.71,6.412,3.572,8.981,5.577
					c-3.214-5.054-7.755-5.611-9.775-5.86c-0.742-0.091-1.114-0.137-1.383-0.452c-0.279-0.328-0.24-0.82,0.089-1.101
					c0.259-0.22,0.622-0.241,0.903-0.078c0.117,0.024,0.361,0.055,0.581,0.081c2.213,0.272,8.091,0.994,11.687,7.937
					c0.338,0.651,0.657,1.36,0.942,2.107c2.147,2.069,3.883,4.27,5.195,6.592c3.456,6.113,2.861,11.087,2.199,13.509
					C120.399,132.4,117.912,134.926,115.305,134.926z M110.271,123.525c0.156,0.554,0.286,1.188,0.379,1.91
					c0.62,4.809,2.296,7.771,4.484,7.923c1.921,0.116,3.936-2.014,4.78-5.104c1.197-4.383,0.168-10.405-4.933-16.364
					c0.488,2.537,0.438,5.213-0.621,7.513C113.526,121.213,112.134,122.609,110.271,123.525z M106.422,121.302
					c-0.65,0-1.274,0.368-1.594,0.792c-0.157,0.208-0.23,0.427-0.176,0.521c0.004,0.007,0.398,0.615,2.867,0.242
					c0.255-0.06,0.503-0.127,0.743-0.201c-0.381-0.706-0.86-1.15-1.423-1.3C106.701,121.318,106.561,121.302,106.422,121.302z"/>
			</g>
		</g>
		<path fill="#39454A" d="M76.354,16.447c0.186-5.478-21.125-1.851-30.292,0.348c-8.997,2.157-34.197,6.332-30.013,15.531
			C29.584,37.199,79.979,31.928,76.354,16.447z"/>
	</g>
</g>
</svg>
