<?xml version="1.0" encoding="utf-8"?>
<!-- Generator: Adobe Illustrator 16.0.0, SVG Export Plug-In . SVG Version: 6.00 Build 0)  -->
<!DOCTYPE svg PUBLIC "-//W3C//DTD SVG 1.1//EN" "http://www.w3.org/Graphics/SVG/1.1/DTD/svg11.dtd">
<svg version="1.1" id="Layer_1" xmlns="http://www.w3.org/2000/svg" xmlns:xlink="http://www.w3.org/1999/xlink" x="0px" y="0px"
	 width="130.836px" height="81.121px" viewBox="0 0 130.836 81.121" enable-background="new 0 0 130.836 81.121"
	 xml:space="preserve">
<g>
	<path fill="#999999" d="M113.911,10.237c-0.395-1.464-1.234-2.713-2.352-3.618c-1.664-3.291-5.063-5.551-8.979-5.551
		c-0.539,0-1.072,0.041-1.596,0.121c-0.595-0.11-1.199-0.166-1.811-0.166c-0.565,0-1.125,0.047-1.676,0.139
		c-0.567-0.099-1.146-0.149-1.729-0.149c-0.572,0-1.139,0.048-1.695,0.143c-0.563-0.097-1.134-0.146-1.711-0.146
		c-0.572,0-1.142,0.049-1.699,0.144c-0.561-0.096-1.129-0.145-1.705-0.145c-0.573,0-1.144,0.049-1.701,0.145
		c-0.559-0.096-1.129-0.145-1.702-0.145c-0.574,0-1.144,0.049-1.702,0.145c-0.559-0.096-1.128-0.145-1.702-0.145
		c-0.573,0-1.142,0.049-1.702,0.144c-0.56-0.096-1.129-0.145-1.703-0.145s-1.144,0.049-1.701,0.145
		c-0.56-0.096-1.129-0.145-1.703-0.145c-0.573,0-1.143,0.049-1.701,0.145c-0.559-0.096-1.128-0.145-1.702-0.145
		s-1.144,0.049-1.703,0.145c-0.56-0.096-1.129-0.145-1.702-0.145c-0.574,0-1.145,0.049-1.703,0.145
		c-0.559-0.096-1.127-0.145-1.702-0.145c-0.574,0-1.144,0.049-1.702,0.145c-0.559-0.096-1.128-0.145-1.702-0.145
		c-0.574,0-1.144,0.049-1.702,0.145c-0.559-0.096-1.128-0.145-1.702-0.145c-0.575,0-1.145,0.049-1.703,0.145
		c-0.56-0.096-1.129-0.145-1.703-0.145c-0.574,0-1.143,0.049-1.702,0.145c-0.559-0.096-1.128-0.145-1.702-0.145
		c-0.574,0-1.144,0.049-1.702,0.145c-0.559-0.096-1.128-0.145-1.702-0.145c-0.574,0-1.144,0.049-1.703,0.145
		c-0.56-0.096-1.129-0.145-1.703-0.145c-0.574,0-1.144,0.049-1.702,0.145c-0.56-0.096-1.128-0.145-1.702-0.145
		c-0.574,0-1.144,0.049-1.702,0.145c-0.559-0.096-1.128-0.145-1.702-0.145c-0.575,0-1.145,0.049-1.703,0.145
		c-0.56-0.096-1.129-0.145-1.703-0.145c-0.567,0-1.13,0.048-1.682,0.141C32.235,1.051,31.659,1,31.079,1
		c-3.582,0-6.614,1.686-8.387,4.346c-2.285,0.68-4.122,2.5-4.766,4.892l-16.687,62c-0.565,2.104-0.121,4.381,1.204,6.109
		C3.769,80.076,5.822,81.121,8,81.121h115.836c2.179,0,4.231-1.045,5.557-2.773c1.324-1.729,1.77-3.991,1.204-6.094L113.911,10.237z
		"/>
	<g>
		<path fill="#FFFFFF" d="M7,80.057c-2.178,0-4.231-1.015-5.556-2.742c-1.325-1.728-1.77-3.976-1.204-6.077l16.687-62
			c0.644-2.392,2.48-4.212,4.765-4.892C23.465,1.686,26.497,0,30.079,0c0.581,0,1.156,0.051,1.723,0.149
			c0.552-0.093,1.114-0.141,1.682-0.141c0.574,0,1.144,0.049,1.703,0.145c0.56-0.096,1.129-0.145,1.704-0.145
			c0.574,0,1.143,0.049,1.702,0.145c0.559-0.096,1.128-0.145,1.702-0.145c0.574,0,1.143,0.049,1.702,0.145
			c0.559-0.096,1.128-0.145,1.703-0.145c0.575,0,1.144,0.049,1.703,0.145c0.559-0.096,1.128-0.145,1.703-0.145
			s1.144,0.049,1.702,0.145c0.559-0.096,1.128-0.145,1.702-0.145c0.574,0,1.144,0.049,1.703,0.145
			c0.559-0.096,1.127-0.145,1.702-0.145s1.144,0.049,1.703,0.145c0.56-0.096,1.129-0.145,1.704-0.145
			c0.575,0,1.144,0.049,1.703,0.145c0.559-0.096,1.127-0.145,1.702-0.145c0.575,0,1.143,0.049,1.702,0.145
			c0.559-0.096,1.128-0.145,1.702-0.145c0.574,0,1.143,0.049,1.702,0.145c0.559-0.096,1.128-0.145,1.703-0.145
			s1.144,0.049,1.702,0.145c0.56-0.096,1.13-0.145,1.703-0.145c0.574,0,1.144,0.049,1.702,0.145
			c0.559-0.096,1.128-0.145,1.702-0.145c0.573,0,1.144,0.049,1.702,0.145c0.559-0.096,1.127-0.145,1.701-0.145
			s1.145,0.049,1.703,0.145c0.561-0.096,1.129-0.145,1.703-0.145s1.145,0.049,1.702,0.145c0.56-0.096,1.128-0.145,1.702-0.145
			s1.145,0.049,1.702,0.145c0.559-0.096,1.128-0.145,1.702-0.145s1.145,0.049,1.703,0.145c0.56-0.095,1.127-0.144,1.701-0.144
			c0.576,0,1.147,0.049,1.711,0.146c0.557-0.095,1.123-0.143,1.694-0.143c0.583,0,1.16,0.051,1.728,0.149
			c0.552-0.092,1.11-0.139,1.678-0.139c0.609,0,1.215,0.056,1.81,0.166c0.522-0.08,1.056-0.121,1.595-0.121
			c3.916,0,7.314,2.26,8.979,5.551c1.116,0.905,1.957,2.154,2.353,3.618l16.686,62c0.564,2.104,0.121,4.35-1.204,6.077
			c-1.323,1.729-3.378,2.742-5.556,2.742H7V80.057z"/>
		<path fill="#FFFFFF" d="M106.151,11.057h-0.338h-1.27c0.061,0,0.103-0.605,0.103-0.863c0-1.689-1.375-3.125-3.065-3.125
			c-0.629,0-1.215,0.162-1.701,0.489c-0.487-0.327-1.072-0.534-1.703-0.534c-0.629,0-1.215,0.186-1.701,0.512
			c-0.487-0.326-1.073-0.522-1.702-0.522c-0.63,0-1.215,0.19-1.703,0.517c-0.487-0.326-1.073-0.521-1.702-0.521
			c-0.63,0-1.216,0.191-1.701,0.518c-0.488-0.326-1.074-0.519-1.703-0.519s-1.215,0.192-1.703,0.519
			c-0.486-0.326-1.072-0.519-1.701-0.519c-0.63,0-1.215,0.191-1.703,0.519C82.37,7.202,81.784,7.01,81.155,7.01
			c-0.63,0-1.216,0.192-1.703,0.519c-0.486-0.326-1.072-0.519-1.703-0.519c-0.629,0-1.215,0.192-1.701,0.519
			C75.56,7.203,74.974,7.01,74.344,7.01c-0.629,0-1.215,0.192-1.701,0.519C72.156,7.203,71.57,7.01,70.941,7.01
			c-0.63,0-1.216,0.192-1.703,0.519C68.75,7.203,68.165,7.01,67.536,7.01c-0.63,0-1.216,0.192-1.703,0.519
			C65.346,7.203,64.76,7.01,64.131,7.01s-1.215,0.192-1.702,0.519c-0.487-0.326-1.073-0.519-1.702-0.519
			c-0.63,0-1.215,0.191-1.703,0.519c-0.486-0.327-1.072-0.519-1.701-0.519c-0.63,0-1.216,0.192-1.703,0.519
			c-0.488-0.326-1.073-0.519-1.703-0.519s-1.215,0.192-1.703,0.519c-0.486-0.326-1.072-0.519-1.701-0.519
			c-0.63,0-1.215,0.191-1.703,0.519c-0.486-0.327-1.072-0.519-1.701-0.519c-0.63,0-1.216,0.192-1.703,0.519
			c-0.487-0.326-1.073-0.519-1.703-0.519c-0.629,0-1.215,0.192-1.701,0.519c-0.488-0.326-1.073-0.519-1.703-0.519
			c-0.629,0-1.215,0.192-1.702,0.519C38.11,7.203,37.524,7.01,36.895,7.01c-0.63,0-1.216,0.192-1.703,0.519
			c-0.488-0.326-1.073-0.519-1.703-0.519c-0.629,0-1.215,0.192-1.701,0.519C31.294,7.201,30.709,7,30.079,7
			c-1.689,0-3.064,1.057-3.064,3.057h0.682c0-1,1.068-2.375,2.383-2.375c0.423,0,0.814,0.116,1.159,0.31
			c-0.504,0.546-0.819,1.065-0.819,2.065h0.682c0-1,0.261-1.225,0.681-1.654c0.421,0.43,0.682,1.14,0.682,1.787
			c0,0.261-0.053,0.867-0.13,0.867h-8.309h-0.338L7,73.057h33.712h48.414h33.711L106.151,11.057z M103.965,10.193
			c0,0.261-0.053,0.863-0.131,0.863h-2.693c0.061,0,0.102-0.605,0.102-0.863c0-0.8-0.314-1.582-0.818-2.129
			c0.345-0.193,0.736-0.284,1.158-0.284C102.896,7.78,103.965,8.879,103.965,10.193z M99.336,7.996
			c-0.504,0.547-0.818,1.061-0.818,2.061H99.2c0-1,0.262-1.225,0.682-1.654c0.42,0.43,0.681,1.14,0.681,1.787
			c0,0.261-0.054,0.867-0.13,0.867h-2.696c0.06,0,0.103-0.605,0.103-0.863c0-0.8-0.315-1.582-0.818-2.129
			c0.346-0.193,0.736-0.348,1.159-0.348S98.991,7.803,99.336,7.996z M95.931,7.996c-0.503,0.547-0.818,1.061-0.818,2.061h0.683
			c0-1,0.261-1.225,0.68-1.654c0.42,0.43,0.681,1.14,0.681,1.787c0,0.261-0.053,0.867-0.13,0.867h-2.695
			c0.06,0,0.102-0.605,0.102-0.863c0-0.8-0.314-1.582-0.819-2.129c0.347-0.193,0.737-0.348,1.16-0.348S95.586,7.803,95.931,7.996z
			 M92.526,7.996c-0.504,0.547-0.818,1.061-0.818,2.061h0.683c0-1,0.261-1.225,0.68-1.654c0.421,0.43,0.681,1.141,0.681,1.787
			c0,0.261-0.053,0.867-0.129,0.867h-2.695c0.061,0,0.103-0.605,0.103-0.863c0-0.8-0.315-1.582-0.819-2.129
			c0.346-0.193,0.736-0.348,1.158-0.348S92.182,7.803,92.526,7.996z M89.122,7.996c-0.504,0.547-0.818,1.061-0.818,2.061h0.682
			c0-1,0.262-1.225,0.682-1.654c0.42,0.43,0.681,1.14,0.681,1.787c0,0.261-0.054,0.867-0.13,0.867H87.52
			c0.061,0,0.102-0.605,0.102-0.863c0-0.8-0.314-1.582-0.817-2.129c0.345-0.193,0.735-0.348,1.159-0.348
			C88.385,7.717,88.776,7.803,89.122,7.996z M85.715,7.996c-0.502,0.547-0.817,1.061-0.817,2.061h0.683c0-1,0.26-1.225,0.68-1.654
			c0.42,0.43,0.681,1.14,0.681,1.787c0,0.261-0.053,0.867-0.13,0.867h-2.693c0.059,0,0.102-0.605,0.102-0.863
			c0-0.8-0.315-1.582-0.818-2.129c0.346-0.193,0.736-0.348,1.159-0.348S85.372,7.803,85.715,7.996z M82.312,7.996
			c-0.504,0.547-0.819,1.061-0.819,2.061h0.682c0-1,0.262-1.225,0.682-1.654c0.42,0.43,0.682,1.14,0.682,1.787
			c0,0.261-0.054,0.867-0.131,0.867h-2.693c0.06,0,0.102-0.605,0.102-0.863c0-0.8-0.314-1.582-0.818-2.129
			c0.346-0.193,0.736-0.348,1.159-0.348C81.575,7.717,81.967,7.803,82.312,7.996z M78.907,7.996
			c-0.504,0.547-0.818,1.061-0.818,2.061h0.682c0-1,0.261-1.225,0.682-1.654c0.42,0.43,0.68,1.14,0.68,1.787
			c0,0.261-0.053,0.867-0.129,0.867h-2.695c0.061,0,0.102-0.605,0.102-0.863c0-0.8-0.314-1.582-0.818-2.129
			c0.345-0.193,0.736-0.348,1.158-0.348C78.172,7.717,78.562,7.803,78.907,7.996z M75.5,7.996c-0.502,0.547-0.817,1.061-0.817,2.061
			h0.683c0-1,0.26-1.225,0.68-1.654c0.42,0.43,0.682,1.14,0.682,1.787c0,0.261-0.053,0.867-0.131,0.867H73.9
			c0.06,0,0.103-0.605,0.103-0.863c0-0.8-0.315-1.582-0.818-2.129c0.345-0.193,0.736-0.348,1.158-0.348
			C74.766,7.717,75.157,7.803,75.5,7.996z M72.097,7.996c-0.503,0.547-0.818,1.061-0.818,2.061h0.683c0-1,0.261-1.225,0.68-1.654
			c0.42,0.43,0.681,1.14,0.681,1.787c0,0.261-0.053,0.867-0.13,0.867h-2.693c0.06,0,0.102-0.605,0.102-0.863
			c0-0.8-0.314-1.582-0.819-2.129c0.347-0.193,0.737-0.348,1.16-0.348S71.752,7.803,72.097,7.996z M68.692,7.996
			c-0.504,0.547-0.818,1.061-0.818,2.061h0.682c0-1,0.261-1.225,0.681-1.654c0.42,0.43,0.681,1.14,0.681,1.787
			c0,0.261-0.053,0.867-0.129,0.867H67.09c0.06,0,0.102-0.605,0.102-0.863c0-0.8-0.314-1.582-0.818-2.129
			c0.346-0.193,0.736-0.348,1.16-0.348C67.956,7.717,68.347,7.803,68.692,7.996z M65.286,7.996
			c-0.503,0.547-0.818,1.061-0.818,2.061h0.682c0-1,0.261-1.225,0.68-1.654c0.42,0.43,0.681,1.14,0.681,1.787
			c0,0.261-0.054,0.867-0.13,0.867h-2.694c0.06,0,0.102-0.605,0.102-0.863c0-0.8-0.315-1.582-0.818-2.129
			c0.345-0.193,0.736-0.348,1.159-0.348C64.553,7.717,64.942,7.803,65.286,7.996z M61.882,7.996
			c-0.503,0.547-0.818,1.061-0.818,2.061h0.682c0-1,0.261-1.225,0.68-1.654c0.42,0.43,0.681,1.14,0.681,1.787
			c0,0.261-0.053,0.867-0.13,0.867h-2.694c0.06,0,0.102-0.605,0.102-0.863c0-0.8-0.315-1.582-0.818-2.129
			c0.345-0.193,0.736-0.348,1.159-0.348S61.538,7.803,61.882,7.996z M58.478,7.996c-0.504,0.547-0.819,1.061-0.819,2.061h0.682
			c0-1,0.261-1.225,0.681-1.654c0.42,0.43,0.681,1.14,0.681,1.787c0,0.261-0.053,0.867-0.13,0.867h-2.694
			c0.06,0,0.102-0.605,0.102-0.863c0-0.8-0.315-1.582-0.819-2.129c0.346-0.193,0.736-0.348,1.16-0.348
			C57.741,7.717,58.133,7.803,58.478,7.996z M55.072,7.996c-0.504,0.547-0.819,1.061-0.819,2.061h0.682c0-1,0.262-1.225,0.682-1.654
			c0.42,0.43,0.681,1.14,0.681,1.787c0,0.261-0.053,0.867-0.13,0.867h-2.695c0.061,0,0.102-0.605,0.102-0.863
			c0-0.8-0.315-1.584-0.819-2.129c0.345-0.193,0.736-0.348,1.159-0.348S54.728,7.803,55.072,7.996z M51.667,7.996
			c-0.504,0.545-0.819,1.061-0.819,2.061h0.682c0-1,0.261-1.225,0.682-1.654c0.42,0.43,0.681,1.14,0.681,1.787
			c0,0.261-0.053,0.867-0.131,0.867h-2.694c0.06,0,0.102-0.605,0.102-0.863c0-0.8-0.315-1.582-0.818-2.129
			c0.345-0.193,0.736-0.348,1.159-0.348C50.931,7.717,51.323,7.803,51.667,7.996z M48.263,7.996
			c-0.504,0.547-0.819,1.061-0.819,2.061h0.682c0-1,0.261-1.225,0.681-1.654c0.42,0.43,0.681,1.14,0.681,1.787
			c0,0.261-0.053,0.867-0.13,0.867h-2.694c0.06,0,0.102-0.605,0.102-0.863c0-0.8-0.315-1.582-0.819-2.129
			c0.346-0.193,0.737-0.348,1.16-0.348C47.526,7.717,47.918,7.803,48.263,7.996z M44.858,7.996
			c-0.504,0.547-0.819,1.061-0.819,2.061h0.682c0-1,0.261-1.225,0.681-1.654c0.42,0.43,0.681,1.14,0.681,1.787
			c0,0.261-0.053,0.867-0.13,0.867h-2.694c0.06,0,0.102-0.605,0.102-0.863c0-0.8-0.315-1.584-0.819-2.129
			c0.344-0.193,0.736-0.348,1.158-0.348C44.121,7.717,44.513,7.803,44.858,7.996z M41.453,7.996
			c-0.504,0.545-0.819,1.061-0.819,2.061h0.682c0-1,0.261-1.225,0.681-1.654c0.421,0.43,0.682,1.14,0.682,1.787
			c0,0.261-0.053,0.867-0.13,0.867h-2.696c0.06,0,0.102-0.605,0.102-0.863c0-0.8-0.315-1.582-0.818-2.129
			c0.345-0.193,0.736-0.348,1.159-0.348C40.719,7.717,41.108,7.803,41.453,7.996z M38.048,7.996
			c-0.503,0.547-0.818,1.061-0.818,2.061h0.682c0-1,0.261-1.225,0.68-1.654c0.42,0.43,0.681,1.14,0.681,1.787
			c0,0.261-0.053,0.867-0.13,0.867h-2.694c0.06,0,0.102-0.605,0.102-0.863c0-0.8-0.315-1.582-0.819-2.129
			c0.346-0.193,0.736-0.348,1.16-0.348C37.313,7.717,37.704,7.803,38.048,7.996z M32.325,8.004c0.344-0.193,0.736-0.313,1.158-0.313
			c0.423,0,0.814,0.112,1.159,0.306c-0.504,0.547-0.819,1.061-0.819,2.061h0.682c0-1,0.262-1.225,0.682-1.654
			c0.42,0.43,0.681,1.14,0.681,1.787c0,0.261-0.053,0.867-0.13,0.867h-2.694c0.06,0,0.102-0.605,0.102-0.863
			C33.145,9.394,32.829,8.55,32.325,8.004z"/>
	</g>
	<g>
		<polygon fill="#5CAA9B" points="7,73.093 89.125,73.093 105.813,10.816 23.687,10.816 		"/>
		<polygon fill="#34849B" points="7,73.093 89.125,73.093 105.813,64.271 61.888,64.271 		"/>
		<g>
			<polygon fill="#6BC6B5" points="122.836,73.093 40.712,73.093 24.024,10.816 106.151,10.816 			"/>
			<polygon fill="#5CAA9B" points="43.808,28.222 35.921,28.222 33.809,20.336 41.694,20.336 			"/>
			<polygon fill="#5CAA9B" points="53.77,28.222 45.884,28.222 43.771,20.336 51.657,20.336 			"/>
			<polygon fill="#FFFFFF" points="63.733,28.222 55.847,28.222 53.731,20.336 61.619,20.336 			"/>
			<polygon fill="#FFFFFF" points="73.694,28.222 65.808,28.222 63.694,20.336 71.581,20.336 			"/>
			<polygon fill="#FFFFFF" points="83.656,28.222 75.771,28.222 73.656,20.336 81.542,20.336 			"/>
			<polygon fill="#E6E6E6" points="93.618,28.222 85.732,28.222 83.62,20.336 91.506,20.336 			"/>
			<polygon fill="#CCCCCC" points="103.581,28.222 95.694,28.222 93.581,20.336 101.467,20.336 			"/>
			<polygon fill="#FFFFFF" points="46.428,38 38.54,38 36.429,30.112 44.313,30.112 			"/>
			<polygon fill="#FFFFFF" points="56.39,38 48.503,38 46.39,30.112 54.277,30.112 			"/>
			<polygon fill="#FFFFFF" points="66.353,38 58.465,38 56.353,30.112 64.238,30.112 			"/>
			<polygon fill="#FFFFFF" points="76.314,38 68.429,38 66.314,30.112 74.2,30.112 			"/>
			<polygon fill="#EF6159" points="86.276,38 78.39,38 76.276,30.112 84.163,30.112 			"/>
			<polygon fill="#E6E6E6" points="96.237,38 88.352,38 86.239,30.112 94.125,30.112 			"/>
			<polygon fill="#CCCCCC" points="106.202,38 98.315,38 96.202,30.112 104.086,30.112 			"/>
			<polygon fill="#FFFFFF" points="49.048,47.777 41.161,47.777 39.048,39.89 46.935,39.89 			"/>
			<polygon fill="#FFFFFF" points="59.011,47.777 51.123,47.777 49.011,39.89 56.896,39.89 			"/>
			<polygon fill="#FFFFFF" points="68.973,47.777 61.085,47.777 58.973,39.89 66.858,39.89 			"/>
			<polygon fill="#FFFFFF" points="78.935,47.777 71.047,47.777 68.935,39.89 76.821,39.89 			"/>
			<polygon fill="#FFFFFF" points="88.896,47.777 81.01,47.777 78.897,39.89 86.784,39.89 			"/>
			<polygon fill="#E6E6E6" points="98.858,47.777 90.972,47.777 88.858,39.89 96.745,39.89 			"/>
			<polygon fill="#CCCCCC" points="108.82,47.777 100.935,47.777 98.821,39.89 106.708,39.89 			"/>
			<polygon fill="#FFFFFF" points="51.667,57.554 43.781,57.554 41.667,49.667 49.555,49.667 			"/>
			<polygon fill="#FFFFFF" points="61.63,57.554 53.745,57.554 51.631,49.667 59.517,49.667 			"/>
			<polygon fill="#FFFFFF" points="71.592,57.554 63.706,57.554 61.593,49.667 69.479,49.667 			"/>
			<polygon fill="#FFFFFF" points="81.554,57.554 73.668,57.554 71.554,49.667 79.44,49.667 			"/>
			<polygon fill="#FFFFFF" points="91.517,57.554 83.629,57.554 81.517,49.667 89.403,49.667 			"/>
			<polygon fill="#E6E6E6" points="101.479,57.554 93.59,57.554 91.479,49.667 99.364,49.667 			"/>
			<polygon fill="#CCCCCC" points="111.44,57.554 103.555,57.554 101.44,49.667 109.327,49.667 			"/>
			<polygon fill="#FFFFFF" points="54.288,67.332 46.401,67.332 44.288,59.444 52.174,59.444 			"/>
			<polygon fill="#FFFFFF" points="64.249,67.332 56.364,67.332 54.25,59.444 62.138,59.444 			"/>
			<polygon fill="#FFFFFF" points="74.211,67.332 66.325,67.332 64.212,59.444 72.099,59.444 			"/>
			<polygon fill="#FFFFFF" points="84.174,67.332 76.288,67.332 74.174,59.444 82.061,59.444 			"/>
			<polygon fill="#5CAA9B" points="94.136,67.332 86.249,67.332 84.136,59.444 92.022,59.444 			"/>
			<polygon fill="#5CAA9B" points="104.098,67.332 96.211,67.332 94.098,59.444 101.985,59.444 			"/>
			<polygon fill="#5CAA9B" points="114.062,67.332 106.174,67.332 104.06,59.444 111.947,59.444 			"/>
			<g>
				<g>
					
						<rect x="77.571" y="33.523" transform="matrix(-0.7852 -0.6193 0.6193 -0.7852 123.7066 110.6402)" fill="#282D33" width="6.946" height="0.681"/>
				</g>
				<g>
					
						<rect x="80.704" y="31.192" transform="matrix(-0.8065 -0.5912 0.5912 -0.8065 126.3883 109.0808)" fill="#282D33" width="0.681" height="5.332"/>
				</g>
			</g>
		</g>
		<g>
			<g>
				<path fill="#282D33" d="M30.079,13.139v-0.682c1.314,0,2.384-1.069,2.384-2.384c0-1.315-1.07-2.383-2.384-2.383
					s-2.383,1.068-2.383,2.383h-0.681c0-1.689,1.375-3.064,3.064-3.064c1.69,0,3.065,1.375,3.065,3.064
					C33.144,11.764,31.769,13.139,30.079,13.139z"/>
			</g>
			<g>
				<path fill="#282D33" d="M33.483,13.139v-0.682c1.314,0,2.384-1.069,2.384-2.384c0-1.315-1.07-2.383-2.384-2.383
					S31.1,8.758,31.1,10.073h-0.681c0-1.689,1.375-3.064,3.064-3.064c1.69,0,3.065,1.375,3.065,3.064
					C36.548,11.764,35.173,13.139,33.483,13.139z"/>
			</g>
			<g>
				<path fill="#282D33" d="M36.89,13.139v-0.682c1.313,0,2.382-1.069,2.382-2.384c0-1.315-1.069-2.383-2.382-2.383
					c-1.315,0-2.385,1.068-2.385,2.383h-0.681c0-1.689,1.375-3.064,3.066-3.064c1.689,0,3.063,1.375,3.063,3.064
					C39.953,11.764,38.579,13.139,36.89,13.139z"/>
			</g>
			<g>
				<path fill="#282D33" d="M40.294,13.139v-0.682c1.314,0,2.384-1.069,2.384-2.384c0-1.315-1.07-2.383-2.384-2.383
					s-2.383,1.068-2.383,2.383H37.23c0-1.689,1.375-3.064,3.064-3.064c1.69,0,3.065,1.375,3.065,3.064
					C43.359,11.764,41.984,13.139,40.294,13.139z"/>
			</g>
			<g>
				<path fill="#282D33" d="M43.698,13.139v-0.682c1.314,0,2.384-1.069,2.384-2.384c0-1.315-1.07-2.383-2.384-2.383
					c-1.314,0-2.383,1.068-2.383,2.383h-0.681c0-1.689,1.375-3.064,3.064-3.064c1.69,0,3.065,1.375,3.065,3.064
					C46.763,11.764,45.388,13.139,43.698,13.139z"/>
			</g>
			<g>
				<path fill="#282D33" d="M47.104,13.139v-0.682c1.313,0,2.382-1.069,2.382-2.384c0-1.315-1.068-2.383-2.382-2.383
					s-2.384,1.068-2.384,2.383h-0.68c0-1.689,1.375-3.064,3.065-3.064c1.689,0,3.063,1.375,3.063,3.064
					C50.167,11.764,48.793,13.139,47.104,13.139z"/>
			</g>
			<g>
				<path fill="#282D33" d="M50.509,13.139v-0.682c1.314,0,2.383-1.069,2.383-2.384c0-1.315-1.069-2.383-2.383-2.383
					c-1.314,0-2.384,1.068-2.384,2.383h-0.681c0-1.689,1.375-3.064,3.065-3.064c1.689,0,3.064,1.375,3.064,3.064
					C53.573,11.764,52.198,13.139,50.509,13.139z"/>
			</g>
			<g>
				<path fill="#282D33" d="M53.913,13.139v-0.682c1.314,0,2.384-1.069,2.384-2.384c0-1.315-1.07-2.383-2.384-2.383
					s-2.384,1.068-2.384,2.383h-0.681c0-1.689,1.375-3.064,3.065-3.064s3.065,1.375,3.065,3.064
					C56.978,11.764,55.603,13.139,53.913,13.139z"/>
			</g>
			<g>
				<path fill="#282D33" d="M57.319,13.139v-0.682c1.313,0,2.382-1.069,2.382-2.384c0-1.315-1.068-2.383-2.382-2.383
					c-1.315,0-2.385,1.068-2.385,2.383h-0.681c0-1.689,1.375-3.064,3.066-3.064c1.689,0,3.063,1.375,3.063,3.064
					C60.382,11.764,59.008,13.139,57.319,13.139z"/>
			</g>
			<g>
				<path fill="#282D33" d="M60.724,13.139v-0.682c1.313,0,2.382-1.069,2.382-2.384c0-1.315-1.069-2.383-2.382-2.383
					c-1.314,0-2.384,1.068-2.384,2.383h-0.681c0-1.689,1.375-3.064,3.065-3.064c1.689,0,3.063,1.375,3.063,3.064
					C63.787,11.764,62.413,13.139,60.724,13.139z"/>
			</g>
			<g>
				<path fill="#282D33" d="M64.128,13.139v-0.682c1.313,0,2.382-1.069,2.382-2.384c0-1.315-1.069-2.383-2.382-2.383
					c-1.314,0-2.383,1.068-2.383,2.383h-0.681c0-1.689,1.375-3.064,3.064-3.064s3.063,1.375,3.063,3.064
					C67.191,11.764,65.817,13.139,64.128,13.139z"/>
			</g>
			<g>
				<path fill="#282D33" d="M67.532,13.139v-0.682c1.314,0,2.385-1.069,2.385-2.384c0-1.315-1.069-2.383-2.385-2.383
					c-1.314,0-2.383,1.068-2.383,2.383h-0.681c0-1.689,1.375-3.064,3.064-3.064c1.69,0,3.065,1.375,3.065,3.064
					C70.598,11.764,69.223,13.139,67.532,13.139z"/>
			</g>
			<g>
				<path fill="#282D33" d="M70.938,13.139v-0.682c1.313,0,2.382-1.069,2.382-2.384c0-1.315-1.067-2.383-2.382-2.383
					s-2.384,1.068-2.384,2.383h-0.681c0-1.689,1.375-3.064,3.064-3.064S74,8.384,74,10.073
					C74.002,11.764,72.627,13.139,70.938,13.139z"/>
			</g>
			<g>
				<path fill="#282D33" d="M74.342,13.139v-0.682c1.314,0,2.384-1.069,2.384-2.384c0-1.315-1.069-2.383-2.384-2.383
					c-1.313,0-2.383,1.068-2.383,2.383h-0.682c0-1.689,1.375-3.064,3.064-3.064s3.064,1.375,3.064,3.064
					C77.407,11.764,76.032,13.139,74.342,13.139z"/>
			</g>
			<g>
				<path fill="#282D33" d="M77.747,13.139v-0.682c1.314,0,2.385-1.069,2.385-2.384c0-1.315-1.069-2.383-2.385-2.383
					c-1.314,0-2.383,1.068-2.383,2.383h-0.682c0-1.689,1.375-3.064,3.064-3.064s3.064,1.375,3.064,3.064
					C80.813,11.764,79.438,13.139,77.747,13.139z"/>
			</g>
			<g>
				<path fill="#282D33" d="M81.153,13.139v-0.682c1.313,0,2.383-1.069,2.383-2.384c0-1.315-1.068-2.383-2.383-2.383
					s-2.384,1.068-2.384,2.383h-0.683c0-1.689,1.375-3.064,3.065-3.064c1.688,0,3.063,1.375,3.063,3.064
					C84.217,11.764,82.842,13.139,81.153,13.139z"/>
			</g>
			<g>
				<path fill="#282D33" d="M84.558,13.139v-0.682c1.313,0,2.382-1.069,2.382-2.384c0-1.315-1.068-2.383-2.382-2.383
					s-2.384,1.068-2.384,2.383h-0.682c0-1.689,1.375-3.064,3.064-3.064s3.063,1.375,3.063,3.064
					C87.622,11.764,86.247,13.139,84.558,13.139z"/>
			</g>
			<g>
				<path fill="#282D33" d="M87.961,13.139v-0.682c1.314,0,2.385-1.069,2.385-2.384c0-1.315-1.07-2.383-2.385-2.383
					c-1.313,0-2.383,1.068-2.383,2.383h-0.682c0-1.689,1.375-3.064,3.064-3.064s3.064,1.375,3.064,3.064
					C91.027,11.764,89.652,13.139,87.961,13.139z"/>
			</g>
			<g>
				<path fill="#282D33" d="M91.366,13.139v-0.682c1.314,0,2.385-1.069,2.385-2.384c0-1.315-1.069-2.383-2.385-2.383
					c-1.313,0-2.382,1.068-2.382,2.383h-0.683c0-1.689,1.375-3.064,3.064-3.064s3.064,1.375,3.064,3.064
					C94.432,11.764,93.057,13.139,91.366,13.139z"/>
			</g>
			<g>
				<path fill="#282D33" d="M94.772,13.139v-0.682c1.313,0,2.382-1.069,2.382-2.384c0-1.315-1.067-2.383-2.382-2.383
					s-2.383,1.068-2.383,2.383h-0.682c0-1.689,1.375-3.064,3.063-3.064s3.063,1.375,3.063,3.064
					C97.836,11.764,96.461,13.139,94.772,13.139z"/>
			</g>
			<g>
				<path fill="#282D33" d="M98.176,13.139v-0.682c1.314,0,2.385-1.069,2.385-2.384c0-1.315-1.07-2.383-2.385-2.383
					c-1.313,0-2.383,1.068-2.383,2.383h-0.682c0-1.689,1.375-3.064,3.064-3.064s3.064,1.375,3.064,3.064
					C101.243,11.764,99.868,13.139,98.176,13.139z"/>
			</g>
			<g>
				<path fill="#282D33" d="M101.581,13.139v-0.682c1.314,0,2.385-1.069,2.385-2.384c0-1.315-1.069-2.383-2.385-2.383
					c-1.313,0-2.381,1.068-2.381,2.383h-0.683c0-1.689,1.374-3.064,3.063-3.064s3.064,1.375,3.064,3.064
					C104.646,11.764,103.271,13.139,101.581,13.139z"/>
			</g>
		</g>
	</g>
</g>
</svg>
