<?xml version="1.0" encoding="utf-8"?>
<!-- Generator: Adobe Illustrator 16.0.0, SVG Export Plug-In . SVG Version: 6.00 Build 0)  -->
<!DOCTYPE svg PUBLIC "-//W3C//DTD SVG 1.1//EN" "http://www.w3.org/Graphics/SVG/1.1/DTD/svg11.dtd">
<svg version="1.1" id="Layer_1" xmlns="http://www.w3.org/2000/svg" xmlns:xlink="http://www.w3.org/1999/xlink" x="0px" y="0px"
	 width="131.658px" height="114.863px" viewBox="0 0 131.658 114.863" enable-background="new 0 0 131.658 114.863"
	 xml:space="preserve">
<g>
	<path fill="#FFFFFF" d="M6.456,26.537c4.698-5.309,6.207-11.885,13.152-15.688c4.497-2.466,19.057-5.345,22.13,0.139
		c2.972-0.195,2.874-3.037,4.836-3.813c2.079-0.821,4.177-0.471,6.546-0.637c6.034-0.426,7.247-1.99,11.783-4.229
		c2.73-1.351,11.125-3.617,14.159-1.334c3.522,2.651,1.551,9.61,2.828,13.479c5.166,0.328,8.928-0.625,10.682,5.332
		c2.752,0.127,9.115-1.092,11,1.207c2.101,2.559-1.076,9.115-1.047,11.959c10.924,1.432,17.416,3.881,15.299,16.303
		c-0.338,1.988-1.938,3.162-1.367,5.949c0.961,4.699,2.094,1.744,4.254,4.779c2.313,3.252,3.066,2.125,8.161,7.254
		c8.252,8.311-4.097,13.432-7.729,18.135c-1.801,2.334-1.983,4.025-4.469,6.162c-1.41,1.213-3.43,0.564-4.75,1.951
		c-1.471,1.543-1.271,3.563-2.279,4.887c-3.146,4.131-7.733,11.314-13.801,13.715c-5.186,2.054-15.728,3.765-20.236,2.113
		c-2.44-0.896-4.545-4.633-6.783-5.379c-3.263-1.088-7.15,0.231-10.499,0.383c-7.697,0.346-14.684,4.941-21.367,3.98
		c-7.764-1.117-11.836-8.103-12.496-15.479c-0.896-9.957-1.521-10.629-9.857-15.684C0.42,73.422-5.589,39.695,6.456,26.537z"/>
	<path fill="#7CCDCD" d="M15.008,73.359c5.447,3.918,9.266,3.918,36.667,5.34c9.29,0.482,52-1.99,60-2.035s0.78-10.567-27.886-7.508
		c-28.667,3.063-72.883-9.354-72.498-2.611C11.675,73.285,13.433,72.227,15.008,73.359z"/>
	<g>
		<path fill="#BE1E2D" d="M10.622,44.557c1.742-8.902,9.697-26.785,18.899-27.336C57.116,15.578,51.619,46.44,51.619,46.44
			c15.458,3.688,19.036,5.307,37.374,9.824c3.525-6.293,2.843-14.63,6.176-21.257c2.779,0.82,5.797,1.779,8.301,3.05
			c-1.393,2.53-1.098,5.086-0.373,7.645c3.842,0.4,2.316-4.793,3.688-7.131c6.973,2.07,7.978,2.629,5.587,9.402
			c-1.614,4.579-3.35,9.178-4.801,13.791c3.201,0.471,9.841,2.418,8.465,7.998c-4.09,7.122-29.126-4.229-35.354-6.429
			c-12.791-4.516-18.103-4.453-30.579-8.612C47.017,62.246,36.28,75.846,21.2,70.518C7.468,65.67,9.194,51.838,10.622,44.557z
			 M25.241,55.633c4.418,0.441,20.547-3.229,20.27-9.227c-0.141-2.996-5.871-4.863-7.947-6.072
			c-2.969-1.725-6.783-6.055-10.175-6.582c-8.866-1.383-10.951,10.064-2.102,11.396c1.653,0.25,0.774,1.035,0.366,1.387
			c-2.415,0.885-4.541-0.318-5.981,2.98C17.989,53.361,22.045,55.307,25.241,55.633z"/>
		<path fill="#231F20" d="M110.246,72.831c-7.408,0-19.072-4.595-26.042-7.34c-1.544-0.608-2.878-1.134-3.773-1.45
			c-6.695-2.363-11.234-3.442-16.042-4.586c-4.063-0.967-8.26-1.965-13.869-3.806c-3.116,6.998-11.404,16.825-22.55,16.825
			c-2.312,0-4.674-0.422-7.021-1.25C5.685,65.836,8.847,49.711,9.886,44.412c1.56-7.971,9.412-27.331,19.59-27.939
			c0.73-0.043,1.44-0.064,2.125-0.064c6.972,0,12.343,2.192,15.963,6.516c6.514,7.777,5.327,19.892,4.901,22.948
			c7.425,1.783,12.133,3.1,17.108,4.488c5.066,1.416,10.305,2.879,19.033,5.037c1.555-3.013,2.192-6.455,2.867-10.089
			c0.666-3.601,1.356-7.322,3.023-10.638l0.281-0.56l0.601,0.177c2.877,0.851,5.89,1.813,8.427,3.101l0.691,0.351l-0.374,0.68
			c-1.235,2.246-0.97,4.541-0.452,6.549c1.16-0.091,1.396-1.12,1.635-3.342c0.131-1.219,0.268-2.479,0.828-3.435l0.297-0.506
			l0.563,0.167c3.827,1.137,6.036,1.861,6.903,3.563c0.785,1.539,0.315,3.58-0.822,6.81c-0.458,1.299-0.926,2.599-1.395,3.899
			c-1.065,2.965-2.164,6.022-3.139,9.049c1.977,0.393,5.736,1.455,7.488,4.063c0.918,1.366,1.162,2.949,0.729,4.708l-0.077,0.192
			c-1.027,1.789-3.192,2.696-6.438,2.696C110.247,72.831,110.247,72.831,110.246,72.831z M49.674,53.787l0.665,0.222
			c5.877,1.96,10.208,2.99,14.397,3.986c4.633,1.104,9.423,2.241,16.193,4.632c0.922,0.325,2.202,0.829,3.824,1.47
			c6.87,2.705,18.369,7.234,25.492,7.234c0,0,0,0,0.001,0c2.606,0,4.317-0.624,5.084-1.854c0.298-1.305,0.121-2.419-0.542-3.406
			c-1.367-2.035-4.682-3.176-7.328-3.564l-0.871-0.128l0.264-0.84c1.045-3.32,2.252-6.677,3.418-9.922
			c0.467-1.299,0.935-2.597,1.391-3.893c1.124-3.188,1.367-4.712,0.9-5.628c-0.549-1.077-2.398-1.729-5.365-2.619
			c-0.219,0.651-0.309,1.49-0.397,2.309c-0.225,2.086-0.517,5.003-3.782,4.662l-0.504-0.053l-0.14-0.489
			c-0.63-2.226-1.09-4.829,0.088-7.505c-2.106-0.989-4.528-1.783-6.896-2.492c-1.379,2.991-2.008,6.385-2.619,9.673
			c-0.701,3.788-1.428,7.705-3.301,11.049l-0.279,0.499l-0.555-0.137c-9.093-2.24-14.457-3.739-19.643-5.188
			c-5.11-1.429-9.937-2.776-17.726-4.637l-0.688-0.164l0.124-0.695c0.025-0.143,2.424-14.202-4.47-22.429
			c-3.322-3.964-8.305-5.974-14.81-5.974c-0.656,0-1.337,0.021-2.036,0.063c-8.621,0.516-16.436,17.677-18.208,26.73
			c-0.977,4.984-3.951,20.151,10.092,25.109c2.186,0.771,4.38,1.164,6.521,1.164c10.754,0,18.713-9.892,21.438-16.538L49.674,53.787
			z M26.06,56.419L26.06,56.419c-0.333,0-0.632-0.014-0.894-0.04c-2.188-0.223-4.938-1.172-6.102-3.166
			c-0.477-0.816-0.878-2.175-0.08-4c1.168-2.676,2.906-2.853,4.438-3.009c0.583-0.059,1.185-0.12,1.784-0.311
			c-0.011-0.002-0.021-0.004-0.033-0.006c-4.66-0.7-6.524-3.979-6.305-6.919c0.226-3.022,2.729-6.083,7.075-6.083
			c0.504,0,1.029,0.041,1.56,0.124c2.381,0.37,4.774,2.313,7.088,4.19c1.203,0.977,2.339,1.898,3.348,2.484
			c0.429,0.25,1.039,0.535,1.745,0.867c2.719,1.278,6.444,3.029,6.575,5.817c0.059,1.265-0.469,2.489-1.567,3.64
			C40.733,54.157,30.308,56.419,26.06,56.419z M25.944,34.387c-3.592,0-5.41,2.434-5.579,4.693
			c-0.156,2.084,1.069,4.729,5.033,5.324c0.33,0.05,1.333,0.201,1.564,1.005c0.228,0.789-0.506,1.422-0.82,1.691l-0.231,0.136
			c-0.838,0.308-1.634,0.388-2.336,0.46c-1.444,0.146-2.398,0.243-3.216,2.116c-0.445,1.017-0.444,1.881,0.001,2.644
			c0.825,1.413,3.084,2.238,4.957,2.431c3.409,0.339,14.59-2.036,18.291-5.912c0.804-0.844,1.192-1.695,1.154-2.534
			c-0.089-1.885-3.475-3.478-5.715-4.529c-0.738-0.347-1.375-0.646-1.861-0.929c-1.109-0.646-2.289-1.604-3.538-2.616
			c-2.059-1.671-4.393-3.565-6.375-3.873C26.819,34.422,26.372,34.387,25.944,34.387z"/>
	</g>
	<g>
		<path fill="#231F20" d="M59.232,10.468c0.086,0,0.473,0.043,1.16,0.13c0.028,0,0.093,0.008,0.194,0.021
			c0.1,0.015,0.179,0.021,0.236,0.021l0.043,0.043h0.043c0.2,0,0.314,0.028,0.344,0.086c1.118,0.028,2.164,0.172,3.139,0.43
			c0,0.029,0.028,0.072,0.086,0.129l0.087,0.129h0.258c0.114,0.115,0.172,0.201,0.172,0.258c0.086,0,0.172,0.037,0.258,0.108
			s0.157,0.107,0.215,0.107c0,0.058,0.028,0.129,0.086,0.215c0.058,0.086,0.086,0.156,0.086,0.215l-0.301,0.302
			c-0.058,0.057-0.229,0.271-0.516,0.646c-0.431,0.229-0.731,0.373-0.903,0.43H63.79c-0.287,0-0.531,0.072-0.731,0.215
			c-0.286,0-0.831,0.059-1.634,0.172c-0.028,0.029-0.079,0.06-0.15,0.086c-0.072,0.029-0.122,0.06-0.15,0.086
			c0.086,0.518,0.129,0.789,0.129,0.817c0,0.201-0.043,0.33-0.129,0.388c0,0.058,0.014,0.129,0.043,0.215
			c0.028,0.086,0.043,0.145,0.043,0.173s-0.021,0.094-0.064,0.192c-0.043,0.102-0.064,0.193-0.064,0.279
			c0,0.115,0.043,0.344,0.129,0.688c0,0.029-0.015,0.06-0.043,0.086v0.088c0,0.058,0.014,0.149,0.043,0.278
			c0.028,0.129,0.043,0.223,0.043,0.279c0,0.029-0.021,0.087-0.064,0.173s-0.064,0.143-0.064,0.172c0,0.028,0.007,0.078,0.021,0.15
			c0.014,0.07,0.021,0.137,0.021,0.192c0,0.145-0.058,0.358-0.172,0.646l0.129,0.258c-0.029,0.086-0.051,0.273-0.064,0.561
			c-0.015,0.285-0.064,0.486-0.15,0.603v0.301c0,0.144-0.008,0.322-0.021,0.537c-0.015,0.215-0.021,0.381-0.021,0.494
			c0,0.201,0.014,0.359,0.043,0.473c0,0.029,0.043,0.086,0.129,0.172c0.028,0.06,0.028,0.103,0,0.131l-0.043,0.129
			c0.086,0.144,0.129,0.286,0.129,0.431c0,0.229-0.043,0.43-0.129,0.602c0.028,0.173,0.028,0.287,0,0.345
			c0.057,0.028,0.086,0.144,0.086,0.344c0,0.029,0,0.072,0,0.129l0.043,0.086c0,0.06-0.029,0.146-0.086,0.258l0.043,0.086
			c0,0.06,0,0.103,0,0.129c0,0.06-0.015,0.123-0.043,0.194c-0.029,0.071-0.043,0.122-0.043,0.15
			c0.028,0.058,0.071,0.106,0.129,0.149c0.057,0.043,0.086,0.079,0.086,0.107c-0.029,0.086-0.029,0.201,0,0.345
			c0.028,0.144,0.028,0.243,0,0.301c-0.029,0.059-0.072,0.129-0.129,0.216c-0.058,0.086-0.086,0.144-0.086,0.172
			s0.014,0.063,0.043,0.106c0.028,0.043,0.043,0.079,0.043,0.107v0.215c0,0.201-0.043,0.416-0.129,0.645
			c0.114,0.23,0.172,0.445,0.172,0.646L61.081,28.7c0.028,0.028,0.043,0.229,0.043,0.602c0,0.087,0.028,0.201,0.086,0.345
			c0.057,0.145,0.086,0.258,0.086,0.344c0,0.115-0.043,0.215-0.129,0.301c-0.029,0.029-0.094,0.064-0.193,0.107
			c-0.101,0.043-0.165,0.106-0.193,0.193c-0.029,0-0.107,0.021-0.236,0.064c-0.13,0.043-0.237,0.063-0.323,0.063
			c-0.058,0.059-0.444,0.243-1.161,0.561L58.2,31.409c-0.029,0-0.064,0.007-0.107,0.021c-0.043,0.014-0.079,0.021-0.107,0.021
			c-0.059,0-0.166-0.015-0.323-0.043c-0.157-0.029-0.279-0.043-0.365-0.043l-0.172,0.043c-0.344-0.086-0.545-0.129-0.602-0.129
			h-0.087c-0.172-0.173-0.315-0.287-0.43-0.345c-0.028-0.028-0.107-0.129-0.236-0.302s-0.251-0.285-0.365-0.345
			c0-0.086-0.029-0.156-0.086-0.215c-0.459-0.458-0.688-0.888-0.688-1.289c0-0.144-0.015-0.229-0.043-0.259
			c-0.029-0.028-0.029-0.059,0-0.086l0.043-0.043c-0.086-0.086-0.129-0.2-0.129-0.345v-0.474c0-0.027,0.014-0.057,0.043-0.086
			c0.028-0.027,0.043-0.057,0.043-0.086c0-0.027-0.021-0.07-0.064-0.129c-0.043-0.058-0.064-0.101-0.064-0.129
			c0.057-1.521,0.114-2.408,0.172-2.666c0-0.058,0.028-0.101,0.086-0.129c0-0.028,0.007-0.043,0.021-0.043
			c0.014,0,0.021-0.015,0.021-0.043c-0.086-0.058-0.071-0.144,0.043-0.259h-0.086c-0.058,0-0.086-0.014-0.086-0.043l0.043-0.859
			c0-0.028,0.021-0.059,0.064-0.086c0.043-0.028,0.064-0.059,0.064-0.086c0-0.028-0.015-0.059-0.043-0.086
			c-0.028-0.028-0.043-0.059-0.043-0.086c0-0.028,0.007-0.236,0.021-0.624c0.015-0.388,0.05-0.651,0.107-0.796
			c0-0.027-0.015-0.057-0.043-0.086v-0.086c0.028-0.258,0.043-0.658,0.043-1.204v-2.192c0-0.086,0.021-0.208,0.064-0.365
			s0.064-0.28,0.064-0.366c0.028-0.057,0.058-0.178,0.086-0.365c0.028-0.186,0.086-0.293,0.173-0.321
			c-0.059-0.229-0.087-0.372-0.087-0.431c0-0.057,0.036-0.186,0.108-0.387c0.071-0.201,0.121-0.344,0.15-0.431
			c0.028-0.086,0.05-0.2,0.064-0.344c0.014-0.145,0.035-0.259,0.064-0.346c0.172-0.344,0.258-0.543,0.258-0.602
			c-0.144-0.086-0.423-0.156-0.839-0.215c-0.416-0.058-0.695-0.144-0.838-0.259h-0.129c-0.172,0-0.287-0.027-0.345-0.086
			c-0.286,0-0.43-0.057-0.43-0.172H52.95c-0.086-0.057-0.272-0.144-0.56-0.258c-0.286-0.115-0.487-0.215-0.602-0.301v-0.086
			c0-0.087,0.014-0.188,0.043-0.302c0.028-0.114,0.043-0.188,0.043-0.216l0.774-0.603c0.057,0,0.143-0.035,0.258-0.107
			c0.114-0.069,0.229-0.106,0.344-0.106c0.028,0,0.05,0.016,0.064,0.043c0.015,0.029,0.05,0.043,0.107,0.043
			c0.659-0.144,1.046-0.215,1.161-0.215h0.129c0.286-0.2,0.659-0.302,1.118-0.302c0.086-0.057,0.229-0.086,0.43-0.086h0.302
			l0.559-0.129c0.057,0,0.114,0.008,0.172,0.021c0.058,0.015,0.114,0.021,0.172,0.021c0.028,0,0.071-0.007,0.129-0.021
			c0.058-0.015,0.101-0.021,0.129-0.021h0.345c0.314,0,0.559,0.016,0.73,0.043C58.887,10.482,59.031,10.468,59.232,10.468z"/>
		<path fill="#231F20" d="M73.164,6.426h0.172c0.028,0,0.079,0.028,0.149,0.087c0.072,0.058,0.137,0.086,0.193,0.086
			c0.028,0,0.071-0.016,0.129-0.043c0.059,0.086,0.174,0.129,0.346,0.129c0.057,0,0.121-0.008,0.193-0.021
			c0.07-0.015,0.12-0.021,0.149-0.021c0.028,0.027,0.086,0.079,0.172,0.149c0.086,0.071,0.157,0.136,0.215,0.193
			c0.058,0.057,0.114,0.13,0.173,0.216c0.144,0,0.301,0.078,0.473,0.236c0.173,0.156,0.33,0.235,0.474,0.235
			c0.058,0.145,0.192,0.31,0.408,0.494c0.215,0.188,0.337,0.295,0.366,0.322c0.057,0.516,0.129,0.832,0.215,0.946l-0.043,0.172
			c0,0.086,0.014,0.187,0.043,0.302c0.027,0.114,0.043,0.215,0.043,0.301c0,0.145-0.029,0.244-0.086,0.301l0.129,0.302v0.258
			c-0.059,0.059-0.086,0.188-0.086,0.387v0.388c0,0.028-0.016,0.059-0.043,0.087l-0.043,0.043c-0.029,0.113-0.043,0.4-0.043,0.859
			c0,0.201-0.029,0.344-0.086,0.431c-0.029,0.058-0.017,0.086,0.043,0.086c0,0.028,0,0.058,0,0.086c0,0.086-0.029,0.244-0.086,0.473
			c-0.06,0.23-0.086,0.387-0.086,0.473c0,0.346-0.072,0.574-0.217,0.688c0.028,0.058,0.043,0.144,0.043,0.259
			c0,0.286-0.101,0.53-0.301,0.73c0.059,0.344-0.043,0.746-0.301,1.204s-0.387,0.846-0.387,1.16
			c-0.06,0.059-0.103,0.086-0.129,0.086c0,0.115-0.029,0.244-0.088,0.388c-0.058,0.145-0.086,0.258-0.086,0.344v0.086
			c-0.027,0.029-0.144,0.115-0.344,0.258c0,0.06-0.027,0.146-0.086,0.259c-0.059,0.114-0.086,0.216-0.086,0.302
			c-0.115,0.058-0.236,0.192-0.365,0.409c-0.129,0.215-0.266,0.336-0.408,0.364c0,0.058-0.043,0.172-0.129,0.345
			c0.086,0.144,0.086,0.286,0,0.43c0.144,0.059,0.314,0.059,0.516,0c0.029,0,0.173-0.006,0.431-0.021
			c0.258-0.014,0.444-0.021,0.56-0.021h0.258c0.058,0,0.158,0.029,0.302,0.086c0.144,0.059,0.243,0.086,0.301,0.086
			c0.058,0.115,0.2,0.229,0.431,0.344c0.229,0.115,0.373,0.23,0.431,0.344c0.286,0.088,0.487,0.303,0.602,0.646v0.087
			c-0.028,0.028-0.043,0.057-0.043,0.086c0,0.172-0.015,0.271-0.043,0.301c0,0.058,0.028,0.114,0.086,0.172
			c-0.058,0.059-0.101,0.188-0.129,0.388l-0.043,0.301c0,0.029,0.028,0.043,0.086,0.043h0.086c0,0.66-0.086,1.146-0.258,1.463
			c0,0.058,0.028,0.114,0.086,0.172l0.129,0.129v0.129c0,0.059-0.007,0.13-0.021,0.216s-0.021,0.144-0.021,0.172
			c0,0.058,0.016,0.115,0.043,0.172c-0.172,0.172-0.258,0.272-0.258,0.301c0.027,0.029,0.057,0.064,0.086,0.107
			c0.028,0.043,0.059,0.08,0.086,0.106c-0.027,0.115-0.035,0.267-0.021,0.452c0.016,0.187,0.021,0.322,0.021,0.408
			c0,0.028-0.007,0.063-0.021,0.106c-0.014,0.043-0.021,0.079-0.021,0.108c0,0.057,0.007,0.129,0.021,0.215
			c0.015,0.086,0.021,0.144,0.021,0.172c0,0.086-0.015,0.157-0.043,0.215l0.215,0.216c0,0.086,0.008,0.2,0.021,0.344
			c0.015,0.145,0.021,0.244,0.021,0.301c0,0.23-0.072,0.373-0.216,0.43c0,0.087,0.071,0.158,0.216,0.217
			c0.4-0.26,0.83-0.616,1.289-1.075l0.475-0.344c0-0.028,0.027-0.058,0.086-0.086c0.086-0.059,0.113-0.102,0.086-0.13
			c0.027,0,0.057-0.015,0.086-0.043h0.043c0.057-0.086,0.156-0.192,0.301-0.321c0.145-0.13,0.243-0.237,0.301-0.323
			c0.028-0.028,0.086-0.043,0.172-0.043c0-0.086,0.021-0.15,0.064-0.193s0.087-0.093,0.13-0.149c0.043-0.058,0.078-0.102,0.106-0.13
			c0.058-0.027,0.13-0.087,0.216-0.173s0.172-0.129,0.258-0.129l0.774-0.516l0.258-0.258c0.172-0.144,0.314-0.243,0.43-0.301
			c0.114-0.201,0.4-0.53,0.859-0.989c0.201-0.059,0.466-0.165,0.796-0.323c0.329-0.156,0.552-0.264,0.667-0.322
			c0.314,0.06,0.501,0.115,0.559,0.172c0.028,0,0.064-0.006,0.107-0.021c0.043-0.014,0.078-0.021,0.107-0.021
			c0.113,0.086,0.242,0.244,0.387,0.475c0.144,0.229,0.244,0.373,0.302,0.43c-0.029,0.087-0.036,0.216-0.021,0.388
			c0.014,0.173,0.006,0.315-0.021,0.431c-0.459,0.229-0.703,0.516-0.73,0.858c-0.029,0-0.059,0.021-0.086,0.064
			c-0.029,0.043-0.072,0.051-0.13,0.021c0,0.115-0.063,0.23-0.192,0.346c-0.129,0.114-0.209,0.187-0.236,0.215
			c0,0.058,0.027,0.058,0.086,0c0,0.086-0.064,0.179-0.193,0.279c-0.129,0.1-0.193,0.208-0.193,0.322
			c-0.028,0-0.071,0.015-0.129,0.043c-0.059,0.028-0.114,0.028-0.172,0c-0.028,0.086-0.107,0.18-0.236,0.279
			s-0.193,0.193-0.193,0.279h-0.215c-0.145,0.314-0.271,0.487-0.387,0.516c-0.029,0.029-0.043,0.072-0.043,0.129l-0.043,0.043
			c-0.029,0-0.072,0.017-0.131,0.043c-0.058,0.029-0.101,0.043-0.129,0.043c0,0.06-0.113,0.23-0.344,0.518
			c-0.058,0-0.188,0.027-0.387,0.086c0.027,0.027,0.043,0.113,0.043,0.258c-0.029,0.028-0.107,0.063-0.236,0.107
			c-0.129,0.043-0.223,0.094-0.279,0.15c-0.086,0.057-0.157,0.071-0.215,0.043c0,0.028,0.006,0.058,0.021,0.086
			s0.007,0.071-0.021,0.129c-0.059,0.028-0.158,0.015-0.302-0.043c0,0.058-0.008,0.101-0.021,0.129
			c-0.016,0.027-0.021,0.07-0.021,0.129c-0.029,0-0.079,0.021-0.15,0.064s-0.137,0.064-0.192,0.064
			c-0.172,0.229-0.488,0.458-0.946,0.688c-0.459,0.229-0.73,0.373-0.816,0.43c-0.059,0-0.102-0.007-0.129-0.021
			c-0.028-0.014-0.059-0.021-0.086-0.021c-0.172,0.059-0.272,0.115-0.302,0.173c-0.086-0.028-0.187-0.015-0.301,0.043h-0.172
			c-0.315,0-0.502,0.015-0.56,0.043c-0.059-0.028-0.158-0.043-0.302-0.043c-0.688,0-1.348-0.144-1.978-0.431
			c-0.086-0.144-0.266-0.294-0.538-0.451s-0.451-0.295-0.537-0.407c-0.058,0-0.122-0.021-0.192-0.064
			c-0.072-0.043-0.138-0.063-0.193-0.063c-0.029-0.087-0.088-0.188-0.174-0.302s-0.144-0.187-0.172-0.216
			c0-0.114,0.016-0.172,0.043-0.172c-0.027-0.028-0.07-0.058-0.129-0.086c-0.058,0-0.086-0.015-0.086-0.043
			c-0.027-0.058-0.015-0.093,0.043-0.107c0.059-0.014,0.086-0.036,0.086-0.063l-0.129-0.043c-0.058,0-0.101-0.016-0.129-0.043
			c0.028-0.059,0-0.157-0.086-0.303c0.028-0.057,0.014-0.155-0.043-0.301v-0.086c0-0.199-0.059-0.415-0.172-0.645
			c0-0.058,0.014-0.101,0.043-0.129c0.027-0.028,0.043-0.058,0.043-0.086c0.027-0.059,0.027-0.102,0-0.13H73.04
			c0-0.058,0-0.144,0-0.258s0-0.201,0-0.259c-0.115-0.458-0.172-0.917-0.172-1.376c0-0.057,0.014-0.121,0.043-0.193
			c0.027-0.07,0.043-0.121,0.043-0.149l-0.043-0.043c-0.029-0.028-0.043-0.058-0.043-0.086v-0.302c0-0.4,0.057-0.659,0.172-0.773
			c-0.029-0.058-0.043-0.145-0.043-0.258c0-0.059,0.007-0.151,0.021-0.28c0.014-0.129,0.021-0.221,0.021-0.279
			c-0.058,0-0.215,0.086-0.474,0.258c0,0.029-0.008,0.072-0.021,0.13c-0.016,0.059-0.036,0.102-0.064,0.13l-0.129,0.086
			c-0.027,0.027-0.05,0.07-0.063,0.129c-0.015,0.058-0.021,0.101-0.021,0.129c-0.259,0.058-0.388,0.187-0.388,0.388
			c0,0.058,0.015,0.101,0.043,0.129c0,0.028-0.015,0.058-0.043,0.086c-0.058,0.114-0.058,0.188,0,0.216
			c-0.172,0.058-0.258,0.229-0.258,0.516l-0.216,0.215c-0.172,0.746-0.415,1.362-0.73,1.851v0.172c0,0.086-0.021,0.266-0.064,0.537
			c-0.043,0.272-0.063,0.467-0.063,0.579c0,0.173,0.043,0.33,0.129,0.475c-0.086,0.058-0.149,0.187-0.192,0.387
			c-0.043,0.201-0.107,0.33-0.193,0.388v0.087c0,0.143-0.086,0.327-0.258,0.559c-0.059,0-0.145,0.028-0.26,0.086
			c-0.113,0.057-0.187,0.086-0.215,0.086l-0.858-0.043c-0.029,0-0.072,0.007-0.13,0.021c-0.059,0.014-0.102,0.021-0.129,0.021
			c-0.145-0.029-0.358-0.215-0.646-0.559c-0.086-0.086-0.144-0.173-0.172-0.259c-0.086-0.058-0.181-0.157-0.279-0.302
			c-0.102-0.144-0.18-0.243-0.237-0.301c-0.027-0.028-0.063-0.043-0.106-0.043s-0.079,0-0.106,0c-0.115-0.114-0.215-0.2-0.302-0.258
			c-0.086-0.059-0.187-0.2-0.301-0.432c-0.201-0.284-0.344-0.559-0.431-0.815c-0.028-0.058-0.021-0.086,0.021-0.086
			c0.044,0,0.065-0.015,0.065-0.043l-0.216-0.129l-0.129-0.388c0-0.086,0.015-0.144,0.043-0.172
			c-0.028-0.029-0.086-0.244-0.172-0.646c0-0.028-0.021-0.094-0.064-0.194c-0.043-0.1-0.079-0.207-0.107-0.322
			c0-0.026-0.015-0.078-0.043-0.149c-0.029-0.07-0.043-0.121-0.043-0.15c0-0.057,0.014-0.179,0.043-0.365
			c0.028-0.186,0.043-0.337,0.043-0.45c0-0.373,0.028-0.589,0.086-0.646c-0.058-0.172-0.028-0.301,0.086-0.387
			c-0.058-0.028-0.071-0.114-0.043-0.259c0.028-0.144,0.028-0.242,0-0.302c0.028-0.026,0.064-0.078,0.107-0.149
			c0.043-0.07,0.079-0.121,0.107-0.15c-0.086-0.086-0.129-0.2-0.129-0.344c0-0.114,0.028-0.2,0.086-0.258
			c0-0.401,0.015-0.632,0.043-0.688c0.058-0.058,0.086-0.101,0.086-0.129c-0.058-0.058-0.086-0.101-0.086-0.129
			c0-0.286,0.058-0.501,0.172-0.646c-0.028-0.086-0.043-0.215-0.043-0.387s0.036-0.394,0.107-0.666
			c0.071-0.271,0.093-0.494,0.065-0.667c0-0.057,0.014-0.086,0.043-0.086l0.086-0.043c-0.029-0.086-0.043-0.215-0.043-0.387
			c0-0.432,0.086-0.774,0.258-1.032c0-0.314,0.028-0.529,0.086-0.645c0-0.029,0.028-0.044,0.086-0.044
			c-0.028-0.086-0.043-0.243-0.043-0.474c0-0.487,0.086-0.931,0.258-1.333c0-0.027,0-0.057,0-0.086l-0.043-0.043
			c0.058-0.114,0.114-0.186,0.173-0.215c-0.029-0.058-0.043-0.129-0.043-0.215c0-0.058,0.021-0.144,0.063-0.258
			c0.043-0.115,0.063-0.188,0.063-0.216c0-0.058-0.015-0.106-0.043-0.149c-0.027-0.043-0.043-0.079-0.043-0.107
			c0-0.115,0.064-0.28,0.193-0.495c0.129-0.216,0.193-0.394,0.193-0.538c0-0.284,0.086-0.457,0.259-0.516
			c-0.087-0.057-0.13-0.114-0.13-0.172c0-0.028,0.027-0.114,0.086-0.258c0.058-0.144,0.072-0.259,0.044-0.345
			c0.028-0.028,0.086-0.043,0.172-0.043c0.028-0.058,0.014-0.101-0.043-0.129l-0.043-0.129l0.258-0.603l-0.043-0.173l0.215-0.646
			c0.028-0.057,0.071-0.172,0.129-0.344s0.114-0.301,0.173-0.387c0.113-0.173,0.229-0.287,0.344-0.345
			c-0.028-0.058,0.015-0.172,0.13-0.345c0-0.344,0.114-0.559,0.344-0.646c0.028-0.259,0.144-0.5,0.345-0.73
			c0.199-0.229,0.473-0.357,0.816-0.387c0.027-0.028,0.057-0.058,0.086-0.086c0.027-0.028,0.043-0.051,0.043-0.064
			s0.014-0.035,0.043-0.063c0.344-0.086,0.716-0.33,1.118-0.731c0.086-0.028,0.243-0.107,0.473-0.236s0.458-0.192,0.688-0.192
			C72.919,6.469,73.078,6.426,73.164,6.426z M73.464,9.866c-0.145,0-0.294,0.071-0.451,0.215c-0.158,0.144-0.266,0.229-0.322,0.258
			c0,0.172-0.107,0.33-0.322,0.474c-0.215,0.145-0.322,0.315-0.322,0.516v0.129c0,0.029-0.015,0.06-0.043,0.086
			c-0.029,0.029-0.064,0.064-0.107,0.107s-0.063,0.08-0.063,0.106l0.043,0.174c-0.086,0.144-0.115,0.258-0.086,0.344
			c-0.058,0-0.106,0.036-0.149,0.106c-0.043,0.072-0.08,0.122-0.107,0.151c-0.029,0.143-0.102,0.322-0.215,0.537
			c-0.115,0.215-0.174,0.38-0.174,0.494c0,0.086,0.028,0.188,0.086,0.301c-0.113,0-0.172,0.059-0.172,0.172
			c0,0.115,0.016,0.201,0.043,0.258c-0.058,0.06-0.086,0.273-0.086,0.646v0.129c0,0.029-0.021,0.101-0.063,0.216
			c-0.043,0.114-0.063,0.2-0.063,0.258v0.043l0.043,0.086c-0.086,0.172-0.13,0.315-0.13,0.431v0.129
			c-0.144,0.086-0.215,0.145-0.215,0.172c0,0.029,0.028,0.072,0.086,0.129c0.058,0.059,0.071,0.115,0.043,0.172
			c-0.086,0.06-0.144,0.201-0.172,0.43c-0.028,0.23-0.086,0.373-0.172,0.432c0.058,0.259,0.058,0.443,0,0.56
			c0,0.028,0.014,0.086,0.043,0.172c0.028,0.086,0.043,0.158,0.043,0.216c0,0.028-0.015,0.058-0.043,0.086
			c0.086,0.086,0.129,0.243,0.129,0.473c0,0.086-0.015,0.287-0.043,0.602c-0.028,0.316-0.028,0.475,0,0.475l-0.129,0.215
			c0.058,0.173,0.086,0.287,0.086,0.345v0.646c0,0.2,0.058,0.358,0.172,0.473c0.172-0.229,0.315-0.387,0.431-0.473v-0.043
			c0-0.086,0.021-0.15,0.063-0.193s0.093-0.093,0.151-0.15c0.057-0.058,0.1-0.101,0.129-0.129c-0.029,0-0.043-0.028-0.043-0.086
			c0.172-0.229,0.399-0.56,0.688-0.99c0.286-0.43,0.473-0.7,0.561-0.815c0.057-0.086,0.121-0.286,0.192-0.603
			c0.071-0.314,0.179-0.516,0.322-0.603c-0.058-0.028-0.086-0.114-0.086-0.258c0-0.028,0.043-0.107,0.129-0.236
			c0.086-0.13,0.129-0.251,0.129-0.366c0.028,0,0.063-0.026,0.106-0.086c0.043-0.057,0.08-0.086,0.107-0.086
			c-0.027,0-0.086-0.026-0.172-0.086c0.059-0.057,0.102-0.186,0.129-0.387c0.028-0.2,0.071-0.329,0.129-0.387
			c-0.027-0.058-0.043-0.145-0.043-0.259s0.071-0.344,0.215-0.688c0.028-0.028,0.021-0.059-0.021-0.086
			c-0.042-0.028-0.063-0.059-0.063-0.086c0.113,0,0.215-0.114,0.301-0.346c0-0.057-0.021-0.149-0.064-0.278
			c-0.043-0.129-0.064-0.236-0.064-0.322v-0.086c0-0.027,0.008-0.057,0.021-0.086c0.016-0.028,0.021-0.057,0.021-0.086v-0.646
			l0.129-0.215v-0.129c0-0.058,0.015-0.115,0.043-0.173v-0.086v-0.129c0-0.059-0.071-0.401-0.215-1.032
			c-0.059-0.63-0.114-1.031-0.172-1.203C73.622,9.88,73.55,9.866,73.464,9.866z"/>
		<path fill="#231F20" d="M87.567,19.885c0.773,0.315,1.231,0.603,1.377,0.86c0.113,0.086,0.25,0.229,0.408,0.43
			c0.156,0.201,0.278,0.33,0.364,0.388c0,0.028,0.015,0.071,0.043,0.129c0.028,0.059,0.028,0.115,0,0.172
			c0.087,0.059,0.157,0.158,0.216,0.301c0.058,0.146,0.113,0.23,0.172,0.258c0,0.086,0.021,0.181,0.064,0.28
			s0.064,0.179,0.064,0.236c0.172,0.201,0.258,0.345,0.258,0.431c0,0.057-0.008,0.129-0.021,0.215
			c-0.015,0.086-0.021,0.145-0.021,0.172c0,0.059,0.028,0.145,0.086,0.259c0,0.344,0.014,0.545,0.043,0.602
			c-0.029,0.029-0.058,0.129-0.086,0.301c-0.029,0.172-0.072,0.287-0.13,0.346c0.058,0.058,0.087,0.187,0.087,0.387v0.302
			c-0.087,0.028-0.165,0.107-0.236,0.236s-0.137,0.208-0.192,0.235c-0.029,0.201-0.138,0.401-0.323,0.603
			c-0.187,0.201-0.31,0.358-0.365,0.473c0.028,0.23,0.129,0.445,0.301,0.646h0.087c0.086,0,0.178-0.021,0.278-0.064
			s0.179-0.063,0.237-0.063h0.086c0.086-0.059,0.236-0.122,0.451-0.194c0.215-0.07,0.351-0.121,0.408-0.15
			c0.572-0.284,0.932-0.43,1.074-0.43c0.145-0.2,0.229-0.314,0.258-0.344c0.028,0,0.059,0.015,0.086,0.043l0.043,0.043l0.346-0.301
			c0.057,0,0.113-0.035,0.172-0.107c0.057-0.071,0.129-0.107,0.215-0.107h0.086c0.229-0.2,0.702-0.529,1.419-0.988
			c0.058-0.028,0.144-0.043,0.259-0.043c0.027,0,0.086-0.028,0.172-0.086c0.086-0.059,0.156-0.102,0.215-0.129
			c0.058,0,0.129-0.016,0.216-0.045c0.086-0.026,0.143-0.043,0.172-0.043c0.086-0.026,0.2-0.106,0.344-0.235
			s0.259-0.207,0.345-0.236c0.086,0,0.156-0.014,0.215-0.043c0.058,0,0.129-0.043,0.216-0.129c0.286-0.086,0.442-0.129,0.473-0.129
			h0.086c0.058-0.028,0.13-0.043,0.216-0.043h0.773c0.113,0.086,0.186,0.193,0.215,0.322c0.027,0.129,0.043,0.295,0.043,0.493
			c0,0.201,0.016,0.346,0.043,0.432c-0.201,0.114-0.314,0.172-0.344,0.172c-0.201,0.401-0.359,0.616-0.475,0.646v0.302
			c-0.285,0.229-0.457,0.444-0.516,0.645H97.5c-0.086,0-0.172,0.072-0.258,0.215c-0.316,0.086-0.617,0.33-0.903,0.731
			c-0.086,0-0.18,0.058-0.279,0.172c-0.101,0.115-0.18,0.187-0.235,0.216c-0.058,0.028-0.138,0.05-0.236,0.064
			c-0.103,0.014-0.18,0.035-0.237,0.063c-0.027,0-0.05,0.028-0.063,0.086c-0.015,0.058-0.036,0.086-0.063,0.086
			c-0.086,0-0.193,0.064-0.322,0.193s-0.252,0.193-0.365,0.193c-0.029,0-0.059,0.015-0.086,0.043
			c-0.029,0.058-0.072,0.086-0.129,0.086c-0.029,0.028-0.043,0.058-0.043,0.086s-0.016,0.058-0.043,0.086
			c-0.631,0.287-0.961,0.43-0.989,0.43c-0.144,0.086-0.345,0.201-0.603,0.344c-0.259,0.146-0.431,0.244-0.517,0.303
			c-0.058-0.028-0.129-0.043-0.215-0.043s-0.187,0.027-0.302,0.086c-0.114,0.058-0.2,0.086-0.258,0.086
			c-0.229,0.144-0.373,0.215-0.431,0.215c-0.086,0-0.144-0.015-0.172-0.043c-0.028,0-0.058,0.021-0.086,0.063
			c-0.029,0.043-0.058,0.064-0.086,0.064h-0.56c-0.631,0.173-1.203,0.259-1.721,0.259c-0.344,0-0.631-0.043-0.859-0.129
			c-0.059-0.029-0.102-0.036-0.129-0.021c-0.028,0.014-0.059,0.021-0.086,0.021c-0.773-0.173-1.435-0.445-1.979-0.818
			c0.027-0.026,0.027-0.057,0-0.086l-0.043-0.043c-0.086,0-0.172-0.014-0.258-0.043c-0.029-0.057-0.103-0.164-0.215-0.321
			c-0.115-0.156-0.174-0.279-0.174-0.365c-0.258-0.028-0.4-0.172-0.43-0.43c-0.027,0-0.064-0.008-0.107-0.021
			s-0.094-0.021-0.149-0.021c-0.345-0.315-0.688-0.946-1.032-1.894c0.059-0.027,0.064-0.07,0.021-0.129
			c-0.043-0.057-0.064-0.1-0.064-0.129c0-0.028,0.016-0.057,0.043-0.086v-0.043l-0.086-0.129c-0.029-0.086-0.043-0.315-0.043-0.688
			v-0.216c0-0.114-0.029-0.294-0.086-0.537c-0.059-0.243-0.086-0.423-0.086-0.538v-0.473c0.027,0,0.051-0.035,0.064-0.107
			c0.015-0.07,0.035-0.106,0.063-0.106c-0.028-0.028-0.043-0.071-0.043-0.129c0-0.086,0.043-0.216,0.129-0.388l-0.043-0.086
			c-0.028-0.058-0.043-0.101-0.043-0.129c0.028-0.086,0.078-0.237,0.149-0.452c0.072-0.215,0.15-0.388,0.236-0.517
			s0.188-0.236,0.303-0.322c0-0.172,0.078-0.313,0.235-0.43c0.157-0.114,0.25-0.215,0.279-0.301
			c0.057-0.028,0.144-0.064,0.258-0.107s0.2-0.078,0.258-0.106c0.173-0.115,0.388-0.302,0.646-0.56c0.029,0,0.072-0.029,0.13-0.087
			c0.258-0.086,0.444-0.157,0.559-0.215c0.058-0.028,0.136-0.059,0.236-0.086c0.101-0.028,0.179-0.059,0.237-0.086l0.258-0.129
			c0.027,0,0.057,0.015,0.086,0.043h0.086c0.172-0.059,0.301-0.086,0.387-0.086c0.059,0,0.129,0.007,0.215,0.021
			s0.145,0.021,0.174,0.021C87.453,19.927,87.509,19.913,87.567,19.885z M87.267,23.927l-0.043,0.043h-0.173
			c-0.573,0-0.858,0.188-0.858,0.56c0,0.059-0.017,0.115-0.043,0.172l-0.131,0.172c0,0.086,0,0.236,0,0.452c0,0.215,0,0.365,0,0.451
			c-0.027,0.086-0.043,0.216-0.043,0.388c0,0.114,0.016,0.2,0.043,0.258c0.114,0.059,0.229,0.086,0.346,0.086
			c0.285,0,0.658-0.129,1.117-0.387c0.201-0.144,0.33-0.271,0.388-0.388c0.028-0.028,0.071-0.059,0.129-0.086
			c0.058-0.028,0.086-0.059,0.086-0.086c0.086-0.229,0.129-0.487,0.129-0.774c0-0.285-0.043-0.473-0.129-0.559
			C87.683,24.027,87.41,23.927,87.267,23.927z"/>
	</g>
	<g>
		<path fill="#231F20" d="M37.748,78.392h0.172c0.028,0,0.079,0.028,0.15,0.086c0.071,0.058,0.136,0.086,0.193,0.086
			c0.028,0,0.071-0.015,0.129-0.043c0.058,0.086,0.173,0.129,0.345,0.129c0.057,0,0.121-0.007,0.193-0.021
			c0.071-0.014,0.121-0.021,0.15-0.021c0.028,0.028,0.086,0.079,0.172,0.149c0.086,0.072,0.157,0.138,0.215,0.193
			c0.058,0.059,0.114,0.129,0.172,0.215c0.144,0,0.302,0.08,0.474,0.236c0.172,0.158,0.329,0.236,0.473,0.236
			c0.058,0.145,0.193,0.309,0.408,0.494c0.215,0.187,0.337,0.294,0.366,0.323c0.057,0.517,0.129,0.831,0.215,0.945l-0.043,0.172
			c0,0.086,0.014,0.188,0.043,0.301c0.028,0.115,0.043,0.215,0.043,0.301c0,0.146-0.029,0.244-0.086,0.303l0.129,0.301v0.258
			c-0.058,0.058-0.086,0.188-0.086,0.388v0.388c0,0.028-0.015,0.058-0.043,0.086l-0.043,0.043c-0.029,0.115-0.043,0.401-0.043,0.858
			c0,0.201-0.029,0.346-0.086,0.432c-0.029,0.058-0.016,0.086,0.043,0.086c0,0.027,0,0.058,0,0.086c0,0.086-0.029,0.243-0.086,0.474
			c-0.059,0.229-0.086,0.388-0.086,0.474c0,0.344-0.072,0.573-0.216,0.688c0.028,0.06,0.043,0.146,0.043,0.258
			c0,0.287-0.101,0.531-0.301,0.731c0.058,0.344-0.043,0.745-0.301,1.204s-0.387,0.846-0.387,1.16
			c-0.059,0.059-0.102,0.087-0.129,0.087c0,0.113-0.029,0.242-0.087,0.387c-0.058,0.144-0.086,0.259-0.086,0.345v0.086
			c-0.028,0.028-0.144,0.114-0.344,0.258c0,0.058-0.028,0.145-0.086,0.259s-0.086,0.215-0.086,0.301
			c-0.115,0.058-0.236,0.193-0.365,0.408c-0.129,0.215-0.266,0.338-0.409,0.364c0,0.06-0.043,0.173-0.129,0.346
			c0.086,0.144,0.086,0.286,0,0.43c0.144,0.058,0.315,0.058,0.517,0c0.028,0,0.172-0.007,0.43-0.021
			c0.258-0.015,0.444-0.021,0.559-0.021h0.259c0.057,0,0.157,0.028,0.301,0.086c0.143,0.059,0.243,0.086,0.301,0.086
			c0.058,0.115,0.2,0.229,0.43,0.345c0.229,0.114,0.373,0.229,0.431,0.345c0.286,0.086,0.487,0.301,0.602,0.645v0.086
			c-0.028,0.029-0.043,0.06-0.043,0.086c0,0.172-0.015,0.273-0.043,0.302c0,0.059,0.028,0.114,0.086,0.172
			c-0.058,0.059-0.101,0.188-0.129,0.388l-0.043,0.301c0,0.029,0.028,0.044,0.086,0.044h0.086c0,0.659-0.086,1.146-0.258,1.461
			c0,0.06,0.028,0.115,0.086,0.172l0.129,0.13v0.129c0,0.059-0.007,0.13-0.021,0.216c-0.014,0.086-0.021,0.144-0.021,0.172
			c0,0.058,0.015,0.114,0.043,0.172c-0.172,0.172-0.258,0.272-0.258,0.302c0.028,0.028,0.057,0.064,0.086,0.107
			c0.028,0.043,0.058,0.078,0.086,0.106c-0.028,0.114-0.036,0.266-0.021,0.451c0.015,0.187,0.021,0.322,0.021,0.408
			c0,0.029-0.007,0.064-0.021,0.107c-0.014,0.043-0.021,0.08-0.021,0.106c0,0.06,0.007,0.129,0.021,0.215
			c0.014,0.086,0.021,0.146,0.021,0.172c0,0.087-0.015,0.158-0.043,0.216l0.215,0.216c0,0.086,0.007,0.2,0.021,0.344
			c0.014,0.145,0.021,0.244,0.021,0.302c0,0.229-0.071,0.372-0.215,0.431c0,0.086,0.071,0.157,0.215,0.215
			c0.401-0.258,0.831-0.616,1.29-1.075l0.474-0.344c0-0.028,0.027-0.059,0.086-0.087c0.086-0.058,0.114-0.101,0.086-0.129
			c0.028,0,0.057-0.015,0.086-0.043h0.043c0.057-0.087,0.157-0.193,0.301-0.322s0.243-0.236,0.301-0.322
			c0.028-0.028,0.086-0.043,0.172-0.043c0-0.086,0.021-0.15,0.064-0.193s0.087-0.093,0.13-0.149
			c0.043-0.058,0.078-0.101,0.107-0.129c0.057-0.028,0.129-0.086,0.215-0.172s0.172-0.129,0.258-0.129l0.774-0.518l0.258-0.258
			c0.172-0.145,0.314-0.243,0.43-0.302c0.114-0.199,0.401-0.529,0.86-0.988c0.2-0.057,0.465-0.164,0.795-0.322
			c0.329-0.158,0.552-0.266,0.667-0.321c0.314,0.057,0.501,0.113,0.559,0.172c0.028,0,0.064-0.009,0.107-0.021
			c0.043-0.015,0.079-0.021,0.107-0.021c0.114,0.086,0.243,0.243,0.388,0.473c0.143,0.229,0.243,0.373,0.301,0.43
			c-0.029,0.086-0.036,0.215-0.021,0.388c0.014,0.172,0.007,0.315-0.021,0.431c-0.459,0.229-0.703,0.516-0.731,0.86
			c-0.028,0-0.058,0.021-0.086,0.063c-0.028,0.043-0.071,0.05-0.129,0.021c0,0.113-0.064,0.229-0.193,0.344
			s-0.208,0.187-0.236,0.215c0,0.058,0.028,0.058,0.086,0c0,0.086-0.064,0.18-0.193,0.279c-0.129,0.102-0.193,0.209-0.193,0.321
			c-0.029,0-0.072,0.017-0.13,0.043c-0.058,0.029-0.114,0.029-0.172,0c-0.028,0.087-0.107,0.181-0.236,0.279
			c-0.129,0.103-0.193,0.194-0.193,0.28H48.46c-0.144,0.314-0.272,0.487-0.387,0.517c-0.029,0.028-0.043,0.071-0.043,0.129
			l-0.043,0.043c-0.029,0-0.072,0.015-0.13,0.043s-0.101,0.043-0.129,0.043c0,0.058-0.114,0.229-0.344,0.517
			c-0.058,0-0.187,0.029-0.387,0.086c0.028,0.029,0.043,0.115,0.043,0.258c-0.029,0.029-0.107,0.064-0.236,0.107
			c-0.129,0.043-0.223,0.094-0.28,0.149c-0.086,0.06-0.157,0.072-0.215,0.043c0,0.029,0.007,0.06,0.021,0.086
			c0.015,0.029,0.007,0.072-0.021,0.129c-0.058,0.029-0.157,0.017-0.301-0.043c0,0.06-0.008,0.102-0.021,0.13
			c-0.015,0.028-0.021,0.071-0.021,0.129c-0.029,0-0.079,0.021-0.15,0.063c-0.072,0.043-0.137,0.064-0.193,0.064
			c-0.172,0.229-0.488,0.459-0.946,0.688c-0.459,0.229-0.73,0.372-0.817,0.432c-0.058,0-0.101-0.009-0.129-0.021
			c-0.028-0.016-0.058-0.021-0.086-0.021c-0.172,0.057-0.272,0.112-0.301,0.172c-0.086-0.029-0.187-0.017-0.301,0.043h-0.172
			c-0.316,0-0.502,0.014-0.56,0.043c-0.058-0.029-0.157-0.043-0.301-0.043c-0.688,0-1.348-0.146-1.978-0.431
			c-0.086-0.145-0.266-0.295-0.538-0.451c-0.272-0.157-0.451-0.295-0.537-0.409c-0.058,0-0.122-0.021-0.193-0.064
			c-0.072-0.043-0.137-0.063-0.193-0.063c-0.029-0.086-0.087-0.187-0.173-0.302c-0.086-0.112-0.144-0.186-0.172-0.215
			c0-0.112,0.015-0.172,0.043-0.172c-0.028-0.028-0.071-0.057-0.129-0.086c-0.058,0-0.086-0.014-0.086-0.043
			c-0.028-0.057-0.015-0.093,0.043-0.107c0.058-0.014,0.086-0.034,0.086-0.063l-0.129-0.043c-0.058,0-0.101-0.014-0.129-0.043
			c0.028-0.057,0-0.157-0.086-0.301c0.028-0.059,0.014-0.158-0.043-0.302v-0.086c0-0.2-0.058-0.416-0.172-0.646
			c0-0.059,0.014-0.102,0.043-0.13c0.028-0.027,0.043-0.058,0.043-0.086c0.028-0.058,0.028-0.101,0-0.129h-0.086
			c0-0.058,0-0.144,0-0.259c0-0.112,0-0.198,0-0.258c-0.115-0.458-0.172-0.917-0.172-1.376c0-0.058,0.014-0.122,0.043-0.192
			c0.028-0.071,0.043-0.122,0.043-0.15l-0.043-0.043c-0.029-0.028-0.043-0.058-0.043-0.086V98.3c0-0.399,0.057-0.657,0.172-0.772
			c-0.029-0.058-0.043-0.144-0.043-0.258c0-0.058,0.007-0.15,0.021-0.279s0.021-0.223,0.021-0.279c-0.058,0-0.215,0.086-0.474,0.258
			c0,0.028-0.007,0.071-0.021,0.13c-0.014,0.058-0.036,0.101-0.064,0.129l-0.129,0.086c-0.028,0.028-0.05,0.071-0.064,0.129
			c-0.015,0.058-0.021,0.101-0.021,0.129c-0.258,0.058-0.387,0.188-0.387,0.387c0,0.06,0.014,0.103,0.043,0.129
			c0,0.029-0.015,0.06-0.043,0.086c-0.058,0.115-0.058,0.188,0,0.216c-0.172,0.059-0.258,0.229-0.258,0.517L35.99,99.12
			c-0.173,0.746-0.416,1.362-0.731,1.849v0.173c0,0.087-0.021,0.266-0.064,0.537c-0.043,0.272-0.064,0.467-0.064,0.581
			c0,0.173,0.043,0.33,0.129,0.474c-0.086,0.058-0.15,0.187-0.193,0.387c-0.043,0.201-0.107,0.33-0.193,0.387v0.086
			c0,0.145-0.086,0.33-0.258,0.561c-0.059,0-0.145,0.028-0.259,0.086c-0.114,0.058-0.187,0.086-0.215,0.086l-0.859-0.043
			c-0.029,0-0.072,0.007-0.13,0.021c-0.058,0.015-0.101,0.021-0.129,0.021c-0.144-0.028-0.358-0.215-0.645-0.56
			c-0.086-0.087-0.144-0.173-0.172-0.259c-0.086-0.057-0.18-0.155-0.279-0.301c-0.102-0.143-0.18-0.243-0.237-0.301
			c-0.028-0.028-0.064-0.043-0.107-0.043s-0.079,0-0.107,0c-0.114-0.114-0.215-0.2-0.301-0.258c-0.086-0.058-0.187-0.2-0.301-0.431
			c-0.201-0.287-0.344-0.56-0.431-0.816c-0.028-0.059-0.021-0.086,0.021-0.086c0.044,0,0.065-0.016,0.065-0.043l-0.216-0.13
			l-0.129-0.388c0-0.086,0.015-0.143,0.043-0.172c-0.028-0.027-0.086-0.243-0.172-0.645c0-0.028-0.021-0.094-0.064-0.193
			s-0.079-0.208-0.107-0.322c0-0.028-0.015-0.079-0.043-0.149c-0.029-0.072-0.043-0.122-0.043-0.151
			c0-0.058,0.014-0.179,0.043-0.365c0.028-0.187,0.043-0.337,0.043-0.452c0-0.37,0.028-0.586,0.086-0.645
			c-0.058-0.172-0.028-0.301,0.086-0.387c-0.058-0.028-0.071-0.114-0.043-0.259c0.028-0.144,0.028-0.243,0-0.301
			c0.028-0.028,0.064-0.079,0.107-0.149c0.043-0.072,0.079-0.123,0.107-0.151c-0.086-0.086-0.129-0.2-0.129-0.344
			c0-0.114,0.028-0.2,0.086-0.259c0-0.4,0.015-0.63,0.043-0.688c0.058-0.057,0.086-0.1,0.086-0.129
			c-0.058-0.057-0.086-0.1-0.086-0.129c0-0.286,0.058-0.501,0.172-0.646c-0.028-0.086-0.043-0.215-0.043-0.388
			c0-0.172,0.036-0.394,0.107-0.667c0.071-0.271,0.093-0.494,0.065-0.666c0-0.057,0.014-0.086,0.043-0.086l0.086-0.043
			c-0.029-0.086-0.043-0.215-0.043-0.387c0-0.431,0.086-0.773,0.258-1.032c0-0.315,0.028-0.53,0.086-0.646
			c0-0.026,0.028-0.043,0.086-0.043c-0.029-0.086-0.043-0.241-0.043-0.473c0-0.486,0.086-0.932,0.258-1.333c0-0.028,0-0.057,0-0.086
			l-0.043-0.043c0.058-0.114,0.114-0.188,0.172-0.215c-0.028-0.059-0.043-0.129-0.043-0.215c0-0.059,0.021-0.145,0.064-0.26
			c0.043-0.112,0.064-0.186,0.064-0.215c0-0.057-0.015-0.106-0.043-0.149c-0.028-0.043-0.043-0.078-0.043-0.107
			c0-0.113,0.064-0.279,0.193-0.494s0.193-0.395,0.193-0.537c0-0.287,0.087-0.459,0.259-0.517c-0.09-0.057-0.133-0.114-0.133-0.172
			c0-0.028,0.027-0.114,0.086-0.258c0.057-0.145,0.071-0.26,0.043-0.346c0.028-0.026,0.086-0.043,0.172-0.043
			c0.028-0.057,0.014-0.1-0.043-0.129l-0.043-0.129l0.258-0.602l-0.043-0.172l0.215-0.646c0.028-0.058,0.071-0.173,0.129-0.345
			c0.058-0.172,0.114-0.301,0.172-0.389c0.114-0.172,0.229-0.284,0.345-0.344c-0.029-0.057,0.014-0.172,0.129-0.344
			c0-0.344,0.114-0.559,0.344-0.646c0.028-0.258,0.143-0.502,0.344-0.73c0.2-0.229,0.473-0.358,0.817-0.387
			c0.028-0.028,0.057-0.059,0.086-0.086c0.028-0.028,0.043-0.051,0.043-0.064s0.014-0.036,0.043-0.065
			c0.344-0.086,0.716-0.327,1.118-0.729c0.086-0.027,0.243-0.107,0.473-0.236s0.458-0.192,0.688-0.192
			C37.503,78.435,37.662,78.392,37.748,78.392z M38.048,81.831c-0.144,0-0.294,0.072-0.451,0.215
			c-0.158,0.146-0.266,0.23-0.322,0.259c0,0.173-0.108,0.329-0.323,0.474c-0.215,0.144-0.322,0.314-0.322,0.517v0.129
			c0,0.028-0.015,0.058-0.043,0.086c-0.029,0.028-0.064,0.064-0.107,0.107s-0.064,0.079-0.064,0.107l0.043,0.172
			c-0.086,0.144-0.115,0.258-0.086,0.344c-0.058,0-0.107,0.037-0.15,0.107c-0.043,0.071-0.079,0.122-0.107,0.149
			c-0.029,0.146-0.101,0.322-0.215,0.537c-0.115,0.216-0.173,0.381-0.173,0.495c0,0.086,0.028,0.187,0.086,0.302
			c-0.114,0-0.172,0.058-0.172,0.172s0.015,0.2,0.043,0.258c-0.058,0.059-0.086,0.272-0.086,0.646v0.129
			c0,0.029-0.021,0.103-0.064,0.215c-0.043,0.115-0.064,0.201-0.064,0.258v0.043l0.043,0.087c-0.086,0.173-0.129,0.315-0.129,0.431
			v0.129c-0.144,0.086-0.215,0.144-0.215,0.172c0,0.029,0.028,0.072,0.086,0.13c0.058,0.058,0.071,0.114,0.043,0.172
			c-0.086,0.058-0.144,0.2-0.172,0.431c-0.029,0.229-0.086,0.373-0.172,0.43c0.057,0.258,0.057,0.445,0,0.559
			c0,0.029,0.014,0.086,0.043,0.172c0.028,0.087,0.043,0.158,0.043,0.217c0,0.027-0.015,0.058-0.043,0.086
			c0.086,0.086,0.129,0.243,0.129,0.473c0,0.087-0.015,0.287-0.043,0.604c-0.029,0.314-0.029,0.473,0,0.473l-0.129,0.215
			c0.057,0.172,0.086,0.287,0.086,0.344v0.646c0,0.2,0.057,0.357,0.172,0.473c0.172-0.229,0.315-0.387,0.43-0.473V93.27
			c0-0.086,0.021-0.151,0.064-0.194s0.093-0.092,0.151-0.15c0.057-0.057,0.1-0.1,0.129-0.129c-0.029,0-0.043-0.026-0.043-0.086
			c0.172-0.229,0.4-0.559,0.688-0.987c0.286-0.431,0.473-0.703,0.56-0.817c0.057-0.086,0.121-0.286,0.193-0.604
			c0.071-0.313,0.179-0.516,0.322-0.602c-0.058-0.027-0.086-0.114-0.086-0.258c0-0.028,0.043-0.107,0.129-0.236
			s0.129-0.251,0.129-0.365c0.028,0,0.064-0.028,0.107-0.086s0.079-0.086,0.107-0.086c-0.028,0-0.086-0.028-0.172-0.086
			c0.058-0.058,0.101-0.187,0.129-0.388c0.028-0.2,0.071-0.329,0.129-0.387c-0.028-0.059-0.043-0.145-0.043-0.26
			c0-0.112,0.071-0.344,0.215-0.688c0.028-0.028,0.021-0.057-0.021-0.086c-0.043-0.028-0.064-0.058-0.064-0.086
			c0.114,0,0.215-0.114,0.302-0.344c0-0.059-0.021-0.15-0.065-0.279c-0.043-0.129-0.064-0.236-0.064-0.322v-0.087
			c0-0.028,0.007-0.058,0.021-0.086s0.021-0.058,0.021-0.086V84.84l0.13-0.215v-0.129c0-0.057,0.014-0.113,0.043-0.172v-0.086V84.11
			c0-0.058-0.072-0.4-0.216-1.031c-0.058-0.631-0.114-1.033-0.172-1.205C38.206,81.847,38.134,81.831,38.048,81.831z"/>
		<path fill="#231F20" d="M52.152,91.851c0.773,0.314,1.231,0.602,1.376,0.858c0.114,0.086,0.25,0.23,0.408,0.432
			c0.157,0.199,0.279,0.328,0.365,0.387c0,0.028,0.015,0.071,0.043,0.129c0.028,0.058,0.028,0.115,0,0.173
			c0.086,0.057,0.157,0.157,0.215,0.301s0.114,0.229,0.173,0.259c0,0.086,0.021,0.18,0.064,0.278
			c0.043,0.102,0.064,0.181,0.064,0.236c0.172,0.201,0.258,0.344,0.258,0.43c0,0.06-0.008,0.129-0.021,0.215
			c-0.015,0.086-0.021,0.146-0.021,0.173c0,0.059,0.028,0.145,0.086,0.259c0,0.344,0.014,0.545,0.043,0.603
			c-0.029,0.028-0.058,0.129-0.086,0.301c-0.029,0.173-0.072,0.287-0.129,0.345c0.057,0.058,0.086,0.187,0.086,0.387v0.301
			c-0.086,0.029-0.165,0.107-0.236,0.236c-0.072,0.129-0.137,0.209-0.193,0.236c-0.029,0.2-0.137,0.401-0.323,0.603
			c-0.187,0.201-0.309,0.358-0.365,0.474c0.028,0.229,0.129,0.444,0.301,0.646h0.086c0.086,0,0.179-0.021,0.279-0.064
			s0.179-0.063,0.237-0.063h0.086c0.086-0.058,0.236-0.121,0.451-0.193c0.215-0.071,0.351-0.122,0.408-0.149
			c0.573-0.287,0.932-0.431,1.075-0.431c0.144-0.201,0.229-0.315,0.258-0.345c0.028,0,0.058,0.015,0.086,0.043l0.043,0.043
			l0.345-0.301c0.057,0,0.114-0.036,0.172-0.107c0.057-0.071,0.129-0.107,0.215-0.107h0.086c0.229-0.199,0.702-0.529,1.419-0.988
			c0.058-0.028,0.144-0.043,0.258-0.043c0.028,0,0.086-0.028,0.172-0.086c0.087-0.058,0.157-0.101,0.216-0.129
			c0.057,0,0.129-0.015,0.215-0.043c0.086-0.028,0.143-0.043,0.172-0.043c0.086-0.028,0.2-0.107,0.344-0.236
			s0.258-0.208,0.344-0.236c0.086,0,0.157-0.015,0.216-0.043c0.057,0,0.129-0.043,0.215-0.13c0.286-0.086,0.443-0.129,0.473-0.129
			h0.086c0.058-0.028,0.129-0.043,0.215-0.043h0.774c0.114,0.086,0.186,0.193,0.215,0.323c0.028,0.129,0.043,0.293,0.043,0.494
			c0,0.2,0.015,0.344,0.043,0.43c-0.201,0.115-0.315,0.172-0.344,0.172c-0.201,0.402-0.359,0.617-0.474,0.646v0.302
			c-0.286,0.229-0.458,0.443-0.516,0.646h-0.086c-0.086,0-0.172,0.071-0.258,0.215c-0.316,0.087-0.617,0.33-0.903,0.73
			c-0.086,0-0.18,0.058-0.279,0.172c-0.101,0.115-0.18,0.188-0.236,0.215c-0.058,0.029-0.137,0.052-0.236,0.064
			c-0.102,0.016-0.18,0.037-0.237,0.063c-0.028,0-0.05,0.029-0.064,0.086c-0.015,0.06-0.036,0.086-0.064,0.086
			c-0.086,0-0.193,0.064-0.322,0.193c-0.129,0.13-0.251,0.194-0.365,0.194c-0.029,0-0.058,0.015-0.086,0.043
			c-0.029,0.058-0.072,0.086-0.129,0.086c-0.029,0.028-0.043,0.058-0.043,0.086s-0.015,0.058-0.043,0.086
			c-0.631,0.287-0.961,0.431-0.989,0.431c-0.144,0.086-0.344,0.2-0.603,0.345c-0.258,0.144-0.43,0.243-0.516,0.301
			c-0.058-0.028-0.129-0.043-0.215-0.043s-0.187,0.028-0.301,0.086c-0.115,0.058-0.201,0.086-0.259,0.086
			c-0.229,0.144-0.372,0.215-0.43,0.215c-0.086,0-0.144-0.014-0.172-0.043c-0.029,0-0.058,0.021-0.086,0.064
			c-0.029,0.043-0.058,0.063-0.086,0.063h-0.56c-0.631,0.172-1.203,0.258-1.72,0.258c-0.344,0-0.631-0.043-0.859-0.129
			c-0.059-0.026-0.102-0.035-0.13-0.021c-0.028,0.016-0.058,0.021-0.086,0.021c-0.773-0.172-1.434-0.442-1.978-0.815
			c0.028-0.028,0.028-0.059,0-0.086l-0.043-0.043c-0.086,0-0.172-0.016-0.258-0.043c-0.029-0.059-0.102-0.165-0.215-0.322
			c-0.115-0.158-0.173-0.28-0.173-0.366c-0.258-0.028-0.401-0.172-0.43-0.431c-0.028,0-0.064-0.006-0.107-0.021
			c-0.043-0.014-0.094-0.021-0.15-0.021c-0.344-0.314-0.688-0.945-1.032-1.892c0.058-0.028,0.064-0.071,0.021-0.13
			c-0.043-0.058-0.064-0.101-0.064-0.129s0.015-0.058,0.043-0.086v-0.043l-0.086-0.129c-0.029-0.086-0.043-0.315-0.043-0.688v-0.215
			c0-0.113-0.029-0.293-0.086-0.537c-0.058-0.243-0.086-0.423-0.086-0.537v-0.474c0.028,0,0.051-0.036,0.064-0.107
			c0.015-0.07,0.036-0.106,0.064-0.106c-0.028-0.028-0.043-0.071-0.043-0.129c0-0.087,0.043-0.216,0.129-0.389l-0.043-0.086
			c-0.029-0.057-0.043-0.1-0.043-0.129c0.028-0.086,0.078-0.235,0.15-0.45c0.071-0.216,0.15-0.388,0.236-0.517
			c0.086-0.129,0.187-0.236,0.302-0.322c0-0.172,0.078-0.315,0.236-0.431c0.157-0.114,0.25-0.215,0.279-0.301
			c0.057-0.028,0.143-0.064,0.258-0.107c0.114-0.044,0.2-0.079,0.258-0.107c0.172-0.113,0.388-0.302,0.646-0.56
			c0.028,0,0.071-0.026,0.129-0.086c0.258-0.086,0.444-0.157,0.559-0.215c0.058-0.028,0.136-0.057,0.236-0.086
			c0.101-0.028,0.179-0.057,0.237-0.086l0.258-0.129c0.028,0,0.057,0.015,0.086,0.043h0.086c0.172-0.058,0.301-0.086,0.387-0.086
			c0.058,0,0.129,0.008,0.215,0.021c0.086,0.016,0.144,0.021,0.173,0.021C52.037,91.894,52.093,91.88,52.152,91.851z M51.85,95.893
			l-0.043,0.043h-0.172c-0.573,0-0.859,0.187-0.859,0.56c0,0.057-0.016,0.114-0.043,0.172l-0.13,0.172c0,0.086,0,0.236,0,0.451
			s0,0.365,0,0.451c-0.028,0.086-0.043,0.215-0.043,0.387c0,0.115,0.015,0.201,0.043,0.258c0.114,0.06,0.229,0.087,0.345,0.087
			c0.286,0,0.659-0.13,1.118-0.388c0.2-0.143,0.329-0.271,0.387-0.387c0.028-0.027,0.071-0.057,0.129-0.086
			c0.057-0.028,0.086-0.057,0.086-0.086c0.086-0.229,0.129-0.487,0.129-0.773c0-0.287-0.043-0.474-0.129-0.56
			C52.266,95.993,51.994,95.893,51.85,95.893z"/>
		<path fill="#231F20" d="M65.18,92.71l0.302,0.129c0.114-0.057,0.215-0.086,0.301-0.086c0.114,0,0.265,0.021,0.451,0.064
			s0.324,0.063,0.41,0.063h0.387c0.027,0,0.064-0.021,0.107-0.063s0.077-0.064,0.106-0.064c0.086,0.029,0.2,0.043,0.344,0.043h0.774
			l0.043,0.043c0.057,0.029,0.1,0.043,0.129,0.043h0.473l0.26,0.129c0.057,0.029,0.149,0.052,0.278,0.064
			c0.129,0.016,0.207,0.021,0.236,0.021c0.772,0.315,1.261,0.573,1.462,0.774h0.172c0,0.057,0.059,0.114,0.172,0.172
			c0.114,0.229,0.258,0.416,0.432,0.56c0,0.086,0.057,0.187,0.172,0.301c0,0.029,0.021,0.115,0.063,0.258
			c0.043,0.146,0.063,0.258,0.063,0.344v0.086l-0.043,0.129c0,0.06,0.015,0.151,0.043,0.28c0.029,0.129,0.043,0.223,0.043,0.279
			v0.086l-0.086,0.216c0,0.028,0.008,0.064,0.021,0.107s0.021,0.078,0.021,0.106l-0.043,0.043c0,0.058,0,0.101,0,0.129
			c0.027,0.059,0.043,0.102,0.043,0.13c0.027,0.086,0.014,0.229-0.043,0.43c0,0.058,0.007,0.106,0.021,0.149
			c0.015,0.043,0.021,0.08,0.021,0.107c0,0.059-0.015,0.129-0.043,0.215s-0.043,0.146-0.043,0.172c0,0.06,0.028,0.123,0.086,0.193
			c0.058,0.072,0.086,0.123,0.086,0.151l0.13,0.344v0.215c0.114,0.173,0.172,0.315,0.172,0.431c0.172,0.086,0.258,0.157,0.258,0.215
			c0.286,0.059,0.444,0.115,0.474,0.173c0.746,0.058,1.434-0.114,2.063-0.517c0.058-0.086,0.192-0.18,0.408-0.28
			s0.352-0.208,0.409-0.321c0.113,0,0.242-0.043,0.387-0.129c0.058-0.028,0.122-0.094,0.193-0.194c0.07-0.1,0.121-0.164,0.149-0.193
			c0.028-0.026,0.079-0.057,0.149-0.086c0.072-0.026,0.109-0.069,0.109-0.129c0.086-0.026,0.192-0.078,0.321-0.149
			c0.129-0.07,0.235-0.121,0.321-0.15c0.058-0.086,0.188-0.157,0.388-0.215c0.058-0.028,0.101-0.078,0.129-0.15
			c0.028-0.07,0.058-0.106,0.086-0.106c0.028-0.028,0.13-0.071,0.302-0.129l0.043-0.086c0.058-0.059,0.101-0.102,0.129-0.13
			c0.058-0.058,0.129-0.114,0.215-0.172c0.087-0.058,0.144-0.101,0.173-0.129c0.258-0.259,0.473-0.388,0.646-0.388
			c0.086,0,0.144,0.015,0.172,0.043c0.4,0.058,0.603,0.259,0.603,0.603v0.259c0,0.258-0.043,0.459-0.129,0.602
			c-0.029,0.059-0.072,0.107-0.13,0.15c-0.057,0.043-0.086,0.08-0.086,0.106c0,0.029-0.008,0.072-0.021,0.129
			c-0.015,0.06-0.028,0.107-0.043,0.15s-0.036,0.08-0.063,0.106c-0.086,0.087-0.158,0.146-0.215,0.174L79.8,98.945
			c-0.199,0.345-0.328,0.53-0.387,0.56c-0.115,0.259-0.301,0.474-0.559,0.646c-0.115,0.229-0.402,0.488-0.86,0.772
			c-0.201,0.23-0.431,0.389-0.688,0.475c-0.059,0-0.102,0.027-0.13,0.086c-0.028,0.058-0.058,0.086-0.086,0.086h-0.129
			c-0.058,0-0.129,0.036-0.215,0.106c-0.086,0.071-0.172,0.107-0.259,0.107c0,0.087-0.071,0.18-0.215,0.28
			c-0.144,0.1-0.229,0.164-0.258,0.192h-0.084c-0.059,0-0.216,0.043-0.474,0.129c-0.115,0.028-0.258,0.059-0.431,0.087
			c-0.172,0.028-0.272,0.043-0.301,0.043c-0.345,0.086-0.531,0.129-0.56,0.129H74.08v0.043c0,0.028-0.015,0.043-0.043,0.043
			c-0.029,0.028-0.115,0.043-0.259,0.043c-0.057,0-0.129,0.021-0.215,0.063s-0.157,0.064-0.215,0.064
			c-0.029,0-0.086-0.021-0.173-0.064c-0.086-0.043-0.157-0.063-0.215-0.063c-0.028,0.028-0.058,0.043-0.086,0.043
			c-0.114-0.058-0.396-0.144-0.838-0.258c-0.445-0.114-0.739-0.259-0.882-0.431c-0.115,0-0.229-0.043-0.344-0.129
			c-0.172-0.086-0.33-0.201-0.475-0.345c-0.086-0.059-0.165-0.122-0.236-0.193c-0.07-0.07-0.149-0.122-0.235-0.149
			c-0.058-0.059-0.115-0.086-0.173-0.086c-0.057-0.059-0.2,0-0.43,0.172c-0.145,0.058-0.216,0.129-0.216,0.215
			c-0.172,0.028-0.286,0.144-0.344,0.345c-0.632,0.4-0.961,0.603-0.989,0.603c-0.459,0.286-0.846,0.443-1.16,0.473
			c-0.029,0-0.064,0.021-0.107,0.063c-0.043,0.044-0.079,0.064-0.107,0.064c-0.114,0-0.344,0.029-0.688,0.086h-0.129
			c-0.258,0-0.609-0.063-1.054-0.193c-0.445-0.129-0.753-0.207-0.925-0.235c-0.058-0.058-0.15-0.121-0.279-0.193
			c-0.129-0.071-0.223-0.121-0.279-0.149c-0.029-0.028-0.101-0.071-0.215-0.13c-0.029-0.028-0.094-0.101-0.193-0.215
			c-0.102-0.114-0.209-0.187-0.323-0.215c0-0.029-0.015-0.058-0.043-0.087v-0.043c-0.086-0.058-0.215-0.165-0.387-0.322
			c-0.172-0.156-0.315-0.265-0.43-0.322c-0.029-0.058-0.102-0.144-0.215-0.259c-0.115-0.112-0.188-0.215-0.216-0.301
			c-0.028-0.057-0.043-0.143-0.043-0.258l-0.129-0.129c-0.086-0.144-0.187-0.517-0.301-1.118c0-0.315,0.043-0.544,0.129-0.688
			c0-0.026-0.028-0.1-0.086-0.215c0-0.086,0.021-0.192,0.064-0.321s0.064-0.236,0.064-0.322c0-0.028,0.021-0.05,0.064-0.064
			c0.043-0.014,0.064-0.035,0.064-0.063c0-0.114-0.015-0.187-0.043-0.215c0-0.058,0.071-0.145,0.215-0.259l-0.043-0.043
			c0-0.028,0-0.058,0-0.086c0-0.058,0.015-0.122,0.043-0.192c0.028-0.072,0.043-0.122,0.043-0.151c0.144,0,0.243-0.071,0.302-0.215
			c0.028-0.028,0.021-0.058-0.021-0.086s-0.064-0.059-0.064-0.086l0.215-0.215c0-0.114,0.043-0.229,0.129-0.346
			c0.086-0.112,0.143-0.186,0.172-0.215l0.301-0.301c0-0.028,0.028-0.043,0.086-0.043s0.101-0.014,0.129-0.043V94.86
			c0-0.086,0.028-0.157,0.086-0.215s0.086-0.101,0.086-0.129V94.43c0.431-0.517,0.788-0.832,1.075-0.946
			c0.028-0.028,0.043-0.086,0.043-0.172c0.086,0,0.157-0.028,0.215-0.086c0.028-0.028,0.058-0.071,0.086-0.13l0.044-0.087
			c0.027-0.026,0.064-0.026,0.107,0c0.043,0.029,0.078,0.044,0.107,0.044c0.172-0.173,0.43-0.259,0.773-0.259h0.258L65.18,92.71z
			 M67.567,95.183c-0.071-0.07-0.137-0.107-0.193-0.107s-0.102,0.016-0.129,0.043c-0.029,0.059-0.102,0.086-0.215,0.086
			c0,0.029-0.008,0.064-0.021,0.107c-0.015,0.043-0.021,0.08-0.021,0.106c-0.057,0-0.114,0.029-0.172,0.086
			c-0.058,0.06-0.114,0.086-0.172,0.086c0,0.029-0.115,0.188-0.345,0.475c-0.144,0.258-0.258,0.517-0.344,0.773
			c-0.115,0.315-0.187,0.588-0.215,0.816c0,0.059-0.008,0.129-0.021,0.215c-0.015,0.086-0.036,0.158-0.064,0.215
			c0,0.06-0.029,0.181-0.086,0.365c-0.058,0.188-0.086,0.323-0.086,0.409v0.129c0.057,0.287,0.229,0.431,0.516,0.431
			c0.114,0,0.215-0.043,0.301-0.129c0.028,0,0.071-0.058,0.129-0.173l0.174-0.172c0-0.028,0.014-0.071,0.043-0.129
			c0.026-0.059,0.049-0.107,0.063-0.15s0.021-0.079,0.021-0.106c0.201-0.346,0.302-0.587,0.302-0.731
			c0.057-0.057,0.186-0.356,0.387-0.902l0.129-0.215c0.028-0.086,0.114-0.315,0.259-0.688c0-0.028,0-0.086,0-0.172
			c0-0.087,0.014-0.157,0.043-0.217c-0.059-0.112-0.086-0.215-0.086-0.301C67.703,95.306,67.638,95.255,67.567,95.183z"/>
		<path fill="#231F20" d="M81.133,90.302c0.173,0,0.373,0.115,0.603,0.346h0.086c0.115,0,0.229,0.05,0.345,0.149
			c0.115,0.101,0.215,0.15,0.301,0.15c0.087,0.086,0.187,0.229,0.302,0.431c0.114,0.2,0.201,0.33,0.258,0.388
			c0,0.028-0.014,0.058-0.043,0.086l-0.043,0.043c0.115,0.114,0.172,0.215,0.172,0.301c0.029,0.058,0.072,0.086,0.13,0.086
			c0.058,0.059,0.086,0.102,0.086,0.129c0,0.029-0.028,0.072-0.086,0.129c0.114,0.287,0.172,0.502,0.172,0.646
			c0,0.058,0.015,0.086,0.043,0.086c0,0.027-0.015,0.058-0.043,0.086c-0.028,0.027-0.028,0.07,0,0.129
			c0.114,0.028,0.243,0,0.387-0.086h0.345l0.086-0.086c0.058-0.028,0.144-0.043,0.259-0.043l0.172-0.043
			c0.086-0.028,0.265-0.086,0.537-0.173s0.466-0.156,0.581-0.216c0.027,0,0.1-0.021,0.215-0.063
			c0.113-0.043,0.199-0.078,0.258-0.107c0.604-0.198,0.989-0.301,1.161-0.301h0.043c0.028,0,0.043-0.014,0.043-0.043
			c0-0.027,0.015-0.027,0.043,0c0.086-0.027,0.215-0.043,0.388-0.043c0.2,0,0.344,0.016,0.43,0.043l0.302,0.043
			c0.058,0.029,0.129,0.08,0.215,0.15c0.086,0.071,0.157,0.123,0.215,0.149c0.028,0,0.079,0.017,0.15,0.043
			c0.071,0.029,0.136,0.06,0.194,0.086v0.129c0.057,0,0.121,0.029,0.192,0.087c0.071,0.059,0.121,0.086,0.149,0.086
			c0.115,0.315,0.201,0.502,0.259,0.56c-0.058,0.229-0.086,0.388-0.086,0.474c0,0.028,0.028,0.129,0.086,0.302l-0.086,0.086v0.086
			c0,0.114-0.015,0.215-0.043,0.301c-0.029,0.086-0.063,0.188-0.107,0.301c-0.043,0.115-0.079,0.201-0.106,0.258
			c0,0.201-0.043,0.389-0.129,0.561l0.043,0.172c-0.145,0-0.267,0.086-0.366,0.258c-0.101,0.173-0.193,0.259-0.279,0.259
			c-0.058,0.286-0.144,0.444-0.258,0.474c0.028,0,0.043,0.043,0.043,0.129c-0.058,0.058-0.115,0.086-0.172,0.086
			c-0.115,0.287-0.216,0.473-0.302,0.559v0.215c-0.058,0.06-0.144,0.158-0.258,0.302c-0.115,0.145-0.216,0.244-0.302,0.302
			c0.028,0.058,0.043,0.114,0.043,0.172s0,0.101,0,0.129c-0.2,0.229-0.329,0.604-0.387,1.118l-0.086,0.172
			c0.028,0.06,0.036,0.129,0.021,0.215c-0.015,0.086-0.021,0.158-0.021,0.215l-0.129,0.129c0.057,0.06,0.071,0.15,0.043,0.28
			c-0.029,0.129-0.029,0.236,0,0.322l0.086,0.043c0.058,0,0.101,0,0.129,0c0.2,0,0.358-0.058,0.474-0.172
			c0.057-0.059,0.113-0.071,0.172-0.043c0-0.028,0.015-0.059,0.043-0.086c0.028-0.028,0.043-0.059,0.043-0.087
			c0.144-0.058,0.293-0.172,0.451-0.345c0.157-0.172,0.279-0.284,0.365-0.344c0.086-0.143,0.172-0.215,0.258-0.215
			c0.26-0.314,0.668-0.73,1.227-1.247c0.56-0.516,0.896-0.831,1.011-0.946l0.172-0.086c0.172-0.229,0.358-0.387,0.56-0.473
			c0-0.057,0.015-0.1,0.043-0.129c0.345-0.258,0.531-0.387,0.56-0.387c0.144-0.287,0.388-0.431,0.731-0.431h0.086
			c0.027,0,0.106-0.015,0.235-0.043c0.13-0.028,0.222-0.043,0.279-0.043h0.086c0.058,0,0.144,0.035,0.258,0.107
			c0.114,0.07,0.2,0.106,0.259,0.106c0.027,0,0.101,0.058,0.215,0.172v0.345c0,0.058-0.021,0.101-0.063,0.129
			s-0.094,0.058-0.149,0.086c-0.06,0.029-0.103,0.058-0.131,0.086c-0.027,0.058-0.078,0.106-0.15,0.15
			c-0.07,0.043-0.121,0.079-0.149,0.106c-0.028,0.172-0.144,0.273-0.344,0.301c-0.086,0.06-0.187,0.181-0.302,0.365
			c-0.114,0.188-0.229,0.309-0.344,0.366c-0.029,0-0.043,0.058-0.043,0.172c-0.059,0.028-0.137,0.107-0.236,0.237
			c-0.102,0.129-0.209,0.222-0.322,0.278c-0.029,0.086-0.072,0.172-0.129,0.259c-0.059,0.086-0.137,0.187-0.236,0.301
			c-0.102,0.115-0.18,0.201-0.236,0.258c-0.028,0-0.071,0.029-0.129,0.086c-0.059,0.059-0.115,0.102-0.172,0.129
			c0,0.06-0.064,0.115-0.193,0.172c-0.129,0.06-0.193,0.115-0.193,0.172c0,0.029,0.016,0.043,0.043,0.043
			c-0.059,0.06-0.129,0.13-0.215,0.216c-0.086,0.087-0.158,0.166-0.215,0.236c-0.059,0.071-0.137,0.145-0.236,0.215
			c-0.102,0.071-0.193,0.122-0.279,0.15c0,0.058-0.043,0.122-0.13,0.194c-0.086,0.07-0.144,0.121-0.172,0.149
			c-0.058,0-0.106,0.021-0.149,0.064s-0.086,0.086-0.129,0.129s-0.08,0.078-0.107,0.106c-0.029,0.028-0.107,0.064-0.236,0.107
			s-0.209,0.079-0.236,0.107c-0.028,0.028-0.086,0.079-0.172,0.149c-0.086,0.072-0.129,0.138-0.129,0.193l-0.259,0.086
			c-0.058,0.115-0.229,0.215-0.517,0.301c-0.286,0.086-0.459,0.172-0.516,0.258c-0.115,0-0.266,0.029-0.451,0.086
			c-0.188,0.059-0.31,0.086-0.365,0.086H86.81c-0.086,0-0.18-0.007-0.279-0.021c-0.102-0.014-0.18-0.021-0.236-0.021h-0.129
			c-0.516-0.198-1.118-0.586-1.807-1.159c-0.028-0.028-0.071-0.086-0.129-0.173c-0.058-0.086-0.114-0.144-0.172-0.172
			c-0.059-0.172-0.115-0.271-0.172-0.301c-0.059-0.287-0.115-0.517-0.173-0.688c-0.144-0.229-0.215-0.444-0.215-0.646
			c0-0.027,0.007-0.086,0.021-0.172c0.015-0.086,0.021-0.157,0.021-0.215v-0.73c0-0.028,0.016-0.079,0.043-0.149
			c0.027-0.072,0.027-0.138,0-0.194c0.059-0.114,0.07-0.187,0.043-0.215c0.027-0.028,0.043-0.064,0.043-0.107
			s0.016-0.063,0.043-0.063v-0.086c0-0.059,0.021-0.129,0.064-0.216s0.063-0.156,0.063-0.216c0.028-0.057,0.071-0.086,0.13-0.086
			c0-0.026-0.008-0.063-0.021-0.106c-0.017-0.043-0.021-0.078-0.021-0.107c0-0.026,0.043-0.172,0.129-0.43
			c0.027-0.028,0.07-0.043,0.129-0.043l0.086,0.043c0-0.028-0.021-0.05-0.064-0.064c-0.043-0.014-0.064-0.035-0.064-0.063
			c0-0.114,0.058-0.243,0.172-0.388c0.115-0.144,0.172-0.258,0.172-0.344v-0.129l0.087-0.087c0.058-0.086,0.114-0.144,0.172-0.172
			V96.15c0-0.059,0.058-0.172,0.172-0.345h-0.086c-0.086,0-0.215,0.021-0.388,0.064c-0.172,0.043-0.286,0.064-0.344,0.064h-0.56
			l-0.901,0.129h-0.303c-0.086,0.027-0.188,0.043-0.301,0.043c-0.115,0-0.215,0.015-0.301,0.043
			c-0.086,0.086-0.145,0.229-0.172,0.431c-0.029,0.2-0.059,0.329-0.086,0.387c0,0.259-0.043,0.444-0.129,0.56
			c0.027,0.058,0.043,0.145,0.043,0.258c0,0.172-0.06,0.316-0.173,0.43c0.087,0.115,0.07,0.23-0.044,0.346v0.172
			c0,0.113-0.027,0.258-0.086,0.43c0,0.029,0.016,0.058,0.043,0.087l0.043,0.043v0.344c0,0.087,0.008,0.193,0.021,0.322
			c0.015,0.129,0.021,0.224,0.021,0.279v0.344c-0.145,0.23-0.23,0.402-0.259,0.517c0.028,0.059,0.043,0.102,0.043,0.13
			c0,0.086-0.028,0.172-0.086,0.258s-0.086,0.144-0.086,0.172c-0.058,0.287-0.086,0.459-0.086,0.517l-0.086,0.172
			c-0.058,0.087-0.101,0.158-0.13,0.216c-0.057,0.058-0.137,0.144-0.235,0.258c-0.101,0.115-0.201,0.208-0.301,0.279
			c-0.103,0.071-0.209,0.122-0.323,0.149c-0.086-0.027-0.215-0.063-0.387-0.106s-0.287-0.064-0.344-0.064
			c-0.373-0.258-0.604-0.443-0.688-0.559l-0.172-0.086c-0.058-0.087-0.129-0.158-0.216-0.216c0-0.028-0.028-0.071-0.086-0.129
			c-0.172-0.144-0.314-0.358-0.43-0.646c0.059-0.059,0.086-0.102,0.086-0.129h-0.082v-0.13c0-0.086,0.021-0.207,0.063-0.365
			c0.043-0.156,0.063-0.265,0.063-0.322l0.172-0.086c0-0.027,0-0.086,0-0.172s-0.015-0.144-0.043-0.172l0.043-0.043
			c0.029,0,0.059-0.015,0.086-0.043l-0.043-0.043c-0.027,0-0.027-0.015,0-0.043c0.029-0.028,0.043-0.086,0.043-0.172
			c0-0.201,0.043-0.33,0.13-0.388c0.028-0.028,0.028-0.058,0-0.086h-0.044c0.029-0.029,0.058-0.107,0.087-0.237
			c0.028-0.129,0.086-0.207,0.172-0.235V98.73l-0.043-0.086c0-0.028,0.086-0.173,0.258-0.432v-0.086
			c0-0.057,0.021-0.129,0.063-0.215s0.064-0.143,0.064-0.172v-0.086l0.043-0.043v-0.043c0-0.086,0.016-0.157,0.044-0.215
			c0.027-0.058,0.044-0.101,0.044-0.129c-0.088-0.086-0.244-0.208-0.475-0.365c-0.229-0.158-0.387-0.294-0.473-0.409
			c-0.717-0.602-1.075-1.261-1.075-1.978c0-0.058,0.028-0.086,0.086-0.086l-0.086-0.173c0.028-0.086,0.058-0.2,0.086-0.344
			s0.058-0.244,0.086-0.302c0.086-0.145,0.243-0.329,0.474-0.561l0.086-0.086c0.086-0.057,0.114-0.112,0.086-0.172
			c0.286-0.399,0.473-0.645,0.56-0.729l0.129-0.129c0.229-0.229,0.358-0.345,0.387-0.345l0.087-0.129
			c0.143-0.086,0.301-0.215,0.473-0.388c0.058,0.029,0.216-0.043,0.474-0.215c0.028-0.028,0.086-0.093,0.172-0.193
			c0.086-0.1,0.172-0.165,0.259-0.193c0.172-0.058,0.344-0.087,0.516-0.087h0.173c0.058-0.112,0.157-0.1,0.301,0.043
			C80.99,90.331,81.076,90.302,81.133,90.302z M81.263,92.452c-0.087,0-0.173,0.115-0.259,0.344
			c-0.058,0.06-0.129,0.086-0.215,0.086c-0.028,0.115-0.101,0.201-0.215,0.26c0,0.144-0.029,0.242-0.087,0.301l-0.043,0.043
			c-0.028,0-0.071,0.015-0.129,0.043c-0.172,0.172-0.271,0.33-0.301,0.474l-0.086,0.086c-0.059,0.028-0.072,0.071-0.043,0.129
			c0.113,0.058,0.243,0.086,0.387,0.086c0.086,0,0.229-0.015,0.431-0.043c0.2-0.028,0.344-0.043,0.43-0.043
			c0.229-0.028,0.388-0.157,0.474-0.387V93.7c0-0.028-0.008-0.101-0.021-0.215c-0.015-0.114-0.021-0.258-0.021-0.431
			c0-0.113-0.016-0.199-0.043-0.259c-0.086-0.086-0.129-0.155-0.129-0.215C81.392,92.495,81.349,92.452,81.263,92.452z"/>
		<path fill="#231F20" d="M95.366,83.38h0.086c0.027,0,0.058,0.015,0.086,0.043l0.043,0.086c0.027,0,0.086,0.008,0.173,0.021
			c0.086,0.014,0.157,0.036,0.215,0.063c0.028,0,0.058,0.028,0.087,0.087c0.057,0.086,0.129,0.114,0.215,0.086
			c0.027,0.144,0.129,0.301,0.301,0.473c0.172,0.574,0.285,0.889,0.344,0.946c0,0.058,0.016,0.156,0.043,0.301
			C96.985,85.63,97,85.745,97,85.831s-0.015,0.157-0.043,0.215c0,0.086,0.043,0.388,0.13,0.902v0.258
			c0,0.115,0.006,0.279,0.021,0.494c0.014,0.216,0.021,0.366,0.021,0.452c0,0.229-0.028,0.388-0.087,0.474
			c0.027,0.401,0.044,0.89,0.044,1.461c0,0.06,0.035,0.103,0.106,0.129c0.072,0.029,0.107,0.06,0.107,0.086
			c0.831,0.201,1.376,0.389,1.635,0.561h0.129c0.057,0,0.199,0.071,0.43,0.215c0.058,0.201,0.145,0.33,0.259,0.388
			c-0.028,0.086-0.022,0.157,0.021,0.216c0.043,0.058,0.064,0.114,0.064,0.172c0.027,0.058,0.064,0.137,0.107,0.235
			c0.043,0.102,0.078,0.165,0.106,0.193c0.058,0.115,0.087,0.188,0.087,0.215c0,0.086-0.029,0.18-0.087,0.279
			c-0.058,0.102-0.101,0.166-0.129,0.192c-0.06,0-0.129,0.029-0.216,0.086c-0.086,0.06-0.145,0.088-0.172,0.088h-0.086l-0.086-0.044
			l-0.043,0.044c-0.028,0.058-0.059,0.086-0.086,0.086H98.89c-0.086,0-0.129,0.015-0.129,0.043c-0.029,0-0.059-0.007-0.087-0.021
			s-0.058-0.021-0.086-0.021s-0.063,0.027-0.106,0.086c-0.043,0.058-0.08,0.086-0.108,0.086s-0.093,0.015-0.192,0.043
			c-0.101,0.027-0.166,0.043-0.193,0.043c-0.059,0-0.145-0.016-0.258-0.043c-0.115-0.028-0.215-0.043-0.301-0.043h-0.087
			l-0.086,0.043c-0.059,0.027-0.103,0.043-0.129,0.043c-0.06,0-0.108,0-0.151,0s-0.086,0-0.129,0s-0.093,0-0.149,0
			c-0.058,0-0.101,0-0.13,0l-0.043,0.043l-0.043,0.043c0.059,0.314,0.029,0.517-0.086,0.603c0.086,0.345,0.129,0.56,0.129,0.646
			v0.602c-0.027,0.06-0.071,0.115-0.129,0.172c0.086,0.146,0.129,0.33,0.129,0.561c0,0.144-0.027,0.357-0.086,0.646
			c0,0.058,0.008,0.114,0.021,0.172c0.014,0.059,0.021,0.102,0.021,0.13c-0.086,0.4-0.158,0.659-0.215,0.772v0.129
			c0,0.06-0.009,0.123-0.021,0.193c-0.016,0.072-0.021,0.123-0.021,0.149c0,0.174,0.015,0.287,0.043,0.346
			c0,0.058-0.028,0.144-0.086,0.258c0.058,0.144,0.086,0.373,0.086,0.688c0,0.315,0.015,0.546,0.043,0.688
			c0,0.059,0.015,0.166,0.043,0.322c0.028,0.157,0.043,0.278,0.043,0.364v0.13c-0.058,0.114-0.086,0.188-0.086,0.216
			c0,0.058,0.008,0.113,0.021,0.172c0.014,0.058,0.021,0.101,0.021,0.129c-0.029,0.058-0.064,0.137-0.107,0.237
			c-0.043,0.1-0.064,0.164-0.064,0.192v0.129c0,0.173,0.043,0.358,0.129,0.56h0.086c0.028,0.028,0.058,0.043,0.086,0.043
			c0.115,0,0.223-0.028,0.322-0.086c0.102-0.058,0.215-0.15,0.346-0.279c0.129-0.129,0.222-0.208,0.279-0.236
			c0.113-0.172,0.229-0.271,0.344-0.301c0.113-0.145,0.314-0.373,0.602-0.688c0.287-0.315,0.486-0.561,0.604-0.731l0.043-0.043
			c0.027-0.027,0.057-0.027,0.086,0c0.027-0.057,0.043-0.143,0.043-0.258c0.086-0.057,0.271-0.271,0.559-0.646
			c0.059-0.086,0.15-0.2,0.279-0.344c0.13-0.145,0.207-0.244,0.236-0.302c0.086,0,0.144-0.015,0.172-0.043
			c0-0.028,0.008-0.064,0.021-0.107s0.035-0.079,0.064-0.106c0.144-0.145,0.457-0.587,0.945-1.333l0.172-0.172
			c0.028-0.028,0.071-0.071,0.129-0.129l0.043-0.087c0.028-0.028,0.058-0.058,0.086-0.086l0.043-0.043
			c0.029-0.028,0.059-0.071,0.086-0.129l0.043-0.043l0.302-0.259c0.173-0.258,0.287-0.415,0.345-0.473
			c0-0.028,0.021-0.059,0.064-0.087c0.043-0.027,0.064-0.058,0.064-0.086l0.473-0.517c0.229-0.172,0.414-0.286,0.56-0.344
			c0.026-0.028,0.07-0.043,0.129-0.043c0.144,0,0.286,0.072,0.431,0.215c0.258,0.145,0.387,0.387,0.387,0.73v0.13
			c-0.028,0.172-0.094,0.372-0.193,0.603c-0.102,0.229-0.165,0.415-0.193,0.56c-0.058,0.114-0.158,0.271-0.301,0.473
			c-0.144,0.201-0.229,0.358-0.258,0.473l-0.259,0.129c0,0.146-0.028,0.244-0.086,0.302c-0.086,0.087-0.216,0.243-0.388,0.474
			c-0.172,0.229-0.314,0.388-0.43,0.474c0,0.086-0.021,0.164-0.064,0.236c-0.043,0.071-0.063,0.122-0.063,0.15
			c-0.06,0.028-0.13,0.086-0.216,0.172c0,0.058-0.027,0.129-0.086,0.215s-0.086,0.144-0.086,0.172
			c-0.145,0.059-0.258,0.188-0.344,0.387c-0.172,0.23-0.258,0.373-0.258,0.431c-0.029,0-0.072,0.043-0.129,0.13
			c-0.059,0.086-0.115,0.113-0.173,0.086c-0.06,0.286-0.157,0.443-0.302,0.473c-0.145,0.545-0.372,0.918-0.688,1.118
			c0,0.029-0.016,0.079-0.043,0.15c-0.029,0.071-0.059,0.137-0.086,0.192c-0.029,0-0.059,0.021-0.087,0.064
			s-0.058,0.063-0.086,0.063c-0.286,0.574-0.56,0.875-0.817,0.903c-0.114,0.058-0.271,0.222-0.473,0.495
			c-0.201,0.271-0.402,0.422-0.604,0.451c-0.027,0-0.057,0.026-0.086,0.086c-0.027,0.057-0.057,0.086-0.086,0.086
			c-0.2,0-0.344,0.07-0.43,0.215c-0.058,0-0.101-0.015-0.129-0.043c-0.029,0.057-0.072,0.1-0.129,0.129
			c-0.059,0.028-0.129,0.043-0.216,0.043c-0.086,0-0.144,0-0.172,0s-0.071,0.021-0.13,0.064c-0.057,0.043-0.121,0.07-0.192,0.086
			c-0.071,0.014-0.137,0.021-0.192,0.021c-0.459,0-0.918-0.158-1.377-0.473c-0.631-0.431-1.018-0.804-1.16-1.118l-0.043-0.086
			c0-0.059,0.014-0.102,0.043-0.129c-0.115-0.028-0.258-0.258-0.431-0.688c-0.058-0.086-0.122-0.192-0.192-0.321
			c-0.072-0.13-0.123-0.223-0.151-0.279c-0.144-0.4-0.229-0.646-0.258-0.73c-0.028-0.058-0.05-0.144-0.064-0.258
			c-0.015-0.115-0.021-0.201-0.021-0.259c0-0.028-0.016-0.093-0.043-0.193c-0.028-0.1-0.059-0.187-0.086-0.259
			c-0.028-0.07-0.043-0.135-0.043-0.193c0-0.057-0.008-0.192-0.021-0.407c-0.014-0.216-0.036-0.365-0.064-0.451
			c0-0.028,0.015-0.058,0.043-0.086s0.028-0.071,0-0.129c-0.028-0.114-0.043-0.302-0.043-0.56V97.96c0-0.057,0.015-0.1,0.043-0.129
			c0.028-0.027,0.043-0.057,0.043-0.086v-0.129c0-0.028-0.006-0.093-0.021-0.193c-0.015-0.1-0.021-0.192-0.021-0.278
			c0-0.058,0.007-0.158,0.021-0.302c0.015-0.144,0.021-0.258,0.021-0.344v-0.216c0-0.028,0.016-0.071,0.043-0.129
			c0.029-0.059,0.043-0.114,0.043-0.172c0-0.059-0.006-0.145-0.021-0.259c-0.015-0.113-0.021-0.187-0.021-0.216
			c0.058-0.229,0.086-0.356,0.086-0.387c0.058-1.003,0.144-1.604,0.258-1.806c-0.059-0.346-0.086-0.616-0.086-0.817
			c0-0.172,0.027-0.301,0.086-0.387v-0.172c0-0.286,0.043-0.459,0.129-0.517l-0.086-0.172c0.027-0.058,0.05-0.193,0.064-0.409
			c0.014-0.215,0.049-0.351,0.107-0.408l-0.043-0.043c-0.029-0.058-0.029-0.101,0-0.13c0-0.057,0.021-0.12,0.064-0.192
			c0.043-0.07,0.063-0.121,0.063-0.15c-0.028-0.057-0.043-0.156-0.043-0.301c0-0.286,0.058-0.544,0.172-0.773
			c0.144-0.688,0.229-1.074,0.259-1.161c0-0.087,0.021-0.173,0.063-0.259s0.063-0.143,0.063-0.172
			c0.028-0.057,0.043-0.129,0.043-0.215c0-0.172,0.043-0.387,0.129-0.645c0.086-0.259,0.129-0.487,0.129-0.688
			c0.029-0.028,0.059-0.063,0.087-0.107c0.028-0.043,0.058-0.078,0.086-0.106v-0.043c-0.028-0.028-0.043-0.059-0.043-0.086
			c0-0.059,0.015-0.145,0.043-0.258c0.058-0.059,0.086-0.114,0.086-0.174c0.028-0.057,0.058-0.143,0.086-0.258
			c0.028-0.112,0.044-0.186,0.044-0.215c0.027-0.086,0.078-0.186,0.15-0.301c0.07-0.114,0.121-0.187,0.149-0.215v-0.258
			c0.114-0.059,0.173-0.114,0.173-0.173c0.086,0,0.186-0.021,0.301-0.063C95.265,83.401,95.337,83.38,95.366,83.38z"/>
	</g>
	<path fill="#77111A" d="M13.684,47.848c-1.883,10.729,16.742,32.905,31.41,6.553c2.467-1.652,2.033,0.131,2.033,1.615
		c0,4.088-24.701,28.903-34.629-0.146C10.885,50.963,12.401,45.762,13.684,47.848z"/>
	<path fill="#77111A" d="M109.978,42.086c0,0,3.116-0.235,0.616,5.289c-2.5,5.525-5.834,14.988-6,15.59
		c-0.168,0.603,9.097,0.603,10.132,4.603c1.034,4-4.8,4.067-5.066,2.215c-0.064-0.447,4.102-0.678,2.602-2.715
		c-0.441-0.601-8.635-0.935-9.803-3.332C101.292,61.336,109.978,42.086,109.978,42.086z"/>
	<path fill="#77111A" d="M52.116,51.621c0,0,44.715,12.281,50.234,16.445c3.828,2.889-43.341-13.334-50.234-15.176
		C49.948,51.029,52.731,51.802,52.116,51.621z"/>
	<g>
		<path fill="#231F20" d="M58.035,59.285h0.129c0.086,0,0.208,0.021,0.365,0.064c0.157,0.043,0.266,0.063,0.323,0.063
			s0.114,0.007,0.172,0.021c0.057,0.015,0.114,0.021,0.172,0.021h0.516c0.372,0,0.646,0.043,0.817,0.129
			c0.028,0,0.086,0.043,0.172,0.13c0.258,0,0.53,0.114,0.817,0.345c0.172,0,0.357,0.063,0.559,0.192
			c0.2,0.129,0.372,0.193,0.516,0.193c0,0.144,0.101,0.244,0.302,0.301c0.057,0.201,0.1,0.301,0.129,0.301
			c0.086,0.06,0.207,0.188,0.365,0.388c0.157,0.2,0.294,0.33,0.408,0.388c0.058,0.172,0.114,0.271,0.173,0.301
			c0.027,0.028,0.027,0.064,0,0.107c-0.029,0.043-0.044,0.079-0.044,0.107c0.058,0.114,0.157,0.271,0.302,0.474
			c0.143,0.2,0.258,0.357,0.344,0.473c0,0.23-0.015,0.359-0.043,0.387c0,0.029,0.014,0.043,0.043,0.043
			c0.114,0,0.2,0.043,0.258,0.129s0.107,0.201,0.15,0.345c0.043,0.145,0.093,0.244,0.15,0.302c-0.028,0.058-0.043,0.144-0.043,0.258
			c0,0.145,0.058,0.315,0.172,0.518c0.114,0.199,0.187,0.328,0.216,0.387c0,0.058,0,0.149,0,0.279c0,0.129,0.014,0.223,0.043,0.278
			c0.028,0.06,0.064,0.107,0.107,0.15s0.064,0.08,0.064,0.106c0.086,0.517,0.143,0.789,0.172,0.817c0,0.028-0.008,0.093-0.021,0.193
			c-0.015,0.101-0.021,0.18-0.021,0.236c0,0.431,0.071,0.788,0.215,1.074c0,0.344,0.014,0.646,0.043,0.902
			c0,0.087,0.028,0.209,0.086,0.366c0.058,0.156,0.086,0.266,0.086,0.321c0,0.087-0.043,0.173-0.129,0.259
			c0,0.058,0.007,0.137,0.021,0.236c0.014,0.101,0.021,0.18,0.021,0.236c0,0.258-0.043,0.488-0.129,0.688
			c0.028,0.086,0.043,0.201,0.043,0.345c0,0.2-0.015,0.345-0.043,0.431c0,0.058,0.014,0.114,0.043,0.172
			c0.028,0.058,0.028,0.114,0,0.172c0,0.028-0.029,0.059-0.086,0.086c-0.058,0.029-0.086,0.087-0.086,0.173v0.474
			c0,0.028,0.014,0.063,0.043,0.106c0.028,0.043,0.043,0.079,0.043,0.107c-0.086,0.258-0.129,0.402-0.129,0.43
			c0,0.115,0.043,0.258,0.129,0.431c0,0.059-0.029,0.114-0.086,0.172c-0.058,0.059-0.086,0.102-0.086,0.129
			c0.028,0.028,0.043,0.145,0.043,0.345c0,0.086,0.014,0.144,0.043,0.172c-0.029,0.028-0.058,0.064-0.086,0.107
			c-0.029,0.043-0.058,0.079-0.086,0.106c-0.029,0.029-0.058,0.065-0.086,0.108c-0.029,0.043-0.072,0.063-0.129,0.063
			c-0.115,0.517-0.201,0.859-0.259,1.031c-0.028,0-0.071,0.021-0.129,0.064s-0.114,0.051-0.172,0.021
			c-0.172,0.287-0.287,0.431-0.344,0.431c-0.029,0.172-0.115,0.329-0.258,0.474c-0.029,0.058-0.021,0.101,0.021,0.129
			s0.064,0.058,0.064,0.086c-0.603,0.315-1.176,0.76-1.72,1.333c-0.145,0-0.33,0.086-0.56,0.258c-0.086,0-0.187,0.037-0.301,0.107
			c-0.115,0.072-0.201,0.106-0.258,0.106h-0.258c-0.059,0-0.259,0.072-0.603,0.216c-0.287,0.145-0.444,0.229-0.473,0.258
			c-0.344,0.059-0.574,0.13-0.688,0.216l-0.172-0.043c-0.058,0-0.137,0.028-0.236,0.086c-0.101,0.058-0.18,0.086-0.236,0.086h-0.946
			c-0.344,0.058-0.617,0.086-0.817,0.086H57c-0.058,0-0.114-0.028-0.172-0.086c-0.086,0-0.208,0.015-0.365,0.043
			c-0.158,0.028-0.279,0.043-0.365,0.043c-0.316,0-0.545-0.015-0.688-0.043c-0.058,0-0.144-0.015-0.258-0.043
			c-0.115-0.028-0.215-0.043-0.301-0.043c-0.029,0-0.072,0.007-0.129,0.021c-0.059,0.016-0.102,0.021-0.129,0.021
			c-0.087,0-0.201-0.043-0.345-0.129s-0.243-0.129-0.301-0.129h-0.172c-0.172,0-0.358-0.071-0.559-0.216
			c-0.087-0.027-0.188-0.078-0.302-0.15c-0.114-0.07-0.187-0.107-0.215-0.107H52.57c-0.029-0.026-0.086-0.086-0.172-0.172
			s-0.158-0.143-0.215-0.172c-0.258-0.172-0.388-0.271-0.388-0.301c-0.315-0.028-0.702-0.215-1.16-0.559
			c-0.059-0.029-0.13-0.087-0.216-0.173s-0.157-0.144-0.215-0.172c-0.2-0.201-0.315-0.33-0.344-0.388l-0.344-0.258
			c0-0.059-0.043-0.122-0.129-0.194c-0.086-0.07-0.129-0.149-0.129-0.236l-0.216-0.086c-0.114-0.198-0.265-0.493-0.451-0.881
			c-0.186-0.387-0.322-0.651-0.408-0.796c-0.144-0.286-0.273-0.646-0.388-1.075c-0.086-0.284-0.129-0.442-0.129-0.473L47.5,73.819
			c0-0.028-0.043-0.473-0.129-1.333c-0.086-0.431-0.129-0.659-0.129-0.688c-0.029-0.112-0.036-0.286-0.021-0.516
			c0.014-0.229,0.021-0.387,0.021-0.473c0-0.059-0.015-0.15-0.043-0.279c-0.029-0.129-0.043-0.223-0.043-0.28
			c0-0.057,0.014-0.114,0.043-0.172c0.028-0.058,0.043-0.101,0.043-0.129c0-0.058-0.008-0.157-0.021-0.302
			c-0.015-0.144-0.008-0.258,0.021-0.345l0.043-0.172c0.028-0.057,0.028-0.129,0-0.215l-0.043-0.172
			c0.086-0.344,0.144-0.559,0.172-0.645s0.043-0.224,0.043-0.409c0-0.187,0.015-0.358,0.043-0.517
			c0.028-0.157,0.086-0.279,0.172-0.365c0-0.314,0.114-0.646,0.345-0.988c0.057-0.516,0.2-0.846,0.43-0.989v-0.086
			c-0.029-0.058-0.043-0.101-0.043-0.129c0.057-0.028,0.114-0.086,0.172-0.172c0.058-0.086,0.101-0.13,0.129-0.13
			c0.028-0.027,0.028-0.058,0-0.086c-0.028-0.027-0.043-0.058-0.043-0.086c0.058-0.027,0.107-0.078,0.15-0.15
			c0.043-0.07,0.093-0.121,0.15-0.15c0.028-0.198,0.129-0.415,0.302-0.645c0.172-0.229,0.271-0.401,0.301-0.516
			c0.487-0.574,0.745-0.89,0.773-0.946c0.058-0.028,0.272-0.145,0.646-0.345c0.057-0.027,0.143-0.093,0.258-0.193
			c0.114-0.1,0.215-0.164,0.301-0.193c0.028,0,0.079-0.014,0.15-0.043c0.071-0.026,0.122-0.043,0.15-0.043
			c0.028,0,0.13-0.043,0.302-0.129s0.314-0.129,0.43-0.129c0.028-0.028,0.101-0.106,0.215-0.236
			c0.114-0.129,0.229-0.208,0.344-0.235c0.058-0.028,0.2-0.064,0.431-0.107c0.229-0.043,0.372-0.106,0.43-0.192
			c0.114,0.027,0.315,0.043,0.603,0.043h0.215c0.057,0,0.121-0.029,0.193-0.086c0.071-0.059,0.136-0.087,0.193-0.087
			c0.573-0.144,0.874-0.229,0.903-0.259c0.057,0.028,0.129,0.043,0.215,0.043c0.172,0,0.314-0.058,0.43-0.172
			c0.058-0.028,0.172-0.043,0.344-0.043h0.56C57.82,59.328,57.949,59.313,58.035,59.285z M58.207,61.951
			c-0.028,0.229-0.172,0.416-0.43,0.56v0.216l-0.129,0.086c0,0.114-0.029,0.208-0.086,0.278c-0.058,0.072-0.122,0.15-0.193,0.236
			c-0.072,0.086-0.123,0.158-0.151,0.215c0,0.029,0.015,0.072,0.044,0.129c0.027,0.06,0.043,0.103,0.043,0.129l-0.087,0.043
			c-0.086,0.029-0.144,0.06-0.172,0.087v0.258c0,0.345-0.157,0.73-0.473,1.162v0.172c0,0.086-0.008,0.223-0.021,0.408
			c-0.015,0.187-0.021,0.321-0.021,0.407c0,0.172,0.028,0.345,0.086,0.517c-0.086,0.028-0.129,0.102-0.129,0.216
			c0,0.028,0,0.058,0,0.086s-0.029,0.071-0.086,0.129c-0.029,0.086-0.051,0.188-0.064,0.301c-0.015,0.115-0.021,0.201-0.021,0.259
			c0.086,0.087,0.129,0.216,0.129,0.388s-0.058,0.344-0.172,0.516c0.057,0.172,0.086,0.301,0.086,0.387
			c0,0.146-0.029,0.33-0.086,0.56c0,0.029,0.028,0.072,0.086,0.13c0.057,0.058,0.071,0.114,0.043,0.172
			c-0.058,0.172-0.086,0.487-0.086,0.946c0,0.172,0.007,0.438,0.021,0.795c0.014,0.358,0.021,0.623,0.021,0.796v0.258
			c0,0.028,0.014,0.079,0.043,0.15c0.028,0.071,0.043,0.122,0.043,0.15c0.057,0.2,0.093,0.486,0.107,0.859
			c0.014,0.373,0.035,0.631,0.064,0.773l0.129,0.388c0.114,0.43,0.215,0.688,0.301,0.773c0.086,0.087,0.243,0.187,0.474,0.302
			c0.057,0,0.107,0.014,0.15,0.043c0.043,0.027,0.078,0.043,0.107,0.043c0.057,0.027,0.114,0.043,0.172,0.043
			c0.028,0,0.101-0.016,0.215-0.043c0.114-0.029,0.2-0.029,0.258,0c0.401-0.287,0.717-0.474,0.946-0.561
			c0.028-0.058,0.079-0.144,0.15-0.258c0.071-0.114,0.136-0.2,0.193-0.258c0.058-0.086,0.122-0.243,0.193-0.474
			c0.071-0.229,0.122-0.388,0.151-0.474l0.129-0.215c0.028-0.057,0.05-0.129,0.064-0.215s0.035-0.157,0.064-0.215
			c0.172-0.258,0.258-0.431,0.258-0.517c0-0.087-0.015-0.145-0.043-0.173c0.057-0.086,0.121-0.215,0.193-0.387
			c0.071-0.173,0.122-0.286,0.15-0.345l-0.043-0.173c0-0.086,0.028-0.186,0.086-0.301c0.058-0.112,0.086-0.186,0.086-0.215
			c0-0.028,0-0.093,0-0.193c0-0.1,0.015-0.179,0.043-0.235c0-0.058,0.015-0.114,0.043-0.172c0.028-0.059,0.043-0.102,0.043-0.129
			v-0.646c0.028-0.144,0.079-0.365,0.151-0.667c0.07-0.301,0.107-0.494,0.107-0.58c0.057-0.344,0.006-0.831-0.151-1.462
			c-0.157-0.63-0.236-1.089-0.236-1.376c-0.086-0.143-0.15-0.379-0.193-0.709s-0.079-0.538-0.107-0.624
			c-0.201-0.458-0.301-0.745-0.301-0.86c-0.344-0.602-0.531-1.003-0.56-1.202c-0.114-0.059-0.279-0.158-0.494-0.302
			c-0.215-0.145-0.395-0.244-0.537-0.302C58.637,61.979,58.436,61.951,58.207,61.951z"/>
		<path fill="#231F20" d="M73.386,59.759c0.344,0,0.717,0.028,1.118,0.086c0.144,0.058,0.329,0.173,0.56,0.345h0.086
			c0.144,0,0.25,0.027,0.322,0.086c0.07,0.058,0.144,0.158,0.215,0.301c0.07,0.144,0.135,0.244,0.193,0.301l0.258,0.086
			c0.028,0.115,0.187,0.23,0.473,0.345c0.029,0.114,0.086,0.258,0.173,0.431c0.086,0.172,0.144,0.301,0.172,0.387
			c0.086,0.028,0.144,0.086,0.172,0.172c0.028,0.087,0.05,0.188,0.065,0.303c0.014,0.113,0.035,0.199,0.063,0.258v0.215
			c0.027,0.029,0.05,0.094,0.063,0.193c0.015,0.101,0.035,0.165,0.064,0.192c0.057,0.086,0.1,0.188,0.129,0.301
			c0.028,0.06,0.043,0.158,0.043,0.302c0,0.114-0.015,0.229-0.043,0.345c-0.058,0.172-0.086,0.301-0.086,0.387
			c0,0.114,0.043,0.215,0.129,0.302c-0.058,0.144-0.058,0.271,0,0.388c-0.086,0-0.144,0.043-0.172,0.129v0.215
			c-0.029,0.029-0.051,0.101-0.064,0.215c-0.016,0.115-0.051,0.188-0.106,0.215c-0.028,0.06-0.028,0.103,0,0.129
			c0.027,0.029,0.043,0.072,0.043,0.13c-0.028,0.028-0.08,0.157-0.151,0.387c-0.07,0.229-0.149,0.388-0.235,0.474
			c0,0.028,0.015,0.064,0.043,0.107s0.028,0.079,0,0.106c-0.058,0.059-0.093,0.151-0.106,0.28c-0.015,0.129-0.037,0.222-0.064,0.279
			c-0.059,0.113-0.272,0.373-0.645,0.772c-0.087,0.23-0.146,0.359-0.173,0.388c0.027,0.059,0.027,0.114,0,0.172l-0.043,0.129
			c-0.345,0.201-0.517,0.431-0.517,0.688c0,0.059-0.016,0.102-0.043,0.13c0,0.058-0.043,0.13-0.129,0.216s-0.129,0.156-0.129,0.215
			c-0.345,0.314-0.588,0.602-0.731,0.858h0.56c0.401,0,0.674-0.043,0.816-0.129h0.259c0.058-0.027,0.114-0.057,0.173-0.086
			c0.057-0.027,0.106-0.043,0.149-0.043s0.101-0.007,0.172-0.021c0.071-0.015,0.136-0.035,0.192-0.064l0.99-0.172
			c0.027,0,0.129-0.028,0.301-0.086c0.172-0.057,0.301-0.086,0.387-0.086l0.259,0.129c0.144,0.058,0.243,0.115,0.302,0.172
			c0.258,0.115,0.387,0.244,0.387,0.387c0,0.06-0.008,0.129-0.021,0.216c-0.015,0.086-0.021,0.145-0.021,0.172
			c0,0.059,0.008,0.137,0.021,0.235c0.014,0.103,0.021,0.181,0.021,0.237c0,0.114-0.016,0.187-0.043,0.215
			c-0.059,0.145-0.287,0.287-0.688,0.432c-0.06,0.027-0.108,0.063-0.151,0.106s-0.078,0.078-0.106,0.107
			c-0.086,0.027-0.259,0.1-0.517,0.215s-0.459,0.187-0.603,0.215c-0.058,0.029-0.149,0.051-0.278,0.064
			c-0.129,0.015-0.244,0.035-0.345,0.063c-0.101,0.029-0.18,0.072-0.235,0.129L76.14,74.08c-0.029,0-0.216,0.086-0.561,0.258h-0.043
			l-0.086-0.043c-0.145,0-0.301,0.06-0.473,0.172h-0.215c-0.201,0-0.503,0.029-0.904,0.086c-0.114,0-0.172-0.026-0.172-0.086
			c-0.086,0.06-0.258,0.086-0.516,0.086H72.74c-0.028,0.029-0.021,0.052,0.021,0.064c0.043,0.016,0.036,0.037-0.021,0.064
			c-0.058-0.058-0.101-0.05-0.13,0.021c-0.027,0.072-0.071,0.107-0.129,0.107c0.058,0.114,0.086,0.2,0.086,0.258
			c0,0.029-0.008,0.087-0.021,0.173c-0.015,0.086-0.021,0.157-0.021,0.215c0,0.086,0.014,0.157,0.043,0.215l-0.129,0.216
			c0,0.058,0.027,0.121,0.086,0.193c0.058,0.071,0.086,0.15,0.086,0.236c0,0.201,0.015,0.33,0.043,0.387
			c0,0.086-0.008,0.223-0.021,0.408c-0.015,0.188-0.021,0.338-0.021,0.451c0,0.229,0.016,0.388,0.043,0.474
			c0,0.028-0.027,0.101-0.086,0.215c0.029,0.028,0.043,0.102,0.043,0.216c0,0.172-0.057,0.345-0.172,0.517
			c0,0.027,0.029,0.063,0.086,0.106c0.059,0.043,0.102,0.079,0.129,0.107v0.945c0,0.028-0.006,0.071-0.021,0.129
			c-0.015,0.059-0.021,0.102-0.021,0.129c0,0.173,0.101,0.388,0.301,0.646c-0.027,0.115,0,0.259,0.086,0.432
			c-0.027,0.057-0.043,0.135-0.043,0.235s0,0.164,0,0.193c0.113,0.057,0.172,0.172,0.172,0.344c0,0.086-0.027,0.157-0.086,0.215
			c0,0.058,0.027,0.107,0.086,0.15s0.071,0.094,0.044,0.15c0.086,0.086,0.144,0.129,0.173,0.129
			c-0.029,0.028-0.043,0.086-0.043,0.172c0,0.028,0.014,0.079,0.043,0.15c0.027,0.071,0.043,0.137,0.043,0.193v0.043l0.215,0.129
			c0.057,0.286,0.086,0.475,0.086,0.561c0,0.026-0.016,0.1-0.043,0.215c-0.029,0.112-0.043,0.198-0.043,0.258
			c0,0.258-0.029,0.43-0.086,0.516c-0.029,0.058-0.016,0.094,0.043,0.107c0.057,0.014,0.086,0.036,0.086,0.063
			c-0.029,0.059-0.359,0.173-0.989,0.345c-0.028-0.028-0.087-0.058-0.173-0.086c-0.057-0.028-0.101-0.043-0.129-0.043h-0.043
			c-0.028,0.028-0.058,0.043-0.086,0.043c-0.086,0-0.192-0.028-0.322-0.086c-0.129-0.058-0.223-0.087-0.279-0.087H71.54
			c-0.172,0-0.357-0.101-0.559-0.301h-0.215c-0.029-0.028-0.072-0.071-0.129-0.129l-0.043-0.086
			c-0.06-0.029-0.138-0.058-0.238-0.086c-0.101-0.029-0.178-0.058-0.235-0.086c-0.114-0.287-0.259-0.445-0.431-0.473
			c-0.258-0.345-0.502-0.604-0.73-0.774c0-0.172-0.102-0.315-0.301-0.431v-0.086c0-0.058-0.016-0.107-0.043-0.15
			c-0.028-0.043-0.071-0.093-0.129-0.15c-0.059-0.057-0.102-0.114-0.129-0.172c0-0.144-0.016-0.258-0.043-0.344
			c0-0.029-0.029-0.086-0.086-0.172l-0.086-0.129c-0.059-0.258-0.102-0.401-0.129-0.43v-0.13c-0.086-0.144-0.158-0.322-0.216-0.537
			c-0.059-0.216-0.114-0.458-0.173-0.731c-0.059-0.271-0.102-0.479-0.129-0.623c0-0.028,0.021-0.05,0.064-0.064
			c0.043-0.014,0.049-0.05,0.021-0.106c0.028-0.028,0-0.043-0.086-0.043c-0.058,0-0.086-0.028-0.086-0.086
			c0-0.115,0.015-0.201,0.043-0.258c-0.086-0.115-0.157-0.518-0.216-1.205c-0.027-0.113-0.027-0.279,0-0.494
			c0.029-0.215,0.029-0.365,0-0.451c0-0.028-0.014-0.078-0.043-0.15c-0.028-0.07-0.043-0.121-0.043-0.149
			c0-0.059,0.008-0.107,0.021-0.15s0.021-0.079,0.021-0.106l-0.043-0.086c-0.029-0.059-0.043-0.102-0.043-0.13
			c0-0.114,0.007-0.272,0.021-0.474c0.015-0.2,0.021-0.345,0.021-0.431v-1.117c0-0.258,0.029-0.43,0.086-0.516
			c0.029-0.173,0.043-0.488,0.043-0.947c0-0.058,0.029-0.258,0.087-0.603c0-0.399,0.028-0.7,0.086-0.901
			c0-0.029,0.015-0.079,0.043-0.15c0.028-0.072,0.043-0.137,0.043-0.192v-0.174l0.086-0.172c0.028-0.086,0.058-0.337,0.086-0.753
			c0.028-0.414,0.101-0.709,0.216-0.881c-0.029-0.344,0.035-0.795,0.193-1.354c0.156-0.561,0.236-0.969,0.236-1.227
			c0.314-0.688,0.473-1.161,0.473-1.419c0.027-0.028,0.07-0.101,0.129-0.215c0-0.145,0.05-0.323,0.15-0.538
			c0.1-0.215,0.15-0.379,0.15-0.494c0.086-0.2,0.25-0.502,0.494-0.902c0.243-0.401,0.423-0.717,0.537-0.946
			c0-0.058,0.043-0.101,0.129-0.129l0.087-0.043c0.027-0.086,0.063-0.172,0.106-0.259c0.043-0.086,0.064-0.155,0.064-0.215
			c0.028,0,0.057-0.014,0.086-0.043c0.028-0.027,0.057-0.027,0.086,0v-0.129c0.344-0.143,0.573-0.258,0.688-0.344
			c0.058-0.028,0.144-0.057,0.258-0.086c0.058-0.028,0.122-0.079,0.194-0.15c0.07-0.071,0.136-0.122,0.193-0.149
			c0.027-0.029,0.106-0.043,0.235-0.043s0.222,0,0.278,0c0.029,0,0.072-0.016,0.13-0.043l0.086-0.043
			C72.999,59.772,73.155,59.759,73.386,59.759z M74.289,63.155l-0.517,0.129c-0.314,0.373-0.473,1.146-0.473,2.322
			c-0.086,0.115-0.129,0.314-0.129,0.602c-0.029,0.115-0.087,0.258-0.173,0.431c-0.086,0.172-0.149,0.344-0.192,0.517
			c-0.043,0.172-0.051,0.344-0.021,0.516c-0.059,0.029-0.102,0.095-0.129,0.194c-0.028,0.1-0.059,0.164-0.086,0.193
			c-0.086,0.344-0.129,0.572-0.129,0.688c0,0.23,0.086,0.359,0.258,0.387c0.172-0.057,0.285-0.112,0.344-0.172
			c0-0.026,0.016-0.093,0.043-0.192c0.027-0.101,0.059-0.164,0.087-0.193l0.129-0.129l0.173-0.43c0-0.029,0.021-0.064,0.063-0.107
			s0.078-0.094,0.106-0.15c0-0.028,0-0.087,0-0.173s0.015-0.156,0.043-0.215c0-0.028,0.028-0.086,0.086-0.172
			s0.101-0.157,0.129-0.216l0.388-0.816c0.086-0.286,0.129-0.442,0.129-0.473l0.216-0.215c0-0.145,0.014-0.258,0.043-0.345
			c0.086-0.229,0.129-0.517,0.129-0.86c0-0.058-0.008-0.15-0.021-0.279c-0.015-0.129-0.021-0.207-0.021-0.236
			c-0.029-0.057-0.059-0.143-0.086-0.258c-0.029-0.113-0.072-0.2-0.13-0.258C74.433,63.185,74.347,63.155,74.289,63.155z"/>
		<path fill="#231F20" d="M89.167,68.229c0.086,0,0.271,0.027,0.561,0.086c0.057,0.028,0.135,0.063,0.235,0.106
			s0.164,0.064,0.192,0.064h0.13c0.172,0,0.387,0.215,0.646,0.645c0.057,0.115,0.144,0.172,0.258,0.172l-0.043,0.13
			c0,0.059,0.015,0.102,0.043,0.129c0.028,0.431,0.078,0.811,0.15,1.141c0.071,0.33,0.129,0.566,0.172,0.709
			c0.043,0.145,0.064,0.244,0.064,0.301c0.145,0,0.242-0.129,0.301-0.387c0.086-0.028,0.157-0.078,0.215-0.15
			c0.059-0.07,0.102-0.121,0.131-0.149c0.026-0.028,0.077-0.059,0.149-0.086c0.071-0.028,0.121-0.059,0.149-0.086
			c0.058-0.059,0.158-0.122,0.301-0.193c0.145-0.072,0.244-0.137,0.302-0.193c0.058,0,0.215-0.028,0.474-0.087
			c0.258-0.057,0.459-0.086,0.603-0.086c0.258,0,0.458,0.059,0.602,0.173h0.087c0.057,0,0.121,0.021,0.193,0.064
			c0.07,0.043,0.136,0.063,0.193,0.063c0.027,0,0.136,0.015,0.322,0.044c0.187,0.027,0.321,0.057,0.407,0.086
			c0.086,0.086,0.144,0.129,0.172,0.129c0.028,0.027,0.071,0.058,0.13,0.086c0.057,0.027,0.1,0.058,0.129,0.086
			c0.114,0.086,0.271,0.229,0.474,0.43c-0.029,0.086,0,0.201,0.086,0.344c0.144,0,0.258,0.06,0.344,0.173
			c0.172-0.087,0.401-0.229,0.688-0.431c0.285-0.2,0.516-0.329,0.688-0.387c0.346-0.344,0.86-0.659,1.549-0.946
			c0.057,0,0.157-0.007,0.301-0.021c0.144-0.016,0.258-0.036,0.345-0.064c0.889,0.059,1.462,0.302,1.72,0.731
			c0.2,0.027,0.395,0.149,0.581,0.364c0.187,0.216,0.322,0.338,0.408,0.365c0.058,0.23,0.129,0.387,0.215,0.474v0.388
			c0,0.344,0.043,0.588,0.129,0.73c0.028,0.058,0.071,0.114,0.129,0.173c-0.028,0.057-0.043,0.156-0.043,0.301
			c0,0.144,0.028,0.33,0.086,0.559c0,0.06,0.007,0.115,0.021,0.172c0.016,0.06,0.021,0.103,0.021,0.129v0.646l0.043,0.43
			c0,0.115-0.015,0.188-0.043,0.216c0,0.028-0.043,0.13-0.129,0.302c0.059,0.143,0.086,0.229,0.086,0.258
			c-0.086,0.314-0.129,0.631-0.129,0.945c0,0.2,0.016,0.358,0.043,0.473c0,0.087-0.043,0.173-0.129,0.259
			c0.059,0.114,0.086,0.387,0.086,0.817c0,0.201,0.028,0.344,0.086,0.43c0.346,0,0.646-0.043,0.903-0.129s0.559-0.244,0.903-0.473
			c0.344-0.229,0.559-0.373,0.645-0.432c0.027-0.027,0.064-0.07,0.107-0.129c0.043-0.058,0.078-0.101,0.106-0.129
			c0.172-0.028,0.345-0.157,0.517-0.388c0.172-0.229,0.345-0.357,0.517-0.388c0.058-0.229,0.229-0.371,0.517-0.43
			c0.143-0.399,0.545-0.788,1.203-1.161c0.774-0.572,1.318-0.902,1.635-0.988c0.459-0.458,0.889-0.688,1.291-0.688
			c0.143,0,0.271,0.043,0.387,0.129c0.199,0.145,0.301,0.373,0.301,0.688c0,0.145-0.043,0.301-0.129,0.474
			c-0.029,0.058-0.072,0.129-0.129,0.215c-0.059,0.086-0.102,0.157-0.129,0.215v0.173c-0.029,0.058-0.086,0.13-0.172,0.216
			s-0.146,0.156-0.172,0.215c-0.06,0.086-0.115,0.215-0.174,0.387c-0.058,0.229-0.188,0.445-0.387,0.646
			c-0.028,0.028-0.107,0.079-0.236,0.149c-0.129,0.072-0.193,0.15-0.193,0.236c-0.028,0-0.114,0.028-0.258,0.086
			c-0.029,0-0.059,0.016-0.086,0.044l-0.086,0.043c-0.029,0.058-0.08,0.15-0.15,0.279c-0.071,0.129-0.137,0.222-0.193,0.278
			l-0.258,0.26c-0.172,0.172-0.271,0.314-0.301,0.43c-0.086,0.029-0.267,0.158-0.539,0.387c-0.271,0.23-0.522,0.373-0.752,0.43
			c-0.057,0.06-0.149,0.15-0.278,0.279s-0.252,0.244-0.366,0.345c-0.113,0.102-0.242,0.165-0.387,0.193
			c-0.344,0.286-0.588,0.431-0.73,0.431c0,0.028-0.029,0.064-0.086,0.107c-0.059,0.043-0.102,0.093-0.13,0.15
			c-0.028,0-0.101,0.027-0.215,0.086c-0.631,0.43-1.247,0.787-1.849,1.073h-0.129c-0.145,0-0.258,0.043-0.344,0.13
			c-0.23,0-0.389,0.043-0.475,0.129c-0.459,0-0.789-0.028-0.989-0.086l-0.172-0.173h-0.215c-0.058-0.058-0.101-0.114-0.129-0.172
			c-0.115,0-0.187-0.015-0.216-0.043c-0.086-0.028-0.129-0.086-0.129-0.172c-0.2-0.172-0.315-0.301-0.344-0.387
			c-0.029,0-0.115-0.029-0.259-0.086c-0.114-0.23-0.243-0.373-0.387-0.431c-0.029-0.058-0.101-0.18-0.216-0.365
			c-0.114-0.188-0.172-0.337-0.172-0.451c0-0.028,0.015-0.071,0.043-0.13v-0.043c-0.058-0.058-0.086-0.129-0.086-0.215l-0.043-0.173
			c-0.028-0.057-0.078-0.149-0.149-0.278c-0.072-0.129-0.123-0.236-0.151-0.322v-0.129c0-0.172-0.05-0.416-0.15-0.73
			c-0.101-0.315-0.164-0.603-0.192-0.86c0-0.027,0.007-0.064,0.021-0.107c0.015-0.043,0.021-0.078,0.021-0.106
			c0-0.086-0.007-0.199-0.021-0.345c-0.015-0.143-0.021-0.258-0.021-0.344s0.015-0.2,0.043-0.344
			c0.028-0.145,0.043-0.244,0.043-0.301c0-0.086-0.028-0.188-0.086-0.303l0.172-0.172c0.028-0.058,0.007-0.093-0.063-0.106
			c-0.071-0.015-0.107-0.036-0.107-0.064v-0.172c0-0.114-0.007-0.259-0.021-0.431c-0.014-0.172-0.021-0.302-0.021-0.388
			c0-0.172,0.015-0.285,0.043-0.344c0.028-0.057,0.021-0.106-0.021-0.149c-0.043-0.044-0.064-0.078-0.064-0.107
			c0-0.028,0.016-0.107,0.043-0.236s0.043-0.223,0.043-0.278c0-0.086-0.016-0.145-0.043-0.173c-0.201,0-0.4,0.071-0.602,0.216
			c-0.029,0-0.043,0.014-0.043,0.043l-0.047,0.082c-0.029,0-0.086,0.007-0.172,0.021c-0.088,0.014-0.146,0.035-0.174,0.064
			c-0.086,0.058-0.156,0.157-0.215,0.301c-0.059,0.029-0.157,0.144-0.301,0.344c-0.086,0-0.145-0.014-0.172-0.043v0.086
			l-0.258,0.387c0,0.115-0.059,0.316-0.172,0.604c0.086,0.2,0.086,0.344,0,0.43c0.086,0.086,0.156,0.229,0.215,0.432v0.344
			c0,0.229,0.027,0.401,0.086,0.516c0.172,0.631,0.258,1.004,0.258,1.118c0,0.028-0.016,0.058-0.043,0.086
			c-0.029,0.028-0.029,0.071,0,0.129c-0.029,0.059-0.016,0.086,0.043,0.086c0.057,0,0.086,0.016,0.086,0.043
			c0,0.173,0.007,0.438,0.021,0.796c0.014,0.358,0.021,0.609,0.021,0.752c-0.028,0.029-0.064,0.08-0.107,0.15
			c-0.043,0.072-0.094,0.107-0.149,0.107h-0.086c-0.029,0.401-0.33,0.603-0.903,0.603h-0.172c-0.144,0-0.487-0.172-1.032-0.517
			c-0.059-0.086-0.193-0.229-0.408-0.431c-0.215-0.198-0.352-0.399-0.408-0.602c-0.115-0.086-0.236-0.251-0.365-0.494
			c-0.129-0.244-0.209-0.38-0.236-0.409v-0.086c0-0.114-0.043-0.258-0.129-0.43c0-0.028,0.007-0.071,0.021-0.13
			c0.014-0.058,0.021-0.101,0.021-0.129c-0.172-0.229-0.259-0.529-0.259-0.902c0-0.172,0.015-0.301,0.043-0.387
			c-0.086-0.172-0.129-0.358-0.129-0.561v-0.945c0-0.027-0.008-0.064-0.021-0.107c-0.015-0.043-0.021-0.092-0.021-0.15v-0.129
			c0-0.057-0.021-0.129-0.064-0.215s-0.064-0.143-0.064-0.172c-0.028,0-0.043-0.071-0.043-0.215l0.043-0.172
			c0-0.115-0.043-0.251-0.129-0.408c-0.086-0.158-0.129-0.266-0.129-0.323h-0.13c-0.372,0-0.717,0.129-1.03,0.389
			c-0.086,0.057-0.172,0.129-0.258,0.215c-0.287,0.229-0.459,0.416-0.518,0.559c0,0.029-0.008,0.079-0.021,0.15
			c-0.015,0.071-0.035,0.123-0.063,0.149c-0.115,0.287-0.173,0.474-0.173,0.56c0,0.059,0.008,0.166,0.021,0.322
			c0.014,0.157,0.021,0.279,0.021,0.365c-0.029,0.115-0.043,0.33-0.043,0.646c0,0.258,0.027,0.459,0.086,0.602
			c-0.172,0.287-0.258,0.66-0.258,1.118c0,0.114,0.006,0.286,0.021,0.517c0.015,0.229,0.021,0.4,0.021,0.517
			c-0.058,0.144-0.121,0.373-0.192,0.688c-0.072,0.316-0.123,0.531-0.149,0.646c-0.346,0.201-0.545,0.358-0.604,0.474
			c-0.43,0.086-0.688,0.129-0.773,0.129c-0.173,0-0.287-0.015-0.345-0.043c-0.028,0-0.071-0.043-0.129-0.129
			c-0.028,0-0.058,0.007-0.086,0.021c-0.028,0.014-0.071,0.021-0.129,0.021c0-0.058-0.043-0.122-0.13-0.192
			c-0.086-0.071-0.144-0.15-0.172-0.237c-0.717-0.4-1.074-1.36-1.074-2.881v-0.773c-0.029-0.172-0.043-0.4-0.043-0.688
			c0-0.059-0.008-0.145-0.021-0.259s-0.021-0.188-0.021-0.216c-0.027-0.144-0.034-0.364-0.021-0.667
			c0.015-0.301,0.021-0.508,0.021-0.623c-0.086-0.172-0.129-0.271-0.129-0.301v-0.086c0-0.086,0.029-0.236,0.086-0.451
			c0.059-0.215,0.087-0.365,0.087-0.452c0-0.113-0.015-0.187-0.044-0.215c0-0.114,0.029-0.187,0.087-0.215
			c-0.058-0.058-0.087-0.173-0.087-0.345c0-0.027,0.009-0.101,0.021-0.215c0.016-0.113,0.021-0.199,0.021-0.259v-0.086l0.043-0.043
			c0.027-0.026,0.058-0.057,0.086-0.086c0-0.027-0.021-0.05-0.064-0.063c-0.043-0.015-0.051-0.05-0.021-0.107v-0.815
			c0-0.029,0.043-0.115,0.129-0.26V70.21c0-0.229,0.028-0.357,0.086-0.387c-0.058-0.345-0.086-0.544-0.086-0.603
			c0-0.4,0.157-0.603,0.473-0.603c0.173-0.028,0.315-0.129,0.431-0.301C88.808,68.258,89.022,68.229,89.167,68.229z"/>
		<path fill="#231F20" d="M113.16,71.196c0,0.058,0.028,0.086,0.086,0.086h0.172c0.173,0,0.345,0.058,0.517,0.172
			c0.028,0.086,0.101,0.188,0.215,0.301c0.115,0.115,0.188,0.215,0.216,0.302v0.086c0,0.028,0.015,0.086,0.043,0.172
			s0.043,0.173,0.043,0.259l0.086,0.086c-0.028,0.086-0.043,0.179-0.043,0.279c0,0.1,0,0.165,0,0.193
			c0.028,0.028,0.05,0.114,0.063,0.259c0.016,0.143,0.036,0.229,0.064,0.258c-0.028,0.058-0.043,0.201-0.043,0.43
			c0,0.287,0.015,0.488,0.043,0.603c0,0.059,0.036,0.172,0.107,0.344c0.07,0.173,0.107,0.287,0.107,0.345s0,0.122,0,0.193
			c0,0.07,0.014,0.122,0.043,0.149l0.043,0.087c0,0.028,0,0.058,0,0.086c0,0.259,0.114,0.388,0.344,0.388
			c0.114,0,0.215-0.086,0.301-0.258v-0.13c0-0.372,0.029-0.588,0.086-0.646c0-0.028-0.014-0.05-0.043-0.064
			c-0.027-0.014-0.027-0.035,0-0.063c0-0.028,0.029-0.071,0.086-0.13c-0.027-0.058-0.043-0.129-0.043-0.215
			c0-0.144,0.059-0.302,0.173-0.474c0-0.026-0.021-0.043-0.063-0.043c-0.044,0-0.064-0.014-0.064-0.043
			c0.027-0.086,0.043-0.271,0.043-0.559v-0.172c0.027,0,0.043-0.009,0.043-0.021c0-0.015,0.015-0.021,0.043-0.021
			c-0.028-0.059-0.028-0.102,0-0.129l0.043-0.13c0-0.028-0.008-0.043-0.021-0.043s-0.021-0.015-0.021-0.043s0.015-0.079,0.043-0.15
			s0.043-0.15,0.043-0.236c0-0.058,0.021-0.129,0.063-0.215c0.043-0.087,0.064-0.145,0.064-0.173c0-0.027-0.016-0.058-0.043-0.086
			c-0.027-0.027-0.027-0.058,0-0.086c0.027-0.027,0.086-0.043,0.173-0.043l0.043-0.086c0.027-0.027,0.058-0.043,0.086-0.043
			c0-0.229,0.216-0.4,0.646-0.517l0.215-0.129c0.027,0,0.078-0.007,0.15-0.021c0.07-0.015,0.121-0.035,0.149-0.064
			c0.401,0.058,0.631,0.129,0.688,0.215c0.199,0,0.4,0.072,0.602,0.215c0.086,0.029,0.188,0.146,0.302,0.345
			c0,0.145,0.044,0.215,0.13,0.215c0.057,0,0.086,0.016,0.086,0.043v0.302c0.057,0.114,0.086,0.229,0.086,0.344v0.688
			c0,0.027-0.021,0.058-0.064,0.086c-0.043,0.029-0.064,0.058-0.064,0.086c0.028,0.115,0.028,0.287,0,0.516
			c-0.029,0.23-0.015,0.388,0.043,0.474c-0.029,0.059-0.051,0.106-0.063,0.149c-0.015,0.043-0.021,0.08-0.021,0.107l0.129,0.13
			c-0.029,0.058-0.043,0.229-0.043,0.516l-0.086,0.086c0.086,0.174,0.143,0.389,0.172,0.646c0.057,0,0.129-0.021,0.215-0.064
			s0.172-0.063,0.258-0.063l0.344-0.172c0.059-0.059,0.114-0.086,0.174-0.086h0.043c0.027-0.029,0.063-0.059,0.106-0.086
			c0.043-0.029,0.077-0.059,0.106-0.086h0.172l0.215-0.131c0.029,0,0.087-0.007,0.173-0.021s0.144-0.036,0.172-0.064h0.129
			c0.058-0.027,0.157-0.058,0.302-0.086c0.143-0.027,0.243-0.07,0.301-0.129h0.129c0.229-0.114,0.358-0.172,0.388-0.172l0.086-0.043
			c0.086,0,0.144,0,0.172,0h0.173h0.043c0.028-0.028,0.057-0.043,0.086-0.043h0.129c0.028,0,0.058-0.015,0.086-0.043h0.086h0.215
			c0.059,0,0.145-0.015,0.259-0.044c0.114-0.027,0.2-0.043,0.258-0.043c0.114,0,0.2,0.029,0.259,0.087
			c0.057,0,0.114-0.007,0.172-0.022c0.058-0.014,0.101-0.021,0.129-0.021s0.078,0.021,0.15,0.064
			c0.071,0.044,0.137,0.079,0.193,0.107c0,0.058,0.058,0.145,0.172,0.258c-0.172,0.346-0.416,0.573-0.73,0.688v0.172
			c-0.258,0.144-0.502,0.258-0.73,0.344l-0.129,0.129c-0.086,0.029-0.208,0.072-0.365,0.129c-0.158,0.06-0.266,0.103-0.322,0.129
			c-0.059,0.029-0.137,0.064-0.236,0.107c-0.101,0.043-0.166,0.08-0.193,0.107c-0.059,0.028-0.114,0.063-0.172,0.106
			c-0.059,0.043-0.115,0.08-0.172,0.107c-0.029,0-0.059,0.016-0.086,0.043c-0.059,0.059-0.102,0.086-0.129,0.086
			c-0.029,0.029-0.094,0.063-0.193,0.106c-0.102,0.044-0.18,0.095-0.236,0.151l-0.044-0.043c-0.028,0-0.058,0-0.086,0l-0.129,0.172
			c-0.086,0.028-0.229,0.093-0.431,0.193c-0.2,0.101-0.357,0.149-0.473,0.149l-0.086,0.13c-0.173,0-0.302,0.058-0.388,0.173
			c-0.114,0.027-0.258,0.1-0.431,0.215l-0.043,0.086v0.086c0,0.115-0.035,0.236-0.106,0.365s-0.106,0.235-0.106,0.321
			c-0.059,0.172-0.072,0.287-0.043,0.345c-0.086,0.086-0.129,0.2-0.129,0.344c0,0.087,0.014,0.158,0.043,0.216l-0.043,0.086
			c-0.029,0.058-0.06,0.086-0.086,0.086c0,0.086,0.026,0.157,0.086,0.215c0,0.059-0.016,0.229-0.043,0.518
			c-0.029,0.285-0.086,0.485-0.174,0.602v0.344c0,0.028-0.021,0.058-0.064,0.086s-0.063,0.059-0.063,0.087s0,0.058,0,0.086
			l0.043,0.043c-0.028,0.058-0.043,0.129-0.043,0.215s0,0.144,0,0.173c-0.028,0.058-0.071,0.136-0.129,0.236
			c-0.058,0.1-0.086,0.165-0.086,0.192c0,0.086-0.028,0.157-0.086,0.216c0.086,0.229,0.043,0.357-0.129,0.388v0.129l-0.043,0.043
			c-0.029,0.027-0.058,0.043-0.087,0.043c0.058,0.113,0.043,0.172-0.043,0.172c0,0.086-0.043,0.186-0.129,0.301
			c-0.086,0.114-0.129,0.215-0.129,0.301c-0.086,0.059-0.192,0.158-0.321,0.302c-0.13,0.144-0.237,0.244-0.323,0.301
			c0,0.029-0.016,0.072-0.043,0.13c-0.059,0-0.114,0.036-0.172,0.107c-0.059,0.07-0.115,0.106-0.172,0.106
			c0,0.028-0.021,0.059-0.064,0.086c-0.043,0.028-0.078,0.071-0.107,0.129h-0.129c-0.086,0.086-0.187,0.157-0.301,0.217
			c-0.029,0-0.08,0.026-0.15,0.086c-0.071,0.057-0.137,0.086-0.193,0.086c-0.027,0.026-0.086,0.043-0.172,0.043
			s-0.145,0.014-0.172,0.043c-0.059,0.026-0.129,0.043-0.215,0.043c-0.115,0.057-0.201,0.069-0.258,0.043
			c-0.029,0-0.059,0.021-0.086,0.063c-0.029,0.043-0.072,0.064-0.129,0.064h-0.389c-0.027,0-0.07,0.014-0.129,0.043l-0.043,0.043
			c-0.145,0-0.344-0.021-0.602-0.064c-0.26-0.043-0.459-0.063-0.604-0.063c-0.059-0.06-0.086-0.103-0.086-0.129
			c-0.145,0-0.244-0.017-0.301-0.043c-0.029,0-0.059-0.017-0.086-0.043l-0.086-0.043c-0.258-0.086-0.402-0.146-0.432-0.172h-0.172
			c0-0.029-0.021-0.06-0.064-0.088c-0.043-0.027-0.078-0.07-0.106-0.129c-0.172,0-0.272-0.086-0.302-0.258
			c-0.086-0.028-0.2-0.129-0.344-0.302c-0.144-0.172-0.258-0.271-0.345-0.301v-0.172l-0.516-0.517l0.043-0.043
			c0-0.029-0.021-0.086-0.063-0.172c-0.044-0.086-0.064-0.158-0.064-0.215c0-0.06-0.008-0.129-0.021-0.215
			c-0.015-0.086-0.021-0.146-0.021-0.172c0-0.029,0.015-0.103,0.044-0.217c0.028-0.113,0.014-0.172-0.044-0.172l0.044-0.086
			c0.028-0.058,0.058-0.086,0.086-0.086c0.028-0.028,0.063-0.093,0.106-0.193c0.043-0.1,0.094-0.18,0.15-0.236
			c0-0.086,0.086-0.215,0.258-0.387c0.028-0.087,0.088-0.188,0.174-0.302s0.143-0.201,0.172-0.258h0.043l0.086-0.043
			c0-0.059,0.035-0.123,0.106-0.193c0.071-0.071,0.106-0.123,0.106-0.149c0.029,0,0.051-0.017,0.064-0.043
			c0.014-0.029,0.036-0.029,0.064,0c0-0.06,0.027-0.129,0.086-0.215c0.058-0.086,0.086-0.145,0.086-0.172
			c0.027-0.029,0.059-0.044,0.086-0.044l0.043-0.043c0.059-0.087,0.165-0.216,0.322-0.388c0.158-0.172,0.266-0.286,0.322-0.345
			l0.301-0.129c0.087-0.144,0.259-0.308,0.517-0.494c0.259-0.187,0.431-0.322,0.517-0.408c0.028,0,0.071-0.014,0.129-0.043
			c0.028-0.057,0.072-0.071,0.129-0.043l0.388-0.258c-0.028-0.028-0.086-0.05-0.172-0.064c-0.086-0.014-0.144-0.051-0.173-0.106
			c-0.114,0.027-0.215,0.027-0.301,0c-0.058-0.029-0.187-0.079-0.388-0.15c-0.2-0.072-0.329-0.137-0.387-0.192
			c-0.114-0.029-0.259-0.102-0.431-0.217h-0.129l-0.172-0.129c-0.145-0.086-0.272-0.144-0.388-0.172
			c-0.028-0.058-0.086-0.114-0.172-0.172s-0.144-0.101-0.172-0.13c-0.028-0.027-0.101-0.129-0.216-0.301l-0.172-0.172
			c-0.028-0.027-0.051-0.087-0.063-0.173c-0.015-0.086-0.036-0.143-0.063-0.172l0.043-0.043v-0.043c0-0.027-0.043-0.043-0.129-0.043
			l0.043-0.043c0-0.028,0-0.057,0-0.086c-0.059,0-0.102-0.014-0.129-0.043c0-0.028,0.014-0.057,0.043-0.086v-0.043
			c-0.029-0.028-0.052-0.071-0.064-0.129c-0.016-0.059-0.037-0.102-0.064-0.129c0-0.059-0.008-0.165-0.021-0.322
			c-0.016-0.158-0.021-0.28-0.021-0.366V75.37c0-0.086,0.015-0.144,0.044-0.172c0-0.028-0.009-0.064-0.021-0.108
			c-0.016-0.043-0.021-0.077-0.021-0.106c0-0.113,0.021-0.293,0.064-0.537c0.043-0.243,0.064-0.422,0.064-0.537
			c0.027-0.057,0.049-0.157,0.063-0.301c0.014-0.145,0.021-0.229,0.021-0.258c0.028-0.059,0.064-0.138,0.107-0.236
			c0.043-0.101,0.064-0.166,0.064-0.194c0.057-0.344,0.186-0.702,0.387-1.074c0.172-0.087,0.301-0.216,0.387-0.388
			c0.086,0,0.188-0.057,0.303-0.172c0.026,0,0.077-0.007,0.149-0.021c0.071-0.015,0.136-0.008,0.192,0.021
			c0-0.028,0.129-0.043,0.388-0.043C113.074,71.239,113.131,71.226,113.16,71.196z M114.793,80.957l-0.258,0.129
			c0,0.145-0.043,0.244-0.13,0.303c0-0.029-0.027-0.044-0.086-0.044c-0.086,0.087-0.144,0.13-0.172,0.13
			c-0.028,0.143-0.129,0.278-0.301,0.407s-0.287,0.236-0.344,0.322c-0.087,0.028-0.18,0.093-0.279,0.193
			c-0.102,0.1-0.18,0.164-0.236,0.192l-0.215,0.259h-0.043c-0.029,0.028-0.059,0.043-0.086,0.043c0,0.086-0.043,0.144-0.129,0.172
			c-0.029,0.086-0.102,0.188-0.216,0.302c0,0.086-0.036,0.187-0.106,0.301c-0.072,0.114-0.108,0.188-0.108,0.216
			c0.028,0.027,0.044,0.086,0.044,0.173c-0.059,0.057-0.087,0.198-0.087,0.43v0.129c0.028,0,0.071,0.014,0.13,0.043
			c0.086,0,0.193-0.021,0.322-0.064s0.222-0.063,0.279-0.063c0.172-0.06,0.344-0.158,0.516-0.301
			c0.027-0.115,0.156-0.244,0.388-0.388c0.229-0.145,0.345-0.315,0.345-0.517c0.057-0.058,0.113-0.15,0.172-0.28
			c0.058-0.129,0.113-0.222,0.172-0.278c0.199-0.459,0.301-0.702,0.301-0.73v-0.086c0-0.086,0.021-0.244,0.064-0.473
			C114.772,81.244,114.793,81.072,114.793,80.957z"/>
	</g>
</g>
</svg>
