<?xml version="1.0" encoding="utf-8"?>
<!-- Generator: Adobe Illustrator 16.0.0, SVG Export Plug-In . SVG Version: 6.00 Build 0)  -->
<!DOCTYPE svg PUBLIC "-//W3C//DTD SVG 1.1//EN" "http://www.w3.org/Graphics/SVG/1.1/DTD/svg11.dtd">
<svg version="1.1" xmlns="http://www.w3.org/2000/svg" xmlns:xlink="http://www.w3.org/1999/xlink" x="0px" y="0px"
	 width="152.995px" height="167.904px" viewBox="0 0 152.995 167.904" enable-background="new 0 0 152.995 167.904"
	 xml:space="preserve">
<g id="Layer_2">
</g>
<g id="Layer_1">
	<g>
		<path fill="#FFFFFF" d="M0,41.025c0.785-13.401,18.517-7.297,23.163-0.769c-0.295-8.824,6.611-5.378,11.708-5.335
			c0.48-3.385-2.212-9.921-0.564-12.704c1.789-3.028,9.177-3.729,11.765-1.643c4.372-2.811,7.31-8.317,12.04-10.337
			c5.197-2.22,11.096-1.581,16.081-4.505c1.938-1.135,2.568-3.444,5.928-4.607c1.745-0.604,7.007-1.565,8.799-0.902
			c3.478,1.291,7.192,7.968,9.541,10.92c4.932-6.271,16.227-4.026,22.629-1.616c8.851,3.329,10.961,5.849,10.675,15.401
			c-4.806-0.573-13.88,7.806-6.521,11.102c4.523,2.027,11.744-9.009,13.962,3.463c4.796-0.716,8.137-3.118,11.46,2.101
			c1.479,2.324,2.246,10.646,2.326,13.131c0.158,4.953-3.8,22.608-11.114,14.58c-2.006,1.291-3.727,7.728-4.78,10.419
			c-1.635,4.168-1.791,4.84-0.892,10.669c1.141,7.399-0.161,15.513,1.299,22.74c1.244,6.158,1.462,3.075,6.169,5.832
			c3.662,2.145,6.435,3.954,7.177,9.444c1.01,7.466-2.74,14.418-4.28,20.603c-2.549,10.229-2.853,16.356-14.895,13.53
			c-7.033-1.655-4.714-1.395-11.101,2.22c-3.271,1.851-5.198,2.624-9.294,3.001c-8.271,0.765-17.103-1.793-25.334-2.185
			c-8.705-0.414-17.416-0.368-25.432-1.532c-6.033-0.877-14.113-0.05-17.535-6.424c-1.828-3.407,1.118-7.371,0.411-9.723
			c-1.403-4.666-4.281-3.085-8.522-5.637c-9.65-5.805-21.229-25.957-16.107-36.026c2.77-5.445,11.656-6.46,6.785-14.099
			c-0.453-0.709-5.25-3.557-6.372-4.663c-2.883-2.837-4.942-5.765-6.969-9.12c-3.792-6.271-4.639-11.562-6.543-18.228
			C3.876,53.882,0.096,50.692,0,43.036V41.025z"/>
		<g>
			<path fill="#7CCDCD" d="M60.894,153.98c0,0,21.478-7.864,30.837-5.526s11.572-1.195,20.827,1.86
				c9.255,3.055-1.617,12.978-13.389,9.59c-11.771-3.388-24.066-0.727-32.906-1.484C57.423,157.66,59.041,154.625,60.894,153.98z"/>
			<g>
				<path fill="#231F20" d="M127.725,125.083c1.211,0.202,2.145,0.489,3.132,0.852c0.053,0.074,0.105,0.148,0.096,0.212
					c0.137-0.042,0.275-0.085,0.34-0.074c0.254,0.042,0.412,0.266,0.668,0.309l0.127,0.021c0.107,0.148,0.086,0.275,0.213,0.297
					c0.318,0.054,0.764,0.128,0.838,0.468l0.255,0.042c0.318,0.054,0.69,0.181,0.775,0.458c0.382,0.063,0.413,0.266,0.721,0.382
					c0.095,0.212,0.202,0.362,0.361,0.584c0.7,0.117,0.498,0.936,1.039,1.222c0.031,0.202,0.064,0.404,0.181,0.489
					c-0.022,0.913,0.911,1.2,0.858,1.911c0.031,0.202,0.159,0.223,0.202,0.361c-0.097,0.572,0.316,0.839,0.231,1.348l-0.032,0.191
					c-0.021,0.127,0.182,0.096,0.234,0.17c0.052,0.468-0.14,1.221,0.201,1.54l-0.043,0.254c-0.054,0.318-0.032,0.585-0.097,0.967
					c-0.127-0.021-0.202,0.031-0.287,0.148c-0.031,0.19,0.097,0.212,0.139,0.351c-0.085,0.117-0.117,0.308-0.149,0.498
					c-0.063,0.383-0.127,0.765-0.457,0.774c-0.021,0.128,0.042,0.139,0.021,0.266c-0.223,0.159-0.317,0.34-0.371,0.658
					c-0.299,0.212-0.542,0.499-0.893,0.637c0.042,0.138-0.001,0.393-0.001,0.393c-0.158,0.17-0.286,0.148-0.435,0.255
					c-0.255,0.35-0.352,0.923-0.775,1.113c-0.043,0.256-0.309,0.276-0.352,0.531l-0.318-0.053c-0.139,0.042-0.17,0.232-0.255,0.35
					c-0.701,0.275-0.968,1.082-1.837,1.198c-0.159,0.17-0.212,0.488-0.437,0.647l-0.127-0.021c-0.254-0.043-0.286,0.148-0.541,0.106
					c-0.021,0.127-0.097,0.18-0.118,0.308c-0.158,0.17-0.487,0.18-0.636,0.286c-0.139,0.042-0.203,0.031-0.33,0.01
					c-0.159,0.17-0.318,0.34-0.711,0.339c-0.17,0.234-0.563,0.234-0.681,0.542c-0.54,0.105-1.029,0.285-1.358,0.688
					c0.021,0.266,0.053,0.468,0.011,0.723c-0.054,0.318-0.161,0.562-0.342,0.858c0.054,0.075,0.182,0.097,0.224,0.234
					c-0.096,0.181-0.244,0.286-0.234,0.616c-0.085,0.116-0.287,0.147-0.361,0.201c-0.043,0.255-0.074,0.445,0.042,0.53
					c-0.148,0.106-0.085,0.51-0.413,0.521c0.105,0.148,0.084,0.275,0.052,0.467c-0.042,0.255-0.148,0.499-0.191,0.754l-0.031,0.19
					c-0.213,0.096-0.107,0.638-0.394,0.786c0.095,0.212,0.063,0.402-0.033,0.584c-0.021,0.127,0.171,0.158,0.139,0.35
					c-0.096,0.181-0.256,0.351-0.309,0.669c-0.159,0.17-0.33,0.403-0.446,0.711c-0.064-0.011-0.139,0.042-0.266,0.021
					c-0.202,0.426-0.34,0.86-0.766,1.052c-0.138,0.435-0.478,0.509-1.093,0.667c-0.139,0.043-0.489,0.181-0.743,0.138
					c-0.267,0.021-0.648-0.043-0.967-0.096c-0.201,0.031-0.34,0.073-0.467,0.053l-0.191-0.032c-0.318-0.054-0.616-0.234-0.87-0.276
					l-0.127-0.021c0.011-0.063-0.117-0.085-0.234-0.17l-0.19-0.032c-0.318-0.053-0.424-0.202-0.87-0.276
					c-0.085-0.276-0.468-0.34-0.626-0.563c-0.267,0.021-0.298-0.181-0.488-0.213c-0.117-0.086-0.106-0.149-0.096-0.213
					c-0.415-0.266-0.935-0.68-0.85-1.189c0.021-0.127-0.105-0.148-0.158-0.224c0.021-0.127,0.138-0.042,0.096-0.18
					c0.011-0.064-0.127-0.021-0.19-0.032c-0.021-0.658-0.073-1.518-0.021-2.229c-0.169-0.159-0.011-0.329-0.244-0.5
					c0.043-0.254,0.097-0.572-0.084-0.668c0.021-0.127,0.085-0.116,0.096-0.181c-0.148-0.679-0.031-1.38-0.052-2.038
					c-0.032-0.201-0.063-0.403-0.042-0.53c0.021-0.128,0.032-0.191,0.106-0.245c-0.138-0.35,0.032-0.584,0.085-0.902l-0.021-0.265
					c0.032-0.191,0.106-0.244,0.18-0.297c-0.158-0.224,0.064-0.383-0.03-0.595c0.232-0.223,0.297-0.605,0.435-1.04
					c0.054-0.318-0.021-0.658,0.267-0.807c0.032-0.191-0.191-0.032-0.17-0.16c0.032-0.19,0.31-0.275,0.341-0.466
					c-0.043-0.139-0.032-0.202-0.149-0.287c-0.105-0.149,0.043-0.255,0.063-0.382l0.021-0.128c0.075-0.445,0.278-0.477,0.374-1.051
					l0.138-0.435c0.011-0.064-0.096-0.213-0.085-0.276l0.021-0.127c0.074-0.446,0.319-0.733,0.553-0.955
					c-0.032-0.203-0.223-0.234-0.403-0.33c-0.021-0.266,0.127-0.371,0.213-0.488c-0.032-0.201-0.074-0.339-0.042-0.53
					c0.074-0.446,0.351-0.924,0.276-1.264c0.16-0.17,0.256-0.351,0.298-0.604c0.043-0.255,0.021-0.521-0.085-0.669
					c-0.031-0.202,0.054-0.318,0.021-0.521c0.234-0.223,0.341-0.467,0.383-0.722c-0.031-0.202-0.073-0.339-0.052-0.467
					c0.032-0.19,0.243-0.286,0.096-0.573c0.085-0.117,0.223-0.159,0.308-0.275c-0.053-0.075-0.18-0.097-0.169-0.16
					c0.031-0.19,0.201-0.425,0.244-0.679c0.021-0.128-0.032-0.202-0.074-0.34c0.34-0.074,0.223-0.552,0.51-0.701
					c0.021-0.127-0.021-0.265-0.01-0.329c0.159-0.169,0.308-0.668,0.36-0.986c0.011-0.063-0.031-0.202-0.01-0.329
					c0.096-0.181,0.329-0.403,0.361-0.595c0.043-0.255,0.021-0.52,0.054-0.711l0.032-0.191c0.117-0.308,0.573-0.689,0.764-1.05
					c0.076-0.053,0.087-0.117,0.098-0.181c0.074-0.053,0.148-0.105,0.212-0.096c0.096-0.181,0.054-0.318,0.201-0.425
					c0.17-0.233,0.574-0.296,0.743-0.529c0.287-0.149,0.563-0.233,0.787-0.393c0.19,0.032,0.414-0.127,0.68-0.148
					c0.328-0.01,0.699,0.117,1.103,0.054c0.521,0.021,1.231,0.075,1.827,0.044c0.063,0.011,0.116,0.085,0.169,0.159
					c0.202-0.032,0.595-0.031,0.851,0.011l0.19,0.032c0.127,0.021,0.201-0.031,0.223-0.158
					C127.735,125.02,127.725,125.083,127.725,125.083z M117.002,141.424l-0.011,0.064c0.118,0.085,0.149-0.106,0.085-0.117
					C117.076,141.371,117.065,141.435,117.002,141.424z M129.919,129.968c-0.286,0.148-0.689,0.212-0.967,0.297
					c-0.211,0.095-0.243,0.286-0.286,0.541l-0.054,0.318c-0.031,0.19-0.18,0.297-0.265,0.414c-0.032,0.19,0.126,0.414-0.021,0.52
					c-0.032,0.191,0.126,0.415,0.157,0.616c-0.031,0.191-0.085,0.51-0.063,0.774c-0.011,0.064,0.043,0.139,0.032,0.202
					c0.021,0.266-0.096,0.573-0.086,0.902c0.074,0.34,0.021,0.658,0.021,1.051c0.042,0.138,0.074,0.34,0.042,0.531l-0.021,0.127
					c0.128,0.021,0.181,0.096,0.233,0.17c0.255,0.043,0.298-0.212,0.437-0.254c0.169,0.159,0.265-0.021,0.456,0.011
					c0.457-0.775,1.507-0.795,1.73-1.74l0.225-0.159c0.085-0.51,0.361-0.987,0.51-1.485c0.054-0.318,0.128-0.764,0.107-1.03
					c0.053-0.318-0.053-0.467-0.212-0.69c-0.149-0.286-0.266-0.371-0.436-0.53c-0.105-0.149-0.158-0.224-0.286-0.244
					c-0.053-0.075-0.117-0.086-0.106-0.149c-0.116-0.084-0.18-0.096-0.307-0.116C130.503,130,130.228,130.085,129.919,129.968z"/>
			</g>
			<g>
				<path fill="#231F20" d="M10.645,40.188c0.519-0.262,0.953-0.118,1.299-0.293l0.173-0.087c0.346-0.03,0.636,0.111,1.039-0.092
					c0.145,0.145,0.463,0.057,0.664,0.171c0.059-0.029,0.087-0.115,0.231-0.116c0.317,0.057,0.981-0.206,1.185,0.197
					c0.088,0.173,0.001,0.289,0.089,0.462c0.146,0.288,0.491,0.258,0.695,0.661c0.146,0.289,0.233,0.605,0.407,0.808l0.174,0.201
					c0.116,0.086,0.146,0.288,0.377,0.315c0.002,0.29,0.118,0.52,0.234,0.751c0.087,0.173,0.146,0.287,0.089,0.462
					c0.202,0.114,0.434,0.286,0.349,0.547c0.26,0.085,0.377,0.46,0.522,0.749c0.146,0.287,0.349,0.547,0.695,0.66
					c0.174,0.202,0.117,0.376,0.146,0.578c0.29,0.287,0.666,0.315,0.956,0.747c0.117,0.23,0.377,0.461,0.494,0.691l0.058,0.114
					c0.174,0.058,0.463,0.201,0.58,0.432c0.028,0.058,0,0.145,0.029,0.201c0.145,0,0.116,0.232,0.232,0.318
					c0.202,0.113,0.404,0.084,0.607,0.344c-0.058,0.174-0.028,0.23,0.03,0.347c0.087,0.173,0.319,0.345,0.522,0.604
					c-0.058,0.029,0.058,0.115-0.058,0.174l0.379,0.75c0.116,0.229,0.262,0.519,0.465,0.777c0.088,0.173,0.318,0.057,0.434,0.143
					c-0.028,0.087,0.001,0.146,0.03,0.202c0.175,0.347,0.607,0.345,0.897,0.632c0.029,0.058,0.001,0.145,0.059,0.26
					c0.059,0.114,0.29,0.144,0.204,0.403c0.087,0.173,0.347,0.114,0.491,0.258l0.117,0.23c0.088,0.174,0.203,0.403,0.436,0.576
					c0.029,0.201-0.144,0.289-0.056,0.463c0.145,0.144,0.404,0.229,0.521,0.459c0.029,0.059,0.088,0.174,0.059,0.26
					c0.375-0.262-0.001-0.434,0.172-0.664l-0.088-0.174c-0.116-0.23-0.146-0.432-0.205-0.692c0-0.145-0.117-0.519-0.003-0.722
					c-0.116-0.086-0.058-0.26-0.203-0.403c0.055-0.751-0.469-1.645-0.097-2.339l-0.087-0.173c-0.146-0.288-0.146-0.577-0.09-0.751
					c-0.118-0.664-0.149-1.299,0.167-1.819c-0.002-0.289,0.142-0.578,0.111-0.925c-0.059-0.26,0.026-0.664,0.17-0.954
					c-0.09-0.606,0.227-1.127,0.34-1.618l-0.029-0.058c-0.116-0.231-0.289-0.144-0.405-0.374c0.087,0.029,0.144,0,0.173-0.087
					c0.172-0.377,0.604-0.667,0.949-0.986c0.115-0.059,0.028-0.23,0.144-0.288l0.115-0.059c0.403-0.203,0.633-0.609,0.979-0.784
					c0.115-0.059,0.317-0.088,0.462-0.089c0.086-0.115,0.259-0.203,0.432-0.29c0.23-0.116,0.548-0.204,0.779-0.176
					c0.519-0.262,0.951-0.408,1.327-0.237c0.461-0.232,0.751,0.056,1.127,0.083l0.058,0.115c0.175,0.345,0.436,0.575,0.697,0.806
					c0.576-0.146,0.867,0.285,1.329,0.342l0.146,0.288c0.115,0.085,0.316-0.088,0.433-0.003c0.03,0.059,0.116,0.087,0.146,0.145
					c0.375,0.027,0.637,0.402,1.042,0.488c0.146,0.287,0.29,0.576,0.521,0.604c-0.057,0.173,0.116,0.23,0.233,0.461
					c0.288-0.001,0.435,0.287,0.723,0.286c0.35,0.548,0.754,0.776,1.273,0.804c0.521,0.315,0.956,0.747,1.563,0.803
					c0.087,0.172,0.174,0.2,0.203,0.402c0.202-0.029,0.403-0.203,0.463,0.057c-0.144,0.146-0.173,0.088-0.26,0.059
					c0.145,0.144,0.349,0.403,0.522,0.748c0.52,0.027,1.039-0.09,1.33,0.486c0.059,0.116,0.146,0,0.261-0.058
					c0.058,0.115,0.289,0.142,0.202,0.258c0.116,0.087,0.232,0.028,0.377,0.173c0.231,0.171,0.29,0.576,0.666,0.459
					c-0.002-0.289-0.146-0.577-0.205-0.837c-0.001-0.145-0.117-0.231-0.233-0.461c-0.059-0.26,0.026-0.521-0.119-0.809l-0.058-0.115
					c-0.059-0.115-0.002-0.288,0.027-0.375c-0.088-0.173-0.146-0.288-0.059-0.404c-0.002-0.146-0.117-0.087-0.146-0.145
					c-0.058-0.114,0.029-0.23,0.115-0.346c-0.059-0.116-0.174-0.059-0.175-0.202c-0.03-0.491-0.351-0.98-0.207-1.414
					c-0.116-0.086-0.175-0.201-0.203-0.259c-0.204-0.404-0.178-0.925-0.353-1.271l-0.174-0.346c-0.175-0.346-0.32-0.635-0.206-0.98
					l-0.116-0.231c-0.146-0.287-0.09-0.605-0.293-1.009l-0.059-0.115c0-0.145,0.115-0.203,0.172-0.377
					c-0.203-0.113-0.318-0.344-0.436-0.576c-0.232-0.461-0.379-1.037-0.41-1.527c-0.058-0.115-0.115-0.087-0.174-0.058
					c0-0.145-0.029-0.202-0.088-0.318c-0.262-0.519-0.265-1.24-0.469-1.788c-0.058-0.115-0.174-0.201-0.262-0.374
					c-0.116-0.231-0.203-0.548-0.292-0.865c-0.204-0.548-0.351-1.125-0.469-1.644l-0.291-0.576c-0.029-0.203-0.087-0.318-0.03-0.492
					c-0.232-0.172-0.204-0.403-0.234-0.605c-0.088-0.316-0.291-0.72-0.264-1.097l-0.03-0.347c-0.058-0.113-0.001-0.288-0.03-0.346
					l-0.087-0.173c-0.088-0.173-0.203-0.259-0.349-0.403c0.058-0.028,0.029-0.086,0-0.144c0.057-0.175,0.23-0.116,0.316-0.233
					c-0.088-0.462,0.084-0.693,0.573-1.013c0.202-0.174,0.374-0.405,0.548-0.492c0.057-0.029,0.144-0.001,0.201-0.029
					c0.086-0.261,0.375-0.262,0.605-0.522c0.115-0.059,0.201-0.029,0.316-0.088c0.288-0.146,0.576-0.437,0.863-0.582
					c0.174-0.087,0.376-0.116,0.578-0.001l0.115-0.059c0.289-0.146,0.491-0.032,0.779-0.178l0.115-0.058
					c0.232,0.173,0.607,0.056,0.924-0.032c0.029,0.201,0.232,0.173,0.405,0.229c0.058-0.029,0.115-0.202,0.23-0.116
					c0.261,0.085,0.578,0.142,0.867,0.141c0.146,0.288,0.377,0.317,0.55,0.229c-0.028,0.086,0.116,0.229,0.117,0.374
					c0.23-0.116,0.405,0.229,0.607,0.2c0.116,0.23,0.029,0.347,0.06,0.549c0.058,0.114,0.231,0.027,0.376,0.172
					c0.203,0.26-0.027,0.376,0.002,0.577c0.088,0.173,0.203,0.114,0.289,0.144c0.117,0.087-0.057,0.174,0.002,0.289
					c0.174,0.057,0.348,0.259,0.464,0.489c0.058,0.114,0.088,0.317,0.089,0.461c0.058,0.115,0.405,0.229,0.203,0.403
					c0.578,0.287,0.64,1.123,1.219,1.555c-0.057,0.174,0.031,0.491-0.171,0.521c0.001,0.145,0.146,0.144,0.231,0.173
					c0.029,0.201,0.089,0.462,0.205,0.691l0.117,0.231c-0.058,0.174,0.001,0.434-0.056,0.606c0.087,0.028,0.087,0.173,0.203,0.259
					c-0.057,0.318,0.349,0.549,0.061,0.837c0.088,0.317,0.378,0.605,0.177,0.925c0.262,0.519,0.322,0.922,0.323,1.355
					c0.116,0.086,0.175,0.202,0.204,0.259c0.262,0.52-0.055,1.04-0.197,1.474c0.001,0.145,0.202-0.029,0.203,0.115
					c-0.027,0.375,0.436,0.72,0.235,1.184c0.174,0.2,0.117,0.375,0.118,0.519l0.058,0.115c0.087,0.173,0.089,0.462,0.176,0.635
					c0.028,0.058,0,0.145,0,0.145c0.088,0.173,0.175,0.346,0.205,0.549c0,0-0.028,0.085,0.001,0.143c0,0.145,0.029,0.348-0.085,0.55
					c0.058,0.259,0.319,0.49,0.089,0.751c0.318,0.056,0.349,0.402,0.264,0.662c0.115,0.087,0.346,0.114,0.404,0.229
					c0.03,0.203-0.113,0.349-0.112,0.636c-0.058,0.029,0.059,0.116,0.029,0.203l-0.086,0.115c-0.028,0.087,0.087,0.172,0.116,0.23
					c0.059,0.115-0.086,0.261-0.057,0.318l0.232,0.461c0.03,0.202,0.061,0.404,0.234,0.749l-0.028,0.232
					c0.233,0.605,0.235,1.183,0.122,1.674c0.116,0.086,0.203,0.259,0.291,0.433c-0.432,0.434,0.005,1.155-0.397,1.647
					c0.028,0.058,0.23,0.028,0.058,0.115c-0.056,0.462-0.083,0.838-0.4,1.214c0.176,0.49-0.139,1.012-0.543,1.216
					c-0.144,0.289-0.171,0.521-0.488,0.753c-0.17,0.664-1.268,0.784-1.41,1.362c-0.547,0.349-1.209,0.756-1.786,1.047
					c-0.807,0.407-1.643,0.757-2.278,0.645c-0.203,0.029-0.434,0.146-0.605,0.233l-0.865,0.437
					c-0.288,0.146-0.576,0.291-0.836,0.205c-0.202,0.03-0.058,0.174-0.202,0.175c-0.202,0.029-0.376-0.028-0.606,0.088
					c-0.462-0.199-1.067,0.034-1.416-0.369c-0.115,0.059-0.202,0.029-0.317,0.087c-0.029-0.058-0.087-0.028-0.145-0.144
					c-0.289,0.002-0.606-0.054-0.811-0.314c-0.347-0.113-0.722-0.141-0.954-0.459c-0.52-0.025-0.898-0.631-1.476-0.629
					c-0.029-0.058,0-0.144-0.03-0.201c-0.491-0.258-0.869-0.72-1.332-0.919c-0.115-0.086,0-0.144-0.029-0.202
					c-0.434-0.143-0.781-0.546-1.13-0.948c-0.55-0.229-0.841-0.95-1.276-1.382c-0.289-0.288-0.694-0.517-0.841-0.806
					c-0.028-0.057-0.087-0.172-0.058-0.259c-0.175-0.058-0.318-0.058-0.377-0.316c-0.489,0.607,0.612,1.644,0.096,2.339
					c0.058,0.115,0.115,0.086,0.174,0.201c-0.057,0.174,0.001,0.289,0.06,0.403l0.349,0.548c0.087,0.174,0.088,0.317,0.088,0.462
					c0.087,0.028,0.146,0.144,0.175,0.201c0.203,0.404-0.055,0.896-0.054,1.33c0.146,0.287,0.146,0.432,0.09,0.605l0.059,0.115
					c0.232,0.461,0.062,0.981,0.034,1.501c0.231,0.172,0.088,0.318,0.118,0.521l0.116,0.23c0.232,0.461,0.205,0.836-0.111,1.214
					c0.088,0.172,0.001,0.287,0.089,0.46c-0.113,0.491-0.603,0.956-0.688,1.504c-0.432,0.436-0.979,0.785-1.468,1.248
					c-0.345,0.32-0.546,0.638-0.921,0.899l-0.346,0.175c-0.489,0.464-0.777,0.609-1.643,1.046l-0.172,0.087
					c-0.174,0.088-0.404,0.06-0.577,0.146c-0.145,0.001-0.347,0.175-0.548,0.205c-0.23,0.116-0.549,0.06-0.837,0.205
					c-0.173,0.088-0.634,0.465-0.979,0.639c-0.288,0.146-0.577,0.147-0.865,0.293c-0.318-0.057-0.693,0.061-1.068,0.178
					c-0.115-0.086-0.289-0.145-0.462-0.057c-0.202-0.114-0.404-0.084-0.636-0.257c-0.173,0.088-0.289,0-0.463,0.088
					c-0.202-0.258-0.578-0.143-0.723-0.431c-0.376-0.025-0.723-0.141-1.041-0.342c-0.059-0.115-0.001-0.145-0.059-0.26
					c-0.289,0.001-0.521-0.315-0.868-0.285c-0.29-0.432-0.695-0.662-0.841-0.95c-0.087-0.173-0.088-0.317-0.089-0.461
					c-0.029-0.058-0.173,0.087-0.26,0.059c-0.173-0.058-0.087-0.173-0.232-0.317c0,0-0.086-0.029-0.115-0.086
					c-0.059-0.115-0.03-0.201-0.088-0.316c-0.116-0.231-0.347-0.115-0.521-0.315c-0.319-0.202-0.378-0.606-0.697-0.807
					c-0.058-0.116,0.028-0.232,0-0.289c-0.145,0.001-0.175-0.201-0.146-0.288c-0.059-0.116-0.26-0.086-0.347-0.115
					c-0.029-0.2-0.203-0.259-0.291-0.432c-0.116-0.229-0.146-0.432-0.262-0.662l-0.059-0.115c-0.174-0.202-0.261-0.23-0.233-0.463
					c-0.058-0.115-0.201,0.03-0.26-0.084c0.115-0.059,0.058-0.174,0.115-0.203c-0.175-0.202-0.318-0.057-0.319-0.346
					c-0.087-0.027-0.174-0.056-0.289,0.002c-0.116-0.087-0.174-0.202-0.232-0.317c-0.174-0.346-0.175-0.634-0.234-1.038
					c-0.116-0.086-0.261-0.087-0.377-0.173c-0.087-0.172-0.146-0.721-0.464-0.633c-0.059-0.115,0.114-0.203,0.057-0.318
					c-0.029-0.058-0.115,0.059-0.174-0.057c-0.319-0.345-0.465-0.778-0.64-1.123c-0.116-0.231-0.233-0.462-0.493-0.548
					c0.058-0.029,0-0.145,0.115-0.202c-0.175-0.201-0.637-0.401-0.783-0.689c-0.059-0.115-0.059-0.26-0.059-0.405l-0.262-0.374
					c-0.059-0.115,0.057-0.174-0.03-0.347c-0.175-0.346-0.435-0.431-0.581-0.719c-0.058-0.115,0-0.289-0.059-0.405
					c-0.088-0.172-0.291-0.287-0.377-0.46c-0.029-0.058-0.059-0.115-0.03-0.201c-0.001-0.145-0.144,0-0.202-0.116
					c-0.059-0.115-0.001-0.144-0.03-0.201c-0.146-0.288-0.376-0.316-0.552-0.663c-0.115-0.229-0.175-0.49-0.291-0.72l-0.521-0.172
					l-0.059-0.115l-0.348-0.547c-0.029-0.058-0.088-0.173-0.002-0.289c-0.145-0.144-0.348-0.402-0.263-0.663
					c-0.087-0.174-0.289-0.144-0.174-0.346c-0.116-0.086-0.232-0.173-0.349-0.403c-0.058-0.115-0.001-0.288-0.06-0.403
					c-0.029-0.202-0.175-0.348-0.232-0.461c-0.059-0.115-0.03-0.347-0.117-0.521c-0.029-0.058-0.059-0.114-0.146-0.143
					c-0.058-0.115,0.115-0.203,0.057-0.319c-0.261-0.229-0.406-0.373-0.522-0.604s-0.175-0.49-0.32-0.779
					c0.115-0.059,0.144-0.145,0.23-0.116c0.057-0.173-0.03-0.346,0.113-0.491s0.375-0.262,0.519-0.406
					c0.173-0.232,0.171-0.52,0.518-0.694c0.115-0.059,0.143-0.146,0.114-0.204c0.316-0.088,0.519-0.262,0.576-0.435
					c0.057-0.029,0.144-0.001,0.259-0.06c0.23-0.116,0.403-0.348,0.606-0.233c0.143-0.289,0.518-0.406,0.776-0.753
					c0.115-0.059,0.229-0.262,0.402-0.349C10.297,40.075,10.528,40.103,10.645,40.188z"/>
			</g>
			<g>
				<path fill="#231F20" d="M67.443,14.871c1.1-0.046,2.52-0.021,3.743,0.193c0.129,0.002,0.191,0.132,0.32,0.134
					c0.578,0.205,0.774,0.078,1.157,0.344c-0.001,0.064,0.063,0.13,0.126,0.195c0.127,0.066,0.385,0.071,0.577,0.204
					c0.639,0.397,0.884,1.178,1.525,1.446l0.556,1.495c0.184,0.585,0.434,1.104,0.424,1.686c-0.005,0.259-0.141,0.645,0.113,0.907
					c-0.068,0.192-0.07,0.321-0.073,0.515c-0.008,0.452,0.114,0.843,0.435,1.041c-0.006,0.323-0.138,0.515-0.143,0.773
					c0.062,0.194,0.189,0.261,0.186,0.455c-0.003,0.193-0.135,0.32-0.139,0.579l-0.002,0.129c-0.004,0.193,0.255,0.134,0.317,0.265
					c-0.002,0.129-0.067,0.192-0.069,0.321c-0.007,0.388,0.182,0.714,0.176,1.035l-0.002,0.129c-0.003,0.194-0.133,0.192-0.138,0.45
					c-0.002,0.13,0.062,0.26-0.069,0.322c0.254,0.262,0.049,0.905,0.303,1.167c-0.067,0.192-0.07,0.387-0.073,0.516
					c-0.005,0.323,0.055,0.582,0.178,0.908c-0.067,0.191-0.071,0.45-0.076,0.708c-0.006,0.323-0.011,0.646-0.338,0.835
					c-0.002,0.129,0.062,0.259,0.06,0.389c-0.005,0.258-0.138,0.45-0.334,0.575l-0.011,0.645c-0.006,0.323-0.011,0.646-0.21,0.901
					c-0.067,0.192,0.062,0.259,0.124,0.39c-0.068,0.192-0.133,0.127-0.071,0.386c0.189,0.197-0.012,0.646,0.181,0.714
					c-0.193-0.003-0.26,0.061-0.392,0.252c-0.007,0.388,0.313,0.65,0.306,1.038c-0.004,0.193-0.201,0.385-0.204,0.578l-0.003,0.13
					c-0.008,0.451,0.181,0.842,0.238,1.23c0.188,0.326,0.311,0.716,0.499,1.041c-0.023,1.355,1.07,1.634,1.571,2.547
					c0.13-0.063,0.26-0.061,0.453-0.057c0.323,0.005,0.644,0.075,0.834,0.271c-0.01,0.581,0.176,1.037,0.169,1.425
					c-0.003,0.193-0.069,0.321-0.138,0.514c-0.067,0.192-0.264,0.319-0.33,0.447c-0.066,0.063-0.069,0.257-0.136,0.385
					c-0.13,0.127-0.327,0.253-0.331,0.512c-0.393,0.315-0.783,0.502-0.985,0.95l-0.129-0.002c-0.517-0.009-0.848,0.438-1.363,0.429
					c-0.065-0.001-0.13-0.002-0.195,0.062c-0.194,0.061-0.521,0.186-0.843,0.18c-0.194-0.003-0.388-0.007-0.515-0.139
					c-0.778,0.181-2.384-0.363-2.694-1.015c-0.579-0.139-0.958-0.662-1.337-1.12c-0.191-0.197-0.445-0.395-0.635-0.722
					c-0.063-0.13-0.059-0.324-0.186-0.455c-0.125-0.195-0.318-0.264-0.51-0.396c-0.131,0.127-0.33,0.381-0.588,0.377
					c-0.064-0.001-0.129-0.002-0.193-0.068c-0.065,0.063-0.005,0.323-0.008,0.452c-0.454,0.187-0.785,0.633-1.237,0.625
					c-0.065,0.063-0.006,0.323-0.071,0.387c-0.391,0.187-0.717,0.375-0.98,0.693c-0.646,0.054-1.04,0.434-1.621,0.424l-0.193-0.004
					c-0.325,0.125-0.778,0.182-1.166,0.175l-0.387-0.007c-0.13-0.002-0.193-0.067-0.258-0.068c-0.192-0.069-0.388-0.007-0.517-0.009
					l-0.578-0.205c-0.258-0.068-0.451-0.071-0.576-0.268c-0.128-0.066-0.131,0.063-0.261,0.061
					c-0.063-0.065-0.125-0.195-0.253-0.263c-0.58-0.074-0.833-0.4-1.282-0.603c-0.38-0.33-0.958-0.598-1.272-1.056
					c-0.452-0.008-0.838-0.144-1.221-0.344l-0.446-0.33c-0.192-0.133-0.254-0.328-0.379-0.523c-0.445-0.46-0.957-0.727-1.142-1.247
					c-0.446-0.33-0.631-0.915-0.881-1.371c0.001-0.064-0.128-0.066-0.258-0.069c0.068-0.193-0.062-0.195,0.005-0.323
					c-0.063-0.065-0.193-0.003-0.255-0.133c-0.186-0.521-0.633-0.786-0.621-1.432c0.001-0.064,0.003-0.193-0.06-0.323
					c0.001-0.065-0.127-0.132-0.126-0.196l0.003-0.193c0.014-0.775-0.431-1.235-0.484-1.817c0.005-0.322,0.14-0.644,0.144-0.901
					c0.004-0.194-0.188-0.326-0.185-0.521l-0.053-0.646c0.004-0.258,0.072-0.451,0.075-0.645c0.14-0.644,0.09-1.483,0.23-2.191
					c0.067-0.063,0.196-0.061,0.197-0.125c0.066-0.193-0.191-0.198-0.189-0.327c0.274-0.964,0.425-2.188,0.829-3.15
					c0.258,0.004,0.262-0.255,0.395-0.381c0.003-0.193-0.127-0.196-0.188-0.392c0.005-0.258,0.139-0.514,0.336-0.704
					c0.005-0.322,0.075-0.644,0.272-0.835l0.003-0.129c0.006-0.388,0.336-0.834,0.536-1.218c0.067-0.128,0.072-0.386,0.266-0.383
					c-0.064-0.001-0.063-0.13-0.062-0.195c0.524-0.442,0.604-1.346,1.193-1.788c0.336-0.769,0.801-1.472,1.391-1.979
					c0.004-0.257,0.07-0.321,0.137-0.449c0.132-0.191,0.328-0.316,0.396-0.51l0.322,0.006c0.587-0.313,1.045-0.692,1.63-0.941
					c0.068-0.192,0.264-0.318,0.396-0.51c0.065-0.063,0.131-0.063,0.194,0.003c0.324-0.123,0.586-0.313,0.848-0.502
					c0.261-0.125,0.523-0.378,0.849-0.503c0.195-0.125,0.519-0.12,0.778-0.244l0.456-0.186c0.39-0.123,0.907-0.179,1.235-0.432
					c0.063,0.065,0.192,0.068,0.257,0.069c0.193,0.003,0.39-0.123,0.521-0.25c0.193,0.067,0.324-0.06,0.581,0.01
					c0.264-0.254,0.585-0.248,0.908-0.242L67.443,14.871z M63.009,24.936c-0.002,0.13-0.196,0.19-0.134,0.32
					c-0.391,0.123-0.78,0.245-0.979,0.564c-0.004,0.259-0.197,0.256-0.2,0.448c-0.134,0.191-0.138,0.45-0.335,0.64l0.061,0.261
					c-0.259,0.06-0.263,0.253-0.266,0.447c-0.008,0.452-0.016,0.903-0.153,1.354c0.129,0.066,0.127,0.196,0.124,0.325
					c-0.003,0.193-0.203,0.514-0.271,0.706c0.063,0.065,0.063,0.131,0.061,0.26c-0.005,0.258-0.202,0.513-0.207,0.771
					c-0.003,0.194,0.059,0.324,0.315,0.458c-0.068,0.192,0.059,0.324,0.186,0.455c-0.328,0.318-0.011,0.646-0.403,0.897
					c0.063,0.13,0.124,0.324,0.12,0.519c-0.003,0.193-0.069,0.321-0.138,0.515c0.063,0.13,0.257,0.133,0.255,0.262
					c-0.068,0.193,0.124,0.261,0.188,0.326c0.128,0.067,0.126,0.196,0.252,0.327c0.063,0.195,0.257,0.134,0.253,0.392
					c-0.003,0.13-0.005,0.259-0.072,0.451c0.256,0.134,0.316,0.394,0.572,0.526l-0.016,0.904c0.385,0.2,0.77,0.337,1.089,0.536
					c0.124,0.26,0.447,0.266,0.833,0.401c0.063,0.066,0.192,0.068,0.256,0.134c0.193,0.067,0.258,0.068,0.516,0.073
					c0.193,0.067,0.255,0.197,0.45,0.137c0.193,0.003,0.195-0.126,0.453-0.121l0.003-0.193c0.458-0.315,0.853-0.697,1.053-1.146
					c0.067-0.128,0.326-0.124,0.327-0.188s-0.063-0.065-0.063-0.13c0.004-0.194,0.266-0.447,0.396-0.574l0.001-0.065
					c0.004-0.193,0.135-0.32,0.396-0.444c-0.063-0.065-0.126-0.132-0.061-0.195c0.196-0.19,0.135-0.386,0.269-0.642
					c0.067-0.128,0.264-0.253,0.331-0.446c0.2-0.385,0.465-0.767,0.536-1.153c0.069-0.257,0.008-0.451,0.269-0.576
					c-0.194-0.003-0.192-0.067-0.191-0.132c0.003-0.194,0.135-0.386,0.267-0.447c0.006-0.388,0.078-0.839,0.278-1.224
					c-0.064-0.001-0.192-0.067-0.191-0.132c0.136-0.386-0.114-0.843,0.021-1.227c0.001-0.064,0.13-0.063,0.131-0.128
					c0.002-0.129-0.063-0.13-0.062-0.194c0.003-0.129,0.133-0.191,0.198-0.256c0.002-0.129-0.061-0.259-0.059-0.323
					c0.001-0.064,0.066-0.128,0.068-0.258l0.014-0.774c0.006-0.388,0.014-0.84-0.109-1.163c-0.063-0.065,0.193,0.003,0.131-0.128
					c-0.321-0.069-0.316-0.327-0.377-0.588c-0.194-0.003-0.26,0.061-0.518-0.009l-0.189-0.196l-0.129-0.002
					c-0.517-0.009-0.704-0.4-1.155-0.408l-0.261,0.061c-0.063-0.065-0.062-0.13-0.255-0.134l-0.259-0.004
					c-0.193-0.003-0.388-0.007-0.582,0.055l-0.254-0.263l-0.193-0.003c-0.581-0.01-0.837-0.209-1.288-0.217
					C63.856,24.497,63.401,24.684,63.009,24.936z"/>
			</g>
			<g>
				<path fill="#231F20" d="M86.661,8.372c0.322,0.006,0.646-0.053,0.968,0.081c0.129,0.003,0.063,0.13,0.125,0.197l0.258,0.004
					c0.259,0.005,0.581,0.01,0.643,0.269l0.258,0.005l0.188,0.262c0.194,0.004,0.387,0.071,0.449,0.201
					c0.065-0.063,0.193,0.068,0.322,0.07c0.12,0.519,0.375,0.718,0.759,0.917c-0.003,0.193-0.067,0.192-0.068,0.257
					c0.255,0.199,0.511,0.332,0.503,0.784c0.321,0.135,0.249,0.586,0.437,0.912c-0.067,0.192-0.136,0.385-0.075,0.645
					c-0.002,0.129,0.128,0.066,0.192,0.067c-0.005,0.258,0.059,0.389-0.075,0.644c0.061,0.195,0.256,0.134,0.317,0.329
					c-0.006,0.323,0.25,0.456,0.374,0.781l-0.006,0.388c0.062,0.13,0.124,0.261,0.123,0.325c-0.004,0.193-0.137,0.45-0.139,0.579
					c-0.001,0.064,0.062,0.13,0.061,0.194c-0.003,0.194,0.126,0.196,0.252,0.392c-0.072,0.451-0.079,0.839-0.087,1.29
					c-0.009,0.518-0.017,0.969,0.104,1.487c-0.066,0.129-0.134,0.257-0.199,0.32c-0.01,0.58,0.111,1.034,0.104,1.486
					c-0.002,0.129-0.004,0.258-0.072,0.451c0.063,0.13,0.059,0.388,0.055,0.582l-0.02,1.162c-0.003,0.194-0.007,0.388-0.202,0.514
					l-0.003,0.193c-0.006,0.323-0.14,0.58-0.145,0.902l-0.005,0.259c0.521-0.25,0.725-0.893,1.183-1.208
					c0.002-0.129,0.132-0.191,0.135-0.385c0.393-0.252,0.722-0.634,0.924-1.082c0.916-0.695,1.451-1.784,2.622-2.281
					c0.524-0.442,1.05-0.95,2.083-0.933c0.58,0.011,1.029,0.212,1.017,0.921c-0.006,0.389-0.142,0.772-0.213,1.159
					c-0.001,0.064,0.128,0.066,0.126,0.196c-0.005,0.258-0.201,0.384-0.332,0.511c-0.336,0.77-0.674,1.668-1.328,2.174
					c0.062,0.194-0.134,0.256-0.074,0.516c-0.459,0.444-0.919,0.889-1.252,1.465c-0.065,0.063-0.13,0.062-0.194,0.061
					c-0.005,0.321-0.138,0.514-0.397,0.573c-0.138,0.515-0.467,0.832-0.857,1.02c-0.146,0.966-1.119,1.207-1.392,2.107
					c-0.068,0.192-0.329,0.317-0.142,0.644c0.386,0.136,0.641,0.398,1.024,0.534l-0.004,0.259c0.451,0.072,0.64,0.398,0.696,0.851
					c0.063,0.131,0.257,0.069,0.319,0.2c0.059,0.389,0.444,0.46,0.503,0.847l0.258,0.004c-0.136,0.386,0.188,0.327,0.248,0.587
					c0.064,0.065,0.128,0.131,0.257,0.133c0.122,0.39,0.311,0.716,0.63,0.916c-0.001,0.064,0.063,0.065,0.061,0.194
					c0.513,0.267,0.632,0.915,1.144,1.182c0.059,0.324,0.313,0.458,0.438,0.783c0.062,0.13,0.255,0.134,0.382,0.265l-0.003,0.193
					c-0.005,0.259,0.253,0.327,0.25,0.521c0.06,0.26,0.383,0.265,0.443,0.523c0.256,0.07,0.316,0.329,0.509,0.461
					c0.123,0.326,0.31,0.717,0.302,1.168c-0.002,0.129-0.004,0.258-0.07,0.386c-0.003,0.13,0.191,0.133,0.188,0.326
					c-0.076,0.645-0.66,0.764-0.735,1.409c-0.459,0.379-1.108,0.627-1.503,1.008l-0.129-0.002c-0.258-0.005-0.519,0.185-0.715,0.31
					c-0.519,0.121-0.906,0.114-1.424,0.17c-0.703-0.399-1.54-0.607-1.718-1.515l-0.256-0.198c-0.061-0.195-0.188-0.262-0.186-0.455
					c-0.319-0.2-0.443-0.524-0.697-0.787c-0.064-0.002-0.129-0.003-0.128-0.067c-0.127-0.131-0.189-0.262-0.252-0.392l-0.254-0.263
					c-0.188-0.262-0.248-0.584-0.438-0.782c-0.127-0.131-0.386-0.135-0.513-0.267c-0.127-0.066-0.188-0.197-0.316-0.264
					l-0.952-0.985c-0.063-0.065-0.062-0.194-0.126-0.261c0.001-0.064-0.063-0.065-0.063-0.065c-0.258-0.004-0.251-0.392-0.574-0.397
					c-0.065,0.063-0.066,0.128-0.067,0.192c-0.004,0.194,0.122,0.39,0.185,0.52c-0.001,0.065-0.067,0.129-0.068,0.193
					c-0.003,0.193,0.189,0.326,0.185,0.585c-0.067,0.128-0.198,0.254-0.264,0.318c0.062,0.13,0.123,0.324,0.121,0.453
					c-0.008,0.451-0.338,0.898-0.603,1.217c-0.066,0.128,0.063,0.065,0.062,0.194c-0.194,0.062-0.198,0.256-0.266,0.448
					c-0.129-0.002-0.068,0.192-0.263,0.188c-0.069,0.322-0.393,0.382-0.398,0.705l-0.002,0.129
					c-0.194-0.004-0.261,0.124-0.328,0.252c-0.13,0.063-0.259-0.005-0.26,0.061c-0.13,0.063-0.003,0.193-0.133,0.256
					c-0.257-0.068-0.261,0.125-0.391,0.188c-0.582-0.01-0.653,0.376-0.978,0.499c-0.064-0.001-0.129-0.066-0.258-0.068
					c-0.258-0.005-0.583,0.12-0.838-0.079c-0.13-0.002-0.26,0.061-0.388,0.058c-0.258-0.068-0.578-0.139-0.77-0.335
					c-0.709-0.077-1.421-0.024-1.999-0.229c-0.063-0.065-0.19-0.133-0.188-0.262c-0.128-0.066-0.131,0.127-0.26,0.061l-0.447-0.267
					c-0.127-0.131-0.51-0.396-0.701-0.593c-0.251-0.392-0.242-0.908-0.494-1.3l0.002-0.129c0.005-0.259-0.122-0.391-0.119-0.584
					c-0.059-0.323,0.012-0.646-0.048-0.969c-0.113-0.906-0.163-1.812-0.147-2.716l0.015-0.839c0.068-0.193,0.137-0.45,0.143-0.773
					c-0.063-0.065-0.127-0.195-0.125-0.26c-0.056-0.518,0.083-1.032,0.025-1.484c-0.063-0.13-0.131,0.063-0.258-0.005
					c0.003-0.193,0.261-0.188,0.263-0.318c-0.044-1.163-0.022-2.455,0.254-3.484c-0.06-0.259-0.12-0.518-0.115-0.776
					c0.009-0.517,0.146-1.031,0.091-1.549c0.065-0.063,0.067-0.192,0.071-0.386c0.006-0.388-0.114-0.905-0.043-1.292
					c0.002-0.13,0.068-0.193,0.069-0.258c0.006-0.387-0.113-0.906-0.106-1.357l0.023-1.356c0.066-0.128,0.134-0.257,0.136-0.386
					c0.072-0.451-0.048-0.97,0.024-1.42c0.003-0.194,0.132-0.192,0.197-0.255c-0.446-0.331,0.211-0.965-0.107-1.229
					c0.003-0.194,0.069-0.322,0.201-0.448c-0.063-0.13-0.06-0.324-0.188-0.392c0.272-0.77,0.159-1.74,0.306-2.707
					c0.071-0.387,0.206-0.772,0.214-1.225l0.004-0.193c0.003-0.193,0.133-0.257,0.2-0.384l0.006-0.387
					c0.005-0.258,0.009-0.517,0.078-0.773c0.067-0.192,0.07-0.322,0.073-0.516l0.021-1.227c0.071-0.322,0.271-0.643,0.276-1.029
					l-0.06-0.26c0.336-0.769,0.987-1.081,2.085-1.063c0.129,0.003,0.19,0.197,0.386,0.136c0.582-0.055,1.229-0.107,1.809-0.098
					L86.661,8.372z"/>
			</g>
			<g>
				<path fill="#231F20" d="M117.825,14.488c0.254,0.096,0.527,0.142,0.621,0.352c0.173,0.007,0.325,0.064,0.528,0.142
					c0.355,0.135,0.742,0.34,0.996,0.436c0.306,0.116,0.63,0.18,0.934,0.295c0.103,0.039,0.166,0.18,0.268,0.218
					c0.101,0.039,0.272,0.045,0.425,0.103c0.337,0.187,0.813,0.309,1.161,0.614c0.152,0.058,0.224,0.027,0.273,0.046
					c0.113,0.16,0.248,0.269,0.4,0.326l0.202,0.076c0.204,0.078,0.477,0.123,0.781,0.238l0.152,0.058
					c0.102,0.039,0.286,0.166,0.47,0.294c0.42,0.274,0.571,0.332,0.741,0.804c0.096,0.21,0.119,0.451,0.246,0.731
					c0.044,0.191,0.158,0.351,0.149,0.522l-0.179,0.629c-0.148,0.234-0.633,0.748-0.791,0.862c-0.159,0.113-0.51,0.271-0.681,0.264
					c-0.192,0.045-0.497-0.07-0.789-0.065c-0.121,0.013-0.293,0.006-0.445-0.052c-0.102-0.039-0.184-0.128-0.266-0.218
					c-0.331,0.106-0.808-0.015-1.265-0.188l-1.016-0.385c-0.407-0.154-0.984-0.314-1.543-0.526l-0.357-0.135
					c-0.133-0.108-0.234-0.147-0.508-0.192c-0.254-0.096-0.488-0.243-0.691-0.32c-0.203-0.076-0.375-0.084-0.578-0.161
					s-0.336-0.185-0.489-0.243c-0.152-0.058-0.253-0.096-0.393-0.033c0.011,0.121-0.027,0.223-0.065,0.324
					c-0.121,0.013-0.293,0.006-0.433,0.068c-0.045,0.273-0.154,0.406-0.231,0.61c-0.076,0.202-0.229,0.145-0.336,0.278
					c0.03,0.07,0.03,0.07-0.039,0.102c0.03,0.07,0.133,0.108,0.114,0.159c-0.157,0.87-0.763,1.86-0.767,2.789
					c-0.108,0.133-0.237,0.316-0.396,0.431c-0.006,0.172,0.186,0.128,0.196,0.249c-0.077,0.203-0.153,0.406-0.262,0.539
					c0.044,0.19,0.017,0.413-0.06,0.616c-0.097,0.254-0.294,0.47-0.523,0.615c-0.058,0.152-0.165,0.285-0.204,0.387
					c-0.212,0.559-0.321,1.156-0.495,1.614c-0.058,0.151-0.096,0.253-0.205,0.387c0.146,0.229,0.24,0.439,0.316,0.7
					c0.304,0.115,0.628,0.18,0.882,0.276c0.203,0.077,0.388,0.205,0.521,0.313c0.273,0.045,0.597,0.109,0.851,0.206l0.489,0.243
					c0.096,0.21,0.451,0.345,0.476,0.587l0.203,0.076c0.228,0.319,0.316,0.7,0.632,0.938c-0.058,0.152-0.025,0.223,0.088,0.381
					c-0.197,0.216-0.084,0.375-0.161,0.578l-0.038,0.103c-0.038,0.101-0.14,0.063-0.279,0.126c-0.096,0.254-0.389,0.259-0.504,0.564
					c-0.071,0.031-0.172-0.007-0.224-0.026c-0.128,0.184-0.287,0.297-0.446,0.411l-0.769-0.117c-0.152-0.058-0.344-0.013-0.565-0.04
					c-0.254-0.096-0.42-0.273-0.674-0.37l-0.526-0.142l-0.152-0.058c-0.202-0.077-0.317-0.237-0.47-0.294
					c-0.051-0.02-0.152-0.059-0.223-0.026c-0.211,0.094-0.269,0.247-0.364,0.5c-0.058,0.153-0.165,0.286-0.224,0.438
					c-0.135,0.355-0.167,0.75-0.302,1.105c-0.077,0.203-0.236,0.317-0.212,0.559c0.462,0.467,1.136,0.837,1.457,1.365
					c0.152,0.059,0.172,0.008,0.273,0.046c0.267,0.217,0.603,0.401,1.01,0.556c0.406,0.154,0.832,0.258,1.206,0.342
					c0.153,0.058,0.115,0.159,0.177,0.299c0.355,0.135,0.973,0.194,1.43,0.367c0.203,0.077,0.388,0.205,0.501,0.364
					c0.242-0.024,0.286,0.166,0.489,0.243l0.102,0.039c0.083,0.089,0.094,0.21,0.146,0.229c0.134,0.109,0.285,0.166,0.398,0.326
					c0.045,0.191,0.089,0.382,0.012,0.585c0.044,0.19,0.228,0.318,0.271,0.51c0.063,0.14-0.014,0.343-0.109,0.597
					c-0.077,0.204-0.154,0.407-0.313,0.521l-0.191,0.044c-0.159,0.114-0.548,0.373-0.841,0.379
					c-0.171-0.007-0.533,0.029-0.533,0.029l-0.254-0.096c-0.254-0.096-0.484,0.049-0.757,0.004
					c-0.152-0.058-0.236-0.147-0.337-0.186c-0.152-0.059-0.19,0.043-0.261,0.076c-0.305-0.116-0.604,0.061-0.998,0.027
					c-0.324-0.064-0.66-0.25-1.054-0.283c-0.224-0.025-0.599-0.109-0.853-0.206c-0.152-0.058-0.305-0.115-0.387-0.204
					c-0.07,0.031-0.273-0.046-0.362,0.037c-0.082-0.09-0.185-0.129-0.286-0.167c-0.202-0.077-0.426-0.103-0.628-0.18
					c-0.103-0.039-0.134-0.108-0.185-0.128c-0.152-0.058-0.172-0.007-0.324-0.064c-0.17-0.007-0.426-0.104-0.68-0.199l-0.711-0.27
					c-0.121,0.012-0.19,0.044-0.293,0.005c-0.171-0.007-0.323-0.064-0.476-0.122c-0.254-0.096-0.458-0.174-0.642-0.301l-0.312,0.057
					c-0.508-0.193-1.003-0.265-1.513-0.457c-0.152-0.059-0.303-0.115-0.488-0.243c-0.208-0.37-0.817-0.601-0.867-1.085
					c-0.234-0.146-0.239-0.438-0.475-0.585c-0.012-0.586-0.53-0.898-0.752-1.389c0.058-0.153-0.006-0.292-0.087-0.382
					c0.077-0.203,0.044-0.273,0.103-0.426c-0.145-0.229-0.222-0.49-0.297-0.751c0.007-0.172,0.077-0.203,0.097-0.255
					c-0.075-0.26-0.163-0.643-0.048-0.947l0.038-0.102c-0.163-0.643,0.336-1.499,0.172-2.143l0.039-0.101
					c0.096-0.254-0.029-0.534,0.067-0.788l0.127-0.184c-0.056-0.313-0.012-0.585,0.104-0.89c0.321-0.692,0.496-1.614,0.771-2.497
					l0.462-1.219c0.154-0.406,0.392-0.724,0.526-1.079c0.096-0.254,0.142-0.527,0.237-0.781c0.058-0.152,0.097-0.254,0.205-0.387
					c-0.013-0.121,0.12-0.013,0.14-0.063c0.148-0.699,0.323-1.62,0.632-2.434c0.076-0.203,0.185-0.336,0.313-0.52
					c0.02-0.051-0.102-0.039-0.134-0.108c0.23-0.61,0.571-1.353,0.821-2.013c0.058-0.152,0.063-0.324,0.122-0.477
					c0.058-0.152,0.147-0.234,0.287-0.299c0.02-0.05-0.152-0.058-0.043-0.19c0.409-0.774,0.768-1.567,1.057-2.329
					c0.14-0.063,0.312-0.057,0.399-0.139c0.008-0.172-0.172-0.008-0.183-0.129c0.192-0.507,0.542-0.664,0.817-1.084
					c0.119-0.012,0.229-0.146,0.382-0.088c0.356-0.329,1.023-0.25,1.381-0.58c0.172,0.007,0.495,0.072,0.769,0.117
					c0.102,0.038,0.394,0.033,0.502-0.1c0.033,0.069,0.083,0.089,0.135,0.108c0.203,0.077,0.464,0.001,0.686,0.027
					c0.172,0.007,0.324,0.064,0.477,0.122c0.203,0.077,0.438,0.225,0.572,0.333c0.323,0.064,0.666,0.078,0.972,0.193
					c0.101,0.038,0.183,0.128,0.234,0.147c0.254,0.096,0.445,0.052,0.699,0.148l0.184,0.128c0.355,0.134,0.749,0.168,1.054,0.283
					l0.152,0.058l0.337,0.186L117.825,14.488z"/>
			</g>
			<g>
				<path fill="#231F20" d="M139.636,151.546c0.028,0.053,0.109,0.074,0.109,0.074c0.147,0.26,0.13,0.648,0.34,0.837
					c-0.078,0.285,0.023,0.399,0.06,0.585c-0.089,0.326-0.067,0.726-0.267,0.978c-0.063,0.07-0.312,0.177-0.427,0.276
					c-0.114,0.101-0.271,0.189-0.444,0.186c-0.155,0.089-0.3,0.137-0.385,0.288c-0.325-0.089-0.61-0.167-0.847-0.101
					c-0.06-0.104-0.183-0.137-0.304-0.17c-0.326-0.09-0.371-0.407-0.645-0.525c0.004-0.175-0.096-0.289-0.248-0.375
					c-0.008-0.133-0.014-0.267-0.125-0.34c0.07-0.419-0.086-0.811,0.015-1.178c0.011-0.041,0.12-0.273,0.171-0.303
					c0.033-0.123,0.189-0.211,0.252-0.281c0.053-0.03-0.018-0.093,0.033-0.123c0.074-0.111,0.259-0.147,0.264-0.321
					c0.144-0.048,0.248-0.107,0.351-0.167c0.204,0.056,0.331-0.085,0.475-0.133c0.296,0.038,0.703,0.148,0.947,0.216
					C139.224,151.128,139.435,151.316,139.636,151.546z M145.082,128.577c-0.037,0.296,0.237,0.414,0.304,0.651
					c-0.074,0.11,0.025,0.226-0.078,0.285c0.248,0.374,0.036,0.666-0.108,1.195c-0.015,0.215-0.044,0.644-0.122,0.929
					c-0.045,0.164-0.12,0.273-0.182,0.345c0.055,0.278-0.105,0.54-0.141,0.837c-0.005,0.174,0.084,0.329,0.006,0.613
					c-0.07,0.419-0.245,0.896-0.367,1.344c-0.022,0.082-0.074,0.111-0.137,0.182c-0.022,0.081-0.004,0.174-0.026,0.256
					c-0.022,0.081-0.085,0.151-0.096,0.191c-0.13,0.315-0.086,0.634-0.164,0.918c-0.033,0.123-0.107,0.233-0.182,0.345
					c-0.022,0.081-0.004,0.174,0.015,0.267c-0.134,0.488-0.227,0.988-0.371,1.518c-0.133,0.488-0.308,0.966-0.533,1.473
					c0.018,0.093,0.036,0.186,0.014,0.267c-0.021,0.081-0.097,0.192-0.181,0.344l-0.067,0.245c-0.1,0.366-0.16,0.744-0.219,1.121
					l-0.167,0.61c-0.045,0.163-0.026,0.256-0.048,0.337c-0.034,0.123-0.149,0.222-0.172,0.304c-0.021,0.081,0.038,0.185,0.005,0.308
					c-0.022,0.081-0.086,0.151-0.097,0.192c0.008,0.133,0.077,0.195,0.044,0.318c-0.033,0.122-0.137,0.181-0.159,0.263
					c-0.044,0.162-0.048,0.336-0.081,0.459c-0.067,0.244-0.149,0.222-0.234,0.373c-0.085,0.152,0.101,0.115,0.067,0.237
					c-0.111,0.407-0.294,0.751-0.394,1.118c-0.056,0.203-0.082,0.459-0.056,0.685c-0.085,0.151-0.171,0.304-0.227,0.507
					c-0.066,0.244-0.092,0.5-0.057,0.685c-0.066,0.245-0.151,0.396-0.125,0.622c-0.045,0.163-0.071-0.063-0.204-0.056
					c-0.145,0.048-0.271,0.188-0.386,0.288c-0.082-0.021-0.133,0.008-0.214-0.015c-0.244-0.067-0.333-0.222-0.577-0.288
					c-0.037-0.186-0.218-0.323-0.359-0.449c0.045-0.163-0.118-0.207-0.063-0.41c-0.118-0.208-0.288-0.386-0.344-0.663
					c-0.055-0.278,0.034-0.604,0.031-0.911c0.021-0.081-0.038-0.185-0.057-0.277c0.016-0.215,0.071-0.418,0.096-0.674
					c0.071-0.419,0.039-0.777,0.235-1.336c0.022-0.082,0.125-0.141,0.159-0.263c0.033-0.123-0.004-0.308,0.03-0.43
					c0.122-0.448,0.365-0.862,0.459-1.362c0.005-0.174,0.101-0.366,0.156-0.569c0.056-0.204,0.071-0.419,0.148-0.703
					c0.078-0.285,0.126-0.622,0.215-0.948c0.045-0.162,0.171-0.304,0.215-0.466c0.022-0.081-0.025-0.226-0.003-0.308l0.056-0.203
					c0.078-0.285,0.208-0.6,0.337-0.914l0.045-0.163l0.089-0.326c0.033-0.121,0.106-0.232,0.252-0.28
					c0.022-0.082-0.112-0.074-0.079-0.196c0.201-0.251,0.156-0.57,0.305-0.792c-0.018-0.093-0.088-0.156-0.055-0.278
					c0.078-0.285,0.104-0.54,0.183-0.825c0.056-0.203,0.151-0.396,0.247-0.588c0.021-0.082,0.075-0.111,0.156-0.089
					c-0.048-0.145-0.004-0.308-0.074-0.371c0.033-0.121,0.127-0.14,0.148-0.221c0.034-0.123,0.008-0.349,0.041-0.471
					c0.044-0.163,0.16-0.263,0.182-0.344c0.096-0.192,0.081-0.459,0.179-0.651c0.226-0.508,0.396-1.292,0.675-1.828
					c0.063-0.07,0.154-0.09,0.218-0.159c0.063-0.07-0.015-0.267,0.107-0.233c-0.03-0.052-0.008-0.134,0.015-0.215l0.164-0.437
					c-0.02-0.093-0.038-0.186-0.027-0.227c0.022-0.081,0.127-0.14,0.16-0.262c0.012-0.041-0.008-0.134,0.015-0.215
					c0.034-0.123,0.149-0.222,0.183-0.344c0.129-0.315,0.148-0.704,0.473-0.615C144.769,127.966,144.697,128.384,145.082,128.577z"
					/>
			</g>
			<g>
				<g>
					<path fill="#468885" d="M92.623,55.872c2.897,8.492,29.311,12.279,30.917,10.411C125.147,64.416,89.624,47.088,92.623,55.872z"
						/>
					<path fill="#7CCDCD" d="M77.457,64.199c-2.177-2.472-6.174-6.904-7.553-8.532c-12.345-2.998,1.535-14.271,2.764-2.24
						c2.96,4.735,4.257,5.568,7.003,9.349c-0.329,0.798-0.846,1.46-1.553,1.986L77.457,64.199z"/>
					<path fill="#7CCDCD" d="M81.443,61.435c1.729-2.802,4.805-7.916,5.962-9.711c-0.728-12.682,14.098-2.687,2.947,1.991
						c-3.671,4.21-4.087,5.692-6.904,9.421c-0.858-0.081-1.644-0.383-2.351-0.905L81.443,61.435z"/>
					<path fill="#5AB1AF" d="M79.266,62.445c-0.832-3.183-2.411-8.942-2.908-11.017c-9.679-8.228,7.787-12.056,3.476-0.758
						c0.512,5.562,1.296,6.887,2.049,11.5c-0.652,0.563-1.412,0.922-2.278,1.074L79.266,62.445z"/>
					<g>
						<path fill="#468885" d="M55.675,127.257c13.177,15.125,25.436,14.277,44.611,9.941c27.806-6.29,30.492-28.899,30.04-37.899
							c-0.548-10.896-3.628-17.323-11.329-24.286c-8.574-7.749-11.727-6.74-22.28-7.66c-18.213-1.588-37.678-2.351-46.581,16.983
							C50.136,84.336,37.341,104.272,55.675,127.257z"/>
						<path fill="#231F20" d="M81.318,140.738L81.318,140.738c-10.479,0-18.326-3.876-26.241-12.961
							c-9.662-12.112-10.679-23.373-9.834-30.691c0.88-7.626,3.838-12.557,4.195-13.129c7.427-16.07,21.914-18.132,33.71-18.132
							c4.544,0,9.239,0.354,13.637,0.738c1.53,0.134,2.905,0.226,4.162,0.311c7.357,0.496,11.051,0.746,18.581,7.551
							c7.896,7.14,11.038,13.871,11.589,24.834c0.264,5.247,0.024,31.771-30.656,38.712
							C94.104,139.408,87.385,140.738,81.318,140.738z M83.148,67.409c-11.335,0-25.249,1.962-32.293,17.258
							c-0.016,0.033-0.033,0.065-0.053,0.096c-0.124,0.195-12.254,19.754,5.491,42c7.561,8.678,15.052,12.392,25.024,12.392
							c5.911,0,12.525-1.312,18.793-2.729c29.444-6.661,29.676-32.063,29.424-37.087c-0.534-10.62-3.431-16.832-11.069-23.738
							c-7.122-6.438-10.197-6.645-17.625-7.146c-1.267-0.086-2.651-0.179-4.192-0.313C92.286,67.762,87.632,67.409,83.148,67.409z"
							/>
					</g>
					<g>
						<path fill="#5AB1AF" d="M77.233,63.081c9.883-2.636,15.878-4.652,25.834-1.957c19.304,5.231,29.935,20.033,27.838,40.208
							c-1.854,17.822-20.828,28.231-37.039,32.571c-17.719,4.742-33.332-9.592-36.912-25.896
							C56.014,103.718,48.452,70.752,77.233,63.081z"/>
						<path fill="#231F20" d="M86.977,135.615c-16.09,0-27.875-14.137-30.796-27.438l-0.03-0.138
							c-2.156-9.799-1.698-17.184-0.934-21.654c2.168-12.691,9.507-20.789,21.813-24.069l1.994-0.536
							c5.644-1.521,10.101-2.724,15.085-2.724c2.927,0,5.925,0.427,9.166,1.304c19.906,5.395,30.529,20.742,28.419,41.055
							c-2.303,22.127-29.379,31.048-37.622,33.255C91.723,135.297,89.336,135.615,86.977,135.615z M94.108,60.64
							c-4.774,0-9.142,1.179-14.672,2.67l-1.999,0.537c-25.055,6.678-22.151,32.892-19.74,43.852l0.03,0.139
							c2.788,12.698,13.987,26.194,29.249,26.194c2.222,0,4.471-0.301,6.685-0.894c31.63-8.467,35.9-26.548,36.456-31.888
							c2.024-19.473-8.166-34.188-27.257-39.361C99.757,61.049,96.894,60.64,94.108,60.64z"/>
					</g>
					<path fill="#FFFFFF" d="M71.55,71.973c15.027-9.754,32.125-8.636,43,4.419c10.33,12.396,13.13,27.811-0.055,39.709
						c-10.267,9.266-37.034,14.848-45.813,1.1C68.683,117.2,50.088,85.903,71.55,71.973z"/>
					<g>
						<path fill="#5AB1AF" d="M43.061,86.677c-6.186-7.255-8.926-17.631-3.643-25.91c3.957-6.2,17.921-13.251,29.562-3.648
							C75.239,67.815,49.432,83.48,43.061,86.677z"/>
						<path fill="#231F20" d="M43.061,87.469c-0.227,0-0.448-0.097-0.603-0.278c-8.799-10.319-7.496-20.913-3.708-26.85
							c2.7-4.231,9.763-8.729,17.531-8.729c4.823,0,9.265,1.646,13.202,4.895c0.072,0.06,0.133,0.131,0.18,0.211
							c1.167,1.995,1.39,4.255,0.659,6.718C67.301,73.628,48.33,84.919,43.416,87.385C43.303,87.441,43.182,87.469,43.061,87.469z
							 M56.281,53.196c-7.205,0-13.722,4.12-16.195,7.996c-3.439,5.391-4.621,14.985,3.176,24.49
							c5.512-2.885,22.783-13.392,25.542-22.697c0.594-2.004,0.45-3.755-0.439-5.347C64.746,54.69,60.682,53.196,56.281,53.196z"/>
					</g>
					<g>
						<path fill="#5AB1AF" d="M123.54,66.283c17.2-17.209-26.537-40.886-30.917-10.411C104.427,53.612,123.54,66.283,123.54,66.283z
							"/>
						<path fill="#231F20" d="M123.54,67.075c-0.151,0-0.304-0.043-0.438-0.132c-0.159-0.105-16.052-10.549-27.448-10.549
							c-1.025,0-1.996,0.086-2.882,0.256c-0.254,0.044-0.512-0.028-0.696-0.205c-0.186-0.177-0.273-0.433-0.237-0.686
							c1.404-9.772,7.069-15.377,15.542-15.377c8.29,0,17.057,5.485,19.958,12.488c2.027,4.893,0.877,9.854-3.238,13.972
							C123.947,66.996,123.744,67.075,123.54,67.075z M95.654,54.81c10.781,0,24.78,8.547,27.769,10.454
							c4.18-4.499,3.66-8.87,2.452-11.786c-2.63-6.347-10.926-11.51-18.494-11.51c-4.334,0-11.764,1.713-13.802,12.958
							C94.243,54.849,94.938,54.81,95.654,54.81z"/>
					</g>
					<g>
						<path fill="#5AB1AF" d="M41.588,58.771c6.014-7.914,28.746-27.226,74.921-16.61c-2.447-5.134-14.968-7.408-19.47-7.958
							c-8.562-1.046-45.573-3.063-58.646,25.928C38.037,60.921,41.063,59.461,41.588,58.771z"/>
						<path fill="#231F20" d="M38.546,61.151L38.546,61.151c-0.505,0-0.749-0.295-0.831-0.421c-0.082-0.127-0.249-0.47-0.043-0.926
							C48.22,36.412,73.832,32.92,88.16,32.92c4.267,0,7.454,0.312,8.975,0.497c1.733,0.212,16.903,2.229,20.013,8.249
							c0.108,0.136,0.174,0.308,0.174,0.495c0,0.44-0.364,0.812-0.802,0.792c-0.063-0.003-0.125-0.006-0.188-0.02
							c-8.923-2.052-17.514-3.092-25.533-3.092c-32.2,0-46.116,16.168-48.579,19.409C41.649,59.997,39.419,61.151,38.546,61.151z
							 M88.16,34.504c-13.655,0-37.828,3.234-48.389,24.565c0.53-0.276,1.047-0.6,1.187-0.778
							c2.541-3.345,16.892-20.033,49.84-20.033c7.512,0,15.511,0.897,23.806,2.669c-3.554-3.379-12.406-5.296-17.66-5.938
							C95.458,34.808,92.343,34.504,88.16,34.504z"/>
					</g>
					<path fill="#231F20" d="M80.613,61.589c1.152-3.082,3.173-8.7,3.959-10.684c-3.179-12.299,13.309-5.379,3.279,1.38
						c-2.781,4.844-2.166,4.795-4.204,8.999c-0.856,0.087-2.422,1.527-3.22,1.153L80.613,61.589z"/>
					<g>
						<path fill="#5AB1AF" d="M80.836,146.754c2.353,0.075,8.182-8.191,7.543-11.683c-0.79-4.314-5.329-4.604-8.234-0.504
							C80.145,134.567,78.175,147.224,80.836,146.754z"/>
						<path fill="#231F20" d="M80.695,147.559C80.695,147.559,80.695,147.559,80.695,147.559c-0.449,0-0.852-0.192-1.163-0.557
							c-1.711-1.998-0.442-10.811-0.171-12.557c0.02-0.121,0.066-0.236,0.137-0.336c1.461-2.062,3.404-3.244,5.33-3.244
							c2.212,0,3.871,1.557,4.33,4.063c0.511,2.793-2.242,7.332-4.217,9.701c-1.104,1.323-2.698,2.898-4.05,2.917
							C80.824,147.555,80.76,147.559,80.695,147.559z M80.898,134.877c-0.813,5.328-0.89,10.437-0.168,11.095
							c0.044-0.004,0.106-0.002,0.131-0.01l0,0c0.318,0,1.315-0.49,2.863-2.347c2.447-2.936,4.186-6.704,3.875-8.401
							c-0.316-1.731-1.354-2.765-2.771-2.765C83.486,132.449,82.027,133.354,80.898,134.877z"/>
					</g>
					<g>
						<path fill="#5AB1AF" d="M127.303,111.392c4.566,4.225,5.807,13.697,6.574,18.053c-1.168,1.318-1.282,0.056-2.568-0.096
							C131.309,129.349,115.339,118.854,127.303,111.392z"/>
						<path fill="#231F20" d="M132.972,130.831c-0.447,0-0.779-0.215-1.047-0.388c-0.228-0.147-0.424-0.274-0.709-0.308
							c-0.122-0.015-0.239-0.058-0.342-0.125c-0.363-0.238-8.884-5.911-8.809-12.199c0.032-2.732,1.653-5.118,4.818-7.092
							c0.302-0.191,0.694-0.153,0.957,0.091c4.377,4.05,5.775,12.338,6.61,17.29l0.206,1.206c0.042,0.238-0.027,0.482-0.188,0.663
							C134.114,130.371,133.623,130.831,132.972,130.831z M131.607,128.594c0.54,0.106,0.918,0.351,1.179,0.52
							c0.056,0.036,0.126,0.082,0.178,0.111c0.018-0.012,0.038-0.027,0.063-0.049l-0.139-0.812
							c-0.721-4.276-2.04-12.097-5.688-15.96c-2.332,1.59-3.526,3.413-3.551,5.424C123.588,122.86,130.541,127.857,131.607,128.594z
							"/>
					</g>
					<g>
						<path fill="#5AB1AF" d="M36.438,62.528c1.54,3.224,11.544-5.143,8.941-7.668C41.126,50.733,32.803,54.913,36.438,62.528z"/>
						<path fill="#231F20" d="M37.717,64.049L37.717,64.049c-0.922,0-1.63-0.419-1.993-1.179c-1.296-2.714-1.297-5.338-0.004-7.388
							c1.181-1.873,3.344-3.036,5.644-3.036c1.719,0,3.342,0.655,4.568,1.846c0.427,0.414,1.043,1.358,0.369,3.021
							C45.172,60.095,40.543,64.049,37.717,64.049z M41.363,54.03c-1.761,0-3.41,0.88-4.304,2.297
							c-0.992,1.573-0.959,3.654,0.094,5.86c0.05,0.104,0.133,0.277,0.563,0.277c2.013,0,6.136-3.33,7.116-5.748
							c0.247-0.611,0.246-1.045-0.005-1.288C43.898,54.527,42.668,54.03,41.363,54.03z"/>
					</g>
					<g>
						<path fill="#5AB1AF" d="M119.769,43.523c-0.74,2.073-7.393-0.403-6.797-2.559C114.062,37.027,121.595,38.412,119.769,43.523z"
							/>
						<path fill="#231F20" d="M118.174,45.096c-1.72,0-4.408-1.015-5.517-2.472c-0.586-0.77-0.567-1.441-0.449-1.87
							c0.48-1.734,2.08-2.854,4.076-2.854c1.576,0,3.057,0.713,3.865,1.859c0.547,0.775,1.054,2.104,0.365,4.031
							C120.341,44.277,119.805,45.096,118.174,45.096z M116.284,39.483c-1.006,0-2.204,0.445-2.549,1.692
							c-0.042,0.151,0.076,0.349,0.183,0.488c0.709,0.933,2.817,1.848,4.256,1.848c0.453,0,0.794-0.103,0.849-0.255
							c0.364-1.019,0.306-1.912-0.168-2.585C118.338,39.938,117.354,39.483,116.284,39.483z"/>
					</g>
					<path fill="#C5E7E9" d="M72.922,74.63c0,0,36.876-21.467,46.521,19.879c3.924,19.77-5.029,2.652-6.327-2.145
						c-1.297-4.799-9.707-22.531-36.632-16.176C58.539,83.975,72.922,74.63,72.922,74.63z"/>
					<path fill="#231F20" d="M84.831,76.061c-1.845-4.956-2.89-8.951-0.938-7.098c1.952,1.854,2.977,6.335,2.909,7.956
						C86.733,78.539,84.831,76.061,84.831,76.061z"/>
					<path fill="#231F20" d="M66.166,106.763c4.498-2.115,8.271-3.461,7.013-1.639c-1.26,1.82-5.54,3.206-7.235,3.35
						S66.166,106.763,66.166,106.763z"/>
					<path fill="#231F20" d="M104.036,112.271c1.859,4.609,2.99,8.452,1.241,7.094c-1.746-1.362-2.89-5.713-2.939-7.414
						C102.29,110.252,104.036,112.271,104.036,112.271z"/>
					<g>
						<g>
							<path fill="#231F20" d="M112.801,109.095c0.239,1.117-12.769-6.322-18.515-11.471c0.622-0.922-0.217-3.29,0.612-4.066
								C94.898,93.558,108.285,102.16,112.801,109.095z"/>
							<path fill="#231F20" d="M82.787,111.942c1.722-0.438,8.318-6.84,13.92-14.949c-0.877-2.958-0.721-3.553-4.37-4.07
								C92.337,92.923,82.817,108.19,82.787,111.942z"/>
						</g>
						<g>
							<path fill="#5AB1AF" d="M96.679,94.164c0.129,2.199-6.15,6.271-7.257,0.311C88.298,88.425,96.354,88.747,96.679,94.164z"/>
							<path fill="#231F20" d="M92.34,98.369c-0.902,0-3.068-0.365-3.697-3.75c-0.385-2.074,0.222-3.337,0.798-4.03
								c0.72-0.865,1.836-1.361,3.063-1.361c2.265,0,4.774,1.713,4.966,4.889c0.042,0.729-0.336,1.556-1.065,2.33
								C95.303,97.614,93.707,98.369,92.34,98.369z M92.504,90.812c-0.766,0-1.421,0.28-1.845,0.79
								c-0.517,0.621-0.675,1.564-0.458,2.729c0.302,1.629,1.021,2.455,2.139,2.455c1.082,0,2.242-0.717,2.912-1.427
								c0.488-0.518,0.648-0.942,0.636-1.148C95.754,91.979,94.084,90.812,92.504,90.812z"/>
						</g>
					</g>
					<g>
						<path fill="#5AB1AF" d="M97.471,69.497c0,0-1.757,2.333,0.186,2.512C99.597,72.189,99.188,69.281,97.471,69.497z"/>
						<path fill="#5AB1AF" d="M102.637,73.114c0,0-1.757,2.333,0.187,2.511C104.763,75.808,104.355,72.898,102.637,73.114z"/>
						<path fill="#5AB1AF" d="M108.15,76.802c0,0-1.757,2.334,0.187,2.514C110.276,79.494,109.869,76.587,108.15,76.802z"/>
						<path fill="#5AB1AF" d="M90.528,69.036c0,0-1.756,2.333,0.187,2.512C92.654,71.729,92.247,68.82,90.528,69.036z"/>
					</g>
					<g>
						<path fill="#5AB1AF" d="M88.287,120.89c0,0,1.742-3.349-0.772-3.165C85.004,117.91,86.144,121.529,88.287,120.89z"/>
						<path fill="#5AB1AF" d="M80.931,117.377c0,0,1.744-3.348-0.772-3.163C77.646,114.397,78.785,118.018,80.931,117.377z"/>
						<path fill="#5AB1AF" d="M73.116,113.849c0,0,1.743-3.348-0.772-3.161C69.833,110.868,70.973,114.489,73.116,113.849z"/>
						<path fill="#5AB1AF" d="M97.236,119.999c0,0,1.739-3.35-0.774-3.165C93.952,117.021,95.09,120.64,97.236,119.999z"/>
					</g>
					<g>
						<path fill="#5AB1AF" d="M117.719,96.42c0,0-3.365-1.045-2.778,1.236C115.527,99.936,118.665,98.286,117.719,96.42z"/>
						<path fill="#5AB1AF" d="M115.714,103.767c0,0-3.368-1.045-2.78,1.238C113.521,107.284,116.659,105.633,115.714,103.767z"/>
						<path fill="#5AB1AF" d="M113.77,111.539c0,0-3.369-1.047-2.779,1.235C111.576,115.054,114.714,113.403,113.77,111.539z"/>
						<path fill="#5AB1AF" d="M115.413,88.342c0,0-3.367-1.046-2.78,1.236C113.221,91.856,116.358,90.206,115.413,88.342z"/>
					</g>
					<g>
						<path fill="#5AB1AF" d="M65.362,90.721c0,0,2.896,2.333,3.205-0.135C68.877,88.126,65.159,88.524,65.362,90.721z"/>
						<path fill="#5AB1AF" d="M68.17,82.314c0,0,2.897,2.333,3.204-0.132C71.686,79.721,67.967,80.12,68.17,82.314z"/>
						<path fill="#5AB1AF" d="M75.104,77.431c0,0,2.896,2.333,3.208-0.132C78.621,74.837,74.904,75.235,75.104,77.431z"/>
						<path fill="#5AB1AF" d="M64.487,99.536c0,0,2.895,2.332,3.204-0.132C68.002,96.941,64.284,97.341,64.487,99.536z"/>
					</g>
					<path fill="#231F20" d="M108.775,83.59c4.497-2.115,8.27-3.46,7.014-1.64c-1.262,1.82-5.54,3.207-7.236,3.353
						C106.857,85.443,108.775,83.59,108.775,83.59z"/>
					<polygon fill="#231F20" points="102.193,60.211 103.743,56.979 114.254,61.062 112.188,64.634 					"/>
					<path fill="#7CCDCD" d="M51.282,90.35c0,0-11.854,21.061,15.825,41.423c6.57,1.813-1.59-3.841-7.379-11.117
						c-6.1-8.338-7.348-17.216-7.501-20.408c-0.304-6.294,1.722-10.068,1.642-11.488C53.671,85.313,51.282,90.35,51.282,90.35z"/>
					<path fill="#7CCDCD" d="M111.895,43.99c0,0,17.767,5.941,11.843,18.605c-3.715,1.239-9.311-4.236-9.311-4.236L111.895,43.99z"
						/>
					<path fill="#7CCDCD" d="M44.575,61.432c0,0,4.137-3.942,3.779-4.764c-0.358-0.823,18.358,4.254,18.104,8.363
						c-0.253,4.11-9.826,9.981-9.826,9.981L44.575,61.432z"/>
					<path fill="#7CCDCD" d="M37.802,57.057c0,0,3.097-3.281,4.967-0.878s-0.362,1.688-2.135,1.85
						C38.864,58.189,37.078,57.699,37.802,57.057z"/>
					<path fill="#7CCDCD" d="M116.571,39.883c0,0,2.074,1.075,1.836,1.745c-0.238,0.668-1.959,1.723-1.897-0.011
						C116.571,39.883,116.571,39.883,116.571,39.883z"/>
					<path fill="#5AB1AF" d="M88.113,45.393c1.036,0.081,2.793,1.59,1.142,3.999c-1.651,2.407-1.672,0.208-1.331-0.365
						c0.338-0.576,1.12-1.821,0.459-2.104C87.722,46.637,86.608,45.274,88.113,45.393z"/>
					<path fill="#7CCDCD" d="M124.9,115.723c0,0,0.236-1.517,1.876-0.921c1.64,0.597,6.034,12.43,4.549,11.384
						C129.84,125.138,124.946,118.117,124.9,115.723z"/>
					<path fill="#7CCDCD" d="M82.927,134.017c0,0,3.491-0.863,3.096,1.377s-3.133,8.051-3.709,8.279s0.447-7.231,0.94-7.79
						C83.751,135.321,82.927,134.017,82.927,134.017z"/>
				</g>
				<g>
					<path fill="#FAAF40" d="M17.715,60.179c-1.557,0.766-1.626,4-1.597,5.147c0.063,2.649,0.459,5.57,3.51,9.815
						c0.875-0.571-0.769-12.912,0.26-14.729C19.329,60.011,18.206,59.937,17.715,60.179z"/>
					<path fill="#F6921E" d="M26.718,59.454c-3.385,0.777-3.533,7.23-3.478,9.433c0.115,4.74,0.824,9.974,6.286,17.569
						c-3.187-14.33-1.376-23.113,0.465-26.365C28.989,59.37,27.495,59.275,26.718,59.454z"/>
				</g>
				<g>
					<path fill="#FAAF40" d="M30.837,127.946c2.667,3.265,5.957,6.508,13.348,8.454c0.363-1.696-15.543-12.399-15.663-25.387
						C23.652,115.828,29.679,126.529,30.837,127.946z"/>
					<path fill="#F6921E" d="M58.299,136.8c-21.629-11.444-20.909-31.536-21.438-35.578C29.503,120.433,45.124,135.616,58.299,136.8
						z"/>
				</g>
				<g>
					<path fill="#FAAF40" d="M147.939,46.548c1.64,1.325,1.374,5.153,1.221,6.498c-0.351,3.105-1.099,6.443-4.919,10.62
						c-0.904-0.911,2.215-15.011,1.271-17.43C146.172,45.913,147.423,46.133,147.939,46.548z"/>
					<path fill="#F6921E" d="M138.066,43.259c3.658,1.83,3.139,9.478,2.847,12.058c-0.631,5.555-1.968,11.53-8.807,19.005
						c5.037-16.027,3.964-26.867,2.275-31.197C135.563,42.546,137.227,42.839,138.066,43.259z"/>
				</g>
			</g>
			<g>
				<path fill="#231F20" d="M99.815,123.336c0.426,0.201,0.934,0.287,1.136,0.647c0.128,0.021,0.255,0.043,0.371,0.128
					c0.234,0.171,0.319,0.446,0.541,0.68c-0.085,0.51-0.245,1.072-0.499,1.423c0.063,0.403,0.445,0.467,0.393,0.785
					c-0.054,0.319-0.342,0.467-0.521,0.765c0.095,0.212,0.201,0.361,0.021,0.658c0.042,0.138,0.159,0.223,0.287,0.244l-0.021,0.128
					c-0.042,0.254,0.191,0.425,0.223,0.626c0.031,0.202,0.063,0.403,0.021,0.658c-0.086,0.51-0.372,1.051-0.489,1.358
					c0.054,0.074,0.096,0.213,0.074,0.34c-0.021,0.128-0.116,0.308-0.148,0.499l-0.032,0.191c-0.021,0.127,0.073,0.339,0.116,0.478
					l-0.032,0.191c-0.043,0.254-0.148,0.498-0.191,0.753c-0.032,0.191-0.001,0.393,0.041,0.531c-0.021,0.127-0.105,0.243-0.18,0.297
					c-0.032,0.583,0.074,1.125-0.022,1.699l-0.042,0.254c-0.054,0.318-0.362,0.595-0.404,0.849c0.031,0.202,0.147,0.287,0.254,0.436
					c0.011,0.329,0.043,0.531,0,0.786c0.223,0.233,0.35,0.647,0.35,1.041c0.032,0.201-0.224,0.159-0.256,0.35
					c-0.021,0.521-0.171,1.019-0.031,1.369c0.042,0.139,0.021,0.266-0.012,0.457l-0.074,0.446c-0.053,0.318-0.106,0.636-0.097,0.966
					c-0.042,0.254,0.105,0.541,0.052,0.859c0.043,0.138,0.021,0.266,0.011,0.329c-0.106,0.637,0.031,1.38,0.042,2.103
					c-0.064,0.382-0.191,0.753-0.192,1.146c0.073,0.34,0.328,0.775,0.466,1.126l0.371,0.521c0.33,0.383,0.552,0.616,1.253,0.733
					c0.903,0.086,1.39-0.095,1.624-1.495l0.054-0.319c0.075-0.053,0.097-0.18,0.171-0.233c0.116-0.308,0.287-0.541,0.383-0.722
					l0.042-0.255c0.043-0.255,0.022-0.52,0.128-0.764c0.032-0.191,0.117-0.309,0.277-0.479c-0.053-0.073-0.17-0.158-0.149-0.286
					c0.342-1.252,0.798-2.42,0.873-3.651c0.043-0.255,0.012-0.456,0.054-0.711c0.021-0.127,0.106-0.244,0.128-0.372
					c0.032-0.19,0-0.392,0.032-0.583c0.075-0.446,0.276-0.871,0.425-1.369c0.032-0.191,0.001-0.394,0.022-0.521
					c0.021-0.128,0.105-0.244,0.19-0.361c0.021-0.127-0.095-0.212-0.063-0.403c0.17-0.232,0.276-0.478,0.318-0.732
					c0.097-0.573,0.002-1.178,0.108-1.814l0.021-0.128c0.021-0.127-0.021-0.266,0-0.393c0.022-0.521,0.192-1.146,0.299-1.783
					l0.182-1.083c0.128-0.764,0.182-1.475,0.362-2.165c0.116-0.308,0.297-0.604,0.35-0.924l0.075-0.446
					c0.085-0.51,0.213-0.881,0.298-1.391l0.063-0.382c0.149-0.105,0.362-0.201,0.638-0.286c0.214-0.095,0.436-0.254,0.637-0.286
					c0.277-0.084,0.67-0.084,0.999-0.095c0.266-0.021,0.605-0.095,0.808-0.127c0.19,0.032,0.424,0.202,0.615,0.234
					c0.255,0.043,0.53-0.042,0.754,0.191c0.328-0.011,0.658-0.021,0.976,0.032l0.255,0.043c0.7,0.117,1.189,0.723,1.879,0.903
					c0.148,0.287,0.286,0.637,0.582,0.818c-0.042,0.254,0.192,0.425,0.16,0.615c0.043,0.139,0.021,0.266,0,0.394
					c-0.054,0.318-0.17,0.626-0.234,1.008c-0.021,0.128-0.116,0.308-0.127,0.371c-0.021,0.128,0.084,0.276,0.063,0.404
					c-0.063,0.382-0.255,0.743-0.318,1.125c-0.032,0.19-0.064,0.382,0.031,0.595c-0.106,0.243-0.299,0.604-0.352,0.923
					c-0.043,0.255-0.021,0.521,0.074,0.732c-0.096,0.181-0.064,0.383-0.17,0.626c-0.096,0.181-0.288,0.148-0.353,0.531
					c-0.042,0.255,0.032,0.595,0.106,0.935l-0.074,0.445c-0.053,0.318-0.159,0.563-0.447,0.711c-0.063,0.382,0.01,0.722-0.287,0.934
					c-0.031,0.191,0.17,0.159,0.138,0.351c-0.085,0.117-0.106,0.245-0.117,0.309c-0.032,0.19,0,0.393-0.032,0.583
					c0.096,0.213,0.129,0.414,0.16,0.616l-0.139,0.828c-0.043,0.255-0.085,0.51,0.01,0.723c-0.032,0.189-0.223,0.158-0.255,0.35
					c0.011,0.329,0.2,0.754,0.147,1.072c-0.011,0.063-0.096,0.18-0.181,0.297c0.095,0.212-0.011,0.456-0.054,0.711
					c0.042,0.139,0.148,0.287,0.117,0.479l-0.032,0.19c-0.032,0.191-0.063,0.383-0.16,0.563c-0.021,0.127-0.096,0.181-0.181,0.297
					c-0.096,0.181-0.138,0.436-0.17,0.627c-0.182,1.083-0.076,2.41-0.311,3.418c-0.021,0.127-0.128,0.371-0.16,0.563
					c-0.201,0.425-0.328,0.796-0.456,1.168c-0.244,0.679-0.404,1.241-0.798,1.634c-0.158,0.17-0.243,0.287-0.393,0.393
					c-0.16,0.17-0.256,0.35-0.469,0.445c-0.021,0.128-0.105,0.244-0.063,0.383c-0.275,0.084-0.392,0.393-0.658,0.413
					c-0.096,0.181-0.244,0.286-0.34,0.467c-1.126,0.467-2.188,0.944-3.324,1.474c-0.138,0.043-0.127-0.021-0.318-0.053
					c-0.148,0.105-0.36,0.2-0.456,0.381c-0.318-0.053-0.68,0.148-1.072,0.148c-0.404,0.063-0.765-0.128-1.008,0.158
					c-0.468,0.053-0.776-0.064-1.126,0.074c-0.17-0.16-0.329,0.01-0.51-0.085c-0.213,0.095-0.595,0.03-1.051,0.021
					c-0.383-0.064-0.828-0.139-1.2-0.268c-0.689-0.18-1.347-0.553-1.975-0.723c-0.127-0.021-0.18-0.095-0.296-0.181
					c-0.903-0.085-1.752-0.489-2.166-1.148c-0.51-0.085-0.699-0.51-1.081-0.573l-0.267,0.021c-0.274-0.308-0.552-0.616-0.986-0.754
					c-0.372-0.521-1.198-0.659-1.411-1.35c-0.371-0.128-0.732-0.318-0.796-0.723c-0.604-0.297-0.752-0.977-1.135-1.434
					c0.043-0.255-0.138-0.351,0.022-0.52c-0.117-0.085-0.202,0.031-0.373-0.128c-0.115-0.478-0.541-1.072-0.562-1.731
					c-0.031-0.202,0.001-0.392-0.03-0.594c0.011-0.457-0.095-0.999-0.009-1.508c0.031-0.191,0.053-0.318,0.148-0.499
					c-0.096-0.213-0.032-0.594,0.139-0.828c-0.202-0.754,0.063-1.56,0.064-2.346c0.011-0.457-0.105-0.935-0.042-1.316
					c0.043-0.255,0.012-0.457,0.054-0.711c0.054-0.318,0.181-0.69,0.299-0.998c-0.054-0.074-0.022-0.266-0.139-0.351l0.054-0.318
					c0.106-0.637,0.074-1.231,0.182-1.868c0.031-0.191,0.191-0.361,0.213-0.488c0.053-0.318,0.054-0.712,0.106-1.03
					c0.054-0.318,0.233-0.615,0.298-0.997c0.074-0.445,0.086-0.902,0.171-1.412c0.021-0.128,0.054-0.318,0.021-0.521
					c0.085-0.116,0.159-0.169,0.309-0.275c-0.043-0.138-0.17-0.159-0.138-0.351c0.095-0.181,0.127-0.371,0.17-0.626
					c0.096-0.573,0.139-1.221,0.267-1.593c-0.043-0.138-0.021-0.265,0-0.393c0.054-0.318,0.181-0.689,0.319-1.125l0.17-1.019
					c0.106-0.637,0.213-1.273,0.49-1.752c-0.042-0.138-0.084-0.275-0.074-0.34c0.043-0.254,0.329-0.403,0.563-0.626
					c0.148-0.105,0.244-0.286,0.318-0.339c0.308-0.276,1.125-0.467,1.678-0.636l0.563-0.233c0.403-0.063,0.924-0.042,1.434,0.043
					s1.008,0.234,1.391,0.299c0.254,0.042,0.584,0.032,0.774,0.063C99.528,123.091,99.636,123.24,99.815,123.336z"/>
			</g>
		</g>
	</g>
</g>
</svg>
