<?xml version="1.0" encoding="utf-8"?>
<!-- Generator: Adobe Illustrator 16.0.0, SVG Export Plug-In . SVG Version: 6.00 Build 0)  -->
<!DOCTYPE svg PUBLIC "-//W3C//DTD SVG 1.1//EN" "http://www.w3.org/Graphics/SVG/1.1/DTD/svg11.dtd">
<svg version="1.1" id="Layer_1" xmlns="http://www.w3.org/2000/svg" xmlns:xlink="http://www.w3.org/1999/xlink" x="0px" y="0px"
	 width="120.508px" height="58.273px" viewBox="0 0 120.508 58.273" enable-background="new 0 0 120.508 58.273"
	 xml:space="preserve">
<g>
	<path fill="#FFFFFF" d="M0.717,33.121c6.002,12.031,21.188,4.751,20.859,7.647c-2.637,6.405-3.437,18.11,5.738,17.48
		c7.099-0.486,7.96-5.964,11.325-9.007c1.904,2.79,3.521-0.229,5.439,0.872c2.099,1.2,0.215,3.317,1.317,5.016
		c2.469,3.796,9.569,3.553,12.71,1.593c3.076-1.919,7.188-6.674,5.683-10.62c-0.705-1.848-3.695-2.904-3.909-4.55
		c-0.191-1.455,2.385-4.588,3.159-5.727c4.196-6.168,6.092-19.455-3.054-23.16c-4.184-1.692-6.483,0.813-9.887-2.547
		c-1.32-1.305-2.342-3.225-4.395-3.92c-2.769-0.938-4.508,1.562-7.166,1.553c-7.541-0.022-14.792-7.314-22.229-7.74
		C4.352-0.673-2.281,27.113,0.717,33.121z"/>
	<g>
		<g>
			<path fill="#FFFFFF" d="M82.042,43.756c-0.172,0-0.345-0.008-0.517-0.024c-0.001,0-0.002,0-0.003,0
				c-0.238,0-0.479-0.017-0.721-0.051c-0.141,0.012-0.282,0.019-0.424,0.019c-1.041,0-2.02-0.306-2.84-0.851
				c-0.324-0.176-0.633-0.388-0.916-0.633c-0.351-0.255-0.666-0.555-0.939-0.891c-0.018-0.02-0.034-0.037-0.051-0.057
				c-0.508,0.492-1.111,0.912-1.797,1.242c-0.623,0.3-1.301,0.47-1.992,0.499c-0.051,0.002-0.516,0.018-0.571,0.018
				c-0.071,0-0.218-0.002-0.438-0.015c-0.426,0.114-0.865,0.171-1.306,0.171c-0.164,0-0.327-0.008-0.491-0.023l-0.973-0.096
				c-0.863-0.084-1.677-0.387-2.372-0.861c-0.207-0.124-0.407-0.263-0.599-0.414c-0.268-0.18-0.518-0.375-0.748-0.589
				c-0.344-0.317-0.641-0.681-0.883-1.078c-0.164-0.21-0.313-0.435-0.441-0.667c-0.184-0.333-0.334-0.689-0.456-1.082
				c-0.177-0.405-0.299-0.833-0.364-1.271c-0.154-0.461-0.244-0.949-0.262-1.45l-0.021-0.179c-0.021-0.236-0.037-0.432-0.049-0.59
				c-0.064-0.289-0.107-0.586-0.125-0.89c-0.07-0.305-0.113-0.617-0.125-0.937c-0.015-0.328-0.016-0.631-0.004-0.916
				c-0.029-0.232-0.051-0.467-0.061-0.702c-0.01-0.252-0.012-0.494-0.004-0.727c-0.045-0.328-0.059-0.661-0.039-0.996
				c-0.023-0.198-0.038-0.392-0.047-0.584c0,0-0.006-0.139-0.006-0.171c-0.043-0.354-0.052-0.708-0.024-1.056
				c-0.007-0.054-0.017-0.109-0.022-0.169c-0.168-0.51-0.262-1.03-0.279-1.563c-0.008-0.166-0.006-0.334,0.004-0.503
				c-0.023-0.199-0.038-0.387-0.045-0.567c0,0-0.043-1.056-0.047-1.108c-0.037-0.224-0.061-0.449-0.066-0.676
				c-0.003-0.061-0.004-0.121-0.003-0.182c-0.005-0.06-0.009-0.12-0.011-0.18c-0.019-0.429,0.002-0.875,0.061-1.328
				c0.027-0.216,0.063-0.46,0.105-0.731c0.016-0.097,0.029-0.186,0.043-0.268c0.002-0.034,0.004-0.07,0.007-0.106
				c0.019-0.377,0.067-0.746,0.151-1.101c0.021-0.121,0.047-0.242,0.072-0.366c0.003-0.076,0.01-0.151,0.016-0.228
				c-0.002-0.035-0.002-0.07-0.004-0.105c-0.024-0.756,0.119-1.502,0.416-2.185c0.066-0.258,0.156-0.532,0.278-0.813
				c0.104-0.24,0.228-0.471,0.367-0.69c0.282-0.758,0.679-1.307,1.015-1.677c0.014-0.016,0.032-0.034,0.055-0.059
				c0.354-0.481,0.795-0.899,1.303-1.232c1.095-0.717,2.386-1.081,4.064-1.146c0.135-0.005,0.258-0.007,0.377-0.007
				c1.135,0,2.176,0.209,3.094,0.622c0.662,0.298,1.25,0.731,1.725,1.271c0.279,0.245,0.53,0.506,0.752,0.782
				c0.064,0.071,0.131,0.146,0.193,0.223l0.009-0.001c0.446-0.15,0.879-0.249,1.304-0.298l0.436-0.069
				c0.269-0.062,0.619-0.122,1.037-0.137c0.063-0.002,0.123-0.003,0.183-0.003c0.062,0,0.133,0.001,0.216,0.004
				c0.203-0.023,0.405-0.037,0.607-0.037c0.338,0,0.673,0.034,1.001,0.101c0.579,0.012,1.138,0.104,1.663,0.276
				c0.443,0.117,0.869,0.293,1.266,0.524c0.275,0.141,0.536,0.301,0.78,0.479c0.344,0.197,0.659,0.433,0.942,0.698
				c0.096,0.048,0.187,0.096,0.271,0.141c0.791,0.421,1.433,1.028,1.89,1.744c0.092,0.104,0.438,0.52,0.487,0.577
				c0.66,0.687,1.11,1.54,1.308,2.464c0.088,0.26,0.154,0.526,0.199,0.8c0.003,0.008,0.014,0.033,0.016,0.039
				c0.258,0.46,0.44,0.957,0.545,1.47c0.088,0.286,0.15,0.575,0.189,0.864c0.225,0.593,0.35,1.19,0.375,1.804
				c0,0.003,0,0.007,0,0.01c0.1,0.365,0.159,0.74,0.176,1.119c0.061,0.26,0.098,0.521,0.116,0.788
				c0.001,0.021,0.003,0.042,0.004,0.063c0.136,0.435,0.214,0.886,0.229,1.343c0.072,0.315,0.113,0.64,0.125,0.964
				c0.01,0.282-0.002,0.561-0.036,0.836c0.139,0.467,0.21,0.954,0.21,1.446c0.083,0.476,0.097,0.957,0.044,1.432
				c-0.004,0.098-0.011,0.194-0.019,0.29c0.014,0.639-0.08,1.279-0.278,1.919c0.026,1.245-0.404,2.418-1.159,3.333
				c-0.107,0.238-0.234,0.467-0.379,0.686c-0.243,0.482-0.566,0.932-0.969,1.324c-0.256,0.354-0.555,0.67-0.889,0.943
				c-0.23,0.212-0.484,0.403-0.756,0.571c-0.434,0.321-0.916,0.571-1.432,0.741c-0.105,0.051-0.215,0.1-0.325,0.143
				c-0.66,0.325-1.394,0.514-2.16,0.548C82.204,43.754,82.116,43.756,82.042,43.756z"/>
			<path fill="#FFFFFF" d="M95.934,42.067c-0.292,0-0.559-0.012-0.811-0.038c-0.031-0.002-0.063-0.005-0.097-0.008
				c-0.05,0.003-0.274,0.011-0.33,0.011c-0.614,0-1.223-0.104-1.819-0.313c-0.59-0.1-1.17-0.292-1.724-0.571
				c-0.606-0.183-1.178-0.479-1.682-0.876c-0.519-0.205-1.037-0.479-1.562-0.822c-0.246-0.149-0.484-0.321-0.72-0.517
				c-0.173-0.123-0.338-0.256-0.494-0.399c-0.091-0.084-0.184-0.172-0.274-0.262c-0.32-0.232-0.608-0.5-0.861-0.795
				c-0.365-0.319-0.686-0.692-0.947-1.108c-0.172-0.272-0.402-0.676-0.685-1.207c-0.111-0.211-0.192-0.36-0.251-0.458
				c-0.065-0.101-0.102-0.162-0.158-0.267c-0.313-0.565-0.579-1.196-0.811-1.924c-0.306-0.572-0.5-1.197-0.569-1.841
				c-0.017-0.133-0.062-0.454-0.132-0.962c-0.055-0.227-0.1-0.417-0.135-0.594c-0.105-0.483-0.156-0.997-0.15-1.558
				c-0.053-0.275-0.086-0.553-0.1-0.824c-0.011-0.284-0.002-0.559,0.025-0.824c-0.008-0.204-0.005-0.405,0.01-0.604
				c-0.033-0.465-0.002-0.934,0.094-1.394c0.023-0.12,0.047-0.23,0.069-0.331c0.007-0.337,0.031-0.661,0.076-0.974
				c0.052-0.37,0.138-0.729,0.256-1.076c0.082-0.382,0.197-0.759,0.347-1.13c0.101-0.45,0.234-0.856,0.396-1.223
				c0.108-0.35,0.254-0.687,0.435-1.003c0.133-0.308,0.297-0.602,0.486-0.877c0.125-0.263,0.27-0.521,0.434-0.775
				c0.164-0.354,0.367-0.688,0.609-0.997c0.238-0.305,0.409-0.522,0.51-0.657c0.45-0.685,1.063-1.251,1.784-1.65
				c0.021-0.012,0.075-0.044,0.161-0.095c0.497-0.421,1.07-0.767,1.68-0.998c0.016-0.006,0.028-0.011,0.043-0.018
				c0.448-0.357,0.944-0.646,1.474-0.853c0.178-0.073,0.353-0.134,0.524-0.188c0.646-0.316,1.358-0.495,2.092-0.516
				c0.045-0.013,0.09-0.024,0.137-0.035c0.072-0.021,0.139-0.042,0.193-0.059c0.346-0.145,0.705-0.248,1.071-0.313
				c0.519-0.168,1.074-0.262,1.683-0.286l0.302-0.011c0.222-0.038,0.446-0.062,0.673-0.07c0,0,0.283-0.009,0.346-0.009
				c0.395,0,0.797,0.041,1.221,0.124c0,0,0.396-0.013,0.512-0.013c0.902,0,1.703,0.138,2.441,0.42
				c0.035,0.014,0.072,0.028,0.109,0.042c0.311,0.088,0.637,0.207,0.973,0.364c0.244,0.078,0.484,0.171,0.724,0.279
				c0.745,0.22,1.44,0.61,2.021,1.15c0.051,0.047,0.102,0.096,0.15,0.146c0.35,0.296,0.656,0.64,0.915,1.021
				c0.459,0.38,0.849,0.839,1.149,1.356c0.205,0.301,0.375,0.62,0.51,0.951c0.242,0.322,0.445,0.671,0.605,1.037
				c0.146,0.241,0.277,0.493,0.393,0.755c0.256,0.454,0.438,0.943,0.541,1.447c0.17,0.353,0.3,0.723,0.384,1.104
				c0.131,0.326,0.229,0.667,0.292,1.016c0.011,0.05,0.021,0.096,0.029,0.137c0.152,0.459,0.24,0.942,0.258,1.436
				c0,0.04,0.002,0.098,0.002,0.172c0.136,0.43,0.214,0.877,0.23,1.331c0.002,0.034,0.004,0.067,0.006,0.1
				c0.142,0.436,0.26,0.945,0.278,1.543c0.015,0.332-0.003,0.663-0.053,0.99c0.002,0.294-0.017,0.588-0.052,0.88
				c0,0.042,0.002,0.083,0.002,0.123c0.068,0.514,0.061,1.038-0.023,1.553c0,0.008,0,0.014,0,0.021
				c0.005,0.14,0.004,0.279-0.003,0.418c0.021,0.156,0.032,0.313,0.038,0.47c0.01,0.317-0.008,0.632-0.055,0.941
				c0.013,0.952-0.243,1.883-0.73,2.688c-0.021,0.087-0.044,0.168-0.064,0.245c-0.205,0.713-0.556,1.354-1.016,1.895
				c-0.428,0.98-1.162,1.82-2.125,2.373c-0.052,0.029-0.197,0.126-0.416,0.376c-0.502,0.572-1.121,1.02-1.808,1.314
				c-0.226,0.132-0.462,0.247-0.703,0.343c-0.41,0.208-0.823,0.36-1.241,0.458c-0.371,0.214-0.77,0.381-1.186,0.494
				c-0.354,0.156-0.725,0.271-1.104,0.341c-0.459,0.145-0.934,0.226-1.418,0.241l-0.56,0.022c-0.44,0.077-0.842,0.121-1.217,0.135
				c0,0-0.31,0.011-0.375,0.011c-0.08,0-0.162-0.002-0.242-0.006c-0.17,0.021-0.34,0.033-0.506,0.038
				C96.258,42.063,96.086,42.067,95.934,42.067z"/>
			<path fill="#FFFFFF" d="M113.556,43.24c-0.386,0-0.769-0.045-1.144-0.131c-0.557-0.08-1.207-0.26-1.895-0.624
				c-0.549-0.219-1.053-0.53-1.491-0.92c-0.428-0.314-0.805-0.695-1.116-1.13c-0.49-0.588-0.85-1.286-1.035-2.046
				c-0.299-0.722-0.465-1.448-0.494-2.18c-0.039-0.992,0.148-1.814,0.434-2.48c0.068-0.242,0.157-0.478,0.264-0.709
				c0.071-0.199,0.156-0.393,0.254-0.582c-0.129-0.314-0.234-0.648-0.316-1.004c-0.032-0.077-0.063-0.154-0.092-0.231
				c-0.168-0.448-0.281-0.921-0.352-1.447c-0.025-0.174-0.045-0.349-0.058-0.509c-0.197-1.445-0.197-1.457-0.207-1.747
				c-0.004-0.111-0.004-0.225,0-0.335c-0.015-0.137-0.024-0.272-0.029-0.409c-0.013-0.3,0.001-0.654,0.05-1.202
				c-0.009-0.086-0.015-0.173-0.018-0.26l-0.02-0.481c-0.043-0.329-0.064-0.592-0.076-0.818l-0.021-0.259
				c-0.037-0.342-0.058-0.644-0.064-0.847c-0.006-0.128-0.006-0.264,0-0.407c-0.01-0.089-0.02-0.178-0.024-0.268
				c-0.003-0.049-0.015-0.367-0.015-0.367c-0.014-0.354-0.002-0.766,0.037-1.3l-0.008-0.227c-0.012-0.251-0.004-0.5,0.02-0.745
				c0-0.054,0.001-0.106,0.003-0.159c-0.052-0.261-0.08-0.525-0.089-0.792c-0.047-0.331-0.069-0.633-0.078-0.879
				c-0.01-0.247-0.003-0.517,0.021-0.813c-0.012-0.109-0.02-0.22-0.021-0.331c-0.005-0.119-0.005-0.236-0.001-0.354
				c-0.015-0.127-0.022-0.261-0.028-0.399c-0.015-0.293,0.002-0.618,0.051-0.957l-0.006-0.143c-0.007-0.235,0.002-0.471,0.026-0.704
				c0.003-0.095,0.002-0.218,0.001-0.367c-0.006-0.761,0.033-1.364,0.128-1.91c0.011-0.067,0.022-0.135,0.035-0.202
				c-0.007-0.084-0.013-0.171-0.015-0.259c-0.008-0.222,0-0.444,0.021-0.666c-0.003-0.296,0.021-0.596,0.065-0.896
				c0.016-0.436,0.072-0.832,0.172-1.218c0.265-1.243,1.01-2.382,2.092-3.15c0.82-0.599,1.847-0.949,2.921-0.985
				c0.058-0.002,0.144-0.003,0.198-0.003c1.216,0,2.41,0.388,3.417,1.102c0.575,0.313,1.086,0.734,1.5,1.238
				c0.335,0.318,0.717,0.756,1.028,1.321c0.235,0.428,0.407,0.885,0.512,1.359c0.246,0.729,0.334,1.417,0.369,1.929
				c0.113,0.545,0.177,1.01,0.195,1.438c0.004,0.143,0.004,0.282,0,0.419c0,0.004,0.002,0.01,0.002,0.015
				c0.146,0.484,0.227,0.97,0.246,1.456l0.057,1.467c0.009,0.236,0,0.459-0.02,0.67c0.001,0.066,0,0.132-0.001,0.199
				c0.05,0.292,0.076,0.561,0.085,0.828c0.006,0.104,0.006,0.21,0.004,0.317c0.012,0.104,0.018,0.208,0.021,0.313
				c0.005,0.126,0.019,0.314,0.039,0.567c0.037,0.451,0.06,0.804,0.068,1.062c0.019,0.458,0.014,0.928-0.013,1.403
				c0.021,0.168,0.035,0.338,0.041,0.51c0.011,0.31-0.007,0.586-0.041,0.851c0.015,0.113,0.035,0.253,0.06,0.414
				c0.027,0.184,0.045,0.366,0.053,0.551l0.014,0.327c0.031,0.187,0.053,0.366,0.064,0.548c0.004,0.057,0.012,0.286,0.012,0.345
				c0.068,0.301,0.111,0.608,0.127,0.922c0.009,0.252,0.003,0.496-0.018,0.731c0.004,0.063,0.006,0.111,0.006,0.146
				c0.006,0.107,0.008,0.217,0.005,0.327c0.011,0.109,0.019,0.221,0.021,0.333c0.01,0.2,0.008,0.52-0.015,0.93
				c0.11,0.471,0.155,0.956,0.13,1.438c0.055,0.265,0.086,0.533,0.098,0.805c0.039,0.229,0.063,0.46,0.07,0.692
				c0.016,0.493-0.042,0.986-0.166,1.462c0.126,0.231,0.234,0.474,0.324,0.723c0.316,0.643,0.507,1.366,0.533,2.077l0.041,1.055
				c0.031,0.871-0.146,2.347-1.399,3.722c-0.237,0.318-0.504,0.608-0.793,0.866c-0.836,0.996-2.04,1.653-3.377,1.787
				C114.484,43.175,114.02,43.24,113.556,43.24z"/>
		</g>
		<g>
			<path fill="#282D33" d="M69.11,15.986c0.498-0.019,0.896,0.038,1.195,0.174c0.063,0.115,0.186,0.242,0.367,0.383
				c0.181,0.14,0.289,0.268,0.322,0.384c0.09,0.026,0.172,0.119,0.254,0.277c0.078,0.156,0.147,0.265,0.209,0.32
				c0.051,0.558,0.235,1.164,0.557,1.828c-0.053,0.179-0.032,0.31,0.061,0.395c0.002,0.06-0.039,0.133-0.125,0.224
				c0.129,0.318,0.256,0.521,0.377,0.604l0.152,0.565c0.116-0.033,0.223-0.125,0.318-0.276c0.098-0.148,0.189-0.241,0.277-0.274
				c0.02-0.206,0.159-0.408,0.416-0.61c0.256-0.2,0.411-0.33,0.469-0.392c0.059-0.002,0.152-0.042,0.281-0.122
				c0.129-0.077,0.236-0.118,0.325-0.122c0.431-0.28,0.761-0.439,0.994-0.479l0.745-0.115c0.027-0.002,0.121-0.033,0.279-0.101
				c0.16-0.063,0.299-0.1,0.416-0.104l0.742-0.117c0.029-0.001,0.073-0.01,0.131-0.027c0.06-0.016,0.103-0.024,0.131-0.025
				c0.029-0.002,0.082,0.004,0.156,0.015c0.073,0.014,0.139,0.019,0.198,0.016l0.481-0.063c0.062,0.056,0.137,0.082,0.224,0.079
				l0.176-0.007l0.046,0.042c0.028-0.001,0.06-0.002,0.088-0.003c0.06-0.003,0.154-0.008,0.287-0.013
				c0.131-0.005,0.227,0.008,0.286,0.033c0.031,0.06,0.062,0.086,0.093,0.084l0.176-0.007c0.091,0.085,0.164,0.126,0.224,0.124
				c0.06,0.027,0.104,0.056,0.136,0.082c0.03,0.029,0.068,0.058,0.113,0.085s0.082,0.056,0.113,0.084
				c0.029,0.028,0.074,0.056,0.136,0.082l0.09,0.041c0.001,0.029,0.017,0.058,0.048,0.086c0.028,0.028,0.047,0.058,0.047,0.087
				c0.301,0.193,0.469,0.348,0.502,0.464c0.146-0.005,0.399,0.088,0.76,0.279c-0.025,0.089-0.008,0.161,0.053,0.218
				c0.15,0.111,0.35,0.317,0.596,0.614c0.246,0.3,0.4,0.478,0.461,0.533l0.01,0.221c0.006,0.176,0.055,0.291,0.146,0.347
				c0.003,0.088-0.024,0.161-0.081,0.223c0.15,0.111,0.268,0.46,0.35,1.044l0.14,0.171c0.093,0.113,0.153,0.199,0.187,0.257
				l0.004,0.088c0.004,0.117,0.037,0.234,0.102,0.348c0.064,0.146,0.039,0.249-0.076,0.313c0.063,0.056,0.092,0.099,0.094,0.128
				c0.006,0.146,0.063,0.32,0.174,0.521c0.11,0.2,0.168,0.359,0.174,0.478c0.002,0.06-0.004,0.132-0.016,0.221
				c-0.011,0.088-0.016,0.148-0.015,0.179c0.004,0.087,0.021,0.158,0.053,0.217c0.001,0.028-0.034,0.074-0.104,0.136
				c-0.07,0.063-0.104,0.122-0.104,0.181c0.176-0.007,0.295,0.063,0.36,0.206l0.003,0.088c0.002,0.03-0.004,0.081-0.016,0.155
				c-0.014,0.073-0.018,0.141-0.016,0.198l0.004,0.088c0.002,0.058,0.026,0.131,0.074,0.217c0.047,0.086,0.07,0.146,0.072,0.173
				c0.003,0.061-0.018,0.119-0.059,0.181c-0.043,0.061-0.063,0.104-0.062,0.134c0.003,0.088,0.034,0.188,0.1,0.305
				c0.063,0.115,0.097,0.216,0.101,0.305l0.005,0.132c0.063,0.086,0.108,0.143,0.139,0.171c-0.051,0.208-0.047,0.326,0.015,0.352
				c0.002,0.061-0.025,0.104-0.082,0.137c-0.06,0.031-0.086,0.063-0.086,0.091c0.03,0.059,0.076,0.101,0.137,0.128
				c0.062,0.026,0.092,0.056,0.093,0.085l0.051,0.174c0.003,0.087-0.036,0.184-0.121,0.29c-0.084,0.104-0.125,0.188-0.122,0.246
				c0.002,0.03,0.018,0.074,0.049,0.131l0.002,0.044c-0.027,0.031-0.071,0.032-0.131,0.006c0.09,0.084,0.094,0.172,0.01,0.265
				c0.093,0.112,0.143,0.258,0.148,0.433c0.002,0.06-0.013,0.089-0.041,0.09c-0.029,0.001-0.052,0.002-0.066,0.003
				c-0.014,0-0.021,0.018-0.02,0.045c0.002,0.061,0.039,0.087,0.112,0.084s0.112,0.04,0.116,0.128c0,0.029-0.027,0.074-0.084,0.136
				l0.088-0.003c0.06-0.003,0.089,0.012,0.091,0.04c0.001,0.029-0.027,0.067-0.084,0.113c-0.058,0.046-0.084,0.099-0.082,0.156
				c0.06-0.002,0.159-0.034,0.305-0.1c-0.103,0.387-0.286,0.583-0.55,0.594l0.143,0.259c0.145-0.064,0.172-0.124,0.082-0.18
				c0.06,0.026,0.135,0.067,0.225,0.124c0.09,0.056,0.148,0.082,0.179,0.081c-0.026,0.029-0.037,0.163-0.028,0.396
				c-0.029,0.001-0.043-0.013-0.045-0.043c-0.002-0.028-0.011-0.051-0.023-0.063c-0.018-0.015-0.038-0.021-0.067-0.021
				c-0.028,0.001-0.058,0.019-0.086,0.047c-0.028,0.031-0.071,0.033-0.132,0.005c0.031,0.088,0.096,0.195,0.188,0.323
				c0.094,0.129,0.142,0.237,0.146,0.324c0.005,0.118-0.033,0.272-0.114,0.467c-0.08,0.195-0.119,0.335-0.115,0.423l-0.129,0.094
				c-0.084,0.063-0.143,0.124-0.168,0.184c0.029,0.059,0.092,0.085,0.18,0.082c0.002,0.058-0.012,0.131-0.037,0.22
				c-0.025,0.09-0.037,0.148-0.036,0.178c0.003,0.061,0.024,0.104,0.071,0.131c0.045,0.026,0.067,0.069,0.07,0.129
				c-0.232,0.067-0.347,0.16-0.343,0.277c-0.172,0.065-0.272,0.128-0.3,0.188l0.004,0.088c0.002,0.059-0.01,0.155-0.033,0.287
				c-0.023,0.133-0.035,0.229-0.033,0.287c-0.058,0.031-0.101,0.078-0.125,0.138c-0.059,0.061-0.102,0.092-0.13,0.093
				c0.001,0.029-0.013,0.066-0.04,0.111s-0.025,0.097,0.008,0.154c-0.285,0.246-0.469,0.458-0.55,0.638
				c-0.059,0.002-0.104-0.011-0.133-0.039c-0.03-0.028-0.062-0.042-0.089-0.041l0.01,0.264c-0.146,0.064-0.26,0.144-0.344,0.233
				c-0.378,0.103-0.581,0.184-0.607,0.244c-0.029,0.001-0.146,0.049-0.346,0.146c-0.027,0.029-0.087,0.047-0.175,0.052
				c-0.06,0.002-0.125-0.012-0.199-0.037c-0.075-0.027-0.127-0.04-0.155-0.039c-0.088,0.004-0.146,0.021-0.175,0.052l-0.004-0.088
				l-0.088,0.003l-0.399-0.116l-0.088,0.003c-0.029,0.001-0.087,0.02-0.174,0.051c-0.087,0.033-0.161,0.052-0.22,0.054l-0.089-0.041
				c-0.029,0.001-0.029,0.017,0,0.044c0.031,0.027,0.018,0.044-0.041,0.046c-0.059,0.031-0.104,0.004-0.135-0.083
				c-0.033-0.087-0.064-0.129-0.095-0.128c-0.062-0.027-0.11-0.033-0.153-0.017c-0.045,0.017-0.082,0.011-0.11-0.019
				c-0.031-0.028-0.05-0.146-0.058-0.35c-0.002-0.029-0.02-0.072-0.05-0.131c-0.03,0.001-0.042,0.03-0.04,0.09
				c-0.058,0.062-0.113,0.106-0.172,0.139c-0.064-0.145-0.125-0.215-0.184-0.213c-0.032-0.058-0.02-0.096,0.039-0.111
				c0.059-0.017,0.087-0.039,0.086-0.069c-0.006-0.146-0.1-0.267-0.278-0.361c-0.179-0.096-0.286-0.158-0.315-0.188
				c-0.031-0.058-0.026-0.124,0.015-0.198c0.041-0.075,0.062-0.128,0.062-0.157l-0.133,0.006c-0.117,0.004-0.207-0.006-0.268-0.034
				c-0.002-0.058-0.024-0.115-0.071-0.173c-0.046-0.058-0.069-0.1-0.071-0.129l-0.004-0.088c-0.031-0.058-0.076-0.121-0.138-0.192
				c-0.062-0.07-0.108-0.12-0.138-0.147c-0.287-1.312-0.43-1.979-0.432-2.011c-0.003-0.088,0.022-0.16,0.08-0.223
				c0.026-0.03,0.02-0.052-0.025-0.065c-0.045-0.012-0.066-0.032-0.067-0.063c-0.003-0.088-0.042-0.321-0.116-0.701
				c-0.072-0.377-0.113-0.655-0.119-0.831c-0.007-0.146,0.021-0.235,0.077-0.268c-0.03-0.028-0.056-0.123-0.077-0.283
				c-0.021-0.161-0.076-0.253-0.164-0.279c-0.002-0.027,0.004-0.088,0.016-0.177c0.011-0.088,0.029-0.162,0.057-0.223
				c-0.092-0.113-0.145-0.316-0.154-0.61c0.051-0.208,0.059-0.383,0.022-0.528l-0.015-0.353c0.051-0.236,0.072-0.399,0.069-0.487
				s-0.051-0.175-0.142-0.258c-0.014-0.322-0.001-0.777,0.033-1.366c-0.002-0.059-0.031-0.087-0.09-0.084
				c-0.031-0.028-0.047-0.058-0.049-0.087c0.026-0.089,0.036-0.222,0.029-0.396l-0.041-1.056c-0.092-0.085-0.141-0.186-0.145-0.303
				c-0.004-0.088,0.008-0.206,0.031-0.354c0.022-0.146,0.033-0.25,0.031-0.309l-0.014-0.352l-0.002-0.044l0.039-0.091
				c-0.002-0.058-0.012-0.132-0.028-0.219c-0.021-0.088-0.028-0.146-0.029-0.176c-0.004-0.088,0.009-0.146,0.037-0.177l-0.161-0.742
				l-0.031-0.835c-0.02-0.469-0.049-0.819-0.086-1.055c-0.002-0.059-0.041-0.094-0.113-0.104c-0.074-0.012-0.161-0.022-0.266-0.033
				c-0.104-0.011-0.171-0.03-0.201-0.059c-0.574,0.314-0.914,0.623-1.021,0.92c-0.028,0.001-0.051,0.022-0.063,0.067
				c-0.015,0.045-0.049,0.068-0.107,0.07c-0.025,0.061-0.104,0.195-0.227,0.405c-0.125,0.21-0.199,0.389-0.223,0.536
				c-0.027,0.03-0.057,0.062-0.085,0.092L74.4,23.002c0.005,0.117-0.021,0.206-0.077,0.267c0.002,0.029,0.01,0.066,0.026,0.109
				c0.017,0.044,0.024,0.08,0.024,0.107c0.008,0.177-0.074,0.355-0.242,0.538c0.027-0.001,0.06,0.015,0.09,0.04l0.004,0.088
				c0.001,0.029-0.004,0.104-0.016,0.222c-0.01,0.119-0.014,0.207-0.01,0.266c0.002,0.088,0.021,0.161,0.053,0.218
				c-0.115,0.063-0.188,0.124-0.213,0.185c0.031,0.087,0.053,0.232,0.061,0.438s-0.008,0.544-0.049,1.016
				c0.002,0.028-0.034,0.06-0.105,0.092c-0.072,0.032-0.123,0.078-0.148,0.138c0.031,0.06,0.076,0.07,0.134,0.039
				c0.057-0.031,0.101-0.048,0.131-0.049c0.002,0.06-0.003,0.14-0.015,0.243c-0.01,0.103-0.014,0.198-0.01,0.287
				c0.002,0.028-0.035,0.065-0.105,0.112c-0.071,0.047-0.092,0.101-0.061,0.157c0.002,0.06,0.049,0.085,0.137,0.081
				c0.095,0.173,0.084,0.32-0.027,0.441c0.061,0.058,0.094,0.13,0.098,0.218c0.002,0.088-0.022,0.214-0.074,0.377
				c-0.053,0.163-0.078,0.274-0.075,0.332l0.05,0.131c0.031,0.087,0.034,0.16,0.009,0.22c0.001,0.029-0.013,0.088-0.038,0.179
				l0.004,0.088c0,0.028,0.018,0.071,0.049,0.13l0.049,0.086l0.003,0.089c0.004,0.088-0.028,0.215-0.097,0.376
				c-0.065,0.165-0.099,0.291-0.096,0.379l0.051,0.175l0.002,0.044c-0.027,0.03-0.072,0.048-0.131,0.05l0.146,0.347
				c-0.117,0.005-0.176,0.021-0.174,0.051c0.002,0.061,0.033,0.095,0.093,0.107c0.06,0.012,0.089,0.032,0.09,0.062l0.005,0.131
				c0.014,0.323,0.051,0.514,0.11,0.569c-0.028,0.03-0.048,0.075-0.062,0.134c-0.013,0.062-0.031,0.12-0.06,0.179
				c-0.026,0.062-0.054,0.12-0.081,0.181l-0.045-0.042c-0.031-0.028-0.061-0.043-0.09-0.042c0.061,0.058,0.07,0.116,0.029,0.177
				c-0.043,0.059-0.033,0.132,0.028,0.218c-0.028,0.001-0.063,0.039-0.104,0.114s-0.09,0.129-0.147,0.159
				c0.009,0.206-0.028,0.384-0.11,0.533c0.008,0.205-0.065,0.573-0.224,1.108c-0.073,0.354-0.164,0.651-0.272,0.892l0.01,0.22
				c0.009,0.235-0.039,0.501-0.146,0.798c-0.029,0.001-0.059,0.018-0.086,0.048s-0.072,0.032-0.132,0.005
				c-0.054,0.149-0.108,0.226-0.168,0.228c-0.045,0.354-0.298,0.645-0.758,0.866c-0.118,0.005-0.191-0.007-0.224-0.035
				c-0.029-0.027-0.052-0.026-0.064,0.003c-0.014,0.03-0.035,0.045-0.064,0.046s-0.109-0.003-0.242-0.012
				c-0.133-0.011-0.242-0.015-0.33-0.011c-0.498,0.021-0.894,0.078-1.183,0.179l-0.973-0.096c-0.031-0.058-0.085-0.1-0.159-0.126
				c-0.074-0.024-0.127-0.054-0.156-0.081c-0.029,0.001-0.046-0.027-0.048-0.087c-0.178-0.081-0.313-0.164-0.405-0.248l-0.188-0.346
				l-0.138-0.127c-0.031-0.057-0.065-0.157-0.101-0.303c-0.034-0.146-0.083-0.263-0.146-0.349c-0.002-0.027,0.023-0.116,0.078-0.268
				c-0.002-0.028-0.024-0.05-0.069-0.063c-0.044-0.013-0.065-0.033-0.067-0.063s0.02-0.067,0.061-0.113
				c0.044-0.046,0.064-0.083,0.064-0.111c-0.09-0.025-0.144-0.067-0.16-0.124c-0.018-0.06-0.056-0.102-0.115-0.13
				c-0.002-0.088-0.018-0.256-0.041-0.505c-0.023-0.248-0.039-0.431-0.043-0.549c-0.01-0.232-0.002-0.396,0.024-0.483
				c-0.09-0.026-0.137-0.112-0.143-0.261c-0.007-0.146,0.019-0.278,0.071-0.397c-0.029-0.028-0.055-0.102-0.073-0.217
				c-0.019-0.116-0.06-0.188-0.118-0.217c-0.018-0.438,0-0.749,0.052-0.928c-0.067-0.23-0.104-0.464-0.114-0.698
				c-0.018-0.439,0.015-0.764,0.094-0.973c-0.182-0.17-0.188-0.316-0.018-0.44c-0.102-0.348-0.156-0.639-0.164-0.873l-0.007-0.132
				c-0.001-0.028-0.002-0.059-0.003-0.088l0.04-0.09c-0.001-0.029-0.019-0.088-0.051-0.174c-0.032-0.087-0.035-0.16-0.009-0.221
				l0.037-0.179c-0.01-0.263-0.056-0.658-0.133-1.184l0.041-0.045c0-0.029-0.002-0.06-0.004-0.088
				c-0.003-0.088-0.045-0.211-0.123-0.369c-0.08-0.158-0.121-0.282-0.123-0.37c-0.005-0.088,0.021-0.191,0.074-0.312
				c-0.072-0.351-0.111-0.611-0.117-0.787l-0.037-0.925c-0.015-0.38-0.039-0.657-0.076-0.833c0-0.028,0.013-0.073,0.039-0.134
				l0.043-0.045c-0.002-0.029-0.033-0.102-0.097-0.218c-0.006-0.146,0.003-0.309,0.024-0.484s0.053-0.376,0.087-0.598
				c0.034-0.223,0.063-0.391,0.09-0.509c-0.003-0.06,0-0.17,0.011-0.331c0.008-0.162,0.024-0.273,0.053-0.333
				c-0.002-0.029,0.029-0.191,0.09-0.487c0.064-0.296,0.093-0.503,0.088-0.62l-0.003-0.089c0.081-0.179,0.118-0.356,0.11-0.532
				c-0.063-0.113-0.096-0.186-0.097-0.215c0.026-0.031,0.058-0.032,0.088-0.004l0.003,0.044c0.055-0.09,0.092-0.238,0.113-0.445
				c0.021-0.206,0.046-0.339,0.072-0.398c0.113-0.092,0.212-0.229,0.293-0.407c-0.002-0.028,0.012-0.072,0.039-0.134l0.039-0.089
				c0.029-0.029,0.05-0.09,0.061-0.18c0.012-0.089,0.03-0.146,0.059-0.179c0.027-0.03,0.092-0.091,0.19-0.184
				c0.101-0.093,0.162-0.184,0.188-0.271C67.913,16.12,68.407,16.014,69.11,15.986z M70.624,34.595L70.493,34.6
				c0.061,0.086,0.119,0.113,0.178,0.081c0-0.029-0.008-0.043-0.022-0.043C70.633,34.639,70.625,34.624,70.624,34.595z
				 M77.556,27.15l-0.134,0.006l0.008,0.176C77.459,27.33,77.5,27.27,77.556,27.15z M80.136,38.057
				c-0.117,0.004-0.175,0.079-0.169,0.227C80.084,38.278,80.141,38.203,80.136,38.057z M80.314,38.138l-0.088,0.003
				c0.002,0.06-0.011,0.089-0.04,0.09l0.131-0.005L80.314,38.138z M81.956,36.182c0.002,0.029-0.013,0.06-0.041,0.089l0.043-0.045
				C81.987,36.224,81.986,36.209,81.956,36.182z M82.708,33.993l0.008,0.221c0.09,0.026,0.134,0.01,0.132-0.049
				C82.872,34.047,82.825,33.99,82.708,33.993z M85.317,32.044c-0.117,0.005-0.205,0.022-0.262,0.054
				C85.088,32.215,85.176,32.198,85.317,32.044z M85.295,33.717l0.002,0.088c-0.027,0.032-0.026,0.063,0.004,0.088
				c0.06-0.002,0.087-0.031,0.085-0.091C85.383,33.743,85.354,33.715,85.295,33.717z"/>
			<path fill="#282D33" d="M97.374,14.848l0.131-0.005c0.09-0.004,0.215,0.013,0.377,0.051c0.164,0.037,0.275,0.056,0.334,0.054
				c0.059-0.004,0.117,0.003,0.177,0.016c0.058,0.012,0.116,0.017,0.176,0.015l0.527-0.021c0.381-0.016,0.661,0.019,0.841,0.1
				c0.029-0.001,0.089,0.04,0.182,0.125c0.264-0.011,0.547,0.097,0.85,0.32c0.175-0.007,0.367,0.051,0.578,0.175
				c0.211,0.125,0.39,0.184,0.535,0.178c0.006,0.147,0.111,0.245,0.319,0.296c0.065,0.203,0.114,0.305,0.144,0.304
				c0.09,0.055,0.221,0.183,0.391,0.381c0.169,0.199,0.313,0.326,0.434,0.38c0.064,0.173,0.127,0.274,0.188,0.3
				c0.029,0.028,0.031,0.065,0.004,0.11s-0.041,0.083-0.04,0.11c0.063,0.116,0.172,0.273,0.325,0.474
				c0.154,0.199,0.279,0.355,0.371,0.469c0.01,0.235-0.002,0.367-0.028,0.398c0.002,0.028,0.017,0.043,0.046,0.042
				c0.116-0.006,0.206,0.035,0.27,0.121c0.063,0.086,0.117,0.2,0.168,0.346c0.05,0.146,0.104,0.246,0.164,0.302
				c-0.025,0.061-0.037,0.148-0.032,0.266c0.006,0.147,0.071,0.321,0.196,0.521s0.201,0.329,0.234,0.387
				c0.002,0.061,0.006,0.153,0.012,0.285c0.004,0.132,0.022,0.229,0.055,0.284c0.031,0.058,0.07,0.106,0.115,0.148
				s0.069,0.078,0.07,0.107c0.107,0.525,0.178,0.801,0.208,0.828c0.001,0.029-0.004,0.097-0.014,0.199
				c-0.013,0.104-0.017,0.185-0.015,0.242c0.019,0.439,0.104,0.804,0.264,1.091c0.014,0.352,0.039,0.659,0.08,0.922
				c0.003,0.088,0.037,0.212,0.103,0.37c0.063,0.159,0.099,0.269,0.101,0.326c0.004,0.089-0.037,0.179-0.121,0.27
				c0.002,0.059,0.013,0.14,0.031,0.239c0.02,0.104,0.029,0.183,0.031,0.241c0.012,0.265-0.025,0.501-0.105,0.71
				c0.033,0.086,0.053,0.203,0.059,0.349c0.008,0.206-0.001,0.353-0.027,0.442c0.004,0.059,0.021,0.115,0.051,0.174
				c0.033,0.059,0.035,0.116,0.008,0.176c0.002,0.03-0.026,0.061-0.084,0.091c-0.059,0.033-0.086,0.093-0.081,0.181l0.019,0.482
				c0.002,0.029,0.018,0.065,0.049,0.108c0.03,0.043,0.047,0.079,0.049,0.106c-0.078,0.27-0.116,0.416-0.115,0.445
				c0.005,0.117,0.055,0.263,0.148,0.434c0.002,0.061-0.024,0.119-0.08,0.182c-0.058,0.061-0.084,0.104-0.084,0.135
				c0.03,0.028,0.051,0.145,0.059,0.35c0.003,0.088,0.021,0.147,0.051,0.175c-0.027,0.031-0.057,0.068-0.084,0.113
				s-0.057,0.084-0.083,0.114c-0.028,0.03-0.058,0.067-0.084,0.112s-0.069,0.068-0.129,0.07c-0.099,0.531-0.172,0.889-0.224,1.065
				c-0.029,0.001-0.072,0.023-0.129,0.07c-0.058,0.047-0.115,0.057-0.176,0.028c-0.164,0.3-0.275,0.45-0.334,0.452
				c-0.023,0.178-0.104,0.343-0.246,0.495c-0.027,0.061-0.018,0.104,0.027,0.131s0.068,0.057,0.068,0.085
				c-0.603,0.346-1.172,0.823-1.704,1.433c-0.147,0.006-0.334,0.101-0.562,0.283c-0.089,0.004-0.191,0.045-0.305,0.123
				c-0.115,0.077-0.202,0.117-0.26,0.119l-0.264,0.011c-0.06,0.002-0.262,0.084-0.607,0.244c-0.287,0.158-0.445,0.252-0.473,0.282
				c-0.351,0.072-0.582,0.155-0.695,0.247l-0.178-0.037c-0.06,0.002-0.139,0.035-0.238,0.098c-0.102,0.063-0.18,0.096-0.237,0.098
				l-0.968,0.038c-0.35,0.072-0.627,0.111-0.832,0.12l-0.176,0.007c-0.059,0.002-0.118-0.024-0.18-0.081
				c-0.088,0.003-0.213,0.022-0.371,0.059c-0.16,0.036-0.285,0.056-0.373,0.059c-0.322,0.013-0.558,0.009-0.705-0.018
				c-0.06,0.003-0.146-0.009-0.264-0.033c-0.119-0.023-0.223-0.035-0.311-0.031c-0.03,0.001-0.074,0.011-0.131,0.026
				c-0.061,0.019-0.104,0.025-0.133,0.026c-0.088,0.004-0.207-0.035-0.356-0.118c-0.149-0.082-0.254-0.122-0.312-0.119l-0.176,0.007
				c-0.178,0.008-0.371-0.06-0.582-0.197c-0.089-0.025-0.193-0.073-0.313-0.144c-0.121-0.067-0.195-0.103-0.225-0.102l-0.132,0.005
				c-0.03-0.026-0.092-0.084-0.183-0.169c-0.092-0.084-0.167-0.14-0.227-0.166c-0.271-0.165-0.408-0.263-0.408-0.292
				c-0.324-0.018-0.728-0.193-1.209-0.526c-0.062-0.026-0.135-0.083-0.228-0.167c-0.091-0.085-0.168-0.141-0.228-0.168
				c-0.213-0.195-0.334-0.323-0.366-0.382l-0.361-0.25c-0.002-0.059-0.049-0.122-0.14-0.193c-0.092-0.067-0.139-0.146-0.143-0.235
				l-0.224-0.08c-0.125-0.198-0.29-0.494-0.496-0.882c-0.206-0.391-0.354-0.653-0.448-0.799c-0.158-0.285-0.306-0.647-0.438-1.083
				c-0.099-0.288-0.149-0.448-0.149-0.479l-0.188-0.302c-0.001-0.028-0.063-0.48-0.185-1.357c-0.105-0.436-0.158-0.668-0.16-0.697
				c-0.033-0.115-0.049-0.292-0.041-0.526c0.004-0.235,0.006-0.396,0.002-0.483c-0.002-0.059-0.021-0.154-0.055-0.285
				c-0.035-0.13-0.053-0.225-0.056-0.283c-0.002-0.06,0.011-0.116,0.037-0.179c0.026-0.06,0.04-0.104,0.039-0.133
				c-0.003-0.059-0.015-0.161-0.033-0.307c-0.021-0.146-0.019-0.265,0.008-0.354l0.037-0.178c0.026-0.061,0.024-0.133-0.009-0.22
				l-0.051-0.175c0.074-0.355,0.123-0.576,0.149-0.666c0.026-0.089,0.035-0.229,0.027-0.42c-0.007-0.189,0.001-0.366,0.024-0.529
				c0.021-0.16,0.076-0.288,0.16-0.38c-0.013-0.322,0.092-0.663,0.313-1.025c0.038-0.528,0.171-0.871,0.399-1.027l-0.004-0.088
				c-0.031-0.058-0.048-0.101-0.049-0.13c0.059-0.032,0.113-0.093,0.17-0.182c0.055-0.091,0.098-0.137,0.127-0.139
				c0.026-0.029,0.025-0.06-0.004-0.089c-0.031-0.025-0.046-0.056-0.047-0.086c0.057-0.03,0.105-0.084,0.146-0.159
				c0.041-0.074,0.091-0.129,0.146-0.159c0.021-0.206,0.115-0.431,0.282-0.672c0.168-0.24,0.263-0.421,0.288-0.538
				c0.476-0.606,0.726-0.938,0.754-0.998c0.057-0.031,0.271-0.157,0.646-0.379c0.058-0.029,0.143-0.101,0.256-0.206
				c0.112-0.107,0.213-0.179,0.299-0.212c0.029-0.001,0.08-0.018,0.152-0.05c0.071-0.032,0.123-0.049,0.152-0.05
				s0.13-0.049,0.303-0.144c0.174-0.097,0.317-0.146,0.436-0.15c0.027-0.028,0.099-0.112,0.21-0.248
				c0.11-0.137,0.226-0.223,0.343-0.256c0.059-0.032,0.202-0.074,0.436-0.128c0.232-0.053,0.377-0.124,0.433-0.214
				c0.116,0.023,0.323,0.03,0.616,0.02l0.222-0.008c0.06-0.003,0.122-0.034,0.192-0.097c0.072-0.062,0.138-0.095,0.195-0.097
				c0.58-0.169,0.885-0.269,0.912-0.3c0.061,0.027,0.135,0.039,0.223,0.036c0.176-0.007,0.318-0.071,0.433-0.192
				c0.058-0.03,0.174-0.051,0.351-0.058l0.571-0.021C97.155,14.9,97.288,14.88,97.374,14.848z M97.656,17.565
				c-0.021,0.236-0.161,0.434-0.418,0.589l0.009,0.221l-0.129,0.094c0.006,0.117-0.021,0.214-0.076,0.289
				c-0.057,0.075-0.119,0.157-0.188,0.248c-0.069,0.092-0.118,0.167-0.146,0.227c0,0.029,0.018,0.072,0.049,0.13
				c0.031,0.059,0.048,0.103,0.05,0.132l-0.087,0.047c-0.088,0.033-0.145,0.064-0.172,0.095l0.01,0.264
				c0.014,0.353-0.133,0.753-0.438,1.206l0.006,0.177c0.004,0.088,0.002,0.229-0.006,0.418c-0.007,0.191-0.009,0.33-0.006,0.419
				c0.008,0.176,0.043,0.351,0.108,0.522c-0.086,0.034-0.126,0.109-0.122,0.227c0.001,0.028,0.002,0.059,0.004,0.088
				c0.001,0.028-0.027,0.073-0.084,0.135c-0.025,0.089-0.044,0.193-0.055,0.311c-0.01,0.118-0.014,0.207-0.012,0.267
				c0.092,0.084,0.142,0.214,0.147,0.39c0.007,0.175-0.046,0.354-0.156,0.534c0.065,0.174,0.101,0.305,0.104,0.393
				c0.006,0.147-0.018,0.34-0.065,0.574c0.001,0.029,0.031,0.072,0.093,0.129c0.062,0.058,0.077,0.114,0.051,0.174
				c-0.051,0.18-0.067,0.504-0.051,0.972c0.008,0.176,0.024,0.445,0.055,0.813c0.029,0.367,0.047,0.638,0.054,0.813l0.01,0.264
				c0.001,0.029,0.019,0.08,0.05,0.152c0.032,0.071,0.051,0.123,0.051,0.151c0.065,0.203,0.113,0.495,0.144,0.874
				c0.029,0.383,0.062,0.646,0.099,0.788l0.146,0.393c0.135,0.436,0.247,0.695,0.339,0.779c0.091,0.084,0.256,0.181,0.496,0.288
				c0.059-0.002,0.109,0.011,0.154,0.038c0.046,0.027,0.082,0.041,0.111,0.039c0.061,0.027,0.118,0.04,0.178,0.037
				c0.029-0.001,0.103-0.019,0.218-0.052c0.116-0.033,0.204-0.036,0.265-0.011c0.399-0.31,0.713-0.512,0.945-0.608
				c0.025-0.059,0.074-0.148,0.145-0.271c0.067-0.118,0.131-0.211,0.188-0.271c0.055-0.09,0.115-0.254,0.18-0.492
				c0.063-0.235,0.107-0.398,0.135-0.488l0.125-0.225c0.024-0.06,0.045-0.135,0.057-0.224c0.012-0.088,0.031-0.161,0.058-0.224
				c0.165-0.269,0.246-0.447,0.242-0.536c-0.003-0.089-0.021-0.146-0.052-0.175c0.057-0.091,0.117-0.225,0.185-0.402
				c0.065-0.18,0.112-0.299,0.142-0.358l-0.053-0.173c-0.004-0.088,0.021-0.192,0.077-0.313c0.054-0.118,0.08-0.192,0.079-0.223
				s-0.004-0.095-0.008-0.198c-0.004-0.103,0.007-0.184,0.033-0.244c-0.002-0.059,0.012-0.116,0.037-0.178
				c0.026-0.059,0.041-0.104,0.039-0.133l-0.024-0.66c0.022-0.146,0.065-0.377,0.128-0.687c0.061-0.312,0.09-0.511,0.086-0.599
				c0.045-0.354-0.025-0.85-0.212-1.488s-0.284-1.104-0.296-1.396c-0.094-0.144-0.17-0.382-0.227-0.719
				c-0.058-0.335-0.103-0.546-0.136-0.633c-0.223-0.46-0.337-0.75-0.342-0.867c-0.374-0.604-0.581-1.004-0.619-1.208
				c-0.119-0.056-0.291-0.15-0.519-0.289c-0.226-0.139-0.412-0.232-0.561-0.286C98.097,17.577,97.891,17.557,97.656,17.565z"/>
			<path fill="#282D33" d="M111.605,9.453c0.205-0.009,0.399,0.064,0.581,0.219c0.184,0.155,0.332,0.245,0.449,0.27
				c0.033,0.116,0.119,0.224,0.256,0.32c0.136,0.099,0.22,0.175,0.251,0.231c0.001,0.028,0.01,0.081,0.026,0.152
				c0.019,0.073,0.013,0.125-0.016,0.155c0.151,0.111,0.24,0.52,0.268,1.222c0.105,0.438,0.162,0.76,0.17,0.964
				c0.006,0.146-0.019,0.278-0.072,0.397c0.063,0.086,0.098,0.239,0.105,0.459s0.015,0.359,0.017,0.418l0.097,0.215
				c0.064,0.146,0.1,0.276,0.104,0.395l0.057,1.449c0.001,0.029-0.025,0.104-0.079,0.224c0.001,0.03,0.011,0.074,0.027,0.132
				c0.017,0.059,0.024,0.102,0.026,0.131s0.002,0.073,0.006,0.131l-0.041,0.09c-0.024,0.118-0.012,0.287,0.041,0.506
				c0.054,0.218,0.08,0.371,0.084,0.46c0.004,0.088-0.021,0.221-0.072,0.396c0.003,0.061,0.035,0.146,0.099,0.262
				c0.007,0.177,0.023,0.438,0.054,0.791c0.027,0.351,0.047,0.629,0.055,0.834c0.021,0.527-0.004,1.071-0.069,1.632
				c0.063,0.115,0.097,0.202,0.099,0.261c0,0.029-0.022,0.162-0.072,0.397l0.01,0.265c0.012,0.265,0.055,0.657,0.134,1.185
				l0.026,0.659c0.002,0.059,0.012,0.124,0.029,0.196c0.017,0.071,0.026,0.124,0.028,0.152c0.003,0.06-0.011,0.125-0.038,0.2
				c-0.025,0.074-0.039,0.126-0.037,0.154c0.002,0.03,0.018,0.074,0.049,0.131c0.031,0.058,0.05,0.116,0.053,0.175
				c0.001,0.029,0.003,0.073,0.005,0.132l-0.042,0.09c0.002,0.029,0.025,0.072,0.072,0.129c0.046,0.058,0.07,0.113,0.072,0.173
				s-0.012,0.119-0.037,0.178c-0.027,0.061-0.039,0.105-0.039,0.135c0.002,0.06,0.014,0.146,0.031,0.264
				c0.021,0.115,0.03,0.188,0.031,0.219c0.004,0.088-0.016,0.177-0.057,0.267c-0.04,0.088-0.061,0.148-0.059,0.178
				c-0.027,0.061-0.012,0.104,0.049,0.132c0.06,0.025,0.09,0.055,0.092,0.084c0.006,0.146-0.002,0.359-0.021,0.64
				s-0.026,0.478-0.021,0.595c0.009,0.235,0.063,0.469,0.16,0.698c-0.051,0.238-0.071,0.429-0.065,0.575
				c0.011,0.293,0.063,0.524,0.159,0.698c0.015,0.381,0.035,0.6,0.068,0.656c0.002,0.061-0.026,0.074-0.086,0.047
				c-0.062-0.024-0.104-0.039-0.135-0.037c-0.058,0.03-0.154,0.167-0.293,0.406c-0.029,0.001-0.064,0.011-0.109,0.026
				c-0.043,0.018-0.08,0.025-0.107,0.027c-0.088,0.003-0.199-0.017-0.332-0.055c-0.135-0.039-0.244-0.058-0.332-0.054
				c-0.063-0.086-0.229-0.196-0.497-0.333c-0.002-0.059-0.035-0.116-0.095-0.173c-0.063-0.056-0.094-0.127-0.098-0.215
				c-0.336-0.312-0.52-0.494-0.549-0.553c-0.063-0.086-0.113-0.244-0.15-0.479c-0.039-0.232-0.074-0.378-0.104-0.436l-0.144-0.259
				c-0.032-0.087-0.059-0.203-0.078-0.351c-0.021-0.146-0.033-0.263-0.036-0.352c-0.123-0.903-0.187-1.37-0.187-1.4
				c-0.002-0.028,0.012-0.072,0.039-0.133c0.025-0.061,0.039-0.119,0.037-0.179c-0.002-0.028-0.02-0.094-0.053-0.195
				c-0.033-0.103-0.052-0.183-0.054-0.241c-0.005-0.116,0.009-0.344,0.04-0.684c0.031-0.339,0.027-0.609-0.01-0.813l-0.024-0.615
				c-0.002-0.059-0.013-0.168-0.034-0.329c-0.021-0.16-0.033-0.299-0.038-0.417c-0.004-0.088-0.018-0.248-0.04-0.48
				c-0.025-0.234-0.039-0.41-0.043-0.528c-0.003-0.059,0.01-0.146,0.033-0.265s0.036-0.207,0.034-0.266
				c-0.001-0.028-0.019-0.08-0.05-0.151c-0.032-0.072-0.049-0.123-0.051-0.153l-0.009-0.22c-0.008-0.205,0.009-0.543,0.05-1.015
				l-0.008-0.176l-0.014-0.353c-0.006-0.146,0.048-0.267,0.162-0.358c-0.002-0.029-0.023-0.05-0.068-0.063
				c-0.044-0.014-0.068-0.05-0.07-0.106c0.055-0.119,0.07-0.273,0.049-0.464c-0.022-0.19-0.021-0.33,0.006-0.419l-0.143-0.26
				c-0.005-0.116-0.018-0.264-0.039-0.438c-0.021-0.176-0.035-0.321-0.039-0.438c-0.006-0.146,0.016-0.367,0.063-0.662
				c-0.003-0.088,0.039-0.135,0.127-0.138c-0.03-0.027-0.063-0.087-0.096-0.174c-0.031-0.086-0.063-0.144-0.094-0.172
				c-0.002-0.059,0.01-0.11,0.037-0.155c0.027-0.046,0.041-0.083,0.041-0.111c-0.004-0.06-0.021-0.146-0.056-0.263
				c-0.033-0.115-0.052-0.188-0.052-0.218c-0.004-0.058,0.009-0.133,0.035-0.222c0.024-0.089,0.037-0.148,0.037-0.178
				c-0.002-0.06-0.008-0.177-0.015-0.353c-0.007-0.177-0.012-0.293-0.014-0.353c0.022-0.147,0.032-0.463,0.028-0.946
				c-0.004-0.485,0.02-0.844,0.069-1.082c-0.001-0.029,0.024-0.067,0.083-0.113s0.085-0.084,0.084-0.112
				c-0.001-0.029-0.003-0.072-0.005-0.132c-0.03-0.027-0.04-0.058-0.026-0.089c0.014-0.027,0.035-0.045,0.064-0.046
				c-0.03-0.026-0.048-0.1-0.053-0.219l0.025-0.483c-0.064-0.114-0.096-0.188-0.097-0.218c-0.001-0.028,0.012-0.072,0.039-0.133
				c0.024-0.062,0.039-0.118,0.037-0.178l-0.048-0.086c-0.002-0.06-0.004-0.104-0.006-0.134c-0.002-0.059,0.01-0.131,0.035-0.22
				c0.024-0.09,0.037-0.147,0.036-0.179c-0.002-0.059-0.005-0.132-0.009-0.22c-0.003-0.089,0.001-0.154,0.016-0.199
				c0.012-0.044,0.024-0.097,0.037-0.155c0.012-0.059,0.039-0.104,0.084-0.135C111.497,9.472,111.547,9.455,111.605,9.453z
				 M113.573,34.119c0.297,0.075,0.581,0.196,0.852,0.362l0.134,0.038c0.062,0.059,0.153,0.179,0.278,0.364
				c0.123,0.187,0.231,0.306,0.322,0.361c0.002,0.088,0.084,0.275,0.241,0.563l0.04,1.055c0.002,0.029-0.048,0.091-0.146,0.183
				c-0.1,0.092-0.162,0.168-0.188,0.228c-0.11,0.182-0.237,0.289-0.384,0.324c-0.17,0.182-0.266,0.317-0.292,0.406
				c-0.439,0.017-0.731,0.072-0.874,0.166c-0.061-0.058-0.18-0.081-0.354-0.074c-0.119,0.004-0.261-0.049-0.426-0.16
				c-0.167-0.109-0.293-0.163-0.381-0.16c-0.035-0.146-0.156-0.243-0.363-0.294c-0.064-0.175-0.143-0.273-0.232-0.3
				c-0.004-0.146-0.063-0.342-0.176-0.588c-0.113-0.244-0.172-0.439-0.178-0.587c-0.007-0.176,0.018-0.294,0.074-0.356l0.162-0.357
				l-0.001-0.044l-0.005-0.087c0-0.029,0.033-0.089,0.104-0.181c0.069-0.091,0.089-0.165,0.058-0.223
				c0.086-0.063,0.186-0.153,0.299-0.276c0.027-0.001,0.172-0.095,0.429-0.279C112.768,34.165,113.105,34.137,113.573,34.119z"/>
		</g>
	</g>
	<g>
		<g>
			<path fill="#BE1E2D" d="M38.791,38.854c-3.126,4.596-8.888,19.597-13.354,12.316c-3.11-5.07,1.572-10.619,1.214-14.189
				c-0.32-3.188-12.295-1.455-14.399-1.733C4.144,34.169,1.696,9.459,18.728,5.255c5.039-1.243,15.317,6.157,17.225,6.401
				c2.387,0.309,4.813-1.354,7.11-0.734c4.729,1.273,8.893,9.611,9.302,14.444c0.603,7.117-3.033,8.748-8.922,10.557L38.791,38.854z
				"/>
			<path fill="#231F20" d="M28.093,53.715c-1.181,0-2.242-0.753-3.153-2.239c-2.123-3.461-0.854-7.153,0.167-10.122
				c0.556-1.617,1.081-3.144,0.964-4.314c-0.054-0.535-0.899-1.434-5.954-1.434c-1.579,0-3.186,0.083-4.603,0.156
				c-1.555,0.08-2.771,0.137-3.34,0.063c-3.613-0.48-6.377-5.195-6.722-11.465C5.041,16.883,8.234,7.244,18.588,4.688
				c0.424-0.104,0.894-0.157,1.397-0.157c3.689,0,8.773,2.776,12.485,4.805c1.581,0.864,3.075,1.68,3.556,1.742
				c1.017,0.13,2.033-0.133,3.127-0.409c1.344-0.341,2.824-0.644,4.061-0.312c5.025,1.354,9.302,9.875,9.731,14.958
				c0.635,7.494-3.249,9.291-9.258,11.142l-4.481,2.825c-0.65,0.976-1.439,2.438-2.272,3.983
				C34.291,48.164,31.297,53.715,28.093,53.715z M20.116,34.44c3.196,0,6.894,0.282,7.114,2.483c0.144,1.426-0.422,3.07-1.021,4.811
				c-0.989,2.878-2.111,6.141-0.276,9.133c0.686,1.115,1.411,1.682,2.159,1.682c2.508,0,5.574-5.686,7.813-9.835
				c0.916-1.697,1.706-3.163,2.402-4.187l0.171-0.166l4.792-2.995c5.652-1.736,9.088-3.146,8.512-9.95
				c-0.394-4.646-4.381-12.721-8.872-13.931c-0.99-0.268-2.212-0.005-3.472,0.314c-1.147,0.291-2.351,0.59-3.563,0.435
				c-0.666-0.085-1.818-0.701-3.966-1.875c-3.398-1.855-8.534-4.661-11.926-4.661c-0.409,0-0.785,0.042-1.118,0.123
				C9.207,8.206,6.23,17.264,6.617,24.297c0.309,5.611,2.71,9.973,5.711,10.372c0.52,0.07,1.7,0.002,3.125-0.071
				C16.885,34.524,18.508,34.44,20.116,34.44z"/>
		</g>
		<path fill="#77111A" d="M42.112,33.701c0,0,2.428-14.439-2.976-18.076c-5.401-3.64,1.241-3.393,4.287-2.983
			c3.046,0.411,12.489,14.178,2.35,20.312C45.211,33.292,42.112,33.701,42.112,33.701z"/>
		<g>
			<path fill="#231F20" d="M50.293,54.474c-0.547,0-1.133-0.031-1.761-0.098c-0.32-0.034-0.552-0.322-0.518-0.643
				c0.035-0.32,0.327-0.555,0.643-0.518c3.494,0.376,6.042-0.411,7.356-2.272c1.209-1.711,1.273-4.308,0.166-6.615
				c-0.505-1.053-1.181-1.898-1.953-2.479c-0.227,0.214-0.458,0.428-0.695,0.644c-3.911,3.544-7.087,3.642-8.615,2.645
				c-0.892-0.58-1.264-1.57-0.949-2.522c0.518-1.565,2.903-3.132,8.063-2.81c0.707,0.043,1.396,0.24,2.043,0.574
				c8.118-7.969,8.685-14.854,6.384-18.749c-2.012-3.404-6.206-4.713-10.438-3.257c-0.307,0.104-0.637-0.059-0.741-0.362
				c-0.104-0.305,0.058-0.637,0.362-0.742c4.767-1.641,9.519-0.127,11.821,3.768c2.51,4.248,2.031,11.625-6.39,19.994
				c0.859,0.686,1.603,1.635,2.158,2.793c1.288,2.684,1.185,5.742-0.265,7.793C56.008,52.974,54.088,54.474,50.293,54.474z
				 M50.713,40.928c-3.88,0-5.372,1.246-5.639,2.05c-0.149,0.454,0.024,0.884,0.479,1.181c0.948,0.616,3.536,0.78,7.195-2.532
				c0.141-0.128,0.28-0.256,0.417-0.383c-0.391-0.157-0.796-0.25-1.206-0.275C51.519,40.941,51.104,40.928,50.713,40.928z"/>
		</g>
		<g>
			<path fill="#FFFFFF" d="M28.061,30.982c-1.427-0.92-4.245-1.562-2.881-3.329c0.473-0.613,1.388-1.413,1.605-2.101
				c0.278-0.883-1.104-1.141-1.917-1.549c-1.446-0.729-1.521-0.773-0.385-1.8c0.466-0.422,1.807-1.539,1.751-2.164
				c-0.046-0.579-1.538-1.306-2.11-1.693c-1.05-0.715-1.93-0.895-0.521-1.96c0.955-0.718,2.306-1.061,1.279-2.028
				c-0.666-0.623-1.662-0.986-2.521-1.436c-0.508-0.238,1.58-1.73,2.27-2.104c0.802-0.373,1.88-0.376,1.149,0.708
				c-0.708,1.055-1.678,0.831-0.162,1.813c0.653,0.428,1.953,1.275,1.685,2.008c-0.27,0.729-2.471,1.723-2.073,1.984
				c1.479,0.908,3.493,2.049,2.038,3.647c-0.548,0.599-1.312,1.354-1.02,1.674c0.438,0.483,1.476,1.004,2.029,1.439
				c0.966,0.762,1.38,0.92,0.705,2.087c-0.372,0.648-1.009,1.078-1.444,1.749c-0.751,1.167,1.006,1.386,2.057,1.939
				c0.497,0.263,1.53,1.4,0.045,1.549C29.136,31.47,28.446,31.266,28.061,30.982z"/>
			<path fill="#FFFFFF" d="M29.79,28.438c0.066,0.657,1.429,1.019,1.727,0.209c0.372-1.008-1.498-1.379-1.732-0.303L29.79,28.438z"
				/>
			<path fill="#FFFFFF" d="M28.61,21.681c-0.63,1.026,1.194,1.483,1.464,0.65C30.326,21.553,29.142,21.107,28.61,21.681z"/>
			<path fill="#FFFFFF" d="M27.589,17.261c0.241,0.991,1.865,0.697,1.685-0.255C29.104,16.106,27.431,16.268,27.589,17.261z"/>
			<path fill="#FFFFFF" d="M26.835,12.624c0.191,0.847,1.514,0.704,1.507-0.072C28.335,11.592,26.773,11.757,26.835,12.624z"/>
			<path fill="#FFFFFF" d="M21.692,15.951c0.942,0.716,2.075-0.655,1.237-1.15C22.064,14.285,20.928,15.26,21.692,15.951z"/>
			<path fill="#FFFFFF" d="M22.746,21.137c0.899,0.355,1.415-0.647,0.944-0.987C22.378,19.468,22.13,20.906,22.746,21.137z"/>
			<path fill="#FFFFFF" d="M23.702,25.902c-0.539,0.675,0.656,1.15,1.117,0.604C25.445,25.762,23.884,25.609,23.702,25.902z"/>
		</g>
		<g>
			<g>
				<defs>
					<path id="SVGID_1_" d="M37.07,38.162c-3.004,4.415-8.226,21.046-12.515,14.052c-2.987-4.869-0.677-13.39-1.021-16.82
						c-0.308-3.061-8.71-0.144-10.732-0.412C5.016,33.943,2.665,10.207,19.025,6.168c4.841-1.194,14.716,5.916,16.548,6.149
						c2.293,0.297,4.623-1.301,6.829-0.705c4.545,1.224,8.544,9.231,8.937,13.875c0.578,6.84-4.719,8.986-10.376,10.727
						L37.07,38.162z"/>
				</defs>
				<clipPath id="SVGID_2_">
					<use xlink:href="#SVGID_1_"  overflow="visible"/>
				</clipPath>
				<g clip-path="url(#SVGID_2_)">
					<path fill="#FFFFFF" d="M31.625,8.333c-0.903,1.31-3.037,2.712-1.385,4.106c0.575,0.486,1.572,1.038,1.957,1.664
						c0.495,0.805-0.572,1.44-1.12,2.066c-0.978,1.12-1.028,1.187,0.218,1.9c0.512,0.298,1.952,1.048,2.098,1.687
						c0.134,0.591-0.886,1.72-1.24,2.265c-0.653,0.998-1.328,1.421,0.157,2.101c1,0.461,2.223,0.436,1.661,1.68
						c-0.364,0.803-1.076,1.435-1.652,2.114c-0.35,0.378,1.821,1.302,2.501,1.489c0.777,0.152,1.67-0.138,0.74-1.021
						c-0.898-0.859-1.631-0.374-0.677-1.767c0.418-0.604,1.237-1.805,0.793-2.46c-0.44-0.653-2.555-1.053-2.304-1.424
						c0.946-1.303,2.271-2.99,0.592-4.193c-0.632-0.451-1.488-0.996-1.344-1.396c0.216-0.601,0.921-1.4,1.249-1.989
						c0.567-1.023,0.86-1.291-0.042-2.275c-0.504-0.547-1.158-0.803-1.719-1.354c-0.969-0.962,0.416-1.658,1.119-2.497
						c0.333-0.397,0.847-1.813-0.425-1.56C32.368,7.558,31.86,7.949,31.625,8.333z"/>
					<path fill="#FFFFFF" d="M33.816,10.406C33.674,9.734,34.692,9,35.184,9.729c0.604,0.903-0.826,1.784-1.345,0.771L33.816,10.406
						z"/>
					<path fill="#FFFFFF" d="M34.861,17.475c-0.826-0.854,0.546-1.805,1.018-1.044C36.32,17.138,35.475,17.903,34.861,17.475z"/>
					<path fill="#FFFFFF" d="M35.341,22.166c-0.099-1.055,1.333-1.201,1.468-0.2C36.936,22.906,35.505,23.2,35.341,22.166z"/>
					<path fill="#FFFFFF" d="M36.104,27.002c-0.096-0.896,1.039-1.113,1.266-0.337C37.652,27.625,36.312,27.887,36.104,27.002z"/>
					<path fill="#FFFFFF" d="M30.861,25.074c0.562-0.968,1.909,0.094,1.365,0.813C31.667,26.636,30.433,25.974,30.861,25.074z"/>
					<path fill="#FFFFFF" d="M30.182,19.608c0.638-0.596,1.361,0.268,1.074,0.731C30.375,21.377,29.739,20.007,30.182,19.608z"/>
					<path fill="#FFFFFF" d="M29.546,14.592c-0.647-0.527,0.195-1.33,0.742-0.905C31.028,14.259,29.782,14.835,29.546,14.592z"/>
				</g>
			</g>
		</g>
	</g>
</g>
</svg>
