<?xml version="1.0" encoding="utf-8"?>
<!-- Generator: Adobe Illustrator 16.0.0, SVG Export Plug-In . SVG Version: 6.00 Build 0)  -->
<!DOCTYPE svg PUBLIC "-//W3C//DTD SVG 1.1//EN" "http://www.w3.org/Graphics/SVG/1.1/DTD/svg11.dtd">
<svg version="1.1" id="Layer_1" xmlns="http://www.w3.org/2000/svg" xmlns:xlink="http://www.w3.org/1999/xlink" x="0px" y="0px"
	 width="230.35px" height="166.425px" viewBox="0 0 230.35 166.425" enable-background="new 0 0 230.35 166.425"
	 xml:space="preserve">
<path fill="#999999" d="M155.18,1.467c-0.14-0.136-0.345-0.188-0.53-0.104l-3.886,1.762c-0.145,0.066-0.218,0.203-0.243,0.352
	c-0.021,0.034-0.02,0.076-0.029,0.115l-10.624,4.815l0.053,0.116l-3.607,1.636c-3.405-3.379-8.656-4.499-13.278-2.405l-3.264,1.479
	l-0.027-0.06L94.532,20.595l0.027,0.063l-13.684,6.201c-0.009,0.002-0.022,0.001-0.037,0.007l-1.89,0.858
	c-0.239,0.108-0.348,0.39-0.239,0.628l6.742,14.883c-0.893-0.189-1.855-0.32-2.92-0.357c-0.088-0.003-0.999-0.004-0.999-0.004
	c-3.04,0-5.504,0.502-7.504,1.364c-1.549-1.402-3.596-2.242-5.812-2.242h-3.084c-0.97,0-1.896-0.002-2.757,0.29
	c-1.303-0.751-2.769-1.29-4.192-1.29h-3.231c-4.742,0-8.6,4.014-8.6,8.756c0,0.074,0.001,0.226,0.003,0.3l0.861,29.359
	c-0.78-0.109-1.611-0.16-2.494-0.187c-0.076-0.002-1.175,0.007-1.175,0.007c-3.729,0-6.699,0.754-9.081,1.751
	c-1.303-0.745-2.778-0.988-4.297-0.988H25.25c-1.924,0-3.706,0.391-5.174,1.345c-2.109-1.63-4.251-2.008-5.438-2.076
	c-0.144-0.008-0.285-0.27-0.43-0.27H9.856c-0.493,0-0.984,0.224-1.468,0.32c-6.952,1.375-7.304,7.371-7.304,8.541
	c0,0.665,0.086,1.259,0.146,1.594c0.024,0.168,0.057,0.358,0.093,0.525l7.295,33.352c0.779,3.908,4.338,6.668,8.81,6.668h4.417
	c2.327,0,4.426-0.799,6.038-2.121c1.658,1.447,3.775,2.121,5.824,2.121h3.85c1.531,0,3.104-0.658,4.481-1.465
	c1.39,1.043,3.159,1.465,5.298,1.465h4.038c1.667,0,3.206-0.464,4.522-1.24c0.625,0.164,1.267,0.24,1.915,0.24h1.767
	c0.317,0,0.895,0.209,1.606,0.219c1.258,0.016,2.908,0.137,4.388,0.137c1.806,0,3.576-0.001,4.552-0.08
	c0.616-0.044,1.188-0.114,1.735-0.238c1.296,0.521,2.481,0.621,3.115,0.621c0.082,0,0.163,0.006,0.245,0.002l13.313-0.427
	c0.147-0.005,0.294-0.022,0.441-0.036c1.354,0.836,3.173,1.645,5.624,1.645c0.403,0,0.842,0.158,1.221,0.158h0.01
	c0.368,0,0.736-0.156,1.104-0.156c3.073,0,5.377-1.186,6.968-2.664c1.581,1.301,3.553,1.82,5.651,1.82h0.787
	c0.872,20,1.497,25.086,1.497,26.594v0.687c0,0.127-0.26,0.254-0.254,0.381c0.271,4.716,3.665,8.009,8.442,8.009
	c4.531,0,7.931-0.502,10.581-1.58c1.498,1.885,3.651,2.91,5.783,2.91h2.985c1.127,0,2.295-0.498,3.364-1.049
	c1.282,0.84,2.774,1.049,4.223,1.049h3.134c2.279,0,4.29-1.107,5.673-2.695c1.296,1.646,3.354,2.695,6.222,2.695h0.449l0.298,0.203
	c0.379,0.02,0.806,0.133,1.211,0.133c4.626,0,6.938-2.179,7.953-4.047c0.529-0.972,0.936-2.014,0.936-3.119v-0.687
	c0-1.888-0.205-3.731-0.278-5.515c-0.063-1.519-0.188-2.965-0.202-4.416c2.914-1.892,4.485-4.828,4.746-8.76
	c0.143-2.111,0.194-4.199,0.194-6.568c0-1.565-0.041-2.954-0.104-4.262c0.495-0.125,1.025-0.315,1.563-0.59
	c0.904,0.242,1.688,0.297,2.162,0.297c0.082,0,0.161,0,0.243-0.004l4.943-0.16l-1.152,3.004l-4.255,11.092l1.28,2.511l36.313,13.929
	l4.254-11.091l5.008-13.052l3.991-9.898h0.293v-0.004l-1.521-2.512l-0.927-0.395c1.528-2.518,2.448-5.678,2.448-9.395v-0.593
	c0-0.442-0.259-0.884-0.337-1.318c-0.727-4.11-2.306-7.409-4.015-10.081c1.568-1.545,2.766-4.008,2.766-7.938
	c0-7.02-4.824-14.574-15.359-14.574c-2.287,0-4.476,0.471-6.449,1.31c-1.266-1.756-3.593-3.532-7.813-3.572l-1.539-0.05
	c-0.083-0.003-0.167-0.004-0.251-0.004c-1.1,0-2.063,0.135-2.93,0.353l5.373-5.376c0.258-0.257,0.258-0.678,0-0.937
	c-0.258-0.261-0.682-0.261-0.938,0l-1.81,1.806l-0.063-0.063c-1.65,1.093-3.55,1.501-5.267,1.213l-12.317-12.318
	c0.489-0.729,0.725-1.484,0.651-2.097c4.181-6.74,0.276-15.574-9.816-20.847c-3.157-1.834-6.411-3.283-9.381-4.498
	c-1.672,1.674-3.346,3.347-5.02,5.02l0,0c-1.771,1.77-3.538,3.54-5.309,5.31c1.215,2.969,2.663,6.221,4.495,9.381
	c5.273,10.089,14.104,13.995,20.849,9.814c0.61,0.076,1.369-0.16,2.099-0.652l12.317,12.32c0.194,1.169,0.061,2.484-0.384,3.685
	c-2.04-0.033-4.582,0.01-5.172,0.01h-5.109c-1.725,0-3.304,0.512-4.665,1.248c-0.787-0.225-1.617-0.248-2.466-0.248h-4.417
	c-1.688,0-3.321,0.469-4.714,1.348c-1.371-0.838-3.021-1.348-4.813-1.348h-7.382c-1.085,0-2.122,0.141-3.079,0.5
	c-0.868-0.285-1.803-0.5-2.789-0.5h-3.137c-0.029-1-0.069-2.286-0.113-3.352c-0.056-1.33-0.109-2.644-0.131-3.911
	c2.899-2.051,4.5-5.154,4.769-9.223c0.146-2.135,0.037-4.252,0.037-6.643c0-2.256,0.631-4.172-0.369-5.976v-0.055
	c0-0.278,0.16-0.752,0.129-1.028c-0.481-4.344-3.879-7.814-8.135-7.814h-3.476c-1.4,0-2.726,0.343-3.89,0.963
	c-1.19-0.622-2.522-0.963-3.895-0.963h-2.595c-1.923,0-3.639,0.671-5.063,1.513c-1.146-0.451-2.384-0.642-3.697-0.75
	c-2.409-0.22-4.975-0.374-7.394-0.374c-1.988,0-3.788,0.541-5.261,1.438c-0.66-0.283-1.351-0.504-2.07-0.672l1.876-0.844
	l0.028,0.065l25.211-11.422l-0.027-0.06l3.264-1.478c4.625-2.096,7.244-6.784,6.945-11.567l3.61-1.636l0.052,0.114l10.622-4.814
	c0.038,0.018,0.069,0.048,0.109,0.056c0.128,0.077,0.277,0.11,0.424,0.046l3.886-1.761c0.188-0.083,0.285-0.27,0.274-0.467
	l0.827-0.375c0.531-0.24,0.763-0.675,0.515-1.218l-1.358-2.794h-0.002l-1.33-3.141c-0.245-0.547-0.879-0.9-1.412-0.659L155.18,1.467
	z M123.221,79.725h-0.797c-0.294,0-0.675,0.014-1.11,0.058v-0.03c0.693-0.308,1.306-0.666,1.878-1.042
	C123.202,79.054,123.211,79.393,123.221,79.725z M154.197,44.769l4.641-4.471v0.025l4.056-4.188
	c2.256,0.946,5.152,2.288,8.031,3.958l0.028-0.029c5.79,3.023,9.637,7.93,10.388,11.93h-20.184h-3.608
	C156.088,49.994,155.056,46.812,154.197,44.769z"/>
<path fill="#999999" d="M168.954,48.175c0.315-0.278,0.352-0.738,0.078-1.05c-0.262-0.296-0.74-0.32-1.041-0.052
	c-0.338,0.305-0.395,0.716-0.14,1.035C168.129,48.457,168.598,48.487,168.954,48.175z"/>
<path fill="#999999" d="M163.92,46.681c0.085-0.068,0.131-0.167,0.057-0.267c-0.069-0.09-0.169-0.11-0.276-0.052
	c-0.074,0.08-0.111,0.175-0.042,0.272C163.725,46.732,163.825,46.76,163.92,46.681z"/>
<path fill="#999999" d="M152.852,26.497c-0.057-0.015-0.111-0.039-0.156-0.072c-0.354-0.252-0.75-0.325-1.179-0.37
	c-0.53-0.054-1.022,0.094-1.532,0.153c-0.25,0.03-0.37,0.259-0.568,0.373c-0.079,0.046-0.176,0.072-0.258,0.118
	c-0.083,0.046-0.184,0.088-0.231,0.165c-0.315,0.495-0.698,0.947-0.968,1.476c-0.149,0.303-0.128,0.628-0.133,0.953
	c-0.008,0.901,0.34,1.663,0.871,2.358c0.373,0.434,0.832,0.751,1.36,0.929c1.268,0.427,2.396,0.084,3.434-0.688
	c0.608-0.678,1.099-1.4,1.105-2.372c0.005-0.77-0.143-1.473-0.62-2.096C153.672,27.027,153.371,26.635,152.852,26.497z"/>
<path fill="#999999" d="M158.723,47.456c0.091,0.261,0.195,0.48,0.408,0.646c0.205,0.16,0.419,0.311,0.633,0.465
	c0.219,0.155,0.461,0.242,0.731,0.226c1.027-0.061,1.83-0.424,2.318-1.428c0.406-0.837,0.162-1.849-0.314-2.361
	c-0.18-0.181-0.263-0.286-0.366-0.364c-0.404-0.309-0.895-0.484-1.377-0.433c-0.617,0.063-1.21,0.3-1.675,0.753
	c-0.072,0.067-0.128,0.163-0.163,0.257c-0.052,0.148-0.044,0.324-0.122,0.452C158.432,46.258,158.509,46.842,158.723,47.456z"/>
<path fill="#999999" d="M158.946,28.03c0.022,0.08,0.063,0.164,0.063,0.245c0.012,0.671,0.392,1.108,0.9,1.472
	c0.162,0.115,0.348,0.234,0.402,0.435c0.099,0.345,0.383,0.474,0.648,0.639c0.37,0.229,0.78,0.357,1.192,0.466
	c0.256,0.065,0.496,0.121,0.668,0.34c0.199,0.26,0.474,0.323,0.766,0.223c0.28-0.098,0.56-0.093,0.845-0.113
	c0.225-0.018,0.463-0.058,0.661-0.149c0.296-0.14,0.582-0.212,0.908-0.195c0.134,0.008,0.303-0.035,0.402-0.114
	c0.396-0.323,0.791-0.651,1.146-1.018c0.185-0.188,0.359-0.373,0.606-0.451c0.271-0.085,0.418-0.265,0.536-0.51
	c0.146-0.31,0.315-0.611,0.329-0.966c0.009-0.214,0.093-0.385,0.246-0.529c0.364-0.344,0.374-0.769,0.188-1.178
	c-0.136-0.305-0.148-0.605-0.148-0.919c0.002-0.255,0.029-0.512,0.042-0.768c0.015-0.378,0.007-0.737-0.319-1.021
	c-0.119-0.105-0.154-0.301-0.244-0.445c-0.229-0.365-0.463-0.722-0.727-1.132c-0.408-0.183-0.726-0.564-1.105-0.863
	c-0.438-0.344-0.896-0.594-1.432-0.71c-0.869-0.188-1.755-0.178-2.636-0.237c-0.092-0.007-0.223,0.078-0.282,0.161
	c-0.229,0.312-0.533,0.39-0.898,0.39c-0.361-0.003-1.036,0.377-1.215,0.677c-0.151,0.257-0.338,0.445-0.613,0.564
	c-0.307,0.135-0.502,0.376-0.54,0.719c-0.048,0.414-0.232,0.757-0.501,1.066c-0.13,0.149-0.225,0.332-0.338,0.496
	c-0.16,0.228-0.223,0.446-0.039,0.707c0.138,0.193,0.144,0.423,0.074,0.658c-0.037,0.135-0.072,0.294-0.034,0.42
	c0.085,0.28,0.092,0.531,0.032,0.827C158.466,27.543,158.853,27.73,158.946,28.03z"/>
<path fill="#999999" d="M156.684,17.075c-0.111-0.162-0.131-0.34-0.144-0.521c-0.005-0.106-0.033-0.172-0.148-0.191
	c-0.085-0.016-0.161-0.069-0.157-0.165c0.01-0.201-0.109-0.278-0.279-0.306c-0.077-0.013-0.121-0.049-0.176-0.109
	c-0.123-0.138-0.242-0.309-0.474-0.245c-0.102-0.057-0.189-0.037-0.278,0.033c-0.045,0.034-0.106,0.028-0.153-0.012
	c-0.036-0.028-0.066-0.064-0.104-0.09c-0.115-0.075-0.199-0.068-0.281,0.054c-0.092,0.135-0.203,0.178-0.355,0.13
	c-0.063-0.021-0.122-0.017-0.179,0.031c-0.132,0.115-0.271,0.216-0.441,0.271c-0.076,0.025-0.112,0.094-0.109,0.176
	c0.001,0.027,0.008,0.055,0.01,0.082c0.005,0.097-0.044,0.157-0.13,0.19c-0.05,0.02-0.106,0.024-0.159,0.045
	c-0.064,0.027-0.094,0.086-0.092,0.155c0,0.036,0.014,0.07,0.029,0.104c0.039,0.09,0.018,0.161-0.061,0.217
	c-0.048,0.033-0.091,0.072-0.072,0.134c0.026,0.101-0.013,0.178-0.068,0.255c-0.049,0.065-0.072,0.131,0.014,0.188
	c0.043,0.028,0.061,0.076,0.049,0.121c-0.036,0.161,0.035,0.306,0.063,0.458c0.02,0.116,0.066,0.207,0.172,0.268
	c0.094,0.055,0.146,0.141,0.146,0.249c0,0.097,0.048,0.149,0.123,0.199c0.06,0.039,0.11,0.092,0.164,0.142
	c0.083,0.075,0.165,0.156,0.272,0.184c0.105,0.025,0.184,0.068,0.235,0.166c0.021,0.045,0.077,0.057,0.122,0.044
	c0.11-0.028,0.196,0.003,0.276,0.077c0.056,0.049,0.121,0.049,0.178,0.004c0.072-0.057,0.154-0.068,0.233-0.045
	c0.216,0.063,0.399-0.01,0.572-0.126c0.107-0.073,0.218-0.137,0.341-0.177c0.072-0.021,0.133-0.059,0.173-0.128
	c0.069-0.123,0.165-0.221,0.272-0.279c0.123-0.118,0.282-0.188,0.26-0.382c-0.002-0.021,0.027-0.046,0.047-0.065
	c0.051-0.056,0.077-0.12,0.09-0.197c0.023-0.16,0.105-0.313,0.04-0.484c-0.015-0.037,0.009-0.09,0.021-0.134
	C156.752,17.282,156.74,17.16,156.684,17.075z"/>
<g>
	<g>
		<g>
			<path fill="#FFFFFF" d="M118.81,164.664c-4.777,0-8.304-3.293-8.574-8.008c-0.007-0.128-0.011-0.255-0.011-0.382v-0.687
				c0-1.563-0.104-7.479-1.069-28.576c-0.005-0.102-0.007-0.202-0.007-0.303c0-2.791,1.312-5.213,3.6-6.646
				c1.055-0.66,2.272-1.011,3.517-1.011h0.979c5.571,0,12.504,0,16.741,5.89c3.348,4.653,3.981,11.677,3.981,23.009v0.393
				c0,0.092-0.002,0.185-0.006,0.275C137.493,159.865,131.765,164.664,118.81,164.664z"/>
			<path fill="#FFFFFF" d="M145.878,166.13c-1.447,0-2.939-0.403-4.223-1.244c-1.069,0.552-2.237,0.855-3.364,0.855h-2.985
				c-2.647,0-7.653-1.785-7.653-8.535c0-0.094,0.002-0.188,0.006-0.279c0.141-3.336,0.141-6.739,0.141-10.344v-5.824
				c0-7.696,0-20.577,15.145-20.577c0,0,0.89,0.001,0.968,0.004c11.614,0.409,12.234,10.657,12.499,15.034
				c0.008,0.133,0.012,0.267,0.012,0.4c0.042,1.873,0.111,9.935,0.196,22.668c0,4.418-3.341,7.844-7.604,7.844h-3.136V166.13z"/>
			<path fill="#FFFFFF" d="M162.864,166.425c-0.405,0-0.832-0.018-1.211-0.036l-0.298-0.013h-0.449c-5.157,0-7.705-3.789-7.89-7.309
				c-0.002-0.051-0.264-8.979-0.264-8.979c-6.452-3.409-6.452-11.866-6.452-14.717c0-0.781,0.016-1.533,0.028-2.229
				c0.011-0.521,0.021-1.005,0.021-1.442v-3.672c0-4.91,3.448-8.339,8.388-8.339h2.595c1.397,0,2.75,0.399,3.923,1.12
				c1.832-1.096,3.708-1.12,3.86-1.12h3.476c3.772,0,6.94,2.913,7.369,6.776c0.026,0.242,0.04,0.486,0.04,0.73v0.09
				c0.133,1.791,0.195,3.685,0.195,5.932c0,2.369-0.066,4.457-0.211,6.568c-0.26,3.932-1.863,6.869-4.777,8.76
				c0.016,1.451,0.075,2.897,0.14,4.416c0.073,1.783,0.149,3.627,0.149,5.515v0.687c0,1.105-0.276,2.195-0.807,3.168
				C169.673,164.199,167.49,166.425,162.864,166.425z"/>
		</g>
		<g>
			<path fill="#FFFFFF" d="M116.264,125.681h0.979c11.503,0,14.098,0.93,14.098,22.271v0.393c-0.244,5.873-1.272,9.691-12.53,9.691
				c-0.49,0-1.86-0.049-1.959-1.763c0-0.049,0,0,0-0.687c0-1.664-0.099-7.488-1.076-28.879
				C115.775,126.317,115.873,125.925,116.264,125.681z M120.866,131.946c0,5.287,0.392,11.161,0.538,16.496
				c0,0.392,0.098,2.938,0.098,3.378c0.049,0.295,0,1.127,0.393,1.37c3.672-0.538,4.405-1.763,4.405-7.44v-1.224l-0.099-1.614
				c-0.392-6.561-0.685-12.043-4.209-12.043c-0.392,0-0.734,0.051-1.126,0.196V131.946z"/>
			<path fill="#FFFFFF" d="M134.424,146.583v-5.826c0-9.691,0.734-13.95,8.519-13.95h0.733c5.58,0.196,5.825,3.965,6.118,8.812
				c0,0.244,0.049,0.539,0.196,22.713c0,0.539-0.294,1.174-0.979,1.174h-3.133c-1.026,0-1.125-1.075-1.125-1.957v-0.832
				c0-1.225-0.05-7.342-0.099-8.565c-0.195-0.44-0.538-0.539-0.979-0.539l-3.621-0.049c-0.589,0-0.883,0.245-0.883,0.979v9.889
				c0,0.293-0.587,0.686-0.881,0.686h-2.985c-0.979,0-1.027-1.076-1.027-1.908C134.424,153.729,134.424,150.302,134.424,146.583z
				 M140.641,142.813c0.195,0,1.908,0.049,2.644,0.099h0.44c0.832,0,1.076-0.638,1.126-1.42c0.049-1.42,0.098-2.691,0.098-3.77
				c0-4.454-0.392-5.729-1.566-5.729c-0.343,0-0.881-0.098-1.614-0.098c-2.007,0.146-2.302,2.496-2.302,4.063v5.238
				C139.466,141.981,139.711,142.765,140.641,142.813z"/>
			<path fill="#FFFFFF" d="M152.976,128.031c0-1.566,0.832-1.714,1.762-1.714h2.595c0.343,0,0.687,0.244,0.881,0.587v0.979
				c0,2.104-0.243,4.16-0.243,6.314v1.42c0,1.664,0.098,4.553,1.713,4.553c1.32,0,2.74-0.246,4.063-0.295
				c0.393-0.146,0.637-0.635,0.637-3.426c0-2.691-0.098-5.336-0.098-7.979v-0.195c0-0.832,0-1.958,0.832-1.958h3.476
				c0.44,0,0.734,0.44,0.783,0.882v0.342c0.146,1.86,0.195,3.721,0.195,5.678c0,1.959-0.049,3.967-0.195,6.119
				c-0.343,5.188-4.355,3.672-4.797,5.482v3.035c0,3.622,0.293,7.098,0.293,10.622v0.687c-0.293,0.537-1.126,0.635-2.007,0.635
				c-0.538,0-1.126-0.049-1.469-0.049h-0.489c-0.637,0-1.224-0.098-1.272-1.027l-0.392-13.461c-0.049-0.734-2.447-0.637-3.084-0.881
				c-2.839-1.225-3.229-5.385-3.229-9.008c0-1.371,0.049-2.644,0.049-3.67v-3.672H152.976z"/>
		</g>
	</g>
	<ellipse fill="#FFFFFF" cx="198.541" cy="109.058" rx="12.307" ry="13.883"/>
	<g>
		<g>
			<path fill="#FFFFFF" d="M56.073,88.833c-6.157,0-9.772-3.568-9.92-9.792c0,0-0.883-30.063-0.883-30.137
				c0-4.743,3.857-8.601,8.6-8.601h3.231c1.425,0,2.89,0.382,4.193,1.134c0.86-0.293,1.786-0.448,2.756-0.448h3.084
				c3.72,0,6.998,2.333,8.16,5.804c0.261,0.775,0.393,1.587,0.393,2.404v0.49c0,0.771,0.051,1.637,0.129,2.95
				c0.211,3.569,0.604,10.213,0.604,26.812c0,3.231-2.09,8.699-9.922,8.699c-1.835,0-3.354-0.312-4.605-0.827
				c-2.045,1.333-4.149,1.487-4.589,1.506c-0.102,0.004-0.201,0.006-0.303,0.006H56.073L56.073,88.833z"/>
			<path fill="#FFFFFF" d="M83.386,89.716c-1.465,0-2.935-0.375-4.238-1.116c-1.073,0.47-2.223,0.724-3.35,0.724h-2.985
				c-4.143,0-8.601-2.968-8.601-9.482c0-0.106,0.002-0.212,0.008-0.319c0.14-3.316,0.14-6.71,0.14-10.304v-5.824
				c0-7.522,0-21.524,16.09-21.524h0.734c0.088,0,0.177,0.001,0.265,0.005c7.165,0.25,10.302,4.375,11.534,6.811
				c1.508,2.98,1.704,6.237,1.878,9.11c0.01,0.152,0.014,0.305,0.014,0.457c0.043,1.853,0.112,9.92,0.196,22.663
				c0,4.956-3.756,8.797-8.552,8.797h-3.133V89.716z"/>
			<path fill="#FFFFFF" d="M91.755,89.619c-4.821,0-8.6-3.865-8.6-8.796l-0.293-29.098v-1.985c0-4.736,3.95-8.307,9.188-8.307
				c2.42,0,4.983,0.204,7.395,0.423c5.385,0.444,9.51,3.867,11.252,9.386c0.984,3.12,1.066,6.289,1.066,9.267v1.714
				c0,2.625,0,6.59-1.73,10.196c-0.92,1.917-2.819,4.707-6.493,6.335v2.803c0,4.445-3.748,8.063-8.354,8.063H91.755z"/>
			<path fill="#FFFFFF" d="M108.447,89.619c-4.822,0-8.6-3.865-8.6-8.796l-0.294-29.098v-1.985c0-4.736,3.948-8.307,9.188-8.307
				c2.419,0,4.983,0.204,7.394,0.423c5.386,0.444,9.511,3.867,11.253,9.386c0.983,3.12,1.065,6.289,1.065,9.267v1.714
				c0,2.625,0,6.59-1.729,10.196c-0.92,1.917-2.819,4.707-6.493,6.335v2.803c0,4.445-3.748,8.063-8.355,8.063H108.447z"/>
			<path fill="#FFFFFF" d="M133.019,90.009c-0.421,0-0.863-0.02-1.256-0.038l-0.275-0.013l-0.427,0.002
				c-5.519,0-8.62-4.127-8.835-8.204c-0.003-0.059-0.248-8.463-0.248-8.463c-6.469-3.815-6.469-12.357-6.469-15.283
				c0-0.788,0.016-1.544,0.028-2.247c0.01-0.514,0.021-0.993,0.021-1.425v-3.671c0-5.467,3.838-9.286,9.334-9.286h2.595
				c1.385,0,2.729,0.348,3.932,0.983c1.366-0.714,2.783-0.983,3.853-0.983h3.476c4.256,0,7.828,3.276,8.311,7.619
				c0.03,0.277,0.046,0.556,0.046,0.834v0.055c0.134,1.804,0.194,3.709,0.194,5.966c0,2.391-0.066,4.498-0.213,6.633
				c-0.269,4.068-1.867,7.151-4.769,9.202c0.021,1.266,0.075,2.54,0.131,3.87c0.074,1.792,0.151,3.646,0.151,5.554v0.686
				c0,1.269-0.318,2.517-0.928,3.63C140.738,87.141,138.372,90.009,133.019,90.009z"/>
		</g>
		<g>
			<path fill="#FFFFFF" d="M63.905,72.157c-0.049-0.734-0.146-2.447-0.146-2.447l-0.392-0.44h-3.378c-0.392,0-0.734,0-0.979,0.049
				c-0.44,0.146-0.538,0.44-0.538,0.881c0,2.203,0.098,5.874,0.098,7.734c0,1.909-0.342,3.279-1.566,3.328h-0.93
				c-2.104,0-2.301-0.343-2.35-2.398l-0.882-29.957c0-0.539,0.44-1.028,1.027-1.028H57.1c0.685,0,0.832,0.588,0.881,1.126
				c0.194,5.237,0.146,9.985,0.489,15.175h4.992c-0.195-6.266-0.343-9.398-0.343-11.797c0-3.476,0.245-3.818,0.93-3.818h3.084
				c0.44,0,0.832,0.195,0.979,0.636v0.49c0,3.524,0.734,6.95,0.734,29.762c0,1.126-1.371,1.126-2.351,1.126
				c-0.783,0-2.35,0-2.35-1.126L63.905,72.157z"/>
			<path fill="#FFFFFF" d="M71.932,69.22v-5.824c0-9.692,0.733-13.951,8.518-13.951h0.734c5.58,0.195,5.824,3.965,6.117,8.811
				c0,0.245,0.051,0.539,0.196,22.713c0,0.539-0.294,1.176-0.979,1.176h-3.133c-1.027,0-1.127-1.077-1.127-1.959v-0.832
				c0-1.224-0.049-7.342-0.098-8.566c-0.195-0.44-0.538-0.538-0.979-0.538l-3.623-0.049c-0.587,0-0.881,0.245-0.881,0.979v9.888
				c0,0.294-0.588,0.685-0.882,0.685h-2.985c-0.979,0-1.027-1.076-1.027-1.908C71.932,76.367,71.932,72.94,71.932,69.22z
				 M78.149,65.451c0.195,0,1.909,0.049,2.644,0.098h0.44c0.832,0,1.077-0.636,1.126-1.419c0.049-1.42,0.098-2.692,0.098-3.77
				c0-4.455-0.392-5.728-1.565-5.728c-0.344,0-0.882-0.098-1.615-0.098c-2.007,0.146-2.301,2.496-2.301,4.063v5.238
				C76.974,64.619,77.219,65.402,78.149,65.451z"/>
			<path fill="#FFFFFF" d="M90.434,49.738c0-0.637,1.32-0.734,1.614-0.734c2.153,0,4.553,0.195,6.706,0.392
				c5.336,0.44,5.435,6.853,5.435,11.111v1.714c0,4.748-0.146,10.279-7.44,10.279h-0.637c-0.195,0.049-0.244,0.098-0.244,0.245
				c0,0.098,0,0.244,0.098,0.342v8.469c0,0.294-0.537,0.489-0.782,0.489h-3.428c-0.686,0-1.026-0.489-1.026-1.224l-0.294-29.174
				L90.434,49.738L90.434,49.738z M95.769,66.626c0.245,0.538,0.539,0.587,1.027,0.587c0.734,0,1.958-0.343,1.958-1.321v-8.077
				c0-1.762-0.294-3.769-2.35-3.769h-0.44c-0.195,0.098-0.244,0.244-0.294,0.392v2.839c0,2.447,0.099,5.482,0.099,7.93V66.626z"/>
			<path fill="#FFFFFF" d="M107.125,49.738c0-0.637,1.321-0.734,1.615-0.734c2.153,0,4.552,0.195,6.706,0.392
				c5.336,0.44,5.434,6.853,5.434,11.111v1.714c0,4.748-0.146,10.279-7.439,10.279h-0.637c-0.195,0.049-0.244,0.098-0.244,0.245
				c0,0.098,0,0.244,0.098,0.342v8.469c0,0.294-0.538,0.489-0.783,0.489h-3.427c-0.686,0-1.027-0.489-1.027-1.224l-0.294-29.174
				L107.125,49.738L107.125,49.738z M112.46,66.626c0.245,0.538,0.539,0.587,1.028,0.587c0.734,0,1.958-0.343,1.958-1.321v-8.077
				c0-1.762-0.294-3.769-2.35-3.769h-0.44c-0.196,0.098-0.245,0.244-0.294,0.392v2.839c0,2.447,0.098,5.482,0.098,7.93V66.626z"/>
			<path fill="#FFFFFF" d="M123.131,50.668c0-1.566,0.832-1.713,1.763-1.713h2.595c0.343,0,0.686,0.244,0.881,0.587v0.979
				c0,2.104-0.244,4.16-0.244,6.314v1.419c0,1.665,0.099,4.553,1.713,4.553c1.321,0,2.741-0.244,4.063-0.294
				c0.392-0.146,0.637-0.636,0.637-3.426c0-2.692-0.098-5.336-0.098-7.979v-0.195c0-0.832,0-1.958,0.832-1.958h3.476
				c0.44,0,0.734,0.44,0.783,0.881v0.343c0.146,1.86,0.195,3.72,0.195,5.678s-0.05,3.965-0.195,6.119
				c-0.343,5.188-4.356,3.671-4.798,5.482v3.035c0,3.622,0.294,7.098,0.294,10.622v0.686c-0.294,0.538-1.126,0.636-2.007,0.636
				c-0.538,0-1.126-0.049-1.47-0.049h-0.488c-0.637,0-1.225-0.098-1.272-1.027l-0.392-13.462c-0.049-0.734-2.447-0.636-3.084-0.881
				c-2.839-1.224-3.23-5.385-3.23-9.007c0-1.371,0.049-2.644,0.049-3.672v-3.671H123.131z"/>
		</g>
	</g>
	<g>
		<g>
			<path fill="#FFFFFF" d="M16.343,128.88c-4.47,0-8.028-2.692-8.809-6.602L0.239,88.996c-0.037-0.166-0.068-0.336-0.093-0.504
				C0.086,88.156,0,87.608,0,86.943c0-1.17,0.353-7.079,7.305-8.452c0.482-0.096,0.976-0.144,1.468-0.144h4.354
				c0.144,0,0.286,0.004,0.43,0.012c1.188,0.067,3.329,0.188,5.438,1.818c1.468-0.955,3.25-1.507,5.174-1.507h4.921
				c2.5,0,4.896,1.097,6.575,3.009c1.213,1.381,1.882,3.156,1.882,4.996v1.076c0,0.578-0.065,1.152-0.196,1.715l-7.47,32.146
				c-0.849,4.299-4.545,7.268-9.118,7.268H16.343z"/>
			<path fill="#FFFFFF" d="M46.252,129.367c-1.855,0-3.721-0.574-5.271-1.697c-1.385,0.815-2.968,1.267-4.51,1.267h-3.85
				c-4.286,0-8.897-3.026-8.897-9.673c0-0.125,0.003-0.25,0.009-0.375c0.18-3.637,0.18-7.366,0.18-11.314v-6.408
				c0-8.574,0-22.924,18.551-22.924c0,0,1.099,0.001,1.174,0.003c14.058,0.422,14.867,11.849,15.213,16.729
				c0.011,0.149,0.017,0.298,0.019,0.448c0.055,2.186,0.146,11.051,0.253,25.021c0,5.029-3.88,8.924-8.834,8.924H46.252z"/>
			<path fill="#FFFFFF" d="M64.489,128.451c-1.479,0-3.13-0.021-4.388-0.037c-0.713-0.008-1.29-0.017-1.606-0.017h-1.767
				c-1.024,0-2.037-0.208-2.979-0.61c-3.108-1.33-5.127-4.381-5.162-7.789c-0.08-4.902-0.238-9.377-0.394-13.705
				c-0.209-5.873-0.427-11.945-0.427-18.865v-0.969c0-0.529,0.056-1.058,0.166-1.574c0.235-1.109,1.787-6.645,9.174-6.645h0.945
				c0.862,0,1.511,0.057,2.031,0.102c0.412,0.036,0.684,0.059,1.125,0.059c2.537,0,8.433,1.096,8.456,11.229l0.273,18.183
				c4.285,0.485,7.741,4.149,7.741,8.433v3.447c0,3.865-2.704,8.202-8.638,8.628C68.063,128.4,66.294,128.451,64.489,128.451z"/>
			<path fill="#FFFFFF" d="M73.891,128.666c-1.685,0-7.27-0.605-8.471-8.398c-0.383-2.484-0.554-6.416-0.554-12.747
				c0-1.688-0.015-3.375-0.031-5.075c-0.016-1.773-0.032-3.561-0.032-5.374c0-3.627,0.063-7.286,0.193-11.188
				c0.034-1.025,0.277-2.033,0.713-2.963c1.485-3.166,4.615-5.056,8.37-5.056h5.11c0.894,0,6.295,0.049,7.596,0.118
				c0.474,0.025,0.943,0.095,1.403,0.208c2.839,0.697,4.973,2.543,6.007,5.197c0.295,0.757,0.467,1.557,0.507,2.37
				c0.072,1.43,0.072,2.716,0.072,4.205c0,0.293-0.018,0.584-0.05,0.873c-0.303,2.596-1.54,4.713-3.397,6.069
				c0.899,1.447,1.492,3.367,1.492,5.878v0.43c0,0.367-0.026,0.734-0.08,1.099l-0.14,0.953c-0.104,1.286-0.468,2.485-1.039,3.542
				c2.715,1.505,4.476,4.423,4.476,7.928c0,0.258-0.013,0.516-0.039,0.771l-0.313,3.07c-0.018,0.162-0.039,0.324-0.065,0.485
				c-0.563,3.338-3.226,6.137-6.628,6.963c-0.506,0.123-1.022,0.192-1.542,0.21l-13.313,0.432
				C74.054,128.664,73.973,128.666,73.891,128.666z"/>
			<path fill="#FFFFFF" d="M95.848,129.634c-0.368,0-0.736-0.02-1.104-0.045l-0.01-0.002c-0.379,0.024-0.816,0.047-1.221,0.047
				c-6.78,0-8.78-4.608-9.232-6.02c-0.235-0.736-0.356-1.503-0.359-2.275l-0.063-15.459c0-2.187-0.047-4.432-0.093-6.604
				c-0.048-2.25-0.098-4.578-0.098-6.893c0-0.42,0.017-1.584,0.033-2.748c0.015-1.071,0.031-2.145,0.031-2.531
				c0-0.37,0.026-0.738,0.081-1.104c0.622-4.216,4.196-7.277,8.501-7.277h7.382c1.792,0,3.442,0.483,4.813,1.322
				c1.394-0.879,3.025-1.375,4.715-1.375h4.417c3.38,0,6.443,1.883,7.807,4.798c0.469,1.004,0.712,2.099,0.712,3.207v0.322
				c0,0.61,0.068,2.084,0.134,3.51c0.109,2.359,0.244,5.295,0.244,7.641c0,0.563,0.037,1.975,0.084,3.83
				c0.092,3.701,0.231,9.294,0.231,13.568c0,1.332-0.02,3.24-0.106,4.772c-0.477,8.246-6.124,8.888-7.844,8.888h-6.437
				c-2.099,0-4.069-0.728-5.65-2.026C101.225,128.656,98.921,129.634,95.848,129.634z"/>
			<path fill="#FFFFFF" d="M126.136,129.151c-4.884,0-8.708-3.776-8.708-8.596c0-4.427,0.016-8.853,0.03-13.277
				c0.011-2.796,0.021-5.591,0.025-8.387c-3.244-0.997-5.988-3.796-5.988-8.661v-0.484c0-10.226,7.534-11.021,9.844-11.021h0.946
				c2.146,0,10.088,0.054,12.426,0.111h-0.001c0.607,0.015,1.749,0.098,2.621,0.229c3.656,0.491,7.417,3.51,7.417,9.226
				c0,0.424-0.026,0.85-0.063,1.239v0.593c0,4.121-2.403,7.545-5.854,8.844l0.048,21.086c0,5.195-3.662,9.1-8.52,9.1
				L126.136,129.151L126.136,129.151z"/>
			<path fill="#FFFFFF" d="M140.711,129.097c-4.557,0-8.288-3.583-8.509-8.069c-0.228-3.084-0.325-5.569-0.325-8.284
				c0-3.953,0.196-8.582,0.516-14.771l0.126-2.201c0.15-2.653,0.321-5.655,0.568-9.043c0.229-4.393,3.958-7.897,8.509-7.897h4.102
				c4.893,0,8.581,3.765,8.581,8.757c0,0.068-0.884,32.24-0.884,32.24c-0.063,4.631-3.281,8.199-7.882,8.729l-3.868,0.479
				C141.334,129.078,141.023,129.097,140.711,129.097z"/>
			<path fill="#FFFFFF" d="M155.098,129.634c-0.368,0-0.736-0.02-1.104-0.045l-0.01-0.002c-0.379,0.024-0.816,0.047-1.221,0.047
				c-6.78,0-8.78-4.608-9.231-6.02c-0.235-0.736-0.356-1.503-0.359-2.275l-0.063-15.459c0-2.187-0.048-4.432-0.094-6.604
				c-0.047-2.25-0.097-4.578-0.097-6.893c0-0.42,0.017-1.584,0.032-2.748c0.017-1.071,0.031-2.145,0.031-2.531
				c0-0.37,0.025-0.738,0.081-1.104c0.621-4.216,4.196-7.277,8.501-7.277h7.382c1.792,0,3.442,0.483,4.813,1.322
				c1.393-0.879,3.024-1.375,4.714-1.375h4.417c3.38,0,6.443,1.883,7.807,4.798c0.469,1.004,0.712,2.099,0.712,3.207v0.322
				c0,0.61,0.068,2.084,0.134,3.51c0.109,2.359,0.244,5.295,0.244,7.641c0,0.563,0.037,1.975,0.084,3.83
				c0.092,3.701,0.231,9.294,0.231,13.568c0,1.332-0.02,3.24-0.106,4.772c-0.477,8.246-6.124,8.888-7.844,8.888h-6.436
				c-2.1,0-4.07-0.728-5.651-2.026C160.475,128.656,158.171,129.634,155.098,129.634z"/>
			<path fill="#FFFFFF" d="M179.833,128.666c-1.684,0-7.27-0.605-8.47-8.398c-0.384-2.484-0.554-6.416-0.554-12.747
				c0-1.688-0.017-3.375-0.031-5.075c-0.018-1.773-0.032-3.561-0.032-5.374c0-3.627,0.063-7.286,0.193-11.188
				c0.034-1.025,0.275-2.033,0.713-2.963c1.485-3.166,4.614-5.056,8.37-5.056h5.109c0.895,0,6.294,0.049,7.596,0.118
				c0.474,0.025,0.942,0.095,1.402,0.208c2.839,0.697,4.974,2.543,6.008,5.197c0.295,0.757,0.467,1.557,0.508,2.37
				c0.07,1.43,0.07,2.716,0.07,4.205c0,0.293-0.017,0.584-0.05,0.873c-0.301,2.596-1.539,4.713-3.396,6.069
				c0.898,1.447,1.491,3.367,1.491,5.878v0.43c0,0.367-0.025,0.734-0.079,1.099l-0.141,0.953c-0.103,1.286-0.467,2.485-1.038,3.542
				c2.715,1.505,4.477,4.423,4.477,7.928c0,0.258-0.014,0.518-0.039,0.773l-0.315,3.07c-0.017,0.162-0.039,0.323-0.064,0.484
				c-0.563,3.338-3.227,6.136-6.628,6.962c-0.507,0.123-1.022,0.192-1.542,0.21l-13.313,0.432
				C179.996,128.664,179.915,128.666,179.833,128.666z"/>
			<path fill="#FFFFFF" d="M197.814,103.244c-2.745,0-4.508-1.24-5.216-1.787c-2.064-1.32-3.371-3.565-3.484-6.029l-0.505-10.936
				c-0.006-0.115-0.008-0.232-0.008-0.349v-0.161c0-2.806,1.912-8.112,9.149-8.112c0.083,0,0.165,0.001,0.248,0.004l1.536,0.05
				c7.544,0.071,9.023,5.691,9.244,6.824c0.151,0.776,0.18,1.57,0.086,2.355c-0.328,2.719-0.495,4.727-0.629,6.34
				C207.895,95.566,207.258,103.244,197.814,103.244z"/>
			<path fill="#FFFFFF" d="M214.219,128.828c-9.397,0-15.712-6.052-15.712-15.06v-1.993c0-0.372,0.021-2.298,0.438-3.707
				c0.44-1.521,1.251-2.841,2.312-3.861c-1.987-2.326-3.693-5.541-3.693-10.151c0-8.75,7.273-15.868,16.217-15.868
				c10.535,0,15.333,7.555,15.333,14.575c0,3.93-1.251,6.394-2.819,7.937c1.709,2.672,3.176,5.971,3.902,10.082
				c0.077,0.436,0.115,0.877,0.115,1.318v0.593C230.309,122.794,224.294,128.828,214.219,128.828z"/>
		</g>
		<g>
			<path fill="#FFFFFF" d="M7.636,87.375c0-0.055-0.063-0.322-0.063-0.432c0-0.754,0.379-0.861,1.199-1.023h4.354
				c0.946,0.055,1.137,0.055,1.577,0.594c0.379,0.484,0.379,1.347,0.505,1.885l3.598,21.546l3.849-22.729
				c0.063-0.7,0.946-0.971,1.515-0.971h4.921c0.38,0,0.694,0.217,0.885,0.432v1.078l-7.51,32.316
				c-0.126,0.809-0.757,1.239-1.702,1.239h-4.417c-0.441,0-1.325-0.106-1.389-0.539L7.636,87.375z"/>
			<path fill="#FFFFFF" d="M31.488,107.574v-6.41c0-10.664,0.946-15.352,10.979-15.352h0.946c7.193,0.216,7.509,4.363,7.887,9.695
				c0,0.27,0.063,0.593,0.254,24.992c0,0.592-0.38,1.293-1.263,1.293h-4.038c-1.324,0-1.451-1.186-1.451-2.154v-0.916
				c0-1.346-0.063-8.079-0.127-9.426c-0.252-0.484-0.692-0.594-1.262-0.594l-4.669-0.054c-0.757,0-1.136,0.271-1.136,1.077v10.881
				c0,0.323-0.757,0.754-1.136,0.754h-3.85c-1.262,0-1.325-1.186-1.325-2.102C31.488,115.438,31.488,111.667,31.488,107.574z
				 M39.5,103.425c0.253,0,2.461,0.055,3.407,0.107h0.568c1.071,0,1.388-0.699,1.45-1.562c0.063-1.563,0.126-2.964,0.126-4.147
				c0-4.9-0.505-6.302-2.019-6.302c-0.442,0-1.136-0.108-2.082-0.108c-2.587,0.162-2.966,2.748-2.966,4.471v5.765
				C37.987,102.509,38.302,103.373,39.5,103.425z"/>
			<path fill="#FFFFFF" d="M55.339,87.429v-0.971c0.126-0.592,1.073-0.646,1.768-0.646h0.945c1.137,0,1.704,0.161,3.155,0.161
				c0.883,0,0.883,2.209,0.883,3.717l0.38,25.208l0.505,0.433h5.993c0.567,0,1.137,0.483,1.137,0.914v3.447
				c0,0.862-0.82,1.023-1.642,1.077c-0.631,0.056-2.208,0.108-3.975,0.108c-2.335,0-5.111-0.055-5.994-0.055h-1.767
				c-0.379-0.162-0.568-0.593-0.568-0.916C55.97,108.166,55.339,99.225,55.339,87.429z"/>
			<path fill="#FFFFFF" d="M74.081,85.436h5.11c1.072,0,6.184,0.054,7.192,0.106c0.441,0.108,0.632,0.271,0.758,0.594
				c0.063,1.238,0.063,2.424,0.063,3.824c-0.063,0.539-0.126,1.022-1.198,1.022h-6.813l-0.567,0.483l0.378,8.889l5.301,0.162
				c0.758,0.054,0.946,1.131,0.946,2.262v0.432l-0.188,1.293c0,0.431-0.126,1.131-0.885,1.131H79.38
				c-0.063,0-0.188,0.107-0.314,0.162l-0.189,0.16l0.315,8.297c0.126,0.592,0.44,1.021,1.262,1.021h6.751
				c1.073,0,1.262,0.7,1.262,1.455l-0.313,3.07c-0.063,0.377-0.505,0.754-0.947,0.861l-13.313,0.43
				c-0.694,0-1.451-0.754-1.451-13.572c0-3.447-0.063-6.895-0.063-10.449c0-3.556,0.063-7.164,0.189-10.936
				C72.819,85.597,73.45,85.436,74.081,85.436z"/>
			<path fill="#FFFFFF" d="M97.867,95.455c-0.126,0-0.188,1.076-0.188,2.854c0,4.579,0.314,13.896,0.314,22.406
				c0,1.187-1.072,1.348-2.145,1.348c-0.379,0-0.759-0.055-1.137-0.055c-0.253,0-0.758,0.055-1.198,0.055
				c-0.884,0-1.829-0.161-2.02-0.754l-0.063-15.459c0-4.471-0.189-8.995-0.189-13.467c0-0.807,0.063-4.471,0.063-5.277
				c0.063-0.432,0.379-0.809,1.01-0.809h7.382c0.505,0,1.136,0.162,1.136,0.593l8.707,24.776l-1.451-24.724
				c0.189-0.377,0.632-0.7,1.137-0.7h4.417c0.314,0,0.819,0.162,0.945,0.432v0.322c0,1.887,0.378,7.435,0.378,11.15
				c0,1.725,0.315,11.042,0.315,17.396c0,3.447-0.126,6.088-0.378,6.088h-6.437c-0.567,0-1.01-0.377-1.263-0.809L97.867,95.455z"/>
			<path fill="#FFFFFF" d="M125.063,94.054V92.6c0-0.108-0.315-0.916-0.694-0.916l-4.164,0.054c-1.136,0-1.136-0.593-1.136-1.508
				v-0.484c0-2.154,0.063-3.447,2.271-3.447h0.946c2.271,0,10.032,0.055,12.241,0.107c0.314,0,1.514,0.107,1.767,0.161
				c0.693,0.054,0.883,0.916,0.883,1.724c0,0.377-0.063,0.754-0.063,1.023v0.809c0,0.969-0.568,1.832-1.389,1.832l-4.479,0.215
				l0.063,27.9c0,0.594-0.189,1.51-0.947,1.51h-4.228c-0.567,0-1.136-0.324-1.136-1.023C125,111.721,125.063,102.888,125.063,94.054
				z"/>
			<path fill="#FFFFFF" d="M139.45,112.744c0-3.717,0.189-8.24,0.505-14.382c0.189-3.231,0.379-6.896,0.694-11.202
				c0-0.377,0.44-0.754,0.946-0.754h4.102c0.82,0,1.009,0.592,1.009,1.184l-0.883,32.104c0,0.646-0.189,1.239-1.199,1.348
				l-3.912,0.484c-0.566,0-0.945-0.484-0.945-0.916C139.576,118.078,139.45,115.653,139.45,112.744z"/>
			<path fill="#FFFFFF" d="M157.117,95.455c-0.126,0-0.188,1.076-0.188,2.854c0,4.579,0.314,13.896,0.314,22.406
				c0,1.187-1.072,1.348-2.145,1.348c-0.379,0-0.759-0.055-1.137-0.055c-0.253,0-0.758,0.055-1.198,0.055
				c-0.884,0-1.829-0.161-2.02-0.754l-0.063-15.459c0-4.471-0.189-8.995-0.189-13.467c0-0.807,0.063-4.471,0.063-5.277
				c0.063-0.432,0.379-0.809,1.01-0.809h7.382c0.505,0,1.136,0.162,1.136,0.593l8.707,24.776l-1.451-24.724
				c0.189-0.377,0.632-0.7,1.137-0.7h4.417c0.314,0,0.819,0.162,0.945,0.432v0.322c0,1.887,0.378,7.435,0.378,11.15
				c0,1.725,0.315,11.042,0.315,17.396c0,3.447-0.126,6.088-0.378,6.088h-6.437c-0.567,0-1.01-0.377-1.263-0.809L157.117,95.455z"/>
			<path fill="#FFFFFF" d="M180.022,85.436h5.109c1.071,0,6.184,0.054,7.192,0.106c0.441,0.108,0.631,0.271,0.757,0.594
				c0.063,1.238,0.063,2.424,0.063,3.824c-0.063,0.539-0.126,1.022-1.198,1.022h-6.813l-0.566,0.483l0.378,8.889l5.299,0.162
				c0.758,0.054,0.947,1.131,0.947,2.262v0.432l-0.19,1.293c0,0.431-0.126,1.131-0.884,1.131h-4.794
				c-0.063,0-0.189,0.107-0.315,0.162l-0.188,0.16l0.314,8.297c0.126,0.592,0.441,1.021,1.262,1.021h6.751
				c1.072,0,1.263,0.7,1.263,1.455l-0.315,3.07c-0.063,0.377-0.505,0.754-0.946,0.861l-13.313,0.43
				c-0.693,0-1.451-0.754-1.451-13.572c0-3.447-0.063-6.895-0.063-10.449c0-3.556,0.063-7.164,0.188-10.936
				C178.76,85.597,179.391,85.436,180.022,85.436z"/>
			<path fill="#FFFFFF" d="M199.391,83.496c0.884,0,1.83,0.054,1.956,0.7c-1.325,10.988-0.189,11.474-3.533,11.474
				c-0.505,0-0.567-0.27-1.136-0.592l-0.506-10.936v-0.161c0-0.485,0.885-0.539,1.578-0.539L199.391,83.496z"/>
			<path fill="#FFFFFF" d="M206.08,111.774c0-0.269,0.063-1.347,0.127-1.562c0.063-0.217,0.315-0.7,0.631-0.7h1.072
				c0.757,0,1.515,0,2.587,0.054c2.397,0.323,0,6.787,3.092,7.057c0.441,0.055,0.884,0.055,1.263,0.055
				c1.83,0,2.02-0.594,2.02-1.939V113.5c0-0.377-0.063-0.701-0.127-1.131c-1.893-11.259-11.609-9.857-11.609-18.313
				c0-4.201,3.66-8.296,8.646-8.296c6.562,0,7.761,4.472,7.761,7.003c0,1.347,0,2.854-1.641,2.963c-0.189,0-1.577,0.161-2.271,0.161
				h-0.314c-0.189,0-1.072-0.161-1.072-0.432c-0.316-3.824-1.389-4.31-2.146-4.31c-2.021,0-3.155,1.187-3.155,2.963
				c0,3.718,9.78,6.571,11.799,17.99v0.593c0,6.303-3.028,8.564-8.518,8.564c-4.858,0-8.141-2.316-8.141-7.487v-1.994H206.08z"/>
		</g>
	</g>
	<g>
		<path fill="#6A2242" d="M63.905,72.157c-0.049-0.734-0.146-2.447-0.146-2.447l-0.392-0.44h-3.378c-0.392,0-0.734,0-0.979,0.049
			c-0.44,0.146-0.538,0.44-0.538,0.881c0,2.203,0.098,5.874,0.098,7.734c0,1.909-0.342,3.279-1.566,3.328h-0.93
			c-2.104,0-2.301-0.343-2.35-2.398l-0.882-29.957c0-0.539,0.44-1.028,1.027-1.028H57.1c0.685,0,0.832,0.588,0.881,1.126
			c0.194,5.237,0.146,9.985,0.489,15.175h4.992c-0.195-6.266-0.343-9.398-0.343-11.797c0-3.476,0.245-3.818,0.93-3.818h3.084
			c0.44,0,0.832,0.195,0.979,0.636v0.49c0,3.524,0.734,6.95,0.734,29.762c0,1.126-1.371,1.126-2.351,1.126
			c-0.783,0-2.35,0-2.35-1.126L63.905,72.157z"/>
		<path fill="#6A2242" d="M71.932,69.22v-5.824c0-9.692,0.733-13.951,8.518-13.951h0.734c5.58,0.195,5.824,3.965,6.117,8.811
			c0,0.245,0.051,0.539,0.196,22.713c0,0.539-0.294,1.176-0.979,1.176h-3.133c-1.027,0-1.127-1.077-1.127-1.959v-0.832
			c0-1.224-0.049-7.342-0.098-8.566c-0.195-0.44-0.538-0.538-0.979-0.538l-3.623-0.049c-0.587,0-0.881,0.245-0.881,0.979v9.888
			c0,0.294-0.588,0.685-0.882,0.685h-2.985c-0.979,0-1.027-1.076-1.027-1.908C71.932,76.367,71.932,72.94,71.932,69.22z
			 M78.149,65.451c0.195,0,1.909,0.049,2.644,0.098h0.44c0.832,0,1.077-0.636,1.126-1.419c0.049-1.42,0.098-2.692,0.098-3.77
			c0-4.455-0.392-5.728-1.565-5.728c-0.344,0-0.882-0.098-1.615-0.098c-2.007,0.146-2.301,2.496-2.301,4.063v5.238
			C76.974,64.619,77.219,65.402,78.149,65.451z"/>
		<path fill="#6A2242" d="M90.434,49.738c0-0.637,1.32-0.734,1.614-0.734c2.153,0,4.553,0.195,6.706,0.392
			c5.336,0.44,5.435,6.853,5.435,11.111v1.714c0,4.748-0.146,10.279-7.44,10.279h-0.637c-0.195,0.049-0.244,0.098-0.244,0.245
			c0,0.098,0,0.244,0.098,0.342v8.469c0,0.294-0.537,0.489-0.782,0.489h-3.428c-0.686,0-1.026-0.489-1.026-1.224l-0.294-29.174
			L90.434,49.738L90.434,49.738z M95.769,66.626c0.245,0.538,0.539,0.587,1.027,0.587c0.734,0,1.958-0.343,1.958-1.321v-8.077
			c0-1.762-0.294-3.769-2.35-3.769h-0.44c-0.195,0.098-0.244,0.244-0.294,0.392v2.839c0,2.447,0.099,5.482,0.099,7.93V66.626z"/>
		<path fill="#6A2242" d="M107.125,49.738c0-0.637,1.321-0.734,1.615-0.734c2.153,0,4.552,0.195,6.706,0.392
			c5.336,0.44,5.434,6.853,5.434,11.111v1.714c0,4.748-0.146,10.279-7.439,10.279h-0.637c-0.195,0.049-0.244,0.098-0.244,0.245
			c0,0.098,0,0.244,0.098,0.342v8.469c0,0.294-0.538,0.489-0.783,0.489h-3.427c-0.686,0-1.027-0.489-1.027-1.224l-0.294-29.174
			L107.125,49.738L107.125,49.738z M112.46,66.626c0.245,0.538,0.539,0.587,1.028,0.587c0.734,0,1.958-0.343,1.958-1.321v-8.077
			c0-1.762-0.294-3.769-2.35-3.769h-0.44c-0.196,0.098-0.245,0.244-0.294,0.392v2.839c0,2.447,0.098,5.482,0.098,7.93V66.626z"/>
		<path fill="#6A2242" d="M123.131,50.668c0-1.566,0.832-1.713,1.763-1.713h2.595c0.343,0,0.686,0.244,0.881,0.587v0.979
			c0,2.104-0.244,4.16-0.244,6.314v1.419c0,1.665,0.099,4.553,1.713,4.553c1.321,0,2.741-0.244,4.063-0.294
			c0.392-0.146,0.637-0.636,0.637-3.426c0-2.692-0.098-5.336-0.098-7.979v-0.195c0-0.832,0-1.958,0.832-1.958h3.476
			c0.44,0,0.734,0.44,0.783,0.881v0.343c0.146,1.86,0.195,3.72,0.195,5.678s-0.05,3.965-0.195,6.119
			c-0.343,5.188-4.356,3.671-4.798,5.482v3.035c0,3.622,0.294,7.098,0.294,10.622v0.686c-0.294,0.538-1.126,0.636-2.007,0.636
			c-0.538,0-1.126-0.049-1.47-0.049h-0.488c-0.637,0-1.225-0.098-1.272-1.027l-0.392-13.462c-0.049-0.734-2.447-0.636-3.084-0.881
			c-2.839-1.224-3.23-5.385-3.23-9.007c0-1.371,0.049-2.644,0.049-3.672v-3.671H123.131z"/>
	</g>
	<g>
		<path fill="#6A2242" d="M89.685,47.512l42.16-19.101c4.625-2.096,7.244-6.784,6.945-11.567l14.145-6.409
			c0.138,0.135,0.345,0.178,0.527,0.094l3.884-1.759c0.188-0.085,0.288-0.268,0.276-0.459l0.831-0.376
			c0.528-0.24,0.767-0.864,0.526-1.396l-2.614-5.767c-0.239-0.53-0.864-0.764-1.396-0.523l-0.83,0.376
			c-0.138-0.135-0.345-0.182-0.526-0.097l-3.884,1.757c-0.188,0.087-0.289,0.272-0.275,0.463l-14.144,6.41
			c-3.405-3.379-8.656-4.499-13.278-2.405L79.876,25.857c-0.009,0.002-0.022,0.001-0.037,0.007l-1.89,0.858
			c-0.239,0.108-0.348,0.39-0.239,0.628l9.425,20.805c0.107,0.236,0.396,0.343,0.631,0.234l1.894-0.856
			C89.669,47.528,89.676,47.52,89.685,47.512z"/>
		<path fill="#48172D" d="M131.845,28.411c4.625-2.096,7.244-6.784,6.945-11.567l14.145-6.409c0.138,0.135,0.345,0.178,0.527,0.094
			l3.884-1.759c0.188-0.085,0.288-0.268,0.276-0.459l0.831-0.376c0.528-0.24,0.767-0.864,0.526-1.396l-1.32-2.912L82.41,37.723
			l4.725,10.433c0.107,0.236,0.396,0.343,0.631,0.234l1.894-0.856c0.011-0.005,0.018-0.014,0.026-0.021L131.845,28.411z"/>
		<path fill="#EF6159" d="M142.454,15.322l10.627-4.816c0.14,0.14,0.344,0.186,0.528,0.104l3.886-1.761
			c0.188-0.083,0.285-0.27,0.274-0.467l0.827-0.375c0.531-0.24,0.763-0.881,0.515-1.425l-2.69-5.935
			c-0.245-0.547-0.879-0.797-1.412-0.556l-0.827,0.375c-0.14-0.136-0.345-0.188-0.53-0.104l-3.886,1.762
			c-0.183,0.084-0.281,0.273-0.271,0.466l-10.627,4.816L142.454,15.322z"/>
		<path fill="#D65750" d="M157.769,8.382l0.827-0.375c0.531-0.24,0.763-0.881,0.515-1.425l-1.358-3l-17.106,7.751l1.809,3.989
			l10.627-4.816c0.14,0.14,0.344,0.186,0.528,0.104l3.886-1.761C157.681,8.766,157.78,8.579,157.769,8.382z"/>
		
			<rect x="97.235" y="12.815" transform="matrix(-0.9109 0.4127 -0.4127 -0.9109 222.4711 1.4962)" fill="#EF6159" width="27.679" height="23.911"/>
		
			<rect x="99.695" y="24.208" transform="matrix(-0.9109 0.4127 -0.4127 -0.9109 229.4146 10.8569)" fill="#D65750" width="27.68" height="11.988"/>
	</g>
	<g>
		<path fill="#EF6159" d="M7.636,87.375c0-0.055-0.063-0.322-0.063-0.432c0-0.754,0.379-0.861,1.199-1.023h4.354
			c0.946,0.055,1.137,0.055,1.577,0.594c0.379,0.484,0.379,1.347,0.505,1.885l3.598,21.546l3.849-22.729
			c0.063-0.7,0.946-0.971,1.515-0.971h4.921c0.38,0,0.694,0.217,0.885,0.432v1.078l-7.51,32.316
			c-0.126,0.809-0.757,1.239-1.702,1.239h-4.417c-0.441,0-1.325-0.106-1.389-0.539L7.636,87.375z"/>
		<path fill="#EF6159" d="M31.488,107.574v-6.41c0-10.664,0.946-15.352,10.979-15.352h0.946c7.193,0.216,7.509,4.363,7.887,9.695
			c0,0.27,0.063,0.593,0.254,24.992c0,0.592-0.38,1.293-1.263,1.293h-4.038c-1.324,0-1.451-1.186-1.451-2.154v-0.916
			c0-1.346-0.063-8.079-0.127-9.426c-0.252-0.484-0.692-0.594-1.262-0.594l-4.669-0.054c-0.757,0-1.136,0.271-1.136,1.077v10.881
			c0,0.323-0.757,0.754-1.136,0.754h-3.85c-1.262,0-1.325-1.186-1.325-2.102C31.488,115.438,31.488,111.667,31.488,107.574z
			 M39.5,103.425c0.253,0,2.461,0.055,3.407,0.107h0.568c1.071,0,1.388-0.699,1.45-1.562c0.063-1.563,0.126-2.964,0.126-4.147
			c0-4.9-0.505-6.302-2.019-6.302c-0.442,0-1.136-0.108-2.082-0.108c-2.587,0.162-2.966,2.748-2.966,4.471v5.765
			C37.987,102.509,38.302,103.373,39.5,103.425z"/>
		<path fill="#EF6159" d="M55.339,87.429v-0.971c0.126-0.592,1.073-0.646,1.768-0.646h0.945c1.137,0,1.704,0.161,3.155,0.161
			c0.883,0,0.883,2.209,0.883,3.717l0.38,25.208l0.505,0.433h5.993c0.567,0,1.137,0.483,1.137,0.914v3.447
			c0,0.862-0.82,1.023-1.642,1.077c-0.631,0.056-2.208,0.108-3.975,0.108c-2.335,0-5.111-0.055-5.994-0.055h-1.767
			c-0.379-0.162-0.568-0.593-0.568-0.916C55.97,108.166,55.339,99.225,55.339,87.429z"/>
		<path fill="#EF6159" d="M74.081,85.436h5.11c1.072,0,6.184,0.054,7.192,0.106c0.441,0.108,0.632,0.271,0.758,0.594
			c0.063,1.238,0.063,2.424,0.063,3.824c-0.063,0.539-0.126,1.022-1.198,1.022h-6.813l-0.567,0.483l0.378,8.889l5.301,0.162
			c0.758,0.054,0.946,1.131,0.946,2.262v0.432l-0.188,1.293c0,0.431-0.126,1.131-0.885,1.131H79.38
			c-0.063,0-0.188,0.107-0.314,0.162l-0.189,0.16l0.315,8.297c0.126,0.592,0.44,1.021,1.262,1.021h6.751
			c1.073,0,1.262,0.7,1.262,1.455l-0.313,3.07c-0.063,0.377-0.505,0.754-0.947,0.861l-13.313,0.43
			c-0.694,0-1.451-0.754-1.451-13.572c0-3.447-0.063-6.895-0.063-10.449c0-3.556,0.063-7.164,0.189-10.936
			C72.819,85.597,73.45,85.436,74.081,85.436z"/>
		<path fill="#EF6159" d="M97.868,95.455c-0.126,0-0.188,1.076-0.188,2.854c0,4.579,0.314,13.896,0.314,22.406
			c0,1.187-1.072,1.348-2.145,1.348c-0.379,0-0.759-0.055-1.137-0.055c-0.253,0-0.758,0.055-1.198,0.055
			c-0.884,0-1.829-0.161-2.02-0.754l-0.063-15.459c0-4.471-0.189-8.995-0.189-13.467c0-0.807,0.063-4.471,0.063-5.277
			c0.063-0.432,0.379-0.809,1.01-0.809h7.382c0.505,0,1.136,0.162,1.136,0.593l8.707,24.776l-1.451-24.724
			c0.189-0.377,0.632-0.7,1.137-0.7h4.417c0.314,0,0.819,0.162,0.945,0.432v0.322c0,1.887,0.378,7.435,0.378,11.15
			c0,1.725,0.315,11.042,0.315,17.396c0,3.447-0.126,6.088-0.378,6.088h-6.437c-0.567,0-1.01-0.377-1.263-0.809L97.868,95.455z"/>
		<path fill="#EF6159" d="M125.063,94.054V92.6c0-0.108-0.315-0.916-0.694-0.916l-4.164,0.054c-1.136,0-1.136-0.593-1.136-1.508
			v-0.484c0-2.154,0.063-3.447,2.271-3.447h0.946c2.271,0,10.032,0.055,12.241,0.107c0.314,0,1.514,0.107,1.767,0.161
			c0.693,0.054,0.883,0.916,0.883,1.724c0,0.377-0.063,0.754-0.063,1.023v0.809c0,0.969-0.568,1.832-1.389,1.832l-4.479,0.215
			l0.063,27.9c0,0.594-0.189,1.51-0.947,1.51h-4.228c-0.567,0-1.136-0.324-1.136-1.023C125,111.721,125.063,102.888,125.063,94.054z
			"/>
		<path fill="#EF6159" d="M139.45,112.744c0-3.717,0.189-8.24,0.505-14.382c0.189-3.231,0.379-6.896,0.694-11.202
			c0-0.377,0.44-0.754,0.946-0.754h4.102c0.82,0,1.009,0.592,1.009,1.184l-0.883,32.104c0,0.646-0.189,1.239-1.199,1.348
			l-3.912,0.484c-0.566,0-0.945-0.484-0.945-0.916C139.576,118.078,139.45,115.653,139.45,112.744z"/>
		<path fill="#EF6159" d="M157.117,95.455c-0.126,0-0.188,1.076-0.188,2.854c0,4.579,0.314,13.896,0.314,22.406
			c0,1.187-1.072,1.348-2.145,1.348c-0.379,0-0.759-0.055-1.137-0.055c-0.253,0-0.758,0.055-1.198,0.055
			c-0.884,0-1.829-0.161-2.02-0.754l-0.063-15.459c0-4.471-0.189-8.995-0.189-13.467c0-0.807,0.063-4.471,0.063-5.277
			c0.063-0.432,0.379-0.809,1.01-0.809h7.382c0.505,0,1.136,0.162,1.136,0.593l8.707,24.776l-1.451-24.724
			c0.189-0.377,0.632-0.7,1.137-0.7h4.417c0.314,0,0.819,0.162,0.945,0.432v0.322c0,1.887,0.378,7.435,0.378,11.15
			c0,1.725,0.315,11.042,0.315,17.396c0,3.447-0.126,6.088-0.378,6.088h-6.437c-0.567,0-1.01-0.377-1.263-0.809L157.117,95.455z"/>
		<path fill="#EF6159" d="M180.022,85.436h5.109c1.071,0,6.184,0.054,7.192,0.106c0.441,0.108,0.631,0.271,0.757,0.594
			c0.063,1.238,0.063,2.424,0.063,3.824c-0.063,0.539-0.126,1.022-1.198,1.022h-6.813l-0.566,0.483l0.378,8.889l5.299,0.162
			c0.758,0.054,0.947,1.131,0.947,2.262v0.432l-0.19,1.293c0,0.431-0.126,1.131-0.884,1.131h-4.794
			c-0.063,0-0.189,0.107-0.315,0.162l-0.188,0.16l0.314,8.297c0.126,0.592,0.441,1.021,1.262,1.021h6.751
			c1.072,0,1.263,0.7,1.263,1.455l-0.315,3.07c-0.063,0.377-0.505,0.754-0.946,0.861l-13.313,0.43
			c-0.693,0-1.451-0.754-1.451-13.572c0-3.447-0.063-6.895-0.063-10.449c0-3.556,0.063-7.164,0.188-10.936
			C178.76,85.597,179.391,85.436,180.022,85.436z"/>
		<path fill="#EF6159" d="M199.391,83.496c0.884,0,1.83,0.054,1.956,0.7c-1.325,10.988-0.189,11.474-3.533,11.474
			c-0.505,0-0.567-0.27-1.136-0.592l-0.506-10.936v-0.161c0-0.485,0.885-0.539,1.578-0.539L199.391,83.496z"/>
		<path fill="#EF6159" d="M206.08,111.774c0-0.269,0.063-1.347,0.127-1.562c0.063-0.217,0.315-0.7,0.631-0.7h1.072
			c0.757,0,1.515,0,2.587,0.054c2.397,0.323,0,6.787,3.092,7.057c0.441,0.055,0.884,0.055,1.263,0.055c1.83,0,2.02-0.594,2.02-1.939
			V113.5c0-0.377-0.063-0.701-0.127-1.131c-1.893-11.259-11.609-9.857-11.609-18.313c0-4.201,3.66-8.296,8.646-8.296
			c6.562,0,7.761,4.472,7.761,7.003c0,1.347,0,2.854-1.641,2.963c-0.189,0-1.577,0.161-2.271,0.161h-0.314
			c-0.189,0-1.072-0.161-1.072-0.432c-0.316-3.824-1.389-4.31-2.146-4.31c-2.021,0-3.155,1.187-3.155,2.963
			c0,3.718,9.78,6.571,11.799,17.99v0.593c0,6.303-3.028,8.564-8.518,8.564c-4.858,0-8.141-2.316-8.141-7.487v-1.994H206.08z"/>
	</g>
	<g>
		<g>
			<path fill="#83192D" d="M181.006,51.138c0.441,3.157-0.544,6.276-3.131,8.862c-6.35,6.349-15.897,3.063-21.335-7.337
				c-0.294-0.508-0.563-1.017-0.837-1.525H181.006z"/>
			<path fill="#4A141B" d="M160.157,51.138c4.682,8.565,12.67,11.215,18.01,5.875c1.745-1.744,2.626-3.771,2.738-5.875h0.102
				c0.441,3.157-0.544,6.276-3.131,8.862c-6.35,6.349-15.897,3.063-21.335-7.337c-0.294-0.508-0.563-1.017-0.837-1.525H160.157z"/>
			<path fill="#F2EFDC" d="M187.815,81.437l1.807-1.81l-0.063-0.061c1.092-1.653,1.5-3.55,1.213-5.268l-12.317-12.32
				c-0.729,0.492-1.487,0.729-2.099,0.652c-6.744,4.181-15.574,0.274-20.849-9.814c-1.832-3.16-3.28-6.412-4.495-9.381
				c3.442-3.443,6.887-6.885,10.327-10.329c2.97,1.215,6.224,2.664,9.381,4.498c10.094,5.272,13.996,14.106,9.816,20.847
				c0.072,0.612-0.162,1.368-0.652,2.097l12.318,12.318c1.717,0.288,3.615-0.12,5.267-1.213l0.063,0.063l1.809-1.806
				c0.259-0.261,0.683-0.261,0.939,0c0.258,0.259,0.258,0.68,0,0.937l-11.528,11.531c-0.259,0.259-0.679,0.259-0.938,0
				C187.553,82.117,187.553,81.695,187.815,81.437z M180.368,51.276c-0.693-4.547-4.602-9.083-10.451-12.138l-0.063-0.039
				c-2.879-1.67-5.851-3.006-8.105-3.952l-8.694,8.693c0.946,2.253,2.278,5.224,3.952,8.104l0.037,0.068
				c3.405,6.515,8.615,10.563,13.6,10.563c1.678,0,3.29-0.48,4.765-1.379l3.705-3.705C180.268,55.601,180.709,53.493,180.368,51.276
				z"/>
			<path fill="#DCDAC8" d="M176.356,62.631c-6.744,4.181-15.574,0.274-20.849-9.814c-1.832-3.16-3.28-6.412-4.495-9.381
				c1.771-1.77,3.538-3.54,5.309-5.31l1.225,1.224l-4.494,4.491c0.947,2.253,2.279,5.224,3.953,8.104l0.037,0.068
				c3.405,6.515,8.615,10.563,13.6,10.563c1.678,0,3.29-0.48,4.765-1.379l1.995-1.994l17.263,17.264l-5.909,5.91
				c-0.259,0.259-0.679,0.259-0.938,0c-0.262-0.261-0.262-0.683,0-0.941l1.807-1.81l-0.063-0.061c1.092-1.653,1.5-3.55,1.213-5.268
				l-12.317-12.32C177.725,62.471,176.967,62.707,176.356,62.631z"/>
		</g>
		<g>
			<path fill="#6A2242" d="M181.006,51.138c0.441,3.157-0.544,6.276-3.131,8.862c-6.35,6.349-15.897,3.063-21.335-7.337
				c-0.294-0.508-0.563-1.017-0.837-1.525H181.006z"/>
			<path fill="#48172D" d="M160.157,51.138c4.682,8.565,12.67,11.215,18.01,5.875c1.745-1.744,2.626-3.771,2.738-5.875h0.102
				c0.441,3.157-0.544,6.276-3.131,8.862c-6.35,6.349-15.897,3.063-21.335-7.337c-0.294-0.508-0.563-1.017-0.837-1.525H160.157z"/>
			<path fill="#FFFFFF" d="M187.815,81.437l1.807-1.81l-0.063-0.061c1.092-1.653,1.5-3.55,1.213-5.268l-12.317-12.32
				c-0.729,0.492-1.487,0.729-2.099,0.652c-6.744,4.181-15.574,0.274-20.849-9.814c-1.832-3.16-3.28-6.412-4.495-9.381
				c3.442-3.443,6.887-6.885,10.327-10.329c2.97,1.215,6.224,2.664,9.381,4.498c10.094,5.272,13.996,14.106,9.816,20.847
				c0.072,0.612-0.162,1.368-0.652,2.097l12.318,12.318c1.717,0.288,3.615-0.12,5.267-1.213l0.063,0.063l1.809-1.806
				c0.259-0.261,0.683-0.261,0.939,0c0.258,0.259,0.258,0.68,0,0.937l-11.528,11.531c-0.259,0.259-0.679,0.259-0.938,0
				C187.553,82.117,187.553,81.695,187.815,81.437z M180.368,51.276c-0.693-4.547-4.602-9.083-10.451-12.138l-0.063-0.039
				c-2.879-1.67-5.851-3.006-8.105-3.952l-8.694,8.693c0.946,2.253,2.278,5.224,3.952,8.104l0.037,0.068
				c3.405,6.515,8.615,10.563,13.6,10.563c1.678,0,3.29-0.48,4.765-1.379l3.705-3.705C180.268,55.601,180.709,53.493,180.368,51.276
				z"/>
			<path fill="#FFFFFF" d="M176.356,62.631c-6.744,4.181-15.574,0.274-20.849-9.814c-1.832-3.16-3.28-6.412-4.495-9.381
				c1.771-1.77,3.538-3.54,5.309-5.31l1.225,1.224l-4.494,4.491c0.947,2.253,2.279,5.224,3.953,8.104l0.037,0.068
				c3.405,6.515,8.615,10.563,13.6,10.563c1.678,0,3.29-0.48,4.765-1.379l1.995-1.994l17.263,17.264l-5.909,5.91
				c-0.259,0.259-0.679,0.259-0.938,0c-0.262-0.261-0.262-0.683,0-0.941l1.807-1.81l-0.063-0.061c1.092-1.653,1.5-3.55,1.213-5.268
				l-12.317-12.32C177.725,62.471,176.967,62.707,176.356,62.631z"/>
		</g>
	</g>
	<g>
		<g>
			<g>
				<g>
					<polygon fill="#EAD9DC" points="180.979,145.106 179.699,142.596 188.034,126.716 203.62,114.74 230.349,124.992 
						226.552,134.891 221.545,147.944 217.292,159.035 					"/>
					<polygon fill="#F6E4E7" points="180.979,145.106 179.699,142.596 214.848,154.177 217.292,159.035 					"/>
					<polygon fill="#5CAA9B" points="227.197,133.208 230.349,124.99 229.07,122.479 225.917,130.697 					"/>
					<polygon fill="#FFFFFF" points="179.699,142.596 183.954,131.503 192.758,108.552 202.34,112.228 229.068,122.48 
						225.272,132.38 220.264,145.433 216.008,156.524 					"/>
					
						<rect x="204.937" y="100.185" transform="matrix(0.3581 -0.9337 0.9337 0.3581 22.6805 272.2511)" fill="#6BC6B5" width="8.803" height="38.892"/>
					<g>
						<path fill="#5CAA9B" d="M198.179,116.279c-0.354,0.918,0.105,1.948,1.027,2.303c0.916,0.352,1.947-0.107,2.299-1.025
							c0.354-0.922-0.104-1.951-1.021-2.303C199.562,114.897,198.532,115.358,198.179,116.279z"/>
						<path fill="#FFFFFF" d="M199.96,116.026l-0.538-0.207c-0.537-0.206-0.808-0.813-0.602-1.353l1.276-3.327
							c0.207-0.541,0.813-0.812,1.352-0.604l0.54,0.207c0.504,0.193,0.755,0.736,0.617,1.248l1.579,0.605
							c0.468-1.381-0.228-2.895-1.598-3.42l-1.762-0.676c-1.402-0.537-2.982,0.166-3.52,1.567l-1.277,3.328
							c-0.537,1.401,0.166,2.983,1.568,3.521l1.762,0.676c0.432,0.166,0.915-0.049,1.082-0.483
							C200.608,116.675,200.394,116.192,199.96,116.026z"/>
						<path fill="#CDD5D8" d="M202.651,109.208c-1.385-0.49-2.922,0.203-3.451,1.586l-1.277,3.328
							c-0.524,1.373,0.142,2.906,1.485,3.477c0.421,0.135,0.874-0.072,1.034-0.489c0.166-0.435-0.048-0.917-0.481-1.083
							l-0.538-0.207c-0.536-0.205-0.808-0.814-0.602-1.354l1.276-3.326c0.207-0.541,0.813-0.811,1.352-0.604l0.54,0.207
							c0.504,0.192,0.755,0.735,0.617,1.246l1.579,0.606C204.643,111.24,203.977,109.757,202.651,109.208z"/>
					</g>
					<g>
						<path fill="#5CAA9B" d="M216.772,123.412c-0.353,0.918,0.105,1.948,1.023,2.301c0.92,0.353,1.952-0.106,2.305-1.023
							c0.352-0.922-0.106-1.953-1.025-2.305C218.155,122.031,217.125,122.492,216.772,123.412z"/>
						<path fill="#FFFFFF" d="M218.555,123.16l-0.541-0.209c-0.539-0.205-0.812-0.814-0.603-1.354l1.273-3.327
							c0.209-0.54,0.815-0.812,1.354-0.604l0.539,0.207c0.506,0.194,0.758,0.738,0.621,1.248l1.574,0.604
							c0.469-1.378-0.226-2.894-1.594-3.418l-1.765-0.677c-1.401-0.539-2.98,0.166-3.52,1.566l-1.277,3.328
							c-0.537,1.402,0.166,2.984,1.568,3.521l1.764,0.677c0.432,0.165,0.914-0.052,1.08-0.486
							C219.2,123.807,218.985,123.324,218.555,123.16z"/>
						<path fill="#CDD5D8" d="M221.245,116.341c-1.387-0.491-2.924,0.203-3.453,1.584l-1.275,3.328
							c-0.528,1.375,0.143,2.908,1.484,3.478c0.42,0.134,0.873-0.071,1.033-0.491c0.166-0.433-0.049-0.914-0.479-1.08l-0.541-0.207
							c-0.539-0.205-0.812-0.815-0.603-1.354l1.273-3.327c0.209-0.54,0.815-0.811,1.354-0.604l0.539,0.207
							c0.506,0.193,0.758,0.737,0.621,1.248l1.574,0.604C223.237,118.373,222.567,116.89,221.245,116.341z"/>
					</g>
				</g>
			</g>
		</g>
		<g>
			<path fill="#EF6159" d="M209.899,140.925l0.854-0.379c3.109-1.383,4.504-5.024,3.12-8.133l-0.054-0.117
				c-1.385-3.104-5.023-4.5-8.132-3.117l-0.854,0.382l-0.383-0.856c-1.383-3.104-5.022-4.5-8.131-3.117l-0.113,0.052
				c-3.106,1.385-4.506,5.024-3.119,8.132l0.381,0.854l5.063,11.367L209.899,140.925z"/>
			<path fill="#D65750" d="M213.873,132.414l-0.054-0.117c-1.385-3.104-5.023-4.5-8.132-3.117l-0.854,0.382l-6.304,16.431
				l11.368-5.066l0.854-0.379C213.862,139.164,215.256,135.521,213.873,132.414z"/>
		</g>
	</g>
	<path fill="#FFFFFF" d="M168.032,46.125c-0.262-0.296-0.74-0.32-1.041-0.052c-0.338,0.305-0.395,0.716-0.14,1.035
		c0.277,0.349,0.747,0.379,1.103,0.066C168.269,46.896,168.304,46.437,168.032,46.125z"/>
	<path fill="#FFFFFF" d="M162.976,45.414c-0.069-0.09-0.169-0.11-0.276-0.052c-0.074,0.08-0.111,0.175-0.042,0.272
		c0.067,0.098,0.167,0.125,0.263,0.046C163.005,45.612,163.051,45.514,162.976,45.414z"/>
	<path fill="#FFFFFF" d="M153.597,28.521c0.005-0.77-0.143-1.473-0.62-2.096c-0.306-0.397-0.606-0.79-1.125-0.928
		c-0.057-0.015-0.111-0.039-0.156-0.072c-0.354-0.252-0.75-0.325-1.179-0.37c-0.53-0.054-1.022,0.094-1.532,0.153
		c-0.25,0.03-0.37,0.259-0.568,0.373c-0.079,0.046-0.176,0.072-0.258,0.118c-0.083,0.046-0.184,0.088-0.231,0.165
		c-0.315,0.495-0.698,0.947-0.968,1.476c-0.149,0.303-0.128,0.628-0.133,0.953c-0.008,0.901,0.34,1.663,0.871,2.358
		c0.373,0.434,0.832,0.751,1.36,0.929c1.268,0.427,2.396,0.084,3.434-0.688C153.1,30.215,153.59,29.492,153.597,28.521z"/>
	<path fill="#FFFFFF" d="M161.5,44.004c-0.18-0.181-0.263-0.286-0.366-0.364c-0.404-0.309-0.895-0.484-1.377-0.433
		c-0.617,0.063-1.21,0.3-1.675,0.753c-0.072,0.067-0.128,0.163-0.163,0.257c-0.052,0.148-0.044,0.324-0.122,0.452
		c-0.364,0.589-0.288,1.173-0.073,1.787c0.091,0.261,0.195,0.48,0.408,0.646c0.205,0.16,0.419,0.311,0.633,0.465
		c0.219,0.155,0.461,0.242,0.731,0.226c1.027-0.061,1.83-0.424,2.318-1.428C162.221,45.528,161.977,44.517,161.5,44.004z"/>
	<path fill="#FFFFFF" d="M158.339,22.04c-0.048,0.414-0.232,0.757-0.501,1.066c-0.13,0.149-0.225,0.332-0.338,0.496
		c-0.16,0.228-0.223,0.446-0.039,0.707c0.138,0.193,0.144,0.423,0.074,0.658c-0.037,0.135-0.072,0.294-0.034,0.42
		c0.085,0.28,0.092,0.531,0.032,0.827c-0.067,0.328,0.319,0.516,0.412,0.815c0.022,0.08,0.063,0.164,0.063,0.245
		c0.012,0.671,0.392,1.108,0.9,1.472c0.162,0.115,0.348,0.234,0.402,0.435c0.099,0.345,0.383,0.474,0.648,0.639
		c0.37,0.229,0.78,0.357,1.192,0.466c0.256,0.065,0.496,0.121,0.668,0.34c0.199,0.26,0.474,0.323,0.766,0.223
		c0.28-0.098,0.56-0.093,0.845-0.113c0.225-0.018,0.463-0.058,0.661-0.149c0.296-0.14,0.582-0.212,0.908-0.195
		c0.134,0.008,0.302-0.035,0.402-0.114c0.396-0.323,0.791-0.651,1.146-1.018c0.185-0.188,0.359-0.373,0.606-0.451
		c0.271-0.085,0.418-0.265,0.536-0.51c0.146-0.31,0.315-0.611,0.329-0.966c0.009-0.214,0.093-0.385,0.246-0.529
		c0.364-0.344,0.374-0.769,0.188-1.178c-0.136-0.305-0.148-0.605-0.148-0.919c0.002-0.255,0.029-0.512,0.042-0.768
		c0.015-0.378,0.007-0.737-0.319-1.021c-0.119-0.105-0.154-0.301-0.244-0.445c-0.229-0.365-0.463-0.722-0.727-1.132
		c-0.408-0.183-0.726-0.564-1.105-0.863c-0.438-0.344-0.896-0.594-1.432-0.71c-0.869-0.188-1.755-0.178-2.636-0.237
		c-0.092-0.007-0.223,0.078-0.282,0.161c-0.229,0.312-0.533,0.39-0.898,0.39c-0.361-0.003-1.036,0.377-1.215,0.677
		c-0.151,0.257-0.338,0.445-0.613,0.564C158.573,21.456,158.377,21.697,158.339,22.04z"/>
	<path fill="#FFFFFF" d="M155.266,17.658c0.123-0.118,0.282-0.188,0.26-0.382c-0.002-0.021,0.027-0.046,0.047-0.065
		c0.051-0.056,0.077-0.12,0.09-0.197c0.023-0.16,0.105-0.313,0.04-0.484c-0.015-0.037,0.009-0.09,0.021-0.134
		c0.028-0.113,0.017-0.235-0.039-0.32c-0.111-0.162-0.131-0.34-0.144-0.521c-0.005-0.106-0.033-0.172-0.148-0.191
		c-0.085-0.016-0.161-0.069-0.157-0.165c0.01-0.201-0.109-0.278-0.279-0.306c-0.077-0.013-0.121-0.049-0.176-0.109
		c-0.123-0.138-0.242-0.309-0.474-0.245c-0.102-0.057-0.189-0.037-0.278,0.033c-0.045,0.034-0.106,0.028-0.153-0.012
		c-0.036-0.028-0.066-0.064-0.104-0.09c-0.115-0.075-0.199-0.068-0.281,0.054c-0.092,0.135-0.203,0.178-0.355,0.13
		c-0.063-0.021-0.122-0.017-0.179,0.031c-0.132,0.115-0.271,0.216-0.441,0.271c-0.076,0.025-0.112,0.094-0.109,0.176
		c0.001,0.027,0.008,0.055,0.01,0.082c0.005,0.097-0.044,0.157-0.13,0.19c-0.05,0.02-0.106,0.024-0.159,0.045
		c-0.064,0.027-0.094,0.086-0.092,0.155c0,0.036,0.014,0.07,0.029,0.104c0.039,0.09,0.018,0.161-0.061,0.217
		c-0.048,0.033-0.091,0.072-0.072,0.134c0.026,0.101-0.013,0.178-0.068,0.255c-0.049,0.065-0.072,0.131,0.014,0.188
		c0.043,0.028,0.061,0.076,0.049,0.121c-0.036,0.161,0.035,0.306,0.063,0.458c0.02,0.116,0.066,0.207,0.172,0.268
		c0.094,0.055,0.146,0.141,0.146,0.249c0,0.097,0.048,0.149,0.123,0.199c0.06,0.039,0.11,0.092,0.164,0.142
		c0.083,0.075,0.165,0.156,0.272,0.184c0.105,0.025,0.184,0.068,0.235,0.166c0.021,0.045,0.077,0.057,0.122,0.044
		c0.11-0.028,0.196,0.003,0.276,0.077c0.056,0.049,0.121,0.049,0.178,0.004c0.072-0.057,0.154-0.068,0.233-0.045
		c0.216,0.063,0.399-0.01,0.572-0.126c0.107-0.073,0.218-0.137,0.341-0.177c0.072-0.021,0.133-0.059,0.173-0.128
		C155.063,17.814,155.159,17.717,155.266,17.658z"/>
	<g>
		<path fill="#6A2242" d="M116.264,125.681h0.979c11.503,0,14.098,0.93,14.098,22.271v0.393c-0.244,5.873-1.272,9.691-12.53,9.691
			c-0.49,0-1.86-0.049-1.959-1.763c0-0.049,0,0,0-0.687c0-1.664-0.099-7.488-1.076-28.879
			C115.775,126.317,115.873,125.925,116.264,125.681z M120.866,131.946c0,5.287,0.392,11.161,0.538,16.496
			c0,0.392,0.098,2.938,0.098,3.378c0.049,0.295,0,1.127,0.393,1.37c3.672-0.538,4.405-1.763,4.405-7.44v-1.224l-0.099-1.614
			c-0.392-6.561-0.685-12.043-4.209-12.043c-0.392,0-0.734,0.051-1.126,0.196V131.946z"/>
		<path fill="#6A2242" d="M134.424,146.583v-5.826c0-9.691,0.734-13.95,8.519-13.95h0.733c5.58,0.196,5.825,3.965,6.118,8.812
			c0,0.244,0.049,0.539,0.196,22.713c0,0.539-0.294,1.174-0.979,1.174h-3.133c-1.026,0-1.125-1.075-1.125-1.957v-0.832
			c0-1.225-0.05-7.342-0.099-8.565c-0.195-0.44-0.538-0.539-0.979-0.539l-3.621-0.049c-0.589,0-0.883,0.245-0.883,0.979v9.889
			c0,0.293-0.587,0.686-0.881,0.686h-2.985c-0.979,0-1.027-1.076-1.027-1.908C134.424,153.729,134.424,150.302,134.424,146.583z
			 M140.641,142.813c0.195,0,1.908,0.049,2.644,0.099h0.44c0.832,0,1.076-0.638,1.126-1.42c0.049-1.42,0.098-2.691,0.098-3.77
			c0-4.454-0.392-5.729-1.566-5.729c-0.343,0-0.881-0.098-1.614-0.098c-2.007,0.146-2.302,2.496-2.302,4.063v5.238
			C139.466,141.981,139.711,142.765,140.641,142.813z"/>
		<path fill="#6A2242" d="M152.976,128.031c0-1.566,0.832-1.714,1.762-1.714h2.595c0.343,0,0.687,0.244,0.881,0.587v0.979
			c0,2.104-0.243,4.16-0.243,6.314v1.42c0,1.664,0.098,4.553,1.713,4.553c1.32,0,2.74-0.246,4.063-0.295
			c0.393-0.146,0.637-0.635,0.637-3.426c0-2.691-0.098-5.336-0.098-7.979v-0.195c0-0.832,0-1.958,0.832-1.958h3.476
			c0.44,0,0.734,0.44,0.783,0.882v0.342c0.146,1.86,0.195,3.721,0.195,5.678c0,1.959-0.049,3.967-0.195,6.119
			c-0.343,5.188-4.355,3.672-4.797,5.482v3.035c0,3.622,0.293,7.098,0.293,10.622v0.687c-0.293,0.537-1.126,0.635-2.007,0.635
			c-0.538,0-1.126-0.049-1.469-0.049h-0.489c-0.637,0-1.224-0.098-1.272-1.027l-0.392-13.461c-0.049-0.734-2.447-0.637-3.084-0.881
			c-2.839-1.225-3.229-5.385-3.229-9.008c0-1.371,0.049-2.644,0.049-3.67v-3.672H152.976z"/>
	</g>
</g>
</svg>
