<svg width="17" height="18" viewBox="0 0 17 18" fill="none" xmlns="http://www.w3.org/2000/svg">
<path d="M9.24128 0.361979C8.98469 0.129522 8.64497 0 8.29186 0C7.93875 0 7.59904 0.129522 7.34244 0.361979L0.648148 6.42447C0.443175 6.61034 0.279964 6.83435 0.168514 7.08278C0.0570633 7.33121 -0.000278568 7.59884 1.01748e-06 7.86925V15.2454C0.000367381 15.772 0.21893 16.2769 0.607647 16.6492C0.996364 17.0214 1.52342 17.2305 2.07297 17.2305H4.14593C4.69572 17.2305 5.22298 17.0212 5.61174 16.6487C6.0005 16.2762 6.2189 15.7709 6.2189 15.2441V11.9334C6.2189 11.7578 6.2917 11.5894 6.42128 11.4652C6.55087 11.3411 6.72662 11.2713 6.90989 11.2713H9.67384C9.8571 11.2713 10.0329 11.3411 10.1624 11.4652C10.292 11.5894 10.3648 11.7578 10.3648 11.9334V15.2441C10.3648 15.7709 10.5832 16.2762 10.972 16.6487C11.3607 17.0212 11.888 17.2305 12.4378 17.2305H14.5108C15.0605 17.2305 15.5878 17.0212 15.9766 16.6487C16.3653 16.2762 16.5837 15.7709 16.5837 15.2441V7.86793C16.5836 7.59764 16.526 7.33021 16.4143 7.08201C16.3026 6.83382 16.1392 6.61007 15.9342 6.42447L9.24128 0.35933V0.361979Z" fill="#06B2A6"/>
</svg>
