<?xml version="1.0" encoding="utf-8"?>
<!-- Generator: Adobe Illustrator 16.0.0, SVG Export Plug-In . SVG Version: 6.00 Build 0)  -->
<!DOCTYPE svg PUBLIC "-//W3C//DTD SVG 1.1//EN" "http://www.w3.org/Graphics/SVG/1.1/DTD/svg11.dtd">
<svg version="1.1" xmlns="http://www.w3.org/2000/svg" xmlns:xlink="http://www.w3.org/1999/xlink" x="0px" y="0px"
	 width="138.912px" height="96.071px" viewBox="0 0 138.912 96.071" enable-background="new 0 0 138.912 96.071"
	 xml:space="preserve">
<g id="Layer_2">
</g>
<g id="Layer_1">
	<g>
		<path fill="#FFFFFF" d="M0.749,13.392c0.33-0.011-2.039-4.493,0.285-7.047c0.984-1.08,8.537-1.938,10.182-2.323
			c6.924-1.621,14.74-3.073,22.037-3.297c7.977-0.244,12.549,3.495,20,2.034c7.951-1.559,16.58-4.513,24.813-1.368
			c2.662,1.017,5.633,4.623,8.199,5.066c1.664,0.286,7.119-1.931,9.621-2.398c7.857-1.469,16.002-4.382,24.029-2.5
			c7.986,1.873,15.33,3.323,13.871,13c-1.09,7.223-2.352,14.194-2.37,22.147c-0.013,5.629,0.677,10.901,0.666,16.524
			c-0.009,4.892-3.616,13.883-1.735,17.895c0.664,1.418,5.311,3.395,6.602,5.616c1.453,2.502,2.52,4.815,1.65,7.815
			c-1.703,5.875-9.023,5.533-14.4,5.584c-2.973,9.669-13.252,5.066-19.264,3.103c-6.686-2.184-17.203-0.954-25.049-1.814
			c-7.9-0.867-16.609,0.362-24.652-0.635c-4.297-0.533-25.262,5.324-28.649,4.108c-2.121-0.761-3.612-3.699-5.466-4.561
			c-2.018-0.938-4.898-0.156-6.904-1.231C6.333,84.886,5.885,74.287,3.934,66.873c-2.307-8.759-0.15-17.204,0.819-26.98
			c0.487-4.915,1.946-8.398,0.499-13.667C4.175,22.309,0.749,13.392,0.749,13.392z"/>
		<path fill="#5AB1AF" d="M13.129,62.614c1.094,0.785,3.761,0.507,5.203,0.505c2.783-0.004,5.593,0.092,8.325,0.365
			c5.418,0.54,9.214,0.218,13.73-1.861c3.103-1.428,2.495-2.132-0.725-3.038c-3.32-0.936-6.601-1.607-10.241-1.22
			c-3.131,0.335-5.451,1.479-8.735,1.267C8.137,57.825,12.225,61.964,13.129,62.614z"/>
		<path fill="#5AB1AF" d="M55.023,62.614c1.094,0.785,3.761,0.507,5.203,0.505c2.783-0.004,5.593,0.092,8.325,0.365
			c5.418,0.54,9.213,0.218,13.73-1.861c3.102-1.428,2.496-2.132-0.725-3.038c-3.32-0.936-6.601-1.607-10.241-1.22
			c-3.132,0.335-5.451,1.479-8.735,1.267C50.031,57.825,54.118,61.964,55.023,62.614z"/>
		<path fill="#5AB1AF" d="M95.429,62.614c1.094,0.785,3.761,0.507,5.202,0.505c2.784-0.004,5.594,0.092,8.326,0.365
			c5.418,0.54,9.214,0.218,13.73-1.861c3.103-1.428,2.496-2.132-0.725-3.038c-3.32-0.936-6.601-1.607-10.241-1.22
			c-3.131,0.335-5.451,1.479-8.735,1.267C90.437,57.825,94.525,61.964,95.429,62.614z"/>
		<g>
			<g>
				<path fill="#7CCDCD" d="M37.432,12.297C34.155,11.858,9.67,12.817,9.67,12.817c-0.664,0.213-0.99,0.638-0.977,1.275
					c4.367,9.025,5.334,20.654,5.13,30.833c-0.075,3.771-2.186,9.966,0.721,13.194c2.498,2.774,11.713,2.297,15.282,2.293
					c5.309-0.005,8.25,0.879,10.603-4.177c1.823-3.919,0.327-9.473,0.377-14.236c0.09-8.567,0.154-20.338,4.041-27.631
					C47.606,11.189,40.997,12.774,37.432,12.297z"/>
				<path fill="#231F20" d="M33.488,61.22C33.487,61.22,33.488,61.22,33.488,61.22c-0.511,0-1.05-0.013-1.619-0.026
					c-1.015-0.023-2.066-0.033-3.421-0.017c-0.689,0.01-1.47,0.02-2.304,0.02c-6.805,0-10.554-0.794-12.157-2.574
					c-2.357-2.619-1.78-6.718-1.271-10.334c0.175-1.237,0.339-2.407,0.358-3.377c0.256-12.771-1.444-23.03-5.055-30.491
					l-0.071-0.147l-0.004-0.164c-0.021-0.977,0.511-1.688,1.498-2.005l0.199-0.035c0.162-0.007,16.325-0.637,24.053-0.637
					c1.972,0,3.228,0.04,3.838,0.122c0.463,0.062,1.034,0.092,1.745,0.092c0.622,0,1.27-0.022,1.899-0.044
					c0.616-0.021,1.217-0.041,1.765-0.041c1.315,0,2.755,0.081,3.196,1.049c0.365,0.801-0.186,1.618-0.667,2.185
					c-3.704,7.029-3.823,18.468-3.91,26.828l-0.004,0.386c-0.016,1.475,0.125,3.075,0.262,4.623
					c0.305,3.474,0.621,7.064-0.709,9.922C39.101,60.868,36.469,61.22,33.488,61.22z M29.826,59.663
					c0.765,0,1.441,0.016,2.078,0.031c0.558,0.013,1.084,0.025,1.583,0.025c3.108,0,4.75-0.549,6.263-3.8
					c1.159-2.493,0.861-5.881,0.573-9.157c-0.139-1.584-0.283-3.222-0.267-4.771l0.004-0.386c0.089-8.544,0.21-20.244,4.125-27.59
					l0.096-0.139c0.283-0.326,0.397-0.531,0.442-0.638c-0.172-0.072-0.623-0.18-1.782-0.18c-0.532,0-1.115,0.021-1.714,0.041
					c-0.646,0.021-1.312,0.044-1.95,0.044c-0.778,0-1.414-0.034-1.944-0.105c-0.369-0.049-1.299-0.108-3.639-0.108
					c-7.36,0-22.431,0.575-23.883,0.631c-0.264,0.102-0.341,0.226-0.361,0.371c3.659,7.661,5.383,18.092,5.124,31.007
					c-0.021,1.061-0.192,2.273-0.373,3.558c-0.463,3.291-0.988,7.021,0.901,9.12c1.871,2.078,8.773,2.078,11.042,2.078
					c0.826,0,1.601-0.01,2.283-0.02C28.953,59.67,29.424,59.663,29.826,59.663z"/>
			</g>
			<path fill="#FAAF40" d="M26.221,25.528c4.811,0.233,9.473-0.795,13.969-1.694c-1.115,6.566-0.973,13.607-1.623,20.55
				c-0.593,9.905-0.424,12.615-8.398,12.993c-3.588,0.832-11.005-0.625-12.367-1.446c-3.801-2.291-2.236-7.438-2.03-11.344
				c0.272-5.2-0.81-16.604-2.65-20.472C13.121,24.115,22.053,25.325,26.221,25.528z"/>
			<path fill="#FFFFFF" d="M36.506,13.49c3.244,0.435,9.262-1.009,6.75,1.886c-2.793,3.219-30.984,2.528-32.913-0.251
				c-0.012-0.581,0.284-0.968,0.889-1.161C11.232,13.964,33.522,13.091,36.506,13.49z"/>
			<path fill="#F6921E" d="M36.255,53.738c-1.237-1.414-4.469,0.2-8.866-0.216c-3.665-0.349-10.857-1.74-10.113,0.292
				C18.168,57.68,38.728,58.206,36.255,53.738z"/>
			<path fill="#5AB1AF" d="M14.405,23.252c0,0,25.145-0.583,25.736,0.646c0.592,1.229-20.637,3.611-26.631,0.622
				C12.263,23.897,14.405,23.252,14.405,23.252z"/>
		</g>
		<g>
			<g>
				<path fill="#7CCDCD" d="M78.582,12.297c-3.277-0.438-27.762,0.521-27.762,0.521c-0.664,0.213-0.989,0.638-0.977,1.275
					c4.367,9.025,5.334,20.654,5.13,30.833c-0.076,3.771-2.186,9.966,0.721,13.194c2.498,2.774,11.713,2.297,15.282,2.293
					c5.309-0.005,8.25,0.879,10.603-4.177c1.822-3.919,0.327-9.473,0.377-14.236c0.09-8.567,0.154-20.338,4.041-27.631
					C88.755,11.189,82.146,12.774,78.582,12.297z"/>
				<path fill="#231F20" d="M74.637,61.22C74.636,61.22,74.637,61.22,74.637,61.22c-0.511,0-1.05-0.013-1.619-0.026
					c-1.015-0.023-2.067-0.033-3.421-0.017c-0.689,0.01-1.47,0.02-2.304,0.02c-6.805,0-10.554-0.794-12.157-2.574
					c-2.358-2.62-1.781-6.72-1.271-10.336c0.175-1.237,0.339-2.406,0.358-3.376c0.256-12.771-1.444-23.029-5.055-30.49l-0.072-0.148
					l-0.003-0.164c-0.02-0.977,0.513-1.688,1.498-2.004l0.199-0.035c0.162-0.007,16.325-0.637,24.053-0.637
					c1.972,0,3.228,0.04,3.838,0.122c0.463,0.062,1.034,0.092,1.745,0.092c0.622,0,1.27-0.022,1.899-0.044
					c0.616-0.021,1.217-0.041,1.765-0.041c1.315,0,2.755,0.081,3.196,1.049c0.365,0.801-0.186,1.618-0.667,2.185
					c-3.704,7.029-3.823,18.468-3.91,26.828l-0.004,0.386c-0.016,1.475,0.125,3.075,0.261,4.623
					c0.306,3.474,0.621,7.064-0.708,9.922C80.25,60.868,77.619,61.22,74.637,61.22z M70.975,59.663c0.765,0,1.441,0.016,2.078,0.031
					c0.558,0.013,1.084,0.025,1.583,0.025c3.108,0,4.75-0.549,6.263-3.8c1.159-2.493,0.861-5.881,0.573-9.157
					c-0.139-1.584-0.283-3.222-0.267-4.771l0.004-0.386c0.089-8.544,0.21-20.244,4.125-27.59l0.096-0.139
					c0.283-0.326,0.397-0.531,0.442-0.638c-0.172-0.072-0.623-0.18-1.782-0.18c-0.532,0-1.115,0.021-1.714,0.041
					c-0.646,0.021-1.312,0.044-1.95,0.044c-0.778,0-1.414-0.034-1.944-0.105c-0.369-0.049-1.299-0.108-3.639-0.108
					c-7.36,0-22.431,0.575-23.883,0.631c-0.263,0.102-0.341,0.227-0.361,0.372c3.659,7.661,5.383,18.091,5.124,31.006
					c-0.021,1.06-0.192,2.271-0.373,3.555c-0.464,3.292-0.989,7.023,0.901,9.123c1.871,2.078,8.773,2.078,11.042,2.078
					c0.826,0,1.601-0.01,2.283-0.02C70.102,59.67,70.574,59.663,70.975,59.663z"/>
			</g>
			<path fill="#F6921E" d="M67.371,25.528c4.81,0.233,9.473-0.795,13.969-1.694c-1.115,6.566-0.974,13.607-1.624,20.55
				c-0.592,9.905-0.423,12.615-8.398,12.993c-3.587,0.832-11.004-0.625-12.365-1.446c-3.803-2.291-2.236-7.438-2.031-11.344
				c0.272-5.2-0.81-16.604-2.65-20.472C54.27,24.115,63.202,25.325,67.371,25.528z"/>
			<path fill="#FFFFFF" d="M77.656,13.49c3.244,0.435,9.262-1.009,6.75,1.886c-2.793,3.219-30.984,2.528-32.913-0.251
				c-0.012-0.581,0.284-0.968,0.889-1.161C52.381,13.964,74.671,13.091,77.656,13.49z"/>
			<path fill="#FAAF40" d="M77.405,53.738c-1.236-1.414-4.469,0.2-8.866-0.216c-3.665-0.349-10.858-1.74-10.113,0.292
				C59.317,57.68,79.877,58.206,77.405,53.738z"/>
			<path fill="#5AB1AF" d="M55.554,23.252c0,0,25.144-0.583,25.736,0.646c0.593,1.229-20.637,3.611-26.631,0.622
				C53.413,23.897,55.554,23.252,55.554,23.252z"/>
		</g>
		<g>
			<g>
				<path fill="#7CCDCD" d="M119.731,12.297c-3.277-0.438-27.762,0.521-27.762,0.521c-0.664,0.213-0.989,0.638-0.977,1.275
					c4.367,9.025,5.334,20.654,5.13,30.833c-0.075,3.771-2.186,9.966,0.721,13.194c2.498,2.774,11.713,2.297,15.282,2.293
					c5.309-0.005,8.25,0.879,10.603-4.177c1.823-3.919,0.327-9.473,0.377-14.236c0.09-8.567,0.154-20.338,4.041-27.631
					C129.905,11.189,123.295,12.774,119.731,12.297z"/>
				<path fill="#231F20" d="M115.787,61.22L115.787,61.22c-0.511,0-1.05-0.013-1.619-0.026c-1.015-0.023-2.067-0.033-3.421-0.017
					c-0.689,0.01-1.47,0.02-2.304,0.02c-6.805,0-10.554-0.794-12.157-2.574c-2.357-2.619-1.78-6.718-1.271-10.334
					c0.175-1.237,0.339-2.407,0.358-3.377c0.256-12.771-1.444-23.03-5.055-30.491l-0.072-0.148l-0.003-0.164
					c-0.02-0.977,0.513-1.688,1.498-2.004l0.199-0.035c0.162-0.007,16.325-0.637,24.053-0.637c1.972,0,3.228,0.04,3.838,0.122
					c0.463,0.062,1.034,0.092,1.745,0.092c0.622,0,1.27-0.022,1.899-0.044c0.616-0.021,1.217-0.041,1.765-0.041
					c1.315,0,2.755,0.081,3.196,1.049c0.365,0.801-0.186,1.618-0.667,2.185c-3.704,7.029-3.823,18.468-3.91,26.828l-0.004,0.386
					c-0.016,1.475,0.125,3.075,0.262,4.623c0.305,3.474,0.621,7.064-0.709,9.922C121.4,60.868,118.768,61.22,115.787,61.22z
					 M112.125,59.663c0.765,0,1.441,0.016,2.078,0.031c0.558,0.013,1.084,0.025,1.583,0.025c3.108,0,4.75-0.549,6.263-3.8
					c1.159-2.493,0.861-5.881,0.573-9.157c-0.139-1.584-0.283-3.222-0.267-4.771l0.004-0.386c0.089-8.544,0.21-20.244,4.125-27.59
					l0.096-0.139c0.283-0.326,0.397-0.531,0.442-0.638c-0.172-0.072-0.623-0.18-1.782-0.18c-0.532,0-1.115,0.021-1.714,0.041
					c-0.646,0.021-1.312,0.044-1.95,0.044c-0.778,0-1.414-0.034-1.944-0.105c-0.369-0.049-1.299-0.108-3.639-0.108
					c-7.36,0-22.431,0.575-23.883,0.631c-0.263,0.102-0.341,0.227-0.361,0.372c3.659,7.661,5.383,18.091,5.124,31.006
					c-0.021,1.061-0.192,2.273-0.373,3.558c-0.463,3.291-0.988,7.021,0.901,9.12c1.871,2.078,8.773,2.078,11.042,2.078
					c0.826,0,1.601-0.01,2.283-0.02C111.251,59.67,111.723,59.663,112.125,59.663z"/>
			</g>
			<path fill="#BE1E2D" d="M108.52,25.528c4.811,0.233,9.473-0.795,13.969-1.694c-1.115,6.566-0.973,13.607-1.623,20.55
				c-0.593,9.905-0.424,12.615-8.398,12.993c-3.588,0.832-11.005-0.625-12.367-1.446c-3.801-2.291-2.235-7.438-2.03-11.344
				c0.272-5.2-0.81-16.604-2.65-20.472C95.419,24.115,104.352,25.325,108.52,25.528z"/>
			<path fill="#FFFFFF" d="M118.805,13.49c3.244,0.435,9.262-1.009,6.75,1.886c-2.793,3.219-30.984,2.528-32.913-0.251
				c-0.012-0.581,0.284-0.968,0.889-1.161C93.531,13.964,115.821,13.091,118.805,13.49z"/>
			<path fill="#77111A" d="M118.554,53.738c-1.237-1.414-4.47,0.2-8.866-0.216c-3.665-0.349-10.857-1.74-10.113,0.292
				C100.467,57.68,121.027,58.206,118.554,53.738z"/>
			<path fill="#5AB1AF" d="M96.704,23.252c0,0,25.145-0.583,25.736,0.646c0.593,1.229-20.637,3.611-26.631,0.622
				C94.562,23.897,96.704,23.252,96.704,23.252z"/>
		</g>
		<g>
			<path fill="#231F20" d="M23.338,73.714c0.035-0.001,0.069-0.037,0.104-0.037c0.036,0.035,0.106,0.033,0.142,0.068
				c0.211,0.031,0.562,0.096,0.704,0.233c0.037,0.069,0.072,0.139,0.144,0.208c0.107,0.104,0.211,0.066,0.248,0.205
				c0.072,0.105,0.003,0.176,0.109,0.244c-0.068,0.106-0.066,0.211-0.065,0.281c0.004,0.245,0.112,0.488,0.082,0.699
				c0,0.035-0.035,0.035-0.033,0.105c-0.034,0.105-0.031,0.28-0.065,0.352l-0.069,0.07l0.003,0.141
				c0.002,0.14,0.039,0.279,0.075,0.313c0.036,0.035,0.001,0.035-0.034,0.071c-0.034,0.071,0.071,0.034,0.037,0.104
				c-0.03,0.315-0.024,0.666-0.125,0.878c0.036,0.069,0.036,0.104,0.037,0.175c0.003,0.139-0.029,0.314-0.063,0.42
				c0.072,0.105,0.108,0.244,0.111,0.384c0.002,0.105-0.03,0.245-0.1,0.317c0.072,0.139,0.04,0.279,0.041,0.384
				c0.001,0.035,0.002,0.105,0.038,0.14l0.004,0.244c0.003,0.176,0.006,0.385,0.148,0.522l0.001,0.07
				c0.002,0.104,0.107,0.173,0.18,0.312c0.106,0.033,0.211,0.031,0.316,0.03c0.524-0.009,0.974-0.331,1.533-0.409
				c0.172-0.213,0.591-0.256,0.833-0.469c0.384-0.041,0.658-0.431,1.039-0.576c0.034-0.07,0.07-0.037,0.14-0.072
				c0.104-0.072,0.207-0.179,0.276-0.25c0.209-0.039,0.347-0.181,0.592-0.22c0.103-0.107,0.242-0.145,0.415-0.252
				c0.07-0.036,0.139-0.108,0.209-0.108c0.243-0.109,0.487-0.148,0.768-0.188c0.068-0.037,0.104-0.072,0.174-0.074
				c0.069-0.035,0.174-0.036,0.244-0.037c0.35-0.006,0.564,0.27,0.568,0.551c0.004,0.209-0.132,0.457-0.411,0.531
				c-0.069,0.037,0.036,0.07,0.002,0.141c-0.172,0.178-0.273,0.389-0.551,0.498c-0.14,0.108-0.171,0.318-0.346,0.32
				c-0.065,0.316-0.449,0.357-0.692,0.501c0.003,0.176-0.136,0.247-0.239,0.39c-0.175,0.003-0.276,0.145-0.38,0.285
				c-0.139,0.038-0.208,0.109-0.276,0.217c-0.175,0.002-0.209,0.107-0.313,0.18c-0.175,0.002-0.172,0.143-0.313,0.145
				c-0.138,0.142-0.276,0.215-0.413,0.357l-0.14,0.002c-0.104,0.142-0.276,0.248-0.415,0.356c-0.454,0.042-0.519,0.394-0.901,0.505
				c-0.035,0.035-0.07,0.037-0.14,0.072c-0.21,0.038-0.419,0.076-0.558,0.149l-0.141,0.002c-0.104,0.002-0.104,0.072-0.173,0.107
				c-0.245,0.039-0.385,0.007-0.595,0.045c-0.036-0.069-0.175-0.032-0.176-0.102c-0.211-0.032-0.353-0.065-0.39-0.204
				c-0.035,0.001-0.104,0.002-0.104,0.036c-0.106-0.032-0.246-0.03-0.283-0.136c-0.386-0.063-0.496-0.376-0.812-0.441
				c-0.001-0.07-0.071-0.069-0.037-0.139c-0.247-0.066-0.321-0.311-0.497-0.378c-0.035-0.034-0.072-0.104-0.073-0.174
				c-0.245-0.031-0.25-0.311-0.392-0.413l-0.243,0.109c0.003,0.209-0.1,0.28-0.275,0.318c-0.068,0.037,0.036,0.07,0.038,0.141
				c-0.069,0.105-0.173,0.178-0.311,0.25c-0.033,0.141-0.138,0.177-0.137,0.281l-0.07,0.002c-0.175,0.002-0.243,0.074-0.383,0.111
				c-0.309,0.285-0.759,0.607-1.426,0.514c-0.069,0.07-0.209,0.037-0.314,0.074c-0.21,0.003-0.352-0.135-0.563-0.166l-0.35,0.041
				c-0.07,0.001-0.14,0.002-0.211-0.031c-0.07-0.035-0.141-0.104-0.247-0.172c-0.212-0.066-0.389-0.203-0.601-0.34
				c-0.425-0.273-0.71-0.584-1.032-0.999c-0.107-0.173-0.249-0.241-0.287-0.45l-0.143-0.104c-0.107-0.208-0.356-0.414-0.36-0.693
				l-0.002-0.105c-0.107-0.102-0.18-0.312-0.183-0.486s-0.111-0.348-0.113-0.488c-0.001-0.07,0.032-0.141,0.102-0.212
				c-0.07,0.001-0.071-0.068-0.072-0.139c0.034-0.071-0.002-0.14,0.103-0.142c-0.071-0.068-0.107-0.139-0.108-0.208
				c-0.003-0.176,0.134-0.353,0.168-0.424c0.033-0.104-0.037-0.104-0.038-0.174c0.031-0.281,0.167-0.493,0.232-0.774
				c0.068-0.176,0.17-0.317,0.238-0.459l-0.002-0.105c-0.003-0.174,0.065-0.314,0.169-0.387c0.031-0.246,0.167-0.458,0.41-0.602
				c-0.001-0.07,0.069-0.072-0.003-0.176c0.209-0.039,0.206-0.248,0.274-0.39c0.068-0.105,0.172-0.178,0.169-0.318l0.141-0.036
				c0.029-0.352,0.343-0.427,0.442-0.742l0.069-0.002c0.141-0.002,0.279-0.109,0.42-0.112l0.104-0.001
				c0.14-0.003,0.349-0.041,0.525-0.01c0.035,0,0.141,0.068,0.246,0.066c0.07,0.07,0.177,0.104,0.212,0.137l0.035,0.07
				c0.035-0.001,0.105-0.002,0.106,0.033c0.036,0.034,0.037,0.104,0.072,0.139c0.037,0.104,0.143,0.139,0.179,0.207
				c0.004,0.279,0.044,0.524,0.185,0.628c-0.067,0.141,0.039,0.243,0.041,0.349c0,0,0.001,0.035-0.034,0.071
				c0.071,0.034,0.108,0.138,0.144,0.173c0.039,0.279,0.008,0.49,0.185,0.592c0.001,0.035-0.034,0.07-0.033,0.141
				c0.003,0.14,0.075,0.278-0.029,0.35c0.037,0.105,0.005,0.281,0.076,0.35c-0.067,0.176-0.169,0.389-0.164,0.633
				c0,0.035,0.035,0.104,0.036,0.175c-0.103,0.106-0.135,0.282-0.202,0.458c-0.034,0.036-0.068,0.072-0.139,0.072
				c0.001,0.07,0.001,0.07,0.038,0.175c0.105,0.067,0.143,0.173,0.145,0.313c0.003,0.141-0.03,0.28-0.098,0.388
				c0.107,0.208,0.112,0.487,0.118,0.872c0.14-0.108,0.171-0.282,0.311-0.319c-0.002-0.141,0.031-0.246,0.135-0.317
				c-0.036-0.069,0.034-0.071,0.033-0.106c0.138-0.105,0.101-0.281,0.274-0.389c-0.003-0.175,0.171-0.248,0.203-0.424
				c0.103-0.072,0.136-0.212,0.274-0.354c-0.001-0.035-0.035,0.001-0.071-0.034c0-0.035,0.07-0.036,0.104-0.037
				c0.102-0.246,0.202-0.457,0.232-0.773c0.069-0.071,0.139-0.107,0.101-0.281c0.069-0.002,0.104-0.037,0.138-0.107
				c0.034-0.105-0.071-0.104-0.073-0.209l-0.001-0.07c-0.003-0.139-0.038-0.244,0.101-0.281c-0.035-0.035-0.037-0.104-0.037-0.14
				c-0.004-0.21,0.099-0.421,0.096-0.597l-0.001-0.07c0.103-0.107,0.205-0.283,0.308-0.425c-0.036-0.069-0.037-0.104-0.038-0.175
				c-0.002-0.141,0.066-0.246,0.171-0.318c-0.037-0.068-0.038-0.139-0.039-0.209c-0.003-0.174,0.098-0.422,0.201-0.563
				c0.104-0.037,0.142,0.103,0.247,0.102c0.069-0.036-0.037-0.104,0.032-0.142c0.104-0.07,0.104-0.035,0.245-0.004
				c0.138-0.106,0.102-0.176,0.312-0.215c0.07-0.002,0.104-0.071,0.174-0.072C23.127,73.647,23.233,73.716,23.338,73.714z"/>
			<path fill="#231F20" d="M31.063,73.133c0.665-0.011,0.814,0.513,1.1,0.857c0.52-0.358,0.938-0.47,2.058-0.489
				c0.14-0.002,0.245-0.004,0.386,0.029s0.281,0.102,0.422,0.135c0.387,0.063,0.701,0.023,0.981,0.123
				c0.106,0.033,0.247,0.066,0.388,0.133c0.177,0.068,0.283,0.207,0.529,0.237c0.035,0.034,0.106,0.068,0.142,0.138
				c0.142,0.033,0.317,0.1,0.425,0.203c0.069,0.035,0.106,0.139,0.143,0.209c0.071,0.033,0.141,0.067,0.177,0.102
				c0.072,0.104,0.108,0.207,0.215,0.312l0.143,0.103c0.034,0,0.034,0.034,0.035,0.069c0.002,0.105,0.179,0.172,0.285,0.276
				c0.106,0.102,0.145,0.277,0.251,0.38l0.002,0.141c0.108,0.138,0.215,0.276,0.322,0.38l0.003,0.175
				c0.141,0.103,0.146,0.349,0.218,0.487l0.002,0.139c0.005,0.281,0.079,0.596-0.021,0.807c-0.034,0.105,0.071,0.104,0.037,0.174
				c-0.104,0.072-0.029,0.351-0.168,0.389c0.034,0.034,0.035,0.069,0.036,0.14l-0.027,0.386c-0.21,0.107-0.136,0.352-0.202,0.562
				c-0.066,0.177-0.31,0.32-0.306,0.53c0,0.035,0.036,0.07,0.036,0.105c-0.069,0.035-0.103,0.141-0.207,0.143
				c-0.099,0.422-0.339,0.741-0.508,1.094c-0.105,0.002-0.104,0.107-0.208,0.109c-0.032,0.21-0.241,0.248-0.31,0.389
				c-0.631-0.024-0.795,0.608-1.393,0.443c-0.069,0.036-0.277,0.145-0.452,0.146c-0.105,0.002-0.176-0.031-0.246-0.064
				c-0.069,0.035-0.104,0.105-0.175,0.072c-0.421-0.063-0.808-0.197-1.056-0.368c-0.386-0.064-0.669-0.234-0.987-0.439
				c-0.105,0.002-0.067,0.177-0.137,0.247c0.001,0.035-0.069,0.037-0.068,0.072c-0.034,0.035-0.066,0.211-0.065,0.246
				c0.001,0.104,0.145,0.313,0.147,0.521c0.002,0.105-0.102,0.178-0.1,0.282c0.001,0.07,0.036,0.14,0.037,0.21
				c0.002,0.07-0.067,0.07-0.102,0.143l0.001,0.068c0.002,0.105,0.038,0.209,0.04,0.314c0.001,0.07,0.003,0.141-0.032,0.176
				c0.037,0.105,0.076,0.349,0.008,0.455c0.072,0.139,0.074,0.279,0.077,0.454c0.007,0.385-0.092,0.807-0.087,1.122
				c-0.035,0.035,0.14,0.033,0.14-0.002c0.041,0.384,0.05,0.909,0.196,1.291c-0.032,0.141-0.065,0.246,0.006,0.35
				c-0.033,0.105-0.066,0.212-0.065,0.316c0.002,0.105,0.039,0.209,0.041,0.314c-0.175,0.003-0.103,0.212-0.277,0.215
				c0.004,0.21-0.205,0.318-0.38,0.32c-0.105,0.002-0.21-0.03-0.281-0.064c-0.069,0.036-0.139,0.072-0.244,0.073
				c-0.21,0.003-0.281-0.101-0.457-0.132c-0.214-0.242-0.393-0.484-0.641-0.655c-0.036-0.034-0.036-0.069-0.037-0.14
				c-0.105-0.033-0.178-0.137-0.283-0.17c-0.002-0.105-0.073-0.209-0.074-0.279c-0.07,0.002-0.105-0.033-0.141,0.003
				c-0.034,0.001-0.035-0.069-0.036-0.14c-0.177-0.066-0.143-0.104-0.25-0.275l-0.107-0.104c-0.036-0.069-0.037-0.174-0.074-0.244
				c-0.036-0.139-0.216-0.381-0.218-0.521c-0.036-0.068-0.003-0.14-0.004-0.21c-0.005-0.279-0.185-0.592-0.188-0.872
				c-0.002-0.104-0.003-0.175-0.109-0.277c0.033-0.071,0.032-0.142,0.066-0.178c-0.106-0.138-0.181-0.346-0.22-0.591l-0.012-0.7
				c-0.004-0.28-0.009-0.595-0.117-0.803c-0.001-0.07,0.033-0.142,0.032-0.177c-0.071-0.068-0.108-0.173-0.11-0.313
				c-0.003-0.175,0.063-0.421,0.131-0.563c-0.036-0.068-0.037-0.139-0.038-0.209c-0.002-0.14,0.029-0.314,0.026-0.49
				c-0.001-0.07-0.003-0.176,0.031-0.245c-0.002-0.141,0.101-0.317,0.099-0.423l-0.002-0.14c-0.003-0.14-0.005-0.28,0.134-0.351
				c-0.071-0.069-0.105-0.033-0.143-0.139c0.034-0.07,0.033-0.176,0.031-0.246c-0.003-0.174-0.04-0.313-0.043-0.488
				c-0.004-0.28,0.061-0.562,0.126-0.878c0.063-0.421,0.021-0.876,0.084-1.297c0.033-0.104,0.102-0.212,0.099-0.351
				c0.033-0.143-0.005-0.316-0.008-0.49c-0.003-0.176,0.029-0.352-0.044-0.525c0.07-0.002,0.141-0.037,0.175-0.072
				c0.03-0.281-0.01-0.596-0.014-0.875c-0.004-0.245,0.026-0.455,0.129-0.633l-0.001-0.07c-0.004-0.244,0.135-0.316,0.273-0.459
				c0.172-0.178,0.24-0.284,0.52-0.289C30.711,72.999,30.922,73.065,31.063,73.133z M34.962,76.081
				c-0.245,0.004-0.275,0.32-0.34,0.601c-0.034,0.071-0.175,0.038-0.173,0.179c0.001,0.069,0.037,0.104,0.037,0.139
				c0.004,0.21-0.099,0.352-0.202,0.459c-0.033,0.105-0.032,0.211-0.03,0.281c0.004,0.279,0.078,0.522,0.047,0.732
				c0.002,0.141-0.066,0.282-0.064,0.388c-0.031,0.175-0.066,0.176,0.004,0.245c0.036,0.068,0.038,0.139,0.039,0.209
				c0.003,0.176-0.063,0.387-0.026,0.524c0.001,0.105-0.067,0.142-0.065,0.246c0.071,0.139,0.108,0.278,0.283,0.276l0.07-0.002
				c0.171-0.283,0.412-0.496,0.618-0.744c-0.049-0.84,0.681-1.236,0.666-2.146c-0.002-0.105,0.03-0.211,0.063-0.316
				c-0.07-0.069-0.072-0.174-0.074-0.313c-0.104,0.002-0.141-0.067-0.143-0.208c-0.282-0.101-0.36-0.555-0.64-0.55L34.962,76.081z"
				/>
			<path fill="#231F20" d="M43.593,62.358c0.247,0.101,0.354,0.238,0.567,0.41c0.142,0.103,0.389,0.204,0.392,0.414
				c0.001,0.035-0.033,0.07-0.033,0.105c0.002,0.105,0.177,0.103,0.074,0.209c0.104-0.002,0.175,0.031,0.211,0.066
				c0.109,0.314,0.359,0.625,0.364,0.939c0.002,0.104-0.031,0.175-0.064,0.281c0.037,0.139,0.074,0.277,0.077,0.453
				c0.001,0.105,0.003,0.176-0.065,0.281c0.071,0.104,0.181,0.313,0.183,0.451c0.002,0.105-0.033,0.142-0.067,0.211
				c0.143,0.068,0.179,0.207,0.181,0.348c0.003,0.176-0.063,0.352-0.131,0.527c0.072,0.14,0.11,0.314,0.113,0.488
				c0.002,0.141-0.03,0.316-0.134,0.422c0.072,0.105,0.179,0.207,0.182,0.383c0,0.035,0.001,0.07-0.032,0.141
				c-0.035,0.001-0.105,0.037-0.105,0.037l0.002,0.104c0.003,0.176,0.041,0.351,0.043,0.489l0.001,0.07
				c-0.032,0.141-0.17,0.248-0.204,0.354c-0.067,0.142,0.005,0.28-0.063,0.387c0.001,0.104,0.106,0.104,0.108,0.209
				c-0.03,0.279-0.132,0.561-0.303,0.773c0.036,0.07,0.037,0.141,0.038,0.21c0.003,0.176-0.1,0.353-0.238,0.424
				c0.038,0.175-0.066,0.212-0.064,0.317l0.001,0.105c-0.276,0.144-0.164,0.631-0.406,0.811l0.003,0.174
				c0.001,0.07-0.068,0.072-0.103,0.107c-0.033,0.176-0.029,0.385-0.204,0.424c-0.029,0.35-0.2,0.563-0.373,0.775
				c0.072,0.104,0.107,0.104,0.074,0.244c0.107,0.104,0.145,0.277,0.183,0.452c0.001,0.07-0.104,0.071-0.103,0.106
				c0.107,0.174,0.041,0.35,0.147,0.523l0.002,0.105c0.004,0.244,0.114,0.523,0.117,0.732c0.002,0.105-0.031,0.211-0.1,0.316
				c0.001,0.07,0.071,0.069,0.073,0.175c-0.071-0.034-0.105,0.002-0.141,0.003c0.001,0.104,0.142,0.066,0.143,0.172
				c0.003,0.14-0.029,0.314,0.111,0.383c-0.035,0.036-0.033,0.141-0.103,0.142c0.036,0.069,0.143,0.174,0.145,0.278
				c0,0-0.035,0.035-0.034,0.07c0.142,0.033,0.075,0.279,0.25,0.311c0.004,0.246,0.114,0.523,0.257,0.731
				c0.037,0.069-0.068,0.071-0.032,0.142c0.001,0.069,0.178,0.137,0.109,0.242c0.176,0.067,0.143,0.209,0.251,0.346
				c0.214,0.242,0.565,0.34,0.95,0.334c0.244-0.004,0.523-0.078,0.768-0.152c0.558-0.184,0.831-0.537,1.181-0.648
				c0.139-0.072,0.242-0.178,0.345-0.285c0.384-0.041,0.484-0.393,0.798-0.504c0.206-0.248,0.447-0.497,0.794-0.643
				c0.069-0.106,0.137-0.213,0.312-0.25c0.069-0.002-0.001-0.104,0.068-0.105c0.104-0.072,0.207-0.145,0.348-0.182
				c0.068-0.07,0.172-0.178,0.311-0.215c0.312-0.18,0.482-0.463,0.795-0.608c0.136-0.282,0.587-0.499,0.972-0.506
				c0.315-0.005,0.563,0.132,0.569,0.517c0.005,0.279-0.097,0.525-0.198,0.703c-0.034,0.07-0.173,0.143-0.241,0.249
				c-0.139,0.142-0.24,0.354-0.412,0.496c-0.032,0.177-0.137,0.282-0.31,0.392c0.002,0.139-0.137,0.176-0.205,0.282
				c-0.07,0.036-0.068,0.106-0.103,0.142c-0.069,0.072-0.174,0.107-0.242,0.18c-0.241,0.249-0.411,0.531-0.759,0.676l0.002,0.141
				c-0.379,0.321-0.865,0.574-1.139,1.033c-0.244,0.075-0.381,0.252-0.589,0.326c-0.136,0.246-0.521,0.287-0.621,0.569
				c-0.351,0.041-0.485,0.288-0.836,0.329c-0.069,0.001-0.033,0.07-0.103,0.106l-0.14,0.002c-0.141,0.003-0.245,0.039-0.314,0.075
				l-0.105,0.002c-0.175,0.003-0.313,0.109-0.487,0.113l-0.105,0.001l-0.105-0.067c-0.141,0.002-0.211,0.037-0.317-0.065
				c-0.034,0.036,0.002,0.104-0.067,0.141c-0.21,0.003-0.386-0.028-0.458-0.132c-0.103,0.072-0.208,0.073-0.313,0.075
				c-0.21,0.003-0.422-0.063-0.771-0.022c-0.283-0.17-0.807-0.162-0.986-0.475c-0.106-0.033-0.105,0.037-0.211,0.039
				c-0.001-0.105-0.141-0.104-0.177-0.172c-0.104,0.035-0.141-0.033-0.246-0.031c-0.355-0.346-0.849-0.512-1.204-0.855
				c-0.036-0.07-0.037-0.141-0.108-0.175c-0.142-0.173-0.319-0.31-0.463-0.517l-0.003-0.141c-0.07,0.001-0.105-0.104-0.212-0.137
				c-0.003-0.174-0.18-0.276-0.218-0.486c-0.001-0.035,0.034-0.069,0.033-0.104l-0.217-0.417c-0.073-0.174-0.075-0.314-0.148-0.487
				C40,78.24,39.93,78.171,39.93,78.136c-0.073-0.139-0.04-0.279-0.078-0.454c-0.038-0.209-0.146-0.382-0.185-0.592l-0.007-0.42
				c-0.002-0.14-0.004-0.28,0.028-0.421c-0.001-0.105-0.071-0.104-0.108-0.207c-0.084-0.805-0.232-1.397-0.248-2.308
				c0.035-0.036,0.069-0.106,0.103-0.177c-0.001-0.07-0.106-0.068-0.107-0.139c-0.001-0.069,0.033-0.105,0.032-0.176
				c-0.003-0.21-0.077-0.453-0.081-0.699c-0.002-0.068-0.003-0.139,0.031-0.21c-0.108-0.243-0.111-0.452-0.152-0.767
				c-0.036-0.07-0.072-0.139-0.073-0.209c-0.002-0.105,0.066-0.211,0.064-0.352c-0.038-0.174-0.146-0.313-0.148-0.488
				c-0.001-0.033,0.034-0.069,0.033-0.104c-0.036-0.069-0.072-0.139-0.073-0.209c-0.002-0.105,0.031-0.21,0.029-0.315
				c-0.001-0.105-0.003-0.176-0.073-0.244c-0.001-0.07,0.033-0.105,0.066-0.176c-0.146-0.453-0.154-0.908-0.199-1.502
				c-0.001-0.07,0.069-0.107,0.104-0.072c-0.001-0.07-0.071-0.068-0.073-0.174c0.032-0.176-0.042-0.455-0.01-0.63
				c-0.002-0.105,0.067-0.177,0.066-0.247l-0.038-0.14c-0.003-0.175,0.063-0.421,0.13-0.632c0.063-0.422,0.23-0.879,0.472-1.164
				c0.069-0.07-0.001-0.068,0.031-0.21c0.035-0.001,0.035-0.034,0.034-0.069c-0.003-0.176,0.171-0.248,0.238-0.424
				c0.032-0.105,0.102-0.211,0.134-0.353c0.209-0.073,0.241-0.284,0.45-0.321c-0.002-0.141,0.102-0.212,0.205-0.284
				c0.135-0.317,0.483-0.428,0.761-0.642c0.313-0.041,0.628-0.116,0.871-0.225c0.104-0.037,0.105,0.032,0.211,0.03
				c0.139-0.071,0.313-0.109,0.488-0.112C43.103,62.296,43.348,62.327,43.593,62.358z M42.511,66.786
				c0.071,0.069,0.106,0.104,0.108,0.174c0.001,0.105-0.103,0.211-0.101,0.316c0.001,0.069,0.107,0.139,0.108,0.209
				c-0.033,0.104-0.172,0.177-0.17,0.282c0.004,0.244,0.254,0.521,0.258,0.801c0.002,0.07-0.136,0.282-0.134,0.423l0.003,0.174
				c0.004,0.211-0.029,0.316-0.271,0.46c0.249,0.276,0.395,0.589,0.574,0.901c-0.173,0.107-0.241,0.249-0.238,0.424
				s0.111,0.384,0.114,0.559c0.104-0.037,0.141,0.033,0.279-0.004c0.173-0.213,0.097-0.563,0.092-0.877
				c-0.004-0.211,0.028-0.421,0.234-0.564c-0.071-0.068-0.106-0.104-0.108-0.209c0.449-0.392,0.157-1.088,0.326-1.475
				c0.034-0.071,0.208-0.18,0.242-0.215c0.066-0.176,0.099-0.352,0.096-0.526c-0.008-0.49-0.262-1.012-0.441-1.358
				C42.995,66.394,42.824,66.606,42.511,66.786z M43.945,77.511c0.035-0.035-0.001-0.07-0.07-0.033
				C43.91,77.511,43.945,77.511,43.945,77.511z"/>
			<path fill="#231F20" d="M55.172,72.531c0.175-0.003,0.42-0.007,0.665,0.024c0.141,0.033,0.316,0.03,0.456,0.063
				c0.142,0.068,0.319,0.205,0.53,0.271l0.14-0.002c0.28-0.004,0.492,0.133,0.739,0.232c0.253,0.486,0.92,0.651,1.209,1.207
				c0.105,0.033,0.073,0.208,0.214,0.241c-0.034,0.036-0.033,0.071-0.033,0.104c0.002,0.07,0.072,0.141,0.039,0.28
				c0.001,0.035,0.072,0.104,0.073,0.173c0.036,0.035,0.037,0.105,0.002,0.105c0.145,0.244,0.219,0.557,0.225,0.942
				c-0.032,0.141-0.101,0.247-0.098,0.387c0,0.035,0.036,0.069,0.037,0.104c0.071,0.139,0.178,0.207,0.353,0.205l0.105-0.002
				c0.346-0.251,0.765-0.293,1.146-0.51l0.245-0.004c-0.001-0.035,0.104-0.036,0.104-0.036c0.242-0.179,0.521-0.289,0.763-0.468
				c0.242-0.144,0.52-0.324,0.763-0.503l0.381-0.216c0.207-0.178,0.415-0.321,0.693-0.432c0.139-0.072,0.279-0.074,0.452-0.182
				c0.174-0.074,0.173-0.145,0.417-0.217c0.14-0.072,0.347-0.216,0.557-0.219c0.104-0.002,0.21-0.004,0.316,0.099
				c0.071,0.069,0.144,0.173,0.146,0.313c0.001,0.068-0.033,0.105-0.032,0.141c-0.067,0.211-0.136,0.316-0.378,0.496
				c-0.068,0.105-0.03,0.246-0.1,0.316c-0.138,0.143-0.312,0.25-0.378,0.462c-0.07,0.001-0.104,0.036-0.21,0.003
				c-0.067,0.176-0.206,0.214-0.239,0.354c-0.245,0.004-0.242,0.18-0.416,0.217c-0.137,0.248-0.45,0.323-0.622,0.571
				c-0.14-0.033-0.174,0.072-0.244,0.038c-0.033,0.105-0.102,0.178-0.171,0.248c-0.313,0.075-0.414,0.357-0.729,0.397
				c-0.034,0.034-0.068,0.106-0.067,0.177c-0.244,0.072-0.381,0.25-0.66,0.291c-0.104,0.105-0.209,0.107-0.348,0.18
				c-0.139,0.107-0.488,0.113-0.591,0.29c-0.21,0.003-0.313,0.11-0.487,0.147c-0.104,0.106-0.242,0.215-0.451,0.287
				c-0.174,0.037-0.455,0.008-0.629,0.045c-0.104,0.002-0.209,0.074-0.35,0.006c-0.07,0.036-0.104,0.072-0.139,0.143
				c-0.104,0.002-0.07-0.068-0.105-0.068c-0.242,0.145-0.344,0.39-0.48,0.568c-0.486,0.252-0.688,0.711-1.175,0.963
				c-0.067,0.142-0.242,0.18-0.31,0.32c-0.383,0.146-0.765,0.328-1.147,0.51c-0.071-0.07-0.141,0.002-0.245-0.031
				c-0.138,0.107-0.351,0.041-0.523,0.113c-0.037-0.069-0.105-0.033-0.142-0.068c-0.664,0.047-1.263-0.189-1.618-0.463
				c-0.14-0.033-0.282-0.136-0.354-0.24c-0.07-0.033-0.105,0.002-0.141-0.033c-0.002-0.068-0.106-0.066-0.143-0.137l-0.035-0.035
				c-0.036-0.034-0.105,0.002-0.141-0.032s-0.037-0.104-0.107-0.103c-0.143-0.208-0.427-0.414-0.431-0.658
				c-0.14-0.033-0.108-0.174-0.214-0.242c-0.109-0.242-0.251-0.381-0.359-0.623c-0.212-0.102-0.356-0.381-0.359-0.59
				c-0.179-0.207-0.253-0.451-0.257-0.732l-0.001-0.068c-0.002-0.07-0.037-0.105-0.038-0.141l0.031-0.244l-0.002-0.141
				c-0.002-0.105,0.067-0.141,0.067-0.176c-0.003-0.176-0.041-0.35-0.008-0.49c-0.001-0.07,0.067-0.141,0.101-0.247
				c0.1-0.316,0.234-0.669,0.371-0.917c0.066-0.07,0.137-0.106,0.171-0.178c-0.001-0.035,0.068-0.07,0.067-0.141
				c0.069-0.036,0.068-0.071,0.174-0.072c0.135-0.318,0.413-0.463,0.582-0.781c0.279-0.108,0.413-0.461,0.763-0.537
				c0.065-0.211,0.273-0.319,0.411-0.496c0.07-0.037,0.138-0.143,0.242-0.215c0.104-0.036,0.244-0.039,0.349-0.075
				c0.174-0.072,0.313-0.181,0.521-0.254l0.314-0.005c0.315-0.006,0.385-0.076,0.595-0.079
				C55.066,72.464,55.102,72.532,55.172,72.531z M53.263,77.886c-0.102,0.245-0.062,0.525-0.127,0.771
				c0.07,0.068,0.073,0.244,0.18,0.277c-0.104,0.105,0.003,0.174,0.005,0.35c0.176,0.032,0.213,0.137,0.283,0.204
				c0.245-0.004,0.489-0.041,0.735-0.012c0.171-0.247,0.625-0.288,0.902-0.503c0.034-0.071,0.033-0.106-0.004-0.211
				c-0.141-0.103-0.351-0.1-0.492-0.132c-0.036-0.034-0.071-0.104-0.142-0.103c-0.035-0.035-0.14-0.033-0.175-0.032
				c-0.036-0.034-0.108-0.173-0.248-0.171h-0.035c-0.035,0.002-0.036-0.033-0.071-0.068c-0.035,0-0.104,0.002-0.141-0.033
				l-0.072-0.104c-0.035-0.034-0.104-0.033-0.14-0.033c-0.107-0.068-0.179-0.207-0.354-0.203L53.263,77.886z M55.104,74.844
				c-0.104,0.036-0.173,0.142-0.241,0.179c-0.176,0.003-0.312,0.215-0.449,0.393l0.002,0.105c-0.139,0.142-0.205,0.353-0.414,0.426
				c0.037,0.141,0.18,0.242,0.216,0.348l0.108,0.173c0.072,0.139,0.318,0.17,0.355,0.345c0.141,0.032,0.316,0.1,0.424,0.203
				c0.211,0.066,0.492,0.168,0.635,0.27c0.14-0.002,0.176,0.067,0.282,0.102c0.14,0.031,0.28,0.1,0.421,0.098
				c0.104-0.002,0.175-0.039,0.244-0.075c0.101-0.245,0.272-0.46,0.268-0.739l-0.002-0.105c0.068-0.105,0.103-0.176,0.102-0.281
				c-0.002-0.104-0.04-0.244-0.042-0.385c-0.001-0.07,0.032-0.21,0.03-0.314l-0.001-0.07c-0.038-0.141-0.145-0.208-0.18-0.313
				c-0.038-0.139-0.074-0.209-0.11-0.244c-0.142-0.172-0.88-0.335-1.229-0.259C55.347,74.734,55.209,74.842,55.104,74.844z"/>
			<path fill="#231F20" d="M66.183,73.788c0.069-0.036,0.173-0.072,0.243-0.074c0.245-0.004,0.492,0.098,0.702,0.094
				c0.14-0.002,0.209-0.073,0.314-0.004c0.07-0.037,0.104-0.107,0.173-0.109c0.106,0.033,0.177,0.033,0.281,0.031l0.63-0.01
				c0.035-0.001,0.071,0.068,0.142,0.067c0.104-0.001,0.245-0.039,0.385-0.007c0.07,0,0.141,0.068,0.212,0.102
				c0.141,0.068,0.28,0.031,0.421,0.063c0.423,0.168,0.88,0.302,1.201,0.61l0.14-0.002c0.001,0.07,0.071,0.104,0.143,0.139
				c0.107,0.173,0.215,0.311,0.356,0.448c0.002,0.105,0.073,0.175,0.144,0.243c0.038,0.175,0.111,0.313,0.114,0.488l0.001,0.07
				c0,0.035-0.033,0.105-0.033,0.105c0.002,0.141,0.075,0.313,0.077,0.453l0.001,0.07l-0.067,0.176
				c0.001,0.07,0.037,0.105,0.038,0.176c0.001,0.034-0.034,0.07-0.033,0.141c0,0,0.037,0.069,0.037,0.104
				c0.038,0.14,0.004,0.21-0.029,0.352c0.002,0.104,0.037,0.139,0.038,0.209c0.002,0.104-0.066,0.211-0.064,0.316
				c0.001,0.104,0.108,0.173,0.145,0.277c0.037,0.104,0.004,0.209,0.109,0.278c0.002,0.105,0.037,0.104,0.003,0.175
				c0.072,0.104,0.144,0.207,0.146,0.348c0.069,0.035,0.211,0.065,0.213,0.171c0.175,0.032,0.314,0.03,0.387,0.134
				c0.526,0.026,1.222-0.16,1.672-0.447c0.137-0.246,0.558-0.219,0.658-0.5c0.104-0.002,0.209-0.038,0.313-0.109
				c0.104-0.072,0.172-0.213,0.275-0.32c0.069-0.07,0.209-0.072,0.207-0.178c0.209-0.074,0.311-0.216,0.521-0.254
				c0.067-0.105,0.173-0.143,0.312-0.18c0.104-0.072,0.103-0.178,0.172-0.213c0.068-0.072,0.139-0.073,0.243-0.109
				c0.034-0.037,0.068-0.106,0.138-0.178c0.103-0.106,0.242-0.179,0.311-0.25c0.172-0.178,0.17-0.317,0.521-0.323
				c0.035-0.001,0.104-0.001,0.14,0.032c0.211,0.031,0.494,0.201,0.498,0.482l0.004,0.209c0.003,0.176-0.029,0.387-0.097,0.492
				c-0.033,0.106-0.139,0.143-0.173,0.213c-0.033,0.106-0.031,0.246-0.099,0.317c-0.069,0.07-0.104,0.106-0.173,0.143l-0.275,0.319
				c-0.103,0.178-0.135,0.353-0.308,0.461c-0.101,0.246-0.239,0.388-0.446,0.531c-0.136,0.281-0.413,0.461-0.69,0.642
				c-0.137,0.177-0.31,0.319-0.554,0.394c-0.105,0.002-0.104,0.106-0.172,0.143l-0.105,0.002c-0.175,0.003-0.172,0.178-0.382,0.182
				c0.003,0.209-0.276,0.249-0.379,0.391l-0.07,0.002c-0.175,0.003-0.279,0.074-0.383,0.111c-0.209,0.073-0.42,0.076-0.594,0.114
				c-0.14,0.038-0.313,0.11-0.453,0.112l-0.069,0.001c-0.035,0.001,0.001,0.07-0.034,0.071c-0.068,0.07-0.14,0.037-0.209,0.038
				c-0.141,0.003-0.208,0.108-0.349,0.11c-0.104,0.002-0.212-0.102-0.316-0.1c0,0-0.034,0.035-0.069,0.036
				c-0.459-0.237-1.088-0.157-1.41-0.538c-0.14,0.003-0.175-0.031-0.28-0.1c-0.143-0.068-0.283-0.171-0.391-0.273
				c-0.177-0.104-0.213-0.172-0.39-0.274c-0.035-0.034-0.106-0.069-0.141-0.067c-0.036-0.034-0.244,0.074-0.349,0.146
				c-0.069,0.036-0.173,0.107-0.172,0.178c-0.174,0.038-0.242,0.179-0.275,0.284c-0.277,0.18-0.484,0.394-0.797,0.504
				c-0.277,0.18-0.555,0.359-0.938,0.4c-0.07,0.001-0.104,0.072-0.174,0.107c-0.21,0.003-0.35,0.041-0.56,0.079l-0.104,0.001
				c-0.56,0.01-1.088-0.262-1.614-0.322c-0.142-0.104-0.318-0.171-0.46-0.273c-0.036-0.035-0.106-0.068-0.177-0.103
				c-0.143-0.103-0.214-0.276-0.426-0.343c-0.001-0.07-0.036-0.07-0.036-0.105c-0.248-0.17-0.427-0.377-0.674-0.514
				c-0.072-0.139-0.284-0.24-0.358-0.449c-0.036-0.069-0.037-0.14-0.038-0.209l-0.106-0.104c-0.144-0.243-0.184-0.557-0.26-0.905
				c-0.002-0.14-0.006-0.385,0.097-0.562c-0.002-0.07-0.037-0.105-0.073-0.174c-0.004-0.211,0.099-0.316,0.096-0.527
				c-0.001-0.07,0.104-0.036,0.104-0.106c-0.001-0.069-0.002-0.14-0.038-0.175c0.034-0.104,0.104-0.141,0.172-0.213
				c-0.001-0.035-0.036-0.069-0.037-0.104c-0.002-0.105,0.067-0.212,0.065-0.281c0.14-0.002,0.209-0.074,0.243-0.179
				c0.033-0.071-0.072-0.069-0.073-0.14c0.069-0.07,0.104-0.142,0.173-0.178c-0.004-0.245,0.171-0.283,0.237-0.459
				c0.069-0.071,0.209-0.109,0.241-0.249c0.034-0.036,0.14-0.038,0.174-0.073v-0.034c-0.003-0.176,0.137-0.179,0.135-0.282
				l-0.001-0.07c0.24-0.285,0.48-0.604,0.862-0.784c0.035-0.036,0.034-0.106,0.033-0.142c0.07,0,0.139-0.037,0.174-0.072
				c0.069-0.035,0.067-0.141,0.103-0.177c0.068-0.036,0.104,0.033,0.175,0.032c0.173-0.178,0.382-0.217,0.627-0.221l0.209-0.003
				l0.034-0.071L66.183,73.788z M67.647,75.62c-0.032,0.07-0.103,0.071-0.173,0.072c0.001,0.07-0.034,0.106-0.033,0.177
				c-0.14,0.003-0.137,0.142-0.276,0.144c-0.067,0.177-0.172,0.248-0.274,0.391c-0.103,0.176-0.203,0.388-0.27,0.634
				c-0.067,0.211-0.133,0.458-0.164,0.668c-0.033,0.142-0.031,0.245-0.064,0.352c-0.032,0.21-0.133,0.423-0.13,0.632l0.002,0.105
				c0.038,0.209,0.216,0.347,0.426,0.344c0.07-0.002,0.174-0.039,0.243-0.109c0.035-0.002,0.069-0.071,0.103-0.143
				c0.033-0.07,0.104-0.105,0.138-0.142c0.033-0.106,0.065-0.246,0.1-0.317c0.137-0.247,0.24-0.318,0.235-0.598
				c0.207-0.214,0.203-0.459,0.304-0.741l0.102-0.177c0.103-0.176,0.135-0.353,0.201-0.563c0.033-0.069-0.004-0.21,0.029-0.315
				c-0.036-0.069-0.071-0.139-0.073-0.244c-0.141-0.032-0.213-0.206-0.318-0.205C67.717,75.585,67.682,75.585,67.647,75.62z"/>
			<path fill="#231F20" d="M88.06,62.896c0.212,0.172,0.495,0.309,0.742,0.443c0.037,0.21,0.041,0.42,0.113,0.557
				c0.003,0.141,0.143,0.139,0.145,0.314c0.111,0.313,0.43,0.482,0.435,0.832l0.002,0.07c0.104,0.033,0.142,0.138,0.179,0.242
				l0.004,0.246c0.002,0.139,0.004,0.279,0.076,0.383c0.001,0.07-0.069,0.072-0.104,0.142c0.037,0.104,0.143,0.173,0.215,0.276
				c-0.033,0.106-0.031,0.246-0.029,0.352c0.002,0.14,0.005,0.279,0.042,0.42c0.003,0.174-0.065,0.314-0.097,0.492l0.006,0.385
				l-0.103,0.176c-0.032,0.141,0.006,0.315-0.026,0.49c-0.035,0.036-0.069,0.072-0.103,0.143c-0.032,0.175,0.006,0.385-0.167,0.527
				c0.002,0.141-0.102,0.177-0.1,0.316v0.035c-0.14,0.037-0.171,0.213-0.136,0.283c0.001,0.07-0.104,0.071-0.138,0.107
				c0.002,0.104,0.072,0.104,0.073,0.174c-0.034,0.104-0.104,0.141-0.172,0.213c-0.03,0.314-0.025,0.56-0.127,0.807
				c-0.034,0.105-0.104,0.105-0.031,0.279c-0.103,0.107-0.206,0.214-0.238,0.424l-0.278,0.005c-0.027,0.456-0.269,0.704-0.402,1.092
				c-0.069,0.036-0.14,0.073-0.138,0.179c-0.104,0.001-0.174,0.037-0.243,0.107c0.036,0.07,0.072,0.105,0.072,0.139
				c0.003,0.176-0.206,0.249-0.202,0.494c-0.243,0.109-0.378,0.392-0.374,0.636c-0.104,0.107-0.205,0.319-0.309,0.46
				c-0.068,0.072-0.032,0.142-0.101,0.282c0.001,0.07-0.103,0.107-0.138,0.144l-0.029,0.314c0.001,0.07,0.037,0.141,0.073,0.209
				l0.003,0.175c0.006,0.351,0.15,0.663,0.121,1.014c0.037,0.104,0.144,0.173,0.146,0.313l0.001,0.07
				c0.144,0.208,0.429,0.483,0.433,0.764l0.001,0.069c0.212,0.102,0.252,0.382,0.464,0.518c0.037,0.104-0.069,0.07-0.068,0.141
				c0.11,0.277,0.322,0.38,0.5,0.553l0.001,0.07c0.003,0.174,0.075,0.313,0.077,0.418l0.001,0.069
				c0.07,0.034,0.142,0.104,0.213,0.173c0.002,0.104-0.033,0.104-0.067,0.176c0.036,0.069,0.143,0.102,0.146,0.277
				c0.002,0.141-0.102,0.281-0.17,0.389c-0.383,0.146-0.732,0.115-1.047,0.191c-0.176-0.067-0.421-0.028-0.563-0.166
				c-0.244,0.004-0.423-0.168-0.636-0.34s-0.354-0.273-0.602-0.41c-0.106-0.068-0.212-0.102-0.317-0.1
				c-0.489,0.008-0.793,0.713-1.282,0.791c-0.138,0.107-0.206,0.213-0.416,0.217c-0.138,0.143-0.521,0.323-0.799,0.363l-0.421,0.006
				c-0.524,0.01-1.188,0.125-1.783,0.1c-0.212-0.102-0.526-0.097-0.771-0.093c-0.177-0.103-0.354-0.169-0.598-0.165l-0.105,0.002
				c-0.071-0.034-0.141-0.068-0.177-0.139c-0.385,0.007-0.634-0.199-0.916-0.334c-0.036-0.035-0.071-0.069-0.072-0.139
				c-0.142-0.068-0.316-0.1-0.459-0.203c-0.212-0.137-0.32-0.38-0.533-0.551c-0.001-0.07-0.037-0.104-0.038-0.175
				c-0.106-0.069-0.214-0.206-0.252-0.416c-0.143-0.138-0.182-0.417-0.325-0.591c-0.001-0.033,0.034-0.068,0.033-0.139
				c-0.106-0.104-0.215-0.277-0.219-0.487c-0.001-0.069,0.033-0.14,0.067-0.211c-0.002-0.14-0.075-0.279-0.078-0.454
				s0.029-0.385,0.027-0.525c-0.001-0.07-0.037-0.104-0.038-0.14c0.032-0.175,0.135-0.316,0.168-0.458l-0.004-0.245
				c0.029-0.315,0.271-0.563,0.372-0.811c0.244-0.04,0.275-0.25,0.484-0.323c-0.001-0.035-0.069,0.001-0.07-0.034
				c0.03-0.28,0.272-0.46,0.41-0.637c0.034-0.069,0.032-0.175,0.066-0.212c0.138-0.141,0.451-0.217,0.519-0.428
				c0.313-0.145,0.66-0.291,0.938-0.471c0.07-0.001,0.071,0.034,0.141,0.033c0.069-0.037,0.068-0.107,0.138-0.143
				c0.105,0.033,0.211,0.031,0.315,0.029c0.245-0.004,0.489-0.077,0.734-0.081c0.07-0.001,0.14-0.002,0.21,0.032
				c0.452-0.184,0.871-0.19,1.361-0.233c0.06-0.667,0.047-1.437,0.104-2.206c-0.002-0.105,0.104-0.106,0.103-0.177
				c0-0.035-0.036-0.069-0.037-0.104c-0.001-0.105,0.101-0.246,0.1-0.352c-0.001-0.035-0.036-0.07-0.071-0.104
				c0.102-0.143,0.135-0.318,0.132-0.492c0.173-0.109,0.205-0.284,0.272-0.46c0.033-0.106-0.003-0.175-0.004-0.245
				c0.069-0.037,0.032-0.211,0.135-0.283c-0.036-0.069-0.036-0.104-0.038-0.174c-0.003-0.21,0.17-0.388,0.166-0.633
				c0.101-0.246,0.167-0.492,0.268-0.705c-0.001-0.07-0.035-0.104-0.037-0.209c0.174-0.073,0.17-0.318,0.202-0.494
				c-0.001-0.07-0.106-0.068-0.108-0.137c-0.003-0.176,0.031-0.281,0.063-0.457l0.104-0.002c0.136-0.317,0.27-0.635,0.512-0.85
				l-0.001-0.068c-0.006-0.316,0.272-0.495,0.302-0.811c0.175-0.004,0.067-0.141,0.208-0.144c0.068-0.071-0.001-0.07,0.032-0.14
				c0.274-0.319,0.691-0.501,1.003-0.752c0.21-0.038,0.453-0.182,0.662-0.186h0.07c0.103-0.178,0.488-0.114,0.662-0.221l0.104-0.002
				c0.141-0.003,0.279-0.04,0.419-0.043C87.427,62.731,87.745,62.866,88.06,62.896z M81.476,75.71
				c-0.072-0.068-0.106-0.066-0.142-0.066c-0.141,0.002-0.242,0.144-0.382,0.146c-0.137,0.176-0.239,0.318-0.483,0.357
				c-0.104,0.142-0.241,0.283-0.414,0.393c-0.064,0.35-0.235,0.598-0.441,0.847c0.069-0.001,0.14-0.003,0.141,0.067
				c0.004,0.244-0.063,0.422-0.061,0.597c0.001,0.07,0.003,0.175,0.074,0.243c-0.033,0.105-0.031,0.211-0.03,0.316
				c0.002,0.07,0.003,0.141,0.038,0.174c0.181,0.347,0.638,0.479,1.13,0.576c0.104-0.002,0.21,0.031,0.315,0.03
				c0.314-0.005,0.522-0.114,0.692-0.396c0.104-0.143,0.205-0.354,0.272-0.494c0.172-0.213,0.448-0.463,0.444-0.673
				c-0.003-0.21-0.287-0.415-0.291-0.696l-0.002-0.07c-0.105-0.068-0.072-0.173-0.109-0.313c-0.036-0.069-0.072-0.104-0.108-0.209
				c-0.073-0.209-0.182-0.382-0.22-0.557c-0.001-0.105,0.066-0.246-0.041-0.349C81.684,75.638,81.581,75.674,81.476,75.71z
				 M86.062,64.888c-0.172,0.178-0.238,0.424-0.234,0.67c0.003,0.174,0.041,0.35,0.114,0.523c-0.139,0.142-0.027,0.525-0.13,0.702
				c0.002,0.104,0.107,0.067,0.073,0.139c-0.033,0.142-0.066,0.281-0.063,0.421c0.001,0.07,0.003,0.175,0.039,0.244
				c-0.069,0.072-0.104,0.143-0.103,0.212c0.002,0.105,0.074,0.244,0.077,0.384c0.005,0.315,0.044,0.561,0.221,0.697
				c-0.068,0.07-0.137,0.178-0.134,0.317c0.001,0.07,0.037,0.175,0.108,0.243c-0.068,0.072-0.102,0.177-0.101,0.247
				c0.002,0.14,0.074,0.278,0.077,0.419c0.001,0.07,0.002,0.139-0.032,0.211c0.07,0.068,0.039,0.209,0.109,0.313
				c0.136-0.317,0.342-0.602,0.476-0.953c-0.036-0.069,0.032-0.175,0.066-0.246c-0.007-0.385,0.089-0.912,0.367-1.091
				c-0.036-0.034-0.037-0.069-0.037-0.104c-0.003-0.176,0.136-0.317,0.133-0.493c-0.001-0.034-0.036-0.069-0.037-0.104
				c0.033-0.105,0.101-0.211,0.17-0.317c0.064-0.351,0.199-0.634,0.405-0.882c0.03-0.281,0.167-0.493,0.233-0.74
				c-0.005-0.314-0.251-0.38-0.257-0.729c-0.073-0.14-0.351-0.065-0.424-0.203c-0.28,0.005-0.354-0.171-0.598-0.2
				C86.444,64.707,86.271,64.815,86.062,64.888z"/>
			<path fill="#231F20" d="M92.125,71.827c0.003,0.209,0.215,0.276,0.254,0.52c0.001,0.07-0.069,0.072-0.103,0.178l0.004,0.279
				c-0.031,0.211-0.061,0.563-0.057,0.842c-0.068,0.037-0.066,0.141-0.137,0.178c0.037,0.139,0.04,0.279,0.043,0.454
				c0.002,0.14,0.004,0.28-0.028,0.421c0.001,0.07-0.033,0.14-0.031,0.28c0.003,0.175,0.112,0.384-0.061,0.562
				c0.002,0.141,0.145,0.277,0.147,0.452c0.002,0.105-0.103,0.177-0.101,0.282l0.003,0.21c0.003,0.175,0.006,0.35-0.097,0.456
				c0.143,0.173-0.063,0.422,0.045,0.63c-0.103,0.142-0.203,0.388-0.199,0.634c0.002,0.105,0.143,0.207,0.074,0.314
				c0.001,0.07,0.071,0.068,0.107,0.137c0.002,0.07-0.033,0.106-0.067,0.178c0.107,0.102,0.038,0.138,0.041,0.348l0.002,0.14
				c0.003,0.141-0.066,0.212,0.007,0.386c0.071,0.068,0.177,0.102,0.316,0.1c0.211-0.004,0.419-0.077,0.662-0.15
				c0.279-0.11,0.557-0.289,0.834-0.434c0.104-0.107,0.243-0.145,0.347-0.216c0.139-0.108,0.241-0.213,0.415-0.286
				c0.484-0.393,1.075-0.647,1.521-1.109c0.035-0.001,0.07-0.037,0.141-0.038c0.068-0.071,0.102-0.177,0.17-0.248
				c0.069-0.071,0.243-0.144,0.381-0.251c0.104-0.072,0.242-0.215,0.348-0.216l0.104-0.002c-0.001-0.035,0.173-0.142,0.278-0.11
				c0.106,0.069,0,0,0.175-0.002l0.141-0.002c0.069-0.036,0.175-0.037,0.245-0.039c0.104-0.002,0.175,0.031,0.315,0.1
				c0.107,0.068,0.354,0.239,0.357,0.414c0.035,0.035-0.033,0.106-0.032,0.176c-0.033,0.105,0.003,0.141-0.031,0.246
				c-0.034,0.035-0.034,0.07-0.033,0.105c-0.068,0.105-0.172,0.178-0.169,0.388c-0.175,0.003-0.137,0.212-0.239,0.319
				c-0.105,0.002-0.105,0.037-0.175,0.038c-0.069,0.07-0.103,0.177-0.136,0.28c-0.207,0.18-0.415,0.322-0.551,0.535
				c-0.07,0-0.14,0.072-0.175,0.002c-0.034,0.071-0.104,0.107-0.103,0.177c-0.139,0.073-0.206,0.249-0.38,0.356
				c-0.034,0.036-0.104,0.037-0.14,0.038l-0.207,0.179c-0.069,0.035-0.173,0.143-0.242,0.213c-0.383,0.042-0.59,0.221-0.689,0.502
				c-0.14,0.072-0.244,0.108-0.277,0.215c-0.105,0.002-0.174,0.072-0.243,0.108c-0.07,0.036-0.175,0.038-0.208,0.108
				c-0.245,0.004-0.383,0.146-0.521,0.254c-0.068,0.07-0.069,0.001-0.14,0.002c-0.069,0.07-0.103,0.177-0.172,0.213l-0.105,0.002
				c-0.21,0.004-0.278,0.145-0.453,0.146c-0.035,0.001-0.07-0.033-0.104-0.033c-0.139,0.107-0.277,0.18-0.452,0.218
				c-0.067,0.142-0.313,0.146-0.417,0.252c-0.104-0.034-0.211-0.065-0.315-0.064l-0.21,0.003c-0.176-0.066-0.319-0.239-0.46-0.308
				l-0.318-0.169c-0.248-0.207-0.499-0.518-0.746-0.725c0.033-0.07-0.036-0.069-0.037-0.139c-0.248-0.137-0.396-0.625-0.645-0.865
				c-0.036-0.068-0.036-0.068-0.002-0.141c-0.036-0.033-0.037-0.104-0.107-0.068c-0.074-0.277-0.219-0.591-0.296-0.974
				c-0.004-0.245-0.184-0.558-0.188-0.803c-0.001-0.069,0.032-0.175,0.102-0.245c-0.036-0.035-0.038-0.141-0.108-0.175
				c0.059-0.735,0.189-1.263,0.318-1.896c0.034-0.07,0.104-0.107,0.138-0.177c-0.002-0.176-0.003-0.211-0.075-0.35
				c0.136-0.282,0.13-0.632,0.301-0.88c0-0.035-0.036-0.07-0.037-0.105c-0.002-0.139,0.101-0.281,0.133-0.422l-0.002-0.14
				c-0.002-0.14,0.135-0.353,0.202-0.493c0.068-0.141,0.136-0.317,0.238-0.389l-0.002-0.176c0.138-0.143,0.347-0.215,0.376-0.496
				c0.105-0.002,0.104-0.107,0.174-0.144c-0.001-0.069,0.033-0.104,0.032-0.21c0.208-0.108,0.593-0.115,0.873-0.119
				C91.84,71.586,91.983,71.759,92.125,71.827z M93.047,68.311c0.003,0.176,0.109,0.278,0.217,0.417
				c0.036,0.104,0.145,0.242,0.145,0.277l0.003,0.141c0.002,0.141-0.031,0.246-0.136,0.316c-0.033,0.107,0.037,0.141,0.038,0.21
				c-0.137,0.144-0.134,0.317-0.237,0.459c-0.103,0.143-0.278,0.11-0.452,0.183c-0.069,0.036-0.103,0.107-0.173,0.143l-0.279,0.076
				l-0.21,0.003c-0.314,0.005-0.632-0.13-0.914-0.23c-0.108-0.243-0.112-0.524-0.256-0.661l-0.002-0.141
				c-0.002-0.14,0.031-0.246,0.064-0.351c0.032-0.21,0.065-0.282,0.203-0.423c0.173-0.145,0.382-0.217,0.448-0.463
				c0.174-0.038,0.382-0.146,0.592-0.15C92.449,68.11,92.764,68.176,93.047,68.311z"/>
			<path fill="#231F20" d="M97.659,72.087c0.071,0.104,0.144,0.242,0.318,0.24c0.073,0.173,0.283,0.205,0.322,0.449
				c0.176,0.032,0.184,0.487,0.222,0.697l0.035-0.001c0.104-0.002,0.173-0.108,0.278-0.11c0.171-0.246,0.486-0.218,0.869-0.363
				c0.313-0.145,0.586-0.57,1.077-0.508c0.312-0.215,0.695-0.326,1.221-0.301c0.07,0.034,0.106,0.104,0.212,0.138
				c0.769-0.153,0.886,0.581,1.378,0.817c0.144,0.173,0.218,0.451,0.396,0.658c0.001,0.07-0.033,0.107-0.032,0.176
				c0.002,0.141,0.073,0.244,0.075,0.385l0.002,0.104c0.07-0.001,0.072,0.104,0.107,0.138l0.002,0.105
				c0.004,0.246,0.112,0.383,0.116,0.664c0.035,0.069,0.106,0.104,0.143,0.172c-0.033,0.106,0.004,0.246,0.006,0.352
				c0.003,0.209-0.101,0.315-0.132,0.492c-0.031,0.244,0.043,0.523-0.129,0.701c0.036,0.105,0.074,0.244,0.005,0.315
				c0.001,0.07,0.072,0.104,0.073,0.174c-0.103,0.212-0.1,0.353-0.271,0.53c0.071,0.068,0.109,0.242,0.111,0.383
				c0.002,0.105,0.003,0.174-0.102,0.246c0.001,0.07,0.14-0.003,0.107,0.104c0.002,0.139-0.103,0.176-0.137,0.246
				c0.003,0.211,0.145,0.242,0.217,0.418c0.001,0.068-0.103,0.105-0.102,0.211l0.002,0.07c0.001,0.105,0.073,0.278,0.076,0.419
				c0,0.034-0.033,0.069-0.033,0.104c0.036,0.105,0.177,0.104,0.179,0.208c0.804-0.083,1.323-0.407,1.95-0.627
				c0.312-0.25,0.658-0.396,0.935-0.646c0.104-0.036,0.175-0.037,0.209-0.073c0.207-0.214,0.52-0.358,0.763-0.503
				c0.482-0.427,0.896-0.889,1.45-1.247l0.28-0.005c0.102-0.143,0.242-0.18,0.345-0.285l0.07-0.002
				c0.42-0.007,0.59-0.29,0.974-0.296c0.351-0.006,0.6,0.2,0.674,0.479l0.006,0.385c-0.027,0.42-0.515,0.639-0.613,1.025
				c-0.068,0.07-0.208,0.107-0.242,0.213c-0.278,0.005-0.38,0.252-0.518,0.358c-0.207,0.179-0.593,0.185-0.587,0.57
				c-0.173,0.107-0.381,0.216-0.554,0.358c-0.035,0.001-0.069,0.072-0.104,0.072c-0.14,0.002-0.276,0.145-0.31,0.285
				c-0.07,0-0.104,0.036-0.174,0.037c-0.07,0.037-0.103,0.178-0.137,0.248c-0.207,0.178-0.557,0.184-0.693,0.431
				c-0.21,0.003-0.382,0.183-0.591,0.255c-0.208,0.145-0.487,0.183-0.694,0.361c-0.07,0.037-0.175,0.039-0.244,0.074
				c-0.208,0.108-0.449,0.393-0.659,0.396l-0.14,0.002c-0.14,0.072-0.242,0.179-0.347,0.251c-0.139,0.036-0.244,0.038-0.276,0.179
				c-0.314,0.041-0.521,0.254-0.801,0.328l-0.175,0.003l-0.174,0.038c-0.071-0.034-0.177-0.102-0.282-0.1
				c-0.139-0.033-0.279,0.004-0.419,0.006c-0.246-0.066-0.563-0.2-0.706-0.339c-0.036-0.069-0.037-0.14-0.108-0.208
				c-0.071-0.139-0.179-0.242-0.285-0.346c-0.108-0.172-0.249-0.24-0.288-0.485c-0.214-0.241-0.394-0.554-0.505-0.901
				c-0.355-0.345-0.399-0.904-0.617-1.356c-0.001-0.07,0.067-0.105,0.066-0.176c-0.107-0.208-0.147-0.522-0.152-0.802
				c-0.002-0.141-0.004-0.244,0.029-0.351c-0.036-0.069-0.108-0.208-0.004-0.245c-0.178-0.172-0.08-0.594-0.152-0.768
				c0.033-0.07,0.067-0.106,0.103-0.143c-0.036-0.069-0.037-0.104-0.039-0.209c-0.001-0.104,0.032-0.211,0.066-0.281
				c-0.036-0.068-0.072-0.104-0.074-0.209c0.034-0.07,0.032-0.176,0.103-0.212c-0.036-0.068-0.037-0.104-0.038-0.174
				c-0.004-0.245,0.132-0.458,0.129-0.667c-0.001-0.07-0.037-0.105-0.038-0.14c-0.104,0.002-0.103,0.071-0.243,0.038
				c-0.032,0.211-0.206,0.318-0.202,0.564c-0.311,0.215-0.409,0.637-0.685,0.887l0.001,0.07c0.002,0.139,0.107,0.172,0.145,0.276
				c-0.066,0.246-0.275,0.354-0.306,0.601c0.072,0.139,0.109,0.279,0.112,0.453c0.004,0.246-0.063,0.457-0.236,0.564
				c0.039,0.208,0.076,0.348,0.08,0.559c-0.033,0.14-0.209,0.107-0.242,0.213c0.003,0.141,0.107,0.174,0.145,0.278
				c-0.032,0.175,0.005,0.279,0.007,0.455c-0.067,0.07-0.102,0.177-0.1,0.281l0.002,0.105c-0.14,0.072-0.103,0.212-0.134,0.422
				c-0.035,0.036-0.067,0.142-0.066,0.177c0.001,0.07,0.072,0.173,0.073,0.243c-0.032,0.175-0.172,0.213-0.169,0.354
				c-0.175,0.037-0.172,0.213-0.24,0.318c0.073,0.174-0.032,0.21,0.041,0.384c-0.067,0.143-0.241,0.25-0.45,0.288
				c-0.104,0.107-0.102,0.247-0.24,0.319c-0.21,0.004-0.176-0.067-0.35,0.006c-0.142-0.068-0.178-0.103-0.353-0.1
				c-0.249-0.275-0.637-0.445-0.817-0.792c-0.177-0.103-0.215-0.312-0.392-0.413c-0.076-0.454-0.43-0.59-0.609-0.9
				c-0.04-0.28-0.08-0.664-0.087-1.051l-0.004-0.244c-0.001-0.105,0.066-0.211,0.064-0.316c-0.001-0.07-0.071-0.139-0.072-0.209
				s0.031-0.139,0.03-0.209c-0.002-0.105-0.073-0.279-0.076-0.453l-0.002-0.105c-0.002-0.141,0.03-0.281-0.077-0.42l-0.013-0.805
				c0.067-0.141,0.102-0.211,0.063-0.385c0.206-0.249,0.095-0.633,0.158-1.02c-0.001-0.07,0.101-0.281,0.099-0.387
				c-0.003-0.141-0.074-0.278,0.028-0.386c-0.001-0.069-0.037-0.14-0.072-0.209c-0.081-0.663,0.152-1.401,0.106-2.032
				c-0.004-0.279,0.239-0.389,0.412-0.461c0.207-0.145,0.416-0.252,0.661-0.256C97.058,71.782,97.342,72.057,97.659,72.087z"/>
			<path fill="#231F20" d="M115.922,71.509c0.391,0.275,0.848,0.441,1.203,0.752c0.104-0.002,0.142,0.104,0.281,0.065
				c0.143,0.173,0.251,0.381,0.394,0.554l0.213,0.172c0.18,0.277,0.22,0.592,0.364,0.869c0.038,0.175,0.283,0.275,0.287,0.485
				c0.003,0.21-0.099,0.388,0.079,0.524l-0.069,0.106c0.22,0.591,0.197,1.327,0.277,1.956c0.35-0.041,0.414-0.357,0.765-0.398
				c0.138-0.107,0.275-0.215,0.45-0.287c0.553-0.429,1.248-0.721,2.016-0.943c0.101-0.211,0.381-0.25,0.659-0.361
				c0.174-0.037,0.312-0.18,0.451-0.252c0.277-0.109,0.837-0.188,1.256-0.265c0.279-0.04,0.663-0.151,0.908-0.155
				c0.28,0.031,0.669,0.34,0.675,0.689c0.002,0.105-0.031,0.211-0.101,0.316c-0.067,0.071-0.171,0.143-0.274,0.215
				c-0.068,0.105-0.173,0.213-0.241,0.25c-0.034,0.034-0.105,0.001-0.174,0.037c-0.069,0.07-0.103,0.177-0.172,0.247
				c-0.104,0.107-0.276,0.181-0.346,0.286c-0.068,0.071-0.103,0.176-0.171,0.213c-0.069,0.071-0.14,0.072-0.208,0.109
				c-0.14,0.07-0.277,0.214-0.416,0.32l-0.24,0.25c-0.455,0.042-0.66,0.291-0.901,0.539c-0.314,0.076-0.558,0.22-0.729,0.433
				c-0.279,0.075-0.416,0.286-0.623,0.429c-0.175,0.073-0.384,0.146-0.557,0.254c-0.068,0.072-0.104,0.107-0.242,0.18
				c-0.069,0.036-0.103,0.143-0.173,0.178c-0.173,0.072-0.383,0.076-0.485,0.252c-0.419,0.113-0.52,0.324-0.939,0.402
				c-0.104,0.036-0.066,0.176-0.242,0.143c-0.033,0.106-0.066,0.211-0.241,0.215c0.037,0.104-0.068,0.141-0.103,0.211
				c-0.066,0.143,0.006,0.352-0.167,0.389c0.001,0.105,0.105,0.068,0.107,0.174c0.002,0.139-0.103,0.141-0.137,0.212
				c0.143,0.173-0.1,0.28,0.043,0.454l-0.172,0.213c0.071,0.139-0.103,0.177-0.136,0.283l0.002,0.104
				c0.002,0.141-0.032,0.211-0.1,0.352c0.038,0.141,0.075,0.314,0.077,0.454c0.003,0.176-0.029,0.315-0.098,0.423
				c0.037,0.104,0.038,0.209,0.041,0.35c0.004,0.244-0.027,0.49-0.2,0.598l0.003,0.176c0.002,0.139,0.039,0.243-0.028,0.455
				l-0.102,0.212c0.001,0.104,0.038,0.175,0.074,0.243c-0.171,0.248-0.13,0.597-0.194,0.982c-0.033,0.142-0.066,0.246-0.064,0.352
				c0.001,0.07,0.002,0.141,0.073,0.209c-0.103,0.177,0.007,0.385-0.166,0.527c0.036,0.035,0.07,0.069,0.071,0.14
				c-0.101,0.212-0.339,0.636-0.578,0.989c-0.033,0.141-0.172,0.179-0.241,0.284c-0.173,0.108-0.276,0.25-0.449,0.356l-0.415,0.287
				c-0.103,0.107-0.172,0.213-0.276,0.25c-0.173,0.108-0.383,0.111-0.484,0.289c-0.245,0.004-0.453,0.146-0.663,0.15
				c-0.07,0-0.142-0.033-0.212-0.066c-0.174,0.107-0.383,0.146-0.628,0.15c-0.314,0.004-0.631-0.061-0.809-0.232l-0.175,0.003
				c-0.46-0.272-1.022-0.403-1.31-0.819c-0.314-0.064-0.492-0.236-0.672-0.443c-0.246-0.066-0.389-0.274-0.532-0.482
				c-0.211-0.102-0.252-0.416-0.429-0.554c-0.11-0.277-0.256-0.661-0.263-1.081c0,0-0.001-0.034,0.034-0.035
				c-0.036-0.069-0.037-0.14-0.039-0.244c-0.002-0.141-0.004-0.28,0.029-0.352c-0.001-0.07-0.106-0.068-0.107-0.172
				c-0.012-0.664,0.189-1.229,0.64-1.516c0.066-0.281,0.203-0.458,0.447-0.533c-0.037-0.104-0.003-0.174,0.031-0.21
				c0-0.035,0.07-0.036,0.14-0.037l0.103-0.177c0.068-0.071,0.104-0.072,0.137-0.143c0.035-0.035,0.033-0.141,0.068-0.176
				c0.171-0.213,0.519-0.254,0.585-0.535c0.28-0.004,0.347-0.25,0.483-0.393c0.069-0.07,0.208-0.144,0.313-0.215
				c0.103-0.107,0.206-0.214,0.275-0.25c0.069-0.07,0.14-0.037,0.208-0.108c0.139-0.107,0.207-0.214,0.346-0.321
				c0.103-0.105,0.207-0.178,0.345-0.285c-0.038-0.175-0.247-0.102-0.388-0.169c-0.07,0.001-0.106-0.067-0.176-0.102
				c-0.458-0.134-0.915-0.23-1.2-0.577c-0.211-0.03-0.353-0.133-0.426-0.307c-0.175-0.033-0.281-0.137-0.388-0.239
				c-0.036-0.069,0.033-0.071,0.033-0.106c-0.036-0.068-0.176-0.031-0.212-0.065c-0.144-0.243-0.391-0.38-0.466-0.657
				c-0.069-0.035-0.105-0.104-0.176-0.104c-0.109-0.278-0.322-0.449-0.467-0.691c-0.04-0.279-0.183-0.452-0.256-0.661l-0.003-0.175
				c-0.002-0.105-0.071-0.104-0.072-0.174l-0.007-0.42c-0.005-0.28-0.009-0.525,0.092-0.771c-0.001-0.07,0.069-0.105,0.067-0.211
				l-0.003-0.141c0.033-0.141,0.171-0.283,0.203-0.423c0.068-0.142,0.031-0.246,0.065-0.353c0.033-0.104,0.171-0.213,0.204-0.353
				c0.067-0.142,0.136-0.212,0.239-0.354c0.033-0.07,0.031-0.211,0.172-0.213l-0.004-0.21c0.068-0.105,0.137-0.212,0.24-0.318
				c0.174-0.038,0.311-0.216,0.484-0.323c0.103-0.072,0.203-0.389,0.306-0.496c0.069-0.105,0.173-0.142,0.277-0.214
				c0.069-0.071,0.102-0.177,0.171-0.248c0.104-0.071,0.209-0.073,0.277-0.179l0.175-0.004c0.276-0.249,0.659-0.395,1.111-0.543
				c0.07-0.037,0.104-0.071,0.138-0.107c0.385-0.076,0.944-0.12,1.189-0.124C115.112,71.138,115.5,71.411,115.922,71.509z
				 M113.694,83.029c-0.068,0.142-0.101,0.282-0.275,0.284l-0.102,0.213c-0.243,0.109-0.31,0.354-0.589,0.429
				c-0.033,0.071-0.067,0.142-0.137,0.177c-0.034,0.071-0.138,0.108-0.207,0.18c-0.104,0.141-0.063,0.421-0.272,0.459
				c-0.034,0.105,0.036,0.104,0.002,0.176c-0.242,0.143-0.306,0.529-0.478,0.742c0.035,0.034,0.071,0.104,0.073,0.174
				c0.001,0.105-0.101,0.281-0.098,0.422l0.001,0.07c0.07,0.067,0.178,0.172,0.215,0.311c0.176,0.067,0.316,0.1,0.491,0.098
				l0.665-0.012l0.417-0.217l-0.002-0.141c0.345-0.285,0.868-0.433,0.964-0.959c0.104-0.107,0.172-0.178,0.205-0.318
				c0.068-0.107,0.032-0.176,0.029-0.352c-0.003-0.209,0.1-0.352,0.202-0.492c-0.005-0.28,0.062-0.527,0.163-0.703
				c-0.003-0.176,0.03-0.316,0.099-0.422c-0.036-0.07-0.073-0.174-0.074-0.244c-0.003-0.176,0.1-0.352,0.062-0.562
				C114.455,82.422,114.358,82.983,113.694,83.029z M115.212,75.198c-0.209,0.038-0.205,0.283-0.521,0.288
				c0.002,0.14-0.173,0.143-0.241,0.249c-0.069,0.07-0.035,0.001-0.14,0.002c-0.136,0.282-0.521,0.324-0.727,0.537l-0.14,0.002
				c-0.102,0.282-0.133,0.527-0.304,0.74c0,0.035,0.036,0.07,0.037,0.14c0.003,0.176-0.1,0.353-0.098,0.491l0.002,0.07
				c0.316,0.102,0.359,0.555,0.709,0.549c0.175-0.003,0.313-0.145,0.557-0.219c-0.002-0.141,0.172-0.178,0.241-0.283
				c0.034-0.001,0.033-0.071,0.066-0.143c0.069-0.105,0.104-0.141,0.172-0.281c0.101-0.213,0.168-0.389,0.164-0.635
				c0.104-0.105,0.101-0.246,0.099-0.386l-0.003-0.175c-0.005-0.28,0.131-0.598,0.126-0.877L115.212,75.198z"/>
			<path fill="#231F20" d="M125.12,79.623c0.036,0.034,0.106,0.032,0.106,0.032c0.178,0.174,0.253,0.486,0.465,0.588
				c0.004,0.246,0.109,0.313,0.183,0.453c0.004,0.279,0.113,0.593,0.014,0.84c-0.034,0.07-0.207,0.213-0.275,0.32
				c-0.068,0.105-0.172,0.213-0.311,0.25c-0.104,0.105-0.207,0.178-0.24,0.318c-0.28,0.004-0.525,0.008-0.698,0.117
				c-0.071-0.07-0.176-0.068-0.281-0.066c-0.28,0.004-0.389-0.238-0.635-0.27c-0.037-0.14-0.144-0.208-0.284-0.241
				c-0.037-0.104-0.074-0.208-0.179-0.242c-0.041-0.349-0.256-0.626-0.261-0.94c0-0.035,0.031-0.246,0.065-0.281
				c-0.001-0.105,0.102-0.212,0.136-0.283c0.034-0.035-0.036-0.069-0.002-0.104c0.033-0.106,0.172-0.18,0.135-0.318
				c0.104-0.072,0.173-0.143,0.241-0.214c0.176-0.003,0.243-0.144,0.348-0.216c0.244-0.039,0.594-0.045,0.804-0.048
				C124.696,79.385,124.908,79.485,125.12,79.623z"/>
			<path fill="#231F20" d="M129.704,79.548c0.036,0.034,0.106,0.033,0.106,0.033c0.178,0.173,0.253,0.486,0.465,0.588
				c0.004,0.246,0.109,0.313,0.183,0.453c0.004,0.279,0.113,0.592,0.014,0.84c-0.034,0.07-0.207,0.213-0.275,0.319
				c-0.069,0.106-0.172,0.213-0.311,0.251c-0.104,0.105-0.207,0.178-0.24,0.318c-0.28,0.004-0.525,0.008-0.698,0.116
				c-0.071-0.069-0.176-0.067-0.281-0.065c-0.28,0.004-0.389-0.239-0.635-0.271c-0.037-0.139-0.145-0.208-0.284-0.24
				c-0.037-0.104-0.074-0.209-0.179-0.242c-0.041-0.349-0.256-0.626-0.261-0.94c0-0.035,0.031-0.246,0.065-0.281
				c-0.001-0.105,0.102-0.212,0.136-0.283c0.034-0.035-0.036-0.069-0.002-0.104c0.033-0.106,0.172-0.18,0.135-0.318
				c0.104-0.072,0.173-0.143,0.241-0.214c0.176-0.003,0.243-0.144,0.348-0.216c0.244-0.039,0.594-0.045,0.804-0.048
				C129.28,79.31,129.492,79.411,129.704,79.548z"/>
			<path fill="#231F20" d="M134.287,79.474c0.036,0.034,0.106,0.033,0.106,0.033c0.178,0.173,0.253,0.486,0.465,0.588
				c0.004,0.245,0.109,0.313,0.183,0.452c0.004,0.279,0.113,0.593,0.013,0.84c-0.033,0.071-0.206,0.214-0.274,0.32
				c-0.069,0.105-0.172,0.213-0.311,0.25c-0.104,0.106-0.207,0.179-0.24,0.318c-0.28,0.005-0.525,0.009-0.697,0.117
				c-0.071-0.069-0.176-0.067-0.281-0.065c-0.28,0.004-0.389-0.239-0.635-0.271c-0.037-0.14-0.145-0.208-0.284-0.241
				c-0.037-0.104-0.074-0.208-0.179-0.242c-0.041-0.349-0.256-0.625-0.261-0.939c0-0.035,0.031-0.246,0.065-0.281
				c-0.001-0.105,0.102-0.213,0.136-0.283c0.034-0.035-0.036-0.07-0.002-0.104c0.033-0.106,0.172-0.179,0.135-0.317
				c0.104-0.072,0.173-0.143,0.241-0.215c0.176-0.002,0.243-0.143,0.348-0.215c0.244-0.039,0.594-0.045,0.803-0.049
				C133.863,79.235,134.075,79.337,134.287,79.474z"/>
		</g>
	</g>
</g>
</svg>
