<?xml version="1.0" encoding="utf-8"?>
<!-- Generator: Adobe Illustrator 16.0.0, SVG Export Plug-In . SVG Version: 6.00 Build 0)  -->
<!DOCTYPE svg PUBLIC "-//W3C//DTD SVG 1.1//EN" "http://www.w3.org/Graphics/SVG/1.1/DTD/svg11.dtd">
<svg version="1.1" id="Layer_1" xmlns="http://www.w3.org/2000/svg" xmlns:xlink="http://www.w3.org/1999/xlink" x="0px" y="0px"
	 width="227.217px" height="95.417px" viewBox="0 0 227.217 95.417" enable-background="new 0 0 227.217 95.417"
	 xml:space="preserve">
<path fill="#998282" d="M228.099,36.156l-0.023-0.462c-0.105-2.159-1.102-4.178-2.748-5.576c-1.42-1.205-3.215-1.857-5.059-1.857
	c-0.295,0-0.594,0.018-0.891,0.052l-1.634,0.188c-0.245,0.027-0.485,0.067-0.724,0.117c-1.392-2.327-3.936-3.849-6.742-3.849
	c-0.149,0-0.311,0.005-0.471,0.015c-0.139-0.007-0.274-0.011-0.412-0.011c-1.82,0-3.584,0.647-4.986,1.809
	c-1.221-0.455-2.629-0.744-4.236-0.744c-0.045,0-0.184,0.001-0.229,0.002c-0.287,0.005-0.567,0.044-0.848,0.079
	c-1.937-1.669-4.5-2.669-7.253-2.669c-1.429,0-3.872,0.178-6.424,1.831c-0.849-0.309-1.749-0.591-2.666-0.591
	c-0.032,0-0.063,0-0.096,0c-1.246,0-2.363,0.279-3.364,0.514c-1.497-0.679-3.113-0.97-4.764-0.97c-2.508,0-5.771,0.925-7.824,3.306
	c-1.271-0.497-2.658-0.758-4.096-0.758c-1.428,0-3.871,0.512-6.424,2.164c-0.849-0.308-1.75-0.255-2.666-0.255
	c-0.031,0-0.063,0-0.096,0c-1.246,0-2.361-0.049-3.363,0.187c-1.496-0.678-3.112-1.133-4.764-1.133
	c-2.975,0-7.013,1.212-8.834,4.724c-1.104-0.392-2.263-0.65-3.463-0.65c-0.305,0-0.611,0.001-0.92,0.028
	c-1.26,0.111-2.453,0.517-3.492,1.175c-1.829-0.977-3.9-1.505-6.052-1.505c-0.644,0-1.294,0.044-1.938,0.136
	c-0.811,0.116-1.595,0.365-2.328,0.725c-6.708-15.02-21.775-25.519-39.259-25.519c-14.87,0-27.998,7.593-35.718,19.103
	c-0.911-0.317-1.848-0.496-2.806-0.496c-2.916,0-5.504,1.32-7.099,3.621c-0.055,0.079-0.107,0.158-0.159,0.239
	c-0.602,0.94-0.913,1.833-1.188,2.854c-0.163,0.596-0.311,1.241-0.435,1.89c-0.077,0.395-0.142,0.738-0.199,1.049
	c-0.362-0.075-0.73-0.13-1.104-0.161c-0.213-0.018-0.522-0.03-0.736-0.03c-0.54,0-1.066,0.063-1.582,0.156
	c-1.386-0.633-2.903-0.973-4.487-0.973c-0.584,0-1.181,0.045-1.774,0.135c-0.436,0.066-0.857,0.167-1.263,0.3
	c-0.952,0.279-1.857,0.708-2.721,1.252c-0.536-0.093-1.082-0.148-1.64-0.148c-0.071,0-0.196,0.001-0.268,0.003
	c-1.514,0.042-2.952,0.429-4.229,1.12c-0.489-0.073-0.993-0.11-1.509-0.11c-3.508,0-6.6,1.891-8.072,4.94
	C1.307,42.889,1,44.52,1,46.852c0,0.832,0.068,1.7,0.203,2.629c0.108,0.767,0.253,1.556,0.423,2.317
	c0.18,0.822,0.395,1.625,0.64,2.385c0.362,1.127,0.782,2.068,1.282,2.882c0.032,0.054,0.065,0.104,0.099,0.156
	c0.42,0.646,0.932,1.262,1.538,1.847c0.36,0.348,0.743,0.669,1.136,0.958c0.041,0.345,0.091,0.683,0.149,1.013
	c0.329,1.879,1.059,3.549,2.186,4.985c1.38,1.748,3.344,2.933,5.549,3.343c0.533,0.096,1.072,0.146,1.604,0.146
	c3.053,0,5.846-1.642,7.31-4.286c0.422-0.76,0.673-1.508,0.841-2.284c1.275-0.147,2.512-0.519,3.671-1.077
	c0.776,0.211,1.586,0.327,2.418,0.327c0.329,0,0.67-0.017,1.021-0.054c0.097-0.012,0.193-0.021,0.289-0.036
	c0.573-0.082,1.126-0.205,1.646-0.367c0.365-0.112,0.722-0.251,1.069-0.411c0.866,0.28,1.747,0.422,2.635,0.422
	c0.335,0,0.696-0.031,1.049-0.076c5.218,17.861,21.732,30.953,41.257,30.953c9.277,0,17.87-2.941,24.902-7.959
	c2.016-0.013,3.658-0.174,4.737-1.174c0.035,0,0.071,0,0.107,0c2.794,0,4.847-1.279,6.397-2.431
	c3.713-2.822,5.592-8.392,6.057-10.882c0.233-1.203,0.365-2.367,0.438-3.471c0.003-0.002,0.005,0.262,0.007,0.26
	c0.897,0.168,1.832,0.521,2.798,0.521c0.001,0,0.002,0,0.002,0c1.229,0,2.452-0.414,3.639-0.695
	c1.908,1.791,4.133,2.881,7.157,2.881c3.651,0,6.388-1.991,8.788-4.445c0.043,0.018,0.098,0.006,0.135,0.021
	c0.922,0.354,1.87,0.506,2.807,0.506c2.703,0,5.291-1.418,6.723-3.836c0.105,0.035,0.216,0.064,0.328,0.099
	c0.738,0.219,1.484,0.321,2.221,0.321c0.438,0,0.868-0.037,1.292-0.108c1.531,0.838,3.288,1.287,5.188,1.287v-0.001
	c1.587,0,2.949-0.301,4.045-0.543c0.156-0.035,0.314-0.07,0.475-0.104c0.469-0.057,1.07-0.138,1.739-0.271
	c0.294-0.057,0.553-0.121,0.767-0.184c0.995-0.232,1.894-0.554,2.709-0.94c0.381,0.179,0.707,0.306,0.941,0.396
	c0.921,0.354,1.87,0.522,2.807,0.522c2.703,0,5.291-1.411,6.723-3.828c0.106,0.035,0.217,0.069,0.328,0.104
	c0.74,0.218,1.485,0.322,2.221,0.322c0.438,0,0.867-0.037,1.292-0.107c1.53,0.838,3.288,1.287,5.188,1.287l0,0
	c0.182,0,0.349-0.016,0.522-0.023c-0.082,6.209,3.916,11.75,9.595,12.861c0.596,0.121,1.207,0.431,1.821,0.431
	c2.04,0,3.7-0.948,4.79-0.948c0.035,0,0.07,0,0.107,0c3.152,0,5.375-1.896,6.396-2.656c3.713-2.822,5.592-8.506,6.057-10.994
	c0.233-1.203,0.365-2.426,0.438-3.526C228.832,50.83,228.356,41.339,228.099,36.156z"/>
<g>
	<g>
		<path fill="#FFFFFF" d="M78.013,91.621c-23.7,0-42.982-19.281-42.982-42.981c0-23.701,19.282-42.983,42.982-42.983
			c23.701,0,42.983,19.282,42.983,42.983C120.996,72.339,101.714,91.621,78.013,91.621z M78.013,40.637
			c-4.412,0-8.002,3.589-8.002,8.001s3.59,8.001,8.002,8.001c4.412,0,8.002-3.589,8.002-8.001S82.425,40.637,78.013,40.637z"/>
		<path fill="#FFFFFF" d="M78.013,13.471c-19.422,0-35.167,15.744-35.167,35.168c0,19.423,15.745,35.167,35.167,35.167
			c19.422,0,35.168-15.744,35.168-35.167C113.181,29.215,97.435,13.471,78.013,13.471z M62.195,48.639
			c0-8.735,7.082-15.816,15.817-15.816c8.735,0,15.818,7.08,15.818,15.816c0,8.735-7.082,15.815-15.817,15.815
			C69.278,64.455,62.195,57.375,62.195,48.639z"/>
	</g>
	<g>
		<g>
			<path fill="#FFFFFF" d="M102.862,83.642c-0.613,0-1.225-0.063-1.82-0.182c-6.259-1.226-10.494-7.826-9.455-14.776
				c0.287-2.021,0.841-3.787,1.564-5.341c-0.998-1.033-1.944-2.413-2.677-4.291c-2.442-6.5,0.06-14.539,1.247-17.698
				c1.129-3,3.974-5.007,7.179-5.063c0.046,0,0.185-0.002,0.229-0.002c1.609,0,3.016,0.29,4.237,0.745
				c1.402-1.161,3.166-1.808,4.985-1.808c0.135,0,0.27,0.003,0.405,0.011c0.163-0.01,0.325-0.016,0.478-0.016
				c2.807,0,5.352,1.521,6.742,3.848c0.237-0.05,0.479-0.089,0.725-0.117l1.634-0.188c0.297-0.034,0.595-0.051,0.892-0.051
				c1.842,0,3.637,0.652,5.058,1.857c1.647,1.399,2.643,3.417,2.747,5.576l0.023,0.462c0.26,5.183,0.734,14.61-6.402,19.093
				c-0.072,1.102-0.205,2.262-0.438,3.465c-0.465,2.488-2.344,8.049-6.058,10.871c-1.55,1.149-3.604,2.406-6.396,2.406
				c-0.036,0-0.072-0.001-0.107-0.001C106.563,82.968,104.902,83.642,102.862,83.642z"/>
			<path fill="#FFFFFF" d="M134.254,68.539c-3.024,0-5.249-1.223-7.157-3.015c-1.187,0.281-2.408,0.429-3.639,0.429
				c0,0-0.001,0-0.002,0c-7.5,0-13.135-5.211-14.024-12.97c-0.384-3.358-0.671-5.872,0.855-8.514
				c0.032-0.153,0.062-0.307,0.093-0.459c0.149-0.742,0.337-1.666,0.654-2.629c2.095-6.344,3.104-8.419,5.75-9.956
				c0.867-0.503,1.822-0.835,2.816-0.978c0.644-0.092,1.295-0.139,1.938-0.139c2.15,0,4.223,0.526,6.052,1.503
				c1.039-0.658,2.233-1.071,3.492-1.182c0.31-0.027,0.615-0.041,0.92-0.041c3.878,0,7.431,2.215,9.476,5.539
				c0.148-0.009,0.297-0.013,0.443-0.013c1.842,0,3.637,0.651,5.055,1.854c1.647,1.397,2.645,3.414,2.752,5.571l0.022,0.461
				c0.237,4.663,0.601,11.708-3.631,16.663C142.913,64.505,139.542,68.539,134.254,68.539z"/>
			<path fill="#FFFFFF" d="M145.981,64.738c-0.936,0-1.885-0.169-2.806-0.523c-0.469-0.18-1.304-0.502-2.204-1.105
				c-1.619-0.093-4.955-0.563-7.306-3.857c-0.258-0.361-0.485-0.744-0.679-1.146c-0.713-1.481-2.198-4.563-0.178-16.198
				c0.275-1.571,0.744-2.788,1.086-3.676c0.114-0.296,0.213-0.548,0.287-0.771c0.028-0.262,0.063-0.686,0.09-0.988
				c0.127-1.524,0.258-3.101,0.899-4.653c0.043-0.106,0.091-0.21,0.138-0.314c1.742-3.739,5.931-5.066,8.987-5.066
				c1.649,0,3.267,0.353,4.765,1.031c1-0.235,2.117-0.377,3.362-0.392c0.032,0,0.063,0,0.097,0c0.916,0,1.816,0.161,2.666,0.469
				c2.551-1.652,4.994-1.951,6.424-1.951c4.734,0,8.929,2.949,10.287,7.2c1.599,0.144,3.127,0.779,4.369,1.837
				c1.648,1.406,2.641,3.433,2.736,5.598l0.021,0.499c0.229,4.969,0.838,18.093-10.27,20.685c-0.213,0.063-0.472,0.129-0.766,0.185
				c-0.67,0.134-1.271,0.215-1.739,0.271c-0.159,0.035-0.317,0.069-0.476,0.104c-1.094,0.241-2.457,0.543-4.043,0.543h-0.002
				c-1.898,0-3.655-0.449-5.188-1.287c-0.424,0.071-0.855,0.106-1.292,0.106c-0.735,0-1.481-0.104-2.222-0.322
				c-0.111-0.033-0.221-0.066-0.327-0.104C151.274,63.328,148.688,64.738,145.981,64.738z"/>
			<path fill="#FFFFFF" d="M175.215,61.392c-0.937,0-1.885-0.169-2.806-0.523c-0.469-0.181-1.305-0.5-2.203-1.105
				c-1.62-0.092-4.956-0.563-7.307-3.857c-0.258-0.361-0.484-0.744-0.678-1.145c-0.715-1.48-2.201-4.564-0.179-16.199
				c0.274-1.57,0.744-2.787,1.086-3.675c0.114-0.297,0.211-0.549,0.286-0.773c0.029-0.262,0.064-0.685,0.09-0.986
				c0.127-1.524,0.258-3.1,0.9-4.652c0.041-0.1,0.084-0.199,0.13-0.298c1.737-3.752,5.931-5.083,8.993-5.083
				c1.65,0,3.268,0.353,4.765,1.03c1.001-0.235,2.118-0.377,3.364-0.392c0.031,0,0.063,0,0.096,0c0.917,0,1.818,0.161,2.666,0.469
				c2.553-1.652,4.995-1.951,6.424-1.951c4.736,0,8.93,2.949,10.287,7.201c1.6,0.144,3.13,0.779,4.371,1.838
				c1.646,1.406,2.639,3.433,2.734,5.596l0.022,0.5c0.229,4.97,0.839,18.104-10.284,20.688c-0.205,0.059-0.455,0.123-0.74,0.178
				c-0.676,0.137-1.271,0.215-1.75,0.272c-0.159,0.034-0.316,0.069-0.475,0.104c-1.095,0.242-2.458,0.543-4.044,0.543h-0.001
				c-1.898,0-3.656-0.449-5.188-1.289c-0.424,0.072-0.855,0.109-1.293,0.109c-0.733,0-1.479-0.104-2.219-0.324
				c-0.113-0.033-0.223-0.066-0.33-0.103C180.506,59.98,177.919,61.392,175.215,61.392z"/>
			<path fill="#FFFFFF" d="M202.905,72.189c-0.613,0-1.225-0.063-1.82-0.182c-6.259-1.225-10.494-7.826-9.455-14.777
				c0.287-2.021,0.842-3.787,1.564-5.341c-0.998-1.033-1.943-2.413-2.676-4.29c-2.443-6.502,0.059-14.54,1.246-17.698
				c1.129-3,3.973-5.007,7.178-5.063c0.047,0,0.186-0.002,0.229-0.002c1.608,0,3.017,0.29,4.236,0.745
				c1.401-1.162,3.166-1.809,4.985-1.809c0.139,0,0.274,0.003,0.412,0.011c0.161-0.01,0.321-0.015,0.471-0.015
				c2.809,0,5.353,1.522,6.744,3.849c0.236-0.05,0.478-0.089,0.723-0.117l1.634-0.188c0.297-0.034,0.595-0.051,0.892-0.051
				c1.842,0,3.637,0.652,5.058,1.857c1.647,1.399,2.643,3.417,2.748,5.576l0.022,0.462c0.26,5.183,0.734,14.609-6.402,19.093
				c-0.072,1.102-0.204,2.26-0.438,3.465c-0.465,2.488-2.344,8.045-6.057,10.869c-1.022,0.758-3.244,2.406-6.397,2.406
				c-0.035,0-0.072,0-0.107,0C206.606,71.517,204.944,72.188,202.905,72.189z"/>
		</g>
		<g>
			<path fill="#FFFFFF" d="M112.746,59.83l0.163,2.225c0.021,1.791,0.009,3.688-0.367,5.623c-0.399,2.14-1.803,5.142-3.114,6.139
				c-1.907,1.414-1.51,0.471-3.49,0.848c-0.986,0.215-2.326,1.363-3.364,1.133c-2.161-0.398-3.674-3.168-3.257-5.957
				c0.662-4.66,3.563-7.035,7.036-9.627c1.232-0.889,0.755-0.234,0.853-1.393c-1.346,1.5-3.32,1.525-5.441,0.672
				c-1.939-0.873-3.097-0.941-4.008-3.277c-1.257-3.346,0.048-8.829,1.281-12.108c2.064-0.036,3.21,1.128,4.298,2.599
				c-0.054,3.146-0.26,6.16,0.174,9.947c1.39-0.707,1.146-1.229,2.186-2.593c2.243-2.897,1.546-2.968,2.083-7.115
				c0.193-1.518,0.682-2.072,0.564-3.902c1.531,0.123,0.466-0.353,1.321,0.696c1.559,1.964,2.147,3.492,2.446,5.303l0.453,7.571
				c0.726-0.083,1.997-0.229,2.252-0.407c1.965-1.32,1.968-4.91,2.776-9.487l1.634-0.188c0.207,4.214,0.694,10.886-3.222,12.829
				c-0.347,0.189-2.174,0.299-2.627,0.35C113.155,59.783,112.974,59.804,112.746,59.83z M103.166,71.341
				c1.085-0.174,1.437-0.711,2.719-1.157c0.853-1.792,1.672-4.278,1.334-6.83C105.084,65.191,102.665,66.964,103.166,71.341z"/>
			<path fill="#FFFFFF" d="M137.851,53.367c1.617-1.529,1.645-4.922,2.437-9.249l1.635-0.188c0.179,3.567,0.563,8.954-1.746,11.661
				c-5.985,7.164-6.343,6.457-11.063,0.172c-3.145,3.449-11.053,3.855-11.914-3.67c-0.574-5.019-0.141-2.824,0.521-5.094
				c0.29-1.08,0.435-2.243,0.74-3.175c0.239-0.725,1.819-5.391,2.251-5.641c1.719-0.246,3.434,0.257,4.605,1.666
				c0.47,1.292-0.471,5.138-0.273,7.657c0.146,1.678-0.197,5.106,0.607,6.908l0.891-0.649c4.865-4.896,1.96-10.193,5.232-15.351
				c1.865-0.165,3.459,1.696,3.679,3.614C135.538,44.412,134.728,56.216,137.851,53.367z"/>
			<path fill="#FFFFFF" d="M169.519,40.771l1.68-0.192c0.205,4.611,0.75,12.174-4.368,13.258c-0.136,0.017-0.222,0.074-0.312,0.086
				c-0.539,0.111-1.039,0.168-1.492,0.221c-2.521,0.488-4.978,1.518-6.166-1.637c-0.469-1.293-0.326-2.854-0.358-4.345
				c0.031-3.741,1.226-6.171,1.449-9.834l-3.612,11.427c-0.205,0.623-0.393,0.992-0.613,1.865c-0.16,0.616-0.229,1.221-0.473,1.898
				c-1.095-0.324-0.919-0.794-2.473-1.113c-1.979-0.422-2.939,0.038-3.387-1.855c-0.345-1.405-0.047-3.631,0.191-5.154
				c0.229-2.02,0.811-4.578,0.539-6.541c-0.768,0.936-2.675,9.576-3.188,11.928c-0.627,2.563-0.355,4.926-0.953,6.141
				c-1.299-0.5-0.312-0.313-1.344-0.894c-2.263-1.286-3.789-0.165-4.611-1.315c-1.023-2.127,0.094-9.23,0.481-11.468
				c0.25-1.425,0.87-2.442,1.291-3.985c0.278-1.18,0.271-3.67,0.595-4.454c0.072-0.157,2.064-1.233,4.062,0.133l0.483,4.231
				c1.41-2.154,1.678-4.229,5.58-4.277c1.791,1.59,1.443,4.171,2.752,5.964c3.129-10.025,8.59-7.711,9.194-5.638
				c0.556,2.031,0.741,4.053,0.942,6.223c0.298,3.803,0.289,6.943,0.508,9.262C168.717,49.833,168.646,46.004,169.519,40.771z"/>
			<path fill="#FFFFFF" d="M198.751,37.425l1.68-0.191c0.205,4.61,0.75,12.174-4.369,13.26c-0.136,0.016-0.222,0.072-0.312,0.084
				c-0.539,0.111-1.039,0.168-1.492,0.221c-2.521,0.488-4.977,1.517-6.166-1.637c-0.469-1.292-0.325-2.854-0.358-4.346
				c0.031-3.741,1.226-6.17,1.449-9.834l-3.611,11.428c-0.205,0.622-0.393,0.992-0.614,1.865c-0.159,0.616-0.228,1.223-0.472,1.898
				c-1.096-0.324-0.92-0.793-2.475-1.113c-1.979-0.421-2.938,0.038-3.385-1.854c-0.345-1.406-0.048-3.633,0.191-5.156
				c0.229-2.019,0.81-4.577,0.539-6.541c-0.768,0.936-2.676,9.576-3.188,11.928c-0.626,2.563-0.354,4.925-0.952,6.141
				c-1.299-0.5-0.313-0.313-1.344-0.894c-2.264-1.286-3.79-0.165-4.611-1.315c-1.023-2.125,0.094-9.23,0.481-11.468
				c0.25-1.425,0.868-2.442,1.291-3.986c0.278-1.179,0.271-3.669,0.594-4.453c0.073-0.158,2.065-1.234,4.062,0.133l0.484,4.231
				c1.409-2.155,1.678-4.23,5.58-4.278c1.791,1.59,1.443,4.172,2.752,5.965c3.129-10.026,8.59-7.711,9.194-5.639
				c0.555,2.031,0.739,4.053,0.942,6.224c0.297,3.803,0.289,6.943,0.508,9.261C197.949,46.487,197.878,42.658,198.751,37.425z"/>
			<path fill="#FFFFFF" d="M212.79,48.376l0.162,2.226c0.021,1.791,0.009,3.688-0.367,5.623c-0.398,2.14-1.803,5.142-3.113,6.138
				c-1.908,1.415-1.51,0.473-3.49,0.848c-0.986,0.215-2.326,1.365-3.364,1.135c-2.161-0.399-3.675-3.168-3.257-5.957
				c0.662-4.661,3.563-7.036,7.037-9.627c1.23-0.889,0.754-0.235,0.852-1.393c-1.346,1.5-3.318,1.525-5.439,0.672
				c-1.939-0.874-3.098-0.941-4.009-3.278c-1.257-3.346,0.048-8.828,1.28-12.108c2.064-0.036,3.21,1.128,4.298,2.599
				c-0.053,3.146-0.26,6.159,0.175,9.947c1.391-0.707,1.146-1.228,2.186-2.593c2.242-2.897,1.546-2.967,2.082-7.116
				c0.193-1.517,0.684-2.071,0.564-3.902c1.532,0.124,0.467-0.352,1.321,0.697c1.56,1.963,2.147,3.492,2.446,5.302l0.453,7.572
				c0.727-0.083,1.996-0.229,2.252-0.407c1.965-1.32,1.968-4.91,2.776-9.487l1.634-0.188c0.207,4.213,0.694,10.885-3.222,12.829
				c-0.347,0.189-2.174,0.297-2.627,0.35C213.198,48.33,213.017,48.352,212.79,48.376z M203.21,59.89
				c1.084-0.174,1.438-0.713,2.719-1.158c0.853-1.792,1.672-4.277,1.334-6.831C205.127,53.74,202.709,55.512,203.21,59.89z"/>
		</g>
	</g>
	<g>
		<g>
			<path fill="#FFFFFF" d="M14.808,68.512c-0.531,0-1.07-0.05-1.604-0.146c-2.205-0.41-4.169-1.595-5.549-3.343
				c-1.127-1.437-1.856-3.106-2.186-4.985c-0.059-0.33-0.108-0.668-0.149-1.013c-0.393-0.289-0.775-0.61-1.136-0.957
				c-0.606-0.585-1.118-1.2-1.538-1.848c-0.033-0.052-0.066-0.104-0.099-0.156c-0.5-0.813-0.92-1.755-1.282-2.882
				c-0.245-0.76-0.46-1.561-0.64-2.385c-0.17-0.764-0.314-1.551-0.423-2.317C0.068,47.552,0,46.683,0,45.852
				c0-2.332,0.307-3.963,1.024-5.454c1.473-3.05,4.564-4.939,8.072-4.939c0.516,0,1.02,0.037,1.509,0.11
				c1.277-0.692,2.716-1.078,4.229-1.12c0.071-0.002,0.196-0.004,0.268-0.004c2.562,0,4.937,0.997,6.687,2.808
				c0.68,0.714,1.201,1.458,1.599,2.26c0.466,0.97,0.734,1.917,0.861,2.982c0.07,0.594,0.093,1.212,0.071,1.949l-0.058,1.461
				c-0.057,1.173-0.106,1.964-0.149,2.444c-0.046,0.543-0.104,1.063-0.169,1.523c-0.042,0.285-0.074,0.564-0.107,0.89
				c-0.037,0.362-0.071,0.956-0.109,1.78c-0.001,0.037-0.003,0.074-0.006,0.111c-0.168,2.818-0.302,4.889-0.396,6.209
				c-0.151,2.053-0.271,3.674-1.208,5.363C20.653,66.871,17.86,68.512,14.808,68.512z"/>
			<path fill="#FFFFFF" d="M21.644,62.028c-1.354,0-2.621-0.222-3.769-0.657c-0.843-0.313-1.713-0.783-2.696-1.463
				c-4.187-2.871-6.26-7.479-5.671-12.625c0.15-1.458,0.499-2.974,1.025-4.419c0.495-1.36,1.112-2.631,1.832-3.774
				c0.846-1.334,1.815-2.476,2.895-3.412c1.28-1.109,2.689-1.891,4.203-2.335c0.405-0.132,0.827-0.233,1.263-0.299
				c0.594-0.09,1.19-0.135,1.774-0.135c3.023,0,5.819,1.211,7.875,3.41c0.052,0.056,0.104,0.113,0.154,0.17
				c0.813,0.923,1.477,2.005,1.973,3.216c0.335,0.817,0.627,1.789,0.945,3.149c0.195,0.871,0.349,1.66,0.476,2.425
				c0.182,1.081,0.265,1.901,0.265,2.636c0,1.702-0.256,3.348-0.759,4.89c-0.525,1.601-1.269,3.038-2.215,4.286
				c-1.034,1.375-2.311,2.516-3.778,3.373C25.676,61.49,23.676,62.028,21.644,62.028z"/>
			<path fill="#FFFFFF" d="M29.047,61.191c-2.499,0-4.817-0.973-6.527-2.738c-1.238-1.287-2.093-2.889-2.633-4.918
				c-0.3-1.152-0.468-2.451-0.523-4.016c-0.043-1.189-0.036-2.41,0.021-3.626c0.062-1.315,0.192-2.564,0.389-3.714
				c0.215-1.277,0.588-2.901,1.554-4.424c0.107-0.179,0.22-0.353,0.33-0.506c1.604-2.241,4.125-3.525,6.913-3.525
				c0.214,0,0.523,0.013,0.736,0.03c0.722,0.059,1.423,0.202,2.09,0.422c0.929-0.311,1.914-0.472,2.932-0.472
				c0.248,0,0.501,0.01,0.758,0.03c2.818,0.226,5.356,1.716,6.964,4.088c0.024,0.036,0.049,0.073,0.073,0.109
				c0.397,0.609,0.731,1.267,0.994,1.956c0.324,0.885,0.508,1.741,0.613,2.787c0.05,0.521,0.092,1.184,0.122,2.031
				c0.024,0.68,0.05,1.596,0.074,2.75c0.024,1.412,0.039,2.496,0.039,3.278c0,1.209-0.064,2.147-0.201,2.952
				c-0.738,4.328-3.858,6.412-6.533,6.918c-0.479,0.091-1.036,0.143-1.523,0.143c-0.888,0-1.769-0.142-2.635-0.422
				c-0.348,0.161-0.704,0.299-1.069,0.412c-0.52,0.162-1.072,0.285-1.646,0.367c-0.096,0.014-0.192,0.025-0.289,0.036
				C29.717,61.175,29.376,61.191,29.047,61.191z"/>
			<path fill="#FFFFFF" d="M37.621,51.191c-2.026,0-3.973-0.74-5.498-2.085c-1.912-1.675-2.997-4.076-3.06-6.773
				c-0.026-1.125,0.108-2.366,0.425-3.907c0.147-0.721,0.279-1.344,0.393-1.864c0.09-0.417,0.177-0.825,0.25-1.201
				c0.086-0.425,0.377-1.975,0.479-2.495c0.124-0.647,0.271-1.293,0.435-1.889c0.274-1.021,0.586-1.915,1.188-2.854
				c0.052-0.081,0.104-0.161,0.159-0.239c1.595-2.301,4.183-3.621,7.099-3.621c1.528,0,3.01,0.407,4.401,1.21
				c0.848,0.498,1.581,1.075,2.235,1.748c0.461,0.478,0.87,0.975,1.231,1.492c1.039,1.499,1.582,3.204,1.582,4.949
				c0,0.957-0.122,2.01-0.382,3.315c-0.178,0.892-0.392,1.835-0.635,2.806c-0.253,1.003-0.536,1.989-0.844,2.931
				c-0.372,1.134-0.704,1.989-1.05,2.705c-0.017,0.035-0.033,0.069-0.051,0.104c-0.878,1.753-2.042,3.137-3.46,4.114
				C41.043,50.653,39.349,51.191,37.621,51.191z"/>
			<path fill="#FFFFFF" d="M44.965,60.796c-0.154,0-0.381-0.008-0.534-0.016c-1.587-0.089-3.165-0.623-4.531-1.545
				c-1.328-0.889-2.422-2.154-3.144-3.645c-0.313-0.651-0.543-1.313-0.831-2.381l-0.491-1.854c-0.2-0.757-0.396-1.545-0.58-2.361
				c-0.19-0.83-0.344-1.584-0.464-2.287c-0.45-2.437-0.368-4.538,0.25-6.423c1.197-3.655,4.361-6.019,8.06-6.019
				c0.816,0,1.617,0.116,2.397,0.345c1.478-0.809,3.032-1.218,4.64-1.218c0.553,0,1.107,0.051,1.648,0.151
				c4.17,0.774,7.082,4.335,7.082,8.66c0,3.124-1.659,5.359-3.311,7.134c-0.142,0.16-0.267,0.307-0.374,0.438
				c-0.044,0.101-0.084,0.198-0.124,0.302c-0.114,0.315-0.23,0.683-0.347,1.092c-0.044,0.154-0.082,0.291-0.106,0.408
				c-0.081,0.65-0.196,1.293-0.344,1.908c-0.189,0.778-0.474,1.766-1.059,2.782c-0.066,0.114-0.136,0.229-0.208,0.34
				c-0.916,1.418-2.185,2.548-3.667,3.269C47.697,60.483,46.355,60.796,44.965,60.796z"/>
			<path fill="#FFFFFF" d="M56.539,62.544c-0.61,0-1.208-0.053-1.781-0.157c-1.572-0.269-3.065-0.828-4.44-1.666
				c-1.202-0.729-2.293-1.642-3.234-2.701c-0.926-1.036-1.706-2.226-2.302-3.519c-0.623-1.342-1.024-2.78-1.188-4.26
				c-0.004-0.037-0.008-0.074-0.011-0.111c-0.152-1.592-0.019-3.272,0.41-5.14c0.376-1.628,0.928-3.18,1.642-4.626
				c0.02-0.038,0.038-0.076,0.058-0.114c0.825-1.604,1.75-2.854,2.828-3.822c1.367-1.224,2.997-2.054,4.853-2.473
				c0.575-0.13,1.153-0.193,1.724-0.193c0.006,0,0.013,0,0.019,0c0.229-0.017,0.479-0.026,0.718-0.026
				c0.389,0,0.756,0.024,1.102,0.065c0.4,0.043,0.837,0.126,1.28,0.245c0.089,0.017,0.178,0.035,0.267,0.055
				c2.339,0.526,4.368,1.97,5.713,4.066c0.786,1.224,1.326,2.603,1.604,4.097c0.236,1.27,0.282,2.57,0.137,3.868
				c-0.016,0.145-0.034,0.289-0.055,0.432c0.233,0.217,0.456,0.449,0.664,0.696c1.604,1.904,2.206,4.457,1.62,6.875l-0.143,0.59
				c-0.043,0.178-0.093,0.354-0.147,0.527c-0.135,0.422-0.301,0.854-0.509,1.318c-0.473,1.04-1.059,1.914-1.763,2.648
				c-0.958,0.988-2.099,1.72-3.513,2.259c-0.664,0.255-1.4,0.474-2.17,0.644c-0.621,0.137-1.255,0.246-1.884,0.324
				C57.535,62.509,57.024,62.544,56.539,62.544z"/>
			<path fill="#FFFFFF" d="M68.132,62.112c-0.914,0-1.813-0.112-2.67-0.337c-1.498-0.369-2.98-1.104-4.311-2.158
				c-1.415-1.115-2.516-2.505-3.249-4.113c-2.071-4.639-0.31-7.891,0.903-9.398c-0.238-1.003-0.295-2.051-0.167-3.128
				c0.083-0.692,0.224-1.349,0.419-1.961c0.355-1.089,0.876-2.08,1.565-3.009c0.369-0.502,0.813-1.029,1.299-1.533
				c0.504-0.52,1.009-0.979,1.521-1.389c0.761-0.608,1.524-1.086,2.327-1.455c0.249-0.115,0.502-0.215,0.757-0.301
				c0.563-0.212,1.15-0.379,1.757-0.5c0.69-0.138,1.386-0.223,2.066-0.253c0.181-0.008,0.353-0.012,0.521-0.012
				c0.8,0,1.582,0.086,2.323,0.256c1.68,0.389,3.159,1.207,4.297,2.368c0.3,0.306,0.574,0.636,0.82,0.987
				c1.462,2.087,1.939,4.614,1.358,7.049c0.124,0.169,0.245,0.342,0.363,0.519c0.664,0.964,1.161,1.979,1.471,3.029
				c0.292,1.02,0.425,2.071,0.425,3.278c0,0.486-0.015,0.885-0.036,1.195c-0.086,1.254-0.419,2.445-0.991,3.543
				c-0.446,0.838-0.984,1.572-1.631,2.24c-0.199,0.206-0.476,0.479-0.834,0.816c-0.821,0.791-1.751,1.488-2.764,2.076
				c-0.898,0.521-1.846,0.961-2.816,1.306c-1.008,0.354-1.99,0.603-2.949,0.748C69.3,62.067,68.707,62.112,68.132,62.112z"/>
			<path fill="#FFFFFF" d="M81.827,62.028c-1.354,0-2.621-0.222-3.769-0.657c-0.843-0.313-1.713-0.783-2.696-1.463
				c-4.187-2.871-6.26-7.479-5.671-12.625c0.15-1.458,0.499-2.974,1.025-4.419c0.495-1.36,1.112-2.631,1.832-3.774
				c0.846-1.334,1.815-2.476,2.895-3.412c1.28-1.109,2.689-1.891,4.203-2.335c0.405-0.132,0.827-0.233,1.263-0.299
				c0.594-0.09,1.19-0.135,1.774-0.135c3.023,0,5.819,1.211,7.875,3.41c0.052,0.056,0.104,0.113,0.154,0.17
				c0.813,0.923,1.477,2.005,1.973,3.216c0.335,0.817,0.627,1.789,0.945,3.149c0.195,0.871,0.349,1.66,0.476,2.425
				c0.182,1.081,0.265,1.901,0.265,2.636c0,1.702-0.256,3.348-0.759,4.89c-0.525,1.601-1.269,3.038-2.215,4.286
				c-1.034,1.375-2.311,2.516-3.778,3.373C85.859,61.49,83.859,62.028,81.827,62.028z"/>
		</g>
		<g>
			<path fill="#FFFFFF" d="M14.001,42.905l-0.07-0.147c0.285-0.318,0.658-0.484,1.119-0.497c0.463-0.012,0.836,0.129,1.121,0.424
				c0.094,0.099,0.164,0.196,0.213,0.295c0.047,0.098,0.082,0.245,0.105,0.441c0.023,0.197,0.029,0.461,0.02,0.792
				c-0.014,0.331-0.031,0.792-0.055,1.381c-0.047,0.958-0.088,1.646-0.125,2.063c-0.035,0.418-0.076,0.792-0.123,1.124
				c-0.049,0.331-0.096,0.725-0.143,1.18c-0.047,0.453-0.096,1.195-0.143,2.228c-0.166,2.774-0.297,4.813-0.391,6.114
				c-0.096,1.302-0.178,2.014-0.248,2.137c-0.119,0.221-0.344,0.301-0.676,0.238c-0.332-0.061-0.605-0.227-0.818-0.496
				c-0.309-0.395-0.516-0.891-0.621-1.492c-0.107-0.602-0.16-1.246-0.16-1.934s0.029-1.368,0.088-2.045
				c0.059-0.674,0.119-1.289,0.178-1.842s0.084-1,0.072-1.344c-0.014-0.344-0.09-0.516-0.232-0.516
				c-0.213,0-0.355,0.207-0.426,0.625c-0.023,0.148-0.096,0.32-0.213,0.517c-0.119,0.196-0.262,0.374-0.428,0.534
				c-0.166,0.158-0.332,0.301-0.498,0.423c-0.166,0.123-0.295,0.185-0.391,0.185c-0.143,0-0.301-0.043-0.479-0.129
				c-0.178-0.086-0.363-0.189-0.553-0.313c-0.189-0.122-0.367-0.264-0.533-0.424c-0.166-0.159-0.295-0.313-0.391-0.461
				c-0.166-0.27-0.332-0.662-0.498-1.178C8.536,50.272,8.39,49.72,8.261,49.13c-0.131-0.59-0.238-1.172-0.32-1.75
				c-0.084-0.577-0.125-1.087-0.125-1.529c0-1.031,0.084-1.718,0.25-2.063c0.166-0.344,0.51-0.516,1.031-0.516
				c0.283,0,0.508,0.037,0.674,0.11c0.166,0.074,0.297,0.228,0.393,0.461c0.094,0.233,0.16,0.565,0.195,0.994
				c0.035,0.43,0.053,0.989,0.053,1.676c0,0.86,0.018,1.449,0.053,1.769c0.037,0.319,0.113,0.479,0.232,0.479
				c0.07,0,0.26-0.265,0.568-0.792c0.307-0.527,0.639-1.16,0.994-1.896c0.355-0.737,0.705-1.418,1.049-2.045
				C13.651,43.402,13.882,43.028,14.001,42.905z"/>
			<path fill="#FFFFFF" d="M21.964,40.77h-0.07c1.137-0.172,2.061,0.123,2.771,0.884c0.238,0.271,0.439,0.607,0.605,1.013
				s0.355,1.063,0.568,1.971c0.143,0.639,0.268,1.276,0.373,1.915c0.107,0.639,0.16,1.093,0.16,1.362
				c0,0.885-0.125,1.708-0.373,2.467c-0.25,0.763-0.586,1.426-1.014,1.99c-0.426,0.564-0.924,1.012-1.492,1.344
				c-0.568,0.332-1.186,0.498-1.85,0.498c-0.402,0-0.734-0.049-0.994-0.147c-0.262-0.099-0.605-0.295-1.031-0.589
				c-1.826-1.253-2.607-3.021-2.346-5.305c0.094-0.907,0.295-1.786,0.604-2.633c0.309-0.848,0.676-1.608,1.102-2.284
				c0.428-0.675,0.895-1.233,1.404-1.676C20.892,41.138,21.419,40.867,21.964,40.77z M22.995,44.011l0.07,0.073
				c-0.189-0.27-0.379-0.503-0.568-0.7c-0.189-0.196-0.32-0.294-0.391-0.294c-0.143,0-0.309,0.142-0.498,0.423
				c-0.189,0.283-0.391,0.651-0.604,1.105c-0.215,0.454-0.416,0.958-0.605,1.51c-0.189,0.553-0.344,1.1-0.461,1.64
				c-0.166,0.712-0.195,1.388-0.09,2.024c0.107,0.64,0.326,1.143,0.658,1.51c0.283,0.346,0.693,0.511,1.227,0.498
				c0.533-0.012,0.953-0.189,1.262-0.533c0.332-0.369,0.615-0.928,0.854-1.676c0.236-0.75,0.342-1.468,0.32-2.155
				c-0.025-0.687-0.113-1.265-0.268-1.73C23.747,45.238,23.444,44.673,22.995,44.011z"/>
			<path fill="#FFFFFF" d="M27.972,41.874l0.037-0.073c0.141-0.196,0.359-0.282,0.656-0.258s0.527,0.135,0.693,0.331
				c0.072,0.099,0.131,0.375,0.178,0.829c0.047,0.454,0.076,0.976,0.09,1.565c0.012,0.589,0.006,1.19-0.018,1.805
				c-0.025,0.613-0.072,1.142-0.143,1.583c-0.072,0.492-0.096,0.798-0.072,0.921c0.023,0.123,0.107,0.185,0.25,0.185
				c0.213,0,0.32-0.123,0.32-0.368c0-0.123,0.029-0.271,0.088-0.442c0.059-0.171,0.137-0.318,0.23-0.441
				c0.119-0.146,0.256-0.381,0.41-0.7c0.154-0.318,0.289-0.626,0.408-0.921c0.119-0.318,0.271-0.669,0.463-1.05
				c0.189-0.38,0.385-0.748,0.586-1.104c0.201-0.355,0.402-0.688,0.604-0.995c0.201-0.307,0.385-0.558,0.553-0.755
				c0.307-0.344,0.691-0.497,1.154-0.46c0.463,0.037,0.836,0.264,1.119,0.682c0.096,0.146,0.172,0.301,0.232,0.46
				c0.059,0.16,0.105,0.424,0.143,0.792c0.035,0.368,0.064,0.878,0.088,1.528c0.023,0.651,0.047,1.528,0.07,2.634
				c0.023,1.325,0.037,2.363,0.037,3.112s-0.031,1.295-0.09,1.639s-0.154,0.528-0.283,0.553c-0.131,0.025-0.314-0.023-0.553-0.146
				c-0.307-0.172-0.568-0.447-0.781-0.828s-0.355-0.828-0.426-1.345c-0.143-1.03-0.279-1.823-0.41-2.376
				c-0.131-0.553-0.254-0.829-0.373-0.829c-0.047,0-0.148,0.154-0.303,0.461c-0.154,0.308-0.314,0.669-0.479,1.087
				c-0.166,0.418-0.398,0.914-0.693,1.491c-0.297,0.577-0.576,1.063-0.836,1.455c-0.213,0.319-0.385,0.569-0.516,0.755
				c-0.131,0.184-0.254,0.325-0.373,0.424c-0.119,0.098-0.236,0.166-0.355,0.202c-0.119,0.037-0.262,0.067-0.426,0.093
				c-0.475,0.049-0.848-0.068-1.121-0.351c-0.271-0.282-0.504-0.778-0.693-1.491c-0.141-0.54-0.23-1.302-0.266-2.283
				c-0.035-0.981-0.029-1.977,0.018-2.984c0.047-1.006,0.143-1.927,0.285-2.762C27.616,42.66,27.782,42.12,27.972,41.874z"/>
			<path fill="#FFFFFF" d="M38.813,32.335c0.119-0.172,0.344-0.258,0.676-0.258c0.143,0,0.307,0.055,0.498,0.165
				c0.189,0.111,0.367,0.253,0.533,0.424c0.166,0.172,0.307,0.345,0.426,0.516c0.119,0.172,0.178,0.332,0.178,0.479
				c0,0.417-0.076,1.013-0.23,1.786c-0.154,0.772-0.338,1.583-0.551,2.431c-0.213,0.847-0.445,1.651-0.693,2.412
				c-0.25,0.762-0.469,1.339-0.658,1.731c-0.283,0.565-0.586,0.958-0.906,1.179c-0.32,0.221-0.586,0.233-0.801,0.037
				c-0.26-0.222-0.396-0.583-0.408-1.087c-0.012-0.503,0.076-1.222,0.268-2.154c0.141-0.688,0.266-1.276,0.373-1.769
				c0.105-0.49,0.201-0.944,0.283-1.362c0.084-0.417,0.16-0.816,0.232-1.197c0.07-0.381,0.152-0.816,0.248-1.308
				c0.094-0.491,0.195-0.933,0.303-1.326C38.688,32.642,38.767,32.408,38.813,32.335z"/>
			<path fill="#FFFFFF" d="M48.306,41.764l0.035,0.037c0.615-0.467,1.154-0.657,1.617-0.571s0.693,0.411,0.693,0.977
				c0,0.344-0.428,0.97-1.279,1.878c-0.262,0.295-0.486,0.559-0.676,0.792c-0.19,0.233-0.361,0.467-0.516,0.7
				c-0.155,0.233-0.297,0.491-0.426,0.773c-0.131,0.282-0.268,0.607-0.41,0.976c-0.189,0.516-0.373,1.087-0.551,1.712
				c-0.178,0.627-0.291,1.137-0.338,1.528s-0.113,0.763-0.195,1.104c-0.084,0.345-0.16,0.578-0.23,0.699
				c-0.143,0.221-0.314,0.381-0.516,0.479c-0.201,0.099-0.408,0.142-0.623,0.129c-0.213-0.013-0.42-0.085-0.621-0.222
				c-0.201-0.135-0.361-0.324-0.48-0.57c-0.07-0.146-0.178-0.484-0.32-1.014c-0.141-0.526-0.301-1.129-0.479-1.805
				c-0.178-0.675-0.352-1.375-0.516-2.1c-0.166-0.724-0.297-1.368-0.393-1.934c-0.213-1.129-0.219-2.001-0.018-2.614
				c0.201-0.614,0.551-0.786,1.049-0.516c0.332,0.196,0.592,0.466,0.783,0.81c0.189,0.345,0.342,0.835,0.461,1.474
				c0.285,1.449,0.711,1.584,1.281,0.405c0.26-0.516,0.639-1.068,1.137-1.657C47.274,42.647,47.784,42.156,48.306,41.764z"/>
			<path fill="#FFFFFF" d="M55.095,41.579l0.035,0.074c0.213-0.049,0.385-0.08,0.516-0.092c0.131-0.013,0.25-0.013,0.355,0
				c0.107,0.012,0.213,0.036,0.32,0.073c0.107,0.037,0.254,0.067,0.445,0.092c0.33,0.074,0.615,0.295,0.852,0.663
				c0.237,0.368,0.404,0.805,0.498,1.308c0.094,0.504,0.113,1.025,0.053,1.565c-0.059,0.54-0.207,1.007-0.443,1.399
				c-0.641,1.105-1.471,1.731-2.488,1.879c-0.545,0.098-0.906,0.221-1.084,0.367c-0.178,0.147-0.268,0.418-0.268,0.811
				c0,0.787,0.391,1.561,1.174,2.32l0.604,0.59l4.906-0.332l-0.143,0.59c-0.047,0.146-0.113,0.313-0.195,0.496
				c-0.084,0.186-0.172,0.326-0.266,0.425c-0.119,0.123-0.338,0.245-0.658,0.368c-0.32,0.123-0.676,0.228-1.066,0.313
				c-0.39,0.086-0.783,0.153-1.174,0.202c-0.391,0.05-0.705,0.05-0.941,0c-0.617-0.099-1.197-0.313-1.742-0.646
				c-0.545-0.33-1.031-0.735-1.457-1.215c-0.428-0.479-0.777-1.014-1.049-1.603c-0.273-0.59-0.445-1.203-0.516-1.843
				c-0.07-0.735,0.012-1.619,0.248-2.65c0.238-1.031,0.582-2.001,1.031-2.91c0.379-0.736,0.746-1.265,1.102-1.584
				C54.099,41.924,54.55,41.702,55.095,41.579z M55.735,44.121c0-0.344-0.096-0.479-0.285-0.405
				c-0.189,0.073-0.379,0.308-0.568,0.699c-0.428,0.909-0.451,1.363-0.072,1.363c0.189,0,0.393-0.196,0.605-0.589
				S55.735,44.44,55.735,44.121z"/>
			<path fill="#FFFFFF" d="M69.03,40.732l-0.037,0.037c0.238-0.123,0.51-0.215,0.818-0.276s0.605-0.098,0.889-0.11
				c0.285-0.013,0.533,0.006,0.746,0.055c0.215,0.05,0.367,0.123,0.463,0.221c0.189,0.271,0.23,0.56,0.125,0.866
				c-0.107,0.307-0.338,0.57-0.693,0.792c-0.617,0.368-1.15,0.786-1.6,1.252c-0.451,0.467-0.641,0.798-0.57,0.994
				c0.049,0.099,0.197,0.239,0.445,0.424c0.248,0.185,0.539,0.362,0.871,0.534c0.711,0.368,1.303,0.749,1.777,1.142
				c0.475,0.394,0.9,0.872,1.279,1.437c0.236,0.344,0.391,0.64,0.463,0.884c0.07,0.246,0.105,0.604,0.105,1.068
				c0,0.271-0.006,0.49-0.018,0.662c-0.012,0.172-0.053,0.326-0.123,0.461c-0.072,0.136-0.178,0.275-0.32,0.424
				s-0.344,0.344-0.605,0.589c-0.379,0.369-0.811,0.694-1.297,0.978s-0.99,0.516-1.51,0.699c-0.523,0.184-1.025,0.313-1.512,0.387
				c-0.486,0.074-0.918,0.063-1.297-0.037c-0.498-0.123-0.973-0.361-1.422-0.719c-0.451-0.354-0.783-0.767-0.996-1.232
				c-0.285-0.639-0.326-1.057-0.125-1.252c0.201-0.196,0.563-0.086,1.084,0.33c0.166,0.148,0.416,0.259,0.748,0.332
				c0.33,0.074,0.693,0.111,1.084,0.111c0.391,0,0.781-0.037,1.172-0.111c0.393-0.073,0.729-0.184,1.014-0.332
				c0.236-0.123,0.48-0.275,0.729-0.459c0.25-0.186,0.48-0.369,0.693-0.553c0.213-0.186,0.385-0.363,0.516-0.535
				c0.131-0.172,0.195-0.307,0.195-0.404c0-0.122-0.076-0.275-0.23-0.46c-0.154-0.185-0.355-0.374-0.605-0.571
				c-0.248-0.196-0.521-0.387-0.816-0.571c-0.297-0.184-0.6-0.337-0.906-0.46c-0.57-0.221-1.031-0.424-1.387-0.607
				c-0.355-0.185-0.646-0.381-0.871-0.59c-0.227-0.208-0.404-0.447-0.533-0.718c-0.131-0.271-0.244-0.613-0.338-1.031
				c-0.047-0.123-0.059-0.282-0.035-0.479c0.023-0.195,0.059-0.368,0.105-0.516c0.072-0.221,0.201-0.46,0.393-0.718
				c0.189-0.258,0.408-0.516,0.656-0.773c0.25-0.258,0.504-0.491,0.766-0.7C68.579,40.984,68.815,40.831,69.03,40.732z"/>
			<path fill="#FFFFFF" d="M82.147,40.77h-0.07c1.137-0.172,2.061,0.123,2.771,0.884c0.238,0.271,0.439,0.607,0.605,1.013
				s0.355,1.063,0.568,1.971c0.143,0.639,0.268,1.276,0.373,1.915c0.107,0.639,0.16,1.093,0.16,1.362
				c0,0.885-0.125,1.708-0.373,2.467c-0.25,0.763-0.586,1.426-1.014,1.99c-0.426,0.564-0.924,1.012-1.492,1.344
				c-0.568,0.332-1.186,0.498-1.85,0.498c-0.402,0-0.734-0.049-0.994-0.147c-0.262-0.099-0.605-0.295-1.031-0.589
				c-1.826-1.253-2.607-3.021-2.346-5.305c0.094-0.907,0.295-1.786,0.604-2.633c0.309-0.848,0.676-1.608,1.102-2.284
				c0.428-0.675,0.895-1.233,1.404-1.676C81.075,41.138,81.603,40.867,82.147,40.77z M83.179,44.011l0.07,0.073
				c-0.189-0.27-0.379-0.503-0.568-0.7c-0.189-0.196-0.32-0.294-0.391-0.294c-0.143,0-0.309,0.142-0.498,0.423
				c-0.189,0.283-0.391,0.651-0.604,1.105c-0.215,0.454-0.416,0.958-0.605,1.51c-0.189,0.553-0.344,1.1-0.461,1.64
				c-0.166,0.712-0.195,1.388-0.09,2.024c0.107,0.64,0.326,1.143,0.658,1.51c0.283,0.346,0.693,0.511,1.227,0.498
				c0.533-0.012,0.953-0.189,1.262-0.533c0.332-0.369,0.615-0.928,0.854-1.676c0.236-0.75,0.342-1.468,0.32-2.155
				c-0.025-0.687-0.113-1.265-0.268-1.73C83.931,45.238,83.628,44.673,83.179,44.011z"/>
		</g>
	</g>
	<g>
		<path fill="#FFCA05" d="M78.013,13.471c-19.422,0-35.167,15.744-35.167,35.168c0,19.423,15.745,35.167,35.167,35.167
			c19.422,0,35.168-15.744,35.168-35.167C113.181,29.215,97.435,13.471,78.013,13.471z M78.013,64.455
			c-8.735,0-15.817-7.08-15.817-15.815s7.082-15.816,15.817-15.816c8.735,0,15.817,7.08,15.817,15.816
			C93.83,57.375,86.748,64.455,78.013,64.455z"/>
		<g>
			<g>
				<defs>
					<path id="SVGID_1_" d="M78.013,13.471c-19.422,0-35.167,15.744-35.167,35.168c0,19.423,15.745,35.167,35.167,35.167
						c19.422,0,35.168-15.744,35.168-35.167C113.181,29.215,97.435,13.471,78.013,13.471z M78.013,64.455
						c-8.735,0-15.817-7.08-15.817-15.815s7.082-15.816,15.817-15.816c8.735,0,15.817,7.08,15.817,15.816
						C93.83,57.375,86.748,64.455,78.013,64.455z"/>
				</defs>
				<clipPath id="SVGID_2_">
					<use xlink:href="#SVGID_1_"  overflow="visible"/>
				</clipPath>
				<path clip-path="url(#SVGID_2_)" fill="#F14B30" d="M150.767,47.708c0,3.649-7.063,6.346-7.959,9.745
					c-0.916,3.477,3.891,9.282,2.149,12.396c-1.735,3.104-9.233,2.093-11.676,4.736c-2.401,2.596-0.753,9.975-3.729,12.026
					c-2.896,2.003-9.236-2.124-12.584-0.728c-3.242,1.353-4.733,8.777-8.306,9.48c-3.432,0.674-7.643-5.607-11.299-5.607
					c-3.655,0-7.863,6.281-11.298,5.605c-3.569-0.701-5.061-8.126-8.304-9.479c-3.347-1.396-9.688,2.729-12.588,0.728
					c-2.975-2.054-1.326-9.432-3.725-12.026c-2.441-2.645-9.943-1.635-11.677-4.736c-1.742-3.114,3.063-8.922,2.148-12.396
					c-0.896-3.398-7.959-6.096-7.959-9.745c0-3.65,7.063-6.345,7.959-9.746c0.918-3.475-3.888-9.283-2.148-12.396
					c1.736-3.104,9.235-2.095,11.677-4.736c2.401-2.596,0.75-9.975,3.727-12.029c2.898-2.001,9.239,2.125,12.584,0.729
					c3.242-1.352,4.736-8.776,8.306-9.479c3.433-0.676,7.643,5.604,11.298,5.604c3.656,0,7.867-6.279,11.299-5.604
					c3.572,0.702,5.063,8.127,8.306,9.479c3.348,1.396,9.688-2.729,12.588-0.728c2.973,2.054,1.324,9.433,3.727,12.029
					c2.441,2.642,9.939,1.632,11.676,4.736c1.74,3.112-3.064,8.92-2.148,12.396C143.704,41.363,150.767,44.058,150.767,47.708z"/>
			</g>
			<g>
				<defs>
					<path id="SVGID_3_" d="M78.013,13.471c-19.422,0-35.167,15.744-35.167,35.168c0,19.423,15.745,35.167,35.167,35.167
						c19.422,0,35.168-15.744,35.168-35.167C113.181,29.215,97.435,13.471,78.013,13.471z M78.013,64.455
						c-8.735,0-15.817-7.08-15.817-15.815s7.082-15.816,15.817-15.816c8.735,0,15.817,7.08,15.817,15.816
						C93.83,57.375,86.748,64.455,78.013,64.455z"/>
				</defs>
				<clipPath id="SVGID_4_">
					<use xlink:href="#SVGID_3_"  overflow="visible"/>
				</clipPath>
				<ellipse clip-path="url(#SVGID_4_)" fill="#D94128" cx="79.574" cy="48.806" rx="18.7" ry="18.979"/>
			</g>
			<g>
				<defs>
					<path id="SVGID_5_" d="M78.013,13.471c-19.422,0-35.167,15.744-35.167,35.168c0,19.423,15.745,35.167,35.167,35.167
						c19.422,0,35.168-15.744,35.168-35.167C113.181,29.215,97.435,13.471,78.013,13.471z M78.013,64.455
						c-8.735,0-15.817-7.08-15.817-15.815s7.082-15.816,15.817-15.816c8.735,0,15.817,7.08,15.817,15.816
						C93.83,57.375,86.748,64.455,78.013,64.455z"/>
				</defs>
				<clipPath id="SVGID_6_">
					<use xlink:href="#SVGID_5_"  overflow="visible"/>
				</clipPath>
				<path clip-path="url(#SVGID_6_)" fill="#D94128" d="M83.006,13.829c15.316,3.946,26.646,18.027,26.646,34.799
					c0,16.84-11.426,30.968-26.838,34.844c17.15-2.342,30.366-17.04,30.366-34.833C113.181,30.912,100.063,16.257,83.006,13.829z"/>
			</g>
		</g>
		<path fill="#F2EAB8" d="M74.852,20.914c0,0.411-0.334,0.743-0.746,0.743h-4.837c-0.412,0-0.745-0.332-0.745-0.743l0,0
			c0-0.412,0.333-0.745,0.745-0.745h4.837C74.518,20.169,74.852,20.502,74.852,20.914L74.852,20.914z"/>
		<path fill="#FFCA05" d="M83.628,23.426c-0.225-0.345-0.127-0.805,0.218-1.029l4.054-2.638c0.347-0.224,0.807-0.127,1.031,0.218
			l0,0c0.225,0.346,0.127,0.807-0.218,1.031l-4.056,2.638C84.313,23.868,83.853,23.771,83.628,23.426L83.628,23.426z"/>
		<path fill="#849C18" d="M67.485,25.26c0.198,0.362,0.065,0.813-0.297,1.01l-4.245,2.317c-0.362,0.196-0.813,0.063-1.01-0.296l0,0
			c-0.198-0.362-0.065-0.813,0.297-1.011l4.245-2.317C66.838,24.766,67.289,24.899,67.485,25.26L67.485,25.26z"/>
		<path fill="#849C18" d="M99.282,31.947c-0.116,0.395-0.53,0.619-0.923,0.504l-4.643-1.365c-0.395-0.115-0.619-0.528-0.504-0.923
			l0,0c0.116-0.396,0.53-0.621,0.925-0.505l4.641,1.364C99.173,31.139,99.399,31.553,99.282,31.947L99.282,31.947z"/>
		<path fill="#D94128" d="M76.796,27.837c-0.235,0.338-0.7,0.421-1.035,0.186l-3.974-2.762c-0.338-0.235-0.421-0.699-0.185-1.037
			l0,0c0.235-0.338,0.697-0.42,1.035-0.185l3.971,2.763C76.946,27.034,77.029,27.499,76.796,27.837L76.796,27.837z"/>
		<path fill="#F2EAB8" d="M106.67,51.058c0,0.41-0.334,0.744-0.746,0.744h-4.837c-0.412,0-0.745-0.334-0.745-0.744l0,0
			c0-0.412,0.333-0.744,0.745-0.744h4.837C106.336,50.313,106.67,50.646,106.67,51.058L106.67,51.058z"/>
		<path fill="#FFCA05" d="M97.48,56.468c0.386,0.14,0.589,0.564,0.449,0.951L96.3,61.975c-0.14,0.387-0.564,0.59-0.95,0.45l0,0
			c-0.389-0.139-0.589-0.564-0.451-0.951l1.628-4.555C96.665,56.531,97.093,56.33,97.48,56.468L97.48,56.468z"/>
		<path fill="#FFCA05" d="M108.614,57.98c-0.235,0.339-0.7,0.421-1.035,0.186l-3.974-2.762c-0.338-0.234-0.421-0.697-0.185-1.035
			l0,0c0.235-0.338,0.697-0.422,1.035-0.187l3.971,2.763C108.765,57.179,108.848,57.643,108.614,57.98L108.614,57.98z"/>
		<circle fill="#D94128" cx="69.733" cy="28.821" r="0.837"/>
		<circle fill="#FFCA05" cx="82.014" cy="19.611" r="0.837"/>
		<circle fill="#F2EAB8" cx="86.48" cy="26.868" r="0.837"/>
		<circle fill="#849C18" cx="79.782" cy="24.635" r="0.837"/>
		<circle fill="#849C18" cx="94.574" cy="25.751" r="0.837"/>
		<circle fill="#F2EAB8" cx="56.057" cy="26.868" r="0.837"/>
		<path fill="#F2EAB8" d="M84.578,75.628c-0.028-0.41,0.281-0.767,0.691-0.793l4.826-0.33c0.412-0.028,0.768,0.281,0.793,0.69l0,0
			c0.028,0.411-0.281,0.767-0.691,0.794l-4.825,0.33C84.962,76.349,84.606,76.039,84.578,75.628L84.578,75.628z"/>
		<path fill="#F2EAB8" d="M75.649,73.72c0.248,0.328,0.181,0.796-0.146,1.043l-3.866,2.908c-0.329,0.248-0.793,0.182-1.042-0.146
			l0,0c-0.246-0.328-0.181-0.795,0.148-1.043l3.863-2.908C74.937,73.326,75.402,73.392,75.649,73.72L75.649,73.72z"/>
		<path fill="#849C18" d="M91.628,70.789c-0.22-0.347-0.12-0.807,0.227-1.025l4.08-2.602c0.347-0.223,0.807-0.121,1.027,0.227l0,0
			c0.223,0.347,0.12,0.807-0.227,1.027l-4.078,2.603C92.311,71.238,91.851,71.136,91.628,70.789L91.628,70.789z"/>
		<path fill="#D94128" d="M82.165,68.855c0.211-0.354,0.669-0.469,1.021-0.258l4.151,2.484c0.354,0.213,0.469,0.668,0.255,1.021l0,0
			c-0.209,0.354-0.667,0.468-1.021,0.255l-4.149-2.483C82.068,69.664,81.953,69.207,82.165,68.855L82.165,68.855z"/>
		<circle fill="#FFCA05" cx="89.145" cy="67.39" r="0.837"/>
		<circle fill="#DCD7A7" cx="77.52" cy="77.417" r="0.837"/>
		<circle fill="#F2EAB8" cx="72.57" cy="70.481" r="0.837"/>
		<circle fill="#FFCA05" cx="79.405" cy="72.253" r="0.838"/>
		<path fill="#D94128" d="M101.907,41.152c0.212-0.353,0.669-0.468,1.021-0.256l4.151,2.483c0.354,0.213,0.469,0.67,0.258,1.021l0,0
			c-0.212,0.354-0.67,0.468-1.022,0.257l-4.15-2.485C101.812,41.963,101.695,41.505,101.907,41.152L101.907,41.152z"/>
		<circle fill="#D94128" cx="108.887" cy="39.688" r="0.837"/>
		<circle fill="#D94128" cx="98.761" cy="36.357" r="0.837"/>
		<circle fill="#DCD7A7" cx="97.263" cy="49.715" r="0.837"/>
		<circle fill="#DCD7A7" cx="101.275" cy="59.86" r="0.837"/>
		<circle fill="#FFCA05" cx="99.148" cy="44.55" r="0.838"/>
		<path fill="#F2EAB8" d="M53.946,53.078c-0.336-0.238-0.414-0.703-0.177-1.037l2.802-3.943c0.24-0.336,0.705-0.414,1.038-0.176l0,0
			c0.336,0.239,0.414,0.704,0.177,1.038l-2.804,3.943C54.744,53.237,54.28,53.315,53.946,53.078L53.946,53.078z"/>
		<path fill="#FFCA05" d="M61.166,63.563c-0.235,0.338-0.7,0.42-1.036,0.185l-3.973-2.762c-0.338-0.234-0.421-0.697-0.186-1.035l0,0
			c0.235-0.339,0.698-0.422,1.036-0.187l3.971,2.763C61.316,62.761,61.399,63.226,61.166,63.563L61.166,63.563z"/>
		<path fill="#D94128" d="M54.18,40.595c0.212-0.354,0.669-0.468,1.021-0.257l4.151,2.483c0.354,0.213,0.469,0.67,0.258,1.022l0,0
			c-0.212,0.353-0.67,0.468-1.022,0.256l-4.15-2.484C54.084,41.404,53.968,40.946,54.18,40.595L54.18,40.595z"/>
		<circle fill="#FFCA05" cx="61.16" cy="39.129" r="0.837"/>
		<circle fill="#DCD7A7" cx="49.535" cy="49.157" r="0.837"/>
		<circle fill="#849C18" cx="51.42" cy="43.992" r="0.838"/>
		<circle fill="#FFCA05" cx="64.57" cy="72.148" r="0.837"/>
		<circle fill="#F2EAB8" cx="102.921" cy="68.406" r="0.837"/>
	</g>
	<g>
		<path d="M112.746,59.83l0.163,2.225c0.021,1.791,0.009,3.688-0.367,5.623c-0.399,2.14-1.803,5.142-3.114,6.139
			c-1.907,1.414-1.51,0.471-3.49,0.848c-0.986,0.215-2.326,1.363-3.364,1.133c-2.161-0.398-3.674-3.168-3.257-5.957
			c0.662-4.66,3.563-7.035,7.036-9.627c1.232-0.889,0.755-0.234,0.853-1.393c-1.346,1.5-3.32,1.525-5.441,0.672
			c-1.939-0.873-3.097-0.941-4.008-3.277c-1.257-3.346,0.048-8.829,1.281-12.108c2.064-0.036,3.21,1.128,4.298,2.599
			c-0.054,3.146-0.26,6.16,0.174,9.947c1.39-0.707,1.146-1.229,2.186-2.593c2.243-2.897,1.546-2.968,2.083-7.115
			c0.193-1.518,0.682-2.072,0.564-3.902c1.531,0.123,0.466-0.353,1.321,0.696c1.559,1.964,2.147,3.492,2.446,5.303l0.453,7.571
			c0.726-0.083,1.997-0.229,2.252-0.407c1.965-1.32,1.968-4.91,2.776-9.487l1.634-0.188c0.207,4.214,0.694,10.886-3.222,12.829
			c-0.347,0.189-2.174,0.299-2.627,0.35C113.155,59.783,112.974,59.804,112.746,59.83z M103.166,71.341
			c1.085-0.174,1.437-0.711,2.719-1.157c0.853-1.792,1.672-4.278,1.334-6.83C105.084,65.191,102.665,66.964,103.166,71.341z"/>
		<path d="M137.851,53.367c1.617-1.529,1.645-4.922,2.437-9.249l1.635-0.188c0.179,3.567,0.563,8.954-1.746,11.661
			c-5.985,7.164-6.343,6.457-11.063,0.172c-3.145,3.449-11.053,3.855-11.914-3.67c-0.574-5.019-0.141-2.824,0.521-5.094
			c0.29-1.08,0.435-2.243,0.74-3.175c0.239-0.725,1.819-5.391,2.251-5.641c1.719-0.246,3.434,0.257,4.605,1.666
			c0.47,1.292-0.471,5.138-0.273,7.657c0.146,1.678-0.197,5.106,0.607,6.908l0.891-0.649c4.865-4.896,1.96-10.193,5.232-15.351
			c1.865-0.165,3.459,1.696,3.679,3.614C135.538,44.412,134.728,56.216,137.851,53.367z"/>
		<path d="M169.519,40.771l1.68-0.192c0.205,4.611,0.75,12.174-4.368,13.258c-0.136,0.017-0.222,0.074-0.312,0.086
			c-0.539,0.111-1.039,0.168-1.492,0.221c-2.521,0.488-4.978,1.518-6.166-1.637c-0.469-1.293-0.326-2.854-0.358-4.345
			c0.031-3.741,1.226-6.171,1.449-9.834l-3.612,11.427c-0.205,0.623-0.393,0.992-0.613,1.865c-0.16,0.616-0.229,1.221-0.473,1.898
			c-1.095-0.324-0.919-0.794-2.473-1.113c-1.979-0.422-2.939,0.038-3.387-1.855c-0.345-1.405-0.047-3.631,0.191-5.154
			c0.229-2.02,0.811-4.578,0.539-6.541c-0.768,0.936-2.675,9.576-3.188,11.928c-0.627,2.563-0.355,4.926-0.953,6.141
			c-1.299-0.5-0.312-0.313-1.344-0.894c-2.263-1.286-3.789-0.165-4.611-1.315c-1.023-2.127,0.094-9.23,0.481-11.468
			c0.25-1.425,0.87-2.442,1.291-3.985c0.278-1.18,0.271-3.67,0.595-4.454c0.072-0.157,2.064-1.233,4.062,0.133l0.483,4.231
			c1.41-2.154,1.678-4.229,5.58-4.277c1.791,1.59,1.443,4.171,2.752,5.964c3.129-10.025,8.59-7.711,9.194-5.638
			c0.556,2.031,0.741,4.053,0.942,6.223c0.298,3.803,0.289,6.943,0.508,9.262C168.717,49.833,168.646,46.004,169.519,40.771z"/>
		<path d="M198.751,37.425l1.68-0.191c0.205,4.61,0.75,12.174-4.369,13.26c-0.136,0.016-0.222,0.072-0.312,0.084
			c-0.539,0.111-1.039,0.168-1.492,0.221c-2.521,0.488-4.977,1.517-6.166-1.637c-0.469-1.292-0.325-2.854-0.358-4.346
			c0.031-3.741,1.226-6.17,1.449-9.834l-3.611,11.428c-0.205,0.622-0.393,0.992-0.614,1.865c-0.159,0.616-0.228,1.223-0.472,1.898
			c-1.096-0.324-0.92-0.793-2.475-1.113c-1.979-0.421-2.938,0.038-3.385-1.854c-0.345-1.406-0.048-3.633,0.191-5.156
			c0.229-2.019,0.81-4.577,0.539-6.541c-0.768,0.936-2.676,9.576-3.188,11.928c-0.626,2.563-0.354,4.925-0.952,6.141
			c-1.299-0.5-0.313-0.313-1.344-0.894c-2.264-1.286-3.79-0.165-4.611-1.315c-1.023-2.125,0.094-9.23,0.481-11.468
			c0.25-1.425,0.868-2.442,1.291-3.986c0.278-1.179,0.271-3.669,0.594-4.453c0.073-0.158,2.065-1.234,4.062,0.133l0.484,4.231
			c1.409-2.155,1.678-4.23,5.58-4.278c1.791,1.59,1.443,4.172,2.752,5.965c3.129-10.026,8.59-7.711,9.194-5.639
			c0.555,2.031,0.739,4.053,0.942,6.224c0.297,3.803,0.289,6.943,0.508,9.261C197.949,46.487,197.878,42.658,198.751,37.425z"/>
		<path d="M212.79,48.376l0.162,2.226c0.021,1.791,0.009,3.688-0.367,5.623c-0.398,2.14-1.803,5.142-3.113,6.138
			c-1.908,1.415-1.51,0.473-3.49,0.848c-0.986,0.215-2.326,1.365-3.364,1.135c-2.161-0.399-3.675-3.168-3.257-5.957
			c0.662-4.661,3.563-7.036,7.037-9.627c1.23-0.889,0.754-0.235,0.852-1.393c-1.346,1.5-3.318,1.525-5.439,0.672
			c-1.939-0.874-3.098-0.941-4.009-3.278c-1.257-3.346,0.048-8.828,1.28-12.108c2.064-0.036,3.21,1.128,4.298,2.599
			c-0.053,3.146-0.26,6.159,0.175,9.947c1.391-0.707,1.146-1.228,2.186-2.593c2.242-2.897,1.546-2.967,2.082-7.116
			c0.193-1.517,0.684-2.071,0.564-3.902c1.532,0.124,0.467-0.352,1.321,0.697c1.56,1.963,2.147,3.492,2.446,5.302l0.453,7.572
			c0.727-0.083,1.996-0.229,2.252-0.407c1.965-1.32,1.968-4.91,2.776-9.487l1.634-0.188c0.207,4.213,0.694,10.885-3.222,12.829
			c-0.347,0.189-2.174,0.297-2.627,0.35C213.198,48.33,213.017,48.352,212.79,48.376z M203.21,59.89
			c1.084-0.174,1.438-0.713,2.719-1.158c0.853-1.792,1.672-4.277,1.334-6.831C205.127,53.74,202.709,55.512,203.21,59.89z"/>
	</g>
	<g>
		<path d="M14.001,42.905l-0.07-0.147c0.285-0.318,0.658-0.484,1.119-0.497c0.463-0.012,0.836,0.129,1.121,0.424
			c0.094,0.099,0.164,0.196,0.213,0.295c0.047,0.098,0.082,0.245,0.105,0.441c0.023,0.197,0.029,0.461,0.02,0.792
			c-0.014,0.331-0.031,0.792-0.055,1.381c-0.047,0.958-0.088,1.646-0.125,2.063c-0.035,0.418-0.076,0.792-0.123,1.124
			c-0.049,0.331-0.096,0.725-0.143,1.18c-0.047,0.453-0.096,1.195-0.143,2.228c-0.166,2.774-0.297,4.813-0.391,6.114
			c-0.096,1.302-0.178,2.014-0.248,2.137c-0.119,0.221-0.344,0.301-0.676,0.238c-0.332-0.061-0.605-0.227-0.818-0.496
			c-0.309-0.395-0.516-0.891-0.621-1.492c-0.107-0.602-0.16-1.246-0.16-1.934s0.029-1.368,0.088-2.045
			c0.059-0.674,0.119-1.289,0.178-1.842s0.084-1,0.072-1.344c-0.014-0.344-0.09-0.516-0.232-0.516c-0.213,0-0.355,0.207-0.426,0.625
			c-0.023,0.148-0.096,0.32-0.213,0.517c-0.119,0.196-0.262,0.374-0.428,0.534c-0.166,0.158-0.332,0.301-0.498,0.423
			c-0.166,0.123-0.295,0.185-0.391,0.185c-0.143,0-0.301-0.043-0.479-0.129c-0.178-0.086-0.363-0.189-0.553-0.313
			c-0.189-0.122-0.367-0.264-0.533-0.424c-0.166-0.159-0.295-0.313-0.391-0.461c-0.166-0.27-0.332-0.662-0.498-1.178
			C8.536,50.272,8.39,49.72,8.261,49.13c-0.131-0.59-0.238-1.172-0.32-1.75c-0.084-0.577-0.125-1.087-0.125-1.529
			c0-1.031,0.084-1.718,0.25-2.063c0.166-0.344,0.51-0.516,1.031-0.516c0.283,0,0.508,0.037,0.674,0.11
			c0.166,0.074,0.297,0.228,0.393,0.461c0.094,0.233,0.16,0.565,0.195,0.994c0.035,0.43,0.053,0.989,0.053,1.676
			c0,0.86,0.018,1.449,0.053,1.769c0.037,0.319,0.113,0.479,0.232,0.479c0.07,0,0.26-0.265,0.568-0.792
			c0.307-0.527,0.639-1.16,0.994-1.896c0.355-0.737,0.705-1.418,1.049-2.045C13.651,43.402,13.882,43.028,14.001,42.905z"/>
		<path d="M21.964,40.77h-0.07c1.137-0.172,2.061,0.123,2.771,0.884c0.238,0.271,0.439,0.607,0.605,1.013s0.355,1.063,0.568,1.971
			c0.143,0.639,0.268,1.276,0.373,1.915c0.107,0.639,0.16,1.093,0.16,1.362c0,0.885-0.125,1.708-0.373,2.467
			c-0.25,0.763-0.586,1.426-1.014,1.99c-0.426,0.564-0.924,1.012-1.492,1.344c-0.568,0.332-1.186,0.498-1.85,0.498
			c-0.402,0-0.734-0.049-0.994-0.147c-0.262-0.099-0.605-0.295-1.031-0.589c-1.826-1.253-2.607-3.021-2.346-5.305
			c0.094-0.907,0.295-1.786,0.604-2.633c0.309-0.848,0.676-1.608,1.102-2.284c0.428-0.675,0.895-1.233,1.404-1.676
			C20.892,41.138,21.419,40.867,21.964,40.77z M22.995,44.011l0.07,0.073c-0.189-0.27-0.379-0.503-0.568-0.7
			c-0.189-0.196-0.32-0.294-0.391-0.294c-0.143,0-0.309,0.142-0.498,0.423c-0.189,0.283-0.391,0.651-0.604,1.105
			c-0.215,0.454-0.416,0.958-0.605,1.51c-0.189,0.553-0.344,1.1-0.461,1.64c-0.166,0.712-0.195,1.388-0.09,2.024
			c0.107,0.64,0.326,1.143,0.658,1.51c0.283,0.346,0.693,0.511,1.227,0.498c0.533-0.012,0.953-0.189,1.262-0.533
			c0.332-0.369,0.615-0.928,0.854-1.676c0.236-0.75,0.342-1.468,0.32-2.155c-0.025-0.687-0.113-1.265-0.268-1.73
			C23.747,45.238,23.444,44.673,22.995,44.011z"/>
		<path d="M27.972,41.874l0.035-0.073c0.143-0.196,0.361-0.282,0.658-0.258c0.295,0.024,0.527,0.135,0.693,0.331
			c0.07,0.099,0.129,0.375,0.178,0.829c0.047,0.454,0.076,0.976,0.088,1.565s0.006,1.19-0.018,1.805
			c-0.023,0.613-0.07,1.142-0.143,1.583c-0.07,0.492-0.094,0.798-0.07,0.921c0.023,0.123,0.107,0.185,0.248,0.185
			c0.215,0,0.32-0.123,0.32-0.368c0-0.123,0.029-0.271,0.09-0.442c0.059-0.171,0.135-0.318,0.23-0.441
			c0.119-0.146,0.254-0.381,0.408-0.7c0.154-0.318,0.291-0.626,0.41-0.921c0.117-0.318,0.271-0.669,0.461-1.05
			c0.189-0.38,0.385-0.748,0.586-1.104c0.201-0.355,0.404-0.688,0.605-0.995c0.201-0.307,0.385-0.558,0.551-0.755
			c0.309-0.344,0.693-0.497,1.156-0.46c0.461,0.037,0.834,0.264,1.119,0.682c0.094,0.146,0.172,0.301,0.23,0.46
			c0.059,0.16,0.107,0.424,0.143,0.792c0.036,0.368,0.064,0.878,0.09,1.528c0.021,0.651,0.047,1.528,0.07,2.634
			c0.023,1.325,0.035,2.363,0.035,3.112s-0.029,1.295-0.088,1.639c-0.061,0.344-0.154,0.528-0.285,0.553
			c-0.131,0.025-0.314-0.023-0.551-0.146c-0.309-0.172-0.568-0.447-0.783-0.828c-0.213-0.381-0.355-0.828-0.426-1.345
			c-0.143-1.03-0.279-1.823-0.408-2.376c-0.131-0.553-0.256-0.829-0.373-0.829c-0.049,0-0.148,0.154-0.303,0.461
			c-0.154,0.308-0.314,0.669-0.48,1.087c-0.166,0.418-0.396,0.914-0.693,1.491s-0.574,1.063-0.834,1.455
			c-0.215,0.319-0.387,0.569-0.516,0.755c-0.131,0.184-0.256,0.325-0.373,0.424c-0.119,0.098-0.238,0.166-0.355,0.202
			c-0.119,0.037-0.262,0.067-0.428,0.093c-0.475,0.049-0.848-0.068-1.119-0.351c-0.273-0.282-0.504-0.778-0.693-1.491
			c-0.143-0.54-0.23-1.302-0.268-2.283c-0.035-0.981-0.029-1.977,0.018-2.984c0.049-1.006,0.143-1.927,0.285-2.762
			C27.614,42.663,27.782,42.12,27.972,41.874z"/>
		<path d="M38.813,32.335c0.119-0.172,0.344-0.258,0.676-0.258c0.143,0,0.307,0.055,0.498,0.165
			c0.189,0.111,0.367,0.253,0.533,0.424c0.166,0.172,0.307,0.345,0.426,0.516c0.119,0.172,0.178,0.332,0.178,0.479
			c0,0.417-0.076,1.013-0.23,1.786c-0.154,0.772-0.338,1.583-0.551,2.431c-0.213,0.847-0.445,1.651-0.693,2.412
			c-0.25,0.762-0.469,1.339-0.658,1.731c-0.283,0.565-0.586,0.958-0.906,1.179c-0.32,0.221-0.586,0.233-0.801,0.037
			c-0.26-0.222-0.396-0.583-0.408-1.087c-0.012-0.503,0.076-1.222,0.268-2.154c0.141-0.688,0.266-1.276,0.373-1.769
			c0.105-0.49,0.201-0.944,0.283-1.362c0.084-0.417,0.16-0.816,0.232-1.197c0.07-0.381,0.152-0.816,0.248-1.308
			c0.094-0.491,0.195-0.933,0.303-1.326C38.688,32.642,38.767,32.408,38.813,32.335z"/>
		<path d="M48.306,41.764l0.035,0.037c0.615-0.467,1.154-0.657,1.617-0.571s0.693,0.411,0.693,0.977c0,0.344-0.428,0.97-1.279,1.878
			c-0.262,0.295-0.486,0.559-0.676,0.792c-0.19,0.233-0.361,0.467-0.516,0.7c-0.155,0.233-0.297,0.491-0.426,0.773
			c-0.131,0.282-0.268,0.607-0.41,0.976c-0.189,0.516-0.373,1.087-0.551,1.712c-0.178,0.627-0.291,1.137-0.338,1.528
			s-0.113,0.763-0.195,1.104c-0.084,0.345-0.16,0.578-0.23,0.699c-0.143,0.221-0.314,0.381-0.516,0.479
			c-0.201,0.099-0.408,0.142-0.623,0.129c-0.213-0.013-0.42-0.085-0.621-0.222c-0.201-0.135-0.361-0.324-0.48-0.57
			c-0.07-0.146-0.178-0.484-0.32-1.014c-0.141-0.526-0.301-1.129-0.479-1.805c-0.178-0.675-0.352-1.375-0.516-2.1
			c-0.166-0.724-0.297-1.368-0.393-1.934c-0.213-1.129-0.219-2.001-0.018-2.614c0.201-0.614,0.551-0.786,1.049-0.516
			c0.332,0.196,0.592,0.466,0.783,0.81c0.189,0.345,0.342,0.835,0.461,1.474c0.285,1.449,0.711,1.584,1.281,0.405
			c0.26-0.516,0.639-1.068,1.137-1.657C47.274,42.647,47.784,42.156,48.306,41.764z"/>
		<path d="M55.095,41.579l0.035,0.074c0.213-0.049,0.385-0.08,0.516-0.092c0.131-0.013,0.25-0.013,0.355,0
			c0.107,0.012,0.213,0.036,0.32,0.073c0.107,0.037,0.254,0.067,0.445,0.092c0.33,0.074,0.615,0.295,0.852,0.663
			c0.237,0.368,0.404,0.805,0.498,1.308c0.094,0.504,0.113,1.025,0.053,1.565c-0.059,0.54-0.207,1.007-0.443,1.399
			c-0.641,1.105-1.471,1.731-2.488,1.879c-0.545,0.098-0.906,0.221-1.084,0.367c-0.178,0.147-0.268,0.418-0.268,0.811
			c0,0.787,0.391,1.561,1.174,2.32l0.604,0.59l4.906-0.332l-0.143,0.59c-0.047,0.146-0.113,0.313-0.195,0.496
			c-0.084,0.186-0.172,0.326-0.266,0.425c-0.119,0.123-0.338,0.245-0.658,0.368c-0.32,0.123-0.676,0.228-1.066,0.313
			c-0.39,0.086-0.783,0.153-1.174,0.202c-0.391,0.05-0.705,0.05-0.941,0c-0.617-0.099-1.197-0.313-1.742-0.646
			c-0.545-0.33-1.031-0.735-1.457-1.215c-0.428-0.479-0.777-1.014-1.049-1.603c-0.273-0.59-0.445-1.203-0.516-1.843
			c-0.07-0.735,0.012-1.619,0.248-2.65c0.238-1.031,0.582-2.001,1.031-2.91c0.379-0.736,0.746-1.265,1.102-1.584
			C54.099,41.924,54.55,41.702,55.095,41.579z M55.735,44.121c0-0.344-0.096-0.479-0.285-0.405
			c-0.189,0.073-0.379,0.308-0.568,0.699c-0.428,0.909-0.451,1.363-0.072,1.363c0.189,0,0.393-0.196,0.605-0.589
			S55.735,44.44,55.735,44.121z"/>
		<path d="M69.03,40.732l-0.037,0.037c0.238-0.123,0.51-0.215,0.818-0.276s0.605-0.098,0.889-0.11
			c0.285-0.013,0.533,0.006,0.746,0.055c0.215,0.05,0.367,0.123,0.463,0.221c0.189,0.271,0.23,0.56,0.125,0.866
			c-0.107,0.307-0.338,0.57-0.693,0.792c-0.617,0.368-1.15,0.786-1.6,1.252c-0.451,0.467-0.641,0.798-0.57,0.994
			c0.049,0.099,0.197,0.239,0.445,0.424c0.248,0.185,0.539,0.362,0.871,0.534c0.711,0.368,1.303,0.749,1.777,1.142
			c0.475,0.394,0.9,0.872,1.279,1.437c0.236,0.344,0.391,0.64,0.463,0.884c0.07,0.246,0.105,0.604,0.105,1.068
			c0,0.271-0.006,0.49-0.018,0.662c-0.012,0.172-0.053,0.326-0.123,0.461c-0.072,0.136-0.178,0.275-0.32,0.424
			s-0.344,0.344-0.605,0.589c-0.379,0.369-0.811,0.694-1.297,0.978s-0.99,0.516-1.51,0.699c-0.523,0.184-1.025,0.313-1.512,0.387
			c-0.486,0.074-0.918,0.063-1.297-0.037c-0.498-0.123-0.973-0.361-1.422-0.719c-0.451-0.354-0.783-0.767-0.996-1.232
			c-0.285-0.639-0.326-1.057-0.125-1.252c0.201-0.196,0.563-0.086,1.084,0.33c0.166,0.148,0.416,0.259,0.748,0.332
			c0.33,0.074,0.693,0.111,1.084,0.111c0.391,0,0.781-0.037,1.172-0.111c0.393-0.073,0.729-0.184,1.014-0.332
			c0.236-0.123,0.48-0.275,0.729-0.459c0.25-0.186,0.48-0.369,0.693-0.553c0.213-0.186,0.385-0.363,0.516-0.535
			c0.131-0.172,0.195-0.307,0.195-0.404c0-0.122-0.076-0.275-0.23-0.46c-0.154-0.185-0.355-0.374-0.605-0.571
			c-0.248-0.196-0.521-0.387-0.816-0.571c-0.297-0.184-0.6-0.337-0.906-0.46c-0.57-0.221-1.031-0.424-1.387-0.607
			c-0.355-0.185-0.646-0.381-0.871-0.59c-0.227-0.208-0.404-0.447-0.533-0.718c-0.131-0.271-0.244-0.613-0.338-1.031
			c-0.047-0.123-0.059-0.282-0.035-0.479c0.023-0.195,0.059-0.368,0.105-0.516c0.072-0.221,0.201-0.46,0.393-0.718
			c0.189-0.258,0.408-0.516,0.656-0.773c0.25-0.258,0.504-0.491,0.766-0.7C68.579,40.984,68.815,40.831,69.03,40.732z"/>
		<path d="M82.147,40.77h-0.072c1.139-0.172,2.063,0.123,2.773,0.884c0.236,0.271,0.438,0.607,0.604,1.013s0.355,1.063,0.568,1.971
			c0.143,0.639,0.268,1.276,0.375,1.915c0.105,0.639,0.16,1.093,0.16,1.362c0,0.885-0.125,1.708-0.375,2.467
			c-0.248,0.763-0.586,1.426-1.012,1.99c-0.428,0.564-0.926,1.012-1.494,1.344c-0.568,0.332-1.186,0.498-1.848,0.498
			c-0.404,0-0.734-0.049-0.996-0.147c-0.262-0.099-0.604-0.295-1.031-0.589c-1.824-1.253-2.607-3.021-2.346-5.305
			c0.094-0.907,0.297-1.786,0.604-2.633c0.309-0.848,0.676-1.608,1.104-2.284c0.426-0.675,0.895-1.233,1.404-1.676
			C81.073,41.138,81.601,40.867,82.147,40.77z M83.177,44.011l0.072,0.073c-0.189-0.27-0.379-0.503-0.568-0.7
			c-0.191-0.196-0.32-0.294-0.393-0.294c-0.141,0-0.307,0.142-0.496,0.423c-0.191,0.283-0.393,0.651-0.605,1.105
			s-0.414,0.958-0.604,1.51c-0.191,0.553-0.344,1.1-0.463,1.64c-0.166,0.712-0.195,1.388-0.088,2.024
			c0.105,0.64,0.324,1.143,0.656,1.51c0.285,0.346,0.693,0.511,1.227,0.498c0.533-0.012,0.955-0.189,1.262-0.533
			c0.332-0.369,0.617-0.928,0.854-1.676c0.237-0.75,0.344-1.468,0.32-2.155c-0.023-0.687-0.113-1.265-0.266-1.73
			C83.929,45.238,83.628,44.673,83.177,44.011z"/>
	</g>
</g>
</svg>
