<?xml version="1.0" encoding="utf-8"?>
<!-- Generator: Adobe Illustrator 16.0.0, SVG Export Plug-In . SVG Version: 6.00 Build 0)  -->
<!DOCTYPE svg PUBLIC "-//W3C//DTD SVG 1.1//EN" "http://www.w3.org/Graphics/SVG/1.1/DTD/svg11.dtd">
<svg version="1.1" id="Layer_1" xmlns="http://www.w3.org/2000/svg" xmlns:xlink="http://www.w3.org/1999/xlink" x="0px" y="0px"
	 width="118.853px" height="127.925px" viewBox="0 0 118.853 127.925" enable-background="new 0 0 118.853 127.925"
	 xml:space="preserve">
<path fill="#998282" d="M83.656,11.2c-1.089-0.311-2.167-0.468-3.205-0.468c-1.068,0-2.106,0.164-3.086,0.49
	c-0.114,0.038-0.229,0.079-0.341,0.123c-1.555,0.607-2.911,1.677-4.147,3.271c-0.692,0.894-1.341,1.921-1.923,3.046
	c-0.543,1.047-1.021,2.156-1.419,3.302c-0.496,1.43-0.778,2.732-0.869,4.066c-0.027,0.493-0.025,0.96-0.01,1.416
	c-0.068-0.077-0.138-0.153-0.207-0.229c0.038-0.497,0.091-0.988,0.11-1.488c0.039-0.958,0.045-1.889,0.019-2.768
	c-0.039-1.282-0.155-2.239-0.393-3.16c-0.611-2.297-1.927-4.172-3.81-5.427c-1.415-0.941-3.037-1.439-4.691-1.439
	c-1.052,0-2.085,0.198-3.076,0.588c-0.536-0.145-1.08-0.215-1.627-0.237c-0.915-0.589-1.918-1.017-2.982-1.264
	c1.017-2.167,2.173-4.06,3.405-5.57c0.176,0.245,0.351,0.49,0.561,0.72c2.534,2.773,6.501,3.275,8.857,1.119
	c0.214-0.193,0.397-0.405,0.57-0.625c-0.219-0.328-0.463-0.65-0.739-0.948c-2.17-2.38-5.39-3.08-7.752-1.879
	c1.019-0.945,2.064-1.629,3.106-1.978c0.23-0.078,0.355-0.328,0.278-0.56c-0.079-0.231-0.33-0.355-0.56-0.278
	c-3.118,1.045-6.258,4.757-8.615,9.837c-0.441-0.06-0.887-0.102-1.341-0.102c-0.521,0-1.054,0.04-1.584,0.12
	c-0.396,0.06-0.779,0.151-1.147,0.272c-1.352,0.399-2.609,1.099-3.758,2.092c-0.038,0.033-0.073,0.07-0.11,0.104
	c-1.762,0.037-3.517,0.27-5.251,0.717c-0.781,0.201-1.539,0.457-2.286,0.736c-1.08-1.306-2.305-2.052-3.311-2.477
	c-1.029-0.434-2.117-0.653-3.233-0.653c-1.087,0-2.173,0.215-3.214,0.631c-0.433,0.134-0.849,0.326-1.253,0.544l0.066-0.966
	c0.133-1.936-0.544-4.007-1.868-5.425c-1.323-1.417-3.176-2.391-5.115-2.391h-2.771c-1.935,0-3.783,0.97-5.106,2.381
	c-0.47,0.501-0.854,1.149-1.153,1.751c-1.043,0.434-1.997,1.161-2.753,2.097c-0.168,0.209-0.34,0.473-0.497,0.72
	c-0.003,0.005-0.023,0.048-0.023,0.048c-0.263,0.412-0.477,0.847-0.645,1.288c-0.251,0.641-0.441,1.36-0.598,2.236
	c-0.115,0.648-0.279,1.716-0.487,3.205c-0.008,0.057-0.016,0.113-0.021,0.17c-0.053,0.455-0.106,1.059-0.157,1.797
	c-0.049,0.702-0.085,1.473-0.109,2.312l-0.063,2.288c-0.024,0.888-0.03,1.724-0.018,2.502c0.01,0.708,0.021,1.338,0.031,1.889
	c0.018,0.852,0.066,1.503,0.157,2.08c0.225,1.603,0.462,2.677,0.79,3.575c0.095,0.261,0.206,0.512,0.323,0.758l-0.797,0.596
	c-1.793,1.341-2.837,3.457-2.808,5.695C1.41,73.744,1.905,80.19,2.288,82.342c0.31,4.07,2.716,7.355,6.568,8.892
	c0.796,0.316,1.641,0.445,2.49,0.457c2.353,0.938,4.854,1.372,7.468,1.372h1.098c1.612,0,3.517-0.328,5.99-1.125
	c-2.085,1.371-4.214,3.596-5.95,7.114c-3.292,6.686-2.905,11.05-2.905,12.36c0,0.002,0,0.003,0,0.004
	c0,0.04,0.031,0.058,0.035,0.092c0.012,0.077,0.032,0.141,0.042,0.19c0.006,0.028,0.014,0.041,0.018,0.061
	c0.01,0.048,0.019,0.079,0.019,0.079s1.13-3.043,6.67-0.188c3.027,1.559,9.868,1.136,13.724-3.168
	c0.717-0.799,1.332-1.482,1.862-2.068c0.713,0.536,1.434,1.04,2.162,1.517c-0.025,0.198-0.053,0.396-0.066,0.595
	c-0.302,0.684-0.496,1.421-0.565,2.188c-0.133,1.45,0.079,2.902,0.59,4.263c-0.352,1.996,0.18,4.071,1.493,5.664
	c0.065,0.08,0.133,0.159,0.2,0.237c0.323,1.231,0.981,2.371,1.927,3.277c0.19,0.375,0.406,0.738,0.646,1.088
	c1.312,1.901,3.47,3.025,5.762,3.025c0.141,0,0.281-0.004,0.422-0.013c0.429-0.025,0.854-0.082,1.275-0.167
	c0.988,0.335,2.017,0.515,3.049,0.521c0.813,0.21,1.646,0.317,2.487,0.318c3.648,0,6.963-2.045,8.896-5.523
	c1.389-2.551,2.728-5.407,4.058-8.609c3.109,4.656,8.098,7.639,13.686,7.639c0.506,0,1.017-0.025,1.567-0.08
	c0.798-0.085,1.606-0.241,2.474-0.479c0.624-0.17,1.226-0.425,1.777-0.757c1.996-1.198,3.267-3.313,3.387-5.638
	c0.058-1.111,0.034-2.133-0.066-3.064c-0.304-3.063-1.268-5.878-2.715-8.296c1.688,0.377,3.363,0.578,4.981,0.578
	c9.118,0,16.473-5.867,20.177-16.097c0.02-0.055,0.039-0.11,0.058-0.166c3.164-9.475,2.022-15.712-0.313-19.745
	c0.424-0.596,0.821-1.216,1.189-1.857c0.532-0.936,1.012-1.951,1.425-3.019c1.087-2.807,0.258-5.994-2.059-7.915
	c-0.768-0.637-1.519-1.164-2.313-1.621c-2.507-1.435-5.383-2.193-8.318-2.193c-2.545,0-5.056,0.553-7.398,1.575
	c-1.059-0.91-2.296-1.546-3.629-1.816c-0.006-0.002-0.123-0.025-0.176-0.035c-0.424-0.079-0.949-0.129-1.38-0.129
	c-0.125,0-0.247,0.016-0.37,0.022c-0.426-0.21-0.862-0.405-1.32-0.568c-1.168-0.405-2.397-0.639-3.655-0.692
	c-0.103-0.005-0.204-0.007-0.306-0.007c-0.743,0-1.463,0.127-2.144,0.348l0.206-4.383c5.061-0.906,7.53-4.842,7.53-8.53v-0.47
	c0-2.194-0.985-4.203-2.475-5.777c0.414-1.304,0.509-3.024-0.158-5.132c-0.011-0.567-0.09-1.13-0.169-1.69l-0.13-0.779
	c0.07-0.506,0.106-1.027,0.125-1.553c0.031-0.902-0.039-1.718-0.2-2.454c-0.189-0.894-0.541-1.783-1.101-2.8
	c-0.339-0.615-0.723-1.226-1.142-1.814c-0.384-0.541-0.777-1.047-1.177-1.513c-0.693-0.809-1.82-1.953-3.594-2.567
	C83.904,11.274,83.781,11.235,83.656,11.2z M24.963,100.787c0,0,0.021-0.026,0.043-0.054c0.005-0.007,0.011-0.014,0.017-0.021
	c0.036-0.045,0.087-0.107,0.157-0.188c0.001-0.001,0.002-0.002,0.002-0.003c0.549-0.63,2.148-2.261,4.815-3.567
	c0.107,0.139,0.213,0.28,0.321,0.418C28.417,98.072,26.591,99.158,24.963,100.787z"/>
<g>
	
		<ellipse transform="matrix(0.2498 0.9683 -0.9683 0.2498 97.4857 -1.3367)" fill="#FFFFFF" cx="49.605" cy="62.243" rx="50.79" ry="33.757"/>
	<g>
		<g>
			<path fill="#FFFFFF" d="M91.892,71.887c-0.649,0-1.294-0.09-1.916-0.267c-0.915-0.215-1.734-0.561-2.454-1.037
				c-0.002-0.001-0.004-0.002-0.006-0.003c-0.226-0.131-0.478-0.291-0.729-0.457c-0.073-0.046-0.144-0.093-0.213-0.14
				c-0.27-0.185-0.498-0.355-0.718-0.527c-0.063-0.045-0.16-0.119-0.253-0.193c-0.255-0.207-0.442-0.372-0.626-0.537
				c-0.112-0.097-0.216-0.189-0.315-0.283c-0.156-0.146-0.322-0.316-0.485-0.489c-0.125-0.126-0.25-0.256-0.37-0.389
				c-0.127-0.141-0.255-0.294-0.379-0.45c-0.16-0.19-0.284-0.342-0.401-0.498c-0.122-0.161-0.229-0.316-0.335-0.474
				c-0.119-0.165-0.25-0.357-0.374-0.554c-0.084-0.135-0.16-0.265-0.232-0.395c-0.137-0.231-0.258-0.446-0.371-0.666
				c-0.048-0.095-0.115-0.235-0.171-0.357c-0.125-0.258-0.244-0.521-0.351-0.787c-0.035-0.086-0.074-0.192-0.111-0.295
				c-0.104-0.271-0.208-0.57-0.3-0.874c-0.01-0.032-0.061-0.213-0.077-0.276c-0.087-0.314-0.167-0.63-0.232-0.952
				c-0.016-0.083-0.032-0.169-0.046-0.255c-0.059-0.32-0.108-0.643-0.145-0.968c-0.005-0.047-0.022-0.234-0.026-0.284
				c-0.028-0.301-0.048-0.652-0.053-1.009c-0.001-0.112,0-0.228,0.003-0.343c0.003-0.315,0.016-0.633,0.041-0.952
				c0.014-0.168,0.039-0.371,0.068-0.565c0.076-0.634,0.199-1.275,0.375-1.95c0.807-3.092,3.6-5.232,6.77-5.232
				c0.102,0,0.203,0.002,0.305,0.006c1.26,0.055,2.491,0.288,3.659,0.693c5.752,2.049,9.008,7.875,7.973,14.188
				c-0.063,0.396-0.235,1.127-0.504,1.936c-0.559,2.798-2.789,5.045-5.714,5.526c-0.15,0.024-0.333,0.047-0.507,0.063
				C92.413,71.873,92.153,71.887,91.892,71.887z"/>
			<path fill="#FFFFFF" d="M95.844,103.696c-1.799,0-3.666-0.236-5.547-0.701c-1.8-0.447-3.523-1.074-5.147-1.871
				c-1.816-0.054-3.641-0.307-5.435-0.754c-11.401-2.82-17.37-12.637-15.568-25.617c0.008-0.059,0.017-0.118,0.027-0.177
				c2.931-17.755,13.287-19.671,17.604-19.671c1.472,0,2.96,0.204,4.444,0.604c0.228-0.627,0.543-1.222,0.944-1.783
				c1.365-1.909,3.585-3.048,5.941-3.048c0.431,0,0.957,0.049,1.38,0.128c0.052,0.01,0.17,0.034,0.177,0.035
				c1.333,0.271,2.57,0.907,3.628,1.817c2.343-1.023,4.854-1.575,7.398-1.575c2.936,0,5.812,0.758,8.318,2.193
				c0.794,0.457,1.545,0.984,2.313,1.621c2.317,1.922,3.146,5.109,2.059,7.916c-0.413,1.067-0.893,2.083-1.426,3.018
				c-0.368,0.642-0.765,1.262-1.189,1.858c2.335,4.033,3.476,10.271,0.313,19.745c-0.019,0.056-0.038,0.111-0.058,0.166
				C112.317,97.828,104.962,103.696,95.844,103.696C95.844,103.696,95.845,103.696,95.844,103.696z"/>
			<path fill="#FFFFFF" d="M84.439,121.431c-8.687,0-15.954-7.184-16.904-16.711c-0.1-0.993-0.121-1.998-0.065-3.069
				c0.156-3.007,2.217-5.577,5.118-6.382c0.893-0.248,1.728-0.41,2.551-0.494c0.521-0.052,1.033-0.077,1.538-0.077
				c8.689,0,15.955,7.186,16.901,16.716c0.101,0.932,0.125,1.953,0.067,3.064c-0.121,2.326-1.391,4.439-3.387,5.639
				c-0.552,0.331-1.154,0.586-1.777,0.756l0,0c-0.867,0.237-1.676,0.394-2.473,0.479C85.456,121.405,84.944,121.431,84.439,121.431z
				"/>
			<path fill="#FFFFFF" d="M57.798,127.925c-0.839,0-1.671-0.106-2.482-0.316c-1.031-0.005-2.058-0.184-3.044-0.517
				c-0.424,0.086-0.853,0.143-1.284,0.169c-0.141,0.009-0.282,0.013-0.422,0.013c-2.292,0-4.45-1.124-5.761-3.026
				c-0.231-0.334-0.438-0.682-0.623-1.041c-0.959-0.91-1.625-2.058-1.951-3.3c-0.067-0.078-0.134-0.156-0.2-0.236
				c-1.318-1.599-1.848-3.683-1.489-5.687c-0.513-1.363-0.727-2.818-0.594-4.273c0.07-0.766,0.264-1.503,0.566-2.188
				c0.078-1.185,0.364-2.344,0.861-3.429c1.294-2.824,3.911-4.881,7.179-5.644c4.112-0.92,8.094-1.565,11.897-1.93
				c0.361-0.039,0.771-0.058,1.173-0.058c0.243,0,0.481,0.007,0.72,0.02l0.225,0.015c1.338,0.097,2.62,0.417,3.811,0.951
				c0.209,0.094,0.429,0.207,0.642,0.329c0.524,0.286,0.9,0.559,1.096,0.701c0.093,0.068,0.185,0.137,0.273,0.208
				c3.304,2.236,5.804,6.66,3.279,12.922c-1.561,3.963-3.241,7.612-4.974,10.795C64.762,125.881,61.447,127.925,57.798,127.925
				L57.798,127.925z"/>
		</g>
		<g>
			<path fill="#FFFFFF" d="M87.233,58.925c0.002,0.021,0.002,0.044,0.004,0.065c0.021,0.184,0.051,0.365,0.085,0.545
				c0.005,0.022,0.006,0.045,0.011,0.067c0.035,0.174,0.081,0.344,0.129,0.514c0.009,0.027,0.014,0.056,0.021,0.083
				c0.049,0.162,0.107,0.321,0.169,0.479c0.013,0.033,0.021,0.067,0.035,0.101c0.058,0.144,0.125,0.283,0.193,0.422
				c0.021,0.046,0.04,0.094,0.063,0.14c0.063,0.122,0.134,0.24,0.204,0.358c0.035,0.061,0.066,0.122,0.104,0.182
				c0.063,0.102,0.136,0.198,0.205,0.297c0.051,0.073,0.098,0.148,0.151,0.22c0.063,0.084,0.135,0.164,0.202,0.246
				c0.067,0.081,0.131,0.165,0.202,0.244c0.061,0.067,0.127,0.131,0.19,0.196c0.086,0.09,0.169,0.182,0.261,0.268
				c0.052,0.049,0.109,0.095,0.163,0.144c0.108,0.098,0.217,0.196,0.332,0.29c0.043,0.034,0.09,0.066,0.134,0.1
				c0.132,0.104,0.265,0.206,0.405,0.303c0.03,0.021,0.063,0.039,0.094,0.06c0.158,0.105,0.318,0.21,0.486,0.308
				c0.021,0.013,0.235,0.023,0.256,0.036c0.171,0.098-0.287,0.193,0.713,0.282c0-0.001,0-0.002,0-0.002
				c0,0.005-0.169,0.011-0.159,0.016c0.063,0.032,0.521-1.209,0.599-1.701c0.443-2.703-0.611-5.462-3.36-6.441
				c-0.546-0.189-1.124-0.289-1.666-0.313c-0.099,0.378-0.172,0.752-0.209,1.123c-0.006,0.059-0.024,0.117-0.028,0.175
				c-0.015,0.186-0.021,0.37-0.021,0.553c0.001,0.027-0.004,0.056-0.003,0.083C87.204,58.554,87.215,58.739,87.233,58.925z"/>
			<path fill="#FFFFFF" d="M105.708,67.675c2.03-1.208,3.846-3.009,5.164-5.31c0.388-0.681,0.709-1.38,0.98-2.081
				c-0.412-0.342-0.845-0.659-1.321-0.934c-5.253-3.007-12.359-0.483-15.959,5.627c0.419-1.551,0.525-3.266,0.188-5.052
				c-0.244-1.26-0.997-2.141-1.502-2.228c-0.018-0.005-0.036-0.007-0.056-0.012c-0.523-0.098-0.571,0.563-0.161,1.763
				c0.912,2.647,0.979,5.394,0.248,7.666c-1.123-0.319-2.087-0.993-3.577-2.101c-7.061-5.409-16.059-4.89-18.632,10.701
				c-1.101,7.925,1.215,15.607,10.326,17.861c1.847,0.46,3.697,0.63,5.475,0.529c0.02,0.012,0.042,0.022,0.062,0.034l0,0
				c0.014,0.008,0.029,0.016,0.043,0.023c1.496,0.889,3.176,1.584,4.991,2.035c9.104,2.251,14.736-3.458,17.461-10.983
				C112.833,75.05,110.376,69.642,105.708,67.675z"/>
			<path fill="#FFFFFF" d="M75.849,101.738c-0.479,0.049-0.938,0.149-1.389,0.274c-0.034,0.658-0.028,1.329,0.04,2.012
				c0.624,6.254,5.443,10.895,10.767,10.365c0.469-0.05,0.92-0.147,1.365-0.271l0.001,0.001c0.009-0.001,0.016-0.003,0.021-0.006
				c0.034-0.658,0.031-1.33-0.042-2.01C85.99,105.849,81.17,101.209,75.849,101.738z"/>
			<path fill="#FFFFFF" d="M64.048,104.239c0-0.002,0-0.003,0-0.003c0-0.017,0.05-0.026,0.029-0.042
				c-0.158-0.113-0.282-0.212-0.463-0.302c-0.041-0.02-0.058-0.04-0.1-0.059c-0.436-0.195-0.915-0.317-1.453-0.356
				c-0.032-0.003-0.058-0.005-0.09-0.006c-0.275-0.015-0.554-0.016-0.851,0.016c-3.882,0.373-7.605,1.025-10.976,1.779
				c-2.549,0.595-3.262,2.694-2.143,4.833c-0.393,0.011-0.762,0.09-1.083,0.247c-0.094,1.027,0.526,2.218,1.665,2.998
				c0.171,0.117,0.346,0.216,0.522,0.305c-0.819,0.385-1.43,0.875-1.674,1.568c0.655,0.795,1.931,1.844,3.29,0.844
				c0.002,0,0.003,0,0.005,0c-1.38,1-1.726,2.068-1.726,2.068l1.405-1c-0.454,1.147-0.376,2.366,0.16,3.144
				c0.745-0.045,1.516-0.459,2.115-1.16c0.802,1.035,1.941,1.591,2.924,1.481c0.063-0.134,0.108-0.272,0.146-0.421
				c1.667,1.252,3.63,0.979,4.796-1.119c1.652-3.035,3.201-6.438,4.629-10.065C65.97,107.021,66.048,105.223,64.048,104.239z"/>
		</g>
		<g>
			<path fill="#DCD7A7" d="M87.233,58.925c0.002,0.021,0.002,0.044,0.004,0.065c0.021,0.184,0.051,0.365,0.085,0.545
				c0.005,0.022,0.006,0.045,0.011,0.067c0.035,0.174,0.081,0.344,0.129,0.514c0.009,0.027,0.014,0.056,0.021,0.083
				c0.049,0.162,0.107,0.321,0.169,0.479c0.013,0.033,0.021,0.067,0.035,0.101c0.058,0.144,0.125,0.283,0.193,0.422
				c0.021,0.046,0.04,0.094,0.063,0.14c0.063,0.122,0.134,0.24,0.204,0.358c0.035,0.061,0.066,0.122,0.104,0.182
				c0.063,0.102,0.136,0.198,0.205,0.297c0.051,0.073,0.098,0.148,0.151,0.22c0.063,0.084,0.135,0.164,0.202,0.246
				c0.067,0.081,0.131,0.165,0.202,0.244c0.061,0.067,0.127,0.131,0.19,0.196c0.086,0.09,0.169,0.182,0.261,0.268
				c0.052,0.049,0.109,0.095,0.163,0.144c0.108,0.098,0.217,0.196,0.332,0.29c0.043,0.034,0.09,0.066,0.134,0.1
				c0.132,0.104,0.265,0.206,0.405,0.303c0.03,0.021,0.063,0.039,0.094,0.06c0.158,0.105,0.318,0.21,0.486,0.308
				c0.021,0.013,0.235,0.023,0.256,0.036c0.171,0.098-0.287,0.193,0.713,0.282c0-0.001,0-0.002,0-0.002
				c0,0.005-0.169,0.011-0.159,0.016c0.063,0.032,0.521-1.209,0.599-1.701c0.443-2.703-0.611-5.462-3.36-6.441
				c-0.546-0.189-1.124-0.289-1.666-0.313c-0.099,0.378-0.172,0.752-0.209,1.123c-0.006,0.059-0.024,0.117-0.028,0.175
				c-0.015,0.186-0.021,0.37-0.021,0.553c0.001,0.027-0.004,0.056-0.003,0.083C87.204,58.554,87.215,58.739,87.233,58.925z"/>
			<path fill="#DCD7A7" d="M105.708,67.675c2.03-1.208,3.846-3.009,5.164-5.31c0.388-0.681,0.709-1.38,0.98-2.081
				c-0.412-0.342-0.845-0.659-1.321-0.934c-5.253-3.007-12.359-0.483-15.959,5.627c0.419-1.551,0.525-3.266,0.188-5.052
				c-0.244-1.26-0.997-2.141-1.502-2.228c-0.018-0.005-0.036-0.007-0.056-0.012c-0.523-0.098-0.571,0.563-0.161,1.763
				c0.912,2.647,0.979,5.394,0.248,7.666c-1.123-0.319-2.087-0.993-3.577-2.101c-7.061-5.409-16.059-4.89-18.632,10.701
				c-1.101,7.925,1.215,15.607,10.326,17.861c1.847,0.46,3.697,0.63,5.475,0.529c0.02,0.012,0.042,0.022,0.062,0.034l0,0
				c0.014,0.008,0.029,0.016,0.043,0.023c1.496,0.889,3.176,1.584,4.991,2.035c9.104,2.251,14.736-3.458,17.461-10.983
				C112.833,75.05,110.376,69.642,105.708,67.675z"/>
			<path fill="#DCD7A7" d="M75.849,101.738c-0.479,0.049-0.938,0.149-1.389,0.274c-0.034,0.658-0.028,1.329,0.04,2.012
				c0.624,6.254,5.443,10.895,10.767,10.365c0.469-0.05,0.92-0.147,1.365-0.271l0.001,0.001c0.009-0.001,0.016-0.003,0.021-0.006
				c0.034-0.658,0.031-1.33-0.042-2.01C85.99,105.849,81.17,101.209,75.849,101.738z"/>
			<path fill="#DCD7A7" d="M64.048,104.239c0-0.002,0-0.003,0-0.003c0-0.017,0.05-0.026,0.029-0.042
				c-0.158-0.113-0.282-0.212-0.463-0.302c-0.041-0.02-0.058-0.04-0.1-0.059c-0.436-0.195-0.915-0.317-1.453-0.356
				c-0.032-0.003-0.058-0.005-0.09-0.006c-0.275-0.015-0.554-0.016-0.851,0.016c-3.882,0.373-7.605,1.025-10.976,1.779
				c-2.549,0.595-3.262,2.694-2.143,4.833c-0.393,0.011-0.762,0.09-1.083,0.247c-0.094,1.027,0.526,2.218,1.665,2.998
				c0.171,0.117,0.346,0.216,0.522,0.305c-0.819,0.385-1.43,0.875-1.674,1.568c0.655,0.795,1.931,1.844,3.29,0.844
				c0.002,0,0.003,0,0.005,0c-1.38,1-1.726,2.068-1.726,2.068l1.405-1c-0.454,1.147-0.376,2.366,0.16,3.144
				c0.745-0.045,1.516-0.459,2.115-1.16c0.802,1.035,1.941,1.591,2.924,1.481c0.063-0.134,0.108-0.272,0.146-0.421
				c1.667,1.252,3.63,0.979,4.796-1.119c1.652-3.035,3.201-6.438,4.629-10.065C65.97,107.021,66.048,105.223,64.048,104.239z"/>
		</g>
	</g>
	<g>
		<g>
			<path fill="#FFFFFF" d="M10.958,38.832c-0.899,0-1.797-0.154-2.675-0.457c-2.31-0.77-4.123-2.569-5-4.976
				c-0.328-0.898-0.566-1.972-0.79-3.574c-0.091-0.578-0.14-1.229-0.157-2.081c-0.011-0.551-0.022-1.181-0.032-1.889
				c-0.012-0.778-0.007-1.614,0.018-2.502l0.064-2.288c0.024-0.839,0.061-1.609,0.11-2.311c0.05-0.739,0.104-1.341,0.157-1.796
				c0.006-0.057,0.014-0.113,0.021-0.169c0.208-1.489,0.372-2.556,0.488-3.204c0.155-0.875,0.346-1.591,0.597-2.231
				c0.167-0.441,0.382-0.872,0.645-1.285c0,0,0.021-0.033,0.025-0.038c0.156-0.247,0.328-0.489,0.496-0.696
				c0.793-0.983,1.801-1.697,2.904-2.126c0.949-0.402,1.98-0.612,3.046-0.612c0.188,0,0.461,0.011,0.649,0.026
				c2.111,0.178,4.024,1.156,5.41,2.756c0.135,0.156,0.264,0.318,0.385,0.486c0.295,0.408,0.555,0.841,0.773,1.287
				c0.381,0.78,0.626,1.612,0.748,2.545c0.062,0.474,0.091,0.986,0.091,1.569v1.039c0,0.091-0.002,0.182-0.005,0.273
				c-0.025,0.646-0.063,1.278-0.112,1.898c-0.059,0.724-0.12,1.239-0.2,1.686c-0.002,0.047-0.004,0.099-0.007,0.155
				c-0.02,0.463-0.034,0.992-0.042,1.598c-0.011,0.657-0.016,1.341-0.016,2.061c0,0.685,0.01,1.345,0.029,1.979
				c0.02,0.686,0.041,1.282,0.062,1.799c0.005,0.125,0.009,0.233,0.016,0.324c0.403,2.397,0.186,4.438-0.661,6.237
				C16.675,37.104,13.981,38.832,10.958,38.832z"/>
			<path fill="#FFFFFF" d="M14.445,25.087c-3.691,0-6.749-2.867-6.985-6.55l-0.51-7.918C6.826,8.688,7.506,6.792,8.829,5.381
				s3.172-2.212,5.106-2.212h2.771c1.939,0,3.792,0.805,5.116,2.222c1.324,1.417,2,3.32,1.868,5.255l-0.541,7.918
				c-0.251,3.672-3.303,6.523-6.984,6.523H14.445z"/>
			<path fill="#FFFFFF" d="M20.534,36.18c-1.379,0-2.71-0.37-3.957-1.099c-0.624-0.356-1.25-0.822-1.8-1.348
				c-0.933-0.899-1.624-1.974-2.073-3.213c-0.233-0.631-0.413-1.335-0.539-2.121c-0.082-0.499-0.15-1.087-0.208-1.782
				c-0.09-1.12-0.156-2.021-0.201-2.722c-0.054-0.859-0.078-1.554-0.078-2.097c0-0.774,0.045-1.458,0.138-2.089
				c0.088-0.586,0.211-1.16,0.368-1.732c0.404-1.426,1.127-3.423,2.902-4.903c1.336-1.108,3.004-1.712,4.71-1.712
				c0.784,0,2.001,0.133,3.301,0.777c0.557-0.367,1.156-0.647,1.779-0.839c1.041-0.416,2.127-0.63,3.214-0.63
				c1.116,0,2.204,0.22,3.233,0.653c1.614,0.682,3.792,2.188,5.029,5.509c0.494,1.368,0.722,2.867,0.741,4.781
				c0.014,1.417-0.088,2.928-0.304,4.491c-0.354,2.479-0.922,4.193-1.847,5.592c-1.459,2.204-3.748,3.467-6.28,3.467h0
				c-1.014,0-1.984-0.2-2.879-0.581c-0.29,0.073-0.584,0.129-0.883,0.168C23.647,35.665,22.119,36.18,20.534,36.18z"/>
			<path fill="#FFFFFF" d="M48.005,35.841c-1.216,0-2.354-0.199-3.383-0.59c-0.741-0.276-1.521-0.696-2.403-1.305
				c-3.754-2.577-5.611-6.701-5.086-11.309c0.137-1.313,0.449-2.667,0.92-3.96c0.442-1.22,0.998-2.363,1.648-3.391
				c0.742-1.176,1.611-2.2,2.581-3.043c1.148-0.994,2.407-1.693,3.757-2.092c0.368-0.121,0.752-0.213,1.148-0.273
				c0.53-0.08,1.063-0.12,1.583-0.12c2.709,0,5.215,1.085,7.056,3.056c0.052,0.055,0.103,0.112,0.153,0.169
				c0.719,0.821,1.307,1.781,1.748,2.854c0.304,0.742,0.565,1.613,0.851,2.832c0.171,0.765,0.307,1.46,0.423,2.157
				c0.165,0.986,0.238,1.719,0.238,2.375c0,1.527-0.229,3.002-0.68,4.383c-0.463,1.419-1.129,2.708-1.978,3.831
				c-0.934,1.239-2.08,2.263-3.398,3.03C51.619,35.357,49.827,35.841,48.005,35.841z"/>
			<path fill="#FFFFFF" d="M54.309,35.841c-2.552,0-4.934-1.235-6.37-3.303c-0.842-1.206-1.241-2.555-1.519-3.713
				c-0.16-0.702-0.257-1.392-0.33-2.258c-0.051-0.63-0.09-1.308-0.115-2.045c-0.025-0.721-0.032-1.473-0.02-2.245
				c0.013-0.754,0.038-1.452,0.076-2.092c0.045-0.791,0.118-1.493,0.224-2.132c0.174-1.039,0.49-2.376,1.423-3.668
				c0.193-0.267,0.404-0.52,0.632-0.757c1.548-1.607,3.25-2.134,4.404-2.294c0.317-0.043,0.661-0.067,0.98-0.067
				c0.644,0,1.282,0.086,1.913,0.257c0.991-0.391,2.025-0.588,3.077-0.588c1.653,0,3.276,0.498,4.691,1.439
				c1.882,1.255,3.198,3.13,3.81,5.427c0.237,0.92,0.354,1.877,0.392,3.159c0.026,0.879,0.02,1.811-0.019,2.768
				c-0.038,0.953-0.109,1.908-0.21,2.837c-0.119,1.081-0.277,1.992-0.484,2.784c-0.528,2.173-1.888,3.972-3.794,5.028
				c-1.119,0.642-2.375,0.979-3.667,0.979c-0.627,0-1.243-0.078-1.842-0.233C56.553,35.59,55.449,35.841,54.309,35.841z"/>
			<path fill="#FFFFFF" d="M83.333,35.79c-0.674,0-1.363-0.088-2.049-0.261c-0.038-0.01-0.076-0.02-0.114-0.03
				c-0.512-0.139-1.126-0.356-1.779-0.696c-0.744,0.184-1.519,0.279-2.315,0.279c-1.138,0-2.149-0.159-3.09-0.485
				c-1.023-0.35-1.996-0.922-2.945-1.74c-0.064-0.055-0.127-0.112-0.189-0.169c-1.326-1.229-2.285-2.768-2.773-4.449
				c-0.364-1.239-0.5-2.621-0.411-4.208c0.09-1.335,0.373-2.637,0.87-4.067c0.398-1.145,0.875-2.254,1.418-3.302
				c0.582-1.125,1.23-2.152,1.923-3.045c1.236-1.594,2.593-2.663,4.147-3.271c0.112-0.044,0.226-0.085,0.341-0.123
				c0.979-0.325,2.018-0.49,3.086-0.49c1.038,0,2.116,0.157,3.205,0.468c0.125,0.036,0.249,0.075,0.371,0.117
				c1.773,0.614,2.901,1.759,3.594,2.566c0.399,0.466,0.792,0.972,1.175,1.513c0.419,0.589,0.803,1.2,1.141,1.815
				c0.56,1.017,0.909,1.906,1.099,2.8c0.16,0.736,0.227,1.551,0.195,2.454c-0.018,0.525-0.063,1.047-0.133,1.553l0.113,0.779
				c0.08,0.561,0.124,1.123,0.133,1.69c1.121,3.539-0.085,6.016-0.922,7.194C88.04,34.627,85.763,35.79,83.333,35.79z"/>
		</g>
		<g>
			<path fill="#FFFFFF" d="M10.369,13.731l-0.063,0.1c0.17-0.176,0.387-0.253,0.652-0.231c0.266,0.022,0.494,0.144,0.685,0.363
				c0.063,0.088,0.116,0.176,0.159,0.264s0.074,0.215,0.096,0.379c0.021,0.165,0.032,0.386,0.032,0.66c0,0.275,0,0.622,0,1.039
				c-0.021,0.55-0.054,1.089-0.096,1.617c-0.043,0.527-0.085,0.891-0.128,1.088c-0.042,0.177-0.074,0.518-0.095,1.023
				c-0.021,0.506-0.038,1.1-0.048,1.781c-0.011,0.682-0.017,1.402-0.017,2.161s0.011,1.49,0.032,2.193
				c0.021,0.704,0.042,1.325,0.063,1.864s0.053,0.918,0.096,1.138c0.17,0.969,0.144,1.688-0.079,2.161
				c-0.224,0.474-0.601,0.61-1.131,0.412c-0.298-0.087-0.521-0.335-0.669-0.742c-0.148-0.406-0.297-1.148-0.445-2.227
				c-0.043-0.242-0.069-0.632-0.08-1.171s-0.021-1.155-0.031-1.848c-0.011-0.693-0.006-1.43,0.016-2.211
				c0.021-0.78,0.042-1.539,0.063-2.276c0.021-0.736,0.053-1.412,0.096-2.028c0.042-0.615,0.085-1.11,0.128-1.484
				c0.19-1.364,0.339-2.343,0.445-2.937C10.156,14.227,10.263,13.863,10.369,13.731z"/>
			<path fill="#FFFFFF" d="M16.706,10.169l-0.541,7.918h-1.72l-0.51-7.918H16.706z"/>
			<path fill="#FFFFFF" d="M26.943,17.987v0.099c0.612-0.417,1.166-0.521,1.662-0.313c0.495,0.209,0.892,0.709,1.187,1.501
				c0.19,0.527,0.291,1.33,0.302,2.408c0.011,1.077-0.068,2.232-0.238,3.464c-0.188,1.319-0.439,2.216-0.752,2.688
				c-0.313,0.474-0.638,0.435-0.972-0.115c-0.063-0.088-0.115-0.203-0.156-0.347c-0.042-0.143-0.068-0.357-0.079-0.644
				c-0.011-0.285-0.016-0.659-0.016-1.121s0-1.077,0-1.848c0-0.968-0.005-1.721-0.016-2.26s-0.043-0.901-0.096-1.089
				c-0.053-0.187-0.144-0.22-0.271-0.099s-0.298,0.357-0.51,0.709c-0.255,0.418-0.504,0.874-0.748,1.369s-0.462,0.989-0.652,1.484
				c-0.191,0.495-0.361,0.979-0.51,1.452s-0.255,0.896-0.318,1.27c-0.106,0.507-0.244,0.853-0.414,1.039
				c-0.17,0.188-0.436,0.227-0.796,0.116c-0.68-0.176-1.019-1.056-1.019-2.64c0-0.483-0.021-0.809-0.064-0.974
				c-0.042-0.164-0.116-0.247-0.223-0.247c-0.17,0-0.255,0.11-0.255,0.33c0,0.11-0.026,0.275-0.079,0.495
				c-0.054,0.22-0.123,0.439-0.207,0.659c-0.085,0.221-0.17,0.534-0.255,0.94c-0.085,0.407-0.148,0.798-0.191,1.171
				c-0.106,0.792-0.238,1.298-0.397,1.518c-0.159,0.221-0.409,0.231-0.748,0.033c-0.191-0.109-0.356-0.23-0.494-0.362
				c-0.138-0.133-0.25-0.313-0.334-0.545c-0.085-0.23-0.154-0.512-0.207-0.841c-0.054-0.33-0.102-0.748-0.144-1.254
				c-0.085-1.056-0.148-1.919-0.191-2.59c-0.042-0.671-0.063-1.221-0.063-1.649s0.021-0.786,0.063-1.072
				c0.043-0.285,0.106-0.582,0.191-0.891c0.212-0.747,0.425-1.209,0.637-1.386c0.212-0.176,0.467-0.088,0.765,0.264
				c0.105,0.132,0.207,0.319,0.303,0.562c0.095,0.242,0.164,0.462,0.206,0.659c0.064,0.507,0.181,0.759,0.351,0.759
				c0.148,0,0.223-0.065,0.223-0.197c0-0.11,0.048-0.231,0.144-0.363s0.218-0.253,0.366-0.363c0.148-0.109,0.313-0.203,0.493-0.28
				c0.181-0.076,0.345-0.115,0.494-0.115c0.255,0,0.456,0.044,0.604,0.132s0.318,0.264,0.51,0.528
				c0.127,0.176,0.26,0.329,0.398,0.462c0.138,0.132,0.238,0.197,0.302,0.197c0.042,0,0.153-0.109,0.332-0.33
				c0.18-0.219,0.364-0.483,0.555-0.791c0.189-0.308,0.416-0.616,0.68-0.924S26.775,18.119,26.943,17.987z"/>
			<path fill="#FFFFFF" d="M48.291,16.8h-0.063c1.02-0.153,1.847,0.11,2.483,0.792c0.212,0.242,0.393,0.544,0.542,0.907
				c0.148,0.362,0.318,0.951,0.509,1.765c0.128,0.572,0.239,1.144,0.335,1.716s0.143,0.979,0.143,1.221
				c0,0.791-0.111,1.528-0.334,2.21s-0.525,1.276-0.907,1.781c-0.382,0.507-0.828,0.907-1.338,1.204
				c-0.509,0.297-1.062,0.445-1.655,0.445c-0.361,0-0.658-0.043-0.892-0.132c-0.233-0.087-0.541-0.264-0.924-0.527
				c-1.635-1.122-2.335-2.705-2.102-4.751c0.085-0.813,0.266-1.6,0.542-2.358c0.275-0.759,0.604-1.44,0.987-2.046
				c0.382-0.604,0.801-1.104,1.257-1.501C47.331,17.13,47.803,16.888,48.291,16.8z M49.215,19.703l0.063,0.065
				c-0.17-0.241-0.34-0.45-0.51-0.627c-0.17-0.176-0.286-0.264-0.35-0.264c-0.128,0-0.276,0.127-0.446,0.38s-0.35,0.583-0.541,0.989
				c-0.191,0.407-0.372,0.858-0.541,1.353c-0.17,0.495-0.309,0.984-0.414,1.469c-0.148,0.638-0.175,1.242-0.08,1.814
				c0.096,0.571,0.292,1.022,0.59,1.353c0.254,0.308,0.62,0.456,1.098,0.445c0.479-0.011,0.854-0.17,1.131-0.479
				c0.297-0.33,0.552-0.83,0.764-1.501c0.213-0.671,0.308-1.314,0.287-1.93c-0.021-0.616-0.101-1.133-0.239-1.551
				C49.889,20.803,49.618,20.297,49.215,19.703z"/>
			<path fill="#FFFFFF" d="M58.193,18.086l-0.063-0.032c0.467-0.198,0.923-0.148,1.369,0.148c0.445,0.297,0.753,0.764,0.923,1.401
				c0.085,0.33,0.138,0.853,0.159,1.567s0.017,1.474-0.016,2.276s-0.091,1.589-0.175,2.358c-0.085,0.771-0.191,1.386-0.318,1.848
				c-0.064,0.309-0.213,0.518-0.446,0.627c-0.127,0.088-0.26,0.099-0.397,0.033c-0.139-0.066-0.266-0.182-0.383-0.347
				c-0.116-0.165-0.223-0.379-0.318-0.644c-0.095-0.264-0.154-0.549-0.175-0.857c-0.021-0.22-0.037-0.522-0.048-0.907
				s-0.006-0.809,0.016-1.271c0.021-0.461,0.048-0.929,0.08-1.401s0.068-0.907,0.111-1.304c0.042-0.373-0.043-0.544-0.255-0.511
				s-0.436,0.247-0.669,0.643c-0.148,0.243-0.302,0.551-0.461,0.924c-0.159,0.375-0.324,0.775-0.494,1.204
				c-0.17,0.43-0.334,0.88-0.493,1.354c-0.159,0.473-0.303,0.939-0.43,1.401c-0.234,0.858-0.451,1.446-0.653,1.766
				c-0.202,0.318-0.451,0.478-0.748,0.478c-0.276,0-0.483-0.099-0.621-0.297c-0.138-0.197-0.292-0.648-0.461-1.353
				c-0.064-0.285-0.117-0.687-0.16-1.204c-0.042-0.517-0.074-1.083-0.095-1.699c-0.021-0.615-0.027-1.247-0.017-1.896
				c0.011-0.648,0.032-1.248,0.064-1.798c0.031-0.55,0.079-1.018,0.143-1.402c0.064-0.385,0.128-0.621,0.191-0.709
				c0.127-0.132,0.233-0.203,0.318-0.215c0.085-0.011,0.223,0.039,0.414,0.148c0.297,0.177,0.51,0.462,0.637,0.858
				c0.127,0.396,0.191,0.956,0.191,1.682c0,0.771,0.074,1.161,0.223,1.172s0.424-0.335,0.828-1.039
				c0.445-0.792,0.87-1.463,1.273-2.013C57.641,18.526,57.96,18.196,58.193,18.086z"/>
			<path fill="#FFFFFF" d="M78.572,16.865c0.594-0.197,1.315-0.176,2.165,0.066c0.127,0.044,0.318,0.215,0.573,0.512
				c0.254,0.297,0.514,0.632,0.779,1.006s0.505,0.754,0.717,1.139s0.34,0.676,0.382,0.874c0.043,0.197,0.059,0.451,0.048,0.759
				s-0.037,0.604-0.079,0.891c-0.063,0.33-0.091,0.644-0.08,0.94s0.037,0.588,0.08,0.874c0.042,0.286,0.084,0.577,0.127,0.874
				c0.042,0.297,0.063,0.61,0.063,0.94c0,0.264,0.026,0.566,0.08,0.907c0.053,0.341,0.122,0.622,0.207,0.841
				c0.36,1.034,0.148,1.452-0.637,1.254c-0.892-0.241-1.528-1.144-1.911-2.705c-0.148-0.594-0.318-0.885-0.509-0.874
				c-0.191,0.011-0.457,0.324-0.796,0.94c-0.701,1.319-1.604,1.979-2.707,1.979c-0.34,0-0.604-0.032-0.796-0.099
				c-0.191-0.065-0.414-0.209-0.669-0.429c-0.403-0.374-0.674-0.797-0.812-1.271c-0.139-0.473-0.187-1.094-0.144-1.863
				c0.042-0.616,0.207-1.337,0.493-2.161c0.287-0.825,0.626-1.616,1.02-2.375c0.393-0.759,0.807-1.419,1.241-1.979
				C77.845,17.344,78.232,16.998,78.572,16.865z M80.132,18.911l0.032,0.033c-0.17-0.176-0.335-0.242-0.494-0.198
				s-0.387,0.231-0.685,0.561c-0.36,0.396-0.727,0.996-1.098,1.799c-0.372,0.803-0.675,1.622-0.908,2.457
				c-0.127,0.44-0.218,0.792-0.271,1.056c-0.053,0.265-0.079,0.468-0.079,0.61c0,0.144,0.036,0.237,0.111,0.28
				c0.074,0.045,0.175,0.066,0.302,0.066c0.17,0,0.346-0.088,0.525-0.264c0.181-0.176,0.44-0.539,0.78-1.089
				c0.233-0.374,0.451-0.736,0.653-1.089c0.201-0.352,0.323-0.594,0.366-0.726c0.042-0.132,0.116-0.33,0.223-0.594
				c0.105-0.264,0.212-0.517,0.318-0.759c0.233-0.483,0.371-0.918,0.414-1.304C80.365,19.368,80.302,19.088,80.132,18.911z"/>
		</g>
	</g>
	<g>
		<g>
			<path fill="#FFFFFF" d="M17.814,92.141c-2.613,0-5.116-0.474-7.467-1.411c-0.851-0.013-1.695-0.18-2.49-0.497
				c-3.854-1.536-6.26-4.82-6.569-8.891C0.906,79.191,0.411,72.744,0,40.448c-0.028-2.238,1.015-4.355,2.808-5.695l2.396-1.791
				c0.585-0.438,1.233-0.779,1.92-1.015c3.169-3.042,7.186-4.633,11.765-4.633h1.254c0.914,0,1.819,0.179,2.665,0.527
				c8.939,3.679,13.831,13.851,14.956,31.095c0.85,13.02,0.499,26.82-8.549,30.459c-4.779,1.924-7.86,2.745-10.303,2.745H17.814z
				 M18.248,49.553c0.427,15.16,0.717,21.604,0.891,24.336c0.562-0.044,0.813-0.15,0.868-0.176c0-0.014,0.079-0.139,0.173-0.415
				c0.397-1.166,1.196-5.045,0.024-15.826c-0.362-3.328-0.988-6.167-1.856-8.458C18.314,49.188,18.281,49.367,18.248,49.553z"/>
			<path fill="#FFFFFF" d="M37.003,92.141c-4.428,0-9.194-3.22-9.194-10.291v-1.254c-0.03-21.847-0.003-30.315,0.623-34.199
				c-1.779-1.99-2.504-4.451-2.504-6.664v-0.313c0-3.5,1.569-6.761,4.441-9.281c1.238-1.329,3.062-2.271,5.445-2.409
				c0.135-0.008,0.27-0.012,0.405-0.012h0.627c0.234,0,0.468,0.012,0.702,0.035c7.773,0.783,10.531,6.015,10.531,10.257v0.783
				c0,0.523-0.059,1.044-0.175,1.555c-0.444,1.949-1.107,3.508-1.893,4.754c0.172,0.565,0.293,1.181,0.351,1.847
				c0.035,0.399,0.071,0.999,0.104,1.797c0.056,1.374,0.104,3.349,0.15,6.04c0.087,5.231,0.158,13.166,0.209,23.582v0.83l0.15,3.617
				c0.035,0.841-0.082,1.681-0.345,2.479C45.239,89.517,41.55,92.141,37.003,92.141z"/>
			<path fill="#FFFFFF" d="M49.872,91.799c-1.745,0-3.67-0.021-5.777-0.063c-0.064-0.001-0.664-0.029-0.664-0.029
				c-1.528-0.075-6.622-0.839-8.365-7.533c-0.293-1.125-0.301-2.306-0.024-3.435c0.35-1.425,0.464-2.372,0.496-2.932
				c0.295-13.437,0.497-25.435,0.601-35.661c0.001-0.096,0.004-0.192,0.009-0.288l0.201-3.918c0.092-2,0.856-4.988,3.959-7.669
				c1.274-1.101,2.899-1.704,4.577-1.704c0.106,0,0.212,0.002,0.319,0.007l0.471,0.021c0.099,0.004,0.197,0.011,0.295,0.02
				c2.185-0.442,4.629-0.659,7.404-0.659c0.972,0,1.997,0.027,3.047,0.082l0.44,0.021c3.066,0.157,7.44,0.733,10.301,3.915
				c1.625,1.808,2.446,4.15,2.311,6.597c-0.092,1.989-0.95,4.322-2.904,6.035c1.349,1.784,1.803,3.848,1.692,5.581l-0.042,0.737
				c-0.168,3.48-2.303,7.703-11.494,7.703c-0.71,0-1.492-0.018-2.331-0.054c-0.053,0.008-0.105,0.015-0.158,0.022l0.046,14.41
				c0,0,6.105,0.262,6.139,0.264c4.786,0.274,8.231,3.763,8.777,8.889c0.038,0.357,0.049,0.717,0.032,1.075l-0.022,0.471
				c-0.161,3.055-1.905,6.834-9.312,7.69C57.55,91.667,54.271,91.799,49.872,91.799z"/>
			<path fill="#FFFFFF" d="M76.366,92.141c-2.224,0-9.466-0.941-9.508-13.009l-0.154-5.552c-0.002-0.101-0.003-0.201-0.001-0.301
				l0.154-10.084l-0.155-11.026c-0.002-0.16,0.001-0.321,0.01-0.481l0.342-6.232c-0.421-0.026-0.81-0.052-1.169-0.08
				c-1.096-0.083-1.91-0.172-2.562-0.281c-3.691-0.615-5.435-2.875-6.122-4.931l-0.019,0.006l-0.156-0.471
				c-0.236-0.711-0.356-1.456-0.356-2.205c0-4.693,3.46-7.525,10.284-8.418c3.02-0.396,7.279-0.647,13.012-0.768l3.748-0.432
				c0.267-0.031,0.535-0.046,0.802-0.046c1.05,0,2.09,0.236,3.042,0.695c3.264,1.575,5.212,4.518,5.212,7.872v0.47
				c0,3.688-2.33,7.624-7.391,8.531l-0.129,8.351l0.448,6.118c0.012,0.17,0.019,0.341,0.019,0.511v5.799
				c0,9.207,0.231,13.176,0.425,14.884c0.029,0.262,0.044,0.526,0.044,0.79c0,7.071-4.847,10.291-9.351,10.291H76.366z"/>
		</g>
		<g>
			<path fill="#FFFFFF" d="M9.396,38.568l1.187-0.18h0.157c2.06-2.716,4.776-4.074,8.15-4.074h1.254
				c6.164,2.537,9.71,10.896,10.635,25.077c0.926,14.181-0.466,22.018-4.176,23.51c-3.709,1.493-6.272,2.239-7.69,2.239h-1.098
				c-2.254,0-4.344-0.522-6.27-1.567l-1.097,0.157c-1.463-0.583-2.194-1.68-2.194-3.292C7.731,78.409,7.313,65.049,7,40.359
				L9.396,38.568z M11.231,49.069c0.522,18.719,0.94,28.078,1.254,28.078c0.403,0,0.978,0.94,1.725,2.821
				c1.552,0.627,3.015,0.94,4.389,0.94c4.254,0,6.989-1.784,8.206-5.352c1.216-3.567,1.336-9.849,0.358-18.842
				c-0.979-8.993-3.684-15.207-8.117-18.641l-0.156-0.156C14.963,37.919,12.411,41.636,11.231,49.069z"/>
			<path fill="#FFFFFF" d="M36.219,34.717h0.627c2.821,0.284,4.232,1.381,4.232,3.292v0.783c-0.643,2.821-1.948,4.232-3.919,4.232
				h-0.94c-2.193-0.493-3.291-1.59-3.291-3.292v-0.313c0-1.642,0.836-3.104,2.508-4.389C35.436,34.852,35.696,34.747,36.219,34.717z
				 M39.287,47.077c0.253-0.344,0.433,10.098,0.537,31.324v0.94l0.156,3.762c-0.447,1.358-1.44,2.037-2.978,2.037
				c-1.463,0-2.194-1.097-2.194-3.291v-1.254c-0.03-22.227,0.179-33.34,0.627-33.34C35.749,46.524,37.032,46.465,39.287,47.077z
				 M35.905,38.165l-0.156,0.784c0,0.373,0.261,0.687,0.783,0.94c0.731-0.313,1.098-0.836,1.098-1.567h-1.411l-0.156-0.157H35.905z"
				/>
			<path fill="#FFFFFF" d="M56.058,35.03l0.471,0.022c4.075,0.209,6.06,1.254,5.956,3.135c-0.045,0.971-0.754,1.561-2.127,1.769
				c-2.135-0.627-4.105-0.992-5.911-1.097l-0.471-0.022l-6.649-0.022l-0.135,10.054c2.821-0.389,7.075-0.649,12.763-0.784
				c0.925,0.418,1.365,0.971,1.321,1.657l-0.045,0.783c-0.045,0.926-2.411,1.27-7.098,1.03c-0.016,0.149-2.321,0.246-6.919,0.291
				l0.09,27.876h0.156l12.562,0.538c1.298,0.074,2.037,0.955,2.217,2.642l-0.022,0.471c-0.061,1.149-6.054,1.604-17.98,1.365
				l-0.47-0.022c-0.896-0.044-1.537-0.813-1.926-2.306c0.403-1.642,0.635-3.09,0.694-4.344c0.299-13.599,0.5-25.548,0.604-35.848
				L43.34,38.3c0.045-0.971,0.561-1.881,1.545-2.731l0.471,0.021l0.313,0.313C48.296,35.098,51.759,34.807,56.058,35.03z"/>
			<path fill="#FFFFFF" d="M84.517,34.829c0.836,0.403,1.254,0.926,1.254,1.567v0.47c0,1.15-0.889,1.725-2.665,1.725h-3.447
				l-1.567,0.156l-0.157-0.156l0.471,5.172L78.247,53.95l0.471,6.427v5.799c0,7.688,0.156,12.912,0.47,15.674
				c0,2.194-0.783,3.291-2.351,3.291h-0.471c-1.672,0-2.508-2.037-2.508-6.112l-0.156-5.643l0.156-10.188l-0.156-11.129
				l0.627-11.441l-0.157-1.881c-6.896-0.209-10.345-0.47-10.345-0.783l-0.156-0.471c0-1.238,5.59-1.97,16.771-2.194L84.517,34.829z"
				/>
		</g>
	</g>
	<g>
		<circle fill="#FFCA05" cx="75.617" cy="62.673" r="15.216"/>
		<circle fill="#F2EAB8" cx="75.618" cy="62.673" r="14.347"/>
		<path fill="#FBA70E" d="M75.617,47.458c-0.006,0-0.014,0-0.021,0V77.89c0.008,0,0.016,0,0.021,0
			c8.404,0,15.216-6.813,15.216-15.217C90.833,54.27,84.021,47.458,75.617,47.458z"/>
		<path fill="#DCD7A7" d="M75.617,48.326c-0.006,0-0.014,0.002-0.021,0.002V77.02c0.008,0,0.016,0,0.021,0
			c7.923,0,14.348-6.423,14.348-14.347C89.965,54.751,83.54,48.326,75.617,48.326z"/>
		<g>
			<path fill="#FFCA05" d="M66.711,54.506c-1.863,2.031-3.041,4.703-3.166,7.646h10.813L66.711,54.506z"/>
			<path fill="#FBA70E" d="M76.14,50.602v10.813l7.646-7.646C81.754,51.904,79.083,50.727,76.14,50.602z"/>
			<path fill="#FBA70E" d="M84.523,70.842c1.863-2.031,3.041-4.703,3.167-7.646H76.877L84.523,70.842z"/>
			<path fill="#FFCA05" d="M75.096,50.602c-2.943,0.125-5.615,1.303-7.646,3.166l7.646,7.647V50.602z"/>
			<path fill="#FBA70E" d="M76.14,63.933v10.813c2.943-0.125,5.614-1.301,7.646-3.166L76.14,63.933z"/>
			<path fill="#FFCA05" d="M63.545,63.196c0.126,2.942,1.303,5.613,3.166,7.646l7.646-7.646H63.545z"/>
			<path fill="#FBA70E" d="M76.877,62.152H87.69c-0.126-2.944-1.304-5.615-3.167-7.646L76.877,62.152z"/>
			<path fill="#FFCA05" d="M75.096,63.933l-7.646,7.647c2.031,1.865,4.703,3.041,7.646,3.166V63.933z"/>
		</g>
	</g>
	<g>
		<path fill="#D94128" d="M10.369,13.731l-0.063,0.1c0.17-0.176,0.387-0.253,0.652-0.231c0.266,0.022,0.494,0.144,0.685,0.363
			c0.063,0.088,0.116,0.176,0.159,0.264s0.074,0.215,0.096,0.379c0.021,0.165,0.032,0.386,0.032,0.66c0,0.275,0,0.622,0,1.039
			c-0.021,0.55-0.054,1.089-0.096,1.617c-0.043,0.527-0.085,0.891-0.128,1.088c-0.042,0.177-0.074,0.518-0.095,1.023
			c-0.021,0.506-0.038,1.1-0.048,1.781c-0.011,0.682-0.017,1.402-0.017,2.161s0.011,1.49,0.032,2.193
			c0.021,0.704,0.042,1.325,0.063,1.864s0.053,0.918,0.096,1.138c0.17,0.969,0.144,1.688-0.079,2.161
			c-0.224,0.474-0.601,0.61-1.131,0.412c-0.298-0.087-0.521-0.335-0.669-0.742c-0.148-0.406-0.297-1.148-0.445-2.227
			c-0.043-0.242-0.069-0.632-0.08-1.171s-0.021-1.155-0.031-1.848c-0.011-0.693-0.006-1.43,0.016-2.211
			c0.021-0.78,0.042-1.539,0.063-2.276c0.021-0.736,0.053-1.412,0.096-2.028c0.042-0.615,0.085-1.11,0.128-1.484
			c0.19-1.364,0.339-2.343,0.445-2.937C10.156,14.227,10.263,13.863,10.369,13.731z"/>
		<path fill="#D94128" d="M16.706,10.169l-0.541,7.918h-1.72l-0.51-7.918H16.706z"/>
		<path fill="#D94128" d="M26.943,17.987v0.099c0.612-0.417,1.166-0.521,1.662-0.313c0.495,0.209,0.892,0.709,1.187,1.501
			c0.19,0.527,0.291,1.33,0.302,2.408c0.011,1.077-0.068,2.232-0.238,3.464c-0.188,1.319-0.439,2.216-0.752,2.688
			c-0.313,0.474-0.638,0.435-0.972-0.115c-0.063-0.088-0.115-0.203-0.156-0.347c-0.042-0.143-0.068-0.357-0.079-0.644
			c-0.011-0.285-0.016-0.659-0.016-1.121s0-1.077,0-1.848c0-0.968-0.005-1.721-0.016-2.26s-0.043-0.901-0.096-1.089
			c-0.053-0.187-0.144-0.22-0.271-0.099s-0.298,0.357-0.51,0.709c-0.255,0.418-0.504,0.874-0.748,1.369s-0.462,0.989-0.652,1.484
			c-0.191,0.495-0.361,0.979-0.51,1.452s-0.255,0.896-0.318,1.27c-0.106,0.507-0.244,0.853-0.414,1.039
			c-0.17,0.188-0.436,0.227-0.796,0.116c-0.68-0.176-1.019-1.056-1.019-2.64c0-0.483-0.021-0.809-0.064-0.974
			c-0.042-0.164-0.116-0.247-0.223-0.247c-0.17,0-0.255,0.11-0.255,0.33c0,0.11-0.026,0.275-0.079,0.495
			c-0.054,0.22-0.123,0.439-0.207,0.659c-0.085,0.221-0.17,0.534-0.255,0.94c-0.085,0.407-0.148,0.798-0.191,1.171
			c-0.106,0.792-0.238,1.298-0.397,1.518c-0.159,0.221-0.409,0.231-0.748,0.033c-0.191-0.109-0.356-0.23-0.494-0.362
			c-0.138-0.133-0.25-0.313-0.334-0.545c-0.085-0.23-0.154-0.512-0.207-0.841c-0.054-0.33-0.102-0.748-0.144-1.254
			c-0.085-1.056-0.148-1.919-0.191-2.59c-0.042-0.671-0.063-1.221-0.063-1.649s0.021-0.786,0.063-1.072
			c0.043-0.285,0.106-0.582,0.191-0.891c0.212-0.747,0.425-1.209,0.637-1.386c0.212-0.176,0.467-0.088,0.765,0.264
			c0.105,0.132,0.207,0.319,0.303,0.562c0.095,0.242,0.164,0.462,0.206,0.659c0.064,0.507,0.181,0.759,0.351,0.759
			c0.148,0,0.223-0.065,0.223-0.197c0-0.11,0.048-0.231,0.144-0.363s0.218-0.253,0.366-0.363c0.148-0.109,0.313-0.203,0.493-0.28
			c0.181-0.076,0.345-0.115,0.494-0.115c0.255,0,0.456,0.044,0.604,0.132s0.318,0.264,0.51,0.528
			c0.127,0.176,0.26,0.329,0.398,0.462c0.138,0.132,0.238,0.197,0.302,0.197c0.042,0,0.153-0.109,0.332-0.33
			c0.18-0.219,0.364-0.483,0.555-0.791c0.189-0.308,0.416-0.616,0.68-0.924S26.775,18.119,26.943,17.987z"/>
		<path fill="#FFFFFF" d="M48.291,16.8h-0.063c1.02-0.153,1.847,0.11,2.483,0.792c0.212,0.242,0.393,0.544,0.542,0.907
			c0.148,0.362,0.318,0.951,0.509,1.765c0.128,0.572,0.239,1.144,0.335,1.716s0.143,0.979,0.143,1.221
			c0,0.791-0.111,1.528-0.334,2.21s-0.525,1.276-0.907,1.781c-0.382,0.507-0.828,0.907-1.338,1.204
			c-0.509,0.297-1.062,0.445-1.655,0.445c-0.361,0-0.658-0.043-0.892-0.132c-0.233-0.087-0.541-0.264-0.924-0.527
			c-1.635-1.122-2.335-2.705-2.102-4.751c0.085-0.813,0.266-1.6,0.542-2.358c0.275-0.759,0.604-1.44,0.987-2.046
			c0.382-0.604,0.801-1.104,1.257-1.501C47.331,17.13,47.803,16.888,48.291,16.8z M49.215,19.703l0.063,0.065
			c-0.17-0.241-0.34-0.45-0.51-0.627c-0.17-0.176-0.286-0.264-0.35-0.264c-0.128,0-0.276,0.127-0.446,0.38s-0.35,0.583-0.541,0.989
			c-0.191,0.407-0.372,0.858-0.541,1.353c-0.17,0.495-0.309,0.984-0.414,1.469c-0.148,0.638-0.175,1.242-0.08,1.814
			c0.096,0.571,0.292,1.022,0.59,1.353c0.254,0.308,0.62,0.456,1.098,0.445c0.479-0.011,0.854-0.17,1.131-0.479
			c0.297-0.33,0.552-0.83,0.764-1.501c0.213-0.671,0.308-1.314,0.287-1.93c-0.021-0.616-0.101-1.133-0.239-1.551
			C49.889,20.803,49.618,20.297,49.215,19.703z"/>
		<path fill="#D94128" d="M58.193,18.086l-0.063-0.032c0.467-0.198,0.923-0.148,1.369,0.148c0.445,0.297,0.753,0.764,0.923,1.401
			c0.085,0.33,0.138,0.853,0.159,1.567s0.017,1.474-0.016,2.276s-0.091,1.589-0.175,2.358c-0.085,0.771-0.191,1.386-0.318,1.848
			c-0.064,0.309-0.213,0.518-0.446,0.627c-0.127,0.088-0.26,0.099-0.397,0.033c-0.139-0.066-0.266-0.182-0.383-0.347
			c-0.116-0.165-0.223-0.379-0.318-0.644c-0.095-0.264-0.154-0.549-0.175-0.857c-0.021-0.22-0.037-0.522-0.048-0.907
			s-0.006-0.809,0.016-1.271c0.021-0.461,0.048-0.929,0.08-1.401s0.068-0.907,0.111-1.304c0.042-0.373-0.043-0.544-0.255-0.511
			s-0.436,0.247-0.669,0.643c-0.148,0.243-0.302,0.551-0.461,0.924c-0.159,0.375-0.324,0.775-0.494,1.204
			c-0.17,0.43-0.334,0.88-0.493,1.354c-0.159,0.473-0.303,0.939-0.43,1.401c-0.234,0.858-0.451,1.446-0.653,1.766
			c-0.202,0.318-0.451,0.478-0.748,0.478c-0.276,0-0.483-0.099-0.621-0.297c-0.138-0.197-0.292-0.648-0.461-1.353
			c-0.064-0.285-0.117-0.687-0.16-1.204c-0.042-0.517-0.074-1.083-0.095-1.699c-0.021-0.615-0.027-1.247-0.017-1.896
			c0.011-0.648,0.032-1.248,0.064-1.798c0.031-0.55,0.079-1.018,0.143-1.402c0.064-0.385,0.128-0.621,0.191-0.709
			c0.127-0.132,0.233-0.203,0.318-0.215c0.085-0.011,0.223,0.039,0.414,0.148c0.297,0.177,0.51,0.462,0.637,0.858
			c0.127,0.396,0.191,0.956,0.191,1.682c0,0.771,0.074,1.161,0.223,1.172s0.424-0.335,0.828-1.039
			c0.445-0.792,0.87-1.463,1.273-2.013C57.641,18.526,57.96,18.196,58.193,18.086z"/>
		<path fill="#D94128" d="M78.571,16.865c0.594-0.197,1.315-0.176,2.165,0.066c0.127,0.044,0.318,0.215,0.573,0.512
			c0.254,0.297,0.514,0.632,0.779,1.006s0.505,0.754,0.717,1.139s0.34,0.676,0.382,0.874c0.043,0.197,0.059,0.451,0.048,0.759
			s-0.037,0.604-0.079,0.891c-0.063,0.33-0.091,0.644-0.08,0.94s0.037,0.588,0.08,0.874c0.042,0.286,0.084,0.577,0.127,0.874
			c0.042,0.297,0.063,0.61,0.063,0.94c0,0.264,0.026,0.566,0.08,0.907c0.053,0.341,0.122,0.622,0.207,0.841
			c0.36,1.034,0.148,1.452-0.637,1.254c-0.892-0.241-1.528-1.144-1.911-2.705c-0.148-0.594-0.318-0.885-0.509-0.874
			c-0.191,0.011-0.457,0.324-0.796,0.94c-0.701,1.319-1.604,1.979-2.707,1.979c-0.34,0-0.604-0.032-0.796-0.099
			c-0.191-0.065-0.414-0.209-0.669-0.429c-0.403-0.374-0.674-0.797-0.812-1.271c-0.139-0.473-0.187-1.094-0.144-1.863
			c0.042-0.616,0.207-1.337,0.493-2.161c0.287-0.825,0.626-1.616,1.02-2.375c0.393-0.759,0.807-1.419,1.241-1.979
			C77.844,17.344,78.231,16.998,78.571,16.865z M80.131,18.911l0.032,0.033c-0.17-0.176-0.335-0.242-0.494-0.198
			s-0.387,0.231-0.685,0.561c-0.36,0.396-0.727,0.996-1.098,1.799c-0.372,0.803-0.675,1.622-0.908,2.457
			c-0.127,0.44-0.218,0.792-0.271,1.056c-0.053,0.265-0.079,0.468-0.079,0.61c0,0.144,0.036,0.237,0.111,0.28
			c0.074,0.045,0.175,0.066,0.302,0.066c0.17,0,0.346-0.088,0.525-0.264c0.181-0.176,0.44-0.539,0.78-1.089
			c0.233-0.374,0.451-0.736,0.653-1.089c0.201-0.352,0.323-0.594,0.366-0.726c0.042-0.132,0.116-0.33,0.223-0.594
			c0.105-0.264,0.212-0.517,0.318-0.759c0.233-0.483,0.371-0.918,0.414-1.304C80.364,19.368,80.301,19.088,80.131,18.911z"/>
	</g>
	<g>
		<g>
			<path fill="#849C18" d="M47.749,18.639c-0.033,0-0.066-0.003-0.099-0.011c-0.238-0.054-0.386-0.291-0.332-0.529
				C49.399,9.01,54.091,1.577,58.727,0.023c0.229-0.078,0.481,0.047,0.559,0.278c0.078,0.231-0.047,0.481-0.278,0.559
				c-4.36,1.461-8.813,8.631-10.829,17.436C48.131,18.5,47.95,18.639,47.749,18.639z"/>
		</g>
		<g>
			<path fill="#849C18" d="M54.795,3.596c-0.212,0.191-0.397,0.405-0.569,0.627c0.22,0.327,0.463,0.646,0.739,0.948
				c2.534,2.773,6.501,3.275,8.857,1.119c0.214-0.193,0.397-0.405,0.57-0.625c-0.219-0.328-0.463-0.65-0.739-0.948
				C61.12,1.939,57.154,1.44,54.795,3.596z"/>
			<path fill="#6F8412" d="M63.822,6.29c0.209-0.191,0.392-0.398,0.561-0.616c-3.398-1.029-7.573-1.627-10.147-1.462
				c-0.002,0.004-0.005,0.007-0.01,0.011c0.22,0.327,0.463,0.646,0.739,0.948C57.499,7.944,61.466,8.446,63.822,6.29z"/>
		</g>
		<g>
			<path fill="#F14B30" d="M49.456,25.871c-2.082,2.638-5.913,3.087-8.548,1.007c-2.637-2.085-3.082-5.909-0.998-8.548
				c2.082-2.634,5.904-3.087,8.543-1.005C51.088,19.408,51.537,23.237,49.456,25.871z"/>
			<path fill="#D94128" d="M49.456,25.871c-2.082,2.638-5.913,3.087-8.548,1.007l7.545-9.553
				C51.088,19.408,51.537,23.237,49.456,25.871z"/>
		</g>
	</g>
	<g>
		<path fill="#6F8412" d="M9.396,38.568l1.187-0.18h0.157c2.06-2.716,4.776-4.074,8.15-4.074h1.254
			c6.164,2.537,9.71,10.896,10.635,25.077c0.926,14.181-0.466,22.018-4.176,23.51c-3.709,1.493-6.272,2.239-7.69,2.239h-1.098
			c-2.254,0-4.344-0.522-6.27-1.567l-1.097,0.157c-1.463-0.583-2.194-1.68-2.194-3.292C7.731,78.409,7.313,65.049,7,40.359
			L9.396,38.568z M11.231,49.069c0.522,18.719,0.94,28.078,1.254,28.078c0.403,0,0.978,0.94,1.725,2.821
			c1.552,0.627,3.015,0.94,4.389,0.94c4.254,0,6.989-1.784,8.206-5.352c1.216-3.567,1.336-9.849,0.358-18.842
			c-0.979-8.993-3.684-15.207-8.117-18.641l-0.156-0.156C14.963,37.919,12.411,41.636,11.231,49.069z"/>
		<path fill="#6F8412" d="M36.219,34.717h0.627c2.821,0.284,4.232,1.381,4.232,3.292v0.783c-0.643,2.821-1.948,4.232-3.919,4.232
			h-0.94c-2.193-0.493-3.291-1.59-3.291-3.292v-0.313c0-1.642,0.836-3.104,2.508-4.389C35.436,34.852,35.696,34.747,36.219,34.717z
			 M39.287,47.077c0.253-0.344,0.433,10.098,0.537,31.324v0.94l0.156,3.762c-0.447,1.358-1.44,2.037-2.978,2.037
			c-1.463,0-2.194-1.097-2.194-3.291v-1.254c-0.03-22.227,0.179-33.34,0.627-33.34C35.749,46.524,37.032,46.465,39.287,47.077z
			 M35.905,38.165l-0.156,0.784c0,0.373,0.261,0.687,0.783,0.94c0.731-0.313,1.098-0.836,1.098-1.567h-1.411l-0.156-0.157H35.905z"
			/>
		<path fill="#6F8412" d="M56.057,35.03l0.471,0.022c4.075,0.209,6.06,1.254,5.956,3.135c-0.045,0.971-0.754,1.561-2.127,1.769
			c-2.135-0.627-4.105-0.992-5.911-1.097l-0.471-0.022l-6.649-0.022L47.19,48.868c2.821-0.389,7.075-0.649,12.763-0.784
			c0.925,0.418,1.365,0.971,1.321,1.657l-0.045,0.783c-0.045,0.926-2.411,1.27-7.098,1.03c-0.016,0.149-2.321,0.246-6.919,0.291
			l0.09,27.876h0.156l12.562,0.538c1.298,0.074,2.037,0.955,2.217,2.642l-0.022,0.471c-0.061,1.149-6.054,1.604-17.98,1.365
			l-0.47-0.022c-0.896-0.044-1.537-0.813-1.926-2.306c0.403-1.642,0.635-3.09,0.694-4.344c0.299-13.599,0.5-25.548,0.604-35.848
			l0.201-3.918c0.045-0.971,0.561-1.881,1.545-2.731l0.471,0.021l0.313,0.313C48.295,35.098,51.758,34.807,56.057,35.03z"/>
		<path fill="#6F8412" d="M84.516,34.829c0.836,0.403,1.254,0.926,1.254,1.567v0.47c0,1.15-0.889,1.725-2.665,1.725h-3.447
			l-1.567,0.156l-0.157-0.156l0.471,5.172L78.246,53.95l0.471,6.427v5.799c0,7.688,0.156,12.912,0.47,15.674
			c0,2.194-0.783,3.291-2.351,3.291h-0.471c-1.672,0-2.508-2.037-2.508-6.112l-0.156-5.643l0.156-10.188l-0.156-11.129l0.627-11.441
			l-0.157-1.881c-6.896-0.209-10.345-0.47-10.345-0.783l-0.156-0.471c0-1.238,5.59-1.97,16.771-2.194L84.516,34.829z"/>
	</g>
	<g>
		<path fill="#6F8412" d="M93.378,67.783c-0.583,0.882-0.671,0.823-0.258-0.153c0.918-2.362,0.903-5.332-0.078-8.181
			c-0.41-1.199-0.362-1.86,0.161-1.763c0.02,0.005,0.038,0.007,0.056,0.012c0.505,0.087,1.258,0.968,1.502,2.228
			C95.317,62.881,94.679,65.649,93.378,67.783z"/>
		<path fill="#D94128" d="M97.964,67.059c-4.377,0.668-5.237,0.195-8.251-2.044c-7.061-5.409-16.059-4.89-18.632,10.701
			c-1.101,7.925,1.215,15.607,10.326,17.861c1.847,0.46,3.697,0.63,5.475,0.529c1.521,0.918,3.239,1.632,5.096,2.093
			c9.104,2.251,14.736-3.458,17.461-10.983C114.443,70.229,106.736,65.572,97.964,67.059z"/>
		<path fill="#6F8412" d="M87.438,56.432c-0.919,3.503,0.858,6.794,4.262,8.455c0.063,0.032,0.615-1.209,0.693-1.701
			c0.444-2.703-0.563-5.462-3.313-6.441C88.535,56.555,87.98,56.455,87.438,56.432z"/>
		<path fill="#F14B30" d="M93.557,67.181c1.086,0.248,2.36,0.19,4.407-0.122c8.772-1.486,16.479,3.17,11.475,18.157
			c-2.725,7.525-8.356,13.234-17.461,10.983c-1.832-0.455-3.525-1.16-5.034-2.059L93.557,67.181z"/>
		<g>
			<path fill="#849C18" d="M110.531,59.351c0.477,0.274,0.909,0.592,1.321,0.934c-0.271,0.701-0.593,1.4-0.98,2.081
				c-3.568,6.227-10.76,8.82-16.06,5.785c-0.477-0.272-0.909-0.593-1.321-0.934c0.271-0.701,0.593-1.398,0.98-2.08
				C98.04,58.907,105.231,56.317,110.531,59.351z"/>
			<path fill="#6F8412" d="M94.813,68.15c-0.468-0.271-0.894-0.583-1.3-0.918c5.91-3.34,13.448-6.196,18.318-6.965
				c0.011,0.006,0.015,0.012,0.021,0.017c-0.271,0.701-0.593,1.4-0.98,2.081C107.304,68.592,100.112,71.186,94.813,68.15z"/>
		</g>
		<path fill="#849C18" d="M91.67,64.873c-3.382-1.666-5.147-4.948-4.231-8.441c0.003-0.001,0.006,0,0.013,0.002
			C90.866,58.73,92.204,61.819,91.67,64.873z"/>
	</g>
	<g>
		<path fill="#6F8412" d="M85.267,114.39c0.477-0.051,0.935-0.149,1.387-0.275c0.034-0.658,0.031-1.33-0.042-2.01
			c-0.621-6.256-5.441-10.896-10.763-10.366c-0.479,0.049-0.938,0.149-1.389,0.274c-0.034,0.658-0.028,1.329,0.04,2.012
			C75.124,110.278,79.943,114.919,85.267,114.39z"/>
		<path fill="#849C18" d="M75.849,101.738c-0.47,0.049-0.923,0.147-1.367,0.27c3.532,4.779,8.53,9.755,12.151,12.112
			c0.009-0.001,0.016-0.003,0.021-0.006c0.034-0.658,0.031-1.33-0.042-2.01C85.99,105.849,81.17,101.209,75.849,101.738z"/>
	</g>
	<g>
		<g>
			<path fill="#6F8412" d="M49,118.667c-0.045,0-0.091-0.007-0.136-0.023c-0.216-0.075-0.332-0.309-0.258-0.526
				c0.031-0.089,0.785-2.202,4.263-3.274c0.221-0.068,0.453,0.056,0.521,0.275s-0.055,0.453-0.275,0.521
				c-3.042,0.938-3.695,2.676-3.721,2.75C49.333,118.56,49.172,118.667,49,118.667z"/>
		</g>
		<g>
			<path fill="#6F8412" d="M47.432,115.341c0.343-0.974,1.398-1.798,2.759-2.039c1.359-0.241,2.635,0.173,3.29,0.97
				c-0.34,0.971-1.398,1.798-2.759,2.036C49.362,116.551,48.087,116.136,47.432,115.341z"/>
			<path fill="#849C18" d="M47.432,115.341l6.049-1.069c-0.34,0.971-1.398,1.798-2.759,2.036
				C49.362,116.551,48.087,116.136,47.432,115.341z"/>
		</g>
		<g>
			<path fill="#6F8412" d="M46.918,110.347c0.925-0.453,2.259-0.301,3.397,0.48c1.137,0.783,1.756,1.973,1.664,2.999
				c-0.925,0.454-2.256,0.302-3.396-0.481C47.444,112.564,46.824,111.374,46.918,110.347z"/>
			<path fill="#849C18" d="M46.918,110.347l5.062,3.479c-0.925,0.454-2.256,0.302-3.396-0.481
				C47.444,112.564,46.824,111.374,46.918,110.347z"/>
		</g>
		<g>
			<path fill="#849C18" d="M50.566,120.304c1.03-0.062,2.113-0.851,2.718-2.09c0.606-1.243,0.559-2.583-0.026-3.431
				c-1.029,0.062-2.115,0.85-2.718,2.091C49.934,118.115,49.98,119.455,50.566,120.304z"/>
			<path fill="#6F8412" d="M50.566,120.304l2.691-5.521c-1.029,0.062-2.115,0.85-2.718,2.091
				C49.934,118.115,49.98,119.455,50.566,120.304z"/>
		</g>
		<g>
			<path fill="#6F8412" d="M55.605,120.603c0.436-0.934,0.258-2.263-0.548-3.385c-0.805-1.123-2.006-1.719-3.03-1.607
				c-0.436,0.936-0.256,2.265,0.547,3.386C53.379,120.121,54.58,120.717,55.605,120.603z"/>
			<path fill="#6F8412" d="M55.605,120.603l-3.578-4.992c-0.436,0.936-0.256,2.265,0.547,3.386
				C53.379,120.121,54.58,120.717,55.605,120.603z"/>
		</g>
		<g>
			<path fill="#D94128" d="M65.274,108.991c1.268-3.146-0.782-5.858-4.152-5.504c-3.882,0.373-7.606,1.025-10.977,1.779
				c-2.846,0.664-3.424,3.203-1.693,5.579c2.087,2.768,4.176,5.536,6.265,8.306c1.81,2.316,4.411,2.459,5.83-0.095
				C62.199,116.021,63.846,112.618,65.274,108.991z"/>
			<path fill="#F14B30" d="M50.146,105.267c3.37-0.754,7.095-1.406,10.977-1.779c1.252-0.123,2.332,0.165,3.123,0.748
				c-0.095,0.701-0.39,1.416-0.906,2.012c-2.147,2.483-4.361,4.897-6.626,7.227c-1.956,1.995-4.053,2.944-4.614,2.21
				c-1.216-1.613-2.431-3.227-3.646-4.838C46.722,108.47,47.3,105.931,50.146,105.267z"/>
		</g>
		<g>
			<g>
				<path fill="#D94128" d="M49.401,107.392c0.077-0.057,0.062-0.207-0.033-0.334l0,0c-0.095-0.125-0.234-0.179-0.312-0.12
					l-0.483,0.363c-0.077,0.059-0.064,0.209,0.032,0.332l0,0c0.095,0.13,0.234,0.184,0.312,0.125L49.401,107.392z"/>
				<path fill="#D94128" d="M51.204,109.783c0.078-0.06,0.063-0.209-0.031-0.334l0,0c-0.096-0.124-0.236-0.18-0.313-0.123
					l-0.484,0.365c-0.077,0.059-0.063,0.208,0.03,0.334l0,0c0.097,0.126,0.237,0.181,0.313,0.123L51.204,109.783z"/>
				<path fill="#D94128" d="M53.008,112.175c0.077-0.059,0.062-0.208-0.033-0.336l0,0c-0.095-0.126-0.235-0.181-0.313-0.121
					l-0.482,0.363c-0.076,0.061-0.063,0.209,0.032,0.336l0,0c0.095,0.125,0.236,0.18,0.313,0.121L53.008,112.175z"/>
				<path fill="#D94128" d="M54.811,114.565c0.077-0.059,0.063-0.208-0.031-0.334l0,0c-0.096-0.127-0.237-0.182-0.313-0.123
					l-0.484,0.364c-0.076,0.059-0.063,0.209,0.033,0.335l0,0c0.094,0.125,0.235,0.179,0.312,0.122L54.811,114.565z"/>
				<path fill="#F14B30" d="M56.612,116.957c0.078-0.061,0.063-0.209-0.03-0.336l0,0c-0.096-0.124-0.236-0.181-0.313-0.122
					l-0.483,0.364c-0.077,0.058-0.063,0.209,0.033,0.335l0,0c0.095,0.124,0.236,0.18,0.312,0.12L56.612,116.957z"/>
				<path fill="#F14B30" d="M58.417,119.347c0.077-0.059,0.063-0.21-0.031-0.334l0,0c-0.097-0.127-0.235-0.182-0.314-0.123
					l-0.481,0.365c-0.078,0.059-0.064,0.208,0.03,0.334l0,0c0.098,0.126,0.237,0.18,0.313,0.123L58.417,119.347z"/>
			</g>
			<g>
				<path fill="#DCD7A7" d="M49.25,107.193c0.077-0.059,0.063-0.209-0.031-0.334l0,0c-0.098-0.126-0.236-0.181-0.313-0.124
					l-0.483,0.364c-0.076,0.06-0.063,0.21,0.033,0.335l0,0c0.094,0.128,0.234,0.182,0.313,0.121L49.25,107.193z"/>
				<path fill="#DCD7A7" d="M51.056,109.583c0.073-0.057,0.061-0.208-0.034-0.334l0,0c-0.096-0.126-0.235-0.179-0.312-0.121
					l-0.485,0.363c-0.075,0.059-0.063,0.209,0.033,0.335l0,0c0.096,0.126,0.233,0.18,0.313,0.121L51.056,109.583z"/>
				<path fill="#DCD7A7" d="M52.856,111.975c0.076-0.057,0.063-0.208-0.032-0.335l0,0c-0.096-0.125-0.235-0.182-0.313-0.123
					l-0.482,0.366c-0.078,0.058-0.064,0.208,0.03,0.334l0,0c0.095,0.127,0.236,0.181,0.314,0.121L52.856,111.975z"/>
				<path fill="#DCD7A7" d="M54.659,114.365c0.077-0.059,0.063-0.207-0.031-0.334l0,0c-0.095-0.127-0.236-0.18-0.313-0.123
					l-0.482,0.366c-0.078,0.055-0.063,0.208,0.031,0.334l0,0c0.093,0.124,0.235,0.18,0.313,0.122L54.659,114.365z"/>
				<path fill="#DCD7A7" d="M56.463,116.757c0.076-0.06,0.063-0.21-0.033-0.335l0,0c-0.095-0.125-0.233-0.181-0.313-0.122
					l-0.482,0.363c-0.077,0.059-0.063,0.209,0.032,0.335l0,0c0.095,0.126,0.233,0.18,0.312,0.12L56.463,116.757z"/>
				<path fill="#DCD7A7" d="M58.266,119.147c0.077-0.058,0.063-0.209-0.032-0.336l0,0c-0.095-0.126-0.234-0.179-0.312-0.121
					l-0.482,0.364c-0.077,0.059-0.064,0.207,0.03,0.333l0,0c0.096,0.128,0.236,0.181,0.312,0.123L58.266,119.147z"/>
			</g>
			<g>
				<path fill="#D94128" d="M52.327,107.339c0.076-0.061,0.063-0.209-0.031-0.334l0,0c-0.096-0.128-0.236-0.182-0.313-0.123
					l-0.484,0.363c-0.077,0.059-0.064,0.209,0.031,0.335l0,0c0.097,0.127,0.235,0.181,0.313,0.122L52.327,107.339z"/>
				<path fill="#D94128" d="M54.13,109.728c0.079-0.057,0.064-0.208-0.031-0.332l0,0c-0.095-0.127-0.233-0.182-0.312-0.123
					l-0.482,0.363c-0.08,0.06-0.065,0.21,0.029,0.335l0,0c0.096,0.126,0.237,0.183,0.313,0.121L54.13,109.728z"/>
				<path fill="#D94128" d="M55.933,112.118c0.079-0.057,0.065-0.207-0.03-0.333l0,0c-0.096-0.126-0.234-0.181-0.313-0.123
					l-0.482,0.366c-0.078,0.058-0.063,0.207,0.03,0.333l0,0c0.096,0.126,0.236,0.181,0.314,0.122L55.933,112.118z"/>
				<path fill="#F14B30" d="M57.736,114.51c0.077-0.058,0.063-0.207-0.03-0.334l0,0c-0.097-0.124-0.237-0.18-0.313-0.123
					l-0.483,0.364c-0.076,0.06-0.063,0.21,0.031,0.335l0,0c0.096,0.127,0.236,0.182,0.314,0.122L57.736,114.51z"/>
				<path fill="#F14B30" d="M59.54,116.899c0.076-0.058,0.064-0.206-0.032-0.334l0,0c-0.096-0.123-0.236-0.179-0.313-0.121
					l-0.481,0.364c-0.077,0.059-0.063,0.209,0.031,0.335l0,0c0.095,0.126,0.235,0.181,0.313,0.121L59.54,116.899z"/>
			</g>
			<g>
				<path fill="#DCD7A7" d="M52.177,107.139c0.076-0.059,0.062-0.21-0.031-0.335l0,0c-0.098-0.127-0.237-0.18-0.313-0.123
					l-0.482,0.365c-0.078,0.058-0.065,0.207,0.03,0.334l0,0c0.094,0.126,0.236,0.182,0.313,0.121L52.177,107.139z"/>
				<path fill="#DCD7A7" d="M53.979,109.528c0.079-0.058,0.064-0.207-0.032-0.333l0,0c-0.094-0.127-0.235-0.181-0.31-0.123
					l-0.484,0.364c-0.078,0.06-0.063,0.209,0.03,0.336l0,0c0.096,0.126,0.235,0.18,0.313,0.121L53.979,109.528z"/>
				<path fill="#DCD7A7" d="M55.783,111.919c0.075-0.057,0.063-0.208-0.034-0.333l0,0c-0.093-0.126-0.235-0.182-0.311-0.124
					l-0.481,0.364c-0.078,0.061-0.064,0.208,0.029,0.335l0,0c0.096,0.128,0.234,0.182,0.313,0.124L55.783,111.919z"/>
				<path fill="#DCD7A7" d="M57.587,114.311c0.077-0.058,0.063-0.209-0.031-0.334l0,0c-0.096-0.127-0.236-0.18-0.314-0.124
					l-0.482,0.366c-0.077,0.058-0.063,0.208,0.031,0.334l0,0c0.096,0.126,0.235,0.183,0.313,0.122L57.587,114.311z"/>
				<path fill="#DCD7A7" d="M59.389,116.701c0.078-0.057,0.064-0.209-0.03-0.334l0,0c-0.096-0.127-0.235-0.181-0.313-0.123
					l-0.481,0.364c-0.077,0.06-0.065,0.209,0.029,0.335l0,0c0.097,0.126,0.236,0.181,0.313,0.122L59.389,116.701z"/>
			</g>
			<g>
				<path fill="#D94128" d="M55.253,107.283c0.076-0.06,0.063-0.208-0.031-0.335l0,0c-0.095-0.125-0.235-0.181-0.313-0.122
					l-0.483,0.364c-0.076,0.061-0.064,0.209,0.033,0.335l0,0c0.092,0.126,0.233,0.181,0.311,0.122L55.253,107.283z"/>
				<path fill="#D94128" d="M57.058,109.674c0.076-0.06,0.063-0.208-0.034-0.333l0,0c-0.094-0.127-0.234-0.182-0.311-0.125
					l-0.483,0.366c-0.078,0.06-0.064,0.206,0.031,0.334l0,0c0.096,0.126,0.236,0.179,0.314,0.122L57.058,109.674z"/>
				<path fill="#F14B30" d="M58.86,112.064c0.077-0.059,0.063-0.209-0.032-0.335l0,0c-0.096-0.126-0.234-0.181-0.313-0.121
					l-0.483,0.364c-0.077,0.058-0.063,0.208,0.033,0.335l0,0c0.094,0.127,0.232,0.181,0.311,0.122L58.86,112.064z"/>
				<path fill="#F14B30" d="M60.662,114.455c0.078-0.056,0.064-0.209-0.031-0.334l0,0c-0.096-0.128-0.235-0.18-0.312-0.123
					l-0.483,0.365c-0.076,0.057-0.063,0.209,0.031,0.335l0,0c0.095,0.125,0.234,0.18,0.312,0.121L60.662,114.455z"/>
			</g>
			<g>
				<path fill="#DCD7A7" d="M55.102,107.083c0.078-0.059,0.064-0.206-0.031-0.334l0,0c-0.094-0.127-0.236-0.18-0.313-0.121
					l-0.482,0.363c-0.077,0.058-0.064,0.208,0.032,0.333l0,0c0.093,0.128,0.234,0.182,0.313,0.124L55.102,107.083z"/>
				<path fill="#DCD7A7" d="M56.906,109.474c0.078-0.06,0.063-0.207-0.033-0.333l0,0c-0.093-0.127-0.235-0.183-0.312-0.122
					l-0.481,0.364c-0.08,0.059-0.065,0.208,0.029,0.333l0,0c0.095,0.126,0.235,0.181,0.314,0.124L56.906,109.474z"/>
				<path fill="#DCD7A7" d="M58.711,111.865c0.077-0.059,0.062-0.208-0.033-0.335l0,0c-0.095-0.126-0.235-0.182-0.314-0.122
					l-0.481,0.364c-0.076,0.059-0.065,0.209,0.031,0.335l0,0c0.097,0.124,0.236,0.181,0.313,0.12L58.711,111.865z"/>
				<path fill="#DCD7A7" d="M60.513,114.255c0.076-0.057,0.063-0.206-0.032-0.334l0,0c-0.094-0.125-0.234-0.181-0.313-0.123
					l-0.482,0.365c-0.077,0.06-0.063,0.209,0.03,0.334l0,0c0.098,0.127,0.236,0.182,0.314,0.123L60.513,114.255z"/>
			</g>
			<g>
				<path fill="#D94128" d="M58.18,107.229c0.077-0.059,0.063-0.209-0.032-0.334l0,0c-0.096-0.126-0.234-0.182-0.313-0.122
					l-0.481,0.363c-0.078,0.059-0.065,0.208,0.031,0.335l0,0c0.094,0.127,0.234,0.181,0.313,0.121L58.18,107.229z"/>
				<path fill="#F14B30" d="M59.983,109.618c0.075-0.059,0.063-0.206-0.032-0.332l0,0c-0.097-0.126-0.236-0.182-0.312-0.124
					l-0.483,0.364c-0.078,0.059-0.064,0.209,0.03,0.334l0,0c0.097,0.127,0.235,0.183,0.313,0.123L59.983,109.618z"/>
				<path fill="#F14B30" d="M61.786,112.009c0.077-0.058,0.063-0.209-0.031-0.334l0,0c-0.095-0.125-0.236-0.179-0.313-0.121
					l-0.48,0.362c-0.079,0.062-0.066,0.21,0.03,0.336l0,0c0.095,0.125,0.236,0.18,0.313,0.121L61.786,112.009z"/>
			</g>
			<g>
				<path fill="#DCD7A7" d="M58.029,107.028c0.077-0.059,0.063-0.209-0.032-0.334l0,0c-0.095-0.127-0.234-0.181-0.313-0.121
					l-0.482,0.363c-0.079,0.057-0.064,0.208,0.03,0.334l0,0c0.097,0.127,0.236,0.181,0.313,0.122L58.029,107.028z"/>
				<path fill="#DCD7A7" d="M59.832,109.419c0.077-0.058,0.063-0.207-0.03-0.335l0,0c-0.097-0.126-0.237-0.179-0.313-0.122
					l-0.484,0.364c-0.075,0.06-0.062,0.21,0.033,0.334l0,0c0.093,0.126,0.234,0.182,0.311,0.123L59.832,109.419z"/>
				<path fill="#DCD7A7" d="M61.637,111.81c0.077-0.059,0.062-0.208-0.032-0.332l0,0c-0.096-0.129-0.235-0.182-0.313-0.124
					l-0.484,0.362c-0.076,0.061-0.063,0.211,0.032,0.336l0,0c0.095,0.127,0.236,0.18,0.312,0.124L61.637,111.81z"/>
			</g>
			<g>
				<path fill="#D94128" d="M61.105,107.173c0.078-0.058,0.063-0.207-0.03-0.333l0,0c-0.096-0.128-0.234-0.182-0.314-0.122
					l-0.481,0.363c-0.077,0.059-0.064,0.209,0.031,0.334l0,0c0.095,0.127,0.235,0.182,0.313,0.123L61.105,107.173z"/>
				<path fill="#F14B30" d="M62.908,109.564c0.078-0.058,0.064-0.209-0.031-0.336l0,0c-0.095-0.125-0.234-0.18-0.313-0.121
					l-0.481,0.365c-0.078,0.06-0.065,0.207,0.03,0.333l0,0c0.096,0.127,0.235,0.18,0.313,0.121L62.908,109.564z"/>
			</g>
			<g>
				<path fill="#DCD7A7" d="M60.954,106.975c0.078-0.06,0.065-0.21-0.031-0.336l0,0c-0.095-0.126-0.234-0.181-0.312-0.122
					l-0.482,0.366c-0.077,0.058-0.064,0.207,0.029,0.333l0,0c0.097,0.126,0.236,0.18,0.313,0.121L60.954,106.975z"/>
				<path fill="#DCD7A7" d="M62.758,109.364c0.079-0.058,0.064-0.209-0.03-0.334l0,0c-0.096-0.127-0.236-0.182-0.314-0.122
					l-0.48,0.364c-0.079,0.057-0.064,0.208,0.03,0.335l0,0c0.095,0.125,0.235,0.177,0.312,0.121L62.758,109.364z"/>
			</g>
			<g>
				<path fill="#F14B30" d="M64.033,107.119c0.076-0.06,0.062-0.21-0.033-0.336l0,0c-0.095-0.124-0.234-0.18-0.313-0.12
					l-0.482,0.362c-0.077,0.059-0.063,0.209,0.031,0.335l0,0c0.097,0.127,0.235,0.181,0.313,0.121L64.033,107.119z"/>
			</g>
			<g>
				<path fill="#DCD7A7" d="M63.883,106.919c0.075-0.058,0.063-0.21-0.033-0.334l0,0c-0.094-0.126-0.234-0.182-0.31-0.123
					l-0.485,0.363c-0.078,0.06-0.063,0.211,0.031,0.336l0,0c0.094,0.125,0.236,0.182,0.313,0.121L63.883,106.919z"/>
			</g>
		</g>
	</g>
	<g>
		<g>
			<path fill="#849C18" d="M46.448,95.971c0,0-4.128-7.742-13.391-8.089l1.051,1.142c0,0-9.521-2.335-15.135,9.048
				c-3.983,8.089-2.811,12.766-2.811,12.766s1.129-3.043,6.669-0.188c3.027,1.559,9.866,1.136,13.723-3.168
				c3.859-4.303,4.849-5.307,4.849-5.307l-0.677,2.894c0,0,4.777-8.19,8.274-6.467c0,0-15.729-8.128-25.038,1.187
				C23.963,99.787,31.177,90.188,46.448,95.971z"/>
		</g>
		<g>
			<path fill="#6F8412" d="M49.001,98.601c0,0-15.729-8.128-25.038,1.187c0,0,4.627-6.143,14.303-5.632
				c-5.21-0.376-10.537,1.106-14.886,4.616c-3.804,3.069-6.24,7.197-7.291,11.644c0.037,0.271,0.074,0.422,0.074,0.422
				s1.129-3.043,6.669-0.188c3.027,1.559,9.866,1.136,13.723-3.168c3.859-4.303,4.849-5.307,4.849-5.307l-0.677,2.894
				C40.727,105.067,45.504,96.877,49.001,98.601z"/>
			<path fill="#6F8412" d="M38.992,94.205c0.106,0.009,0.215,0.02,0.324,0.031C39.207,94.223,39.099,94.216,38.992,94.205z"/>
		</g>
	</g>
	<g>
		<circle fill="#FBA70E" cx="60" cy="87.999" r="5.707"/>
		<circle fill="#E39709" cx="60.001" cy="87.999" r="3.424"/>
	</g>
</g>
</svg>
