<?xml version="1.0" encoding="utf-8"?>
<!-- Generator: Adobe Illustrator 16.0.0, SVG Export Plug-In . SVG Version: 6.00 Build 0)  -->
<!DOCTYPE svg PUBLIC "-//W3C//DTD SVG 1.1//EN" "http://www.w3.org/Graphics/SVG/1.1/DTD/svg11.dtd">
<svg version="1.1" id="Layer_1" xmlns="http://www.w3.org/2000/svg" xmlns:xlink="http://www.w3.org/1999/xlink" x="0px" y="0px"
	 width="130.543px" height="195.086px" viewBox="0 0 130.543 195.086" enable-background="new 0 0 130.543 195.086"
	 xml:space="preserve">
<g>
	<path fill="#FFFFFF" d="M1.458,18.072C-3.631,7.207,5.752,3.378,11.942,6.85c4.294,2.409,22.42,17.021,28.309,12.953
		c2.428-1.676,2.729-8.652,4.861-10.881c2.955-3.092,8.808-5.56,12.578-2.51c5.566-4.537,10.613-9.303,16.793-3.445
		c5.288,5.012,3.691,10.328,8.992,4.008c3.736-4.453,9.251-10.264,16.15-4.681c5.734,4.64,2.079,10.302,1.369,15.769
		c-0.976,7.494,2.744,12.3,0.11,20.137c-1.908,5.674-5.985,8.789-8.57,13.55c-6.229,11.468-0.65,26.929,0.158,38.5
		c0.587,8.408,0.036,15.914,2.589,23.568c1.454,4.363,1.107,4.803,4.095,8.706c4.191,5.477,3.829,6.354,3.196,12.536
		c-0.453,4.423-2.105,9.727,3.374,11.844c1.443,0.557,9.283,1.356,10.522,1.162c4.758-0.746,5.338-5.44,10.585-1.904
		c5.622,3.787,3.047,12.821,1.854,17.808c-1.199,5.012-3.712,16.662-8.854,19.196c-5.788,2.851-13.771-1.402-19.255,1.249
		c-2.174,1.05-4.789,4.904-7.151,6.109c-3.542,1.807-7.382,2.149-11.005,3.322c-8.423,2.727-12.302,0.105-21.631,0.122
		c-9.694,0.018-12.961,1.545-17.506-6.207c-4.037-6.89-7.639-4.132-13.868-7.826c-3.435-2.036-11.563-10.41-6.588-13.364
		c-0.743-4.802-4.529-9.985-2.027-14.451c2.214-3.947,9.371-5.574,13.494-6.743c0.088-3.109-3.983-4.967-5.658-7.554
		c-1.852-2.859-3.462-7.69-3.19-11.331c0.766-10.304,14.444-9.159,19.353-2.568c1.544-3.595-11.421-39.975-11.905-49.254
		c-0.229-4.387-0.829-8.147-1.563-11.536c-0.9-4.159-1.901-8.374-2.843-12.787c-1.267-5.93-6.939-15.775-11.459-19.717
		C12.09,26.129,4.804,25.217,1.458,18.072z"/>
	<g>
		<path fill="#231F20" d="M32.218,152.7c0.518-0.054,0.9-0.077,1.147-0.072c0.738-0.015,1.125,0.007,1.162,0.064
			c0.339-0.004,0.866,0.034,1.583,0.114l0.897,0.185c0.286,0.094,0.462,0.152,0.526,0.176c0.098,0.053,0.201,0.095,0.313,0.13
			c0.111,0.034,0.215,0.063,0.309,0.084c0.196,0.103,0.363,0.239,0.505,0.409c0.061-0.006,0.133,0.018,0.215,0.07
			c0.082,0.054,0.139,0.078,0.17,0.075c0.039,0.088,0.152,0.208,0.337,0.357c0.185,0.151,0.299,0.286,0.342,0.404
			c0.232,0.16,0.369,0.439,0.41,0.835c0.016,0.153,0.013,0.276-0.008,0.371c0.001,0.308-0.187,0.59-0.56,0.843
			c-0.028,0.034-0.068,0.085-0.123,0.151l-0.133,0.061c-0.03,0.003-0.093-0.006-0.188-0.027c-0.095-0.021-0.157-0.029-0.188-0.026
			c-0.372-0.023-0.652-0.056-0.842-0.098c-0.064-0.024-0.161-0.061-0.289-0.109c-0.128-0.048-0.223-0.069-0.283-0.063l-0.229,0.024
			c-0.092,0.009-0.237,0.017-0.437,0.021c-0.2,0.006-0.346,0.013-0.438,0.022c-0.061,0.006-0.15,0.031-0.27,0.074
			c-0.118,0.043-0.209,0.067-0.27,0.073l-0.188-0.026c-0.062,0.006-0.142,0.046-0.242,0.117c-0.101,0.072-0.194,0.129-0.282,0.168
			c-0.192,0.235-0.331,0.374-0.42,0.413c0.01,0.092-0.079,0.285-0.264,0.582c-0.049,0.128-0.132,0.214-0.25,0.257
			c0.013,0.122-0.019,0.349-0.092,0.679c-0.074,0.332-0.1,0.604-0.077,0.817c0.019,0.183,0.048,0.318,0.088,0.406
			c0.159,0.354,0.413,0.574,0.762,0.661c0.061-0.007,0.137-0.015,0.229-0.023c0.091-0.01,0.189-0.02,0.297-0.031
			c0.106-0.011,0.19-0.02,0.252-0.025c0.335-0.035,0.971,0.008,1.907,0.126c0.033,0.027,0.077,0.008,0.133-0.06
			c0.033,0.027,0.272,0.11,0.719,0.249l0.192,0.072c0.029-0.003,0.062,0.01,0.096,0.036c0.033,0.028,0.065,0.04,0.097,0.036
			c0.033,0.028,0.114,0.073,0.245,0.137c0.129,0.064,0.241,0.106,0.336,0.127l0.171,0.306c0.094,0.021,0.177,0.082,0.249,0.183
			s0.125,0.165,0.159,0.191c0.033,0.027,0.099,0.067,0.196,0.118c0.099,0.052,0.165,0.106,0.202,0.164
			c0.003,0.03,0.015,0.068,0.035,0.112c0.02,0.044,0.031,0.082,0.034,0.111c0.623,0.368,1.039,0.817,1.248,1.35
			c0.521,0.871,0.788,1.367,0.801,1.488c0.067,0.056,0.171,0.168,0.313,0.338c-0.024,0.064-0.031,0.142-0.022,0.233
			c0.01,0.092,0.016,0.152,0.02,0.183l0.101,0.082c0.033,0.027,0.068,0.07,0.105,0.128c0.003,0.03,0.01,0.092,0.019,0.183
			c0.01,0.092,0.032,0.166,0.069,0.224c0.086,0.238,0.131,0.372,0.135,0.402c0.009,0.092-0.043,0.189-0.155,0.293
			c0.033,0.028,0.054,0.072,0.061,0.133c0.003,0.03-0.006,0.101-0.024,0.21c-0.021,0.11-0.012,0.194,0.025,0.252
			c-0.059,0.037-0.103,0.126-0.134,0.268c-0.031,0.143-0.076,0.232-0.134,0.269c0.106,0.144,0.168,0.291,0.184,0.442
			c0.025,0.245-0.027,0.481-0.157,0.71c0.003,0.03-0.024,0.064-0.082,0.101c-0.059,0.037-0.101,0.072-0.128,0.105
			c-0.018,0.126-0.071,0.285-0.158,0.479c-0.089,0.194-0.142,0.354-0.158,0.479c-0.031,0.004-0.082,0.032-0.153,0.085
			c-0.072,0.054-0.138,0.084-0.199,0.09c-0.021,0.095-0.07,0.208-0.149,0.339c-0.079,0.132-0.131,0.229-0.154,0.294
			c-0.031,0.003-0.067,0.022-0.109,0.058c-0.043,0.035-0.078,0.069-0.105,0.103c-0.027,0.034-0.057,0.053-0.087,0.056l0.024,0.229
			c-0.028,0.034-0.054,0.083-0.078,0.146c-0.023,0.064-0.05,0.113-0.077,0.146c-0.027,0.034-0.057,0.052-0.086,0.056
			c-0.062,0.006-0.09,0.024-0.087,0.055l-0.036,0.097c-0.024,0.064-0.051,0.113-0.077,0.146c-0.062,0.006-0.106,0.026-0.133,0.06
			c-0.059,0.037-0.113,0.104-0.164,0.202c-0.052,0.098-0.098,0.172-0.139,0.222c-0.041,0.051-0.104,0.111-0.189,0.182
			c-0.085,0.071-0.173,0.11-0.265,0.12c-0.024,0.064-0.095,0.133-0.21,0.206c-0.115,0.074-0.188,0.128-0.214,0.161
			c-0.031,0.003-0.091,0.017-0.181,0.041c-0.09,0.025-0.166,0.041-0.227,0.047c-0.231,0.147-0.378,0.224-0.438,0.23
			c-0.062,0.006-0.125-0.018-0.192-0.073c-0.299,0.094-0.501,0.222-0.606,0.387c-0.062,0.006-0.13,0.021-0.204,0.044
			c-0.074,0.023-0.127,0.036-0.157,0.039c-0.059,0.037-0.163,0.063-0.315,0.079c-0.03,0.003-0.103,0.057-0.214,0.161
			c-0.113,0.104-0.2,0.159-0.261,0.165c-0.062,0.007-0.142-0.031-0.242-0.113c-0.119,0.043-0.438,0.091-0.956,0.145
			c-0.214,0.022-0.364,0.054-0.452,0.093c-0.122,0.013-0.2,0.006-0.233-0.021c-0.059,0.037-0.154,0.07-0.29,0.099
			c-0.136,0.03-0.231,0.078-0.285,0.146c-0.095-0.021-0.219-0.023-0.371-0.008c-0.091,0.009-0.228,0.031-0.409,0.065
			c-0.181,0.034-0.303,0.054-0.363,0.061c-0.091,0.009-0.239-0.006-0.443-0.047c-0.205-0.04-0.37-0.069-0.494-0.088l-0.138,0.015
			l-0.05-0.041c-0.031,0.003-0.062,0.006-0.092,0.01l-0.092,0.009c-0.091,0.01-0.231-0.006-0.421-0.049
			c-0.188-0.042-0.329-0.059-0.421-0.049c-0.558-0.035-0.886-0.077-0.983-0.129l-0.151-0.123c-0.217-0.009-0.5-0.21-0.848-0.605
			c-0.194-0.381-0.317-0.676-0.369-0.887l-0.062-0.594l-0.055-0.087l0.04-0.051c-0.003-0.03-0.006-0.061-0.009-0.091
			c-0.016-0.152-0.043-0.258-0.079-0.315c0.313-0.556,0.689-0.934,1.131-1.134c0.03-0.003,0.105-0.019,0.226-0.047
			c0.12-0.027,0.209-0.06,0.268-0.097l0.138-0.014c0.029-0.003,0.105-0.019,0.226-0.047c0.12-0.027,0.211-0.045,0.272-0.051
			c0.091-0.01,0.169-0.002,0.233,0.021c0.177-0.079,0.34-0.127,0.493-0.143c0.183-0.02,0.338-0.004,0.467,0.044
			c0.088-0.04,0.315-0.079,0.681-0.117l0.184-0.019c0.029-0.003,0.097-0.025,0.2-0.067c0.104-0.04,0.186-0.064,0.247-0.071
			l0.229-0.023c0.121-0.013,0.216-0.068,0.283-0.168c0.066-0.1,0.113-0.165,0.141-0.199c0.027-0.033,0.077-0.077,0.148-0.131
			s0.121-0.097,0.148-0.131c0.271-0.952,0.397-1.52,0.379-1.703c-0.016-0.151-0.057-0.24-0.12-0.265
			c0.004-0.555-0.336-1.166-1.021-1.835c-0.098-0.052-0.262-0.142-0.49-0.272c-0.229-0.131-0.393-0.222-0.49-0.273
			c-0.062,0.007-0.107,0.004-0.14-0.009c-0.032-0.012-0.078-0.015-0.14-0.009c-0.07-0.085-0.167-0.121-0.288-0.108
			c-0.074-0.115-0.17-0.151-0.288-0.108c-0.041-0.089-0.204-0.18-0.49-0.273c-0.397-0.267-0.708-0.435-0.931-0.505
			c-0.033-0.026-0.054-0.07-0.06-0.132c-0.095-0.021-0.216-0.077-0.364-0.171c-0.148-0.092-0.255-0.15-0.318-0.175l-0.01-0.091
			c-0.033-0.027-0.052-0.057-0.055-0.087c-0.102-0.082-0.268-0.195-0.498-0.342c-0.23-0.145-0.395-0.243-0.492-0.296
			c-0.077-0.146-0.354-0.44-0.831-0.884c-0.11-0.174-0.181-0.259-0.211-0.256l-0.019-0.183c-0.169-0.137-0.256-0.235-0.262-0.297
			l-0.015-0.137c-0.003-0.03-0.044-0.126-0.122-0.288c-0.078-0.161-0.12-0.271-0.127-0.333c-0.371-0.609-0.595-0.985-0.671-1.133
			c-0.081-0.176-0.125-0.311-0.134-0.401c-0.007-0.061,0.014-0.155,0.063-0.284c-0.04-0.088-0.069-0.224-0.088-0.406
			c-0.044-0.427-0.006-0.801,0.115-1.121c-0.016-0.152,0.027-0.326,0.131-0.521l-0.019-0.184c0.045-0.158,0.14-0.353,0.286-0.584
			c0.145-0.23,0.24-0.425,0.286-0.584c0.218-0.269,0.335-0.48,0.35-0.637c0.03-0.003,0.128-0.105,0.292-0.308
			c0.026-0.033,0.097-0.103,0.21-0.206c0.111-0.104,0.195-0.189,0.25-0.257l0.046-0.005c0.027-0.033,0.057-0.052,0.087-0.056
			c0.055-0.066,0.169-0.156,0.342-0.266c0.174-0.11,0.287-0.199,0.343-0.267c0.118-0.043,0.294-0.13,0.527-0.263
			c0.232-0.132,0.423-0.221,0.573-0.268c0.051-0.098,0.168-0.155,0.352-0.175l0.229-0.023c0.058-0.036,0.131-0.075,0.219-0.115
			c0.089-0.039,0.146-0.076,0.174-0.11l0.183-0.019l0.397-0.18C31.61,152.778,31.853,152.738,32.218,152.7z"/>
		<path fill="#231F20" d="M46.365,151.596c0.002,0.03,0.174,0.115,0.518,0.253c0.161,0.177,0.32,0.308,0.478,0.393
			c0.005,0.092,0.063,0.204,0.177,0.337c0.113,0.133,0.173,0.261,0.178,0.383c0.16,0.146,0.227,0.266,0.2,0.359
			c0.032,0.029,0.079,0.059,0.143,0.086l0.094,0.041c0.035,0.122,0.128,0.286,0.275,0.494s0.226,0.42,0.235,0.634
			c0.155,0.055,0.278,0.233,0.369,0.535c0.09,0.303,0.167,0.483,0.231,0.542c-0.109,0.312-0.162,0.483-0.161,0.513
			c0.001,0.031,0.048,0.044,0.14,0.04l0.094,0.042c0.033,0.061,0.067,0.143,0.104,0.248c0.035,0.106,0.069,0.189,0.104,0.249
			c0.032,0.06,0.096,0.087,0.188,0.083c-0.029,0.032-0.042,0.094-0.038,0.186c0.002,0.031,0.02,0.1,0.056,0.205
			c0.035,0.106,0.039,0.19,0.012,0.252c0.001,0.031-0.02,0.078-0.063,0.142c-0.043,0.063-0.063,0.125-0.061,0.187
			c-0.027,0.063-0.003,0.1,0.074,0.111c0.077,0.013,0.117,0.034,0.118,0.064l0.004,0.092c0.004,0.092,0.04,0.213,0.108,0.363
			s0.103,0.241,0.104,0.271l-0.042,0.095c0.104,0.271,0.157,0.423,0.158,0.452c0.004,0.092-0.037,0.187-0.125,0.282
			c0.063,0.028,0.095,0.072,0.098,0.134c0.006,0.122,0.068,0.335,0.189,0.636s0.186,0.528,0.192,0.681l0.004,0.092
			c-0.149,0.1-0.22,0.226-0.213,0.378l0.004,0.092c0.004,0.092,0.069,0.181,0.196,0.268c0.126,0.086,0.19,0.146,0.191,0.175
			l0.007,0.139c0.004,0.092,0.032,0.213,0.085,0.364s0.081,0.257,0.083,0.317c0.006,0.123-0.035,0.232-0.123,0.328
			c0.002,0.031,0.043,0.105,0.125,0.225s0.14,0.208,0.174,0.268c0.002,0.063-0.017,0.155-0.057,0.279
			c-0.041,0.125-0.06,0.218-0.057,0.278c0.001,0.031,0.019,0.076,0.052,0.136c0.072,0.242,0.142,0.424,0.209,0.543
			c-0.18,0.1-0.192,0.178-0.036,0.231c-0.089,0.065-0.139,0.16-0.148,0.282c-0.01,0.124-0.044,0.218-0.102,0.281
			c0.031,0.029,0.057,0.089,0.077,0.181c0.019,0.091,0.045,0.151,0.077,0.181c-0.028,0.063-0.04,0.14-0.036,0.231
			c-0.028,0.063-0.04,0.125-0.037,0.186c0.034,0.091,0.158,0.131,0.373,0.121l0.184-0.008c0.309,0.048,0.602,0.064,0.877,0.053
			l0.367-0.017c0.367-0.017,0.614,0.034,0.743,0.15c0.058-0.063,0.148-0.099,0.271-0.104c0.214-0.01,0.367-0.001,0.461,0.025
			c0.086-0.126,0.123-0.327,0.11-0.604l-0.014-0.321c-0.003-0.061-0.015-0.145-0.035-0.251s-0.03-0.175-0.032-0.206l-0.03-0.688
			c-0.032-0.028-0.005-0.092,0.083-0.188c-0.003-0.062-0.02-0.092-0.05-0.09c-0.032-0.029-0.049-0.06-0.05-0.09
			c0.021-0.216-0.023-0.513-0.133-0.892c-0.108-0.378-0.122-0.677-0.04-0.896c-0.069-0.181-0.105-0.301-0.108-0.363
			c-0.001-0.029,0.025-0.107,0.082-0.233c-0.002-0.03-0.012-0.068-0.028-0.113c-0.018-0.046-0.026-0.083-0.028-0.114l0.018-0.645
			l0.037-0.187c-0.001-0.029,0.04-0.14,0.123-0.327l-0.014-0.321c-0.003-0.062,0.024-0.123,0.083-0.188l-0.013-0.276
			c0.059-0.063,0.088-0.11,0.086-0.142l-0.002-0.046c-0.032-0.028-0.033-0.06-0.004-0.092c0.03-0.001,0.045-0.017,0.044-0.048
			c-0.005-0.092-0.01-0.207-0.016-0.345c-0.007-0.138,0.004-0.237,0.032-0.3c0.029-0.032,0.065-0.088,0.107-0.166
			c0.043-0.078,0.078-0.134,0.107-0.166c-0.014-0.306,0.008-0.507,0.065-0.602l-0.006-0.138c-0.003-0.061,0.008-0.161,0.032-0.3
			c0.023-0.14,0.035-0.239,0.032-0.301l-0.008-0.184l-0.031-0.688c-0.013-0.276,0.039-0.478,0.156-0.605
			c-0.032-0.029-0.078-0.043-0.14-0.04l-0.017-0.367c0.029-0.031,0.08-0.088,0.154-0.168c0.072-0.079,0.123-0.15,0.151-0.214
			c-0.003-0.061-0.036-0.098-0.098-0.11c-0.063-0.013-0.109-0.033-0.141-0.063l-0.048-0.044l-0.002-0.046
			c-0.003-0.062,0.017-0.14,0.059-0.233c0.041-0.094,0.062-0.155,0.061-0.187c-0.013-0.275-0.005-0.429,0.025-0.461
			c-0.005-0.092-0.039-0.167-0.103-0.226c0.047-0.309,0.069-0.51,0.065-0.602c-0.006-0.121-0.025-0.213-0.059-0.273
			c0.085-0.156,0.152-0.358,0.202-0.606c0.09-0.065,0.234-0.08,0.436-0.043s0.33,0.024,0.39-0.04
			c0.061-0.003,0.122,0.01,0.186,0.037c0.063,0.028,0.108,0.041,0.14,0.04c0.061-0.003,0.105-0.028,0.135-0.075
			c0.028-0.048,0.058-0.071,0.089-0.073c0.031,0.029,0.102,0.05,0.21,0.06c0.107,0.011,0.177,0.016,0.207,0.014
			c0.062-0.003,0.131,0.018,0.21,0.06c0.078,0.043,0.148,0.078,0.212,0.105l0.367-0.017c0.122-0.005,0.278,0.05,0.468,0.163
			c0.188,0.114,0.345,0.169,0.467,0.163l0.092-0.004c0.064,0.059,0.19,0.138,0.379,0.236s0.314,0.178,0.379,0.235
			c0.103,0.241,0.321,0.492,0.655,0.753c0.333,0.261,0.535,0.498,0.606,0.709c0.063,0.059,0.145,0.147,0.242,0.265
			c0.098,0.119,0.178,0.207,0.242,0.266c0.02,0.429-0.017,0.66-0.107,0.695c0.002,0.03,0.025,0.053,0.072,0.065
			c0.047,0.014,0.07,0.035,0.072,0.065l0.006,0.138c0.011,0.246,0.143,0.454,0.396,0.627c0.069,0.181,0.108,0.363,0.116,0.547
			l0.044,0.964c0.066,0.12,0.102,0.21,0.104,0.271l0.012,0.275c0.003,0.062,0.014,0.146,0.034,0.252s0.031,0.175,0.032,0.205
			c0.006,0.123-0.036,0.201-0.127,0.236l0.021,0.459c0.016,0.337-0.007,0.537-0.064,0.601c0.001,0.031,0.019,0.084,0.053,0.159
			c0.033,0.075,0.037,0.144,0.009,0.206c0.067,0.12,0.116,0.363,0.148,0.729c0.031,0.367,0.112,0.624,0.241,0.771
			c-0.027,0.063-0.038,0.171-0.031,0.323c0.003,0.062,0.015,0.161,0.036,0.298s0.034,0.236,0.037,0.297l-0.084,0.188l0.013,0.275
			c0.001,0.03-0.014,0.047-0.044,0.048c-0.029,0.032-0.043,0.063-0.042,0.094l0.009,0.184c-0.027,0.094-0.07,0.157-0.13,0.19
			c-0.028,0.063-0.011,0.108,0.052,0.136c0.03-0.002,0.047,0.014,0.049,0.043c-0.028,0.063-0.046,0.18-0.054,0.348
			c-0.009,0.17-0.011,0.285-0.008,0.346c0.002,0.031-0.012,0.085-0.038,0.163c-0.027,0.078-0.04,0.132-0.039,0.162
			c0.001,0.031,0.027,0.099,0.078,0.204s0.078,0.203,0.082,0.295l0.009,0.184l0.026,0.598c-0.058,0.094-0.088,0.265-0.092,0.51
			c-0.005,0.246-0.021,0.415-0.046,0.508c-0.121,0.037-0.211,0.102-0.268,0.196c-0.058,0.095-0.105,0.212-0.146,0.352
			c-0.039,0.14-0.089,0.242-0.146,0.306c0.066,0.12,0.104,0.257,0.11,0.409c0.005,0.123-0.022,0.201-0.082,0.234
			c-0.028,0.063-0.019,0.093,0.027,0.091c0.046-0.003,0.069,0.012,0.071,0.042c0.005,0.123-0.093,0.68-0.293,1.67
			c-0.03,0.032-0.089,0.081-0.178,0.146c0.003,0.063-0.01,0.139-0.036,0.232c-0.026,0.093-0.038,0.155-0.037,0.186l0.048,0.044
			c0.003,0.062,0.005,0.107,0.006,0.138c-0.058,0.095-0.081,0.227-0.074,0.395c0.008,0.168-0.002,0.299-0.028,0.393
			c0.002,0.03-0.012,0.092-0.037,0.186l0.004,0.092c0.001,0.03-0.027,0.078-0.086,0.142c-0.059,0.064-0.102,0.128-0.129,0.189
			c0.007,0.154-0.05,0.271-0.169,0.354s-0.178,0.139-0.176,0.169l-0.044,0.048c-0.028,0.063-0.057,0.11-0.086,0.142
			c-0.059,0.064-0.146,0.152-0.264,0.265c-0.118,0.113-0.191,0.186-0.221,0.217l-0.459,0.021c-0.092,0.004-0.253,0.011-0.482,0.021
			c-0.229,0.01-0.39,0.033-0.479,0.067l-0.46,0.021c-0.245,0.012-0.43-0.011-0.555-0.066c-0.063-0.027-0.158-0.093-0.285-0.194
			s-0.222-0.166-0.284-0.194l-0.044,0.048l-0.044,0.048l-0.563-0.251c-0.031,0.002-0.087-0.042-0.167-0.13
			c-0.081-0.089-0.167-0.146-0.261-0.173c-0.032-0.028-0.09-0.103-0.171-0.222c-0.082-0.119-0.155-0.208-0.219-0.267
			c-0.034-0.06-0.076-0.149-0.128-0.271c-0.051-0.12-0.094-0.21-0.127-0.271c-0.033-0.06-0.021-0.098,0.041-0.116
			c0.061-0.019,0.09-0.043,0.089-0.073c-0.187-0.053-0.285-0.201-0.297-0.447l-0.016-0.367c-0.002-0.03-0.021-0.091-0.055-0.182
			c-0.035-0.09-0.054-0.166-0.057-0.228c-0.033-0.06-0.052-0.136-0.056-0.228s-0.007-0.152-0.009-0.184l-0.002-0.046
			c-0.032-0.028-0.049-0.059-0.05-0.09l-0.006-0.138c-0.017-0.367-0.072-0.579-0.167-0.637c-0.27,0.136-0.589,0.211-0.956,0.228
			l-1.424,0.063c-0.367,0.017-0.702,0.078-1.004,0.184c0.002,0.031-0.019,0.093-0.061,0.187c-0.041,0.094-0.061,0.172-0.059,0.233
			l0.005,0.092c-0.122,0.036-0.199,0.186-0.233,0.447c-0.034,0.263-0.065,0.425-0.093,0.487l0.043,0.964
			c0.002,0.031-0.012,0.078-0.039,0.14c0.004,0.092,0.021,0.153,0.054,0.182c-0.089,0.066-0.169,0.169-0.239,0.311
			c-0.07,0.141-0.12,0.228-0.149,0.26s-0.074,0.064-0.134,0.098s-0.104,0.066-0.133,0.098c-0.031,0.002-0.073,0.081-0.128,0.236
			c-0.088,0.096-0.221,0.21-0.398,0.34c-0.085,0.158-0.202,0.285-0.351,0.384l-0.092,0.004c-0.063,0.003-0.13,0.037-0.203,0.102
			c-0.074,0.065-0.126,0.098-0.156,0.099l-0.275,0.013c-0.12,0.067-0.211,0.102-0.271,0.104c-0.092,0.004-0.255-0.027-0.487-0.094
			c-0.233-0.065-0.411-0.096-0.533-0.091l-0.229,0.011c-0.031,0.001-0.047-0.013-0.048-0.044l-0.095-0.042
			c-0.063-0.027-0.124-0.04-0.186-0.037c-0.062,0.002-0.107,0.005-0.138,0.006s-0.063-0.013-0.094-0.042
			c-0.033-0.06-0.081-0.104-0.144-0.132c-0.031,0.002-0.086-0.011-0.163-0.038c-0.078-0.027-0.133-0.04-0.163-0.039
			c-0.095-0.057-0.254-0.188-0.478-0.393l-0.144-0.132c-0.38-0.259-0.57-0.403-0.572-0.434c-0.504-0.284-0.764-0.625-0.782-1.023
			c-0.096-0.088-0.146-0.178-0.149-0.27l-0.017-0.367l-0.156-0.407l0.031-0.323c-0.005-0.092-0.057-0.228-0.156-0.407
			c-0.101-0.18-0.152-0.315-0.156-0.407l-0.007-0.138c-0.003-0.061,0-0.152,0.011-0.276c0.01-0.122,0.014-0.215,0.011-0.276
			l-0.007-0.138c-0.001-0.03,0.02-0.077,0.063-0.141c0.043-0.063,0.063-0.11,0.063-0.141l-0.004-0.093
			c-0.104-0.271-0.164-0.56-0.178-0.866l-0.041-0.918c-0.001-0.03-0.011-0.061-0.027-0.091c-0.017-0.029-0.025-0.06-0.026-0.091
			l-0.009-0.184c-0.008-0.184,0.001-0.307,0.029-0.369c-0.072-0.242-0.11-0.409-0.114-0.501c-0.011-0.245,0.025-0.461,0.108-0.649
			l-0.008-0.184c-0.021-0.459-0.003-0.736,0.055-0.83c-0.127-0.087-0.193-0.206-0.2-0.359c-0.002-0.03,0.003-0.1,0.014-0.208
			c0.01-0.107,0.015-0.191,0.012-0.253c-0.064-0.059-0.098-0.118-0.101-0.18c-0.005-0.122,0.011-0.276,0.049-0.463
			c0.037-0.186,0.055-0.309,0.052-0.37l-0.004-0.092c-0.001-0.03-0.035-0.098-0.102-0.202s-0.116-0.187-0.148-0.247l-0.009-0.184
			c-0.004-0.092,0.003-0.268,0.022-0.53c0.019-0.261,0.024-0.468,0.018-0.621l-0.008-0.184c-0.001-0.03-0.013-0.1-0.032-0.206
			c-0.021-0.106-0.031-0.189-0.034-0.252l-0.005-0.092c-0.001-0.029,0.012-0.076,0.04-0.14c0.027-0.063,0.041-0.124,0.038-0.186
			c-0.002-0.03-0.013-0.106-0.033-0.229c-0.021-0.121-0.033-0.213-0.036-0.274c-0.004-0.092,0.008-0.169,0.036-0.231
			c-0.002-0.03-0.025-0.061-0.073-0.089c-0.047-0.028-0.071-0.058-0.073-0.089c0.045-1.045,0.067-1.582,0.065-1.613
			c-0.002-0.061,0.023-0.154,0.08-0.279c0.056-0.125,0.081-0.234,0.077-0.326l-0.017-0.367c0.056-0.125,0.096-0.249,0.121-0.373
			c-0.033-0.06-0.035-0.091-0.004-0.092l0.044-0.049c-0.002-0.029-0.005-0.099-0.01-0.206s0.022-0.178,0.083-0.211
			c-0.004-0.092,0.093-0.648,0.293-1.67c0.028-0.031,0.057-0.086,0.084-0.164s0.07-0.134,0.131-0.167l-0.004-0.092
			c-0.014-0.306,0.294-0.627,0.923-0.962C44.641,151.812,45.295,151.705,46.365,151.596z"/>
		<path fill="#231F20" d="M72.584,151.496l0.505,0.013c1.013-0.036,1.899,0.017,2.663,0.157c0.03,0.001,0.068,0.018,0.113,0.049
			c0.046,0.032,0.083,0.049,0.114,0.049c0.121,0.034,0.266,0.068,0.434,0.103c0.168,0.035,0.297,0.085,0.388,0.148
			c-0.001,0.03,0.028,0.077,0.089,0.14c0.029,0.001,0.091,0.018,0.183,0.051c0.091,0.033,0.166,0.065,0.228,0.098
			c0.15,0.096,0.33,0.276,0.538,0.542c0.207,0.266,0.387,0.431,0.539,0.496l0.388,1.066c0.198,0.648,0.296,1.05,0.292,1.203
			c-0.009,0.367,0.016,0.583,0.076,0.646c-0.033,0.091-0.051,0.213-0.055,0.366c-0.009,0.367,0.092,0.616,0.304,0.743
			c-0.003,0.092-0.021,0.191-0.054,0.298s-0.051,0.19-0.052,0.251c-0.001,0.031,0.021,0.077,0.065,0.14
			c0.044,0.063,0.065,0.125,0.064,0.186c-0.001,0.031-0.019,0.092-0.051,0.183c-0.033,0.091-0.05,0.168-0.052,0.229l-0.002,0.092
			c-0.002,0.063,0.035,0.102,0.111,0.118c0.076,0.018,0.114,0.041,0.113,0.071c0,0.031-0.009,0.069-0.025,0.114
			c-0.017,0.046-0.025,0.085-0.025,0.114c-0.003,0.093,0.017,0.224,0.059,0.393c0.042,0.17,0.063,0.285,0.061,0.347l-0.002,0.092
			c-0.001,0.03-0.018,0.076-0.05,0.137s-0.049,0.121-0.05,0.183c-0.004,0.123-0.021,0.199-0.052,0.229
			c0.06,0.063,0.094,0.202,0.104,0.416c0.01,0.216,0.044,0.354,0.104,0.417c-0.033,0.091-0.051,0.213-0.055,0.366
			c-0.006,0.215,0.035,0.431,0.122,0.646c-0.033,0.092-0.053,0.26-0.059,0.505c-0.008,0.307-0.09,0.503-0.244,0.592
			c-0.001,0.03,0.005,0.076,0.02,0.138c0.014,0.063,0.02,0.108,0.02,0.139c-0.005,0.184-0.085,0.319-0.24,0.408l-0.012,0.459
			c-0.007,0.307-0.059,0.521-0.153,0.64c-0.001,0.031,0.027,0.124,0.085,0.278c-0.034,0.122-0.051,0.214-0.053,0.274
			c0.028,0.063,0.042,0.155,0.039,0.277s0.025,0.2,0.087,0.231c-0.093-0.002-0.186,0.058-0.28,0.178
			c-0.003,0.092,0.032,0.215,0.105,0.37c0.072,0.155,0.108,0.278,0.105,0.37c-0.001,0.031-0.025,0.092-0.073,0.183
			s-0.073,0.167-0.074,0.228l-0.003,0.092c-0.003,0.123,0.023,0.284,0.08,0.485s0.084,0.331,0.083,0.393
			c0.059,0.094,0.124,0.218,0.197,0.373c0.072,0.155,0.123,0.278,0.151,0.371c-0.009,0.367,0.166,0.748,0.524,1.14
			c0.357,0.393,0.551,0.619,0.58,0.681c0.063-0.028,0.17-0.042,0.323-0.038c0.275,0.007,0.473,0.073,0.593,0.198
			c-0.004,0.154,0.015,0.339,0.056,0.554c0.04,0.216,0.06,0.369,0.058,0.461c-0.002,0.062-0.036,0.183-0.102,0.365
			c-0.032,0.062-0.079,0.121-0.143,0.181c-0.063,0.061-0.094,0.105-0.095,0.136c-0.031,0.03-0.056,0.075-0.072,0.136
			c-0.018,0.062-0.025,0.107-0.026,0.138c-0.157,0.149-0.236,0.27-0.239,0.361c-0.406,0.328-0.642,0.552-0.706,0.673l-0.092-0.003
			c-0.123-0.003-0.285,0.047-0.486,0.149c-0.202,0.103-0.364,0.151-0.486,0.148c-0.062-0.001-0.108,0.014-0.14,0.043
			c-0.277,0.085-0.479,0.126-0.601,0.123c-0.184-0.005-0.306-0.038-0.365-0.101c-0.277,0.055-0.637,0-1.076-0.165
			c-0.44-0.164-0.72-0.354-0.837-0.572c-0.243-0.067-0.559-0.336-0.945-0.805c-0.27-0.252-0.419-0.424-0.447-0.517l-0.042-0.14
			c-0.029-0.092-0.059-0.154-0.088-0.186c-0.03-0.031-0.15-0.126-0.36-0.285c-0.188,0.18-0.329,0.269-0.421,0.266
			c-0.062-0.001-0.107-0.018-0.137-0.049l-0.008,0.321c-0.063,0.029-0.194,0.11-0.396,0.243c-0.203,0.133-0.365,0.198-0.487,0.195
			c-0.031-0.001-0.048,0.044-0.05,0.137l-0.003,0.138c-0.311,0.146-0.545,0.308-0.702,0.488c-0.153-0.004-0.346,0.045-0.578,0.146
			c-0.232,0.103-0.426,0.15-0.578,0.146l-0.138-0.003c-0.218,0.086-0.494,0.126-0.831,0.117l-0.275-0.007
			c-0.031-0.001-0.076-0.017-0.137-0.049l-0.046-0.002l-0.368-0.009l-0.41-0.148c-0.244-0.066-0.38-0.131-0.408-0.193
			c-0.03-0.031-0.062-0.032-0.093-0.002c-0.031,0.029-0.063,0.044-0.093,0.043l-0.179-0.188c-0.153-0.033-0.335-0.115-0.546-0.243
			c-0.212-0.127-0.333-0.191-0.363-0.192c-0.03-0.031-0.166-0.135-0.406-0.31c-0.241-0.174-0.406-0.323-0.495-0.448
			c-0.275-0.007-0.564-0.091-0.867-0.252l-0.315-0.237c-0.03-0.031-0.119-0.156-0.267-0.374c-0.061-0.063-0.157-0.157-0.292-0.283
			s-0.247-0.229-0.338-0.308c-0.09-0.078-0.148-0.18-0.176-0.303c-0.091-0.063-0.297-0.391-0.62-0.981
			c0.001-0.029-0.061-0.047-0.183-0.05c0.032-0.061,0.041-0.106,0.026-0.138c-0.015-0.03-0.021-0.062-0.021-0.092l-0.091-0.049
			l-0.091-0.048c-0.029-0.062-0.109-0.202-0.242-0.42s-0.196-0.419-0.192-0.603c0.003-0.092-0.012-0.168-0.04-0.23l-0.045-0.048
			c-0.03-0.03-0.044-0.062-0.044-0.093l0.004-0.138c0.005-0.214-0.051-0.453-0.166-0.717c-0.117-0.263-0.173-0.456-0.17-0.579
			c0.002-0.092,0.021-0.206,0.055-0.344c0.033-0.137,0.052-0.235,0.053-0.297c0.002-0.062-0.02-0.123-0.064-0.186
			c-0.044-0.063-0.065-0.124-0.064-0.186l-0.034-0.461c0.001-0.061,0.011-0.145,0.029-0.252c0.018-0.106,0.027-0.176,0.028-0.206
			c0.033-0.152,0.063-0.412,0.088-0.779c0.024-0.367,0.054-0.627,0.088-0.779l0.093-0.044c0.03,0.001,0.047-0.014,0.048-0.045
			c0.031-0.061,0.018-0.106-0.043-0.139s-0.091-0.063-0.09-0.095c0.032-0.091,0.109-0.418,0.231-0.982
			c0.121-0.564,0.246-0.982,0.376-1.255c0.061,0.001,0.107-0.013,0.139-0.043c0.031-0.029,0.055-0.067,0.072-0.113
			c0.016-0.046,0.04-0.083,0.071-0.113c0.002-0.061-0.013-0.107-0.043-0.139c-0.06-0.063-0.089-0.109-0.088-0.141
			c0.004-0.184,0.085-0.35,0.242-0.499c0.007-0.276,0.072-0.474,0.198-0.593l0.002-0.092c0.003-0.093,0.132-0.38,0.39-0.864
			c0.097-0.182,0.159-0.272,0.19-0.271c-0.031-0.001-0.045-0.047-0.043-0.139c0.125-0.089,0.261-0.293,0.406-0.611
			c0.146-0.317,0.296-0.536,0.453-0.655c0.26-0.606,0.593-1.073,1-1.4c0.002-0.092,0.035-0.198,0.1-0.319
			c0.031-0.029,0.078-0.082,0.142-0.157s0.111-0.143,0.144-0.204l0.229,0.006c0.094-0.059,0.272-0.169,0.537-0.331
			c0.264-0.162,0.474-0.271,0.629-0.33c0.031-0.06,0.079-0.128,0.143-0.203c0.063-0.074,0.11-0.127,0.142-0.157
			c0.063-0.028,0.108-0.027,0.138,0.003c0.155-0.057,0.356-0.175,0.606-0.353c0.063-0.028,0.155-0.088,0.28-0.177
			s0.233-0.147,0.326-0.176c0.063-0.029,0.154-0.058,0.278-0.085c0.123-0.027,0.216-0.056,0.278-0.086l0.324-0.13
			c0.557-0.17,0.85-0.27,0.882-0.3c0.029,0.031,0.091,0.048,0.183,0.051c0.122,0.003,0.246-0.055,0.372-0.175
			c0.03,0.001,0.092-0.005,0.184-0.019c0.093-0.013,0.169-0.003,0.229,0.028C72.061,151.545,72.278,151.489,72.584,151.496z
			 M70.808,158.257c-0.34,0.084-0.648,0.215-0.929,0.392c-0.001,0.03-0.025,0.068-0.072,0.113s-0.056,0.083-0.025,0.114
			c-0.371,0.113-0.604,0.246-0.7,0.396c-0.001,0.062-0.025,0.122-0.073,0.182c-0.047,0.061-0.071,0.106-0.072,0.137
			c-0.031,0.029-0.064,0.098-0.097,0.204c-0.033,0.107-0.082,0.189-0.145,0.249l0.042,0.186c-0.124,0.027-0.188,0.133-0.192,0.316
			c-0.01,0.43-0.049,0.751-0.115,0.963c0.061,0.032,0.089,0.11,0.086,0.232c-0.001,0.03-0.018,0.076-0.049,0.137
			c-0.032,0.061-0.065,0.129-0.098,0.204c-0.032,0.076-0.049,0.13-0.05,0.16c0.029,0.031,0.044,0.093,0.042,0.185
			c-0.002,0.062-0.027,0.153-0.076,0.274s-0.074,0.213-0.075,0.273c-0.003,0.123,0.07,0.231,0.222,0.327
			c-0.033,0.092,0.01,0.2,0.13,0.325c-0.063,0.061-0.104,0.167-0.123,0.319c-0.02,0.153-0.075,0.259-0.169,0.317
			c0.059,0.124,0.086,0.248,0.083,0.37c-0.001,0.062-0.035,0.183-0.101,0.365c-0.001,0.031,0.028,0.063,0.089,0.094
			c0.061,0.032,0.091,0.064,0.09,0.095c-0.032,0.061,0.012,0.138,0.133,0.233c0.029,0.031,0.06,0.063,0.089,0.094
			c0.03,0.031,0.045,0.055,0.045,0.07c-0.001,0.016,0.014,0.039,0.044,0.069c-0.001,0.031,0.028,0.07,0.089,0.117
			c0.061,0.048,0.09,0.103,0.088,0.163c-0.003,0.123-0.021,0.229-0.054,0.321c0.061,0.032,0.128,0.095,0.202,0.188
			s0.142,0.157,0.202,0.188l-0.016,0.644c0.061,0.032,0.182,0.09,0.363,0.17c0.183,0.081,0.318,0.153,0.409,0.217
			c0.028,0.063,0.226,0.159,0.59,0.291c0,0.03,0.029,0.046,0.091,0.048c0.03,0.001,0.061,0.018,0.091,0.048
			c0.092,0.033,0.213,0.052,0.367,0.056c0.182,0.066,0.288,0.099,0.319,0.1c0.029,0.001,0.076-0.014,0.139-0.043
			c0.062-0.028,0.123-0.043,0.185-0.041l0.004-0.138c0.374-0.267,0.626-0.536,0.755-0.81c0.031-0.029,0.078-0.059,0.141-0.088
			l0.093-0.044l-0.045-0.047l0.001-0.046c0.003-0.092,0.098-0.228,0.286-0.407l0.001-0.046c0.003-0.122,0.098-0.228,0.284-0.314
			c-0.061-0.063-0.074-0.109-0.043-0.139c0.063-0.06,0.111-0.15,0.145-0.272c0.002-0.062,0.019-0.122,0.051-0.183
			c0.001-0.03,0.032-0.076,0.096-0.136c0.063-0.06,0.109-0.119,0.142-0.181c0.257-0.453,0.386-0.726,0.389-0.818
			c0.066-0.243,0.131-0.379,0.193-0.408c-0.092-0.003-0.137-0.034-0.135-0.096c0.003-0.153,0.067-0.259,0.191-0.317
			c0.008-0.337,0.076-0.626,0.205-0.868c-0.092-0.002-0.137-0.033-0.136-0.096c0.032-0.091,0.036-0.236,0.011-0.437
			c-0.025-0.199-0.022-0.345,0.011-0.437c0.001-0.03,0.017-0.045,0.048-0.045c0.029,0.001,0.046-0.014,0.047-0.044
			c0-0.03,0.001-0.062,0.002-0.093l-0.045-0.047c0.001-0.03,0.049-0.091,0.143-0.18c0.001-0.03,0.002-0.076,0.003-0.139
			l-0.043-0.093l0.047-0.045c0.001-0.061,0.003-0.106,0.003-0.138l0.014-0.552c0.01-0.397-0.014-0.674-0.071-0.829l0.047-0.045
			l0.048-0.045c-0.122-0.033-0.211-0.173-0.266-0.42l-0.368-0.009l-0.134-0.142l-0.093-0.002c-0.122-0.003-0.267-0.053-0.433-0.148
			c-0.167-0.097-0.295-0.146-0.388-0.147l-0.185,0.041c-0.061-0.063-0.12-0.095-0.182-0.097l-0.184-0.004
			c-0.184-0.005-0.322,0.008-0.415,0.035l-0.179-0.188l-0.138-0.003c-0.154-0.004-0.321-0.031-0.504-0.081
			C71.038,158.286,70.9,158.26,70.808,158.257z"/>
		<path fill="#231F20" d="M87.152,150.09l0.178,0.064c0.396,0.039,0.623,0.078,0.682,0.114c0.03,0.003,0.043,0.035,0.037,0.096
			l0.041,0.05l0.183,0.019c0.274,0.027,0.421,0.104,0.439,0.229l0.183,0.019l0.119,0.196c0.152,0.016,0.254,0.071,0.307,0.169
			c0.032-0.026,0.063-0.023,0.091,0.01c0.058,0.036,0.103,0.056,0.133,0.06c0.033,0.28,0.195,0.512,0.485,0.694
			c-0.006,0.062-0.026,0.106-0.06,0.133l-0.005,0.046c0.226,0.207,0.33,0.402,0.312,0.585c0.088,0.04,0.146,0.153,0.174,0.341
			s0.055,0.299,0.082,0.332c-0.079,0.177-0.109,0.328-0.091,0.452c-0.003,0.031,0.041,0.051,0.133,0.06
			c-0.024,0.245-0.056,0.396-0.092,0.453c-0.006,0.062,0.021,0.095,0.082,0.101c0.055,0.067,0.097,0.118,0.124,0.15
			c-0.009,0.092,0.019,0.195,0.085,0.31c0.064,0.114,0.11,0.203,0.135,0.268l-0.027,0.274c0.049,0.128,0.071,0.207,0.068,0.237
			c-0.006,0.062-0.029,0.136-0.068,0.225c-0.04,0.088-0.061,0.147-0.064,0.178c-0.003,0.031,0.008,0.078,0.032,0.142l0.156,0.293
			c-0.053,0.211-0.098,0.515-0.138,0.91c-0.045,0.457-0.05,0.812-0.013,1.062c-0.074,0.115-0.127,0.188-0.16,0.215
			c-0.016,0.152-0.02,0.345-0.012,0.576s0.007,0.394-0.002,0.484c-0.013,0.122-0.038,0.228-0.078,0.315
			c0.024,0.064,0.026,0.204,0.005,0.417l-0.082,0.823c-0.019,0.183-0.076,0.3-0.174,0.352l-0.014,0.138
			c-0.006,0.062-0.032,0.166-0.077,0.315c-0.046,0.149-0.072,0.255-0.078,0.315l-0.018,0.184c0.127-0.049,0.286-0.18,0.478-0.392
			c0.189-0.212,0.334-0.344,0.432-0.396c0.003-0.03,0.022-0.067,0.058-0.11c0.034-0.042,0.056-0.094,0.062-0.155
			c0.293-0.155,0.531-0.393,0.718-0.714c0.131-0.079,0.416-0.312,0.855-0.7c0.438-0.387,0.817-0.641,1.139-0.764
			c0.563-0.405,1.074-0.586,1.531-0.54c0.487,0.049,0.711,0.287,0.668,0.713l-0.219,0.81l0.041,0.051
			c0.026,0.033,0.039,0.066,0.036,0.096c-0.009,0.092-0.098,0.206-0.265,0.344c-0.418,0.789-0.774,1.278-1.07,1.464
			c-0.003,0.03-0.023,0.082-0.062,0.155s-0.045,0.142-0.021,0.206c-0.47,0.385-0.794,0.706-0.974,0.965
			c-0.034,0.027-0.081,0.038-0.142,0.032c-0.024,0.244-0.13,0.372-0.315,0.384c-0.125,0.327-0.349,0.551-0.668,0.673
			c-0.055,0.241-0.233,0.492-0.537,0.755s-0.495,0.481-0.574,0.658c-0.118,0.266-0.164,0.415-0.137,0.448
			c0.089,0.04,0.204,0.113,0.348,0.22s0.259,0.181,0.348,0.22l-0.019,0.183c0.271,0.059,0.419,0.272,0.444,0.645
			c0.026,0.034,0.071,0.054,0.133,0.06c0.058,0.037,0.085,0.07,0.082,0.101c-0.009,0.092,0.042,0.197,0.153,0.315
			c0.11,0.119,0.162,0.225,0.153,0.315l0.183,0.019c-0.04,0.089-0.025,0.175,0.044,0.259c0.068,0.084,0.102,0.142,0.099,0.171
			c0.054,0.067,0.112,0.104,0.174,0.11c0.061,0.313,0.191,0.543,0.393,0.686l-0.004,0.046c0.026,0.033,0.039,0.065,0.036,0.096
			c0.115,0.074,0.239,0.225,0.371,0.453c0.131,0.229,0.254,0.38,0.37,0.452c0.021,0.095,0.064,0.199,0.131,0.313
			c0.064,0.115,0.11,0.204,0.135,0.268c0.027,0.034,0.069,0.069,0.128,0.105c0.058,0.036,0.101,0.071,0.128,0.104l-0.014,0.138
			c-0.006,0.062,0.018,0.133,0.071,0.215c0.053,0.082,0.078,0.139,0.075,0.169c-0.006,0.062,0.034,0.127,0.119,0.197
			c0.086,0.07,0.141,0.137,0.165,0.201c0.058,0.036,0.121,0.097,0.189,0.181s0.116,0.143,0.145,0.176
			c0.115,0.381,0.165,0.663,0.146,0.846c-0.013,0.122-0.037,0.212-0.073,0.27c-0.003,0.031,0.017,0.064,0.06,0.099
			c0.043,0.035,0.061,0.083,0.055,0.145c-0.046,0.149-0.154,0.308-0.324,0.476c-0.172,0.168-0.264,0.328-0.279,0.48
			c-0.101,0.082-0.288,0.187-0.563,0.313s-0.462,0.23-0.563,0.313l-0.091-0.01c-0.123-0.012-0.298,0.048-0.526,0.179
			c-0.064,0.024-0.404,0.037-1.02,0.037c-0.059-0.036-0.174-0.11-0.348-0.22s-0.297-0.191-0.368-0.244
			c-0.072-0.054-0.155-0.146-0.25-0.279c-0.095-0.132-0.149-0.276-0.164-0.433l-0.17-0.155c0.003-0.029-0.015-0.078-0.055-0.144
			s-0.057-0.129-0.05-0.19c-0.086-0.069-0.176-0.179-0.269-0.326c-0.093-0.148-0.153-0.238-0.181-0.272
			c-0.062-0.006-0.09-0.024-0.087-0.055c-0.055-0.067-0.106-0.164-0.155-0.293l-0.165-0.201c-0.024-0.063-0.061-0.16-0.109-0.288
			c-0.05-0.128-0.101-0.225-0.155-0.293c-0.028-0.032-0.086-0.069-0.174-0.109c-0.089-0.039-0.147-0.076-0.174-0.109
			c-0.031-0.003-0.066-0.037-0.105-0.104c-0.04-0.064-0.075-0.1-0.105-0.103l-0.617-0.755c-0.028-0.032-0.04-0.064-0.037-0.096
			c0.003-0.03-0.01-0.063-0.036-0.096l-0.041-0.051c-0.062-0.006-0.118-0.058-0.17-0.155s-0.123-0.15-0.215-0.16
			c-0.034,0.028-0.054,0.072-0.06,0.133c-0.006,0.062,0.027,0.188,0.101,0.38c-0.003,0.03-0.023,0.074-0.059,0.133
			c-0.004,0.03,0.014,0.094,0.05,0.189c0.037,0.096,0.052,0.175,0.046,0.235c-0.037,0.059-0.105,0.128-0.206,0.211
			c0.049,0.128,0.069,0.237,0.06,0.329c-0.024,0.244-0.19,0.52-0.498,0.828c-0.034,0.027-0.036,0.05-0.007,0.068
			c0.028,0.019,0.042,0.043,0.039,0.073c-0.064,0.024-0.136,0.125-0.215,0.302c-0.031-0.003-0.056,0.018-0.075,0.062
			c-0.021,0.044-0.061,0.063-0.122,0.058c-0.006,0.062-0.059,0.133-0.159,0.215s-0.156,0.169-0.165,0.261l-0.009,0.092
			c-0.092-0.01-0.175,0.044-0.247,0.16c-0.031-0.004-0.076-0.008-0.138-0.014c-0.03-0.004-0.047,0.011-0.05,0.041
			c-0.034,0.027-0.052,0.057-0.055,0.087s-0.022,0.06-0.055,0.087l-0.289,0.109c-0.152-0.015-0.303,0.032-0.452,0.14
			c-0.149,0.108-0.24,0.161-0.27,0.158l-0.046-0.005c-0.059-0.036-0.103-0.057-0.133-0.06c-0.366-0.036-0.563-0.071-0.59-0.104
			c-0.031-0.003-0.077,0-0.14,0.009c-0.063,0.01-0.109,0.013-0.14,0.01c-0.269-0.089-0.443-0.184-0.526-0.284
			c-0.905-0.183-1.374-0.275-1.403-0.278c-0.083-0.101-0.122-0.166-0.119-0.196c-0.028-0.033-0.059-0.036-0.092-0.01
			c-0.034,0.028-0.066,0.04-0.096,0.037l-0.302-0.215c-0.028-0.033-0.099-0.103-0.211-0.206c-0.113-0.104-0.197-0.188-0.252-0.256
			c-0.052-0.098-0.098-0.256-0.137-0.476c-0.04-0.219-0.086-0.378-0.138-0.476l0.01-0.092c0.006-0.061-0.003-0.139-0.023-0.233
			c-0.021-0.094-0.03-0.156-0.027-0.188c0.006-0.061,0.017-0.167,0.032-0.32c0.015-0.151,0.012-0.275-0.01-0.37
			c-0.027-0.649-0.01-1.294,0.055-1.935l0.06-0.595c0.078-0.177,0.128-0.356,0.146-0.539c-0.055-0.067-0.079-0.131-0.073-0.192
			c-0.019-0.125-0.008-0.309,0.032-0.551c0.039-0.242,0.063-0.41,0.073-0.501c0.003-0.03-0.02-0.04-0.066-0.03
			c-0.048,0.012-0.087,0.015-0.117,0.012c0.007-0.061,0.041-0.104,0.105-0.128c0.063-0.024,0.098-0.052,0.101-0.082
			c0.042-1.043,0.17-1.861,0.384-2.457c-0.037-0.249-0.049-0.436-0.037-0.558c0.01-0.092,0.041-0.257,0.096-0.498
			s0.074-0.439,0.06-0.595c0.033-0.027,0.058-0.117,0.073-0.271c0.006-0.061,0.005-0.207-0.003-0.438s0.009-0.392,0.049-0.48
			c0.003-0.03,0.006-0.061,0.009-0.092l0.055-0.087c0.009-0.091,0.009-0.245,0-0.462c-0.01-0.216-0.008-0.385,0.004-0.507
			l0.097-0.961c0.072-0.115,0.112-0.204,0.118-0.266c0.042-0.118,0.06-0.294,0.053-0.525c-0.008-0.232,0.008-0.392,0.048-0.48
			c0.003-0.03,0.055-0.087,0.155-0.169c-0.113-0.104-0.129-0.259-0.046-0.467c0.082-0.207,0.096-0.344,0.041-0.411
			c0.013-0.122,0.068-0.225,0.169-0.307l-0.109-0.288c0.082-0.207,0.153-0.539,0.215-0.995c0.061-0.456,0.113-0.758,0.16-0.908
			c0.146-0.539,0.221-0.824,0.224-0.855l0.014-0.137l0.164-0.261l0.027-0.274c0.024-0.244,0.058-0.425,0.101-0.544
			c0.039-0.089,0.067-0.209,0.082-0.361l0.087-0.869c0.003-0.03,0.044-0.135,0.124-0.312c0.078-0.177,0.123-0.311,0.132-0.402
			l-0.027-0.188c0.265-0.497,0.778-0.707,1.541-0.632c0.03,0.003,0.066,0.03,0.107,0.08c0.041,0.051,0.094,0.063,0.158,0.039
			C86.417,150.048,86.846,150.06,87.152,150.09z"/>
		<path fill="#231F20" d="M106.31,155.156l0.136,0.025c0.331,0.061,0.521,0.127,0.571,0.198c0.096-0.014,0.249-0.001,0.46,0.038
			c0.12,0.021,0.285,0.06,0.493,0.113c0.208,0.055,0.342,0.087,0.402,0.098c0.091,0.017,0.228,0.034,0.411,0.052
			c0.184,0.019,0.321,0.036,0.411,0.053c0.03,0.005,0.072,0.029,0.128,0.07c0.054,0.041,0.097,0.064,0.127,0.07
			c0.029,0.005,0.084,0.008,0.162,0.006c0.078-0.001,0.147,0.004,0.208,0.015c0.029,0.006,0.18,0.041,0.447,0.105
			c0.269,0.065,0.473,0.142,0.612,0.229c0.061,0.012,0.108,0.005,0.145-0.02l0.09,0.017c0.104,0.112,0.231,0.183,0.382,0.21
			l0.182,0.033c0.06,0.011,0.166,0.023,0.32,0.035c0.153,0.014,0.275,0.027,0.365,0.044l0.136,0.025
			c0.061,0.011,0.205,0.069,0.436,0.174c0.375,0.162,0.621,0.348,0.739,0.556c0.024,0.036,0.071,0.123,0.139,0.26
			c0.068,0.137,0.127,0.241,0.177,0.313c0.024,0.036,0.06,0.097,0.106,0.184c0.046,0.086,0.079,0.162,0.099,0.228l-0.055,0.551
			c-0.122,0.321-0.297,0.6-0.528,0.838c-0.189,0.184-0.365,0.292-0.526,0.324c-0.066,0.019-0.178,0.03-0.333,0.032
			c-0.157,0.002-0.268,0.014-0.333,0.032c-0.132,0.038-0.259,0.046-0.379,0.023c-0.061-0.011-0.146-0.058-0.254-0.14
			c-0.209,0.117-0.569,0.129-1.082,0.034l-0.903-0.166c-0.121-0.021-0.334-0.053-0.638-0.094c-0.304-0.039-0.546-0.077-0.728-0.11
			l-0.316-0.058c-0.115-0.052-0.266-0.08-0.452-0.083c-0.09-0.017-0.202-0.045-0.335-0.085s-0.229-0.065-0.289-0.077
			c-0.061-0.011-0.145-0.019-0.253-0.022s-0.192-0.013-0.253-0.023s-0.142-0.033-0.244-0.068c-0.104-0.034-0.17-0.055-0.199-0.06
			c-0.151-0.028-0.263-0.017-0.333,0.032c0.019,0.066,0.018,0.159-0.005,0.279c-0.197,0.058-0.314,0.099-0.35,0.123
			c0.024,0.035,0.022,0.129-0.005,0.279l-0.095,0.263c-0.012,0.061-0.053,0.115-0.124,0.164c-0.071,0.05-0.109,0.09-0.115,0.119
			c0.024,0.036,0.019,0.066-0.017,0.091l0.082,0.062c0.029,0.006,0.042,0.024,0.037,0.054c-0.004,0.187-0.051,0.567-0.14,1.143
			c-0.091,0.575-0.115,1.007-0.075,1.295c-0.135,0.225-0.223,0.364-0.264,0.419c0.019,0.066,0.059,0.104,0.119,0.115
			c0.061,0.011,0.088,0.032,0.082,0.062c-0.044,0.242-0.09,0.404-0.137,0.489c0.063,0.168,0.078,0.341,0.045,0.522
			c-0.039,0.211-0.153,0.408-0.343,0.591c-0.011,0.061-0.031,0.127-0.06,0.199c-0.03,0.073-0.047,0.125-0.052,0.154
			c-0.033,0.181-0.064,0.433-0.092,0.754c-0.029,0.322-0.054,0.544-0.075,0.664c-0.028,0.151-0.065,0.269-0.112,0.354
			c0.159,0.154,0.281,0.332,0.369,0.535c0.091,0.017,0.228,0.034,0.411,0.052c0.184,0.019,0.305,0.033,0.366,0.044
			c0.15,0.027,0.311,0.089,0.48,0.182c0.312-0.005,0.559,0.01,0.739,0.043l0.444,0.128c0.023,0.036,0.106,0.098,0.246,0.186
			c0.14,0.089,0.219,0.165,0.238,0.23l0.181,0.033c0.024,0.036,0.113,0.146,0.267,0.33s0.287,0.302,0.402,0.354
			c-0.017,0.091,0.026,0.192,0.131,0.305c-0.072,0.05-0.096,0.139-0.072,0.268c0.022,0.129,0.031,0.209,0.026,0.238l-0.017,0.091
			l-0.215,0.147c-0.011,0.061-0.065,0.144-0.162,0.25c-0.098,0.107-0.155,0.205-0.172,0.296c-0.035,0.024-0.099,0.028-0.188,0.012
			c-0.053,0.115-0.156,0.252-0.31,0.411l-0.657,0.019c-0.062-0.011-0.154-0.012-0.28-0.004c-0.071,0.049-0.137,0.067-0.197,0.057
			c-0.09-0.017-0.193-0.051-0.308-0.104c-0.115-0.052-0.218-0.087-0.309-0.104l-0.46-0.037l-0.136-0.025
			c-0.061-0.011-0.141-0.041-0.24-0.091c-0.101-0.049-0.166-0.077-0.195-0.083c-0.091-0.017-0.154-0.012-0.189,0.013
			c-0.106,0.073-0.183,0.231-0.227,0.472c-0.006,0.031-0.024,0.09-0.056,0.177c-0.032,0.088-0.054,0.162-0.064,0.223
			c-0.022,0.12-0.038,0.289-0.046,0.505c-0.01,0.217-0.021,0.37-0.038,0.461l-0.092,0.497c0.085,0.047,0.311,0.174,0.678,0.382
			c0.366,0.207,0.614,0.386,0.743,0.533c0.061,0.012,0.106,0.013,0.14,0.003c0.032-0.01,0.064-0.012,0.095-0.007
			c0.255,0.141,0.563,0.244,0.925,0.311c0.271,0.05,0.622,0.084,1.056,0.101c0.03,0.006,0.095,0.08,0.193,0.223
			c0.09,0.017,0.282,0.028,0.577,0.036c0.295,0.007,0.517,0.024,0.668,0.053c0.211,0.038,0.368,0.114,0.473,0.227
			c0.041-0.055,0.117-0.049,0.23,0.019c0.111,0.067,0.183,0.104,0.213,0.109l0.091,0.017c0.024,0.036,0.049,0.072,0.073,0.107
			l0.082,0.062l0.383,0.211c0.087,0.202,0.119,0.365,0.098,0.485c0.023,0.035,0.075,0.1,0.151,0.191s0.127,0.156,0.151,0.191
			c0.05,0.071,0.05,0.242-0.001,0.514c-0.044,0.241-0.104,0.401-0.182,0.48l-0.152,0.065c-0.267,0.263-0.48,0.41-0.642,0.443
			l-0.44,0.105l-0.226-0.041c-0.091-0.017-0.204,0.002-0.338,0.055c-0.134,0.054-0.231,0.074-0.292,0.063
			c-0.061-0.012-0.119-0.029-0.176-0.057c-0.059-0.025-0.103-0.042-0.132-0.047c-0.03-0.006-0.099,0.028-0.206,0.103
			c-0.09-0.017-0.228,0.005-0.409,0.064c-0.183,0.061-0.321,0.097-0.417,0.11c-0.062-0.011-0.198-0.029-0.411-0.052
			c-0.214-0.024-0.384-0.032-0.51-0.024c-0.253,0.016-0.499,0.002-0.74-0.042c-0.181-0.033-0.299-0.071-0.354-0.111l-0.144,0.02
			c-0.066,0.019-0.117,0.041-0.152,0.065c-0.055-0.041-0.143-0.072-0.263-0.095c-0.061-0.011-0.152-0.021-0.275-0.027
			c-0.124-0.007-0.216-0.016-0.275-0.027c-0.03-0.005-0.076-0.014-0.136-0.024l-0.037-0.054c-0.03-0.006-0.077-0.007-0.14-0.002
			c-0.063,0.003-0.11,0.003-0.14-0.003c-0.096,0.014-0.295-0.007-0.596-0.063l-0.633-0.116c-0.132,0.038-0.214,0.054-0.243,0.049
			c-0.096,0.013-0.234,0.004-0.415-0.029c-0.271-0.05-0.465-0.102-0.579-0.153l-0.251,0.094c-0.151-0.027-0.372-0.053-0.664-0.075
			c-0.292-0.023-0.514-0.048-0.664-0.075c-0.181-0.033-0.329-0.076-0.443-0.128c-0.05-0.072-0.201-0.178-0.456-0.317
			c-0.255-0.141-0.398-0.292-0.431-0.453c-0.061-0.012-0.135-0.072-0.224-0.182c-0.09-0.11-0.176-0.188-0.261-0.234
			c-0.027-0.192-0.161-0.396-0.401-0.611c-0.241-0.216-0.387-0.359-0.436-0.431c0.022-0.12-0.021-0.222-0.131-0.305
			c0.011-0.06,0.016-0.129,0.015-0.208c-0.002-0.077,0.001-0.132,0.007-0.162c-0.104-0.112-0.225-0.306-0.36-0.58
			c-0.02-0.065-0.009-0.126,0.033-0.181l0.008-0.046c-0.161-0.31-0.223-0.569-0.184-0.781l0.017-0.09
			c-0.063-0.167-0.086-0.468-0.068-0.9c0.018-0.434-0.021-0.736-0.113-0.909l0.017-0.091c0.012-0.06,0-0.171-0.032-0.333
			c-0.033-0.161-0.043-0.271-0.032-0.333l0.079-0.172c-0.083-0.233-0.099-0.485-0.049-0.757c0.034-0.181,0.064-0.393,0.094-0.637
			s0.057-0.52,0.082-0.826s0.055-0.551,0.088-0.732l0.199-1.085c0.022-0.119,0.069-0.291,0.141-0.511
			c0.071-0.221,0.116-0.376,0.133-0.467c0.011-0.06,0.022-0.167,0.035-0.32s0.027-0.275,0.044-0.366
			c0.027-0.15,0.064-0.269,0.111-0.354c-0.024-0.035-0.021-0.051,0.009-0.045l0.099-0.028c0.031-1.022,0.084-1.729,0.156-2.121
			c0.017-0.091,0.076-0.25,0.182-0.48l-0.045-0.009c-0.061-0.011-0.088-0.031-0.082-0.062c0.033-0.181,0.094-0.474,0.185-0.878
			c0.09-0.403,0.154-0.711,0.192-0.922c0.006-0.03,0.009-0.092,0.011-0.186c0.001-0.093,0.008-0.169,0.02-0.229
			c0.021-0.12,0.086-0.218,0.193-0.292l-0.037-0.054c-0.061-0.011-0.07-0.043-0.028-0.099c0.224-0.706,0.398-1.406,0.526-2.1
			c0.035-0.024,0.087-0.054,0.156-0.088c0.068-0.034,0.12-0.063,0.156-0.088c-0.02-0.066-0.047-0.086-0.082-0.063
			c-0.036,0.025-0.066,0.02-0.091-0.017c0.033-0.181,0.116-0.376,0.248-0.585c0.132-0.21,0.221-0.356,0.268-0.441
			c0.03,0.005,0.074-0.018,0.13-0.069c0.057-0.052,0.114-0.073,0.175-0.062c0.082-0.109,0.259-0.225,0.531-0.347
			c0.271-0.121,0.448-0.236,0.531-0.347c0.029,0.006,0.249-0.001,0.657-0.019c0.181,0.033,0.315-0.02,0.403-0.16
			c0.024,0.036,0.066,0.06,0.128,0.07c0.06,0.011,0.163-0.001,0.31-0.036c0.147-0.035,0.235-0.051,0.266-0.045
			c0.096-0.013,0.234-0.004,0.415,0.029s0.356,0.097,0.526,0.19c0.06,0.011,0.146,0.011,0.257,0c0.11-0.01,0.213-0.015,0.306-0.014
			c0.094,0.002,0.186,0.011,0.275,0.027c0.03,0.006,0.072,0.029,0.128,0.07l0.09,0.017c0.061,0.011,0.153,0.013,0.28,0.005
			c0.125-0.008,0.234-0.004,0.324,0.013l0.173,0.078c0.12,0.022,0.281,0.036,0.482,0.042c0.201,0.007,0.348,0.018,0.438,0.034
			l0.136,0.024L106.31,155.156z"/>
	</g>
	<g>
		<path fill="#7CCDCD" d="M19.894,91.875c-0.582,2.759,1.206,7.282,1.874,8.833c1.543,3.573,3.458,7.163,7.854,9.666
			c0.246-1.741-1.959-2.838-2.712-4.512c-0.854-1.898-0.98-3.859-1.781-5.754c-1.442-3.41-3.326-6.664-3.685-10.288
			C20.852,89.878,20.077,91.009,19.894,91.875z"/>
		<path fill="#5AB1AF" d="M25.358,81.032c-1.768,4.771,1.793,13.814,3.076,16.784c2.763,6.397,6.19,12.823,14.06,17.303
			c0.438-3.118-3.508-5.08-4.854-8.075c-1.528-3.4-1.752-6.908-3.188-10.3c-2.582-6.104-5.955-11.929-6.597-18.415
			C26.793,78.433,25.764,79.938,25.358,81.032z"/>
	</g>
	<g>
		<path fill="#5AB1AF" d="M105.481,70.595c3.001,4.438,1.314,14.428,0.654,17.68c-1.402,6.879-3.457,13.887-10.353,19.594
			c-1.098-3.085,2.421-5.66,3.129-8.889c0.805-3.663,0.285-7.243,0.998-10.885c1.28-6.557,3.409-12.945,2.677-19.597
			C103.665,68.442,104.862,69.681,105.481,70.595z"/>
		<path fill="#7CCDCD" d="M114.924,81.03c1.082,2.631-1.199,8.197-1.998,9.996c-1.684,3.782-3.742,7.6-8.257,10.432
			c-0.183-1.788,2.075-3.044,2.894-4.816c0.928-2.014,1.127-4.048,2.004-6.053c1.572-3.607,3.59-7.073,4.083-10.846
			C114.246,79.772,114.708,80.505,114.924,81.03z"/>
	</g>
	<path fill="#7CCDCD" d="M57.092,178.033c0,0,22.387-3.158,29.473-1.045c11.312,3.378,14.294,6.389,1.008,9.268
		c8.082,5.045-28.57,2.222-31.637-0.61C48.567,178.837,57.092,178.033,57.092,178.033z"/>
	<g>
		<g>
			<path fill="#7CCDCD" d="M51.416,119.41c-3.13-10.483-4.257-21.45-7.401-31.538c-3.343-10.718-9.902-17.937-0.289-23.661
				c5.286-3.148,39.216-10.419,40.839-3.521c3.202,13.611,8.297,84.211,5.269,89.75c-2.758,5.044-23.603,9.24-27.433,4.938
				c-1.19-1.339-1.155-1.397-1.42-3.438L51.416,119.41z"/>
			<path fill="#231F20" d="M69.212,157.913c-3.688,0-6.169-0.685-7.372-2.037c-1.255-1.411-1.324-1.67-1.573-3.604l-0.023-0.178
				l-9.548-32.472c-1.54-5.157-2.608-10.482-3.641-15.632c-1.063-5.298-2.162-10.777-3.757-15.894
				c-0.761-2.438-1.677-4.663-2.564-6.814c-2.869-6.964-5.347-12.978,2.607-17.715c3.914-2.331,21.832-6.503,32.569-6.503
				c5.767,0,8.836,1.13,9.383,3.455c3.11,13.221,8.463,84.307,5.197,90.282C88.336,154.74,77.088,157.913,69.212,157.913z
				 M75.911,58.563c-11.189,0-28.413,4.274-31.802,6.292c-6.842,4.074-4.911,8.76-1.987,15.854c0.899,2.181,1.828,4.437,2.608,6.939
				c1.619,5.192,2.726,10.709,3.796,16.045c1.026,5.117,2.087,10.407,3.608,15.501l9.589,32.646l0.031,0.238
				c0.217,1.687,0.217,1.687,1.206,2.799c0.88,0.989,3.101,1.534,6.251,1.534c7.864,0,18.312-3.314,19.962-6.333
				c2.813-5.145-1.938-74.755-5.34-89.218C83.485,59.379,80.671,58.563,75.911,58.563z"/>
		</g>
		<path fill="#F6921E" d="M43.263,70.832c0,0,34.375-1.327,38.807-8.547c4.431-7.221-32.593,1.197-38.196,4.741
			C38.666,70.319,41.523,70.916,43.263,70.832z"/>
		<path fill="#F6921E" d="M62.526,30.865c0,0-13.643-6.648-13.044-15.753c0.602-9.105,4.331-6.812,10.255-1.944
			c5.925,4.869,2.86,6.494,6.456,9.297c3.595,2.806,4.401,6.422,2.685,10.025c-1.717,3.605-3.68,4.509-4.082,2.014
			C64.394,32.008,62.526,30.865,62.526,30.865z"/>
		<g>
			<path fill="#C5E7E9" d="M48.583,92.313c2.614,7.439,14.599,71.157,19.452,59.602c0.549-1.308-3.506-24.574-6.357-36.595
				c-2.868-12.093-4.134-29.839-12.507-26.88C48.113,89.554,48.583,92.313,48.583,92.313z"/>
			<path fill="#C5E7E9" d="M77.711,88.425c0.148,7.774,7.993,70.568,2.08,60.493c-0.666-1.14-3.762-24.529-4.879-36.784
				c-0.871-9.563-5.111-21.516-3.28-26.246c0.528-1.369,3.956-1.783,5.313-1.565C77.892,85.157,77.711,88.425,77.711,88.425z"/>
			<path fill="#C5E7E9" d="M84.459,85.88c0.053,7.773,3.921,73.538,0.59,63.032c-0.379-1.188-2.051-24.771-2.64-37.085
				c-0.459-9.613-2.581-23.885-1.52-28.465c0.31-1.326,2.056-1.51,2.83-1.186C84.256,83.083,84.459,85.88,84.459,85.88z"/>
			<path fill="#C5E7E9" d="M59.209,88.503c-0.16,3.408,8.547,44.873,11.735,57.883c2.438,9.933,5.163,7.201,4-12.005
				c-0.68-11.217-3.891-36.877-7.148-46.918C66.805,84.411,59.217,88.352,59.209,88.503z"/>
		</g>
		<path fill="#C5E7E9" d="M42.063,74.252c0,0,33.43-0.744,40.596-8.756c3.566-0.066,3.02,8.738,1.183,10.708
			c-6.567,7.026-33.028,9.703-38.013,5.922C40.846,78.347,42.063,74.252,42.063,74.252z"/>
		<path fill="#FAAF40" d="M54.702,20.549c0,0-4.391-1.147-2.16-3.875c2.229-2.729,0.037-2.582,0.535-3.578
			c1.545-3.085,3.376-0.782,3.622,0.017c0.249,0.798,1.635,1.044,1.957,2.555c0.324,1.509-0.495,2.603,0.254,5.038
			c0.751,2.434,5.063,2.326,2.493,4.007s-3.307,1.015-4.217-0.563C56.278,22.568,54.702,20.549,54.702,20.549z"/>
		<g>
			<path fill="#FAAF40" d="M52.567,78.485c0,0-3.083,4.439,1.146,3.961c4.232-0.479,10.042-3.637,7.705-5.572
				C59.082,74.935,52.567,78.485,52.567,78.485z"/>
			<path fill="#FAAF40" d="M72.372,78.836c0,0-0.871,6.163,2.353,5.423c3.223-0.739,3.525-3.469,1.61-5.409
				C74.266,76.753,72.372,78.836,72.372,78.836z"/>
			<path fill="#FAAF40" d="M62.345,87.385c0,0-3.104,3.722,0.163,4.331C65.78,92.324,63.693,85.966,62.345,87.385z"/>
		</g>
		<path fill="#7CCDCD" d="M67.17,5.413c-3.203,1.001-0.766,6.778-0.018,6.748c2.362,0.106,5.959,0.939,6.118-3.657
			C73.392,5.081,69.344,4.633,67.17,5.413z"/>
		<g>
			<path fill="#5AB1AF" d="M71.434,19.564c-4.197-5.052-13.238,4.074-6.056,7.498C71.711,30.08,75.279,22.477,71.434,19.564z"/>
			<path fill="#231F20" d="M68.198,28.508C68.198,28.508,68.198,28.508,68.198,28.508c-1.015,0-2.072-0.258-3.142-0.768
				c-2.406-1.147-3.497-3.081-2.994-5.306c0.616-2.723,3.561-5.111,6.303-5.111c1.4,0,2.64,0.586,3.591,1.696
				c1.641,1.29,2.236,3.489,1.517,5.628C72.685,26.993,70.614,28.508,68.198,28.508z M68.365,18.823
				c-2.066,0-4.374,1.879-4.84,3.942c-0.345,1.525,0.408,2.777,2.177,3.62c0.867,0.413,1.707,0.623,2.496,0.623
				c2.141,0,3.414-1.528,3.854-2.837c0.414-1.232,0.351-2.933-1.069-4.008l-0.124-0.118C70.185,19.234,69.346,18.823,68.365,18.823z
				"/>
		</g>
		<path fill="#F6921E" d="M43.148,68.035c0,0-15.077-10.641,0.501-21.563c15.575-10.924,19.305-4.799,24.75-8.92
			c5.447-4.121,0.631-2.746,5.625-0.992c4.998,1.754-7.996,26.078-11.076,27.225S43.148,68.035,43.148,68.035z"/>
		<g>
			<g>
				<path fill="#BE1E2D" d="M61.509,52.355c-5.191,1.04-12.537-1.977-16.26-5.652c-1.727-1.702-3.231-4.686-3.3-7.191
					c-0.096-3.58,3.273-3.193,5.836-5.387c1.955-1.676,2.202-5.588,5.253-5.553c2.975,0.037,6.101,2.883,7.509,5.261
					C62.704,37.466,66.257,50.252,61.509,52.355z"/>
				<path fill="#231F20" d="M59.288,53.313c-4.874,0-10.999-2.556-14.565-6.077c-2.004-1.976-3.453-5.144-3.522-7.705
					c-0.076-2.834,1.739-3.663,3.494-4.465c0.882-0.403,1.795-0.82,2.604-1.512c0.617-0.529,1.059-1.368,1.527-2.256
					c0.859-1.629,1.832-3.477,4.173-3.477c3.606,0.044,6.869,3.391,8.195,5.628c1.854,3.125,4.456,12.067,2.972,16.715
					c-0.453,1.417-1.244,2.384-2.352,2.875l-0.156,0.05C60.92,53.238,60.123,53.313,59.288,53.313z M53.029,29.322
					c-1.397,0-2.002,1.017-2.876,2.676c-0.513,0.974-1.043,1.981-1.878,2.696c-0.97,0.83-2.025,1.312-2.957,1.738
					c-1.801,0.822-2.665,1.296-2.618,3.06c0.06,2.17,1.354,4.978,3.077,6.677c3.259,3.218,9.067,5.645,13.512,5.645
					c0.704,0,1.373-0.06,1.989-0.177c0.671-0.325,1.148-0.956,1.458-1.927c1.308-4.096-1.056-12.5-2.833-15.494
					C58.492,31.834,55.536,29.354,53.029,29.322L53.029,29.322z"/>
			</g>
			<g>
				<path fill="#5AB1AF" d="M47.404,34.207c-2.177,1.914-10.121-1.961-11.313-4.424c3.076-1.071,4.918,0.623,7.794,0.625
					c-0.109-0.408-1.607-2.02-1.726-2.403c1.479-0.058,3.971,2.419,5.229,3.058c0.394-1.5,0.258-4.479,2.539-4.345
					C51.702,30.555,47.404,34.207,47.404,34.207z"/>
				<path fill="#231F20" d="M45.658,35.471c-3.359,0-9.103-3.006-10.243-5.361l-0.367-0.758l0.795-0.277
					c0.767-0.267,1.513-0.396,2.281-0.396c1.068,0,2.017,0.253,2.935,0.498c0.415,0.111,0.819,0.219,1.231,0.304
					c-0.542-0.678-0.763-0.978-0.848-1.254l-0.287-0.932l0.975-0.038c0.001,0,0.002,0,0.003,0c1.306,0,2.784,1.113,4.088,2.095
					c0.219,0.165,0.433,0.326,0.635,0.473c0.25-1.594,0.642-4.017,3.115-3.854l0.448,0.026l0.188,0.408
					c1.992,4.305-2.524,8.211-2.717,8.375C47.371,35.235,46.617,35.471,45.658,35.471z M37.354,30.236
					c1.639,1.669,5.762,3.734,8.304,3.734c0.575,0,1.007-0.113,1.25-0.327c0.045-0.039,3.483-3.026,2.522-6.129
					c-0.618,0.205-0.856,1.023-1.1,2.579c-0.066,0.425-0.131,0.826-0.218,1.159l-0.236,0.899l-0.829-0.421
					c-0.485-0.247-1.062-0.681-1.729-1.183c-0.256-0.192-0.535-0.403-0.822-0.61c0.053,0.1,0.089,0.189,0.113,0.275l0.253,0.945
					l-0.978,0c-1.216-0.001-2.23-0.271-3.211-0.533C39.555,30.327,38.477,30.066,37.354,30.236z"/>
			</g>
			<g>
				<path fill="#FFFFFF" d="M52.03,39.045c-1.299-0.459-1.77-1.613-1.781-2.912C50.249,36.133,53.899,37.994,52.03,39.045z"/>
				<path fill="#FFFFFF" d="M51.191,40.52c-0.293,1.053,0.7,2.787,1.693,1.633C53.243,41.293,51.792,40.446,51.191,40.52z"/>
				<path fill="#FFFFFF" d="M45.953,39.754c0.394,0.488,2.639,1.873,1.71,2.717C46.564,43.476,45.953,39.754,45.953,39.754z"/>
				<path fill="#FFFFFF" d="M51.667,44.25c0.454,0.305,3.873,1.898,2.515,3.01C52.777,48.414,51.667,44.25,51.667,44.25z"/>
				<path fill="#FFFFFF" d="M55.348,38.055c0.412-0.545,3.85-0.219,2.261,1.428C56.405,39.83,55.348,38.055,55.348,38.055z"/>
			</g>
		</g>
		<path fill="#FAAF40" d="M92.659,17.908c-0.944-1.933,2.601-1.92-1.34-7.601c-1.084-1.558,1.41-4.526,2.798-4.851
			c1.39-0.326,7.779,0.492,5.077,8.283C96.505,21.496,93.787,20.221,92.659,17.908z"/>
		<g>
			<path fill="#5AB1AF" d="M9.499,13.084l17.485,10.711l1.087,0.965l2.12-0.529l0.009,2.479l2.935-0.762L31.95,28.82l2.928,0.063
				l-1.568,1.67l0.785,0.838l16.512,35.947c0,0-3.563,2.128-5.148,0.908C44.09,67.192,33.5,43.971,30.64,37.665
				c-0.451-0.995-0.71-1.569-0.71-1.569l0.119-1.514l-2.88,0.689l0.636-3.748l-3.129,1.08l0.351-3.519l-1.882,1.288l-0.184-2.882
				L5.819,16.801C5.819,16.801,4.535,10.045,9.499,13.084z"/>
			<path fill="#231F20" d="M46.75,69.374c-0.702,0-1.291-0.179-1.75-0.533c-1.33-1.025-8.915-17.351-15.043-30.866l-0.71-1.571
				c-0.052-0.115-0.074-0.241-0.064-0.367l0.038-0.485l-1.876,0.449c-0.247,0.057-0.503-0.009-0.687-0.182
				c-0.184-0.172-0.27-0.425-0.227-0.673l0.424-2.501l-1.933,0.667c-0.242,0.082-0.508,0.038-0.709-0.121
				c-0.201-0.159-0.307-0.408-0.281-0.663l0.19-1.915l-0.552,0.378c-0.223,0.151-0.511,0.172-0.752,0.055
				c-0.242-0.118-0.403-0.357-0.42-0.626l-0.159-2.497L5.422,17.437c-0.178-0.111-0.301-0.291-0.34-0.496
				c-0.062-0.326-0.571-3.222,0.59-4.624c0.86-1.037,2.309-1.042,4.218,0.127l17.485,10.711c0.038,0.023,0.073,0.049,0.106,0.079
				l0.791,0.703l1.736-0.434c0.225-0.055,0.461-0.005,0.642,0.136c0.182,0.142,0.289,0.359,0.29,0.589l0.005,1.512l2-0.519
				c0.277-0.07,0.567,0.019,0.754,0.233c0.187,0.214,0.236,0.516,0.128,0.778l-0.767,1.861l1.833,0.039
				c0.296,0.006,0.561,0.187,0.675,0.459s0.058,0.588-0.145,0.804l-1.087,1.157l0.304,0.325c0.055,0.059,0.101,0.126,0.134,0.2
				l16.512,35.947c0.16,0.348,0.032,0.761-0.297,0.957C50.896,68.039,48.639,69.374,46.75,69.374z M30.693,35.962l0.63,1.393
				c7.939,17.508,13.674,29.406,14.611,30.313c0.172,0.131,0.453,0.206,0.816,0.206c0.925,0,2.115-0.483,2.88-0.862L33.463,31.814
				l-0.702-0.749c-0.271-0.289-0.27-0.738,0-1.026l0.416-0.442l-1.245-0.026c-0.247-0.005-0.476-0.132-0.611-0.339
				c-0.136-0.207-0.16-0.468-0.066-0.696l0.612-1.484l-1.48,0.384c-0.224,0.057-0.463,0.009-0.646-0.132
				c-0.183-0.142-0.291-0.36-0.292-0.592l-0.005-1.521l-1.192,0.297c-0.24,0.06-0.494-0.002-0.68-0.167L26.536,24.4L9.107,13.724
				c-0.912-0.558-1.459-0.675-1.757-0.675c-0.235,0-0.392,0.067-0.522,0.225c-0.499,0.602-0.448,2.159-0.323,3.071l16.854,10.51
				c0.205,0.128,0.336,0.347,0.352,0.588l0.1,1.566l0.793-0.543c0.241-0.164,0.555-0.175,0.806-0.026
				c0.251,0.148,0.393,0.429,0.364,0.719l-0.234,2.353l2.022-0.698c0.249-0.086,0.527-0.034,0.729,0.137
				c0.202,0.171,0.299,0.437,0.254,0.698l-0.446,2.629l1.776-0.425c0.235-0.055,0.48,0.003,0.662,0.159
				c0.183,0.156,0.279,0.39,0.26,0.629L30.693,35.962z"/>
		</g>
		<g>
			<path fill="#C5E7E9" d="M26.825,29.168c1.121-0.224,2.379-2.047,2.322-2.992c-0.013-0.226,0.066-0.748-0.104-0.6
				c-0.515,0.456-3.208,2.539-3.038,3.088C26.079,28.894,26.588,29.216,26.825,29.168z"/>
			<path fill="#C5E7E9" d="M29.128,29.318c1.01-1.053,1.178-2.082,1.945-1.79c0.276,0.104-0.249,1.22-0.327,1.505
				c-0.25,0.895-0.941,2.568-1.835,2.32c-0.302-0.086-0.358-0.56-0.548-0.811c-0.148-0.195-0.963-0.138-0.885-0.422
				C27.627,29.583,28.649,29.819,29.128,29.318z"/>
			<path fill="#C5E7E9" d="M29.846,33.012c-0.035-0.236,1.531-2.054,2.34-2.846c0.197-0.189-0.011,0.895,0.191,1.08
				c0.138,0.125,0.526,0.115,0.616,0.277c0.501,0.916-0.627,3.028-1.817,3.484c-0.365,0.141,0.043-1.303-0.271-1.537
				c-0.272-0.201-1.15,0.434-1.35,0.158C29.457,33.491,29.846,33.012,29.846,33.012z"/>
		</g>
		<path fill="#F6921E" d="M50.869,52.689c0,0,1.299-3.342,5.146-3.704c3.847-0.364,7.807-4.493,8.426-6.2
			c0.618-1.707,2.915-1.047,2.915-1.047l-4.905,9.858c0,0-8.57,3.08-8.632,3.213C53.754,54.939,50.869,52.689,50.869,52.689z"/>
		<path fill="#BE1E2D" d="M79.747,39.262c-3.201,1-0.765,6.776-0.016,6.748c2.363,0.105,5.958,0.939,6.118-3.658
			C85.969,38.93,81.92,38.482,79.747,39.262z"/>
		<path fill="#FAAF40" d="M52.957,66.914c0,0-3.528-10.934,7.088-17.266c10.618-6.328,23.435-1.291,23.216-9.537
			c-0.22-8.248-1.082-16.282,3.52-18.109c15.712-6.24,10.995,18.13,6.177,21.61c-4.82,3.481-8.59,9.192-8.196,14.802
			c0.39,5.608-19.082,9.715-23.653,8.726C56.535,66.155,52.957,66.914,52.957,66.914z"/>
		<g>
			<g>
				<path fill="#5AB1AF" d="M79.938,50.868c-0.514,3.831-5.807,6.753-9.582,5.589c-2.9-0.893-5.144-5.267-4.612-8.23
					c0.645-3.586,5.708-6.045,9.854-4.813C77.901,44.219,80.352,47.811,79.938,50.868z"/>
				<path fill="#231F20" d="M72.153,57.466c-0.71,0-1.389-0.098-2.018-0.292c-3.388-1.043-5.691-5.946-5.129-9.08
					c0.58-3.226,4.235-5.752,8.322-5.752c0.861,0,1.696,0.119,2.484,0.353c2.609,0.911,5.341,4.797,4.87,8.273
					C80.168,54.797,75.774,57.466,72.153,57.466z M73.327,43.842c-3.327,0-6.397,2.026-6.845,4.517
					c-0.486,2.71,1.695,6.643,4.095,7.381c0.485,0.15,1.016,0.226,1.576,0.226c2.995,0,6.643-2.223,7.042-5.197
					c0.363-2.68-1.848-5.949-3.845-6.646C74.735,43.94,74.043,43.842,73.327,43.842z"/>
			</g>
			<path fill="#231F20" d="M76.2,44.643c-0.148-0.084-2.573,3.17-3.4,3.154c-1.457-0.025-1.854-2.482-3.594-2.039
				c0.132,1.845,2.2,1.662,2.51,3.041c0.243,1.092-1.482,2.102-1,3.367c1.087-0.533,1.005-1.317,1.58-2.143
				c0.906-1.299,1.502-0.607,2.493,0.07c0.69,0.477,2.376,1.756,2.296,0.17c-0.063-1.206-1.709-1.039-2.197-1.913
				C74.887,48.351,76.569,45.473,76.2,44.643z"/>
		</g>
		<path fill="#F6921E" d="M65.688,56.893c0.076-0.512,6.372-5.036,9.786-4.256c3.413,0.781,7.254-4.311,8.425-3.976
			c2.18,0.622-2.928,8.253-4.999,8.854C72.264,59.447,65.42,58.68,65.688,56.893z"/>
		<path fill="#BE1E2D" d="M86.301,27.544c-1.922,0.601-0.461,4.068-0.01,4.052c1.417,0.063,3.576,0.563,3.673-2.198
			C90.036,27.346,87.606,27.076,86.301,27.544z"/>
	</g>
	<g>
		<g>
			<path fill="#231F20" d="M31.861,124.162c0.21-0.129,0.558-0.252,1.044-0.369c0.486-0.115,0.81-0.207,0.971-0.277
				c0.051-0.06,0.105-0.065,0.166-0.015c0.046,0.019,0.086,0.021,0.117,0.006l0.076-0.091c0.051-0.059,0.115-0.087,0.193-0.083
				c0.248,0.045,0.416,0.03,0.497-0.044c0.015,0.032,0.047,0.065,0.102,0.1c0.052,0.034,0.094,0.084,0.121,0.148
				c0.097-0.042,0.224-0.059,0.38-0.051c0.156,0.01,0.284-0.008,0.381-0.051c0.06,0.052,0.185,0.074,0.374,0.067
				c0.014,0.032,0.066,0.067,0.159,0.104c0.031-0.015,0.106-0.019,0.225-0.012s0.191,0.002,0.225-0.012
				c0.258,0.155,0.42,0.22,0.484,0.191c0.417,0.163,0.728,0.22,0.936,0.168c0.185,0.073,0.291,0.142,0.318,0.206l0.097-0.042
				c0.097-0.042,0.219-0.046,0.367-0.017c0.146,0.033,0.253,0.034,0.317,0.006c0.305,0.174,0.502,0.318,0.59,0.433l0.242-0.104
				c0.06,0.051,0.163,0.092,0.312,0.123c0.147,0.031,0.245,0.057,0.291,0.074l0.063,0.145c0.127,0.29,0.322,0.434,0.591,0.434
				l0.063,0.145c0.295,0.063,0.479,0.175,0.548,0.336c0.014,0.032,0.028,0.064,0.042,0.097l-0.007,0.117l0.461,0.661l0.063,0.146
				c0.028,0.065,0.081,0.1,0.16,0.103c0.092,0.037,0.161,0.064,0.207,0.082c0.026,0.411,0.136,0.841,0.332,1.292
				c0.028,0.064,0.077,0.158,0.149,0.279c0.073,0.122,0.13,0.23,0.172,0.327s0.094,0.198,0.16,0.304
				c0.065,0.106,0.146,0.224,0.24,0.354c0.095,0.132,0.158,0.229,0.186,0.293c0.186,0.342,0.395,0.844,0.626,1.508
				c0.231,0.666,0.389,1.094,0.474,1.287c0.141,0.323,0.33,0.585,0.57,0.786c0.043,0.097,0.097,0.245,0.165,0.445
				s0.123,0.349,0.165,0.445c0.014,0.032,0.051,0.074,0.111,0.124c0.061,0.051,0.104,0.107,0.133,0.172l0.035,0.215
				c0.014,0.031,0.039,0.068,0.077,0.109c0.037,0.041,0.063,0.079,0.076,0.11c-0.032,0.015-0.041,0.038-0.028,0.069
				c-0.003,0.079,0.031,0.159,0.106,0.242c0.073,0.082,0.118,0.14,0.132,0.172c-0.004,0.078-0.016,0.16-0.037,0.246
				c-0.021,0.086-0.023,0.145-0.01,0.176c0.302,0.252,0.466,0.41,0.493,0.475c0.043,0.097,0.055,0.169,0.036,0.215
				c0.014,0.031,0.039,0.088,0.074,0.169c0.035,0.08,0.098,0.139,0.189,0.175c0.028,0.064,0.033,0.12,0.016,0.166l0.091,0.076
				c0.028,0.064,0.073,0.083,0.139,0.054c-0.019,0.047-0.014,0.102,0.015,0.166c0.07,0.161,0.096,0.266,0.077,0.312
				s-0.021,0.085-0.006,0.117c-0.005,0.079,0.025,0.104,0.09,0.076c0.063-0.028,0.104-0.026,0.118,0.006
				c0.023,0.143,0.077,0.311,0.161,0.504c0.07,0.162,0.151,0.26,0.243,0.296c0.015,0.032,0.004,0.075-0.03,0.128
				c-0.034,0.054-0.044,0.097-0.03,0.129l0.208,0.082l0.105,0.24c0.182,0.419,0.31,0.67,0.384,0.753
				c0.014,0.032,0.028,0.044,0.045,0.037c0.015-0.007,0.031,0.007,0.045,0.038c0.011,0.111,0.047,0.152,0.111,0.124
				c0.046,0.019,0.061,0.051,0.043,0.097c-0.02,0.046-0.021,0.086-0.007,0.117c0.06,0.051,0.125,0.156,0.195,0.317
				s0.151,0.261,0.243,0.296c0.084,0.193,0.156,0.315,0.217,0.365l-0.049,0.021c-0.019,0.047-0.021,0.086-0.006,0.117
				c0.148,0.166,0.558,0.141,1.23-0.075l0.063,0.146c0.064-0.028,0.147-0.103,0.247-0.224c0.204,0.027,0.313,0.057,0.326,0.089
				c0.031-0.014,0.058-0.044,0.076-0.09c0.017-0.046,0.044-0.076,0.075-0.091l0.85-0.025c0.033-0.014,0.074-0.05,0.124-0.11
				c0.13-0.057,0.287-0.048,0.471,0.025c0.331-0.03,0.804,0.13,1.414,0.477c0.045,0.019,0.122,0.062,0.229,0.13
				c0.106,0.069,0.174,0.136,0.202,0.2c0.167,0.386,0.264,0.65,0.287,0.793c0.042,0.097,0.028,0.332-0.038,0.706
				c-0.032,0.014-0.058,0.044-0.075,0.09c-0.019,0.047-0.044,0.076-0.077,0.09l-0.005,0.118c0.015,0.032,0.005,0.055-0.028,0.069
				l-0.259,0.458c-0.034,0.014-0.083,0.074-0.152,0.18c-0.068,0.107-0.12,0.167-0.15,0.182c-0.02,0.046-0.094,0.097-0.222,0.152
				c-0.128,0.057-0.218,0.114-0.269,0.175c-0.165,0.147-0.295,0.243-0.393,0.286c-0.083,0.072-0.212,0.129-0.386,0.167
				c-0.177,0.038-0.289,0.087-0.339,0.147l-0.026,0.068l-0.028,0.069c-0.064,0.029-0.186,0.1-0.365,0.216
				c-0.179,0.117-0.302,0.189-0.365,0.217l-0.145,0.063c-0.047-0.019-0.087-0.021-0.118-0.007l-0.069-0.027l-0.172,0.132
				c-0.097,0.043-0.236,0.074-0.418,0.097c-0.183,0.021-0.289,0.039-0.321,0.053c-0.207,0.053-0.508,0.153-0.9,0.306
				c-0.395,0.151-0.655,0.256-0.784,0.312c-0.483,0.21-0.852,0.332-1.104,0.365c-0.034,0.014-0.096,0.004-0.188-0.033l-0.172,0.132
				c-0.064,0.028-0.172,0.046-0.321,0.054c-0.15,0.008-0.257,0.025-0.321,0.055c-0.018,0.046-0.034,0.053-0.048,0.02l-0.07-0.027
				l-0.048,0.021c-0.064,0.028-0.089,0.059-0.075,0.09c-0.092-0.035-0.227-0.035-0.401,0.002c-0.176,0.039-0.286,0.049-0.332,0.03
				c-0.032,0.014-0.075,0.004-0.128-0.03c-0.054-0.035-0.096-0.045-0.128-0.031c-0.097,0.043-0.169,0.055-0.215,0.035l-0.753-0.017
				c-0.221,0.021-0.355,0.021-0.401,0.003l-0.068-0.028l-0.098,0.042c-0.032,0.015-0.103,0.008-0.211-0.022
				c-0.109-0.029-0.211-0.023-0.308,0.019c-0.013-0.031-0.131-0.039-0.354-0.019c-0.059-0.051-0.164-0.091-0.312-0.123
				c-0.147-0.031-0.244-0.056-0.291-0.075c-0.088-0.113-0.239-0.221-0.453-0.318c-0.215-0.098-0.353-0.172-0.414-0.223
				c-0.046-0.018-0.116-0.093-0.212-0.225c-0.096-0.13-0.189-0.213-0.281-0.251c-0.041-0.097-0.129-0.23-0.261-0.402
				c-0.132-0.173-0.22-0.307-0.262-0.403c-0.135-0.133-0.293-0.409-0.475-0.828c-0.013-0.031-0.045-0.057-0.09-0.075
				c-0.047-0.018-0.076-0.044-0.091-0.075c-0.069-0.162-0.088-0.249-0.057-0.263c-0.093-0.036-0.182-0.131-0.268-0.286
				c-0.086-0.153-0.168-0.232-0.246-0.236l-0.043-0.098c-0.041-0.096-0.143-0.263-0.303-0.5c-0.159-0.236-0.269-0.418-0.324-0.548
				c-0.098-0.225-0.137-0.4-0.114-0.525l-0.186-0.032c-0.028-0.065-0.049-0.133-0.061-0.205c-0.013-0.071-0.031-0.139-0.06-0.203
				l-0.021-0.049c-0.045-0.018-0.075-0.043-0.09-0.074c-0.014-0.033-0.02-0.088-0.015-0.167l0.027-0.068
				c-0.015-0.033-0.038-0.042-0.069-0.028c-0.033,0.014-0.055,0.005-0.07-0.027l-0.16-0.504l-0.133-0.172l-0.063-0.145
				c-0.168-0.387-0.305-0.614-0.411-0.684c-0.027-0.063-0.023-0.141,0.013-0.234c-0.014-0.032-0.049-0.046-0.104-0.041
				s-0.074-0.016-0.056-0.062c-0.028-0.065-0.08-0.204-0.154-0.422c-0.075-0.216-0.134-0.372-0.176-0.47
				c-0.084-0.193-0.156-0.313-0.216-0.364c-0.103-0.147-0.224-0.382-0.362-0.704c-0.015-0.031-0.049-0.065-0.102-0.1
				s-0.088-0.067-0.101-0.101l-0.063-0.144c-0.028-0.064-0.102-0.167-0.221-0.308c-0.118-0.14-0.198-0.258-0.24-0.354
				c-0.014-0.031-0.023-0.076-0.028-0.132c-0.005-0.055-0.014-0.098-0.027-0.131c-0.094-0.036-0.159-0.122-0.198-0.258
				c-0.041-0.136-0.036-0.234,0.015-0.294l-0.021-0.049c-0.064,0.028-0.11,0.011-0.139-0.055c-0.07-0.16-0.193-0.422-0.37-0.787
				c-0.178-0.362-0.308-0.641-0.392-0.834l-0.315-0.725c-0.153-0.354-0.228-0.609-0.218-0.767c-0.015-0.031-0.039-0.088-0.073-0.169
				c-0.035-0.08-0.093-0.123-0.171-0.127c-0.01-0.111-0.08-0.271-0.209-0.483c-0.131-0.211-0.179-0.362-0.141-0.455
				c-0.093-0.036-0.169-0.079-0.229-0.131c-0.014-0.031-0.042-0.097-0.084-0.193s-0.055-0.167-0.035-0.214
				c-0.194-0.183-0.368-0.451-0.523-0.807l-0.524-1.207c-0.014-0.031-0.001-0.066,0.041-0.104c0.041-0.037,0.055-0.072,0.04-0.104
				c-0.027-0.064-0.088-0.114-0.181-0.151c-0.039-0.442-0.093-0.743-0.163-0.905c-0.084-0.192-0.202-0.333-0.355-0.42
				c-0.014-0.032-0.022-0.075-0.027-0.132c-0.006-0.055-0.016-0.099-0.028-0.131c-0.121-0.1-0.202-0.199-0.244-0.296
				c-0.014-0.031-0.034-0.101-0.06-0.204c-0.026-0.104-0.053-0.188-0.081-0.252c-0.014-0.031-0.039-0.068-0.076-0.109
				c-0.038-0.042-0.063-0.078-0.076-0.111c0.04-0.17,0.033-0.319-0.023-0.449c0.04-0.17,0.131-0.401,0.273-0.692
				C31.734,124.446,31.823,124.255,31.861,124.162z"/>
			<path fill="#231F20" d="M57.917,128.896c1.01,0.161,1.637,0.376,1.879,0.643c0.161,0.071,0.363,0.205,0.607,0.4
				s0.426,0.315,0.544,0.359c0.007,0.035,0.036,0.082,0.087,0.143c0.049,0.061,0.066,0.129,0.047,0.205
				c0.119,0.045,0.232,0.145,0.34,0.299c0.109,0.156,0.201,0.242,0.277,0.26c0.024,0.104,0.075,0.208,0.154,0.316
				c0.08,0.107,0.128,0.195,0.144,0.264c0.261,0.191,0.403,0.339,0.427,0.441c0.017,0.069,0.026,0.155,0.035,0.263
				c0.006,0.106,0.014,0.177,0.021,0.211c0.016,0.069,0.073,0.163,0.175,0.284c0.096,0.41,0.168,0.646,0.218,0.705
				c-0.025,0.043-0.033,0.171-0.019,0.383c0.013,0.214-0.006,0.363-0.058,0.446c0.084,0.054,0.153,0.2,0.21,0.438l0.083,0.359
				c-0.095,0.058-0.167,0.174-0.217,0.348s-0.104,0.286-0.164,0.335c0.021,0.248-0.052,0.518-0.218,0.809
				c-0.168,0.291-0.268,0.514-0.305,0.665c0.098,0.267,0.277,0.495,0.538,0.686l0.103-0.023c0.104-0.023,0.208-0.075,0.315-0.154
				c0.107-0.08,0.195-0.127,0.264-0.143l0.104-0.023c0.087-0.093,0.249-0.211,0.484-0.357c0.237-0.144,0.385-0.242,0.445-0.293
				c0.604-0.5,0.991-0.771,1.164-0.812c0.114-0.278,0.186-0.439,0.211-0.481c0.034-0.008,0.073,0.002,0.115,0.027l0.063,0.039
				l0.327-0.454c0.067-0.017,0.126-0.075,0.174-0.177c0.049-0.101,0.124-0.164,0.227-0.188l0.104-0.023
				c0.218-0.303,0.689-0.828,1.418-1.574c0.06-0.05,0.158-0.092,0.295-0.124c0.034-0.007,0.095-0.058,0.182-0.149
				c0.086-0.093,0.159-0.164,0.221-0.215c0.067-0.015,0.15-0.052,0.244-0.11c0.095-0.058,0.159-0.091,0.193-0.1
				c0.095-0.058,0.209-0.184,0.345-0.377c0.135-0.194,0.251-0.319,0.345-0.378c0.103-0.023,0.184-0.061,0.244-0.111
				c0.068-0.016,0.143-0.087,0.221-0.213c0.317-0.183,0.494-0.277,0.528-0.285l0.103-0.024c0.061-0.05,0.143-0.087,0.244-0.111
				l0.924-0.215c0.16,0.071,0.275,0.179,0.347,0.325c0.069,0.146,0.133,0.339,0.188,0.577c0.058,0.24,0.113,0.407,0.171,0.501
				c-0.207,0.193-0.328,0.293-0.362,0.301c-0.127,0.536-0.257,0.836-0.385,0.901l0.084,0.358c-0.278,0.354-0.425,0.658-0.437,0.914
				l-0.103,0.023c-0.103,0.023-0.185,0.133-0.247,0.328c-0.354,0.189-0.646,0.564-0.875,1.123c-0.103,0.023-0.197,0.118-0.285,0.283
				c-0.089,0.164-0.163,0.271-0.223,0.321c-0.062,0.05-0.149,0.099-0.265,0.143c-0.115,0.046-0.204,0.093-0.264,0.144
				c-0.034,0.008-0.052,0.048-0.054,0.12c0,0.073-0.019,0.112-0.053,0.12c-0.103,0.023-0.213,0.131-0.331,0.32
				s-0.246,0.301-0.382,0.332c-0.034,0.009-0.064,0.034-0.091,0.076c-0.019,0.076-0.062,0.122-0.13,0.139
				c-0.025,0.042-0.035,0.08-0.027,0.114s-0.002,0.072-0.028,0.114c-0.671,0.518-1.026,0.779-1.059,0.787
				c-0.149,0.143-0.355,0.336-0.623,0.578c-0.268,0.243-0.446,0.41-0.532,0.502c-0.077-0.017-0.166-0.015-0.269,0.009
				c-0.103,0.024-0.215,0.087-0.335,0.187c-0.121,0.101-0.216,0.158-0.283,0.174c-0.234,0.236-0.386,0.36-0.453,0.376
				c-0.104,0.024-0.176,0.023-0.218-0.003c-0.034,0.008-0.063,0.041-0.084,0.101c-0.023,0.06-0.052,0.093-0.085,0.101l-0.667,0.156
				c-0.704,0.38-1.364,0.642-1.979,0.785c-0.411,0.096-0.765,0.124-1.062,0.085c-0.077-0.018-0.131-0.015-0.16,0.011
				c-0.031,0.025-0.063,0.041-0.097,0.049c-0.972,0.01-1.834-0.132-2.587-0.425c0.025-0.042,0.017-0.076-0.024-0.103l-0.063-0.039
				c-0.103,0.023-0.209,0.031-0.319,0.021c-0.051-0.06-0.167-0.169-0.347-0.325c-0.181-0.156-0.283-0.285-0.306-0.389
				c-0.317,0.039-0.528-0.093-0.633-0.393c-0.035,0.008-0.079,0.01-0.136,0.004c-0.054-0.005-0.116,0-0.185,0.016
				c-0.499-0.279-1.084-0.937-1.757-1.97c0.061-0.049,0.057-0.103-0.01-0.159c-0.067-0.057-0.105-0.102-0.113-0.137
				c-0.008-0.033,0.002-0.071,0.027-0.114l-0.012-0.051l-0.138-0.13c-0.06-0.096-0.14-0.365-0.243-0.809l-0.06-0.257
				c-0.032-0.137-0.116-0.343-0.253-0.618c-0.135-0.273-0.219-0.479-0.251-0.617l-0.132-0.564c0.034-0.008,0.05-0.057,0.048-0.146
				c-0.003-0.089,0.013-0.138,0.046-0.146c-0.042-0.026-0.071-0.073-0.087-0.143c-0.024-0.103-0.009-0.269,0.047-0.497l-0.075-0.091
				c-0.051-0.061-0.079-0.107-0.088-0.143c0.01-0.109,0.028-0.304,0.055-0.58c0.024-0.275,0.071-0.504,0.139-0.682
				c0.066-0.178,0.155-0.334,0.27-0.468c-0.048-0.205,0.006-0.397,0.162-0.579c0.155-0.18,0.24-0.325,0.25-0.436
				c0.061-0.051,0.152-0.117,0.277-0.201c0.125-0.082,0.218-0.148,0.278-0.199c0.174-0.184,0.378-0.467,0.614-0.846
				c0.033-0.008,0.077-0.054,0.131-0.139c0.283-0.174,0.485-0.311,0.605-0.412c0.061-0.05,0.146-0.105,0.259-0.169
				c0.112-0.061,0.197-0.117,0.258-0.167l0.271-0.227c0.035-0.008,0.073,0.002,0.115,0.027l0.103-0.023
				c0.189-0.116,0.335-0.187,0.438-0.211c0.066-0.016,0.156-0.026,0.262-0.033c0.106-0.007,0.177-0.014,0.211-0.022
				C57.792,128.979,57.855,128.947,57.917,128.896z M58.68,133.801l-0.04,0.063l-0.205,0.048c-0.685,0.16-0.974,0.462-0.87,0.906
				c0.017,0.068,0.014,0.141-0.003,0.217l-0.106,0.241c0.024,0.103,0.065,0.282,0.125,0.538c0.059,0.257,0.102,0.437,0.125,0.539
				c-0.01,0.11,0.009,0.269,0.058,0.474c0.031,0.137,0.071,0.235,0.122,0.296c0.152,0.037,0.298,0.038,0.434,0.006
				c0.342-0.079,0.751-0.336,1.228-0.771c0.198-0.227,0.316-0.416,0.354-0.568c0.025-0.043,0.069-0.089,0.13-0.139
				s0.087-0.093,0.08-0.127c0.038-0.297,0.017-0.617-0.063-0.959s-0.183-0.553-0.309-0.631
				C59.204,133.807,58.85,133.762,58.68,133.801z"/>
			<path fill="#231F20" d="M71.707,116.114l0.104-0.005c0.035-0.001,0.07,0.016,0.107,0.049l0.058,0.104
				c0.034-0.002,0.106,0.004,0.211,0.018c0.106,0.014,0.195,0.036,0.267,0.067c0.035-0.001,0.071,0.032,0.109,0.102
				c0.075,0.103,0.164,0.134,0.268,0.095c0.041,0.174,0.173,0.361,0.393,0.563c0.239,0.693,0.394,1.073,0.468,1.141
				c0.004,0.07,0.025,0.192,0.067,0.366s0.065,0.313,0.069,0.418c0.006,0.105-0.009,0.194-0.041,0.266
				c0.003,0.105,0.071,0.472,0.202,1.099l0.014,0.315c0.005,0.141,0.021,0.342,0.051,0.604c0.027,0.263,0.044,0.446,0.049,0.552
				c0.012,0.281-0.017,0.475-0.082,0.583c0.055,0.49,0.097,1.086,0.126,1.787c0.003,0.07,0.048,0.122,0.138,0.152
				c0.089,0.032,0.136,0.065,0.137,0.1c1.026,0.204,1.702,0.405,2.027,0.603l0.158-0.006c0.069-0.004,0.248,0.078,0.537,0.241
				c0.079,0.243,0.191,0.396,0.334,0.461c-0.031,0.106-0.019,0.194,0.037,0.263c0.055,0.068,0.085,0.137,0.087,0.207
				c0.039,0.068,0.087,0.163,0.145,0.283c0.057,0.121,0.104,0.199,0.141,0.232c0.076,0.137,0.115,0.224,0.116,0.258
				c0.004,0.105-0.026,0.221-0.092,0.347s-0.115,0.207-0.148,0.243c-0.07,0.003-0.155,0.042-0.258,0.116
				c-0.104,0.074-0.172,0.112-0.207,0.113l-0.104,0.005l-0.108-0.049l-0.05,0.055c-0.033,0.072-0.066,0.108-0.101,0.109
				l-0.422,0.018c-0.104,0.004-0.156,0.025-0.154,0.06c-0.036,0.001-0.072-0.006-0.106-0.022c-0.037-0.016-0.073-0.023-0.107-0.021
				c-0.035,0.001-0.077,0.038-0.127,0.109c-0.05,0.073-0.093,0.11-0.127,0.111c-0.035,0.002-0.114,0.022-0.235,0.063
				s-0.199,0.061-0.234,0.063c-0.07,0.002-0.177-0.01-0.318-0.04c-0.142-0.029-0.265-0.042-0.37-0.038l-0.104,0.005l-0.104,0.057
				c-0.069,0.038-0.121,0.058-0.156,0.059c-0.07,0.003-0.131,0.006-0.184,0.008c-0.053,0.003-0.105,0.005-0.158,0.007
				s-0.113,0.004-0.184,0.008c-0.07,0.002-0.123,0.005-0.158,0.006l-0.051,0.055l-0.051,0.055c0.086,0.384,0.061,0.631-0.074,0.741
				c0.122,0.417,0.186,0.678,0.189,0.783l0.03,0.736c-0.032,0.072-0.083,0.144-0.148,0.218c0.11,0.171,0.174,0.396,0.185,0.678
				c0.008,0.175-0.017,0.439-0.073,0.793c0.003,0.07,0.014,0.141,0.036,0.209c0.02,0.07,0.03,0.123,0.032,0.157
				c-0.086,0.495-0.16,0.815-0.225,0.957l0.006,0.158c0.003,0.071-0.002,0.15-0.016,0.238c-0.015,0.089-0.021,0.15-0.019,0.185
				c0.009,0.211,0.03,0.352,0.069,0.42c0.003,0.07-0.028,0.178-0.093,0.319c0.078,0.174,0.124,0.452,0.141,0.838
				c0.014,0.386,0.043,0.666,0.086,0.84c0.003,0.071,0.025,0.202,0.069,0.393c0.041,0.191,0.065,0.34,0.07,0.444l0.006,0.158
				c-0.063,0.144-0.096,0.233-0.094,0.268c0.003,0.071,0.014,0.141,0.035,0.21c0.02,0.07,0.031,0.122,0.033,0.156
				c-0.033,0.072-0.073,0.17-0.121,0.295s-0.07,0.206-0.069,0.24l0.007,0.158c0.009,0.21,0.07,0.437,0.187,0.678l0.105-0.005
				c0.035,0.033,0.07,0.05,0.106,0.049c0.14-0.006,0.27-0.046,0.391-0.122c0.119-0.074,0.256-0.194,0.407-0.358
				s0.26-0.266,0.33-0.304c0.131-0.216,0.266-0.345,0.405-0.386c0.133-0.181,0.368-0.471,0.702-0.872
				c0.334-0.399,0.568-0.708,0.7-0.925l0.05-0.055c0.035-0.035,0.069-0.037,0.106-0.004c0.031-0.071,0.045-0.178,0.04-0.318
				c0.102-0.074,0.319-0.346,0.651-0.817c0.066-0.107,0.175-0.252,0.325-0.435c0.15-0.182,0.242-0.308,0.273-0.38
				c0.106-0.005,0.176-0.024,0.209-0.062c-0.002-0.034,0.006-0.079,0.021-0.133c0.015-0.053,0.04-0.098,0.073-0.135
				c0.168-0.182,0.531-0.741,1.092-1.678l0.201-0.219c0.033-0.037,0.084-0.092,0.152-0.164l0.048-0.108
				c0.032-0.036,0.066-0.073,0.101-0.109l0.05-0.056c0.034-0.035,0.066-0.09,0.1-0.162l0.05-0.055l0.356-0.33
				c0.197-0.324,0.329-0.522,0.397-0.596c-0.001-0.035,0.023-0.071,0.075-0.109c0.05-0.036,0.075-0.072,0.074-0.107l0.553-0.656
				c0.271-0.221,0.493-0.37,0.667-0.448c0.032-0.036,0.085-0.056,0.156-0.059c0.174-0.007,0.353,0.073,0.536,0.241
				c0.322,0.163,0.493,0.454,0.511,0.875l0.006,0.158c-0.026,0.212-0.096,0.461-0.207,0.746c-0.111,0.287-0.181,0.518-0.208,0.693
				c-0.065,0.145-0.18,0.342-0.346,0.595s-0.263,0.45-0.291,0.592l-0.311,0.171c0.008,0.176-0.022,0.3-0.089,0.372
				c-0.102,0.109-0.251,0.31-0.451,0.599c-0.198,0.289-0.367,0.489-0.502,0.601c0.003,0.104-0.019,0.203-0.067,0.292
				c-0.049,0.09-0.073,0.153-0.07,0.188c-0.07,0.038-0.155,0.111-0.256,0.221c0.003,0.071-0.028,0.16-0.094,0.268
				c-0.067,0.108-0.099,0.18-0.097,0.215c-0.174,0.078-0.308,0.242-0.402,0.491c-0.199,0.289-0.297,0.47-0.295,0.538
				c-0.034,0.003-0.086,0.057-0.15,0.165c-0.067,0.108-0.135,0.146-0.207,0.114c-0.056,0.354-0.17,0.553-0.345,0.594
				c-0.148,0.674-0.411,1.142-0.785,1.402c0,0.035-0.015,0.098-0.045,0.186c-0.033,0.09-0.063,0.171-0.097,0.241
				c-0.035,0.002-0.069,0.03-0.102,0.084c-0.033,0.054-0.067,0.082-0.103,0.083c-0.322,0.716-0.64,1.098-0.954,1.146
				c-0.139,0.075-0.323,0.285-0.555,0.629c-0.232,0.343-0.471,0.538-0.714,0.583c-0.035,0.001-0.069,0.037-0.101,0.109
				c-0.033,0.071-0.066,0.107-0.102,0.109c-0.245,0.01-0.417,0.104-0.516,0.285c-0.071,0.002-0.123-0.014-0.16-0.047
				c-0.032,0.071-0.082,0.126-0.15,0.164c-0.07,0.037-0.156,0.06-0.262,0.063c-0.104,0.005-0.176,0.008-0.211,0.009
				c-0.034,0.002-0.086,0.029-0.154,0.086c-0.069,0.055-0.146,0.093-0.231,0.114c-0.089,0.021-0.166,0.033-0.236,0.036
				c-0.563,0.022-1.131-0.147-1.707-0.51c-0.795-0.495-1.286-0.932-1.479-1.311l-0.056-0.104c-0.002-0.07,0.012-0.124,0.046-0.16
				c-0.142-0.029-0.328-0.303-0.561-0.82c-0.075-0.102-0.159-0.23-0.253-0.385s-0.161-0.265-0.197-0.334
				c-0.197-0.484-0.314-0.778-0.354-0.882c-0.037-0.068-0.068-0.173-0.091-0.313c-0.023-0.14-0.036-0.244-0.039-0.315
				c-0.002-0.034-0.023-0.112-0.063-0.234c-0.041-0.121-0.08-0.225-0.118-0.312c-0.039-0.086-0.06-0.164-0.062-0.234
				c-0.004-0.07-0.02-0.237-0.048-0.499s-0.062-0.445-0.101-0.549c-0.002-0.035,0.015-0.07,0.048-0.107
				c0.033-0.036,0.031-0.089-0.006-0.158c-0.041-0.139-0.068-0.366-0.081-0.682l-0.069-1.685c-0.003-0.069,0.014-0.123,0.047-0.16
				c0.032-0.036,0.05-0.071,0.049-0.106l-0.007-0.158c-0.002-0.035-0.014-0.113-0.036-0.236c-0.022-0.121-0.036-0.235-0.04-0.34
				c-0.003-0.07,0-0.193,0.011-0.37c0.011-0.176,0.014-0.317,0.01-0.422l-0.012-0.264c0-0.034,0.014-0.088,0.047-0.159
				c0.032-0.072,0.047-0.143,0.044-0.213c-0.002-0.07-0.016-0.175-0.039-0.315c-0.023-0.139-0.035-0.226-0.037-0.262
				c0.059-0.282,0.087-0.442,0.086-0.478c0.021-1.23,0.096-1.972,0.226-2.223c-0.088-0.419-0.136-0.75-0.146-0.996
				c-0.009-0.21,0.02-0.369,0.086-0.478l-0.01-0.211c-0.014-0.351,0.03-0.563,0.133-0.638l-0.113-0.206
				c0.031-0.071,0.05-0.239,0.059-0.503c0.006-0.264,0.042-0.433,0.11-0.506l-0.055-0.05c-0.038-0.069-0.041-0.122-0.007-0.158
				c-0.003-0.07,0.021-0.149,0.07-0.24c0.048-0.089,0.072-0.151,0.07-0.188c-0.037-0.068-0.06-0.19-0.066-0.366
				c-0.015-0.35,0.042-0.669,0.172-0.955c0.141-0.85,0.227-1.328,0.258-1.434c-0.006-0.105,0.017-0.212,0.065-0.32
				c0.048-0.106,0.071-0.178,0.07-0.213c0.032-0.071,0.046-0.16,0.042-0.266c-0.009-0.21,0.033-0.476,0.126-0.795
				c0.092-0.32,0.134-0.604,0.123-0.85c0.032-0.035,0.067-0.081,0.101-0.135c0.031-0.055,0.066-0.1,0.1-0.137l-0.002-0.052
				c-0.037-0.033-0.056-0.068-0.059-0.104c-0.002-0.069,0.012-0.176,0.041-0.317c0.067-0.073,0.1-0.145,0.097-0.215
				c0.032-0.071,0.063-0.179,0.092-0.32c0.029-0.141,0.044-0.23,0.042-0.266c0.03-0.106,0.088-0.231,0.17-0.375
				c0.081-0.144,0.14-0.234,0.174-0.271l-0.014-0.315c0.137-0.075,0.205-0.148,0.202-0.219c0.104-0.005,0.226-0.036,0.365-0.095
				C71.584,116.146,71.67,116.115,71.707,116.114z"/>
			<path fill="#231F20" d="M94.524,126.072l0.217,0.016l0.102,0.033c0.02,0.044,0.049,0.071,0.082,0.082l0.552,0.18
				c0.301,0.099,0.511,0.188,0.634,0.264c0.033,0.01,0.061,0.038,0.085,0.082l0.032,0.066l0.101,0.033
				c0.066,0.021,0.142,0.074,0.227,0.156c0.083,0.083,0.157,0.136,0.225,0.157c0.022,0.044,0.082,0.118,0.177,0.224
				s0.147,0.196,0.159,0.273l0.352,0.281c0.022,0.044,0.134,0.238,0.337,0.581c0.202,0.343,0.254,0.665,0.156,0.965
				c-0.021,0.067-0.066,0.09-0.133,0.067c-0.012,0.033-0.006,0.072,0.018,0.117c0.021,0.044,0.027,0.083,0.018,0.116l-0.084,0.084
				c-0.056,0.056-0.088,0.101-0.099,0.134c-0.145-0.011-0.316,0.063-0.515,0.22c-0.122,0.034-0.289,0.035-0.5,0.003
				c-0.212-0.032-0.372-0.048-0.483-0.048c-0.022-0.043-0.101-0.088-0.234-0.132c-0.032-0.011-0.139-0.026-0.315-0.048
				c-0.179-0.021-0.312-0.063-0.4-0.13c-0.079,0.011-0.107-0.017-0.085-0.083l-0.35,0.052c-0.021,0.066-0.071,0.134-0.148,0.201
				c-0.077,0.066-0.126,0.134-0.148,0.2l0.017,0.116c-0.198,0.268-0.308,0.436-0.328,0.502l-0.034,0.1
				c-0.011,0.035-0.032,0.045-0.065,0.034c-0.034-0.011-0.057,0.001-0.066,0.034c-0.057,0.057-0.086,0.147-0.09,0.275
				c-0.006,0.128-0.013,0.209-0.025,0.241l-0.048,0.15c-0.021,0.067-0.019,0.142,0.01,0.225s0.03,0.158,0.01,0.225
				c-0.045,0.022-0.072,0.052-0.083,0.084c0.022,0.044,0.107,0.155,0.252,0.331c0.145,0.178,0.213,0.338,0.203,0.482
				c0.425,0.619,0.973,1.26,1.645,1.922c0.055,0.056,0.099,0.115,0.133,0.182c0.033,0.067,0.068,0.105,0.101,0.117
				c0.022,0.044,0.067,0.076,0.135,0.099c0.032,0.011,0.063,0.059,0.092,0.141c0.028,0.084,0.06,0.13,0.093,0.142
				c0.313,0.287,0.463,0.502,0.453,0.646c0.123,0.077,0.232,0.224,0.329,0.439c0.095,0.217,0.153,0.346,0.177,0.391l-0.05,0.15
				c0.157,0.198,0.208,0.381,0.153,0.548c0.045,0.089,0.063,0.15,0.051,0.184c-0.021,0.067-0.026,0.139-0.016,0.216
				c0.012,0.078,0.008,0.15-0.014,0.217c-0.012,0.033-0.039,0.062-0.083,0.084c-0.012,0.033,0.004,0.094,0.05,0.183
				c-0.01,0.034-0.041,0.097-0.09,0.192c-0.05,0.094-0.08,0.159-0.091,0.192c-0.021,0.067-0.01,0.144,0.035,0.232l-0.114,0.517
				l-0.016,0.051c-0.045,0.022-0.072,0.051-0.083,0.084l-0.032,0.1l-0.083,0.084l0.018,0.116l0.018,0.116
				c-0.012,0.034-0.054,0.104-0.124,0.209c-0.072,0.106-0.096,0.182-0.073,0.226c-0.133,0.067-0.29,0.266-0.472,0.594
				c-0.182,0.329-0.321,0.532-0.421,0.61c-0.178,0.091-0.31,0.213-0.398,0.369l-0.397,0.202c-0.033-0.011-0.132,0.004-0.29,0.044
				c-0.162,0.04-0.286,0.082-0.375,0.127c-0.079,0.012-0.283,0.074-0.615,0.188c-0.223,0.002-0.395,0.019-0.516,0.053
				c-0.101-0.033-0.262-0.048-0.483-0.048c-0.223,0.003-0.4-0.02-0.533-0.063l-0.602-0.196l-0.034-0.066l-0.55-0.18
				c-0.033-0.012-0.101-0.061-0.2-0.149c-0.101-0.088-0.18-0.159-0.235-0.215c-0.056-0.055-0.14-0.11-0.25-0.165
				c-0.112-0.055-0.201-0.094-0.268-0.115c-0.023-0.043-0.082-0.118-0.177-0.224c-0.096-0.104-0.171-0.185-0.226-0.239
				c-0.023-0.044-0.175-0.288-0.454-0.73c-0.281-0.442-0.411-0.808-0.391-1.097l-0.084-0.083l-0.033-0.066
				c0.011-0.033-0.004-0.131-0.042-0.291c-0.042-0.16-0.045-0.291-0.012-0.392c0.011-0.033,0-0.083-0.035-0.149
				c-0.033-0.066-0.057-0.139-0.066-0.217l0.083-0.083c0.032-0.101,0.059-0.184,0.081-0.251c0.01-0.033,0.014-0.068,0.008-0.107
				c-0.007-0.039,0.002-0.092,0.023-0.158c0.055-0.057,0.1-0.135,0.132-0.234l0.017-0.05l0.082-0.084l-0.033-0.067l0.017-0.05
				c0.011-0.032,0.06-0.072,0.149-0.116c0.043-0.134,0.132-0.234,0.265-0.302c-0.013-0.188,0.063-0.257,0.231-0.202l0.049-0.149
				l0.133-0.067c0.022-0.066,0.091-0.137,0.208-0.21c0.114-0.073,0.19-0.159,0.223-0.259c0.044-0.023,0.102-0.059,0.175-0.109
				c0.071-0.051,0.138-0.084,0.198-0.102c0.061-0.017,0.113-0.037,0.158-0.06c0.221-0.112,0.364-0.214,0.432-0.302
				c-0.034-0.012-0.082-0.036-0.142-0.075c-0.063-0.038-0.109-0.063-0.143-0.073c-0.013-0.078-0.085-0.139-0.217-0.182
				c-0.047-0.089-0.178-0.225-0.395-0.406c-0.219-0.182-0.339-0.35-0.361-0.506c-0.034-0.011-0.067-0.021-0.101-0.033
				c-0.033-0.011-0.062-0.037-0.084-0.082c0.021-0.066,0.021-0.123,0-0.166l-0.051-0.018c-0.033-0.01-0.062-0.037-0.084-0.082
				c-0.013-0.188-0.125-0.465-0.338-0.831c-0.213-0.365-0.315-0.675-0.306-0.931c-0.044-0.088-0.063-0.148-0.051-0.183
				c-0.011-0.077,0.01-0.144,0.065-0.2c-0.111-0.109-0.134-0.266-0.069-0.466c-0.001-0.222,0.015-0.383,0.047-0.483
				c0.011-0.033,0.011-0.089-0.002-0.167l0.018-0.05l0.032-0.101c0.022-0.065,0.05-0.094,0.083-0.083l-0.067-0.133
				c0.097-0.301,0.17-0.461,0.214-0.484c0.011-0.033,0.011-0.061-0.002-0.084c-0.01-0.021-0.011-0.049,0.001-0.083
				c0.055-0.056,0.151-0.235,0.288-0.542s0.261-0.516,0.37-0.628c-0.021-0.043-0.017-0.061,0.017-0.05l0.066-0.033
				c0.055-0.167,0.11-0.277,0.164-0.334l0.249-0.252c0.209-0.301,0.356-0.474,0.446-0.519c0.044-0.133,0.126-0.218,0.249-0.251
				l-0.034-0.067c0.044-0.022,0.199-0.073,0.465-0.152s0.432-0.22,0.497-0.42l0.716-0.154l0.282-0.018l0.067-0.034
				c0.077-0.011,0.133-0.012,0.165-0.001l0.5-0.003c0.155-0.023,0.284-0.019,0.384,0.015L94.524,126.072z M93.276,137.188
				c-0.1-0.032-0.233-0.021-0.399,0.036s-0.316,0.063-0.448,0.02l-0.05,0.15c-0.032,0.1-0.115,0.239-0.247,0.418
				c-0.133,0.178-0.203,0.285-0.215,0.317c-0.033-0.011-0.095,0.006-0.184,0.051l-0.396,0.702c-0.011,0.033-0.024,0.047-0.041,0.042
				s-0.031,0.009-0.042,0.042c-0.044,0.023-0.08,0.076-0.106,0.158c-0.027,0.084-0.047,0.143-0.058,0.176
				c0.045,0.089,0.077,0.219,0.095,0.391c0.017,0.172,0.054,0.286,0.109,0.341c0.101,0.032,0.206,0.104,0.318,0.215
				c0.276-0.058,0.659-0.153,1.147-0.29c0.089-0.045,0.139-0.084,0.149-0.117c0.51-0.203,0.856-0.588,1.042-1.156l0.05-0.15
				c0.021-0.066,0.001-0.174-0.062-0.324c-0.062-0.148-0.075-0.273-0.043-0.374c-0.035-0.012-0.082-0.063-0.143-0.157
				c-0.063-0.095-0.126-0.152-0.192-0.174c-0.09-0.066-0.123-0.132-0.103-0.199C93.404,137.25,93.342,137.211,93.276,137.188z"/>
		</g>
		<g>
			<path fill="#231F20" d="M84.76,118.728l0.159,0.021c0.06,0.027,0.114,0.034,0.161,0.021c0.106,0.016,0.307-0.016,0.593-0.094
				l0.265,0.124c0.011,0.041,0.04,0.054,0.09,0.04c0.104,0.015,0.25,0.074,0.432,0.176c0.184,0.104,0.357,0.176,0.522,0.218
				c0.284,0.099,0.454,0.16,0.516,0.187c0.079,0.109,0.19,0.24,0.337,0.396c0.144,0.155,0.228,0.274,0.25,0.355l0.065,0.242
				l0.129,0.483l0.049,0.182c0.012,0.041,0.039,0.098,0.084,0.173s0.056,0.156,0.03,0.251c0.043,0.161,0.05,0.288,0.025,0.383
				c0.033,0.121,0.029,0.305-0.006,0.555c-0.037,0.247-0.043,0.411-0.021,0.492l-0.056,0.081l-0.074,0.02
				c0.021,0.079,0.006,0.214-0.046,0.4l0.033,0.121c-0.027,0.095-0.055,0.232-0.083,0.412c-0.029,0.179-0.038,0.289-0.027,0.33
				l-0.072,0.02c0.054,0.203,0.04,0.336-0.045,0.404c0.005,0.216-0.042,0.519-0.141,0.912c-0.102,0.395-0.159,0.661-0.174,0.795
				c-0.086,0.065-0.135,0.176-0.143,0.33c-0.01,0.154-0.034,0.259-0.071,0.311c0.048-0.013,0.058,0.028,0.034,0.123
				c-0.038,0.051-0.108,0.267-0.215,0.642l0.016,0.061l-0.054,0.079c-0.032,0.269-0.075,0.498-0.126,0.682l-0.127,0.1
				c-0.187,0.268-0.377,0.428-0.567,0.479l-0.416,0.176l-0.481-0.067c0.073-0.107,0.095-0.221,0.063-0.338l-0.082-0.306
				c0.074-0.106,0.102-0.198,0.079-0.28l-0.032-0.12c0.074-0.108,0.101-0.199,0.08-0.281c0.101-0.2,0.124-0.403,0.069-0.605
				l-0.017-0.059l-0.032-0.121l0.038-0.143c-0.011-0.04-0.021-0.081-0.031-0.119l0.057-0.08c-0.045-0.162-0.035-0.315,0.029-0.461
				l0.039-0.143c-0.022-0.079-0.037-0.141-0.049-0.182c-0.012-0.04-0.004-0.106,0.023-0.201c0.026-0.094,0.028-0.183,0.008-0.261
				c-0.033-0.121-0.038-0.23-0.011-0.32c-0.011-0.043-0.003-0.108,0.025-0.203c0.028-0.267,0.069-0.409,0.117-0.422
				c-0.161-0.215-0.168-0.432-0.019-0.645l-0.072,0.02c0.004-0.173-0.032-0.403-0.107-0.687l0.056-0.08l-0.112-0.422
				c0.034-0.054,0.047-0.102,0.036-0.142l-0.113-0.423l0.056-0.081l-0.017-0.061c-0.032-0.119-0.028-0.208,0.009-0.261
				c-0.206-0.379-0.33-0.647-0.374-0.809c-0.116-0.055-0.202-0.185-0.256-0.387c-0.012-0.038-0.042-0.053-0.089-0.041l-0.104-0.102
				l-0.081-0.302c-0.157-0.001-0.255-0.084-0.298-0.246c-0.098,0.026-0.215-0.028-0.354-0.164c-0.144,0.038-0.22,0.037-0.23-0.004
				c-0.118-0.053-0.198-0.163-0.243-0.325c-0.023-0.468,0.251-0.691,0.823-0.674C84.525,118.813,84.617,118.766,84.76,118.728z"/>
		</g>
	</g>
	<g>
		<path fill="#231F20" d="M117.791,171.823c0.207,0.15,0.392,0.332,0.551,0.544l0.092,0.071c0.03,0.063,0.065,0.186,0.105,0.369
			c0.04,0.183,0.087,0.31,0.14,0.381c-0.024,0.069-0.02,0.24,0.016,0.513l-0.293,0.834c-0.008,0.023-0.065,0.055-0.171,0.096
			c-0.105,0.042-0.179,0.081-0.217,0.119c-0.142,0.107-0.274,0.15-0.398,0.134c-0.188,0.091-0.306,0.166-0.353,0.228
			c-0.348-0.122-0.592-0.169-0.732-0.14c-0.03-0.063-0.113-0.118-0.254-0.167c-0.092-0.033-0.187-0.118-0.281-0.255
			c-0.095-0.138-0.178-0.219-0.246-0.242c0.018-0.125-0.047-0.238-0.192-0.341c0.002-0.156-0.027-0.258-0.089-0.305
			c0.041-0.116,0.055-0.286,0.044-0.512c-0.014-0.226,0.001-0.396,0.041-0.512c0.049-0.14,0.104-0.225,0.168-0.254l0.236-0.229
			l0.012-0.034l0.024-0.07c0.009-0.022,0.054-0.059,0.136-0.108c0.083-0.05,0.12-0.101,0.114-0.155
			c0.085-0.021,0.19-0.063,0.316-0.123c0.022,0.008,0.164-0.021,0.421-0.087C117.15,171.611,117.42,171.692,117.791,171.823z
			 M123.844,152.009c0.162,0.057,0.29,0.173,0.385,0.349c0.095,0.177,0.185,0.293,0.268,0.349c-0.01,0.101,0.025,0.21,0.101,0.327
			c0.075,0.118,0.117,0.205,0.123,0.258c-0.008,0.024-0.017,0.066-0.024,0.129c-0.008,0.062-0.029,0.101-0.061,0.115
			c0.083,0.134,0.028,0.479-0.167,1.034c-0.053,0.372-0.108,0.64-0.165,0.802c-0.04,0.115-0.1,0.213-0.178,0.288
			c0.021,0.086,0.001,0.216-0.06,0.39c-0.062,0.173-0.1,0.283-0.116,0.33l0.01,0.198c0.005,0.132-0.008,0.245-0.041,0.337
			l-0.402,1.146c-0.008,0.023-0.052,0.074-0.13,0.15c-0.008,0.023-0.016,0.06-0.021,0.109c-0.004,0.051-0.011,0.088-0.019,0.111
			s-0.021,0.058-0.036,0.104l-0.059,0.058c-0.057,0.085-0.098,0.22-0.124,0.405c-0.025,0.187-0.051,0.314-0.075,0.384
			s-0.084,0.166-0.179,0.289c-0.017,0.046-0.019,0.123-0.004,0.232c-0.049,0.139-0.116,0.35-0.202,0.632
			c-0.087,0.282-0.157,0.504-0.214,0.666c-0.146,0.417-0.332,0.834-0.556,1.25c0.014,0.109,0.012,0.187-0.004,0.232
			c-0.008,0.023-0.068,0.12-0.18,0.289l-0.072,0.209c-0.073,0.208-0.161,0.528-0.261,0.962l-0.183,0.521
			c-0.017,0.047-0.028,0.101-0.037,0.163c-0.01,0.062-0.018,0.104-0.025,0.127c-0.016,0.047-0.046,0.095-0.09,0.145
			c-0.044,0.051-0.07,0.086-0.078,0.109s-0.009,0.063-0.001,0.116c0.007,0.056,0.003,0.105-0.014,0.151
			c-0.008,0.023-0.021,0.059-0.036,0.104l-0.061,0.058c-0.008,0.022-0.002,0.064,0.017,0.122c0.018,0.059,0.02,0.111,0.003,0.157
			c-0.017,0.047-0.045,0.088-0.084,0.127c-0.04,0.039-0.063,0.069-0.07,0.092c-0.017,0.047-0.036,0.118-0.056,0.215
			c-0.022,0.098-0.036,0.157-0.045,0.18c-0.024,0.069-0.065,0.133-0.124,0.19c-0.061,0.058-0.094,0.098-0.102,0.121
			c-0.039,0.038-0.041,0.077-0.002,0.116c0.038,0.039,0.053,0.071,0.045,0.094c-0.041,0.116-0.112,0.28-0.211,0.492
			c-0.102,0.212-0.167,0.364-0.199,0.457c-0.065,0.186-0.096,0.383-0.091,0.592c-0.113,0.17-0.188,0.313-0.229,0.428
			c-0.081,0.232-0.111,0.43-0.091,0.594c-0.106,0.301-0.155,0.479-0.148,0.533c-0.016,0.047-0.044,0.05-0.081,0.01
			c-0.04-0.039-0.069-0.063-0.093-0.07c-0.055,0.006-0.173,0.082-0.353,0.227c-0.023-0.008-0.055-0.012-0.093-0.013
			c-0.039-0.001-0.07-0.005-0.094-0.014c-0.068-0.023-0.149-0.072-0.243-0.144c-0.091-0.071-0.172-0.119-0.241-0.143
			c-0.022-0.087-0.117-0.224-0.284-0.413c0.016-0.046,0.008-0.101-0.021-0.163c-0.03-0.063-0.033-0.129-0.009-0.198
			c-0.165-0.345-0.252-0.544-0.259-0.598c-0.022-0.086-0.012-0.226,0.03-0.419s0.059-0.317,0.053-0.373l-0.031-0.244
			c0.001-0.078,0.016-0.176,0.045-0.297c0.029-0.119,0.056-0.215,0.08-0.284c0.183-0.742,0.278-1.126,0.286-1.148
			c0.008-0.023,0.032-0.054,0.071-0.093c0.039-0.038,0.067-0.08,0.083-0.126c0.009-0.023,0.015-0.08,0.021-0.169
			c0.005-0.089,0.015-0.156,0.031-0.203c0.032-0.093,0.113-0.266,0.241-0.521c0.128-0.253,0.209-0.466,0.243-0.636l0.171-0.487
			c0.016-0.046,0.041-0.135,0.073-0.267c0.033-0.131,0.066-0.243,0.1-0.336c0.024-0.069,0.063-0.199,0.116-0.389
			c0.054-0.189,0.097-0.331,0.129-0.423c0.016-0.047,0.053-0.112,0.108-0.197c0.055-0.084,0.091-0.149,0.107-0.195
			c0.008-0.023,0.011-0.068,0.009-0.134c-0.004-0.066-0.001-0.111,0.007-0.134l0.062-0.175c0.057-0.161,0.174-0.42,0.35-0.774
			l0.049-0.139l0.098-0.278c0.04-0.116,0.119-0.192,0.236-0.229c0.009-0.023-0.003-0.047-0.033-0.07
			c-0.031-0.023-0.038-0.059-0.021-0.105c0.078-0.076,0.138-0.191,0.18-0.346c0.042-0.155,0.085-0.264,0.133-0.325l-0.031-0.245
			c0.032-0.092,0.068-0.21,0.104-0.354c0.037-0.144,0.073-0.261,0.105-0.354c0.04-0.115,0.124-0.282,0.252-0.497
			c0.024-0.069,0.071-0.092,0.142-0.067c-0.016-0.031-0.023-0.086-0.021-0.164c0-0.078-0.006-0.132-0.021-0.163
			c0.017-0.046,0.043-0.083,0.078-0.109c0.036-0.026,0.058-0.052,0.065-0.075c0.017-0.046,0.029-0.119,0.038-0.221
			c0.009-0.1,0.018-0.162,0.026-0.186c0.016-0.046,0.048-0.101,0.096-0.162c0.048-0.061,0.076-0.103,0.084-0.127
			c0.017-0.045,0.049-0.139,0.098-0.277s0.081-0.231,0.098-0.278c0.063-0.107,0.167-0.351,0.313-0.729
			c0.146-0.378,0.273-0.651,0.386-0.82c0.009-0.023,0.041-0.045,0.101-0.063c0.058-0.019,0.091-0.04,0.1-0.063
			c0.008-0.023,0.02-0.059,0.036-0.105c-0.016-0.03-0.012-0.056,0.008-0.074c0.019-0.02,0.041-0.025,0.064-0.017
			c-0.016-0.031-0.007-0.094,0.025-0.187l0.169-0.37c-0.014-0.108-0.017-0.175-0.008-0.198c0.008-0.022,0.031-0.053,0.07-0.092
			c0.04-0.038,0.068-0.08,0.084-0.127l-0.011-0.082c0.017-0.046,0.028-0.081,0.037-0.104c0.016-0.047,0.048-0.101,0.096-0.162
			c0.047-0.062,0.076-0.104,0.084-0.127c0.017-0.045,0.036-0.104,0.061-0.173s0.048-0.12,0.073-0.151
			c0.022-0.03,0.048-0.066,0.076-0.109c0.028-0.042,0.063-0.068,0.106-0.079C123.753,151.99,123.797,151.992,123.844,152.009z"/>
	</g>
</g>
</svg>
