<?xml version="1.0" encoding="utf-8"?>
<!-- Generator: Adobe Illustrator 16.0.0, SVG Export Plug-In . SVG Version: 6.00 Build 0)  -->
<!DOCTYPE svg PUBLIC "-//W3C//DTD SVG 1.1//EN" "http://www.w3.org/Graphics/SVG/1.1/DTD/svg11.dtd">
<svg version="1.1" id="Layer_1" xmlns="http://www.w3.org/2000/svg" xmlns:xlink="http://www.w3.org/1999/xlink" x="0px" y="0px"
	 width="160.749px" height="111.123px" viewBox="0 0 160.749 111.123" enable-background="new 0 0 160.749 111.123"
	 xml:space="preserve">
<g>
	<path fill="#FFFFFF" d="M11.297,33.222c1.605-0.785,3.705,0.125,5.098-1.44c0.646-0.729,0.185-4.259,0.777-5.434
		c1.512-3.001,4.343-3.392,6.721-5.042c4.456,2.482,6.436-5.348,11.968-4.361c1.474,2.627,3.967,8.343,6.784,10.298
		c7.979,5.538,8.023-7.396,8.273-12.556c0.249-5.136-0.62-14.64,8.438-10.216c3.512,1.716,6.223,9.643,7.113,12.909
		c3.818-1.941,5.068-6.163,9.736-5.397c1.467,0.24,1.303,2.26,3.19,2.422c3.694,0.318,4.591-2.088,7.839-3.18
		c4.211-1.417,7.496,0.938,11.297,1.158c3.459,0.2,7.718-2.464,10.459-0.014c4.74-3.292,5.464-10.427,11.039-12.013
		c4.805-1.365,11.342,1.273,11.938,6.463c4.343,0.182,6.027,0.146,9.379,1.98c0.697,0.382,1.223,2.052,2.12,2.483
		c1.584,0.761,3.886-0.559,5.45,0.078c8.404,3.42,1.67,10.524,1.455,16.021c-0.09,2.301,1.947,6.101,3.133,7.906
		c3.191,4.863,2.41,2.688,1.891,7.918c-0.674,6.774,6.783,13.141,0.9,18.686c2.677,3.69,7.941,8.924,1.046,12.013
		c-2.528,1.132-6.249-0.545-8.336,1.318c-1.083,0.967-2.288,4.688-3.238,5.998c-7.323,10.088-16.794,14.359-28.36,18.384
		c-12.16,4.23-25.207,6.76-38.611,7.777c-14.063,1.067-27.82,6.366-42.266,2.108c-1.902-0.561-4.022-1.98-5.734-2.362
		c-2.952-0.656-2.752,0.032-5.768,0.306c-4.194,0.381-10.014,0.075-12.359-3.777c-2.858-4.695,0.572-6.995-4.859-10.552
		c-2.296-1.504-7.396-3.376-7.772-6.948c-0.886-8.426,14.937-6.642,13.403-16.776C12.123,60.68,2.26,59.744,2.918,49.883
		C2.918,49.883,4.241,36.671,11.297,33.222z"/>
	<g>
		<g>
			<path fill="#C3996B" d="M28.813,85.724c-0.113,23.121,42.316,16.386,52.623,13.899c9.874-2.381,21.464-4.055,31.827-6.553
				c7.399-1.783,19.034-8.002,24.893-13.174c2.411-2.13,9.955-10.47,3.47-15.08c-3.472-2.468-8.127,5.353-11.249,6.737
				c-9.242,4.104-16.08,6.424-26.184,8.904c-19.141,4.704-36.554,5.161-56.849,6.776c-5.87,0.469-11.146,0.154-16.814-1.207
				L28.813,85.724z"/>
			<path fill="#231F20" d="M56.841,103.087c-11.751,0-20.024-2.325-24.588-6.912c-2.708-2.721-4.07-6.238-4.049-10.454
				c0-0.18,0.081-0.35,0.219-0.465c0.138-0.114,0.318-0.167,0.496-0.132l1.717,0.304c3.942,0.945,7.792,1.401,11.803,1.401
				c1.567,0,3.156-0.066,4.857-0.202c3.815-0.304,7.528-0.566,11.17-0.824c15.473-1.095,30.088-2.128,45.582-5.937
				c10.083-2.476,16.908-4.796,26.082-8.869c0.991-0.439,2.231-1.674,3.545-2.979c2.12-2.108,4.312-4.288,6.49-4.288
				c0.652,0,1.262,0.198,1.813,0.591c1.767,1.256,2.715,2.875,2.817,4.813c0.228,4.315-3.979,9.226-6.236,11.219
				c-6.016,5.312-17.77,11.53-25.153,13.31c-5.257,1.268-10.879,2.333-16.317,3.363c-5.475,1.037-10.646,2.017-15.51,3.189
				C77.157,101.281,66.972,103.087,56.841,103.087z M29.433,86.451c0.131,3.559,1.368,6.538,3.683,8.864
				c4.327,4.349,12.309,6.553,23.725,6.553c10.016,0,20.083-1.783,24.452-2.837c4.894-1.181,10.321-2.209,15.569-3.203
				c5.423-1.027,11.031-2.09,16.259-3.35c7.227-1.742,18.737-7.835,24.632-13.039c1.692-1.494,6.038-6.248,5.827-10.241
				c-0.083-1.57-0.837-2.841-2.307-3.886c-0.346-0.245-0.708-0.365-1.107-0.365c-1.676,0-3.777,2.09-5.631,3.934
				c-1.396,1.388-2.714,2.699-3.91,3.229c-9.247,4.105-16.125,6.444-26.286,8.939c-15.595,3.832-30.26,4.87-45.786,5.969
				c-3.639,0.257-7.348,0.52-11.16,0.823c-1.734,0.139-3.354,0.205-4.954,0.205c-4.108,0-8.05-0.467-12.051-1.428L29.433,86.451z"/>
		</g>
		<g>
			<path fill="#F6921E" d="M20.816,75.974c-0.552-3.666,0.667-8.042,3.87-10.02c2.507-1.548,7.502,0.635,9.578,2.826
				c3.27,3.449,1.92,0.72,6.084,2.788c5.548,2.757,10.715,4.92,16.747,4.653c6.361-0.282,12.227-4.483,18.626-4.163
				c4.682,0.233,8.333-1.639,12.867-2.64c2.102-0.464,4.797-0.726,6.774-1.618c1.063-0.479,12.838-2.202,17.827-3.552
				c3.691-1,6.967-0.956,9.754-3.732c1.326-1.321,3.386-1.91,4.809-3.164c2.981-2.629,6.104-5.163,9.066-7.805
				c2.891-2.575,7.988-4.898,11.872-2.81c3.547,1.908,5.332,5.609,3.727,9.664c-1.514,3.821-3.447,4.449-6.796,5.592
				c-7.379,2.519-13.003,8.619-19.761,12.444c-4.601,2.603-9.635,5.614-14.805,6.467c-3.334,0.549-13.075,3.907-14.724,4.463
				c-1.091,0.366-7.137,1.888-9.055,2.22c-1.405,0.243-7.58,1.38-9.589,1.686c-6.177,0.937-12.817-0.395-19.041-0.084
				c-4.631,0.231-9.358-1.058-13.986-1.553C41.286,87.273,22.538,87.418,20.816,75.974z"/>
			<path fill="#231F20" d="M72.625,90.41c-2.009,0-4.059-0.121-6.042-0.238c-2.621-0.154-5.321-0.316-7.895-0.187
				c-3.129,0.158-6.322-0.366-9.397-0.871c-1.553-0.255-3.159-0.519-4.713-0.685c-0.343-0.037-0.848-0.068-1.479-0.107
				c-5.862-0.366-21.432-1.338-23.07-12.23c-0.543-3.612,0.551-8.539,4.24-10.816c0.688-0.425,1.539-0.64,2.528-0.64
				c2.904,0,6.373,1.828,8.047,3.597c1.577,1.663,1.878,1.663,2.169,1.663l0.396-0.006c0.668,0,1.583,0.114,3.294,0.965
				c4.941,2.455,10.265,4.841,16.357,4.57c2.843-0.126,5.685-1.101,8.432-2.044c3.288-1.129,6.695-2.305,10.269-2.118
				c3.037,0.146,5.664-0.637,8.453-1.476c1.338-0.403,2.722-0.82,4.203-1.146c0.617-0.137,1.284-0.256,1.969-0.378
				c1.639-0.292,3.333-0.595,4.649-1.188c0.537-0.242,2.444-0.587,6.363-1.283c3.936-0.698,8.834-1.567,11.584-2.312
				c0.935-0.253,1.834-0.439,2.704-0.619c2.557-0.529,4.765-0.985,6.695-2.908c0.781-0.778,1.753-1.309,2.693-1.821
				c0.795-0.434,1.546-0.844,2.151-1.376c1.399-1.234,2.83-2.447,4.26-3.661c1.59-1.348,3.234-2.742,4.802-4.141
				c2.074-1.848,5.537-3.821,9.04-3.821c1.367,0,2.625,0.305,3.74,0.904c4.162,2.239,5.768,6.424,4.09,10.66
				c-1.635,4.127-3.843,4.88-7.185,6.02l-0.095,0.033c-4.386,1.496-8.251,4.38-11.989,7.169c-2.438,1.818-4.96,3.699-7.636,5.214
				l-0.941,0.535c-4.297,2.44-9.167,5.207-14.126,6.024c-1.996,0.329-6.728,1.759-14.066,4.251l-0.533,0.182
				c-1.15,0.386-7.201,1.908-9.174,2.249c-0.417,0.072-1.254,0.224-2.279,0.408c-2.492,0.449-5.904,1.063-7.326,1.28
				C76.262,90.296,74.566,90.41,72.625,90.41z M60.69,88.344c1.981,0,4.018,0.12,5.987,0.236c1.96,0.116,3.986,0.235,5.948,0.235
				c1.86,0,3.478-0.107,4.944-0.33c1.4-0.213,4.94-0.852,7.283-1.273c1.029-0.186,1.871-0.337,2.29-0.409
				c1.894-0.328,7.872-1.833,8.937-2.19l0.529-0.179c2.766-0.939,11.183-3.799,14.319-4.315c4.678-0.771,9.212-3.347,13.598-5.838
				l0.944-0.536c2.589-1.465,5.069-3.315,7.468-5.104c3.837-2.862,7.805-5.822,12.428-7.4l0.095-0.032
				c3.231-1.103,4.854-1.655,6.217-5.099c1.36-3.435,0.04-6.837-3.363-8.668c-0.88-0.474-1.885-0.714-2.985-0.714
				c-3.059,0-6.21,1.841-7.979,3.417c-1.583,1.411-3.234,2.812-4.832,4.167c-1.423,1.206-2.846,2.413-4.237,3.64
				c-0.739,0.651-1.604,1.124-2.442,1.58c-0.88,0.48-1.712,0.934-2.332,1.551c-2.267,2.259-4.808,2.784-7.498,3.341
				c-0.847,0.175-1.722,0.356-2.61,0.597c-2.819,0.763-7.755,1.639-11.722,2.343c-2.607,0.463-5.562,0.987-5.988,1.167
				c-1.495,0.675-3.288,0.995-5.023,1.304c-0.663,0.119-1.309,0.233-1.905,0.365c-1.422,0.314-2.776,0.722-4.086,1.116
				c-2.919,0.879-5.671,1.718-8.992,1.541c-3.283-0.162-6.378,0.903-9.672,2.034c-2.854,0.979-5.807,1.993-8.879,2.13
				c-6.459,0.266-12.014-2.19-17.137-4.736c-1.607-0.799-2.268-0.799-2.585-0.799l-0.396,0.006c-0.943,0-1.588-0.326-3.327-2.16
				c-1.418-1.497-4.525-3.1-6.89-3.1c-0.689,0-1.258,0.136-1.69,0.403c-3.073,1.897-3.969,6.11-3.501,9.222
				c1.447,9.618,16.083,10.532,21.593,10.876c0.662,0.042,1.191,0.075,1.55,0.113c1.599,0.171,3.227,0.438,4.801,0.697
				c2.996,0.492,6.084,0.997,9.06,0.853C59.298,88.358,59.992,88.344,60.69,88.344z"/>
		</g>
		<path fill="#BE1E2D" d="M138.749,62.172c0,0,0.583-4.631-6.416,1.129c-6.372,5.242-7.026,7.948-13.063,9.46
			c-0.234-0.952-3.383-1.085-4.058-0.971c-4.334,0.728-10.398,4.72-17.371,4.749c-4.153,1.528-6.772,4.935-7.542,7.06
			c-1.811,5.013,27.94-4.112,34.422-9.433C132.218,69.484,137.43,66.857,138.749,62.172z"/>
		<path fill="#FFFFFF" d="M112.728,65.995c-3.192,1.038-3.631,5.091-5.203,7.257c-5.201,7.165-6.839-9.587-12.361-0.355
			c-1.731,2.89-1.437,7.862-5.381,5.25c-3.079-2.041-1.236-5.526-5.484-4.93c-4.929,0.693-1.573,6.729-4.145,7.842
			c-2.096,0.907-5.138-5.893-6.292-7.598c-5.515,1.857-1.688,5.421-4.42,9.599c-5.029,7.69-3.214-6.174-4.604-7.761
			c-4.155-4.731-3.512,7.53-5.093,8.928c-3.674,3.247-0.18-7.733-3.722-7.457c-4.792-0.469-8.753,3.383-7.703,9.369
			c-0.352,2.707,0.768,4.564,2.86,4.337c1.522-1.628-1.204-6.537,0.187-8.242c2.164-1.166,1.121,7.236,3.358,7.24
			c5.124,1.186,8.389-0.805,8.147-7.335c1.341,8.033,10.352,8.817,9.16-0.521c3.422-0.065,5.31,5.171,9.053,5.047
			c4.409-0.146,2.998-4.968,4.772-7.897c2.146,2.006,3.646,7.738,6.972,7.1c5.161-0.991,0.803-9.7,6.32-9.105
			c3.027,0.326,6.525,5.517,9.771,1.942c3.221-3.55,4.555-8.82,10.348-5.943C120.831,67.213,116.769,64.68,112.728,65.995z"/>
		<g>
			<path fill="#BE1E2D" d="M23.508,87.98c0,0-6.481,7.818-5.541,10.185c0.932,2.366,4.707,2.178,7.162-1.656
				C27.585,92.674,25.237,88.813,23.508,87.98z"/>
			<path fill="#FFFFFF" d="M22.209,92.356c-0.737-0.489-4.623,6.741-1.715,5.439C22.467,96.915,23.146,92.975,22.209,92.356z"/>
		</g>
		<g>
			<path fill="#FAAF40" d="M18.739,81.25c0,0-11.563-1.813-10.468,3.308C9.473,90.184,19.619,82.791,18.739,81.25z"/>
			<path fill="#FFFFFF" d="M14.127,83.524c-0.676-0.157-4.693,1.063-3.064,1.526C12.689,85.514,15.212,83.77,14.127,83.524z"/>
		</g>
		<path fill="#FAAF40" d="M148.557,66.604c0,0,5.294-0.463,6.033,0.646c0.74,1.104,1.917,2.759-0.466,2.673
			C151.745,69.84,148.398,67.597,148.557,66.604z"/>
		<path fill="#BE1E2D" d="M145.145,41.816c-0.716-0.666,6.058-6.682,5.399-3.228C150.102,40.933,146.049,42.666,145.145,41.816z"/>
		<g>
			<path fill="#FAAF40" d="M139.785,42.67c0,0-3.201-7.817,0.577-7.902C144.513,34.673,141.015,43.03,139.785,42.67z"/>
			<path fill="#FFFFFF" d="M140.613,39.052c-0.223-0.447-0.036-3.473,0.562-2.406C141.771,37.71,140.966,39.772,140.613,39.052z"/>
		</g>
		<path fill="#F9C989" d="M56.797,95.457c-2.554,1.039-15.78-1.594-16.552-1.889c-2.047-0.785-1.522,1.294-1.225,1.695
			c2.172,2.929,8.419,5.057,12.043,3.78c3.624-1.275,11.356-0.736,14.925-0.912c3.565-0.174,9.806-2.255,10.128-3.567
			C76.385,93.48,59.35,94.414,56.797,95.457z"/>
		<g>
			<g>
				<g>
					<path fill="#C3996B" d="M140.284,46.79c-5.02-3.317-21.037-5.579-31-4.954c-7.591,0.481-36.731,3.968-45.595,7.104
						c-6.515,1.974-12.879,3.091-14.936,4.075C44.124,55.229,27.001,57.192,28.873,66c5.306,1.299,5.134,5.665,7.674,7.019
						c15.183,8.097,42.589-2.856,60.434-3.265c10.392-0.236,17.919-3.718,27.61-6.5C133.786,60.614,138.301,53.642,140.284,46.79z"
						/>
					<path fill="#231F20" d="M51.001,76.743c-0.001,0-0.001,0-0.001,0c-6.099,0-10.941-1.002-14.806-3.063
						c-1.153-0.614-1.792-1.679-2.469-2.806c-1.01-1.681-2.054-3.418-5.03-4.146l-0.458-0.112l-0.098-0.46
						c-1.575-7.408,8.662-10.314,15.437-12.238c2.047-0.581,3.815-1.083,4.854-1.58c1.156-0.553,3.466-1.115,6.391-1.828
						c2.623-0.639,5.595-1.362,8.651-2.288c8.833-3.126,37.745-6.626,45.765-7.134c9.548-0.602,26.15,1.566,31.461,5.076l0.46,0.305
						l-0.154,0.53c-1.775,6.131-6.027,14.054-16.207,16.976c-2.422,0.695-4.723,1.439-6.948,2.159
						c-6.666,2.155-12.961,4.19-20.852,4.37c-6.056,0.139-13.181,1.495-20.724,2.933C67.74,75.063,58.913,76.743,51.001,76.743z
						 M29.53,65.4c3.225,0.948,4.471,3.021,5.48,4.702c0.592,0.984,1.103,1.835,1.889,2.254c3.642,1.942,8.254,2.887,14.101,2.887
						c0,0,0.001,0,0.001,0c7.771,0,16.525-1.668,24.992-3.28c7.606-1.449,14.79-2.817,20.97-2.959
						c7.672-0.174,13.867-2.177,20.425-4.298c2.237-0.723,4.55-1.471,6.996-2.173c9.223-2.647,13.255-9.721,15.016-15.404
						c-4.428-2.507-16.517-4.646-26.556-4.646c-1.247,0-2.429,0.034-3.513,0.102c-7.965,0.506-36.645,3.968-45.392,7.063
						c-3.129,0.949-6.123,1.678-8.764,2.321c-2.728,0.664-5.083,1.237-6.098,1.724c-1.154,0.552-2.979,1.069-5.092,1.67
						C37.54,57.191,28.772,59.681,29.53,65.4z"/>
				</g>
			</g>
			<path fill="#A87C4F" d="M117.295,44.885c-5.051-0.142-12.987,0.011-16.957,0.226c-19.768,4.057-38.247,8.099-41.995,8.575
				c-16.895,2.16-18.262,9.629-18.262,9.629c0.369,4.034,6.849,4.486,12.261,2.711c5.411-1.776,28.569-2.789,37.513-5.842
				c8.941-3.049,30.58-4.449,37.648-6.86C134.575,50.916,124.248,45.08,117.295,44.885z"/>
			<path fill="#F9C989" d="M36.303,64.414c2.635-0.445,3.726,5.289,6.945,5.485c3.221,0.193,30.867-1.012,35.149-2.053
				c4.284-1.039,22.393-5.676,28.357-5.709c5.971-0.031,19.97-4.311,22.095-6.461c2.126-2.15,4.382-4.39,5.288-2.574
				c1.305,2.614-2.794,6.174-23.797,11.512c-2.543,0.645-18.449,3.518-20.677,3.669c-2.225,0.155-30.127,5.255-39.356,4.675
				c-4.143-0.26-8.837-0.563-12.117-2.023C35.708,69.828,33.668,64.857,36.303,64.414z"/>
			<g>
				<path fill="#F9C989" d="M57.173,59.156c0.555,0.605,2.664-0.514,3.113-1.106C59.482,57.439,56.874,57.849,57.173,59.156z"/>
				<path fill="#F9C989" d="M61.901,59.332c1.063,1.017,2.542,1.651,4.431,1.25C67.665,58.646,61.901,59.332,61.901,59.332z"/>
				<path fill="#F9C989" d="M69.457,55.065c0.124-2.098-3.762,0.295-3.686,0.904C65.771,55.97,68.521,56.158,69.457,55.065z"/>
				<path fill="#F9C989" d="M121.743,46.258c-0.488-0.665-2.705,0.213-3.214,0.754C119.262,47.706,121.9,47.593,121.743,46.258z"/>
				<path fill="#F9C989" d="M49.427,61.472c0.493,1.374,3.322-1.147,4.109-1.538C53.536,59.934,48.841,59.847,49.427,61.472z"/>
				<path fill="#F9C989" d="M68.372,59.825c0,0,5.196-0.428,4.972-2.187C73.127,55.937,69.018,59.385,68.372,59.825z"/>
				<path fill="#F9C989" d="M93.972,49.304c-0.01,0.323-0.044,0.641-0.11,0.952c0.887,0.674,4.214-1.9,4.214-1.9
					C96.759,48.053,95.311,48.229,93.972,49.304z"/>
				<path fill="#F9C989" d="M118.156,51.572c1.33,0.606,2.926,0.71,4.581-0.304C123.378,48.992,118.156,51.572,118.156,51.572z"/>
				<path fill="#F9C989" d="M106.9,50.323c-0.714,1.545,4.568,0.93,5.341,0.92C112.241,51.243,107.636,48.719,106.9,50.323z"/>
				<path fill="#F9C989" d="M81.436,56.268c0.732,0.696,3.369,0.583,3.212-0.752C84.16,54.849,81.943,55.728,81.436,56.268z"/>
				<path fill="#F9C989" d="M111.094,48.435c0,0,4.585,1.055,4.328-0.657C115.208,46.332,111.94,48.215,111.094,48.435z"/>
				<path fill="#F9C989" d="M94.781,55.47c1.33,0.608,2.926,0.712,4.581-0.302C100.002,52.889,94.781,55.47,94.781,55.47z"/>
				<path fill="#F9C989" d="M101.162,47.733c-0.216,0.355-0.472,0.694-0.758,1.019c1.129,0.283,2.39,0.186,3.69-0.612
					C104.49,46.729,102.631,47.184,101.162,47.733z"/>
			</g>
		</g>
		<path fill="#BE1E2D" d="M142.043,56.718c-0.788-1.067,1.614-4.313,2.925-4.082c1.875,0.333,1.588,3.067,0.944,4.843
			c-1.566,4.325-5.881,5.388-6.221,4.822C138.725,60.7,143.151,58.214,142.043,56.718z"/>
		<path fill="#BE1E2D" d="M28.582,79.367c0,0-0.195-5.729,4.301-2.196c4.497,3.533,3.132,2.272,6.667,1.395
			c3.535-0.877,4.874-0.271,6.965,3.987c2.092,4.257-3.443,4.987-8.816,1.555C32.326,80.675,29.859,81.222,28.582,79.367z"/>
		<g>
			<path fill="#231F20" d="M57.725,11.131l0.326-0.031l0.342,0.132c0.361-0.035,0.563-0.035,0.602-0.003
				c0.07-0.043,0.194-0.073,0.376-0.091c0.108-0.011,0.303,0.008,0.581,0.053c0.278,0.047,0.489,0.063,0.636,0.049
				c0.115,0.063,0.295,0.137,0.541,0.223s0.436,0.159,0.57,0.219c0.133,0.062,0.272,0.176,0.416,0.344
				c0.144,0.17,0.245,0.36,0.302,0.574c0.043,0.07,0.122,0.135,0.239,0.196c0.114,0.063,0.192,0.11,0.232,0.143
				c0.039,0.032,0.073,0.112,0.104,0.236c0.029,0.126,0.047,0.206,0.051,0.241c0.003,0.037,0.024,0.071,0.064,0.104l0.065,0.104
				l0.031,0.326c0.004,0.037,0.056,0.113,0.158,0.232c0.104,0.117,0.157,0.213,0.164,0.285c0.008,0.072,0.025,0.161,0.054,0.269
				c0.028,0.106,0.064,0.194,0.108,0.265c0.007,0.072,0.033,0.16,0.081,0.266c0.044,0.105,0.071,0.176,0.074,0.212l0.016,0.163
				c0.007,0.073,0.007,0.173,0.003,0.301c-0.008,0.13-0.008,0.212-0.004,0.247c0.003,0.036,0.043,0.088,0.123,0.153
				c0.007,0.072,0.038,0.207,0.094,0.402c0.055,0.195,0.088,0.348,0.099,0.456c0.096,0.247,0.134,0.444,0.111,0.593
				c0.007,0.072,0.009,0.19,0.008,0.355c-0.003,0.164,0.001,0.301,0.012,0.41l0.021,0.217c0.113,0.428,0.18,0.732,0.197,0.912
				c0.021,0.218-0.001,0.385-0.062,0.5c0.004,0.036,0.027,0.09,0.069,0.158c0.043,0.069,0.068,0.14,0.075,0.211
				c0.004,0.037-0.001,0.083-0.014,0.14c-0.014,0.056-0.018,0.103-0.015,0.138l0.065,0.104c0.003,0.037,0.007,0.073,0.011,0.108
				l0.005,0.055c-0.034,0.04-0.048,0.078-0.044,0.114c0.003,0.037,0.02,0.117,0.051,0.241c0.029,0.126,0.049,0.224,0.056,0.296
				l0.065,0.104c0.042,0.07,0.066,0.123,0.07,0.158c0.007,0.073-0.002,0.184-0.023,0.33c-0.066,0.081-0.096,0.156-0.089,0.229
				c0.004,0.037,0.021,0.127,0.054,0.27c0.031,0.143,0.052,0.25,0.059,0.322c-0.03,0.077-0.042,0.133-0.039,0.169
				c0.004,0.036,0.013,0.128,0.026,0.271c0.014,0.146-0.015,0.221-0.088,0.228c0.126,0.172,0.196,0.329,0.21,0.474
				c0.004,0.036,0.002,0.118-0.004,0.246c-0.006,0.13-0.005,0.229,0.002,0.302c-0.065,0.08-0.095,0.156-0.088,0.229
				c0.021,0.984,0,1.517-0.065,1.596c0.14,0.315,0.229,0.672,0.267,1.07c0.027,0.291,0.013,0.512-0.045,0.662
				c0.1,0.283,0.158,0.516,0.176,0.696c0.018,0.182-0.007,0.312-0.071,0.39c0.041,0.07,0.082,0.212,0.122,0.428
				c0.039,0.215,0.062,0.359,0.068,0.432l-0.146,0.179c0.042,0.069,0.071,0.177,0.086,0.32c0.014,0.146,0.012,0.328-0.003,0.549
				c-0.017,0.221-0.018,0.386-0.008,0.494l0.021,0.218c-0.092,0.191-0.154,0.307-0.187,0.346c0.031,0.326,0.03,0.51-0.002,0.549
				l0.031,0.326c0.038,0.398-0.013,0.824-0.151,1.275l0.143,0.918c0.049,0.508-0.066,0.828-0.345,0.965
				c0.038,0.033,0.063,0.086,0.069,0.158c0.007,0.073-0.021,0.166-0.082,0.281c-0.063,0.116-0.091,0.211-0.084,0.282
				c-0.065,0.081-0.213,0.249-0.443,0.509c-0.231,0.261-0.434,0.435-0.607,0.525l-0.213,0.074c-0.41,0.296-0.651,0.447-0.724,0.453
				c-0.904,0.088-1.507,0.109-1.803,0.064c-0.036,0.003-0.131-0.023-0.282-0.083c-0.152-0.059-0.266-0.103-0.34-0.132
				c-0.037,0.004-0.136-0.06-0.294-0.191c-0.519-0.06-0.902-0.26-1.153-0.602c-0.186-0.019-0.369-0.119-0.551-0.304
				c-0.183-0.183-0.293-0.291-0.333-0.323c-0.05-0.142-0.161-0.332-0.329-0.572c-0.169-0.238-0.279-0.43-0.328-0.571
				c-0.045-0.068-0.08-0.165-0.11-0.29s-0.049-0.224-0.056-0.297c-0.095-0.21-0.146-0.369-0.156-0.479l-0.063-0.652
				c-0.011-0.107-0.067-0.33-0.174-0.668c-0.106-0.337-0.19-0.631-0.248-0.881c-0.062-0.249-0.116-0.627-0.165-1.135
				c-0.051-0.141-0.089-0.356-0.117-0.647c-0.021-0.217,0.002-0.364,0.067-0.444c-0.08-0.065-0.13-0.207-0.15-0.425
				c-0.008-0.071-0.004-0.219,0.013-0.439c0.015-0.221,0.018-0.386,0.008-0.494l-0.037-0.38c-0.031-0.326,0.002-0.548,0.1-0.668
				c-0.003-0.035-0.034-0.069-0.091-0.1c-0.059-0.031-0.09-0.083-0.098-0.156c-0.007-0.072-0.006-0.145,0.006-0.22
				c0.011-0.073,0.014-0.146,0.007-0.22l-0.078-0.814c-0.053-0.544-0.058-0.963-0.012-1.26c-0.044-0.069-0.073-0.193-0.091-0.375
				c-0.014-0.145,0.001-0.365,0.046-0.663c0.044-0.296,0.063-0.479,0.057-0.553l-0.011-0.108c-0.044-0.069-0.066-0.121-0.07-0.158
				l0.044-0.114c-0.003-0.036-0.007-0.071-0.01-0.108c-0.015-0.145-0.037-0.38-0.068-0.706c-0.031-0.325-0.036-0.563-0.013-0.712
				c0.022-0.514,0.022-0.896-0.002-1.15c-0.003-0.035,0.026-0.094,0.093-0.174c-0.007-0.072-0.03-0.125-0.069-0.158
				c-0.04-0.031-0.063-0.084-0.07-0.156l0.043-1.266l-0.005-0.055l-0.065-0.104c-0.01-0.108,0.013-0.248,0.069-0.418
				s0.083-0.289,0.075-0.363c-0.01-0.108-0.021-0.317-0.032-0.627c-0.012-0.309-0.006-0.52,0.021-0.633l0.138-0.287
				c0.02-0.55,0.097-0.887,0.232-1.009c-0.004-0.036-0.026-0.071-0.065-0.104c-0.041-0.032-0.063-0.085-0.07-0.157
				c0.051-0.225,0.074-0.373,0.067-0.445l-0.063-0.652c-0.007-0.072,0.016-0.202,0.071-0.391c0.056-0.188,0.079-0.317,0.072-0.391
				c-0.024-0.253-0.094-0.594-0.208-1.021c0.065-0.079,0.107-0.211,0.127-0.396c0.019-0.185,0.044-0.296,0.077-0.337
				C56.541,11.354,57.036,11.197,57.725,11.131z"/>
		</g>
		<g>
			<path fill="#231F20" d="M12.599,36.947l0.446-0.218c0.866-0.49,1.662-0.846,2.393-1.067c0.025-0.013,0.066-0.016,0.12-0.009
				s0.094,0.004,0.121-0.01c0.122-0.025,0.263-0.061,0.426-0.106c0.161-0.045,0.296-0.062,0.403-0.048
				c0.014,0.027,0.061,0.057,0.141,0.083c0.027-0.013,0.088-0.026,0.182-0.039s0.175-0.019,0.242-0.017
				c0.176,0.014,0.414,0.09,0.715,0.228s0.533,0.2,0.695,0.187l0.819,0.756c0.467,0.475,0.734,0.78,0.801,0.916
				c0.159,0.324,0.276,0.5,0.357,0.527c0.013,0.094,0.052,0.209,0.118,0.344c0.158,0.324,0.359,0.495,0.6,0.511
				c0.041,0.082,0.07,0.177,0.09,0.283c0.02,0.108,0.041,0.188,0.068,0.243c0.013,0.027,0.053,0.058,0.119,0.092
				c0.068,0.034,0.115,0.078,0.141,0.132c0.014,0.027,0.026,0.089,0.039,0.183c0.012,0.094,0.032,0.169,0.059,0.223l0.039,0.081
				c0.027,0.055,0.076,0.071,0.151,0.052c0.073-0.02,0.117-0.016,0.13,0.012c0.014,0.027,0.023,0.064,0.031,0.111
				c0.004,0.047,0.016,0.084,0.028,0.109c0.04,0.082,0.116,0.188,0.229,0.316s0.184,0.221,0.209,0.273l0.04,0.082
				c0.013,0.027,0.019,0.074,0.019,0.143c0,0.066,0.012,0.127,0.039,0.182c0.053,0.107,0.072,0.184,0.059,0.223
				c0.08,0.027,0.174,0.133,0.279,0.314c0.106,0.183,0.199,0.287,0.279,0.316c0.014,0.094,0.053,0.209,0.118,0.344
				c0.093,0.189,0.226,0.359,0.399,0.508c0.013,0.095,0.072,0.25,0.178,0.466c0.131,0.271,0.15,0.479,0.054,0.626
				c0.014,0.027,0.04,0.064,0.08,0.111c0.04,0.049,0.067,0.086,0.08,0.113c0.079,0.162,0.069,0.315-0.024,0.464l0.197,0.405
				c0.133,0.271,0.186,0.479,0.156,0.627c0.014,0.027,0.08,0.095,0.2,0.203c0.026,0.123,0.052,0.209,0.078,0.264
				c0.053,0.042,0.106,0.115,0.159,0.224c0.053,0.107,0.114,0.163,0.181,0.162c-0.081,0.04-0.136,0.134-0.164,0.282
				c0.04,0.08,0.127,0.173,0.26,0.273c0.133,0.104,0.22,0.195,0.259,0.276c0.014,0.027,0.02,0.091,0.02,0.191
				c-0.001,0.101,0.012,0.179,0.038,0.231l0.04,0.082c0.053,0.107,0.148,0.237,0.289,0.387c0.14,0.148,0.223,0.25,0.25,0.305
				c0.093,0.055,0.207,0.134,0.34,0.234c0.133,0.104,0.234,0.188,0.301,0.256c0.158,0.324,0.482,0.576,0.972,0.756
				c0.491,0.18,0.762,0.289,0.814,0.33c0.041-0.053,0.129-0.113,0.265-0.179c0.243-0.118,0.445-0.151,0.606-0.096
				c0.066,0.136,0.165,0.287,0.298,0.456c0.135,0.171,0.221,0.295,0.26,0.377c0.027,0.054,0.053,0.176,0.076,0.363
				c0,0.068-0.014,0.143-0.041,0.221c-0.029,0.082-0.035,0.136-0.023,0.162c-0.012,0.041-0.014,0.091,0,0.152
				c0.013,0.061,0.026,0.104,0.039,0.131c-0.068,0.201-0.084,0.343-0.044,0.424c-0.206,0.469-0.311,0.771-0.312,0.904l-0.081,0.04
				c-0.107,0.053-0.228,0.17-0.356,0.351s-0.249,0.297-0.356,0.35c-0.055,0.027-0.088,0.062-0.101,0.101
				c-0.204,0.198-0.361,0.327-0.469,0.38c-0.162,0.079-0.283,0.104-0.365,0.076c-0.216,0.174-0.553,0.287-1.012,0.344
				c-0.457,0.058-0.787,0.018-0.988-0.119c-0.242,0.053-0.639-0.041-1.188-0.274c-0.348-0.097-0.557-0.18-0.623-0.247l-0.102-0.102
				c-0.066-0.068-0.119-0.109-0.159-0.123s-0.188-0.041-0.444-0.084c-0.082,0.24-0.164,0.381-0.246,0.421
				c-0.054,0.026-0.102,0.032-0.141,0.019l0.139,0.283c-0.041,0.055-0.119,0.186-0.236,0.393c-0.115,0.207-0.229,0.338-0.335,0.39
				c-0.027,0.013-0.022,0.062,0.017,0.142l0.061,0.121c-0.203,0.27-0.334,0.516-0.391,0.744c-0.135,0.066-0.279,0.196-0.438,0.389
				c-0.156,0.195-0.302,0.324-0.437,0.391l-0.122,0.06c-0.15,0.174-0.373,0.333-0.67,0.479l-0.243,0.119
				c-0.027,0.013-0.075,0.019-0.143,0.019l-0.041,0.02l-0.323,0.158l-0.424,0.057c-0.244,0.052-0.393,0.058-0.445,0.016
				c-0.04-0.013-0.066,0-0.08,0.04c-0.015,0.04-0.035,0.067-0.063,0.081l-0.24-0.084c-0.149,0.04-0.344,0.051-0.587,0.035
				c-0.242-0.016-0.376-0.017-0.403-0.004c-0.039-0.013-0.205-0.041-0.493-0.085c-0.289-0.042-0.501-0.099-0.634-0.167
				c-0.244,0.119-0.535,0.176-0.87,0.174l-0.382-0.064c-0.041-0.014-0.176-0.082-0.402-0.205c-0.082-0.027-0.209-0.066-0.383-0.115
				c-0.176-0.047-0.318-0.086-0.434-0.115c-0.113-0.026-0.211-0.088-0.291-0.184c-0.106-0.014-0.436-0.206-0.982-0.574
				c-0.014-0.027-0.075-0.015-0.183,0.038c-0.001-0.065-0.013-0.11-0.04-0.13c-0.026-0.021-0.045-0.045-0.059-0.072h-0.102
				l-0.102-0.002c-0.054-0.041-0.188-0.125-0.4-0.256c-0.215-0.129-0.361-0.275-0.44-0.438c-0.04-0.081-0.087-0.142-0.14-0.184
				l-0.061-0.02c-0.041-0.015-0.067-0.035-0.08-0.063l-0.06-0.121c-0.093-0.188-0.249-0.373-0.47-0.55
				c-0.219-0.177-0.356-0.319-0.409-0.428c-0.04-0.081-0.075-0.188-0.108-0.323s-0.062-0.229-0.088-0.283
				c-0.027-0.055-0.072-0.098-0.141-0.133c-0.066-0.035-0.113-0.078-0.139-0.133l-0.24-0.385c-0.025-0.055-0.055-0.133-0.088-0.234
				c-0.033-0.101-0.055-0.164-0.068-0.191c-0.04-0.148-0.132-0.389-0.277-0.721c-0.145-0.33-0.236-0.569-0.275-0.719l0.061-0.079
				c0.027-0.013,0.035-0.034,0.021-0.062c0-0.065-0.032-0.101-0.101-0.102c-0.067,0.001-0.106-0.014-0.12-0.041
				c-0.014-0.095-0.094-0.414-0.244-0.961c-0.15-0.546-0.229-0.967-0.24-1.264c0.055-0.026,0.088-0.06,0.102-0.101
				c0.014-0.039,0.019-0.083,0.012-0.13c-0.007-0.048-0.002-0.091,0.012-0.132c-0.026-0.054-0.06-0.087-0.1-0.103
				c-0.082-0.026-0.128-0.054-0.141-0.081c-0.08-0.162-0.085-0.343-0.016-0.545c-0.119-0.243-0.15-0.446-0.096-0.606l-0.039-0.082
				c-0.04-0.08-0.059-0.391-0.053-0.929c0.002-0.201,0.018-0.31,0.045-0.322c-0.027,0.013-0.063-0.021-0.102-0.103
				c0.068-0.133,0.095-0.371,0.076-0.715c-0.016-0.344,0.017-0.602,0.1-0.775c-0.049-0.646,0.031-1.204,0.237-1.674
				c-0.04-0.081-0.06-0.188-0.058-0.324c0.014-0.039,0.031-0.106,0.053-0.201c0.021-0.093,0.031-0.174,0.031-0.241l0.203-0.1
				c0.055-0.093,0.16-0.271,0.318-0.531c0.156-0.261,0.289-0.451,0.398-0.572c0-0.066,0.01-0.147,0.033-0.242
				c0.021-0.093,0.037-0.161,0.051-0.202c0.043-0.053,0.082-0.072,0.123-0.059c0.107-0.119,0.23-0.313,0.369-0.582
				c0.04-0.053,0.094-0.146,0.164-0.28c0.066-0.135,0.135-0.235,0.203-0.302c0.042-0.053,0.109-0.119,0.205-0.199
				c0.093-0.08,0.162-0.146,0.203-0.201l0.224-0.26c0.407-0.399,0.618-0.619,0.633-0.66c0.038,0.015,0.1,0,0.181-0.039
				c0.107-0.053,0.191-0.158,0.245-0.32c0.026-0.014,0.079-0.046,0.153-0.1c0.074-0.053,0.145-0.078,0.212-0.079
				C12.167,37.228,12.33,37.079,12.599,36.947z M14.114,43.643c-0.26,0.227-0.47,0.479-0.635,0.761
				c0.014,0.027,0.01,0.07-0.011,0.133c-0.021,0.059-0.011,0.097,0.03,0.109c-0.272,0.268-0.416,0.488-0.431,0.662
				c0.026,0.055,0.032,0.119,0.019,0.193s-0.015,0.123-0.002,0.15c-0.014,0.041-0.01,0.115,0.01,0.223
				c0.018,0.108,0.013,0.201-0.014,0.282l0.119,0.143c-0.095,0.08-0.103,0.2-0.023,0.362c0.186,0.38,0.297,0.676,0.336,0.893
				c0.066,0,0.127,0.055,0.18,0.162c0.014,0.027,0.019,0.075,0.018,0.141c0.001,0.068,0.004,0.143,0.01,0.223
				c0.006,0.082,0.016,0.137,0.028,0.162c0.04,0.014,0.081,0.061,0.12,0.143c0.027,0.055,0.045,0.145,0.058,0.273
				c0.013,0.127,0.032,0.219,0.059,0.273c0.053,0.107,0.165,0.17,0.341,0.184c0.013,0.095,0.1,0.17,0.261,0.225
				c-0.027,0.082-0.016,0.191,0.036,0.333c0.053,0.144,0.053,0.261-0.002,0.354c0.106,0.081,0.187,0.176,0.239,0.283
				c0.026,0.055,0.052,0.176,0.077,0.365c0.014,0.027,0.053,0.041,0.121,0.041c0.066,0,0.107,0.015,0.121,0.042
				c-0.001,0.067,0.071,0.114,0.221,0.143c0.039,0.015,0.079,0.028,0.119,0.042c0.041,0.014,0.065,0.026,0.072,0.041
				c0.007,0.014,0.029,0.027,0.07,0.041c0.013,0.027,0.055,0.047,0.131,0.063c0.072,0.014,0.123,0.047,0.149,0.102
				c0.054,0.107,0.085,0.209,0.098,0.305c0.068,0,0.155,0.023,0.263,0.072c0.106,0.048,0.193,0.072,0.261,0.072l0.277,0.568
				c0.067,0,0.199-0.004,0.394-0.018c0.195-0.012,0.348-0.01,0.455,0.004c0.053,0.043,0.268,0.037,0.646-0.014
				c0.014,0.028,0.046,0.027,0.101,0.002c0.026-0.014,0.061-0.014,0.101,0c0.094-0.013,0.209-0.052,0.344-0.117
				c0.189-0.025,0.297-0.045,0.324-0.059c0.026-0.013,0.06-0.046,0.102-0.1c0.041-0.053,0.088-0.093,0.143-0.119l-0.061-0.123
				c0.205-0.401,0.303-0.75,0.293-1.047c0.014-0.039,0.04-0.086,0.082-0.14l0.061-0.081l-0.06-0.02l-0.02-0.041
				c-0.04-0.082-0.019-0.243,0.065-0.483l-0.021-0.041c-0.053-0.107-0.019-0.243,0.104-0.403c-0.081-0.025-0.113-0.062-0.101-0.102
				c0.027-0.08,0.03-0.182,0.003-0.303c-0.025-0.053-0.039-0.114-0.038-0.183c-0.013-0.025-0.006-0.079,0.021-0.16
				c0.029-0.081,0.043-0.153,0.043-0.222c0.018-0.512,0.008-0.809-0.031-0.889c-0.052-0.242-0.059-0.39-0.018-0.443
				c-0.08,0.039-0.134,0.031-0.16-0.023c-0.066-0.134-0.059-0.254,0.023-0.362c-0.146-0.297-0.217-0.58-0.215-0.85
				c-0.08,0.04-0.134,0.032-0.16-0.021c-0.014-0.095-0.076-0.222-0.188-0.386c-0.113-0.162-0.176-0.291-0.188-0.385
				c-0.013-0.026-0.007-0.047,0.021-0.061c0.026-0.012,0.034-0.033,0.021-0.061c-0.014-0.025-0.026-0.053-0.04-0.08l-0.06-0.021
				c-0.014-0.027,0-0.1,0.043-0.223c-0.014-0.025-0.033-0.066-0.06-0.121l-0.081-0.061l0.021-0.061
				c-0.026-0.055-0.046-0.094-0.06-0.123l-0.237-0.484c-0.172-0.352-0.318-0.582-0.439-0.691l0.021-0.06l0.021-0.062
				c-0.123,0.026-0.262-0.055-0.422-0.244l-0.324,0.158l-0.182-0.063l-0.08,0.039c-0.109,0.053-0.258,0.074-0.445,0.066
				c-0.188-0.008-0.323,0.008-0.404,0.047l-0.143,0.119c-0.081-0.027-0.148-0.027-0.201-0.002l-0.162,0.08
				c-0.164,0.079-0.277,0.152-0.346,0.219l-0.242-0.082l-0.121,0.059c-0.137,0.066-0.293,0.119-0.477,0.158
				C14.325,43.563,14.194,43.603,14.114,43.643z"/>
			<path fill="#231F20" d="M22.208,28.136c0.188-0.093,0.485-0.205,0.891-0.337c0.094-0.012,0.389,0.045,0.887,0.171
				c0.403,0.071,0.632,0.16,0.684,0.268l-0.021,0.062c0.014,0.027,0.027,0.055,0.039,0.081c0.014,0.026,0.061,0.055,0.143,0.081
				c0.08,0.028,0.1,0.069,0.059,0.121c0.107-0.052,0.202-0.065,0.283-0.036c0.053,0.041,0.207,0.166,0.461,0.377
				s0.414,0.385,0.479,0.52c0.026,0.055,0.052,0.176,0.077,0.363c0.16,0.191,0.272,0.354,0.339,0.488s0.091,0.256,0.077,0.363
				c0.229,0.123,0.382,0.266,0.461,0.428c0.027,0.055,0.039,0.15,0.037,0.283c0.162-0.011,0.295,0.091,0.4,0.307
				c0.066,0.137,0.111,0.365,0.137,0.688c0.159,0.123,0.293,0.293,0.398,0.508c0.105,0.217,0.131,0.406,0.074,0.566
				c0.229,0.124,0.369,0.239,0.422,0.347c0.025,0.055,0.039,0.116,0.039,0.183l-0.102,0.1l0.06,0.122
				c0.04,0.08,0.095,0.18,0.168,0.295c0.073,0.114,0.123,0.198,0.149,0.253l0.039,0.08c0,0.068-0.011,0.166-0.033,0.294
				c-0.021,0.128-0.024,0.204-0.012,0.231c-0.001,0.068,0.025,0.155,0.078,0.264c0.053,0.107,0.072,0.183,0.059,0.222
				c0.013,0.027,0.053,0.058,0.119,0.093c0.069,0.034,0.108,0.064,0.121,0.091c0.118,0.378,0.142,0.735,0.072,1.071
				c0.053,0.041,0.105,0.115,0.158,0.223c0.119,0.244,0.104,0.452-0.045,0.625c0.066,0.068,0.096,0.146,0.088,0.234
				c-0.008,0.087-0.005,0.144,0.008,0.171l0.06,0.121c-0.081,0.107-0.094,0.306-0.034,0.596c0.057,0.29,0.059,0.481,0.004,0.575
				l0.099,0.203l-0.063,0.182c0.092,0.322,0.089,0.525-0.004,0.604c0.104,0.284,0.101,0.654-0.012,1.11
				c0.136,0.068,0.207,0.15,0.221,0.244c0.12,0.041,0.274,0.186,0.46,0.428c0.014,0.027,0,0.068-0.041,0.121l-0.021,0.06
				c0.066,0.069,0.137,0.159,0.209,0.275c0.074,0.114,0.156,0.199,0.25,0.254l0.061,0.122c0.053,0.108,0.145,0.247,0.277,0.416
				c0.133,0.17,0.221,0.295,0.261,0.376c0.053,0.108,0.07,0.251,0.056,0.424c0.014,0.028,0.04,0.05,0.08,0.063
				c0.039,0.015,0.073,0.048,0.1,0.103L31.3,44.688c0.026,0.055,0.065,0.067,0.12,0.041c0.08,0.028,0.127,0.055,0.141,0.082
				c0.118,0.244,0.232,0.373,0.34,0.387L31.9,45.299c-0.001,0.069-0.015,0.108-0.042,0.122l0.321,0.244
				c-0.015,0.041-0.015,0.074-0.001,0.102c0.053-0.026,0.121,0.008,0.201,0.102c0.078,0.096,0.167,0.138,0.261,0.125
				c0.146,0.297,0.379,0.535,0.7,0.711c0.014,0.027,0.012,0.063-0.001,0.103c-0.015,0.04-0.001,0.067,0.039,0.08
				c0.014,0.027,0.06,0.056,0.141,0.083s0.12,0.074,0.12,0.143c0.095-0.014,0.188,0.025,0.281,0.113
				c0.094,0.088,0.161,0.141,0.2,0.153c0.376,0.151,0.807,0.108,1.294-0.13c0.216-0.105,0.486-0.305,0.813-0.598
				c0.203-0.2,0.401-0.463,0.593-0.793c0.19-0.326,0.334-0.531,0.429-0.611c0.082-0.106,0.164-0.281,0.248-0.521
				c0.148-0.106,0.271-0.283,0.367-0.533c0.097-0.248,0.192-0.41,0.287-0.49c0.126-0.496,0.318-0.893,0.576-1.186
				c0.029-0.216,0.104-0.37,0.227-0.463c0.026-0.013,0.03-0.04,0.011-0.08c-0.021-0.041-0.017-0.066,0.011-0.08
				c0.109-0.188,0.211-0.321,0.307-0.401c0.068-0.2,0.15-0.343,0.246-0.423c0.081-0.105,0.174-0.293,0.277-0.563
				c0.104-0.268,0.209-0.461,0.318-0.582c0.004-0.469,0.291-0.844,0.857-1.121c0.434-0.212,0.749-0.115,0.947,0.29
				c0.132,0.271,0.184,0.581,0.151,0.93c0.014,0.027-0.007,0.088-0.062,0.181c-0.055,0.095-0.082,0.176-0.082,0.242
				c-0.015,0.04-0.04,0.162-0.074,0.362c-0.036,0.202-0.08,0.349-0.135,0.443c0.051,0.175,0.003,0.384-0.148,0.624
				c0.027,0.055,0.032,0.102,0.02,0.142c-0.014,0.04-0.031,0.091-0.052,0.151c-0.021,0.06-0.038,0.111-0.052,0.15
				c-0.014,0.041-0.021,0.094-0.021,0.161l-0.021,0.062c-0.014,0.04-0.045,0.097-0.092,0.169c-0.049,0.075-0.079,0.132-0.092,0.173
				c-0.236,0.684-0.408,1.085-0.517,1.205l0.079,0.163c-0.055,0.093-0.15,0.273-0.287,0.541s-0.244,0.496-0.318,0.685
				c-0.078,0.188-0.129,0.388-0.158,0.604c-0.095,0.079-0.188,0.199-0.275,0.36c-0.089,0.161-0.168,0.274-0.235,0.341
				c-0.015,0.107-0.087,0.269-0.217,0.482c-0.129,0.215-0.194,0.389-0.196,0.522c-0.135,0.066-0.271,0.2-0.407,0.401
				c-0.137,0.199-0.266,0.348-0.388,0.439c-0.027,0.014-0.048,0.041-0.061,0.08c0.025,0.055,0.025,0.089-0.001,0.102l-0.163,0.079
				c-0.136,0.066-0.243,0.153-0.324,0.26l-0.123,0.06c-0.055,0.026-0.139,0.092-0.253,0.199c-0.116,0.107-0.2,0.174-0.255,0.2
				l-0.121,0.06l-0.161-0.023c-0.19,0.094-0.325,0.127-0.405,0.098l-0.001,0.102l-0.001,0.102c-0.27,0.132-0.473,0.163-0.605,0.094
				c-0.055,0.095-0.163,0.18-0.326,0.26c-0.026,0.014-0.148,0.057-0.365,0.129c-0.215,0.072-0.396,0.161-0.547,0.268
				c-0.066,0-0.283,0.021-0.646,0.064s-0.617,0.018-0.766-0.078c-0.068,0-0.107,0.02-0.121,0.059
				c-0.043,0.055-0.076,0.088-0.104,0.101c-0.025-0.054-0.079-0.077-0.16-0.071c-0.08,0.006-0.127-0.006-0.141-0.033
				c-0.041,0.055-0.096,0.081-0.162,0.08c-0.067,0-0.115,0.006-0.143,0.02c-0.201-0.07-0.513-0.127-0.936-0.172
				c-0.424-0.043-0.736-0.1-0.938-0.168c-0.121-0.109-0.193-0.157-0.221-0.145c-0.055-0.04-0.182-0.094-0.383-0.165
				c-0.2-0.069-0.348-0.131-0.441-0.186l-0.079-0.161c-0.027,0.014-0.075,0.002-0.142-0.033c-0.066-0.033-0.127-0.037-0.182-0.011
				c-0.04-0.081-0.126-0.155-0.26-0.226c-0.134-0.066-0.221-0.143-0.261-0.223l0.021-0.061c-0.013-0.027-0.025-0.055-0.039-0.082
				l-0.48-0.367c-0.055-0.041-0.125-0.115-0.211-0.225c-0.086-0.108-0.164-0.195-0.23-0.265c-0.013-0.026-0.039-0.047-0.079-0.06
				c-0.04-0.014-0.066-0.035-0.079-0.063c-0.055-0.041-0.117-0.119-0.191-0.234c-0.072-0.114-0.122-0.197-0.148-0.252
				c-0.04-0.082-0.123-0.183-0.249-0.307c-0.127-0.121-0.224-0.217-0.29-0.285l-0.238-0.486c-0.105-0.217-0.172-0.384-0.197-0.506
				c-0.026-0.055-0.059-0.089-0.1-0.104l-0.141-0.081c-0.039-0.081-0.258-0.427-0.656-1.035s-0.697-1.116-0.896-1.521
				c0.015-0.041,0.022-0.128,0.023-0.263c-0.014-0.026-0.048-0.044-0.101-0.051c-0.053-0.008-0.088-0.024-0.102-0.052
				c-0.013-0.027-0.022-0.065-0.027-0.112c-0.008-0.046-0.017-0.084-0.03-0.109c-0.04-0.082-0.114-0.204-0.229-0.366
				c-0.111-0.163-0.195-0.298-0.248-0.405s-0.078-0.197-0.078-0.264c-0.12-0.109-0.318-0.379-0.598-0.813
				c-0.107-0.081-0.174-0.149-0.201-0.204c-0.012-0.025-0.027-0.094-0.048-0.201c-0.019-0.108-0.041-0.188-0.067-0.243
				c-0.027-0.055-0.098-0.13-0.211-0.226c-0.112-0.094-0.189-0.183-0.229-0.263c-0.014-0.026-0.02-0.075-0.02-0.142
				c-0.107-0.082-0.174-0.148-0.2-0.203s-0.052-0.126-0.079-0.214c-0.025-0.088-0.045-0.145-0.059-0.172
				c-0.066-0.135-0.139-0.216-0.221-0.243c-0.013-0.027-0.019-0.107-0.018-0.244c-0.213-0.229-0.563-0.777-1.055-1.645
				c-0.013-0.025-0.012-0.061,0.001-0.1c0.015-0.041,0.042-0.054,0.081-0.04c-0.014-0.026-0.039-0.048-0.08-0.062
				c-0.039-0.014-0.073-0.047-0.1-0.102c-0.013-0.096-0.072-0.217-0.179-0.365c-0.104-0.148-0.165-0.271-0.179-0.365
				c-0.026-0.053-0.037-0.113-0.038-0.182c0.001-0.066-0.007-0.114-0.02-0.142l-0.119-0.143c-0.079-0.161-0.144-0.432-0.194-0.809
				c-0.169-0.62-0.197-1.159-0.086-1.615c0.013-0.04,0.014-0.075,0.001-0.101c-0.013-0.027-0.04-0.082-0.079-0.164
				c0.027-0.013,0.027-0.045,0-0.1c-0.039-0.082-0.041-0.188-0.007-0.324c0.035-0.133,0.053-0.233,0.054-0.301
				c-0.014-0.027-0.022-0.098-0.029-0.213c-0.006-0.113-0.007-0.205-0.008-0.272c0.068-0.065,0.127-0.17,0.176-0.312
				c0.049-0.14,0.105-0.244,0.174-0.312c-0.053-0.107-0.024-0.255,0.084-0.442c0.002-0.134,0.029-0.266,0.085-0.393
				s0.136-0.269,0.247-0.422c0.107-0.154,0.176-0.27,0.205-0.352c0.379-0.252,0.678-0.498,0.895-0.739
				c0.041-0.052,0.082-0.073,0.122-0.06c0.065,0.002,0.114-0.004,0.142-0.018C21.821,28.374,21.991,28.241,22.208,28.136z
				 M25.115,32.44c-0.122,0.094-0.409,0.468-0.858,1.121c0.121,0.043,0.194,0.091,0.221,0.145c0.013,0.027,0.02,0.091,0.018,0.191
				c0,0.102,0.014,0.18,0.039,0.232c0.014,0.027,0.055,0.059,0.12,0.092c0.067,0.035,0.106,0.065,0.12,0.093s0.002,0.092-0.031,0.19
				c-0.035,0.103-0.039,0.18-0.013,0.232c0.04,0.082,0.159,0.207,0.36,0.377c0.2,0.171,0.328,0.311,0.38,0.418
				c0.013,0.027,0.022,0.114,0.026,0.262c0.006,0.148,0.023,0.25,0.049,0.305l0.1,0.201c0.105,0.217,0.082,0.446-0.068,0.687
				c0.176,0.083,0.563,0.327,1.165,0.736c-0.136,0.202-0.151,0.411-0.046,0.626c0.039,0.082,0.113,0.18,0.219,0.295
				c0.107,0.115,0.18,0.213,0.22,0.295c0.026-0.014,0.077-0.029,0.15-0.049c0.075-0.02,0.132-0.057,0.173-0.109
				c0.029-0.148-0.096-0.506-0.373-1.074c-0.146-0.297-0.156-0.559-0.033-0.787c-0.121-0.041-0.201-0.103-0.24-0.185
				c0.137-0.268,0.104-0.628-0.101-1.081c-0.205-0.452-0.313-0.725-0.325-0.82c-0.014-0.026-0.008-0.063,0.02-0.109
				c0.029-0.047,0.062-0.098,0.103-0.151l0.043-0.12c-0.025-0.256-0.083-0.479-0.177-0.668C26.176,33.38,25.755,32.931,25.115,32.44
				z M31.698,45.298h0.1c0.016-0.039,0.006-0.06-0.029-0.061C31.736,45.238,31.711,45.259,31.698,45.298z"/>
			<path fill="#231F20" d="M32.952,22.886c0.189-0.093,0.486-0.205,0.892-0.337c0.095-0.012,0.39,0.045,0.886,0.171
				c0.404,0.071,0.633,0.16,0.686,0.268l-0.021,0.062c0.013,0.027,0.025,0.055,0.039,0.081s0.061,0.055,0.141,0.081
				c0.081,0.028,0.101,0.069,0.061,0.121c0.107-0.052,0.201-0.064,0.282-0.036c0.054,0.041,0.208,0.166,0.46,0.377
				c0.255,0.211,0.414,0.385,0.48,0.52c0.026,0.055,0.052,0.176,0.077,0.363c0.159,0.191,0.272,0.354,0.339,0.488
				s0.092,0.256,0.078,0.363c0.228,0.123,0.381,0.266,0.46,0.428c0.026,0.055,0.038,0.15,0.036,0.283
				c0.163-0.011,0.297,0.091,0.402,0.307c0.066,0.137,0.11,0.365,0.135,0.688c0.16,0.123,0.293,0.293,0.398,0.508
				c0.105,0.217,0.131,0.406,0.076,0.566c0.228,0.124,0.367,0.239,0.42,0.347c0.027,0.055,0.04,0.116,0.039,0.183l-0.102,0.1
				l0.06,0.122c0.04,0.08,0.096,0.18,0.169,0.295c0.073,0.114,0.123,0.198,0.149,0.253l0.04,0.08
				c-0.002,0.068-0.013,0.166-0.034,0.294c-0.021,0.128-0.024,0.204-0.011,0.231c-0.002,0.068,0.024,0.155,0.077,0.264
				c0.053,0.107,0.071,0.183,0.058,0.222c0.014,0.027,0.055,0.058,0.121,0.093c0.068,0.034,0.107,0.064,0.12,0.091
				c0.118,0.378,0.142,0.735,0.071,1.071c0.053,0.041,0.106,0.115,0.159,0.223c0.119,0.244,0.104,0.452-0.045,0.625
				c0.065,0.068,0.095,0.146,0.087,0.234c-0.007,0.087-0.004,0.144,0.01,0.171l0.059,0.121c-0.08,0.107-0.094,0.306-0.035,0.596
				c0.057,0.29,0.06,0.481,0.004,0.575l0.1,0.203l-0.063,0.182c0.092,0.322,0.089,0.525-0.004,0.604
				c0.104,0.284,0.101,0.654-0.012,1.11c0.135,0.068,0.207,0.15,0.221,0.244c0.119,0.041,0.273,0.186,0.46,0.428
				c0.013,0.027-0.001,0.068-0.042,0.121l-0.021,0.06c0.066,0.069,0.138,0.159,0.21,0.275c0.073,0.114,0.157,0.199,0.251,0.254
				l0.059,0.122c0.054,0.108,0.146,0.247,0.279,0.416c0.133,0.17,0.22,0.295,0.26,0.376c0.053,0.108,0.07,0.251,0.056,0.424
				c0.014,0.028,0.04,0.05,0.08,0.063c0.04,0.015,0.073,0.048,0.1,0.103l-0.161,0.078c0.027,0.055,0.066,0.067,0.121,0.041
				c0.078,0.028,0.126,0.055,0.139,0.082c0.119,0.244,0.234,0.373,0.34,0.387v0.101c0,0.069-0.016,0.108-0.043,0.122l0.322,0.244
				c-0.014,0.041-0.014,0.074-0.002,0.102c0.055-0.026,0.121,0.008,0.201,0.102c0.08,0.096,0.168,0.138,0.262,0.125
				c0.146,0.297,0.378,0.535,0.7,0.711c0.013,0.027,0.013,0.063-0.001,0.103s-0.001,0.067,0.039,0.08
				c0.014,0.027,0.061,0.056,0.141,0.083c0.082,0.027,0.12,0.074,0.119,0.143c0.096-0.014,0.189,0.025,0.282,0.113
				c0.094,0.088,0.16,0.141,0.2,0.153c0.375,0.151,0.807,0.108,1.294-0.13c0.216-0.105,0.487-0.305,0.812-0.598
				c0.205-0.2,0.402-0.463,0.594-0.793c0.191-0.326,0.333-0.531,0.43-0.611c0.081-0.106,0.164-0.281,0.246-0.521
				c0.149-0.106,0.271-0.283,0.369-0.533c0.096-0.248,0.191-0.41,0.287-0.49c0.125-0.496,0.317-0.893,0.576-1.186
				c0.028-0.216,0.104-0.37,0.226-0.463c0.026-0.013,0.03-0.04,0.011-0.08c-0.02-0.041-0.016-0.066,0.012-0.08
				c0.109-0.188,0.211-0.321,0.306-0.401c0.069-0.2,0.151-0.343,0.245-0.423c0.082-0.105,0.176-0.293,0.279-0.563
				c0.102-0.268,0.209-0.461,0.318-0.582c0.003-0.469,0.289-0.844,0.857-1.121c0.432-0.212,0.748-0.115,0.945,0.29
				c0.133,0.271,0.184,0.581,0.152,0.93c0.014,0.027-0.007,0.088-0.061,0.181c-0.055,0.095-0.084,0.176-0.084,0.242
				c-0.014,0.04-0.039,0.162-0.073,0.362c-0.036,0.202-0.081,0.349-0.136,0.444c0.053,0.174,0.004,0.383-0.146,0.623
				c0.025,0.055,0.031,0.102,0.018,0.142s-0.03,0.091-0.051,0.151c-0.021,0.06-0.039,0.111-0.052,0.15
				c-0.015,0.041-0.021,0.094-0.022,0.161l-0.021,0.062c-0.014,0.04-0.044,0.097-0.093,0.169c-0.048,0.075-0.078,0.132-0.092,0.173
				c-0.234,0.684-0.407,1.085-0.516,1.205l0.079,0.163c-0.054,0.093-0.15,0.273-0.287,0.541c-0.138,0.268-0.243,0.496-0.319,0.685
				c-0.077,0.188-0.129,0.388-0.156,0.604c-0.096,0.079-0.188,0.199-0.276,0.36s-0.167,0.274-0.235,0.341
				c-0.016,0.107-0.086,0.269-0.217,0.482c-0.129,0.215-0.195,0.389-0.195,0.522c-0.137,0.066-0.272,0.2-0.408,0.401
				c-0.137,0.199-0.266,0.348-0.388,0.439c-0.027,0.014-0.048,0.041-0.062,0.08c0.027,0.055,0.026,0.089,0,0.102l-0.163,0.079
				c-0.136,0.066-0.243,0.153-0.325,0.26l-0.121,0.06c-0.055,0.026-0.139,0.092-0.255,0.199s-0.2,0.174-0.255,0.2l-0.121,0.06
				l-0.161-0.023c-0.189,0.094-0.323,0.127-0.403,0.098l-0.002,0.102v0.102c-0.271,0.132-0.473,0.163-0.607,0.094
				c-0.055,0.095-0.163,0.18-0.325,0.26c-0.027,0.014-0.148,0.057-0.364,0.129c-0.215,0.072-0.398,0.161-0.547,0.268
				c-0.068,0-0.283,0.021-0.647,0.064c-0.363,0.043-0.618,0.018-0.767-0.078c-0.066,0-0.107,0.02-0.121,0.059
				c-0.042,0.055-0.076,0.088-0.102,0.101c-0.026-0.054-0.08-0.077-0.161-0.071s-0.128-0.006-0.142-0.033
				c-0.04,0.055-0.095,0.081-0.162,0.08c-0.066,0-0.114,0.006-0.142,0.02c-0.2-0.07-0.513-0.127-0.937-0.172
				c-0.423-0.043-0.736-0.1-0.937-0.168c-0.12-0.109-0.194-0.157-0.222-0.145c-0.053-0.04-0.18-0.094-0.381-0.165
				c-0.201-0.069-0.349-0.131-0.442-0.186l-0.079-0.161c-0.027,0.014-0.074,0.002-0.141-0.033c-0.068-0.033-0.128-0.037-0.183-0.011
				c-0.04-0.081-0.126-0.155-0.26-0.226c-0.135-0.066-0.222-0.143-0.261-0.223l0.02-0.061c-0.013-0.027-0.025-0.055-0.039-0.082
				l-0.48-0.367c-0.053-0.041-0.123-0.115-0.209-0.225c-0.088-0.108-0.165-0.195-0.23-0.265c-0.014-0.026-0.041-0.047-0.08-0.06
				c-0.041-0.014-0.066-0.035-0.08-0.063c-0.053-0.041-0.117-0.119-0.189-0.234c-0.073-0.114-0.123-0.197-0.15-0.252
				c-0.039-0.082-0.122-0.183-0.249-0.307c-0.126-0.121-0.224-0.217-0.29-0.285l-0.236-0.486c-0.106-0.217-0.173-0.384-0.198-0.506
				c-0.026-0.055-0.06-0.089-0.101-0.104l-0.14-0.081c-0.04-0.081-0.259-0.427-0.657-1.035c-0.397-0.608-0.696-1.116-0.895-1.521
				c0.016-0.041,0.022-0.128,0.023-0.263c-0.014-0.026-0.047-0.044-0.101-0.051c-0.053-0.008-0.088-0.024-0.101-0.052
				c-0.014-0.027-0.023-0.065-0.029-0.112c-0.006-0.046-0.016-0.084-0.029-0.109c-0.039-0.082-0.115-0.204-0.229-0.366
				c-0.113-0.163-0.195-0.298-0.249-0.405c-0.052-0.107-0.079-0.197-0.079-0.264c-0.119-0.109-0.316-0.379-0.597-0.813
				c-0.106-0.081-0.175-0.149-0.2-0.204c-0.014-0.025-0.029-0.094-0.049-0.201c-0.02-0.108-0.041-0.188-0.068-0.243
				c-0.025-0.055-0.096-0.13-0.211-0.226c-0.112-0.094-0.188-0.183-0.229-0.263c-0.012-0.026-0.019-0.075-0.02-0.142
				c-0.105-0.082-0.173-0.148-0.199-0.203s-0.053-0.126-0.078-0.214c-0.027-0.088-0.046-0.145-0.059-0.172
				c-0.066-0.135-0.14-0.216-0.221-0.243c-0.014-0.027-0.02-0.107-0.018-0.244c-0.214-0.229-0.564-0.777-1.055-1.645
				c-0.014-0.025-0.014-0.061,0-0.1c0.014-0.041,0.041-0.054,0.081-0.04c-0.013-0.026-0.039-0.048-0.08-0.062
				c-0.039-0.014-0.073-0.047-0.101-0.102c-0.012-0.096-0.071-0.217-0.178-0.365c-0.105-0.148-0.166-0.271-0.178-0.365
				c-0.027-0.053-0.039-0.113-0.039-0.182c0.002-0.066-0.006-0.114-0.02-0.142l-0.119-0.143c-0.079-0.161-0.145-0.432-0.194-0.809
				c-0.17-0.62-0.198-1.159-0.087-1.615c0.014-0.04,0.016-0.075,0.002-0.101c-0.014-0.027-0.039-0.082-0.08-0.164
				c0.027-0.013,0.027-0.045,0.001-0.1c-0.04-0.082-0.041-0.188-0.007-0.324c0.035-0.133,0.053-0.233,0.053-0.301
				c-0.012-0.027-0.021-0.098-0.028-0.213c-0.005-0.113-0.008-0.205-0.007-0.272c0.068-0.065,0.126-0.17,0.174-0.312
				c0.049-0.14,0.107-0.244,0.175-0.312c-0.053-0.107-0.024-0.255,0.085-0.442c0.001-0.134,0.029-0.266,0.084-0.393
				s0.137-0.269,0.246-0.422c0.109-0.154,0.177-0.27,0.206-0.352c0.378-0.252,0.677-0.498,0.895-0.739
				c0.04-0.052,0.081-0.073,0.122-0.06c0.066,0.002,0.113-0.004,0.141-0.018C32.567,23.124,32.735,22.991,32.952,22.886z
				 M35.86,27.19c-0.123,0.094-0.408,0.468-0.858,1.121c0.121,0.043,0.194,0.091,0.22,0.145c0.014,0.027,0.02,0.091,0.02,0.191
				c0,0.102,0.012,0.18,0.038,0.232c0.014,0.027,0.054,0.059,0.12,0.092c0.066,0.035,0.107,0.065,0.12,0.093
				c0.014,0.027,0.003,0.092-0.031,0.19c-0.035,0.103-0.038,0.18-0.013,0.232c0.04,0.082,0.159,0.207,0.359,0.377
				c0.201,0.171,0.328,0.311,0.381,0.418c0.014,0.027,0.022,0.114,0.027,0.262c0.004,0.148,0.021,0.25,0.047,0.305l0.1,0.201
				c0.105,0.217,0.083,0.446-0.066,0.687c0.174,0.083,0.562,0.327,1.164,0.736c-0.137,0.202-0.152,0.411-0.047,0.626
				c0.04,0.082,0.113,0.18,0.22,0.295s0.181,0.213,0.22,0.295c0.026-0.014,0.076-0.029,0.15-0.049s0.131-0.057,0.173-0.109
				c0.03-0.148-0.096-0.506-0.373-1.074c-0.146-0.297-0.156-0.559-0.032-0.787c-0.121-0.041-0.201-0.103-0.242-0.185
				c0.137-0.268,0.104-0.628-0.101-1.081c-0.204-0.452-0.312-0.725-0.325-0.82c-0.014-0.026-0.006-0.063,0.021-0.109
				c0.028-0.047,0.062-0.098,0.103-0.151l0.043-0.12c-0.025-0.256-0.084-0.479-0.176-0.668C36.921,28.13,36.5,27.681,35.86,27.19z
				 M42.444,40.048h0.1c0.014-0.039,0.004-0.06-0.029-0.061C42.48,39.988,42.458,40.009,42.444,40.048z"/>
		</g>
		<g>
			<path fill="#231F20" d="M72.739,18.425c0.181-0.003,0.407,0.063,0.681,0.193c0.271,0.132,0.468,0.196,0.588,0.194
				c0.153,0.209,0.29,0.313,0.41,0.311c0.031,0.061,0.1,0.142,0.207,0.245c0.106,0.104,0.176,0.217,0.208,0.336
				c0.091,0.029,0.186,0.329,0.284,0.898h0.045c0.029-0.001,0.09-0.024,0.18-0.07c0.089-0.047,0.148-0.07,0.18-0.071
				c0.059-0.09,0.14-0.16,0.245-0.206c0.104-0.047,0.247-0.094,0.427-0.141c0.18-0.049,0.329-0.088,0.449-0.12
				c0.09-0.03,0.217-0.115,0.381-0.254c0.163-0.138,0.326-0.244,0.491-0.323c0.164-0.076,0.338-0.102,0.519-0.075
				c0.417-0.276,0.941-0.403,1.574-0.384c0.029,0,0.067,0.021,0.114,0.067c0.045,0.044,0.098,0.081,0.158,0.109
				c0.391-0.064,0.762,0.088,1.113,0.458c0.351,0.372,0.572,0.572,0.663,0.601c0.061,0.06,0.138,0.194,0.231,0.402
				c0.093,0.21,0.187,0.359,0.277,0.447c0,0.031-0.007,0.068-0.021,0.114c-0.016,0.045-0.021,0.083-0.021,0.113
				c0.001,0.061,0.017,0.143,0.049,0.247c0.03,0.105,0.048,0.188,0.048,0.248l0.002,0.136c0.03-0.001,0.062,0.029,0.093,0.088
				l0.046,0.09l0.002,0.136c0.001,0.09,0.025,0.225,0.073,0.405c0.048,0.18,0.073,0.33,0.075,0.45
				c0.029,0.029,0.061,0.066,0.091,0.111s0.062,0.083,0.092,0.111l0.007,0.451c0.001,0.091-0.027,0.204-0.085,0.34
				c-0.059,0.137-0.087,0.235-0.086,0.295c-0.083,0.573-0.139,0.875-0.168,0.905c0.063,0.21,0.064,0.344,0.006,0.405
				c0,0.03,0.016,0.067,0.047,0.112c0.029,0.044,0.046,0.082,0.046,0.112c-0.205,0.424-0.321,0.652-0.352,0.682
				c0.093,0.089,0.14,0.254,0.143,0.494c0.003,0.151-0.041,0.257-0.131,0.318c0.001,0.03,0.031,0.045,0.092,0.044
				c0.06-0.001,0.074,0.029,0.046,0.089c0.001,0.061-0.028,0.137-0.087,0.228l-0.089,0.092c0.001,0.09,0.039,0.188,0.117,0.291
				c0.076,0.105,0.13,0.187,0.161,0.246c0,0.03-0.021,0.068-0.066,0.114c-0.044,0.046-0.065,0.099-0.064,0.159l0.001,0.09
				c0,0.03,0.017,0.113,0.049,0.247c0.031,0.136,0.048,0.233,0.049,0.294l-0.044,0.045c0,0.03,0,0.061,0.001,0.09
				c0,0.03,0.046,0.076,0.138,0.134c0.06,0.029,0.091,0.074,0.092,0.135c0.3-0.034,0.593-0.092,0.877-0.171s0.591-0.189,0.921-0.329
				c0.328-0.14,0.567-0.241,0.718-0.304c0.118-0.092,0.319-0.223,0.604-0.393c0.283-0.169,0.483-0.314,0.604-0.438l0.269-0.094
				c0.09-0.092,0.417-0.307,0.984-0.646c1.129-0.979,1.753-1.515,1.873-1.607l0.361-0.005c0.059-0.061,0.141-0.13,0.245-0.207
				c0.104-0.076,0.171-0.129,0.201-0.16l0.09-0.001c0.181-0.003,0.397-0.065,0.651-0.189s0.456-0.188,0.606-0.189
				c0.481-0.007,0.771,0.2,0.867,0.619l0.007,0.496c-0.027,0.181-0.159,0.408-0.396,0.683s-0.369,0.487-0.397,0.638l-0.134,0.093
				c-0.09,0.062-0.149,0.122-0.178,0.183c-0.121,0.002-0.219,0.025-0.292,0.071c-0.075,0.047-0.149,0.115-0.224,0.207
				c-0.074,0.091-0.126,0.152-0.154,0.183c-0.06,0.062-0.165,0.123-0.314,0.186s-0.262,0.132-0.335,0.208
				c-0.075,0.076-0.11,0.188-0.108,0.339c-0.418,0.247-0.656,0.401-0.715,0.462l-0.046,0.047c-0.029,0.03-0.06,0.045-0.089,0.046
				c-0.211,0.003-0.345,0.125-0.401,0.366c-0.03,0-0.066,0.009-0.111,0.024c-0.046,0.016-0.084,0.024-0.113,0.024
				c-0.03,0.001-0.088,0.106-0.176,0.318c-0.06,0.062-0.209,0.139-0.448,0.231c-0.24,0.095-0.389,0.202-0.446,0.323
				c-0.091,0.001-0.226,0.048-0.404,0.141c-0.18,0.094-0.299,0.155-0.359,0.186c-0.089,0.063-0.239,0.133-0.448,0.21
				c-0.21,0.079-0.358,0.163-0.447,0.254c-0.03,0.001-0.083,0.018-0.157,0.049c-0.075,0.03-0.128,0.047-0.158,0.047
				c-0.029,0.029-0.148,0.122-0.356,0.275c-0.209,0.153-0.374,0.231-0.494,0.233l-0.181,0.002c-0.06,0.031-0.141,0.093-0.245,0.185
				s-0.171,0.138-0.201,0.139c-0.21,0.063-0.328,0.14-0.356,0.23c-0.15,0.031-0.337,0.102-0.562,0.211
				c-0.224,0.108-0.381,0.179-0.471,0.21l-0.226,0.004l-0.225,0.048c-0.182-0.087-0.304-0.132-0.363-0.131l-0.542,0.008
				c-0.424-0.114-0.726-0.26-0.909-0.438l-0.14-0.269c-0.062-0.12-0.184-0.268-0.366-0.445c-0.247-0.388-0.37-0.597-0.37-0.627
				c-0.306-0.327-0.522-0.716-0.649-1.165c-0.183-0.178-0.354-0.498-0.51-0.963c-0.158-0.464-0.251-0.726-0.282-0.786
				c-0.001-0.03,0.014-0.068,0.043-0.113c0.029-0.046,0.045-0.083,0.044-0.113c-0.124-0.239-0.188-0.584-0.195-1.035
				c-0.003-0.21,0.01-0.361,0.039-0.452c-0.093-0.18-0.095-0.285-0.005-0.316c-0.091-0.089-0.14-0.269-0.144-0.539
				s-0.021-0.421-0.052-0.45c0.028-0.061,0.074-0.12,0.134-0.182c-0.031-0.061-0.047-0.15-0.049-0.271
				c-0.002-0.119,0.025-0.24,0.084-0.361c-0.062-0.119-0.093-0.21-0.093-0.271l0.131-0.272c-0.031-0.059-0.047-0.135-0.049-0.225
				c-0.002-0.12,0.025-0.271,0.084-0.452c0.058-0.182,0.086-0.318,0.085-0.408c-0.001-0.03-0.001-0.061-0.002-0.091L77.9,22.685
				c-0.03,0.001-0.076,0.017-0.135,0.047c-0.061,0.031-0.12,0.032-0.181,0.003c0.001,0.091-0.042,0.203-0.13,0.341
				c-0.089,0.136-0.132,0.266-0.131,0.386c-0.149,0.092-0.305,0.282-0.465,0.57c-0.162,0.288-0.304,0.479-0.421,0.57l0.001,0.09
				c0.001,0.062,0.031,0.129,0.093,0.202c0.061,0.075,0.092,0.127,0.092,0.156c-0.028,0.092-0.094,0.213-0.197,0.364
				c-0.104,0.152-0.169,0.288-0.196,0.408c0.092,0.18,0.14,0.374,0.143,0.585c0.006,0.36-0.097,0.604-0.305,0.727
				c0.064,0.36,0.099,0.602,0.1,0.721c-0.029,0.062-0.088,0.114-0.178,0.16c-0.09,0.047-0.134,0.085-0.134,0.115
				c0.001,0.061,0.031,0.128,0.093,0.202c0.061,0.074,0.092,0.127,0.093,0.156l0.008,0.587c-0.088,0.092-0.132,0.213-0.129,0.363
				l0.002,0.136c-0.061,0.03-0.118,0.211-0.174,0.543c-0.06,0.062-0.088,0.137-0.086,0.227c0,0.03,0.016,0.083,0.047,0.158
				c0.03,0.074,0.047,0.127,0.047,0.157c0.001,0.061-0.036,0.136-0.109,0.228c-0.074,0.091-0.11,0.166-0.109,0.227
				c-0.03,0.001-0.134,0.137-0.311,0.411c0.031,0.06,0.04,0.143,0.026,0.248s-0.005,0.188,0.026,0.247
				c-0.088,0.183-0.282,0.306-0.582,0.37c-0.029,0.029-0.073,0.099-0.133,0.205c-0.059,0.105-0.117,0.175-0.178,0.206l-0.451,0.006
				c-0.181-0.088-0.332-0.131-0.452-0.129c-0.061-0.06-0.229-0.2-0.502-0.422c-0.274-0.222-0.457-0.422-0.551-0.602
				c-0.09-0.029-0.183-0.117-0.274-0.267c-0.093-0.149-0.169-0.238-0.229-0.268c-0.033-0.24-0.165-0.479-0.394-0.717
				c-0.229-0.237-0.36-0.386-0.391-0.445c-0.067-0.48-0.104-0.932-0.109-1.353l-0.004-0.316c-0.001-0.06,0.013-0.136,0.041-0.227
				c0.028-0.09,0.043-0.15,0.043-0.181c-0.001-0.029-0.017-0.074-0.047-0.135c-0.031-0.06-0.047-0.104-0.047-0.135
				c-0.001-0.029,0.006-0.075,0.021-0.136c0.014-0.061,0.021-0.105,0.021-0.136c-0.001-0.03-0.018-0.113-0.049-0.248
				c-0.032-0.135-0.049-0.247-0.051-0.337L70.96,26.62c-0.004-0.271-0.036-0.451-0.098-0.54l-0.015-1.037
				c0.087-0.182,0.115-0.348,0.083-0.498c0.09-0.092,0.14-0.206,0.153-0.341c0.013-0.136,0.018-0.301,0.016-0.497
				c-0.003-0.195,0.009-0.353,0.039-0.475c-0.001-0.029,0.021-0.104,0.063-0.227c0.044-0.12,0.064-0.211,0.063-0.271
				c-0.004-0.301,0.009-0.467,0.038-0.497c-0.001-0.06-0.032-0.149-0.094-0.27c-0.034-0.301-0.019-0.752,0.048-1.354
				c0.067-0.603,0.099-1.024,0.096-1.266c-0.004-0.241,0.174-0.438,0.532-0.595C72.214,18.539,72.498,18.428,72.739,18.425z"/>
			<path fill="#231F20" d="M92.021,19.053c0.817,0.319,1.302,0.613,1.456,0.881c0.121,0.089,0.268,0.238,0.436,0.445
				c0.168,0.209,0.299,0.343,0.39,0.401c0,0.03,0.016,0.074,0.047,0.135c0.03,0.06,0.031,0.119,0.002,0.181
				c0.092,0.06,0.168,0.162,0.23,0.313s0.123,0.239,0.185,0.268c0.001,0.091,0.025,0.188,0.072,0.293s0.07,0.188,0.071,0.247
				c0.184,0.208,0.275,0.357,0.276,0.447c0.001,0.061-0.006,0.136-0.019,0.226c-0.015,0.092-0.021,0.152-0.021,0.182
				c0.001,0.061,0.032,0.15,0.094,0.269c0.006,0.361,0.024,0.572,0.056,0.632c-0.03,0.03-0.059,0.137-0.087,0.317
				c-0.027,0.181-0.07,0.302-0.13,0.362c0.061,0.061,0.093,0.195,0.096,0.405l0.005,0.315c-0.09,0.031-0.172,0.114-0.244,0.251
				c-0.073,0.137-0.141,0.221-0.2,0.251c-0.027,0.212-0.138,0.424-0.329,0.637c-0.192,0.214-0.318,0.382-0.377,0.503
				c0.033,0.24,0.143,0.465,0.326,0.672l0.09-0.001c0.091-0.001,0.187-0.025,0.293-0.071c0.104-0.048,0.187-0.071,0.247-0.072
				l0.09-0.001c0.09-0.062,0.247-0.131,0.472-0.21c0.225-0.078,0.366-0.133,0.426-0.165c0.598-0.308,0.972-0.465,1.122-0.467
				c0.147-0.212,0.235-0.334,0.266-0.364c0.03,0,0.061,0.015,0.091,0.044l0.046,0.044l0.356-0.32c0.06-0.001,0.119-0.04,0.18-0.116
				c0.058-0.076,0.133-0.115,0.224-0.116l0.09-0.002c0.237-0.213,0.729-0.565,1.475-1.057c0.059-0.031,0.149-0.049,0.27-0.05
				c0.03-0.001,0.091-0.031,0.18-0.093c0.09-0.061,0.163-0.107,0.224-0.139c0.061-0.001,0.136-0.017,0.225-0.049
				c0.091-0.03,0.149-0.047,0.18-0.047c0.091-0.031,0.209-0.116,0.358-0.254c0.148-0.138,0.268-0.222,0.357-0.254
				c0.09-0.001,0.165-0.017,0.226-0.048c0.06-0.001,0.134-0.047,0.224-0.138c0.298-0.096,0.464-0.143,0.494-0.144l0.091-0.001
				c0.059-0.03,0.134-0.047,0.225-0.048l0.812-0.012c0.12,0.088,0.198,0.2,0.23,0.334c0.031,0.136,0.049,0.31,0.052,0.52
				c0.004,0.211,0.021,0.361,0.052,0.45c-0.209,0.123-0.328,0.186-0.358,0.186c-0.205,0.425-0.367,0.652-0.486,0.684l0.004,0.316
				c-0.296,0.245-0.474,0.474-0.531,0.685l-0.09,0.001c-0.09,0.001-0.18,0.078-0.268,0.229c-0.33,0.095-0.642,0.354-0.937,0.78
				c-0.09,0.001-0.188,0.064-0.291,0.185c-0.104,0.123-0.186,0.199-0.244,0.229c-0.061,0.031-0.144,0.056-0.248,0.071
				c-0.105,0.018-0.188,0.041-0.247,0.071c-0.03,0-0.053,0.031-0.066,0.091c-0.015,0.062-0.037,0.092-0.066,0.092
				c-0.091,0.001-0.202,0.07-0.336,0.208s-0.261,0.207-0.381,0.209c-0.03,0-0.061,0.016-0.089,0.046
				c-0.029,0.061-0.075,0.091-0.135,0.092c-0.029,0.031-0.044,0.063-0.043,0.092c0,0.03-0.016,0.061-0.044,0.09
				c-0.658,0.312-1.003,0.466-1.032,0.466c-0.149,0.094-0.357,0.217-0.626,0.371c-0.27,0.155-0.448,0.262-0.538,0.324
				c-0.061-0.03-0.135-0.044-0.226-0.043c-0.09,0.001-0.196,0.034-0.314,0.095c-0.12,0.063-0.21,0.094-0.271,0.094
				c-0.238,0.155-0.387,0.231-0.447,0.232c-0.09,0.001-0.151-0.013-0.182-0.042c-0.03,0-0.061,0.023-0.089,0.069
				c-0.029,0.045-0.06,0.068-0.09,0.068l-0.586,0.009c-0.659,0.19-1.26,0.288-1.801,0.296c-0.361,0.006-0.663-0.035-0.904-0.122
				c-0.061-0.029-0.107-0.036-0.136-0.021c-0.03,0.016-0.061,0.022-0.09,0.023c-0.815-0.168-1.512-0.444-2.089-0.828
				c0.029-0.029,0.029-0.06-0.001-0.09l-0.046-0.044c-0.091,0.001-0.181-0.012-0.271-0.041c-0.031-0.061-0.108-0.172-0.23-0.336
				c-0.123-0.163-0.185-0.29-0.187-0.381c-0.271-0.025-0.423-0.175-0.457-0.445c-0.03,0.001-0.068-0.006-0.113-0.021
				c-0.045-0.014-0.099-0.021-0.158-0.021c-0.366-0.325-0.736-0.982-1.111-1.971c0.059-0.03,0.066-0.075,0.021-0.135
				s-0.069-0.104-0.069-0.135c-0.001-0.029,0.014-0.06,0.044-0.091l-0.001-0.046L87.068,26.3c-0.031-0.091-0.05-0.331-0.056-0.723
				l-0.003-0.225c-0.002-0.119-0.034-0.307-0.098-0.562c-0.064-0.256-0.098-0.443-0.099-0.563l-0.008-0.496
				c0.03-0.001,0.054-0.039,0.067-0.114s0.036-0.114,0.065-0.114c-0.03-0.029-0.046-0.073-0.047-0.134
				c-0.001-0.091,0.042-0.227,0.129-0.408l-0.046-0.091c-0.031-0.059-0.047-0.104-0.047-0.134c0.027-0.091,0.078-0.249,0.151-0.476
				c0.07-0.227,0.152-0.409,0.24-0.546s0.191-0.251,0.311-0.344c-0.003-0.18,0.078-0.331,0.242-0.454
				c0.163-0.123,0.26-0.229,0.289-0.32c0.059-0.03,0.149-0.07,0.269-0.117c0.119-0.046,0.209-0.085,0.27-0.115
				c0.179-0.123,0.402-0.322,0.669-0.597c0.029-0.001,0.073-0.03,0.133-0.093c0.271-0.094,0.465-0.172,0.584-0.234
				c0.061-0.03,0.142-0.062,0.247-0.094c0.104-0.03,0.187-0.062,0.247-0.093l0.269-0.14c0.029-0.001,0.061,0.015,0.091,0.043
				l0.091-0.001c0.18-0.063,0.314-0.094,0.405-0.096c0.06-0.001,0.135,0.006,0.226,0.02c0.09,0.015,0.15,0.021,0.181,0.02
				C91.9,19.099,91.96,19.084,92.021,19.053z M91.766,23.299l-0.044,0.046l-0.181,0.003c-0.603,0.008-0.9,0.209-0.895,0.6
				c0.001,0.061-0.014,0.12-0.043,0.181l-0.133,0.183c0.002,0.09,0.004,0.248,0.007,0.474c0.004,0.226,0.006,0.384,0.007,0.474
				c-0.028,0.091-0.041,0.226-0.039,0.406c0.002,0.12,0.018,0.211,0.049,0.27c0.12,0.06,0.242,0.088,0.362,0.086
				c0.301-0.004,0.69-0.146,1.168-0.423c0.207-0.153,0.341-0.29,0.4-0.411c0.028-0.029,0.073-0.062,0.134-0.093
				c0.06-0.03,0.089-0.061,0.089-0.091c0.087-0.242,0.129-0.514,0.124-0.814c-0.004-0.3-0.053-0.496-0.144-0.585
				C92.202,23.398,91.916,23.297,91.766,23.299z"/>
			<path fill="#231F20" d="M103.662,18.886c0.817,0.319,1.303,0.613,1.457,0.882c0.121,0.088,0.268,0.237,0.436,0.445
				s0.299,0.342,0.39,0.4c0,0.03,0.016,0.075,0.047,0.135c0.03,0.061,0.031,0.12,0.002,0.181c0.092,0.06,0.168,0.163,0.23,0.313
				c0.063,0.15,0.123,0.239,0.185,0.268c0.001,0.091,0.025,0.188,0.072,0.293c0.047,0.105,0.07,0.188,0.071,0.247
				c0.184,0.209,0.275,0.358,0.276,0.448c0.001,0.061-0.006,0.136-0.019,0.226c-0.015,0.091-0.021,0.151-0.021,0.181
				c0.001,0.061,0.032,0.151,0.094,0.27c0.006,0.361,0.024,0.572,0.056,0.631c-0.03,0.031-0.059,0.137-0.087,0.318
				c-0.027,0.181-0.07,0.302-0.13,0.362c0.061,0.061,0.093,0.194,0.096,0.404l0.005,0.315c-0.09,0.032-0.172,0.115-0.244,0.252
				c-0.073,0.137-0.141,0.221-0.2,0.251c-0.027,0.211-0.138,0.424-0.329,0.637c-0.192,0.214-0.318,0.381-0.377,0.502
				c0.033,0.241,0.143,0.465,0.326,0.673l0.09-0.002c0.091-0.001,0.187-0.024,0.293-0.071c0.104-0.047,0.187-0.071,0.247-0.072
				l0.09-0.001c0.09-0.061,0.247-0.13,0.472-0.21c0.225-0.077,0.366-0.132,0.426-0.164c0.598-0.309,0.972-0.465,1.122-0.468
				c0.147-0.212,0.235-0.333,0.266-0.364c0.03,0,0.061,0.016,0.091,0.044l0.046,0.044l0.356-0.32c0.06-0.001,0.119-0.04,0.18-0.115
				c0.058-0.076,0.133-0.115,0.224-0.117l0.09-0.001c0.237-0.214,0.729-0.566,1.475-1.058c0.059-0.031,0.149-0.048,0.27-0.05
				c0.03,0,0.091-0.03,0.18-0.093c0.09-0.061,0.163-0.107,0.224-0.139c0.061-0.001,0.136-0.017,0.225-0.048
				c0.091-0.03,0.149-0.047,0.18-0.048c0.091-0.03,0.209-0.116,0.357-0.253c0.148-0.138,0.268-0.222,0.357-0.254
				c0.09-0.002,0.165-0.018,0.226-0.049c0.06-0.001,0.134-0.047,0.224-0.138c0.298-0.095,0.464-0.143,0.494-0.143l0.091-0.002
				c0.059-0.029,0.134-0.047,0.225-0.048l0.813-0.012c0.12,0.089,0.198,0.2,0.23,0.335c0.031,0.136,0.049,0.309,0.052,0.519
				c0.004,0.211,0.021,0.361,0.052,0.451c-0.209,0.123-0.328,0.185-0.358,0.186c-0.205,0.424-0.367,0.651-0.486,0.683l0.004,0.316
				c-0.297,0.246-0.475,0.474-0.532,0.685l-0.09,0.001c-0.09,0.002-0.18,0.078-0.268,0.229c-0.33,0.095-0.642,0.355-0.937,0.78
				c-0.09,0.002-0.187,0.064-0.29,0.186c-0.104,0.122-0.186,0.198-0.244,0.229c-0.061,0.031-0.144,0.056-0.248,0.072
				c-0.105,0.017-0.188,0.041-0.247,0.07c-0.03,0.001-0.053,0.031-0.066,0.091c-0.015,0.063-0.037,0.092-0.066,0.092
				c-0.091,0.002-0.202,0.07-0.336,0.208s-0.261,0.207-0.381,0.209c-0.03,0-0.061,0.017-0.089,0.046
				c-0.029,0.062-0.075,0.091-0.135,0.092c-0.029,0.032-0.044,0.063-0.043,0.092c0,0.03-0.016,0.061-0.044,0.091
				c-0.658,0.311-1.003,0.465-1.032,0.466c-0.149,0.093-0.357,0.216-0.626,0.37c-0.27,0.155-0.448,0.263-0.538,0.324
				c-0.061-0.029-0.135-0.044-0.226-0.043c-0.09,0.002-0.196,0.034-0.314,0.096c-0.12,0.063-0.21,0.093-0.271,0.094
				c-0.238,0.154-0.387,0.231-0.447,0.232c-0.09,0.001-0.151-0.013-0.182-0.043c-0.03,0.001-0.061,0.023-0.089,0.07
				c-0.029,0.045-0.06,0.067-0.09,0.068l-0.586,0.008c-0.659,0.19-1.26,0.289-1.802,0.297c-0.361,0.005-0.663-0.035-0.904-0.123
				c-0.061-0.028-0.107-0.035-0.136-0.021c-0.03,0.017-0.061,0.023-0.09,0.023c-0.814-0.168-1.511-0.444-2.088-0.827
				c0.029-0.03,0.029-0.061-0.001-0.09l-0.046-0.045c-0.091,0.002-0.181-0.012-0.271-0.041c-0.031-0.06-0.108-0.171-0.23-0.335
				c-0.123-0.163-0.185-0.291-0.187-0.382c-0.271-0.025-0.423-0.174-0.457-0.444c-0.03,0-0.068-0.006-0.113-0.021
				s-0.099-0.021-0.158-0.021c-0.366-0.326-0.736-0.982-1.111-1.971c0.059-0.03,0.066-0.075,0.021-0.136
				c-0.046-0.06-0.069-0.104-0.069-0.135c-0.001-0.029,0.014-0.06,0.044-0.09l-0.001-0.046l-0.093-0.134
				c-0.031-0.09-0.05-0.33-0.056-0.722l-0.003-0.225c-0.002-0.119-0.034-0.308-0.098-0.563c-0.064-0.255-0.098-0.443-0.099-0.563
				l-0.008-0.496c0.03,0,0.054-0.038,0.067-0.114c0.014-0.075,0.036-0.113,0.065-0.114c-0.03-0.028-0.046-0.073-0.047-0.134
				c-0.001-0.091,0.042-0.227,0.129-0.408l-0.046-0.09c-0.031-0.06-0.047-0.104-0.047-0.135c0.027-0.091,0.078-0.249,0.151-0.476
				c0.07-0.227,0.152-0.408,0.24-0.545c0.088-0.138,0.191-0.251,0.311-0.344c-0.003-0.18,0.078-0.331,0.242-0.455
				c0.163-0.122,0.26-0.229,0.289-0.319c0.059-0.031,0.149-0.07,0.269-0.117s0.209-0.085,0.27-0.116
				c0.179-0.123,0.402-0.322,0.669-0.597c0.029,0,0.073-0.03,0.133-0.093c0.271-0.094,0.465-0.172,0.584-0.233
				c0.061-0.03,0.142-0.063,0.247-0.094c0.104-0.031,0.187-0.063,0.247-0.094l0.269-0.14c0.029,0,0.061,0.015,0.091,0.044
				l0.091-0.001c0.18-0.063,0.313-0.095,0.404-0.096c0.06-0.001,0.135,0.006,0.226,0.019c0.09,0.015,0.15,0.021,0.181,0.021
				C103.542,18.933,103.602,18.917,103.662,18.886z M103.407,23.133l-0.044,0.045l-0.181,0.003c-0.602,0.009-0.899,0.209-0.894,0.6
				c0.001,0.061-0.014,0.12-0.043,0.182l-0.133,0.183c0.002,0.09,0.004,0.248,0.007,0.474c0.004,0.226,0.006,0.384,0.007,0.474
				c-0.028,0.09-0.041,0.226-0.039,0.406c0.002,0.12,0.018,0.21,0.049,0.27c0.12,0.059,0.242,0.087,0.362,0.086
				c0.301-0.005,0.689-0.146,1.167-0.424c0.207-0.153,0.341-0.29,0.4-0.411c0.028-0.029,0.073-0.062,0.134-0.093
				c0.06-0.029,0.09-0.061,0.089-0.091c0.087-0.241,0.129-0.514,0.124-0.814c-0.004-0.3-0.053-0.495-0.144-0.585
				C103.844,23.231,103.558,23.131,103.407,23.133z"/>
			<path fill="#231F20" d="M124.599,5.813c0.181-0.003,0.422,0.032,0.724,0.103c0.303,0.071,0.498,0.105,0.589,0.104
				c0.12,0.088,0.439,0.279,0.956,0.573c0.066,0.45,0.115,0.69,0.146,0.72c0.001,0.061,0.031,0.12,0.093,0.179
				c0.062,0.061,0.093,0.135,0.094,0.225c0.031,0.091,0.131,0.246,0.3,0.47c0.168,0.224,0.254,0.425,0.257,0.605l0.001,0.091
				c0.092,0.029,0.167,0.133,0.23,0.313l0.005,0.316c0.003,0.241,0.036,0.405,0.098,0.495c0,0.03-0.021,0.061-0.067,0.092
				c-0.044,0.03-0.066,0.062-0.065,0.091c0.029,0.06,0.076,0.126,0.139,0.201c0.061,0.074,0.105,0.126,0.137,0.156
				c-0.029,0.09-0.042,0.241-0.039,0.451c0.004,0.241,0.021,0.422,0.053,0.541c0.002,0.091-0.02,0.211-0.062,0.362
				c-0.043,0.151-0.064,0.242-0.063,0.271l0.007,0.497l-0.133,0.228c-0.029,0.061-0.042,0.158-0.041,0.293
				c0.002,0.136,0.004,0.248,0.005,0.339c-0.06,0.062-0.104,0.122-0.133,0.183c-0.084,0.393-0.156,0.62-0.216,0.681
				c0.001,0.061-0.021,0.128-0.064,0.204c-0.044,0.075-0.065,0.144-0.064,0.204l0.001,0.045c-0.21,0.063-0.27,0.184-0.176,0.362
				c0,0.03-0.029,0.062-0.09,0.091l-0.089,0.047c0.001,0.062,0.016,0.106,0.047,0.135c0.029,0.03,0.046,0.06,0.046,0.09
				c-0.029,0.062-0.104,0.152-0.222,0.274c-0.053,0.542-0.107,0.89-0.166,1.04c-0.058,0.182-0.07,0.303-0.039,0.361
				c-0.179,0.184-0.281,0.365-0.308,0.547l-0.361,0.005c0.002,0.181-0.025,0.347-0.084,0.497c-0.059,0.152-0.139,0.312-0.241,0.479
				c-0.104,0.167-0.169,0.312-0.197,0.432c-0.119,0.063-0.179,0.138-0.178,0.229c-0.12,0.001-0.225,0.048-0.313,0.139l0.093,0.18
				c0.001,0.061-0.043,0.152-0.131,0.273c-0.089,0.121-0.133,0.242-0.131,0.362c-0.329,0.156-0.49,0.429-0.484,0.819
				c-0.06,0.062-0.133,0.168-0.221,0.319c-0.089,0.152-0.148,0.244-0.177,0.273c-0.03,0.031-0.052,0.084-0.065,0.159
				c-0.015,0.075-0.036,0.144-0.065,0.204l-0.178,0.183l-0.039,0.406c0.001,0.062,0.031,0.151,0.095,0.271l0.003,0.226
				c0.002,0.12,0.034,0.331,0.099,0.631s0.083,0.525,0.055,0.676c0,0.03,0.031,0.09,0.094,0.18c0.061,0.089,0.092,0.164,0.093,0.223
				l0.001,0.09c0.369,0.537,0.555,0.865,0.557,0.985l0.001,0.09c0.091,0.061,0.19,0.172,0.298,0.335
				c0.108,0.165,0.207,0.275,0.298,0.335c0.031,0.06,0.018,0.105-0.043,0.136c-0.03,0-0.045,0.016-0.044,0.046
				c0.03,0.09,0.245,0.328,0.642,0.713l0.002,0.09c0.001,0.091,0.017,0.196,0.049,0.315c0.032,0.12,0.048,0.196,0.049,0.226
				l0.001,0.09c0.061,0.029,0.151,0.104,0.274,0.222c0.001,0.031-0.028,0.106-0.087,0.228l0.186,0.357
				c0.002,0.121-0.071,0.287-0.219,0.501c-0.18,0.063-0.427,0.111-0.742,0.146c-0.316,0.034-0.519,0.067-0.608,0.099
				c-0.03-0.029-0.145-0.058-0.34-0.086c-0.196-0.026-0.324-0.069-0.386-0.129c-0.181,0.003-0.453-0.144-0.819-0.44
				c-0.273-0.206-0.531-0.383-0.772-0.53c-0.153-0.089-0.288-0.132-0.408-0.13c-0.211,0.003-0.487,0.165-0.829,0.486
				c-0.342,0.32-0.617,0.498-0.827,0.531c-0.238,0.184-0.418,0.276-0.538,0.278c-0.237,0.244-0.581,0.399-1.031,0.466l-0.541,0.008
				c-0.181,0.002-0.535,0.03-1.06,0.083c-0.527,0.053-0.941,0.066-1.241,0.04c-0.182-0.088-0.514-0.128-0.995-0.121
				c-0.243-0.147-0.499-0.219-0.771-0.215l-0.135,0.002c-0.122-0.058-0.198-0.117-0.229-0.178c-0.181,0.003-0.574-0.142-1.18-0.434
				c-0.061-0.06-0.091-0.119-0.092-0.18c-0.03,0-0.122-0.027-0.273-0.086c-0.15-0.059-0.257-0.116-0.317-0.176
				c-0.091-0.059-0.206-0.179-0.344-0.357s-0.253-0.296-0.344-0.355c0-0.03-0.009-0.067-0.023-0.112
				c-0.017-0.045-0.024-0.082-0.024-0.113c-0.183-0.116-0.291-0.296-0.324-0.536c-0.062-0.059-0.131-0.186-0.209-0.381
				c-0.077-0.194-0.147-0.321-0.208-0.381l0.043-0.091c0-0.029,0-0.061-0.001-0.091c-0.184-0.177-0.276-0.387-0.279-0.628
				c-0.001-0.06,0.027-0.149,0.086-0.271c-0.001-0.06-0.017-0.15-0.049-0.271c-0.032-0.119-0.048-0.225-0.05-0.315
				c-0.001-0.09,0.004-0.209,0.018-0.359c0.013-0.151,0.019-0.257,0.018-0.317c0-0.029-0.016-0.059-0.046-0.089l-0.001-0.091
				c0.027-0.09,0.072-0.196,0.131-0.317c0.058-0.121,0.087-0.211,0.086-0.272l-0.004-0.315c0.026-0.151,0.114-0.355,0.262-0.613
				c0.146-0.258,0.22-0.402,0.219-0.433c0.12-0.03,0.232-0.101,0.336-0.208c0.104-0.106,0.201-0.176,0.29-0.207l-0.045,0.001
				c-0.03,0-0.045-0.015-0.045-0.045c-0.002-0.12,0.175-0.393,0.53-0.819c-0.001-0.029,0.006-0.076,0.021-0.137
				c0.014-0.06,0.035-0.104,0.065-0.136c0.028-0.03,0.141-0.107,0.336-0.23c0.193-0.123,0.304-0.229,0.332-0.321
				c0.628-0.309,1.031-0.511,1.21-0.604c0.029,0,0.06,0.008,0.091,0.021c0.03,0.016,0.061,0.022,0.091,0.022
				c0.029-0.031,0.059-0.062,0.089-0.093c0.029-0.029,0.06-0.06,0.089-0.091c0.091,0.029,0.227,0.042,0.407,0.039
				c0.09-0.001,0.24-0.018,0.45-0.051s0.376-0.051,0.496-0.053c0.12-0.001,0.21,0.012,0.271,0.041
				c0.3-0.124,0.885-0.223,1.757-0.296c0.025-0.301,0.049-0.768,0.07-1.4c0.021-0.632,0.045-1.114,0.07-1.445
				c-0.001-0.06,0.021-0.105,0.065-0.137c0.044-0.03,0.066-0.075,0.065-0.136l-0.047-0.09c0-0.06,0.021-0.136,0.064-0.227
				c0.045-0.091,0.066-0.166,0.065-0.227c-0.001-0.029-0.031-0.074-0.093-0.135c0.118-0.151,0.176-0.362,0.172-0.634
				c0.119-0.061,0.236-0.258,0.353-0.591l-0.005-0.316c0.029,0,0.052-0.053,0.065-0.159c0.014-0.104,0.051-0.174,0.11-0.205
				c-0.031-0.059-0.047-0.134-0.048-0.225c-0.001-0.09,0.034-0.219,0.106-0.385c0.073-0.166,0.109-0.31,0.107-0.43
				c0.028-0.092,0.078-0.242,0.15-0.455c0.072-0.211,0.138-0.362,0.197-0.454c-0.001-0.029-0.009-0.066-0.024-0.111
				c-0.017-0.046-0.023-0.098-0.024-0.158c0.09-0.03,0.177-0.243,0.261-0.636c0-0.029-0.022-0.06-0.068-0.089
				c-0.045-0.029-0.068-0.06-0.068-0.09c-0.001-0.09,0.025-0.285,0.081-0.588l0.136-0.002c0.232-0.545,0.453-0.909,0.661-1.093
				l-0.001-0.09c-0.002-0.15,0.063-0.332,0.195-0.545c0.133-0.212,0.198-0.379,0.196-0.499c0.09-0.001,0.135-0.032,0.135-0.093
				l0.133-0.092c0.03-0.029,0.044-0.061,0.044-0.092c-0.001-0.029-0.001-0.06-0.001-0.09c0.147-0.152,0.387-0.336,0.715-0.552
				c0.328-0.215,0.521-0.353,0.581-0.414c0.06-0.001,0.193-0.041,0.403-0.119c0.209-0.078,0.358-0.118,0.449-0.119l0.09-0.002
				c0.06-0.091,0.201-0.152,0.427-0.186c0.225-0.033,0.367-0.065,0.427-0.097l0.136-0.002c0.06-0.001,0.15-0.009,0.271-0.026
				C124.448,5.822,124.538,5.813,124.599,5.813z M117.886,22.429c-0.15,0.002-0.315,0.035-0.495,0.098
				c-0.062-0.059-0.121-0.089-0.182-0.088c-0.061,0-0.143,0.033-0.247,0.094c-0.104,0.063-0.188,0.093-0.247,0.094
				c-0.207,0.274-0.416,0.428-0.625,0.46c-0.148,0.213-0.327,0.382-0.535,0.505c-0.056,0.362-0.245,0.726-0.57,1.092
				c0.119-0.002,0.181,0.027,0.181,0.087c0.002,0.121-0.012,0.264-0.038,0.429c-0.028,0.166-0.041,0.279-0.04,0.339
				c0.002,0.151,0.032,0.256,0.094,0.315c-0.028,0.09-0.041,0.227-0.039,0.406c0.002,0.121,0.018,0.195,0.048,0.226
				c0.186,0.328,0.671,0.576,1.456,0.746c0.03-0.001,0.091,0.006,0.181,0.02c0.091,0.015,0.165,0.021,0.226,0.02
				c0.391-0.006,0.69-0.175,0.896-0.509c0.089-0.122,0.206-0.334,0.353-0.638c0.384-0.485,0.576-0.775,0.574-0.865
				c-0.001-0.09-0.063-0.231-0.187-0.426c-0.123-0.193-0.186-0.351-0.188-0.471l-0.001-0.091c-0.031-0.029-0.078-0.164-0.141-0.404
				l-0.14-0.269c-0.031-0.06-0.078-0.172-0.141-0.337c-0.063-0.164-0.109-0.291-0.141-0.381
				C117.934,22.608,117.916,22.459,117.886,22.429z M124,8.168c-0.177,0.184-0.4,0.322-0.671,0.416
				c-0.208,0.214-0.309,0.501-0.303,0.862c0.003,0.211,0.051,0.436,0.145,0.675c-0.061,0.062-0.095,0.212-0.106,0.453
				s-0.032,0.392-0.061,0.452c0.001,0.061,0.016,0.09,0.046,0.09c0.03,0.029,0.046,0.06,0.046,0.09
				c-0.057,0.241-0.083,0.422-0.082,0.542c0.003,0.151,0.019,0.256,0.05,0.316c-0.09,0.091-0.133,0.182-0.132,0.272
				c0,0.03,0.017,0.104,0.048,0.225c0.032,0.12,0.049,0.21,0.05,0.27c0.007,0.451,0.101,0.752,0.283,0.899
				c-0.119,0.122-0.177,0.259-0.175,0.408c0.002,0.121,0.049,0.226,0.141,0.314c-0.09,0.091-0.133,0.198-0.131,0.317
				c0.001,0.062,0.017,0.151,0.049,0.271c0.031,0.12,0.048,0.21,0.049,0.27c0.001,0.12-0.012,0.211-0.041,0.271
				c0.03,0.03,0.054,0.099,0.071,0.202c0.016,0.106,0.039,0.174,0.069,0.202c0.059-0.121,0.161-0.317,0.308-0.591
				c0.146-0.271,0.249-0.483,0.308-0.636c-0.031-0.028-0.002-0.135,0.085-0.316c-0.011-0.722,0.148-1.191,0.478-1.407
				c-0.031-0.028-0.048-0.073-0.048-0.134c-0.001-0.061,0.027-0.165,0.086-0.317c0.058-0.151,0.086-0.256,0.085-0.316l-0.045-0.046
				c-0.001-0.029-0.001-0.06-0.002-0.09c0.028-0.09,0.103-0.227,0.22-0.409c0.085-0.422,0.26-0.801,0.526-1.136
				c0.027-0.151,0.077-0.332,0.149-0.544c0.072-0.211,0.123-0.348,0.152-0.409c-0.002-0.12-0.057-0.27-0.165-0.448
				c-0.107-0.18-0.162-0.344-0.164-0.494c-0.031-0.061-0.122-0.104-0.273-0.132c-0.15-0.027-0.242-0.071-0.272-0.132
				c-0.12,0.002-0.257-0.041-0.408-0.129C124.212,8.21,124.091,8.167,124,8.168z"/>
		</g>
		<g>
			<path fill="#231F20" d="M137.131,13.748l0.184,0.038l0.164,0.131c0.203,0.043,0.313,0.077,0.329,0.102
				c0.045-0.012,0.119-0.008,0.221,0.014c0.062,0.013,0.162,0.056,0.308,0.129c0.145,0.073,0.258,0.118,0.339,0.135
				c0.053,0.054,0.139,0.125,0.259,0.214c0.119,0.089,0.209,0.161,0.272,0.217c0.063,0.057,0.119,0.143,0.169,0.259
				c0.05,0.117,0.072,0.238,0.066,0.365c0.013,0.046,0.045,0.095,0.097,0.147c0.053,0.055,0.087,0.094,0.104,0.118
				c0.016,0.024,0.021,0.073,0.018,0.146c-0.007,0.074-0.01,0.121-0.015,0.142c-0.004,0.02,0.002,0.043,0.018,0.066l0.019,0.068
				l-0.038,0.184c-0.005,0.02,0.01,0.07,0.047,0.152c0.035,0.083,0.049,0.145,0.041,0.185c-0.009,0.042-0.015,0.093-0.017,0.156
				c-0.003,0.063,0.001,0.118,0.014,0.162c-0.009,0.041-0.01,0.094-0.002,0.159s0.01,0.108,0.006,0.129l-0.02,0.092
				c-0.009,0.041-0.026,0.096-0.051,0.165c-0.025,0.069-0.04,0.114-0.045,0.134c-0.004,0.021,0.01,0.055,0.043,0.105
				c-0.009,0.041-0.016,0.119-0.019,0.234c-0.003,0.117-0.01,0.205-0.023,0.267c0.011,0.151-0.004,0.266-0.04,0.343
				c-0.009,0.041-0.028,0.105-0.058,0.195s-0.05,0.164-0.063,0.227l-0.025,0.121c-0.012,0.253-0.028,0.431-0.05,0.533
				c-0.025,0.121-0.064,0.209-0.117,0.262c-0.005,0.021-0.002,0.053,0.011,0.099c0.01,0.045,0.012,0.087,0.004,0.128
				c-0.005,0.021-0.015,0.045-0.03,0.074c-0.017,0.027-0.027,0.053-0.031,0.072l0.017,0.067c-0.005,0.021-0.009,0.042-0.013,0.062
				l-0.007,0.03c-0.023,0.017-0.038,0.035-0.042,0.055c-0.005,0.021-0.009,0.067-0.014,0.142c-0.006,0.072-0.013,0.13-0.021,0.17
				l0.019,0.068c0.011,0.045,0.016,0.078,0.011,0.098c-0.009,0.041-0.032,0.1-0.068,0.177c-0.051,0.032-0.078,0.069-0.087,0.109
				c-0.004,0.021-0.01,0.073-0.016,0.157c-0.009,0.083-0.017,0.145-0.025,0.186c-0.028,0.037-0.044,0.065-0.049,0.085
				c-0.004,0.021-0.015,0.072-0.031,0.153c-0.018,0.082-0.048,0.118-0.088,0.109c0.04,0.115,0.051,0.213,0.033,0.294
				c-0.004,0.021-0.019,0.065-0.043,0.135c-0.025,0.069-0.042,0.124-0.051,0.165c-0.049,0.032-0.078,0.068-0.087,0.109
				c-0.156,0.541-0.26,0.828-0.309,0.86c0.023,0.196,0.011,0.407-0.036,0.63c-0.034,0.164-0.082,0.281-0.139,0.354
				c0.006,0.171-0.001,0.308-0.021,0.409c-0.021,0.104-0.059,0.17-0.107,0.201c0.013,0.045,0.011,0.13-0.005,0.254
				c-0.016,0.125-0.027,0.208-0.036,0.248l-0.11,0.072c0.012,0.045,0.009,0.108-0.009,0.19c-0.018,0.081-0.048,0.181-0.095,0.299
				s-0.075,0.208-0.088,0.269l-0.025,0.122c-0.083,0.09-0.137,0.142-0.162,0.158c-0.038,0.183-0.069,0.282-0.094,0.299l-0.039,0.184
				c-0.047,0.224-0.147,0.447-0.3,0.671l-0.079,0.525c-0.06,0.285-0.177,0.441-0.354,0.468c0.017,0.024,0.021,0.058,0.013,0.099
				c-0.009,0.041-0.04,0.088-0.094,0.14c-0.054,0.053-0.085,0.099-0.094,0.14c-0.05,0.033-0.159,0.1-0.329,0.202
				s-0.312,0.163-0.421,0.183l-0.129,0.005c-0.274,0.092-0.432,0.133-0.473,0.124c-0.51-0.107-0.842-0.197-0.995-0.273
				c-0.021-0.004-0.068-0.034-0.141-0.093c-0.072-0.058-0.128-0.101-0.164-0.13c-0.02-0.004-0.063-0.056-0.127-0.154
				c-0.272-0.121-0.449-0.296-0.528-0.525c-0.098-0.042-0.18-0.129-0.248-0.26s-0.111-0.209-0.127-0.234
				c-0.003-0.085-0.03-0.208-0.081-0.368c-0.052-0.159-0.079-0.282-0.082-0.368c-0.013-0.045-0.017-0.104-0.011-0.178
				c0.005-0.073,0.012-0.131,0.021-0.171c-0.016-0.131-0.017-0.227-0.004-0.288l0.077-0.366c0.013-0.062,0.018-0.193,0.019-0.396
				c0-0.201,0.005-0.376,0.015-0.523c0.009-0.146,0.044-0.362,0.104-0.648c-0.004-0.085,0.012-0.209,0.047-0.372
				c0.025-0.123,0.062-0.2,0.111-0.232c-0.032-0.05-0.035-0.135-0.009-0.257c0.009-0.041,0.035-0.12,0.081-0.238
				c0.047-0.118,0.076-0.207,0.088-0.268l0.046-0.215c0.038-0.184,0.095-0.299,0.169-0.348c0.004-0.02-0.007-0.044-0.033-0.07
				s-0.035-0.061-0.027-0.102c0.009-0.041,0.022-0.08,0.042-0.119c0.018-0.038,0.032-0.078,0.041-0.119l0.097-0.458
				c0.063-0.306,0.133-0.535,0.208-0.69c-0.012-0.045-0.007-0.118,0.015-0.22c0.017-0.081,0.063-0.199,0.139-0.354
				c0.074-0.153,0.116-0.251,0.125-0.292l0.013-0.062c-0.013-0.045-0.016-0.077-0.012-0.098l0.044-0.056
				c0.004-0.02,0.008-0.04,0.013-0.061c0.017-0.081,0.045-0.214,0.083-0.397c0.039-0.184,0.076-0.313,0.115-0.391
				c0.1-0.277,0.165-0.486,0.195-0.629c0.004-0.02,0.031-0.046,0.08-0.078c0.009-0.041,0.005-0.074-0.011-0.099
				c-0.017-0.024-0.021-0.058-0.012-0.099l0.239-0.684l0.007-0.03l-0.018-0.067c0.013-0.061,0.048-0.133,0.109-0.216
				c0.06-0.083,0.094-0.146,0.103-0.187c0.013-0.061,0.042-0.177,0.09-0.348c0.046-0.171,0.085-0.285,0.119-0.342l0.123-0.134
				c0.105-0.298,0.204-0.467,0.299-0.512c0.005-0.02-0.002-0.042-0.018-0.067c-0.016-0.024-0.021-0.057-0.012-0.098
				c0.066-0.113,0.104-0.191,0.113-0.232l0.077-0.366c0.009-0.041,0.043-0.108,0.105-0.201s0.098-0.159,0.106-0.2
				c0.029-0.143,0.05-0.341,0.061-0.594c0.049-0.032,0.096-0.097,0.137-0.195c0.042-0.098,0.075-0.154,0.1-0.171
				C136.445,13.668,136.743,13.666,137.131,13.748z"/>
			<path fill="#231F20" d="M144.033,15.518c0.346,0.072,0.6,0.137,0.757,0.19c0.481,0.145,0.727,0.238,0.739,0.283
				c0.219,0.067,0.552,0.201,1,0.402l0.542,0.305c0.165,0.12,0.267,0.195,0.304,0.224c0.053,0.054,0.111,0.104,0.177,0.148
				c0.064,0.046,0.126,0.086,0.183,0.119c0.104,0.107,0.185,0.229,0.241,0.369c0.04,0.008,0.082,0.039,0.124,0.09
				c0.042,0.052,0.074,0.079,0.095,0.083c0.007,0.066,0.056,0.167,0.144,0.302c0.089,0.136,0.135,0.246,0.138,0.332
				c0.117,0.152,0.147,0.361,0.092,0.626c-0.021,0.103-0.049,0.182-0.081,0.238c-0.064,0.199-0.242,0.343-0.538,0.43
				c-0.023,0.017-0.061,0.04-0.11,0.072l-0.098,0.011c-0.021-0.004-0.06-0.022-0.117-0.056c-0.055-0.033-0.094-0.052-0.114-0.057
				c-0.236-0.092-0.411-0.171-0.525-0.238c-0.036-0.028-0.091-0.071-0.164-0.13c-0.072-0.058-0.129-0.091-0.17-0.1l-0.153-0.032
				c-0.061-0.013-0.157-0.038-0.287-0.076c-0.131-0.038-0.225-0.063-0.286-0.076c-0.041-0.009-0.105-0.011-0.19-0.008
				s-0.148,0.001-0.189-0.008l-0.116-0.057c-0.041-0.009-0.101,0-0.18,0.026c-0.081,0.025-0.153,0.042-0.219,0.05
				c-0.173,0.112-0.291,0.173-0.356,0.18c-0.014,0.062-0.111,0.169-0.291,0.322c-0.059,0.073-0.131,0.111-0.216,0.114
				c-0.018,0.081-0.083,0.222-0.2,0.42c-0.117,0.199-0.188,0.371-0.219,0.514c-0.025,0.121-0.036,0.215-0.028,0.28
				c0.03,0.262,0.149,0.457,0.356,0.585c0.041,0.009,0.092,0.02,0.152,0.033c0.062,0.012,0.127,0.026,0.199,0.041
				c0.07,0.016,0.127,0.027,0.168,0.035c0.224,0.047,0.627,0.206,1.208,0.478c0.017,0.024,0.049,0.021,0.098-0.012
				c0.015,0.024,0.153,0.128,0.413,0.311l0.109,0.087c0.02,0.004,0.038,0.019,0.056,0.044c0.015,0.024,0.033,0.038,0.054,0.043
				c0.017,0.024,0.06,0.071,0.131,0.139c0.07,0.068,0.135,0.119,0.191,0.152l0.047,0.233c0.057,0.033,0.097,0.09,0.124,0.169
				c0.025,0.081,0.046,0.133,0.063,0.157c0.016,0.024,0.05,0.063,0.103,0.117s0.085,0.103,0.097,0.147
				c-0.004,0.021-0.005,0.047,0,0.08c0.003,0.032,0.003,0.06-0.002,0.079c0.328,0.367,0.504,0.744,0.528,1.133
				c0.157,0.67,0.227,1.047,0.209,1.128c0.032,0.05,0.076,0.144,0.133,0.283c-0.029,0.036-0.05,0.085-0.063,0.146
				c-0.014,0.062-0.021,0.103-0.025,0.122l0.048,0.074c0.016,0.024,0.029,0.06,0.042,0.104c-0.005,0.021-0.014,0.061-0.026,0.122
				s-0.014,0.114-0.001,0.16c0.006,0.17,0.008,0.267,0.003,0.287c-0.013,0.061-0.066,0.113-0.16,0.157
				c0.015,0.024,0.02,0.058,0.011,0.099c-0.004,0.021-0.024,0.064-0.06,0.131c-0.036,0.067-0.048,0.123-0.035,0.168
				c-0.045,0.012-0.092,0.061-0.143,0.146c-0.05,0.085-0.097,0.134-0.142,0.146c0.039,0.115,0.049,0.223,0.027,0.325
				c-0.034,0.163-0.117,0.306-0.249,0.426c-0.005,0.021-0.028,0.037-0.075,0.049c-0.045,0.012-0.079,0.026-0.104,0.042
				c-0.036,0.077-0.104,0.17-0.2,0.276c-0.099,0.106-0.166,0.199-0.202,0.276c-0.021-0.004-0.06,0.004-0.116,0.023
				c-0.059,0.02-0.107,0.025-0.147,0.018c-0.033,0.057-0.09,0.119-0.167,0.188c-0.078,0.068-0.133,0.121-0.16,0.158
				c-0.021-0.005-0.049,0-0.084,0.014c-0.034,0.015-0.064,0.029-0.089,0.046c-0.025,0.017-0.048,0.021-0.068,0.018l-0.032,0.152
				c-0.023,0.017-0.052,0.043-0.079,0.079c-0.029,0.037-0.057,0.063-0.081,0.079c-0.023,0.016-0.048,0.021-0.068,0.018
				c-0.041-0.009-0.063-0.003-0.066,0.017l-0.043,0.056c-0.029,0.037-0.058,0.063-0.081,0.079c-0.041-0.009-0.074-0.005-0.099,0.011
				c-0.045,0.012-0.094,0.044-0.146,0.097c-0.054,0.053-0.1,0.092-0.137,0.115c-0.036,0.024-0.09,0.051-0.16,0.078
				c-0.069,0.028-0.135,0.035-0.196,0.022c-0.028,0.036-0.088,0.066-0.178,0.091c-0.091,0.023-0.147,0.043-0.173,0.059
				c-0.021-0.004-0.063-0.008-0.125-0.01c-0.063-0.003-0.115-0.009-0.156-0.018c-0.18,0.048-0.291,0.067-0.331,0.059
				c-0.041-0.008-0.077-0.037-0.108-0.087c-0.214-0.001-0.371,0.039-0.475,0.124c-0.041-0.009-0.088-0.014-0.141-0.014
				c-0.052,0-0.09-0.004-0.109-0.008c-0.045,0.013-0.119,0.008-0.22-0.014c-0.021-0.005-0.078,0.016-0.172,0.06
				c-0.095,0.044-0.163,0.062-0.203,0.054c-0.041-0.01-0.085-0.051-0.133-0.125c-0.087,0.004-0.303-0.031-0.649-0.104
				c-0.143-0.03-0.246-0.041-0.311-0.034c-0.082-0.017-0.131-0.038-0.147-0.063c-0.045,0.013-0.115,0.014-0.208,0.005
				c-0.094-0.01-0.166,0.002-0.215,0.034c-0.058-0.033-0.137-0.061-0.239-0.082c-0.061-0.013-0.152-0.026-0.276-0.042
				c-0.125-0.016-0.208-0.028-0.248-0.037c-0.062-0.013-0.153-0.053-0.277-0.121c-0.124-0.069-0.226-0.122-0.302-0.16l-0.092-0.02
				l-0.024-0.036c-0.021-0.005-0.041-0.009-0.061-0.013l-0.062-0.014c-0.061-0.013-0.147-0.052-0.263-0.118
				c-0.113-0.066-0.201-0.106-0.262-0.119c-0.354-0.138-0.557-0.233-0.609-0.287l-0.072-0.111c-0.14-0.05-0.28-0.239-0.423-0.567
				c-0.047-0.286-0.065-0.503-0.056-0.649l0.084-0.398l-0.019-0.066l0.037-0.024c0.005-0.021,0.009-0.041,0.013-0.062
				c0.021-0.102,0.026-0.175,0.015-0.22c0.317-0.295,0.64-0.461,0.967-0.499c0.02,0.004,0.071,0.01,0.155,0.017
				s0.147,0.005,0.192-0.007l0.092,0.019c0.021,0.005,0.073,0.011,0.157,0.017c0.083,0.008,0.146,0.015,0.187,0.023
				c0.061,0.013,0.109,0.034,0.146,0.063c0.132-0.016,0.248-0.013,0.351,0.009c0.121,0.025,0.219,0.067,0.291,0.126
				c0.066-0.008,0.221,0.014,0.466,0.065l0.122,0.025c0.021,0.005,0.068,0.004,0.145-0.002c0.074-0.005,0.133-0.003,0.174,0.005
				l0.152,0.032c0.081,0.018,0.154,0.001,0.218-0.05s0.108-0.083,0.133-0.1c0.023-0.016,0.066-0.034,0.124-0.054
				c0.056-0.021,0.098-0.038,0.122-0.054c0.373-0.561,0.572-0.9,0.599-1.023c0.021-0.102,0.013-0.167-0.023-0.196
				c0.117-0.358,0.024-0.824-0.28-1.399c-0.053-0.053-0.141-0.146-0.262-0.277c-0.12-0.132-0.206-0.225-0.26-0.278
				c-0.041-0.009-0.07-0.021-0.088-0.034c-0.019-0.015-0.049-0.026-0.089-0.035c-0.028-0.069-0.082-0.113-0.164-0.131
				c-0.024-0.089-0.078-0.133-0.164-0.129c-0.007-0.065-0.095-0.158-0.262-0.278c-0.2-0.255-0.366-0.429-0.496-0.519
				c-0.017-0.025-0.02-0.058-0.011-0.099c-0.058-0.033-0.124-0.095-0.201-0.187c-0.076-0.09-0.133-0.15-0.169-0.179l0.013-0.062
				c-0.017-0.023-0.022-0.047-0.019-0.067c-0.048-0.073-0.132-0.182-0.25-0.323c-0.12-0.143-0.204-0.24-0.258-0.294
				c-0.02-0.11-0.137-0.358-0.354-0.745c-0.035-0.134-0.063-0.203-0.083-0.208l0.025-0.122c-0.081-0.123-0.116-0.205-0.107-0.246
				l0.02-0.092c0.004-0.02-0.003-0.09-0.02-0.211c-0.018-0.121-0.021-0.201-0.013-0.242c-0.115-0.471-0.182-0.762-0.2-0.872
				c-0.016-0.131-0.017-0.227-0.004-0.288c0.009-0.041,0.042-0.098,0.101-0.17c-0.009-0.066,0.001-0.159,0.027-0.281
				c0.06-0.285,0.162-0.52,0.307-0.701c0.021-0.103,0.085-0.207,0.193-0.311l0.025-0.123c0.062-0.093,0.163-0.199,0.306-0.318
				c0.142-0.119,0.243-0.225,0.306-0.318c0.198-0.129,0.317-0.241,0.358-0.34c0.021,0.005,0.104-0.041,0.253-0.139
				c0.024-0.016,0.084-0.046,0.179-0.09c0.094-0.044,0.166-0.081,0.216-0.113l0.03,0.006c0.024-0.016,0.047-0.021,0.068-0.018
				c0.048-0.032,0.14-0.066,0.274-0.102c0.137-0.035,0.229-0.068,0.277-0.102c0.086-0.003,0.218-0.023,0.396-0.061
				c0.177-0.036,0.319-0.055,0.426-0.054c0.054-0.052,0.141-0.065,0.263-0.04l0.153,0.032c0.045-0.012,0.101-0.021,0.165-0.029
				c0.066-0.007,0.11-0.02,0.136-0.036l0.123,0.026l0.294-0.034C143.623,15.442,143.788,15.466,144.033,15.518z"/>
		</g>
		<path fill="#231F20" d="M150.11,47.632c0.128,0.059-0.872,3.241-0.463,3.785c0.721,0.957,2.549,0.037,3.093,1.41
			c-1.294,0.802-2.169-0.664-3.236-0.205c-0.845,0.364-0.685,2.001-1.761,2.289c-0.167-0.982,0.393-1.306,0.666-2.085
			c0.427-1.229-0.319-1.293-1.249-1.627c-0.649-0.231-2.315-0.737-1.219-1.446c0.833-0.541,1.515,0.636,2.332,0.54
			C148.273,50.293,149.379,47.786,150.11,47.632z"/>
		<path fill="#231F20" d="M22.998,72.671c0.091-0.07,1.104,2.536,1.563,2.515c0.81-0.035,1.28-2.027,2.2-1.688
			c-0.261,1.494-1.389,1.368-1.701,2.487c-0.246,0.885,0.607,1.684,0.21,2.712c-0.547-0.422-0.423-1.056-0.656-1.716
			c-0.371-1.041-0.771-0.477-1.39,0.083c-0.431,0.392-1.496,1.444-1.289,0.16c0.157-0.977,1.052-0.859,1.412-1.57
			C23.347,75.654,22.709,73.346,22.998,72.671z"/>
	</g>
</g>
</svg>
