<?xml version="1.0" encoding="utf-8"?>
<!-- Generator: Adobe Illustrator 16.0.0, SVG Export Plug-In . SVG Version: 6.00 Build 0)  -->
<!DOCTYPE svg PUBLIC "-//W3C//DTD SVG 1.1//EN" "http://www.w3.org/Graphics/SVG/1.1/DTD/svg11.dtd">
<svg version="1.1" id="Layer_1" xmlns="http://www.w3.org/2000/svg" xmlns:xlink="http://www.w3.org/1999/xlink" x="0px" y="0px"
	 width="128.311px" height="129.078px" viewBox="0 0 128.311 129.078" enable-background="new 0 0 128.311 129.078"
	 xml:space="preserve">
<g>
	<path fill="#FFFFFF" d="M69.469,14.337c-2.439-3.161-8.078-4.8-11.877-5.273c-3.744-0.471-7.547,0.726-11.283,0.043
		c-2.401-0.441-2.352-2.436-4.271-3.832c-1.722-1.253-4.652-2.453-6.677-2.859c-3.481-0.7-9.104-1.232-11.635,1.841
		c-2.619,3.183-3.629,8.017-1.638,11.44c0.998,1.716,2.957,3.013,1.263,4.871c-0.851,0.932-2.277,0.737-3.111,1.571
		c-0.563,0.562-0.934,1.983-1.276,2.703l-0.099,0.207c0.177,1.815-0.733,3.509-0.335,5.633c0.479,2.537,0.978,4.186,3.77,4.407
		c2.737,0.217,5.249-0.321,8.023,0.238c2.313,0.467,4.023,0.116,6.219,0.156c4.702,0.089,7.87,4.802,11.936,6.468
		c5.75,2.357,10.362-0.742,15.619-2.958c4.944-2.09,9.135-5.707,9.729-11.37C74.243,23.628,71.895,17.484,69.469,14.337z"/>
	<path fill="#FFFFFF" d="M123.615,36.505l-1.226,0.434c0.189-0.01,0.554-0.089,1.007-0.187
		C123.516,36.667,123.603,36.584,123.615,36.505z M123.397,36.752c-1.178,0.844-7.121,1.893-8.485,2.535
		c-3.308,1.556-6.63,3.457-9.638,5.284c-3.06,1.858-1.833,2.438-0.287,5.395c1.224,2.334,1.184,3.849-0.688,5.831
		c-2.137,2.261-5.614,3.236-8.399,4.602c-1.448,0.715-3.78,0.884-4.446,2.6c-0.65,1.685,0.382,2.481,2.063,2.513
		c2.573,0.048,6.095-2.096,8.44-3.176c2.741-1.262,5.604-1.957,8.344-3.223c3.432-1.586,14.42-7.203,6.977-10.359
		c-1.957-0.827-5.313-1.119-3.356-3.659c1.143-1.479,4.561-2.438,6.3-3.083c1.485-0.549,6.906-1.606,7.675-3.203
		C129.52,35.444,125.48,36.305,123.397,36.752z"/>
	<path fill="#FFFFFF" d="M38.789,77.806l-0.413-0.195c-2.361,2.34-6.628,5.854-7.836,8.969c-1.863,4.797,2.687,5.908,6.817,4.688
		c2.434-0.723,8.288-3.079,9.394-5.598C48.765,81.074,42.625,78.32,38.789,77.806z"/>
	<path fill="#FFFFFF" d="M103.534,11.39c-0.892-3.175-4.745-0.578-6.638-3.115c3.225-2.547,1.063-8.253,1.063-8.253
		c-0.796-0.366-5.247,4.1-6.104,3.896c-4.619,2.138-8.738,7.383-12.183,11.29c-4.483,5.086-9.195,6.766-14.43,10.538
		c-3.851,2.778-3.156,6.887-5.86,10.977c-2.171,3.283-4.926,5.579-6.204,9.771c-1.872,6.133-2.453,20.919,5.155,22.308
		c7.993,1.463,17.602-7.431,21.938-13.093c2.91-3.796,4.859-8.404,7.854-12.08c2.853-3.502,6.314-6.36,6.832-11.302
		c-2.462-0.45-4.989,0.313-7.211-1.642c1.236-4.15,7.896-9.236,10.959-12.404C100.037,16.909,104.191,13.729,103.534,11.39z"/>
	<g>
		<path fill="#FFFFFF" d="M114.395,71.169c-0.646-16.879-13.782-12.993-23.039-9.08c-2.323-4.021-3.607-8.705-6.043-12.361
			c-3.579-5.378-8.686-4.268-12.996-8.266c-3.958-3.675-0.401-11.021-9.571-10.546c-4.402,0.231-9.994,4.525-13.721,6.463
			c-3.553-9.151-16.029-6.533-23.776-6.283C24.182,20.486,9.931,19.972,9.401,30.47L8.34,34.179
			c-2.146,4.879-3.612,10.036-5.804,15.132c-2.771,6.451-1.968,9.58-2.536,15.94c4.627,5.166,7.719,3.883,13.412,4.338
			c4.687,0.371,7.1,1.52,12.127,0.765c0.331,5.659,4.58,3.169,8.065,4.821c3.604,1.709,2.896,2.104,4.891,5.176
			c3.916,6.031,7.395,7.252,14.083,10.814c-2.088,7.369,11.821,10.353,16.796,10.727c9.045,0.677,9.476-2.881,8.788-10.416
			c-0.792-8.646-0.226-7.667,3.741,1.525c2.5,5.783,8.429,4.475,16.277,3.195C110.265,94.234,114.811,82.033,114.395,71.169z"/>
		<g>
			<path fill="#231F20" d="M20.979,33.489c0.037,0.01,0.076,0.05,0.117,0.12c0.042,0.07,0.094,0.136,0.158,0.191
				c0.037,0.01,0.086,0.015,0.146,0.009c0.061-0.003,0.109,0,0.147,0.01c0.073,0.02,0.138,0.078,0.193,0.171
				c0.054,0.095,0.118,0.15,0.193,0.171c0.036,0.009,0.095,0.017,0.175,0.017c0.079,0.001,0.139,0.007,0.175,0.017
				c0.085-0.017,0.166,0.015,0.243,0.095c0.078,0.08,0.137,0.125,0.174,0.135c0.074,0.021,0.153,0.093,0.241,0.215
				c0.086,0.123,0.167,0.193,0.242,0.213c-0.01,0.038-0.005,0.088,0.02,0.154c0.021,0.066,0.004,0.131-0.053,0.195
				c0.036,0.01,0.098,0.006,0.183-0.012c0.046-0.025,0.079,0.002,0.098,0.086c0.091,0.105,0.194,0.312,0.313,0.621l0.139,0.156
				c-0.01,0.037-0.015,0.086-0.01,0.146c0.004,0.061,0.019,0.115,0.047,0.162c0.016,0.084,0.073,0.357,0.169,0.82
				c0.095,0.464,0.146,0.757,0.155,0.878l-0.077,1.412c0.214-0.062,0.403-0.25,0.568-0.564l1.412-0.819
				c0.54-0.533,1.386-0.865,2.535-0.998c0.047-0.027,0.108-0.031,0.184-0.011c0.252-0.052,0.477-0.073,0.673-0.06
				c0.073,0.02,0.261,0.029,0.56,0.027c0.299,0.002,0.539,0.025,0.728,0.074l0.057,0.016c0.045-0.027,0.089-0.036,0.126-0.026
				c0.521,0.138,0.821,0.278,0.903,0.419c0.241-0.014,0.383-0.018,0.42-0.008c0.297,0.079,0.504,0.275,0.621,0.585
				c0.239,0.144,0.493,0.391,0.76,0.739c0.264,0.349,0.445,0.575,0.536,0.68c-0.05,0.186-0.036,0.429,0.044,0.729
				c0.078,0.3,0.112,0.547,0.102,0.743c0.027,0.048,0.051,0.104,0.074,0.169c0.021,0.065,0.045,0.131,0.067,0.197
				c0.021,0.064,0.042,0.142,0.06,0.225c-0.014,0.197-0.016,0.465-0.006,0.806c0.01,0.34,0.018,0.571,0.025,0.693
				c0.084-0.017,0.155-0.067,0.219-0.15c0.063-0.083,0.116-0.139,0.164-0.166c0.047-0.027,0.09-0.045,0.135-0.054
				c0.041-0.01,0.084-0.027,0.133-0.054c0.01-0.037,0.037-0.07,0.086-0.098c0.047-0.026,0.097-0.063,0.148-0.11
				c0.051-0.045,0.101-0.081,0.147-0.109c0.047-0.026,0.121-0.087,0.228-0.18c0.18-0.229,0.332-0.349,0.453-0.355l0.285-0.402
				c-0.011,0.038-0.021,0.074-0.029,0.111l0.041,0.07c0.179-0.071,0.434-0.203,0.762-0.395c0.094-0.053,0.305-0.128,0.627-0.221
				c0.324-0.093,0.557-0.181,0.697-0.263c0.157,0.003,0.426-0.026,0.799-0.087c0.375-0.059,0.654-0.064,0.84-0.015l0.111,0.03
				c0.074,0.02,0.129,0.003,0.162-0.047c0.032-0.051,0.067-0.071,0.104-0.062c0.277,0.153,0.51,0.255,0.695,0.305
				c0.26,0.069,0.66,0.136,1.203,0.2c0.071,0.02,0.174,0.085,0.303,0.2c0.475,0.165,1.117,0.516,1.932,1.051
				c0.026,0.046,0.058,0.154,0.093,0.322c0.047-0.027,0.104-0.013,0.168,0.045c0.082,0.142,0.175,0.275,0.28,0.403
				c0.105,0.128,0.229,0.26,0.373,0.397c0.144,0.139,0.238,0.253,0.295,0.348c-0.032,0.271,0.066,0.535,0.298,0.795
				c0.229,0.262,0.358,0.476,0.395,0.643c0.027,0.048,0.076,0.09,0.146,0.128c0.067,0.04,0.12,0.063,0.158,0.072
				c0.016,0.244,0.102,0.557,0.26,0.936c0.157,0.38,0.243,0.692,0.26,0.936c0.107,0.188,0.162,0.361,0.159,0.52
				c0.026,0.047,0.017,0.084-0.03,0.111l-0.084,0.097l0.179,0.227c0.026,0.048,0.018,0.085-0.03,0.112
				c-0.057,0.064-0.09,0.115-0.1,0.152c0.055,0.095,0.13,0.332,0.228,0.717c0.106,0.349,0.129,0.712,0.067,1.094
				c0.014,0.242,0.014,0.401-0.008,0.477c-0.021,0.074-0.086,0.176-0.199,0.305c-0.05,0.186-0.049,0.404,0.004,0.657
				c0.045,0.132,0.107,0.269,0.189,0.409c-0.003,0.159-0.047,0.405-0.137,0.739c-0.05,0.188-0.134,0.464-0.25,0.829
				c-0.119,0.367-0.201,0.645-0.25,0.83c-0.011,0.037,0.007,0.082,0.053,0.135c0.046,0.051,0.059,0.113,0.039,0.189
				c-0.068,0.26-0.025,0.471,0.131,0.631c-0.057,0.064-0.082,0.157-0.074,0.278c0.008,0.122,0.007,0.202-0.003,0.239
				c-0.01,0.037-0.04,0.068-0.087,0.096c0.137,0.236,0.171,0.484,0.102,0.744c-0.028,0.111-0.102,0.232-0.215,0.36
				c0.063,0.216,0.063,0.435,0.004,0.659c-0.068,0.26-0.188,0.486-0.358,0.68c0.164,0.125,0.219,0.298,0.159,0.521
				c-0.03,0.111-0.067,0.182-0.114,0.208c0.051,0.253,0.043,0.51-0.027,0.77c-0.059,0.223-0.135,0.362-0.229,0.417
				c-0.059,0.065-0.068,0.142-0.031,0.229c0.035,0.091,0.048,0.153,0.038,0.189c-0.021,0.076-0.067,0.143-0.143,0.201
				c-0.075,0.061-0.118,0.109-0.129,0.146c0.056,0.095,0.06,0.305,0.012,0.631c-0.048,0.325-0.024,0.541,0.066,0.645
				c-0.057,0.065-0.106,0.181-0.15,0.348c-0.044,0.168-0.098,0.284-0.151,0.348c-0.004,0.159-0.068,0.399-0.193,0.726
				c-0.127,0.324-0.196,0.584-0.207,0.78c-0.059,0.065-0.157,0.137-0.299,0.22l-0.074,0.278c-0.067,0.261-0.184,0.39-0.342,0.388
				c0.019,0.084,0.019,0.164-0.003,0.237c-0.021,0.074-0.077,0.18-0.173,0.313s-0.157,0.257-0.188,0.368l-0.028,0.111
				c-0.159-0.002-0.271,0.047-0.338,0.147c-0.068,0.101-0.132,0.226-0.188,0.368c-0.058,0.145-0.114,0.248-0.172,0.313
				c-0.021,0.074-0.022,0.153-0.003,0.238c0.017,0.084,0.02,0.146,0.01,0.182c-0.047,0.027-0.242,0.125-0.584,0.293
				c-0.344,0.168-0.627,0.222-0.85,0.162c-0.34,0.229-0.901,0.318-1.687,0.271c-0.252,0.052-0.396,0.071-0.434,0.063
				c-0.162,0.156-0.354,0.205-0.576,0.146c-0.074-0.021-0.139-0.076-0.193-0.171l-0.281,0.164c-0.076-0.02-0.168-0.045-0.279-0.074
				s-0.192-0.031-0.237-0.004c-0.252-0.105-0.547-0.273-0.883-0.503s-0.543-0.354-0.617-0.373l-0.87-0.771l0.044-0.168
				c-0.131,0.047-0.223-0.059-0.274-0.312c-0.148-0.039-0.265-0.131-0.346-0.271c-0.08-0.142-0.142-0.297-0.176-0.465
				c-0.036-0.166-0.08-0.3-0.134-0.395c0.021-0.074,0.131-0.124,0.338-0.148c-0.021-0.364-0.028-0.565-0.02-0.603
				c0.03-0.111,0.092-0.194,0.186-0.249l-0.04-0.07c-0.064-0.058-0.109-0.109-0.138-0.156c0.061-0.224,0.039-0.368-0.063-0.435
				l0.046-0.167c0.01-0.037,0.024-0.143,0.053-0.314c0.024-0.173,0.053-0.314,0.082-0.427c0.03-0.112,0.074-0.199,0.131-0.264
				l-0.131-0.632c-0.008-0.122,0.014-0.274,0.063-0.462c0.06-0.223,0.08-0.375,0.063-0.461c0.01-0.035,0.055-0.055,0.135-0.053
				c0.08,0.001,0.123-0.017,0.135-0.055c-0.026-0.047-0.071-0.109-0.131-0.184c-0.061-0.076-0.085-0.132-0.075-0.169
				c0.139-0.521,0.182-0.828,0.126-0.922c0.058-0.065,0.105-0.172,0.146-0.32c0.02-0.074,0.045-0.246,0.078-0.518
				c0.03-0.27,0.082-0.455,0.147-0.558c0.01-0.035,0.024-0.092,0.045-0.167l0.084-0.097c0.011-0.036,0.006-0.097-0.01-0.182
				c-0.027-0.046-0.006-0.063,0.07-0.042c-0.066-0.056-0.099-0.164-0.094-0.323c0.002-0.158-0.011-0.261-0.037-0.309
				c0.01-0.036-0.027-0.046-0.111-0.029c-0.086,0.018-0.121,0.008-0.111-0.03c0.045-0.026,0.104-0.169,0.174-0.431l0.07-0.04
				c0.047-0.027,0.076-0.06,0.086-0.098l0.047-0.404c0.011-0.037,0.033-0.091,0.072-0.161c0.039-0.069,0.063-0.122,0.073-0.159
				l0.03-0.111c0.02-0.075,0.036-0.18,0.053-0.314c0.016-0.136,0.029-0.221,0.039-0.258c0.02-0.075,0.086-0.177,0.201-0.307
				c-0.017-0.242,0.02-0.671,0.104-1.286c0.118-0.446,0.248-0.789,0.394-1.029c-0.022-0.364,0.021-0.751,0.129-1.16
				c0.061-0.224,0.165-0.473,0.319-0.752c-0.018-0.084-0.007-0.2,0.033-0.35c0.029-0.111,0.092-0.273,0.189-0.486
				c0.096-0.213,0.157-0.376,0.188-0.487c0.04-0.148,0.042-0.308,0.007-0.477c0.011-0.036,0.039-0.108,0.088-0.215
				c0.05-0.107,0.082-0.196,0.103-0.271c0.029-0.113,0.029-0.192,0.004-0.239c0.066-0.102,0.129-0.263,0.188-0.487
				c0.099-0.371,0.08-0.715-0.055-1.029s-0.371-0.517-0.705-0.605l-0.224-0.06c-0.159-0.002-0.52,0.159-1.085,0.487
				c-0.039,0.149-0.127,0.325-0.26,0.529c-0.136,0.203-0.216,0.36-0.245,0.472l-0.089,0.335c-0.011,0.036-0.046,0.087-0.101,0.152
				l-0.086,0.097l0.041,0.07c0.025,0.047,0.035,0.09,0.025,0.126c-0.068,0.262-0.128,0.404-0.174,0.432l-0.257,0.291l0.013,0.182
				l-0.477,0.889c-0.011,0.038-0.025,0.133-0.046,0.285c-0.021,0.154-0.042,0.27-0.062,0.344c-0.061,0.223-0.169,0.412-0.331,0.568
				c-0.006,0.318-0.021,0.532-0.052,0.644l-0.073,0.279c-0.021,0.074-0.082,0.157-0.188,0.248c-0.104,0.092-0.165,0.176-0.186,0.25
				c-0.01,0.037-0.009,0.107,0.003,0.21c0.012,0.103,0.01,0.191-0.01,0.266l-0.03,0.111c-0.03,0.111-0.102,0.232-0.215,0.36
				c-0.114,0.13-0.184,0.232-0.202,0.306c-0.043,0.467-0.094,0.812-0.154,1.034l-0.059,0.223c-0.021,0.075-0.074,0.161-0.158,0.257
				c-0.086,0.097-0.139,0.182-0.158,0.256l-0.164,0.613c-0.02,0.076-0.091,0.195-0.215,0.361c-0.125,0.167-0.2,0.306-0.229,0.417
				c-0.011,0.038,0.012,0.104,0.067,0.196c0.053,0.096,0.053,0.174-0.004,0.238c0.017,0.086,0,0.148-0.053,0.195
				c-0.052,0.046-0.082,0.088-0.092,0.124c0.061,0.218,0.057,0.455-0.013,0.715l-0.236,0.893c-0.012,0.038-0.044,0.089-0.102,0.151
				c-0.057,0.065-0.09,0.117-0.1,0.154s-0.021,0.104-0.025,0.201c-0.004,0.099-0.018,0.186-0.037,0.258l-0.029,0.113
				c-0.021,0.074-0.096,0.164-0.223,0.27s-0.201,0.195-0.221,0.27c-0.021,0.075-0.035,0.21-0.047,0.404
				c-0.015,0.197-0.033,0.35-0.063,0.461c-0.03,0.112-0.073,0.2-0.131,0.266c-0.02,0.074-0.086,0.176-0.201,0.304
				c-0.112,0.129-0.18,0.23-0.199,0.306c-0.03,0.111-0.073,0.309-0.129,0.594c-0.055,0.283-0.12,0.494-0.198,0.633
				c-0.047,0.028-0.14,0.112-0.275,0.255c-0.139,0.143-0.254,0.242-0.348,0.296c-0.058,0.066-0.103,0.152-0.131,0.264
				c-0.029,0.112-0.05,0.187-0.06,0.223c-0.01,0.038-0.08,0.079-0.211,0.124c-0.133,0.046-0.207,0.104-0.227,0.177
				c-0.425,0.09-0.728,0.107-0.912,0.058l-0.111-0.028c-0.038-0.011-0.094,0.014-0.169,0.074c-0.076,0.061-0.132,0.084-0.169,0.074
				l-0.111-0.029c-0.11-0.029-0.236-0.084-0.375-0.16c-0.14-0.076-0.229-0.119-0.265-0.128c-0.111-0.03-0.192-0.031-0.237-0.004
				c-0.065-0.058-0.193-0.142-0.383-0.251c-0.188-0.11-0.315-0.194-0.381-0.251c-0.065-0.057-0.144-0.059-0.238-0.004l-0.056-0.015
				c-0.128-0.114-0.329-0.186-0.599-0.219c-0.271-0.032-0.415-0.09-0.431-0.175l-0.67-0.178c-0.036-0.168-0.047-0.271-0.038-0.309
				c-0.417-0.231-0.642-0.729-0.677-1.495c0.02-0.073,0.045-0.136,0.079-0.187c0.033-0.051,0.055-0.094,0.064-0.133
				c0.011-0.037-0.039-0.079-0.146-0.128c-0.107-0.048-0.155-0.091-0.146-0.128c0.04-0.148,0.028-0.331-0.032-0.546
				c-0.063-0.217-0.079-0.38-0.05-0.491l0.03-0.111l0.041-0.826c0.01-0.036,0.017-0.095,0.018-0.175
				c0-0.079,0.006-0.138,0.017-0.175l0.133-0.502c0.03-0.111,0.041-0.229,0.034-0.35s-0.001-0.219,0.019-0.293
				c0.011-0.037,0.033-0.09,0.072-0.16c0.039-0.068,0.068-0.142,0.088-0.216l-0.025-0.126c0.02-0.074,0.034-0.13,0.045-0.168
				l0.028-0.111c0.03-0.111,0.075-0.318,0.136-0.621s0.11-0.527,0.15-0.676c0.049-0.187,0.15-0.418,0.305-0.696l-0.078-0.379
				c0.064-0.103,0.125-0.244,0.174-0.432c0.049-0.186,0.091-0.492,0.125-0.921c0.035-0.431,0.082-0.756,0.141-0.979l0.657-1.796
				l0.148-0.558l0.015-0.057c0.056-0.064,0.09-0.114,0.101-0.152l0.044-0.167c0.051-0.186,0.086-0.475,0.11-0.866
				c0.043-0.309,0.142-0.759,0.3-1.354c0.109-0.408,0.208-0.7,0.293-0.878c0.233-0.574,0.409-1.085,0.528-1.531
				c0.197-0.743,0.285-1.377,0.266-1.9c0.04-0.148,0.088-0.255,0.146-0.319c-0.08-0.3-0.361-0.515-0.843-0.643
				c-0.262-0.069-0.452-0.1-0.573-0.093c-0.402,0.013-0.839,0.235-1.313,0.667l-0.469,0.413c-0.01,0.037-0.023,0.092-0.044,0.166
				c-0.02,0.076-0.054,0.127-0.101,0.154c-0.011,0.037-0.085,0.096-0.227,0.179l-0.204,0.543c-0.02,0.074-0.059,0.183-0.117,0.326
				c-0.058,0.143-0.097,0.253-0.116,0.327c-0.011,0.037-0.025,0.133-0.046,0.286c-0.021,0.154-0.041,0.269-0.062,0.343l-0.044,0.167
				c-0.021,0.075-0.077,0.14-0.172,0.193c-0.094,0.055-0.146,0.101-0.156,0.138c-0.065,0.102-0.105,0.25-0.118,0.446
				c-0.013,0.196-0.06,0.304-0.145,0.319c-0.03,0.111-0.031,0.23-0.005,0.357c0.025,0.127,0.028,0.227,0.009,0.301l-0.03,0.112
				c-0.04,0.148-0.125,0.324-0.26,0.528c-0.133,0.203-0.215,0.359-0.245,0.473l-0.044,0.166c-0.02,0.074-0.007,0.178,0.037,0.309
				c0.046,0.132,0.052,0.253,0.021,0.364c-0.01,0.038-0.03,0.081-0.063,0.133c-0.033,0.05-0.056,0.095-0.065,0.131
				c-0.028,0.112-0.023,0.243,0.017,0.394s0.055,0.244,0.045,0.28c0.007,0.121-0.012,0.305-0.059,0.552
				c-0.045,0.248-0.077,0.407-0.098,0.481c-0.05,0.187-0.076,0.358-0.078,0.517c-0.02,0.076-0.033,0.2-0.041,0.377
				c-0.007,0.178-0.021,0.305-0.041,0.379c-0.02,0.074-0.071,0.159-0.157,0.256c-0.087,0.097-0.139,0.183-0.158,0.257l-0.089,0.334
				c-0.06,0.224-0.137,0.362-0.23,0.417c0.099,0.227,0.104,0.506,0.015,0.84c-0.04,0.148-0.136,0.362-0.29,0.641
				c-0.057,0.064-0.053,0.125,0.012,0.182l0.082,0.142c-0.097,0.214-0.089,0.414,0.02,0.603c-0.029,0.111-0.088,0.255-0.175,0.431
				c-0.086,0.177-0.14,0.302-0.16,0.376c-0.049,0.186-0.033,0.349,0.049,0.49c-0.04,0.148-0.105,0.321-0.195,0.516
				c-0.093,0.194-0.153,0.347-0.184,0.458l-0.045,0.169c-0.03,0.111-0.085,0.245-0.167,0.403c-0.081,0.157-0.132,0.272-0.152,0.348
				c-0.04,0.148-0.031,0.27,0.022,0.364c-0.173,0.353-0.325,0.551-0.456,0.595l-0.104,0.39l-0.425,0.246
				c-0.099,0.372-0.275,0.664-0.53,0.874c-0.282,0.164-0.555,0.212-0.814,0.142c-0.047,0.027-0.115,0.06-0.204,0.096
				s-0.157,0.068-0.204,0.096c-0.075-0.021-0.221-0.03-0.439-0.027c-0.221,0.001-0.386-0.014-0.497-0.043l-0.167-0.045l-0.057-0.015
				c-0.065-0.058-0.116-0.091-0.151-0.101l-0.484-0.426c-0.037-0.011-0.073,0.01-0.105,0.061c-0.033,0.051-0.087,0.066-0.162,0.047
				c-0.612-0.244-0.94-0.43-0.985-0.562c-0.084,0.018-0.14,0.003-0.167-0.044c-0.028-0.047-0.079-0.081-0.152-0.101
				c-0.127-0.273-0.616-0.603-1.469-0.989c-0.204-0.133-0.352-0.251-0.442-0.355c-0.009-0.121-0.038-0.269-0.092-0.443
				c-0.053-0.173-0.084-0.32-0.091-0.442c-0.363-0.731-0.489-1.303-0.38-1.712l0.029-0.111c0.01-0.037,0.003-0.09-0.02-0.154
				c-0.022-0.066-0.027-0.117-0.019-0.154c0.009-0.037,0.033-0.091,0.072-0.16c0.037-0.07,0.063-0.123,0.072-0.16
				c0.03-0.112,0.063-0.313,0.102-0.602c0.036-0.289,0.074-0.507,0.113-0.656c0.069-0.26,0.19-0.486,0.361-0.68
				c-0.052-0.252-0.045-0.509,0.024-0.77c0.029-0.112,0.084-0.276,0.162-0.494c0.076-0.219,0.127-0.365,0.146-0.439
				c0.049-0.186,0.111-0.498,0.188-0.936c0.077-0.437,0.148-0.786,0.219-1.047c0.396-1.486,0.716-2.616,0.96-3.388l-0.052-0.252
				l0.06-0.224c0.049-0.185,0.159-0.415,0.333-0.688c0.172-0.273,0.278-0.483,0.318-0.632c0.085-0.177,0.174-0.432,0.263-0.768
				c0.089-0.334,0.158-0.593,0.208-0.78c0.04-0.148,0.107-0.369,0.205-0.662c0.099-0.291,0.172-0.531,0.221-0.717l0.089-0.335
				c-0.082-0.141-0.098-0.304-0.048-0.49l0.148-0.558c0.01-0.037,0.014-0.096,0.017-0.176c0.001-0.079,0.007-0.137,0.018-0.174
				c0.029-0.113,0.108-0.301,0.238-0.564c0.131-0.265,0.21-0.451,0.24-0.563c0.03-0.111,0.038-0.297,0.029-0.559
				c-0.011-0.262-0.006-0.43,0.014-0.504c0.03-0.112,0.067-0.29,0.114-0.537c0.046-0.247,0.063-0.431,0.057-0.552
				c0.04-0.148,0.103-0.382,0.187-0.698c0.084-0.313,0.146-0.548,0.186-0.697l0.361-0.681c0.021-0.233,0.164-0.543,0.426-0.931
				c0.262-0.389,0.414-0.735,0.457-1.044c0.047-0.027,0.156-0.138,0.328-0.332c0.111,0.03,0.209,0.037,0.293,0.019l0.085-0.097
				c0.01-0.036,0.035-0.051,0.071-0.041c0.047-0.025,0.147-0.028,0.302-0.01c0.153,0.021,0.267,0.042,0.342,0.063
				C20.183,33.338,20.644,33.4,20.979,33.489z M37.463,64.031l0.044-0.168l-0.056-0.016c-0.05,0.027-0.084,0.018-0.111-0.029
				C37.271,63.921,37.313,63.991,37.463,64.031z M40.555,56.671c-0.074-0.02-0.136-0.016-0.183,0.012
				C40.483,56.712,40.544,56.708,40.555,56.671z"/>
		</g>
		<g>
			<path fill="#231F20" d="M105.27,65.228l0.031,0.234c0.139,0.062,0.327,0.181,0.563,0.361c0.235,0.18,0.518,0.514,0.846,0.998
				c0.327,0.485,0.624,0.829,0.888,1.031c0.007,0.053,0.027,0.115,0.064,0.189l0.01,0.078c0.09,0.067,0.173,0.108,0.255,0.125
				c0.007,0.053,0.209,0.487,0.607,1.307c0.058,0.046,0.107,0.072,0.148,0.08c0.04,0.008,0.075,0.023,0.104,0.045
				c0.035,0.074,0.075,0.188,0.124,0.342c0.046,0.15,0.099,0.25,0.157,0.297c-0.021,0.029-0.03,0.068-0.022,0.121
				c0.006,0.053-0.003,0.092-0.025,0.121c0.224,0.686,0.287,1.27,0.192,1.758c-0.018,0.081,0.002,0.166,0.053,0.251
				s0.065,0.144,0.043,0.173s-0.05,0.078-0.079,0.148c-0.032,0.07-0.068,0.135-0.113,0.193c0.17,0.69,0.143,1.184-0.083,1.477
				l-0.181,0.143c-0.016,0.082,0.006,0.146,0.064,0.189l0.1,0.146c-0.011,0.133-0.067,0.299-0.173,0.498
				c-0.106,0.197-0.156,0.323-0.149,0.375l-0.338,0.44c-0.021,0.028-0.018,0.067,0.016,0.116c0.032,0.05,0.041,0.113,0.025,0.195
				l-0.102,0.131c-0.203,0.267-0.342,0.414-0.416,0.451c0.006,0.053-0.091,0.211-0.294,0.475c-0.067,0.089-0.126,0.209-0.172,0.359
				c-0.045,0.15-0.104,0.271-0.17,0.359c-0.067,0.088-0.14,0.15-0.214,0.186c-0.046,0.061-0.044,0.119,0.004,0.178
				c0.047,0.062,0.06,0.105,0.036,0.136c-0.129,0.228-0.339,0.532-0.631,0.914c-0.227,0.294-0.411,0.502-0.553,0.628l-0.176-0.137
				l-0.111,0.966c-0.016,0.082-0.063,0.114-0.146,0.101c-0.075,0.034-0.123,0.067-0.146,0.098c-0.1,0.25-0.225,0.412-0.372,0.484
				c-0.032,0.161-0.16,0.391-0.386,0.686c-0.203,0.264-0.375,0.457-0.518,0.582c-0.038,0.109-0.025,0.215,0.04,0.313
				c-0.053,0.006-0.101,0.039-0.146,0.098c-0.181,0.235-0.297,0.355-0.349,0.363c-0.018,0.08-0.059,0.165-0.125,0.254l-0.384,0.406
				c-0.075,0.223-0.147,0.377-0.216,0.465l-0.111,0.055c-0.074,0.035-0.148,0.072-0.224,0.107c-0.182,0.236-0.313,0.346-0.393,0.33
				c-0.019,0.08-0.069,0.182-0.159,0.299c-0.091,0.117-0.226,0.246-0.404,0.389c-0.18,0.143-0.303,0.258-0.37,0.347
				c-0.112,0.146-0.178,0.262-0.192,0.342c-0.263,0.22-0.404,0.345-0.428,0.373c-0.021,0.03-0.162,0.062-0.423,0.097
				c0.006,0.051-0.022,0.121-0.092,0.209c-0.045,0.061-0.137,0.117-0.272,0.176c-0.14,0.057-0.22,0.102-0.241,0.131l-0.103,0.133
				c-0.338,0.439-0.685,0.617-1.039,0.531l-0.021,0.121c-0.023,0.029-0.046,0.061-0.068,0.088c-0.158,0.207-0.415,0.268-0.77,0.182
				c-0.045,0.061-0.104,0.12-0.174,0.182c-0.072,0.063-0.104,0.121-0.098,0.172c-0.355,0.101-0.617,0.226-0.78,0.379
				c-0.244-0.047-0.435,0.019-0.569,0.193c-0.313,0.041-0.542,0.098-0.69,0.17c-0.737-0.193-1.331-0.181-1.777,0.035
				c-0.029-0.021-0.126-0.049-0.288-0.08c-0.201,0.08-0.524,0.075-0.974-0.012c-0.445-0.086-0.748-0.119-0.902-0.1
				c-0.053,0.008-0.094,0-0.123-0.023c-0.029-0.021-0.06-0.045-0.087-0.066c-0.127,0.043-0.286,0.037-0.479-0.017
				c-0.19-0.056-0.339-0.073-0.442-0.062l-0.177-0.135c-0.118-0.091-0.278-0.17-0.485-0.232c-0.207-0.066-0.354-0.133-0.442-0.2
				c-0.06-0.045-0.216-0.13-0.47-0.255s-0.47-0.256-0.646-0.393l-0.043-0.033c-0.037-0.074-0.069-0.123-0.1-0.146l-0.31-0.235
				c-0.293-0.228-0.468-0.455-0.524-0.685l-0.088-0.067c-0.117-0.09-0.248-0.285-0.394-0.582c-0.453-0.627-0.719-1.136-0.795-1.521
				c-0.408-0.502-0.622-0.925-0.641-1.265c-0.266-0.203-0.339-0.563-0.223-1.078c0.022-0.029,0.016-0.082-0.02-0.157L84.75,82.74
				c0.084-0.169,0.137-0.467,0.16-0.893c0.022-0.426,0.113-0.74,0.271-0.946l-0.044-0.034c-0.008-0.052,0-0.092,0.023-0.121
				c0.037-0.111,0.082-0.229,0.131-0.354c0.05-0.125,0.11-0.267,0.184-0.42c0.071-0.154,0.114-0.272,0.132-0.354l0.049-0.244
				c0.036-0.11,0.106-0.22,0.214-0.324c0.104-0.106,0.18-0.188,0.226-0.248c0.022-0.028,0.028-0.084,0.018-0.16
				c-0.01-0.078-0.004-0.133,0.02-0.162c0.021-0.027,0.062-0.08,0.118-0.152c0.057-0.074,0.081-0.138,0.074-0.189
				c0.021-0.028,0.045-0.071,0.063-0.127c0.021-0.057,0.052-0.11,0.098-0.172l0.136-0.176c0.045-0.059,0.104-0.152,0.181-0.281
				c0.075-0.129,0.147-0.236,0.215-0.325c0.105-0.199,0.284-0.446,0.536-0.744c0.252-0.297,0.423-0.504,0.513-0.621
				c0.09-0.116,0.16-0.181,0.214-0.187c0.021-0.028,0.203-0.356,0.545-0.983c0.021-0.028,0.06-0.047,0.111-0.056
				c0.05-0.006,0.089-0.022,0.111-0.053l-0.01-0.078c-0.009-0.051,0.057-0.166,0.191-0.344c0.149-0.256,0.484-0.723,1.004-1.398
				c0.045-0.059,0.121-0.129,0.231-0.209c0.105-0.08,0.173-0.135,0.195-0.164l0.236-0.309l0.575-0.748
				c0.157-0.207,0.295-0.356,0.416-0.451c0.067-0.088,0.171-0.194,0.314-0.317c0.142-0.125,0.234-0.218,0.279-0.274l0.271-0.354
				c0.136-0.178,0.391-0.447,0.766-0.814c0.373-0.365,0.618-0.621,0.73-0.769c0.601-0.66,0.963-1.013,1.09-1.056
				c0.015-0.08,0.058-0.166,0.125-0.254c0.09-0.117,0.231-0.242,0.426-0.373c0.022-0.028,0.063-0.094,0.114-0.192
				c0.052-0.101,0.101-0.179,0.146-0.237c0.112-0.146,0.268-0.285,0.46-0.417c0.158-0.204,0.297-0.354,0.416-0.45
				c0.339-0.441,0.624-0.782,0.856-1.023c0.148-0.072,0.258-0.152,0.325-0.24c0.045-0.059,0.104-0.152,0.181-0.282
				c0.075-0.128,0.125-0.207,0.147-0.237c0.067-0.088,0.139-0.148,0.213-0.186c0.067-0.088,0.095-0.184,0.081-0.287
				c0.045-0.059,0.125-0.104,0.24-0.132c0.113-0.028,0.185-0.058,0.206-0.087l0.601,0.041c0.028,0.021,0.078,0.049,0.147,0.079
				c0.07,0.03,0.141,0.062,0.211,0.091c0.069,0.03,0.13,0.043,0.184,0.035c0.08,0.016,0.207,0.02,0.377,0.011
				c0.172-0.009,0.297-0.007,0.378,0.009c0.314,0.197,0.663,0.323,1.041,0.379c0.14,0.062,0.268,0.137,0.386,0.227
				c0.028,0.021,0.084,0.041,0.166,0.059l0.121,0.023l0.178,0.135c0.027,0.021,0.115,0.077,0.26,0.164
				c0.143,0.087,0.259,0.164,0.347,0.231c0.117,0.09,0.183,0.187,0.197,0.292c0.154-0.021,0.305,0.012,0.447,0.098
				c0.145,0.088,0.305,0.199,0.481,0.334C104.973,65.068,105.129,65.167,105.27,65.228z M91.937,84.055
				c-0.112,0.147-0.167,0.245-0.16,0.298c0.244,0.048,0.377,0.059,0.399,0.027C92.104,84.23,92.023,84.123,91.937,84.055z
				 M92.534,71.417l-0.103,0.133c0.028,0.021,0.069,0.029,0.122,0.023C92.6,71.515,92.593,71.462,92.534,71.417z M102.612,70.332
				c-0.059-0.045-0.32-0.037-0.787,0.023c-0.022,0.029-0.024,0.076-0.003,0.139c0.021,0.064,0.009,0.125-0.036,0.184
				c-0.148,0.072-0.257,0.152-0.323,0.24c-0.09,0.119-0.175,0.287-0.251,0.508c-0.435,0.322-0.756,0.59-0.965,0.802
				c-0.021,0.028-0.028,0.082-0.019,0.161c0.01,0.076,0.004,0.132-0.019,0.16c-0.268-0.018-0.502,0.105-0.705,0.369
				c-0.067,0.088-0.153,0.231-0.259,0.432c-0.107,0.197-0.193,0.343-0.262,0.432l-1.642,2.592c-0.135,0.176-0.315,0.457-0.542,0.844
				c-0.226,0.387-0.396,0.652-0.509,0.8l-0.383,0.407c-0.067,0.089-0.099,0.158-0.092,0.209c-0.126,0.043-0.358,0.285-0.697,0.727
				l-0.067,0.088c-0.022,0.029-0.082,0.076-0.18,0.143s-0.155,0.113-0.179,0.144c-0.046,0.06-0.111,0.159-0.197,0.304
				c-0.088,0.145-0.154,0.244-0.199,0.303l-0.103,0.133c-0.045,0.061-0.103,0.121-0.173,0.182c-0.071,0.063-0.118,0.109-0.14,0.139
				c-0.046,0.06-0.107,0.197-0.186,0.42l-0.169,0.22c-0.135,0.177-0.175,0.426-0.118,0.749c0.056,0.322,0.155,0.541,0.305,0.654
				c0.197,0.104,0.399,0.146,0.609,0.117l0.545-0.072c0.045-0.059,0.147-0.118,0.313-0.18c0.165-0.061,0.28-0.136,0.348-0.224
				c0.263-0.22,0.5-0.317,0.715-0.292c0.021-0.029,0.142-0.125,0.359-0.285c0.247-0.322,0.579-0.605,0.997-0.844l0.203-0.266
				c0.271-0.353,0.573-0.656,0.911-0.912c0.021-0.027,0.021-0.076,0-0.139s0.006-0.113,0.08-0.148
				c0.796-0.977,1.512-2.061,2.146-3.254c0.324-0.545,0.462-0.906,0.413-1.084c0.254-0.271,0.545-0.982,0.867-2.135
				c0.063-0.326,0.151-0.562,0.265-0.707l0.102-0.134l0.095-0.487c0.052-0.006,0.089-0.024,0.111-0.055
				c-0.06-0.046-0.095-0.119-0.108-0.224c0.068-0.089,0.099-0.218,0.088-0.39c-0.01-0.17,0.006-0.311,0.045-0.42
				C102.739,70.5,102.672,70.376,102.612,70.332z"/>
		</g>
		<g>
			<path fill="#F6921E" d="M127.621,34.381c-4.676,3.913-17.509,10.41-21.768,12.233c2.116,0.919,6.542,2.625,8.314,4.081
				c-2.766,3.436-9.782,5.719-13.625,7.484c-4.39,2.015-8.688,4.585-13.551,3.688c2.852-4.043,11.087-7.534,15.626-11.355
				c-1.021-1.736-6.432-3.357-8.4-4.215C96.724,44.262,124.865,33.362,127.621,34.381z"/>
			<path fill="#231F20" d="M89.016,62.741c-0.723,0-1.445-0.065-2.146-0.195c-0.231-0.042-0.426-0.2-0.515-0.417
				c-0.089-0.217-0.061-0.465,0.075-0.658c1.786-2.532,5.525-4.82,9.143-7.034c2.14-1.309,4.344-2.658,6.067-4.016
				c-1.149-1.013-4.038-2.094-5.856-2.774c-0.733-0.274-1.379-0.517-1.84-0.717c-0.221-0.096-0.375-0.3-0.406-0.539
				c-0.033-0.238,0.062-0.477,0.248-0.628c2.411-1.961,28.494-12.138,33.322-12.138c0.308,0,0.554,0.036,0.753,0.11
				c0.23,0.085,0.398,0.287,0.44,0.529c0.042,0.242-0.049,0.488-0.237,0.646c-4.305,3.604-15.189,9.252-20.479,11.688
				c2.37,0.994,5.519,2.329,7.022,3.565c0.292,0.24,0.337,0.67,0.101,0.965c-2.28,2.834-7.145,4.851-11.053,6.472
				c-1.036,0.43-2.003,0.831-2.821,1.207c-0.604,0.277-1.204,0.564-1.806,0.851C95.854,61.173,92.573,62.741,89.016,62.741z
				 M88.316,61.339c3.46,0.235,6.714-1.301,10.116-2.926c0.607-0.29,1.215-0.581,1.823-0.86c0.834-0.383,1.814-0.79,2.87-1.228
				c3.493-1.449,7.777-3.226,10.022-5.521c-1.586-1.043-4.359-2.207-6.274-3.01c-0.484-0.203-0.924-0.388-1.294-0.548
				c-0.253-0.109-0.416-0.359-0.415-0.634c0.001-0.275,0.165-0.523,0.418-0.632c3.744-1.603,14.23-6.887,19.75-10.736
				c-6.646,1.391-24.631,8.408-29.556,10.928c0.157,0.059,0.319,0.12,0.487,0.183c3.303,1.236,6.105,2.376,6.947,3.808
				c0.171,0.29,0.106,0.661-0.149,0.877c-1.867,1.572-4.359,3.098-6.771,4.573C93.267,57.464,90.152,59.371,88.316,61.339z"/>
		</g>
		<path fill="#231F20" d="M38.951,57.937c-0.344-0.163-0.757-0.019-0.919,0.326l-10.911,22.91c-0.164,0.345-0.019,0.756,0.325,0.92
			c0.097,0.045,0.197,0.066,0.297,0.066c0.258,0,0.505-0.145,0.623-0.393l10.91-22.911C39.44,58.512,39.295,58.101,38.951,57.937z"
			/>
		<g>
			<path fill="#FAAF40" d="M24.09,128.354c-1.259,1.054-1.926-22.526-0.225-25.845c-2.136,0.55-6.44,1.824-8.713,1.869
				c-0.486-3.514,2.826-8.543,4.276-11.609c1.653-3.499,7-15.661,11.043-17.65c0.854,3.92-6.602,18.689-7.09,23.356
				c1.944,0.517,6.88-1.324,8.869-1.832C31.93,99.177,24.898,125.605,24.09,128.354z"/>
			<path fill="#231F20" d="M24.008,129.078c-0.173,0-0.5-0.06-0.741-0.455c-1.129-1.848-1.57-19.524-0.413-25.131
				c-0.025,0.006-0.053,0.014-0.079,0.021c-2.381,0.64-5.642,1.519-7.607,1.556c-0.366-0.012-0.647-0.249-0.696-0.595
				c-0.413-2.978,1.596-6.765,3.21-9.808c0.423-0.797,0.817-1.539,1.126-2.191l0.515-1.104c3.433-7.393,7.404-15.178,10.848-16.873
				c0.188-0.092,0.413-0.094,0.604-0.002s0.329,0.268,0.374,0.475c0.533,2.449-1.607,8.005-3.876,13.887
				c-1.38,3.578-2.69,6.979-3.097,9.02c1.55,0.031,4.189-0.789,6.103-1.373c0.712-0.219,1.339-0.41,1.806-0.528
				c0.222-0.058,0.456,0,0.627,0.151c0.172,0.15,0.257,0.377,0.228,0.604c-0.333,2.618-7.465,29.375-8.185,31.818
				c-0.038,0.131-0.114,0.246-0.219,0.334C24.408,128.986,24.17,129.078,24.008,129.078z M23.865,101.819
				c0.206,0,0.405,0.093,0.538,0.259c0.17,0.213,0.199,0.504,0.075,0.746c-1.207,2.354-1.112,17.561-0.442,23.143
				c1.723-6.342,6.284-23.58,7.329-28.354c-0.218,0.065-0.446,0.136-0.687,0.208c-2.413,0.737-5.867,1.748-7.473,1.32
				c-0.328-0.088-0.544-0.4-0.508-0.738c0.218-2.083,1.707-5.949,3.286-10.042c1.708-4.429,3.61-9.362,3.848-11.979
				c-3.361,2.867-7.579,11.951-9.259,15.57l-0.52,1.112c-0.317,0.669-0.72,1.431-1.154,2.249c-1.397,2.635-3.109,5.861-3.104,8.335
				c1.865-0.187,4.685-0.944,6.624-1.467c0.476-0.128,0.908-0.244,1.275-0.339C23.75,101.828,23.808,101.819,23.865,101.819z"/>
		</g>
		<g>
			<path fill="#FAAF40" d="M48.557,75.696c0,0-14.02,10.405-13.548,12.991c0.474,2.587,15.493-7.984,16.342-9.63
				C52.2,77.414,48.557,75.696,48.557,75.696z"/>
			<path fill="#231F20" d="M35.636,89.783L35.636,89.783c-1.046,0-1.264-0.744-1.305-0.972c-0.495-2.715,9.496-10.463,13.813-13.669
				l0.332-0.246l0.373,0.176c0.273,0.129,2.689,1.307,3.212,2.848c0.169,0.498,0.135,1.002-0.1,1.455
				C51.128,80.992,38.933,89.783,35.636,89.783z M48.624,76.505c-6.229,4.654-12.641,10.322-12.932,11.896
				c2.659-0.119,14.288-8.279,15.045-9.662c0.063-0.119,0.067-0.232,0.02-0.379C50.532,77.699,49.391,76.925,48.624,76.505z"/>
		</g>
		<g>
			<path fill="#231F20" d="M78.099,53.073l0.721,0.512c1.505,0.939,2.739,1.883,3.707,2.834c0.043,0.031,0.081,0.094,0.117,0.184
				c0.034,0.09,0.072,0.15,0.116,0.182c0.144,0.168,0.319,0.359,0.53,0.574c0.208,0.215,0.348,0.412,0.417,0.592
				c-0.031,0.044-0.035,0.141-0.011,0.289c0.044,0.031,0.116,0.117,0.216,0.253c0.102,0.137,0.178,0.259,0.234,0.364
				c0.125,0.285,0.207,0.725,0.251,1.313c0.04,0.588,0.14,1.004,0.296,1.247l-0.48,1.927c-0.35,1.134-0.601,1.812-0.754,2.029
				c-0.373,0.523-0.548,0.859-0.521,1.01c-0.138,0.101-0.283,0.261-0.438,0.479c-0.372,0.523-0.47,0.982-0.286,1.374
				c-0.093,0.132-0.218,0.259-0.369,0.38c-0.152,0.122-0.259,0.227-0.321,0.313c-0.03,0.045-0.045,0.134-0.042,0.267
				c0.004,0.136-0.025,0.246-0.088,0.333c-0.031,0.044-0.115,0.114-0.251,0.217c-0.139,0.1-0.238,0.192-0.301,0.278l-0.093,0.131
				c-0.063,0.089-0.046,0.183,0.048,0.281c0.092,0.101,0.125,0.172,0.094,0.215c-0.031,0.044-0.08,0.091-0.147,0.142
				c-0.07,0.049-0.119,0.098-0.15,0.141c-0.093,0.131-0.191,0.34-0.297,0.627c-0.106,0.287-0.189,0.475-0.251,0.561l-0.093,0.131
				c-0.031,0.045-0.103,0.094-0.207,0.15c-0.106,0.057-0.189,0.128-0.252,0.215c-0.124,0.176-0.226,0.27-0.299,0.281
				c0.024,0.15-0.062,0.385-0.257,0.706c-0.194,0.321-0.28,0.558-0.255,0.706c-0.138,0.1-0.283,0.26-0.438,0.479
				c-0.219,0.307-0.37,0.658-0.455,1.057c-0.139,0.101-0.33,0.324-0.578,0.675c-0.312,0.438-0.623,0.644-0.935,0.618
				c-0.031,0.044-0.066,0.115-0.106,0.22c-0.041,0.104-0.077,0.177-0.107,0.22c-0.187,0.264-0.436,0.381-0.746,0.357l-0.467,0.654
				c-0.311,0.438-0.595,0.695-0.849,0.777c-0.031,0.043-0.081,0.205-0.149,0.485c-0.168,0.144-0.282,0.259-0.345,0.347
				c-0.021,0.119-0.091,0.266-0.215,0.439c-0.124,0.175-0.159,0.314-0.103,0.421c-0.132-0.095-0.324-0.099-0.579-0.019
				c-0.094,0.133-0.164,0.346-0.209,0.643c-0.048,0.295-0.114,0.509-0.209,0.641c-0.03,0.043-0.127,0.105-0.285,0.191
				c-0.158,0.084-0.269,0.17-0.33,0.258l-0.094,0.131c-0.125,0.176-0.245,0.436-0.358,0.78c-0.115,0.347-0.203,0.563-0.266,0.649
				c-0.007,0.192-0.031,0.438-0.079,0.733c-0.046,0.297-0.094,0.524-0.143,0.688c-0.373,0.523-0.492,1.246-0.356,2.164
				c0.137,0.92,0.193,1.438,0.178,1.557c0.117,0.018,0.286,0.104,0.505,0.26c0.394,0.28,0.614,0.57,0.665,0.868
				c-0.156,0.22-0.312,0.505-0.461,0.856c-0.152,0.352-0.275,0.594-0.368,0.725c-0.063,0.088-0.23,0.23-0.503,0.432
				c-0.107,0.057-0.234,0.098-0.384,0.122c-0.15,0.024-0.239,0.06-0.271,0.103c-0.075,0.015-0.155,0.056-0.238,0.127
				c-0.086,0.072-0.143,0.132-0.173,0.175c-0.375,0.063-0.605,0.159-0.699,0.291c-0.91,0.075-1.472,0.171-1.683,0.282l-0.131-0.094
				c-0.175-0.125-0.459-0.211-0.851-0.26c-0.396-0.049-0.679-0.137-0.853-0.26c-0.088-0.063-0.17-0.088-0.243-0.074
				c-0.485-0.148-0.816-0.285-0.991-0.41c-0.262-0.186-0.405-0.354-0.431-0.504c-0.457-0.191-0.923-0.621-1.398-1.291
				c-0.479-0.67-0.697-1.219-0.653-1.648c-0.287-0.336-0.483-1.033-0.583-2.092c-0.146-0.629-0.192-1.024-0.143-1.188l0.073-0.244
				c0.049-0.162,0.067-0.279,0.057-0.354c-0.015-0.075-0.097-0.332-0.245-0.768c-0.448,0.075-0.737,0.067-0.868-0.025
				c-0.09-0.063-0.141-0.131-0.15-0.205l-0.327,0.457c-0.118-0.019-0.389-0.029-0.813-0.035s-0.724-0.071-0.897-0.194
				c-0.045-0.032-0.112,0.019-0.206,0.149l-0.14,0.197c-0.593-0.093-1.09-0.086-1.494,0.021c-0.22-0.156-0.547-0.272-0.981-0.354
				c-0.438-0.08-0.767-0.197-0.982-0.354l-0.197-0.141c-0.397-0.086-0.838-0.301-1.317-0.642l-0.394-0.28
				c-0.045-0.031-0.095-0.1-0.149-0.205l-0.065-0.047L50.952,82.5l-0.45-0.617c-0.289-0.336-0.423-0.563-0.403-0.682
				c-0.015-0.074-0.058-0.105-0.131-0.094c-0.075,0.014-0.136,0.003-0.179-0.027l-0.075-0.449c-0.188-0.197-0.371-0.494-0.553-0.887
				c-0.183-0.392-0.294-0.604-0.338-0.634c-0.015-0.075-0.108-0.356-0.286-0.846c-0.18-0.488-0.271-0.867-0.277-1.136
				c-0.394-0.279-0.732-0.685-1.013-1.213l-0.226-0.654c-0.014-0.073-0.02-0.342-0.02-0.805c-0.027-0.147-0.075-0.381-0.147-0.695
				c-0.071-0.313-0.135-0.571-0.188-0.774c-0.055-0.202-0.04-0.405,0.042-0.612c-0.069-0.181-0.05-0.855,0.062-2.027
				c0.03-0.043-0.042-0.127-0.216-0.252c0.105-0.057,0.163-0.113,0.172-0.174c0.009-0.06,0.03-0.109,0.063-0.154l-0.085-0.158
				l-0.084-0.158c0.018-0.119,0.038-0.4,0.059-0.846c0.021-0.445,0.125-0.801,0.311-1.063c0.095-0.131,0.148-0.256,0.169-0.373
				l-0.02-0.112c-0.014-0.075-0.004-0.134,0.028-0.179l0.139-0.195c0.218-0.307,0.371-0.707,0.461-1.203
				c0.088-0.494,0.197-0.829,0.321-1.004c0.093-0.131,0.23-0.28,0.414-0.445c0.183-0.166,0.306-0.291,0.368-0.379
				c0.062-0.088,0.092-0.197,0.089-0.332c-0.005-0.135,0.024-0.244,0.088-0.332l0.399-0.702c0.063-0.087,0.158-0.199,0.29-0.337
				c0.131-0.137,0.211-0.229,0.241-0.271c0.198-0.188,0.496-0.535,0.893-1.043c0.395-0.51,0.688-0.857,0.89-1.045l0.179,0.028
				c0.043,0.03,0.08,0.024,0.112-0.02c0.104-0.056,0.13-0.138,0.074-0.243c-0.06-0.105-0.07-0.18-0.039-0.224
				c0.136-0.101,0.567-0.499,1.298-1.198c0.727-0.7,1.318-1.184,1.771-1.453c0.089,0.063,0.17,0.088,0.243,0.074
				c0.074-0.012,0.146-0.044,0.216-0.093c0.067-0.05,0.14-0.081,0.215-0.095c0.063-0.087,0.086-0.168,0.073-0.242
				c-0.024-0.15-0.021-0.246,0.011-0.29c0.186-0.263,0.465-0.425,0.84-0.487c0.278-0.394,0.567-0.615,0.867-0.666l0.094-0.131
				c0.093-0.131,0.563-0.422,1.409-0.871c0.316-0.17,0.499-0.238,0.542-0.207c-0.043-0.031-0.02-0.112,0.074-0.243
				c0.267-0.008,0.663-0.169,1.187-0.487c0.521-0.32,0.954-0.488,1.298-0.508c0.97-0.625,1.91-0.976,2.821-1.053
				c0.093-0.131,0.244-0.252,0.456-0.365c0.074-0.012,0.193-0.042,0.359-0.09c0.164-0.046,0.3-0.098,0.406-0.154l0.328,0.233
				c0.191,0.006,0.56,0.021,1.103,0.044c0.54,0.024,0.952,0.07,1.233,0.139c0.105-0.057,0.24-0.108,0.406-0.155
				c0.164-0.046,0.284-0.077,0.358-0.089c0.118,0.018,0.186,0.064,0.196,0.139c0.281,0.068,0.688,0.096,1.226,0.082
				c0.116,0.02,0.313,0.024,0.579,0.018c0.268-0.006,0.483,0.016,0.646,0.064c0.118,0.02,0.279,0.068,0.486,0.148
				c0.205,0.081,0.367,0.131,0.485,0.148l0.6,0.131c0.973,0.297,1.495,0.438,1.57,0.427c0.013,0.074,0.084,0.157,0.215,0.251
				c0.175,0.125,0.412,0.162,0.712,0.111c0.043,0.031,0.138,0.083,0.284,0.153c0.146,0.071,0.246,0.161,0.306,0.267
				C77.293,52.632,77.662,52.762,78.099,53.073z M68.908,61.137c-0.574-0.212-1.15-0.325-1.729-0.343
				c-0.031,0.045-0.103,0.075-0.214,0.094c-0.113,0.02-0.164,0.066-0.15,0.141c-0.647-0.197-1.115-0.234-1.4-0.109
				c-0.063,0.088-0.158,0.152-0.285,0.192c-0.128,0.042-0.207,0.083-0.237,0.127c-0.076,0.012-0.189,0.079-0.342,0.201
				c-0.153,0.122-0.304,0.194-0.453,0.22l-0.121,0.31c-0.206-0.081-0.4,0.01-0.588,0.271c-0.436,0.612-0.805,1.04-1.11,1.282
				c0.058,0.107,0.022,0.248-0.101,0.422c-0.031,0.043-0.101,0.094-0.205,0.149c-0.106,0.056-0.222,0.124-0.342,0.202
				c-0.121,0.078-0.197,0.139-0.229,0.182c0.012,0.075-0.028,0.178-0.122,0.309c-0.063,0.088-0.188,0.196-0.378,0.324
				c-0.189,0.129-0.314,0.235-0.378,0.322c-0.125,0.176-0.125,0.404,0.002,0.691c-0.139,0.1-0.182,0.301-0.13,0.6
				c-0.149,0.025-0.313,0.139-0.49,0.342c-0.179,0.203-0.362,0.301-0.555,0.295c-0.039,0.236-0.119,0.443-0.243,0.617
				c-0.063,0.088-0.229,0.23-0.503,0.432c-0.03,0.043-0.02,0.118,0.036,0.225c0.057,0.105,0.07,0.181,0.039,0.224
				c-0.105,0.058-0.118,0.212-0.037,0.468c0.012,0.075,0.024,0.149,0.038,0.225c0.012,0.074,0.011,0.125-0.005,0.146
				s-0.018,0.07-0.004,0.145c-0.031,0.043-0.027,0.13,0.015,0.257c0.04,0.128,0.03,0.235-0.032,0.323
				c-0.124,0.175-0.256,0.312-0.393,0.41c0.057,0.107,0.093,0.265,0.109,0.474c0.015,0.208,0.051,0.366,0.106,0.472l-0.651,0.917
				c0.057,0.104,0.178,0.308,0.36,0.603c0.186,0.297,0.312,0.533,0.381,0.715c-0.02,0.119,0.171,0.453,0.571,0.998
				c-0.031,0.045-0.003,0.098,0.085,0.16c0.043,0.029,0.07,0.084,0.084,0.158c0.101,0.137,0.259,0.282,0.479,0.438
				c0.198,0.273,0.32,0.426,0.364,0.457c0.043,0.029,0.124,0.056,0.243,0.074c0.118,0.02,0.221,0.059,0.31,0.121l0.14-0.196
				c0.804-0.021,1.433-0.164,1.888-0.435c0.073-0.012,0.17-0.01,0.289,0.01l0.178,0.027l-0.02-0.113l0.047-0.063
				c0.093-0.131,0.365-0.233,0.813-0.312l0.047-0.064c0.124-0.174,0.364-0.232,0.719-0.18c-0.025-0.149,0-0.229,0.076-0.241
				c0.146-0.026,0.306-0.11,0.476-0.254c0.063-0.089,0.146-0.159,0.252-0.216c0.03-0.043,0.12-0.078,0.271-0.104
				c0.147-0.024,0.275-0.065,0.383-0.122c0.814-0.406,1.271-0.676,1.362-0.807c0.336-0.286,0.563-0.422,0.683-0.402
				c-0.131-0.094-0.166-0.183-0.104-0.271c0.154-0.217,0.351-0.309,0.588-0.271c0.342-0.479,0.724-0.833,1.146-1.06
				c-0.13-0.092-0.166-0.184-0.103-0.27c0.136-0.101,0.283-0.308,0.441-0.623c0.157-0.313,0.307-0.521,0.442-0.621
				c0.031-0.043,0.068-0.052,0.113-0.02c0.043,0.029,0.08,0.023,0.11-0.02s0.063-0.088,0.094-0.131l-0.019-0.111
				c0.03-0.043,0.157-0.086,0.383-0.123c0.03-0.043,0.077-0.108,0.141-0.196l0.025-0.179l0.113-0.018
				c0.063-0.088,0.108-0.152,0.14-0.197l0.561-0.787c0.403-0.565,0.638-0.99,0.707-1.271l0.112-0.021l0.112-0.018
				c-0.145-0.168-0.137-0.457,0.025-0.869l-0.524-0.373l-0.057-0.338l-0.131-0.094c-0.176-0.124-0.336-0.337-0.483-0.639
				c-0.146-0.301-0.284-0.5-0.416-0.593l-0.309-0.12c-0.026-0.15-0.082-0.256-0.169-0.318l-0.263-0.186
				c-0.263-0.188-0.475-0.305-0.636-0.354l-0.077-0.449l-0.195-0.14c-0.22-0.155-0.436-0.358-0.649-0.61
				C69.213,61.402,69.039,61.229,68.908,61.137z"/>
		</g>
		<g>
			<path fill="#FAAF40" d="M95.637,0.787c-1.01,2.389-8.354,11.27-10.07,13.776c-1.25,1.83,13.21-4.603,11.815-2.843
				c-3.45,4.355-22.253,23.213-24.521,25.952c3.463-0.224,13.395-3.361,16.763-2.629c-4.272,7.68-24.565,35.397-31.687,37.535
				c-1.104-7.654,14.979-21.635,18.432-29.858c-2.562-1.622-18.196,6.946-21.424,7.146c1.063-2.411,21.52-23.455,25.498-27.414
				c-0.987-1.84-9.964,3.258-13.737,2.727C68.332,22.479,92.296-0.804,95.637,0.787z"/>
			<path fill="#231F20" d="M57.937,73.268c-0.13,0-0.259-0.037-0.371-0.108c-0.169-0.107-0.281-0.283-0.312-0.482
				c-0.707-4.904,4.905-11.864,10.333-18.595c3.23-4.008,6.298-7.811,7.802-10.875c-2.267,0.027-7.671,2.364-12.019,4.244
				c-3.744,1.619-6.979,3.017-8.384,3.104c-0.257,0.017-0.472-0.098-0.607-0.294c-0.138-0.197-0.162-0.452-0.065-0.672
				c1.09-2.472,19.856-21.788,24.854-26.834c-1.082,0.103-2.842,0.71-4.695,1.35c-2.896,1-5.927,2.029-7.864,1.757
				c-0.229-0.032-0.428-0.177-0.525-0.386c-0.101-0.209-0.088-0.454,0.032-0.652C67.562,22.422,90.188,0.02,95.24,0.02
				c0.258,0,0.49,0.048,0.691,0.145c0.333,0.159,0.482,0.551,0.339,0.891c-0.696,1.649-3.979,5.874-6.876,9.601
				c-1.006,1.294-1.916,2.465-2.569,3.341c1.215-0.329,3.097-0.994,4.696-1.559c3.014-1.064,4.901-1.716,5.717-1.716
				c0.545,0,0.767,0.292,0.851,0.465c0.084,0.174,0.175,0.53-0.167,0.961c-2.042,2.578-9.191,9.962-15.5,16.477
				c-3.226,3.33-6.123,6.323-7.783,8.104c1.172-0.215,2.603-0.536,4.081-0.869c4.132-0.928,8.914-1.955,11.049-1.49
				c0.213,0.046,0.393,0.191,0.481,0.39c0.09,0.199,0.08,0.428-0.025,0.619c-3.939,7.083-24.483,35.577-32.09,37.86
				C58.069,73.257,58.003,73.268,57.937,73.268z M75.428,41.827c0.55,0,0.978,0.102,1.309,0.311c0.284,0.18,0.396,0.539,0.268,0.849
				c-1.411,3.363-4.778,7.539-8.343,11.959c-4.663,5.782-9.905,12.284-10.084,16.63c7.23-3.619,24.832-27.382,29.916-35.953
				c-2.236-0.044-6.107,0.827-9.471,1.582c-2.551,0.573-4.753,1.067-6.117,1.155c-0.29,0.021-0.533-0.129-0.658-0.375
				c-0.125-0.246-0.093-0.541,0.083-0.753c0.957-1.155,4.73-5.053,9.103-9.566c5.257-5.43,11.646-12.028,14.467-15.253
				c-1.093,0.329-2.605,0.864-3.917,1.326c-3.25,1.148-5.289,1.845-6.196,1.845c-0.537,0-0.781-0.25-0.893-0.458
				c-0.089-0.168-0.192-0.515,0.104-0.951c0.603-0.881,1.855-2.495,3.31-4.364c2.102-2.703,4.838-6.225,6.101-8.223
				c-5.136,1.937-22.104,18.165-26.261,22.881c1.67-0.216,3.887-0.981,5.877-1.668c2.239-0.773,4.173-1.44,5.441-1.44
				c0.778,0,1.312,0.258,1.585,0.766c0.145,0.269,0.095,0.6-0.121,0.815c-4.219,4.197-20.104,20.604-24.345,25.801
				c1.616-0.558,3.954-1.569,6.237-2.557C67.776,44.042,72.899,41.827,75.428,41.827z"/>
		</g>
		<g>
			<path fill="#231F20" d="M33.984,4.813c0.629,0.163,1.084,0.302,1.371,0.414c0.867,0.305,1.312,0.496,1.327,0.58
				c0.397,0.143,0.995,0.416,1.799,0.82l0.966,0.604c0.296,0.233,0.476,0.379,0.539,0.435c0.092,0.103,0.193,0.197,0.312,0.287
				c0.113,0.088,0.223,0.166,0.324,0.23c0.182,0.206,0.317,0.438,0.409,0.697c0.074,0.02,0.146,0.078,0.222,0.176
				c0.072,0.098,0.129,0.152,0.166,0.162c0.007,0.119,0.086,0.308,0.235,0.563c0.15,0.255,0.228,0.462,0.226,0.619
				c0.201,0.288,0.24,0.674,0.117,1.153c-0.05,0.187-0.105,0.328-0.171,0.429c-0.133,0.36-0.473,0.607-1.02,0.741
				c-0.048,0.027-0.117,0.068-0.209,0.124l-0.182,0.013c-0.037-0.01-0.105-0.049-0.207-0.113c-0.103-0.065-0.17-0.104-0.207-0.113
				c-0.425-0.188-0.738-0.347-0.94-0.479c-0.064-0.056-0.161-0.14-0.288-0.251c-0.131-0.113-0.229-0.179-0.305-0.197l-0.277-0.072
				c-0.11-0.028-0.285-0.082-0.52-0.164c-0.236-0.08-0.408-0.135-0.521-0.164c-0.073-0.019-0.188-0.028-0.346-0.03
				c-0.158-0.001-0.272-0.011-0.348-0.03l-0.207-0.112c-0.074-0.02-0.187-0.009-0.334,0.032c-0.148,0.041-0.283,0.064-0.402,0.073
				c-0.326,0.191-0.549,0.291-0.67,0.3c-0.027,0.11-0.215,0.299-0.559,0.564c-0.113,0.129-0.248,0.193-0.404,0.19
				c-0.038,0.148-0.172,0.399-0.402,0.754c-0.229,0.354-0.377,0.661-0.443,0.919c-0.059,0.223-0.081,0.395-0.073,0.514
				c0.033,0.481,0.233,0.85,0.602,1.101c0.074,0.02,0.168,0.043,0.277,0.071c0.111,0.029,0.229,0.061,0.361,0.094
				c0.127,0.033,0.229,0.06,0.303,0.078c0.408,0.105,1.131,0.432,2.172,0.977c0.027,0.047,0.088,0.042,0.182-0.013
				c0.025,0.046,0.271,0.247,0.73,0.603l0.192,0.169c0.036,0.009,0.067,0.037,0.097,0.083c0.026,0.048,0.059,0.074,0.096,0.084
				c0.027,0.047,0.104,0.137,0.229,0.267c0.123,0.131,0.235,0.229,0.338,0.294l0.063,0.43c0.103,0.067,0.172,0.173,0.213,0.322
				c0.041,0.147,0.074,0.246,0.104,0.292c0.024,0.046,0.086,0.121,0.178,0.224c0.09,0.103,0.146,0.195,0.164,0.278
				c-0.009,0.037-0.014,0.087-0.008,0.146c0.004,0.061,0.002,0.109-0.008,0.146c0.565,0.699,0.856,1.404,0.871,2.116
				c0.229,1.242,0.325,1.938,0.289,2.085c0.053,0.094,0.127,0.27,0.217,0.529c-0.058,0.064-0.099,0.15-0.127,0.264
				c-0.027,0.109-0.047,0.184-0.058,0.221l0.082,0.14c0.027,0.046,0.049,0.11,0.068,0.194c-0.01,0.037-0.029,0.111-0.059,0.223
				c-0.027,0.111-0.034,0.208-0.017,0.291c-0.003,0.314-0.01,0.491-0.02,0.526c-0.027,0.111-0.13,0.203-0.308,0.276
				c0.027,0.046,0.031,0.107,0.015,0.18c-0.011,0.037-0.052,0.116-0.121,0.234c-0.07,0.122-0.097,0.223-0.078,0.305
				c-0.086,0.02-0.175,0.104-0.273,0.256c-0.098,0.152-0.188,0.238-0.271,0.254c0.063,0.214,0.069,0.413,0.021,0.598
				c-0.076,0.296-0.238,0.549-0.489,0.76c-0.011,0.037-0.059,0.064-0.142,0.081c-0.084,0.02-0.147,0.042-0.193,0.068
				c-0.077,0.138-0.207,0.301-0.395,0.49c-0.188,0.188-0.316,0.352-0.393,0.489c-0.037-0.01-0.109,0.001-0.216,0.033
				c-0.106,0.03-0.196,0.037-0.271,0.019c-0.064,0.102-0.172,0.212-0.322,0.33c-0.147,0.119-0.252,0.212-0.307,0.274
				c-0.037-0.009-0.088-0.001-0.152,0.021c-0.065,0.022-0.121,0.049-0.168,0.075c-0.047,0.027-0.088,0.037-0.125,0.027l-0.072,0.276
				c-0.046,0.027-0.098,0.073-0.153,0.138c-0.056,0.064-0.107,0.11-0.152,0.137c-0.048,0.028-0.088,0.037-0.125,0.027
				c-0.074-0.02-0.115-0.01-0.125,0.027l-0.084,0.097c-0.057,0.064-0.109,0.109-0.154,0.138c-0.073-0.02-0.135-0.016-0.18,0.012
				c-0.086,0.019-0.178,0.072-0.281,0.165c-0.102,0.091-0.188,0.157-0.257,0.198c-0.068,0.042-0.169,0.085-0.3,0.13
				s-0.25,0.054-0.361,0.024c-0.057,0.066-0.168,0.114-0.334,0.15c-0.168,0.036-0.273,0.067-0.319,0.095
				c-0.037-0.01-0.112-0.019-0.229-0.03c-0.115-0.009-0.211-0.024-0.285-0.043c-0.334,0.07-0.537,0.098-0.609,0.078
				c-0.074-0.02-0.139-0.074-0.192-0.169c-0.391-0.021-0.682,0.042-0.877,0.188c-0.074-0.02-0.16-0.031-0.256-0.037
				c-0.099-0.003-0.165-0.012-0.201-0.021c-0.084,0.017-0.219,0.002-0.402-0.046c-0.037-0.01-0.145,0.022-0.319,0.095
				c-0.176,0.073-0.302,0.099-0.375,0.08c-0.074-0.02-0.152-0.1-0.234-0.238c-0.158-0.001-0.551-0.083-1.178-0.245
				c-0.259-0.067-0.448-0.095-0.567-0.089c-0.147-0.038-0.236-0.079-0.264-0.126c-0.083,0.018-0.21,0.015-0.382-0.01
				c-0.171-0.023-0.304-0.01-0.396,0.046c-0.101-0.065-0.245-0.122-0.429-0.17c-0.11-0.028-0.279-0.063-0.505-0.102
				c-0.228-0.039-0.377-0.068-0.451-0.087c-0.11-0.028-0.277-0.11-0.498-0.248c-0.221-0.135-0.401-0.241-0.539-0.316l-0.166-0.043
				l-0.041-0.069c-0.037-0.01-0.074-0.02-0.111-0.029l-0.109-0.028c-0.11-0.028-0.269-0.108-0.47-0.239
				c-0.204-0.132-0.36-0.212-0.472-0.24c-0.636-0.282-1-0.475-1.092-0.577l-0.122-0.21c-0.251-0.103-0.494-0.461-0.729-1.075
				c-0.062-0.527-0.077-0.925-0.047-1.192l0.188-0.721l-0.027-0.125l0.07-0.043c0.009-0.035,0.019-0.072,0.028-0.109
				c0.048-0.186,0.063-0.318,0.045-0.402c0.604-0.514,1.209-0.79,1.811-0.832c0.037,0.01,0.132,0.025,0.285,0.043
				c0.152,0.021,0.271,0.021,0.354,0.003l0.167,0.043c0.035,0.01,0.131,0.024,0.283,0.044c0.152,0.021,0.266,0.04,0.339,0.06
				c0.111,0.028,0.198,0.07,0.264,0.126c0.24-0.016,0.452-0.001,0.637,0.047c0.223,0.058,0.397,0.143,0.526,0.254
				c0.12-0.008,0.402,0.046,0.845,0.16l0.222,0.058c0.036,0.009,0.124,0.012,0.264,0.009c0.139-0.003,0.245,0.005,0.319,0.023
				l0.276,0.072c0.146,0.037,0.282,0.012,0.403-0.074c0.119-0.086,0.204-0.145,0.251-0.172c0.045-0.026,0.122-0.057,0.229-0.088
				c0.107-0.032,0.184-0.061,0.23-0.089c0.729-0.993,1.123-1.601,1.18-1.822c0.049-0.185,0.041-0.306-0.023-0.361
				c0.246-0.646,0.113-1.508-0.396-2.584c-0.092-0.103-0.242-0.28-0.453-0.532s-0.363-0.428-0.454-0.531
				c-0.075-0.02-0.127-0.042-0.159-0.07c-0.032-0.027-0.086-0.051-0.158-0.07c-0.046-0.131-0.144-0.215-0.29-0.253
				c-0.036-0.167-0.133-0.251-0.289-0.252c-0.009-0.12-0.159-0.297-0.454-0.53c-0.35-0.484-0.638-0.816-0.866-0.993
				c-0.029-0.047-0.033-0.106-0.014-0.181c-0.102-0.064-0.219-0.184-0.352-0.357c-0.132-0.171-0.23-0.285-0.295-0.341l0.029-0.112
				c-0.029-0.045-0.038-0.087-0.028-0.125c-0.082-0.139-0.227-0.344-0.432-0.613c-0.207-0.27-0.355-0.457-0.446-0.56
				c-0.027-0.204-0.222-0.668-0.586-1.393c-0.054-0.25-0.1-0.381-0.136-0.39l0.057-0.221c-0.138-0.232-0.196-0.387-0.177-0.461
				l0.042-0.166c0.01-0.036,0.005-0.166-0.018-0.389c-0.021-0.223-0.022-0.37-0.004-0.445c-0.17-0.869-0.267-1.407-0.293-1.611
				c-0.017-0.242-0.01-0.417,0.02-0.527c0.02-0.074,0.084-0.176,0.195-0.305c-0.008-0.119,0.019-0.291,0.074-0.512
				c0.134-0.518,0.34-0.938,0.622-1.259c0.047-0.185,0.172-0.368,0.378-0.552l0.059-0.223c0.122-0.165,0.316-0.351,0.588-0.557
				c0.269-0.205,0.464-0.392,0.586-0.558c0.372-0.219,0.601-0.416,0.687-0.591c0.035,0.01,0.194-0.068,0.474-0.232
				c0.046-0.027,0.157-0.078,0.335-0.15c0.175-0.072,0.31-0.136,0.402-0.191l0.057,0.014c0.047-0.025,0.089-0.036,0.125-0.026
				c0.093-0.054,0.266-0.108,0.514-0.162c0.252-0.054,0.422-0.106,0.517-0.163c0.157,0.002,0.399-0.023,0.729-0.076
				c0.33-0.053,0.591-0.074,0.785-0.063c0.103-0.091,0.264-0.109,0.485-0.052l0.277,0.071c0.083-0.017,0.186-0.03,0.306-0.039
				c0.12-0.008,0.203-0.025,0.25-0.053l0.222,0.058l0.543-0.038C33.24,4.642,33.541,4.698,33.984,4.813z"/>
		</g>
		<g>
			<path fill="#231F20" d="M62.645,13.291l0.146,0.091c0.098,0.061,0.221,0.171,0.367,0.331c0.147,0.158,0.254,0.259,0.319,0.299
				c0.064,0.041,0.123,0.09,0.178,0.146c0.056,0.056,0.113,0.104,0.181,0.145l0.582,0.363c0.422,0.263,0.698,0.504,0.832,0.722
				c0.031,0.02,0.066,0.108,0.104,0.267c0.292,0.182,0.519,0.504,0.682,0.964c0.193,0.121,0.357,0.325,0.494,0.612
				c0.136,0.287,0.284,0.48,0.446,0.582c-0.101,0.162-0.059,0.346,0.128,0.552c-0.077,0.267-0.1,0.411-0.065,0.431
				c0.057,0.127,0.104,0.357,0.141,0.695c0.036,0.336,0.1,0.578,0.189,0.725c-0.058,0.234-0.064,0.388-0.021,0.461
				c0.012,0.053-0.013,0.092-0.074,0.121c-0.063,0.027-0.104,0.059-0.125,0.091c-0.018,0.17-0.014,0.419,0.009,0.747
				c0.02,0.327,0.036,0.586,0.055,0.776c-0.162,0.259-0.271,0.394-0.32,0.406c-0.021,0.032-0.016,0.058,0.019,0.079
				c0.129,0.08,0.196,0.189,0.2,0.327c0.004,0.138-0.02,0.303-0.071,0.494c-0.054,0.192-0.066,0.341-0.042,0.446
				c-0.073,0.045-0.149,0.132-0.23,0.261c-0.101,0.163-0.157,0.397-0.169,0.704c-0.014,0.307-0.021,0.504-0.03,0.588
				c-0.04,0.065-0.105,0.17-0.195,0.316c-0.093,0.146-0.142,0.261-0.148,0.346c-0.01,0.086-0.004,0.167,0.016,0.246
				c0.019,0.078,0.017,0.135-0.004,0.166c-0.266,0.645-0.394,0.992-0.381,1.045c-0.02,0.032-0.074,0.1-0.16,0.203
				c-0.088,0.103-0.149,0.188-0.19,0.251c-0.303,0.485-0.476,0.941-0.515,1.366c-0.241,0.389-0.438,0.738-0.588,1.051
				c-0.061,0.096-0.113,0.254-0.159,0.473c-0.048,0.219-0.091,0.36-0.131,0.425c-0.061,0.097-0.169,0.164-0.326,0.2
				c-0.041,0.064-0.089,0.159-0.144,0.282c-0.055,0.124-0.102,0.218-0.143,0.282c-0.183,0.291-0.392,0.521-0.631,0.687
				c-0.027,0.117-0.093,0.257-0.193,0.419c-0.141,0.227-0.258,0.378-0.353,0.455c-0.039,0.064-0.063,0.14-0.071,0.225
				c-0.008,0.084-0.049,0.149-0.121,0.194c-0.021,0.032-0.073,0.044-0.156,0.036c-0.086-0.008-0.158,0.036-0.219,0.134l-0.334,0.534
				c-0.021,0.033-0.028,0.083-0.026,0.152c0.001,0.067-0.007,0.119-0.025,0.151c-0.279,0.229-0.431,0.362-0.449,0.395
				c-0.08,0.13-0.133,0.321-0.156,0.577c-0.041,0.064-0.115,0.108-0.219,0.133c-0.105,0.025-0.168,0.053-0.188,0.085
				c0.014,0.054-0.052,0.193-0.191,0.419c-0.063,0.098-0.086,0.172-0.074,0.225c-0.053,0.013-0.109,0.033-0.172,0.061
				c-0.063,0.028-0.121,0.049-0.174,0.062c-0.054,0.013-0.111,0.032-0.173,0.061c-0.063,0.028-0.127,0.022-0.19-0.018
				c-0.494,0.501-0.833,0.829-1.021,0.983c-0.03-0.02-0.096-0.026-0.188-0.018c-0.096,0.008-0.166-0.024-0.211-0.098
				c-0.396,0.204-0.627,0.284-0.691,0.244c-0.151,0.174-0.36,0.291-0.623,0.352c-0.074,0.045-0.096,0.1-0.065,0.162
				c0.026,0.063,0.031,0.109,0.012,0.143c-0.902-0.068-1.863,0.029-2.881,0.293c-0.162-0.102-0.435-0.135-0.813-0.102
				c-0.098-0.061-0.236-0.09-0.416-0.09c-0.182,0-0.303-0.021-0.366-0.061l-0.291-0.182c-0.064-0.041-0.343-0.102-0.832-0.182
				c-0.427-0.039-0.664-0.054-0.716-0.042c-0.43-0.177-0.739-0.258-0.928-0.241l-0.166-0.17c-0.064-0.041-0.174-0.063-0.326-0.07
				c-0.153-0.005-0.265-0.028-0.328-0.068l-1.068-0.666c-0.429-0.178-0.757-0.338-0.982-0.479l-0.194-0.121
				c-0.064-0.041-0.108-0.113-0.134-0.219c-0.098-0.06-0.245-0.129-0.442-0.209c-0.198-0.078-0.347-0.148-0.443-0.209
				c-0.355-0.223-0.604-0.398-0.746-0.532c-0.064-0.041-0.152-0.118-0.262-0.23c-0.11-0.112-0.212-0.2-0.311-0.261
				c-0.03-0.02-0.086-0.042-0.159-0.066c-0.076-0.023-0.13-0.047-0.161-0.066c-0.099-0.061-0.196-0.189-0.298-0.388
				c-0.103-0.199-0.185-0.318-0.25-0.358l-0.193-0.121c-0.193-0.121-0.355-0.332-0.48-0.637c-0.075-0.092-0.153-0.219-0.233-0.381
				c-0.079-0.162-0.135-0.254-0.166-0.273l-0.146-0.09c-0.012-0.053-0.034-0.158-0.071-0.316c-0.035-0.157-0.078-0.272-0.121-0.346
				c-0.172-0.375-0.246-0.58-0.228-0.612c-0.336-0.254-0.643-0.737-0.916-1.448c-0.046-0.074-0.086-0.188-0.123-0.346
				c-0.035-0.158-0.075-0.273-0.121-0.346c-0.086-0.368-0.124-0.594-0.114-0.68l-0.207-0.534c0.039-0.064,0.037-0.167-0.011-0.31
				c-0.047-0.141-0.038-0.26,0.021-0.357l-0.184-0.248c0.012-0.307,0.049-0.746,0.11-1.314c0.063-0.568,0.097-0.963,0.101-1.186
				c0.039-0.424,0.146-0.92,0.319-1.486c0.104-0.385,0.166-0.593,0.187-0.625l0.02-0.461c0.021-0.032,0.283-0.564,0.791-1.597
				c0.207-0.546,0.319-0.835,0.34-0.868c0.049-0.148,0.16-0.348,0.338-0.598c0.179-0.249,0.299-0.422,0.358-0.52
				c0.04-0.064,0.089-0.18,0.149-0.346c0.057-0.166,0.106-0.28,0.146-0.346c0.04-0.064,0.098-0.119,0.17-0.164
				c0.071-0.045,0.118-0.083,0.141-0.115c0.039-0.064,0.102-0.183,0.187-0.355s0.175-0.297,0.268-0.373l0.17-0.164
				c0.071-0.045,0.123-0.125,0.151-0.242l0.072-0.226c0.338-0.327,0.555-0.53,0.648-0.606c0.092-0.078,0.204-0.221,0.336-0.432
				c0.131-0.21,0.268-0.395,0.411-0.553c0.144-0.157,0.294-0.254,0.451-0.291c0.223-0.355,0.584-0.648,1.085-0.875
				c0.429-0.543,0.821-0.813,1.184-0.814l0.06-0.097c0.009-0.085,0.022-0.144,0.044-0.176c0.084,0.008,0.188-0.017,0.314-0.073
				c0.125-0.057,0.203-0.075,0.235-0.055c0.052-0.012,0.072-0.045,0.062-0.098c-0.014-0.052-0.008-0.094,0.012-0.127
				c0.084,0.008,0.178-0.013,0.275-0.064c0.1-0.05,0.19-0.072,0.276-0.063c0.173-0.206,0.438-0.378,0.796-0.517
				c0.354-0.137,0.588-0.262,0.702-0.371c0.953-0.304,1.467-0.479,1.539-0.523c0.086,0.009,0.409,0.031,0.972,0.066
				c0.085,0.008,0.227-0.004,0.428-0.037c0.199-0.033,0.356-0.035,0.477-0.006c0.031,0.02,0.1,0.039,0.199,0.057
				c0.103,0.019,0.168,0.037,0.201,0.058c0.031,0.02,0.177,0.042,0.43,0.065c0.257,0.025,0.448,0.077,0.577,0.158
				c0.052-0.012,0.19-0.051,0.409-0.116c0.221-0.065,0.405-0.073,0.556-0.024c0.085,0.008,0.272,0.068,0.563,0.182
				c0.289,0.112,0.495,0.141,0.621,0.084c0.108,0.113,0.325,0.271,0.649,0.473l0.243,0.151c0.063,0.04,0.157,0.054,0.278,0.038
				c0.12-0.014,0.214-0.001,0.278,0.04c0.748,0.241,1.148,0.356,1.201,0.345c0.045,0.072,0.115,0.139,0.213,0.199
				c0.194,0.121,0.396,0.157,0.606,0.109c0.085,0.008,0.225,0.072,0.419,0.193l0.631,0.394
				C62.37,13.189,62.527,13.264,62.645,13.291z M60.961,16.424c-0.195,0.238-0.488,0.348-0.881,0.328l-0.15,0.242l-0.207,0.007
				c-0.08,0.13-0.178,0.215-0.293,0.255c-0.115,0.041-0.244,0.084-0.385,0.131c-0.144,0.047-0.25,0.092-0.322,0.137
				c-0.02,0.033-0.033,0.092-0.041,0.176c-0.01,0.086-0.022,0.145-0.043,0.177l-0.127-0.013c-0.117-0.027-0.203-0.035-0.256-0.023
				l-0.182,0.291c-0.242,0.389-0.692,0.715-1.353,0.979l-0.121,0.193c-0.061,0.098-0.166,0.246-0.313,0.447
				c-0.148,0.2-0.25,0.35-0.312,0.446c-0.121,0.194-0.211,0.407-0.268,0.643c-0.117-0.027-0.216,0.023-0.297,0.151
				c-0.021,0.033-0.04,0.066-0.062,0.098c-0.02,0.033-0.082,0.062-0.188,0.086c-0.095,0.076-0.188,0.175-0.285,0.294
				c-0.099,0.12-0.166,0.212-0.205,0.276c0.035,0.157-0.006,0.334-0.127,0.528s-0.31,0.347-0.56,0.461
				c-0.057,0.235-0.114,0.401-0.176,0.497c-0.102,0.163-0.264,0.354-0.49,0.572c-0.02,0.032-0.018,0.101,0.007,0.205
				c0.024,0.105,0,0.18-0.072,0.225c-0.187,0.154-0.439,0.49-0.763,1.008c-0.122,0.195-0.301,0.499-0.536,0.914
				c-0.236,0.414-0.416,0.719-0.537,0.914l-0.183,0.291c-0.02,0.033-0.038,0.1-0.057,0.199c-0.018,0.102-0.037,0.17-0.057,0.201
				c-0.078,0.267-0.24,0.616-0.484,1.047c-0.248,0.431-0.404,0.738-0.473,0.92l-0.127,0.527c-0.174,0.566-0.24,0.929-0.205,1.086
				c0.037,0.158,0.143,0.383,0.323,0.674c0.063,0.039,0.109,0.092,0.14,0.154c0.027,0.063,0.058,0.104,0.09,0.124
				c0.045,0.073,0.1,0.13,0.165,0.17c0.031,0.02,0.122,0.055,0.272,0.103c0.147,0.049,0.245,0.109,0.291,0.182
				c0.653-0.041,1.143-0.03,1.463,0.035c0.071-0.045,0.188-0.105,0.352-0.186c0.16-0.079,0.295-0.131,0.399-0.155
				c0.126-0.058,0.31-0.188,0.552-0.397s0.41-0.352,0.504-0.429l0.297-0.151c0.072-0.045,0.146-0.111,0.226-0.197
				c0.075-0.088,0.15-0.153,0.225-0.197c0.375-0.171,0.594-0.305,0.654-0.402c0.061-0.096,0.084-0.172,0.071-0.224
				c0.125-0.058,0.289-0.157,0.49-0.301c0.203-0.144,0.34-0.238,0.412-0.282l0.072-0.225c0.061-0.098,0.164-0.19,0.311-0.28
				c0.146-0.089,0.229-0.149,0.248-0.182c0.021-0.032,0.066-0.104,0.137-0.219c0.07-0.113,0.144-0.192,0.216-0.236
				c0.04-0.065,0.096-0.12,0.17-0.164c0.071-0.046,0.117-0.083,0.139-0.116l0.454-0.729c0.134-0.141,0.347-0.356,0.64-0.646
				c0.293-0.289,0.472-0.482,0.531-0.58c0.307-0.348,0.592-0.934,0.859-1.757c0.265-0.822,0.5-1.396,0.701-1.72
				c0.004-0.223,0.098-0.536,0.28-0.938c0.185-0.401,0.289-0.663,0.317-0.78c0.097-0.658,0.185-1.053,0.267-1.182
				c0.035-0.924,0.105-1.508,0.215-1.754c-0.088-0.146-0.204-0.375-0.346-0.689c-0.143-0.313-0.272-0.551-0.395-0.718
				C61.426,16.759,61.219,16.585,60.961,16.424z"/>
		</g>
	</g>
</g>
</svg>
