<?xml version="1.0" encoding="utf-8"?>
<!-- Generator: Adobe Illustrator 16.0.0, SVG Export Plug-In . SVG Version: 6.00 Build 0)  -->
<!DOCTYPE svg PUBLIC "-//W3C//DTD SVG 1.1//EN" "http://www.w3.org/Graphics/SVG/1.1/DTD/svg11.dtd">
<svg version="1.1" id="Layer_1" xmlns="http://www.w3.org/2000/svg" xmlns:xlink="http://www.w3.org/1999/xlink" x="0px" y="0px"
	 width="93.083px" height="74.959px" viewBox="0 0 93.083 74.959" enable-background="new 0 0 93.083 74.959" xml:space="preserve">
<g id="Layer_2">
</g>
<g>
	<path fill="#FFFFFF" d="M0.167,39.508c0.792-7.954,4.84-15.098,11.623-19.993c6.085-4.39,14.114-4.431,21.618-4.773
		c0.941-8.575,8.85-19.052,18.502-12.888c7.469,4.771,5.941,15.86,13.127,20.292c3.746-1.913,3.713,2.352,6.467,2.295
		c3.011-0.063,2.216-3.501,4.434-4.696c4.965-2.675,12.582,1.828,14.844,5.847c2.217,3.934,3.871,11.586-0.13,15.001
		c-1.874,1.6-5.772,0.971-6.989,2.639c-1.078,1.478-0.133,6.44,0.034,8.146c0.905,9.248-4.956,24.905-17.165,23.492
		c-5.582-0.646-6.602-4.76-12.328-3.118c-2.224,0.638-4.483,2.128-7.144,1.661c-3.587-0.629-3.996-4.396-6.905-5.977
		c-8.257-4.479-20.537-0.836-28.92-4.81C-2.245,56.237,0.167,39.508,0.167,39.508z"/>
	<g>
		<path fill="#BE1E2D" d="M60.359,34.735c-0.673-6.89-7.69-31.193-16.918-25.903c-6.427,3.686-0.612,15.366-3.136,19.056
			c-2.254,3.292-6.274-2.066-8.741-3.018c-9.506-3.661-23.446,26.865-15.14,32.355c5.391,3.568,21.006,3.528,23.236,4.401
			c2.793,1.088,4.453,4.353,7.333,5.046c5.931,1.434,15.46-5.195,18.791-10.234c4.909-7.422,0.217-13.158-5.14-18.653L60.359,34.735
			z"/>
		<path fill="#231F20" d="M48.758,67.622C48.758,67.622,48.756,67.622,48.758,67.622c-0.687,0-1.34-0.073-1.941-0.219
			c-1.729-0.418-3.018-1.613-4.264-2.77c-1.027-0.953-1.997-1.854-3.165-2.308c-0.612-0.24-2.856-0.441-5.233-0.654
			c-5.7-0.512-14.313-1.284-18.145-3.821c-3.19-2.107-3.762-7.504-1.567-14.806c2.78-9.248,9.489-19.229,15.479-19.229
			c0.659,0,1.302,0.119,1.912,0.354c0.857,0.331,1.797,1.064,2.791,1.841c1.312,1.024,2.798,2.185,3.883,2.185
			c0.316,0,0.735-0.083,1.179-0.731c0.841-1.23,0.543-3.858,0.227-6.642c-0.515-4.531-1.155-10.17,3.155-12.641
			c0.979-0.562,1.985-0.847,2.987-0.847c8.521,0,14.429,20.963,15.051,27.327l0.261,2.79c5.406,5.572,10.158,11.668,5.043,19.4
			C63.118,61.833,54.69,67.622,48.758,67.622z M29.921,25.316c-5.134,0-11.406,9.391-14.042,18.162
			c-1.961,6.523-1.603,11.43,0.958,13.123c3.517,2.328,11.902,3.08,17.451,3.578c3.177,0.284,4.871,0.447,5.645,0.75
			c1.433,0.559,2.555,1.6,3.64,2.604c1.156,1.071,2.248,2.086,3.595,2.409c0.488,0.119,1.022,0.179,1.588,0.179
			c5.389,0.001,13.379-5.522,16.402-10.097c4.566-6.905,0.414-12.108-5.052-17.717l-0.185-0.189l-0.311-3.314
			c-0.632-6.462-6.445-25.97-13.558-25.97c-0.737,0-1.492,0.218-2.241,0.647c-3.454,1.98-2.899,6.863-2.41,11.171
			c0.364,3.201,0.678,5.966-0.479,7.658c-0.629,0.918-1.442,1.384-2.417,1.384c-1.601,0-3.23-1.272-4.806-2.502
			c-0.904-0.706-1.758-1.373-2.408-1.623C30.857,25.401,30.395,25.316,29.921,25.316z"/>
	</g>
	<path fill="#77111A" d="M17.009,26.332c6.883-4.937,11.653-0.203,14.449,4.726c3.352,5.897,11.657,7.069,12.931,2.249
		c3.347-12.66,15.904,3.987,4.025,17.881c-9.189,10.748-17.506,1.054-20.045,0.635C14.208,49.464,9.682,31.583,17.009,26.332z"/>
	<path fill="#77111A" d="M59.556,41.207c0,0-5.97,17.233-14.047,17.981c-8.075,0.752-0.668,4.447,2.906,5.821
		c3.576,1.367,22.117-8.04,14.694-20.8C62.697,43.504,59.556,41.207,59.556,41.207z"/>
	<g>
		<path fill="#231F20" d="M67.5,68.19c-3.401,0-6.85-1.556-9.545-4.51c-0.279-0.307-0.258-0.779,0.049-1.06
			c0.306-0.279,0.779-0.259,1.06,0.048c3.749,4.109,9.104,5.18,13.324,2.666c4.832-2.878,8.313-10.729,4.209-24.264
			c-0.902-0.022-1.771-0.219-2.567-0.594c-5.838-2.738-7.521-5.882-7.15-7.911c0.228-1.24,1.233-2.108,2.565-2.211
			c2.269-0.178,5.696,1.828,7.861,8.053c0.128,0.369,0.252,0.736,0.37,1.099c1.182-0.177,2.416-0.696,3.588-1.539
			c2.582-1.856,4.056-4.726,3.758-7.308c-0.325-2.811-2.632-5.182-6.67-6.857c-0.382-0.158-0.564-0.598-0.405-0.979
			c0.159-0.384,0.597-0.565,0.98-0.405c5.774,2.396,7.312,5.711,7.585,8.069c0.359,3.114-1.355,6.528-4.372,8.698
			c-1.294,0.933-2.669,1.525-4.015,1.768c4.201,14.173,0.313,22.523-4.971,25.671C71.387,67.679,69.452,68.19,67.5,68.19z
			 M69.729,31.847c-0.057,0-0.113,0.002-0.169,0.007c-0.661,0.051-1.101,0.409-1.205,0.984c-0.208,1.137,0.888,3.738,6.312,6.284
			c0.451,0.211,0.934,0.348,1.438,0.412c-0.069-0.209-0.142-0.42-0.216-0.633C74.188,34.014,71.545,31.847,69.729,31.847z"/>
	</g>
	<g>
		<path fill="#BE1E2D" d="M40.868,39.032c0.909-4.242,0.807-8.463-0.563-11.145c-5.989-11.714-20.968-5.226-22.947-3.78
			C8.281,30.728,2.02,56.587,22.36,59.372c2.041,0.277-2.989-5.546,4.288-5.066C30.877,54.365,37.8,53.341,40.868,39.032z"/>
		<path fill="#231F20" d="M22.492,60.26c-0.077,0-0.16-0.006-0.25-0.018c-9.246-1.267-12.55-6.938-13.694-11.476
			c-2.355-9.34,2.436-21.097,8.293-25.369c1.146-0.836,6.286-3.263,11.849-3.263c5.651,0,9.938,2.542,12.397,7.353
			c1.412,2.763,1.646,7.037,0.64,11.728c-3.416,15.93-11.917,15.969-14.743,15.969c-0.007,0-0.013,0-0.02,0l-0.329-0.002
			c-0.312-0.02-0.561-0.027-0.793-0.027c-1.127,0-1.916,0.21-2.223,0.59c-0.365,0.453-0.172,1.347-0.017,2.064
			c0.163,0.752,0.316,1.465-0.119,2.004C23.349,59.979,23.041,60.26,22.492,60.26z M28.689,21.892c-5.177,0-9.93,2.279-10.814,2.925
			c-5.296,3.862-9.78,14.979-7.626,23.521c1.411,5.593,5.447,9.07,11.688,10.083c-0.017-0.083-0.035-0.166-0.051-0.24
			c-0.209-0.97-0.526-2.433,0.367-3.539c0.675-0.836,1.849-1.242,3.589-1.242c0.268,0,0.555,0.01,0.863,0.029h0.258
			c4.258,0.002,10.244-1.511,13.046-14.58c0.909-4.239,0.727-8.188-0.487-10.562C37.353,24.043,33.708,21.892,28.689,21.892z"/>
	</g>
	<path fill="#BE1E2D" d="M25.659,52.224c0,0-3.84,3.154,2.301,3.088c3.451-0.035-0.326,3.842-1.372,4.017
		c-1.666,0.274-6.63-1.294-6.63-1.294l2.169-9.07L25.659,52.224z"/>
	<g>
		<path fill="#FFFFFF" d="M24.636,24.56c-2.045,0.543-5.628,0.224-4.692,2.841c0.324,0.91,1.104,2.209,1.097,3.104
			c-0.008,1.153-1.746,0.93-2.866,1.1c-1.994,0.309-2.099,0.334-1.149,1.987c0.391,0.678,1.552,2.517,1.247,3.236
			c-0.275,0.667-2.323,0.955-3.149,1.194c-1.519,0.442-2.633,0.319-1.372,2.121c0.856,1.219,2.326,2.145,0.736,2.896
			c-1.027,0.483-2.346,0.532-3.535,0.735c-0.695,0.088,1.206,2.656,1.878,3.363c0.809,0.748,2.085,1.166,1.636-0.397
			c-0.434-1.521-1.667-1.628,0.505-2.21c0.937-0.256,2.803-0.762,2.764-1.731c-0.04-0.967-2.267-2.989-1.693-3.147
			c2.099-0.508,4.925-1.086,3.812-3.542c-0.418-0.917-1.033-2.106-0.564-2.372c0.706-0.403,2.136-0.623,2.958-0.926
			c1.438-0.534,1.987-0.564,1.636-2.205c-0.193-0.909-0.781-1.665-1.041-2.625c-0.441-1.671,1.724-1.257,3.183-1.511
			c0.689-0.119,2.35-1.07,0.647-1.816C26.098,24.395,25.201,24.374,24.636,24.56z"/>
		<path fill="#FFFFFF" d="M25.709,28.24c0.33-0.754,2.083-0.658,2.126,0.416c0.053,1.336-2.304,1.058-2.168-0.307L25.709,28.24z"/>
		<path fill="#FFFFFF" d="M21.717,35.794c-0.351-1.46,1.985-1.301,1.985-0.209C23.702,36.604,22.127,36.677,21.717,35.794z"/>
		<path fill="#FFFFFF" d="M18.812,40.64c0.666-1.08,2.478-0.109,1.898,0.949C20.166,42.588,18.243,41.754,18.812,40.64z"/>
		<path fill="#FFFFFF" d="M16.14,45.844c0.553-0.93,2.064-0.255,1.758,0.663C17.52,47.644,15.733,46.847,16.14,45.844z"/>
		<path fill="#FFFFFF" d="M11.324,39.925c1.388-0.484,2.206,1.575,1.023,1.842C11.125,42.045,10.151,40.453,11.324,39.925z"/>
		<path fill="#FFFFFF" d="M14.562,34.188c1.2-0.077,1.426,1.312,0.74,1.531C13.485,36.024,13.742,34.225,14.562,34.188z"/>
		<path fill="#FFFFFF" d="M17.523,28.909c-0.38-1.008,1.218-1.111,1.554-0.287C19.535,29.744,17.626,29.324,17.523,28.909z"/>
	</g>
	<path fill="#77111A" d="M30.616,36.361c0,0-2.845,9.162-7.631,9.397c-4.786,0.235-4.944,4.231-1.959,4.837
		c2.986,0.605,11.583,0.055,13.522-7.115c1.937-7.173,3.118-10.836,0.848-11.848C32.944,30.543,31.543,33.948,30.616,36.361z"/>
</g>
</svg>
