<?xml version="1.0" encoding="utf-8"?>
<!-- Generator: Adobe Illustrator 16.0.0, SVG Export Plug-In . SVG Version: 6.00 Build 0)  -->
<!DOCTYPE svg PUBLIC "-//W3C//DTD SVG 1.1//EN" "http://www.w3.org/Graphics/SVG/1.1/DTD/svg11.dtd">
<svg version="1.1" id="Layer_1" xmlns="http://www.w3.org/2000/svg" xmlns:xlink="http://www.w3.org/1999/xlink" x="0px" y="0px"
	 width="149.556px" height="94.781px" viewBox="0 0 149.556 94.781" enable-background="new 0 0 149.556 94.781"
	 xml:space="preserve">
<path fill="#998282" d="M1.712,82.045c0,3.052,2.707,5.533,5.76,5.562c0,0,4.688,0.042,4.705,0.042c0.984,0,2.002-0.32,2.839-0.802
	c0.682,0.291,1.486,0.385,2.245,0.385h4.529c2.246,0,4.188-1.286,5.061-3.235c1.338,1.473,2.995,2.655,5.026,3.284
	c1.937,0.606,3.681,0.903,5.489,0.903c4.274,0,7.505-1.983,9.352-4.574c0.429,0.43,0.881,0.829,1.377,1.152
	c2.184,1.459,4.503,2.201,6.893,2.201c1.279,0,2.433-0.21,3.447-0.533c0.336,0.07,0.681,0.11,1.034,0.117
	c0,0,4.29,0.086,4.327,0.086c1.079,0,2.124-0.32,3.018-0.898c0.978,0.906,2.272,1.474,3.704,1.491c0,0,3.482,0.042,3.505,0.042
	c1.48,0,2.901-0.59,3.946-1.643c0.584-0.588,1.017-1.294,1.289-2.06c1.261,1.738,2.511,2.38,3.238,2.753
	c0.057,0.029,0.114,0.058,0.172,0.084c2.029,0.953,3.889,1.416,5.683,1.416c2.813,0,4.929-0.936,6.521-2.394
	c1.006,1.312,2.579,2.165,4.358,2.182c0,0,4.563,0.042,4.581,0.042c0.983,0,1.939-0.32,2.776-0.802
	c0.682,0.291,1.424,0.385,2.183,0.385h4.529c0.189,0,0.37,0.027,0.556,0.007c0.566,2.41,1.511,4.26,2.88,5.681
	c1.244,1.291,3.46,2.845,6.951,2.845c1.213,0,2.483-0.168,3.998-0.546c0.048-0.012,0.097-0.021,0.145-0.034
	c5.548-1.544,6.806-8.417,7.187-20.563c0.233-7.438-0.063-14.598-0.076-14.899c-0.04-0.943-0.332-1.809-0.781-2.572
	c0.403-0.46,0.758-0.97,1.04-1.537c0.627-1.258,0.865-2.64,0.705-4.003c0.106-0.175,0.207-0.355,0.3-0.541
	c0.851-1.707,0.985-3.644,0.379-5.453c-0.325-0.971-0.844-1.843-1.519-2.574c0.107-1.747-0.437-3.444-1.475-4.791
	c-0.331-0.935-0.834-1.799-1.474-2.555c1.381,0.355,2.788,0.542,4.202,0.542c0.001,0,0.001,0,0.001,0
	c6.295,0,11.633-3.515,13.601-8.963c0.233-0.646,0.413-1.335,0.551-2.104c0.422-2.361-0.718-4.728-2.827-5.87
	c-0.8-0.433-1.573-0.782-2.364-1.068c-1.877-0.678-3.82-1.021-5.776-1.021c-1.063,0-2.097,0.108-3.094,0.301
	c-0.041-7.663-6.284-13.886-13.958-13.886c-2.288,0-4.443,0.563-6.352,1.543c0.116-0.875-0.001-1.494-0.396-1.691l-0.104-0.052
	c-0.783-0.39-2.227,1.064-3.524,3.401c-0.83-0.461-1.689-0.857-2.578-1.187c0.963-2.292,1.195-4.155,0.449-4.526l-0.104-0.053
	c-0.812-0.404-2.341,1.186-3.677,3.686c-1.041-0.178-2.1-0.283-3.174-0.283c-5.178,0-9.997,2.063-13.571,5.81
	c-0.414,0.435-0.818,0.902-1.218,1.413c-0.162,0.209-0.313,0.423-0.461,0.639L87.6,12.529c-0.147,0.202-0.292,0.408-0.415,0.603
	c-0.184,0.287-0.351,0.58-0.515,0.876l-0.083,0.148c-0.099,0.17-0.194,0.341-0.295,0.536c-0.158,0.311-0.3,0.626-0.439,0.942
	c-0.002,0.005-0.006,0.015-0.012,0.026c-0.08,0.166-0.156,0.333-0.225,0.504c-0.042,0.102-0.08,0.205-0.115,0.31
	c-0.673,1.747-1.073,3.568-1.203,5.404c-1.364,0.177-2.72,0.873-3.659,2.066c-0.063,0.051-0.112,0.11-0.172,0.164
	c-0.371,0.151-0.733,0.323-1.072,0.536c-0.24,0.077-0.478,0.168-0.71,0.272c-0.154-0.102-0.313-0.197-0.477-0.287
	c-0.218-0.12-0.437-0.232-0.656-0.339c-0.962-0.47-2.005-0.703-3.047-0.703c-1.116,0-2.232,0.269-3.247,0.805
	c-0.166,0.087-0.324,0.178-0.508,0.286c-0.63,0.368-1.197,0.831-1.682,1.373c-0.563,0.386-1.114,0.857-1.552,1.405
	c-0.275,0.346-0.805,0.717-0.805,1.104v-0.686c0-2.356-1.424-4.371-3.494-5.181c-0.119-1.365-0.721-2.643-1.729-3.583
	c-1.033-0.961-2.378-1.491-3.781-1.491c-0.104,0-0.203,0.002-0.308,0.008l-4.115,0.231c-2.983,0.168-5.297,2.663-5.247,5.646
	c-1.121,0.925-1.879,2.284-2.006,3.84l-0.175,2.15l-3.702-0.176c-0.089-0.004-0.176-0.016-0.264-0.016
	c-1.105,0-2.181-0.073-3.091,0.927c-0.016,0-0.031,0-0.047,0c-2.831,0-5.321,1-7.254,2.797c-0.03-0.039-0.057-0.076-0.088-0.115
	c-2.075-2.732-5.337-4.234-9.202-4.234c-0.665,0-1.36-0.161-2.067-0.075c-5.571,0.609-9.635,5.626-10.712,11.626H6.562
	c-1.508,0-2.952,0.819-4,1.903c-1.048,1.085-1.859,2.652-1.809,4.159l0.959,35.298V82.045z M91.129,62.624
	c0.241-0.078,0.47-0.18,0.694-0.289l-0.686,1.215C91.134,63.246,91.13,62.94,91.129,62.624z M92.612,45.021
	c0.025-0.057,0.045-0.117,0.069-0.175c-0.127,0.503-0.188,1.023-0.17,1.551l-0.13,1.891c-0.449-0.313-0.67-0.566-1.67-0.736
	c0-0.004,0-0.008,0-0.012c1-0.301,0.581-0.613,0.735-0.939C91.84,46.121,92.36,45.589,92.612,45.021z M93.034,43.859
	c0.13-0.446,0.213-0.9,0.251-1.357l0.396,0.29C93.424,43.123,93.21,43.482,93.034,43.859z M119.353,32.362
	c0.192-0.346,0.362-0.702,0.531-1.059c0.833,0.156,1.688,0.247,2.565,0.247c0.168,0,0.33-0.02,0.496-0.025
	C121.667,31.529,120.445,31.826,119.353,32.362z M109.592,52.542c0.009,0.182,0.023,0.365,0.044,0.548
	c0.108,0.948,0.394,1.845,0.803,2.679c-0.657-0.18-1.336-0.326-2.048-0.412l-0.101-3.038
	C108.719,52.415,109.152,52.497,109.592,52.542z M123.345,31.533c-0.125-0.006-0.251-0.009-0.376-0.009
	c0.177-0.007,0.354-0.014,0.528-0.026C123.447,31.512,123.395,31.517,123.345,31.533z M46.301,59.079
	c0.196,0.004,0.37,0.008,0.508,0.01c-0.098,0.095-0.189,0.196-0.283,0.294C46.454,59.28,46.376,59.18,46.301,59.079z
	 M125.635,31.216c-0.049-0.001-0.097-0.009-0.146-0.009c0.044-0.01,0.086-0.023,0.129-0.033
	C125.623,31.188,125.629,31.202,125.635,31.216z M65.045,35.981c0.013,0.169,0.026,0.331,0.044,0.467
	c0.032,0.271,0.08,0.538,0.14,0.809c0.065,0.31,0.159,0.612,0.265,0.91c-0.013,0-0.025-0.004-0.038-0.004
	c-0.04,0-2.133,0.045-2.133,0.045c-0.007-0.354-0.013-0.719-0.016-1.094C63.962,36.85,64.543,36.457,65.045,35.981z"/>
<g>
	<g>
		<g>
			<path fill="#FFFFFF" d="M135.316,35.239c-1.956,0-3.9-0.344-5.778-1.022c-0.77-0.275-1.546-0.626-2.359-1.065
				c-2.111-1.141-3.253-3.508-2.831-5.872c0.137-0.765,0.316-1.452,0.549-2.1c1.967-5.451,7.306-8.968,13.604-8.968
				c1.956,0,3.899,0.344,5.776,1.021c0.791,0.287,1.564,0.636,2.364,1.069c2.109,1.142,3.249,3.508,2.827,5.87
				c-0.138,0.77-0.317,1.458-0.551,2.105C146.95,31.725,141.612,35.239,135.316,35.239
				C135.317,35.239,135.317,35.239,135.316,35.239z"/>
			<path fill="#FFFFFF" d="M142.388,22.465c-5.178-1.87-10.666,0.188-12.256,4.594c-0.142,0.395-0.236,0.795-0.309,1.199
				c0.508,0.274,1.041,0.525,1.605,0.728c5.178,1.871,10.664-0.186,12.256-4.591c0.143-0.396,0.236-0.797,0.309-1.201
				C143.486,22.919,142.952,22.669,142.388,22.465z"/>
		</g>
		<g>
			<path fill="#FFFFFF" d="M117.179,61.115c-1.602,0-3.175-0.549-4.43-1.546c-1.068-0.852-1.843-1.957-2.281-3.178
				c-1.012-1.216-1.648-2.698-1.832-4.301c-0.021-0.183-0.035-0.366-0.044-0.549c-1.987-0.203-3.89-0.946-5.558-2.179L81.759,33.805
				c-1.756-1.301-5.352-3.964-3.957-8.191c0.312-0.943,0.915-1.917,1.837-2.669c0.939-1.193,2.295-1.889,3.659-2.066
				c0.13-1.835,0.53-3.657,1.203-5.404c0.035-0.104,0.073-0.208,0.115-0.31c0.068-0.17,0.145-0.337,0.225-0.504
				c0.006-0.012,0.01-0.021,0.012-0.026c0.14-0.316,0.281-0.632,0.439-0.942c0.101-0.196,0.196-0.367,0.295-0.537l0.083-0.148
				c0.164-0.296,0.331-0.589,0.515-0.876c0.123-0.195,0.268-0.4,0.415-0.603l0.142-0.202c0.148-0.216,0.299-0.43,0.461-0.638
				c0.399-0.511,0.804-0.979,1.218-1.414c3.574-3.746,8.394-5.809,13.571-5.809c4.841,0,9.437,1.841,12.94,5.183
				c0.403,0.386,0.792,0.796,1.197,1.261c0.103,0.117,0.2,0.236,0.298,0.356c0.304,0.37,0.545,0.681,0.773,0.999
				c0.133,0.185,0.246,0.346,0.356,0.51c0.223,0.332,0.42,0.651,0.608,0.976c0.116,0.192,0.199,0.332,0.277,0.474
				c0.29,0.533,0.521,1.003,0.725,1.471c0.052,0.115,0.124,0.295,0.191,0.477c0.144,0.357,0.269,0.685,0.382,1.013
				c0.078,0.233,0.138,0.431,0.196,0.628c0.003,0.011,0.032,0.109,0.035,0.12c0.084,0.288,0.162,0.576,0.231,0.868
				c0.051,0.208,0.104,0.441,0.153,0.675c0.025,0.108,0.047,0.213,0.066,0.318c0.022,0.124,0.041,0.248,0.056,0.372
				c0.693,4.221-0.087,8.527-2.126,12.194c1.099-0.539,2.328-0.838,3.614-0.838c0.126,0,0.252,0.003,0.378,0.009
				c0.682-0.214,1.397-0.327,2.123-0.327c0.601,0,1.2,0.076,1.782,0.226c2.231,0.577,3.964,2.179,4.801,4.185
				c0.672,0.774,1.194,1.669,1.537,2.636c1.038,1.346,1.582,3.044,1.475,4.791c0.675,0.731,1.193,1.604,1.519,2.575
				c0.606,1.809,0.472,3.746-0.379,5.453c-0.093,0.185-0.193,0.366-0.3,0.541c0.16,1.363-0.078,2.746-0.705,4.003
				c-1.214,2.44-3.664,3.957-6.393,3.957l0,0c-0.26,0-0.521-0.015-0.779-0.043c-1.314,1.268-3.071,1.984-4.939,1.984
				c-0.027,0-0.056,0-0.083,0c-0.792,0.249-1.623,0.379-2.465,0.379c-0.176,0-0.351-0.006-0.525-0.017
				C118.418,61.032,117.803,61.115,117.179,61.115z"/>
			<path fill="#FFFFFF" d="M129.514,45.472c-0.607-0.302-1.315-0.172-1.783,0.269c-0.117-0.679-0.495-1.299-1.083-1.714
				c-0.015-0.064-0.029-0.129-0.051-0.191c0.145-0.192,0.252-0.414,0.329-0.653c0.708,0.003,1.353-0.465,1.538-1.182
				c0.201-0.785-0.229-1.578-0.97-1.861c0.055-1.058-0.53-2.052-1.479-2.517c0.145-0.805-0.35-1.597-1.154-1.805
				c-0.636-0.164-1.281,0.087-1.654,0.583c-0.181-0.096-0.37-0.177-0.576-0.23c-1.418-0.365-2.864,0.488-3.231,1.908
				c-0.119,0.46-0.096,0.922,0.021,1.351c-1.277-0.284-2.564-0.547-3.859-0.773c-0.349-1.983-1.8-3.659-4.052-4.324l-2.743-0.812
				c0.993-0.596,1.93-1.319,2.769-2.199c3.036-3.184,4.154-7.487,3.412-11.507c0.003-0.006,0.005-0.011,0.007-0.016
				c-0.011-0.059-0.027-0.115-0.038-0.174c-0.036-0.177-0.077-0.353-0.12-0.528c-0.049-0.204-0.104-0.405-0.162-0.606
				c-0.05-0.167-0.098-0.334-0.153-0.5c-0.082-0.239-0.175-0.478-0.27-0.714c-0.05-0.119-0.089-0.242-0.142-0.359
				c-0.148-0.341-0.315-0.675-0.494-1.004c-0.067-0.122-0.143-0.241-0.214-0.362c-0.131-0.225-0.267-0.446-0.413-0.665
				c-0.083-0.123-0.169-0.244-0.257-0.367c-0.159-0.221-0.326-0.437-0.501-0.648c-0.084-0.102-0.164-0.205-0.251-0.305
				c-0.267-0.306-0.546-0.605-0.845-0.892c-5.271-5.027-13.619-4.831-18.647,0.44c-0.302,0.316-0.583,0.645-0.848,0.982
				c-0.135,0.174-0.254,0.356-0.38,0.536c-0.116,0.165-0.241,0.328-0.349,0.497c-0.141,0.22-0.263,0.446-0.389,0.673
				c-0.076,0.136-0.159,0.271-0.23,0.41c-0.12,0.236-0.226,0.479-0.332,0.72c-0.046,0.106-0.102,0.208-0.145,0.314
				c0,0.004,0.001,0.008,0.003,0.013c-1.407,3.469-1.269,7.396,0.385,10.764l-4.069-1.202c-0.595-0.176-1.096-0.291-1.517-0.358
				c-0.055-0.009-0.114-0.021-0.166-0.028c-0.057-0.008-0.104-0.01-0.158-0.016c-0.089-0.01-0.18-0.021-0.257-0.023
				c-0.022-0.002-0.038,0.385-0.06,0.385c-0.101-0.002-0.197,0.389-0.281,0.389c-0.001,0-0.003,0-0.005,0
				c-1.076,0-0.652,0.631,1.394,2.146l21.299,15.574c1.857,1.373,4.025,1.444,5.802,0.58c1.192,1.143,2.417,2.203,3.671,3.269
				c-0.414,0.166-0.794,0.401-1.092,0.775c-0.912,1.146-0.722,2.802,0.424,3.714c0.166,0.132,0.346,0.229,0.53,0.314
				c-0.172,0.596,0.017,1.261,0.532,1.672c0.65,0.517,1.579,0.43,2.137-0.17c0.942,0.479,2.089,0.347,2.898-0.336
				c0.671,0.422,1.565,0.287,2.07-0.348c0.284-0.355,0.384-0.798,0.321-1.217c0.38-0.118,0.71-0.379,0.914-0.753
				c0.001,0.001,0.003,0.003,0.005,0.004c0.682,0.339,1.436,0.352,2.098,0.107c0.126,0.136,0.274,0.255,0.45,0.343
				c0.78,0.389,1.729,0.072,2.117-0.709c0.39-0.782,0.071-1.731-0.71-2.119c-0.004-0.002-0.007-0.003-0.012-0.005
				c0.351-0.208,0.649-0.513,0.846-0.904c0.133-0.27,0.206-0.554,0.225-0.836c0.273-0.149,0.506-0.38,0.656-0.68
				C130.612,46.811,130.294,45.861,129.514,45.472z M119.388,43.418c-1.385-0.572-2.785-1.102-4.194-1.597
				c0.142-0.352,0.246-0.705,0.319-1.057c1.251,0.423,2.512,0.808,3.777,1.17C119.178,42.447,119.218,42.957,119.388,43.418z
				 M114.652,42.932c1.708,1.136,3.463,2.215,5.253,3.224c-0.803-0.048-1.61,0.271-2.17,0.921c-1.311-0.986-2.653-1.94-4.023-2.854
				C114.067,43.852,114.381,43.418,114.652,42.932z"/>
		</g>
		<g>
			<path fill="#FFFFFF" d="M80.774,51.108c-0.26,0-0.512-0.014-0.762-0.037c-0.488-0.039-0.971-0.129-1.44-0.269
				c-0.884-0.264-1.761-0.634-2.608-1.1c-0.098-0.054-0.194-0.11-0.289-0.168c-1.258,0.941-2.762,1.443-4.34,1.443
				c-1.929,0-3.739-0.75-5.101-2.11c-2.583-2.631-2.773-6.675-0.632-9.491c-0.356-0.562-0.666-1.141-0.927-1.73
				c-0.197-0.446-0.347-0.912-0.447-1.39c-0.06-0.27-0.107-0.539-0.14-0.809c-0.027-0.21-0.049-0.482-0.063-0.75
				c-0.012-0.222-0.014-0.443-0.005-0.664c-0.009-0.145-0.014-0.291-0.014-0.438c0-0.287,0.019-0.597,0.055-0.89
				c0.013-0.216,0.035-0.433,0.068-0.649c0.14-0.909,0.371-1.778,0.688-2.584c0.096-0.246,0.205-0.484,0.327-0.714
				c0.086-0.202,0.182-0.401,0.288-0.595c0.34-0.625,0.708-1.183,1.124-1.706c0.438-0.548,0.948-1.019,1.512-1.405
				c0.484-0.542,1.052-1.006,1.682-1.374c0.184-0.108,0.342-0.199,0.507-0.286c1.015-0.536,2.131-0.805,3.248-0.805
				c1.042,0,2.085,0.234,3.047,0.703c0.22,0.107,0.438,0.219,0.656,0.339c0.163,0.089,0.322,0.186,0.477,0.288
				c0.232-0.104,0.47-0.196,0.71-0.273c0.473-0.296,0.98-0.53,1.514-0.707c1.428-0.473,2.896-0.706,4.361-0.706
				c0.032,0,0.156,0,0.189,0c0.421,0,0.837,0.045,1.242,0.125c0.417,0.009,0.834,0.052,1.246,0.136
				c0.276,0.057,0.555,0.123,0.823,0.196c2.353,0.637,4.2,2.458,4.87,4.802c0.055,0.193,0.103,0.385,0.147,0.579
				c0.166,0.722,0.233,1.544,0.17,2.299c0.138,0.674,0.178,1.373,0.108,2.077c-0.064,0.659-0.184,1.326-0.363,2.04
				c-0.059,0.231-0.129,0.458-0.21,0.681c-0.056,0.229-0.125,0.456-0.206,0.68c-0.218,0.604-0.48,1.193-0.796,1.788
				c0.927,1.727,1.086,3.773,0.421,5.633c-0.093,0.257-0.191,0.51-0.3,0.754c-0.252,0.568-0.579,1.099-0.972,1.579
				c-0.297,0.627-0.69,1.213-1.173,1.736c-0.448,0.486-0.955,0.946-1.507,1.367c-0.185,0.141-0.376,0.272-0.572,0.393
				c-0.194,0.144-0.396,0.277-0.606,0.4c-0.792,0.464-1.655,0.836-2.567,1.107c-0.182,0.054-0.364,0.101-0.548,0.139
				c-0.058,0.016-0.114,0.031-0.173,0.045c-0.274,0.069-0.568,0.123-0.854,0.158c-0.093,0.012-0.187,0.021-0.279,0.029
				c-0.18,0.032-0.361,0.058-0.545,0.076C81.467,51.085,81.123,51.108,80.774,51.108z"/>
			<path fill="#FFFFFF" d="M85.317,32.141c0.03-0.067,0.07-0.128,0.101-0.196c0.317-0.723,0.515-1.469,0.615-2.216
				c-0.026-0.109-0.049-0.219-0.08-0.328c-0.13-0.035-0.265-0.068-0.398-0.096c-0.441,0.138-0.881,0.315-1.303,0.535
				c-0.067,0.033-0.124,0.077-0.188,0.112c0.031-0.068,0.067-0.13,0.095-0.2c0.075-0.189,0.141-0.383,0.202-0.576
				c-0.756-0.011-1.521,0.112-2.269,0.359c-0.469,0.484-0.889,1.046-1.235,1.689c-0.035,0.064-0.06,0.136-0.094,0.2
				c-0.011-0.078-0.013-0.156-0.025-0.235c-0.054-0.316-0.125-0.623-0.205-0.927c-0.022,0.013-0.044,0.028-0.069,0.043
				c-0.307,0.321-0.592,0.677-0.85,1.065c-0.042,0.063-0.071,0.129-0.11,0.189c-0.004-0.076,0-0.151-0.008-0.232
				c-0.008-0.094-0.023-0.187-0.034-0.279c-0.118,0.104-0.234,0.211-0.348,0.325c-0.341,0.339-0.63,0.711-0.892,1.092
				c0.299,1.385,0.235,2.898-0.252,4.349c-0.04,0.015-0.082,0.019-0.114,0.05l-2.583,2.584l-0.183-0.992
				c0.479-1.124,1.293-2.048,2.319-2.672c0.028-0.371,0.031-0.75-0.022-1.144c-0.018-0.129-0.041-0.26-0.068-0.387
				c-0.062,0.046-0.126,0.089-0.188,0.14c-0.051,0.042-0.091,0.088-0.142,0.129c0.009-0.056,0.026-0.114,0.031-0.173
				c0.037-0.375,0.031-0.743-0.009-1.104c-0.008-0.022-0.017-0.043-0.024-0.066c-0.236,0.129-0.466,0.265-0.688,0.416
				c-0.056,0.039-0.101,0.081-0.156,0.119c0.014-0.056,0.039-0.112,0.049-0.169c0.117-0.57,0.135-1.138,0.07-1.686
				c-0.406-0.573-0.897-1.09-1.458-1.52c-0.067,0.145-0.131,0.294-0.186,0.449c-0.021,0.055-0.029,0.111-0.047,0.168
				c-0.028-0.058-0.045-0.117-0.073-0.174c-0.184-0.373-0.401-0.726-0.646-1.062c-0.115-0.063-0.231-0.122-0.348-0.179
				c-0.087,0.046-0.168,0.096-0.25,0.144c-0.358,0.487-0.646,1.032-0.832,1.631c-0.017,0.057-0.022,0.114-0.038,0.17
				c-0.029-0.058-0.049-0.115-0.079-0.172c-0.097-0.18-0.201-0.353-0.311-0.522c-0.173,0.217-0.32,0.449-0.453,0.693
				c0.044,0.229,0.1,0.466,0.175,0.702c0.02,0.059,0.05,0.115,0.071,0.173c-0.059-0.042-0.111-0.091-0.172-0.133
				c-0.105-0.079-0.215-0.146-0.324-0.218c-0.137,0.349-0.229,0.719-0.287,1.101c0.65,0.463,1.381,0.956,2.185,1.471
				c0.086,0.054,0.176,0.109,0.261,0.165c-0.093-0.048-0.188-0.099-0.28-0.145c-0.779-0.388-1.515-0.733-2.206-1.044
				c-0.002,0.013-0.002,0.025-0.002,0.037c0.188,0.25,0.393,0.498,0.623,0.74c0.05,0.052,0.106,0.096,0.154,0.146
				c-0.073-0.024-0.145-0.055-0.221-0.078c-0.186-0.055-0.369-0.101-0.552-0.146c0.007,0.118,0.012,0.239,0.027,0.36
				c0.009,0.073,0.029,0.145,0.043,0.216c0.175,0.396,0.402,0.79,0.685,1.181c1.225,0.738,2.3,1.78,3.007,3.041
				c0.014,0.024,0.024,0.05,0.035,0.075l0.128,0.697l-3.722,3.723c-0.115,0.113-0.122,0.291-0.018,0.397
				c0.104,0.104,0.284,0.096,0.398-0.018l3.03-3.032l1.292,0.062c0.026,0.009,0.053,0.017,0.078,0.025
				c1.322,0.542,2.481,1.486,3.366,2.623c0.417,0.229,0.834,0.406,1.243,0.528c0.071,0.004,0.141,0.016,0.214,0.016
				c0.119,0,0.236-0.012,0.354-0.023c-0.071-0.178-0.141-0.358-0.22-0.536c-0.031-0.073-0.071-0.139-0.104-0.212
				c0.054,0.043,0.106,0.092,0.163,0.136c0.267,0.198,0.536,0.371,0.805,0.527c0.012-0.002,0.023-0.002,0.035-0.005
				c-0.396-0.656-0.832-1.352-1.314-2.087c-0.058-0.088-0.118-0.175-0.178-0.264c0.066,0.078,0.13,0.162,0.194,0.24
				c0.61,0.743,1.188,1.413,1.727,2.006c0.365-0.108,0.712-0.254,1.03-0.44c-0.084-0.099-0.166-0.2-0.254-0.297
				c-0.049-0.056-0.104-0.102-0.154-0.153c0.061,0.013,0.117,0.035,0.18,0.046c0.239,0.045,0.475,0.067,0.706,0.081
				c0.218-0.166,0.426-0.35,0.612-0.552c-0.181-0.088-0.363-0.17-0.551-0.243c-0.061-0.021-0.118-0.034-0.178-0.056
				c0.052-0.025,0.107-0.036,0.161-0.063c0.556-0.269,1.045-0.632,1.468-1.061c0.039-0.088,0.073-0.18,0.106-0.272
				c-0.07-0.111-0.144-0.22-0.22-0.327c-0.358-0.201-0.733-0.373-1.12-0.508c-0.06-0.022-0.118-0.03-0.179-0.049
				c0.052-0.027,0.107-0.043,0.158-0.071c0.143-0.076,0.277-0.16,0.41-0.249c-0.495-0.507-1.063-0.933-1.676-1.263
				c-0.543,0.008-1.091,0.102-1.629,0.299c-0.056,0.021-0.104,0.051-0.158,0.072c0.03-0.061,0.065-0.112,0.095-0.174
				c0.117-0.243,0.218-0.496,0.311-0.75c-0.022-0.006-0.046-0.012-0.067-0.016c-0.357,0.009-0.719,0.054-1.074,0.143
				c-0.058,0.012-0.109,0.037-0.164,0.053c0.034-0.057,0.072-0.103,0.105-0.16c0.04-0.068,0.074-0.141,0.112-0.208
				c-0.129-0.009-0.257-0.017-0.388-0.017c-0.39,0-0.758,0.056-1.114,0.134c-0.467,1.121-1.255,2.069-2.28,2.706l-1.475-0.069
				l2.801-2.803c1.483-0.662,3.074-0.846,4.549-0.628c0.512-0.163,0.988-0.372,1.423-0.622c0.065-0.06,0.134-0.112,0.197-0.176
				c0.105-0.105,0.199-0.218,0.296-0.329c-0.174-0.095-0.35-0.191-0.532-0.28c-0.075-0.033-0.15-0.059-0.225-0.095
				c0.074-0.01,0.152-0.01,0.228-0.023c0.361-0.057,0.705-0.143,1.039-0.24c0.009-0.011,0.018-0.026,0.027-0.036
				c-0.762-0.229-1.584-0.457-2.472-0.678c-0.105-0.024-0.215-0.048-0.321-0.076c0.107,0.014,0.216,0.03,0.321,0.041
				c1.005,0.116,1.935,0.199,2.781,0.247c0.249-0.417,0.463-0.845,0.623-1.288c-0.135-0.013-0.272-0.029-0.411-0.037
				c-0.078-0.006-0.153,0.002-0.233,0.002c0.062-0.043,0.127-0.074,0.187-0.118c0.24-0.172,0.462-0.355,0.671-0.546
				c0.085-0.337,0.152-0.679,0.186-1.018c-0.214,0.08-0.427,0.167-0.634,0.267C85.443,32.066,85.384,32.107,85.317,32.141z"/>
		</g>
		<g>
			<path fill="#FFFFFF" d="M121.449,30.551c-7.699,0-13.962-6.264-13.962-13.962c0-7.698,6.263-13.961,13.962-13.961
				s13.962,6.263,13.962,13.961C135.411,24.287,129.148,30.551,121.449,30.551z"/>
			<circle fill="#FFFFFF" cx="121.449" cy="16.589" r="6.933"/>
		</g>
	</g>
	<g>
		<g>
			<g>
				<g>
					<path fill="#FFFFFF" d="M22.119,59.519c-1.697,0-3.331-0.264-5.142-0.832c-6.893-2.134-9.384-10.41-8.774-17.192
						c0.568-7.62,4.862-13.016,10.939-13.682c0.707-0.085,1.402-0.129,2.067-0.129c3.865,0,7.127,1.503,9.202,4.236
						c2.628,3.288,2.792,7.338,2.652,9.474c-0.024,0.384-0.089,0.764-0.192,1.134l-0.107,0.385c-0.134,0.477-0.326,0.925-0.57,1.337
						c0.315,0.647,0.505,1.355,0.551,2.089l0.036,0.577c0.102,1.365,0.162,3.086-0.217,4.778
						C31.765,55.607,27.954,59.519,22.119,59.519z"/>
					<path fill="#FFFFFF" d="M38.137,58.396c-2.274,0-4.477-0.702-6.547-2.085c-4.934-3.217-6.376-12.323-4.552-18.46
						c1.601-5.384,5.606-8.598,10.716-8.598c0.016,0,0.031,0,0.047,0c0.91-0.608,1.985-0.938,3.091-0.938
						c0.088,0,0.175,0.002,0.264,0.006l4.862,0.23c2.92,0.138,5.235,2.515,5.297,5.438l0.391,18.427
						c0.032,1.515-0.555,2.977-1.626,4.048c-1.044,1.045-2.46,1.631-3.935,1.631c-0.037,0-3.945-0.078-3.945-0.078
						c-0.307-0.006-0.607-0.038-0.901-0.092C40.361,58.211,39.304,58.396,38.137,58.396z"/>
					<path fill="#FFFFFF" d="M59.273,59.172c-1.707,0-3.467-0.437-5.381-1.334c-0.059-0.027-0.116-0.056-0.174-0.085
						c-2.009-1.03-7.107-3.643-6.891-22.201c-0.296-0.229-0.571-0.488-0.818-0.775c-0.973-1.128-1.452-2.599-1.331-4.083
						l0.354-4.347c0.127-1.556,0.885-2.915,2.006-3.84c-0.05-2.983,2.266-5.478,5.249-5.646l4.117-0.231
						c0.104-0.006,0.209-0.009,0.313-0.009c1.403,0,2.759,0.531,3.791,1.492c1.009,0.94,1.63,2.218,1.75,3.583
						c2.069,0.81,3.534,2.825,3.534,5.181v4.077c0,2.322-1.429,4.334-3.486,5.161c0.003,0.375,0.009,0.74,0.016,1.094
						c0,0,2.093-0.045,2.133-0.045c1.452,0,2.849,0.568,3.89,1.586c1.069,1.046,1.672,2.48,1.672,3.976v0.423
						C69.897,57.615,62.464,59.172,59.273,59.172z"/>
				</g>
				<g>
					<path fill="#FFFFFF" d="M22.119,59.519c-1.697,0-3.331-0.264-5.142-0.832c-6.893-2.134-9.384-10.41-8.774-17.192
						c0.568-7.62,4.862-13.016,10.939-13.682c0.707-0.085,1.402-0.129,2.067-0.129c3.865,0,7.127,1.503,9.202,4.236
						c2.628,3.288,2.792,7.338,2.652,9.474c-0.024,0.384-0.089,0.764-0.192,1.134l-0.107,0.385c-0.134,0.477-0.326,0.925-0.57,1.337
						c0.315,0.647,0.505,1.355,0.551,2.089l0.036,0.577c0.102,1.365,0.162,3.086-0.217,4.778
						C31.765,55.607,27.954,59.519,22.119,59.519z"/>
					<path fill="#FFFFFF" d="M38.137,58.396c-2.274,0-4.477-0.702-6.547-2.085c-4.934-3.217-6.376-12.323-4.552-18.46
						c1.601-5.384,5.606-8.598,10.716-8.598c0.016,0,0.031,0,0.047,0c0.91-0.608,1.985-0.938,3.091-0.938
						c0.088,0,0.175,0.002,0.264,0.006l4.862,0.23c2.92,0.138,5.235,2.515,5.297,5.438l0.391,18.427
						c0.032,1.515-0.555,2.977-1.626,4.048c-1.044,1.045-2.46,1.631-3.935,1.631c-0.037,0-3.945-0.078-3.945-0.078
						c-0.307-0.006-0.607-0.038-0.901-0.092C40.361,58.211,39.304,58.396,38.137,58.396z"/>
					<path fill="#FFFFFF" d="M59.273,59.172c-1.707,0-3.467-0.437-5.381-1.334c-0.059-0.027-0.116-0.056-0.174-0.085
						c-2.009-1.03-7.107-3.643-6.891-22.201c-0.296-0.229-0.571-0.488-0.818-0.775c-0.973-1.128-1.452-2.599-1.331-4.083
						l0.354-4.347c0.127-1.556,0.885-2.915,2.006-3.84c-0.05-2.983,2.266-5.478,5.249-5.646l4.117-0.231
						c0.104-0.006,0.209-0.009,0.313-0.009c1.403,0,2.759,0.531,3.791,1.492c1.009,0.94,1.63,2.218,1.75,3.583
						c2.069,0.81,3.534,2.825,3.534,5.181v4.077c0,2.322-1.429,4.334-3.486,5.161c0.003,0.375,0.009,0.74,0.016,1.094
						c0,0,2.093-0.045,2.133-0.045c1.452,0,2.849,0.568,3.89,1.586c1.069,1.046,1.672,2.48,1.672,3.976v0.423
						C69.897,57.615,62.464,59.172,59.273,59.172z"/>
				</g>
				<g>
					<path fill="#FFFFFF" d="M22.119,59.519c-1.697,0-3.331-0.264-5.142-0.832c-6.893-2.134-9.384-10.41-8.774-17.192
						c0.568-7.62,4.862-13.016,10.939-13.682c0.707-0.085,1.402-0.129,2.067-0.129c3.865,0,7.127,1.503,9.202,4.236
						c2.628,3.288,2.792,7.338,2.652,9.474c-0.024,0.384-0.089,0.764-0.192,1.134l-0.107,0.385c-0.134,0.477-0.326,0.925-0.57,1.337
						c0.315,0.647,0.505,1.355,0.551,2.089l0.036,0.577c0.102,1.365,0.162,3.086-0.217,4.778
						C31.765,55.607,27.954,59.519,22.119,59.519z"/>
					<path fill="#FFFFFF" d="M38.137,58.396c-2.274,0-4.477-0.702-6.547-2.085c-4.934-3.217-6.376-12.323-4.552-18.46
						c1.601-5.384,5.606-8.598,10.716-8.598c0.016,0,0.031,0,0.047,0c0.91-0.608,1.985-0.938,3.091-0.938
						c0.088,0,0.175,0.002,0.264,0.006l4.862,0.23c2.92,0.138,5.235,2.515,5.297,5.438l0.391,18.427
						c0.032,1.515-0.555,2.977-1.626,4.048c-1.044,1.045-2.46,1.631-3.935,1.631c-0.037,0-3.945-0.078-3.945-0.078
						c-0.307-0.006-0.607-0.038-0.901-0.092C40.361,58.211,39.304,58.396,38.137,58.396z"/>
					<path fill="#FFFFFF" d="M59.273,59.172c-1.707,0-3.467-0.437-5.381-1.334c-0.059-0.027-0.116-0.056-0.174-0.085
						c-2.009-1.03-7.107-3.643-6.891-22.201c-0.296-0.229-0.571-0.488-0.818-0.775c-0.973-1.128-1.452-2.599-1.331-4.083
						l0.354-4.347c0.127-1.556,0.885-2.915,2.006-3.84c-0.05-2.983,2.266-5.478,5.249-5.646l4.117-0.231
						c0.104-0.006,0.209-0.009,0.313-0.009c1.403,0,2.759,0.531,3.791,1.492c1.009,0.94,1.63,2.218,1.75,3.583
						c2.069,0.81,3.534,2.825,3.534,5.181v4.077c0,2.322-1.429,4.334-3.486,5.161c0.003,0.375,0.009,0.74,0.016,1.094
						c0,0,2.093-0.045,2.133-0.045c1.452,0,2.849,0.568,3.89,1.586c1.069,1.046,1.672,2.48,1.672,3.976v0.423
						C69.897,57.615,62.464,59.172,59.273,59.172z"/>
				</g>
			</g>
			<g>
				<g>
					<path fill="#FFFFFF" d="M6.721,86.607c-3.052-0.028-5.51-2.51-5.51-5.562v-0.455L0.003,45.397
						c-0.052-1.507,0.511-2.971,1.559-4.056c1.048-1.085,2.492-1.697,4-1.697h4.451c3,0,5.459,2.379,5.559,5.377l0.311,9.334
						c3.486,0.421,6.377,1.996,8.101,4.463c0.04,0.057,0.078,0.114,0.115,0.172c4.127,6.403,2.653,19.159,2.258,22.019l-0.027,0.293
						c-0.264,2.861-2.664,5.05-5.538,5.05h-4.529c-0.759,0-1.501-0.155-2.183-0.446c-0.837,0.481-1.793,0.742-2.776,0.742
						C11.284,86.649,6.721,86.607,6.721,86.607z"/>
					<path fill="#FFFFFF" d="M36.366,87.2c-1.809,0-3.553-0.283-5.489-0.889c-7.29-2.257-9.917-11.085-9.267-18.33
						c0.604-8.112,5.137-13.849,11.545-14.548c0.756-0.092,1.499-0.138,2.208-0.138c5.197,0,8.128,2.391,9.688,4.446
						c2.885,3.609,2.921,8.219,2.8,10.046c-0.024,0.377-0.088,0.751-0.188,1.116l-0.117,0.424c-0.162,0.583-0.413,1.125-0.736,1.608
						c0.4,0.719,0.641,1.526,0.692,2.364l0.039,0.634c0.108,1.461,0.176,3.306-0.229,5.1C46.48,83.117,42.49,87.2,36.366,87.2z"/>
					<path fill="#FFFFFF" d="M53.987,85.965c-2.39,0-4.709-0.74-6.893-2.2c-5.229-3.407-6.735-13.12-4.785-19.683
						c1.686-5.675,5.894-9.063,11.256-9.063c0.073,0,0.147,0.001,0.223,0.002c0.938-0.669,2.067-1.034,3.229-1.034
						c0.088,0,0.176,0.002,0.264,0.006l5.35,0.254c2.921,0.139,5.235,2.515,5.297,5.438l0.429,20.268
						c0.032,1.515-0.555,2.977-1.625,4.048c-1.044,1.045-2.461,1.631-3.936,1.631c-0.037,0-4.327-0.085-4.327-0.085
						c-0.354-0.007-0.698-0.047-1.034-0.118C56.42,85.753,55.267,85.965,53.987,85.965z"/>
					<path fill="#FFFFFF" d="M69.518,86.226c-2.972-0.036-5.39-2.403-5.49-5.374l-1.171-34.611c-0.051-1.507,0.512-2.97,1.56-4.054
						s2.491-1.696,3.999-1.696h3.943c3.03,0,5.503,2.426,5.561,5.456L78.583,80.6c0.029,1.505-0.553,2.958-1.614,4.026
						c-1.045,1.052-2.466,1.643-3.946,1.643C73,86.269,69.518,86.226,69.518,86.226z"/>
					<path fill="#FFFFFF" d="M87.351,86.819c-1.794,0-3.653-0.463-5.683-1.416c-0.058-0.027-0.115-0.056-0.172-0.084
						c-1.934-0.991-7.55-3.871-7.274-24.204c-0.382-0.265-0.732-0.579-1.041-0.938c-0.973-1.128-1.452-2.6-1.331-4.084l0.391-4.781
						c0.135-1.65,0.979-3.079,2.215-4.002l-0.006-0.236c-0.071-3.002,2.252-5.519,5.25-5.686l4.529-0.253
						c0.104-0.006,0.208-0.009,0.311-0.009c1.403,0,2.759,0.531,3.791,1.492c1.095,1.02,1.732,2.438,1.77,3.933
						c2.243,0.717,3.867,2.818,3.867,5.299v4.484c0,2.452-1.594,4.559-3.838,5.289c0.003,0.754,0.015,1.475,0.032,2.159
						c0,0,2.851-0.062,2.891-0.062c1.453,0,2.85,0.568,3.89,1.586c1.069,1.046,1.672,2.479,1.672,3.976v0.465
						C98.487,85.16,90.695,86.819,87.351,86.819z"/>
					<path fill="#FFFFFF" d="M98.229,86.607c-3.052-0.028-5.51-2.51-5.51-5.562v-0.455l-1.208-35.193
						c-0.052-1.507,0.511-2.971,1.559-4.056c1.048-1.085,2.492-1.697,4-1.697h4.451c3,0,5.459,2.379,5.559,5.377l0.311,9.334
						c3.486,0.421,6.377,1.996,8.101,4.463c0.04,0.057,0.078,0.114,0.115,0.172c4.127,6.403,2.653,19.159,2.258,22.019l-0.027,0.293
						c-0.264,2.861-2.664,5.05-5.538,5.05h-4.529c-0.759,0-1.501-0.155-2.183-0.446c-0.837,0.482-1.793,0.742-2.776,0.742
						C102.793,86.649,98.229,86.607,98.229,86.607z"/>
					<path fill="#FFFFFF" d="M122.686,94.781c-3.491,0-5.707-1.539-6.951-2.831c-2.728-2.832-3.772-7.243-3.492-14.751
						c0.053-1.405,0.623-2.672,1.523-3.621c-3.115-5.125-2.396-11.362-2.073-14.169c0.036-0.321,0.071-0.588,0.083-0.787
						c0.17-2.856,2.482-5.196,5.342-5.307l3.28-0.127c0.071-0.003,0.144-0.004,0.215-0.004c0.641,0,1.27,0.11,1.862,0.321
						c0.47-0.127,0.959-0.194,1.456-0.194c0.035,0,4.558,0.086,4.558,0.086c2.938,0.056,5.326,2.39,5.45,5.327
						c0.013,0.301,0.31,7.461,0.076,14.9c-0.381,12.146-1.639,19.02-7.187,20.564c-0.048,0.013-0.097,0.026-0.145,0.038
						C125.169,94.605,123.898,94.781,122.686,94.781z"/>
				</g>
				<g>
					<path fill="#FFFFFF" d="M6.721,86.607c-3.052-0.028-5.51-2.51-5.51-5.562v-0.455L0.003,45.397
						c-0.052-1.507,0.511-2.971,1.559-4.056c1.048-1.085,2.492-1.697,4-1.697h4.451c3,0,5.459,2.379,5.559,5.377l0.311,9.334
						c3.486,0.421,6.377,1.996,8.101,4.463c0.04,0.057,0.078,0.114,0.115,0.172c4.127,6.403,2.653,19.159,2.258,22.019l-0.027,0.293
						c-0.264,2.861-2.664,5.05-5.538,5.05h-4.529c-0.759,0-1.501-0.155-2.183-0.446c-0.837,0.481-1.793,0.742-2.776,0.742
						C11.284,86.649,6.721,86.607,6.721,86.607z"/>
					<path fill="#FFFFFF" d="M36.366,87.2c-1.809,0-3.553-0.283-5.489-0.889c-7.29-2.257-9.917-11.085-9.267-18.33
						c0.604-8.112,5.137-13.849,11.545-14.548c0.756-0.092,1.499-0.138,2.208-0.138c5.197,0,8.128,2.391,9.688,4.446
						c2.885,3.609,2.921,8.219,2.8,10.046c-0.024,0.377-0.088,0.751-0.188,1.116l-0.117,0.424c-0.162,0.583-0.413,1.125-0.736,1.608
						c0.4,0.719,0.641,1.526,0.692,2.364l0.039,0.634c0.108,1.461,0.176,3.306-0.229,5.1C46.48,83.117,42.49,87.2,36.366,87.2z"/>
					<path fill="#FFFFFF" d="M53.987,85.965c-2.39,0-4.709-0.74-6.893-2.2c-5.229-3.407-6.735-13.12-4.785-19.683
						c1.686-5.675,5.894-9.063,11.256-9.063c0.073,0,0.147,0.001,0.223,0.002c0.938-0.669,2.067-1.034,3.229-1.034
						c0.088,0,0.176,0.002,0.264,0.006l5.35,0.254c2.921,0.139,5.235,2.515,5.297,5.438l0.429,20.268
						c0.032,1.515-0.555,2.977-1.625,4.048c-1.044,1.045-2.461,1.631-3.936,1.631c-0.037,0-4.327-0.085-4.327-0.085
						c-0.354-0.007-0.698-0.047-1.034-0.118C56.42,85.753,55.267,85.965,53.987,85.965z"/>
					<path fill="#FFFFFF" d="M69.518,86.226c-2.972-0.036-5.39-2.403-5.49-5.374l-1.171-34.611c-0.051-1.507,0.512-2.97,1.56-4.054
						s2.491-1.696,3.999-1.696h3.943c3.03,0,5.503,2.426,5.561,5.456L78.583,80.6c0.029,1.505-0.553,2.958-1.614,4.026
						c-1.045,1.052-2.466,1.643-3.946,1.643C73,86.269,69.518,86.226,69.518,86.226z"/>
					<path fill="#FFFFFF" d="M87.351,86.819c-1.794,0-3.653-0.463-5.683-1.416c-0.058-0.027-0.115-0.056-0.172-0.084
						c-1.934-0.991-7.55-3.871-7.274-24.204c-0.382-0.265-0.732-0.579-1.041-0.938c-0.973-1.128-1.452-2.6-1.331-4.084l0.391-4.781
						c0.135-1.65,0.979-3.079,2.215-4.002l-0.006-0.236c-0.071-3.002,2.252-5.519,5.25-5.686l4.529-0.253
						c0.104-0.006,0.208-0.009,0.311-0.009c1.403,0,2.759,0.531,3.791,1.492c1.095,1.02,1.732,2.438,1.77,3.933
						c2.243,0.717,3.867,2.818,3.867,5.299v4.484c0,2.452-1.594,4.559-3.838,5.289c0.003,0.754,0.015,1.475,0.032,2.159
						c0,0,2.851-0.062,2.891-0.062c1.453,0,2.85,0.568,3.89,1.586c1.069,1.046,1.672,2.479,1.672,3.976v0.465
						C98.487,85.16,90.695,86.819,87.351,86.819z"/>
					<path fill="#FFFFFF" d="M98.229,86.607c-3.052-0.028-5.51-2.51-5.51-5.562v-0.455l-1.208-35.193
						c-0.052-1.507,0.511-2.971,1.559-4.056c1.048-1.085,2.492-1.697,4-1.697h4.451c3,0,5.459,2.379,5.559,5.377l0.311,9.334
						c3.486,0.421,6.377,1.996,8.101,4.463c0.04,0.057,0.078,0.114,0.115,0.172c4.127,6.403,2.653,19.159,2.258,22.019l-0.027,0.293
						c-0.264,2.861-2.664,5.05-5.538,5.05h-4.529c-0.759,0-1.501-0.155-2.183-0.446c-0.837,0.482-1.793,0.742-2.776,0.742
						C102.793,86.649,98.229,86.607,98.229,86.607z"/>
					<path fill="#FFFFFF" d="M122.686,94.781c-3.491,0-5.707-1.539-6.951-2.831c-2.728-2.832-3.772-7.243-3.492-14.751
						c0.053-1.405,0.623-2.672,1.523-3.621c-3.115-5.125-2.396-11.362-2.073-14.169c0.036-0.321,0.071-0.588,0.083-0.787
						c0.17-2.856,2.482-5.196,5.342-5.307l3.28-0.127c0.071-0.003,0.144-0.004,0.215-0.004c0.641,0,1.27,0.11,1.862,0.321
						c0.47-0.127,0.959-0.194,1.456-0.194c0.035,0,4.558,0.086,4.558,0.086c2.938,0.056,5.326,2.39,5.45,5.327
						c0.013,0.301,0.31,7.461,0.076,14.9c-0.381,12.146-1.639,19.02-7.187,20.564c-0.048,0.013-0.097,0.026-0.145,0.038
						C125.169,94.605,123.898,94.781,122.686,94.781z"/>
				</g>
				<g>
					<path fill="#FFFFFF" d="M6.721,86.607c-3.052-0.028-5.51-2.51-5.51-5.562v-0.455L0.003,45.397
						c-0.052-1.507,0.511-2.971,1.559-4.056c1.048-1.085,2.492-1.697,4-1.697h4.451c3,0,5.459,2.379,5.559,5.377l0.311,9.334
						c3.486,0.421,6.377,1.996,8.101,4.463c0.04,0.057,0.078,0.114,0.115,0.172c4.127,6.403,2.653,19.159,2.258,22.019l-0.027,0.293
						c-0.264,2.861-2.664,5.05-5.538,5.05h-4.529c-0.759,0-1.501-0.155-2.183-0.446c-0.837,0.481-1.793,0.742-2.776,0.742
						C11.284,86.649,6.721,86.607,6.721,86.607z"/>
					<path fill="#FFFFFF" d="M36.366,87.2c-1.809,0-3.553-0.283-5.489-0.889c-7.29-2.257-9.917-11.085-9.267-18.33
						c0.604-8.112,5.137-13.849,11.545-14.548c0.756-0.092,1.499-0.138,2.208-0.138c5.197,0,8.128,2.391,9.688,4.446
						c2.885,3.609,2.921,8.219,2.8,10.046c-0.024,0.377-0.088,0.751-0.188,1.116l-0.117,0.424c-0.162,0.583-0.413,1.125-0.736,1.608
						c0.4,0.719,0.641,1.526,0.692,2.364l0.039,0.634c0.108,1.461,0.176,3.306-0.229,5.1C46.48,83.117,42.49,87.2,36.366,87.2z"/>
					<path fill="#FFFFFF" d="M53.987,85.965c-2.39,0-4.709-0.74-6.893-2.2c-5.229-3.407-6.735-13.12-4.785-19.683
						c1.686-5.675,5.894-9.063,11.256-9.063c0.073,0,0.147,0.001,0.223,0.002c0.938-0.669,2.067-1.034,3.229-1.034
						c0.088,0,0.176,0.002,0.264,0.006l5.35,0.254c2.921,0.139,5.235,2.515,5.297,5.438l0.429,20.268
						c0.032,1.515-0.555,2.977-1.625,4.048c-1.044,1.045-2.461,1.631-3.936,1.631c-0.037,0-4.327-0.085-4.327-0.085
						c-0.354-0.007-0.698-0.047-1.034-0.118C56.42,85.753,55.267,85.965,53.987,85.965z"/>
					<path fill="#FFFFFF" d="M69.518,86.226c-2.972-0.036-5.39-2.403-5.49-5.374l-1.171-34.611c-0.051-1.507,0.512-2.97,1.56-4.054
						s2.491-1.696,3.999-1.696h3.943c3.03,0,5.503,2.426,5.561,5.456L78.583,80.6c0.029,1.505-0.553,2.958-1.614,4.026
						c-1.045,1.052-2.466,1.643-3.946,1.643C73,86.269,69.518,86.226,69.518,86.226z"/>
					<path fill="#FFFFFF" d="M87.351,86.819c-1.794,0-3.653-0.463-5.683-1.416c-0.058-0.027-0.115-0.056-0.172-0.084
						c-1.934-0.991-7.55-3.871-7.274-24.204c-0.382-0.265-0.732-0.579-1.041-0.938c-0.973-1.128-1.452-2.6-1.331-4.084l0.391-4.781
						c0.135-1.65,0.979-3.079,2.215-4.002l-0.006-0.236c-0.071-3.002,2.252-5.519,5.25-5.686l4.529-0.253
						c0.104-0.006,0.208-0.009,0.311-0.009c1.403,0,2.759,0.531,3.791,1.492c1.095,1.02,1.732,2.438,1.77,3.933
						c2.243,0.717,3.867,2.818,3.867,5.299v4.484c0,2.452-1.594,4.559-3.838,5.289c0.003,0.754,0.015,1.475,0.032,2.159
						c0,0,2.851-0.062,2.891-0.062c1.453,0,2.85,0.568,3.89,1.586c1.069,1.046,1.672,2.479,1.672,3.976v0.465
						C98.487,85.16,90.695,86.819,87.351,86.819z"/>
					<path fill="#FFFFFF" d="M98.229,86.607c-3.052-0.028-5.51-2.51-5.51-5.562v-0.455l-1.208-35.193
						c-0.052-1.507,0.511-2.971,1.559-4.056c1.048-1.085,2.492-1.697,4-1.697h4.451c3,0,5.459,2.379,5.559,5.377l0.311,9.334
						c3.486,0.421,6.377,1.996,8.101,4.463c0.04,0.057,0.078,0.114,0.115,0.172c4.127,6.403,2.653,19.159,2.258,22.019l-0.027,0.293
						c-0.264,2.861-2.664,5.05-5.538,5.05h-4.529c-0.759,0-1.501-0.155-2.183-0.446c-0.837,0.482-1.793,0.742-2.776,0.742
						C102.793,86.649,98.229,86.607,98.229,86.607z"/>
					<path fill="#FFFFFF" d="M122.686,94.781c-3.491,0-5.707-1.539-6.951-2.831c-2.728-2.832-3.772-7.243-3.492-14.751
						c0.053-1.405,0.623-2.672,1.523-3.621c-3.115-5.125-2.396-11.362-2.073-14.169c0.036-0.321,0.071-0.588,0.083-0.787
						c0.17-2.856,2.482-5.196,5.342-5.307l3.28-0.127c0.071-0.003,0.144-0.004,0.215-0.004c0.641,0,1.27,0.11,1.862,0.321
						c0.47-0.127,0.959-0.194,1.456-0.194c0.035,0,4.558,0.086,4.558,0.086c2.938,0.056,5.326,2.39,5.45,5.327
						c0.013,0.301,0.31,7.461,0.076,14.9c-0.381,12.146-1.639,19.02-7.187,20.564c-0.048,0.013-0.097,0.026-0.145,0.038
						C125.169,94.605,123.898,94.781,122.686,94.781z"/>
				</g>
			</g>
		</g>
		<g>
			<g>
				<g>
					<path fill="#202933" d="M27.515,41.032l-0.107,0.385l-10.044,0.423c-0.391,2.692-0.178,4.731,0.745,6.154
						c0.746,1.116,2.059,1.847,3.834,2.154c0.709,0.077,1.277-0.153,1.597-0.577c0.497-0.615,0.461-1.577,0.426-1.885l-0.035-0.577
						l3.265-0.423l0.036,0.577c0.035,0.5,0.177,2.077-0.106,3.27c-0.213,1.154-1.598,3.424-5.005,3.424
						c-1.064,0-2.129-0.154-3.478-0.577c-3.728-1.154-5.324-6.654-4.898-11.387c0.284-3.808,1.987-8.231,6.034-8.654
						c2.804-0.347,4.969,0.269,6.246,2C27.728,37.416,27.55,40.493,27.515,41.032z"/>
					<path fill="#202933" d="M46.145,52.534l-3.833-0.077l-0.249-1.27c0,0-3.123,3.347-7.382,0.5
						c-4.188-2.731-4.969-20.426,6.211-16.233v-1.577l4.862,0.23L46.145,52.534z"/>
					<path fill="#202933" d="M64.455,42.724v0.423c-0.071,8.617-2.84,10.463-5.182,10.463c-0.923,0-1.952-0.308-3.018-0.808
						c-4.578-2.347-3.868-18.733-3.727-21.503l-2.307-0.154l0.354-4.347l2.13,0.077l-0.106-4.462l4.117-0.231l0.07,4.693h3.443
						v4.077l-3.407,0.309c-0.249,6.424,0,16.349,2.094,16.771c0.639,0.115,1.136-0.077,1.491-0.423
						c0.922-1.231,0.567-4.271,0.567-4.309l-0.035-0.5L64.455,42.724z"/>
				</g>
				<g>
					<g>
						<path fill="#202933" d="M27.515,41.032l-0.107,0.385l-10.044,0.423c-0.391,2.692-0.178,4.731,0.745,6.154
							c0.746,1.116,2.059,1.847,3.834,2.154c0.709,0.077,1.277-0.153,1.597-0.577c0.497-0.615,0.461-1.577,0.426-1.885l-0.035-0.577
							l3.265-0.423l0.036,0.577c0.035,0.5,0.177,2.077-0.106,3.27c-0.213,1.154-1.598,3.424-5.005,3.424
							c-1.064,0-2.129-0.154-3.478-0.577c-3.728-1.154-5.324-6.654-4.898-11.387c0.284-3.808,1.987-8.231,6.034-8.654
							c2.804-0.347,4.969,0.269,6.246,2C27.728,37.416,27.55,40.493,27.515,41.032z"/>
						<path fill="#202933" d="M46.145,52.534l-3.833-0.077l-0.249-1.27c0,0-3.123,3.347-7.382,0.5
							c-4.188-2.731-4.969-20.426,6.211-16.233v-1.577l4.862,0.23L46.145,52.534z"/>
						<path fill="#202933" d="M64.455,42.724v0.423c-0.071,8.617-2.84,10.463-5.182,10.463c-0.923,0-1.952-0.308-3.018-0.808
							c-4.578-2.347-3.868-18.733-3.727-21.503l-2.307-0.154l0.354-4.347l2.13,0.077l-0.106-4.462l4.117-0.231l0.07,4.693h3.443
							v4.077l-3.407,0.309c-0.249,6.424,0,16.349,2.094,16.771c0.639,0.115,1.136-0.077,1.491-0.423
							c0.922-1.231,0.567-4.271,0.567-4.309l-0.035-0.5L64.455,42.724z"/>
					</g>
				</g>
				<g>
					<g>
						<path fill="#202933" d="M27.515,41.032l-0.107,0.385l-10.044,0.423c-0.391,2.692-0.178,4.731,0.745,6.154
							c0.746,1.116,2.059,1.847,3.834,2.154c0.709,0.077,1.277-0.153,1.597-0.577c0.497-0.615,0.461-1.577,0.426-1.885l-0.035-0.577
							l3.265-0.423l0.036,0.577c0.035,0.5,0.177,2.077-0.106,3.27c-0.213,1.154-1.598,3.424-5.005,3.424
							c-1.064,0-2.129-0.154-3.478-0.577c-3.728-1.154-5.324-6.654-4.898-11.387c0.284-3.808,1.987-8.231,6.034-8.654
							c2.804-0.347,4.969,0.269,6.246,2C27.728,37.416,27.55,40.493,27.515,41.032z"/>
						<path fill="#202933" d="M46.145,52.534l-3.833-0.077l-0.249-1.27c0,0-3.123,3.347-7.382,0.5
							c-4.188-2.731-4.969-20.426,6.211-16.233v-1.577l4.862,0.23L46.145,52.534z"/>
						<path fill="#202933" d="M64.455,42.724v0.423c-0.071,8.617-2.84,10.463-5.182,10.463c-0.923,0-1.952-0.308-3.018-0.808
							c-4.578-2.347-3.868-18.733-3.727-21.503l-2.307-0.154l0.354-4.347l2.13,0.077l-0.106-4.462l4.117-0.231l0.07,4.693h3.443
							v4.077l-3.407,0.309c-0.249,6.424,0,16.349,2.094,16.771c0.639,0.115,1.136-0.077,1.491-0.423
							c0.922-1.231,0.567-4.271,0.567-4.309l-0.035-0.5L64.455,42.724z"/>
					</g>
				</g>
			</g>
			<g>
				<g>
					<path fill="#202933" d="M20.829,80.369l-0.039,0.423h-4.529l0.078-0.593c0-0.042,0.78-5.924,0.391-10.916
						c-0.234-2.454-1.211-3.936-2.694-3.936c-0.859,0-1.758,0.466-2.46,1.312c-0.586,0.72-0.625,7.574-0.313,13.837l0.039,0.592
						l-4.529-0.042v-0.55L5.562,45.207h4.451l0.508,15.274c0.898-0.507,2.304-0.677,3.437-0.677c2.499,0,4.49,0.804,5.466,2.2
						C22.586,66.913,20.907,79.818,20.829,80.369z"/>
					<path fill="#202933" d="M42.301,67.42l-0.117,0.424l-11.05,0.465c-0.43,2.962-0.195,5.205,0.819,6.771
						c0.82,1.227,2.265,2.03,4.218,2.369c0.78,0.085,1.405-0.169,1.757-0.635c0.547-0.677,0.508-1.734,0.469-2.073l-0.039-0.635
						l3.592-0.465l0.039,0.634c0.039,0.551,0.195,2.285-0.117,3.597c-0.233,1.27-1.757,3.767-5.505,3.767
						c-1.172,0-2.343-0.17-3.827-0.635c-4.1-1.27-5.856-7.32-5.389-12.524c0.313-4.189,2.187-9.056,6.639-9.521
						c3.084-0.381,5.466,0.296,6.872,2.2C42.535,63.443,42.34,66.829,42.301,67.42z"/>
					<path fill="#202933" d="M62.796,80.072l-4.217-0.084l-0.273-1.396c0,0-3.436,3.681-8.121,0.55
						c-4.608-3.004-5.467-22.468,6.833-17.855V59.55l5.35,0.254L62.796,80.072z"/>
					<path fill="#202933" d="M72.358,46.053l0.664,34.653l-3.437-0.042l-1.171-34.611H72.358z"/>
					<path fill="#202933" d="M93.052,69.283v0.465c-0.078,9.479-3.124,11.51-5.701,11.51c-1.015,0-2.147-0.339-3.318-0.889
						c-5.037-2.581-4.257-20.606-4.101-23.653l-2.538-0.169l0.391-4.781l2.343,0.085l-0.117-4.909l4.529-0.253l0.078,5.162h3.788
						v4.484l-3.749,0.339c-0.273,7.066,0,17.982,2.304,18.448c0.703,0.127,1.25-0.085,1.641-0.466
						c1.015-1.354,0.624-4.696,0.624-4.738l-0.039-0.551L93.052,69.283z"/>
					<path fill="#202933" d="M112.338,80.369l-0.039,0.423h-4.529l0.078-0.593c0-0.042,0.78-5.924,0.391-10.916
						c-0.234-2.454-1.211-3.936-2.694-3.936c-0.859,0-1.758,0.466-2.46,1.312c-0.586,0.72-0.625,7.574-0.313,13.837l0.039,0.592
						l-4.529-0.042v-0.55L97.07,45.207h4.451l0.508,15.274c0.898-0.507,2.304-0.677,3.437-0.677c2.499,0,4.49,0.804,5.466,2.2
						C114.095,66.913,112.416,79.818,112.338,80.369z"/>
					<path fill="#202933" d="M120.612,58.747c0,0-0.664,7.362,1.249,7.531c1.835,0.254,2.421-5.797,2.069-7.404l4.451,0.085
						c0,0,1.211,28.688-3.045,29.872c-4.92,1.228-7.966,0.085-7.536-11.424h2.967c0,0-0.468,6.643,1.836,6.939
						c3.631,0.761,2.772-7.828,2.733-12.736c0,0-3.476,3.427-6.17,0c-3.397-4.231-1.913-10.917-1.835-12.736L120.612,58.747z"/>
				</g>
				<g>
					<g>
						<path fill="#202933" d="M20.829,80.369l-0.039,0.423h-4.529l0.078-0.593c0-0.042,0.78-5.924,0.391-10.916
							c-0.234-2.454-1.211-3.936-2.694-3.936c-0.859,0-1.758,0.466-2.46,1.312c-0.586,0.72-0.625,7.574-0.313,13.837l0.039,0.592
							l-4.529-0.042v-0.55L5.562,45.207h4.451l0.508,15.274c0.898-0.507,2.304-0.677,3.437-0.677c2.499,0,4.49,0.804,5.466,2.2
							C22.586,66.913,20.907,79.818,20.829,80.369z"/>
						<path fill="#202933" d="M42.301,67.42l-0.117,0.424l-11.05,0.465c-0.43,2.962-0.195,5.205,0.819,6.771
							c0.82,1.227,2.265,2.03,4.218,2.369c0.78,0.085,1.405-0.169,1.757-0.635c0.547-0.677,0.508-1.734,0.469-2.073l-0.039-0.635
							l3.592-0.465l0.039,0.634c0.039,0.551,0.195,2.285-0.117,3.597c-0.233,1.27-1.757,3.767-5.505,3.767
							c-1.172,0-2.343-0.17-3.827-0.635c-4.1-1.27-5.856-7.32-5.389-12.524c0.313-4.189,2.187-9.056,6.639-9.521
							c3.084-0.381,5.466,0.296,6.872,2.2C42.535,63.443,42.34,66.829,42.301,67.42z"/>
						<path fill="#202933" d="M62.796,80.072l-4.217-0.084l-0.273-1.396c0,0-3.436,3.681-8.121,0.55
							c-4.608-3.004-5.467-22.468,6.833-17.855V59.55l5.35,0.254L62.796,80.072z"/>
						<path fill="#202933" d="M72.358,46.053l0.664,34.653l-3.437-0.042l-1.171-34.611H72.358z"/>
						<path fill="#202933" d="M93.052,69.283v0.465c-0.078,9.479-3.124,11.51-5.701,11.51c-1.015,0-2.147-0.339-3.318-0.889
							c-5.037-2.581-4.257-20.606-4.101-23.653l-2.538-0.169l0.391-4.781l2.343,0.085l-0.117-4.909l4.529-0.253l0.078,5.162h3.788
							v4.484l-3.749,0.339c-0.273,7.066,0,17.982,2.304,18.448c0.703,0.127,1.25-0.085,1.641-0.466
							c1.015-1.354,0.624-4.696,0.624-4.738l-0.039-0.551L93.052,69.283z"/>
						<path fill="#202933" d="M112.338,80.369l-0.039,0.423h-4.529l0.078-0.593c0-0.042,0.78-5.924,0.391-10.916
							c-0.234-2.454-1.211-3.936-2.694-3.936c-0.859,0-1.758,0.466-2.46,1.312c-0.586,0.72-0.625,7.574-0.313,13.837l0.039,0.592
							l-4.529-0.042v-0.55L97.07,45.207h4.451l0.508,15.274c0.898-0.507,2.304-0.677,3.437-0.677c2.499,0,4.49,0.804,5.466,2.2
							C114.095,66.913,112.416,79.818,112.338,80.369z"/>
						<path fill="#202933" d="M120.612,58.747c0,0-0.664,7.362,1.249,7.531c1.835,0.254,2.421-5.797,2.069-7.404l4.451,0.085
							c0,0,1.211,28.688-3.045,29.872c-4.92,1.228-7.966,0.085-7.536-11.424h2.967c0,0-0.468,6.643,1.836,6.939
							c3.631,0.761,2.772-7.828,2.733-12.736c0,0-3.476,3.427-6.17,0c-3.397-4.231-1.913-10.917-1.835-12.736L120.612,58.747z"/>
					</g>
				</g>
				<g>
					<g>
						<path fill="#202933" d="M20.829,80.369l-0.039,0.423h-4.529l0.078-0.593c0-0.042,0.78-5.924,0.391-10.916
							c-0.234-2.454-1.211-3.936-2.694-3.936c-0.859,0-1.758,0.466-2.46,1.312c-0.586,0.72-0.625,7.574-0.313,13.837l0.039,0.592
							l-4.529-0.042v-0.55L5.562,45.207h4.451l0.508,15.274c0.898-0.507,2.304-0.677,3.437-0.677c2.499,0,4.49,0.804,5.466,2.2
							C22.586,66.913,20.907,79.818,20.829,80.369z"/>
						<path fill="#202933" d="M42.301,67.42l-0.117,0.424l-11.05,0.465c-0.43,2.962-0.195,5.205,0.819,6.771
							c0.82,1.227,2.265,2.03,4.218,2.369c0.78,0.085,1.405-0.169,1.757-0.635c0.547-0.677,0.508-1.734,0.469-2.073l-0.039-0.635
							l3.592-0.465l0.039,0.634c0.039,0.551,0.195,2.285-0.117,3.597c-0.233,1.27-1.757,3.767-5.505,3.767
							c-1.172,0-2.343-0.17-3.827-0.635c-4.1-1.27-5.856-7.32-5.389-12.524c0.313-4.189,2.187-9.056,6.639-9.521
							c3.084-0.381,5.466,0.296,6.872,2.2C42.535,63.443,42.34,66.829,42.301,67.42z"/>
						<path fill="#202933" d="M62.796,80.072l-4.217-0.084l-0.273-1.396c0,0-3.436,3.681-8.121,0.55
							c-4.608-3.004-5.467-22.468,6.833-17.855V59.55l5.35,0.254L62.796,80.072z"/>
						<path fill="#202933" d="M72.358,46.053l0.664,34.653l-3.437-0.042l-1.171-34.611H72.358z"/>
						<path fill="#202933" d="M93.052,69.283v0.465c-0.078,9.479-3.124,11.51-5.701,11.51c-1.015,0-2.147-0.339-3.318-0.889
							c-5.037-2.581-4.257-20.606-4.101-23.653l-2.538-0.169l0.391-4.781l2.343,0.085l-0.117-4.909l4.529-0.253l0.078,5.162h3.788
							v4.484l-3.749,0.339c-0.273,7.066,0,17.982,2.304,18.448c0.703,0.127,1.25-0.085,1.641-0.466
							c1.015-1.354,0.624-4.696,0.624-4.738l-0.039-0.551L93.052,69.283z"/>
						<path fill="#202933" d="M112.338,80.369l-0.039,0.423h-4.529l0.078-0.593c0-0.042,0.78-5.924,0.391-10.916
							c-0.234-2.454-1.211-3.936-2.694-3.936c-0.859,0-1.758,0.466-2.46,1.312c-0.586,0.72-0.625,7.574-0.313,13.837l0.039,0.592
							l-4.529-0.042v-0.55L97.07,45.207h4.451l0.508,15.274c0.898-0.507,2.304-0.677,3.437-0.677c2.499,0,4.49,0.804,5.466,2.2
							C114.095,66.913,112.416,79.818,112.338,80.369z"/>
						<path fill="#202933" d="M120.612,58.747c0,0-0.664,7.362,1.249,7.531c1.835,0.254,2.421-5.797,2.069-7.404l4.451,0.085
							c0,0,1.211,28.688-3.045,29.872c-4.92,1.228-7.966,0.085-7.536-11.424h2.967c0,0-0.468,6.643,1.836,6.939
							c3.631,0.761,2.772-7.828,2.733-12.736c0,0-3.476,3.427-6.17,0c-3.397-4.231-1.913-10.917-1.835-12.736L120.612,58.747z"/>
					</g>
				</g>
			</g>
		</g>
		<g>
			<g>
				<g>
					<path fill="#6F8412" d="M27.515,41.032l-0.107,0.385l-10.044,0.423c-0.391,2.692-0.178,4.731,0.745,6.154
						c0.746,1.116,2.059,1.847,3.834,2.154c0.709,0.077,1.277-0.153,1.597-0.577c0.497-0.615,0.461-1.577,0.426-1.885l-0.035-0.577
						l3.265-0.423l0.036,0.577c0.035,0.5,0.177,2.077-0.106,3.27c-0.213,1.154-1.598,3.424-5.005,3.424
						c-1.064,0-2.129-0.154-3.478-0.577c-3.728-1.154-5.324-6.654-4.898-11.387c0.284-3.808,1.987-8.231,6.034-8.654
						c2.804-0.347,4.969,0.269,6.246,2C27.728,37.416,27.55,40.493,27.515,41.032z"/>
					<path fill="#6F8412" d="M46.145,52.534l-3.833-0.077l-0.249-1.27c0,0-3.123,3.347-7.382,0.5
						c-4.188-2.731-4.969-20.426,6.211-16.233v-1.577l4.862,0.23L46.145,52.534z"/>
					<path fill="#6F8412" d="M64.455,42.724v0.423c-0.071,8.617-2.84,10.463-5.182,10.463c-0.923,0-1.952-0.308-3.018-0.808
						c-4.578-2.347-3.868-18.733-3.727-21.503l-2.307-0.154l0.354-4.347l2.13,0.077l-0.106-4.462l4.117-0.231l0.07,4.693h3.443
						v4.077l-3.407,0.309c-0.249,6.424,0,16.349,2.094,16.771c0.639,0.115,1.136-0.077,1.491-0.423
						c0.922-1.231,0.567-4.271,0.567-4.309l-0.035-0.5L64.455,42.724z"/>
				</g>
			</g>
			<g>
				<g>
					<path fill="#6F8412" d="M20.829,80.369l-0.039,0.423h-4.529l0.078-0.593c0-0.042,0.78-5.924,0.391-10.916
						c-0.234-2.454-1.211-3.936-2.694-3.936c-0.859,0-1.758,0.466-2.46,1.312c-0.586,0.72-0.625,7.574-0.313,13.837l0.039,0.592
						l-4.529-0.042v-0.55L5.562,45.207h4.451l0.508,15.274c0.898-0.507,2.304-0.677,3.437-0.677c2.499,0,4.49,0.804,5.466,2.2
						C22.586,66.913,20.907,79.818,20.829,80.369z"/>
					<path fill="#6F8412" d="M42.301,67.42l-0.117,0.424l-11.05,0.465c-0.43,2.962-0.195,5.205,0.819,6.771
						c0.82,1.227,2.265,2.03,4.218,2.369c0.78,0.085,1.405-0.169,1.757-0.635c0.547-0.677,0.508-1.734,0.469-2.073l-0.039-0.635
						l3.592-0.465l0.039,0.634c0.039,0.551,0.195,2.285-0.117,3.597c-0.233,1.27-1.757,3.767-5.505,3.767
						c-1.172,0-2.343-0.17-3.827-0.635c-4.1-1.27-5.856-7.32-5.389-12.524c0.313-4.189,2.187-9.056,6.639-9.521
						c3.084-0.381,5.466,0.296,6.872,2.2C42.535,63.443,42.34,66.829,42.301,67.42z"/>
					<path fill="#6F8412" d="M62.796,80.072l-4.217-0.084l-0.273-1.396c0,0-3.436,3.681-8.121,0.55
						c-4.608-3.004-5.467-22.468,6.833-17.855V59.55l5.35,0.254L62.796,80.072z"/>
					<path fill="#6F8412" d="M72.358,46.053l0.664,34.653l-3.437-0.042l-1.171-34.611H72.358z"/>
					<path fill="#6F8412" d="M93.052,69.283v0.465c-0.078,9.479-3.124,11.51-5.701,11.51c-1.015,0-2.147-0.339-3.318-0.889
						c-5.037-2.581-4.257-20.606-4.101-23.653l-2.538-0.169l0.391-4.781l2.343,0.085l-0.117-4.909l4.529-0.253l0.078,5.162h3.788
						v4.484l-3.749,0.339c-0.273,7.066,0,17.982,2.304,18.448c0.703,0.127,1.25-0.085,1.641-0.466
						c1.015-1.354,0.624-4.696,0.624-4.738l-0.039-0.551L93.052,69.283z"/>
					<path fill="#6F8412" d="M112.338,80.369l-0.039,0.423h-4.529l0.078-0.593c0-0.042,0.78-5.924,0.391-10.916
						c-0.234-2.454-1.211-3.936-2.694-3.936c-0.859,0-1.758,0.466-2.46,1.312c-0.586,0.72-0.625,7.574-0.313,13.837l0.039,0.592
						l-4.529-0.042v-0.55L97.07,45.207h4.451l0.508,15.274c0.898-0.507,2.304-0.677,3.437-0.677c2.499,0,4.49,0.804,5.466,2.2
						C114.095,66.913,112.416,79.818,112.338,80.369z"/>
					<path fill="#6F8412" d="M120.612,58.747c0,0-0.664,7.362,1.249,7.531c1.835,0.254,2.421-5.797,2.069-7.404l4.451,0.085
						c0,0,1.211,28.688-3.045,29.872c-4.92,1.228-7.966,0.085-7.536-11.424h2.967c0,0-0.468,6.643,1.836,6.939
						c3.631,0.761,2.772-7.828,2.733-12.736c0,0-3.476,3.427-6.17,0c-3.397-4.231-1.913-10.917-1.835-12.736L120.612,58.747z"/>
				</g>
			</g>
		</g>
	</g>
	<g>
		<circle fill="#D94128" cx="101.622" cy="23.012" r="13.189"/>
		<path fill="#F14B30" d="M92.078,13.908c-1.179,1.236-2.066,2.643-2.673,4.134c0.487,2.631,1.776,5.138,3.86,7.125
			c5.27,5.028,13.618,4.831,18.646-0.439c1.18-1.236,2.066-2.644,2.673-4.134c-0.488-2.63-1.776-5.138-3.86-7.125
			C105.454,8.441,97.106,8.636,92.078,13.908z"/>
		<g>
			<path fill="#6F8412" d="M107.579,19.214c-0.307,0.319-1.864-1.147-2.246-0.979c-0.396,0.177-0.363,2.311-0.79,2.32
				c-0.425,0.012-0.493-2.124-0.896-2.281c-0.39-0.149-1.877,1.39-2.196,1.085c-0.322-0.307,1.146-1.864,0.979-2.247
				c-0.177-0.394-2.313-0.36-2.322-0.788c-0.011-0.426,2.126-0.494,2.281-0.896c0.15-0.39-1.391-1.877-1.085-2.198
				c0.306-0.32,1.865,1.147,2.246,0.98c0.397-0.176,0.363-2.312,0.789-2.322c0.426-0.009,0.494,2.125,0.897,2.282
				c0.39,0.15,1.876-1.391,2.198-1.084c0.32,0.305-1.148,1.863-0.98,2.247c0.176,0.394,2.312,0.361,2.321,0.787
				c0.011,0.426-2.123,0.493-2.281,0.897C106.345,17.406,107.884,18.892,107.579,19.214z"/>
			<path fill="#849C18" d="M107.435,13.085c-0.322-0.307-1.809,1.234-2.198,1.084c-0.403-0.157-0.472-2.291-0.897-2.282
				c-0.426,0.011-0.392,2.146-0.789,2.322c-0.381,0.167-1.94-1.301-2.246-0.98c-0.306,0.321,1.235,1.809,1.085,2.198
				c-0.155,0.402-2.292,0.471-2.281,0.896c0.01,0.428,2.146,0.395,2.322,0.788c0.076,0.175-0.187,0.591-0.464,1.022
				c1.442-0.304,2.902-1.103,4.102-2.359c0.136-0.144,0.264-0.292,0.389-0.442h-0.002C106.286,14.949,107.755,13.39,107.435,13.085z
				"/>
			<path fill="#6F8412" d="M106.147,12.612c-0.285-0.208-0.602-0.338-0.924-0.39c-0.117,1.179-0.561,2.365-1.344,3.415
				c0.247,0.191,0.521,0.319,0.803,0.392C105.509,14.988,105.995,13.798,106.147,12.612z"/>
		</g>
	</g>
	<g>
		<path fill="#6F8412" d="M129.763,27.853c-0.141,0.396-0.235,0.796-0.307,1.2c0.508,0.274,1.039,0.525,1.605,0.727
			c5.176,1.871,10.664-0.186,12.254-4.59c0.143-0.396,0.237-0.798,0.311-1.201c-0.508-0.275-1.041-0.525-1.607-0.729
			C136.843,21.39,131.354,23.448,129.763,27.853z"/>
		<path fill="#849C18" d="M143.315,25.19c0.14-0.391,0.234-0.786,0.306-1.183c-5.111,0.984-10.933,3.055-14.162,5.026
			c-0.001,0.006-0.003,0.013-0.003,0.02c0.508,0.274,1.039,0.525,1.605,0.727C136.237,31.651,141.726,29.594,143.315,25.19z"/>
	</g>
	<g>
		<g>
			<path fill="#6F8412" d="M113.474,42.145c-1.45-0.486-1.65-0.084-0.391,0.782c2.978,2.055,6.124,3.935,9.341,5.586
				c1.369,0.676,2.453,0.569,2.737-0.017c0.012-0.022,0.023-0.043,0.032-0.065c0.296-0.58-0.272-1.508-1.637-2.194
				C120.303,44.664,116.907,43.282,113.474,42.145z"/>
			<circle fill="#6F8412" cx="122.795" cy="52.434" r="1.579"/>
			<circle fill="#6F8412" cx="127.438" cy="52.224" r="1.58"/>
			<path fill="#6F8412" d="M129.146,46.268c-0.78-0.39-1.729-0.07-2.119,0.709c-0.389,0.78-0.071,1.729,0.71,2.118
				c0.778,0.39,1.729,0.072,2.118-0.708C130.244,47.605,129.926,46.656,129.146,46.268z"/>
			<circle fill="#6F8412" cx="127.003" cy="48.919" r="2.2"/>
			<circle fill="#6F8412" cx="122.363" cy="49.886" r="2.652"/>
			<circle fill="#6F8412" cx="125.368" cy="50.815" r="2.651"/>
			<circle fill="#6F8412" cx="124.757" cy="46.98" r="2.652"/>
		</g>
		<g>
			<path fill="#849C18" d="M109.35,42.509c-1.316-0.777-1.596-0.425-0.544,0.685c2.48,2.63,5.168,5.125,7.968,7.411
				c1.198,0.947,2.281,1.069,2.683,0.557c0.016-0.019,0.029-0.038,0.042-0.057c0.412-0.506,0.05-1.532-1.14-2.489
				C115.503,46.399,112.471,44.338,109.35,42.509z"/>
			<path fill="#849C18" d="M117.808,53.533c-0.682-0.542-1.676-0.431-2.22,0.252s-0.43,1.676,0.253,2.22
				c0.682,0.542,1.674,0.431,2.22-0.252C118.601,55.071,118.49,54.076,117.808,53.533z"/>
			<circle fill="#849C18" cx="121.708" cy="54.171" r="1.579"/>
			<circle fill="#849C18" cx="122.833" cy="51.049" r="1.58"/>
			<circle fill="#849C18" cx="121.168" cy="51.959" r="2.201"/>
			<path fill="#849C18" d="M118.08,49.861c-1.146-0.912-2.813-0.724-3.727,0.424c-0.913,1.145-0.721,2.813,0.425,3.725
				c1.144,0.913,2.811,0.724,3.725-0.423C119.413,52.442,119.226,50.772,118.08,49.861z"/>
			<circle fill="#849C18" cx="119.172" cy="53.471" r="2.652"/>
			<circle fill="#849C18" cx="119.375" cy="49.593" r="2.651"/>
		</g>
		<g>
			<path fill="#849C18" d="M109.812,39.559c-1.412-0.584-1.3-1.02,0.219-0.847c3.595,0.396,7.204,1.039,10.715,1.896
				c1.479,0.388,2.229,1.177,2.06,1.805c-0.005,0.026-0.012,0.049-0.018,0.071c-0.157,0.633-1.195,0.961-2.675,0.587
				C116.621,42.128,113.151,40.947,109.812,39.559z"/>
			<circle fill="#849C18" cx="124.1" cy="38.143" r="1.579"/>
			<circle fill="#849C18" cx="126.565" cy="42.402" r="1.58"/>
			<circle fill="#849C18" cx="124.748" cy="45.178" r="1.58"/>
			<circle fill="#849C18" cx="124.474" cy="43.302" r="2.2"/>
			<circle fill="#849C18" cx="121.601" cy="39.533" r="2.652"/>
			<circle fill="#849C18" cx="124.478" cy="40.799" r="2.652"/>
			<circle fill="#849C18" cx="121.503" cy="43.296" r="2.651"/>
		</g>
		<g>
			<path fill="#FBA70E" d="M85.724,27.616c-3.57-1.056-4.042-0.105-1.05,2.109l21.3,15.766c2.993,2.214,6.8,1.301,8.461-2.031
				l0.179-0.355c1.659-3.332,0.096-6.923-3.475-7.979L85.724,27.616z"/>
			<path fill="#E39709" d="M114.613,43.104l-0.094,0.188L82.737,27.457c0.176-0.394,1.188-0.374,2.986,0.159l25.415,7.51
				C114.709,36.181,116.272,39.772,114.613,43.104z"/>
			<g>
				<defs>
					<path id="SVGID_1_" d="M85.724,27.616c-3.57-1.056-4.042-0.105-1.05,2.109l21.3,15.766c2.993,2.214,6.8,1.301,8.461-2.031
						l0.179-0.355c1.659-3.332,0.096-6.923-3.475-7.979L85.724,27.616z"/>
				</defs>
				<clipPath id="SVGID_2_">
					<use xlink:href="#SVGID_1_"  overflow="visible"/>
				</clipPath>
				<g clip-path="url(#SVGID_2_)">
					<path fill="#FBA70E" d="M110.435,35.697c-1.467,3.365-1.191,3.504,0.614,0.307l12.842-22.758
						c1.804-3.198,2.484-6.211,1.515-6.695l-0.104-0.05c-0.97-0.483-2.964,1.873-4.432,5.239L110.435,35.697z"/>
					<path fill="#FBA70E" d="M99.731,31.625c-1.465,3.366-1.19,3.503,0.615,0.306l12.84-22.757c1.806-3.199,2.485-6.21,1.516-6.694
						l-0.104-0.052c-0.973-0.484-2.965,1.875-4.432,5.241L99.731,31.625z"/>
					<path fill="#FBA70E" d="M93.973,29.259c-1.464,3.366-1.187,3.505,0.617,0.307l12.842-22.758
						c1.803-3.197,2.485-6.209,1.514-6.692l-0.104-0.053c-0.97-0.483-2.966,1.876-4.431,5.241L93.973,29.259z"/>
					<path fill="#E39709" d="M102.919,39.896c1.806-3.196,2.081-3.06,0.618,0.307L93.103,64.159
						c-1.467,3.365-3.464,5.725-4.433,5.24l-0.104-0.051c-0.971-0.484-0.29-3.497,1.514-6.694L102.919,39.896z"/>
					<path fill="#E39709" d="M98.024,39.095c1.806-3.197,2.081-3.061,0.615,0.307L88.204,63.359c-1.467,3.364-3.46,5.724-4.432,5.24
						l-0.102-0.052c-0.975-0.483-0.292-3.497,1.512-6.693L98.024,39.095z"/>
					<path fill="#E39709" d="M85.954,31.947c1.805-3.198,2.081-3.061,0.614,0.306L76.134,56.208c-1.467,3.365-3.46,5.726-4.433,5.24
						l-0.103-0.051c-0.969-0.483-0.29-3.496,1.517-6.693L85.954,31.947z"/>
					<g>
						<path fill="#E39709" d="M107.535,38.02c0.196-0.291,0.263-0.26,0.147,0.074l-0.832,2.376c-0.116,0.334-0.4,0.515-0.63,0.401
							l-0.024-0.013c-0.227-0.113-0.252-0.448-0.057-0.742L107.535,38.02z"/>
						<path fill="#E39709" d="M105.173,42.765c-0.117,0.333-0.051,0.365,0.145,0.072l1.396-2.096
							c0.197-0.294,0.171-0.629-0.059-0.742l-0.023-0.012c-0.229-0.114-0.511,0.065-0.628,0.399L105.173,42.765z"/>
					</g>
					<g>
						<path fill="#E39709" d="M103.997,32.981c0.195-0.294,0.261-0.262,0.145,0.072l-0.83,2.375c-0.117,0.335-0.4,0.515-0.628,0.402
							l-0.024-0.013c-0.229-0.114-0.255-0.448-0.06-0.744L103.997,32.981z"/>
						<path fill="#E39709" d="M101.634,37.724c-0.117,0.333-0.052,0.366,0.145,0.071l1.396-2.094c0.196-0.295,0.17-0.63-0.06-0.742
							l-0.024-0.012c-0.227-0.115-0.51,0.065-0.627,0.4L101.634,37.724z"/>
					</g>
					<g>
						<path fill="#FBA70E" d="M104.011,32.952c0.176-0.256,0.242-0.225,0.145,0.072l-0.697,2.106
							c-0.097,0.296-0.365,0.444-0.592,0.33l-0.025-0.012c-0.229-0.114-0.269-0.417-0.092-0.673L104.011,32.952z"/>
						<path fill="#FBA70E" d="M101.935,37.119c-0.099,0.298-0.031,0.329,0.145,0.073l1.263-1.823
							c0.177-0.257,0.135-0.56-0.094-0.673l-0.024-0.013c-0.229-0.114-0.496,0.035-0.595,0.331L101.935,37.119z"/>
					</g>
					<g>
						<path fill="#E39709" d="M94.813,33.449c0.198-0.294,0.262-0.263,0.146,0.071l-0.832,2.377c-0.116,0.334-0.397,0.515-0.626,0.4
							l-0.024-0.014c-0.229-0.113-0.255-0.447-0.061-0.742L94.813,33.449z"/>
						<path fill="#E39709" d="M92.45,38.191c-0.117,0.334-0.053,0.367,0.146,0.073l1.397-2.096c0.195-0.294,0.169-0.629-0.06-0.743
							l-0.024-0.012c-0.229-0.115-0.511,0.065-0.628,0.401L92.45,38.191z"/>
					</g>
					<g>
						<path fill="#E39709" d="M91.313,30.352c0.193-0.295,0.261-0.263,0.146,0.071l-0.833,2.376c-0.118,0.334-0.398,0.514-0.628,0.4
							l-0.023-0.012c-0.229-0.114-0.256-0.448-0.061-0.743L91.313,30.352z"/>
						<path fill="#E39709" d="M88.948,35.095c-0.117,0.332-0.051,0.365,0.144,0.072l1.399-2.098c0.196-0.293,0.168-0.626-0.06-0.741
							l-0.023-0.012c-0.229-0.113-0.514,0.065-0.63,0.4L88.948,35.095z"/>
					</g>
					<path fill="#FBA70E" d="M107.683,38.094l-0.555,1.578l-0.52-0.259l0.927-1.394C107.731,37.729,107.798,37.76,107.683,38.094z"
						/>
				</g>
			</g>
		</g>
	</g>
	<g>
		<path fill="#6F8412" d="M68.878,40.376c-0.093,0.091-0.235,0.099-0.319,0.016l0,0c-0.083-0.085-0.077-0.228,0.015-0.319
			l5.347-5.346c0.091-0.093,0.233-0.099,0.317-0.015l0,0c0.084,0.084,0.078,0.227-0.015,0.317L68.878,40.376z"/>
		<path fill="#849C18" d="M77.522,34.867c0.409-0.132,0.79-0.299,1.138-0.498c0.051-0.048,0.106-0.09,0.156-0.142
			c0.084-0.083,0.16-0.173,0.238-0.261c-0.141-0.077-0.28-0.154-0.425-0.226c-0.062-0.027-0.121-0.048-0.182-0.075
			c0.061-0.009,0.122-0.009,0.182-0.02c0.29-0.046,0.564-0.114,0.831-0.191c0.008-0.01,0.015-0.021,0.021-0.03
			c-0.607-0.183-1.266-0.364-1.976-0.541c-0.085-0.02-0.172-0.039-0.258-0.061c0.086,0.011,0.173,0.023,0.258,0.032
			c0.804,0.093,1.548,0.159,2.224,0.197c0.199-0.333,0.37-0.676,0.499-1.029c-0.108-0.011-0.217-0.024-0.329-0.03
			c-0.063-0.004-0.123,0.002-0.187,0.002c0.049-0.033,0.101-0.06,0.149-0.095c0.192-0.137,0.368-0.284,0.536-0.437
			c0.068-0.27,0.122-0.543,0.148-0.814c-0.171,0.064-0.341,0.135-0.508,0.215c-0.054,0.024-0.101,0.058-0.154,0.085
			c0.025-0.054,0.058-0.103,0.081-0.157c0.255-0.578,0.412-1.174,0.491-1.771c-0.02-0.089-0.039-0.176-0.063-0.263
			c-0.105-0.028-0.212-0.055-0.319-0.077c-0.354,0.111-0.704,0.252-1.042,0.429c-0.053,0.026-0.1,0.062-0.15,0.09
			c0.024-0.054,0.054-0.104,0.076-0.161c0.059-0.15,0.111-0.305,0.16-0.46c-0.603-0.009-1.216,0.09-1.813,0.287
			c-0.375,0.388-0.711,0.837-0.988,1.352c-0.027,0.051-0.047,0.108-0.073,0.16c-0.01-0.063-0.011-0.125-0.021-0.189
			c-0.042-0.252-0.101-0.497-0.163-0.741c-0.02,0.011-0.037,0.024-0.056,0.035c-0.246,0.257-0.475,0.542-0.68,0.853
			c-0.034,0.051-0.057,0.103-0.089,0.152c-0.004-0.063-0.001-0.122-0.006-0.188c-0.006-0.074-0.019-0.149-0.028-0.223
			c-0.094,0.083-0.188,0.169-0.277,0.259c-0.273,0.273-0.503,0.569-0.713,0.874c0.283,1.309,0.167,2.764-0.446,4.105
			c-0.025,0.054-0.057,0.103-0.082,0.155c0.054-0.027,0.101-0.059,0.155-0.083C75.037,34.839,76.328,34.69,77.522,34.867z"/>
		<path fill="#6F8412" d="M73.839,35.386c1.198-0.547,2.489-0.696,3.684-0.52c0.409-0.132,0.79-0.299,1.138-0.498
			c0.051-0.048,0.106-0.09,0.156-0.142c0.084-0.083,0.16-0.173,0.238-0.261c-0.141-0.077-0.28-0.154-0.425-0.226
			c-0.062-0.027-0.121-0.048-0.182-0.075c0.061-0.009,0.122-0.009,0.182-0.02c0.29-0.046,0.564-0.114,0.831-0.191
			c0.008-0.01,0.015-0.021,0.021-0.03c-0.607-0.183-1.266-0.364-1.976-0.541c-0.085-0.02-0.172-0.039-0.258-0.061
			c0.086,0.011,0.173,0.023,0.258,0.032c0.804,0.093,1.548,0.159,2.224,0.197c0.199-0.333,0.37-0.676,0.499-1.029
			c-0.108-0.011-0.217-0.024-0.329-0.03c-0.063-0.004-0.123,0.002-0.187,0.002c0.049-0.033,0.101-0.06,0.149-0.095
			c0.192-0.137,0.368-0.284,0.536-0.437c0.068-0.27,0.122-0.543,0.148-0.814c-0.171,0.064-0.341,0.135-0.508,0.215
			c-0.054,0.024-0.101,0.058-0.154,0.085c0.025-0.054,0.058-0.103,0.081-0.157c0.255-0.578,0.412-1.174,0.491-1.771
			c-0.02-0.089-0.039-0.176-0.063-0.263l-6.712,6.712C73.737,35.442,73.784,35.411,73.839,35.386z"/>
		<g>
			<path fill="#6F8412" d="M74.057,37.903c-0.01-0.1-0.119-0.184-0.244-0.19l-2.518-0.119l-0.341,0.343l2.892,0.138
				C73.972,38.079,74.065,38.003,74.057,37.903z"/>
			<path fill="#849C18" d="M75.088,40.12c0.333,0.184,0.667,0.325,0.993,0.423c0.058,0.002,0.114,0.012,0.173,0.012
				c0.096,0,0.188-0.01,0.282-0.018c-0.057-0.144-0.112-0.288-0.175-0.431c-0.026-0.058-0.058-0.111-0.083-0.169
				c0.044,0.034,0.085,0.074,0.129,0.109c0.214,0.159,0.43,0.296,0.644,0.421c0.011-0.001,0.02-0.001,0.029-0.004
				c-0.316-0.524-0.666-1.081-1.052-1.669c-0.046-0.07-0.095-0.14-0.141-0.211c0.051,0.063,0.102,0.13,0.154,0.193
				c0.488,0.595,0.949,1.13,1.38,1.604c0.293-0.087,0.569-0.203,0.825-0.353c-0.067-0.078-0.133-0.159-0.202-0.237
				c-0.041-0.044-0.084-0.081-0.125-0.123c0.049,0.011,0.095,0.029,0.143,0.037c0.193,0.036,0.381,0.055,0.567,0.066
				c0.174-0.134,0.339-0.281,0.487-0.442c-0.144-0.07-0.291-0.137-0.44-0.194c-0.047-0.019-0.094-0.027-0.143-0.045
				c0.042-0.02,0.087-0.029,0.131-0.05c0.442-0.215,0.835-0.506,1.173-0.849c0.031-0.07,0.06-0.144,0.085-0.218
				c-0.055-0.089-0.114-0.176-0.175-0.262c-0.287-0.161-0.587-0.299-0.896-0.406c-0.047-0.018-0.095-0.024-0.144-0.04
				c0.042-0.021,0.086-0.034,0.128-0.056c0.113-0.063,0.221-0.129,0.327-0.2c-0.396-0.405-0.85-0.745-1.34-1.01
				c-0.434,0.007-0.873,0.082-1.304,0.239c-0.042,0.017-0.082,0.041-0.126,0.059c0.024-0.049,0.054-0.09,0.077-0.14
				c0.093-0.194,0.173-0.397,0.247-0.6c-0.018-0.005-0.036-0.01-0.055-0.013c-0.286,0.007-0.573,0.043-0.858,0.114
				c-0.046,0.009-0.087,0.029-0.132,0.042c0.028-0.045,0.059-0.082,0.085-0.128c0.032-0.055,0.06-0.111,0.091-0.167
				c-0.104-0.007-0.206-0.013-0.311-0.013c-0.312,0-0.606,0.044-0.891,0.106c-0.44,1.056-1.216,1.942-2.265,2.426
				c-0.042,0.021-0.087,0.03-0.131,0.049c0.049,0.018,0.097,0.028,0.145,0.047C73.453,38.456,74.38,39.21,75.088,40.12z"/>
			<path fill="#6F8412" d="M72.396,38.022c1.057,0.434,1.983,1.188,2.691,2.098c0.333,0.184,0.667,0.325,0.993,0.423
				c0.058,0.002,0.114,0.012,0.173,0.012c0.096,0,0.188-0.01,0.282-0.018c-0.057-0.144-0.112-0.288-0.175-0.431
				c-0.026-0.058-0.058-0.111-0.083-0.169c0.044,0.034,0.085,0.074,0.129,0.109c0.214,0.159,0.43,0.296,0.644,0.421
				c0.011-0.001,0.02-0.001,0.029-0.004c-0.316-0.524-0.666-1.081-1.052-1.669c-0.046-0.07-0.095-0.14-0.141-0.211
				c0.051,0.063,0.102,0.13,0.154,0.193c0.488,0.595,0.949,1.13,1.38,1.604c0.293-0.087,0.569-0.203,0.825-0.353
				c-0.067-0.078-0.133-0.159-0.202-0.237c-0.041-0.044-0.084-0.081-0.125-0.123c0.049,0.011,0.095,0.029,0.143,0.037
				c0.193,0.036,0.381,0.055,0.567,0.066c0.174-0.134,0.339-0.281,0.487-0.442c-0.144-0.07-0.291-0.137-0.44-0.194
				c-0.047-0.019-0.094-0.027-0.143-0.045c0.042-0.02,0.087-0.029,0.131-0.05c0.442-0.215,0.835-0.506,1.173-0.849
				c0.031-0.07,0.06-0.144,0.085-0.218l-7.671,0.002C72.301,37.993,72.349,38.003,72.396,38.022z"/>
		</g>
		<g>
			<path fill="#6F8412" d="M71.919,37.153l-0.392-2.146c-0.022-0.125-0.121-0.224-0.22-0.22c-0.098,0.005-0.16,0.11-0.137,0.237
				l0.444,2.433L71.919,37.153z"/>
			<path fill="#849C18" d="M69.014,34.046c-0.226-0.312-0.408-0.627-0.547-0.943c-0.012-0.058-0.027-0.115-0.035-0.173
				c-0.013-0.097-0.017-0.194-0.022-0.288c0.147,0.037,0.294,0.073,0.442,0.118c0.061,0.018,0.117,0.041,0.177,0.062
				c-0.039-0.041-0.084-0.076-0.123-0.117c-0.185-0.194-0.349-0.393-0.498-0.593c0-0.008,0-0.019,0-0.029
				c0.554,0.248,1.142,0.525,1.766,0.835c0.074,0.036,0.149,0.076,0.224,0.115c-0.068-0.045-0.14-0.088-0.209-0.132
				c-0.643-0.412-1.227-0.805-1.746-1.176c0.046-0.306,0.119-0.603,0.229-0.881c0.088,0.058,0.175,0.112,0.26,0.175
				c0.049,0.033,0.091,0.072,0.137,0.105c-0.017-0.045-0.04-0.091-0.056-0.137c-0.061-0.19-0.104-0.378-0.142-0.562
				c0.107-0.196,0.226-0.382,0.363-0.555c0.089,0.135,0.171,0.273,0.248,0.416c0.024,0.047,0.041,0.094,0.063,0.139
				c0.013-0.045,0.018-0.092,0.031-0.136c0.148-0.479,0.379-0.914,0.664-1.304c0.066-0.039,0.132-0.078,0.201-0.115
				c0.092,0.045,0.186,0.092,0.277,0.143c0.195,0.269,0.37,0.551,0.517,0.849c0.022,0.047,0.037,0.093,0.059,0.139
				c0.015-0.045,0.022-0.089,0.037-0.134c0.044-0.124,0.096-0.244,0.149-0.358c0.448,0.343,0.841,0.756,1.165,1.214
				c0.052,0.438,0.038,0.893-0.056,1.349c-0.009,0.045-0.027,0.091-0.038,0.136c0.043-0.031,0.08-0.064,0.124-0.097
				c0.178-0.12,0.361-0.229,0.551-0.332c0.006,0.019,0.012,0.034,0.019,0.054c0.032,0.289,0.035,0.584,0.007,0.883
				c-0.004,0.047-0.018,0.093-0.023,0.139c0.039-0.033,0.072-0.07,0.111-0.104c0.05-0.04,0.102-0.074,0.15-0.111
				c0.022,0.101,0.04,0.205,0.055,0.309c0.044,0.315,0.04,0.619,0.018,0.914c-0.965,0.588-1.721,1.492-2.048,2.618
				c-0.012,0.044-0.017,0.091-0.029,0.138c-0.024-0.047-0.041-0.094-0.065-0.139C70.853,35.47,69.993,34.637,69.014,34.046z"/>
			<path fill="#6F8412" d="M71.419,36.479c-0.566-1.009-1.426-1.842-2.405-2.433c-0.226-0.312-0.408-0.627-0.547-0.943
				c-0.012-0.058-0.027-0.115-0.035-0.173c-0.013-0.097-0.017-0.194-0.022-0.288c0.147,0.037,0.294,0.073,0.442,0.118
				c0.061,0.018,0.117,0.041,0.177,0.062c-0.039-0.041-0.084-0.076-0.123-0.117c-0.185-0.194-0.349-0.393-0.498-0.593
				c0-0.008,0-0.019,0-0.029c0.554,0.248,1.142,0.525,1.766,0.835c0.074,0.036,0.149,0.076,0.224,0.115
				c-0.068-0.045-0.14-0.088-0.209-0.132c-0.643-0.412-1.227-0.805-1.746-1.176c0.046-0.306,0.119-0.603,0.229-0.881
				c0.088,0.058,0.175,0.112,0.26,0.175c0.049,0.033,0.091,0.072,0.137,0.105c-0.017-0.045-0.04-0.091-0.056-0.137
				c-0.061-0.19-0.104-0.378-0.142-0.562c0.107-0.196,0.226-0.382,0.363-0.555c0.089,0.135,0.171,0.273,0.248,0.416
				c0.024,0.047,0.041,0.094,0.063,0.139c0.013-0.045,0.018-0.092,0.031-0.136c0.148-0.479,0.379-0.914,0.664-1.304
				c0.066-0.039,0.132-0.078,0.201-0.115l1.044,7.746C71.46,36.571,71.443,36.524,71.419,36.479z"/>
		</g>
	</g>
	<g>
		<circle fill="#FBA70E" cx="123.994" cy="14.469" r="5.486"/>
		<circle fill="#E39709" cx="123.995" cy="14.469" r="3.292"/>
	</g>
</g>
</svg>
