<?xml version="1.0" encoding="utf-8"?>
<!-- Generator: Adobe Illustrator 16.0.0, SVG Export Plug-In . SVG Version: 6.00 Build 0)  -->
<!DOCTYPE svg PUBLIC "-//W3C//DTD SVG 1.1//EN" "http://www.w3.org/Graphics/SVG/1.1/DTD/svg11.dtd">
<svg version="1.1" id="Layer_1" xmlns="http://www.w3.org/2000/svg" xmlns:xlink="http://www.w3.org/1999/xlink" x="0px" y="0px"
	 width="83.311px" height="68.785px" viewBox="0 0 83.311 68.785" enable-background="new 0 0 83.311 68.785" xml:space="preserve">
<g>
	<path fill="#FFFFFF" d="M51.039,53.986c0,0-28.346,5.579-41.434-3.265C-1.921,42.932-4.647,20.565,10.228,8.682
		C25.103-3.201,46.699,3.248,52.08,4.932C57.458,6.618,51.039,53.986,51.039,53.986z"/>
	<path fill="#FFFFFF" d="M45.44,60.218c0,0,31.64,2.714,36.943-20.26c3.024-13.099-0.703-27.272-20.969-29.61
		c-20.271-2.341-41.916,0.195-46.278,3.704C10.778,17.562,45.44,60.218,45.44,60.218z"/>
	<path fill="#FFFFFF" d="M26.417,46.039c0,0,0.793,16.781-6.433,21.014c-7.225,4.229,12.095-0.119,22.095-4.119
		c4.477-1.79,26.017-12.959,25.08-13.405C59.521,45.878,26.417,46.039,26.417,46.039z"/>
	<path fill="#5AB1AF" d="M2.973,29.397C2.472,26.465,4.431,15.05,9.718,12.028c6.441-3.685,12.548-9.395,19.888-10.91
		c7.198-1.485,14.731-1.487,21.969-0.024c5.991,1.214,12.511,5.29,17.493,8.773c5.252,3.674,10.326,8.531,11.4,15.204
		c0.854,5.31,0.115,13.455-3.402,17.603c-5.094,6.01-13.724,11.664-21.592,13.119c-2.762,0.512-5.816,0.418-8.657,0.217
		c-2.396-0.17-3.218,0.699-5.052,1.957c-4.03,2.748-8.438,4.512-13.062,6.269c-1.948,0.745-4.68,1.642-6.771,0.933
		c-2.872-0.974-0.964-1.572,0.479-2.597c2.83-2.013,3.344-6.843,3.524-10.19c-1.862-0.555-9.742-2.225-11.365-3.012
		C7.147,45.77,4.206,36.625,2.973,29.397z"/>
	<g>
		<path fill="#FFFFFF" d="M21.146,12.537c-0.006,0.025,0.116,0.134,0.365,0.324c0.091,0.18,0.191,0.323,0.301,0.428
			c-0.017,0.076,0.004,0.182,0.067,0.315c0.063,0.134,0.082,0.253,0.059,0.354c0.099,0.155,0.125,0.269,0.082,0.338
			c0.021,0.031,0.051,0.065,0.097,0.103l0.066,0.056c0.003,0.106,0.04,0.262,0.113,0.465s0.089,0.394,0.048,0.57
			c0.115,0.08,0.176,0.254,0.181,0.521c0.004,0.268,0.027,0.433,0.066,0.494c-0.16,0.23-0.242,0.357-0.248,0.383
			c-0.006,0.026,0.029,0.047,0.105,0.064l0.066,0.056c0.013,0.056,0.023,0.132,0.027,0.226c0.004,0.095,0.014,0.17,0.027,0.227
			s0.06,0.093,0.136,0.11c-0.031,0.02-0.057,0.067-0.073,0.144c-0.006,0.025-0.006,0.085-0.001,0.18
			c0.004,0.094-0.012,0.164-0.048,0.208c-0.006,0.025-0.033,0.06-0.083,0.101c-0.05,0.043-0.081,0.089-0.093,0.139
			c-0.037,0.045-0.025,0.081,0.035,0.108c0.061,0.026,0.087,0.054,0.081,0.078l-0.018,0.076c-0.019,0.075-0.016,0.183,0.006,0.321
			c0.021,0.138,0.03,0.22,0.024,0.245l-0.057,0.067c0.023,0.244,0.033,0.381,0.027,0.405c-0.019,0.075-0.073,0.143-0.167,0.201
			c0.045,0.037,0.062,0.081,0.05,0.131c-0.022,0.102-0.02,0.289,0.01,0.563c0.031,0.273,0.032,0.473,0.003,0.6L22.39,21.21
			c-0.146,0.047-0.23,0.134-0.261,0.26l-0.019,0.076c-0.018,0.076,0.018,0.163,0.102,0.263c0.083,0.099,0.122,0.161,0.116,0.187
			l-0.026,0.114c-0.018,0.075-0.021,0.181-0.013,0.316c0.008,0.135,0.008,0.229-0.004,0.278c-0.023,0.102-0.081,0.181-0.176,0.24
			c-0.006,0.025,0.012,0.096,0.052,0.211c0.04,0.115,0.065,0.202,0.082,0.258c-0.013,0.051-0.05,0.123-0.11,0.215
			c-0.063,0.093-0.098,0.164-0.108,0.215c-0.006,0.025-0.004,0.066,0.013,0.123c0.003,0.214,0.019,0.377,0.047,0.489
			c-0.169,0.041-0.197,0.102-0.082,0.181c-0.087,0.034-0.149,0.1-0.187,0.197c-0.035,0.099-0.085,0.168-0.146,0.206
			c0.019,0.031,0.025,0.086,0.021,0.165s0.002,0.134,0.022,0.165c-0.038,0.045-0.063,0.105-0.081,0.181
			c-0.038,0.045-0.063,0.093-0.073,0.143c0.007,0.082,0.101,0.143,0.277,0.184l0.15,0.035c0.241,0.109,0.478,0.189,0.703,0.242
			l0.305,0.069c0.304,0.069,0.493,0.167,0.572,0.292c0.063-0.039,0.144-0.048,0.244-0.024c0.176,0.04,0.301,0.083,0.371,0.125
			c0.099-0.083,0.175-0.239,0.229-0.466l0.061-0.267c0.012-0.05,0.021-0.121,0.028-0.213c0.007-0.092,0.015-0.149,0.021-0.175
			l0.13-0.57c-0.02-0.029,0.019-0.075,0.111-0.134c0.012-0.05,0.004-0.078-0.021-0.084c-0.021-0.03-0.026-0.06-0.021-0.085
			c0.064-0.171,0.097-0.424,0.094-0.758c-0.003-0.332,0.055-0.58,0.17-0.739c-0.016-0.163-0.018-0.271-0.006-0.321
			c0.006-0.024,0.045-0.082,0.119-0.172c0.006-0.025,0.007-0.059,0.002-0.1c-0.003-0.041-0.001-0.073,0.005-0.099l0.159-0.522
			l0.072-0.144c0.006-0.024,0.063-0.104,0.176-0.239l0.061-0.266c0.013-0.05,0.049-0.095,0.111-0.134l0.053-0.229
			c0.063-0.038,0.096-0.07,0.102-0.097l0.009-0.037c-0.019-0.03-0.013-0.056,0.018-0.076c0.024,0.006,0.041-0.004,0.048-0.029
			c0.018-0.076,0.039-0.171,0.064-0.285c0.026-0.113,0.058-0.191,0.095-0.236c0.03-0.02,0.072-0.058,0.125-0.111
			c0.054-0.055,0.096-0.092,0.126-0.111c0.059-0.253,0.121-0.412,0.189-0.477l0.025-0.113c0.012-0.051,0.043-0.13,0.095-0.238
			c0.051-0.107,0.083-0.187,0.095-0.237l0.035-0.151l0.131-0.569c0.053-0.228,0.14-0.38,0.265-0.458
			c-0.021-0.031-0.055-0.053-0.104-0.064l0.07-0.304c0.028-0.019,0.085-0.054,0.162-0.103c0.075-0.048,0.135-0.095,0.173-0.14
			c0.012-0.051-0.008-0.088-0.056-0.112c-0.049-0.024-0.081-0.053-0.101-0.084l-0.029-0.046l0.011-0.038
			c0.011-0.05,0.043-0.109,0.099-0.177s0.087-0.112,0.093-0.139c0.052-0.228,0.093-0.351,0.125-0.371
			c0.019-0.076,0.006-0.145-0.032-0.207c0.107-0.24,0.172-0.399,0.189-0.476c0.021-0.101,0.026-0.18,0.014-0.236
			c0.105-0.108,0.206-0.259,0.304-0.449c0.088-0.033,0.209-0.013,0.364,0.063c0.156,0.075,0.265,0.095,0.326,0.055
			c0.051,0.012,0.099,0.037,0.144,0.073c0.045,0.037,0.08,0.059,0.105,0.064c0.051,0.012,0.093,0.001,0.127-0.031
			c0.034-0.032,0.063-0.045,0.088-0.039c0.021,0.031,0.072,0.063,0.159,0.096c0.085,0.034,0.14,0.053,0.165,0.059
			c0.051,0.012,0.104,0.043,0.159,0.096c0.054,0.053,0.103,0.098,0.147,0.135l0.305,0.069c0.101,0.023,0.216,0.103,0.344,0.239
			c0.129,0.137,0.243,0.216,0.345,0.238l0.076,0.018c0.038,0.063,0.124,0.156,0.255,0.279s0.217,0.216,0.256,0.278
			c0.028,0.22,0.151,0.474,0.364,0.762c0.214,0.289,0.324,0.528,0.335,0.717c0.039,0.063,0.085,0.152,0.137,0.271
			c0.054,0.119,0.099,0.209,0.139,0.272c-0.081,0.354-0.163,0.535-0.245,0.542c-0.006,0.025,0.009,0.049,0.044,0.07
			s0.05,0.045,0.045,0.07l-0.026,0.113c-0.047,0.203,0.015,0.402,0.183,0.602c0.015,0.163,0.005,0.32-0.029,0.472L32.2,21.108
			c0.025,0.113,0.034,0.195,0.023,0.245l-0.053,0.229c-0.012,0.051-0.021,0.121-0.029,0.212c-0.008,0.093-0.014,0.151-0.02,0.176
			c-0.023,0.102-0.076,0.156-0.158,0.163l-0.087,0.38c-0.064,0.278-0.127,0.437-0.188,0.476c-0.006,0.025-0.003,0.072,0.008,0.142
			c0.011,0.069-0.004,0.126-0.039,0.171c0.025,0.112,0.013,0.322-0.046,0.629c-0.058,0.307-0.05,0.534,0.023,0.684
			c-0.038,0.045-0.07,0.131-0.1,0.257c-0.013,0.052-0.024,0.134-0.038,0.251s-0.025,0.201-0.037,0.252l-0.11,0.134l-0.053,0.228
			c-0.006,0.025-0.022,0.035-0.047,0.029c-0.032,0.02-0.05,0.042-0.057,0.067l-0.033,0.151c-0.044,0.07-0.095,0.112-0.148,0.126
			c-0.037,0.045-0.034,0.086,0.011,0.122c0.025,0.006,0.035,0.022,0.029,0.047c-0.038,0.045-0.077,0.136-0.123,0.271
			c-0.044,0.137-0.071,0.23-0.083,0.28c-0.006,0.026-0.029,0.067-0.068,0.124c-0.04,0.058-0.063,0.1-0.067,0.124
			c-0.006,0.026-0.001,0.087,0.018,0.185c0.018,0.097,0.018,0.184,0,0.259l-0.035,0.152l-0.112,0.492
			c-0.068,0.065-0.133,0.197-0.19,0.396c-0.06,0.199-0.111,0.334-0.153,0.404c-0.106,0.002-0.192,0.035-0.262,0.1
			c-0.069,0.063-0.135,0.148-0.199,0.253c-0.063,0.105-0.127,0.178-0.188,0.217c0.027,0.113,0.024,0.232-0.004,0.359
			c-0.022,0.102-0.063,0.158-0.118,0.172c-0.037,0.045-0.036,0.071,0.002,0.08c0.037,0.009,0.053,0.026,0.047,0.051
			c-0.022,0.102-0.229,0.534-0.617,1.297c-0.03,0.02-0.09,0.046-0.178,0.078c-0.012,0.051-0.039,0.111-0.082,0.182
			c-0.043,0.069-0.067,0.118-0.073,0.143l0.029,0.047c-0.012,0.051-0.021,0.089-0.025,0.113c-0.066,0.064-0.118,0.167-0.149,0.305
			c-0.032,0.141-0.068,0.244-0.111,0.314c-0.006,0.026-0.03,0.073-0.073,0.144l-0.018,0.076c-0.006,0.025-0.04,0.058-0.102,0.096
			c-0.063,0.039-0.111,0.081-0.149,0.126c-0.029,0.127-0.101,0.21-0.217,0.25c-0.116,0.039-0.178,0.072-0.183,0.098l-0.047,0.028
			c-0.037,0.046-0.07,0.078-0.103,0.097c-0.063,0.04-0.153,0.092-0.275,0.156c-0.122,0.066-0.197,0.108-0.229,0.127l-0.379-0.086
			c-0.076-0.018-0.209-0.049-0.399-0.092c-0.189-0.044-0.325-0.063-0.406-0.054l-0.38-0.087c-0.203-0.047-0.348-0.107-0.438-0.182
			c-0.046-0.036-0.108-0.111-0.189-0.223c-0.08-0.111-0.144-0.186-0.188-0.223l-0.048,0.029l-0.046,0.029l-0.401-0.333
			c-0.026-0.006-0.063-0.054-0.107-0.144c-0.046-0.091-0.104-0.157-0.174-0.199c-0.021-0.031-0.049-0.105-0.089-0.221
			c-0.04-0.116-0.081-0.205-0.119-0.268c-0.014-0.056-0.027-0.139-0.042-0.249c-0.015-0.11-0.03-0.193-0.043-0.249
			c-0.014-0.057,0.006-0.085,0.061-0.087c0.054-0.001,0.083-0.014,0.09-0.039c-0.142-0.085-0.188-0.229-0.142-0.432l0.07-0.304
			c0.006-0.025,0.004-0.079-0.003-0.16c-0.008-0.082-0.007-0.148,0.005-0.199c-0.014-0.056-0.012-0.122,0.006-0.197
			c0.018-0.076,0.029-0.127,0.034-0.152l0.01-0.038c-0.021-0.03-0.027-0.06-0.021-0.085l0.025-0.113
			c0.07-0.304,0.072-0.489,0.009-0.558c-0.252,0.049-0.528,0.038-0.833-0.031l-1.175-0.271c-0.304-0.069-0.592-0.096-0.859-0.077
			c-0.007,0.025-0.037,0.071-0.094,0.138c-0.056,0.067-0.089,0.127-0.101,0.177l-0.019,0.076c-0.105,0.003-0.203,0.106-0.292,0.313
			c-0.087,0.207-0.148,0.332-0.186,0.377l-0.184,0.796c-0.007,0.026-0.027,0.061-0.063,0.105c-0.018,0.076-0.017,0.13,0.003,0.16
			c-0.088,0.033-0.176,0.1-0.265,0.199c-0.091,0.1-0.151,0.159-0.183,0.178c-0.029,0.02-0.073,0.037-0.131,0.05
			c-0.057,0.014-0.101,0.03-0.132,0.05c-0.024-0.006-0.078,0.049-0.156,0.164c-0.094,0.059-0.229,0.121-0.402,0.188
			c-0.105,0.109-0.229,0.187-0.374,0.232l-0.076-0.018c-0.049-0.011-0.113,0.002-0.188,0.037c-0.074,0.037-0.126,0.051-0.149,0.045
			l-0.229-0.052c-0.112,0.027-0.194,0.036-0.245,0.024c-0.075-0.018-0.201-0.08-0.378-0.188c-0.175-0.106-0.313-0.172-0.413-0.194
			l-0.188-0.044c-0.025-0.006-0.036-0.021-0.03-0.047l-0.066-0.055c-0.047-0.037-0.094-0.062-0.145-0.073
			c-0.05-0.012-0.088-0.021-0.113-0.026c-0.024-0.005-0.048-0.023-0.066-0.056c-0.015-0.056-0.042-0.103-0.087-0.14
			c-0.025-0.006-0.067-0.028-0.124-0.068c-0.059-0.039-0.1-0.063-0.124-0.068c-0.064-0.067-0.165-0.211-0.302-0.429l-0.088-0.14
			c-0.251-0.298-0.374-0.459-0.367-0.484c-0.349-0.346-0.482-0.684-0.406-1.012c-0.061-0.094-0.079-0.178-0.063-0.254l0.07-0.304
			l-0.036-0.368l0.1-0.256c0.018-0.076,0.006-0.199-0.035-0.369c-0.041-0.168-0.054-0.291-0.035-0.366l0.026-0.114
			c0.012-0.051,0.034-0.125,0.07-0.223c0.035-0.099,0.06-0.173,0.07-0.224l0.026-0.114c0.006-0.025,0.032-0.059,0.083-0.101
			c0.049-0.042,0.076-0.075,0.084-0.101l0.017-0.076c-0.023-0.245-0.007-0.494,0.052-0.747l0.174-0.759
			c0.007-0.024,0.007-0.052-0.001-0.08c-0.007-0.027-0.007-0.055-0.001-0.08l0.035-0.151c0.035-0.151,0.07-0.25,0.106-0.295
			c-0.004-0.214,0.004-0.359,0.021-0.435c0.047-0.203,0.126-0.371,0.236-0.506l0.034-0.152c0.087-0.379,0.164-0.601,0.232-0.664
			c-0.083-0.1-0.11-0.213-0.082-0.339c0.006-0.024,0.025-0.081,0.06-0.167c0.031-0.085,0.055-0.152,0.065-0.204
			c-0.04-0.062-0.053-0.118-0.041-0.169c0.023-0.101,0.071-0.223,0.146-0.366c0.071-0.144,0.114-0.239,0.126-0.29l0.018-0.076
			c0.006-0.025-0.006-0.088-0.036-0.188c-0.03-0.1-0.054-0.179-0.065-0.235l0.035-0.151c0.018-0.076,0.063-0.218,0.139-0.427
			c0.073-0.21,0.126-0.377,0.155-0.504l0.035-0.152c0.006-0.025,0.012-0.083,0.021-0.175c0.007-0.092,0.017-0.161,0.028-0.214
			l0.018-0.075c0.006-0.024,0.027-0.06,0.064-0.104c0.036-0.045,0.061-0.092,0.071-0.144c0.007-0.024,0.015-0.09,0.024-0.194
			c0.011-0.104,0.022-0.181,0.033-0.231c0.018-0.076,0.045-0.136,0.082-0.181c0.006-0.025-0.008-0.055-0.039-0.09
			c-0.032-0.033-0.046-0.063-0.04-0.089c0.272-0.842,0.413-1.276,0.419-1.302c0.012-0.05,0.054-0.12,0.128-0.21
			c0.074-0.089,0.12-0.173,0.138-0.249l0.069-0.303c0.073-0.089,0.135-0.182,0.184-0.277c-0.014-0.057-0.008-0.082,0.019-0.076
			l0.047-0.028c0.006-0.025,0.019-0.082,0.039-0.171c0.02-0.089,0.058-0.14,0.114-0.154c0.018-0.075,0.223-0.508,0.617-1.295
			c0.03-0.02,0.065-0.059,0.106-0.115c0.039-0.058,0.087-0.094,0.144-0.107l0.019-0.076c0.058-0.252,0.383-0.444,0.972-0.575
			C19.691,12.323,20.249,12.384,21.146,12.537z"/>
		<path fill="#FFFFFF" d="M41.051,17.87l0.114,0.026c0.277,0.063,0.437,0.127,0.476,0.189c0.082-0.008,0.212,0.008,0.389,0.049
			c0.102,0.023,0.238,0.062,0.412,0.115c0.175,0.053,0.286,0.085,0.338,0.097c0.076,0.018,0.19,0.038,0.347,0.061
			c0.153,0.021,0.271,0.042,0.346,0.06c0.025,0.005,0.062,0.026,0.104,0.063c0.045,0.037,0.079,0.058,0.104,0.063
			c0.025,0.005,0.071,0.011,0.137,0.012c0.065,0.002,0.125,0.009,0.177,0.021c0.024,0.006,0.148,0.042,0.374,0.106
			c0.225,0.065,0.395,0.138,0.51,0.217c0.051,0.012,0.092,0.008,0.123-0.012l0.076,0.018c0.083,0.099,0.188,0.163,0.314,0.192
			l0.151,0.034c0.05,0.012,0.14,0.026,0.271,0.043c0.129,0.017,0.231,0.033,0.309,0.05l0.113,0.026
			c0.05,0.012,0.17,0.066,0.36,0.163c0.313,0.151,0.514,0.317,0.605,0.499c0.02,0.031,0.055,0.105,0.106,0.225
			c0.054,0.118,0.1,0.209,0.138,0.271c0.021,0.031,0.048,0.085,0.084,0.159c0.035,0.075,0.062,0.141,0.074,0.197l-0.065,0.464
			c-0.115,0.267-0.274,0.496-0.479,0.688c-0.169,0.148-0.319,0.233-0.459,0.255c-0.057,0.014-0.149,0.019-0.282,0.015
			c-0.133-0.004-0.228,0.002-0.282,0.015c-0.113,0.027-0.221,0.029-0.32,0.006c-0.052-0.012-0.121-0.054-0.211-0.128
			c-0.181,0.092-0.487,0.088-0.916-0.01l-0.759-0.175c-0.103-0.023-0.28-0.058-0.536-0.104c-0.256-0.045-0.46-0.086-0.611-0.12
			l-0.265-0.062c-0.098-0.048-0.224-0.077-0.38-0.087c-0.076-0.018-0.17-0.045-0.281-0.085c-0.111-0.038-0.19-0.063-0.241-0.075
			c-0.052-0.012-0.123-0.021-0.214-0.029c-0.092-0.007-0.162-0.018-0.213-0.029s-0.119-0.033-0.203-0.066
			c-0.087-0.033-0.143-0.052-0.167-0.058c-0.127-0.029-0.221-0.024-0.283,0.015c0.015,0.057,0.009,0.136-0.015,0.236
			c-0.169,0.041-0.27,0.071-0.3,0.091c0.02,0.031,0.014,0.109-0.017,0.236l-0.089,0.219c-0.012,0.051-0.049,0.096-0.111,0.134
			c-0.063,0.04-0.097,0.072-0.103,0.097c0.02,0.031,0.014,0.057-0.018,0.076l0.066,0.056c0.025,0.005,0.035,0.021,0.029,0.047
			c-0.009,0.157-0.063,0.478-0.161,0.961c-0.098,0.484-0.135,0.848-0.111,1.094c-0.122,0.185-0.2,0.299-0.237,0.344
			c0.014,0.057,0.046,0.09,0.096,0.102c0.051,0.012,0.073,0.031,0.067,0.056c-0.048,0.203-0.092,0.339-0.135,0.409
			c0.047,0.144,0.055,0.291,0.02,0.443c-0.041,0.177-0.146,0.34-0.313,0.487c-0.012,0.051-0.03,0.106-0.058,0.166
			c-0.027,0.061-0.045,0.104-0.05,0.128c-0.035,0.152-0.069,0.364-0.106,0.636c-0.035,0.271-0.064,0.458-0.088,0.56
			c-0.029,0.126-0.065,0.224-0.108,0.293c0.13,0.138,0.228,0.293,0.293,0.468c0.076,0.018,0.19,0.037,0.347,0.06
			c0.153,0.022,0.257,0.039,0.309,0.051c0.126,0.028,0.26,0.087,0.399,0.171c0.264,0.009,0.473,0.029,0.625,0.064l0.37,0.125
			c0.02,0.031,0.086,0.087,0.2,0.166c0.114,0.08,0.18,0.147,0.193,0.204l0.15,0.035c0.021,0.031,0.092,0.127,0.214,0.288
			c0.123,0.162,0.231,0.267,0.327,0.315c-0.019,0.076,0.017,0.164,0.101,0.263c-0.063,0.039-0.086,0.114-0.071,0.223
			c0.015,0.11,0.019,0.179,0.014,0.202l-0.019,0.076l-0.187,0.117c-0.012,0.051-0.063,0.119-0.147,0.206s-0.138,0.168-0.154,0.244
			c-0.031,0.019-0.085,0.021-0.161,0.003c-0.049,0.096-0.141,0.207-0.276,0.336l-0.558-0.009c-0.052-0.012-0.13-0.017-0.236-0.015
			c-0.063,0.04-0.119,0.053-0.169,0.041c-0.076-0.018-0.162-0.05-0.257-0.099c-0.097-0.048-0.182-0.081-0.257-0.099l-0.39-0.05
			l-0.112-0.026c-0.053-0.012-0.118-0.04-0.2-0.085c-0.083-0.046-0.139-0.072-0.162-0.077c-0.076-0.018-0.13-0.017-0.16,0.003
			c-0.094,0.058-0.164,0.188-0.21,0.392c-0.006,0.025-0.024,0.073-0.054,0.146c-0.031,0.073-0.053,0.135-0.063,0.186
			c-0.021,0.102-0.042,0.243-0.058,0.426c-0.017,0.184-0.031,0.313-0.049,0.389l-0.097,0.417c0.07,0.043,0.257,0.159,0.561,0.349
			c0.302,0.189,0.504,0.35,0.607,0.479c0.051,0.012,0.089,0.014,0.118,0.007c0.027-0.007,0.056-0.008,0.081-0.002
			c0.21,0.129,0.466,0.228,0.771,0.297c0.228,0.053,0.522,0.095,0.891,0.125c0.024,0.006,0.076,0.071,0.154,0.195
			c0.076,0.018,0.237,0.035,0.486,0.053c0.25,0.017,0.438,0.04,0.563,0.068c0.177,0.041,0.307,0.112,0.391,0.211
			c0.037-0.045,0.104-0.037,0.194,0.023c0.093,0.063,0.151,0.096,0.176,0.102l0.076,0.017c0.02,0.031,0.039,0.063,0.059,0.095
			l0.067,0.056l0.315,0.19c0.064,0.176,0.088,0.314,0.063,0.416c0.02,0.03,0.062,0.086,0.121,0.166
			c0.062,0.082,0.103,0.137,0.122,0.168c0.039,0.063,0.032,0.207-0.021,0.437c-0.047,0.202-0.104,0.336-0.173,0.399l-0.131,0.049
			c-0.234,0.213-0.422,0.33-0.561,0.352l-0.376,0.073l-0.189-0.044c-0.076-0.018-0.172-0.006-0.288,0.033
			c-0.115,0.041-0.199,0.055-0.248,0.043c-0.052-0.012-0.101-0.029-0.146-0.055c-0.05-0.023-0.085-0.039-0.11-0.045
			s-0.084,0.021-0.178,0.079c-0.076-0.019-0.192-0.004-0.351,0.04c-0.154,0.044-0.273,0.068-0.355,0.077
			c-0.051-0.013-0.167-0.032-0.346-0.06c-0.182-0.028-0.324-0.041-0.432-0.039c-0.214,0.004-0.422-0.018-0.625-0.063
			c-0.15-0.034-0.25-0.071-0.295-0.106l-0.122,0.012c-0.057,0.013-0.101,0.029-0.131,0.05c-0.045-0.037-0.118-0.065-0.219-0.091
			c-0.052-0.012-0.128-0.021-0.231-0.032c-0.104-0.013-0.183-0.021-0.231-0.033c-0.026-0.006-0.064-0.015-0.114-0.026l-0.029-0.047
			c-0.025-0.006-0.063-0.008-0.117-0.006c-0.055,0-0.095-0.002-0.118-0.009c-0.082,0.007-0.25-0.017-0.502-0.075l-0.531-0.121
			c-0.112,0.025-0.184,0.037-0.208,0.03c-0.08,0.009-0.197-0.005-0.351-0.04c-0.229-0.052-0.389-0.104-0.483-0.15l-0.215,0.069
			c-0.127-0.028-0.313-0.06-0.561-0.088c-0.246-0.03-0.432-0.06-0.559-0.089c-0.152-0.035-0.276-0.077-0.371-0.125
			c-0.039-0.063-0.163-0.157-0.374-0.286c-0.21-0.127-0.326-0.261-0.348-0.397c-0.051-0.012-0.11-0.065-0.183-0.162
			c-0.072-0.096-0.142-0.166-0.212-0.209c-0.017-0.164-0.121-0.34-0.316-0.532c-0.195-0.19-0.313-0.317-0.353-0.38
			c0.023-0.101-0.012-0.188-0.1-0.263c0.011-0.051,0.019-0.108,0.02-0.175c0.002-0.066,0.007-0.111,0.013-0.137
			c-0.084-0.1-0.18-0.268-0.283-0.506c-0.015-0.056-0.002-0.104,0.034-0.151L32,33.445c-0.125-0.268-0.167-0.49-0.126-0.668
			l0.017-0.075c-0.047-0.145-0.055-0.398-0.022-0.765c0.029-0.365,0.01-0.623-0.063-0.773l0.019-0.076
			c0.011-0.05,0.007-0.145-0.016-0.283c-0.021-0.138-0.025-0.231-0.016-0.282l0.073-0.144c-0.062-0.2-0.065-0.414-0.014-0.642
			c0.035-0.151,0.069-0.33,0.104-0.535s0.066-0.438,0.101-0.696c0.032-0.258,0.066-0.464,0.102-0.615l0.21-0.912
			c0.021-0.1,0.068-0.243,0.138-0.427c0.069-0.184,0.111-0.313,0.129-0.39c0.012-0.051,0.026-0.141,0.044-0.27
			c0.015-0.129,0.032-0.232,0.05-0.309c0.029-0.126,0.065-0.225,0.107-0.295c-0.021-0.03-0.017-0.043,0.008-0.038l0.086-0.021
			c0.065-0.863,0.136-1.459,0.211-1.788c0.019-0.076,0.075-0.209,0.172-0.399l-0.038-0.01c-0.051-0.012-0.072-0.03-0.066-0.055
			c0.035-0.152,0.098-0.397,0.188-0.736c0.092-0.338,0.157-0.596,0.197-0.772c0.006-0.025,0.012-0.078,0.017-0.156
			c0.005-0.079,0.014-0.144,0.024-0.194c0.023-0.102,0.081-0.181,0.175-0.24l-0.029-0.047c-0.051-0.012-0.058-0.039-0.021-0.084
			c0.216-0.59,0.39-1.175,0.523-1.757c0.03-0.02,0.075-0.042,0.136-0.068c0.06-0.026,0.104-0.05,0.136-0.069
			c-0.014-0.057-0.036-0.074-0.067-0.055c-0.03,0.019-0.057,0.014-0.075-0.018c0.034-0.152,0.111-0.313,0.231-0.486
			c0.119-0.172,0.2-0.294,0.242-0.363c0.025,0.006,0.063-0.012,0.113-0.055c0.05-0.041,0.099-0.057,0.148-0.045
			c0.074-0.09,0.229-0.181,0.463-0.273c0.234-0.092,0.389-0.184,0.464-0.273c0.023,0.006,0.21,0.009,0.557,0.009
			c0.152,0.034,0.267-0.005,0.348-0.12c0.02,0.031,0.055,0.053,0.104,0.064c0.05,0.011,0.139,0.005,0.264-0.021
			c0.126-0.024,0.201-0.034,0.228-0.028c0.08-0.007,0.197,0.006,0.35,0.04c0.152,0.035,0.298,0.096,0.438,0.182
			c0.052,0.012,0.123,0.016,0.219,0.01c0.094-0.005,0.18-0.005,0.259,0s0.157,0.016,0.231,0.033
			c0.025,0.006,0.061,0.027,0.105,0.063l0.076,0.018c0.051,0.012,0.129,0.017,0.235,0.015c0.106-0.002,0.198,0.006,0.274,0.023
			l0.143,0.072c0.102,0.023,0.236,0.041,0.407,0.054c0.17,0.013,0.293,0.027,0.369,0.045l0.113,0.026L41.051,17.87z"/>
		<path fill="#FFFFFF" d="M58.718,22.689c0.02,0.03,0.09,0.074,0.21,0.128c0.121,0.054,0.188,0.109,0.202,0.166l0.152,0.034
			c0.2,0.047,0.321,0.102,0.36,0.164c0.025,0.006,0.041-0.004,0.047-0.029l0.037,0.008c0.076,0.018,0.203,0.074,0.382,0.168
			c0.179,0.095,0.307,0.149,0.382,0.167s0.142,0.02,0.198,0.006c-0.006,0.025-0.012,0.051-0.018,0.076
			c-0.006,0.025-0.012,0.051-0.019,0.075l0.229,0.053c0.019,0.031,0.013,0.057-0.019,0.076l-0.009,0.037
			c0.075,0.018,0.132,0.058,0.172,0.12c0.038,0.063,0.084,0.099,0.136,0.11c0.019,0.031,0.058,0.094,0.115,0.187
			c0.06,0.094,0.079,0.179,0.063,0.255l0.087,0.14c-0.012,0.051-0.013,0.116-0.005,0.198s0.009,0.136,0.003,0.16
			c-0.019,0.076-0.036,0.186-0.055,0.327c-0.021,0.143-0.025,0.254-0.019,0.336c0.008,0.081,0.031,0.18,0.072,0.296
			c0.039,0.116,0.054,0.199,0.042,0.249c-0.006,0.026-0.024,0.048-0.056,0.067c-0.025-0.006-0.041,0.004-0.048,0.029
			c-0.011,0.051,0.005,0.127,0.049,0.23c0.042,0.104,0.058,0.18,0.046,0.23c-0.006,0.025-0.056,0.067-0.147,0.125
			c-0.094,0.059-0.146,0.113-0.158,0.164c-0.012,0.051,0.001,0.087,0.036,0.107c0.035,0.022,0.049,0.046,0.043,0.07
			c-0.071,0.197-0.084,0.367-0.037,0.511L60.973,28l-0.28,0.176c0.009,0.081,0.075,0.137,0.201,0.166
			c0.021,0.031,0.021,0.118,0.001,0.26c-0.02,0.143-0.01,0.244,0.029,0.307c-0.108,0.241-0.172,0.399-0.189,0.476
			c-0.021,0.101-0.023,0.168-0.005,0.198l-0.018,0.076c-0.012,0.051-0.086,0.14-0.224,0.268c0.028,0.113,0.02,0.271-0.027,0.474
			c-0.046,0.202-0.043,0.363,0.01,0.481c-0.006,0.025-0.036,0.071-0.091,0.139c-0.056,0.067-0.063,0.119-0.018,0.156
			c-0.03,0.021-0.071,0.023-0.122,0.012l-0.045,0.189c-0.03,0.02-0.085,0.021-0.159,0.003c-0.007,0.025,0.007,0.089,0.035,0.188
			c0.03,0.101,0.04,0.176,0.028,0.226c-0.022,0.102-0.088,0.153-0.195,0.155c-0.012,0.051,0.004,0.28,0.042,0.688
			c-0.024-0.006-0.054,0.001-0.085,0.021l-0.047,0.029l0.104,0.423c-0.006,0.025-0.032,0.053-0.079,0.082
			c-0.047,0.029-0.073,0.057-0.079,0.081c-0.006,0.026,0.012,0.123,0.053,0.292c-0.107,0.241-0.181,0.438-0.215,0.59
			c-0.059,0.253-0.061,0.492-0.006,0.718c-0.093,0.059-0.151,0.139-0.175,0.239c-0.013,0.051-0.009,0.157,0.007,0.321
			c-0.018,0.075-0.077,0.103-0.179,0.079c-0.014,0.289,0.013,0.469,0.075,0.535c-0.012,0.053-0.058,0.082-0.14,0.089l-0.119,0.173
			c-0.006,0.025-0.019,0.049-0.036,0.07c-0.02,0.022-0.021,0.063-0.008,0.119c-0.012,0.051,0.021,0.084,0.098,0.103
			c-0.053,0.228-0.065,0.344-0.04,0.351c-0.031,0.02-0.054,0.055-0.064,0.104c-0.006,0.024,0.008,0.082,0.04,0.169l0.051,0.131
			c-0.031,0.02-0.08,0.057-0.145,0.107c-0.065,0.052-0.113,0.086-0.146,0.105c-0.006,0.025,0.012,0.068,0.05,0.131
			c0.039,0.063,0.067,0.109,0.088,0.141c-0.091,0.166-0.164,0.255-0.222,0.27l-0.035,0.15c-0.022,0.104-0.095,0.299-0.215,0.591
			c0.078,0.124,0.104,0.25,0.073,0.376c-0.012,0.052-0.049,0.096-0.111,0.135c-0.058,0.254-0.127,0.438-0.206,0.553
			c0.021,0.029,0.02,0.09-0.002,0.178c-0.02,0.09-0.022,0.162-0.01,0.219l-0.188,0.117c-0.04,0.177-0.078,0.287-0.116,0.332
			l0.076,0.018c0.051,0.012,0.072,0.031,0.066,0.057c0.027,0.113-0.014,0.235-0.125,0.369c0.004,0.215-0.008,0.385-0.037,0.512
			l-0.034,0.152c0.035,0.193-0.01,0.33-0.135,0.407c0.029,0.22,0.02,0.444-0.034,0.673l-0.024,0.112
			c0.038,0.062,0.044,0.149,0.018,0.265c-0.024,0.113-0.028,0.186-0.01,0.217c-0.031,0.02-0.067,0.064-0.11,0.135
			c-0.042,0.07-0.078,0.115-0.109,0.135c-0.023,0.102-0.051,0.161-0.082,0.182c-0.058,0.014-0.126,0.051-0.205,0.112
			c-0.081,0.062-0.137,0.103-0.168,0.121c-0.023,0.101-0.085,0.192-0.185,0.276c-0.099,0.084-0.156,0.164-0.175,0.24L56.6,44.77
			c-0.024-0.006-0.051-0.013-0.076-0.017c0.015,0.056-0.017,0.127-0.091,0.218l-0.129,0.05c-0.094,0.059-0.167,0.082-0.217,0.07
			c-0.006,0.025-0.04,0.058-0.103,0.097c-0.063,0.038-0.112,0.08-0.148,0.126c-0.052-0.014-0.118-0.008-0.202,0.014
			c-0.085,0.021-0.141,0.026-0.165,0.021c-0.026-0.006-0.061-0.027-0.105-0.064c-0.169,0.041-0.328,0.045-0.48,0.01
			c-0.151-0.035-0.374-0.139-0.667-0.313c-0.294-0.175-0.528-0.281-0.706-0.322c-0.05-0.011-0.076-0.037-0.08-0.078
			c-0.006-0.041-0.02-0.063-0.045-0.069l-0.15-0.034c-0.113,0.027-0.221,0.029-0.32,0.006c-0.305-0.07-0.593-0.27-0.862-0.598
			c0.023-0.102,0.01-0.157-0.041-0.17l-0.151-0.033c-0.02-0.032-0.063-0.109-0.127-0.23s-0.114-0.225-0.147-0.313
			c0.006-0.025,0.023-0.049,0.056-0.066l0.076,0.018c-0.117-0.188-0.188-0.403-0.211-0.647c0.006-0.024,0.031-0.047,0.075-0.063
			c0.044-0.016,0.067-0.037,0.073-0.063c0.007-0.025,0.004-0.072-0.008-0.143c-0.011-0.068-0.004-0.1,0.021-0.094
			c0.012-0.051-0.027-0.113-0.117-0.188c0.031-0.02,0.041-0.064,0.03-0.133c-0.011-0.069-0.015-0.117-0.008-0.143
			c0.044-0.07,0.066-0.117,0.072-0.144l0.054-0.228c0.006-0.025,0.004-0.072-0.009-0.143c-0.01-0.068-0.01-0.129,0.002-0.18
			l0.019-0.075l-0.029-0.048c0.006-0.023,0.012-0.051,0.019-0.074c0.006-0.025,0.017-0.104,0.032-0.232
			c0.017-0.129,0.019-0.223,0.004-0.279c0.031-0.02,0.071-0.075,0.119-0.172c0.049-0.094,0.089-0.151,0.119-0.172l-0.061-0.254
			c0.072-0.09,0.115-0.158,0.128-0.211l0.046-0.027c0.006-0.025,0.012-0.051,0.018-0.076l0.026-0.114
			c0.012-0.05,0.022-0.127,0.033-0.231c0.011-0.104,0.024-0.193,0.043-0.27c0.018-0.076,0.055-0.182,0.11-0.314
			c0.059-0.133,0.096-0.236,0.112-0.313l0.025-0.113c0.012-0.051-0.001-0.107-0.04-0.17c0.14-0.607,0.261-1.02,0.362-1.234
			c0.007-0.024,0.024-0.047,0.056-0.066l0.047-0.029c-0.014-0.056-0.007-0.142,0.02-0.255c0.025-0.114,0.045-0.194,0.058-0.247
			l-0.021-0.085c-0.019-0.03-0.025-0.06-0.021-0.084s0.034-0.086,0.082-0.182c0.049-0.095,0.078-0.169,0.09-0.22
			c-0.047-0.144-0.038-0.233,0.022-0.273c-0.019-0.029-0.021-0.084-0.003-0.16c0.013-0.05,0.033-0.112,0.063-0.186
			c0.03-0.074,0.048-0.122,0.054-0.147c0.012-0.051,0.022-0.127,0.034-0.231c0.01-0.104,0.018-0.169,0.023-0.194
			c0.022-0.101,0.082-0.182,0.176-0.239c-0.015-0.056-0.051-0.098-0.111-0.125c-0.06-0.027-0.101-0.057-0.12-0.088
			c-0.031,0.021-0.173,0-0.427-0.058c-0.075-0.018-0.129-0.017-0.159,0.002c-0.046-0.036-0.131-0.068-0.257-0.098
			c-0.052-0.012-0.161-0.023-0.331-0.037c-0.171-0.012-0.304-0.043-0.396-0.092c-0.026-0.006-0.072-0.035-0.141-0.091
			c-0.067-0.056-0.114-0.087-0.139-0.092c-0.025-0.007-0.07-0.017-0.134-0.031c-0.064-0.014-0.104-0.036-0.123-0.067l-0.029-0.047
			c-0.025-0.006-0.052-0.012-0.076-0.018l-0.125-0.148L50.7,32.912l-0.548-0.405c-0.101-0.023-0.167-0.024-0.197-0.006
			c-0.064-0.068-0.219-0.176-0.463-0.326c-0.246-0.149-0.407-0.286-0.484-0.41l-0.189-0.044c-0.059-0.094-0.139-0.212-0.237-0.354
			c-0.104-0.143-0.195-0.277-0.287-0.405c-0.091-0.128-0.159-0.263-0.206-0.407c-0.252-0.298-0.385-0.527-0.4-0.69
			c-0.059-0.094-0.114-0.253-0.17-0.479c-0.056-0.226-0.089-0.366-0.103-0.424l0.035-0.151c-0.039-0.063-0.066-0.121-0.078-0.178
			l0.008-0.038l0.055-0.067c-0.12-0.4-0.128-0.828-0.022-1.284l0.087-0.379c0.012-0.051,0.019-0.109,0.021-0.175
			c0-0.066,0.006-0.112,0.013-0.138c0.018-0.075,0.039-0.123,0.071-0.143c0.006-0.025,0.02-0.109,0.037-0.251
			c0.02-0.143,0.047-0.235,0.085-0.28l0.166-0.202c0.006-0.024,0.006-0.051-0.001-0.08c-0.008-0.027-0.007-0.055-0.001-0.08
			c0.006-0.024,0.019-0.056,0.04-0.091c0.021-0.034,0.034-0.064,0.04-0.091c0.012-0.05,0.016-0.122,0.011-0.217
			c-0.006-0.094,0.002-0.179,0.021-0.255l0.134-0.409l0.026-0.113c0.046-0.202,0.084-0.313,0.114-0.334l0.019-0.075
			c0.012-0.05,0.044-0.136,0.099-0.257c0.055-0.12,0.091-0.219,0.108-0.295l0.024-0.113c0.024,0.006,0.06,0.007,0.101,0.003
			s0.076-0.016,0.106-0.035c0.007-0.025-0.002-0.048-0.023-0.065c-0.022-0.019-0.017-0.05,0.021-0.095
			c0.006-0.025,0.035-0.039,0.088-0.04c0.055-0.001,0.084-0.014,0.091-0.04c-0.027-0.112-0.033-0.206-0.017-0.282l0.057-0.067
			c0.036-0.045,0.062-0.092,0.072-0.144l0.019-0.076l0.085-0.02c0.036-0.045,0.067-0.124,0.095-0.238
			c0.025-0.113,0.07-0.189,0.132-0.229c0.059-0.253,0.113-0.374,0.163-0.362c0.023-0.102,0.063-0.179,0.114-0.233
			c0.053-0.054,0.125-0.111,0.218-0.17c0.094-0.059,0.159-0.109,0.196-0.154c0.131,0.004,0.434,0.02,0.907,0.049
			c0.023,0.006,0.057,0.039,0.097,0.102c0.081-0.008,0.216-0.017,0.405-0.026l0.075,0.018l0.597,0.017
			c0.176,0.041,0.379,0.141,0.607,0.301c0.025,0.005,0.066,0.001,0.123-0.013c0.097,0.049,0.211,0.128,0.346,0.239
			c0.135,0.11,0.236,0.188,0.307,0.23c0.001,0.106,0.053,0.23,0.153,0.374c0.1,0.144,0.148,0.281,0.146,0.413l0.079,0.178
			c-0.006,0.025-0.029,0.067-0.069,0.124c-0.039,0.058-0.052,0.114-0.039,0.171c-0.006,0.025,0.008,0.056,0.039,0.089
			c0.032,0.034,0.046,0.064,0.04,0.09l-0.008,0.037c-0.032,0.02-0.051,0.042-0.057,0.067c-0.005,0.025,0.005,0.04,0.029,0.046
			l0.021,0.085l-0.047,0.029l-0.044,0.189c0.165,0.092,0.22,0.264,0.161,0.517c-0.019,0.076-0.046,0.137-0.082,0.182
			c-0.006,0.025,0.004,0.04,0.028,0.046l0.068,0.056c0.007,0.082-0.01,0.185-0.052,0.308c-0.042,0.125-0.057,0.214-0.041,0.27
			c-0.081,0.116-0.104,0.217-0.07,0.305c-0.052-0.012-0.093-0.008-0.123,0.012l-0.023,0.633c-0.057,0.121-0.105,0.282-0.152,0.484
			c-0.028,0.127-0.083,0.475-0.16,1.042c-0.092,0.059-0.135,0.183-0.124,0.371c-0.006,0.024-0.025,0.048-0.056,0.066l-0.047,0.029
			c-0.032,0.02-0.038,0.046-0.019,0.076l0.068,0.056c0.018,0.031,0.011,0.063-0.022,0.094c-0.035,0.033-0.054,0.063-0.06,0.087
			c0.019,0.031,0.012,0.122-0.023,0.274l0.029,0.046c0.014,0.058,0.018,0.098,0.012,0.123l-0.056,0.067
			c-0.082,0.354-0.084,0.594-0.005,0.718c-0.012,0.051-0.02,0.109-0.021,0.175c-0.002,0.066-0.005,0.113-0.011,0.137l-0.018,0.076
			c0.059,0.094,0.092,0.235,0.103,0.424c0.009,0.188,0.03,0.326,0.064,0.414l0.288,0.306c0.045,0.037,0.099,0.036,0.16-0.003
			c0.063-0.039,0.119-0.053,0.169-0.041l0.176-0.239c0.112-0.027,0.225-0.142,0.339-0.342c0.11-0.2,0.188-0.322,0.223-0.368
			c0.025,0.006,0.115-0.039,0.272-0.138c-0.021-0.03-0.023-0.071-0.013-0.122c0.012-0.051,0.008-0.092-0.012-0.122
			c0.057-0.014,0.117-0.073,0.181-0.179c0.064-0.105,0.141-0.174,0.229-0.207c0.006-0.025,0.036-0.071,0.092-0.139
			c0.055-0.067,0.062-0.119,0.017-0.156c0.063-0.039,0.13-0.136,0.205-0.292c0.076-0.155,0.158-0.25,0.246-0.283
			c-0.046-0.036-0.062-0.08-0.05-0.131s0.045-0.083,0.104-0.097c-0.021-0.031-0.023-0.072-0.014-0.123
			c0.013-0.051,0.048-0.121,0.109-0.214c0.061-0.093,0.095-0.151,0.101-0.177l0.009-0.038c-0.02-0.031-0.026-0.06-0.021-0.085
			c0.053-0.228,0.18-0.49,0.383-0.791c-0.027-0.112-0.036-0.193-0.023-0.244c0.012-0.051,0.054-0.148,0.127-0.291
			c0.071-0.144,0.118-0.253,0.136-0.329c0.023-0.1,0.052-0.253,0.085-0.459c0.034-0.205,0.063-0.358,0.086-0.46l0.019-0.076
			c0.029-0.019,0.05-0.041,0.056-0.066l0.025-0.114c0.019-0.076,0.031-0.198,0.046-0.369c0.012-0.17,0.026-0.294,0.045-0.369
			l0.024-0.113c0.006-0.025,0.027-0.061,0.064-0.105c0.036-0.045,0.059-0.08,0.063-0.105l0.035-0.151
			c0.005-0.025,0.022-0.047,0.055-0.067c0.062-0.039,0.097-0.071,0.103-0.097l0.525-0.718c0.331-0.057,0.623-0.056,0.877,0.002
			C58.679,22.799,58.7,22.764,58.718,22.689z"/>
		<path fill="#FFFFFF" d="M64.753,40.572c0.234,0.135,0.45,0.305,0.644,0.508l0.104,0.063c0.039,0.063,0.09,0.188,0.153,0.375
			c0.063,0.188,0.128,0.315,0.191,0.384c-0.018,0.076,0.007,0.256,0.076,0.537l-0.209,0.91c-0.006,0.023-0.063,0.064-0.169,0.121
			c-0.105,0.056-0.178,0.105-0.214,0.15c-0.137,0.127-0.271,0.19-0.402,0.188c-0.187,0.117-0.303,0.21-0.344,0.279
			c-0.379-0.086-0.642-0.106-0.785-0.061c-0.039-0.063-0.135-0.109-0.287-0.146c-0.102-0.022-0.209-0.102-0.325-0.233
			c-0.115-0.134-0.211-0.209-0.287-0.228c0.004-0.131-0.077-0.244-0.242-0.334c-0.017-0.164-0.059-0.268-0.129-0.311
			c0.029-0.127,0.023-0.307-0.016-0.542s-0.044-0.416-0.015-0.544c0.035-0.15,0.082-0.246,0.146-0.285l0.222-0.27l0.009-0.037
			l0.018-0.076c0.005-0.023,0.048-0.068,0.129-0.129c0.081-0.063,0.114-0.121,0.103-0.178c0.087-0.032,0.191-0.088,0.316-0.166
			c0.025,0.006,0.169-0.041,0.433-0.141C64.055,40.425,64.349,40.479,64.753,40.572z M68.78,19.048
			c0.178,0.041,0.325,0.148,0.445,0.322c0.119,0.175,0.229,0.286,0.322,0.334c0.002,0.107,0.051,0.218,0.145,0.333
			c0.094,0.114,0.146,0.2,0.16,0.256c-0.006,0.025-0.01,0.071-0.011,0.138c-0.003,0.066-0.021,0.109-0.05,0.129
			c0.103,0.13,0.084,0.498-0.056,1.105c-0.012,0.396-0.036,0.685-0.077,0.86c-0.029,0.128-0.08,0.235-0.154,0.324
			c0.033,0.088,0.028,0.227-0.017,0.416c-0.043,0.189-0.07,0.31-0.083,0.36l0.032,0.207c0.021,0.139,0.021,0.259-0.003,0.358
			l-0.287,1.252c-0.006,0.026-0.046,0.084-0.12,0.173c-0.006,0.025-0.008,0.064-0.008,0.118c0.001,0.054-0.001,0.094-0.006,0.118
			c-0.006,0.025-0.016,0.063-0.026,0.114l-0.056,0.067c-0.048,0.096-0.075,0.242-0.082,0.44c-0.005,0.198-0.017,0.336-0.033,0.411
			c-0.018,0.075-0.068,0.184-0.154,0.324c-0.013,0.051-0.004,0.133,0.023,0.245c-0.035,0.151-0.082,0.381-0.139,0.688
			c-0.059,0.307-0.105,0.549-0.146,0.725c-0.104,0.456-0.25,0.915-0.437,1.378c0.027,0.113,0.035,0.194,0.022,0.245
			c-0.006,0.025-0.057,0.134-0.153,0.324L67.78,31.04c-0.053,0.228-0.104,0.574-0.159,1.042l-0.132,0.569
			c-0.012,0.051-0.019,0.108-0.021,0.175c-0.002,0.067-0.005,0.112-0.011,0.137c-0.013,0.052-0.038,0.105-0.077,0.162
			c-0.04,0.058-0.063,0.1-0.068,0.124c-0.006,0.025-0.002,0.066,0.013,0.122c0.013,0.058,0.015,0.11,0.003,0.161
			c-0.007,0.025-0.016,0.063-0.026,0.114l-0.056,0.066c-0.007,0.026,0.005,0.068,0.03,0.127c0.026,0.06,0.034,0.115,0.022,0.165
			c-0.012,0.051-0.037,0.098-0.073,0.144c-0.037,0.045-0.059,0.08-0.063,0.104c-0.013,0.051-0.023,0.129-0.034,0.232
			c-0.011,0.104-0.02,0.169-0.024,0.193c-0.017,0.076-0.054,0.147-0.108,0.215c-0.056,0.068-0.086,0.113-0.093,0.139
			c-0.035,0.045-0.032,0.086,0.013,0.123s0.063,0.068,0.06,0.094c-0.029,0.127-0.086,0.308-0.165,0.541
			c-0.081,0.234-0.133,0.402-0.156,0.504c-0.046,0.203-0.055,0.414-0.023,0.633c-0.1,0.191-0.161,0.35-0.189,0.477
			c-0.059,0.254-0.065,0.465-0.024,0.633c-0.076,0.33-0.106,0.522-0.094,0.578c-0.012,0.051-0.039,0.059-0.085,0.021
			s-0.081-0.059-0.104-0.064c-0.057,0.014-0.171,0.107-0.345,0.281c-0.025-0.006-0.059-0.008-0.1-0.003
			c-0.04,0.004-0.074,0.003-0.099-0.003c-0.076-0.018-0.167-0.059-0.271-0.122s-0.195-0.104-0.271-0.123
			c-0.033-0.087-0.148-0.22-0.349-0.399c0.013-0.05-0.002-0.105-0.04-0.168c-0.039-0.063-0.051-0.133-0.032-0.207
			c-0.214-0.343-0.328-0.541-0.341-0.6c-0.034-0.087-0.04-0.234-0.02-0.443c0.021-0.207,0.024-0.34,0.012-0.396l-0.062-0.255
			c-0.009-0.082-0.004-0.187,0.013-0.315s0.033-0.231,0.051-0.31c0.104-0.8,0.159-1.213,0.165-1.238
			c0.007-0.024,0.025-0.06,0.064-0.105c0.035-0.044,0.061-0.092,0.072-0.144c0.006-0.024,0.005-0.084,0.001-0.179
			c-0.006-0.095-0.002-0.166,0.011-0.218c0.021-0.101,0.086-0.293,0.191-0.574c0.104-0.282,0.163-0.516,0.181-0.697l0.122-0.531
			c0.012-0.051,0.025-0.147,0.046-0.289c0.02-0.143,0.041-0.264,0.063-0.365c0.019-0.076,0.042-0.217,0.076-0.422
			c0.035-0.205,0.063-0.358,0.086-0.46c0.013-0.05,0.041-0.123,0.092-0.219c0.047-0.095,0.077-0.168,0.09-0.219
			c0.006-0.024,0.002-0.072-0.009-0.142c-0.012-0.068-0.013-0.116-0.007-0.142l0.043-0.189c0.041-0.177,0.133-0.462,0.277-0.855
			l0.034-0.151l0.069-0.305c0.029-0.125,0.103-0.215,0.222-0.268c0.006-0.025-0.008-0.049-0.043-0.07s-0.047-0.057-0.035-0.107
			c0.073-0.09,0.123-0.218,0.147-0.385c0.024-0.168,0.06-0.287,0.103-0.357l-0.063-0.254c0.023-0.1,0.047-0.229,0.067-0.383
			c0.022-0.154,0.046-0.283,0.069-0.385c0.027-0.125,0.097-0.31,0.207-0.551c0.017-0.076,0.063-0.104,0.139-0.088
			c-0.02-0.03-0.033-0.088-0.04-0.17c-0.009-0.081-0.021-0.137-0.041-0.169c0.012-0.05,0.033-0.091,0.068-0.124
			c0.032-0.031,0.054-0.061,0.06-0.086c0.012-0.051,0.017-0.129,0.015-0.236c-0.004-0.106,0-0.172,0.007-0.198
			c0.011-0.05,0.037-0.11,0.081-0.181c0.042-0.07,0.066-0.117,0.072-0.144c0.013-0.05,0.035-0.151,0.069-0.304
			c0.035-0.151,0.059-0.252,0.07-0.303c0.054-0.121,0.135-0.389,0.244-0.803c0.107-0.415,0.211-0.717,0.308-0.908
			c0.006-0.025,0.038-0.051,0.099-0.077c0.06-0.026,0.092-0.052,0.099-0.077c0.006-0.025,0.015-0.063,0.025-0.114
			c-0.021-0.031-0.021-0.058-0.002-0.08c0.019-0.022,0.04-0.031,0.066-0.025c-0.021-0.03-0.02-0.097,0.005-0.198l0.134-0.408
			c-0.028-0.112-0.038-0.182-0.032-0.207c0.007-0.025,0.026-0.061,0.064-0.105c0.036-0.045,0.062-0.092,0.073-0.143l-0.021-0.085
			c0.012-0.05,0.021-0.089,0.026-0.114c0.012-0.051,0.038-0.11,0.082-0.181c0.042-0.07,0.064-0.118,0.07-0.144
			c0.013-0.05,0.026-0.113,0.045-0.189c0.018-0.076,0.035-0.131,0.058-0.166c0.021-0.035,0.044-0.076,0.069-0.125
			c0.023-0.047,0.058-0.078,0.102-0.096C68.683,19.041,68.729,19.037,68.78,19.048z"/>
	</g>
</g>
</svg>
