<?xml version="1.0" encoding="utf-8"?>
<!-- Generator: Adobe Illustrator 16.0.0, SVG Export Plug-In . SVG Version: 6.00 Build 0)  -->
<!DOCTYPE svg PUBLIC "-//W3C//DTD SVG 1.1//EN" "http://www.w3.org/Graphics/SVG/1.1/DTD/svg11.dtd">
<svg version="1.1" id="Layer_1" xmlns="http://www.w3.org/2000/svg" xmlns:xlink="http://www.w3.org/1999/xlink" x="0px" y="0px"
	 width="89.218px" height="118.797px" viewBox="0 0 89.218 118.797" enable-background="new 0 0 89.218 118.797"
	 xml:space="preserve">
<path fill="#998282" d="M2.244,56.002c0.006,0.042,0.012,0.084,0.019,0.126c0.106,0.679,0.22,1.261,0.354,1.813
	c0.147,0.593,0.346,1.146,0.566,1.675c-0.03,0.362-0.057,0.726-0.046,1.105c0.017,0.501,0.071,1.07,0.18,1.865
	c0.068,0.489,0.163,1.149,0.287,2.005c0.122,0.832,0.287,1.906,0.494,3.23c0.312,1.978,0.573,3.566,0.79,4.77
	c0.259,1.43,0.486,2.489,0.715,3.322c0.196,0.724,0.47,1.571,0.904,2.438c-0.114,0.483-0.184,0.942-0.213,1.351
	c-0.013,0.165-0.02,0.33-0.021,0.496c-0.01,0.956,0.101,1.654,0.255,2.64c0.347,2.204,1.352,7.505,5.557,29.606
	c0.011,0.059,0.022,0.117,0.035,0.176c0.917,4.293,4.488,7.177,8.887,7.177c0.569,0,1.144-0.047,1.75-0.142
	c2.871-0.449,6.116-0.982,8.229-1.605c1.123-0.323,2.425-0.83,3.719-1.613c1.021,0.352,1.988,0.455,2.762,0.455
	c0.414,0,0.904-0.039,1.313-0.104c0.099-0.015,0.196-0.032,0.293-0.052l10.275-2.016c0.365-0.071,0.722-0.176,1.073-0.298
	c0.619,0.123,1.197,0.169,1.693,0.169c0.415,0,0.905-0.039,1.315-0.104c0.097-0.016,0.193-0.032,0.29-0.052l10.275-2.016
	c0.467-0.092,0.919-0.238,1.361-0.41c0.22,0.014,0.429,0.043,0.66,0.043c0.454,0,0.913-0.036,1.362-0.106l3.424-0.538
	c1.266-0.198,2.44-0.651,3.465-1.322c0.92,0.252,1.733,0.312,2.298,0.312h0.001c0.448,0,0.901-0.036,1.346-0.105
	c0.376-0.06,0.747-0.146,1.111-0.258l0.178-0.048c8.572-2.315,9.091-7.51,8.637-10.399c-0.508-3.234-1.871-6.792-4.141-10.783
	c0.452-1.122,0.794-2.451,0.906-4.008c0.024-0.336,0.027-0.673,0.009-1.01c-0.06-1.082-0.306-3.49-1.142-8.813
	c-0.037-0.237-0.085-0.473-0.144-0.706c-0.435-1.729-0.991-3.194-1.621-4.473c1.886-0.465,3.391-2.095,3.629-4.206l4.227-37.753
	l0.049-0.813c0.044-0.751-0.201-1.445-0.626-1.997c0.673-0.837,1.121-1.93,1.215-3.179c0.041-0.535-0.007-1.057-0.093-1.565
	c-0.01-0.111-0.021-0.222-0.035-0.331c-0.052-2.571-1.67-4.93-3.897-5.586c0.65-0.791,1.127-1.758,1.328-2.814
	c0.538-2.848-1.12-5.272-3.707-5.414c-0.19-0.01-0.378-0.004-0.571,0.01c-0.005-2.357-1.55-4.212-3.801-4.337
	c-1.739-0.096-3.449,0.866-4.552,2.373c-0.654-0.653-1.527-1.071-2.548-1.124c-0.657-0.039-1.308,0.089-1.925,0.328
	c-0.985-1.102-2.227-1.914-3.629-2.234c-0.715-0.164-1.414-0.185-2.081-0.091c-2.652-0.197-4.993,1.516-6.116,4.251
	c-1.968-0.303-3.788,0.423-5.063,1.842c-1.986,1.177-3.401,3.582-3.58,6.579c-0.06,1.006,0.033,1.993,0.24,2.936
	c0.076,0.929,0.292,1.822,0.624,2.651c-0.04,0.178-0.093,0.35-0.113,0.535l-0.747,6.655c-0.58-0.247-1.188-0.438-1.834-0.511
	l-2.49-0.28c-0.584-0.065-1.174-0.053-1.752,0.038c-1.822,0.287-3.39,1.318-4.391,2.768c-0.116-0.054-0.227-0.123-0.346-0.172
	c-1.086-0.448-2.212-0.676-3.347-0.676c-0.415,0-0.896,0.038-1.307,0.103c-2.877,0.454-5.292,2.266-6.459,4.845
	c-0.037,0.081-0.072,0.163-0.106,0.245c-0.165,0.399-0.277,0.778-0.369,1.147c-0.085,0.018-0.173,0.026-0.257,0.047
	c-0.113-0.055-0.223-0.116-0.338-0.166c-0.995-0.426-2.068-0.665-3.189-0.708c-0.035-0.002-0.299-0.007-0.367-0.007
	c-0.531,0-1.08,0.042-1.705,0.137c-0.412,0.066-0.826,0.153-1.262,0.265c-0.113,0.028-0.226,0.06-0.338,0.093
	c-0.582,0.134-1.157,0.335-1.714,0.607l-0.798,0.392c-0.375,0.185-0.76,0.382-1.127,0.581c-0.19,0.103-0.38,0.199-0.585,0.298
	c0,0-0.934,0.454-0.983,0.479c-0.379,0.195-0.72,0.389-1.079,0.604c-0.19,0.116-0.353,0.254-0.53,0.38
	c-0.031-0.014-0.062-0.031-0.093-0.044c-1.021-0.424-2.095-0.661-3.191-0.703c-0.035-0.002-0.274-0.007-0.343-0.007
	c-1.07,0-2.12,0.185-3.184,0.573c-2.192,0.822-3.956,2.531-4.84,4.688c-0.268,0.654-0.443,1.351-0.527,2.06
	c-0.183,1.388-0.027,2.844,0.172,4.705C1.452,50.149,1.775,52.671,2.244,56.002z M49.324,31.957
	c-0.068-0.058-0.131-0.127-0.201-0.182c-0.612-0.485-1.285-0.872-1.995-1.166l2.076,0.233c0.082,0.01,0.16,0.033,0.24,0.05
	L49.324,31.957z"/>
<g>
	<g>
		<g>
			<path fill="#FFFFFF" d="M11.786,64.779c-0.236,0-0.466-0.006-0.69-0.017c-1.361-0.062-2.572-0.333-3.685-0.826
				c-0.038-0.017-0.076-0.034-0.113-0.052c-0.884-0.409-1.689-0.916-2.392-1.506c-0.926-0.782-1.684-1.712-2.267-2.775
				c-0.435-0.789-0.782-1.691-1.023-2.666c-0.134-0.549-0.247-1.131-0.354-1.811c-0.006-0.042-0.013-0.083-0.019-0.125
				c-0.468-3.331-0.792-5.854-0.99-7.711c-0.199-1.86-0.354-3.316-0.172-4.704c0.084-0.709,0.26-1.407,0.528-2.061
				c0.879-2.148,2.634-3.854,4.815-4.679c1.088-0.398,2.136-0.583,3.205-0.583c0.077,0,0.191,0.001,0.268,0.004
				c1.159,0.041,2.241,0.278,3.271,0.706c0.996,0.411,1.922,1.001,2.735,1.748c0.231,0.211,0.449,0.437,0.653,0.674
				c0.338,0.394,0.647,0.812,0.919,1.244c0.034,0.055,0.068,0.109,0.101,0.165c0.474,0.795,0.821,1.662,1.059,2.65
				c0.083,0.341,0.185,0.837,0.284,1.47c0,0,0.292,1.867,0.325,2.085c1.547,0.214,2.974,0.815,4.182,1.768
				c1.199,0.954,2.072,2.106,2.622,3.444c0.017,0.04,0.033,0.081,0.048,0.121c0.518,1.322,0.935,3.399,0.05,5.878
				c-0.628,1.827-1.805,3.406-3.415,4.579c-0.906,0.664-2.015,1.227-3.469,1.759c-0.733,0.275-1.51,0.51-2.31,0.7
				c-0.792,0.187-1.573,0.324-2.331,0.411C13.016,64.742,12.39,64.779,11.786,64.779z"/>
			<path fill="#FFFFFF" d="M20.515,63.019c-0.661,0-1.317-0.075-1.951-0.223c-0.994-0.238-1.88-0.612-2.91-1.219
				c-0.728-0.42-1.429-0.944-2.086-1.557c-0.704-0.66-1.303-1.375-1.793-2.139c-0.231-0.35-0.441-0.702-0.627-1.047
				c-0.453-0.864-0.759-1.732-0.971-2.72c-0.075-0.335-0.179-0.889-0.291-1.606l-0.33-2.095c-0.185-1.174-0.332-2.181-0.446-3.027
				c-0.113-0.828-0.203-1.526-0.269-2.076c-0.095-0.756-0.147-1.376-0.163-1.92c-0.024-0.998,0.025-2.288,0.61-3.722
				c0.675-1.664,1.853-3.02,3.5-4.029c0.339-0.206,0.69-0.404,1.08-0.604c0.05-0.026,0.983-0.48,0.983-0.48
				c0.206-0.099,0.395-0.195,0.585-0.298c0.367-0.199,0.751-0.396,1.127-0.582l0.81-0.396c0.551-0.269,1.12-0.468,1.697-0.601
				c0.107-0.032,0.215-0.062,0.324-0.09c0.455-0.117,0.89-0.208,1.321-0.275c0.552-0.086,1.112-0.131,1.658-0.131
				c0.077,0,0.218,0.002,0.295,0.004c1.208,0.043,2.311,0.291,3.332,0.739c0.225,0.098,0.444,0.207,0.659,0.326
				c3.134,1.737,4.782,5.285,4.101,8.827c-0.182,0.949-0.522,1.865-1.016,2.736c0.004,0.024,0.008,0.048,0.011,0.072
				c0.039,0.246,0.069,0.503,0.087,0.771c0.208,0.198,0.408,0.408,0.598,0.628c2.318,2.73,2.626,6.563,0.818,9.801
				c-0.535,0.959-1.243,1.892-2.101,2.767c-0.677,0.692-1.438,1.345-2.256,1.932c-1.154,0.826-2.351,1.43-3.563,1.8
				C22.306,62.886,21.413,63.019,20.515,63.019z"/>
			<path fill="#FFFFFF" d="M29.879,61.786c-1.511,0-4.401-0.437-6.785-3.362c-0.042-0.051-0.083-0.103-0.123-0.154
				c-0.464-0.599-0.859-1.267-1.174-1.985c-0.266-0.599-0.477-1.261-0.653-2.056c-0.07-0.309-0.167-0.786-0.273-1.39
				c-0.072-0.409-0.157-0.918-0.255-1.534c-3.024-1.575-4.817-4.828-4.523-8.459c0.14-1.597,0.84-4.518,4.018-6.736
				c0.803-0.562,1.694-1.028,2.659-1.39c1.017-0.777,2.186-1.336,3.462-1.649c0.732-0.18,1.49-0.273,2.244-0.273
				c0.109,0,0.219,0.002,0.328,0.006c0.369-0.105,0.744-0.2,1.117-0.282c0.553-0.125,1.089-0.216,1.609-0.275
				c0.414-0.047,0.78-0.063,1.093-0.063c2.016,0,3.544,0.664,4.585,1.35c2.987,1.947,4.441,5.487,3.71,9.094
				c-0.43,2.102-1.499,3.939-3.107,5.355c0.05,0.412,0.183,1.479,0.189,1.552c0.058,0.582,0.107,1.053,0.147,1.414
				c0.064,0.587,0.103,1.056,0.122,1.419c0.039,0.818,0.012,1.483-0.084,2.125c-0.171,1.217-0.606,2.389-1.285,3.431
				C35.333,60.344,32.717,61.786,29.879,61.786C29.88,61.786,29.88,61.786,29.879,61.786z"/>
			<path fill="#FFFFFF" d="M34.645,51.388c-1.657,0-3.254-0.489-4.633-1.417c-2.018-1.347-3.374-3.464-3.824-5.98
				c-0.174-0.957-0.232-2.036-0.181-3.376c0.021-0.558,0.093-2.144,0.104-2.435l0.047-1.898c0.015-0.583,0.05-1.129,0.099-1.617
				c0.081-0.833,0.218-1.771,0.653-2.815c0.031-0.076,0.064-0.151,0.098-0.225c1.167-2.58,3.583-4.391,6.46-4.845
				c0.41-0.065,0.891-0.102,1.306-0.102c1.135,0,2.261,0.227,3.347,0.675c0.819,0.338,1.597,0.794,2.31,1.353
				c0.532,0.426,0.965,0.831,1.349,1.254c1.139,1.242,1.892,2.789,2.153,4.447c0.131,0.838,0.174,1.75,0.138,2.881
				c-0.022,0.718-0.066,1.488-0.131,2.293c-0.07,0.86-0.163,1.677-0.276,2.442c-0.146,0.98-0.301,1.739-0.487,2.396
				c-0.014,0.048-0.028,0.097-0.042,0.145c-0.526,1.732-1.375,3.188-2.523,4.327C39.001,50.496,36.877,51.388,34.645,51.388z"/>
			<path fill="#FFFFFF" d="M41.223,59.777c-0.365,0-0.708-0.021-1.029-0.056c-2.715-0.301-5.092-1.756-6.706-4.102
				c-1.731-2.489-1.993-5-1.521-7.077c-2.659-3.49-2.966-8.015-0.775-11.969c0.356-0.653,0.798-1.304,1.316-1.938
				c0.385-0.471,0.808-0.936,1.259-1.384c0.375-0.37,0.74-0.711,1.115-1.042c0.257-0.227,0.519-0.441,0.784-0.643
				c0.332-0.293,0.69-0.561,1.074-0.797c0.503-0.31,1.038-0.592,1.59-0.839c0.759-0.339,1.542-0.592,2.326-0.752
				c0.716-0.146,1.432-0.221,2.125-0.221c0.046,0,0.125,0.001,0.17,0.001c1.88,0.016,3.692,0.645,5.171,1.817
				c1.176,0.92,2.114,2.216,2.672,3.717c0.244,0.679,0.402,1.295,0.501,1.919c0.109,0.713,0.145,1.376,0.114,2.025
				c-0.002,0.038-0.004,0.075-0.006,0.113c-0.017,0.271-0.045,0.539-0.086,0.803c0.353,0.338,0.682,0.693,0.986,1.065
				c1.5,1.837,2.36,4.014,2.496,6.307c0.142,2.522-0.613,4.957-2.182,7.064c-1.666,2.286-4.039,4.028-7.007,5.113
				C43.987,59.497,42.589,59.777,41.223,59.777z"/>
			<path fill="#FFFFFF" d="M13.236,82.21c-2.465,0-4.818-1.075-6.457-2.951c-1.279-1.456-1.836-3.088-2.178-4.346
				c-0.227-0.832-0.455-1.891-0.714-3.321c-0.217-1.204-0.479-2.793-0.79-4.771c-0.208-1.324-0.372-2.398-0.495-3.23
				c-0.124-0.854-0.219-1.515-0.287-2.004c-0.109-0.794-0.164-1.364-0.18-1.865c-0.054-1.934,0.417-3.637,1.401-5.101
				c0.518-0.771,1.16-1.436,1.893-1.974c1.474-1.173,3.318-1.828,5.294-1.828c0.119,0,0.275,0.003,0.394,0.009
				c0.636,0.024,1.273,0.122,1.9,0.289c0.006-0.002,0.019-0.007,0.019-0.007c0.922-0.339,1.888-0.511,2.871-0.511
				c2.264,0,4.432,0.919,6.105,2.589c1.172,1.185,1.998,2.58,2.489,4.184c0.223,0.705,0.375,1.46,0.476,2.361
				c0.061,0.555,0.102,1.053,0.128,1.52c0.002,0.05,0.005,0.1,0.007,0.15c0.017,0.184,0.051,0.44,0.095,0.769
				c0.098,0.731,0.22,1.556,0.366,2.487c0.153,0.973,0.316,1.987,0.49,3.038c0.163,0.988,0.322,1.877,0.48,2.673
				c0.381,1.881,0.251,3.685-0.394,5.327c-1.145,2.951-3.813,4.999-6.951,5.313c-0.263,0.026-0.563,0.042-0.827,0.042
				c-0.239,0-0.477-0.011-0.714-0.031c-0.918,0.536-1.959,0.908-3.068,1.084C14.129,82.176,13.68,82.21,13.236,82.21z"/>
			<path fill="#FFFFFF" d="M20.715,82.071c-1.109,0-2.203-0.213-3.252-0.635c-1.885-0.761-3.447-2.105-4.53-3.894
				c-0.094-0.155-0.182-0.313-0.265-0.474c-0.464-0.9-0.794-1.828-0.981-2.758c-0.165-0.808-0.225-1.673-0.186-2.767
				c0.008-0.36,0.029-0.89,0.064-1.584c0.033-0.664,0.074-1.399,0.124-2.205c0.047-0.799,0.104-1.63,0.168-2.474
				c0.063-0.829,0.127-1.586,0.189-2.263c0.042-0.447,0.081-0.916,0.115-1.429c0.032-0.483,0.056-0.885,0.067-1.193
				c0.002-0.046,0.004-0.091,0.006-0.137c0.058-1.061,0.169-1.872,0.362-2.631c0.26-1.067,0.735-2.145,1.395-3.134
				c0.675-1.013,1.563-1.842,2.586-2.443c1.441-0.967,3.127-1.493,4.889-1.493c1.805,0,3.582,0.559,5.138,1.616
				c0.13,0.088,0.258,0.181,0.383,0.277c1.104,0.85,1.759,1.793,2.254,2.603c0.236,0.386,0.479,0.813,0.728,1.285
				c0.261,0.496,0.492,0.976,0.691,1.433c0.248,0.569,0.437,1.097,0.575,1.611c0.025,0.063,0.169,0.388,0.205,0.473
				c0,0,1.394,3.409,1.688,4.124c0.29,0.707,0.559,1.352,0.814,1.95c0.257,0.605,0.45,1.06,0.584,1.369
				c0.236,0.534,0.462,1.134,0.654,1.742c0.185,0.591,0.334,1.155,0.45,1.695c0.185,0.859,0.275,1.668,0.275,2.463
				c0,1.504-0.322,2.895-0.958,4.133c-0.067,0.13-0.138,0.259-0.212,0.386c-1.384,2.361-3.736,3.892-6.454,4.199
				c-0.296,0.034-0.687,0.056-0.985,0.056c-1.109,0-2.185-0.205-3.191-0.602C23.048,81.829,21.899,82.071,20.715,82.071z"/>
			<path fill="#FFFFFF" d="M32.408,78.542c-1.093,0-2.197-0.204-3.281-0.604c-0.068-0.025-0.136-0.051-0.204-0.079
				c-1.044-0.419-2.014-1.018-2.882-1.779c-0.649-0.571-1.239-1.229-1.814-2.018c-0.396-0.555-0.742-1.122-1.171-1.906
				c-0.296-0.543-0.611-1.137-0.95-1.797c-0.34-0.658-0.689-1.37-1.039-2.114c-0.335-0.717-0.641-1.383-0.919-2.011
				c-0.305-0.682-0.568-1.308-0.783-1.854c-0.405-1.031-0.641-1.842-0.765-2.635c-0.545-3.476,0.855-6.836,3.655-8.769
				c1.374-0.949,2.963-1.474,4.612-1.528c0.075-0.058,0.15-0.115,0.227-0.169c1.162-0.949,2.482-1.542,3.946-1.771
				c0.404-0.063,0.841-0.096,1.25-0.096c1.821,0,3.557,0.591,5.16,1.757c1.939,1.401,3.222,3.472,3.591,5.814
				c0.194,1.239,0.132,2.5-0.2,4.079c-0.046,0.263-0.113,0.801-0.114,1.727c-0.003,1.03,0.071,2.373,0.222,4.002
				c0.187,2.034,0.251,4.199-0.538,6.255C39.11,76.392,35.973,78.542,32.408,78.542z"/>
			<path fill="#FFFFFF" d="M37.843,78.681c-0.662,0-1.318-0.075-1.952-0.223c-0.994-0.238-1.88-0.612-2.91-1.219
				c-0.728-0.42-1.429-0.944-2.086-1.557c-0.704-0.66-1.302-1.375-1.792-2.139c-0.231-0.35-0.442-0.702-0.627-1.047
				c-0.451-0.857-0.759-1.73-0.971-2.722c-0.074-0.333-0.178-0.887-0.291-1.604l-0.33-2.103c-0.183-1.166-0.332-2.173-0.446-3.019
				c-0.112-0.826-0.201-1.517-0.267-2.06c-0.098-0.786-0.151-1.415-0.165-1.964c-0.027-0.966,0.021-2.288,0.637-3.762
				c0.678-1.626,1.84-2.955,3.456-3.951c0.346-0.211,0.702-0.412,1.097-0.616c0.054-0.028,0.984-0.48,0.984-0.48
				c0.203-0.097,0.388-0.192,0.576-0.293c0.379-0.206,0.768-0.404,1.147-0.591l0.799-0.392c0.552-0.269,1.122-0.469,1.699-0.602
				c0.1-0.03,0.201-0.058,0.303-0.084c0.467-0.12,0.895-0.209,1.319-0.276c0.577-0.09,1.133-0.134,1.674-0.134
				c0.085,0,0.241,0.002,0.327,0.005c1.163,0.038,2.275,0.286,3.305,0.737c0.225,0.099,0.445,0.208,0.66,0.327
				c3.136,1.738,4.784,5.287,4.101,8.831c-0.181,0.946-0.521,1.862-1.016,2.734c0.004,0.023,0.008,0.046,0.011,0.07
				c0.039,0.245,0.068,0.502,0.087,0.77c0.207,0.196,0.404,0.404,0.592,0.622c2.318,2.73,2.63,6.555,0.834,9.79
				c-0.552,0.985-1.253,1.907-2.1,2.775c-0.692,0.705-1.449,1.354-2.261,1.938c-1.156,0.829-2.354,1.434-3.57,1.805
				C39.643,78.547,38.746,78.681,37.843,78.681z"/>
		</g>
		<g>
			<path fill="#FFFFFF" d="M7.97,43.592l-0.009-0.056c0.051-0.124,0.144-0.209,0.276-0.26c0.134-0.049,0.276-0.071,0.428-0.067
				c0.15,0.005,0.302,0.039,0.452,0.101c0.151,0.063,0.289,0.152,0.413,0.266c0.087,0.101,0.159,0.2,0.22,0.296
				c0.058,0.097,0.112,0.246,0.161,0.448c0.05,0.204,0.103,0.482,0.158,0.837c0.056,0.355,0.133,0.841,0.229,1.457
				c0.059,0.375,0.12,0.792,0.183,1.25c0.063,0.459,0.123,0.928,0.183,1.407c0.057,0.479,0.116,0.948,0.18,1.409
				c0.063,0.459,0.114,0.868,0.153,1.225l0.311,2.651l0.544,0.26c0.152,0.072,0.292,0.121,0.421,0.149
				c0.127,0.028,0.295,0.026,0.503-0.007c0.206-0.032,0.487-0.101,0.843-0.204c0.354-0.104,0.825-0.249,1.415-0.438
				c0.755-0.253,1.315-0.398,1.68-0.437c0.366-0.038,0.628,0.007,0.79,0.135c0.101,0.08,0.166,0.156,0.195,0.228
				c0.028,0.072,0.012,0.189-0.052,0.353c-0.094,0.302-0.291,0.562-0.593,0.782c-0.301,0.22-0.818,0.465-1.554,0.732
				c-0.434,0.164-0.894,0.303-1.38,0.418c-0.485,0.114-0.953,0.197-1.404,0.249c-0.451,0.053-0.863,0.068-1.238,0.05
				c-0.373-0.017-0.655-0.069-0.846-0.153c-0.247-0.114-0.453-0.241-0.615-0.377c-0.163-0.138-0.3-0.308-0.411-0.511
				c-0.111-0.202-0.204-0.457-0.279-0.76c-0.074-0.305-0.146-0.681-0.216-1.129c-0.45-3.204-0.77-5.686-0.957-7.447
				C7.965,44.689,7.904,43.737,7.97,43.592z"/>
			<path fill="#FFFFFF" d="M20.854,40.421l0.035,0.051c0.146-0.08,0.313-0.145,0.499-0.193c0.188-0.048,0.37-0.087,0.552-0.116
				c0.181-0.028,0.347-0.04,0.498-0.035c0.15,0.005,0.273,0.03,0.369,0.072c0.135,0.075,0.186,0.2,0.151,0.377
				c-0.034,0.178-0.146,0.388-0.339,0.628c-0.086,0.128-0.26,0.304-0.526,0.528c-0.265,0.223-0.556,0.456-0.871,0.697
				c-0.315,0.24-0.621,0.461-0.916,0.66c-0.296,0.2-0.519,0.331-0.667,0.392c-0.199,0.088-0.366,0.257-0.503,0.51
				c-0.138,0.25-0.242,0.516-0.313,0.794c-0.07,0.28-0.095,0.552-0.07,0.817c0.023,0.263,0.106,0.452,0.248,0.563
				c0.12,0.096,0.252,0.143,0.393,0.14c0.141-0.004,0.402-0.083,0.784-0.239c0.587-0.206,1.012-0.307,1.278-0.3
				c0.266,0.006,0.416,0.121,0.451,0.345c0.082,0.523-0.46,1.231-1.628,2.123l-0.973,0.727l0.204,1.634
				c0.042,0.376,0.08,0.677,0.115,0.901c0.035,0.224,0.072,0.405,0.112,0.542c0.038,0.138,0.086,0.245,0.143,0.323
				c0.056,0.077,0.125,0.148,0.206,0.211c0.12,0.095,0.232,0.164,0.336,0.205c0.104,0.042,0.228,0.046,0.373,0.014
				s0.327-0.114,0.545-0.243c0.218-0.13,0.512-0.311,0.883-0.542c0.66-0.409,1.147-0.653,1.462-0.731
				c0.314-0.078,0.558-0.016,0.731,0.187c0.129,0.152,0.099,0.401-0.095,0.747c-0.193,0.347-0.472,0.706-0.838,1.079
				c-0.364,0.373-0.771,0.72-1.215,1.039c-0.445,0.319-0.86,0.537-1.248,0.655c-0.288,0.084-0.505,0.108-0.651,0.074
				c-0.146-0.035-0.386-0.15-0.717-0.348c-0.213-0.12-0.434-0.285-0.662-0.499c-0.228-0.213-0.412-0.434-0.553-0.661
				c-0.116-0.173-0.211-0.33-0.287-0.472c-0.074-0.142-0.145-0.35-0.204-0.628c-0.062-0.277-0.132-0.668-0.211-1.173
				s-0.189-1.206-0.331-2.104c-0.173-1.102-0.313-2.051-0.42-2.849c-0.109-0.797-0.193-1.454-0.256-1.97
				c-0.064-0.516-0.101-0.913-0.108-1.19c-0.007-0.276,0.001-0.444,0.027-0.505c0.024-0.063,0.123-0.145,0.292-0.248
				c0.169-0.103,0.36-0.209,0.572-0.319c0.229-0.112,0.492-0.24,0.788-0.383c0.296-0.142,0.595-0.294,0.896-0.456
				c0.301-0.163,0.595-0.313,0.882-0.455C20.365,40.66,20.625,40.533,20.854,40.421z"/>
			<path fill="#FFFFFF" d="M27.383,41.319L27.326,41.3c0.206-0.262,0.472-0.433,0.795-0.512c0.323-0.08,0.618-0.054,0.887,0.076
				c0.152,0.072,0.286,0.108,0.4,0.109c0.115,0.002,0.272-0.042,0.47-0.131c0.247-0.115,0.526-0.221,0.838-0.318
				c0.312-0.097,0.618-0.178,0.917-0.244c0.298-0.067,0.561-0.113,0.786-0.138c0.225-0.025,0.369-0.014,0.43,0.034
				c0.273,0.167,0.367,0.459,0.283,0.874c-0.085,0.416-0.309,0.767-0.67,1.053c-0.127,0.097-0.323,0.2-0.588,0.307
				c-0.266,0.11-0.548,0.227-0.847,0.349c-0.298,0.124-0.575,0.249-0.829,0.375s-0.435,0.236-0.544,0.33
				c-0.061,0.066-0.109,0.123-0.146,0.166c-0.037,0.045-0.06,0.13-0.067,0.254c-0.005,0.127-0.001,0.322,0.014,0.587
				c0.016,0.266,0.048,0.644,0.099,1.133c0.051,0.49,0.117,1.116,0.203,1.877c0.084,0.763,0.196,1.708,0.339,2.834
				c0.062,0.622,0.114,1.126,0.157,1.512c0.042,0.385,0.07,0.703,0.083,0.949c0.012,0.247,0.01,0.429-0.008,0.547
				c-0.017,0.118-0.046,0.208-0.09,0.273c-0.24,0.382-0.568,0.318-0.983-0.191c-0.065-0.084-0.127-0.191-0.182-0.315
				c-0.056-0.125-0.112-0.317-0.17-0.578c-0.059-0.258-0.128-0.611-0.207-1.058c-0.079-0.448-0.176-1.035-0.29-1.764
				c-0.07-0.448-0.138-0.903-0.2-1.361c-0.063-0.459-0.12-0.877-0.17-1.251c-0.05-0.376-0.089-0.708-0.118-1.002
				c-0.027-0.292-0.042-0.496-0.042-0.611c0.002-0.326-0.016-0.576-0.052-0.753c-0.037-0.175-0.105-0.309-0.208-0.397
				s-0.264-0.132-0.483-0.125c-0.221,0.006-0.511,0.037-0.874,0.094c-0.916,0.126-1.529,0.135-1.837,0.029
				c-0.309-0.104-0.444-0.379-0.408-0.827c0.025-0.29,0.241-0.578,0.647-0.862c0.405-0.284,0.906-0.501,1.5-0.652
				c0.322-0.089,0.576-0.182,0.765-0.278C27.112,41.598,27.265,41.472,27.383,41.319z"/>
			<path fill="#FFFFFF" d="M34.245,34.9c0.065-0.145,0.22-0.235,0.461-0.273c0.104-0.016,0.23,0.007,0.382,0.069
				s0.297,0.149,0.439,0.261c0.14,0.112,0.265,0.227,0.371,0.344c0.107,0.117,0.169,0.233,0.187,0.344
				c0.05,0.318,0.064,0.779,0.045,1.386c-0.019,0.606-0.056,1.245-0.109,1.913c-0.055,0.669-0.126,1.308-0.216,1.916
				c-0.091,0.608-0.181,1.072-0.271,1.392c-0.141,0.462-0.313,0.796-0.52,1c-0.206,0.206-0.399,0.246-0.578,0.12
				c-0.216-0.138-0.358-0.399-0.427-0.781c-0.069-0.381-0.091-0.937-0.063-1.67c0.021-0.54,0.041-1.001,0.059-1.387
				c0.02-0.386,0.034-0.743,0.046-1.07c0.01-0.327,0.018-0.64,0.024-0.938c0.007-0.297,0.014-0.638,0.024-1.023
				c0.01-0.384,0.031-0.732,0.063-1.043C34.192,35.147,34.219,34.961,34.245,34.9z"/>
			<path fill="#FFFFFF" d="M40.92,37.585l-0.009-0.056c0.209-0.129,0.431-0.245,0.661-0.348s0.453-0.176,0.669-0.22
				c0.213-0.043,0.403-0.063,0.571-0.061c0.169,0.001,0.294,0.036,0.374,0.1c0.061,0.047,0.114,0.135,0.161,0.261
				c0.046,0.128,0.08,0.261,0.103,0.401c0.021,0.141,0.029,0.273,0.023,0.397c-0.008,0.127-0.032,0.221-0.075,0.285
				c-0.12,0.135-0.337,0.272-0.649,0.418c-0.23,0.113-0.479,0.272-0.748,0.477c-0.268,0.205-0.527,0.437-0.778,0.696
				c-0.251,0.26-0.482,0.526-0.695,0.799c-0.214,0.272-0.373,0.524-0.479,0.75c-0.12,0.249-0.221,0.476-0.304,0.68
				c-0.084,0.205-0.122,0.326-0.116,0.362c0.023,0.15,0.204,0.289,0.543,0.418c0.338,0.129,0.785,0.226,1.344,0.292
				c1.068,0.159,1.999,0.434,2.794,0.825c0.794,0.393,1.41,0.855,1.849,1.39c0.437,0.535,0.673,1.115,0.71,1.741
				c0.035,0.626-0.172,1.243-0.624,1.851c-0.771,1.059-1.892,1.857-3.361,2.395c-0.818,0.301-1.426,0.429-1.82,0.386
				c-0.396-0.044-0.743-0.285-1.041-0.725c-0.296-0.42-0.391-0.711-0.283-0.874c0.107-0.163,0.464-0.273,1.074-0.33
				c0.364-0.039,0.732-0.125,1.1-0.259s0.721-0.295,1.063-0.482c0.341-0.188,0.656-0.404,0.944-0.649
				c0.288-0.246,0.534-0.509,0.738-0.789c0.374-0.537,0.537-0.935,0.488-1.194c-0.051-0.259-0.355-0.547-0.917-0.86
				c-0.41-0.24-0.888-0.423-1.438-0.547c-0.549-0.123-1.235-0.218-2.058-0.279c-0.627-0.053-1.105-0.146-1.434-0.276
				c-0.33-0.13-0.626-0.356-0.888-0.677c-0.889-1.045-0.976-2.207-0.257-3.485c0.122-0.229,0.292-0.476,0.507-0.739
				c0.214-0.262,0.449-0.519,0.701-0.769c0.253-0.25,0.51-0.49,0.774-0.724C40.401,37.935,40.662,37.741,40.92,37.585z"/>
			<path fill="#FFFFFF" d="M10.132,59.051l0.104-0.016c0.111-0.19,0.287-0.28,0.526-0.27c0.24,0.009,0.49,0.11,0.75,0.298
				c0.08,0.064,0.145,0.14,0.193,0.229c0.051,0.087,0.104,0.237,0.164,0.448c0.06,0.211,0.127,0.506,0.205,0.886
				c0.078,0.381,0.177,0.897,0.297,1.547c0.122,0.671,0.222,1.191,0.299,1.563c0.074,0.371,0.141,0.652,0.198,0.845
				c0.056,0.191,0.105,0.313,0.149,0.364s0.102,0.08,0.173,0.087c0.089,0.006,0.247-0.034,0.472-0.116
				c0.227-0.083,0.453-0.177,0.685-0.28c0.231-0.103,0.443-0.213,0.638-0.329c0.193-0.117,0.304-0.206,0.329-0.267
				c0.08-0.167,0.123-0.431,0.127-0.796c0.004-0.364-0.03-0.952-0.104-1.764c-0.058-0.814-0.048-1.486,0.027-2.016
				c0.076-0.528,0.216-0.827,0.416-0.897c0.185-0.068,0.391,0.015,0.622,0.246c0.23,0.233,0.403,0.54,0.516,0.925
				c0.067,0.2,0.122,0.494,0.165,0.878c0.042,0.387,0.072,0.75,0.092,1.091c0.003,0.249,0.057,0.758,0.16,1.526
				c0.103,0.771,0.233,1.655,0.39,2.654c0.157,1,0.324,2.036,0.502,3.109c0.177,1.074,0.352,2.047,0.524,2.919
				c0.079,0.39,0.081,0.682,0.005,0.876c-0.075,0.194-0.191,0.297-0.348,0.313c-0.157,0.015-0.334-0.068-0.529-0.247
				c-0.196-0.18-0.377-0.458-0.542-0.834c-0.25-0.574-0.472-1.171-0.666-1.792c-0.194-0.62-0.385-1.356-0.571-2.208
				c-0.104-0.443-0.203-0.806-0.29-1.089c-0.09-0.282-0.162-0.438-0.22-0.468c-0.095-0.042-0.215-0.042-0.357-0.001
				c-0.144,0.042-0.355,0.132-0.634,0.271c-0.212,0.11-0.429,0.197-0.648,0.26s-0.385,0.084-0.493,0.062l-0.405-0.05l0.467,3.316
				c0.12,0.881,0.213,1.575,0.274,2.083c0.062,0.507,0.088,0.896,0.076,1.166c-0.011,0.27-0.058,0.444-0.143,0.525
				c-0.084,0.081-0.213,0.133-0.385,0.161c-0.225,0.035-0.417-0.039-0.579-0.225c-0.162-0.185-0.326-0.585-0.493-1.2
				c-0.168-0.615-0.354-1.5-0.563-2.655c-0.208-1.154-0.46-2.686-0.76-4.591c-0.202-1.29-0.363-2.341-0.483-3.155
				c-0.118-0.815-0.211-1.461-0.277-1.938c-0.065-0.478-0.102-0.822-0.108-1.031C10.071,59.251,10.089,59.115,10.132,59.051z"/>
			<path fill="#FFFFFF" d="M20.602,58.9l0.065,0.076c0.409-0.543,0.901-0.62,1.474-0.231c0.062,0.047,0.168,0.199,0.322,0.451
				c0.155,0.254,0.314,0.535,0.478,0.845s0.309,0.608,0.433,0.894c0.125,0.288,0.196,0.497,0.217,0.627
				c0.009,0.056,0.061,0.21,0.152,0.464c0.093,0.254,0.208,0.532,0.345,0.836c0.229,0.559,0.493,1.205,0.795,1.943
				c0.3,0.738,0.602,1.472,0.901,2.199c0.299,0.729,0.582,1.407,0.85,2.036c0.267,0.627,0.469,1.103,0.609,1.426
				c0.135,0.305,0.256,0.625,0.362,0.963c0.105,0.337,0.191,0.659,0.257,0.965c0.065,0.305,0.1,0.573,0.1,0.803
				c0,0.229-0.026,0.396-0.08,0.501c-0.111,0.19-0.276,0.297-0.492,0.322c-0.219,0.024-0.416-0.036-0.598-0.181
				c-0.082-0.063-0.199-0.221-0.354-0.475c-0.155-0.254-0.327-0.566-0.52-0.939c-0.189-0.371-0.393-0.789-0.607-1.253
				c-0.215-0.464-0.42-0.93-0.617-1.397l-0.504-1.184l-0.517,0.081c-0.655,0.103-1.165,0.345-1.528,0.728
				c-0.364,0.383-0.514,0.837-0.449,1.363c0.023,0.149,0.017,0.39-0.019,0.721c-0.037,0.332-0.084,0.674-0.144,1.028
				c-0.06,0.355-0.13,0.672-0.208,0.953c-0.081,0.281-0.152,0.444-0.215,0.493c-0.184,0.182-0.412,0.218-0.686,0.108
				c-0.273-0.11-0.506-0.323-0.696-0.637c-0.128-0.248-0.211-0.474-0.252-0.679c-0.042-0.205-0.052-0.528-0.034-0.972
				c0.006-0.306,0.024-0.779,0.057-1.416c0.032-0.638,0.071-1.343,0.119-2.116c0.046-0.772,0.099-1.556,0.16-2.352
				c0.061-0.794,0.121-1.512,0.18-2.153c0.046-0.486,0.09-1.024,0.13-1.615c0.039-0.589,0.066-1.068,0.08-1.435
				c0.027-0.501,0.069-0.872,0.13-1.111C20.357,59.34,20.459,59.114,20.602,58.9z M22.974,65.737l-0.026,0.004
				c-0.15-0.397-0.32-0.663-0.509-0.796c-0.189-0.133-0.308-0.071-0.355,0.185c-0.11,0.765-0.119,1.297-0.027,1.6
				c0.092,0.301,0.311,0.424,0.654,0.37c0.294-0.046,0.46-0.168,0.5-0.365S23.17,66.205,22.974,65.737z"/>
			<path fill="#FFFFFF" d="M31.734,57.727l0.061,0.048c0.206-0.264,0.361-0.402,0.465-0.418s0.275,0.062,0.514,0.235
				c0.239,0.173,0.378,0.381,0.416,0.623c0.038,0.243-0.009,0.672-0.143,1.287c-0.175,0.908-0.266,1.999-0.268,3.272
				c-0.004,1.275,0.081,2.855,0.255,4.743c0.127,1.378,0.113,2.271-0.043,2.677c-0.158,0.408-0.527,0.505-1.108,0.29
				c-0.208-0.083-0.409-0.209-0.604-0.379c-0.194-0.171-0.404-0.411-0.629-0.72c-0.159-0.224-0.368-0.575-0.629-1.05
				c-0.26-0.476-0.543-1.011-0.848-1.605c-0.307-0.593-0.611-1.216-0.917-1.866c-0.305-0.651-0.588-1.268-0.846-1.85
				c-0.26-0.582-0.478-1.098-0.655-1.549c-0.177-0.45-0.279-0.77-0.309-0.956c-0.073-0.467,0.033-0.8,0.32-0.998
				s0.603-0.162,0.944,0.109c0.081,0.064,0.155,0.144,0.224,0.237c0.067,0.096,0.15,0.23,0.248,0.407
				c0.099,0.176,0.212,0.412,0.338,0.709c0.126,0.295,0.276,0.668,0.454,1.119c0.37,0.899,0.694,1.639,0.971,2.217
				c0.276,0.579,0.458,0.863,0.544,0.85c0.104-0.017,0.188-0.174,0.257-0.472c0.068-0.299,0.082-0.577,0.041-0.84
				c-0.023-0.148-0.024-0.437-0.002-0.86c0.021-0.425,0.053-0.895,0.096-1.409c0.042-0.514,0.094-1.009,0.15-1.487
				c0.058-0.479,0.119-0.847,0.185-1.106c0.051-0.237,0.127-0.48,0.231-0.726C31.55,58.014,31.645,57.836,31.734,57.727z"/>
			<path fill="#FFFFFF" d="M38.18,56.083l0.035,0.051c0.146-0.08,0.313-0.145,0.499-0.193c0.188-0.048,0.37-0.087,0.552-0.116
				c0.182-0.028,0.348-0.04,0.498-0.035c0.151,0.005,0.274,0.03,0.37,0.072c0.135,0.075,0.186,0.2,0.151,0.377
				c-0.034,0.179-0.146,0.388-0.339,0.629c-0.086,0.128-0.261,0.304-0.526,0.526c-0.266,0.224-0.557,0.457-0.871,0.698
				c-0.315,0.24-0.621,0.461-0.916,0.66c-0.296,0.2-0.519,0.331-0.667,0.392c-0.199,0.088-0.367,0.258-0.504,0.51
				c-0.138,0.251-0.241,0.517-0.313,0.795c-0.069,0.28-0.094,0.552-0.069,0.816c0.023,0.264,0.105,0.453,0.247,0.563
				c0.12,0.096,0.252,0.143,0.393,0.141c0.141-0.004,0.402-0.083,0.785-0.239c0.586-0.206,1.012-0.307,1.277-0.301
				c0.267,0.006,0.416,0.121,0.451,0.345c0.082,0.523-0.46,1.231-1.627,2.123l-0.973,0.728l0.204,1.634
				c0.041,0.377,0.079,0.677,0.114,0.901c0.035,0.224,0.072,0.405,0.112,0.542c0.039,0.138,0.087,0.246,0.143,0.323
				c0.057,0.077,0.126,0.148,0.206,0.212c0.121,0.095,0.232,0.164,0.337,0.204c0.104,0.042,0.228,0.046,0.372,0.015
				c0.146-0.033,0.328-0.115,0.545-0.244c0.218-0.13,0.512-0.311,0.883-0.542c0.66-0.409,1.147-0.653,1.463-0.731
				c0.313-0.078,0.558-0.015,0.731,0.187c0.129,0.152,0.098,0.401-0.095,0.748c-0.194,0.346-0.473,0.705-0.838,1.079
				c-0.365,0.373-0.771,0.719-1.215,1.038c-0.445,0.319-0.86,0.537-1.248,0.655c-0.288,0.084-0.506,0.108-0.652,0.074
				c-0.146-0.035-0.386-0.15-0.717-0.348c-0.213-0.12-0.434-0.285-0.662-0.499c-0.228-0.213-0.412-0.434-0.553-0.661
				c-0.116-0.173-0.211-0.33-0.287-0.472c-0.074-0.141-0.145-0.35-0.204-0.628c-0.062-0.277-0.132-0.668-0.211-1.173
				s-0.189-1.206-0.33-2.104c-0.173-1.102-0.313-2.051-0.421-2.849c-0.108-0.796-0.192-1.454-0.256-1.97
				c-0.064-0.517-0.101-0.913-0.107-1.19c-0.008-0.275,0-0.444,0.026-0.505c0.025-0.063,0.124-0.145,0.292-0.248
				c0.169-0.103,0.36-0.21,0.572-0.319c0.23-0.112,0.493-0.24,0.789-0.383c0.296-0.142,0.594-0.293,0.896-0.456
				c0.301-0.163,0.596-0.313,0.883-0.455C37.692,56.322,37.951,56.195,38.18,56.083z"/>
		</g>
	</g>
	<path fill="#B39898" d="M85.792,22.85l-34.684-2.041l-0.652,5.81c-0.58-0.246-1.188-0.438-1.833-0.511l-2.491-0.279
		c-0.584-0.066-1.173-0.053-1.752,0.038c-2.918,0.458-5.185,2.829-5.513,5.766l-1.396,12.449c-0.195,1.747,0.3,3.464,1.396,4.837
		c1.096,1.373,2.661,2.235,4.406,2.432l2.492,0.277c0.586,0.065,1.176,0.053,1.753-0.037h0.001c0.05-0.008,0.096-0.025,0.145-0.035
		l-0.988,8.815c-0.299,2.68,1.545,5.085,4.126,5.372l28.32,3.174c2.576,0.287,4.91-1.649,5.212-4.328l4.227-37.753l0.049-0.813
		C88.708,24.367,87.446,22.948,85.792,22.85z M48.133,47.356c-0.549,0.399-1.232,0.617-1.949,0.538l-2.492-0.279
		c-0.749-0.083-1.418-0.452-1.888-1.041c-0.47-0.588-0.683-1.324-0.599-2.073l1.396-12.45c0.141-1.26,1.11-2.275,2.359-2.472
		c0.248-0.039,0.501-0.044,0.752-0.017l2.49,0.28c0.699,0.078,1.324,0.415,1.788,0.938L48.133,47.356z"/>
	<g>
		<g>
			<path fill="#FFFFFF" d="M20.007,118.797c-4.398,0-7.97-2.885-8.887-7.178c-0.013-0.059-0.024-0.117-0.036-0.175
				c-4.204-22.1-5.209-27.4-5.556-29.606c-0.155-0.991-0.264-1.685-0.255-2.64c0.001-0.166,0.008-0.331,0.02-0.497
				C5.487,76.028,7.086,71.342,15.625,70l0.302-0.047c1.167-0.184,2.333-0.277,3.457-0.277c8.641,0,15.089,5.508,16.428,14.032
				c0,0,0.041,0.268,0.046,0.31c0.236,1.74,0.175,3.448-0.162,5.074c2.697,2.822,3.836,6.167,4.276,8.973l0.085,0.548
				c0.017,0.109,0.032,0.218,0.044,0.328c1.452,12.807-5.716,16.843-10.118,18.109c-2.095,0.618-5.346,1.153-8.225,1.604
				C21.15,118.75,20.576,118.797,20.007,118.797z"/>
			<path fill="#FFFFFF" d="M36.467,115.891c-2.438,0-6.81-1.003-8.69-7.72c-0.615-2.195-1.297-5.744-2.148-11.168
				c-0.241-1.534-0.494-3.067-0.749-4.612c-0.266-1.611-0.534-3.234-0.793-4.885c-0.519-3.3-0.991-6.634-1.445-10.194
				c-0.118-0.921-0.073-1.856,0.133-2.763c0.831-3.662,3.741-6.311,7.596-6.914l3.963-0.622c0.459-0.072,4.922-0.733,6.102-0.842
				c0.243-0.022,0.487-0.034,0.731-0.034c0.33,0,0.66,0.021,0.988,0.062c2.931,0.367,5.386,2.069,6.736,4.669
				c0.342,0.659,0.591,1.363,0.737,2.091c0.258,1.278,0.44,2.436,0.65,3.777c0.041,0.259,0.073,0.549,0.088,0.812
				c0.142,2.495-0.573,4.512-1.748,6.034c0.929,1.281,1.641,2.951,1.976,5.079l0.062,0.396c0.051,0.327,0.082,0.657,0.092,0.987
				l0.027,0.874c0.102,1.108,0.017,2.189-0.253,3.226c2.207,1.199,4.027,3.423,4.562,6.81c0.037,0.232,0.063,0.465,0.079,0.699
				l0.193,2.832c0.01,0.151,0.017,0.302,0.018,0.453c0.039,3.445-2.063,6.741-5.229,8.201c-0.574,0.265-1.178,0.46-1.799,0.582
				l-10.275,2.016c-0.097,0.019-0.195,0.036-0.292,0.052C37.37,115.853,36.881,115.891,36.467,115.891z"/>
			<path fill="#FFFFFF" d="M51.114,113.591c-2.438,0-6.808-1.003-8.689-7.719c-0.615-2.195-1.298-5.745-2.149-11.169
				c-0.241-1.535-0.494-3.068-0.749-4.613c-0.265-1.61-0.533-3.233-0.792-4.884c-0.521-3.32-0.995-6.654-1.446-10.194
				c-0.118-0.922-0.073-1.857,0.133-2.763c0.831-3.662,3.741-6.311,7.596-6.914l3.963-0.622c0.459-0.072,4.921-0.733,6.102-0.842
				c0.243-0.022,0.487-0.034,0.731-0.034c0.33,0,0.66,0.021,0.988,0.062c2.94,0.369,5.399,2.078,6.746,4.688
				c0.337,0.653,0.582,1.351,0.727,2.072c0.258,1.278,0.44,2.436,0.65,3.777c0.041,0.259,0.073,0.549,0.088,0.812
				c0.142,2.495-0.572,4.512-1.747,6.034c0.928,1.281,1.64,2.952,1.976,5.079l0.062,0.396c0.051,0.327,0.082,0.657,0.092,0.987
				l0.028,0.893c0.097,1.111-0.001,2.191-0.267,3.2c2.212,1.197,4.039,3.424,4.575,6.817c0.037,0.232,0.063,0.465,0.079,0.699
				l0.193,2.832c0.01,0.144,0.016,0.287,0.018,0.431c0.048,3.449-2.05,6.752-5.221,8.219c-0.577,0.267-1.183,0.463-1.807,0.586
				l-10.275,2.016c-0.099,0.019-0.198,0.037-0.297,0.052C52.015,113.553,51.527,113.591,51.114,113.591z"/>
			<path fill="#FFFFFF" d="M65.016,111.053c-0.774,0-7.598-0.24-8.907-8.536c-0.01-0.06-3.958-29.382-3.958-29.382
				c-0.024-0.178-0.042-0.357-0.054-0.536c-0.395-5.929,3.331-8.407,4.95-9.198c0.417-0.204,0.851-0.37,1.296-0.499
				c1.627-0.467,3.119-0.701,4.317-0.89l4.655-0.73c0.234-0.037,0.469-0.063,0.706-0.079c0.329-0.022,0.651-0.032,0.964-0.032
				c3.846,0,10.694,1.571,13.341,12.095c0.059,0.233,0.107,0.469,0.144,0.706c0.836,5.325,1.083,7.732,1.142,8.814
				c0.019,0.336,0.015,0.674-0.009,1.01c-0.113,1.557-0.455,2.884-0.906,4.007c2.269,3.991,3.632,7.547,4.14,10.784
				c0.454,2.889-0.064,8.082-8.632,10.398l-0.179,0.048c-0.365,0.113-0.737,0.2-1.115,0.259c-0.444,0.07-0.897,0.105-1.345,0.105
				c0,0-0.001,0-0.001,0c-0.564,0-1.378-0.06-2.298-0.311c-1.024,0.671-2.199,1.124-3.464,1.322l-3.425,0.538
				C65.929,111.017,65.47,111.053,65.016,111.053z"/>
		</g>
		<g>
			<path fill="#FFFFFF" d="M13.376,80.604c-0.123-0.784-0.162-1.029-0.159-1.33c0.048-0.661,2.955-1.319,3.642-1.427l0.294-0.046
				c5.634-0.885,9.918,1.456,10.811,7.139l0.022,0.147c0.327,2.407-0.438,4.888-3.022,6.648c0.077,0.49,6.092,0.75,7.161,7.56
				l0.084,0.539c0.392,3.453,0.576,8.142-4.42,9.579c-1.822,0.537-5.351,1.091-7.261,1.391c-0.832,0.131-1.452,0.027-1.639-0.846
				C14.865,88.804,13.708,82.711,13.376,80.604z M20.417,89.639c1.714-0.269,3.381-1.483,3.081-3.395
				c-0.519-2.981-2.745-3.736-4.362-3.482c-0.49,0.077-0.451,0.322-0.382,0.762l0.076,0.49c0.123,0.784,0.838,4.688,0.994,5.367
				C19.912,89.619,20.172,89.677,20.417,89.639z M23.479,105.625l0.686-0.108c2.059-0.323,3.758-0.691,3.157-4.512
				c-0.054-0.343-0.131-0.833-0.256-1.314c-0.604-2.566-2.083-3.991-5.071-3.521c-0.245,0.038-0.344,0.054-0.485,0.427l1.728,8.765
				C23.309,105.5,23.416,105.533,23.479,105.625z"/>
			<path fill="#FFFFFF" d="M31.597,75.485l3.968-0.623c0.833-0.131,4.809-0.706,5.601-0.779c0.358,0.045,0.528,0.168,0.673,0.447
				c0.226,1.119,0.395,2.196,0.595,3.47c0.028,0.498,0.048,0.947-0.784,1.078l-5.291,0.831l-0.371,0.51l1.562,8.038l4.139-0.5
				c0.596-0.043,0.896,0.914,1.059,1.942l0.062,0.392l0.037,1.2c0.062,0.392,0.063,1.044-0.523,1.136l-3.725,0.585
				c-0.049,0.008-0.131,0.121-0.222,0.186l-0.124,0.17l1.43,7.506c0.183,0.524,0.489,0.877,1.126,0.777l5.242-0.823
				c0.833-0.131,1.08,0.483,1.188,1.168l0.193,2.832c0.004,0.351-0.284,0.747-0.612,0.898l-10.275,2.016
				c-0.539,0.085-1.235-0.508-3.065-12.168c-0.492-3.135-1.034-6.263-1.542-9.498c-0.508-3.232-0.974-6.523-1.413-9.967
				C30.64,75.786,31.107,75.562,31.597,75.485z"/>
			<path fill="#FFFFFF" d="M46.245,73.186l3.968-0.623c0.833-0.131,4.809-0.706,5.601-0.779c0.358,0.045,0.529,0.168,0.673,0.447
				c0.226,1.119,0.395,2.196,0.595,3.47c0.028,0.498,0.049,0.947-0.784,1.078l-5.291,0.831l-0.372,0.509l1.563,8.038l4.14-0.5
				c0.595-0.043,0.896,0.914,1.058,1.942l0.062,0.392l0.037,1.2c0.062,0.392,0.063,1.043-0.523,1.136l-3.724,0.585
				c-0.05,0.008-0.132,0.121-0.222,0.186l-0.125,0.17l1.431,7.506c0.182,0.524,0.488,0.877,1.125,0.777l5.242-0.823
				c0.833-0.131,1.08,0.483,1.188,1.168l0.193,2.832c0.005,0.351-0.285,0.747-0.612,0.898L51.19,105.64
				c-0.538,0.084-1.234-0.509-3.065-12.169c-0.492-3.135-1.033-6.263-1.541-9.497c-0.508-3.232-0.975-6.523-1.414-9.967
				C45.288,73.486,45.754,73.262,46.245,73.186z"/>
			<path fill="#FFFFFF" d="M60.025,72.076c-0.036-0.547-0.095-1.24,0.511-1.536c1.153-0.331,2.28-0.508,3.358-0.678l4.653-0.73
				c3.875-0.257,5.272,2.887,6.074,6.074c0.877,5.585,1.03,7.519,1.058,8.017c-0.206,2.842-1.979,3.372-2.485,4.306
				c0.008,0.048,0.022,0.146,0.079,0.188c1.696,2.495,5.023,7.695,5.716,12.104c0.131,0.833-2.736,1.434-3.311,1.624
				c-0.783,0.123-1.066-1.038-1.313-1.652c-0.308-1.959-3.832-10.341-5.988-10.003c-0.343,0.054-0.923,0.196-0.959,0.603l0.838,5.34
				c0.301,1.911,0.544,3.78,0.844,5.691c0.093,0.587,0.111,1.036-0.525,1.136l-3.43,0.539c-0.881,0.139-1.081-1.135-1.189-1.821
				L60.025,72.076z M66.941,84.794c0.1,0.637,0.768,0.733,1.356,0.641c1.322-0.208,2.173-0.542,2.301-1.968
				c-0.128-2.088-0.328-3.362-0.636-5.321l-0.377-2.401c-0.405-0.99-1.225-1.414-2.254-1.252c-1.078,0.169-1.653,0.662-1.582,1.754
				L66.941,84.794z"/>
		</g>
	</g>
	<g>
		<path fill="#231F20" d="M13.376,80.604c-0.123-0.784-0.162-1.029-0.159-1.33c0.048-0.661,2.955-1.319,3.642-1.427l0.294-0.046
			c5.634-0.885,9.918,1.456,10.811,7.139l0.022,0.147c0.327,2.407-0.438,4.888-3.022,6.648c0.077,0.49,6.092,0.75,7.161,7.56
			l0.084,0.539c0.392,3.453,0.576,8.142-4.42,9.579c-1.822,0.537-5.351,1.091-7.261,1.391c-0.832,0.131-1.452,0.027-1.639-0.846
			C14.865,88.804,13.708,82.711,13.376,80.604z M20.417,89.639c1.714-0.269,3.381-1.483,3.081-3.395
			c-0.519-2.981-2.745-3.736-4.362-3.482c-0.49,0.077-0.451,0.322-0.382,0.762l0.076,0.49c0.123,0.784,0.838,4.688,0.994,5.367
			C19.912,89.619,20.172,89.677,20.417,89.639z M23.479,105.625l0.686-0.108c2.059-0.323,3.758-0.691,3.157-4.512
			c-0.054-0.343-0.131-0.833-0.256-1.314c-0.604-2.566-2.083-3.991-5.071-3.521c-0.245,0.038-0.344,0.054-0.485,0.427l1.728,8.765
			C23.309,105.5,23.416,105.533,23.479,105.625z"/>
		<path fill="#231F20" d="M31.597,75.485l3.968-0.623c0.833-0.131,4.809-0.706,5.601-0.779c0.358,0.045,0.528,0.168,0.673,0.447
			c0.226,1.119,0.395,2.196,0.595,3.47c0.028,0.498,0.048,0.947-0.784,1.078l-5.291,0.831l-0.371,0.51l1.562,8.038l4.139-0.5
			c0.596-0.043,0.896,0.914,1.059,1.942l0.062,0.392l0.037,1.2c0.062,0.392,0.063,1.044-0.523,1.136l-3.725,0.585
			c-0.049,0.008-0.131,0.121-0.222,0.186l-0.124,0.17l1.43,7.506c0.183,0.524,0.489,0.877,1.126,0.777l5.242-0.823
			c0.833-0.131,1.08,0.483,1.188,1.168l0.193,2.832c0.004,0.351-0.284,0.747-0.612,0.898l-10.275,2.016
			c-0.539,0.085-1.235-0.508-3.065-12.168c-0.492-3.135-1.034-6.263-1.542-9.498c-0.508-3.232-0.974-6.523-1.413-9.967
			C30.64,75.786,31.107,75.562,31.597,75.485z"/>
		<path fill="#231F20" d="M46.245,73.186l3.968-0.623c0.833-0.131,4.809-0.706,5.601-0.779c0.358,0.045,0.529,0.168,0.673,0.447
			c0.226,1.119,0.395,2.196,0.595,3.47c0.028,0.498,0.049,0.947-0.784,1.078l-5.291,0.831l-0.372,0.509l1.563,8.038l4.14-0.5
			c0.595-0.043,0.896,0.914,1.058,1.942l0.062,0.392l0.037,1.2c0.062,0.392,0.063,1.043-0.523,1.136l-3.724,0.585
			c-0.05,0.008-0.132,0.121-0.222,0.186l-0.125,0.17l1.431,7.506c0.182,0.524,0.488,0.877,1.125,0.777l5.242-0.823
			c0.833-0.131,1.08,0.483,1.188,1.168l0.193,2.832c0.005,0.351-0.285,0.747-0.612,0.898L51.19,105.64
			c-0.538,0.084-1.234-0.509-3.065-12.169c-0.492-3.135-1.033-6.263-1.541-9.497c-0.508-3.232-0.975-6.523-1.414-9.967
			C45.288,73.486,45.754,73.262,46.245,73.186z"/>
		<path fill="#231F20" d="M60.026,72.076c-0.036-0.547-0.095-1.24,0.511-1.537c1.153-0.331,2.28-0.508,3.358-0.677l4.653-0.73
			c3.875-0.257,5.272,2.887,6.074,6.074c0.877,5.585,1.03,7.519,1.058,8.017c-0.206,2.842-1.979,3.372-2.485,4.306
			c0.007,0.048,0.022,0.146,0.079,0.188c1.697,2.496,5.023,7.695,5.716,12.104c0.131,0.833-2.736,1.435-3.31,1.625
			c-0.783,0.123-1.066-1.038-1.313-1.652c-0.308-1.959-3.832-10.341-5.988-10.002c-0.343,0.054-0.923,0.196-0.959,0.603l0.838,5.34
			c0.301,1.911,0.544,3.78,0.844,5.691c0.093,0.587,0.112,1.036-0.524,1.136l-3.43,0.538c-0.883,0.139-1.082-1.135-1.189-1.821
			L60.026,72.076z M66.942,84.794c0.1,0.637,0.768,0.733,1.356,0.641c1.322-0.208,2.173-0.542,2.301-1.968
			c-0.128-2.088-0.328-3.362-0.636-5.321l-0.377-2.401c-0.405-0.99-1.225-1.414-2.254-1.252c-1.078,0.169-1.653,0.662-1.583,1.754
			L66.942,84.794z"/>
	</g>
	<g>
		<path fill="#F2EAB8" d="M83.211,17.7l-28.322-3.172c-2.58-0.288-4.909,1.649-5.21,4.326l-0.747,6.655
			c-0.58-0.247-1.188-0.438-1.834-0.511l-2.49-0.28c-0.584-0.065-1.174-0.053-1.752,0.038c-2.918,0.459-5.185,2.829-5.513,5.766
			l-1.396,12.449c-0.195,1.747,0.3,3.465,1.396,4.838c1.096,1.373,2.661,2.235,4.406,2.431l2.492,0.277
			c0.586,0.065,1.175,0.054,1.753-0.036l0.001-0.001c0.049-0.007,0.095-0.025,0.144-0.035l-0.987,8.815
			c-0.299,2.68,1.545,5.085,4.126,5.373l28.32,3.173c2.576,0.287,4.91-1.649,5.212-4.328l4.524-40.407
			C87.635,20.393,85.786,17.987,83.211,17.7z M44.661,46.784l-2.493-0.279c-0.748-0.083-1.417-0.452-1.888-1.041
			c-0.469-0.588-0.682-1.324-0.598-2.072l1.396-12.451c0.14-1.26,1.11-2.275,2.359-2.472c0.248-0.039,0.5-0.044,0.752-0.017
			l2.49,0.28c0.699,0.078,1.324,0.415,1.788,0.938L46.61,46.247C46.061,46.646,45.377,46.863,44.661,46.784z"/>
		<path fill="#FBA70E" d="M78.019,64.072c1.542,0.174,2.939-0.947,3.112-2.489L85.49,22.68c0.171-1.546-0.944-2.94-2.489-3.116
			l-28.319-3.169c-1.546-0.175-2.943,0.941-3.117,2.486l-4.354,38.903c-0.174,1.541,0.943,2.943,2.488,3.115L78.019,64.072z"/>
		<path fill="#E39709" d="M71.956,56.301c-0.202,1.804,1.094,3.431,2.899,3.633l0,0c1.805,0.204,3.433-1.098,3.636-2.901
			l3.275-29.257c0.203-1.803-1.097-3.432-2.901-3.631l0,0c-1.806-0.203-3.431,1.099-3.634,2.899L71.956,56.301z"/>
		<path fill="#E39709" d="M61.685,55.149c-0.203,1.808,1.097,3.435,2.901,3.636l0,0c1.805,0.203,3.43-1.098,3.634-2.901
			l3.276-29.256c0.201-1.803-1.1-3.432-2.902-3.635l0,0c-1.804-0.201-3.432,1.099-3.633,2.904L61.685,55.149z"/>
		<path fill="#E39709" d="M51.413,54.001c-0.203,1.803,1.098,3.433,2.904,3.634l0,0c1.803,0.201,3.432-1.098,3.633-2.902
			l3.275-29.257c0.202-1.803-1.097-3.433-2.9-3.634l0,0c-1.806-0.202-3.434,1.099-3.635,2.903L51.413,54.001z"/>
		<path fill="#F2EAB8" d="M56.614,7.379c0.279,0.043,0.552,0.112,0.817,0.188c0.925-3.467,3.883-5.725,7.181-5.215
			c2.544,0.392,4.642,2.333,5.646,4.882c1.2-0.761,2.621-1.107,4.117-0.877c1.462,0.224,2.773,0.962,3.818,2.027
			c0.174,0.011,0.344,0.021,0.516,0.049c2.938,0.453,5.274,2.965,6.026,6.097c0.016,0.003,0.028,0.002,0.046,0.001
			c2.673,0.411,4.652,3.242,4.418,6.315c-0.23,3.076-2.587,5.238-5.262,4.826c-0.112-0.018-0.214-0.063-0.323-0.09
			c-1.355,2.241-3.724,3.535-6.302,3.138c-3.296-0.505-5.842-3.604-6.235-7.268c-0.142-0.009-0.279,0.007-0.425-0.017
			c-0.026,0-0.046-0.014-0.071-0.02c-1.282,2.572-3.815,4.118-6.598,3.687c-1.792-0.274-3.355-1.316-4.479-2.797
			c-1.192,0.745-2.6,1.085-4.082,0.855c-3.787-0.582-6.593-4.59-6.263-8.944C49.489,9.858,52.826,6.797,56.614,7.379z"/>
		<path fill="#DCD7A7" d="M56.315,5.452c0.281,0.051,0.554,0.128,0.821,0.213c0.886-3.726,3.822-6.121,7.132-5.533
			c2.554,0.452,4.679,2.569,5.716,5.329c1.19-0.808,2.612-1.163,4.115-0.895c1.466,0.256,2.787,1.069,3.849,2.229
			c0.173,0.012,0.345,0.027,0.518,0.058c2.945,0.524,5.318,3.261,6.108,6.645c0.017,0.002,0.03,0,0.047,0
			c2.684,0.476,4.699,3.55,4.503,6.857c-0.195,3.313-2.53,5.615-5.214,5.138c-0.114-0.021-0.216-0.069-0.325-0.098
			c-1.331,2.398-3.688,3.764-6.275,3.304c-3.309-0.585-5.896-3.953-6.334-7.907c-0.143-0.01-0.279,0.005-0.427-0.022
			c-0.025-0.003-0.047-0.017-0.071-0.021c-1.255,2.756-3.773,4.39-6.566,3.895c-1.799-0.319-3.377-1.462-4.52-3.068
			c-1.188,0.787-2.593,1.136-4.081,0.872c-3.802-0.673-6.659-5.026-6.382-9.714C49.208,8.038,52.514,4.781,56.315,5.452z"/>
		<path fill="#FFFFFF" d="M58.007,4.385c0.268,0.062,0.525,0.145,0.783,0.238c0.946-3.251,3.82-5.197,6.979-4.473
			c2.439,0.558,4.419,2.57,5.341,5.087c1.164-0.642,2.533-0.871,3.967-0.54c1.4,0.318,2.647,1.121,3.631,2.217
			c0.164,0.026,0.33,0.047,0.496,0.085c2.811,0.646,5.014,3.22,5.682,6.275c0.017,0.002,0.027,0.002,0.042,0.003
			c2.562,0.592,4.413,3.443,4.14,6.369c-0.275,2.93-2.574,4.828-5.135,4.24c-0.107-0.025-0.202-0.076-0.309-0.11
			c-1.337,2.05-3.633,3.117-6.104,2.548c-3.151-0.723-5.547-3.876-5.861-7.411c-0.137-0.02-0.271-0.019-0.41-0.049
			c-0.023-0.005-0.044-0.019-0.065-0.022c-1.276,2.369-3.736,3.665-6.401,3.05c-1.712-0.392-3.196-1.505-4.249-3.002
			c-1.156,0.627-2.516,0.845-3.936,0.521c-3.627-0.836-6.25-4.875-5.863-9.022C51.124,6.243,54.377,3.552,58.007,4.385z"/>
		<path fill="#FFFFFF" d="M82.794,5.135c-0.19-0.01-0.378-0.004-0.571,0.01c-0.005-2.357-1.55-4.212-3.801-4.337
			c-1.739-0.096-3.449,0.866-4.552,2.373c-0.654-0.653-1.527-1.071-2.548-1.124c-0.998-0.059-1.985,0.237-2.855,0.78
			c-0.115-0.014-0.228-0.03-0.347-0.038c-2.004-0.108-3.972,1.186-5.008,3.101c-0.013-0.001-0.021-0.002-0.028-0.005
			c-1.828-0.099-3.615,1.452-3.994,3.46c-0.381,2.011,0.789,3.724,2.614,3.824c0.076,0.004,0.15-0.012,0.229-0.014
			c0.499,1.629,1.828,2.783,3.59,2.878c2.246,0.125,4.455-1.521,5.347-3.824c0.096,0.013,0.184,0.04,0.283,0.045
			c0.018,0.003,0.033-0.002,0.049-0.001c0.396,1.828,1.791,3.169,3.69,3.271c1.222,0.066,2.427-0.39,3.421-1.188
			c0.651,0.64,1.519,1.048,2.529,1.105c2.587,0.142,5.118-2.056,5.659-4.903C87.04,7.702,85.381,5.277,82.794,5.135z"/>
	</g>
	<g>
		<path fill="#202933" d="M7.97,43.592l-0.009-0.056c0.051-0.124,0.144-0.209,0.276-0.26c0.134-0.049,0.276-0.071,0.428-0.067
			c0.15,0.005,0.302,0.039,0.452,0.101c0.151,0.063,0.289,0.152,0.413,0.266c0.087,0.101,0.159,0.2,0.22,0.296
			c0.058,0.097,0.112,0.246,0.161,0.448c0.05,0.204,0.103,0.482,0.158,0.837c0.056,0.355,0.133,0.841,0.229,1.457
			c0.059,0.375,0.12,0.792,0.183,1.25c0.063,0.459,0.123,0.928,0.183,1.407c0.057,0.479,0.116,0.948,0.18,1.409
			c0.063,0.459,0.114,0.868,0.153,1.225l0.311,2.651l0.544,0.26c0.152,0.072,0.292,0.121,0.421,0.149
			c0.127,0.028,0.295,0.026,0.503-0.007c0.206-0.032,0.487-0.101,0.843-0.204c0.354-0.104,0.825-0.249,1.415-0.438
			c0.755-0.253,1.315-0.398,1.68-0.437c0.366-0.038,0.628,0.007,0.79,0.135c0.101,0.08,0.166,0.156,0.195,0.228
			c0.028,0.072,0.012,0.189-0.052,0.353c-0.094,0.302-0.291,0.562-0.593,0.782c-0.301,0.22-0.818,0.465-1.554,0.732
			c-0.434,0.164-0.894,0.303-1.38,0.418c-0.485,0.114-0.953,0.197-1.404,0.249c-0.451,0.053-0.863,0.068-1.238,0.05
			c-0.373-0.017-0.655-0.069-0.846-0.153c-0.247-0.114-0.453-0.241-0.615-0.377c-0.163-0.138-0.3-0.308-0.411-0.511
			c-0.111-0.202-0.204-0.457-0.279-0.76c-0.074-0.305-0.146-0.681-0.216-1.129c-0.45-3.204-0.77-5.686-0.957-7.447
			C7.965,44.689,7.904,43.737,7.97,43.592z"/>
		<path fill="#202933" d="M20.854,40.421l0.035,0.051c0.146-0.08,0.313-0.145,0.499-0.193c0.188-0.048,0.37-0.087,0.552-0.116
			c0.181-0.028,0.347-0.04,0.498-0.035c0.15,0.005,0.273,0.03,0.369,0.072c0.135,0.075,0.186,0.2,0.151,0.377
			c-0.034,0.178-0.146,0.388-0.339,0.628c-0.086,0.128-0.26,0.304-0.526,0.528c-0.265,0.223-0.556,0.456-0.871,0.697
			c-0.315,0.24-0.621,0.461-0.916,0.66c-0.296,0.2-0.519,0.331-0.667,0.392c-0.199,0.088-0.366,0.257-0.503,0.51
			c-0.138,0.25-0.242,0.516-0.313,0.794c-0.07,0.28-0.095,0.552-0.07,0.817c0.023,0.263,0.106,0.452,0.248,0.563
			c0.12,0.096,0.252,0.143,0.393,0.14c0.141-0.004,0.402-0.083,0.784-0.239c0.587-0.206,1.012-0.307,1.278-0.3
			c0.266,0.006,0.416,0.121,0.451,0.345c0.082,0.523-0.46,1.231-1.628,2.123l-0.973,0.727l0.204,1.634
			c0.042,0.376,0.08,0.677,0.115,0.901c0.035,0.224,0.072,0.405,0.112,0.542c0.038,0.138,0.086,0.245,0.143,0.323
			c0.056,0.077,0.125,0.148,0.206,0.211c0.12,0.095,0.232,0.164,0.336,0.205c0.104,0.042,0.228,0.046,0.373,0.014
			s0.327-0.114,0.545-0.243c0.218-0.13,0.512-0.311,0.883-0.542c0.66-0.409,1.147-0.653,1.462-0.731
			c0.314-0.078,0.558-0.016,0.731,0.187c0.129,0.152,0.099,0.401-0.095,0.747c-0.193,0.347-0.472,0.706-0.838,1.079
			c-0.364,0.373-0.771,0.72-1.215,1.039c-0.445,0.319-0.86,0.537-1.248,0.655c-0.288,0.084-0.505,0.108-0.651,0.074
			c-0.146-0.035-0.386-0.15-0.717-0.348c-0.213-0.12-0.434-0.285-0.662-0.499c-0.228-0.213-0.412-0.434-0.553-0.661
			c-0.116-0.173-0.211-0.33-0.287-0.472c-0.074-0.142-0.145-0.35-0.204-0.628c-0.062-0.277-0.132-0.668-0.211-1.173
			s-0.189-1.206-0.331-2.104c-0.173-1.102-0.313-2.051-0.42-2.849c-0.109-0.797-0.193-1.454-0.256-1.97
			c-0.064-0.516-0.101-0.913-0.108-1.19c-0.007-0.276,0.001-0.444,0.027-0.505c0.024-0.063,0.123-0.145,0.292-0.248
			c0.169-0.103,0.36-0.209,0.572-0.319c0.229-0.112,0.492-0.24,0.788-0.383c0.296-0.142,0.595-0.294,0.896-0.456
			c0.301-0.163,0.595-0.313,0.882-0.455C20.365,40.66,20.625,40.533,20.854,40.421z"/>
		<path fill="#202933" d="M27.383,41.319L27.326,41.3c0.206-0.262,0.472-0.433,0.795-0.512c0.323-0.08,0.618-0.054,0.887,0.076
			c0.152,0.072,0.286,0.108,0.4,0.109c0.115,0.002,0.272-0.042,0.47-0.131c0.247-0.115,0.526-0.221,0.838-0.318
			c0.312-0.097,0.618-0.178,0.917-0.244c0.298-0.067,0.561-0.113,0.786-0.138c0.225-0.025,0.369-0.014,0.43,0.034
			c0.273,0.167,0.367,0.459,0.283,0.874c-0.085,0.416-0.309,0.767-0.67,1.053c-0.127,0.097-0.323,0.2-0.588,0.307
			c-0.266,0.11-0.548,0.227-0.847,0.349c-0.298,0.124-0.575,0.249-0.829,0.375s-0.435,0.236-0.544,0.33
			c-0.061,0.066-0.109,0.123-0.146,0.166c-0.037,0.045-0.06,0.13-0.067,0.254c-0.005,0.127-0.001,0.322,0.014,0.587
			c0.016,0.266,0.048,0.644,0.099,1.133c0.051,0.49,0.117,1.116,0.203,1.877c0.084,0.763,0.196,1.708,0.339,2.834
			c0.062,0.622,0.114,1.126,0.157,1.512c0.042,0.385,0.07,0.703,0.083,0.949c0.012,0.247,0.01,0.429-0.008,0.547
			c-0.017,0.118-0.046,0.208-0.09,0.273c-0.24,0.382-0.568,0.318-0.983-0.191c-0.065-0.084-0.127-0.191-0.182-0.315
			c-0.056-0.125-0.112-0.317-0.17-0.578c-0.059-0.258-0.128-0.611-0.207-1.058c-0.079-0.448-0.176-1.035-0.29-1.764
			c-0.07-0.448-0.138-0.903-0.2-1.361c-0.063-0.459-0.12-0.877-0.17-1.251c-0.05-0.376-0.089-0.708-0.118-1.002
			c-0.027-0.292-0.042-0.496-0.042-0.611c0.002-0.326-0.016-0.576-0.052-0.753c-0.037-0.175-0.105-0.309-0.208-0.397
			s-0.264-0.132-0.483-0.125c-0.221,0.006-0.511,0.037-0.874,0.094c-0.916,0.126-1.529,0.135-1.837,0.029
			c-0.309-0.104-0.444-0.379-0.408-0.827c0.025-0.29,0.241-0.578,0.647-0.862c0.405-0.284,0.906-0.501,1.5-0.652
			c0.322-0.089,0.576-0.182,0.765-0.278C27.112,41.598,27.265,41.472,27.383,41.319z"/>
		<path fill="#202933" d="M34.245,34.9c0.065-0.145,0.22-0.235,0.461-0.273c0.104-0.016,0.23,0.007,0.382,0.069
			s0.297,0.149,0.439,0.261c0.14,0.112,0.265,0.227,0.371,0.344c0.107,0.117,0.169,0.233,0.187,0.344
			c0.05,0.318,0.064,0.779,0.045,1.386c-0.019,0.606-0.056,1.245-0.109,1.913c-0.055,0.669-0.126,1.308-0.216,1.916
			c-0.091,0.608-0.181,1.072-0.271,1.392c-0.141,0.462-0.313,0.796-0.52,1c-0.206,0.206-0.399,0.246-0.578,0.12
			c-0.216-0.138-0.358-0.399-0.427-0.781c-0.069-0.381-0.091-0.937-0.063-1.67c0.021-0.54,0.041-1.001,0.059-1.387
			c0.02-0.386,0.034-0.743,0.046-1.07c0.01-0.327,0.018-0.64,0.024-0.938c0.007-0.297,0.014-0.638,0.024-1.023
			c0.01-0.384,0.031-0.732,0.063-1.043C34.192,35.147,34.219,34.961,34.245,34.9z"/>
		<path fill="#202933" d="M40.92,37.585l-0.009-0.056c0.209-0.129,0.431-0.245,0.661-0.348s0.453-0.176,0.669-0.22
			c0.213-0.043,0.403-0.063,0.571-0.061c0.169,0.001,0.294,0.036,0.374,0.1c0.061,0.047,0.114,0.135,0.161,0.261
			c0.046,0.128,0.08,0.261,0.103,0.401c0.021,0.141,0.029,0.273,0.023,0.397c-0.008,0.127-0.032,0.221-0.075,0.285
			c-0.12,0.135-0.337,0.272-0.649,0.418c-0.23,0.113-0.479,0.272-0.748,0.477c-0.268,0.205-0.527,0.437-0.778,0.696
			c-0.251,0.26-0.482,0.526-0.695,0.799c-0.214,0.272-0.373,0.524-0.479,0.75c-0.12,0.249-0.221,0.476-0.304,0.68
			c-0.084,0.205-0.122,0.326-0.116,0.362c0.023,0.15,0.204,0.289,0.543,0.418c0.338,0.129,0.785,0.226,1.344,0.292
			c1.068,0.159,1.999,0.434,2.794,0.825c0.794,0.393,1.41,0.855,1.849,1.39c0.437,0.535,0.673,1.115,0.71,1.741
			c0.035,0.626-0.172,1.243-0.624,1.851c-0.771,1.059-1.892,1.857-3.361,2.395c-0.818,0.301-1.426,0.429-1.82,0.386
			c-0.396-0.044-0.743-0.285-1.041-0.725c-0.296-0.42-0.391-0.711-0.283-0.874c0.107-0.163,0.464-0.273,1.074-0.33
			c0.364-0.039,0.732-0.125,1.1-0.259s0.721-0.295,1.063-0.482c0.341-0.188,0.656-0.404,0.944-0.649
			c0.288-0.246,0.534-0.509,0.738-0.789c0.374-0.537,0.537-0.935,0.488-1.194c-0.051-0.259-0.355-0.547-0.917-0.86
			c-0.41-0.24-0.888-0.423-1.438-0.547c-0.549-0.123-1.235-0.218-2.058-0.279c-0.627-0.053-1.105-0.146-1.434-0.276
			c-0.33-0.13-0.626-0.356-0.888-0.677c-0.889-1.045-0.976-2.207-0.257-3.485c0.122-0.229,0.292-0.476,0.507-0.739
			c0.214-0.262,0.449-0.519,0.701-0.769c0.253-0.25,0.51-0.49,0.774-0.724C40.401,37.935,40.662,37.741,40.92,37.585z"/>
		<path fill="#202933" d="M10.132,59.051l0.104-0.016c0.111-0.19,0.287-0.28,0.526-0.27c0.24,0.009,0.49,0.11,0.75,0.298
			c0.08,0.064,0.145,0.14,0.193,0.229c0.051,0.087,0.104,0.237,0.164,0.448c0.06,0.211,0.127,0.506,0.205,0.886
			c0.078,0.381,0.177,0.897,0.297,1.547c0.122,0.671,0.222,1.191,0.299,1.563c0.074,0.371,0.141,0.652,0.198,0.845
			c0.056,0.191,0.105,0.313,0.149,0.364s0.102,0.08,0.173,0.087c0.089,0.006,0.247-0.034,0.472-0.116
			c0.227-0.083,0.453-0.177,0.685-0.28c0.231-0.103,0.443-0.213,0.638-0.329c0.193-0.117,0.304-0.206,0.329-0.267
			c0.08-0.167,0.123-0.431,0.127-0.796c0.004-0.364-0.03-0.952-0.104-1.764c-0.058-0.814-0.048-1.486,0.027-2.016
			c0.076-0.528,0.216-0.827,0.416-0.897c0.185-0.068,0.391,0.015,0.622,0.246c0.23,0.233,0.403,0.54,0.516,0.925
			c0.067,0.2,0.122,0.494,0.165,0.878c0.042,0.387,0.072,0.75,0.092,1.091c0.003,0.249,0.057,0.758,0.16,1.526
			c0.103,0.771,0.233,1.655,0.39,2.654c0.157,1,0.324,2.036,0.502,3.109c0.177,1.074,0.352,2.047,0.524,2.919
			c0.079,0.39,0.081,0.682,0.005,0.876c-0.075,0.194-0.191,0.297-0.348,0.313c-0.157,0.015-0.334-0.068-0.529-0.247
			c-0.196-0.18-0.377-0.458-0.542-0.834c-0.25-0.574-0.472-1.171-0.666-1.792c-0.194-0.62-0.385-1.356-0.571-2.208
			c-0.104-0.443-0.203-0.806-0.29-1.089c-0.09-0.282-0.162-0.438-0.22-0.468c-0.095-0.042-0.215-0.042-0.357-0.001
			c-0.144,0.042-0.355,0.132-0.634,0.271c-0.212,0.11-0.429,0.197-0.648,0.26s-0.385,0.084-0.493,0.062l-0.405-0.05l0.467,3.316
			c0.12,0.881,0.213,1.575,0.274,2.083c0.062,0.507,0.088,0.896,0.076,1.166c-0.011,0.27-0.058,0.444-0.143,0.525
			c-0.084,0.081-0.213,0.133-0.385,0.161c-0.225,0.035-0.417-0.039-0.579-0.225c-0.162-0.185-0.326-0.585-0.493-1.2
			c-0.168-0.615-0.354-1.5-0.563-2.655c-0.208-1.154-0.46-2.686-0.76-4.591c-0.202-1.29-0.363-2.341-0.483-3.155
			c-0.118-0.815-0.211-1.461-0.277-1.938c-0.065-0.478-0.102-0.822-0.108-1.031C10.071,59.251,10.089,59.115,10.132,59.051z"/>
		<path fill="#202933" d="M20.602,58.9l0.065,0.076c0.409-0.543,0.901-0.62,1.474-0.231c0.062,0.047,0.168,0.199,0.322,0.451
			c0.155,0.254,0.314,0.535,0.478,0.845s0.309,0.608,0.433,0.894c0.125,0.288,0.196,0.497,0.217,0.627
			c0.009,0.056,0.061,0.21,0.152,0.464c0.093,0.254,0.208,0.532,0.345,0.836c0.229,0.559,0.493,1.205,0.795,1.943
			c0.3,0.738,0.602,1.472,0.901,2.199c0.299,0.729,0.582,1.407,0.85,2.036c0.267,0.627,0.469,1.103,0.609,1.426
			c0.135,0.305,0.256,0.625,0.362,0.963c0.105,0.337,0.191,0.659,0.257,0.965c0.065,0.305,0.1,0.573,0.1,0.803
			c0,0.229-0.026,0.396-0.08,0.501c-0.111,0.19-0.276,0.297-0.492,0.322c-0.219,0.024-0.416-0.036-0.598-0.181
			c-0.082-0.063-0.199-0.221-0.354-0.475c-0.155-0.254-0.327-0.566-0.52-0.939c-0.189-0.371-0.393-0.789-0.607-1.253
			c-0.215-0.464-0.42-0.93-0.617-1.397l-0.504-1.184l-0.517,0.081c-0.655,0.103-1.165,0.345-1.528,0.728
			c-0.364,0.383-0.514,0.837-0.449,1.363c0.023,0.149,0.017,0.39-0.019,0.721c-0.037,0.332-0.084,0.674-0.144,1.028
			c-0.06,0.355-0.13,0.672-0.208,0.953c-0.081,0.281-0.152,0.444-0.215,0.493c-0.184,0.182-0.412,0.218-0.686,0.108
			c-0.273-0.11-0.506-0.323-0.696-0.637c-0.128-0.248-0.211-0.474-0.252-0.679c-0.042-0.205-0.052-0.528-0.034-0.972
			c0.006-0.306,0.024-0.779,0.057-1.416c0.032-0.638,0.071-1.343,0.119-2.116c0.046-0.772,0.099-1.556,0.16-2.352
			c0.061-0.794,0.121-1.512,0.18-2.153c0.046-0.486,0.09-1.024,0.13-1.615c0.039-0.589,0.066-1.068,0.08-1.435
			c0.027-0.501,0.069-0.872,0.13-1.111C20.357,59.34,20.459,59.114,20.602,58.9z M22.974,65.737l-0.026,0.004
			c-0.15-0.397-0.32-0.663-0.509-0.796c-0.189-0.133-0.308-0.071-0.355,0.185c-0.11,0.765-0.119,1.297-0.027,1.6
			c0.092,0.301,0.311,0.424,0.654,0.37c0.294-0.046,0.46-0.168,0.5-0.365S23.17,66.205,22.974,65.737z"/>
		<path fill="#202933" d="M31.734,57.727l0.061,0.048c0.206-0.264,0.361-0.402,0.465-0.418s0.275,0.062,0.514,0.235
			c0.239,0.173,0.378,0.381,0.416,0.623c0.038,0.243-0.009,0.672-0.143,1.287c-0.175,0.908-0.266,1.999-0.268,3.272
			c-0.004,1.275,0.081,2.855,0.255,4.743c0.127,1.378,0.113,2.271-0.043,2.677c-0.158,0.408-0.527,0.505-1.108,0.29
			c-0.208-0.083-0.409-0.209-0.604-0.379c-0.194-0.171-0.404-0.411-0.629-0.72c-0.159-0.224-0.368-0.575-0.629-1.05
			c-0.26-0.476-0.543-1.011-0.848-1.605c-0.307-0.593-0.611-1.216-0.917-1.866c-0.305-0.651-0.588-1.268-0.846-1.85
			c-0.26-0.582-0.478-1.098-0.655-1.549c-0.177-0.45-0.279-0.77-0.309-0.956c-0.073-0.467,0.033-0.8,0.32-0.998
			s0.603-0.162,0.944,0.109c0.081,0.064,0.155,0.144,0.224,0.237c0.067,0.096,0.15,0.23,0.248,0.407
			c0.099,0.176,0.212,0.412,0.338,0.709c0.126,0.295,0.276,0.668,0.454,1.119c0.37,0.899,0.694,1.639,0.971,2.217
			c0.276,0.579,0.458,0.863,0.544,0.85c0.104-0.017,0.188-0.174,0.257-0.472c0.068-0.299,0.082-0.577,0.041-0.84
			c-0.023-0.148-0.024-0.437-0.002-0.86c0.021-0.425,0.053-0.895,0.096-1.409c0.042-0.514,0.094-1.009,0.15-1.487
			c0.058-0.479,0.119-0.847,0.185-1.106c0.051-0.237,0.127-0.48,0.231-0.726C31.55,58.014,31.645,57.836,31.734,57.727z"/>
		<path fill="#202933" d="M38.18,56.083l0.035,0.051c0.146-0.08,0.313-0.145,0.499-0.193c0.188-0.048,0.37-0.087,0.552-0.116
			c0.182-0.028,0.348-0.04,0.498-0.035c0.151,0.005,0.274,0.03,0.37,0.072c0.135,0.075,0.186,0.2,0.151,0.377
			c-0.034,0.179-0.146,0.388-0.339,0.629c-0.086,0.128-0.261,0.304-0.526,0.526c-0.266,0.224-0.557,0.457-0.871,0.698
			c-0.315,0.24-0.621,0.461-0.916,0.66c-0.296,0.2-0.519,0.331-0.667,0.392c-0.199,0.088-0.367,0.258-0.504,0.51
			c-0.138,0.251-0.241,0.517-0.313,0.795c-0.069,0.28-0.094,0.552-0.069,0.816c0.023,0.264,0.105,0.453,0.247,0.563
			c0.12,0.096,0.252,0.143,0.393,0.141c0.141-0.004,0.402-0.083,0.785-0.239c0.586-0.206,1.012-0.307,1.277-0.301
			c0.267,0.006,0.416,0.121,0.451,0.345c0.082,0.523-0.46,1.231-1.627,2.123l-0.973,0.728l0.204,1.634
			c0.041,0.377,0.079,0.677,0.114,0.901c0.035,0.224,0.072,0.405,0.112,0.542c0.039,0.138,0.087,0.246,0.143,0.323
			c0.057,0.077,0.126,0.148,0.206,0.212c0.121,0.095,0.232,0.164,0.337,0.204c0.104,0.042,0.228,0.046,0.372,0.015
			c0.146-0.033,0.328-0.115,0.545-0.244c0.218-0.13,0.512-0.311,0.883-0.542c0.66-0.409,1.147-0.653,1.463-0.731
			c0.313-0.078,0.558-0.015,0.731,0.187c0.129,0.152,0.098,0.401-0.095,0.748c-0.194,0.346-0.473,0.705-0.838,1.079
			c-0.365,0.373-0.771,0.719-1.215,1.038c-0.445,0.319-0.86,0.537-1.248,0.655c-0.288,0.084-0.506,0.108-0.652,0.074
			c-0.146-0.035-0.386-0.15-0.717-0.348c-0.213-0.12-0.434-0.285-0.662-0.499c-0.228-0.213-0.412-0.434-0.553-0.661
			c-0.116-0.173-0.211-0.33-0.287-0.472c-0.074-0.141-0.145-0.35-0.204-0.628c-0.062-0.277-0.132-0.668-0.211-1.173
			s-0.189-1.206-0.33-2.104c-0.173-1.102-0.313-2.051-0.421-2.849c-0.108-0.796-0.192-1.454-0.256-1.97
			c-0.064-0.517-0.101-0.913-0.107-1.19c-0.008-0.275,0-0.444,0.026-0.505c0.025-0.063,0.124-0.145,0.292-0.248
			c0.169-0.103,0.36-0.21,0.572-0.319c0.23-0.112,0.493-0.24,0.789-0.383c0.296-0.142,0.594-0.293,0.896-0.456
			c0.301-0.163,0.596-0.313,0.883-0.455C37.692,56.322,37.951,56.195,38.18,56.083z"/>
	</g>
</g>
</svg>
