<?xml version="1.0" encoding="utf-8"?>
<!-- Generator: Adobe Illustrator 16.0.0, SVG Export Plug-In . SVG Version: 6.00 Build 0)  -->
<!DOCTYPE svg PUBLIC "-//W3C//DTD SVG 1.1//EN" "http://www.w3.org/Graphics/SVG/1.1/DTD/svg11.dtd">
<svg version="1.1" xmlns="http://www.w3.org/2000/svg" xmlns:xlink="http://www.w3.org/1999/xlink" x="0px" y="0px"
	 width="153.208px" height="121.907px" viewBox="0 0 153.208 121.907" enable-background="new 0 0 153.208 121.907"
	 xml:space="preserve">
<g id="Layer_2">
</g>
<g id="Layer_1">
	<g>
		<path fill="#FFFFFF" d="M29.027,29.458c0-4.923-0.82-9.258,2.871-12.547c2.677-2.387,6.312-5.063,9.204-7.437
			c8.076-6.623,17.739-8.647,27.988-9.163c9.304-0.468,17.763-0.843,26.084,2.274c5.443,2.039,22.342,4.932,16.85,14.939
			c3.286,1.344,1.835,4.715,4.056,6.576c2.395,2.005,5.462,0.355,8.039-0.247c2.358-0.552,3.391-1.974,6.36-0.716
			c1.189,0.504,1.515,2.582,2.829,3.188c1.21,0.557,3.3-0.22,4.711,0.274c11.962,4.187-1.839,20.953,0.021,27.983
			c2.094,7.918,8.077,2.474,12.513,5.559c2.677,1.861,3.027,13.13,2.368,16.244c-1.904,9.006-7.666,18-16.405,19.56
			c-5.018,0.896-11.257-0.908-16.771-0.908c-3.351,0-12.101-1.712-13.896,0.321c-2.063,2.338-0.007,11.786,0.145,14.722
			c0.399,7.765-1.293,7.363-7.433,9.336c-5.754,1.848-9.718,2.49-16.27,2.49c-8.408,0-15.912-1.548-24.068-2.735
			c-3.104-0.451-7.671-0.254-9.859-2.854c-2.776-3.3,1.24-3.421,0.153-6.637c-1.411-4.181-8.165-3.188-10.947-2.356
			c-9.124,2.725-20.081,1.353-27.769-5.698C2.452,94.889-5.536,78.274,5.28,71.952c5.662-3.308,7.244-3.345,4.407-10.026
			c-2.15-5.058-4.819-11.079-2.277-16.787c1.751-3.934,7.153-7.498,11.259-7.949c2.376-0.262,5.738,1.416,8.025,0.171
			C31.735,34.618,29.027,29.458,29.027,29.458z"/>
		<g>
			<path fill="#7CCDCD" d="M70.188,29.626c-1.813-2.06-5.146-5.755-6.295-7.112c-10.291-2.499,1.279-11.896,2.303-1.868
				c2.469,3.948,3.549,4.643,5.838,7.794c-0.273,0.665-0.704,1.217-1.294,1.656L70.188,29.626z"/>
			<path fill="#7CCDCD" d="M73.513,27.321c1.439-2.335,4.006-6.599,4.97-8.095c-0.606-10.572,11.753-2.24,2.457,1.659
				c-3.06,3.511-3.407,4.747-5.756,7.854c-0.716-0.067-1.37-0.319-1.96-0.755L73.513,27.321z"/>
			<path fill="#5AB1AF" d="M71.697,28.165c-0.693-2.653-2.009-7.455-2.425-9.185c-8.068-6.859,6.492-10.05,2.897-0.632
				c0.427,4.637,1.081,5.741,1.708,9.587c-0.544,0.471-1.177,0.77-1.9,0.896L71.697,28.165z"/>
			<path fill="#231F20" d="M72.821,27.45c0.959-2.569,2.645-7.253,3.3-8.907c-2.649-10.252,11.095-4.482,2.734,1.151
				c-2.319,4.038-1.806,3.997-3.506,7.503c-0.714,0.071-2.019,1.272-2.685,0.96L72.821,27.45z"/>
			<path fill="#5AB1AF" d="M79.073,13.948c0.863,0.068,2.328,1.325,0.951,3.334c-1.377,2.007-1.394,0.173-1.11-0.306
				c0.282-0.479,0.935-1.518,0.384-1.754C78.746,14.985,77.818,13.85,79.073,13.948z"/>
		</g>
		<path fill="#7CCDCD" d="M58.213,111.6c0,0,17.906-6.555,25.709-4.605c7.803,1.948,9.647-0.998,17.362,1.55
			c7.716,2.547-1.348,10.819-11.161,7.996c-9.813-2.825-20.063-0.604-27.434-1.238C55.32,114.67,56.669,112.137,58.213,111.6z"/>
		<g>
			<path fill="#231F20" d="M16.599,47.702c0.241,0.12,0.459,0.19,0.699,0.19c0.218,0.312,0.53,0.214,0.725,0.6
				c0.145,0.047,0.313,0.021,0.387,0.286c0.096,0.073,0.24,0,0.313,0.023c0.339,0.433,0.796,0.382,1.088,0.959
				c0.48-0.003,0.748,0.646,1.158,0.862c0.025,0.288-0.047,0.385,0.074,0.625c0.049,0.097,0.217-0.049,0.289-0.024
				c0.266,0.166,0.388,0.527,0.699,0.43c-0.023,0.072,0.001,0.12,0.05,0.217c0.073,0.145,0.267,0.288,0.29,0.456
				c0.025,0.168-0.047,0.264,0.027,0.41c0.024,0.167,0.191,0.022,0.288,0.094l0.049,0.097c0.121,0.24,0.388,0.407,0.532,0.575
				c0.024,0.049,0,0.121,0,0.121c0.121,0.12,0.29,0.215,0.387,0.407c0.049,0.097,0.049,0.217,0.002,0.362
				c0.12-0.001,0.145,0.047,0.168,0.095c0.219,0.433,0.822,0.791,1.041,1.224l0.049,0.097c-0.096,0.169-0.096,0.409-0.047,0.505
				l0.049,0.096c0.121,0.241,0.506,0.167,0.627,0.287l0.072,0.145c0.146,0.289,0.411,0.455,0.508,0.648
				c0.073,0.144,0.074,0.264,0.026,0.408c0.121,0.121,0.41,0.215,0.556,0.383c0.097,0.192,0.049,0.458,0.146,0.649
				c0.023,0.048,0.098,0.072,0.121,0.121c0.145,0.167,0.291,0.335,0.482,0.479c-0.071,0.096-0.094,0.289,0.074,0.264
				c-0.216,0.289,0.098,0.434,0.003,0.723c0.145,0.048,0.193,0.264,0.339,0.312c-0.023,0.193,0.072,0.265,0.121,0.48
				c0.121,0.121,0.266,0.048,0.458-0.049l0.192-0.097c0.264-0.074,0.625-0.195,0.961-0.365l0.385-0.194
				c0.288-0.146,0.576-0.292,0.865-0.196c0.048-0.145,0.145-0.193,0.24-0.242c0.145-0.072,0.336-0.17,0.506-0.193
				c0.047-0.266-0.074-0.507-0.172-0.698l-0.17-0.337c-0.098-0.192-0.219-0.312-0.291-0.455c-0.146-0.289-0.194-0.506-0.364-0.722
				c-0.12-0.119-0.024-0.168-0.001-0.241c-0.072-0.144-0.192-0.022-0.193-0.143c-0.219-0.795-0.967-1.08-1.041-1.826
				c-0.121-0.119-0.242-0.24-0.291-0.336s-0.025-0.168-0.025-0.289c-0.049-0.096-0.121-0.119-0.17-0.215l-0.291-0.697l-0.049-0.217
				c-0.049-0.097-0.025-0.289-0.025-0.409c-0.049-0.097-0.17-0.217-0.17-0.337c-0.049-0.096-0.025-0.168-0.002-0.24l-0.145-0.289
				c0.023-0.072,0.047-0.145,0.023-0.192c0.048-0.024-0.098-0.071-0.073-0.144c0,0,0.048-0.024,0.024-0.072
				c-0.074-0.266-0.243-0.481-0.292-0.697c0.048-0.145,0.022-0.313,0.07-0.458c-0.146-0.288-0.267-0.408-0.22-0.674l-0.072-0.144
				c-0.098-0.193-0.123-0.48-0.22-0.674l-0.097-0.191l-0.364-0.721c-0.121-0.24-0.194-0.505-0.124-0.723
				c-0.071-0.023-0.119,0.001-0.168,0.025c0.048-0.145-0.121-0.239-0.193-0.385c0.023-0.192,0.143-0.313,0.142-0.554
				c-0.097-0.192-0.192-0.024-0.337-0.071c-0.023-0.048-0.072-0.023-0.097-0.072c-0.073-0.144-0.001-0.36-0.074-0.506
				c-0.073-0.144-0.267-0.287-0.194-0.504c-0.072-0.145-0.145-0.168-0.218-0.191c-0.073-0.265-0.122-0.482-0.22-0.674
				c-0.048-0.096-0.097-0.191-0.193-0.264c0.023-0.192-0.002-0.481-0.074-0.746c0.167-0.266,0.721-0.243,0.84-0.485
				c0.145-0.073,0.289-0.024,0.385-0.072c0.145-0.073,0.072-0.218,0.168-0.267c0.145,0.048,0.313-0.098,0.48-0.122
				c0.217-0.048,0.313,0.023,0.53-0.026l0.384-0.193c0.434-0.219,0.723,0.117,1.155-0.102l0.097-0.049
				c0.338,0.072,0.746,0.046,1.035,0.141c0.604,0.6,1.446,0.356,2.051,0.955c0.265,0.047,0.507,0.287,0.771,0.334
				c0.145,0.289,0.412,0.576,0.22,0.794c0.048,0.097,0.168-0.025,0.216,0.071l0.074,0.145c0.145,0.287,0.459,0.432,0.724,0.479
				c0.121,0.119,0.267,0.288,0.388,0.528l0.509,1.009c0.097,0.072,0.194,0.144,0.242,0.239c0.097,0.072,0.097,0.193,0.146,0.289
				c0.098,0.191,0.219,0.312,0.291,0.456c0.049,0.097,0.049,0.217-0.023,0.313l0.242,0.48c0.122,0.24,0.268,0.528,0.221,0.673
				c0.072,0.145,0.217,0.191,0.242,0.361c0.458,0.31,0.582,1.152,1.137,1.415c0,0.12,0.049,0.216,0.121,0.36
				c0.098,0.191,0.267,0.409,0.363,0.601c0.001,0.12-0.022,0.192,0.002,0.24c0.049,0.096,0.145,0.169,0.146,0.289
				c0.024,0.048-0.023,0.072-0.023,0.192s0.17,0.337,0.05,0.457c0.024,0.168,0.145,0.048,0.193,0.145
				c-0.023,0.191,0.194,0.505,0.268,0.768c0.049,0.098,0.025,0.29,0.074,0.386c0.072,0.145,0.289,0.216,0.41,0.457l0.098,0.191
				c0.072,0.144,0.146,0.409,0.315,0.625c-0.048,0.385,0.243,0.722,0.341,1.153c-0.311,0.339-0.093,0.771-0.188,1.181
				c0.097,0.072,0.242,0.241,0.314,0.384c0.049,0.096,0.098,0.193,0.025,0.289c0.024,0.169,0.121,0,0.169,0.096
				c0.267,0.529,0.343,1.275,0.489,1.924c0,0.121-0.047,0.146-0.119,0.242c0.097,0.191,0.049,0.336,0.121,0.48
				c0.025,0.048,0.097,0.072,0.146,0.168c0.001,0.361,0.194,0.505,0.269,0.891c0.049,0.096,0.073,0.264,0.098,0.312
				c0,0.12-0.096,0.289-0.07,0.458c0.193,0.384-0.119,0.481-0.117,0.723c-0.024,0.072,0.024,0.168-0.048,0.265
				c-0.047,0.266-0.214,0.531-0.286,0.748c-0.24,0.001-0.288,0.146-0.48,0.242c-0.313,0.218-0.721,0.364-0.985,0.558l-0.479,0.242
				c-0.193,0.098-0.385,0.194-0.625,0.195c-0.217,0.05-0.482-0.119-0.795-0.141c-0.049,0.023,0,0.119-0.049,0.144
				c-0.24,0.002-0.457-0.069-0.723,0.003c-0.191-0.023-0.337-0.19-0.602-0.117c-0.217-0.072-0.387-0.287-0.651-0.335
				c-0.192-0.144-0.362-0.36-0.53-0.455c-0.122-0.12,0.095-0.169,0.047-0.265c-0.29,0.025-0.41-0.095-0.531-0.335l-0.195-0.385
				c-0.048-0.096-0.24-0.24-0.313-0.384c-0.12-0.121-0.146-0.289-0.267-0.408c-0.023-0.048-0.097-0.071-0.121-0.12l-0.072-0.145
				c-0.146-0.288-0.242-0.601-0.484-0.601c-0.263,0.314-0.575,0.532-0.912,0.702c-0.455,0.292-0.961,0.485-1.489,0.753
				c-0.337,0.169-0.696,0.412-0.984,0.678c0.073,0.144-0.022,0.313,0.073,0.506l0.049,0.097c-0.287,0.265,0.172,0.816,0.102,1.153
				c0.121,0.361,0.363,0.723,0.51,1.01c0.072,0.145-0.047,0.386,0.17,0.338c-0.168,0.265-0.07,0.576-0.143,0.794
				c-0.047,0.145-0.143,0.192-0.19,0.338c-0.071,0.097-0.023,0.192-0.022,0.312c-0.072,0.218-0.168,0.388-0.264,0.556
				c-0.023,0.192-0.094,0.409-0.189,0.579l-0.096,0.049c-0.145,0.072-0.168,0.265-0.289,0.385c-0.096,0.049-0.215,0.171-0.288,0.146
				c-0.071,0.097-0.143,0.193-0.239,0.242c-0.336,0.17-0.794,0.099-1.178,0.293l-0.241,0.121c-0.048,0.024-0.144-0.047-0.192-0.022
				c-0.168,0.024-0.24,0.121-0.36,0.121c-0.048,0.024-0.146-0.047-0.339-0.071c-0.119,0.001-0.264,0.074-0.384,0.074
				c-0.192-0.023-0.481-0.119-0.698-0.189c-0.121,0-0.145-0.048-0.217-0.071c-0.338-0.071-0.578,0.05-0.82-0.19
				c-0.506-0.045-1.084-0.235-1.326-0.717c-0.146-0.047-0.242-0.119-0.29-0.215l-0.194-0.385c-0.121-0.12-0.29-0.215-0.363-0.36
				l-0.121-0.359c-0.146-0.289-0.508-0.408-0.725-0.721l-0.072-0.144c-0.098-0.192-0.146-0.409-0.244-0.601l-0.072-0.145
				c-0.073-0.145,0.07-0.218-0.002-0.362c-0.024-0.047-0.097-0.07-0.049-0.096c-0.242-0.238-0.435-0.503-0.604-0.84
				c-0.17-0.336-0.292-0.697-0.485-0.961c-0.049-0.096-0.097-0.071-0.145-0.168l-0.098-0.192c-0.072-0.144-0.145-0.287-0.146-0.408
				c-0.145-0.168-0.29-0.336-0.363-0.479c-0.121-0.241-0.193-0.505-0.195-0.746l-0.097-0.191c-0.146-0.289-0.388-0.649-0.341-0.914
				c-0.192-0.024-0.313-0.144-0.387-0.288c-0.072-0.144-0.097-0.313-0.193-0.505c-0.072-0.023-0.17-0.095-0.193-0.143
				c-0.17-0.337-0.172-0.697-0.293-0.939l-0.049-0.096c-0.121-0.119-0.338-0.19-0.482-0.359l-0.098-0.191
				c-0.17-0.336-0.292-0.817-0.51-1.25l-0.098-0.191c-0.072-0.146-0.193-0.265-0.291-0.456l-0.049-0.097
				c-0.048-0.097,0-0.241-0.072-0.386c-0.073-0.144-0.219-0.312-0.315-0.504c-0.049-0.096-0.073-0.144-0.073-0.265
				c-0.049-0.096-0.145-0.047-0.241-0.119c-0.243-0.602-0.486-1.081-0.704-1.755c-0.074-0.265-0.004-0.481-0.125-0.722
				c-0.048-0.096-0.169-0.216-0.193-0.385c0-0.119-0.001-0.241-0.05-0.457c0,0-0.097-0.071-0.048-0.096
				c-0.024-0.048,0.023-0.072,0.023-0.072c-0.025-0.168-0.242-0.24-0.123-0.481c-0.243-0.721-0.317-1.227-0.488-1.924
				c0.047-0.145-0.025-0.289,0.07-0.458l-0.049-0.096c-0.242-0.48,0.236-1.084,0.523-1.471c0.527-0.508,1.297-0.896,1.945-1.284
				C16.118,47.825,16.358,47.703,16.599,47.702z"/>
		</g>
		<g>
			<path fill="#231F20" d="M53.015,32.127c0.904-0.15,2.082-0.275,3.116-0.224c0.106-0.011,0.172,0.09,0.278,0.078
				c0.498,0.11,0.648-0.015,0.993,0.166c0.006,0.053,0.064,0.101,0.124,0.148c0.111,0.042,0.325,0.019,0.498,0.11
				c0.569,0.264,0.853,0.883,1.41,1.04l0.613,1.18c0.211,0.465,0.472,0.87,0.522,1.352c0.023,0.215-0.05,0.548,0.187,0.738
				c-0.036,0.168-0.025,0.274-0.008,0.435c0.04,0.375,0.182,0.685,0.466,0.816c0.028,0.268-0.061,0.439-0.038,0.653
				c0.071,0.155,0.184,0.197,0.2,0.358c0.017,0.16-0.078,0.279-0.056,0.493l0.012,0.107c0.018,0.16,0.225,0.083,0.29,0.185
				c0.011,0.107-0.037,0.167-0.025,0.273c0.034,0.321,0.224,0.573,0.252,0.84l0.012,0.106c0.017,0.161-0.091,0.172-0.067,0.386
				c0.011,0.108,0.077,0.209-0.025,0.274c0.237,0.19,0.133,0.743,0.371,0.935c-0.037,0.166-0.02,0.327-0.008,0.435
				c0.028,0.268,0.104,0.476,0.239,0.731c-0.035,0.166-0.013,0.381,0.01,0.595c0.029,0.268,0.058,0.536-0.194,0.725
				c0.012,0.106,0.078,0.208,0.089,0.315c0.023,0.215-0.068,0.387-0.217,0.511l0.057,0.535c0.028,0.269,0.058,0.535-0.081,0.767
				c-0.036,0.166,0.077,0.207,0.143,0.311c-0.037,0.165-0.098,0.117-0.02,0.325c0.177,0.145,0.057,0.536,0.223,0.573
				c-0.16,0.017-0.209,0.075-0.299,0.247c0.034,0.322,0.325,0.507,0.359,0.828c0.017,0.16-0.127,0.339-0.11,0.499l0.012,0.107
				c0.04,0.374,0.235,0.679,0.323,0.994c0.188,0.25,0.33,0.561,0.52,0.811c0.12,1.124,1.052,1.241,1.561,1.945
				c0.101-0.064,0.209-0.076,0.369-0.094c0.268-0.028,0.541-0.003,0.719,0.141c0.052,0.481,0.252,0.839,0.286,1.16
				c0.017,0.16-0.025,0.273-0.063,0.44c-0.035,0.166-0.185,0.29-0.228,0.403c-0.048,0.059-0.031,0.219-0.073,0.332
				c-0.095,0.118-0.244,0.243-0.222,0.457c-0.292,0.302-0.596,0.496-0.718,0.888l-0.107,0.012c-0.428,0.046-0.656,0.449-1.083,0.495
				c-0.055,0.005-0.108,0.011-0.155,0.069c-0.154,0.071-0.411,0.207-0.678,0.235c-0.161,0.017-0.321,0.034-0.441-0.062
				c-0.624,0.229-2.008-0.058-2.333-0.563c-0.493-0.058-0.86-0.451-1.221-0.792c-0.178-0.143-0.409-0.28-0.599-0.531
				c-0.065-0.102-0.082-0.262-0.2-0.358c-0.124-0.148-0.291-0.185-0.463-0.274c-0.095,0.118-0.233,0.349-0.447,0.371
				c-0.054,0.006-0.106,0.012-0.167-0.035c-0.048,0.059,0.028,0.268,0.04,0.375c-0.356,0.2-0.584,0.603-0.959,0.643
				c-0.049,0.06,0.028,0.269-0.02,0.328c-0.305,0.194-0.554,0.384-0.74,0.673c-0.529,0.11-0.816,0.466-1.298,0.518l-0.161,0.017
				c-0.257,0.137-0.626,0.23-0.947,0.265l-0.32,0.034c-0.107,0.011-0.167-0.037-0.221-0.031c-0.166-0.037-0.321,0.034-0.428,0.046
				l-0.499-0.11c-0.22-0.03-0.38-0.013-0.505-0.161c-0.111-0.044-0.101,0.063-0.209,0.075c-0.059-0.047-0.123-0.149-0.235-0.192
				c-0.488-0.001-0.73-0.246-1.123-0.367c-0.349-0.233-0.854-0.396-1.161-0.742c-0.375,0.04-0.708-0.032-1.045-0.159l-0.403-0.229
				c-0.173-0.089-0.243-0.244-0.367-0.394c-0.415-0.335-0.865-0.503-1.071-0.915c-0.403-0.228-0.615-0.691-0.869-1.044
				c-0.006-0.053-0.112-0.041-0.221-0.029c0.037-0.168-0.071-0.157-0.029-0.269c-0.059-0.049-0.16,0.017-0.225-0.084
				c-0.207-0.412-0.604-0.587-0.66-1.122c-0.006-0.053-0.018-0.16-0.082-0.261c-0.006-0.055-0.119-0.096-0.125-0.149l-0.018-0.16
				c-0.068-0.643-0.482-0.978-0.587-1.454c-0.028-0.268,0.05-0.546,0.026-0.76c-0.017-0.161-0.188-0.252-0.205-0.413l-0.11-0.529
				c-0.022-0.213,0.013-0.38-0.004-0.54c0.05-0.546-0.077-1.237-0.034-1.837c0.05-0.06,0.156-0.071,0.15-0.124
				c0.036-0.167-0.179-0.144-0.189-0.251c0.129-0.826,0.127-1.854,0.364-2.691c0.213-0.023,0.189-0.237,0.287-0.355
				c-0.018-0.16-0.126-0.149-0.195-0.305c-0.023-0.214,0.062-0.438,0.204-0.616c-0.028-0.269-0.003-0.541,0.141-0.719l-0.011-0.107
				c-0.034-0.321,0.192-0.725,0.318-1.063c0.043-0.113,0.021-0.327,0.181-0.344c-0.054,0.006-0.065-0.102-0.07-0.156
				c0.389-0.419,0.362-1.175,0.804-1.601c0.199-0.671,0.512-1.3,0.947-1.779c-0.022-0.214,0.025-0.273,0.067-0.387
				c0.09-0.171,0.239-0.295,0.276-0.462l0.267-0.028c0.453-0.318,0.793-0.68,1.253-0.946c0.037-0.166,0.186-0.289,0.275-0.462
				c0.048-0.06,0.103-0.065,0.161-0.017c0.256-0.135,0.453-0.318,0.65-0.503c0.203-0.13,0.394-0.366,0.65-0.502
				c0.148-0.124,0.416-0.152,0.619-0.282l0.357-0.2c0.311-0.142,0.732-0.241,0.978-0.483c0.06,0.048,0.166,0.037,0.22,0.031
				c0.16-0.018,0.311-0.142,0.405-0.261c0.167,0.037,0.263-0.081,0.481-0.051c0.191-0.237,0.459-0.266,0.727-0.294L53.015,32.127z
				 M50.376,40.907c0.011,0.107-0.144,0.178-0.078,0.278c-0.311,0.143-0.621,0.283-0.753,0.567c0.023,0.215-0.137,0.232-0.12,0.393
				c-0.09,0.171-0.067,0.386-0.21,0.563l0.076,0.209c-0.208,0.076-0.191,0.236-0.174,0.397c0.04,0.375,0.079,0.748,0.011,1.135
				c0.114,0.042,0.126,0.149,0.137,0.257c0.018,0.16-0.115,0.445-0.151,0.611c0.06,0.048,0.065,0.103,0.076,0.209
				c0.022,0.214-0.114,0.445-0.092,0.658c0.018,0.161,0.081,0.263,0.308,0.347c-0.038,0.166,0.082,0.263,0.2,0.358
				c-0.239,0.296,0.057,0.535-0.241,0.784c0.064,0.101,0.135,0.255,0.151,0.416c0.018,0.16-0.024,0.273-0.061,0.44
				c0.065,0.101,0.226,0.083,0.237,0.189c-0.036,0.168,0.129,0.204,0.188,0.252c0.112,0.042,0.124,0.148,0.243,0.243
				c0.07,0.156,0.225,0.086,0.248,0.3c0.011,0.107,0.022,0.214-0.014,0.38c0.225,0.085,0.302,0.294,0.527,0.377l0.08,0.75
				c0.338,0.126,0.671,0.199,0.955,0.331c0.13,0.203,0.397,0.174,0.73,0.247c0.059,0.048,0.166,0.037,0.225,0.085
				c0.167,0.035,0.221,0.03,0.435,0.007c0.167,0.037,0.231,0.138,0.387,0.067c0.16-0.017,0.148-0.124,0.363-0.146l-0.017-0.16
				c0.345-0.308,0.633-0.663,0.753-1.056c0.042-0.113,0.257-0.136,0.251-0.188c-0.006-0.054-0.06-0.048-0.065-0.102
				c-0.017-0.161,0.174-0.396,0.271-0.516l-0.006-0.055c-0.018-0.16,0.078-0.278,0.281-0.407c-0.06-0.048-0.119-0.097-0.07-0.155
				c0.143-0.179,0.072-0.334,0.156-0.559c0.043-0.113,0.192-0.236,0.228-0.403c0.126-0.338,0.307-0.682,0.326-1.009
				c0.03-0.22-0.04-0.375,0.163-0.505c-0.161,0.018-0.167-0.036-0.173-0.089c-0.017-0.161,0.073-0.333,0.175-0.398
				c-0.034-0.321-0.021-0.702,0.105-1.04c-0.054,0.006-0.166-0.037-0.171-0.091c0.072-0.332-0.182-0.685-0.108-1.017
				c-0.006-0.053,0.101-0.063,0.095-0.118c-0.011-0.106-0.063-0.101-0.069-0.154c-0.012-0.106,0.089-0.172,0.137-0.232
				c-0.011-0.106-0.076-0.208-0.082-0.261c-0.006-0.054,0.043-0.113,0.031-0.221l-0.068-0.642c-0.034-0.322-0.074-0.696-0.21-0.952
				c-0.059-0.047,0.16-0.018,0.096-0.119c-0.273-0.025-0.296-0.239-0.372-0.447c-0.162,0.018-0.209,0.075-0.43,0.046l-0.177-0.144
				l-0.106,0.012c-0.429,0.046-0.624-0.26-0.998-0.22l-0.209,0.076c-0.059-0.048-0.064-0.101-0.225-0.083l-0.215,0.022
				c-0.16,0.018-0.321,0.034-0.476,0.104l-0.237-0.19l-0.16,0.017c-0.481,0.052-0.714-0.087-1.088-0.047
				C51.032,40.458,50.674,40.659,50.376,40.907z"/>
		</g>
		<g>
			<path fill="#231F20" d="M71.557,26.29c1.022,0.018,1.828,0.14,2.687,0.315c0.053,0.054,0.105,0.108,0.104,0.162
				c0.108-0.052,0.217-0.104,0.271-0.104c0.215,0.004,0.374,0.168,0.589,0.172l0.107,0.002c0.105,0.109,0.104,0.217,0.212,0.219
				c0.269,0.005,0.646,0.012,0.748,0.283l0.216,0.003c0.27,0.005,0.591,0.064,0.696,0.281c0.322,0.005,0.374,0.168,0.642,0.227
				c0.104,0.163,0.211,0.272,0.369,0.437c0.592,0.011,0.526,0.709,1.008,0.879c0.052,0.162,0.104,0.324,0.21,0.381
				c0.094,0.755,0.9,0.877,0.943,1.47c0.05,0.162,0.157,0.164,0.21,0.273c-0.008,0.484,0.366,0.651,0.359,1.082l-0.003,0.162
				c-0.002,0.107,0.16,0.057,0.213,0.111c0.101,0.379,0.036,1.022,0.355,1.244l-0.003,0.215c-0.005,0.27,0.045,0.485,0.039,0.809
				c-0.107-0.002-0.162,0.051-0.218,0.157c-0.003,0.162,0.105,0.164,0.157,0.272c-0.056,0.106-0.059,0.269-0.062,0.43
				c-0.005,0.323-0.011,0.646-0.281,0.695c-0.002,0.107,0.052,0.108,0.05,0.216c-0.164,0.159-0.22,0.319-0.225,0.588
				c-0.22,0.213-0.386,0.479-0.657,0.636c0.052,0.108,0.048,0.324,0.048,0.324c-0.109,0.159-0.217,0.157-0.326,0.263
				c-0.167,0.32-0.176,0.805-0.503,1.016c-0.003,0.215-0.219,0.264-0.223,0.479l-0.27-0.005c-0.108,0.052-0.111,0.213-0.167,0.32
				c-0.543,0.313-0.663,1.012-1.366,1.215c-0.11,0.16-0.115,0.43-0.28,0.588l-0.107-0.002c-0.216-0.003-0.219,0.158-0.434,0.154
				c-0.001,0.107-0.056,0.161-0.058,0.269c-0.11,0.159-0.381,0.208-0.49,0.314c-0.109,0.053-0.163,0.052-0.271,0.05
				c-0.11,0.159-0.22,0.318-0.544,0.367c-0.111,0.213-0.436,0.262-0.494,0.53c-0.434,0.153-0.813,0.363-1.036,0.736
				c0.051,0.216,0.102,0.378,0.099,0.594c-0.005,0.27-0.063,0.483-0.176,0.751c0.053,0.055,0.161,0.057,0.214,0.165
				c-0.057,0.16-0.167,0.266-0.117,0.535c-0.057,0.107-0.218,0.158-0.272,0.211c-0.003,0.215-0.006,0.377,0.1,0.433
				c-0.108,0.105-0.008,0.431-0.277,0.479c0.107,0.109,0.105,0.218,0.103,0.379c-0.004,0.215-0.062,0.43-0.064,0.645l-0.003,0.162
				c-0.164,0.104-0.01,0.538-0.229,0.696c0.105,0.163,0.103,0.324,0.046,0.484c-0.002,0.108,0.16,0.111,0.157,0.272
				c-0.058,0.161-0.167,0.32-0.172,0.589c-0.11,0.161-0.222,0.374-0.279,0.643c-0.054-0.001-0.109,0.052-0.217,0.05
				c-0.114,0.375-0.175,0.751-0.501,0.961c-0.061,0.375-0.332,0.479-0.82,0.685c-0.107,0.053-0.38,0.209-0.595,0.205
				c-0.217,0.051-0.539,0.046-0.809,0.041c-0.163,0.051-0.271,0.103-0.379,0.101l-0.161-0.003c-0.27-0.004-0.537-0.116-0.752-0.12
				l-0.107-0.002c0.001-0.055-0.107-0.056-0.214-0.111l-0.161-0.003c-0.27-0.005-0.375-0.114-0.752-0.12
				c-0.104-0.217-0.428-0.223-0.585-0.388c-0.217,0.051-0.268-0.111-0.429-0.114c-0.107-0.056-0.106-0.109-0.105-0.163
				c-0.373-0.168-0.854-0.444-0.847-0.875c0.002-0.108-0.105-0.11-0.158-0.165c0.002-0.107,0.108-0.052,0.057-0.16
				c0.001-0.054-0.107-0.002-0.161-0.003c-0.099-0.54-0.249-1.243-0.292-1.836c-0.16-0.11-0.05-0.27-0.264-0.381
				c0.004-0.216,0.009-0.484-0.151-0.541c0.001-0.108,0.055-0.107,0.056-0.161c-0.205-0.542-0.195-1.135-0.294-1.675
				c-0.052-0.162-0.103-0.325-0.101-0.433s0.003-0.161,0.058-0.214c-0.156-0.271-0.046-0.484-0.041-0.754l-0.05-0.216
				c0.003-0.162,0.058-0.215,0.112-0.268c-0.159-0.165,0.005-0.323-0.1-0.486c0.165-0.213,0.17-0.536,0.231-0.911
				c0.005-0.27-0.1-0.541,0.119-0.698c0.003-0.161-0.162-0.003-0.16-0.11c0.003-0.162,0.221-0.266,0.224-0.427
				c-0.052-0.109-0.051-0.163-0.158-0.219c-0.106-0.109,0.004-0.215,0.006-0.322l0.002-0.108c0.007-0.377,0.169-0.428,0.177-0.912
				l0.061-0.376c0.001-0.054-0.105-0.163-0.104-0.217l0.002-0.107c0.007-0.377,0.173-0.643,0.337-0.854
				c-0.051-0.163-0.212-0.166-0.372-0.223c-0.05-0.217,0.06-0.322,0.115-0.429c-0.052-0.162-0.104-0.271-0.101-0.433
				c0.007-0.377,0.175-0.805,0.072-1.076c0.11-0.159,0.167-0.319,0.17-0.535c0.004-0.215-0.046-0.432-0.151-0.541
				c-0.051-0.162,0.004-0.27-0.047-0.432c0.165-0.213,0.223-0.427,0.227-0.642c-0.052-0.163-0.104-0.271-0.102-0.379
				c0.003-0.162,0.166-0.267,0.009-0.484c0.056-0.107,0.164-0.159,0.219-0.266c-0.053-0.055-0.16-0.057-0.159-0.11
				c0.003-0.162,0.114-0.375,0.118-0.591c0.002-0.106-0.052-0.161-0.104-0.27c0.271-0.104,0.116-0.482,0.335-0.641
				c0.002-0.107-0.051-0.216-0.05-0.271c0.11-0.159,0.172-0.59,0.176-0.859c0.001-0.054-0.051-0.161-0.049-0.269
				c0.057-0.161,0.222-0.374,0.225-0.535c0.003-0.216-0.047-0.432-0.044-0.594l0.003-0.161c0.058-0.269,0.388-0.64,0.501-0.96
				c0.055-0.054,0.056-0.107,0.057-0.161c0.055-0.053,0.109-0.105,0.163-0.104c0.057-0.16,0.005-0.27,0.114-0.376
				c0.111-0.213,0.437-0.315,0.547-0.528c0.219-0.157,0.436-0.263,0.601-0.421c0.16,0.003,0.324-0.156,0.541-0.206
				c0.271-0.05,0.592,0.01,0.917-0.092c0.432-0.046,1.024-0.089,1.511-0.188c0.054,0.001,0.106,0.056,0.159,0.11
				c0.162-0.051,0.486-0.1,0.702-0.096l0.161,0.003c0.107,0.002,0.162-0.051,0.164-0.159C71.558,26.236,71.557,26.29,71.557,26.29z
				 M64.734,41.087l-0.001,0.054c0.107,0.056,0.109-0.105,0.056-0.106C64.789,41.034,64.788,41.088,64.734,41.087z M73.968,30.046
				c-0.217,0.157-0.541,0.261-0.758,0.364c-0.164,0.104-0.167,0.267-0.171,0.481l-0.005,0.27c-0.002,0.161-0.111,0.267-0.167,0.374
				c-0.003,0.161,0.155,0.325,0.046,0.431c-0.002,0.162,0.156,0.326,0.207,0.489c-0.003,0.161-0.008,0.431,0.044,0.646
				c-0.001,0.053,0.052,0.107,0.051,0.162c0.05,0.216-0.009,0.484,0.041,0.754c0.103,0.271,0.098,0.54,0.146,0.864
				c0.052,0.108,0.103,0.271,0.1,0.432L73.5,35.421c0.108,0.002,0.161,0.058,0.214,0.112c0.214,0.004,0.218-0.212,0.327-0.264
				c0.159,0.11,0.216-0.05,0.377-0.048c0.281-0.695,1.146-0.842,1.213-1.648l0.165-0.158c0.007-0.43,0.176-0.857,0.236-1.287
				c0.005-0.27,0.012-0.646-0.038-0.862c0.004-0.27-0.102-0.379-0.261-0.543c-0.157-0.219-0.264-0.274-0.424-0.384
				c-0.106-0.11-0.159-0.165-0.267-0.167c-0.053-0.055-0.106-0.056-0.105-0.109c-0.107-0.056-0.161-0.057-0.269-0.059
				C74.453,30,74.236,30.104,73.968,30.046z"/>
		</g>
		<g>
			<path fill="#231F20" d="M115.125,34.158l0.17,0.064c0.169,0.064,0.364,0.188,0.391,0.246c0.085,0.031,0.06-0.027,0.101-0.011
				c0.281,0.155,0.572,0.41,0.826,0.507c0.085,0.031,0.127,0.047,0.228,0.037c0.011,0.101-0.073,0.068-0.063,0.17
				c0.068,0.074,0.085,0.031,0.254,0.096c0.011,0.102-0.074,0.068-0.049,0.127c0.212,0.08,0.148,0.25,0.318,0.314
				c0.02,0.201,0.215,0.324,0.135,0.535c-0.031,0.085,0.053,0.117,0.079,0.176c-0.048,0.127-0.012,0.286-0.06,0.413
				c-0.054,0.271-0.15,0.524-0.188,0.752c-0.054,0.271,0.109,0.478,0.046,0.646c-0.033,0.085-0.16,0.036-0.134,0.095
				c-0.037,0.229,0.1,0.377,0.035,0.547c-0.048,0.127-0.334,0.115-0.397,0.285c-0.049,0.127,0.053,0.116,0.063,0.217
				c-0.139,0.238-0.187,0.365-0.124,0.583c-0.148,0.138-0.19,0.121-0.298,0.274c-0.116,0.053-0.259,0.047-0.35,0.158
				c0.01,0.101,0.079,0.176,0.205,0.223c0.021,0.202-0.16,0.424-0.055,0.658c-0.123,0.194-0.245,0.391-0.293,0.518
				c-0.032,0.085-0.064,0.17-0.039,0.228l-0.031,0.085c-0.064,0.17-0.164,0.18-0.298,0.274c0.024,0.445-0.257,0.678-0.173,1.097
				c-0.049,0.128-0.25,0.148-0.172,0.322c-0.058,0.027-0.1,0.012-0.143-0.005l-0.08,0.212c-0.059,0.025-0.101,0.01-0.186-0.021
				c-0.005,0.143,0.057,0.359,0.009,0.486c-0.032,0.086-0.106,0.154-0.249,0.148c-0.112,0.297-0.05,0.514-0.061,0.801
				c-0.085-0.033-0.117,0.052-0.159,0.036c0.02,0.201,0.114,0.334,0.051,0.503c-0.032,0.085-0.133,0.096-0.207,0.164
				c-0.049,0.127,0.005,0.244,0.015,0.345c-0.123,0.196-0.245,0.392-0.341,0.646c-0.097,0.254-0.15,0.524-0.12,0.826
				c-0.117,0.053-0.191,0.121-0.239,0.248c-0.048,0.128-0.038,0.229-0.043,0.371c-0.032,0.086-0.134,0.096-0.219,0.063
				c-0.053,0.271-0.16,0.423,0.004,0.63c-0.032,0.086-0.074,0.07-0.175,0.08c0.053,0.117-0.091,0.111-0.166,0.18
				c0.012,0.101-0.074,0.068-0.08,0.211c-0.016,0.043,0.011,0.102,0.095,0.133c-0.063,0.17-0.212,0.307-0.101,0.397
				c-0.06,0.026-0.075,0.068-0.092,0.11c-0.031,0.085,0.048,0.261,0.058,0.361c-0.133,0.095-0.233,0.105-0.366,0.2
				c-0.006,0.144,0.121,0.191,0.116,0.335c-0.091,0.11-0.14,0.237-0.299,0.274l-0.063,0.169c-0.08,0.212-0.203,0.408-0.342,0.646
				c0.026,0.059,0.09,0.275,0.025,0.445c-0.016,0.042-0.091,0.11-0.149,0.137c-0.08,0.212-0.16,0.424-0.325,0.604
				c0.095,0.132-0.139,0.237-0.075,0.455c-0.102,0.01-0.176,0.079-0.233,0.105c-0.064,0.17-0.055,0.27-0.187,0.365
				c-0.017,0.043,0.126,0.048,0.153,0.106c0.01,0.101-0.129,0.339-0.204,0.407c-0.021,0.186-0.043,0.371-0.123,0.583l-0.064,0.169
				c0.021,0.202,0.015,0.345-0.219,0.449c0.004,0.244-0.049,0.515-0.146,0.77l-0.048,0.127c0.079,0.175-0.103,0.396-0.065,0.556
				c-0.117,0.053-0.197,0.265-0.299,0.274c-0.032,0.085-0.063,0.17-0.122,0.196c-0.201,0.021-0.307,0.174-0.466,0.21
				c-0.112,0.297-0.356,0.302-0.495,0.539c-0.043-0.016-0.059,0.027-0.143-0.005c0.01,0.101-0.064,0.169-0.14,0.237
				c-0.1,0.01-0.249,0.147-0.419,0.084c-0.074,0.068-0.233,0.104-0.324,0.216c-0.127-0.048-0.302,0.03-0.429-0.017
				c-0.042-0.017-0.069-0.075-0.111-0.092c-0.201,0.021-0.387-0.001-0.556-0.064c-0.551-0.209-0.89-0.725-1.481-0.949
				c-0.127-0.048-0.054-0.117-0.121-0.191c-0.043-0.016-0.187-0.021-0.17-0.063c-0.101,0.011-0.244,0.004-0.371-0.044
				c-0.381-0.145-0.75-0.574-0.898-0.824c0.032-0.084,0.191-0.121-0.021-0.201l-0.169-0.064c-0.063-0.217-0.185-0.408-0.231-0.668
				c0.032-0.085,0.144,0.005,0.159-0.037c-0.104-0.234-0.151-0.494-0.14-0.779c0.032-0.085,0.116-0.053,0.19-0.122
				c0.048-0.127-0.062-0.218,0.055-0.271c0.048-0.127-0.036-0.158-0.105-0.232c0.074-0.069,0.037-0.229,0.069-0.313
				c0.092-0.11,0.102-0.01,0.107-0.153c-0.011-0.101,0.064-0.17,0.097-0.254c0.048-0.127-0.005-0.244,0.043-0.371l0.032-0.084
				c0.016-0.043-0.01-0.101,0.006-0.143c0.021-0.187,0.145-0.382,0.124-0.583c0.133-0.095,0.197-0.265,0.329-0.36l-0.031-0.302
				c0.075-0.068,0.134-0.095,0.182-0.222c0.017-0.043,0.074-0.068,0.09-0.111l0.049-0.127c0.063-0.17,0.086-0.355,0.166-0.566
				c0.097-0.255,0.262-0.435,0.357-0.688l0.049-0.127c0.032-0.086,0.005-0.144-0.021-0.202c0.192-0.509,0.386-1.017,0.614-1.366
				c0.032-0.084,0.117-0.053,0.134-0.094c0.021-0.186,0.145-0.382,0.165-0.567c0.017-0.042-0.053-0.117-0.021-0.202
				c0.048-0.127,0.197-0.264,0.262-0.434c-0.01-0.1-0.105-0.232,0.07-0.312c-0.027-0.059,0.005-0.144,0.021-0.187
				c0.049-0.127,0.14-0.237,0.188-0.364c0.064-0.169,0.086-0.354,0.134-0.481c0.048-0.128,0.123-0.196,0.24-0.249
				c0.005-0.144-0.18-0.165-0.232-0.282c-0.117,0.053-0.355-0.086-0.482-0.134c-0.085-0.032-0.127-0.048-0.186-0.021
				c-0.068-0.074-0.195-0.122-0.28-0.155c-0.255-0.096-0.541-0.107-0.82-0.262c-0.112-0.091-0.207-0.225-0.291-0.256
				c-0.111-0.09-0.212-0.08-0.281-0.154c-0.041-0.016-0.068-0.074-0.11-0.091l-0.122-0.19l-0.211-0.08l-0.565-0.554
				c-0.128-0.048-0.17-0.063-0.228-0.038c-0.302-0.356-0.794-0.591-0.979-1c-0.101,0.01-0.127-0.049-0.212-0.08
				c-0.209-0.467-0.537-0.881-0.656-1.459c-0.147-0.25-0.338-0.516-0.353-0.86c-0.158-0.351-0.098-0.764-0.172-1.082
				c0.017-0.042,0.022-0.186,0.064-0.169c-0.025-0.059-0.053-0.117-0.063-0.219c0.016-0.042,0.074-0.068,0.09-0.111
				c-0.057-0.359-0.002-1.017,0.175-1.482c0.048-0.127,0.155-0.28,0.16-0.424c0.048-0.127,0.055-0.27,0.086-0.354
				c0.032-0.085,0.049-0.127,0.106-0.153c0.091-0.111,0.119-0.439,0.225-0.594c0.075-0.068,0.176-0.078,0.225-0.205
				c0.031-0.085-0.012-0.102,0.021-0.186c0.032-0.085,0.092-0.111,0.124-0.195c0.063-0.17,0.027-0.328,0.107-0.541l0.218-0.449
				l0.048-0.127c0.049-0.128-0.03-0.303,0.188-0.365l0.032-0.086c0.08-0.211,0.245-0.391,0.325-0.603l0.048-0.127
				c0.101-0.011,0.187,0.021,0.244-0.005c0.032-0.084-0.069-0.074,0.022-0.186c0.031-0.084,0.143,0.006,0.217-0.063
				c-0.01-0.1-0.005-0.244,0.027-0.328c0.016-0.043,0.133-0.096,0.182-0.223l0.031-0.084l0.102-0.011
				c0.148-0.138,0.16-0.423,0.335-0.503c0.08-0.211,0.018-0.429,0.245-0.391c0.129-0.339,0.431-0.369,0.697-0.561
				c0.328,0.028,0.726,0.131,1.037,0.2c0.084,0.032,0.068,0.074,0.094,0.133c0.229,0.038,0.33,0.027,0.473,0.033l0.085,0.032
				c0.212,0.08,0.456,0.076,0.684,0.113c0.254,0.097,0.476,0.277,0.655,0.442c0.043,0.017,0.102-0.011,0.144,0.005
				c0.307,0.214,0.412,0.447,0.677,0.645c-0.06,0.413,0.321,0.558,0.22,0.955l0.063,0.218c-0.048,0.127-0.149,0.138-0.171,0.322
				c-0.032,0.085,0.053,0.116,0.063,0.218c-0.016,0.043-0.074,0.068-0.09,0.111c-0.017,0.042,0.053,0.117,0.037,0.158
				c-0.017,0.043-0.16,0.037-0.14,0.238c0.153,0.107,0.2,0.367,0.104,0.621c-0.017,0.042-0.049,0.127-0.123,0.195
				c-0.016,0.043,0.069,0.074,0.096,0.133c-0.012,0.287-0.219,0.45-0.199,0.651c-0.09,0.111-0.164,0.18-0.128,0.339
				c-0.042-0.016-0.084-0.032-0.144-0.006c-0.053,0.271-0.208,0.551-0.129,0.727c-0.123,0.195-0.187,0.365-0.251,0.534
				c-0.128,0.339-0.215,0.693-0.348,1.175c-0.117,0.053-0.197,0.265-0.204,0.408c-0.031,0.084-0.115,0.053-0.132,0.095
				c-0.075,0.068,0.052,0.116,0.036,0.159c0.011,0.102-0.091,0.111-0.122,0.195c0.053,0.117-0.007,0.144-0.07,0.313
				c-0.017,0.043,0.053,0.117,0.021,0.201l-0.074,0.07c-0.112,0.296-0.225,0.592-0.12,0.826c-0.048,0.126-0.054,0.27-0.086,0.354
				l-0.032,0.086c0.132,0.291-0.013,0.672,0.061,0.991c0.153,0.106,0.19,0.266,0.285,0.397c0.154,0.107,0.202-0.02,0.387,0.002
				l0.239-0.248c0.361-0.057,0.479-0.497,0.761-0.729c0.144,0.006,0.217-0.063,0.333-0.115c-0.01-0.101,0.022-0.186,0.013-0.286
				c0.217-0.063,0.255-0.291,0.531-0.379c0.048-0.128,0.249-0.148,0.17-0.324c0.234-0.104,0.311-0.561,0.612-0.592
				c-0.069-0.074-0.005-0.244,0.096-0.254c-0.025-0.058-0.01-0.1,0.007-0.143c0.063-0.17,0.195-0.265,0.303-0.418
				c0.017-0.043-0.011-0.101,0.006-0.143c0.111-0.297,0.309-0.561,0.564-0.852c-0.01-0.102-0.021-0.202,0.011-0.287
				c0.081-0.211,0.305-0.417,0.401-0.672c0.128-0.338,0.213-0.693,0.342-1.032c0.016-0.042,0.075-0.068,0.107-0.153l0.048-0.127
				c0.097-0.254,0.124-0.582,0.22-0.836l0.048-0.128c0.032-0.085,0.149-0.138,0.182-0.222l0.064-0.17
				c0.016-0.042,0.132-0.094,0.207-0.163c0.239-0.249,0.426-0.614,0.718-0.745c0.345-0.016,0.673,0.012,1.012,0.141
				c0.043,0.016,0.075-0.068,0.091-0.111C114.734,33.914,115.104,33.957,115.125,34.158z"/>
		</g>
		<g>
			<path fill="#231F20" d="M144.331,83.044c0.025,0.044,0.094,0.063,0.094,0.063c0.122,0.216,0.107,0.54,0.282,0.697
				c-0.064,0.237,0.019,0.333,0.05,0.487c-0.074,0.271-0.057,0.605-0.223,0.814c-0.053,0.059-0.26,0.148-0.355,0.231
				s-0.226,0.157-0.37,0.154c-0.13,0.074-0.25,0.114-0.321,0.241c-0.272-0.075-0.51-0.14-0.706-0.084
				c-0.05-0.087-0.151-0.114-0.253-0.143c-0.272-0.074-0.31-0.34-0.537-0.438c0.003-0.146-0.08-0.241-0.207-0.312
				c-0.006-0.111-0.012-0.223-0.104-0.284c0.06-0.349-0.07-0.676,0.013-0.981c0.01-0.034,0.1-0.229,0.143-0.253
				c0.028-0.102,0.157-0.176,0.21-0.234c0.043-0.024-0.016-0.077,0.028-0.103c0.061-0.092,0.215-0.123,0.219-0.268
				c0.12-0.04,0.206-0.09,0.293-0.14c0.169,0.047,0.274-0.07,0.395-0.11c0.248,0.031,0.587,0.124,0.791,0.18
				C143.989,82.695,144.164,82.853,144.331,83.044z M148.873,63.895c-0.031,0.247,0.196,0.346,0.253,0.543
				c-0.063,0.093,0.021,0.188-0.065,0.238c0.207,0.312,0.031,0.556-0.09,0.997c-0.012,0.179-0.037,0.536-0.103,0.773
				c-0.037,0.136-0.098,0.229-0.15,0.288c0.046,0.23-0.087,0.449-0.118,0.696c-0.003,0.146,0.07,0.275,0.006,0.513
				c-0.059,0.349-0.204,0.747-0.307,1.12c-0.019,0.067-0.061,0.093-0.113,0.151c-0.019,0.067-0.003,0.145-0.021,0.213
				c-0.019,0.067-0.071,0.126-0.081,0.16c-0.108,0.262-0.071,0.528-0.137,0.766c-0.027,0.102-0.089,0.194-0.15,0.287
				c-0.019,0.067-0.003,0.145,0.012,0.222c-0.111,0.407-0.189,0.824-0.31,1.265c-0.111,0.407-0.257,0.806-0.444,1.229
				c0.016,0.077,0.029,0.154,0.012,0.222c-0.019,0.068-0.08,0.161-0.151,0.287l-0.056,0.204c-0.084,0.306-0.133,0.62-0.184,0.935
				l-0.139,0.51c-0.037,0.136-0.021,0.213-0.04,0.28c-0.028,0.102-0.123,0.186-0.142,0.253c-0.019,0.068,0.03,0.154,0.002,0.256
				c-0.018,0.068-0.07,0.127-0.08,0.161c0.006,0.111,0.064,0.163,0.037,0.266c-0.028,0.102-0.114,0.15-0.133,0.219
				c-0.037,0.136-0.04,0.281-0.068,0.383c-0.055,0.203-0.123,0.185-0.194,0.312c-0.071,0.126,0.083,0.096,0.056,0.197
				c-0.093,0.34-0.244,0.626-0.328,0.932c-0.047,0.17-0.068,0.383-0.047,0.571c-0.07,0.126-0.142,0.253-0.188,0.422
				c-0.057,0.204-0.078,0.417-0.047,0.571c-0.057,0.204-0.128,0.33-0.105,0.519c-0.037,0.136-0.059-0.053-0.17-0.047
				c-0.12,0.04-0.225,0.158-0.321,0.241c-0.067-0.019-0.111,0.006-0.179-0.013c-0.204-0.056-0.278-0.186-0.481-0.241
				c-0.031-0.153-0.181-0.269-0.298-0.373c0.036-0.136-0.101-0.173-0.054-0.343c-0.099-0.173-0.241-0.321-0.287-0.553
				s0.028-0.503,0.026-0.759c0.019-0.068-0.031-0.154-0.047-0.231c0.014-0.18,0.06-0.349,0.081-0.562
				c0.059-0.349,0.031-0.648,0.195-1.114c0.019-0.068,0.104-0.117,0.132-0.219c0.028-0.102-0.002-0.257,0.025-0.358
				c0.103-0.373,0.307-0.719,0.383-1.136c0.004-0.145,0.084-0.306,0.131-0.475c0.046-0.17,0.059-0.349,0.123-0.587
				c0.064-0.237,0.106-0.518,0.18-0.789c0.038-0.137,0.143-0.254,0.18-0.389c0.018-0.068-0.021-0.188-0.003-0.257l0.047-0.17
				c0.064-0.237,0.172-0.5,0.28-0.762l0.037-0.136l0.074-0.271c0.028-0.102,0.09-0.194,0.21-0.234
				c0.019-0.068-0.092-0.063-0.064-0.164c0.167-0.209,0.13-0.475,0.253-0.66c-0.015-0.077-0.073-0.129-0.046-0.231
				c0.065-0.237,0.087-0.45,0.151-0.688c0.047-0.169,0.127-0.329,0.208-0.49c0.019-0.067,0.062-0.093,0.129-0.074
				c-0.039-0.12-0.002-0.256-0.062-0.308c0.028-0.103,0.105-0.118,0.124-0.186c0.028-0.102,0.006-0.29,0.034-0.392
				c0.037-0.137,0.133-0.22,0.151-0.287c0.08-0.16,0.068-0.383,0.148-0.543c0.188-0.423,0.33-1.077,0.563-1.524
				c0.052-0.059,0.13-0.074,0.182-0.133c0.053-0.059-0.012-0.222,0.09-0.194c-0.025-0.043-0.007-0.111,0.012-0.179l0.137-0.364
				c-0.016-0.077-0.03-0.154-0.021-0.188c0.019-0.067,0.104-0.117,0.133-0.219c0.009-0.034-0.007-0.111,0.012-0.18
				c0.028-0.102,0.124-0.185,0.152-0.286c0.108-0.263,0.123-0.586,0.395-0.512C148.611,63.386,148.552,63.734,148.873,63.895z"/>
		</g>
		<g>
			<path fill="#468885" d="M82.078,23.746c2.077,7.187,23.924,11.378,25.336,9.887C108.823,32.142,79.925,16.313,82.078,23.746z"/>
			<g>
				<path fill="#5AB1AF" d="M39.593,47.447c-4.866-6.286-6.738-15.034-2.014-21.722c3.539-5.006,15.444-10.329,24.76-1.873
					C67.132,33.007,45.023,45.035,39.593,47.447z"/>
				<path fill="#231F20" d="M39.593,48.131c-0.206,0-0.407-0.094-0.54-0.266c-6.928-8.949-5.424-17.731-2.031-22.534
					c2.32-3.282,7.924-6.605,14.144-6.605c4.279,0,8.302,1.598,11.633,4.621c0.06,0.054,0.109,0.118,0.146,0.189
					c0.896,1.712,0.993,3.608,0.286,5.636c-2.916,8.373-19.168,17.037-23.36,18.899C39.78,48.111,39.687,48.131,39.593,48.131z
					 M51.165,20.092c-5.755,0-10.91,3.032-13.028,6.028c-4.862,6.883-2.202,15.221,1.671,20.479
					C44.529,44.4,59.286,36.343,61.94,28.723c0.57-1.637,0.521-3.094-0.152-4.447C58.689,21.499,55.116,20.092,51.165,20.092z"/>
			</g>
			<g>
				<path fill="#5AB1AF" d="M107.414,33.633c15-13.653-20.488-35.092-25.336-9.887C91.997,22.329,107.414,33.633,107.414,33.633z"/>
				<path fill="#231F20" d="M107.414,34.316c-0.142,0-0.283-0.044-0.404-0.133c-0.135-0.099-13.587-9.877-23.123-9.877
					c-0.597,0-1.173,0.039-1.712,0.115c-0.218,0.033-0.438-0.045-0.591-0.204c-0.152-0.16-0.219-0.384-0.177-0.601
					C82.902,15.846,87.59,11.39,94.27,11.39c6.904,0,14.422,4.912,16.759,10.951c1.647,4.257,0.526,8.446-3.154,11.797
					C107.744,34.256,107.579,34.316,107.414,34.316z M83.887,22.94c9.072,0,20.949,8.031,23.468,9.81
					c3.723-3.655,3.377-7.391,2.399-9.916c-2.15-5.558-9.097-10.078-15.484-10.078c-3.392,0-9.269,1.354-11.329,10.215
					C83.25,22.95,83.565,22.94,83.887,22.94z"/>
			</g>
			<g>
				<path fill="#5AB1AF" d="M39.464,24.149c5.32-6.353,25.012-21.54,63.043-10.88c-1.835-4.373-12.171-6.76-15.898-7.395
					c-7.087-1.208-37.829-4.347-49.856,19.281C36.423,25.801,39,24.705,39.464,24.149z"/>
				<path fill="#231F20" d="M36.895,26.036L36.895,26.036c-0.443,0-0.655-0.238-0.742-0.381c-0.069-0.113-0.209-0.418-0.009-0.81
					C45.22,7.016,64.922,4.353,75.858,4.353c5.312,0,9.367,0.594,10.865,0.849c1.435,0.245,13.973,2.518,16.348,7.656
					c0.087,0.114,0.139,0.257,0.139,0.412c0,0.377-0.306,0.684-0.684,0.684c-0.007,0-0.013-0.001-0.02,0
					c-0.062,0-0.123-0.009-0.185-0.025c-8.678-2.433-16.994-3.666-24.719-3.666c-24.383,0-35.612,11.934-37.616,14.326
					C39.502,25.17,37.651,26.036,36.895,26.036z M75.858,5.719c-22.486,0-32.98,9.823-37.864,18.561
					c0.424-0.2,0.825-0.43,0.945-0.568c2.072-2.475,13.675-14.815,38.664-14.815c7.314,0,15.143,1.086,23.294,3.229
					c-2.858-2.919-10.084-4.841-14.403-5.576C85.03,6.299,81.066,5.719,75.858,5.719z"/>
			</g>
			<g>
				<path fill="#5AB1AF" d="M35.028,27.076c1.156,2.744,9.816-3.828,7.748-6.033C39.397,17.438,32.303,20.592,35.028,27.076z"/>
				<path fill="#231F20" d="M36.16,28.418L36.16,28.418c-0.844,0-1.469-0.382-1.762-1.076c-0.952-2.268-0.873-4.425,0.223-6.074
					c0.993-1.494,2.771-2.423,4.639-2.423c1.543,0,2.969,0.615,4.015,1.731c0.333,0.354,0.805,1.145,0.235,2.461
					C42.464,25.451,38.411,28.418,36.16,28.418z M39.26,20.211c-1.416,0-2.758,0.694-3.5,1.813
					c-0.591,0.889-1.088,2.441-0.102,4.788c0.038,0.09,0.102,0.24,0.502,0.24c1.733,0.001,5.265-2.641,6.096-4.558
					c0.198-0.458,0.205-0.788,0.022-0.983C41.493,20.673,40.421,20.211,39.26,20.211z"/>
			</g>
			<g>
				<path fill="#5AB1AF" d="M105.169,14.53c-0.697,1.697-6.141-0.626-5.561-2.397C100.672,8.896,106.891,10.347,105.169,14.53z"/>
				<path fill="#231F20" d="M103.958,15.804c-1.59,0-3.809-1.064-4.656-2.234c-0.503-0.692-0.464-1.279-0.343-1.649
					c0.454-1.38,1.728-2.237,3.325-2.237c1.37,0,2.646,0.634,3.328,1.652c0.643,0.961,0.71,2.188,0.188,3.455
					C105.646,15.169,105.199,15.804,103.958,15.804z M102.284,11.049c-0.375,0-1.632,0.094-2.026,1.297
					c-0.042,0.129,0.075,0.319,0.149,0.422c0.6,0.827,2.392,1.67,3.551,1.67c0.311,0,0.537-0.065,0.579-0.167
					c0.348-0.845,0.327-1.597-0.061-2.175C104.051,11.46,103.19,11.049,102.284,11.049z"/>
			</g>
			<polygon fill="#231F20" points="89.877,27.735 91.295,25.105 99.886,28.919 98.025,31.812 			"/>
			<path fill="#7CCDCD" d="M98.594,14.61c0,0,14.561,5.647,9.129,15.96c-3.143,0.886-7.587-3.895-7.587-3.895L98.594,14.61z"/>
			<path fill="#7CCDCD" d="M41.848,26.483c0,0,3.6-3.12,3.335-3.818c-0.266-0.7,15.12,4.265,14.747,7.678
				c-0.374,3.413-8.576,7.925-8.576,7.925L41.848,26.483z"/>
			<path fill="#7CCDCD" d="M36.379,22.573c0,0,2.708-2.61,4.172-0.535c1.462,2.074-0.369,1.391-1.852,1.456
				C37.22,23.559,35.752,23.08,36.379,22.573z"/>
			<path fill="#7CCDCD" d="M102.649,11.374c0,0,1.686,0.978,1.46,1.525c-0.224,0.547-1.698,1.357-1.579-0.084
				S102.649,11.374,102.649,11.374z"/>
		</g>
		<g>
			<path fill="#FAAF40" d="M9.948,96.826c2.224,2.723,4.966,5.426,11.128,7.049c0.303-1.414-12.957-10.338-13.058-21.164
				C3.958,86.724,8.983,95.646,9.948,96.826z"/>
			<path fill="#F6921E" d="M32.843,104.207c-18.032-9.54-17.432-26.29-17.872-29.659C8.836,90.563,21.86,103.22,32.843,104.207z"/>
		</g>
		<g>
			<path fill="#FAAF40" d="M136.864,32.135c1.367,1.105,1.146,4.297,1.018,5.419c-0.292,2.589-0.915,5.371-4.1,8.853
				c-0.754-0.76,1.846-12.514,1.059-14.531C135.392,31.607,136.434,31.79,136.864,32.135z"/>
			<path fill="#F6921E" d="M128.634,29.394c3.051,1.526,2.616,7.9,2.373,10.052c-0.525,4.632-1.641,9.613-7.342,15.844
				c4.2-13.36,3.305-22.397,1.898-26.007C126.548,28.8,127.934,29.043,128.634,29.394z"/>
		</g>
		<g>
			<path fill="#231F20" d="M94.306,26.633c0.805,0.305,1.407,0.631,2.036,1.014c0.026,0.059,0.053,0.117,0.036,0.159
				c0.102-0.01,0.201-0.021,0.244-0.005c0.169,0.064,0.249,0.24,0.418,0.305l0.085,0.031c0.052,0.117,0.02,0.201,0.104,0.233
				c0.212,0.081,0.509,0.192,0.513,0.437l0.17,0.064c0.212,0.08,0.45,0.219,0.471,0.42c0.254,0.097,0.249,0.24,0.443,0.361
				c0.037,0.16,0.09,0.277,0.169,0.451c0.466,0.178,0.215,0.712,0.548,0.982c-0.005,0.145-0.012,0.287,0.058,0.361
				c-0.141,0.625,0.463,0.951,0.328,1.432c-0.005,0.144,0.079,0.176,0.09,0.277c-0.144,0.381,0.104,0.62-0.023,0.959l-0.049,0.127
				c-0.031,0.084,0.11,0.091,0.138,0.148c-0.028,0.329-0.263,0.821-0.073,1.087l-0.064,0.169c-0.08,0.212-0.103,0.397-0.198,0.651
				c-0.085-0.032-0.144-0.005-0.218,0.063c-0.048,0.127,0.036,0.159,0.047,0.261c-0.075,0.068-0.123,0.195-0.171,0.322
				c-0.097,0.254-0.192,0.508-0.42,0.471c-0.032,0.084,0.011,0.101-0.021,0.186c-0.176,0.079-0.266,0.189-0.346,0.401
				c-0.233,0.105-0.44,0.27-0.7,0.315c0.01,0.102-0.055,0.271-0.055,0.271c-0.133,0.095-0.217,0.063-0.334,0.115
				c-0.223,0.206-0.367,0.588-0.687,0.66c-0.064,0.17-0.249,0.147-0.313,0.317l-0.212-0.08c-0.101,0.01-0.149,0.137-0.224,0.206
				c-0.52,0.093-0.813,0.612-1.427,0.573c-0.134,0.095-0.214,0.307-0.389,0.386l-0.085-0.032c-0.17-0.064-0.218,0.063-0.387-0.002
				c-0.032,0.085-0.09,0.111-0.122,0.195c-0.134,0.096-0.361,0.058-0.479,0.11c-0.101,0.01-0.143-0.006-0.228-0.038
				c-0.133,0.096-0.266,0.19-0.535,0.137c-0.149,0.137-0.42,0.084-0.543,0.279c-0.387-0.002-0.746,0.055-1.029,0.288
				c-0.021,0.186-0.027,0.328-0.091,0.497c-0.08,0.213-0.187,0.366-0.352,0.545c0.025,0.059,0.11,0.091,0.12,0.191
				c-0.09,0.111-0.207,0.164-0.244,0.392c-0.075,0.069-0.218,0.063-0.275,0.089c-0.064,0.17-0.112,0.297-0.045,0.371
				c-0.116,0.053-0.128,0.339-0.355,0.301c0.052,0.117,0.02,0.201-0.028,0.328c-0.063,0.17-0.17,0.324-0.234,0.493l-0.048,0.127
				c-0.159,0.036-0.16,0.424-0.378,0.486c0.037,0.159-0.011,0.286-0.103,0.397c-0.031,0.084,0.096,0.133,0.047,0.26
				c-0.09,0.11-0.223,0.205-0.303,0.418c-0.133,0.094-0.281,0.231-0.404,0.428c-0.041-0.016-0.101,0.01-0.186-0.021
				c-0.196,0.264-0.352,0.545-0.67,0.617c-0.154,0.281-0.398,0.285-0.844,0.311c-0.101,0.01-0.36,0.057-0.53-0.008
				c-0.185-0.021-0.438-0.117-0.65-0.197c-0.145-0.006-0.244,0.004-0.329-0.027l-0.127-0.049c-0.212-0.08-0.392-0.245-0.561-0.309
				l-0.085-0.033c0.016-0.042-0.069-0.074-0.138-0.148l-0.127-0.049c-0.212-0.08-0.265-0.195-0.562-0.309
				c-0.021-0.201-0.274-0.297-0.354-0.473c-0.186-0.022-0.18-0.165-0.307-0.213c-0.068-0.075-0.053-0.117-0.036-0.16
				c-0.248-0.238-0.549-0.595-0.421-0.934c0.032-0.085-0.053-0.117-0.078-0.176c0.032-0.084,0.1-0.01,0.09-0.111
				c0.017-0.042-0.085-0.031-0.127-0.048c0.076-0.455,0.157-1.054,0.291-1.536c-0.095-0.133,0.039-0.227-0.099-0.377
				c0.063-0.168,0.144-0.381,0.033-0.471c0.031-0.084,0.074-0.068,0.09-0.111c-0.009-0.488,0.168-0.953,0.243-1.409
				c0.007-0.144,0.012-0.286,0.044-0.371c0.031-0.085,0.048-0.128,0.107-0.153c-0.047-0.26,0.101-0.396,0.181-0.609l0.022-0.185
				c0.048-0.127,0.106-0.153,0.165-0.18c-0.079-0.175,0.097-0.254,0.06-0.413c0.191-0.121,0.287-0.376,0.442-0.656
				c0.08-0.211,0.076-0.455,0.293-0.519c0.048-0.127-0.127-0.048-0.095-0.134c0.048-0.127,0.25-0.146,0.298-0.273
				c-0.011-0.102,0.005-0.144-0.063-0.217c-0.053-0.117,0.064-0.17,0.096-0.254l0.032-0.085c0.112-0.297,0.256-0.291,0.399-0.673
				l0.154-0.279c0.017-0.043-0.036-0.16-0.021-0.203l0.032-0.084c0.112-0.297,0.319-0.461,0.511-0.582
				c0.006-0.143-0.121-0.19-0.231-0.281c0.021-0.186,0.138-0.238,0.213-0.307c0.005-0.143-0.005-0.244,0.043-0.371
				c0.112-0.296,0.368-0.586,0.363-0.83c0.133-0.096,0.224-0.207,0.287-0.376c0.064-0.17,0.087-0.354,0.034-0.472
				c0.006-0.143,0.08-0.212,0.086-0.355c0.191-0.121,0.297-0.274,0.361-0.443c0.006-0.143-0.004-0.244,0.028-0.328
				c0.048-0.127,0.207-0.164,0.145-0.381c0.074-0.068,0.175-0.08,0.249-0.148c-0.025-0.059-0.111-0.09-0.095-0.133
				c0.048-0.127,0.197-0.265,0.261-0.434c0.032-0.085,0.006-0.144-0.004-0.244c0.244-0.004,0.229-0.35,0.446-0.412
				c0.032-0.084,0.022-0.186,0.038-0.228c0.133-0.095,0.304-0.418,0.384-0.63c0.016-0.043,0.006-0.143,0.038-0.228
				c0.09-0.111,0.281-0.232,0.329-0.358c0.064-0.17,0.087-0.355,0.135-0.482l0.048-0.127c0.122-0.195,0.488-0.396,0.67-0.618
				c0.058-0.026,0.074-0.069,0.09-0.111c0.059-0.026,0.116-0.053,0.159-0.036c0.09-0.111,0.08-0.213,0.196-0.265
				c0.149-0.138,0.436-0.126,0.584-0.264c0.219-0.063,0.419-0.083,0.595-0.162c0.127,0.048,0.302-0.03,0.487-0.009
				c0.229,0.038,0.466,0.176,0.752,0.188c0.355,0.086,0.838,0.221,1.251,0.281c0.042,0.016,0.069,0.074,0.095,0.132
				c0.144,0.006,0.413,0.06,0.583,0.124l0.127,0.049c0.085,0.031,0.143,0.006,0.175-0.079
				C94.321,26.592,94.306,26.633,94.306,26.633z M84.694,36.407l-0.016,0.042c0.068,0.075,0.116-0.053,0.074-0.068
				C84.753,36.381,84.737,36.424,84.694,36.407z M95.146,30.293c-0.218,0.063-0.503,0.052-0.704,0.072
				c-0.16,0.036-0.208,0.163-0.272,0.332l-0.08,0.213c-0.048,0.127-0.164,0.18-0.239,0.248c-0.048,0.127,0.031,0.303-0.085,0.355
				c-0.048,0.127,0.03,0.302,0.024,0.445c-0.048,0.127-0.128,0.338-0.149,0.523c-0.016,0.043,0.01,0.102-0.006,0.144
				c-0.022,0.185-0.145,0.382-0.183,0.608c0.005,0.244-0.076,0.455-0.13,0.727c0.01,0.1,0.005,0.243-0.044,0.371l-0.031,0.084
				c0.084,0.032,0.109,0.09,0.137,0.148c0.169,0.064,0.232-0.104,0.334-0.115c0.095,0.133,0.185,0.021,0.312,0.07
				c0.421-0.471,1.146-0.342,1.43-0.96l0.176-0.079c0.128-0.339,0.384-0.63,0.554-0.953c0.08-0.211,0.192-0.508,0.215-0.693
				c0.08-0.211,0.027-0.328-0.052-0.504c-0.063-0.217-0.132-0.291-0.227-0.424c-0.053-0.117-0.079-0.175-0.164-0.207
				c-0.025-0.059-0.067-0.074-0.052-0.117c-0.068-0.074-0.111-0.091-0.195-0.123C95.543,30.395,95.342,30.416,95.146,30.293z"/>
		</g>
		<g>
			<g>
				<path fill="#5AB1AF" d="M60.247,58.94c12.528-8.131,26.781-7.198,35.848,3.685c8.611,10.333,10.945,23.185-0.046,33.104
					c-8.559,7.725-30.874,12.379-38.192,0.916C57.856,96.645,42.354,70.554,60.247,58.94z"/>
				<path fill="#C5E7E9" d="M61.391,61.156c0,0,30.743-17.896,38.784,16.572c3.271,16.481-4.193,2.211-5.275-1.788
					c-1.081-4-8.092-18.783-30.539-13.484C49.4,68.946,61.391,61.156,61.391,61.156z"/>
				<path fill="#231F20" d="M71.319,62.35c-1.537-4.132-2.409-7.463-0.781-5.918c1.627,1.547,2.48,5.281,2.426,6.633
					C72.904,64.415,71.319,62.35,71.319,62.35z"/>
				<path fill="#231F20" d="M55.758,87.944c3.75-1.764,6.896-2.886,5.847-1.366c-1.049,1.518-4.618,2.673-6.031,2.793
					C54.161,89.49,55.758,87.944,55.758,87.944z"/>
				<path fill="#231F20" d="M87.329,92.535c1.55,3.843,2.492,7.047,1.035,5.914c-1.457-1.135-2.409-4.763-2.45-6.181
					C85.874,90.853,87.329,92.535,87.329,92.535z"/>
				<g>
					<g>
						<path fill="#231F20" d="M94.636,89.889c0.2,0.931-10.644-5.271-15.434-9.563c0.518-0.77-0.182-2.744,0.51-3.392
							C79.712,76.935,90.872,84.107,94.636,89.889z"/>
						<path fill="#231F20" d="M69.614,92.262c1.437-0.365,6.936-5.701,11.605-12.463c-0.732-2.465-0.602-2.961-3.644-3.393
							C77.576,76.406,69.64,89.135,69.614,92.262z"/>
					</g>
					<g>
						<path fill="#5AB1AF" d="M81.196,77.441c0.107,1.833-5.127,5.228-6.05,0.259C74.21,72.656,80.925,72.925,81.196,77.441z"/>
						<path fill="#231F20" d="M77.579,80.97c-0.758,0-2.577-0.307-3.104-3.145c-0.322-1.738,0.187-2.798,0.671-3.379
							c0.604-0.728,1.541-1.144,2.57-1.144c1.898,0,4.002,1.436,4.162,4.098c0.036,0.614-0.281,1.31-0.894,1.959
							C80.062,80.338,78.725,80.97,77.579,80.97z M77.716,74.669c-0.632,0-1.172,0.23-1.521,0.65
							c-0.426,0.512-0.556,1.292-0.377,2.256c0.25,1.346,0.842,2.028,1.761,2.028c0.896,0,1.856-0.594,2.411-1.182
							c0.377-0.399,0.534-0.761,0.524-0.94C80.403,75.635,79.022,74.669,77.716,74.669z"/>
					</g>
				</g>
				<g>
					<path fill="#5AB1AF" d="M81.856,56.877c0,0-1.464,1.944,0.154,2.094C83.628,59.122,83.286,56.697,81.856,56.877z"/>
					<path fill="#5AB1AF" d="M86.162,59.893c0,0-1.465,1.945,0.156,2.094C87.935,62.138,87.595,59.713,86.162,59.893z"/>
					<path fill="#5AB1AF" d="M90.76,62.968c0,0-1.465,1.945,0.155,2.095C92.532,65.212,92.191,62.788,90.76,62.968z"/>
					<path fill="#5AB1AF" d="M76.069,56.493c0,0-1.465,1.945,0.154,2.094C77.841,58.738,77.501,56.313,76.069,56.493z"/>
				</g>
				<g>
					<path fill="#FFFFFF" d="M74.2,99.721c0,0,1.453-2.791-0.645-2.638C71.464,97.237,72.413,100.255,74.2,99.721z"/>
					<path fill="#FFFFFF" d="M68.067,96.793c0,0,1.453-2.791-0.644-2.637C65.33,94.31,66.278,97.326,68.067,96.793z"/>
					<path fill="#FFFFFF" d="M61.553,93.852c0,0,1.454-2.791-0.644-2.636C58.815,91.367,59.765,94.386,61.553,93.852z"/>
					<path fill="#FFFFFF" d="M81.661,98.979c0,0,1.45-2.793-0.646-2.638C78.924,96.496,79.871,99.513,81.661,98.979z"/>
				</g>
				<g>
					<path fill="#FFFFFF" d="M98.737,79.322c0,0-2.807-0.871-2.317,1.03C96.909,82.252,99.525,80.877,98.737,79.322z"/>
					<path fill="#FFFFFF" d="M97.063,85.446c0,0-2.806-0.87-2.316,1.032C95.236,88.378,97.853,87.002,97.063,85.446z"/>
					<path fill="#FFFFFF" d="M95.444,91.926c0,0-2.81-0.872-2.317,1.029C93.614,94.855,96.231,93.48,95.444,91.926z"/>
					<path fill="#FFFFFF" d="M96.813,72.587c0,0-2.807-0.871-2.316,1.031C94.987,75.518,97.603,74.142,96.813,72.587z"/>
				</g>
				<g>
					<path fill="#FFFFFF" d="M55.089,74.57c0,0,2.414,1.945,2.672-0.111C58.019,72.407,54.92,72.739,55.089,74.57z"/>
					<path fill="#FFFFFF" d="M57.43,67.563c0,0,2.415,1.945,2.671-0.11C60.36,65.4,57.261,65.732,57.43,67.563z"/>
					<path fill="#FFFFFF" d="M63.212,63.491c0,0,2.412,1.945,2.672-0.11C66.142,61.329,63.043,61.661,63.212,63.491z"/>
					<path fill="#FFFFFF" d="M54.358,81.92c0,0,2.414,1.944,2.672-0.11C57.29,79.757,54.19,80.089,54.358,81.92z"/>
				</g>
				<path fill="#231F20" d="M91.28,68.625c3.748-1.763,6.895-2.884,5.847-1.366c-1.052,1.518-4.618,2.674-6.032,2.795
					C89.683,70.172,91.28,68.625,91.28,68.625z"/>
			</g>
			<g>
				<path fill="#231F20" d="M33.767,76.529c0.221,0.154,0.424,0.258,0.662,0.293c0.169,0.342,0.492,0.293,0.627,0.701
					c0.137,0.068,0.307,0.068,0.34,0.342c0.084,0.084,0.237,0.035,0.306,0.07c0.27,0.477,0.729,0.496,0.931,1.109
					c0.477,0.07,0.645,0.752,1.018,1.025c-0.018,0.289-0.104,0.375-0.02,0.629c0.033,0.104,0.221-0.014,0.289,0.02
					c0.237,0.205,0.305,0.58,0.628,0.529c-0.034,0.068-0.018,0.121,0.016,0.223c0.051,0.152,0.221,0.324,0.22,0.494
					s-0.086,0.256-0.036,0.408c0,0.17,0.187,0.053,0.272,0.137l0.033,0.104c0.084,0.256,0.321,0.461,0.439,0.648
					c0.018,0.051-0.018,0.119-0.018,0.119c0.102,0.137,0.254,0.256,0.322,0.461c0.033,0.104,0.016,0.221-0.053,0.357
					c0.119,0.018,0.135,0.068,0.152,0.119c0.15,0.461,0.694,0.906,0.846,1.365l0.033,0.104c-0.12,0.152-0.155,0.391-0.122,0.494
					l0.034,0.102c0.084,0.256,0.476,0.24,0.577,0.377l0.05,0.154c0.102,0.305,0.339,0.51,0.406,0.715
					c0.051,0.154,0.033,0.273-0.036,0.408c0.103,0.139,0.374,0.275,0.492,0.463c0.067,0.205-0.019,0.459,0.048,0.664
					c0.018,0.051,0.085,0.086,0.102,0.137c0.119,0.188,0.237,0.375,0.406,0.545c-0.086,0.086-0.137,0.273,0.033,0.273
					c-0.256,0.254,0.032,0.443-0.105,0.715c0.137,0.068,0.152,0.289,0.288,0.357c-0.052,0.188,0.033,0.273,0.049,0.496
					c0.102,0.135,0.255,0.086,0.46,0.018l0.204-0.066c0.272-0.033,0.647-0.1,1.006-0.217l0.409-0.135
					c0.307-0.102,0.613-0.201,0.885-0.064c0.068-0.137,0.171-0.17,0.273-0.203c0.153-0.051,0.358-0.119,0.528-0.117
					c0.087-0.254,0.003-0.512-0.064-0.715l-0.118-0.357c-0.066-0.205-0.169-0.342-0.219-0.496c-0.102-0.307-0.117-0.527-0.253-0.766
					c-0.101-0.137,0.001-0.172,0.035-0.238c-0.05-0.154-0.187-0.053-0.169-0.172c-0.099-0.816-0.795-1.211-0.758-1.961
					c-0.102-0.137-0.203-0.273-0.237-0.375c-0.033-0.102,0.001-0.17,0.019-0.289c-0.033-0.104-0.102-0.137-0.135-0.238l-0.185-0.734
					l-0.016-0.221c-0.034-0.102,0.019-0.289,0.036-0.408c-0.034-0.104-0.135-0.24-0.118-0.357c-0.034-0.104,0.001-0.172,0.035-0.238
					l-0.101-0.307c0.034-0.07,0.068-0.137,0.052-0.188c0.052-0.018-0.085-0.086-0.05-0.154c0,0,0.051-0.016,0.034-0.066
					c-0.034-0.273-0.169-0.514-0.185-0.734c0.068-0.135,0.069-0.307,0.138-0.441c-0.101-0.307-0.202-0.443-0.116-0.699l-0.05-0.152
					c-0.067-0.205-0.05-0.494-0.116-0.699l-0.067-0.205l-0.252-0.766c-0.085-0.258-0.117-0.529-0.015-0.734
					c-0.067-0.033-0.119-0.018-0.17,0c0.068-0.135-0.084-0.254-0.135-0.408c0.053-0.188,0.189-0.289,0.225-0.527
					c-0.067-0.205-0.188-0.051-0.323-0.121c-0.017-0.051-0.068-0.033-0.085-0.084c-0.051-0.154,0.053-0.357,0.002-0.512
					c-0.05-0.152-0.22-0.324-0.117-0.527c-0.05-0.154-0.117-0.188-0.187-0.223c-0.032-0.271-0.049-0.494-0.116-0.697
					c-0.033-0.104-0.066-0.205-0.151-0.291c0.052-0.188,0.07-0.477,0.037-0.75c0.206-0.236,0.75-0.131,0.903-0.354
					c0.154-0.051,0.291,0.02,0.393-0.014c0.153-0.051,0.103-0.205,0.205-0.238c0.136,0.068,0.323-0.051,0.494-0.049
					c0.222-0.016,0.306,0.07,0.527,0.053l0.409-0.135c0.46-0.15,0.697,0.225,1.157,0.074l0.103-0.035
					c0.322,0.121,0.731,0.158,1.003,0.295c0.508,0.682,1.377,0.568,1.885,1.252c0.254,0.086,0.458,0.357,0.712,0.445
					c0.101,0.307,0.321,0.631,0.1,0.816c0.033,0.102,0.169,0.002,0.203,0.104l0.051,0.154c0.101,0.305,0.39,0.494,0.644,0.58
					c0.103,0.137,0.221,0.324,0.305,0.58l0.354,1.074c0.084,0.086,0.169,0.17,0.203,0.273c0.084,0.084,0.066,0.205,0.101,0.307
					c0.067,0.205,0.169,0.342,0.22,0.494c0.033,0.102,0.016,0.223-0.07,0.307l0.168,0.512c0.084,0.256,0.186,0.563,0.116,0.699
					c0.05,0.152,0.187,0.221,0.187,0.393c0.406,0.375,0.402,1.227,0.911,1.568c-0.017,0.119,0.017,0.223,0.067,0.377
					c0.066,0.203,0.202,0.441,0.269,0.646c-0.017,0.119-0.051,0.188-0.034,0.238c0.033,0.102,0.118,0.188,0.101,0.307
					c0.017,0.051-0.034,0.068-0.052,0.188c-0.018,0.117,0.118,0.357-0.019,0.459c-0.002,0.17,0.136,0.068,0.169,0.17
					c-0.052,0.189,0.117,0.529,0.15,0.803c0.033,0.102-0.019,0.289,0.015,0.391c0.051,0.154,0.255,0.258,0.339,0.514L55.22,87.5
					c0.051,0.154,0.084,0.426,0.219,0.666c-0.104,0.373,0.133,0.748,0.165,1.191c-0.358,0.287-0.208,0.748-0.362,1.139
					c0.085,0.086,0.203,0.273,0.254,0.428c0.033,0.102,0.066,0.203-0.018,0.289c-0.002,0.17,0.118,0.018,0.152,0.119
					c0.184,0.563,0.146,1.313,0.195,1.975c-0.018,0.121-0.068,0.137-0.154,0.223c0.067,0.203-0.001,0.34,0.049,0.494
					c0.018,0.051,0.085,0.084,0.118,0.186c-0.052,0.357,0.118,0.529,0.132,0.92c0.034,0.104,0.033,0.273,0.051,0.324
					c-0.018,0.119-0.138,0.271-0.139,0.441c0.135,0.41-0.189,0.461-0.224,0.699c-0.034,0.066-0.001,0.17-0.087,0.254
					c-0.086,0.254-0.291,0.492-0.395,0.695c-0.238-0.033-0.307,0.102-0.512,0.168c-0.341,0.17-0.767,0.252-1.057,0.404l-0.512,0.168
					c-0.204,0.068-0.409,0.135-0.646,0.1c-0.222,0.018-0.459-0.189-0.766-0.258c-0.051,0.018-0.018,0.119-0.068,0.135
					c-0.238-0.033-0.441-0.137-0.715-0.104c-0.187-0.053-0.305-0.24-0.578-0.207c-0.203-0.104-0.339-0.342-0.594-0.428
					c-0.169-0.172-0.305-0.412-0.457-0.529c-0.102-0.139,0.12-0.154,0.086-0.256c-0.289-0.02-0.391-0.154-0.475-0.41l-0.135-0.41
					c-0.033-0.102-0.203-0.273-0.254-0.426c-0.101-0.137-0.101-0.309-0.201-0.443c-0.018-0.053-0.086-0.088-0.103-0.139l-0.05-0.152
					c-0.102-0.307-0.15-0.631-0.389-0.666c-0.308,0.271-0.648,0.441-1.008,0.559c-0.494,0.219-1.021,0.336-1.584,0.521
					c-0.358,0.117-0.751,0.303-1.076,0.521c0.051,0.154-0.068,0.307-0.002,0.512l0.033,0.102c-0.323,0.221,0.048,0.834-0.072,1.158
					c0.066,0.375,0.252,0.768,0.354,1.074c0.05,0.152-0.104,0.373,0.117,0.357c-0.205,0.238-0.155,0.561-0.259,0.764
					c-0.069,0.137-0.171,0.17-0.239,0.307c-0.086,0.084-0.052,0.188-0.07,0.305c-0.102,0.205-0.223,0.357-0.342,0.51
					c-0.053,0.188-0.155,0.391-0.275,0.545l-0.102,0.033c-0.154,0.051-0.206,0.236-0.342,0.34c-0.103,0.033-0.239,0.135-0.308,0.1
					c-0.085,0.086-0.171,0.17-0.272,0.203c-0.358,0.117-0.801-0.021-1.209,0.113l-0.256,0.084c-0.052,0.018-0.137-0.068-0.188-0.051
					c-0.17-0.002-0.256,0.084-0.375,0.066c-0.051,0.016-0.136-0.068-0.323-0.121c-0.119-0.018-0.272,0.033-0.392,0.016
					c-0.187-0.053-0.458-0.189-0.662-0.291c-0.119-0.02-0.136-0.07-0.203-0.105c-0.324-0.119-0.579-0.035-0.783-0.309
					c-0.492-0.121-1.036-0.396-1.205-0.908c-0.135-0.068-0.22-0.152-0.254-0.256l-0.134-0.408c-0.102-0.137-0.255-0.258-0.305-0.41
					l-0.067-0.375c-0.101-0.307-0.439-0.479-0.609-0.82l-0.05-0.154c-0.067-0.203-0.083-0.426-0.15-0.631l-0.05-0.152
					c-0.051-0.152,0.103-0.203,0.052-0.357c-0.017-0.051-0.085-0.084-0.033-0.102c-0.204-0.273-0.354-0.563-0.473-0.922
					c-0.118-0.357-0.185-0.732-0.336-1.023c-0.034-0.102-0.085-0.084-0.118-0.188l-0.068-0.205c-0.05-0.152-0.101-0.307-0.083-0.426
					c-0.118-0.188-0.236-0.375-0.286-0.527c-0.084-0.256-0.117-0.529-0.083-0.768l-0.067-0.203
					c-0.101-0.307-0.285-0.699-0.199-0.955c-0.188-0.053-0.289-0.189-0.34-0.342c-0.05-0.154-0.049-0.324-0.116-0.529
					c-0.068-0.033-0.152-0.117-0.169-0.17c-0.118-0.357-0.066-0.715-0.15-0.971l-0.033-0.104c-0.102-0.135-0.306-0.238-0.424-0.426
					l-0.066-0.205c-0.118-0.359-0.167-0.852-0.318-1.313l-0.066-0.203c-0.051-0.154-0.153-0.291-0.221-0.496l-0.033-0.102
					c-0.033-0.104,0.035-0.238-0.016-0.393c-0.05-0.154-0.168-0.342-0.235-0.545c-0.033-0.102-0.05-0.152-0.033-0.273
					c-0.033-0.102-0.136-0.068-0.22-0.154c-0.151-0.631-0.319-1.141-0.436-1.84c-0.033-0.273,0.07-0.475-0.014-0.732
					c-0.033-0.102-0.136-0.238-0.135-0.408c0.018-0.119,0.035-0.238,0.02-0.459c0,0-0.085-0.086-0.033-0.104
					c-0.018-0.051,0.033-0.068,0.033-0.068c0.001-0.17-0.203-0.273-0.049-0.494c-0.133-0.748-0.13-1.26-0.195-1.975
					c0.068-0.137,0.018-0.289,0.139-0.441l-0.034-0.102c-0.168-0.514,0.396-1.037,0.737-1.377c0.598-0.422,1.416-0.691,2.116-0.979
					C33.272,76.578,33.528,76.494,33.767,76.529z"/>
			</g>
			<g>
				<path fill="#231F20" d="M106.443,59.761c0.354,0.169,0.779,0.239,0.946,0.541c0.106,0.018,0.213,0.035,0.31,0.106
					c0.195,0.142,0.267,0.371,0.451,0.566c-0.071,0.425-0.203,0.894-0.416,1.186c0.052,0.337,0.371,0.39,0.327,0.655
					c-0.045,0.266-0.284,0.389-0.435,0.638c0.079,0.176,0.168,0.301,0.018,0.548c0.034,0.115,0.132,0.187,0.238,0.204l-0.018,0.105
					c-0.035,0.213,0.159,0.354,0.186,0.522c0.026,0.169,0.054,0.337,0.018,0.549c-0.071,0.425-0.31,0.876-0.408,1.133
					c0.045,0.062,0.08,0.177,0.063,0.283c-0.019,0.105-0.098,0.257-0.124,0.416l-0.027,0.159c-0.018,0.106,0.062,0.283,0.098,0.398
					l-0.027,0.159c-0.035,0.212-0.124,0.416-0.16,0.628c-0.026,0.16,0.001,0.327,0.035,0.442c-0.018,0.106-0.088,0.204-0.15,0.248
					c-0.026,0.486,0.061,0.938-0.02,1.416l-0.035,0.212c-0.044,0.266-0.301,0.496-0.336,0.708c0.026,0.169,0.123,0.239,0.212,0.363
					c0.009,0.274,0.035,0.442,0,0.655c0.186,0.194,0.292,0.539,0.291,0.867c0.026,0.168-0.187,0.133-0.213,0.291
					c-0.018,0.435-0.143,0.85-0.026,1.143c0.035,0.115,0.017,0.221-0.01,0.381l-0.063,0.371c-0.044,0.266-0.089,0.531-0.079,0.806
					c-0.036,0.212,0.087,0.451,0.043,0.717c0.036,0.114,0.018,0.221,0.009,0.273c-0.089,0.531,0.026,1.151,0.034,1.753
					c-0.054,0.319-0.159,0.629-0.16,0.956c0.062,0.283,0.274,0.646,0.389,0.938l0.31,0.434c0.274,0.318,0.46,0.514,1.044,0.611
					c0.753,0.071,1.159-0.079,1.354-1.247l0.044-0.266c0.063-0.044,0.081-0.149,0.144-0.194c0.097-0.257,0.239-0.451,0.318-0.602
					l0.035-0.213c0.036-0.212,0.019-0.434,0.107-0.637c0.026-0.159,0.097-0.257,0.23-0.398c-0.045-0.062-0.143-0.133-0.124-0.238
					c0.284-1.045,0.665-2.018,0.728-3.044c0.036-0.212,0.01-0.381,0.045-0.594c0.019-0.105,0.089-0.203,0.106-0.31
					c0.026-0.158,0.001-0.327,0.027-0.486c0.063-0.372,0.229-0.726,0.354-1.142c0.026-0.159,0.001-0.327,0.019-0.434
					s0.088-0.203,0.16-0.301c0.018-0.106-0.08-0.177-0.054-0.337c0.142-0.193,0.23-0.397,0.266-0.609
					c0.08-0.479,0.001-0.982,0.09-1.514l0.018-0.106c0.018-0.106-0.017-0.222,0.001-0.327c0.019-0.434,0.16-0.956,0.249-1.486
					l0.15-0.903c0.106-0.637,0.151-1.229,0.303-1.805c0.097-0.257,0.248-0.504,0.292-0.771l0.063-0.371
					c0.071-0.425,0.177-0.734,0.248-1.159l0.054-0.318c0.123-0.089,0.301-0.169,0.53-0.239c0.178-0.079,0.363-0.212,0.531-0.238
					c0.23-0.07,0.559-0.07,0.832-0.079c0.222-0.018,0.506-0.079,0.674-0.106c0.158,0.027,0.353,0.169,0.512,0.195
					c0.213,0.036,0.443-0.035,0.629,0.16c0.273-0.009,0.549-0.018,0.814,0.027l0.213,0.035c0.582,0.098,0.991,0.603,1.565,0.753
					c0.123,0.239,0.239,0.532,0.485,0.683c-0.035,0.212,0.16,0.354,0.134,0.513c0.034,0.115,0.017,0.222-0.001,0.328
					c-0.045,0.265-0.142,0.521-0.195,0.841c-0.018,0.105-0.097,0.256-0.105,0.31c-0.018,0.106,0.07,0.229,0.052,0.336
					c-0.053,0.319-0.212,0.619-0.265,0.938c-0.027,0.16-0.054,0.318,0.025,0.496c-0.089,0.203-0.249,0.505-0.294,0.77
					c-0.035,0.213-0.017,0.434,0.063,0.61c-0.079,0.15-0.054,0.318-0.142,0.522c-0.079,0.15-0.239,0.124-0.293,0.442
					c-0.035,0.213,0.025,0.496,0.089,0.779l-0.063,0.371c-0.044,0.266-0.133,0.469-0.372,0.593c-0.054,0.318,0.008,0.603-0.24,0.778
					c-0.026,0.16,0.142,0.133,0.115,0.293c-0.07,0.097-0.088,0.203-0.098,0.256c-0.026,0.159,0,0.327-0.027,0.486
					c0.079,0.178,0.107,0.346,0.134,0.515l-0.116,0.689c-0.035,0.213-0.07,0.425,0.008,0.603c-0.026,0.159-0.185,0.132-0.211,0.291
					c0.008,0.274,0.166,0.629,0.122,0.895c-0.009,0.053-0.079,0.15-0.15,0.248c0.079,0.177-0.009,0.38-0.044,0.593
					c0.034,0.115,0.123,0.239,0.097,0.397l-0.026,0.16c-0.027,0.158-0.054,0.318-0.134,0.469c-0.019,0.105-0.08,0.15-0.15,0.248
					c-0.08,0.15-0.116,0.362-0.143,0.522c-0.151,0.902-0.063,2.009-0.258,2.849c-0.018,0.105-0.107,0.31-0.134,0.469
					c-0.168,0.354-0.274,0.664-0.381,0.974c-0.203,0.565-0.338,1.035-0.664,1.362c-0.133,0.142-0.203,0.239-0.328,0.327
					c-0.133,0.142-0.213,0.292-0.39,0.372c-0.018,0.105-0.089,0.202-0.054,0.318c-0.229,0.07-0.327,0.327-0.549,0.345
					c-0.08,0.149-0.203,0.238-0.283,0.389c-0.938,0.389-1.823,0.787-2.771,1.229c-0.115,0.036-0.106-0.018-0.266-0.044
					c-0.124,0.088-0.301,0.167-0.381,0.318c-0.266-0.045-0.566,0.123-0.894,0.123c-0.337,0.053-0.639-0.107-0.841,0.133
					c-0.39,0.043-0.646-0.055-0.938,0.061c-0.143-0.133-0.276,0.009-0.425-0.07c-0.178,0.079-0.496,0.025-0.877,0.017
					c-0.319-0.054-0.69-0.115-1-0.222c-0.576-0.151-1.123-0.461-1.646-0.604c-0.105-0.018-0.149-0.079-0.247-0.15
					c-0.752-0.071-1.46-0.408-1.806-0.957c-0.425-0.071-0.583-0.425-0.901-0.479l-0.222,0.018c-0.229-0.257-0.459-0.514-0.822-0.629
					c-0.311-0.434-1-0.549-1.176-1.125c-0.311-0.106-0.61-0.266-0.665-0.603c-0.503-0.247-0.626-0.814-0.945-1.194
					c0.036-0.213-0.115-0.293,0.019-0.434c-0.099-0.071-0.169,0.026-0.311-0.107c-0.096-0.397-0.45-0.894-0.468-1.443
					c-0.026-0.168,0-0.326-0.026-0.495c0.01-0.38-0.078-0.831-0.007-1.257c0.026-0.159,0.044-0.266,0.124-0.415
					c-0.08-0.178-0.027-0.496,0.115-0.69c-0.168-0.629,0.053-1.301,0.054-1.956c0.01-0.38-0.088-0.779-0.035-1.098
					c0.036-0.212,0.01-0.38,0.046-0.593c0.044-0.266,0.15-0.575,0.248-0.832c-0.045-0.062-0.018-0.221-0.115-0.291l0.044-0.267
					c0.089-0.53,0.063-1.026,0.152-1.558c0.026-0.159,0.159-0.301,0.177-0.406c0.044-0.266,0.045-0.594,0.089-0.859
					c0.045-0.265,0.195-0.512,0.249-0.831c0.063-0.372,0.07-0.752,0.142-1.177c0.018-0.106,0.045-0.266,0.019-0.434
					c0.07-0.098,0.133-0.142,0.257-0.23c-0.036-0.114-0.142-0.133-0.115-0.292c0.08-0.15,0.106-0.31,0.143-0.522
					c0.08-0.478,0.115-1.018,0.222-1.327c-0.035-0.114-0.018-0.221,0-0.327c0.044-0.266,0.151-0.575,0.267-0.938l0.142-0.849
					c0.089-0.531,0.178-1.062,0.409-1.46c-0.036-0.115-0.071-0.23-0.062-0.283c0.035-0.213,0.273-0.337,0.47-0.522
					c0.123-0.088,0.203-0.238,0.265-0.283c0.257-0.229,0.938-0.389,1.399-0.53l0.469-0.194c0.336-0.052,0.77-0.034,1.194,0.037
					s0.841,0.195,1.159,0.248c0.212,0.036,0.487,0.027,0.646,0.054C106.204,59.558,106.293,59.682,106.443,59.761z"/>
			</g>
			<g>
				<path fill="#231F20" d="M127.589,61.401c0.126-0.089,0.268,0.044,0.426,0.071c0.168,0.301,0.584,0.425,0.752,0.726
					c0.16,0.026,0.203,0.089,0.371,0.063c0.018,0.221,0.283,0.266,0.302,0.486c0.158,0.026,0.213,0.036,0.3,0.16
					c0.089,0.124,0.124,0.239,0.275,0.318l-0.054,0.319c0.326,0,0.584-0.23,0.876-0.345c0.168-0.026,0.327,0,0.441-0.036
					c0.789-0.141,1.489-0.405,2.232-0.28c0.317,0.053,0.681,0.168,1,0.221c0.318,0.054,0.592,0.046,0.911,0.099l0.266,0.045
					c0.416,0.123,0.981,0.328,1.203,0.637c0.158,0.027,0.194,0.142,0.3,0.16c0.381,0.664,1.301,1.036,1.494,1.833
					c0.151,0.08,0.186,0.194,0.336,0.274c-0.008,0.381,0.274,0.646,0.39,0.938c-0.018,0.106-0.081,0.15-0.099,0.257
					c0.09,0.124,0.248,0.15,0.337,0.274c-0.036,0.212,0.053,0.336,0.203,0.416l-0.053,0.318c-0.027,0.159,0.079,0.177,0.123,0.239
					c-0.063,0.698,0.372,1.045,0.309,1.744c0.089,0.124,0.106,0.345,0.079,0.504c-0.035,0.212-0.114,0.363-0.248,0.504
					c-0.008,0.382,0.044,0.718-0.019,1.089l-0.026,0.16c-0.079,0.149-0.203,0.238-0.23,0.397l-0.026,0.159
					c-0.045,0.266-0.15,0.248-0.239,0.451c-0.079,0.15-0.071,0.425-0.301,0.495l-0.053,0.318c-0.08,0.479-0.195,0.841-0.365,1.194
					c-0.114,0.036-0.177,0.08-0.282,0.063c-0.178,0.407-0.531,0.566-0.664,1.035c-0.239,0.124-0.435,0.31-0.665,0.38
					c-0.009,0.053,0.036,0.115,0.019,0.222c-0.585,0.229-0.789,0.796-1.32,1.034c-0.009,0.053,0.035,0.115,0.026,0.168
					c-0.026,0.159-0.203,0.239-0.328,0.328c-0.203,0.238-0.248,0.504-0.593,0.609c-0.044,0.266-0.124,0.416-0.168,0.682
					c-0.018,0.106-0.036,0.213-0.001,0.327c-0.026,0.159-0.177,0.079-0.203,0.239c-0.027,0.159,0.008,0.273,0.035,0.442
					c-0.292,0.442-0.169,1.009-0.612,1.371c0.026,0.168,0.062,0.283,0.034,0.442c-0.009,0.053-0.026,0.159-0.088,0.203
					c0.168,0.629,0.229,1.24,0.521,1.779l-0.018,0.107c-0.045,0.265,0.15,0.406,0.124,0.566c-0.009,0.053-0.07,0.097-0.089,0.203
					c0.194,0.142,0.336,0.274,0.469,0.46c0.044,0.063,0.035,0.115,0.025,0.169c0.249,0.15,0.249,0.479,0.434,0.673
					c-0.009,0.053-0.071,0.097-0.071,0.097c-0.035,0.213,0.15,0.407,0.292,0.54c0.026,0.169-0.132,0.142-0.105,0.31
					c0.088,0.124,0.15,0.08,0.363,0.116c0.122,0.238,0.3,0.486,0.229,0.911c0.186,0.195,0.123,0.566,0.238,0.858
					c-0.213,0.292-0.442,0.69-0.894,0.778c-0.018,0.106-0.026,0.16-0.09,0.203c-0.222,0.019-0.389,0.045-0.521,0.187
					c-0.867-0.036-1.823-0.196-2.62-0.329c-0.221-0.311-0.503-0.576-0.973-0.709l0.035-0.213c-0.204-0.089-0.283-0.266-0.538-0.363
					c-0.258-0.425-0.575-0.806-0.903-1.133l0.027-0.159c-0.248-0.151-0.461-0.514-0.566-0.859c-0.398-0.23-0.609-0.593-0.946-0.868
					c-0.16-0.026-0.257-0.098-0.345-0.222c-0.044-0.062-0.026-0.168-0.009-0.273c-0.257-0.098-0.327-0.327-0.584-0.426
					c-0.044-0.062-0.026-0.168,0.035-0.212c-0.256-0.098-0.39-0.284-0.397-0.559c-0.159-0.026-0.168,0.027-0.265-0.044
					c-0.116,0.035-0.09,0.203-0.204,0.238c0.034,0.115,0.133,0.187,0.177,0.249c-0.044,0.266-0.142,0.521-0.177,0.734
					c-0.018,0.106,0.078,0.177,0.069,0.229c0.026,0.168,0,0.328-0.026,0.486c-0.027,0.16-0.045,0.267,0.044,0.39l-0.116,0.363
					c-0.071,0.425,0.036,0.77-0.035,1.194l-0.054,0.319c-0.31,0.221-0.938,0.389-1.734,0.255c-1.063-0.178-2.169-0.417-2.55-1.081
					c-0.556-0.257-0.865-0.691-1.122-1.116c-0.098-0.07-0.194-0.142-0.239-0.204l-0.326-0.654c-0.098-0.071-0.08-0.178-0.124-0.239
					c-0.08-0.177-0.22-0.311-0.3-0.486c-0.222-0.311-0.311-0.763-0.398-1.214c-0.053-0.336,0.124-0.742-0.034-1.097
					c0.018-0.106,0.035-0.213,0.098-0.257c-0.274-0.318-0.142-0.788-0.124-1.222c0.027-0.159-0.061-0.283-0.088-0.451
					c0.009-0.381,0.071-0.752,0.027-1.142c0.018-0.105,0.08-0.15,0.142-0.194c-0.194-0.142,0-0.327,0.036-0.54
					c0.009-0.053,0.018-0.106-0.026-0.168c0.062-0.044,0.079-0.15,0.097-0.257c0.027-0.159,0.01-0.381,0.143-0.522
					c-0.088-0.123,0.044-0.266,0.018-0.434c-0.035-0.115-0.123-0.239-0.105-0.345c0.035-0.213,0.133-0.469,0.274-0.664
					c-0.026-0.168-0.062-0.283,0.036-0.54c0,0,0.07-0.097,0.08-0.15c0.035-0.212-0.027-0.495,0.009-0.708
					c0.026-0.159,0.098-0.256,0.222-0.345c-0.079-0.177-0.044-0.39-0.008-0.602c0.062-0.371,0.177-0.734,0.318-0.929
					c0.009-0.054-0.035-0.115-0.079-0.178l0.089-0.53c0.08-0.478,0.168-1.009,0.443-1.346c-0.044-0.389,0.027-0.813,0.098-1.238
					c0.01-0.054,0.125-0.089,0.143-0.195c0.009-0.053-0.035-0.115-0.018-0.221c0.027-0.159,0.115-0.363,0.16-0.629l0.035-0.211
					c-0.035-0.115,0.07-0.098,0.141-0.195c-0.017-0.221-0.025-0.496,0.01-0.709c0.045-0.265,0.133-0.468,0.267-0.61
					c0.009-0.053-0.036-0.114-0.027-0.167c0.044-0.266,0.231-0.398,0.319-0.603c0.099-0.256,0.106-0.637,0.151-0.902
					c0.035-0.212,0.071-0.425,0.16-0.628l0.089-0.204l0.018-0.105c0.026-0.159,0-0.328,0.186-0.46
					c0.071-0.098-0.035-0.115-0.026-0.169c0.142-0.194,0.105-0.31,0.142-0.522c0.035-0.212,0.168-0.354,0.257-0.557
					c0.044-0.266-0.017-0.549,0.231-0.726c-0.036-0.114-0.054-0.009-0.099-0.07c-0.034-0.115,0.116-0.036,0.135-0.142l0.062-0.372
					c0.063-0.372,0.16-0.628,0.327-0.982l0.372,0.063c0.318,0.054,0.53,0.089,0.779-0.088c0.248,0.15,0.416,0.124,0.627,0.159
					l0.205,0.09c0.105,0.018,0.177-0.08,0.266,0.044c0.149,0.079,0.105,0.018,0.379,0.009c0.223-0.017,0.391-0.044,0.55-0.018
					C127.343,61.25,127.449,61.268,127.589,61.401z M131.569,66.324c-0.124,0.089-0.238,0.124-0.354,0.159
					c-0.053-0.009-0.107-0.018-0.15-0.079c-0.239,0.123-0.47,0.193-0.646,0.273c-0.177,0.079-0.417,0.203-0.584,0.229l-0.319-0.054
					c-0.23,0.071-0.257,0.23-0.514,0.461c-0.123,0.088-0.239,0.123-0.301,0.168c-0.079,0.15-0.054,0.318-0.08,0.478
					c-0.097,0.257-0.345,0.434-0.452,0.743c-0.106,0.309-0.169,0.681-0.23,1.053c-0.063,0.372-0.125,0.743-0.115,1.018l-0.036,0.213
					c-0.062,0.371-0.222,0.672-0.391,1.025c0.133,0.187,0.115,0.293,0.079,0.505c-0.018,0.106-0.177,0.08-0.203,0.239
					c-0.045,0.265,0.035,0.442,0.115,0.619l-0.027,0.16c-0.026,0.158-0.106,0.309-0.025,0.486c-0.063,0.044-0.267-0.045-0.285,0.062
					c0.089,0.124,0.24,0.204,0.267,0.372c-0.018,0.105-0.089,0.203-0.106,0.31c-0.044,0.265,0.087,0.451,0.176,0.575
					c0.496-0.354,1.266-0.389,1.727-0.857c0.727-0.097,1.328-0.433,1.7-1.025c0.345-0.105,0.46-0.469,0.708-0.646
					c0.274-0.009,0.451-0.088,0.496-0.354l0.018-0.106c0.212,0.035,0.186-0.133,0.203-0.238c0.531-0.239,0.922-0.61,1.223-1.106
					c0.415-0.202,0.442-0.689,0.895-0.777c-0.044-0.063-0.142-0.134-0.133-0.187c0.186-0.132,0.222-0.345,0.301-0.495
					c-0.035-0.115-0.018-0.221,0-0.327c0.063-0.372,0.347-0.762,0.409-1.133c-0.026-0.168-0.124-0.566-0.212-0.69
					c-0.115-0.292-0.531-0.417-0.69-0.771C133.188,66.432,132.437,66.36,131.569,66.324z"/>
			</g>
		</g>
	</g>
</g>
</svg>
