<?xml version="1.0" encoding="utf-8"?>
<!-- Generator: Adobe Illustrator 16.0.0, SVG Export Plug-In . SVG Version: 6.00 Build 0)  -->
<!DOCTYPE svg PUBLIC "-//W3C//DTD SVG 1.1//EN" "http://www.w3.org/Graphics/SVG/1.1/DTD/svg11.dtd">
<svg version="1.1" id="Layer_1" xmlns="http://www.w3.org/2000/svg" xmlns:xlink="http://www.w3.org/1999/xlink" x="0px" y="0px"
	 width="138.903px" height="137.622px" viewBox="0 0 138.903 137.622" enable-background="new 0 0 138.903 137.622"
	 xml:space="preserve">
<g>
	<path fill="#FFFFFF" d="M55.044,4.275c6.975-6.714,15.78-4.248,23.876-1.194c4.73,1.781,8.209,3.831,11.664,7.594
		c2.309,2.52,4.715,6.968,7.803,8.034c3.671,1.266,8.947-2.943,12.643-2.854c4.176,0.103,10.861,1.827,14.662,2.798
		c19.739,5.045,13.188,26.661,6.906,40.296c-1.77,3.844-1.348,9.876-2.733,12.791c-2.126,4.479-1.512,11.7-4.596,14.772
		c-5.847,5.823-11.792,9.569-23.224,6.003c-3.775-1.178-9.941-6.82-11.854-9.979c-6.414,3.133-31.324,1.718-28.721-8.263
		c-8.885-4.088-28.521-0.125-26.405-16.494c0.856-6.638,4.622-8.428,5.258-14.611c0.344-3.358-1.897-5.103-0.492-8.212
		c0.621-1.369,4.966-3.756,6.015-5.144C45.846,29.813,49.528,9.588,55.044,4.275z"/>
	<g>
		<g>
			<path fill="#FFFFFF" d="M122.399,84.726c-3.48-7.61-6.574-11.362-13.459-16.208c-8.496-5.981-17.307-12.078-26.859-15.871
				c-2.01-0.801-4.088-1.748-6.154-2.502c-3.406-1.242-7.588-0.981-10.83-2.504c-3.848-1.806-2.339-12.025-7.158-11.736
				c-0.057,0.572-3.908,6.375-4.04,6.896l-0.419,0.419c-2.607-3.371-6.135-5.114-8.332-8.479
				c-4.176-6.398-18.785-8.421-22.963-6.398C-18.451,48.026,8.18,99.404,13.263,104.52c2.976,2.997,7.544,3.03,11.814,3.211
				c4.291,0.184,5.894,0.187,8.396,3.438c4.571,5.933,4.415,15.266,9.175,21.084c2.76,3.373,20.137,8.55,21.051,2.764
				c5.006-0.229,9.597,1.271,13.566-1.831c4.33-3.387,6.512-4.939,13.078-4.088c4.493,0.584,6.957,3.438,12.125,2.934
				c5.204-0.512,10.777-1.85,13.941-6.609c1.734-2.615,1.102-3.816,1.98-6.479c0.698-2.117,2.865-4.452,4.113-6.635
				c2.357-4.112,2.551-10.528,2.734-15.526C125.442,91.235,124.635,89.613,122.399,84.726z"/>
		</g>
	</g>
	<g>
		<path fill="#231F20" d="M12.77,53.747c0.396-0.056,0.989-0.014,1.781,0.127c0.791,0.142,1.328,0.212,1.611,0.212
			c0.112-0.056,0.197-0.027,0.254,0.085c0.056,0.057,0.113,0.085,0.17,0.085l0.17-0.085c0.112-0.056,0.226-0.056,0.339,0
			c0.34,0.227,0.594,0.312,0.764,0.254c0,0.058,0.027,0.128,0.085,0.213c0.056,0.084,0.084,0.184,0.084,0.297
			c0.17,0,0.367,0.057,0.594,0.169c0.226,0.114,0.425,0.17,0.594,0.17c0.056,0.114,0.226,0.227,0.509,0.339
			c0,0.058,0.056,0.142,0.17,0.255c0.056,0,0.17,0.042,0.339,0.127c0.17,0.085,0.282,0.127,0.34,0.127
			c0.282,0.396,0.479,0.594,0.594,0.594c0.509,0.509,0.933,0.793,1.271,0.849c0.226,0.227,0.34,0.396,0.34,0.509h0.169
			c0.17,0,0.353,0.071,0.552,0.212c0.197,0.142,0.353,0.212,0.466,0.212c0.34,0.453,0.537,0.792,0.594,1.018h0.424
			c0.056,0.114,0.184,0.241,0.382,0.382c0.197,0.142,0.325,0.241,0.382,0.297v0.254c0,0.509,0.197,0.849,0.594,1.018v0.255
			c0.395,0.283,0.594,0.565,0.594,0.848c0,0.058,0,0.114,0,0.17l-0.085,0.17l0.254,1.271v0.255c0,0.113,0.056,0.198,0.17,0.254
			c0.112,0.114,0.197,0.199,0.255,0.255c-0.227,0.622-0.34,1.329-0.34,2.12c0,0.113,0.014,0.283,0.043,0.509
			c0.027,0.227,0.042,0.424,0.042,0.594c0,0.169,0.014,0.354,0.043,0.551c0.027,0.199,0.069,0.424,0.127,0.679
			c0.056,0.254,0.085,0.438,0.085,0.551c0.056,0.623,0.042,1.499-0.043,2.629c-0.085,1.132-0.127,1.866-0.127,2.205
			c0,0.566,0.112,1.075,0.339,1.526c0,0.17-0.015,0.425-0.042,0.764c-0.029,0.339-0.043,0.594-0.043,0.764
			c0,0.057,0.028,0.142,0.085,0.254c0.056,0.114,0.085,0.227,0.085,0.339l-0.085,0.34c0,0.057,0.014,0.127,0.043,0.212
			c0.027,0.085,0.042,0.156,0.042,0.212c-0.057,0-0.085,0.029-0.085,0.085c-0.057,0.113-0.057,0.254,0,0.424
			c0.056,0.17,0.085,0.283,0.085,0.339c-0.057,0.114-0.127,0.227-0.212,0.34s-0.127,0.198-0.127,0.254
			c0.282,0.566,0.424,0.905,0.424,1.018c0,0.17-0.029,0.284-0.085,0.34c0,0.057,0,0.156,0,0.297c0,0.142,0.056,0.269,0.17,0.381
			c0,0.114-0.029,0.199-0.085,0.255l0.085,0.17c0,0.113,0.056,0.169,0.169,0.169c-0.057,0.058-0.084,0.143-0.084,0.255
			c0,0.283-0.029,0.453-0.085,0.509c-0.058,0.057-0.085,0.114-0.085,0.17c-0.057,0.113-0.029,0.169,0.085,0.169
			c0.112,0,0.169,0.029,0.169,0.085c-0.057,0.227-0.084,0.509-0.084,0.848c0,0.284,0.056,0.481,0.169,0.594
			c0,0.058-0.042,0.114-0.127,0.17c-0.085,0.057-0.127,0.114-0.127,0.17l0.254,0.254v0.424c0,0.736,0.028,1.188,0.085,1.357
			c0,0.057,0.014,0.085,0.043,0.085c0.027,0,0.042,0.029,0.042,0.085c-0.057,0.169-0.029,0.254,0.085,0.254
			c0.056,0.057,0.056,0.114,0,0.17c-0.057,0.057-0.085,0.113-0.085,0.169c0.056,0.114,0.085,0.312,0.085,0.594
			c0,0.284,0.056,0.481,0.17,0.594c0,0.34,0.027,0.566,0.084,0.679h-0.084c-0.058,0.057-0.085,0.114-0.085,0.17
			c0.112,0.339,0.733,0.565,1.865,0.678v0.255c0.113,0,0.282-0.056,0.509-0.17c0.282,0.17,0.424,0.284,0.424,0.34
			c0.056,0,0.113-0.028,0.17-0.085c0.056-0.056,0.112-0.085,0.17-0.085l1.271,0.509c0.056,0,0.141-0.028,0.255-0.085
			c0.226,0,0.452,0.114,0.679,0.339c0.509,0.17,1.103,0.708,1.78,1.611c0.056,0.058,0.141,0.17,0.255,0.34
			c0.112,0.169,0.17,0.312,0.17,0.424c0,0.679-0.029,1.132-0.085,1.356c0,0.17-0.17,0.51-0.509,1.019
			c-0.058,0-0.114,0.028-0.17,0.084c-0.057,0.058-0.114,0.085-0.17,0.085l-0.085,0.17c0,0.057-0.028,0.085-0.084,0.085l-0.679,0.509
			c-0.057,0-0.17,0.057-0.339,0.169c-0.17,0.114-0.284,0.17-0.34,0.17c-0.057,0.058-0.198,0.085-0.424,0.085
			c-0.227,0-0.396,0.027-0.509,0.085c-0.339,0.112-0.594,0.17-0.764,0.17c-0.169,0.056-0.396,0.056-0.678,0
			c-0.284-0.058-0.481-0.058-0.594,0l-0.085,0.084l-0.085,0.085c-0.114,0-0.339,0.028-0.679,0.085
			c-0.339,0.056-0.565,0.085-0.678,0.085h-0.255c-0.057-0.057-0.114-0.085-0.17-0.085l-0.084-0.085l-0.34,0.085
			c-0.17,0-0.396-0.042-0.679-0.127c-0.283-0.085-0.453-0.127-0.509-0.127c-0.339-0.058-0.848-0.1-1.526-0.128
			c-0.678-0.029-1.132-0.042-1.356-0.042c-0.849,0-1.471-0.058-1.866-0.17c-0.057,0-0.142-0.056-0.254-0.17l-0.34,0.085
			c-0.113,0-0.283-0.042-0.509-0.127c-0.227-0.085-0.396-0.127-0.509-0.127c-0.057,0.057-0.084,0.057-0.084,0l-0.085-0.085h-0.085
			c-0.114,0-0.17,0.029-0.17,0.085c-0.114-0.113-0.312-0.197-0.594-0.255c-0.283-0.056-0.453-0.112-0.509-0.169
			c-0.057,0-0.113-0.043-0.169-0.128c-0.058-0.085-0.114-0.127-0.17-0.127c-0.17,0-0.284-0.027-0.339-0.085l-1.103-0.509
			c-0.34-0.112-0.538-0.197-0.594-0.254l-0.085-0.085h-0.17c-0.057,0-0.156-0.056-0.297-0.17c-0.142-0.112-0.297-0.17-0.466-0.17
			c0-0.056-0.17-0.14-0.509-0.254c-0.058-0.112-0.185-0.24-0.382-0.382c-0.199-0.141-0.326-0.239-0.382-0.297
			c-0.057-0.225-0.212-0.479-0.467-0.763c-0.254-0.282-0.41-0.48-0.466-0.594c-0.058-0.056-0.114-0.212-0.17-0.467
			c-0.057-0.254-0.142-0.438-0.254-0.551c0-0.17-0.043-0.425-0.128-0.764s-0.127-0.594-0.127-0.763
			c-0.114-0.282-0.17-0.792-0.17-1.527c0-0.056-0.029-0.112-0.085-0.169c-0.057-0.056-0.084-0.113-0.084-0.17
			c0-0.282,0.027-0.424,0.084-0.424c-0.113-0.112-0.184-0.311-0.212-0.594c-0.028-0.282-0.099-0.452-0.212-0.509v-0.17
			c0-0.169-0.042-0.479-0.127-0.933c-0.085-0.452-0.127-0.791-0.127-1.018c0-0.395,0.056-0.679,0.169-0.849l-0.254-0.169
			c0-0.113,0.013-0.226,0.042-0.34c0.028-0.112,0.043-0.225,0.043-0.339v-0.085c-0.058-0.056-0.085-0.112-0.085-0.169
			c0-0.056,0.027-0.141,0.085-0.255l0.085-0.085c0-0.056-0.029-0.085-0.085-0.085c-0.058,0-0.085-0.027-0.085-0.084l0.085-0.849
			l-0.085-0.339v-0.255c0-0.678-0.057-1.103-0.17-1.271c0-0.113,0.056-0.226,0.17-0.34c0-0.056-0.042-0.098-0.127-0.127
			c-0.085-0.028-0.1-0.07-0.043-0.127c0-0.113,0.014-0.353,0.043-0.721c0.027-0.367,0.042-0.637,0.042-0.806
			c0-0.34-0.029-0.564-0.085-0.679c-0.057-0.282-0.085-0.706-0.085-1.272c0-0.056-0.028-0.127-0.084-0.212
			c-0.058-0.085-0.085-0.155-0.085-0.212v-0.254c0-0.113-0.043-0.311-0.128-0.594c-0.084-0.282-0.127-0.509-0.127-0.679
			c0-0.056,0.014-0.127,0.043-0.212c0.027-0.085,0.042-0.155,0.042-0.212c-0.114-0.113-0.156-0.282-0.127-0.509
			c0.027-0.226,0.098-0.367,0.212-0.425v-0.084c-0.114,0-0.17-0.056-0.17-0.17c0-0.282-0.015-0.749-0.042-1.399
			c-0.029-0.649-0.043-1.145-0.043-1.484v-1.271c0-0.622,0.056-1.046,0.17-1.272c0-0.056,0-0.155,0-0.297
			c0-0.141-0.057-0.239-0.17-0.297c0.056-0.169,0.056-0.451,0-0.848c-0.057-0.395-0.028-0.649,0.085-0.764
			c-0.113-0.112-0.198-0.225-0.254-0.339c0-0.056,0-0.17,0-0.339c0-0.17,0.027-0.282,0.085-0.34
			c-0.17-0.395-0.255-0.903-0.255-1.526v-2.12c0-0.056,0.042-0.098,0.127-0.127c0.085-0.028,0.128-0.07,0.128-0.127
			c0-0.113-0.058-0.226-0.17-0.34c0.226-0.679,0.339-1.158,0.339-1.441c0-0.339-0.085-0.621-0.254-0.849
			c0-0.056,0.013-0.127,0.042-0.212c0.028-0.084,0.043-0.154,0.043-0.212c-0.114-0.225-0.17-0.424-0.17-0.594
			c0-0.056,0.013-0.169,0.042-0.339c0.028-0.17,0.043-0.31,0.043-0.424c0-0.056-0.015-0.127-0.043-0.212
			c-0.029-0.085-0.042-0.155-0.042-0.212c0.17-0.226,0.254-0.452,0.254-0.679c0.17-0.226,0.452-0.509,0.849-0.849
			C12.402,54.086,12.657,53.86,12.77,53.747z"/>
	</g>
	<g>
		<path fill="#231F20" d="M51.186,44.566h0.254c0.17,0,0.409,0.043,0.721,0.127c0.311,0.085,0.522,0.128,0.637,0.128
			c0.112,0,0.225,0.015,0.339,0.042c0.112,0.029,0.226,0.043,0.339,0.043h1.018c0.734,0,1.272,0.084,1.611,0.254
			c0.056,0,0.17,0.085,0.34,0.255c0.509,0,1.045,0.227,1.611,0.678c0.339,0,0.706,0.128,1.103,0.382
			c0.395,0.255,0.733,0.382,1.018,0.382c0,0.283,0.197,0.48,0.594,0.594c0.112,0.396,0.197,0.594,0.254,0.594
			c0.17,0.113,0.409,0.368,0.721,0.763c0.311,0.396,0.579,0.65,0.806,0.764c0.113,0.339,0.226,0.538,0.34,0.594
			c0.056,0.057,0.056,0.127,0,0.212c-0.058,0.085-0.085,0.156-0.085,0.212c0.112,0.227,0.31,0.538,0.594,0.933
			c0.282,0.396,0.509,0.708,0.678,0.933c0,0.453-0.028,0.708-0.084,0.764c0,0.057,0.027,0.085,0.084,0.085
			c0.226,0,0.396,0.085,0.51,0.254c0.112,0.17,0.212,0.396,0.296,0.679c0.085,0.283,0.184,0.481,0.297,0.594
			c-0.057,0.114-0.084,0.283-0.084,0.509c0,0.283,0.112,0.623,0.339,1.018c0.226,0.396,0.367,0.65,0.424,0.764
			c0,0.113,0,0.297,0,0.551c0,0.255,0.028,0.438,0.085,0.552c0.056,0.113,0.127,0.212,0.212,0.297
			c0.085,0.084,0.127,0.156,0.127,0.212c0.17,1.018,0.282,1.556,0.34,1.611c0,0.057-0.015,0.184-0.043,0.381
			c-0.029,0.199-0.042,0.354-0.042,0.467c0,0.848,0.141,1.556,0.424,2.12c0,0.679,0.028,1.272,0.085,1.781
			c0,0.169,0.056,0.41,0.17,0.721c0.112,0.312,0.169,0.523,0.169,0.636c0,0.17-0.085,0.339-0.254,0.509
			c0,0.114,0.013,0.27,0.042,0.467c0.028,0.198,0.043,0.354,0.043,0.466c0,0.509-0.085,0.962-0.255,1.357
			c0.056,0.17,0.085,0.396,0.085,0.679c0,0.396-0.029,0.678-0.085,0.848c0,0.114,0.028,0.227,0.085,0.339
			c0.056,0.114,0.056,0.227,0,0.34c0,0.057-0.057,0.113-0.17,0.169c-0.113,0.058-0.169,0.17-0.169,0.34v0.933
			c0,0.057,0.027,0.127,0.084,0.212c0.056,0.085,0.085,0.156,0.085,0.212c-0.169,0.509-0.254,0.793-0.254,0.849
			c0,0.227,0.085,0.509,0.254,0.848c0,0.114-0.057,0.227-0.169,0.339c-0.114,0.114-0.17,0.199-0.17,0.255
			c0.056,0.057,0.085,0.283,0.085,0.679c0,0.169,0.027,0.283,0.085,0.339c-0.058,0.057-0.114,0.127-0.17,0.212
			c-0.057,0.085-0.114,0.156-0.17,0.212c-0.057,0.058-0.114,0.127-0.17,0.212c-0.057,0.085-0.142,0.128-0.254,0.128
			c-0.227,1.018-0.396,1.695-0.509,2.035c-0.057,0-0.142,0.042-0.255,0.127s-0.227,0.1-0.339,0.042
			c-0.339,0.566-0.565,0.849-0.679,0.849c-0.057,0.339-0.227,0.65-0.509,0.933c-0.057,0.114-0.042,0.199,0.043,0.255
			c0.085,0.057,0.127,0.113,0.127,0.169c-1.188,0.623-2.319,1.499-3.393,2.629c-0.283,0-0.65,0.17-1.103,0.509
			c-0.169,0-0.368,0.072-0.593,0.212c-0.228,0.143-0.396,0.213-0.51,0.213h-0.509c-0.113,0-0.509,0.142-1.187,0.424
			c-0.566,0.283-0.878,0.453-0.934,0.509c-0.678,0.114-1.131,0.254-1.356,0.424L53.9,86.63c-0.114,0-0.27,0.058-0.467,0.17
			c-0.199,0.114-0.354,0.17-0.467,0.17h-1.865c-0.679,0.113-1.217,0.169-1.611,0.169h-0.339c-0.114,0-0.228-0.056-0.34-0.169
			c-0.17,0-0.41,0.028-0.721,0.084c-0.312,0.058-0.551,0.085-0.721,0.085c-0.623,0-1.075-0.027-1.357-0.085
			c-0.113,0-0.283-0.027-0.509-0.084c-0.227-0.056-0.424-0.085-0.594-0.085c-0.057,0-0.142,0.015-0.254,0.042
			c-0.114,0.029-0.199,0.043-0.255,0.043c-0.169,0-0.396-0.085-0.678-0.255c-0.284-0.17-0.481-0.254-0.594-0.254h-0.34
			c-0.339,0-0.707-0.141-1.102-0.425c-0.17-0.056-0.369-0.154-0.594-0.297c-0.227-0.14-0.369-0.212-0.425-0.212h-0.254
			c-0.057-0.056-0.17-0.169-0.339-0.339c-0.17-0.17-0.312-0.282-0.425-0.339c-0.509-0.34-0.763-0.537-0.763-0.594
			c-0.623-0.056-1.387-0.425-2.29-1.103c-0.114-0.056-0.254-0.17-0.424-0.34c-0.17-0.169-0.312-0.282-0.424-0.339
			c-0.396-0.395-0.623-0.649-0.679-0.764l-0.679-0.509c0-0.112-0.085-0.239-0.254-0.381c-0.17-0.141-0.255-0.297-0.255-0.467
			l-0.424-0.17c-0.227-0.395-0.523-0.975-0.891-1.738c-0.368-0.764-0.636-1.285-0.806-1.568c-0.283-0.565-0.538-1.272-0.763-2.121
			c-0.17-0.564-0.255-0.875-0.255-0.933l-0.339-0.594c0-0.056-0.085-0.933-0.255-2.629c-0.169-0.848-0.254-1.3-0.254-1.356
			c-0.058-0.226-0.072-0.564-0.043-1.018c0.028-0.452,0.043-0.764,0.043-0.933c0-0.113-0.029-0.297-0.085-0.552
			c-0.058-0.254-0.085-0.438-0.085-0.551s0.027-0.226,0.085-0.34c0.056-0.112,0.085-0.197,0.085-0.254
			c0-0.113-0.015-0.311-0.043-0.594c-0.029-0.282-0.015-0.509,0.043-0.679l0.085-0.339c0.056-0.113,0.056-0.255,0-0.424l-0.085-0.34
			c0.169-0.679,0.282-1.103,0.339-1.271c0.056-0.17,0.085-0.438,0.085-0.806c0-0.367,0.027-0.707,0.085-1.019
			c0.056-0.31,0.169-0.551,0.339-0.721c0-0.621,0.226-1.271,0.679-1.95c0.112-1.018,0.395-1.667,0.848-1.95v-0.17
			c-0.057-0.112-0.085-0.197-0.085-0.255c0.113-0.056,0.226-0.169,0.34-0.339c0.112-0.17,0.197-0.254,0.254-0.254
			c0.056-0.056,0.056-0.113,0-0.17c-0.057-0.056-0.085-0.112-0.085-0.17c0.113-0.056,0.213-0.155,0.297-0.297
			c0.085-0.141,0.184-0.239,0.297-0.297c0.056-0.395,0.255-0.818,0.594-1.271c0.34-0.452,0.537-0.791,0.594-1.018
			c0.961-1.131,1.47-1.752,1.526-1.866c0.113-0.056,0.537-0.282,1.272-0.679c0.112-0.056,0.282-0.183,0.509-0.381
			c0.226-0.198,0.424-0.325,0.594-0.382c0.056,0,0.155-0.028,0.297-0.085c0.141-0.056,0.239-0.085,0.297-0.085
			c0.056,0,0.254-0.085,0.594-0.254c0.339-0.17,0.621-0.255,0.848-0.255c0.056-0.056,0.197-0.212,0.424-0.467
			c0.226-0.254,0.452-0.409,0.679-0.466c0.112-0.056,0.395-0.127,0.848-0.212c0.452-0.085,0.734-0.212,0.849-0.382
			c0.225,0.057,0.621,0.085,1.187,0.085h0.425c0.112,0,0.239-0.056,0.381-0.17c0.141-0.112,0.269-0.17,0.382-0.17
			c1.131-0.282,1.725-0.451,1.781-0.509c0.112,0.058,0.254,0.085,0.424,0.085c0.339,0,0.621-0.112,0.848-0.339
			c0.113-0.056,0.34-0.085,0.679-0.085h1.103C50.761,44.651,51.016,44.624,51.186,44.566z M51.525,49.824
			c-0.057,0.453-0.339,0.82-0.848,1.103v0.424l-0.255,0.17c0,0.227-0.057,0.411-0.17,0.552c-0.113,0.142-0.241,0.297-0.381,0.466
			c-0.143,0.17-0.241,0.312-0.297,0.424c0,0.058,0.027,0.143,0.085,0.255c0.056,0.114,0.084,0.198,0.084,0.254l-0.169,0.085
			c-0.17,0.058-0.284,0.114-0.34,0.17v0.509c0,0.679-0.312,1.441-0.933,2.29v0.339c0,0.17-0.015,0.438-0.042,0.806
			c-0.029,0.368-0.043,0.636-0.043,0.806c0,0.339,0.056,0.679,0.17,1.018c-0.17,0.058-0.255,0.199-0.255,0.424
			c0,0.058,0,0.114,0,0.17c0,0.057-0.057,0.142-0.169,0.255c-0.058,0.169-0.1,0.368-0.128,0.593
			c-0.028,0.227-0.042,0.396-0.042,0.51c0.17,0.169,0.255,0.424,0.255,0.763s-0.114,0.679-0.34,1.018
			c0.113,0.34,0.17,0.594,0.17,0.764c0,0.283-0.057,0.65-0.17,1.103c0,0.057,0.056,0.142,0.17,0.254
			c0.112,0.114,0.141,0.227,0.085,0.34c-0.114,0.339-0.17,0.962-0.17,1.865c0,0.339,0.014,0.862,0.042,1.569
			s0.043,1.229,0.043,1.568v0.509c0,0.058,0.027,0.156,0.085,0.297c0.056,0.142,0.085,0.241,0.085,0.297
			c0.112,0.396,0.183,0.962,0.212,1.696c0.027,0.735,0.07,1.244,0.127,1.526l0.254,0.764c0.226,0.848,0.425,1.356,0.594,1.526
			c0.17,0.169,0.48,0.368,0.934,0.594c0.112,0,0.212,0.028,0.297,0.084c0.084,0.058,0.154,0.085,0.212,0.085
			c0.112,0.058,0.225,0.085,0.339,0.085c0.056,0,0.197-0.027,0.424-0.085c0.226-0.056,0.396-0.056,0.509,0
			c0.791-0.564,1.413-0.933,1.866-1.103c0.056-0.112,0.155-0.282,0.297-0.509c0.141-0.225,0.268-0.395,0.381-0.509
			c0.113-0.169,0.24-0.479,0.382-0.933c0.141-0.452,0.24-0.764,0.297-0.933l0.255-0.424c0.056-0.113,0.098-0.255,0.127-0.425
			c0.027-0.169,0.07-0.31,0.127-0.424c0.34-0.509,0.509-0.848,0.509-1.018s-0.029-0.282-0.085-0.339
			c0.113-0.17,0.24-0.424,0.382-0.764c0.141-0.339,0.24-0.564,0.297-0.679l-0.085-0.339c0-0.17,0.056-0.367,0.17-0.594
			c0.112-0.226,0.17-0.367,0.17-0.424c0-0.056,0-0.183,0-0.382c0-0.197,0.027-0.353,0.085-0.466c0-0.113,0.027-0.226,0.084-0.34
			c0.056-0.112,0.085-0.197,0.085-0.254v-1.272c0.056-0.282,0.155-0.721,0.297-1.314c0.141-0.594,0.212-0.976,0.212-1.145
			c0.113-0.679,0.014-1.64-0.297-2.884c-0.312-1.243-0.466-2.147-0.466-2.714c-0.17-0.282-0.297-0.748-0.382-1.399
			c-0.085-0.649-0.156-1.06-0.212-1.229c-0.396-0.903-0.594-1.47-0.594-1.696c-0.679-1.187-1.047-1.979-1.103-2.374
			c-0.227-0.113-0.551-0.311-0.976-0.594c-0.424-0.282-0.777-0.479-1.06-0.594C52.373,49.882,51.977,49.824,51.525,49.824z"/>
	</g>
	<g>
		<path fill="#231F20" d="M67.984,89.403c0.282,0,0.537,0.114,0.764,0.34h0.424c0.564,0,1.073,0.227,1.526,0.678h0.679
			c0.282,0.284,0.367,0.509,0.254,0.679c0.056,0.057,0.113,0.085,0.17,0.085l0.17,0.085c-0.114,0.113-0.17,0.198-0.17,0.254
			c0,0.058,0.043,0.114,0.127,0.17c0.085,0.057,0.128,0.114,0.128,0.17c0,0.057-0.029,0.142-0.085,0.254
			c-0.057,0.114-0.085,0.227-0.085,0.339l0.679,0.255c0,0.057,0.056,0.269,0.169,0.636c0.113,0.368,0.17,0.665,0.17,0.891
			c0,0.283-0.114,0.509-0.339,0.679l0.254,0.763l-0.085,0.17l-0.084,0.17c0,0.453-0.085,0.707-0.255,0.763
			c0.17,0.34,0.17,0.538,0,0.594c0.056,0.058,0.085,0.17,0.085,0.34c0,0.283-0.142,0.48-0.424,0.593
			c0.112,0.114,0.282,0.34,0.509,0.679c-0.114,0.17-0.17,0.453-0.17,0.849s-0.085,0.65-0.254,0.763c0,0.17,0.027,0.312,0.084,0.424
			c-0.339,0.453-0.509,0.735-0.509,0.849c-0.057,0.113-0.057,0.254,0,0.424c0.056,0.17,0.085,0.283,0.085,0.339
			c0,0.114-0.029,0.199-0.085,0.255c0,0.057,0.056,0.142,0.17,0.254c-0.453,0.453-0.708,0.679-0.764,0.679
			c0,0.114,0.043,0.199,0.128,0.255c0.085,0.057,0.127,0.113,0.127,0.169c0,0.058-0.042,0.114-0.127,0.17
			c-0.085,0.057-0.1,0.114-0.043,0.17c0.113,0.227,0.17,0.396,0.17,0.509s-0.071,0.339-0.212,0.678
			c-0.142,0.34-0.212,0.594-0.212,0.764v0.254c0,0.058-0.043,0.1-0.127,0.128c-0.085,0.029-0.1,0.071-0.043,0.127
			c0.056,0.057,0.085,0.255,0.085,0.594l0.085,0.254c0,0.396-0.058,0.708-0.17,0.934c-0.114,0.848-0.254,1.329-0.424,1.441
			c0.112,0.114,0.17,0.198,0.17,0.254c-0.227,0.228-0.34,0.454-0.34,0.679c0,0.058,0.028,0.114,0.085,0.17
			c-0.227,0.623-0.453,1.047-0.679,1.272c0,0.057,0,0.113,0,0.169c0,0.058,0,0.114,0,0.17l-0.339,0.254v0.425
			c0.056,0.057,0.042,0.113-0.042,0.169c-0.085,0.058-0.128,0.114-0.128,0.17v0.254c-0.169,0.284-0.312,0.454-0.424,0.51
			c0.112,0.113,0.112,0.254,0,0.424c-0.114,0.169-0.142,0.283-0.085,0.339c-0.057,0.057-0.1,0.17-0.127,0.339
			c-0.029,0.17-0.1,0.284-0.212,0.34c0.056,0.057,0.056,0.169,0,0.339l-0.085,0.085c0,0.283-0.029,0.453-0.085,0.509
			c-0.114,0.114-0.198,0.17-0.254,0.17c-0.058,0.113-0.1,0.283-0.128,0.509c-0.028,0.227-0.099,0.396-0.212,0.509
			c-0.283,0.057-0.424,0.254-0.424,0.594c0,0.057,0,0.113,0,0.169l0.085,0.17c-0.057,0.114-0.227,0.283-0.509,0.509v0.339
			c-0.114,0.058-0.227,0.199-0.339,0.425c-0.114,0.227-0.255,0.368-0.425,0.424v0.17c0,0.339-0.169,0.565-0.509,0.678
			c0,0.114,0.028,0.199,0.085,0.255c0.056,0.057,0.085,0.114,0.085,0.169c0,0.114-0.1,0.241-0.297,0.382
			c-0.199,0.142-0.297,0.27-0.297,0.382c-0.057,0.057-0.1,0.156-0.127,0.297c-0.029,0.142-0.085,0.255-0.17,0.339
			c-0.085,0.085-0.184,0.156-0.297,0.212c0,0.114-0.085,0.241-0.254,0.382c-0.17,0.142-0.255,0.297-0.255,0.467
			c-0.114,0.057-0.297,0.198-0.551,0.424c-0.255,0.227-0.467,0.339-0.637,0.339h-0.169c-0.058,0.058-0.085,0.199-0.085,0.425
			c-0.114,0.113-0.339,0.227-0.679,0.339c-0.227,0.227-0.453,0.396-0.679,0.509l-0.509,0.339c-0.057,0.058-0.198,0.085-0.424,0.085
			c-0.057,0.058-0.241,0.199-0.551,0.424c-0.312,0.227-0.552,0.369-0.721,0.425h-0.255c-0.057,0-0.198-0.014-0.424-0.043
			c-0.227-0.027-0.396-0.042-0.509-0.042c-0.227,0-0.396,0.029-0.509,0.085c-0.058,0-0.17,0.029-0.34,0.085
			c-0.169,0.057-0.283,0.084-0.339,0.084c-0.283,0.058-0.735,0.085-1.356,0.085c-0.17,0-0.425-0.042-0.764-0.127
			s-0.623-0.127-0.848-0.127c-0.058,0-0.157,0.042-0.297,0.127c-0.143,0.085-0.241,0.127-0.297,0.127
			c-0.227,0.058-0.651,0.085-1.272,0.085c-0.453,0-0.763-0.027-0.933-0.085c-0.114-0.112-0.227-0.169-0.34-0.169
			c-0.057,0-0.198-0.028-0.424-0.085c-0.227-0.056-0.368-0.085-0.424-0.085c-0.057,0-0.185-0.07-0.382-0.212
			c-0.198-0.141-0.354-0.24-0.466-0.297c-0.114-0.113-0.17-0.197-0.17-0.255c-0.114,0-0.241-0.07-0.382-0.212
			c-0.142-0.141-0.297-0.212-0.466-0.212c-0.114-0.112-0.227-0.24-0.34-0.382c-0.113-0.141-0.254-0.282-0.424-0.424
			c-0.17-0.141-0.283-0.24-0.339-0.297c-0.227-0.564-0.453-0.933-0.679-1.103v-0.254c-0.396-0.509-0.65-0.934-0.764-1.272
			c-0.057-0.112-0.113-0.282-0.169-0.509c-0.058-0.226-0.114-0.395-0.17-0.509c0-0.056-0.042-0.127-0.127-0.212
			s-0.156-0.183-0.212-0.297c-0.058-0.056-0.1-0.183-0.128-0.382c-0.028-0.197-0.042-0.324-0.042-0.382
			c-0.057-0.112-0.142-0.239-0.255-0.381c-0.113-0.141-0.169-0.24-0.169-0.297v-0.34c-0.17-0.395-0.284-0.678-0.34-0.848
			c-0.283-0.564-0.424-0.988-0.424-1.272v-0.169c-0.339-0.564-0.509-1.046-0.509-1.442v-0.254c0-0.056-0.029-0.099-0.085-0.127
			c-0.057-0.028-0.085-0.07-0.085-0.128c0-0.225-0.071-0.551-0.212-0.975c-0.142-0.425-0.212-0.722-0.212-0.891v-0.17
			c-0.113-0.282-0.538-1.555-1.271-3.816l-0.17-0.339v-0.679c-0.283-0.848-0.424-1.582-0.424-2.205v-0.254v-0.085l-0.085-0.17
			c-0.057-0.169-0.057-0.438,0-0.806c0.056-0.367,0.056-0.636,0-0.806c0-0.056-0.029-0.141-0.085-0.254v-0.509
			c0-0.226-0.057-0.537-0.17-0.934c-0.113-0.395-0.169-0.678-0.169-0.848v-0.254c-0.114-0.113-0.199-0.353-0.255-0.722
			c-0.057-0.366-0.142-0.606-0.254-0.721v-1.188c0-0.225-0.029-0.479-0.085-0.763c-0.058-0.282-0.085-0.479-0.085-0.594
			c0-0.056,0.027-0.155,0.085-0.297c0.056-0.141,0.056-0.24,0-0.297l-0.085-0.17c0-0.112,0-0.197,0-0.254
			c0-0.112,0.085-0.764,0.255-1.95c0-0.113-0.015-0.311-0.043-0.594c-0.029-0.282-0.042-0.479-0.042-0.594V93.22l0.085-0.085
			c0.056,0,0.056-0.027,0-0.085c-0.058-0.056-0.058-0.085,0-0.085c0.056-0.169,0.154-0.437,0.296-0.806
			c0.141-0.366,0.24-0.663,0.297-0.89l1.272-0.509c0.056,0,0.226-0.085,0.509-0.255c0.282-0.17,0.479-0.282,0.594-0.339h0.509
			c0.112,0,0.282-0.028,0.509-0.085c0.226-0.056,0.367-0.085,0.424-0.085c0.226-0.056,0.564-0.197,1.018-0.424
			c0.113,0.057,0.255,0.085,0.425,0.085c0.112,0,0.282-0.014,0.509-0.043c0.225-0.027,0.424-0.042,0.593-0.042l0.085,0.085
			c0,0.113,0.056,0.169,0.17,0.169c0.056,0,0.112-0.027,0.17-0.084c0.056-0.056,0.14-0.085,0.254-0.085
			c0.056,0.113,0.226,0.169,0.509,0.169c0.282,0,0.424,0.085,0.424,0.255c0.056,0,0.155,0.029,0.297,0.085
			c0.141,0.057,0.24,0.085,0.297,0.085c0.17,0.283,0.226,0.48,0.17,0.593c0.17,0.17,0.255,0.284,0.255,0.34
			c0.169,0,0.395,0.085,0.678,0.254v0.255c0,0.623-0.029,0.989-0.085,1.103c0.226,0.339,0.34,0.679,0.34,1.018v0.254
			c0.056,0.058,0.141,0.114,0.254,0.17c0.113,0.057,0.17,0.114,0.17,0.17c0,0.283-0.029,0.48-0.085,0.594
			c0,0.057,0.043,0.142,0.127,0.254c0.085,0.114,0.128,0.227,0.128,0.34c0.395,0.396,0.649,1.074,0.763,2.035
			c0.056,0.113,0.043,0.184-0.042,0.212c-0.085,0.029-0.127,0.071-0.127,0.127l0.169,0.17c0.113,0.113,0.155,0.198,0.127,0.254
			c-0.028,0.058-0.071,0.142-0.127,0.255c0.282,0.283,0.537,0.48,0.764,0.594c0,0.509,0.141,0.848,0.424,1.018v0.169
			c0,0.34,0.056,0.679,0.17,1.019c0.056,0,0.14,0,0.254,0c0.113,0,0.17,0.028,0.17,0.084c0.226,0.34,0.339,0.566,0.339,0.679
			c0.17,0.17,0.34,0.438,0.509,0.806c0.17,0.368,0.311,0.608,0.424,0.721c0,0.509,0.028,0.793,0.085,0.849
			c-0.057,0.113-0.085,0.269-0.085,0.466c0,0.199-0.057,0.326-0.169,0.382c0,0.057,0.085,0.17,0.254,0.339
			c-0.057,0.114-0.085,0.284-0.085,0.509c0,0.736-0.028,1.16-0.084,1.272c0.056,0.114,0.127,0.212,0.212,0.297
			s0.127,0.156,0.127,0.212c-0.057,0.114-0.085,0.312-0.085,0.594c0,0.679,0.311,1.329,0.933,1.95c0,0.058,0.028,0.199,0.085,0.425
			c0.056,0.227,0.085,0.368,0.085,0.424c0,0.057,0.028,0.184,0.085,0.382c0.056,0.198,0.098,0.368,0.127,0.509
			c0.028,0.142,0.07,0.241,0.127,0.297c0,0.113,0.056,0.212,0.17,0.296c0.112,0.085,0.197,0.185,0.255,0.297
			c0.112,0.17,0.197,0.425,0.254,0.764c0.056,0.339,0.113,0.594,0.17,0.764c0.112-0.056,0.197-0.184,0.254-0.382
			c0.056-0.197,0.099-0.424,0.128-0.679c0.027-0.255,0.07-0.438,0.127-0.551c0-0.056,0.056-0.141,0.17-0.255
			c0.112-1.073,0.254-1.865,0.424-2.375c0.169-0.339,0.254-0.536,0.254-0.593c0-0.056,0.085-0.537,0.255-1.442l0.254-0.678
			c0.056-0.113,0.155-0.367,0.297-0.764c0.141-0.395,0.24-0.706,0.297-0.933l0.255-0.679c0-0.112,0.013-0.297,0.042-0.551
			c0.028-0.255,0.07-0.438,0.127-0.552c0-0.056,0.056-0.141,0.17-0.254v-0.255c0-0.282,0.056-0.509,0.17-0.679
			c0-0.225-0.029-0.339-0.085-0.339c0.056-0.112,0.098-0.324,0.127-0.636c0.028-0.311,0.099-0.522,0.212-0.637
			c0-0.169,0.043-0.381,0.128-0.636c0.084-0.254,0.127-0.467,0.127-0.636c0.056,0,0.085-0.043,0.085-0.127
			c0-0.085,0.056-0.099,0.169-0.043c-0.057-0.056-0.084-0.197-0.084-0.424c0-0.452,0.14-0.734,0.424-0.849
			c0-0.056-0.029-0.112-0.085-0.169l-0.085-0.085c0.056-0.17,0.127-0.452,0.212-0.848s0.183-0.679,0.297-0.849
			c0.056-0.112,0.141-0.226,0.255-0.339c0-0.056,0-0.155,0-0.297c0-0.141,0.027-0.255,0.084-0.34
			c0.056-0.084,0.141-0.127,0.255-0.127v-0.169c0-0.51,0.141-0.961,0.424-1.357c0-0.226-0.057-0.367-0.169-0.424
			c0.169-0.509,0.366-0.876,0.593-1.103c0.056-0.056,0.155-0.127,0.297-0.212c0.141-0.085,0.24-0.17,0.297-0.255
			c0.056-0.085,0.085-0.212,0.085-0.381c0.339-0.113,0.537-0.311,0.594-0.594c0.282-0.056,0.564-0.226,0.848-0.509h0.34
			c0.056,0,0.141-0.113,0.254-0.34c1.018-0.282,1.555-0.509,1.611-0.678l0.509-0.255c0.056,0,0.141-0.014,0.255-0.042
			C67.842,89.418,67.927,89.403,67.984,89.403z M62.217,98.901c0.056,0,0.113,0.029,0.17,0.085
			C62.331,98.986,62.273,98.959,62.217,98.901z"/>
	</g>
	<g>
		<path fill="#231F20" d="M88.009,64.583h0.255c0.621,0,0.988,0.057,1.103,0.17c0.17-0.056,0.452-0.085,0.848-0.085
			c0.226,0,0.537,0.015,0.933,0.042c0.396,0.029,0.649,0.043,0.764,0.043c0.17,0,0.424-0.014,0.764-0.043
			c0.339-0.027,0.594-0.042,0.763-0.042c0.056,0,0.141,0.029,0.255,0.085c0.112,0.057,0.197,0.085,0.254,0.085
			c0.056,0,0.155-0.014,0.297-0.043c0.141-0.027,0.268-0.042,0.382-0.042c0.056,0,0.339,0.015,0.848,0.042
			c0.509,0.029,0.904,0.1,1.188,0.212c0.112,0,0.197-0.027,0.255-0.085h0.169c0.226,0.17,0.48,0.255,0.764,0.255h0.339
			c0.113,0,0.311-0.014,0.594-0.043c0.282-0.027,0.509-0.042,0.679-0.042h0.254c0.113,0,0.396,0.057,0.849,0.17
			c0.734,0.169,1.243,0.424,1.526,0.763c0.056,0.058,0.17,0.199,0.339,0.425c0.17,0.227,0.311,0.396,0.425,0.509
			c0.055,0.057,0.14,0.156,0.254,0.297c0.112,0.142,0.197,0.269,0.255,0.381l0.084,1.018c-0.113,0.623-0.339,1.188-0.678,1.696
			c-0.284,0.396-0.566,0.65-0.849,0.764c-0.113,0.057-0.312,0.113-0.594,0.169c-0.283,0.058-0.48,0.114-0.594,0.17
			c-0.227,0.114-0.453,0.17-0.678,0.17c-0.114,0-0.284-0.056-0.509-0.17c-0.34,0.283-0.99,0.424-1.951,0.424h-1.695
			c-0.227,0-0.623,0.015-1.188,0.043c-0.566,0.029-1.018,0.042-1.357,0.042h-0.594c-0.227-0.056-0.509-0.056-0.848,0
			c-0.17,0-0.382-0.013-0.636-0.042c-0.255-0.028-0.438-0.043-0.552-0.043s-0.269,0.015-0.466,0.043
			c-0.199,0.029-0.354,0.042-0.467,0.042c-0.114,0-0.269-0.013-0.467-0.042c-0.198-0.028-0.325-0.043-0.381-0.043
			c-0.284,0-0.481,0.058-0.594,0.17c0.056,0.114,0.085,0.283,0.085,0.509c-0.34,0.17-0.538,0.283-0.594,0.339
			c0.056,0.058,0.085,0.227,0.085,0.509l-0.085,0.51c0,0.113-0.058,0.227-0.17,0.339c-0.114,0.114-0.17,0.198-0.17,0.254
			c0.056,0.058,0.056,0.114,0,0.17l0.17,0.085c0.056,0,0.085,0.029,0.085,0.085c0.056,0.339,0.098,1.047,0.127,2.12
			c0.028,1.074,0.127,1.865,0.297,2.374c-0.17,0.453-0.283,0.735-0.339,0.849c0.056,0.113,0.141,0.169,0.254,0.169
			s0.17,0.029,0.17,0.085c0,0.453-0.029,0.764-0.085,0.933c0.17,0.284,0.255,0.594,0.255,0.934c0,0.396-0.143,0.792-0.425,1.187
			c0,0.114-0.015,0.241-0.042,0.382c-0.029,0.142-0.042,0.241-0.042,0.297c0,0.34,0.027,0.806,0.084,1.399
			c0.056,0.594,0.085,1.005,0.085,1.229c0,0.284-0.029,0.509-0.085,0.679c0.34,0.227,0.622,0.509,0.849,0.848
			c0.169,0,0.424-0.013,0.763-0.042c0.34-0.028,0.564-0.042,0.679-0.042c0.282,0,0.594,0.057,0.933,0.169
			c0.564-0.112,1.018-0.169,1.357-0.169l0.848,0.084c0.056,0.058,0.226,0.143,0.509,0.255c0.282,0.114,0.452,0.227,0.509,0.339h0.34
			c0.056,0.058,0.254,0.227,0.594,0.509c0.339,0.284,0.621,0.453,0.848,0.509c0,0.17,0.112,0.34,0.339,0.509
			c-0.113,0.114-0.127,0.284-0.042,0.509c0.085,0.228,0.127,0.369,0.127,0.425v0.169l-0.339,0.34c0,0.113-0.071,0.283-0.212,0.509
			c-0.143,0.227-0.212,0.424-0.212,0.594c-0.058,0.057-0.17,0.084-0.34,0.084c-0.057,0.228-0.198,0.51-0.424,0.849l-1.188,0.254
			c-0.113,0-0.283,0.029-0.509,0.085c-0.113,0.114-0.227,0.17-0.339,0.17c-0.17,0-0.368-0.028-0.594-0.085
			c-0.227-0.056-0.424-0.085-0.594-0.085l-0.848,0.085h-0.255c-0.114,0-0.269-0.027-0.466-0.085
			c-0.199-0.056-0.326-0.085-0.382-0.085c-0.17,0-0.284,0.029-0.34,0.085c-0.169,0.17-0.254,0.481-0.254,0.934
			c0,0.057-0.015,0.169-0.043,0.339s-0.042,0.312-0.042,0.424c0,0.227,0.027,0.538,0.085,0.933c0.056,0.396,0.085,0.679,0.085,0.849
			v0.933c0.169,0.057,0.621,0.212,1.356,0.467c0.734,0.254,1.243,0.495,1.526,0.721c0.113,0,0.197-0.014,0.255-0.043
			c0.056-0.027,0.112-0.042,0.169-0.042c0.51,0.17,1.103,0.254,1.781,0.254c0.509,0,1.158-0.056,1.95-0.169
			c0.056,0,0.198,0.113,0.425,0.339c0.169,0,0.521-0.042,1.06-0.127c0.537-0.085,0.946-0.127,1.229-0.127
			c0.396,0,0.707,0.084,0.934,0.254c0.056-0.112,0.197-0.127,0.424-0.042c0.225,0.085,0.367,0.127,0.424,0.127h0.17
			c0.056,0.057,0.112,0.114,0.169,0.17l0.17,0.084l0.764,0.255c0.225,0.339,0.339,0.623,0.339,0.848
			c0.056,0.058,0.17,0.157,0.339,0.297c0.17,0.143,0.282,0.241,0.34,0.297c0.112,0.114,0.169,0.424,0.169,0.934
			c0,0.453-0.057,0.763-0.169,0.933l-0.255,0.169c-0.396,0.566-0.735,0.905-1.018,1.019l-0.763,0.339h-0.425
			c-0.169,0-0.368,0.071-0.594,0.212c-0.227,0.142-0.396,0.212-0.509,0.212s-0.227-0.013-0.339-0.042
			c-0.114-0.028-0.198-0.043-0.254-0.043c-0.058,0-0.17,0.085-0.34,0.255c-0.17,0-0.41,0.085-0.721,0.254
			c-0.312,0.17-0.551,0.282-0.721,0.34c-0.114,0-0.368,0.013-0.764,0.042c-0.396,0.028-0.707,0.07-0.933,0.127
			c-0.453,0.113-0.905,0.17-1.356,0.17c-0.34,0-0.566-0.029-0.679-0.085l-0.255,0.085c-0.113,0.056-0.198,0.112-0.254,0.17
			c-0.114-0.058-0.284-0.085-0.509-0.085c-0.114,0-0.284,0.013-0.509,0.042c-0.227,0.028-0.396,0.043-0.509,0.043
			c-0.058,0-0.142,0-0.255,0l-0.085-0.085c-0.057,0-0.142,0.013-0.254,0.042c-0.114,0.028-0.199,0.043-0.255,0.043
			c-0.169,0.056-0.538,0.085-1.103,0.085h-1.187c-0.227,0.112-0.369,0.169-0.425,0.169c-0.169,0.056-0.424,0.085-0.763,0.085
			c-0.509,0-0.877-0.029-1.103-0.085l-0.424,0.255c-0.284,0-0.693,0.027-1.229,0.085c-0.538,0.056-0.948,0.084-1.23,0.084
			c-0.339,0-0.622-0.028-0.848-0.084c-0.114-0.114-0.424-0.255-0.933-0.425c-0.509-0.169-0.82-0.396-0.934-0.678
			c-0.113,0-0.269-0.085-0.466-0.255c-0.199-0.17-0.382-0.282-0.552-0.339c-0.113-0.34-0.424-0.664-0.933-0.976
			c-0.509-0.31-0.82-0.521-0.933-0.636c0-0.226-0.114-0.396-0.34-0.509c0-0.113-0.014-0.24-0.042-0.382
			c-0.029-0.141-0.042-0.24-0.042-0.297c-0.227-0.17-0.509-0.479-0.849-0.933c-0.057-0.113-0.057-0.226,0-0.34v-0.084
			c-0.396-0.509-0.594-0.961-0.594-1.357v-0.17c-0.169-0.282-0.312-0.818-0.424-1.611c-0.114-0.791-0.283-1.327-0.509-1.61v-0.17
			c0-0.112-0.057-0.311-0.17-0.594c-0.113-0.282-0.169-0.479-0.169-0.594l0.085-0.339c-0.227-0.396-0.34-0.849-0.34-1.357
			c0-0.339-0.015-0.733-0.042-1.188c-0.029-0.451-0.071-0.96-0.127-1.526c-0.058-0.564-0.085-1.018-0.085-1.356v-2.035
			c0-0.226,0.027-0.552,0.085-0.976c0.056-0.424,0.084-0.721,0.084-0.891c0-0.112-0.015-0.31-0.042-0.594
			c-0.029-0.282-0.042-0.509-0.042-0.678c0-0.282,0.027-0.509,0.084-0.679c-0.057-0.056-0.057-0.085,0-0.085l0.17-0.085
			c-0.283-1.865-0.424-3.165-0.424-3.9c0-0.17,0.056-0.48,0.17-0.934h-0.085c-0.114,0-0.17-0.027-0.17-0.085
			c0-0.339,0.014-0.89,0.042-1.653c0.028-0.763,0.043-1.342,0.043-1.738c0-0.056-0.015-0.17-0.043-0.34
			c-0.028-0.169-0.042-0.31-0.042-0.424c0-0.225,0.085-0.424,0.255-0.594l-0.085-0.084c-0.114,0-0.143-0.056-0.085-0.17
			c0.17-1.357,0.254-2.685,0.254-3.986c0.056-0.056,0.141-0.127,0.255-0.212c0.112-0.085,0.197-0.155,0.254-0.212
			c-0.057-0.112-0.113-0.141-0.169-0.085c-0.058,0.058-0.114,0.058-0.17,0c0-0.339,0.085-0.721,0.255-1.145
			c0.169-0.424,0.282-0.721,0.339-0.891c0.056,0,0.127-0.056,0.212-0.17c0.085-0.112,0.183-0.169,0.297-0.169
			c0.112-0.226,0.395-0.494,0.848-0.806c0.452-0.311,0.734-0.579,0.849-0.806c0.056,0,0.451-0.085,1.188-0.255
			c0.339,0,0.564-0.141,0.678-0.424c0.056,0.057,0.141,0.085,0.255,0.085c0.112,0,0.297-0.056,0.551-0.17
			c0.255-0.112,0.41-0.169,0.467-0.169c0.17-0.056,0.424-0.085,0.763-0.085c0.34,0,0.679,0.057,1.019,0.169
			c0.112,0,0.268-0.027,0.466-0.084c0.197-0.056,0.382-0.099,0.552-0.128c0.169-0.027,0.339-0.042,0.509-0.042
			c0.056,0,0.141,0.029,0.254,0.085h0.17c0.112,0,0.282-0.028,0.509-0.085c0.226-0.056,0.424-0.085,0.594-0.085l0.339,0.085
			c0.226,0,0.522-0.028,0.891-0.085c0.367-0.056,0.636-0.085,0.806-0.085h0.255L88.009,64.583z"/>
	</g>
	<g>
		<path fill="#231F20" d="M72.681,112.665c0,0.057,0.027,0.085,0.085,0.085h0.17c0.171,0,0.341,0.058,0.511,0.17
			c0.028,0.086,0.1,0.186,0.213,0.298c0.113,0.114,0.185,0.213,0.213,0.299v0.085c0,0.028,0.014,0.085,0.043,0.17
			c0.027,0.085,0.042,0.17,0.042,0.256l0.085,0.085C74.014,114.197,74,114.29,74,114.389c0,0.1,0,0.164,0,0.191
			c0.027,0.029,0.049,0.114,0.063,0.256s0.035,0.228,0.064,0.255c-0.029,0.058-0.043,0.199-0.043,0.426
			c0,0.284,0.014,0.483,0.043,0.596c0,0.058,0.035,0.171,0.106,0.341c0.07,0.17,0.106,0.284,0.106,0.341s0,0.121,0,0.191
			c0,0.071,0.014,0.121,0.042,0.148l0.043,0.086c0,0.028,0,0.057,0,0.085c0,0.255,0.112,0.383,0.34,0.383
			c0.113,0,0.213-0.085,0.298-0.255v-0.128c0-0.369,0.028-0.581,0.086-0.639c0-0.028-0.015-0.049-0.043-0.063s-0.028-0.036,0-0.064
			c0-0.027,0.028-0.07,0.085-0.128c-0.028-0.056-0.042-0.127-0.042-0.212c0-0.143,0.057-0.299,0.17-0.469
			c0-0.028-0.021-0.043-0.063-0.043c-0.043,0-0.064-0.014-0.064-0.042c0.028-0.085,0.043-0.27,0.043-0.554v-0.17
			c0.027,0,0.042-0.007,0.042-0.021c0-0.014,0.015-0.021,0.043-0.021c-0.028-0.057-0.028-0.099,0-0.127l0.043-0.128
			c0-0.028-0.008-0.043-0.021-0.043c-0.015,0-0.021-0.014-0.021-0.042s0.014-0.078,0.043-0.149c0.027-0.07,0.042-0.148,0.042-0.234
			c0-0.057,0.021-0.127,0.064-0.213c0.042-0.085,0.063-0.142,0.063-0.17s-0.015-0.057-0.043-0.085s-0.028-0.057,0-0.085
			s0.086-0.043,0.171-0.043l0.042-0.085c0.028-0.028,0.057-0.043,0.085-0.043c0-0.227,0.213-0.396,0.639-0.511l0.213-0.127
			c0.028,0,0.078-0.007,0.149-0.021c0.07-0.014,0.12-0.035,0.148-0.064c0.397,0.058,0.624,0.128,0.682,0.213
			c0.198,0,0.396,0.071,0.596,0.213c0.085,0.029,0.185,0.143,0.298,0.341c0,0.143,0.043,0.213,0.128,0.213
			c0.057,0,0.085,0.015,0.085,0.042v0.299c0.057,0.113,0.085,0.228,0.085,0.34v0.682c0,0.028-0.021,0.057-0.063,0.085
			c-0.043,0.028-0.064,0.057-0.064,0.085c0.028,0.113,0.028,0.284,0,0.511c-0.028,0.228-0.015,0.383,0.043,0.469
			c-0.028,0.057-0.05,0.105-0.063,0.148c-0.015,0.043-0.021,0.078-0.021,0.106l0.128,0.128c-0.029,0.057-0.043,0.228-0.043,0.511
			l-0.085,0.085c0.085,0.17,0.142,0.383,0.17,0.639c0.057,0,0.128-0.021,0.213-0.064c0.085-0.042,0.17-0.063,0.256-0.063l0.34-0.17
			c0.057-0.057,0.113-0.085,0.171-0.085h0.042c0.028-0.028,0.064-0.057,0.106-0.086c0.043-0.027,0.078-0.057,0.106-0.085h0.17
			l0.213-0.128c0.028,0,0.086-0.006,0.171-0.021s0.142-0.035,0.17-0.064h0.128c0.057-0.027,0.155-0.057,0.298-0.085
			c0.142-0.028,0.24-0.07,0.298-0.128h0.128c0.227-0.112,0.354-0.17,0.383-0.17l0.085-0.043c0.085,0,0.142,0,0.171,0h0.17h0.043
			c0.027-0.027,0.056-0.042,0.085-0.042h0.127c0.028,0,0.057-0.015,0.086-0.043h0.085h0.213c0.057,0,0.142-0.014,0.255-0.042
			s0.198-0.043,0.256-0.043c0.113,0,0.198,0.028,0.255,0.085c0.057,0,0.113-0.007,0.171-0.021c0.057-0.014,0.099-0.021,0.127-0.021
			s0.078,0.021,0.149,0.063c0.07,0.043,0.135,0.078,0.191,0.106c0,0.058,0.057,0.143,0.17,0.255
			c-0.17,0.341-0.411,0.568-0.724,0.682v0.17c-0.255,0.143-0.496,0.256-0.724,0.341l-0.127,0.128
			c-0.085,0.028-0.206,0.071-0.362,0.127c-0.156,0.058-0.263,0.101-0.319,0.128c-0.057,0.028-0.135,0.064-0.233,0.106
			c-0.101,0.043-0.164,0.079-0.192,0.106c-0.057,0.028-0.113,0.063-0.17,0.106s-0.113,0.078-0.17,0.106
			c-0.028,0-0.058,0.015-0.085,0.043c-0.058,0.057-0.101,0.085-0.128,0.085c-0.028,0.028-0.093,0.063-0.191,0.106
			c-0.1,0.042-0.178,0.092-0.234,0.148l-0.043-0.042c-0.028,0-0.057,0-0.085,0l-0.128,0.17c-0.085,0.028-0.227,0.093-0.425,0.191
			c-0.199,0.1-0.355,0.149-0.469,0.149l-0.085,0.128c-0.17,0-0.298,0.057-0.383,0.17c-0.114,0.028-0.256,0.1-0.426,0.213
			l-0.043,0.085v0.085c0,0.114-0.036,0.234-0.106,0.362c-0.071,0.127-0.106,0.233-0.106,0.319c-0.057,0.17-0.071,0.283-0.042,0.34
			c-0.085,0.085-0.128,0.199-0.128,0.341c0,0.085,0.014,0.156,0.043,0.213l-0.043,0.085c-0.028,0.058-0.058,0.085-0.085,0.085
			c0,0.085,0.027,0.156,0.085,0.213c0,0.058-0.015,0.228-0.043,0.511s-0.085,0.482-0.17,0.596v0.341
			c0,0.028-0.021,0.057-0.063,0.085c-0.043,0.028-0.064,0.057-0.064,0.085s0,0.057,0,0.086l0.043,0.042
			c-0.028,0.057-0.043,0.128-0.043,0.213s0,0.142,0,0.17c-0.028,0.057-0.071,0.135-0.127,0.234c-0.058,0.1-0.086,0.163-0.086,0.191
			c0,0.085-0.028,0.156-0.085,0.213c0.085,0.227,0.043,0.354-0.128,0.384v0.127l-0.042,0.043c-0.028,0.027-0.058,0.042-0.085,0.042
			c0.057,0.113,0.042,0.171-0.043,0.171c0,0.085-0.043,0.184-0.128,0.298c-0.085,0.113-0.127,0.213-0.127,0.298
			c-0.086,0.057-0.192,0.155-0.319,0.298c-0.128,0.142-0.234,0.241-0.319,0.298c0,0.028-0.015,0.07-0.043,0.128
			c-0.057,0-0.113,0.035-0.17,0.106c-0.058,0.07-0.114,0.106-0.171,0.106c0,0.028-0.021,0.057-0.063,0.085
			c-0.042,0.028-0.078,0.07-0.106,0.128H76c-0.085,0.085-0.185,0.155-0.298,0.213c-0.028,0-0.078,0.027-0.148,0.085
			c-0.071,0.057-0.136,0.085-0.191,0.085c-0.029,0.028-0.086,0.043-0.171,0.043s-0.143,0.014-0.17,0.042
			c-0.058,0.028-0.128,0.043-0.213,0.043c-0.113,0.057-0.199,0.07-0.256,0.042c-0.028,0-0.057,0.021-0.085,0.064
			c-0.028,0.042-0.071,0.063-0.127,0.063h-0.384c-0.028,0-0.071,0.015-0.128,0.043l-0.042,0.042c-0.143,0-0.341-0.021-0.596-0.063
			c-0.256-0.043-0.454-0.063-0.597-0.063c-0.057-0.058-0.085-0.101-0.085-0.128c-0.142,0-0.241-0.015-0.298-0.043
			c-0.028,0-0.057-0.015-0.085-0.042l-0.085-0.043c-0.256-0.085-0.397-0.143-0.426-0.17h-0.17c0-0.028-0.021-0.058-0.064-0.085
			c-0.042-0.029-0.078-0.071-0.106-0.128c-0.17,0-0.27-0.085-0.298-0.256c-0.085-0.028-0.198-0.127-0.341-0.298
			c-0.142-0.17-0.255-0.27-0.34-0.298v-0.17l-0.511-0.511l0.042-0.043c0-0.028-0.021-0.085-0.063-0.17s-0.063-0.156-0.063-0.213
			c0-0.058-0.008-0.128-0.021-0.213c-0.015-0.085-0.021-0.143-0.021-0.17c0-0.029,0.014-0.101,0.043-0.213
			c0.027-0.114,0.014-0.171-0.043-0.171l0.043-0.085c0.027-0.057,0.056-0.085,0.085-0.085c0.027-0.028,0.063-0.093,0.106-0.191
			c0.042-0.1,0.092-0.178,0.148-0.234c0-0.085,0.085-0.213,0.256-0.383c0.027-0.085,0.085-0.185,0.17-0.298
			c0.085-0.114,0.142-0.199,0.17-0.256h0.043l0.085-0.042c0-0.058,0.035-0.121,0.106-0.192c0.07-0.07,0.106-0.12,0.106-0.148
			c0.028,0,0.05-0.015,0.064-0.043c0.014-0.028,0.035-0.028,0.063,0c0-0.057,0.028-0.127,0.085-0.213
			c0.057-0.085,0.085-0.142,0.085-0.17c0.028-0.028,0.057-0.043,0.085-0.043l0.043-0.042c0.057-0.085,0.163-0.213,0.319-0.383
			c0.155-0.171,0.262-0.284,0.319-0.341l0.298-0.128c0.085-0.142,0.255-0.305,0.511-0.489s0.426-0.319,0.511-0.404
			c0.028,0,0.07-0.014,0.128-0.043c0.027-0.057,0.07-0.07,0.128-0.042L74,120.454c-0.028-0.027-0.085-0.049-0.171-0.063
			c-0.085-0.015-0.142-0.05-0.17-0.106c-0.113,0.028-0.213,0.028-0.298,0c-0.058-0.028-0.185-0.078-0.383-0.149
			c-0.199-0.07-0.327-0.134-0.384-0.191c-0.113-0.027-0.255-0.099-0.425-0.213h-0.128l-0.171-0.128
			c-0.142-0.085-0.27-0.142-0.383-0.17c-0.028-0.057-0.085-0.113-0.17-0.17s-0.143-0.1-0.17-0.128
			c-0.029-0.028-0.101-0.128-0.213-0.298l-0.171-0.17c-0.028-0.028-0.05-0.086-0.063-0.171c-0.015-0.085-0.036-0.142-0.064-0.17
			l0.043-0.043v-0.042c0-0.028-0.043-0.043-0.128-0.043l0.043-0.043c0-0.027,0-0.056,0-0.085c-0.058,0-0.1-0.014-0.128-0.042
			c0-0.028,0.014-0.057,0.043-0.085V117.9c-0.029-0.028-0.05-0.07-0.064-0.128c-0.015-0.057-0.035-0.099-0.063-0.128
			c0-0.056-0.008-0.162-0.021-0.318c-0.015-0.156-0.021-0.277-0.021-0.362v-0.17c0-0.085,0.015-0.142,0.043-0.171
			c0-0.027-0.008-0.063-0.021-0.106c-0.015-0.042-0.021-0.077-0.021-0.106c0-0.112,0.021-0.29,0.064-0.531
			c0.042-0.241,0.063-0.419,0.063-0.532c0.028-0.057,0.05-0.156,0.064-0.298c0.014-0.142,0.021-0.228,0.021-0.256
			c0.028-0.057,0.064-0.134,0.106-0.234c0.043-0.099,0.064-0.162,0.064-0.191c0.057-0.34,0.184-0.694,0.383-1.063
			c0.17-0.086,0.298-0.213,0.383-0.384c0.085,0,0.185-0.057,0.298-0.17c0.028,0,0.078-0.007,0.149-0.021
			c0.07-0.014,0.134-0.007,0.191,0.021c0-0.028,0.128-0.043,0.383-0.043C72.595,112.707,72.652,112.693,72.681,112.665z
			 M74.298,122.327l-0.256,0.128c0,0.142-0.042,0.241-0.127,0.298c0-0.028-0.029-0.043-0.086-0.043
			c-0.085,0.085-0.142,0.128-0.17,0.128c-0.028,0.142-0.128,0.276-0.298,0.404s-0.284,0.234-0.341,0.319
			c-0.085,0.028-0.178,0.092-0.276,0.191c-0.1,0.1-0.178,0.163-0.234,0.191l-0.213,0.256h-0.042
			c-0.029,0.027-0.058,0.042-0.085,0.042c0,0.086-0.043,0.142-0.128,0.171c-0.028,0.085-0.1,0.184-0.213,0.298
			c0,0.085-0.036,0.184-0.106,0.298c-0.071,0.113-0.106,0.185-0.106,0.213c0.028,0.027,0.043,0.085,0.043,0.17
			c-0.058,0.057-0.086,0.198-0.086,0.426v0.128c0.028,0,0.071,0.014,0.128,0.042c0.085,0,0.191-0.021,0.319-0.063
			s0.22-0.063,0.276-0.063c0.171-0.058,0.341-0.156,0.511-0.298c0.028-0.114,0.156-0.242,0.384-0.384
			c0.227-0.142,0.34-0.313,0.34-0.511c0.057-0.057,0.113-0.148,0.171-0.276c0.057-0.128,0.112-0.221,0.17-0.276
			c0.198-0.455,0.298-0.696,0.298-0.724v-0.086c0-0.085,0.021-0.241,0.064-0.468C74.277,122.611,74.298,122.44,74.298,122.327z"/>
		<path fill="#231F20" d="M86.599,110.409c0.027,0,0.063,0.015,0.106,0.042c0.042,0.029,0.077,0.043,0.106,0.043
			c0.34,0,0.609,0.015,0.809,0.043c0.057,0.028,0.148,0.042,0.276,0.042s0.22,0.015,0.276,0.043l0.213,0.127
			c0.171,0.114,0.313,0.186,0.426,0.213h0.171c0.142,0,0.439,0.101,0.894,0.298c0.085,0.199,0.319,0.44,0.702,0.724
			c0.383,0.284,0.631,0.54,0.745,0.767c0.027,0,0.063,0.043,0.106,0.128c0.042,0.085,0.092,0.143,0.148,0.17
			c-0.028,0.028-0.042,0.071-0.042,0.128l0.042,0.128c0.028,0.085,0.028,0.156,0,0.213l0.043,0.085
			c0.028,0.057,0.043,0.1,0.043,0.127c0.027,0.029,0.042,0.058,0.042,0.086s-0.015,0.042-0.042,0.042
			c0.17,0.313,0.255,0.696,0.255,1.149c0,0.028-0.021,0.1-0.063,0.213c-0.043,0.113-0.064,0.199-0.064,0.256v0.042l0.043,0.085
			c0.085,0.171,0.227,0.256,0.426,0.256h0.128c0.142-0.113,0.375-0.22,0.702-0.319c0.325-0.1,0.56-0.191,0.702-0.276h0.298
			l0.128-0.043c0.085-0.057,0.233-0.149,0.446-0.276c0.213-0.128,0.376-0.22,0.49-0.277c0.34-0.198,0.652-0.396,0.937-0.596
			l0.468-0.255c0.283-0.228,0.567-0.397,0.852-0.511c0.057-0.028,0.142-0.057,0.255-0.086c0.113-0.027,0.213-0.07,0.298-0.127
			c0.057-0.028,0.128-0.07,0.213-0.128c0.085-0.057,0.185-0.1,0.298-0.128c0.341-0.17,0.567-0.255,0.682-0.255
			c0.17,0,0.298,0.042,0.383,0.127c0.113,0.114,0.17,0.242,0.17,0.384c0,0.028,0,0.071,0,0.127l-0.042,0.043
			c-0.085,0.228-0.241,0.426-0.469,0.596c-0.028,0.029-0.05,0.093-0.063,0.191c-0.015,0.101-0.036,0.164-0.063,0.192
			c-0.284,0.283-0.44,0.468-0.469,0.553l-0.085,0.043c-0.085,0-0.143-0.015-0.17-0.043c-0.029,0.085-0.079,0.164-0.149,0.234
			c-0.071,0.071-0.121,0.135-0.148,0.191c-0.114,0-0.213,0.043-0.299,0.128c-0.085,0.085-0.156,0.128-0.213,0.128
			c-0.057,0.113-0.185,0.233-0.383,0.361s-0.326,0.234-0.383,0.319c-0.058-0.028-0.114-0.028-0.17,0
			c-0.058,0.028-0.101,0.043-0.128,0.043c-0.028,0.085-0.1,0.185-0.213,0.298c-0.114,0.028-0.256,0.106-0.426,0.233
			c-0.17,0.128-0.326,0.206-0.468,0.234c-0.058,0.058-0.086,0.128-0.086,0.213c-0.085,0.028-0.213,0.085-0.383,0.17
			c-0.17,0.086-0.313,0.143-0.426,0.171l-0.426,0.213c-0.028,0.028-0.142,0.07-0.34,0.127c-0.199,0.058-0.327,0.128-0.384,0.213
			c-0.085,0-0.191,0.029-0.318,0.085c-0.128,0.058-0.221,0.086-0.277,0.086c-0.17,0.17-0.354,0.283-0.553,0.34
			c-0.086,0-0.213,0-0.384,0c-0.17,0-0.298,0.015-0.383,0.043h-0.426c-0.085,0.028-0.143,0.085-0.17,0.17
			c-0.058,0-0.1-0.014-0.128-0.042v-0.043c-0.058,0.028-0.255,0.256-0.596,0.681c-0.199,0.086-0.44,0.271-0.724,0.554
			c-0.284,0.284-0.525,0.483-0.724,0.596c-0.028,0.058-0.093,0.121-0.191,0.191c-0.1,0.071-0.164,0.136-0.191,0.192
			c-0.313,0.113-0.781,0.313-1.405,0.596c-0.028-0.028-0.071-0.043-0.127-0.043c-0.058,0-0.114,0-0.171,0
			c-0.057,0.058-0.163,0.085-0.319,0.085s-0.263,0.015-0.319,0.043c-0.028-0.028-0.057-0.043-0.085-0.043l-0.085-0.042
			c-0.767,0.028-1.419-0.171-1.958-0.596c-0.17-0.057-0.313-0.156-0.426-0.298c-0.028,0-0.063,0-0.106,0
			c-0.042,0-0.063-0.015-0.063-0.043s-0.028-0.057-0.085-0.085c-0.058-0.028-0.086-0.057-0.086-0.085l-0.042-0.043
			c-0.028,0-0.058,0-0.085,0c-0.029,0-0.058-0.014-0.085-0.043l-0.043-0.042c0-0.028-0.008-0.05-0.021-0.064
			c-0.015-0.014-0.036-0.021-0.063-0.021c-0.028-0.057-0.093-0.135-0.191-0.234c-0.1-0.1-0.178-0.198-0.234-0.298
			c-0.058-0.1-0.085-0.191-0.085-0.277c-0.058-0.027-0.106-0.077-0.149-0.148c-0.042-0.07-0.078-0.12-0.106-0.149
			c-0.028-0.085-0.092-0.213-0.191-0.383s-0.178-0.298-0.234-0.383c-0.283-0.142-0.425-0.383-0.425-0.724
			c-0.199-0.227-0.299-0.524-0.299-0.894v-0.086c0-0.027-0.014-0.057-0.042-0.085v-0.085l0.042-0.298v-0.17
			c0-0.057,0.015-0.1,0.043-0.128l0.043-0.085v-0.597c0-0.027,0.021-0.077,0.063-0.148c0.043-0.07,0.063-0.12,0.063-0.149
			c0.142-0.453,0.298-0.822,0.469-1.106l0.213-0.213l0.042-0.085c0.028-0.028,0.043-0.057,0.043-0.085
			c0.113-0.057,0.185-0.085,0.213-0.085c0.057-0.142,0.177-0.305,0.361-0.49c0.185-0.184,0.305-0.333,0.362-0.446
			c0.085-0.028,0.227-0.135,0.426-0.319c0.198-0.185,0.368-0.291,0.511-0.319c0.027-0.113,0.112-0.234,0.255-0.362
			c0.142-0.127,0.227-0.205,0.256-0.233c0.027-0.028,0.077-0.07,0.148-0.128c0.07-0.057,0.121-0.1,0.149-0.128
			c0.057-0.027,0.128-0.042,0.213-0.042s0.155-0.015,0.213-0.043c0.057-0.028,0.155-0.078,0.298-0.149
			c0.142-0.07,0.255-0.12,0.341-0.148h0.383c0.142,0,0.276-0.014,0.404-0.043C86.408,110.424,86.514,110.409,86.599,110.409z
			 M84.513,116.964h-0.128c-0.057,0.114-0.092,0.276-0.106,0.489s-0.035,0.362-0.063,0.447c0.028,0.028,0.057,0.085,0.085,0.17
			s0.07,0.143,0.128,0.171v0.426c0.085,0,0.198,0.085,0.341,0.255h0.894c0.085-0.113,0.27-0.227,0.553-0.341
			c0.284-0.112,0.469-0.198,0.554-0.255c0.028-0.057,0.028-0.142,0-0.256c-0.028-0.027-0.228-0.085-0.596-0.17
			c-0.085-0.085-0.143-0.128-0.17-0.128c-0.029-0.027-0.101-0.042-0.213-0.042c-0.143-0.142-0.242-0.213-0.298-0.213H85.45
			l-0.085-0.085c-0.085,0-0.143-0.015-0.171-0.043l-0.085-0.128c-0.028-0.027-0.085-0.042-0.17-0.042
			C84.683,117.049,84.542,116.964,84.513,116.964z M87.195,113.133c-0.058,0-0.143,0.029-0.256,0.085
			c-0.113,0.058-0.198,0.086-0.255,0.086c-0.058,0.028-0.114,0.071-0.17,0.127c-0.058,0.058-0.101,0.086-0.128,0.086
			c-0.114,0-0.298,0.156-0.554,0.468v0.128l-0.17,0.213c-0.114,0.17-0.228,0.27-0.341,0.298c0.028,0.057,0.078,0.135,0.149,0.234
			c0.07,0.1,0.106,0.163,0.106,0.191l0.127,0.213c0.028,0.057,0.1,0.121,0.213,0.191c0.113,0.071,0.185,0.148,0.213,0.233
			c0.228,0.058,0.397,0.143,0.511,0.256c0.369,0.113,0.624,0.228,0.767,0.341c0.057,0,0.12,0.021,0.191,0.063
			c0.07,0.043,0.12,0.063,0.149,0.063c0.027,0,0.077,0.015,0.148,0.043c0.07,0.028,0.135,0.05,0.191,0.063
			c0.057,0.015,0.113,0.021,0.171,0.021c0.085,0,0.184-0.027,0.298-0.085c0.227-0.539,0.34-0.837,0.34-0.894v-0.128
			c0.086-0.113,0.128-0.227,0.128-0.341c0-0.027-0.007-0.099-0.021-0.213c-0.015-0.112-0.021-0.198-0.021-0.255
			c0-0.028,0.006-0.085,0.021-0.171c0.015-0.085,0.021-0.155,0.021-0.212v-0.086c-0.028-0.057-0.071-0.127-0.128-0.213
			c-0.057-0.085-0.085-0.142-0.085-0.17c-0.028-0.142-0.071-0.24-0.128-0.298c-0.085-0.113-0.305-0.205-0.659-0.276
			C87.669,113.126,87.393,113.105,87.195,113.133z"/>
		<path fill="#231F20" d="M105.371,111.218c0.057,0,0.127,0.015,0.213,0.042c0.085,0.029,0.142,0.043,0.17,0.043
			s0.07-0.014,0.128-0.043l0.085,0.043l0.085,0.043c0.454,0.085,0.737,0.185,0.852,0.298c0.057,0.113,0.113,0.198,0.17,0.255
			c0.028,0.029,0.07,0.058,0.128,0.085c0.085,0.058,0.142,0.114,0.17,0.171c0.028,0.028,0.043,0.078,0.043,0.148
			c0,0.071,0.027,0.121,0.085,0.149c-0.058,0.085-0.085,0.199-0.085,0.341c0,0.085,0.021,0.228,0.063,0.425
			c0.043,0.199,0.05,0.341,0.021,0.426v0.043c-0.028,0.028-0.043,0.057-0.043,0.085s-0.007,0.1-0.021,0.213
			c-0.015,0.113-0.036,0.185-0.064,0.213l-0.085,0.085v0.17c0,0.199,0.028,0.327,0.085,0.384c0.028,0,0.015,0.028-0.042,0.085
			c0,0.028,0.014,0.05,0.042,0.063c0.028,0.015,0.028,0.036,0,0.064c-0.057,0.624-0.113,0.979-0.17,1.063
			c0.028,0.058,0.043,0.128,0.043,0.213c0,0.171-0.029,0.341-0.086,0.511c0.086,0.143,0.128,0.298,0.128,0.469
			c0,0.17-0.042,0.298-0.128,0.383c0.028,0.058,0.043,0.213,0.043,0.468c0,0.086,0.014,0.143,0.043,0.171v0.298
			c0,0.313,0.056,0.525,0.17,0.639v0.085c0,0.028,0.014,0.063,0.042,0.106c0.028,0.042,0.057,0.085,0.086,0.128
			c0.027,0.042,0.057,0.092,0.085,0.148c0.085,0.028,0.213,0.043,0.383,0.043c0.227,0,0.546-0.07,0.958-0.213
			c0.411-0.142,0.716-0.227,0.915-0.256c0.085-0.085,0.255-0.177,0.511-0.276c0.255-0.099,0.426-0.191,0.511-0.276
			c0.17-0.028,0.397-0.135,0.681-0.319s0.482-0.305,0.597-0.362l0.17-0.085c0.085-0.057,0.198-0.155,0.341-0.298
			c0.085,0,0.198-0.035,0.34-0.106c0.142-0.07,0.27-0.12,0.384-0.148c0.027-0.028,0.07-0.057,0.127-0.086
			c0.057-0.027,0.121-0.063,0.191-0.106c0.071-0.042,0.135-0.077,0.192-0.106l0.255-0.127c0.198-0.086,0.511-0.156,0.937-0.213
			c0.113-0.057,0.185-0.085,0.213-0.085c0.057-0.028,0.155-0.043,0.298-0.043c0.454,0,0.681,0.228,0.681,0.681
			c0,0.341-0.17,0.554-0.511,0.639c-0.028,0-0.035,0.021-0.021,0.064c0.014,0.042,0.021,0.078,0.021,0.105
			c-0.369,0.369-0.596,0.568-0.681,0.597c-0.028,0.028-0.085,0.1-0.17,0.213c-0.086,0.113-0.171,0.17-0.256,0.17
			c-0.028,0.113-0.085,0.206-0.17,0.276c-0.085,0.071-0.206,0.136-0.362,0.191c-0.156,0.058-0.263,0.101-0.319,0.128
			c0,0.058-0.1,0.213-0.298,0.469c-0.142,0-0.298,0.113-0.468,0.34c-0.143,0.029-0.256,0.114-0.341,0.256
			c-0.028,0-0.156,0.071-0.383,0.213c-0.085,0-0.156,0.028-0.213,0.085c-0.058,0.058-0.113,0.085-0.17,0.085
			c-0.058,0.058-0.143,0.128-0.256,0.213s-0.199,0.156-0.255,0.213h-0.171c-0.057,0.058-0.228,0.199-0.511,0.426
			c-0.198,0.028-0.397,0.128-0.596,0.298c-0.199,0.17-0.369,0.27-0.511,0.298l-0.17,0.085c-0.341,0.058-0.568,0.114-0.682,0.171
			h-0.17c-0.058,0-0.1,0.027-0.128,0.085c-0.028,0.027-0.057,0.042-0.085,0.042c-0.114,0-0.241,0-0.383,0
			c-0.143,0-0.256,0.015-0.341,0.043c0-0.028-0.036-0.05-0.106-0.063c-0.071-0.015-0.106-0.036-0.106-0.064
			c-0.284-0.057-0.44-0.142-0.468-0.255c-0.086,0-0.128,0.015-0.128,0.042c-0.228-0.085-0.341-0.142-0.341-0.17
			c-0.17-0.028-0.348-0.12-0.532-0.276s-0.334-0.248-0.446-0.277c0-0.027-0.015-0.057-0.043-0.085s-0.028-0.057,0-0.085
			c-0.113-0.028-0.228-0.106-0.341-0.234s-0.198-0.205-0.255-0.234c-0.058-0.056-0.085-0.127-0.085-0.212
			c-0.114-0.028-0.213-0.113-0.298-0.256c-0.086-0.142-0.143-0.227-0.171-0.255l-0.298,0.127c0,0.199-0.113,0.327-0.341,0.384
			c-0.028,0.028-0.028,0.057,0,0.085s0.043,0.057,0.043,0.085c-0.085,0.113-0.213,0.213-0.383,0.298c0,0.058-0.029,0.113-0.085,0.17
			c-0.058,0.058-0.086,0.114-0.086,0.171h-0.085c-0.085,0-0.178,0.021-0.276,0.063c-0.1,0.043-0.164,0.063-0.191,0.063
			c-0.568,0.483-1.149,0.682-1.745,0.597c-0.029,0.028-0.093,0.05-0.191,0.063c-0.101,0.015-0.164,0.021-0.192,0.021
			c-0.085,0-0.198-0.035-0.34-0.106c-0.143-0.07-0.256-0.106-0.341-0.106l-0.426,0.042c-0.113,0-0.198-0.014-0.255-0.042
			c-0.029-0.028-0.079-0.063-0.149-0.106c-0.071-0.043-0.121-0.078-0.148-0.106c-0.114-0.028-0.355-0.17-0.724-0.426
			c-0.398-0.283-0.81-0.695-1.234-1.234c-0.029-0.057-0.071-0.113-0.128-0.17c-0.058-0.057-0.106-0.113-0.149-0.171
			c-0.042-0.056-0.063-0.127-0.063-0.213l-0.17-0.127c-0.029-0.057-0.086-0.135-0.171-0.234c-0.085-0.099-0.148-0.198-0.191-0.298
			s-0.063-0.206-0.063-0.319v-0.128c-0.143-0.142-0.213-0.34-0.213-0.596c0-0.085-0.021-0.191-0.064-0.319
			c-0.042-0.128-0.063-0.22-0.063-0.276c0-0.085,0.043-0.171,0.128-0.256c-0.058,0-0.085-0.057-0.085-0.17
			c0.056-0.113,0.099-0.17,0.127-0.17c-0.085-0.086-0.127-0.171-0.127-0.256c0-0.057,0.07-0.227,0.213-0.511
			c0.027-0.057,0.027-0.099,0-0.128c-0.029-0.027-0.043-0.057-0.043-0.085c0.028-0.113,0.078-0.276,0.148-0.489
			c0.071-0.213,0.121-0.362,0.149-0.447s0.078-0.191,0.149-0.319c0.07-0.127,0.12-0.205,0.148-0.233v-0.128
			c0-0.227,0.07-0.383,0.213-0.469c0.057-0.312,0.227-0.553,0.511-0.724v-0.213c0.085,0,0.198-0.155,0.341-0.468
			c0.142-0.198,0.213-0.326,0.213-0.383l0.17-0.043c0.028-0.142,0.12-0.298,0.276-0.468c0.156-0.171,0.248-0.313,0.277-0.426h0.085
			c0.057,0,0.142-0.021,0.255-0.064c0.113-0.042,0.198-0.063,0.256-0.063h0.128c0.027,0,0.085,0,0.17,0s0.17,0,0.256,0
			c0.085,0,0.155,0,0.212,0l0.086,0.043c0.085,0.028,0.155,0.042,0.213,0.042c0.027,0.029,0.07,0.071,0.127,0.128l0.128,0.043
			l0.043,0.085c0.085,0,0.127,0.015,0.127,0.042c0.028,0,0.043,0.029,0.043,0.086s0.014,0.085,0.043,0.085
			c0.027,0.057,0.07,0.106,0.127,0.148c0.057,0.043,0.086,0.079,0.086,0.106c0,0.397,0.07,0.653,0.212,0.767
			c-0.028,0.028-0.028,0.1,0,0.213s0.043,0.185,0.043,0.213s-0.015,0.057-0.043,0.085c0.028,0.028,0.071,0.071,0.128,0.128
			l0.043,0.085c0.057,0.426,0.128,0.667,0.213,0.724v0.085c-0.029,0.028-0.043,0.057-0.043,0.085c0,0.256-0.015,0.397-0.042,0.426
			c0,0.028,0.006,0.1,0.021,0.213s0.035,0.185,0.064,0.213c-0.143,0.34-0.213,0.596-0.213,0.766l0.042,0.086c0,0.057,0,0.1,0,0.127
			c-0.028,0.029-0.113,0.213-0.255,0.554c-0.058,0.057-0.114,0.085-0.17,0.085c0,0.058,0.014,0.128,0.042,0.213
			c0.113,0.085,0.17,0.213,0.17,0.383c0,0.171-0.042,0.327-0.127,0.469c0.085,0.17,0.127,0.525,0.127,1.063
			c0.057-0.027,0.121-0.092,0.192-0.191c0.07-0.099,0.134-0.163,0.191-0.191c0-0.17,0.057-0.298,0.17-0.383
			c-0.028-0.028-0.028-0.057,0-0.085l0.043-0.043c0.057-0.028,0.106-0.099,0.148-0.213c0.043-0.113,0.106-0.198,0.191-0.255
			c0-0.086,0.043-0.178,0.128-0.277c0.085-0.099,0.128-0.177,0.128-0.233c0.057-0.028,0.113-0.092,0.17-0.192
			c0.057-0.099,0.113-0.177,0.171-0.233h-0.043l-0.043-0.043c0-0.027,0.043-0.042,0.128-0.042c0.171-0.397,0.27-0.709,0.298-0.937
			c0.113-0.113,0.156-0.228,0.128-0.341c0.057,0,0.113-0.043,0.17-0.128c0.028-0.057,0.015-0.099-0.042-0.128l-0.043-0.127v-0.085
			c0-0.198,0.043-0.313,0.128-0.341c-0.028-0.028-0.043-0.085-0.043-0.171c0-0.085,0.021-0.212,0.064-0.383
			c0.042-0.17,0.063-0.283,0.063-0.341v-0.085c0.028-0.027,0.064-0.07,0.106-0.127c0.043-0.057,0.092-0.128,0.149-0.213
			c0.057-0.086,0.099-0.142,0.127-0.171c-0.028-0.057-0.042-0.127-0.042-0.213c0-0.17,0.07-0.298,0.213-0.383
			c-0.029-0.057-0.043-0.142-0.043-0.255c0-0.228,0.085-0.454,0.256-0.682c0.057-0.027,0.112-0.014,0.17,0.043l0.128,0.085
			c0.027,0,0.035-0.028,0.021-0.085c-0.015-0.057-0.008-0.085,0.021-0.085c0.057-0.028,0.156-0.028,0.299,0
			c0.227-0.171,0.354-0.256,0.383-0.256c0.027,0,0.063-0.014,0.106-0.043C105.306,111.232,105.341,111.218,105.371,111.218z"/>
	</g>
	<g>
		<path fill="#231F20" d="M112.766,106.527c-1.001,0-2.042-0.17-3.084-0.523c-0.356-0.121-0.547-0.508-0.427-0.864
			c0.121-0.356,0.505-0.548,0.864-0.427c3.308,1.123,6.569,0.093,8.118-2.559c1.767-3.021,1.315-8.327-4.873-14.49
			c-0.626,0.126-1.223,0.208-1.766,0.243c-4.259,0.28-6.254-1.041-6.701-2.371c-0.288-0.858,0.041-1.751,0.838-2.275
			c1.289-0.846,3.942-0.801,7.188,2.113c0.297,0.267,0.584,0.532,0.861,0.797c2.897-0.728,6.318-2.454,7.485-5.102
			c0.851-1.931,0.333-4.097-1.54-6.438c-0.235-0.294-0.188-0.723,0.106-0.958c0.293-0.235,0.723-0.187,0.958,0.106
			c2.76,3.449,2.461,6.166,1.724,7.839c-1.258,2.854-4.568,4.743-7.623,5.661c6.186,6.478,6.487,12.198,4.519,15.562
			C118.028,105.213,115.546,106.527,112.766,106.527z M107.52,84.151c-0.473,0-0.823,0.11-1.035,0.249
			c-0.198,0.13-0.41,0.358-0.294,0.703c0.203,0.608,1.581,1.688,5.319,1.445c0.197-0.013,0.402-0.033,0.615-0.06
			c-0.037-0.034-0.074-0.067-0.111-0.101C110.071,84.644,108.521,84.151,107.52,84.151z"/>
	</g>
	<g>
		<path fill="#BE1E2D" d="M19.386,76.315c-1.894,0-4.154-0.705-6.301-2.044C8.604,71.476,6.221,67.139,6.71,62.67
			c0.139-1.271,0.829-2.714,1.828-4.004c-0.618-1-1.073-2.073-1.31-3.044c-1.693-6.933,4.078-12.744,5.887-14.36
			c6.979-6.244,14.371-8.444,21.971-6.542c1.982,0.497,11.417,4.321,10.704,8.041c-0.071,0.37-0.429,0.61-0.797,0.541
			c-0.37-0.071-0.612-0.428-0.541-0.797c0.402-2.099-6.838-5.745-9.697-6.462c-7.136-1.786-14.109,0.311-20.732,6.236
			c-1.666,1.488-6.984,6.825-5.472,13.021c0.18,0.736,0.502,1.533,0.928,2.291c1.53-1.552,3.469-2.673,5.277-2.608
			c1.873,0.066,3.179,0.873,3.583,2.215c0.433,1.438-0.338,3.118-1.965,4.28c-1.281,0.914-2.695,1.123-4.092,0.604
			c-1.099-0.408-2.098-1.241-2.922-2.254c-0.708,0.997-1.195,2.064-1.297,2.992c-0.639,5.833,4.233,9.355,5.741,10.296
			c2.899,1.808,6.049,2.359,7.658,1.34c0.84-0.532,1.212-1.482,1.106-2.825c-0.759-0.662-1.825-0.944-2.965-0.776
			c-1.285,0.19-2.438,0.927-2.939,1.877c-0.176,0.332-0.589,0.46-0.92,0.285c-0.333-0.175-0.46-0.587-0.285-0.92
			c0.707-1.341,2.219-2.333,3.945-2.589c1.664-0.246,3.229,0.237,4.303,1.325c0.107,0.108,0.174,0.249,0.192,0.4
			c0.295,2.536-0.766,3.779-1.707,4.375C21.439,76.083,20.473,76.315,19.386,76.315z M10.24,58.749
			c0.717,0.94,1.589,1.709,2.517,2.054c0.98,0.364,1.905,0.221,2.826-0.436c1.126-0.805,1.71-1.921,1.452-2.778
			c-0.226-0.748-1.073-1.202-2.326-1.246C13.228,56.302,11.547,57.345,10.24,58.749z"/>
	</g>
	<g>
		<g>
			<g>
				<path fill="#BE1E2D" d="M71.918,53.452c5.45,7.739,15.988,8.552,9.486-5.027c-1.836-3.832-7.484-8.344-8.059-11.895
					c-0.845-5.211,1.221-8.036,4.411-9.894c7.611-4.436-16.269-19.538-21.665-12.828c-3.506,4.354-4.729,17.804-5.661,19.654
					c-1.162,2.316-4.106,3.482-4.937,5.906c-1.71,4.993,3.229,13.729,7.3,17.005c5.993,4.824,11.312,1.247,16.475-2.922H71.918z"/>
				<path fill="#231F20" d="M80.346,59.693C80.346,59.693,80.346,59.693,80.346,59.693c-2.83,0-6.321-2.222-8.777-5.56h-2.06
					c-3.323,2.672-6.891,5.236-10.795,5.236c-2.21,0-4.287-0.807-6.347-2.465c-4.293-3.454-9.341-12.431-7.517-17.756
					c0.501-1.464,1.638-2.48,2.737-3.462c0.901-0.805,1.752-1.566,2.235-2.529c0.253-0.503,0.607-2.418,0.982-4.446
					c0.9-4.869,2.26-12.228,4.757-15.33c1.039-1.292,2.675-1.947,4.862-1.947c6.943,0,17.977,6.762,19.354,11.861
					c0.444,1.645-0.151,3.041-1.677,3.93c-3.521,2.05-4.78,4.886-4.082,9.196c0.296,1.832,2.236,4.13,4.112,6.353
					c1.503,1.782,3.058,3.624,3.888,5.356c2.188,4.568,2.692,8.017,1.459,9.974C82.833,59.129,81.72,59.693,80.346,59.693z
					 M69.028,52.771h3.244l0.204,0.289c2.55,3.621,5.867,5.27,7.87,5.271h0c0.915,0,1.581-0.32,1.979-0.952
					c0.554-0.879,1.091-3.174-1.535-8.659c-0.755-1.576-2.252-3.35-3.701-5.066c-2.087-2.473-4.059-4.81-4.416-7.014
					c-0.792-4.882,0.715-8.248,4.741-10.591c0.999-0.582,1.332-1.344,1.048-2.397c-1.114-4.125-11.372-10.854-18.039-10.854
					c-1.754,0-3.033,0.484-3.801,1.438c-2.282,2.834-3.604,9.989-4.479,14.723c-0.502,2.717-0.779,4.165-1.104,4.811
					c-0.599,1.194-1.587,2.078-2.544,2.933c-1.013,0.906-1.971,1.762-2.356,2.888c-1.564,4.568,3.167,13.103,7.083,16.253
					c1.809,1.456,3.605,2.164,5.493,2.164c3.534,0,6.94-2.512,10.126-5.085L69.028,52.771z"/>
			</g>
			<path fill="#77111A" d="M83.568,17.558c3.254,5.354-3.253,5.552-6.798,7.389c-2.077,1.075-5.922,4.448-5.922,8.028
				c0.002,2.129,2.152,7.191-2.855,3.071c-8.117-6.677-3.785-10.866-3.365-12.639C66.979,13.504,80.11,11.858,83.568,17.558z"/>
			<path fill="#77111A" d="M66.413,52.238c0,0-14.36-6.527-14.353-13.543c0.002-7.015-3.778-0.934-5.249,2.033
				c-1.467,2.968,5.141,19.69,16.727,14.329C64.179,54.761,66.413,52.238,66.413,52.238z"/>
			<g>
				<path fill="#BE1E2D" d="M75.188,23.62c3.58,1.125,10.297,12.237,14.557,10.896c9.009-2.845,0.926-14.569-3.994-20.979
					c-6.152-8.013-27.945-12.079-31.982,5.209c-0.404,1.737,8.406-1.719,7.408,4.507C60.782,26.891,63.115,19.827,75.188,23.62z"/>
				<path fill="#231F20" d="M88.997,35.31c-2.736,0-5.824-3.284-8.81-6.46c-1.932-2.055-3.93-4.179-5.203-4.58
					c-2.377-0.747-4.579-1.125-6.544-1.125c-3.099,0-4.933,0.944-5.918,1.451c-0.486,0.25-0.807,0.415-1.143,0.415h0
					c-0.258,0-0.492-0.102-0.658-0.287c-0.293-0.328-0.305-0.777-0.222-1.544c0.168-1.059,0.042-1.823-0.37-2.307
					c-0.682-0.8-2.173-0.902-3.396-0.902c-0.294,0-0.582,0.006-0.854,0.011c-0.255,0.005-0.498,0.01-0.723,0.01
					c-0.768,0-1.489-0.04-1.87-0.519c-0.193-0.243-0.257-0.556-0.182-0.881c1.874-8.023,7.822-12.624,16.321-12.624
					c6.696,0,13.631,2.942,16.866,7.154c4.156,5.415,9.497,13.194,7.914,18.219c-0.576,1.828-2.007,3.115-4.255,3.825
					C89.646,35.262,89.326,35.31,88.997,35.31z M68.44,21.782c2.104,0,4.442,0.4,6.952,1.188c1.614,0.507,3.548,2.564,5.788,4.946
					c2.897,3.081,6.269,6.609,8.36,5.951c1.824-0.576,2.925-1.536,3.366-2.935c1.553-4.93-5.408-14-7.696-16.98
					c-2.946-3.837-9.584-6.622-15.785-6.622c-7.705,0-13.127,4.103-14.921,11.272c0.226,0.024,0.745,0.029,1.346,0.017
					c1.776-0.035,4.083-0.077,5.316,1.37c0.684,0.801,0.913,1.936,0.683,3.372c-0.002,0.018-0.004,0.035-0.005,0.051
					c0.018-0.009,0.036-0.019,0.054-0.028C62.986,22.824,65.011,21.782,68.44,21.782z"/>
			</g>
			<path fill="#BE1E2D" d="M59.503,25.118c0,0-2.249-6.514-2.69-1.221c-0.244,2.976-3.277-0.589-3.342-1.507
				c-0.104-1.453,1.646-5.603,1.646-5.603s9.213,1.641,6.797,6.541C60.373,24,59.503,25.118,59.503,25.118z"/>
			<path fill="#77111A" d="M80.218,24.823c0,0-6.95-6.084-14.261-4.439c-4.043,0.907-5.363-1.71-3.186-3.195
				c2.173-1.485,16.916-1.071,21.547,3.382c3.352,3.226,2.766,4.844,1.295,6.414C84.03,28.678,81.769,26.433,80.218,24.823z"/>
			<g>
				<defs>
					<path id="SVGID_3_" d="M74.881,23.2c3.356,1.056,9.655,11.495,13.65,10.232c8.453-2.673,0.871-13.684-3.742-19.702
						c-5.768-7.524-26.213-11.343-30.002,4.896c-0.379,1.629,7.887-1.616,6.952,4.229C61.369,26.274,63.557,19.641,74.881,23.2z"/>
				</defs>
				<clipPath id="SVGID_2_">
					<use xlink:href="#SVGID_3_"  overflow="visible"/>
				</clipPath>
				<g clip-path="url(#SVGID_2_)">
					<path fill="#FFFFFF" d="M81.317,13.023c0.484-1.951,1.806-6.248-0.994-5.293c-0.946,0.371-2.226,1.461-2.979,1.62
						c-0.968,0.21-0.728-1.993-0.96-3.373c-0.411-2.43-0.606-2.597-2.083-0.903c-0.646,0.694-2.002,2.791-2.644,2.731
						c-0.607-0.062-1.615-2.282-2.241-3.047c-1.076-1.43-1.699-2.609-2.671-0.13c-0.637,1.706-0.359,3.567-1.963,2.693
						c-1.056-0.525-2.059-1.48-3.146-2.097c-0.685-0.345-1.158,3.326-0.948,4.183c0.224,1.043,1.025,1.972,1.562,0.591
						c0.576-1.354-0.174-2.442,1.794-1.235c0.868,0.507,2.37,1.861,2.942,1.35c0.523-0.5,0.946-3.939,1.42-3.451
						c1.571,1.907,2.718,5.007,4.241,2.769c0.607-0.849,1.563-2,1.864-1.495c0.45,0.755,0.708,2.491,0.917,3.433
						c0.382,1.662,0.259,2.287,1.493,1.484c0.69-0.428,1.394-1.263,2.25-1.653c1.519-0.617,0.539,1.905,0.155,3.366
						c-0.148,0.751-0.267,2.123,1.032,0.44C80.805,14.443,81.229,13.597,81.317,13.023z"/>
					<path fill="#FFFFFF" d="M78.181,14.507c0.444,0.253-0.292,2.102-0.958,2.438c-0.78,0.466-0.021-2.352,0.895-2.465
						C78.139,14.489,78.16,14.498,78.181,14.507z"/>
					<path fill="#FFFFFF" d="M73.223,11.602c1.038-0.911,1.042,2.056,0.363,2.394C73.006,14.316,72.688,12.405,73.223,11.602z"/>
					<path fill="#FFFFFF" d="M68.98,10.129c1.038,0.233,1.085,2.706,0.274,2.466C68.453,12.416,67.92,10.082,68.98,10.129z"/>
					<path fill="#FFFFFF" d="M64.049,10.51c0.958-0.166,1.568,1.488,0.901,1.683C64.118,12.486,63.145,10.893,64.049,10.51z"/>
					<path fill="#FFFFFF" d="M65.485,2.145c1.294,0.969-0.118,3.207-1.091,2.391C63.264,3.774,64.145,1.505,65.485,2.145z"/>
					<path fill="#FFFFFF" d="M73.101,2.265c0.39,1.42-0.941,2.236-1.373,1.538C70.738,1.806,72.814,1.253,73.101,2.265z"/>
					<path fill="#FFFFFF" d="M79.123,4.778c1.117-0.51,1.022,1.485,0.152,1.922C78.156,7.356,78.687,4.938,79.123,4.778z"/>
				</g>
			</g>
		</g>
		<g>
			<g>
				<path fill="#BE1E2D" d="M95.346,61.608c-10.352,2.203-17.621-4.278-3.723-10.069c3.924-1.636,11.141-1.235,13.936-3.499
					c4.1-3.321,4.219-6.089,3.307-10.313c-1.865-8.613,25.146-3.727,24.7,4.872c-0.29,5.583-8.339,16.426-8.879,18.428
					c-0.679,2.5,0.74,5.333-0.253,7.693c-2.055,4.861-11.561,8.085-16.778,7.813c-7.685-0.397-9.265-6.61-10.335-13.158
					L95.346,61.608z"/>
				<path fill="#231F20" d="M108.289,77.23c-0.229,0-0.452-0.005-0.668-0.017c-8.027-0.415-9.832-6.857-10.933-13.491l-1.541-1.378
					c-1.304,0.256-2.592,0.386-3.834,0.386c-4.302,0-7.511-1.594-7.985-3.965c-0.311-1.554,0.32-4.641,8.034-7.855
					c1.775-0.74,4.164-1.078,6.474-1.405c2.878-0.407,5.854-0.828,7.295-1.995c3.751-3.039,3.979-5.43,3.069-9.641
					c-0.262-1.209-0.036-2.3,0.654-3.155c1.455-1.803,4.545-2.182,6.882-2.182c5.485,0,13.233,2.184,16.704,5.84
					c1.275,1.343,1.883,2.777,1.806,4.261c-0.207,3.978-4.096,10.37-6.67,14.601c-1.072,1.762-2.084,3.426-2.231,3.969
					c-0.283,1.041-0.155,2.176-0.019,3.378c0.165,1.464,0.335,2.978-0.264,4.402C122.934,74.019,113.707,77.23,108.289,77.23z
					 M95.542,60.87l2.412,2.158l0.039,0.237c1.09,6.669,2.572,12.219,9.698,12.588c4.839,0.244,14.153-2.756,16.116-7.398
					c0.46-1.095,0.317-2.37,0.165-3.72c-0.144-1.276-0.292-2.596,0.058-3.887c0.188-0.697,0.946-1.961,2.382-4.322
					c2.503-4.113,6.285-10.329,6.474-13.962c0.057-1.096-0.426-2.19-1.434-3.252c-3.218-3.39-10.518-5.416-15.716-5.416
					c-2.841,0-4.963,0.61-5.822,1.675c-0.434,0.538-0.559,1.196-0.382,2.012c0.989,4.582,0.712,7.539-3.544,10.987
					c-1.734,1.405-4.759,1.833-7.962,2.286c-2.225,0.314-4.525,0.64-6.14,1.313c-4.906,2.044-7.606,4.411-7.223,6.33
					c0.338,1.69,3.072,2.87,6.649,2.87c1.255,0,2.565-0.143,3.892-0.426L95.542,60.87z"/>
			</g>
			<path fill="#77111A" d="M111.772,27.134c-6.973,2.253-3.224,5.053-1.572,9.666c0.969,2.704,1.041,7.126-1.734,10.424
				c-1.65,1.961-2.391,5.728,5.066,3.955c4.319-1.027,5.771-4.175,6.783-6.156C125.951,33.959,119.187,24.733,111.772,27.134z"/>
			<path fill="#77111A" d="M100.26,64.374c0,0,15.053,4.702,19.725-0.532c4.674-5.232,3.441,1.82,2.559,5.011
				c-0.885,3.192-16.957,11.258-22.02-0.461C100.245,67.74,100.26,64.374,100.26,64.374z"/>
			<g>
				<path fill="#BE1E2D" d="M112.789,37.187c-3.419-1.545-15.832,2.265-18.114-1.577c-4.822-8.123,9.02-11.478,16.957-12.978
					c9.928-1.875,28.888,9.617,20.375,25.197c-0.854,1.564-5.121-6.885-8.525-1.575C121.348,49.228,124.319,42.405,112.789,37.187z"
					/>
				<path fill="#231F20" d="M131.708,48.707c-0.634,0-1.215-0.542-2.096-1.362c-0.989-0.921-2.344-2.184-3.54-2.184
					c-0.728,0-1.387,0.478-2.018,1.461c-0.43,0.6-0.785,1.037-1.31,1.037c-0.664,0-0.895-0.604-1.163-1.302
					c-0.616-1.608-2.059-5.375-9.074-8.55c-0.484-0.218-1.307-0.329-2.447-0.329c-1.293,0-2.841,0.135-4.479,0.277
					c-1.788,0.156-3.636,0.316-5.33,0.316c-2.106,0-5.038-0.219-6.164-2.114c-1.203-2.027-1.413-3.94-0.625-5.687
					c2.168-4.801,11.334-7.042,18.041-8.309c0.746-0.141,1.552-0.212,2.396-0.212c6.025,0,14.653,3.751,18.776,10.702
					c2.021,3.406,3.647,8.895-0.073,15.704C132.413,48.506,132.087,48.707,131.708,48.707
					C131.708,48.707,131.708,48.707,131.708,48.707z M126.072,43.798c1.732,0,3.314,1.474,4.469,2.55
					c0.324,0.302,0.74,0.689,1.012,0.884c2.557-4.854,2.542-9.718-0.048-14.084c-3.726-6.281-11.877-10.035-17.604-10.035
					c-0.759,0-1.479,0.063-2.143,0.188c-3.691,0.698-14.925,2.821-17.052,7.53c-0.603,1.336-0.422,2.785,0.555,4.43
					c0.579,0.974,2.211,1.448,4.992,1.447c1.635,0,3.453-0.158,5.211-0.311c1.668-0.146,3.245-0.283,4.598-0.283
					c1.372,0,2.328,0.143,3.008,0.45c7.526,3.407,9.109,7.54,9.785,9.304c0.007,0.019,0.015,0.038,0.022,0.058
					c0.016-0.022,0.033-0.046,0.051-0.07C123.796,44.5,124.86,43.798,126.072,43.798z"/>
			</g>
			<path fill="#BE1E2D" d="M123.486,48.759c0,0,6.017-3.358,2.817,0.88c-1.801,2.383,2.838,1.746,3.496,1.107
				c1.047-1.017,2.507-5.277,2.507-5.277s-7.964-4.918-9.427,0.35C123.581,47.343,123.486,48.759,123.486,48.759z"/>
			<path fill="#77111A" d="M103.667,34.317c0,0,8.994-2.09,14.667,2.806c3.138,2.706,5.536,1.019,4.319-1.316
				c-1.218-2.335-14.417-8.92-20.6-7.174c-4.477,1.267-4.724,2.969-4.166,5.044C98.488,35.918,101.54,35.004,103.667,34.317z"/>
			<g>
				<defs>
					<path id="SVGID_5_" d="M113.297,37.08c-3.207-1.451-14.861,2.133-16.995-1.469c-4.522-7.624,8.467-10.782,15.919-12.196
						c9.314-1.768,27.102,9.012,19.105,23.646c-0.804,1.47-4.803-6.462-8.002-1.478C121.325,48.377,124.114,41.972,113.297,37.08z"
						/>
				</defs>
				<clipPath id="SVGID_4_">
					<use xlink:href="#SVGID_5_"  overflow="visible"/>
				</clipPath>
				<g clip-path="url(#SVGID_4_)">
					<path fill="#FFFFFF" d="M111.136,23.836c1.584-2.13,4.534-6.156,5.831-3.505c0.428,0.909,0.767,2.501,1.39,3.167
						c0.771,0.869,1.934-0.656,3.046-1.317c1.949-1.137,2.129-1.106,2.087,1.089c-0.015,0.914-0.11,3.437,0.394,3.978
						c0.448,0.49,2.15-0.34,2.933-0.442c1.402-0.238,2.395-0.697,1.596,1.675c-0.55,1.616-1.52,3.218-0.283,3.297
						c0.797,0.061,1.825-0.351,2.786-0.415c0.564-0.057-1.12,2.79-1.667,3.668c-0.674,0.932-1.54,1.924-1.121,0.313
						c0.384-1.585,1.275-2.216-0.298-1.876c-0.687,0.144-1.931,0.604-2.029-0.402c-0.132-1.012,1.127-4.223,0.665-4.107
						c-1.8,0.47-3.744,1.628-4.052-1.438c-0.109-1.152-0.219-2.689-0.737-2.614c-0.781,0.106-1.963,0.966-2.689,1.345
						c-1.299,0.684-1.584,1.078-2.532-0.307c-0.54-0.747-0.714-1.731-1.284-2.522c-1.027-1.356-2.254,1.085-3.202,2.449
						c-0.479,0.607-2.055,2.16-1.886,0.244C110.145,25.446,110.622,24.422,111.136,23.836z"/>
					<path fill="#FFFFFF" d="M113.591,26.241c-0.813-0.01-1.591,1.701-0.731,2.096c0.981,0.592,1.941-1.507,0.84-2.082
						C113.664,26.25,113.627,26.246,113.591,26.241z"/>
					<path fill="#FFFFFF" d="M120.996,28.45c-0.534-1.574-1.955,0.248-1.308,1.163C120.213,30.492,121.135,29.542,120.996,28.45z"/>
					<path fill="#FFFFFF" d="M124.688,31.438c-0.756-0.736-1.57,1.321-0.95,2.049C124.238,34.179,125.297,32.263,124.688,31.438z"/>
					<path fill="#FFFFFF" d="M127.039,35.287c-0.389-0.641-1.3,0.826-1.098,1.553C126.123,37.691,127.268,36.025,127.039,35.287z"/>
					<path fill="#FFFFFF" d="M130.486,27.479c-1.297-0.151-1.7,2.357-0.733,2.227C130.77,29.637,131.592,27.806,130.486,27.479z"/>
					<path fill="#FFFFFF" d="M126.024,22.469c-1.166,0.556-0.756,2.118-0.086,1.989C127.697,23.897,126.863,22.101,126.024,22.469z"
						/>
					<path fill="#FFFFFF" d="M120.261,19.354c-0.346-1.159-1.957,0.151-1.621,1.067C119.026,21.652,120.417,19.781,120.261,19.354z"
						/>
				</g>
			</g>
		</g>
	</g>
</g>
</svg>
