<?xml version="1.0" encoding="utf-8"?>
<!-- Generator: Adobe Illustrator 16.0.0, SVG Export Plug-In . SVG Version: 6.00 Build 0)  -->
<!DOCTYPE svg PUBLIC "-//W3C//DTD SVG 1.1//EN" "http://www.w3.org/Graphics/SVG/1.1/DTD/svg11.dtd">
<svg version="1.1" id="Layer_1" xmlns="http://www.w3.org/2000/svg" xmlns:xlink="http://www.w3.org/1999/xlink" x="0px" y="0px"
	 width="96.993px" height="99.129px" viewBox="0 0 96.993 99.129" enable-background="new 0 0 96.993 99.129" xml:space="preserve">
<path fill="#998282" d="M98.17,30.312c0-5.084-0.887-8.759-2.227-11.385c0.637-1.986,1.227-4.355,1.227-7.212v-0.134
	c0-7.539-5.498-9.753-8.607-9.872c-0.1-0.004-0.738-0.018-0.738-0.018c-0.35-0.013-0.76-0.022-0.941-0.022
	c-0.723,0-1.435,0.065-2.074,0.188c-1.021-0.288-2.229-0.456-3.619-0.456c-1.263,0-2.452,0.486-3.521,0.908
	c-0.083-0.003-0.172,0.233-0.256,0.233h-2.161c-0.812,0-1.602,0.1-2.353,0.32c-0.731-0.198-1.505-0.32-2.309-0.32h-3.611
	c-0.561,0-1.107,0.025-1.639,0.133c-0.401-0.059-0.811-0.133-1.23-0.133h-2.007c-0.472,0-0.931-0.155-1.381-0.079
	c-1.535-0.736-2.952-0.896-3.729-0.971c-0.25-0.024-0.502,0.05-0.753,0.05h-2.933c-0.807,0-1.911-0.187-3.169-0.018
	c-0.486,0.065-0.964,0.082-1.429,0.238c-0.256,0.084-0.636,0.458-1.077,0.68c-2.879-1.115-5.894-0.9-8.059-0.9h-0.618
	c-1.565,0-3.094,0.2-4.388,1.08c-1.104,0.75-1.977,1.587-2.605,2.703c-2.251-2.254-5.369-3.722-8.806-3.722
	c-1.638,0-3.396,0.253-4.792,0.789C17.6,2.25,17.17,2.174,16.17,2.157v0.196c-1-0.039-4.7,0.188-5.791,0.188H9.916
	c-3.752,0-6.823,1.89-8.151,5.313c-0.68,1.751-0.595,3.107-0.595,4.161v0.301c0,3.052,1.104,5.33,2.842,6.794
	c-0.002,1.263-0.049,2.525-0.051,3.787c-0.008,2.75-0.037,5.477-0.037,8.227c0,4.654,3.729,8.417,8.339,8.417h2.067
	c1.201,0,2.333-0.24,3.354-0.708c1.234,0.525,2.655,0.898,4.286,1.024c-0.006,0.188-0.006,0.378-0.012,0.565
	c-0.017,0.563-0.021,1.132-0.034,1.696L4.911,39.383L2.076,56.996l20.063,3.229c0.024,0.455,0.073,0.953,0.187,1.501
	c0,0.016,0.001,0.029,0.002,0.045c-1.328,0.08-2.804,0.349-3.962,0.793c-0.766-0.142-1.195-0.198-2.195-0.215v0.1
	c-1-0.039-4.7,0.093-5.791,0.093H9.916c-3.752,0-6.823,1.994-8.151,5.417c-0.68,1.751-0.595,3.21-0.595,4.264v0.301
	c0,3.052,1.104,5.33,2.842,6.794c-0.002,1.263-0.049,2.525-0.051,3.787c-0.008,2.75-0.037,5.374-0.037,8.124
	c0,4.654,3.729,8.314,8.339,8.314h2.067c1.201,0,2.333-0.136,3.354-0.604c1.563,0.664,3.425,1.127,5.628,1.127
	c5.208,0,8.163-2.204,9.86-4.96c1.626,2.316,4.306,3.805,7.39,3.805c2.332,0,4.396-0.118,6.213-0.627
	c1.363,0.771,2.843,1.259,4.095,1.259h2.161c0.747,0,1.503-0.246,2.238-0.452c0.761,0.213,1.521,0.24,2.237,0.24
	c0.377,0,0.753-0.069,1.126-0.124c0.941,0.379,1.966,0.573,3.039,0.573c0.405,0,0.811-0.04,1.212-0.104l1.269-0.204
	c1.049,0.404,2.199,0.626,3.414,0.626c0.187,0,0.382-0.008,0.579-0.019c0.188,0.012,0.376,0.017,0.563,0.017
	c1.285,0,2.489-0.383,3.571-0.824c0.825,0.271,1.7,0.27,2.603,0.27h3.148c0.138,0,0.276,0.372,0.416,0.364
	c0.631,0.163,1.287,0.636,1.957,0.636h0.71c1.044,0,2.295-0.389,3.55-0.761c0.909,0.346,1.866,0.401,2.81,0.401
	c0.039,0,2.385-0.094,2.385-0.094c4.006-0.053,8.313-3.207,8.313-8.9v-0.669c0-5.084-0.887-8.759-2.227-11.385
	c0.637-1.986,1.227-4.355,1.227-7.212v-0.134c0-4.328-1.972-6.895-4.037-8.324c0.028-0.453-0.084-0.907-0.107-1.362
	c0.256-1.605,0.285-3.137,0.242-4.478c-0.012-0.547-0.098-1.015-0.098-1.37v-2.711c0-0.784-0.19-1.544-0.389-2.265
	c-0.013-0.483-0.08-1.006-0.135-1.581c-0.021-0.387-0.07-0.778-0.1-1.174c-0.036-0.504-0.082-0.979-0.082-1.332
	c0-0.72-0.049-1.366-0.094-1.945c1.787-0.522,3.338-1.672,4.359-3.252c0.898-1.389,1.323-3.015,1.238-4.642
	c0.041-0.751-0.029-1.494-0.198-2.208c-0.016-0.448,0.008-0.893-0.081-1.333c0.251-0.857,0.48-1.8,0.48-2.831V30.312z"/>
<g>
	<g>
		<g>
			<g>
				<path fill="#FFFFFF" d="M11.263,38.588c-4.61,0-8.36-3.786-8.36-8.44c0-2.75,0.008-5.5,0.016-8.25
					c0.003-1.263,0.007-2.525,0.009-3.788C1.188,16.646,0,14.368,0,11.316v-0.301C0,1.183,8.552,1.07,8.916,1.07h0.463
					c1.091,0,5.006,0.032,6.236,0.071l-0.001,0.001c0.443,0.016,1.233,0.074,2.011,0.22c3.407,0.614,6.844,3.506,6.844,8.75
					c0,0.282-0.013,0.565-0.03,0.829v0.308c0,2.721-1.098,5.122-2.861,6.749l0.021,11.834c0,4.916-3.632,8.755-8.268,8.755H11.263z"
					/>
				<path fill="#FFFFFF" d="M22.312,38.922c-7.295,0-10.923-4.332-11.904-8.43c-0.747-2.99-0.901-7.345-0.901-12.954
					c0-2.85,0.086-5.875,1.107-8.775c1.817-5.152,6.133-8.228,11.544-8.228c6.563,0,11.992,5.07,12.36,11.542
					c0.094,1.72,0.137,3.47,0.137,5.528c0,1.428-0.026,2.87-0.054,4.345c-0.015,0.755-0.039,2.377-0.039,2.377
					c0,0.163-0.005,0.325-0.016,0.488C34.328,28.305,33.663,38.922,22.312,38.922z"/>
				<path fill="#FFFFFF" d="M39.562,37.719c-4.89,0-8.771-3.697-9.028-8.6c-0.007-0.137-0.011-0.273-0.011-0.41v-0.468
					c0-1.044-0.065-5.025-0.673-19.404c-0.005-0.109-0.007-0.219-0.007-0.329c0-2.939,1.357-5.548,3.726-7.158
					C34.862,0.47,36.391,0,37.956,0h0.618c3.714,0,9.931,0,13.667,5.629c2.545,3.833,3.027,9.07,3.027,17.395
					c0,0-0.002,0.467-0.006,0.567C54.902,32.965,49.62,37.719,39.562,37.719z"/>
				<path fill="#FFFFFF" d="M56.506,38.053c-0.716,0-1.477-0.098-2.237-0.311c-0.735,0.206-1.491,0.311-2.238,0.311h-2.161
					c-3.36,0-8.36-2.435-8.36-9.143c0-0.053,0.403-20.025,0.403-20.025c0.003-0.167,0.012-0.335,0.026-0.502
					c0.466-5.53,4.535-7.303,5.771-7.715c0.465-0.155,0.942-0.266,1.429-0.331c1.258-0.169,2.362-0.169,3.169-0.169h2.933
					c0.251,0,0.503,0.012,0.753,0.037c2.173,0.21,9.327,1.684,10.173,11.799c0.019,0.216,0.027,0.433,0.027,0.65
					c0,2.945-0.055,5.082-0.157,6.179c-0.028,0.305-0.075,0.608-0.139,0.908c-0.184,0.857-0.44,1.621-0.739,2.298
					c0.902,2.783,1.345,5.251,1.345,7.472c0,1.238-0.424,7.464-8.794,8.45c0.013-0.002,0.104-0.019,0.172-0.031
					C57.427,38.012,56.967,38.053,56.506,38.053z"/>
				<path fill="#FFFFFF" d="M60.671,38.555c-4.442,0-8.078-3.567-8.261-8.022c-0.112-1.943-0.161-3.515-0.161-5.234
					c0-2.483,0.097-5.379,0.254-9.246l0.062-1.378c0.075-1.672,0.159-3.523,0.279-5.618c0.187-4.397,3.819-7.918,8.26-7.918h2.007
					c4.653,0,8.298,3.751,8.298,8.54c0,0.056-0.433,20.05-0.433,20.05c-0.051,4.363-3.001,7.809-7.224,8.438l-1.869,0.293
					C61.481,38.523,61.076,38.555,60.671,38.555z"/>
				<path fill="#FFFFFF" d="M67.708,38.889c-0.188,0-0.376-0.006-0.563-0.017c-0.197,0.011-0.393,0.017-0.579,0.017
					c-4.158,0-7.596-2.558-8.556-6.366c-0.155-0.615-0.234-1.247-0.236-1.881l-0.031-9.6c0-1.371-0.022-2.724-0.045-4.077
					c-0.024-1.439-0.048-2.879-0.048-4.311c0-0.264,0.031-3.04,0.031-3.277c0-0.293,0.017-0.586,0.05-0.877
					c0.479-4.235,4.025-7.429,8.249-7.429h3.611c0.804,0,1.577,0.105,2.309,0.304c0.751-0.221,1.541-0.337,2.353-0.337h2.161
					c3.473,0,6.603,2.16,7.786,5.375c0.318,0.864,0.481,1.777,0.481,2.698v0.201c0,0.429,0.031,1.205,0.064,2.112
					c0.054,1.48,0.12,3.322,0.12,4.811c0,0.344,0.018,1.207,0.04,2.342c0.046,2.305,0.114,5.79,0.114,8.462
					c0,0.846-0.01,2.061-0.054,3.046c-0.384,8.44-7.627,8.538-7.936,8.538h-3.148c-0.902,0-1.777-0.143-2.603-0.413
					C70.197,38.648,68.993,38.889,67.708,38.889z"/>
				<path fill="#FFFFFF" d="M86.473,38.855c-0.907,0-1.827-0.163-2.705-0.483c-1.049,0.307-2.259,0.483-3.654,0.483h-0.71
					c-3.742,0-7.072-2.693-7.918-6.404c-0.118-0.52-0.184-1.05-0.193-1.583c0,0-0.033-1.73-0.033-1.793l0.093-20.27
					c0.001-0.14,0.005-0.28,0.014-0.419c0.27-4.627,3.975-7.985,8.81-7.985c1.391,0,2.583,0.167,3.604,0.456
					c0.64-0.123,1.321-0.188,2.045-0.188c0.181,0,0.531,0.01,0.882,0.022c0,0,0.521,0.014,0.62,0.018
					c3.109,0.119,8.371,2.333,8.371,9.872v0.134c0,2.856-0.441,5.226-1.079,7.212c1.34,2.626,2.375,6.301,2.375,11.385v0.669
					c0,5.693-4.218,8.788-8.225,8.841C88.769,38.822,86.512,38.855,86.473,38.855z"/>
			</g>
			<g>
				<path fill="#FFFFFF" d="M11.263,98.795c-4.61,0-8.36-3.786-8.36-8.44c0-2.75,0.008-5.5,0.016-8.25
					c0.003-1.263,0.007-2.525,0.009-3.788C1.188,76.853,0,74.575,0,71.523v-0.301c0-9.833,8.552-9.945,8.916-9.945h0.463
					c1.091,0,5.006,0.032,6.236,0.071l-0.001,0.001c0.443,0.016,1.233,0.074,2.011,0.22c3.407,0.614,6.844,3.506,6.844,8.75
					c0,0.282-0.013,0.565-0.03,0.829v0.308c0,2.721-1.098,5.122-2.861,6.749l0.021,11.834c0,4.916-3.632,8.755-8.268,8.755H11.263z"
					/>
				<path fill="#FFFFFF" d="M22.312,99.129c-7.295,0-10.923-4.332-11.904-8.43c-0.747-2.99-0.901-7.345-0.901-12.954
					c0-2.85,0.086-5.875,1.107-8.775c1.817-5.152,6.133-8.228,11.544-8.228c6.563,0,11.992,5.07,12.36,11.542
					c0.094,1.72,0.137,3.47,0.137,5.528c0,1.428-0.026,2.87-0.054,4.345c-0.015,0.755-0.039,2.377-0.039,2.377
					c0,0.163-0.005,0.325-0.016,0.488C34.328,88.512,33.663,99.129,22.312,99.129z"/>
				<path fill="#FFFFFF" d="M39.562,97.926c-4.89,0-8.771-3.697-9.028-8.6c-0.007-0.137-0.011-0.273-0.011-0.41v-0.468
					c0-1.044-0.065-5.025-0.673-19.404c-0.005-0.109-0.007-0.219-0.007-0.329c0-2.939,1.357-5.548,3.726-7.158
					c1.294-0.88,2.822-1.35,4.388-1.35h0.618c3.714,0,9.931,0,13.667,5.629c2.545,3.833,3.027,9.07,3.027,17.395
					c0,0-0.002,0.467-0.006,0.567C54.902,93.172,49.62,97.926,39.562,97.926z"/>
				<path fill="#FFFFFF" d="M56.506,98.26c-0.716,0-1.477-0.098-2.237-0.311c-0.735,0.206-1.491,0.311-2.238,0.311h-2.161
					c-3.36,0-8.36-2.435-8.36-9.143c0-0.053,0.403-20.025,0.403-20.025c0.003-0.167,0.012-0.335,0.026-0.502
					c0.466-5.53,4.535-7.303,5.771-7.715c0.465-0.155,0.942-0.266,1.429-0.331c1.258-0.169,2.362-0.169,3.169-0.169h2.933
					c0.251,0,0.503,0.012,0.753,0.037c2.173,0.21,9.327,1.684,10.173,11.799c0.019,0.216,0.027,0.433,0.027,0.65
					c0,2.945-0.055,5.082-0.157,6.179c-0.028,0.305-0.075,0.608-0.139,0.908c-0.184,0.857-0.44,1.621-0.739,2.298
					c0.902,2.783,1.345,5.251,1.345,7.472c0,1.238-0.424,7.464-8.794,8.45c0.013-0.002,0.104-0.019,0.172-0.031
					C57.427,98.219,56.967,98.26,56.506,98.26z"/>
				<path fill="#FFFFFF" d="M60.671,98.762c-4.442,0-8.078-3.567-8.261-8.022c-0.112-1.943-0.161-3.515-0.161-5.234
					c0-2.483,0.097-5.379,0.254-9.246l0.062-1.378c0.075-1.672,0.159-3.523,0.279-5.618c0.187-4.397,3.819-7.918,8.26-7.918h2.007
					c4.653,0,8.298,3.751,8.298,8.54c0,0.056-0.433,20.05-0.433,20.05c-0.051,4.363-3.001,7.809-7.224,8.438l-1.869,0.293
					C61.481,98.73,61.076,98.762,60.671,98.762z"/>
				<path fill="#FFFFFF" d="M67.708,99.096c-0.188,0-0.376-0.006-0.563-0.017c-0.197,0.011-0.393,0.017-0.579,0.017
					c-4.158,0-7.596-2.558-8.556-6.366c-0.155-0.615-0.234-1.247-0.236-1.881l-0.031-9.6c0-1.371-0.022-2.724-0.045-4.077
					c-0.024-1.439-0.048-2.879-0.048-4.311c0-0.264,0.031-3.04,0.031-3.277c0-0.293,0.017-0.586,0.05-0.877
					c0.479-4.235,4.025-7.429,8.249-7.429h3.611c0.804,0,1.577,0.105,2.309,0.304c0.751-0.221,1.541-0.337,2.353-0.337h2.161
					c3.473,0,6.603,2.16,7.786,5.375c0.318,0.864,0.481,1.777,0.481,2.698v0.201c0,0.429,0.031,1.205,0.064,2.112
					c0.054,1.48,0.12,3.322,0.12,4.811c0,0.344,0.018,1.207,0.04,2.342c0.046,2.305,0.114,5.79,0.114,8.462
					c0,0.846-0.01,2.061-0.054,3.046c-0.384,8.44-7.627,8.538-7.936,8.538h-3.148c-0.902,0-1.777-0.143-2.603-0.413
					C70.197,98.855,68.993,99.096,67.708,99.096z"/>
				<path fill="#FFFFFF" d="M86.473,99.063c-0.907,0-1.827-0.163-2.705-0.483c-1.049,0.307-2.259,0.483-3.654,0.483h-0.71
					c-3.742,0-7.072-2.693-7.918-6.404c-0.118-0.52-0.184-1.05-0.193-1.583c0,0-0.033-1.73-0.033-1.793l0.093-20.27
					c0.001-0.14,0.005-0.28,0.014-0.419c0.27-4.627,3.975-7.985,8.81-7.985c1.391,0,2.583,0.167,3.604,0.456
					c0.64-0.123,1.321-0.188,2.045-0.188c0.181,0,0.531,0.01,0.882,0.022c0,0,0.521,0.014,0.62,0.018
					c3.109,0.119,8.371,2.333,8.371,9.872v0.134c0,2.856-0.441,5.226-1.079,7.212c1.34,2.626,2.375,6.301,2.375,11.385v0.669
					c0,5.693-4.218,8.788-8.225,8.841C88.769,99.029,86.512,99.063,86.473,99.063z"/>
			</g>
			<g>
				<path fill="#FFFFFF" d="M44.404,73.742c-1.16,0-2.826-0.255-4.539-1.376c-0.886-0.524-1.66-1.164-2.309-1.896
					c-0.802,0.329-1.648,0.519-2.503,0.569c-0.301,0.161-0.611,0.301-0.931,0.421c-0.526,0.223-1.528,0.583-2.838,0.63
					c-0.137,0.005-0.271,0.008-0.404,0.008c-3.882,0-7.133-2.121-8.919-5.819c-0.751-1.554-0.961-3.303-0.616-4.975
					c-0.011-0.179-0.019-0.372-0.021-0.578c-0.27-1.304-0.216-2.391-0.184-3.03l0.005-0.107c-0.003-0.08-0.004-0.16-0.004-0.24
					c0-0.707,0.063-1.309,0.105-1.707l0.015-0.144c-0.008-0.116-0.024-0.246-0.037-0.373c-0.021-0.228-0.043-0.451-0.06-0.669
					c-0.016-0.2-0.023-0.4-0.023-0.601V51.58c-0.039-0.217-0.069-0.435-0.091-0.655c-0.138-0.951-0.133-1.863,0.013-2.731
					c-0.117-2.052-0.173-3.802-0.173-5.45c0-1.107,0.033-2.214,0.066-3.314c0.029-0.928,0.059-1.852,0.059-2.765
					c-0.04-2.326,0.76-4.22,1.965-5.621c0.255-0.345,0.535-0.668,0.841-0.972c0.163-0.216,0.32-0.404,0.464-0.562
					c0.257-0.282,0.533-0.544,0.825-0.784c0.488-0.445,1.035-0.84,1.638-1.184c0.512-0.341,1.063-0.622,1.644-0.835
					c1.279-0.47,2.41-0.524,3.149-0.524c0.258,0,0.517,0.013,0.773,0.039c0.332,0.033,0.676,0.084,1.025,0.145
					c0.055-0.001,0.111-0.001,0.168-0.001c2.488,0,4.776,1.18,6.227,3.098c0.101,0.051,0.203,0.105,0.305,0.163
					c1.122-0.802,2.436-1.313,3.834-1.465c1.117-0.584,2.358-0.888,3.614-0.888c0.494,0,0.989,0.047,1.481,0.142
					c1.182,0.046,2.354,0.362,3.42,0.942c0.645,0.351,2.605,1.417,3.731,3.854c0.178,0.384,0.323,0.781,0.437,1.188l0.007,0.022
					c0.975,1.483,1.428,3.275,1.241,5.085c-0.021,0.208-0.049,0.425-0.077,0.642l-0.013,0.099c0.087,0.986,0.085,1.983-0.006,3.062
					c-0.012,0.439-0.01,0.893-0.01,1.353c0,0.709-0.002,1.431-0.025,2.152c-0.002,0.038-0.003,0.076-0.005,0.113
					c-0.055,1.151-0.164,2.25-0.326,3.269c0.009,0.305,0.004,0.638-0.025,0.992c-0.015,0.181-0.036,0.361-0.063,0.54
					c0.108,1.075,0.1,2.063,0.093,2.88l-0.003,0.477c0,0.233,0.009,0.467,0.017,0.701c0.008,0.251,0.016,0.502,0.021,0.753
					c0.053,0.811-0.021,1.617-0.213,2.398c0.048,0.437,0.238,2.202,0.238,2.202c0.856,3.591-0.82,6.197-1.631,7.2
					c-0.363,0.449-0.771,0.852-1.216,1.205c-0.081,0.081-0.163,0.161-0.248,0.239c-0.795,1-1.812,1.778-2.953,2.283
					c-0.416,0.297-0.842,0.555-1.277,0.772c-1.286,0.978-2.854,1.617-4.593,1.827C45.125,73.715,44.76,73.742,44.404,73.742z"/>
				<path fill="#FFFFFF" d="M60.298,72.55c-0.404,0-0.808-0.032-1.206-0.094c-0.363-0.041-0.727-0.107-1.086-0.201
					c-0.65-0.144-1.912-0.429-3.273-1.224c-0.204-0.091-0.399-0.189-0.585-0.291c-1.334-0.633-2.614-1.482-3.818-2.533
					c-1.222-0.955-2.228-2.168-2.953-3.563c-0.09-0.124-0.185-0.262-0.282-0.413c-0.731-1.114-1.308-2.408-1.716-3.847
					c-0.071-0.254-0.13-0.509-0.176-0.765c-0.216-0.554-0.389-1.167-0.494-1.843c-0.874-2.413-0.411-4.459-0.044-5.784v-0.637
					c-0.208-0.734-0.311-1.508-0.292-2.3c-0.055-0.607-0.104-1.546,0.088-2.653c-0.089-1.044,0.014-1.979,0.226-2.801
					c0.091-1.124,0.319-2.045,0.467-2.643l0.019-0.075c0.099-0.426,0.196-0.854,0.295-1.309c0.193-1.259,0.69-2.459,1.452-3.485
					c0.03-0.07,0.061-0.141,0.091-0.211c0.368-0.854,0.912-2.113,1.932-3.407c0.254-0.46,0.654-1.141,1.262-1.854
					c1.539-1.929,3.237-2.91,4.783-3.376c1.21-0.722,2.487-1.134,3.809-1.229c0.395-0.065,0.838-0.108,1.316-0.108
					c0.504,0,1.037,0.052,1.547,0.151c0.473,0.058,0.931,0.153,1.374,0.283c0.17-0.009,0.339-0.014,0.511-0.014
					c0.654,0,1.306,0.068,1.939,0.203c2.782,0.55,5.221,1.635,7.249,3.225c1.093,0.862,1.868,1.799,2.508,2.635
					c0.089,0.106,0.17,0.208,0.244,0.304c0.181,0.16,0.354,0.329,0.518,0.505c1.088,1.164,1.647,2.448,1.926,3.568
					c0.224,0.554,0.395,1.105,0.513,1.654c0.183,0.509,0.295,0.936,0.371,1.228l0.022,0.083c0.053,0.158,0.1,0.317,0.143,0.478
					c0.12,0.453,0.222,0.886,0.327,1.335l0.01,0.042c0.306,0.873,0.467,1.813,0.467,2.794v3.039c0,0.623-0.051,1.124-0.085,1.442
					c-0.009,1.121-0.083,2.426-0.438,3.883c-0.052,0.383-0.073,0.626-0.082,0.751c-0.003,0.038-0.006,0.075-0.009,0.113
					c-0.192,2.288-1.092,4.001-1.575,4.921l-0.126,0.242c-0.046,0.107-0.06,0.135-0.11,0.24c-0.224,0.457-0.447,0.912-0.659,1.368
					c-0.245,1.001-0.713,2.097-1.552,3.173c-0.536,0.767-1.063,1.291-1.351,1.575l-0.206,0.22c-0.501,0.548-1.129,1.233-1.946,1.924
					c-0.385,0.438-0.818,0.832-1.294,1.175c-0.648,0.634-1.324,1.105-1.956,1.454c-0.762,0.639-1.745,1.226-3,1.596
					c-1.265,0.637-2.497,0.836-3.417,0.875C61.418,72.49,60.856,72.55,60.298,72.55z"/>
				<path fill="#FFFFFF" d="M78.752,73.685c-1.557,0-3.062-0.464-4.333-1.313c-2.006-0.86-3.497-2.486-4.227-4.423
					c-0.942-2.15-0.921-4.15-0.877-5.082v-0.888c0-0.35,0.023-0.7,0.07-1.046c-0.051-0.717-0.004-1.378,0.101-1.975
					c-0.003-0.097-0.004-0.193-0.004-0.29c0-0.548,0.032-1.055,0.068-1.531l0.018-0.248l-0.002-2.985
					c0-0.103,0.002-0.206,0.006-0.308c-0.033-0.219-0.058-0.441-0.072-0.665c-0.029-0.271-0.056-0.599-0.06-0.988
					c-0.025-0.258-0.041-0.542-0.041-0.852c-0.003-0.021-0.013-0.123-0.021-0.227c-0.043-0.54-0.106-1.355-0.049-2.296
					c0.006-0.084,0.012-0.168,0.02-0.251c-0.004-0.143-0.018-0.284-0.027-0.424c-0.039-0.562-0.091-1.298-0.054-2.164
					c-0.011-0.203-0.041-0.479-0.077-0.77c-1.781-0.895-3.162-2.378-3.948-4.296c-0.518-1.137-0.992-2.392-0.992-3.998
					c0-1.963,0.601-3.772,1.645-5.228c0.885-1.789,2.444-3.216,4.414-3.906c2.792-0.979,6.494-1.108,7.878-1.12
					c0.493-0.026,0.985-0.049,1.478-0.072c0.909-0.042,1.818-0.083,2.728-0.152c0.486-0.103,1.32-0.268,2.355-0.268
					c0.494,0,0.985,0.038,1.47,0.113l0.324-0.003c0.649,0,1.6,0.034,2.698,0.302c0.092,0.008,0.185,0.017,0.277,0.026
					c2.522,0.246,4.824,1.7,6.131,3.917c0.701,1.189,1.075,2.524,1.121,3.869c0.169,0.714,0.239,1.457,0.198,2.209
					c0.085,1.626-0.342,3.253-1.24,4.642c-1.021,1.58-2.574,2.729-4.361,3.251c0.044,0.58,0.088,1.226,0.088,1.945
					c0,0.353,0.035,0.828,0.071,1.332c0.029,0.396,0.057,0.787,0.077,1.174c0.055,0.575,0.08,1.098,0.093,1.581
					c0.198,0.72,0.303,1.48,0.303,2.265v2.71c0.057,0.356,0.113,0.824,0.124,1.371c0.043,1.34,0.04,2.872-0.216,4.477
					c0.092,1.759-0.208,3.505-0.895,5.206c-0.511,1.265-1.334,2.351-2.367,3.176c-1.264,1.63-3.119,2.689-5.153,2.956
					c-0.12,0.055-0.242,0.106-0.366,0.155c-0.527,0.208-1.103,0.418-1.68,0.626c-0.851,0.307-1.747,0.464-2.651,0.464H78.752z"/>
			</g>
		</g>
		<g>
			<g>
				<path fill="#202933" d="M10.737,13.691v-0.902c0-0.067-0.154-0.569-0.34-0.569L8.36,12.254c-0.556,0-0.556-0.368-0.556-0.938
					v-0.301c0-1.338,0.031-2.141,1.111-2.141h0.463c1.111,0,4.908,0.033,5.989,0.067c0.154,0,0.74,0.066,0.864,0.101
					c0.339,0.033,0.432,0.568,0.432,1.07c0,0.233-0.03,0.468-0.03,0.635v0.502c0,0.602-0.278,1.137-0.68,1.137l-2.191,0.135
					l0.03,17.325c0,0.368-0.092,0.937-0.463,0.937h-2.067c-0.278,0-0.556-0.201-0.556-0.636
					C10.707,24.662,10.737,19.177,10.737,13.691z"/>
				<path fill="#202933" d="M17.311,17.538c0-4.214,0.154-9.198,4.847-9.198c2.099,0,4.414,1.472,4.568,4.182
					c0.093,1.705,0.124,3.378,0.124,5.084c0,2.141-0.063,4.314-0.093,6.589c0,0.101,0,0.134,0,0.134
					c-0.247,3.946-0.463,6.789-4.445,6.789c-1.481,0-3.828-0.301-4.321-2.475C17.373,26.234,17.311,21.284,17.311,17.538z
					 M22.157,27.739c0.524,0,1.05-0.334,1.204-1.171c0.154-3.444,0.247-8.127,0.247-11.506v-1.738
					c-0.093-0.971-0.371-1.473-1.513-1.473c-1.42,0-1.451,1.037-1.451,2.074v0.401c0,6.757,0,9.666,0.093,12.309
					C20.83,27.238,21.509,27.739,22.157,27.739z"/>
				<path fill="#202933" d="M37.956,7.805h0.618c7.254,0,8.89,0.636,8.89,15.219v0.268c-0.154,4.014-0.803,6.623-7.902,6.623
					c-0.309,0-1.173-0.034-1.234-1.205c0-0.033,0,0,0-0.468c0-1.138-0.063-5.117-0.68-19.733C37.647,8.24,37.709,7.973,37.956,7.805
					z M40.858,12.086c0,3.612,0.247,7.626,0.339,11.271c0,0.268,0.063,2.008,0.063,2.309c0.03,0.2,0,0.77,0.246,0.937
					c2.315-0.368,2.778-1.204,2.778-5.084v-0.837l-0.062-1.104c-0.247-4.481-0.432-8.228-2.654-8.228
					c-0.247,0-0.463,0.033-0.71,0.134V12.086z"/>
				<path fill="#202933" d="M49.715,9.043c0.031-0.368,0.062-0.837,0.463-0.971c0.741-0.1,1.451-0.1,2.13-0.1h2.933
					c2.408,0.233,2.964,2.475,3.148,4.682c0,3.813-0.092,5.118-0.123,5.452c-0.401,1.873-1.543,2.04-1.944,2.609
					c0,0.033,0,0.101,0.03,0.134c0.803,1.84,2.347,5.652,2.347,8.662c0,0.569-1.821,0.67-2.192,0.736
					c-0.493,0-0.556-0.803-0.648-1.237c0-1.338-1.357-7.292-2.716-7.292c-0.216,0-0.587,0.033-0.648,0.301v3.646
					c0,1.305-0.031,2.575-0.031,3.88c0,0.401-0.03,0.702-0.432,0.702h-2.161c-0.556,0-0.556-0.869-0.556-1.338L49.715,9.043z
					 M52.74,18.24c0,0.436,0.401,0.568,0.771,0.568c0.834,0,1.39-0.133,1.605-1.07c0.123-1.404,0.123-2.273,0.123-3.611v-1.64
					c-0.154-0.702-0.617-1.07-1.266-1.07c-0.679,0-1.08,0.268-1.142,1.004L52.74,18.24z"/>
				<path fill="#202933" d="M60.054,25.298c0-2.308,0.093-5.117,0.247-8.931c0.093-2.007,0.186-4.281,0.34-6.957
					c0-0.234,0.216-0.468,0.463-0.468h2.007c0.401,0,0.493,0.368,0.493,0.735l-0.432,19.935c0,0.401-0.093,0.77-0.587,0.837
					l-1.914,0.301c-0.277,0-0.463-0.301-0.463-0.568C60.115,28.609,60.054,27.104,60.054,25.298z"/>
				<path fill="#202933" d="M68.695,14.562c-0.062,0-0.093,0.669-0.093,1.772c0,2.843,0.154,8.629,0.154,13.914
					c0,0.736-0.524,0.836-1.049,0.836c-0.186,0-0.371-0.033-0.556-0.033c-0.124,0-0.371,0.033-0.587,0.033
					c-0.432,0-0.895-0.1-0.987-0.468l-0.031-9.6c0-2.776-0.093-5.586-0.093-8.362c0-0.501,0.031-2.775,0.031-3.277
					c0.03-0.268,0.186-0.502,0.494-0.502h3.611c0.247,0,0.556,0.101,0.556,0.368l4.26,15.386l-0.71-15.353
					c0.093-0.233,0.309-0.435,0.556-0.435h2.161c0.154,0,0.401,0.101,0.463,0.268v0.201c0,1.17,0.185,4.615,0.185,6.923
					c0,1.07,0.154,6.856,0.154,10.804c0,2.141-0.062,3.779-0.185,3.779h-3.148c-0.278,0-0.494-0.234-0.618-0.502L68.695,14.562z"/>
				<path fill="#202933" d="M79.156,8.842c0.031-0.535,0.556-0.636,1.019-0.636c1.574,0,1.914,0.101,1.914,0.803v0.368
					c0,1.137,0.031,6.891,0.031,8.094c0,0.135,0,0.201,0.154,0.201c1.357-0.469,2.284-3.813,2.284-6.422V9.478
					c0-0.937,0.556-1.004,1.266-1.004c0.247,0,0.957,0.034,1.203,0.034c0.865,0.033,0.865,1.304,0.865,2.073v0.134
					c0,3.779-1.05,6.154-2.315,8.262c0,0,3.611,1.906,3.611,10.335v0.669c0,0.401-0.03,1.037-0.524,1.037l-2.191,0.033
					c-0.186,0-0.217-0.268-0.217-0.736v-0.769c0-2.074-0.833-8.194-3.488-8.262c-0.185,0-0.586,0.134-0.586,0.368
					c0,3.244-0.031,6.121-0.031,8.529c0,0.468-0.062,0.869-2.037,0.869h-0.71c-0.123,0-0.278-0.201-0.309-0.334l-0.031-1.605
					L79.156,8.842z"/>
			</g>
			<g>
				<path fill="#202933" d="M10.737,73.898v-0.902c0-0.067-0.154-0.569-0.34-0.569L8.36,72.461c-0.556,0-0.556-0.368-0.556-0.938
					v-0.301c0-1.338,0.031-2.141,1.111-2.141h0.463c1.111,0,4.908,0.033,5.989,0.067c0.154,0,0.74,0.066,0.864,0.101
					c0.339,0.033,0.432,0.568,0.432,1.07c0,0.233-0.03,0.468-0.03,0.635v0.502c0,0.602-0.278,1.137-0.68,1.137l-2.191,0.135
					l0.03,17.325c0,0.368-0.092,0.937-0.463,0.937h-2.067c-0.278,0-0.556-0.201-0.556-0.636
					C10.707,84.869,10.737,79.384,10.737,73.898z"/>
				<path fill="#202933" d="M17.311,77.745c0-4.214,0.154-9.198,4.847-9.198c2.099,0,4.414,1.472,4.568,4.182
					c0.093,1.705,0.124,3.378,0.124,5.084c0,2.141-0.063,4.314-0.093,6.589c0,0.101,0,0.134,0,0.134
					c-0.247,3.946-0.463,6.789-4.445,6.789c-1.481,0-3.828-0.301-4.321-2.475C17.373,86.441,17.311,81.491,17.311,77.745z
					 M22.157,87.946c0.524,0,1.05-0.334,1.204-1.171c0.154-3.444,0.247-8.127,0.247-11.506v-1.738
					c-0.093-0.971-0.371-1.473-1.513-1.473c-1.42,0-1.451,1.037-1.451,2.074v0.401c0,6.757,0,9.666,0.093,12.309
					C20.83,87.445,21.509,87.946,22.157,87.946z"/>
				<path fill="#202933" d="M37.956,68.012h0.618c7.254,0,8.89,0.636,8.89,15.219v0.268c-0.154,4.014-0.803,6.623-7.902,6.623
					c-0.309,0-1.173-0.034-1.234-1.205c0-0.033,0,0,0-0.468c0-1.138-0.063-5.117-0.68-19.733
					C37.647,68.447,37.709,68.18,37.956,68.012z M40.858,72.293c0,3.612,0.247,7.626,0.339,11.271c0,0.268,0.063,2.008,0.063,2.309
					c0.03,0.2,0,0.77,0.246,0.937c2.315-0.368,2.778-1.204,2.778-5.084v-0.837l-0.062-1.104c-0.247-4.481-0.432-8.228-2.654-8.228
					c-0.247,0-0.463,0.033-0.71,0.134V72.293z"/>
				<path fill="#202933" d="M49.715,69.25c0.031-0.368,0.062-0.837,0.463-0.971c0.741-0.1,1.451-0.1,2.13-0.1h2.933
					c2.408,0.233,2.964,2.475,3.148,4.682c0,3.813-0.092,5.118-0.123,5.452c-0.401,1.873-1.543,2.04-1.944,2.609
					c0,0.033,0,0.101,0.03,0.134c0.803,1.84,2.347,5.652,2.347,8.662c0,0.569-1.821,0.67-2.192,0.736
					c-0.493,0-0.556-0.803-0.648-1.237c0-1.338-1.357-7.292-2.716-7.292c-0.216,0-0.587,0.033-0.648,0.301v3.646
					c0,1.305-0.031,2.575-0.031,3.88c0,0.401-0.03,0.702-0.432,0.702h-2.161c-0.556,0-0.556-0.869-0.556-1.338L49.715,69.25z
					 M52.74,78.447c0,0.436,0.401,0.568,0.771,0.568c0.834,0,1.39-0.133,1.605-1.07c0.123-1.404,0.123-2.273,0.123-3.611v-1.64
					c-0.154-0.702-0.617-1.07-1.266-1.07c-0.679,0-1.08,0.268-1.142,1.004L52.74,78.447z"/>
				<path fill="#202933" d="M60.054,85.505c0-2.308,0.093-5.117,0.247-8.931c0.093-2.007,0.186-4.281,0.34-6.957
					c0-0.234,0.216-0.468,0.463-0.468h2.007c0.401,0,0.493,0.368,0.493,0.735l-0.432,19.935c0,0.401-0.093,0.77-0.587,0.837
					l-1.914,0.301c-0.277,0-0.463-0.301-0.463-0.568C60.115,88.816,60.054,87.311,60.054,85.505z"/>
				<path fill="#202933" d="M68.695,74.769c-0.062,0-0.093,0.669-0.093,1.772c0,2.843,0.154,8.629,0.154,13.914
					c0,0.736-0.524,0.836-1.049,0.836c-0.186,0-0.371-0.033-0.556-0.033c-0.124,0-0.371,0.033-0.587,0.033
					c-0.432,0-0.895-0.1-0.987-0.468l-0.031-9.6c0-2.776-0.093-5.586-0.093-8.362c0-0.501,0.031-2.775,0.031-3.277
					c0.03-0.268,0.186-0.502,0.494-0.502h3.611c0.247,0,0.556,0.101,0.556,0.368l4.26,15.386l-0.71-15.353
					c0.093-0.233,0.309-0.435,0.556-0.435h2.161c0.154,0,0.401,0.101,0.463,0.268v0.201c0,1.17,0.185,4.615,0.185,6.923
					c0,1.07,0.154,6.856,0.154,10.804c0,2.141-0.062,3.779-0.185,3.779h-3.148c-0.278,0-0.494-0.234-0.618-0.502L68.695,74.769z"/>
				<path fill="#202933" d="M79.156,69.049c0.031-0.535,0.556-0.636,1.019-0.636c1.574,0,1.914,0.101,1.914,0.803v0.368
					c0,1.137,0.031,6.891,0.031,8.094c0,0.135,0,0.201,0.154,0.201c1.357-0.469,2.284-3.813,2.284-6.422v-1.772
					c0-0.937,0.556-1.004,1.266-1.004c0.247,0,0.957,0.034,1.203,0.034c0.865,0.033,0.865,1.304,0.865,2.073v0.134
					c0,3.779-1.05,6.154-2.315,8.262c0,0,3.611,1.906,3.611,10.335v0.669c0,0.401-0.03,1.037-0.524,1.037l-2.191,0.033
					c-0.186,0-0.217-0.268-0.217-0.736v-0.769c0-2.074-0.833-8.194-3.488-8.262c-0.185,0-0.586,0.134-0.586,0.368
					c0,3.244-0.031,6.121-0.031,8.529c0,0.468-0.062,0.869-2.037,0.869h-0.71c-0.123,0-0.278-0.201-0.309-0.334l-0.031-1.605
					L79.156,69.049z"/>
			</g>
			<g>
				<path fill="#202933" d="M35.686,47.416c0,0.727-0.084,1.452-0.084,2.133c0,1.179,0,2.358,0,3.538
					c0,1.451,0.084,2.768,0.126,4.174c0,0.499,0.084,1.043,0.084,1.633c0.042,0.454,0.042,0.952,0.083,1.406
					c0,0.091,0,0.227,0.084,0.317c0.209,0.182,0.168,0.545,0.168,0.998c-0.252-0.091-0.419-0.136-0.628-0.272
					c-0.042,0.272,0,0.499-0.126,0.681c-0.042,0.137-0.293,0.182-0.502,0.317c-0.084,0.182-0.209,0.545-0.293,0.907
					c-0.377-0.136-0.712-0.181-1.13-0.227c-0.084,0.091-0.21,0.227-0.293,0.363c-0.084-0.091-0.21-0.272-0.377-0.363
					c-0.084,0.091-0.126,0.227-0.209,0.363c-0.042-0.137-0.084-0.363-0.21-0.681c-0.083,0.408-0.125,0.726-0.125,0.953
					c-0.293,0.136-0.586,0.317-0.879,0.499c-0.168,0.045-0.293,0.136-0.377,0.136c-0.963,0.045-1.549-0.454-2.009-1.406
					c0.125-0.363,0.251-0.681,0.251-0.907c0-0.681-0.251-1.361,0-2.042c0-0.091,0-0.227-0.126-0.362
					c-0.335-0.681-0.125-1.452-0.167-2.223c0-0.59,0.125-1.18,0.125-1.77s-0.083-1.18-0.125-1.724c0-1.044,0-2.178,0-3.221
					c0-0.182-0.042-0.318-0.126-0.454c0-0.272-0.125-0.59-0.042-0.726c0.168-0.363,0.126-0.59,0.126-0.907
					c-0.126-1.996-0.209-3.901-0.209-5.807c0-2.042,0.125-4.083,0.125-6.079c0-0.227-0.042-0.59,0.293-0.681
					c0.168-0.499,0.503-0.59,0.879-0.771c0.126-0.09-0.125-0.499,0.21-0.499c0.209-0.408,0.586-0.408,0.879-0.68
					c0.125-0.046,0.334-0.046,0.46-0.046c0.461,0.046,0.963,0.182,1.465,0.227c0.126,0,0.293-0.045,0.502-0.045
					c0.084,0.227,0.084,0.408,0.126,0.726c0.712,0.228,1.34,0.862,2.051,1.406c0.042,0.046,0.168,0.182,0.209,0.182
					c0.293-0.182,0.419,0,0.586,0.227c0.838,0.907,1.717,1.86,2.177,3.176c0.042,0.136,0.168,0.317,0.293,0.363
					c0.335,0.317,0.586,0.635,0.754,1.043c0.669,1.271,1.339,2.586,1.967,3.856c0.586,0.952,1.088,1.95,1.674,2.857
					c0.252,0.408,0.503,0.726,0.712,1.271c0.209-0.59,0.293-1.134,0.209-1.724c0-0.727,0-1.497-0.042-2.178
					c0-1.724,0-3.402-0.376-5.126c0-0.046,0-0.137,0-0.228c0.083-0.726,0.209-1.451,0.376-2.132c0.042-0.272,0.168-0.499,0-0.635
					c-0.041-0.046,0.042-0.227,0.042-0.408c0.084-0.182,0.126-0.408,0.126-0.636c0.293-0.589,0.712-0.136,1.046,0
					c0.293,0.091,0.586,0.318,0.921,0.59c0.251-0.136,0.419-0.317,0.67-0.453c0.042,0.136,0.126,0.317,0.167,0.499
					c0.126-0.363,0.252-0.545,0.293-0.862c0.042-0.227,0-0.544,0-0.907c0.545,0.136,0.587,0.545,0.754,0.998
					c0.335-0.227,0.335-0.499,0.419-0.862c0.167,0.091,0.334,0.182,0.376,0.272c0.126,0.454,0.251,0.862,0.377,1.315
					c0.126,0.363,0.126,0.727,0.167,1.089c0.168-0.136,0.293-0.136,0.461-0.182c-0.042,0.408-0.126,0.862-0.126,1.226
					c-0.042,0.181-0.042,0.362-0.042,0.453C50,40.203,50,40.975,49.916,41.837c-0.042,1.179,0,2.449-0.042,3.72
					c-0.041,0.861-0.125,1.724-0.251,2.495c-0.376,0.453-0.042,0.998-0.083,1.497c-0.126,0.59-0.126,1.089-0.084,1.678
					c0.125,0.907,0.084,1.951,0.084,2.858c0,0.635,0.041,1.271,0.041,1.905c0.042,0.136,0,0.136-0.251,0.408
					c-0.042,0.091-0.042,0.272-0.042,0.317c0,0.408,0.042,0.907,0.042,1.361c0.126,1.089,0.251,2.313,0.377,3.447
					c0,0.272,0.293,0.545,0,0.907c-0.126,0-0.251-0.091-0.377-0.091c-0.042,0-0.209,0.182-0.209,0.182
					c0.167,0.545-0.251,0.59-0.46,0.771c-0.21-0.046-0.335-0.227-0.586-0.363c0.041,0.454,0.041,0.727,0.125,0.998
					c-0.167,0-0.419-0.091-0.67-0.091c0,0.59-0.376,0.59-0.628,0.817c-0.293,0.227-0.586,0.408-0.962,0.136
					c-0.084,0.045-0.126,0.091-0.21,0.272c-0.209,0.68-0.753,0.816-1.255,0.861c-0.126,0.046-0.293-0.045-0.461-0.182
					c-0.46-0.227-0.963-0.589-0.963-1.451c0-0.136-0.041-0.363-0.167-0.499c-0.502-0.499-0.502-1.361-0.754-2.087
					c-0.125-0.408-0.209-0.816-0.334-1.271c-0.042-0.227-0.293-0.499-0.252-0.861c0-0.091-0.209-0.227-0.376-0.454
					c0-0.091,0-0.227,0-0.362c0-0.771-0.419-1.361-0.712-1.905c-0.084-0.182-0.251-0.363-0.293-0.499
					c-0.125-0.545-0.418-1.089-0.628-1.497c-0.167-0.272-0.167-0.636-0.377-0.953c-0.083-0.227-0.041-0.726-0.46-0.816
					c-0.042-0.317-0.167-0.635-0.335-0.998c-0.544-0.862-1.004-1.77-1.465-2.631c-0.042-0.137-0.209-0.182-0.419-0.363
					C36.48,48.505,36.146,47.87,35.686,47.416z M29.826,50.728c-0.293,0.454-0.084,0.636,0.084,0.953
					C29.868,51.363,29.868,51.091,29.826,50.728z M30.621,55.446c-0.167,0.907-0.209,1.769-0.042,2.676
					C30.789,56.897,30.872,56.172,30.621,55.446z M30.747,53.813c-0.042-0.59,0.293-0.998-0.042-1.679
					C30.496,52.86,30.496,53.359,30.747,53.813z M32.798,51.091c0,0.635,0,1.225,0,1.86C32.965,52.406,32.965,51.363,32.798,51.091z
					 M32.965,50.139c0-0.182,0.042-0.318,0.042-0.545h-0.042c-0.083,0.182-0.083,0.363-0.125,0.545
					C32.882,50.139,32.882,50.139,32.965,50.139z M45.73,37.572c0.084-0.045,0.21-0.045,0.21-0.182c0-0.317-0.126-0.362-0.503-0.317
					C45.563,37.209,45.689,37.391,45.73,37.572z M45.856,45.058c0.084-0.272,0.251-0.726,0.167-0.816
					c-0.334-0.454-0.209-0.998-0.167-1.497c0-0.272-0.126-0.272-0.293-0.545c-0.042,1.044,0.126,1.951,0.126,2.858
					C45.73,45.058,45.814,45.058,45.856,45.058z"/>
				<path fill="#202933" d="M52.302,55.582c-0.377-0.545-0.377-0.59-0.042-1.77C52.26,54.493,52.26,55.037,52.302,55.582z
					 M53.683,56.762c-0.042,0-0.084-0.182-0.042-0.182c0.293-0.363,0.126-0.681,0.042-1.044c-0.042-0.362-0.209-0.68-0.377-1.043
					c-0.251,0.136-0.46,0.363-0.711,0.544c-0.042-0.181-0.126-0.408-0.126-0.499c0.209-0.408,0.251-0.68,0.377-0.907
					c0.125-0.227,0.209-0.499,0.209-0.68c0.084-0.499,0.084-0.907-0.042-1.271c-0.125-0.59-0.042-1.134,0-1.679
					c0.042-0.362,0.042-0.726,0-1.043c0-0.182-0.125-0.228-0.167-0.363c-0.084,0.726-0.126,1.543-0.168,2.223
					c0,0.228,0.084,0.499,0.168,0.681c0.042,0.771-0.084,1.543-0.251,2.269c-0.042,0.045-0.126,0.045-0.21,0.227
					c0-0.363,0.042-0.544,0.084-0.726c0-0.726,0-1.361,0-1.951c0-0.499,0-1.043-0.042-1.542c0-0.182,0.042-0.499-0.251-0.545
					c0.084-0.635-0.209-1.27,0.084-1.814c0.042-0.136,0.167-0.271,0.209-0.408c0.084-0.453,0.084-0.771,0-1.18
					c-0.042,0.046-0.084,0.182-0.167,0.409c0-0.363-0.21-0.636,0.083-0.907c0.084-0.046,0.084-0.272,0.084-0.409
					c-0.084-0.771,0.126-1.542,0.293-2.223c0.126-0.544,0.251-1.089,0.377-1.679c0.042-0.045,0.042-0.181,0.042-0.271
					c0.879-0.998,1.088-2.495,1.967-3.539c0.419-0.408,0.628-1.134,1.047-1.587c0.334-0.409,0.669-0.953,1.381-0.953
					c0.419,0,0.921-0.454,1.339-0.681c0.21-0.136,0.461-0.271,0.67-0.136c0.168,0,0.419-0.182,0.586-0.136
					c0.335,0.181,0.712-0.091,0.921,0.362c0,0.091,0.168,0,0.293,0c0.335,0.091,0.628,0.136,0.921,0.136
					c0.167,0,0.377-0.045,0.586-0.045c0.335,0,0.628-0.091,1.005,0c1.423,0.272,2.804,0.771,4.018,1.724
					c0.461,0.363,0.879,0.907,1.256,1.406c0.377,0.408,0.586,0.953,1.13,1.226c0.042,0.045,0.084,0.227,0.084,0.362
					c0.084,0.545,0.586,0.998,0.418,1.588c0.377,0.544,0.419,1.134,0.628,1.724c0.168,0.636,0.293,1.225,0.461,1.905
					c0.084,0.046,0.084,0.182,0.084,0.272c0,1.043,0,1.996,0,3.039c0,0.454-0.084,0.816-0.084,1.18c0,0.907-0.042,1.724-0.293,2.586
					c-0.084,0.544-0.168,1.18-0.209,1.77c-0.084,0.998-0.712,1.859-1.047,2.631c-0.377,0.771-0.753,1.542-1.088,2.313
					c-0.084,0.091-0.126,0.272-0.126,0.408c0.042,0.317-0.125,0.408-0.293,0.635c-0.209,0.363-0.502,0.59-0.795,0.907
					c-0.628,0.681-1.214,1.361-1.968,1.86c-0.125,0.046-0.251,0.272-0.293,0.408c-0.125-0.045-0.251-0.136-0.335-0.136
					c-0.083,0-0.083,0.091-0.083,0.136c-0.21,0.499-0.503,0.907-0.963,1.044c-0.293,0.181-0.712,0.362-0.921,0.635
					c-0.125,0.227-0.377,0.227-0.544,0.272c-0.377,0.136-0.754,0.091-1.047,0.453c-0.083,0.046-0.376,0.091-0.502,0
					c-0.293-0.362-0.711-0.182-1.088-0.272c0,0.272,0,0.363,0,0.499c-0.126-0.136-0.251-0.181-0.335-0.362c0,0.136,0,0.182,0,0.317
					c-0.502-0.136-1.13-0.182-1.591-0.635c-0.125-0.182-0.376-0.046-0.544-0.228c-0.879-0.362-1.758-0.952-2.553-1.678
					c-0.461-0.318-0.838-0.771-1.089-1.361c-0.125-0.363-0.376-0.544-0.544-0.816c-0.335-0.499-0.586-1.134-0.753-1.724
					c0.167-0.091,0.293-0.137,0.46-0.318c0.042,0.046,0.168,0.228,0.293,0.363c0-0.136,0.042-0.182,0.042-0.182
					c-0.084-0.317-0.167-0.544-0.293-0.816c-0.042-0.182-0.084-0.317-0.042-0.59c0.042,0.182,0.168,0.363,0.251,0.499
					c0.168,0.046,0.335,0.091,0.503,0.182c-0.126,0.59-0.126,0.59,0.251,1.089c0-0.182-0.084-0.363-0.084-0.59
					c-0.042-0.136-0.084-0.317-0.167-0.499C53.934,57.215,54.06,56.762,53.683,56.762z M52.385,55.945
					c0.377,0.271,0.168,0.68,0.293,1.134C52.302,56.716,52.427,56.354,52.385,55.945z M53.641,59.483
					c0.126,0.182,0.251,0.272,0.335,0.362c0.084,0,0.084,0,0.126-0.09c0-0.228-0.042-0.454-0.042-0.817
					C53.892,59.166,53.767,59.302,53.641,59.483z M54.98,57.261c-0.168-0.363-0.293-0.727-0.419-1.089
					c-0.042,0.453,0,0.816,0.293,1.134C54.854,57.261,54.896,57.261,54.98,57.261z M55.021,58.168
					c0.126-0.272,0.168-0.499-0.209-0.545C54.896,57.805,54.98,57.94,55.021,58.168z M59.207,63.793
					c-0.083-0.091-0.083-0.136-0.125-0.227c-0.712-0.454-1.507-1.044-2.219-1.497c-0.251-0.137-0.502-0.317-0.544-0.636
					c-0.251-0.861-0.879-1.179-1.465-1.678c0.126,0.317,0.293,0.68,0.419,0.998c-0.126,0.045-0.252,0.045-0.419,0.045
					c0.042,0.136,0.042,0.227,0.042,0.227c0.293,0.545,0.837,0.816,1.172,1.135c0.419,0.362,0.628,0.998,1.256,0.952
					c0.083,0,0.125,0,0.125,0.046c0.168,0.362,0.461,0.362,0.879,0.408c0.293,0.091,0.503,0.227,0.796,0.271
					C59.207,63.838,59.207,63.793,59.207,63.793z M55.147,51.59c0,0.272-0.042,0.635,0,0.862c0.042,0.499,0.168,1.043,0.251,1.542
					c0.042,0.136,0.168,0.182,0.251,0.317c0.084,0,0.168-0.182,0.168-0.227c0.084-0.136,0.209-0.272-0.042-0.454
					c-0.335-0.045-0.293-0.317-0.209-0.589c0.083-0.318,0.251-0.817,0.209-1.135c-0.209-0.499,0-0.816,0-1.225
					c0-0.045,0-0.136-0.042-0.363C55.44,50.818,55.147,51.091,55.147,51.59z M59.082,61.752c-0.251-0.272-0.712-0.363-0.837-0.862
					c0.209-0.136,0.376-0.227,0.586-0.454c-0.377-0.091-0.67-0.362-1.089-0.453c-0.125-0.137-0.209-0.317-0.335-0.499
					c-0.125-0.136-0.251-0.272-0.251-0.454c-0.042-0.68-0.502-1.089-0.921-1.406c-0.334-0.317-0.669-0.544-0.962-0.861
					c0.042,0.453,0.042,0.816,0.042,1.134c0.083,0.091,0.083,0.272,0.125,0.408c0.209,0.499,0.377,0.998,0.628,1.406
					c0.293,0.499,0.544,1.089,1.088,1.315c0.168,0.091,0.419,0.454,0.377,0.681c0,0.363,0.168,0.454,0.377,0.545
					c0.167,0.181,0.418,0.227,0.586,0.271c0.544,0.137,1.046,0.636,1.549,0.499c0.083-0.271,0.083-0.544,0.083-0.861
					c0.21-0.182,0.126-0.545,0.21-0.727c-0.377-0.362-0.377-0.362-0.754-0.317c0.293,0.317,0.251,0.816,0.544,1.044
					C59.71,62.251,59.417,62.114,59.082,61.752z M63.1,58.849c0.377-0.409,0.796-0.727,0.838-1.588
					c-0.335,0.362-0.628,0.544-0.879,0.861c0.041-0.182,0.041-0.362,0.125-0.453c0.168-0.228,0.335-0.363,0.461-0.454
					c-0.168-0.499-0.168-0.861,0.125-1.134c0.042-0.136,0.042-0.272,0.126-0.408c0.042-0.137,0.042-0.272,0.083-0.317
					c0.293-0.318,0.461-0.545,0.461-0.907c0-0.272,0.084-0.454,0.125-0.636c0.293-1.043,0.796-2.087,0.921-3.266
					c0.042-0.499,0.126-1.044,0.251-1.588c0.168-0.771,0.042-1.543-0.083-2.313c-0.126-0.862-0.503-1.725-0.754-2.541
					c-0.042-0.317-0.167-0.499-0.293-0.726c-0.167-0.363-0.376-0.816-0.628-1.225c-0.376-1.18-1.214-2.042-1.967-2.858
					c-0.167-0.091-0.335-0.227-0.544-0.362c-0.084,0.136-0.126,0.136-0.209,0.271c-0.754,0.998-1.298,2.087-1.717,3.312
					c-0.125,0.182-0.251,0.499-0.251,0.727c0.084,0.544-0.084,1.179-0.209,1.724c-0.126,0.998-0.419,2.041-0.628,2.994
					c-0.084,0.227-0.084,0.635,0,0.681c0.167,0.271,0.167,0.362,0.042,0.499c-0.251,0.181-0.168,0.499-0.042,0.68
					c0.167,0.545,0.167,1.044,0.167,1.588c0,0.182-0.083,0.363-0.083,0.499c0.251,1.225,0.251,2.586,0.586,3.766
					c0.293,0.907,0.628,1.633,1.339,2.268c0.21,0.318,0.503,0.363,0.754,0.046c0.335,0.136,0.293,0.363,0.293,0.681
					c0.753,0.271,0.753,0.271,1.214-0.317c0.041-0.046,0.209-0.091,0.293-0.182C63.017,58.439,62.891,58.667,63.1,58.849z
					 M60.631,63.294c-0.335,0-0.628-0.091-0.921-0.136c-0.126,0-0.251,0.045-0.335,0.136c0.46,0.499,1.507,0.408,2.093-0.136
					C61.175,63.203,60.882,63.294,60.631,63.294z M60.296,60.209c-0.042-0.136-0.042-0.182-0.126-0.227
					c-0.042,0-0.167,0-0.209-0.091C60.003,60.209,60.045,60.345,60.296,60.209z M66.825,54.357
					c-0.084,0.136-0.168,0.271-0.251,0.453c-0.251,0.59-0.503,1.271-0.754,1.905c-0.042,0.137-0.167,0.182-0.293,0.363
					c-0.084,0.182-0.209,0.362-0.209,0.59c-0.126,0.271-0.209,0.59-0.335,0.771c-0.084,0.182-0.084,0.272-0.167,0.499
					c0.209-0.271,0.376-0.589,0.627-0.635c0.587-0.317,0.67-0.998,0.963-1.451c0.126-0.137,0.126-0.318,0.126-0.499
					c0-0.091-0.168-0.137-0.168-0.137c0.21-0.635,0.461-1.18,0.628-1.769C66.95,54.448,66.867,54.357,66.825,54.357z M69.964,44.74
					c0-0.363,0-0.681,0-1.135C69.462,43.923,69.881,44.377,69.964,44.74z"/>
				<path fill="#202933" d="M88.463,35.984c0.293,0.182,0.586,0.272,0.711,0.771c-0.251,0.045-0.502,0.091-0.795,0.091
					s-0.586-0.046-0.795,0.271c-0.084,0.137-0.252,0.137-0.419,0.137c-0.293,0-0.67,0-1.046,0c0.167,0.136,0.293,0.182,0.376,0.272
					c-0.042,0.227-0.083,0.317-0.167,0.544c-0.209-0.091-0.502-0.136-0.795-0.091c-0.293,0-0.545,0.182-0.838,0.272
					c-0.46,0.091-0.962,0.091-1.465,0.091c-0.083,0-0.209,0-0.376,0c0.041,0.453,0.083,0.952,0.167,1.451
					c0.042-0.136,0.042-0.136,0.042-0.271c0.167,0.136,0.251,0.271,0.251,0.498c-0.084,0.998,0.209,1.951,0.167,2.949
					c0,1.089,0.168,2.178,0.168,3.221c0,1.044,0.125,2.087,0.167,3.085c0.084,0.771,0.084,1.451,0.084,2.178
					c0,0.271-0.084,0.544,0.167,0.771c0.126,0.046,0.126,0.182,0.126,0.318c0,1.088,0,2.132,0,3.221
					c0,0.362,0.126,0.681,0.126,1.043c0.041,1.225,0.041,2.541-0.252,3.72c-0.041,0.182,0,0.363,0,0.545
					c0.126,0.816,0,1.588-0.293,2.313c-0.125-0.137-0.251-0.317-0.293-0.499c-0.167,0.136-0.334,0.317-0.544,0.362
					c0,0.182,0,0.454,0,0.636c-0.209,0.227-0.669,0.317-0.46,0.816c-0.209,0-0.544-0.136-0.754-0.045
					c-0.209,0.227-0.293,0-0.293-0.137c-0.042-0.272-0.042-0.499-0.042-0.771c0.126-0.362-0.125-0.227-0.293-0.362
					c-0.041,0.317-0.125,0.635-0.041,0.816c0.083,0.227,0.041,0.499-0.084,0.726c-0.168,0-0.293,0-0.461-0.045
					c-0.041,0.182-0.167,0.317-0.251,0.453c-0.46,0.182-0.962,0.363-1.465,0.545c-0.042,0-0.042,0-0.042,0
					c-0.125-0.137-0.293-0.182-0.376-0.272c-0.293-0.182-0.545-0.272-0.879-0.408c0.041,0,0-0.091,0-0.091
					c-0.377-0.59-0.419-1.271-0.377-2.041c0-0.317,0-0.681,0-1.089c0.084-0.499,0.084-0.907,0.084-1.361
					c0-0.136-0.084-0.272,0-0.408c0.167-0.544,0.083-1.043,0.083-1.542c0-0.636,0.084-1.18,0.084-1.679c0-0.998,0-1.996,0-2.903
					c0-0.091,0-0.182,0-0.182c0.46-0.453,0.209-0.907,0.209-1.36c0-0.454,0.084-0.953,0.084-1.497c0,0-0.084-0.091-0.126-0.091
					c-0.041,0.136-0.125,0.362-0.251,0.635c-0.042-0.272-0.083-0.317-0.083-0.499c0-0.635-0.126-1.361-0.084-2.041
					c0.125-1.089-0.126-2.133-0.042-3.176c0-0.998-0.167-2.041-0.293-3.039c0-0.137-0.084-0.272-0.084-0.454
					c0.21-0.544,0-1.043-0.042-1.542s-0.042-0.862-0.042-1.361c0-0.317-0.083-0.726-0.083-1.134
					c-0.628-0.091-2.344-0.137-2.93-0.228c-0.084,0-0.168,0-0.293,0c-0.377-0.045-0.712,0-0.879-0.499
					c-0.084-0.181-0.377-0.816-0.377-0.952c0-0.408,0.084-0.816,0.544-0.907c0.042,0,0.042-0.091,0.126-0.182
					c0,0,0.167-0.59,0.167-0.681c1.423-0.499,4.019-0.681,5.524-0.681c1.633-0.09,3.265-0.136,4.897-0.271
					c0.586-0.046,1.172-0.317,1.8-0.182c0.795,0.182,1.632-0.045,2.386,0.182c0.419,0.136,0.837,0.136,1.256,0.182
					c0.167,0,0.293,0.271,0.167,0.499c-0.125,0-0.293,0.09-0.586,0.09c0.168,0.091,0.293,0.182,0.335,0.228c0,0,0,0.091-0.042,0.091
					c-0.293,0-0.586,0-0.837,0c-0.126,0-0.167-0.091-0.209,0c-0.126,0-0.21,0-0.419,0.136c0.712,0.272,1.298,0.454,2.009,0.771
					C88.839,35.939,88.63,35.984,88.463,35.984z M77.245,51.862c0.042,0.091,0.126,0,0.126,0.091
					c0.042,0.136,0.042,0.271,0.126,0.362c-0.084,0.091-0.126,0.091-0.21,0.091C77.287,52.225,77.245,52.089,77.245,51.862z
					 M77.664,49.866c0-0.317,0-0.59,0-0.771C77.538,49.367,77.497,49.594,77.664,49.866z M78.417,53.132
					c0-0.181,0.042-0.362,0.042-0.589c-0.042,0-0.042,0-0.083,0c0,0.227,0,0.408,0,0.589H78.417z M78.878,48.868
					c0-0.182,0-0.317,0-0.454c0,0-0.084,0-0.126,0c0,0.137-0.042,0.182-0.042,0.363C78.752,48.777,78.794,48.777,78.878,48.868z
					 M78.71,49.549c0,0.227,0,0.499,0,0.726C79.003,50.048,78.92,49.775,78.71,49.549z M79.087,50.547c-0.042,0.181,0,0.408,0,0.68
					c0,0.182,0,0.499-0.084,0.636c-0.251,0.227,0.084,0.271,0.042,0.408c-0.042,0.182-0.042,0.317,0.042,0.544
					c0.126,0.272,0.21,0.816,0.084,1.135c-0.293,0.816-0.251,1.678-0.251,2.495c0,0.181,0.083,0.362,0.125,0.544
					c0.461-0.635,0-1.361,0.335-2.041c0.251,0.499,0.251,0.499,0.21,0.726c-0.084,0.499-0.126,0.907,0,1.315
					c0.041,0.136,0.083,0.317,0.041,0.453c-0.293,0.545,0,1.044,0.126,1.543c0,0.317,0.042,0.635,0.209,0.726
					c0.251,0.136,0.251,0.454,0.251,0.681c0,0.453,0.126,0.907,0,1.361c-0.041,0.227,0,0.453,0,0.816
					c0.335-0.363,0.461-0.59,0.419-0.907c0-0.363-0.084-0.681-0.084-1.044c0.084-0.952,0.21-1.95,0.084-2.903
					c-0.126-0.771,0-1.679,0.042-2.54c0.084-0.816,0.251-1.588-0.042-2.404c-0.167-0.545-0.126-1.315,0.042-1.905
					c0.125-0.408,0.125-0.907-0.042-1.315c-0.126-0.318-0.167-0.681-0.084-1.044c0.084-0.453,0.293-0.952-0.083-1.315
					c-0.084-0.136,0-0.317,0.041-0.499c0.042-0.453,0.126-0.862-0.125-1.451c-0.042,0.227-0.042,0.317-0.042,0.362
					c0,0.636-0.084,1.406-0.084,2.087c0,0.182,0,0.408-0.042,0.544c-0.041,0.182-0.251,0.182-0.334,0.046
					c-0.084-0.046-0.126-0.091-0.252-0.227C79.171,48.868,79.297,49.775,79.087,50.547z M79.297,50.456c0.041,0,0.083,0,0.083,0
					c0.084,0.182,0.21,0.408,0.21,0.59c-0.084,0.68-0.21,1.36-0.252,2.041h-0.041C79.297,52.225,79.297,51.317,79.297,50.456z
					 M80.176,56.035c-0.084,0.228-0.21,0.409-0.293,0.636c0-0.363,0-0.771,0-1.18C79.966,55.673,80.092,55.809,80.176,56.035z
					 M80.092,57.669c0.251,0.59,0.418,1.18,0,1.814C80.092,58.849,80.092,58.259,80.092,57.669z M83.942,37.98
					c-0.419-0.544-0.754-0.136-1.214-0.227C83.147,38.162,83.523,37.98,83.942,37.98z"/>
			</g>
		</g>
		<g>
			<g>
				<path d="M10.737,13.691v-0.902c0-0.067-0.154-0.569-0.34-0.569L8.36,12.254c-0.556,0-0.556-0.368-0.556-0.938v-0.301
					c0-1.338,0.031-2.141,1.111-2.141h0.463c1.111,0,4.908,0.033,5.989,0.067c0.154,0,0.74,0.066,0.864,0.101
					c0.339,0.033,0.432,0.568,0.432,1.07c0,0.233-0.03,0.468-0.03,0.635v0.502c0,0.602-0.278,1.137-0.68,1.137l-2.191,0.135
					l0.03,17.325c0,0.368-0.092,0.937-0.463,0.937h-2.067c-0.278,0-0.556-0.201-0.556-0.636
					C10.707,24.662,10.737,19.177,10.737,13.691z"/>
				<path d="M17.311,17.538c0-4.214,0.154-9.198,4.847-9.198c2.099,0,4.414,1.472,4.568,4.182c0.093,1.705,0.124,3.378,0.124,5.084
					c0,2.141-0.063,4.314-0.093,6.589c0,0.101,0,0.134,0,0.134c-0.247,3.946-0.463,6.789-4.445,6.789
					c-1.481,0-3.828-0.301-4.321-2.475C17.373,26.234,17.311,21.284,17.311,17.538z M22.157,27.739c0.524,0,1.05-0.334,1.204-1.171
					c0.154-3.444,0.247-8.127,0.247-11.506v-1.738c-0.093-0.971-0.371-1.473-1.513-1.473c-1.42,0-1.451,1.037-1.451,2.074v0.401
					c0,6.757,0,9.666,0.093,12.309C20.83,27.238,21.509,27.739,22.157,27.739z"/>
				<path d="M37.956,7.805h0.618c7.254,0,8.89,0.636,8.89,15.219v0.268c-0.154,4.014-0.803,6.623-7.902,6.623
					c-0.309,0-1.173-0.034-1.234-1.205c0-0.033,0,0,0-0.468c0-1.138-0.063-5.117-0.68-19.733C37.647,8.24,37.709,7.973,37.956,7.805
					z M40.858,12.086c0,3.612,0.247,7.626,0.339,11.271c0,0.268,0.063,2.008,0.063,2.309c0.03,0.2,0,0.77,0.246,0.937
					c2.315-0.368,2.778-1.204,2.778-5.084v-0.837l-0.062-1.104c-0.247-4.481-0.432-8.228-2.654-8.228
					c-0.247,0-0.463,0.033-0.71,0.134V12.086z"/>
				<path d="M49.715,9.043c0.031-0.368,0.062-0.837,0.463-0.971c0.741-0.1,1.451-0.1,2.13-0.1h2.933
					c2.408,0.233,2.964,2.475,3.148,4.682c0,3.813-0.092,5.118-0.123,5.452c-0.401,1.873-1.543,2.04-1.944,2.609
					c0,0.033,0,0.101,0.03,0.134c0.803,1.84,2.347,5.652,2.347,8.662c0,0.569-1.821,0.67-2.192,0.736
					c-0.493,0-0.556-0.803-0.648-1.237c0-1.338-1.357-7.292-2.716-7.292c-0.216,0-0.587,0.033-0.648,0.301v3.646
					c0,1.305-0.031,2.575-0.031,3.88c0,0.401-0.03,0.702-0.432,0.702h-2.161c-0.556,0-0.556-0.869-0.556-1.338L49.715,9.043z
					 M52.74,18.24c0,0.436,0.401,0.568,0.771,0.568c0.834,0,1.39-0.133,1.605-1.07c0.123-1.404,0.123-2.273,0.123-3.611v-1.64
					c-0.154-0.702-0.617-1.07-1.266-1.07c-0.679,0-1.08,0.268-1.142,1.004L52.74,18.24z"/>
				<path d="M60.054,25.298c0-2.308,0.093-5.117,0.247-8.931c0.093-2.007,0.186-4.281,0.34-6.957c0-0.234,0.216-0.468,0.463-0.468
					h2.007c0.401,0,0.493,0.368,0.493,0.735l-0.432,19.935c0,0.401-0.093,0.77-0.587,0.837l-1.914,0.301
					c-0.277,0-0.463-0.301-0.463-0.568C60.115,28.609,60.054,27.104,60.054,25.298z"/>
				<path d="M68.695,14.562c-0.062,0-0.093,0.669-0.093,1.772c0,2.843,0.154,8.629,0.154,13.914c0,0.736-0.524,0.836-1.049,0.836
					c-0.186,0-0.371-0.033-0.556-0.033c-0.124,0-0.371,0.033-0.587,0.033c-0.432,0-0.895-0.1-0.987-0.468l-0.031-9.6
					c0-2.776-0.093-5.586-0.093-8.362c0-0.501,0.031-2.775,0.031-3.277c0.03-0.268,0.186-0.502,0.494-0.502h3.611
					c0.247,0,0.556,0.101,0.556,0.368l4.26,15.386l-0.71-15.353c0.093-0.233,0.309-0.435,0.556-0.435h2.161
					c0.154,0,0.401,0.101,0.463,0.268v0.201c0,1.17,0.185,4.615,0.185,6.923c0,1.07,0.154,6.856,0.154,10.804
					c0,2.141-0.062,3.779-0.185,3.779h-3.148c-0.278,0-0.494-0.234-0.618-0.502L68.695,14.562z"/>
				<path d="M79.156,8.842c0.031-0.535,0.556-0.636,1.019-0.636c1.574,0,1.914,0.101,1.914,0.803v0.368
					c0,1.137,0.031,6.891,0.031,8.094c0,0.135,0,0.201,0.154,0.201c1.357-0.469,2.284-3.813,2.284-6.422V9.478
					c0-0.937,0.556-1.004,1.266-1.004c0.247,0,0.957,0.034,1.203,0.034c0.865,0.033,0.865,1.304,0.865,2.073v0.134
					c0,3.779-1.05,6.154-2.315,8.262c0,0,3.611,1.906,3.611,10.335v0.669c0,0.401-0.03,1.037-0.524,1.037l-2.191,0.033
					c-0.186,0-0.217-0.268-0.217-0.736v-0.769c0-2.074-0.833-8.194-3.488-8.262c-0.185,0-0.586,0.134-0.586,0.368
					c0,3.244-0.031,6.121-0.031,8.529c0,0.468-0.062,0.869-2.037,0.869h-0.71c-0.123,0-0.278-0.201-0.309-0.334l-0.031-1.605
					L79.156,8.842z"/>
			</g>
			<g>
				<path d="M10.737,73.898v-0.902c0-0.067-0.154-0.569-0.34-0.569L8.36,72.461c-0.556,0-0.556-0.368-0.556-0.938v-0.301
					c0-1.338,0.031-2.141,1.111-2.141h0.463c1.111,0,4.908,0.033,5.989,0.067c0.154,0,0.74,0.066,0.864,0.101
					c0.339,0.033,0.432,0.568,0.432,1.07c0,0.233-0.03,0.468-0.03,0.635v0.502c0,0.602-0.278,1.137-0.68,1.137l-2.191,0.135
					l0.03,17.325c0,0.368-0.092,0.937-0.463,0.937h-2.067c-0.278,0-0.556-0.201-0.556-0.636
					C10.707,84.869,10.737,79.384,10.737,73.898z"/>
				<path d="M17.311,77.745c0-4.214,0.154-9.198,4.847-9.198c2.099,0,4.414,1.472,4.568,4.182c0.093,1.705,0.124,3.378,0.124,5.084
					c0,2.141-0.063,4.314-0.093,6.589c0,0.101,0,0.134,0,0.134c-0.247,3.946-0.463,6.789-4.445,6.789
					c-1.481,0-3.828-0.301-4.321-2.475C17.373,86.441,17.311,81.491,17.311,77.745z M22.157,87.946c0.524,0,1.05-0.334,1.204-1.171
					c0.154-3.444,0.247-8.127,0.247-11.506v-1.738c-0.093-0.971-0.371-1.473-1.513-1.473c-1.42,0-1.451,1.037-1.451,2.074v0.401
					c0,6.757,0,9.666,0.093,12.309C20.83,87.445,21.509,87.946,22.157,87.946z"/>
				<path d="M37.956,68.012h0.618c7.254,0,8.89,0.636,8.89,15.219v0.268c-0.154,4.014-0.803,6.623-7.902,6.623
					c-0.309,0-1.173-0.034-1.234-1.205c0-0.033,0,0,0-0.468c0-1.138-0.063-5.117-0.68-19.733
					C37.647,68.447,37.709,68.18,37.956,68.012z M40.858,72.293c0,3.612,0.247,7.626,0.339,11.271c0,0.268,0.063,2.008,0.063,2.309
					c0.03,0.2,0,0.77,0.246,0.937c2.315-0.368,2.778-1.204,2.778-5.084v-0.837l-0.062-1.104c-0.247-4.481-0.432-8.228-2.654-8.228
					c-0.247,0-0.463,0.033-0.71,0.134V72.293z"/>
				<path d="M49.715,69.25c0.031-0.368,0.062-0.837,0.463-0.971c0.741-0.1,1.451-0.1,2.13-0.1h2.933
					c2.408,0.233,2.964,2.475,3.148,4.682c0,3.813-0.092,5.118-0.123,5.452c-0.401,1.873-1.543,2.04-1.944,2.609
					c0,0.033,0,0.101,0.03,0.134c0.803,1.84,2.347,5.652,2.347,8.662c0,0.569-1.821,0.67-2.192,0.736
					c-0.493,0-0.556-0.803-0.648-1.237c0-1.338-1.357-7.292-2.716-7.292c-0.216,0-0.587,0.033-0.648,0.301v3.646
					c0,1.305-0.031,2.575-0.031,3.88c0,0.401-0.03,0.702-0.432,0.702h-2.161c-0.556,0-0.556-0.869-0.556-1.338L49.715,69.25z
					 M52.74,78.447c0,0.436,0.401,0.568,0.771,0.568c0.834,0,1.39-0.133,1.605-1.07c0.123-1.404,0.123-2.273,0.123-3.611v-1.64
					c-0.154-0.702-0.617-1.07-1.266-1.07c-0.679,0-1.08,0.268-1.142,1.004L52.74,78.447z"/>
				<path d="M60.054,85.505c0-2.308,0.093-5.117,0.247-8.931c0.093-2.007,0.186-4.281,0.34-6.957c0-0.234,0.216-0.468,0.463-0.468
					h2.007c0.401,0,0.493,0.368,0.493,0.735l-0.432,19.935c0,0.401-0.093,0.77-0.587,0.837l-1.914,0.301
					c-0.277,0-0.463-0.301-0.463-0.568C60.115,88.816,60.054,87.311,60.054,85.505z"/>
				<path d="M68.695,74.769c-0.062,0-0.093,0.669-0.093,1.772c0,2.843,0.154,8.629,0.154,13.914c0,0.736-0.524,0.836-1.049,0.836
					c-0.186,0-0.371-0.033-0.556-0.033c-0.124,0-0.371,0.033-0.587,0.033c-0.432,0-0.895-0.1-0.987-0.468l-0.031-9.6
					c0-2.776-0.093-5.586-0.093-8.362c0-0.501,0.031-2.775,0.031-3.277c0.03-0.268,0.186-0.502,0.494-0.502h3.611
					c0.247,0,0.556,0.101,0.556,0.368l4.26,15.386l-0.71-15.353c0.093-0.233,0.309-0.435,0.556-0.435h2.161
					c0.154,0,0.401,0.101,0.463,0.268v0.201c0,1.17,0.185,4.615,0.185,6.923c0,1.07,0.154,6.856,0.154,10.804
					c0,2.141-0.062,3.779-0.185,3.779h-3.148c-0.278,0-0.494-0.234-0.618-0.502L68.695,74.769z"/>
				<path d="M79.156,69.049c0.031-0.535,0.556-0.636,1.019-0.636c1.574,0,1.914,0.101,1.914,0.803v0.368
					c0,1.137,0.031,6.891,0.031,8.094c0,0.135,0,0.201,0.154,0.201c1.357-0.469,2.284-3.813,2.284-6.422v-1.772
					c0-0.937,0.556-1.004,1.266-1.004c0.247,0,0.957,0.034,1.203,0.034c0.865,0.033,0.865,1.304,0.865,2.073v0.134
					c0,3.779-1.05,6.154-2.315,8.262c0,0,3.611,1.906,3.611,10.335v0.669c0,0.401-0.03,1.037-0.524,1.037l-2.191,0.033
					c-0.186,0-0.217-0.268-0.217-0.736v-0.769c0-2.074-0.833-8.194-3.488-8.262c-0.185,0-0.586,0.134-0.586,0.368
					c0,3.244-0.031,6.121-0.031,8.529c0,0.468-0.062,0.869-2.037,0.869h-0.71c-0.123,0-0.278-0.201-0.309-0.334l-0.031-1.605
					L79.156,69.049z"/>
			</g>
			<g>
				<path fill="#D94128" d="M35.686,47.416c0,0.727-0.084,1.452-0.084,2.133c0,1.179,0,2.358,0,3.538
					c0,1.451,0.084,2.768,0.126,4.174c0,0.499,0.084,1.043,0.084,1.633c0.042,0.454,0.042,0.952,0.083,1.406
					c0,0.091,0,0.227,0.084,0.317c0.209,0.182,0.168,0.545,0.168,0.998c-0.252-0.091-0.419-0.136-0.628-0.272
					c-0.042,0.272,0,0.499-0.126,0.681c-0.042,0.137-0.293,0.182-0.502,0.317c-0.084,0.182-0.209,0.545-0.293,0.907
					c-0.377-0.136-0.712-0.181-1.13-0.227c-0.084,0.091-0.21,0.227-0.293,0.363c-0.084-0.091-0.21-0.272-0.377-0.363
					c-0.084,0.091-0.126,0.227-0.209,0.363c-0.042-0.137-0.084-0.363-0.21-0.681c-0.083,0.408-0.125,0.726-0.125,0.953
					c-0.293,0.136-0.586,0.317-0.879,0.499c-0.168,0.045-0.293,0.136-0.377,0.136c-0.963,0.045-1.549-0.454-2.009-1.406
					c0.125-0.363,0.251-0.681,0.251-0.907c0-0.681-0.251-1.361,0-2.042c0-0.091,0-0.227-0.126-0.362
					c-0.335-0.681-0.125-1.452-0.167-2.223c0-0.59,0.125-1.18,0.125-1.77s-0.083-1.18-0.125-1.724c0-1.044,0-2.178,0-3.221
					c0-0.182-0.042-0.318-0.126-0.454c0-0.272-0.125-0.59-0.042-0.726c0.168-0.363,0.126-0.59,0.126-0.907
					c-0.126-1.996-0.209-3.901-0.209-5.807c0-2.042,0.125-4.083,0.125-6.079c0-0.227-0.042-0.59,0.293-0.681
					c0.168-0.499,0.503-0.59,0.879-0.771c0.126-0.09-0.125-0.499,0.21-0.499c0.209-0.408,0.586-0.408,0.879-0.68
					c0.125-0.046,0.334-0.046,0.46-0.046c0.461,0.046,0.963,0.182,1.465,0.227c0.126,0,0.293-0.045,0.502-0.045
					c0.084,0.227,0.084,0.408,0.126,0.726c0.712,0.228,1.34,0.862,2.051,1.406c0.042,0.046,0.168,0.182,0.209,0.182
					c0.293-0.182,0.419,0,0.586,0.227c0.838,0.907,1.717,1.86,2.177,3.176c0.042,0.136,0.168,0.317,0.293,0.363
					c0.335,0.317,0.586,0.635,0.754,1.043c0.669,1.271,1.339,2.586,1.967,3.856c0.586,0.952,1.088,1.95,1.674,2.857
					c0.252,0.408,0.503,0.726,0.712,1.271c0.209-0.59,0.293-1.134,0.209-1.724c0-0.727,0-1.497-0.042-2.178
					c0-1.724,0-3.402-0.376-5.126c0-0.046,0-0.137,0-0.228c0.083-0.726,0.209-1.451,0.376-2.132c0.042-0.272,0.168-0.499,0-0.635
					c-0.041-0.046,0.042-0.227,0.042-0.408c0.084-0.182,0.126-0.408,0.126-0.636c0.293-0.589,0.712-0.136,1.046,0
					c0.293,0.091,0.586,0.318,0.921,0.59c0.251-0.136,0.419-0.317,0.67-0.453c0.042,0.136,0.126,0.317,0.167,0.499
					c0.126-0.363,0.252-0.545,0.293-0.862c0.042-0.227,0-0.544,0-0.907c0.545,0.136,0.587,0.545,0.754,0.998
					c0.335-0.227,0.335-0.499,0.419-0.862c0.167,0.091,0.334,0.182,0.376,0.272c0.126,0.454,0.251,0.862,0.377,1.315
					c0.126,0.363,0.126,0.727,0.167,1.089c0.168-0.136,0.293-0.136,0.461-0.182c-0.042,0.408-0.126,0.862-0.126,1.226
					c-0.042,0.181-0.042,0.362-0.042,0.453C50,40.203,50,40.975,49.916,41.837c-0.042,1.179,0,2.449-0.042,3.72
					c-0.041,0.861-0.125,1.724-0.251,2.495c-0.376,0.453-0.042,0.998-0.083,1.497c-0.126,0.59-0.126,1.089-0.084,1.678
					c0.125,0.907,0.084,1.951,0.084,2.858c0,0.635,0.041,1.271,0.041,1.905c0.042,0.136,0,0.136-0.251,0.408
					c-0.042,0.091-0.042,0.272-0.042,0.317c0,0.408,0.042,0.907,0.042,1.361c0.126,1.089,0.251,2.313,0.377,3.447
					c0,0.272,0.293,0.545,0,0.907c-0.126,0-0.251-0.091-0.377-0.091c-0.042,0-0.209,0.182-0.209,0.182
					c0.167,0.545-0.251,0.59-0.46,0.771c-0.21-0.046-0.335-0.227-0.586-0.363c0.041,0.454,0.041,0.727,0.125,0.998
					c-0.167,0-0.419-0.091-0.67-0.091c0,0.59-0.376,0.59-0.628,0.817c-0.293,0.227-0.586,0.408-0.962,0.136
					c-0.084,0.045-0.126,0.091-0.21,0.272c-0.209,0.68-0.753,0.816-1.255,0.861c-0.126,0.046-0.293-0.045-0.461-0.182
					c-0.46-0.227-0.963-0.589-0.963-1.451c0-0.136-0.041-0.363-0.167-0.499c-0.502-0.499-0.502-1.361-0.754-2.087
					c-0.125-0.408-0.209-0.816-0.334-1.271c-0.042-0.227-0.293-0.499-0.252-0.861c0-0.091-0.209-0.227-0.376-0.454
					c0-0.091,0-0.227,0-0.362c0-0.771-0.419-1.361-0.712-1.905c-0.084-0.182-0.251-0.363-0.293-0.499
					c-0.125-0.545-0.418-1.089-0.628-1.497c-0.167-0.272-0.167-0.636-0.377-0.953c-0.083-0.227-0.041-0.726-0.46-0.816
					c-0.042-0.317-0.167-0.635-0.335-0.998c-0.544-0.862-1.004-1.77-1.465-2.631c-0.042-0.137-0.209-0.182-0.419-0.363
					C36.48,48.505,36.146,47.87,35.686,47.416z M29.826,50.728c-0.293,0.454-0.084,0.636,0.084,0.953
					C29.868,51.363,29.868,51.091,29.826,50.728z M30.621,55.446c-0.167,0.907-0.209,1.769-0.042,2.676
					C30.789,56.897,30.872,56.172,30.621,55.446z M30.747,53.813c-0.042-0.59,0.293-0.998-0.042-1.679
					C30.496,52.86,30.496,53.359,30.747,53.813z M32.798,51.091c0,0.635,0,1.225,0,1.86C32.965,52.406,32.965,51.363,32.798,51.091z
					 M32.965,50.139c0-0.182,0.042-0.318,0.042-0.545h-0.042c-0.083,0.182-0.083,0.363-0.125,0.545
					C32.882,50.139,32.882,50.139,32.965,50.139z M45.73,37.572c0.084-0.045,0.21-0.045,0.21-0.182c0-0.317-0.126-0.362-0.503-0.317
					C45.563,37.209,45.689,37.391,45.73,37.572z M45.856,45.058c0.084-0.272,0.251-0.726,0.167-0.816
					c-0.334-0.454-0.209-0.998-0.167-1.497c0-0.272-0.126-0.272-0.293-0.545c-0.042,1.044,0.126,1.951,0.126,2.858
					C45.73,45.058,45.814,45.058,45.856,45.058z"/>
				<path fill="#D94128" d="M52.302,55.582c-0.377-0.545-0.377-0.59-0.042-1.77C52.26,54.493,52.26,55.037,52.302,55.582z
					 M53.683,56.762c-0.042,0-0.084-0.182-0.042-0.182c0.293-0.363,0.126-0.681,0.042-1.044c-0.042-0.362-0.209-0.68-0.377-1.043
					c-0.251,0.136-0.46,0.363-0.711,0.544c-0.042-0.181-0.126-0.408-0.126-0.499c0.209-0.408,0.251-0.68,0.377-0.907
					c0.125-0.227,0.209-0.499,0.209-0.68c0.084-0.499,0.084-0.907-0.042-1.271c-0.125-0.59-0.042-1.134,0-1.679
					c0.042-0.362,0.042-0.726,0-1.043c0-0.182-0.125-0.228-0.167-0.363c-0.084,0.726-0.126,1.543-0.168,2.223
					c0,0.228,0.084,0.499,0.168,0.681c0.042,0.771-0.084,1.543-0.251,2.269c-0.042,0.045-0.126,0.045-0.21,0.227
					c0-0.363,0.042-0.544,0.084-0.726c0-0.726,0-1.361,0-1.951c0-0.499,0-1.043-0.042-1.542c0-0.182,0.042-0.499-0.251-0.545
					c0.084-0.635-0.209-1.27,0.084-1.814c0.042-0.136,0.167-0.271,0.209-0.408c0.084-0.453,0.084-0.771,0-1.18
					c-0.042,0.046-0.084,0.182-0.167,0.409c0-0.363-0.21-0.636,0.083-0.907c0.084-0.046,0.084-0.272,0.084-0.409
					c-0.084-0.771,0.126-1.542,0.293-2.223c0.126-0.544,0.251-1.089,0.377-1.679c0.042-0.045,0.042-0.181,0.042-0.271
					c0.879-0.998,1.088-2.495,1.967-3.539c0.419-0.408,0.628-1.134,1.047-1.587c0.334-0.409,0.669-0.953,1.381-0.953
					c0.419,0,0.921-0.454,1.339-0.681c0.21-0.136,0.461-0.271,0.67-0.136c0.168,0,0.419-0.182,0.586-0.136
					c0.335,0.181,0.712-0.091,0.921,0.362c0,0.091,0.168,0,0.293,0c0.335,0.091,0.628,0.136,0.921,0.136
					c0.167,0,0.377-0.045,0.586-0.045c0.335,0,0.628-0.091,1.005,0c1.423,0.272,2.804,0.771,4.018,1.724
					c0.461,0.363,0.879,0.907,1.256,1.406c0.377,0.408,0.586,0.953,1.13,1.226c0.042,0.045,0.084,0.227,0.084,0.362
					c0.084,0.545,0.586,0.998,0.418,1.588c0.377,0.544,0.419,1.134,0.628,1.724c0.168,0.636,0.293,1.225,0.461,1.905
					c0.084,0.046,0.084,0.182,0.084,0.272c0,1.043,0,1.996,0,3.039c0,0.454-0.084,0.816-0.084,1.18c0,0.907-0.042,1.724-0.293,2.586
					c-0.084,0.544-0.168,1.18-0.209,1.77c-0.084,0.998-0.712,1.859-1.047,2.631c-0.377,0.771-0.753,1.542-1.088,2.313
					c-0.084,0.091-0.126,0.272-0.126,0.408c0.042,0.317-0.125,0.408-0.293,0.635c-0.209,0.363-0.502,0.59-0.795,0.907
					c-0.628,0.681-1.214,1.361-1.968,1.86c-0.125,0.046-0.251,0.272-0.293,0.408c-0.125-0.045-0.251-0.136-0.335-0.136
					c-0.083,0-0.083,0.091-0.083,0.136c-0.21,0.499-0.503,0.907-0.963,1.044c-0.293,0.181-0.712,0.362-0.921,0.635
					c-0.125,0.227-0.377,0.227-0.544,0.272c-0.377,0.136-0.754,0.091-1.047,0.453c-0.083,0.046-0.376,0.091-0.502,0
					c-0.293-0.362-0.711-0.182-1.088-0.272c0,0.272,0,0.363,0,0.499c-0.126-0.136-0.251-0.181-0.335-0.362c0,0.136,0,0.182,0,0.317
					c-0.502-0.136-1.13-0.182-1.591-0.635c-0.125-0.182-0.376-0.046-0.544-0.228c-0.879-0.362-1.758-0.952-2.553-1.678
					c-0.461-0.318-0.838-0.771-1.089-1.361c-0.125-0.363-0.376-0.544-0.544-0.816c-0.335-0.499-0.586-1.134-0.753-1.724
					c0.167-0.091,0.293-0.137,0.46-0.318c0.042,0.046,0.168,0.228,0.293,0.363c0-0.136,0.042-0.182,0.042-0.182
					c-0.084-0.317-0.167-0.544-0.293-0.816c-0.042-0.182-0.084-0.317-0.042-0.59c0.042,0.182,0.168,0.363,0.251,0.499
					c0.168,0.046,0.335,0.091,0.503,0.182c-0.126,0.59-0.126,0.59,0.251,1.089c0-0.182-0.084-0.363-0.084-0.59
					c-0.042-0.136-0.084-0.317-0.167-0.499C53.934,57.215,54.06,56.762,53.683,56.762z M52.385,55.945
					c0.377,0.271,0.168,0.68,0.293,1.134C52.302,56.716,52.427,56.354,52.385,55.945z M53.641,59.483
					c0.126,0.182,0.251,0.272,0.335,0.362c0.084,0,0.084,0,0.126-0.09c0-0.228-0.042-0.454-0.042-0.817
					C53.892,59.166,53.767,59.302,53.641,59.483z M54.98,57.261c-0.168-0.363-0.293-0.727-0.419-1.089
					c-0.042,0.453,0,0.816,0.293,1.134C54.854,57.261,54.896,57.261,54.98,57.261z M55.021,58.168
					c0.126-0.272,0.168-0.499-0.209-0.545C54.896,57.805,54.98,57.94,55.021,58.168z M59.207,63.793
					c-0.083-0.091-0.083-0.136-0.125-0.227c-0.712-0.454-1.507-1.044-2.219-1.497c-0.251-0.137-0.502-0.317-0.544-0.636
					c-0.251-0.861-0.879-1.179-1.465-1.678c0.126,0.317,0.293,0.68,0.419,0.998c-0.126,0.045-0.252,0.045-0.419,0.045
					c0.042,0.136,0.042,0.227,0.042,0.227c0.293,0.545,0.837,0.816,1.172,1.135c0.419,0.362,0.628,0.998,1.256,0.952
					c0.083,0,0.125,0,0.125,0.046c0.168,0.362,0.461,0.362,0.879,0.408c0.293,0.091,0.503,0.227,0.796,0.271
					C59.207,63.838,59.207,63.793,59.207,63.793z M55.147,51.59c0,0.272-0.042,0.635,0,0.862c0.042,0.499,0.168,1.043,0.251,1.542
					c0.042,0.136,0.168,0.182,0.251,0.317c0.084,0,0.168-0.182,0.168-0.227c0.084-0.136,0.209-0.272-0.042-0.454
					c-0.335-0.045-0.293-0.317-0.209-0.589c0.083-0.318,0.251-0.817,0.209-1.135c-0.209-0.499,0-0.816,0-1.225
					c0-0.045,0-0.136-0.042-0.363C55.44,50.818,55.147,51.091,55.147,51.59z M59.082,61.752c-0.251-0.272-0.712-0.363-0.837-0.862
					c0.209-0.136,0.376-0.227,0.586-0.454c-0.377-0.091-0.67-0.362-1.089-0.453c-0.125-0.137-0.209-0.317-0.335-0.499
					c-0.125-0.136-0.251-0.272-0.251-0.454c-0.042-0.68-0.502-1.089-0.921-1.406c-0.334-0.317-0.669-0.544-0.962-0.861
					c0.042,0.453,0.042,0.816,0.042,1.134c0.083,0.091,0.083,0.272,0.125,0.408c0.209,0.499,0.377,0.998,0.628,1.406
					c0.293,0.499,0.544,1.089,1.088,1.315c0.168,0.091,0.419,0.454,0.377,0.681c0,0.363,0.168,0.454,0.377,0.545
					c0.167,0.181,0.418,0.227,0.586,0.271c0.544,0.137,1.046,0.636,1.549,0.499c0.083-0.271,0.083-0.544,0.083-0.861
					c0.21-0.182,0.126-0.545,0.21-0.727c-0.377-0.362-0.377-0.362-0.754-0.317c0.293,0.317,0.251,0.816,0.544,1.044
					C59.71,62.251,59.417,62.114,59.082,61.752z M63.1,58.849c0.377-0.409,0.796-0.727,0.838-1.588
					c-0.335,0.362-0.628,0.544-0.879,0.861c0.041-0.182,0.041-0.362,0.125-0.453c0.168-0.228,0.335-0.363,0.461-0.454
					c-0.168-0.499-0.168-0.861,0.125-1.134c0.042-0.136,0.042-0.272,0.126-0.408c0.042-0.137,0.042-0.272,0.083-0.317
					c0.293-0.318,0.461-0.545,0.461-0.907c0-0.272,0.084-0.454,0.125-0.636c0.293-1.043,0.796-2.087,0.921-3.266
					c0.042-0.499,0.126-1.044,0.251-1.588c0.168-0.771,0.042-1.543-0.083-2.313c-0.126-0.862-0.503-1.725-0.754-2.541
					c-0.042-0.317-0.167-0.499-0.293-0.726c-0.167-0.363-0.376-0.816-0.628-1.225c-0.376-1.18-1.214-2.042-1.967-2.858
					c-0.167-0.091-0.335-0.227-0.544-0.362c-0.084,0.136-0.126,0.136-0.209,0.271c-0.754,0.998-1.298,2.087-1.717,3.312
					c-0.125,0.182-0.251,0.499-0.251,0.727c0.084,0.544-0.084,1.179-0.209,1.724c-0.126,0.998-0.419,2.041-0.628,2.994
					c-0.084,0.227-0.084,0.635,0,0.681c0.167,0.271,0.167,0.362,0.042,0.499c-0.251,0.181-0.168,0.499-0.042,0.68
					c0.167,0.545,0.167,1.044,0.167,1.588c0,0.182-0.083,0.363-0.083,0.499c0.251,1.225,0.251,2.586,0.586,3.766
					c0.293,0.907,0.628,1.633,1.339,2.268c0.21,0.318,0.503,0.363,0.754,0.046c0.335,0.136,0.293,0.363,0.293,0.681
					c0.753,0.271,0.753,0.271,1.214-0.317c0.041-0.046,0.209-0.091,0.293-0.182C63.017,58.439,62.891,58.667,63.1,58.849z
					 M60.631,63.294c-0.335,0-0.628-0.091-0.921-0.136c-0.126,0-0.251,0.045-0.335,0.136c0.46,0.499,1.507,0.408,2.093-0.136
					C61.175,63.203,60.882,63.294,60.631,63.294z M60.296,60.209c-0.042-0.136-0.042-0.182-0.126-0.227
					c-0.042,0-0.167,0-0.209-0.091C60.003,60.209,60.045,60.345,60.296,60.209z M66.825,54.357
					c-0.084,0.136-0.168,0.271-0.251,0.453c-0.251,0.59-0.503,1.271-0.754,1.905c-0.042,0.137-0.167,0.182-0.293,0.363
					c-0.084,0.182-0.209,0.362-0.209,0.59c-0.126,0.271-0.209,0.59-0.335,0.771c-0.084,0.182-0.084,0.272-0.167,0.499
					c0.209-0.271,0.376-0.589,0.627-0.635c0.587-0.317,0.67-0.998,0.963-1.451c0.126-0.137,0.126-0.318,0.126-0.499
					c0-0.091-0.168-0.137-0.168-0.137c0.21-0.635,0.461-1.18,0.628-1.769C66.95,54.448,66.867,54.357,66.825,54.357z M69.964,44.74
					c0-0.363,0-0.681,0-1.135C69.462,43.923,69.881,44.377,69.964,44.74z"/>
				<path fill="#D94128" d="M88.463,35.984c0.293,0.182,0.586,0.272,0.711,0.771c-0.251,0.045-0.502,0.091-0.795,0.091
					s-0.586-0.046-0.795,0.271c-0.084,0.137-0.252,0.137-0.419,0.137c-0.293,0-0.67,0-1.046,0c0.167,0.136,0.293,0.182,0.376,0.272
					c-0.042,0.227-0.083,0.317-0.167,0.544c-0.209-0.091-0.502-0.136-0.795-0.091c-0.293,0-0.545,0.182-0.838,0.272
					c-0.46,0.091-0.962,0.091-1.465,0.091c-0.083,0-0.209,0-0.376,0c0.041,0.453,0.083,0.952,0.167,1.451
					c0.042-0.136,0.042-0.136,0.042-0.271c0.167,0.136,0.251,0.271,0.251,0.498c-0.084,0.998,0.209,1.951,0.167,2.949
					c0,1.089,0.168,2.178,0.168,3.221c0,1.044,0.125,2.087,0.167,3.085c0.084,0.771,0.084,1.451,0.084,2.178
					c0,0.271-0.084,0.544,0.167,0.771c0.126,0.046,0.126,0.182,0.126,0.318c0,1.088,0,2.132,0,3.221
					c0,0.362,0.126,0.681,0.126,1.043c0.041,1.225,0.041,2.541-0.252,3.72c-0.041,0.182,0,0.363,0,0.545
					c0.126,0.816,0,1.588-0.293,2.313c-0.125-0.137-0.251-0.317-0.293-0.499c-0.167,0.136-0.334,0.317-0.544,0.362
					c0,0.182,0,0.454,0,0.636c-0.209,0.227-0.669,0.317-0.46,0.816c-0.209,0-0.544-0.136-0.754-0.045
					c-0.209,0.227-0.293,0-0.293-0.137c-0.042-0.272-0.042-0.499-0.042-0.771c0.126-0.362-0.125-0.227-0.293-0.362
					c-0.041,0.317-0.125,0.635-0.041,0.816c0.083,0.227,0.041,0.499-0.084,0.726c-0.168,0-0.293,0-0.461-0.045
					c-0.041,0.182-0.167,0.317-0.251,0.453c-0.46,0.182-0.962,0.363-1.465,0.545c-0.042,0-0.042,0-0.042,0
					c-0.125-0.137-0.293-0.182-0.376-0.272c-0.293-0.182-0.545-0.272-0.879-0.408c0.041,0,0-0.091,0-0.091
					c-0.377-0.59-0.419-1.271-0.377-2.041c0-0.317,0-0.681,0-1.089c0.084-0.499,0.084-0.907,0.084-1.361
					c0-0.136-0.084-0.272,0-0.408c0.167-0.544,0.083-1.043,0.083-1.542c0-0.636,0.084-1.18,0.084-1.679c0-0.998,0-1.996,0-2.903
					c0-0.091,0-0.182,0-0.182c0.46-0.453,0.209-0.907,0.209-1.36c0-0.454,0.084-0.953,0.084-1.497c0,0-0.084-0.091-0.126-0.091
					c-0.041,0.136-0.125,0.362-0.251,0.635c-0.042-0.272-0.083-0.317-0.083-0.499c0-0.635-0.126-1.361-0.084-2.041
					c0.125-1.089-0.126-2.133-0.042-3.176c0-0.998-0.167-2.041-0.293-3.039c0-0.137-0.084-0.272-0.084-0.454
					c0.21-0.544,0-1.043-0.042-1.542s-0.042-0.862-0.042-1.361c0-0.317-0.083-0.726-0.083-1.134
					c-0.628-0.091-2.344-0.137-2.93-0.228c-0.084,0-0.168,0-0.293,0c-0.377-0.045-0.712,0-0.879-0.499
					c-0.084-0.181-0.377-0.816-0.377-0.952c0-0.408,0.084-0.816,0.544-0.907c0.042,0,0.042-0.091,0.126-0.182
					c0,0,0.167-0.59,0.167-0.681c1.423-0.499,4.019-0.681,5.524-0.681c1.633-0.09,3.265-0.136,4.897-0.271
					c0.586-0.046,1.172-0.317,1.8-0.182c0.795,0.182,1.632-0.045,2.386,0.182c0.419,0.136,0.837,0.136,1.256,0.182
					c0.167,0,0.293,0.271,0.167,0.499c-0.125,0-0.293,0.09-0.586,0.09c0.168,0.091,0.293,0.182,0.335,0.228c0,0,0,0.091-0.042,0.091
					c-0.293,0-0.586,0-0.837,0c-0.126,0-0.167-0.091-0.209,0c-0.126,0-0.21,0-0.419,0.136c0.712,0.272,1.298,0.454,2.009,0.771
					C88.839,35.939,88.63,35.984,88.463,35.984z M77.245,51.862c0.042,0.091,0.126,0,0.126,0.091
					c0.042,0.136,0.042,0.271,0.126,0.362c-0.084,0.091-0.126,0.091-0.21,0.091C77.287,52.225,77.245,52.089,77.245,51.862z
					 M77.664,49.866c0-0.317,0-0.59,0-0.771C77.538,49.367,77.497,49.594,77.664,49.866z M78.417,53.132
					c0-0.181,0.042-0.362,0.042-0.589c-0.042,0-0.042,0-0.083,0c0,0.227,0,0.408,0,0.589H78.417z M78.878,48.868
					c0-0.182,0-0.317,0-0.454c0,0-0.084,0-0.126,0c0,0.137-0.042,0.182-0.042,0.363C78.752,48.777,78.794,48.777,78.878,48.868z
					 M78.71,49.549c0,0.227,0,0.499,0,0.726C79.003,50.048,78.92,49.775,78.71,49.549z M79.087,50.547c-0.042,0.181,0,0.408,0,0.68
					c0,0.182,0,0.499-0.084,0.636c-0.251,0.227,0.084,0.271,0.042,0.408c-0.042,0.182-0.042,0.317,0.042,0.544
					c0.126,0.272,0.21,0.816,0.084,1.135c-0.293,0.816-0.251,1.678-0.251,2.495c0,0.181,0.083,0.362,0.125,0.544
					c0.461-0.635,0-1.361,0.335-2.041c0.251,0.499,0.251,0.499,0.21,0.726c-0.084,0.499-0.126,0.907,0,1.315
					c0.041,0.136,0.083,0.317,0.041,0.453c-0.293,0.545,0,1.044,0.126,1.543c0,0.317,0.042,0.635,0.209,0.726
					c0.251,0.136,0.251,0.454,0.251,0.681c0,0.453,0.126,0.907,0,1.361c-0.041,0.227,0,0.453,0,0.816
					c0.335-0.363,0.461-0.59,0.419-0.907c0-0.363-0.084-0.681-0.084-1.044c0.084-0.952,0.21-1.95,0.084-2.903
					c-0.126-0.771,0-1.679,0.042-2.54c0.084-0.816,0.251-1.588-0.042-2.404c-0.167-0.545-0.126-1.315,0.042-1.905
					c0.125-0.408,0.125-0.907-0.042-1.315c-0.126-0.318-0.167-0.681-0.084-1.044c0.084-0.453,0.293-0.952-0.083-1.315
					c-0.084-0.136,0-0.317,0.041-0.499c0.042-0.453,0.126-0.862-0.125-1.451c-0.042,0.227-0.042,0.317-0.042,0.362
					c0,0.636-0.084,1.406-0.084,2.087c0,0.182,0,0.408-0.042,0.544c-0.041,0.182-0.251,0.182-0.334,0.046
					c-0.084-0.046-0.126-0.091-0.252-0.227C79.171,48.868,79.297,49.775,79.087,50.547z M79.297,50.456c0.041,0,0.083,0,0.083,0
					c0.084,0.182,0.21,0.408,0.21,0.59c-0.084,0.68-0.21,1.36-0.252,2.041h-0.041C79.297,52.225,79.297,51.317,79.297,50.456z
					 M80.176,56.035c-0.084,0.228-0.21,0.409-0.293,0.636c0-0.363,0-0.771,0-1.18C79.966,55.673,80.092,55.809,80.176,56.035z
					 M80.092,57.669c0.251,0.59,0.418,1.18,0,1.814C80.092,58.849,80.092,58.259,80.092,57.669z M83.942,37.98
					c-0.419-0.544-0.754-0.136-1.214-0.227C83.147,38.162,83.523,37.98,83.942,37.98z"/>
			</g>
		</g>
	</g>
	<g>
		<rect x="2.302" y="40.663" transform="matrix(0.9873 0.1589 -0.1589 0.9873 8.0988 -2.1275)" width="30.103" height="17.839"/>
		<g>
			<path fill="#FFFFFF" d="M12.293,42.93l0.048-0.037c0.271-0.047,0.578-0.009,0.92,0.113c0.341,0.123,0.62,0.285,0.839,0.485
				c0.096,0.091,0.205,0.236,0.326,0.437c0.12,0.2,0.207,0.387,0.263,0.563c0.047,0.143,0.084,0.272,0.115,0.39
				c0.028,0.119,0.044,0.245,0.043,0.381c-0.002,0.135-0.01,0.296-0.025,0.481c-0.017,0.186-0.041,0.418-0.071,0.699
				c-0.107,0.842-0.198,1.509-0.27,2.001c-0.072,0.493-0.148,0.896-0.227,1.206c-0.078,0.312-0.165,0.575-0.263,0.793
				c-0.097,0.218-0.233,0.479-0.407,0.782c-0.192,0.33-0.344,0.588-0.457,0.773c-0.113,0.185-0.222,0.337-0.324,0.456
				c-0.102,0.119-0.212,0.218-0.329,0.297c-0.116,0.079-0.274,0.178-0.476,0.296c-0.396,0.223-0.727,0.357-0.991,0.405
				c-0.266,0.047-0.556,0.023-0.875-0.073c-0.448-0.147-0.813-0.45-1.093-0.909c-0.28-0.46-0.468-1.002-0.561-1.627
				c-0.096-0.625-0.087-1.301,0.023-2.029c0.11-0.727,0.324-1.434,0.644-2.12c0.233-0.505,0.49-0.979,0.771-1.424
				c0.279-0.444,0.562-0.835,0.845-1.174c0.284-0.338,0.558-0.61,0.82-0.817C11.844,43.072,12.08,42.956,12.293,42.93z
				 M12.98,44.486l-0.007,0.043c0.028-0.176-0.021-0.259-0.147-0.249s-0.303,0.109-0.527,0.299c-0.449,0.379-0.854,0.834-1.21,1.364
				s-0.651,1.092-0.886,1.687s-0.396,1.19-0.484,1.785c-0.09,0.596-0.085,1.143,0.017,1.641c0.201,0.996,0.586,1.412,1.153,1.247
				c0.319-0.084,0.626-0.286,0.922-0.608c0.294-0.321,0.574-0.746,0.84-1.276c0.104-0.209,0.188-0.391,0.256-0.546
				c0.065-0.155,0.118-0.305,0.155-0.449s0.069-0.298,0.095-0.459c0.026-0.162,0.051-0.361,0.075-0.599
				c0.084-0.784,0.119-1.388,0.104-1.813c-0.015-0.424-0.076-0.817-0.185-1.182c-0.055-0.174-0.101-0.347-0.135-0.518
				C12.98,44.682,12.969,44.56,12.98,44.486z"/>
			<path fill="#FFFFFF" d="M19.705,44.01l-0.037-0.028c0.142-0.022,0.246-0.04,0.311-0.052c0.065-0.013,0.121-0.015,0.168-0.008
				c0.048,0.008,0.107,0.025,0.18,0.053c0.072,0.026,0.199,0.076,0.382,0.151c0.378,0.151,0.709,0.339,0.992,0.566
				c0.283,0.226,0.555,0.519,0.816,0.877c0.534,0.748,0.687,1.57,0.458,2.467c-0.076,0.305-0.156,0.56-0.237,0.765
				c-0.081,0.204-0.178,0.393-0.289,0.563c-0.11,0.171-0.244,0.333-0.4,0.489c-0.158,0.155-0.363,0.333-0.618,0.532
				c-0.273,0.228-0.501,0.439-0.685,0.635c-0.185,0.197-0.282,0.332-0.295,0.405c-0.019,0.118,0.063,0.29,0.251,0.515
				c0.186,0.226,0.535,0.598,1.05,1.117c0.62,0.628,1.101,1.164,1.438,1.609c0.339,0.446,0.494,0.757,0.466,0.934
				c-0.007,0.044-0.046,0.102-0.112,0.174s-0.144,0.139-0.229,0.2c-0.087,0.062-0.172,0.111-0.254,0.151
				c-0.083,0.039-0.138,0.049-0.161,0.03c-0.063-0.04-0.197-0.163-0.398-0.369c-0.203-0.206-0.449-0.452-0.736-0.739
				s-0.591-0.6-0.911-0.938c-0.321-0.338-0.618-0.656-0.889-0.956c-0.271-0.3-0.508-0.56-0.709-0.78s-0.323-0.364-0.367-0.432
				c-0.599-0.939-0.28-1.754,0.956-2.443c0.336-0.188,0.643-0.417,0.922-0.688c0.28-0.271,0.502-0.548,0.666-0.83
				s0.263-0.557,0.299-0.822c0.035-0.265-0.016-0.491-0.15-0.679c-0.093-0.12-0.184-0.225-0.273-0.315
				c-0.09-0.089-0.189-0.161-0.298-0.217c-0.109-0.055-0.234-0.102-0.374-0.139c-0.14-0.038-0.312-0.073-0.514-0.106
				c-0.177-0.028-0.32-0.047-0.429-0.058c-0.109-0.009-0.203-0.01-0.281,0c-0.079,0.01-0.147,0.033-0.208,0.068
				c-0.063,0.035-0.125,0.078-0.188,0.128c-0.079,0.063-0.141,0.117-0.183,0.163s-0.071,0.104-0.09,0.177
				c-0.02,0.072-0.03,0.165-0.035,0.277c-0.004,0.112-0.009,0.266-0.011,0.461c-0.005,0.285-0.022,0.542-0.052,0.771
				c-0.03,0.229-0.083,0.45-0.159,0.663c-0.08,0.243-0.139,0.472-0.173,0.685s-0.042,0.479-0.023,0.798
				c0.006,0.302,0.003,0.542-0.012,0.72c-0.016,0.179-0.043,0.348-0.082,0.508c-0.039,0.158-0.094,0.319-0.16,0.481
				c-0.068,0.163-0.144,0.373-0.228,0.63c-0.14,0.445-0.262,0.734-0.365,0.867c-0.104,0.135-0.248,0.187-0.435,0.156
				c-0.134-0.021-0.232-0.067-0.297-0.139c-0.063-0.069-0.094-0.24-0.091-0.512c0.003-0.271,0.034-0.675,0.093-1.216
				c0.06-0.539,0.16-1.288,0.3-2.243c0.066-0.502,0.13-0.984,0.191-1.449c0.062-0.464,0.118-0.885,0.171-1.26
				c0.054-0.376,0.094-0.685,0.119-0.93c0.025-0.244,0.037-0.404,0.036-0.479c-0.003-0.166,0.016-0.317,0.052-0.455
				c0.036-0.137,0.088-0.245,0.156-0.325c0.089-0.12,0.179-0.192,0.271-0.216c0.092-0.022,0.286-0.018,0.582,0.015
				c0.189,0.016,0.394,0.026,0.614,0.031C19.426,44.025,19.592,44.021,19.705,44.01z"/>
		</g>
	</g>
</g>
</svg>
