<?xml version="1.0" encoding="utf-8"?>
<!-- Generator: Adobe Illustrator 16.0.0, SVG Export Plug-In . SVG Version: 6.00 Build 0)  -->
<!DOCTYPE svg PUBLIC "-//W3C//DTD SVG 1.1//EN" "http://www.w3.org/Graphics/SVG/1.1/DTD/svg11.dtd">
<svg version="1.1" id="Layer_1" xmlns="http://www.w3.org/2000/svg" xmlns:xlink="http://www.w3.org/1999/xlink" x="0px" y="0px"
	 width="156.857px" height="151.916px" viewBox="0 0 156.857 151.916" enable-background="new 0 0 156.857 151.916"
	 xml:space="preserve">
<g id="Layer_2">
</g>
<g>
	<path fill="#FFFFFF" d="M39.421,6.779c0,0-37.896,9.993-39.206,28.863c-1.31,18.87,2.905,38.754,25.466,42.037
		c22.562,3.282,46.266-0.367,50.809-5.361C81.029,67.322,39.421,6.779,39.421,6.779z"/>
	<path fill="#FFFFFF" d="M85.641,49.14c0,0,5.383,19.503,15.525,21.804c10.146,2.301-30.323,8.066-35.774,5.634
		c-5.455-2.434-27.598-8.252-26.657-9.095C46.4,60.615,85.641,49.14,85.641,49.14z"/>
	<path fill="#FFFFFF" d="M59.981,82.461c4.506-8.533,13.708-6.566,21.593-8.643c4.276-1.128,6.857-3.649,11.668-4.29
		c5.643-0.754,9.314-0.631,14.279,1.637c7.6,3.469,11.862,9.48,18.865,13.714c2.436,1.474,8.326,4.044,10.775,1.478
		c2.649-2.773-0.628-8.504,1.864-11.115c13.214,3.703,22.718,19.142,15.139,31.689c-3.563,5.901-8.652,9.086-15.535,10.353
		c-8.045,1.479-14.21,3.862-22.204,1.082c2.546,14.532-11.424,40.762-29.182,31.688c-3.243-1.657-6.645-4.36-8.893-7.269
		c-2.561-3.311-3.028-6.899-4.833-10.503c-0.838-1.675-1.814-3.255-2.771-4.835c-1.405-2.328-1.475-3.028-3.604-2.668
		c-2.113,0.355-26.854,23.297-43.084,4.49c-8.688-10.063-3.092-25.895,7.05-32.916c0.424,2.422,15.329,0.715,17.063-0.639
		C52.237,92.545,59.981,82.461,59.981,82.461z"/>
	<g>
		<path fill="#231F20" d="M119.44,84.545c4.468,4.478,10.189,8.293,15.977,7.988c2.534-0.146,4.276-1.193,5.706-3.865
			c1.985-3.67,0.451-5.215-0.795-8.56c2.881-0.534,7.18,3.154,8.472,6c1.328,3.007,6.259,20.018-14.108,26.207
			c-7.616,2.158-47.543-0.721-46.762-35.76C100.226,69.699,111.225,76.813,119.44,84.545z"/>
		<path fill="#FFFFFF" d="M116.136,87.244c2.569,2.049,5.757,4.205,8.715,4.862c-4.326,1.529-15.618-7.688-17.039-8.957
			c-2.77-2.416-10.685-7.215-17.378-2.293c-0.437-0.244,3.351-4.184,10.995-2.982C108.757,79.028,113.056,84.842,116.136,87.244z"/>
		<path fill="#FFFFFF" d="M141.747,95.026c-1.938,0.775-6.687,1.295-12.633-0.635c2.903,1.896,8.136,3.269,13.627,1.922
			c1.523-0.381,5.664-2.728,4.998-7.213c-0.275-1.783-1.023-2.731-2.193-3.752C148.187,88.31,145.112,93.667,141.747,95.026z"/>
		<path fill="#39454A" d="M115.2,90.551c-2.991-2.405-6.299-4.472-9.477-6.569c-2.806-1.811-6.222-3.015-9.104-3.151
			c-1.423-0.071-6.32,0.426-6.203,2.065c1.057-0.258,2.706-0.689,4.169-0.842c5.959-1.207,17.406,7.391,19.986,9.219
			c4.705,3.437,11.978,5.281,11.818,4.92C126.39,96.19,118.278,93.097,115.2,90.551z"/>
		<path fill="#39454A" d="M114.034,97.058c-2.246-1.451-14.754-8.977-17.857-8.947c-1.079,0.009-4.429-0.521-4.507,1.906
			c0.771-0.231,1.979-0.625,3.059-0.742C98.115,88.472,108.893,96.885,114.034,97.058z"/>
		<path fill="#39454A" d="M110.593,90.493c9.956,5.673,23.827,12.564,35.449,6.77c-11.599,8.188-23.911,1.592-34.107-4.521
			c-6.879-3.902-12.807-7.624-16.185-7.371c-2.084,0.018-4.464,0.287-5.981,0.438C95.831,80.942,104.732,87.312,110.593,90.493z"/>
	</g>
	<g>
		<path fill="#231F20" d="M55.92,95.631c-2.474,5.581-6.479,11.554-11.922,14.42c-2.365,1.257-4.259,1.308-6.313-0.254
			c-2.802-2.218-1.887-4.373-1.766-7.953c-2.648,0.91-5.368,6.427-5.756,9.732c-0.405,3.511-0.928,22.437,20.379,14.288
			c8.369-3.475,46.364-23.799,32.165-48.346C68.449,77.485,60.294,86.344,55.92,95.631z"/>
		<path fill="#FFFFFF" d="M40.323,114.798c2.008-0.438,6.572-2.688,11.526-7.521c-2.117,3.098-6.606,7.188-12.092,9.209
			c-1.507,0.547-5.898,0.836-6.45-3.601c-0.224-1.77,0.189-3.022,0.945-4.555C32.702,112.405,36.874,115.517,40.323,114.798z"/>
		<path fill="#39454A" d="M61.448,100.787c1.551-2.978,3.434-5.748,5.162-8.431c1.506-2.272,3.717-4.289,5.944-5.36
			c1.101-0.528,3.394-0.285,2.151,0.114c-5.251,1.23-11.06,11.563-12.493,13.949c-2.651,4.558-8,9.213-7.981,8.855
			C54.231,109.916,59.833,103.974,61.448,100.787z"/>
		<path fill="#39454A" d="M64.25,106.021c1.472-3.086,9.438-13.795,12.778-15.367c1.167-0.547,3.4-0.555,2.167-0.063
			c-4.067,1.272-9.528,8.322-12.414,12.724C65.95,104.616,64.556,106.465,64.25,106.021z"/>
		<path fill="#39454A" d="M65.22,98.834c-5.952,8.56-15.045,20.789-25.979,21.937c11.622,0.783,19.667-10.621,25.771-19.775
			c2.801-3.961,5.193-7.523,7.346-9.666c0.927-0.904,4.965-3.104,5.815-3.438C72.555,86.996,66.647,96.876,65.22,98.834z"/>
		<path fill="#FFFFFF" d="M81.169,80.961c-1.346-1.313-2.953-1.485-4.503-1.073c-1.63,0.092-4.931,1.117-7.227,2.762
			c-3.765,2.791-6.882,8.953-8.079,11.149c-1.013,1.892-2.405,4.068-4.063,5.378c4.666-0.578,8.974-12.708,16.575-15.513
			c0.926-0.021,1.871,0.226,2.563,0.959C78.666,86.938,83.646,83.08,81.169,80.961z"/>
	</g>
	<path fill="#231F20" d="M76.366,116.585c0,0,3.349-18.141,11.961-20.729c6.464-1.942,21.47,13.355,16.936,16.844
		C100.73,116.187,79.235,122.729,76.366,116.585z"/>
	<path fill="#BE1E2D" d="M77.162,115.056c0,0,16.55-14.287,27.77-6.111c11.219,8.173-6.442,27.621-6.442,27.621l-18.08-8.375
		L77.162,115.056z"/>
	<path fill="#FFFFFF" d="M77.932,107.149c0,0,7.853-11.715,20.045-7.534c8.593,2.948,1.987-3.034-4.413-5.228
		c-2.682-0.92-7.779,1.047-7.779,1.047l-8.146,9.539L77.932,107.149z"/>
	<path fill="#FFFFFF" d="M79.69,123.26c0,0,16.122,15.144,25.017,0.606c8.898-14.541-4.329,15.841-4.329,15.841l-17.21-7.823
		L79.69,123.26z"/>
	<g>
		<path fill="#C3996B" d="M90.614,92.304c-4.399,1.701-2.344,0.035-5.067,0.4c-8.779,5.771-13.055,20.795-13.055,20.795
			c0.082-1.041,1.953,2.557,2.565,4.35c11.738,54.754,46.616,16.553,33.272-4.666c-0.128-0.203,0.673-3.746,0.87-5.07
			C106.934,102.79,100.149,90.792,90.614,92.304z M78.303,116.539c1.924-3.753,1.704-8.731,3-12.195
			c3.344-8.958,7.454-8.26,10.692-8.317c3.238-0.062,6.204,7.08,10.839,14.971c0.476,0.805,1.702,2.208,3.25,3.383
			C108.063,142.492,79.846,142.468,78.303,116.539z"/>
		<path fill="#231F20" d="M94.54,146.782L94.54,146.782c-5.246,0-14.848-3.739-20.216-28.777c-0.396-1.146-1.333-3.006-1.84-3.756
			c-0.041,0-0.083-0.004-0.125-0.012c-0.379-0.068-0.646-0.413-0.615-0.797c0.013-0.15,0.046-0.282,0.102-0.397
			c0.583-1.92,4.939-15.476,13.289-20.966c0.095-0.063,0.201-0.102,0.313-0.116c1.339-0.183,1.762,0.054,2.169,0.285
			c0.137,0.078,0.154,0.088,0.262,0.088c0.385,0,1.213-0.246,2.467-0.729c0.05-0.021,0.101-0.033,0.152-0.043
			c0.585-0.092,1.178-0.14,1.761-0.14c10.135,0,16.468,13.657,17.635,16.396c0.054,0.127,0.071,0.269,0.052,0.404
			c-0.076,0.512-0.241,1.352-0.409,2.204c-0.167,0.849-0.41,2.082-0.458,2.534c4.949,8.051,3.08,17.505-0.342,23.698
			C105.285,142.903,99.846,146.782,94.54,146.782z M73.413,113.054c1.159,1.26,2.341,4.512,2.354,4.553
			c3.781,17.619,10.615,27.676,18.771,27.677c4.76,0,9.696-3.582,12.883-9.351c3.24-5.863,5.015-14.813,0.274-22.351
			c-0.211-0.335-0.216-0.491,0.366-3.444c0.142-0.721,0.28-1.43,0.363-1.929c-1.003-2.291-7.094-15.287-16.169-15.287
			c-0.479,0-0.967,0.037-1.448,0.109c-1.479,0.569-2.331,0.803-2.932,0.803c-0.504,0-0.792-0.164-1.002-0.283
			c-0.225-0.127-0.418-0.192-1.062-0.124C78.442,98.392,74.329,110.175,73.413,113.054z M93.099,136.481
			c-6.916,0-14.731-6.227-15.545-19.897c-0.009-0.134,0.021-0.269,0.082-0.388c1.044-2.037,1.432-4.508,1.808-6.896
			c0.296-1.885,0.575-3.663,1.157-5.22c3.281-8.794,7.556-8.798,10.676-8.8c0.239-0.001,0.476-0.001,0.706-0.005
			c0.005,0,0.051,0,0.056,0c2.925,0,5.271,4.254,8.515,10.143c0.923,1.673,1.876,3.402,2.93,5.197
			c0.448,0.76,1.643,2.092,3.057,3.165c0.173,0.131,0.28,0.329,0.295,0.545c0.545,7.752-1.188,14.202-4.883,18.166
			C99.552,135.065,96.408,136.481,93.099,136.481z M79.063,116.694c0.817,12.563,7.832,18.287,14.035,18.287
			c2.889,0,5.643-1.246,7.754-3.513c3.354-3.6,4.951-9.522,4.506-16.704c-1.511-1.201-2.69-2.576-3.17-3.389
			c-1.064-1.813-2.023-3.553-2.95-5.234c-2.771-5.025-5.161-9.365-7.2-9.365v-0.75l-0.026,0.75
			c-0.241,0.004-0.485,0.004-0.733,0.005c-2.979,0.002-6.354,0.005-9.271,7.825c-0.528,1.412-0.797,3.119-1.081,4.927
			C80.542,111.97,80.146,114.487,79.063,116.694z"/>
	</g>
	<path fill="#EACCAD" d="M97.445,137.948c2.334-1.874,7.34-3.348,8.181-9.014c0.844-5.664,3.182,1.344,2.255,3.293
		c-0.928,1.948-3.725,9.227-9.137,10.144C93.334,143.287,96.617,138.616,97.445,137.948z"/>
	<g>
		<path fill="#231F20" d="M91.517,115.709c-0.271,0-0.531-0.146-0.665-0.401c-0.896-1.709-1.368-9.354-1.419-10.222
			c-0.024-0.413,0.292-0.769,0.705-0.793c0.401-0.028,0.769,0.292,0.793,0.705c0.185,3.147,0.688,8.541,1.249,9.612
			c0.191,0.367,0.051,0.82-0.315,1.013C91.753,115.683,91.634,115.709,91.517,115.709z"/>
	</g>
	<g>
		<path fill="#5AB1AF" d="M100.459,24.715c-0.31-3.548-6.04-16.177-13.08-18.075C78.8,4.325,69.994-0.437,61.032,0.032
			c-8.789,0.462-17.517,2.744-25.454,6.634c-6.574,3.222-12.89,9.919-17.604,15.467c-4.972,5.847-9.376,13.015-8.599,21.07
			c0.622,6.408,3.946,15.619,9.279,19.357c7.722,5.417,19.436,9.35,28.99,8.649c3.352-0.244,6.866-1.279,10.095-2.373
			c2.725-0.923,3.938-0.166,6.445,0.734c5.502,1.961,11.141,2.669,17.029,3.301c2.481,0.272,5.917,0.482,8.125-0.973
			c3.034-1.998,0.642-2.114-1.34-2.862c-3.891-1.474-5.95-6.913-7.175-10.736c1.99-1.208,10.609-5.532,12.252-6.935
			C100.586,44.948,101.222,33.463,100.459,24.715z"/>
		<g>
			<g>
				<path fill="#FFFFFF" d="M17.492,44.224c0.221,0.072,0.416,0.108,0.622,0.077c0.226,0.241,0.481,0.12,0.694,0.426
					c0.129,0.023,0.271-0.02,0.364,0.199c0.093,0.049,0.207-0.03,0.272-0.018c0.343,0.328,0.728,0.229,1.048,0.688
					c0.413-0.06,0.721,0.465,1.1,0.6c0.058,0.244,0.007,0.335,0.142,0.526c0.053,0.076,0.179-0.068,0.244-0.057
					c0.248,0.111,0.396,0.405,0.651,0.284c-0.012,0.064,0.016,0.104,0.068,0.18c0.08,0.115,0.264,0.214,0.305,0.355
					s-0.008,0.232,0.072,0.348c0.041,0.141,0.168-0.004,0.26,0.046l0.054,0.077c0.133,0.19,0.381,0.302,0.525,0.429
					c0.026,0.038,0.016,0.103,0.016,0.103c0.118,0.089,0.274,0.149,0.381,0.303c0.054,0.076,0.067,0.18,0.046,0.31
					c0.103-0.015,0.13,0.022,0.156,0.062c0.238,0.344,0.801,0.578,1.041,0.922l0.053,0.076c-0.063,0.156-0.031,0.363,0.021,0.44
					l0.054,0.075c0.134,0.192,0.455,0.081,0.573,0.17l0.079,0.115c0.159,0.229,0.407,0.341,0.516,0.493
					c0.079,0.115,0.095,0.218,0.071,0.347c0.117,0.089,0.377,0.135,0.521,0.262c0.106,0.153,0.099,0.386,0.205,0.539
					c0.026,0.038,0.092,0.049,0.118,0.088c0.146,0.126,0.29,0.253,0.474,0.352c-0.051,0.093-0.047,0.26,0.096,0.219
					c-0.149,0.274,0.138,0.359,0.09,0.618c0.13,0.024,0.197,0.203,0.327,0.226c0.005,0.169,0.096,0.219,0.164,0.398
					c0.118,0.088,0.232,0.008,0.386-0.099l0.152-0.106c0.219-0.095,0.514-0.243,0.781-0.43l0.306-0.214
					c0.229-0.159,0.458-0.319,0.718-0.272c0.023-0.131,0.101-0.184,0.177-0.237c0.114-0.08,0.268-0.187,0.41-0.229
					c0.008-0.232-0.125-0.424-0.232-0.577l-0.188-0.268c-0.105-0.153-0.225-0.241-0.304-0.355c-0.16-0.23-0.229-0.41-0.399-0.574
					c-0.119-0.087-0.042-0.141-0.03-0.206c-0.08-0.114-0.169,0.004-0.184-0.1c-0.285-0.653-0.961-0.808-1.116-1.438
					c-0.118-0.088-0.236-0.176-0.289-0.252c-0.055-0.076-0.043-0.142-0.058-0.244c-0.054-0.077-0.119-0.09-0.172-0.165l-0.335-0.562
					l-0.067-0.18c-0.055-0.077-0.059-0.245-0.071-0.348c-0.055-0.077-0.172-0.165-0.188-0.268c-0.053-0.077-0.042-0.143-0.028-0.207
					l-0.16-0.229c0.011-0.065,0.022-0.13-0.004-0.169c0.039-0.026-0.093-0.049-0.08-0.113c0,0,0.039-0.027,0.012-0.065
					c-0.096-0.218-0.266-0.383-0.335-0.562c0.022-0.131-0.019-0.271,0.005-0.4c-0.16-0.23-0.279-0.318-0.271-0.552l-0.08-0.114
					c-0.106-0.153-0.163-0.398-0.271-0.551l-0.104-0.153l-0.4-0.574c-0.133-0.19-0.229-0.408-0.193-0.603
					c-0.063-0.012-0.104,0.014-0.142,0.041c0.023-0.129-0.134-0.191-0.214-0.306c-0.003-0.167,0.085-0.286,0.055-0.492
					c-0.105-0.153-0.168,0.004-0.297-0.021c-0.027-0.037-0.063-0.012-0.092-0.049c-0.08-0.115-0.045-0.31-0.126-0.425
					c-0.079-0.114-0.263-0.214-0.229-0.408c-0.08-0.114-0.146-0.127-0.211-0.139c-0.094-0.217-0.162-0.396-0.27-0.55
					c-0.054-0.076-0.106-0.152-0.198-0.203c-0.003-0.168-0.06-0.412-0.155-0.631c0.111-0.247,0.59-0.297,0.662-0.518
					c0.114-0.08,0.244-0.057,0.321-0.109c0.114-0.08,0.034-0.195,0.11-0.248c0.131,0.022,0.256-0.122,0.397-0.164
					c0.18-0.068,0.271-0.019,0.45-0.087l0.306-0.213c0.346-0.24,0.636,0.013,0.979-0.228l0.076-0.054
					c0.299,0.021,0.646-0.052,0.905-0.005c0.592,0.439,1.281,0.128,1.873,0.568c0.232,0.008,0.471,0.185,0.702,0.192
					c0.159,0.229,0.423,0.443,0.286,0.654c0.053,0.075,0.141-0.043,0.193,0.034l0.08,0.114c0.159,0.23,0.446,0.314,0.68,0.321
					c0.119,0.089,0.264,0.216,0.396,0.406l0.562,0.804c0.09,0.05,0.182,0.1,0.235,0.176c0.092,0.05,0.105,0.152,0.159,0.229
					c0.106,0.152,0.226,0.241,0.306,0.355c0.053,0.076,0.067,0.18,0.019,0.271l0.268,0.383c0.134,0.191,0.294,0.42,0.271,0.549
					c0.08,0.117,0.209,0.139,0.251,0.28c0.431,0.212,0.64,0.918,1.147,1.076c0.016,0.103,0.067,0.179,0.147,0.294
					c0.106,0.152,0.277,0.317,0.385,0.47c0.017,0.104,0.003,0.169,0.029,0.207c0.055,0.077,0.146,0.126,0.161,0.229
					c0.026,0.038-0.013,0.064,0.003,0.168s0.188,0.268,0.1,0.386c0.041,0.142,0.13,0.023,0.183,0.101
					c0.004,0.167,0.229,0.408,0.324,0.626c0.053,0.076,0.057,0.243,0.108,0.321c0.08,0.115,0.275,0.149,0.408,0.341l0.107,0.153
					c0.079,0.114,0.175,0.332,0.346,0.496c0.008,0.337,0.297,0.59,0.434,0.948c-0.227,0.329,0.015,0.673-0.018,1.035
					c0.092,0.05,0.235,0.176,0.315,0.29c0.055,0.077,0.107,0.153,0.058,0.245c0.042,0.141,0.104-0.016,0.156,0.061
					c0.294,0.421,0.448,1.053,0.653,1.592c0.017,0.103-0.022,0.129-0.072,0.221c0.105,0.153,0.082,0.282,0.162,0.397
					c0.027,0.037,0.093,0.05,0.146,0.126c0.045,0.31,0.229,0.409,0.339,0.73c0.053,0.076,0.094,0.217,0.121,0.255
					c0.016,0.104-0.047,0.26-0.004,0.401c0.213,0.307-0.043,0.427-0.015,0.634c-0.012,0.064,0.044,0.143-0.008,0.233
					c-0.008,0.232-0.119,0.481-0.153,0.677c-0.207,0.029-0.229,0.159-0.383,0.266c-0.24,0.225-0.572,0.4-0.775,0.598l-0.383,0.266
					c-0.153,0.107-0.308,0.214-0.513,0.244c-0.18,0.068-0.428-0.042-0.698-0.023c-0.039,0.026,0.015,0.103-0.023,0.129
					c-0.207,0.031-0.4-0.005-0.619,0.091c-0.168,0.003-0.313-0.123-0.53-0.028c-0.193-0.034-0.365-0.198-0.599-0.207
					c-0.184-0.1-0.354-0.264-0.512-0.326c-0.117-0.088,0.062-0.156,0.008-0.232c-0.244,0.058-0.361-0.031-0.496-0.223l-0.213-0.306
					c-0.053-0.076-0.236-0.176-0.316-0.29c-0.117-0.089-0.159-0.23-0.276-0.318c-0.027-0.038-0.093-0.05-0.119-0.088l-0.079-0.114
					c-0.16-0.23-0.282-0.486-0.489-0.456c-0.188,0.302-0.428,0.525-0.695,0.713c-0.354,0.305-0.766,0.533-1.186,0.826
					c-0.268,0.187-0.547,0.438-0.762,0.701c0.08,0.115,0.019,0.271,0.125,0.424l0.054,0.077c-0.214,0.263,0.247,0.681,0.228,0.978
					c0.147,0.295,0.398,0.574,0.561,0.805c0.079,0.113,0.007,0.334,0.187,0.268c-0.11,0.247,0.011,0.503-0.023,0.698
					c-0.022,0.13-0.1,0.183-0.123,0.313c-0.05,0.091,0.003,0.169,0.019,0.271c-0.034,0.194-0.096,0.351-0.157,0.507
					c0.004,0.169-0.03,0.363-0.093,0.52l-0.076,0.053c-0.114,0.08-0.11,0.248-0.198,0.367c-0.077,0.053-0.165,0.171-0.23,0.16
					c-0.049,0.091-0.099,0.183-0.176,0.235c-0.268,0.187-0.668,0.183-0.975,0.396l-0.191,0.133
					c-0.037,0.027-0.129-0.022-0.167,0.004c-0.142,0.042-0.191,0.134-0.295,0.148c-0.038,0.027-0.13-0.023-0.298-0.02
					c-0.104,0.016-0.219,0.095-0.321,0.11c-0.168,0.004-0.427-0.043-0.622-0.077c-0.104,0.014-0.13-0.023-0.193-0.035
					c-0.299-0.02-0.489,0.114-0.727-0.063c-0.438,0.023-0.958-0.069-1.225-0.452c-0.131-0.023-0.224-0.073-0.275-0.149l-0.213-0.306
					c-0.119-0.089-0.274-0.149-0.354-0.265l-0.148-0.294c-0.159-0.23-0.484-0.288-0.709-0.529l-0.08-0.113
					c-0.105-0.154-0.175-0.334-0.281-0.486l-0.08-0.115c-0.08-0.114,0.035-0.194-0.045-0.31c-0.026-0.038-0.092-0.05-0.054-0.076
					c-0.236-0.176-0.435-0.379-0.621-0.646c-0.186-0.267-0.335-0.562-0.533-0.765c-0.054-0.076-0.091-0.049-0.146-0.127
					l-0.105-0.152c-0.08-0.115-0.16-0.229-0.176-0.332c-0.145-0.127-0.289-0.254-0.369-0.367c-0.133-0.191-0.229-0.41-0.259-0.616
					l-0.106-0.153c-0.159-0.229-0.411-0.509-0.402-0.741c-0.168,0.004-0.286-0.085-0.366-0.2c-0.08-0.113-0.121-0.255-0.229-0.408
					c-0.063-0.012-0.155-0.061-0.183-0.1c-0.187-0.268-0.231-0.577-0.365-0.768l-0.054-0.077c-0.118-0.088-0.313-0.123-0.457-0.249
					l-0.107-0.153c-0.186-0.268-0.35-0.665-0.59-1.009l-0.104-0.154c-0.081-0.115-0.199-0.202-0.308-0.355l-0.053-0.076
					c-0.053-0.076-0.029-0.205-0.108-0.32c-0.08-0.115-0.226-0.242-0.332-0.395c-0.054-0.076-0.08-0.115-0.096-0.217
					c-0.054-0.078-0.13-0.024-0.222-0.074c-0.281-0.485-0.548-0.867-0.818-1.418c-0.095-0.218-0.061-0.413-0.192-0.604
					c-0.055-0.077-0.172-0.166-0.213-0.307c-0.017-0.104-0.03-0.207-0.101-0.386c0,0-0.09-0.05-0.053-0.076
					c-0.026-0.039,0.012-0.065,0.012-0.065c-0.041-0.141-0.235-0.176-0.164-0.397c-0.296-0.588-0.422-1.013-0.651-1.59
					c0.021-0.13-0.059-0.245,0.004-0.401l-0.055-0.076c-0.267-0.383,0.071-0.958,0.271-1.325c0.391-0.499,1.003-0.925,1.512-1.337
					C17.095,44.388,17.286,44.254,17.492,44.224z"/>
			</g>
			<g>
				<path fill="#FFFFFF" d="M90.043,11.641l0.195,0.01c0.195,0.009,0.438,0.068,0.484,0.12c0.098,0.005,0.051-0.047,0.1-0.044
					c0.34,0.064,0.725,0.229,1.019,0.242c0.099,0.005,0.146,0.008,0.245-0.037c0.045,0.1-0.052,0.096-0.009,0.195
					c0.096,0.053,0.098,0.004,0.294,0.014c0.044,0.1-0.054,0.096-0.007,0.146c0.244,0.012,0.235,0.207,0.432,0.216
					c0.089,0.2,0.33,0.261,0.319,0.505c-0.005,0.098,0.093,0.103,0.14,0.153c-0.007,0.147,0.084,0.298,0.077,0.444
					c0.035,0.296,0.021,0.589,0.061,0.836c0.034,0.295,0.272,0.453,0.265,0.648c-0.005,0.098-0.151,0.092-0.104,0.143
					c0.036,0.246,0.228,0.354,0.218,0.549c-0.007,0.146-0.304,0.229-0.313,0.426c-0.006,0.147,0.094,0.104,0.139,0.203
					c-0.063,0.291-0.069,0.438,0.067,0.64c-0.105,0.191-0.155,0.188-0.213,0.382c-0.103,0.094-0.252,0.137-0.308,0.28
					c0.044,0.101,0.14,0.153,0.287,0.16c0.089,0.2-0.022,0.489,0.164,0.693c-0.062,0.242-0.121,0.484-0.129,0.631
					c-0.004,0.098-0.009,0.196,0.038,0.247l-0.005,0.098c-0.009,0.195-0.107,0.239-0.213,0.382c0.175,0.449-0.036,0.782,0.189,1.185
					c-0.008,0.146-0.206,0.235-0.066,0.389c-0.052,0.047-0.101,0.044-0.149,0.042l-0.011,0.245c-0.051,0.047-0.1,0.044-0.198,0.039
					c0.042,0.148,0.181,0.352,0.175,0.498c-0.005,0.098-0.06,0.193-0.208,0.235c-0.017,0.342,0.123,0.544,0.207,0.843
					c-0.099-0.005-0.104,0.093-0.151,0.091c0.089,0.2,0.23,0.304,0.222,0.5c-0.005,0.099-0.104,0.142-0.157,0.237
					c-0.008,0.146,0.087,0.249,0.131,0.35c-0.061,0.242-0.12,0.484-0.135,0.777c-0.014,0.293,0.021,0.589,0.154,0.889
					c-0.102,0.094-0.155,0.189-0.162,0.336c-0.006,0.146,0.038,0.246,0.08,0.396c-0.005,0.097-0.104,0.142-0.202,0.138
					c0.035,0.295-0.021,0.488,0.214,0.646c-0.005,0.098-0.053,0.096-0.151,0.141c0.093,0.102-0.057,0.143-0.109,0.239
					c0.045,0.1-0.053,0.095-0.011,0.244c-0.002,0.049,0.044,0.1,0.142,0.104c-0.009,0.195-0.114,0.387,0.028,0.441
					c-0.051,0.048-0.053,0.097-0.055,0.146c-0.005,0.098,0.134,0.251,0.178,0.351c-0.104,0.143-0.203,0.188-0.308,0.328
					c0.042,0.15,0.188,0.156,0.229,0.305c-0.056,0.146-0.063,0.292-0.212,0.383l-0.009,0.195c-0.013,0.244-0.072,0.486-0.134,0.777
					c0.046,0.052,0.184,0.254,0.175,0.449c-0.003,0.049-0.057,0.145-0.106,0.191c-0.012,0.244-0.022,0.488-0.132,0.729
					c0.142,0.105-0.063,0.291,0.075,0.494c-0.102,0.044-0.153,0.139-0.205,0.186c-0.009,0.196,0.036,0.296-0.069,0.438
					c-0.003,0.049,0.147,0.008,0.193,0.059c0.045,0.1-0.019,0.391-0.071,0.486c0.04,0.197,0.08,0.396,0.068,0.641l-0.009,0.195
					c0.089,0.199,0.13,0.349-0.073,0.535c0.086,0.249,0.121,0.545,0.106,0.838L92.751,36.8c0.14,0.153,0.028,0.441,0.119,0.594
					c-0.103,0.094-0.114,0.338-0.213,0.382c-0.005,0.098-0.009,0.196-0.06,0.242c-0.2,0.088-0.26,0.282-0.41,0.373
					c-0.017,0.342-0.266,0.429-0.328,0.72c-0.049-0.002-0.051,0.047-0.147,0.041c0.043,0.102-0.009,0.196-0.063,0.292
					c-0.101,0.044-0.206,0.235-0.402,0.227c-0.054,0.095-0.205,0.187-0.261,0.331c-0.147-0.008-0.299,0.133-0.445,0.126
					c-0.051-0.003-0.097-0.054-0.146-0.056c-0.2,0.089-0.398,0.129-0.594,0.119c-0.636-0.029-1.155-0.445-1.84-0.477
					c-0.146-0.007-0.093-0.102-0.188-0.155c-0.049-0.003-0.197,0.04-0.195-0.009c-0.1,0.044-0.249,0.086-0.396,0.078
					c-0.439-0.02-0.965-0.338-1.199-0.544c0.004-0.098,0.156-0.189-0.089-0.2l-0.195-0.01c-0.139-0.202-0.327-0.357-0.461-0.608
					c0.004-0.099,0.146-0.043,0.149-0.092c-0.187-0.204-0.321-0.456-0.405-0.753c0.005-0.098,0.103-0.094,0.155-0.189
					c0.007-0.146-0.138-0.201-0.035-0.295c0.007-0.146-0.092-0.151-0.188-0.204c0.054-0.097-0.037-0.247-0.032-0.345
					c0.057-0.145,0.101-0.045,0.059-0.193c-0.045-0.1,0.009-0.195,0.014-0.294c0.007-0.146-0.088-0.249-0.081-0.396l0.005-0.098
					c0.002-0.049-0.045-0.1-0.042-0.148c-0.04-0.198,0.021-0.439-0.067-0.641c0.104-0.142,0.112-0.337,0.219-0.479l-0.134-0.3
					c0.053-0.096,0.104-0.143,0.11-0.289c0.002-0.049,0.055-0.096,0.058-0.145l0.007-0.146c0.009-0.195-0.032-0.393-0.021-0.639
					c0.014-0.293,0.123-0.532,0.138-0.825l0.007-0.146c0.004-0.098-0.042-0.149-0.09-0.2c0.026-0.587,0.055-1.174,0.173-1.608
					c0.005-0.098,0.103-0.093,0.104-0.143c-0.039-0.198,0.021-0.44-0.02-0.638c0.003-0.049-0.093-0.103-0.088-0.199
					c0.007-0.147,0.112-0.339,0.122-0.534c-0.044-0.1-0.188-0.204-0.033-0.344c-0.046-0.052-0.042-0.149-0.04-0.198
					c0.007-0.146,0.063-0.291,0.069-0.438c0.01-0.196-0.03-0.394-0.023-0.541c0.007-0.146,0.06-0.241,0.162-0.334
					c-0.042-0.15-0.24-0.109-0.334-0.213c-0.103,0.094-0.394,0.031-0.539,0.024c-0.098-0.005-0.146-0.007-0.199,0.04
					c-0.095-0.053-0.241-0.061-0.339-0.064c-0.293-0.014-0.592,0.07-0.931,0.006c-0.146-0.056-0.287-0.16-0.386-0.164
					c-0.145-0.057-0.244-0.012-0.34-0.065c-0.049-0.002-0.096-0.054-0.145-0.056l-0.188-0.155l-0.244-0.011l-0.767-0.379
					c-0.146-0.007-0.196-0.009-0.247,0.037c-0.43-0.265-1.013-0.34-1.34-0.698c-0.099,0.044-0.146-0.007-0.243-0.011
					c-0.374-0.41-0.849-0.727-1.166-1.279c-0.234-0.207-0.52-0.416-0.649-0.765c-0.28-0.307-0.357-0.751-0.54-1.054
					c0.002-0.049-0.039-0.197,0.009-0.195c-0.046-0.051-0.092-0.103-0.137-0.203c0.003-0.049,0.054-0.096,0.056-0.144
					c-0.179-0.352-0.344-1.045-0.319-1.583c0.007-0.146,0.064-0.34,0.022-0.488c0.007-0.146-0.035-0.295-0.03-0.393
					c0.005-0.099,0.007-0.147,0.058-0.194c0.057-0.144-0.025-0.491,0.032-0.685c0.053-0.096,0.152-0.14,0.159-0.286
					c0.005-0.098-0.044-0.1-0.039-0.197c0.004-0.099,0.056-0.146,0.061-0.243c0.009-0.195-0.082-0.346-0.07-0.59l0.073-0.535
					l0.007-0.147c0.007-0.147-0.133-0.3,0.068-0.438l0.006-0.098c0.011-0.244,0.12-0.484,0.132-0.729l0.007-0.146
					c0.101-0.045,0.198-0.04,0.248-0.086c0.005-0.098-0.095-0.054-0.039-0.198c0.005-0.098,0.147-0.042,0.202-0.138
					c-0.045-0.1-0.087-0.248-0.083-0.347c0.003-0.049,0.104-0.143,0.111-0.288l0.006-0.099l0.1-0.044
					c0.105-0.191,0.021-0.488,0.176-0.629c0.012-0.244-0.126-0.447,0.12-0.484c0.02-0.391,0.319-0.523,0.527-0.809
					c0.347-0.082,0.79-0.11,1.134-0.143c0.098,0.004,0.096,0.053,0.142,0.104c0.247-0.037,0.349-0.081,0.495-0.124l0.1,0.005
					c0.243,0.012,0.493-0.075,0.739-0.113c0.293,0.014,0.581,0.125,0.822,0.234c0.049,0.002,0.1-0.045,0.148-0.042
					c0.386,0.115,0.572,0.32,0.911,0.434c0.076,0.444,0.518,0.465,0.546,0.907l0.138,0.202c-0.007,0.147-0.106,0.191-0.067,0.39
					c-0.004,0.097,0.095,0.102,0.139,0.201c-0.002,0.049-0.055,0.096-0.057,0.145c-0.002,0.049,0.094,0.104,0.091,0.152
					c-0.002,0.048-0.149,0.09-0.063,0.29c0.193,0.058,0.328,0.309,0.315,0.603c-0.004,0.049-0.008,0.146-0.062,0.242
					c-0.002,0.049,0.096,0.053,0.142,0.104c0.087,0.298-0.072,0.536,0.017,0.735c-0.057,0.145-0.109,0.24-0.02,0.391
					c-0.049-0.002-0.098-0.004-0.147,0.043c0.035,0.295-0.029,0.635,0.109,0.789c-0.061,0.242-0.068,0.438-0.077,0.633
					c-0.02,0.391,0.013,0.784,0.036,1.324c-0.103,0.094-0.113,0.338-0.071,0.486c-0.004,0.098-0.103,0.094-0.104,0.143
					c-0.053,0.096,0.095,0.102,0.091,0.15c0.047,0.101-0.055,0.145-0.06,0.242c0.094,0.104,0.042,0.149,0.033,0.345
					c-0.003,0.049,0.094,0.103,0.089,0.2l-0.053,0.096c-0.017,0.342-0.031,0.684,0.153,0.889c-0.007,0.146,0.035,0.295,0.031,0.394
					l-0.005,0.098c0.233,0.255,0.213,0.695,0.395,0.998c0.193,0.058,0.285,0.209,0.428,0.313c0.192,0.059,0.2-0.088,0.396-0.129
					l0.162-0.335c0.353-0.18,0.326-0.671,0.537-1.005c0.149-0.041,0.202-0.137,0.304-0.23c-0.044-0.1-0.039-0.197-0.084-0.297
					c0.202-0.139,0.165-0.385,0.419-0.568c0.008-0.146,0.206-0.236,0.066-0.39c0.205-0.188,0.13-0.68,0.431-0.813
					c-0.097-0.053-0.088-0.248,0.015-0.293c-0.047-0.051-0.045-0.1-0.043-0.148c0.01-0.195,0.113-0.338,0.171-0.531
					c0.002-0.049-0.044-0.1-0.041-0.148c0.016-0.342,0.128-0.68,0.293-1.064c-0.045-0.101-0.089-0.199-0.084-0.297
					c0.011-0.245,0.171-0.531,0.185-0.824c0.019-0.392-0.013-0.785,0.005-1.176c0.003-0.05,0.055-0.096,0.06-0.193l0.007-0.146
					c0.013-0.293-0.068-0.641-0.056-0.934l0.007-0.147c0.005-0.097,0.106-0.19,0.11-0.288l0.01-0.195
					c0.003-0.049,0.104-0.143,0.158-0.238c0.162-0.336,0.231-0.773,0.488-1.006c0.348-0.131,0.694-0.213,1.085-0.195
					c0.049,0.003,0.054-0.095,0.056-0.144C89.558,11.521,89.954,11.441,90.043,11.641z"/>
			</g>
			<g>
				<path fill="#FFFFFF" d="M34.459,27.91c0.349-0.033,0.683-0.199,0.989,0c0.083-0.041,0.167-0.082,0.278-0.067
					c0.223,0.029,0.418,0.214,0.67,0.3c0.225,0.451,0.436,0.98,0.479,1.381c0.252,0.297,0.502,0.172,0.644,0.454
					c0.14,0.282,0.057,0.534,0.112,0.858c0.168,0.129,0.31,0.199,0.364,0.521c0.098,0.093,0.21,0.108,0.293,0.066l0.056,0.113
					c0.113,0.226,0.337,0.255,0.462,0.403c0.127,0.149,0.252,0.296,0.364,0.521c0.226,0.452,0.353,1.022,0.449,1.325
					c0.07,0.035,0.168,0.128,0.225,0.24c0.057,0.113,0.099,0.303,0.183,0.473l0.084,0.169c0.057,0.113,0.225,0.241,0.322,0.333
					l0.084,0.169c0.111,0.226,0.183,0.473,0.295,0.698c0.084,0.169,0.211,0.317,0.309,0.41c0.056,0.112,0.07,0.246,0.057,0.323
					c0.295,0.486,0.645,0.876,0.896,1.384l0.111,0.225c0.141,0.283,0.112,0.648,0.227,0.874c0.125,0.147,0.236,0.163,0.377,0.233
					c0.183,0.262,0.308,0.41,0.42,0.636c0.251,0.087,0.545,0.363,0.754,0.681c0.127,0.148-0.041,0.23,0.043,0.4
					c0.268,0.432,0.449,0.902,0.716,1.123c0.098,0.092,0.153,0.205,0.237,0.373l0.196,0.396c0.141,0.281,0.28,0.563,0.462,0.824
					c0.113,0.226,0.351,0.39,0.49,0.672c0.098,0.091,0.153,0.204,0.182,0.261c0.281,0.563,0.758,1.102,1.148,1.681
					c0.169,0.339,0.295,0.698,0.506,1.017c0.223,0.239,0.6,0.474,0.865,0.694l0.488,0.25c0.392,0.157,0.643,0.243,1.102,0.015
					c0.557-0.347,0.735-0.718,0.119-1.958L50.375,46.1c0.015-0.076-0.042-0.189-0.027-0.268c-0.1-0.302-0.127-0.568-0.169-0.76
					l-0.113-0.225c-0.111-0.227-0.267-0.432-0.336-0.678c-0.084-0.17-0.1-0.303-0.101-0.514c-0.068-0.035-0.181-0.049-0.235-0.162
					c-0.479-1.171-0.846-2.326-1.461-3.355c-0.111-0.226-0.238-0.375-0.351-0.6c-0.057-0.113-0.07-0.247-0.127-0.36
					c-0.084-0.169-0.21-0.317-0.295-0.487c-0.195-0.395-0.309-0.831-0.491-1.303c-0.085-0.169-0.21-0.317-0.267-0.431
					c-0.056-0.112-0.07-0.246-0.084-0.379c-0.057-0.113-0.168-0.129-0.252-0.298c-0.029-0.267-0.101-0.515-0.212-0.74
					c-0.253-0.507-0.63-0.952-0.91-1.517l-0.056-0.112c-0.058-0.113-0.154-0.205-0.211-0.318c-0.267-0.43-0.506-1.015-0.785-1.58
					l-0.478-0.958c-0.338-0.678-0.688-1.276-0.955-1.919c-0.098-0.302-0.153-0.625-0.295-0.907l-0.195-0.395
					c-0.226-0.451-0.352-0.812-0.575-1.264l-0.168-0.338c0.026-0.154,0.096-0.329,0.207-0.525c0.067-0.175,0.108-0.405,0.207-0.524
					c0.11-0.196,0.334-0.377,0.514-0.537c0.139-0.14,0.292-0.355,0.389-0.475c0.125-0.063,0.349-0.033,0.475-0.096
					c0.167-0.083,0.277-0.277,0.528-0.191c0.182-0.161,0.361-0.32,0.569-0.424l0.168-0.084c0.459-0.228,1.059,0.037,1.545-0.136
					c0.238,0.163,0.504,0.383,0.771,0.393c0.11,0.226,0.334,0.256,0.418,0.424c0.099,0.094,0.153,0.206,0.211,0.319
					c0.14,0.281,0.237,0.584,0.405,0.923c0.058,0.112,0.1,0.302,0.127,0.358c0.058,0.113,0.195,0.185,0.253,0.298
					c0.168,0.338,0.253,0.718,0.422,1.056c0.084,0.17,0.168,0.339,0.336,0.468c0.069,0.246,0.153,0.625,0.295,0.907
					c0.113,0.226,0.266,0.431,0.434,0.559c0.043,0.19,0.168,0.339,0.24,0.586c0.041,0.189-0.084,0.252,0.084,0.59
					c0.113,0.226,0.336,0.466,0.561,0.707l0.196,0.395c0.141,0.283,0.21,0.529,0.128,0.78c0.168,0.339,0.393,0.58,0.337,0.888
					c0.084,0.17,0.183,0.052,0.267,0.22c0.014,0.134,0.069,0.247,0.099,0.304c0.084,0.169,0.21,0.317,0.295,0.487
					c0.166,0.127,0.293,0.275,0.418,0.424l0.365,0.733c0.112,0.226,0.225,0.452,0.393,0.579c0.084,0.169-0.042,0.231,0.043,0.401
					c0.183,0.261,0.518,0.517,0.657,0.799c0.028,0.057,0.042,0.19,0.059,0.323c0.166,0.128,0.235,0.374,0.35,0.6
					c0.098,0.092,0.237,0.163,0.321,0.333l0.084,0.168c0.085,0.17,0.169,0.34,0.211,0.53c0.056,0.112,0.042,0.189,0.057,0.323
					c0.042,0.189,0.155,0.415,0.239,0.584c0.477,0.96,1.246,1.984,1.653,2.907c0.056,0.112,0.126,0.359,0.211,0.529
					c0.111,0.436,0.238,0.795,0.365,1.155c0.226,0.661,0.437,1.189,0.425,1.689c0,0.209,0.014,0.344-0.015,0.497
					c0.001,0.212,0.043,0.401-0.024,0.575c0.055,0.113,0.069,0.247,0.168,0.34c-0.111,0.195-0.013,0.499-0.151,0.638
					c0.042,0.19,0.015,0.345,0.058,0.535c-0.387,0.896-0.731,1.771-1.092,2.725c-0.057,0.097-0.084,0.041-0.209,0.104
					c-0.026,0.153-0.096,0.329-0.055,0.519c-0.208,0.104-0.305,0.434-0.527,0.615c-0.192,0.236-0.5,0.248-0.484,0.592
					c-0.236,0.259-0.474,0.306-0.598,0.578c-0.182-0.049-0.182,0.161-0.335,0.166c-0.068,0.176-0.318,0.301-0.583,0.503
					c-0.25,0.124-0.543,0.27-0.822,0.337c-0.485,0.172-1.058,0.175-1.504,0.326c-0.084,0.041-0.151,0.006-0.265-0.009
					c-0.556,0.347-1.253,0.412-1.839,0.07c-0.334,0.166-0.669-0.09-0.92,0.034l-0.14,0.141c-0.319-0.123-0.643-0.245-0.962-0.155
					c-0.488-0.251-1.03,0.02-1.521-0.44c-0.278,0.068-0.584,0.08-0.836-0.217c-0.502,0.038-0.95-0.443-1.41-0.636
					c-0.112-0.226-0.266-0.221-0.267-0.431c-0.112-0.016-0.098,0.118-0.278,0.067c-0.322-0.333-0.881-0.617-1.244-1.141
					c-0.125-0.148-0.21-0.317-0.335-0.466c-0.239-0.374-0.588-0.764-0.813-1.215c-0.086-0.17-0.142-0.281-0.184-0.471
					c-0.168-0.129-0.336-0.467-0.365-0.734c-0.518-0.518-0.799-1.292-1.219-1.928c-0.238-0.373-0.559-0.707-0.728-1.045
					c-0.112-0.225-0.238-0.374-0.352-0.6c-0.141-0.281-0.266-0.641-0.365-0.943c-0.068-0.035-0.153-0.205-0.266-0.221l-0.14-0.282
					c-0.28-0.563-0.616-1.03-0.897-1.594c-0.084-0.17-0.084-0.381-0.141-0.493c-0.142-0.282-0.352-0.6-0.49-0.881
					c-0.141-0.283-0.197-0.607-0.366-0.945c-0.195-0.395-0.435-0.77-0.658-1.221c-0.056-0.112-0.141-0.282-0.267-0.43
					c-0.014-0.134-0.001-0.211,0.026-0.365c-0.098-0.092-0.182-0.051-0.266-0.22c-0.043-0.19-0.127-0.359-0.238-0.585
					c-0.254-0.508-0.574-1.052-0.701-1.41c-0.099-0.093-0.153-0.205-0.21-0.318c-0.142-0.282-0.269-0.641-0.422-1.057l-0.448-0.902
					c-0.28-0.564-0.563-1.129-0.66-1.642c-0.098-0.093-0.196-0.185-0.224-0.241c-0.113-0.225-0.03-0.479-0.018-0.766
					c0.027-0.155-0.015-0.345-0.001-0.422c0.025-0.364,0.387-0.896,0.608-1.287l0.192-0.449c0.194-0.237,0.501-0.459,0.835-0.625
					s0.695-0.276,0.945-0.4c0.167-0.084,0.348-0.243,0.473-0.306C34.165,27.844,34.305,27.915,34.459,27.91z"/>
			</g>
			<g>
				<path fill="#FFFFFF" d="M48.35,24.393c0.002-0.131,0.167-0.161,0.268-0.258c0.297,0.038,0.598-0.187,0.895-0.148
					c0.101-0.097,0.166-0.096,0.234-0.227c0.162,0.102,0.33-0.06,0.492,0.042c0.102-0.098,0.135-0.13,0.268-0.127
					c0.132,0.003,0.229,0.038,0.363-0.026l0.193,0.201c0.169-0.227,0.143-0.524,0.213-0.787c0.068-0.13,0.169-0.227,0.203-0.326
					c0.309-0.62,0.483-1.243,0.955-1.696c0.199-0.193,0.468-0.387,0.67-0.581c0.201-0.194,0.336-0.389,0.537-0.583l0.168-0.162
					c0.301-0.226,0.734-0.514,1.063-0.508c0.103-0.097,0.199-0.063,0.268-0.128c0.656,0.078,1.392-0.369,2.046-0.094
					c0.133-0.063,0.229-0.028,0.364-0.092c0.261,0.203,0.591,0.144,0.853,0.213c0.064,0.068,0.063,0.135,0.129,0.201
					c0.133,0.003,0.232-0.094,0.364-0.092c0.129,0.134,0.261,0.137,0.394,0.072l0.195,0.202c0.098,0.101,0.164,0.036,0.229,0.036
					c0.455,0.405,0.919,0.281,1.373,0.686c0.133,0.003,0.295,0.104,0.394,0.205c0.129,0.135,0.191,0.268,0.223,0.433
					c0.26,0.202,0.521,0.34,0.746,0.574l0.098,0.101c0.063,0.133,0.063,0.265,0.158,0.365l0.099,0.101
					c0.161,0.168,0.095,0.233,0.188,0.399c0.064,0.134,0.26,0.27,0.189,0.465l0.194,0.202c0.29,0.302,0.482,0.568,0.644,0.869
					c-0.035,0.099-0.036,0.164-0.104,0.229c0.191,0.333,0.12,0.662,0.378,0.996c-0.037,0.23-0.01,0.461-0.079,0.657
					c0.033,0.035,0.1,0.035,0.164,0.104c-0.143,0.524,0.146,0.958,0.039,1.45c0.031,0.033,0.099,0.035,0.131,0.068
					c0.097,0.101,0.062,0.265,0.06,0.397c0.061,0.265,0.223,0.432,0.117,0.728c0.162,0.167,0.227,0.301,0.388,0.468
					c0.063,0.068,0.129,0.135,0.228,0.17c0.098,0.101-0.035,0.163,0.062,0.264s0.195,0.137,0.326,0.204
					c0.155,0.432,0.613,0.639,0.639,1.134c0.131,0.068,0.229,0.104,0.326,0.203c0.032,0.033,0.097,0.102,0.096,0.166
					c0.523,0.208,0.98,0.48,1.506,0.557l0.064,0.066c0.162,0.168,0.36,0.105,0.458,0.206c0.032,0.033,0.031,0.101,0.096,0.167
					c0.199-0.063,0.364-0.093,0.563-0.089c0.065,0.001,0.099,0.035,0.131,0.068c0.231-0.095,0.461,0.075,0.691,0.046
					c0.031,0.033,0.031,0.1,0.031,0.1c0.129,0.134,0.359,0.104,0.525,0.076c0.13,0.067,0.029,0.164,0.16,0.232
					c0.132,0.004,0.134-0.063,0.269-0.192c0.229,0.038,0.493,0.042,0.752,0.312c0.231-0.029,0.458,0.206,0.721,0.277
					c0.094,0.298,0.251,0.663,0.08,1.021c0.064,0.067,0.098,0.101,0.096,0.167c-0.104,0.163-0.17,0.293-0.141,0.459
					c-0.473,0.584-1.077,1.167-1.58,1.652c-0.329-0.007-0.66,0.054-0.995,0.311l-0.13-0.134c-0.166,0.095-0.33,0.06-0.53,0.188
					c-0.428-0.041-0.855-0.016-1.254,0.043l-0.097-0.101c-0.231,0.094-0.595,0.055-0.889-0.049c-0.366,0.156-0.729,0.117-1.092,0.21
					c-0.103,0.097-0.201,0.128-0.333,0.126c-0.065-0.002-0.131-0.068-0.194-0.136c-0.201,0.128-0.397,0.06-0.598,0.187
					c-0.065-0.002-0.131-0.068-0.13-0.135c-0.2,0.129-0.397,0.125-0.594-0.01c-0.101,0.097-0.067,0.13-0.168,0.161
					c-0.035,0.099,0.096,0.167,0.062,0.266c0.099,0.034,0.197,0.003,0.265,0.004c0.161,0.169,0.29,0.368,0.419,0.502
					c0.065,0.068,0.164,0.036,0.197,0.07c0.13,0.068,0.227,0.169,0.324,0.271c0.097,0.101,0.16,0.167,0.294,0.17l0.191,0.268
					c0.26,0.268,0.554,0.372,0.813,0.641l0.192,0.201c-0.005,0.33-0.213,0.854-0.717,1.339c-0.672,0.647-1.408,1.292-2.065,1.214
					c-0.467,0.256-0.928,0.248-1.355,0.206c-0.099,0.032-0.199,0.063-0.265,0.062l-0.624-0.111c-0.101,0.032-0.164-0.035-0.23-0.037
					c-0.164-0.035-0.329-0.005-0.494-0.042c-0.329-0.005-0.688-0.178-1.048-0.349c-0.262-0.137-0.453-0.471-0.782-0.542
					c-0.063-0.067-0.129-0.135-0.127-0.2c-0.362,0.025-0.621-0.309-0.913-0.545c-0.098-0.1-0.229-0.103-0.359-0.171
					c-0.26-0.202-0.486-0.438-0.78-0.608c-0.063-0.066-0.063-0.133-0.062-0.198c-0.199,0.062-0.229-0.169-0.357-0.304
					c-0.033-0.033-0.063-0.066-0.131-0.068c0.002-0.064-0.063-0.133-0.127-0.199c-0.098-0.102-0.261-0.203-0.29-0.368
					c-0.133-0.004-0.162-0.169-0.292-0.237c-0.1-0.035-0.23-0.037-0.297-0.104c-0.127-0.135-0.256-0.334-0.318-0.533
					c-0.131-0.069-0.229-0.104-0.356-0.304c0,0-0.031-0.099-0.064-0.134c-0.129-0.133-0.356-0.236-0.486-0.37
					c-0.097-0.101-0.129-0.201-0.126-0.333c-0.165-0.036-0.294-0.17-0.423-0.305c-0.228-0.235-0.42-0.502-0.481-0.701
					c-0.031-0.033-0.099-0.034-0.164-0.035L52.9,35.027c-0.291-0.303-0.615-0.637-0.707-1.002c-0.294-0.17-0.553-0.439-0.813-0.708
					c-0.031-0.033,0.002-0.132-0.063-0.198c-0.032-0.034-0.098-0.035-0.162-0.103c-0.097-0.101-0.193-0.267-0.355-0.435
					l-0.129-0.135c-0.098-0.034-0.029-0.1-0.063-0.199c-0.162-0.102-0.358-0.236-0.487-0.371c-0.162-0.168-0.258-0.334-0.287-0.5
					c-0.033-0.034-0.099-0.035-0.131-0.068c-0.162-0.168-0.158-0.365-0.255-0.532c-0.127-0.2-0.388-0.402-0.55-0.571
					c-0.13-0.134-0.258-0.268-0.354-0.434l-0.097-0.167l-0.064-0.067c-0.097-0.101-0.228-0.169-0.224-0.367
					c-0.031-0.1-0.098-0.035-0.131-0.068c-0.063-0.199-0.16-0.234-0.29-0.367c-0.129-0.135-0.159-0.301-0.255-0.467
					c-0.162-0.168-0.392-0.271-0.387-0.534c-0.099-0.035-0.033,0.032-0.1,0.03c-0.099-0.035,0.034-0.098-0.03-0.165l-0.227-0.234
					c-0.227-0.235-0.354-0.436-0.513-0.735l0.234-0.226c0.201-0.194,0.335-0.324,0.341-0.588c0.231-0.095,0.301-0.226,0.435-0.354
					l0.167-0.096c0.066-0.064,0.035-0.164,0.167-0.162c0.134-0.063,0.067-0.064,0.203-0.261c0.103-0.162,0.171-0.292,0.271-0.39
					C48.116,24.488,48.184,24.424,48.35,24.393z M53.826,24.166c-0.003,0.131-0.037,0.229-0.072,0.327
					c-0.032,0.032-0.066,0.065-0.133,0.063c-0.038,0.229-0.105,0.428-0.143,0.591c-0.035,0.164-0.073,0.395-0.144,0.524
					l-0.201,0.194c-0.068,0.196,0.027,0.298,0.056,0.595c-0.002,0.132-0.037,0.23-0.037,0.297c0.063,0.133,0.193,0.201,0.29,0.301
					c0.128,0.201,0.124,0.464,0.284,0.697c0.16,0.234,0.387,0.469,0.612,0.704c0.228,0.234,0.452,0.47,0.648,0.605l0.129,0.134
					C55.343,29.433,55.47,29.7,55.629,30c0.198,0.003,0.264,0.069,0.393,0.204c0.064,0.067-0.035,0.165,0.062,0.266
					c0.162,0.168,0.326,0.203,0.489,0.239l0.098,0.101c0.099,0.101,0.161,0.234,0.325,0.271c-0.001,0.065-0.168,0.162-0.104,0.229
					c0.132,0.003,0.265-0.062,0.396,0.008c0.064,0.066,0.097,0.166,0.16,0.233c0.162,0.168,0.36,0.172,0.491,0.174
					c0.011-0.527,0.383-1.081,0.295-1.643c0.308-0.556,0.384-1.147,0.163-1.713c0.104-0.294-0.088-0.561-0.084-0.825
					c0.136-0.194,0.172-0.359,0.01-0.527l-0.064-0.066c0.135-0.129,0.005-0.197-0.061-0.265c0.107-0.492,0.051-0.955-0.14-1.421
					c0.073-0.394-0.251-0.663-0.079-1.022c-0.066-0.002-0.165,0.029-0.198-0.004c0.004-0.197-0.125-0.332-0.188-0.465
					c-0.099-0.035-0.162-0.102-0.229-0.169c-0.228-0.235-0.351-0.634-0.576-0.868c-0.131-0.068-0.458-0.206-0.59-0.209
					c-0.264-0.071-0.564,0.154-0.893,0.082C54.736,23.095,54.298,23.58,53.826,24.166z"/>
			</g>
			<g>
				<path fill="#FFFFFF" d="M62.902,13.197c0.034-0.09,0.154-0.068,0.248-0.11c0.193,0.1,0.457,0.021,0.649,0.12
					c0.094-0.041,0.139-0.023,0.219-0.097c0.087,0.11,0.24,0.041,0.328,0.151c0.093-0.041,0.124-0.056,0.214-0.021
					c0.091,0.034,0.148,0.082,0.256,0.072l0.083,0.187c0.173-0.114,0.229-0.325,0.343-0.487c0.08-0.073,0.172-0.114,0.221-0.173
					c0.366-0.35,0.644-0.732,1.078-0.927c0.188-0.083,0.418-0.148,0.605-0.231c0.186-0.083,0.328-0.184,0.514-0.267l0.156-0.069
					c0.262-0.079,0.633-0.169,0.856-0.084c0.094-0.042,0.152,0.007,0.215-0.021c0.433,0.218,1.048,0.093,1.429,0.445
					c0.104-0.01,0.165,0.039,0.272,0.028c0.127,0.204,0.369,0.245,0.53,0.359c0.028,0.063,0.011,0.107,0.039,0.17
					c0.089,0.033,0.183-0.008,0.272,0.027c0.055,0.123,0.146,0.158,0.253,0.148l0.083,0.186c0.041,0.094,0.104,0.066,0.147,0.084
					c0.211,0.391,0.562,0.42,0.771,0.811c0.09,0.035,0.176,0.146,0.217,0.239c0.056,0.124,0.065,0.231,0.047,0.353
					c0.127,0.204,0.271,0.363,0.369,0.581l0.041,0.093c0.011,0.107-0.023,0.197,0.018,0.29l0.042,0.094
					c0.069,0.155,0.007,0.183,0.031,0.322c0.01,0.106,0.11,0.248,0.015,0.365l0.082,0.187c0.125,0.279,0.19,0.512,0.226,0.757
					c-0.049,0.06-0.064,0.104-0.127,0.132c0.048,0.276-0.084,0.483,0.01,0.777c-0.082,0.148-0.12,0.314-0.217,0.433
					c0.014,0.03,0.059,0.048,0.087,0.11c-0.229,0.325-0.139,0.695-0.335,1.006c0.014,0.031,0.058,0.049,0.072,0.08
					c0.041,0.094-0.023,0.197-0.06,0.286c-0.022,0.198,0.045,0.353-0.101,0.529c0.068,0.155,0.079,0.262,0.147,0.418
					c0.027,0.062,0.057,0.124,0.114,0.173c0.041,0.093-0.064,0.104-0.023,0.196c0.041,0.094,0.101,0.142,0.173,0.222
					c0.001,0.336,0.264,0.591,0.155,0.937c0.073,0.08,0.132,0.129,0.173,0.222c0.016,0.031,0.042,0.094,0.024,0.139
					c0.309,0.272,0.553,0.573,0.896,0.756l0.027,0.063c0.068,0.154,0.223,0.162,0.264,0.254c0.015,0.031-0.004,0.077,0.023,0.14
					c0.152,0.007,0.273,0.026,0.407,0.079c0.046,0.018,0.06,0.049,0.073,0.08c0.184-0.008,0.297,0.165,0.463,0.203
					c0.015,0.031-0.003,0.076-0.003,0.076c0.056,0.125,0.221,0.163,0.342,0.183c0.073,0.08-0.021,0.122,0.052,0.202
					c0.09,0.033,0.107-0.012,0.231-0.067c0.148,0.083,0.329,0.152,0.438,0.401c0.167,0.038,0.264,0.256,0.425,0.37
					c-0.01,0.228,0.009,0.518-0.198,0.722c0.026,0.062,0.041,0.093,0.022,0.139c-0.109,0.086-0.188,0.159-0.21,0.279
					c-0.47,0.283-1.03,0.533-1.497,0.74c-0.225-0.086-0.467-0.128-0.76-0.033L74.811,26.9c-0.138,0.023-0.241-0.041-0.41-0.004
					c-0.283-0.133-0.584-0.223-0.871-0.282l-0.041-0.093c-0.184,0.007-0.422-0.11-0.6-0.256c-0.289,0.018-0.528-0.1-0.802-0.127
					c-0.094,0.041-0.17,0.037-0.26,0.003c-0.045-0.018-0.072-0.08-0.1-0.142c-0.17,0.038-0.287-0.06-0.457-0.021
					c-0.045-0.018-0.072-0.08-0.056-0.125c-0.17,0.038-0.305-0.013-0.404-0.155c-0.094,0.041-0.079,0.072-0.155,0.068
					c-0.049,0.06,0.024,0.14-0.024,0.198c0.06,0.048,0.137,0.052,0.182,0.068c0.067,0.155,0.106,0.325,0.162,0.45
					c0.026,0.063,0.104,0.065,0.117,0.097c0.072,0.079,0.114,0.173,0.155,0.266c0.042,0.094,0.07,0.156,0.158,0.19l0.066,0.231
					c0.109,0.249,0.286,0.394,0.397,0.643l0.082,0.187c-0.086,0.225-0.359,0.532-0.826,0.74c-0.621,0.276-1.289,0.535-1.721,0.318
					c-0.383,0.06-0.697-0.062-0.981-0.196c-0.075-0.003-0.152-0.007-0.195-0.024l-0.401-0.231c-0.077-0.003-0.104-0.065-0.149-0.082
					c-0.104-0.065-0.225-0.087-0.327-0.152c-0.226-0.087-0.43-0.294-0.633-0.501c-0.146-0.159-0.193-0.436-0.401-0.567
					c-0.027-0.062-0.057-0.124-0.038-0.169c-0.256-0.072-0.349-0.366-0.49-0.602c-0.041-0.092-0.132-0.127-0.205-0.207
					c-0.128-0.204-0.225-0.422-0.383-0.611c-0.027-0.063-0.01-0.107,0.006-0.152c-0.151-0.007-0.113-0.173-0.169-0.298
					c-0.014-0.031-0.027-0.062-0.072-0.079c0.018-0.045-0.011-0.107-0.038-0.17c-0.041-0.093-0.129-0.203-0.106-0.324
					c-0.09-0.035-0.07-0.155-0.143-0.235c-0.06-0.048-0.148-0.082-0.177-0.145c-0.056-0.125-0.094-0.294-0.086-0.446
					c-0.073-0.078-0.133-0.127-0.17-0.297c0,0,0.004-0.076-0.011-0.107c-0.057-0.124-0.188-0.251-0.242-0.376
					c-0.041-0.093-0.038-0.169-0.004-0.26c-0.104-0.065-0.159-0.19-0.214-0.313c-0.098-0.219-0.162-0.45-0.156-0.603
					c-0.014-0.03-0.059-0.048-0.104-0.065l-0.139-0.312c-0.125-0.28-0.263-0.591-0.234-0.862c-0.16-0.19-0.271-0.439-0.382-0.688
					c-0.015-0.031,0.034-0.09,0.008-0.151c-0.016-0.031-0.061-0.049-0.087-0.111c-0.041-0.093-0.065-0.231-0.136-0.387l-0.056-0.125
					c-0.059-0.048,0.004-0.076,0.007-0.152c-0.086-0.109-0.187-0.252-0.242-0.376c-0.067-0.155-0.093-0.294-0.071-0.415
					c-0.015-0.031-0.06-0.049-0.072-0.08c-0.069-0.155-0.019-0.29-0.042-0.428c-0.038-0.17-0.167-0.373-0.235-0.528
					c-0.055-0.124-0.11-0.249-0.135-0.388L61.674,16.8l-0.026-0.062c-0.042-0.094-0.114-0.173-0.063-0.308
					c0.002-0.076-0.06-0.049-0.074-0.08c0.008-0.151-0.051-0.2-0.104-0.324c-0.057-0.125-0.036-0.245-0.062-0.385
					c-0.067-0.154-0.2-0.282-0.131-0.463c-0.059-0.049-0.03,0.014-0.075-0.004c-0.06-0.047,0.049-0.059,0.021-0.12l-0.098-0.218
					c-0.098-0.218-0.136-0.387-0.17-0.632l0.218-0.098c0.187-0.083,0.311-0.138,0.38-0.317c0.184-0.007,0.263-0.079,0.388-0.135
					l0.139-0.023c0.063-0.028,0.065-0.104,0.155-0.07c0.107-0.01,0.063-0.027,0.203-0.128c0.11-0.087,0.19-0.159,0.283-0.2
					C62.719,13.204,62.781,13.177,62.902,13.197z M66.719,14.405c-0.034,0.091-0.084,0.148-0.132,0.207
					c-0.03,0.015-0.062,0.028-0.105,0.011c-0.083,0.148-0.181,0.267-0.246,0.369c-0.065,0.104-0.148,0.254-0.229,0.326l-0.187,0.084
					c-0.098,0.116-0.057,0.21-0.111,0.421c-0.034,0.09-0.082,0.148-0.1,0.192c0.01,0.108,0.084,0.188,0.125,0.279
					c0.037,0.171-0.031,0.351,0.021,0.551c0.053,0.2,0.149,0.418,0.245,0.636c0.099,0.218,0.194,0.436,0.295,0.577l0.056,0.125
					c0.098,0.217,0.117,0.432,0.151,0.678c0.136,0.052,0.163,0.114,0.22,0.238c0.026,0.063-0.066,0.104-0.025,0.197
					c0.07,0.154,0.174,0.22,0.277,0.285l0.041,0.094c0.043,0.094,0.053,0.201,0.155,0.267c-0.018,0.044-0.154,0.069-0.128,0.132
					c0.091,0.034,0.197,0.024,0.271,0.104c0.027,0.063,0.023,0.139,0.052,0.2c0.07,0.156,0.204,0.207,0.295,0.241
					c0.138-0.359,0.531-0.646,0.611-1.055c0.348-0.305,0.548-0.691,0.538-1.134c0.146-0.176,0.079-0.406,0.147-0.587
					c0.143-0.1,0.208-0.203,0.139-0.359l-0.027-0.062c0.125-0.056,0.053-0.136,0.023-0.198c0.196-0.311,0.272-0.643,0.26-1.009
					c0.147-0.253-0.009-0.519,0.199-0.724c-0.046-0.017-0.121-0.021-0.136-0.052c0.053-0.134-0.003-0.259-0.014-0.366
					c-0.06-0.049-0.086-0.111-0.113-0.172c-0.098-0.219-0.084-0.521-0.181-0.739c-0.072-0.08-0.264-0.257-0.354-0.291
					c-0.162-0.114-0.426-0.034-0.633-0.165C67.61,13.896,67.188,14.121,66.719,14.405z"/>
			</g>
		</g>
		<g>
			<path fill="#231F20" d="M104.256,42.57c0.044,0.061,0.147,0.078,0.147,0.078c0.219,0.303,0.246,0.789,0.533,0.996
				c-0.061,0.365,0.08,0.496,0.148,0.721c-0.066,0.418,0.013,0.912-0.204,1.252c-0.067,0.096-0.362,0.262-0.492,0.4
				c-0.131,0.138-0.312,0.271-0.529,0.289c-0.181,0.131-0.354,0.209-0.441,0.41c-0.417-0.068-0.781-0.129-1.066-0.016
				c-0.087-0.121-0.244-0.146-0.4-0.172c-0.417-0.068-0.514-0.459-0.871-0.57c-0.018-0.217-0.156-0.348-0.355-0.433
				c-0.027-0.165-0.055-0.33-0.202-0.407c0.034-0.53-0.211-0.998-0.134-1.467c0.008-0.053,0.11-0.357,0.173-0.4
				c0.024-0.156,0.207-0.288,0.274-0.384c0.062-0.044-0.034-0.112,0.025-0.156c0.078-0.147,0.304-0.218,0.285-0.436
				c0.174-0.079,0.295-0.165,0.416-0.253c0.261,0.043,0.398-0.148,0.572-0.229c0.373,0.008,0.896,0.094,1.207,0.145
				C103.69,42.104,103.978,42.311,104.256,42.57z M108.024,13.266c-0.008,0.373,0.35,0.484,0.463,0.771
				c-0.077,0.147,0.062,0.278-0.061,0.365c0.357,0.433,0.134,0.825,0.022,1.503c0.01,0.269,0.028,0.807-0.031,1.172
				c-0.034,0.209-0.11,0.355-0.18,0.453c0.104,0.338-0.06,0.686-0.067,1.059c0.02,0.217,0.148,0.398,0.089,0.764
				c-0.031,0.529-0.188,1.146-0.28,1.721c-0.018,0.105-0.077,0.148-0.146,0.244c-0.018,0.104,0.019,0.217,0.001,0.32
				c-0.018,0.105-0.086,0.201-0.095,0.252c-0.12,0.41-0.024,0.801-0.084,1.164c-0.025,0.158-0.104,0.305-0.18,0.453
				c-0.019,0.104,0.018,0.217,0.052,0.33c-0.103,0.625-0.151,1.26-0.262,1.938c-0.104,0.625-0.258,1.242-0.473,1.902
				c0.035,0.113,0.069,0.227,0.054,0.33c-0.019,0.105-0.096,0.253-0.182,0.453l-0.051,0.313c-0.076,0.469-0.102,0.947-0.126,1.424
				l-0.128,0.783c-0.034,0.209,0.002,0.32-0.016,0.426c-0.025,0.156-0.155,0.295-0.174,0.4c-0.017,0.104,0.071,0.225,0.045,0.381
				c-0.017,0.105-0.086,0.201-0.095,0.252c0.027,0.166,0.123,0.234,0.099,0.391c-0.025,0.157-0.147,0.244-0.164,0.348
				c-0.034,0.209-0.017,0.426-0.041,0.582c-0.052,0.314-0.156,0.297-0.242,0.496c-0.086,0.201,0.14,0.131,0.114,0.287
				c-0.086,0.521-0.269,0.973-0.345,1.443c-0.043,0.26-0.041,0.58,0.021,0.859c-0.086,0.199-0.173,0.398-0.216,0.66
				c-0.052,0.313-0.051,0.635,0.021,0.859c-0.052,0.313-0.138,0.514-0.076,0.791c-0.034,0.209-0.096-0.069-0.262-0.043
				c-0.173,0.079-0.311,0.27-0.441,0.41c-0.104-0.018-0.164,0.026-0.269,0.01c-0.313-0.051-0.444-0.234-0.756-0.285
				c-0.07-0.225-0.315-0.373-0.506-0.51c0.032-0.209-0.177-0.243-0.134-0.504c-0.174-0.242-0.408-0.441-0.515-0.779
				c-0.104-0.338-0.036-0.756-0.081-1.139c0.018-0.104-0.07-0.225-0.104-0.338c-0.012-0.27,0.031-0.529,0.03-0.852
				c0.033-0.529-0.055-0.973,0.116-1.693c0.019-0.104,0.138-0.191,0.163-0.348s-0.044-0.383-0.018-0.539
				c0.093-0.572,0.343-1.121,0.393-1.756c-0.018-0.217,0.076-0.469,0.119-0.729c0.043-0.262,0.033-0.531,0.093-0.896
				c0.061-0.363,0.076-0.789,0.146-1.207c0.033-0.209,0.171-0.399,0.205-0.607c0.018-0.105-0.062-0.278-0.044-0.383l0.043-0.26
				c0.06-0.365,0.18-0.773,0.299-1.184l0.034-0.207l0.067-0.418c0.025-0.156,0.104-0.305,0.278-0.383
				c0.017-0.104-0.148-0.078-0.123-0.234c0.217-0.34,0.119-0.73,0.273-1.025c-0.035-0.113-0.132-0.182-0.105-0.338
				c0.06-0.365,0.06-0.688,0.119-1.053c0.042-0.26,0.137-0.512,0.231-0.764c0.018-0.105,0.077-0.148,0.184-0.131
				c-0.08-0.174-0.046-0.383-0.144-0.451c0.026-0.156,0.14-0.191,0.156-0.297c0.025-0.155-0.037-0.434-0.011-0.59
				c0.034-0.209,0.164-0.348,0.181-0.452c0.096-0.253,0.042-0.583,0.137-0.835c0.217-0.66,0.325-1.658,0.602-2.363
				c0.067-0.096,0.182-0.131,0.25-0.227c0.07-0.096-0.053-0.33,0.104-0.305c-0.044-0.061-0.025-0.164-0.01-0.27l0.146-0.564
				c-0.035-0.113-0.07-0.226-0.063-0.277c0.018-0.105,0.138-0.191,0.164-0.348c0.008-0.053-0.027-0.166-0.011-0.27
				c0.024-0.156,0.156-0.297,0.182-0.453c0.119-0.408,0.093-0.895,0.51-0.826C107.553,12.545,107.521,13.075,108.024,13.266z"/>
		</g>
	</g>
</g>
</svg>
