<?xml version="1.0" encoding="utf-8"?>
<!-- Generator: Adobe Illustrator 16.0.0, SVG Export Plug-In . SVG Version: 6.00 Build 0)  -->
<!DOCTYPE svg PUBLIC "-//W3C//DTD SVG 1.1//EN" "http://www.w3.org/Graphics/SVG/1.1/DTD/svg11.dtd">
<svg version="1.1" id="Layer_1" xmlns="http://www.w3.org/2000/svg" xmlns:xlink="http://www.w3.org/1999/xlink" x="0px" y="0px"
	 width="141.071px" height="167.629px" viewBox="0 0 141.071 167.629" enable-background="new 0 0 141.071 167.629"
	 xml:space="preserve">
<g>
	<path fill="#FFFFFF" d="M24.204,45.595c0-13.118-7.186-36.651,7.855-43.513c2.204-1.005,5.974-2.705,8.811-1.849
		c3.717,1.121,5.454,6.485,9.173,6.733c2.261,0.151,6.646-3.414,8.884-4c2.977-0.779,6.109-0.895,9.178-0.459
		c0.278,7.584,14.936,0.525,19.581,0.42c8.394-0.189,14.423,2.288,17.851,10.135c3.312,7.585,2.64,16.6-1.019,23.478
		c-4.261,8.01-12.237,10.363-9.565,20.321c4.194,0.344,6.336-1.612,10.134-0.262c2.157,0.767,4.414,4.802,6.753,5.362
		c8.014,1.92,13.026-9.253,21.896-3.881c7.991,4.84,3.664,13.147,5.12,20.359c1.125,5.571,4.777,14.1-0.802,19.675
		c-7.524,7.518-10.625-1.733-17.035-3.222c-9.636-2.237-4.139,10.236-5.632,14.868c-1.459,4.526-9.745,7.913-15.349,9.182
		c-5.662,1.281-5.215-1.267-7.836,3.818c-1.529,2.968-1.941,8.644-1.332,12.2c0.969,5.643,4.49,8.287,6.672,13.766
		c2.883,7.239,2.477,6.939-3.137,10.515c-8.399,5.349-22.589,8.161-32.72,8.353c-11.586,0.219-22.616-0.474-32.002-6.615
		c-12.247-8.013-2.446-21.172,9.769-18.787c0.295-8.662-3.211-16.877-4.582-25.249c-1.087-6.645-1.338-17.26-4.783-22.632
		c-4.291,3.479-16.563,5.515-21.736,2.302C3.032,93.31,1.724,80.805,0.87,74.762c-0.994-7.048-3.007-19.979,6.834-19.868
		c7.816,0.088,13.566,16.065,17.971,2.647C23.533,54.604,24.204,45.595,24.204,45.595z"/>
	<path fill="#7CCDCD" d="M31.696,154.702c1.572,0.637,3.556,2.202,5.89,2.464c2.48,0.279,4.805,0.864,7.693,1.075
		c5.819,0.423,10.902,2.435,17.049,2.275c5.592-0.144,36.944-2.726,31.438-9.761c-5.792-7.401-24.939-0.346-34.252-0.569
		c-5.535-0.132-10.373,0.705-15.96,0.581c-4.202-0.093-9.821-1.027-11.848,3.469L31.696,154.702z"/>
	<g>
		<path fill="#231F20" d="M41.458,11.722c0.124,0,0.249,0.063,0.375,0.188c0.125,0.127,0.249,0.188,0.376,0.188
			c1.063,0.313,1.657,0.532,1.783,0.657c0.249,0,0.437,0.031,0.563,0.094c0.125,0.063,0.282,0.203,0.47,0.422
			c0.188,0.221,0.343,0.361,0.47,0.422c0,0.939-0.127,1.659-0.376,2.16c0.062,0.188,0.202,0.359,0.423,0.516
			c0.218,0.156,0.328,0.328,0.328,0.516c0,0.127-0.032,0.252-0.094,0.376c-0.063,0.126-0.141,0.267-0.234,0.423
			c-0.095,0.156-0.174,0.297-0.235,0.422c0.25,0.375,0.313,0.689,0.188,0.938c0.062,0.188,0.218,0.282,0.469,0.282v0.188
			c0,0.126,0.078,0.281,0.234,0.469s0.235,0.314,0.235,0.375c0.124,0.376,0.188,0.689,0.188,0.939c0,0.126-0.126,0.814-0.376,2.064
			c0.125,0.127,0.188,0.281,0.188,0.47c0,0.063-0.017,0.173-0.047,0.328c-0.032,0.157-0.047,0.298-0.047,0.423v0.281
			c0,0.063,0.094,0.281,0.281,0.657v0.281c0,0.126-0.017,0.313-0.047,0.563c-0.032,0.25-0.047,0.438-0.047,0.563
			c0,0.252,0.062,0.502,0.188,0.752c0,0.188-0.063,0.344-0.188,0.469c0,0.188,0.062,0.563,0.188,1.127
			c0.125,0.563,0.188,1.001,0.188,1.313v0.376c0,0.188-0.063,0.422-0.188,0.703c-0.126,0.281-0.188,0.486-0.188,0.61
			c0,0.063,0.155,0.251,0.469,0.563c0.125,0.626,0.188,1.002,0.188,1.126c0.375,0.313,0.624,0.783,0.75,1.407
			c0.062,0.127,0.031,0.221-0.094,0.282c-0.126,0.126-0.188,0.22-0.188,0.282c0.188,1.252,0.281,1.908,0.281,1.971
			c0.062,0.126,0.095,0.344,0.095,0.656v0.657c0,0.626,0.03,1.096,0.094,1.408c0,0.126,0.047,0.313,0.141,0.563
			s0.141,0.469,0.141,0.656c0.062,0.127,0.094,0.281,0.094,0.47c0,0.251,0.031,0.548,0.094,0.892
			c0.062,0.345,0.141,0.721,0.234,1.127c0.095,0.407,0.172,0.735,0.235,0.984l-0.094,0.846c0,0.563,0.03,0.844,0.094,0.844
			c0.062,0.188,0.219,0.47,0.469,0.846c0.25,0.375,0.406,0.596,0.47,0.656l0.657,0.657c0.624,0.501,1.281,0.751,1.971,0.751
			c0.688-0.062,1.188-0.25,1.502-0.563c0.313-0.313,0.469-0.971,0.469-1.972v-0.47c0-0.061,0.031-0.124,0.095-0.188
			c0.062-0.062,0.094-0.125,0.094-0.188l0.375-1.127v-0.375v-1.126c0-0.188,0.094-0.437,0.281-0.751
			c-0.188-0.188-0.281-0.313-0.281-0.375c0.313-3.065,0.438-4.881,0.376-5.444c0-0.124-0.017-0.296-0.048-0.517
			c-0.032-0.219-0.047-0.39-0.047-0.516c0-0.063,0.015-0.156,0.047-0.281c0.031-0.125,0.048-0.219,0.048-0.282
			c0-0.124-0.017-0.282-0.048-0.47c-0.032-0.188-0.047-0.313-0.047-0.375c0-0.249,0.047-0.625,0.142-1.127
			c0.094-0.5,0.141-0.813,0.141-0.938s-0.017-0.266-0.047-0.423c-0.032-0.155-0.047-0.265-0.047-0.329
			c0-0.124,0.062-0.312,0.188-0.563c0-0.062-0.032-0.141-0.094-0.234c-0.063-0.094-0.094-0.203-0.094-0.328
			c0.188-0.376,0.281-0.752,0.281-1.127c0-0.25-0.047-0.672-0.141-1.268c-0.094-0.594-0.141-1.047-0.141-1.36v-0.188
			c0-0.061-0.017-0.154-0.047-0.281c-0.032-0.125-0.047-0.219-0.047-0.281V23.83v-1.596v-3.191l0.281-1.407v-0.658
			c0-0.248,0.015-0.594,0.047-1.031c0.03-0.438,0.047-0.782,0.047-1.033v-0.563c0.188-0.188,0.47-0.376,0.845-0.563l0.845-0.563
			c0.188-0.125,0.657-0.249,1.408-0.375l1.126-0.376c0.062,0,0.219,0.032,0.47,0.095c0.249,0.063,0.406,0.094,0.469,0.094
			c0.688,0,1.063,0.031,1.126,0.094c0.625-0.125,1.095-0.188,1.408-0.188h0.376c0.375,0,0.875,0.141,1.501,0.422
			c0.625,0.281,1.095,0.422,1.408,0.422c0.438,0.563,0.782,0.908,1.032,1.033c0,0.125,0.062,0.281,0.188,0.469
			c0.124,0.188,0.188,0.314,0.188,0.375c0.062,0.127,0.094,0.314,0.094,0.564c0,0.125-0.017,0.359-0.047,0.703
			c-0.032,0.345-0.047,0.61-0.047,0.798c0,0.063,0,0.188,0,0.376l-0.094,0.188c0,0.063,0.03,0.156,0.094,0.281
			c0.062,0.126,0.094,0.221,0.094,0.281c0,0.188-0.032,0.47-0.094,0.846c-0.063,0.375-0.094,0.656-0.094,0.844
			c0,0.376,0.062,0.657,0.188,0.846c-0.188,0.75-0.281,1.22-0.281,1.407c0,0.376,0.094,0.72,0.281,1.032
			c-0.063,0.063-0.094,0.204-0.094,0.423c0,0.22,0,0.392,0,0.517c0,0.063-0.063,0.156-0.188,0.281
			c-0.127,0.126-0.188,0.313-0.188,0.563c0,0.252,0.125,0.689,0.376,1.314v0.657c0,0.501-0.157,0.877-0.47,1.126
			c0,0.814-0.063,1.283-0.188,1.408c0,0.126,0.031,0.188,0.094,0.188c0.125,0.127,0.188,0.221,0.188,0.281
			c-0.063,0.127-0.094,0.282-0.094,0.47c0,0.126,0.015,0.282,0.047,0.47c0.031,0.188,0.047,0.313,0.047,0.375
			c0.125,0.188,0.25,0.469,0.376,0.845v1.22c0,0.502,0.062,0.846,0.188,1.033c0,0.126-0.047,0.22-0.141,0.281
			c-0.094,0.063-0.141,0.157-0.141,0.281c0,0.127,0.077,0.361,0.234,0.704c0.155,0.345,0.234,0.61,0.234,0.798
			c0,0.063-0.063,0.221-0.188,0.47c0.062,0.126,0.094,0.47,0.094,1.032c0.188,0.375,0.281,0.596,0.281,0.657v0.281
			c0,0.376-0.032,0.657-0.094,0.845c0,0.063-0.063,0.221-0.188,0.469c-0.063,0.188-0.094,0.502-0.094,0.939
			c0,0.502,0.078,1.314,0.234,2.439c0.155,1.127,0.203,1.972,0.141,2.535c0,0.063-0.016,0.188-0.047,0.375
			c-0.032,0.188-0.047,0.345-0.047,0.47c-0.126,0.438-0.25,1.032-0.375,1.783c-0.251,1.313-0.502,2.159-0.751,2.534
			c-0.251,0.375-0.407,0.596-0.47,0.656c-0.313,0.439-0.501,0.689-0.563,0.752v0.563c-0.126,0.063-0.268,0.188-0.423,0.376
			c-0.156,0.188-0.298,0.313-0.422,0.375c-0.063,0.126-0.141,0.251-0.235,0.376c-0.094,0.126-0.141,0.25-0.141,0.375
			c-1.313,0.814-2.785,1.783-4.411,2.91h-0.47c-0.313,0.375-0.501,0.596-0.563,0.656c-0.188,0-0.438,0.08-0.751,0.234
			c-0.313,0.158-0.563,0.235-0.751,0.235c-0.126,0.063-0.298,0.094-0.517,0.094c-0.22,0-0.407,0.032-0.563,0.094
			c-0.157,0.063-0.268,0.157-0.329,0.282c-0.126,0.063-0.375,0.109-0.751,0.141c-0.375,0.031-0.656,0.109-0.845,0.234
			c-0.063-0.062-0.188-0.078-0.375-0.047c-0.188,0.032-0.313,0.047-0.375,0.047c-0.063,0.063-0.563,0.156-1.502,0.281
			c-0.814,0-1.408-0.031-1.783-0.094c-0.376-0.062-0.892-0.172-1.549-0.328s-1.143-0.234-1.455-0.234
			c-0.063,0-0.22-0.063-0.47-0.188c-1.501,0.125-2.628-0.25-3.379-1.127c-0.25,0-0.548-0.094-0.892-0.281
			c-0.345-0.188-0.609-0.282-0.798-0.282l-0.375,0.095c-0.626-0.5-1.158-0.782-1.596-0.846c-0.188-0.188-0.579-0.406-1.173-0.656
			c-0.596-0.25-0.986-0.563-1.174-0.939c-0.751-0.124-1.189-0.406-1.313-0.844c-0.376-0.125-0.783-0.438-1.221-0.939
			c-0.438-0.5-0.689-0.781-0.751-0.844c0-0.125-0.032-0.266-0.094-0.423c-0.063-0.155-0.063-0.266,0-0.329c-0.063,0-0.141,0-0.234,0
			s-0.204-0.03-0.329-0.094c-0.063-0.125-0.267-0.453-0.609-0.985c-0.345-0.53-0.549-0.985-0.61-1.36
			c0-0.125-0.032-0.282-0.094-0.47c-0.063-0.188-0.094-0.313-0.094-0.376c0-0.124-0.063-0.437-0.188-0.938
			c-0.127-0.501-0.188-0.906-0.188-1.221c0-0.313,0.031-0.563,0.094-0.751c-0.25-0.376-0.25-0.782,0-1.22
			c-0.188-0.376-0.313-1-0.375-1.877c-0.063-0.877-0.094-1.377-0.094-1.502c0-0.188-0.063-0.5-0.188-0.939
			c-0.126-0.437-0.188-0.75-0.188-0.938c0-0.124-0.016-0.296-0.047-0.517c-0.032-0.218-0.047-0.39-0.047-0.516
			c0-0.375,0.062-0.875,0.188-1.502l-0.095-0.188c-0.063-0.125-0.126-0.219-0.188-0.281v-0.47c0-0.313-0.032-0.766-0.094-1.36
			c-0.063-0.595-0.094-1.048-0.094-1.361c0-0.125,0.031-0.266,0.094-0.422c0.062-0.156,0.094-0.266,0.094-0.329
			c0-0.188-0.016-0.437-0.047-0.751c-0.032-0.313-0.047-0.563-0.047-0.751c0-0.124,0.031-0.359,0.094-0.704
			c0.062-0.343,0.094-0.609,0.094-0.797c0-0.188-0.016-0.518-0.047-0.986c-0.032-0.469-0.047-0.828-0.047-1.079
			c0-0.313-0.032-0.563-0.094-0.751c0.062-0.125,0.188-0.281,0.376-0.469c0-0.063-0.032-0.125-0.095-0.188
			c-0.126-0.062-0.188-0.155-0.188-0.281c0.062-0.188,0.094-0.501,0.094-0.938v-2.347c-0.063-0.124-0.094-0.313-0.094-0.563
			c0-0.249,0.062-0.813,0.188-1.689v-1.502c0-1.25,0.095-2.126,0.282-2.627c-0.126-0.25-0.188-0.406-0.188-0.471
			c0-0.124,0.218-0.469,0.656-1.031c0.062-0.063,0.125-0.188,0.188-0.376l0.188-0.188c0.188-0.188,0.938-0.625,2.252-1.314
			l0.751-0.47c0.563-0.188,1.251-0.281,2.065-0.281c0.249,0,0.61,0.017,1.079,0.047c0.47,0.033,0.798,0.047,0.985,0.047
			c0.125,0,0.329-0.014,0.61-0.047C41.223,11.738,41.395,11.722,41.458,11.722z"/>
		<path fill="#231F20" d="M83.976,12.473l0.094,0.095c1.438,0,3.003,0.156,4.692,0.469c0.125,0.126,0.188,0.22,0.188,0.281
			c0.249-0.125,0.406-0.188,0.469-0.188c0.125,0,0.297,0.047,0.517,0.141c0.219,0.094,0.39,0.141,0.516,0.141h0.188l0.375,0.376
			c0.751,0,1.188,0.157,1.314,0.47h0.375c0.625,0,1.032,0.156,1.221,0.469c0.188,0,0.39,0.063,0.609,0.188
			c0.219,0.127,0.391,0.188,0.517,0.188c0.125,0.188,0.343,0.439,0.657,0.752c0.375,0,0.704,0.234,0.985,0.703
			s0.547,0.736,0.798,0.798c0.125,0.376,0.249,0.596,0.375,0.657c0.062,0.438,0.359,0.892,0.892,1.361
			c0.531,0.469,0.798,0.86,0.798,1.173c0.062,0.126,0.142,0.22,0.235,0.281c0.094,0.063,0.141,0.126,0.141,0.188
			c0,0.313,0.108,0.642,0.328,0.984c0.219,0.346,0.329,0.643,0.329,0.893v0.281c0,0.063,0.062,0.126,0.188,0.188h0.188
			c0.062,0.127,0.108,0.361,0.141,0.704c0.031,0.345,0.078,0.643,0.141,0.892c0.062,0.251,0.188,0.438,0.376,0.563v0.376
			c0,0.125,0.015,0.344,0.047,0.656c0.03,0.314,0.047,0.563,0.047,0.751c-0.126,0-0.251,0.094-0.376,0.282
			c0,0.125,0.063,0.219,0.188,0.281c0.062,0.063,0.094,0.126,0.094,0.188c-0.063,0.126-0.094,0.375-0.094,0.751
			c0,0.751-0.157,1.158-0.47,1.22c0,0.063,0.015,0.127,0.047,0.188c0.031,0.063,0.047,0.127,0.047,0.188
			c-0.251,0.252-0.375,0.596-0.375,1.033l-0.376,0.469c-0.313,0.314-0.563,0.533-0.751,0.658l0.095,0.563
			c-0.063,0.126-0.157,0.22-0.282,0.281c-0.126,0.063-0.22,0.127-0.281,0.188l-0.281,0.846c-0.127,0.501-0.314,0.813-0.563,0.938
			c0,0.127-0.063,0.268-0.188,0.423c-0.126,0.157-0.188,0.298-0.188,0.423h-0.469l-0.281,0.563c-0.251,0.127-0.596,0.486-1.033,1.08
			c-0.438,0.596-0.877,0.954-1.313,1.079c-0.063,0.063-0.126,0.22-0.188,0.47c-0.063,0.25-0.157,0.438-0.282,0.563h-0.188
			c-0.126,0-0.251,0.047-0.376,0.141c-0.126,0.094-0.25,0.141-0.375,0.141c0,0.063-0.016,0.141-0.047,0.234
			c-0.032,0.095-0.047,0.174-0.047,0.235c-0.063,0.126-0.204,0.235-0.423,0.329c-0.22,0.094-0.36,0.172-0.422,0.234
			c-0.126,0.063-0.281,0.094-0.47,0.094c-0.25,0.375-0.563,0.596-0.938,0.656c-0.063,0.127-0.204,0.268-0.422,0.423
			c-0.221,0.157-0.361,0.329-0.423,0.517c-0.877,0.313-1.471,0.75-1.783,1.314c0.125,0.501,0.188,0.844,0.188,1.031
			c0,0.376-0.094,0.814-0.281,1.314l0.094,0.094c0.062,0,0.125,0.016,0.188,0.047c0.062,0.033,0.094,0.08,0.094,0.141
			c-0.126,0.502-0.188,0.814-0.188,0.939c-0.063,0.063-0.156,0.156-0.281,0.281l-0.188,0.094c0,0.438,0.062,0.689,0.188,0.751
			c-0.063,0.063-0.11,0.204-0.141,0.423c-0.032,0.219-0.141,0.36-0.329,0.422c0.125,0.126,0.188,0.345,0.188,0.656
			c0,0.127-0.017,0.314-0.048,0.564c-0.032,0.25-0.047,0.438-0.047,0.563v0.281c-0.063,0.063-0.109,0.251-0.141,0.563
			c-0.032,0.313-0.109,0.532-0.234,0.657c0.188,0.25,0.219,0.532,0.094,0.845c0,0.063,0.047,0.126,0.141,0.188
			c0.094,0.063,0.141,0.157,0.141,0.282c-0.188,0.563-0.281,0.907-0.281,1.031c-0.251,0.376-0.407,0.752-0.469,1.127h-0.095
			c-0.126,0.063-0.22,0.094-0.281,0.094c-0.251,0.938-0.532,1.502-0.845,1.689c-0.063,0.438-0.532,0.845-1.408,1.221
			c-0.501,0.25-0.845,0.375-1.032,0.375c-0.251,0.063-0.72,0.094-1.408,0.094c-0.375,0.127-0.595,0.188-0.656,0.188h-0.282
			c-0.188,0-0.422-0.03-0.704-0.094c-0.281-0.062-0.485-0.094-0.609-0.094h-0.188l-0.376-0.188h-0.281
			c-0.126,0-0.314-0.031-0.563-0.094c-0.251-0.062-0.502-0.094-0.751-0.094c-0.063-0.125-0.234-0.25-0.516-0.375
			c-0.282-0.125-0.455-0.219-0.517-0.282c-0.126,0.063-0.267,0.047-0.423-0.047s-0.267-0.142-0.328-0.142
			c-0.126-0.061-0.188-0.154-0.188-0.281c-1.002-0.437-1.502-0.938-1.502-1.502l-0.281-0.281c0-0.062,0.03-0.108,0.094-0.141
			c0.062-0.031,0.062-0.078,0-0.141h-0.282c-0.313-1.689-0.501-2.753-0.563-3.191c-0.063-0.062-0.126-0.172-0.188-0.328
			c-0.063-0.156-0.157-0.266-0.282-0.328c0-0.564-0.094-0.877-0.281-0.939c0-0.062,0-0.125,0-0.188l0.094-0.094
			c-0.126-0.375-0.251-0.939-0.375-1.689c-0.127-0.751-0.188-1.157-0.188-1.221c-0.126-0.375-0.188-0.625-0.188-0.75
			c0-0.188,0.031-0.313,0.094-0.376c-0.063-0.124-0.094-0.563-0.094-1.313l-0.094-0.376c0-0.188,0.062-0.343,0.188-0.47
			c-0.126-0.124-0.173-0.266-0.141-0.422c0.031-0.156,0.015-0.297-0.047-0.422c0.125-0.188,0.249-0.719,0.375-1.596
			c0-0.688,0.063-1.095,0.188-1.221c0-0.125-0.047-0.172-0.141-0.141c-0.095,0.032-0.142,0.016-0.142-0.047
			c0-0.125,0.062-0.25,0.188-0.375c0.124-0.125,0.188-0.25,0.188-0.376c-0.126-0.188-0.22-0.313-0.282-0.376v-0.563v-0.188
			c0-0.188,0.048-0.423,0.142-0.705c0.094-0.281,0.141-0.577,0.141-0.891l0.094-0.657l-0.094-0.188
			c-0.063-0.061-0.094-0.124-0.094-0.188v-0.188c0-0.5,0.188-1,0.563-1.502c-0.063-0.124-0.281-0.249-0.656-0.375
			c-0.063-0.188,0-0.438,0.188-0.751c-0.126-0.376-0.188-0.624-0.188-0.751c0-0.125,0.047-0.469,0.141-1.032
			s0.077-0.845-0.047-0.845c0.188-0.25,0.281-0.563,0.281-0.938c0-0.437-0.094-0.751-0.281-0.938c0-0.125,0-0.25,0-0.376
			c0-0.124-0.032-0.249-0.094-0.375c0.249-0.313,0.375-0.688,0.375-1.126c-0.126-0.376-0.188-0.595-0.188-0.658v-0.844
			c0.062-0.063,0.124-0.141,0.188-0.234c0.062-0.095,0.125-0.172,0.188-0.235l-0.188-0.094c-0.063,0-0.094-0.03-0.094-0.094
			c0-0.062,0.03-0.219,0.094-0.47c0.062-0.249,0.094-0.437,0.094-0.563c0-0.063-0.063-0.219-0.188-0.47
			c0.188-0.062,0.296-0.249,0.328-0.563c0.031-0.313,0.108-0.5,0.235-0.563c0-0.063,0-0.156,0-0.281l-0.095-0.188
			c0.188-0.249,0.282-0.751,0.282-1.501v-0.188c-0.063-0.124-0.094-0.218-0.094-0.281c0-0.062,0.062-0.202,0.188-0.423
			c0.125-0.219,0.188-0.39,0.188-0.516c0-0.125-0.016-0.313-0.047-0.563c-0.032-0.249-0.047-0.406-0.047-0.47v-0.281
			c0.062-0.188,0.202-0.469,0.423-0.845c0.218-0.376,0.358-0.657,0.422-0.845c0.062-0.062,0.094-0.155,0.094-0.281
			c0.125-0.125,0.219-0.188,0.281-0.188c0-0.063,0.015-0.172,0.048-0.329c0.03-0.155,0.077-0.265,0.141-0.329
			c0.062-0.124,0.218-0.281,0.469-0.469c0.25-0.188,0.406-0.344,0.47-0.469c0.062-0.063,0.219-0.172,0.469-0.329
			c0.25-0.155,0.438-0.296,0.563-0.423c0.125,0,0.281-0.061,0.47-0.188c0.188-0.124,0.343-0.188,0.469-0.188
			c0.125,0,0.376-0.015,0.751-0.047c0.376-0.031,0.657-0.078,0.845-0.141c1.438-0.188,2.314-0.313,2.628-0.375
			c0.062,0,0.155,0.063,0.282,0.188c0.375-0.125,0.781-0.188,1.22-0.188h0.281C83.882,12.755,83.976,12.661,83.976,12.473z
			 M72.712,38.472c0,0.063-0.032,0.094-0.094,0.094v0.094C72.68,38.599,72.712,38.535,72.712,38.472z M89.606,18.949
			c-0.063,0-0.234,0.032-0.516,0.094c-0.282,0.063-0.517,0.063-0.704,0L87.072,19.7c-0.188,0.126-0.281,0.408-0.281,0.845v0.47
			c0,0.063-0.094,0.281-0.281,0.656c0,0.063,0.03,0.204,0.094,0.422c0.062,0.221,0.062,0.329,0,0.329
			c0,0.126,0.062,0.282,0.188,0.47c0.125,0.188,0.188,0.313,0.188,0.375c0,0.502,0.031,0.877,0.094,1.127v0.094l0.095,0.188
			c0.062,0.126,0.094,0.344,0.094,0.656c0,0.314,0,0.533,0,0.658c0.062,0.063,0.155,0.563,0.281,1.501
			c0.125,0.251,0.188,0.502,0.188,0.751v0.188c0.125,0,0.249,0.063,0.376,0.188c0.124,0,0.234-0.077,0.328-0.234
			c0.094-0.155,0.172-0.234,0.234-0.234c0.062,0.063,0.172,0.063,0.329,0c0.155-0.062,0.266-0.094,0.328-0.094
			c0.125-0.313,0.484-0.751,1.079-1.314c0.595-0.563,0.923-1.094,0.986-1.596l0.281-0.281c0-0.313,0.062-0.719,0.188-1.221
			c0.125-0.5,0.188-0.844,0.188-1.031c0-0.752-0.032-1.252-0.094-1.502c0-0.313-0.156-0.625-0.469-0.939
			c-0.188-0.188-0.438-0.406-0.751-0.656c-0.188-0.188-0.345-0.281-0.47-0.281l-0.188-0.188
			C89.95,18.981,89.795,18.949,89.606,18.949z"/>
	</g>
	<g>
		<path fill="#7CCDCD" d="M44.815,111.781c-1.223-11.357-2.846-26.377-4.16-37.332c-1.398-11.641-4.217-16.758,6.741-20.812
			c6.028-2.229,42.251-3.254,42.608,4.138c0.704,14.585-7.469,88.052-11.631,93.166c-3.791,4.655-25.992,5.005-29.107-0.138
			c-0.968-1.603-0.921-1.655-0.805-3.801L44.815,111.781z"/>
		<path fill="#231F20" d="M63.359,155.297c-5.921,0-12.9-1.078-14.734-4.104c-1.015-1.681-1.037-1.96-0.926-3.983l0.011-0.188
			l-3.641-35.163c-1.347-12.514-2.891-26.753-4.159-37.319c-0.208-1.737-0.454-3.364-0.671-4.8
			c-1.282-8.478-1.988-13.148,7.897-16.805c2.639-0.976,10.443-1.685,18.556-1.685c9.243,0,24.789,0.844,25.062,6.489
			c0.684,14.164-7.312,88.162-11.798,93.676C76.622,154.28,69.096,155.297,63.359,155.297z M65.692,52.75
			c-7.829,0-15.583,0.685-18.036,1.591c-8.739,3.233-8.174,6.976-6.934,15.175c0.218,1.445,0.466,3.085,0.678,4.844
			c1.269,10.576,2.813,24.82,4.161,37.342l3.652,35.283l-0.017,0.308c-0.099,1.783-0.099,1.783,0.711,3.124
			c1.226,2.022,6.631,3.381,13.451,3.381c6.901,0,12.837-1.369,14.433-3.329c3.868-4.752,12.212-77.155,11.464-92.656
			C89.109,54.784,79.641,52.75,65.692,52.75z"/>
	</g>
	<path fill="#C5E7E9" d="M43.399,63.156c0,0,0.183,5.535,2.139,10.38c1.956,4.843,3.738,74.508,5.062,75.69
		c1.322,1.181,18.913,4.902,25.573,0c3.833-2.821,10.907-84.603,10.148-85.924C85.563,61.983,65.409,69.92,43.399,63.156z"/>
	<path fill="#C5E7E9" d="M45.667,60.349c0,0,35.55,5.165,41.474-1.408c5.919-6.575-33.698-4.958-40.126-2.383
		C41.042,58.95,43.863,60.105,45.667,60.349z"/>
	<g>
		<path fill="#231F20" d="M9.594,64.116c0.216-0.03,0.539-0.007,0.971,0.069c0.432,0.077,0.725,0.116,0.879,0.116
			c0.062-0.031,0.107-0.016,0.139,0.046c0.03,0.031,0.062,0.046,0.093,0.046l0.093-0.046c0.061-0.03,0.122-0.03,0.185,0
			c0.185,0.124,0.323,0.17,0.416,0.139c0,0.031,0.016,0.069,0.046,0.116c0.031,0.045,0.047,0.1,0.047,0.161
			c0.093,0,0.2,0.031,0.323,0.093c0.123,0.063,0.231,0.092,0.324,0.092c0.03,0.063,0.123,0.124,0.277,0.186
			c0,0.031,0.03,0.077,0.093,0.139c0.03,0,0.092,0.023,0.185,0.069s0.154,0.069,0.185,0.069c0.154,0.216,0.262,0.324,0.324,0.324
			c0.277,0.277,0.509,0.432,0.693,0.462c0.123,0.124,0.186,0.216,0.186,0.277h0.092c0.093,0,0.192,0.039,0.301,0.116
			c0.107,0.076,0.192,0.115,0.254,0.115c0.186,0.247,0.293,0.432,0.324,0.555h0.231c0.03,0.063,0.1,0.131,0.208,0.208
			c0.107,0.077,0.177,0.132,0.208,0.162v0.139c0,0.277,0.107,0.462,0.323,0.555v0.139c0.216,0.155,0.324,0.309,0.324,0.462
			c0,0.031,0,0.063,0,0.094L17.27,69.11l0.139,0.693v0.139c0,0.063,0.03,0.109,0.093,0.139c0.062,0.063,0.107,0.109,0.139,0.139
			c-0.123,0.34-0.185,0.725-0.185,1.156c0,0.063,0.007,0.154,0.022,0.277c0.016,0.124,0.023,0.231,0.023,0.324
			c0,0.092,0.008,0.193,0.023,0.301c0.015,0.107,0.038,0.23,0.069,0.369c0.03,0.139,0.046,0.24,0.046,0.301
			c0.03,0.34,0.023,0.817-0.023,1.434c-0.046,0.617-0.069,1.018-0.069,1.203c0,0.308,0.062,0.586,0.186,0.832
			c0,0.092-0.008,0.23-0.023,0.416c-0.016,0.185-0.022,0.323-0.022,0.416c0,0.031,0.015,0.077,0.046,0.139
			c0.03,0.063,0.046,0.123,0.046,0.186l-0.046,0.185c0,0.03,0.007,0.069,0.023,0.115c0.015,0.046,0.022,0.085,0.022,0.116
			c-0.031,0-0.046,0.016-0.046,0.046c-0.031,0.062-0.031,0.139,0,0.231c0.03,0.092,0.046,0.154,0.046,0.185
			c-0.031,0.062-0.069,0.124-0.115,0.185c-0.047,0.063-0.069,0.109-0.069,0.139c0.153,0.309,0.231,0.494,0.231,0.555
			c0,0.094-0.017,0.155-0.047,0.186c0,0.031,0,0.086,0,0.162c0,0.077,0.03,0.146,0.093,0.208c0,0.062-0.016,0.108-0.046,0.139
			l0.046,0.093c0,0.063,0.03,0.092,0.093,0.092c-0.031,0.031-0.047,0.078-0.047,0.139c0,0.155-0.016,0.248-0.046,0.277
			c-0.031,0.031-0.046,0.063-0.046,0.094c-0.031,0.062-0.017,0.092,0.046,0.092c0.062,0,0.093,0.016,0.093,0.047
			c-0.031,0.123-0.047,0.277-0.047,0.462c0,0.154,0.03,0.263,0.093,0.323c0,0.031-0.023,0.063-0.069,0.093
			c-0.046,0.031-0.069,0.062-0.069,0.093l0.139,0.139v0.23c0,0.401,0.016,0.648,0.046,0.74c0,0.031,0.008,0.047,0.023,0.047
			s0.023,0.016,0.023,0.046c-0.031,0.093-0.017,0.139,0.046,0.139c0.03,0.03,0.03,0.062,0,0.093
			c-0.031,0.031-0.046,0.062-0.046,0.092c0.03,0.063,0.046,0.17,0.046,0.324s0.03,0.262,0.093,0.323c0,0.185,0.015,0.309,0.046,0.37
			h-0.046c-0.031,0.031-0.047,0.063-0.047,0.092c0.062,0.186,0.4,0.309,1.018,0.371v0.139c0.062,0,0.154-0.031,0.277-0.093
			c0.154,0.093,0.231,0.154,0.231,0.185c0.03,0,0.062-0.016,0.093-0.046c0.03-0.03,0.062-0.046,0.092-0.046l0.694,0.277
			c0.03,0,0.076-0.016,0.139-0.047c0.122,0,0.246,0.063,0.37,0.186c0.277,0.092,0.601,0.386,0.971,0.879
			c0.03,0.03,0.076,0.092,0.139,0.185c0.062,0.093,0.093,0.169,0.093,0.231c0,0.369-0.017,0.617-0.047,0.739
			c0,0.093-0.092,0.278-0.277,0.556c-0.031,0-0.062,0.016-0.093,0.045c-0.03,0.031-0.062,0.047-0.092,0.047l-0.047,0.093
			c0,0.03-0.016,0.046-0.046,0.046l-0.37,0.277c-0.031,0-0.092,0.031-0.185,0.093S21,88.671,20.969,88.671
			c-0.03,0.031-0.108,0.046-0.23,0.046c-0.124,0-0.217,0.015-0.277,0.046c-0.186,0.062-0.324,0.093-0.417,0.093
			c-0.092,0.03-0.216,0.03-0.369,0c-0.155-0.031-0.263-0.031-0.324,0l-0.046,0.046l-0.047,0.047c-0.062,0-0.185,0.016-0.369,0.046
			c-0.186,0.03-0.309,0.046-0.37,0.046H18.38c-0.031-0.031-0.063-0.046-0.093-0.046l-0.046-0.046l-0.186,0.046
			c-0.092,0-0.216-0.022-0.369-0.069c-0.155-0.047-0.248-0.069-0.278-0.069c-0.185-0.031-0.462-0.054-0.832-0.069
			s-0.617-0.023-0.74-0.023c-0.462,0-0.802-0.031-1.017-0.092c-0.031,0-0.077-0.031-0.139-0.093l-0.186,0.046
			c-0.062,0-0.154-0.023-0.277-0.068c-0.123-0.047-0.216-0.07-0.277-0.07c-0.031,0.031-0.046,0.031-0.046,0l-0.047-0.046h-0.046
			c-0.063,0-0.093,0.016-0.093,0.046c-0.062-0.061-0.17-0.107-0.323-0.139c-0.154-0.03-0.247-0.061-0.277-0.092
			c-0.031,0-0.063-0.023-0.093-0.07c-0.031-0.046-0.063-0.068-0.093-0.068c-0.092,0-0.154-0.016-0.185-0.047l-0.602-0.277
			c-0.185-0.062-0.293-0.107-0.323-0.139l-0.046-0.047h-0.093c-0.031,0-0.085-0.029-0.162-0.092
			c-0.077-0.062-0.162-0.093-0.254-0.093c0-0.03-0.093-0.077-0.277-0.139c-0.031-0.062-0.101-0.131-0.208-0.208
			c-0.108-0.076-0.178-0.131-0.209-0.162c-0.03-0.123-0.115-0.262-0.254-0.416s-0.224-0.262-0.254-0.324
			c-0.031-0.029-0.063-0.115-0.093-0.254c-0.031-0.139-0.077-0.238-0.139-0.301c0-0.092-0.023-0.23-0.069-0.416
			c-0.047-0.185-0.069-0.323-0.069-0.416c-0.063-0.154-0.093-0.432-0.093-0.832c0-0.03-0.016-0.062-0.046-0.093
			c-0.031-0.03-0.047-0.062-0.047-0.093c0-0.153,0.016-0.23,0.047-0.23c-0.063-0.062-0.101-0.17-0.116-0.324
			s-0.054-0.246-0.115-0.277v-0.092c0-0.094-0.023-0.262-0.069-0.51c-0.046-0.246-0.069-0.431-0.069-0.555
			c0-0.215,0.03-0.369,0.093-0.462l-0.139-0.093c0-0.062,0.007-0.123,0.022-0.186c0.016-0.061,0.023-0.122,0.023-0.184V80.81
			c-0.031-0.03-0.046-0.062-0.046-0.092c0-0.031,0.015-0.077,0.046-0.14l0.046-0.046c0-0.03-0.016-0.047-0.046-0.047
			c-0.031,0-0.046-0.015-0.046-0.046l0.046-0.462l-0.046-0.186v-0.139c0-0.369-0.031-0.602-0.093-0.693
			c0-0.062,0.03-0.123,0.093-0.186c0-0.029-0.023-0.053-0.069-0.068c-0.047-0.016-0.055-0.039-0.023-0.07
			c0-0.061,0.007-0.191,0.023-0.393c0.015-0.2,0.022-0.347,0.022-0.439c0-0.186-0.016-0.308-0.046-0.369
			c-0.031-0.154-0.046-0.386-0.046-0.694c0-0.03-0.017-0.069-0.047-0.116C8.915,76.579,8.9,76.54,8.9,76.509V76.37
			c0-0.061-0.023-0.169-0.069-0.323c-0.047-0.154-0.069-0.278-0.069-0.37c0-0.03,0.007-0.069,0.022-0.115
			c0.016-0.047,0.023-0.085,0.023-0.116c-0.063-0.062-0.085-0.153-0.069-0.277c0.016-0.122,0.054-0.2,0.115-0.231v-0.046
			c-0.062,0-0.092-0.03-0.092-0.093c0-0.154-0.008-0.408-0.023-0.763s-0.023-0.624-0.023-0.81v-0.693c0-0.339,0.03-0.57,0.093-0.693
			c0-0.03,0-0.084,0-0.162c0-0.076-0.031-0.131-0.093-0.162c0.03-0.092,0.03-0.246,0-0.462s-0.016-0.354,0.047-0.417
			c-0.063-0.061-0.108-0.122-0.139-0.184c0-0.031,0-0.094,0-0.186c0-0.093,0.015-0.154,0.046-0.186
			c-0.093-0.215-0.139-0.492-0.139-0.832v-1.156c0-0.029,0.023-0.053,0.069-0.068s0.069-0.039,0.069-0.07
			c0-0.061-0.031-0.123-0.093-0.185c0.123-0.37,0.186-0.632,0.186-0.786c0-0.186-0.047-0.339-0.139-0.463
			c0-0.029,0.007-0.068,0.022-0.115s0.023-0.084,0.023-0.115c-0.063-0.123-0.093-0.231-0.093-0.324c0-0.03,0.008-0.092,0.023-0.185
			s0.023-0.169,0.023-0.231c0-0.03-0.008-0.069-0.023-0.115c-0.016-0.047-0.023-0.085-0.023-0.115
			c0.093-0.123,0.139-0.247,0.139-0.371c0.093-0.123,0.247-0.277,0.463-0.462C9.393,64.302,9.531,64.179,9.594,64.116z"/>
		<path fill="#231F20" d="M33.084,64.856h0.139c0.093,0,0.224,0.023,0.393,0.069c0.17,0.046,0.285,0.069,0.348,0.069
			c0.061,0,0.122,0.008,0.185,0.023c0.062,0.016,0.123,0.022,0.185,0.022h0.556c0.399,0,0.693,0.046,0.878,0.14
			c0.03,0,0.093,0.045,0.186,0.139c0.277,0,0.569,0.123,0.878,0.369c0.186,0,0.386,0.069,0.602,0.208
			c0.215,0.14,0.4,0.208,0.555,0.208c0,0.154,0.107,0.263,0.324,0.324c0.061,0.216,0.107,0.323,0.139,0.323
			c0.092,0.063,0.223,0.201,0.393,0.417c0.169,0.215,0.315,0.354,0.439,0.416c0.062,0.185,0.123,0.293,0.185,0.323
			c0.03,0.031,0.03,0.069,0,0.116c-0.031,0.045-0.046,0.084-0.046,0.115c0.062,0.123,0.169,0.293,0.323,0.508
			c0.154,0.217,0.278,0.387,0.37,0.51c0,0.246-0.016,0.385-0.046,0.416c0,0.031,0.015,0.046,0.046,0.046
			c0.123,0,0.216,0.046,0.277,0.139s0.116,0.216,0.162,0.37s0.1,0.262,0.162,0.324c-0.031,0.062-0.047,0.154-0.047,0.277
			c0,0.154,0.062,0.339,0.186,0.555c0.123,0.216,0.2,0.354,0.231,0.416c0,0.063,0,0.162,0,0.301s0.015,0.238,0.046,0.301
			c0.03,0.062,0.069,0.115,0.115,0.161c0.047,0.046,0.069,0.085,0.069,0.116c0.093,0.555,0.154,0.848,0.186,0.878
			c0,0.031-0.008,0.101-0.023,0.208c-0.016,0.108-0.023,0.193-0.023,0.254c0,0.463,0.077,0.849,0.231,1.156
			c0,0.37,0.016,0.693,0.046,0.972c0,0.093,0.031,0.224,0.093,0.394c0.062,0.169,0.093,0.285,0.093,0.346
			c0,0.093-0.046,0.186-0.139,0.277c0,0.063,0.007,0.146,0.023,0.255c0.015,0.108,0.022,0.192,0.022,0.255
			c0,0.277-0.046,0.523-0.139,0.739c0.03,0.093,0.046,0.216,0.046,0.37c0,0.216-0.016,0.369-0.046,0.463
			c0,0.062,0.016,0.123,0.046,0.184c0.031,0.063,0.031,0.124,0,0.186c0,0.031-0.03,0.063-0.092,0.093
			c-0.063,0.03-0.093,0.093-0.093,0.185v0.509c0,0.031,0.016,0.069,0.046,0.116c0.031,0.046,0.047,0.085,0.047,0.115
			c-0.093,0.277-0.139,0.432-0.139,0.463c0,0.123,0.046,0.277,0.139,0.462c0,0.062-0.031,0.124-0.093,0.185
			c-0.063,0.063-0.093,0.109-0.093,0.139c0.03,0.031,0.047,0.154,0.047,0.37c0,0.093,0.015,0.155,0.046,0.185
			c-0.031,0.031-0.063,0.07-0.093,0.116s-0.062,0.085-0.092,0.116c-0.031,0.03-0.063,0.068-0.093,0.115
			c-0.031,0.046-0.077,0.068-0.139,0.068c-0.124,0.556-0.216,0.926-0.277,1.11c-0.031,0-0.077,0.023-0.139,0.069
			c-0.063,0.047-0.124,0.055-0.186,0.023c-0.185,0.309-0.309,0.463-0.369,0.463c-0.031,0.184-0.124,0.354-0.278,0.508
			c-0.03,0.063-0.022,0.108,0.023,0.139c0.046,0.031,0.069,0.063,0.069,0.093c-0.647,0.339-1.265,0.817-1.85,1.434
			c-0.154,0-0.354,0.093-0.601,0.277c-0.093,0-0.201,0.039-0.324,0.116c-0.123,0.076-0.216,0.115-0.277,0.115h-0.277
			c-0.063,0-0.277,0.077-0.647,0.23c-0.309,0.155-0.479,0.248-0.509,0.277c-0.37,0.063-0.617,0.139-0.74,0.232l-0.185-0.047
			c-0.063,0-0.146,0.031-0.254,0.092c-0.108,0.063-0.193,0.094-0.255,0.094h-1.018c-0.369,0.062-0.663,0.092-0.878,0.092h-0.186
			c-0.062,0-0.123-0.03-0.185-0.092c-0.093,0-0.224,0.016-0.393,0.045c-0.17,0.031-0.301,0.047-0.394,0.047
			c-0.34,0-0.586-0.016-0.74-0.047c-0.062,0-0.154-0.015-0.277-0.045c-0.123-0.031-0.23-0.047-0.323-0.047
			c-0.031,0-0.077,0.008-0.139,0.023c-0.063,0.016-0.108,0.023-0.139,0.023c-0.093,0-0.216-0.047-0.37-0.139
			C28.86,87.745,28.752,87.7,28.69,87.7h-0.185c-0.185,0-0.386-0.077-0.601-0.232c-0.093-0.029-0.201-0.084-0.324-0.161
			S27.38,87.19,27.35,87.19h-0.139c-0.031-0.029-0.092-0.092-0.185-0.185s-0.17-0.153-0.231-0.185
			c-0.277-0.186-0.416-0.293-0.416-0.324c-0.34-0.03-0.756-0.23-1.249-0.602c-0.062-0.029-0.139-0.092-0.23-0.185
			c-0.093-0.093-0.17-0.153-0.231-0.185c-0.216-0.215-0.34-0.354-0.37-0.416l-0.37-0.277c0-0.063-0.046-0.131-0.139-0.209
			c-0.092-0.076-0.139-0.162-0.139-0.254l-0.231-0.092c-0.123-0.216-0.285-0.532-0.485-0.949c-0.2-0.416-0.347-0.7-0.439-0.855
			c-0.154-0.307-0.293-0.693-0.416-1.155c-0.092-0.308-0.139-0.478-0.139-0.509l-0.185-0.324c0-0.029-0.047-0.508-0.139-1.434
			c-0.093-0.462-0.139-0.708-0.139-0.739c-0.031-0.123-0.039-0.308-0.023-0.555s0.023-0.417,0.023-0.509
			c0-0.062-0.017-0.162-0.047-0.301s-0.046-0.238-0.046-0.301c0-0.061,0.016-0.123,0.046-0.185s0.047-0.108,0.047-0.139
			c0-0.062-0.008-0.169-0.023-0.323s-0.008-0.277,0.023-0.371l0.046-0.185c0.03-0.062,0.03-0.139,0-0.231l-0.046-0.185
			c0.092-0.37,0.153-0.601,0.185-0.693c0.03-0.093,0.046-0.239,0.046-0.439s0.016-0.386,0.047-0.556
			c0.03-0.168,0.093-0.3,0.185-0.393c0-0.338,0.123-0.693,0.37-1.063c0.062-0.555,0.216-0.909,0.463-1.063v-0.092
			c-0.031-0.063-0.047-0.108-0.047-0.139c0.062-0.031,0.123-0.094,0.186-0.186c0.061-0.093,0.107-0.139,0.139-0.139
			c0.03-0.03,0.03-0.062,0-0.093c-0.031-0.03-0.047-0.062-0.047-0.093c0.062-0.029,0.116-0.084,0.162-0.161s0.1-0.131,0.162-0.162
			c0.03-0.216,0.139-0.446,0.323-0.693c0.186-0.247,0.293-0.432,0.324-0.556c0.523-0.615,0.801-0.955,0.832-1.017
			c0.062-0.03,0.293-0.154,0.693-0.37c0.062-0.03,0.154-0.1,0.277-0.208s0.231-0.177,0.324-0.208c0.03,0,0.084-0.016,0.162-0.047
			c0.076-0.029,0.13-0.046,0.161-0.046c0.03,0,0.139-0.046,0.324-0.139c0.185-0.093,0.339-0.139,0.462-0.139
			c0.03-0.03,0.107-0.116,0.231-0.255c0.123-0.139,0.246-0.223,0.37-0.254c0.062-0.03,0.215-0.069,0.462-0.115
			c0.247-0.047,0.4-0.115,0.463-0.209c0.123,0.031,0.339,0.047,0.647,0.047h0.231c0.061,0,0.13-0.03,0.208-0.092
			c0.076-0.063,0.146-0.094,0.208-0.094c0.616-0.153,0.939-0.246,0.971-0.277c0.062,0.031,0.139,0.047,0.231,0.047
			c0.185,0,0.339-0.062,0.462-0.186c0.062-0.029,0.186-0.046,0.37-0.046h0.602C32.853,64.902,32.991,64.888,33.084,64.856z
			 M33.269,67.724c-0.031,0.246-0.185,0.447-0.462,0.601v0.231l-0.139,0.092c0,0.124-0.031,0.225-0.093,0.301
			c-0.063,0.078-0.132,0.162-0.208,0.255c-0.077,0.093-0.132,0.169-0.162,0.231c0,0.031,0.016,0.076,0.047,0.139
			c0.03,0.063,0.046,0.107,0.046,0.139l-0.093,0.046c-0.093,0.031-0.154,0.062-0.185,0.093v0.277c0,0.369-0.17,0.786-0.509,1.248
			v0.186c0,0.092-0.008,0.238-0.023,0.439c-0.016,0.2-0.022,0.346-0.022,0.439c0,0.185,0.03,0.369,0.092,0.555
			c-0.092,0.031-0.139,0.107-0.139,0.23c0,0.031,0,0.063,0,0.093c0,0.031-0.031,0.077-0.093,0.139
			c-0.03,0.093-0.054,0.201-0.069,0.323c-0.016,0.124-0.022,0.217-0.022,0.277c0.092,0.094,0.139,0.232,0.139,0.417
			s-0.063,0.37-0.186,0.555c0.062,0.185,0.093,0.323,0.093,0.416c0,0.155-0.031,0.354-0.093,0.602c0,0.03,0.031,0.077,0.093,0.139
			s0.077,0.124,0.046,0.185c-0.062,0.186-0.092,0.525-0.092,1.018c0,0.186,0.007,0.471,0.022,0.855
			c0.016,0.386,0.023,0.67,0.023,0.855v0.277c0,0.031,0.016,0.086,0.046,0.162c0.031,0.077,0.047,0.131,0.047,0.162
			c0.062,0.215,0.1,0.523,0.115,0.924c0.016,0.401,0.038,0.68,0.069,0.833l0.139,0.416c0.123,0.462,0.231,0.739,0.324,0.833
			c0.092,0.092,0.262,0.2,0.509,0.323c0.062,0,0.115,0.016,0.161,0.046c0.047,0.031,0.085,0.047,0.116,0.047
			c0.062,0.031,0.123,0.046,0.185,0.046c0.03,0,0.107-0.015,0.231-0.046c0.123-0.031,0.215-0.031,0.277,0
			c0.432-0.309,0.771-0.51,1.018-0.602c0.03-0.062,0.084-0.154,0.161-0.277s0.146-0.215,0.209-0.277
			c0.061-0.093,0.13-0.262,0.208-0.509c0.076-0.247,0.131-0.417,0.161-0.509l0.139-0.23c0.03-0.063,0.054-0.14,0.069-0.232
			c0.016-0.092,0.039-0.168,0.069-0.23c0.186-0.277,0.278-0.463,0.278-0.555c0-0.093-0.017-0.154-0.047-0.186
			c0.062-0.092,0.131-0.23,0.208-0.416s0.131-0.308,0.162-0.37l-0.046-0.185c0-0.093,0.03-0.2,0.092-0.324
			c0.062-0.123,0.093-0.199,0.093-0.23s0-0.1,0-0.209c0-0.107,0.016-0.191,0.046-0.254c0-0.062,0.016-0.123,0.047-0.186
			c0.03-0.061,0.046-0.107,0.046-0.139v-0.693c0.03-0.154,0.085-0.393,0.162-0.717c0.076-0.323,0.115-0.531,0.115-0.624
			c0.062-0.37,0.008-0.894-0.162-1.572c-0.169-0.678-0.254-1.171-0.254-1.479c-0.093-0.154-0.162-0.408-0.208-0.764
			c-0.046-0.354-0.085-0.577-0.115-0.67c-0.217-0.492-0.324-0.801-0.324-0.925c-0.37-0.647-0.57-1.079-0.601-1.295
			c-0.124-0.062-0.301-0.169-0.532-0.323s-0.424-0.262-0.578-0.324C33.731,67.755,33.516,67.724,33.269,67.724z"/>
	</g>
	<g>
		<path fill="#231F20" d="M90.654,64.255h0.277l0.277,0.139c0.309,0,0.478,0.016,0.509,0.047c0.062-0.031,0.169-0.047,0.324-0.047
			c0.092,0,0.254,0.031,0.485,0.093s0.408,0.093,0.531,0.093c0.093,0.063,0.239,0.139,0.439,0.23c0.2,0.093,0.354,0.17,0.463,0.231
			c0.107,0.063,0.215,0.17,0.323,0.323c0.107,0.155,0.177,0.324,0.208,0.51c0.03,0.062,0.093,0.123,0.186,0.185
			c0.092,0.062,0.153,0.108,0.185,0.139c0.03,0.031,0.054,0.101,0.069,0.208c0.016,0.108,0.023,0.178,0.023,0.208
			c0,0.031,0.015,0.063,0.046,0.093l0.046,0.092v0.277c0,0.031,0.039,0.102,0.116,0.209c0.076,0.107,0.115,0.193,0.115,0.254
			c0,0.063,0.008,0.139,0.023,0.231c0.015,0.093,0.038,0.17,0.069,0.231c0,0.063,0.015,0.139,0.046,0.23
			c0.03,0.093,0.047,0.155,0.047,0.186v0.139c0,0.063-0.008,0.146-0.023,0.254c-0.016,0.109-0.023,0.178-0.023,0.209
			c0,0.03,0.03,0.076,0.093,0.139c0,0.062,0.016,0.178,0.046,0.346c0.03,0.17,0.047,0.301,0.047,0.394
			c0.062,0.216,0.076,0.386,0.046,0.509c0,0.063-0.008,0.162-0.023,0.301s-0.022,0.254-0.022,0.347v0.185
			c0.062,0.37,0.092,0.633,0.092,0.786c0,0.185-0.03,0.323-0.092,0.417c0,0.03,0.015,0.076,0.046,0.139
			c0.03,0.062,0.046,0.123,0.046,0.185c0,0.03-0.008,0.069-0.022,0.115c-0.017,0.046-0.023,0.085-0.023,0.116l0.046,0.092
			c0,0.031,0,0.063,0,0.093v0.046c-0.03,0.031-0.046,0.063-0.046,0.093c0,0.031,0.007,0.101,0.023,0.208
			c0.015,0.108,0.022,0.193,0.022,0.254l0.047,0.094c0.03,0.062,0.046,0.107,0.046,0.139c0,0.062-0.016,0.154-0.046,0.277
			c-0.063,0.062-0.093,0.123-0.093,0.185c0,0.03,0.007,0.108,0.023,0.231c0.015,0.123,0.022,0.216,0.022,0.277
			c-0.03,0.063-0.046,0.107-0.046,0.139s0,0.107,0,0.23c0,0.124-0.031,0.186-0.093,0.186c0.093,0.154,0.139,0.293,0.139,0.416
			c0,0.031-0.008,0.101-0.022,0.208c-0.017,0.108-0.023,0.192-0.023,0.255c-0.063,0.062-0.093,0.123-0.093,0.185
			c-0.062,0.833-0.123,1.28-0.185,1.341c0.093,0.277,0.139,0.586,0.139,0.925c0,0.247-0.031,0.433-0.093,0.556
			c0.062,0.246,0.093,0.447,0.093,0.601c0,0.155-0.031,0.263-0.093,0.323c0.03,0.063,0.054,0.186,0.069,0.371
			c0.016,0.184,0.023,0.308,0.023,0.369l-0.139,0.139c0.03,0.063,0.046,0.154,0.046,0.277s-0.016,0.277-0.046,0.463
			c-0.031,0.185-0.046,0.323-0.046,0.416v0.186c-0.093,0.154-0.155,0.246-0.186,0.277c0,0.277-0.016,0.432-0.046,0.462v0.277
			c0,0.34-0.077,0.694-0.231,1.063l0.046,0.786c0,0.433-0.123,0.694-0.369,0.786c0.03,0.031,0.046,0.077,0.046,0.139
			c0,0.063-0.031,0.139-0.093,0.231S94.4,86.759,94.4,86.821c-0.063,0.062-0.201,0.192-0.417,0.393
			c-0.216,0.201-0.4,0.332-0.555,0.393l-0.185,0.047c-0.37,0.216-0.586,0.324-0.647,0.324c-0.771,0-1.279-0.031-1.526-0.094
			c-0.031,0-0.108-0.029-0.23-0.092c-0.124-0.062-0.217-0.107-0.278-0.139c-0.03,0-0.108-0.062-0.23-0.186
			c-0.433-0.092-0.74-0.292-0.925-0.601c-0.155-0.03-0.301-0.131-0.439-0.301c-0.139-0.169-0.225-0.27-0.255-0.3
			c-0.03-0.123-0.108-0.293-0.23-0.51c-0.124-0.215-0.201-0.385-0.231-0.508c-0.031-0.062-0.055-0.146-0.069-0.255
			c-0.016-0.107-0.023-0.192-0.023-0.254c-0.062-0.185-0.093-0.323-0.093-0.417v-0.555c0-0.092-0.03-0.284-0.092-0.578
			c-0.063-0.292-0.108-0.547-0.139-0.763c-0.031-0.215-0.047-0.538-0.047-0.971c-0.03-0.123-0.046-0.308-0.046-0.556
			c0-0.184,0.03-0.307,0.093-0.369c-0.063-0.062-0.093-0.186-0.093-0.37c0-0.062,0.016-0.185,0.046-0.37
			c0.03-0.185,0.047-0.323,0.047-0.416v-0.324c0-0.277,0.046-0.462,0.139-0.555c0-0.029-0.023-0.061-0.069-0.092
			c-0.047-0.031-0.069-0.076-0.069-0.139c0-0.062,0.007-0.123,0.022-0.186c0.016-0.061,0.023-0.123,0.023-0.185v-0.694
			c0-0.462,0.03-0.816,0.093-1.063c-0.031-0.063-0.047-0.17-0.047-0.324c0-0.123,0.03-0.308,0.093-0.555
			c0.062-0.246,0.093-0.4,0.093-0.463v-0.092c-0.031-0.063-0.047-0.107-0.047-0.139l0.047-0.093c0-0.03,0-0.062,0-0.093
			c0-0.123,0-0.324,0-0.602s0.015-0.477,0.046-0.601c0.062-0.431,0.093-0.755,0.093-0.972c0-0.029,0.03-0.076,0.093-0.139
			c0-0.061-0.017-0.107-0.047-0.139c-0.031-0.029-0.046-0.076-0.046-0.139l0.139-1.063v-0.047l-0.046-0.092
			c0-0.094,0.03-0.209,0.092-0.348s0.093-0.238,0.093-0.301c0-0.092,0.007-0.27,0.023-0.531c0.015-0.262,0.038-0.439,0.069-0.531
			l0.139-0.232c0.062-0.462,0.153-0.739,0.277-0.832c0-0.03-0.016-0.061-0.047-0.092c-0.03-0.031-0.046-0.077-0.046-0.139
			c0.062-0.186,0.093-0.309,0.093-0.371v-0.555c0-0.061,0.03-0.168,0.093-0.323c0.061-0.153,0.092-0.262,0.092-0.323
			c0-0.216-0.031-0.51-0.092-0.879c0.061-0.062,0.107-0.169,0.139-0.324c0.03-0.153,0.061-0.246,0.092-0.277
			C89.637,64.348,90.068,64.255,90.654,64.255z"/>
		<path fill="#231F20" d="M99.764,64.902c0.523,0,0.939,0.077,1.248,0.231c0.062,0.123,0.186,0.262,0.37,0.416
			s0.293,0.293,0.323,0.416c0.093,0.031,0.178,0.132,0.255,0.301c0.076,0.17,0.146,0.285,0.208,0.347
			c0.03,0.586,0.2,1.233,0.509,1.942c-0.063,0.186-0.047,0.324,0.046,0.416c0,0.063-0.046,0.139-0.139,0.231
			c0.123,0.339,0.246,0.555,0.37,0.647l0.139,0.602c0.123-0.031,0.238-0.123,0.347-0.278c0.107-0.153,0.208-0.246,0.301-0.277
			c0.03-0.216,0.185-0.423,0.462-0.624c0.278-0.2,0.447-0.331,0.509-0.393c0.062,0,0.162-0.039,0.301-0.116s0.254-0.116,0.347-0.116
			c0.463-0.277,0.816-0.431,1.063-0.462l0.786-0.093c0.03,0,0.131-0.029,0.301-0.092c0.169-0.062,0.315-0.093,0.439-0.093
			l0.786-0.093c0.03,0,0.076-0.007,0.139-0.023c0.062-0.015,0.107-0.022,0.139-0.022c0.03,0,0.084,0.008,0.162,0.022
			c0.076,0.017,0.146,0.023,0.208,0.023l0.509-0.046c0.061,0.062,0.139,0.093,0.23,0.093h0.186l0.046,0.046c0.03,0,0.062,0,0.093,0
			c0.062,0,0.162,0,0.301,0s0.238,0.017,0.3,0.046c0.03,0.063,0.062,0.093,0.093,0.093h0.185c0.093,0.093,0.17,0.139,0.231,0.139
			c0.062,0.031,0.107,0.062,0.139,0.093c0.03,0.031,0.069,0.063,0.116,0.092c0.046,0.031,0.084,0.063,0.115,0.093
			c0.03,0.031,0.076,0.063,0.139,0.093l0.093,0.047c0,0.03,0.015,0.062,0.046,0.092c0.03,0.031,0.046,0.063,0.046,0.092
			c0.309,0.217,0.479,0.387,0.509,0.51c0.154,0,0.417,0.107,0.786,0.323c-0.03,0.093-0.016,0.17,0.047,0.231
			c0.153,0.123,0.354,0.347,0.601,0.67c0.247,0.324,0.4,0.518,0.463,0.578v0.231c0,0.185,0.046,0.309,0.139,0.37
			c0,0.092-0.031,0.17-0.093,0.23c0.154,0.124,0.262,0.494,0.324,1.11l0.139,0.185c0.092,0.124,0.153,0.217,0.185,0.277v0.093
			c0,0.124,0.03,0.247,0.093,0.37c0.062,0.154,0.03,0.262-0.093,0.324c0.062,0.062,0.093,0.107,0.093,0.139
			c0,0.154,0.053,0.339,0.161,0.555s0.162,0.386,0.162,0.508c0,0.063-0.008,0.139-0.022,0.232c-0.017,0.092-0.023,0.154-0.023,0.184
			c0,0.094,0.015,0.17,0.046,0.232c0,0.031-0.039,0.076-0.115,0.139c-0.077,0.062-0.116,0.123-0.116,0.185
			c0.186,0,0.309,0.077,0.37,0.231v0.092c0,0.031-0.008,0.086-0.022,0.162c-0.017,0.078-0.023,0.146-0.023,0.208v0.093
			c0,0.063,0.023,0.139,0.069,0.23c0.046,0.094,0.069,0.155,0.069,0.186c0,0.063-0.023,0.123-0.069,0.186
			c-0.046,0.062-0.069,0.107-0.069,0.139c0,0.092,0.03,0.2,0.093,0.323c0.061,0.124,0.092,0.231,0.092,0.323v0.139
			c0.062,0.093,0.108,0.155,0.139,0.186c-0.062,0.216-0.062,0.34,0,0.369c0,0.063-0.03,0.109-0.092,0.14
			c-0.063,0.03-0.093,0.062-0.093,0.093c0.03,0.062,0.076,0.107,0.139,0.139c0.062,0.031,0.093,0.062,0.093,0.092l0.046,0.186
			c0,0.092-0.046,0.192-0.139,0.301c-0.093,0.107-0.139,0.192-0.139,0.254c0,0.031,0.015,0.077,0.046,0.139v0.047
			c-0.031,0.03-0.077,0.03-0.139,0c0.093,0.092,0.093,0.184,0,0.277c0.093,0.123,0.139,0.277,0.139,0.462
			c0,0.062-0.016,0.093-0.046,0.093c-0.031,0-0.055,0-0.069,0c-0.016,0-0.023,0.016-0.023,0.046c0,0.062,0.038,0.093,0.116,0.093
			c0.076,0,0.115,0.046,0.115,0.139c0,0.031-0.031,0.077-0.093,0.139h0.093c0.062,0,0.093,0.016,0.093,0.046
			c0,0.031-0.031,0.069-0.093,0.116c-0.063,0.046-0.093,0.1-0.093,0.161c0.062,0,0.169-0.03,0.324-0.093
			c-0.124,0.401-0.324,0.602-0.602,0.602l0.139,0.277c0.154-0.061,0.186-0.123,0.093-0.185c0.062,0.03,0.139,0.077,0.231,0.139
			c0.092,0.062,0.153,0.093,0.185,0.093c-0.031,0.031-0.046,0.17-0.046,0.416c-0.031,0-0.047-0.016-0.047-0.047
			c0-0.03-0.008-0.053-0.022-0.068c-0.017-0.016-0.039-0.023-0.069-0.023c-0.031,0-0.063,0.016-0.093,0.046
			c-0.031,0.031-0.077,0.031-0.139,0c0.03,0.093,0.093,0.208,0.185,0.347c0.093,0.139,0.139,0.254,0.139,0.347
			c0,0.124-0.046,0.286-0.139,0.485c-0.092,0.201-0.139,0.348-0.139,0.439l-0.139,0.093c-0.092,0.062-0.154,0.124-0.185,0.185
			c0.03,0.063,0.093,0.093,0.185,0.093c0,0.062-0.016,0.139-0.046,0.231c-0.031,0.092-0.046,0.154-0.046,0.185
			c0,0.063,0.022,0.108,0.069,0.14c0.046,0.03,0.069,0.076,0.069,0.139c-0.247,0.062-0.37,0.154-0.37,0.277
			c-0.186,0.062-0.294,0.123-0.324,0.185v0.093c0,0.062-0.016,0.162-0.046,0.301c-0.031,0.139-0.046,0.238-0.046,0.3
			c-0.063,0.031-0.108,0.077-0.139,0.139c-0.063,0.063-0.108,0.093-0.139,0.093c0,0.031-0.017,0.069-0.047,0.115
			c-0.031,0.047-0.031,0.101,0,0.162c-0.309,0.247-0.509,0.463-0.601,0.647c-0.063,0-0.108-0.015-0.139-0.046
			c-0.031-0.031-0.063-0.047-0.093-0.047v0.277c-0.154,0.063-0.277,0.139-0.37,0.231c-0.401,0.093-0.617,0.169-0.647,0.231
			c-0.031,0-0.154,0.046-0.37,0.139c-0.031,0.03-0.092,0.046-0.185,0.046c-0.063,0-0.132-0.016-0.208-0.046
			c-0.077-0.031-0.132-0.047-0.162-0.047c-0.093,0-0.154,0.016-0.185,0.047v-0.093h-0.093l-0.416-0.139h-0.093
			c-0.031,0-0.093,0.015-0.185,0.046c-0.093,0.031-0.17,0.047-0.231,0.047l-0.093-0.047c-0.031,0-0.031,0.016,0,0.047
			c0.03,0.03,0.016,0.046-0.046,0.046c-0.063,0.03-0.108,0-0.139-0.093c-0.031-0.092-0.063-0.139-0.093-0.139
			c-0.062-0.031-0.115-0.039-0.162-0.023c-0.046,0.016-0.085,0.008-0.115-0.022c-0.031-0.031-0.046-0.153-0.046-0.37
			c0-0.03-0.017-0.076-0.047-0.139c-0.03,0-0.046,0.031-0.046,0.093c-0.063,0.062-0.124,0.108-0.185,0.139
			c-0.063-0.153-0.124-0.231-0.186-0.231c-0.031-0.061-0.016-0.1,0.047-0.115c0.061-0.016,0.092-0.039,0.092-0.069
			c0-0.154-0.092-0.284-0.277-0.394c-0.185-0.107-0.293-0.177-0.323-0.208c-0.031-0.062-0.023-0.13,0.022-0.208
			c0.047-0.076,0.069-0.131,0.069-0.162h-0.139c-0.123,0-0.216-0.015-0.277-0.046c0-0.062-0.022-0.122-0.069-0.185
			c-0.046-0.062-0.069-0.107-0.069-0.139v-0.093c-0.031-0.062-0.077-0.131-0.139-0.208c-0.063-0.076-0.108-0.131-0.139-0.162
			c-0.247-1.387-0.37-2.096-0.37-2.127c0-0.093,0.03-0.169,0.093-0.231c0.03-0.03,0.023-0.054-0.023-0.069
			c-0.046-0.016-0.069-0.038-0.069-0.069c0-0.093-0.031-0.339-0.092-0.739c-0.063-0.4-0.093-0.694-0.093-0.879
			c0-0.154,0.03-0.246,0.093-0.277c-0.031-0.031-0.055-0.131-0.069-0.301c-0.017-0.169-0.07-0.27-0.162-0.301
			c0-0.03,0.007-0.092,0.022-0.185s0.039-0.169,0.069-0.231c-0.092-0.123-0.139-0.339-0.139-0.647
			c0.062-0.216,0.077-0.4,0.047-0.555v-0.37c0.062-0.246,0.092-0.416,0.092-0.509s-0.046-0.185-0.139-0.277
			c0-0.339,0.031-0.816,0.093-1.434c0-0.062-0.031-0.093-0.093-0.093c-0.03-0.029-0.046-0.061-0.046-0.092
			c0.03-0.093,0.046-0.231,0.046-0.416v-1.11c-0.092-0.093-0.139-0.2-0.139-0.323c0-0.093,0.016-0.215,0.047-0.37
			c0.03-0.153,0.046-0.262,0.046-0.323v-0.371v-0.045l0.046-0.094c0-0.061-0.008-0.139-0.022-0.23
			c-0.017-0.093-0.023-0.154-0.023-0.186c0-0.092,0.016-0.153,0.046-0.185l-0.139-0.786v-0.879c0-0.492-0.016-0.862-0.046-1.109
			c0-0.062-0.039-0.1-0.115-0.115c-0.078-0.016-0.17-0.031-0.277-0.047c-0.108-0.016-0.178-0.038-0.209-0.069
			c-0.616,0.309-0.986,0.617-1.109,0.925c-0.031,0-0.054,0.023-0.069,0.07c-0.016,0.045-0.054,0.068-0.115,0.068
			c-0.031,0.063-0.116,0.201-0.255,0.416c-0.139,0.217-0.224,0.401-0.254,0.555c-0.031,0.031-0.063,0.063-0.093,0.094l-0.046,0.046
			c0,0.124-0.031,0.216-0.093,0.277c0,0.03,0.007,0.069,0.023,0.115c0.015,0.046,0.022,0.085,0.022,0.116
			c0,0.185-0.092,0.369-0.277,0.555c0.03,0,0.062,0.016,0.093,0.046v0.093c0,0.031-0.008,0.108-0.023,0.23
			c-0.016,0.124-0.022,0.217-0.022,0.277c0,0.094,0.015,0.17,0.046,0.232c-0.124,0.062-0.201,0.123-0.231,0.185
			c0.03,0.093,0.047,0.247,0.047,0.462c0,0.217-0.031,0.571-0.093,1.064c0,0.031-0.039,0.062-0.116,0.092
			c-0.077,0.031-0.131,0.078-0.161,0.139c0.03,0.063,0.076,0.078,0.139,0.047c0.062-0.031,0.107-0.047,0.139-0.047
			c0,0.063-0.008,0.146-0.023,0.254c-0.016,0.109-0.022,0.209-0.022,0.301c0,0.031-0.039,0.07-0.116,0.116s-0.101,0.101-0.069,0.161
			c0,0.063,0.046,0.094,0.139,0.094c0.093,0.184,0.077,0.339-0.046,0.462c0.062,0.062,0.093,0.139,0.093,0.231
			c0,0.092-0.031,0.224-0.093,0.393c-0.063,0.17-0.093,0.285-0.093,0.347l0.046,0.139c0.031,0.093,0.031,0.17,0,0.231
			c0,0.031-0.016,0.092-0.046,0.186v0.092c0,0.031,0.016,0.077,0.046,0.139l0.047,0.093V79.7c0,0.092-0.039,0.224-0.116,0.393
			c-0.077,0.17-0.115,0.301-0.115,0.393l0.046,0.186v0.047c-0.03,0.03-0.077,0.045-0.139,0.045l0.139,0.371
			c-0.123,0-0.185,0.016-0.185,0.046c0,0.062,0.03,0.101,0.093,0.115c0.062,0.017,0.092,0.039,0.092,0.069v0.139
			c0,0.34,0.03,0.54,0.093,0.602c-0.031,0.031-0.054,0.077-0.069,0.139c-0.016,0.063-0.039,0.123-0.069,0.185
			c-0.031,0.063-0.063,0.124-0.093,0.185l-0.046-0.045c-0.031-0.031-0.063-0.047-0.093-0.047c0.062,0.063,0.069,0.123,0.023,0.186
			c-0.046,0.062-0.039,0.139,0.023,0.23c-0.031,0-0.069,0.039-0.116,0.115c-0.046,0.078-0.101,0.132-0.161,0.162
			c0,0.217-0.047,0.401-0.14,0.555c0,0.217-0.092,0.602-0.277,1.156c-0.092,0.37-0.2,0.679-0.323,0.925v0.231
			c0,0.247-0.063,0.524-0.185,0.832c-0.031,0-0.063,0.016-0.093,0.047c-0.031,0.031-0.077,0.031-0.139,0
			c-0.063,0.154-0.124,0.23-0.186,0.23c-0.062,0.37-0.339,0.664-0.832,0.879c-0.123,0-0.201-0.016-0.231-0.047
			c-0.031-0.029-0.054-0.029-0.069,0c-0.016,0.031-0.039,0.047-0.069,0.047c-0.031,0-0.115-0.008-0.254-0.023
			c-0.139-0.015-0.255-0.023-0.347-0.023c-0.524,0-0.941,0.047-1.249,0.14l-1.018-0.14c-0.03-0.061-0.085-0.107-0.161-0.139
			c-0.077-0.029-0.132-0.061-0.162-0.092c-0.031,0-0.046-0.03-0.046-0.092c-0.186-0.094-0.324-0.186-0.417-0.278l-0.185-0.37
			l-0.139-0.139c-0.031-0.061-0.063-0.169-0.093-0.323c-0.03-0.153-0.077-0.278-0.139-0.37c0-0.03,0.03-0.123,0.093-0.277
			c0-0.03-0.023-0.054-0.069-0.069c-0.046-0.015-0.069-0.038-0.069-0.069c0-0.03,0.023-0.069,0.069-0.115
			c0.046-0.047,0.069-0.085,0.069-0.116c-0.093-0.03-0.146-0.077-0.162-0.139s-0.054-0.107-0.115-0.139
			c0-0.093-0.008-0.27-0.023-0.532c-0.016-0.262-0.022-0.454-0.022-0.578c0-0.246,0.015-0.416,0.046-0.508
			c-0.093-0.031-0.139-0.123-0.139-0.277s0.03-0.293,0.093-0.416c-0.031-0.031-0.055-0.108-0.07-0.232
			c-0.016-0.122-0.054-0.199-0.115-0.23c0-0.463,0.03-0.786,0.093-0.971c-0.063-0.246-0.093-0.493-0.093-0.74
			c0-0.463,0.046-0.801,0.139-1.018c-0.185-0.185-0.185-0.339,0-0.463c-0.093-0.369-0.139-0.678-0.139-0.924v-0.139
			c0-0.031,0-0.062,0-0.093l0.046-0.093c0-0.03-0.016-0.092-0.046-0.185c-0.031-0.093-0.031-0.169,0-0.231l0.046-0.186
			c0-0.277-0.03-0.693-0.092-1.248l0.046-0.046c0-0.03,0-0.062,0-0.093c0-0.092-0.039-0.223-0.115-0.393
			c-0.077-0.17-0.116-0.301-0.116-0.394s0.03-0.2,0.093-0.323c-0.063-0.37-0.093-0.647-0.093-0.832V73.18
			c0-0.4-0.016-0.693-0.046-0.878c0-0.031,0.016-0.077,0.046-0.139l0.047-0.047c0-0.03-0.031-0.107-0.093-0.231
			c0-0.153,0.016-0.323,0.046-0.509c0.03-0.185,0.069-0.393,0.116-0.624c0.046-0.231,0.084-0.408,0.115-0.532
			c0-0.061,0.008-0.176,0.023-0.346c0.015-0.17,0.038-0.285,0.069-0.348c0-0.03,0.038-0.199,0.115-0.508s0.116-0.524,0.116-0.648
			v-0.092c0.092-0.186,0.139-0.37,0.139-0.555c-0.063-0.123-0.093-0.201-0.093-0.231c0.03-0.03,0.062-0.03,0.093,0v0.046
			c0.062-0.092,0.107-0.246,0.139-0.463c0.03-0.215,0.062-0.354,0.092-0.416c0.123-0.092,0.231-0.23,0.324-0.416
			c0-0.029,0.015-0.076,0.046-0.139l0.047-0.092c0.03-0.031,0.053-0.093,0.069-0.186c0.015-0.092,0.038-0.154,0.069-0.185
			c0.03-0.03,0.1-0.093,0.208-0.185c0.107-0.094,0.177-0.186,0.208-0.277C98.499,64.995,99.023,64.902,99.764,64.902z
			 M100.596,84.509h-0.139c0.062,0.092,0.123,0.123,0.185,0.092c0-0.029-0.008-0.045-0.022-0.045
			C100.603,84.556,100.596,84.54,100.596,84.509z M108.18,76.972h-0.139v0.185C108.071,77.156,108.117,77.095,108.18,76.972z
			 M110.445,88.532c-0.124,0-0.186,0.077-0.186,0.23C110.383,88.763,110.445,88.687,110.445,88.532z M110.63,88.624h-0.092
			c0,0.063-0.017,0.093-0.047,0.093h0.139V88.624z M112.434,86.636c0,0.031-0.016,0.063-0.046,0.093l0.046-0.046
			C112.464,86.683,112.464,86.667,112.434,86.636z M113.313,84.37v0.23c0.092,0.031,0.139,0.017,0.139-0.045
			C113.481,84.433,113.435,84.37,113.313,84.37z M116.133,82.428c-0.124,0-0.216,0.017-0.277,0.046
			C115.886,82.598,115.979,82.583,116.133,82.428z M116.04,84.185v0.094c-0.031,0.03-0.031,0.062,0,0.092
			c0.062,0,0.093-0.03,0.093-0.092C116.133,84.216,116.102,84.185,116.04,84.185z"/>
		<path fill="#231F20" d="M128.571,64.671l0.462-0.046c0.093,0,0.262,0.031,0.509,0.093c0.247,0.063,0.446,0.092,0.602,0.092h0.231
			c0.492,0.063,1.433,0.231,2.82,0.51c0.03,0.03,0.115,0.068,0.254,0.115c0.139,0.046,0.224,0.115,0.255,0.208h0.277
			c0.062,0.062,0.284,0.192,0.671,0.394c0.385,0.2,0.639,0.424,0.763,0.67v0.092c0,0.063-0.008,0.139-0.023,0.232
			c-0.016,0.092-0.023,0.154-0.023,0.184c0,0.094,0.016,0.155,0.047,0.186c-0.031,0.031-0.108,0.101-0.231,0.208
			c-0.123,0.108-0.231,0.193-0.323,0.255h-0.093c-0.063,0-0.139,0.008-0.231,0.023s-0.154,0.022-0.185,0.022
			c-0.031,0-0.077-0.03-0.139-0.093c-0.063,0.031-0.155,0.055-0.277,0.07c-0.124,0.016-0.217,0.022-0.278,0.022
			c-0.03,0-0.123,0.046-0.277,0.139s-0.277,0.139-0.369,0.139h-0.093c-0.216,0-0.354,0.017-0.416,0.046
			c-0.247,0.031-0.447,0.139-0.602,0.324c-0.401,0.063-0.817,0.154-1.248,0.277c-0.031,0-0.093,0.031-0.186,0.092
			c-0.092,0.063-0.17,0.094-0.231,0.094h-0.185c-0.093,0.092-0.17,0.154-0.231,0.185c-0.03,0-0.131,0.008-0.3,0.022
			c-0.17,0.017-0.286,0.039-0.348,0.07l-0.092,0.092c-0.093,0.093-0.17,0.139-0.231,0.139c-0.063,0.063-0.093,0.124-0.093,0.186
			c-0.216,0-0.409,0.092-0.578,0.277c-0.17,0.185-0.3,0.293-0.393,0.323c-0.031,0.031-0.031,0.063,0,0.093v0.092
			c-0.093,0.031-0.193,0.116-0.301,0.255c-0.108,0.139-0.192,0.224-0.254,0.255v0.277c-0.063,0.063-0.139,0.192-0.231,0.393
			c-0.093,0.201-0.201,0.332-0.324,0.393c-0.185,0.556-0.308,1.003-0.369,1.342c-0.031,0-0.063,0.023-0.093,0.069
			c-0.031,0.046-0.077,0.085-0.139,0.115v0.601c0,0.031-0.039,0.094-0.116,0.186c-0.077,0.093-0.115,0.186-0.115,0.277
			c-0.093,0.031-0.17,0.124-0.231,0.277c-0.062,0.154-0.123,0.248-0.185,0.277c0.123,0.186,0.107,0.324-0.046,0.416
			c0.061,0.124,0.092,0.217,0.092,0.277c0,0.063-0.016,0.155-0.046,0.278c-0.031,0.124-0.046,0.216-0.046,0.277
			c0.185,0.155,0.547,0.247,1.086,0.277c0.539,0.031,0.886,0.062,1.041,0.093c0.062,0,0.092-0.016,0.092-0.047
			c0.062-0.029,0.108-0.046,0.14-0.046c0,0.062,0.061,0.093,0.185,0.093c0.215,0,0.686-0.008,1.41-0.023
			c0.724-0.016,1.302-0.038,1.734-0.069c1.018-0.093,1.648-0.122,1.896-0.093c0.062,0,0.154,0.016,0.277,0.047
			s0.216,0.046,0.277,0.046c0.093,0,0.27,0.008,0.532,0.022c0.262,0.017,0.454,0.039,0.578,0.07c0.185,0.031,0.385,0.107,0.601,0.23
			c0.247,0.186,0.432,0.294,0.556,0.324c0.277,0.37,0.431,0.57,0.462,0.602c0.093,0.555,0.139,0.863,0.139,0.924
			c0,0.217-0.062,0.387-0.185,0.51c0,0.062,0.007,0.178,0.022,0.346c0.016,0.17,0.023,0.301,0.023,0.394
			c0,0.062-0.031,0.216-0.093,0.462c0,0.031,0.008,0.109,0.023,0.232s0.023,0.215,0.023,0.277v0.139
			c0,0.062-0.031,0.154-0.093,0.277c0,0.277-0.016,0.447-0.046,0.508c0.092,0.186,0.139,0.309,0.139,0.37
			c0,0.063-0.017,0.108-0.047,0.14c-0.03,0.062-0.016,0.107,0.047,0.139h0.092c-0.062,0.185-0.092,0.293-0.092,0.323
			c0.062,0.03,0.092,0.247,0.092,0.647c0,0.031,0.031,0.063,0.093,0.092c0.062,0.031,0.093,0.078,0.093,0.139
			c-0.063,0.124-0.093,0.217-0.093,0.277c0,0.063,0.008,0.132,0.023,0.209c0.015,0.077,0.038,0.162,0.069,0.254
			c0.03,0.093,0.046,0.17,0.046,0.231s-0.008,0.161-0.022,0.3c-0.017,0.139-0.023,0.24-0.023,0.301l0.046,0.186
			c0,0.031-0.016,0.069-0.046,0.115c-0.031,0.047-0.046,0.086-0.046,0.115c0.061,0.124,0.092,0.217,0.092,0.277
			c0,0.031-0.016,0.078-0.046,0.139v0.047c0,0.063,0.007,0.115,0.023,0.162c0.015,0.046,0.022,0.085,0.022,0.115v0.509
			c-0.092,0.124-0.123,0.247-0.092,0.37c-0.186,0.34-0.278,0.539-0.278,0.602c0,0.03,0.016,0.068,0.047,0.115
			c0.03,0.046,0.046,0.085,0.046,0.115c0,0.031-0.031,0.123-0.093,0.277c0.062,0.063,0.093,0.123,0.093,0.186
			c0,0.061-0.023,0.146-0.069,0.254c-0.046,0.107-0.054,0.192-0.023,0.254c-0.03,0.123-0.123,0.232-0.277,0.324
			c0,0.03,0.016,0.069,0.047,0.115c0.03,0.047,0.03,0.085,0,0.116c0,0.03-0.069,0.146-0.208,0.347
			c-0.139,0.2-0.225,0.377-0.255,0.531c-0.4,0.463-0.802,0.709-1.202,0.74c0,0.03-0.023,0.062-0.069,0.093
			c-0.046,0.03-0.108,0.062-0.185,0.093c-0.078,0.029-0.132,0.061-0.162,0.092c-0.031,0-0.077,0.03-0.139,0.093
			c-0.063,0.062-0.108,0.092-0.139,0.092c-0.031,0-0.063,0-0.093,0c-0.063,0-0.108,0.016-0.139,0.047
			c-0.093,0.03-0.263,0.047-0.509,0.047c-0.154,0-0.277-0.017-0.37-0.047c-0.493-0.154-0.786-0.294-0.878-0.416l-0.416-0.602
			c-0.063-0.062-0.147-0.132-0.255-0.208c-0.108-0.077-0.192-0.146-0.254-0.208c-0.063-0.124-0.124-0.316-0.186-0.578
			c-0.062-0.263-0.092-0.409-0.092-0.438c-0.031-0.063-0.078-0.162-0.14-0.301s-0.108-0.285-0.139-0.439
			c0-0.063-0.008-0.162-0.022-0.301c-0.017-0.139-0.023-0.254-0.023-0.347c0-0.062,0.046-0.284,0.139-0.671
			c0.093-0.385,0.123-0.701,0.093-0.947c-0.309,0.092-0.586,0.215-0.832,0.369h-0.093c-0.063,0-0.162,0.039-0.301,0.115
			c-0.139,0.078-0.254,0.116-0.347,0.116h-0.186c-0.432,0.155-0.709,0.277-0.832,0.37H127.6c-0.092,0-0.27,0.039-0.531,0.115
			c-0.263,0.078-0.471,0.115-0.624,0.115c-0.247,0-0.586-0.029-1.018-0.092l-0.139-0.139c-0.063,0-0.108,0.016-0.139,0.046
			c-0.031,0.031-0.077,0.031-0.139,0h-0.186c-0.185,0-0.309-0.046-0.369-0.139c-0.617,0.063-1.172-0.077-1.665-0.416h-0.139
			c-0.031,0-0.247-0.077-0.647-0.231c-0.093-0.03-0.231-0.076-0.416-0.139c-0.186-0.061-0.324-0.123-0.416-0.185l-0.231-0.231
			c-0.247-0.123-0.401-0.23-0.463-0.324c-0.062,0.031-0.123,0.031-0.185,0c-0.093-0.153-0.231-0.246-0.416-0.277
			c-0.524-0.523-0.832-0.862-0.925-1.018c-0.031-0.029-0.124-0.122-0.277-0.277c-0.155-0.153-0.294-0.261-0.416-0.323
			c-0.031-0.093-0.093-0.192-0.186-0.3c-0.093-0.108-0.154-0.193-0.185-0.255c0-0.03-0.023-0.116-0.069-0.255
			c-0.047-0.139-0.101-0.238-0.162-0.3c0.03-0.03,0.046-0.062,0.046-0.093c0-0.03-0.03-0.107-0.092-0.23
			c-0.063-0.123-0.108-0.232-0.139-0.324v-0.139l-0.139-0.277c-0.124-0.186-0.186-0.34-0.186-0.463c0-0.061,0.016-0.123,0.046-0.185
			c-0.123-0.185-0.216-0.663-0.277-1.434c0-0.093,0.047-0.139,0.139-0.139c0-0.03-0.03-0.062-0.092-0.093
			c-0.063-0.03-0.093-0.062-0.093-0.092c0-0.34,0.03-0.556,0.093-0.648c-0.063-0.185-0.093-0.323-0.093-0.416
			c0-0.092,0.016-0.23,0.046-0.416c0.03-0.185,0.047-0.324,0.047-0.416c0-0.03,0.03-0.076,0.092-0.139v-0.971
			c0-0.063,0.023-0.139,0.069-0.231c0.047-0.093,0.069-0.169,0.069-0.231c0-0.339,0.047-0.523,0.14-0.555
			c-0.063-0.03-0.07-0.1-0.023-0.208c0.046-0.108,0.069-0.177,0.069-0.208c0.03-0.154,0.046-0.354,0.046-0.602
			c0-0.246,0-0.432,0-0.555l0.139-0.231c0.03-0.093,0.047-0.246,0.047-0.462s0.015-0.37,0.046-0.463
			c0.03-0.03,0.076-0.107,0.139-0.23v-0.139c0-0.154,0.123-0.354,0.37-0.602v-0.139c0-0.093,0.03-0.2,0.093-0.324
			c0.061-0.123,0.092-0.215,0.092-0.277v-0.092c0.062-0.063,0.154-0.216,0.277-0.463c0.123-0.246,0.262-0.4,0.417-0.463
			c-0.031-0.061-0.031-0.123,0-0.185c0.03-0.062,0.046-0.107,0.046-0.139l0.185-0.185c0.093-0.277,0.216-0.493,0.37-0.648
			c0.03-0.215,0.169-0.445,0.416-0.693c0.247-0.246,0.386-0.416,0.416-0.508l0.556-0.463l0.508-0.463h0.186
			c0.523-0.338,0.894-0.508,1.109-0.508c0.4-0.216,1.048-0.471,1.942-0.764c0.894-0.293,1.479-0.5,1.757-0.624l0.139,0.093
			c0.186-0.093,0.4-0.139,0.647-0.139h0.139c0.062-0.062,0.208-0.076,0.439-0.047c0.231,0.031,0.377,0.016,0.439-0.046
			C128.401,64.656,128.479,64.671,128.571,64.671z M130.051,80.439c-0.093,0.031-0.231,0.046-0.416,0.046s-0.324,0-0.416,0
			c-0.433,0.063-1.087,0.102-1.966,0.116c-0.878,0.016-1.349,0.022-1.41,0.022c-0.093,0-0.201-0.022-0.323-0.068
			c-0.124-0.047-0.217-0.07-0.277-0.07c-0.463,0.031-0.694,0.371-0.694,1.018c0.03,0.34,0.093,0.602,0.186,0.786l0.139,0.417
			l0.277,0.277l0.093,0.185c0.03,0.03,0.092,0.132,0.185,0.3c0.093,0.17,0.169,0.271,0.231,0.301l0.139,0.047
			c0.092,0,0.169,0.016,0.231,0.046l0.139,0.185c0.061,0.063,0.2,0.093,0.416,0.093c0.246,0,0.462-0.046,0.647-0.139
			c0.062,0,0.115-0.015,0.161-0.046c0.047-0.03,0.093-0.069,0.139-0.115c0.047-0.047,0.085-0.085,0.116-0.116
			c0.03,0.031,0.062,0.046,0.093,0.046c0.122-0.123,0.215-0.168,0.277-0.139c0.03-0.061,0.122-0.169,0.277-0.323
			c0.185-0.123,0.323-0.185,0.416-0.185c0.062-0.093,0.354-0.4,0.879-0.926c0.03-0.061,0.153-0.199,0.369-0.416l0.417-0.277
			c0-0.03,0.122-0.169,0.369-0.416c-0.03-0.062-0.069-0.169-0.115-0.324c-0.046-0.153-0.101-0.246-0.162-0.277
			C130.436,80.456,130.297,80.439,130.051,80.439z"/>
	</g>
	<g>
		<path fill="#231F20" d="M93.048,105.929c0.399,0.119,0.78,0.3,1.14,0.54l0.181,0.06c0.079,0.081,0.199,0.25,0.359,0.51
			c0.16,0.262,0.301,0.431,0.42,0.51c0,0.121,0.1,0.381,0.301,0.781v1.439c0,0.039-0.07,0.12-0.21,0.24
			c-0.141,0.119-0.231,0.219-0.271,0.3c-0.16,0.239-0.34,0.38-0.54,0.42c-0.24,0.24-0.381,0.42-0.42,0.54c-0.6,0-1,0.061-1.2,0.18
			c-0.08-0.08-0.24-0.119-0.479-0.119c-0.16,0-0.351-0.081-0.57-0.24c-0.221-0.16-0.39-0.24-0.51-0.24
			c-0.04-0.201-0.201-0.34-0.48-0.42c-0.08-0.24-0.18-0.381-0.3-0.42c0-0.201-0.07-0.47-0.21-0.811
			c-0.141-0.339-0.21-0.609-0.21-0.81c0-0.24,0.039-0.399,0.12-0.479l0.24-0.48v-0.061v-0.119c0-0.04,0.05-0.121,0.149-0.24
			c0.1-0.12,0.13-0.22,0.09-0.301c0.12-0.079,0.26-0.199,0.42-0.359c0.04,0,0.24-0.12,0.601-0.359
			C91.947,105.949,92.407,105.929,93.048,105.929z"/>
		<path fill="#231F20" d="M99.707,105.929c0.399,0.119,0.78,0.3,1.14,0.54l0.181,0.06c0.079,0.081,0.199,0.25,0.359,0.51
			c0.16,0.262,0.301,0.431,0.42,0.51c0,0.121,0.1,0.381,0.301,0.781v1.439c0,0.039-0.07,0.12-0.21,0.24
			c-0.141,0.119-0.231,0.219-0.271,0.3c-0.16,0.239-0.34,0.38-0.54,0.42c-0.24,0.24-0.381,0.42-0.42,0.54c-0.6,0-1,0.061-1.2,0.18
			c-0.08-0.08-0.24-0.119-0.479-0.119c-0.16,0-0.351-0.081-0.57-0.24c-0.221-0.16-0.39-0.24-0.51-0.24
			c-0.04-0.201-0.201-0.34-0.48-0.42c-0.08-0.24-0.18-0.381-0.3-0.42c0-0.201-0.07-0.47-0.21-0.811
			c-0.141-0.339-0.21-0.609-0.21-0.81c0-0.24,0.039-0.399,0.12-0.479l0.24-0.48v-0.061v-0.119c0-0.04,0.05-0.121,0.149-0.24
			c0.1-0.12,0.13-0.22,0.09-0.301c0.12-0.079,0.26-0.199,0.42-0.359c0.04,0,0.24-0.12,0.601-0.359
			C98.606,105.949,99.066,105.929,99.707,105.929z"/>
		<path fill="#231F20" d="M106.366,105.929c0.399,0.119,0.78,0.3,1.14,0.54l0.181,0.06c0.079,0.081,0.199,0.25,0.359,0.51
			c0.16,0.262,0.301,0.431,0.42,0.51c0,0.121,0.1,0.381,0.301,0.781v1.439c0,0.039-0.07,0.12-0.21,0.24
			c-0.141,0.119-0.231,0.219-0.271,0.3c-0.16,0.239-0.34,0.38-0.54,0.42c-0.24,0.24-0.381,0.42-0.42,0.54c-0.6,0-1,0.061-1.2,0.18
			c-0.08-0.08-0.24-0.119-0.479-0.119c-0.16,0-0.351-0.081-0.57-0.24c-0.221-0.16-0.39-0.24-0.51-0.24
			c-0.04-0.201-0.201-0.34-0.48-0.42c-0.08-0.24-0.18-0.381-0.3-0.42c0-0.201-0.07-0.47-0.21-0.811
			c-0.141-0.339-0.21-0.609-0.21-0.81c0-0.24,0.039-0.399,0.12-0.479l0.24-0.48v-0.061v-0.119c0-0.04,0.05-0.121,0.149-0.24
			c0.1-0.12,0.13-0.22,0.09-0.301c0.12-0.079,0.26-0.199,0.42-0.359c0.04,0,0.24-0.12,0.601-0.359
			C105.266,105.949,105.726,105.929,106.366,105.929z"/>
	</g>
	<g>
		<path fill="#468885" d="M56.463,57.034h0.642c1.283-0.078,2.41-0.039,3.383,0.116c0.038,0,0.087,0.021,0.146,0.058
			c0.059,0.039,0.106,0.059,0.146,0.059c0.155,0.039,0.34,0.078,0.554,0.117s0.38,0.098,0.496,0.175
			c0,0.039,0.038,0.097,0.116,0.175c0.039,0,0.117,0.02,0.233,0.059c0.117,0.039,0.214,0.078,0.292,0.116
			c0.194,0.116,0.428,0.341,0.7,0.671c0.271,0.331,0.505,0.535,0.699,0.612l0.525,1.342c0.271,0.816,0.408,1.321,0.408,1.516
			c0,0.467,0.038,0.739,0.116,0.816c-0.039,0.117-0.059,0.272-0.059,0.467c0,0.467,0.136,0.778,0.408,0.934
			c0,0.116-0.02,0.243-0.058,0.379c-0.039,0.137-0.059,0.243-0.059,0.32c0,0.039,0.029,0.098,0.088,0.175
			c0.058,0.079,0.087,0.156,0.087,0.233c0,0.039-0.02,0.117-0.059,0.233s-0.058,0.214-0.058,0.292v0.116
			c0,0.078,0.048,0.127,0.146,0.146c0.097,0.021,0.146,0.05,0.146,0.088c0,0.039-0.01,0.088-0.029,0.146
			c-0.02,0.059-0.028,0.107-0.028,0.146c0,0.116,0.028,0.282,0.087,0.495c0.059,0.214,0.088,0.36,0.088,0.438v0.116
			c0,0.04-0.021,0.098-0.059,0.176c-0.039,0.078-0.059,0.155-0.059,0.233c0,0.155-0.02,0.253-0.058,0.291
			c0.077,0.078,0.125,0.254,0.146,0.525c0.019,0.272,0.067,0.447,0.146,0.524c-0.039,0.116-0.059,0.272-0.059,0.467
			c0,0.272,0.059,0.545,0.176,0.816c-0.039,0.116-0.059,0.331-0.059,0.642c0,0.389-0.098,0.642-0.292,0.758
			c0,0.039,0.01,0.098,0.029,0.175c0.02,0.078,0.029,0.137,0.029,0.175c0,0.233-0.098,0.408-0.292,0.525v0.583
			c0,0.389-0.058,0.661-0.175,0.816c0,0.039,0.038,0.156,0.117,0.35c-0.039,0.156-0.059,0.272-0.059,0.351
			c0.038,0.078,0.059,0.194,0.059,0.35c0,0.156,0.038,0.253,0.116,0.292c-0.116,0-0.233,0.078-0.35,0.233
			c0,0.116,0.048,0.272,0.146,0.466c0.097,0.195,0.146,0.351,0.146,0.467c0,0.039-0.028,0.116-0.087,0.233
			c-0.059,0.116-0.088,0.214-0.088,0.291v0.117c0,0.155,0.038,0.359,0.117,0.612c0.077,0.253,0.116,0.418,0.116,0.496
			c0.077,0.116,0.165,0.272,0.263,0.466c0.097,0.195,0.165,0.351,0.204,0.467c0,0.467,0.233,0.943,0.7,1.429
			c0.466,0.486,0.719,0.769,0.758,0.846c0.077-0.038,0.213-0.059,0.408-0.059c0.35,0,0.603,0.079,0.758,0.233
			c0,0.195,0.029,0.429,0.088,0.7c0.059,0.272,0.087,0.467,0.087,0.583c0,0.078-0.039,0.233-0.116,0.467
			c-0.039,0.078-0.098,0.155-0.175,0.233c-0.078,0.078-0.117,0.137-0.117,0.175c-0.039,0.039-0.068,0.098-0.087,0.175
			c-0.021,0.078-0.029,0.137-0.029,0.175c-0.195,0.195-0.292,0.35-0.292,0.467c-0.506,0.428-0.797,0.72-0.874,0.875h-0.117
			c-0.155,0-0.359,0.068-0.612,0.204c-0.253,0.137-0.457,0.204-0.612,0.204c-0.078,0-0.137,0.02-0.175,0.058
			c-0.35,0.117-0.604,0.176-0.758,0.176c-0.233,0-0.39-0.039-0.467-0.117c-0.351,0.078-0.808,0.021-1.371-0.175
			c-0.563-0.194-0.924-0.428-1.078-0.7c-0.313-0.077-0.721-0.408-1.225-0.991c-0.351-0.311-0.545-0.524-0.584-0.642l-0.058-0.175
			c-0.04-0.116-0.079-0.194-0.117-0.233c-0.039-0.038-0.194-0.154-0.467-0.35c-0.232,0.233-0.408,0.35-0.524,0.35
			c-0.078,0-0.137-0.019-0.175-0.059v0.409c-0.078,0.039-0.243,0.146-0.496,0.32s-0.457,0.263-0.612,0.263
			c-0.039,0-0.059,0.058-0.059,0.175v0.175c-0.389,0.195-0.681,0.408-0.874,0.642c-0.195,0-0.438,0.068-0.729,0.204
			c-0.291,0.137-0.535,0.204-0.729,0.204h-0.175c-0.272,0.116-0.623,0.175-1.05,0.175h-0.351c-0.039,0-0.098-0.019-0.175-0.059
			h-0.059h-0.466l-0.525-0.175c-0.312-0.077-0.486-0.154-0.524-0.233c-0.039-0.038-0.078-0.038-0.117,0
			c-0.039,0.039-0.078,0.059-0.116,0.059l-0.233-0.233c-0.195-0.038-0.429-0.136-0.7-0.291c-0.272-0.155-0.428-0.233-0.466-0.233
			c-0.039-0.038-0.215-0.165-0.525-0.379c-0.312-0.214-0.524-0.398-0.642-0.555c-0.35,0-0.72-0.097-1.107-0.291l-0.408-0.292
			c-0.04-0.038-0.156-0.194-0.351-0.467c-0.078-0.077-0.204-0.193-0.379-0.35c-0.175-0.155-0.32-0.281-0.438-0.379
			c-0.116-0.097-0.194-0.224-0.233-0.379c-0.116-0.078-0.389-0.486-0.816-1.225c0-0.039-0.078-0.059-0.233-0.059
			c0.039-0.077,0.049-0.136,0.029-0.175s-0.029-0.078-0.029-0.117l-0.116-0.058l-0.116-0.059c-0.04-0.078-0.146-0.253-0.321-0.525
			c-0.175-0.271-0.263-0.524-0.263-0.758c0-0.116-0.02-0.213-0.058-0.292l-0.059-0.058c-0.039-0.039-0.059-0.078-0.059-0.117v-0.175
			c0-0.271-0.078-0.573-0.233-0.904c-0.155-0.329-0.233-0.572-0.233-0.729c0-0.116,0.02-0.263,0.059-0.438
			c0.038-0.175,0.059-0.301,0.059-0.379c0-0.077-0.029-0.155-0.088-0.233c-0.058-0.077-0.087-0.155-0.087-0.233l-0.059-0.583
			c0-0.077,0.009-0.185,0.029-0.32c0.019-0.137,0.029-0.224,0.029-0.263c0.038-0.194,0.067-0.525,0.087-0.991
			c0.02-0.467,0.049-0.797,0.088-0.992l0.116-0.058c0.039,0,0.059-0.02,0.059-0.059c0.038-0.077,0.02-0.136-0.059-0.175
			c-0.078-0.038-0.116-0.078-0.116-0.117c0.038-0.116,0.126-0.533,0.263-1.254c0.136-0.719,0.281-1.254,0.437-1.604
			c0.078,0,0.137-0.019,0.176-0.059c0.038-0.038,0.067-0.087,0.087-0.146s0.049-0.106,0.088-0.146c0-0.077-0.021-0.136-0.059-0.175
			c-0.078-0.078-0.116-0.136-0.116-0.175c0-0.233,0.097-0.447,0.291-0.642c0-0.351,0.078-0.603,0.233-0.759v-0.116
			c0-0.117,0.155-0.486,0.467-1.108c0.116-0.233,0.194-0.35,0.233-0.35c-0.039,0-0.059-0.059-0.059-0.175
			c0.155-0.117,0.32-0.379,0.496-0.787c0.175-0.409,0.358-0.69,0.554-0.846c0.311-0.777,0.719-1.38,1.225-1.809
			c0-0.116,0.038-0.252,0.116-0.408c0.039-0.038,0.097-0.106,0.176-0.204c0.077-0.097,0.136-0.184,0.175-0.262h0.291
			c0.117-0.078,0.34-0.224,0.671-0.438c0.33-0.214,0.593-0.359,0.787-0.438c0.039-0.078,0.097-0.165,0.176-0.263
			c0.077-0.097,0.136-0.165,0.175-0.204c0.077-0.038,0.136-0.038,0.175,0c0.194-0.077,0.446-0.233,0.758-0.467
			c0.077-0.038,0.194-0.116,0.35-0.233c0.155-0.116,0.292-0.193,0.408-0.232c0.078-0.039,0.194-0.078,0.351-0.117
			c0.154-0.038,0.271-0.077,0.35-0.117l0.408-0.174c0.7-0.234,1.069-0.369,1.108-0.408c0.038,0.039,0.116,0.058,0.233,0.058
			c0.154,0,0.311-0.077,0.466-0.233c0.039,0,0.117-0.009,0.233-0.029c0.117-0.019,0.214-0.009,0.292,0.029
			C55.802,57.112,56.074,57.034,56.463,57.034z M54.422,65.665c-0.429,0.116-0.816,0.291-1.167,0.524
			c0,0.039-0.028,0.088-0.087,0.146c-0.059,0.058-0.068,0.107-0.029,0.146c-0.467,0.155-0.758,0.331-0.875,0.524
			c0,0.079-0.029,0.156-0.087,0.233c-0.059,0.078-0.088,0.137-0.088,0.175c-0.039,0.039-0.078,0.127-0.116,0.263
			c-0.04,0.137-0.098,0.243-0.176,0.321l0.059,0.232c-0.155,0.04-0.233,0.176-0.233,0.408c0,0.545-0.039,0.953-0.116,1.226
			c0.077,0.039,0.116,0.136,0.116,0.291c0,0.039-0.02,0.098-0.058,0.175c-0.04,0.078-0.079,0.166-0.117,0.263
			c-0.039,0.098-0.059,0.166-0.059,0.204c0.039,0.039,0.059,0.116,0.059,0.233c0,0.078-0.029,0.195-0.087,0.35
			c-0.059,0.156-0.088,0.272-0.088,0.35c0,0.156,0.097,0.292,0.292,0.409c-0.04,0.116,0.019,0.253,0.175,0.408
			c-0.078,0.078-0.127,0.214-0.146,0.408s-0.087,0.33-0.204,0.408c0.078,0.155,0.117,0.312,0.117,0.466
			c0,0.079-0.039,0.233-0.117,0.467c0,0.039,0.039,0.078,0.117,0.117c0.077,0.039,0.116,0.078,0.116,0.116
			c-0.039,0.078,0.02,0.175,0.175,0.292c0.039,0.039,0.078,0.078,0.117,0.116c0.038,0.039,0.059,0.068,0.059,0.088
			s0.019,0.049,0.058,0.087c0,0.039,0.039,0.088,0.117,0.146c0.077,0.059,0.116,0.127,0.116,0.204c0,0.156-0.02,0.292-0.059,0.409
			c0.078,0.039,0.165,0.116,0.263,0.232c0.097,0.117,0.185,0.195,0.263,0.233v0.816c0.077,0.039,0.233,0.107,0.467,0.204
			c0.233,0.098,0.408,0.186,0.524,0.263c0.038,0.078,0.292,0.195,0.759,0.35c0,0.04,0.038,0.059,0.116,0.059
			c0.038,0,0.077,0.021,0.116,0.059c0.117,0.039,0.271,0.059,0.467,0.059c0.233,0.078,0.369,0.116,0.408,0.116
			c0.038,0,0.097-0.02,0.175-0.059c0.078-0.038,0.155-0.058,0.233-0.058V77.97c0.467-0.35,0.777-0.699,0.934-1.05
			c0.038-0.038,0.097-0.077,0.175-0.116l0.116-0.059l-0.058-0.058v-0.059c0-0.117,0.116-0.292,0.35-0.525v-0.058
			c0-0.155,0.116-0.292,0.35-0.408c-0.078-0.078-0.098-0.136-0.059-0.176c0.078-0.077,0.137-0.193,0.176-0.35
			c0-0.077,0.019-0.154,0.058-0.233c0-0.038,0.039-0.097,0.117-0.175c0.077-0.077,0.136-0.154,0.175-0.233
			c0.311-0.583,0.467-0.933,0.467-1.05c0.077-0.311,0.154-0.485,0.233-0.524c-0.117,0-0.176-0.038-0.176-0.117
			c0-0.193,0.078-0.329,0.233-0.408c0-0.427,0.078-0.796,0.233-1.107c-0.116,0-0.175-0.038-0.175-0.117
			c0.038-0.116,0.038-0.301,0-0.554c-0.039-0.252-0.039-0.438,0-0.554c0-0.039,0.02-0.059,0.059-0.059
			c0.038,0,0.058-0.02,0.058-0.059c0-0.038,0-0.077,0-0.116l-0.058-0.059c0-0.038,0.058-0.116,0.175-0.233c0-0.038,0-0.097,0-0.175
			l-0.059-0.116l0.059-0.059c0-0.077,0-0.136,0-0.175v-0.7c0-0.505-0.039-0.854-0.117-1.05l0.059-0.059l0.059-0.058
			c-0.156-0.038-0.272-0.214-0.35-0.525h-0.467l-0.175-0.175h-0.117c-0.155,0-0.341-0.059-0.554-0.175
			c-0.214-0.116-0.379-0.175-0.496-0.175l-0.233,0.059c-0.078-0.078-0.155-0.117-0.232-0.117h-0.233
			c-0.233,0-0.408,0.021-0.525,0.059l-0.233-0.233h-0.175c-0.195,0-0.408-0.029-0.642-0.088
			C54.713,65.694,54.538,65.665,54.422,65.665z"/>
		<path fill="#468885" d="M75.24,57.733l0.175,0.175c0.155-0.038,0.389-0.058,0.7-0.058c0.311,0,0.758,0.098,1.342,0.291
			c0.583,0.195,1.05,0.291,1.399,0.291c0.038,0.04,0.097,0.079,0.175,0.117l0.059,0.059c0.116,0,0.213-0.02,0.291-0.059
			c0.038,0.039,0.486,0.272,1.342,0.7c0.077,0,0.136-0.01,0.175-0.029c0.038-0.02,0.077-0.029,0.116-0.029
			c0.078,0.039,0.185,0.107,0.321,0.204c0.136,0.098,0.242,0.146,0.32,0.146c0,0.039,0.02,0.079,0.059,0.117
			c0.038,0.039,0.059,0.078,0.059,0.116c0.621,0.429,1.05,0.875,1.283,1.342c0.038,0.078,0.106,0.137,0.204,0.175
			c0.096,0.039,0.146,0.078,0.146,0.116c0,0.039,0.009,0.098,0.029,0.175c0.019,0.079,0.029,0.156,0.029,0.233
			c0.583,0.467,0.874,0.896,0.874,1.283l-0.058,0.233c0.038,0.078,0.097,0.116,0.175,0.116l0.175,0.059
			c0.077,0.117,0.136,0.292,0.175,0.525c0.038,0.233,0.077,0.369,0.117,0.408v0.583c0,0.039,0.028,0.068,0.087,0.087
			c0.059,0.021,0.106,0.068,0.146,0.146v0.175c0,0.35-0.02,0.563-0.058,0.642c0.038,0.039,0.058,0.233,0.058,0.583
			c0,0.116,0.029,0.253,0.088,0.408c0.059,0.156,0.088,0.292,0.088,0.408s-0.021,0.214-0.059,0.292c0,0.078,0.038,0.126,0.116,0.146
			s0.117,0.049,0.117,0.088c0.038,0.272,0.058,0.661,0.058,1.166c0,0.389-0.02,0.681-0.058,0.875h-0.233l0.524,0.874
			c0.039,0.079,0.02,0.137-0.058,0.176c-0.04,0.078-0.059,0.137-0.059,0.175c0.077,0.272,0.077,0.486,0,0.642
			c0.077,0.155,0.116,0.428,0.116,0.816c0,0.35-0.02,0.622-0.058,0.816c0.038,0.116,0.116,0.194,0.232,0.233
			c-0.039,0.039-0.058,0.097-0.058,0.175c0,0.312-0.021,0.486-0.059,0.524c0.038,0.079,0.059,0.175,0.059,0.292l-0.059,0.583
			c0.077,0.233,0.116,0.408,0.116,0.525l-0.058,0.116c-0.039,0.078-0.078,0.156-0.117,0.233c0,0.312-0.039,0.486-0.116,0.524
			c0.038,0.079,0.059,0.195,0.059,0.351s-0.029,0.35-0.088,0.583s-0.088,0.408-0.088,0.524c0,0.195,0.02,0.331,0.059,0.408
			c-0.078,0.351-0.116,0.545-0.116,0.583c0,0.04-0.098,0.156-0.292,0.351c0.038,0.039,0.059,0.116,0.059,0.233
			c0,0.078-0.039,0.185-0.117,0.32c-0.078,0.137-0.116,0.225-0.116,0.263v0.175c0,0.583-0.175,0.953-0.524,1.108l0.058,0.116
			c0,0.039,0,0.078,0,0.117c0,0.272-0.175,0.486-0.524,0.641c0,0.079-0.01,0.166-0.029,0.263c-0.021,0.098-0.01,0.166,0.029,0.204
			c-0.233,0.312-0.37,0.583-0.408,0.816c-0.233,0.117-0.351,0.292-0.351,0.525c-0.232,0.233-0.389,0.428-0.466,0.583
			c-0.739,0.312-1.225,0.7-1.458,1.166c-0.039,0-0.137,0.039-0.292,0.117c-0.116,0.194-0.389,0.397-0.816,0.612
			c-0.428,0.213-0.7,0.379-0.816,0.495c-0.039,0.039-0.078,0.059-0.116,0.059c-0.04,0-0.079,0-0.117,0
			c-0.078,0.116-0.214,0.213-0.408,0.292c-0.195,0.077-0.331,0.154-0.408,0.233h-0.233c-0.155,0-0.341,0.038-0.554,0.116
			c-0.214,0.077-0.379,0.116-0.496,0.116c-0.078,0-0.262,0.029-0.554,0.088s-0.554,0.088-0.787,0.088h-0.059
			c-0.078-0.04-0.137-0.059-0.175-0.059h-0.408c-0.39,0-0.681-0.078-0.875-0.233h-0.116c-0.156,0-0.39-0.078-0.7-0.233
			c-0.778-0.233-1.322-0.486-1.633-0.758c-0.662-0.156-1.108-0.37-1.342-0.642c-0.35,0-0.642-0.253-0.874-0.758
			c0-0.039-0.04-0.078-0.117-0.117l-0.116-0.059c-0.039-0.193-0.186-0.476-0.438-0.846c-0.254-0.368-0.379-0.689-0.379-0.962h-0.059
			c-0.039-0.038-0.059-0.077-0.059-0.116c-0.039-0.117-0.078-0.243-0.116-0.38c-0.039-0.136-0.078-0.291-0.117-0.466
			s-0.078-0.301-0.116-0.379l-0.117-0.233c-0.039-0.117-0.049-0.253-0.028-0.408c0.019-0.155,0.028-0.271,0.028-0.351
			c0-0.038-0.028-0.087-0.087-0.146s-0.088-0.106-0.088-0.146c0-0.038,0-0.106,0-0.204c0-0.097-0.02-0.165-0.058-0.204
			c0-0.038-0.011-0.088-0.029-0.146c-0.021-0.058-0.029-0.125-0.029-0.204v-0.232c0-0.078-0.01-0.194-0.029-0.351
			c-0.021-0.154-0.029-0.291-0.029-0.408c-0.039-0.233-0.049-0.554-0.029-0.962s0.029-0.69,0.029-0.846s0.02-0.253,0.059-0.292
			c0-0.038-0.059-0.427-0.175-1.166c0-0.038,0.019-0.077,0.058-0.116s0.059-0.078,0.059-0.117l-0.059-0.059
			c-0.039-0.038-0.058-0.175-0.058-0.408c-0.039-0.311-0.059-0.913-0.059-1.808c0-0.077,0.02-0.184,0.059-0.32
			c0.038-0.136,0.058-0.224,0.058-0.263v-0.408v-0.991c0-0.271,0.02-0.486,0.059-0.642c0-0.117,0.02-0.271,0.059-0.467
			c0.038-0.194,0.059-0.33,0.059-0.408v-0.467c0-0.233,0.038-0.621,0.116-1.166c0.077-0.544,0.116-0.913,0.116-1.108
			c0.078-0.933,0.155-1.458,0.233-1.574c-0.039-0.078-0.058-0.175-0.058-0.292c0-0.154,0.038-0.35,0.116-0.583
			c0-0.038-0.01-0.116-0.029-0.233c-0.02-0.116-0.029-0.213-0.029-0.291c0-0.194,0.039-0.409,0.117-0.642
			c0-0.271,0.019-0.486,0.058-0.642c0-0.583,0.02-1.05,0.059-1.4c0.078-0.154,0.117-0.291,0.117-0.408
			c0-0.077-0.011-0.193-0.029-0.35c-0.021-0.154-0.029-0.252-0.029-0.291c0-0.117,0.02-0.214,0.059-0.292
			c0-0.116-0.039-0.213-0.117-0.292c0-0.077,0.038-0.165,0.117-0.262c0.077-0.097,0.116-0.165,0.116-0.204l0.525-0.351
			c0.038,0,0.096-0.009,0.175-0.029c0.077-0.019,0.154-0.038,0.233-0.058c0.077-0.02,0.136-0.049,0.175-0.088
			c0.077-0.038,0.184-0.116,0.32-0.233c0.136-0.116,0.242-0.194,0.321-0.233c0.388-0.038,0.758-0.154,1.107-0.35
			c0.155-0.038,0.311-0.059,0.467-0.059c0.038,0,0.097-0.019,0.175-0.059l0.117-0.058H72.5c0.038,0,0.146-0.009,0.32-0.029
			c0.175-0.019,0.32-0.029,0.438-0.029c0.154,0,0.271,0.04,0.35,0.116c0.117-0.116,0.263-0.184,0.438-0.203s0.379-0.029,0.612-0.029
			S75.085,57.772,75.24,57.733z M68.592,71.03v0.175c0.039,0,0.078-0.02,0.117-0.059C68.709,71.069,68.67,71.03,68.592,71.03z
			 M76.29,63.682c-0.078,0-0.291,0.175-0.642,0.525c0,0.039,0.029,0.078,0.088,0.116c0.059,0.039,0.087,0.098,0.087,0.175
			c-0.078,0.156-0.116,0.292-0.116,0.408c0,0.156,0.038,0.351,0.116,0.584c-0.155,0.545-0.253,0.972-0.291,1.282
			c0,0.04,0.029,0.088,0.087,0.146c0.059,0.058,0.088,0.107,0.088,0.146c-0.233,0.156-0.35,0.408-0.35,0.758
			c0,0.117,0.019,0.292,0.058,0.525s0.059,0.408,0.059,0.524l0.292,3.208c0,0.233,0.029,0.583,0.087,1.05
			c0.059,0.466,0.088,0.797,0.088,0.991l-0.059,0.583c0,0.117,0.02,0.195,0.059,0.233c-0.078,0.116-0.117,0.467-0.117,1.05v0.116
			c0,0.04-0.02,0.117-0.058,0.233c-0.039,0.117-0.059,0.195-0.059,0.233c0,0.078,0.009,0.204,0.029,0.379
			c0.019,0.175,0.029,0.302,0.029,0.379v0.176c0,0.078-0.011,0.165-0.029,0.262c-0.021,0.098-0.029,0.166-0.029,0.204
			c0,0.079,0.038,0.233,0.116,0.467v0.292c0,0.233,0.126,0.466,0.38,0.699c0.252,0.233,0.476,0.351,0.67,0.351
			c0.233-0.039,0.428-0.136,0.584-0.292l0.408-0.408c0-0.077,0.048-0.194,0.146-0.35c0.097-0.155,0.146-0.292,0.146-0.408
			c0.078-0.351,0.214-0.583,0.408-0.7c0-0.038,0.038-0.194,0.117-0.467c0-0.427,0.097-0.874,0.291-1.341v-0.351
			c0-0.466,0.059-0.912,0.175-1.341c0-0.038-0.028-0.077-0.087-0.116s-0.068-0.097-0.029-0.176c0.038-1.321-0.059-2.683-0.292-4.082
			c-0.078-0.66-0.194-1.05-0.35-1.166c0.038-0.389-0.175-1.167-0.642-2.333c-0.155-0.311-0.233-0.563-0.233-0.758v-0.176
			l-0.233-0.466c0.039-0.038,0.059-0.078,0.059-0.117c-0.078,0-0.155-0.038-0.233-0.116c0-0.117-0.058-0.242-0.175-0.379
			c-0.116-0.136-0.195-0.263-0.233-0.38C76.504,63.74,76.368,63.682,76.29,63.682z M76.174,81.936c0,0.195,0.019,0.312,0.058,0.351
			c0.233-0.117,0.351-0.194,0.351-0.233C76.426,81.975,76.29,81.936,76.174,81.936z"/>
	</g>
	<ellipse fill="#BE1E2D" cx="65.807" cy="90.303" rx="18.61" ry="4.285"/>
	<path fill="#F6921E" d="M65.462,92.866c-6.425,0-16.26-0.75-18.305-2.541c1.313,22.134,2.496,58.055,3.442,58.901
		c1.322,1.181,18.913,4.902,25.573,0c2.396-1.764,6.06-34.391,8.283-58.924C82.452,92.491,71.963,92.866,65.462,92.866z"/>
	<path fill="#FAAF40" d="M65.353,107.192c-6.02,0-11.839-0.411-17.367-1.165c0.981,20.256,1.871,42.535,2.614,43.199
		c1.322,1.181,18.913,4.902,25.573,0c1.908-1.404,4.617-22.363,6.766-43.23C77.345,106.77,71.451,107.192,65.353,107.192z"/>
	<path fill="#468885" d="M63.035,124.542c-4.878,0-9.63-0.278-14.212-0.795c0.652,13.729,1.252,25.01,1.776,25.479
		c1.322,1.181,18.913,4.902,25.573,0c1.369-1.008,3.15-12.083,4.842-25.967C75.29,124.089,69.264,124.542,63.035,124.542z"/>
	<g opacity="0.5">
		<path fill="#FFFFFF" d="M50.89,75.754c0.938,8.659,1.064,80.721,6.377,69.068c0.602-1.315,0.797-27.565,0.324-41.279
			c-0.475-13.798,1.064-33.447-5.709-31.906C50.921,72.643,50.89,75.754,50.89,75.754z"/>
		<path fill="#FFFFFF" d="M79.029,75.959c-1.052,8.51-7.374,81.171-8.427,69.013c-0.119-1.373,1.933-27.484,3.217-41.065
			c1.004-10.6,1.404-26.625,2.855-31.417c0.421-1.387,1.772-1.234,2.314-0.725C79.269,72.862,79.029,75.959,79.029,75.959z"/>
	</g>
</g>
</svg>
