<?xml version="1.0" encoding="utf-8"?>
<!-- Generator: Adobe Illustrator 16.0.0, SVG Export Plug-In . SVG Version: 6.00 Build 0)  -->
<!DOCTYPE svg PUBLIC "-//W3C//DTD SVG 1.1//EN" "http://www.w3.org/Graphics/SVG/1.1/DTD/svg11.dtd">
<svg version="1.1" id="Layer_1" xmlns="http://www.w3.org/2000/svg" xmlns:xlink="http://www.w3.org/1999/xlink" x="0px" y="0px"
	 width="194.817px" height="100.981px" viewBox="0 0 194.817 100.981" enable-background="new 0 0 194.817 100.981"
	 xml:space="preserve">
<path fill="#999999" d="M182.809,7.043c-0.004-0.006-0.01-0.012-0.015-0.018c-0.034-0.045-0.074-0.086-0.109-0.131
	c-0.124-0.156-0.252-0.307-0.389-0.447c-0.016-0.016-0.028-0.035-0.044-0.051c-0.023-0.023-0.053-0.04-0.077-0.063
	c-0.245-0.237-0.505-0.453-0.782-0.642c-0.018-0.012-0.033-0.025-0.051-0.037c-0.283-0.188-0.585-0.342-0.895-0.476
	c-0.059-0.025-0.115-0.052-0.175-0.075c-0.304-0.119-0.616-0.215-0.937-0.282c-0.06-0.013-0.119-0.021-0.178-0.031
	c-0.336-0.06-0.675-0.1-1.019-0.1c-0.591,0-1.187,0.09-1.768,0.276c-2.493,0.797-4.765,2.193-6.688,4.037
	c-0.433-0.656-0.907-1.294-1.432-1.903c-3.342-3.878-7.979-6.053-12.725-6.053c-0.261,0-0.518,0.083-0.776,0.083
	c0,0-0.002,0-0.004,0c-0.01,0-0.02-0.045-0.02-0.045c-0.172,0.008-0.338-0.018-0.5-0.003c-0.021,0.002-0.042-0.003-0.063-0.001
	c-0.261,0.026-0.521,0.06-0.778,0.122c-0.011,0.003-0.021,0.004-0.031,0.007c-0.088,0.021-0.17,0.054-0.256,0.079
	c-0.19,0.057-0.38,0.115-0.562,0.189c-0.101,0.041-0.194,0.092-0.291,0.138c-0.16,0.077-0.318,0.155-0.47,0.245
	c-0.097,0.058-0.188,0.122-0.281,0.186c-0.142,0.096-0.279,0.194-0.41,0.302c-0.09,0.073-0.176,0.148-0.26,0.227
	c-0.124,0.113-0.242,0.232-0.355,0.356c-0.078,0.085-0.154,0.17-0.227,0.26c-0.108,0.134-0.207,0.272-0.303,0.415
	c-0.063,0.093-0.127,0.184-0.184,0.279c-0.097,0.162-0.179,0.332-0.259,0.503c-0.041,0.088-0.088,0.171-0.125,0.262
	c-0.108,0.266-0.202,0.54-0.271,0.824c-0.57,2.353-0.542,4.819,0.021,7.216c-0.985-0.431-2.203-0.696-3.71-0.696
	c-0.071,0-0.144,0.001-0.215,0.004c-0.071-0.003-0.145-0.004-0.217-0.004c-0.331,0-0.655,0.027-0.972,0.081
	c-0.474,0.036-0.913,0.108-1.32,0.214l-3.177,0.394c-0.263,0.033-0.522,0.083-0.778,0.151c-1.047,0.278-1.881,0.664-2.563,1.109
	c-1.347-1.283-3.053-1.812-4.522-1.812h-0.595c-1.076,0-2.132,0.304-3.048,0.869c-0.666,0.41-1.211,0.848-1.655,1.294
	c-1.116-0.409-2.144-0.514-2.913-0.514c-0.872,0-1.772,0.18-2.753,0.55c-0.338,0.128-0.664,0.288-0.974,0.477
	c-0.421,0.257-0.793,0.637-1.128,0.91c-1.037-1.248-2.941-2.585-6.205-2.585h-0.541c-0.968,0-1.921,0.128-2.771,0.589
	c-0.916,0.498-1.623,0.994-2.174,1.566c-0.947-1.019-2.181-1.812-3.63-2.237c-0.532-0.156-1.083-0.249-1.637-0.249
	c-0.453,0-0.913,0.022-1.4,0.085c-1.181,0.116-2.202,0.392-3.061,0.891c-1.075-0.456-2.043-0.645-2.777-0.645h-1.026
	c-1.354,0-4.709,0.511-6.625,4.669c-0.415,0.9-0.593,1.923-0.516,2.912c0.049,0.621,0.084,1.063,0.091,1.264
	c0,0.056-0.005,0.375-0.103,1.057c-0.059,0.401,0.014,0.812,0.04,1.216c0.031,0.46,0.128,0.878,0.128,1.259v0.939
	c0,0.126-0.044,1.652-0.044,1.652c-0.007,0.112,0.044,0.226,0.044,0.338v0.762c0,0.094-0.039,0.492,0.004,1.207l-0.004,0.84v1.352
	c0,1.383,0.065,2.904,0.38,4.642c0.007,0.093-0.021,0.18-0.011,0.272c-0.732-0.129-1.531-0.222-2.41-0.222
	c-0.174,0-0.357,0.008-0.53,0.023c-0.392,0.035-0.668,0.056-0.809,0.064c-1.038,0.021-2.347,0.223-3.776,0.801
	c-0.047-0.238-0.093-0.477-0.168-0.715c-0.394-1.871-1.567-2.993-2.938-3.68c-0.002-0.641-0.099-1.238-0.27-1.876
	c-0.002-0.22,0.229-0.511,0.211-0.867c0.056-0.457,0.321-0.876,0.321-1.285v-0.613c2-1.824,2-4.07,2-4.953v-0.176
	c0-0.832-0.288-1.623-0.572-2.345c0.494-0.986,0.697-2.119,0.697-3.339c0-2.353-1.598-6.335-7.461-6.335
	c-0.071,0-0.158,0.001-0.23,0.004c-0.07-0.003-0.152-0.004-0.225-0.004c-0.331,0-0.66,0.027-0.977,0.081
	c-0.474,0.036-0.915,0.108-1.322,0.214l-3.178,0.394c-0.264,0.033-0.522,0.083-0.778,0.151c-2.336,0.622-3.659,1.779-4.414,2.952
	c-0.782-0.781-3.134-3.128-6.396-3.218l-0.341-0.104c-0.542-0.165-1.128-0.246-1.707-0.246c-0.275,0-0.55,0.019-0.817,0.055
	c-1.101,0.02-2.129,0.283-3.041,0.744c0.641-2.498,0.693-5.083,0.098-7.543c-0.068-0.284-0.162-0.559-0.271-0.824
	c-0.037-0.091-0.084-0.174-0.125-0.262c-0.08-0.171-0.162-0.341-0.258-0.502c-0.058-0.097-0.122-0.188-0.185-0.28
	c-0.096-0.143-0.194-0.282-0.303-0.415c-0.072-0.09-0.148-0.175-0.227-0.26c-0.113-0.124-0.231-0.243-0.355-0.356
	c-0.084-0.078-0.17-0.153-0.26-0.227c-0.131-0.107-0.269-0.206-0.41-0.302c-0.093-0.063-0.185-0.128-0.281-0.186
	c-0.151-0.09-0.309-0.168-0.469-0.245c-0.098-0.046-0.191-0.098-0.292-0.139c-0.182-0.074-0.371-0.133-0.562-0.189
	c-0.086-0.025-0.168-0.06-0.256-0.081c-0.01-0.003-0.021-0.007-0.031-0.01c-0.259-0.063-0.518-0.102-0.777-0.128
	c-0.022-0.002-0.043-0.009-0.064-0.011c-0.162-0.015-0.328,0.035-0.491,0.027c-0.01,0-0.019,0.045-0.028,0.045
	c-0.002,0-0.003,0-0.003,0c-0.26,0-0.517-0.083-0.777-0.083c-4.746,0-9.385,2.2-12.726,6.078c-0.524,0.609-0.998,1.234-1.43,1.891
	c-1.922-1.844-4.193-3.245-6.687-4.043c-0.581-0.187-1.178-0.279-1.769-0.279c-0.344,0-0.682,0.038-1.018,0.099
	c-0.06,0.01-0.119,0.017-0.18,0.03c-0.319,0.067-0.631,0.163-0.935,0.282c-0.06,0.023-0.118,0.05-0.177,0.075
	c-0.309,0.135-0.609,0.288-0.894,0.476c-0.019,0.012-0.034,0.026-0.052,0.039c-0.277,0.188-0.537,0.403-0.781,0.64
	c-0.023,0.023-0.053,0.04-0.077,0.063c-0.017,0.016-0.028,0.034-0.044,0.051c-0.138,0.142-0.267,0.293-0.391,0.451
	c-0.035,0.043-0.074,0.082-0.106,0.126c-0.005,0.007-0.011,0.012-0.015,0.018c-3.127,4.223-4.136,9.874-2.82,15.389
	c-1.113-0.21-2.238-0.319-3.364-0.319c-0.271,0-0.542,0.007-0.812,0.02c-0.291,0.014-0.578,0.053-0.859,0.108
	c-0.1,0.02-0.193,0.051-0.291,0.076c-0.18,0.045-0.356,0.092-0.529,0.153c-0.109,0.039-0.215,0.087-0.321,0.133
	c-0.153,0.065-0.305,0.134-0.452,0.212c-0.105,0.056-0.207,0.117-0.309,0.18c-0.14,0.085-0.275,0.176-0.406,0.272
	c-0.096,0.071-0.189,0.143-0.28,0.219c-0.128,0.106-0.247,0.22-0.366,0.338c-0.082,0.081-0.164,0.161-0.242,0.248
	c-0.115,0.13-0.221,0.268-0.324,0.408c-0.066,0.088-0.135,0.172-0.195,0.264c-0.108,0.165-0.203,0.341-0.295,0.519
	c-0.041,0.077-0.088,0.15-0.125,0.23c-0.005,0.011-0.012,0.02-0.017,0.03c-0.116,0.256-0.212,0.517-0.289,0.781
	c-0.002,0.007-0.005,0.013-0.007,0.019c-1.737,6.021-0.229,12.837,4.032,18.232c0.487,0.618,1.005,1.204,1.545,1.76
	c-0.396,0.12-0.792,0.244-1.179,0.394c-0.258,0.1-0.506,0.219-0.743,0.352c-0.081,0.046-0.155,0.102-0.234,0.151
	c-0.15,0.094-0.302,0.188-0.442,0.294c-0.087,0.066-0.166,0.143-0.249,0.213c-0.12,0.104-0.241,0.205-0.353,0.316
	c-0.082,0.083-0.155,0.172-0.232,0.259c-0.1,0.113-0.199,0.226-0.289,0.347c-0.072,0.095-0.136,0.195-0.201,0.294
	C3.28,49.057,3.2,49.18,3.129,49.31c-0.06,0.106-0.111,0.215-0.164,0.325c-0.063,0.131-0.122,0.264-0.175,0.4
	c-0.045,0.116-0.084,0.233-0.121,0.353c-0.044,0.139-0.083,0.278-0.116,0.422c-0.028,0.122-0.053,0.245-0.073,0.37
	c-0.011,0.068-0.031,0.133-0.04,0.201c-0.011,0.083-0.008,0.165-0.016,0.248c-0.006,0.071-0.029,0.141-0.033,0.213
	c-0.004,0.1-0.012,0.198-0.012,0.298c0,0.015,0,0.03,0,0.046c0,5.81,2.653,11.372,7.586,14.935c0.781,0.564,1.598,1.062,2.436,1.494
	c-0.953,0.565-1.852,1.218-2.681,1.964c-0.206,0.186-0.394,0.385-0.567,0.594c-0.059,0.069-0.105,0.146-0.16,0.217
	c-0.109,0.145-0.219,0.288-0.314,0.441c-0.055,0.09-0.1,0.185-0.15,0.276c-0.079,0.144-0.158,0.286-0.225,0.435
	c-0.045,0.102-0.079,0.206-0.118,0.311c-0.055,0.146-0.11,0.292-0.153,0.441c-0.031,0.11-0.055,0.222-0.08,0.333
	c-0.033,0.149-0.064,0.298-0.086,0.45c-0.017,0.115-0.026,0.231-0.035,0.348c-0.013,0.15-0.021,0.3-0.021,0.451
	c-0.001,0.12,0.004,0.24,0.011,0.36c0.009,0.149,0.022,0.298,0.044,0.447c0.016,0.122,0.036,0.242,0.061,0.362
	c0.014,0.069,0.019,0.139,0.035,0.207c0.02,0.082,0.053,0.159,0.075,0.24c0.02,0.068,0.028,0.138,0.051,0.205
	c0.03,0.094,0.068,0.185,0.101,0.278c0.006,0.015,0.012,0.03,0.018,0.046c1.914,5.487,6.521,9.684,12.4,11.256
	c0.504,0.135,1.013,0.24,1.523,0.333c-0.004,0.064-0.006,0.129-0.007,0.194c-0.003,0.119,0.006,0.237,0.011,0.356
	c0.006,0.145,0.012,0.288,0.029,0.433c0.014,0.12,0.037,0.239,0.059,0.359c0.025,0.141,0.053,0.279,0.088,0.419
	c0.031,0.12,0.07,0.239,0.109,0.358c0.045,0.134,0.091,0.266,0.145,0.396c0.05,0.12,0.105,0.237,0.163,0.354
	c0.034,0.069,0.06,0.143,0.098,0.212c0.03,0.057,0.069,0.105,0.103,0.161c0.031,0.054,0.055,0.348,0.089,0.402
	c2.622,4.144,7.202,6.874,12.247,6.874h0.052c2.896,0,5.638-1.053,7.948-2.528c3.001,1.985,6.213,3.597,9.612,5.037
	c0.739,0.313,1.506,0.401,2.26,0.401c2.264,0,4.415-1.361,5.352-3.576c1.25-2.954-0.132-6.377-3.086-7.626
	c-1.167-0.493-2.305-1.04-3.415-1.618l-0.729-4.395c0.114-0.004,0.228-0.006,0.341-0.017c4.119-0.385,6.944-1.304,8.462-3.198
	c1.848,1.134,3.673,1.52,4.482,1.52h0.348c0.601,0,1.283-0.305,2.168-0.463c0.885,0.158,1.567,0.113,2.168,0.113
	c1.066,0,2.071-0.253,2.987-0.609c0.993,1.57,3.005,3.276,7.07,3.276c0.202,0,0.404-0.025,0.605-0.046
	c1.2-0.126,2.229-0.405,3.104-0.78c1.249,0.75,2.695,1.147,4.27,1.147c0.264,0,0.527-0.019,0.788-0.055
	c0.846-0.116,1.779-0.325,2.774-0.621c0.062-0.019,0.122-0.039,0.183-0.059c0.827-0.275,1.556-0.691,2.194-1.203
	c0.922,0.163,1.924,0.303,3.012,0.303c0.559,0,1.153-0.002,1.772-0.002c0.07,0,0.142,0,0.211,0c3.478,0,5.869-0.641,7.527-1.766
	c2.069,2.252,4.511,2.766,5.688,2.766h0.173c0.347,0,0.693-0.29,1.034-0.35c3.122-0.564,5.186-1.394,6.679-2.391
	c0.03,0.021,0.053-0.018,0.083,0.002c1.801,1.175,4.087,1.774,6.989,1.774c0.558,0,1.152-0.035,1.771-0.035c0.07,0,0.142,0,0.211,0
	c1.863,0,3.416-0.299,4.713-0.696c1.184,1.113,3.058,2.012,6.03,2.012c0.202,0,0.404-0.025,0.605-0.046
	c0.662-0.069,1.267-0.193,1.828-0.346l-0.69,4.162c-1.11,0.577-2.248,1.115-3.415,1.608c-2.954,1.249-4.336,4.656-3.086,7.611
	c0.937,2.215,3.088,3.545,5.352,3.545c0.754,0,1.521-0.148,2.26-0.461c3.399-1.438,6.611-2.933,9.612-4.918
	c2.311,1.475,5.053,2.528,7.947,2.528c0.005,0,0.042,0,0.047,0c5.049,0,9.63-2.729,12.253-6.873
	c0.033-0.053,0.056-0.228,0.088-0.283c0.033-0.055,0.073-0.165,0.104-0.223c0.038-0.07,0.064-0.174,0.1-0.244
	c0.057-0.115,0.111-0.245,0.16-0.363c0.055-0.132,0.102-0.274,0.146-0.409c0.039-0.117,0.077-0.239,0.108-0.359
	c0.037-0.14,0.063-0.282,0.089-0.423c0.021-0.119,0.044-0.237,0.059-0.356c0.017-0.146,0.023-0.292,0.029-0.438
	c0.005-0.117,0.013-0.234,0.011-0.353c-0.001-0.065-0.004-0.13-0.007-0.195c0.51-0.093,1.019-0.198,1.521-0.333
	c5.88-1.572,10.486-5.769,12.401-11.256c0.006-0.016,0.012-0.031,0.018-0.047c0.032-0.093,0.07-0.184,0.101-0.277
	c0.022-0.067,0.031-0.137,0.051-0.205c0.022-0.081,0.056-0.158,0.075-0.24c0.017-0.068,0.021-0.138,0.035-0.207
	c0.024-0.12,0.045-0.24,0.061-0.362c0.021-0.149,0.035-0.298,0.044-0.448c0.007-0.12,0.012-0.239,0.011-0.358
	c0-0.152-0.009-0.302-0.021-0.452c-0.009-0.117-0.019-0.232-0.035-0.348c-0.021-0.152-0.053-0.301-0.086-0.45
	c-0.025-0.111-0.049-0.223-0.08-0.333c-0.043-0.149-0.098-0.295-0.152-0.441c-0.039-0.104-0.074-0.209-0.12-0.311
	c-0.065-0.149-0.146-0.292-0.224-0.436c-0.051-0.092-0.096-0.186-0.15-0.275c-0.096-0.153-0.205-0.298-0.315-0.442
	c-0.054-0.071-0.101-0.146-0.159-0.216c-0.174-0.209-0.363-0.408-0.569-0.594c-0.829-0.746-1.729-1.398-2.684-1.964
	c0.839-0.433,1.628-0.929,2.409-1.493c4.933-3.563,7.557-9.124,7.557-14.935c0-0.017,0-0.033,0-0.05
	c0-0.098,0.023-0.195,0.018-0.294c-0.004-0.072-0.008-0.141-0.014-0.212c-0.008-0.084,0-0.166-0.01-0.25
	c-0.01-0.068-0.025-0.134-0.036-0.202c-0.021-0.124-0.044-0.245-0.072-0.366c-0.033-0.145-0.072-0.287-0.117-0.429
	c-0.037-0.116-0.074-0.231-0.119-0.345c-0.053-0.14-0.114-0.275-0.178-0.409c-0.052-0.107-0.102-0.214-0.158-0.317
	c-0.074-0.133-0.155-0.259-0.239-0.385c-0.063-0.097-0.125-0.194-0.195-0.287c-0.092-0.123-0.193-0.238-0.296-0.354
	c-0.075-0.085-0.146-0.172-0.227-0.252c-0.112-0.114-0.235-0.217-0.357-0.321c-0.082-0.069-0.159-0.144-0.245-0.209
	c-0.142-0.108-0.294-0.202-0.445-0.298c-0.078-0.048-0.15-0.104-0.231-0.148c-0.237-0.133-0.485-0.252-0.743-0.352
	c-0.387-0.149-0.782-0.273-1.178-0.393c0.54-0.557,1.057-1.143,1.545-1.76c4.26-5.396,5.767-12.211,4.031-18.231
	c-0.002-0.005-0.004-0.01-0.006-0.015c-0.078-0.267-0.173-0.53-0.29-0.787c-0.005-0.012-0.013-0.021-0.018-0.032
	c-0.033-0.072-0.076-0.137-0.112-0.207c-0.096-0.187-0.195-0.37-0.309-0.542c-0.058-0.088-0.123-0.168-0.186-0.251
	c-0.107-0.146-0.216-0.288-0.335-0.422c-0.074-0.083-0.153-0.16-0.232-0.238c-0.122-0.121-0.246-0.238-0.378-0.349
	c-0.088-0.072-0.177-0.142-0.269-0.209c-0.136-0.101-0.276-0.194-0.421-0.283c-0.098-0.06-0.194-0.118-0.295-0.172
	c-0.152-0.081-0.309-0.151-0.469-0.219c-0.102-0.044-0.201-0.09-0.307-0.127c-0.178-0.064-0.361-0.112-0.546-0.159
	c-0.093-0.022-0.183-0.053-0.276-0.071c-0.281-0.057-0.568-0.096-0.861-0.109c-0.27-0.013-0.54-0.02-0.812-0.02
	c-1.126,0-2.251,0.109-3.364,0.32C186.941,16.917,185.934,11.266,182.809,7.043z M43.729,20.337c-0.048,0.547-0.08,0.944-0.102,1.25
	c-0.018-0.012-0.038-0.02-0.056-0.031c-0.164-0.106-0.339-0.197-0.515-0.288c-0.051-0.025-0.098-0.059-0.149-0.083
	c0.278-0.28,0.558-0.56,0.82-0.86L43.729,20.337z"/>
<ellipse fill="#FFFFFF" cx="148.15" cy="29.094" rx="10.233" ry="13.274"/>
<g>
	<g>
		<g>
			<path fill="#FFFFFF" d="M50.632,46.083c-3.466-0.176-5.533-2.017-6.372-4.153c-0.75-1.568-1.063-3.662-1.084-6.96
				c-0.191-1.582-0.313-3.271-0.365-5.035c-0.154-0.922-0.229-1.913-0.229-3.011c0-0.181,0.009-0.362,0.025-0.543
				c0.028-0.301,0.081-1.076,0.128-2.949c-0.055-0.446-0.102-0.919-0.138-1.413c-0.011-0.142-0.016-0.285-0.016-0.428
				c0-0.306,0.012-0.696,0.147-2.254l-0.03-0.513c-0.021-0.363-0.008-0.728,0.039-1.088c0.489-3.759,3.326-6.398,6.921-6.463
				c0.268-0.036,0.542-0.054,0.817-0.054c0.579,0,1.165,0.081,1.707,0.245l0.341,0.104c3.262,0.09,5.613,2.437,6.396,3.218
				c0.479,0.478,0.871,1.037,1.158,1.65c0.829,1.772,1.249,3.704,1.249,5.741c0,1.461-0.202,3.063-0.614,4.854
				c0.591,0.554,1.119,1.189,1.578,1.901c0.059,0.092,0.116,0.186,0.17,0.281c0.837,1.474,1.243,3.236,1.243,5.386v0.117
				c0,1.571-0.281,2.957-0.839,4.141c-0.507,1.75-1.657,3.427-3.438,5.007c-0.736,0.654-1.627,1.109-2.588,1.324
				c-0.482,0.243-1.031,0.458-1.656,0.631c-0.507,0.141-1.029,0.212-1.555,0.212c-0.381,0-0.734-0.035-1.067-0.094
				c-0.619,0.105-1.145,0.153-1.634,0.153C50.828,46.09,50.73,46.088,50.632,46.083z"/>
			<path fill="#FFFFFF" d="M68.336,46.281c-2.283,0-4.505-0.755-6.602-2.244c-0.538-0.381-1.006-0.852-1.386-1.39
				c-1.104-1.567-1.343-3.364-1.379-4.853c-0.047-0.283-0.083-0.58-0.107-0.893c-0.038-0.481-0.08-1.148-0.124-2.002
				c-0.1-0.472-0.152-0.978-0.152-1.516c0-0.374,0.013-0.75,0.036-1.125c-0.061-0.916-0.107-2.203-0.144-3.91
				c-0.004-0.221,0.004-0.442,0.024-0.662c-0.08-0.538-0.139-1.115-0.177-1.744c-0.01-0.167-0.013-0.333-0.009-0.5
				c0.036-1.406,0.05-2.392,0.052-2.969c-0.001-0.014-0.001-0.026-0.002-0.04c-0.152-0.635-0.197-1.295-0.129-1.954
				c0.004-0.044,0.009-0.086,0.012-0.125c-0.214-0.867-0.313-1.591-0.313-2.264c0-1.131,0.389-4.925,5.395-6.257
				c0.256-0.068,0.516-0.119,0.778-0.151l3.177-0.394c0.407-0.105,0.847-0.178,1.32-0.214c0.316-0.053,0.641-0.081,0.972-0.081
				c0.072,0,0.146,0.001,0.217,0.004c0.071-0.002,0.144-0.004,0.215-0.004c5.863,0,7.428,3.982,7.428,6.335
				c0,1.219-0.27,2.353-0.764,3.339c0.284,0.722,0.44,1.512,0.44,2.345v0.176c0,0.883-0.218,3.128-2.215,4.953v0.613
				c0,0.409-0.026,0.828-0.082,1.286c0.019,0.356,0.025,0.647,0.027,0.867c0.171,0.637,0.269,1.235,0.271,1.875
				c1.371,0.687,2.544,1.809,2.938,3.681c0.204,0.651,0.304,1.299,0.304,1.959c0,3.419-2.333,5.909-6.935,7.4
				C70.47,46.128,69.436,46.281,68.336,46.281z"/>
			<path fill="#FFFFFF" d="M101.276,45.607c-1.258,0-2.443-0.292-3.497-0.84c-0.2,0.068-0.395,0.124-0.581,0.17
				c-0.83,0.304-1.589,0.458-2.058,0.554c-0.381,0.077-0.769,0.116-1.157,0.116c-2.07,0-4.013-0.868-5.775-2.579
				c-0.436-0.424-0.803-0.913-1.087-1.451c-0.813-1.536-1.3-3.331-1.449-5.339c-0.314-1.738-0.467-3.26-0.467-4.642v-1.352
				l-0.05-0.839c-0.043-0.715-0.058-1.114-0.058-1.208v-0.762c0-0.113,0.003-0.225,0.01-0.337c0,0,0.091-1.526,0.098-1.653v-0.939
				c0-0.381-0.01-0.795-0.041-1.254c-0.026-0.405-0.012-0.811,0.047-1.213c0.098-0.682,0.103-0.993,0.103-1.048
				c-0.007-0.2-0.042-0.627-0.091-1.248c-0.077-0.989,0.101-1.98,0.516-2.881c1.916-4.159,5.271-4.608,6.625-4.608h1.026
				c0.734,0,1.702,0.124,2.777,0.58c0.858-0.499,1.88-0.84,3.061-0.956c0.487-0.063,0.947-0.093,1.4-0.093
				c0.554,0,1.104,0.079,1.637,0.235c2.117,0.622,3.789,1.952,4.751,3.769c0.402,0.725,0.638,1.513,0.884,2.529
				c0.453,0.928,0.696,1.96,0.696,3.024v1.113c0.007,0.144,0.043,0.6,0.093,1.27c0.011,0.143,0.016,0.286,0.016,0.43
				c0,0.388-0.028,0.788-0.075,1.231c0.015,0.241,0.021,0.493,0.021,0.761c0,0.405-0.038,0.823-0.132,1.371
				c0.685,2.924,0.834,4.193,0.834,5.133v0.293c0,0.87-0.155,1.777-0.518,2.953c0.021,0.357,0.031,0.673,0.031,0.973
				c0,6.198-3.747,7.969-5.357,8.443c-0.199,0.059-0.401,0.106-0.605,0.143C102.348,45.556,101.801,45.607,101.276,45.607z"/>
			<path fill="#FFFFFF" d="M111.704,46.017c-4.348,0-6.664-2.486-7.233-5.173c-0.313-1.089-0.465-2.301-0.465-3.682v-2.228
				l-0.061-0.751c-0.042-0.505-0.047-0.779-0.047-0.83c0-0.629,0.031-1.519,0.104-2.951c-0.043-1.746-0.104-2.245-0.115-2.329
				c-0.121-0.606-0.129-1.136-0.054-1.75l0.014-0.135c-0.005-0.226-0.04-1.015-0.095-2.292l-0.011-0.259
				c-0.017-0.399,0.008-0.799,0.073-1.194c0.163-0.987,0.246-2.067,0.246-3.211v-0.586c0-1.443,0.521-4.147,4.008-6.042
				c0.851-0.461,1.804-0.704,2.771-0.704h0.541c4.494,0,6.418,2.754,7.037,3.938c0.191,0.367,0.344,0.753,0.453,1.152
				c0.14,0.51,0.271,1.069,0.307,1.723c0.229,0.815,0.357,1.65,0.382,2.496c0.04,0.482,0.06,0.979,0.06,1.479
				c0,0.08-0.043,1.235-0.05,1.5c0.033,0.363,0.05,0.699,0.05,1.02c0,0.262-0.018,0.522-0.053,0.782l0.019,0.172
				c0.034,0.311,0.043,0.623,0.026,0.935c-0.034,0.641-0.047,1.125-0.047,1.452c0,0.307,0.014,1.002,0.051,2.084
				c0.01,0.262,0.001,0.523-0.025,0.784c0.029,0.369,0.092,1.077,0.218,2.369c0.019,0.188,0.027,0.375,0.027,0.564v0.117
				c0,0.219-0.003,0.44-0.01,0.665c0.114,0.529,0.172,1.07,0.172,1.62c0,0.178-0.006,0.463-0.024,0.849
				c0.088,0.599,0.132,1.15,0.132,1.67c0,0.305-0.024,0.667-0.071,0.968c-0.452,2.849-2.628,4.947-5.479,5.435
				c-0.887,0.231-1.752,0.285-2.491,0.331C111.943,46.013,111.824,46.017,111.704,46.017z"/>
			<path fill="#FFFFFF" d="M128.868,45.314c-0.361,0-0.721-0.034-1.074-0.1c-1.038-0.092-1.909-0.331-2.638-0.652
				c-0.673,0.264-1.393,0.401-2.121,0.401h-0.757c-3.383,0-6.199-2.154-7.349-5.621c-0.114-0.345-0.196-0.7-0.244-1.06l-0.055-0.41
				c-0.034-0.254-0.051-0.511-0.051-0.768c0-0.017,0.004-0.242,0.031-0.657l-0.104-0.931c-0.023-0.212-0.035-0.425-0.035-0.639
				c0-0.142,0.011-0.716,0.051-1.751c-0.011-0.202-0.045-0.651-0.091-1.289c-0.031-0.438-0.013-0.877,0.055-1.311
				c0.086-0.55,0.231-1.727,0.437-4.213c0.025-0.298,0.072-0.593,0.143-0.883c0.006-1.46,0.064-2.625,0.189-3.6
				c-0.196-0.59-0.298-1.209-0.298-1.835v-0.176c0-1.698,0.651-4.119,3.756-6.013c0.31-0.188,0.636-0.348,0.974-0.476
				c0.98-0.37,1.881-0.55,2.753-0.55c0.77,0,1.797,0.107,2.913,0.516c0.444-0.447,0.989-0.882,1.655-1.292
				c0.916-0.564,1.972-0.864,3.048-0.864h0.595c2.56,0,5.846,1.578,6.68,6.026c0.066,0.353,0.1,0.711,0.1,1.071v0.739
				c0.021,0.167,0.08,0.586,0.237,1.48c0.058,0.332,0.087,0.667,0.087,1.003v0.117c0,0.738,0.017,1.086,0.031,1.248
				c0.032,0.365,0.029,0.731-0.007,1.095c-0.005,0.049-0.015,0.172-0.021,0.431c0.177,1.16,0.267,2.353,0.267,3.555
				c0,0.781-0.029,1.517-0.089,2.266c0.028,0.441,0.034,0.721,0.034,0.839c0,0.093-0.002,0.186-0.007,0.278
				c-0.021,0.447-0.034,0.826-0.041,1.131l0.071,0.413c0.121,0.698,0.112,1.412-0.023,2.106v1.461c0,0.251-0.008,0.505-0.022,0.758
				c0.018,0.258,0.022,0.495,0.022,0.707c0,0.503-0.065,1.004-0.194,1.49c-0.794,2.99-2.696,4.586-4.605,5.241
				c-0.742,0.307-1.586,0.482-2.52,0.482c-0.004,0-0.007,0-0.011,0c-0.316,0.074-0.646,0.135-0.992,0.182
				C129.389,45.296,129.128,45.314,128.868,45.314z"/>
			<path fill="#FFFFFF" d="M142.74,46.281c-2.283,0-4.505-0.755-6.602-2.244c-0.538-0.381-1.006-0.852-1.386-1.39
				c-1.104-1.567-1.343-3.364-1.379-4.853c-0.047-0.283-0.083-0.58-0.107-0.893c-0.038-0.481-0.08-1.148-0.124-2.002
				c-0.1-0.472-0.152-0.978-0.152-1.516c0-0.374,0.013-0.75,0.036-1.125c-0.061-0.916-0.107-2.203-0.144-3.91
				c-0.004-0.221,0.004-0.442,0.024-0.662c-0.08-0.538-0.139-1.115-0.177-1.744c-0.01-0.167-0.013-0.333-0.009-0.5
				c0.036-1.406,0.05-2.392,0.052-2.969c-0.001-0.014-0.001-0.026-0.002-0.04c-0.152-0.635-0.197-1.295-0.129-1.954
				c0.004-0.044,0.009-0.086,0.012-0.125c-0.214-0.867-0.313-1.591-0.313-2.264c0-1.131,0.389-4.925,5.395-6.257
				c0.256-0.068,0.516-0.119,0.778-0.151l3.177-0.394c0.407-0.105,0.847-0.178,1.32-0.214c0.316-0.053,0.641-0.081,0.972-0.081
				c0.072,0,0.146,0.001,0.217,0.004c0.071-0.002,0.144-0.004,0.215-0.004c5.863,0,7.428,3.982,7.428,6.335
				c0,1.219-0.27,2.353-0.764,3.339c0.284,0.722,0.44,1.512,0.44,2.345v0.176c0,0.883-0.218,3.128-2.215,4.953v0.613
				c0,0.409-0.026,0.828-0.082,1.286c0.019,0.356,0.025,0.647,0.027,0.867c0.171,0.637,0.269,1.235,0.271,1.875
				c1.371,0.687,2.544,1.809,2.938,3.681c0.204,0.651,0.304,1.299,0.304,1.959c0,3.419-2.333,5.909-6.935,7.4
				C144.874,46.128,143.84,46.281,142.74,46.281z"/>
		</g>
		<g>
			<path fill="#FFFFFF" d="M51.968,83.832c-4.465,0-6.249-2.747-6.809-3.928c-0.032-0.069-0.063-0.138-0.094-0.208
				c-0.895-2.097-1.371-4.342-1.416-6.678c-0.127-0.865-0.245-1.982-0.405-3.489l0.016-0.001c-0.235-1.168-0.277-2.273-0.305-2.995
				c-0.003-0.073-0.004-0.146-0.004-0.219c0-0.372,0.026-0.777,0.09-1.478c-0.175-0.729-0.263-1.453-0.263-2.165v-1.04
				c0-0.914,0.039-1.664,0.126-2.313c-0.142-1.816-0.213-3.689-0.213-5.58c0-0.205,0.011-0.41,0.032-0.614
				c0.047-0.435,0.085-0.791,0.111-1.061l-0.166-1.104c-0.043-0.286-0.064-0.574-0.064-0.863c0-0.651,0.024-1.394,0.072-2.21
				c-0.048-0.674-0.072-1.329-0.072-1.953c0-3.698,2.534-7.427,8.175-7.7c0.348-0.083,0.717-0.154,1.109-0.213
				c0.285-0.042,0.572-0.064,0.86-0.064c0.168,0,0.337,0.007,0.504,0.022l0.996,0.087c0.367-0.066,0.765-0.109,1.188-0.109
				c6.621,0,10.138,2.084,10.466,6.197c0.076,0.482,0.112,0.919,0.112,1.346c0,1.052-0.239,2.52-1.285,3.898
				c0.45,0.954,0.678,1.999,0.678,3.039c0,3.337-1.576,5.576-3.629,6.645c-0.39,0.258-0.775,0.462-1.127,0.627
				c0.169,0.967,0.241,1.632,0.246,2.207c0.057,0.367,0.086,0.736,0.086,1.104v0.606c0,0.499-0.017,0.974-0.05,1.436
				c0.058,0.372,0.327,2.088,0.327,2.088c0.078,0.497,0.091,1.001,0.039,1.501c-0.013,0.12-0.022,0.24-0.031,0.363
				c0.309,1.163,0.492,2.382,0.557,3.686c0.362,1.159,0.546,2.304,0.546,3.416v0.261c0,4.325-3.29,6.824-9.777,7.43
				c-0.18,0.017-0.359,0.025-0.54,0.025H51.968z"/>
			<path fill="#FFFFFF" d="M70.223,81.664c-0.601,0-1.283-0.071-2.168-0.23c-0.885,0.159-1.567,0.23-2.168,0.23h-0.348
				c-1.484,0-6.388-0.491-8.575-6.665c-0.788-1.604-1.421-3.662-1.975-6.408c-0.051-0.255-0.085-0.514-0.103-0.773
				c-0.102-0.547-0.126-1.111-0.066-1.677l0.122-1.162c-0.045-0.789-0.067-1.591-0.067-2.393v-0.348c0-1.495,0-3.229,0.361-4.829
				c0.051-0.837,0.247-1.967,0.825-4.21c0.154-1.274,0.651-3.144,2-7.011c0.229-0.658,0.575-1.27,1.021-1.805
				c1.242-1.491,2.672-2.48,4.255-2.948c1.932-0.697,3.954-1.05,6.018-1.05c4.849,0,8.631,3.007,10.176,8.063
				c0.919,2.332,1.427,4.798,1.516,7.347c0.065,0.392,0.101,0.805,0.101,1.24c0,0.439-0.028,0.83-0.244,1.922
				c0.22,1.477,0.331,3.071,0.331,4.755v0.174c0,1.476-0.176,3.26-0.538,5.445c-0.108,1.868-0.733,3.806-1.862,5.777
				c-0.631,2.028-1.722,3.399-2.979,4.256C74.448,80.825,72.463,81.664,70.223,81.664z"/>
			<path fill="#FFFFFF" d="M88.26,84.764c-1.574,0-3.021-0.402-4.27-1.151c-0.875,0.376-1.904,0.647-3.104,0.773
				c-0.201,0.021-0.403,0.032-0.605,0.032c-5.208,0-7.055-2.85-7.692-4.549c-0.049-0.129-0.093-0.26-0.132-0.393
				c-0.961-3.25-1.437-7.339-1.452-12.495l-0.412-4.786c-0.032-0.379-0.028-0.76,0.014-1.138l0.098-0.878
				c-0.088-0.797-0.133-1.567-0.133-2.299V57.1c0-0.727,0.019-1.427,0.056-2.122c-0.037-0.326-0.056-0.658-0.056-1
				c0-0.319,0.026-0.637,0.078-0.951l0.041-0.244c-0.08-0.833-0.119-1.669-0.119-2.535c0-0.233,0.014-0.465,0.042-0.696
				c0.412-3.416,1.021-5.662,1.976-7.281c0.084-0.143,0.174-0.282,0.27-0.416c0.328-0.864,0.858-1.638,1.547-2.257
				c2.866-2.575,5.675-3.184,7.589-3.221c0.141-0.009,0.411-0.029,0.803-0.064c0.173-0.016,0.347-0.023,0.521-0.023
				c4.886,0,7.395,2.235,8.61,3.988c1.663,1.937,2.715,4.728,3.371,8.896c0.027,0.176,0.047,0.353,0.059,0.531
				c0.029,0.463,0.099,1.604,0.099,2.193c0,0.195-0.01,0.389-0.029,0.583c-0.244,2.416-0.477,4.222-0.71,5.521
				c-0.235,1.304-0.591,2.357-1.027,3.204c-0.292,0.66-0.687,1.301-1.153,1.975c0.445,0.881,0.778,1.751,1.001,2.618
				c0.018,0.066,0.033,0.132,0.048,0.199c0.101,0.221,0.313,0.66,0.724,1.411c0.293,0.534,0.498,1.11,0.611,1.704
				c0.092,0.315,0.419,1.386,1.43,4.299c0.063,0.183,0.118,0.37,0.163,0.559c0.22,0.922,0.331,1.871,0.331,2.82v0.26
				c0,3.313-1.854,5.989-4.838,6.984c-0.061,0.02-0.121,0.039-0.183,0.057c-0.995,0.296-1.929,0.505-2.774,0.621
				C88.787,84.746,88.523,84.764,88.26,84.764z"/>
			<path fill="#FFFFFF" d="M97.211,83.073c-2.901,0-5.188-0.571-6.988-1.746c-1.277-0.833-2.176-2.136-2.5-3.626
				c-0.722-3.309-1.088-6.592-1.088-9.759c0-0.793,0.041-1.715,0.127-2.857c-0.096-0.598-0.194-1.418-0.283-2.574
				c-0.025-0.326-0.023-0.653,0.007-0.978l0.114-1.238c-0.058-0.665-0.09-1.506-0.135-2.669c-0.008-0.224-0.004-0.448,0.014-0.671
				l0.343-4.424c-0.067-0.403-0.1-0.791-0.1-1.176v-0.325c0-0.161,0.004-0.319,0.011-0.477c-0.114-0.615-0.129-1.249-0.04-1.877
				c0.028-0.203,0.029-0.322,0.029-0.335v-1.713c0-1.778,0.733-5.03,5.645-6.838c0.62-0.228,1.274-0.349,1.935-0.357
				c0.33-0.058,0.666-0.087,1.004-0.087c0.178,0,0.356,0.008,0.535,0.025c1.188,0.11,2.074,0.228,2.755,0.347
				c0.318-0.031,0.646-0.047,0.981-0.047c0.196,0,0.393,0.01,0.588,0.03c1.421,0.145,2.697,0.244,3.901,0.302
				c0.865,0.042,1.711,0.278,2.474,0.689c2.738,1.477,4.309,3.964,4.309,6.825c0,0.89-0.205,1.769-0.598,2.567
				c-0.443,0.9-1.19,2.065-2.395,3.095c0.861,1.196,1.322,2.598,1.322,4.075c0,0.78-0.157,1.552-0.462,2.27
				c-0.885,2.084-2.479,3.591-4.487,4.328c-0.01,0.14-0.021,0.29-0.034,0.452c0.236,0.735,0.324,1.514,0.256,2.29l-0.064,0.719
				c0,0,0.001,0.815,0.002,0.941c4.081,0.712,5.961,3.766,5.961,6.628c0,0.67-0.116,1.335-0.343,1.966
				c-0.828,2.303-3.334,6.165-10.812,6.165c-0.069,0-0.141,0-0.211-0.001C98.364,83.052,97.77,83.073,97.211,83.073z"/>
			<path fill="#FFFFFF" d="M112.409,83.615c-1.532,0-5.215-0.522-7.418-5.183c-0.921-1.411-1.504-3.112-1.771-5.163
				c-1.2-4.481-1.85-8.011-1.975-10.738c-0.041-0.181-0.076-0.367-0.106-0.56c-0.077-0.492-0.146-1.113-0.218-1.955
				c-0.113-1.342-0.232-3.264-0.353-5.721c-0.116-0.54-0.189-1.141-0.21-1.808c-0.002-0.06-0.003-1.654-0.003-1.654
				c0,0.003,0,0.004,0,0.004c-0.003,0-0.029-0.327-0.178-1.202c-0.084-0.493-0.104-0.994-0.059-1.492
				c0.007-0.08,0.014-0.155,0.02-0.226c-0.139-0.599-0.217-1.108-0.217-1.682c0-3.391,2.315-6.149,5.899-7.028
				c0.452-0.111,0.917-0.167,1.383-0.167h1.214c2.822,0,4.755,0.629,6.077,1.511c0.985-0.693,1.992-1.049,2.778-1.232
				c0.951-0.279,1.77-0.279,2.159-0.279h0.174c4.838,0,7.369,3.401,7.369,6.762v0.781c0,0.388-0.039,0.775-0.116,1.155
				c-0.153,0.754-0.297,1.405-0.45,1.979c0.079,0.34,0.142,0.702,0.184,1.086c0.023,0.211,0.035,0.424,0.035,0.636v0.694
				c0,1.224-0.165,2.937-0.52,5.369v1.482c0,0.752-0.107,1.593-0.698,4.202c0.003,0.074,0.004,0.481,0.004,0.481
				c0,0.227-0.014,0.453-0.04,0.679c-0.146,1.249-0.286,2.237-0.47,3.066c0.053,0.422,0.076,0.689,0.076,1.024
				c0,0.581-0.087,1.158-0.258,1.712c-0.33,1.07-0.538,2.376-0.617,3.884c-0.018,0.324-0.062,0.646-0.133,0.963
				c-0.412,1.846-1.222,4.488-3.47,6.12c-0.051,0.037-0.103,0.073-0.154,0.108c-1.498,1.016-3.575,1.723-6.733,2.295
				c-0.341,0.062-0.688,0.093-1.034,0.093H112.409z"/>
			<path fill="#FFFFFF" d="M127.367,83.073c-2.902,0-5.188-0.571-6.989-1.746c-1.277-0.833-2.176-2.136-2.5-3.626
				c-0.722-3.309-1.088-6.592-1.088-9.759c0-0.793,0.041-1.715,0.127-2.857c-0.096-0.598-0.194-1.418-0.283-2.574
				c-0.025-0.326-0.023-0.653,0.007-0.978l0.114-1.238c-0.058-0.665-0.09-1.506-0.135-2.669c-0.008-0.224-0.004-0.448,0.014-0.671
				l0.343-4.424c-0.067-0.403-0.1-0.791-0.1-1.176v-0.325c0-0.161,0.004-0.319,0.011-0.477c-0.114-0.615-0.129-1.249-0.04-1.877
				c0.028-0.203,0.029-0.322,0.029-0.335v-1.713c0-1.778,0.733-5.03,5.645-6.838c0.62-0.228,1.274-0.349,1.935-0.357
				c0.33-0.058,0.666-0.087,1.004-0.087c0.178,0,0.356,0.008,0.535,0.025c1.188,0.11,2.074,0.228,2.755,0.347
				c0.318-0.031,0.646-0.047,0.981-0.047c0.196,0,0.393,0.01,0.588,0.03c1.421,0.145,2.697,0.244,3.901,0.302
				c0.865,0.042,1.711,0.278,2.474,0.689c2.738,1.477,4.309,3.964,4.309,6.825c0,0.89-0.205,1.769-0.598,2.567
				c-0.444,0.9-1.19,2.065-2.395,3.095c0.861,1.197,1.322,2.599,1.322,4.075c0,0.78-0.157,1.552-0.462,2.27
				c-0.885,2.084-2.479,3.591-4.487,4.328c-0.01,0.14-0.021,0.29-0.034,0.452c0.236,0.735,0.324,1.514,0.256,2.29l-0.064,0.719
				c0,0,0.001,0.815,0.002,0.941c4.081,0.712,5.961,3.766,5.961,6.628c0,0.67-0.116,1.335-0.343,1.966
				c-0.828,2.303-3.334,6.165-10.812,6.165c-0.069,0-0.141,0-0.211-0.001C128.52,83.052,127.925,83.073,127.367,83.073z"/>
			<path fill="#FFFFFF" d="M148.072,84.764c-1.574,0-3.021-0.402-4.27-1.151c-0.875,0.376-1.904,0.647-3.104,0.773
				c-0.201,0.021-0.403,0.032-0.605,0.032c-5.208,0-7.055-2.85-7.692-4.549c-0.049-0.129-0.093-0.26-0.132-0.393
				c-0.961-3.25-1.437-7.339-1.452-12.495l-0.412-4.786c-0.032-0.379-0.028-0.76,0.014-1.138l0.098-0.878
				c-0.088-0.797-0.133-1.567-0.133-2.299V57.1c0-0.727,0.019-1.427,0.056-2.122c-0.037-0.326-0.056-0.658-0.056-1
				c0-0.319,0.026-0.637,0.078-0.951l0.041-0.244c-0.08-0.833-0.119-1.669-0.119-2.535c0-0.233,0.014-0.465,0.042-0.696
				c0.412-3.416,1.021-5.662,1.976-7.281c0.084-0.143,0.174-0.282,0.27-0.416c0.328-0.864,0.858-1.638,1.547-2.257
				c2.866-2.575,5.675-3.184,7.589-3.221c0.141-0.009,0.411-0.029,0.803-0.064c0.173-0.016,0.347-0.023,0.521-0.023
				c4.886,0,7.395,2.235,8.61,3.988c1.663,1.937,2.715,4.728,3.371,8.896c0.027,0.176,0.047,0.353,0.059,0.531
				c0.029,0.463,0.099,1.604,0.099,2.193c0,0.195-0.01,0.389-0.029,0.583c-0.244,2.416-0.477,4.222-0.71,5.521
				c-0.235,1.304-0.591,2.357-1.027,3.204c-0.292,0.66-0.687,1.301-1.153,1.975c0.445,0.881,0.778,1.751,1.001,2.618
				c0.018,0.066,0.033,0.132,0.048,0.199c0.101,0.221,0.313,0.66,0.724,1.411c0.293,0.534,0.498,1.11,0.611,1.704
				c0.092,0.315,0.419,1.386,1.43,4.299c0.063,0.183,0.118,0.37,0.163,0.559c0.22,0.922,0.331,1.871,0.331,2.82v0.26
				c0,3.313-1.854,5.989-4.838,6.984c-0.061,0.02-0.121,0.039-0.183,0.057c-0.995,0.296-1.929,0.505-2.774,0.621
				C148.6,84.746,148.336,84.764,148.072,84.764z"/>
		</g>
		<g>
			<path fill="#FFFFFF" d="M140.687,100.981c-2.264,0-4.415-1.331-5.352-3.547c-1.25-2.954,0.132-6.362,3.086-7.611
				c17.525-7.413,28.85-24.497,28.85-43.524c0-13.447-5.759-26.297-15.799-35.256c-2.394-2.136-2.603-5.807-0.467-8.2
				c2.134-2.392,5.806-2.603,8.199-0.467c12.508,11.16,19.682,27.17,19.682,43.923c0,23.705-14.107,44.988-35.939,54.222
				C142.208,100.833,141.44,100.981,140.687,100.981z"/>
			<g>
				<path fill="#FFFFFF" d="M164.731,25.338c-4.745,0-9.383-2.224-12.725-6.101c-3.656-4.246-5.115-9.764-3.903-14.764
					c0.587-2.417,2.647-4.193,5.125-4.416c0.43-0.039,0.863-0.058,1.3-0.058c4.745,0,9.383,2.224,12.725,6.101
					c3.656,4.245,5.115,9.764,3.902,14.764c-0.586,2.417-2.646,4.193-5.124,4.416C165.602,25.318,165.168,25.338,164.731,25.338z"/>
				<path fill="#FFFFFF" d="M164.731,25.338c-4.745,0-9.383-2.224-12.725-6.101c-3.656-4.246-5.115-9.764-3.903-14.764
					c0.514-2.116,2.167-3.767,4.283-4.277c0.451-0.109,0.908-0.162,1.361-0.162c1.668,0,3.282,0.72,4.399,2.017l11.764,13.653
					c1.421,1.649,1.801,3.955,0.983,5.972c-0.818,2.018-2.695,3.409-4.863,3.603C165.602,25.318,165.168,25.338,164.731,25.338z"/>
			</g>
			<g>
				<path fill="#FFFFFF" d="M151.472,93.901c-1.367,0-2.72-0.483-3.795-1.41c-3.362-2.901-4.976-7.332-4.314-11.852
					c0.66-4.518,3.473-8.3,7.523-10.119c0.763-0.342,1.573-0.509,2.378-0.509c1.368,0,2.722,0.483,3.797,1.412
					c3.363,2.905,4.975,7.336,4.312,11.854c-0.66,4.511-3.471,8.292-7.52,10.113C153.089,93.733,152.277,93.901,151.472,93.901z"/>
				<path fill="#FFFFFF" d="M151.472,93.901c-1.371,0-2.723-0.485-3.795-1.41c-3.362-2.901-4.976-7.332-4.314-11.852
					c0.66-4.518,3.473-8.3,7.523-10.119c0.762-0.341,1.572-0.509,2.378-0.509c1.243,0,2.476,0.398,3.502,1.174
					c1.691,1.278,2.552,3.376,2.245,5.474l-1.794,12.274c-0.306,2.097-1.73,3.861-3.717,4.602
					C152.84,93.781,152.153,93.901,151.472,93.901z"/>
			</g>
			<g>
				<path fill="#FFFFFF" d="M160.506,97.659c-5.027,0-9.602-2.454-12.237-6.564c-1.218-1.899-1.226-4.332-0.02-6.239
					c2.62-4.143,7.199-6.625,12.25-6.639c5.076,0,9.652,2.454,12.288,6.564c1.219,1.9,1.226,4.334,0.019,6.241
					c-2.623,4.143-7.204,6.624-12.253,6.637C160.548,97.659,160.511,97.659,160.506,97.659z"/>
				<path fill="#FFFFFF" d="M153.157,93.767c-2.113,0-4.061-1.148-5.083-2.998c-1.025-1.855-0.958-4.122,0.175-5.914
					c2.62-4.143,7.199-6.625,12.25-6.639c5.076,0,9.652,2.454,12.288,6.564c1.145,1.785,1.226,4.051,0.211,5.913
					c-1.014,1.862-2.962,3.023-5.082,3.029C167.916,93.723,153.163,93.767,153.157,93.767z"/>
			</g>
			<g>
				<path fill="#FFFFFF" d="M169.148,45.01c-4.301,0-8.629-1.569-12.185-4.418c-4.919-3.939-7.671-9.726-7.36-15.478
					c0.134-2.484,1.834-4.606,4.229-5.279c1.448-0.407,2.971-0.613,4.525-0.613c4.301,0,8.628,1.569,12.185,4.418
					c4.918,3.942,7.669,9.728,7.36,15.477c-0.133,2.484-1.834,4.608-4.229,5.28C172.227,44.804,170.704,45.01,169.148,45.01z"/>
				<path fill="#FFFFFF" d="M169.148,45.01c-4.301,0-8.629-1.569-12.185-4.418c-4.919-3.939-7.671-9.726-7.36-15.478
					c0.117-2.174,1.439-4.1,3.427-4.989c0.76-0.34,1.567-0.506,2.371-0.506c1.298,0,2.583,0.435,3.632,1.275l16.701,13.38
					c1.699,1.361,2.494,3.558,2.06,5.691c-0.434,2.133-2.024,3.844-4.12,4.433C172.227,44.804,170.704,45.01,169.148,45.01z"/>
			</g>
			<g>
				<path fill="#FFFFFF" d="M170.573,35.672c-1.808,0-3.553-0.845-4.669-2.353c-3.427-4.629-4.318-10.974-2.384-16.972
					c1.938-6,6.367-10.627,11.852-12.381c0.582-0.186,1.179-0.276,1.768-0.276c1.808,0,3.553,0.846,4.669,2.353
					c3.425,4.627,4.316,10.971,2.383,16.97c-1.936,5.999-6.364,10.626-11.849,12.382C171.76,35.582,171.163,35.672,170.573,35.672z"
					/>
				<path fill="#FFFFFF" d="M170.571,35.671c-1.821,0-3.562-0.858-4.667-2.352c-3.427-4.629-4.318-10.974-2.384-16.972
					c1.938-6,6.367-10.627,11.852-12.381c0.581-0.186,1.177-0.276,1.768-0.276c1.52,0,3.006,0.597,4.112,1.706
					c1.538,1.542,2.084,3.813,1.416,5.884L176.1,31.646c-0.668,2.072-2.438,3.596-4.587,3.948
					C171.198,35.646,170.884,35.671,170.571,35.671z"/>
			</g>
			<g>
				<path fill="#FFFFFF" d="M174.091,51.729c-0.271,0-0.542-0.006-0.812-0.019c-2.483-0.116-4.618-1.801-5.308-4.19
					c-1.739-6.019-0.232-12.835,4.03-18.235c4.042-5.118,10.02-8.173,15.989-8.173c0.271,0,0.542,0.006,0.812,0.019
					c2.484,0.116,4.62,1.802,5.309,4.192c1.735,6.021,0.229,12.836-4.031,18.232C186.04,48.673,180.063,51.729,174.091,51.729z"/>
				<path fill="#FFFFFF" d="M173.551,51.716c-0.37,0-0.744-0.036-1.117-0.108c-2.136-0.418-3.858-1.997-4.462-4.088
					c-1.739-6.019-0.232-12.835,4.03-18.235c4.042-5.118,10.02-8.173,15.989-8.173c0.271,0,0.542,0.006,0.812,0.019
					c2.174,0.102,4.109,1.411,5.013,3.391c0.903,1.981,0.623,4.3-0.726,6.009l-14.98,18.977
					C176.996,50.917,175.308,51.716,173.551,51.716z"/>
			</g>
			<g>
				<path fill="#FFFFFF" d="M175.113,69.639c-2.136,0-4.206-0.381-6.153-1.134c-2.143-0.828-3.596-2.841-3.708-5.135
					c-0.289-5.934,2.543-11.645,7.574-15.279c3.188-2.301,6.9-3.518,10.735-3.518c2.135,0,4.204,0.381,6.151,1.134
					c2.143,0.828,3.596,2.841,3.707,5.136c0.287,5.934-2.544,11.646-7.574,15.278C182.66,68.422,178.949,69.639,175.113,69.639z"/>
				<path fill="#FFFFFF" d="M171.052,68.895c-0.856,0-1.717-0.189-2.517-0.574c-1.92-0.923-3.18-2.823-3.283-4.951
					c-0.289-5.934,2.543-11.645,7.574-15.279c3.188-2.301,6.9-3.518,10.735-3.518c2.135,0,4.204,0.381,6.151,1.134
					c1.986,0.768,3.394,2.561,3.666,4.674c0.272,2.112-0.633,4.205-2.359,5.452l-16.566,11.963
					C173.445,68.523,172.252,68.895,171.052,68.895z"/>
			</g>
			<g>
				<path fill="#FFFFFF" d="M170.371,87.918c-4.426,0-8.611-1.571-11.783-4.424c-1.709-1.537-2.352-3.937-1.638-6.121
					c1.845-5.649,6.525-9.978,12.521-11.58c1.588-0.424,3.217-0.639,4.842-0.639c4.428,0,8.612,1.571,11.783,4.425
					c1.707,1.536,2.349,3.935,1.637,6.118c-1.844,5.648-6.523,9.978-12.52,11.581C173.626,87.703,171.997,87.918,170.371,87.918z"/>
				<path fill="#FFFFFF" d="M162.471,84.983c-1.573,0-3.104-0.64-4.217-1.814c-1.465-1.547-1.965-3.771-1.304-5.796
					c1.845-5.649,6.525-9.978,12.521-11.58c1.588-0.424,3.217-0.639,4.842-0.639c4.428,0,8.612,1.571,11.783,4.425
					c1.583,1.425,2.26,3.602,1.763,5.673c-0.498,2.071-2.089,3.704-4.147,4.254l-19.741,5.279
					C163.475,84.918,162.971,84.983,162.471,84.983z"/>
			</g>
			<g>
				<path fill="#FFFFFF" d="M170.296,67.664c-0.369,0-0.741-0.036-1.113-0.108c-5.769-1.126-10.811-5.292-13.487-11.144
					c-2.677-5.854-2.532-12.392,0.388-17.491c1.048-1.83,2.985-2.922,5.039-2.922c0.369,0,0.741,0.036,1.113,0.108
					c5.77,1.126,10.812,5.292,13.488,11.144c2.676,5.853,2.53,12.392-0.389,17.491C174.287,66.572,172.35,67.664,170.296,67.664z"/>
				<path fill="#FFFFFF" d="M170.295,67.664c-0.369,0-0.742-0.035-1.112-0.107c-5.769-1.126-10.811-5.292-13.487-11.144
					c-2.677-5.854-2.532-12.392,0.388-17.491c1.038-1.812,2.965-2.921,5.039-2.921c0.088,0,0.177,0.002,0.266,0.006
					c2.174,0.099,4.111,1.406,5.017,3.386l9.172,20.049c0.905,1.98,0.628,4.3-0.72,6.01
					C173.743,66.863,172.055,67.664,170.295,67.664z"/>
			</g>
			<g>
				<path fill="#FFFFFF" d="M161.415,84.337c-0.981,0-1.968-0.248-2.862-0.755c-4.458-2.526-7.471-7.346-8.061-12.891
					c-0.592-5.543,1.34-10.888,5.166-14.296c1.089-0.97,2.471-1.471,3.863-1.471c0.981,0,1.968,0.248,2.861,0.754
					c4.458,2.525,7.472,7.344,8.063,12.889c0.589,5.545-1.342,10.889-5.165,14.297C164.19,83.836,162.809,84.337,161.415,84.337z"/>
				<path fill="#FFFFFF" d="M161.416,84.337c-0.986,0-1.974-0.25-2.863-0.755c-4.458-2.526-7.471-7.346-8.061-12.891
					c-0.592-5.543,1.34-10.888,5.166-14.296c1.082-0.963,2.462-1.471,3.863-1.471c0.704,0,1.412,0.128,2.091,0.39
					c2.031,0.784,3.452,2.638,3.684,4.802l1.896,17.798c0.23,2.165-0.77,4.277-2.59,5.471
					C163.637,84.019,162.527,84.337,161.416,84.337z"/>
			</g>
		</g>
		<g>
			<path fill="#FFFFFF" d="M54.132,100.981c-0.754,0-1.521-0.148-2.26-0.46c-21.833-9.234-35.94-30.518-35.94-54.222
				c0-16.752,7.174-32.762,19.681-43.923c2.394-2.136,6.064-1.927,8.2,0.466s1.927,6.064-0.466,8.2
				c-10.041,8.96-15.8,21.811-15.8,35.257c0,19.027,11.324,36.112,28.851,43.524c2.954,1.249,4.336,4.657,3.086,7.611
				C58.547,99.65,56.396,100.981,54.132,100.981z"/>
			<g>
				<path fill="#FFFFFF" d="M30.086,25.338c-0.436,0-0.87-0.02-1.299-0.058c-2.478-0.223-4.538-1.998-5.124-4.416
					c-1.213-4.999,0.246-10.517,3.901-14.762C30.905,2.224,35.544,0,40.29,0c0.437,0,0.87,0.02,1.3,0.058
					c2.478,0.223,4.538,1.998,5.125,4.416c1.211,4.998-0.247,10.516-3.901,14.761C39.47,23.114,34.832,25.338,30.086,25.338
					C30.087,25.338,30.087,25.338,30.086,25.338z"/>
				<path fill="#FFFFFF" d="M30.086,25.338c-0.436,0-0.87-0.02-1.299-0.058c-2.168-0.195-4.046-1.585-4.863-3.603
					s-0.438-4.323,0.983-5.972L36.671,2.051c1.117-1.297,2.731-2.017,4.399-2.017c0.453,0,0.909,0.053,1.361,0.162
					c2.116,0.51,3.77,2.161,4.283,4.277c1.211,4.998-0.247,10.516-3.901,14.761C39.47,23.114,34.832,25.338,30.086,25.338
					C30.087,25.338,30.087,25.338,30.086,25.338z"/>
			</g>
			<g>
				<path fill="#FFFFFF" d="M43.349,93.901c-0.806,0-1.616-0.167-2.379-0.51c-4.05-1.819-6.862-5.601-7.524-10.116
					c-0.661-4.521,0.952-8.951,4.313-11.853c1.075-0.928,2.428-1.411,3.796-1.411c0.805,0,1.615,0.167,2.378,0.509
					c4.052,1.819,6.864,5.603,7.523,10.12c0.661,4.513-0.949,8.943-4.31,11.847C46.071,93.417,44.718,93.901,43.349,93.901z"/>
				<path fill="#FFFFFF" d="M43.349,93.901c-0.681,0-1.366-0.12-2.025-0.365c-1.987-0.74-3.413-2.503-3.72-4.602L35.808,76.66
					c-0.308-2.098,0.554-4.196,2.245-5.475c1.026-0.775,2.259-1.174,3.502-1.174c0.806,0,1.616,0.168,2.378,0.509
					c4.052,1.819,6.864,5.603,7.523,10.12c0.661,4.514-0.949,8.943-4.31,11.847C46.074,93.414,44.722,93.901,43.349,93.901z"/>
			</g>
			<g>
				<path fill="#FFFFFF" d="M34.26,97.659c-5.045-0.013-9.625-2.494-12.247-6.638c-1.206-1.907-1.199-4.34,0.02-6.24
					c2.636-4.11,7.212-6.564,12.241-6.564c5.096,0.014,9.675,2.496,12.295,6.639c1.206,1.906,1.198,4.338-0.019,6.237
					c-2.634,4.111-7.209,6.566-12.238,6.566C34.312,97.659,34.266,97.659,34.26,97.659z"/>
				<path fill="#FFFFFF" d="M26.903,93.723c-2.12-0.006-4.068-1.167-5.082-3.029c-1.015-1.862-0.934-4.128,0.211-5.913
					c2.636-4.11,7.212-6.564,12.241-6.564c5.096,0.014,9.675,2.496,12.295,6.639c1.133,1.792,1.2,4.058,0.175,5.914
					c-1.022,1.85-2.97,2.998-5.083,2.998C41.654,93.767,26.903,93.723,26.903,93.723z"/>
			</g>
			<g>
				<path fill="#FFFFFF" d="M25.67,45.01c-1.556,0-3.078-0.206-4.524-0.612c-2.395-0.673-4.095-2.795-4.229-5.279
					c-0.311-5.749,2.439-11.534,7.356-15.476c3.56-2.851,7.888-4.42,12.188-4.42c1.555,0,3.077,0.206,4.525,0.613
					c2.395,0.672,4.096,2.796,4.229,5.28c0.309,5.75-2.442,11.535-7.358,15.476C34.297,43.441,29.97,45.01,25.67,45.01L25.67,45.01z
					"/>
				<path fill="#FFFFFF" d="M25.67,45.01c-1.556,0-3.078-0.206-4.524-0.612c-2.096-0.589-3.687-2.3-4.12-4.433
					c-0.435-2.133,0.36-4.33,2.06-5.69l16.7-13.38c1.049-0.841,2.334-1.275,3.632-1.275c0.804,0,1.611,0.167,2.372,0.507
					c1.987,0.89,3.31,2.815,3.426,4.99c0.309,5.75-2.442,11.535-7.358,15.476C34.297,43.441,29.97,45.01,25.67,45.01L25.67,45.01z"
					/>
			</g>
			<g>
				<path fill="#FFFFFF" d="M24.245,35.672c-0.59,0-1.187-0.09-1.77-0.277c-5.484-1.756-9.913-6.383-11.849-12.38
					c-1.935-6-1.043-12.345,2.385-16.973c1.115-1.506,2.861-2.352,4.668-2.352c0.59,0,1.186,0.09,1.769,0.276
					c5.486,1.755,9.916,6.384,11.849,12.382c1.936,5.995,1.045,12.34-2.383,16.97C27.798,34.826,26.052,35.672,24.245,35.672z"/>
				<path fill="#FFFFFF" d="M24.247,35.671c-0.313,0-0.627-0.025-0.941-0.077c-2.148-0.353-3.919-1.877-4.587-3.949l-6.567-20.365
					c-0.668-2.071-0.121-4.343,1.416-5.884c1.106-1.109,2.593-1.706,4.112-1.706c0.591,0,1.188,0.09,1.769,0.276
					c5.486,1.755,9.916,6.384,11.849,12.382c1.936,5.995,1.045,12.34-2.383,16.97C27.809,34.813,26.068,35.671,24.247,35.671z"/>
			</g>
			<g>
				<path fill="#FFFFFF" d="M20.728,51.729c-5.972,0-11.949-3.056-15.988-8.175c-4.262-5.395-5.77-12.211-4.032-18.232
					c0.689-2.39,2.824-4.075,5.309-4.191c0.27-0.013,0.54-0.019,0.812-0.019c5.972,0,11.949,3.056,15.988,8.173
					c4.263,5.4,5.77,12.217,4.031,18.235c-0.689,2.389-2.824,4.074-5.308,4.19C21.27,51.723,20.999,51.729,20.728,51.729z"/>
				<path fill="#FFFFFF" d="M21.268,51.716c-1.758,0-3.444-0.798-4.559-2.209L1.729,30.531C0.38,28.822,0.1,26.503,1.003,24.522
					c0.903-1.98,2.839-3.29,5.013-3.391c0.27-0.013,0.54-0.019,0.812-0.019c5.972,0,11.949,3.056,15.988,8.173
					c4.263,5.4,5.77,12.217,4.031,18.235c-0.604,2.091-2.326,3.669-4.462,4.088C22.013,51.681,21.638,51.716,21.268,51.716z"/>
			</g>
			<g>
				<path fill="#FFFFFF" d="M19.705,69.639c-3.837,0-7.549-1.217-10.733-3.518c-5.03-3.633-7.862-9.345-7.573-15.279
					c0.111-2.293,1.564-4.306,3.707-5.134c1.946-0.752,4.016-1.134,6.151-1.134c3.835,0,7.547,1.216,10.734,3.517
					c5.031,3.634,7.862,9.345,7.575,15.278c-0.111,2.294-1.564,4.308-3.707,5.136C23.911,69.257,21.841,69.639,19.705,69.639
					C19.705,69.639,19.705,69.639,19.705,69.639z"/>
				<path fill="#FFFFFF" d="M23.767,68.895c-1.2,0-2.394-0.372-3.401-1.099L3.799,55.833c-1.727-1.247-2.632-3.339-2.359-5.452
					s1.68-3.906,3.666-4.674c1.946-0.752,4.016-1.134,6.151-1.134c3.835,0,7.547,1.216,10.734,3.517
					c5.031,3.634,7.862,9.345,7.575,15.278c-0.104,2.128-1.363,4.028-3.282,4.952C25.484,68.706,24.623,68.895,23.767,68.895z"/>
			</g>
			<g>
				<path fill="#FFFFFF" d="M24.446,87.918c-1.625,0-3.255-0.215-4.843-0.64c-5.996-1.604-10.676-5.933-12.519-11.581
					c-0.712-2.184-0.07-4.582,1.637-6.118c3.171-2.854,7.356-4.425,11.784-4.425c1.625,0,3.254,0.215,4.842,0.639
					c5.996,1.602,10.676,5.931,12.521,11.58c0.714,2.185,0.071,4.584-1.638,6.121C33.059,86.347,28.873,87.918,24.446,87.918
					C24.447,87.918,24.447,87.918,24.446,87.918z"/>
				<path fill="#FFFFFF" d="M32.348,84.983c-0.5,0-1.004-0.064-1.5-0.197l-19.741-5.279c-2.059-0.55-3.649-2.183-4.147-4.254
					c-0.497-2.071,0.18-4.249,1.763-5.673c3.171-2.854,7.356-4.425,11.784-4.425c1.625,0,3.254,0.215,4.842,0.639
					c5.996,1.602,10.676,5.931,12.521,11.58c0.661,2.025,0.161,4.25-1.304,5.796C35.452,84.343,33.921,84.983,32.348,84.983z"/>
			</g>
			<g>
				<path fill="#FFFFFF" d="M24.521,67.664c-2.054,0-3.992-1.093-5.04-2.924c-2.918-5.101-3.063-11.639-0.387-17.489
					c2.678-5.853,7.72-10.018,13.488-11.144c0.371-0.072,0.745-0.108,1.113-0.108c2.054,0,3.99,1.092,5.039,2.922
					c2.92,5.099,3.064,11.638,0.388,17.491c-2.678,5.853-7.72,10.018-13.488,11.144C25.263,67.628,24.891,67.664,24.521,67.664z"/>
				<path fill="#FFFFFF" d="M24.522,67.664c-1.76,0-3.448-0.8-4.563-2.214c-1.347-1.71-1.624-4.03-0.719-6.01l9.173-20.049
					c0.906-1.98,2.843-3.287,5.018-3.386C33.52,36.001,33.608,36,33.696,36c2.075,0,4.001,1.109,5.039,2.921
					c2.92,5.099,3.064,11.638,0.388,17.491c-2.678,5.853-7.72,10.018-13.488,11.144C25.265,67.628,24.892,67.664,24.522,67.664z"/>
			</g>
			<g>
				<path fill="#FFFFFF" d="M33.403,84.337c-1.394,0-2.775-0.5-3.865-1.473c-3.823-3.408-5.754-8.752-5.165-14.295
					c0.59-5.545,3.603-10.364,8.061-12.89c0.895-0.507,1.881-0.755,2.862-0.755c1.393,0,2.774,0.5,3.863,1.471
					c3.827,3.409,5.759,8.754,5.166,14.299c-0.589,5.542-3.602,10.362-8.06,12.888C35.371,84.089,34.385,84.337,33.403,84.337z"/>
				<path fill="#FFFFFF" d="M33.402,84.337c-1.111,0-2.221-0.319-3.186-0.952c-1.82-1.194-2.82-3.306-2.59-5.471l1.895-17.798
					c0.23-2.165,1.652-4.019,3.684-4.803c0.679-0.262,1.388-0.39,2.091-0.39c1.401,0,2.781,0.507,3.863,1.471
					c3.827,3.409,5.759,8.754,5.166,14.299c-0.589,5.542-3.602,10.362-8.06,12.888C35.376,84.087,34.389,84.337,33.402,84.337z"/>
			</g>
		</g>
	</g>
	<g>
		<g>
			<path fill="#EF6159" d="M51.846,17.431l0.323-0.059h0.162c0.635,0,1.473,0.513,2.485,1.523c0.473,1.011,0.702,2.095,0.702,3.281
				c0,1.465-0.324,3.281-0.973,5.449l-0.54,0.645c0,0.352-0.095,0.688-0.27,0.996c1.094,0.293,1.85,0.776,2.269,1.465
				c0.554,0.308,1.026,0.762,1.404,1.348c0.324,0.571,0.486,1.406,0.486,2.52v0.117c0,0.967-0.176,1.655-0.541,2.051
				c0,0.776-0.594,1.699-1.782,2.754l-1.08,0.234c0,0.146-0.284,0.308-0.864,0.469c-0.095,0-0.352-0.103-0.757-0.293
				c-0.932,0.234-1.579,0.352-1.944,0.352c-0.864-0.044-1.296-0.264-1.296-0.645c-0.433-0.557-0.648-2.241-0.648-5.039
				c-0.216-1.67-0.338-3.428-0.378-5.273c-0.148-0.703-0.216-1.509-0.216-2.402c0.067-0.718,0.121-1.978,0.162-3.809
				c-0.068-0.469-0.122-0.981-0.162-1.523c0-0.234,0.054-0.952,0.162-2.168l-0.055-0.938c0.122-0.938,0.554-1.406,1.297-1.406
				c0.162,0,0.392-0.015,0.702-0.059L51.846,17.431z M52.277,19.951l0.433,4.512h0.054c0.176-1.011,0.27-1.802,0.27-2.344V22.06
				c0-1.187-0.256-1.919-0.756-2.227V19.951z M53.304,31.904c-0.04,0.205-0.054,0.322-0.054,0.352c0.175,1.45,0.27,2.915,0.27,4.395
				v0.059h0.055c0.58-0.894,0.864-1.67,0.864-2.344c0-0.703-0.365-1.509-1.081-2.402v-0.059H53.304z"/>
			<path fill="#EF6159" d="M69.633,16.86l0.378-0.059c1.08,0,1.62,0.176,1.62,0.527c0,0.659-0.229,1.04-0.702,1.172
				c-0.499,0.234-1.066,0.425-1.729,0.586l-0.107-0.059c-0.041,0-0.055,0.015-0.055,0.059l-0.378-0.059h-0.972v0.059
				c0.148,0.513,0.418,1.289,0.81,2.344l-0.054,0.41v0.176c0.04,0.352,0.135,0.527,0.271,0.527c0.351,0,0.999-0.015,1.944-0.059
				c0.432,0,0.648,0.176,0.648,0.527v0.176c0,0.688-0.797,1.187-2.377,1.523h-0.108v0.117c0.176,1.157,0.271,2.021,0.271,2.578
				v1.348c0,0.308-0.041,0.659-0.108,1.055c0.041,0.527,0.054,0.923,0.054,1.172c0,0.088-0.013,0.308-0.054,0.645
				c0.216,0.615,0.324,1.011,0.324,1.172c-0.148,1.699-0.216,2.754-0.216,3.164c0.054,0.981,0.256,1.465,0.594,1.465
				c1.796,0.161,2.701,0.308,2.701,0.469c0.107,0.22,0.162,0.396,0.162,0.527c0,0.63-0.973,1.245-2.917,1.875
				c-0.365,0.117-0.797,0.176-1.297,0.176c-1.066,0-2.146-0.396-3.24-1.172c-0.217-0.308-0.324-0.981-0.324-1.992
				c-0.067,0-0.162-1.157-0.271-3.457c-0.067,0-0.107-0.161-0.107-0.469s0.013-0.688,0.054-1.113
				c-0.067-0.776-0.122-2.124-0.162-4.043c0.04-0.249,0.054-0.542,0.054-0.879c-0.107-0.513-0.176-1.099-0.216-1.758
				c0.04-1.567,0.054-2.637,0.054-3.223c-0.026-0.732-0.081-1.157-0.162-1.289c0.041-0.396,0.055-0.718,0.055-0.938v-0.293
				c0-0.044,0.013-0.059,0.054-0.059c-0.257-0.82-0.378-1.392-0.378-1.699c0-0.234,0.364-0.454,1.08-0.645l3.781-0.469
				c0-0.073,0.176-0.103,0.54-0.117h0.378c0.041,0,0.055-0.015,0.055-0.059C69.619,16.801,69.633,16.816,69.633,16.86z"/>
			<path fill="#EF6159" d="M101.924,18.588c0.081,0.103,0.257,0.762,0.54,1.992c0.217,0.19,0.324,0.454,0.324,0.762v1.113
				c0,0.22,0.041,0.791,0.108,1.699c0,0.249-0.041,0.645-0.108,1.172c0.041,0.249,0.055,0.513,0.055,0.82
				c0,0.146-0.068,0.557-0.217,1.23v0.469c0.608,2.49,0.919,4.087,0.919,4.805v0.293c0,0.41-0.203,1.157-0.595,2.227
				c0.067,0.688,0.108,1.245,0.108,1.699c0,1.685-0.392,2.637-1.188,2.871c-0.243,0.044-0.445,0.059-0.594,0.059
				c-0.662,0-1.188-0.308-1.567-0.938c-0.202-0.542-0.311-1.084-0.323-1.641c0.256-2.725,0.378-4.658,0.378-5.801v-0.996
				c0.107-0.747,0.162-1.377,0.162-1.875v-1.23h-0.055c0,1.934-0.432,3.164-1.296,3.691l-0.648,0.176
				c-0.945,0-1.594-0.103-1.944-0.293l0.108,0.586c-0.041,0.688-0.055,1.26-0.055,1.699c0,0.19,0.203,1.289,0.595,3.281
				c0.107,0.63,0.162,1.187,0.162,1.641c-0.298,0.82-0.689,1.23-1.188,1.23c0,0.103-0.54,0.249-1.621,0.469
				c-0.499,0-1.08-0.308-1.729-0.938c-0.473-0.894-0.742-2.007-0.81-3.34c-0.284-1.494-0.433-2.798-0.433-3.926v-1.523
				c-0.067-1.157-0.107-1.772-0.107-1.875v-0.762c0.067-1.157,0.107-1.772,0.107-1.875v-1.055c0-0.498-0.014-1.04-0.054-1.641
				c0.107-0.747,0.162-1.377,0.162-1.875c0-0.278-0.041-0.835-0.108-1.699c0.378-0.82,0.824-1.23,1.351-1.23h1.026
				c0.351,0,0.77,0.19,1.242,0.586c0.108,0.059,0.257,0.454,0.433,1.172c0.702,0.908,1.094,1.67,1.188,2.285
				c0,0.527,0.312,1.816,0.919,3.867c0.067,0.396,0.121,0.776,0.162,1.113h0.054c0.364-0.981,0.797-3.633,1.297-7.969V18.53
				c0-0.527,0.392-0.82,1.188-0.879c0.311-0.044,0.554-0.059,0.757-0.059C101.276,17.783,101.708,18.12,101.924,18.588z"/>
			<path fill="#EF6159" d="M111.381,17.709c0.985,0,1.606,0.278,1.89,0.82c0.068,0.249,0.108,0.425,0.108,0.527v0.645
				c0.257,0.601,0.378,1.201,0.378,1.816c0.041,0.425,0.055,0.82,0.055,1.172c-0.041,0.996-0.055,1.582-0.055,1.758
				c0.041,0.337,0.055,0.586,0.055,0.762l-0.108,0.586l0.108,0.996c-0.041,0.776-0.055,1.362-0.055,1.758
				c0,0.337,0.014,1.099,0.055,2.285l-0.055,0.234c0,0.381,0.095,1.479,0.271,3.281v0.117c0,0.396-0.014,0.864-0.054,1.406
				c0.148,0.293,0.216,0.586,0.216,0.879c0,0.205-0.014,0.601-0.055,1.172c0.108,0.542,0.162,0.996,0.162,1.348v0.059
				c-0.067,0.425-0.404,0.645-1.026,0.645c-0.094,0.103-0.621,0.176-1.566,0.234c-1.039,0-1.566-0.234-1.566-0.703
				c-0.216-0.601-0.324-1.392-0.324-2.344v-2.461c-0.067-0.864-0.107-1.304-0.107-1.348c0-0.601,0.04-1.567,0.107-2.871
				c-0.04-1.772-0.107-2.915-0.216-3.457c0.041-0.337,0.055-0.586,0.055-0.762c0-0.322-0.041-1.274-0.108-2.871
				c0.216-1.304,0.324-2.695,0.324-4.16v-0.586c0-0.278,0.324-0.586,0.972-0.938H111.381z"/>
			<path fill="#EF6159" d="M130.651,16.948c0.485,0,0.81,0.425,0.972,1.289v0.938c0,0.293,0.108,1.055,0.324,2.285v0.117
				c0,0.718,0.014,1.304,0.054,1.758c-0.04,0.396-0.054,0.879-0.054,1.465c0.176,0.981,0.271,2.021,0.271,3.105v0.059
				c0,0.762-0.041,1.479-0.108,2.168c0.041,0.483,0.054,0.776,0.054,0.879c-0.04,0.835-0.054,1.465-0.054,1.875l0.162,0.938
				c-0.067,0.308-0.108,0.645-0.108,0.996v1.582c0,0.249-0.013,0.542-0.054,0.879c0.041,0.132,0.054,0.337,0.054,0.586
				c-0.229,0.864-0.607,1.289-1.134,1.289c0,0.073-0.122,0.117-0.378,0.117h-0.055c-0.175,0-0.392-0.044-0.647-0.117
				c-0.176,0.161-0.541,0.278-1.081,0.352l-0.107-0.059h-0.055c-0.891,0-1.418-0.176-1.566-0.527
				c-0.607-1.113-0.918-1.919-0.918-2.402c-0.581-1.143-1.066-2.476-1.458-3.984h-0.055v1.582c0,0.366,0.014,0.864,0.055,1.523
				l-0.108,0.352c0.04,0.513,0.054,0.923,0.054,1.23v0.059c0,0.688-0.176,1.187-0.54,1.465c-0.311,0-0.688,0.132-1.134,0.41h-0.757
				c-0.864,0-1.472-0.542-1.836-1.641l-0.055-0.41c0-0.015,0.014-0.278,0.055-0.762l-0.162-1.465c0-0.132,0.013-0.688,0.054-1.699
				c0-0.234-0.041-0.82-0.108-1.758c0.148-0.952,0.311-2.505,0.486-4.629c0.108-0.249,0.162-0.63,0.162-1.172
				c0-2.065,0.121-3.442,0.378-4.16v-0.41c0-0.088-0.162-0.439-0.486-1.055v-0.176c0-0.308,0.324-0.659,0.973-1.055
				c0.311-0.117,0.554-0.176,0.702-0.176c1.202,0,2.201,0.776,3.025,2.344c0,0.366,0.432,1.245,1.296,2.637
				c0.095,0.645,0.311,1.406,0.648,2.285c0.04,0,0.148,0.337,0.324,0.996c-0.041,0.161-0.055,0.293-0.055,0.41
				c0.203,0,0.405,0.762,0.595,2.285c0.283,0.542,0.432,1.04,0.432,1.465v0.41l0.055,0.293h0.054l0.216-1.406
				c-0.04-0.659-0.054-1.157-0.054-1.523v-1.582c0.148-0.747,0.257-2.505,0.324-5.273c0.054,0,0.095-0.41,0.107-1.23
				c-0.067-1.655-0.107-2.681-0.107-3.047c0-0.161,0.257-0.396,0.756-0.703H130.651z"/>
			<path fill="#EF6159" d="M144.037,16.86l0.378-0.059c1.08,0,1.62,0.176,1.62,0.527c0,0.659-0.229,1.04-0.702,1.172
				c-0.499,0.234-1.066,0.425-1.729,0.586l-0.107-0.059c-0.041,0-0.055,0.015-0.055,0.059l-0.378-0.059h-0.972v0.059
				c0.148,0.513,0.418,1.289,0.81,2.344l-0.054,0.41v0.176c0.04,0.352,0.135,0.527,0.271,0.527c0.351,0,0.999-0.015,1.944-0.059
				c0.432,0,0.648,0.176,0.648,0.527v0.176c0,0.688-0.797,1.187-2.377,1.523h-0.108v0.117c0.176,1.157,0.271,2.021,0.271,2.578
				v1.348c0,0.308-0.041,0.659-0.108,1.055c0.041,0.527,0.054,0.923,0.054,1.172c0,0.088-0.013,0.308-0.054,0.645
				c0.216,0.615,0.324,1.011,0.324,1.172c-0.148,1.699-0.216,2.754-0.216,3.164c0.054,0.981,0.256,1.465,0.594,1.465
				c1.796,0.161,2.701,0.308,2.701,0.469c0.107,0.22,0.162,0.396,0.162,0.527c0,0.63-0.973,1.245-2.917,1.875
				c-0.365,0.117-0.797,0.176-1.297,0.176c-1.066,0-2.146-0.396-3.24-1.172c-0.217-0.308-0.324-0.981-0.324-1.992
				c-0.067,0-0.162-1.157-0.271-3.457c-0.067,0-0.107-0.161-0.107-0.469s0.013-0.688,0.054-1.113
				c-0.067-0.776-0.122-2.124-0.162-4.043c0.04-0.249,0.054-0.542,0.054-0.879c-0.107-0.513-0.176-1.099-0.216-1.758
				c0.04-1.567,0.054-2.637,0.054-3.223c-0.026-0.732-0.081-1.157-0.162-1.289c0.041-0.396,0.055-0.718,0.055-0.938v-0.293
				c0-0.044,0.013-0.059,0.054-0.059c-0.257-0.82-0.378-1.392-0.378-1.699c0-0.234,0.364-0.454,1.08-0.645l3.781-0.469
				c0-0.073,0.176-0.103,0.54-0.117h0.378c0.041,0,0.055-0.015,0.055-0.059C144.023,16.801,144.037,16.816,144.037,16.86z"/>
		</g>
		<g>
			<path fill="#48172D" d="M54.743,43.939c0.304-0.108,0.542-0.174,0.694-0.174c3.122,0,4.684,0.347,4.684,1.041
				c0.064,0.325,0.087,0.542,0.087,0.694c0,0.628-0.89,1.148-2.689,1.561c-0.715-0.174-1.192-0.26-1.388-0.26l-1.388,0.521
				c-0.108-0.065-0.368-0.108-0.78-0.174v0.347c0.065,2.407,0.174,3.621,0.347,3.643c1.149,0.022,1.735,0.065,1.735,0.174
				l0.173-0.087h1.734c1.106,0,1.648,0.412,1.648,1.214c0,1.041-0.261,1.562-0.78,1.562c-0.087,0.195-0.499,0.412-1.215,0.694
				l-1.214-0.087c-0.478,0-1.106,0.064-1.908,0.173c0.174,0.781,0.26,1.236,0.26,1.388c0,0.564-0.021,1.604-0.086,3.123
				c0.281,1.365,0.434,2.276,0.434,2.688l-0.087,0.347c0.108,0.217,0.173,0.455,0.173,0.694v0.606c0,0.499-0.021,1.02-0.086,1.562
				c0,0.108,0.151,1.063,0.434,2.862c-0.065,0.629-0.087,1.214-0.087,1.734c0.412,1.192,0.607,2.516,0.607,3.989
				c0.347,0.846,0.52,1.627,0.52,2.342v0.261c0,0.802-1.496,1.366-4.51,1.647h-0.087c-0.846,0-1.365-0.195-1.561-0.607
				c-0.629-1.474-0.954-3.057-0.954-4.77c-0.021-0.021-0.174-1.279-0.434-3.729c-0.108,0-0.195-0.867-0.261-2.603
				c0-0.281,0.065-0.976,0.174-2.081c-0.238-0.585-0.347-1.105-0.347-1.562v-1.04c0-1.041,0.064-1.713,0.173-1.995
				c-0.173-1.908-0.26-3.881-0.26-5.897c0.108-1.02,0.174-1.67,0.174-1.908l-0.261-1.734c0-0.543,0.021-1.279,0.087-2.256
				c-0.065-0.759-0.087-1.409-0.087-1.907c0-1.279,1.02-1.908,3.036-1.908c0-0.044,0.434-0.131,1.301-0.261L54.743,43.939z"/>
			<path fill="#48172D" d="M74.039,50.357c0.802,1.951,1.214,4.033,1.214,6.245c0.065,0,0.087,0.151,0.087,0.434
				c0,0.108-0.108,0.715-0.347,1.821c0.282,1.409,0.434,3.035,0.434,4.856v0.174c0,1.235-0.174,2.84-0.521,4.856
				c0,1.192-0.499,2.559-1.475,4.076c-0.26,1.279-0.715,1.908-1.388,1.908c-0.281,0.759-0.889,1.128-1.821,1.128
				c-0.368,0-1.084-0.108-2.168-0.347c-1.084,0.238-1.8,0.347-2.168,0.347h-0.348c-1.496,0-2.559-1.041-3.209-3.122
				c-0.629-1.149-1.171-2.928-1.647-5.291c0-0.412-0.021-0.629-0.087-0.693l0.174-1.648c-0.065-0.933-0.087-1.778-0.087-2.515
				v-0.348c0-2.623,0.151-3.989,0.434-4.076c-0.065-0.108-0.087-0.195-0.087-0.26c0-0.521,0.261-1.757,0.78-3.729
				c0-0.759,0.586-2.775,1.735-6.071c0.542-0.65,1.063-1.02,1.561-1.128c1.366-0.521,2.775-0.78,4.25-0.78
				C71.697,46.194,73.259,47.582,74.039,50.357z M68.401,50.617c-0.238,0.846-0.499,2.429-0.78,4.771v1.475
				c0,0.195-0.087,0.391-0.261,0.607v0.347c0,1.518-0.064,2.472-0.173,2.862c0.064,0.39,0.087,0.715,0.087,0.954V62.5
				c0,2.06,0.325,4.748,0.954,8.065h0.086c0.499-0.693,0.933-2.146,1.302-4.336c0.238-1.713,0.347-3.448,0.347-5.204
				c0-0.889-0.108-2.363-0.347-4.423v-0.435c0-0.238,0.021-0.563,0.086-0.954c-0.455-1.864-0.867-3.403-1.214-4.597H68.401z"/>
			<path fill="#48172D" d="M87.306,43.831c1.02,0.997,1.757,3.079,2.255,6.244c0.065,1.02,0.087,1.627,0.087,1.821
				c-0.455,4.511-0.867,6.766-1.214,6.766c0,0.217-0.434,0.91-1.301,2.081c-0.977,0.803-1.627,1.388-1.908,1.735l-0.087,0.173
				c1.496,1.713,2.429,3.253,2.775,4.597c0,0.369,0.434,1.366,1.301,2.949c0,0.217,0.542,1.93,1.648,5.117
				c0.108,0.455,0.173,0.954,0.173,1.475v0.26c0,0.803-0.281,1.279-0.867,1.475c-0.802,0.238-1.431,0.368-1.908,0.434
				c-1.279,0-2.168-0.78-2.688-2.342c-0.347-0.976-0.933-2.146-1.734-3.556c-0.325-1.41-0.694-2.472-1.128-3.209
				c-0.173-0.412-0.26-0.694-0.26-0.868h-0.087c0,0.239-0.065,0.846-0.174,1.822c0.022,0.693,0.087,1.04,0.174,1.04
				c-0.108,0.239-0.174,0.716-0.174,1.388v1.648c0,0.195-0.021,0.455-0.087,0.78c0.239,0.629,0.348,1.192,0.348,1.734
				c0,0.65-0.716,1.063-2.169,1.215c-1.301,0-2.06-0.261-2.255-0.781c-0.802-2.71-1.214-6.396-1.214-11.102l-0.434-5.03l0.173-1.561
				c-0.108-0.759-0.173-1.519-0.173-2.256V57.1c0-0.737,0.021-1.539,0.087-2.429c-0.065-0.238-0.087-0.455-0.087-0.693l0.173-1.041
				c-0.108-0.824-0.173-1.713-0.173-2.688c0.304-2.516,0.716-4.185,1.214-5.03c0.174,0,0.412-0.434,0.694-1.301
				c1.279-1.149,2.58-1.735,3.902-1.735c0.022,0,0.412-0.021,1.128-0.086C85.333,42.096,86.677,42.681,87.306,43.831z
				 M81.408,48.687c0,1.149,0.151,2.667,0.434,4.597v0.434c0,0.195-0.021,0.456-0.087,0.781c0.238,0.759,0.347,1.8,0.347,3.122
				l0.087,0.347c1.323-1.148,1.995-3.469,1.995-6.938c0-2.971-0.607-4.986-1.821-6.071h-0.087c-0.499,0-0.78,1.106-0.867,3.296
				V48.687z M82.275,68.722v0.174h0.087v-0.174H82.275z"/>
			<path fill="#48172D" d="M98.491,45.652c0.239-0.108,0.607-0.174,1.085-0.174c1.496,0.152,2.884,0.261,4.206,0.325
				c0.846,0.456,1.258,1.02,1.258,1.713c-0.759,1.54-2.277,2.299-4.532,2.299h-1.019l-0.412,0.087v-0.087l-0.174,0.087
				c-0.108-0.065-0.217-0.087-0.325-0.087c-0.173,0.434-0.26,0.846-0.26,1.214v0.174c0,0.434,0.021,0.997,0.087,1.713l-0.412,1.149
				c0.087,0.802,0.195,1.214,0.325,1.214s0.542-0.021,1.258-0.087c2.189,0.499,3.273,0.867,3.273,1.063
				c0.348,0.304,0.521,0.629,0.521,0.998c-0.368,0.867-1.063,1.301-2.104,1.301c-0.173,0-1.019,0.281-2.536,0.824h-0.325
				l0.086,0.151c0,0.151-0.021,0.238-0.086,0.238c0.064,0.65,0.086,1.106,0.086,1.388v1.236c0,0.368-0.064,1.214-0.173,2.537
				c0.064,0.434,0.173,0.823,0.347,1.148l-0.087,0.976v0.803c0,2.038,0.108,3.447,0.325,4.25c-0.064,0.563-0.087,0.997-0.087,1.322
				v0.152c0,0.325,0.195,0.498,0.586,0.498c1.02,0,2.06-0.064,3.122-0.173c1.345,0,2.017,0.325,2.017,0.976
				c-0.585,1.626-2.493,2.385-5.725,2.319c-2.559,0.195-4.357-0.043-5.42-0.736c-0.629-2.884-0.954-5.725-0.954-8.521
				c0-0.867,0.064-1.93,0.173-3.188c-0.108-0.391-0.238-1.279-0.347-2.688l0.174-1.887c-0.065-0.13-0.108-1.063-0.174-2.775
				l0.412-5.313c-0.108-0.347-0.151-0.585-0.151-0.737v-0.325c0-0.26,0.021-0.521,0.086-0.802c-0.064-0.369-0.108-0.629-0.173-0.737
				c0.064-0.455,0.087-0.846,0.087-1.149v-1.713c0-0.455,0.606-0.933,1.843-1.388c0.629,0,0.933-0.021,0.933-0.087
				C96.952,45.305,98.015,45.478,98.491,45.652z"/>
			<path fill="#48172D" d="M108.419,44.849c2.082,0,3.122,0.348,3.122,1.041c0.391,1.02,0.846,2.949,1.388,5.812
				c-0.064,0.759-0.086,1.409-0.086,1.907c0.521,1.063,0.976,3.123,1.388,6.158c0.064,1.54,0.173,2.928,0.347,4.163h0.087
				c0.455-2.537,0.693-4.531,0.693-5.984c0.238-1.149,0.629-3.751,1.215-7.806v-0.607c0-2.905,0.759-4.444,2.255-4.597
				c0.064-0.064,0.281-0.087,0.606-0.087h0.174c1.041,0,1.562,0.325,1.562,0.954v0.781c-0.304,1.496-0.542,2.342-0.694,2.515
				l0.087,0.434V50.4l-0.087,0.174c0.152,0,0.282,0.282,0.347,0.867v0.694c0,0.976-0.173,2.623-0.52,4.943v1.908
				c0,0.368-0.261,1.669-0.781,3.902l0.087,0.521v0.261c-0.217,1.843-0.412,2.905-0.607,3.209v0.173
				c0.108,0.824,0.174,1.279,0.174,1.388c-0.455,1.475-0.759,3.231-0.867,5.291c-0.325,1.453-0.737,2.342-1.215,2.688
				c-0.736,0.499-2.232,0.976-4.51,1.388h-0.173c-0.954,0-1.735-0.759-2.342-2.255c-0.607-0.759-0.976-1.887-1.128-3.383
				c-1.279-4.705-1.908-8.218-1.908-10.581c-0.195,0-0.434-2.754-0.693-8.239c-0.108,0-0.152-0.347-0.174-1.041v-1.475
				c0-0.434-0.087-1.148-0.26-2.168c0.064-0.716,0.086-1.149,0.086-1.301c-0.173-0.65-0.26-1.02-0.26-1.128
				c0-0.672,0.499-1.148,1.475-1.388H108.419z"/>
			<path fill="#48172D" d="M128.646,45.652c0.239-0.108,0.607-0.174,1.085-0.174c1.496,0.152,2.884,0.261,4.206,0.325
				c0.846,0.456,1.258,1.02,1.258,1.713c-0.759,1.54-2.277,2.299-4.532,2.299h-1.019l-0.412,0.087v-0.087l-0.174,0.087
				c-0.108-0.065-0.217-0.087-0.325-0.087c-0.173,0.434-0.26,0.846-0.26,1.214v0.174c0,0.434,0.021,0.997,0.087,1.713l-0.412,1.149
				c0.087,0.802,0.195,1.214,0.325,1.214s0.542-0.021,1.258-0.087c2.189,0.499,3.273,0.867,3.273,1.063
				c0.347,0.304,0.521,0.629,0.521,0.998c-0.368,0.867-1.063,1.301-2.104,1.301c-0.173,0-1.019,0.281-2.536,0.824h-0.325
				l0.086,0.151c0,0.151-0.021,0.238-0.086,0.238c0.064,0.65,0.086,1.106,0.086,1.388v1.236c0,0.368-0.064,1.214-0.173,2.537
				c0.064,0.434,0.173,0.823,0.347,1.148l-0.087,0.976v0.803c0,2.038,0.108,3.447,0.325,4.25c-0.064,0.563-0.087,0.997-0.087,1.322
				v0.152c0,0.325,0.195,0.498,0.586,0.498c1.019,0,2.06-0.064,3.122-0.173c1.345,0,2.017,0.325,2.017,0.976
				c-0.585,1.626-2.493,2.385-5.725,2.319c-2.558,0.195-4.357-0.043-5.42-0.736c-0.629-2.884-0.954-5.725-0.954-8.521
				c0-0.867,0.064-1.93,0.173-3.188c-0.108-0.391-0.238-1.279-0.347-2.688l0.174-1.887c-0.065-0.13-0.108-1.063-0.174-2.775
				l0.412-5.313c-0.108-0.347-0.151-0.585-0.151-0.737v-0.325c0-0.26,0.021-0.521,0.086-0.802c-0.064-0.369-0.108-0.629-0.173-0.737
				c0.064-0.455,0.087-0.846,0.087-1.149v-1.713c0-0.455,0.606-0.933,1.843-1.388c0.629,0,0.933-0.021,0.933-0.087
				C127.107,45.305,128.17,45.478,128.646,45.652z"/>
			<path fill="#48172D" d="M147.118,43.831c1.02,0.997,1.757,3.079,2.255,6.244c0.065,1.02,0.087,1.627,0.087,1.821
				c-0.455,4.511-0.867,6.766-1.214,6.766c0,0.217-0.434,0.91-1.301,2.081c-0.977,0.803-1.627,1.388-1.908,1.735l-0.087,0.173
				c1.496,1.713,2.429,3.253,2.775,4.597c0,0.369,0.434,1.366,1.301,2.949c0,0.217,0.542,1.93,1.648,5.117
				c0.108,0.455,0.173,0.954,0.173,1.475v0.26c0,0.803-0.281,1.279-0.867,1.475c-0.802,0.238-1.431,0.368-1.908,0.434
				c-1.279,0-2.168-0.78-2.688-2.342c-0.347-0.976-0.933-2.146-1.734-3.556c-0.325-1.41-0.694-2.472-1.128-3.209
				c-0.173-0.412-0.26-0.694-0.26-0.868h-0.087c0,0.239-0.065,0.846-0.174,1.822c0.022,0.693,0.087,1.04,0.174,1.04
				c-0.108,0.239-0.174,0.716-0.174,1.388v1.648c0,0.195-0.021,0.455-0.087,0.78c0.239,0.629,0.348,1.192,0.348,1.734
				c0,0.65-0.716,1.063-2.169,1.215c-1.301,0-2.06-0.261-2.255-0.781c-0.802-2.71-1.214-6.396-1.214-11.102l-0.434-5.03l0.173-1.561
				c-0.108-0.759-0.173-1.519-0.173-2.256V57.1c0-0.737,0.021-1.539,0.087-2.429c-0.065-0.238-0.087-0.455-0.087-0.693l0.173-1.041
				c-0.108-0.824-0.173-1.713-0.173-2.688c0.304-2.516,0.716-4.185,1.214-5.03c0.174,0,0.412-0.434,0.694-1.301
				c1.279-1.149,2.58-1.735,3.902-1.735c0.022,0,0.412-0.021,1.128-0.086C145.146,42.096,146.489,42.681,147.118,43.831z
				 M141.221,48.687c0,1.149,0.151,2.667,0.434,4.597v0.434c0,0.195-0.021,0.456-0.087,0.781c0.238,0.759,0.347,1.8,0.347,3.122
				l0.087,0.347c1.323-1.148,1.995-3.469,1.995-6.938c0-2.971-0.607-4.986-1.821-6.071h-0.087c-0.499,0-0.78,1.106-0.867,3.296
				V48.687z M142.088,68.722v0.174h0.087v-0.174H142.088z"/>
		</g>
		<g>
			<g>
				<path fill="#5CAA9B" d="M140.911,95.709l-0.455-1.073c19.463-8.232,32.039-27.205,32.039-48.336
					c0-14.935-6.395-29.206-17.545-39.155l0.775-0.87c11.398,10.17,17.936,24.759,17.936,40.025
					C173.661,67.9,160.806,87.294,140.911,95.709z"/>
			</g>
			<g>
				<path fill="#6BC6B5" d="M162.854,9.892c2.503,2.905,3.396,6.56,2.658,9.604c-3.121,0.28-6.602-1.145-9.105-4.05
					c-2.503-2.906-3.396-6.559-2.658-9.604C156.869,5.562,160.35,6.987,162.854,9.892z"/>
				<path fill="#5CAA9B" d="M156.406,15.446c-2.503-2.906-3.396-6.559-2.658-9.604l11.764,13.653
					C162.391,19.776,158.91,18.351,156.406,15.446z"/>
			</g>
			<g>
				<path fill="#6BC6B5" d="M155.626,82.433c-0.382,2.611-2.024,4.702-4.155,5.66c-1.771-1.528-2.744-4.002-2.362-6.614
					c0.382-2.611,2.024-4.703,4.156-5.66C155.033,77.346,156.01,79.821,155.626,82.433z"/>
				<path fill="#5CAA9B" d="M149.108,81.479c0.382-2.611,2.024-4.703,4.156-5.66l-1.794,12.274
					C149.699,86.565,148.727,84.091,149.108,81.479z"/>
			</g>
			<g>
				<path fill="#6BC6B5" d="M160.538,91.851c-3.136,0.011-5.882-1.554-7.381-3.892c1.485-2.349,4.222-3.927,7.358-3.936
					c3.137-0.01,5.884,1.554,7.383,3.892C166.412,90.263,163.676,91.843,160.538,91.851z"/>
				<path fill="#5CAA9B" d="M160.516,84.024c3.137-0.01,5.884,1.554,7.383,3.892l-14.741,0.044
					C154.643,85.611,157.379,84.033,160.516,84.024z"/>
			</g>
			<g>
				<path fill="#6BC6B5" d="M166.911,28.173c3.554,2.849,5.392,6.919,5.192,10.633c-3.582,1.006-7.957,0.099-11.509-2.747
					c-3.556-2.848-5.393-6.919-5.192-10.633C158.984,24.42,163.357,25.327,166.911,28.173z"/>
				<path fill="#5CAA9B" d="M160.595,36.059c-3.556-2.848-5.393-6.919-5.192-10.633l16.701,13.38
					C168.521,39.812,164.146,38.905,160.595,36.059z"/>
			</g>
			<g>
				<path fill="#6BC6B5" d="M178.664,21.232c-1.398,4.334-4.55,7.498-8.092,8.632c-2.213-2.989-2.922-7.4-1.524-11.733
					c1.399-4.334,4.55-7.499,8.093-8.632C179.354,12.488,180.061,16.898,178.664,21.232z"/>
				<path fill="#5CAA9B" d="M169.048,18.13c1.399-4.334,4.55-7.499,8.093-8.632l-6.568,20.365
					C168.359,26.875,167.65,22.463,169.048,18.13z"/>
			</g>
			<g>
				<path fill="#6BC6B5" d="M185.521,39.957c-3.188,4.039-7.773,6.148-11.971,5.952c-1.166-4.037-0.178-8.987,3.01-13.025
					c3.188-4.037,7.773-6.147,11.971-5.951C189.695,30.97,188.709,35.919,185.521,39.957z"/>
				<path fill="#5CAA9B" d="M176.561,32.883c3.188-4.037,7.773-6.147,11.971-5.951l-14.98,18.977
					C172.385,41.872,173.373,36.921,176.561,32.883z"/>
			</g>
			<g>
				<path fill="#6BC6B5" d="M182.445,61.414c-3.524,2.546-7.854,3.041-11.393,1.674c-0.185-3.788,1.648-7.742,5.174-10.288
					c3.525-2.545,7.854-3.042,11.393-1.675C187.803,54.915,185.971,58.868,182.445,61.414z"/>
				<path fill="#5CAA9B" d="M176.227,52.799c3.525-2.545,7.854-3.042,11.393-1.675l-16.566,11.963
					C170.868,59.299,172.701,55.345,176.227,52.799z"/>
			</g>
			<g>
				<path fill="#6BC6B5" d="M173.714,81.667c-4.2,1.123-8.423,0.044-11.243-2.492c1.178-3.606,4.299-6.649,8.5-7.771
					c4.199-1.122,8.422-0.045,11.241,2.492C181.035,77.502,177.914,80.544,173.714,81.667z"/>
				<path fill="#5CAA9B" d="M170.971,71.404c4.199-1.122,8.422-0.045,11.241,2.492l-19.741,5.279
					C163.648,75.569,166.77,72.526,170.971,71.404z"/>
			</g>
			<g>
				<path fill="#6BC6B5" d="M170.442,49.667c1.95,4.266,1.757,8.863-0.147,12.189c-3.762-0.734-7.367-3.594-9.318-7.859
					c-1.951-4.267-1.758-8.864,0.146-12.189C164.885,42.542,168.491,45.401,170.442,49.667z"/>
				<path fill="#5CAA9B" d="M160.977,53.997c-1.951-4.267-1.758-8.864,0.146-12.189l9.172,20.049
					C166.533,61.122,162.928,58.262,160.977,53.997z"/>
			</g>
			<g>
				<path fill="#6BC6B5" d="M164.67,69.183c0.402,3.787-0.932,7.276-3.254,9.347c-2.707-1.534-4.746-4.665-5.148-8.452
					c-0.404-3.787,0.93-7.276,3.253-9.346C162.229,62.266,164.267,65.397,164.67,69.183z"/>
				<path fill="#5CAA9B" d="M156.268,70.078c-0.404-3.787,0.93-7.276,3.253-9.346l1.896,17.798
					C158.709,76.996,156.67,73.865,156.268,70.078z"/>
			</g>
		</g>
		<g>
			<g>
				<path fill="#5CAA9B" d="M53.907,95.709C34.012,87.294,21.156,67.9,21.156,46.299c0-15.265,6.537-29.854,17.936-40.025
					l0.775,0.87c-11.15,9.95-17.545,24.221-17.545,39.155c0,21.131,12.576,40.104,32.04,48.336L53.907,95.709z"/>
			</g>
			<g>
				<path fill="#6BC6B5" d="M31.965,9.892c-2.502,2.905-3.396,6.56-2.658,9.604c3.119,0.28,6.602-1.145,9.105-4.05
					c2.502-2.906,3.396-6.559,2.658-9.604C37.95,5.562,34.468,6.987,31.965,9.892z"/>
				<path fill="#5CAA9B" d="M38.412,15.446c2.502-2.906,3.396-6.559,2.658-9.604L29.307,19.496
					C32.426,19.776,35.908,18.351,38.412,15.446z"/>
			</g>
			<g>
				<path fill="#6BC6B5" d="M39.191,82.433c0.383,2.611,2.025,4.702,4.158,5.66c1.769-1.528,2.742-4.002,2.359-6.614
					c-0.381-2.611-2.023-4.703-4.155-5.66C39.784,77.346,38.81,79.821,39.191,82.433z"/>
				<path fill="#5CAA9B" d="M45.709,81.479c-0.381-2.611-2.023-4.703-4.155-5.66l1.796,12.274
					C45.118,86.565,46.092,84.091,45.709,81.479z"/>
			</g>
			<g>
				<path fill="#6BC6B5" d="M34.279,91.851c3.137,0.011,5.883-1.554,7.381-3.892c-1.485-2.349-4.221-3.927-7.357-3.936
					c-3.137-0.01-5.883,1.554-7.382,3.892C28.406,90.263,31.143,91.843,34.279,91.851z"/>
				<path fill="#5CAA9B" d="M34.303,84.024c-3.137-0.01-5.883,1.554-7.382,3.892l14.739,0.044
					C40.175,85.611,37.439,84.033,34.303,84.024z"/>
			</g>
			<g>
				<path fill="#6BC6B5" d="M27.906,28.173c-3.553,2.849-5.391,6.919-5.19,10.633c3.581,1.006,7.955,0.099,11.509-2.747
					c3.553-2.848,5.391-6.919,5.191-10.633C35.834,24.42,31.461,25.327,27.906,28.173z"/>
				<path fill="#5CAA9B" d="M34.225,36.059c3.553-2.848,5.391-6.919,5.191-10.633l-16.7,13.38
					C26.297,39.812,30.671,38.905,34.225,36.059z"/>
			</g>
			<g>
				<path fill="#6BC6B5" d="M16.154,21.232c1.398,4.334,4.55,7.498,8.092,8.632c2.213-2.989,2.922-7.4,1.523-11.733
					c-1.396-4.334-4.549-7.499-8.091-8.632C15.465,12.488,14.757,16.898,16.154,21.232z"/>
				<path fill="#5CAA9B" d="M25.77,18.13c-1.396-4.334-4.549-7.499-8.091-8.632l6.567,20.365
					C26.459,26.875,27.168,22.463,25.77,18.13z"/>
			</g>
			<g>
				<path fill="#6BC6B5" d="M9.298,39.957c3.188,4.039,7.772,6.148,11.97,5.952c1.166-4.037,0.177-8.987-3.011-13.025
					c-3.187-4.037-7.772-6.147-11.97-5.951C5.122,30.97,6.109,35.919,9.298,39.957z"/>
				<path fill="#5CAA9B" d="M18.257,32.883c-3.187-4.037-7.772-6.147-11.97-5.951l14.98,18.977
					C22.434,41.872,21.444,36.921,18.257,32.883z"/>
			</g>
			<g>
				<path fill="#6BC6B5" d="M12.373,61.414c3.523,2.546,7.854,3.041,11.393,1.674c0.184-3.788-1.648-7.742-5.174-10.288
					c-3.525-2.545-7.855-3.042-11.393-1.675C7.015,54.915,8.848,58.868,12.373,61.414z"/>
				<path fill="#5CAA9B" d="M18.592,52.799c-3.525-2.545-7.855-3.042-11.393-1.675l16.566,11.963
					C23.949,59.299,22.117,55.345,18.592,52.799z"/>
			</g>
			<g>
				<path fill="#6BC6B5" d="M21.104,81.667c4.201,1.123,8.424,0.044,11.244-2.492c-1.178-3.606-4.299-6.649-8.498-7.771
					c-4.202-1.122-8.424-0.045-11.243,2.492C13.783,77.502,16.904,80.544,21.104,81.667z"/>
				<path fill="#5CAA9B" d="M23.85,71.404c-4.202-1.122-8.424-0.045-11.243,2.492l19.741,5.279
					C31.17,75.569,28.049,72.526,23.85,71.404z"/>
			</g>
			<g>
				<path fill="#6BC6B5" d="M24.376,49.667c-1.951,4.266-1.757,8.863,0.146,12.189c3.762-0.734,7.367-3.594,9.319-7.859
					c1.951-4.267,1.758-8.864-0.146-12.189C29.934,42.542,26.328,45.401,24.376,49.667z"/>
				<path fill="#5CAA9B" d="M33.842,53.997c1.951-4.267,1.758-8.864-0.146-12.189l-9.173,20.049
					C28.284,61.122,31.89,58.262,33.842,53.997z"/>
			</g>
			<g>
				<path fill="#6BC6B5" d="M30.148,69.183c-0.402,3.787,0.932,7.276,3.254,9.347c2.707-1.534,4.746-4.665,5.148-8.452
					c0.404-3.787-0.931-7.276-3.254-9.346C32.59,62.266,30.551,65.397,30.148,69.183z"/>
				<path fill="#5CAA9B" d="M38.551,70.078c0.404-3.787-0.931-7.276-3.254-9.346L33.402,78.53
					C36.109,76.996,38.148,73.865,38.551,70.078z"/>
			</g>
		</g>
	</g>
</g>
</svg>
