<?xml version="1.0" encoding="utf-8"?>
<!-- Generator: Adobe Illustrator 16.0.0, SVG Export Plug-In . SVG Version: 6.00 Build 0)  -->
<!DOCTYPE svg PUBLIC "-//W3C//DTD SVG 1.1//EN" "http://www.w3.org/Graphics/SVG/1.1/DTD/svg11.dtd">
<svg version="1.1" id="Layer_1" xmlns="http://www.w3.org/2000/svg" xmlns:xlink="http://www.w3.org/1999/xlink" x="0px" y="0px"
	 width="108.895px" height="141.905px" viewBox="0 0 108.895 141.905" enable-background="new 0 0 108.895 141.905"
	 xml:space="preserve">
<g>
	<path fill="#FFFFFF" d="M30.518,21.937c0.617-3.551-1.379-9.646-1.633-13.247c-0.379-5.38,1.056-5.095,6.373-6.904
		c9.051-3.081,14.375-2.334,22.226,3.501c3.468,2.576,5.054,6.638,9.124,8.849c3.604,1.957,10.041,1.783,14.967,0.22
		c1.427-3.66,4.721-10.487,8.635-11.815c5.947-2.019,10.323,1.211,13.498,4.789c8.257,9.305,4.455,19.848,3.349,31.348
		c-0.666,6.918-0.506,10.303-5.212,15.636c-1.735,1.968-5.217,3.763-5.266,6.142c-0.092,4.501,3.742,1.957,6.029,2.098
		c6.717,0.411,7.459,5.799,4.877,11.253c-2.48,5.241-4.813,5.956-9.891,7.247c-7.151,1.818-7.062,4.601-4.598,10.713
		c2.275,5.645,2.714,10.072,0.248,15.524c-0.832,1.837-3.945,5.112-4.197,6.638c-0.535,3.237,2.443,6.124,4.043,8.638
		c4.213,6.622,1.068,11.178-5.856,13.977c-11.151,4.508-21.683,3.062-33.213,2.485c-5.967-0.299-11.304,0.145-16.75,1.555
		c-7.249,1.876-14.823,3.077-16.675-5.895c-1.411-6.836,2.461-7.201,6.23-10.389c3.439-2.907,3.184-8.463,0.541-12.421
		c-0.951-1.425-3.78-1.933-4.67-3.937c-0.849-1.912,0.009-5.377-0.092-7.476c-0.171-3.586,0.977-13.974-2-16.448
		c-3.416-2.842-7.873,1.786-12.01,1.535c-6.454-0.392-8.116-4.44-8.488-10.875c-0.309-5.341,0.005-10.343,1.501-15.219
		c2.019-6.578,4.192-7.104,10.412-8.104c3.521-4.084-3.437-6.42-4.7-10.024c-1.109-3.162,0.352-9.053,2.787-11.277
		C10.107,30.051,29.354,28.63,30.518,21.937z"/>
	<path fill="#7CCDCD" d="M28.747,135.527c2.283,1.64,7.853,1.059,10.863,1.054c5.813-0.007,11.68,0.192,17.386,0.762
		c11.314,1.129,19.24,0.457,28.672-3.884c6.479-2.982,5.214-4.453-1.511-6.347c-6.937-1.953-13.786-3.356-21.388-2.545
		c-6.537,0.698-11.384,3.085-18.24,2.645C18.322,125.527,26.858,134.17,28.747,135.527z"/>
	<g>
		<g>
			<path fill="#7CCDCD" d="M11.732,35.168c11.836,16.396,17.83,39.159,20.989,59.447c1.171,7.519-0.851,20.562,6.054,25.957
				c5.934,4.636,24.07,0.46,31.158-0.798c10.544-1.869,16.696-1.144,19.598-12.01c2.248-8.423-2.669-18.932-4.237-28.411
				c-2.821-17.05-6.816-40.451-1.65-56.301c-12.226,0.563-21.692,4.875-34.124,8.881c-7.61,2.453-26.743,3.107-35.946,2.329
				C13.221,34.232,11.732,35.168,11.732,35.168z"/>
			<path fill="#231F20" d="M48.145,123.456c-4.641,0-7.857-0.75-9.832-2.293c-5.322-4.159-5.604-12.313-5.854-19.509
				c-0.088-2.543-0.171-4.945-0.479-6.924c-3.982-25.577-11-45.469-20.856-59.124l-0.468-0.648l0.677-0.425
				c1.624-1.021,2.074-1.021,2.222-1.021c2.459,0.204,5.523,0.311,8.942,0.311c9.316,0,21.213-0.805,26.792-2.603
				c2.735-0.881,5.331-1.779,7.841-2.647c9.037-3.125,16.842-5.825,26.478-6.269l1.084-0.05l-0.336,1.032
				c-5.03,15.435-1.229,38.397,1.548,55.164l0.129,0.782c0.492,2.973,1.337,6.123,2.154,9.168
				c1.796,6.694,3.654,13.616,2.068,19.559c-2.629,9.847-7.991,10.662-16.106,11.897c-1.281,0.194-2.642,0.401-4.085,0.657
				c-0.789,0.14-1.714,0.316-2.745,0.513C62.233,121.993,54.546,123.456,48.145,123.456z M12.817,35.397
				C22.563,49.22,29.507,69.1,33.463,94.5c0.322,2.067,0.407,4.513,0.496,7.103c0.238,6.867,0.507,14.65,5.278,18.379
				c1.677,1.311,4.674,1.975,8.908,1.975c6.26,0,13.863-1.447,18.894-2.404c1.038-0.197,1.97-0.375,2.764-0.516
				c1.456-0.259,2.829-0.467,4.121-0.664c8.065-1.227,12.507-1.902,14.883-10.801c1.482-5.555-0.322-12.28-2.067-18.783
				c-0.827-3.081-1.681-6.267-2.185-9.312l-0.129-0.782c-2.741-16.55-6.472-39.085-1.817-54.833
				c-8.939,0.579-16.4,3.159-24.986,6.128c-2.518,0.871-5.121,1.771-7.872,2.658c-5.733,1.848-17.818,2.675-27.252,2.675
				c-3.422,0-6.5-0.106-8.908-0.306C13.449,35.063,13.154,35.209,12.817,35.397z"/>
		</g>
		<path fill="#FAAF40" d="M50.555,51.742c9.636-1.221,18.536-4.896,27.153-8.256c0.084,13.434,2.833,27.369,3.973,41.388
			c2.292,19.883,3.577,25.205-12.132,28.751c-6.836,2.908-22.078,2.611-25.069,1.457c-8.354-3.22-7.048-13.992-8.009-21.821
			c-1.28-10.425-7.423-32.698-12.435-39.735C24.036,53.525,42.205,52.801,50.555,51.742z"/>
		<path fill="#5AB1AF" d="M68.188,21.534c7.247-0.3,19.822-5.764,15.455,1.519c-4.856,8.098-66.631,17.438-71.911,12.115
			c-0.248-1.264,0.25-2.221,1.493-2.875C13.226,32.293,61.525,21.811,68.188,21.534z"/>
		<path fill="#F6921E" d="M80.365,104.265c-2.95-2.376-8.807,1.963-17.688,2.676c-7.4,0.593-22.174,0.347-19.985,4.123
			C45.819,118.428,86.843,112.272,80.365,104.265z"/>
		<path fill="#5AB1AF" d="M26.286,51.359c0,0,49.74-9.965,51.348-7.731c1.607,2.235-39.727,14.402-52.682,10.563
			C22.257,53.393,26.286,51.359,26.286,51.359z"/>
		<g>
			<path fill="#FFFFFF" d="M72.556,29.59c0,0-0.667,1.937,0.751,2.045c1.421,0.11,1.805-1.344,0.979-1.916
				C73.458,29.145,72.556,29.59,72.556,29.59z"/>
			<path fill="#FFFFFF" d="M76.429,34.957c0,0,0.838,1.989,1.052,0.503c0.214-1.487-0.405-2.425-1.169-1.771
				C75.547,34.346,76.429,34.957,76.429,34.957z"/>
			<path fill="#FFFFFF" d="M76.214,27.481c0,0-0.567,1.631,1.013,1.53c1.578-0.1,1.728-3.19,0.844-2.757
				C77.188,26.69,76.214,27.481,76.214,27.481z"/>
			<path fill="#FFFFFF" d="M71.962,26.702c0,0-0.65-1.663,0.871-1.622c1.523,0.041,1.278,0.8,0.825,1.251
				C73.206,26.777,71.962,26.702,71.962,26.702z"/>
			<g>
				<path fill="#FFFFFF" d="M65.072,37.689c0,0-0.868,2.208,0.895,1.759c1.763-0.452,3.93-2.219,2.73-2.979
					C67.501,35.707,65.072,37.689,65.072,37.689z"/>
				<path fill="#FFFFFF" d="M73.591,36.771c-0.631,0.325,0.253,2.879,1.559,2.363c1.305-0.516,1.145-3.373,0.138-2.571
					C74.278,37.363,73.97,36.577,73.591,36.771z"/>
				<path fill="#FFFFFF" d="M80.381,32.284c0,0-1.362,1.757,0.1,1.858C81.941,34.245,80.814,31.562,80.381,32.284z"/>
				<path fill="#FFFFFF" d="M76.158,30.22c0,0-1.224,1.624,0.13,1.75C77.639,32.095,77.353,30.068,76.158,30.22z"/>
			</g>
			<g>
				<path fill="#FFFFFF" d="M59.836,31.591c0,0-0.373,1.878,0.951,1.718c1.323-0.16,2.779-1.458,1.73-2.317
					C61.468,30.133,59.836,31.591,59.836,31.591z"/>
				<path fill="#FFFFFF" d="M59.895,35.443c0,0-1.363,1.756,0.098,1.856C61.454,37.403,60.326,34.721,59.895,35.443z"/>
				<path fill="#FFFFFF" d="M66.924,26.759c0,0-1.223,1.626,0.131,1.75C68.403,28.634,68.119,26.607,66.924,26.759z"/>
			</g>
		</g>
		<g>
			<path fill="#FFFFFF" d="M43.224,36.001c0,0-0.445,2.563,1.354,2.413c1.803-0.148,1.992-2.049,0.841-2.601
				C44.264,35.261,43.224,36.001,43.224,36.001z"/>
			<path fill="#FFFFFF" d="M48.783,37.22c0,0,1.451,2.324,1.419,0.419c-0.031-1.909-0.998-2.96-1.823-1.984
				C47.553,36.63,48.783,37.22,48.783,37.22z"/>
			<path fill="#FFFFFF" d="M32.446,37.998c0,0-0.383,2.16,1.578,1.718c1.96-0.447,1.524-4.353,0.503-3.631
				C33.51,36.812,32.446,37.998,32.446,37.998z"/>
			<path fill="#FFFFFF" d="M21.996,39.45c0,0-1.148-1.955,0.766-2.209c1.921-0.258,1.766,0.745,1.288,1.401
				C23.572,39.294,21.996,39.45,21.996,39.45z"/>
			<g>
				<path fill="#FFFFFF" d="M35.094,42.938c0,0-0.646,2.942,1.476,2.022c2.12-0.921,4.479-3.574,2.824-4.285
					C37.738,39.96,35.094,42.938,35.094,42.938z"/>
				<path fill="#FFFFFF" d="M45.589,40.066c-0.725,0.534,0.899,3.558,2.432,2.648c1.531-0.908,0.755-4.46-0.346-3.253
					C46.572,40.67,46.026,39.747,45.589,40.066z"/>
				<path fill="#FFFFFF" d="M53.199,33.072c0,0-1.354,2.478,0.499,2.31C55.552,35.216,53.597,32.077,53.199,33.072z"/>
				<path fill="#FFFFFF" d="M47.487,31.334c0,0-1.205,2.281,0.516,2.168C49.723,33.387,48.955,30.903,47.487,31.334z"/>
			</g>
			<g>
				<path fill="#FFFFFF" d="M24.355,41.399c0,0-0.089,2.431,1.539,1.964c1.627-0.469,3.191-2.39,1.702-3.254
					C26.106,39.241,24.355,41.399,24.355,41.399z"/>
				<path fill="#FFFFFF" d="M25.205,46.221c0,0-1.354,2.476,0.498,2.308C27.557,48.362,25.601,45.225,25.205,46.221z"/>
				<path fill="#FFFFFF" d="M32.269,33.913c0,0-1.205,2.282,0.516,2.168C34.503,35.965,33.738,33.481,32.269,33.913z"/>
			</g>
		</g>
		<g>
			<path fill="#468885" d="M31.409,7.688c0,0,42.799,39.343,35.301,48.726c3.026-1.763,7.021-3.761,8.257-7.128
				c5.17-7.623-12.43-45.118-32.378-47.018C35.613,3.694,31.409,7.688,31.409,7.688z"/>
			<path fill="#5AB1AF" d="M43.044,32.581c7.744,12.636,17.815,26.406,23.666,23.833c10.456-4.602-13.96-42.285-29.37-48.8
				C20.442,1.778,41.313,31.348,43.044,32.581z"/>
			<g>
				<path fill="#7CCDCD" d="M43.332,27.406c0,0-12.381-16.365-11.407-18.077c0.974-1.702,11.942,2.656,13.215,7.5
					C46.409,21.673,44.452,28.906,43.332,27.406z"/>
				<path fill="#7CCDCD" d="M50.989,41.413c0,0,10.63,16.333,13.001,13.894c2.375-2.439-0.008-15.559-3.537-16.113
					C56.921,38.635,49.925,39.817,50.989,41.413z"/>
				<path fill="#7CCDCD" d="M47.069,35.123c0,0-1.615-14.526,1.167-13.215c2.785,1.313,9.926,10.527,8.713,12.58
					C55.738,36.543,47.254,37.078,47.069,35.123z"/>
			</g>
			<g>
				<path fill="#5AB1AF" d="M58.32,49.005c1.319-0.17,4.418,1.938,3.401,3.214C60.722,52.543,58.6,49.956,58.32,49.005z"/>
				<path fill="#5AB1AF" d="M57.566,44.737c0.888,0.867,3.644,5.3,4.8,3.95C63.747,47.092,57.566,44.737,57.566,44.737z"/>
				<path fill="#5AB1AF" d="M61.571,44.411c-1.955-1.827-4.167-2.322-6.169-2.115C55.402,42.296,61.765,47.344,61.571,44.411z"/>
			</g>
			<g>
				<path fill="#5AB1AF" d="M36.002,16.455c0.582-1.192-0.432-4.806-1.963-4.244C33.409,13.058,35.189,15.89,36.002,16.455z"/>
				<path fill="#5AB1AF" d="M39.815,18.524c-0.542-1.113-3.875-5.139-2.224-5.807C39.538,11.919,39.815,18.524,39.815,18.524z"/>
				<path fill="#5AB1AF" d="M41.394,14.83c1.115,2.433,0.877,4.688,0.047,6.523C41.44,21.354,38.676,13.72,41.394,14.83z"/>
			</g>
			<g>
				<path fill="#5AB1AF" d="M48.077,28.117c1.207-0.543,2.75-3.961,1.213-4.514C48.266,23.847,47.813,27.163,48.077,28.117z"/>
				<path fill="#5AB1AF" d="M50.162,32.974c0.79-0.502,4.956-1.904,3.553-2.802C52.067,29.104,50.162,32.974,50.162,32.974z"/>
				<path fill="#5AB1AF" d="M52.063,26.981c-0.474,2.021-1.918,3.156-3.596,3.715C48.467,30.696,50.521,24.78,52.063,26.981z"/>
			</g>
		</g>
		<g>
			<path fill="#F6921E" d="M92.718,6.49c0,0,4.822,44.36-4.252,45.988c2.64,0.512,5.957,1.377,8.374,0.059
				c6.84-1.788,15.635-32.342,5.073-43.525C97.165,6.309,92.718,6.49,92.718,6.49z"/>
			<path fill="#FAAF40" d="M86.851,26.749c-1.918,11.213-3.063,24.257,1.615,25.729C96.832,55.106,101.785,21,96.181,9.444
				C89.372-2.469,86.475,25.161,86.851,26.749z"/>
			<g>
				<path fill="#F6921E" d="M89.634,23.905c0,0,1.124-15.711,2.552-16.207c1.423-0.49,5.554,7.573,3.839,11.013
					C94.309,22.151,89.521,25.338,89.634,23.905z"/>
				<path fill="#F6921E" d="M86.973,35.866c0,0-2.119,14.808,0.483,14.597c2.605-0.207,7.862-8.989,6.104-11.094
					C91.802,37.262,87.165,34.406,86.973,35.866z"/>
				<path fill="#F6921E" d="M87.89,30.251c0,0,6.412-9.205,7.355-7.041c0.944,2.166,0.409,11.099-1.328,11.671
					C92.178,35.456,87.007,31.474,87.89,30.251z"/>
			</g>
			<g>
				<path fill="#FAAF40" d="M87.368,43.957c0.848,0.568,1.571,3.354,0.339,3.576C86.967,47.214,87.048,44.647,87.368,43.957z"/>
				<path fill="#FAAF40" d="M89.09,41.111c0.075,0.949-0.576,4.902,0.774,4.708C91.469,45.597,89.09,41.111,89.09,41.111z"/>
				<path fill="#FAAF40" d="M91.567,42.948c-0.204-2.045-1.231-3.448-2.492-4.342C89.075,38.606,90.197,44.738,91.567,42.948z"/>
			</g>
			<g>
				<path fill="#FAAF40" d="M90.937,13.876c0.94-0.396,2.182-2.994,1.014-3.444C91.157,10.603,90.754,13.138,90.937,13.876z"/>
				<path fill="#FAAF40" d="M92.094,16.999c0.25-0.917,0.359-4.928,1.65-4.479C95.272,13.043,92.094,16.999,92.094,16.999z"/>
				<path fill="#FAAF40" d="M94.873,15.662c-0.587,1.969-1.864,3.15-3.271,3.792C91.602,19.454,93.863,13.647,94.873,15.662z"/>
			</g>
			<g>
				<path fill="#FAAF40" d="M92.014,26.716c0.972,0.296,3.592-0.897,2.983-1.993C94.282,24.345,92.344,26.032,92.014,26.716z"/>
				<path fill="#FAAF40" d="M90.764,30.573c0.709,0.11,3.824,1.407,3.469,0.179C93.819,29.304,90.764,30.573,90.764,30.573z"/>
				<path fill="#FAAF40" d="M94.891,28.075c-1.297,0.927-2.704,0.853-3.957,0.325C90.934,28.4,95.111,26.022,94.891,28.075z"/>
			</g>
		</g>
		<g>
			<path fill="#FFFFFF" d="M48.188,44.311c0,0,1.295,2.254-0.446,2.73c-1.745,0.476-2.573-1.244-1.68-2.157
				C46.957,43.97,48.188,44.311,48.188,44.311z"/>
			<path fill="#FFFFFF" d="M43.381,47.357c0,0-0.569,2.681-1.19,0.878c-0.624-1.804-0.075-3.122,1.034-2.489
				C44.335,46.382,43.381,47.357,43.381,47.357z"/>
			<path fill="#FFFFFF" d="M37.338,38.423c0,0-1.72-0.677-0.537-1.889c1.184-1.211,3.796,0.822,2.828,1.237
				C38.659,38.183,37.338,38.423,37.338,38.423z"/>
			<path fill="#FFFFFF" d="M31.692,45.287c0,0,0.898,1.686,1.925,0.424c1.029-1.267,0.242-1.596-0.439-1.542
				C32.5,44.226,31.692,45.287,31.692,45.287z"/>
			<g>
				<path fill="#FFFFFF" d="M52.596,49.048c0,0,0.829,1.465-0.634,1.56c-1.465,0.096-3.328-0.71-2.392-1.587
					C50.507,48.142,52.596,49.048,52.596,49.048z"/>
				<path fill="#FFFFFF" d="M47.355,48.939c0.864,0.254,0.372,3.649-1.379,3.318c-1.75-0.329-2.235-3.931-0.788-3.173
					C46.639,49.843,46.835,48.788,47.355,48.939z"/>
				<path fill="#FFFFFF" d="M37.813,44.969c0,0,2.119,1.865,0.32,2.341C36.334,47.787,37.099,44.17,37.813,44.969z"/>
				<path fill="#FFFFFF" d="M42.585,41.382c0,0,1.913,1.732,0.257,2.215C41.187,44.075,41.059,41.479,42.585,41.382z"/>
			</g>
			<g>
				<path fill="#FFFFFF" d="M31.333,42.735c0,0-1.785-1.006-0.732-1.971c1.053-0.962,3.121-1.239,3.086,0.212
					C33.653,42.429,31.333,42.735,31.333,42.735z"/>
				<path fill="#FFFFFF" d="M28.245,40.001c0,0-2.374-0.117-1.438-1.374C27.742,37.37,29.135,40.156,28.245,40.001z"/>
				<path fill="#FFFFFF" d="M40.193,40.352c0,0-2.17-0.142-1.329-1.327C39.704,37.842,41.15,39.485,40.193,40.352z"/>
			</g>
		</g>
	</g>
	<g>
		<path fill="#231F20" d="M33.906,84.709l0.131,0.131c0.116-0.028,0.291-0.044,0.524-0.044c0.232,0,0.568,0.073,1.005,0.219
			c0.437,0.146,0.786,0.219,1.048,0.219c0.029,0.029,0.072,0.059,0.131,0.087l0.044,0.044c0.088,0,0.16-0.015,0.219-0.044
			c0.028,0.029,0.363,0.204,1.005,0.524c0.058,0,0.102-0.008,0.131-0.021c0.028-0.016,0.058-0.022,0.087-0.022
			c0.059,0.029,0.138,0.081,0.24,0.153c0.102,0.072,0.182,0.109,0.24,0.109c0,0.029,0.015,0.059,0.044,0.087
			c0.028,0.029,0.044,0.059,0.044,0.087c0.465,0.32,0.786,0.655,0.961,1.005c0.028,0.059,0.079,0.103,0.152,0.131
			c0.072,0.029,0.109,0.059,0.109,0.087c0,0.029,0.007,0.074,0.021,0.131c0.015,0.06,0.022,0.117,0.022,0.176
			c0.437,0.35,0.655,0.67,0.655,0.961l-0.044,0.174c0.028,0.059,0.072,0.088,0.131,0.088l0.131,0.043
			c0.059,0.088,0.102,0.219,0.131,0.394s0.059,0.277,0.088,0.306v0.438c0,0.029,0.021,0.051,0.065,0.064
			c0.044,0.016,0.08,0.052,0.109,0.109v0.131c0,0.263-0.016,0.423-0.044,0.48c0.028,0.029,0.044,0.176,0.044,0.438
			c0,0.088,0.021,0.189,0.065,0.306s0.065,0.218,0.065,0.306s-0.015,0.16-0.044,0.219c0,0.059,0.029,0.095,0.088,0.109
			c0.058,0.015,0.087,0.037,0.087,0.064c0.028,0.205,0.044,0.496,0.044,0.874c0,0.292-0.016,0.51-0.044,0.655h-0.175l0.394,0.655
			c0.028,0.059,0.014,0.103-0.044,0.131c-0.029,0.059-0.044,0.103-0.044,0.132c0.059,0.203,0.059,0.363,0,0.48
			c0.059,0.116,0.088,0.32,0.088,0.611c0,0.262-0.016,0.465-0.044,0.611c0.028,0.087,0.087,0.146,0.175,0.174
			c-0.029,0.029-0.044,0.074-0.044,0.131c0,0.234-0.015,0.365-0.044,0.394c0.029,0.06,0.044,0.132,0.044,0.219l-0.044,0.437
			c0.059,0.175,0.088,0.306,0.088,0.393l-0.044,0.088c-0.029,0.059-0.059,0.117-0.087,0.175c0,0.233-0.029,0.364-0.088,0.394
			c0.029,0.059,0.044,0.146,0.044,0.262c0,0.117-0.021,0.262-0.065,0.437s-0.065,0.306-0.065,0.394c0,0.146,0.014,0.248,0.044,0.306
			c-0.06,0.262-0.088,0.407-0.088,0.437s-0.073,0.117-0.219,0.262c0.029,0.029,0.044,0.088,0.044,0.176
			c0,0.059-0.029,0.138-0.087,0.24c-0.059,0.102-0.088,0.167-0.088,0.195v0.131c0,0.438-0.131,0.715-0.393,0.83l0.043,0.088
			c0,0.029,0,0.059,0,0.088c0,0.203-0.131,0.363-0.393,0.48c0,0.059-0.008,0.123-0.021,0.195c-0.016,0.074-0.008,0.125,0.021,0.153
			c-0.175,0.233-0.277,0.437-0.306,0.612c-0.175,0.087-0.263,0.218-0.263,0.393c-0.174,0.175-0.291,0.32-0.349,0.437
			c-0.554,0.233-0.918,0.524-1.092,0.874c-0.03,0-0.103,0.029-0.219,0.087c-0.088,0.146-0.291,0.298-0.611,0.459
			c-0.321,0.159-0.524,0.284-0.611,0.371c-0.029,0.028-0.06,0.044-0.088,0.044c-0.029,0-0.059,0-0.087,0
			c-0.059,0.087-0.161,0.159-0.306,0.219c-0.146,0.057-0.248,0.115-0.306,0.174h-0.175c-0.117,0-0.256,0.029-0.415,0.088
			c-0.161,0.058-0.284,0.087-0.371,0.087c-0.06,0-0.197,0.022-0.415,0.065c-0.219,0.044-0.415,0.066-0.59,0.066h-0.044
			c-0.059-0.03-0.103-0.045-0.131-0.045h-0.306c-0.292,0-0.51-0.059-0.655-0.174h-0.087c-0.117,0-0.292-0.059-0.524-0.176
			c-0.583-0.174-0.99-0.363-1.224-0.566c-0.495-0.117-0.829-0.277-1.004-0.48c-0.263,0-0.48-0.189-0.655-0.568
			c0-0.029-0.029-0.059-0.088-0.088l-0.087-0.043c-0.029-0.146-0.139-0.356-0.327-0.634c-0.19-0.276-0.284-0.517-0.284-0.721H28.84
			c-0.029-0.028-0.044-0.058-0.044-0.087c-0.029-0.088-0.059-0.182-0.087-0.284c-0.029-0.102-0.059-0.218-0.088-0.35
			c-0.029-0.131-0.059-0.226-0.087-0.284l-0.087-0.174c-0.03-0.088-0.037-0.189-0.022-0.307c0.015-0.115,0.022-0.203,0.022-0.262
			c0-0.028-0.022-0.065-0.066-0.109c-0.043-0.043-0.065-0.08-0.065-0.109c0-0.028,0-0.079,0-0.152c0-0.072-0.015-0.123-0.043-0.152
			c0-0.029-0.008-0.066-0.022-0.109c-0.015-0.044-0.021-0.095-0.021-0.153v-0.175c0-0.058-0.008-0.145-0.021-0.262
			c-0.016-0.116-0.022-0.219-0.022-0.307c-0.029-0.174-0.037-0.414-0.021-0.72c0.014-0.306,0.021-0.517,0.021-0.634
			c0-0.115,0.015-0.189,0.044-0.219c0-0.028-0.044-0.319-0.131-0.873c0-0.029,0.014-0.059,0.043-0.088
			c0.029-0.027,0.044-0.058,0.044-0.087l-0.044-0.044c-0.029-0.028-0.043-0.131-0.043-0.305c-0.029-0.233-0.044-0.685-0.044-1.354
			c0-0.058,0.015-0.138,0.044-0.24c0.028-0.103,0.043-0.167,0.043-0.196v-0.307v-0.742c0-0.203,0.015-0.363,0.044-0.48
			c0-0.088,0.015-0.203,0.044-0.35c0.028-0.145,0.044-0.246,0.044-0.305v-0.35c0-0.176,0.028-0.466,0.087-0.874
			c0.058-0.407,0.088-0.685,0.088-0.83c0.058-0.698,0.115-1.092,0.174-1.179c-0.029-0.059-0.043-0.131-0.043-0.219
			c0-0.116,0.028-0.262,0.087-0.438c0-0.027-0.008-0.087-0.021-0.174c-0.016-0.088-0.022-0.16-0.022-0.219
			c0-0.145,0.029-0.306,0.088-0.48c0-0.203,0.015-0.363,0.044-0.48c0-0.437,0.014-0.786,0.043-1.049
			c0.059-0.115,0.088-0.218,0.088-0.305c0-0.059-0.008-0.146-0.022-0.262c-0.015-0.117-0.021-0.189-0.021-0.219
			c0-0.088,0.015-0.16,0.044-0.219c0-0.088-0.029-0.16-0.088-0.219c0-0.058,0.029-0.123,0.088-0.196
			c0.058-0.072,0.087-0.124,0.087-0.153l0.394-0.262c0.028,0,0.072-0.007,0.131-0.021c0.058-0.015,0.116-0.029,0.175-0.044
			c0.058-0.015,0.102-0.036,0.131-0.065c0.058-0.029,0.138-0.088,0.24-0.175c0.102-0.087,0.182-0.146,0.24-0.175
			c0.291-0.028,0.567-0.115,0.83-0.262c0.116-0.029,0.232-0.044,0.35-0.044c0.028,0,0.072-0.015,0.131-0.044l0.087-0.043h0.175
			c0.029,0,0.109-0.008,0.24-0.021c0.131-0.016,0.24-0.022,0.328-0.022c0.115,0,0.203,0.029,0.262,0.087
			c0.087-0.087,0.196-0.137,0.327-0.152c0.132-0.015,0.284-0.021,0.459-0.021S33.79,84.738,33.906,84.709z M28.928,94.667v0.131
			c0.028,0,0.058-0.014,0.087-0.043C29.015,94.696,28.985,94.667,28.928,94.667z M34.692,89.164c-0.059,0-0.218,0.131-0.48,0.394
			c0,0.029,0.022,0.059,0.065,0.087c0.044,0.029,0.066,0.073,0.066,0.131c-0.06,0.116-0.088,0.218-0.088,0.306
			c0,0.117,0.028,0.262,0.088,0.438c-0.117,0.408-0.19,0.728-0.219,0.961c0,0.029,0.021,0.064,0.065,0.108s0.065,0.081,0.065,0.109
			c-0.175,0.116-0.262,0.306-0.262,0.567c0,0.088,0.014,0.219,0.043,0.394s0.044,0.306,0.044,0.394l0.219,2.402
			c0,0.174,0.021,0.436,0.065,0.785s0.065,0.598,0.065,0.743l-0.044,0.437c0,0.088,0.015,0.146,0.044,0.175
			c-0.059,0.087-0.087,0.35-0.087,0.786v0.088c0,0.029-0.016,0.087-0.044,0.174c-0.029,0.088-0.044,0.146-0.044,0.176
			c0,0.059,0.007,0.152,0.021,0.283s0.022,0.227,0.022,0.284v0.131c0,0.059-0.008,0.124-0.022,0.196
			c-0.015,0.073-0.021,0.125-0.021,0.153c0,0.059,0.028,0.175,0.088,0.349v0.219c0,0.175,0.094,0.35,0.283,0.524
			s0.356,0.263,0.503,0.263c0.175-0.029,0.319-0.103,0.437-0.219l0.306-0.307c0-0.058,0.036-0.145,0.109-0.262
			c0.072-0.115,0.109-0.219,0.109-0.306c0.058-0.262,0.159-0.437,0.306-0.524c0-0.028,0.028-0.145,0.087-0.35
			c0-0.319,0.072-0.654,0.219-1.004v-0.262c0-0.35,0.043-0.684,0.131-1.005c0-0.028-0.021-0.058-0.065-0.087
			s-0.052-0.072-0.022-0.132c0.029-0.989-0.043-2.009-0.218-3.058c-0.059-0.494-0.146-0.785-0.262-0.873
			c0.028-0.291-0.132-0.873-0.48-1.747c-0.117-0.233-0.175-0.422-0.175-0.567v-0.132l-0.175-0.349
			c0.028-0.029,0.043-0.059,0.043-0.088c-0.059,0-0.116-0.029-0.174-0.088c0-0.087-0.044-0.182-0.132-0.283
			c-0.087-0.102-0.146-0.197-0.175-0.284C34.853,89.208,34.751,89.164,34.692,89.164z M34.605,102.835
			c0,0.146,0.015,0.233,0.044,0.262c0.175-0.087,0.262-0.145,0.262-0.174C34.794,102.864,34.692,102.835,34.605,102.835z"/>
		<path fill="#231F20" d="M46.005,83.181h0.262l0.262,0.131c0.291,0,0.451,0.015,0.48,0.043c0.059-0.028,0.16-0.043,0.307-0.043
			c0.087,0,0.24,0.029,0.458,0.087c0.219,0.059,0.386,0.087,0.503,0.087c0.087,0.059,0.225,0.131,0.414,0.219
			s0.335,0.16,0.438,0.219c0.102,0.059,0.203,0.16,0.306,0.306c0.102,0.146,0.167,0.306,0.196,0.48
			c0.028,0.059,0.087,0.116,0.175,0.175c0.087,0.059,0.146,0.102,0.175,0.131c0.028,0.029,0.051,0.095,0.065,0.196
			c0.015,0.103,0.021,0.168,0.021,0.196c0,0.029,0.015,0.059,0.044,0.088l0.044,0.088v0.262c0,0.029,0.036,0.095,0.109,0.196
			c0.072,0.103,0.108,0.183,0.108,0.24c0,0.059,0.007,0.131,0.022,0.218c0.014,0.088,0.036,0.161,0.065,0.219
			c0,0.059,0.014,0.131,0.044,0.219c0.028,0.088,0.043,0.146,0.043,0.174v0.132c0,0.059-0.007,0.139-0.021,0.24
			c-0.015,0.103-0.021,0.168-0.021,0.196c0,0.029,0.028,0.073,0.087,0.131c0,0.059,0.015,0.168,0.044,0.328
			c0.028,0.16,0.043,0.283,0.043,0.371c0.059,0.204,0.073,0.364,0.044,0.48c0,0.059-0.008,0.152-0.021,0.283
			c-0.016,0.132-0.022,0.24-0.022,0.328v0.175c0.059,0.35,0.088,0.597,0.088,0.743c0,0.174-0.029,0.305-0.088,0.393
			c0,0.029,0.015,0.072,0.044,0.131s0.044,0.117,0.044,0.175c0,0.029-0.008,0.065-0.021,0.109c-0.016,0.044-0.022,0.081-0.022,0.108
			l0.044,0.088c0,0.029,0,0.059,0,0.088v0.043c-0.029,0.029-0.044,0.059-0.044,0.088s0.007,0.095,0.022,0.196
			c0.014,0.103,0.021,0.183,0.021,0.24l0.044,0.087c0.028,0.059,0.043,0.104,0.043,0.131c0,0.059-0.015,0.146-0.043,0.263
			c-0.059,0.059-0.088,0.116-0.088,0.175c0,0.029,0.007,0.102,0.022,0.219c0.014,0.116,0.021,0.203,0.021,0.262
			c-0.029,0.059-0.044,0.102-0.044,0.131s0,0.103,0,0.219s-0.029,0.174-0.087,0.174c0.087,0.146,0.131,0.277,0.131,0.394
			c0,0.029-0.008,0.095-0.021,0.196c-0.016,0.103-0.022,0.183-0.022,0.24c-0.059,0.059-0.087,0.117-0.087,0.176
			c-0.059,0.785-0.117,1.208-0.175,1.266c0.087,0.262,0.131,0.554,0.131,0.874c0,0.233-0.029,0.408-0.087,0.524
			c0.058,0.232,0.087,0.422,0.087,0.567s-0.029,0.247-0.087,0.306c0.028,0.059,0.05,0.175,0.065,0.35
			c0.014,0.175,0.021,0.291,0.021,0.35L50.46,99.21c0.028,0.059,0.044,0.146,0.044,0.262c0,0.117-0.016,0.262-0.044,0.438
			c-0.029,0.174-0.044,0.305-0.044,0.393v0.175c-0.087,0.146-0.146,0.233-0.175,0.263c0,0.262-0.015,0.407-0.044,0.436v0.263
			c0,0.321-0.072,0.655-0.218,1.005l0.044,0.742c0,0.408-0.117,0.655-0.35,0.742c0.028,0.029,0.043,0.073,0.043,0.131
			c0,0.059-0.029,0.131-0.087,0.219c-0.059,0.088-0.087,0.16-0.087,0.219c-0.06,0.059-0.19,0.182-0.394,0.371
			c-0.204,0.189-0.379,0.313-0.524,0.371l-0.175,0.044c-0.349,0.204-0.553,0.306-0.611,0.306c-0.728,0-1.208-0.029-1.441-0.088
			c-0.029,0-0.103-0.028-0.218-0.087c-0.117-0.058-0.204-0.102-0.263-0.131c-0.029,0-0.103-0.058-0.218-0.175
			c-0.408-0.088-0.699-0.276-0.874-0.568c-0.146-0.028-0.284-0.123-0.415-0.283s-0.211-0.255-0.24-0.284
			c-0.029-0.116-0.103-0.276-0.218-0.48c-0.117-0.203-0.19-0.364-0.219-0.48c-0.029-0.058-0.051-0.138-0.065-0.24
			c-0.015-0.102-0.021-0.182-0.021-0.24c-0.06-0.175-0.088-0.306-0.088-0.394v-0.523c0-0.088-0.029-0.27-0.087-0.547
			c-0.059-0.275-0.103-0.516-0.132-0.72s-0.043-0.509-0.043-0.917c-0.029-0.117-0.044-0.291-0.044-0.524
			c0-0.175,0.028-0.291,0.087-0.35c-0.059-0.058-0.087-0.175-0.087-0.35c0-0.058,0.015-0.175,0.044-0.349
			c0.028-0.176,0.043-0.307,0.043-0.394v-0.306c0-0.262,0.044-0.438,0.132-0.524c0-0.028-0.022-0.058-0.065-0.087
			c-0.044-0.029-0.066-0.072-0.066-0.131s0.007-0.117,0.022-0.176c0.014-0.058,0.021-0.115,0.021-0.174v-0.656
			c0-0.436,0.029-0.771,0.088-1.004c-0.029-0.059-0.044-0.16-0.044-0.306c0-0.116,0.028-0.291,0.087-0.524
			c0.059-0.232,0.088-0.378,0.088-0.437v-0.087c-0.029-0.059-0.044-0.102-0.044-0.131l0.044-0.088c0-0.029,0-0.059,0-0.088
			c0-0.115,0-0.305,0-0.567s0.014-0.451,0.044-0.567c0.058-0.408,0.087-0.714,0.087-0.918c0-0.028,0.028-0.072,0.087-0.131
			c0-0.059-0.015-0.102-0.043-0.131c-0.029-0.029-0.044-0.072-0.044-0.131l0.131-1.005v-0.044l-0.044-0.087
			c0-0.087,0.029-0.196,0.088-0.327c0.058-0.132,0.087-0.226,0.087-0.285c0-0.086,0.007-0.254,0.022-0.502
			c0.014-0.246,0.036-0.414,0.065-0.502l0.131-0.219c0.058-0.437,0.146-0.698,0.262-0.785c0-0.029-0.015-0.059-0.043-0.088
			c-0.029-0.029-0.044-0.072-0.044-0.131c0.058-0.175,0.087-0.291,0.087-0.35v-0.524c0-0.058,0.029-0.159,0.088-0.306
			C44.621,85,44.65,84.898,44.65,84.84c0-0.204-0.029-0.48-0.087-0.83c0.058-0.058,0.102-0.159,0.131-0.306
			c0.028-0.145,0.058-0.232,0.087-0.262C45.044,83.268,45.451,83.181,46.005,83.181z"/>
		<path fill="#231F20" d="M59.457,84.622h0.131c0.32,0,0.51,0.029,0.568,0.087c0.087-0.028,0.232-0.044,0.437-0.044
			c0.116,0,0.276,0.008,0.48,0.021c0.203,0.016,0.335,0.022,0.394,0.022c0.087,0,0.218-0.007,0.393-0.022
			c0.175-0.014,0.306-0.021,0.394-0.021c0.028,0,0.072,0.016,0.131,0.044c0.058,0.029,0.102,0.044,0.131,0.044
			c0.028,0,0.08-0.008,0.153-0.022c0.072-0.015,0.138-0.021,0.196-0.021c0.028,0,0.175,0.007,0.437,0.021
			c0.263,0.015,0.466,0.052,0.611,0.109c0.059,0,0.102-0.015,0.131-0.044h0.088c0.116,0.088,0.247,0.131,0.393,0.131h0.175
			c0.059,0,0.16-0.006,0.306-0.021c0.146-0.014,0.263-0.021,0.35-0.021h0.131c0.059,0,0.204,0.029,0.438,0.087
			c0.378,0.087,0.64,0.219,0.786,0.394c0.028,0.029,0.087,0.102,0.175,0.219c0.087,0.116,0.159,0.203,0.218,0.262
			c0.029,0.029,0.072,0.08,0.132,0.152c0.058,0.073,0.102,0.139,0.131,0.197l0.043,0.523c-0.059,0.32-0.174,0.611-0.349,0.873
			c-0.146,0.205-0.292,0.336-0.438,0.395c-0.059,0.029-0.16,0.059-0.306,0.086c-0.146,0.03-0.247,0.06-0.306,0.088
			c-0.116,0.059-0.233,0.088-0.35,0.088c-0.059,0-0.146-0.029-0.262-0.088c-0.175,0.146-0.51,0.219-1.005,0.219H63.52
			c-0.117,0-0.321,0.008-0.611,0.021c-0.292,0.016-0.524,0.021-0.699,0.021h-0.306c-0.117-0.028-0.262-0.028-0.437,0
			c-0.088,0-0.197-0.006-0.328-0.021c-0.131-0.014-0.226-0.021-0.284-0.021s-0.138,0.008-0.24,0.021
			c-0.102,0.016-0.182,0.021-0.239,0.021c-0.06,0-0.139-0.006-0.24-0.021c-0.103-0.014-0.168-0.021-0.197-0.021
			c-0.146,0-0.247,0.029-0.306,0.088c0.029,0.059,0.044,0.146,0.044,0.262c-0.175,0.087-0.277,0.146-0.306,0.174
			c0.028,0.029,0.044,0.117,0.044,0.263l-0.044,0.262c0,0.06-0.029,0.116-0.088,0.175s-0.087,0.103-0.087,0.131
			c0.028,0.029,0.028,0.059,0,0.088l0.087,0.043c0.029,0,0.044,0.016,0.044,0.044c0.028,0.175,0.051,0.54,0.065,1.093
			s0.065,0.961,0.153,1.223c-0.088,0.232-0.146,0.379-0.175,0.437c0.028,0.059,0.072,0.087,0.131,0.087
			c0.058,0,0.087,0.016,0.087,0.044c0,0.233-0.015,0.394-0.043,0.48c0.087,0.146,0.131,0.306,0.131,0.48
			c0,0.204-0.073,0.408-0.219,0.612c0,0.059-0.007,0.123-0.021,0.195c-0.015,0.074-0.021,0.125-0.021,0.153
			c0,0.175,0.014,0.415,0.043,0.721s0.044,0.518,0.044,0.634c0,0.146-0.015,0.262-0.044,0.35c0.175,0.116,0.32,0.262,0.438,0.436
			c0.087,0,0.218-0.006,0.393-0.021c0.175-0.014,0.291-0.021,0.35-0.021c0.146,0,0.306,0.029,0.48,0.088
			c0.291-0.059,0.524-0.088,0.698-0.088l0.438,0.043c0.028,0.029,0.116,0.074,0.262,0.132c0.146,0.059,0.232,0.116,0.262,0.175
			h0.175c0.029,0.029,0.132,0.116,0.306,0.262c0.175,0.146,0.32,0.233,0.438,0.262c0,0.088,0.058,0.176,0.175,0.263
			c-0.06,0.059-0.065,0.146-0.022,0.262c0.044,0.116,0.065,0.19,0.065,0.219v0.087l-0.175,0.175c0,0.06-0.036,0.146-0.108,0.263
			c-0.073,0.116-0.109,0.218-0.109,0.305c-0.029,0.029-0.088,0.045-0.175,0.045c-0.029,0.116-0.103,0.262-0.219,0.436l-0.611,0.132
			c-0.059,0-0.146,0.015-0.262,0.044c-0.059,0.059-0.117,0.087-0.175,0.087c-0.088,0-0.189-0.015-0.306-0.044
			c-0.117-0.028-0.219-0.043-0.306-0.043l-0.438,0.043h-0.131c-0.059,0-0.139-0.014-0.24-0.043
			c-0.103-0.029-0.168-0.044-0.196-0.044c-0.087,0-0.146,0.015-0.175,0.044c-0.087,0.087-0.131,0.247-0.131,0.48
			c0,0.029-0.008,0.087-0.021,0.174c-0.016,0.088-0.022,0.16-0.022,0.219c0,0.117,0.015,0.277,0.044,0.48
			c0.028,0.204,0.044,0.35,0.044,0.438v0.479c0.087,0.03,0.319,0.109,0.698,0.24c0.378,0.132,0.641,0.255,0.786,0.372
			c0.059,0,0.102-0.008,0.131-0.022s0.059-0.022,0.088-0.022c0.262,0.088,0.567,0.132,0.917,0.132c0.263,0,0.597-0.028,1.005-0.087
			c0.028,0,0.102,0.059,0.218,0.174c0.088,0,0.27-0.021,0.547-0.065c0.276-0.044,0.487-0.065,0.633-0.065
			c0.203,0,0.364,0.044,0.48,0.131c0.028-0.058,0.102-0.065,0.219-0.021c0.116,0.043,0.188,0.065,0.218,0.065h0.088
			c0.028,0.029,0.058,0.059,0.087,0.087l0.088,0.044l0.393,0.132c0.116,0.174,0.175,0.32,0.175,0.436
			c0.028,0.029,0.088,0.081,0.175,0.153c0.088,0.073,0.146,0.124,0.175,0.153c0.058,0.059,0.087,0.219,0.087,0.48
			c0,0.232-0.029,0.393-0.087,0.48l-0.131,0.087c-0.204,0.292-0.379,0.466-0.524,0.524l-0.393,0.175h-0.219
			c-0.088,0-0.189,0.036-0.306,0.108c-0.117,0.074-0.204,0.109-0.263,0.109s-0.116-0.006-0.174-0.021
			c-0.06-0.014-0.103-0.021-0.132-0.021s-0.087,0.043-0.175,0.131c-0.087,0-0.211,0.043-0.371,0.131s-0.283,0.146-0.371,0.175
			c-0.059,0-0.189,0.007-0.393,0.022c-0.204,0.014-0.365,0.035-0.48,0.064c-0.233,0.059-0.467,0.088-0.699,0.088
			c-0.175,0-0.291-0.016-0.35-0.044l-0.131,0.044c-0.059,0.028-0.103,0.059-0.131,0.088c-0.059-0.029-0.146-0.045-0.263-0.045
			c-0.059,0-0.146,0.008-0.262,0.022s-0.204,0.022-0.262,0.022c-0.029,0-0.073,0-0.131,0l-0.044-0.045
			c-0.029,0-0.073,0.008-0.131,0.022c-0.059,0.015-0.103,0.022-0.132,0.022c-0.087,0.027-0.276,0.043-0.567,0.043h-0.611
			c-0.117,0.059-0.189,0.088-0.219,0.088c-0.087,0.028-0.218,0.043-0.393,0.043c-0.263,0-0.452-0.015-0.568-0.043l-0.218,0.131
			c-0.146,0-0.357,0.014-0.634,0.043c-0.277,0.029-0.488,0.044-0.633,0.044c-0.175,0-0.321-0.015-0.438-0.044
			c-0.059-0.059-0.218-0.131-0.48-0.218c-0.262-0.087-0.422-0.204-0.48-0.35c-0.059,0-0.139-0.044-0.24-0.131
			s-0.196-0.146-0.283-0.175c-0.059-0.175-0.219-0.342-0.48-0.502c-0.263-0.16-0.423-0.27-0.48-0.328
			c0-0.115-0.059-0.203-0.175-0.262c0-0.059-0.008-0.124-0.022-0.197c-0.015-0.072-0.021-0.123-0.021-0.152
			c-0.116-0.088-0.262-0.247-0.437-0.48c-0.029-0.059-0.029-0.116,0-0.175v-0.044c-0.204-0.262-0.306-0.494-0.306-0.699v-0.087
			c-0.088-0.146-0.161-0.421-0.219-0.829c-0.059-0.408-0.146-0.685-0.262-0.83v-0.088c0-0.058-0.029-0.16-0.088-0.306
			s-0.087-0.247-0.087-0.306l0.044-0.175c-0.117-0.203-0.175-0.437-0.175-0.698c0-0.176-0.008-0.379-0.022-0.611
			c-0.015-0.233-0.036-0.496-0.065-0.787s-0.044-0.523-0.044-0.699v-1.048c0-0.116,0.015-0.284,0.044-0.502
			c0.029-0.219,0.044-0.372,0.044-0.459c0-0.058-0.008-0.159-0.021-0.306c-0.016-0.145-0.022-0.262-0.022-0.35
			c0-0.145,0.015-0.262,0.044-0.35c-0.029-0.028-0.029-0.043,0-0.043l0.087-0.044c-0.146-0.961-0.218-1.63-0.218-2.009
			c0-0.088,0.028-0.248,0.087-0.48H52.25c-0.059,0-0.087-0.015-0.087-0.044c0-0.175,0.007-0.458,0.021-0.852
			s0.022-0.691,0.022-0.896c0-0.029-0.008-0.088-0.022-0.175s-0.021-0.159-0.021-0.218c0-0.117,0.044-0.219,0.131-0.307
			l-0.044-0.043c-0.059,0-0.072-0.029-0.043-0.088c0.087-0.699,0.131-1.383,0.131-2.053c0.028-0.029,0.072-0.065,0.131-0.109
			c0.058-0.043,0.102-0.08,0.131-0.109c-0.029-0.058-0.059-0.072-0.087-0.043c-0.029,0.029-0.059,0.029-0.088,0
			c0-0.176,0.044-0.371,0.132-0.59c0.087-0.219,0.145-0.371,0.174-0.459c0.029,0,0.066-0.028,0.109-0.087
			c0.044-0.058,0.095-0.087,0.153-0.087c0.058-0.117,0.203-0.256,0.437-0.416c0.232-0.159,0.378-0.298,0.437-0.414
			c0.029,0,0.233-0.044,0.611-0.131c0.175,0,0.291-0.072,0.35-0.219c0.029,0.029,0.072,0.043,0.131,0.043s0.153-0.028,0.284-0.087
			c0.131-0.058,0.211-0.087,0.24-0.087c0.088-0.029,0.219-0.044,0.394-0.044s0.35,0.029,0.523,0.087c0.059,0,0.139-0.014,0.24-0.043
			c0.103-0.029,0.197-0.051,0.284-0.066c0.088-0.014,0.175-0.021,0.263-0.021c0.028,0,0.072,0.016,0.131,0.044h0.087
			c0.059,0,0.146-0.015,0.262-0.044s0.219-0.043,0.307-0.043l0.174,0.043c0.116,0,0.27-0.014,0.459-0.043s0.328-0.045,0.415-0.045
			h0.131L59.457,84.622z"/>
		<path fill="#231F20" d="M76.273,84.84c0.087,0,0.48,0.044,1.179,0.131c0.029,0,0.095,0.008,0.196,0.022
			c0.103,0.015,0.182,0.021,0.24,0.021l0.044,0.043h0.044c0.203,0,0.32,0.029,0.35,0.088c1.136,0.029,2.198,0.175,3.188,0.438
			c0,0.029,0.028,0.072,0.087,0.131l0.088,0.131h0.262c0.116,0.116,0.175,0.203,0.175,0.262c0.087,0,0.175,0.037,0.262,0.109
			c0.088,0.072,0.16,0.109,0.219,0.109c0,0.059,0.028,0.131,0.087,0.219c0.059,0.087,0.088,0.16,0.088,0.218l-0.306,0.306
			c-0.059,0.059-0.233,0.277-0.524,0.655c-0.437,0.233-0.742,0.379-0.917,0.437h-0.131c-0.292,0-0.54,0.073-0.743,0.219
			c-0.291,0-0.845,0.059-1.659,0.174c-0.029,0.03-0.081,0.06-0.153,0.088c-0.073,0.029-0.124,0.059-0.152,0.088
			c0.087,0.523,0.131,0.801,0.131,0.83c0,0.203-0.044,0.334-0.131,0.393c0,0.059,0.014,0.131,0.043,0.219
			c0.029,0.087,0.044,0.146,0.044,0.174c0,0.029-0.021,0.096-0.065,0.197s-0.065,0.196-0.065,0.283c0,0.117,0.044,0.35,0.131,0.699
			c0,0.029-0.015,0.059-0.044,0.088v0.087c0,0.059,0.015,0.153,0.044,0.284c0.028,0.131,0.044,0.226,0.044,0.283
			c0,0.029-0.022,0.088-0.065,0.176c-0.044,0.087-0.065,0.146-0.065,0.174c0,0.029,0.007,0.08,0.021,0.153s0.021,0.138,0.021,0.196
			c0,0.146-0.059,0.364-0.175,0.655l0.132,0.263c-0.029,0.086-0.052,0.276-0.066,0.566c-0.015,0.292-0.065,0.496-0.152,0.612v0.306
			c0,0.146-0.008,0.328-0.021,0.546c-0.016,0.218-0.022,0.386-0.022,0.503c0,0.203,0.015,0.363,0.044,0.48
			c0,0.029,0.044,0.087,0.131,0.174c0.028,0.059,0.028,0.103,0,0.131l-0.044,0.131c0.088,0.146,0.132,0.292,0.132,0.438
			c0,0.233-0.044,0.437-0.132,0.611c0.029,0.175,0.029,0.291,0,0.35c0.059,0.029,0.088,0.146,0.088,0.35c0,0.029,0,0.072,0,0.131
			l0.044,0.088c0,0.059-0.029,0.146-0.088,0.262l0.044,0.087c0,0.059,0,0.103,0,0.132c0,0.059-0.016,0.123-0.044,0.195
			c-0.029,0.074-0.044,0.125-0.044,0.153c0.029,0.059,0.072,0.109,0.132,0.153c0.058,0.043,0.087,0.08,0.087,0.109
			c-0.029,0.087-0.029,0.203,0,0.35c0.028,0.146,0.028,0.247,0,0.305c-0.029,0.059-0.073,0.131-0.131,0.219
			c-0.059,0.088-0.088,0.146-0.088,0.175c0,0.029,0.015,0.065,0.044,0.108c0.028,0.045,0.044,0.081,0.044,0.109v0.219
			c0,0.204-0.044,0.422-0.131,0.655c0.115,0.233,0.175,0.452,0.175,0.655l-0.044,0.175c0.028,0.029,0.044,0.233,0.044,0.611
			c0,0.087,0.028,0.204,0.087,0.35c0.058,0.146,0.087,0.262,0.087,0.349c0,0.117-0.043,0.219-0.131,0.307
			c-0.029,0.029-0.095,0.065-0.196,0.109c-0.103,0.043-0.168,0.109-0.196,0.196c-0.029,0-0.109,0.021-0.24,0.065
			c-0.131,0.043-0.24,0.065-0.328,0.065c-0.059,0.059-0.451,0.247-1.179,0.567l-0.874,0.131c-0.029,0-0.065,0.008-0.109,0.022
			c-0.043,0.015-0.08,0.022-0.108,0.022c-0.06,0-0.168-0.016-0.328-0.045c-0.16-0.028-0.284-0.043-0.371-0.043l-0.175,0.043
			c-0.35-0.087-0.554-0.131-0.611-0.131h-0.088c-0.174-0.174-0.32-0.291-0.437-0.35c-0.029-0.027-0.109-0.131-0.24-0.305
			c-0.131-0.176-0.255-0.291-0.371-0.35c0-0.088-0.029-0.16-0.087-0.219c-0.467-0.465-0.699-0.902-0.699-1.311
			c0-0.145-0.015-0.232-0.044-0.262s-0.029-0.059,0-0.088l0.044-0.043c-0.088-0.088-0.131-0.203-0.131-0.35v-0.48
			c0-0.029,0.014-0.059,0.043-0.088c0.029-0.028,0.044-0.058,0.044-0.087c0-0.028-0.021-0.072-0.065-0.131
			c-0.044-0.058-0.065-0.102-0.065-0.132c0.058-1.543,0.116-2.445,0.175-2.707c0-0.059,0.028-0.102,0.087-0.131
			c0-0.029,0.007-0.044,0.022-0.044c0.014,0,0.021-0.015,0.021-0.044c-0.087-0.059-0.073-0.146,0.044-0.262h-0.088
			c-0.059,0-0.087-0.015-0.087-0.044l0.044-0.874c0-0.028,0.021-0.058,0.065-0.087c0.043-0.028,0.065-0.058,0.065-0.087
			s-0.016-0.059-0.044-0.088c-0.029-0.028-0.044-0.059-0.044-0.088c0-0.027,0.007-0.24,0.022-0.633
			c0.014-0.393,0.05-0.662,0.109-0.809c0-0.027-0.016-0.057-0.044-0.087v-0.087c0.028-0.262,0.044-0.67,0.044-1.223v-2.229
			c0-0.087,0.021-0.211,0.065-0.371c0.043-0.16,0.065-0.283,0.065-0.371c0.028-0.059,0.058-0.182,0.087-0.371
			s0.088-0.299,0.175-0.328c-0.059-0.232-0.087-0.377-0.087-0.437c0-0.058,0.036-0.188,0.108-0.394
			c0.073-0.203,0.124-0.349,0.153-0.436c0.028-0.088,0.051-0.204,0.065-0.35c0.015-0.146,0.036-0.263,0.065-0.35
			c0.175-0.35,0.263-0.553,0.263-0.611c-0.146-0.088-0.431-0.16-0.853-0.219s-0.706-0.146-0.852-0.262h-0.131
			c-0.175,0-0.291-0.029-0.35-0.088c-0.291,0-0.437-0.058-0.437-0.174h-0.262c-0.088-0.059-0.277-0.146-0.568-0.263
			s-0.495-0.218-0.611-0.306v-0.088c0-0.087,0.015-0.188,0.044-0.305c0.028-0.117,0.043-0.189,0.043-0.219l0.787-0.611
			c0.058,0,0.145-0.037,0.262-0.109c0.116-0.072,0.232-0.109,0.35-0.109c0.028,0,0.05,0.016,0.065,0.043
			c0.014,0.029,0.05,0.045,0.109,0.045c0.669-0.146,1.063-0.219,1.179-0.219h0.131c0.291-0.203,0.67-0.307,1.136-0.307
			c0.088-0.058,0.233-0.087,0.438-0.087h0.306l0.567-0.131c0.058,0,0.116,0.007,0.175,0.022c0.058,0.014,0.116,0.021,0.175,0.021
			c0.028,0,0.072-0.008,0.131-0.021c0.058-0.016,0.102-0.022,0.131-0.022h0.35c0.32,0,0.567,0.015,0.742,0.044
			C75.924,84.854,76.069,84.84,76.273,84.84z"/>
	</g>
	<g>
		<path fill="#231F20" d="M9.356,56.657h0.087c0.029,0,0.059,0.015,0.088,0.043l0.043,0.087c0.029,0,0.088,0.008,0.175,0.022
			c0.088,0.015,0.16,0.037,0.219,0.065c0.028,0,0.058,0.029,0.087,0.087c0.059,0.087,0.132,0.117,0.219,0.087
			c0.028,0.146,0.131,0.306,0.306,0.48c0.175,0.583,0.291,0.903,0.35,0.961c0,0.059,0.015,0.16,0.044,0.306
			c0.028,0.146,0.043,0.262,0.043,0.35s-0.015,0.16-0.043,0.218c0,0.087,0.043,0.393,0.131,0.917v0.262
			c0,0.117,0.007,0.284,0.021,0.502s0.022,0.371,0.022,0.458c0,0.233-0.029,0.393-0.088,0.48c0.028,0.408,0.044,0.903,0.044,1.485
			c0,0.059,0.036,0.103,0.109,0.131c0.072,0.029,0.109,0.059,0.109,0.087c0.844,0.204,1.397,0.393,1.659,0.568h0.131
			c0.059,0,0.204,0.073,0.438,0.218c0.058,0.204,0.145,0.335,0.262,0.393c-0.029,0.087-0.021,0.16,0.021,0.218
			c0.044,0.059,0.065,0.117,0.065,0.175c0.029,0.059,0.065,0.139,0.109,0.24c0.044,0.103,0.08,0.168,0.109,0.197
			c0.058,0.117,0.087,0.189,0.087,0.218c0,0.087-0.029,0.182-0.087,0.284c-0.059,0.103-0.103,0.168-0.131,0.197
			c-0.059,0-0.131,0.029-0.219,0.087c-0.087,0.059-0.146,0.087-0.175,0.087h-0.087l-0.088-0.044l-0.043,0.044
			c-0.029,0.059-0.059,0.087-0.088,0.087h-0.35c-0.087,0-0.131,0.015-0.131,0.044c-0.029,0-0.059-0.007-0.087-0.022
			c-0.029-0.014-0.059-0.022-0.088-0.022s-0.065,0.03-0.109,0.087c-0.043,0.059-0.08,0.087-0.108,0.087
			c-0.029,0-0.095,0.015-0.197,0.044c-0.102,0.029-0.168,0.043-0.196,0.043c-0.059,0-0.146-0.014-0.262-0.043
			c-0.117-0.029-0.219-0.044-0.306-0.044h-0.088l-0.087,0.044c-0.059,0.029-0.103,0.043-0.131,0.043c-0.06,0-0.109,0-0.153,0
			s-0.087,0-0.131,0s-0.095,0-0.153,0s-0.102,0-0.131,0l-0.044,0.044l-0.043,0.043c0.058,0.321,0.028,0.524-0.088,0.611
			c0.088,0.35,0.131,0.568,0.131,0.655v0.612c-0.029,0.059-0.072,0.117-0.131,0.174c0.088,0.146,0.131,0.335,0.131,0.568
			c0,0.146-0.029,0.365-0.087,0.655c0,0.059,0.007,0.117,0.021,0.175c0.015,0.059,0.022,0.102,0.022,0.131
			c-0.088,0.408-0.161,0.67-0.219,0.786v0.131c0,0.059-0.008,0.124-0.021,0.196c-0.016,0.073-0.022,0.125-0.022,0.153
			c0,0.175,0.015,0.292,0.044,0.35c0,0.059-0.029,0.146-0.087,0.262c0.058,0.146,0.087,0.378,0.087,0.699
			c0,0.321,0.015,0.553,0.044,0.699c0,0.059,0.014,0.168,0.044,0.328c0.028,0.16,0.043,0.284,0.043,0.371v0.131
			c-0.059,0.117-0.087,0.189-0.087,0.218c0,0.059,0.007,0.117,0.021,0.175c0.015,0.059,0.022,0.102,0.022,0.131
			c-0.03,0.059-0.066,0.139-0.109,0.24c-0.044,0.103-0.065,0.168-0.065,0.197v0.131c0,0.175,0.043,0.364,0.131,0.568h0.087
			c0.029,0.029,0.059,0.043,0.088,0.043c0.116,0,0.225-0.028,0.327-0.087c0.102-0.058,0.219-0.153,0.35-0.284
			s0.226-0.211,0.284-0.24c0.115-0.175,0.232-0.276,0.349-0.306c0.116-0.146,0.32-0.378,0.612-0.699
			c0.29-0.32,0.494-0.568,0.611-0.743l0.044-0.044c0.028-0.028,0.058-0.028,0.087,0c0.028-0.058,0.044-0.145,0.044-0.262
			c0.087-0.058,0.276-0.276,0.567-0.655c0.059-0.087,0.153-0.204,0.284-0.35c0.131-0.145,0.211-0.247,0.24-0.306
			c0.087,0,0.146-0.014,0.175-0.043c0-0.029,0.007-0.065,0.021-0.109c0.015-0.043,0.036-0.08,0.065-0.109
			c0.146-0.145,0.466-0.596,0.961-1.354l0.175-0.174c0.028-0.029,0.072-0.073,0.131-0.131l0.044-0.087
			c0.028-0.028,0.058-0.058,0.087-0.087l0.044-0.043c0.029-0.029,0.059-0.072,0.088-0.131l0.043-0.044l0.306-0.262
			c0.175-0.262,0.291-0.421,0.35-0.48c0-0.029,0.022-0.058,0.065-0.087c0.044-0.029,0.065-0.058,0.065-0.087l0.48-0.524
			c0.233-0.175,0.422-0.291,0.568-0.349c0.028-0.029,0.072-0.044,0.131-0.044c0.146,0,0.291,0.073,0.437,0.218
			c0.263,0.146,0.394,0.394,0.394,0.743v0.131c-0.029,0.174-0.095,0.378-0.196,0.611c-0.103,0.233-0.168,0.422-0.197,0.568
			c-0.059,0.117-0.16,0.277-0.306,0.48c-0.146,0.204-0.233,0.364-0.262,0.48l-0.262,0.131c0,0.146-0.03,0.248-0.088,0.306
			c-0.087,0.087-0.219,0.248-0.393,0.48c-0.175,0.233-0.321,0.393-0.438,0.48c0,0.087-0.021,0.168-0.065,0.24
			c-0.044,0.073-0.065,0.125-0.065,0.153c-0.059,0.029-0.131,0.087-0.219,0.175c0,0.059-0.029,0.131-0.087,0.218
			c-0.059,0.087-0.087,0.146-0.087,0.175c-0.146,0.059-0.263,0.19-0.35,0.393c-0.175,0.233-0.263,0.379-0.263,0.437
			c-0.029,0-0.072,0.043-0.131,0.131s-0.116,0.117-0.175,0.087c-0.059,0.292-0.16,0.452-0.306,0.48
			c-0.146,0.553-0.379,0.932-0.698,1.136c0,0.029-0.016,0.081-0.044,0.153c-0.029,0.073-0.059,0.138-0.088,0.196
			c-0.029,0-0.059,0.022-0.087,0.065c-0.029,0.044-0.059,0.066-0.087,0.066c-0.292,0.582-0.568,0.888-0.83,0.917
			c-0.117,0.058-0.277,0.225-0.48,0.502c-0.204,0.276-0.408,0.429-0.611,0.458c-0.029,0-0.06,0.029-0.088,0.087
			c-0.029,0.058-0.059,0.087-0.087,0.087c-0.204,0-0.35,0.072-0.438,0.218c-0.059,0-0.102-0.015-0.131-0.043
			c-0.029,0.058-0.073,0.102-0.131,0.131c-0.059,0.029-0.131,0.044-0.219,0.044c-0.087,0-0.146,0-0.174,0
			c-0.03,0-0.073,0.021-0.132,0.065c-0.059,0.043-0.124,0.072-0.196,0.087c-0.073,0.014-0.139,0.021-0.196,0.021
			c-0.467,0-0.933-0.16-1.397-0.48c-0.642-0.437-1.034-0.815-1.18-1.135l-0.044-0.087c0-0.059,0.015-0.103,0.044-0.131
			c-0.117-0.029-0.262-0.262-0.437-0.699c-0.059-0.087-0.124-0.196-0.197-0.328c-0.072-0.131-0.124-0.225-0.152-0.284
			c-0.146-0.408-0.233-0.655-0.262-0.743c-0.03-0.058-0.052-0.146-0.066-0.262c-0.015-0.116-0.021-0.203-0.021-0.262
			c0-0.029-0.015-0.094-0.044-0.197c-0.029-0.102-0.059-0.189-0.087-0.262C6.444,74.646,6.43,74.58,6.43,74.521
			c0-0.058-0.008-0.197-0.021-0.415c-0.016-0.218-0.037-0.371-0.065-0.458c0-0.029,0.014-0.058,0.043-0.087
			c0.029-0.029,0.029-0.072,0-0.131c-0.029-0.116-0.043-0.306-0.043-0.568v-1.398c0-0.058,0.014-0.102,0.043-0.131
			c0.029-0.029,0.044-0.058,0.044-0.087v-0.131c0-0.029-0.008-0.094-0.021-0.197c-0.016-0.102-0.022-0.196-0.022-0.284
			c0-0.058,0.007-0.16,0.022-0.306c0.014-0.145,0.021-0.262,0.021-0.349v-0.218c0-0.029,0.015-0.073,0.044-0.131
			c0.028-0.058,0.044-0.116,0.044-0.175c0-0.058-0.008-0.145-0.022-0.262c-0.015-0.116-0.021-0.189-0.021-0.219
			c0.058-0.232,0.087-0.364,0.087-0.393c0.059-1.019,0.146-1.63,0.263-1.834c-0.059-0.349-0.088-0.625-0.088-0.83
			c0-0.175,0.029-0.306,0.088-0.393v-0.175c0-0.291,0.043-0.465,0.131-0.524L6.866,64.65c0.029-0.058,0.051-0.197,0.066-0.415
			c0.014-0.218,0.05-0.356,0.108-0.415l-0.043-0.043c-0.029-0.058-0.029-0.102,0-0.131c0-0.058,0.021-0.124,0.065-0.196
			c0.043-0.072,0.065-0.124,0.065-0.153c-0.029-0.058-0.044-0.16-0.044-0.306c0-0.291,0.058-0.553,0.175-0.786
			c0.146-0.699,0.232-1.092,0.262-1.179c0-0.087,0.022-0.175,0.065-0.262c0.044-0.087,0.066-0.145,0.066-0.174
			c0.028-0.058,0.043-0.131,0.043-0.219c0-0.174,0.044-0.393,0.131-0.655c0.088-0.262,0.132-0.495,0.132-0.699
			c0.028-0.028,0.058-0.065,0.087-0.109c0.028-0.044,0.058-0.08,0.087-0.109v-0.043c-0.029-0.029-0.043-0.058-0.043-0.087
			c0-0.058,0.014-0.146,0.043-0.262c0.059-0.058,0.088-0.116,0.088-0.175c0.028-0.058,0.058-0.146,0.087-0.262
			c0.029-0.116,0.044-0.189,0.044-0.218c0.028-0.087,0.08-0.189,0.153-0.306c0.072-0.116,0.123-0.189,0.152-0.218v-0.262
			c0.116-0.058,0.175-0.116,0.175-0.175c0.088,0,0.189-0.021,0.306-0.065C9.254,56.679,9.327,56.657,9.356,56.657z"/>
		<path fill="#231F20" d="M20.844,65.262c0.786,0.321,1.251,0.611,1.397,0.874c0.116,0.087,0.255,0.233,0.415,0.437
			c0.159,0.204,0.284,0.335,0.371,0.393c0,0.029,0.015,0.073,0.044,0.131c0.028,0.059,0.028,0.117,0,0.175
			c0.087,0.059,0.159,0.16,0.218,0.306c0.059,0.146,0.116,0.233,0.175,0.262c0,0.087,0.022,0.182,0.065,0.284
			c0.044,0.103,0.066,0.182,0.066,0.24c0.174,0.204,0.262,0.35,0.262,0.437c0,0.059-0.008,0.131-0.021,0.218
			c-0.016,0.087-0.022,0.146-0.022,0.175c0,0.059,0.029,0.146,0.088,0.262c0,0.35,0.014,0.554,0.043,0.612
			c-0.029,0.029-0.059,0.131-0.087,0.306c-0.029,0.175-0.073,0.292-0.131,0.35c0.058,0.059,0.087,0.189,0.087,0.393v0.306
			c-0.087,0.029-0.168,0.109-0.24,0.24c-0.073,0.131-0.139,0.211-0.196,0.24c-0.029,0.204-0.139,0.408-0.328,0.611
			c-0.189,0.204-0.313,0.364-0.371,0.48c0.029,0.233,0.131,0.452,0.306,0.655h0.088c0.087,0,0.182-0.022,0.284-0.065
			c0.102-0.044,0.181-0.066,0.24-0.066h0.087c0.087-0.058,0.24-0.124,0.459-0.196c0.218-0.072,0.355-0.124,0.414-0.153
			c0.583-0.291,0.946-0.437,1.093-0.437c0.146-0.203,0.232-0.32,0.262-0.349c0.028,0,0.058,0.015,0.087,0.043l0.044,0.044
			l0.35-0.306c0.058,0,0.116-0.036,0.175-0.109c0.058-0.072,0.131-0.109,0.219-0.109h0.087c0.232-0.203,0.713-0.539,1.441-1.004
			c0.058-0.029,0.146-0.044,0.262-0.044c0.029,0,0.088-0.028,0.175-0.087c0.088-0.058,0.16-0.102,0.219-0.131
			c0.058,0,0.131-0.014,0.218-0.043c0.088-0.029,0.146-0.044,0.175-0.044c0.088-0.029,0.204-0.109,0.35-0.24
			c0.146-0.131,0.263-0.211,0.35-0.24c0.087,0,0.16-0.014,0.219-0.043c0.058,0,0.131-0.044,0.218-0.131
			c0.291-0.087,0.451-0.131,0.48-0.131h0.088c0.058-0.029,0.131-0.043,0.218-0.043h0.786c0.116,0.087,0.189,0.196,0.219,0.327
			c0.028,0.131,0.044,0.299,0.044,0.502c0,0.204,0.014,0.35,0.043,0.437c-0.203,0.117-0.32,0.175-0.349,0.175
			c-0.204,0.408-0.365,0.626-0.48,0.655v0.306c-0.292,0.233-0.467,0.452-0.524,0.655h-0.087c-0.088,0-0.175,0.073-0.263,0.218
			c-0.32,0.087-0.626,0.335-0.917,0.743c-0.088,0-0.183,0.059-0.284,0.175c-0.103,0.117-0.182,0.19-0.24,0.218
			c-0.059,0.029-0.139,0.051-0.24,0.065c-0.103,0.015-0.182,0.037-0.24,0.066c-0.029,0-0.051,0.029-0.065,0.087
			c-0.015,0.059-0.037,0.087-0.065,0.087c-0.087,0-0.196,0.066-0.327,0.197c-0.132,0.131-0.256,0.196-0.372,0.196
			c-0.029,0-0.059,0.015-0.087,0.044c-0.029,0.059-0.073,0.087-0.131,0.087c-0.029,0.029-0.044,0.059-0.044,0.087
			c0,0.029-0.015,0.059-0.044,0.087c-0.641,0.291-0.976,0.437-1.004,0.437c-0.146,0.087-0.35,0.204-0.612,0.35
			c-0.262,0.146-0.437,0.248-0.523,0.306c-0.059-0.029-0.131-0.043-0.219-0.043c-0.087,0-0.189,0.029-0.306,0.087
			c-0.116,0.059-0.204,0.087-0.262,0.087c-0.233,0.146-0.379,0.219-0.438,0.219c-0.087,0-0.146-0.015-0.174-0.044
			c-0.03,0-0.06,0.022-0.088,0.065c-0.029,0.044-0.059,0.065-0.087,0.065h-0.568c-0.641,0.175-1.223,0.262-1.747,0.262
			c-0.35,0-0.641-0.043-0.873-0.131c-0.06-0.029-0.103-0.036-0.132-0.022c-0.029,0.015-0.059,0.022-0.087,0.022
			c-0.786-0.175-1.456-0.451-2.009-0.83c0.028-0.028,0.028-0.058,0-0.087l-0.044-0.043c-0.088,0-0.175-0.014-0.263-0.044
			c-0.029-0.058-0.102-0.167-0.218-0.327c-0.117-0.16-0.175-0.284-0.175-0.372c-0.262-0.029-0.408-0.175-0.437-0.437
			c-0.029,0-0.065-0.007-0.109-0.022c-0.044-0.014-0.095-0.022-0.153-0.022c-0.349-0.32-0.698-0.961-1.048-1.922
			c0.058-0.028,0.065-0.072,0.021-0.131c-0.043-0.058-0.065-0.102-0.065-0.131c0-0.029,0.015-0.058,0.044-0.087v-0.044l-0.088-0.131
			c-0.029-0.087-0.043-0.32-0.043-0.699v-0.219c0-0.116-0.029-0.298-0.088-0.546c-0.058-0.247-0.087-0.429-0.087-0.546v-0.48
			c0.029,0,0.051-0.036,0.065-0.109c0.015-0.072,0.037-0.109,0.065-0.109c-0.028-0.029-0.044-0.072-0.044-0.131
			c0-0.087,0.044-0.219,0.131-0.394l-0.043-0.087c-0.029-0.058-0.044-0.102-0.044-0.131c0.028-0.087,0.08-0.24,0.153-0.458
			c0.072-0.218,0.152-0.393,0.24-0.524c0.087-0.131,0.188-0.24,0.306-0.328c0-0.175,0.079-0.32,0.24-0.437
			c0.159-0.116,0.254-0.218,0.283-0.306c0.059-0.029,0.146-0.065,0.263-0.109c0.115-0.043,0.203-0.08,0.262-0.109
			c0.175-0.116,0.394-0.306,0.655-0.568c0.028,0,0.072-0.029,0.131-0.087c0.262-0.087,0.451-0.16,0.568-0.218
			c0.058-0.029,0.138-0.058,0.24-0.087c0.102-0.029,0.181-0.058,0.24-0.087l0.262-0.131c0.028,0,0.058,0.015,0.087,0.044h0.088
			c0.175-0.058,0.306-0.087,0.393-0.087c0.059,0,0.132,0.007,0.219,0.022s0.146,0.021,0.175,0.021
			C20.727,65.305,20.785,65.291,20.844,65.262z M20.538,69.368l-0.044,0.043h-0.175c-0.583,0-0.873,0.19-0.873,0.568
			c0,0.059-0.016,0.117-0.044,0.175l-0.131,0.174c0,0.087,0,0.24,0,0.459c0,0.218,0,0.371,0,0.458
			c-0.029,0.087-0.044,0.218-0.044,0.393c0,0.117,0.015,0.204,0.044,0.262c0.115,0.059,0.232,0.087,0.349,0.087
			c0.291,0,0.67-0.131,1.136-0.393c0.204-0.146,0.335-0.276,0.394-0.393c0.028-0.029,0.072-0.058,0.131-0.087
			c0.058-0.029,0.087-0.058,0.087-0.087c0.088-0.233,0.132-0.495,0.132-0.786s-0.044-0.48-0.132-0.568
			C20.96,69.47,20.684,69.368,20.538,69.368z"/>
		<path fill="#231F20" d="M40.717,64.301c0.146,0.029,0.32,0.146,0.524,0.35c0.203,0.204,0.306,0.378,0.306,0.524v0.175
			c0.116,0.204,0.175,0.452,0.175,0.743v1.135c0.028,0,0.065,0.008,0.109,0.022c0.043,0.015,0.08,0.022,0.109,0.022
			c-0.029,0.146-0.044,0.379-0.044,0.699v0.611c0,0.029,0.028,0.087,0.087,0.175s0.088,0.161,0.088,0.218
			c0.087,1.078,0.131,1.631,0.131,1.66c0,0.059,0.028,0.218,0.087,0.48c0.059,0.262,0.088,0.466,0.088,0.611
			c0,0.059-0.008,0.16-0.022,0.306c-0.015,0.146-0.021,0.248-0.021,0.306c0,0.146,0.015,0.248,0.044,0.306
			c-0.029,0.03-0.059,0.051-0.088,0.066s-0.059,0.037-0.087,0.065c0.028,0.029,0.087,0.233,0.175,0.611l0.131,0.524
			c0,0.059,0.007,0.117,0.021,0.174c0.015,0.059,0.022,0.103,0.022,0.131c0,0.087,0.007,0.204,0.021,0.349
			c0.015,0.146,0.021,0.248,0.021,0.306c0,0.117-0.015,0.204-0.043,0.262l0.087,0.262c0.059,0.175,0.088,0.306,0.088,0.393
			c0,0.175-0.059,0.306-0.175,0.393c0.058,0.117,0.072,0.19,0.043,0.218c-0.059,0.175-0.087,0.321-0.087,0.437v1.136
			c0,0.524-0.087,0.888-0.262,1.092c0.028,0.029,0.043,0.087,0.043,0.175c-0.059,0.087-0.087,0.262-0.087,0.524
			c0,0.087-0.044,0.24-0.131,0.459c-0.088,0.219-0.131,0.371-0.131,0.459c0,0.027,0.007,0.072,0.021,0.131
			c0.015,0.058,0.021,0.102,0.021,0.131c-0.029,0.058-0.08,0.174-0.152,0.35c-0.073,0.174-0.109,0.275-0.109,0.305
			s-0.015,0.088-0.044,0.176c0,0.058-0.015,0.102-0.044,0.131l-0.131,0.131c-0.116,0.174-0.218,0.291-0.306,0.35
			c0,0.087-0.029,0.159-0.087,0.219c0-0.03-0.044-0.045-0.131-0.045c-0.059,0.176-0.088,0.291-0.088,0.35
			c-0.204,0.146-0.32,0.219-0.35,0.219c0,0.088-0.015,0.146-0.043,0.175c-0.175,0.175-0.438,0.451-0.786,0.829
			c-0.06,0-0.153,0.037-0.284,0.109s-0.24,0.109-0.328,0.109l-0.262-0.131c-0.116,0.059-0.233,0.088-0.35,0.088
			c-0.291,0-0.437-0.117-0.437-0.35c-0.117,0-0.204-0.051-0.262-0.153c-0.059-0.103-0.117-0.153-0.175-0.153
			c0.028-0.087,0.043-0.203,0.043-0.349c0-0.204-0.029-0.35-0.087-0.437c0.116-0.117,0.116-0.248,0-0.394
			c0.087-0.321,0.175-0.874,0.262-1.659c0,0.028,0.029,0.043,0.088,0.043c0.058,0,0.087-0.015,0.087-0.043
			c0-0.117-0.029-0.328-0.087-0.634c-0.059-0.306-0.088-0.546-0.088-0.721c0-0.233,0.044-0.437,0.132-0.611
			c-0.06-0.059-0.088-0.131-0.088-0.219c0-0.117,0.028-0.233,0.088-0.349c-0.06-0.117-0.088-0.204-0.088-0.262
			c0-0.059,0.007-0.124,0.021-0.196c0.015-0.073,0.022-0.125,0.022-0.153v-0.087c0-0.03-0.016-0.059-0.044-0.087
			c-0.029-0.029-0.044-0.059-0.044-0.087l0.044-0.219c0-0.058-0.029-0.131-0.087-0.218c-0.059-0.087-0.088-0.146-0.088-0.175
			c0-0.087,0.029-0.218,0.088-0.393c0.058-0.174,0.087-0.291,0.087-0.349c0-0.116-0.015-0.189-0.044-0.219
			c-0.029-0.028-0.072-0.043-0.131-0.043c0-0.029-0.008-0.08-0.021-0.153c-0.016-0.072-0.037-0.116-0.065-0.131
			c-0.029-0.015-0.059-0.022-0.088-0.022c-0.466,0.292-0.859,0.466-1.179,0.524c-0.292,0.204-0.729,0.379-1.311,0.524
			c-0.059,0-0.103-0.029-0.131-0.087c-0.029,0-0.044-0.007-0.044-0.022c0-0.014-0.015-0.022-0.044-0.022
			c-0.116,0.059-0.218,0.087-0.306,0.087c-0.262,0-0.451-0.058-0.567-0.175c-0.263,0.087-0.568,0.022-0.918-0.196
			c-0.349-0.218-0.626-0.328-0.829-0.328c-0.029-0.029-0.095-0.087-0.197-0.175c-0.102-0.087-0.168-0.189-0.196-0.306
			c-0.059,0.029-0.103,0.015-0.131-0.043c-0.059-0.058-0.103-0.087-0.131-0.087c-0.408-0.669-0.627-1.121-0.655-1.354
			c-0.059,0-0.146-0.058-0.262-0.175v-0.044c0.028-0.028,0.043-0.058,0.043-0.087c0-0.087-0.065-0.196-0.196-0.327
			c-0.131-0.131-0.212-0.24-0.24-0.328c-0.029-0.058-0.044-0.146-0.044-0.262c0-0.116-0.007-0.204-0.021-0.262
			c-0.015-0.058-0.065-0.102-0.153-0.131c0-0.058-0.007-0.146-0.021-0.262c-0.015-0.116-0.021-0.189-0.021-0.218
			c0-0.116,0.014-0.189,0.043-0.218c-0.087-0.029-0.139-0.109-0.152-0.24c-0.016-0.131-0.052-0.197-0.109-0.197
			c0-0.029,0.015-0.072,0.044-0.131c0.028-0.058,0.043-0.102,0.043-0.131c-0.059-0.174-0.087-0.306-0.087-0.393v-0.786
			c0.028-0.058,0.065-0.16,0.109-0.306c0.044-0.146,0.094-0.247,0.152-0.306V68.8c0.175-0.116,0.306-0.276,0.394-0.48v-0.175
			c0.087-0.087,0.188-0.247,0.306-0.48c0.175-0.116,0.291-0.204,0.35-0.262l0.044-0.087c0.028-0.028,0.043-0.058,0.043-0.087
			l0.175-0.131c0.028-0.029,0.065-0.087,0.109-0.175s0.08-0.146,0.109-0.175c0.028-0.028,0.072-0.058,0.131-0.087
			c0.058-0.028,0.087-0.058,0.087-0.087c0.059-0.058,0.116-0.146,0.175-0.262c0.146-0.146,0.335-0.218,0.568-0.218
			c0-0.087,0.058-0.16,0.175-0.219c0.115-0.028,0.247-0.087,0.393-0.174c0.146-0.087,0.232-0.131,0.263-0.131l0.437-0.175
			c0.146-0.058,0.363-0.094,0.655-0.109c0.29-0.015,0.494-0.036,0.611-0.065c0.058-0.029,0.146-0.058,0.262-0.087
			c0.116-0.029,0.203-0.058,0.263-0.087C35.65,65.015,35.796,65,36,65c0.116,0,0.269,0.008,0.458,0.022
			c0.189,0.015,0.313,0.022,0.372,0.022c0.698,0.029,1.28,0.204,1.747,0.524c0.058-0.087,0.146-0.203,0.262-0.349
			c0.116-0.146,0.211-0.269,0.284-0.372c0.072-0.102,0.182-0.189,0.327-0.262c0.146-0.072,0.306-0.109,0.48-0.109
			C40.163,64.359,40.426,64.301,40.717,64.301z M35.126,68.232c-0.146,0-0.299,0.109-0.458,0.328
			c-0.161,0.218-0.299,0.342-0.415,0.371c0.028,0.175-0.016,0.277-0.131,0.306c0,0.117-0.029,0.233-0.088,0.35
			c0.029,0.117,0.051,0.27,0.065,0.458c0.015,0.19,0.022,0.313,0.022,0.371c0.028,0.233,0.188,0.583,0.48,1.048
			c0.29,0.466,0.421,0.859,0.393,1.179c0.407,0.496,0.655,0.801,0.742,0.917h0.088c0.146,0,0.276-0.116,0.393-0.35l-0.131-0.262
			c0.029-0.087,0.029-0.247,0-0.48c-0.029-0.233-0.015-0.378,0.044-0.437c0.028-0.058,0.028-0.16,0-0.306
			c-0.059-0.233-0.087-0.393-0.087-0.48v-0.175c0-0.087,0.007-0.218,0.021-0.393s0.021-0.306,0.021-0.393
			c0-0.146-0.015-0.262-0.043-0.35c-0.175-0.174-0.263-0.349-0.263-0.524c0-0.029,0.007-0.065,0.022-0.109
			c0.014-0.043,0.021-0.08,0.021-0.109c0-0.058-0.037-0.102-0.109-0.131c-0.073-0.028-0.124-0.058-0.152-0.087
			C35.504,68.479,35.359,68.232,35.126,68.232z"/>
		<path fill="#231F20" d="M53.995,65.218c0.058,0,0.131,0.015,0.218,0.043c0.088,0.029,0.146,0.043,0.175,0.043
			c0.028,0,0.072-0.014,0.131-0.043l0.088,0.043l0.087,0.044c0.466,0.087,0.757,0.189,0.874,0.306
			c0.058,0.117,0.115,0.204,0.175,0.262c0.028,0.029,0.072,0.059,0.131,0.087c0.087,0.059,0.146,0.117,0.175,0.175
			c0.028,0.029,0.043,0.08,0.043,0.153s0.029,0.124,0.088,0.153c-0.059,0.087-0.088,0.204-0.088,0.349
			c0,0.087,0.022,0.233,0.065,0.437c0.044,0.204,0.051,0.349,0.022,0.437v0.044c-0.029,0.029-0.044,0.059-0.044,0.087
			c0,0.029-0.008,0.102-0.021,0.218c-0.016,0.117-0.037,0.19-0.065,0.218l-0.088,0.087v0.175c0,0.204,0.029,0.335,0.088,0.393
			c0.028,0,0.014,0.029-0.044,0.087c0,0.029,0.015,0.051,0.044,0.065c0.028,0.015,0.028,0.037,0,0.065
			c-0.059,0.641-0.117,1.005-0.175,1.092c0.028,0.059,0.043,0.131,0.043,0.218c0,0.175-0.029,0.349-0.087,0.524
			c0.087,0.146,0.131,0.306,0.131,0.48s-0.044,0.306-0.131,0.393c0.028,0.059,0.044,0.219,0.044,0.48
			c0,0.087,0.014,0.146,0.043,0.175v0.306c0,0.321,0.059,0.539,0.175,0.655v0.087c0,0.029,0.015,0.065,0.044,0.109
			c0.028,0.043,0.059,0.087,0.088,0.131c0.028,0.043,0.058,0.095,0.087,0.153c0.087,0.029,0.219,0.043,0.394,0.043
			c0.232,0,0.56-0.072,0.982-0.218c0.422-0.146,0.735-0.232,0.939-0.262c0.087-0.087,0.262-0.181,0.523-0.284
			c0.263-0.102,0.437-0.197,0.524-0.284c0.175-0.029,0.407-0.138,0.699-0.328c0.29-0.189,0.494-0.313,0.611-0.372l0.175-0.087
			c0.087-0.058,0.203-0.16,0.349-0.306c0.088,0,0.204-0.036,0.35-0.109s0.276-0.124,0.394-0.153
			c0.028-0.029,0.072-0.058,0.131-0.087c0.058-0.029,0.123-0.066,0.196-0.109c0.072-0.043,0.138-0.08,0.196-0.109l0.263-0.131
			c0.203-0.087,0.524-0.16,0.961-0.218c0.116-0.058,0.188-0.087,0.218-0.087c0.059-0.029,0.16-0.044,0.307-0.044
			c0.465,0,0.698,0.233,0.698,0.699c0,0.349-0.175,0.568-0.524,0.655c-0.029,0-0.036,0.022-0.021,0.066
			c0.015,0.043,0.021,0.081,0.021,0.109c-0.378,0.379-0.611,0.583-0.698,0.612c-0.029,0.029-0.088,0.102-0.175,0.218
			c-0.088,0.117-0.175,0.175-0.262,0.175c-0.029,0.117-0.088,0.211-0.175,0.284c-0.088,0.073-0.212,0.139-0.372,0.197
			c-0.16,0.059-0.27,0.102-0.327,0.131c0,0.059-0.103,0.218-0.306,0.48c-0.146,0-0.306,0.117-0.48,0.35
			c-0.146,0.029-0.262,0.117-0.35,0.262c-0.029,0-0.16,0.073-0.393,0.219c-0.088,0-0.161,0.029-0.219,0.087
			c-0.059,0.059-0.117,0.087-0.175,0.087c-0.059,0.059-0.146,0.131-0.262,0.219c-0.117,0.087-0.204,0.16-0.263,0.218h-0.175
			c-0.059,0.059-0.233,0.204-0.523,0.437c-0.204,0.03-0.408,0.131-0.611,0.306c-0.204,0.174-0.379,0.277-0.524,0.306l-0.175,0.087
			c-0.35,0.059-0.583,0.117-0.699,0.174h-0.175c-0.059,0-0.102,0.029-0.131,0.087c-0.029,0.029-0.059,0.044-0.087,0.044
			c-0.117,0-0.248,0-0.394,0s-0.262,0.014-0.35,0.043c0-0.029-0.036-0.051-0.108-0.065c-0.073-0.015-0.109-0.037-0.109-0.065
			c-0.292-0.059-0.452-0.146-0.48-0.262c-0.088,0-0.131,0.015-0.131,0.044c-0.233-0.087-0.35-0.146-0.35-0.175
			c-0.175-0.029-0.357-0.124-0.546-0.284c-0.189-0.16-0.343-0.254-0.459-0.284c0-0.029-0.015-0.058-0.044-0.087
			c-0.029-0.029-0.029-0.058,0-0.087c-0.116-0.029-0.233-0.109-0.349-0.24c-0.117-0.131-0.204-0.211-0.263-0.24
			c-0.059-0.058-0.087-0.131-0.087-0.218c-0.117-0.029-0.219-0.116-0.306-0.262c-0.088-0.146-0.146-0.232-0.175-0.262l-0.306,0.131
			c0,0.204-0.117,0.335-0.35,0.393c-0.029,0.029-0.029,0.059,0,0.087c0.028,0.029,0.044,0.059,0.044,0.087
			c-0.088,0.117-0.219,0.218-0.394,0.306c0,0.059-0.029,0.117-0.087,0.175c-0.059,0.059-0.088,0.117-0.088,0.175h-0.087
			c-0.088,0-0.183,0.021-0.284,0.065c-0.103,0.043-0.168,0.065-0.196,0.065c-0.583,0.496-1.18,0.699-1.791,0.611
			c-0.029,0.029-0.095,0.051-0.196,0.065c-0.103,0.015-0.168,0.022-0.196,0.022c-0.088,0-0.204-0.036-0.35-0.109
			c-0.146-0.072-0.263-0.109-0.35-0.109l-0.437,0.043c-0.117,0-0.204-0.014-0.263-0.043c-0.029-0.029-0.08-0.065-0.152-0.109
			c-0.073-0.043-0.124-0.08-0.153-0.109c-0.116-0.029-0.364-0.175-0.742-0.437c-0.408-0.291-0.83-0.713-1.267-1.267
			c-0.029-0.058-0.073-0.116-0.131-0.175c-0.059-0.058-0.109-0.116-0.153-0.175c-0.044-0.058-0.065-0.131-0.065-0.218l-0.175-0.131
			c-0.029-0.058-0.087-0.138-0.175-0.24c-0.087-0.102-0.152-0.204-0.196-0.306s-0.065-0.211-0.065-0.328v-0.131
			c-0.146-0.145-0.219-0.349-0.219-0.611c0-0.087-0.021-0.197-0.065-0.328s-0.065-0.225-0.065-0.284
			c0-0.087,0.044-0.175,0.131-0.262c-0.059,0-0.087-0.058-0.087-0.175c0.058-0.116,0.102-0.175,0.131-0.175
			c-0.088-0.087-0.131-0.174-0.131-0.262c0-0.058,0.072-0.233,0.218-0.524c0.029-0.058,0.029-0.102,0-0.131
			c-0.029-0.029-0.043-0.058-0.043-0.087c0.028-0.116,0.079-0.284,0.152-0.502c0.072-0.218,0.124-0.371,0.153-0.458
			c0.028-0.087,0.079-0.197,0.152-0.328c0.072-0.131,0.124-0.211,0.153-0.24v-0.131c0-0.233,0.072-0.393,0.218-0.48
			c0.059-0.32,0.233-0.568,0.524-0.743v-0.218c0.088,0,0.203-0.16,0.35-0.48c0.146-0.204,0.219-0.334,0.219-0.393l0.174-0.044
			c0.029-0.145,0.124-0.306,0.284-0.48c0.16-0.174,0.255-0.32,0.284-0.437h0.087c0.059,0,0.146-0.022,0.263-0.065
			c0.116-0.044,0.203-0.066,0.262-0.066h0.131c0.029,0,0.088,0,0.175,0c0.088,0,0.175,0,0.263,0c0.087,0,0.159,0,0.218,0
			l0.088,0.044c0.087,0.029,0.159,0.043,0.218,0.043c0.029,0.029,0.072,0.073,0.131,0.131l0.132,0.043l0.043,0.087
			c0.088,0,0.132,0.015,0.132,0.044c0.028,0,0.043,0.029,0.043,0.087c0,0.059,0.015,0.087,0.044,0.087
			c0.028,0.059,0.072,0.109,0.131,0.153c0.059,0.044,0.088,0.081,0.088,0.109c0,0.408,0.072,0.67,0.218,0.786
			c-0.029,0.029-0.029,0.103,0,0.218c0.029,0.117,0.044,0.19,0.044,0.219c0,0.029-0.015,0.059-0.044,0.087
			c0.029,0.029,0.072,0.073,0.131,0.131l0.044,0.087c0.059,0.437,0.131,0.685,0.219,0.743v0.087
			c-0.029,0.03-0.044,0.059-0.044,0.087c0,0.262-0.015,0.408-0.044,0.437c0,0.029,0.007,0.103,0.022,0.218
			c0.014,0.117,0.036,0.19,0.065,0.218c-0.146,0.35-0.219,0.612-0.219,0.787l0.044,0.087c0,0.059,0,0.103,0,0.131
			c-0.029,0.029-0.117,0.218-0.263,0.568c-0.059,0.059-0.116,0.087-0.174,0.087c0,0.059,0.014,0.131,0.043,0.218
			c0.116,0.087,0.175,0.218,0.175,0.393s-0.044,0.335-0.131,0.48c0.087,0.175,0.131,0.539,0.131,1.092
			c0.059-0.028,0.124-0.094,0.196-0.196c0.073-0.102,0.139-0.167,0.197-0.197c0-0.175,0.058-0.306,0.175-0.393
			c-0.029-0.029-0.029-0.058,0-0.087l0.043-0.043c0.059-0.029,0.109-0.102,0.153-0.219c0.044-0.116,0.109-0.203,0.196-0.262
			c0-0.087,0.044-0.182,0.131-0.284c0.088-0.102,0.132-0.181,0.132-0.24c0.058-0.028,0.115-0.094,0.174-0.196
			c0.059-0.102,0.116-0.182,0.175-0.24h-0.043l-0.044-0.044c0-0.028,0.044-0.043,0.131-0.043c0.175-0.408,0.276-0.728,0.306-0.961
			c0.116-0.116,0.16-0.233,0.131-0.35c0.059,0,0.116-0.043,0.175-0.131c0.029-0.058,0.015-0.102-0.043-0.131l-0.044-0.131v-0.087
			c0-0.203,0.044-0.32,0.131-0.349c-0.029-0.029-0.044-0.087-0.044-0.175s0.022-0.218,0.065-0.393
			c0.044-0.175,0.065-0.291,0.065-0.35v-0.087c0.029-0.028,0.066-0.072,0.109-0.131c0.044-0.058,0.095-0.131,0.153-0.218
			c0.058-0.087,0.102-0.146,0.131-0.175c-0.029-0.058-0.044-0.131-0.044-0.218c0-0.175,0.072-0.306,0.219-0.393
			c-0.029-0.058-0.044-0.146-0.044-0.262c0-0.233,0.088-0.465,0.262-0.699c0.059-0.029,0.116-0.015,0.175,0.043l0.132,0.087
			c0.028,0,0.036-0.029,0.021-0.087c-0.015-0.058-0.008-0.087,0.021-0.087c0.059-0.029,0.16-0.029,0.306,0
			c0.233-0.175,0.364-0.262,0.394-0.262c0.028,0,0.065-0.014,0.109-0.043C53.929,65.233,53.966,65.218,53.995,65.218z"/>
		<path fill="#231F20" d="M65.612,64.039c0.059,0,0.109,0.015,0.153,0.044c0.044,0.029,0.087,0.059,0.131,0.087
			c0.044,0.029,0.095,0.059,0.153,0.087c0.058,0.029,0.102,0.059,0.131,0.087c0,0.087,0.051,0.196,0.152,0.327
			c0.102,0.131,0.153,0.24,0.153,0.328c0,0.029-0.015,0.059-0.044,0.087c-0.059,0.059-0.087,0.103-0.087,0.131v0.349
			c-0.059,0.35-0.088,0.699-0.088,1.048c-0.029,0.029-0.059,0.073-0.087,0.131c-0.029,0.059-0.059,0.087-0.088,0.087
			c0.029,0.117,0.044,0.306,0.044,0.568c0,0.233-0.015,0.408-0.044,0.524c0,0.029-0.007,0.081-0.021,0.153
			c-0.015,0.073-0.021,0.138-0.021,0.196c0,0.408-0.029,0.641-0.088,0.699c0,0.059,0.029,0.146,0.088,0.262
			c0.058,0.117,0.087,0.218,0.087,0.306c0,0.059-0.021,0.117-0.065,0.175c-0.044,0.059-0.065,0.117-0.065,0.175v0.262
			c0,0.291-0.044,0.48-0.131,0.568c0.058,0.087,0.072,0.218,0.043,0.393c-0.029,0.174-0.029,0.306,0,0.393
			c-0.174,0.233-0.262,0.495-0.262,0.786c0,0.029,0.021,0.087,0.065,0.175s0.051,0.16,0.022,0.218c0,0.029,0.021,0.059,0.065,0.087
			c0.043,0.029,0.065,0.059,0.065,0.087c0,0.029-0.029,0.102-0.088,0.218c0.029,0.029,0.044,0.175,0.044,0.437v0.175v0.48
			c0.087,0.087,0.219,0.131,0.394,0.131c0.145,0,0.421-0.058,0.829-0.175l1.049-0.524c0.058-0.058,0.138-0.109,0.24-0.153
			c0.102-0.043,0.167-0.08,0.196-0.109c0.262-0.204,0.437-0.32,0.524-0.35c0.146-0.116,0.451-0.32,0.917-0.611
			c0.466-0.291,0.801-0.539,1.005-0.743h0.087c0.028-0.029,0.059-0.043,0.088-0.043c0.028-0.029,0.065-0.08,0.108-0.153
			c0.044-0.072,0.08-0.123,0.109-0.153c0.029-0.028,0.102-0.08,0.219-0.153c0.116-0.072,0.203-0.124,0.262-0.153
			c0.263-0.175,0.407-0.262,0.437-0.262h0.132c0-0.029,0.043-0.066,0.131-0.109c0.087-0.044,0.159-0.051,0.218-0.022h0.219h0.175
			c0.058-0.029,0.16-0.043,0.306-0.043c0.088,0,0.219,0.043,0.394,0.131c0.29,0.204,0.437,0.379,0.437,0.524
			c0.028,0.029,0.028,0.059,0,0.087c-0.029,0.059-0.044,0.103-0.044,0.131c-0.029,0.059-0.044,0.102-0.044,0.131
			c0,0.087,0,0.146,0,0.175c-0.029,0.029-0.043,0.073-0.043,0.131c-0.146,0.233-0.219,0.393-0.219,0.48
			c-0.087,0-0.152,0.059-0.196,0.175c-0.044,0.117-0.081,0.19-0.109,0.218c-0.059,0-0.103,0.008-0.131,0.022
			c-0.029,0.015-0.059,0.022-0.088,0.022c-0.059,0.059-0.116,0.175-0.175,0.349c-0.407,0.321-0.641,0.54-0.698,0.655h-0.219
			c0,0.029-0.021,0.065-0.065,0.109c-0.044,0.043-0.065,0.081-0.065,0.109c-0.059,0.03-0.131,0.095-0.219,0.197
			c-0.087,0.103-0.175,0.182-0.262,0.24c-0.029,0.029-0.087,0.043-0.175,0.043l-0.262,0.219c-0.059,0.029-0.16,0.117-0.306,0.262
			c-0.438,0.029-0.729,0.233-0.874,0.612c-0.204,0.117-0.32,0.204-0.35,0.262c-0.029,0-0.131,0.044-0.306,0.131l-0.262,0.131
			c-0.175,0-0.394,0.103-0.655,0.306h-0.175c-0.029,0.029-0.065,0.073-0.109,0.131c-0.043,0.059-0.08,0.102-0.109,0.131h-0.131
			c-0.087,0-0.189,0.029-0.306,0.087c-0.116,0.059-0.204,0.087-0.262,0.087c-0.029,0-0.073-0.015-0.131-0.044
			c-0.175,0.146-0.365,0.233-0.568,0.262c-0.029,0.059-0.116,0.116-0.262,0.175c-0.146,0.058-0.233,0.102-0.262,0.131
			c-0.175-0.059-0.307-0.087-0.394-0.087h-0.262c-0.088-0.029-0.19-0.095-0.306-0.196c-0.117-0.102-0.204-0.167-0.263-0.197
			l-0.393-0.218c-0.117-0.087-0.277-0.24-0.48-0.458c-0.204-0.218-0.35-0.372-0.438-0.458c0.029-0.029,0.029-0.058,0-0.087
			c-0.029-0.029-0.043-0.058-0.043-0.087c-0.117-0.058-0.256-0.233-0.415-0.524c-0.16-0.291-0.284-0.48-0.371-0.568
			c-0.029-0.058-0.029-0.116,0-0.174c-0.059-0.058-0.103-0.087-0.132-0.087c-0.029-0.058-0.087-0.233-0.174-0.524
			c-0.088-0.291-0.146-0.524-0.175-0.699c0-0.087-0.037-0.247-0.109-0.48c-0.073-0.233-0.109-0.407-0.109-0.524
			c0-0.116,0.044-0.219,0.131-0.306l-0.044-0.087c-0.029-0.058-0.059-0.102-0.087-0.131c0.058-0.465,0.203-1.251,0.437-2.358
			c0-0.029,0.029-0.065,0.088-0.109c0.058-0.043,0.087-0.08,0.087-0.109c0-0.175-0.029-0.32-0.087-0.437
			c0.058-0.087,0.116-0.262,0.175-0.524c0.058-0.262,0.131-0.451,0.218-0.568l-0.043-0.044c0-0.028,0-0.058,0-0.087
			c0-0.058,0.028-0.153,0.087-0.284c0.058-0.131,0.087-0.211,0.087-0.24v-0.175c0-0.058,0.088-0.262,0.263-0.611
			c0.146-0.262,0.247-0.422,0.306-0.48v-0.218c0.32-0.32,0.48-0.524,0.48-0.612c0.058,0,0.102-0.028,0.131-0.087
			c0.028-0.058,0.058-0.087,0.087-0.087c0-0.028,0.007-0.065,0.022-0.109c0.015-0.044,0.021-0.094,0.021-0.153
			C64.695,64.083,65.06,64.039,65.612,64.039z M66.225,59.715c0.437,0,0.829,0.087,1.179,0.262c0,0.117,0.088,0.292,0.262,0.524
			c0.029,0.059,0.073,0.131,0.132,0.218l0.043,0.131v0.175c0,0.175-0.059,0.306-0.175,0.393c-0.029,0.059-0.029,0.109,0,0.153
			c0.029,0.044,0.044,0.081,0.044,0.109c-0.059,0.059-0.116,0.153-0.175,0.284c-0.059,0.131-0.103,0.226-0.131,0.284
			c-0.029,0.059-0.073,0.095-0.131,0.109c-0.059,0.015-0.131,0.03-0.219,0.044c-0.087,0.015-0.16,0.037-0.218,0.065
			c-0.029,0-0.065,0.029-0.109,0.087c-0.044,0.059-0.081,0.087-0.109,0.087l-0.35,0.087h-0.262c-0.204,0-0.583-0.102-1.136-0.306
			c-0.029-0.058-0.073-0.197-0.131-0.415c-0.059-0.218-0.117-0.356-0.175-0.415v-0.175c0-0.116,0.028-0.262,0.087-0.437
			c0.029-0.204,0.116-0.378,0.263-0.524c0.028-0.028,0.087-0.072,0.175-0.131c0.232-0.146,0.363-0.291,0.393-0.437
			c0.029,0,0.131-0.028,0.306-0.087C65.962,59.744,66.107,59.715,66.225,59.715z"/>
		<path fill="#231F20" d="M75.135,51.459c0.203,0,0.509,0.029,0.917,0.087c0.088,0.029,0.32,0.204,0.699,0.524
			c0.32,0.233,0.48,0.408,0.48,0.524l-0.044,0.043c0,0.029,0,0.059,0,0.087c0,0.029,0.028,0.073,0.087,0.131
			c0.059,0.059,0.059,0.102,0,0.131c0.116,0,0.204,0.029,0.263,0.087c0.028,0.059,0.109,0.233,0.24,0.524
			c0.131,0.292,0.196,0.51,0.196,0.655c0,0.059-0.029,0.175-0.087,0.35c0.058,0.233,0.087,0.422,0.087,0.568
			c0,0.146-0.029,0.262-0.087,0.349c0.145,0.204,0.218,0.393,0.218,0.568c0,0.059-0.029,0.146-0.087,0.262
			c0.146,0.059,0.218,0.204,0.218,0.437c0,0.146-0.059,0.365-0.174,0.655c0.087,0.175,0.131,0.379,0.131,0.611
			c0,0.233-0.059,0.408-0.175,0.524c0.146,0.204,0.218,0.364,0.218,0.48c0,0.059-0.015,0.117-0.043,0.175l-0.131,0.043v0.131
			c0,0.087,0.007,0.197,0.021,0.328c0.015,0.131,0.021,0.226,0.021,0.284v0.087c-0.029,0.059-0.08,0.138-0.152,0.24
			c-0.073,0.102-0.109,0.167-0.109,0.196c-0.029,0.059-0.044,0.146-0.044,0.262c0,0.117-0.015,0.189-0.044,0.218
			c0,0.029,0.022,0.073,0.066,0.131c0.043,0.059,0.065,0.103,0.065,0.131c-0.059,0.379-0.19,0.699-0.394,0.961
			c0.028,0.059,0.044,0.146,0.044,0.262c0,0.262-0.103,0.437-0.306,0.524c0.028,0.087,0.021,0.168-0.022,0.24
			c-0.043,0.073-0.065,0.124-0.065,0.153v0.131c-0.116,0.059-0.211,0.226-0.283,0.502c-0.073,0.277-0.153,0.444-0.24,0.502v0.218
			l-0.132,0.131c-0.059,0.321-0.146,0.496-0.262,0.524c-0.029,0.292-0.189,0.611-0.48,0.961c0.088,0.117,0.116,0.218,0.088,0.306
			c0.087,0.087,0.159,0.277,0.218,0.568c0,0.029-0.029,0.059-0.087,0.087l-0.044,0.043c0.028,0.087,0.051,0.197,0.065,0.328
			s0.051,0.24,0.109,0.328v0.131c0,0.117,0.021,0.277,0.065,0.48c0.044,0.204,0.065,0.35,0.065,0.437
			c0,0.117-0.044,0.248-0.131,0.393c0,0.029,0.015,0.059,0.044,0.087c0.028,0.029,0.043,0.073,0.043,0.131h-0.175
			c0,0.059,0.029,0.087,0.088,0.087c0.058,0.059,0.087,0.103,0.087,0.131c0,0.262,0.044,0.423,0.131,0.48l-0.043,0.087
			c-0.029,0.059-0.059,0.087-0.088,0.087l0.175,0.35c-0.029,0.029-0.044,0.059-0.044,0.087c0.059,0,0.103,0.059,0.132,0.175
			c0.028,0.117,0.087,0.189,0.175,0.218c0,0.321,0.102,0.626,0.306,0.917c0,0.029-0.016,0.059-0.044,0.087
			c-0.029,0.029-0.029,0.059,0,0.087c0,0.029,0.028,0.073,0.087,0.131c0.059,0.059,0.072,0.117,0.044,0.175
			c0.088,0.029,0.153,0.103,0.196,0.218c0.044,0.117,0.08,0.19,0.109,0.219c0.263,0.292,0.655,0.437,1.18,0.437
			c0.232,0,0.553-0.058,0.961-0.175c0.262-0.087,0.546-0.232,0.852-0.437c0.306-0.204,0.517-0.32,0.633-0.35
			c0.116-0.058,0.263-0.174,0.438-0.349c0.175-0.029,0.356-0.131,0.546-0.306c0.188-0.175,0.342-0.277,0.458-0.306
			c0.32-0.378,0.655-0.64,1.005-0.786c0.116-0.175,0.247-0.276,0.394-0.306c0.028,0,0.043-0.022,0.043-0.065
			c0-0.044,0.015-0.065,0.044-0.065c0.175-0.116,0.32-0.189,0.437-0.219c0.146-0.145,0.276-0.232,0.394-0.262
			c0.116-0.058,0.276-0.182,0.48-0.372c0.203-0.189,0.378-0.313,0.524-0.371c0.203-0.407,0.611-0.611,1.223-0.611
			c0.466,0,0.699,0.218,0.699,0.655c0,0.291-0.088,0.583-0.263,0.874c0,0.029-0.044,0.073-0.131,0.131
			c-0.087,0.059-0.146,0.117-0.175,0.175c-0.029,0.029-0.103,0.124-0.219,0.284c-0.116,0.161-0.218,0.27-0.306,0.328
			c-0.029,0.175-0.16,0.335-0.393,0.48c0,0.059-0.016,0.103-0.044,0.131c-0.029,0.029-0.065,0.066-0.109,0.109
			c-0.043,0.043-0.08,0.081-0.108,0.109c-0.03,0.029-0.06,0.073-0.088,0.131l-0.044,0.043c-0.029,0.03-0.08,0.066-0.152,0.109
			c-0.073,0.044-0.124,0.081-0.153,0.109c-0.495,0.495-0.815,0.771-0.961,0.83v0.175c-0.087,0.059-0.247,0.175-0.48,0.35
			s-0.422,0.328-0.567,0.458c-0.146,0.131-0.277,0.284-0.394,0.458c-0.116,0.029-0.247,0.095-0.393,0.197
			c-0.146,0.102-0.263,0.168-0.35,0.196c-0.059,0.087-0.189,0.197-0.394,0.328c-0.204,0.131-0.335,0.255-0.393,0.372
			c-0.146,0-0.321,0.059-0.524,0.174c-0.204,0.117-0.379,0.19-0.524,0.219c-0.029,0-0.059,0.015-0.087,0.043
			c0,0.059-0.015,0.087-0.044,0.087h-0.175c-0.146,0-0.276,0.029-0.393,0.087h-0.131c-0.059,0-0.161,0.022-0.306,0.065
			c-0.146,0.043-0.248,0.065-0.306,0.065h-0.132l-0.131-0.087c-0.204,0-0.335-0.028-0.393-0.087l-0.044,0.087l-0.044,0.087
			c-0.291,0-0.48-0.058-0.567-0.175c-0.088,0.059-0.219,0.087-0.394,0.087c-0.029,0-0.152-0.014-0.371-0.043
			c-0.219-0.029-0.415-0.029-0.59,0c-0.059-0.029-0.255-0.102-0.59-0.218c-0.335-0.116-0.546-0.247-0.633-0.393
			c-0.059-0.029-0.103-0.029-0.131,0c-0.059,0.029-0.103,0.043-0.131,0.043c0-0.058-0.037-0.102-0.109-0.131
			c-0.073-0.029-0.109-0.058-0.109-0.087c-0.059,0.029-0.117,0.029-0.175,0c-0.059-0.029-0.103-0.044-0.131-0.044
			c-0.146-0.145-0.394-0.328-0.743-0.546c-0.349-0.218-0.597-0.4-0.742-0.546c-0.059-0.146-0.103-0.218-0.131-0.218
			c-0.029-0.058-0.117-0.16-0.262-0.306c-0.146-0.146-0.248-0.262-0.306-0.35v-0.175c-0.03,0-0.066-0.029-0.109-0.087
			c-0.044-0.058-0.095-0.087-0.153-0.087c0-0.087-0.044-0.189-0.131-0.306c-0.087-0.116-0.131-0.218-0.131-0.306l0.044-0.043
			c0-0.029,0-0.058,0-0.087l-0.263-0.524c-0.029-0.058-0.059-0.153-0.087-0.284c-0.029-0.131-0.059-0.24-0.088-0.328
			c0-0.029-0.015-0.058-0.043-0.087c-0.03-0.029-0.044-0.058-0.044-0.087c-0.029-0.058-0.052-0.153-0.065-0.284
			c-0.016-0.131-0.022-0.226-0.022-0.284c0-0.087-0.029-0.211-0.087-0.371c-0.059-0.16-0.103-0.284-0.131-0.372v-0.524
			c0-0.233,0.014-0.407,0.043-0.524c0-0.058-0.015-0.102-0.043-0.131l-0.088-0.131c0-0.087-0.043-0.48-0.131-1.179
			c-0.087-0.699-0.131-1.267-0.131-1.704c0.029-0.029,0.073-0.102,0.131-0.218c0-0.029-0.021-0.058-0.065-0.087
			c-0.044-0.029-0.065-0.058-0.065-0.087c0-0.029,0.008-0.065,0.021-0.109c0.016-0.043,0.022-0.08,0.022-0.109
			c0-0.087-0.015-0.225-0.044-0.415c-0.028-0.189-0.044-0.342-0.044-0.458c0-0.116,0.016-0.204,0.044-0.262
			c-0.058-0.146-0.116-0.465-0.175-0.961c-0.058-0.116-0.087-0.203-0.087-0.262c0-0.028,0.015-0.094,0.043-0.196
			c0.029-0.102,0.044-0.182,0.044-0.24c0-0.058-0.028-0.153-0.087-0.284c-0.059-0.131-0.088-0.24-0.088-0.328
			c0-0.028,0.015-0.072,0.044-0.131c-0.059-0.116-0.088-0.203-0.088-0.262c0-0.058,0.008-0.131,0.022-0.218s0.021-0.146,0.021-0.175
			c0-0.145-0.028-0.247-0.087-0.306c0-0.029,0.029-0.102,0.087-0.218c-0.087-0.291-0.159-0.917-0.219-1.878
			c0-0.028,0.016-0.058,0.044-0.087c0.029-0.029,0.059-0.029,0.088,0c0-0.029-0.015-0.058-0.044-0.087
			c-0.028-0.029-0.044-0.073-0.044-0.131c0.029-0.087,0.029-0.218,0-0.393c-0.028-0.175-0.028-0.306,0-0.393
			c0-0.058,0.016-0.116,0.044-0.175c0.029-0.058,0.044-0.102,0.044-0.131l-0.044-0.175c0-0.175,0.059-0.437,0.175-0.786
			c0.116-0.611,0.32-1.092,0.611-1.441c0.028-0.029,0.044-0.058,0.044-0.087c0-0.028,0-0.087,0-0.175
			c0.028,0,0.043-0.028,0.043-0.087c0-0.087,0.044-0.182,0.132-0.284c0.087-0.102,0.145-0.182,0.175-0.24
			c0-0.029,0.021-0.094,0.065-0.196c0.043-0.102,0.079-0.182,0.108-0.24c0.088-0.029,0.182-0.094,0.284-0.197
			c0.102-0.102,0.196-0.167,0.284-0.197c0-0.116,0.087-0.232,0.262-0.349c0.059-0.116,0.138-0.218,0.24-0.306
			c0.102-0.087,0.233-0.175,0.394-0.262c0.159-0.087,0.269-0.16,0.327-0.218c0.437-0.058,0.801-0.146,1.092-0.262
			c0.059-0.029,0.102-0.029,0.132,0c0.058,0.029,0.102,0.043,0.131,0.043C74.698,51.503,74.901,51.459,75.135,51.459z
			 M75.834,56.439c-0.146,0.029-0.554,0.233-1.224,0.611c0.088,0.087,0.131,0.16,0.131,0.218c0,0.029-0.021,0.087-0.065,0.175
			c-0.043,0.087-0.065,0.161-0.065,0.218c0,0.029,0.022,0.073,0.065,0.131c0.044,0.059,0.065,0.102,0.065,0.131
			c0,0.029-0.036,0.081-0.108,0.153c-0.073,0.073-0.109,0.139-0.109,0.197c0,0.087,0.05,0.248,0.152,0.48
			c0.102,0.233,0.153,0.408,0.153,0.524c0,0.029-0.029,0.109-0.088,0.24s-0.087,0.226-0.087,0.284v0.219
			c0,0.233-0.117,0.422-0.35,0.568c0.116,0.146,0.35,0.524,0.699,1.135c-0.204,0.117-0.306,0.292-0.306,0.524
			c0,0.087,0.021,0.204,0.065,0.349c0.043,0.146,0.065,0.262,0.065,0.35c0.028,0,0.08,0.007,0.152,0.022
			c0.072,0.015,0.139,0.007,0.197-0.022c0.087-0.116,0.131-0.48,0.131-1.092c0-0.32,0.102-0.553,0.306-0.699
			c-0.088-0.087-0.131-0.174-0.131-0.262c0.232-0.175,0.355-0.502,0.371-0.983c0.015-0.48,0.036-0.764,0.065-0.852
			c0-0.029,0.021-0.058,0.065-0.087c0.044-0.029,0.094-0.058,0.153-0.087l0.087-0.087c0.087-0.233,0.131-0.451,0.131-0.655
			C76.357,57.706,76.183,57.138,75.834,56.439z M76.096,70.416l0.087,0.044c0.029-0.029,0.029-0.051,0-0.065
			S76.124,70.387,76.096,70.416z"/>
		<path fill="#231F20" d="M89.767,66.135l0.306,0.131c0.116-0.058,0.219-0.087,0.306-0.087c0.116,0,0.27,0.021,0.459,0.065
			c0.189,0.043,0.327,0.065,0.415,0.065h0.393c0.029,0,0.065-0.022,0.109-0.065c0.044-0.044,0.08-0.065,0.109-0.065
			c0.087,0.029,0.203,0.043,0.35,0.043h0.786l0.044,0.043c0.058,0.03,0.102,0.044,0.131,0.044h0.48l0.262,0.131
			c0.059,0.029,0.153,0.051,0.284,0.065c0.131,0.015,0.211,0.022,0.24,0.022c0.786,0.321,1.281,0.583,1.485,0.786H96.1
			c0,0.059,0.059,0.117,0.175,0.175c0.116,0.233,0.263,0.422,0.438,0.568c0,0.087,0.058,0.19,0.174,0.306
			c0,0.029,0.022,0.117,0.066,0.262c0.043,0.146,0.065,0.262,0.065,0.349v0.087l-0.044,0.131c0,0.059,0.015,0.153,0.044,0.284
			c0.028,0.131,0.043,0.226,0.043,0.284v0.087l-0.087,0.219c0,0.029,0.007,0.065,0.021,0.109c0.015,0.044,0.022,0.081,0.022,0.109
			l-0.044,0.043c0,0.059,0,0.103,0,0.131c0.028,0.059,0.044,0.102,0.044,0.131c0.028,0.087,0.014,0.233-0.044,0.437
			c0,0.059,0.007,0.109,0.021,0.153c0.015,0.043,0.022,0.081,0.022,0.109c0,0.059-0.016,0.131-0.044,0.219
			c-0.029,0.087-0.044,0.146-0.044,0.174c0,0.059,0.029,0.125,0.088,0.197c0.058,0.073,0.087,0.124,0.087,0.153l0.131,0.35V72.6
			c0.116,0.175,0.175,0.321,0.175,0.437c0.175,0.087,0.263,0.161,0.263,0.219c0.29,0.059,0.451,0.117,0.48,0.175
			c0.757,0.059,1.455-0.116,2.096-0.524c0.059-0.087,0.197-0.182,0.415-0.284c0.219-0.102,0.356-0.211,0.415-0.328
			c0.116,0,0.247-0.044,0.394-0.131c0.058-0.028,0.123-0.094,0.196-0.196c0.072-0.102,0.123-0.167,0.153-0.197
			c0.028-0.028,0.079-0.058,0.152-0.087c0.072-0.028,0.109-0.072,0.109-0.131c0.087-0.029,0.196-0.08,0.327-0.153
			c0.132-0.072,0.24-0.124,0.328-0.153c0.058-0.087,0.188-0.16,0.393-0.218c0.059-0.029,0.102-0.08,0.132-0.153
			c0.028-0.073,0.058-0.109,0.087-0.109c0.028-0.029,0.131-0.072,0.306-0.131l0.044-0.087c0.058-0.058,0.102-0.102,0.131-0.131
			c0.058-0.058,0.131-0.116,0.219-0.174c0.087-0.058,0.145-0.102,0.174-0.131c0.263-0.262,0.48-0.393,0.655-0.393
			c0.088,0,0.146,0.015,0.175,0.044c0.407,0.059,0.611,0.262,0.611,0.611v0.262c0,0.262-0.043,0.466-0.131,0.611
			c-0.029,0.059-0.073,0.109-0.131,0.153c-0.059,0.043-0.087,0.081-0.087,0.109c0,0.029-0.008,0.073-0.022,0.131
			c-0.015,0.059-0.029,0.109-0.043,0.153c-0.016,0.044-0.037,0.081-0.066,0.109c-0.087,0.087-0.16,0.146-0.218,0.175l-0.35,0.393
			c-0.204,0.349-0.335,0.539-0.394,0.567c-0.116,0.262-0.306,0.48-0.567,0.655c-0.116,0.233-0.408,0.496-0.873,0.786
			c-0.204,0.233-0.438,0.393-0.699,0.48c-0.059,0-0.103,0.029-0.131,0.087c-0.029,0.059-0.059,0.087-0.088,0.087h-0.131
			c-0.059,0-0.131,0.037-0.219,0.109c-0.087,0.073-0.174,0.109-0.262,0.109c0,0.087-0.073,0.183-0.219,0.284
			c-0.146,0.103-0.233,0.168-0.262,0.196h-0.087c-0.059,0-0.219,0.044-0.48,0.131c-0.117,0.029-0.263,0.059-0.438,0.087
			c-0.174,0.029-0.276,0.043-0.306,0.043c-0.349,0.087-0.539,0.131-0.567,0.131h-0.088v0.043c0,0.029-0.015,0.043-0.043,0.043
			c-0.029,0.03-0.117,0.044-0.263,0.044c-0.059,0-0.131,0.022-0.218,0.065c-0.088,0.043-0.16,0.065-0.219,0.065
			c-0.029,0-0.087-0.022-0.175-0.065c-0.087-0.043-0.16-0.065-0.218-0.065c-0.029,0.029-0.06,0.043-0.088,0.043
			c-0.116-0.058-0.4-0.145-0.852-0.262c-0.452-0.116-0.75-0.262-0.896-0.437c-0.116,0-0.233-0.043-0.35-0.131
			c-0.175-0.087-0.335-0.204-0.48-0.35c-0.087-0.058-0.168-0.124-0.24-0.196s-0.152-0.124-0.24-0.153
			c-0.059-0.058-0.116-0.087-0.175-0.087c-0.059-0.058-0.204,0-0.437,0.174c-0.146,0.059-0.219,0.131-0.219,0.219
			c-0.174,0.029-0.291,0.146-0.349,0.349c-0.642,0.408-0.977,0.612-1.005,0.612c-0.466,0.291-0.859,0.452-1.18,0.48
			c-0.029,0-0.065,0.021-0.108,0.065c-0.044,0.043-0.081,0.065-0.109,0.065c-0.117,0-0.35,0.029-0.699,0.087h-0.131
			c-0.262,0-0.619-0.065-1.07-0.197c-0.451-0.131-0.765-0.211-0.938-0.24c-0.06-0.058-0.153-0.124-0.284-0.196
			c-0.131-0.072-0.226-0.124-0.284-0.153c-0.029-0.029-0.103-0.072-0.219-0.131c-0.029-0.028-0.095-0.102-0.196-0.218
			c-0.103-0.116-0.211-0.189-0.327-0.218c0-0.029-0.016-0.058-0.044-0.087v-0.044c-0.087-0.058-0.219-0.167-0.393-0.327
			c-0.175-0.16-0.321-0.269-0.438-0.328c-0.029-0.058-0.103-0.146-0.218-0.262c-0.117-0.116-0.19-0.218-0.219-0.306
			c-0.029-0.058-0.044-0.146-0.044-0.262l-0.131-0.131c-0.087-0.146-0.189-0.524-0.306-1.136c0-0.32,0.044-0.553,0.131-0.699
			c0-0.029-0.029-0.102-0.087-0.219c0-0.087,0.021-0.196,0.065-0.327c0.044-0.131,0.065-0.24,0.065-0.328
			c0-0.029,0.021-0.051,0.065-0.065s0.065-0.037,0.065-0.066c0-0.116-0.015-0.189-0.044-0.218c0-0.058,0.072-0.146,0.219-0.262
			l-0.044-0.043c0-0.029,0-0.058,0-0.087c0-0.058,0.015-0.124,0.044-0.197c0.028-0.072,0.044-0.124,0.044-0.153
			c0.146,0,0.247-0.072,0.306-0.218c0.028-0.029,0.021-0.058-0.022-0.087c-0.043-0.028-0.065-0.058-0.065-0.087l0.219-0.218
			c0-0.116,0.044-0.233,0.131-0.35c0.088-0.116,0.146-0.189,0.175-0.218l0.306-0.306c0-0.029,0.028-0.043,0.088-0.043
			c0.058,0,0.102-0.015,0.131-0.044v-0.043c0-0.087,0.028-0.16,0.087-0.219c0.059-0.058,0.088-0.102,0.088-0.131v-0.087
			c0.437-0.524,0.8-0.844,1.092-0.961c0.028-0.029,0.044-0.087,0.044-0.175c0.087,0,0.159-0.028,0.218-0.087
			c0.029-0.028,0.059-0.072,0.088-0.131l0.043-0.087c0.029-0.028,0.065-0.028,0.109,0c0.044,0.029,0.08,0.044,0.109,0.044
			c0.175-0.175,0.437-0.262,0.786-0.262h0.262L89.767,66.135z M92.19,68.647c-0.072-0.073-0.138-0.109-0.196-0.109
			s-0.103,0.015-0.131,0.043c-0.029,0.059-0.103,0.087-0.219,0.087c0,0.029-0.007,0.065-0.021,0.109
			c-0.015,0.043-0.021,0.081-0.021,0.109c-0.059,0-0.117,0.029-0.175,0.087c-0.059,0.059-0.117,0.087-0.175,0.087
			c0,0.029-0.117,0.19-0.35,0.48c-0.146,0.262-0.262,0.524-0.35,0.786c-0.116,0.321-0.189,0.597-0.218,0.83
			c0,0.059-0.008,0.131-0.022,0.218s-0.037,0.161-0.065,0.219c0,0.059-0.029,0.182-0.087,0.371
			c-0.059,0.189-0.088,0.328-0.088,0.415v0.131c0.059,0.292,0.233,0.437,0.524,0.437c0.116,0,0.219-0.044,0.306-0.131
			c0.028,0,0.072-0.058,0.131-0.175l0.175-0.174c0-0.029,0.015-0.073,0.044-0.131c0.028-0.058,0.051-0.109,0.065-0.153
			c0.015-0.043,0.021-0.08,0.021-0.109c0.204-0.35,0.306-0.597,0.306-0.743c0.059-0.058,0.189-0.364,0.394-0.917l0.131-0.218
			c0.028-0.087,0.116-0.32,0.262-0.699c0-0.029,0-0.087,0-0.175s0.015-0.16,0.044-0.218c-0.059-0.116-0.087-0.218-0.087-0.306
			C92.329,68.771,92.264,68.72,92.19,68.647z"/>
	</g>
</g>
</svg>
