<?xml version="1.0" encoding="utf-8"?>
<!-- Generator: Adobe Illustrator 16.0.0, SVG Export Plug-In . SVG Version: 6.00 Build 0)  -->
<!DOCTYPE svg PUBLIC "-//W3C//DTD SVG 1.1//EN" "http://www.w3.org/Graphics/SVG/1.1/DTD/svg11.dtd">
<svg version="1.1" id="Layer_1" xmlns="http://www.w3.org/2000/svg" xmlns:xlink="http://www.w3.org/1999/xlink" x="0px" y="0px"
	 width="131.345px" height="71.267px" viewBox="0 0 131.345 71.267" enable-background="new 0 0 131.345 71.267"
	 xml:space="preserve">
<g>
	<path fill="#FFFFFF" d="M23.275,71.267c-1.398,0-2.689-0.16-3.842-0.476c-5.619-1.542-6.552-4.646-7.302-7.139
		c-0.339-1.125-0.657-2.188-1.403-3.249c-0.953-1.356-2.093-1.886-3.534-2.555c-2.433-1.128-5.458-2.533-6.663-8.047
		c-0.866-3.969-0.405-7.592,0.04-11.095c0.144-1.122,0.286-2.244,0.382-3.378c0.425-5.077-0.748-16.697-0.884-18.019
		C-0.919,12.193,8.936,4.066,11.093,2.911C13.734,1.499,18.838,0,23.093,0c1.154,0,2.196,0.112,3.096,0.335
		c2.313,0.574,4.237,2.255,6.099,3.879c1.363,1.192,3.06,2.674,4.026,2.678c1.192,0,2.5-0.914,4.015-1.974
		c2.105-1.474,4.727-3.308,8.241-3.308c0.181,0,0.362,0.005,0.547,0.016c7.86,0.424,9.27,3.791,11.22,8.452
		c0.173,0.411,0.353,0.843,0.547,1.294c1.748,4.071,5.108,5.129,9.963,5.514c0.119,0.011,0.236,0.015,0.348,0.015
		c1.26,0,2.093-0.603,3.578-1.758c1.372-1.068,3.08-2.398,5.637-3.17c1.725-0.521,3.597-1.003,5.604-1.003
		c1.243,0,2.44,0.181,3.662,0.551c1.682,0.511,2.93,1.518,4.029,2.406c0.786,0.635,1.477,1.193,2.086,1.372
		c0.336-0.178,0.929-0.63,1.305-0.917c0.938-0.715,1.907-1.455,3.026-1.789c0.944-0.283,2.017-0.427,3.181-0.427
		c2.191,0,4.109,0.496,5.059,0.793c1.162,0.363,2.083,0.935,2.896,1.439c1.015,0.63,1.625,0.987,2.349,0.987
		c0.091,0,0.185-0.006,0.282-0.018c0.449-0.051,1.1-0.345,1.785-0.681c1.342-0.66,3.012-1.455,5.232-1.455h0.189
		c2.89,0,5.225,1.002,6.938,2.842c3.817,4.104,3.438,11.547,3.136,17.54c-0.076,1.497-0.148,2.906-0.148,4.121
		c0,13.214-6.027,21.419-15.729,21.42c-1.623,0-3.359-0.233-5.161-0.693c-1.903-0.484-3.933-1.348-5.722-2.108l-1.083-0.458
		c-0.847-0.352-1.898-0.792-2.224-0.792c-0.226,0-0.999,0.396-1.818,0.815c-0.421,0.216-0.905,0.463-1.471,0.742
		c-2.619,1.291-5.182,1.919-7.83,1.919c-3.108,0-5.992-0.864-8.91-1.844c-0.35,4.27-1.568,7.568-8.37,9.077
		c-2.148,0.479-3.752,0.692-5.2,0.692c-3.621,0-6.48-1.429-9.271-4.634c-0.944-1.085-1.668-2.319-2.368-3.515
		c-1.434-2.45-2.24-3.604-3.433-3.604c-0.417,0-0.922,0.119-1.5,0.354c-0.848,0.342-2.135,2.003-3.074,3.215
		c-0.724,0.934-1.406,1.816-2.135,2.533c-3.288,3.238-6.448,5.576-9.663,7.149C34.493,68.77,28.95,71.267,23.275,71.267z"/>
	<g>
		<g>
			<path fill="#BE1E2D" d="M34.771,25.782c5.563-13.35-20.47-28.49-23.398-9.344c-1.084,7.021,5.064,17.25,6.613,24.186
				c1.094,4.853,1.187,17.32,7.018,19.48c11.648,4.3,28.989-25.222,30.871-34.208c1.361-6.517-0.122-16.771-8.585-14.823
				c-7.675,1.764-7.423,11.358-10.643,16.522c-1.126-0.192-1.239-0.083-1.89-0.674L34.771,25.782z"/>
			<path fill="#231F20" d="M27.423,61.172c-0.917,0-1.806-0.156-2.642-0.465C19.875,58.89,18.792,50.773,18,44.848
				c-0.217-1.63-0.405-3.038-0.641-4.082c-0.542-2.424-1.66-5.269-2.843-8.279c-2.214-5.632-4.503-11.454-3.778-16.146
				c0.933-6.102,4.391-9.602,9.486-9.602c4.884,0,10.48,3.277,13.609,7.971c2.453,3.679,3.011,7.651,1.58,11.202l-0.009,0.721
				c0.2,0.158,0.317,0.175,0.765,0.239c0.047,0.007,0.097,0.014,0.15,0.021c0.867-1.522,1.472-3.407,2.11-5.394
				c1.47-4.58,3.136-9.771,8.718-11.053c3.078-0.71,5.578,0.045,7.314,2.182c2.662,3.274,2.944,9.089,2.044,13.399
				C54.701,34.639,39.371,61.172,27.423,61.172z M20.224,8.024c-4.458,0-7.376,3.022-8.216,8.511
				c-0.672,4.35,1.553,10.009,3.704,15.48c1.203,3.06,2.338,5.949,2.901,8.469c0.248,1.099,0.439,2.532,0.661,4.193
				c0.749,5.603,1.773,13.275,5.953,14.824c0.692,0.256,1.431,0.386,2.196,0.386c11.14,0,26.125-26.011,27.823-34.123
				c0.811-3.882,0.599-9.395-1.783-12.325c-1.419-1.746-3.457-2.329-6.029-1.74c-4.87,1.119-6.351,5.732-7.783,10.193
				c-0.714,2.226-1.389,4.327-2.459,6.043l-0.228,0.366l-0.425-0.073c-0.22-0.037-0.399-0.063-0.552-0.085
				c-0.708-0.101-1.021-0.165-1.661-0.746l-0.214-0.194l0.067-1.668c1.321-3.171,0.819-6.763-1.415-10.113
				C29.86,11.066,24.704,8.024,20.224,8.024z"/>
		</g>
		<path fill="#FFFFFF" d="M50.322,16.1c0,0,7.178,3.231,0,13.031c-7.171,9.799-4.26-0.122-1.852-4.03
			C50.877,21.194,44.157,16.629,50.322,16.1z"/>
	</g>
	<g>
		<path fill="#231F20" d="M10.131,19.624h0.344l0.344,0.183c0.381,0,0.591,0.021,0.629,0.061c0.076-0.039,0.209-0.061,0.4-0.061
			c0.115,0,0.315,0.041,0.602,0.122s0.505,0.121,0.657,0.121c0.115,0.082,0.296,0.183,0.544,0.305
			c0.248,0.121,0.438,0.223,0.572,0.304c0.133,0.082,0.267,0.224,0.4,0.426c0.134,0.203,0.22,0.426,0.258,0.669
			c0.037,0.082,0.114,0.163,0.229,0.244s0.19,0.143,0.229,0.182c0.037,0.041,0.065,0.133,0.086,0.274
			c0.019,0.143,0.028,0.233,0.028,0.273c0,0.041,0.019,0.082,0.057,0.122l0.058,0.121v0.365c0,0.041,0.048,0.132,0.143,0.273
			c0.096,0.143,0.144,0.254,0.144,0.335c0,0.082,0.009,0.183,0.028,0.304c0.02,0.122,0.048,0.224,0.086,0.305
			c0,0.081,0.019,0.183,0.058,0.304c0.037,0.122,0.057,0.204,0.057,0.243v0.183c0,0.082-0.01,0.193-0.028,0.335
			c-0.02,0.143-0.028,0.233-0.028,0.273c0,0.041,0.037,0.102,0.114,0.183c0,0.082,0.019,0.233,0.058,0.456
			c0.037,0.224,0.057,0.396,0.057,0.518c0.076,0.284,0.095,0.507,0.058,0.669c0,0.082-0.01,0.213-0.029,0.396
			s-0.028,0.334-0.028,0.456v0.243c0.076,0.486,0.114,0.832,0.114,1.034c0,0.243-0.038,0.426-0.114,0.548
			c0,0.041,0.019,0.102,0.058,0.183c0.037,0.081,0.057,0.162,0.057,0.243c0,0.041-0.01,0.091-0.028,0.151
			c-0.02,0.062-0.028,0.112-0.028,0.152l0.057,0.122c0,0.041,0,0.081,0,0.121v0.062c-0.038,0.04-0.057,0.081-0.057,0.121
			c0,0.041,0.009,0.132,0.028,0.274c0.019,0.143,0.028,0.253,0.028,0.334l0.058,0.122c0.037,0.081,0.058,0.143,0.058,0.183
			c0,0.081-0.021,0.203-0.058,0.364c-0.077,0.082-0.114,0.163-0.114,0.243c0,0.041,0.009,0.143,0.028,0.305
			c0.019,0.162,0.028,0.284,0.028,0.365c-0.038,0.081-0.057,0.143-0.057,0.183s0,0.143,0,0.304c0,0.162-0.039,0.243-0.114,0.243
			c0.114,0.203,0.171,0.386,0.171,0.548c0,0.041-0.01,0.132-0.028,0.273c-0.02,0.143-0.028,0.254-0.028,0.335
			c-0.077,0.081-0.114,0.162-0.114,0.243c-0.077,1.095-0.153,1.684-0.229,1.764c0.114,0.365,0.172,0.771,0.172,1.217
			c0,0.325-0.038,0.568-0.114,0.73c0.076,0.324,0.114,0.588,0.114,0.79c0,0.204-0.038,0.346-0.114,0.426
			c0.037,0.082,0.066,0.244,0.086,0.487c0.019,0.243,0.028,0.405,0.028,0.486l-0.172,0.183c0.038,0.082,0.058,0.203,0.058,0.365
			s-0.02,0.364-0.058,0.608c-0.038,0.243-0.057,0.426-0.057,0.547v0.243c-0.115,0.204-0.191,0.325-0.229,0.365
			c0,0.365-0.02,0.568-0.057,0.608v0.365c0,0.446-0.096,0.912-0.286,1.398l0.057,1.034c0,0.568-0.152,0.913-0.458,1.034
			c0.038,0.041,0.058,0.102,0.058,0.183c0,0.082-0.038,0.183-0.114,0.305c-0.077,0.121-0.114,0.223-0.114,0.304
			c-0.077,0.082-0.249,0.254-0.516,0.518s-0.496,0.436-0.687,0.517l-0.229,0.061c-0.458,0.284-0.726,0.426-0.802,0.426
			c-0.953,0-1.583-0.04-1.888-0.121c-0.039,0-0.134-0.04-0.286-0.122c-0.153-0.081-0.268-0.142-0.344-0.183
			c-0.038,0-0.134-0.08-0.286-0.243c-0.534-0.121-0.915-0.385-1.145-0.791c-0.191-0.04-0.371-0.172-0.543-0.396
			c-0.172-0.222-0.277-0.354-0.315-0.395c-0.038-0.162-0.134-0.386-0.285-0.67c-0.153-0.283-0.249-0.506-0.286-0.669
			C7.117,47.16,7.089,47.05,7.07,46.907c-0.02-0.142-0.029-0.253-0.029-0.335c-0.076-0.243-0.114-0.426-0.114-0.548v-0.729
			c0-0.122-0.038-0.375-0.114-0.761c-0.077-0.385-0.134-0.72-0.172-1.004c-0.038-0.283-0.057-0.709-0.057-1.277
			c-0.039-0.161-0.058-0.404-0.058-0.729c0-0.243,0.037-0.405,0.114-0.486c-0.077-0.081-0.114-0.244-0.114-0.487
			c0-0.081,0.019-0.243,0.058-0.486c0.037-0.243,0.057-0.426,0.057-0.548V39.09c0-0.364,0.058-0.608,0.172-0.729
			c0-0.04-0.028-0.081-0.086-0.122c-0.058-0.04-0.086-0.101-0.086-0.183c0-0.08,0.009-0.161,0.028-0.243
			c0.02-0.081,0.029-0.161,0.029-0.243v-0.912c0-0.608,0.037-1.074,0.114-1.399c-0.038-0.081-0.058-0.223-0.058-0.426
			c0-0.162,0.038-0.405,0.115-0.73c0.075-0.323,0.114-0.526,0.114-0.608v-0.121c-0.039-0.081-0.058-0.142-0.058-0.183l0.058-0.122
			c0-0.039,0-0.08,0-0.121c0-0.162,0-0.426,0-0.791s0.019-0.628,0.057-0.791c0.076-0.567,0.115-0.993,0.115-1.277
			c0-0.04,0.037-0.101,0.114-0.183c0-0.08-0.02-0.142-0.058-0.183c-0.038-0.039-0.057-0.101-0.057-0.182l0.171-1.399V28.08
			l-0.057-0.122c0-0.122,0.037-0.273,0.114-0.456c0.076-0.183,0.114-0.313,0.114-0.396c0-0.122,0.009-0.354,0.028-0.699
			s0.048-0.578,0.086-0.7l0.172-0.304c0.076-0.608,0.19-0.974,0.344-1.095c0-0.04-0.02-0.081-0.058-0.122
			c-0.038-0.04-0.058-0.101-0.058-0.183c0.076-0.243,0.115-0.404,0.115-0.486v-0.73c0-0.08,0.037-0.222,0.114-0.426
			c0.076-0.202,0.114-0.344,0.114-0.426c0-0.283-0.038-0.669-0.114-1.155c0.076-0.081,0.133-0.223,0.172-0.426
			c0.037-0.203,0.075-0.324,0.114-0.365C8.872,19.746,9.406,19.624,10.131,19.624z"/>
	</g>
	<g>
		<path fill="#231F20" d="M66.788,22.787c0.037,0.041,0.151,0.082,0.343,0.122c0.19,0.041,0.305,0.102,0.344,0.183h0.229
			c0.305,0,0.495,0.041,0.572,0.121c0.037,0,0.058-0.02,0.058-0.061h0.057c0.114,0,0.314,0.041,0.601,0.122s0.486,0.121,0.602,0.121
			c0.114,0,0.209-0.02,0.286-0.061c0,0.041,0,0.082,0,0.122s0,0.081,0,0.121h0.343c0.038,0.041,0.038,0.082,0,0.122v0.061
			c0.114,0,0.209,0.041,0.286,0.122c0.076,0.081,0.152,0.121,0.229,0.121c0.037,0.041,0.114,0.122,0.229,0.243
			c0.114,0.122,0.172,0.243,0.172,0.365l0.172,0.183c0,0.082,0.019,0.183,0.057,0.304c0.038,0.122,0.058,0.204,0.058,0.244
			c0,0.121,0.009,0.294,0.028,0.517c0.019,0.224,0.048,0.396,0.086,0.517c0.037,0.122,0.104,0.265,0.2,0.427
			c0.095,0.162,0.143,0.284,0.143,0.364c0,0.041-0.02,0.082-0.057,0.122c-0.039,0-0.058,0.021-0.058,0.061
			c0,0.082,0.048,0.193,0.144,0.335c0.095,0.143,0.143,0.254,0.143,0.334c0,0.041-0.057,0.122-0.172,0.244
			c-0.114,0.121-0.171,0.223-0.171,0.304c0,0.082,0.028,0.132,0.086,0.152c0.057,0.021,0.085,0.051,0.085,0.091
			c-0.038,0.325,0,0.589,0.115,0.791l-0.229,0.486l-0.343,0.365c0.037,0.122,0.151,0.183,0.343,0.183
			c0.038,0.041,0.066,0.173,0.086,0.396c0.019,0.223,0.066,0.375,0.144,0.456c-0.077,0.406-0.115,0.669-0.115,0.791
			c0,0.162,0.02,0.264,0.058,0.304v0.122c0,0.081-0.077,0.243-0.229,0.486c0.075,0.162,0.114,0.406,0.114,0.73
			s0.057,0.568,0.172,0.729c0,0.041-0.029,0.122-0.086,0.243c-0.058,0.122-0.049,0.203,0.028,0.243
			c-0.038,0.041-0.096,0.062-0.172,0.062v0.304c-0.038,0.041-0.114,0.061-0.229,0.061c0,0.041,0.037,0.133,0.114,0.274
			c0.076,0.143,0.114,0.254,0.114,0.334c0,0.163-0.076,0.265-0.229,0.305c0,0.081,0.095,0.426,0.286,1.034
			c-0.039,0-0.077,0.021-0.114,0.061l-0.058,0.061l0.286,0.608c0,0.041-0.028,0.092-0.086,0.152
			c-0.057,0.061-0.086,0.112-0.086,0.152s0.058,0.183,0.172,0.426c-0.077,0.405-0.114,0.729-0.114,0.973
			c0,0.406,0.076,0.771,0.229,1.096c-0.114,0.121-0.172,0.264-0.172,0.426c0,0.081,0.038,0.243,0.115,0.486
			c0,0.121-0.077,0.183-0.229,0.183c0.076,0.446,0.172,0.71,0.286,0.791c0,0.081-0.057,0.143-0.172,0.182l-0.114,0.305
			c0,0.041-0.01,0.082-0.028,0.121c-0.02,0.041-0.01,0.103,0.028,0.183c0,0.082,0.058,0.122,0.172,0.122
			c0,0.365,0.019,0.548,0.058,0.548c-0.039,0.04-0.058,0.102-0.058,0.182c0,0.041,0.038,0.122,0.114,0.244l0.114,0.182
			c-0.038,0.041-0.096,0.112-0.171,0.213c-0.077,0.103-0.135,0.174-0.172,0.213c0,0.041,0.037,0.103,0.114,0.183
			c0.076,0.082,0.133,0.143,0.172,0.183c-0.077,0.284-0.153,0.447-0.229,0.487v0.243c0,0.162-0.038,0.486-0.114,0.973
			c0.152,0.163,0.229,0.346,0.229,0.548c0,0.082-0.039,0.162-0.115,0.243c0,0.406-0.038,0.71-0.114,0.913
			c0.038,0.04,0.058,0.132,0.058,0.273c0,0.143,0.019,0.254,0.057,0.334l-0.229,0.244c0,0.284-0.02,0.466-0.058,0.547h0.115
			c0.075,0,0.114,0.021,0.114,0.061c0.076,0.163,0.057,0.365-0.058,0.608c0.076,0.325,0.114,0.588,0.114,0.791v0.243
			c0.115,0.283,0.096,0.507-0.057,0.67c0.114,0.323,0.172,0.669,0.172,1.033v0.183c0.075,0.081,0.114,0.213,0.114,0.396
			s0.019,0.294,0.057,0.335c-0.038,0.04-0.076,0.121-0.114,0.243s-0.076,0.202-0.114,0.243c0,0.162-0.02,0.264-0.058,0.305
			c-0.076,0.039-0.162,0.121-0.257,0.243c-0.096,0.121-0.163,0.202-0.2,0.243c0,0.161-0.058,0.324-0.172,0.486
			s-0.172,0.305-0.172,0.426l-0.057,0.062c-0.039,0-0.077,0-0.115,0c0.038,0.08,0.02,0.202-0.057,0.364l-0.172,0.122
			c-0.114,0.121-0.21,0.183-0.286,0.183c0,0.04-0.038,0.101-0.114,0.183c-0.077,0.08-0.135,0.161-0.172,0.243
			c-0.077,0-0.172,0.03-0.286,0.091c-0.114,0.062-0.191,0.092-0.229,0.092c-0.039,0-0.096-0.021-0.172-0.062
			c-0.229,0.122-0.458,0.183-0.687,0.183c-0.229,0-0.582-0.081-1.059-0.243c-0.478-0.162-0.85-0.243-1.116-0.243
			c-0.077,0-0.124-0.03-0.143-0.091c-0.021-0.062-0.049-0.092-0.086-0.092h-0.229c-0.152,0.081-0.306,0.122-0.457,0.122
			c-0.458,0-0.936-0.204-1.431-0.608c0-0.163-0.039-0.243-0.114-0.243h-0.229c-0.038-0.041-0.124-0.143-0.258-0.305
			s-0.238-0.304-0.314-0.426c0-0.041,0.019-0.082,0.058-0.121h0.114c-0.229-0.244-0.4-0.548-0.515-0.913
			c0-0.041,0.028-0.082,0.086-0.121c0.057-0.041,0.085-0.082,0.085-0.122c0-0.041-0.02-0.112-0.057-0.213
			c-0.039-0.102-0.039-0.152,0-0.152c0-0.081-0.077-0.162-0.229-0.243c0.038-0.041,0.038-0.112,0-0.213
			c-0.038-0.102-0.057-0.173-0.057-0.213c0.037-0.122,0.057-0.203,0.057-0.243v-0.365c0-0.041-0.02-0.112-0.057-0.213
			c-0.039-0.102-0.058-0.192-0.058-0.273v-0.122l-0.057-0.061c0-0.041,0-0.082,0-0.122s-0.01-0.162-0.029-0.364
			c-0.02-0.204-0.048-0.346-0.086-0.426c0.038-0.041,0.076-0.142,0.115-0.305c0.037-0.161,0.075-0.263,0.114-0.304l-0.172-0.365
			c0.076-0.162,0.114-0.283,0.114-0.365l0.058-0.061c0-0.04,0-0.081,0-0.122v-0.183c0-0.08-0.01-0.202-0.028-0.364
			c-0.021-0.162-0.029-0.305-0.029-0.426c0-0.122,0.019-0.294,0.058-0.518c0.037-0.223,0.057-0.396,0.057-0.517v-0.183
			c0-0.081-0.038-0.162-0.114-0.243c0-0.974,0.038-1.643,0.114-2.008c0-0.04,0.02-0.081,0.058-0.121l0.058-0.062
			c-0.039-0.081-0.058-0.213-0.058-0.396s0-0.313,0-0.396l-0.058-0.121c-0.038-0.04-0.057-0.081-0.057-0.122
			c0-0.04,0.019-0.142,0.057-0.304s0.058-0.283,0.058-0.365c-0.114-0.202-0.134-0.344-0.058-0.426
			c-0.038-0.04-0.057-0.122-0.057-0.243c0-0.081,0.009-0.183,0.028-0.305c0.019-0.121,0.028-0.202,0.028-0.243
			c0-0.08-0.01-0.202-0.028-0.364c-0.02-0.162-0.028-0.264-0.028-0.305c0-0.161,0.057-0.304,0.172-0.426
			c-0.039-0.081-0.105-0.131-0.2-0.152c-0.096-0.02-0.163-0.05-0.201-0.091c-0.038,0.041-0.248,0.061-0.629,0.061
			c-0.114,0-0.191,0.021-0.229,0.061c-0.077-0.039-0.211-0.061-0.401-0.061c-0.076,0-0.238,0.021-0.486,0.061
			c-0.248,0.041-0.448,0.041-0.601,0c-0.038,0-0.114-0.03-0.229-0.091s-0.191-0.091-0.229-0.091s-0.105,0-0.2,0
			c-0.096,0-0.162-0.021-0.2-0.062l-0.057-0.061c-0.039,0-0.077,0-0.115,0l-0.229-0.183h-0.286l-0.916-0.426
			c-0.152,0-0.248,0.021-0.285,0.061c-0.115-0.08-0.372-0.191-0.773-0.334c-0.4-0.142-0.677-0.294-0.829-0.456h-0.286
			c-0.114-0.122-0.268-0.274-0.458-0.457c-0.191-0.182-0.372-0.354-0.544-0.517c-0.171-0.162-0.314-0.344-0.429-0.548
			c-0.458-0.364-0.725-0.669-0.801-0.912c-0.115-0.122-0.249-0.344-0.4-0.669c-0.153-0.324-0.249-0.526-0.286-0.608v-0.243
			c-0.077-0.081-0.135-0.162-0.172-0.243v-0.062l0.057-0.121c-0.306-0.567-0.457-1.217-0.457-1.947v-0.608
			c0-0.08-0.01-0.172-0.029-0.273c-0.02-0.101-0.028-0.172-0.028-0.213c0-0.121,0.019-0.202,0.058-0.243
			c0-0.04-0.01-0.172-0.029-0.396c-0.02-0.223-0.01-0.374,0.029-0.456l0.171-0.365c0-0.04-0.01-0.081-0.028-0.121
			c-0.02-0.04-0.028-0.081-0.028-0.122c0-0.04,0.009-0.091,0.028-0.152c0.019-0.061,0.028-0.111,0.028-0.151
			c0-0.081-0.02-0.192-0.057-0.335c-0.039-0.142-0.058-0.273-0.058-0.396l0.058-0.669v-0.183c0-0.324,0.019-0.507,0.057-0.548
			v-0.121c0-0.081,0.02-0.223,0.058-0.426c0.037-0.203,0.058-0.365,0.058-0.487v-0.182c0.037,0,0.085-0.01,0.143-0.031
			c0.058-0.02,0.104-0.05,0.144-0.091c0-0.04-0.021-0.07-0.058-0.091c-0.038-0.021-0.038-0.07,0-0.152
			c0-0.04,0.037-0.07,0.114-0.092c0.076-0.02,0.114-0.05,0.114-0.091c-0.076-0.162-0.114-0.305-0.114-0.426l0.058-0.122
			c0.037-0.08,0.057-0.161,0.057-0.243v-0.121l0.115-0.062c0.037-0.08,0.057-0.213,0.057-0.396c0-0.182,0.038-0.313,0.114-0.395
			c0-0.405,0.038-0.608,0.114-0.608c0-0.162,0.029-0.294,0.086-0.396c0.058-0.101,0.144-0.213,0.258-0.335
			c0.114-0.121,0.19-0.223,0.229-0.304c0.19-0.04,0.63-0.122,1.316-0.244c0.038,0,0.095,0.041,0.172,0.122
			c0.114-0.04,0.305-0.101,0.572-0.183h0.114l0.858-0.183c0.267,0,0.591,0.082,0.973,0.243c0.038,0,0.095-0.02,0.172-0.061
			c0.152,0.041,0.343,0.122,0.572,0.243c0.229,0.122,0.4,0.204,0.515,0.244c0.038,0.162,0.152,0.334,0.344,0.517
			c0.19,0.183,0.305,0.375,0.343,0.578l0.172,0.243c0,0.041-0.02,0.112-0.057,0.213c-0.039,0.102-0.039,0.193,0,0.273
			c0,0.041,0.028,0.082,0.085,0.122c0.058,0.041,0.086,0.082,0.086,0.121v0.062c-0.038,0.041-0.057,0.081-0.057,0.121
			c0,0.041,0.019,0.062,0.057,0.062l0.058,0.121l-0.058,0.061v0.305c0.267,0.082,0.4,0.325,0.4,0.729
			c0,0.122-0.02,0.224-0.057,0.305c0,0.041,0.019,0.061,0.057,0.061l0.115,0.061c0.037,0.122,0.047,0.284,0.028,0.487
			c-0.02,0.203-0.01,0.345,0.028,0.426c-0.076,0.203-0.076,0.365,0,0.486c-0.076,0-0.134,0.021-0.172,0.061l0.172,0.974
			c-0.038,0.203-0.057,0.467-0.057,0.791c0,0.203,0.037,0.751,0.114,1.643c-0.114,0.121-0.134,0.325-0.058,0.608
			c0,0.04-0.02,0.081-0.057,0.121l-0.058,0.061c-0.038,0.041-0.038,0.082,0,0.122l0.114,0.061c0.038,0.041,0.038,0.092,0,0.152
			s-0.057,0.112-0.057,0.152c0.037,0.041,0.057,0.183,0.057,0.426l0.058,0.061c0.037,0.082,0.057,0.143,0.057,0.183l-0.057,0.122
			c0,0.568,0.076,0.933,0.229,1.095c0,0.082,0.009,0.173,0.029,0.273c0.019,0.102,0.028,0.173,0.028,0.213v0.122
			c0.114,0.121,0.209,0.325,0.286,0.608c0.076,0.284,0.151,0.486,0.229,0.608l0.516,0.364c0.075,0.041,0.151,0.021,0.229-0.061
			c0.076-0.081,0.152-0.122,0.229-0.122l0.172-0.426c0.152-0.08,0.276-0.293,0.372-0.639c0.095-0.344,0.162-0.557,0.2-0.639
			c0.037,0,0.152-0.101,0.344-0.304c-0.039-0.04-0.058-0.101-0.058-0.183c0-0.081-0.02-0.142-0.058-0.183
			c0.076-0.04,0.144-0.152,0.2-0.335c0.058-0.182,0.144-0.313,0.258-0.395c0-0.04,0.028-0.122,0.086-0.244
			c0.058-0.121,0.048-0.202-0.028-0.243c0.076-0.08,0.143-0.253,0.2-0.517c0.057-0.264,0.143-0.436,0.258-0.518
			c-0.077-0.04-0.115-0.101-0.115-0.183c0-0.08,0.038-0.142,0.115-0.182c-0.039-0.04-0.058-0.102-0.058-0.183
			s0.028-0.203,0.086-0.365c0.057-0.162,0.086-0.264,0.086-0.305v-0.061c-0.039-0.04-0.058-0.081-0.058-0.121
			c0-0.365,0.095-0.812,0.286-1.339c-0.077-0.161-0.114-0.283-0.114-0.365c0-0.08,0.028-0.243,0.086-0.486
			c0.057-0.243,0.086-0.426,0.086-0.547c0-0.162-0.01-0.405-0.029-0.73c-0.02-0.324-0.028-0.567-0.028-0.729v-0.122
			c0.038-0.04,0.058-0.081,0.058-0.122v-0.182c0-0.122-0.02-0.314-0.058-0.578s-0.058-0.456-0.058-0.578v-0.183
			c0-0.04,0.02-0.101,0.058-0.183c0.038-0.08,0.058-0.142,0.058-0.183v-0.243c0-0.04,0.019-0.081,0.057-0.121
			c0.076-0.081,0.114-0.142,0.114-0.183l0.516-1.277c0.458-0.203,0.877-0.305,1.259-0.305C66.768,22.97,66.788,22.909,66.788,22.787
			z"/>
		<path fill="#231F20" d="M88.36,20.415h0.171c0.115,0,0.276,0.03,0.486,0.091c0.21,0.062,0.353,0.092,0.43,0.092
			c0.076,0,0.151,0.011,0.229,0.03c0.076,0.021,0.152,0.03,0.229,0.03h0.687c0.495,0,0.858,0.061,1.087,0.183
			c0.037,0,0.114,0.061,0.229,0.183c0.344,0,0.706,0.162,1.088,0.486c0.229,0,0.477,0.092,0.743,0.274
			c0.267,0.182,0.496,0.273,0.688,0.273c0,0.203,0.133,0.345,0.4,0.426c0.076,0.284,0.133,0.426,0.172,0.426
			c0.114,0.082,0.275,0.264,0.486,0.548c0.209,0.284,0.391,0.466,0.543,0.547c0.076,0.243,0.152,0.386,0.229,0.426
			c0.037,0.041,0.037,0.092,0,0.152c-0.039,0.061-0.058,0.112-0.058,0.152c0.076,0.162,0.209,0.386,0.4,0.669
			c0.19,0.284,0.344,0.508,0.458,0.669c0,0.325-0.02,0.508-0.058,0.548c0,0.041,0.02,0.061,0.058,0.061
			c0.152,0,0.267,0.061,0.344,0.183c0.075,0.121,0.143,0.284,0.2,0.486c0.057,0.203,0.123,0.345,0.2,0.426
			c-0.039,0.082-0.058,0.203-0.058,0.365c0,0.203,0.076,0.446,0.229,0.729c0.152,0.284,0.248,0.467,0.286,0.548
			c0,0.082,0,0.213,0,0.396s0.02,0.314,0.058,0.396c0.038,0.082,0.086,0.152,0.144,0.213c0.057,0.061,0.085,0.112,0.085,0.152
			c0.115,0.729,0.19,1.115,0.229,1.155c0,0.041-0.01,0.132-0.028,0.273c-0.021,0.143-0.029,0.254-0.029,0.335
			c0,0.608,0.095,1.116,0.286,1.521c0,0.487,0.019,0.913,0.058,1.277c0,0.122,0.037,0.295,0.114,0.518
			c0.076,0.224,0.114,0.375,0.114,0.456c0,0.122-0.057,0.243-0.172,0.365c0,0.081,0.01,0.192,0.029,0.334
			c0.019,0.143,0.028,0.254,0.028,0.335c0,0.365-0.058,0.69-0.172,0.974c0.038,0.121,0.058,0.284,0.058,0.486
			c0,0.284-0.02,0.486-0.058,0.608c0,0.082,0.019,0.162,0.058,0.243c0.037,0.082,0.037,0.162,0,0.243
			c0,0.041-0.039,0.082-0.114,0.122c-0.077,0.041-0.115,0.121-0.115,0.243v0.669c0,0.041,0.02,0.092,0.058,0.152
			c0.037,0.061,0.058,0.112,0.058,0.152c-0.115,0.364-0.172,0.568-0.172,0.607c0,0.163,0.057,0.365,0.172,0.608
			c0,0.082-0.039,0.163-0.115,0.244s-0.114,0.143-0.114,0.182c0.038,0.041,0.058,0.204,0.058,0.487c0,0.121,0.019,0.203,0.057,0.243
			c-0.038,0.041-0.076,0.091-0.114,0.152c-0.038,0.061-0.077,0.111-0.114,0.151c-0.038,0.041-0.077,0.092-0.114,0.152
			c-0.039,0.061-0.096,0.091-0.172,0.091c-0.152,0.73-0.268,1.217-0.344,1.46c-0.038,0-0.095,0.031-0.171,0.092
			c-0.077,0.061-0.153,0.071-0.229,0.03c-0.229,0.406-0.382,0.608-0.457,0.608c-0.039,0.243-0.153,0.467-0.344,0.669
			c-0.038,0.082-0.028,0.143,0.028,0.183c0.058,0.041,0.086,0.082,0.086,0.122c-0.801,0.446-1.564,1.074-2.289,1.886
			c-0.191,0-0.438,0.121-0.743,0.364c-0.115,0-0.249,0.052-0.401,0.152c-0.152,0.102-0.267,0.152-0.343,0.152h-0.344
			c-0.076,0-0.343,0.102-0.801,0.304c-0.382,0.204-0.592,0.325-0.63,0.365c-0.457,0.082-0.763,0.183-0.915,0.304l-0.229-0.061
			c-0.077,0-0.182,0.041-0.315,0.122s-0.238,0.121-0.314,0.121h-1.259c-0.458,0.082-0.821,0.122-1.087,0.122h-0.229
			c-0.076,0-0.152-0.04-0.229-0.122c-0.114,0-0.277,0.021-0.486,0.062c-0.21,0.04-0.372,0.061-0.486,0.061
			c-0.421,0-0.726-0.021-0.916-0.061c-0.076,0-0.191-0.021-0.343-0.062c-0.153-0.04-0.286-0.061-0.4-0.061
			c-0.039,0-0.096,0.011-0.172,0.03c-0.077,0.021-0.135,0.03-0.172,0.03c-0.114,0-0.268-0.061-0.458-0.183
			c-0.191-0.121-0.324-0.182-0.4-0.182h-0.229c-0.229,0-0.478-0.102-0.744-0.305c-0.114-0.04-0.249-0.111-0.4-0.213
			c-0.153-0.101-0.249-0.152-0.286-0.152h-0.172c-0.038-0.039-0.114-0.121-0.229-0.243c-0.115-0.121-0.211-0.202-0.286-0.243
			c-0.344-0.243-0.516-0.385-0.516-0.426c-0.42-0.04-0.935-0.304-1.545-0.791c-0.077-0.04-0.172-0.121-0.286-0.243
			c-0.114-0.121-0.21-0.202-0.286-0.243c-0.268-0.283-0.42-0.466-0.458-0.548l-0.457-0.364c0-0.081-0.058-0.173-0.172-0.274
			c-0.114-0.101-0.172-0.213-0.172-0.334L76.4,45.964c-0.152-0.283-0.353-0.699-0.601-1.247c-0.249-0.547-0.43-0.922-0.544-1.125
			c-0.191-0.405-0.362-0.913-0.515-1.521c-0.114-0.404-0.172-0.628-0.172-0.669l-0.229-0.426c0-0.04-0.058-0.669-0.172-1.886
			c-0.114-0.608-0.172-0.933-0.172-0.973c-0.038-0.162-0.048-0.405-0.028-0.73c0.019-0.324,0.028-0.548,0.028-0.669
			c0-0.081-0.02-0.213-0.057-0.396c-0.039-0.183-0.058-0.313-0.058-0.396c0-0.081,0.019-0.161,0.058-0.243
			c0.037-0.081,0.057-0.142,0.057-0.183c0-0.081-0.01-0.223-0.028-0.426c-0.02-0.202-0.01-0.365,0.028-0.486l0.058-0.243
			c0.037-0.081,0.037-0.183,0-0.305l-0.058-0.243c0.114-0.486,0.19-0.791,0.229-0.912c0.037-0.122,0.057-0.314,0.057-0.578
			s0.019-0.507,0.058-0.73c0.037-0.222,0.114-0.396,0.229-0.517c0-0.446,0.152-0.912,0.458-1.399
			c0.076-0.729,0.267-1.195,0.572-1.398v-0.122c-0.039-0.081-0.058-0.142-0.058-0.183c0.076-0.04,0.152-0.122,0.229-0.243
			c0.075-0.122,0.133-0.183,0.171-0.183c0.038-0.04,0.038-0.081,0-0.122c-0.038-0.039-0.057-0.08-0.057-0.121
			c0.076-0.04,0.143-0.111,0.2-0.213c0.058-0.101,0.123-0.172,0.2-0.213c0.037-0.283,0.172-0.588,0.4-0.913
			c0.229-0.323,0.362-0.567,0.4-0.729c0.648-0.811,0.992-1.257,1.03-1.338c0.076-0.04,0.362-0.203,0.858-0.487
			c0.076-0.04,0.19-0.131,0.344-0.273c0.151-0.142,0.285-0.233,0.4-0.273c0.037,0,0.104-0.021,0.2-0.062
			c0.095-0.04,0.161-0.061,0.2-0.061c0.037,0,0.172-0.061,0.4-0.183c0.229-0.121,0.419-0.183,0.572-0.183
			c0.037-0.04,0.133-0.151,0.286-0.334c0.152-0.183,0.305-0.294,0.458-0.335c0.076-0.04,0.267-0.091,0.572-0.152
			c0.305-0.061,0.495-0.151,0.572-0.273c0.151,0.041,0.419,0.061,0.801,0.061h0.286c0.076,0,0.162-0.04,0.258-0.121
			c0.095-0.081,0.181-0.122,0.257-0.122c0.763-0.202,1.163-0.324,1.202-0.365c0.076,0.041,0.172,0.062,0.286,0.062
			c0.229,0,0.419-0.081,0.572-0.243c0.076-0.04,0.229-0.062,0.457-0.062h0.744C88.074,20.476,88.245,20.456,88.36,20.415z
			 M88.589,24.187c-0.038,0.325-0.229,0.588-0.572,0.791v0.304l-0.172,0.122c0,0.162-0.038,0.295-0.114,0.396
			c-0.077,0.102-0.163,0.213-0.258,0.334c-0.096,0.122-0.162,0.224-0.2,0.305c0,0.041,0.019,0.102,0.058,0.183
			c0.037,0.081,0.057,0.143,0.057,0.183l-0.114,0.061c-0.114,0.041-0.191,0.082-0.229,0.121v0.365c0,0.486-0.21,1.034-0.63,1.643
			v0.243c0,0.122-0.01,0.314-0.028,0.578c-0.02,0.264-0.028,0.456-0.028,0.578c0,0.243,0.037,0.486,0.114,0.729
			c-0.114,0.041-0.172,0.143-0.172,0.305c0,0.04,0,0.081,0,0.121c0,0.041-0.038,0.102-0.114,0.183
			c-0.038,0.122-0.067,0.265-0.086,0.426c-0.02,0.163-0.028,0.284-0.028,0.365c0.114,0.121,0.172,0.304,0.172,0.547
			c0,0.244-0.077,0.487-0.229,0.73c0.076,0.243,0.114,0.426,0.114,0.548c0,0.203-0.038,0.466-0.114,0.79
			c0,0.041,0.038,0.102,0.114,0.183c0.076,0.082,0.095,0.163,0.058,0.243c-0.077,0.244-0.114,0.69-0.114,1.339
			c0,0.243,0.009,0.618,0.028,1.125c0.019,0.508,0.028,0.882,0.028,1.126v0.364c0,0.041,0.02,0.112,0.058,0.213
			c0.037,0.102,0.058,0.173,0.058,0.213c0.075,0.284,0.123,0.69,0.143,1.217c0.019,0.527,0.048,0.893,0.086,1.095l0.172,0.548
			c0.151,0.608,0.286,0.974,0.4,1.095c0.114,0.122,0.323,0.265,0.629,0.426c0.076,0,0.144,0.021,0.2,0.062
			c0.058,0.04,0.105,0.061,0.144,0.061c0.076,0.041,0.152,0.061,0.229,0.061c0.038,0,0.134-0.02,0.286-0.061
			c0.152-0.04,0.267-0.04,0.344,0c0.533-0.405,0.953-0.669,1.259-0.791c0.037-0.081,0.104-0.202,0.2-0.365
			c0.095-0.161,0.181-0.283,0.258-0.364c0.076-0.122,0.161-0.345,0.257-0.67c0.095-0.324,0.162-0.547,0.2-0.669l0.172-0.304
			c0.038-0.081,0.066-0.183,0.086-0.305c0.019-0.121,0.048-0.222,0.086-0.304c0.229-0.365,0.344-0.608,0.344-0.73
			c0-0.121-0.021-0.202-0.058-0.243c0.076-0.121,0.162-0.304,0.258-0.547c0.095-0.244,0.161-0.405,0.2-0.487l-0.058-0.243
			c0-0.122,0.038-0.264,0.114-0.426c0.076-0.161,0.115-0.264,0.115-0.304s0-0.132,0-0.274c0-0.142,0.019-0.253,0.057-0.334
			c0-0.081,0.019-0.162,0.058-0.244c0.037-0.08,0.057-0.142,0.057-0.182v-0.913c0.038-0.202,0.104-0.517,0.2-0.942
			s0.144-0.7,0.144-0.821c0.076-0.487,0.009-1.176-0.2-2.068c-0.21-0.892-0.314-1.541-0.314-1.946
			c-0.115-0.203-0.2-0.537-0.258-1.004c-0.058-0.466-0.105-0.761-0.144-0.882c-0.267-0.648-0.4-1.055-0.4-1.217
			c-0.458-0.852-0.706-1.419-0.743-1.703c-0.153-0.081-0.372-0.223-0.658-0.426s-0.525-0.345-0.716-0.426
			C89.161,24.228,88.894,24.187,88.589,24.187z"/>
		<path fill="#231F20" d="M106.957,20.293c0.076,0,0.152,0.041,0.229,0.122c0.076,0.082,0.152,0.122,0.229,0.122
			c0.647,0.203,1.01,0.345,1.087,0.426c0.152,0,0.267,0.021,0.344,0.061c0.075,0.041,0.171,0.132,0.285,0.273
			c0.115,0.143,0.21,0.234,0.286,0.274c0,0.607-0.076,1.074-0.229,1.398c0.038,0.122,0.123,0.234,0.258,0.335
			c0.133,0.102,0.2,0.213,0.2,0.334c0,0.082-0.02,0.163-0.058,0.244s-0.086,0.173-0.143,0.273c-0.058,0.102-0.105,0.192-0.144,0.273
			c0.152,0.243,0.19,0.447,0.114,0.608c0.038,0.122,0.134,0.183,0.286,0.183v0.122c0,0.081,0.048,0.182,0.144,0.304
			c0.095,0.122,0.143,0.203,0.143,0.243c0.076,0.243,0.115,0.447,0.115,0.608c0,0.082-0.077,0.527-0.229,1.338
			c0.076,0.082,0.114,0.183,0.114,0.305c0,0.041-0.01,0.112-0.028,0.213c-0.02,0.102-0.028,0.193-0.028,0.273v0.183
			c0,0.041,0.057,0.183,0.172,0.426v0.183c0,0.082-0.01,0.203-0.029,0.365s-0.028,0.284-0.028,0.365
			c0,0.162,0.037,0.324,0.114,0.486c0,0.121-0.038,0.224-0.114,0.304c0,0.122,0.037,0.365,0.114,0.73
			c0.076,0.365,0.114,0.649,0.114,0.852v0.243c0,0.122-0.038,0.273-0.114,0.456c-0.077,0.183-0.114,0.314-0.114,0.396
			c0,0.041,0.095,0.163,0.286,0.365c0.076,0.405,0.114,0.649,0.114,0.729c0.229,0.204,0.381,0.508,0.458,0.913
			c0.037,0.081,0.019,0.143-0.058,0.183c-0.076,0.081-0.114,0.143-0.114,0.182c0.114,0.813,0.172,1.238,0.172,1.278
			c0.037,0.081,0.058,0.223,0.058,0.426v0.426c0,0.405,0.019,0.71,0.057,0.912c0,0.082,0.028,0.203,0.086,0.365
			s0.086,0.304,0.086,0.426c0.037,0.081,0.058,0.183,0.058,0.304c0,0.163,0.019,0.355,0.057,0.578
			c0.038,0.224,0.086,0.467,0.144,0.729c0.057,0.265,0.104,0.478,0.143,0.639l-0.058,0.548c0,0.365,0.02,0.548,0.058,0.548
			c0.038,0.121,0.133,0.304,0.286,0.547c0.152,0.243,0.248,0.386,0.286,0.426l0.4,0.426c0.381,0.325,0.781,0.487,1.202,0.487
			c0.419-0.04,0.724-0.162,0.915-0.365c0.19-0.202,0.286-0.628,0.286-1.277v-0.305c0-0.039,0.019-0.08,0.058-0.121
			c0.037-0.04,0.057-0.081,0.057-0.122l0.229-0.729v-0.243v-0.73c0-0.121,0.057-0.283,0.172-0.486
			c-0.115-0.122-0.172-0.203-0.172-0.243c0.19-1.987,0.267-3.163,0.229-3.528c0-0.081-0.01-0.192-0.028-0.335
			c-0.02-0.142-0.028-0.253-0.028-0.334c0-0.04,0.009-0.102,0.028-0.183c0.019-0.081,0.028-0.142,0.028-0.183
			c0-0.081-0.01-0.183-0.028-0.305c-0.02-0.121-0.028-0.202-0.028-0.243c0-0.161,0.028-0.404,0.085-0.729
			c0.058-0.324,0.086-0.526,0.086-0.608c0-0.081-0.01-0.172-0.028-0.273c-0.02-0.102-0.028-0.173-0.028-0.214
			c0-0.08,0.037-0.202,0.114-0.364c0-0.04-0.02-0.092-0.058-0.152s-0.057-0.131-0.057-0.213c0.114-0.243,0.172-0.486,0.172-0.729
			c0-0.162-0.029-0.436-0.086-0.821c-0.058-0.386-0.086-0.679-0.086-0.883v-0.121c0-0.04-0.01-0.101-0.029-0.183
			c-0.02-0.081-0.028-0.142-0.028-0.183v-1.703v-1.034v-2.068l0.172-0.912V23.7c0-0.162,0.009-0.385,0.028-0.67
			c0.019-0.283,0.029-0.506,0.029-0.669v-0.364c0.114-0.122,0.285-0.244,0.515-0.365l0.515-0.365c0.114-0.081,0.4-0.161,0.858-0.243
			l0.687-0.243c0.038,0,0.134,0.021,0.286,0.061c0.152,0.041,0.248,0.061,0.286,0.061c0.42,0,0.648,0.021,0.687,0.062
			c0.381-0.081,0.667-0.122,0.858-0.122h0.229c0.229,0,0.533,0.091,0.915,0.273c0.381,0.183,0.667,0.274,0.858,0.274
			c0.267,0.364,0.477,0.588,0.63,0.669c0,0.082,0.037,0.183,0.114,0.304c0.076,0.122,0.114,0.204,0.114,0.243
			c0.037,0.082,0.058,0.204,0.058,0.365c0,0.082-0.01,0.234-0.029,0.456c-0.02,0.224-0.028,0.396-0.028,0.518
			c0,0.041,0,0.121,0,0.243l-0.058,0.122c0,0.04,0.02,0.102,0.058,0.182c0.037,0.082,0.058,0.143,0.058,0.183
			c0,0.122-0.021,0.305-0.058,0.548c-0.038,0.243-0.058,0.426-0.058,0.548c0,0.243,0.038,0.426,0.115,0.547
			c-0.115,0.487-0.172,0.791-0.172,0.913c0,0.243,0.057,0.466,0.172,0.669c-0.039,0.041-0.058,0.132-0.058,0.273
			c0,0.143,0,0.254,0,0.335c0,0.041-0.038,0.102-0.114,0.183c-0.077,0.081-0.114,0.203-0.114,0.364c0,0.163,0.075,0.447,0.229,0.852
			v0.426c0,0.325-0.096,0.568-0.286,0.73c0,0.527-0.038,0.832-0.114,0.912c0,0.082,0.019,0.122,0.057,0.122
			c0.076,0.082,0.115,0.143,0.115,0.183c-0.039,0.081-0.058,0.183-0.058,0.304c0,0.082,0.009,0.183,0.028,0.305
			c0.02,0.121,0.029,0.203,0.029,0.243c0.075,0.121,0.151,0.304,0.229,0.547v0.791c0,0.325,0.037,0.548,0.114,0.669
			c0,0.082-0.028,0.143-0.086,0.183c-0.057,0.041-0.086,0.102-0.086,0.183c0,0.082,0.048,0.234,0.144,0.456
			c0.095,0.224,0.143,0.396,0.143,0.518c0,0.041-0.038,0.143-0.114,0.304c0.038,0.082,0.058,0.305,0.058,0.669
			c0.114,0.244,0.172,0.387,0.172,0.426v0.183c0,0.243-0.021,0.426-0.058,0.548c0,0.041-0.038,0.143-0.114,0.304
			c-0.039,0.122-0.058,0.325-0.058,0.608c0,0.325,0.048,0.852,0.144,1.582c0.095,0.729,0.123,1.277,0.086,1.643
			c0,0.041-0.01,0.121-0.029,0.243c-0.02,0.121-0.028,0.224-0.028,0.304c-0.077,0.284-0.153,0.669-0.229,1.156
			c-0.153,0.852-0.306,1.399-0.458,1.643c-0.153,0.243-0.249,0.386-0.286,0.426c-0.191,0.284-0.306,0.446-0.344,0.486v0.365
			c-0.076,0.041-0.162,0.121-0.257,0.243c-0.096,0.122-0.182,0.203-0.258,0.243c-0.038,0.082-0.086,0.163-0.144,0.243
			c-0.057,0.082-0.085,0.163-0.085,0.243c-0.802,0.528-1.698,1.156-2.689,1.886h-0.286c-0.191,0.244-0.306,0.387-0.344,0.426
			c-0.114,0-0.268,0.052-0.458,0.152c-0.191,0.102-0.343,0.152-0.457,0.152c-0.077,0.041-0.182,0.061-0.315,0.061
			s-0.248,0.021-0.343,0.062c-0.096,0.04-0.163,0.102-0.2,0.182c-0.077,0.041-0.229,0.071-0.458,0.092s-0.4,0.071-0.515,0.152
			c-0.039-0.04-0.115-0.051-0.229-0.031c-0.114,0.021-0.191,0.031-0.229,0.031c-0.039,0.04-0.344,0.102-0.916,0.182
			c-0.496,0-0.858-0.02-1.087-0.061c-0.229-0.04-0.544-0.111-0.944-0.213c-0.4-0.101-0.696-0.152-0.887-0.152
			c-0.038,0-0.134-0.039-0.286-0.121c-0.916,0.082-1.603-0.162-2.06-0.73c-0.153,0-0.335-0.061-0.544-0.183
			c-0.21-0.121-0.372-0.182-0.486-0.182l-0.229,0.061c-0.382-0.324-0.706-0.507-0.973-0.548c-0.114-0.121-0.353-0.263-0.715-0.426
			c-0.363-0.161-0.601-0.365-0.716-0.608c-0.457-0.08-0.725-0.263-0.801-0.547c-0.229-0.081-0.478-0.283-0.744-0.608
			c-0.267-0.324-0.42-0.507-0.457-0.548c0-0.081-0.021-0.172-0.058-0.273c-0.038-0.101-0.038-0.172,0-0.213
			c-0.038,0-0.086,0-0.143,0c-0.058,0-0.125-0.021-0.201-0.061c-0.038-0.081-0.162-0.294-0.371-0.64
			c-0.211-0.344-0.335-0.639-0.372-0.882c0-0.08-0.02-0.183-0.058-0.304c-0.038-0.122-0.057-0.202-0.057-0.243
			c0-0.081-0.039-0.283-0.115-0.608c-0.076-0.324-0.114-0.588-0.114-0.791c0-0.202,0.019-0.365,0.058-0.486
			c-0.153-0.244-0.153-0.507,0-0.791c-0.114-0.243-0.191-0.648-0.229-1.217c-0.038-0.567-0.057-0.892-0.057-0.974
			c0-0.121-0.039-0.323-0.114-0.607c-0.077-0.284-0.115-0.487-0.115-0.608c0-0.081-0.01-0.192-0.028-0.335
			c-0.02-0.142-0.028-0.253-0.028-0.335c0-0.243,0.037-0.567,0.114-0.973l-0.058-0.122c-0.038-0.081-0.076-0.142-0.114-0.183v-0.304
			c0-0.202-0.02-0.496-0.057-0.882c-0.039-0.386-0.058-0.679-0.058-0.883c0-0.08,0.019-0.172,0.058-0.273
			c0.037-0.101,0.057-0.172,0.057-0.213c0-0.122-0.01-0.283-0.028-0.486c-0.02-0.203-0.028-0.365-0.028-0.487
			c0-0.08,0.019-0.232,0.057-0.456c0.038-0.222,0.058-0.396,0.058-0.517c0-0.122-0.01-0.335-0.029-0.639
			c-0.02-0.305-0.028-0.537-0.028-0.7c0-0.202-0.02-0.364-0.057-0.486c0.037-0.081,0.114-0.183,0.229-0.304
			c0-0.04-0.02-0.081-0.058-0.122c-0.076-0.04-0.114-0.101-0.114-0.183c0.038-0.121,0.058-0.324,0.058-0.608v-1.521
			c-0.039-0.081-0.058-0.202-0.058-0.365c0-0.161,0.038-0.526,0.114-1.095v-0.974c0-0.811,0.058-1.378,0.172-1.703
			c-0.077-0.161-0.114-0.263-0.114-0.304c0-0.081,0.133-0.305,0.4-0.669c0.038-0.04,0.076-0.122,0.114-0.244l0.115-0.121
			c0.114-0.122,0.571-0.405,1.373-0.852l0.458-0.305c0.343-0.121,0.763-0.183,1.259-0.183c0.151,0,0.372,0.011,0.657,0.031
			c0.286,0.021,0.487,0.03,0.602,0.03c0.076,0,0.2-0.01,0.372-0.03C106.813,20.304,106.919,20.293,106.957,20.293z"/>
	</g>
</g>
</svg>
