<svg width="105" height="28" viewBox="0 0 105 28" fill="none" xmlns="http://www.w3.org/2000/svg">
<path d="M46.9146 4.7653V20.9188H42.9798V11.2313L39.3671 20.9188H36.1916L32.5559 11.2083V20.9188H28.6211V4.7653H33.2693L37.8024 15.9485L42.2894 4.7653H46.9146Z" fill="black"/>
<path d="M48.7892 14.4758C48.7892 13.1565 49.0347 11.9983 49.5256 11.0012C50.0318 10.0041 50.7145 9.23704 51.5735 8.70013C52.4326 8.16321 53.3914 7.89475 54.4499 7.89475C55.3549 7.89475 56.145 8.07884 56.82 8.44701C57.5103 8.81518 58.0395 9.2984 58.4077 9.89668V8.07884H62.3425V20.9188H58.4077V19.101C58.0242 19.6992 57.4873 20.1825 56.7969 20.5506C56.122 20.9188 55.3319 21.1029 54.4268 21.1029C53.3837 21.1029 52.4326 20.8344 51.5735 20.2975C50.7145 19.7453 50.0318 18.9706 49.5256 17.9734C49.0347 16.961 48.7892 15.7951 48.7892 14.4758ZM58.4077 14.4988C58.4077 13.517 58.1316 12.7423 57.5793 12.1747C57.0424 11.6071 56.3828 11.3233 55.6004 11.3233C54.818 11.3233 54.1507 11.6071 53.5985 12.1747C53.0615 12.727 52.7931 13.494 52.7931 14.4758C52.7931 15.4576 53.0615 16.24 53.5985 16.8229C54.1507 17.3905 54.818 17.6743 55.6004 17.6743C56.3828 17.6743 57.0424 17.3905 57.5793 16.8229C58.1316 16.2553 58.4077 15.4806 58.4077 14.4988Z" fill="black"/>
<path d="M69.8949 7.89475C70.8 7.89475 71.59 8.07884 72.265 8.44701C72.9553 8.81518 73.4845 9.2984 73.8527 9.89668V8.07884H77.7875V20.8958C77.7875 22.077 77.5498 23.1432 77.0742 24.0943C76.614 25.0607 75.9007 25.8277 74.9342 26.3953C73.9831 26.9629 72.7942 27.2467 71.3676 27.2467C69.4653 27.2467 67.9236 26.7942 66.7424 25.8891C65.5612 24.9994 64.8862 23.7875 64.7175 22.2534H68.6063C68.729 22.7443 69.0205 23.1278 69.4807 23.4039C69.9409 23.6954 70.5085 23.8412 71.1835 23.8412C71.9965 23.8412 72.6408 23.6034 73.1164 23.1278C73.6073 22.6676 73.8527 21.9236 73.8527 20.8958V19.0779C73.4692 19.6762 72.94 20.1671 72.265 20.5506C71.59 20.9188 70.8 21.1029 69.8949 21.1029C68.8364 21.1029 67.8776 20.8344 67.0185 20.2975C66.1595 19.7453 65.4768 18.9706 64.9706 17.9734C64.4797 16.961 64.2343 15.7951 64.2343 14.4758C64.2343 13.1565 64.4797 11.9983 64.9706 11.0012C65.4768 10.0041 66.1595 9.23704 67.0185 8.70013C67.8776 8.16321 68.8364 7.89475 69.8949 7.89475ZM73.8527 14.4988C73.8527 13.517 73.5766 12.7423 73.0243 12.1747C72.4874 11.6071 71.8278 11.3233 71.0454 11.3233C70.263 11.3233 69.5957 11.6071 69.0435 12.1747C68.5066 12.727 68.2381 13.494 68.2381 14.4758C68.2381 15.4576 68.5066 16.24 69.0435 16.8229C69.5957 17.3905 70.263 17.6743 71.0454 17.6743C71.8278 17.6743 72.4874 17.3905 73.0243 16.8229C73.5766 16.2553 73.8527 15.4806 73.8527 14.4988Z" fill="black"/>
<path d="M82.4406 6.74422C81.7502 6.74422 81.1826 6.54479 80.7378 6.14594C80.3082 5.73175 80.0935 5.22551 80.0935 4.62724C80.0935 4.01362 80.3082 3.50738 80.7378 3.10853C81.1826 2.69434 81.7502 2.48724 82.4406 2.48724C83.1155 2.48724 83.6678 2.69434 84.0973 3.10853C84.5422 3.50738 84.7646 4.01362 84.7646 4.62724C84.7646 5.22551 84.5422 5.73175 84.0973 6.14594C83.6678 6.54479 83.1155 6.74422 82.4406 6.74422ZM84.3965 8.07884V20.9188H80.4616V8.07884H84.3965Z" fill="black"/>
<path d="M86.293 14.4988C86.293 13.1642 86.5615 11.9983 87.0984 11.0012C87.6507 10.0041 88.41 9.23704 89.3765 8.70013C90.3583 8.16321 91.4781 7.89475 92.736 7.89475C94.3468 7.89475 95.6891 8.31661 96.7629 9.16034C97.8521 10.0041 98.5654 11.1929 98.9029 12.727H94.715C94.3621 11.7452 93.6795 11.2543 92.667 11.2543C91.946 11.2543 91.3707 11.5381 90.9412 12.1057C90.5117 12.658 90.2969 13.4557 90.2969 14.4988C90.2969 15.542 90.5117 16.3473 90.9412 16.9149C91.3707 17.4672 91.946 17.7433 92.667 17.7433C93.6795 17.7433 94.3621 17.2524 94.715 16.2706H98.9029C98.5654 17.774 97.8521 18.9552 96.7629 19.8143C95.6737 20.6733 94.3314 21.1029 92.736 21.1029C91.4781 21.1029 90.3583 20.8344 89.3765 20.2975C88.41 19.7606 87.6507 18.9936 87.0984 17.9964C86.5615 16.9993 86.293 15.8334 86.293 14.4988Z" fill="black"/>
<path d="M102.676 21.1029C101.986 21.1029 101.418 20.9035 100.973 20.5046C100.544 20.0904 100.329 19.5842 100.329 18.9859C100.329 18.3723 100.544 17.8584 100.973 17.4442C101.418 17.03 101.986 16.8229 102.676 16.8229C103.351 16.8229 103.903 17.03 104.333 17.4442C104.778 17.8584 105 18.3723 105 18.9859C105 19.5842 104.778 20.0904 104.333 20.5046C103.903 20.9035 103.351 21.1029 102.676 21.1029Z" fill="black"/>
<path d="M13.5763 22.9615C12.8945 23.0279 12.208 23.0279 11.5262 22.9615L11.7281 20.8791C12.2756 20.9325 12.827 20.9325 13.3744 20.8791L13.5763 22.9605V22.9615Z" fill="black"/>
<path d="M9.51386 22.563L10.1205 20.5611C9.59693 20.4022 9.09033 20.192 8.60807 19.9335L7.61966 21.7775C8.21898 22.0986 8.85282 22.3632 9.51386 22.562V22.563Z" fill="black"/>
<path d="M5.91583 20.6364L7.24417 19.0204C6.81997 18.6722 6.43077 18.2833 6.08213 17.8594L4.46616 19.1857C4.90022 19.7149 5.38658 20.2002 5.91583 20.6354V20.6364Z" fill="black"/>
<path d="M3.32505 17.4829L5.16904 16.4955C4.91047 16.013 4.70026 15.506 4.54148 14.9821L2.53955 15.5887C2.74037 16.2497 3.00395 16.8836 3.32505 17.4819V17.4829Z" fill="black"/>
<path d="M2.14103 13.5763L4.2235 13.3744C4.17019 12.8269 4.17019 12.2756 4.2235 11.7281L2.14208 11.5262C2.07577 12.208 2.07577 12.8945 2.14208 13.5763H2.14103Z" fill="black"/>
<path d="M2.53955 9.51386L4.54148 10.1205C4.70151 9.5923 4.91279 9.08607 5.16904 8.60807L3.32505 7.61966C3.00179 8.22367 2.73902 8.85815 2.5406 9.51386H2.53955Z" fill="black"/>
<path d="M4.46616 5.91583L6.08213 7.24417C6.43038 6.81996 6.81922 6.43076 7.24313 6.08213L5.91687 4.46616C5.38763 4.90022 4.90231 5.38658 4.4672 5.91583H4.46616Z" fill="black"/>
<path d="M7.61966 3.32505L8.60807 5.16904C9.0903 4.91053 9.59691 4.70032 10.1205 4.54148L9.51386 2.53955C8.85847 2.73838 8.22434 3.00149 7.62071 3.32505H7.61966Z" fill="black"/>
<path d="M11.5262 2.14104C12.208 2.07473 12.8945 2.07473 13.5763 2.14104L13.3744 4.22351C12.8269 4.17019 12.2756 4.17019 11.7281 4.22351L11.5262 2.14209V2.14104Z" fill="black"/>
<path d="M15.5887 2.53955L14.982 4.54148C15.5102 4.70151 16.0165 4.91279 16.4955 5.16904L17.4829 3.32505C16.8789 3.00177 16.2444 2.73901 15.5887 2.5406V2.53955Z" fill="black"/>
<path d="M19.1867 4.46616L17.8584 6.08213C18.283 6.43043 18.6721 6.81952 19.0204 7.24313L20.6364 5.91583C20.2015 5.38657 19.716 4.90104 19.1867 4.46616V4.46616Z" fill="black"/>
<path d="M21.7775 7.61966L19.9335 8.60807C20.1898 9.08607 20.4011 9.5923 20.5611 10.1205L22.563 9.51386C22.3642 8.85847 22.1011 8.22433 21.7775 7.62071V7.61966Z" fill="black"/>
<path d="M22.9615 11.5262L20.879 11.7281C20.9325 12.2756 20.9325 12.827 20.879 13.3744L22.9604 13.5773C23.0268 12.8952 23.0268 12.2083 22.9604 11.5262H22.9615Z" fill="black"/>
<path d="M22.563 15.5887L20.5611 14.9821C20.4023 15.506 20.1921 16.0129 19.9335 16.4955L21.7775 17.4829C22.0986 16.8836 22.3632 16.2497 22.562 15.5887H22.563Z" fill="black"/>
<path d="M20.6364 19.1867L19.0204 17.8584C18.6721 18.2826 18.2833 18.6718 17.8594 19.0204L19.1867 20.6364C19.7159 20.2023 20.2013 19.716 20.6364 19.1867V19.1867Z" fill="black"/>
<path d="M17.4829 21.7775L16.4955 19.9335C16.0129 20.1921 15.506 20.4023 14.982 20.5611L15.5887 22.563C16.2441 22.3642 16.8782 22.1011 17.4818 21.7775H17.4829Z" fill="black"/>
<path fill-rule="evenodd" clip-rule="evenodd" d="M9.41345 12.5513C9.41345 11.7191 9.74404 10.921 10.3325 10.3325C10.921 9.74404 11.7191 9.41345 12.5513 9.41345C13.3835 9.41345 14.1816 9.74404 14.77 10.3325C15.3585 10.921 15.6891 11.7191 15.6891 12.5513C15.6891 13.3835 15.3585 14.1816 14.77 14.77C14.1816 15.3585 13.3835 15.6891 12.5513 15.6891C11.7191 15.6891 10.921 15.3585 10.3325 14.77C9.74404 14.1816 9.41345 13.3835 9.41345 12.5513ZM12.5513 13.5972C12.2739 13.5972 12.0078 13.487 11.8117 13.2909C11.6155 13.0947 11.5053 12.8287 11.5053 12.5513C11.5053 12.2739 11.6155 12.0078 11.8117 11.8117C12.0078 11.6155 12.2739 11.5053 12.5513 11.5053C12.8287 11.5053 13.0947 11.6155 13.2909 11.8117C13.487 12.0078 13.5972 12.2739 13.5972 12.5513C13.5972 12.8287 13.487 13.0947 13.2909 13.2909C13.0947 13.487 12.8287 13.5972 12.5513 13.5972Z" fill="black"/>
<path fill-rule="evenodd" clip-rule="evenodd" d="M12.5513 6.27563C10.8869 6.27563 9.29064 6.93682 8.11373 8.11373C6.93682 9.29064 6.27563 10.8869 6.27563 12.5513C6.27563 14.2157 6.93682 15.8119 8.11373 16.9888C9.29064 18.1657 10.8869 18.8269 12.5513 18.8269C14.2157 18.8269 15.8119 18.1657 16.9888 16.9888C18.1657 15.8119 18.8269 14.2157 18.8269 12.5513C18.8269 10.8869 18.1657 9.29064 16.9888 8.11373C15.8119 6.93682 14.2157 6.27563 12.5513 6.27563ZM8.36751 12.5513C8.36751 13.6609 8.8083 14.725 9.59291 15.5096C10.3775 16.2942 11.4417 16.735 12.5513 16.735C13.6609 16.735 14.725 16.2942 15.5096 15.5096C16.2942 14.725 16.735 13.6609 16.735 12.5513C16.735 11.4417 16.2942 10.3775 15.5096 9.59291C14.725 8.8083 13.6609 8.36751 12.5513 8.36751C11.4417 8.36751 10.3775 8.8083 9.59291 9.59291C8.8083 10.3775 8.36751 11.4417 8.36751 12.5513V12.5513Z" fill="black"/>
</svg>
