<?xml version="1.0" encoding="utf-8"?>
<!-- Generator: Adobe Illustrator 16.0.0, SVG Export Plug-In . SVG Version: 6.00 Build 0)  -->
<!DOCTYPE svg PUBLIC "-//W3C//DTD SVG 1.1//EN" "http://www.w3.org/Graphics/SVG/1.1/DTD/svg11.dtd">
<svg version="1.1" id="Layer_1" xmlns="http://www.w3.org/2000/svg" xmlns:xlink="http://www.w3.org/1999/xlink" x="0px" y="0px"
	 width="103.721px" height="185.136px" viewBox="0 0 103.721 185.136" enable-background="new 0 0 103.721 185.136"
	 xml:space="preserve">
<g>
	<g>
		<path fill="#FFFFFF" d="M11.563,49.019c-1.185-5.205,6.133-11.439,10.116-13.02c2.42-0.961,8.494-2.053,11.1-1.047
			c1.939,0.748,3.533,5.584,6.064,5.365c4.327-0.375,10.521-15.357,12.051-18.672c3.209-6.959,3.153-13.635,0.701-21.043
			C65.048-4.22,63.697,21.358,67.599,25.935c0.674-0.641,1.773-1.068,2.35-1.549c1.435,7.23,1.121,12.789-1.682,19.152
			c-2.861,6.496-5.494,12.143-4.453,19.896c6.004,0.791,12.992,1.502,19.064,0.916c6.606-0.637,13.808-5.033,18.367,2.17
			c8.33,13.162-6.158,27.266-16.934,31.947c-1.25,5.6,3.209,9.645,2.467,15.381c-0.367,2.84-2.602,3.76-2.544,7.168
			c0.056,3.279,2.558,4.242,2.662,8.002c0.134,4.785-2.634,4.264-3.38,8.002c-0.717,3.6,1.703,5.785,2.115,8.828
			c0.775,5.736,0.34,11.346,0.598,17.17c0.303,6.844,3.244,12.381-3.834,14c-5.348,1.221-10.018-2.41-15.48-2.668
			c-11.377-0.533-21.77-0.707-33.268,0.918c0.264,6.006-5.764,10.617-11.549,9.766c-6.885-1.014-7.262-6.307-5.271-12.563
			c-5.248-1.248-9.906,3.691-13.846-2.973c-2.262-3.826-0.691-11.725-0.9-16.188c-0.208-4.42-1.807-11.088-0.534-15.646
			c0.733-2.623,3.2-3.139,3.41-5.15c0.138-1.309-1.991-5.609-2.546-7.381c-3.096-9.883-5.887-27.492,9.703-23.982
			c3.498,0.787,2.529,4.619,6.994,0.643c2.246-2,1.973-2.77,2.307-5.443c0.65-5.23-3.314-10.547,0.118-15.75
			C9.681,78.849,11.563,49.019,11.563,49.019z"/>
		<g>
			<path fill="#231F20" d="M8.619,106.075c0.222-0.031,0.555-0.008,0.999,0.071s0.745,0.118,0.904,0.118
				c0.063-0.031,0.111-0.016,0.143,0.049c0.031,0.031,0.063,0.047,0.096,0.047l0.095-0.047c0.063-0.031,0.127-0.031,0.19,0
				c0.19,0.127,0.333,0.174,0.428,0.143c0,0.031,0.016,0.07,0.048,0.118c0.031,0.048,0.048,0.104,0.048,0.167
				c0.095,0,0.206,0.031,0.333,0.095c0.126,0.063,0.237,0.095,0.333,0.095c0.031,0.064,0.126,0.127,0.285,0.191
				c0,0.031,0.031,0.079,0.096,0.143c0.031,0,0.095,0.023,0.189,0.07c0.096,0.049,0.159,0.072,0.19,0.072
				c0.158,0.223,0.27,0.332,0.333,0.332c0.286,0.286,0.523,0.445,0.714,0.477c0.126,0.127,0.19,0.223,0.19,0.285h0.095
				c0.096,0,0.198,0.041,0.31,0.119c0.11,0.08,0.197,0.119,0.262,0.119c0.19,0.254,0.301,0.444,0.333,0.57h0.238
				c0.031,0.064,0.103,0.136,0.214,0.215c0.11,0.079,0.182,0.135,0.214,0.166v0.143c0,0.285,0.11,0.477,0.333,0.571v0.143
				c0.222,0.159,0.333,0.317,0.333,0.476c0,0.032,0,0.064,0,0.096l-0.048,0.095l0.143,0.714v0.143c0,0.064,0.031,0.111,0.096,0.143
				c0.063,0.064,0.11,0.111,0.143,0.143c-0.127,0.35-0.19,0.746-0.19,1.189c0,0.064,0.008,0.158,0.024,0.285
				c0.015,0.127,0.023,0.238,0.023,0.334c0,0.094,0.007,0.197,0.023,0.309c0.016,0.111,0.04,0.238,0.071,0.381
				s0.048,0.246,0.048,0.309c0.031,0.35,0.023,0.842-0.023,1.475c-0.048,0.635-0.071,1.047-0.071,1.238
				c0,0.316,0.063,0.602,0.189,0.855c0,0.096-0.008,0.238-0.023,0.428c-0.017,0.191-0.023,0.334-0.023,0.428
				c0,0.033,0.016,0.08,0.047,0.145c0.031,0.063,0.048,0.127,0.048,0.189l-0.048,0.189c0,0.033,0.008,0.072,0.024,0.119
				c0.016,0.049,0.023,0.088,0.023,0.119c-0.032,0-0.048,0.018-0.048,0.049c-0.031,0.063-0.031,0.143,0,0.236
				c0.031,0.096,0.048,0.16,0.048,0.191c-0.032,0.064-0.071,0.127-0.119,0.189c-0.047,0.064-0.071,0.111-0.071,0.143
				c0.158,0.318,0.238,0.508,0.238,0.572c0,0.094-0.017,0.158-0.048,0.189c0,0.031,0,0.088,0,0.166c0,0.08,0.031,0.152,0.096,0.215
				c0,0.064-0.017,0.111-0.048,0.143l0.048,0.096c0,0.063,0.031,0.094,0.095,0.094c-0.032,0.033-0.048,0.08-0.048,0.143
				c0,0.16-0.016,0.256-0.047,0.287c-0.032,0.031-0.048,0.063-0.048,0.094c-0.032,0.064-0.017,0.096,0.048,0.096
				c0.063,0,0.095,0.016,0.095,0.047c-0.032,0.127-0.048,0.287-0.048,0.477c0,0.158,0.031,0.27,0.096,0.332
				c0,0.033-0.024,0.064-0.071,0.096c-0.048,0.033-0.071,0.064-0.071,0.096l0.143,0.143v0.238c0,0.412,0.016,0.666,0.047,0.762
				c0,0.031,0.008,0.047,0.024,0.047c0.016,0,0.023,0.016,0.023,0.047c-0.032,0.096-0.017,0.143,0.048,0.143
				c0.031,0.033,0.031,0.064,0,0.096c-0.032,0.031-0.048,0.064-0.048,0.096c0.031,0.063,0.048,0.174,0.048,0.332
				c0,0.16,0.031,0.27,0.095,0.334c0,0.189,0.016,0.316,0.048,0.381h-0.048c-0.031,0.031-0.047,0.063-0.047,0.094
				c0.063,0.191,0.411,0.318,1.046,0.381v0.143c0.063,0,0.158-0.031,0.286-0.094c0.158,0.094,0.237,0.158,0.237,0.189
				c0.031,0,0.063-0.016,0.096-0.047c0.031-0.031,0.063-0.049,0.095-0.049l0.714,0.285c0.031,0,0.079-0.016,0.143-0.047
				c0.126,0,0.254,0.064,0.381,0.189c0.285,0.096,0.618,0.398,0.999,0.904c0.031,0.033,0.078,0.096,0.143,0.191
				c0.063,0.094,0.095,0.174,0.095,0.238c0,0.379-0.016,0.635-0.047,0.76c0,0.096-0.096,0.285-0.286,0.572
				c-0.031,0-0.063,0.016-0.095,0.047c-0.032,0.031-0.064,0.047-0.096,0.047l-0.047,0.096c0,0.031-0.017,0.047-0.048,0.047
				l-0.381,0.285c-0.031,0-0.095,0.033-0.19,0.096c-0.095,0.064-0.158,0.096-0.189,0.096c-0.032,0.031-0.112,0.047-0.238,0.047
				c-0.127,0-0.223,0.016-0.285,0.049c-0.19,0.063-0.333,0.094-0.429,0.094c-0.095,0.031-0.222,0.031-0.38,0
				c-0.159-0.031-0.271-0.031-0.333,0l-0.048,0.049l-0.048,0.047c-0.063,0-0.19,0.016-0.381,0.047s-0.317,0.049-0.38,0.049h-0.144
				c-0.031-0.033-0.063-0.049-0.095-0.049l-0.048-0.047l-0.19,0.047c-0.095,0-0.222-0.023-0.38-0.07
				c-0.159-0.047-0.255-0.072-0.286-0.072c-0.189-0.031-0.476-0.055-0.855-0.07c-0.381-0.018-0.635-0.023-0.762-0.023
				c-0.476,0-0.825-0.033-1.047-0.096c-0.031,0-0.079-0.031-0.143-0.096l-0.19,0.049c-0.063,0-0.159-0.025-0.285-0.072
				c-0.127-0.047-0.223-0.072-0.285-0.072c-0.032,0.033-0.048,0.033-0.048,0l-0.048-0.047h-0.047c-0.064,0-0.096,0.016-0.096,0.047
				c-0.063-0.063-0.175-0.109-0.333-0.143c-0.159-0.031-0.254-0.063-0.285-0.094c-0.032,0-0.064-0.025-0.096-0.072
				s-0.063-0.07-0.095-0.07c-0.095,0-0.159-0.016-0.19-0.049l-0.618-0.285c-0.19-0.063-0.302-0.111-0.333-0.143l-0.048-0.047H10.76
				c-0.032,0-0.088-0.031-0.167-0.096c-0.079-0.063-0.166-0.096-0.262-0.096c0-0.031-0.095-0.078-0.285-0.143
				c-0.032-0.063-0.104-0.135-0.214-0.213c-0.111-0.08-0.184-0.135-0.215-0.168c-0.031-0.125-0.118-0.268-0.261-0.428
				c-0.144-0.158-0.23-0.27-0.262-0.332c-0.032-0.031-0.064-0.119-0.096-0.262c-0.032-0.143-0.079-0.246-0.143-0.311
				c0-0.094-0.023-0.238-0.071-0.428s-0.071-0.332-0.071-0.428c-0.064-0.158-0.096-0.443-0.096-0.857
				c0-0.031-0.016-0.063-0.047-0.094c-0.032-0.031-0.048-0.064-0.048-0.096c0-0.158,0.016-0.238,0.048-0.238
				c-0.064-0.063-0.104-0.174-0.119-0.332c-0.017-0.158-0.056-0.254-0.119-0.285v-0.096c0-0.096-0.023-0.27-0.071-0.523
				s-0.071-0.443-0.071-0.57c0-0.223,0.031-0.381,0.095-0.477l-0.143-0.096c0-0.063,0.008-0.125,0.024-0.189
				c0.016-0.064,0.023-0.127,0.023-0.191v-0.047c-0.032-0.031-0.048-0.063-0.048-0.096c0-0.031,0.016-0.078,0.048-0.143l0.048-0.047
				c0-0.031-0.017-0.047-0.048-0.047c-0.032,0-0.048-0.016-0.048-0.049l0.048-0.475l-0.048-0.191v-0.143
				c0-0.381-0.031-0.619-0.095-0.713c0-0.064,0.031-0.127,0.095-0.191c0-0.031-0.023-0.055-0.071-0.07
				c-0.047-0.016-0.056-0.039-0.023-0.072c0-0.063,0.007-0.197,0.023-0.404c0.016-0.205,0.024-0.357,0.024-0.451
				c0-0.191-0.017-0.316-0.048-0.381C8.016,119.618,8,119.38,8,119.063c0-0.031-0.017-0.072-0.048-0.119
				c-0.031-0.049-0.047-0.088-0.047-0.119v-0.143c0-0.064-0.024-0.174-0.071-0.334c-0.048-0.158-0.071-0.285-0.071-0.381
				c0-0.031,0.007-0.07,0.023-0.119c0.016-0.047,0.023-0.086,0.023-0.117c-0.063-0.064-0.088-0.16-0.071-0.287
				c0.016-0.125,0.056-0.205,0.119-0.236v-0.049c-0.063,0-0.095-0.031-0.095-0.094c0-0.16-0.009-0.422-0.024-0.785
				c-0.017-0.365-0.023-0.643-0.023-0.834v-0.713c0-0.35,0.031-0.586,0.095-0.713c0-0.031,0-0.088,0-0.168
				c0-0.078-0.031-0.135-0.095-0.166c0.031-0.096,0.031-0.254,0-0.475c-0.032-0.223-0.017-0.365,0.048-0.43
				c-0.064-0.063-0.112-0.125-0.144-0.189c0-0.031,0-0.096,0-0.191c0-0.094,0.016-0.157,0.048-0.189
				c-0.095-0.222-0.143-0.507-0.143-0.856v-1.189c0-0.03,0.023-0.055,0.071-0.071c0.048-0.016,0.071-0.039,0.071-0.071
				c0-0.063-0.032-0.126-0.095-0.19c0.126-0.381,0.19-0.649,0.19-0.809c0-0.19-0.048-0.349-0.144-0.476
				c0-0.031,0.008-0.071,0.024-0.119c0.016-0.048,0.023-0.087,0.023-0.118c-0.063-0.127-0.095-0.238-0.095-0.334
				c0-0.031,0.007-0.095,0.023-0.189c0.016-0.096,0.023-0.174,0.023-0.238c0-0.031-0.008-0.071-0.023-0.119
				c-0.017-0.047-0.023-0.087-0.023-0.119c0.095-0.126,0.143-0.254,0.143-0.381c0.095-0.126,0.253-0.285,0.476-0.475
				C8.413,106.265,8.555,106.139,8.619,106.075z"/>
			<path fill="#231F20" d="M35.165,106.836h0.143c0.096,0,0.229,0.024,0.404,0.071c0.174,0.048,0.293,0.072,0.357,0.072
				c0.063,0,0.126,0.008,0.19,0.023c0.063,0.016,0.126,0.023,0.189,0.023h0.571c0.412,0,0.714,0.047,0.904,0.143
				c0.031,0,0.095,0.048,0.189,0.143c0.286,0,0.587,0.127,0.904,0.381c0.19,0,0.396,0.071,0.618,0.214
				c0.222,0.144,0.412,0.214,0.571,0.214c0,0.16,0.11,0.271,0.333,0.334c0.063,0.222,0.11,0.332,0.143,0.332
				c0.096,0.064,0.229,0.207,0.404,0.429c0.174,0.222,0.325,0.364,0.452,0.429c0.063,0.189,0.126,0.301,0.19,0.332
				c0.031,0.032,0.031,0.072,0,0.119c-0.032,0.048-0.048,0.088-0.048,0.119c0.063,0.127,0.174,0.302,0.333,0.523
				c0.158,0.223,0.285,0.396,0.381,0.523c0,0.254-0.017,0.396-0.048,0.428c0,0.032,0.016,0.048,0.048,0.048
				c0.126,0,0.222,0.048,0.285,0.143s0.119,0.222,0.167,0.38c0.047,0.16,0.103,0.271,0.166,0.334
				c-0.032,0.064-0.048,0.158-0.048,0.285c0,0.158,0.063,0.35,0.19,0.57c0.127,0.223,0.206,0.365,0.238,0.43
				c0,0.063,0,0.166,0,0.309s0.016,0.246,0.048,0.309c0.031,0.064,0.071,0.119,0.118,0.166c0.048,0.049,0.072,0.088,0.072,0.119
				c0.095,0.572,0.158,0.873,0.189,0.904c0,0.033-0.008,0.104-0.023,0.215c-0.017,0.111-0.023,0.197-0.023,0.262
				c0,0.475,0.078,0.873,0.237,1.189c0,0.381,0.016,0.713,0.048,0.998c0,0.096,0.031,0.23,0.095,0.404
				c0.063,0.176,0.096,0.295,0.096,0.357c0,0.096-0.048,0.189-0.143,0.285c0,0.064,0.007,0.15,0.023,0.262
				c0.016,0.111,0.023,0.199,0.023,0.262c0,0.285-0.047,0.539-0.143,0.762c0.031,0.094,0.048,0.223,0.048,0.381
				c0,0.221-0.017,0.379-0.048,0.475c0,0.064,0.016,0.127,0.048,0.191c0.031,0.063,0.031,0.127,0,0.189
				c0,0.031-0.032,0.064-0.095,0.096c-0.064,0.031-0.096,0.094-0.096,0.189v0.523c0,0.031,0.016,0.072,0.048,0.119
				c0.031,0.047,0.048,0.088,0.048,0.119c-0.096,0.285-0.144,0.443-0.144,0.475c0,0.129,0.048,0.287,0.144,0.477
				c0,0.064-0.032,0.127-0.096,0.189c-0.063,0.064-0.095,0.113-0.095,0.145c0.031,0.031,0.047,0.158,0.047,0.379
				c0,0.096,0.016,0.16,0.048,0.191c-0.032,0.031-0.063,0.07-0.095,0.119c-0.032,0.047-0.064,0.088-0.096,0.119
				s-0.063,0.07-0.095,0.119c-0.032,0.047-0.08,0.07-0.143,0.07c-0.128,0.57-0.223,0.951-0.286,1.143
				c-0.031,0-0.079,0.023-0.143,0.07c-0.063,0.049-0.127,0.057-0.19,0.023c-0.19,0.318-0.317,0.477-0.38,0.477
				c-0.032,0.189-0.128,0.365-0.286,0.523c-0.031,0.064-0.023,0.111,0.024,0.143c0.047,0.031,0.071,0.064,0.071,0.096
				c-0.666,0.35-1.301,0.84-1.903,1.475c-0.159,0-0.365,0.096-0.618,0.285c-0.096,0-0.207,0.039-0.333,0.119
				c-0.127,0.08-0.223,0.119-0.285,0.119h-0.286c-0.063,0-0.285,0.078-0.666,0.238c-0.317,0.158-0.492,0.254-0.523,0.285
				c-0.38,0.063-0.635,0.143-0.761,0.236l-0.19-0.047c-0.063,0-0.151,0.031-0.262,0.096c-0.111,0.064-0.198,0.096-0.262,0.096
				h-1.047c-0.38,0.063-0.682,0.094-0.903,0.094h-0.19c-0.064,0-0.127-0.031-0.19-0.094c-0.095,0-0.23,0.016-0.404,0.047
				c-0.175,0.031-0.31,0.047-0.404,0.047c-0.35,0-0.603-0.016-0.762-0.047c-0.063,0-0.158-0.016-0.285-0.047
				s-0.237-0.049-0.333-0.049c-0.032,0-0.079,0.008-0.143,0.023c-0.063,0.018-0.111,0.025-0.143,0.025
				c-0.096,0-0.223-0.049-0.381-0.145c-0.159-0.094-0.27-0.143-0.333-0.143h-0.19c-0.19,0-0.396-0.078-0.618-0.236
				c-0.095-0.031-0.207-0.088-0.333-0.168c-0.127-0.078-0.207-0.119-0.238-0.119h-0.143c-0.032-0.031-0.095-0.094-0.19-0.189
				c-0.095-0.096-0.175-0.158-0.237-0.189c-0.286-0.191-0.429-0.303-0.429-0.334c-0.349-0.031-0.777-0.238-1.284-0.619
				c-0.063-0.031-0.143-0.094-0.238-0.189c-0.095-0.096-0.174-0.158-0.237-0.189c-0.223-0.223-0.35-0.365-0.381-0.43l-0.381-0.285
				c0-0.063-0.047-0.135-0.143-0.213c-0.095-0.08-0.143-0.168-0.143-0.262l-0.238-0.096c-0.127-0.223-0.293-0.547-0.499-0.975
				c-0.207-0.43-0.356-0.723-0.452-0.881c-0.159-0.316-0.302-0.713-0.428-1.189c-0.096-0.316-0.143-0.492-0.143-0.523l-0.19-0.332
				c0-0.031-0.048-0.523-0.143-1.477c-0.096-0.475-0.144-0.729-0.144-0.76c-0.031-0.127-0.04-0.316-0.023-0.572
				c0.016-0.252,0.023-0.428,0.023-0.523c0-0.063-0.016-0.166-0.047-0.309c-0.032-0.143-0.048-0.244-0.048-0.309
				s0.016-0.127,0.048-0.191c0.031-0.063,0.047-0.109,0.047-0.143c0-0.063-0.008-0.174-0.023-0.332
				c-0.017-0.158-0.008-0.285,0.023-0.381l0.048-0.189c0.031-0.064,0.031-0.145,0-0.238l-0.048-0.191
				c0.096-0.381,0.159-0.617,0.19-0.713s0.048-0.246,0.048-0.451c0-0.207,0.016-0.396,0.048-0.572
				c0.031-0.174,0.095-0.309,0.19-0.404c0-0.348,0.126-0.713,0.38-1.094c0.063-0.57,0.222-0.936,0.476-1.094v-0.096
				c-0.031-0.063-0.047-0.111-0.047-0.143c0.063-0.031,0.126-0.096,0.19-0.189c0.063-0.096,0.11-0.145,0.143-0.145
				c0.031-0.031,0.031-0.063,0-0.094c-0.032-0.031-0.048-0.063-0.048-0.096c0.063-0.031,0.119-0.087,0.167-0.166
				c0.047-0.079,0.103-0.135,0.166-0.167c0.031-0.222,0.143-0.46,0.333-0.714s0.301-0.443,0.333-0.57
				c0.539-0.635,0.824-0.982,0.856-1.047c0.063-0.031,0.301-0.158,0.714-0.381c0.063-0.031,0.158-0.103,0.285-0.214
				c0.126-0.11,0.238-0.183,0.333-0.214c0.031,0,0.087-0.016,0.167-0.048c0.078-0.031,0.134-0.048,0.166-0.048
				c0.031,0,0.143-0.047,0.333-0.143c0.19-0.095,0.349-0.143,0.476-0.143c0.031-0.031,0.111-0.119,0.238-0.262
				c0.126-0.143,0.253-0.229,0.381-0.262c0.063-0.031,0.221-0.071,0.476-0.119c0.253-0.047,0.411-0.119,0.476-0.214
				c0.126,0.032,0.349,0.048,0.666,0.048h0.237c0.063,0,0.135-0.031,0.215-0.096c0.078-0.063,0.149-0.095,0.214-0.095
				c0.634-0.158,0.967-0.253,0.999-0.286c0.063,0.033,0.143,0.049,0.237,0.049c0.19,0,0.349-0.064,0.477-0.191
				c0.063-0.031,0.189-0.047,0.38-0.047h0.619C34.927,106.884,35.07,106.868,35.165,106.836z M35.355,109.786
				c-0.032,0.254-0.19,0.459-0.476,0.618v0.237l-0.143,0.096c0,0.127-0.032,0.23-0.096,0.309c-0.063,0.08-0.135,0.167-0.214,0.262
				c-0.079,0.096-0.136,0.176-0.166,0.238c0,0.031,0.015,0.08,0.047,0.143c0.031,0.064,0.048,0.111,0.048,0.143l-0.095,0.048
				c-0.096,0.032-0.159,0.063-0.19,0.095v0.285c0,0.381-0.175,0.809-0.523,1.285v0.189c0,0.096-0.009,0.246-0.024,0.453
				s-0.023,0.357-0.023,0.451c0,0.191,0.031,0.381,0.095,0.572c-0.095,0.031-0.143,0.111-0.143,0.236c0,0.033,0,0.064,0,0.096
				s-0.031,0.08-0.095,0.143c-0.032,0.096-0.056,0.207-0.071,0.334c-0.017,0.127-0.024,0.221-0.024,0.285
				c0.096,0.096,0.144,0.238,0.144,0.428s-0.064,0.381-0.19,0.57c0.063,0.191,0.095,0.334,0.095,0.43
				c0,0.158-0.032,0.363-0.095,0.617c0,0.033,0.031,0.08,0.095,0.143c0.063,0.064,0.079,0.127,0.048,0.191
				c-0.064,0.189-0.096,0.539-0.096,1.047c0,0.189,0.008,0.482,0.024,0.879c0.016,0.396,0.023,0.689,0.023,0.881v0.285
				c0,0.031,0.016,0.088,0.048,0.166c0.031,0.08,0.048,0.135,0.048,0.166c0.063,0.223,0.103,0.541,0.118,0.953
				s0.04,0.697,0.071,0.855l0.144,0.428c0.126,0.477,0.237,0.762,0.333,0.857c0.095,0.094,0.269,0.207,0.523,0.332
				c0.063,0,0.118,0.018,0.166,0.049s0.087,0.047,0.119,0.047c0.063,0.031,0.126,0.047,0.19,0.047c0.031,0,0.11-0.016,0.237-0.047
				s0.222-0.031,0.286,0c0.443-0.316,0.792-0.523,1.046-0.619c0.031-0.063,0.087-0.158,0.167-0.285
				c0.078-0.127,0.15-0.221,0.214-0.285c0.063-0.096,0.135-0.27,0.214-0.523s0.135-0.428,0.167-0.523l0.143-0.238
				c0.031-0.063,0.055-0.143,0.071-0.236c0.016-0.096,0.039-0.176,0.071-0.238c0.19-0.285,0.285-0.477,0.285-0.572
				c0-0.094-0.016-0.158-0.047-0.189c0.063-0.096,0.134-0.238,0.214-0.428c0.079-0.191,0.135-0.316,0.166-0.381l-0.047-0.189
				c0-0.096,0.031-0.207,0.095-0.334s0.095-0.205,0.095-0.238c0-0.031,0-0.102,0-0.213s0.016-0.199,0.048-0.262
				c0-0.064,0.016-0.127,0.048-0.191c0.031-0.063,0.048-0.111,0.048-0.143v-0.713c0.031-0.158,0.087-0.404,0.166-0.738
				c0.079-0.332,0.119-0.547,0.119-0.643c0.063-0.379,0.008-0.918-0.167-1.617c-0.174-0.697-0.262-1.205-0.262-1.521
				c-0.095-0.158-0.166-0.42-0.214-0.785c-0.047-0.365-0.088-0.596-0.119-0.689c-0.222-0.508-0.333-0.825-0.333-0.952
				c-0.38-0.666-0.587-1.11-0.618-1.332c-0.127-0.063-0.309-0.174-0.547-0.333c-0.238-0.158-0.437-0.27-0.595-0.333
				C35.831,109.817,35.609,109.786,35.355,109.786z"/>
			<path fill="#231F20" d="M61.997,108.644c0.158,0,0.301,0.064,0.428,0.19h0.238c0.316,0,0.602,0.128,0.855,0.381h0.381
				c0.158,0.159,0.206,0.285,0.143,0.38c0.031,0.033,0.063,0.049,0.096,0.049l0.095,0.047c-0.063,0.064-0.095,0.111-0.095,0.143
				c0,0.032,0.023,0.064,0.071,0.096s0.071,0.063,0.071,0.095c0,0.032-0.017,0.079-0.048,0.143c-0.032,0.063-0.048,0.128-0.048,0.19
				l0.381,0.143c0,0.032,0.031,0.151,0.096,0.357c0.063,0.206,0.095,0.373,0.095,0.499c0,0.159-0.063,0.286-0.19,0.381l0.143,0.429
				l-0.047,0.094l-0.048,0.096c0,0.254-0.048,0.396-0.143,0.428c0.095,0.191,0.095,0.303,0,0.334
				c0.031,0.031,0.047,0.096,0.047,0.189c0,0.16-0.079,0.27-0.237,0.334c0.063,0.063,0.158,0.189,0.285,0.381
				c-0.063,0.094-0.095,0.254-0.095,0.475c0,0.223-0.048,0.365-0.143,0.428c0,0.096,0.016,0.176,0.047,0.238
				c-0.19,0.254-0.285,0.412-0.285,0.477c-0.032,0.064-0.032,0.143,0,0.238c0.031,0.094,0.048,0.158,0.048,0.189
				c0,0.064-0.017,0.111-0.048,0.143c0,0.031,0.031,0.08,0.095,0.143c-0.254,0.254-0.396,0.381-0.428,0.381
				c0,0.064,0.023,0.111,0.071,0.143s0.071,0.064,0.071,0.096s-0.023,0.064-0.071,0.096s-0.056,0.063-0.023,0.094
				c0.063,0.127,0.095,0.223,0.095,0.285c0,0.064-0.04,0.191-0.119,0.381c-0.079,0.191-0.118,0.334-0.118,0.428v0.145
				c0,0.031-0.024,0.055-0.071,0.07c-0.048,0.016-0.057,0.041-0.024,0.072c0.031,0.031,0.048,0.143,0.048,0.332l0.048,0.143
				c0,0.223-0.032,0.396-0.096,0.523c-0.063,0.477-0.143,0.746-0.237,0.809c0.063,0.064,0.095,0.111,0.095,0.143
				c-0.127,0.127-0.19,0.254-0.19,0.381c0,0.033,0.016,0.064,0.048,0.096c-0.127,0.35-0.254,0.588-0.381,0.713
				c0,0.033,0,0.064,0,0.096s0,0.064,0,0.096l-0.19,0.143v0.238c0.031,0.031,0.024,0.063-0.023,0.094
				c-0.048,0.033-0.071,0.064-0.071,0.096v0.143c-0.096,0.158-0.175,0.254-0.238,0.285c0.063,0.064,0.063,0.143,0,0.238
				s-0.079,0.158-0.047,0.189c-0.032,0.033-0.057,0.096-0.072,0.191s-0.056,0.158-0.118,0.189c0.031,0.033,0.031,0.096,0,0.191
				l-0.048,0.047c0,0.16-0.017,0.254-0.048,0.285c-0.063,0.064-0.111,0.096-0.143,0.096c-0.032,0.064-0.056,0.158-0.071,0.285
				c-0.017,0.127-0.056,0.223-0.119,0.285c-0.159,0.033-0.237,0.143-0.237,0.334c0,0.031,0,0.063,0,0.094l0.047,0.096
				c-0.031,0.064-0.127,0.16-0.285,0.285v0.191c-0.063,0.031-0.127,0.111-0.19,0.238s-0.143,0.205-0.237,0.236v0.096
				c0,0.189-0.096,0.318-0.286,0.381c0,0.064,0.016,0.111,0.048,0.143c0.031,0.031,0.048,0.064,0.048,0.096
				c0,0.063-0.056,0.135-0.167,0.213c-0.111,0.08-0.166,0.152-0.166,0.215c-0.032,0.031-0.056,0.088-0.071,0.166
				c-0.017,0.08-0.048,0.143-0.096,0.191c-0.047,0.047-0.104,0.086-0.166,0.117c0,0.064-0.048,0.137-0.143,0.215
				c-0.096,0.08-0.144,0.166-0.144,0.262c-0.063,0.031-0.166,0.111-0.309,0.238s-0.262,0.189-0.357,0.189h-0.095
				c-0.032,0.033-0.048,0.111-0.048,0.238c-0.063,0.064-0.19,0.127-0.38,0.191c-0.128,0.127-0.255,0.221-0.381,0.285l-0.285,0.189
				c-0.032,0.031-0.112,0.047-0.238,0.047c-0.032,0.033-0.136,0.113-0.31,0.238c-0.175,0.127-0.309,0.207-0.404,0.238h-0.143
				c-0.032,0-0.111-0.008-0.238-0.023s-0.222-0.023-0.285-0.023c-0.127,0-0.222,0.016-0.285,0.047c-0.032,0-0.096,0.016-0.19,0.047
				c-0.095,0.033-0.159,0.049-0.19,0.049c-0.159,0.031-0.412,0.047-0.761,0.047c-0.096,0-0.238-0.023-0.429-0.07
				c-0.19-0.049-0.349-0.072-0.476-0.072c-0.032,0-0.088,0.023-0.166,0.072c-0.08,0.047-0.136,0.07-0.167,0.07
				c-0.127,0.031-0.365,0.047-0.714,0.047c-0.254,0-0.428-0.016-0.522-0.047c-0.064-0.063-0.128-0.096-0.19-0.096
				c-0.032,0-0.112-0.016-0.238-0.047c-0.127-0.031-0.207-0.047-0.238-0.047s-0.103-0.041-0.214-0.119
				c-0.111-0.08-0.198-0.135-0.262-0.166c-0.063-0.064-0.095-0.111-0.095-0.145c-0.064,0-0.136-0.039-0.214-0.117
				c-0.08-0.08-0.167-0.119-0.262-0.119c-0.064-0.064-0.127-0.135-0.19-0.215c-0.064-0.078-0.143-0.158-0.238-0.238
				c-0.095-0.078-0.159-0.135-0.19-0.166c-0.127-0.316-0.254-0.523-0.38-0.619v-0.143c-0.223-0.285-0.365-0.523-0.429-0.713
				c-0.031-0.063-0.063-0.158-0.095-0.285c-0.032-0.127-0.064-0.223-0.096-0.285c0-0.031-0.023-0.072-0.071-0.119
				c-0.047-0.049-0.088-0.104-0.118-0.168c-0.032-0.031-0.057-0.102-0.072-0.213s-0.023-0.182-0.023-0.215
				c-0.032-0.063-0.079-0.135-0.143-0.213c-0.064-0.08-0.095-0.135-0.095-0.168v-0.189c-0.096-0.221-0.159-0.381-0.19-0.477
				c-0.159-0.316-0.238-0.555-0.238-0.713v-0.096c-0.19-0.316-0.285-0.586-0.285-0.809v-0.143c0-0.031-0.017-0.055-0.048-0.07
				c-0.032-0.016-0.048-0.041-0.048-0.072c0-0.127-0.04-0.309-0.118-0.547c-0.08-0.238-0.119-0.404-0.119-0.5v-0.096
				c-0.064-0.158-0.302-0.871-0.714-2.141l-0.095-0.189v-0.381c-0.159-0.477-0.238-0.887-0.238-1.236v-0.143v-0.049l-0.048-0.094
				c-0.031-0.096-0.031-0.246,0-0.453c0.031-0.205,0.031-0.355,0-0.451c0-0.031-0.016-0.08-0.047-0.143v-0.285
				c0-0.127-0.032-0.303-0.096-0.523c-0.063-0.223-0.095-0.381-0.095-0.477v-0.143c-0.064-0.063-0.111-0.197-0.143-0.404
				c-0.032-0.205-0.08-0.34-0.144-0.404v-0.666c0-0.127-0.016-0.27-0.047-0.428c-0.032-0.158-0.048-0.27-0.048-0.334
				c0-0.031,0.016-0.086,0.048-0.166c0.031-0.078,0.031-0.135,0-0.166l-0.048-0.096c0-0.063,0-0.111,0-0.143
				c0-0.063,0.048-0.428,0.143-1.094c0-0.064-0.008-0.175-0.023-0.334c-0.017-0.158-0.024-0.27-0.024-0.332v-0.049l0.048-0.047
				c0.031,0,0.031-0.016,0-0.048c-0.032-0.031-0.032-0.048,0-0.048c0.031-0.095,0.087-0.245,0.167-0.451
				c0.078-0.207,0.134-0.373,0.166-0.5l0.714-0.285c0.031,0,0.126-0.048,0.285-0.143c0.158-0.096,0.27-0.158,0.333-0.19h0.285
				c0.063,0,0.159-0.016,0.286-0.048c0.126-0.031,0.206-0.047,0.237-0.047c0.127-0.031,0.317-0.111,0.571-0.238
				c0.063,0.031,0.143,0.047,0.238,0.047c0.063,0,0.158-0.007,0.285-0.023c0.126-0.016,0.237-0.023,0.333-0.023l0.048,0.047
				c0,0.064,0.031,0.096,0.095,0.096c0.031,0,0.063-0.016,0.095-0.048c0.031-0.031,0.079-0.048,0.144-0.048
				c0.031,0.064,0.126,0.096,0.285,0.096c0.158,0,0.237,0.047,0.237,0.143c0.031,0,0.088,0.017,0.167,0.048
				c0.079,0.032,0.135,0.048,0.166,0.048c0.096,0.158,0.127,0.27,0.096,0.332c0.095,0.096,0.143,0.16,0.143,0.191
				c0.095,0,0.222,0.047,0.381,0.143v0.143c0,0.35-0.017,0.555-0.048,0.618c0.126,0.19,0.19,0.38,0.19,0.571v0.143
				c0.031,0.031,0.079,0.063,0.143,0.095c0.063,0.032,0.095,0.063,0.095,0.095c0,0.16-0.016,0.271-0.047,0.334
				c0,0.031,0.023,0.079,0.071,0.143s0.071,0.127,0.071,0.189c0.222,0.223,0.364,0.604,0.428,1.143
				c0.031,0.064,0.024,0.104-0.023,0.119s-0.071,0.039-0.071,0.07l0.095,0.096c0.063,0.064,0.087,0.111,0.071,0.143
				s-0.04,0.08-0.071,0.143c0.158,0.16,0.302,0.27,0.429,0.334c0,0.285,0.078,0.475,0.237,0.57v0.096
				c0,0.189,0.031,0.381,0.096,0.57c0.031,0,0.079,0,0.143,0s0.095,0.016,0.095,0.047c0.127,0.191,0.19,0.318,0.19,0.381
				c0.096,0.096,0.19,0.246,0.286,0.453c0.095,0.205,0.174,0.34,0.237,0.404c0,0.285,0.016,0.443,0.048,0.475
				c-0.032,0.064-0.048,0.15-0.048,0.262s-0.032,0.184-0.095,0.215c0,0.031,0.047,0.096,0.143,0.189
				c-0.032,0.064-0.048,0.16-0.048,0.285c0,0.414-0.017,0.65-0.048,0.715c0.031,0.063,0.071,0.119,0.119,0.166
				s0.071,0.088,0.071,0.119c-0.031,0.064-0.047,0.174-0.047,0.332c0,0.381,0.174,0.746,0.522,1.096
				c0,0.031,0.016,0.111,0.048,0.236c0.031,0.129,0.048,0.207,0.048,0.238c0,0.033,0.016,0.104,0.048,0.215
				c0.031,0.111,0.055,0.207,0.071,0.285c0.016,0.08,0.039,0.135,0.071,0.166c0,0.064,0.031,0.119,0.095,0.166
				c0.063,0.049,0.111,0.104,0.143,0.168c0.063,0.094,0.111,0.238,0.143,0.428s0.063,0.332,0.096,0.428
				c0.063-0.031,0.11-0.102,0.143-0.213c0.031-0.111,0.055-0.238,0.071-0.381c0.016-0.143,0.039-0.246,0.071-0.311
				c0-0.031,0.031-0.078,0.096-0.143c0.063-0.602,0.143-1.047,0.237-1.332c0.096-0.189,0.143-0.301,0.143-0.332
				s0.048-0.301,0.143-0.809l0.144-0.381c0.031-0.064,0.087-0.207,0.166-0.428c0.079-0.223,0.135-0.396,0.167-0.523l0.143-0.381
				c0-0.064,0.007-0.166,0.023-0.311c0.016-0.143,0.039-0.244,0.071-0.309c0-0.031,0.031-0.078,0.096-0.143v-0.143
				c0-0.158,0.031-0.285,0.095-0.381c0-0.127-0.017-0.189-0.048-0.189c0.031-0.064,0.056-0.184,0.071-0.357s0.056-0.293,0.119-0.357
				c0-0.094,0.024-0.213,0.071-0.355c0.048-0.143,0.071-0.262,0.071-0.357c0.031,0,0.048-0.023,0.048-0.072
				c0-0.047,0.031-0.055,0.096-0.023c-0.032-0.031-0.048-0.109-0.048-0.238c0-0.252,0.079-0.41,0.237-0.475
				c0-0.031-0.016-0.063-0.047-0.096l-0.048-0.047c0.031-0.096,0.071-0.254,0.119-0.477c0.047-0.221,0.103-0.381,0.166-0.475
				c0.031-0.064,0.079-0.127,0.143-0.191c0-0.031,0-0.086,0-0.166c0-0.078,0.016-0.143,0.048-0.19
				c0.031-0.048,0.079-0.071,0.143-0.071v-0.096c0-0.285,0.079-0.539,0.238-0.761c0-0.126-0.032-0.206-0.096-0.237
				c0.096-0.285,0.206-0.492,0.333-0.619c0.031-0.031,0.087-0.071,0.167-0.119c0.079-0.047,0.135-0.095,0.166-0.143
				c0.031-0.047,0.048-0.119,0.048-0.214c0.19-0.063,0.301-0.174,0.333-0.333c0.158-0.031,0.316-0.127,0.476-0.285h0.19
				c0.031,0,0.079-0.063,0.143-0.19c0.571-0.158,0.872-0.286,0.904-0.381l0.285-0.143c0.031,0,0.079-0.007,0.143-0.024
				C61.917,108.651,61.964,108.644,61.997,108.644z M58.761,113.972c0.031,0,0.063,0.018,0.095,0.049
				C58.825,114.021,58.792,114.005,58.761,113.972z"/>
			<path fill="#231F20" d="M74.128,107.788h0.143c0.349,0,0.555,0.031,0.618,0.095c0.095-0.031,0.254-0.048,0.476-0.048
				c0.127,0,0.301,0.008,0.523,0.023c0.222,0.018,0.364,0.024,0.428,0.024c0.096,0,0.238-0.007,0.429-0.024
				c0.19-0.016,0.333-0.023,0.428-0.023c0.031,0,0.079,0.017,0.144,0.048c0.063,0.032,0.11,0.048,0.143,0.048
				c0.031,0,0.087-0.008,0.166-0.024c0.079-0.015,0.15-0.023,0.214-0.023c0.031,0,0.19,0.009,0.477,0.023
				c0.285,0.017,0.507,0.056,0.666,0.119c0.063,0,0.11-0.016,0.143-0.048h0.095c0.127,0.096,0.27,0.143,0.429,0.143h0.189
				c0.063,0,0.175-0.007,0.333-0.023c0.159-0.016,0.286-0.023,0.381-0.023h0.143c0.063,0,0.222,0.031,0.476,0.095
				c0.412,0.095,0.697,0.238,0.856,0.429c0.031,0.031,0.096,0.111,0.19,0.237c0.096,0.128,0.174,0.223,0.238,0.286
				c0.031,0.031,0.078,0.088,0.143,0.166c0.063,0.08,0.11,0.15,0.143,0.214l0.048,0.571c-0.064,0.35-0.19,0.666-0.381,0.951
				c-0.159,0.223-0.317,0.365-0.476,0.428c-0.064,0.033-0.175,0.064-0.333,0.096c-0.159,0.031-0.27,0.064-0.333,0.096
				c-0.127,0.063-0.254,0.095-0.381,0.095c-0.063,0-0.159-0.031-0.285-0.095c-0.19,0.158-0.556,0.237-1.095,0.237h-0.951
				c-0.127,0-0.35,0.009-0.666,0.024c-0.317,0.016-0.57,0.023-0.761,0.023h-0.333c-0.128-0.031-0.286-0.031-0.477,0
				c-0.095,0-0.214-0.008-0.356-0.023s-0.246-0.024-0.31-0.024s-0.15,0.009-0.261,0.024c-0.112,0.016-0.199,0.023-0.262,0.023
				c-0.064,0-0.151-0.008-0.262-0.023c-0.112-0.016-0.184-0.024-0.215-0.024c-0.158,0-0.27,0.032-0.333,0.095
				c0.031,0.064,0.048,0.16,0.048,0.285c-0.19,0.096-0.302,0.16-0.333,0.191c0.031,0.031,0.048,0.127,0.048,0.285l-0.048,0.285
				c0,0.064-0.032,0.127-0.095,0.191c-0.064,0.063-0.096,0.111-0.096,0.143c0.031,0.031,0.031,0.063,0,0.094l0.096,0.049
				c0.031,0,0.047,0.016,0.047,0.047c0.031,0.189,0.056,0.588,0.071,1.189c0.016,0.604,0.072,1.047,0.167,1.332
				c-0.095,0.254-0.159,0.412-0.19,0.477c0.031,0.063,0.079,0.094,0.143,0.094s0.096,0.018,0.096,0.049
				c0,0.254-0.017,0.428-0.048,0.523c0.095,0.158,0.143,0.332,0.143,0.523c0,0.221-0.079,0.443-0.237,0.666
				c0,0.063-0.009,0.135-0.024,0.213c-0.017,0.08-0.023,0.135-0.023,0.166c0,0.191,0.016,0.453,0.048,0.785
				c0.031,0.334,0.047,0.564,0.047,0.689c0,0.16-0.016,0.287-0.047,0.381c0.189,0.127,0.349,0.287,0.476,0.477
				c0.095,0,0.237-0.008,0.428-0.023s0.316-0.023,0.381-0.023c0.158,0,0.333,0.031,0.523,0.094c0.316-0.063,0.57-0.094,0.761-0.094
				l0.476,0.047c0.031,0.031,0.127,0.08,0.286,0.143c0.158,0.064,0.253,0.127,0.285,0.189h0.19c0.031,0.033,0.143,0.129,0.333,0.287
				s0.349,0.254,0.476,0.285c0,0.094,0.063,0.189,0.19,0.285c-0.064,0.064-0.071,0.158-0.024,0.285
				c0.048,0.127,0.072,0.207,0.072,0.238v0.096l-0.19,0.189c0,0.064-0.04,0.158-0.119,0.285c-0.08,0.127-0.119,0.238-0.119,0.334
				c-0.032,0.031-0.095,0.047-0.19,0.047c-0.031,0.127-0.111,0.285-0.237,0.477l-0.666,0.143c-0.064,0-0.159,0.016-0.286,0.047
				c-0.063,0.064-0.127,0.096-0.19,0.096c-0.095,0-0.206-0.016-0.333-0.049c-0.127-0.031-0.237-0.047-0.333-0.047l-0.476,0.047
				h-0.143c-0.063,0-0.15-0.016-0.262-0.047s-0.183-0.047-0.214-0.047c-0.095,0-0.159,0.016-0.19,0.047
				c-0.095,0.096-0.143,0.27-0.143,0.523c0,0.031-0.008,0.096-0.023,0.189c-0.017,0.096-0.024,0.176-0.024,0.238
				c0,0.127,0.016,0.303,0.048,0.523c0.031,0.223,0.048,0.381,0.048,0.477v0.523c0.095,0.031,0.349,0.119,0.761,0.262
				s0.697,0.277,0.856,0.404c0.063,0,0.11-0.008,0.143-0.025c0.031-0.016,0.063-0.023,0.096-0.023
				c0.285,0.096,0.618,0.143,0.999,0.143c0.285,0,0.649-0.031,1.094-0.094c0.031,0,0.111,0.063,0.238,0.189
				c0.095,0,0.293-0.023,0.595-0.07c0.301-0.049,0.53-0.072,0.689-0.072c0.222,0,0.396,0.047,0.523,0.143
				c0.031-0.063,0.11-0.07,0.237-0.023s0.206,0.07,0.238,0.07h0.095c0.031,0.033,0.063,0.064,0.096,0.096l0.095,0.047l0.429,0.145
				c0.126,0.189,0.19,0.348,0.19,0.475c0.031,0.031,0.095,0.088,0.19,0.166c0.095,0.08,0.158,0.137,0.189,0.168
				c0.063,0.063,0.096,0.236,0.096,0.523c0,0.254-0.032,0.428-0.096,0.523l-0.143,0.094c-0.222,0.318-0.412,0.508-0.57,0.572
				l-0.429,0.189h-0.237c-0.096,0-0.207,0.041-0.333,0.119c-0.128,0.08-0.223,0.119-0.286,0.119s-0.127-0.008-0.19-0.023
				s-0.111-0.025-0.143-0.025s-0.095,0.049-0.19,0.143c-0.095,0-0.23,0.049-0.404,0.145c-0.175,0.094-0.309,0.158-0.404,0.189
				c-0.063,0-0.206,0.008-0.428,0.023c-0.223,0.016-0.397,0.039-0.523,0.072c-0.254,0.063-0.508,0.094-0.761,0.094
				c-0.19,0-0.318-0.016-0.381-0.047l-0.143,0.047c-0.064,0.031-0.112,0.064-0.144,0.096c-0.063-0.031-0.158-0.047-0.285-0.047
				c-0.063,0-0.159,0.008-0.285,0.023c-0.127,0.016-0.223,0.023-0.285,0.023c-0.032,0-0.08,0-0.144,0l-0.047-0.047
				c-0.032,0-0.08,0.008-0.143,0.023c-0.064,0.016-0.112,0.023-0.144,0.023c-0.095,0.031-0.302,0.047-0.618,0.047h-0.666
				c-0.127,0.064-0.206,0.096-0.237,0.096c-0.096,0.031-0.238,0.049-0.429,0.049c-0.285,0-0.492-0.018-0.618-0.049l-0.238,0.143
				c-0.159,0-0.389,0.016-0.689,0.049c-0.302,0.031-0.531,0.047-0.69,0.047c-0.189,0-0.349-0.016-0.476-0.047
				c-0.063-0.064-0.237-0.143-0.523-0.238c-0.285-0.096-0.46-0.223-0.522-0.381c-0.064,0-0.151-0.047-0.262-0.143
				c-0.112-0.096-0.215-0.158-0.31-0.191c-0.064-0.189-0.238-0.371-0.523-0.547c-0.285-0.174-0.46-0.293-0.523-0.355
				c0-0.127-0.063-0.223-0.19-0.285c0-0.064-0.008-0.135-0.023-0.215c-0.017-0.078-0.023-0.135-0.023-0.166
				c-0.128-0.096-0.286-0.27-0.477-0.523c-0.031-0.064-0.031-0.127,0-0.191v-0.047c-0.222-0.285-0.333-0.539-0.333-0.762v-0.096
				c-0.095-0.158-0.174-0.459-0.237-0.902c-0.064-0.445-0.159-0.746-0.285-0.904v-0.096c0-0.063-0.032-0.174-0.096-0.332
				s-0.095-0.27-0.095-0.334l0.047-0.189c-0.127-0.223-0.189-0.477-0.189-0.762c0-0.189-0.009-0.412-0.024-0.666
				c-0.017-0.254-0.04-0.539-0.071-0.855c-0.032-0.318-0.048-0.572-0.048-0.762v-1.143c0-0.125,0.016-0.309,0.048-0.547
				c0.031-0.238,0.048-0.404,0.048-0.5c0-0.063-0.009-0.174-0.023-0.332c-0.017-0.158-0.024-0.285-0.024-0.381
				c0-0.158,0.016-0.285,0.048-0.381c-0.032-0.031-0.032-0.047,0-0.047l0.095-0.049c-0.159-1.045-0.237-1.775-0.237-2.188
				c0-0.096,0.031-0.27,0.095-0.523h-0.048c-0.063,0-0.095-0.016-0.095-0.047c0-0.191,0.008-0.5,0.023-0.928
				c0.016-0.43,0.024-0.754,0.024-0.977c0-0.031-0.009-0.094-0.024-0.189s-0.023-0.174-0.023-0.238c0-0.127,0.048-0.238,0.143-0.332
				l-0.048-0.049c-0.063,0-0.079-0.031-0.047-0.094c0.095-0.762,0.143-1.507,0.143-2.236c0.031-0.031,0.079-0.072,0.143-0.119
				c0.063-0.048,0.11-0.088,0.143-0.119c-0.032-0.063-0.063-0.079-0.095-0.048c-0.032,0.032-0.064,0.032-0.096,0
				c0-0.19,0.048-0.404,0.143-0.642c0.096-0.238,0.159-0.404,0.19-0.5c0.031,0,0.071-0.031,0.119-0.096
				c0.048-0.063,0.103-0.095,0.167-0.095c0.063-0.126,0.221-0.277,0.476-0.452c0.253-0.174,0.411-0.324,0.476-0.451
				c0.031,0,0.253-0.048,0.666-0.143c0.19,0,0.316-0.08,0.381-0.238c0.031,0.031,0.078,0.047,0.143,0.047
				c0.063,0,0.166-0.031,0.309-0.095c0.144-0.063,0.23-0.095,0.262-0.095c0.096-0.031,0.238-0.048,0.429-0.048
				s0.381,0.032,0.57,0.095c0.063,0,0.15-0.016,0.262-0.047s0.215-0.055,0.31-0.072c0.095-0.016,0.19-0.023,0.285-0.023
				c0.031,0,0.079,0.017,0.143,0.048h0.096c0.063,0,0.158-0.016,0.285-0.048c0.127-0.031,0.238-0.047,0.333-0.047l0.19,0.047
				c0.126,0,0.293-0.016,0.5-0.047c0.205-0.031,0.356-0.049,0.451-0.049h0.144L74.128,107.788z"/>
		</g>
		<g>
			<path fill="#231F20" d="M12.814,135.679h0.128c0.127,0.129,0.414,0.256,0.859,0.383c0.446,0.127,0.711,0.277,0.797,0.445h0.382
				c0.085,0.213,0.318,0.479,0.701,0.797c0.382,0.318,0.573,0.541,0.573,0.67l0.573-0.383c0.085-0.041,0.201-0.074,0.351-0.096
				c0.148-0.021,0.275-0.053,0.383-0.096c0.105-0.041,0.232-0.074,0.382-0.096c0.148-0.021,0.287-0.053,0.414-0.096
				c0.042,0,0.159-0.041,0.351-0.127c0.191-0.084,0.328-0.127,0.414-0.127h0.127c0.042,0,0.255-0.033,0.638-0.096
				c0.382-0.064,0.658-0.096,0.828-0.096c0.297,0,0.51,0.021,0.637,0.063h0.319c0.679,0,1.061,0.023,1.146,0.064
				c0.042,0,0.085,0.021,0.127,0.064s0.074,0.074,0.096,0.096s0.053,0.031,0.096,0.031h0.318c0.34,0.254,0.595,0.404,0.765,0.445
				c0.128,0.043,0.297,0.076,0.51,0.096c0.212,0.021,0.34,0.033,0.383,0.033c0.255,0.127,0.403,0.189,0.445,0.189
				c0.722,0.639,1.084,1.211,1.084,1.721c0,0.043,0.021,0.107,0.063,0.191c0.127,0.127,0.169,0.256,0.127,0.383v0.063h0.063
				c0.042,0,0.074,0,0.096,0s0.032,0.023,0.032,0.064c0,0.17,0.053,0.414,0.159,0.732c0.105,0.318,0.159,0.584,0.159,0.797v0.127
				c0.042,0.043,0.233,0.404,0.573,1.084c-0.042,0.086-0.063,0.254-0.063,0.51c0,0.043-0.043,0.191-0.127,0.445
				c0,0.043,0.021,0.074,0.063,0.096c0.042,0.021,0.063,0.053,0.063,0.096s-0.021,0.086-0.063,0.127v0.127
				c0,0.043,0.053,0.129,0.159,0.256c0.105,0.127,0.159,0.234,0.159,0.318c0,0.127-0.032,0.309-0.096,0.541
				c-0.063,0.234-0.096,0.395-0.096,0.479v0.191c-0.17,0.764-0.425,1.486-0.765,2.166c-0.127,0-0.233,0.105-0.318,0.318
				s-0.17,0.318-0.255,0.318c0.042,0.17,0.201,0.318,0.479,0.445c0.275,0.129,0.435,0.213,0.478,0.256
				c0.085,0.086,0.212,0.223,0.382,0.414s0.297,0.33,0.383,0.414c0.042,0,0.084,0.021,0.127,0.064c0.042,0.041,0.085,0.041,0.128,0
				l0.382,0.381c0,0.129,0.021,0.234,0.063,0.318c0.085,0.086,0.34,0.383,0.765,0.893v0.318c0.085,0.127,0.201,0.361,0.351,0.701
				c0.148,0.34,0.287,0.574,0.414,0.701c-0.043,0.086-0.063,0.182-0.063,0.287s0,0.201,0,0.285l0.573,1.148
				c0,0.043-0.021,0.148-0.063,0.318c0.042,0.127,0.148,0.318,0.318,0.572c-0.043,0.043-0.021,0.234,0.063,0.574
				c-0.042,0.043-0.063,0.254-0.063,0.637c0,0.127-0.021,0.287-0.063,0.479c-0.043,0.191-0.063,0.328-0.063,0.414
				c0,0.127,0.041,0.33,0.127,0.605c0.085,0.275,0.128,0.457,0.128,0.541c-0.255,0.637-0.383,1.02-0.383,1.146
				c0,0.043,0.01,0.096,0.032,0.16c0.021,0.063,0.031,0.117,0.031,0.158c0,0.086-0.031,0.182-0.095,0.287
				c-0.064,0.107-0.096,0.182-0.096,0.223c-0.255,0.342-0.446,0.617-0.573,0.828l-0.191,0.064c0,0.127-0.063,0.277-0.191,0.445
				c-0.127,0.17-0.191,0.342-0.191,0.51c-0.127,0-0.233,0.096-0.318,0.287c-0.086,0.191-0.191,0.287-0.318,0.287
				c-0.043,0.383-0.255,0.68-0.637,0.891c-0.043,0.043-0.107,0.107-0.191,0.191c-0.171,0.172-0.298,0.256-0.383,0.256
				c-0.127,0.254-0.276,0.467-0.445,0.637c-0.086,0-0.171,0.031-0.255,0.096c-0.086,0.064-0.182,0.148-0.287,0.254
				c-0.106,0.107-0.202,0.182-0.286,0.225c-0.043,0-0.096,0-0.16,0c-0.063,0-0.117,0.021-0.159,0.063
				c-0.085,0.043-0.19,0.139-0.318,0.287c-0.127,0.15-0.233,0.244-0.318,0.287c-0.383,0.086-0.893,0.17-1.529,0.254
				c-0.637,0.086-1.063,0.15-1.274,0.191c-0.085,0-0.213,0.043-0.382,0.127c-0.213,0-0.489-0.02-0.828-0.063
				c-0.341-0.043-0.638-0.086-0.893-0.127c-0.043-0.086-0.127-0.148-0.255-0.191c-0.127-0.043-0.213-0.086-0.255-0.129
				c-0.765-0.127-1.636-0.486-2.612-1.082c-0.085,0.086-0.181,0.213-0.286,0.383c-0.106,0.17-0.191,0.309-0.255,0.414
				s-0.159,0.213-0.287,0.318c-0.127,0.105-0.276,0.182-0.445,0.223c-0.255,0.469-0.978,0.744-2.167,0.828
				c-0.127,0-0.7-0.064-1.72-0.191c-0.341,0-0.638-0.041-0.893-0.127c-0.425-0.084-0.764-0.213-1.019-0.383
				c-0.341-0.34-0.723-0.828-1.147-1.465c-0.17-0.213-0.318-0.424-0.445-0.637L8.8,164.796c-0.043-0.084-0.106-0.191-0.191-0.318
				c-0.086-0.127-0.149-0.232-0.191-0.318s-0.063-0.213-0.063-0.383c0-0.084,0.021-0.254,0.063-0.51
				c0.042-0.254,0.042-0.445,0-0.572c-0.042-0.043-0.095-0.086-0.159-0.129c-0.063-0.041-0.117-0.084-0.159-0.127v-0.318
				c-0.127-0.084-0.202-0.213-0.223-0.383c-0.022-0.168-0.032-0.371-0.032-0.605c0-0.232-0.021-0.414-0.063-0.541
				c0-0.041,0-0.084,0-0.127c0.085,0,0.105-0.043,0.063-0.127c-0.127-0.34-0.191-0.701-0.191-1.084v-1.594
				c0-0.424-0.021-0.742-0.063-0.955c0.042-0.041,0.063-0.105,0.063-0.191c0-0.084,0.021-0.127,0.064-0.127
				c0-0.17-0.043-0.297-0.128-0.383c0.042-0.594,0.042-1.453,0-2.58c-0.043-1.125-0.063-1.857-0.063-2.197
				c0-0.043,0.021-0.086,0.063-0.127c0.042-0.043,0.063-0.086,0.063-0.129c-0.042-0.127-0.063-0.359-0.063-0.701
				c0-0.338,0.105-1.188,0.318-2.547c0.042,0,0.074-0.053,0.096-0.16c0.021-0.105,0.074-0.137,0.159-0.096
				c-0.042-0.041-0.063-0.105-0.063-0.191c0-0.084,0-0.148,0-0.191l-0.063-0.127c-0.043-0.041-0.063-0.084-0.063-0.127
				c0-0.127,0.01-0.309,0.031-0.541c0.021-0.234,0.053-0.52,0.096-0.861c0.042-0.34,0.063-0.594,0.063-0.764
				c0.085-0.977,0.255-1.508,0.51-1.594c0-0.084-0.042-0.137-0.127-0.158c-0.086-0.021-0.128-0.053-0.128-0.096l0.128-0.127
				c0.042-0.043,0.042-0.064,0-0.064l-0.128-0.064c0.255-1.061,0.383-1.613,0.383-1.656l-0.063-0.063
				c-0.043-0.043-0.043-0.086,0-0.129c0.041-0.084,0.063-0.328,0.063-0.732c0-0.402,0.063-0.711,0.191-0.924
				c0-0.041,0.021-0.191,0.063-0.445c0.042-0.256,0.084-0.467,0.127-0.637l0.255-0.51l0.128-0.447l0.573-0.191
				c0.34-0.338,0.594-0.572,0.765-0.699c0.382-0.043,0.765-0.148,1.146-0.318c0.042,0.041,0.191,0.063,0.446,0.063l0.318-0.063
				V135.679z M18.357,141.286c-0.341,0-0.723,0.17-1.146,0.51c-0.128,0-0.255-0.021-0.383-0.064
				c-0.213,0.51-0.318,0.828-0.318,0.957c0.255,0.213,0.383,0.404,0.383,0.572c0,0.127-0.075,0.33-0.224,0.605
				c-0.149,0.277-0.223,0.479-0.223,0.605s0.053,0.297,0.159,0.51c0.105,0.213,0.159,0.361,0.159,0.445
				c0,0.043-0.021,0.086-0.063,0.129c-0.043,0-0.075,0.021-0.096,0.063c-0.021,0.043-0.032,0.086-0.032,0.127
				c0.085,0.172,0.128,0.342,0.128,0.51c0,0.129-0.043,0.234-0.128,0.318c0.085,0.043,0.201,0.119,0.351,0.225
				c0.148,0.105,0.308,0.18,0.478,0.223c0.085-0.043,0.17-0.148,0.255-0.318l2.357-0.574c1.062-0.127,1.657-0.232,1.784-0.318
				c0.424-0.213,0.638-0.531,0.638-0.955c0-0.129-0.012-0.256-0.032-0.383c-0.021-0.127-0.054-0.287-0.096-0.479
				c-0.043-0.191-0.063-0.328-0.063-0.414c-0.043-0.041-0.106-0.084-0.191-0.127c-0.17-0.127-0.276-0.213-0.318-0.254
				c-0.043-0.043-0.106-0.086-0.191-0.129c-0.17-0.084-0.255-0.148-0.255-0.191l-0.51-0.254c0-0.084-0.127-0.201-0.382-0.35
				s-0.404-0.287-0.446-0.414c-0.17-0.043-0.382-0.139-0.637-0.287s-0.446-0.223-0.573-0.223
				C18.654,141.308,18.526,141.286,18.357,141.286z M17.465,153.009c-0.171,0.213-0.298,0.68-0.383,1.402
				c-0.043,0.127-0.063,0.318-0.063,0.572v0.191c0,0.043,0.042,0.15,0.127,0.318c0.085,0.172,0.128,0.277,0.128,0.318
				c0,0.043-0.032,0.119-0.096,0.225s-0.096,0.18-0.096,0.223s-0.021,0.223-0.063,0.541c-0.043,0.318-0.127,0.564-0.255,0.732
				c0.212,0.043,0.318,0.318,0.318,0.828c0,0.213,0.085,0.383,0.255,0.51c-0.085,0.17-0.127,0.299-0.127,0.383
				c0,0.127,0.031,0.287,0.096,0.479c0.063,0.191,0.095,0.328,0.095,0.414c0,0.127-0.042,0.232-0.127,0.318
				c0.255,0.086,0.318,0.234,0.191,0.445c0.127,0.043,0.275,0.191,0.445,0.445c-0.213,0.129-0.318,0.234-0.318,0.32
				c0,0.127,0.159,0.328,0.479,0.604c0.318,0.277,0.498,0.479,0.541,0.605c0.383,0.043,0.85,0.023,1.401-0.063
				s0.935-0.127,1.147-0.127c0-0.043,0.063-0.148,0.19-0.32h0.319c0.084-0.127,0.308-0.275,0.669-0.445
				c0.36-0.17,0.583-0.297,0.669-0.383c0.084-0.084,0.212-0.275,0.382-0.572c0.169-0.297,0.36-0.51,0.573-0.637
				c0.128-0.426,0.212-0.723,0.255-0.893c0-0.084-0.063-0.16-0.19-0.223c-0.128-0.064-0.214-0.139-0.255-0.223v-0.191
				c0-0.086,0.031-0.213,0.095-0.383c0.064-0.17,0.096-0.297,0.096-0.383c0-0.084-0.021-0.158-0.063-0.223
				c-0.043-0.064-0.063-0.117-0.063-0.16v-0.637c0-0.381-0.043-0.678-0.128-0.891l-0.51-0.51c-0.085-0.129-0.19-0.234-0.318-0.318
				c-0.127-0.129-0.393-0.277-0.796-0.447c-0.404-0.168-0.712-0.34-0.924-0.51c-0.043,0-0.106,0.012-0.191,0.033
				c-0.086,0.021-0.17,0.01-0.255-0.033c-1.232-0.678-2.252-1.104-3.059-1.273C17.571,153.073,17.507,153.052,17.465,153.009z"/>
		</g>
		<g>
			<path fill="#5AB1AF" d="M68.629,89.202c0,0-4.18,19.113-9.08,20.441c-4.897,1.328-10.435,5.965-12.187,8.857
				c-1.253,2.066-3.212,12.572-4.76,10.758c-1.547-1.813-0.784-20.447-0.267-21.098c0.517-0.645,15.314-5.004,15.314-5.004
				l5.639-13.576L68.629,89.202z"/>
			<path fill="#5AB1AF" d="M39.165,83.187c0,0-4.113,14.336-1.771,19.918c3.627,3.367-5.087,0.602-6.348-8.967
				c-0.874-4.037,4.156-15.996,4.156-15.996l6.363,1.791L39.165,83.187z"/>
			<path fill="#5AB1AF" d="M43.503,121.921c0,0,2.341,2.346,0.015,10.592c-2.327,8.244-11.212,42.814-15.669,44.859
				c-4.459,2.045,1.085-11.365,1.085-11.365L43.503,121.921z"/>
			<g>
				<path fill="#7CCDCD" d="M66.104,86.438c-1.519-7.172-5.467,0.264-6.999,3.646c-1.81,4-4.261,9.018-7.323,12.07
					c-3.732,3.721-7.836,3.611-12.353,1.869c-5.742-2.215-6.011-4.645-5.073-10.357c0.714-4.357,2.271-8.406,2.519-12.875
					c0.115-2.063,0.905-4.365-1.089-5.83c-2.307-1.695-4.123-0.213-4.098,2.332c-3.782,11.381-4.664,21.9,2.138,32.662
					c6.069,9.607,4.75,10.781,0.678,21.236c-0.938,2.412-13.044,44.732-10.308,46.404c5.146,3.146,14.816-39.266,16.191-42.338
					c2.225-4.977,1.937-14.857,4.164-19.268c2.272-4.502,14.441-5.584,17.248-15.379C62.963,97.636,66.724,89.362,66.104,86.438z"/>
				<path fill="#231F20" d="M24.764,178.514c-0.336,0-0.659-0.094-0.959-0.277c-0.775-0.473-2.217-1.354,3.44-23.748
					c2.74-10.847,6.059-22.279,6.56-23.567c0.324-0.834,0.631-1.608,0.919-2.333c3.263-8.228,3.851-9.711-1.532-18.231
					c-6.084-9.626-6.76-19.557-2.253-33.184c0.014-1.191,0.384-2.212,1.049-2.884c1.057-1.07,2.697-1.066,4.243,0.068
					c1.958,1.438,1.708,3.581,1.507,5.302c-0.046,0.396-0.092,0.789-0.114,1.175c-0.154,2.777-0.805,5.411-1.434,7.959
					c-0.401,1.626-0.817,3.308-1.093,4.995c-0.887,5.407-0.723,7.482,4.603,9.536c1.95,0.753,3.64,1.118,5.164,1.118
					c2.397,0,4.487-0.922,6.39-2.818c2.904-2.895,5.253-7.613,7.169-11.849c2.134-4.713,4.07-7.102,5.753-7.102
					c1.898,0,2.474,2.717,2.663,3.609c0.526,2.479-1.501,7.703-3.623,12.841c-0.286,0.691-0.534,1.293-0.717,1.762
					c-1.787,6.248-7.247,9.093-11.634,11.379c-2.615,1.362-4.873,2.538-5.644,4.064c-1.07,2.119-1.557,5.777-2.027,9.315
					c-0.481,3.62-0.979,7.363-2.122,9.92c-0.294,0.658-1.086,3.585-2.089,7.291C32.872,165.439,28.586,178.514,24.764,178.514z
					 M24.65,176.989c0.05,0.021,0.087,0.024,0.114,0.024c3.422,0,10.214-25.101,12.771-34.55c1.2-4.434,1.841-6.781,2.168-7.512
					c1.054-2.358,1.537-5.991,2.004-9.505c0.509-3.831,0.99-7.449,2.175-9.794c0.988-1.957,3.444-3.237,6.289-4.72
					c4.348-2.265,9.275-4.832,10.907-10.528c0.209-0.542,0.46-1.152,0.75-1.854c1.403-3.398,4.016-9.725,3.542-11.958
					c-0.378-1.786-0.88-2.42-1.195-2.42c-0.756,0-2.451,1.946-4.387,6.221c-1.971,4.357-4.402,9.227-7.477,12.292
					c-2.198,2.191-4.634,3.256-7.448,3.256c-1.712,0-3.578-0.398-5.704-1.218c-6.254-2.413-6.492-5.399-5.543-11.179
					c0.286-1.747,0.709-3.458,1.117-5.112c0.641-2.595,1.247-5.046,1.393-7.684c0.023-0.415,0.072-0.839,0.122-1.265
					c0.218-1.864,0.265-3.059-0.906-3.919c-0.913-0.67-1.748-0.765-2.289-0.223c-0.399,0.403-0.624,1.111-0.615,1.942l0.001,0.126
					L32.4,77.53c-4.392,13.215-3.776,22.792,2.06,32.025c5.791,9.165,4.997,11.166,1.658,19.585
					c-0.286,0.723-0.592,1.494-0.916,2.324C33.855,134.928,23.066,173.796,24.65,176.989z"/>
			</g>
		</g>
		<g>
			<g>
				<path fill="#A87C4F" d="M19.352,50.632c0,0,2.302-10.109,12.21-5.738c9.906,4.371,6.907,22.576,30.141,26.143
					c23.233,3.568,25.661-0.811,27.194-0.92c3.309-2.416,14.568,2.586,8.137,13.303C88.719,102.14,14.799,90.595,19.352,50.632z"/>
				<path fill="#231F20" d="M74.442,92.909c-15.614,0-36.541-5.795-48.095-18.74c-6.138-6.877-8.743-14.824-7.74-23.622
					c0.031-0.156,1.78-7.5,8.362-7.5c1.503,0,3.15,0.391,4.896,1.16c3.936,1.737,5.957,5.524,8.095,9.534
					c3.595,6.738,7.669,14.376,21.856,16.554c6,0.921,11.139,1.389,15.276,1.389c6.773,0,9.194-1.213,10.495-1.864
					c0.383-0.191,0.701-0.351,1.029-0.419c0.647-0.414,1.496-0.632,2.469-0.632c2.435,0,5.854,1.41,7.607,4.507
					c1.174,2.075,1.952,5.586-1.016,10.529C95.126,89.562,86.642,92.909,74.442,92.909z M26.969,44.547
					c-5.379,0-6.827,5.997-6.886,6.253c-0.938,8.271,1.542,15.826,7.383,22.37c11.185,12.531,32.191,18.239,46.976,18.239
					c11.41,0,19.6-3.101,21.906-8.295c2.097-3.504,2.441-6.622,1.039-9.1c-1.392-2.459-4.224-3.746-6.302-3.746
					c-0.725,0-1.345,0.161-1.746,0.453l-0.174,0.127l-0.215,0.016c-0.115,0.008-0.408,0.155-0.691,0.297
					c-1.412,0.707-4.04,2.022-11.167,2.022c-4.213,0-9.429-0.474-15.503-1.406c-14.929-2.292-19.378-10.63-22.952-17.33
					c-2.101-3.938-3.916-7.34-7.377-8.867C29.706,44.895,28.263,44.547,26.969,44.547z"/>
			</g>
			<g>
				<g>
					<path fill="#754C28" d="M35.76,52.917c0,0-5.036-4.387-7.68,4.328c-2.646,8.715,2.839,4.277,3.771,2.588
						c0.932-1.688,2.518-5.104,5.999-4.203C41.331,56.532,35.76,52.917,35.76,52.917z"/>
					<path fill="#231F20" d="M28.344,63.221c-0.529,0-0.988-0.226-1.292-0.635c-0.667-0.899-0.568-2.666,0.31-5.559
						c1.496-4.93,3.834-5.965,5.533-5.965c1.695,0,3.043,1.031,3.311,1.25c3.819,2.483,3.628,3.129,3.501,3.557
						c-0.045,0.153-0.253,0.655-1.014,0.655l0,0c-0.261,0-0.589-0.054-1.032-0.169c-0.32-0.082-0.631-0.124-0.924-0.124
						c-2.082,0-3.264,2.181-4.045,3.624l-0.185,0.34C31.92,61.262,29.892,63.221,28.344,63.221z M32.896,52.563
						c-2.158,0-3.419,2.665-4.098,4.9c-1.039,3.419-0.595,4.157-0.541,4.229l0.086,0.028c0.731,0,2.372-1.382,2.85-2.25l0.18-0.329
						c0.925-1.709,2.547-4.603,5.689-4.399c-0.522-0.394-1.141-0.825-1.711-1.196l-0.084-0.063
						C35.259,53.476,34.18,52.563,32.896,52.563z"/>
				</g>
				<g>
					<path fill="#754C28" d="M82.983,72.962c0,0,6.645-0.668,3.764,7.973c-2.883,8.639-4.79,1.846-4.575-0.07
						c0.217-1.916,0.898-5.619-2.462-6.898C76.349,72.688,82.983,72.962,82.983,72.962z"/>
					<path fill="#231F20" d="M84.005,85.965c-0.331,0-0.825-0.112-1.301-0.645c-0.955-1.067-1.402-3.439-1.278-4.54l0.045-0.383
						c0.303-2.498,0.375-4.815-2.029-5.73c-0.551-0.21-1.577-0.6-1.419-1.457c0.144-0.784,0.989-1.022,3.618-1.022
						c0.637,0,1.168,0.018,1.325,0.023c0.401-0.032,2.945-0.147,4.372,1.832c1.132,1.571,1.172,3.97,0.119,7.129
						C86.352,84.486,85.287,85.965,84.005,85.965z M80.871,73.697c2.724,1.648,2.317,5.001,2.089,6.881l-0.044,0.37
						c-0.088,0.789,0.298,2.693,0.906,3.373c0.106,0.118,0.174,0.144,0.183,0.144c0.008,0,0.807-0.103,2.03-3.768
						c0.879-2.638,0.91-4.636,0.087-5.777c-0.986-1.368-2.988-1.216-3.067-1.212l-0.05,0.005l-0.053-0.002
						c-0.006,0-0.586-0.023-1.31-0.023C81.353,73.688,81.097,73.691,80.871,73.697z"/>
				</g>
				<g>
					<path fill="#754C28" d="M44.679,63.446c0,0-5.035-4.387-7.681,4.328c-2.646,8.715,2.84,4.277,3.771,2.588
						C41.702,68.675,44.679,63.446,44.679,63.446z"/>
					<path fill="#231F20" d="M37.263,73.75L37.263,73.75c-0.53-0.001-0.988-0.226-1.292-0.635c-0.667-0.9-0.569-2.666,0.31-5.559
						c1.497-4.93,3.835-5.965,5.534-5.965c1.856,0,3.296,1.236,3.357,1.289l0.463,0.403l-0.304,0.533
						c0,0.001-2.974,5.222-3.904,6.907C40.839,71.791,38.811,73.75,37.263,73.75z M41.815,63.092c-2.158,0-3.42,2.665-4.099,4.9
						c-1.038,3.419-0.594,4.156-0.541,4.229l0.087,0.028c0.731,0,2.372-1.382,2.851-2.25c0.74-1.341,2.77-4.913,3.577-6.332
						C43.253,63.407,42.569,63.092,41.815,63.092z"/>
				</g>
				<g>
					<path fill="#754C28" d="M71.595,74.286c0,0,4.506-1.557,2.917,7.373s-3.188,2.475-3.126,0.551
						C71.451,80.286,71.595,74.286,71.595,74.286z"/>
					<path fill="#231F20" d="M72.758,87.019c-0.227,0-0.567-0.071-0.896-0.411c-0.857-0.886-1.259-3.386-1.226-4.422
						c0.064-1.923,0.208-7.917,0.208-7.917l0.013-0.521l0.493-0.17c0.043-0.015,0.435-0.146,0.965-0.146
						c0.9,0,1.675,0.357,2.241,1.033c1.109,1.323,1.336,3.72,0.694,7.326C74.581,85.553,73.882,87.019,72.758,87.019z M72.33,74.933
						c-0.039,1.59-0.142,5.758-0.194,7.303c-0.028,0.867,0.306,2.402,0.626,3.061c0.216-0.41,0.591-1.405,1.012-3.769
						c0.723-4.063,0.08-5.565-0.368-6.1C73.129,75.098,72.777,74.936,72.33,74.933z"/>
				</g>
				<g>
					<path fill="#754C28" d="M54.963,70.192c0,0-5.037-4.389-7.682,4.326c-2.646,8.717,2.84,4.277,3.771,2.59
						S54.963,70.192,54.963,70.192z"/>
					<path fill="#231F20" d="M47.546,80.495L47.546,80.495c-0.53-0.001-0.988-0.226-1.292-0.635c-0.667-0.9-0.569-2.667,0.31-5.56
						c1.496-4.929,3.834-5.964,5.533-5.964c1.857,0,3.298,1.237,3.359,1.29l0.463,0.403l-0.304,0.533
						c0,0.001-2.975,5.222-3.905,6.907C51.121,78.537,49.093,80.495,47.546,80.495z M52.097,69.837
						c-2.158,0-3.419,2.664-4.098,4.899c-1.038,3.42-0.594,4.157-0.54,4.23l0.086,0.028c0.73,0,2.372-1.382,2.851-2.249
						c0.74-1.341,2.771-4.913,3.578-6.332C53.537,70.152,52.853,69.837,52.097,69.837z"/>
				</g>
				<g>
					<path fill="#754C28" d="M60.408,72.87c0,0,4.54-0.637,1.142,7.77s-3.509,1.789-3.034-0.076
						C58.986,78.698,60.408,72.87,60.408,72.87z"/>
					<path fill="#231F20" d="M58.992,85.552c-0.348,0-0.667-0.163-0.898-0.46c-0.785-1.01-0.534-3.816-0.306-4.713
						c0.47-1.862,1.891-7.687,1.891-7.687l0.119-0.486l0.506-0.079c0,0,0.118-0.018,0.312-0.018c0.464,0,1.622,0.117,2.354,1.203
						c0.989,1.467,0.752,3.955-0.725,7.608C60.691,84.765,59.82,85.552,58.992,85.552z M60.989,73.652
						c-0.376,1.54-1.368,5.596-1.747,7.095c-0.21,0.825-0.237,2.294-0.095,3.035c0.304-0.399,0.856-1.319,1.707-3.424
						c1.649-4.08,1.254-5.641,0.872-6.207C61.523,73.85,61.239,73.712,60.989,73.652z"/>
				</g>
			</g>
			<g>
				<defs>
					<path id="SVGID_3_" d="M35.76,52.917c0,0-5.036-4.387-7.68,4.328c-2.646,8.715,2.839,4.277,3.771,2.588
						c0.932-1.688,2.518-5.104,5.999-4.203C41.331,56.532,35.76,52.917,35.76,52.917z M86.747,80.935
						c2.881-8.641-3.764-7.973-3.764-7.973s-6.634-0.273-3.273,1.004c3.36,1.279,2.679,4.982,2.462,6.898
						C81.957,82.78,83.864,89.573,86.747,80.935z M36.999,67.774c-2.646,8.715,2.84,4.277,3.771,2.588
						c0.932-1.688,3.909-6.916,3.909-6.916S39.644,59.06,36.999,67.774z M71.595,74.286c0,0-0.145,6-0.209,7.924
						c-0.063,1.924,1.537,8.379,3.126-0.551S71.595,74.286,71.595,74.286z M47.282,74.519c-2.646,8.717,2.84,4.277,3.771,2.59
						s3.91-6.916,3.91-6.916S49.926,65.804,47.282,74.519z M60.408,72.87c0,0-1.422,5.828-1.893,7.693
						c-0.475,1.865-0.364,8.482,3.034,0.076S60.408,72.87,60.408,72.87z"/>
				</defs>
				<clipPath id="SVGID_2_">
					<use xlink:href="#SVGID_3_"  overflow="visible"/>
				</clipPath>
				<path clip-path="url(#SVGID_2_)" fill="#603813" d="M42.937,54.737c0,0-11.288-5.961-18.79,8.162
					c-7.504,14.121,14.516-3.883,14.516-3.883L42.937,54.737z"/>
				<path clip-path="url(#SVGID_2_)" fill="#603813" d="M47.507,60.872c0,0-8.413,3.051-11.38,13.807
					c-2.97,10.754,11.689-11.596,11.689-11.596L47.507,60.872z"/>
				<path clip-path="url(#SVGID_2_)" fill="#603813" d="M57.171,67.11c0,0-12.377,6.871-11.156,17.121
					c1.221,10.256,13.554-16.057,13.554-16.057L57.171,67.11z"/>
				<path clip-path="url(#SVGID_2_)" fill="#603813" d="M61.493,67.083c0,0,0.057,13.557-2.401,19.143
					c1.512,5.689,7.892-17.76,7.892-17.76L61.493,67.083z"/>
				<path clip-path="url(#SVGID_2_)" fill="#603813" d="M71.812,68.476c0,0,1.34,4.174,1.651,21.285
					c0.022,1.203,3.564-12.525,3.564-12.525L71.812,68.476z"/>
				<path clip-path="url(#SVGID_2_)" fill="#603813" d="M77,69.866c0,0,11.421,4.496,10.002,18.441
					c-1.42,13.945,3.427-15.387,3.427-15.387l-11.962-6.359L77,69.866z"/>
			</g>
		</g>
		<g opacity="0.7">
			<path fill="#C1B49A" d="M44.762,52.304c0.302-6.668,2.099-10.494,5.999-15.939c3.625-5.055,5.801-11.066,7.136-17.025
				c1.084-4.832,0.749-7.666-1.297-11.992c3.866,6.061,7.315,11.176,5.571,18.367c-1.51,6.24-7.377,11.273-9.727,16.922
				c-2.113,5.08-1.832,14.494-0.639,19.365c1.434,5.867,4.336,12.086,3.188,18.248C54.687,75.624,44.052,67.925,44.762,52.304z"/>
			<path fill="#C1B49A" d="M60.173,56.507c-0.178,2.385,0.061,7.412,0.047,8.051c-5.67-12.398,0.033-23.871,5.365-33.725
				C65.605,41.905,60.658,45.558,60.173,56.507z"/>
		</g>
	</g>
	<g>
		<path fill="#231F20" d="M38.468,135.679h0.128c0.127,0.129,0.414,0.256,0.859,0.383c0.446,0.127,0.711,0.277,0.797,0.445h0.382
			c0.085,0.213,0.318,0.479,0.701,0.797c0.382,0.318,0.573,0.541,0.573,0.67l0.573-0.383c0.085-0.041,0.201-0.074,0.351-0.096
			c0.148-0.021,0.275-0.053,0.383-0.096c0.105-0.041,0.232-0.074,0.382-0.096c0.148-0.021,0.287-0.053,0.414-0.096
			c0.042,0,0.159-0.041,0.351-0.127c0.191-0.084,0.328-0.127,0.414-0.127h0.127c0.042,0,0.255-0.033,0.638-0.096
			c0.382-0.064,0.658-0.096,0.828-0.096c0.297,0,0.51,0.021,0.637,0.063h0.319c0.679,0,1.061,0.023,1.146,0.064
			c0.042,0,0.085,0.021,0.127,0.064s0.074,0.074,0.096,0.096s0.053,0.031,0.096,0.031h0.318c0.34,0.254,0.595,0.404,0.765,0.445
			c0.128,0.043,0.297,0.076,0.51,0.096c0.212,0.021,0.34,0.033,0.383,0.033c0.255,0.127,0.403,0.189,0.445,0.189
			c0.722,0.639,1.084,1.211,1.084,1.721c0,0.043,0.021,0.107,0.063,0.191c0.127,0.127,0.169,0.256,0.127,0.383v0.063h0.063
			c0.042,0,0.074,0,0.096,0s0.032,0.023,0.032,0.064c0,0.17,0.053,0.414,0.159,0.732c0.105,0.318,0.159,0.584,0.159,0.797v0.127
			c0.042,0.043,0.233,0.404,0.573,1.084c-0.042,0.086-0.063,0.254-0.063,0.51c0,0.043-0.043,0.191-0.127,0.445
			c0,0.043,0.021,0.074,0.063,0.096c0.042,0.021,0.063,0.053,0.063,0.096s-0.021,0.086-0.063,0.127v0.127
			c0,0.043,0.053,0.129,0.159,0.256c0.105,0.127,0.159,0.234,0.159,0.318c0,0.127-0.032,0.309-0.096,0.541
			c-0.063,0.234-0.096,0.395-0.096,0.479v0.191c-0.17,0.764-0.425,1.486-0.765,2.166c-0.127,0-0.233,0.105-0.318,0.318
			s-0.17,0.318-0.255,0.318c0.042,0.17,0.201,0.318,0.479,0.445c0.275,0.129,0.435,0.213,0.478,0.256
			c0.085,0.086,0.212,0.223,0.382,0.414s0.297,0.33,0.383,0.414c0.042,0,0.084,0.021,0.127,0.064c0.042,0.041,0.085,0.041,0.128,0
			l0.382,0.381c0,0.129,0.021,0.234,0.063,0.318c0.085,0.086,0.34,0.383,0.765,0.893v0.318c0.085,0.127,0.201,0.361,0.351,0.701
			c0.148,0.34,0.287,0.574,0.414,0.701c-0.043,0.086-0.063,0.182-0.063,0.287s0,0.201,0,0.285l0.573,1.148
			c0,0.043-0.021,0.148-0.063,0.318c0.042,0.127,0.148,0.318,0.318,0.572c-0.043,0.043-0.021,0.234,0.063,0.574
			c-0.042,0.043-0.063,0.254-0.063,0.637c0,0.127-0.021,0.287-0.063,0.479c-0.043,0.191-0.063,0.328-0.063,0.414
			c0,0.127,0.041,0.33,0.127,0.605c0.085,0.275,0.128,0.457,0.128,0.541c-0.255,0.637-0.383,1.02-0.383,1.146
			c0,0.043,0.01,0.096,0.032,0.16c0.021,0.063,0.031,0.117,0.031,0.158c0,0.086-0.031,0.182-0.095,0.287
			c-0.064,0.107-0.096,0.182-0.096,0.223c-0.255,0.342-0.446,0.617-0.573,0.828l-0.191,0.064c0,0.127-0.063,0.277-0.191,0.445
			c-0.127,0.17-0.191,0.342-0.191,0.51c-0.127,0-0.233,0.096-0.318,0.287c-0.086,0.191-0.191,0.287-0.318,0.287
			c-0.043,0.383-0.255,0.68-0.637,0.891c-0.043,0.043-0.107,0.107-0.191,0.191c-0.171,0.172-0.298,0.256-0.383,0.256
			c-0.127,0.254-0.276,0.467-0.445,0.637c-0.086,0-0.171,0.031-0.255,0.096c-0.086,0.064-0.182,0.148-0.287,0.254
			c-0.106,0.107-0.202,0.182-0.286,0.225c-0.043,0-0.096,0-0.16,0c-0.063,0-0.117,0.021-0.159,0.063
			c-0.085,0.043-0.19,0.139-0.318,0.287c-0.127,0.15-0.233,0.244-0.318,0.287c-0.383,0.086-0.893,0.17-1.529,0.254
			c-0.637,0.086-1.063,0.15-1.274,0.191c-0.085,0-0.213,0.043-0.382,0.127c-0.213,0-0.489-0.02-0.828-0.063
			c-0.341-0.043-0.638-0.086-0.893-0.127c-0.043-0.086-0.127-0.148-0.255-0.191c-0.127-0.043-0.213-0.086-0.255-0.129
			c-0.765-0.127-1.636-0.486-2.612-1.082c-0.085,0.086-0.181,0.213-0.286,0.383c-0.106,0.17-0.191,0.309-0.255,0.414
			s-0.159,0.213-0.287,0.318c-0.127,0.105-0.276,0.182-0.445,0.223c-0.255,0.469-0.978,0.744-2.167,0.828
			c-0.127,0-0.7-0.064-1.72-0.191c-0.341,0-0.638-0.041-0.893-0.127c-0.425-0.084-0.764-0.213-1.019-0.383
			c-0.341-0.34-0.723-0.828-1.147-1.465c-0.17-0.213-0.318-0.424-0.445-0.637l-0.191-0.893c-0.043-0.084-0.106-0.191-0.191-0.318
			c-0.086-0.127-0.149-0.232-0.191-0.318s-0.063-0.213-0.063-0.383c0-0.084,0.021-0.254,0.063-0.51c0.042-0.254,0.042-0.445,0-0.572
			c-0.042-0.043-0.095-0.086-0.159-0.129c-0.063-0.041-0.117-0.084-0.159-0.127v-0.318c-0.127-0.084-0.202-0.213-0.223-0.383
			c-0.022-0.168-0.032-0.371-0.032-0.605c0-0.232-0.021-0.414-0.063-0.541c0-0.041,0-0.084,0-0.127c0.085,0,0.105-0.043,0.063-0.127
			c-0.127-0.34-0.191-0.701-0.191-1.084v-1.594c0-0.424-0.021-0.742-0.063-0.955c0.042-0.041,0.063-0.105,0.063-0.191
			c0-0.084,0.021-0.127,0.064-0.127c0-0.17-0.043-0.297-0.128-0.383c0.042-0.594,0.042-1.453,0-2.58
			c-0.043-1.125-0.063-1.857-0.063-2.197c0-0.043,0.021-0.086,0.063-0.127c0.042-0.043,0.063-0.086,0.063-0.129
			c-0.042-0.127-0.063-0.359-0.063-0.701c0-0.338,0.105-1.188,0.318-2.547c0.042,0,0.074-0.053,0.096-0.16
			c0.021-0.105,0.074-0.137,0.159-0.096c-0.042-0.041-0.063-0.105-0.063-0.191c0-0.084,0-0.148,0-0.191l-0.063-0.127
			c-0.043-0.041-0.063-0.084-0.063-0.127c0-0.127,0.01-0.309,0.031-0.541c0.021-0.234,0.053-0.52,0.096-0.861
			c0.042-0.34,0.063-0.594,0.063-0.764c0.085-0.977,0.255-1.508,0.51-1.594c0-0.084-0.042-0.137-0.127-0.158
			c-0.086-0.021-0.128-0.053-0.128-0.096l0.128-0.127c0.042-0.043,0.042-0.064,0-0.064l-0.128-0.064
			c0.255-1.061,0.383-1.613,0.383-1.656l-0.063-0.063c-0.043-0.043-0.043-0.086,0-0.129c0.041-0.084,0.063-0.328,0.063-0.732
			c0-0.402,0.063-0.711,0.191-0.924c0-0.041,0.021-0.191,0.063-0.445c0.042-0.256,0.084-0.467,0.127-0.637l0.255-0.51l0.128-0.447
			l0.573-0.191c0.34-0.338,0.594-0.572,0.765-0.699c0.382-0.043,0.765-0.148,1.146-0.318c0.042,0.041,0.191,0.063,0.446,0.063
			l0.318-0.063V135.679z M44.011,141.286c-0.341,0-0.723,0.17-1.146,0.51c-0.128,0-0.255-0.021-0.383-0.064
			c-0.213,0.51-0.318,0.828-0.318,0.957c0.255,0.213,0.383,0.404,0.383,0.572c0,0.127-0.075,0.33-0.224,0.605
			c-0.149,0.277-0.223,0.479-0.223,0.605s0.053,0.297,0.159,0.51c0.105,0.213,0.159,0.361,0.159,0.445
			c0,0.043-0.021,0.086-0.063,0.129c-0.043,0-0.075,0.021-0.096,0.063c-0.021,0.043-0.032,0.086-0.032,0.127
			c0.085,0.172,0.128,0.342,0.128,0.51c0,0.129-0.043,0.234-0.128,0.318c0.085,0.043,0.201,0.119,0.351,0.225
			c0.148,0.105,0.308,0.18,0.478,0.223c0.085-0.043,0.17-0.148,0.255-0.318l2.357-0.574c1.062-0.127,1.657-0.232,1.784-0.318
			c0.424-0.213,0.638-0.531,0.638-0.955c0-0.129-0.012-0.256-0.032-0.383c-0.021-0.127-0.054-0.287-0.096-0.479
			c-0.043-0.191-0.063-0.328-0.063-0.414c-0.043-0.041-0.106-0.084-0.191-0.127c-0.17-0.127-0.276-0.213-0.318-0.254
			c-0.043-0.043-0.106-0.086-0.191-0.129c-0.17-0.084-0.255-0.148-0.255-0.191l-0.51-0.254c0-0.084-0.127-0.201-0.382-0.35
			s-0.404-0.287-0.446-0.414c-0.17-0.043-0.382-0.139-0.637-0.287s-0.446-0.223-0.573-0.223
			C44.308,141.308,44.18,141.286,44.011,141.286z M43.12,153.009c-0.171,0.213-0.298,0.68-0.383,1.402
			c-0.043,0.127-0.063,0.318-0.063,0.572v0.191c0,0.043,0.042,0.15,0.127,0.318c0.085,0.172,0.128,0.277,0.128,0.318
			c0,0.043-0.032,0.119-0.096,0.225s-0.096,0.18-0.096,0.223s-0.021,0.223-0.063,0.541c-0.043,0.318-0.127,0.564-0.255,0.732
			c0.212,0.043,0.318,0.318,0.318,0.828c0,0.213,0.085,0.383,0.255,0.51c-0.085,0.17-0.127,0.299-0.127,0.383
			c0,0.127,0.031,0.287,0.096,0.479c0.063,0.191,0.095,0.328,0.095,0.414c0,0.127-0.042,0.232-0.127,0.318
			c0.255,0.086,0.318,0.234,0.191,0.445c0.127,0.043,0.275,0.191,0.445,0.445c-0.213,0.129-0.318,0.234-0.318,0.32
			c0,0.127,0.159,0.328,0.479,0.604c0.318,0.277,0.498,0.479,0.541,0.605c0.383,0.043,0.85,0.023,1.401-0.063
			s0.935-0.127,1.147-0.127c0-0.043,0.063-0.148,0.19-0.32h0.319c0.084-0.127,0.308-0.275,0.669-0.445
			c0.36-0.17,0.583-0.297,0.669-0.383c0.084-0.084,0.212-0.275,0.382-0.572c0.169-0.297,0.36-0.51,0.573-0.637
			c0.128-0.426,0.212-0.723,0.255-0.893c0-0.084-0.063-0.16-0.19-0.223c-0.128-0.064-0.214-0.139-0.255-0.223v-0.191
			c0-0.086,0.031-0.213,0.095-0.383c0.064-0.17,0.096-0.297,0.096-0.383c0-0.084-0.021-0.158-0.063-0.223
			c-0.043-0.064-0.063-0.117-0.063-0.16v-0.637c0-0.381-0.043-0.678-0.128-0.891l-0.51-0.51c-0.085-0.129-0.19-0.234-0.318-0.318
			c-0.127-0.129-0.393-0.277-0.796-0.447c-0.404-0.168-0.712-0.34-0.924-0.51c-0.043,0-0.106,0.012-0.191,0.033
			c-0.086,0.021-0.17,0.01-0.255-0.033c-1.232-0.678-2.252-1.104-3.059-1.273C43.225,153.073,43.162,153.052,43.12,153.009z"/>
	</g>
	<g>
		<path fill="#231F20" d="M71.276,135.997h0.191c0.127,0,0.308,0.033,0.541,0.096c0.233,0.064,0.393,0.096,0.479,0.096
			c0.212,0.043,0.53,0.064,0.955,0.064h0.765c0.467,0.086,0.722,0.148,0.765,0.191c0.042,0,0.128,0.063,0.255,0.191
			c0.383,0,0.785,0.17,1.211,0.51c0.255,0,0.53,0.096,0.828,0.285c0.297,0.191,0.552,0.287,0.765,0.287
			c0,0.213,0.148,0.361,0.445,0.447c0.085,0.297,0.148,0.445,0.191,0.445c0.128,0.086,0.308,0.277,0.542,0.572
			c0.232,0.299,0.435,0.49,0.605,0.574c0.084,0.256,0.169,0.404,0.255,0.445c0.041,0.043,0.041,0.096,0,0.16
			c-0.043,0.064-0.064,0.117-0.064,0.158c0.085,0.172,0.233,0.404,0.446,0.701c0.212,0.299,0.382,0.531,0.51,0.701
			c0,0.34-0.022,0.531-0.063,0.574c0,0.043,0.021,0.063,0.063,0.063c0.169,0,0.297,0.064,0.382,0.191s0.159,0.299,0.224,0.51
			c0.063,0.213,0.137,0.361,0.223,0.447c-0.043,0.084-0.063,0.213-0.063,0.381c0,0.213,0.084,0.469,0.255,0.766
			c0.169,0.297,0.275,0.488,0.318,0.572c0,0.086,0,0.223,0,0.414s0.021,0.33,0.063,0.414c0.042,0.086,0.096,0.16,0.159,0.225
			c0.064,0.063,0.096,0.117,0.096,0.158c0.128,0.766,0.212,1.168,0.255,1.211c0,0.043-0.011,0.139-0.031,0.287
			c-0.022,0.148-0.032,0.266-0.032,0.35c0,0.637,0.105,1.168,0.318,1.594c0,0.51,0.021,0.955,0.063,1.338
			c0,0.127,0.042,0.318,0.128,0.572c0.084,0.256,0.127,0.414,0.127,0.479s-0.063,0.182-0.19,0.35c0,0.086,0.01,0.203,0.031,0.352
			s0.032,0.266,0.032,0.35c0,0.383-0.063,0.723-0.191,1.02c0.042,0.127,0.063,0.297,0.063,0.51c0,0.297-0.021,0.51-0.063,0.637
			c0,0.086,0.021,0.17,0.063,0.256s0.042,0.17,0,0.254c0,0.043-0.042,0.086-0.127,0.127c-0.086,0.043-0.128,0.129-0.128,0.256v0.701
			c0,0.043,0.021,0.096,0.064,0.158c0.041,0.064,0.063,0.117,0.063,0.16c-0.128,0.383-0.191,0.596-0.191,0.637
			c0,0.17,0.063,0.383,0.191,0.637c0,0.086-0.043,0.17-0.128,0.256s-0.127,0.148-0.127,0.191c0.042,0.043,0.063,0.105,0.063,0.189
			c0,0.299,0.021,0.49,0.063,0.574c-0.042,0.043-0.085,0.096-0.127,0.16c-0.043,0.063-0.086,0.117-0.128,0.158
			c-0.042,0.043-0.085,0.096-0.127,0.16c-0.043,0.063-0.106,0.096-0.191,0.096c-0.17,0.764-0.298,1.273-0.382,1.529h-0.063
			c0.084,0.084,0.169,0.213,0.254,0.381c0.085,0.17,0.148,0.277,0.191,0.318v0.318c0.128,0.129,0.17,0.215,0.128,0.256
			c0.169,0.17,0.296,0.469,0.382,0.893c0.34,0.553,0.446,0.914,0.318,1.082c0.085,0.043,0.117,0.117,0.096,0.223
			c-0.021,0.107-0.011,0.182,0.032,0.225c-0.086,0.084-0.182,0.244-0.287,0.477c-0.106,0.234-0.181,0.395-0.223,0.479l-0.128,0.127
			c-0.127,0.299-0.276,0.488-0.445,0.574c-0.596,0.467-1.02,0.742-1.274,0.828l-0.51,0.191c-0.043,0.043-0.096,0.063-0.159,0.063
			s-0.117-0.02-0.159-0.063c-0.426,0.213-0.765,0.297-1.02,0.254c-0.086,0.043-0.213,0.064-0.383,0.064s-0.297,0-0.382,0
			c-0.086-0.086-0.223-0.148-0.414-0.191s-0.33-0.084-0.414-0.127l-0.255-0.256c-0.043-0.041-0.086-0.063-0.128-0.063
			c-0.085,0-0.127-0.021-0.127-0.064c-0.086-0.17-0.149-0.275-0.191-0.318c0-0.043-0.096-0.127-0.286-0.256
			c-0.191-0.127-0.33-0.254-0.414-0.381l-0.383-0.447l-0.446,0.191c-0.425,0.213-0.658,0.34-0.7,0.383
			c-0.51,0.086-0.851,0.191-1.02,0.318l-0.255-0.064c-0.086,0-0.202,0.043-0.351,0.129c-0.149,0.084-0.266,0.127-0.351,0.127h-1.401
			c-0.851,0.086-1.338,0.127-1.466,0.127c-0.085,0-0.17-0.041-0.255-0.127c-0.127,0-0.309,0.021-0.541,0.063
			c-0.234,0.043-0.414,0.064-0.542,0.064c-0.468,0-0.807-0.021-1.02-0.064c-0.085,0-0.213-0.02-0.382-0.063
			c-0.17-0.043-0.318-0.064-0.446-0.064c-0.043,0-0.106,0.012-0.19,0.033c-0.086,0.021-0.149,0.031-0.191,0.031
			c-0.128,0-0.298-0.064-0.51-0.191c-0.213-0.127-0.361-0.191-0.446-0.191h-0.255c-0.255,0-0.531-0.105-0.828-0.318
			c-0.086-0.041-0.202-0.105-0.351-0.191c-0.149-0.084-0.245-0.127-0.286-0.127c0-0.043-0.043-0.064-0.128-0.064
			c-0.127,0-0.266-0.072-0.414-0.223c-0.149-0.148-0.266-0.244-0.351-0.287c-0.382-0.254-0.573-0.402-0.573-0.445
			c-0.468-0.041-1.041-0.318-1.72-0.828c-0.086-0.043-0.191-0.127-0.319-0.256c-0.127-0.127-0.233-0.211-0.318-0.254
			c-0.298-0.297-0.468-0.488-0.51-0.574l-0.51-0.381c0-0.086-0.063-0.182-0.19-0.287c-0.128-0.105-0.191-0.223-0.191-0.352
			l-0.318-0.127c-0.171-0.297-0.394-0.732-0.669-1.307c-0.277-0.572-0.479-0.965-0.605-1.178c-0.213-0.424-0.404-0.955-0.573-1.594
			c-0.128-0.424-0.191-0.656-0.191-0.699l-0.255-0.447c0-0.041-0.063-0.701-0.191-1.975c-0.127-0.637-0.191-0.977-0.191-1.02
			c-0.042-0.17-0.054-0.424-0.031-0.764c0.021-0.34,0.031-0.574,0.031-0.701c0-0.086-0.021-0.223-0.063-0.414
			c-0.043-0.191-0.063-0.328-0.063-0.414s0.021-0.17,0.063-0.256c0.042-0.084,0.063-0.148,0.063-0.191
			c0-0.084-0.011-0.232-0.031-0.445c-0.022-0.213-0.011-0.383,0.031-0.51l0.064-0.254c0.042-0.086,0.042-0.191,0-0.32l-0.064-0.254
			c0.128-0.51,0.213-0.828,0.255-0.955c0.042-0.129,0.064-0.33,0.064-0.605s0.021-0.531,0.063-0.766
			c0.042-0.232,0.127-0.414,0.255-0.541c0-0.467,0.169-0.955,0.51-1.465c0.084-0.766,0.297-1.252,0.637-1.467v-0.127
			c-0.043-0.084-0.063-0.148-0.063-0.191c0.085-0.041,0.169-0.127,0.255-0.254c0.085-0.127,0.148-0.191,0.191-0.191
			c0.042-0.041,0.042-0.084,0-0.127c-0.043-0.043-0.064-0.086-0.064-0.127c0.085-0.043,0.16-0.117,0.224-0.225
			c0.063-0.105,0.137-0.18,0.223-0.223c0.042-0.297,0.191-0.615,0.446-0.955s0.403-0.594,0.446-0.766
			c0.722-0.848,1.104-1.314,1.146-1.4c0.085-0.043,0.403-0.213,0.956-0.51c0.084-0.043,0.212-0.139,0.382-0.287
			c0.169-0.148,0.318-0.244,0.446-0.287c0.041,0,0.116-0.02,0.223-0.063c0.105-0.043,0.181-0.064,0.223-0.064
			s0.191-0.064,0.446-0.191s0.467-0.191,0.637-0.191c0.042-0.041,0.148-0.158,0.319-0.35c0.169-0.191,0.339-0.309,0.51-0.352
			c0.084-0.041,0.296-0.094,0.637-0.158c0.34-0.064,0.552-0.16,0.637-0.287c0.552,0.086,0.956,0.107,1.211,0.064
			c0.085,0,0.181-0.043,0.287-0.129c0.105-0.084,0.201-0.127,0.286-0.127c0.85-0.211,1.295-0.34,1.338-0.383
			c0.085,0.043,0.191,0.064,0.318,0.064c0.255,0,0.468-0.084,0.638-0.254c0.127-0.043,0.573-0.064,1.338-0.064
			C70.958,136.062,71.149,136.04,71.276,135.997z M71.531,139.948c-0.043,0.34-0.255,0.615-0.637,0.828v0.318l-0.191,0.127
			c0,0.17-0.043,0.309-0.128,0.414c-0.085,0.107-0.181,0.225-0.286,0.352c-0.106,0.127-0.182,0.234-0.223,0.318
			c0,0.043,0.021,0.105,0.063,0.191c0.042,0.086,0.063,0.148,0.063,0.191l-0.127,0.063c-0.128,0.043-0.214,0.086-0.255,0.127v0.383
			c0,0.51-0.234,1.084-0.701,1.721v0.254c0,0.129-0.011,0.33-0.032,0.605c-0.021,0.277-0.031,0.479-0.031,0.605
			c0,0.256,0.042,0.51,0.127,0.766c-0.127,0.043-0.191,0.148-0.191,0.318c0,0.043,0,0.086,0,0.127c0,0.043-0.042,0.107-0.127,0.191
			c-0.043,0.127-0.074,0.277-0.096,0.445c-0.021,0.17-0.032,0.299-0.032,0.383c0.128,0.127,0.191,0.318,0.191,0.574
			c0,0.254-0.085,0.508-0.255,0.764c0.085,0.254,0.128,0.445,0.128,0.574c0,0.213-0.043,0.488-0.128,0.828
			c0,0.084,0.032,0.148,0.096,0.191c0.063,0.041,0.096,0.105,0.096,0.189c0,0.129-0.021,0.352-0.063,0.67
			c-0.043,0.318-0.064,0.584-0.064,0.797s0.011,0.488,0.032,0.828s0.032,0.615,0.032,0.828v1.082c0,0.043,0.021,0.117,0.063,0.225
			c0.042,0.105,0.063,0.18,0.063,0.223c0.085,0.297,0.138,0.723,0.159,1.273c0.021,0.553,0.053,0.936,0.096,1.146l0.191,0.574
			c0.169,0.637,0.318,1.02,0.446,1.146c0.127,0.127,0.36,0.277,0.7,0.445c0.085,0,0.159,0.023,0.224,0.064
			c0.063,0.043,0.116,0.064,0.159,0.064c0.084,0.043,0.169,0.063,0.255,0.063c0.041,0,0.148-0.02,0.318-0.063
			c0.169-0.043,0.297-0.043,0.382,0c0.17-0.086,0.297-0.17,0.383-0.256c-0.171-0.254-0.255-0.445-0.255-0.572l-0.191-0.51
			c0-0.086-0.054-0.201-0.159-0.352c-0.106-0.148-0.159-0.264-0.159-0.35s-0.032-0.201-0.096-0.352
			c-0.063-0.148-0.074-0.285-0.032-0.414c0-0.041-0.021-0.063-0.063-0.063h-0.063c0-0.086-0.106-0.275-0.318-0.574
			c-0.043-0.041-0.064-0.127-0.064-0.254c0-0.129,0-0.213,0-0.256c-0.042-0.041-0.117-0.115-0.223-0.223
			c-0.106-0.105-0.181-0.18-0.223-0.223c0.042-0.086,0.021-0.232-0.063-0.447c0.169-0.254,0.573-0.615,1.21-1.082
			c0.128,0,0.212-0.021,0.255-0.064c0.169-0.168,0.34-0.254,0.51-0.254l1.146-0.766c0.128,0,0.329-0.041,0.605-0.127
			c0.276-0.084,0.478-0.127,0.605-0.127c0.212,0,0.382,0.063,0.51,0.191l0.382-0.064c0.042,0,0.085,0.021,0.128,0.064
			c0-0.043,0-0.139,0-0.287s0.021-0.266,0.063-0.35c0-0.086,0.021-0.17,0.063-0.256c0.042-0.084,0.064-0.148,0.064-0.191v-0.955
			c0.041-0.213,0.116-0.541,0.223-0.988c0.105-0.445,0.159-0.732,0.159-0.859c0.085-0.51,0.01-1.232-0.223-2.166
			c-0.234-0.934-0.351-1.613-0.351-2.039c-0.128-0.213-0.224-0.563-0.287-1.051s-0.117-0.797-0.159-0.924
			c-0.298-0.68-0.446-1.105-0.446-1.275c-0.509-0.891-0.786-1.486-0.828-1.783c-0.17-0.086-0.414-0.232-0.732-0.447
			c-0.318-0.211-0.584-0.359-0.797-0.445C72.168,139.991,71.871,139.948,71.531,139.948z"/>
	</g>
</g>
</svg>
