<?xml version="1.0" encoding="utf-8"?>
<!-- Generator: Adobe Illustrator 16.0.0, SVG Export Plug-In . SVG Version: 6.00 Build 0)  -->
<!DOCTYPE svg PUBLIC "-//W3C//DTD SVG 1.1//EN" "http://www.w3.org/Graphics/SVG/1.1/DTD/svg11.dtd">
<svg version="1.1" id="Layer_1" xmlns="http://www.w3.org/2000/svg" xmlns:xlink="http://www.w3.org/1999/xlink" x="0px" y="0px"
	 width="117.165px" height="171.36px" viewBox="0 0 117.165 171.36" enable-background="new 0 0 117.165 171.36"
	 xml:space="preserve">
<g>
	<path fill="#FFFFFF" d="M23.506,22.361C30.144,11.954,39.318,5.118,52.457,7.584c2.001-5.269,12.917-6.525,15.471-1.887
		c4.589-7.65,8.646-4.854,15.423-5.582c8.21-0.883,10.195,3.37,6.563,11.359c-3.178,6.989-9.487,9.396-2.698,16.062
		c4.201,4.125,8.31,12.478,13.742,14.484c1.535,2.823-0.332,4.257,0.17,6.979c0.484,2.632,2.579,4.307,3.688,7.284
		c1.59,4.271,2.188,8.282,2.848,12.812c1.534,10.552,1.29,21.865,0.099,32.667c-0.376,3.415-2.273,13.181,1.291,15.526
		c3.212,2.115,4.931-2.275,7.466,1.719c1.553,2.449-0.002,6.238-1.385,8.319c-1.478,2.222-4.956,3.399-6.26,5.623
		c-1.303,2.224-1.163,5.735-1.875,8.213c-1.338,4.673-6.112,12.529-12.1,8.325c-1.127,6.215,5.273,15.601-0.284,19.654
		c-2.502,1.829-8.979,2.398-12.313,2.17c-4.898-0.335-7.189-4.244-10.855-5.07c-3.531-0.793-8.188,2.533-11.238,2.496
		c-3.949-0.049-5.175-3.96-7.656-4.467c-3.357-0.684-7.298,2.764-11.317,2.455c-3.978-0.304-8.555-1.395-9.729-5.307
		c-5.609,0.41-17.184,4.873-21.327-2.449c-2.619-4.632-1.176-15.125-1.205-20.691c-8.779-0.634-5.281-11.621-6.153-16.556
		c-1.443-8.164-1.629-15.112-1.606-23.371c0.023-7.697-1.041-14.756-1.199-22.302c-0.173-8.138,1.196-15.197,3.009-23.565
		C3.023,52.485,17.622,31.591,23.506,22.361z"/>
	<g>
		<path fill="#5AB1AF" d="M49.846,13.633c19.513,2.69,38.921,26.823,48.635,42.285C94.167,62.75,83.485,68.966,76.47,72.976
			c-9.249,5.288-13.477,16.379-23.805,16.261c-8.388-0.098-23.44-8.432-31.104-12.441c-6.944-3.634-8.894-12.959-15.426-16.639
			C6.136,60.156,29.093,10.771,49.846,13.633z"/>
		<path fill="#231F20" d="M52.828,89.987l-0.172-0.001c-7.878-0.092-21.354-7.205-29.407-11.456l-2.035-1.071
			c-3.731-1.952-6.06-5.434-8.312-8.801c-2.113-3.159-4.108-6.144-7.135-7.849l-0.604-0.341l0.293-0.629
			c0.894-1.922,22.12-47.077,42.632-47.077c0.625,0,1.25,0.043,1.86,0.127c18.07,2.492,37.247,23.654,49.167,42.629l0.252,0.4
			l-0.253,0.399c-4.173,6.609-13.685,12.4-22.272,17.309c-3.474,1.985-6.247,4.84-8.929,7.6
			C63.534,85.731,59.398,89.987,52.828,89.987z M7.106,59.864c3.004,1.921,5.055,4.988,7.043,7.96
			c2.147,3.211,4.367,6.531,7.76,8.307l2.04,1.073c7.933,4.188,21.209,11.194,28.725,11.282l0.154,0.001
			c5.937,0,9.857-4.035,14.009-8.307c2.755-2.834,5.604-5.766,9.261-7.856C82.07,68.91,93.09,62.612,97.59,55.911
			C85.833,37.328,67.176,16.779,49.743,14.376c-0.542-0.075-1.099-0.113-1.655-0.113C29.765,14.263,9.741,54.408,7.106,59.864z"/>
	</g>
	<path fill="#468885" d="M29.416,32.448c5.314-7.353,9.284-15.08,19.345-14.362c9.317,0.663,15.988,6.168,21.945,12.668
		c5.463,5.955,11.177,12.064,16.962,18.049c3.568,3.689-0.444,5.104-4.952,2.047c-3.361-2.281-6.694-6.699-9.664-9.76
		c-5.988-6.167-10.969-11.006-18.079-15.815C38.495,14.131,31.416,49.293,22.989,56.075c-2.04,1.641-7.773,1.639-9.27-0.521
		C13.293,54.939,24.46,39.302,29.416,32.448z"/>
	<path fill="#BE1E2D" d="M68.004,22.433c-2.109,1.508-6.446,1.194-8.956,1.834c-1.758,0.444-5.828,2.471-7.492,0.93
		c-3.317-3.081,3.427-13.581,6.037-15.677c1.896-1.515,5.474-2.725,6.232,0.35c0.692,2.786,0.4,3.758-1.848,5.457
		C66.747,12.289,73.743,18.324,68.004,22.433z"/>
	<path fill="#77111A" d="M63.083,72.605c-0.276,2.576-3.396,5.607-4.587,7.907c-0.837,1.609-2.032,5.995-4.29,6.211
		c-4.508,0.429-7.861-11.592-7.689-14.935c0.129-2.424,1.604-5.899,4.408-4.423c2.541,1.338,3.071,2.202,2.845,5.011
		C54.671,66.795,63.834,65.586,63.083,72.605z"/>
	<path fill="#77111A" d="M85.734,9.03c-0.188,1.762-2.323,3.835-3.14,5.407c-0.572,1.102-1.389,4.102-2.933,4.249
		c-3.083,0.294-5.377-7.929-5.259-10.216c0.088-1.655,1.096-4.033,3.015-3.021c1.737,0.913,2.101,1.506,1.946,3.425
		C79.98,5.057,86.247,4.229,85.734,9.03z"/>
	<path fill="#77111A" d="M16.794,51.878c-1.041-2.552-1.311-3.687,1.455-5.941c1.951-1.593,3.915-1.708,6.158-0.441
		c-0.422-2.279,3.707-5.309,5.947-4.917c2.369,0.415,4.73,4.959,4.748,7.247c0.03,3.638-2.429,14.478-7.622,12.59
		C24.268,59.246,18.344,55.683,16.794,51.878z"/>
	<path fill="#FFFFFF" d="M55.307,39.604c1.685,2.918,6.986,4.881,9.614,6.986c1.842,1.475,5.568,6.059,8.367,5.13
		c5.584-1.862,3.25-17.917,1.284-21.802c-1.428-2.813-5.009-6.168-7.565-2.938c-2.318,2.927-2.493,4.233-0.746,7.454
		C62.251,28.271,50.723,31.652,55.307,39.604z"/>
	<path fill="#77111A" d="M69.355,43.314c1.444-3.625,2.285-5.044,7.321-4.629c3.549,0.293,5.668,2.103,6.709,5.598
		c1.809-2.742,8.994-1.775,10.893,0.826c2.008,2.746-0.043,9.701-2.273,12.05c-3.541,3.737-16.693,12.377-20.132,5.354
		C69.745,58.166,67.204,48.718,69.355,43.314z"/>
	<g>
		<path fill="#BE1E2D" d="M54.659,51.133c6.982-10.031-11.811-27.194-17.656-11.902c-2.149,5.605,1.099,15.153,1.14,21.159
			c0.034,4.204-2.122,14.517,2.312,17.343c8.854,5.639,28.453-15.646,31.616-22.731c2.292-5.138,2.899-13.876-4.438-13.78
			c-6.656,0.086-8.162,8.059-11.747,11.744c-0.895-0.355-1.007-0.288-1.441-0.892L54.659,51.133z"/>
		<path fill="#FFFFFF" d="M69.237,45.918c0,0,5.35,3.95-2.331,10.763c-7.676,6.811-3.498-0.863-0.809-3.661
			C68.786,50.223,64.048,45.25,69.237,45.918z"/>
	</g>
	<g>
		<path fill="#7CCDCD" d="M71.258,69.689c-6.585,3.71-7.146,4.002-13.118,8.395c-13.097,9.638,6.114,20.34,13.813,27.664
			c6.408,6.101,7.871,9.595,16.364,11.468c12.362,2.723,12.97-2.428,12.479-14.061c-0.576-13.716,3.868-34.496-2.315-47.237
			c-0.952-0.62-1.993-0.66-3.12-0.112C95.36,55.806,78.623,65.541,71.258,69.689z"/>
		<path fill="#231F20" d="M93.801,118.68C93.801,118.68,93.801,118.68,93.801,118.68c-1.566,0-3.412-0.239-5.646-0.731
			c-6.838-1.508-9.325-4.093-13.09-8.006c-1.043-1.085-2.226-2.313-3.631-3.651c-1.447-1.378-3.328-2.892-5.32-4.495
			c-6.237-5.022-13.307-10.715-13.176-16.736c0.06-2.751,1.66-5.301,4.757-7.58c5.87-4.317,6.521-4.685,12.747-8.191l0.447-0.252
			c7.276-4.099,23.927-13.781,24.094-13.879c1.464-0.718,2.738-0.628,3.906,0.132l0.175,0.114l0.091,0.188
			c4.344,8.949,3.544,21.83,2.839,33.195c-0.322,5.196-0.627,10.104-0.449,14.338c0.27,6.377,0.271,11.087-2.156,13.618
			C98.14,118.046,96.312,118.68,93.801,118.68z M96.884,56.172c-0.372,0-0.774,0.104-1.195,0.309
			c-0.118,0.071-16.777,9.759-24.063,13.862l-0.447,0.252c-6.154,3.467-6.798,3.829-12.595,8.094
			c-2.74,2.016-4.096,4.111-4.146,6.404c-0.115,5.282,6.944,10.967,12.617,15.534c2.016,1.624,3.92,3.157,5.413,4.578
			c1.429,1.359,2.624,2.602,3.678,3.697c3.702,3.849,5.938,6.171,12.331,7.581c2.126,0.468,3.867,0.696,5.322,0.696
			c0.001,0,0.001,0,0.001,0c2.08,0,3.554-0.482,4.506-1.476c2.012-2.099,1.984-6.709,1.74-12.518
			c-0.182-4.311,0.126-9.257,0.45-14.494c0.688-11.094,1.468-23.657-2.597-32.248C97.57,56.261,97.235,56.172,96.884,56.172z"/>
	</g>
	<g>
		<path fill="#7CCDCD" d="M8.533,108.612c0.42,8.991,1.636,17.612,10.583,13.095c5.049-2.548,12.202-9.573,16.188-13.887
			c4.646-5.029,11.971-9.284,16.52-14.7c7.067-8.419,3.731-12.188-5.223-17.827c-12.016-7.57-25.259-11.74-39.073-15.812
			C1.856,58.184,7.796,92.911,8.533,108.612z"/>
		<path fill="#231F20" d="M14.819,123.696L14.819,123.696c-5.843-0.001-6.695-7.769-7.035-15.049
			c-0.213-4.535-0.858-10.633-1.542-17.089C4.371,73.89,3.329,62.104,5.79,59.368c0.505-0.562,1.181-0.785,1.904-0.618
			C22.162,63.013,35.071,67.143,47,74.658c5.479,3.451,8.759,6.138,9.31,9.658c0.416,2.66-0.827,5.611-3.912,9.286
			c-2.491,2.967-5.797,5.59-8.994,8.126c-2.796,2.22-5.437,4.315-7.549,6.601c-4.829,5.228-11.674,11.662-16.4,14.048
			C17.695,123.265,16.179,123.696,14.819,123.696z M7.229,60.196c-0.082,0-0.185,0.021-0.323,0.175
			C4.707,62.814,6.385,78.665,7.733,91.4c0.686,6.479,1.334,12.598,1.549,17.177c0.382,8.175,1.47,13.619,5.536,13.619
			c0.001,0,0.001,0,0.001,0c1.104,0,2.436-0.39,3.959-1.159c4.548-2.295,11.234-8.595,15.975-13.726
			c2.19-2.371,5.001-4.601,7.719-6.758c3.138-2.49,6.383-5.065,8.777-7.916c2.785-3.318,3.923-5.889,3.578-8.089
			c-0.46-2.944-3.642-5.481-8.626-8.621C34.435,68.515,21.629,64.419,7.315,60.201H7.314C7.307,60.201,7.266,60.196,7.229,60.196z"
			/>
	</g>
	<g>
		<path fill="#5AB1AF" d="M34.749,125.118c7.344-0.989,13.787-2.672,20.94-3.663c8.481-1.175,47.806,1.987,44.114-5.535
			C97.722,111.683,82.521,99.301,77.521,97c-7.32-3.363-13.966-11.389-21.438-13.043c-8.088-1.789-18.293,9.846-23.124,15.859
			c-5.759,7.164-27.426,21.046-18.944,25.466C18.427,127.581,28.933,125.901,34.749,125.118z"/>
		<path fill="#231F20" d="M20.984,127.197c-0.001,0-0.001,0-0.002,0c-3.309,0-5.701-0.409-7.315-1.25
			c-1.39-0.724-2.17-1.734-2.321-3.002c-0.499-4.189,6.332-10.151,12.938-15.917c3.298-2.878,6.412-5.596,8.089-7.682
			c9.661-12.025,17.759-17.478,23.871-16.122c4.457,0.987,8.62,4.15,12.646,7.21c2.904,2.207,5.907,4.488,8.944,5.884
			c4.937,2.271,20.408,14.724,22.643,19.271c0.559,1.138,0.284,2.006-0.045,2.533c-1.966,3.153-12.218,3.8-27.008,3.8
			c-1.568,0-3.114-0.006-4.605-0.012c-1.391-0.006-2.734-0.011-4.007-0.011c-3.565,0-7.125,0.036-9.02,0.299
			c-3.474,0.481-6.853,1.141-10.121,1.779c-3.463,0.676-7.043,1.375-10.821,1.884l-1.36,0.187
			C29.97,126.532,25.149,127.197,20.984,127.197z M54.352,84.522c-3.716,0-10.342,2.734-20.809,15.764
			c-1.76,2.189-4.924,4.95-8.272,7.873c-5.721,4.992-12.841,11.206-12.436,14.608c0.09,0.757,0.589,1.361,1.525,1.85
			c1.375,0.717,3.604,1.08,6.622,1.08c0.001,0,0.001,0,0.002,0c4.063,0,8.823-0.656,12.301-1.136l1.364-0.187
			c3.734-0.503,7.293-1.198,10.734-1.87c3.288-0.642,6.688-1.306,10.203-1.793c1.983-0.274,5.605-0.313,9.225-0.313
			c1.274,0,2.62,0.005,4.013,0.011c1.489,0.006,3.033,0.012,4.6,0.012c7.124,0,23.807,0,25.734-3.093
			c0.131-0.21,0.245-0.521-0.027-1.079c-1.95-3.968-16.8-16.211-21.924-18.568c-3.187-1.464-6.256-3.797-9.225-6.053
			c-3.897-2.962-7.927-6.024-12.063-6.939C55.419,84.578,54.891,84.522,54.352,84.522z"/>
	</g>
	<g>
		<path fill="#231F20" d="M12.971,112.047c0.457-0.009,0.792-0.001,1.008,0.023c0.646,0.045,0.983,0.095,1.012,0.151
			c0.295,0.023,0.754,0.101,1.375,0.231l0.771,0.241c0.244,0.109,0.394,0.18,0.447,0.205c0.083,0.057,0.17,0.104,0.265,0.146
			s0.183,0.076,0.265,0.103c0.163,0.111,0.3,0.251,0.411,0.42c0.053-0.001,0.114,0.027,0.183,0.082
			c0.068,0.057,0.116,0.084,0.144,0.084c0.027,0.085,0.118,0.204,0.269,0.358c0.15,0.153,0.241,0.288,0.27,0.401
			c0.191,0.167,0.291,0.438,0.298,0.808c0.003,0.144-0.009,0.259-0.033,0.344c-0.021,0.287-0.205,0.534-0.55,0.74
			c-0.027,0.029-0.066,0.073-0.119,0.131l-0.119,0.045c-0.027,0.001-0.081-0.013-0.163-0.039c-0.08-0.027-0.136-0.041-0.162-0.04
			c-0.323-0.051-0.565-0.104-0.729-0.158c-0.055-0.026-0.136-0.067-0.243-0.123c-0.108-0.055-0.189-0.082-0.243-0.081l-0.201,0.004
			c-0.081,0.002-0.21-0.003-0.384-0.014c-0.176-0.011-0.303-0.016-0.383-0.015c-0.055,0.001-0.135,0.018-0.241,0.048
			c-0.107,0.031-0.188,0.047-0.242,0.048l-0.161-0.04c-0.054,0.001-0.128,0.032-0.221,0.09c-0.094,0.06-0.18,0.104-0.259,0.134
			c-0.185,0.203-0.316,0.321-0.396,0.351c0.001,0.086-0.09,0.26-0.272,0.52c-0.052,0.115-0.131,0.189-0.237,0.219
			c0.003,0.115-0.041,0.322-0.129,0.625c-0.089,0.302-0.13,0.553-0.126,0.752c0.003,0.172,0.019,0.301,0.047,0.385
			c0.114,0.34,0.32,0.565,0.618,0.673c0.054-0.001,0.121-0.002,0.201-0.004c0.081-0.002,0.168-0.003,0.263-0.005
			c0.094-0.002,0.167-0.004,0.222-0.005c0.295-0.006,0.849,0.084,1.658,0.268c0.027,0.029,0.066,0.015,0.12-0.044
			c0.027,0.027,0.23,0.123,0.61,0.288l0.162,0.083c0.026-0.001,0.054,0.014,0.082,0.04c0.026,0.028,0.054,0.042,0.081,0.041
			c0.026,0.029,0.095,0.078,0.204,0.146c0.108,0.069,0.204,0.118,0.285,0.145l0.127,0.298c0.081,0.027,0.148,0.09,0.205,0.188
			c0.055,0.1,0.098,0.163,0.124,0.19c0.027,0.028,0.083,0.07,0.164,0.126c0.082,0.056,0.137,0.111,0.165,0.168
			c0.001,0.028,0.007,0.063,0.021,0.106s0.022,0.079,0.022,0.107c0.518,0.391,0.85,0.84,0.994,1.352
			c0.393,0.851,0.591,1.331,0.593,1.445c0.055,0.057,0.138,0.168,0.249,0.338c-0.026,0.059-0.038,0.129-0.036,0.215
			s0.003,0.144,0.003,0.172l0.082,0.083c0.027,0.029,0.056,0.071,0.084,0.128c0,0.029,0.001,0.086,0.003,0.172
			c0.002,0.085,0.016,0.157,0.044,0.213c0.059,0.228,0.088,0.355,0.088,0.384c0.002,0.086-0.05,0.173-0.156,0.261
			c0.027,0.028,0.043,0.07,0.044,0.128c0,0.028-0.013,0.093-0.037,0.193s-0.023,0.179,0.004,0.236
			c-0.053,0.029-0.099,0.108-0.136,0.237s-0.084,0.209-0.137,0.238c0.084,0.143,0.126,0.284,0.129,0.427
			c0.005,0.229-0.059,0.444-0.188,0.646c0.001,0.029-0.026,0.058-0.079,0.088c-0.054,0.029-0.093,0.059-0.118,0.088
			c-0.025,0.114-0.083,0.259-0.174,0.432c-0.091,0.172-0.149,0.317-0.173,0.431c-0.027,0.001-0.074,0.023-0.14,0.067
			c-0.066,0.044-0.127,0.067-0.181,0.068c-0.025,0.085-0.077,0.187-0.155,0.303c-0.078,0.115-0.131,0.203-0.156,0.26
			c-0.027,0.001-0.06,0.016-0.1,0.045s-0.074,0.06-0.1,0.088c-0.026,0.029-0.053,0.044-0.079,0.045l0.004,0.214
			c-0.026,0.028-0.054,0.072-0.078,0.13c-0.025,0.059-0.052,0.101-0.078,0.13s-0.054,0.044-0.08,0.045
			c-0.054,0.001-0.08,0.016-0.079,0.044l-0.039,0.087c-0.025,0.058-0.052,0.102-0.078,0.13c-0.055,0.001-0.095,0.016-0.12,0.045
			c-0.053,0.03-0.105,0.088-0.158,0.175s-0.098,0.151-0.138,0.195c-0.039,0.044-0.099,0.096-0.178,0.154
			c-0.08,0.059-0.159,0.089-0.24,0.09c-0.026,0.059-0.093,0.116-0.198,0.175c-0.106,0.061-0.173,0.104-0.198,0.133
			c-0.026,0.001-0.08,0.009-0.161,0.025c-0.079,0.016-0.146,0.024-0.2,0.025c-0.214,0.118-0.347,0.178-0.4,0.179
			s-0.107-0.026-0.162-0.083c-0.268,0.063-0.454,0.166-0.559,0.311c-0.054,0.001-0.114,0.011-0.182,0.025
			c-0.067,0.016-0.114,0.023-0.141,0.024c-0.053,0.03-0.147,0.046-0.281,0.048c-0.027,0.001-0.094,0.045-0.198,0.133
			c-0.106,0.088-0.187,0.132-0.24,0.133s-0.121-0.039-0.203-0.124c-0.108,0.03-0.389,0.051-0.846,0.06
			c-0.188,0.004-0.322,0.021-0.402,0.051c-0.107,0.002-0.176-0.011-0.202-0.039c-0.055,0.029-0.141,0.053-0.261,0.069
			c-0.121,0.018-0.208,0.055-0.261,0.112c-0.08-0.027-0.188-0.04-0.323-0.037c-0.079,0.002-0.2,0.012-0.36,0.028
			c-0.161,0.018-0.27,0.027-0.322,0.028c-0.081,0.001-0.209-0.024-0.386-0.079c-0.176-0.053-0.317-0.093-0.425-0.119l-0.121,0.002
			l-0.041-0.042c-0.027,0.001-0.054,0.001-0.081,0.002l-0.08,0.001c-0.081,0.002-0.202-0.024-0.365-0.079
			c-0.162-0.053-0.282-0.08-0.363-0.078c-0.485-0.076-0.77-0.142-0.852-0.197l-0.123-0.127c-0.188-0.023-0.422-0.234-0.697-0.629
			c-0.143-0.369-0.229-0.652-0.259-0.853l-0.011-0.557l-0.042-0.085l0.039-0.044c0-0.027-0.001-0.057-0.002-0.086
			c-0.002-0.143-0.018-0.241-0.046-0.299c0.313-0.49,0.669-0.812,1.07-0.962c0.026-0.001,0.093-0.009,0.201-0.025
			c0.106-0.018,0.187-0.04,0.24-0.069l0.121-0.003c0.026,0,0.094-0.009,0.2-0.025c0.107-0.017,0.188-0.024,0.242-0.026
			c0.081-0.001,0.147,0.013,0.202,0.039c0.161-0.06,0.307-0.092,0.441-0.094c0.162-0.004,0.297,0.023,0.405,0.078
			c0.08-0.03,0.281-0.049,0.604-0.055l0.161-0.004c0.026,0,0.087-0.015,0.181-0.046c0.094-0.03,0.167-0.047,0.221-0.048l0.2-0.004
			c0.107-0.002,0.194-0.047,0.261-0.133c0.064-0.087,0.11-0.145,0.137-0.175c0.026-0.028,0.073-0.065,0.14-0.11
			c0.065-0.044,0.112-0.08,0.139-0.108c0.306-0.864,0.457-1.381,0.453-1.553c-0.003-0.143-0.03-0.229-0.085-0.256
			c0.044-0.516-0.21-1.11-0.761-1.785c-0.082-0.055-0.219-0.152-0.409-0.291s-0.326-0.236-0.408-0.292
			c-0.054,0.001-0.094-0.005-0.12-0.02c-0.028-0.014-0.068-0.02-0.122-0.019c-0.056-0.085-0.137-0.126-0.244-0.124
			c-0.056-0.112-0.138-0.154-0.244-0.123c-0.028-0.086-0.165-0.183-0.409-0.293c-0.327-0.279-0.587-0.46-0.776-0.542
			c-0.027-0.028-0.042-0.07-0.043-0.128c-0.081-0.026-0.183-0.089-0.306-0.187s-0.213-0.16-0.267-0.188l-0.002-0.086
			c-0.026-0.028-0.041-0.056-0.042-0.085c-0.081-0.085-0.219-0.203-0.41-0.356c-0.19-0.152-0.327-0.258-0.408-0.313
			c-0.058-0.142-0.278-0.438-0.663-0.887c-0.084-0.171-0.14-0.256-0.166-0.255l-0.004-0.171c-0.138-0.14-0.206-0.238-0.207-0.296
			l-0.002-0.129c-0.001-0.028-0.03-0.121-0.087-0.276c-0.057-0.156-0.085-0.262-0.086-0.319c-0.28-0.594-0.449-0.962-0.505-1.104
			c-0.058-0.17-0.086-0.299-0.088-0.385c-0.001-0.057,0.023-0.143,0.076-0.258c-0.029-0.086-0.046-0.213-0.049-0.385
			c-0.008-0.399,0.053-0.744,0.182-1.032c-0.002-0.143,0.047-0.301,0.151-0.476L7.52,115.71c0.051-0.144,0.147-0.317,0.291-0.521
			c0.144-0.202,0.241-0.375,0.293-0.52c0.211-0.232,0.328-0.419,0.352-0.563c0.026,0,0.119-0.087,0.277-0.263
			c0.025-0.028,0.092-0.087,0.198-0.175c0.105-0.088,0.185-0.16,0.237-0.219l0.04-0.001c0.027-0.029,0.053-0.044,0.08-0.045
			c0.053-0.058,0.159-0.131,0.318-0.22s0.266-0.162,0.318-0.221c0.106-0.03,0.267-0.098,0.48-0.202
			c0.213-0.104,0.386-0.172,0.52-0.203c0.052-0.087,0.158-0.132,0.319-0.135l0.202-0.004c0.054-0.029,0.12-0.06,0.2-0.09
			c0.08-0.029,0.134-0.06,0.159-0.088l0.161-0.004l0.361-0.136C12.434,112.072,12.648,112.054,12.971,112.047z"/>
		<path fill="#231F20" d="M27.282,122.354c0.731,0.3,1.166,0.577,1.306,0.831c0.109,0.084,0.239,0.225,0.392,0.421
			c0.151,0.197,0.268,0.323,0.35,0.379c0.001,0.028,0.015,0.071,0.043,0.128c0.027,0.057,0.028,0.114,0.003,0.172
			c0.082,0.055,0.15,0.153,0.207,0.295c0.057,0.143,0.112,0.227,0.167,0.253c0.002,0.086,0.023,0.179,0.065,0.277
			c0.043,0.1,0.063,0.179,0.065,0.235c0.165,0.197,0.248,0.338,0.25,0.424c0.001,0.058-0.004,0.128-0.017,0.215
			c-0.012,0.086-0.017,0.144-0.016,0.171c0.001,0.058,0.029,0.143,0.085,0.256c0.007,0.343,0.024,0.543,0.053,0.599
			c-0.026,0.029-0.052,0.131-0.075,0.302c-0.024,0.173-0.062,0.287-0.114,0.346c0.055,0.056,0.084,0.185,0.088,0.384l0.006,0.3
			c-0.08,0.031-0.152,0.11-0.217,0.239c-0.064,0.131-0.124,0.211-0.177,0.24c-0.023,0.201-0.12,0.403-0.291,0.605
			s-0.282,0.362-0.333,0.478c0.031,0.228,0.129,0.44,0.295,0.637l0.08-0.001c0.081-0.002,0.168-0.025,0.261-0.07
			s0.166-0.067,0.22-0.068l0.081-0.002c0.079-0.058,0.22-0.125,0.42-0.2s0.326-0.128,0.38-0.158
			c0.531-0.295,0.864-0.445,0.999-0.448c0.131-0.202,0.209-0.316,0.235-0.347c0.026,0,0.055,0.015,0.081,0.042l0.042,0.042
			l0.316-0.307c0.054-0.001,0.106-0.037,0.159-0.11c0.052-0.071,0.119-0.108,0.199-0.11l0.081-0.001
			c0.211-0.205,0.646-0.542,1.31-1.012c0.053-0.029,0.133-0.046,0.241-0.048c0.026,0,0.08-0.029,0.159-0.089
			c0.079-0.059,0.146-0.103,0.199-0.133c0.054-0.001,0.121-0.016,0.2-0.047c0.081-0.029,0.134-0.045,0.16-0.045
			c0.081-0.03,0.187-0.111,0.318-0.243c0.132-0.13,0.237-0.212,0.318-0.241c0.08-0.002,0.147-0.018,0.2-0.047
			c0.054-0.001,0.12-0.046,0.199-0.133c0.267-0.091,0.414-0.136,0.441-0.137l0.08-0.002c0.053-0.029,0.12-0.045,0.2-0.047
			l0.726-0.014c0.109,0.084,0.179,0.188,0.208,0.317c0.029,0.128,0.046,0.292,0.05,0.492s0.021,0.343,0.049,0.427
			c-0.186,0.119-0.293,0.178-0.319,0.179c-0.181,0.403-0.324,0.62-0.431,0.651l0.006,0.3c-0.264,0.234-0.421,0.45-0.471,0.65
			l-0.081,0.002c-0.08,0.001-0.16,0.075-0.237,0.22c-0.294,0.091-0.571,0.339-0.832,0.745c-0.081,0.001-0.167,0.06-0.259,0.176
			c-0.093,0.116-0.165,0.189-0.218,0.218c-0.054,0.03-0.127,0.054-0.22,0.069c-0.095,0.016-0.169,0.039-0.221,0.068
			c-0.027,0.001-0.048,0.03-0.059,0.087c-0.013,0.058-0.033,0.087-0.06,0.087c-0.081,0.002-0.18,0.067-0.299,0.198
			c-0.118,0.132-0.231,0.197-0.339,0.199c-0.026,0.001-0.054,0.017-0.079,0.045c-0.026,0.058-0.065,0.087-0.119,0.088
			c-0.027,0.03-0.039,0.059-0.039,0.087c0.001,0.028-0.013,0.058-0.038,0.087c-0.585,0.297-0.892,0.445-0.918,0.445
			c-0.134,0.089-0.318,0.207-0.559,0.354c-0.238,0.148-0.397,0.251-0.478,0.309c-0.054-0.026-0.121-0.039-0.201-0.038
			c-0.081,0.002-0.176,0.032-0.281,0.091c-0.106,0.06-0.187,0.09-0.24,0.091c-0.212,0.147-0.346,0.221-0.399,0.222
			c-0.08,0.001-0.135-0.011-0.162-0.039c-0.026,0.001-0.053,0.022-0.078,0.065c-0.027,0.043-0.054,0.065-0.08,0.065l-0.523,0.011
			c-0.589,0.184-1.124,0.278-1.606,0.288c-0.322,0.006-0.593-0.03-0.81-0.112c-0.054-0.027-0.094-0.033-0.12-0.02
			c-0.027,0.016-0.055,0.023-0.081,0.023c-0.729-0.157-1.352-0.416-1.87-0.778c0.026-0.028,0.025-0.057-0.001-0.086l-0.041-0.041
			c-0.08,0.001-0.162-0.012-0.243-0.038c-0.027-0.058-0.097-0.162-0.208-0.317c-0.11-0.155-0.166-0.276-0.168-0.361
			c-0.242-0.023-0.38-0.165-0.411-0.421c-0.026,0-0.062-0.006-0.102-0.02c-0.04-0.013-0.088-0.02-0.141-0.019
			c-0.33-0.308-0.664-0.93-1.004-1.867c0.054-0.028,0.06-0.071,0.019-0.128c-0.043-0.056-0.063-0.098-0.063-0.127
			c-0.001-0.028,0.012-0.057,0.038-0.087l-0.001-0.042l-0.082-0.127c-0.029-0.086-0.047-0.313-0.055-0.685l-0.004-0.214
			c-0.002-0.114-0.032-0.293-0.091-0.535c-0.059-0.241-0.089-0.419-0.091-0.533l-0.01-0.472c0.027-0.001,0.047-0.036,0.059-0.108
			c0.013-0.071,0.032-0.107,0.059-0.108c-0.027-0.027-0.042-0.07-0.043-0.128c-0.001-0.086,0.036-0.215,0.114-0.388l-0.043-0.085
			c-0.027-0.057-0.042-0.1-0.043-0.128c0.025-0.086,0.069-0.237,0.132-0.452c0.063-0.216,0.135-0.389,0.211-0.52
			c0.078-0.13,0.17-0.238,0.276-0.327c-0.004-0.17,0.067-0.313,0.213-0.431s0.231-0.22,0.257-0.305
			c0.053-0.029,0.133-0.067,0.239-0.112s0.186-0.082,0.24-0.112c0.159-0.116,0.356-0.307,0.594-0.568
			c0.026,0,0.065-0.029,0.119-0.088c0.239-0.091,0.413-0.165,0.52-0.225c0.053-0.029,0.127-0.06,0.22-0.09
			c0.094-0.03,0.167-0.061,0.22-0.091l0.24-0.133c0.026-0.001,0.054,0.014,0.082,0.041l0.08-0.002c0.159-0.06,0.28-0.09,0.361-0.092
			c0.053-0.001,0.12,0.005,0.201,0.018c0.082,0.013,0.135,0.018,0.162,0.018C27.176,122.398,27.229,122.384,27.282,122.354z
			 M27.078,126.386l-0.039,0.044l-0.161,0.003c-0.538,0.011-0.803,0.201-0.796,0.572c0.001,0.058-0.012,0.115-0.036,0.173
			l-0.118,0.174c0.002,0.086,0.005,0.236,0.009,0.45s0.007,0.364,0.009,0.45c-0.024,0.085-0.036,0.214-0.032,0.386
			c0.002,0.114,0.018,0.2,0.045,0.257c0.108,0.055,0.217,0.081,0.325,0.079c0.268-0.005,0.614-0.141,1.04-0.406
			c0.185-0.146,0.303-0.277,0.354-0.393c0.026-0.029,0.065-0.058,0.119-0.088s0.079-0.059,0.079-0.088
			c0.076-0.229,0.111-0.487,0.105-0.772c-0.005-0.286-0.049-0.472-0.132-0.556C27.47,126.479,27.213,126.384,27.078,126.386z"/>
		<path fill="#231F20" d="M37.26,121.302c0.161-0.003,0.363,0.058,0.608,0.181c0.244,0.124,0.419,0.186,0.527,0.184
			c0.137,0.197,0.26,0.295,0.367,0.292c0.028,0.058,0.09,0.135,0.187,0.232c0.096,0.099,0.158,0.205,0.188,0.317
			c0.08,0.028,0.167,0.313,0.258,0.853l0.041-0.001c0.026,0,0.079-0.022,0.159-0.067c0.08-0.044,0.133-0.066,0.16-0.067
			c0.052-0.086,0.124-0.151,0.218-0.196c0.093-0.045,0.221-0.091,0.381-0.137s0.293-0.084,0.401-0.114
			c0.079-0.03,0.191-0.111,0.337-0.243c0.145-0.131,0.291-0.233,0.438-0.309c0.146-0.074,0.301-0.098,0.463-0.073
			c0.37-0.264,0.839-0.387,1.404-0.37c0.026-0.001,0.06,0.021,0.102,0.063c0.041,0.042,0.088,0.077,0.142,0.104
			c0.348-0.063,0.681,0.079,0.996,0.431s0.515,0.54,0.597,0.567c0.055,0.057,0.124,0.183,0.208,0.382
			c0.085,0.198,0.168,0.339,0.251,0.424c0.001,0.028-0.006,0.063-0.019,0.106s-0.018,0.08-0.018,0.108
			c0.001,0.057,0.016,0.134,0.045,0.233c0.028,0.1,0.043,0.178,0.045,0.235l0.002,0.128c0.026-0.001,0.055,0.028,0.083,0.084
			l0.042,0.086l0.002,0.128c0.002,0.086,0.024,0.214,0.068,0.384c0.043,0.172,0.066,0.313,0.068,0.428
			c0.027,0.028,0.056,0.063,0.083,0.106c0.026,0.042,0.055,0.077,0.083,0.104l0.008,0.429c0.002,0.086-0.023,0.194-0.074,0.323
			c-0.052,0.13-0.076,0.223-0.075,0.279c-0.07,0.545-0.118,0.832-0.145,0.86c0.058,0.199,0.061,0.328,0.008,0.386
			c0.001,0.028,0.014,0.064,0.042,0.106c0.027,0.042,0.042,0.078,0.042,0.106c-0.181,0.404-0.283,0.621-0.31,0.648
			c0.083,0.085,0.126,0.24,0.131,0.469c0.002,0.144-0.036,0.244-0.115,0.302c0,0.029,0.026,0.043,0.081,0.042
			c0.053-0.001,0.067,0.026,0.042,0.085c0.001,0.058-0.024,0.128-0.077,0.215l-0.078,0.088c0.002,0.086,0.037,0.178,0.106,0.276
			c0.068,0.1,0.117,0.177,0.145,0.232c0.001,0.029-0.018,0.065-0.058,0.108c-0.04,0.044-0.059,0.095-0.058,0.152l0.002,0.085
			c0.001,0.029,0.015,0.106,0.045,0.235c0.028,0.127,0.044,0.221,0.045,0.277l-0.039,0.044c0.001,0.028,0.001,0.058,0.002,0.086
			s0.041,0.07,0.124,0.125c0.054,0.028,0.081,0.071,0.082,0.128c0.269-0.034,0.529-0.089,0.783-0.166
			c0.254-0.075,0.527-0.181,0.82-0.315c0.294-0.135,0.507-0.231,0.641-0.291c0.104-0.088,0.283-0.213,0.536-0.375
			c0.251-0.161,0.43-0.302,0.535-0.418l0.24-0.091c0.079-0.086,0.371-0.292,0.875-0.617c1.003-0.933,1.558-1.443,1.664-1.531
			l0.322-0.007c0.052-0.058,0.125-0.123,0.218-0.196c0.092-0.073,0.151-0.124,0.179-0.154l0.081-0.001
			c0.161-0.004,0.354-0.063,0.58-0.183s0.406-0.18,0.54-0.183c0.43-0.008,0.689,0.187,0.777,0.586l0.009,0.471
			c-0.022,0.172-0.14,0.389-0.35,0.648c-0.211,0.262-0.327,0.465-0.352,0.607l-0.118,0.088c-0.079,0.059-0.132,0.117-0.157,0.175
			c-0.108,0.002-0.194,0.025-0.262,0.069c-0.066,0.045-0.132,0.11-0.197,0.196c-0.065,0.088-0.111,0.146-0.138,0.175
			c-0.053,0.059-0.146,0.117-0.278,0.177c-0.134,0.06-0.233,0.126-0.299,0.199c-0.066,0.072-0.097,0.181-0.095,0.323
			c-0.372,0.235-0.584,0.382-0.637,0.441l-0.039,0.042c-0.027,0.03-0.053,0.044-0.079,0.045c-0.188,0.004-0.308,0.121-0.356,0.35
			c-0.027,0.001-0.061,0.009-0.101,0.023c-0.04,0.016-0.074,0.023-0.101,0.023c-0.027,0.001-0.079,0.103-0.155,0.303
			c-0.053,0.06-0.186,0.133-0.398,0.223c-0.215,0.09-0.347,0.192-0.397,0.309c-0.08,0.001-0.201,0.047-0.36,0.135
			c-0.159,0.089-0.267,0.148-0.318,0.178c-0.08,0.06-0.214,0.126-0.4,0.2c-0.187,0.076-0.319,0.157-0.397,0.244
			c-0.027,0.001-0.074,0.016-0.14,0.046c-0.066,0.028-0.114,0.045-0.141,0.046c-0.027,0.027-0.133,0.116-0.317,0.263
			c-0.186,0.146-0.332,0.22-0.439,0.222l-0.161,0.003c-0.054,0.03-0.126,0.089-0.218,0.177c-0.094,0.087-0.153,0.131-0.18,0.131
			c-0.188,0.062-0.293,0.135-0.317,0.222c-0.135,0.03-0.302,0.098-0.501,0.202c-0.199,0.104-0.339,0.171-0.419,0.201l-0.202,0.004
			l-0.2,0.046c-0.163-0.081-0.271-0.122-0.324-0.121l-0.483,0.01c-0.38-0.107-0.651-0.245-0.815-0.413l-0.126-0.255
			c-0.056-0.113-0.165-0.253-0.33-0.422c-0.223-0.366-0.333-0.564-0.334-0.593c-0.275-0.31-0.47-0.677-0.586-1.104
			c-0.164-0.169-0.318-0.473-0.461-0.912c-0.144-0.44-0.229-0.688-0.257-0.745c-0.001-0.028,0.012-0.064,0.039-0.108
			c0.025-0.044,0.038-0.079,0.037-0.108c-0.111-0.226-0.172-0.554-0.18-0.982c-0.004-0.199,0.006-0.342,0.031-0.428
			c-0.083-0.17-0.085-0.27-0.006-0.3c-0.081-0.084-0.126-0.255-0.131-0.512s-0.021-0.399-0.049-0.428
			c0.025-0.058,0.064-0.115,0.118-0.174c-0.028-0.057-0.043-0.142-0.045-0.257c-0.002-0.113,0.021-0.229,0.073-0.344
			c-0.056-0.112-0.084-0.198-0.085-0.256l0.115-0.259c-0.027-0.058-0.043-0.128-0.044-0.214c-0.003-0.113,0.021-0.258,0.072-0.43
			c0.05-0.173,0.074-0.303,0.072-0.388c0-0.028-0.001-0.058-0.001-0.086l-0.042-0.085c-0.027,0.001-0.067,0.017-0.12,0.046
			c-0.054,0.03-0.107,0.031-0.161,0.003c0.001,0.086-0.036,0.194-0.115,0.323c-0.077,0.131-0.116,0.254-0.114,0.367
			c-0.133,0.088-0.27,0.27-0.412,0.544s-0.267,0.455-0.372,0.543l0.001,0.086c0.002,0.058,0.029,0.121,0.084,0.19
			c0.056,0.071,0.084,0.121,0.084,0.149c-0.025,0.086-0.084,0.201-0.175,0.346c-0.091,0.146-0.148,0.274-0.173,0.39
			c0.083,0.169,0.127,0.354,0.131,0.554c0.007,0.343-0.083,0.573-0.269,0.69c0.06,0.342,0.092,0.57,0.094,0.684
			c-0.026,0.059-0.079,0.109-0.158,0.154c-0.08,0.044-0.119,0.081-0.119,0.108c0.002,0.058,0.029,0.122,0.085,0.191
			c0.055,0.07,0.083,0.121,0.083,0.148l0.011,0.558c-0.078,0.087-0.117,0.202-0.114,0.345l0.003,0.128
			c-0.054,0.03-0.104,0.202-0.151,0.518c-0.053,0.06-0.077,0.131-0.076,0.216c0.001,0.029,0.015,0.079,0.043,0.149
			c0.028,0.071,0.043,0.121,0.043,0.148c0.001,0.058-0.031,0.13-0.096,0.217c-0.066,0.088-0.098,0.159-0.097,0.216
			c-0.027,0.001-0.119,0.132-0.274,0.392c0.027,0.057,0.035,0.135,0.024,0.235c-0.013,0.101-0.003,0.179,0.024,0.235
			c-0.077,0.173-0.25,0.289-0.517,0.353c-0.027,0.028-0.065,0.093-0.117,0.194c-0.053,0.101-0.104,0.166-0.157,0.196l-0.402,0.008
			c-0.163-0.082-0.299-0.123-0.406-0.121c-0.055-0.056-0.205-0.188-0.451-0.398c-0.245-0.208-0.41-0.398-0.495-0.567
			c-0.081-0.027-0.163-0.111-0.247-0.252c-0.083-0.142-0.151-0.226-0.206-0.254c-0.031-0.228-0.149-0.453-0.356-0.679
			c-0.205-0.224-0.323-0.364-0.351-0.421c-0.063-0.456-0.098-0.885-0.105-1.285l-0.006-0.3c-0.001-0.057,0.011-0.128,0.036-0.215
			c0.024-0.086,0.037-0.144,0.036-0.173c0-0.027-0.015-0.069-0.042-0.127c-0.028-0.057-0.042-0.1-0.043-0.128
			c0-0.028,0.005-0.071,0.018-0.129s0.019-0.101,0.018-0.129c0-0.028-0.016-0.106-0.044-0.235c-0.03-0.127-0.045-0.233-0.047-0.319
			l-0.002-0.128c-0.006-0.258-0.036-0.429-0.092-0.513l-0.019-0.985c0.077-0.173,0.101-0.331,0.071-0.474
			c0.078-0.087,0.123-0.195,0.135-0.324c0.011-0.128,0.015-0.285,0.011-0.471c-0.003-0.186,0.007-0.337,0.031-0.451
			c0-0.028,0.019-0.101,0.057-0.215c0.038-0.115,0.057-0.202,0.056-0.26c-0.006-0.285,0.004-0.442,0.031-0.471
			c-0.002-0.058-0.03-0.143-0.087-0.257c-0.031-0.284-0.021-0.712,0.036-1.285c0.056-0.572,0.082-0.973,0.078-1.201
			c-0.005-0.229,0.153-0.417,0.473-0.567C36.791,121.412,37.044,121.306,37.26,121.302z"/>
		<path fill="#231F20" d="M65.128,109.487c0.161-0.003,0.377,0.029,0.646,0.095c0.27,0.066,0.445,0.099,0.525,0.097
			c0.109,0.084,0.396,0.264,0.857,0.54c0.063,0.428,0.106,0.656,0.135,0.684c0.001,0.058,0.028,0.114,0.084,0.17
			c0.054,0.057,0.083,0.127,0.085,0.213c0.027,0.085,0.118,0.233,0.271,0.444c0.151,0.211,0.229,0.403,0.232,0.574l0.002,0.086
			c0.081,0.026,0.149,0.126,0.208,0.296l0.006,0.3c0.004,0.229,0.034,0.384,0.089,0.469c0.001,0.028-0.019,0.059-0.059,0.088
			c-0.039,0.028-0.059,0.059-0.058,0.086c0.027,0.057,0.068,0.12,0.124,0.19c0.055,0.07,0.096,0.12,0.124,0.147
			c-0.026,0.086-0.036,0.23-0.032,0.43c0.005,0.229,0.021,0.399,0.05,0.514c0.002,0.085-0.016,0.2-0.054,0.344
			c-0.037,0.144-0.056,0.229-0.056,0.258l0.01,0.472l-0.116,0.217c-0.026,0.058-0.038,0.151-0.035,0.279
			c0.002,0.129,0.004,0.236,0.006,0.321c-0.053,0.059-0.092,0.116-0.118,0.174c-0.072,0.373-0.136,0.589-0.188,0.646
			c0.001,0.058-0.018,0.122-0.057,0.193c-0.039,0.073-0.058,0.138-0.057,0.194l0.001,0.043c-0.188,0.062-0.238,0.176-0.154,0.347
			c0,0.027-0.026,0.057-0.079,0.085l-0.08,0.045c0.001,0.058,0.016,0.101,0.043,0.128c0.026,0.027,0.042,0.057,0.042,0.085
			c-0.025,0.059-0.092,0.145-0.196,0.261c-0.044,0.516-0.092,0.845-0.143,0.988c-0.05,0.174-0.062,0.288-0.033,0.344
			c-0.158,0.175-0.249,0.348-0.272,0.521l-0.322,0.006c0.004,0.171-0.021,0.329-0.071,0.473c-0.051,0.145-0.122,0.296-0.213,0.454
			c-0.092,0.159-0.148,0.296-0.174,0.411c-0.106,0.06-0.159,0.131-0.157,0.217c-0.107,0.002-0.2,0.047-0.279,0.135l0.084,0.169
			c0.001,0.058-0.037,0.145-0.116,0.261c-0.077,0.115-0.116,0.23-0.114,0.345c-0.293,0.148-0.436,0.408-0.429,0.778
			c-0.052,0.059-0.116,0.16-0.195,0.305c-0.078,0.145-0.13,0.231-0.155,0.26c-0.027,0.029-0.046,0.08-0.058,0.15
			c-0.013,0.073-0.032,0.138-0.058,0.195l-0.157,0.174l-0.032,0.387c0.001,0.058,0.028,0.143,0.085,0.255l0.004,0.215
			c0.002,0.114,0.032,0.313,0.093,0.598c0.06,0.285,0.076,0.499,0.053,0.643c0,0.029,0.027,0.085,0.084,0.17
			c0.055,0.085,0.083,0.155,0.084,0.212l0.002,0.086c0.332,0.508,0.5,0.82,0.502,0.934l0.002,0.085
			c0.082,0.056,0.171,0.161,0.269,0.315c0.097,0.156,0.186,0.262,0.269,0.316c0.027,0.058,0.016,0.101-0.038,0.13
			c-0.027,0.001-0.041,0.016-0.04,0.044c0.029,0.084,0.221,0.311,0.578,0.675l0.001,0.085c0.002,0.086,0.018,0.186,0.047,0.3
			c0.029,0.113,0.044,0.185,0.045,0.213l0.001,0.086c0.055,0.027,0.136,0.098,0.246,0.209c0,0.029-0.024,0.102-0.076,0.216
			l0.168,0.34c0.002,0.115-0.063,0.273-0.192,0.476c-0.16,0.061-0.381,0.107-0.662,0.142c-0.282,0.033-0.463,0.066-0.544,0.096
			c-0.026-0.027-0.128-0.055-0.303-0.079c-0.176-0.025-0.291-0.066-0.346-0.122c-0.161,0.003-0.406-0.135-0.732-0.415
			c-0.245-0.194-0.479-0.361-0.695-0.5c-0.136-0.084-0.258-0.124-0.365-0.122c-0.188,0.004-0.434,0.159-0.736,0.465
			c-0.304,0.306-0.55,0.476-0.736,0.507c-0.213,0.176-0.372,0.265-0.479,0.267c-0.212,0.233-0.518,0.382-0.92,0.446l-0.483,0.009
			c-0.161,0.004-0.476,0.031-0.945,0.083c-0.47,0.053-0.839,0.067-1.107,0.044c-0.163-0.083-0.46-0.119-0.89-0.111
			c-0.217-0.139-0.447-0.206-0.688-0.201l-0.121,0.002c-0.109-0.055-0.178-0.109-0.205-0.167c-0.161,0.004-0.514-0.132-1.057-0.408
			c-0.055-0.056-0.082-0.112-0.083-0.17c-0.027,0-0.109-0.025-0.244-0.08c-0.136-0.056-0.23-0.11-0.284-0.167
			c-0.082-0.055-0.186-0.167-0.309-0.337c-0.125-0.168-0.228-0.28-0.31-0.337c-0.001-0.028-0.008-0.063-0.022-0.106
			c-0.015-0.042-0.021-0.078-0.021-0.106c-0.164-0.111-0.262-0.28-0.293-0.509c-0.056-0.056-0.118-0.176-0.188-0.361
			c-0.071-0.184-0.134-0.304-0.188-0.36l0.039-0.086c0-0.028-0.001-0.058-0.002-0.086c-0.164-0.169-0.249-0.366-0.254-0.594
			c-0.001-0.058,0.024-0.143,0.076-0.26c-0.001-0.057-0.018-0.142-0.046-0.256c-0.028-0.112-0.044-0.213-0.046-0.299
			s0.002-0.199,0.014-0.343c0.01-0.144,0.015-0.243,0.014-0.301c0-0.028-0.015-0.056-0.041-0.085l-0.002-0.086
			c0.024-0.085,0.063-0.187,0.115-0.302c0.052-0.114,0.076-0.201,0.075-0.259l-0.006-0.3c0.023-0.143,0.101-0.338,0.23-0.584
			c0.129-0.244,0.194-0.382,0.193-0.41c0.107-0.03,0.206-0.097,0.299-0.199c0.092-0.102,0.179-0.167,0.258-0.197l-0.04,0.001
			c-0.027,0-0.04-0.014-0.04-0.042c-0.003-0.114,0.153-0.375,0.467-0.781c0-0.028,0.005-0.071,0.019-0.13
			c0.011-0.057,0.031-0.1,0.057-0.129c0.026-0.028,0.126-0.101,0.299-0.22c0.173-0.116,0.271-0.219,0.297-0.306
			c0.558-0.296,0.917-0.488,1.077-0.578c0.026,0,0.054,0.006,0.081,0.021c0.026,0.014,0.054,0.021,0.081,0.02
			c0.025-0.028,0.052-0.059,0.079-0.087c0.025-0.029,0.052-0.058,0.078-0.088c0.082,0.027,0.203,0.039,0.364,0.036
			c0.08-0.002,0.215-0.018,0.401-0.051c0.188-0.032,0.335-0.05,0.442-0.052s0.189,0.011,0.243,0.038
			c0.267-0.118,0.788-0.215,1.566-0.287c0.021-0.286,0.038-0.729,0.054-1.33c0.016-0.6,0.033-1.058,0.055-1.372
			c-0.001-0.058,0.018-0.101,0.059-0.131c0.039-0.029,0.059-0.072,0.058-0.13l-0.043-0.084c-0.001-0.058,0.019-0.13,0.057-0.216
			s0.058-0.158,0.057-0.215c-0.001-0.029-0.029-0.071-0.083-0.128c0.104-0.144,0.154-0.345,0.149-0.602
			c0.105-0.059,0.21-0.246,0.312-0.563l-0.006-0.3c0.026,0,0.046-0.05,0.058-0.151c0.011-0.1,0.043-0.165,0.097-0.194
			c-0.028-0.057-0.042-0.128-0.044-0.214s0.029-0.208,0.094-0.366c0.063-0.157,0.095-0.294,0.093-0.409
			c0.024-0.086,0.068-0.229,0.132-0.431c0.063-0.201,0.121-0.345,0.173-0.432c0-0.028-0.008-0.064-0.021-0.107
			c-0.016-0.043-0.022-0.092-0.023-0.149c0.08-0.029,0.157-0.231,0.23-0.604c0-0.027-0.021-0.057-0.062-0.084
			c-0.042-0.027-0.062-0.057-0.063-0.085c-0.002-0.086,0.021-0.272,0.069-0.56l0.121-0.002c0.205-0.517,0.399-0.863,0.584-1.039
			l-0.001-0.085c-0.003-0.143,0.054-0.315,0.171-0.519c0.117-0.201,0.175-0.359,0.173-0.475c0.08-0.002,0.12-0.03,0.119-0.088
			l0.118-0.088c0.026-0.029,0.04-0.058,0.04-0.087c-0.001-0.028-0.001-0.057-0.002-0.086c0.131-0.146,0.343-0.32,0.635-0.526
			c0.291-0.205,0.463-0.337,0.517-0.396c0.053-0.001,0.173-0.039,0.36-0.115c0.187-0.073,0.32-0.112,0.401-0.114l0.08-0.001
			c0.052-0.087,0.178-0.146,0.378-0.18c0.202-0.032,0.328-0.063,0.382-0.093l0.121-0.003c0.054-0.001,0.135-0.009,0.241-0.026
			C64.993,109.497,65.073,109.489,65.128,109.487z M59.227,125.287c-0.135,0.003-0.28,0.035-0.44,0.095
			c-0.056-0.056-0.109-0.084-0.163-0.083s-0.128,0.032-0.22,0.091c-0.093,0.06-0.167,0.089-0.221,0.09
			c-0.183,0.261-0.368,0.408-0.555,0.439c-0.131,0.203-0.29,0.363-0.476,0.48c-0.047,0.344-0.215,0.69-0.503,1.039
			c0.106-0.003,0.161,0.025,0.162,0.082c0.003,0.114-0.009,0.251-0.031,0.408c-0.024,0.158-0.036,0.266-0.035,0.322
			c0.003,0.144,0.031,0.242,0.087,0.298c-0.025,0.087-0.036,0.215-0.032,0.386c0.002,0.114,0.016,0.187,0.044,0.213
			c0.167,0.313,0.602,0.547,1.304,0.704c0.026-0.001,0.081,0.006,0.162,0.018c0.08,0.014,0.147,0.019,0.201,0.018
			c0.349-0.007,0.615-0.168,0.796-0.487c0.079-0.114,0.183-0.316,0.312-0.604c0.34-0.463,0.509-0.739,0.508-0.824
			c-0.002-0.086-0.059-0.221-0.169-0.403c-0.111-0.184-0.168-0.333-0.17-0.447l-0.002-0.086c-0.028-0.028-0.07-0.155-0.129-0.384
			l-0.126-0.254c-0.027-0.057-0.07-0.163-0.126-0.319c-0.058-0.155-0.101-0.276-0.129-0.361
			C59.271,125.459,59.254,125.316,59.227,125.287z M64.606,111.727c-0.157,0.175-0.357,0.307-0.597,0.397
			c-0.184,0.204-0.272,0.477-0.266,0.819c0.004,0.2,0.049,0.413,0.134,0.64c-0.054,0.059-0.084,0.202-0.093,0.431
			c-0.01,0.229-0.026,0.372-0.053,0.429c0.001,0.058,0.016,0.086,0.043,0.085c0.027,0.029,0.041,0.058,0.042,0.086
			c-0.05,0.229-0.073,0.401-0.071,0.515c0.003,0.144,0.019,0.243,0.047,0.299c-0.079,0.088-0.118,0.175-0.116,0.261
			c0.001,0.028,0.015,0.101,0.044,0.213c0.029,0.113,0.044,0.199,0.045,0.256c0.009,0.429,0.096,0.714,0.26,0.853
			c-0.105,0.117-0.157,0.247-0.154,0.39c0.002,0.114,0.044,0.213,0.127,0.297c-0.079,0.088-0.117,0.189-0.115,0.303
			c0.001,0.058,0.017,0.143,0.045,0.256c0.029,0.114,0.045,0.199,0.046,0.256c0.003,0.114-0.011,0.2-0.035,0.258
			c0.026,0.027,0.048,0.092,0.063,0.191s0.037,0.164,0.064,0.191c0.051-0.115,0.141-0.303,0.271-0.563
			c0.129-0.259,0.219-0.46,0.271-0.604c-0.027-0.027-0.002-0.129,0.074-0.301c-0.013-0.686,0.126-1.131,0.418-1.337
			c-0.027-0.028-0.042-0.071-0.043-0.129c-0.001-0.057,0.023-0.156,0.075-0.301c0.051-0.144,0.075-0.244,0.074-0.302l-0.041-0.042
			c0-0.028-0.001-0.057-0.001-0.086c0.024-0.086,0.089-0.216,0.193-0.39c0.073-0.401,0.228-0.761,0.463-1.081
			c0.024-0.143,0.067-0.314,0.131-0.516c0.063-0.2,0.108-0.33,0.135-0.388c-0.003-0.114-0.054-0.256-0.15-0.426
			c-0.098-0.17-0.147-0.326-0.149-0.469c-0.029-0.057-0.11-0.098-0.245-0.124c-0.136-0.025-0.217-0.066-0.245-0.124
			c-0.107,0.002-0.229-0.038-0.364-0.121C64.795,111.766,64.687,111.725,64.606,111.727z"/>
		<path fill="#231F20" d="M71.305,120.295c0.053-0.001,0.101,0.013,0.142,0.041c0.04,0.027,0.082,0.056,0.122,0.083
			c0.041,0.027,0.089,0.056,0.143,0.082c0.055,0.028,0.095,0.056,0.123,0.084c0.002,0.086,0.051,0.192,0.147,0.318
			c0.097,0.127,0.146,0.233,0.147,0.318c0,0.029-0.013,0.059-0.039,0.087c-0.053,0.059-0.079,0.103-0.078,0.131l0.007,0.343
			c-0.047,0.344-0.066,0.687-0.061,1.029c-0.026,0.029-0.053,0.072-0.078,0.13c-0.026,0.058-0.052,0.087-0.078,0.088
			c0.028,0.113,0.046,0.299,0.051,0.556c0.004,0.229-0.006,0.4-0.03,0.515c0.001,0.029-0.005,0.079-0.018,0.15
			s-0.018,0.136-0.017,0.192c0.008,0.4-0.015,0.63-0.066,0.688c0.001,0.058,0.028,0.143,0.085,0.255
			c0.056,0.114,0.085,0.214,0.087,0.299c0.001,0.058-0.019,0.115-0.058,0.173c-0.039,0.059-0.059,0.115-0.057,0.172l0.005,0.258
			c0.005,0.285-0.031,0.472-0.11,0.56c0.055,0.084,0.071,0.213,0.048,0.385s-0.021,0.3,0.008,0.386
			c-0.157,0.231-0.232,0.491-0.227,0.776c0,0.028,0.021,0.084,0.063,0.169s0.05,0.155,0.023,0.214
			c0.001,0.028,0.021,0.058,0.063,0.084c0.042,0.028,0.062,0.057,0.063,0.085c0,0.029-0.024,0.101-0.076,0.215
			c0.027,0.029,0.043,0.171,0.048,0.428l0.004,0.172l0.009,0.471c0.083,0.085,0.204,0.125,0.365,0.122
			c0.135-0.003,0.389-0.064,0.763-0.186l0.957-0.533c0.053-0.059,0.125-0.11,0.219-0.155c0.093-0.044,0.153-0.081,0.18-0.11
			c0.238-0.204,0.396-0.322,0.476-0.352c0.133-0.117,0.41-0.322,0.835-0.616s0.729-0.542,0.913-0.746l0.081-0.001
			c0.025-0.029,0.053-0.044,0.079-0.045c0.025-0.028,0.059-0.08,0.098-0.152s0.071-0.122,0.099-0.151
			c0.025-0.028,0.092-0.081,0.198-0.154c0.105-0.073,0.185-0.125,0.239-0.155c0.237-0.175,0.371-0.264,0.397-0.265l0.121-0.002
			c-0.001-0.028,0.039-0.065,0.119-0.11c0.08-0.043,0.146-0.051,0.2-0.024l0.202-0.004l0.161-0.003
			c0.054-0.029,0.146-0.046,0.281-0.048c0.08-0.002,0.202,0.039,0.365,0.12c0.272,0.195,0.41,0.364,0.413,0.507
			c0.027,0.028,0.027,0.058,0.002,0.086c-0.026,0.059-0.038,0.101-0.038,0.129c-0.025,0.059-0.039,0.102-0.038,0.13
			c0.002,0.086,0.003,0.144,0.003,0.171c-0.025,0.029-0.038,0.073-0.037,0.13c-0.13,0.23-0.193,0.39-0.192,0.476
			c-0.081,0.001-0.14,0.061-0.178,0.174c-0.038,0.114-0.07,0.188-0.097,0.215c-0.055,0.001-0.095,0.01-0.12,0.024
			c-0.027,0.015-0.054,0.022-0.08,0.022c-0.054,0.059-0.105,0.175-0.155,0.347c-0.37,0.322-0.581,0.54-0.632,0.656l-0.201,0.004
			c0,0.027-0.02,0.063-0.059,0.107s-0.06,0.08-0.059,0.108c-0.055,0.029-0.119,0.095-0.197,0.196
			c-0.079,0.103-0.159,0.182-0.238,0.241c-0.026,0.028-0.08,0.044-0.16,0.046l-0.237,0.219c-0.054,0.029-0.146,0.117-0.277,0.262
			c-0.403,0.037-0.668,0.243-0.794,0.616c-0.187,0.118-0.292,0.205-0.317,0.264c-0.027,0.001-0.12,0.045-0.28,0.134l-0.239,0.133
			c-0.161,0.004-0.359,0.108-0.598,0.313l-0.161,0.003c-0.026,0.029-0.06,0.072-0.098,0.131c-0.04,0.059-0.072,0.102-0.1,0.13
			l-0.12,0.002c-0.081,0.002-0.175,0.033-0.28,0.092c-0.107,0.06-0.188,0.09-0.241,0.091c-0.027,0-0.067-0.014-0.121-0.041
			c-0.159,0.146-0.332,0.235-0.519,0.267c-0.026,0.059-0.106,0.117-0.239,0.177c-0.134,0.06-0.213,0.104-0.239,0.133
			c-0.162-0.055-0.283-0.079-0.364-0.078l-0.242,0.005c-0.081-0.027-0.177-0.09-0.286-0.188s-0.19-0.16-0.245-0.188l-0.367-0.208
			c-0.109-0.083-0.261-0.23-0.452-0.44c-0.192-0.211-0.329-0.358-0.411-0.442c0.026-0.029,0.025-0.058-0.002-0.086
			s-0.042-0.056-0.042-0.085c-0.108-0.055-0.24-0.224-0.393-0.507c-0.152-0.282-0.271-0.467-0.354-0.55
			c-0.027-0.057-0.028-0.113-0.003-0.172c-0.055-0.056-0.096-0.084-0.122-0.084c-0.028-0.056-0.085-0.227-0.172-0.51
			c-0.086-0.284-0.145-0.513-0.175-0.683c-0.001-0.086-0.038-0.241-0.109-0.469c-0.072-0.228-0.108-0.397-0.11-0.512
			c-0.003-0.114,0.035-0.216,0.115-0.303l-0.042-0.085c-0.028-0.057-0.057-0.099-0.084-0.127c0.045-0.458,0.164-1.231,0.358-2.321
			c0-0.028,0.025-0.065,0.078-0.109s0.079-0.079,0.079-0.108c-0.004-0.171-0.033-0.313-0.09-0.427
			c0.053-0.087,0.103-0.26,0.151-0.518s0.112-0.444,0.191-0.561l-0.042-0.042c-0.001-0.028-0.001-0.056-0.002-0.085
			c-0.001-0.057,0.024-0.151,0.076-0.28c0.051-0.13,0.077-0.208,0.076-0.236l-0.003-0.172c-0.001-0.057,0.075-0.259,0.229-0.604
			c0.13-0.261,0.22-0.419,0.272-0.478l-0.004-0.214c0.29-0.32,0.434-0.523,0.432-0.609c0.054-0.001,0.093-0.029,0.119-0.087
			c0.025-0.059,0.053-0.087,0.079-0.088c-0.001-0.028,0.005-0.064,0.018-0.107c0.014-0.043,0.02-0.092,0.018-0.15
			C70.459,120.354,70.794,120.306,71.305,120.295z M71.785,116.043c0.403-0.008,0.769,0.071,1.094,0.236
			c0.003,0.114,0.086,0.284,0.252,0.51c0.028,0.057,0.069,0.127,0.125,0.211l0.043,0.128l0.004,0.172
			c0.003,0.171-0.049,0.301-0.154,0.389c-0.025,0.058-0.024,0.107,0.003,0.15c0.027,0.042,0.042,0.078,0.043,0.106
			c-0.054,0.059-0.105,0.151-0.156,0.281c-0.052,0.129-0.09,0.223-0.115,0.279c-0.026,0.059-0.065,0.095-0.119,0.11
			s-0.12,0.03-0.2,0.047c-0.081,0.016-0.147,0.039-0.201,0.067c-0.026,0-0.06,0.03-0.099,0.088
			c-0.039,0.059-0.072,0.087-0.099,0.088l-0.321,0.092l-0.242,0.005c-0.188,0.004-0.54-0.089-1.054-0.279
			c-0.028-0.057-0.071-0.192-0.129-0.404c-0.058-0.213-0.114-0.347-0.169-0.403l-0.003-0.172c-0.003-0.113,0.021-0.258,0.072-0.43
			c0.022-0.2,0.1-0.373,0.231-0.52c0.025-0.028,0.079-0.072,0.158-0.131c0.212-0.146,0.331-0.293,0.355-0.436
			c0.026-0.001,0.12-0.031,0.28-0.092C71.545,116.077,71.678,116.045,71.785,116.043z"/>
		<path fill="#231F20" d="M77.88,120.51c0.161-0.003,0.363,0.058,0.608,0.181c0.244,0.124,0.419,0.186,0.527,0.184
			c0.138,0.197,0.261,0.295,0.368,0.293c0.028,0.057,0.09,0.134,0.186,0.231c0.096,0.099,0.158,0.205,0.188,0.317
			c0.08,0.028,0.167,0.313,0.258,0.853h0.041c0.026-0.001,0.079-0.023,0.159-0.068c0.08-0.044,0.133-0.066,0.16-0.067
			c0.052-0.086,0.124-0.151,0.218-0.196c0.093-0.045,0.221-0.091,0.381-0.137s0.293-0.084,0.401-0.114
			c0.079-0.03,0.191-0.111,0.337-0.243c0.145-0.131,0.291-0.233,0.438-0.309c0.146-0.074,0.301-0.098,0.463-0.073
			c0.37-0.264,0.839-0.387,1.404-0.37c0.026-0.001,0.06,0.021,0.102,0.063c0.041,0.042,0.089,0.077,0.143,0.104
			c0.348-0.063,0.68,0.08,0.995,0.431c0.315,0.352,0.515,0.54,0.597,0.567c0.055,0.057,0.124,0.183,0.208,0.382
			c0.085,0.198,0.168,0.34,0.251,0.424c0,0.028-0.006,0.063-0.019,0.106c-0.013,0.044-0.018,0.08-0.018,0.108
			c0.001,0.057,0.016,0.135,0.045,0.233c0.028,0.1,0.043,0.178,0.045,0.235l0.002,0.128c0.026,0,0.055,0.028,0.083,0.085
			l0.042,0.085l0.002,0.128c0.002,0.086,0.024,0.214,0.068,0.385c0.043,0.171,0.066,0.313,0.068,0.427
			c0.027,0.028,0.056,0.063,0.083,0.106c0.026,0.042,0.055,0.078,0.083,0.104l0.008,0.429c0.002,0.086-0.023,0.194-0.074,0.323
			c-0.052,0.13-0.076,0.223-0.075,0.279c-0.07,0.545-0.118,0.832-0.145,0.861c0.058,0.198,0.061,0.327,0.008,0.386
			c0.001,0.028,0.014,0.063,0.042,0.105c0.027,0.042,0.042,0.078,0.042,0.106c-0.181,0.404-0.283,0.621-0.31,0.648
			c0.083,0.085,0.126,0.24,0.131,0.469c0.002,0.144-0.036,0.244-0.116,0.302c0.001,0.029,0.027,0.043,0.082,0.042
			c0.053-0.001,0.067,0.026,0.042,0.085c0.001,0.058-0.024,0.129-0.077,0.216l-0.078,0.087c0.002,0.086,0.037,0.179,0.106,0.276
			c0.068,0.1,0.117,0.177,0.145,0.232c0.001,0.029-0.018,0.065-0.058,0.109c-0.04,0.043-0.059,0.094-0.058,0.151l0.002,0.085
			c0.001,0.029,0.015,0.106,0.045,0.235c0.028,0.127,0.044,0.221,0.045,0.277l-0.039,0.044c0.001,0.028,0.001,0.058,0.002,0.086
			s0.041,0.07,0.124,0.126c0.054,0.027,0.081,0.07,0.082,0.127c0.269-0.033,0.529-0.089,0.783-0.166
			c0.254-0.075,0.527-0.181,0.82-0.315c0.294-0.135,0.507-0.23,0.641-0.291c0.104-0.088,0.283-0.213,0.536-0.375
			c0.252-0.161,0.431-0.302,0.535-0.418l0.24-0.091c0.079-0.086,0.371-0.292,0.876-0.616c1.002-0.934,1.557-1.444,1.663-1.532
			l0.322-0.007c0.052-0.058,0.125-0.123,0.218-0.196c0.092-0.073,0.151-0.124,0.179-0.154l0.081-0.001
			c0.161-0.003,0.354-0.063,0.58-0.183c0.226-0.118,0.406-0.18,0.541-0.183c0.429-0.008,0.688,0.188,0.776,0.586l0.009,0.471
			c-0.022,0.173-0.14,0.389-0.35,0.648c-0.21,0.263-0.326,0.465-0.351,0.607l-0.118,0.088c-0.08,0.059-0.133,0.118-0.158,0.175
			c-0.108,0.002-0.194,0.025-0.262,0.069c-0.066,0.045-0.132,0.11-0.197,0.196c-0.065,0.088-0.111,0.146-0.138,0.175
			c-0.053,0.059-0.146,0.117-0.278,0.177c-0.134,0.06-0.233,0.126-0.299,0.199c-0.066,0.072-0.097,0.181-0.095,0.323
			c-0.372,0.235-0.584,0.383-0.637,0.441l-0.039,0.042c-0.027,0.03-0.053,0.045-0.079,0.045c-0.188,0.004-0.308,0.121-0.356,0.35
			c-0.027,0.001-0.061,0.01-0.101,0.023c-0.04,0.016-0.074,0.023-0.101,0.023c-0.027,0.001-0.079,0.103-0.155,0.304
			c-0.053,0.059-0.186,0.132-0.398,0.223c-0.215,0.089-0.347,0.192-0.397,0.308c-0.08,0.001-0.2,0.047-0.36,0.135
			c-0.159,0.089-0.267,0.148-0.318,0.178c-0.08,0.06-0.214,0.127-0.399,0.2c-0.187,0.076-0.319,0.157-0.398,0.244
			c-0.027,0.001-0.074,0.016-0.14,0.046c-0.066,0.029-0.114,0.046-0.141,0.046c-0.027,0.028-0.133,0.116-0.317,0.263
			c-0.186,0.146-0.332,0.22-0.439,0.222l-0.161,0.004c-0.054,0.029-0.126,0.088-0.218,0.176c-0.094,0.087-0.153,0.131-0.18,0.132
			c-0.188,0.061-0.293,0.135-0.317,0.221c-0.135,0.03-0.302,0.098-0.501,0.202c-0.199,0.104-0.339,0.171-0.419,0.202l-0.202,0.004
			l-0.2,0.046c-0.163-0.082-0.271-0.123-0.324-0.122l-0.483,0.01c-0.38-0.107-0.65-0.244-0.814-0.413l-0.126-0.255
			c-0.056-0.113-0.166-0.253-0.331-0.421c-0.223-0.367-0.333-0.565-0.334-0.594c-0.275-0.31-0.47-0.677-0.586-1.104
			c-0.164-0.168-0.318-0.473-0.461-0.912c-0.144-0.44-0.229-0.688-0.257-0.745c-0.001-0.028,0.012-0.064,0.039-0.108
			c0.025-0.043,0.038-0.079,0.037-0.108c-0.111-0.225-0.172-0.553-0.18-0.981c-0.004-0.199,0.006-0.343,0.031-0.429
			c-0.083-0.17-0.085-0.27-0.006-0.3c-0.081-0.084-0.126-0.255-0.131-0.512s-0.021-0.399-0.049-0.428
			c0.025-0.058,0.064-0.115,0.118-0.173c-0.028-0.058-0.043-0.143-0.045-0.258c-0.002-0.113,0.021-0.229,0.073-0.344
			c-0.056-0.112-0.084-0.198-0.085-0.256l0.115-0.259c-0.027-0.057-0.043-0.128-0.044-0.214c-0.003-0.113,0.021-0.258,0.072-0.43
			c0.05-0.173,0.074-0.302,0.072-0.387c0-0.028-0.001-0.058-0.001-0.086l-0.042-0.086c-0.027,0.001-0.067,0.017-0.12,0.046
			c-0.054,0.03-0.107,0.031-0.161,0.003c0.001,0.086-0.036,0.194-0.115,0.323c-0.077,0.131-0.116,0.254-0.114,0.367
			c-0.133,0.089-0.27,0.27-0.412,0.544s-0.267,0.455-0.372,0.543l0.001,0.086c0.002,0.058,0.029,0.121,0.084,0.19
			c0.056,0.071,0.084,0.121,0.084,0.149c-0.025,0.086-0.084,0.201-0.175,0.346c-0.091,0.146-0.148,0.274-0.173,0.39
			c0.083,0.169,0.127,0.355,0.131,0.555c0.007,0.343-0.083,0.572-0.269,0.689c0.061,0.342,0.092,0.571,0.094,0.685
			c-0.026,0.058-0.079,0.108-0.158,0.153c-0.08,0.044-0.119,0.081-0.119,0.108c0.002,0.058,0.029,0.122,0.085,0.192
			c0.055,0.07,0.083,0.12,0.083,0.147l0.011,0.558c-0.078,0.088-0.117,0.202-0.114,0.345l0.003,0.128
			c-0.054,0.03-0.104,0.203-0.151,0.519c-0.053,0.059-0.077,0.13-0.076,0.215c0.001,0.029,0.015,0.079,0.043,0.149
			c0.028,0.071,0.043,0.122,0.043,0.149c0.002,0.058-0.031,0.129-0.096,0.217c-0.066,0.087-0.098,0.159-0.097,0.216
			c-0.027,0-0.119,0.131-0.274,0.391c0.027,0.057,0.035,0.136,0.024,0.235c-0.013,0.101-0.003,0.179,0.024,0.235
			c-0.077,0.173-0.25,0.29-0.516,0.353c-0.027,0.028-0.065,0.093-0.117,0.194c-0.053,0.101-0.104,0.166-0.157,0.197l-0.403,0.008
			c-0.163-0.083-0.299-0.124-0.406-0.121c-0.055-0.057-0.205-0.188-0.451-0.399c-0.245-0.208-0.41-0.398-0.495-0.567
			c-0.081-0.027-0.163-0.111-0.247-0.252c-0.083-0.141-0.151-0.226-0.206-0.254c-0.031-0.227-0.149-0.453-0.356-0.679
			c-0.205-0.224-0.323-0.364-0.351-0.421c-0.063-0.456-0.098-0.885-0.105-1.285l-0.006-0.3c-0.001-0.057,0.011-0.128,0.036-0.215
			c0.024-0.086,0.037-0.143,0.036-0.172c0-0.028-0.015-0.07-0.042-0.128c-0.028-0.057-0.042-0.1-0.043-0.128
			c0-0.028,0.005-0.071,0.018-0.129c0.013-0.057,0.019-0.101,0.018-0.129c0-0.028-0.016-0.106-0.044-0.235
			c-0.03-0.127-0.045-0.233-0.047-0.319l-0.002-0.128c-0.006-0.258-0.036-0.428-0.092-0.513l-0.019-0.985
			c0.077-0.173,0.101-0.33,0.071-0.474c0.079-0.087,0.123-0.194,0.135-0.324c0.011-0.128,0.015-0.285,0.011-0.471
			c-0.003-0.186,0.007-0.336,0.031-0.451c0-0.028,0.019-0.1,0.057-0.215s0.057-0.201,0.056-0.259
			c-0.006-0.285,0.004-0.443,0.031-0.472c-0.002-0.058-0.03-0.143-0.087-0.257c-0.031-0.284-0.021-0.711,0.036-1.285
			c0.056-0.572,0.082-0.973,0.078-1.201c-0.005-0.229,0.153-0.417,0.473-0.566C77.411,120.62,77.664,120.515,77.88,120.51z"/>
		<path fill="#231F20" d="M99.31,119.663c0.242-0.005,0.547,0.062,0.91,0.197c0.366,0.136,0.575,0.218,0.631,0.245
			c0.107,0.084,0.326,0.222,0.652,0.416c0.326,0.193,0.572,0.36,0.735,0.499c0.026,0,0.075,0.021,0.144,0.063
			c0.067,0.041,0.128,0.047,0.181,0.018c0.055,0.057,0.131,0.162,0.229,0.317c0.097,0.155,0.173,0.274,0.229,0.359l0.246,0.209
			c0.083,0.114,0.16,0.298,0.232,0.554c0.071,0.256,0.136,0.425,0.191,0.509c0.002,0.058,0.057,0.149,0.167,0.275
			c0.109,0.127,0.166,0.233,0.167,0.319c0.008,0.371,0.038,0.584,0.093,0.641l-0.077,0.13c0.028,0.085,0.139,0.883,0.329,2.394
			c0.134-0.002,0.28-0.075,0.438-0.223c0.159-0.146,0.305-0.234,0.438-0.266c0.211-0.176,0.383-0.292,0.516-0.353
			c0.556-0.468,1.328-0.854,2.316-1.16c0.052-0.115,0.304-0.263,0.758-0.443c0.08-0.03,0.18-0.09,0.299-0.177
			c0.12-0.088,0.192-0.133,0.22-0.133c0.133-0.06,0.615-0.169,1.444-0.328c0.054-0.001,0.214-0.033,0.481-0.096
			c0.268-0.062,0.455-0.095,0.563-0.097c0.162,0.026,0.332,0.122,0.51,0.291c0.178,0.167,0.269,0.352,0.272,0.551
			c0.003,0.114-0.035,0.244-0.113,0.389c-0.053,0.059-0.158,0.146-0.317,0.263c-0.104,0.146-0.196,0.247-0.276,0.306
			c-0.027,0-0.054,0.001-0.08,0.002c-0.055,0.001-0.094,0.016-0.12,0.045c-0.026,0.03-0.059,0.08-0.098,0.152
			s-0.072,0.122-0.099,0.151c-0.025,0.03-0.092,0.081-0.198,0.154s-0.172,0.14-0.197,0.196c-0.027,0.03-0.06,0.073-0.099,0.131
			c-0.039,0.059-0.073,0.103-0.099,0.131l-0.238,0.133l-0.477,0.396l-0.275,0.305c-0.322,0.036-0.668,0.257-1.036,0.663
			c-0.347,0.093-0.626,0.27-0.836,0.53c-0.107,0.03-0.2,0.075-0.279,0.134c-0.08,0.059-0.159,0.132-0.238,0.219
			c-0.078,0.088-0.145,0.146-0.197,0.175c-0.348,0.15-0.561,0.255-0.64,0.313c-0.079,0.087-0.172,0.161-0.278,0.22
			c-0.026,0.001-0.06,0.029-0.099,0.088s-0.072,0.101-0.099,0.13c-0.347,0.15-0.533,0.254-0.559,0.311
			c-0.16,0.032-0.34,0.114-0.538,0.247c-0.199,0.132-0.379,0.215-0.539,0.246c-0.027,0.001-0.061,0.037-0.099,0.109
			c-0.04,0.072-0.099,0.095-0.181,0.068c-0.051,0.172-0.144,0.26-0.277,0.262l-0.116,0.26c-0.025,0.029-0.038,0.086-0.036,0.172
			c0.001,0.085-0.011,0.158-0.036,0.215c-0.026,0.059-0.065,0.088-0.119,0.089c0.001,0.058,0.014,0.084,0.041,0.084
			c0.056,0.057,0.083,0.099,0.084,0.127c0.001,0.058-0.025,0.115-0.078,0.174l-0.078,0.086c0.054,0.057,0.063,0.149,0.025,0.279
			c-0.038,0.129-0.03,0.222,0.025,0.278l-0.196,0.261c0.027,0.056,0.009,0.121-0.057,0.193s-0.099,0.123-0.099,0.151l0.003,0.129
			c0.002,0.113-0.035,0.258-0.112,0.43c0.058,0.228,0.089,0.413,0.091,0.557c0.005,0.229-0.032,0.4-0.11,0.516
			c0.027,0.086,0.045,0.228,0.049,0.428c0.008,0.371-0.069,0.616-0.228,0.733l0.004,0.214c0.006,0.285-0.005,0.472-0.029,0.559
			l-0.116,0.259c0.002,0.086,0.03,0.186,0.086,0.299c-0.025,0.057-0.099,0.459-0.218,1.204c-0.05,0.229-0.073,0.372-0.072,0.429
			c0.002,0.114,0.03,0.2,0.086,0.257c-0.026,0.057-0.045,0.165-0.055,0.322c-0.011,0.156-0.055,0.265-0.135,0.324
			c0.055,0.056,0.083,0.111,0.084,0.169c-0.153,0.374-0.375,0.779-0.662,1.214c-0.025,0.057-0.072,0.122-0.137,0.194
			c-0.066,0.073-0.113,0.124-0.139,0.153c-0.079,0.059-0.165,0.139-0.257,0.241c-0.093,0.101-0.179,0.167-0.259,0.198l-0.477,0.352
			c-0.185,0.203-0.29,0.306-0.316,0.307c-0.026,0-0.113,0.037-0.26,0.112c-0.146,0.073-0.246,0.154-0.297,0.241
			c-0.108,0.002-0.241,0.033-0.401,0.094c-0.16,0.06-0.28,0.091-0.361,0.092c-0.054,0.001-0.136-0.025-0.243-0.08
			c-0.187,0.117-0.428,0.18-0.723,0.186c-0.431,0.008-0.741-0.087-0.933-0.282l-0.202,0.004c-0.108-0.056-0.285-0.145-0.528-0.268
			c-0.245-0.125-0.442-0.243-0.593-0.354c-0.149-0.111-0.279-0.237-0.39-0.378c-0.269-0.053-0.528-0.233-0.775-0.542
			c-0.19-0.054-0.396-0.25-0.616-0.589c-0.082-0.056-0.172-0.167-0.27-0.337s-0.174-0.282-0.229-0.339
			c-0.198-0.539-0.301-0.979-0.308-1.322c0-0.028,0.013-0.044,0.04-0.044c-0.029-0.058-0.044-0.156-0.046-0.299
			c-0.005-0.228,0.005-0.371,0.031-0.429c-0.001-0.028-0.021-0.058-0.063-0.084c-0.04-0.028-0.062-0.071-0.063-0.128
			c-0.018-0.886,0.226-1.505,0.729-1.857c0.074-0.345,0.244-0.562,0.512-0.653c-0.029-0.113-0.018-0.199,0.035-0.257
			c-0.001-0.029,0.053-0.044,0.16-0.047l0.117-0.216l0.158-0.175l0.038-0.087c0.025-0.058,0.039-0.102,0.038-0.129
			c0.052-0.059,0.171-0.146,0.356-0.265s0.29-0.248,0.314-0.391c0.107-0.003,0.188-0.025,0.241-0.069
			c0.053-0.044,0.112-0.118,0.178-0.219c0.064-0.101,0.11-0.166,0.137-0.195l0.358-0.263c0.157-0.175,0.262-0.277,0.316-0.306
			c0.025-0.03,0.065-0.053,0.12-0.067c0.052-0.016,0.093-0.038,0.118-0.066c0.053-0.058,0.119-0.132,0.198-0.219
			c0.078-0.087,0.145-0.146,0.198-0.175c0.052-0.058,0.184-0.176,0.396-0.351c-0.001-0.057-0.029-0.1-0.084-0.128
			c-0.054-0.026-0.122-0.04-0.202-0.039c-0.081,0.002-0.135-0.011-0.161-0.038c-0.027,0-0.062-0.021-0.103-0.063
			c-0.042-0.043-0.075-0.063-0.103-0.063c-0.729-0.215-1.191-0.449-1.385-0.702c-0.242-0.023-0.406-0.148-0.49-0.376
			c-0.136-0.026-0.285-0.123-0.448-0.292c-0.028-0.027-0.028-0.056-0.002-0.086l0.039-0.043c-0.027-0.027-0.081-0.056-0.163-0.082
			l-0.081,0.001c-0.027-0.057-0.117-0.169-0.268-0.337c-0.151-0.169-0.242-0.324-0.271-0.467c-0.027,0-0.061-0.021-0.102-0.063
			c-0.042-0.042-0.075-0.063-0.102-0.063c-0.058-0.142-0.154-0.304-0.292-0.486c-0.139-0.184-0.222-0.303-0.249-0.36
			c-0.03-0.141-0.088-0.304-0.171-0.488c-0.085-0.185-0.127-0.29-0.128-0.319l-0.004-0.214c-0.001-0.057-0.016-0.1-0.043-0.128
			s-0.041-0.056-0.041-0.085l-0.011-0.514c-0.008-0.429,0.026-0.743,0.103-0.945c-0.001-0.028,0.012-0.064,0.039-0.108
			c0.025-0.043,0.038-0.093,0.037-0.15l-0.004-0.171c0.025-0.058,0.063-0.145,0.116-0.26c0.052-0.115,0.09-0.202,0.116-0.26
			c0.025-0.058,0.043-0.136,0.055-0.236s0.018-0.165,0.017-0.193c0-0.028,0.031-0.094,0.097-0.195
			c0.065-0.101,0.111-0.18,0.138-0.238c0.025-0.057,0.117-0.201,0.273-0.434c0.077-0.173,0.143-0.26,0.196-0.261l-0.005-0.256
			c0.104-0.174,0.195-0.305,0.274-0.392c0.08-0.03,0.186-0.097,0.318-0.199c0.131-0.103,0.211-0.169,0.238-0.197
			c0.053-0.029,0.118-0.132,0.195-0.304c0.077-0.174,0.128-0.274,0.155-0.304c0.025-0.028,0.132-0.116,0.316-0.264
			c0.026-0.028,0.06-0.079,0.099-0.151s0.071-0.122,0.098-0.152c0.026,0,0.08-0.023,0.16-0.067c0.079-0.045,0.132-0.095,0.158-0.152
			l0.201-0.004c0.238-0.233,0.663-0.456,1.277-0.668c0.054-0.029,0.106-0.073,0.159-0.132
			C98.397,119.725,98.853,119.672,99.31,119.663z M99.9,133.366c-0.216,0.032-0.461,0.173-0.738,0.422
			c-0.277,0.247-0.55,0.389-0.818,0.422c-0.103,0.23-0.209,0.348-0.315,0.35l-0.116,0.26c-0.08,0.029-0.187,0.117-0.317,0.264
			c-0.132,0.145-0.251,0.233-0.358,0.264c-0.051,0.115-0.104,0.188-0.156,0.218c-0.026,0.028-0.066,0.064-0.119,0.108
			s-0.093,0.081-0.118,0.11c-0.027,0.028-0.059,0.122-0.097,0.28c-0.036,0.158-0.109,0.252-0.216,0.282
			c-0.025,0.059-0.031,0.102-0.017,0.13c0.013,0.027,0.021,0.056,0.021,0.085c-0.106,0.059-0.211,0.212-0.313,0.456
			c-0.103,0.245-0.181,0.396-0.232,0.455c0.054,0.055,0.083,0.127,0.085,0.213c0,0.027-0.019,0.106-0.057,0.236
			c-0.037,0.13-0.056,0.222-0.055,0.279l0.001,0.086c0.138,0.14,0.221,0.266,0.25,0.38c0.189,0.082,0.379,0.121,0.567,0.117
			l0.766-0.015l0.479-0.267l-0.004-0.17c0.08-0.059,0.219-0.154,0.419-0.287c0.198-0.132,0.357-0.264,0.476-0.396
			c0.118-0.13,0.188-0.297,0.212-0.496c0.131-0.146,0.21-0.276,0.234-0.391c0.025-0.059,0.036-0.201,0.032-0.43
			c-0.004-0.171,0.072-0.372,0.229-0.604c-0.007-0.343,0.055-0.63,0.186-0.861c-0.004-0.2,0.032-0.371,0.111-0.516
			c-0.058-0.113-0.086-0.213-0.087-0.299c-0.002-0.057,0.017-0.165,0.054-0.322C99.924,133.572,99.929,133.451,99.9,133.366z
			 M100.054,124.706l-0.002-0.086c-0.055,0.002-0.133,0.061-0.238,0.176c-0.105,0.117-0.226,0.177-0.359,0.18
			c0.001,0.058-0.038,0.114-0.117,0.173c-0.08,0.06-0.133,0.104-0.159,0.132l-0.161,0.003c-0.052,0.145-0.189,0.275-0.416,0.395
			c-0.227,0.118-0.365,0.207-0.418,0.265l-0.161,0.003c-0.178,0.547-0.293,0.85-0.346,0.908l0.042,0.042
			c0.001,0.058,0.002,0.1,0.002,0.128c0.002,0.086-0.017,0.193-0.054,0.322c-0.038,0.13-0.057,0.223-0.056,0.279l0.002,0.086
			c0.108,0.027,0.237,0.146,0.39,0.357s0.295,0.314,0.43,0.312c0.081-0.001,0.188-0.039,0.321-0.112
			c0.132-0.074,0.238-0.127,0.319-0.157c-0.001-0.056,0.037-0.12,0.117-0.193c0.078-0.073,0.131-0.125,0.158-0.153l0.076-0.174
			c0.104-0.173,0.17-0.288,0.196-0.347c0.128-0.288,0.19-0.546,0.186-0.774c0.078-0.088,0.116-0.245,0.112-0.474l-0.004-0.214
			c-0.003-0.114,0.021-0.294,0.069-0.538C100.032,125,100.056,124.82,100.054,124.706z"/>
	</g>
	<g>
		<path fill="#231F20" d="M20.353,129.046c0.228-0.003,0.56,0.072,0.995,0.22c0.435,0.149,0.73,0.234,0.892,0.258
			c0.068-0.024,0.114-0.001,0.137,0.071c0.026,0.038,0.056,0.06,0.088,0.064l0.104-0.037c0.069-0.024,0.132-0.016,0.191,0.027
			c0.172,0.163,0.309,0.235,0.41,0.214c-0.006,0.035,0.004,0.078,0.028,0.135c0.024,0.056,0.033,0.117,0.023,0.185
			c0.096,0.014,0.202,0.065,0.32,0.15c0.117,0.086,0.225,0.136,0.32,0.149c0.021,0.073,0.107,0.155,0.259,0.246
			c-0.005,0.033,0.018,0.089,0.074,0.166c0.029,0.004,0.092,0.039,0.18,0.104c0.089,0.064,0.148,0.1,0.181,0.104
			c0.125,0.26,0.22,0.394,0.284,0.403c0.243,0.347,0.459,0.551,0.646,0.612c0.106,0.154,0.157,0.265,0.147,0.332l0.096,0.014
			c0.096,0.014,0.193,0.072,0.293,0.172c0.099,0.102,0.181,0.156,0.246,0.166c0.152,0.3,0.234,0.519,0.246,0.658l0.24,0.034
			c0.021,0.074,0.083,0.16,0.183,0.26c0.099,0.102,0.164,0.172,0.19,0.209l-0.021,0.153c-0.044,0.305,0.038,0.524,0.248,0.658
			l-0.021,0.153c0.197,0.202,0.285,0.388,0.261,0.557c-0.005,0.034-0.01,0.069-0.015,0.102l-0.062,0.096l0.033,0.784l-0.022,0.153
			c-0.009,0.067,0.016,0.123,0.075,0.166c0.054,0.077,0.095,0.136,0.122,0.174c-0.182,0.354-0.306,0.77-0.374,1.244
			c-0.01,0.068-0.017,0.172-0.021,0.31s-0.012,0.257-0.026,0.36c-0.015,0.102-0.023,0.213-0.023,0.334
			c-0.001,0.121,0.003,0.26,0.014,0.417c0.01,0.157,0.01,0.271,0,0.339c-0.021,0.377-0.104,0.902-0.25,1.574
			c-0.145,0.672-0.231,1.109-0.261,1.314c-0.049,0.338-0.029,0.653,0.061,0.941c-0.015,0.104-0.045,0.255-0.09,0.455
			c-0.047,0.202-0.075,0.354-0.09,0.456c-0.005,0.034,0.004,0.087,0.026,0.159c0.021,0.072,0.028,0.144,0.019,0.211l-0.077,0.197
			c-0.005,0.033-0.003,0.077,0.007,0.129c0.007,0.054,0.01,0.098,0.005,0.132c-0.031-0.005-0.051,0.011-0.056,0.044
			c-0.042,0.063-0.054,0.148-0.036,0.254c0.017,0.106,0.023,0.178,0.019,0.212c-0.041,0.063-0.092,0.124-0.148,0.186
			c-0.059,0.062-0.089,0.109-0.094,0.143c0.111,0.363,0.161,0.577,0.151,0.646c-0.015,0.103-0.041,0.167-0.077,0.197
			c-0.004,0.033-0.013,0.094-0.025,0.178c-0.012,0.085,0.009,0.165,0.063,0.242c-0.01,0.069-0.034,0.117-0.07,0.146l0.033,0.109
			c-0.01,0.067,0.017,0.105,0.081,0.115c-0.035,0.028-0.06,0.078-0.069,0.146c-0.024,0.17-0.056,0.269-0.092,0.299
			c-0.036,0.028-0.058,0.062-0.063,0.095c-0.042,0.063-0.031,0.1,0.033,0.109c0.064,0.009,0.094,0.031,0.089,0.063
			c-0.051,0.132-0.092,0.299-0.121,0.503c-0.024,0.17-0.01,0.293,0.045,0.369c-0.005,0.035-0.033,0.064-0.086,0.092
			s-0.082,0.059-0.087,0.092l0.122,0.173l-0.037,0.255c-0.063,0.441-0.085,0.715-0.068,0.821c-0.005,0.034,0.001,0.053,0.018,0.055
			c0.016,0.003,0.021,0.021,0.017,0.054c-0.048,0.098-0.038,0.15,0.025,0.16c0.027,0.039,0.022,0.072-0.015,0.103
			c-0.036,0.028-0.057,0.061-0.062,0.094c0.021,0.073,0.021,0.194-0.004,0.364s-0.01,0.293,0.044,0.369
			c-0.029,0.204-0.033,0.342-0.009,0.415l-0.049-0.007c-0.036,0.028-0.057,0.061-0.062,0.095c0.033,0.213,0.364,0.397,0.995,0.557
			l-0.021,0.153c0.063,0.01,0.163-0.01,0.302-0.061c0.145,0.125,0.214,0.205,0.209,0.238c0.032,0.005,0.066-0.008,0.104-0.037
			c0.036-0.029,0.071-0.042,0.104-0.037l0.675,0.408c0.03,0.004,0.081-0.005,0.149-0.03c0.128,0.019,0.246,0.104,0.355,0.258
			c0.271,0.144,0.562,0.515,0.867,1.112c0.025,0.038,0.064,0.112,0.114,0.224c0.049,0.111,0.068,0.201,0.059,0.269
			c-0.058,0.407-0.113,0.677-0.164,0.808c-0.015,0.103-0.14,0.292-0.374,0.569c-0.033-0.005-0.068,0.008-0.104,0.038
			c-0.038,0.028-0.072,0.041-0.104,0.036l-0.063,0.096c-0.005,0.033-0.024,0.049-0.055,0.045l-0.428,0.249
			c-0.032-0.004-0.101,0.021-0.206,0.074c-0.105,0.056-0.175,0.079-0.206,0.074c-0.037,0.03-0.119,0.036-0.247,0.018
			c-0.127-0.019-0.225-0.016-0.294,0.01c-0.201,0.041-0.35,0.054-0.445,0.04c-0.101,0.021-0.229,0.002-0.383-0.055
			c-0.156-0.057-0.267-0.072-0.336-0.049l-0.055,0.045l-0.056,0.043c-0.064-0.009-0.194-0.01-0.391-0.003
			c-0.196,0.006-0.326,0.005-0.391-0.004l-0.143-0.021c-0.027-0.04-0.059-0.061-0.089-0.064l-0.041-0.059l-0.199,0.024
			c-0.096-0.014-0.219-0.058-0.372-0.132c-0.152-0.074-0.244-0.113-0.276-0.118c-0.187-0.061-0.471-0.128-0.851-0.199
			c-0.382-0.072-0.636-0.117-0.763-0.135c-0.479-0.069-0.825-0.153-1.039-0.254c-0.031-0.005-0.076-0.044-0.129-0.122l-0.198,0.024
			c-0.065-0.009-0.157-0.049-0.277-0.117c-0.12-0.07-0.213-0.109-0.276-0.118c-0.037,0.029-0.053,0.027-0.048-0.007l-0.04-0.058
			l-0.049-0.007c-0.063-0.01-0.099,0.004-0.104,0.037c-0.054-0.077-0.158-0.144-0.312-0.2c-0.156-0.058-0.247-0.104-0.273-0.145
			c-0.032-0.004-0.062-0.034-0.085-0.09c-0.025-0.055-0.054-0.085-0.085-0.09c-0.096-0.014-0.157-0.039-0.185-0.078l-0.579-0.395
			c-0.182-0.095-0.286-0.162-0.313-0.2L18.9,155.23l-0.096-0.014c-0.032-0.005-0.084-0.046-0.153-0.126
			c-0.07-0.08-0.152-0.126-0.248-0.14c0.005-0.033-0.084-0.098-0.266-0.195c-0.023-0.071-0.083-0.158-0.183-0.259
			c-0.101-0.101-0.164-0.17-0.19-0.209c-0.013-0.14-0.079-0.305-0.198-0.496c-0.119-0.189-0.19-0.321-0.212-0.394
			c-0.027-0.039-0.047-0.137-0.055-0.294c-0.012-0.157-0.043-0.274-0.098-0.352c0.015-0.103,0.012-0.259-0.006-0.469
			c-0.02-0.211-0.021-0.366-0.007-0.468c-0.04-0.18-0.027-0.489,0.036-0.93c0.005-0.034-0.007-0.071-0.033-0.109
			s-0.038-0.075-0.033-0.108c0.023-0.17,0.053-0.253,0.084-0.248c-0.055-0.077-0.078-0.202-0.069-0.374
			c0.009-0.171-0.017-0.279-0.075-0.322l0.015-0.102c0.015-0.103,0.017-0.292,0.008-0.571c-0.009-0.277-0.003-0.484,0.017-0.62
			c0.033-0.237,0.089-0.403,0.168-0.495l-0.129-0.122c0.01-0.067,0.027-0.135,0.053-0.201c0.025-0.065,0.044-0.132,0.054-0.2
			l0.007-0.05c-0.027-0.039-0.038-0.075-0.033-0.109c0.005-0.033,0.028-0.082,0.07-0.146l0.055-0.043
			c0.005-0.034-0.009-0.055-0.04-0.059c-0.032-0.005-0.046-0.022-0.041-0.058l0.121-0.502l-0.019-0.211l0.021-0.152
			c0.059-0.407,0.063-0.667,0.014-0.778c0.01-0.066,0.05-0.131,0.125-0.189c0.005-0.033-0.016-0.063-0.062-0.087
			c-0.046-0.023-0.05-0.05-0.013-0.079c0.01-0.068,0.038-0.211,0.086-0.43c0.047-0.219,0.078-0.379,0.093-0.48
			c0.028-0.203,0.031-0.341,0.011-0.414c-0.008-0.174,0.012-0.43,0.061-0.771c0.005-0.031-0.006-0.078-0.028-0.133
			c-0.025-0.056-0.035-0.101-0.03-0.135l0.021-0.152c0.01-0.068,0.003-0.189-0.021-0.367c-0.024-0.176-0.027-0.314-0.013-0.416
			c0.005-0.035,0.018-0.077,0.041-0.125s0.037-0.09,0.042-0.124c-0.054-0.076-0.063-0.183-0.027-0.314
			c0.035-0.134,0.086-0.213,0.157-0.239l0.007-0.049c-0.065-0.01-0.091-0.049-0.081-0.117c0.024-0.168,0.056-0.451,0.096-0.843
			c0.039-0.392,0.074-0.691,0.104-0.895l0.109-0.764c0.053-0.373,0.121-0.623,0.205-0.75c0.004-0.034,0.013-0.093,0.025-0.179
			c0.012-0.084-0.011-0.147-0.07-0.192c0.047-0.096,0.07-0.266,0.072-0.508c0.003-0.242,0.04-0.393,0.115-0.45
			c-0.057-0.078-0.094-0.152-0.115-0.226c0.004-0.034,0.014-0.102,0.028-0.204c0.015-0.102,0.04-0.166,0.078-0.196
			c-0.062-0.252-0.066-0.563-0.013-0.937l0.182-1.273c0.005-0.034,0.033-0.056,0.082-0.065c0.052-0.01,0.08-0.033,0.085-0.067
			c0.009-0.067-0.015-0.139-0.067-0.217c0.185-0.389,0.291-0.668,0.315-0.838c0.029-0.203,0.005-0.381-0.071-0.53
			c0.005-0.033,0.019-0.075,0.043-0.123c0.022-0.049,0.037-0.09,0.042-0.124c-0.046-0.145-0.059-0.269-0.044-0.37
			c0.004-0.033,0.021-0.102,0.051-0.2c0.031-0.1,0.052-0.184,0.062-0.251c0.005-0.034,0.003-0.077-0.007-0.131
			c-0.008-0.054-0.009-0.097-0.004-0.131c0.115-0.122,0.182-0.25,0.201-0.387c0.115-0.122,0.299-0.269,0.553-0.44
			C20.115,129.219,20.278,129.104,20.353,129.046z"/>
		<path fill="#231F20" d="M46.958,133.687l0.144,0.021c0.096,0.014,0.228,0.059,0.396,0.135c0.168,0.075,0.284,0.118,0.349,0.127
			c0.063,0.01,0.126,0.027,0.188,0.053c0.062,0.027,0.123,0.044,0.188,0.053l0.574,0.082c0.415,0.06,0.711,0.154,0.889,0.283
			c0.031,0.005,0.089,0.065,0.17,0.181c0.287,0.041,0.571,0.221,0.851,0.538c0.191,0.027,0.389,0.134,0.591,0.318
			c0.201,0.184,0.382,0.289,0.542,0.312c-0.024,0.17,0.07,0.304,0.283,0.403c0.03,0.246,0.062,0.373,0.094,0.377
			c0.086,0.083,0.198,0.255,0.341,0.517c0.142,0.264,0.271,0.438,0.39,0.524c0.034,0.212,0.081,0.34,0.141,0.383
			c0.026,0.039,0.021,0.08-0.019,0.128c-0.04,0.046-0.062,0.087-0.066,0.12c0.045,0.145,0.129,0.348,0.256,0.607
			c0.125,0.261,0.226,0.466,0.303,0.615c-0.039,0.272-0.078,0.423-0.114,0.451c-0.005,0.034,0.009,0.053,0.041,0.058
			c0.128,0.019,0.216,0.084,0.267,0.194c0.048,0.111,0.085,0.255,0.108,0.431c0.023,0.178,0.062,0.304,0.116,0.381
			c-0.042,0.064-0.072,0.163-0.091,0.299c-0.024,0.17,0.01,0.384,0.104,0.638c0.094,0.257,0.151,0.421,0.174,0.492
			c-0.01,0.07-0.025,0.18-0.048,0.332c-0.021,0.152-0.021,0.265,0.001,0.336c0.022,0.074,0.053,0.139,0.095,0.197
			c0.04,0.057,0.058,0.104,0.053,0.137c0.009,0.625,0.025,0.957,0.053,0.995c-0.005,0.034-0.023,0.108-0.056,0.226
			c-0.034,0.117-0.056,0.21-0.064,0.277c-0.073,0.509-0.054,0.944,0.058,1.307c-0.059,0.407-0.094,0.766-0.106,1.075
			c-0.015,0.103-0.003,0.251,0.034,0.447c0.037,0.195,0.051,0.328,0.041,0.396c-0.015,0.102-0.076,0.196-0.187,0.285
			c-0.01,0.068-0.017,0.162-0.017,0.282c-0.002,0.123-0.007,0.217-0.017,0.284c-0.044,0.306-0.13,0.57-0.259,0.794
			c0.017,0.105,0.013,0.245-0.012,0.414c-0.034,0.238-0.074,0.404-0.12,0.503c-0.01,0.067-0.004,0.137,0.018,0.21
			c0.022,0.073,0.013,0.14-0.029,0.204c-0.005,0.033-0.041,0.063-0.11,0.088c-0.068,0.024-0.109,0.088-0.124,0.189l-0.08,0.561
			c-0.005,0.034,0.004,0.078,0.03,0.134c0.023,0.056,0.033,0.101,0.028,0.135c-0.14,0.292-0.212,0.455-0.216,0.488
			c-0.02,0.136,0.004,0.312,0.07,0.529c-0.01,0.069-0.051,0.132-0.125,0.189c-0.074,0.059-0.112,0.106-0.117,0.14
			c0.026,0.038,0.023,0.178-0.011,0.414c-0.015,0.102-0.008,0.173,0.019,0.21c-0.036,0.03-0.075,0.066-0.113,0.114
			c-0.039,0.046-0.078,0.084-0.114,0.113s-0.075,0.067-0.114,0.113c-0.039,0.047-0.091,0.064-0.154,0.055
			c-0.216,0.594-0.369,0.988-0.462,1.182c-0.032-0.004-0.084,0.015-0.155,0.056c-0.071,0.042-0.136,0.042-0.195-0.001
			c-0.24,0.312-0.392,0.463-0.456,0.453c-0.061,0.199-0.184,0.372-0.367,0.52c-0.042,0.063-0.04,0.115,0.002,0.156
			c0.044,0.041,0.063,0.078,0.058,0.112c-0.725,0.278-1.438,0.712-2.143,1.303c-0.16-0.022-0.382,0.05-0.665,0.217
			c-0.096-0.014-0.215,0.014-0.354,0.08c-0.139,0.066-0.241,0.095-0.306,0.085l-0.287-0.041c-0.064-0.009-0.299,0.045-0.707,0.159
			c-0.343,0.124-0.534,0.202-0.57,0.23c-0.393,0.014-0.661,0.061-0.802,0.145l-0.185-0.079c-0.065-0.009-0.158,0.013-0.278,0.064
			c-0.122,0.053-0.215,0.072-0.277,0.063l-1.055-0.15c-0.393,0.015-0.701,0.004-0.924-0.028l-0.191-0.027
			c-0.064-0.009-0.124-0.051-0.178-0.13c-0.096-0.014-0.234-0.016-0.414-0.007c-0.181,0.009-0.318,0.007-0.414-0.007
			c-0.352-0.051-0.604-0.104-0.76-0.161c-0.063-0.009-0.157-0.039-0.279-0.093c-0.123-0.05-0.231-0.084-0.328-0.098
			c-0.032-0.005-0.08-0.003-0.147,0.005c-0.066,0.008-0.116,0.009-0.147,0.004c-0.096-0.014-0.216-0.082-0.36-0.207
			c-0.146-0.125-0.25-0.191-0.314-0.2l-0.191-0.027c-0.191-0.028-0.387-0.143-0.585-0.345c-0.092-0.046-0.195-0.122-0.311-0.226
			c-0.115-0.103-0.19-0.157-0.221-0.162l-0.145-0.021c-0.026-0.037-0.081-0.115-0.162-0.231c-0.081-0.114-0.151-0.194-0.21-0.236
			c-0.258-0.245-0.386-0.384-0.381-0.419c-0.347-0.083-0.745-0.366-1.197-0.847c-0.061-0.042-0.13-0.123-0.211-0.238
			s-0.151-0.194-0.21-0.238c-0.189-0.269-0.297-0.439-0.317-0.513l-0.339-0.361c0.01-0.066-0.028-0.15-0.111-0.249
			c-0.084-0.098-0.118-0.198-0.104-0.3l-0.225-0.137c-0.095-0.256-0.213-0.627-0.353-1.114c-0.144-0.488-0.25-0.823-0.321-1.008
			c-0.112-0.362-0.194-0.808-0.249-1.334c-0.047-0.354-0.069-0.548-0.064-0.581l-0.14-0.385c0.005-0.033,0.033-0.566,0.083-1.599
			c-0.022-0.522-0.032-0.801-0.028-0.835c-0.012-0.139,0.009-0.345,0.064-0.613c0.055-0.27,0.089-0.455,0.104-0.558
			c0.01-0.068,0.009-0.181,0.001-0.338c-0.012-0.157-0.012-0.269-0.002-0.337s0.035-0.133,0.078-0.197
			c0.04-0.063,0.063-0.111,0.069-0.146c0.01-0.067,0.019-0.187,0.027-0.358c0.008-0.173,0.035-0.307,0.082-0.405l0.077-0.196
			c0.04-0.063,0.053-0.147,0.037-0.255l-0.021-0.21c0.154-0.395,0.256-0.639,0.301-0.736c0.047-0.098,0.087-0.255,0.118-0.478
			c0.032-0.221,0.077-0.42,0.135-0.604c0.059-0.182,0.144-0.316,0.253-0.404c0.054-0.373,0.237-0.746,0.552-1.117
			c0.152-0.601,0.366-0.969,0.646-1.103l0.015-0.101c-0.021-0.073-0.03-0.126-0.025-0.16c0.067-0.025,0.141-0.084,0.221-0.177
			c0.078-0.093,0.133-0.137,0.164-0.132c0.037-0.028,0.042-0.063,0.015-0.102c-0.026-0.039-0.037-0.074-0.032-0.108
			c0.068-0.025,0.134-0.076,0.192-0.154c0.062-0.077,0.124-0.13,0.194-0.154c0.064-0.232,0.214-0.472,0.443-0.716
			c0.231-0.244,0.372-0.431,0.423-0.563c0.64-0.602,0.981-0.934,1.022-0.997c0.069-0.024,0.327-0.127,0.777-0.305
			c0.068-0.023,0.175-0.086,0.32-0.188c0.144-0.099,0.267-0.16,0.367-0.18c0.031,0.004,0.09-0.005,0.176-0.028
			c0.084-0.021,0.142-0.03,0.175-0.025c0.03,0.004,0.149-0.031,0.356-0.105c0.206-0.074,0.374-0.103,0.501-0.084
			c0.036-0.03,0.13-0.112,0.28-0.246c0.147-0.134,0.29-0.209,0.423-0.225c0.068-0.024,0.233-0.044,0.497-0.06
			c0.262-0.014,0.432-0.067,0.512-0.159c0.121,0.051,0.344,0.101,0.663,0.146l0.239,0.034c0.064,0.01,0.141-0.015,0.23-0.071
			c0.089-0.057,0.165-0.08,0.23-0.071c0.661-0.077,1.012-0.132,1.048-0.161c0.06,0.043,0.138,0.072,0.233,0.086
			c0.191,0.027,0.36-0.018,0.508-0.136c0.068-0.025,0.198-0.024,0.391,0.003l0.622,0.09
			C46.711,133.702,46.857,133.707,46.958,133.687z M46.698,136.87c-0.072,0.267-0.263,0.465-0.574,0.593l-0.037,0.256l-0.157,0.08
			c-0.02,0.137-0.067,0.242-0.145,0.316c-0.075,0.076-0.16,0.16-0.254,0.25c-0.096,0.09-0.163,0.167-0.205,0.229
			c-0.005,0.035,0.003,0.089,0.026,0.16c0.021,0.073,0.03,0.127,0.025,0.159l-0.104,0.038c-0.1,0.02-0.17,0.046-0.205,0.074
			l-0.044,0.305c-0.059,0.408-0.3,0.841-0.724,1.3l-0.029,0.204c-0.015,0.102-0.045,0.262-0.094,0.479
			c-0.048,0.22-0.078,0.379-0.092,0.48c-0.029,0.204-0.027,0.413,0.008,0.624c-0.101,0.021-0.161,0.1-0.18,0.235
			c-0.005,0.033-0.01,0.067-0.015,0.102c-0.005,0.033-0.045,0.08-0.118,0.139c-0.047,0.097-0.088,0.214-0.122,0.346
			c-0.036,0.134-0.059,0.235-0.068,0.303c0.081,0.115,0.106,0.275,0.077,0.479s-0.122,0.398-0.279,0.584
			c0.036,0.212,0.045,0.369,0.03,0.472c-0.024,0.171-0.087,0.386-0.19,0.647c-0.005,0.035,0.021,0.09,0.074,0.167
			c0.055,0.077,0.06,0.147,0.02,0.211c-0.095,0.194-0.179,0.563-0.256,1.105c-0.029,0.204-0.066,0.52-0.11,0.946
			c-0.046,0.427-0.083,0.74-0.112,0.944l-0.044,0.306c-0.005,0.034,0.003,0.096,0.023,0.185c0.018,0.089,0.026,0.152,0.021,0.186
			c0.031,0.247,0.021,0.592-0.025,1.036c-0.047,0.443-0.066,0.752-0.059,0.926l0.078,0.479c0.054,0.527,0.122,0.849,0.203,0.965
			c0.082,0.115,0.239,0.26,0.477,0.432c0.063,0.009,0.118,0.034,0.16,0.075c0.044,0.04,0.08,0.063,0.112,0.068
			c0.059,0.043,0.12,0.068,0.185,0.078c0.031,0.004,0.114-0.001,0.246-0.017c0.133-0.016,0.229-0.002,0.287,0.041
			c0.496-0.275,0.878-0.446,1.148-0.512c0.042-0.063,0.112-0.156,0.212-0.281c0.1-0.123,0.186-0.215,0.259-0.275
			c0.079-0.092,0.177-0.269,0.296-0.528c0.118-0.26,0.201-0.438,0.248-0.535l0.18-0.234c0.041-0.063,0.078-0.146,0.109-0.245
			c0.03-0.099,0.066-0.181,0.107-0.243c0.235-0.278,0.36-0.469,0.374-0.57c0.016-0.102,0.008-0.172-0.018-0.21
			c0.077-0.093,0.172-0.235,0.282-0.428c0.108-0.193,0.183-0.32,0.225-0.383l-0.02-0.211c0.015-0.102,0.063-0.216,0.147-0.344
			c0.083-0.125,0.128-0.206,0.133-0.24s0.016-0.11,0.032-0.229c0.018-0.118,0.046-0.208,0.089-0.273
			c0.009-0.067,0.034-0.132,0.076-0.195c0.041-0.063,0.065-0.112,0.07-0.146l0.109-0.764c0.055-0.164,0.149-0.42,0.28-0.765
			s0.203-0.569,0.218-0.67c0.122-0.398,0.148-0.982,0.081-1.755c-0.07-0.772-0.079-1.328-0.03-1.667
			c-0.072-0.184-0.104-0.474-0.095-0.871c0.007-0.396,0.002-0.648-0.015-0.756c-0.146-0.574-0.209-0.93-0.189-1.065
			c-0.281-0.768-0.421-1.273-0.418-1.515c-0.119-0.087-0.285-0.23-0.5-0.436c-0.215-0.204-0.398-0.352-0.548-0.442
			C47.172,136.973,46.952,136.906,46.698,136.87z"/>
		<path fill="#231F20" d="M73.69,139.488c0.159,0.022,0.293,0.111,0.401,0.265l0.239,0.034c0.319,0.046,0.587,0.223,0.805,0.531
			l0.383,0.055c0.135,0.193,0.164,0.335,0.085,0.428c0.027,0.039,0.057,0.061,0.088,0.065l0.089,0.063
			c-0.073,0.059-0.113,0.106-0.117,0.14c-0.006,0.034,0.014,0.071,0.057,0.111c0.043,0.041,0.063,0.08,0.059,0.112
			c-0.005,0.034-0.029,0.084-0.071,0.146c-0.041,0.063-0.066,0.129-0.076,0.197l0.361,0.207c-0.005,0.034,0.009,0.166,0.041,0.396
			s0.038,0.413,0.019,0.549c-0.023,0.17-0.106,0.296-0.249,0.379l0.078,0.479l-0.063,0.095l-0.063,0.096
			c-0.039,0.272-0.108,0.418-0.209,0.438c0.066,0.216,0.049,0.336-0.052,0.355c0.026,0.04,0.032,0.109,0.018,0.211
			c-0.023,0.17-0.12,0.277-0.289,0.321c0.054,0.077,0.13,0.227,0.229,0.449c-0.078,0.093-0.134,0.258-0.168,0.494
			c-0.034,0.238-0.104,0.384-0.21,0.438c-0.015,0.103-0.011,0.189,0.012,0.262c-0.229,0.244-0.35,0.399-0.359,0.468
			c-0.043,0.063-0.056,0.147-0.037,0.255c0.017,0.106,0.022,0.177,0.019,0.21c-0.01,0.068-0.033,0.117-0.069,0.146
			c-0.005,0.035,0.02,0.089,0.074,0.167c-0.295,0.235-0.459,0.35-0.49,0.346c-0.01,0.068,0.008,0.122,0.051,0.163
			s0.062,0.078,0.057,0.112c-0.005,0.033-0.033,0.064-0.086,0.091c-0.053,0.027-0.066,0.061-0.039,0.1
			c0.044,0.144,0.062,0.251,0.052,0.319c-0.01,0.067-0.069,0.196-0.178,0.389c-0.109,0.193-0.171,0.341-0.186,0.441l-0.021,0.153
			c-0.005,0.034-0.032,0.056-0.083,0.065c-0.05,0.011-0.063,0.035-0.035,0.073c0.026,0.038,0.026,0.16-0.003,0.363l0.026,0.159
			c-0.034,0.238-0.093,0.421-0.176,0.547c-0.138,0.499-0.258,0.777-0.363,0.83c0.054,0.078,0.078,0.133,0.073,0.168
			c-0.147,0.117-0.23,0.244-0.249,0.379c-0.005,0.035,0.006,0.071,0.032,0.108c-0.181,0.355-0.346,0.593-0.492,0.709
			c-0.005,0.034-0.01,0.068-0.015,0.102c-0.005,0.034-0.01,0.068-0.015,0.102l-0.213,0.126l-0.037,0.255
			c0.026,0.038,0.015,0.071-0.038,0.099c-0.053,0.026-0.082,0.058-0.087,0.091l-0.021,0.152c-0.12,0.156-0.215,0.247-0.283,0.271
			c0.054,0.077,0.042,0.161-0.036,0.255c-0.078,0.093-0.104,0.159-0.077,0.196c-0.037,0.03-0.07,0.095-0.102,0.194
			c-0.031,0.099-0.08,0.161-0.148,0.187c0.026,0.039,0.017,0.106-0.029,0.203l-0.055,0.044c-0.024,0.17-0.056,0.27-0.093,0.299
			c-0.073,0.059-0.126,0.085-0.157,0.081c-0.042,0.063-0.081,0.162-0.115,0.295c-0.037,0.134-0.091,0.229-0.163,0.289
			c-0.165,0.01-0.263,0.118-0.292,0.322c-0.005,0.034-0.01,0.068-0.014,0.102l0.033,0.108c-0.043,0.063-0.152,0.151-0.331,0.264
			l-0.029,0.203c-0.068,0.025-0.146,0.102-0.228,0.229c-0.083,0.126-0.177,0.199-0.277,0.22l-0.015,0.102
			c-0.029,0.204-0.144,0.326-0.345,0.366c-0.01,0.068-0.002,0.123,0.026,0.159c0.026,0.04,0.037,0.076,0.032,0.109
			c-0.01,0.067-0.076,0.137-0.199,0.206c-0.125,0.068-0.191,0.137-0.201,0.204c-0.037,0.029-0.07,0.086-0.097,0.169
			c-0.028,0.082-0.069,0.146-0.125,0.189c-0.055,0.044-0.117,0.078-0.187,0.103c-0.01,0.068-0.068,0.139-0.176,0.209
			c-0.108,0.071-0.17,0.158-0.185,0.26c-0.068,0.023-0.185,0.095-0.347,0.209c-0.164,0.116-0.293,0.167-0.389,0.153l-0.096-0.014
			c-0.036,0.029-0.065,0.111-0.085,0.246c-0.073,0.061-0.211,0.109-0.412,0.149c-0.147,0.119-0.29,0.202-0.426,0.251l-0.317,0.162
			c-0.037,0.03-0.12,0.035-0.247,0.017c-0.037,0.029-0.152,0.101-0.347,0.21c-0.196,0.111-0.343,0.177-0.443,0.197l-0.145-0.021
			c-0.031-0.004-0.11-0.023-0.236-0.061c-0.125-0.034-0.22-0.056-0.283-0.065c-0.128-0.019-0.226-0.015-0.294,0.01
			c-0.032-0.005-0.099,0.004-0.199,0.023c-0.101,0.021-0.167,0.028-0.198,0.023c-0.165,0.011-0.424-0.009-0.774-0.059
			c-0.096-0.014-0.236-0.06-0.421-0.139c-0.184-0.078-0.34-0.126-0.467-0.145c-0.032-0.005-0.093,0.013-0.18,0.053
			c-0.086,0.039-0.146,0.057-0.178,0.052c-0.133,0.016-0.374-0.002-0.726-0.052c-0.256-0.037-0.429-0.079-0.52-0.126
			c-0.055-0.077-0.113-0.12-0.177-0.13c-0.033-0.004-0.109-0.032-0.232-0.085c-0.122-0.052-0.2-0.08-0.232-0.085
			s-0.098-0.058-0.197-0.159c-0.101-0.1-0.179-0.173-0.237-0.215c-0.055-0.078-0.079-0.133-0.074-0.167
			c-0.064-0.009-0.13-0.062-0.197-0.158c-0.068-0.095-0.148-0.15-0.244-0.164c-0.056-0.077-0.108-0.162-0.16-0.257
			c-0.052-0.094-0.119-0.189-0.202-0.289c-0.084-0.098-0.14-0.166-0.166-0.205c-0.08-0.357-0.176-0.597-0.289-0.717l0.021-0.153
			c-0.179-0.337-0.287-0.613-0.321-0.825c-0.022-0.072-0.039-0.179-0.052-0.318c-0.013-0.141-0.029-0.247-0.052-0.319
			c0.005-0.034-0.014-0.08-0.054-0.138c-0.041-0.059-0.072-0.123-0.095-0.195c-0.027-0.039-0.04-0.118-0.038-0.24
			c0-0.12,0.004-0.198,0.009-0.231c-0.022-0.073-0.06-0.156-0.112-0.25c-0.051-0.095-0.075-0.157-0.07-0.192l0.029-0.203
			c-0.062-0.251-0.101-0.432-0.118-0.537c-0.112-0.361-0.154-0.627-0.13-0.799l0.015-0.102c-0.144-0.366-0.197-0.668-0.163-0.906
			l0.021-0.152c0.005-0.034-0.008-0.061-0.037-0.082c-0.029-0.022-0.042-0.051-0.037-0.084c0.02-0.136,0.007-0.338-0.036-0.603
			c-0.044-0.267-0.058-0.451-0.043-0.553l0.015-0.102c-0.039-0.179-0.17-0.977-0.391-2.394l-0.066-0.218l0.059-0.406
			c-0.086-0.532-0.104-0.984-0.05-1.357l0.022-0.153l0.007-0.051l-0.033-0.108c-0.018-0.107,0.005-0.269,0.069-0.484
			c0.063-0.217,0.087-0.378,0.069-0.483c0.005-0.034-0.005-0.087-0.027-0.16l0.044-0.305c0.02-0.136,0.015-0.327-0.016-0.574
			c-0.029-0.247-0.037-0.421-0.022-0.522l0.021-0.153c-0.054-0.077-0.081-0.228-0.08-0.453c-0.002-0.226-0.028-0.375-0.083-0.453
			l0.102-0.713c0.02-0.135,0.026-0.29,0.02-0.464c-0.01-0.176-0.008-0.296,0.002-0.364c0.005-0.033,0.029-0.091,0.074-0.171
			c0.043-0.081,0.052-0.14,0.025-0.179l-0.034-0.109c0.01-0.066,0.017-0.119,0.022-0.152c0.009-0.068,0.114-0.451,0.312-1.149
			c0.01-0.067,0.019-0.188,0.026-0.36s0.018-0.291,0.027-0.361l0.007-0.049l0.057-0.045c0.031,0.004,0.033-0.012,0.007-0.051
			c-0.028-0.038-0.025-0.055,0.008-0.05c0.045-0.099,0.124-0.252,0.236-0.461c0.11-0.209,0.192-0.379,0.243-0.511l0.763-0.203
			c0.032,0.005,0.135-0.031,0.31-0.111c0.174-0.078,0.295-0.13,0.363-0.155l0.288,0.042c0.064,0.009,0.162,0.006,0.294-0.01
			c0.133-0.016,0.215-0.022,0.248-0.018c0.132-0.016,0.335-0.073,0.61-0.172c0.059,0.043,0.137,0.071,0.232,0.085
			c0.064,0.009,0.161,0.015,0.291,0.015c0.13,0.003,0.243,0.01,0.339,0.023l0.04,0.058c-0.01,0.069,0.018,0.106,0.081,0.115
			c0.032,0.005,0.066-0.007,0.104-0.036c0.036-0.029,0.088-0.04,0.151-0.031c0.022,0.074,0.113,0.12,0.272,0.144
			c0.159,0.022,0.231,0.086,0.217,0.188c0.032,0.004,0.086,0.029,0.161,0.074c0.074,0.046,0.129,0.07,0.16,0.075
			c0.071,0.185,0.086,0.307,0.045,0.37c0.081,0.115,0.119,0.19,0.114,0.225c0.096,0.014,0.216,0.082,0.361,0.207l-0.022,0.152
			c-0.053,0.374-0.1,0.592-0.143,0.655c0.1,0.222,0.134,0.435,0.104,0.638l-0.022,0.153c0.027,0.039,0.07,0.08,0.129,0.123
			c0.061,0.043,0.087,0.081,0.082,0.114c-0.024,0.171-0.058,0.287-0.099,0.351c-0.005,0.033,0.012,0.089,0.05,0.163
			s0.052,0.146,0.042,0.213c0.189,0.271,0.276,0.698,0.257,1.284c0.022,0.073,0.009,0.114-0.043,0.124
			c-0.049,0.011-0.077,0.032-0.082,0.065l0.081,0.116c0.054,0.077,0.071,0.132,0.05,0.162c-0.021,0.033-0.052,0.08-0.094,0.144
			c0.135,0.192,0.263,0.332,0.38,0.418c-0.044,0.306,0.008,0.52,0.153,0.646l-0.015,0.102c-0.029,0.204-0.027,0.411,0.008,0.624
			c0.031,0.004,0.079,0.012,0.143,0.021c0.064,0.009,0.093,0.031,0.089,0.065c0.099,0.222,0.144,0.366,0.134,0.435
			c0.081,0.115,0.153,0.29,0.218,0.524s0.123,0.391,0.178,0.467c-0.044,0.306-0.052,0.479-0.025,0.517
			c-0.041,0.063-0.071,0.154-0.088,0.272c-0.018,0.12-0.061,0.192-0.129,0.215c-0.005,0.035,0.033,0.109,0.114,0.225
			c-0.041,0.065-0.072,0.163-0.091,0.299c-0.063,0.441-0.117,0.694-0.157,0.757c0.021,0.073,0.054,0.138,0.095,0.195
			c0.04,0.059,0.058,0.104,0.053,0.138c-0.041,0.064-0.074,0.18-0.098,0.35c-0.059,0.408,0.061,0.823,0.357,1.247
			c-0.005,0.034,0,0.121,0.013,0.261c0.013,0.141,0.016,0.229,0.011,0.262c-0.005,0.034,0,0.113,0.016,0.235
			c0.015,0.124,0.022,0.229,0.027,0.315c0.004,0.088,0.02,0.151,0.047,0.189c-0.01,0.068,0.013,0.131,0.07,0.191
			c0.057,0.061,0.096,0.126,0.117,0.199c0.049,0.11,0.076,0.271,0.078,0.479c0.004,0.209,0.014,0.365,0.03,0.472
			c0.069-0.024,0.127-0.094,0.178-0.209c0.048-0.112,0.091-0.246,0.13-0.396c0.037-0.151,0.077-0.259,0.118-0.321
			c0.005-0.034,0.044-0.08,0.117-0.139c0.157-0.636,0.306-1.101,0.444-1.392c0.125-0.19,0.19-0.302,0.195-0.337
			c0.004-0.032,0.094-0.314,0.268-0.845l0.201-0.385c0.041-0.064,0.119-0.209,0.233-0.436c0.113-0.225,0.196-0.404,0.249-0.535
			l0.2-0.388c0.01-0.067,0.033-0.177,0.072-0.327c0.037-0.151,0.077-0.257,0.118-0.32c0.005-0.033,0.045-0.081,0.119-0.139
			l0.021-0.153c0.024-0.17,0.075-0.301,0.154-0.394c0.02-0.136,0.014-0.205-0.019-0.21c0.042-0.063,0.082-0.188,0.126-0.372
			c0.043-0.184,0.102-0.307,0.175-0.364c0.015-0.103,0.057-0.227,0.127-0.372c0.069-0.146,0.111-0.27,0.126-0.371
			c0.031,0.004,0.051-0.02,0.059-0.069c0.007-0.052,0.04-0.055,0.1-0.013c-0.028-0.038-0.031-0.125-0.012-0.261
			c0.039-0.271,0.143-0.43,0.313-0.476c0.005-0.033-0.007-0.068-0.034-0.108l-0.039-0.059c0.046-0.097,0.11-0.26,0.192-0.491
			c0.081-0.229,0.161-0.392,0.24-0.485c0.041-0.063,0.099-0.124,0.172-0.183c0.005-0.033,0.014-0.094,0.025-0.179
			c0.012-0.084,0.039-0.149,0.078-0.196c0.039-0.046,0.09-0.064,0.154-0.056l0.015-0.103c0.044-0.306,0.163-0.564,0.356-0.779
			c0.019-0.136-0.001-0.225-0.06-0.27c0.14-0.292,0.283-0.495,0.43-0.613c0.036-0.029,0.098-0.063,0.187-0.104
			c0.086-0.039,0.148-0.082,0.189-0.128c0.039-0.047,0.065-0.121,0.08-0.223c0.201-0.04,0.33-0.143,0.387-0.309
			c0.164-0.011,0.339-0.088,0.522-0.237l0.192,0.027c0.031,0.005,0.089-0.056,0.172-0.183c0.599-0.087,0.921-0.179,0.968-0.276
			l0.311-0.112c0.031,0.004,0.08,0.003,0.146-0.004C73.609,139.485,73.658,139.483,73.69,139.488z M69.617,144.723
			c0.032,0.005,0.062,0.027,0.089,0.065C69.673,144.784,69.645,144.763,69.617,144.723z"/>
		<path fill="#231F20" d="M86.032,140.319l0.145,0.021c0.351,0.051,0.553,0.114,0.607,0.191c0.101-0.019,0.264-0.014,0.486,0.019
			c0.128,0.019,0.303,0.052,0.523,0.101c0.222,0.049,0.363,0.077,0.428,0.086c0.096,0.014,0.241,0.027,0.435,0.038
			c0.194,0.011,0.338,0.022,0.435,0.036c0.031,0.004,0.077,0.029,0.137,0.07c0.058,0.044,0.104,0.067,0.136,0.072
			c0.031,0.004,0.089,0.005,0.172-0.002c0.081-0.006,0.153-0.004,0.218,0.005c0.033,0.005,0.19,0.036,0.476,0.095
			s0.502,0.132,0.652,0.224c0.064,0.009,0.114-0.001,0.151-0.03l0.096,0.014c0.113,0.119,0.249,0.191,0.409,0.215l0.191,0.027
			c0.063,0.009,0.177,0.017,0.339,0.021c0.161,0.006,0.292,0.016,0.388,0.029l0.143,0.021c0.064,0.01,0.219,0.066,0.465,0.171
			c0.4,0.161,0.665,0.355,0.796,0.581c0.026,0.04,0.079,0.134,0.155,0.282c0.076,0.149,0.142,0.264,0.196,0.34
			c0.026,0.039,0.065,0.106,0.117,0.199c0.053,0.095,0.089,0.178,0.112,0.249l-0.041,0.618c-0.117,0.364-0.293,0.685-0.528,0.963
			c-0.194,0.216-0.375,0.345-0.545,0.39c-0.068,0.024-0.185,0.044-0.349,0.054c-0.165,0.012-0.281,0.03-0.351,0.055
			c-0.137,0.05-0.271,0.064-0.397,0.047c-0.064-0.01-0.155-0.057-0.273-0.144c-0.216,0.144-0.595,0.175-1.138,0.098l-0.957-0.138
			c-0.129-0.018-0.354-0.041-0.674-0.071c-0.323-0.028-0.579-0.056-0.771-0.083l-0.336-0.048c-0.122-0.052-0.282-0.075-0.479-0.069
			c-0.096-0.014-0.214-0.039-0.355-0.077c-0.141-0.036-0.243-0.061-0.308-0.069s-0.153-0.013-0.267-0.014
			c-0.115,0.002-0.204-0.002-0.268-0.011c-0.063-0.01-0.15-0.03-0.259-0.064c-0.11-0.031-0.182-0.051-0.213-0.055
			c-0.16-0.023-0.275-0.006-0.35,0.054c0.021,0.072,0.024,0.176,0.005,0.311c-0.206,0.076-0.329,0.128-0.365,0.156
			c0.026,0.039,0.028,0.144,0.004,0.313l-0.092,0.299c-0.01,0.068-0.051,0.133-0.125,0.19c-0.073,0.059-0.112,0.105-0.117,0.139
			c0.026,0.039,0.021,0.073-0.015,0.102l0.089,0.065c0.031,0.005,0.045,0.023,0.04,0.057c0.003,0.209-0.034,0.637-0.109,1.284
			c-0.077,0.646-0.09,1.129-0.037,1.448c-0.135,0.259-0.224,0.419-0.265,0.482c0.021,0.073,0.065,0.113,0.13,0.123
			c0.063,0.009,0.094,0.029,0.088,0.064c-0.038,0.271-0.082,0.455-0.129,0.552c0.072,0.185,0.094,0.378,0.064,0.581
			c-0.034,0.238-0.148,0.465-0.342,0.679c-0.01,0.068-0.027,0.144-0.057,0.226c-0.028,0.083-0.045,0.142-0.05,0.175
			c-0.029,0.204-0.053,0.486-0.072,0.847c-0.019,0.361-0.038,0.611-0.057,0.746c-0.024,0.17-0.061,0.303-0.107,0.399
			c0.172,0.163,0.308,0.356,0.405,0.579c0.096,0.014,0.242,0.025,0.436,0.035c0.193,0.011,0.323,0.02,0.388,0.029
			c0.158,0.022,0.329,0.082,0.511,0.177c0.329-0.021,0.59-0.019,0.781,0.009l0.472,0.12c0.026,0.037,0.115,0.103,0.266,0.193
			c0.15,0.09,0.236,0.172,0.258,0.244l0.191,0.027c0.027,0.04,0.125,0.156,0.292,0.354s0.312,0.323,0.436,0.374
			c-0.016,0.102,0.034,0.213,0.147,0.332c-0.073,0.061-0.096,0.161-0.067,0.303c0.028,0.144,0.039,0.232,0.035,0.266l-0.015,0.102
			l-0.221,0.176c-0.01,0.068-0.064,0.166-0.163,0.289c-0.1,0.124-0.156,0.236-0.171,0.338c-0.037,0.031-0.104,0.038-0.199,0.024
			c-0.052,0.132-0.155,0.29-0.313,0.475l-0.692,0.057c-0.064-0.009-0.162-0.005-0.294,0.01c-0.074,0.06-0.143,0.083-0.207,0.074
			c-0.096-0.014-0.205-0.046-0.327-0.098c-0.124-0.053-0.232-0.087-0.328-0.101l-0.487-0.017l-0.143-0.021
			c-0.064-0.009-0.148-0.038-0.256-0.09c-0.107-0.048-0.177-0.076-0.209-0.081c-0.096-0.014-0.161-0.005-0.198,0.023
			c-0.11,0.088-0.186,0.269-0.224,0.54c-0.005,0.034-0.022,0.1-0.053,0.199c-0.031,0.1-0.052,0.184-0.061,0.252
			c-0.02,0.136-0.031,0.324-0.033,0.567c-0.003,0.241-0.01,0.414-0.024,0.516l-0.08,0.561c0.091,0.047,0.332,0.176,0.727,0.389
			c0.393,0.212,0.659,0.398,0.8,0.556c0.063,0.01,0.112,0.009,0.146-0.004s0.068-0.017,0.1-0.012
			c0.272,0.144,0.601,0.241,0.984,0.296c0.287,0.041,0.658,0.062,1.115,0.057c0.031,0.004,0.102,0.085,0.211,0.238
			c0.096,0.014,0.299,0.016,0.61,0.009c0.31-0.007,0.545,0.001,0.704,0.023c0.224,0.032,0.392,0.107,0.505,0.229
			c0.042-0.063,0.123-0.061,0.243,0.008c0.12,0.069,0.196,0.106,0.229,0.111l0.097,0.014c0.026,0.038,0.053,0.077,0.081,0.116
			l0.089,0.063l0.408,0.214c0.098,0.223,0.138,0.402,0.118,0.537c0.026,0.039,0.083,0.107,0.166,0.205
			c0.084,0.099,0.14,0.169,0.166,0.205c0.055,0.079,0.06,0.27,0.016,0.575c-0.039,0.271-0.097,0.454-0.176,0.546l-0.158,0.081
			c-0.272,0.308-0.493,0.483-0.661,0.528l-0.461,0.143l-0.239-0.034c-0.096-0.014-0.215,0.013-0.354,0.08
			c-0.141,0.066-0.242,0.095-0.307,0.085c-0.063-0.009-0.126-0.025-0.188-0.053c-0.062-0.025-0.107-0.041-0.139-0.046
			c-0.033-0.004-0.104,0.037-0.215,0.125c-0.096-0.014-0.238,0.018-0.429,0.095s-0.336,0.125-0.437,0.146
			c-0.063-0.01-0.208-0.021-0.435-0.037c-0.226-0.015-0.405-0.015-0.537,0.002c-0.266,0.031-0.525,0.028-0.781-0.008
			c-0.191-0.027-0.316-0.063-0.375-0.106l-0.151,0.031c-0.069,0.023-0.122,0.051-0.159,0.081c-0.059-0.044-0.151-0.074-0.279-0.092
			c-0.063-0.01-0.161-0.016-0.291-0.016c-0.129-0.002-0.228-0.008-0.291-0.017c-0.032-0.005-0.08-0.011-0.144-0.021l-0.041-0.058
			c-0.031-0.005-0.08-0.003-0.146,0.005s-0.116,0.01-0.148,0.005c-0.101,0.02-0.31,0.007-0.629-0.038l-0.67-0.096
			c-0.139,0.049-0.223,0.071-0.255,0.066c-0.101,0.021-0.247,0.017-0.438-0.011c-0.287-0.041-0.492-0.087-0.615-0.14l-0.261,0.118
			c-0.16-0.023-0.394-0.038-0.702-0.048s-0.542-0.025-0.702-0.049c-0.191-0.027-0.349-0.067-0.472-0.119
			c-0.054-0.078-0.217-0.188-0.489-0.329c-0.273-0.144-0.43-0.305-0.469-0.483c-0.064-0.01-0.145-0.073-0.242-0.191
			s-0.191-0.2-0.282-0.248c-0.034-0.212-0.182-0.433-0.442-0.66c-0.261-0.227-0.418-0.38-0.473-0.457
			c0.02-0.136-0.029-0.247-0.147-0.333c0.01-0.068,0.014-0.146,0.009-0.233c-0.004-0.086-0.002-0.146,0.003-0.181
			c-0.114-0.121-0.247-0.329-0.399-0.63c-0.022-0.07-0.014-0.139,0.029-0.203l0.007-0.051c-0.18-0.337-0.253-0.624-0.22-0.862
			l0.016-0.103c-0.072-0.183-0.105-0.517-0.101-1.001c0.004-0.484-0.046-0.82-0.149-1.009l0.015-0.102
			c0.01-0.067-0.006-0.191-0.045-0.37c-0.039-0.178-0.054-0.302-0.044-0.37l0.076-0.196c-0.094-0.256-0.118-0.537-0.074-0.843
			c0.029-0.203,0.055-0.441,0.078-0.716c0.022-0.273,0.042-0.583,0.06-0.927c0.016-0.344,0.039-0.617,0.068-0.821l0.175-1.222
			c0.02-0.136,0.063-0.329,0.132-0.578c0.067-0.252,0.11-0.427,0.124-0.528c0.01-0.067,0.02-0.188,0.027-0.36
			c0.008-0.171,0.02-0.309,0.034-0.41c0.024-0.169,0.06-0.303,0.106-0.4c-0.027-0.038-0.024-0.056,0.008-0.051l0.103-0.037
			c0.001-1.143,0.033-1.936,0.096-2.376c0.015-0.103,0.073-0.284,0.177-0.547l-0.048-0.007c-0.063-0.01-0.094-0.03-0.089-0.064
			c0.029-0.203,0.084-0.533,0.167-0.989c0.081-0.455,0.139-0.803,0.173-1.04c0.004-0.033,0.006-0.103,0.006-0.208
			c-0.003-0.104,0.002-0.188,0.012-0.258c0.02-0.135,0.084-0.247,0.194-0.335l-0.04-0.058c-0.064-0.009-0.076-0.046-0.034-0.108
			c0.213-0.802,0.375-1.592,0.486-2.373c0.037-0.029,0.091-0.064,0.162-0.106s0.125-0.078,0.162-0.107
			c-0.022-0.072-0.052-0.093-0.089-0.064c-0.037,0.03-0.068,0.026-0.096-0.014c0.029-0.203,0.109-0.426,0.242-0.667
			c0.132-0.24,0.222-0.409,0.268-0.507c0.032,0.005,0.077-0.022,0.135-0.084s0.118-0.087,0.182-0.078
			c0.084-0.126,0.266-0.265,0.549-0.415c0.282-0.149,0.464-0.288,0.548-0.415c0.032,0.004,0.263-0.015,0.692-0.057
			c0.191,0.027,0.331-0.039,0.42-0.2c0.026,0.039,0.072,0.063,0.136,0.072c0.063,0.01,0.173-0.01,0.327-0.058
			c0.152-0.048,0.245-0.068,0.277-0.064c0.101-0.021,0.246-0.017,0.438,0.011s0.378,0.09,0.561,0.185
			c0.064,0.009,0.154,0.004,0.271-0.013c0.116-0.019,0.224-0.029,0.321-0.032c0.099-0.003,0.195,0.002,0.291,0.016
			c0.031,0.005,0.077,0.029,0.138,0.07l0.096,0.014c0.063,0.01,0.161,0.007,0.294-0.009s0.246-0.017,0.342-0.003l0.185,0.079
			c0.127,0.018,0.297,0.024,0.51,0.02c0.212-0.003,0.367,0.001,0.463,0.015l0.144,0.021L86.032,140.319z"/>
	</g>
</g>
</svg>
