<?xml version="1.0" encoding="utf-8"?>
<!-- Generator: Adobe Illustrator 16.0.0, SVG Export Plug-In . SVG Version: 6.00 Build 0)  -->
<!DOCTYPE svg PUBLIC "-//W3C//DTD SVG 1.1//EN" "http://www.w3.org/Graphics/SVG/1.1/DTD/svg11.dtd">
<svg version="1.1" id="Layer_1" xmlns="http://www.w3.org/2000/svg" xmlns:xlink="http://www.w3.org/1999/xlink" x="0px" y="0px"
	 width="92.137px" height="93.007px" viewBox="0 0 92.137 93.007" enable-background="new 0 0 92.137 93.007" xml:space="preserve">
<g id="Layer_2">
</g>
<g>
	<path fill="#FFFFFF" d="M23.64,10.303C24.546,6.7,34.049,0.174,38.232,0.007c5.994-0.24,8.142,5.884,13.314,8.005
		c6.448,2.642,10.844-2.29,17.195,0.546c6.907,3.087,3.729,9.577,7.422,14.461c4.197,5.553,11.287,2.886,14.547,9.843
		c3.215,6.861,0.509,12.046-3.279,17.843c-5.498,8.416-5.476,28.084-17.434,30.41c-1.58,6.725-6.988,10.991-13.801,11.783
		c-7.684,0.895-9.826-3.979-17.208-5.283c-8.618-1.521-18.433,4.432-24.145-3.802c-1.518-2.187-0.987-6.017-1.723-8.396
		c-1.353-4.369-6.568-6.773-8.688-10.383C-2.645,53,0.071,48.755,3.492,36.753c2.583-9.076,2.44-11.647,9.695-16.175
		C18.789,17.085,23.64,10.303,23.64,10.303z"/>
	<path fill="#8A5D3B" d="M79.054,35.269c-8.665-0.857-4.781-2.721-7.418-5.648c-3.177-3.532,1.072-4.515-5.446-11.193
		c-6.413-6.567-9.74-0.931-14.021-0.871c-4.928,0.066-12.012-5.283-17.071-5.279l-1.431-1.758
		c-1.837,0.454-3.564,4.908-4.447,10.506c-3.389,0.608-6.483,1.996-3.709,5.599c0,0-8.175-3.971-12.959,1.938
		c-1.743,2.15-2.059,4.532-0.471,7.25c1.137,1.938,4.397,2.877,4.642,5.334c-2.607,1.074-9.028,8.556-9.271,9.168
		c-2.188,5.55,3.229,5.942,7.013,9.817c1.514,1.548,1.773,1.304,3.604,2.871c1.898,1.629,4.806,1.275,5.189,3.904
		c0.013,0.102-2.252,3.346-2.306,4.25c-0.147,2.471,1.072,3.875,2.812,4.914c4.822,2.887,5.703,1.176,9.098-0.794
		c3.8-2.206,3.245-4.208,5.828-1.584c1.451,1.474,2.33,2.244,3.95,3.339c0.695,0.469,2.29,0.471,3.109,1.182
		c0.854,0.736,0.322,2.522,1.122,3.392c1.812,1.972,7.522,4.614,8.42,3.34c1.982,0.269,5.873-3.157,7.93-6.409
		c2.737-4.318-1.31-4.804,3.346-6.834c2.623-1.146,9.146-1.844,9.953-4.896c0.599-2.256,0.234-3.042,0.38-5.313
		c0.188-2.92,1.284-4.359,2.464-6.779c0.879-1.801,1.982-4.688,3.072-6.471C84.986,44.062,83.923,40.007,79.054,35.269z"/>
	<path fill="#8A5D3B" d="M7.451,50.313C6.08,51.81,6.48,59.063,8.649,61.729c1.303,1.603,13.571,9.758,15.815,8.31
		c4.901-3.162-10.71-18.443-16.217-16.601L7.451,50.313z"/>
	<path fill="#8A5D3B" d="M22.799,75.404c6.073,4.801,8.521,5.32,13.318,4.219c2.316-0.531,2.234-4.752,6.48-3.994
		c0.086-2.971-2.516-6.519-5.55-7.068C33.956,67.996,24.144,73.014,22.799,75.404z"/>
	<path fill="#8A5D3B" d="M11.192,33.61c0,5.88,1.859,7.492,3.376,9.021c1.678,1.688,8.384-6.052,12.626-5.296
		c0.086-2.973-0.066-5.999-3.101-6.552C21.001,30.222,12.536,31.22,11.192,33.61z"/>
	<path fill="#C3996B" d="M25.511,26.623c-2.774-3.603,0.32-4.99,3.709-5.599c0.883-5.598-2.01-11.291,7.714-12.005
		c4.767-0.351,2.915,4.747,6.932,5.274c0.889,0.118,3.757,0.275,4.544,0.532c2.295,0.751,2.713,1.879,5.324,1.754
		c3.834-0.185,6.683-3.298,9.452,1.794c1.628,2.992-0.177,6.119,1.344,8.74c1.498,2.575,4.025,4.08,6.112,5.535
		c2.887,2.017,8.916,0.545,9.563,4.628c0.57,3.614-3.674,5.612-4.644,9.008c-0.442,1.559,0.605,3.572-0.096,5.264
		c-0.723,1.736-0.588,3.287-1.6,4.676c-2.14,2.931,2.748,5.08-1.155,9.031c-3.106,3.147-9.311,0.953-12.012,4.734
		c-0.307,2.329-0.24,4.537-2.995,4.872c-0.331,3.603-1.488,8.242-5.994,8.841c-2.742,0.362-3.028-0.129-4.84-2.1
		c-0.8-0.868-0.268-2.654-1.122-3.393c-0.819-0.709-2.414-0.711-3.109-1.182c-1.62-1.094-2.499-1.865-3.95-3.338
		c-2.583-2.624-2.028-0.622-5.828,1.584c-3.395,1.971-4.274,3.682-9.098,0.794c-1.738-1.04-2.959-2.442-2.812-4.914
		c0.054-0.903,2.317-4.147,2.306-4.25c-0.385-2.629-3.291-2.276-5.189-3.905c-1.83-1.566-2.091-1.322-3.604-2.869
		c-3.784-3.875-9.2-4.271-7.013-9.818c0.243-0.613,6.664-8.094,9.271-9.168c-0.243-2.457-3.505-3.396-4.642-5.334
		c-1.588-2.718-1.272-5.1,0.471-7.25C17.336,22.652,25.511,26.623,25.511,26.623z"/>
	<g>
		<g>
			<path fill="#FFFFFF" d="M37.169,27.271c-0.272-1.004-3.521-10.735-0.742-9.63c0.61,0.244,1.868,4.028,2.081,4.611
				c0.559,1.541,0.827,3.218,1.322,4.775c1.443-0.805,2.882-7.559,3.93-6.916c2.085,2.623-0.373,7.531-2.782,9.107
				c0.363,1.563,0.379,3.222,1.049,4.759c1.341-1.053,1.58-5.036,3.877-5.118c1.009,1.866-1.907,6.068-2.46,7.646
				c-0.699,2.012,1.506,2.521,0.852,4.123c-0.438,1.068-1.672,1.171-2.58,0.972c-1.693-0.367-1.134-1.99-2.291-4.423
				c-2.838-0.389-5.752-2.389-5.896-3.744c1.991-0.665,3.584,1.982,5.519,0.841c0.186-0.699-0.824-3.558-1.042-3.719
				c-1.327,0.208-8.327-3.534-6.735-4.639c0.988-0.687,4.932,1.405,6.073,2.062C37.342,27.732,37.169,27.271,37.169,27.271z"/>
			<path fill="#FFFFFF" d="M47.73,66.371c0.273,1.002,2.365,11.049,4.213,8.688c0.405-0.514-0.417-4.416-0.526-5.027
				c-0.289-1.613-0.905-3.197-1.267-4.795c1.656-0.031,6.304,5.082,6.883,4.002c0.479-3.316-4.11-6.326-6.988-6.474
				c-0.476-1.533-1.296-2.974-1.492-4.636c1.687,0.233,3.902,3.553,5.926,2.47c-0.066-2.117-4.705-4.285-5.976-5.371
				c-1.619-1.384,0.033-2.935-1.343-3.989c-0.913-0.703-2.03-0.17-2.719,0.461c-1.277,1.172,0.021,2.291,0.25,4.975
				c-2.256,1.769-3.767,4.961-3.204,6.205c2.051-0.432,2.094-3.521,4.339-3.506c0.516,0.508,1.081,3.483,0.974,3.734
				c-1.253,0.491-5.409,7.248-3.48,7.404c1.196,0.092,3.551-3.701,4.206-4.842C47.651,65.88,47.73,66.371,47.73,66.371z"/>
		</g>
		<path fill="#FFFFFF" d="M48.285,42.994c-0.711-1.055-2.002-1.853-3.252-1.89c-1.165-0.037-4.242,1.108-4.242,1.108
			c-2.806,1.168-3.414,4.697-1.752,7.043c1.985,2.789,5.509,2.615,8.416,1.256C50.396,49.137,49.901,45.402,48.285,42.994z
			 M45.149,49.294c-1.646,0.849-4.408-0.77-4.354-2.838c0.031-1.057,0.268-1.521,2.029-2.943
			C44.471,42.184,51.307,46.124,45.149,49.294z"/>
		<path fill="#FFFFFF" d="M21.82,29.789c-0.666-0.131-1.454,0.054-1.938,0.511c-0.451,0.426-1.179,2.015-1.179,2.015
			c-0.615,1.497,0.483,3.056,1.99,3.313c1.803,0.304,3.062-1.089,3.646-2.694C24.931,31.304,23.333,30.087,21.82,29.789z
			 M23.012,33.341c-0.3,0.94-1.951,1.373-2.708,0.569c-0.389-0.409-0.476-0.669-0.346-1.871
			C20.076,30.921,24.134,29.829,23.012,33.341z"/>
		<path fill="#FFFFFF" d="M66.512,56.264c-0.666-0.13-1.453,0.06-1.936,0.516c-0.452,0.421-1.182,2.013-1.182,2.013
			c-0.617,1.496,0.482,3.056,1.992,3.313c1.801,0.306,3.063-1.09,3.642-2.696C69.623,57.785,68.026,56.563,66.512,56.264z
			 M67.706,59.816c-0.304,0.943-1.952,1.376-2.71,0.573c-0.388-0.412-0.478-0.673-0.346-1.873
			C64.77,57.396,68.83,56.306,67.706,59.816z"/>
		<g>
			<path fill="#FFFFFF" d="M62.988,39.81c1.004-0.271,10.743-3.52,9.634-0.738c-0.244,0.611-4.026,1.865-4.611,2.081
				c-1.541,0.562-3.219,0.826-4.779,1.322c0.808,1.444,7.563,2.882,6.921,3.927c-2.622,2.082-7.532-0.367-9.106-2.777
				c-1.563,0.361-3.226,0.377-4.76,1.049c1.054,1.336,5.034,1.576,5.114,3.871c-1.864,1.008-6.064-1.903-7.646-2.46
				c-2.006-0.696-2.52,1.511-4.121,0.855c-1.069-0.441-1.17-1.674-0.971-2.583c0.364-1.694,1.987-1.135,4.422-2.291
				c0.392-2.84,2.391-5.749,3.752-5.896c0.658,1.996-1.99,3.585-0.849,5.519c0.7,0.186,3.556-0.823,3.721-1.04
				c-0.208-1.33,3.534-8.326,4.64-6.737c0.687,0.989-1.41,4.933-2.064,6.075C62.529,39.983,62.988,39.81,62.988,39.81z"/>
			<path fill="#FFFFFF" d="M23.895,50.371c-1.004,0.271-11.049,2.369-8.691,4.213c0.519,0.408,4.42-0.416,5.029-0.521
				c1.61-0.291,3.198-0.909,4.793-1.267c0.032,1.652-5.079,6.297-3.999,6.875c3.317,0.479,6.322-4.111,6.473-6.984
				c1.534-0.475,2.976-1.296,4.638-1.494c-0.235,1.689-3.557,3.904-2.473,5.928c2.119-0.066,4.284-4.701,5.373-5.977
				c1.384-1.615,2.937,0.031,3.986-1.338c0.705-0.917,0.171-2.035-0.458-2.723c-1.174-1.277-2.291,0.021-4.973,0.246
				c-1.77-2.254-4.966-3.766-6.209-3.202c0.431,2.053,3.521,2.093,3.508,4.338c-0.512,0.516-3.488,1.084-3.735,0.977
				c-0.488-1.255-7.247-5.413-7.402-3.482c-0.096,1.199,3.703,3.552,4.843,4.207C24.38,50.291,23.895,50.371,23.895,50.371z"/>
		</g>
		<g>
			<path fill="#FFFFFF" d="M51.277,30.894c0.381-0.665,3.771-7.44,4.643-5.411c0.191,0.447-1.129,3.077-1.322,3.494
				c-0.507,1.097-1.248,2.108-1.805,3.184c1.177,0.335,5.457-2.443,5.667-1.563c-0.282,2.457-4.125,3.741-6.209,3.308
				c-0.625,1.006-1.484,1.879-1.938,3.029c1.249,0.148,3.453-1.806,4.697-0.648c-0.45,1.498-4.166,2.173-5.279,2.707
				c-1.414,0.687-0.526,2.104-1.706,2.597c-0.783,0.33-1.482-0.263-1.856-0.839c-0.688-1.076,0.446-1.633,1.115-3.505
				c-1.28-1.687-1.757-4.248-1.12-5.033c1.385,0.694,0.834,2.907,2.438,3.319c0.463-0.271,1.425-2.286,1.396-2.483
				c-0.802-0.585-2.499-6.193-1.095-5.941c0.876,0.161,1.841,3.312,2.094,4.248C51.127,31.229,51.277,30.894,51.277,30.894z"/>
			<path fill="#FFFFFF" d="M34.253,60.488c-0.379,0.668-4.531,7.006-2.338,6.736c0.481-0.059,2.088-2.525,2.35-2.898
				c0.691-0.992,1.195-2.146,1.842-3.164c0.886,0.848,0.641,5.942,1.505,5.68c1.98-1.482,1.152-5.448-0.271-7.026
				c0.557-1.044,0.879-2.229,1.646-3.198c0.758,1.002,0.181,3.893,1.806,4.381c1.065-1.141-0.222-4.69-0.316-5.918
				c-0.123-1.568,1.548-1.519,1.381-2.781c-0.113-0.85-0.974-1.153-1.659-1.184c-1.28-0.058-1.188,1.205-2.468,2.729
				c-2.104-0.258-4.558,0.621-4.914,1.564c1.299,0.846,2.935-0.742,4.1,0.438c-0.001,0.533-1.261,2.379-1.443,2.453
				c-0.909-0.396-6.609,0.959-5.681,2.049c0.576,0.677,3.786-0.08,4.724-0.334C34.464,60.192,34.253,60.488,34.253,60.488z"/>
		</g>
		<g>
			<path fill="#FFFFFF" d="M58.982,53.819c0.664,0.384,7.442,3.769,5.415,4.642c-0.446,0.193-3.081-1.129-3.494-1.32
				c-1.099-0.51-2.111-1.248-3.186-1.805c-0.333,1.176,2.441,5.455,1.563,5.664c-2.459-0.279-3.742-4.125-3.305-6.207
				c-1.005-0.625-1.883-1.482-3.031-1.937c-0.149,1.248,1.808,3.454,0.648,4.694c-1.5-0.447-2.173-4.166-2.711-5.275
				c-0.683-1.416-2.102-0.525-2.593-1.709c-0.329-0.783,0.26-1.48,0.839-1.854c1.077-0.692,1.634,0.445,3.503,1.111
				c1.687-1.277,4.251-1.756,5.034-1.119c-0.695,1.385-2.908,0.832-3.32,2.439c0.271,0.462,2.283,1.424,2.486,1.398
				c0.583-0.805,6.189-2.502,5.936-1.097c-0.157,0.875-3.307,1.839-4.245,2.093C58.651,53.671,58.982,53.819,58.982,53.819z"/>
			<path fill="#FFFFFF" d="M29.392,36.798c-0.668-0.386-7.006-4.535-6.737-2.341c0.06,0.485,2.525,2.092,2.899,2.351
				c0.992,0.694,2.143,1.195,3.162,1.844c-0.846,0.881-5.94,0.636-5.679,1.504c1.479,1.981,5.445,1.152,7.027-0.27
				c1.046,0.554,2.227,0.876,3.198,1.643c-1.008,0.756-3.894,0.179-4.384,1.803c1.144,1.07,4.692-0.22,5.924-0.314
				c1.567-0.126,1.515,1.545,2.784,1.38c0.843-0.112,1.146-0.973,1.175-1.661c0.06-1.277-1.203-1.185-2.723-2.467
				c0.254-2.1-0.626-4.554-1.568-4.913c-0.845,1.301,0.742,2.931-0.436,4.099c-0.534,0.002-2.387-1.255-2.458-1.438
				c0.396-0.913-0.96-6.613-2.049-5.685c-0.676,0.576,0.08,3.784,0.332,4.724C29.687,37.007,29.392,36.798,29.392,36.798z"/>
		</g>
		<path fill="#FFFFFF" d="M59.335,23.556c0.133-0.666-0.058-1.452-0.514-1.939c-0.425-0.453-2.015-1.179-2.015-1.179
			c-1.497-0.614-3.057,0.483-3.313,1.99c-0.304,1.803,1.091,3.062,2.695,3.647C57.817,26.667,59.037,25.067,59.335,23.556z
			 M55.783,24.748c-0.939-0.304-1.373-1.952-0.573-2.709c0.411-0.385,0.671-0.474,1.872-0.344
			C58.205,21.811,59.297,25.872,55.783,24.748z"/>
		<path fill="#FFFFFF" d="M33.627,69.054c0.131-0.665-0.059-1.451-0.516-1.936c-0.424-0.455-2.016-1.186-2.016-1.186
			c-1.494-0.612-3.053,0.484-3.312,1.995c-0.307,1.803,1.094,3.06,2.695,3.646C32.109,72.164,33.328,70.57,33.627,69.054z
			 M30.076,70.246c-0.94-0.303-1.373-1.953-0.574-2.707c0.409-0.387,0.673-0.477,1.874-0.346
			C32.496,67.313,33.586,71.371,30.076,70.246z"/>
	</g>
	<g>
		<path fill="#C5E7E9" d="M64.824,62.468c6.736,1.019,7.389-7.661,1.776-9.163c-2.687-0.72-4.92,3.147-4.577,5.14
			C62.287,59.905,62.736,60.932,64.824,62.468z"/>
		<path fill="#FFFFFF" d="M65.708,54.708c0,0,3.965-0.269,3.158,3.139c-0.808,3.408-2.567-0.447-2.68-1.198
			C66.079,55.897,64.817,56.111,65.708,54.708z"/>
	</g>
	<g>
		<path fill="#C5E7E9" d="M42.488,50.479c6.737,1.021,7.387-7.66,1.776-9.164c-2.687-0.72-4.923,3.149-4.577,5.141
			C39.949,47.917,40.399,48.944,42.488,50.479z"/>
		<path fill="#FFFFFF" d="M43.372,42.721c0,0,3.964-0.269,3.156,3.138c-0.807,3.408-2.567-0.446-2.679-1.198
			C43.742,43.91,42.478,44.122,43.372,42.721z"/>
	</g>
	<g>
		<path fill="#C5E7E9" d="M58.921,27.747c5.25-4.34-0.782-10.614-5.646-7.438c-2.327,1.522-0.936,5.766,0.775,6.84
			C55.316,27.928,56.382,28.277,58.921,27.747z"/>
		<path fill="#FFFFFF" d="M53.727,21.911c0,0,2.445-3.13,4.444-0.257c2.002,2.875-2.045,1.614-2.68,1.194
			C54.86,22.429,54.177,23.514,53.727,21.911z"/>
	</g>
	<g>
		<path fill="#C5E7E9" d="M16.621,32.353c0.5,6.794,9.106,5.506,9.33-0.295c0.106-2.782-4.158-4.104-6.025-3.328
			C18.559,29.31,17.658,29.975,16.621,32.353z"/>
		<path fill="#FFFFFF" d="M24.386,31.495c0,0,1.137,3.806-2.364,3.773c-3.502-0.031-0.132-2.602,0.575-2.876
			C23.306,32.121,22.819,30.937,24.386,31.495z"/>
	</g>
	<g>
		<path fill="#C5E7E9" d="M32.621,72.785c5.717-3.707,0.444-10.636-4.749-8.037c-2.489,1.246-1.593,5.623-0.018,6.885
			C29.022,72.55,30.04,73.022,32.621,72.785z"/>
		<path fill="#FFFFFF" d="M28.134,66.394c0,0,2.789-2.832,4.444,0.253c1.656,3.085-2.219,1.369-2.801,0.881
			C29.201,67.037,28.397,68.035,28.134,66.394z"/>
	</g>
</g>
</svg>
