<?xml version="1.0" encoding="utf-8"?>
<!-- Generator: Adobe Illustrator 16.0.0, SVG Export Plug-In . SVG Version: 6.00 Build 0)  -->
<!DOCTYPE svg PUBLIC "-//W3C//DTD SVG 1.1//EN" "http://www.w3.org/Graphics/SVG/1.1/DTD/svg11.dtd">
<svg version="1.1" id="Layer_1" xmlns="http://www.w3.org/2000/svg" xmlns:xlink="http://www.w3.org/1999/xlink" x="0px" y="0px"
	 width="133px" height="150.591px" viewBox="0 0 133 150.591" enable-background="new 0 0 133 150.591" xml:space="preserve">
<g>
	<path fill="#4A2F8D" d="M13.777,25.391c3.837-2.23,5.636-8.346,8.906-11.186c4.195-3.641,10.387-7.197,16.156-5.93
		c8.283,1.818,7.996,8.588,11.057,14.594c14.221,3.371,15.906-2.533,22.67-10.857C78.83,4.301,77.06-0.301,87.55,0.016
		c9.934,6.605-6.57,18.15-8,26.041c12.928-2.246,16.809,0.752,9.559,12.467c-4.619,7.459,10.813-4.248,13.186,5.635
		c3.996,0.578,3.223,7.811,7.27,9.432c10.104,4.055,16.486,11.432,1.48,16.074c-2.016,0.625,3.053,2.879,4.182,4.811
		c3.051-1.23,6.145-2.699,8.639-0.24c2.143,2.117-0.697,7.256,0.117,10.148c1.17,4.146,2.898,3.271,5.25,6.764
		c3.266,4.854,5.135,15.596,2.566,20.994c-1.66,3.494-4.82,4.432-6.541,6.889c-2.387,3.408-1.684,3.68-2.762,7.971
		c-1.697,6.756-2.711,10.383-11.574,9.389c-6.975,0.115-6.055-9.129-13.795-6.584c-7.449,2.451-9.857,6.896-18.332,4.551
		c6.373,9.592-19.08,16.871-32.352,16.191c-17.48-0.895-32.029-1.635-31.532-16.477c0.422-12.592,18.413-10.576,22.315-21.355
		c2.924-8.072,0.5-28.064-2.367-35.486c-5.496-4.152-14.483-11.316-16.329-18.563c-6.632-1.338-7.59-5.65-9.551-11.059
		c-2-5.516-9.813-7.639-8.906-14.277C0.608,29.408,9.591,27.82,13.777,25.391z"/>
	<g>
		<g>
			<path fill="#7CCDCD" d="M11.13,33.592c4.738,13.656,24.514,27.93,31.945,37.98c0,6.67,2.047,48.838-0.521,54.506
				c-17.129,3.852-23.825,7.109-19.609,10.545c6.025,6.729,30.057,4.395,40.029,3.549c7.635-0.648,14.414-4.734,5.301-9.641
				c-4.744-2.557-10.697-3.055-16.02-4.516c-0.434-8.857,0.51-47.254-0.52-54.814c10.059-9.76,28.275-24.689,33.328-37.609
				C77.425,32.369,31.369,33.592,11.13,33.592z"/>
			<path fill="#231F20" d="M43.537,142.007C43.537,142.007,43.537,142.007,43.537,142.007c-11.239,0-18.146-1.584-21.111-4.84
				c-1.175-0.974-1.643-2.009-1.391-3.077c0.681-2.891,6.958-5.484,20.967-8.656c1.775-5.239,0.945-32.22,0.542-45.343
				c-0.115-3.738-0.207-6.733-0.217-8.269c-2.632-3.502-6.811-7.58-11.229-11.893c-8.237-8.039-17.573-17.151-20.675-26.092
				l-0.346-0.996h1.054c6.312,0,15.163-0.119,24.533-0.246c10.851-0.146,22.071-0.297,31.335-0.297
				c9.912,0,15.86,0.181,18.184,0.553l0.919,0.146l-0.339,0.867c-4.157,10.631-16.856,22.383-27.062,31.826
				c-2.227,2.062-4.336,4.013-6.175,5.788c0.571,5.004,0.483,20.101,0.406,33.461c-0.049,8.565-0.097,16.679,0.049,20.493
				c1.532,0.399,3.137,0.733,4.693,1.059c3.757,0.782,7.641,1.592,10.956,3.379c3.542,1.906,5.125,3.897,4.707,5.916
				c-0.621,2.993-5.621,4.734-10.3,5.132l-1.136,0.098C57.306,141.411,50.361,142.007,43.537,142.007z M12.211,34.341
				c3.32,8.301,12.127,16.896,19.934,24.516c4.546,4.437,8.841,8.628,11.534,12.27l0.146,0.199v0.247
				c0,1.421,0.096,4.532,0.217,8.472c0.621,20.192,1.122,42.091-0.805,46.344l-0.154,0.34l-0.365,0.082
				c-12.912,2.903-19.717,5.469-20.224,7.624c-0.042,0.177-0.169,0.717,0.924,1.608l0.085,0.081
				c2.605,2.908,9.345,4.384,20.032,4.384h0.001c6.76,0,13.667-0.593,18.237-0.985l1.137-0.097c4.724-0.401,8.574-2.097,8.958-3.942
				c0.26-1.256-1.143-2.779-3.949-4.291c-3.124-1.683-6.899-2.47-10.551-3.231c-1.76-0.366-3.578-0.745-5.312-1.221l-0.524-0.145
				l-0.026-0.542c-0.176-3.581-0.128-11.709-0.074-21.12c0.079-13.669,0.169-29.161-0.439-33.63l-0.051-0.376l0.271-0.264
				c1.914-1.856,4.126-3.904,6.469-6.072c9.801-9.07,21.93-20.295,26.314-30.378c-2.74-0.278-8.329-0.414-16.998-0.414
				c-9.253,0-20.469,0.15-31.314,0.297C26.831,34.215,18.441,34.328,12.211,34.341z"/>
		</g>
		<path fill="#FFFFFF" d="M26.164,134.318c3.482-7.162,27.363,7.33,31.799-1.889c2.119-4.408,13.213,1.424,9.793,3.418
			C64.333,137.838,32.789,141.256,26.164,134.318z"/>
		<path fill="#5AB1AF" d="M22.063,45.182c0,0,46.508-0.451,49.473,0c2.965,0.449-18.545,18.232-20.566,20.646
			c-2.023,2.414-9.266,1.113-14.084-5.559C32.07,53.598,22.063,45.182,22.063,45.182z"/>
		<ellipse fill="#C5E7E9" cx="47.315" cy="45.145" rx="25.251" ry="1.148"/>
		<g>
			<path fill="#468885" d="M45.593,62.93c-0.756,0.008,2.447-4.82,3.766-6.602c1.365-1.84,2.541-3.947,3.734-5.904
				c3.26-5.334,7.887-9.797,10.813-15.133c2.605-4.754,6.238-9.229,9.17-13.807c1.754-2.738,3.721-6.107,5.555-8.777
				c1.92-2.795,5.635-10.086,6.537-8.135c-4.838,8.41-9.701,16.404-15.08,24.668c-2.947,4.531-6.354,8.205-9.133,12.764
				c-2.459,4.037-4.875,7.834-7.158,11.813C53.796,53.816,46.589,63.246,45.593,62.93z"/>
			<path fill="#5AB1AF" d="M67.988,38.793c-0.439,5.484-1.498,9.732-5.797,12.936c-1.641,1.223-3.814,3.049-6.098,2.582
				c-1.195-0.244-2.561-1.09-3.477-1.607c-1.246-0.703-1.883-0.646-2.566-2.219c-2.152-4.947,1.941-12.006,6.125-14.551
				c1.682-1.023,4.445-2.795,6.592-2.148c1.217,0.367,1.533,1.115,2.49,1.953C66.24,36.6,68.115,37.191,67.988,38.793z"/>
			<path fill="#C3996B" d="M67.574,32.816c0.859-1.152,1.705-2.33,2.514-3.576c5.379-8.264,10.242-16.258,15.08-24.668
				c-0.902-1.951-4.617,5.34-6.537,8.135c-1.834,2.67-3.801,6.039-5.555,8.777c-2.418,3.775-5.305,7.482-7.707,11.332H67.574z"/>
			<path fill="#468885" d="M49.541,46.293c-0.182,1.463-0.053,2.9,0.51,4.191c0.684,1.572,1.32,1.516,2.566,2.219
				c0.916,0.518,2.281,1.363,3.477,1.607c2.283,0.467,4.457-1.359,6.098-2.582c2.09-1.557,3.41-3.363,4.268-5.436H49.541z"/>
			<path opacity="0.5" fill="#C5E7E9" d="M60.908,34.848c0,0,0.568-1.391,2.213,0s1.834,2.633,2.973,2.813
				c1.137,0.18,2.021,1.146,0.758,1.984s-4.066-0.635-4.467-1.984c-0.4-1.352-0.211-1.789-1.096-2.057
				C60.402,35.336,60.908,34.848,60.908,34.848z"/>
		</g>
		<path fill="#5AB1AF" d="M39.642,32.898c0,0-5.209,10.273-8.061,11.938c-2.852,1.666-5.033,2.209-6.502,1.457
			c1.285-1.111,7.895-13.477,7.895-13.477L39.642,32.898z"/>
		<g>
			<path fill="#F6921E" d="M39.642,17.281c0,0-25.978,26.908-20.691,32.609c-4.089-0.875-4.502-0.225-4.832-1.441
				c-2.468-9.057,13.688-31.996,19.137-33.199C38.703,14.045,39.642,17.281,39.642,17.281z"/>
			<path fill="#FAAF40" d="M39.642,32.898c-0.639,1.068-5.488-0.395-6.547,0.482c-4.398,8.525-10.246,17.891-14.145,16.51
				c-6.968-2.475,7.002-27.959,16.641-32.896C43.199,13.096,42.677,27.822,39.642,32.898z"/>
			<g>
				<path fill="#F6921E" d="M32.664,30.055c0,0,7.215-11.152,6.504-12.211c-0.709-1.053-7.582,2.281-8.174,5.469
					C30.406,26.5,32.011,31.076,32.664,30.055z"/>
				<path fill="#F6921E" d="M28.386,39.461c0,0-6.086,11.047-7.733,9.584c-1.648-1.461-0.733-10.043,1.518-10.566
					C24.425,37.949,28.998,38.379,28.386,39.461z"/>
				<path fill="#F6921E" d="M30.619,35.215c0,0,0.352-9.455-1.383-8.477c-1.734,0.98-5.906,7.268-5.025,8.535
					C25.089,36.543,30.591,36.484,30.619,35.215z"/>
				<path fill="#F6921E" d="M38.46,31.918c0,0-1.914,0.494-3.078-0.021c-1.162-0.514,0.916-7.865,3.949-9.006
					C42.367,21.754,39.351,31.098,38.46,31.918z"/>
			</g>
			<g>
				<path fill="#FAAF40" d="M24.013,44.709c-0.857-0.047-2.759,1.461-2.042,2.236C22.632,47.107,23.88,45.336,24.013,44.709z"/>
				<path fill="#FAAF40" d="M24.298,41.918c-0.531,0.602-2.1,3.594-2.911,2.779C20.42,43.732,24.298,41.918,24.298,41.918z"/>
				<path fill="#FAAF40" d="M21.697,41.898c1.176-1.273,2.58-1.697,3.883-1.658C25.58,40.24,21.711,43.799,21.697,41.898z"/>
			</g>
			<g>
				<path fill="#FAAF40" d="M36.875,22.637c-0.434-0.74,0.051-3.121,1.066-2.832C38.386,20.32,37.373,22.234,36.875,22.637z"/>
				<path fill="#FAAF40" d="M34.511,24.154c0.297-0.744,2.258-3.5,1.16-3.854C34.376,19.877,34.511,24.154,34.511,24.154z"/>
				<path fill="#FAAF40" d="M33.318,21.846c-0.605,1.623-0.344,3.066,0.279,4.211C33.597,26.057,35.019,21,33.318,21.846z"/>
			</g>
			<g>
				<path fill="#FAAF40" d="M29.634,30.74c-0.807-0.295-1.963-2.428-0.996-2.857C29.31,27.992,29.759,30.111,29.634,30.74z"/>
				<path fill="#FAAF40" d="M28.521,33.973c-0.535-0.285-3.291-0.994-2.43-1.639C27.105,31.566,28.521,33.973,28.521,33.973z"/>
				<path fill="#FAAF40" d="M27.007,30.195c0.402,1.281,1.389,1.947,2.498,2.227C29.505,32.422,27.898,28.701,27.007,30.195z"/>
			</g>
			<g>
				<path fill="#FAAF40" d="M37.917,24.953c0.857,0.012,2.689-1.582,1.938-2.322C39.185,22.496,38.023,24.322,37.917,24.953z"/>
				<path fill="#FAAF40" d="M37.761,27.758c0.504-0.623,1.932-3.691,2.781-2.91C41.55,25.764,37.761,27.758,37.761,27.758z"/>
				<path fill="#FAAF40" d="M40.361,27.656c-1.113,1.328-2.5,1.813-3.803,1.836C36.558,29.492,40.257,25.76,40.361,27.656z"/>
			</g>
		</g>
		<rect x="64.119" y="32.242" fill="#231F20" width="5.234" height="1.6"/>
		<polygon fill="#231F20" points="33.566,32.436 40.033,32.502 39.642,34.154 32.789,33.973 		"/>
		<path fill="#FFFFFF" d="M48.107,65.818c-0.371-1.295,9.449-5.498,6.855-2.377c-2.594,3.119-5.188,5.898-5.373,7.568
			c-0.186,1.666,1.482,56.197,0.186,56.445C48.478,127.707,48.107,65.818,48.107,65.818z"/>
	</g>
	<g>
		<g>
			<path fill="#FAAF40" d="M65.469,72.018l0.195,0.131c0.138-0.063,0.351-0.124,0.641-0.181s0.724-0.048,1.303,0.027
				c0.578,0.075,1.03,0.079,1.356,0.017c0.042,0.029,0.103,0.055,0.185,0.077l0.063,0.043c0.108-0.021,0.195-0.056,0.262-0.106
				c0.043,0.03,0.501,0.164,1.376,0.407c0.072-0.014,0.124-0.032,0.156-0.059c0.034-0.024,0.068-0.041,0.104-0.048
				c0.079,0.021,0.19,0.066,0.335,0.131c0.145,0.066,0.253,0.092,0.326,0.078c0.008,0.037,0.031,0.069,0.075,0.098
				c0.043,0.029,0.068,0.063,0.075,0.098c0.656,0.286,1.137,0.625,1.438,1.016c0.051,0.066,0.125,0.108,0.223,0.126
				c0.097,0.019,0.148,0.047,0.155,0.082c0.008,0.037,0.027,0.089,0.061,0.157c0.031,0.07,0.055,0.141,0.068,0.213
				c0.629,0.328,0.978,0.673,1.048,1.034l-0.012,0.229c0.05,0.066,0.111,0.091,0.184,0.077l0.174,0.022
				c0.094,0.095,0.181,0.247,0.259,0.458c0.077,0.208,0.14,0.329,0.183,0.357l0.106,0.543c0.007,0.037,0.039,0.059,0.097,0.066
				s0.112,0.043,0.163,0.108l0.031,0.162c0.064,0.326,0.084,0.529,0.063,0.609c0.042,0.029,0.097,0.206,0.16,0.531
				c0.021,0.108,0.073,0.231,0.156,0.365c0.082,0.134,0.135,0.255,0.156,0.364c0.021,0.107,0.019,0.203-0.002,0.281
				c0.014,0.074,0.058,0.111,0.135,0.115c0.076,0.004,0.117,0.024,0.124,0.06c0.086,0.247,0.174,0.605,0.266,1.075
				c0.071,0.362,0.106,0.638,0.105,0.826l-0.217,0.043l0.647,0.719c0.05,0.065,0.043,0.122-0.022,0.174
				c-0.022,0.079-0.029,0.137-0.022,0.172c0.122,0.24,0.161,0.439,0.117,0.598c0.1,0.131,0.186,0.378,0.256,0.739
				c0.064,0.326,0.096,0.583,0.094,0.771c0.059,0.101,0.146,0.159,0.261,0.173c-0.029,0.045-0.037,0.103-0.023,0.174
				c0.057,0.291,0.07,0.457,0.042,0.5c0.05,0.065,0.086,0.152,0.107,0.262l0.052,0.553c0.114,0.203,0.183,0.359,0.204,0.468
				l-0.034,0.118c-0.021,0.08-0.044,0.161-0.065,0.239c0.057,0.291,0.052,0.46-0.013,0.511c0.05,0.064,0.089,0.17,0.117,0.315
				c0.028,0.145,0.037,0.329,0.024,0.558c-0.011,0.229-0.008,0.396,0.014,0.505c0.035,0.181,0.078,0.304,0.129,0.368
				c-0.009,0.341-0.01,0.529-0.003,0.565c0.008,0.036-0.063,0.162-0.206,0.378c0.042,0.03,0.074,0.098,0.096,0.207
				c0.015,0.074-0.004,0.18-0.05,0.319c-0.049,0.143-0.067,0.23-0.062,0.267l0.032,0.163c0.106,0.542,0.011,0.919-0.288,1.126
				l0.075,0.1c0.007,0.036,0.015,0.072,0.021,0.107c0.05,0.255-0.075,0.486-0.371,0.693c0.015,0.072,0.021,0.155,0.02,0.249
				c0,0.095,0.021,0.156,0.065,0.185c-0.161,0.333-0.239,0.611-0.232,0.834c-0.196,0.152-0.273,0.336-0.23,0.553
				c-0.175,0.26-0.285,0.47-0.328,0.629c-0.632,0.424-1.013,0.873-1.146,1.351c-0.036,0.007-0.12,0.061-0.251,0.161
				c-0.072,0.203-0.29,0.441-0.648,0.719c-0.359,0.276-0.582,0.48-0.67,0.609c-0.029,0.043-0.063,0.068-0.098,0.076
				c-0.037,0.007-0.073,0.014-0.109,0.021c-0.052,0.122-0.16,0.236-0.327,0.346c-0.167,0.107-0.279,0.204-0.338,0.291l-0.216,0.042
				c-0.146,0.028-0.311,0.098-0.494,0.209c-0.186,0.112-0.334,0.179-0.441,0.199c-0.073,0.015-0.239,0.075-0.499,0.183
				c-0.262,0.107-0.5,0.182-0.718,0.225l-0.055,0.011c-0.08-0.022-0.138-0.03-0.174-0.022l-0.38,0.074
				c-0.362,0.07-0.647,0.05-0.856-0.06l-0.109,0.021c-0.145,0.028-0.376-0.002-0.693-0.09c-0.767-0.075-1.318-0.213-1.658-0.409
				c-0.645-0.024-1.1-0.143-1.365-0.353c-0.325,0.063-0.643-0.119-0.952-0.548c-0.008-0.035-0.051-0.064-0.13-0.088l-0.12-0.032
				c-0.071-0.173-0.257-0.409-0.56-0.708c-0.303-0.297-0.479-0.573-0.529-0.827l-0.054,0.011c-0.043-0.028-0.068-0.062-0.075-0.098
				c-0.058-0.102-0.117-0.212-0.178-0.332c-0.061-0.119-0.125-0.257-0.194-0.413c-0.067-0.155-0.127-0.265-0.177-0.332l-0.151-0.196
				c-0.057-0.101-0.092-0.225-0.101-0.374c-0.01-0.147-0.022-0.257-0.037-0.331c-0.007-0.035-0.042-0.076-0.107-0.119
				c-0.065-0.044-0.101-0.085-0.107-0.121c-0.007-0.035-0.02-0.099-0.037-0.189c-0.018-0.09-0.05-0.149-0.092-0.179
				c-0.007-0.037-0.024-0.08-0.054-0.132c-0.03-0.051-0.05-0.111-0.063-0.184l-0.043-0.218c-0.014-0.072-0.045-0.179-0.092-0.321
				c-0.045-0.14-0.079-0.266-0.101-0.373c-0.079-0.211-0.146-0.508-0.202-0.892c-0.057-0.384-0.098-0.647-0.126-0.794
				c-0.028-0.143-0.028-0.237,0.001-0.281c-0.007-0.035-0.132-0.387-0.375-1.055c-0.007-0.035,0.003-0.074,0.033-0.117
				c0.028-0.043,0.04-0.084,0.033-0.119l-0.065-0.045c-0.044-0.028-0.085-0.152-0.128-0.369c-0.094-0.281-0.221-0.84-0.383-1.673
				c-0.015-0.072-0.017-0.175-0.004-0.31c0.011-0.133,0.013-0.219,0.006-0.254l-0.074-0.381l-0.18-0.924
				c-0.05-0.252-0.071-0.455-0.063-0.607c-0.021-0.107-0.031-0.256-0.03-0.444c0-0.188-0.006-0.318-0.021-0.391l-0.085-0.435
				c-0.042-0.218-0.077-0.586-0.104-1.107c-0.026-0.521-0.058-0.871-0.093-1.053c-0.098-0.883-0.12-1.386-0.069-1.509
				c-0.05-0.063-0.086-0.152-0.106-0.26c-0.028-0.146-0.027-0.333,0.002-0.565c-0.007-0.035-0.031-0.106-0.068-0.211
				c-0.041-0.105-0.067-0.194-0.082-0.268c-0.035-0.18-0.037-0.386-0.007-0.617c-0.05-0.254-0.071-0.456-0.063-0.607
				c-0.106-0.543-0.173-0.982-0.2-1.314c0.044-0.158,0.056-0.293,0.034-0.401c-0.014-0.072-0.044-0.179-0.091-0.321
				c-0.046-0.141-0.072-0.229-0.079-0.265c-0.021-0.109-0.021-0.202,0-0.283c-0.021-0.108-0.074-0.19-0.161-0.25
				c-0.014-0.071,0.005-0.161,0.061-0.266c0.055-0.104,0.08-0.175,0.072-0.211l0.425-0.421c0.036-0.008,0.088-0.027,0.157-0.06
				s0.138-0.063,0.207-0.097c0.068-0.031,0.118-0.07,0.147-0.113c0.063-0.049,0.15-0.142,0.256-0.275s0.19-0.225,0.256-0.275
				c0.354-0.105,0.679-0.283,0.969-0.527c0.138-0.064,0.278-0.111,0.424-0.139c0.035-0.008,0.086-0.035,0.152-0.086l0.098-0.076
				l0.218-0.042c0.035-0.007,0.133-0.035,0.293-0.086c0.159-0.05,0.293-0.085,0.401-0.106c0.145-0.028,0.26-0.014,0.348,0.045
				c0.086-0.13,0.211-0.219,0.37-0.271c0.159-0.048,0.348-0.095,0.564-0.138C65.155,72.136,65.333,72.082,65.469,72.018z
				 M61.698,85.606l0.031,0.163c0.035-0.007,0.068-0.032,0.098-0.076C61.813,85.621,61.769,85.593,61.698,85.606z M67.529,77.365
				c-0.072,0.015-0.239,0.217-0.501,0.605c0.007,0.037,0.04,0.067,0.102,0.092c0.062,0.027,0.1,0.076,0.114,0.147
				c-0.045,0.159-0.057,0.293-0.035,0.402c0.028,0.145,0.1,0.317,0.215,0.521c-0.047,0.536-0.06,0.952-0.039,1.248
				c0.007,0.037,0.044,0.076,0.107,0.12c0.065,0.044,0.102,0.084,0.109,0.12c-0.188,0.187-0.251,0.443-0.188,0.769
				c0.021,0.108,0.07,0.269,0.148,0.479c0.078,0.211,0.129,0.369,0.15,0.479l0.854,2.934c0.043,0.217,0.133,0.536,0.271,0.96
				c0.14,0.426,0.228,0.729,0.263,0.908l0.052,0.554c0.021,0.107,0.053,0.177,0.097,0.206c-0.052,0.123-0.023,0.456,0.082,0.998
				l0.021,0.108c0.007,0.038,0.002,0.113-0.013,0.229c-0.016,0.115-0.019,0.193-0.012,0.229c0.014,0.073,0.046,0.188,0.096,0.347
				c0.05,0.16,0.083,0.276,0.097,0.348l0.032,0.163c0.014,0.073,0.02,0.156,0.02,0.249c0,0.096,0.003,0.16,0.01,0.196
				c0.015,0.072,0.079,0.21,0.194,0.413l0.054,0.271c0.042,0.217,0.2,0.412,0.479,0.584c0.276,0.17,0.506,0.237,0.688,0.202
				c0.211-0.078,0.374-0.203,0.49-0.378l0.307-0.453c-0.015-0.073,0.009-0.19,0.071-0.353s0.083-0.298,0.063-0.407
				c0.007-0.34,0.092-0.581,0.251-0.726c-0.007-0.035,0.001-0.187,0.024-0.456c-0.077-0.397-0.068-0.832,0.028-1.301l-0.063-0.326
				c-0.085-0.435-0.111-0.861-0.081-1.281c-0.007-0.035-0.042-0.066-0.104-0.092s-0.081-0.078-0.058-0.158
				c-0.205-1.236-0.543-2.486-1.015-3.746c-0.192-0.602-0.372-0.943-0.538-1.023c-0.034-0.369-0.374-1.054-1.021-2.056
				c-0.2-0.261-0.318-0.482-0.354-0.664l-0.031-0.162l-0.303-0.392c0.029-0.043,0.041-0.083,0.033-0.119
				c-0.072,0.014-0.152-0.008-0.237-0.067c-0.021-0.108-0.1-0.214-0.232-0.32s-0.229-0.209-0.287-0.31
				C67.738,77.381,67.601,77.352,67.529,77.365z M70.739,94.382c0.035,0.182,0.074,0.286,0.117,0.314
				c0.196-0.151,0.291-0.243,0.283-0.28C70.981,94.373,70.847,94.36,70.739,94.382z"/>
			<path fill="#FAAF40" d="M83.243,79.033c0.218-0.043,0.499,0.053,0.845,0.285l0.109-0.021c0.144-0.028,0.3,0.008,0.472,0.105
				c0.168,0.1,0.307,0.137,0.416,0.115c0.13,0.088,0.292,0.244,0.486,0.47c0.193,0.226,0.334,0.366,0.422,0.425
				c0.007,0.036-0.006,0.077-0.033,0.119l-0.045,0.065c0.173,0.116,0.271,0.229,0.291,0.337c0.051,0.066,0.112,0.092,0.185,0.077
				c0.087,0.06,0.134,0.105,0.141,0.141c0.007,0.037-0.019,0.099-0.077,0.185c0.215,0.334,0.342,0.592,0.377,0.771
				c0.015,0.074,0.039,0.105,0.075,0.098c0.007,0.037-0.005,0.078-0.032,0.121c-0.029,0.043-0.02,0.098,0.031,0.162
				c0.15,0.008,0.307-0.06,0.467-0.204l0.435-0.085l0.088-0.13c0.065-0.049,0.171-0.09,0.315-0.118l0.206-0.096
				c0.103-0.057,0.313-0.174,0.638-0.35c0.321-0.176,0.548-0.314,0.678-0.414c0.037-0.008,0.122-0.053,0.257-0.136
				c0.133-0.083,0.232-0.149,0.3-0.199c0.71-0.4,1.175-0.624,1.391-0.666l0.055-0.011c0.036-0.007,0.05-0.028,0.043-0.065
				c-0.007-0.035,0.012-0.038,0.055-0.011c0.102-0.056,0.261-0.106,0.479-0.148c0.253-0.05,0.438-0.066,0.553-0.053l0.392-0.02
				c0.079,0.023,0.183,0.068,0.309,0.138c0.127,0.069,0.229,0.115,0.31,0.136c0.035-0.006,0.102,0.001,0.2,0.018
				c0.097,0.02,0.186,0.04,0.265,0.061l0.032,0.164c0.072-0.015,0.16,0.006,0.266,0.062c0.104,0.055,0.174,0.078,0.211,0.071
				c0.222,0.37,0.377,0.583,0.463,0.641c-0.015,0.305-0.012,0.51,0.01,0.619c0.007,0.037,0.066,0.155,0.182,0.359l-0.087,0.129
				l0.021,0.109c0.028,0.145,0.034,0.275,0.02,0.39c-0.016,0.116-0.036,0.253-0.063,0.407c-0.025,0.155-0.05,0.273-0.07,0.354
				c0.049,0.252,0.04,0.498-0.025,0.736l0.096,0.207c-0.182,0.035-0.313,0.174-0.397,0.416c-0.085,0.241-0.181,0.373-0.289,0.395
				c-0.003,0.376-0.073,0.598-0.209,0.661c0.035-0.007,0.063,0.044,0.085,0.153c-0.059,0.086-0.123,0.137-0.195,0.15
				c-0.075,0.391-0.156,0.649-0.243,0.779l0.053,0.272c-0.058,0.087-0.142,0.234-0.251,0.442c-0.108,0.211-0.211,0.361-0.306,0.455
				c0.05,0.066,0.082,0.134,0.097,0.206c0.014,0.072,0.024,0.127,0.031,0.163c-0.196,0.34-0.268,0.841-0.213,1.507l-0.065,0.239
				c0.05,0.066,0.077,0.154,0.08,0.266c0.002,0.112,0.012,0.205,0.025,0.277l-0.131,0.194c0.085,0.059,0.127,0.173,0.124,0.343
				c-0.006,0.17,0.021,0.305,0.079,0.406l0.119,0.033c0.071-0.014,0.126-0.024,0.162-0.031c0.254-0.049,0.438-0.16,0.555-0.334
				c0.059-0.087,0.128-0.117,0.208-0.097c-0.008-0.035,0.003-0.075,0.033-0.119c0.028-0.043,0.039-0.083,0.032-0.12
				c0.167-0.106,0.328-0.289,0.485-0.545c0.156-0.256,0.282-0.43,0.377-0.524c0.073-0.202,0.163-0.313,0.271-0.335
				c0.249-0.462,0.663-1.088,1.24-1.877c0.58-0.789,0.928-1.27,1.043-1.443l0.197-0.151c0.16-0.333,0.356-0.577,0.588-0.735
				c-0.014-0.071-0.006-0.129,0.023-0.173c0.37-0.411,0.573-0.62,0.61-0.627c0.11-0.396,0.383-0.638,0.817-0.722l0.108-0.021
				c0.036-0.008,0.133-0.045,0.288-0.113s0.27-0.109,0.343-0.123l0.108-0.021c0.071-0.014,0.189,0.01,0.352,0.072
				s0.279,0.086,0.353,0.072c0.035-0.008,0.142,0.048,0.314,0.163l0.084,0.435c0.015,0.072-0.002,0.133-0.05,0.18
				s-0.104,0.095-0.168,0.146c-0.066,0.05-0.114,0.097-0.143,0.139c-0.021,0.08-0.073,0.156-0.152,0.228
				c-0.08,0.072-0.135,0.131-0.164,0.173c0.006,0.225-0.114,0.379-0.359,0.465c-0.095,0.094-0.192,0.272-0.29,0.536
				c-0.1,0.264-0.214,0.445-0.345,0.546c-0.037,0.007-0.039,0.084-0.012,0.229c-0.065,0.05-0.146,0.169-0.241,0.356
				c-0.095,0.188-0.206,0.333-0.338,0.433c-0.015,0.115-0.049,0.234-0.1,0.357s-0.125,0.27-0.224,0.438
				c-0.099,0.171-0.177,0.298-0.235,0.384c-0.036,0.007-0.084,0.055-0.142,0.14c-0.059,0.089-0.12,0.156-0.186,0.206
				c0.015,0.074-0.053,0.161-0.201,0.266c-0.149,0.104-0.216,0.191-0.202,0.265c0.007,0.036,0.027,0.051,0.064,0.044
				c-0.06,0.086-0.132,0.193-0.219,0.324c-0.087,0.129-0.158,0.246-0.213,0.351c-0.055,0.106-0.137,0.216-0.246,0.33
				c-0.109,0.115-0.214,0.202-0.315,0.26c0.015,0.072-0.024,0.165-0.115,0.276s-0.15,0.189-0.181,0.232
				c-0.072,0.014-0.13,0.053-0.173,0.119c-0.044,0.063-0.088,0.128-0.132,0.193c-0.043,0.064-0.08,0.12-0.108,0.162
				c-0.03,0.043-0.121,0.107-0.273,0.194c-0.151,0.086-0.242,0.151-0.271,0.194c-0.029,0.044-0.09,0.121-0.181,0.232
				c-0.089,0.111-0.128,0.205-0.114,0.275l-0.305,0.172c-0.045,0.16-0.238,0.328-0.578,0.509c-0.341,0.179-0.536,0.329-0.588,0.452
				c-0.145,0.028-0.327,0.102-0.548,0.22c-0.223,0.118-0.368,0.185-0.44,0.198l-0.164,0.032c-0.107,0.021-0.227,0.035-0.357,0.042
				c-0.132,0.006-0.232,0.018-0.304,0.031l-0.163,0.032c-0.702-0.126-1.558-0.466-2.566-1.021c-0.043-0.029-0.112-0.091-0.206-0.187
				c-0.094-0.094-0.18-0.152-0.26-0.174c-0.115-0.204-0.212-0.315-0.29-0.339c-0.145-0.348-0.274-0.623-0.388-0.826
				c-0.238-0.253-0.381-0.507-0.431-0.761c-0.007-0.035-0.012-0.11-0.016-0.224c-0.003-0.111-0.011-0.203-0.025-0.276l-0.18-0.923
				c-0.007-0.035-0.002-0.102,0.017-0.2c0.018-0.097,0.002-0.179-0.048-0.244c0.043-0.159,0.044-0.253,0.002-0.282
				c0.028-0.042,0.039-0.093,0.028-0.147c-0.011-0.054,0-0.084,0.037-0.091l-0.021-0.109c-0.015-0.07-0.006-0.168,0.027-0.287
				c0.034-0.12,0.044-0.215,0.029-0.287c0.021-0.079,0.068-0.126,0.141-0.141c-0.007-0.035-0.024-0.08-0.053-0.131
				c-0.029-0.051-0.047-0.094-0.055-0.13c-0.007-0.035,0.013-0.228,0.057-0.575c0.031-0.043,0.081-0.07,0.153-0.085l0.12,0.031
				c-0.008-0.035-0.04-0.056-0.098-0.065c-0.058-0.006-0.091-0.028-0.098-0.064c-0.028-0.145,0.013-0.32,0.121-0.531
				c0.109-0.209,0.154-0.368,0.133-0.478l-0.031-0.162l0.087-0.13c0.051-0.122,0.109-0.209,0.176-0.26l-0.021-0.108
				c-0.014-0.072,0.029-0.231,0.131-0.478l-0.108,0.021c-0.107,0.021-0.265,0.08-0.473,0.178c-0.206,0.096-0.346,0.152-0.418,0.166
				l-0.705,0.138l-1.109,0.386l-0.381,0.074c-0.101,0.057-0.225,0.1-0.368,0.128c-0.146,0.028-0.268,0.072-0.37,0.129
				c-0.087,0.13-0.124,0.325-0.11,0.586c0.013,0.261,0.009,0.43-0.015,0.509c0.063,0.326,0.057,0.572-0.025,0.738
				c0.052,0.065,0.091,0.17,0.119,0.314c0.042,0.217,0.005,0.413-0.111,0.586c0.138,0.125,0.146,0.272,0.031,0.444l0.042,0.218
				c0.028,0.145,0.026,0.333-0.003,0.565c0.007,0.036,0.032,0.068,0.076,0.097l0.065,0.044l0.084,0.435
				c0.021,0.108,0.056,0.242,0.106,0.402c0.05,0.159,0.082,0.275,0.096,0.347l0.085,0.435c-0.125,0.326-0.19,0.563-0.198,0.715
				c0.05,0.066,0.079,0.117,0.086,0.152c0.021,0.109,0.006,0.225-0.045,0.348c-0.052,0.123-0.073,0.202-0.066,0.238
				c-0.003,0.377,0.004,0.6,0.019,0.672l-0.066,0.239c-0.051,0.123-0.088,0.224-0.11,0.304c-0.058,0.086-0.136,0.214-0.234,0.383
				c-0.098,0.171-0.202,0.313-0.311,0.428c-0.11,0.116-0.233,0.206-0.371,0.27c-0.115-0.014-0.286-0.029-0.515-0.041
				c-0.228-0.012-0.378-0.01-0.45,0.004c-0.534-0.234-0.869-0.412-1.006-0.536l-0.239-0.065c-0.094-0.095-0.202-0.167-0.324-0.219
				c-0.007-0.035-0.054-0.083-0.141-0.143c-0.252-0.138-0.486-0.374-0.702-0.708c0.06-0.087,0.084-0.147,0.077-0.185l-0.108,0.021
				l-0.032-0.163c-0.021-0.108-0.023-0.267-0.008-0.477c0.014-0.209,0.016-0.351,0.001-0.423l0.196-0.152
				c-0.007-0.035-0.021-0.108-0.043-0.217c-0.021-0.108-0.053-0.178-0.096-0.206l0.043-0.064c0.036-0.007,0.069-0.032,0.099-0.076
				l-0.065-0.044c-0.036,0.008-0.039-0.01-0.011-0.054c0.029-0.044,0.034-0.12,0.013-0.229c-0.05-0.253-0.027-0.427,0.066-0.521
				c0.029-0.043,0.022-0.078-0.021-0.108l-0.054,0.011c0.028-0.043,0.044-0.15,0.049-0.32c0.004-0.17,0.059-0.283,0.159-0.34
				l-0.011-0.055l-0.075-0.098c-0.007-0.035,0.066-0.24,0.22-0.607l-0.021-0.108c-0.014-0.072-0.005-0.168,0.028-0.287
				c0.033-0.12,0.047-0.197,0.04-0.233l-0.021-0.108l0.044-0.065l-0.011-0.054c-0.021-0.109-0.022-0.202,0.001-0.282
				c0.022-0.079,0.03-0.138,0.022-0.174c-0.129-0.087-0.358-0.201-0.688-0.344c-0.328-0.143-0.561-0.276-0.697-0.399
				c-1.054-0.585-1.669-1.329-1.846-2.233c-0.015-0.072,0.016-0.116,0.088-0.131l-0.151-0.195c0.016-0.116,0.024-0.268,0.024-0.455
				c0.001-0.188,0.013-0.321,0.034-0.401c0.072-0.202,0.227-0.476,0.459-0.821l0.088-0.131c0.094-0.094,0.116-0.172,0.066-0.238
				c0.263-0.578,0.438-0.932,0.524-1.061l0.132-0.195c0.233-0.346,0.367-0.523,0.404-0.53l0.076-0.184
				c0.159-0.144,0.327-0.346,0.502-0.604c0.08,0.021,0.261-0.108,0.545-0.39c0.028-0.042,0.086-0.138,0.168-0.286
				c0.085-0.147,0.178-0.25,0.278-0.309c0.204-0.114,0.413-0.192,0.632-0.234l0.217-0.043c0.044-0.158,0.174-0.166,0.391-0.02
				C83.068,79.104,83.169,79.047,83.243,79.033z M83.936,81.715c-0.109,0.021-0.19,0.188-0.242,0.498
				c-0.059,0.088-0.142,0.142-0.25,0.162c-0.008,0.152-0.077,0.278-0.208,0.379c0.036,0.182,0.024,0.315-0.035,0.401l-0.042,0.065
				c-0.037,0.007-0.088,0.035-0.152,0.085c-0.176,0.261-0.265,0.484-0.265,0.673l-0.087,0.129c-0.065,0.051-0.073,0.109-0.022,0.174
				c0.158,0.045,0.328,0.048,0.51,0.013c0.108-0.021,0.286-0.074,0.532-0.161c0.245-0.084,0.425-0.139,0.533-0.159
				c0.281-0.092,0.449-0.294,0.501-0.604l-0.032-0.164c-0.007-0.035-0.033-0.125-0.079-0.266c-0.048-0.141-0.091-0.321-0.134-0.538
				c-0.027-0.145-0.067-0.249-0.118-0.315c-0.129-0.087-0.201-0.166-0.216-0.24C84.108,81.738,84.043,81.693,83.936,81.715z"/>
			<path fill="#FAAF40" d="M102.331,75.756c0.073-0.014,0.14-0.008,0.201,0.018c0.062,0.026,0.123,0.053,0.184,0.077
				c0.061,0.026,0.132,0.05,0.212,0.071c0.078,0.021,0.14,0.049,0.185,0.076c0.021,0.109,0.108,0.232,0.269,0.371
				c0.159,0.138,0.248,0.262,0.269,0.369c0.008,0.037-0.003,0.077-0.032,0.119c-0.058,0.088-0.085,0.149-0.077,0.185l0.085,0.436
				c0.012,0.448,0.062,0.89,0.146,1.323c-0.03,0.044-0.056,0.105-0.076,0.184c-0.023,0.08-0.053,0.123-0.088,0.13
				c0.063,0.139,0.128,0.37,0.192,0.696c0.057,0.29,0.08,0.511,0.073,0.662c0.007,0.036,0.01,0.102,0.009,0.195
				c0,0.095,0.007,0.178,0.021,0.25c0.099,0.507,0.119,0.803,0.061,0.889c0.015,0.072,0.071,0.176,0.172,0.305
				c0.1,0.133,0.162,0.25,0.183,0.359c0.015,0.073,0.001,0.15-0.039,0.232c-0.04,0.084-0.053,0.162-0.039,0.234l0.063,0.325
				c0.071,0.362,0.063,0.608-0.025,0.737c0.095,0.096,0.144,0.256,0.15,0.479c0.007,0.225,0.038,0.388,0.096,0.488
				c-0.161,0.333-0.206,0.68-0.136,1.041c0.008,0.037,0.049,0.104,0.125,0.201c0.075,0.1,0.101,0.188,0.079,0.268
				c0.007,0.036,0.043,0.066,0.104,0.092c0.062,0.026,0.095,0.057,0.102,0.092c0.008,0.037-0.011,0.136-0.055,0.293
				c0.042,0.03,0.097,0.207,0.16,0.533l0.043,0.217l0.116,0.598c0.13,0.088,0.304,0.11,0.521,0.068
				c0.18-0.035,0.509-0.176,0.988-0.42l1.176-0.906c0.058-0.086,0.145-0.168,0.262-0.248c0.115-0.079,0.188-0.141,0.218-0.184
				c0.276-0.315,0.465-0.504,0.566-0.562c0.152-0.179,0.483-0.507,0.992-0.982c0.508-0.475,0.864-0.863,1.067-1.167l0.109-0.021
				c0.028-0.043,0.062-0.068,0.099-0.075c0.027-0.043,0.062-0.114,0.099-0.218c0.036-0.1,0.068-0.172,0.099-0.215
				c0.029-0.043,0.106-0.125,0.234-0.243c0.127-0.118,0.223-0.203,0.287-0.255c0.284-0.279,0.443-0.424,0.48-0.432l0.163-0.031
				c-0.007-0.036,0.038-0.093,0.136-0.168s0.188-0.101,0.267-0.08l0.271-0.053l0.218-0.043c0.064-0.049,0.188-0.092,0.369-0.127
				c0.108-0.021,0.282,0,0.521,0.067c0.411,0.183,0.635,0.364,0.67,0.544c0.043,0.031,0.05,0.067,0.021,0.109
				c-0.022,0.08-0.03,0.139-0.023,0.174c-0.021,0.08-0.027,0.139-0.021,0.174c0.021,0.108,0.035,0.181,0.042,0.217
				c-0.03,0.043-0.037,0.102-0.022,0.173c-0.125,0.326-0.177,0.542-0.155,0.65c-0.109,0.021-0.177,0.111-0.202,0.266
				c-0.025,0.155-0.055,0.255-0.083,0.298c-0.072,0.014-0.125,0.033-0.158,0.06c-0.032,0.025-0.066,0.04-0.103,0.048
				c-0.059,0.087-0.103,0.245-0.133,0.477c-0.43,0.497-0.666,0.825-0.71,0.984l-0.271,0.053c0.008,0.037-0.012,0.087-0.055,0.152
				c-0.045,0.064-0.063,0.115-0.055,0.15c-0.066,0.051-0.141,0.15-0.225,0.297c-0.084,0.15-0.173,0.27-0.268,0.363
				c-0.029,0.044-0.099,0.076-0.206,0.097l-0.273,0.335c-0.065,0.052-0.171,0.184-0.317,0.4c-0.534,0.143-0.848,0.466-0.938,0.973
				c-0.225,0.193-0.349,0.33-0.369,0.409c-0.037,0.007-0.153,0.087-0.349,0.237l-0.294,0.227c-0.218,0.043-0.464,0.223-0.74,0.539
				l-0.218,0.043c-0.029,0.044-0.063,0.107-0.104,0.189c-0.04,0.084-0.075,0.147-0.104,0.189l-0.162,0.031
				c-0.108,0.021-0.229,0.082-0.359,0.184c-0.131,0.102-0.232,0.157-0.305,0.172c-0.036,0.007-0.094,0-0.174-0.022
				c-0.181,0.224-0.396,0.379-0.643,0.464c-0.021,0.08-0.116,0.172-0.283,0.279c-0.167,0.109-0.265,0.184-0.293,0.227
				c-0.231-0.029-0.401-0.033-0.51-0.013l-0.326,0.063c-0.117-0.015-0.259-0.07-0.428-0.17c-0.169-0.099-0.294-0.158-0.374-0.18
				l-0.542-0.177c-0.166-0.08-0.402-0.231-0.708-0.454c-0.306-0.222-0.524-0.377-0.654-0.464c0.029-0.042,0.021-0.079-0.021-0.108
				c-0.043-0.027-0.067-0.061-0.075-0.098c-0.159-0.044-0.373-0.227-0.643-0.551c-0.271-0.322-0.47-0.529-0.601-0.615
				c-0.05-0.065-0.064-0.138-0.042-0.217c-0.087-0.06-0.147-0.085-0.184-0.078c-0.051-0.065-0.165-0.268-0.344-0.609
				c-0.18-0.341-0.311-0.615-0.388-0.826c-0.021-0.108-0.105-0.298-0.251-0.57c-0.148-0.272-0.236-0.479-0.265-0.626
				c-0.028-0.144,0.002-0.281,0.089-0.411l-0.076-0.098c-0.05-0.065-0.097-0.113-0.14-0.143c-0.041-0.592-0.051-1.605-0.028-3.037
				c-0.007-0.037,0.02-0.09,0.082-0.157c0.061-0.069,0.089-0.121,0.082-0.157c-0.043-0.218-0.115-0.391-0.215-0.522
				c0.05-0.122,0.08-0.353,0.089-0.692c0.01-0.341,0.054-0.593,0.134-0.76l-0.064-0.043c-0.008-0.037-0.015-0.073-0.021-0.109
				c-0.014-0.072-0.001-0.197,0.039-0.374c0.042-0.177,0.059-0.284,0.052-0.321l-0.043-0.215c-0.014-0.072,0.045-0.348,0.178-0.825
				c0.116-0.36,0.205-0.584,0.263-0.671l-0.053-0.271c0.32-0.476,0.47-0.769,0.449-0.877c0.071-0.014,0.119-0.061,0.142-0.141
				c0.021-0.078,0.05-0.122,0.087-0.129c-0.007-0.036-0.008-0.083,0.001-0.142c0.007-0.058,0.005-0.122-0.01-0.195
				C101.201,76.033,101.644,75.891,102.331,75.756z M102.042,70.232c0.542-0.106,1.053-0.093,1.528,0.039
				c0.028,0.146,0.179,0.342,0.453,0.588c0.05,0.066,0.122,0.146,0.217,0.24l0.086,0.152l0.043,0.218
				c0.042,0.217,0,0.394-0.123,0.53c-0.021,0.08-0.01,0.143,0.037,0.19c0.046,0.048,0.074,0.089,0.082,0.126
				c-0.06,0.087-0.109,0.217-0.149,0.395s-0.072,0.307-0.095,0.385c-0.021,0.08-0.067,0.135-0.136,0.168
				c-0.069,0.031-0.155,0.068-0.261,0.106c-0.104,0.04-0.189,0.085-0.255,0.134c-0.036,0.008-0.075,0.053-0.114,0.137
				c-0.041,0.084-0.08,0.127-0.116,0.135l-0.412,0.193l-0.326,0.063c-0.253,0.05-0.749,0.015-1.486-0.104
				c-0.051-0.064-0.138-0.227-0.264-0.484s-0.231-0.414-0.316-0.474l-0.043-0.217c-0.028-0.145-0.028-0.332,0.002-0.563
				c-0.014-0.261,0.054-0.498,0.198-0.717c0.028-0.042,0.092-0.109,0.187-0.205c0.253-0.236,0.38-0.449,0.381-0.638
				c0.037-0.007,0.156-0.067,0.36-0.183C101.723,70.332,101.896,70.26,102.042,70.232z"/>
		</g>
		<g>
			<path fill="#FAAF40" d="M66.055,105.957c0.2,0,0.449,0.075,0.749,0.225c0.3,0.15,0.516,0.225,0.649,0.225
				c0.166,0.234,0.316,0.35,0.449,0.35c0.033,0.068,0.108,0.159,0.225,0.275c0.116,0.117,0.191,0.242,0.226,0.375
				c0.1,0.033,0.199,0.366,0.299,0.998h0.051c0.032,0,0.1-0.025,0.199-0.074c0.1-0.051,0.166-0.075,0.2-0.075
				c0.066-0.101,0.157-0.175,0.274-0.226c0.116-0.049,0.274-0.1,0.475-0.149c0.199-0.05,0.365-0.091,0.499-0.124
				c0.1-0.033,0.241-0.125,0.425-0.275c0.183-0.15,0.366-0.266,0.549-0.35c0.183-0.082,0.375-0.107,0.574-0.074
				c0.466-0.301,1.049-0.434,1.748-0.4c0.033,0,0.075,0.025,0.125,0.075s0.107,0.093,0.175,0.125
				c0.433-0.066,0.841,0.108,1.224,0.524s0.624,0.641,0.725,0.674c0.065,0.067,0.149,0.217,0.249,0.449c0.101,0.234,0.2,0.4,0.3,0.5
				c0,0.033-0.009,0.074-0.024,0.125c-0.018,0.05-0.025,0.092-0.025,0.125c0,0.066,0.017,0.158,0.05,0.274s0.05,0.208,0.05,0.274
				v0.15c0.033,0,0.066,0.033,0.101,0.1l0.05,0.1v0.15c0,0.1,0.024,0.249,0.074,0.449c0.05,0.199,0.075,0.367,0.075,0.499
				c0.033,0.034,0.066,0.075,0.1,0.125s0.066,0.092,0.101,0.125V112c0,0.1-0.034,0.225-0.101,0.375
				c-0.066,0.149-0.1,0.258-0.1,0.324c-0.1,0.633-0.167,0.967-0.199,0.999c0.065,0.233,0.065,0.384,0,0.449
				c0,0.034,0.016,0.075,0.05,0.125c0.032,0.05,0.05,0.093,0.05,0.125c-0.233,0.466-0.367,0.716-0.399,0.749
				c0.1,0.1,0.149,0.283,0.149,0.549c0,0.168-0.05,0.283-0.149,0.35c0,0.034,0.032,0.051,0.1,0.051c0.066,0,0.083,0.033,0.05,0.1
				c0,0.066-0.033,0.15-0.1,0.25l-0.1,0.1c0,0.1,0.041,0.208,0.124,0.324c0.083,0.117,0.142,0.209,0.175,0.275
				c0,0.033-0.024,0.074-0.074,0.125c-0.05,0.049-0.075,0.107-0.075,0.174v0.1c0,0.034,0.017,0.125,0.05,0.275
				s0.05,0.258,0.05,0.324l-0.05,0.051c0,0.033,0,0.066,0,0.1s0.05,0.083,0.15,0.149c0.065,0.034,0.1,0.083,0.1,0.149
				c0.332-0.032,0.657-0.091,0.974-0.174s0.657-0.2,1.023-0.35c0.366-0.15,0.633-0.258,0.8-0.325c0.132-0.1,0.357-0.241,0.674-0.425
				c0.316-0.182,0.541-0.34,0.674-0.475l0.3-0.1c0.1-0.1,0.466-0.332,1.099-0.699c1.265-1.064,1.964-1.647,2.098-1.748h0.399
				c0.066-0.066,0.158-0.141,0.274-0.225c0.117-0.082,0.191-0.141,0.226-0.174h0.1c0.199,0,0.44-0.066,0.724-0.2
				c0.283-0.133,0.508-0.2,0.675-0.2c0.532,0,0.849,0.234,0.948,0.699v0.55c-0.033,0.2-0.183,0.449-0.449,0.749
				s-0.417,0.533-0.449,0.699l-0.15,0.1c-0.1,0.067-0.167,0.134-0.199,0.199c-0.134,0-0.242,0.025-0.324,0.076
				c-0.084,0.049-0.167,0.125-0.25,0.225c-0.084,0.1-0.143,0.166-0.175,0.199c-0.067,0.067-0.184,0.134-0.35,0.199
				c-0.167,0.068-0.292,0.143-0.375,0.226s-0.125,0.208-0.125,0.374c-0.466,0.268-0.732,0.434-0.799,0.5l-0.05,0.05
				c-0.033,0.033-0.067,0.05-0.1,0.05c-0.233,0-0.384,0.133-0.449,0.399c-0.034,0-0.075,0.009-0.125,0.024
				c-0.05,0.018-0.093,0.025-0.125,0.025c-0.033,0-0.1,0.117-0.2,0.35c-0.066,0.067-0.233,0.15-0.499,0.25
				c-0.267,0.1-0.434,0.217-0.499,0.35c-0.101,0-0.25,0.05-0.45,0.15c-0.199,0.1-0.333,0.166-0.399,0.199
				c-0.1,0.066-0.267,0.143-0.499,0.225c-0.233,0.084-0.399,0.175-0.5,0.275c-0.033,0-0.092,0.016-0.175,0.049
				s-0.142,0.051-0.175,0.051c-0.033,0.032-0.167,0.133-0.399,0.299c-0.233,0.166-0.416,0.25-0.549,0.25h-0.2
				c-0.067,0.033-0.158,0.1-0.274,0.199c-0.117,0.101-0.192,0.15-0.225,0.15c-0.233,0.066-0.367,0.15-0.399,0.25
				c-0.167,0.033-0.375,0.107-0.625,0.225c-0.249,0.116-0.424,0.191-0.523,0.225h-0.25l-0.25,0.05
				c-0.199-0.1-0.333-0.149-0.399-0.149h-0.6c-0.467-0.134-0.799-0.3-0.998-0.5l-0.15-0.299c-0.067-0.134-0.199-0.301-0.399-0.5
				c-0.267-0.432-0.399-0.666-0.399-0.699c-0.333-0.365-0.566-0.799-0.699-1.299c-0.2-0.199-0.383-0.557-0.55-1.073
				c-0.167-0.516-0.267-0.807-0.299-0.874c0-0.033,0.016-0.074,0.05-0.125c0.032-0.05,0.05-0.091,0.05-0.125
				c-0.134-0.266-0.2-0.648-0.2-1.148c0-0.232,0.017-0.399,0.05-0.499c-0.1-0.2-0.1-0.316,0-0.35c-0.1-0.101-0.149-0.3-0.149-0.6
				s-0.018-0.466-0.05-0.499c0.032-0.066,0.083-0.133,0.149-0.2c-0.033-0.065-0.05-0.166-0.05-0.3c0-0.133,0.033-0.266,0.1-0.398
				c-0.066-0.133-0.1-0.233-0.1-0.301l0.15-0.299c-0.034-0.066-0.051-0.15-0.051-0.25c0-0.133,0.033-0.3,0.101-0.5
				c0.066-0.199,0.1-0.35,0.1-0.449c0-0.033,0-0.066,0-0.1l-0.05-0.1c-0.034,0-0.084,0.018-0.15,0.05
				c-0.066,0.033-0.133,0.033-0.199,0c0,0.1-0.05,0.225-0.15,0.374c-0.1,0.15-0.149,0.292-0.149,0.425
				c-0.167,0.101-0.342,0.308-0.524,0.624c-0.184,0.316-0.342,0.525-0.475,0.625v0.1c0,0.066,0.033,0.143,0.101,0.225
				c0.065,0.084,0.1,0.143,0.1,0.175c-0.034,0.1-0.108,0.233-0.225,0.399c-0.117,0.167-0.192,0.316-0.225,0.449
				c0.1,0.2,0.149,0.417,0.149,0.649c0,0.399-0.117,0.667-0.35,0.8c0.066,0.398,0.1,0.666,0.1,0.799
				c-0.033,0.066-0.1,0.125-0.199,0.174c-0.101,0.051-0.15,0.093-0.15,0.125c0,0.067,0.033,0.143,0.101,0.225
				c0.066,0.084,0.1,0.143,0.1,0.176v0.648c-0.1,0.1-0.15,0.234-0.15,0.4v0.149c-0.066,0.033-0.133,0.233-0.199,0.599
				c-0.067,0.068-0.1,0.15-0.1,0.25c0,0.033,0.016,0.092,0.05,0.175c0.032,0.083,0.05,0.142,0.05,0.175
				c0,0.067-0.042,0.15-0.125,0.25s-0.125,0.184-0.125,0.25c-0.033,0-0.149,0.149-0.35,0.449c0.033,0.066,0.042,0.158,0.025,0.274
				c-0.018,0.116-0.009,0.208,0.024,0.274c-0.1,0.2-0.316,0.333-0.648,0.4c-0.034,0.032-0.084,0.107-0.15,0.225
				c-0.067,0.115-0.133,0.191-0.199,0.225h-0.5c-0.199-0.1-0.366-0.15-0.499-0.15c-0.067-0.066-0.25-0.225-0.55-0.475
				c-0.3-0.249-0.499-0.475-0.599-0.674c-0.101-0.033-0.2-0.133-0.3-0.299c-0.101-0.167-0.184-0.267-0.25-0.301
				c-0.033-0.266-0.175-0.531-0.425-0.799c-0.249-0.266-0.392-0.432-0.424-0.499c-0.067-0.532-0.101-1.032-0.101-1.499v-0.35
				c0-0.065,0.017-0.148,0.051-0.249c0.032-0.101,0.05-0.166,0.05-0.2c0-0.032-0.018-0.082-0.05-0.149
				c-0.034-0.066-0.051-0.116-0.051-0.149s0.008-0.083,0.025-0.15c0.017-0.066,0.025-0.116,0.025-0.149s-0.018-0.125-0.051-0.274
				c-0.033-0.15-0.05-0.275-0.05-0.375v-0.15c0-0.299-0.033-0.499-0.1-0.599v-1.149c0.1-0.199,0.133-0.382,0.1-0.549
				c0.101-0.1,0.158-0.225,0.175-0.375c0.017-0.149,0.025-0.332,0.025-0.549s0.017-0.391,0.05-0.524
				c0-0.032,0.025-0.116,0.075-0.249s0.074-0.232,0.074-0.301c0-0.332,0.017-0.516,0.051-0.549c0-0.066-0.034-0.166-0.101-0.3
				c-0.033-0.332-0.009-0.831,0.075-1.498c0.083-0.665,0.125-1.132,0.125-1.398s0.199-0.481,0.599-0.649
				C65.472,106.074,65.789,105.957,66.055,105.957z"/>
			<path fill="#FAAF40" d="M87.28,93.072h0.55c0.066,0.034,0.157,0.1,0.274,0.2c0.116,0.101,0.225,0.167,0.324,0.2
				c0.033,0.033,0.092,0.066,0.175,0.1s0.158,0.074,0.226,0.125c0.065,0.05,0.116,0.092,0.149,0.125
				c0.133,0.133,0.2,0.366,0.2,0.699c0.132,0.133,0.199,0.316,0.199,0.549v0.15c0.1,0.299,0.15,0.482,0.15,0.549v0.15
				c0.166,0.266,0.249,0.482,0.249,0.648c0,0.134-0.033,0.233-0.1,0.3c0.032,0.101,0.083,0.249,0.149,0.45
				c0.066,0.199,0.133,0.366,0.2,0.498c0.066,0.135,0.149,0.25,0.25,0.35c-0.034,0.234-0.018,0.418,0.05,0.55v0.35
				c0,0.433,0.1,0.749,0.3,0.949l-0.15,0.3c0.033,0.066,0.116,0.166,0.25,0.299c0,0.168-0.05,0.367-0.15,0.6
				c-0.1,0.233-0.149,0.399-0.149,0.5c0,0.332-0.018,0.516-0.05,0.549c0.266,0.434,0.399,0.683,0.399,0.749l-0.149,0.749
				c0,0.033,0.032,0.059,0.1,0.075c0.066,0.017,0.1,0.059,0.1,0.125l-0.149,0.499c0,0.067,0.024,0.134,0.074,0.199
				c0.051,0.068,0.075,0.117,0.075,0.15c0,0.1-0.067,0.184-0.199,0.25v0.549c0.1,0.168,0.232,0.25,0.399,0.25
				c0.1,0,0.3-0.074,0.599-0.225c0.3-0.15,0.55-0.241,0.749-0.275h0.45c0.199-0.1,0.432-0.148,0.699-0.148h0.199
				c0.033,0,0.107,0.024,0.225,0.074c0.116,0.05,0.225,0.074,0.325,0.074h0.149c0.865,0.4,1.599,0.816,2.197,1.249
				c0.066,0.267,0.166,0.467,0.3,0.6c0,0.033-0.033,0.116-0.1,0.249c0.1,0.134,0.183,0.325,0.25,0.574
				c0.065,0.25,0.116,0.393,0.149,0.426c0,0.066-0.033,0.148-0.1,0.249c-0.067,0.101-0.101,0.184-0.101,0.249
				c0,0.068,0.025,0.135,0.075,0.201s0.075,0.116,0.075,0.148c0,0.268-0.018,0.45-0.05,0.55c0,0.034-0.018,0.083-0.05,0.149
				c-0.034,0.068-0.051,0.117-0.051,0.15v0.1c0,0.067-0.133,0.316-0.399,0.75c-0.066,0.299-0.167,0.566-0.3,0.799
				c-0.033,0-0.092,0.008-0.175,0.024c-0.083,0.018-0.158,0.009-0.225-0.024V112c0,0.1-0.033,0.225-0.1,0.375
				c-0.067,0.149-0.117,0.309-0.149,0.475c-0.334,0.299-0.783,0.616-1.349,0.948c0,0.101-0.042,0.208-0.125,0.325
				s-0.125,0.191-0.125,0.225h-0.25c0.033,0.133,0.133,0.25,0.3,0.35s0.267,0.166,0.3,0.199c0.865,0.2,1.599,0.3,2.197,0.3
				c0.066-0.032,0.133-0.083,0.2-0.149c0.032,0,0.1,0.05,0.199,0.149l0.25-0.249c0.267-0.033,0.632-0.117,1.099-0.25
				c0.466-0.133,0.815-0.217,1.049-0.25c0.332-0.199,0.582-0.316,0.749-0.35c0.466-0.3,0.782-0.466,0.949-0.5
				c0.1-0.132,0.266-0.266,0.499-0.398c0.232-0.133,0.399-0.25,0.5-0.35l0.749-0.449c0.032,0,0.074,0.008,0.125,0.024
				c0.05,0.017,0.091,0.024,0.124,0.024c0-0.032,0.025-0.074,0.075-0.125c0.05-0.049,0.092-0.107,0.125-0.174
				c0.1,0,0.232-0.066,0.399-0.2c0.166-0.133,0.316-0.2,0.449-0.2c0.133-0.166,0.357-0.332,0.675-0.499
				c0.315-0.166,0.507-0.282,0.574-0.35c0.532-0.366,0.898-0.565,1.099-0.599c0.066-0.066,0.157-0.166,0.274-0.301
				c0.116-0.132,0.225-0.232,0.325-0.299c0.032-0.033,0.082-0.051,0.149-0.051c0.066,0,0.116,0,0.149,0
				c0.466-0.299,0.782-0.465,0.949-0.498c0.033,0,0.083,0.008,0.149,0.024s0.116,0.024,0.15,0.024c0.1,0,0.225-0.008,0.374-0.024
				c0.15-0.017,0.258-0.024,0.325-0.024c0.232,0.066,0.44,0.191,0.624,0.374c0.183,0.183,0.274,0.392,0.274,0.624
				c0,0.133-0.017,0.233-0.05,0.3c-0.199,0.566-0.482,1.016-0.849,1.349c-0.067,0.033-0.15,0.066-0.25,0.1
				c-0.033,0.033-0.067,0.05-0.1,0.05c-0.034,0.067-0.084,0.167-0.15,0.3s-0.133,0.217-0.199,0.25c-0.3,0.433-0.6,0.666-0.899,0.699
				c-0.199,0.433-0.467,0.648-0.799,0.648c-0.067,0.067-0.134,0.168-0.199,0.3c-0.067,0.134-0.15,0.233-0.25,0.3
				s-0.217,0.1-0.35,0.1c-0.067,0.067-0.15,0.184-0.25,0.35c-0.067,0.033-0.167,0.033-0.3,0c-0.033,0.033-0.133,0.134-0.3,0.3
				c-0.166,0.167-0.283,0.317-0.349,0.45h-0.35c-0.101,0.199-0.4,0.398-0.899,0.599s-0.816,0.384-0.949,0.55
				c-0.133,0.033-0.324,0.107-0.574,0.225c-0.249,0.117-0.458,0.191-0.624,0.225c-0.067,0.066-0.566,0.283-1.498,0.648l-0.1-0.049
				c-0.034,0-0.067,0-0.101,0c-0.066,0-0.133,0.066-0.199,0.199c-0.268,0-0.725,0.033-1.374,0.1c-0.648,0.067-1.141,0.1-1.473,0.1
				c-0.333,0-0.583-0.016-0.749-0.049c-0.034-0.033-0.084-0.117-0.15-0.25c-0.066-0.033-0.117-0.025-0.149,0.025
				c-0.033,0.049-0.067,0.074-0.1,0.074c-0.034,0-0.101-0.016-0.2-0.05c-0.1-0.032-0.167-0.017-0.199,0.05
				c-0.367-0.1-0.55-0.166-0.55-0.199h-0.1c-0.2,0-0.425-0.066-0.675-0.2c-0.249-0.133-0.441-0.2-0.574-0.2
				c-0.1-0.1-0.292-0.207-0.574-0.324c-0.283-0.116-0.475-0.241-0.574-0.375c-0.134,0.067-0.233,0.168-0.3,0.301
				c-0.067,0.133-0.125,0.308-0.175,0.523c-0.05,0.217-0.092,0.375-0.125,0.475v0.199c0,0.2-0.05,0.384-0.149,0.55v0.149
				c0,0.134-0.075,0.301-0.225,0.5c-0.15,0.199-0.225,0.383-0.225,0.549l-0.3,0.25v0.3c-0.167,0.101-0.25,0.2-0.25,0.3v0.1
				c-0.499,0.232-0.767,0.399-0.799,0.5c-0.134,0.066-0.383,0.1-0.749,0.1h-0.55c-0.499-0.367-0.849-0.549-1.049-0.549h-0.1
				c-0.067-0.068-0.225-0.218-0.475-0.45c-0.249-0.232-0.449-0.433-0.599-0.599c-0.15-0.167-0.275-0.35-0.375-0.55
				c0-0.033-0.033-0.05-0.1-0.05c-0.134-0.4-0.267-0.666-0.399-0.799c0-0.066,0.032-0.133,0.1-0.2c0-0.032-0.067-0.05-0.2-0.05
				c0-0.066-0.033-0.176-0.1-0.324c-0.067-0.15-0.1-0.258-0.1-0.325c0-0.066,0.017-0.116,0.05-0.149c0-0.033-0.033-0.066-0.1-0.101
				c-0.067-0.032-0.084-0.083-0.05-0.149c0-0.133,0.032-0.199,0.1-0.199c0-0.033-0.067-0.117-0.2-0.25
				c0.033-0.066,0.05-0.184,0.05-0.35c0-0.066-0.008-0.2-0.024-0.4c-0.018-0.199-0.025-0.332-0.025-0.398v-0.301v-0.049
				c-0.033-0.033-0.05-0.066-0.05-0.101c0-0.433,0.017-0.731,0.05-0.899c-0.066-0.199-0.1-0.416-0.1-0.648
				c0-0.166,0.033-0.35,0.1-0.549c0-0.033-0.017-0.059-0.05-0.076c-0.033-0.016-0.05-0.057-0.05-0.125
				c0-0.032,0.008-0.1,0.025-0.199c0.016-0.1,0.041-0.166,0.074-0.199v-0.051l-0.05-0.1l0.2-0.6c0-0.066,0-0.166,0-0.299
				s0.016-0.241,0.05-0.324c0.032-0.084,0.083-0.158,0.149-0.226c-0.033-0.032-0.05-0.083-0.05-0.149s0.017-0.133,0.05-0.2
				c0.033-0.066,0.05-0.132,0.05-0.2c0.033-0.199,0.025-0.523-0.024-0.973c-0.05-0.45-0.059-0.808-0.025-1.074
				c0-0.033,0.033-0.083,0.101-0.15c-0.134-0.199-0.2-0.365-0.2-0.499c0-0.1,0.05-0.2,0.149-0.3
				c-0.133-0.133-0.199-0.383-0.199-0.749c0-0.2,0.017-0.332,0.05-0.399c-0.067-0.399-0.1-0.649-0.1-0.749
				c0-0.166,0.016-0.282,0.05-0.35c0-0.066-0.018-0.232-0.05-0.499c-0.034-0.267-0.05-0.467-0.05-0.6v-0.199
				c0-0.033,0.016-0.092,0.05-0.176c0.032-0.082,0.05-0.157,0.05-0.225v-0.25c0-0.133-0.009-0.307-0.025-0.523
				s-0.024-0.375-0.024-0.475c0-0.033,0.008-0.117,0.024-0.25s0.025-0.232,0.025-0.3v-0.649l0.1-0.199
				c0-0.066-0.009-0.191-0.024-0.375c-0.018-0.182-0.025-0.324-0.025-0.424c0-0.232,0.05-0.449,0.149-0.649
				c-0.033-0.2,0-0.499,0.101-0.899c0.1-0.399,0.149-0.666,0.149-0.799s-0.017-0.199-0.05-0.199c0-0.033,0.017-0.051,0.05-0.051h0.1
				c0.033-0.066,0.033-0.115,0-0.149c-0.033-0.066-0.05-0.116-0.05-0.149c0.066-0.066,0.116-0.133,0.15-0.2v-0.3l0.149-0.549
				c0.366-1.398,0.565-2.164,0.6-2.298c0.1-0.032,0.199-0.116,0.3-0.249c0.1-0.133,0.166-0.217,0.199-0.25l0.1-0.051
				c0.066-0.032,0.133-0.065,0.2-0.1H87.28z M92.524,107.756c-0.067,0-0.192,0.024-0.375,0.074s-0.324,0.075-0.424,0.075h-0.101
				c-0.1,0.067-0.324,0.167-0.674,0.3s-0.558,0.333-0.624,0.6v0.498c0,1,0.3,1.499,0.898,1.499c0.166,0,0.308-0.032,0.425-0.101
				c0.116-0.066,0.225-0.174,0.324-0.324c0.101-0.149,0.183-0.24,0.25-0.274c0.033-0.032,0.116-0.083,0.25-0.149
				c0.133-0.066,0.199-0.117,0.199-0.15c0.101-0.1,0.15-0.332,0.15-0.699v-0.299c0.066,0,0.1-0.018,0.1-0.051
				c0-0.066,0.008-0.15,0.025-0.25c0.016-0.1,0.024-0.182,0.024-0.249v-0.149c0-0.033-0.024-0.076-0.075-0.125
				c-0.05-0.051-0.092-0.108-0.124-0.176C92.707,107.772,92.624,107.756,92.524,107.756z"/>
		</g>
		<g>
			<path fill="#FAAF40" d="M117.235,111.104c-1.903,1.133-2.609,1.601-2.639,3.311c-0.014,1.168-0.717,2.263-1.881,2.472
				c-1.036,0.181-2.154-0.426-2.217-1.532c-0.02-1.116,0.084-2.081,0.396-2.91c0.608-1.523,1.39-2.052,3.789-3.382
				c1.794-1.02,3.155-1.766,3.985-3.919c0.6-1.564,0.562-3.798,0.179-5.552c-0.168-0.771-0.52-2.173-1.847-2.914
				c-0.919-0.518-2.32-0.568-3.731-0.261c-1.199,0.262-2.052,0.672-2.722,1.086c-0.748,0.478-1.768,0.118-1.955-0.738
				c-0.252-1.155,0.199-2.374,1.317-2.797c0.913-0.335,1.911-0.687,3.11-0.948c6.674-1.456,9.374,1.674,10.177,5.354
				c0.337,1.541,0.344,3.421,0.196,4.798c-0.443,4.132-2.31,5.436-4.221,6.748L117.235,111.104z M113.003,119.646
				c1.241-0.271,2.294,0.441,2.583,1.768c0.355,1.627-0.693,3.603-2.361,3.967c-0.941,0.205-2.347-0.07-2.711-1.739
				C110.084,121.673,111.591,119.955,113.003,119.646z"/>
		</g>
	</g>
	<g>
		<path fill="#F6921E" d="M98.283,28.238c0,0-1.441,2.6,0.559,3.111c2,0.516,2.916-1.465,1.881-2.492
			C99.683,27.828,98.283,28.238,98.283,28.238z"/>
		<path fill="#F6921E" d="M102.466,36.885c0,0,0.695,3.055,1.375,0.982c0.682-2.07,0.031-3.566-1.225-2.824
			C101.359,35.787,102.466,36.885,102.466,36.885z"/>
		<path fill="#F6921E" d="M104.042,26.146c0,0-1.223,2.188,1.061,2.443c2.283,0.254,3.275-4.127,1.902-3.729
			C105.634,25.262,104.042,26.146,104.042,26.146z"/>
		<path fill="#F6921E" d="M98.162,23.961c0,0-0.51-2.541,1.654-2.098c2.166,0.441,1.625,1.465,0.863,1.994
			C99.921,24.381,98.162,23.961,98.162,23.961z"/>
		<g>
			<path fill="#F6921E" d="M83.738,59.328c0,0-1.797,2.936,0.836,2.736s6.174-2.178,4.652-3.566
				C87.708,57.105,83.738,59.328,83.738,59.328z"/>
			<path fill="#F6921E" d="M96.142,60.162c-0.98,0.305-0.361,4.176,1.633,3.77c1.996-0.408,2.488-4.531,0.846-3.641
				S96.734,59.979,96.142,60.162z"/>
			<path fill="#F6921E" d="M106.978,55.461c0,0-2.389,2.166-0.326,2.682C108.716,58.656,107.781,54.535,106.978,55.461z"/>
			<path fill="#F6921E" d="M101.462,51.445c0,0-2.156,2.012-0.254,2.533C103.107,54.498,103.21,51.529,101.462,51.445z"/>
		</g>
		<g>
			<path fill="#F6921E" d="M77.791,49.291c0,0-1.006,2.592,0.928,2.695c1.93,0.105,4.34-1.383,3.057-2.875
				C80.49,47.617,77.791,49.291,77.791,49.291z"/>
			<path fill="#F6921E" d="M76.902,54.813c0,0-2.387,2.166-0.326,2.68C78.64,58.006,77.703,53.889,76.902,54.813z"/>
			<path fill="#F6921E" d="M89.138,44.172c0,0-2.156,2.014-0.254,2.533C90.783,47.225,90.886,44.258,89.138,44.172z"/>
		</g>
	</g>
</g>
</svg>
