<svg width="23" height="23" viewBox="0 0 23 23" fill="none" xmlns="http://www.w3.org/2000/svg">
<path d="M11.5 10.4458C10.9154 10.4458 10.4458 10.9154 10.4458 11.5C10.4458 12.0846 10.9154 12.5542 11.5 12.5542C12.0846 12.5542 12.5542 12.0846 12.5542 11.5C12.5542 10.9154 12.0846 10.4458 11.5 10.4458ZM11.5 1.91666C6.20999 1.91666 1.91666 6.20999 1.91666 11.5C1.91666 16.79 6.20999 21.0833 11.5 21.0833C16.79 21.0833 21.0833 16.79 21.0833 11.5C21.0833 6.20999 16.79 1.91666 11.5 1.91666ZM13.5987 13.5987L5.74999 17.25L9.40124 9.40124L17.25 5.74999L13.5987 13.5987Z" fill="#BDBDBD"/>
</svg>
