<?xml version="1.0" encoding="utf-8"?>
<!-- Generator: Adobe Illustrator 16.0.0, SVG Export Plug-In . SVG Version: 6.00 Build 0)  -->
<!DOCTYPE svg PUBLIC "-//W3C//DTD SVG 1.1//EN" "http://www.w3.org/Graphics/SVG/1.1/DTD/svg11.dtd">
<svg version="1.1" id="Layer_1" xmlns="http://www.w3.org/2000/svg" xmlns:xlink="http://www.w3.org/1999/xlink" x="0px" y="0px"
	 width="128.189px" height="169.564px" viewBox="0 0 128.189 169.564" enable-background="new 0 0 128.189 169.564"
	 xml:space="preserve">
<g>
	<path fill="#FFFFFF" d="M10.501,29.337c-0.591-8.848,16.551-15.676,23.479-16c1.951-0.092,5.564,0.732,7.367,0.016
		c2.996-1.193,2.102-2.074,3.801-3.531c3.603-3.091,5.034-3.842,11.353-3.818c4.358,0.018,9.108,0.954,12.796-0.449
		c6.149-2.34,8.897-5.423,15.921-5.551c11.809-0.214,15.683,10.072,11.868,20.305c4.594-5.164,8.008-0.011,7.431,5.076
		c-0.404,3.561-2.759,6.328-3.997,9.669c6.116,0.929,10.621-1.741,13.311,5.437c3.019,8.061-1.65,7.662-6.16,10.963
		c-4.451,3.259-4.569,8.376-7.573,13.271c-2.074,3.381-7.228,9.245-6.196,13.194c3.585,0.158,7.354-0.29,10.501,0.885
		c0.514,0.191,1.396,2.431,2.44,2.863c1.402,0.579,4.937,0.227,6.173,0.993c3.894,2.413,1.801,4.691,6.967,6.023
		c6.15,1.586,6.307-3.017,7.853,4.654c1.492,7.407-2.069,15.92-4.153,22.44c-1.739,5.442-5.374,20.37-12.432,16.458
		c-0.084,3.595-2.627,3.987-3.744,6.905c-1.426,3.724-0.224,7.399-1.004,11.366c-2.392,12.159-8.675-1.144-14.914,3.933
		c-1.757,1.431-1.355,7.143-3.235,9.287c-2.525,2.881-5.997,3.306-9.416,4.242c-6.712,1.837-13.87,1.004-21.251,0.667
		c-6.725-0.308-17.52,2.307-23.719-0.099c-9.064-3.517-3.925-12.14-8.236-17.115c-1.24-1.434-8.165-1.218-10.43-3.067
		c-2.94-2.403-3.44-4.279-4.427-7.851c-1.846-6.685-1.6-14.021-3.67-20.633c-2.795-8.918-10.906-20.357-5.237-30.423
		c2.6-4.614,7.647-3.719,11.363-5.599c2.228-1.126,4.183-3.886,6.344-4.595c1.741-0.571,6.293,1.279,7.688-0.003
		c3.361-3.093-11.124-18.708-10.222-25.267c0.917-6.68,3.506-4.492-1.858-11.514C9.414,37.427,10.501,29.337,10.501,29.337z"/>
	<g>
		<path fill="#7CCDCD" d="M24.117,54.444c4.738,13.657,24.513,27.93,31.945,37.981c0,6.671,2.047,48.839-0.521,54.506
			c-17.129,3.852-23.825,7.109-19.611,10.546c6.027,6.727,30.059,4.394,40.031,3.548c7.635-0.647,14.413-4.734,5.3-9.642
			c-4.744-2.556-10.696-3.055-16.02-4.515c-0.434-8.858,0.509-47.253-0.521-54.814c10.059-9.761,28.275-24.689,33.33-37.61
			C99.248,51.985,22.947,52.984,24.117,54.444z"/>
		<path fill="#231F20" d="M56.524,162.86c-0.001,0-0.001,0-0.002,0c-11.24,0-18.147-1.583-21.113-4.839
			c-1.174-0.974-1.642-2.01-1.39-3.078c0.681-2.891,6.958-5.484,20.968-8.656c1.775-5.238,0.945-32.219,0.542-45.342
			c-0.115-3.738-0.207-6.734-0.217-8.27c-2.632-3.502-6.81-7.58-11.229-11.893c-8.2-8.003-17.488-17.068-20.633-25.97l-0.215-0.269
			l0.196-0.479c0.265-0.552,0.474-0.987,15.092-1.442c8.49-0.265,19.479-0.423,29.396-0.423c29.684,0,30.41,1.162,30.759,1.72
			c0.162,0.26,0.179,0.578,0.046,0.852C94.59,65.348,81.893,77.099,71.69,86.54c-2.229,2.063-4.34,4.017-6.18,5.793
			c0.571,5.005,0.483,20.102,0.407,33.463c-0.049,8.564-0.096,16.677,0.049,20.491c1.531,0.398,3.134,0.732,4.689,1.057
			c3.758,0.783,7.644,1.593,10.96,3.38c3.542,1.907,5.126,3.898,4.707,5.917c-0.622,2.995-5.621,4.735-10.299,5.132l-1.133,0.097
			C70.295,162.264,63.349,162.86,56.524,162.86z M25.073,54.876c3.22,8.399,12.153,17.117,20.059,24.834
			c4.546,4.437,8.84,8.627,11.534,12.27l0.147,0.199v0.247c0,1.421,0.096,4.533,0.217,8.474c0.621,20.191,1.122,42.09-0.805,46.342
			l-0.154,0.34l-0.364,0.082c-12.913,2.903-19.717,5.469-20.226,7.625c-0.042,0.177-0.169,0.717,0.924,1.608l0.084,0.08
			c2.606,2.908,9.347,4.384,20.035,4.384c0,0,0.001,0,0.002,0c6.761,0,13.667-0.593,18.238-0.985l1.134-0.097
			c4.723-0.4,8.574-2.096,8.957-3.942c0.261-1.256-1.142-2.78-3.949-4.292c-3.125-1.684-6.902-2.471-10.555-3.231
			c-1.758-0.366-3.576-0.745-5.308-1.22l-0.524-0.145l-0.026-0.542c-0.175-3.582-0.128-11.709-0.074-21.119
			c0.079-13.669,0.168-29.162-0.44-33.631l-0.051-0.376l0.272-0.264c1.915-1.858,4.129-3.907,6.474-6.077
			c9.913-9.174,22.207-20.551,26.459-30.723c-2.036-0.496-10.578-1.016-29.211-1.016C48.936,53.701,28.911,54.266,25.073,54.876z"/>
	</g>
	<path fill="#C5E7E9" d="M39.149,155.171c3.482-7.161,27.363,7.332,31.798-1.889c2.119-4.408,13.215,1.426,9.794,3.418
		C77.318,158.69,45.774,162.11,39.149,155.171z"/>
	<path fill="#BE1E2D" d="M35.05,66.034c0,0,46.507-0.45,49.471,0c2.965,0.45-18.543,18.232-20.566,20.646
		c-2.021,2.414-9.265,1.114-14.082-5.558S35.05,66.034,35.05,66.034z"/>
	<ellipse fill="#F6921E" cx="60.301" cy="65.998" rx="25.251" ry="1.148"/>
	<g>
		<path fill="#77111A" d="M58.579,83.783c-0.755,0.007,2.447-4.821,3.767-6.602c1.364-1.84,2.539-3.947,3.734-5.904
			c3.259-5.334,7.887-9.797,10.812-15.132c2.604-4.755,6.238-9.229,9.17-13.808c1.755-2.738,3.721-6.108,5.554-8.778
			c1.922-2.793,5.635-10.085,6.539-8.134c-4.84,8.411-9.701,16.404-15.08,24.669c-2.948,4.529-6.354,8.204-9.133,12.763
			c-2.46,4.037-4.876,7.834-7.158,11.813C66.783,74.67,59.576,84.099,58.579,83.783z"/>
		<path fill="#468885" d="M80.972,59.646c-0.439,5.484-1.497,9.731-5.795,12.936c-1.641,1.223-3.814,3.049-6.098,2.581
			c-1.197-0.244-2.561-1.089-3.477-1.606c-1.248-0.704-1.883-0.646-2.567-2.219c-2.153-4.947,1.941-12.007,6.125-14.551
			c1.683-1.023,4.444-2.796,6.593-2.147c1.215,0.365,1.532,1.115,2.49,1.952C79.225,57.453,81.101,58.044,80.972,59.646z"/>
		<path fill="#C3996B" d="M80.56,53.67c0.858-1.152,1.704-2.33,2.514-3.575c5.379-8.265,10.24-16.258,15.08-24.669
			c-0.904-1.951-4.617,5.341-6.539,8.134c-1.833,2.67-3.799,6.04-5.554,8.778c-2.418,3.774-5.306,7.481-7.706,11.332H80.56z"/>
		<path fill="#77111A" d="M62.526,67.146c-0.181,1.462-0.052,2.899,0.51,4.191c0.685,1.572,1.319,1.515,2.567,2.219
			c0.916,0.518,2.279,1.362,3.477,1.606c2.283,0.468,4.457-1.358,6.098-2.581c2.088-1.558,3.409-3.363,4.267-5.436H62.526z"/>
		<path opacity="0.5" fill="#C5E7E9" d="M73.894,55.7c0,0,0.568-1.39,2.213,0c1.643,1.393,1.833,2.633,2.972,2.813
			c1.138,0.179,2.022,1.146,0.757,1.984c-1.264,0.837-4.064-0.635-4.465-1.984c-0.402-1.352-0.212-1.789-1.097-2.058
			C73.388,56.188,73.894,55.7,73.894,55.7z"/>
	</g>
	<path fill="#5AB1AF" d="M60.341,52.68c0,0-5.209,10.272-8.06,11.938c-2.853,1.665-5.034,2.209-6.503,1.457
		c1.286-1.112,7.896-13.477,7.896-13.477L60.341,52.68z"/>
	<rect x="77.268" y="52.315" fill="#231F20" width="5.234" height="1.469"/>
	<path opacity="0.5" fill="#C5E7E9" d="M60.533,56.685c0.371-1.296-17.874-1.738-16.389,2.038
		c1.744,4.436,14.982,31.471,15.168,33.14c0.184,1.666-1.321,55.771-0.186,56.447C64.777,151.673,60.533,56.685,60.533,56.685z"/>
	<g>
		<path fill="#231F20" d="M11.49,89.148c0.007,0.036,0.228,0.106,0.661,0.21c0.222,0.182,0.436,0.309,0.638,0.383
			c0.021,0.107,0.11,0.231,0.271,0.368c0.156,0.139,0.251,0.28,0.279,0.426c0.215,0.146,0.316,0.276,0.302,0.392
			c0.043,0.029,0.104,0.056,0.185,0.076l0.12,0.033c0.063,0.139,0.202,0.318,0.414,0.539c0.213,0.223,0.343,0.461,0.393,0.713
			c0.196,0.038,0.373,0.229,0.534,0.572s0.285,0.547,0.371,0.604c-0.073,0.391-0.106,0.604-0.1,0.639
			c0.007,0.036,0.065,0.044,0.173,0.023l0.12,0.032c0.05,0.066,0.105,0.158,0.166,0.277c0.062,0.121,0.117,0.213,0.167,0.277
			c0.051,0.066,0.131,0.088,0.239,0.066c-0.029,0.045-0.034,0.119-0.013,0.229c0.007,0.036,0.042,0.115,0.103,0.232
			c0.06,0.121,0.079,0.221,0.059,0.3c0.007,0.036-0.009,0.097-0.05,0.179c-0.04,0.083-0.054,0.16-0.039,0.232
			c-0.022,0.081,0.013,0.121,0.108,0.121c0.094,0,0.144,0.02,0.15,0.055l0.021,0.109c0.021,0.107,0.086,0.245,0.194,0.412
			c0.106,0.167,0.165,0.269,0.172,0.305l-0.034,0.119c0.174,0.305,0.263,0.475,0.27,0.511c0.021,0.109-0.012,0.228-0.1,0.357
			c0.079,0.022,0.127,0.07,0.142,0.142c0.028,0.146,0.14,0.387,0.338,0.723c0.197,0.338,0.313,0.598,0.349,0.778l0.021,0.108
			c-0.159,0.145-0.221,0.307-0.186,0.487l0.021,0.108c0.021,0.108,0.113,0.204,0.28,0.284c0.166,0.08,0.252,0.138,0.259,0.175
			l0.032,0.162c0.021,0.109,0.078,0.249,0.167,0.419c0.09,0.171,0.141,0.292,0.155,0.364c0.028,0.146-0.001,0.281-0.089,0.412
			c0.007,0.037,0.069,0.119,0.189,0.244c0.118,0.127,0.203,0.225,0.253,0.289c0.015,0.072,0.008,0.186-0.019,0.342
			c-0.024,0.156-0.031,0.27-0.017,0.342c0.007,0.037,0.035,0.087,0.086,0.152c0.129,0.275,0.242,0.479,0.344,0.609
			c-0.195,0.15-0.197,0.246,0,0.281c-0.095,0.095-0.138,0.216-0.126,0.363c0.009,0.148-0.016,0.266-0.073,0.354
			c0.042,0.029,0.084,0.096,0.124,0.199c0.038,0.105,0.081,0.174,0.124,0.202c-0.022,0.08-0.023,0.174-0.002,0.282
			c-0.021,0.08-0.025,0.154-0.012,0.229c0.057,0.102,0.213,0.127,0.467,0.078l0.216-0.043c0.377,0.002,0.729-0.029,1.055-0.093
			l0.434-0.085c0.435-0.084,0.737-0.068,0.91,0.047c0.06-0.086,0.16-0.145,0.305-0.172c0.253-0.05,0.438-0.065,0.555-0.052
			c0.079-0.166,0.088-0.411,0.024-0.737l-0.074-0.381c-0.014-0.07-0.042-0.169-0.086-0.293c-0.043-0.123-0.067-0.203-0.074-0.239
			l-0.159-0.813c-0.044-0.029-0.021-0.109,0.065-0.238c-0.014-0.072-0.038-0.105-0.074-0.098c-0.044-0.029-0.069-0.063-0.076-0.1
			c-0.014-0.259-0.118-0.605-0.314-1.036c-0.197-0.432-0.267-0.784-0.207-1.06c-0.115-0.203-0.18-0.34-0.193-0.413
			c-0.007-0.035,0.012-0.134,0.056-0.293c-0.007-0.036-0.025-0.079-0.055-0.13c-0.029-0.052-0.046-0.095-0.053-0.131l-0.094-0.771
			l0.012-0.228c-0.007-0.037,0.021-0.174,0.088-0.412l-0.074-0.381c-0.015-0.072,0.009-0.15,0.066-0.237l-0.063-0.326
			c0.059-0.087,0.084-0.148,0.077-0.185l-0.011-0.055c-0.043-0.027-0.051-0.064-0.021-0.108c0.035-0.007,0.051-0.028,0.044-0.065
			c-0.021-0.108-0.048-0.244-0.079-0.407c-0.032-0.162-0.037-0.282-0.016-0.362c0.028-0.043,0.063-0.115,0.099-0.217
			c0.037-0.102,0.07-0.172,0.1-0.217c-0.07-0.361-0.081-0.604-0.029-0.727l-0.032-0.164c-0.014-0.07-0.02-0.192-0.015-0.363
			c0.004-0.17,0-0.29-0.015-0.362l-0.042-0.218l-0.159-0.814c-0.063-0.325-0.038-0.574,0.079-0.749
			c-0.043-0.028-0.102-0.036-0.173-0.022l-0.085-0.434c0.028-0.042,0.08-0.118,0.152-0.227s0.12-0.202,0.142-0.282
			c-0.014-0.071-0.059-0.109-0.135-0.114c-0.075-0.004-0.136-0.021-0.179-0.051l-0.064-0.042l-0.011-0.055
			c-0.014-0.072-0.004-0.169,0.028-0.287c0.033-0.12,0.046-0.198,0.039-0.233c-0.063-0.326-0.081-0.51-0.052-0.555
			c-0.021-0.107-0.074-0.19-0.161-0.25c0.001-0.375-0.009-0.619-0.029-0.727c-0.028-0.145-0.067-0.25-0.118-0.314
			c0.073-0.203,0.119-0.455,0.135-0.76c0.094-0.094,0.264-0.136,0.51-0.128c0.246,0.009,0.397-0.03,0.456-0.117
			c0.073-0.015,0.147-0.01,0.229,0.013c0.079,0.022,0.137,0.028,0.173,0.021c0.071-0.014,0.121-0.051,0.147-0.113
			c0.024-0.061,0.056-0.096,0.093-0.104c0.042,0.031,0.129,0.042,0.26,0.035c0.13-0.006,0.214-0.014,0.25-0.021
			c0.072-0.015,0.158-0.003,0.26,0.034c0.102,0.036,0.191,0.066,0.271,0.087l0.434-0.085c0.146-0.027,0.34,0.01,0.586,0.111
			c0.245,0.103,0.44,0.14,0.585,0.111l0.108-0.021c0.087,0.059,0.251,0.13,0.494,0.215c0.241,0.085,0.405,0.155,0.491,0.214
			c0.165,0.269,0.471,0.528,0.914,0.779s0.727,0.497,0.848,0.737c0.087,0.058,0.199,0.148,0.335,0.271
			c0.137,0.123,0.248,0.215,0.336,0.273c0.099,0.507,0.098,0.789-0.004,0.846c0.007,0.037,0.039,0.059,0.097,0.066
			s0.091,0.029,0.098,0.065l0.032,0.162c0.057,0.29,0.25,0.515,0.582,0.676c0.115,0.202,0.193,0.413,0.236,0.63l0.223,1.141
			c0.101,0.131,0.158,0.233,0.172,0.305l0.063,0.326c0.015,0.073,0.043,0.171,0.086,0.293c0.042,0.124,0.067,0.203,0.075,0.238
			c0.028,0.146-0.009,0.247-0.11,0.305l0.106,0.543c0.077,0.398,0.087,0.639,0.028,0.727c0.007,0.036,0.038,0.096,0.092,0.179
			c0.054,0.085,0.069,0.166,0.048,0.245c0.1,0.131,0.201,0.411,0.306,0.842c0.102,0.432,0.244,0.725,0.425,0.875
			c-0.022,0.08-0.016,0.21,0.02,0.392c0.014,0.072,0.046,0.188,0.095,0.348c0.051,0.159,0.083,0.274,0.098,0.347l-0.067,0.239
			l0.063,0.326c0.008,0.036-0.008,0.058-0.043,0.064c-0.028,0.044-0.04,0.084-0.033,0.119l0.042,0.217
			c-0.015,0.116-0.055,0.2-0.12,0.249c-0.022,0.08,0.007,0.132,0.086,0.152c0.035-0.007,0.058,0.008,0.064,0.045
			c-0.021,0.079-0.022,0.22-0.001,0.422c0.02,0.203,0.037,0.34,0.052,0.412c0.007,0.036,0.002,0.104-0.018,0.201
			c-0.019,0.098-0.023,0.165-0.017,0.201s0.051,0.111,0.13,0.229c0.078,0.117,0.129,0.229,0.149,0.336l0.043,0.219l0.138,0.705
			c-0.051,0.122-0.059,0.33-0.02,0.623c0.038,0.294,0.05,0.498,0.035,0.613c-0.138,0.066-0.231,0.158-0.283,0.281
			s-0.088,0.271-0.11,0.444c-0.023,0.174-0.063,0.304-0.121,0.39c0.101,0.133,0.169,0.286,0.204,0.468
			c0.028,0.145,0.01,0.243-0.056,0.293c-0.021,0.079-0.006,0.114,0.048,0.104c0.055-0.012,0.086,0.001,0.093,0.036
			c0.028,0.146,0.011,0.825-0.053,2.041c-0.029,0.043-0.092,0.111-0.187,0.206c0.015,0.072,0.015,0.165,0,0.28
			c-0.017,0.116-0.019,0.192-0.012,0.228l0.065,0.044c0.014,0.073,0.024,0.128,0.031,0.163c-0.053,0.123-0.058,0.284-0.02,0.483
			c0.039,0.199,0.051,0.356,0.037,0.472c0.007,0.036,0.001,0.111-0.013,0.229l0.021,0.108c0.007,0.036-0.02,0.098-0.077,0.185
			c-0.059,0.086-0.1,0.169-0.12,0.248c0.035,0.182-0.012,0.332-0.139,0.449c-0.127,0.119-0.188,0.198-0.181,0.233l-0.043,0.064
			c-0.021,0.08-0.047,0.141-0.075,0.185c-0.061,0.087-0.149,0.207-0.269,0.361c-0.12,0.156-0.195,0.256-0.225,0.298l-0.542,0.106
			c-0.108,0.021-0.3,0.058-0.57,0.111c-0.271,0.053-0.458,0.108-0.56,0.166l-0.543,0.105c-0.29,0.057-0.515,0.063-0.673,0.018
			c-0.08-0.021-0.205-0.082-0.374-0.18c-0.169-0.1-0.294-0.159-0.373-0.182l-0.045,0.066l-0.043,0.064l-0.715-0.199
			c-0.036,0.008-0.111-0.035-0.221-0.125c-0.113-0.092-0.227-0.145-0.343-0.16c-0.043-0.027-0.124-0.106-0.242-0.234
			c-0.119-0.127-0.223-0.219-0.308-0.277c-0.051-0.065-0.117-0.165-0.2-0.3c-0.081-0.133-0.149-0.233-0.198-0.3
			c-0.051-0.064-0.043-0.112,0.027-0.145c0.069-0.033,0.1-0.066,0.093-0.104c-0.231-0.03-0.375-0.189-0.432-0.479l-0.085-0.435
			c-0.007-0.035-0.04-0.104-0.098-0.206c-0.057-0.102-0.093-0.188-0.107-0.261c-0.05-0.065-0.086-0.152-0.106-0.262
			c-0.021-0.107-0.035-0.18-0.043-0.217l-0.01-0.055c-0.044-0.029-0.069-0.062-0.076-0.098l-0.032-0.163
			c-0.085-0.435-0.188-0.677-0.311-0.729c-0.298,0.21-0.663,0.355-1.098,0.44l-1.684,0.328c-0.434,0.085-0.822,0.217-1.163,0.396
			c0.008,0.036-0.005,0.113-0.038,0.232c-0.033,0.121-0.043,0.215-0.029,0.289l0.021,0.107c-0.138,0.064-0.203,0.256-0.198,0.574
			c0.006,0.318-0.003,0.518-0.023,0.596l0.223,1.141c0.007,0.037-0.002,0.096-0.023,0.174c0.021,0.109,0.055,0.179,0.098,0.207
			c-0.096,0.094-0.172,0.229-0.23,0.41s-0.103,0.294-0.132,0.336c-0.029,0.045-0.076,0.092-0.142,0.141
			c-0.065,0.051-0.113,0.098-0.142,0.141c-0.037,0.008-0.074,0.109-0.109,0.304c-0.088,0.13-0.226,0.288-0.415,0.476
			c-0.073,0.203-0.189,0.374-0.349,0.52l-0.108,0.021c-0.073,0.015-0.147,0.067-0.225,0.156c-0.076,0.091-0.133,0.139-0.168,0.146
			l-0.326,0.063c-0.132,0.102-0.232,0.158-0.304,0.172c-0.109,0.021-0.309,0.015-0.598-0.023s-0.507-0.043-0.651-0.015l-0.271,0.053
			c-0.036,0.008-0.058-0.006-0.064-0.043l-0.119-0.033c-0.079-0.021-0.155-0.026-0.228-0.013c-0.073,0.015-0.127,0.025-0.162,0.032
			c-0.037,0.007-0.078-0.002-0.12-0.032c-0.052-0.065-0.115-0.108-0.194-0.131c-0.037,0.007-0.104,0.001-0.201-0.018
			s-0.165-0.024-0.2-0.018c-0.124-0.051-0.336-0.179-0.639-0.382l-0.194-0.131c-0.499-0.241-0.751-0.381-0.758-0.416
			c-0.649-0.248-1.021-0.609-1.113-1.08c-0.129-0.087-0.205-0.186-0.227-0.294l-0.085-0.434l-0.259-0.458l-0.019-0.391
			c-0.021-0.107-0.108-0.26-0.258-0.456c-0.151-0.196-0.237-0.349-0.259-0.458l-0.031-0.162c-0.015-0.072-0.027-0.183-0.038-0.33
			c-0.009-0.148-0.021-0.259-0.035-0.332l-0.031-0.163c-0.007-0.035,0.009-0.095,0.049-0.179c0.04-0.082,0.057-0.143,0.05-0.18
			l-0.021-0.107c-0.172-0.305-0.293-0.637-0.363-0.999l-0.212-1.086c-0.008-0.037-0.024-0.071-0.05-0.104
			c-0.024-0.032-0.041-0.066-0.048-0.104l-0.042-0.217c-0.043-0.217-0.054-0.365-0.03-0.445c-0.131-0.275-0.205-0.467-0.227-0.576
			c-0.056-0.289-0.051-0.555,0.015-0.791l-0.042-0.218c-0.106-0.543-0.135-0.875-0.082-0.998c-0.167-0.081-0.267-0.21-0.302-0.394
			c-0.007-0.035-0.015-0.118-0.021-0.248c-0.006-0.131-0.016-0.231-0.03-0.304c-0.088-0.058-0.138-0.124-0.151-0.196
			c-0.028-0.145-0.036-0.332-0.025-0.559c0.013-0.229,0.012-0.378-0.003-0.451l-0.021-0.108c-0.007-0.036-0.061-0.11-0.156-0.224
			c-0.098-0.112-0.172-0.2-0.222-0.267l-0.042-0.218c-0.021-0.107-0.045-0.318-0.067-0.633c-0.024-0.316-0.054-0.564-0.09-0.744
			l-0.042-0.219c-0.007-0.035-0.031-0.115-0.075-0.238c-0.042-0.123-0.07-0.221-0.085-0.293l-0.021-0.109
			c-0.007-0.035-0.001-0.093,0.021-0.174c0.021-0.078,0.026-0.154,0.013-0.227c-0.007-0.035-0.035-0.125-0.08-0.267
			c-0.047-0.141-0.077-0.247-0.092-0.321c-0.021-0.109-0.021-0.201,0.002-0.281c-0.007-0.037-0.041-0.067-0.104-0.093
			c-0.062-0.025-0.095-0.057-0.102-0.093c-0.133-1.252-0.201-1.896-0.208-1.932c-0.015-0.072-0.001-0.189,0.044-0.348
			c0.044-0.158,0.056-0.293,0.035-0.401l-0.085-0.435c0.044-0.158,0.069-0.313,0.078-0.467c-0.052-0.064-0.059-0.101-0.021-0.107
			l0.043-0.065c-0.007-0.035-0.022-0.117-0.048-0.244c-0.024-0.127-0.004-0.215,0.061-0.266c-0.021-0.108-0.004-0.789,0.055-2.04
			c0.028-0.042,0.052-0.113,0.071-0.211c0.018-0.096,0.06-0.172,0.126-0.222L8.28,91.185c-0.07-0.361,0.237-0.798,0.928-1.309
			C9.475,89.711,10.236,89.47,11.49,89.148z"/>
	</g>
	<g>
		<path fill="#468885" d="M43.884,86.591l0.532-0.037c1.06-0.137,1.996-0.169,2.813-0.096c0.031-0.002,0.074,0.012,0.123,0.041
			c0.051,0.029,0.092,0.042,0.125,0.039c0.132,0.025,0.287,0.045,0.466,0.065c0.18,0.021,0.32,0.06,0.421,0.118
			c0.003,0.031,0.038,0.078,0.107,0.139c0.031-0.002,0.099,0.01,0.196,0.034c0.1,0.026,0.182,0.052,0.25,0.08
			c0.166,0.085,0.374,0.259,0.618,0.517s0.448,0.415,0.614,0.469l0.513,1.082c0.271,0.662,0.414,1.073,0.425,1.234
			c0.026,0.388,0.073,0.612,0.144,0.671c-0.026,0.099-0.033,0.229-0.021,0.392c0.026,0.387,0.156,0.637,0.391,0.75
			c0.007,0.097-0.003,0.202-0.027,0.318c-0.024,0.115-0.034,0.203-0.029,0.268c0.002,0.033,0.029,0.08,0.082,0.141
			c0.054,0.063,0.082,0.125,0.087,0.189c0.002,0.031-0.011,0.098-0.036,0.196c-0.025,0.1-0.036,0.183-0.032,0.245l0.007,0.098
			c0.004,0.064,0.048,0.102,0.13,0.112s0.124,0.032,0.127,0.064c0.002,0.032-0.004,0.073-0.017,0.122
			c-0.014,0.049-0.019,0.09-0.016,0.123c0.006,0.096,0.04,0.232,0.101,0.406s0.093,0.293,0.098,0.357l0.007,0.098
			c0.002,0.031-0.012,0.082-0.039,0.148c-0.028,0.066-0.039,0.131-0.035,0.195c0.01,0.13-0.002,0.213-0.032,0.246
			c0.069,0.061,0.119,0.203,0.151,0.427c0.032,0.225,0.081,0.367,0.15,0.427c-0.026,0.1-0.033,0.229-0.021,0.392
			c0.016,0.226,0.079,0.448,0.191,0.667c-0.026,0.099-0.029,0.276-0.012,0.535c0.021,0.322-0.045,0.537-0.198,0.646
			c0.002,0.032,0.014,0.081,0.034,0.144c0.021,0.064,0.031,0.112,0.033,0.144c0.014,0.193-0.058,0.345-0.212,0.451l0.033,0.484
			c0.021,0.323-0.012,0.552-0.099,0.688c0.003,0.033,0.041,0.127,0.116,0.283c-0.023,0.133-0.032,0.229-0.028,0.294
			c0.036,0.063,0.059,0.158,0.068,0.287c0.009,0.129,0.046,0.208,0.113,0.234c-0.098,0.007-0.188,0.079-0.276,0.215
			c0.007,0.096,0.056,0.223,0.147,0.378c0.091,0.156,0.141,0.282,0.146,0.379c0.003,0.033-0.018,0.099-0.059,0.198
			s-0.061,0.183-0.056,0.247l0.007,0.097c0.009,0.129,0.053,0.297,0.131,0.501c0.078,0.207,0.121,0.34,0.125,0.404
			c0.071,0.093,0.152,0.218,0.245,0.372c0.09,0.157,0.156,0.282,0.195,0.376c0.026,0.387,0.248,0.77,0.662,1.146
			c0.414,0.377,0.64,0.597,0.676,0.658c0.063-0.035,0.175-0.06,0.336-0.07c0.291-0.021,0.504,0.029,0.643,0.148
			c0.012,0.162,0.048,0.355,0.112,0.576c0.064,0.224,0.1,0.382,0.106,0.479c0.005,0.064-0.02,0.194-0.071,0.394
			c-0.027,0.067-0.072,0.136-0.132,0.203c-0.06,0.069-0.089,0.12-0.087,0.151c-0.029,0.035-0.05,0.085-0.063,0.15
			c-0.012,0.066-0.016,0.116-0.014,0.146c-0.15,0.173-0.223,0.308-0.216,0.405c-0.395,0.383-0.62,0.642-0.675,0.774l-0.098,0.007
			c-0.128,0.009-0.294,0.078-0.496,0.203c-0.202,0.129-0.369,0.196-0.497,0.205c-0.064,0.004-0.111,0.024-0.142,0.059
			c-0.282,0.116-0.49,0.18-0.618,0.188c-0.194,0.014-0.325-0.01-0.395-0.071c-0.285,0.086-0.669,0.063-1.146-0.067
			c-0.479-0.128-0.791-0.301-0.936-0.518c-0.262-0.047-0.62-0.299-1.071-0.755c-0.31-0.236-0.482-0.403-0.521-0.498l-0.059-0.142
			c-0.039-0.095-0.076-0.156-0.11-0.186c-0.035-0.03-0.17-0.118-0.406-0.265c-0.18,0.206-0.319,0.314-0.416,0.32
			c-0.065,0.005-0.114-0.009-0.147-0.038l0.023,0.338c-0.063,0.037-0.194,0.136-0.394,0.294c-0.2,0.16-0.364,0.244-0.493,0.253
			c-0.032,0.002-0.045,0.052-0.038,0.147l0.01,0.146c-0.313,0.184-0.542,0.377-0.689,0.581c-0.162,0.012-0.359,0.082-0.594,0.211
			c-0.233,0.13-0.432,0.2-0.593,0.211l-0.146,0.011c-0.22,0.111-0.506,0.181-0.861,0.205l-0.289,0.02
			c-0.033,0.002-0.082-0.011-0.148-0.039l-0.049,0.004l-0.387,0.026l-0.445-0.116c-0.264-0.046-0.413-0.101-0.449-0.162
			c-0.034-0.03-0.067-0.027-0.097,0.007c-0.029,0.033-0.061,0.051-0.093,0.054l-0.207-0.18c-0.163-0.021-0.363-0.089-0.597-0.203
			c-0.235-0.112-0.369-0.168-0.401-0.166c-0.034-0.029-0.187-0.125-0.457-0.284c-0.271-0.16-0.457-0.302-0.563-0.424
			c-0.291,0.021-0.603-0.039-0.936-0.179l-0.355-0.219c-0.034-0.029-0.14-0.152-0.317-0.367c-0.068-0.061-0.179-0.149-0.333-0.269
			c-0.153-0.119-0.283-0.215-0.385-0.29c-0.103-0.073-0.174-0.173-0.215-0.301c-0.102-0.058-0.352-0.381-0.748-0.969
			c-0.002-0.032-0.067-0.045-0.195-0.036c0.026-0.066,0.032-0.115,0.015-0.147c-0.021-0.029-0.029-0.062-0.031-0.095l-0.102-0.042
			l-0.1-0.041c-0.037-0.062-0.136-0.201-0.296-0.418c-0.16-0.214-0.247-0.419-0.261-0.613c-0.007-0.097-0.029-0.176-0.065-0.238
			l-0.051-0.045c-0.034-0.029-0.053-0.062-0.055-0.094l-0.01-0.146c-0.016-0.225-0.099-0.472-0.246-0.737
			c-0.148-0.263-0.226-0.462-0.234-0.59c-0.007-0.098,0.001-0.22,0.022-0.367c0.022-0.147,0.032-0.253,0.027-0.317
			c-0.004-0.064-0.033-0.127-0.086-0.188c-0.053-0.061-0.08-0.123-0.085-0.189l-0.082-0.479c-0.005-0.064-0.003-0.153,0.006-0.268
			c0.008-0.114,0.012-0.187,0.01-0.22c0.021-0.163,0.025-0.439,0.016-0.828c-0.012-0.388-0.006-0.662,0.017-0.826l0.093-0.057
			c0.032-0.002,0.048-0.018,0.046-0.05c0.026-0.066,0.008-0.114-0.059-0.142c-0.068-0.028-0.102-0.059-0.104-0.092
			c0.024-0.099,0.074-0.449,0.146-1.054s0.162-1.058,0.271-1.356c0.063-0.004,0.111-0.023,0.142-0.059
			c0.03-0.033,0.051-0.076,0.063-0.126c0.013-0.049,0.034-0.091,0.064-0.125c-0.005-0.064-0.024-0.11-0.058-0.142
			c-0.069-0.061-0.104-0.105-0.107-0.139c-0.013-0.193,0.055-0.377,0.206-0.549c-0.02-0.291,0.03-0.504,0.15-0.642l-0.007-0.098
			c-0.007-0.096,0.101-0.411,0.325-0.946c0.082-0.199,0.14-0.301,0.172-0.303c-0.032,0.002-0.051-0.045-0.058-0.141
			c0.121-0.105,0.245-0.334,0.366-0.684c0.122-0.348,0.259-0.592,0.411-0.732c0.215-0.662,0.519-1.184,0.913-1.569
			c-0.006-0.096,0.019-0.212,0.075-0.346c0.028-0.033,0.073-0.093,0.132-0.178s0.103-0.161,0.131-0.229l0.242-0.017
			c0.092-0.071,0.27-0.204,0.531-0.4c0.262-0.197,0.471-0.332,0.628-0.408c0.027-0.066,0.07-0.143,0.13-0.229
			c0.06-0.083,0.104-0.143,0.134-0.178c0.062-0.036,0.11-0.039,0.145-0.011c0.157-0.075,0.357-0.219,0.604-0.43
			c0.063-0.036,0.153-0.107,0.277-0.214c0.121-0.105,0.23-0.178,0.324-0.216c0.063-0.036,0.157-0.075,0.284-0.118
			c0.126-0.039,0.221-0.08,0.283-0.116l0.329-0.169c0.567-0.232,0.866-0.366,0.896-0.401c0.035,0.03,0.101,0.042,0.197,0.035
			c0.129-0.009,0.253-0.082,0.373-0.22c0.032-0.002,0.097-0.014,0.193-0.037c0.095-0.023,0.176-0.02,0.242,0.008
			C43.339,86.694,43.562,86.612,43.884,86.591z M42.682,93.867c-0.35,0.121-0.662,0.288-0.938,0.502
			c0.002,0.032-0.02,0.073-0.064,0.126c-0.045,0.051-0.051,0.093-0.016,0.121c-0.379,0.157-0.61,0.318-0.695,0.486
			c0.004,0.064-0.016,0.131-0.061,0.199c-0.043,0.067-0.063,0.117-0.062,0.148c-0.03,0.035-0.058,0.11-0.082,0.225
			c-0.024,0.117-0.067,0.207-0.127,0.275l0.062,0.191c-0.127,0.041-0.184,0.158-0.17,0.352c0.03,0.452,0.021,0.793-0.027,1.023
			c0.066,0.027,0.104,0.106,0.113,0.235c0.002,0.032-0.012,0.082-0.038,0.148c-0.027,0.065-0.056,0.142-0.081,0.224
			c-0.028,0.084-0.04,0.141-0.038,0.174c0.035,0.029,0.056,0.092,0.063,0.188c0.005,0.065-0.014,0.164-0.054,0.296
			c-0.039,0.133-0.057,0.23-0.052,0.295c0.009,0.13,0.097,0.236,0.266,0.322c-0.026,0.1,0.029,0.209,0.167,0.328
			c-0.061,0.07-0.093,0.186-0.098,0.348c-0.004,0.163-0.054,0.28-0.146,0.351c0.073,0.124,0.114,0.252,0.123,0.381
			c0.005,0.064-0.019,0.195-0.07,0.393c0.003,0.033,0.037,0.063,0.104,0.09c0.066,0.028,0.102,0.059,0.104,0.091
			c-0.027,0.067,0.025,0.145,0.162,0.232c0.033,0.029,0.068,0.061,0.104,0.089c0.033,0.031,0.052,0.054,0.053,0.069
			c0.001,0.018,0.02,0.04,0.054,0.069c0.002,0.033,0.037,0.071,0.104,0.114c0.068,0.045,0.105,0.1,0.109,0.162
			c0.009,0.131,0,0.245-0.025,0.344c0.066,0.026,0.145,0.086,0.232,0.179c0.087,0.091,0.162,0.151,0.229,0.178l0.047,0.677
			c0.066,0.029,0.2,0.077,0.398,0.144c0.199,0.067,0.35,0.13,0.45,0.188c0.037,0.062,0.253,0.146,0.649,0.246
			c0.003,0.032,0.035,0.046,0.101,0.042c0.031-0.003,0.064,0.012,0.099,0.042c0.1,0.025,0.23,0.032,0.392,0.021
			c0.197,0.052,0.313,0.076,0.345,0.074c0.031-0.002,0.078-0.022,0.142-0.059c0.063-0.036,0.126-0.058,0.191-0.063l-0.011-0.145
			c0.367-0.316,0.605-0.624,0.714-0.924c0.03-0.034,0.077-0.069,0.139-0.107l0.094-0.054l-0.052-0.046l-0.004-0.049
			c-0.007-0.097,0.08-0.248,0.262-0.454l-0.004-0.049c-0.009-0.128,0.079-0.248,0.268-0.359c-0.07-0.06-0.089-0.106-0.06-0.142
			c0.061-0.068,0.103-0.168,0.126-0.3c-0.005-0.064,0.007-0.131,0.035-0.196c-0.002-0.032,0.026-0.083,0.086-0.152
			c0.061-0.068,0.104-0.137,0.133-0.204c0.225-0.5,0.333-0.8,0.326-0.897c0.047-0.262,0.102-0.411,0.165-0.449
			c-0.097,0.007-0.147-0.02-0.152-0.086c-0.011-0.16,0.046-0.278,0.171-0.352c-0.024-0.354,0.019-0.666,0.13-0.932
			c-0.097,0.006-0.148-0.023-0.152-0.088c0.025-0.1,0.015-0.25-0.031-0.459c-0.046-0.207-0.057-0.36-0.032-0.461
			c-0.002-0.031,0.014-0.049,0.046-0.051c0.031-0.002,0.048-0.02,0.046-0.052c-0.003-0.032-0.005-0.063-0.007-0.096l-0.053-0.046
			c-0.002-0.032,0.043-0.1,0.133-0.204c-0.002-0.031-0.006-0.08-0.01-0.145l-0.056-0.093l0.045-0.053
			c-0.004-0.064-0.008-0.112-0.01-0.146l-0.04-0.579c-0.028-0.419-0.081-0.707-0.156-0.864l0.045-0.052l0.045-0.053
			c-0.132-0.022-0.237-0.161-0.319-0.414l-0.387,0.025l-0.155-0.135l-0.098,0.006c-0.129,0.01-0.286-0.027-0.469-0.112
			c-0.185-0.085-0.325-0.124-0.422-0.118l-0.189,0.063c-0.07-0.061-0.137-0.088-0.201-0.084l-0.192,0.014
			c-0.194,0.013-0.339,0.039-0.433,0.078l-0.207-0.18l-0.145,0.01c-0.162,0.011-0.341-0.002-0.537-0.037
			C42.924,93.875,42.779,93.86,42.682,93.867z"/>
	</g>
	<g>
		<path fill="#BE1E2D" d="M79.907,85.317l0.044,0.064c0.833,0.156,1.723,0.417,2.667,0.782c0.06,0.087,0.085,0.148,0.079,0.184
			c0.158-0.045,0.256-0.063,0.292-0.058c0.072,0.014,0.167,0.061,0.285,0.139c0.116,0.077,0.21,0.124,0.283,0.138l0.108,0.021
			l0.177,0.257c0.435,0.082,0.671,0.222,0.709,0.415L84.77,87.3c0.362,0.068,0.582,0.204,0.656,0.406
			c0.109,0.021,0.22,0.078,0.333,0.175c0.113,0.096,0.206,0.15,0.279,0.164c0.052,0.123,0.15,0.292,0.299,0.507
			c0.217,0.04,0.383,0.212,0.494,0.515c0.111,0.304,0.237,0.487,0.376,0.549c0.03,0.23,0.079,0.372,0.146,0.421
			c-0.013,0.262,0.11,0.557,0.368,0.887c0.256,0.329,0.368,0.585,0.334,0.767c0.021,0.079,0.058,0.143,0.106,0.188
			s0.067,0.088,0.061,0.123c-0.034,0.184-0.007,0.385,0.083,0.607c0.089,0.223,0.119,0.408,0.092,0.553l-0.031,0.163
			c-0.007,0.036,0.023,0.079,0.089,0.13l0.109,0.021c0.021,0.079,0.023,0.22,0.004,0.422c-0.019,0.203-0.025,0.381-0.015,0.532
			c0.008,0.152,0.061,0.274,0.156,0.367l-0.041,0.217c-0.014,0.073-0.03,0.201-0.045,0.387c-0.016,0.185-0.034,0.331-0.054,0.439
			c-0.073-0.014-0.156,0.027-0.248,0.123c-0.014,0.072,0.011,0.134,0.078,0.183c0.028,0.043,0.041,0.084,0.034,0.119
			c-0.051,0.066-0.096,0.207-0.137,0.424c-0.082,0.436-0.218,0.655-0.404,0.657c-0.007,0.036-0.006,0.074,0.006,0.113
			c0.012,0.04,0.014,0.078,0.007,0.113c-0.173,0.119-0.282,0.306-0.33,0.559l-0.269,0.23c-0.215,0.147-0.384,0.247-0.506,0.298
			l-0.006,0.337c-0.05,0.066-0.115,0.11-0.194,0.133c-0.08,0.022-0.142,0.049-0.184,0.078l-0.255,0.459
			c-0.128,0.276-0.271,0.437-0.429,0.482c-0.014,0.073-0.066,0.147-0.154,0.225c-0.091,0.076-0.142,0.151-0.155,0.224l-0.271-0.052
			l-0.225,0.296c-0.159,0.046-0.397,0.217-0.716,0.513c-0.319,0.297-0.612,0.457-0.878,0.482c-0.043,0.029-0.097,0.113-0.161,0.251
			c-0.064,0.138-0.138,0.238-0.223,0.296l-0.109-0.021c-0.073-0.014-0.15,0-0.232,0.041c-0.084,0.04-0.162,0.054-0.233,0.04
			c-0.007,0.037-0.025,0.081-0.053,0.131c-0.03,0.052-0.047,0.096-0.054,0.131c-0.05,0.066-0.143,0.114-0.28,0.145
			c-0.137,0.031-0.227,0.062-0.271,0.091c-0.079,0.022-0.172,0.024-0.282,0.003c-0.186,0.19-0.391,0.283-0.614,0.278
			c-0.05,0.065-0.147,0.132-0.292,0.198c-0.144,0.067-0.245,0.151-0.3,0.254c-0.542,0.086-0.935,0.274-1.176,0.566
			c0.018,0.304,0.016,0.511-0.004,0.619c-0.041,0.217-0.143,0.46-0.306,0.73l0.044,0.064c0.036,0.007,0.071,0.022,0.103,0.048
			c0.033,0.024,0.045,0.056,0.039,0.091c-0.127,0.277-0.197,0.451-0.21,0.522c-0.043,0.03-0.108,0.075-0.194,0.133l-0.119,0.034
			c-0.048,0.255-0.04,0.406,0.027,0.456c-0.043,0.029-0.086,0.106-0.127,0.229c-0.042,0.125-0.121,0.194-0.236,0.21
			c0.059,0.086,0.071,0.219,0.037,0.4c-0.014,0.074-0.043,0.181-0.088,0.321c-0.047,0.143-0.075,0.249-0.088,0.32l-0.031,0.163
			c-0.043,0.03-0.092,0.135-0.144,0.313c-0.053,0.178-0.121,0.296-0.207,0.354c0.081,0.165,0.069,0.332-0.037,0.5
			c-0.007,0.036,0.012,0.078,0.061,0.124c0.048,0.046,0.064,0.105,0.051,0.178c-0.171,0.306-0.262,0.496-0.275,0.567
			c-0.187,0.19-0.318,0.391-0.395,0.602l-0.054-0.01c-0.08,0.022-0.139,0.03-0.174,0.024c-0.248,0.516-0.473,0.811-0.674,0.885
			c-0.084,0.248-0.399,0.432-0.948,0.554c-0.318,0.091-0.53,0.126-0.639,0.105c-0.152,0.009-0.428-0.023-0.827-0.099
			c-0.23,0.031-0.364,0.044-0.4,0.037l-0.163-0.03c-0.109-0.021-0.241-0.063-0.397-0.131c-0.157-0.066-0.271-0.107-0.343-0.121
			l-0.109-0.021l-0.196-0.148l-0.163-0.031c-0.073-0.014-0.179-0.053-0.317-0.116s-0.28-0.109-0.424-0.136
			c-0.022-0.079-0.109-0.171-0.258-0.274c-0.149-0.102-0.24-0.176-0.269-0.22c-0.081,0.023-0.16-0.001-0.239-0.072
			c-0.081-0.071-0.14-0.111-0.175-0.117c-0.066-0.05-0.091-0.11-0.078-0.184c-0.533-0.362-0.768-0.707-0.707-1.033l-0.132-0.194
			c0.007-0.036,0.029-0.06,0.069-0.072c0.04-0.01,0.044-0.038,0.015-0.081l-0.163-0.03c0.003-1.013,0.01-1.649,0.021-1.91
			c-0.029-0.043-0.055-0.112-0.073-0.211c-0.019-0.097-0.062-0.17-0.127-0.22c0.062-0.327,0.042-0.518-0.061-0.576
			c0.007-0.035,0.014-0.07,0.021-0.107l0.065-0.045c-0.033-0.23-0.043-0.57-0.034-1.02c0.008-0.448,0.017-0.69,0.024-0.727
			c-0.032-0.232-0.04-0.383-0.026-0.456c0.021-0.109,0.05-0.177,0.094-0.207c-0.023-0.078,0.008-0.337,0.09-0.771l-0.014-0.228
			c0.021-0.108,0.073-0.192,0.16-0.251c-0.06-0.086-0.071-0.173-0.036-0.261c0.036-0.086,0.041-0.17,0.02-0.25
			c0.092-0.095,0.222-0.389,0.392-0.883c0.075-0.398,0.154-0.627,0.241-0.686c0.014-0.072-0.009-0.105-0.067-0.098
			s-0.083-0.006-0.076-0.042c0.014-0.073,0.063-0.139,0.149-0.197c0.085-0.059,0.136-0.125,0.15-0.198
			c-0.054-0.122-0.094-0.203-0.123-0.247l0.061-0.326l0.021-0.108c0.021-0.109,0.072-0.239,0.158-0.393
			c0.084-0.153,0.145-0.32,0.179-0.502l0.125-0.369l-0.034-0.12c-0.03-0.043-0.041-0.082-0.034-0.119l0.021-0.108
			c0.055-0.289,0.218-0.559,0.49-0.809c-0.022-0.08-0.136-0.175-0.34-0.289c-0.017-0.115,0.047-0.254,0.191-0.414
			c-0.033-0.231-0.041-0.383-0.027-0.456c0.014-0.072,0.078-0.267,0.193-0.583c0.116-0.316,0.138-0.48,0.065-0.493
			c0.136-0.124,0.225-0.296,0.266-0.514c0.047-0.254,0.027-0.444-0.061-0.574c0.014-0.072,0.027-0.145,0.041-0.218
			c0.014-0.071,0.008-0.148-0.014-0.229c0.179-0.152,0.293-0.357,0.341-0.611c-0.033-0.23-0.044-0.364-0.037-0.4l0.092-0.489
			c0.042-0.029,0.088-0.068,0.134-0.116c0.045-0.047,0.091-0.085,0.134-0.115l-0.098-0.075c-0.036-0.007-0.052-0.026-0.045-0.063
			s0.042-0.123,0.106-0.263c0.062-0.137,0.102-0.242,0.116-0.315c0.007-0.035-0.013-0.135-0.058-0.293
			c0.116-0.014,0.199-0.11,0.25-0.29c0.053-0.177,0.118-0.278,0.198-0.301c0.006-0.036,0.017-0.091,0.031-0.163l-0.035-0.118
			c0.137-0.124,0.245-0.405,0.327-0.84l0.021-0.109c-0.022-0.079-0.03-0.137-0.023-0.173c0.007-0.035,0.057-0.11,0.154-0.225
			c0.096-0.111,0.151-0.205,0.165-0.277s0.025-0.184,0.035-0.332c0.009-0.148,0.017-0.24,0.023-0.276l0.031-0.164
			c0.057-0.103,0.168-0.25,0.337-0.443c0.167-0.193,0.279-0.342,0.336-0.442c0.043-0.029,0.07-0.08,0.084-0.153
			c0.086-0.059,0.147-0.085,0.184-0.078c0.007-0.036,0.028-0.098,0.064-0.187c0.034-0.085,0.073-0.145,0.117-0.174
			c0.05-0.065,0.157-0.139,0.324-0.221c0.164-0.081,0.271-0.154,0.322-0.221c0.042-0.028,0.145-0.076,0.308-0.14
			c0.161-0.063,0.285-0.123,0.372-0.183c0.072,0.014,0.17-0.006,0.292-0.059c0.123-0.052,0.22-0.07,0.292-0.057
			s0.219,0.031,0.44,0.055c0.221,0.022,0.389,0.025,0.505,0.01c0.854,0.048,1.375,0.07,1.563,0.068
			c0.036,0.007,0.084,0.054,0.143,0.14c0.232-0.031,0.474-0.023,0.728,0.024l0.163,0.03C79.823,85.47,79.887,85.426,79.907,85.317z
			 M70.552,99.151c-0.007,0.036-0.029,0.051-0.064,0.045l-0.01,0.055C70.52,99.221,70.545,99.188,70.552,99.151z M82.464,89.682
			c-0.036-0.007-0.138-0.008-0.309-0.001c-0.17,0.006-0.307-0.021-0.408-0.076l-0.832,0.236c-0.123,0.053-0.207,0.206-0.255,0.459
			l-0.051,0.271c-0.007,0.037-0.085,0.152-0.234,0.35c-0.007,0.037-0.006,0.121,0.007,0.256c0.012,0.135,0,0.197-0.036,0.189
			c-0.014,0.072,0.005,0.17,0.059,0.293c0.051,0.122,0.074,0.201,0.067,0.238c-0.055,0.291-0.078,0.511-0.068,0.662l-0.01,0.054
			l0.033,0.119c0.022,0.08,0.017,0.211-0.017,0.391c-0.035,0.183-0.058,0.31-0.072,0.382c0.028,0.043,0.028,0.343,0,0.899
			c0.045,0.159,0.054,0.312,0.027,0.455l-0.021,0.109c0.073,0.014,0.138,0.064,0.197,0.149c0.072,0.014,0.146-0.02,0.216-0.1
			c0.072-0.08,0.125-0.117,0.162-0.11c0.029,0.043,0.091,0.055,0.19,0.035c0.096-0.018,0.164-0.025,0.2-0.019
			c0.107-0.167,0.362-0.382,0.769-0.644c0.405-0.261,0.654-0.533,0.745-0.817l0.194-0.132c0.034-0.182,0.114-0.409,0.241-0.686
			c0.127-0.276,0.201-0.47,0.221-0.579c0.082-0.436,0.117-0.728,0.109-0.88c0.034-0.182-0.022-0.378-0.17-0.595
			c-0.088-0.129-0.209-0.283-0.363-0.462c-0.088-0.129-0.169-0.2-0.241-0.214l-0.088-0.129
			C82.66,89.737,82.574,89.702,82.464,89.682z"/>
	</g>
	<g>
		<path fill="#231F20" d="M121.273,92.842c0.021,0.041,0.104,0.104,0.251,0.185c0.146,0.083,0.225,0.159,0.236,0.231l0.186,0.061
			c0.25,0.082,0.396,0.163,0.439,0.246c0.031,0.01,0.052,0,0.062-0.032l0.048,0.016c0.094,0.03,0.247,0.114,0.462,0.253
			c0.214,0.14,0.367,0.223,0.461,0.254c0.094,0.03,0.177,0.04,0.25,0.029c-0.01,0.031-0.021,0.063-0.03,0.094
			s-0.021,0.063-0.03,0.094l0.28,0.091c0.021,0.042,0.011,0.072-0.03,0.094l-0.015,0.046c0.094,0.031,0.161,0.088,0.204,0.17
			c0.042,0.084,0.094,0.135,0.156,0.154c0.021,0.042,0.063,0.125,0.127,0.249s0.081,0.233,0.051,0.327l0.095,0.186
			c-0.021,0.063-0.031,0.146-0.03,0.25s-0.003,0.172-0.013,0.202c-0.03,0.094-0.066,0.229-0.106,0.407
			c-0.039,0.176-0.06,0.316-0.058,0.42c0,0.104,0.019,0.231,0.057,0.381c0.037,0.15,0.046,0.258,0.025,0.32
			c-0.01,0.031-0.035,0.057-0.076,0.078c-0.032-0.01-0.053,0-0.063,0.031c-0.021,0.063-0.01,0.162,0.034,0.297
			c0.042,0.135,0.054,0.233,0.034,0.295c-0.011,0.031-0.078,0.078-0.203,0.142c-0.124,0.063-0.196,0.127-0.216,0.189
			c-0.021,0.063-0.01,0.108,0.033,0.14c0.04,0.031,0.057,0.063,0.047,0.093c-0.112,0.24-0.147,0.454-0.104,0.64l-0.309,0.314
			l-0.371,0.189c0,0.104,0.078,0.182,0.234,0.232c0.021,0.041,0.012,0.15-0.028,0.327c-0.04,0.178-0.04,0.307,0.003,0.39
			c-0.164,0.292-0.261,0.485-0.291,0.579c-0.041,0.125-0.051,0.208-0.028,0.249l-0.03,0.094c-0.021,0.063-0.124,0.168-0.31,0.314
			c0.021,0.146-0.007,0.344-0.088,0.593c-0.081,0.251-0.096,0.453-0.043,0.608c-0.01,0.031-0.054,0.086-0.13,0.164
			c-0.078,0.078-0.091,0.145-0.037,0.195c-0.043,0.021-0.095,0.021-0.157,0.002l-0.075,0.234c-0.041,0.021-0.108,0.016-0.202-0.014
			c-0.01,0.031-0.003,0.111,0.025,0.24c0.027,0.131,0.029,0.227,0.01,0.288c-0.041,0.126-0.129,0.184-0.263,0.175
			c-0.021,0.063-0.029,0.352-0.024,0.871c-0.032-0.01-0.068-0.004-0.109,0.018l-0.062,0.031l0.083,0.545
			c-0.011,0.031-0.046,0.063-0.109,0.094c-0.062,0.032-0.099,0.064-0.108,0.096c-0.01,0.03,0.002,0.154,0.035,0.373
			c-0.165,0.292-0.276,0.531-0.337,0.719c-0.101,0.313-0.131,0.614-0.086,0.904c-0.124,0.063-0.207,0.158-0.248,0.283
			c-0.02,0.063-0.03,0.197-0.027,0.405c-0.03,0.094-0.109,0.12-0.233,0.08c-0.049,0.364-0.035,0.592,0.038,0.685
			c-0.021,0.063-0.083,0.095-0.187,0.096l-0.17,0.204c-0.011,0.03-0.028,0.06-0.054,0.085c-0.026,0.027-0.032,0.076-0.022,0.148
			c-0.021,0.063,0.018,0.109,0.111,0.14c-0.091,0.281-0.122,0.427-0.091,0.437c-0.042,0.021-0.071,0.064-0.092,0.126
			c-0.01,0.032,0,0.104,0.033,0.218l0.048,0.172c-0.042,0.021-0.106,0.061-0.194,0.117c-0.089,0.059-0.152,0.098-0.192,0.119
			c-0.011,0.031,0.004,0.088,0.048,0.171c0.041,0.083,0.072,0.146,0.094,0.187c-0.134,0.197-0.236,0.303-0.309,0.314l-0.062,0.188
			c-0.04,0.125-0.152,0.364-0.336,0.719c0.083,0.166,0.102,0.326,0.051,0.482c-0.021,0.063-0.072,0.115-0.155,0.157
			c-0.101,0.313-0.208,0.536-0.321,0.673c0.021,0.041,0.015,0.117-0.021,0.227s-0.049,0.199-0.037,0.272l-0.248,0.127
			c-0.07,0.219-0.133,0.354-0.185,0.406l0.094,0.03c0.063,0.021,0.09,0.047,0.08,0.078c0.021,0.145-0.045,0.295-0.2,0.453
			c-0.019,0.27-0.053,0.482-0.104,0.64l-0.061,0.187c0.022,0.249-0.049,0.416-0.213,0.501c0.013,0.28-0.027,0.562-0.118,0.842
			l-0.046,0.142c0.042,0.082,0.04,0.193-0.005,0.334c-0.046,0.141-0.058,0.232-0.036,0.273c-0.042,0.021-0.094,0.074-0.154,0.158
			c-0.063,0.082-0.114,0.135-0.154,0.156c-0.041,0.124-0.084,0.197-0.124,0.219c-0.072,0.012-0.163,0.051-0.271,0.119
			s-0.184,0.113-0.225,0.135c-0.04,0.124-0.129,0.234-0.263,0.329c-0.133,0.095-0.217,0.189-0.247,0.282l-0.061,0.032
			c-0.031-0.011-0.063-0.021-0.094-0.03c0.01,0.072-0.036,0.16-0.14,0.266l-0.17,0.049c-0.124,0.063-0.217,0.084-0.279,0.064
			c-0.011,0.031-0.057,0.067-0.14,0.109c-0.084,0.042-0.149,0.09-0.202,0.143c-0.062-0.021-0.147-0.022-0.257-0.006
			s-0.18,0.02-0.211,0.01s-0.073-0.041-0.124-0.093c-0.218,0.033-0.422,0.019-0.608-0.042c-0.188-0.061-0.457-0.217-0.807-0.469
			c-0.351-0.251-0.636-0.412-0.854-0.482c-0.063-0.021-0.094-0.057-0.094-0.109c-0.001-0.051-0.017-0.082-0.048-0.092l-0.188-0.062
			c-0.146,0.021-0.281,0.013-0.405-0.028c-0.374-0.121-0.715-0.404-1.021-0.848c0.041-0.125,0.03-0.197-0.032-0.218l-0.188-0.062
			c-0.021-0.041-0.066-0.143-0.136-0.303c-0.068-0.16-0.119-0.297-0.15-0.41c0.011-0.032,0.035-0.059,0.076-0.079l0.094,0.03
			c-0.126-0.248-0.19-0.527-0.193-0.84c0.01-0.031,0.044-0.055,0.102-0.071c0.056-0.017,0.09-0.04,0.1-0.071
			s0.013-0.091,0.007-0.179c-0.007-0.089,0.006-0.127,0.038-0.116c0.021-0.063-0.022-0.146-0.128-0.249
			c0.042-0.022,0.06-0.077,0.054-0.165s-0.003-0.148,0.007-0.178c0.061-0.084,0.097-0.143,0.107-0.173l0.091-0.281
			c0.01-0.032,0.013-0.091,0.007-0.179c-0.007-0.09,0.001-0.164,0.021-0.227l0.03-0.094l-0.03-0.063
			c0.01-0.031,0.021-0.063,0.03-0.093c0.01-0.032,0.032-0.128,0.067-0.289c0.034-0.162,0.046-0.278,0.036-0.351
			c0.041-0.021,0.097-0.09,0.17-0.205c0.07-0.114,0.127-0.182,0.17-0.203l-0.051-0.327c0.104-0.104,0.164-0.188,0.185-0.251
			l0.063-0.031c0.01-0.031,0.021-0.063,0.03-0.094l0.046-0.141c0.02-0.063,0.041-0.158,0.067-0.289
			c0.023-0.129,0.052-0.242,0.082-0.336s0.089-0.221,0.177-0.383c0.086-0.161,0.145-0.289,0.175-0.383l0.046-0.141
			c0.021-0.063,0.009-0.135-0.033-0.219c0.243-0.749,0.441-1.255,0.596-1.516c0.01-0.031,0.036-0.057,0.078-0.078l0.061-0.032
			c-0.011-0.073,0.008-0.179,0.053-0.319c0.046-0.141,0.078-0.242,0.099-0.305l-0.017-0.109c-0.021-0.041-0.026-0.078-0.016-0.109
			c0.01-0.03,0.05-0.104,0.121-0.219c0.072-0.115,0.119-0.203,0.139-0.266c-0.043-0.187-0.023-0.301,0.059-0.344
			c-0.021-0.041-0.015-0.109,0.016-0.202c0.02-0.063,0.052-0.139,0.1-0.228c0.046-0.088,0.072-0.148,0.083-0.18
			c0.02-0.063,0.043-0.158,0.068-0.289c0.023-0.129,0.042-0.21,0.053-0.241c0.04-0.124,0.122-0.22,0.246-0.283
			c-0.012-0.072-0.054-0.128-0.126-0.169c-0.073-0.042-0.121-0.083-0.141-0.124c-0.043,0.021-0.22-0.019-0.531-0.12
			c-0.094-0.031-0.162-0.035-0.202-0.015c-0.054-0.052-0.157-0.103-0.313-0.153c-0.063-0.02-0.2-0.047-0.413-0.082
			c-0.215-0.034-0.379-0.088-0.493-0.16c-0.03-0.01-0.086-0.053-0.164-0.13s-0.135-0.121-0.165-0.131
			c-0.031-0.011-0.086-0.028-0.164-0.054s-0.128-0.059-0.148-0.1l-0.032-0.063c-0.031-0.01-0.063-0.02-0.094-0.03l-0.142-0.202
			l-0.234-0.076l-0.644-0.57c-0.125-0.041-0.208-0.049-0.25-0.029c-0.073-0.092-0.256-0.246-0.548-0.463
			c-0.293-0.215-0.482-0.405-0.566-0.571l-0.234-0.075c-0.063-0.125-0.15-0.283-0.262-0.474c-0.11-0.191-0.216-0.372-0.315-0.543
			c-0.1-0.169-0.172-0.349-0.215-0.535c-0.283-0.403-0.427-0.708-0.429-0.917c-0.063-0.123-0.117-0.33-0.161-0.621
			c-0.044-0.29-0.072-0.471-0.082-0.545l0.062-0.188c-0.044-0.082-0.069-0.16-0.08-0.232l0.015-0.047l0.078-0.078
			c-0.109-0.52-0.072-1.06,0.109-1.622l0.152-0.469c0.02-0.062,0.036-0.135,0.046-0.219c0.009-0.083,0.02-0.14,0.029-0.171
			c0.03-0.094,0.066-0.151,0.106-0.172c0.011-0.031,0.037-0.136,0.076-0.313s0.086-0.291,0.137-0.344l0.232-0.236
			c0.011-0.03,0.012-0.064,0.008-0.102c-0.007-0.035-0.005-0.069,0.006-0.102c0.01-0.03,0.03-0.067,0.063-0.109
			c0.029-0.041,0.051-0.078,0.061-0.109c0.021-0.063,0.032-0.153,0.036-0.273c0.004-0.119,0.022-0.226,0.053-0.318l0.213-0.501
			l0.046-0.142c0.081-0.249,0.143-0.385,0.185-0.405l0.03-0.095c0.021-0.062,0.07-0.166,0.153-0.313
			c0.081-0.146,0.138-0.266,0.168-0.359l0.046-0.141c0.03,0.01,0.071,0.016,0.125,0.014c0.051,0,0.098-0.011,0.14-0.031
			c0.01-0.031,0.002-0.061-0.024-0.086s-0.014-0.064,0.038-0.117c0.011-0.031,0.049-0.044,0.116-0.04
			c0.067,0.005,0.105-0.009,0.116-0.04c-0.021-0.145-0.018-0.265,0.013-0.358l0.078-0.079c0.051-0.051,0.086-0.109,0.106-0.172
			l0.03-0.094l0.109-0.016c0.051-0.053,0.101-0.149,0.146-0.29c0.045-0.14,0.108-0.231,0.192-0.274
			c0.101-0.313,0.182-0.458,0.244-0.438c0.041-0.125,0.099-0.219,0.171-0.282c0.071-0.063,0.169-0.126,0.293-0.189
			c0.125-0.063,0.212-0.121,0.265-0.175c0.165,0.021,0.546,0.074,1.138,0.163c0.031,0.01,0.068,0.056,0.111,0.139
			c0.104,0,0.274,0.003,0.514,0.012l0.094,0.03l0.748,0.088c0.219,0.07,0.464,0.219,0.737,0.445c0.03,0.01,0.082,0.01,0.155-0.002
			c0.114,0.072,0.25,0.186,0.408,0.34c0.156,0.154,0.276,0.264,0.36,0.324c-0.009,0.136,0.041,0.299,0.152,0.49
			c0.11,0.189,0.156,0.369,0.137,0.535l0.08,0.234c-0.011,0.031-0.044,0.08-0.1,0.148c-0.057,0.068-0.08,0.139-0.068,0.211
			c-0.011,0.031,0.003,0.07,0.038,0.115c0.038,0.047,0.052,0.086,0.041,0.117l-0.015,0.047c-0.042,0.021-0.067,0.048-0.077,0.078
			c-0.011,0.032-0.001,0.053,0.031,0.063l0.017,0.109l-0.062,0.031l-0.076,0.234c0.197,0.134,0.247,0.357,0.146,0.669
			c-0.03,0.094-0.072,0.167-0.123,0.22c-0.01,0.031,0,0.051,0.032,0.062l0.078,0.077c0,0.104-0.031,0.231-0.099,0.383
			c-0.066,0.15-0.093,0.263-0.082,0.335c-0.114,0.136-0.154,0.261-0.121,0.375c-0.063-0.021-0.116-0.02-0.156,0.001l-0.103,0.797
			c-0.082,0.146-0.163,0.344-0.244,0.594c-0.051,0.156-0.157,0.588-0.316,1.295c-0.124,0.063-0.191,0.215-0.199,0.454
			c-0.01,0.031-0.036,0.058-0.077,0.078l-0.062,0.032c-0.042,0.021-0.052,0.053-0.03,0.094l0.078,0.076
			c0.021,0.043,0.009,0.081-0.038,0.117c-0.046,0.037-0.074,0.072-0.085,0.104c0.021,0.041,0.002,0.154-0.06,0.342l0.032,0.063
			c0.01,0.072,0.011,0.125,0.001,0.156l-0.077,0.078c-0.142,0.438-0.171,0.739-0.086,0.904c-0.021,0.063-0.036,0.136-0.045,0.219
			c-0.01,0.084-0.021,0.141-0.03,0.172l-0.03,0.094c0.064,0.123,0.091,0.307,0.083,0.545s0.004,0.415,0.035,0.529l0.33,0.418
			c0.053,0.051,0.12,0.057,0.203,0.014c0.082-0.043,0.155-0.054,0.219-0.033l0.246-0.282c0.145-0.022,0.3-0.153,0.464-0.394
			s0.272-0.387,0.325-0.439c0.029,0.01,0.148-0.037,0.356-0.143c-0.022-0.041-0.022-0.094-0.002-0.156s0.02-0.113-0.001-0.156
			c0.072-0.01,0.155-0.078,0.247-0.204c0.094-0.126,0.195-0.204,0.31-0.236c0.01-0.03,0.055-0.085,0.131-0.164
			c0.078-0.079,0.09-0.144,0.039-0.196c0.081-0.041,0.18-0.156,0.292-0.345c0.113-0.188,0.226-0.298,0.34-0.329
			c-0.053-0.051-0.068-0.108-0.048-0.172c0.02-0.063,0.066-0.099,0.139-0.11c-0.021-0.04-0.021-0.093-0.001-0.155
			s0.074-0.148,0.162-0.258c0.087-0.109,0.136-0.181,0.146-0.213l0.016-0.047c-0.021-0.041-0.026-0.076-0.016-0.108
			c0.091-0.281,0.278-0.6,0.567-0.955c-0.022-0.146-0.023-0.249-0.003-0.312s0.084-0.18,0.192-0.352
			c0.107-0.174,0.177-0.307,0.207-0.4c0.04-0.124,0.093-0.313,0.158-0.569c0.065-0.255,0.118-0.444,0.159-0.569l0.03-0.094
			c0.041-0.021,0.067-0.048,0.077-0.079l0.046-0.141c0.03-0.094,0.063-0.247,0.097-0.46c0.035-0.214,0.068-0.367,0.099-0.461
			l0.046-0.141c0.01-0.03,0.04-0.072,0.092-0.125c0.051-0.053,0.082-0.094,0.092-0.126l0.061-0.187
			c0.011-0.031,0.036-0.059,0.078-0.08c0.082-0.041,0.129-0.078,0.139-0.109l0.741-0.848c0.427-0.035,0.795-0.002,1.107,0.1
			C121.212,92.977,121.243,92.936,121.273,92.842z"/>
	</g>
	<g>
		<path fill="#F6921E" d="M98.148,86.317l0.04,0.057c0.736,0.139,1.522,0.369,2.357,0.693c0.053,0.076,0.077,0.13,0.071,0.162
			c0.139-0.041,0.226-0.058,0.257-0.052c0.064,0.013,0.147,0.053,0.252,0.122c0.103,0.069,0.186,0.109,0.25,0.122l0.097,0.019
			l0.156,0.229c0.385,0.072,0.594,0.194,0.629,0.366l0.191,0.036c0.32,0.061,0.515,0.18,0.581,0.358
			c0.096,0.018,0.192,0.069,0.293,0.154c0.101,0.086,0.184,0.135,0.248,0.146c0.045,0.107,0.134,0.258,0.265,0.448
			c0.191,0.036,0.338,0.188,0.437,0.455s0.21,0.43,0.332,0.485c0.026,0.204,0.07,0.329,0.129,0.373
			c-0.011,0.23,0.098,0.492,0.326,0.783c0.227,0.292,0.325,0.518,0.295,0.679c0.02,0.07,0.051,0.126,0.094,0.167
			c0.042,0.041,0.061,0.077,0.055,0.109c-0.03,0.161-0.007,0.34,0.072,0.536c0.079,0.197,0.107,0.361,0.083,0.488l-0.026,0.145
			c-0.007,0.032,0.018,0.071,0.077,0.115l0.096,0.018c0.021,0.07,0.021,0.195,0.005,0.374c-0.017,0.18-0.022,0.337-0.014,0.47
			c0.007,0.135,0.054,0.244,0.138,0.326l-0.036,0.191c-0.012,0.064-0.025,0.179-0.038,0.342c-0.016,0.163-0.031,0.293-0.05,0.389
			c-0.063-0.012-0.137,0.024-0.219,0.108c-0.013,0.064,0.01,0.119,0.069,0.162c0.026,0.039,0.035,0.074,0.029,0.106
			c-0.044,0.058-0.084,0.183-0.12,0.375c-0.072,0.385-0.191,0.578-0.358,0.58c-0.006,0.032-0.004,0.066,0.006,0.101
			c0.011,0.035,0.013,0.069,0.007,0.101c-0.153,0.104-0.25,0.269-0.292,0.493l-0.237,0.204c-0.191,0.131-0.34,0.219-0.449,0.265
			l-0.005,0.298c-0.045,0.059-0.102,0.098-0.172,0.117s-0.125,0.043-0.162,0.068l-0.226,0.406c-0.114,0.245-0.239,0.387-0.38,0.427
			c-0.012,0.064-0.058,0.13-0.136,0.198c-0.081,0.068-0.126,0.135-0.138,0.197l-0.24-0.045l-0.197,0.262
			c-0.142,0.041-0.353,0.191-0.635,0.454s-0.541,0.405-0.776,0.427c-0.039,0.025-0.086,0.1-0.143,0.223
			c-0.055,0.122-0.121,0.209-0.197,0.261l-0.097-0.019c-0.063-0.012-0.133,0-0.206,0.037c-0.073,0.035-0.142,0.048-0.206,0.035
			c-0.006,0.032-0.022,0.07-0.046,0.116c-0.025,0.045-0.041,0.084-0.047,0.116c-0.045,0.058-0.127,0.1-0.249,0.127
			c-0.121,0.027-0.201,0.054-0.238,0.079c-0.07,0.021-0.152,0.022-0.25,0.004c-0.164,0.168-0.346,0.251-0.544,0.246
			c-0.044,0.059-0.13,0.117-0.257,0.176c-0.128,0.06-0.217,0.134-0.266,0.224c-0.479,0.076-0.826,0.242-1.041,0.502
			c0.017,0.269,0.015,0.451-0.004,0.547c-0.036,0.192-0.126,0.408-0.27,0.646l0.038,0.057c0.031,0.006,0.063,0.021,0.092,0.042
			c0.029,0.022,0.04,0.05,0.034,0.081c-0.111,0.245-0.174,0.399-0.187,0.463c-0.037,0.026-0.095,0.066-0.171,0.117l-0.105,0.03
			c-0.042,0.225-0.034,0.359,0.024,0.403c-0.039,0.025-0.076,0.094-0.112,0.202c-0.039,0.11-0.107,0.171-0.21,0.185
			c0.052,0.077,0.063,0.195,0.033,0.355c-0.012,0.064-0.039,0.159-0.078,0.284c-0.041,0.125-0.067,0.22-0.079,0.284l-0.027,0.144
			c-0.037,0.026-0.08,0.118-0.125,0.275c-0.047,0.157-0.108,0.263-0.184,0.314c0.071,0.146,0.061,0.293-0.033,0.441
			c-0.007,0.032,0.011,0.069,0.054,0.109c0.042,0.042,0.057,0.095,0.044,0.158c-0.149,0.271-0.23,0.438-0.242,0.502
			c-0.166,0.168-0.281,0.345-0.35,0.532l-0.049-0.01c-0.07,0.021-0.121,0.027-0.152,0.021c-0.219,0.456-0.418,0.719-0.596,0.784
			c-0.075,0.219-0.354,0.382-0.84,0.489c-0.279,0.08-0.469,0.111-0.564,0.094c-0.135,0.008-0.378-0.021-0.73-0.088
			c-0.205,0.028-0.322,0.039-0.354,0.033l-0.146-0.027c-0.096-0.018-0.213-0.057-0.351-0.115c-0.139-0.059-0.24-0.096-0.304-0.107
			l-0.096-0.019l-0.174-0.132l-0.145-0.027c-0.066-0.012-0.158-0.046-0.28-0.102c-0.122-0.057-0.248-0.098-0.376-0.121
			c-0.02-0.07-0.096-0.15-0.228-0.242c-0.133-0.092-0.212-0.156-0.237-0.193c-0.07,0.02-0.143-0.002-0.213-0.065
			c-0.07-0.063-0.123-0.098-0.154-0.104c-0.059-0.044-0.081-0.098-0.069-0.162c-0.471-0.321-0.679-0.626-0.625-0.914l-0.116-0.172
			c0.006-0.031,0.025-0.052,0.062-0.063c0.034-0.01,0.038-0.033,0.014-0.071l-0.146-0.027c0.002-0.896,0.009-1.46,0.02-1.689
			c-0.027-0.038-0.049-0.101-0.064-0.187c-0.018-0.086-0.055-0.151-0.113-0.195c0.055-0.289,0.037-0.458-0.053-0.508
			c0.006-0.031,0.012-0.064,0.018-0.097l0.057-0.039c-0.027-0.204-0.038-0.505-0.029-0.901c0.007-0.397,0.015-0.611,0.021-0.644
			c-0.029-0.205-0.036-0.339-0.023-0.403c0.018-0.096,0.045-0.157,0.084-0.184c-0.021-0.069,0.006-0.297,0.078-0.682l-0.013-0.202
			c0.019-0.096,0.065-0.169,0.142-0.222c-0.052-0.076-0.063-0.153-0.031-0.23c0.031-0.076,0.036-0.15,0.017-0.221
			c0.082-0.084,0.197-0.344,0.346-0.781c0.066-0.353,0.137-0.555,0.214-0.607c0.013-0.064-0.007-0.093-0.058-0.086
			c-0.053,0.008-0.074-0.006-0.068-0.037c0.012-0.064,0.056-0.122,0.133-0.175c0.075-0.052,0.12-0.109,0.132-0.174
			c-0.046-0.108-0.083-0.182-0.108-0.22l0.054-0.288l0.019-0.097c0.019-0.096,0.066-0.212,0.142-0.348
			c0.074-0.135,0.127-0.282,0.156-0.443l0.112-0.327l-0.03-0.105c-0.026-0.037-0.036-0.073-0.03-0.104l0.019-0.097
			c0.048-0.257,0.193-0.495,0.433-0.716c-0.02-0.069-0.12-0.154-0.3-0.255c-0.015-0.103,0.042-0.225,0.168-0.367
			c-0.028-0.204-0.035-0.338-0.023-0.402s0.069-0.236,0.172-0.516c0.102-0.279,0.12-0.426,0.057-0.438
			c0.121-0.109,0.199-0.261,0.235-0.453c0.042-0.225,0.024-0.395-0.055-0.509c0.013-0.064,0.024-0.127,0.036-0.192
			c0.013-0.063,0.008-0.132-0.012-0.201c0.158-0.137,0.259-0.316,0.301-0.541c-0.028-0.205-0.039-0.322-0.033-0.354l0.082-0.434
			c0.037-0.025,0.076-0.06,0.119-0.102c0.04-0.042,0.08-0.076,0.118-0.103l-0.087-0.066c-0.033-0.006-0.045-0.024-0.039-0.057
			s0.036-0.109,0.094-0.231c0.055-0.122,0.09-0.215,0.102-0.28c0.006-0.031-0.012-0.118-0.051-0.258
			c0.102-0.014,0.176-0.1,0.222-0.257c0.047-0.157,0.104-0.246,0.175-0.267c0.006-0.03,0.016-0.079,0.027-0.144l-0.03-0.105
			c0.12-0.109,0.218-0.357,0.29-0.742l0.018-0.097c-0.021-0.07-0.027-0.121-0.021-0.153c0.006-0.031,0.052-0.098,0.138-0.198
			c0.084-0.101,0.133-0.182,0.146-0.246c0.012-0.064,0.021-0.162,0.029-0.294c0.009-0.131,0.016-0.213,0.021-0.244l0.027-0.145
			c0.05-0.09,0.148-0.221,0.299-0.393c0.147-0.172,0.246-0.302,0.297-0.392c0.038-0.026,0.063-0.071,0.075-0.136
			c0.076-0.052,0.13-0.075,0.162-0.069c0.006-0.031,0.024-0.086,0.057-0.163c0.03-0.077,0.065-0.129,0.104-0.155
			c0.043-0.058,0.139-0.123,0.285-0.195c0.146-0.072,0.241-0.137,0.286-0.194c0.038-0.026,0.127-0.067,0.271-0.124
			c0.143-0.056,0.253-0.109,0.33-0.162c0.064,0.012,0.149-0.004,0.259-0.051c0.107-0.046,0.192-0.063,0.257-0.051
			c0.064,0.012,0.195,0.028,0.39,0.048c0.196,0.021,0.345,0.023,0.447,0.01c0.755,0.042,1.216,0.063,1.382,0.061
			c0.032,0.006,0.074,0.047,0.128,0.123c0.203-0.027,0.418-0.021,0.643,0.021l0.144,0.027
			C98.073,86.452,98.129,86.413,98.148,86.317z M89.873,98.555c-0.006,0.032-0.025,0.045-0.057,0.039l-0.01,0.048
			C89.843,98.616,89.867,98.587,89.873,98.555z M100.41,90.178c-0.032-0.006-0.123-0.007-0.273-0.001
			c-0.15,0.005-0.271-0.018-0.36-0.068l-0.737,0.21c-0.107,0.047-0.183,0.183-0.225,0.406l-0.045,0.24
			c-0.007,0.032-0.076,0.136-0.208,0.31c-0.007,0.032-0.004,0.107,0.007,0.226c0.012,0.118,0.001,0.174-0.031,0.168
			c-0.013,0.065,0.005,0.15,0.051,0.259s0.066,0.18,0.061,0.211c-0.049,0.256-0.068,0.452-0.062,0.586l-0.009,0.048l0.031,0.105
			c0.019,0.069,0.015,0.186-0.016,0.346c-0.03,0.161-0.052,0.272-0.063,0.337c0.026,0.037,0.026,0.303,0,0.796
			c0.039,0.141,0.048,0.275,0.023,0.403l-0.019,0.096c0.064,0.013,0.122,0.057,0.175,0.133c0.063,0.012,0.128-0.018,0.19-0.089
			c0.063-0.07,0.111-0.104,0.143-0.098c0.026,0.038,0.083,0.049,0.169,0.032c0.086-0.018,0.145-0.022,0.177-0.017
			c0.095-0.148,0.32-0.339,0.68-0.569c0.359-0.232,0.579-0.473,0.659-0.723l0.172-0.117c0.03-0.16,0.101-0.363,0.213-0.607
			c0.113-0.244,0.178-0.415,0.195-0.511c0.072-0.386,0.105-0.645,0.097-0.779c0.03-0.159-0.02-0.335-0.149-0.526
			c-0.079-0.114-0.186-0.25-0.321-0.408c-0.078-0.114-0.15-0.178-0.214-0.189l-0.078-0.115
			C100.583,90.228,100.506,90.196,100.41,90.178z"/>
	</g>
	<g>
		<g>
			<path fill="#231F20" d="M17.028,117.81c0.007,0.035,0.228,0.105,0.661,0.209c0.222,0.182,0.436,0.309,0.638,0.383
				c0.021,0.108,0.11,0.232,0.271,0.369c0.156,0.139,0.251,0.279,0.279,0.426c0.215,0.145,0.316,0.275,0.302,0.391
				c0.043,0.029,0.104,0.057,0.185,0.077l0.12,0.033c0.063,0.138,0.202,0.318,0.414,0.538c0.213,0.224,0.343,0.461,0.393,0.713
				c0.196,0.039,0.373,0.229,0.534,0.572c0.161,0.345,0.285,0.547,0.371,0.605c-0.073,0.391-0.106,0.604-0.1,0.639
				s0.065,0.044,0.173,0.023l0.12,0.031c0.05,0.066,0.105,0.159,0.166,0.277c0.062,0.121,0.117,0.213,0.167,0.278
				c0.051,0.066,0.131,0.087,0.239,0.065c-0.029,0.045-0.034,0.119-0.013,0.229c0.007,0.037,0.042,0.115,0.103,0.232
				c0.06,0.121,0.079,0.221,0.059,0.301c0.007,0.035-0.009,0.096-0.05,0.178c-0.04,0.084-0.054,0.161-0.039,0.233
				c-0.022,0.081,0.013,0.12,0.108,0.12c0.094,0.001,0.144,0.02,0.15,0.055l0.021,0.109c0.021,0.108,0.086,0.246,0.194,0.413
				c0.106,0.167,0.165,0.269,0.172,0.304l-0.034,0.119c0.174,0.305,0.263,0.475,0.27,0.512c0.021,0.109-0.012,0.227-0.1,0.357
				c0.079,0.021,0.127,0.07,0.142,0.141c0.028,0.146,0.14,0.387,0.338,0.723c0.197,0.338,0.313,0.598,0.349,0.779l0.021,0.107
				c-0.159,0.145-0.221,0.307-0.186,0.488l0.021,0.107c0.021,0.109,0.113,0.205,0.28,0.285c0.166,0.08,0.252,0.138,0.259,0.174
				l0.032,0.163c0.021,0.108,0.078,0.249,0.167,0.419c0.09,0.17,0.141,0.291,0.155,0.363c0.028,0.146-0.001,0.282-0.089,0.412
				c0.007,0.037,0.069,0.119,0.189,0.244c0.118,0.127,0.203,0.225,0.253,0.289c0.015,0.072,0.008,0.187-0.019,0.343
				c-0.024,0.155-0.031,0.269-0.017,0.341c0.007,0.037,0.035,0.088,0.086,0.152c0.129,0.276,0.242,0.479,0.344,0.61
				c-0.195,0.149-0.197,0.245,0,0.281c-0.095,0.095-0.138,0.216-0.126,0.363c0.009,0.147-0.016,0.265-0.073,0.353
				c0.042,0.029,0.084,0.096,0.124,0.199c0.038,0.105,0.081,0.174,0.124,0.203c-0.022,0.08-0.023,0.174-0.002,0.281
				c-0.021,0.08-0.025,0.155-0.012,0.229c0.057,0.102,0.213,0.128,0.467,0.078l0.216-0.042c0.377,0.001,0.729-0.03,1.055-0.093
				l0.434-0.085c0.435-0.085,0.737-0.069,0.91,0.046c0.06-0.086,0.16-0.144,0.305-0.172c0.253-0.049,0.438-0.064,0.555-0.051
				c0.079-0.166,0.088-0.412,0.024-0.738l-0.074-0.38c-0.014-0.071-0.042-0.169-0.086-0.294c-0.043-0.122-0.067-0.203-0.074-0.238
				l-0.159-0.814c-0.044-0.029-0.021-0.109,0.065-0.238c-0.014-0.072-0.038-0.105-0.074-0.098c-0.044-0.029-0.069-0.063-0.076-0.1
				c-0.014-0.258-0.118-0.605-0.314-1.035c-0.197-0.432-0.267-0.785-0.207-1.061c-0.115-0.203-0.18-0.34-0.193-0.412
				c-0.007-0.035,0.012-0.134,0.056-0.293c-0.007-0.037-0.025-0.08-0.055-0.131s-0.046-0.094-0.053-0.131l-0.094-0.77l0.012-0.229
				c-0.007-0.037,0.021-0.174,0.088-0.412l-0.074-0.381c-0.015-0.071,0.009-0.15,0.066-0.236l-0.063-0.326
				c0.059-0.087,0.084-0.148,0.077-0.186l-0.011-0.055c-0.043-0.027-0.051-0.063-0.021-0.107c0.035-0.008,0.051-0.029,0.044-0.066
				c-0.021-0.107-0.048-0.244-0.079-0.406c-0.032-0.162-0.037-0.283-0.016-0.363c0.028-0.042,0.063-0.115,0.099-0.217
				c0.037-0.101,0.07-0.172,0.1-0.217c-0.07-0.361-0.081-0.604-0.029-0.727l-0.032-0.163c-0.014-0.071-0.02-0.192-0.015-0.363
				c0.004-0.17,0-0.29-0.015-0.362l-0.042-0.219l-0.159-0.814c-0.063-0.324-0.038-0.574,0.079-0.748
				c-0.043-0.028-0.102-0.037-0.173-0.023l-0.085-0.434c0.028-0.041,0.08-0.117,0.152-0.227c0.072-0.107,0.12-0.201,0.142-0.281
				c-0.014-0.072-0.059-0.109-0.135-0.115c-0.075-0.004-0.136-0.02-0.179-0.051l-0.064-0.041l-0.011-0.055
				c-0.014-0.072-0.004-0.169,0.028-0.287c0.033-0.121,0.046-0.198,0.039-0.234c-0.063-0.326-0.081-0.51-0.052-0.554
				c-0.021-0.108-0.074-0.19-0.161-0.251c0.001-0.375-0.009-0.618-0.029-0.727c-0.028-0.145-0.067-0.25-0.118-0.314
				c0.073-0.203,0.119-0.455,0.135-0.76c0.094-0.093,0.264-0.135,0.51-0.127s0.397-0.03,0.456-0.117
				c0.073-0.016,0.147-0.01,0.229,0.012c0.079,0.023,0.137,0.029,0.173,0.021c0.071-0.014,0.121-0.051,0.147-0.113
				c0.024-0.061,0.056-0.096,0.093-0.103c0.042,0.03,0.129,0.042,0.26,0.034c0.13-0.005,0.214-0.014,0.25-0.02
				c0.072-0.015,0.158-0.004,0.26,0.033s0.191,0.066,0.271,0.088l0.434-0.086c0.146-0.027,0.34,0.01,0.586,0.112
				c0.245,0.103,0.44,0.14,0.585,0.11l0.108-0.021c0.087,0.058,0.251,0.13,0.494,0.214c0.241,0.086,0.405,0.156,0.491,0.215
				c0.165,0.268,0.471,0.527,0.914,0.779c0.443,0.25,0.727,0.496,0.848,0.736c0.087,0.059,0.199,0.148,0.335,0.271
				c0.137,0.124,0.248,0.216,0.336,0.273c0.099,0.508,0.098,0.789-0.004,0.847c0.007,0.037,0.039,0.058,0.097,0.065
				s0.091,0.029,0.098,0.066l0.032,0.162c0.057,0.289,0.25,0.514,0.582,0.676c0.115,0.202,0.193,0.413,0.236,0.63l0.223,1.141
				c0.101,0.13,0.158,0.233,0.172,0.304l0.063,0.326c0.015,0.074,0.043,0.172,0.086,0.293c0.042,0.125,0.067,0.203,0.075,0.238
				c0.028,0.146-0.009,0.248-0.11,0.305l0.106,0.543c0.077,0.398,0.087,0.64,0.028,0.727c0.007,0.037,0.038,0.097,0.092,0.18
				c0.054,0.084,0.069,0.166,0.048,0.244c0.1,0.131,0.201,0.412,0.306,0.842c0.102,0.432,0.244,0.725,0.425,0.875
				c-0.022,0.081-0.016,0.211,0.02,0.393c0.014,0.072,0.046,0.188,0.095,0.348c0.051,0.158,0.083,0.273,0.098,0.346l-0.067,0.24
				l0.063,0.326c0.008,0.035-0.008,0.057-0.043,0.064c-0.028,0.043-0.04,0.084-0.033,0.119l0.042,0.217
				c-0.015,0.115-0.055,0.199-0.12,0.248c-0.022,0.081,0.007,0.133,0.086,0.153c0.035-0.007,0.058,0.008,0.064,0.044
				c-0.021,0.08-0.022,0.221-0.001,0.422c0.02,0.203,0.037,0.34,0.052,0.412c0.007,0.037,0.002,0.105-0.018,0.201
				c-0.019,0.099-0.023,0.166-0.017,0.201c0.007,0.037,0.051,0.112,0.13,0.229c0.078,0.117,0.129,0.229,0.149,0.337l0.043,0.218
				l0.138,0.705c-0.051,0.123-0.059,0.33-0.02,0.624c0.038,0.294,0.05,0.497,0.035,0.612c-0.138,0.066-0.231,0.159-0.283,0.281
				c-0.052,0.123-0.088,0.271-0.11,0.445c-0.023,0.174-0.063,0.304-0.121,0.389c0.101,0.133,0.169,0.287,0.204,0.469
				c0.028,0.145,0.01,0.242-0.056,0.293c-0.021,0.078-0.006,0.114,0.048,0.104c0.055-0.011,0.086,0.002,0.093,0.037
				c0.028,0.146,0.011,0.824-0.053,2.041c-0.029,0.043-0.092,0.111-0.187,0.205c0.015,0.072,0.015,0.166,0,0.281
				c-0.017,0.115-0.019,0.191-0.012,0.227l0.065,0.045c0.014,0.072,0.024,0.127,0.031,0.162c-0.053,0.123-0.058,0.285-0.02,0.484
				c0.039,0.199,0.051,0.355,0.037,0.471c0.007,0.037,0.001,0.112-0.013,0.229l0.021,0.109c0.007,0.035-0.02,0.098-0.077,0.184
				c-0.059,0.086-0.1,0.17-0.12,0.248c0.035,0.182-0.012,0.332-0.139,0.45c-0.127,0.119-0.188,0.198-0.181,0.233l-0.043,0.064
				c-0.021,0.08-0.047,0.141-0.075,0.184c-0.061,0.088-0.149,0.207-0.269,0.362c-0.12,0.155-0.195,0.255-0.225,0.298l-0.542,0.105
				c-0.108,0.021-0.3,0.059-0.57,0.111c-0.271,0.053-0.458,0.109-0.56,0.166l-0.543,0.105c-0.29,0.057-0.515,0.063-0.673,0.018
				c-0.08-0.02-0.205-0.081-0.374-0.18c-0.169-0.1-0.294-0.158-0.373-0.181l-0.045,0.065l-0.043,0.064l-0.715-0.198
				c-0.036,0.007-0.111-0.035-0.221-0.126c-0.113-0.091-0.227-0.144-0.343-0.16c-0.043-0.027-0.124-0.105-0.242-0.234
				c-0.119-0.127-0.223-0.219-0.308-0.277c-0.051-0.064-0.117-0.164-0.2-0.299c-0.081-0.133-0.149-0.234-0.198-0.301
				c-0.051-0.063-0.043-0.111,0.027-0.145c0.069-0.033,0.1-0.066,0.093-0.103c-0.231-0.03-0.375-0.19-0.432-0.479L30.49,139.7
				c-0.007-0.035-0.04-0.104-0.098-0.205c-0.057-0.102-0.093-0.189-0.107-0.262c-0.05-0.064-0.086-0.152-0.106-0.261
				c-0.021-0.108-0.035-0.181-0.043-0.218l-0.01-0.054c-0.044-0.029-0.069-0.062-0.076-0.099l-0.032-0.162
				c-0.085-0.436-0.188-0.678-0.311-0.729c-0.298,0.209-0.663,0.355-1.098,0.439l-1.684,0.329c-0.434,0.085-0.822,0.216-1.163,0.396
				c0.008,0.037-0.005,0.114-0.038,0.233c-0.033,0.12-0.043,0.215-0.029,0.288l0.021,0.107c-0.138,0.065-0.203,0.257-0.198,0.574
				c0.006,0.318-0.003,0.519-0.023,0.597l0.223,1.141c0.007,0.037-0.002,0.095-0.023,0.174c0.021,0.108,0.055,0.179,0.098,0.206
				c-0.096,0.095-0.172,0.23-0.23,0.41c-0.059,0.182-0.103,0.295-0.132,0.336c-0.029,0.045-0.076,0.092-0.142,0.141
				c-0.065,0.052-0.113,0.098-0.142,0.142c-0.037,0.007-0.074,0.108-0.109,0.304c-0.088,0.129-0.226,0.287-0.415,0.475
				c-0.073,0.203-0.189,0.375-0.349,0.52l-0.108,0.021c-0.073,0.014-0.147,0.066-0.225,0.156c-0.076,0.09-0.133,0.139-0.168,0.145
				l-0.326,0.064c-0.132,0.102-0.232,0.158-0.304,0.172c-0.109,0.021-0.309,0.014-0.598-0.023c-0.289-0.038-0.507-0.043-0.651-0.016
				l-0.271,0.054c-0.036,0.007-0.058-0.006-0.064-0.043l-0.119-0.034c-0.079-0.021-0.155-0.025-0.228-0.012
				c-0.073,0.014-0.127,0.025-0.162,0.031c-0.037,0.008-0.078-0.002-0.12-0.031c-0.052-0.066-0.115-0.109-0.194-0.131
				c-0.037,0.007-0.104,0-0.201-0.018c-0.098-0.019-0.165-0.025-0.2-0.018c-0.124-0.051-0.336-0.18-0.639-0.383l-0.194-0.131
				c-0.499-0.24-0.751-0.38-0.758-0.416c-0.649-0.248-1.021-0.609-1.113-1.08c-0.129-0.086-0.205-0.186-0.227-0.293l-0.085-0.434
				l-0.259-0.458l-0.019-0.391c-0.021-0.108-0.108-0.261-0.258-0.456c-0.151-0.197-0.237-0.35-0.259-0.458l-0.031-0.163
				c-0.015-0.071-0.027-0.182-0.038-0.33c-0.009-0.147-0.021-0.258-0.035-0.332l-0.031-0.162c-0.007-0.035,0.009-0.096,0.049-0.18
				c0.04-0.082,0.057-0.143,0.05-0.18l-0.021-0.107c-0.172-0.305-0.293-0.637-0.363-0.998l-0.212-1.086
				c-0.008-0.037-0.024-0.072-0.05-0.104c-0.024-0.032-0.041-0.067-0.048-0.104l-0.042-0.218c-0.043-0.217-0.054-0.365-0.03-0.445
				c-0.131-0.274-0.205-0.467-0.227-0.575c-0.056-0.29-0.051-0.555,0.015-0.792l-0.042-0.217c-0.106-0.543-0.135-0.875-0.082-0.998
				c-0.167-0.082-0.267-0.211-0.302-0.394c-0.007-0.035-0.015-0.118-0.021-0.249c-0.006-0.13-0.016-0.23-0.03-0.303
				c-0.088-0.059-0.138-0.125-0.151-0.197c-0.028-0.144-0.036-0.332-0.025-0.559c0.013-0.229,0.012-0.377-0.003-0.451l-0.021-0.107
				c-0.007-0.037-0.061-0.111-0.156-0.225c-0.098-0.111-0.172-0.199-0.222-0.266l-0.042-0.219c-0.021-0.107-0.045-0.318-0.067-0.633
				c-0.024-0.316-0.054-0.563-0.09-0.744l-0.042-0.218c-0.007-0.035-0.031-0.115-0.075-0.239c-0.042-0.123-0.07-0.22-0.085-0.293
				l-0.021-0.109c-0.007-0.035-0.001-0.092,0.021-0.173c0.021-0.079,0.026-0.155,0.013-0.228c-0.007-0.035-0.035-0.125-0.08-0.266
				c-0.047-0.141-0.077-0.248-0.092-0.321c-0.021-0.109-0.021-0.202,0.002-0.282c-0.007-0.036-0.041-0.066-0.104-0.092
				c-0.062-0.025-0.095-0.057-0.102-0.094c-0.133-1.251-0.201-1.896-0.208-1.932c-0.015-0.072-0.001-0.188,0.044-0.348
				c0.044-0.157,0.056-0.293,0.035-0.4l-0.085-0.436c0.044-0.158,0.069-0.313,0.078-0.466c-0.052-0.065-0.059-0.101-0.021-0.108
				l0.043-0.064c-0.007-0.035-0.022-0.117-0.048-0.244c-0.024-0.127-0.004-0.215,0.061-0.266c-0.021-0.109-0.004-0.789,0.055-2.041
				c0.028-0.041,0.052-0.113,0.071-0.21c0.018-0.097,0.06-0.172,0.126-0.222l-0.021-0.109c-0.07-0.361,0.237-0.797,0.928-1.309
				C15.013,118.372,15.774,118.13,17.028,117.81z"/>
		</g>
		<g>
			<path fill="#231F20" d="M52.06,113.252l0.166-0.001c0.11,0,0.267,0.026,0.47,0.081s0.342,0.081,0.416,0.081
				c0.073-0.001,0.147,0.009,0.222,0.026c0.073,0.019,0.146,0.027,0.221,0.026l0.664-0.003c0.479-0.002,0.83,0.051,1.052,0.161
				c0.037,0,0.111,0.054,0.223,0.165c0.332-0.002,0.682,0.144,1.053,0.437c0.222-0.001,0.461,0.081,0.721,0.246
				c0.259,0.164,0.479,0.246,0.665,0.245c0.001,0.185,0.131,0.313,0.389,0.385c0.075,0.259,0.131,0.388,0.168,0.388
				c0.111,0.073,0.27,0.238,0.474,0.495c0.203,0.257,0.38,0.422,0.527,0.495c0.075,0.221,0.148,0.351,0.223,0.386
				c0.038,0.037,0.038,0.083,0.001,0.139s-0.054,0.103-0.054,0.139c0.074,0.147,0.204,0.351,0.39,0.607s0.334,0.459,0.446,0.605
				c0.001,0.295-0.018,0.462-0.053,0.499c0,0.037,0.019,0.055,0.056,0.054c0.146,0,0.257,0.055,0.333,0.165
				c0.073,0.109,0.139,0.258,0.195,0.441c0.056,0.185,0.12,0.313,0.195,0.387c-0.037,0.074-0.055,0.185-0.054,0.332
				c0,0.185,0.076,0.406,0.225,0.663s0.241,0.423,0.278,0.496c0.001,0.075,0.001,0.194,0.002,0.36s0.021,0.285,0.058,0.358
				c0.036,0.074,0.084,0.139,0.14,0.193c0.055,0.055,0.084,0.102,0.084,0.138c0.113,0.664,0.188,1.014,0.226,1.05
				c0,0.037-0.009,0.12-0.026,0.249c-0.019,0.13-0.026,0.23-0.026,0.305c0.003,0.553,0.097,1.015,0.284,1.382
				c0.002,0.442,0.021,0.83,0.061,1.162c0,0.11,0.038,0.267,0.113,0.469c0.074,0.203,0.112,0.341,0.112,0.414
				c0.001,0.11-0.055,0.223-0.164,0.333c0,0.074,0.01,0.176,0.028,0.305c0.02,0.129,0.03,0.23,0.03,0.304
				c0.002,0.332-0.053,0.628-0.161,0.887c0.036,0.11,0.056,0.258,0.057,0.442c0.001,0.258-0.017,0.442-0.052,0.553
				c0,0.074,0.018,0.148,0.056,0.222c0.037,0.073,0.037,0.146,0.001,0.221c0,0.038-0.037,0.075-0.11,0.111
				c-0.073,0.038-0.109,0.111-0.109,0.222l0.004,0.609c0,0.037,0.018,0.083,0.055,0.137c0.038,0.056,0.057,0.103,0.057,0.139
				c-0.108,0.333-0.163,0.518-0.163,0.554c0.001,0.148,0.057,0.332,0.169,0.553c0,0.074-0.037,0.147-0.109,0.222
				c-0.074,0.075-0.111,0.13-0.11,0.166c0.037,0.037,0.056,0.186,0.058,0.443c0,0.11,0.02,0.185,0.057,0.221
				c-0.037,0.037-0.074,0.083-0.11,0.139c-0.037,0.055-0.074,0.103-0.11,0.139c-0.036,0.037-0.073,0.083-0.109,0.139
				c-0.037,0.057-0.093,0.084-0.166,0.084c-0.144,0.665-0.253,1.108-0.325,1.33c-0.037,0-0.093,0.027-0.165,0.084
				c-0.074,0.055-0.147,0.065-0.222,0.028c-0.219,0.37-0.365,0.555-0.439,0.555c-0.036,0.222-0.146,0.426-0.329,0.611
				c-0.037,0.074-0.027,0.129,0.028,0.166c0.056,0.036,0.084,0.073,0.084,0.109c-0.772,0.41-1.508,0.985-2.204,1.726
				c-0.186,0.001-0.425,0.113-0.719,0.336c-0.11,0.001-0.239,0.048-0.386,0.141c-0.147,0.093-0.258,0.139-0.331,0.14l-0.332,0.001
				c-0.074,0.001-0.332,0.095-0.773,0.28c-0.368,0.188-0.57,0.299-0.606,0.335c-0.443,0.078-0.737,0.17-0.885,0.282l-0.221-0.055
				c-0.075,0-0.176,0.038-0.304,0.112c-0.13,0.074-0.23,0.112-0.305,0.112l-1.217,0.006c-0.441,0.077-0.793,0.114-1.05,0.116
				l-0.222,0.001c-0.074,0-0.147-0.035-0.223-0.109c-0.11,0-0.268,0.02-0.47,0.057c-0.202,0.038-0.358,0.058-0.47,0.059
				c-0.406,0.002-0.7-0.016-0.886-0.052c-0.074,0.001-0.185-0.017-0.332-0.053s-0.276-0.055-0.387-0.054
				c-0.038,0-0.093,0.01-0.166,0.028c-0.075,0.02-0.13,0.028-0.166,0.028c-0.111,0.001-0.259-0.054-0.444-0.163
				c-0.185-0.11-0.314-0.165-0.388-0.164l-0.222,0.001c-0.221,0.001-0.461-0.09-0.72-0.274c-0.111-0.035-0.24-0.099-0.389-0.191
				c-0.147-0.091-0.241-0.136-0.277-0.136l-0.166,0.001c-0.037-0.037-0.11-0.111-0.223-0.221c-0.11-0.11-0.204-0.184-0.277-0.221
				c-0.333-0.219-0.5-0.347-0.5-0.384c-0.406-0.034-0.905-0.272-1.496-0.713c-0.075-0.035-0.167-0.109-0.279-0.219
				c-0.11-0.111-0.204-0.184-0.277-0.221c-0.259-0.257-0.408-0.422-0.444-0.496l-0.444-0.329c0-0.073-0.057-0.156-0.167-0.249
				c-0.111-0.09-0.167-0.192-0.168-0.303l-0.276-0.108c-0.15-0.258-0.346-0.636-0.587-1.132c-0.243-0.497-0.419-0.836-0.53-1.021
				c-0.188-0.367-0.355-0.828-0.505-1.38c-0.113-0.368-0.169-0.57-0.169-0.607l-0.224-0.387c0-0.036-0.058-0.608-0.175-1.714
				c-0.113-0.554-0.17-0.848-0.17-0.885c-0.038-0.146-0.048-0.368-0.031-0.663c0.018-0.296,0.025-0.499,0.024-0.609
				c0-0.074-0.02-0.193-0.057-0.359c-0.038-0.166-0.057-0.285-0.058-0.359c0-0.073,0.019-0.146,0.055-0.221s0.055-0.13,0.054-0.167
				c0-0.074-0.01-0.203-0.028-0.387c-0.02-0.185-0.012-0.332,0.024-0.443l0.055-0.222c0.036-0.073,0.035-0.166-0.001-0.276
				l-0.057-0.222c0.108-0.442,0.181-0.72,0.217-0.83c0.036-0.111,0.055-0.286,0.054-0.526c-0.001-0.239,0.015-0.46,0.051-0.663
				c0.035-0.203,0.11-0.361,0.22-0.472c-0.002-0.405,0.143-0.831,0.437-1.275c0.069-0.664,0.252-1.088,0.547-1.274v-0.11
				c-0.039-0.073-0.057-0.129-0.057-0.166c0.073-0.037,0.146-0.111,0.22-0.223c0.073-0.111,0.128-0.167,0.165-0.167
				c0.037-0.036,0.036-0.073-0.001-0.11c-0.037-0.036-0.055-0.073-0.055-0.11c0.072-0.036,0.137-0.103,0.192-0.195
				c0.055-0.091,0.118-0.156,0.192-0.194c0.035-0.258,0.163-0.535,0.383-0.832c0.22-0.295,0.348-0.518,0.384-0.665
				c0.623-0.74,0.953-1.148,0.99-1.223c0.073-0.036,0.35-0.186,0.828-0.446c0.072-0.036,0.183-0.12,0.33-0.251
				c0.146-0.129,0.275-0.213,0.386-0.251c0.037,0,0.102-0.018,0.194-0.056c0.091-0.037,0.156-0.056,0.193-0.057
				c0.036,0,0.165-0.056,0.387-0.168c0.22-0.111,0.404-0.168,0.552-0.168c0.036-0.037,0.128-0.14,0.274-0.307
				c0.147-0.166,0.294-0.268,0.441-0.306c0.074-0.036,0.257-0.084,0.553-0.142c0.295-0.056,0.478-0.14,0.552-0.252
				c0.147,0.037,0.406,0.054,0.775,0.052l0.276-0.001c0.073,0,0.156-0.037,0.249-0.111c0.091-0.075,0.174-0.112,0.248-0.112
				c0.736-0.188,1.123-0.301,1.159-0.338c0.075,0.036,0.167,0.055,0.278,0.054c0.221-0.001,0.404-0.075,0.551-0.225
				c0.073-0.036,0.222-0.056,0.442-0.057l0.72-0.003C51.783,113.309,51.949,113.29,52.06,113.252z M52.297,116.681
				c-0.035,0.296-0.218,0.536-0.549,0.723l0.001,0.276l-0.165,0.112c0.001,0.147-0.036,0.268-0.108,0.359
				c-0.075,0.092-0.157,0.194-0.248,0.305c-0.092,0.112-0.157,0.204-0.192,0.278c0,0.037,0.019,0.092,0.057,0.166
				c0.036,0.074,0.056,0.129,0.056,0.165l-0.11,0.056c-0.11,0.038-0.185,0.075-0.221,0.111l0.002,0.332
				c0.002,0.443-0.198,0.942-0.602,1.498l0.002,0.222c0,0.11-0.009,0.286-0.026,0.525c-0.018,0.24-0.025,0.415-0.024,0.525
				c0.001,0.221,0.038,0.442,0.113,0.663c-0.11,0.038-0.165,0.13-0.164,0.277c0,0.037,0,0.074,0,0.11
				c0,0.037-0.036,0.093-0.109,0.167c-0.036,0.111-0.063,0.24-0.081,0.388c-0.019,0.147-0.026,0.258-0.025,0.332
				c0.11,0.11,0.167,0.275,0.168,0.497c0.001,0.221-0.073,0.443-0.218,0.665c0.074,0.221,0.112,0.387,0.112,0.497
				c0.001,0.186-0.035,0.425-0.106,0.721c0,0.037,0.036,0.091,0.111,0.165c0.074,0.074,0.092,0.147,0.057,0.221
				c-0.073,0.222-0.107,0.628-0.104,1.218c0.001,0.221,0.011,0.563,0.032,1.023c0.021,0.461,0.031,0.802,0.032,1.023l0.002,0.332
				c0,0.037,0.019,0.102,0.057,0.193c0.036,0.093,0.057,0.156,0.057,0.192c0.074,0.259,0.122,0.628,0.144,1.106
				c0.021,0.479,0.05,0.811,0.088,0.995l0.168,0.497c0.15,0.553,0.281,0.884,0.393,0.993c0.111,0.111,0.313,0.239,0.61,0.385
				c0.073,0,0.138,0.019,0.193,0.055c0.057,0.037,0.103,0.055,0.14,0.055c0.073,0.036,0.146,0.055,0.221,0.055
				c0.037-0.001,0.129-0.02,0.277-0.058c0.146-0.037,0.257-0.037,0.332-0.001c0.514-0.371,0.918-0.613,1.213-0.726
				c0.036-0.073,0.1-0.185,0.191-0.333c0.092-0.147,0.174-0.259,0.248-0.333c0.072-0.11,0.154-0.313,0.246-0.609
				c0.09-0.296,0.153-0.499,0.19-0.609l0.164-0.278c0.036-0.073,0.063-0.166,0.082-0.276c0.018-0.11,0.045-0.203,0.081-0.277
				c0.221-0.333,0.329-0.556,0.329-0.666c-0.001-0.11-0.02-0.183-0.057-0.221c0.073-0.111,0.155-0.277,0.246-0.498
				c0.091-0.223,0.155-0.369,0.192-0.444l-0.057-0.221c-0.001-0.11,0.035-0.239,0.108-0.389c0.073-0.146,0.11-0.239,0.11-0.276
				c-0.001-0.036-0.001-0.119-0.002-0.249c0-0.129,0.017-0.229,0.054-0.306c-0.001-0.073,0.018-0.146,0.055-0.221
				c0.035-0.073,0.055-0.129,0.055-0.166l-0.004-0.83c0.035-0.184,0.098-0.471,0.188-0.858c0.09-0.388,0.135-0.637,0.134-0.748
				c0.072-0.442,0.004-1.069-0.202-1.88c-0.207-0.81-0.311-1.399-0.313-1.769c-0.112-0.184-0.197-0.487-0.254-0.911
				c-0.058-0.424-0.105-0.692-0.143-0.802c-0.262-0.589-0.393-0.957-0.393-1.104c-0.446-0.772-0.689-1.287-0.727-1.546
				c-0.148-0.072-0.36-0.2-0.638-0.385c-0.278-0.182-0.51-0.31-0.694-0.383C52.851,116.716,52.592,116.679,52.297,116.681z"/>
		</g>
		<g>
			<path fill="#231F20" d="M70.912,113.885c0.074,0.008,0.143,0.053,0.209,0.134c0.065,0.081,0.135,0.125,0.209,0.133
				c0.604,0.25,0.938,0.415,1.004,0.496c0.146,0.016,0.254,0.045,0.324,0.09c0.068,0.044,0.152,0.137,0.248,0.276
				c0.098,0.14,0.18,0.232,0.25,0.277c-0.058,0.549-0.177,0.964-0.354,1.24c0.024,0.115,0.096,0.225,0.216,0.33
				c0.118,0.105,0.171,0.213,0.159,0.323c-0.008,0.074-0.033,0.145-0.076,0.214c-0.045,0.069-0.1,0.147-0.164,0.232
				c-0.065,0.087-0.12,0.164-0.165,0.233c0.123,0.236,0.141,0.424,0.054,0.563c0.023,0.113,0.11,0.179,0.257,0.194l-0.012,0.109
				c-0.008,0.074,0.028,0.17,0.108,0.29c0.079,0.118,0.118,0.198,0.114,0.233c0.049,0.228,0.067,0.416,0.052,0.562
				c-0.008,0.074-0.125,0.469-0.348,1.188c0.065,0.081,0.093,0.176,0.081,0.286c-0.004,0.037-0.021,0.1-0.048,0.189
				c-0.029,0.09-0.046,0.173-0.053,0.245l-0.018,0.165c-0.004,0.037,0.037,0.17,0.123,0.402l-0.018,0.164
				c-0.008,0.075-0.028,0.184-0.063,0.327c-0.033,0.146-0.054,0.255-0.062,0.327c-0.016,0.148,0.005,0.299,0.063,0.452
				c-0.012,0.11-0.059,0.199-0.14,0.264c-0.011,0.11,0.002,0.334,0.041,0.673c0.037,0.337,0.048,0.598,0.028,0.781l-0.023,0.22
				c-0.012,0.11-0.063,0.244-0.153,0.401c-0.091,0.157-0.14,0.272-0.147,0.346c-0.004,0.036,0.076,0.157,0.24,0.359
				c0.033,0.375,0.047,0.599,0.04,0.672c0.201,0.208,0.317,0.498,0.354,0.872c0.027,0.078,0.003,0.131-0.073,0.159
				c-0.082,0.066-0.123,0.118-0.127,0.153c0.032,0.746,0.048,1.137,0.044,1.173c0.027,0.078,0.032,0.208,0.013,0.392l-0.041,0.385
				c-0.038,0.367-0.049,0.645-0.031,0.831c-0.008,0.073,0.008,0.188,0.048,0.338c0.04,0.154,0.054,0.283,0.042,0.395
				c0.028,0.077,0.038,0.171,0.026,0.28c-0.016,0.146-0.017,0.323-0.001,0.528c0.015,0.206,0.038,0.432,0.068,0.675
				c0.028,0.245,0.055,0.442,0.076,0.593l-0.107,0.489c-0.035,0.33-0.034,0.497,0.003,0.501c0.025,0.114,0.099,0.289,0.223,0.524
				c0.122,0.235,0.201,0.375,0.235,0.414l0.343,0.426c0.336,0.332,0.705,0.52,1.109,0.563c0.407,0.007,0.712-0.074,0.916-0.237
				c0.202-0.164,0.334-0.539,0.396-1.127l0.029-0.274c0.003-0.036,0.024-0.071,0.065-0.104c0.041-0.032,0.064-0.067,0.068-0.104
				l0.289-0.636l0.023-0.221l0.069-0.66c0.012-0.11,0.082-0.251,0.212-0.423c-0.1-0.121-0.146-0.201-0.143-0.238
				c0.373-1.776,0.56-2.833,0.557-3.167c0.008-0.074,0.01-0.174,0.005-0.306c-0.005-0.13-0.003-0.231,0.005-0.306
				c0.004-0.036,0.019-0.089,0.045-0.162c0.026-0.071,0.041-0.125,0.045-0.162c0.008-0.074,0.008-0.165,0.001-0.277
				s-0.008-0.186-0.004-0.223c0.016-0.146,0.066-0.363,0.153-0.651c0.085-0.289,0.133-0.47,0.141-0.543s0.007-0.156-0.002-0.251
				c-0.009-0.092-0.011-0.158-0.007-0.195c0.007-0.072,0.055-0.179,0.144-0.318c0.004-0.036-0.01-0.084-0.039-0.143
				c-0.031-0.059-0.043-0.125-0.035-0.199c0.133-0.208,0.212-0.423,0.234-0.643c0.016-0.146,0.015-0.396-0.004-0.751
				s-0.018-0.622,0.002-0.808l0.012-0.109c0.004-0.035,0-0.092-0.01-0.167c-0.012-0.076-0.016-0.132-0.012-0.169l0.163-1.539
				l0.099-0.936l0.197-1.871l0.253-0.809l0.04-0.385c0.016-0.146,0.046-0.347,0.093-0.603c0.044-0.254,0.075-0.455,0.091-0.602
				l0.035-0.331c0.121-0.098,0.298-0.19,0.53-0.277l0.529-0.278c0.118-0.061,0.4-0.104,0.849-0.132l0.684-0.15
				c0.036,0.004,0.126,0.033,0.269,0.084c0.143,0.053,0.233,0.08,0.271,0.084c0.402,0.042,0.62,0.085,0.654,0.125
				c0.374-0.034,0.652-0.043,0.836-0.023l0.221,0.023c0.221,0.023,0.504,0.137,0.854,0.341c0.349,0.204,0.615,0.315,0.799,0.335
				c0.223,0.356,0.403,0.579,0.542,0.669c-0.008,0.074,0.019,0.169,0.081,0.287c0.062,0.117,0.091,0.194,0.087,0.231
				c0.027,0.078,0.034,0.189,0.02,0.334c-0.008,0.076-0.031,0.211-0.071,0.41c-0.04,0.201-0.064,0.356-0.076,0.466
				c-0.004,0.037-0.011,0.11-0.022,0.22l-0.067,0.104c-0.004,0.037,0.009,0.095,0.038,0.172c0.027,0.077,0.04,0.134,0.036,0.171
				c-0.012,0.109-0.048,0.271-0.105,0.489c-0.061,0.216-0.097,0.379-0.108,0.488c-0.023,0.221-0.005,0.39,0.058,0.507
				c-0.156,0.429-0.24,0.698-0.252,0.808c-0.023,0.221,0.011,0.429,0.101,0.622c-0.041,0.033-0.066,0.114-0.08,0.243
				s-0.024,0.229-0.032,0.303c-0.004,0.037-0.047,0.087-0.127,0.153c-0.082,0.066-0.13,0.172-0.146,0.318s0.029,0.412,0.14,0.794
				l-0.041,0.384c-0.031,0.295-0.147,0.506-0.346,0.632c-0.05,0.477-0.116,0.748-0.197,0.813c-0.008,0.074,0.007,0.111,0.043,0.115
				c0.066,0.082,0.098,0.142,0.094,0.177c-0.045,0.07-0.072,0.16-0.084,0.27c-0.008,0.073-0.01,0.166-0.002,0.278
				c0.007,0.112,0.008,0.187,0.004,0.223c0.061,0.117,0.118,0.29,0.169,0.519l-0.075,0.715c-0.031,0.294-0.018,0.499,0.045,0.617
				c-0.008,0.073-0.041,0.126-0.101,0.157c-0.058,0.031-0.092,0.082-0.1,0.156c-0.008,0.073,0.023,0.216,0.095,0.426
				c0.07,0.211,0.099,0.372,0.087,0.482c-0.004,0.037-0.05,0.125-0.139,0.263c0.028,0.078,0.027,0.281-0.008,0.611
				c0.086,0.232,0.128,0.367,0.124,0.403l-0.018,0.165c-0.022,0.22-0.06,0.382-0.107,0.489c-0.004,0.037-0.051,0.125-0.139,0.263
				c-0.049,0.106-0.087,0.289-0.113,0.545c-0.031,0.293-0.036,0.775-0.014,1.444c0.022,0.67-0.004,1.168-0.074,1.495
				c-0.004,0.036-0.021,0.108-0.051,0.217c-0.03,0.108-0.049,0.199-0.057,0.272c-0.102,0.249-0.211,0.589-0.331,1.021
				c-0.228,0.755-0.427,1.235-0.597,1.439s-0.275,0.323-0.316,0.355c-0.21,0.238-0.336,0.373-0.376,0.406l-0.035,0.33
				c-0.077,0.029-0.168,0.094-0.271,0.194c-0.104,0.1-0.193,0.165-0.271,0.193c-0.045,0.07-0.099,0.138-0.16,0.205
				c-0.063,0.068-0.099,0.139-0.106,0.212c-0.82,0.396-1.742,0.873-2.766,1.433l-0.274-0.029c-0.208,0.201-0.332,0.317-0.372,0.351
				c-0.109-0.012-0.262,0.019-0.454,0.091c-0.194,0.073-0.345,0.103-0.455,0.091c-0.078,0.029-0.181,0.037-0.309,0.023
				c-0.129-0.014-0.24-0.007-0.336,0.02c-0.096,0.027-0.166,0.076-0.21,0.146c-0.076,0.028-0.227,0.041-0.447,0.035
				c-0.223-0.004-0.393,0.024-0.511,0.086c-0.032-0.039-0.105-0.057-0.217-0.051c-0.112,0.008-0.187,0.008-0.224,0.004
				c-0.041,0.033-0.339,0.057-0.897,0.073c-0.477-0.051-0.823-0.105-1.039-0.166c-0.217-0.06-0.512-0.157-0.888-0.288
				c-0.377-0.133-0.656-0.209-0.838-0.229c-0.037-0.004-0.126-0.05-0.264-0.139c-0.889-0.02-1.526-0.31-1.911-0.87
				c-0.146-0.015-0.315-0.089-0.505-0.22c-0.191-0.131-0.34-0.203-0.451-0.215l-0.225,0.033c-0.337-0.333-0.631-0.531-0.884-0.595
				c-0.099-0.121-0.314-0.273-0.646-0.458c-0.335-0.183-0.544-0.391-0.63-0.622c-0.434-0.12-0.672-0.313-0.719-0.577
				c-0.212-0.096-0.432-0.305-0.657-0.626c-0.226-0.32-0.354-0.5-0.387-0.54c0.008-0.074-0.003-0.159-0.03-0.254
				s-0.021-0.16,0.021-0.193c-0.037-0.004-0.082-0.009-0.138-0.015c-0.055-0.006-0.117-0.03-0.187-0.075
				c-0.029-0.076-0.128-0.282-0.296-0.615c-0.17-0.333-0.261-0.612-0.273-0.836c0.008-0.072-0.002-0.167-0.026-0.28
				c-0.024-0.114-0.036-0.188-0.032-0.226c0.008-0.074-0.01-0.26-0.052-0.563c-0.042-0.301-0.054-0.543-0.034-0.727
				s0.053-0.328,0.102-0.435c-0.124-0.235-0.1-0.474,0.075-0.715c-0.087-0.232-0.121-0.606-0.104-1.124
				c0.018-0.517,0.03-0.812,0.038-0.886c0.011-0.11-0.007-0.297-0.052-0.563c-0.047-0.264-0.063-0.451-0.053-0.562
				c0.008-0.073,0.01-0.175,0.005-0.306c-0.005-0.13-0.003-0.231,0.005-0.306c0.023-0.22,0.09-0.509,0.202-0.868l-0.043-0.116
				c-0.028-0.077-0.061-0.136-0.093-0.177l0.029-0.275c0.019-0.183,0.028-0.45,0.029-0.803c0-0.352,0.01-0.619,0.029-0.803
				c0.008-0.074,0.035-0.154,0.081-0.242s0.071-0.151,0.075-0.188c0.012-0.11,0.018-0.257,0.019-0.443
				c0.001-0.185,0.008-0.332,0.02-0.441c0.008-0.074,0.04-0.21,0.098-0.408c0.058-0.197,0.094-0.352,0.105-0.461
				c0.012-0.111,0.022-0.305,0.033-0.581c0.01-0.278,0.023-0.488,0.039-0.637c0.02-0.182,0.017-0.332-0.008-0.444
				c0.043-0.07,0.127-0.154,0.248-0.252c0.004-0.036-0.011-0.075-0.043-0.117c-0.07-0.044-0.101-0.102-0.093-0.176
				c0.048-0.106,0.087-0.287,0.114-0.545l0.145-1.375c-0.029-0.078-0.036-0.189-0.021-0.336s0.087-0.473,0.215-0.979l0.093-0.88
				c0.077-0.733,0.187-1.241,0.329-1.524c-0.06-0.153-0.087-0.249-0.083-0.286c0.008-0.073,0.157-0.261,0.45-0.564
				c0.04-0.031,0.085-0.102,0.133-0.208l0.122-0.099c0.121-0.098,0.589-0.309,1.401-0.631l0.47-0.229
				c0.342-0.075,0.75-0.088,1.229-0.037c0.145,0.016,0.355,0.048,0.629,0.094c0.273,0.049,0.466,0.077,0.575,0.089
				c0.072,0.008,0.192,0.013,0.36,0.01C70.773,113.88,70.875,113.881,70.912,113.885z"/>
		</g>
		<g>
			<path fill="#231F20" d="M95.156,117.01c0.141,0.04,0.255,0.111,0.342,0.212l0.425,0.122c0.041,0.128,0.152,0.274,0.334,0.441
				c0.183,0.168,0.298,0.297,0.35,0.388c0.034,0.011,0.104,0.04,0.204,0.089c0.102,0.048,0.158,0.055,0.168,0.018
				c-0.021,0.072,0.012,0.158,0.098,0.26c0.087,0.102,0.137,0.191,0.151,0.273c0.141,0.041,0.238,0.107,0.289,0.198
				c0.1,0.182,0.182,0.302,0.243,0.356l-0.092,0.32c0.105,0.03,0.211,0.031,0.315,0.003c0.103-0.028,0.212-0.073,0.327-0.135
				c0.112-0.063,0.21-0.104,0.293-0.118c0.034,0.01,0.108,0.021,0.22,0.035c0.111,0.012,0.19,0.006,0.235-0.02
				c1.326-0.079,2.098-0.09,2.311-0.028c0.106,0.03,0.271,0.089,0.497,0.171c0.225,0.086,0.392,0.143,0.498,0.173
				c0.105,0.03,0.259,0.065,0.46,0.103c0.199,0.039,0.354,0.072,0.459,0.104l0.266,0.076c0.618,0.255,1.002,0.519,1.154,0.792
				c0.07,0.021,0.128,0.057,0.171,0.106c0.043,0.051,0.082,0.081,0.117,0.092c0.066,0.173,0.295,0.478,0.688,0.916
				c0.392,0.439,0.6,0.815,0.625,1.13c0.061,0.056,0.121,0.112,0.183,0.167c0.06,0.057,0.104,0.106,0.129,0.152
				c-0.006,0.151,0.032,0.354,0.112,0.608l0.175,0.396c-0.01,0.035-0.032,0.076-0.065,0.124c-0.033,0.049-0.055,0.091-0.065,0.126
				c0.025,0.046,0.077,0.1,0.156,0.159c0.078,0.062,0.13,0.114,0.155,0.16c-0.051,0.179,0.001,0.327,0.16,0.449l-0.091,0.318
				c-0.011,0.036,0.022,0.122,0.099,0.259c-0.027,0.223,0,0.527,0.082,0.917c0.08,0.388,0.09,0.687,0.029,0.899
				c0.076,0.137,0.084,0.313,0.022,0.525c-0.051,0.177-0.155,0.338-0.313,0.485c-0.01,0.035-0.027,0.192-0.05,0.475
				c-0.023,0.281-0.055,0.494-0.095,0.635l-0.046,0.159c-0.01,0.036-0.055,0.09-0.133,0.163c-0.079,0.073-0.129,0.146-0.149,0.217
				l-0.045,0.159c-0.021,0.071-0.047,0.131-0.081,0.178c-0.033,0.049-0.072,0.086-0.116,0.111c-0.048,0.024-0.079,0.073-0.1,0.144
				c-0.208,0.325-0.332,0.481-0.366,0.471l-0.091,0.318c-0.122,0.426-0.292,0.819-0.511,1.178c-0.163,0.032-0.261,0.04-0.296,0.03
				c-0.065,0.097-0.194,0.242-0.384,0.437c-0.191,0.195-0.329,0.376-0.415,0.542c-0.045,0.025-0.158,0.08-0.334,0.164
				c-0.178,0.084-0.308,0.133-0.388,0.147l0.039,0.069c-0.021,0.07-0.036,0.125-0.046,0.158c-0.209,0.056-0.462,0.205-0.761,0.443
				c-0.299,0.242-0.536,0.393-0.708,0.46l0.039,0.068c-0.01,0.035-0.021,0.072-0.031,0.106c-0.021,0.071-0.145,0.17-0.374,0.295
				c-0.37,0.355-0.596,0.541-0.676,0.555c-0.03,0.106-0.076,0.229-0.134,0.364c-0.059,0.138-0.098,0.241-0.118,0.312
				c-0.041,0.143-0.055,0.254-0.038,0.335c-0.021,0.071-0.067,0.095-0.138,0.075c-0.056,0.062-0.089,0.109-0.099,0.145
				c-0.021,0.072-0.026,0.223-0.016,0.457c-0.102,0.086-0.212,0.303-0.331,0.651c-0.121,0.351-0.271,0.575-0.454,0.677
				c0.01,0.233,0.006,0.385-0.015,0.455c-0.031,0.107-0.069,0.174-0.115,0.198c0.175,1.125,0.284,1.75,0.325,1.877l-0.03,0.106
				c-0.031,0.106-0.026,0.223,0.015,0.349c0.04,0.128,0.055,0.21,0.044,0.245l-0.015,0.053c-0.056,0.062-0.088,0.108-0.098,0.145
				c0.182,0.166,0.323,0.342,0.424,0.524c0.024,0.045,0.027,0.104,0.007,0.175c0.096,0.065,0.166,0.191,0.208,0.377
				c0.043,0.184,0.094,0.305,0.156,0.36l-0.083,0.091c-0.04,0.143,0.038,0.338,0.234,0.586c-0.021,0.072-0.036,0.124-0.046,0.159
				c-0.092,0.051-0.124,0.1-0.099,0.144c0.025,0.047,0.145,0.1,0.357,0.16c0.157,0.391,0.2,0.711,0.129,0.958
				c0.05,0.092,0.082,0.245,0.097,0.46s0.03,0.364,0.045,0.444c-0.39,0.427-0.725,0.655-1.004,0.69
				c-0.03,0.105-0.068,0.173-0.113,0.198c-0.269,0-0.454,0.042-0.555,0.128c-0.588-0.092-1.467-0.307-2.636-0.642
				c-0.228-0.41-0.532-0.688-0.911-0.837l0.061-0.213c-0.071-0.021-0.15-0.08-0.235-0.182c-0.087-0.102-0.177-0.186-0.274-0.252
				c-0.183-0.435-0.445-0.855-0.788-1.262l0.045-0.16c-0.253-0.188-0.413-0.502-0.479-0.943c-0.156-0.121-0.325-0.303-0.503-0.546
				c-0.18-0.244-0.3-0.394-0.361-0.449c-0.142-0.041-0.25-0.13-0.326-0.267c-0.027-0.045-0.018-0.14,0.022-0.281
				c-0.071-0.021-0.156-0.093-0.254-0.217c-0.099-0.125-0.196-0.219-0.292-0.285c-0.051-0.093-0.03-0.163,0.062-0.214
				c-0.228-0.142-0.343-0.347-0.341-0.616l-0.266-0.076c-0.045,0.026-0.08,0.074-0.1,0.146c-0.056,0.061-0.102,0.085-0.136,0.075
				l0.152,0.273c-0.031,0.106-0.079,0.236-0.142,0.392c-0.063,0.154-0.105,0.267-0.125,0.339c-0.01,0.035-0.003,0.076,0.023,0.12
				l0.022,0.123c0.003,0.115-0.023,0.28-0.083,0.493c-0.051,0.178-0.053,0.312-0.001,0.402l-0.16,0.357
				c-0.041,0.142-0.07,0.345-0.088,0.607c-0.019,0.265-0.047,0.468-0.088,0.608l-0.091,0.319c-0.458,0.253-1.058,0.271-1.802,0.059
				c-1.418-0.408-2.243-0.875-2.475-1.401c-0.395-0.229-0.735-0.651-1.017-1.271c-0.122-0.112-0.195-0.189-0.22-0.235l-0.258-0.708
				c-0.025-0.045-0.046-0.107-0.061-0.189l-0.037-0.068c-0.026-0.045-0.068-0.135-0.126-0.266c-0.058-0.133-0.101-0.221-0.125-0.266
				c-0.126-0.229-0.213-0.657-0.264-1.285c-0.015-0.081,0.007-0.258,0.065-0.528c0.058-0.271,0.067-0.471,0.027-0.597
				c0.041-0.142,0.083-0.226,0.13-0.25c-0.111-0.148-0.106-0.568,0.017-1.263c0.02-0.07,0.017-0.158-0.011-0.263
				c-0.027-0.102-0.036-0.173-0.026-0.208l0.16-1.162c0.021-0.071,0.076-0.132,0.168-0.182c-0.026-0.046,0.008-0.229,0.099-0.548
				c0.02-0.071,0.017-0.129-0.008-0.176c0.045-0.023,0.089-0.107,0.13-0.25c0.091-0.319,0.16-0.49,0.206-0.516
				c-0.026-0.045-0.026-0.113,0-0.202c0.025-0.088,0.048-0.167,0.069-0.239l-0.068-0.364c0.071-0.248,0.19-0.463,0.358-0.646
				c-0.011-0.232,0.022-0.414,0.099-0.547c0.056-0.062,0.089-0.107,0.1-0.144c0.021-0.071,0.035-0.191,0.045-0.362
				c0.011-0.169,0.026-0.288,0.046-0.359c0.041-0.142,0.129-0.251,0.267-0.326c-0.041-0.128-0.021-0.333,0.061-0.617
				c0.122-0.425,0.268-0.729,0.435-0.91c0.01-0.035-0.011-0.099-0.061-0.19l0.153-0.532c0.193-0.673,0.396-1.114,0.609-1.321
				c-0.001-0.268,0.082-0.686,0.245-1.254l0.083-0.091c0.045-0.024,0.074-0.056,0.084-0.091l-0.023-0.122
				c0.01-0.034,0.021-0.07,0.031-0.105s0.044-0.122,0.103-0.259c0.059-0.137,0.104-0.258,0.134-0.365l0.061-0.211l0.167-0.183
				c0.01-0.305,0.041-0.544,0.092-0.722c0.071-0.248,0.185-0.446,0.344-0.592l0.015-0.055l-0.023-0.121
				c0.031-0.106,0.1-0.22,0.213-0.342c0.111-0.121,0.172-0.2,0.182-0.236l0.26-0.903c0.081-0.283,0.16-0.491,0.237-0.623
				l0.115-0.196l0.03-0.107c0.071-0.246,0.151-0.396,0.243-0.448c0.045-0.024,0.055-0.061,0.03-0.105l-0.038-0.068
				c0.056-0.062,0.124-0.232,0.206-0.517c0.021-0.07,0.077-0.17,0.172-0.297c0.094-0.125,0.146-0.207,0.156-0.242
				c0.122-0.426,0.227-0.663,0.319-0.714l-0.037-0.069l-0.054-0.016c-0.026-0.045-0.009-0.068,0.05-0.072
				c0.058-0.001,0.092-0.021,0.102-0.056l0.107-0.372c0.091-0.319,0.242-0.641,0.45-0.965l0.372,0.106
				c0.354,0.102,0.623,0.103,0.806,0.001c0.06,0.057,0.268,0.134,0.623,0.236l0.197,0.114l0.267,0.076
				c0.035,0.011,0.165,0.028,0.387,0.054C94.896,116.974,95.084,116.989,95.156,117.01z M101.462,123.309
				c-0.699-0.237-1.524-0.438-2.476-0.596c-0.093,0.051-0.218,0.091-0.38,0.122c-0.072-0.021-0.119-0.054-0.144-0.1
				c-0.092,0.051-0.219,0.091-0.38,0.121c-0.163,0.03-0.266,0.058-0.313,0.084c-0.334,0.095-0.542,0.15-0.623,0.165l-0.319-0.091
				c-0.082,0.016-0.145,0.036-0.19,0.061c-0.046,0.026-0.108,0.075-0.187,0.148c-0.078,0.073-0.146,0.141-0.201,0.201
				c-0.046,0.024-0.114,0.063-0.205,0.113l-0.122,0.023l-0.137,0.478c-0.021,0.072-0.101,0.182-0.241,0.334
				c-0.14,0.151-0.242,0.276-0.308,0.372c-0.096,0.202-0.216,0.553-0.359,1.048c-0.143,0.498-0.221,0.84-0.236,1.026l-0.061,0.213
				c-0.061,0.213-0.234,0.547-0.518,1.002c0.076,0.138,0.083,0.312,0.021,0.524c-0.01,0.035-0.047,0.064-0.109,0.083
				c-0.063,0.021-0.105,0.066-0.126,0.137c-0.051,0.179-0.036,0.393,0.045,0.646l-0.045,0.159c-0.082,0.284-0.111,0.449-0.084,0.494
				l-0.175,0.008c-0.072-0.021-0.111-0.014-0.122,0.022l0.076,0.138c0.086,0.102,0.136,0.191,0.152,0.272
				c-0.011,0.036-0.036,0.086-0.072,0.151c-0.039,0.067-0.063,0.117-0.073,0.152c-0.051,0.178-0.014,0.38,0.114,0.609
				c0.137-0.076,0.43-0.164,0.881-0.266s0.777-0.237,0.98-0.409c0.806,0.001,1.424-0.283,1.856-0.849
				c0.126-0.041,0.279-0.141,0.459-0.3s0.293-0.251,0.338-0.277c0.305,0.011,0.487-0.091,0.548-0.304l0.03-0.106
				c0.105,0.03,0.185-0.042,0.235-0.22c0.552-0.188,1.012-0.515,1.377-0.986c0.127-0.039,0.284-0.157,0.476-0.352
				c0.19-0.196,0.366-0.309,0.529-0.339l-0.039-0.068c-0.061-0.056-0.086-0.102-0.076-0.137c0.045-0.025,0.167-0.182,0.365-0.47
				c-0.016-0.082-0.002-0.193,0.039-0.335c0.03-0.106,0.12-0.291,0.273-0.555c0.152-0.263,0.244-0.448,0.275-0.556
				c-0.015-0.349-0.06-0.592-0.137-0.729c-0.015-0.081-0.111-0.213-0.287-0.399C101.612,123.592,101.503,123.436,101.462,123.309z"
				/>
		</g>
	</g>
	<path fill="#468885" d="M78.18,53.784h2.298c0,0-1.765,2.459-2.123,2.9c-0.397,0.033-1.139-1.122-1.139-1.122L78.18,53.784z"/>
	<path fill="#F6921E" d="M65.778,47.973c0,0,4.752-18.167-5.478-23.917c-10.229-5.75-9.199-19.064,8.021-10.8
		c14.874-18.632,35.585-2.317,18.698,20.05C73.674,50.981,65.778,47.973,65.778,47.973z"/>
	<path fill="#FAAF40" d="M56.793,26.556c0,0-9.764-15.75-29.617-5c-19.854,10.75-10.104,19.884,2.396,16.191
		C42.072,34.056,43.764,22.056,56.793,26.556z"/>
	<path fill="#5AB1AF" d="M28.322,49.299c0,0,10.858,2.021,14.68-7.236c3.82-9.257-5.874-6.1-8.902-2.679
		C31.072,42.806,32.657,48.167,28.322,49.299z"/>
	<path fill="#5AB1AF" d="M90.238,49.159c0,0,0.354-7.064,10.584-8.525c8.75-1.25,8.75,6.247,5.25,6.459
		C102.572,47.306,92.154,46.762,90.238,49.159z"/>
	<path fill="#FAAF40" d="M86.738,26.685c0,0,5.783-4.071,1.551-13.501c-3.618-8.064-9.955-4.059-8.265-0.986
		C81.716,15.269,87.741,23.784,86.738,26.685z"/>
	<g>
		<path fill="#F6921E" d="M60.341,37.063c0,0-25.977,26.908-20.69,32.608c-4.089-0.874-4.502-0.224-4.833-1.44
			c-2.467-9.057,13.688-31.995,19.137-33.2C59.402,33.825,60.341,37.063,60.341,37.063z"/>
		<path fill="#FAAF40" d="M60.341,52.68c-0.638,1.069-5.488-0.396-6.547,0.481c-4.397,8.525-10.244,17.892-14.144,16.51
			c-6.968-2.474,7.001-27.959,16.64-32.896C63.898,32.878,63.376,47.604,60.341,52.68z"/>
		<g>
			<path fill="#F6921E" d="M53.363,49.835c0,0,7.215-11.152,6.505-12.209c-0.71-1.054-7.583,2.281-8.175,5.468
				C51.105,46.28,52.71,50.857,53.363,49.835z"/>
			<path fill="#F6921E" d="M49.085,59.241c0,0-6.086,11.048-7.732,9.585c-1.648-1.461-0.733-10.043,1.52-10.567
				C45.125,57.729,49.697,58.16,49.085,59.241z"/>
			<path fill="#F6921E" d="M51.318,54.995c0,0,0.353-9.454-1.383-8.476c-1.734,0.979-5.905,7.268-5.025,8.534
				C45.789,56.323,51.292,56.265,51.318,54.995z"/>
			<path fill="#F6921E" d="M59.16,51.698c0,0-1.914,0.494-3.078-0.02c-1.162-0.515,0.917-7.866,3.949-9.007
				C63.066,41.534,60.051,50.878,59.16,51.698z"/>
		</g>
		<g>
			<path fill="#FAAF40" d="M44.713,64.49c-0.858-0.048-2.759,1.461-2.042,2.235C43.332,66.888,44.58,65.117,44.713,64.49z"/>
			<path fill="#FAAF40" d="M44.998,61.698c-0.531,0.603-2.1,3.595-2.91,2.78C41.121,63.513,44.998,61.698,44.998,61.698z"/>
			<path fill="#FAAF40" d="M42.397,61.68c1.175-1.273,2.58-1.697,3.882-1.659C46.279,60.021,42.412,63.58,42.397,61.68z"/>
		</g>
		<g>
			<path fill="#FAAF40" d="M57.574,42.419c-0.433-0.742,0.051-3.123,1.066-2.833C59.086,40.103,58.072,42.016,57.574,42.419z"/>
			<path fill="#FAAF40" d="M55.21,43.937c0.297-0.745,2.258-3.502,1.16-3.854C55.076,39.657,55.21,43.937,55.21,43.937z"/>
			<path fill="#FAAF40" d="M54.017,41.626c-0.604,1.623-0.343,3.067,0.279,4.213C54.296,45.839,55.718,40.78,54.017,41.626z"/>
		</g>
		<g>
			<path fill="#FAAF40" d="M50.333,50.521c-0.806-0.293-1.963-2.426-0.996-2.855C50.009,47.772,50.458,49.892,50.333,50.521z"/>
			<path fill="#FAAF40" d="M49.22,53.753c-0.535-0.285-3.291-0.993-2.429-1.639C47.804,51.347,49.22,53.753,49.22,53.753z"/>
			<path fill="#FAAF40" d="M47.708,49.977c0.401,1.282,1.388,1.946,2.497,2.228C50.205,52.204,48.597,48.481,47.708,49.977z"/>
		</g>
		<g>
			<path fill="#FAAF40" d="M58.617,44.735c0.858,0.01,2.69-1.584,1.938-2.323C59.884,42.277,58.722,44.104,58.617,44.735z"/>
			<path fill="#FAAF40" d="M58.461,47.54c0.505-0.625,1.932-3.691,2.78-2.911C62.25,45.546,58.461,47.54,58.461,47.54z"/>
			<path fill="#FAAF40" d="M61.06,47.438c-1.113,1.326-2.499,1.811-3.803,1.834C57.257,49.272,60.957,45.541,61.06,47.438z"/>
		</g>
	</g>
	<polygon fill="#231F20" points="54.265,52.216 60.732,52.282 60.732,53.753 53.488,53.753 	"/>
</g>
</svg>
