<?xml version="1.0" encoding="utf-8"?>
<!-- Generator: Adobe Illustrator 16.0.0, SVG Export Plug-In . SVG Version: 6.00 Build 0)  -->
<!DOCTYPE svg PUBLIC "-//W3C//DTD SVG 1.1//EN" "http://www.w3.org/Graphics/SVG/1.1/DTD/svg11.dtd">
<svg version="1.1" id="Layer_1" xmlns="http://www.w3.org/2000/svg" xmlns:xlink="http://www.w3.org/1999/xlink" x="0px" y="0px"
	 width="162.184px" height="146.261px" viewBox="0 0 162.184 146.261" enable-background="new 0 0 162.184 146.261"
	 xml:space="preserve">
<g id="Layer_2">
</g>
<g>
	<path fill="#FFFFFF" d="M28.39,41.721c3.916-6.691,4.68-9.619,12.637-11.416c6.666-1.504,9.587,0.424,15.563,1.963
		c1.867-5.08,4.836-6.246,7.946-9.985c2.765-3.323,1.665-7.929,3.314-12.41c0.878-0.279,2.829-0.281,3.688-0.018
		c0.4,0.766,1.147,1.25,1.501,1.828c2.505-2.587,3.15-8.248,5.712-10.265c5.408-4.259,3.496,2.138,5.438,5.267
		c2.104,3.388,5.294,1.552,8.193,3.877c2.976,2.386,0.402,1.804,1.478,4.407c0.778,1.885,1.209,2.185,2.352,3.942
		c1.146,1.768-0.354,2.095,1.54,3.41c0.779,0.542,5.52,1.323,6.497,1.513c5.729,1.107,9.645,1.14,14.898,3.252
		c2.869,1.152,6.959,0.858,7.746,4.586c0.729,3.453-3.928,4.025-5.817,6.748c1.641,2.256,7.133,3.58,9.697,5.377
		c3.248,2.277,6.075,5.703,8.946,8.275c3.739,3.352,4.305,5.072,3.541,10.449c-0.802,5.641-0.607,7.51,1.95,13.197
		c2.484,0.244,4.832,0.084,6.55-1.398c2.404,3.416,5.516,4.543,5.389,9.613c-0.08,3.223-3.122,5.84-3.089,8.727
		c0.041,3.621,3.164,5.172,4.839,7.75c2.171,3.344,4.564,10.611,2.479,14.025c-2.521,4.123-10.44,4.936-14.633,4.373
		c-1.305-0.176-2.486-0.008-3.733-0.326c-0.81-0.207-2.188-2.795-2.934-2.758c-2.626,0.127-3.729,4.092-5.045,5.918
		c-1.313,1.82-2.336,3.557-4.607,4.566c-1.286,0.569-2.842-0.304-4.154,0.272c-1.588,0.697-3.136,2.72-4.879,3.601
		c-2.348,1.186-5.331,1.438-7.83,2.237c-2.59,0.828-2.688,0.3-5.063,1.869c-1.319,0.871-2.978,2.728-4.254,3.744
		c-4.475,3.563-12.194,6.008-17.453,7.426c-6.835,1.845-12.82,0.666-19.068-1.787c-4.64-1.819-10.089-4.934-15.022-6.989
		c-4.331-1.804-15.192-0.896-15.127-7.226c-4.708-0.188-7.958,0.947-12.438,1.463c-4.75,0.548-8.033-1.967-12.41-2.198
		c-1.446-5.021-0.253-5.265-4.239-8.576c-1.99-1.652-5.237-3.229-6.572-5.578c-5.389-9.48,1.703-16.449,7.471-23.047
		c1.701-1.947,5.29-4.314,6.388-6.961c2.267-5.463-2.184-4.84-5.077-7.885c-4.558-4.792-5.4-13.611-2.136-19.008
		C13.267,49.789,23.924,49.355,28.39,41.721z"/>
	<path fill="#FAAF40" d="M51.698,114.65c4.105,32.016,53.526,32.016,54.954,3.152c0.454-9.176-1.066-16.449-6.973-23.699
		c-5.115-6.281-15.194-14.166-23.974-12.549c-5.438,1.002-12.921,6.412-16.066,10.707C57.211,95.576,51.026,109.41,51.698,114.65z"
		/>
	<path fill="#F6921E" d="M70.122,87.479c0,0-9.325,8.957-0.835,10.224c8.489,1.266,12.611-7.718,18.668-0.306
		c6.056,7.412,16.095,8.317,12.449,2.365c-3.645-5.953-12.063-13.16-14.255-13.996C78.883,82.992,72.583,86.21,70.122,87.479z"/>
	<g>
		<path fill="#231F20" d="M21.832,88.393c0.09,0.058,0.163,0.041,0.253,0.099c0.135,0.084,0.109,0.319,0.245,0.403
			c0.089,0.058,0.207,0.067,0.297,0.125c0.162,0.039,0.168,0.229,0.302,0.313c0.224,0.142,0.083,0.365,0.307,0.506
			c-0.056,0.091,0.006,0.191-0.124,0.298c0.106,0.129,0.265-0.021,0.225,0.141c0.078,0.175,0.083,0.365,0.104,0.63l0.077,0.174
			c-0.011,0.117-0.066,0.207-0.051,0.28c-0.063,0.397-0.083,1.324-0.179,1.576l-0.454,1.215c0.234,0.022,0.438-0.101,0.651-0.34
			l1.46-0.332c0.651-0.34,1.65-0.336,2.491-0.183c0.073-0.016,0.118,0.013,0.163,0.039c0.235,0.023,0.31,0.009,0.604,0.134
			c0.342,0.151,0.739,0.215,1.099,0.438c0.045,0.029,0.117,0.012,0.162,0.041c0.27,0.168,0.627,0.396,0.677,0.613
			c0.162,0.041,0.28,0.051,0.37,0.109c0.271,0.168,0.363,0.416,0.385,0.68c0.498,0.5,0.439,1.09,0.746,1.596
			c-0.237,0.475-0.036,0.852-0.272,1.328c0.005,0.189,0.038,0.336,0.015,0.572c-0.209,0.43-0.227,0.857-0.392,1.316
			c0.161,0.039,0.274-0.14,0.422-0.172c0.146-0.033,0.117,0.01,0.264-0.021c0.084-0.135,0.246-0.094,0.421-0.174
			c0.247-0.094,0.461-0.334,0.741-0.283l0.36-0.273c-0.058,0.09-0.013,0.117-0.04,0.162c0.264-0.021,0.482-0.07,0.773-0.137
			c0.41-0.055,0.897,0.064,1.291-0.063c0.504,0.19,1.061,0.104,1.463,0.356l0.09,0.058c0.135,0.084,0.146-0.033,0.265-0.019
			c0.149,0.157,0.347,0.342,0.524,0.455c0.313,0.196,0.655,0.353,0.996,0.5c0.09,0.057,0.151,0.157,0.213,0.258
			c0.6,0.44,0.979,0.931,1.402,1.446c0.018,0.072,0.006,0.191-0.006,0.31c0.117,0.013,0.072-0.016,0.134,0.086
			c0.102,0.438,0.346,0.843,0.52,1.263c-0.249,0.596,0.287,0.934,0.213,1.449c-0.013,0.116,0.15,0.155,0.213,0.26
			c-0.159,0.647,0.146,1.153-0.059,1.776c0.034,0.146,0.039,0.337-0.001,0.498c-0.012,0.119-0.129,0.106-0.156,0.152l0.094,0.245
			c-0.011,0.119-0.102,0.063-0.187,0.197c0.096,0.246,0.038,0.336,0.003,0.689c-0.007,0.309-0.058,0.588-0.237,0.977
			c-0.04,0.164-0.079,0.326-0.138,0.416c-0.056,0.088-0.156,0.15-0.258,0.209c-0.085,0.135-0.165,0.459-0.177,0.578
			c0.006,0.189,0.021,0.264,0.056,0.412c-0.068,0.207-0.182,0.385-0.321,0.609c-0.282,0.447-0.608,0.867-0.893,1.313
			c-0.084,0.135,0.079,0.174-0.007,0.309c-0.14,0.226-0.136,0.416-0.058,0.591c-0.157,0.149-0.124,0.297-0.208,0.43
			c0,0-0.029,0.046-0.104,0.063c0.051,0.219-0.001,0.5-0.114,0.68c-0.057,0.088-0.186,0.193-0.285,0.258
			c0.004,0.189-0.064,0.398-0.178,0.576c-0.141,0.225-0.298,0.375-0.5,0.496c0.062,0.102,0.082,0.365-0.002,0.5
			c-0.027,0.045-0.085,0.135-0.156,0.15c-0.024,0.235-0.12,0.488-0.232,0.668c-0.086,0.135-0.17,0.27-0.315,0.303
			c-0.157,0.15-0.022,0.234-0.107,0.369c-0.113,0.178-0.246,0.094-0.332,0.229c0.038,0.336-0.39,0.816-0.278,1.137
			c-0.23,0.168-0.254,0.404-0.457,0.525c-0.163,0.461-0.597,0.75-0.761,1.209c-0.101,0.063-0.174,0.078-0.319,0.111l-0.142,0.225
			c-0.113,0.18-0.197,0.313-0.405,0.246c-0.011,0.117-0.039,0.162-0.066,0.207c-0.143,0.223-0.36,0.273-0.501,0.496l-0.058,0.09
			c-0.442-0.09-0.534,0.354-0.838,0.537c-0.084,0.133-0.021,0.234-0.106,0.369c-0.428-0.018-0.934,0.289-1.382,0.006
			c-0.465,0.145-0.998-0.004-1.547-0.223c-0.118-0.012-0.292,0.065-0.397-0.064c-0.175,0.078-0.364,0.084-0.544-0.029
			c-0.045-0.027-0.105-0.129-0.122-0.201c-0.073,0.017-0.174,0.076-0.292,0.064c-0.252-0.096-0.273-0.359-0.433-0.209
			c-0.48-0.428-0.771-0.859-1.071-1.176c-0.187-0.303-0.225-0.641-0.554-0.91l0.085-0.135c-0.117-0.012-0.168-0.23-0.155-0.348
			c-0.42-0.326-0.184-0.804-0.267-1.168c0.084-0.136,0.219-0.049,0.337-0.039c0.039-0.162,0.035-0.354,0.148-0.531
			c0.056-0.09,0.156-0.15,0.229-0.168c-0.017-0.072-0.105-0.129-0.094-0.246c0.084-0.135,0.168-0.27,0.063-0.398l0.084-0.135
			c0.086-0.133,0.181-0.387,0.321-0.609c0.058-0.09,0.084-0.135,0.188-0.197c0.021-0.233,0.091-0.442,0.058-0.588
			c0.04-0.164,0.124-0.297,0.182-0.387c0.085-0.135,0.169-0.27,0.181-0.387c0.057-0.09,0.162,0.039,0.265-0.021
			c0.012-0.117-0.096-0.248-0.083-0.365c0.197-0.313,0.429-0.479,0.361-0.772c0.101-0.062,0.157-0.149,0.214-0.239
			c0.169-0.269,0.276-0.64,0.491-0.879c0.056-0.091,0.158-0.15,0.186-0.195c0.103-0.063-0.021-0.264,0.112-0.18
			c-0.15-0.156,0.137-0.414,0.059-0.589c0.013-0.116-0.189,0.005-0.18-0.112c0.175-0.078,0.158-0.15,0.271-0.33
			c0.027-0.045,0.146-0.033,0.175-0.078l0.151-0.342c0.058-0.09,0.158-0.15,0.215-0.24l0.057-0.09
			c0.113-0.178,0.152-0.342,0.237-0.478c0.057-0.09,0.156-0.149,0.259-0.211c0.106-0.371,0.288-0.756,0.439-1.101
			c0.171-0.268,0.341-0.537,0.627-0.793c0.079-0.325,0.232-0.666,0.431-0.979c0.141-0.226,0.326-0.42,0.482-0.569
			c0.014-0.117,0.068-0.207,0.125-0.295c0.169-0.271,0.429-0.48,0.598-0.75c0.085-0.136,0.125-0.298,0.136-0.416
			c0.085-0.136,0.215-0.24,0.299-0.373c0.029-0.045,0.085-0.136,0.068-0.207c0.129-0.107,0.214-0.24,0.299-0.377
			c0.366-0.582,0.318-1.302-0.219-1.642l-0.181-0.11c-0.369-0.107-0.718,0.049-1.083,0.131c-0.226,0.356-0.546,0.469-0.715,0.737
			l-0.169,0.271c-0.027,0.045-0.202,0.125-0.23,0.168c-0.027,0.045,0.033,0.146,0.006,0.189c-0.085,0.133-0.197,0.313-0.271,0.329
			c-0.056,0.091-0.202,0.123-0.304,0.185c-0.028,0.045-0.04,0.162-0.04,0.162l-0.658,0.647c-0.084,0.136-0.151,0.342-0.265,0.521
			c-0.113,0.181-0.271,0.33-0.445,0.408c-0.067,0.207-0.107,0.369-0.221,0.549l-0.143,0.226c-0.111,0.178-0.348,0.153-0.461,0.334
			c-0.084,0.135-0.052,0.278-0.136,0.414l-0.057,0.09c-0.142,0.226-0.359,0.272-0.546,0.47c-0.124,0.299-0.248,0.596-0.418,0.862
			l-0.113,0.181c-0.084,0.135-0.331,0.229-0.416,0.362c-0.157,0.149-0.226,0.356-0.31,0.492c-0.188,0.194-0.462,0.334-0.604,0.559
			c-0.084,0.136,0.095,0.248-0.063,0.398c-0.039,0.161-0.157,0.149-0.215,0.239c0.007,0.191-0.091,0.443-0.202,0.623l-0.451,0.715
			c-0.086,0.136-0.175,0.078-0.261,0.213c-0.056,0.091-0.096,0.253-0.181,0.388l-0.056,0.09c-0.113,0.181-0.377,0.201-0.534,0.353
			c-0.113,0.18-0.193,0.504-0.334,0.727c-0.057,0.09-0.085,0.135-0.187,0.197c-0.112,0.18-0.404,0.246-0.518,0.424
			c-0.242,0.285-0.351,0.654-0.62,0.986c-0.247,0.094-0.434,0.289-0.697,0.311c-0.129,0.107-0.196,0.314-0.299,0.375
			c-0.129,0.105-0.353-0.035-0.467,0.145c-0.234-0.022-0.633-0.086-0.812-0.198l-0.091-0.058c-0.117-0.012-0.247,0.096-0.337,0.039
			l-0.09-0.057c-0.223-0.141-0.347-0.344-0.479-0.428c-0.044-0.029-0.135-0.084-0.207-0.068c-0.123-0.203-0.408-0.445-0.53-0.646
			c-0.106-0.129-0.208-0.067-0.253-0.098c-0.2-0.375-0.729-0.332-0.794-0.625c-0.208-0.068-0.271-0.17-0.537-0.338
			c0.011-0.117-0.079-0.174,0.051-0.279c-0.347-0.344-0.334-0.961-0.186-1.494c0.084-0.135,0.156-0.149,0.214-0.239
			c0.012-0.117-0.195-0.187-0.186-0.306c0.197-0.313,0.015-0.615,0.211-0.93l0.058-0.09c-0.021-0.264,0.164-0.459,0.261-0.711
			c0.056-0.09,0.068-0.207,0.124-0.297c0.04-0.162,0.17-0.268,0.254-0.402c0.143-0.225,0.107-0.371,0.221-0.549
			c0.058-0.09,0.157-0.15,0.242-0.285c0.028-0.045,0.04-0.162,0.097-0.254l0.058-0.088c0.197-0.314,0.406-0.746,0.604-1.059
			c0.112-0.18,0.3-0.375,0.456-0.525c0.085-0.135,0.023-0.236,0.034-0.354c0.13-0.107,0.215-0.242,0.271-0.332
			c0.312-0.492,0.44-1.097,0.752-1.59l1.064-1.394c0.084-0.136,0.124-0.297,0.281-0.449c0.028-0.043,0.103-0.062,0.157-0.149
			l0.086-0.135c0.141-0.224,0.236-0.476,0.333-0.726c0.181-0.388,0.406-0.746,0.632-1.104c0.169-0.27,0.312-0.492,0.496-0.69
			c0.271-0.328,0.597-0.748,0.88-1.195c0.338-0.539,0.604-1.06,0.751-1.592c0.085-0.136,0.113-0.181,0.214-0.24
			c0.007-0.31-0.25-0.596-0.563-0.793c-0.135-0.084-0.313-0.196-0.478-0.235c-0.486-0.121-0.808-0.01-1.33,0.225
			c-0.174,0.078-0.393,0.129-0.522,0.234c-0.102,0.061-0.111,0.178-0.213,0.24c-0.057,0.09-0.174,0.077-0.248,0.094l-0.326,0.422
			c-0.112,0.18-0.271,0.33-0.383,0.51c-0.085,0.135-0.152,0.342-0.267,0.518l-0.085,0.135c-0.084,0.136-0.318,0.111-0.377,0.201
			c-0.258,0.213-0.146,0.531-0.438,0.6c-0.143,0.224-0.064,0.396-0.177,0.576l-0.057,0.09c-0.197,0.314-0.547,0.47-0.715,0.738
			l-0.085,0.135c-0.112,0.179,0.038,0.336-0.132,0.604c-0.057,0.091-0.129,0.106-0.187,0.197c-0.141,0.224-0.063,0.397-0.131,0.604
			c-0.052,0.279-0.293,0.566-0.418,0.861c-0.085,0.135-0.141,0.225-0.209,0.432c-0.112,0.181-0.164,0.459-0.275,0.64
			c-0.113,0.18-0.306,0.184-0.417,0.362l-0.17,0.271c-0.085,0.133-0.17,0.269-0.314,0.301c0.021,0.265-0.075,0.517-0.216,0.74
			c-0.113,0.179-0.271,0.33-0.43,0.479c-0.129,0.107,0.007,0.191-0.007,0.31c-0.185,0.194-0.195,0.313-0.146,0.532
			c-0.143,0.226-0.399,0.437-0.514,0.615c-0.085,0.133-0.125,0.297-0.092,0.441c-0.196,0.314-0.427,0.482-0.597,0.75l-0.085,0.135
			c-0.142,0.225-0.372,0.393-0.484,0.572c-0.057,0.088-0.112,0.178-0.079,0.324c-0.187,0.195-0.372,0.391-0.563,0.396
			c-0.103,0.061-0.113,0.178-0.197,0.313c-0.175,0.078-0.292,0.066-0.438,0.1c-0.196,0.314-0.456,0.525-0.703,0.621
			c-0.221,0.049-0.572,0.016-0.751-0.1c-0.146,0.035-0.31-0.006-0.41,0.057c-0.225-0.143-0.532-0.148-0.801-0.316l-0.136-0.086
			c-0.045-0.029-0.062-0.102-0.15-0.158c-0.062-0.1-0.257-0.287-0.307-0.506c-0.09-0.055-0.131,0.105-0.264,0.021
			c-0.286-0.242-0.673-0.422-0.711-0.76c-0.162-0.039-0.062-0.1-0.239-0.213c-0.071-0.482-0.581-0.865-1.018-1.268
			c-0.105-0.13-0.212-0.259-0.291-0.433c0.052-0.279,0.031-0.543,0.082-0.824c-0.071-0.481-0.176-1.11,0.135-1.604l0.057-0.09
			c0.058-0.09-0.006-0.19,0.052-0.281c0.057-0.088,0.157-0.149,0.214-0.239c0.198-0.313,0.306-0.685,0.531-1.041
			c0.112-0.179,0.299-0.375,0.502-0.496c0.021-0.235,0.118-0.487,0.23-0.668c0.169-0.271,0.383-0.51,0.524-0.733
			c0.31-0.492,0.53-1.041,0.896-1.623c0.564-0.896,1.128-1.791,1.766-2.703c0.012-0.117-0.032-0.146,0.022-0.236l0.112-0.18
			c0.254-0.402,0.631-0.604,0.93-0.978c0.298-0.375,0.479-0.762,0.835-1.228c0.227-0.356,0.496-0.688,0.749-1.092l0.17-0.268
			c-0.033-0.146,0.006-0.309,0.091-0.443l0.282-0.447c0.057-0.09,0.068-0.209,0.124-0.299c0.17-0.268,0.559-0.586,0.728-0.854
			s0.204-0.621,0.329-0.918c0.151-0.343,0.35-0.656,0.445-0.906c0.182-0.389,0.524-0.733,0.705-1.12l0.5-0.498
			c0.277-0.638,0.907-0.742,1.313-1.486c0.146-0.033,0.273-0.139,0.376-0.201c0.044,0.027,0.134,0.084,0.252,0.096
			c0.073-0.016,0.129-0.105,0.174-0.078c0.118,0.012,0.342,0.152,0.55,0.223c0.251,0.095,0.801,0.316,1.159,0.541
			C21.738,88.146,21.725,88.264,21.832,88.393z M27.859,119.145c-0.017-0.071-0.072,0.019-0.135-0.084
			c-0.129,0.104-0.04,0.162,0.049,0.219L27.859,119.145z M32.488,113.682c-0.016-0.074-0.104-0.132-0.162-0.041
			c0.09,0.058,0.135,0.086,0.162,0.039V113.682z"/>
		<path fill="#231F20" d="M50.836,115.846c0.257,0.063,0.616,0.155,0.962,0.297c0.192,0.104,0.449,0.168,0.642,0.271
			c0.18,0.154,0.385,0.424,0.666,0.605l0.206,0.051c0.409,0.104,0.666,0.387,0.986,0.631c0.178,0.812,1.088,1.313,1.292,2.236
			c0.14,0.09,0.023,0.334,0.216,0.438c-0.063,0.037-0.076,0.088-0.09,0.142c-0.025,0.103,0.051,0.229-0.052,0.424
			c-0.014,0.052,0.063,0.181,0.038,0.281c0.038,0.063,0.012,0.168-0.039,0.153c0.113,0.41,0.101,0.898-0.042,1.463
			c-0.104,0.193-0.244,0.32-0.296,0.525c-0.014,0.053,0.023,0.115,0.012,0.168c0.052,0.23,0.18,0.373,0.436,0.438l0.154,0.039
			c0.604-0.229,1.232-0.127,1.875-0.293l0.358,0.093c0.014-0.052,0.167-0.013,0.167-0.013c0.424-0.166,0.873-0.217,1.298-0.383
			c0.41-0.115,0.885-0.268,1.31-0.434l0.643-0.166c0.373-0.178,0.731-0.307,1.182-0.355c0.229-0.053,0.437,0,0.732-0.088
			c0.281-0.039,0.308-0.141,0.692-0.152c0.23-0.053,0.591-0.18,0.898-0.102c0.152,0.039,0.308,0.076,0.423,0.27
			c0.076,0.13,0.141,0.31,0.089,0.515c-0.025,0.104-0.09,0.142-0.103,0.19c-0.182,0.283-0.323,0.41-0.746,0.576
			c-0.143,0.129-0.144,0.349-0.271,0.424c-0.258,0.154-0.553,0.242-0.732,0.523c-0.104-0.025-0.167,0.014-0.309-0.076
			c-0.167,0.23-0.385,0.23-0.488,0.422c-0.358-0.09-0.424,0.166-0.692,0.152c-0.296,0.309-0.783,0.295-1.131,0.588
			c-0.192-0.104-0.282,0.039-0.372-0.039c-0.09,0.144-0.22,0.219-0.349,0.295c-0.486-0.014-0.745,0.357-1.22,0.293
			c-0.063,0.037-0.142,0.127-0.167,0.23c-0.385,0.012-0.655,0.217-1.079,0.164c-0.191,0.115-0.347,0.076-0.577,0.127
			c-0.244,0.102-0.757-0.027-0.977,0.189c-0.307-0.076-0.5,0.039-0.771,0.024c-0.191,0.115-0.437,0.218-0.771,0.242
			c-0.271-0.015-0.667-0.168-0.938-0.183c-0.153-0.039-0.334,0.023-0.514-0.129c-0.115,0.023-0.18,0.063-0.257,0.152
			c-0.153-0.039-0.077-0.129-0.128-0.141c-0.411,0.113-0.655,0.436-0.925,0.639c-0.811,0.18-1.286,0.768-2.096,0.945
			c-0.153,0.18-0.424,0.166-0.578,0.346c-0.615,0.063-1.245,0.178-1.875,0.291c-0.075-0.129-0.204-0.053-0.346-0.143
			c-0.244,0.104-0.524-0.078-0.809-0.041c-0.025-0.115-0.142-0.09-0.181-0.152c-0.987-0.195-1.77-0.775-2.179-1.314
			c-0.191-0.104-0.357-0.309-0.423-0.488c-0.09-0.077-0.153-0.039-0.192-0.104c0.026-0.104-0.127-0.141-0.152-0.258l-0.038-0.064
			c-0.039-0.063-0.154-0.037-0.191-0.102c-0.039-0.064-0.014-0.168-0.116-0.193c-0.127-0.358-0.46-0.771-0.369-1.131
			c-0.191-0.102-0.09-0.295-0.217-0.436c-0.063-0.398-0.217-0.656-0.279-1.055c-0.271-0.23-0.371-0.693-0.293-1
			c-0.18-0.373-0.191-0.758-0.088-1.168l0.024-0.104c0.027-0.104-0.012-0.166,0.001-0.22l0.144-0.346l0.051-0.205
			c0.039-0.153,0.155-0.18,0.168-0.229c0.063-0.259,0.078-0.526,0.181-0.72c0.025-0.102,0.155-0.18,0.245-0.319
			c0.271-0.424,0.605-0.886,0.901-1.19c0.128-0.076,0.244-0.104,0.319-0.191c0.015-0.051,0.129-0.078,0.155-0.18
			c0.115-0.025,0.128-0.078,0.282-0.039c0.321-0.408,0.783-0.512,1.156-0.908c0.448-0.049,0.784-0.512,1.323-0.484
			c0.182-0.281,0.526-0.357,0.796-0.563c0.115-0.025,0.259-0.154,0.438-0.217c0.167-0.015,0.372,0.039,0.539,0.024
			c0.282-0.037,0.526-0.14,0.859-0.164l0.463,0.115c0.462,0.116,0.59,0.041,0.897,0.118
			C50.709,115.705,50.734,115.82,50.836,115.846z M45.945,122.906c-0.244,0.32-0.297,0.744-0.489,1.078
			c0.076,0.129,0.012,0.385,0.151,0.475c-0.191,0.115-0.063,0.258-0.129,0.515c0.244,0.116,0.256,0.282,0.333,0.411
			c0.359,0.091,0.73,0.13,1.077,0.271c0.348-0.295,1.027-0.178,1.516-0.383c0.076-0.09,0.091-0.141,0.077-0.307
			c-0.166-0.207-0.474-0.283-0.666-0.387c-0.039-0.064-0.063-0.181-0.166-0.205c-0.039-0.064-0.192-0.104-0.244-0.117
			c-0.038-0.064-0.089-0.295-0.295-0.346l-0.051-0.015c-0.052-0.015-0.039-0.063-0.077-0.129c-0.052-0.015-0.152-0.039-0.19-0.104
			l-0.064-0.18c-0.039-0.064-0.141-0.09-0.19-0.104c-0.129-0.141-0.181-0.373-0.438-0.437L45.945,122.906z M49.829,119.193
			c-0.167,0.014-0.31,0.141-0.425,0.166c-0.257-0.064-0.538,0.191-0.81,0.396l-0.038,0.154c-0.258,0.151-0.438,0.436-0.771,0.459
			c0.001,0.219,0.167,0.426,0.18,0.592l0.089,0.295c0.051,0.229,0.397,0.373,0.384,0.643c0.192,0.104,0.423,0.271,0.537,0.463
			c0.282,0.182,0.653,0.439,0.82,0.645c0.206,0.052,0.229,0.168,0.372,0.259c0.191,0.104,0.371,0.256,0.576,0.31
			c0.153,0.038,0.27,0.014,0.386-0.013c0.244-0.319,0.579-0.563,0.683-0.976l0.038-0.153c0.143-0.127,0.219-0.218,0.257-0.371
			c0.04-0.153,0.04-0.373,0.093-0.578c0.024-0.103,0.129-0.295,0.168-0.446l0.025-0.104c0-0.218-0.128-0.358-0.141-0.527
			c0.001-0.217-0.025-0.331-0.063-0.396c-0.141-0.309-1.151-0.836-1.69-0.863C50.227,119.13,49.983,119.232,49.829,119.193z"/>
		<path fill="#231F20" d="M67.114,118.268l0.105,0.002c0.37,0.008,0.47,0.328,0.786,0.39c0.313,0.27,0.408,0.694,0.666,1.02
			c-0.002,0.105-0.108,0.102-0.109,0.154c0.104,0.108,0.208,0.164,0.204,0.377c0.049,0.158,0.21,0.108,0.259,0.27
			c-0.002,0.105-0.055,0.104-0.107,0.156c0.1,0.268,0.198,0.586,0.192,0.797c-0.001,0.053-0.002,0.105,0.053,0.107
			c-0.002,0.104-0.108,0.104-0.061,0.264c0.158,0.057,0.317,0.008,0.479-0.096l0.423,0.008c0.054-0.051,0.055-0.104,0.107-0.103
			c0.16-0.104,0.318-0.047,0.53-0.096c0.375-0.149,1.012-0.242,1.386-0.447c0.16-0.049,0.374-0.149,0.588-0.196
			c0.479-0.15,1.064-0.351,1.436-0.342l0.053,0.002c0.105,0.055,0.002-0.105,0.107-0.054c0.159-0.049,0.317-0.045,0.477-0.041
			c0.212,0.004,0.371,0.009,0.528,0.063l0.369,0.062c0.21,0.11,0.312,0.271,0.521,0.384c0.104,0.055,0.265,0.059,0.419,0.165
			l-0.003,0.16c0.212,0.004,0.261,0.218,0.419,0.22c0.1,0.319,0.147,0.532,0.304,0.694c-0.058,0.211-0.114,0.369-0.117,0.58
			c-0.003,0.104,0.048,0.211,0.097,0.371c-0.053,0-0.054,0.053-0.107,0.104l-0.002,0.105c-0.01,0.424-0.227,0.682-0.341,1.051
			c-0.006,0.266-0.063,0.475-0.173,0.684l0.048,0.215c-0.476-0.012-0.437,0.625-0.807,0.617c-0.058,0.209-0.063,0.476-0.33,0.574
			c0.054,0.002,0.052,0.107,0.05,0.16c-0.055,0.051-0.107,0.104-0.214,0.102c-0.111,0.263-0.223,0.523-0.385,0.681
			c-0.003,0.157-0.056,0.157-0.006,0.267c-0.27,0.204-0.381,0.52-0.703,0.725c0.102,0.215-0.004,0.213,0.045,0.371
			c-0.325,0.363-0.442,0.891-0.506,1.365c-0.056,0.104-0.003,0.157-0.109,0.209c0.101,0.268-0.06,0.315-0.012,0.528
			c-0.107,0.052-0.108,0.104-0.162,0.156c0.206,0.269-0.061,0.368,0.037,0.741c0.054,0,0.157,0.056,0.263,0.058
			c0.212,0.006,0.426-0.043,0.587-0.199c0.108-0.104,0.108-0.104,0.213-0.047c0.055-0.053,0.058-0.157,0.11-0.209
			c0.48-0.203,0.594-0.569,1.023-0.825c0.055-0.105,0.11-0.263,0.322-0.259c0.866-0.935,1.891-1.76,2.808-2.64
			c0.105,0.002,0.107-0.051,0.215-0.102c0.163-0.209,0.326-0.418,0.699-0.566c0.002-0.053,0.003-0.104,0.058-0.157
			c0.214-0.154,0.379-0.416,0.697-0.461c0.165-0.313,0.594-0.519,0.911-0.513l0.104,0.004c0.159,0.002,0.425-0.098,0.637-0.094
			l0.105,0.004c0.211,0.058,0.418,0.273,0.63,0.277c0.105,0.002,0.208,0.162,0.259,0.217c-0.055,0.105-0.005,0.264-0.009,0.424
			c-0.004,0.211-0.268,0.205-0.431,0.361c-0.108,0.156-0.27,0.205-0.377,0.309c-0.058,0.211-0.166,0.314-0.433,0.361
			c-0.321,0.258-0.438,0.68-0.812,0.883c-0.106,0.051-0.058,0.158-0.059,0.211c-0.268,0.152-0.325,0.416-0.701,0.619
			c-0.113,0.369-0.488,0.625-0.762,0.99c-0.16,0.049-0.163,0.209-0.376,0.256c-0.058,0.211-0.48,0.203-0.484,0.414
			c0,0-0.002,0.053,0.051,0.055c-0.431,0.361-0.651,0.779-1.185,0.979c-0.004,0.158-0.271,0.261-0.38,0.416
			c-0.265-0.006-0.322,0.258-0.483,0.358c-0.161,0.104-0.479,0.15-0.587,0.252c-0.109,0.158-0.375,0.205-0.38,0.416
			c-0.157-0.057-0.16,0.052-0.319,0.101c-0.167,0.367-1.065,0.295-1.284,0.66c-0.37-0.009-0.69,0.146-1.01,0.19l-0.158-0.004
			c-0.265-0.006-0.422-0.063-0.634-0.065l-0.159-0.005c-0.839-0.336-1.517-0.879-2.191-1.475c-0.153-0.162-0.204-0.322-0.36-0.432
			c-0.048-0.213-0.046-0.318-0.204-0.375c-0.047-0.266-0.094-0.531-0.192-0.852c-0.104-0.16-0.255-0.48-0.248-0.799
			c0.004-0.158,0.061-0.316,0.063-0.476c0.005-0.265-0.041-0.582,0.019-0.897c0.004-0.16,0.111-0.265,0.063-0.425
			c0.056-0.104,0.109-0.209,0.059-0.264c0.108-0.104,0.004-0.158,0.111-0.207l0.002-0.106c0.005-0.211,0.165-0.314,0.169-0.525
			c0.056-0.105,0.056-0.105,0.162-0.104c0.002-0.104-0.051-0.157-0.048-0.266c0.004-0.212,0.113-0.367,0.17-0.522
			c0.105-0.052,0.211,0.057,0.265,0.006c0.002-0.107-0.158-0.058-0.155-0.164c0.009-0.369,0.436-0.521,0.442-0.892l0.004-0.157
			c0.107-0.104,0.11-0.263,0.323-0.312l0.003-0.104c0.004-0.211,0.111-0.263,0.22-0.418l-0.104-0.002
			c-0.317-0.009-0.639,0.145-0.902,0.139c-0.214,0.049-0.476-0.01-0.688-0.014c-0.372,0.045-0.745,0.143-1.115,0.135l-0.37-0.008
			c-0.268,0.1-0.478-0.013-0.742,0.09c-0.271,0.258-0.174,0.684-0.339,0.998c-0.005,0.211-0.01,0.477-0.174,0.684
			c0.051,0.107,0.048,0.213,0.046,0.318c-0.004,0.213-0.062,0.369-0.222,0.524c0.102,0.16,0.046,0.317-0.063,0.422l-0.004,0.212
			c-0.005,0.213-0.062,0.368-0.117,0.526c-0.002,0.104,0.104,0.106,0.104,0.159l-0.01,0.425c-0.006,0.265,0.042,0.53,0.038,0.741
			l-0.01,0.425c-0.109,0.155-0.271,0.362-0.331,0.627c0,0,0.051,0.106,0.05,0.159c-0.006,0.267-0.22,0.365-0.223,0.523
			c-0.059,0.264-0.114,0.369-0.119,0.635c-0.056,0.104-0.219,0.313-0.275,0.47c-0.377,0.312-0.544,0.676-1.075,0.823
			c-0.316-0.059-0.632-0.172-0.896-0.229c-0.313-0.219-0.627-0.383-0.831-0.705c-0.104-0.055-0.157-0.108-0.21-0.11
			c-0.051-0.107-0.152-0.215-0.259-0.271c0.001-0.054-0.051-0.106-0.103-0.162c-0.208-0.162-0.362-0.377-0.513-0.805
			c0.055-0.052,0.106-0.052,0.108-0.156s-0.055,0.104-0.105-0.002l0.003-0.158c0.008-0.315,0.173-0.577,0.179-0.844
			c0.105-0.049,0.106-0.104,0.213-0.103c-0.051-0.104,0.006-0.264-0.044-0.424c0.055-0.051,0.104,0.002,0.162-0.104
			c0.001-0.053-0.106-0.002-0.053-0.105c0.056-0.053,0.057-0.104,0.06-0.211c0.003-0.158-0.046-0.371,0.168-0.473
			c0.055-0.104-0.052-0.053-0.051-0.105c0.162-0.156,0.063-0.529,0.329-0.576c0.002-0.053-0.051-0.106-0.05-0.16
			c0.006-0.264,0.221-0.364,0.329-0.521l0.002-0.106c0.004-0.158,0.166-0.365,0.169-0.471l0.002-0.107
			c0.001-0.053,0.056-0.051,0.056-0.051l0.001-0.053c0.006-0.267,0.165-0.314,0.113-0.423c-0.31-0.377-0.835-0.547-1.144-0.978
			c-0.623-0.543-1.293-1.403-1.271-2.461c0.001-0.053,0.057-0.104,0.108-0.104l-0.102-0.215c0.11-0.262,0.116-0.525,0.229-0.789
			c0.164-0.262,0.381-0.467,0.596-0.674c0.057-0.053,0.058-0.105,0.109-0.104c0.106-0.054,0.16-0.104,0.109-0.211
			c0.271-0.363,0.437-0.625,0.707-0.886c0.056-0.104,0.107-0.103,0.161-0.153c0.162-0.156,0.221-0.367,0.484-0.414l0.11-0.154
			c0.268-0.154,0.43-0.309,0.592-0.465c0.104,0.055,0.427-0.15,0.588-0.252c0.214-0.154,0.271-0.365,0.538-0.465
			c0.16-0.052,0.427-0.099,0.638-0.095l0.212,0.007c0.056-0.105,0.267-0.048,0.368,0.061c0.108-0.051,0.215-0.102,0.32-0.1
			C66.7,117.835,66.907,118.05,67.114,118.268z M66.159,120.893c-0.108,0.104-0.161,0.104-0.268,0.103
			c-0.057,0.155-0.165,0.26-0.271,0.311c-0.003,0.107-0.006,0.266-0.113,0.369c-0.054-0.002-0.056,0.051-0.215,0.102
			c-0.162,0.154-0.324,0.311-0.382,0.574c-0.057,0.104-0.216,0.1-0.165,0.26c0.104,0.055,0.263,0.111,0.475,0.115
			c0.317,0.008,0.742-0.09,1.06-0.082c0.371-0.045,0.48-0.201,0.593-0.465l0.004-0.158c0.003-0.158-0.048-0.266-0.036-0.795
			c0.002-0.105,0.005-0.211-0.046-0.318c-0.052-0.053-0.156-0.16-0.153-0.268c0.001-0.053,0.003-0.158-0.155-0.162
			C66.326,120.475,66.214,120.736,66.159,120.893z"/>
		<path fill="#231F20" d="M85.256,118.701c0.141,0.129,0.293,0.312,0.551,0.248c0.166,0.23,0.486,0.207,0.626,0.555
			c0.271-0.012,0.434,0.656,0.561,0.953l0.051-0.014c0.154-0.037,0.22-0.217,0.374-0.254c0.169-0.422,0.645-0.484,1.159-0.828
			c0.413-0.318,0.674-1.035,1.419-1.109c0.388-0.42,0.915-0.713,1.697-0.85c0.116,0.025,0.192,0.115,0.359,0.131
			c1.08-0.482,1.498,0.559,2.307,0.744c0.269,0.207,0.473,0.594,0.805,0.838c0.024,0.104-0.015,0.168,0.011,0.27
			c0.051,0.207,0.19,0.337,0.241,0.541l0.037,0.154c0.104-0.024,0.141,0.129,0.205,0.168l0.037,0.154
			c0.088,0.359,0.292,0.527,0.394,0.939c0.076,0.09,0.19,0.115,0.268,0.207c-0.013,0.166,0.088,0.359,0.126,0.514
			c0.075,0.309-0.042,0.5-0.028,0.77c0.034,0.373,0.237,0.758,0.044,1.08c0.09,0.141,0.19,0.334,0.112,0.461
			c0.025,0.104,0.143,0.129,0.166,0.232c-0.079,0.346-0.027,0.551-0.223,0.871c0.128,0.078,0.242,0.322,0.292,0.529
			c0.038,0.154,0.063,0.258-0.066,0.396c0.025,0.104,0.205-0.049,0.192,0.117c0.05,0.205-0.092,0.295-0.118,0.41
			c0.075,0.309,0.294,0.312,0.459,0.54c0.025,0.105-0.116,0.191-0.079,0.347l0.025,0.104c0.037,0.154,0.203,0.385,0.253,0.592
			c0.013,0.051-0.025,0.115-0.013,0.168c0.088,0.141,0.294,0.09,0.332,0.244c1.156-0.391,1.814-1.041,2.666-1.576
			c0.374-0.473,0.838-0.805,1.161-1.266c0.142-0.088,0.244-0.113,0.283-0.179c0.232-0.383,0.646-0.7,0.955-0.995
			c0.569-0.791,1.022-1.611,1.721-2.326l0.411-0.101c0.104-0.244,0.298-0.347,0.413-0.537l0.104-0.024
			c0.617-0.15,0.772-0.625,1.339-0.765c0.515-0.125,0.949,0.097,1.153,0.482l0.138,0.563c0.1,0.631-0.545,1.115-0.563,1.719
			c-0.077,0.127-0.271,0.229-0.284,0.396c-0.41,0.1-0.478,0.496-0.646,0.701c-0.245,0.332-0.811,0.471-0.673,1.035
			c-0.219,0.217-0.49,0.447-0.697,0.717c-0.051,0.012-0.077,0.127-0.129,0.141c-0.205,0.049-0.361,0.305-0.362,0.523
			c-0.103,0.025-0.142,0.088-0.243,0.113c-0.091,0.078-0.093,0.295-0.118,0.412c-0.245,0.332-0.759,0.457-0.878,0.867
			c-0.309,0.073-0.503,0.395-0.785,0.571c-0.259,0.281-0.658,0.435-0.903,0.767c-0.091,0.076-0.244,0.112-0.335,0.188
			c-0.271,0.229-0.53,0.729-0.838,0.806l-0.207,0.051c-0.18,0.151-0.297,0.344-0.426,0.483c-0.192,0.103-0.347,0.142-0.35,0.356
			c-0.448,0.166-0.684,0.55-1.068,0.752l-0.257,0.064l-0.245,0.114c-0.115-0.026-0.294-0.092-0.449-0.056
			c-0.218,0-0.41,0.103-0.616,0.15c-0.385-0.016-0.897-0.107-1.152-0.262c-0.077-0.092-0.104-0.193-0.229-0.271
			c-0.153-0.18-0.346-0.297-0.537-0.414c-0.218-0.219-0.447-0.271-0.587-0.619c-0.396-0.284-0.766-0.684-1.046-1.159
			c-0.64-0.392-0.893-1.199-1.364-1.793c-0.024-0.103,0.066-0.181,0.041-0.281c-0.229-0.271-0.395-0.721-0.495-1.133
			c-0.05-0.205-0.088-0.358-0.072-0.524c-0.077-0.093-0.23-0.271-0.089-0.361c-0.319-0.193-0.315-0.848-0.481-1.08
			c0.026-0.115,0.064-0.18,0.104-0.244c-0.074-0.09-0.088-0.141-0.126-0.295c-0.037-0.154-0.023-0.32,0.003-0.436
			c-0.076-0.091-0.141-0.13-0.179-0.285c0.026-0.115-0.012-0.271,0.078-0.347c-0.075-0.092-0.088-0.144-0.113-0.243
			c-0.088-0.361,0.042-0.72-0.032-1.027c-0.025-0.104-0.09-0.144-0.102-0.193c-0.155,0.039-0.13,0.141-0.349,0.139
			c0.023,0.322-0.194,0.539-0.106,0.898c-0.389,0.422-0.393,1.076-0.715,1.537l0.025,0.102c0.05,0.207,0.216,0.219,0.306,0.361
			c-0.015,0.387-0.286,0.615-0.249,0.988c0.152,0.18,0.254,0.373,0.316,0.631c0.088,0.359,0.061,0.691-0.158,0.908
			c0.127,0.297,0.228,0.49,0.303,0.799c0,0.217-0.27,0.229-0.284,0.396c0.051,0.204,0.217,0.219,0.307,0.36
			c0.012,0.271,0.101,0.409,0.162,0.668c-0.076,0.129-0.091,0.295-0.053,0.448l0.037,0.154c-0.181,0.152-0.079,0.346-0.056,0.668
			c-0.038,0.063-0.052,0.229-0.039,0.281c0.023,0.104,0.165,0.232,0.189,0.334c0.013,0.27-0.182,0.371-0.132,0.578
			c-0.244,0.113-0.182,0.371-0.247,0.549c0.166,0.232,0.024,0.322,0.189,0.553c-0.053,0.232-0.271,0.449-0.567,0.576
			c-0.116,0.191-0.065,0.396-0.247,0.549c-0.309,0.076-0.281-0.039-0.515,0.127c-0.23-0.053-0.294-0.092-0.552-0.028
			c-0.46-0.322-1.088-0.44-1.472-0.894c-0.295-0.092-0.422-0.389-0.717-0.479c-0.266-0.644-0.83-0.724-1.199-1.123
			c-0.151-0.397-0.342-0.951-0.479-1.519l-0.088-0.358c-0.038-0.151,0.026-0.332-0.011-0.485c-0.024-0.105-0.152-0.183-0.179-0.285
			c-0.024-0.103,0.001-0.22-0.023-0.32c-0.038-0.154-0.203-0.387-0.267-0.645l-0.038-0.154c-0.05-0.205-0.048-0.424-0.253-0.592
			l-0.289-1.183c0.054-0.229,0.079-0.347-0.034-0.593c0.221-0.434-0.071-0.963-0.106-1.553c-0.025-0.104,0.054-0.449,0.016-0.604
			c-0.05-0.205-0.203-0.385-0.086-0.578c-0.024-0.102-0.102-0.191-0.179-0.283c-0.341-0.951-0.244-2.119-0.521-3.031
			c-0.101-0.412,0.222-0.651,0.453-0.819c0.26-0.279,0.529-0.511,0.891-0.599C84.27,118.451,84.781,118.764,85.256,118.701z"/>
		<path fill="#231F20" d="M106.042,105.906c0.111,0.24,0.321,0.316,0.555,0.443c0.115,0.121,0.348,0.246,0.37,0.295l0.089,0.191
			c0.089,0.192,0.107,0.358,0.008,0.521c0.02,0.166,0.138,0.17,0.182,0.267c-0.104,0.28,0.008,0.521-0.047,0.778
			c-0.057,0.261-0.318,0.322-0.515,0.529c-0.074,0.094-0.077,0.211-0.15,0.303l-0.341,0.274l-0.288,0.134
			c-0.433,0.198-0.953,0.207-1.403,0.241c-0.3-0.271-0.479-0.655-0.759-0.76l-0.089-0.19c-0.09-0.19-0.106-0.356-0.127-0.522
			c-0.085-0.313-0.081-0.431,0.022-0.711c0.151-0.304,0.396-0.531,0.336-0.912c0.218-0.16,0.439-0.438,0.728-0.57
			C105.093,105.994,105.57,105.891,106.042,105.906z M106.918,111.332c0.133,0.287,0.466,0.25,0.669,0.564
			c0.045,0.096-0.051,0.141-0.033,0.307l0.178,0.385c0.085,0.31,0.261,0.813,0.438,1.197c-0.074,0.092-0.008,0.236-0.081,0.33
			c0.136,0.168,0.226,0.361,0.336,0.602c0.089,0.191,0.178,0.384,0.219,0.599c0.044,0.097,0.041,0.215,0.129,0.406
			c0.111,0.239,0.391,0.461,0.261,0.813c0.089,0.192,0.369,0.297,0.479,0.536c0.067,0.144-0.033,0.308,0.034,0.449l0.133,0.289
			c0.11,0.239,0.223,0.479,0.146,0.69c0.304,0.15,0.17,0.619,0.447,0.842c-0.056,0.261-0.044,0.662,0.111,0.998
			c0.066,0.146,0.325,0.199,0.296,0.388c0.044,0.099,0.141,0.054,0.232,0.127c0.045,0.097,0.019,0.166,0.016,0.285
			c0.21,0.075,0.137,0.17,0.271,0.457l0.089,0.192c0.089,0.191,0.037,0.332,0.243,0.527c0.142,0.053,0.308,0.033,0.499-0.057
			c0.288-0.133,0.532-0.361,0.824-0.613c0.317-0.32,0.591-0.74,0.887-1.109c0.077-0.211,0.246-0.348,0.348-0.51
			c0.125-0.232,0.203-0.443,0.398-0.65c0.429-0.84,1.09-1.555,1.426-2.467c0.048-0.021,0.072-0.092,0.17-0.137
			c0.052-0.141,0.033-0.307,0.084-0.447c0.053-0.141,0.247-0.348,0.373-0.58c0.101-0.162,0.203-0.442,0.348-0.51l0.146-0.066
			c-0.022-0.049,0.15-0.305,0.316-0.321c0.188,0.028,0,0,0.24-0.111l0.19-0.088c0.075-0.094,0.22-0.159,0.314-0.205
			c0.145-0.065,0.263-0.063,0.499-0.055c0.188,0.028,0.636,0.112,0.747,0.354c0.07,0.024,0.019,0.166,0.063,0.262
			c0.02,0.168,0.09,0.193,0.107,0.359c-0.025,0.069-0.003,0.118,0.02,0.165c-0.029,0.188-0.13,0.353,0.005,0.642
			c-0.24,0.108-0.061,0.377-0.138,0.586c-0.145,0.068-0.122,0.115-0.218,0.16c-0.053,0.141-0.033,0.307-0.016,0.473
			c-0.178,0.373-0.376,0.699-0.437,1.076c-0.096,0.045-0.146,0.186-0.239,0.111c-0.004,0.118-0.077,0.211-0.032,0.307
			c-0.147,0.184-0.134,0.469-0.308,0.725c-0.024,0.07-0.121,0.115-0.17,0.137l-0.177,0.373c-0.074,0.094-0.151,0.303-0.203,0.443
			c-0.507,0.293-0.684,0.666-0.649,1.117c-0.148,0.186-0.271,0.301-0.25,0.467c-0.146,0.066-0.196,0.207-0.271,0.299
			c-0.073,0.092-0.218,0.158-0.222,0.277c-0.336,0.154-0.439,0.436-0.565,0.67c-0.051,0.141-0.096,0.043-0.19,0.088
			c-0.054,0.141-0.033,0.307-0.107,0.4l-0.146,0.063c-0.287,0.136-0.295,0.371-0.534,0.481c-0.049,0.021-0.118-0.004-0.166,0.019
			c-0.126,0.234-0.273,0.418-0.492,0.578c-0.006,0.235-0.343,0.392-0.42,0.603c-0.166,0.02-0.333,0.037-0.479,0.104l-0.288,0.135
			c-0.283,0.014-0.588-0.137-0.823-0.145l-0.544-0.039c-0.47-0.135-1.006-0.41-1.476-0.545c0.004-0.117-0.093-0.072-0.136-0.168
			c-0.426-0.037-0.929-0.621-1.42-0.803c-0.093-0.072-0.093-0.072-0.09-0.191c-0.07-0.025-0.114-0.123-0.188-0.029
			c-0.272-0.34-0.666-0.684-1.006-1.168c-0.155-0.336-0.595-0.656-0.75-0.992c-0.045-0.096-0.063-0.264-0.012-0.404
			c-0.07-0.024-0.139-0.168-0.256-0.174c-0.37-1.053-0.511-1.861-0.72-2.815c0.005-0.117,0.078-0.211,0.081-0.328
			c-0.109-0.24-0.133-0.289-0.316-0.437c0.015-0.473-0.208-0.953-0.122-1.399c-0.022-0.05-0.094-0.074-0.115-0.123
			c-0.089-0.19-0.034-0.451-0.074-0.664l-0.09-0.192c-0.088-0.191-0.029-0.568-0.021-0.806c0.007-0.237-0.009-0.521,0.092-0.685
			l-0.111-0.239c0.104-0.281,0.348-0.513,0.218-0.918c0.145-0.065,0.078-0.211,0.151-0.304c-0.045-0.096-0.02-0.166-0.085-0.311
			c0.222-0.277,0.749-0.521,1.134-0.699C106.378,111.171,106.682,111.324,106.918,111.332z"/>
		<path fill="#231F20" d="M115.248,107.9c0.177,0.07,0.384,0.186,0.603,0.035c0.236,0.156,0.527,0.021,0.782,0.295
			c0.248-0.107,0.638,0.459,0.862,0.691l0.044-0.031c0.13-0.09,0.127-0.281,0.258-0.369c0.007-0.455,0.43-0.684,0.788-1.188
			c0.271-0.445,0.261-1.207,0.931-1.541c0.211-0.533,0.602-0.994,1.283-1.4c0.117-0.016,0.222,0.041,0.382-0.006
			c0.838-0.836,1.6-0.012,2.42-0.127c0.324,0.098,0.651,0.387,1.05,0.496c0.062,0.088,0.046,0.162,0.106,0.25
			c0.121,0.174,0.297,0.244,0.418,0.418l0.09,0.131c0.088-0.059,0.177,0.07,0.251,0.084l0.09,0.131
			c0.211,0.305,0.462,0.389,0.702,0.736c0.104,0.059,0.221,0.041,0.323,0.098c0.048,0.162,0.212,0.307,0.301,0.438
			c0.181,0.263,0.142,0.48,0.247,0.729c0.166,0.336,0.494,0.623,0.426,0.992c0.136,0.1,0.299,0.243,0.271,0.393
			c0.061,0.087,0.178,0.07,0.238,0.156c0.05,0.353,0.169,0.526,0.102,0.896c0.146,0.026,0.342,0.215,0.462,0.389
			c0.09,0.131,0.149,0.219,0.079,0.395c0.061,0.088,0.174-0.119,0.221,0.041c0.12,0.174,0.021,0.309,0.037,0.426
			c0.18,0.262,0.384,0.185,0.621,0.342c0.06,0.089-0.04,0.222,0.05,0.353l0.061,0.088c0.091,0.13,0.327,0.287,0.447,0.462
			c0.03,0.045,0.018,0.118,0.048,0.161c0.133,0.101,0.308-0.021,0.396,0.111c0.941-0.779,1.325-1.621,1.929-2.425
			c0.183-0.573,0.497-1.049,0.636-1.596c0.101-0.133,0.188-0.193,0.201-0.266c0.08-0.443,0.354-0.887,0.537-1.271
			c0.249-0.942,0.383-1.871,0.777-2.787l0.349-0.239c0.012-0.265,0.154-0.429,0.195-0.647l0.087-0.062
			c0.522-0.359,0.5-0.859,0.979-1.188c0.436-0.302,0.921-0.25,1.248,0.038l0.331,0.479c0.315,0.553-0.113,1.234,0.087,1.805
			c-0.027,0.146-0.171,0.311-0.125,0.473c-0.349,0.24-0.27,0.635-0.354,0.885c-0.11,0.398-0.59,0.729-0.26,1.209
			c-0.127,0.279-0.299,0.591-0.396,0.916c-0.043,0.029-0.026,0.146-0.07,0.177c-0.174,0.12-0.229,0.416-0.151,0.618
			c-0.087,0.062-0.101,0.136-0.188,0.193c-0.058,0.104,0.02,0.309,0.035,0.426c-0.11,0.398-0.546,0.699-0.511,1.123
			c-0.261,0.181-0.328,0.549-0.53,0.816c-0.141,0.354-0.459,0.639-0.569,1.037c-0.058,0.104-0.188,0.193-0.245,0.297
			c-0.171,0.311-0.235,0.869-0.497,1.051l-0.174,0.119c-0.114,0.207-0.154,0.428-0.227,0.605c-0.144,0.164-0.274,0.254-0.197,0.457
			c-0.361,0.313-0.442,0.756-0.73,1.084l-0.219,0.15l-0.188,0.192c-0.116,0.019-0.308,0.021-0.438,0.108
			c-0.203,0.078-0.349,0.242-0.522,0.361c-0.363,0.123-0.876,0.219-1.171,0.166c-0.104-0.059-0.164-0.145-0.312-0.172
			c-0.206-0.115-0.429-0.154-0.648-0.195c-0.281-0.129-0.516-0.096-0.769-0.369c-0.474-0.125-0.96-0.367-1.393-0.713
			c-0.735-0.135-1.261-0.801-1.912-1.188c-0.06-0.088-0.003-0.191-0.063-0.277c-0.312-0.172-0.624-0.533-0.864-0.881
			c-0.121-0.176-0.211-0.307-0.258-0.467c-0.104-0.057-0.313-0.172-0.21-0.305c-0.368-0.068-0.598-0.683-0.836-0.838
			c-0.017-0.117-0.002-0.191,0.011-0.265c-0.104-0.06-0.134-0.103-0.223-0.231c-0.091-0.131-0.138-0.291-0.154-0.408
			c-0.104-0.057-0.177-0.07-0.268-0.201c-0.017-0.117-0.106-0.248-0.051-0.352c-0.103-0.058-0.133-0.103-0.192-0.188
			c-0.21-0.306-0.216-0.688-0.396-0.949c-0.06-0.086-0.134-0.1-0.164-0.143c-0.13,0.09-0.068,0.176-0.273,0.254
			c0.138,0.291,0.01,0.571,0.22,0.875c-0.212,0.532,0.02,1.146-0.12,1.69l0.062,0.086c0.118,0.176,0.279,0.129,0.414,0.23
			c0.123,0.363-0.049,0.674,0.117,1.01c0.208,0.113,0.371,0.258,0.521,0.477c0.211,0.306,0.304,0.625,0.176,0.906
			c0.226,0.232,0.388,0.375,0.567,0.64c0.077,0.202-0.17,0.31-0.124,0.471c0.121,0.175,0.281,0.127,0.414,0.228
			c0.106,0.25,0.239,0.35,0.392,0.565c-0.027,0.147,0.021,0.31,0.109,0.438l0.09,0.132c-0.113,0.207,0.05,0.353,0.187,0.644
			c-0.014,0.073,0.033,0.233,0.063,0.278c0.061,0.086,0.238,0.155,0.298,0.244c0.106,0.248-0.037,0.411,0.083,0.586
			c-0.188,0.192-0.038,0.412-0.035,0.603c0.238,0.157,0.138,0.291,0.374,0.448c0.033,0.233-0.094,0.517-0.325,0.738
			c-0.041,0.223,0.08,0.396-0.034,0.604c-0.262,0.18-0.277,0.063-0.437,0.301c-0.234,0.033-0.308,0.02-0.525,0.168
			c-0.545-0.137-1.175-0.023-1.691-0.312c-0.309,0.021-0.532-0.211-0.84-0.19c-0.479-0.506-1.034-0.379-1.521-0.623
			c-0.284-0.316-0.658-0.767-0.988-1.244l-0.21-0.307c-0.091-0.129-0.095-0.32-0.184-0.451c-0.061-0.088-0.208-0.113-0.269-0.201
			c-0.06-0.088-0.076-0.205-0.138-0.293c-0.089-0.129-0.327-0.287-0.477-0.504l-0.091-0.131c-0.119-0.177-0.196-0.379-0.448-0.463
			l-0.69-1.002c-0.032-0.234-0.05-0.353-0.242-0.539c0.051-0.486-0.41-0.875-0.653-1.414c-0.062-0.086-0.11-0.439-0.199-0.568
			c-0.121-0.176-0.328-0.289-0.288-0.51c-0.06-0.088-0.164-0.146-0.267-0.201c-0.658-0.768-0.984-1.893-1.569-2.646
			c-0.24-0.35-0.025-0.689,0.133-0.928c0.143-0.354,0.313-0.666,0.617-0.875C114.236,108.02,114.826,108.126,115.248,107.9z"/>
		<path fill="#231F20" d="M137.087,89.779c0.709-0.121,1.379-0.428,2.09-0.473c0.111-0.115,0.261-0.041,0.372-0.23
			c0.337,0.035,0.675,0.143,1.013,0.176l0.411-0.041c0.486,0.105,0.864,0.402,1.315,0.545c0.227,0.148,0.599-0.006,0.824,0.216
			c0.229,0.223,0.307,0.521,0.643,0.479l0.04,0.187c0.865,0.401,1.623,1.217,2.378,1.807c0.333-0.416,0.064-0.823,0.396-1.239
			c0.035-0.261,0.068-0.523,0.179-0.787c0.138-1.049,0.574-2.103,1.161-3.156c-0.115-0.336,0.143-0.676,0.323-1.09
			c0.147-0.226,0.146-0.523,0.218-0.75c0.183-0.414,0.697-1.094,1.065-1.621c0.258-0.34,0.552-0.867,0.812-1.133
			c0.333-0.267,1.081-0.351,1.459,0.021c0.113,0.11,0.189,0.261,0.229,0.446c0.003,0.148-0.033,0.337-0.068,0.523
			c0.04,0.188,0.044,0.412,0.007,0.523c0.001,0.076-0.11,0.115-0.146,0.227c0.001,0.15,0.078,0.299,0.079,0.449
			c0.004,0.225-0.105,0.486-0.066,0.674c0.002,0.15,0.078,0.299,0.042,0.412c0.002,0.148-0.071,0.225-0.107,0.336
			c-0.071,0.227-0.068,0.525-0.104,0.787l0.006,0.525c-0.441,0.529-0.399,1.014-0.394,1.539c-0.257,0.414-0.364,0.826-0.323,1.238
			c-0.22,0.375-0.141,0.75-0.211,1.123c-0.108,0.264-0.255,0.565-0.326,0.864c0.001,0.149,0.002,0.226-0.069,0.449
			c-0.036,0.112,0.041,0.262,0.004,0.375c-0.108,0.264-0.331,0.489-0.253,0.788c-0.33,0.566-0.214,0.9-0.582,1.431
			c-0.073,0.149,0.115,0.261-0.107,0.412c0.076,0.147,0.153,0.297-0.032,0.485c0.15,0.074,0.078,0.226,0.116,0.336
			c0.078,0.224,0.378,0.369,0.231,0.597c0.112,0.11,0.187-0.039,0.3,0.069c0.151,0.148,0.041,0.265,0.079,0.375
			c0.337,0.033,0.191,0.408,0.529,0.443l0.042,0.41c0.226,0.072,0.077,0.299,0.154,0.447l0.113,0.111
			c0.151,0.146,0.19,0.26,0.268,0.483c0.188,0.109,0.414,0.257,0.566,0.404c0.188,0.187,0.304,0.368,0.343,0.557
			c0.15,0.074,0.266,0.185,0.415,0.332c0.266,0.261,0.493,0.558,0.422,0.854l0.188,0.187c0.151,0.147,0.303,0.222,0.456,0.521
			l0.116,0.334c0.111,0.111,0.226,0.147,0.338,0.184c0.08,0.449,0.496,0.779,0.839,1.264c0.113,0.187,0.189,0.334,0.304,0.445
			c0.075,0.074,0.151,0.148,0.302,0.146c0.078,0.297,0.416,0.406,0.384,0.744c0.073-0.002,0.148-0.002,0.226,0.071
			c0.115,0.334,0.311,1.043,0.431,1.679c0.113,0.188,0.004,0.375,0.043,0.561c-0.07,0.301-0.03,0.563-0.102,0.863l-0.144,0.75
			c0.005,0.225,0.043,0.41-0.029,0.563c-0.071,0.299-0.294,0.525-0.216,0.824c-0.259,0.266-0.328,0.641-0.552,0.867
			c-0.072,0.076-0.186,0.115-0.297,0.154c-0.07,0.299-0.256,0.563-0.515,0.828c-0.333,0.34-0.742,0.606-1.116,0.61l-0.185,0.188
			c-0.784,0.195-1.526,0.654-2.277,0.513c-0.407,0.268-0.781,0.271-1.193,0.237c-0.335,0.191-0.711,0.121-1.086,0.051
			c-0.335,0.115-0.713-0.18-1.049-0.139c-0.414-0.182-0.979-0.438-1.433-0.881c0,0-0.037-0.037,0-0.074
			c-0.112-0.037-0.188-0.11-0.304-0.223c-0.149-0.146-0.303-0.295-0.342-0.406c-0.074-0.074-0.187,0.039-0.299-0.072
			c-0.719-0.702-1.104-1.521-0.926-2.309c-0.229-0.373-0.271-0.709-0.086-1.047c-0.151-0.074-0.189-0.186-0.19-0.26
			c-0.038-0.037,0.036-0.113,0.11-0.189l-0.079-0.299c-0.001-0.148,0.036-0.188-0.003-0.299c0-0.074-0.114-0.186-0.115-0.26
			c-0.042-0.412,0.29-0.828,0.062-1.199c0.296-0.303,0.104-0.637,0.103-0.936c-0.002-0.15,0.07-0.375,0.105-0.563
			c-0.003-0.226-0.006-0.449,0.029-0.563c-0.001-0.149,0.111-0.188,0.108-0.338c0.035-0.262-0.004-0.449,0.029-0.711
			c-0.002-0.225,0.033-0.412,0.066-0.674c-0.226-0.148-0.372,0.152-0.596,0.23c-0.074,0.076-0.188,0.039-0.299,0.078
			c-0.632,0.344-1.228,0.725-1.9,0.658c-0.26,0.188-0.521,0.229-0.785,0.12c-0.222,0.152-0.445,0.154-0.671,0.158
			c-0.111-0.037-0.039-0.11-0.077-0.147c-0.111-0.037-0.222,0.149-0.297,0.151c-0.413-0.106-0.822,0.009-1.2-0.211
			c-0.111,0.039-0.225,0.002-0.299,0.078c-0.413-0.183-0.823-0.142-1.236-0.248c-0.341-0.259-0.678-0.291-0.979-0.438l-0.188-0.186
			c-0.114-0.111-0.188-0.035-0.265-0.109l-0.454-0.443c-0.303-0.295-0.566-0.555-0.722-0.928c-0.075-0.074-0.04-0.186-0.152-0.297
			l-0.151-0.147c-0.113-0.187-0.117-0.484-0.231-0.671c-0.077-0.225-0.229-0.297-0.306-0.444c-0.075-0.147-0.041-0.412-0.156-0.599
			c-0.076-0.225-0.079-0.373-0.119-0.635c-0.039-0.111-0.188-0.26-0.042-0.412l-0.227-0.221c-0.04-0.188-0.079-0.373-0.083-0.598
			c0.146-0.227,0.105-0.563,0.178-0.863c0.035-0.188-0.194-0.635-0.197-0.857c-0.039-0.188,0.034-0.338,0.069-0.524
			c-0.002-0.149-0.078-0.299-0.08-0.449c0.036-0.188,0.146-0.301,0.107-0.485l0.185-0.189c0.031-0.563,0.286-1.125,0.615-1.766
			c0.037-0.113,0.036-0.188,0.035-0.262c0.33-0.49,0.885-1.136,1.144-1.398C135.821,90.242,136.53,90.123,137.087,89.779z
			 M140.247,94.494c-0.185,0.266,0.081,0.523-0.251,0.865c0.15,0.146-0.034,0.336,0.005,0.523c0.002,0.15-0.037,0.037-0.147,0.15
			c0.155,0.448-0.215,0.901-0.209,1.352l-0.146,0.15c0.189,0.409,0.42,0.705,0.461,1.116c0.038,0.037,0.112,0.035,0.188,0.108
			c0.19,0.187,0.27,0.484,0.419,0.632l0.076,0.073c0.446-0.229,0.977,0.216,1.346-0.164c0.186-0.188,0.182-0.487,0.364-0.827
			c-0.151-0.146-0.005-0.375-0.044-0.562c0.037-0.037-0.039-0.111-0.078-0.223c-0.039-0.188-0.04-0.262-0.117-0.486
			c-0.114-0.336-0.23-0.596-0.495-0.854c-0.004-0.226-0.154-0.371-0.306-0.521l-0.189-0.186c-0.304-0.295-0.495-0.779-0.798-1.076
			L140.247,94.494z M146.949,104.521c0.076,0.225,0.189,0.41,0.007,0.6l0.114,0.336c-0.145,0.375,0.047,0.709-0.174,1.086
			c0.038,0.113,0.077,0.226,0.041,0.338c0.039,0.111-0.035,0.263-0.031,0.412c0.039,0.261,0.379,0.519,0.194,0.781
			c0.077,0.15,0.15,0.074,0.189,0.186c-0.107,0.412,0.233,0.896,0.275,1.308c0.075,0,0.188,0.035,0.265,0.108
			c0.112,0.111,0.191,0.41,0.343,0.558l0.076,0.074c0.148,0,0.374-0.005,0.563,0.104c0.262-0.113,0.446-0.229,0.631-0.418
			l0.703-0.719l0.218-0.678l-0.151-0.146c0.065-0.674,0.47-1.391,0.014-2.059c-0.002-0.225-0.005-0.373-0.118-0.559
			c-0.04-0.188-0.151-0.226-0.342-0.408c-0.227-0.223-0.268-0.484-0.309-0.746c-0.302-0.295-0.493-0.631-0.571-0.928
			c-0.188-0.187-0.304-0.371-0.344-0.56c-0.111-0.034-0.263-0.108-0.339-0.185c-0.188-0.184-0.269-0.481-0.531-0.666
			C147.119,103.061,147.613,103.766,146.949,104.521z"/>
	</g>
	<path fill="#FAAF40" d="M119.857,101.723c-1.49,1.75-4.652,4.004-6.733,4.159c-3.425,0.261-2.684-2.93-2.682-5.575
		C111.922,97.811,127.278,93.016,119.857,101.723z"/>
	<path fill="#FAAF40" d="M38.833,108.949c2.152,1.143,6.403,2.197,8.915,1.65c4.138-0.902,2.567-3.645,1.996-6.125
		C47.444,102.628,28.121,103.266,38.833,108.949z"/>
	<g>
		<path fill="#F6921E" d="M66.596,79.303c3.73,3.278,8.738-2.146,5.406-6.766c-2.021-2.799-5.147-10.414-8.553-9.035
			C60.118,64.85,63.992,77.012,66.596,79.303z"/>
		<path fill="#FAAF40" d="M58.001,87.251c-3.353-1.451-12.829-14.593-9.813-17.003c2.728-2.182,6.348,5.27,8.827,7.542
			C63.875,84.074,59.301,87.516,58.001,87.251z"/>
		<path fill="#FAAF40" d="M52.651,98.009c-3.935,1.908-15.531-7.272-13.391-11.291c1.582-2.967,10.358,0.107,13.382,1.863
			C55.965,90.514,54.774,96.982,52.651,98.009z"/>
	</g>
	<g>
		<path fill="#231F20" d="M23.248,51.07c0.37-0.082,0.771-0.076,1.127-0.203l0.222-0.078c0.962-0.242,1.972-0.352,2.878-0.475
			c0.18,0.086,0.476-0.07,0.599,0.137l0.266-0.096c0.524,0.215,1.267,0.049,1.737,0.531l0.031,0.088
			c0.063,0.178,0.066,0.326,0.099,0.416c0.016,0.045,0.047,0.133,0.106,0.162c-0.13,0.195-0.2,0.42-0.375,0.631l-0.088,0.031
			c-0.178,0.064-0.295,0.156-0.383,0.188c-0.045,0.016-0.105-0.014-0.165-0.041c-0.146,0.152-0.294,0.154-0.501,0.277
			c-0.16,0.109-0.26,0.393-0.525,0.488l-0.088,0.031c-0.09,0.031-0.192,0.02-0.384,0.186c-0.206,0.123-0.353,0.275-0.466,0.516
			c-0.384,0.188-0.751,0.418-1.104,0.691c-0.116,0.094-0.201,0.273-0.337,0.32l-0.176,0.063c-0.029,0.061-0.086,0.182-0.159,0.256
			c-0.161,0.109-0.442,0.158-0.589,0.311c-0.073,0.076-0.099,0.285-0.23,0.332c-0.028,0.061-0.042,0.164-0.026,0.209
			c-0.531,0.189-0.373,0.633-0.726,0.906c-0.014,0.105,0.093,0.119,0.063,0.178c-0.174,0.213-0.184,0.467-0.358,0.678
			c-0.027,0.061,0.049,0.133,0.096,0.266c-0.144,0.301-0.001,0.701-0.265,0.943c0.01,0.447,0.019,0.893,0.104,1.412
			c-0.088,0.031-0.04,0.166-0.157,0.256c0.122,0.207,0.126,0.355,0.205,0.576c0.002,0.15-0.144,0.301-0.064,0.523
			c-0.189,0.168-0.079,0.479-0.21,0.674c0.196,0.131,0.199,0.279,0.099,0.416c0.076,0.07,0.151,0.145,0.184,0.232
			c0.063,0.178,0.037,0.387,0.102,0.564c0.613,0.182,1.393-0.297,2.166-0.371c0.133-0.047,0.057-0.121,0.188-0.168
			c0.017,0.045,0.121,0.057,0.209,0.025c0.96-0.391,1.906-0.678,2.982-1.162c0.561-0.25,1.149-0.559,1.787-0.734
			c0.178-0.064,0.386-0.039,0.563-0.102c0.371-0.082,0.754-0.268,1.097-0.289c0.193-0.02,0.446-0.01,0.655,0.016
			c0.225,0.07,0.405,0.154,0.644,0.121c0.194,0.129,0.407,0.305,0.647,0.418c0.14,0.252,0.354,0.574,0.448,0.84
			c0.063,0.178,0.082,0.371-0.004,0.551c0.063,0.178,0.202,0.428,0.297,0.693c0.048,0.133,0.05,0.281,0.069,0.475
			c0.047,0.135,0.153,0.295,0.218,0.473l0.048,0.133c0.031,0.088,0.019,0.193,0.006,0.297c0.063,0.178,0.17,0.34,0.129,0.504
			c0.076,0.072,0.212,0.174,0.26,0.307c0.017,0.045,0.031,0.09,0.003,0.15c0.004,0.148,0.12,0.057,0.182,0.086
			c0.002,0.146-0.026,0.207,0.021,0.34c0.225,0.07,0.23,0.369,0.311,0.59c0.047,0.133,0.208,0.025,0.256,0.158
			c-0.013,0.105-0.026,0.209,0.006,0.299c0.079,0.221,0.246,0.41,0.369,0.617c0.063,0.176,0.099,0.414,0.161,0.592l0.106,0.162
			c0.031,0.088-0.041,0.164-0.009,0.252c0.075,0.074,0.15,0.146,0.184,0.234c0.03,0.09,0.003,0.148,0.019,0.193
			c0.048,0.133,0.107,0.162,0.14,0.252c0.048,0.131-0.022,0.357,0.174,0.486c-0.04,0.164-0.069,0.225,0.037,0.387
			c-0.024,0.209-0.096,0.434-0.061,0.672c0.031,0.088,0.136,0.1,0.167,0.189c0.107,0.16,0.019,0.191,0.006,0.299
			c0.062,0.027,0.136,0.1,0.152,0.143c0.063,0.178-0.007,0.404,0.085,0.521c0.003,0.148-0.055,0.268-0.155,0.404
			c0.031,0.088,0.136,0.102,0.122,0.205c-0.037,0.314-0.18,0.615-0.143,1c-0.156,0.406-0.43,0.902-0.9,1.121
			c0.003,0.147-0.203,0.271-0.305,0.406c-0.072,0.077-0.114,0.241-0.203,0.272c-0.028,0.062-0.133,0.047-0.205,0.123
			c-0.118,0.092-0.295,0.153-0.473,0.217c-0.134,0.047-0.222,0.08-0.37,0.082c-0.298,0.006-0.729,0.062-0.983-0.099l-0.604-0.436
			c-0.241-0.115-0.436-0.096-0.631-0.227c-0.242-0.262-0.413-0.6-0.612-0.879c-0.185-0.234-0.305-0.291-0.52-0.615
			c-0.079-0.223-0.171-0.338-0.265-0.605c-0.114-0.459-0.066-1.023-0.331-1.629c-0.235,0.184-0.498,0.426-0.672,0.639l-0.089,0.031
			c-0.223,0.08-0.275,0.348-0.542,0.443l-0.178,0.063c-0.233,0.184-0.514,0.383-0.672,0.639l-0.089,0.031
			c-0.311,0.111-0.63,0.475-1.028,0.617c-0.312,0.109-0.682,0.191-1.008,0.258c-0.088,0.031-0.12-0.057-0.181-0.086
			c-0.148,0.002-0.102,0.135-0.25,0.14l-0.178,0.063c-0.133,0.047-0.267,0.094-0.401-0.008c-0.517,0.234-1.244,0.293-1.738,0.168
			l-0.133,0.049c-0.223,0.078-0.445,0.01-0.699-0.002c-0.313-0.037-0.641,0.027-0.908-0.025c-0.061-0.028-0.196-0.129-0.301-0.143
			c-0.209-0.027-0.357-0.023-0.555-0.152c-0.072,0.076-0.072,0.076-0.177,0.063c-0.137-0.103-0.301-0.144-0.494-0.123
			c-0.421-0.2-0.87-0.34-1.233-0.659c-0.284-0.099-0.557-0.304-0.869-0.341c-0.124-0.205-0.378-0.215-0.545-0.406
			c-0.151-0.145-0.187-0.383-0.411-0.453c0.028-0.061,0.028-0.061,0.014-0.104c-0.047-0.133-0.288-0.246-0.411-0.453
			c-0.016-0.045-0.003-0.148-0.048-0.133c-0.167-0.191-0.452-0.289-0.563-0.6c-0.016-0.045-0.03-0.088-0.019-0.193
			c-0.348-0.275-0.537-0.807-0.756-1.279c-0.031-0.088-0.003-0.148,0.087-0.18c-0.031-0.09-0.166-0.041-0.241-0.115
			c-0.095-0.266-0.174-0.488-0.132-0.65c-0.093-0.119-0.184-0.234-0.231-0.369c-0.095-0.266-0.101-0.563-0.193-0.828
			c-0.077-0.074,0.012-0.105,0.041-0.166l-0.332-0.932c-0.047-0.133,0.022-0.355-0.024-0.49c-0.063-0.178-0.247-0.412-0.057-0.578
			c-0.136-0.102-0.05-0.283-0.099-0.416c-0.098-0.414-0.269-0.754-0.351-1.123l0.055-0.27c-0.003-0.148-0.051-0.281-0.112-0.459
			c-0.049-0.133-0.111-0.311-0.114-0.459c0.029-0.061,0.042-0.164,0.055-0.27l-0.048-0.133c-0.094-0.266,0.064-0.521,0.15-0.701
			l-0.048-0.135c-0.096-0.266,0.051-0.418-0.028-0.639l-0.031-0.088c0.188-0.316-0.002-0.85,0.35-1.125
			c-0.092-0.117-0.019-0.193-0.065-0.326c0.029-0.061,0.026-0.209,0.115-0.24c-0.008-0.297,0.02-0.506,0.133-0.746
			c-0.102-0.564,0.309-0.959,0.388-1.438l0.374-0.633l0.33-0.615l0.178-0.064c0.203-0.271,0.491-0.723,0.892-0.865
			c0.813-0.939,2.094-1.695,3.071-2.594l0.165,0.041c0.146-0.152,0.354-0.273,0.573-0.354l0.133-0.047
			c0.114-0.24,0.697-0.148,0.812-0.389c0.104,0.014,0.148-0.002,0.238-0.033L23.248,51.07z M28.837,66.213
			c-0.974,0.496-2.273,0.91-3.189,1.285c-0.266,0.094-0.445,0.01-0.623,0.072c-0.561,0.25-0.491,0.725-0.317,1.211
			c0.171,0.34,0.202,0.428,0.444,0.691c0.093,0.117,0.199,0.279,0.275,0.352c0.076,0.073,0.24,0.115,0.36,0.172
			c0.076,0.072,0.093,0.117,0.151,0.145c0.196,0.131,0.439,0.395,0.604,0.436c0.06,0.027,0.221-0.078,0.386-0.039l0.196,0.131
			c0.119,0.057,0.297-0.006,0.43-0.055c0.223-0.078,0.428-0.201,0.574-0.352c0.162-0.109,0.203-0.273,0.304-0.408
			c0,0,0.062,0.029,0.104,0.012c0.027-0.061,0.055-0.27,0.219-0.227c-0.002-0.15,0.099-0.285,0.156-0.406
			c0.102-0.135,0.157-0.256,0.335-0.318c0.097-0.434,0.355-0.826,0.526-1.188c0.025-0.207,0.127-0.346,0.213-0.525
			c0.102-0.137,0.144-0.301,0.306-0.408c-0.021-0.193,0.126-0.344,0.212-0.525c-0.196-0.129-0.262-0.455-0.472-0.48
			c-0.119-0.059-0.281,0.049-0.414,0.096C29.414,66.008,29.131,66.057,28.837,66.213z"/>
	</g>
	<g>
		<path fill="#231F20" d="M44.658,35.09c0.288-0.076,0.608-0.039,0.973-0.074c0.173-0.045,0.305-0.02,0.478-0.064l0.694-0.188
			c0.404-0.107,0.752-0.201,1.146-0.119c0.174-0.047,0.204,0.068,0.277,0.109c0.405-0.107,0.872,0.016,1.225,0.17
			c0.636-0.172,0.989,0.23,1.584,0.133c0.077,0.289,0.324,0.285,0.514,0.295c0.104,0.158,0.15,0.332,0.282,0.361
			c0.481,0.18,0.853,0.637,1.318,0.76c0.105,0.158,0.151,0.332,0.34,0.344c0.09,0.1-0.011,0.188,0.021,0.305
			c0.413,0.385,0.795,0.654,1.208,1.039c0.047,0.174,0.225,0.375,0.082,0.537c0.016,0.057,0.016,0.057,0.072,0.041
			c0.463-0.123,0.648,0.572,1.03,0.842c-0.025,0.129,0.006,0.246,0.035,0.361c0.141,0.52,0.622,0.701,0.847,1.074
			c0.119,0.217,0.14,0.521,0.26,0.736c0.104,0.16,0.234,0.186,0.324,0.285c0.149,0.332,0.217,0.811,0.524,1.037
			c0.047,0.174,0.035,0.363,0.099,0.594c0.139,0.521,0.409,1.068,0.676,1.369c0.094,0.348,0.186,0.695,0.384,1.199
			c0.167,0.389,0.417,0.633,0.479,0.863c0.047,0.174,0.006,0.248-0.079,0.393c0.063,0.232,0.166,0.389,0.229,0.621
			c0.077,0.289,0.112,0.652,0.074,0.973c0.104,0.158,0.15,0.332,0.182,0.447c0.046,0.174,0.108,0.404,0.098,0.594
			c0.005,0.248,0.252,0.242,0.183,0.447c0.089,0.1-0.216,0.119-0.138,0.41l0.17,0.635c0.03,0.117,0.162,0.143,0.191,0.258
			c-0.012,0.189-0.063,0.451-0.019,0.625c0.063,0.23,0.239,0.432,0.328,0.533c0.063,0.23-0.111,0.275-0.123,0.465
			c0.146,0.086,0.137,0.273,0.183,0.447c0.017,0.059,0.046,0.174,0.12,0.217c-0.127,0.221-0.108,0.523-0.382,0.66
			c0.023,0.551,0.06,0.914,0.023,1.48c-0.173,0.047-0.127,0.221-0.373,0.225c-0.068,0.203,0.023,0.551-0.308,0.703
			c0.021,0.303-0.05,0.508-0.177,0.729c-0.012,0.189,0.162,0.143,0.192,0.258c-0.7,0.621-1.383,1.549-1.834,2.414
			c-0.346,0.092-0.474,0.311-0.657,0.547c-0.289,0.076-0.401,0.355-0.676,0.49l-0.347,0.094c-0.348,0.092-0.475,0.313-0.731,0.506
			c-0.2,0.178-0.416,0.297-0.543,0.518c-0.332,0.15-0.663,0.301-0.849,0.537l-0.248,0.004c-0.229,0.063-0.356,0.281-0.574,0.402
			c-0.445,0.182-0.866,0.232-1.271,0.34c-0.331,0.15-0.662,0.303-1.067,0.41l-0.23,0.063c-0.059,0.016-0.188-0.012-0.263-0.055
			c-0.348,0.094-0.604,0.287-0.951,0.381c-0.289,0.076-0.638,0.17-0.941,0.189c-0.289,0.076-0.494,0.008-0.783,0.086
			c-0.114,0.031-0.216,0.119-0.331,0.15c-0.305,0.02-0.654-0.135-0.96-0.115l-0.231,0.063c-0.115,0.031-0.552,0.023-0.828-0.088
			c-0.305,0.02-0.614-0.207-0.787-0.16l-0.174,0.047c-0.205-0.07-0.383-0.271-0.646-0.326c-0.205-0.068-0.51-0.049-0.629-0.264
			c-0.651,0.113-1.207-0.109-1.764-0.334c-0.204-0.07-0.497-0.238-0.702-0.309c-0.22-0.127-0.424-0.195-0.602-0.395l-0.557-0.225
			c-0.12-0.215-0.425-0.195-0.502-0.484l-0.32-0.039c-0.591-0.586-1.154-1.303-1.762-1.945c-0.354-0.402-0.563-0.717-0.907-1.307
			c-0.119-0.217-0.166-0.391-0.344-0.59l-0.34-0.344c-0.313-0.473-0.425-1.125-0.653-1.746c-0.136-0.273-0.345-0.59-0.422-0.877
			c-0.182-0.449-0.188-0.941-0.355-1.33c-0.063-0.232-0.255-0.49-0.317-0.723c-0.046-0.174,0.038-0.32,0.008-0.436
			c-0.004-0.246-0.196-0.506-0.231-0.867l-0.004-0.248c0.011-0.189-0.167-0.389-0.198-0.504c-0.004-0.248-0.022-0.551,0-0.93
			c-0.024-0.551-0.356-1.33-0.118-1.828c-0.155-0.578-0.032-1.045,0.106-1.455c-0.099-0.594-0.121-1.145,0.222-1.484
			c-0.017-0.057-0.104-0.158-0.135-0.273c0.216-0.121,0.139-0.408,0.296-0.514c0.025-0.131-0.089-0.1-0.12-0.217
			c0.143-0.162,0.154-0.35,0.297-0.512c-0.144-0.768,0.373-1.154,0.392-1.779c0.238-0.498,0.608-0.969,0.7-1.551
			c0.186-0.236,0.443-0.428,0.744-0.695c0.199-0.178,0.354-0.527,0.611-0.723c0.101-0.088,0.273-0.135,0.374-0.223
			c0.315-0.209,0.543-0.518,0.891-0.611c0.186-0.234,0.265-0.629,0.581-0.838c0.358-0.281,0.91-0.305,1.049-0.715
			c0.246-0.004,0.535-0.082,0.824-0.158l0.289-0.078c0.174-0.047,0.243-0.25,0.459-0.371c0.432-0.238,0.91-0.305,1.122-0.672
			c0.131,0.027,0.188,0.012,0.305-0.02c0.231-0.061,0.433-0.238,0.517-0.387c0.101-0.088,0.273-0.135,0.447-0.182l0.752-0.201
			c0.174-0.047,0.347-0.094,0.504-0.197L44.658,35.09z M45.299,39.568c0.046,0.172,0.104,0.156,0.077,0.289l-0.143,0.162
			c0.065,0.477-0.234,0.744-0.314,1.137c0.046,0.174,0.162,0.145,0.209,0.318c-0.043,0.072-0.274,0.135-0.301,0.266l0.093,0.346
			c0.171,0.637,0.005,1.176-0.218,1.732l0.063,0.23c0.092,0.348,0.144,0.768,0.235,1.115c0.063,0.23,0.198,0.506,0.302,0.664
			c-0.216,0.119-0.038,0.318-0.064,0.451c0.017,0.057-0.026,0.131-0.068,0.205c-0.038,0.318,0.065,0.477,0.085,0.781
			c0.146,0.086,0.252,0.244,0.313,0.475c0.063,0.232,0.024,0.553-0.045,0.756c0.104,0.158,0.208,0.316,0.255,0.49
			c0.078,0.289,0.081,0.535,0.086,0.781c0.047,0.174,0.277,0.113,0.281,0.359c-0.021,0.377,0.103,0.84,0.227,1.303
			c0.186,0.693,0.444,1.432,0.631,2.125l0.093,0.348c0.031,0.115,0.193,0.258,0.225,0.373c0.375,0.705,0.533,1.531,0.82,2.137
			c0.046,0.172,0.208,0.316,0.313,0.475c0.344,0.588,0.316,0.721,0.684,0.932s0.352,0.154,0.745,0.234
			c0.174-0.045,0.262,0.053,0.378,0.021c0.131,0.027,0.188,0.012,0.246-0.002c0.231-0.063,0.374-0.225,0.621-0.23
			c0.327-0.396,0.654-0.795,1.069-1.092c0.112-0.277,0.15-0.598,0.277-0.818c0.065-0.451,0.057-0.943,0.122-1.396l0.096-0.334
			c0.056-0.264-0.05-0.42,0.02-0.625s0.224-0.557,0.162-0.787c-0.017-0.059-0.047-0.174-0.12-0.217
			c0.152-0.352,0.103-0.771,0.198-1.105l-0.12-0.217c-0.077-0.289,0.05-0.51,0.045-0.758c0.012-0.188-0.107-0.404-0.098-0.594
			c-0.046-0.174,0.038-0.318,0.008-0.434c-0.02-0.305-0.154-0.578-0.232-0.869c-0.097-0.594-0.036-1.291-0.102-1.77
			c-0.167-1.318-1.188-2.348-1.543-3.678c-0.413-0.385-0.558-1.152-0.886-1.686c-0.281-0.357-0.605-0.643-0.715-1.047
			c-0.43-0.443-0.899-0.813-1.186-1.418c-0.583-0.092-1.039-0.404-1.605-0.438c-0.188-0.012-0.608,0.039-0.841,0.1
			C45.726,39.08,45.542,39.316,45.299,39.568z"/>
	</g>
	<g>
		<path fill="#231F20" d="M74.221,36.338c0.195,0.048,0.372,0.174,0.598,0.27c0.117,0.029,0.187,0.086,0.305,0.115l0.469,0.113
			c0.274,0.066,0.509,0.123,0.716,0.298c0.117,0.028,0.1,0.106,0.128,0.155c0.273,0.066,0.51,0.29,0.667,0.494
			c0.432,0.104,0.513,0.455,0.895,0.59c-0.048,0.195,0.099,0.272,0.208,0.34c0.011,0.127-0.02,0.244,0.05,0.303
			c0.227,0.262,0.299,0.652,0.534,0.875c0.011,0.127-0.02,0.244,0.091,0.313c0.02,0.088-0.068,0.107-0.088,0.186
			c0.12,0.36,0.259,0.643,0.379,1.004c-0.028,0.117,0.011,0.292-0.124,0.342c-0.01,0.039-0.01,0.039,0.029,0.049
			c0.313,0.076,0.197,0.545,0.337,0.828c-0.058,0.068-0.076,0.146-0.096,0.225c-0.086,0.354,0.142,0.615,0.152,0.908
			c0.001,0.165-0.086,0.352-0.085,0.518c0.011,0.127,0.081,0.186,0.1,0.272c-0.018,0.245-0.133,0.548-0.022,0.782
			c-0.028,0.117-0.096,0.225-0.134,0.381c-0.085,0.354-0.103,0.764-0.042,1.027c-0.058,0.234-0.113,0.469-0.16,0.83
			c-0.027,0.283,0.042,0.508,0.005,0.664c-0.029,0.117-0.077,0.147-0.175,0.207c-0.038,0.156-0.026,0.283-0.064,0.439
			c-0.047,0.195-0.144,0.421-0.27,0.598c0.011,0.127-0.02,0.244-0.037,0.322c-0.028,0.117-0.066,0.273-0.134,0.383
			c-0.077,0.146,0.069,0.224-0.037,0.322c0.021,0.088-0.166,0.001-0.213,0.197l-0.104,0.43c-0.02,0.078,0.05,0.137,0.03,0.215
			c-0.068,0.107-0.185,0.244-0.212,0.363c-0.038,0.156,0.001,0.332,0.021,0.419c-0.038,0.157-0.154,0.128-0.223,0.237
			c0.059,0.096-0.009,0.203-0.037,0.32c-0.01,0.041-0.028,0.119,0.001,0.167c-0.146,0.089-0.233,0.275-0.438,0.267
			c-0.164,0.334-0.261,0.559-0.463,0.883c-0.118-0.029-0.146,0.088-0.294,0.012c-0.105,0.098-0.163,0.334-0.407,0.315
			c-0.086,0.187-0.193,0.284-0.34,0.374c-0.065,0.107,0.051,0.136,0.03,0.214c-0.614,0.142-1.313,0.468-1.857,0.833
			c-0.235-0.057-0.382,0.033-0.565,0.111c-0.196-0.047-0.352,0.082-0.557,0.074l-0.235-0.059c-0.234-0.057-0.381,0.033-0.596,0.063
			c-0.176,0.041-0.343,0.042-0.487,0.131c-0.243-0.018-0.487-0.035-0.673,0.045l-0.147-0.078c-0.155-0.037-0.303,0.051-0.469,0.053
			c-0.322-0.037-0.587-0.143-0.861-0.209c-0.242-0.018-0.487-0.036-0.762-0.103L68.4,55.727c-0.04-0.01-0.106-0.067-0.138-0.115
			c-0.235-0.057-0.449-0.027-0.685-0.084c-0.195-0.047-0.432-0.104-0.616-0.191c-0.195-0.047-0.295-0.154-0.49-0.201
			c-0.078-0.02-0.166,0.002-0.244-0.018c-0.187-0.086-0.344-0.291-0.528-0.377l-0.157-0.037c-0.077-0.02-0.333-0.164-0.462-0.32
			c-0.187-0.086-0.294-0.32-0.412-0.349l-0.116-0.028c-0.1-0.106-0.14-0.283-0.278-0.398c-0.097-0.107-0.281-0.193-0.285-0.359
			c-0.421-0.145-0.676-0.455-0.933-0.766c-0.099-0.106-0.218-0.301-0.314-0.407c-0.09-0.146-0.188-0.253-0.229-0.429l-0.257-0.311
			c-0.001-0.166-0.188-0.253-0.14-0.448l-0.178-0.126c-0.159-0.536-0.262-1.141-0.412-1.715c-0.08-0.352-0.103-0.605-0.113-1.064
			c-0.002-0.166,0.025-0.283-0.015-0.459l-0.09-0.313c-0.032-0.381,0.11-0.801,0.176-1.241c0.011-0.204-0.013-0.458,0.035-0.655
			c0.036-0.322,0.191-0.616,0.218-0.898c0.038-0.158,0.009-0.371,0.047-0.529c0.027-0.117,0.125-0.176,0.145-0.254
			c0.078-0.146,0.046-0.362,0.143-0.588l0.077-0.146c0.068-0.107,0.027-0.283,0.046-0.361c0.078-0.147,0.164-0.334,0.3-0.55
			c0.164-0.333,0.218-0.899,0.52-1.116c0.095-0.393,0.319-0.628,0.532-0.824c0.134-0.382,0.297-0.715,0.607-0.805
			c0.011-0.04-0.011-0.127,0.01-0.207c0.167,0,0.214-0.195,0.34-0.207c0.059-0.068-0.021-0.088,0-0.166
			c0.136-0.049,0.203-0.156,0.34-0.207c0.162-0.5,0.592-0.561,0.804-0.924c0.303-0.217,0.672-0.375,0.913-0.689
			c0.187-0.08,0.4-0.11,0.664-0.171c0.175-0.04,0.379-0.198,0.594-0.229c0.087-0.02,0.205,0.008,0.294-0.012
			c0.254-0.021,0.486-0.131,0.723-0.073c0.184-0.079,0.358-0.286,0.612-0.307c0.303-0.052,0.636,0.112,0.849-0.085
			c0.146,0.078,0.343,0.125,0.539,0.173l0.194,0.048c0.117,0.027,0.226-0.07,0.392-0.072c0.333-0.002,0.636,0.113,0.879-0.035
			c0.068,0.059,0.107,0.068,0.187,0.087c0.156,0.038,0.331-0.003,0.43-0.062c0.088-0.02,0.204,0.008,0.321,0.037l0.51,0.123
			c0.116,0.028,0.234,0.057,0.36,0.047L74.221,36.338z M73.157,39.188c-0.028,0.117,0.011,0.127-0.048,0.196l-0.137,0.05
			c-0.115,0.303-0.378,0.363-0.553,0.57c-0.028,0.117,0.05,0.137,0.021,0.254c-0.049,0.029-0.205-0.009-0.264,0.061l-0.057,0.234
			c-0.104,0.43-0.375,0.695-0.688,0.951l-0.038,0.158c-0.057,0.234-0.162,0.498-0.22,0.732c-0.038,0.158-0.046,0.363-0.034,0.49
			c-0.167,0-0.127,0.176-0.186,0.244c-0.01,0.039-0.059,0.07-0.107,0.099c-0.124,0.177-0.113,0.304-0.2,0.489
			c0.06,0.098,0.069,0.225,0.032,0.381c-0.038,0.156-0.164,0.334-0.271,0.432c0.011,0.127,0.021,0.254-0.008,0.371
			c-0.048,0.197-0.125,0.344-0.201,0.49c-0.028,0.117,0.128,0.156,0.05,0.303c-0.134,0.216-0.21,0.528-0.286,0.842
			c-0.114,0.47-0.198,0.988-0.313,1.457l-0.058,0.234c-0.019,0.078,0.031,0.215,0.012,0.295c-0.006,0.535-0.178,1.074-0.203,1.523
			c-0.027,0.117,0.021,0.254,0.03,0.381c0.014,0.459-0.044,0.527,0.104,0.771c0.147,0.242,0.157,0.203,0.362,0.377
			c0.119,0.029,0.14,0.117,0.218,0.137c0.067,0.058,0.107,0.066,0.146,0.076c0.156,0.039,0.292-0.012,0.439,0.066
			c0.321-0.131,0.643-0.259,0.983-0.301c0.155-0.129,0.281-0.305,0.428-0.393c0.184-0.246,0.339-0.54,0.521-0.786l0.164-0.167
			c0.116-0.137,0.104-0.264,0.214-0.363c0.105-0.098,0.311-0.256,0.348-0.412c0.011-0.039,0.028-0.117-0.001-0.166
			c0.204-0.158,0.311-0.422,0.476-0.59l-0.001-0.166c0.048-0.195,0.191-0.285,0.27-0.432c0.068-0.107,0.066-0.273,0.136-0.381
			c0.027-0.117,0.126-0.178,0.145-0.256c0.086-0.186,0.095-0.391,0.143-0.587c0.134-0.382,0.396-0.774,0.512-1.077
			c0.324-0.834,0.055-1.769,0.271-2.668c-0.119-0.361,0.044-0.859,0.021-1.28c-0.051-0.302-0.151-0.575-0.085-0.849
			c-0.11-0.4-0.27-0.77-0.243-1.22c-0.313-0.241-0.481-0.572-0.806-0.775c-0.107-0.067-0.372-0.173-0.528-0.212
			C73.567,39.038,73.38,39.117,73.157,39.188z"/>
	</g>
	<g>
		<path fill="#231F20" d="M136.682,53.01c0.188,0.066,0.35,0.174,0.51,0.279c0.686,0.455,0.9,1.18,1.625,1.66
			c-0.013,0.107,0.067,0.162,0.081,0.229c0.081,0.053,0.121,0.08,0.229,0.094c0.081,0.402,0.39,0.723,0.605,1.1
			c0.12,0.08,0.146,0.039,0.228,0.092c0.135,0.148,0.148,0.389,0.283,0.537c-0.055,0.08,0.026,0.133-0.026,0.215
			c0.202,0.48,0.337,0.979,0.271,1.514c0.002,0.174,0.122,0.256,0.107,0.361c-0.08,0.121-0.065,0.189-0.146,0.311
			c0.106,0.361,0.256,0.924,0.016,1.287l-0.148,0.135c-0.039,0.146,0.148,0.213,0.162,0.281c0.027,0.307-0.268,0.576-0.227,0.777
			c-0.094,0.055-0.188,0.283-0.269,0.404c-0.054,0.08,0.095,0.119,0.055,0.268l-0.08,0.121c-0.106,0.16-0.147,0.309-0.334,0.414
			c0.041,0.203-0.121,0.27-0.229,0.432c-0.134,0.201-0.12,0.441-0.254,0.643c-0.053,0.08-0.08,0.121-0.174,0.176
			c-0.08,0.121,0.067,0.16,0.055,0.268c-0.146,0.309-0.335,0.59-0.495,0.832c-0.134,0.201-0.268,0.402-0.44,0.578
			c-0.095,0.053-0.081-0.053-0.161-0.107c-0.08,0.295-0.026,0.564-0.039,0.846c-0.04,0.146-0.161,0.066-0.241,0.188
			c-0.039,0.148-0.133,0.377-0.295,0.443c-0.024,0.215-0.159,0.416-0.293,0.617c-0.106,0.162-0.241,0.363-0.415,0.537
			c-0.013,0.107,0,0.174,0.056,0.268c-0.068,0.014-0.096,0.055-0.121,0.094c-0.08,0.121-0.081,0.297-0.281,0.338
			c-0.014,0.105-0.04,0.146-0.094,0.227l-0.309,0.377c-0.04,0.146-0.079,0.295-0.159,0.416c-0.026,0.039-0.16,0.066-0.281,0.162
			c-0.106,0.16-0.106,0.334-0.321,0.309c-0.013,0.107-0.066,0.188-0.119,0.268c-0.188,0.283-0.47,0.443-0.63,0.686
			c-0.08,0.121-0.134,0.201-0.147,0.309c-0.146,0.135-0.295,0.096-0.348,0.35c-0.08,0.121-0.228,0.08-0.362,0.107
			c0.016,0.068-0.039,0.148-0.065,0.188c-0.106,0.162-0.309,0.201-0.429,0.297l-0.08,0.121c-0.215,0.322-0.55,0.563-0.871,0.523
			c-0.027,0.041-0.014,0.107-0.066,0.189c-0.134,0.201-0.401,0.254-0.657,0.201c-0.066,0.188-0.214,0.148-0.214,0.322
			c-0.229,0.08-0.455,0.162-0.657,0.377c-0.214-0.027-0.348,0-0.48,0.201c-0.2,0.041-0.402,0.082-0.59,0.188
			c-0.577-0.095-1.101-0.093-1.542,0.138c-0.081-0.054-0.146-0.039-0.255-0.054c-0.471,0.269-1.141-0.119-1.637,0.017
			c-0.094,0.055-0.081-0.054-0.188-0.066c-0.255,0.121-0.537-0.066-0.805-0.012l-0.16-0.107c-0.283-0.188-0.523-0.174-0.833-0.32
			c-0.201-0.133-0.604-0.227-1.007-0.494c-0.04-0.027-0.055-0.094-0.135-0.146l-0.283-0.188c-0.2-0.135-0.401-0.268-0.495-0.563
			l-0.081-0.055c-0.161-0.107-0.27-0.295-0.376-0.482c-0.322-0.387-0.659-0.842-0.779-1.271c-0.312-0.322-0.592-0.684-0.633-1.059
			c-0.363-0.24-0.323-0.563-0.257-0.926c0.054-0.08-0.066-0.16-0.081-0.227c0.239-0.537-0.082-1.1,0.266-1.623
			c0.027-0.041-0.081-0.055-0.027-0.135c0.04-0.322,0.214-0.67,0.321-1.006c0.012-0.107-0.001-0.174,0.025-0.215
			c0.094-0.229,0.28-0.336,0.348-0.523c0.014-0.107-0.041-0.201,0.013-0.283c0.015-0.105,0.135-0.201,0.147-0.307
			c0.054-0.082,0.04-0.148,0.12-0.27l0.106-0.162c0.135-0.201,0.174-0.348,0.309-0.549c0.253-0.471,0.629-0.859,0.829-1.25
			c0.054-0.08,0.106-0.16,0.174-0.174c0.066-0.188,0.267-0.578,0.414-0.885c0.054-0.082,0.135-0.027,0.188-0.109
			c0.026-0.039-0.015-0.066-0.015-0.066c-0.014-0.066,0.094-0.229,0.146-0.309c0.175-0.35,0.469-0.793,0.789-1.275
			c0.08-0.121,0.269-0.229,0.349-0.35l0.188-0.281l0.454-0.686c0.107-0.16,0.188-0.281,0.336-0.416
			c0.134-0.201,0.347-0.35,0.481-0.551l0.214-0.322c0.294-0.443,0.815-0.967,1.204-1.465c0.308-0.375,0.535-0.805,0.884-0.98
			c0.013-0.107,0.066-0.188,0.093-0.227c0.107-0.162,0.229-0.256,0.349-0.352c0.08-0.119,0.12-0.268,0.2-0.389
			c0.107-0.16,0.254-0.295,0.375-0.389c0.107-0.162,0.188-0.283,0.335-0.416c0.215-0.322,0.401-0.605,0.683-0.941
			c0.094-0.053,0.215-0.146,0.269-0.227c0.106-0.162,0.173-0.35,0.253-0.471c0.055-0.082,0.08-0.121,0.176-0.174
			c0.079-0.121,0.065-0.189,0.053-0.256c0.08-0.121,0.254-0.121,0.375-0.215c0.161,0.105,0.35,0,0.522-0.002
			c0.147,0.041,0.31,0.146,0.483,0.146c0.214,0.027,0.441-0.055,0.656-0.027c0.309,0.146,0.604,0.227,0.926,0.266
			c0.188,0.068,0.229,0.096,0.35,0.174c0.08,0.055,0.214,0.027,0.255,0.055l0.16,0.107c0.121,0.08,0.351,0.172,0.553,0.307
			c0.079,0.053,0.16,0.107,0.188,0.24c0.442-0.055,0.765,0.334,1.262,0.549C136.615,52.848,136.667,52.941,136.682,53.01z
			 M125.869,59.063c0.041,0.027,0.041,0.027,0.107,0.014c0.026-0.041,0.014-0.107-0.027-0.133L125.869,59.063z M126.064,70.221
			c0.107,0.014,0.27,0.121,0.35,0c-0.055-0.094-0.107-0.188-0.229-0.268C126.13,70.033,126.05,70.154,126.064,70.221z
			 M133.954,57.467c-0.054,0.08,0.066,0.16-0.015,0.281c-0.093,0.055-0.187,0.107-0.267,0.229c-0.107,0.16-0.147,0.309-0.188,0.457
			c-0.268,0.229-0.535,0.457-0.789,0.752c-0.015,0.107,0.04,0.201-0.014,0.281c-0.241,0.014-0.456,0.162-0.59,0.363
			c-0.16,0.242-0.24,0.537-0.4,0.779l-1.271,2.35c-0.32,0.482-0.521,1.045-0.814,1.488l-0.308,0.377
			c-0.027,0.041-0.081,0.121-0.067,0.188c-0.295,0.094-0.401,0.43-0.563,0.672l-0.054,0.08c-0.08,0.121-0.215,0.148-0.295,0.27
			c-0.105,0.16-0.199,0.389-0.308,0.551l-0.08,0.121c-0.08,0.119-0.201,0.215-0.254,0.295c-0.081,0.121-0.094,0.229-0.135,0.375
			l-0.133,0.201c-0.216,0.322-0.039,1.02,0.242,1.207c0.229,0.094,0.403,0.094,0.537,0.066c0.135-0.028,0.295-0.094,0.47-0.096
			c0.134-0.201,0.39-0.146,0.55-0.389c0.173-0.176,0.388-0.322,0.603-0.297c0.04-0.146,0.174-0.174,0.295-0.268
			c0.241-0.363,0.51-0.592,0.816-0.793l0.161-0.242c0.24-0.363,0.468-0.617,0.735-0.846c0.08-0.121-0.067-0.162,0.054-0.256
			c0.708-0.98,1.217-1.92,1.671-2.953c0.201-0.389,0.428-0.645,0.293-0.967c0.509-0.59,0.508-1.287,0.627-1.904
			c0.025-0.215,0.054-0.43,0.188-0.631l0.08-0.121c0.015-0.107-0.026-0.309,0.054-0.43c0,0,0.065-0.014,0.094-0.053
			c-0.121-0.08-0.095-0.121-0.107-0.188c0.12-0.27-0.055-0.443,0.065-0.711c-0.068-0.162-0.121-0.256-0.202-0.309
			C134.436,57.264,134.222,57.412,133.954,57.467z"/>
	</g>
	<g>
		<path fill="#7CCDCD" d="M84.691,40.264c0,0,1.499-9.01,12.605-9.182c11.104-0.17,17.618,2.145,19.826,3.104
			C119.925,35.402,106.587,49.32,84.691,40.264z"/>
		<g>
			<path fill="#BE1E2D" d="M79.826,20.803c-2.066-2.201-0.198-12.386,1.569-14.608c1.757,1.906-0.232,4.081,0.678,6.218
				c1.061,2.496,3.202-0.609,4.926,1.38c0.91,1.05-1.993,2.245-1.293,3.597c0.41,0.789,2.108-0.276,2.639,0.285
				c0.945,1.004-1.773,3.148-0.898,4.361c0.79,1.098,2.871,0.678,2.757,1.701c-0.084,0.75-1.928,0.996-2.119,1.557
				c-0.233,0.678,0.896,1.469,0.538,1.754c-1.136,0.898-4.564-2.041-5.193-2.551C82.095,23.414,80.893,22.15,79.826,20.803z"/>
			<path fill="#231F20" d="M88.067,27.967c-1.419,0-3.402-1.482-4.973-2.773l-0.14-0.114c-1.303-1.058-2.553-2.34-3.718-3.811
				c-2.371-2.522-0.312-13.174,1.571-15.541c0.136-0.172,0.341-0.274,0.561-0.283c0.229-0.005,0.43,0.08,0.578,0.242
				c1.235,1.34,0.994,2.775,0.781,4.041c-0.144,0.852-0.278,1.655,0.035,2.391c0.242,0.57,0.451,0.57,0.619,0.57
				c0.222,0,0.51-0.071,0.814-0.146c0.396-0.098,0.847-0.208,1.322-0.208c0.803,0,1.491,0.325,2.047,0.967
				c0.879,1.015-0.021,2.043-0.559,2.657c-0.361,0.413-0.645,0.755-0.656,0.978c0.212-0.005,0.411-0.041,0.605-0.077
				c0.73-0.132,1.516-0.142,1.935,0.301c0.845,0.898,0.208,2.043-0.303,2.963c-0.276,0.498-0.695,1.25-0.533,1.475
				c0.221,0.308,0.73,0.441,1.223,0.571c0.675,0.178,1.804,0.475,1.671,1.652c-0.095,0.838-0.934,1.215-1.607,1.518
				c-0.161,0.072-0.384,0.172-0.518,0.251c0.055,0.09,0.169,0.264,0.236,0.367c0.201,0.306,0.735,1.116,0.029,1.678
				C88.808,27.854,88.465,27.967,88.067,27.967z M81.355,7.688c-1.771,3.649-2.078,11.436-0.982,12.602
				c1.139,1.434,2.312,2.637,3.526,3.625l0.147,0.121c1.835,1.509,2.896,2.103,3.497,2.318c-0.195-0.365-0.34-0.813-0.171-1.305
				c0.19-0.559,0.78-0.823,1.352-1.079c0.143-0.064,0.357-0.16,0.526-0.253c-0.118-0.036-0.25-0.07-0.356-0.099
				c-0.642-0.169-1.521-0.4-2.058-1.145c-0.719-0.997-0.077-2.152,0.438-3.08c0.178-0.317,0.489-0.879,0.521-1.136
				c-0.193,0.007-0.385,0.042-0.571,0.076c-0.29,0.054-0.59,0.108-0.887,0.108c-0.77,0-1.13-0.385-1.298-0.708
				c-0.588-1.136,0.27-2.116,0.838-2.765c0.197-0.225,0.525-0.6,0.55-0.746c-0.338-0.336-0.65-0.39-0.909-0.39
				c-0.294,0-0.62,0.08-0.964,0.165c-0.378,0.093-0.77,0.189-1.173,0.189c-0.908,0-1.581-0.499-1.999-1.483
				c-0.485-1.139-0.298-2.247-0.134-3.226C81.37,8.759,81.451,8.189,81.355,7.688z"/>
		</g>
		<g>
			<path fill="#FAAF40" d="M79.271,21.268c-3.649-4.39-6.681-2.596-9.203-6.181c1.798,5.28,0.748,7.036-3.447,9.593l3.209,1.934
				c1.803,3.326,3.482,4.973,4.066,9c0.425,2.934,0.073,6.186-0.11,9.314c-0.369,6.242,0.625,12.723,3.122,18.23
				c2.644,5.832,7.646,8.518,11.609,13.14c0.663,3.591-0.489,9.466-0.18,13.773c0.014,0.182-3.304,1.984-3.285,2.16
				c0.028,0.271,2.646-0.41,2.688-0.156c0.063,0.387-1.54,2.438-1.438,2.781c0.409,1.359,2.361-2.055,3.05-0.98
				c0.715,0.185,0.673,2.107,0.981,1.638c1.736-2.647-1.317-16.024,2.708-15.781c1.31,1.31,0.819,7.519,0.854,11.8
				c0.004,0.444-1.965,2.885-1.938,3.295c0.023,0.368,1.951-1.3,2-0.97c0.069,0.479-0.167,1.597-0.031,1.97
				c0.495,0.018,0.917-1.361,1.229-1.593c0.165-0.121,1.617,1.533,1.739,1.354c0.122-0.178-0.841-2.861-0.804-3.104
				c0.372-2.405,3.282-14.935,4.875-17.563c3.309,3.162,4.537,7.723,6.518,8.223c6.695,1.695,7.794-2.318,4.542-6.098
				c-1.753-2.035-3.282-1.035-6.396-1.127c-0.209-13.273-0.426-25.995-10.735-33.824c-5.85-4.445-10.753-6.453-12.577-13.773
				C81.859,26.482,80.164,22.768,79.271,21.268z"/>
			<path fill="#231F20" d="M93.937,96.576c-0.009,0-0.026,0-0.036,0c-0.305-0.012-0.572-0.205-0.678-0.492
				c-0.096-0.266-0.1-0.588-0.076-0.957c-0.514,0.34-0.812,0.504-1.127,0.504c-0.29,0-0.576-0.193-0.718-0.453
				c-0.092,0.287-0.204,0.539-0.341,0.748c-0.235,0.359-0.55,0.412-0.716,0.412c-0.665,0-0.83-0.643-0.938-1.066
				c-0.044-0.172-0.143-0.557-0.232-0.697c-0.063-0.025-0.122-0.06-0.177-0.101c-0.172,0.118-0.473,0.384-0.668,0.556
				c-0.553,0.485-1.029,0.904-1.596,0.904c-0.185,0-0.809-0.063-1.048-0.859c-0.145-0.48,0.124-0.936,0.798-2.006
				c0.032-0.05,0.066-0.104,0.102-0.162c-0.47,0.074-0.909,0.143-1.214,0.143c-0.844,0-0.95-0.613-0.963-0.736
				c-0.059-0.563,0.174-0.703,1.991-1.793c0.4-0.24,0.954-0.572,1.268-0.779c-0.099-1.898,0.051-4.047,0.195-6.129
				c0.182-2.628,0.355-5.113,0.053-6.979c-1.333-1.529-2.806-2.87-4.232-4.168c-2.744-2.497-5.582-5.078-7.357-8.995
				c-2.445-5.394-3.578-11.994-3.188-18.584c0.031-0.546,0.068-1.095,0.105-1.646c0.172-2.543,0.352-5.172,0.011-7.518
				c-0.408-2.818-1.37-4.387-2.589-6.373c-0.418-0.681-0.85-1.385-1.297-2.196l-3.035-1.829c-0.225-0.136-0.361-0.379-0.362-0.641
				c0-0.263,0.136-0.506,0.359-0.643c3.91-2.382,4.794-3.814,3.128-8.711c-0.12-0.353,0.038-0.74,0.37-0.91
				c0.333-0.168,0.738-0.068,0.953,0.237c1.081,1.535,2.218,1.942,3.658,2.457c1.635,0.584,3.488,1.247,5.508,3.676
				c0.025,0.03,0.048,0.063,0.068,0.096c0.894,1.503,2.641,5.295,3.129,7.255c1.407,5.645,4.772,8.007,9.034,10.998
				c1.05,0.736,2.136,1.499,3.269,2.36c10.424,7.917,10.808,20.398,11.021,33.674c0.557-0.014,1.065-0.055,1.524-0.094
				c0.486-0.039,0.93-0.076,1.344-0.076c0.999,0,2.181,0.186,3.359,1.556c1.751,2.034,2.369,4.183,1.652,5.745
				c-0.341,0.742-1.307,1.99-3.942,1.99c-0.887,0-1.896-0.143-3.005-0.422c-1.334-0.338-2.225-1.812-3.354-3.676
				c-0.777-1.285-1.642-2.714-2.777-3.986c-1.557,3.699-3.93,13.912-4.32,16.293c0.045,0.201,0.201,0.709,0.318,1.09
				c0.521,1.703,0.611,2.035,0.347,2.422c-0.14,0.203-0.399,0.339-0.646,0.339c-0.413,0-0.709-0.278-1.358-0.892
				c-0.045-0.041-0.097-0.09-0.151-0.142C95.044,95.906,94.646,96.576,93.937,96.576z M92.687,80.523
				c-0.095,0.033-0.171,0.087-0.247,0.164c-1,1.027-0.896,4.896-0.813,8.004c0.053,1.984,0.102,3.801-0.065,5.196
				c0.172-0.285,0.413-0.644,0.736-1.117c0.297-0.437,0.736-1.08,0.848-1.327c-0.006-0.934,0.013-1.951,0.03-2.99
				C93.223,85.744,93.292,81.764,92.687,80.523z M93.91,93.063c0.337,0.005,0.673,0.269,0.77,0.592
				c0.011-0.009,0.021-0.017,0.032-0.024c0.247-0.182,0.596-0.196,0.886-0.043c-0.24-0.797-0.28-0.996-0.246-1.217
				c0.321-2.076,3.269-15.021,4.976-17.84c0.117-0.193,0.316-0.324,0.543-0.354c0.229-0.033,0.453,0.043,0.616,0.201
				c1.65,1.576,2.813,3.496,3.746,5.041c0.875,1.445,1.7,2.811,2.438,2.996c0.988,0.25,1.875,0.377,2.637,0.377
				c0.943,0,2.156-0.193,2.579-1.115c0.452-0.985-0.108-2.61-1.426-4.143c-1.076-1.25-2.01-1.082-3.442-0.961
				c-0.685,0.055-1.479,0.117-2.409,0.094c-0.4-0.012-0.722-0.336-0.728-0.737c-0.208-13.174-0.403-25.616-10.439-33.238
				c-1.11-0.845-2.185-1.599-3.223-2.327c-4.339-3.045-8.086-5.675-9.628-11.862c-0.438-1.758-2.071-5.334-2.933-6.8
				c-1.742-2.077-3.309-2.637-4.822-3.178c-0.779-0.278-1.573-0.563-2.347-1.046c0.631,3.498-0.605,5.284-3.444,7.184l2.172,1.309
				c0.114,0.069,0.208,0.168,0.272,0.285c0.463,0.854,0.917,1.593,1.354,2.308c1.257,2.049,2.342,3.817,2.795,6.942
				c0.362,2.503,0.179,5.213,0.001,7.834c-0.037,0.546-0.074,1.091-0.105,1.632c-0.375,6.353,0.71,12.701,3.057,17.877
				c1.646,3.635,4.248,6,7,8.505c1.508,1.372,3.068,2.792,4.496,4.457c0.086,0.102,0.144,0.223,0.168,0.354
				c0.382,2.068,0.198,4.73,0.002,7.551c-0.151,2.173-0.307,4.421-0.171,6.305c0.034,0.454-0.12,0.629-1.203,1.293
				c0.485,0.137,0.581,0.547,0.597,0.643c0.06,0.352-0.093,0.707-0.457,1.313c0.601-0.401,1.337-0.474,1.79-0.013
				c0.108,0.06,0.204,0.131,0.288,0.214c0.119-1.304,0.071-3.091,0.027-4.737c-0.104-3.913-0.204-7.609,1.238-9.09
				c0.422-0.434,0.964-0.662,1.567-0.662l0.153,0.004c0.183,0.012,0.354,0.09,0.485,0.219c1.159,1.16,1.189,4.277,1.104,9.276
				c-0.019,1.062-0.037,2.101-0.029,3.047C94.649,91.876,94.46,92.237,93.91,93.063z"/>
		</g>
		<path fill="#231F20" d="M75.545,21.783c-1.217,1.039-2.325-0.385-1.688-1.57c0.309-0.574,1.362-0.422,1.696-0.053
			C75.86,20.498,76.166,21.172,75.545,21.783z"/>
		<g>
			<path fill="#BE1E2D" d="M68.077,26.029c0,0-5.333,4.818-1.496,7.492c3.835,2.672,2.544-7.334,2.367-7.439
				C68.771,25.977,68.077,26.029,68.077,26.029z"/>
			<path fill="#231F20" d="M67.732,34.725L67.732,34.725c-0.496,0-1.013-0.192-1.581-0.588c-1.058-0.737-1.63-1.687-1.701-2.821
				c-0.179-2.824,2.988-5.721,3.124-5.843c0.123-0.111,0.28-0.179,0.445-0.191c0,0,0.2-0.016,0.426-0.016
				c0.426,0,0.683,0.05,0.887,0.172c0.805,0.48,0.878,5.604,0.403,7.319C69.288,34.384,68.399,34.725,67.732,34.725z M68.344,26.811
				c-0.875,0.866-2.499,2.825-2.397,4.412c0.042,0.664,0.391,1.215,1.063,1.684c0.398,0.277,0.624,0.318,0.723,0.318
				c0.018-0.01,0.131,0.001,0.252-0.162C68.789,31.99,68.558,28.233,68.344,26.811z"/>
		</g>
		<g>
			<g>
				<path fill="#FAAF40" d="M100.376,66.77c0,0,21.05-17.47,32.204,6.956C122.857,65.176,100.376,66.77,100.376,66.77z"/>
				<path fill="#231F20" d="M132.601,74.419c-0.008,0-0.015-0.002-0.02,0c-0.164,0-0.327-0.06-0.458-0.174
					c-6.829-6.004-20.147-6.9-27.479-6.9c-2.552,0-4.203,0.115-4.219,0.116c-0.298,0.015-0.58-0.153-0.692-0.434
					c-0.111-0.279-0.03-0.599,0.201-0.791c0.307-0.254,7.582-6.211,16.008-6.211c7.357,0,13.146,4.466,17.206,13.275
					c0.091,0.117,0.146,0.265,0.146,0.425C133.293,74.108,132.983,74.419,132.601,74.419z M104.645,65.959
					c6.758,0,18.492,0.759,26.008,5.479c-3.706-6.656-8.645-10.026-14.71-10.026c-5.519,0-10.656,2.834-13.288,4.571
					C103.229,65.969,103.897,65.959,104.645,65.959z"/>
			</g>
			<g>
				<path fill="#BE1E2D" d="M98.736,67.714c0,0,24.451-4.136,26.018,15.413C114.35,72.525,98.736,67.714,98.736,67.714z"/>
				<path fill="#231F20" d="M124.752,83.82c-0.183,0-0.361-0.072-0.495-0.208c-10.154-10.349-25.572-15.188-25.727-15.236
					c-0.307-0.095-0.508-0.388-0.486-0.708c0.021-0.32,0.259-0.584,0.576-0.638c0.311-0.049,25.071-4.104,26.809,15.875
					c0.023,0.07,0.036,0.146,0.036,0.222c0,0.387-0.317,0.733-0.702,0.693C124.76,83.82,124.756,83.82,124.752,83.82z M101.868,68.1
					c4.765,1.84,14.417,6.136,21.947,13.149C121.563,68.503,108.023,67.759,101.868,68.1z"/>
			</g>
			<g>
				<path fill="#FAAF40" d="M98.867,68.867c4.621,0.758,22.465,5.894,19.429,19.194C111.705,77.421,98.867,68.867,98.867,68.867z"/>
				<path fill="#231F20" d="M118.295,88.755c-0.237,0-0.461-0.123-0.589-0.328c-6.438-10.393-19.098-18.898-19.225-18.983
					c-0.271-0.181-0.38-0.526-0.26-0.83c0.12-0.304,0.432-0.488,0.757-0.43c0.128,0.021,12.933,2.201,18.231,10.084
					c1.997,2.97,2.589,6.317,1.761,9.948c-0.063,0.273-0.285,0.482-0.562,0.529C118.371,88.751,118.333,88.755,118.295,88.755z
					 M102.075,70.335c3.921,2.976,11.064,8.907,15.82,15.848c0.234-2.581-0.38-4.977-1.836-7.143
					C112.91,74.354,106.465,71.616,102.075,70.335z"/>
			</g>
			<g>
				<path fill="#5AB1AF" d="M98.449,69.166c4.322,2.4,20.601,13.804,15.192,25.552C109.256,82.064,98.449,69.166,98.449,69.166z"/>
				<path fill="#231F20" d="M113.642,95.412c-0.011,0-0.021,0-0.034,0c-0.282-0.015-0.527-0.199-0.621-0.467
					c-4.294-12.391-14.962-25.206-15.069-25.334c-0.214-0.256-0.216-0.629-0.003-0.887c0.211-0.257,0.577-0.329,0.871-0.164
					c2.401,1.333,7.513,4.819,11.437,9.427c5.047,5.927,6.447,11.813,4.05,17.021C114.158,95.255,113.912,95.412,113.642,95.412z
					 M101.502,71.949c3.262,4.351,8.906,12.505,12.137,20.763C115.904,84.427,107.444,76.205,101.502,71.949z"/>
			</g>
			<g>
				<path fill="#5AB1AF" d="M97.986,68.557c3.47,4.324,15.942,22.825,7.969,31.271C104.954,85.843,97.986,68.557,97.986,68.557z"/>
				<path fill="#231F20" d="M105.954,100.521c-0.078,0-0.157-0.014-0.233-0.041c-0.259-0.092-0.438-0.329-0.458-0.604
					c-0.979-13.717-7.85-30.891-7.919-31.063c-0.128-0.318-0.004-0.684,0.292-0.856c0.297-0.174,0.676-0.104,0.891,0.164
					c0.177,0.22,17.337,22.219,7.932,32.181C106.324,100.445,106.141,100.521,105.954,100.521z M100.413,73.142
					c2.016,5.794,5.137,15.843,6.074,24.854C110.496,91.446,104.91,80.05,100.413,73.142z"/>
			</g>
		</g>
		<g>
			<path fill="#7CCDCD" d="M84.315,43.561c0,0,8.701-0.781,11.188,10.102c2.48,10.879,3.635,18.252,1.26,20.277
				C94.899,75.529,80.468,67.365,84.315,43.561z"/>
			<path fill="#231F20" d="M96.093,74.88c-1.533,0-4.395-1.423-7.058-4.55c-3.078-3.616-7.881-11.917-5.461-26.89l0.092-0.572
				l0.581-0.055c0,0,0.162-0.016,0.448-0.016c1.52,0,9.212,0.516,11.536,10.697c2.71,11.88,3.675,18.747,1.017,21.015
				C96.96,74.755,96.571,74.88,96.093,74.88z M84.958,44.303c-2.096,13.982,2.352,21.686,5.219,25.055
				c2.496,2.931,4.953,4.023,5.916,4.023c0.146,0,0.201-0.026,0.201-0.026c2.151-1.838,0.541-10.472-1.524-19.525
				C92.837,45.364,87.073,44.372,84.958,44.303z"/>
		</g>
		<g>
			<path fill="#468885" d="M84.562,43.84c0,0,8.25-2.871,13.306,7.08c5.055,9.951,5.983,16.918,6.152,19.361
				C104.235,73.385,86.618,67.865,84.562,43.84z"/>
			<path fill="#231F20" d="M102.828,71.818c-4.893,0-17.313-8.032-19.014-27.915l-0.05-0.58l0.55-0.191
				c0.051-0.018,1.245-0.427,3-0.427c2.697,0,7.74,1.023,11.221,7.875c5.093,10.025,6.056,17.081,6.232,19.649
				c0.028,0.399-0.096,0.758-0.356,1.038C104.07,71.634,103.537,71.818,102.828,71.818z M85.367,44.404
				c1.911,19.416,14.266,25.914,17.46,25.914c0.226,0,0.365-0.03,0.438-0.056c-0.185-2.54-1.148-9.319-6.067-19.003
				c-2.963-5.83-7.01-7.055-9.884-7.055C86.49,44.205,85.81,44.311,85.367,44.404z"/>
		</g>
		<g>
			<path fill="#5AB1AF" d="M86.143,44.264c0,0,8.123-6.201,17.313,2.166c9.189,8.365,12.729,15.242,13.797,17.715
				C118.608,67.285,97.068,68.422,86.143,44.264z"/>
			<path fill="#231F20" d="M113.442,66.554c-6.701,0-20.136-4.63-27.982-21.981l-0.246-0.543l0.474-0.361
				c0.126-0.097,3.15-2.365,7.643-2.365c3.722,0,7.299,1.538,10.631,4.572c9.256,8.425,12.859,15.375,13.979,17.973
				c0.198,0.458,0.156,0.938-0.115,1.353C117.051,66.378,114.747,66.554,113.442,66.554z M87.094,44.536
				c7.563,16.178,20.081,20.518,26.349,20.518c2.274,0,3.061-0.546,3.133-0.681c-1.092-2.439-4.583-9.16-13.623-17.389
				c-3.049-2.775-6.285-4.182-9.622-4.182C90.347,42.803,88.057,43.956,87.094,44.536z"/>
		</g>
		<g>
			<path fill="#7CCDCD" d="M84.342,43.658c0,0,7.931-9.102,20.017-3.205c12.087,5.895,17.482,12.014,19.188,14.277
				C125.714,57.607,101.586,65.627,84.342,43.658z"/>
			<path fill="#231F20" d="M112.721,59.298c-6.37,0-18.604-1.972-28.969-15.177l-0.383-0.488l0.407-0.468
				c0.194-0.222,4.837-5.449,12.513-5.449c2.767,0,5.592,0.694,8.398,2.063c12.173,5.937,17.663,12.118,19.458,14.5
				c0.337,0.447,0.379,1.007,0.115,1.535C123.408,57.526,118.858,59.298,112.721,59.298z M85.342,43.71
				c9.882,12.242,21.365,14.088,27.379,14.088c6.34,0,10.072-1.999,10.213-2.69c-1.716-2.221-7.022-8.186-18.904-13.98
				c-2.6-1.269-5.204-1.911-7.74-1.911C90.573,39.216,86.61,42.499,85.342,43.71z"/>
		</g>
		<g>
			<g>
				<path fill="#5AB1AF" d="M118.533,55.957c-3.69,0-11.245-3.188-23.182-8.808l-2.372-1.114c-2.515-1.175-3.359-1.147-3.52-1.126
					c-0.291,0.155-0.661,0.106-0.899-0.146c-0.285-0.301-0.271-0.775,0.029-1.061c0.646-0.61,2.336-0.283,5.023,0.973l2.375,1.116
					c6.558,3.086,21.909,10.313,23.598,8.433c0.274-0.309,0.75-0.335,1.059-0.059c0.31,0.276,0.334,0.751,0.059,1.059
					C120.264,55.718,119.543,55.957,118.533,55.957z"/>
			</g>
			<g>
				<path fill="#5AB1AF" d="M92.324,45.555c-0.212,0-0.422-0.089-0.57-0.262c-0.27-0.314-0.233-0.787,0.081-1.058
					c0.166-0.142,4.091-3.478,8.36-2.858c0.41,0.059,0.695,0.438,0.638,0.849c-0.06,0.41-0.44,0.702-0.85,0.636
					c-3.591-0.509-7.137,2.483-7.172,2.513C92.67,45.495,92.497,45.555,92.324,45.555z"/>
			</g>
			<g>
				<path fill="#5AB1AF" d="M98.286,48.317c-0.187,0-0.372-0.068-0.518-0.207c-0.299-0.285-0.312-0.758-0.027-1.058
					c0.115-0.122,2.894-2.998,7.64-2.998c0.414,0,0.75,0.336,0.75,0.75c0,0.414-0.336,0.75-0.75,0.75
					c-4.079,0-6.528,2.506-6.553,2.531C98.681,48.239,98.483,48.317,98.286,48.317z"/>
			</g>
			<g>
				<path fill="#5AB1AF" d="M104.462,50.639c-0.171,0-0.344-0.059-0.485-0.179c-0.314-0.269-0.354-0.741-0.085-1.057
					c0.115-0.135,2.863-3.296,6.726-2.731c0.409,0.061,0.692,0.442,0.632,0.852c-0.062,0.41-0.443,0.687-0.853,0.633
					c-3.056-0.459-5.34,2.191-5.362,2.218C104.885,50.549,104.674,50.639,104.462,50.639z"/>
			</g>
			<g>
				<path fill="#5AB1AF" d="M109.298,52.893c-0.237,0-0.47-0.112-0.616-0.321c-0.237-0.34-0.153-0.807,0.187-1.044
					c2.677-1.866,5.544-1.188,6.093-1.032c0.397,0.113,0.63,0.527,0.517,0.926c-0.112,0.398-0.527,0.632-0.926,0.518
					c-0.265-0.075-2.659-0.691-4.825,0.819C109.596,52.849,109.446,52.893,109.298,52.893z"/>
			</g>
		</g>
	</g>
</g>
</svg>
