<?xml version="1.0" encoding="utf-8"?>
<!-- Generator: Adobe Illustrator 16.0.0, SVG Export Plug-In . SVG Version: 6.00 Build 0)  -->
<!DOCTYPE svg PUBLIC "-//W3C//DTD SVG 1.1//EN" "http://www.w3.org/Graphics/SVG/1.1/DTD/svg11.dtd">
<svg version="1.1" id="Layer_1" xmlns="http://www.w3.org/2000/svg" xmlns:xlink="http://www.w3.org/1999/xlink" x="0px" y="0px"
	 width="192.834px" height="151.549px" viewBox="0 0 192.834 151.549" enable-background="new 0 0 192.834 151.549"
	 xml:space="preserve">
<g>
	<path fill="#999999" d="M184.739,81.048c-1.973-0.158-4.637-0.484-8.297-0.957c-0.299-0.038-0.598-0.058-0.896-0.058
		c-0.329,0-0.658,0.118-0.986,0.165l-0.504,0.166h-1.164c-0.598,0-1.213-0.07-1.863-0.023c-0.367-0.047-0.743-0.119-1.125-0.119
		c-0.666,0-1.291,0.047-1.872,0.174c-3.438,0.179-7.193,0.564-11.435,1.198c-2.461,0.157-4.598,0.952-6.281,2.261
		c-1.868-0.102-3.828-0.244-5.943-0.428c-0.201-0.018-0.402-0.027-0.604-0.027c-0.729,0-1.41,0.041-2.051,0.123
		c-1.193-0.207-2.929-0.426-5.576-0.633c-0.184-0.016-0.365,0.156-0.547,0.156c-0.472,0-0.938,0.318-1.393,0.318
		c-0.118,0-0.248,0-0.393,0c-0.713,0-1.422-0.068-2.103,0.145c-1.331,0.42-2.501,0.822-3.519,1.381
		c-0.152-0.076-0.295-0.201-0.457-0.275c-0.826-0.381-1.721-0.617-2.631-0.656c-2.006-0.084-4.113-0.229-6.383-0.411l1.032,0.009
		l-0.504-0.68c2.346-0.25,4.619-0.827,6.765-1.715l1.571-0.725c0.837-0.418,1.651-0.884,2.438-1.396l1.59-1.132
		c0.837-0.646,1.642-1.345,2.402-2.105c0.75-0.751,1.422-1.551,2.057-2.37l3.137-5.319c0.447-1.045,0.822-2.112,1.12-3.199
		l0.834-7.907c-0.319-5.858-2.685-11.624-7.147-16.09c-4.658-4.658-10.853-7.224-17.439-7.224c-6.59,0-12.784,2.566-17.444,7.226
		c-2.71,2.709-4.688,5.942-5.884,9.425l-1.305,6.874c-0.049,1.089-0.035,2.184,0.062,3.279l-2.212,1.549l-1.933,1.354l-0.409,0.286
		c-0.315,0.221-0.605,0.468-0.874,0.73l-4.069-9.988l0.106-0.313l-0.206,0.07l-4.193-10.292c7.422-6.81,10.192-17.833,6.246-27.523
		C80.655,7.032,71.685,1,61.605,1c-3.193,0-6.321,0.614-9.299,1.827C49.25,4.073,46.582,5.869,44.36,8.05
		c-2.892,2.221-5.186,5.147-6.639,8.599C32.132,29.921,38.383,45.27,51.656,50.86c3.888,1.637,7.975,2.478,12.068,2.529
		l10.698,26.266c0.833,2.053,2.394,3.635,4.314,4.518l-4.774,4.775c-0.247-0.504-0.486-0.924-0.717-1.29
		c-2.455-3.97-7.296-4.698-10.346-4.832c0.221-0.548,0.394-1.118,0.479-1.72c0.017-0.119,0.03-0.24,0.041-0.361l0.114-1.295
		c0.019-0.204,0.027-0.41,0.027-0.615c0-1.611-0.467-3.091-1.272-4.309c0.008-0.071,0.015-0.143,0.02-0.214l0.063-0.31
		c0.036-0.289,0.078-0.58,0.078-0.871v-0.182c0-0.667-0.084-1.291-0.197-1.873c0.448-0.852,0.73-1.812,0.832-2.847
		c0.021-0.229,0.028-0.458,0.028-0.688c0-0.701-0.005-1.294-0.032-1.914c-0.027-0.646-0.146-1.285-0.349-1.898
		c-0.777-2.348-2.593-4.089-4.98-4.776c-0.491-0.143-0.997-0.364-1.509-0.396c-0.678-0.041-2.886-0.193-3.021-0.193H51.38
		c-0.846,0-1.658,0.277-2.425,0.529c-0.859-0.334-1.741-0.481-2.601-0.559c-0.209-0.019-0.42,0.029-0.63,0.029h-2.158
		c-0.413,0-0.935,0.012-1.524,0.049c-0.878-0.363-1.878-0.58-3.003-0.601l-0.501-0.018c-0.088-0.002-0.177-0.023-0.266-0.023
		c-2.013,0-3.64,0.593-4.866,1.593H33.32c-0.415,0-0.829,0.059-1.238,0.131c-0.048,0.01-0.096,0.028-0.144,0.038
		c-0.592-0.18-1.211-0.283-1.846-0.309l-1.278-0.063c-0.118-0.006-0.261-0.007-0.38-0.007c-0.772,0-1.563,0.127-2.329,0.372
		c-1.303-0.569-2.742-0.895-4.258-0.895c-1.26,0-2.447,0.101-3.543,0.476c-0.913-0.41-1.92-0.744-2.978-0.744h-1.613
		c-0.598,0-1.201,0.077-1.792,0.229c-0.589-0.15-1.2-0.229-1.82-0.229H8.898c-4.457,0-7.448,3.553-7.448,7.996v1.704
		c0,0.18-0.19,0.379-0.194,0.593C1.25,69.005,1.15,69.38,1.15,69.769c0,2.87,0.547,6.423,3.004,8.83c0,0,0.046,2.328,0.05,2.387
		c0.027,0.518,0.096,1.018,0.218,1.498c-2.053,1.923-3.359,4.695-3.359,7.785c0,1.719,0.344,3.141,0.849,4.313
		c-0.101,0.268-0.163,0.542-0.235,0.824c-0.219,0.879-0.226,1.843-0.226,2.34v0.84c0,5.887,4.151,10.158,9.905,10.158
		c1.375,0,2.737-0.258,4.012-0.768c1.408,0.697,3.125,1.131,5.215,1.131c2.014,0,4.228-0.431,6.093-1.801
		c0.308,1.098,0.66,2.084,1.07,2.948c0.021,0.045,0.042,0.091,0.066,0.136c1.855,3.707,3.471,6.435,5.035,8.32
		c0.283,0.943,0.628,1.654,1.041,2.654h-1.146c-4.894,0-8.77,2.596-10.801,7.242c-0.387,0.885-0.491,1.767-0.491,2.73v0.566
		c0,4.897,1.894,9.475,5.812,13.603c0.207,0.22,0.382,0.703,0.616,0.894c3.88,3.151,7.448,4.965,11.005,4.965h0.83
		c2.939,0,5.52-0.928,7.706-2.211c1.415-0.203,2.806-0.899,4.151-1.799c0.211-0.142,0.413-0.362,0.606-0.524
		c0.086-0.037,0.252-0.138,0.519-0.21c1.693-0.469,3.118-1.569,4.037-3.016c2.28,3.397,5.903,5.332,10.238,5.332
		c0.913,0,2.479-0.108,6.526-0.895c1.687-0.154,3.745-0.786,5.804-2.512c0.838,0.633,1.805,1.248,2.917,1.623
		c2.154,2.078,4.553,3.209,7.157,3.209h0.332c4.188,0,7.747-1.62,10.206-4.403c0.471,0.483,1.01,0.865,1.61,1.2
		c2.688,1.499,6.092,2.178,10.713,2.178c1.011,0,2.1-0.045,3.238-0.113c0.184,0.002,0.545-0.003,0.547-0.003
		c4.951,0,8.894-0.858,11.797-2.563c0.229,0.166,0.465,0.323,0.714,0.462c2.688,1.5,6.092,2.197,10.713,2.197
		c1.012,0,2.101-0.035,3.239-0.104c0.183,0.002,0.545,0.003,0.545,0.003c6.688,0,11.527-1.568,14.465-4.663
		c0.462,1.192,1.015,2.206,1.671,3.069c1.942,2.605,5.108,3.926,9.411,3.926c0.207,0,0.414-0.009,0.619-0.027
		c4.244-0.377,14.181-1.261,14.181-9.522c0-0.995-0.153-2.162-0.908-5.101c0.062-0.453,0.448-1.139,0.61-2.158
		c0.058-0.363,0.373-0.73,0.373-1.1v-0.283c0-1.506-0.52-3.1-0.979-4.758c0.019-0.207-0.115-0.416-0.115-0.625
		c0-0.336,0.197-0.608,0.078-2.654l0.016-3.495v-0.349c0-0.08-0.262-0.555-0.03-2.098c0.054-0.344-0.063-0.689-0.063-1.038
		c0-0.667-0.141-1.438-0.451-3.08c0.018-0.082,0-0.167,0.02-0.257c0.156-0.725,0.18-1.468,0.104-2.205l-0.578-5.468l0.188-1.226
		c0.155-0.99,0.094-2.004-0.177-2.969c-0.091-0.324-0.194-0.646-0.31-0.962c0.021-0.153,0.037-0.309,0.05-0.463
		c0.875-0.133,1.753-0.315,2.628-0.551c0.084-0.022,0.168-0.046,0.251-0.072c8.124-2.502,8.756-8.789,8.756-10.655
		c0-3.301-2.01-5.692-3.76-7.408C187.905,81.88,186.372,81.181,184.739,81.048z M83.03,103.826
		c-0.008,0.073-0.016,0.146-0.023,0.223c-0.09-0.003-0.18-0.004-0.271-0.004h-0.002C82.833,103.974,82.932,103.901,83.03,103.826z
		 M122.399,129.828c-0.158,0-0.516,0.006-0.674,0.017c-0.043-0.714-0.274-1.66-0.274-2.896V126l0.327-1.231
		c0.123-1.182,0.041-2.367-0.416-3.449c0.111-1.215,0.228-2.037,0.255-2.663c0.401-0.05,0.815-0.125,1.202-0.209
		c0.17,1.796,0.371,3.053,0.537,3.917c-0.172,1.914-0.248,3.436-0.248,4.725c0,0.913,0.033,1.834,0.078,2.76
		C122.929,129.836,122.67,129.828,122.399,129.828z M51.068,99.717c0.01,0.293,0.019,0.595,0.028,0.882
		c-0.087-0.145-0.155-0.266-0.204-0.358C50.918,100.065,50.981,99.894,51.068,99.717z M149.408,129.828
		c-0.158,0-0.019,0.006-0.177,0.017c-0.045-0.714,0.22-1.66,0.22-2.896V126l-0.169-1.231c0.123-1.182-0.205-2.367-0.662-3.449
		c0.111-1.215,0.102-2.037,0.129-2.663c2.629-0.317,4.848-1.403,6.555-3.109l-0.115,0.705c-0.123,0.894-0.158,1.802,0.063,2.675
		c0.129,0.512,0.199,1.438,0.199,2.957v2.691c0,0.271,0.091,0.545,0.124,0.814l0.053,0.137c-0.096,0.511-0.148,1.061-0.193,1.654
		c-0.012,0.17-0.009,0.34-0.009,0.51c0,0.729,0.036,1.281,0.104,1.793c0.021,0.143,0.046,0.283,0.072,0.423
		c0.004,0.403,0.012,0.788,0.02,1.177C154.101,130.326,152.086,129.828,149.408,129.828z"/>
	<path fill="#999999" d="M112.737,14.92l-0.383,0.381l-0.383-0.381c-1.388-1.389-3.64-1.389-5.027,0l-0.051,0.051
		c-1.39,1.391-1.391,3.641,0,5.029l0.381,0.381l5.08,5.082l5.08-5.082L117.815,20c1.391-1.389,1.391-3.639,0-5.029l-0.051-0.051
		C116.375,13.531,114.125,13.531,112.737,14.92z"/>
	<g>
		<g>
			<path fill="#FFFFFF" d="M11.612,87.106c-0.255,0-0.524-0.012-0.762-0.022l0.08-0.001h-0.228c-4.102,0-7.361-3.051-7.581-7.098
				c-0.003-0.059-0.072-2.396-0.072-2.396C1.368,75.939,0,73.226,0,68.769c0-0.39,0.007-0.764,0.014-1.111
				c0.004-0.214,0.009-0.413,0.009-0.593V65.36c0-4.443,3.361-7.795,7.818-7.795h1.204c0.621,0,1.231,0.079,1.82,0.229
				c0.591-0.152,1.195-0.229,1.792-0.229h1.613c3.757,0,6.905,2.855,7.321,6.643c0.024,0.217,0.038,0.435,0.041,0.653
				c0.063,0.886,0.092,1.818,0.092,2.907c0,1.179-0.035,2.264-0.107,3.317c-0.079,1.193-0.465,3.512-2.156,5.484
				c0.003,0.066,0.005,0.133,0.008,0.197c0.038,0.91,0.074,1.814,0.074,2.726v0.317c0,1.174-0.295,2.328-0.858,3.357
				C18.038,84.354,16.053,87.106,11.612,87.106z"/>
			<path fill="#FFFFFF" d="M20.904,87.106c-6.016,0-9.074-3.539-9.948-6.894c-0.607-2.252-0.732-5.363-0.732-9.332
				c0-11.957,7.39-13.248,10.567-13.248c5.479,0,10.024,4.133,10.349,9.41c0.071,1.208,0.104,2.436,0.104,3.883
				c0,1.007-0.02,2.024-0.041,3.066l-0.028,1.498c-0.001,0.151-0.007,0.345-0.016,0.475C30.536,85.174,25.239,87.106,20.904,87.106z
				"/>
			<path fill="#FFFFFF" d="M30.56,86.879c-4.04,0-10.817-1.821-10.817-14.021v-6.407c0-0.104,0.002-0.301,0.007-0.405
				c0.243-5.428,4.125-7.891,7.629-7.891c0.119,0,0.261,0.003,0.38,0.009l1.278,0.065c0.635,0.025,1.254,0.134,1.845,0.313
				c0.039-0.008,0.079-0.016,0.118-0.022c0.417-0.077,0.84-0.115,1.264-0.115h1.067c4.457,0,7.818,3.264,7.818,7.592
				c0,0.235-0.012,0.47-0.036,0.704c-0.019,0.274-0.01,0.692-0.01,1.159v1.635c-0.027,3.575-0.099,6.475-0.742,9.066
				C38.447,86.278,32.375,86.879,30.56,86.879z"/>
			<path fill="#FFFFFF" d="M37.238,75.95c-1.241,0-3.049-0.312-4.75-1.759c-1.597-1.262-2.573-3.164-2.654-5.216l-0.182-4.611
				c-0.003-0.092-0.005-0.184-0.005-0.275c0-3.572,2.652-7.296,7.568-7.296c0.089,0,0.177,0.002,0.266,0.005l0.5,0.02
				c4.406,0.081,6.938,3.213,7.431,6.126c0.105,0.622,0.126,1.257,0.062,1.885c-0.115,1.11-0.173,1.944-0.218,2.57
				C44.729,74.839,40.006,75.95,37.238,75.95z"/>
			<path fill="#FFFFFF" d="M45.6,86.515c-0.535,0-1.083-0.062-1.627-0.188c-0.534,0.123-1.092,0.188-1.668,0.188h-1.59
				c-3.592,0-7.409-2.771-7.409-7.908c0-0.051,0.296-13.648,0.296-13.648c0.004-0.167,0.014-0.334,0.029-0.5
				c0.36-3.87,2.958-5.997,5.27-6.701c0.382-0.116,0.774-0.2,1.17-0.249c0.979-0.123,1.822-0.123,2.438-0.123h2.158
				c0.208,0,0.416,0.009,0.622,0.027c3.801,0.34,8.074,3.018,8.667,9.518c0.019,0.211,0.029,0.424,0.029,0.636
				c0,2.075-0.042,3.553-0.125,4.391c-0.03,0.301-0.079,0.599-0.147,0.893c-0.098,0.421-0.216,0.813-0.35,1.18
				c0.569,1.811,0.849,3.461,0.849,4.988c0,0.676-0.214,6.627-7.645,7.433c0.032-0.004,0.112-0.019,0.17-0.026
				C46.362,86.483,45.981,86.515,45.6,86.515z"/>
			<path fill="#FFFFFF" d="M50.256,86.675c-2.372,0-6.577-1.458-7.295-6.923c-0.105-0.805-0.227-2.19-0.227-5.804
				c0-0.703-0.005-1.406-0.011-2.115c-0.006-0.757-0.012-1.519-0.012-2.292c0-1.578,0.023-3.153,0.071-4.814
				c0.024-0.824,0.193-1.638,0.5-2.402c1.143-2.85,3.907-4.69,7.042-4.69h1.841c0.142,0,2.342,0.017,3.022,0.059
				c0.497,0.03,0.99,0.114,1.469,0.25c2.412,0.681,4.242,2.431,5.021,4.801c0.2,0.61,0.315,1.244,0.343,1.885
				c0.026,0.62,0.029,1.213,0.029,1.914c0,0.23-0.011,0.461-0.034,0.69c-0.103,1.034-0.396,1.993-0.844,2.844
				c0.113,0.582,0.174,1.206,0.174,1.873v0.183c0,0.291-0.018,0.582-0.054,0.871l-0.039,0.31c-0.006,0.071-0.012,0.143-0.02,0.213
				c0.806,1.218,1.272,2.697,1.272,4.309c0,0.205-0.009,0.411-0.027,0.615l-0.114,1.295c-0.011,0.121-0.025,0.242-0.042,0.361
				c-0.409,2.897-2.502,5.298-5.333,6.113c-0.545,0.156-1.107,0.247-1.674,0.27l-4.794,0.182
				C50.433,86.673,50.344,86.675,50.256,86.675z"/>
			<path fill="#FFFFFF" d="M10.271,107.743c-5.754,0-9.931-4.271-9.931-10.158v-0.842c0-0.496,0.032-1.46,0.25-2.34
				c0.073-0.281,0.161-0.557,0.261-0.823C0.347,92.408,0,90.985,0,89.269c0-5.789,4.536-10.498,10.112-10.498
				c5.584,0,9.795,4.278,9.795,9.953c0,1.318-0.228,2.476-0.623,3.474c0.423,1.065,0.77,2.274,0.976,3.64
				c0.052,0.346,0.078,0.694,0.078,1.044v0.25C20.339,104.462,15.283,107.743,10.271,107.743z"/>
			<path fill="#FFFFFF" d="M19.519,108.106c-6.014,0-9.073-3.537-9.948-6.892c-0.607-2.25-0.733-5.362-0.733-9.334
				c0-11.957,7.39-13.248,10.567-13.248c5.479,0,10.024,4.134,10.349,9.41c0.071,1.208,0.104,2.437,0.104,3.883
				c0,1.007-0.02,2.024-0.041,3.066l-0.028,1.498c-0.001,0.151-0.007,0.345-0.016,0.475
				C29.15,106.174,23.853,108.106,19.519,108.106z"/>
		</g>
		<g>
			<path fill="#282D33" d="M7.022,65.36c0-0.727,0.387-0.795,0.818-0.795h1.204c0.159,0,0.318,0.113,0.409,0.272v0.454
				c0,0.978-0.114,1.932-0.114,2.932v0.658c0,0.773,0.046,2.113,0.796,2.113c0.613,0,1.272-0.113,1.886-0.137
				c0.182-0.068,0.295-0.295,0.295-1.59c0-1.25-0.045-2.477-0.045-3.703v-0.092c0-0.386,0-0.908,0.386-0.908h1.613
				c0.204,0,0.341,0.204,0.363,0.408v0.16c0.068,0.863,0.091,1.727,0.091,2.635c0,0.909-0.022,1.841-0.091,2.84
				c-0.159,2.408-2.021,1.705-2.227,2.545v1.408c0,1.682,0.137,3.294,0.137,4.932v0.317c-0.137,0.25-0.522,0.295-0.932,0.295
				c-0.25,0-0.522-0.022-0.682-0.022h-0.228c-0.295,0-0.567-0.045-0.591-0.478l-0.182-6.248c-0.022-0.342-1.136-0.296-1.431-0.409
				C7.182,72.381,7,70.45,7,68.769c0-0.637,0.022-1.227,0.022-1.704V65.36z"/>
			<path fill="#282D33" d="M17.224,70.882c0-2.863,0.113-6.248,3.567-6.248c1.545,0,3.249,1,3.362,2.84
				c0.068,1.158,0.091,2.295,0.091,3.453c0,1.454-0.045,2.932-0.068,4.477c0,0.068,0,0.09,0,0.09
				c-0.182,2.682-0.341,4.612-3.271,4.612c-1.091,0-2.817-0.205-3.181-1.682C17.27,76.788,17.224,73.427,17.224,70.882z
				 M20.791,77.812c0.386,0,0.772-0.228,0.886-0.795c0.113-2.341,0.182-5.521,0.182-7.815v-1.182c-0.068-0.658-0.272-1-1.113-1
				c-1.045,0-1.067,0.705-1.067,1.409V68.7c0,4.59,0,6.566,0.067,8.361C19.813,77.47,20.313,77.812,20.791,77.812z"/>
			<path fill="#282D33" d="M26.742,66.36c0.022-0.5,0.045-1.205,0.636-1.205h0.023l1.34,0.068c0.137,0,0.364,0.114,0.387,0.25v1.25
				c0,0.432-0.022,0.863-0.022,1.795v2.136c0,3.044,0.091,6.726,1.227,6.726c0.478,0,0.909-0.455,1-0.955
				c0.317-1.136,0.25-2.066,0.432-10.564c0-0.295,0.25-0.409,0.5-0.455h1.067c0.409,0,0.818,0.068,0.818,0.592
				c-0.046,0.454-0.046,1.113-0.046,1.863v1.635C34.059,75.336,33.9,79.88,30.56,79.88c-3.613,0-3.817-3.704-3.817-7.021v-6.407
				L26.742,66.36L26.742,66.36z"/>
			<path fill="#282D33" d="M37.807,63.815c0.317,0,0.658,0.023,0.704,0.295c-0.478,4.635-0.068,4.84-1.272,4.84
				c-0.182,0-0.205-0.113-0.409-0.25l-0.182-4.611v-0.068c0-0.205,0.318-0.228,0.568-0.228L37.807,63.815z"/>
			<path fill="#282D33" d="M40.601,65.11c0.023-0.25,0.046-0.568,0.341-0.658c0.546-0.068,1.068-0.068,1.568-0.068h2.158
				c1.772,0.158,2.181,1.682,2.317,3.181c0,2.59-0.068,3.476-0.091,3.703c-0.295,1.272-1.136,1.386-1.432,1.772
				c0,0.022,0,0.068,0.023,0.091c0.59,1.249,1.727,3.841,1.727,5.886c0,0.385-1.341,0.453-1.613,0.498
				c-0.363,0-0.409-0.545-0.478-0.84c0-0.908-0.999-4.953-1.999-4.953c-0.159,0-0.432,0.022-0.478,0.205v2.477
				c0,0.886-0.022,1.748-0.022,2.636c0,0.272-0.022,0.478-0.318,0.478h-1.59c-0.409,0-0.409-0.591-0.409-0.908L40.601,65.11z
				 M42.827,71.358c0,0.295,0.296,0.387,0.568,0.387c0.613,0,1.022-0.092,1.182-0.727c0.091-0.955,0.091-1.546,0.091-2.455V67.45
				c-0.113-0.477-0.454-0.727-0.932-0.727c-0.5,0-0.795,0.182-0.841,0.682L42.827,71.358z"/>
			<path fill="#282D33" d="M50.324,64.634h1.841c0.386,0,2.227,0.022,2.59,0.045c0.159,0.045,0.228,0.113,0.272,0.25
				c0.022,0.522,0.022,1.022,0.022,1.613c-0.022,0.227-0.045,0.432-0.432,0.432h-2.453l-0.205,0.205l0.137,3.748l1.908,0.068
				c0.272,0.023,0.341,0.477,0.341,0.954v0.183l-0.068,0.545c0,0.182-0.045,0.477-0.317,0.477h-1.728
				c-0.022,0-0.067,0.046-0.113,0.068l-0.068,0.068l0.114,3.498c0.045,0.25,0.159,0.434,0.454,0.434h2.431
				c0.387,0,0.455,0.295,0.455,0.612l-0.114,1.295c-0.022,0.159-0.182,0.318-0.341,0.364l-4.794,0.182
				c-0.25,0-0.522-0.318-0.522-5.727c0-1.453-0.022-2.908-0.022-4.407s0.022-3.022,0.068-4.612
				C49.87,64.702,50.097,64.634,50.324,64.634z"/>
			<path fill="#282D33" d="M7.341,96.743c0-0.113,0.022-0.567,0.045-0.658C7.409,95.994,7.5,95.79,7.613,95.79H8
				c0.272,0,0.545,0,0.932,0.021c0.863,0.137,0,2.862,1.113,2.977c0.158,0.023,0.317,0.023,0.454,0.023
				c0.659,0,0.727-0.25,0.727-0.818v-0.521c0-0.16-0.022-0.297-0.045-0.479C10.499,92.245,7,92.836,7,89.269
				c0-1.771,1.317-3.498,3.112-3.498c2.363,0,2.795,1.886,2.795,2.953c0,0.568,0,1.204-0.591,1.25c-0.068,0-0.568,0.067-0.817,0.067
				h-0.114c-0.068,0-0.386-0.067-0.386-0.183c-0.114-1.612-0.5-1.816-0.772-1.816c-0.728,0-1.137,0.5-1.137,1.25
				c0,1.566,3.522,2.771,4.249,7.588v0.25c0,2.658-1.091,3.613-3.067,3.613c-1.749,0-2.931-0.979-2.931-3.158V96.743z"/>
			<path fill="#282D33" d="M15.838,91.882c0-2.863,0.113-6.248,3.567-6.248c1.545,0,3.249,1,3.362,2.84
				c0.068,1.158,0.091,2.295,0.091,3.453c0,1.454-0.045,2.932-0.068,4.477c0,0.068,0,0.091,0,0.091
				c-0.182,2.682-0.341,4.612-3.271,4.612c-1.091,0-2.817-0.205-3.181-1.682C15.883,97.788,15.838,94.427,15.838,91.882z
				 M19.405,98.812c0.386,0,0.772-0.228,0.886-0.795c0.113-2.341,0.182-5.521,0.182-7.815v-1.183c-0.068-0.658-0.272-1-1.113-1
				c-1.045,0-1.067,0.705-1.067,1.409V89.7c0,4.59,0,6.566,0.067,8.361C18.428,98.47,18.928,98.812,19.405,98.812z"/>
		</g>
	</g>
	<g>
		<path fill="#FFFFFF" d="M81.299,83.956c-3.477,0-6.568-2.081-7.876-5.303l-11.95-29.337c-0.288,0.01-0.576,0.016-0.864,0.016
			c-10.077,0-19.042-6.027-22.84-15.354C32.638,21.384,38.71,6.961,51.305,1.828C54.284,0.614,57.412,0,60.605,0
			c10.08,0,19.049,6.032,22.852,15.367c3.947,9.69,1.176,20.714-6.246,27.523l11.961,29.357c1.76,4.352-0.335,9.313-4.664,11.079
			C83.482,83.745,82.403,83.956,81.299,83.956C81.3,83.956,81.3,83.956,81.299,83.956z"/>
		<path fill="#FFFFFF" d="M82.69,74.89L68.637,40.398c8.098-4.123,11.826-13.824,8.337-22.391C73.293,8.971,62.984,4.63,53.948,8.31
			c-9.035,3.683-13.376,13.991-9.695,23.028c3.488,8.566,12.935,12.899,21.607,10.191l14.05,34.492
			c0.312,0.768,1.188,1.136,1.956,0.823C82.632,76.532,83,75.657,82.69,74.89z"/>
	</g>
	<g>
		<path fill="#FFFFFF" d="M76.797,104.634c-2.272,0-4.408-0.886-6.014-2.494c-3.31-3.31-3.31-8.701,0.004-12.016l15.844-15.847
			c-1.439-0.941-2.516-2.403-2.956-4.145c-0.711-2.817,0.392-5.781,2.772-7.448l4.554-3.188c-0.634-7.181,1.899-14.35,7.128-19.578
			c4.66-4.659,10.854-7.226,17.444-7.226c6.588,0,12.781,2.565,17.439,7.224c9.617,9.619,9.616,25.269,0,34.886
			c-4.652,4.653-10.842,7.217-17.427,7.217h-0.001c-0.718,0-1.436-0.031-2.146-0.094l-3.194,4.561
			c-1.33,1.898-3.486,2.984-5.734,2.984c-0.569,0-1.145-0.068-1.714-0.213c-1.742-0.439-3.203-1.517-4.145-2.956l-15.844,15.845
			C81.202,103.75,79.067,104.634,76.797,104.634z"/>
		<path fill="#FFFFFF" d="M128.063,44.866c-6.898-6.898-18.084-6.898-24.984,0.002c-4.809,4.809-6.255,11.697-4.359,17.77
			l-8.257,5.781l5.106,0.596l-1.09,5.264l2.588-0.537L75.737,95.074c-0.586,0.586-0.586,1.534,0,2.12
			c0.585,0.587,1.535,0.587,2.121,0l21.327-21.325l-0.533,2.58l5.263-1.089l0.597,5.109l5.783-8.258
			c6.071,1.896,12.961,0.449,17.77-4.359C134.962,62.952,134.962,51.767,128.063,44.866z"/>
	</g>
	<g>
		<path fill="#F2EFDC" d="M83.46,74.89c0.312,0.768-0.058,1.643-0.823,1.955l0,0c-0.768,0.313-1.644-0.056-1.956-0.823L66.22,40.521
			c-0.313-0.768,0.057-1.644,0.823-1.955l0,0c0.767-0.313,1.643,0.056,1.955,0.823L83.46,74.89z"/>
		<circle fill="#DBB8CA" cx="61.385" cy="24.673" r="17.666"/>
		<g>
			<g>
				<circle id="SVGID_1_" fill="#FAAF40" cx="61.385" cy="24.673" r="17.666"/>
			</g>
			<g>
				<defs>
					<circle id="SVGID_2_" cx="61.385" cy="24.673" r="17.666"/>
				</defs>
				<clipPath id="SVGID_4_">
					<use xlink:href="#SVGID_2_"  overflow="visible"/>
				</clipPath>
				<g clip-path="url(#SVGID_4_)">
					<path fill="#F9C989" d="M50.657,49.859c-13.273-5.59-19.524-20.938-13.935-34.211c2.208-5.242,6.326-9.313,11.594-11.458
						c5.268-2.147,11.056-2.113,16.297,0.095h0.002c8.861,3.732,13.034,13.978,9.303,22.839
						c-3.071,7.292-11.502,10.727-18.794,7.655c-2.925-1.231-5.195-3.529-6.391-6.468c-1.198-2.938-1.179-6.168,0.054-9.093
						c1.025-2.438,2.939-4.329,5.39-5.327c2.449-0.998,5.141-0.982,7.578,0.045h0.002c4.229,1.781,6.222,6.67,4.44,10.9
						c-0.73,1.737-2.096,3.087-3.842,3.799c-1.745,0.71-3.664,0.699-5.401-0.032c-1.019-0.429-1.496-1.602-1.068-2.62
						c0.429-1.017,1.602-1.495,2.619-1.066c0.754,0.316,1.586,0.321,2.341,0.015c0.757-0.309,1.348-0.893,1.665-1.646
						c0.925-2.198-0.109-4.737-2.307-5.663l0,0c-1.454-0.612-3.059-0.623-4.518-0.027c-1.461,0.595-2.604,1.723-3.214,3.176
						c-0.817,1.94-0.83,4.082-0.036,6.031c0.795,1.949,2.299,3.473,4.24,4.29c5.26,2.215,11.34-0.262,13.555-5.521
						c2.875-6.827-0.342-14.724-7.169-17.6c0,0-0.001,0-0.002-0.001c-4.257-1.792-8.957-1.82-13.236-0.076
						c-4.278,1.744-7.622,5.049-9.415,9.306c-4.734,11.241,0.56,24.238,11.8,28.973c6.93,2.918,14.583,2.964,21.547,0.126
						c6.963-2.837,12.404-8.215,15.322-15.145c0.43-1.021,1.602-1.496,2.619-1.067c1.019,0.429,1.496,1.601,1.067,2.619
						c-3.332,7.916-9.548,14.057-17.5,17.297C67.311,53.242,58.573,53.192,50.657,49.859z"/>
				</g>
			</g>
		</g>
	</g>
	<g>
		<g>
			<path fill="#FFFFFF" d="M37.826,149.806c-3.557,0-7.171-1.531-11.051-4.684c-0.235-0.189-0.458-0.396-0.666-0.616
				c-3.918-4.129-5.904-8.705-5.904-13.601v-0.566c0-0.965,0.199-1.919,0.585-2.803c2.031-4.648,6.002-7.314,10.895-7.314h1.146
				c-0.412-0.781-0.758-1.64-1.042-2.582c-1.565-1.888-3.181-4.543-5.037-8.252c-0.022-0.044-0.044-0.089-0.065-0.134
				c-1.2-2.53-1.958-6.022-2.315-10.679c-0.014-0.18-0.021-0.357-0.021-0.536c0-2.976,0.895-7.22,5.004-11.024
				c0.716-1.043,1.308-1.771,1.709-2.229c0.128-0.146,0.263-0.287,0.403-0.423c1.939-1.872,4.647-2.78,10.732-3.602
				c0.31-0.042,0.623-0.063,0.935-0.063c11.289,0,12.975,5.539,12.975,8.842v0.283c0,1.937-0.706,5.464-5.281,7.945
				c-0.695,0.557-0.923,1.012-0.995,1.471c0.354,0.679,1.586,2.63,5.463,6.371c0.117,0.113,0.231,0.229,0.34,0.352
				c2.544,2.825,4.388,7.278,5.8,14.016c0.016,0.074,0.03,0.15,0.043,0.228l0.497,2.834c0.07,0.399,0.105,0.804,0.105,1.209v0.283
				c0,0.518-0.057,1.032-0.171,1.536l-0.684,3.039c-0.086,1.48-0.39,2.875-0.907,4.168c-0.36,3.097-1.659,5.763-3.756,7.688
				c-0.105,0.129-0.177,0.226-0.221,0.287c-0.775,2.11-2.523,3.731-4.707,4.335c-0.268,0.074-0.435,0.139-0.521,0.176
				c-0.189,0.158-0.386,0.307-0.591,0.444c-1.347,0.905-2.744,1.465-4.166,1.669c-2.187,1.283-4.767,1.932-7.705,1.932H37.826z"/>
			<path fill="#FFFFFF" d="M88.318,149.202c-2.639,0-5.065-1.077-7.242-3.209c-0.904-0.319-1.871-0.789-2.82-1.477
				c-2.063,1.734-4.125,2.366-5.816,2.521c-4.048,0.786-5.614,0.89-6.527,0.89c-5.705,0-10.183-3.354-11.979-8.978
				c-0.765-2.5-1.854-7.374-2.793-21.735c-0.618-5.124-1.048-13.529-1.353-26.41c-0.001-0.056-0.002-0.109-0.002-0.166
				c0-5.193,4.919-7.341,7.021-8.258c0.883-0.385,1.836-0.584,2.8-0.584h0.498c2.488,0,9.076,0,12.084,4.86
				c1.219,1.942,2.68,5.31,4.288,15.339c0.059,0.365,0.088,0.736,0.088,1.107c0,0.205,0.004,0.422,0.011,0.65
				c0.859-0.234,1.642-0.406,2.269-0.545c0.495-0.109,1-0.164,1.507-0.164h1.327c0.091,0,0.181,0.001,0.27,0.004
				c0.34-3.283,0.363-4.056,0.364-4.101c0-1.001,0.214-1.953,0.627-2.853c0.016-0.139,0.037-0.39,0.037-0.785v-0.99
				c0-1.038,0.231-2.064,0.677-3.004c1.691-3.56,4.616-5.696,8.098-5.953c0.806-0.113,1.68-0.168,2.705-0.168h1.992
				c3.622,0,7.676,2.378,8.563,7.688c0.106,0.644,0.125,1.3,0.051,1.947c0.351,1.505,0.67,3.709,1.011,7.338
				c0.021,0.217,0.03,0.435,0.03,0.651c0,1.32-0.047,2.711-0.142,4.14c0.095,1.037,0.142,2.099,0.142,3.228
				c0,0.449-0.043,0.898-0.131,1.342l-0.261,1.334c0.157,1.033,0.226,1.656,0.226,2.283c0,0.748-0.121,1.491-0.355,2.203
				c-0.111,0.399-0.593,2.683-1.324,12.616c-0.049,0.664-0.191,1.318-0.426,1.942c-0.871,2.324-1.65,5.035-2.381,8.287
				c-0.105,0.469-0.258,0.925-0.457,1.361c-2.208,4.857-6.708,7.646-12.347,7.646L88.318,149.202L88.318,149.202z"/>
			<path fill="#FFFFFF" d="M111.183,148.317c-4.621,0-8.024-0.697-10.713-2.196c-1.68-0.937-2.898-2.521-3.375-4.382
				c-1.356-5.312-2.044-10.576-2.044-15.65c0-1.288,0.081-2.808,0.253-4.72c-0.184-0.943-0.379-2.282-0.557-4.248
				c-0.042-0.459-0.038-0.921,0.012-1.38l0.231-2.146c-0.115-1.056-0.176-2.43-0.265-4.406c-0.014-0.315-0.007-0.633,0.022-0.946
				l0.672-7.388c-0.137-0.644-0.203-1.254-0.203-1.859v-0.531c0-0.295,0.01-0.585,0.029-0.871c-0.219-0.908-0.256-1.861-0.099-2.802
				c0.063-0.373,0.069-0.626,0.069-0.718v-2.799c0-4.178,2.835-7.187,8.427-8.943c0.68-0.214,1.387-0.322,2.1-0.322
				c0.14,0,0.268,0,0.382-0.001c0.458-0.094,0.928-0.142,1.401-0.142c0.183,0,0.365,0.007,0.549,0.021
				c2.648,0.208,4.382,0.427,5.576,0.634c0.64-0.082,1.32-0.123,2.047-0.123c0.203,0,0.404,0.009,0.604,0.025
				c2.824,0.244,5.354,0.412,7.736,0.512c0.911,0.037,1.806,0.254,2.635,0.635c5.849,2.69,6.479,7.301,6.479,9.156
				c0,1.229-0.323,2.438-0.938,3.502c-1.07,1.854-2.831,3.906-5.704,5.354c0.468,0.37,0.882,0.787,1.228,1.261
				c1.895,2.146,2.22,4.453,2.22,5.785c0,1.082-0.251,2.149-0.733,3.118c-1.664,3.347-4.752,5.441-8.615,5.908
				c-0.028,0.625-0.094,1.447-0.205,2.662c0.457,1.082,0.638,2.27,0.515,3.451l-0.128,1.23v0.947c0,1.236,0.031,2.184,0.076,2.896
				c0.158-0.011,0.316-0.016,0.474-0.016c10.556,0,10.859,7.714,10.859,8.594c0,0.935-0.188,1.86-0.552,2.722
				c-2.26,5.358-7.873,8.074-16.681,8.074c-0.182,0-0.364-0.001-0.551-0.003C113.28,148.283,112.192,148.317,111.183,148.317z"/>
			<path fill="#FFFFFF" d="M138.19,148.317c-4.621,0-8.025-0.697-10.715-2.196c-1.679-0.937-2.897-2.521-3.373-4.382
				c-1.356-5.312-2.045-10.576-2.045-15.65c0-1.288,0.082-2.808,0.254-4.72c-0.185-0.943-0.379-2.282-0.558-4.248
				c-0.042-0.459-0.038-0.921,0.013-1.38l0.23-2.146c-0.115-1.056-0.176-2.43-0.266-4.406c-0.014-0.315-0.006-0.633,0.022-0.946
				l0.672-7.388c-0.137-0.644-0.202-1.254-0.202-1.859v-0.531c0-0.295,0.01-0.585,0.028-0.871c-0.219-0.908-0.256-1.861-0.099-2.802
				c0.063-0.373,0.068-0.626,0.068-0.718v-2.799c0-4.178,2.836-7.187,8.428-8.943c0.679-0.214,1.387-0.322,2.099-0.322
				c0.14,0,0.269,0,0.382-0.001c0.458-0.094,0.928-0.142,1.401-0.142c0.183,0,0.366,0.007,0.549,0.021
				c2.649,0.208,4.382,0.427,5.576,0.634c0.641-0.082,1.321-0.123,2.049-0.123c0.202,0,0.403,0.009,0.604,0.025
				c2.823,0.244,5.354,0.412,7.735,0.512c0.911,0.037,1.806,0.254,2.636,0.635c5.848,2.69,6.479,7.301,6.479,9.156
				c0,1.229-0.324,2.438-0.938,3.502c-1.07,1.854-2.83,3.906-5.703,5.354c0.469,0.371,0.883,0.789,1.229,1.266
				c1.892,2.145,2.217,4.449,2.217,5.78c0,1.082-0.251,2.149-0.733,3.118c-1.666,3.347-4.754,5.441-8.616,5.908
				c-0.028,0.625-0.093,1.447-0.205,2.662c0.458,1.082,0.638,2.27,0.515,3.451l-0.128,1.23v0.947c0,1.236,0.032,2.184,0.076,2.896
				c0.157-0.011,0.317-0.017,0.476-0.017c10.555,0,10.858,7.714,10.858,8.594c0,0.935-0.188,1.86-0.552,2.722
				c-2.26,5.358-7.873,8.074-16.682,8.074c-0.182,0-0.365-0.001-0.551-0.003C140.288,148.283,139.201,148.317,138.19,148.317z"/>
			<path fill="#FFFFFF" d="M167.519,150.548c-4.303,0-7.469-1.32-9.412-3.926c-2.453-3.23-3.5-8.467-3.56-17.91
				c-0.108-0.611-0.169-1.281-0.169-2.021c0-0.17,0.006-0.34,0.02-0.512c0.043-0.593,0.115-1.143,0.211-1.652l-0.017-0.139
				c-0.03-0.271-0.047-0.541-0.047-0.813v-2.691c0-1.518-0.153-2.442-0.282-2.952c-0.223-0.875-0.273-1.783-0.15-2.678l0.199-1.436
				c-0.408-3.104-0.752-7.867-1.029-14.221c-0.256-0.027-0.523-0.059-0.803-0.089c-1.074-0.118-2.105-0.483-3.015-1.067
				c-2.677-1.719-4.213-4.383-4.213-7.307c0-0.209,0.009-0.418,0.028-0.627c0.513-5.707,4.518-9.558,10.259-9.926
				c4.25-0.634,8.006-1.031,11.435-1.209c0.582-0.128,1.207-0.197,1.873-0.197c0.381,0,0.756,0.023,1.125,0.07
				c0.646-0.047,1.262-0.07,1.863-0.07H173l0.504-0.072c0.327-0.045,0.657-0.068,0.985-0.068c0.3,0,0.599,0.02,0.896,0.058
				c3.778,0.487,6.347,0.8,8.296,0.956c1.633,0.131,3.168,0.831,4.338,1.979c1.75,1.716,3.76,4.107,3.76,7.408
				c0,1.866-0.631,8.153-8.756,10.655c-0.082,0.025-0.164,0.05-0.246,0.071c-0.877,0.234-1.756,0.419-2.633,0.552
				c-0.012,0.155-0.027,0.31-0.05,0.464c0.114,0.317,0.218,0.641,0.308,0.965c0.271,0.965,0.33,1.976,0.175,2.965l-0.191,1.227
				l0.569,5.469c0.076,0.737,0.035,1.481-0.121,2.206c-0.02,0.091-0.038,0.175-0.055,0.257c0.311,1.642,0.38,2.411,0.38,3.078
				c0,0.348-0.026,0.694-0.077,1.038c-0.23,1.543-0.252,2.017-0.254,2.097v0.351l0.199,3.5c0.117,2.04,0.132,2.313,0.132,2.647
				c0,0.209-0.009,0.418-0.028,0.627c0.46,1.656,0.691,3.252,0.691,4.756v0.283c0,0.368-0.028,0.735-0.086,1.1
				c-0.162,1.021-0.262,1.708-0.323,2.16c0.754,2.938,0.907,4.104,0.907,5.101c0,8.265-9.938,9.146-14.18,9.521
				C167.931,150.539,167.726,150.548,167.519,150.548z"/>
		</g>
		<g>
			<path fill="#EF6159" d="M49.111,89.54v0.283c0,0.672-0.664,1.346-1.992,1.982c-2.862,2.02-4.314,4.639-4.314,7.934
				c0,2.338,2.531,5.984,7.634,10.908c1.659,1.842,3.028,5.418,4.149,10.766l0.497,2.834v0.283l-0.829,3.684
				c0,1.311-0.291,2.372-0.83,3.258c0,2.055-0.622,3.576-1.825,4.533c-0.954,1.063-1.577,2.02-1.826,2.833
				c-1.41,0.39-2.447,0.921-3.152,1.558c-0.581,0.392-1.079,0.567-1.494,0.567h-1.161c-1.286,1.239-3.029,1.843-5.311,1.843h-0.83
				c-1.867,0-4.066-1.027-6.639-3.117c-2.655-2.799-3.982-5.737-3.982-8.782v-0.566c0.913-2.09,2.406-3.116,4.48-3.116h1.162
				c1.493,0,2.447,1.274,2.821,3.823c0.995,3.011,1.866,4.533,2.655,4.533c1.783-2.125,2.655-3.576,2.655-4.392v-5.524
				c-0.332-4.285-0.872-7.013-1.66-8.218c-0.539-0.777-0.912-1.877-1.161-3.258c-1.369-1.168-3.07-3.789-5.145-7.934
				c-0.789-1.664-1.369-4.426-1.66-8.216c0-2.444,1.12-4.568,3.319-6.375c0.705-1.099,1.286-1.841,1.659-2.267
				c0.623-0.603,2.863-1.168,6.805-1.699C47.119,87.698,49.111,88.3,49.111,89.54z"/>
			<path fill="#EF6159" d="M60.105,88.796c3.485,0,5.519,0.531,6.141,1.559c1.12,1.771,2.24,6.021,3.319,12.75
				c0,1.416,0.124,3.011,0.332,4.815v1.134c0,0.213-0.042,0.389-0.166,0.566c0.456,0.744,0.663,1.416,0.663,1.982
				c-0.083,1.311-0.207,1.983-0.331,1.983c0.331,0,0.622,2.728,0.829,8.217c0.125,0,0.332,1.238,0.664,3.683h0.166
				c1.12-4.002,2.033-8.252,2.821-12.748c0-0.957,1.95-1.842,5.809-2.692h1.327c1.369,0,2.946,3.081,4.646,9.208
				c0.208,0.213,0.581,1.311,1.162,3.258h0.166v-1.699c0.332-2.586,0.539-5.524,0.664-8.783c-0.125-0.317-0.166-0.813-0.166-1.415
				c0.788-6.767,1.161-10.66,1.161-11.617c0.457-0.851,0.664-2.09,0.664-3.685v-0.992c0.622-1.31,1.452-1.982,2.489-1.982
				c0.581-0.105,1.245-0.143,1.991-0.143h1.992c0.912,0,1.451,0.604,1.658,1.843c-0.123,0.813-0.166,1.312-0.166,1.417
				c0.416,0.885,0.789,3.363,1.162,7.365c0,1.17-0.041,2.586-0.166,4.25c0.125,1.099,0.166,2.125,0.166,3.117l-0.498,2.551
				c0.207,1.273,0.332,2.089,0.332,2.408c-0.539,1.629-1.078,6.41-1.66,14.307c-0.994,2.656-1.866,5.703-2.654,9.209
				c-1.078,2.373-3.07,3.541-5.974,3.541h-0.332c-1.079,0-2.241-0.85-3.485-2.551c-2.323,0-3.941-1.594-4.813-4.815
				c-0.332-1.204-0.788-3.364-1.328-6.517c-0.373,0-0.705,1.274-0.995,3.824c-0.83,1.099-1.66,2.903-2.489,5.383
				c-1.203,1.701-2.448,2.551-3.651,2.551c-2.862,0.566-4.771,0.85-5.643,0.85c-2.696,0-4.439-1.381-5.311-4.107
				c-0.996-3.258-1.825-10.022-2.489-20.258c-0.622-5.028-1.037-13.67-1.327-25.924c0-0.391,0.954-1.027,2.82-1.842H60.105z"/>
			<path fill="#EF6159" d="M113.626,89.681c0.457-0.177,1.161-0.283,2.074-0.283c2.861,0.248,5.518,0.427,8.049,0.531
				c1.617,0.744,2.406,1.664,2.406,2.799c-1.452,2.515-4.356,3.754-8.672,3.754h-1.949l-0.789,0.142v-0.142l-0.33,0.142
				c-0.208-0.104-0.415-0.142-0.623-0.142c-0.332,0.707-0.497,1.381-0.497,1.982v0.283c0,0.709,0.041,1.629,0.165,2.799
				l-0.788,1.877c0.166,1.311,0.374,1.982,0.623,1.982c0.248,0,1.037-0.035,2.405-0.143c4.189,0.815,6.265,1.418,6.265,1.735
				c0.664,0.496,0.995,1.026,0.995,1.629c-0.705,1.417-2.031,2.125-4.023,2.125c-0.332,0-1.949,0.461-4.854,1.347h-0.623
				l0.166,0.248c0,0.247-0.041,0.391-0.166,0.391c0.125,1.063,0.166,1.806,0.166,2.266v2.02c0,0.603-0.124,1.982-0.331,4.144
				c0.124,0.709,0.331,1.346,0.663,1.877l-0.166,1.594v1.312c0,3.33,0.208,5.631,0.623,6.941c-0.125,0.922-0.166,1.629-0.166,2.159
				v0.248c0,0.531,0.373,0.813,1.119,0.813c1.949,0,3.941-0.104,5.974-0.282c2.573,0,3.859,0.53,3.859,1.594
				c-1.121,2.656-4.771,3.896-10.952,3.79c-4.896,0.318-8.34-0.07-10.372-1.204c-1.203-4.711-1.826-9.35-1.826-13.918
				c0-1.417,0.125-3.151,0.332-5.207c-0.207-0.637-0.456-2.09-0.664-4.391l0.332-3.082c-0.124-0.214-0.207-1.734-0.332-4.533
				l0.789-8.676c-0.208-0.567-0.291-0.957-0.291-1.205v-0.531c0-0.425,0.042-0.85,0.166-1.312c-0.124-0.602-0.207-1.026-0.332-1.202
				c0.125-0.744,0.166-1.382,0.166-1.877v-2.8c0-0.743,1.162-1.521,3.526-2.266c1.203,0,1.783-0.035,1.783-0.143
				C110.681,89.114,112.714,89.397,113.626,89.681z"/>
			<path fill="#EF6159" d="M140.634,89.681c0.457-0.177,1.162-0.283,2.075-0.283c2.862,0.248,5.519,0.427,8.049,0.531
				c1.617,0.744,2.406,1.664,2.406,2.799c-1.452,2.515-4.356,3.754-8.672,3.754h-1.949l-0.789,0.142v-0.142l-0.331,0.142
				c-0.208-0.104-0.415-0.142-0.623-0.142c-0.332,0.707-0.496,1.381-0.496,1.982v0.283c0,0.709,0.041,1.629,0.164,2.799
				l-0.787,1.877c0.166,1.311,0.373,1.982,0.623,1.982c0.247,0,1.036-0.035,2.405-0.143c4.19,0.815,6.265,1.418,6.265,1.735
				c0.664,0.496,0.996,1.026,0.996,1.629c-0.705,1.417-2.033,2.125-4.025,2.125c-0.33,0-1.948,0.461-4.854,1.347h-0.623l0.166,0.248
				c0,0.247-0.041,0.391-0.166,0.391c0.125,1.063,0.166,1.806,0.166,2.266v2.02c0,0.603-0.124,1.982-0.33,4.144
				c0.123,0.709,0.33,1.346,0.662,1.877l-0.166,1.594v1.312c0,3.33,0.208,5.631,0.623,6.941c-0.125,0.922-0.166,1.629-0.166,2.159
				v0.248c0,0.531,0.373,0.813,1.12,0.813c1.949,0,3.94-0.104,5.974-0.282c2.573,0,3.859,0.53,3.859,1.594
				c-1.121,2.656-4.771,3.896-10.953,3.79c-4.896,0.318-8.34-0.07-10.372-1.204c-1.202-4.711-1.825-9.35-1.825-13.918
				c0-1.417,0.125-3.151,0.332-5.207c-0.207-0.637-0.457-2.09-0.664-4.391l0.332-3.082c-0.125-0.214-0.207-1.734-0.332-4.533
				l0.789-8.676c-0.209-0.567-0.291-0.957-0.291-1.205v-0.531c0-0.425,0.041-0.85,0.166-1.312c-0.125-0.602-0.207-1.026-0.332-1.202
				c0.125-0.744,0.166-1.382,0.166-1.877v-2.8c0-0.743,1.162-1.521,3.525-2.266c1.203,0,1.784-0.035,1.784-0.143
				C137.688,89.114,139.722,89.397,140.634,89.681z"/>
			<path fill="#EF6159" d="M174.487,86.033c3.568,0.46,6.432,0.813,8.631,0.991c1.119,1.098,1.658,1.912,1.658,2.408
				c0,1.877-1.285,3.188-3.815,3.967c-1.452,0.39-2.821,0.565-4.149,0.565h-4.646c-0.124,0.531-0.166,0.886-0.166,1.134
				c0.788,2.868,1.162,4.569,1.162,5.102c-0.125,0.742-0.291,1.31-0.498,1.699c0.456,0.673,0.788,1.381,0.996,2.125l-0.332,2.125
				l0.663,6.375c-0.207,0.955-0.331,1.559-0.331,1.842c0.331,1.594,0.497,2.585,0.497,2.975c-0.207,1.381-0.331,2.443-0.331,3.116
				v0.567c0.207,3.719,0.331,5.701,0.331,5.949l-0.166,1.274c0.54,1.487,0.83,2.868,0.83,4.106v0.283
				c-0.332,2.09-0.498,3.365-0.498,3.826c0.664,2.479,0.996,4.002,0.996,4.533c0,1.238-2.614,2.089-7.801,2.549
				c-2.033,0-3.276-0.389-3.816-1.133c-1.452-1.877-2.157-6.766-2.157-14.592c-0.124,0-0.166-0.389-0.166-1.133
				c0.083-1.133,0.208-1.701,0.332-1.701l-0.166-1.416v-2.691c0-1.806-0.166-3.363-0.498-4.674l0.332-2.408
				c-0.539-3.436-0.995-10.236-1.327-20.4c-0.996-0.176-3.277-0.459-6.805-0.85c-0.663-0.426-0.995-0.886-0.995-1.416
				c0.207-2.303,1.535-3.507,3.981-3.578c4.439-0.672,8.465-1.098,12.115-1.238c0-0.106,0.166-0.143,0.498-0.143
				c0.248,0,0.457,0.035,0.664,0.143c0.953-0.106,1.7-0.143,2.322-0.143h1.66L174.487,86.033z"/>
		</g>
	</g>
	<g>
		<path fill="#F2EFDC" d="M78.629,97.194c-0.586,0.586-1.536,0.586-2.121,0l0,0c-0.586-0.586-0.586-1.535,0-2.121l27.104-27.107
			c0.587-0.584,1.537-0.584,2.121,0l0,0c0.586,0.586,0.586,1.537,0,2.123L78.629,97.194z"/>
		<g>
			<polygon fill="#6BC6B5" points="101.356,61.331 112.372,72.347 105.282,82.47 104.685,77.36 99.422,78.448 100.51,73.187 
				95.25,74.278 96.34,69.015 91.234,68.419 			"/>
			<polygon fill="#5CAA9B" points="102.374,62.349 111.353,71.327 107.699,77.454 106.655,73.847 103.149,73.95 103.252,70.444 
				99.751,70.55 99.853,67.046 96.25,66.003 			"/>
		</g>
		<circle fill="#F05D86" cx="116.342" cy="57.36" r="17.667"/>
		<g>
			<g>
				<circle id="SVGID_3_" fill="#6BC6B5" cx="116.342" cy="57.36" r="17.667"/>
			</g>
			<g>
				<defs>
					<circle id="SVGID_5_" cx="116.342" cy="57.36" r="17.667"/>
				</defs>
				<clipPath id="SVGID_6_">
					<use xlink:href="#SVGID_5_"  overflow="visible"/>
				</clipPath>
				<g clip-path="url(#SVGID_6_)">
					<polygon fill="#F2EFDC" points="119.793,39.675 118.542,43.364 120.872,46.485 116.978,46.437 114.728,49.616 113.573,45.896 
						109.853,44.741 113.033,42.491 112.983,38.597 116.104,40.927 					"/>
					<polygon fill="#F2EFDC" points="131.813,47.218 130.563,50.907 132.892,54.028 128.998,53.978 126.749,57.157 125.593,53.438 
						121.874,52.282 125.054,50.034 125.004,46.14 128.125,48.468 					"/>
					<polygon fill="#F2EFDC" points="143.834,54.761 142.583,58.448 144.913,61.569 141.019,61.521 138.771,64.7 137.614,60.981 
						133.894,59.825 137.075,57.577 137.024,53.683 140.146,56.011 					"/>
					<polygon fill="#F2EFDC" points="155.854,62.304 154.604,65.993 156.935,69.112 153.04,69.062 150.79,72.243 149.633,68.524 
						145.915,67.368 149.094,65.118 149.045,61.224 152.167,63.556 					"/>
					<polygon fill="#F2EFDC" points="107.065,44.155 105.813,47.843 108.146,50.964 104.25,50.913 102,54.095 100.845,50.376 
						97.125,49.22 100.306,46.97 100.256,43.075 103.376,45.405 					"/>
					<polygon fill="#F2EFDC" points="119.086,51.696 117.835,55.386 120.165,58.507 116.271,58.456 114.021,61.636 112.865,57.917 
						109.146,56.761 112.326,54.513 112.276,50.618 115.397,52.948 					"/>
					<polygon fill="#F2EFDC" points="131.106,59.239 129.856,62.927 132.185,66.05 128.291,65.999 126.042,69.179 124.885,65.46 
						121.167,64.304 124.347,62.056 124.296,58.161 127.418,60.489 					"/>
					<polygon fill="#F2EFDC" points="143.127,66.782 141.875,70.47 144.206,73.591 140.312,73.542 138.063,76.722 136.907,73.003 
						133.187,71.847 136.368,69.597 136.317,65.702 139.438,68.032 					"/>
					<polygon fill="#F2EFDC" points="94.336,48.634 93.087,52.321 95.417,55.442 91.522,55.394 89.272,58.573 88.117,54.853 
						84.398,53.698 87.578,51.448 87.528,47.554 90.65,49.884 					"/>
					<polygon fill="#F2EFDC" points="106.358,56.175 105.106,59.864 107.438,62.985 103.543,62.935 101.293,66.116 100.138,62.397 
						96.418,61.239 99.599,58.991 99.549,55.097 102.668,57.427 					"/>
					<polygon fill="#F2EFDC" points="118.379,63.718 117.127,67.405 119.458,70.526 115.563,70.478 113.315,73.657 112.159,69.938 
						108.44,68.782 111.619,66.532 111.569,62.638 114.69,64.968 					"/>
					<polygon fill="#F2EFDC" points="130.399,71.259 129.149,74.948 131.478,78.069 127.583,78.021 125.334,81.2 124.179,77.479 
						120.459,76.323 123.64,74.075 123.588,70.181 126.711,72.511 					"/>
					<polygon fill="#F2EFDC" points="81.611,53.112 80.36,56.8 82.69,59.921 78.794,59.872 76.546,63.052 75.391,59.333 
						71.67,58.175 74.85,55.929 74.801,52.034 77.922,54.362 					"/>
					<polygon fill="#F2EFDC" points="93.63,60.653 92.38,64.343 94.709,67.464 90.815,67.413 88.566,70.593 87.41,66.874 
						83.691,65.718 86.871,63.47 86.821,59.575 89.943,61.905 					"/>
					<polygon fill="#F2EFDC" points="105.651,68.196 104.399,71.884 106.731,75.005 102.835,74.956 100.586,78.136 99.431,74.417 
						95.71,73.261 98.892,71.013 98.842,67.118 101.962,69.446 					"/>
					<polygon fill="#F2EFDC" points="117.672,75.739 116.42,79.427 118.75,82.548 114.856,82.499 112.608,85.679 111.452,81.96 
						107.731,80.804 110.913,78.554 110.862,74.659 113.983,76.989 					"/>
				</g>
			</g>
		</g>
	</g>
	<g>
		<path fill="#EF6159" d="M116.435,19.381L116.815,19c1.391-1.389,1.391-3.639,0-5.029l-0.051-0.051
			c-1.39-1.389-3.641-1.389-5.027,0l-0.383,0.381l-0.383-0.381c-1.388-1.389-3.64-1.389-5.027,0l-0.051,0.051
			c-1.39,1.391-1.391,3.641,0,5.029l0.381,0.381l5.08,5.082L116.435,19.381z"/>
		<path fill="#D65750" d="M116.815,13.971l-0.051-0.051c-1.39-1.389-3.641-1.389-5.027,0l-0.383,0.381v10.162l5.08-5.082L116.815,19
			C118.206,17.611,118.206,15.361,116.815,13.971z"/>
	</g>
	<g>
		<path fill="#EF6159" d="M97.073,33.794l0.22-0.22c0.806-0.804,0.806-2.106,0-2.911l-0.03-0.029c-0.803-0.803-2.104-0.803-2.908,0
			l-0.223,0.221l-0.221-0.221c-0.803-0.803-2.105-0.803-2.909,0l-0.03,0.029c-0.803,0.805-0.804,2.107,0,2.911l0.221,0.22
			l2.939,2.941L97.073,33.794z"/>
		<path fill="#D65750" d="M97.292,30.663l-0.029-0.029c-0.804-0.803-2.105-0.803-2.909,0l-0.223,0.221v5.881l3.161-3.161
			C98.097,32.771,98.097,31.468,97.292,30.663z"/>
	</g>
</g>
</svg>
