<?xml version="1.0" encoding="utf-8"?>
<!-- Generator: Adobe Illustrator 16.0.0, SVG Export Plug-In . SVG Version: 6.00 Build 0)  -->
<!DOCTYPE svg PUBLIC "-//W3C//DTD SVG 1.1//EN" "http://www.w3.org/Graphics/SVG/1.1/DTD/svg11.dtd">
<svg version="1.1" id="Layer_1" xmlns="http://www.w3.org/2000/svg" xmlns:xlink="http://www.w3.org/1999/xlink" x="0px" y="0px"
	 width="130.088px" height="104.722px" viewBox="0 0 130.088 104.722" enable-background="new 0 0 130.088 104.722"
	 xml:space="preserve">
<g>
	<path fill="#FFFFFF" d="M0.471,28.047c2.408-5.408,10.129-3.183,14.291-4.567c2.858-0.951,4.899-3.43,8.236-2.951
		c3.006,0.429,4.142,2.396,7.614,2.379c4.915-0.021,13.582-3.229,16.51-7.428c1.593-2.282,1.317-4.639,4.032-6.688
		c1.96-1.479,5.795-3.278,8.193-4.094c5.505-1.875,11.93-2.369,17.757-3.898c8.03-2.107,10.245,0.271,17.147,3.452
		c3.037,1.399,6.729,0.266,9.682,1.715c2.259,1.109,4.564,4.135,6.779,5.632c6.007,4.056,11.652,9.646,15.352,15.865
		c5.209,8.754,4.592,23.607,2.439,33.676c-2.35,10.993-6.275,22.386-13.61,31.084c-6.119,7.255-16.112,10.479-25.205,11.414
		c-9.572,0.984-23.302,2.243-32.296-1.016c-1.471-0.533-6.765-3.503-7.451-4.97c-1.328-2.833,1.453-5.629,0.574-8.525
		c-4.887-0.227-7.985,1.013-12.508,1.84c-1.859,0.341-4.301-0.644-6.088-0.02c-2.658,0.928-2.376,3.052-5.06,4.644
		c-3.079,1.824-9.614,2.382-11.967-0.506c-3.169-3.889-1.544-12.941-1.751-17.775c-0.153-3.606-0.577-8.615-3.352-11.173
		c-1.267-1.167-3.619-0.861-4.875-2.019c-1.88-1.732-2.109-4.639-2.555-6.957C0.672,48.375,2.568,37.668,0,28.986L0.471,28.047z"/>
	<path fill="#5AB1AF" d="M50.488,53.448c2.686,5.859,13.018,11.624,16.998,15.839c0.139,2.919,2.053,21.308,0.867,23.849
		c-8.614,2.096-11.945,3.683-9.733,5.081c3.196,2.8,15.341,1.199,20.388,0.59c3.859-0.465,7.213-2.417,2.487-4.341
		c-2.458-1.005-5.49-1.082-8.22-1.59c-0.404-3.863-0.723-20.677-1.401-23.958c4.901-4.511,13.836-11.476,16.133-17.248
		C88.564,50.567,49.864,52.838,50.488,53.448z"/>
	<g>
		<path fill="#231F20" d="M8.681,30.94c0.007,0.034,0.213,0.1,0.62,0.196c0.21,0.171,0.409,0.29,0.6,0.359
			c0.02,0.102,0.104,0.218,0.253,0.348s0.236,0.263,0.263,0.398c0.203,0.137,0.298,0.259,0.283,0.367
			c0.041,0.028,0.099,0.053,0.174,0.071l0.112,0.032c0.06,0.13,0.19,0.298,0.389,0.507c0.2,0.207,0.323,0.431,0.37,0.668
			c0.182,0.036,0.35,0.215,0.501,0.536c0.151,0.323,0.267,0.513,0.349,0.567c-0.069,0.367-0.101,0.567-0.095,0.6
			c0.007,0.035,0.062,0.042,0.163,0.022l0.112,0.03c0.046,0.063,0.1,0.148,0.156,0.261c0.056,0.113,0.109,0.2,0.157,0.262
			c0.046,0.061,0.121,0.081,0.224,0.062c-0.027,0.041-0.031,0.112-0.012,0.214c0.007,0.034,0.039,0.106,0.097,0.219
			c0.056,0.113,0.073,0.206,0.055,0.281c0.006,0.033-0.01,0.09-0.048,0.167c-0.037,0.078-0.05,0.15-0.036,0.219
			c-0.021,0.075,0.013,0.112,0.102,0.112c0.088,0.001,0.136,0.02,0.143,0.053l0.02,0.102c0.02,0.102,0.08,0.23,0.182,0.387
			c0.102,0.158,0.154,0.254,0.161,0.287l-0.031,0.111c0.162,0.286,0.247,0.446,0.253,0.479c0.02,0.102-0.011,0.214-0.094,0.336
			c0.075,0.022,0.119,0.066,0.133,0.133c0.026,0.137,0.132,0.363,0.318,0.68c0.185,0.316,0.294,0.56,0.326,0.729l0.021,0.102
			c-0.151,0.136-0.209,0.287-0.176,0.457l0.021,0.103c0.02,0.102,0.107,0.19,0.264,0.267c0.155,0.075,0.236,0.131,0.243,0.164
			l0.029,0.152c0.021,0.102,0.073,0.234,0.157,0.394c0.084,0.16,0.133,0.273,0.146,0.341c0.026,0.137-0.001,0.267-0.084,0.388
			c0.007,0.034,0.065,0.111,0.178,0.23c0.11,0.119,0.191,0.209,0.237,0.271c0.014,0.068,0.01,0.175-0.015,0.32
			s-0.031,0.253-0.018,0.32c0.007,0.034,0.033,0.082,0.08,0.144c0.122,0.26,0.229,0.45,0.324,0.571
			c-0.185,0.142-0.185,0.231-0.001,0.265c-0.09,0.089-0.129,0.203-0.118,0.341c0.008,0.141-0.015,0.25-0.068,0.331
			c0.04,0.028,0.078,0.09,0.116,0.189c0.036,0.098,0.075,0.162,0.115,0.188c-0.021,0.075-0.021,0.163-0.001,0.265
			c-0.021,0.075-0.024,0.146-0.011,0.215c0.054,0.095,0.2,0.119,0.438,0.073l0.204-0.04c0.353,0.001,0.683-0.027,0.988-0.087
			l0.408-0.08c0.407-0.079,0.693-0.065,0.855,0.045c0.054-0.081,0.149-0.136,0.285-0.162c0.237-0.046,0.411-0.063,0.521-0.048
			c0.074-0.156,0.082-0.388,0.022-0.693l-0.069-0.357c-0.014-0.067-0.039-0.158-0.079-0.275c-0.042-0.114-0.064-0.188-0.071-0.224
			l-0.149-0.765c-0.041-0.027-0.02-0.102,0.062-0.224c-0.013-0.068-0.036-0.099-0.07-0.093c-0.041-0.026-0.064-0.057-0.07-0.091
			c-0.013-0.244-0.111-0.568-0.296-0.975c-0.186-0.405-0.25-0.736-0.194-0.994c-0.108-0.19-0.169-0.319-0.182-0.389
			c-0.007-0.032,0.011-0.123,0.053-0.273c-0.007-0.033-0.025-0.074-0.051-0.122c-0.027-0.049-0.045-0.09-0.051-0.123l-0.088-0.724
			l0.011-0.214c-0.006-0.032,0.021-0.162,0.083-0.387l-0.069-0.356c-0.014-0.068,0.008-0.142,0.063-0.224l-0.06-0.306
			c0.054-0.082,0.078-0.14,0.071-0.173l-0.01-0.053c-0.041-0.026-0.048-0.06-0.021-0.102c0.035-0.006,0.048-0.025,0.041-0.061
			c-0.02-0.103-0.045-0.229-0.074-0.382c-0.03-0.153-0.034-0.266-0.014-0.342c0.027-0.04,0.059-0.107,0.093-0.202
			c0.035-0.096,0.065-0.163,0.093-0.204c-0.066-0.339-0.076-0.567-0.026-0.682l-0.03-0.153c-0.013-0.068-0.019-0.183-0.014-0.342
			c0.004-0.159,0-0.273-0.014-0.341l-0.04-0.204l-0.149-0.766c-0.06-0.306-0.035-0.538,0.075-0.701
			c-0.042-0.027-0.097-0.034-0.163-0.021l-0.08-0.408c0.026-0.039,0.074-0.11,0.143-0.213c0.068-0.101,0.113-0.188,0.135-0.264
			c-0.014-0.068-0.057-0.104-0.127-0.108c-0.071-0.002-0.128-0.019-0.167-0.046l-0.062-0.041l-0.011-0.051
			c-0.013-0.068-0.004-0.158,0.026-0.27c0.031-0.111,0.045-0.186,0.038-0.22c-0.06-0.306-0.077-0.479-0.049-0.52
			c-0.021-0.102-0.071-0.18-0.151-0.233c0-0.354-0.008-0.582-0.028-0.685c-0.026-0.135-0.063-0.232-0.11-0.296
			c0.068-0.188,0.109-0.426,0.126-0.712c0.088-0.088,0.247-0.127,0.478-0.119c0.231,0.008,0.374-0.028,0.43-0.11
			c0.068-0.014,0.138-0.009,0.214,0.011c0.073,0.021,0.129,0.028,0.162,0.021c0.068-0.014,0.114-0.049,0.138-0.106
			s0.054-0.09,0.087-0.097c0.041,0.027,0.122,0.039,0.245,0.032c0.121-0.007,0.2-0.013,0.234-0.02
			c0.067-0.013,0.149-0.003,0.244,0.032c0.094,0.034,0.18,0.063,0.253,0.081l0.409-0.079c0.135-0.026,0.319,0.01,0.55,0.104
			c0.229,0.097,0.412,0.131,0.55,0.104l0.102-0.02c0.082,0.055,0.235,0.122,0.462,0.2c0.228,0.08,0.38,0.146,0.463,0.201
			c0.155,0.252,0.44,0.496,0.857,0.732c0.416,0.236,0.682,0.466,0.795,0.691c0.082,0.055,0.188,0.141,0.315,0.256
			c0.13,0.115,0.233,0.2,0.315,0.256c0.093,0.477,0.092,0.741-0.003,0.794c0.006,0.034,0.035,0.055,0.091,0.063
			c0.054,0.007,0.084,0.027,0.091,0.061l0.03,0.153c0.053,0.272,0.235,0.484,0.547,0.634c0.106,0.191,0.182,0.389,0.222,0.593
			l0.209,1.069c0.094,0.122,0.147,0.218,0.161,0.286l0.06,0.305c0.014,0.07,0.04,0.161,0.08,0.276
			c0.04,0.117,0.064,0.19,0.071,0.224c0.026,0.137-0.009,0.232-0.104,0.285l0.1,0.511c0.073,0.374,0.081,0.602,0.027,0.682
			c0.007,0.034,0.034,0.091,0.086,0.168c0.05,0.079,0.064,0.155,0.045,0.23c0.094,0.122,0.189,0.386,0.286,0.79
			c0.096,0.404,0.229,0.68,0.398,0.822c-0.021,0.075-0.015,0.197,0.019,0.366c0.014,0.068,0.043,0.177,0.091,0.327
			c0.046,0.148,0.076,0.259,0.09,0.326l-0.063,0.224l0.061,0.306c0.006,0.034-0.008,0.054-0.041,0.061
			c-0.028,0.041-0.039,0.08-0.032,0.113l0.04,0.203c-0.015,0.108-0.052,0.187-0.112,0.233c-0.022,0.076,0.006,0.123,0.08,0.144
			c0.033-0.007,0.055,0.008,0.062,0.041c-0.021,0.074-0.021,0.207-0.003,0.397c0.02,0.189,0.037,0.319,0.05,0.387
			c0.007,0.034,0.001,0.097-0.016,0.188c-0.019,0.092-0.022,0.154-0.016,0.188c0.007,0.035,0.046,0.105,0.119,0.215
			c0.074,0.11,0.122,0.215,0.143,0.317l0.04,0.204l0.129,0.662c-0.049,0.114-0.054,0.311-0.019,0.585
			c0.037,0.276,0.047,0.467,0.033,0.576c-0.13,0.061-0.219,0.147-0.266,0.264c-0.049,0.114-0.083,0.254-0.104,0.416
			c-0.021,0.163-0.059,0.285-0.112,0.366c0.094,0.123,0.158,0.271,0.19,0.439c0.027,0.137,0.01,0.228-0.052,0.275
			c-0.021,0.074-0.006,0.106,0.046,0.097c0.051-0.01,0.079,0.002,0.086,0.036c0.026,0.136,0.009,0.773-0.05,1.914
			c-0.027,0.04-0.085,0.105-0.175,0.192c0.014,0.069,0.014,0.156-0.001,0.265c-0.014,0.108-0.018,0.181-0.011,0.214l0.061,0.041
			c0.014,0.068,0.023,0.12,0.03,0.153c-0.048,0.115-0.054,0.267-0.018,0.453c0.037,0.187,0.047,0.335,0.033,0.444
			c0.007,0.033,0.003,0.104-0.011,0.213l0.02,0.103c0.007,0.033-0.017,0.092-0.071,0.172c-0.055,0.082-0.093,0.159-0.113,0.234
			c0.033,0.171-0.01,0.311-0.129,0.422c-0.119,0.112-0.176,0.185-0.169,0.218l-0.041,0.062c-0.021,0.075-0.046,0.133-0.073,0.173
			c-0.055,0.082-0.138,0.194-0.251,0.34c-0.112,0.146-0.183,0.239-0.21,0.278l-0.509,0.1c-0.103,0.02-0.281,0.055-0.536,0.104
			s-0.43,0.104-0.525,0.156l-0.51,0.1c-0.271,0.053-0.481,0.06-0.631,0.017c-0.076-0.02-0.192-0.076-0.351-0.169
			c-0.159-0.093-0.276-0.149-0.351-0.17l-0.041,0.062l-0.041,0.061l-0.671-0.187c-0.035,0.007-0.104-0.032-0.209-0.118
			c-0.104-0.085-0.211-0.136-0.319-0.148c-0.041-0.026-0.117-0.102-0.229-0.221c-0.11-0.119-0.207-0.206-0.288-0.261
			c-0.048-0.062-0.11-0.154-0.188-0.28c-0.077-0.127-0.141-0.22-0.188-0.281c-0.048-0.062-0.038-0.106,0.025-0.138
			c0.065-0.03,0.095-0.062,0.088-0.097c-0.217-0.027-0.352-0.178-0.405-0.45l-0.079-0.407c-0.007-0.033-0.038-0.1-0.092-0.194
			c-0.054-0.096-0.088-0.177-0.101-0.245c-0.047-0.062-0.081-0.144-0.101-0.245s-0.033-0.17-0.04-0.204l-0.01-0.051
			c-0.041-0.026-0.064-0.058-0.07-0.091l-0.03-0.153c-0.079-0.407-0.177-0.636-0.293-0.684c-0.278,0.195-0.622,0.333-1.029,0.412
			l-1.58,0.309c-0.408,0.08-0.771,0.204-1.092,0.372c0.007,0.034-0.006,0.106-0.036,0.22c-0.031,0.111-0.04,0.201-0.026,0.27
			l0.02,0.102c-0.13,0.061-0.191,0.24-0.186,0.539s-0.004,0.486-0.023,0.56l0.209,1.07c0.006,0.034-0.001,0.089-0.021,0.163
			c0.02,0.102,0.05,0.167,0.091,0.194c-0.088,0.088-0.16,0.216-0.216,0.385c-0.055,0.17-0.097,0.275-0.124,0.316
			c-0.026,0.041-0.07,0.084-0.132,0.132c-0.063,0.047-0.107,0.092-0.134,0.132c-0.034,0.007-0.069,0.101-0.103,0.284
			c-0.083,0.122-0.212,0.271-0.39,0.447c-0.068,0.189-0.179,0.352-0.327,0.486l-0.103,0.02c-0.068,0.014-0.139,0.063-0.21,0.146
			c-0.071,0.086-0.124,0.131-0.158,0.138l-0.306,0.06c-0.123,0.095-0.219,0.148-0.286,0.161c-0.103,0.021-0.289,0.013-0.561-0.022
			c-0.271-0.035-0.476-0.04-0.61-0.014l-0.255,0.05c-0.035,0.007-0.054-0.007-0.061-0.04l-0.112-0.031
			c-0.075-0.02-0.147-0.024-0.214-0.011c-0.068,0.013-0.119,0.022-0.152,0.029c-0.035,0.007-0.072-0.004-0.112-0.03
			c-0.048-0.063-0.108-0.103-0.183-0.124c-0.035,0.007-0.098,0.002-0.189-0.016c-0.091-0.017-0.154-0.022-0.188-0.017
			c-0.115-0.048-0.315-0.168-0.6-0.359l-0.183-0.122c-0.468-0.228-0.705-0.357-0.712-0.391c-0.609-0.233-0.957-0.571-1.043-1.014
			c-0.123-0.082-0.193-0.174-0.213-0.276l-0.08-0.407L8.71,53.317L8.692,52.95c-0.02-0.102-0.102-0.244-0.243-0.428
			c-0.141-0.185-0.222-0.328-0.241-0.43l-0.03-0.153c-0.014-0.067-0.025-0.171-0.035-0.311c-0.009-0.139-0.02-0.242-0.033-0.312
			l-0.03-0.152c-0.007-0.033,0.008-0.089,0.046-0.168c0.038-0.077,0.054-0.133,0.047-0.167l-0.02-0.103
			c-0.162-0.286-0.275-0.599-0.342-0.938l-0.199-1.02c-0.006-0.034-0.021-0.065-0.046-0.097c-0.023-0.03-0.038-0.063-0.045-0.098
			l-0.039-0.203c-0.04-0.204-0.051-0.343-0.029-0.419c-0.122-0.257-0.192-0.438-0.212-0.54c-0.053-0.271-0.048-0.521,0.014-0.743
			l-0.039-0.204c-0.1-0.51-0.126-0.822-0.078-0.937C6.98,45.453,6.888,45.33,6.854,45.16c-0.007-0.034-0.014-0.11-0.021-0.234
			c-0.006-0.122-0.016-0.217-0.028-0.284c-0.083-0.055-0.129-0.116-0.143-0.185c-0.026-0.135-0.034-0.312-0.023-0.525
			s0.011-0.354-0.002-0.422l-0.021-0.103c-0.006-0.033-0.057-0.103-0.146-0.209c-0.092-0.105-0.161-0.188-0.208-0.251l-0.039-0.203
			c-0.021-0.103-0.043-0.3-0.064-0.597c-0.022-0.295-0.05-0.527-0.083-0.697l-0.04-0.204c-0.007-0.033-0.03-0.108-0.07-0.225
			c-0.041-0.116-0.066-0.207-0.08-0.275l-0.02-0.103c-0.007-0.033,0-0.088,0.021-0.162s0.025-0.146,0.012-0.215
			c-0.006-0.033-0.032-0.116-0.076-0.25c-0.043-0.131-0.071-0.231-0.085-0.3c-0.02-0.102-0.02-0.189,0.002-0.266
			c-0.006-0.033-0.039-0.063-0.097-0.086c-0.058-0.023-0.09-0.054-0.096-0.088c-0.124-1.174-0.188-1.779-0.195-1.814
			c-0.014-0.067-0.001-0.175,0.042-0.325c0.041-0.148,0.052-0.274,0.032-0.376l-0.08-0.408c0.041-0.148,0.066-0.295,0.074-0.438
			c-0.048-0.062-0.055-0.096-0.021-0.103l0.041-0.061c-0.007-0.033-0.021-0.109-0.045-0.229c-0.023-0.118-0.005-0.202,0.057-0.248
			c-0.02-0.103-0.003-0.741,0.05-1.916c0.027-0.04,0.05-0.106,0.067-0.197c0.017-0.092,0.056-0.16,0.118-0.209l-0.02-0.102
			c-0.066-0.339,0.224-0.749,0.87-1.229C6.791,31.468,7.505,31.242,8.681,30.94z"/>
	</g>
	<g>
		<path fill="#5AB1AF" d="M63.748,11.876c0,0,64.972-15.655,57.844,55.147c-8.691,22.443-9.413,1.478-8.87-6.835
			c0.545-8.313,1.981-39.385-44.17-43.909C35.871,18.893,63.748,11.876,63.748,11.876z"/>
		<path fill="#231F20" d="M81.061,18.955c-0.238-8.86,0.27-15.766,2.36-11.769c2.089,4.004,1.285,11.665,0.298,14.198
			C82.731,23.916,81.061,18.955,81.061,18.955z"/>
		<path fill="#231F20" d="M88.745,87.118c0.45,8.318,0.159,15.027-1.876,11.924c-2.031-3.105-1.485-10.629-0.64-13.352
			C87.075,82.97,88.745,87.118,88.745,87.118z"/>
		<g>
			<path fill="#231F20" d="M100.311,15.437c0,0-4.049,2.746-1.067,4.084C102.221,20.86,103.149,16.027,100.311,15.437z"/>
			<path fill="#231F20" d="M106.541,23.977c0,0-4.05,2.747-1.065,4.082C108.452,29.4,109.383,24.566,106.541,23.977z"/>
			<path fill="#231F20" d="M113.285,32.815c0,0-4.052,2.748-1.067,4.086C115.198,38.238,116.127,33.406,113.285,32.815z"/>
			<path fill="#231F20" d="M89.552,10.941c0,0-4.052,2.747-1.069,4.085C91.462,16.364,92.394,11.53,89.552,10.941z"/>
		</g>
		<g>
			<path fill="#231F20" d="M117.822,69.12c0,0-4.773-3.482-5.08,0.453C112.436,73.504,118.31,72.592,117.822,69.12z"/>
			<path fill="#231F20" d="M113.057,80.856c0,0-4.772-3.48-5.076,0.455C107.673,85.245,113.544,84.329,113.057,80.856z"/>
			<path fill="#231F20" d="M103.357,90.955c0,0-4.776-3.487-5.077,0.45C97.972,95.335,103.845,94.42,103.357,90.955z"/>
			<path fill="#231F20" d="M118.543,55.054c0,0-4.771-3.483-5.075,0.454C113.165,59.442,119.032,58.526,118.543,55.054z"/>
		</g>
		<path fill="#231F20" d="M110.597,43.919c8.279-0.915,14.993-1.003,12.011,1.205c-2.986,2.201-10.526,2.081-13.295,1.391
			C106.547,45.819,110.597,43.919,110.597,43.919z"/>
	</g>
	<g>
		<path fill="#468885" d="M38.225,28.6l0.496-0.063c0.985-0.188,1.862-0.269,2.63-0.246c0.03-0.004,0.069,0.007,0.118,0.03
			c0.049,0.024,0.089,0.035,0.119,0.031c0.124,0.016,0.271,0.026,0.44,0.035s0.304,0.038,0.401,0.086
			c0.004,0.03,0.04,0.072,0.107,0.125c0.03-0.004,0.093,0.004,0.188,0.021c0.094,0.019,0.172,0.039,0.237,0.061
			c0.162,0.071,0.364,0.223,0.607,0.449c0.243,0.229,0.445,0.364,0.604,0.404l0.538,0.987c0.292,0.604,0.448,0.982,0.468,1.133
			c0.047,0.361,0.103,0.568,0.172,0.62c-0.02,0.095-0.019,0.217,0.001,0.367c0.046,0.36,0.183,0.589,0.409,0.682
			c0.012,0.091,0.009,0.191-0.008,0.299c-0.018,0.111-0.021,0.195-0.014,0.256c0.004,0.029,0.032,0.072,0.086,0.127
			c0.053,0.054,0.083,0.111,0.091,0.171c0.004,0.03-0.004,0.092-0.022,0.186c-0.018,0.096-0.023,0.173-0.016,0.233l0.012,0.09
			c0.008,0.059,0.05,0.093,0.127,0.098c0.076,0.006,0.118,0.024,0.122,0.053c0.004,0.031,0.001,0.069-0.009,0.116
			s-0.012,0.087-0.008,0.115c0.012,0.092,0.051,0.217,0.117,0.376c0.066,0.16,0.104,0.27,0.111,0.329l0.012,0.091
			c0.004,0.03-0.006,0.077-0.027,0.141c-0.023,0.065-0.029,0.127-0.022,0.188c0.016,0.12,0.01,0.197-0.017,0.231
			c0.068,0.052,0.124,0.183,0.166,0.392c0.041,0.209,0.097,0.34,0.165,0.392c-0.019,0.094-0.018,0.217,0.002,0.367
			c0.026,0.21,0.099,0.416,0.216,0.614c-0.019,0.095-0.012,0.263,0.019,0.503c0.039,0.301-0.011,0.506-0.149,0.616
			c0.004,0.029,0.016,0.074,0.039,0.132c0.023,0.06,0.036,0.104,0.04,0.133c0.023,0.181-0.035,0.326-0.173,0.436l0.058,0.451
			c0.039,0.302,0.021,0.519-0.054,0.649c0.003,0.029,0.044,0.117,0.125,0.26c-0.016,0.124-0.019,0.217-0.011,0.275
			c0.038,0.059,0.065,0.146,0.081,0.266c0.015,0.121,0.054,0.193,0.118,0.215c-0.09,0.012-0.173,0.084-0.248,0.215
			c0.012,0.091,0.065,0.206,0.161,0.347c0.093,0.142,0.146,0.257,0.158,0.347c0.004,0.031-0.011,0.095-0.045,0.19
			c-0.032,0.095-0.046,0.173-0.038,0.233l0.011,0.09c0.016,0.121,0.065,0.275,0.152,0.463c0.085,0.189,0.132,0.313,0.139,0.373
			c0.072,0.082,0.155,0.194,0.25,0.335c0.095,0.142,0.163,0.254,0.205,0.341c0.046,0.361,0.274,0.707,0.684,1.037
			c0.41,0.329,0.634,0.521,0.672,0.578c0.056-0.037,0.158-0.066,0.311-0.086c0.27-0.035,0.474,0.001,0.608,0.105
			c0.02,0.151,0.066,0.328,0.138,0.533c0.072,0.205,0.114,0.353,0.126,0.442c0.008,0.062-0.007,0.185-0.043,0.373
			c-0.022,0.065-0.062,0.13-0.112,0.198c-0.053,0.067-0.076,0.117-0.073,0.146c-0.026,0.034-0.044,0.082-0.051,0.145
			c-0.008,0.063-0.009,0.108-0.005,0.138c-0.131,0.171-0.19,0.301-0.179,0.391c-0.35,0.382-0.547,0.637-0.59,0.765l-0.091,0.012
			c-0.12,0.016-0.271,0.089-0.453,0.218c-0.184,0.131-0.335,0.204-0.455,0.22c-0.061,0.008-0.104,0.029-0.129,0.063
			c-0.26,0.124-0.45,0.195-0.569,0.211c-0.182,0.023-0.306,0.009-0.373-0.044c-0.264,0.095-0.624,0.096-1.079,0
			c-0.456-0.093-0.757-0.238-0.904-0.435c-0.249-0.028-0.6-0.243-1.047-0.646c-0.303-0.205-0.475-0.352-0.515-0.438l-0.063-0.13
			c-0.042-0.087-0.08-0.144-0.113-0.17c-0.034-0.025-0.167-0.101-0.396-0.224c-0.157,0.204-0.281,0.312-0.371,0.322
			c-0.061,0.008-0.108,0-0.142-0.027l0.041,0.316c-0.057,0.038-0.175,0.137-0.353,0.298c-0.179,0.161-0.327,0.249-0.447,0.264
			c-0.03,0.004-0.04,0.051-0.028,0.142l0.018,0.135c-0.281,0.19-0.487,0.385-0.613,0.584c-0.151,0.02-0.331,0.097-0.544,0.23
			c-0.213,0.137-0.394,0.211-0.544,0.23l-0.136,0.018c-0.199,0.118-0.464,0.197-0.795,0.24l-0.271,0.035
			c-0.029,0.004-0.077-0.005-0.141-0.027l-0.045,0.005l-0.361,0.047l-0.425-0.083c-0.248-0.029-0.392-0.072-0.429-0.129
			c-0.034-0.025-0.065-0.021-0.09,0.012c-0.027,0.035-0.056,0.054-0.086,0.058l-0.203-0.159c-0.155-0.01-0.345-0.062-0.57-0.155
			c-0.227-0.092-0.355-0.137-0.384-0.134c-0.035-0.025-0.184-0.106-0.445-0.241c-0.263-0.134-0.446-0.256-0.552-0.365
			c-0.271,0.035-0.566-0.003-0.887-0.115l-0.346-0.186c-0.034-0.025-0.14-0.134-0.316-0.325c-0.068-0.053-0.177-0.131-0.328-0.234
			c-0.151-0.102-0.277-0.186-0.377-0.25c-0.101-0.063-0.174-0.152-0.218-0.27c-0.099-0.049-0.35-0.338-0.754-0.866
			c-0.004-0.03-0.067-0.038-0.187-0.022c0.021-0.063,0.023-0.11,0.005-0.139c-0.02-0.027-0.03-0.057-0.034-0.087l-0.097-0.034
			l-0.096-0.033c-0.038-0.057-0.138-0.182-0.3-0.375c-0.163-0.192-0.257-0.379-0.28-0.561c-0.011-0.09-0.035-0.162-0.073-0.22
			l-0.051-0.04c-0.035-0.024-0.053-0.054-0.057-0.084l-0.018-0.136c-0.027-0.21-0.117-0.436-0.271-0.677
			c-0.154-0.24-0.238-0.42-0.253-0.541c-0.012-0.09-0.012-0.205,0.001-0.344c0.012-0.139,0.015-0.238,0.007-0.299
			s-0.037-0.118-0.09-0.173s-0.083-0.111-0.091-0.172l-0.104-0.446c-0.008-0.059-0.012-0.144-0.01-0.251
			c0.003-0.106,0.002-0.175-0.002-0.206c0.01-0.154,0-0.413-0.031-0.776c-0.032-0.362-0.043-0.62-0.031-0.776l0.085-0.057
			c0.029-0.003,0.043-0.02,0.039-0.05c0.021-0.064,0.002-0.106-0.063-0.13c-0.064-0.021-0.099-0.049-0.103-0.078
			c0.019-0.096,0.045-0.427,0.078-0.997c0.034-0.57,0.093-0.999,0.18-1.286c0.061-0.008,0.103-0.028,0.13-0.063
			c0.025-0.033,0.044-0.074,0.054-0.121c0.008-0.048,0.025-0.088,0.053-0.122c-0.008-0.061-0.03-0.103-0.063-0.129
			c-0.068-0.053-0.104-0.094-0.107-0.124c-0.022-0.182,0.03-0.355,0.162-0.525c-0.035-0.271,0.001-0.475,0.105-0.61l-0.012-0.09
			c-0.012-0.091,0.071-0.392,0.251-0.905c0.066-0.191,0.114-0.291,0.146-0.295c-0.031,0.004-0.051-0.038-0.063-0.129
			c0.108-0.105,0.21-0.324,0.305-0.658s0.21-0.57,0.346-0.711c0.163-0.632,0.419-1.139,0.769-1.521
			c-0.012-0.09,0.003-0.197,0.049-0.326c0.026-0.034,0.063-0.093,0.115-0.176c0.05-0.082,0.087-0.156,0.109-0.221l0.226-0.029
			c0.082-0.072,0.241-0.207,0.476-0.406c0.234-0.197,0.422-0.336,0.565-0.416c0.022-0.063,0.059-0.138,0.109-0.221
			c0.052-0.082,0.089-0.142,0.116-0.176c0.056-0.037,0.101-0.043,0.135-0.018c0.143-0.079,0.323-0.225,0.541-0.437
			c0.056-0.037,0.139-0.109,0.247-0.215c0.108-0.106,0.207-0.181,0.293-0.223c0.057-0.036,0.144-0.078,0.259-0.124
			c0.117-0.046,0.203-0.087,0.26-0.125l0.299-0.176c0.519-0.251,0.791-0.393,0.816-0.426c0.034,0.025,0.097,0.032,0.188,0.021
			c0.119-0.016,0.232-0.091,0.337-0.227c0.03-0.004,0.09-0.02,0.178-0.047c0.089-0.026,0.164-0.027,0.229-0.005
			C37.72,28.728,37.924,28.639,38.225,28.6z M37.502,35.487c-0.319,0.132-0.603,0.307-0.85,0.522
			c0.004,0.029-0.015,0.07-0.053,0.121c-0.04,0.051-0.043,0.09-0.008,0.116c-0.346,0.167-0.555,0.332-0.627,0.492
			c0.008,0.063-0.006,0.125-0.044,0.191c-0.037,0.064-0.053,0.113-0.049,0.144c-0.027,0.033-0.049,0.105-0.065,0.214
			c-0.016,0.11-0.051,0.198-0.104,0.267l0.068,0.174c-0.116,0.046-0.162,0.159-0.139,0.34c0.054,0.422,0.063,0.741,0.029,0.96
			c0.065,0.022,0.106,0.095,0.121,0.214c0.004,0.031-0.006,0.077-0.028,0.142s-0.044,0.137-0.063,0.215
			c-0.021,0.079-0.029,0.135-0.025,0.164c0.034,0.025,0.058,0.084,0.068,0.175c0.008,0.061-0.004,0.153-0.033,0.279
			c-0.029,0.127-0.04,0.22-0.032,0.278c0.016,0.121,0.104,0.218,0.267,0.288c-0.02,0.095,0.039,0.194,0.176,0.299
			c-0.054,0.068-0.076,0.179-0.072,0.33c0.004,0.153-0.036,0.265-0.118,0.337c0.076,0.113,0.121,0.229,0.137,0.35
			c0.008,0.061-0.006,0.185-0.044,0.373c0.004,0.029,0.039,0.057,0.102,0.078c0.064,0.023,0.1,0.049,0.104,0.078
			c-0.023,0.065,0.032,0.134,0.164,0.209c0.033,0.026,0.067,0.053,0.103,0.079c0.033,0.025,0.051,0.046,0.053,0.062
			s0.021,0.036,0.055,0.062c0.004,0.03,0.038,0.064,0.104,0.101c0.066,0.039,0.102,0.088,0.109,0.146
			c0.016,0.121,0.015,0.229-0.003,0.322c0.063,0.023,0.14,0.074,0.227,0.155c0.087,0.08,0.162,0.133,0.226,0.154l0.081,0.632
			c0.064,0.022,0.192,0.06,0.382,0.111c0.191,0.053,0.334,0.104,0.433,0.151c0.037,0.058,0.245,0.122,0.622,0.196
			c0.004,0.029,0.035,0.04,0.096,0.032c0.03-0.004,0.063,0.008,0.096,0.034c0.095,0.019,0.217,0.019,0.367-0.001
			c0.189,0.036,0.298,0.054,0.328,0.05s0.073-0.025,0.13-0.063c0.056-0.037,0.114-0.06,0.175-0.067l-0.018-0.136
			c0.326-0.318,0.532-0.62,0.617-0.905c0.026-0.034,0.067-0.07,0.124-0.109l0.085-0.056l-0.052-0.04l-0.006-0.045
			c-0.012-0.091,0.063-0.237,0.22-0.441l-0.006-0.046c-0.016-0.119,0.061-0.237,0.229-0.35c-0.068-0.053-0.089-0.095-0.063-0.13
			c0.053-0.067,0.086-0.164,0.102-0.288c-0.008-0.06-0.001-0.122,0.021-0.187c-0.004-0.029,0.021-0.078,0.072-0.147
			c0.053-0.067,0.09-0.134,0.112-0.197c0.184-0.483,0.269-0.769,0.257-0.859c0.028-0.249,0.072-0.391,0.129-0.43
			c-0.091,0.012-0.14-0.012-0.147-0.072c-0.02-0.15,0.027-0.264,0.14-0.34c-0.042-0.331-0.02-0.624,0.07-0.881
			c-0.091,0.012-0.139-0.013-0.146-0.073c0.017-0.094-0.001-0.237-0.055-0.429c-0.056-0.191-0.074-0.335-0.056-0.429
			c-0.003-0.029,0.008-0.047,0.039-0.051c0.029-0.004,0.043-0.021,0.039-0.052c-0.003-0.029-0.007-0.06-0.011-0.09l-0.052-0.04
			c-0.004-0.028,0.034-0.096,0.112-0.197c-0.004-0.03-0.01-0.075-0.018-0.136l-0.057-0.084l0.039-0.052
			c-0.008-0.06-0.014-0.105-0.018-0.136l-0.069-0.541c-0.05-0.392-0.115-0.657-0.194-0.801l0.039-0.052l0.039-0.051
			c-0.124-0.014-0.231-0.138-0.322-0.371l-0.361,0.046l-0.153-0.118l-0.09,0.012c-0.121,0.016-0.271-0.011-0.446-0.08
			c-0.178-0.069-0.312-0.099-0.401-0.087l-0.175,0.069c-0.069-0.052-0.132-0.074-0.192-0.066l-0.181,0.023
			c-0.181,0.022-0.314,0.056-0.4,0.096l-0.204-0.156l-0.136,0.018c-0.15,0.019-0.319,0.018-0.505-0.004
			C37.73,35.48,37.594,35.475,37.502,35.487z"/>
	</g>
	<g>
		<path fill="#5AB1AF" d="M56.914,25.406l0.06,0.042c0.784-0.136,1.652-0.198,2.603-0.187c0.079,0.058,0.123,0.103,0.129,0.137
			c0.124-0.092,0.204-0.142,0.238-0.147c0.068-0.012,0.167-0.002,0.296,0.028c0.127,0.03,0.226,0.041,0.293,0.028l0.103-0.018
			l0.241,0.17c0.41-0.07,0.662-0.026,0.761,0.132l0.204-0.035c0.341-0.059,0.577-0.012,0.71,0.14
			c0.102-0.018,0.219-0.002,0.35,0.046s0.229,0.065,0.299,0.054c0.086,0.091,0.229,0.207,0.43,0.348
			c0.205-0.035,0.406,0.063,0.604,0.29c0.197,0.229,0.366,0.352,0.51,0.359c0.103,0.194,0.191,0.302,0.266,0.324
			c0.075,0.232,0.28,0.452,0.614,0.657c0.334,0.207,0.517,0.395,0.547,0.565c0.045,0.063,0.097,0.106,0.153,0.131
			c0.058,0.026,0.089,0.056,0.095,0.09c0.029,0.17,0.12,0.34,0.271,0.507c0.152,0.166,0.24,0.318,0.264,0.454l0.026,0.154
			c0.006,0.034,0.045,0.063,0.12,0.084l0.103-0.019c0.045,0.063,0.094,0.188,0.143,0.372s0.104,0.342,0.161,0.472
			c0.058,0.131,0.144,0.223,0.257,0.272l0.036,0.205c0.012,0.067,0.041,0.187,0.088,0.354c0.046,0.169,0.078,0.302,0.096,0.405
			c-0.069,0.012-0.128,0.074-0.178,0.188c0.012,0.069,0.055,0.114,0.129,0.136c0.039,0.028,0.063,0.06,0.068,0.094
			c-0.021,0.074-0.016,0.214,0.02,0.417c0.071,0.41,0.023,0.647-0.141,0.71c0.006,0.035,0.021,0.067,0.043,0.099
			s0.038,0.064,0.044,0.098c-0.114,0.161-0.149,0.36-0.107,0.6l-0.161,0.29c-0.142,0.2-0.257,0.343-0.348,0.429l0.105,0.299
			c-0.023,0.074-0.065,0.134-0.128,0.179c-0.063,0.047-0.107,0.09-0.136,0.131l-0.074,0.486c-0.021,0.285-0.095,0.473-0.219,0.564
			c0.012,0.069-0.009,0.151-0.062,0.248c-0.055,0.097-0.076,0.18-0.064,0.248L66.52,37.08l-0.1,0.334
			c-0.125,0.092-0.279,0.32-0.462,0.686c-0.183,0.366-0.389,0.604-0.614,0.713c-0.028,0.04-0.049,0.132-0.059,0.273
			c-0.012,0.143-0.045,0.253-0.1,0.333l-0.104,0.018c-0.068,0.012-0.132,0.049-0.19,0.113c-0.061,0.063-0.124,0.1-0.191,0.111
			c0.006,0.034,0.004,0.078-0.005,0.132c-0.009,0.055-0.009,0.099-0.003,0.133c-0.022,0.075-0.089,0.147-0.2,0.219
			c-0.109,0.072-0.18,0.129-0.208,0.167c-0.063,0.047-0.145,0.078-0.247,0.097c-0.102,0.228-0.25,0.377-0.449,0.446
			c-0.021,0.074-0.086,0.165-0.19,0.27c-0.106,0.106-0.165,0.214-0.182,0.322c-0.449,0.253-0.731,0.547-0.849,0.884
			c0.115,0.261,0.182,0.442,0.199,0.545c0.036,0.205,0.025,0.453-0.029,0.744l0.06,0.042c0.033-0.006,0.07-0.004,0.107,0.007
			c0.037,0.013,0.058,0.034,0.063,0.068c-0.021,0.285-0.025,0.462-0.014,0.53c-0.027,0.04-0.07,0.101-0.127,0.181l-0.093,0.068
			c0.042,0.238,0.098,0.369,0.173,0.392c-0.028,0.04-0.041,0.121-0.037,0.243s-0.043,0.21-0.14,0.262
			c0.08,0.057,0.135,0.17,0.165,0.34c0.012,0.069,0.021,0.173,0.027,0.311c0.005,0.141,0.015,0.245,0.026,0.313l0.026,0.153
			c-0.027,0.041-0.035,0.146-0.022,0.32c0.012,0.175-0.01,0.3-0.066,0.38c0.126,0.119,0.169,0.271,0.132,0.452
			c0.006,0.034,0.036,0.064,0.094,0.09c0.058,0.024,0.091,0.072,0.103,0.14c-0.049,0.325-0.067,0.521-0.056,0.59
			c-0.102,0.228-0.151,0.447-0.149,0.658l-0.052,0.009c-0.063,0.047-0.111,0.072-0.145,0.078c-0.048,0.535-0.149,0.868-0.302,1
			c0.007,0.245-0.21,0.511-0.652,0.799c-0.249,0.184-0.426,0.283-0.527,0.301c-0.131,0.059-0.384,0.119-0.759,0.184
			c-0.193,0.105-0.307,0.159-0.341,0.164l-0.154,0.027c-0.102,0.018-0.232,0.023-0.393,0.016c-0.158-0.007-0.273-0.006-0.341,0.006
			l-0.103,0.018l-0.222-0.067l-0.154,0.026c-0.068,0.012-0.174,0.014-0.315,0.002c-0.143-0.01-0.282-0.003-0.418,0.021
			c-0.046-0.063-0.151-0.115-0.317-0.157c-0.166-0.041-0.27-0.076-0.308-0.105c-0.063,0.047-0.142,0.052-0.235,0.016
			c-0.095-0.036-0.159-0.052-0.192-0.046c-0.074-0.021-0.117-0.067-0.129-0.136c-0.587-0.145-0.906-0.37-0.96-0.677l-0.181-0.128
			c-0.006-0.033,0.008-0.062,0.038-0.086c0.031-0.021,0.026-0.048-0.013-0.076l-0.153,0.026c-0.331-0.893-0.533-1.454-0.608-1.688
			c-0.04-0.027-0.085-0.081-0.133-0.161c-0.05-0.078-0.11-0.129-0.185-0.152c-0.054-0.307-0.134-0.469-0.242-0.485
			c-0.006-0.032-0.012-0.067-0.018-0.102l0.043-0.061c-0.104-0.193-0.225-0.488-0.364-0.886s-0.212-0.613-0.218-0.648
			c-0.104-0.191-0.161-0.322-0.173-0.391c-0.018-0.104-0.012-0.174,0.016-0.214c-0.045-0.062-0.104-0.299-0.175-0.707L53.34,44.68
			c-0.018-0.103,0.001-0.193,0.057-0.273c-0.08-0.057-0.118-0.128-0.115-0.217c0.002-0.088-0.021-0.163-0.065-0.227
			c0.051-0.114,0.068-0.415,0.055-0.905c-0.064-0.375-0.069-0.603-0.014-0.683c-0.012-0.068-0.041-0.09-0.09-0.064
			c-0.048,0.027-0.075,0.022-0.081-0.012c-0.012-0.068,0.01-0.143,0.067-0.222c0.057-0.08,0.078-0.153,0.066-0.223
			c-0.086-0.091-0.148-0.15-0.188-0.179l-0.054-0.308l-0.018-0.102c-0.018-0.103-0.016-0.235,0.01-0.397s0.022-0.327-0.008-0.499
			l-0.01-0.366l-0.069-0.095c-0.039-0.027-0.063-0.059-0.068-0.093l-0.018-0.103c-0.048-0.273,0.008-0.563,0.165-0.872
			c-0.046-0.062-0.176-0.109-0.393-0.143c-0.053-0.097-0.042-0.239,0.03-0.427c-0.104-0.193-0.16-0.323-0.172-0.393
			c-0.012-0.068-0.02-0.261-0.021-0.576c-0.002-0.316-0.037-0.467-0.105-0.455c0.079-0.154,0.101-0.335,0.065-0.539
			c-0.041-0.238-0.122-0.4-0.242-0.485c-0.013-0.068-0.023-0.136-0.036-0.205c-0.012-0.067-0.041-0.133-0.086-0.196
			c0.106-0.193,0.141-0.409,0.1-0.648c-0.105-0.192-0.16-0.306-0.166-0.341l-0.079-0.461c0.028-0.038,0.055-0.088,0.081-0.146
			c0.024-0.057,0.051-0.104,0.08-0.146l-0.111-0.033c-0.035,0.006-0.055-0.008-0.061-0.042s-0.004-0.123,0.008-0.265
			c0.01-0.142,0.01-0.247-0.002-0.316c-0.006-0.033-0.055-0.113-0.147-0.238c0.097-0.051,0.138-0.164,0.127-0.338
			c-0.013-0.174,0.012-0.282,0.075-0.33c-0.006-0.033-0.015-0.084-0.026-0.152l-0.069-0.094c0.078-0.154,0.082-0.437,0.012-0.846
			l-0.018-0.103c-0.047-0.063-0.072-0.11-0.078-0.145c-0.006-0.033,0.016-0.116,0.063-0.248c0.048-0.131,0.064-0.23,0.053-0.299
			s-0.038-0.168-0.078-0.302s-0.064-0.219-0.07-0.252l-0.026-0.154c0.016-0.107,0.066-0.274,0.151-0.501
			c0.083-0.225,0.133-0.391,0.15-0.499c0.027-0.039,0.036-0.094,0.024-0.162c0.057-0.079,0.102-0.123,0.137-0.13
			c-0.006-0.033-0.009-0.095-0.007-0.183c0.003-0.088,0.019-0.152,0.047-0.193c0.022-0.073,0.092-0.174,0.211-0.3
			c0.118-0.126,0.189-0.226,0.212-0.3c0.028-0.039,0.104-0.113,0.225-0.223s0.211-0.203,0.268-0.285
			c0.068-0.012,0.148-0.059,0.238-0.146c0.09-0.086,0.169-0.134,0.238-0.146c0.067-0.012,0.203-0.044,0.405-0.098
			c0.202-0.052,0.35-0.104,0.447-0.156c0.767-0.237,1.232-0.388,1.397-0.452c0.034-0.006,0.091,0.02,0.171,0.076
			c0.193-0.104,0.408-0.176,0.648-0.218l0.152-0.026C56.889,25.568,56.932,25.507,56.914,25.406z M53.222,40.641
			c0.006,0.035-0.009,0.056-0.042,0.062l0.009,0.051C53.216,40.713,53.228,40.676,53.222,40.641z M60.594,28.407
			c-0.033,0.006-0.125,0.04-0.271,0.1c-0.148,0.061-0.276,0.083-0.384,0.066l-0.655,0.481c-0.091,0.087-0.115,0.249-0.074,0.487
			l0.045,0.256c0.006,0.033-0.024,0.163-0.093,0.385c0.006,0.035,0.037,0.108,0.092,0.222c0.055,0.114,0.065,0.173,0.03,0.179
			c0.013,0.069,0.062,0.148,0.147,0.238s0.131,0.154,0.137,0.188c0.047,0.273,0.101,0.475,0.158,0.604l0.009,0.051l0.069,0.095
			c0.045,0.063,0.083,0.179,0.112,0.349c0.029,0.172,0.051,0.29,0.063,0.358c0.039,0.028,0.138,0.292,0.294,0.792
			c0.093,0.125,0.15,0.256,0.174,0.392l0.018,0.104c0.067-0.012,0.142,0.01,0.223,0.066c0.067-0.012,0.12-0.064,0.156-0.159
			c0.036-0.094,0.072-0.144,0.106-0.15c0.04,0.028,0.1,0.019,0.18-0.03c0.078-0.049,0.135-0.076,0.17-0.082
			c0.038-0.183,0.192-0.455,0.464-0.817c0.271-0.364,0.399-0.684,0.388-0.964l0.126-0.18c-0.029-0.17-0.033-0.397-0.012-0.683
			c0.021-0.285,0.022-0.479,0.005-0.58c-0.071-0.41-0.135-0.68-0.192-0.811c-0.029-0.17-0.145-0.326-0.345-0.468
			c-0.12-0.085-0.276-0.181-0.471-0.288c-0.12-0.085-0.215-0.12-0.282-0.108l-0.12-0.085C60.785,28.392,60.697,28.389,60.594,28.407
			z"/>
	</g>
	<g>
		<path fill="#231F20" d="M98.819,26.641c0.02,0.039,0.098,0.097,0.235,0.174c0.138,0.076,0.21,0.148,0.222,0.217l0.176,0.057
			c0.234,0.076,0.371,0.154,0.411,0.231c0.029,0.009,0.049,0,0.059-0.03l0.044,0.015c0.088,0.028,0.231,0.108,0.433,0.237
			c0.201,0.131,0.347,0.209,0.434,0.238c0.089,0.028,0.167,0.037,0.234,0.027c-0.009,0.029-0.019,0.059-0.028,0.088
			c-0.009,0.029-0.019,0.059-0.028,0.088l0.264,0.085c0.02,0.04,0.01,0.069-0.028,0.089L101.23,28.2
			c0.088,0.029,0.151,0.083,0.191,0.16c0.039,0.078,0.089,0.125,0.148,0.145c0.02,0.039,0.059,0.117,0.118,0.233
			s0.075,0.219,0.047,0.307l0.089,0.175c-0.02,0.059-0.028,0.137-0.026,0.234c0,0.098-0.005,0.162-0.014,0.19
			c-0.028,0.087-0.063,0.215-0.099,0.381c-0.039,0.167-0.057,0.298-0.055,0.396c-0.001,0.098,0.018,0.217,0.053,0.357
			c0.035,0.142,0.044,0.242,0.025,0.301c-0.01,0.029-0.034,0.054-0.074,0.072c-0.028-0.009-0.048,0.002-0.057,0.03
			c-0.02,0.06-0.01,0.151,0.031,0.278c0.039,0.126,0.051,0.219,0.031,0.277c-0.01,0.029-0.072,0.073-0.188,0.133
			s-0.185,0.119-0.203,0.178c-0.02,0.059-0.01,0.102,0.029,0.131s0.055,0.059,0.045,0.088c-0.106,0.225-0.138,0.426-0.097,0.6
			l-0.29,0.295l-0.351,0.179c0.001,0.098,0.074,0.171,0.222,0.218c0.02,0.039,0.011,0.142-0.026,0.307
			c-0.038,0.167-0.038,0.289,0.003,0.367c-0.155,0.273-0.245,0.455-0.273,0.543c-0.038,0.117-0.048,0.195-0.027,0.234l-0.028,0.088
			c-0.02,0.059-0.115,0.156-0.29,0.295c0.021,0.137-0.008,0.322-0.084,0.556c-0.076,0.235-0.088,0.426-0.038,0.571
			c-0.01,0.029-0.051,0.081-0.123,0.154c-0.073,0.074-0.084,0.136-0.035,0.184c-0.04,0.02-0.089,0.02-0.146,0.001l-0.071,0.22
			c-0.04,0.02-0.103,0.016-0.189-0.013c-0.01,0.028-0.003,0.105,0.022,0.226c0.025,0.123,0.029,0.213,0.011,0.271
			c-0.038,0.117-0.122,0.172-0.247,0.162c-0.02,0.06-0.027,0.332-0.023,0.82c-0.029-0.01-0.064-0.005-0.102,0.016l-0.06,0.029
			l0.078,0.512c-0.009,0.029-0.043,0.059-0.102,0.088s-0.092,0.061-0.102,0.088c-0.009,0.03,0.001,0.146,0.032,0.352
			c-0.153,0.274-0.26,0.5-0.317,0.676c-0.095,0.293-0.122,0.576-0.079,0.849c-0.117,0.06-0.194,0.148-0.232,0.266
			c-0.019,0.06-0.028,0.186-0.025,0.38c-0.029,0.088-0.103,0.113-0.219,0.075c-0.047,0.342-0.035,0.556,0.034,0.644
			c-0.019,0.059-0.077,0.088-0.175,0.089l-0.159,0.191c-0.009,0.029-0.026,0.057-0.051,0.081s-0.031,0.07-0.021,0.139
			c-0.019,0.06,0.015,0.103,0.104,0.131c-0.086,0.264-0.113,0.4-0.084,0.41c-0.039,0.02-0.068,0.061-0.087,0.118
			c-0.01,0.03,0,0.097,0.03,0.204l0.046,0.16c-0.039,0.021-0.101,0.058-0.183,0.111c-0.083,0.055-0.143,0.092-0.182,0.111
			c-0.01,0.029,0.006,0.084,0.046,0.161c0.039,0.077,0.067,0.136,0.089,0.175c-0.125,0.186-0.222,0.285-0.29,0.295l-0.057,0.176
			c-0.038,0.117-0.145,0.342-0.316,0.676c0.078,0.155,0.095,0.307,0.048,0.453c-0.02,0.059-0.067,0.107-0.146,0.146
			c-0.095,0.294-0.196,0.504-0.302,0.632c0.019,0.039,0.012,0.11-0.021,0.212c-0.033,0.104-0.044,0.188-0.033,0.257l-0.233,0.118
			c-0.067,0.206-0.124,0.334-0.173,0.383l0.089,0.028c0.059,0.019,0.082,0.043,0.073,0.071c0.021,0.137-0.041,0.279-0.186,0.427
			c-0.019,0.255-0.05,0.454-0.098,0.601l-0.057,0.176c0.021,0.233-0.047,0.391-0.202,0.47c0.013,0.263-0.024,0.526-0.109,0.791
			l-0.043,0.132c0.038,0.077,0.038,0.183-0.005,0.314s-0.054,0.217-0.034,0.256c-0.039,0.02-0.087,0.068-0.146,0.148
			c-0.058,0.078-0.106,0.127-0.145,0.146c-0.038,0.117-0.077,0.186-0.115,0.206c-0.069,0.009-0.153,0.047-0.256,0.112
			c-0.102,0.064-0.172,0.105-0.211,0.125c-0.038,0.117-0.119,0.221-0.246,0.311c-0.125,0.088-0.203,0.177-0.231,0.265l-0.058,0.029
			c-0.029-0.009-0.059-0.019-0.088-0.028c0.01,0.068-0.034,0.15-0.131,0.25l-0.16,0.045c-0.115,0.06-0.204,0.08-0.262,0.061
			c-0.01,0.029-0.054,0.063-0.131,0.104c-0.078,0.039-0.142,0.084-0.189,0.133c-0.059-0.019-0.14-0.02-0.241-0.005
			c-0.103,0.016-0.168,0.019-0.198,0.009c-0.028-0.01-0.068-0.039-0.117-0.086c-0.205,0.03-0.394,0.018-0.57-0.039
			c-0.176-0.057-0.43-0.205-0.758-0.44c-0.328-0.236-0.596-0.388-0.801-0.454c-0.059-0.02-0.088-0.053-0.089-0.102
			c0-0.049-0.016-0.078-0.044-0.088l-0.176-0.057c-0.137,0.021-0.265,0.012-0.381-0.025c-0.352-0.115-0.671-0.381-0.957-0.797
			c0.038-0.117,0.028-0.186-0.03-0.205l-0.177-0.057c-0.021-0.039-0.062-0.135-0.127-0.283c-0.064-0.152-0.111-0.28-0.142-0.387
			c0.009-0.03,0.032-0.055,0.072-0.074l0.088,0.028c-0.119-0.233-0.181-0.495-0.182-0.788c0.01-0.029,0.041-0.053,0.094-0.066
			c0.054-0.016,0.086-0.037,0.095-0.066c0.01-0.029,0.012-0.086,0.006-0.169c-0.005-0.083,0.007-0.119,0.035-0.11
			c0.02-0.059-0.021-0.137-0.119-0.232c0.039-0.02,0.056-0.071,0.05-0.154c-0.005-0.082-0.002-0.139,0.008-0.168
			c0.057-0.078,0.09-0.133,0.1-0.162l0.086-0.264c0.009-0.029,0.011-0.086,0.007-0.168c-0.007-0.084,0-0.154,0.019-0.213
			l0.028-0.088l-0.029-0.059c0.01-0.029,0.02-0.059,0.028-0.088c0.01-0.029,0.031-0.119,0.064-0.271
			c0.032-0.15,0.043-0.261,0.033-0.328c0.038-0.02,0.092-0.084,0.159-0.191s0.12-0.172,0.16-0.191l-0.046-0.307
			c0.096-0.099,0.153-0.177,0.172-0.236l0.06-0.029c0.01-0.028,0.019-0.059,0.028-0.088l0.043-0.132
			c0.019-0.059,0.04-0.149,0.063-0.271c0.022-0.122,0.049-0.228,0.077-0.315s0.083-0.207,0.166-0.359
			c0.08-0.151,0.136-0.271,0.164-0.359l0.043-0.132c0.019-0.059,0.009-0.127-0.031-0.205c0.229-0.704,0.415-1.179,0.559-1.423
			c0.01-0.029,0.034-0.054,0.072-0.074l0.06-0.029c-0.012-0.068,0.005-0.168,0.048-0.301c0.042-0.132,0.073-0.227,0.093-0.286
			l-0.016-0.102c-0.021-0.038-0.024-0.073-0.015-0.103s0.047-0.098,0.114-0.205c0.067-0.108,0.11-0.191,0.13-0.25
			c-0.04-0.176-0.022-0.283,0.056-0.322c-0.02-0.039-0.015-0.103,0.014-0.19c0.02-0.059,0.049-0.13,0.093-0.214
			c0.043-0.082,0.069-0.139,0.079-0.168c0.019-0.059,0.04-0.148,0.063-0.271c0.022-0.121,0.04-0.197,0.05-0.227
			c0.038-0.117,0.114-0.205,0.232-0.266c-0.012-0.068-0.052-0.121-0.119-0.16c-0.068-0.038-0.114-0.076-0.133-0.115
			c-0.039,0.02-0.206-0.018-0.499-0.113c-0.087-0.028-0.151-0.032-0.188-0.013c-0.051-0.048-0.148-0.097-0.295-0.144
			c-0.059-0.02-0.188-0.045-0.388-0.078c-0.201-0.032-0.355-0.082-0.462-0.149c-0.029-0.009-0.081-0.05-0.154-0.122
			c-0.075-0.073-0.127-0.114-0.155-0.123c-0.029-0.01-0.082-0.027-0.154-0.051c-0.073-0.023-0.12-0.055-0.14-0.094l-0.029-0.059
			c-0.029-0.01-0.059-0.02-0.088-0.028l-0.133-0.188l-0.221-0.072l-0.604-0.535c-0.118-0.039-0.196-0.047-0.235-0.027
			c-0.069-0.088-0.241-0.232-0.516-0.435s-0.451-0.382-0.53-0.537l-0.221-0.071c-0.059-0.116-0.141-0.264-0.245-0.444
			c-0.104-0.179-0.202-0.349-0.296-0.509c-0.095-0.16-0.162-0.327-0.202-0.504c-0.267-0.377-0.4-0.664-0.402-0.859
			c-0.059-0.115-0.11-0.311-0.149-0.583c-0.043-0.272-0.068-0.442-0.078-0.512l0.057-0.175c-0.041-0.078-0.065-0.15-0.075-0.22
			l0.015-0.044l0.072-0.074c-0.103-0.486-0.067-0.994,0.104-1.521l0.143-0.439c0.02-0.059,0.034-0.127,0.043-0.205
			c0.008-0.078,0.018-0.132,0.027-0.161c0.028-0.089,0.063-0.142,0.102-0.162c0.009-0.028,0.033-0.127,0.07-0.293
			s0.081-0.273,0.129-0.323l0.218-0.222c0.009-0.028,0.012-0.061,0.007-0.095c-0.007-0.033-0.003-0.065,0.007-0.096
			c0.01-0.028,0.027-0.063,0.057-0.102c0.029-0.04,0.048-0.074,0.058-0.104c0.019-0.059,0.03-0.145,0.035-0.256
			c0.003-0.112,0.021-0.213,0.049-0.301l0.201-0.47l0.043-0.132c0.076-0.234,0.133-0.361,0.171-0.382l0.028-0.088
			c0.02-0.059,0.066-0.156,0.145-0.294c0.076-0.137,0.13-0.249,0.158-0.338l0.043-0.131c0.028,0.009,0.067,0.014,0.117,0.014
			c0.049-0.001,0.092-0.012,0.131-0.031c0.01-0.028,0.002-0.056-0.022-0.08c-0.024-0.023-0.013-0.061,0.036-0.109
			c0.009-0.029,0.045-0.042,0.109-0.038c0.063,0.005,0.1-0.008,0.108-0.037c-0.021-0.137-0.017-0.249,0.013-0.337l0.072-0.073
			c0.048-0.049,0.082-0.103,0.101-0.162l0.028-0.088l0.104-0.016c0.047-0.05,0.093-0.14,0.136-0.271s0.103-0.218,0.182-0.257
			c0.095-0.293,0.171-0.432,0.23-0.412c0.038-0.117,0.09-0.206,0.159-0.265c0.066-0.059,0.159-0.118,0.275-0.179
			c0.116-0.059,0.197-0.113,0.247-0.162c0.156,0.019,0.513,0.068,1.068,0.152c0.029,0.01,0.064,0.053,0.104,0.131
			c0.097-0.001,0.258,0.002,0.482,0.01l0.088,0.029l0.703,0.081c0.205,0.067,0.435,0.206,0.689,0.419
			c0.029,0.01,0.079,0.01,0.147-0.002c0.106,0.068,0.236,0.174,0.383,0.319c0.147,0.145,0.261,0.247,0.339,0.304
			c-0.01,0.127,0.039,0.28,0.143,0.459c0.104,0.181,0.147,0.348,0.129,0.505l0.075,0.218c-0.01,0.03-0.042,0.076-0.095,0.141
			c-0.053,0.063-0.074,0.129-0.064,0.197c-0.01,0.029,0.004,0.066,0.038,0.109c0.035,0.044,0.046,0.081,0.037,0.109l-0.015,0.045
			c-0.037,0.02-0.062,0.045-0.071,0.073c-0.01,0.03,0,0.049,0.028,0.058l0.017,0.103l-0.059,0.03l-0.071,0.22
			c0.187,0.126,0.232,0.335,0.137,0.628c-0.028,0.088-0.066,0.156-0.114,0.205c-0.009,0.03,0,0.049,0.029,0.059l0.074,0.072
			c0,0.098-0.03,0.218-0.093,0.359c-0.063,0.143-0.088,0.247-0.078,0.315c-0.106,0.128-0.145,0.245-0.114,0.353
			c-0.059-0.02-0.107-0.02-0.146,0l-0.097,0.747c-0.077,0.138-0.152,0.323-0.229,0.558c-0.047,0.147-0.147,0.553-0.298,1.217
			c-0.115,0.059-0.179,0.201-0.187,0.426c-0.01,0.029-0.033,0.054-0.071,0.074l-0.06,0.029c-0.038,0.02-0.048,0.05-0.028,0.088
			l0.074,0.072c0.02,0.039,0.008,0.076-0.036,0.109c-0.044,0.035-0.069,0.068-0.078,0.097c0.019,0.039,0,0.146-0.058,0.322
			l0.03,0.058c0.01,0.068,0.011,0.117,0.002,0.146l-0.073,0.074c-0.134,0.411-0.16,0.693-0.08,0.849
			c-0.02,0.06-0.034,0.128-0.043,0.205c-0.009,0.078-0.018,0.132-0.027,0.161l-0.028,0.088c0.06,0.117,0.084,0.287,0.077,0.512
			c-0.008,0.225,0.003,0.391,0.033,0.496l0.311,0.393c0.049,0.049,0.111,0.053,0.19,0.014c0.077-0.04,0.146-0.051,0.204-0.031
			l0.232-0.266c0.136-0.021,0.281-0.143,0.436-0.369c0.153-0.225,0.254-0.362,0.304-0.412c0.028,0.01,0.14-0.035,0.335-0.135
			c-0.02-0.037-0.021-0.086-0.001-0.146c0.019-0.059,0.019-0.107-0.001-0.146c0.067-0.01,0.146-0.074,0.231-0.192
			c0.088-0.117,0.185-0.19,0.291-0.222c0.009-0.028,0.051-0.081,0.123-0.154s0.085-0.135,0.036-0.183
			c0.077-0.04,0.168-0.148,0.275-0.324c0.104-0.176,0.211-0.279,0.318-0.311c-0.051-0.048-0.064-0.101-0.045-0.16
			c0.019-0.059,0.061-0.093,0.13-0.104c-0.02-0.038-0.021-0.087-0.002-0.146c0.02-0.059,0.07-0.139,0.152-0.242
			c0.083-0.103,0.128-0.17,0.138-0.199l0.014-0.044c-0.02-0.038-0.024-0.072-0.016-0.103c0.086-0.264,0.264-0.563,0.534-0.896
			c-0.021-0.136-0.021-0.232-0.003-0.292c0.02-0.058,0.08-0.169,0.18-0.331c0.103-0.161,0.166-0.286,0.195-0.374
			c0.037-0.117,0.087-0.296,0.149-0.535c0.061-0.239,0.11-0.418,0.148-0.535l0.028-0.088c0.039-0.019,0.063-0.044,0.072-0.074
			l0.043-0.132c0.028-0.088,0.059-0.23,0.092-0.432c0.032-0.2,0.063-0.345,0.092-0.432l0.043-0.133
			c0.01-0.029,0.037-0.068,0.086-0.118c0.049-0.049,0.077-0.088,0.087-0.118l0.058-0.176c0.009-0.028,0.033-0.053,0.073-0.072
			c0.076-0.041,0.12-0.074,0.129-0.104l0.696-0.797c0.399-0.032,0.745-0.001,1.039,0.094C98.762,26.768,98.791,26.729,98.819,26.641
			z"/>
	</g>
	<g>
		<path fill="#F6921E" d="M74.395,25.242l0.051,0.039c0.699-0.085,1.468-0.101,2.308-0.051c0.068,0.056,0.104,0.098,0.108,0.127
			c0.113-0.075,0.186-0.116,0.217-0.12c0.061-0.007,0.146,0.006,0.259,0.039c0.111,0.032,0.198,0.045,0.26,0.038l0.091-0.012
			l0.205,0.161c0.363-0.045,0.586,0.005,0.665,0.149l0.184-0.022c0.303-0.037,0.511,0.016,0.619,0.155
			c0.092-0.011,0.194,0.009,0.309,0.056c0.112,0.049,0.2,0.068,0.262,0.061c0.072,0.083,0.193,0.192,0.364,0.326
			c0.182-0.022,0.355,0.071,0.52,0.284c0.165,0.211,0.31,0.325,0.436,0.34c0.083,0.175,0.156,0.274,0.222,0.297
			c0.055,0.209,0.227,0.412,0.513,0.608s0.439,0.37,0.457,0.522c0.038,0.058,0.082,0.099,0.132,0.123
			c0.048,0.026,0.075,0.053,0.079,0.083c0.019,0.152,0.091,0.306,0.219,0.459c0.126,0.154,0.197,0.293,0.212,0.414l0.017,0.137
			c0.004,0.031,0.037,0.058,0.102,0.08l0.091-0.012c0.038,0.058,0.075,0.169,0.111,0.334c0.035,0.167,0.076,0.308,0.12,0.426
			c0.045,0.118,0.119,0.201,0.217,0.25l0.022,0.183c0.008,0.063,0.027,0.167,0.062,0.317s0.057,0.271,0.068,0.361
			c-0.063,0.008-0.118,0.062-0.166,0.159c0.007,0.061,0.042,0.103,0.107,0.126c0.033,0.027,0.053,0.055,0.057,0.085
			c-0.023,0.066-0.023,0.188-0.001,0.371c0.044,0.365-0.008,0.571-0.156,0.62c0.004,0.031,0.015,0.06,0.034,0.088
			c0.019,0.03,0.03,0.06,0.033,0.09c-0.105,0.137-0.146,0.311-0.121,0.523l-0.154,0.25c-0.133,0.171-0.242,0.292-0.326,0.364
			l0.08,0.268c-0.024,0.065-0.064,0.117-0.12,0.153c-0.06,0.038-0.101,0.074-0.126,0.108l-0.088,0.427
			c-0.031,0.252-0.104,0.414-0.218,0.49c0.008,0.061-0.015,0.132-0.065,0.216c-0.053,0.083-0.074,0.156-0.066,0.216l-0.228,0.028
			l-0.104,0.29c-0.115,0.076-0.262,0.271-0.438,0.586c-0.178,0.315-0.369,0.516-0.573,0.602c-0.027,0.035-0.05,0.115-0.065,0.239
			c-0.015,0.125-0.049,0.223-0.102,0.291l-0.092,0.011c-0.061,0.008-0.119,0.037-0.174,0.091c-0.056,0.052-0.113,0.083-0.174,0.091
			c0.003,0.03,0,0.069-0.01,0.115c-0.01,0.049-0.013,0.088-0.009,0.117c-0.022,0.065-0.085,0.128-0.186,0.186
			c-0.101,0.059-0.166,0.105-0.192,0.139c-0.057,0.038-0.131,0.063-0.222,0.073c-0.099,0.198-0.238,0.323-0.416,0.376
			c-0.024,0.064-0.084,0.141-0.182,0.229c-0.097,0.089-0.155,0.181-0.174,0.275c-0.407,0.204-0.671,0.452-0.789,0.744
			c0.091,0.236,0.143,0.399,0.153,0.491c0.022,0.182,0.002,0.401-0.059,0.655l0.051,0.039c0.029-0.003,0.061,0.001,0.094,0.012
			c0.031,0.012,0.05,0.033,0.054,0.063c-0.031,0.251-0.043,0.407-0.035,0.467c-0.027,0.035-0.067,0.086-0.12,0.153l-0.086,0.057
			c0.025,0.213,0.069,0.331,0.136,0.354c-0.027,0.034-0.042,0.105-0.043,0.213c-0.003,0.109-0.048,0.184-0.136,0.225
			c0.068,0.054,0.111,0.157,0.13,0.31c0.008,0.061,0.011,0.152,0.011,0.275c0,0.124,0.003,0.217,0.011,0.276l0.017,0.137
			c-0.025,0.034-0.038,0.128-0.034,0.281c0.003,0.155-0.022,0.266-0.075,0.334c0.105,0.11,0.138,0.246,0.095,0.405
			c0.004,0.03,0.031,0.058,0.08,0.082c0.05,0.026,0.077,0.068,0.084,0.129c-0.057,0.285-0.083,0.458-0.075,0.519
			c-0.099,0.197-0.152,0.389-0.161,0.574l-0.046,0.006c-0.057,0.039-0.101,0.059-0.13,0.063c-0.067,0.471-0.171,0.761-0.311,0.87
			c-0.005,0.218-0.208,0.442-0.611,0.678c-0.229,0.15-0.39,0.232-0.479,0.243c-0.118,0.045-0.346,0.088-0.679,0.129
			c-0.175,0.084-0.278,0.127-0.31,0.131l-0.137,0.017c-0.09,0.011-0.205,0.01-0.347-0.005c-0.141-0.014-0.241-0.017-0.302-0.01
			l-0.091,0.012l-0.194-0.068l-0.137,0.017c-0.061,0.007-0.154,0.003-0.279-0.013c-0.126-0.015-0.249-0.016-0.37-0.001
			c-0.038-0.058-0.129-0.106-0.272-0.151c-0.145-0.045-0.234-0.08-0.268-0.107c-0.059,0.039-0.128,0.039-0.208,0.003
			c-0.082-0.036-0.139-0.053-0.168-0.049c-0.065-0.023-0.101-0.065-0.108-0.126c-0.512-0.153-0.785-0.367-0.818-0.641L72.14,47.36
			c-0.004-0.028,0.008-0.054,0.037-0.072c0.027-0.02,0.025-0.042-0.008-0.07l-0.137,0.018c-0.253-0.802-0.407-1.307-0.463-1.517
			c-0.035-0.026-0.072-0.075-0.111-0.149c-0.039-0.071-0.092-0.119-0.157-0.143c-0.033-0.273-0.097-0.419-0.192-0.439
			c-0.003-0.03-0.007-0.061-0.011-0.091l0.04-0.051c-0.083-0.176-0.177-0.44-0.282-0.8c-0.105-0.356-0.16-0.55-0.163-0.58
			c-0.083-0.177-0.128-0.294-0.136-0.354c-0.011-0.092-0.004-0.153,0.023-0.188c-0.038-0.057-0.079-0.268-0.123-0.632l-0.068-0.178
			c-0.012-0.091,0.01-0.171,0.063-0.239c-0.068-0.053-0.101-0.118-0.093-0.197c0.005-0.076-0.011-0.144-0.049-0.201
			c0.05-0.099,0.078-0.363,0.088-0.798c-0.041-0.335-0.034-0.535,0.019-0.604c-0.007-0.06-0.032-0.08-0.075-0.06
			c-0.044,0.021-0.068,0.017-0.072-0.015c-0.008-0.06,0.016-0.125,0.068-0.194c0.055-0.066,0.077-0.132,0.069-0.192
			c-0.072-0.083-0.125-0.14-0.159-0.166l-0.033-0.273l-0.011-0.091c-0.011-0.092-0.002-0.208,0.026-0.351
			c0.029-0.142,0.034-0.289,0.016-0.441l0.006-0.326l-0.056-0.085c-0.034-0.025-0.054-0.055-0.058-0.085l-0.011-0.092
			c-0.029-0.242,0.031-0.497,0.186-0.762c-0.039-0.059-0.152-0.104-0.343-0.146c-0.04-0.087-0.025-0.212,0.048-0.375
			c-0.084-0.175-0.129-0.293-0.137-0.354c-0.007-0.062-0.005-0.231,0.008-0.51c0.013-0.279-0.012-0.415-0.073-0.407
			c0.076-0.133,0.104-0.29,0.081-0.474c-0.025-0.212-0.09-0.359-0.192-0.438c-0.007-0.062-0.015-0.121-0.021-0.183
			c-0.008-0.062-0.031-0.119-0.068-0.178c0.104-0.166,0.142-0.355,0.115-0.568c-0.082-0.176-0.126-0.278-0.129-0.309l-0.051-0.411
			c0.027-0.033,0.053-0.075,0.077-0.124c0.024-0.05,0.052-0.091,0.077-0.126l-0.097-0.034c-0.03,0.003-0.048-0.01-0.052-0.041
			c-0.003-0.029,0.003-0.107,0.019-0.232s0.02-0.218,0.013-0.279c-0.004-0.029-0.043-0.103-0.12-0.218
			c0.089-0.04,0.13-0.139,0.127-0.293c-0.004-0.152,0.023-0.248,0.081-0.287c-0.004-0.03-0.01-0.075-0.017-0.137l-0.056-0.085
			c0.075-0.133,0.092-0.382,0.047-0.747l-0.011-0.091c-0.039-0.057-0.059-0.102-0.063-0.132s0.019-0.102,0.065-0.216
			c0.048-0.112,0.069-0.2,0.062-0.262c-0.008-0.061-0.026-0.15-0.057-0.271c-0.03-0.119-0.047-0.195-0.051-0.227l-0.017-0.137
			c0.02-0.094,0.07-0.239,0.154-0.435c0.085-0.196,0.137-0.341,0.156-0.436c0.026-0.034,0.036-0.082,0.029-0.143
			c0.053-0.068,0.095-0.104,0.124-0.108c-0.003-0.029-0.002-0.084,0.004-0.162c0.006-0.077,0.022-0.133,0.049-0.167
			c0.023-0.065,0.09-0.15,0.201-0.257c0.109-0.106,0.177-0.19,0.199-0.256c0.027-0.033,0.097-0.096,0.209-0.188
			c0.112-0.09,0.194-0.169,0.249-0.238c0.061-0.007,0.132-0.047,0.217-0.118c0.084-0.073,0.156-0.112,0.217-0.12
			c0.061-0.007,0.182-0.029,0.361-0.066c0.181-0.037,0.314-0.077,0.402-0.119c0.688-0.177,1.106-0.289,1.256-0.338
			c0.029-0.004,0.079,0.021,0.146,0.074c0.176-0.083,0.37-0.137,0.582-0.163l0.137-0.017C74.365,25.383,74.405,25.333,74.395,25.242
			z M70.461,38.541c0.004,0.031-0.009,0.047-0.039,0.051l0.006,0.046C70.454,38.603,70.465,38.572,70.461,38.541z M77.514,28.054
			c-0.03,0.004-0.111,0.029-0.246,0.075c-0.133,0.049-0.246,0.063-0.341,0.042l-0.601,0.397c-0.083,0.072-0.111,0.215-0.086,0.428
			l0.028,0.228c0.004,0.031-0.029,0.143-0.098,0.336c0.004,0.03,0.025,0.098,0.069,0.199c0.044,0.104,0.051,0.157,0.02,0.16
			c0.008,0.061,0.047,0.134,0.12,0.217c0.07,0.083,0.109,0.142,0.113,0.172c0.029,0.243,0.066,0.425,0.111,0.542l0.006,0.045
			l0.057,0.086c0.038,0.057,0.066,0.16,0.085,0.313s0.031,0.26,0.039,0.32c0.034,0.027,0.108,0.265,0.226,0.713
			c0.075,0.114,0.12,0.231,0.136,0.353l0.011,0.092c0.062-0.008,0.125,0.017,0.193,0.069c0.061-0.007,0.11-0.052,0.146-0.134
			c0.037-0.08,0.07-0.124,0.102-0.128c0.033,0.027,0.087,0.021,0.158-0.02c0.072-0.039,0.123-0.062,0.154-0.065
			c0.043-0.158,0.191-0.393,0.447-0.701c0.255-0.31,0.383-0.587,0.385-0.834l0.119-0.153c-0.018-0.152-0.013-0.353,0.02-0.605
			c0.03-0.249,0.04-0.42,0.029-0.512c-0.045-0.365-0.09-0.605-0.134-0.724c-0.019-0.151-0.113-0.295-0.284-0.429
			c-0.103-0.079-0.237-0.171-0.403-0.274c-0.103-0.081-0.185-0.116-0.245-0.109l-0.104-0.08
			C77.683,28.049,77.604,28.043,77.514,28.054z"/>
	</g>
	<g>
		<path fill="#231F20" d="M20.681,62.427c0.007,0.034,0.213,0.099,0.62,0.196c0.21,0.171,0.409,0.29,0.6,0.359
			c0.02,0.102,0.104,0.218,0.253,0.348c0.149,0.129,0.236,0.262,0.263,0.398c0.203,0.137,0.298,0.259,0.283,0.367
			c0.041,0.028,0.099,0.053,0.175,0.071l0.111,0.032c0.06,0.13,0.19,0.298,0.389,0.507c0.2,0.207,0.323,0.431,0.37,0.668
			c0.182,0.035,0.35,0.214,0.501,0.536c0.151,0.323,0.267,0.513,0.349,0.566c-0.069,0.368-0.101,0.568-0.095,0.601
			c0.007,0.035,0.062,0.042,0.164,0.022l0.111,0.03c0.046,0.063,0.1,0.148,0.156,0.261c0.057,0.113,0.109,0.199,0.157,0.262
			c0.046,0.061,0.121,0.081,0.224,0.062c-0.027,0.041-0.031,0.112-0.012,0.214c0.007,0.034,0.039,0.106,0.097,0.219
			c0.056,0.113,0.073,0.206,0.055,0.281c0.007,0.033-0.009,0.09-0.048,0.167c-0.037,0.078-0.049,0.15-0.036,0.219
			c-0.021,0.075,0.013,0.112,0.102,0.112c0.088,0.001,0.136,0.02,0.143,0.053l0.02,0.102c0.021,0.102,0.08,0.23,0.182,0.387
			c0.102,0.158,0.154,0.254,0.161,0.287l-0.031,0.111c0.163,0.286,0.247,0.446,0.253,0.479c0.021,0.102-0.011,0.214-0.094,0.336
			c0.075,0.022,0.119,0.066,0.133,0.133c0.026,0.137,0.132,0.363,0.318,0.68c0.185,0.316,0.294,0.56,0.327,0.729l0.02,0.102
			c-0.151,0.135-0.209,0.287-0.176,0.457l0.021,0.103c0.02,0.102,0.107,0.19,0.264,0.267c0.155,0.074,0.236,0.131,0.243,0.164
			l0.029,0.152c0.021,0.102,0.073,0.234,0.157,0.393c0.084,0.16,0.133,0.274,0.146,0.342c0.026,0.137-0.001,0.266-0.083,0.388
			c0.006,0.034,0.064,0.11,0.177,0.229c0.111,0.119,0.191,0.209,0.237,0.271c0.014,0.068,0.01,0.175-0.015,0.32
			s-0.031,0.253-0.018,0.32c0.007,0.034,0.033,0.082,0.081,0.144c0.121,0.259,0.229,0.45,0.323,0.571
			c-0.185,0.142-0.185,0.23-0.001,0.265c-0.09,0.089-0.129,0.203-0.118,0.341c0.008,0.141-0.015,0.25-0.068,0.33
			c0.04,0.029,0.078,0.091,0.116,0.189c0.036,0.099,0.075,0.163,0.115,0.188c-0.021,0.076-0.021,0.164-0.001,0.266
			c-0.021,0.075-0.024,0.146-0.011,0.214c0.055,0.096,0.2,0.12,0.438,0.074l0.204-0.04c0.353,0.001,0.683-0.027,0.988-0.087
			l0.408-0.08c0.407-0.08,0.693-0.065,0.855,0.045c0.054-0.082,0.149-0.136,0.286-0.162c0.236-0.047,0.41-0.063,0.52-0.048
			c0.075-0.157,0.082-0.388,0.022-0.693l-0.069-0.357c-0.014-0.067-0.039-0.158-0.079-0.275c-0.042-0.114-0.064-0.188-0.071-0.224
			l-0.149-0.766c-0.041-0.026-0.02-0.102,0.062-0.223c-0.013-0.068-0.036-0.099-0.07-0.093c-0.041-0.026-0.064-0.058-0.07-0.091
			c-0.013-0.244-0.111-0.568-0.296-0.975c-0.186-0.405-0.25-0.736-0.194-0.994c-0.108-0.19-0.169-0.319-0.182-0.389
			c-0.007-0.032,0.011-0.123,0.053-0.273c-0.007-0.033-0.025-0.074-0.051-0.122c-0.027-0.049-0.045-0.09-0.051-0.123l-0.088-0.724
			l0.011-0.214c-0.006-0.033,0.021-0.163,0.083-0.387l-0.069-0.356c-0.014-0.068,0.008-0.143,0.063-0.224l-0.06-0.306
			c0.054-0.082,0.078-0.14,0.071-0.174l-0.01-0.052c-0.041-0.026-0.048-0.06-0.02-0.102c0.034-0.006,0.047-0.025,0.04-0.061
			c-0.02-0.103-0.045-0.229-0.074-0.382c-0.03-0.153-0.033-0.266-0.014-0.342c0.027-0.04,0.059-0.107,0.093-0.203
			c0.035-0.095,0.065-0.162,0.093-0.203c-0.065-0.339-0.076-0.567-0.026-0.682l-0.03-0.154c-0.013-0.068-0.019-0.182-0.014-0.342
			c0.004-0.158,0-0.272-0.014-0.34l-0.04-0.204l-0.149-0.766c-0.06-0.306-0.035-0.538,0.075-0.702
			c-0.042-0.026-0.096-0.033-0.163-0.021l-0.08-0.408c0.026-0.04,0.074-0.11,0.143-0.212s0.113-0.189,0.135-0.265
			c-0.014-0.068-0.057-0.104-0.127-0.108c-0.071-0.002-0.128-0.019-0.167-0.046l-0.062-0.041l-0.01-0.051
			c-0.014-0.068-0.005-0.158,0.025-0.27c0.031-0.112,0.045-0.186,0.038-0.22c-0.06-0.306-0.077-0.479-0.049-0.52
			c-0.021-0.102-0.071-0.18-0.151-0.234c0-0.353-0.008-0.581-0.028-0.684c-0.026-0.135-0.063-0.232-0.11-0.296
			c0.068-0.188,0.109-0.426,0.126-0.712c0.088-0.088,0.247-0.127,0.479-0.119c0.23,0.008,0.373-0.029,0.429-0.11
			c0.068-0.014,0.138-0.009,0.214,0.011c0.073,0.021,0.129,0.027,0.162,0.021c0.068-0.014,0.114-0.049,0.139-0.106
			c0.022-0.058,0.053-0.091,0.086-0.097c0.041,0.027,0.122,0.039,0.246,0.032c0.12-0.007,0.199-0.013,0.233-0.02
			c0.067-0.013,0.149-0.003,0.244,0.032c0.094,0.034,0.18,0.063,0.253,0.081l0.409-0.079c0.135-0.026,0.319,0.01,0.55,0.104
			c0.229,0.097,0.412,0.131,0.55,0.104l0.102-0.02c0.082,0.055,0.235,0.122,0.462,0.2c0.228,0.08,0.38,0.146,0.463,0.2
			c0.155,0.253,0.44,0.497,0.857,0.733c0.417,0.235,0.682,0.466,0.796,0.691c0.081,0.055,0.188,0.141,0.315,0.256
			c0.129,0.115,0.232,0.2,0.314,0.256c0.093,0.477,0.092,0.741-0.003,0.794c0.006,0.034,0.035,0.055,0.091,0.063
			c0.054,0.007,0.084,0.027,0.091,0.061l0.03,0.153c0.053,0.272,0.235,0.482,0.547,0.634c0.106,0.191,0.182,0.389,0.222,0.593
			l0.209,1.069c0.094,0.122,0.147,0.218,0.161,0.285l0.06,0.306c0.014,0.069,0.04,0.161,0.08,0.276
			c0.04,0.116,0.064,0.19,0.071,0.224c0.026,0.137-0.009,0.231-0.104,0.285l0.1,0.511c0.073,0.374,0.081,0.602,0.027,0.682
			c0.007,0.034,0.034,0.091,0.086,0.168c0.05,0.079,0.064,0.155,0.045,0.23c0.094,0.122,0.189,0.386,0.286,0.79
			c0.096,0.404,0.229,0.68,0.398,0.821c-0.021,0.076-0.015,0.198,0.019,0.367c0.014,0.068,0.043,0.177,0.091,0.326
			c0.046,0.149,0.076,0.26,0.09,0.326l-0.063,0.225l0.061,0.306c0.007,0.034-0.008,0.054-0.041,0.061
			c-0.028,0.041-0.038,0.078-0.032,0.112l0.04,0.203c-0.014,0.109-0.052,0.188-0.112,0.234c-0.022,0.076,0.006,0.123,0.08,0.144
			c0.033-0.007,0.055,0.007,0.062,0.04c-0.021,0.075-0.021,0.207-0.003,0.398c0.02,0.189,0.037,0.319,0.05,0.387
			c0.007,0.034,0.001,0.097-0.016,0.188c-0.019,0.092-0.022,0.154-0.016,0.188c0.007,0.035,0.046,0.105,0.12,0.215
			c0.073,0.11,0.121,0.214,0.142,0.317l0.04,0.204l0.129,0.662c-0.049,0.114-0.054,0.311-0.019,0.585
			c0.037,0.276,0.047,0.467,0.033,0.576c-0.13,0.061-0.218,0.147-0.266,0.264c-0.049,0.114-0.083,0.254-0.104,0.416
			c-0.021,0.163-0.059,0.285-0.112,0.366c0.094,0.123,0.158,0.271,0.191,0.439c0.026,0.137,0.009,0.228-0.053,0.275
			c-0.021,0.074-0.006,0.106,0.046,0.097c0.051-0.01,0.079,0.002,0.086,0.036c0.026,0.136,0.009,0.773-0.05,1.914
			c-0.027,0.04-0.085,0.104-0.175,0.192c0.014,0.069,0.014,0.156-0.001,0.265c-0.014,0.108-0.018,0.181-0.011,0.214l0.061,0.041
			c0.014,0.068,0.023,0.12,0.03,0.153c-0.048,0.115-0.054,0.267-0.018,0.453c0.037,0.187,0.048,0.335,0.033,0.444
			c0.007,0.033,0.004,0.104-0.011,0.213l0.02,0.103c0.007,0.033-0.017,0.091-0.071,0.172c-0.055,0.082-0.093,0.159-0.113,0.234
			c0.033,0.17-0.01,0.311-0.129,0.421c-0.119,0.113-0.176,0.186-0.169,0.219l-0.041,0.061c-0.021,0.076-0.046,0.134-0.073,0.174
			c-0.055,0.082-0.138,0.194-0.251,0.34c-0.112,0.146-0.183,0.239-0.21,0.278l-0.509,0.1c-0.103,0.02-0.281,0.055-0.536,0.104
			s-0.43,0.104-0.524,0.156l-0.51,0.1c-0.271,0.053-0.482,0.06-0.632,0.017c-0.076-0.02-0.192-0.076-0.351-0.169
			c-0.159-0.093-0.276-0.149-0.351-0.17l-0.04,0.061l-0.042,0.062l-0.671-0.187c-0.035,0.007-0.104-0.032-0.209-0.118
			c-0.104-0.085-0.211-0.136-0.319-0.148c-0.041-0.028-0.117-0.102-0.229-0.221c-0.11-0.119-0.207-0.206-0.288-0.261
			c-0.048-0.062-0.11-0.154-0.188-0.28c-0.077-0.127-0.14-0.22-0.188-0.282c-0.048-0.061-0.038-0.105,0.025-0.137
			c0.065-0.031,0.095-0.063,0.088-0.098c-0.217-0.027-0.352-0.177-0.405-0.449l-0.079-0.407c-0.007-0.033-0.038-0.1-0.092-0.194
			c-0.053-0.096-0.087-0.177-0.101-0.245c-0.047-0.062-0.081-0.144-0.101-0.245s-0.033-0.17-0.04-0.204l-0.01-0.051
			c-0.041-0.026-0.063-0.058-0.07-0.091l-0.03-0.154c-0.079-0.406-0.177-0.635-0.293-0.683c-0.278,0.195-0.622,0.333-1.029,0.412
			l-1.58,0.309c-0.408,0.079-0.771,0.204-1.092,0.372c0.007,0.034-0.006,0.106-0.036,0.219c-0.031,0.112-0.04,0.202-0.026,0.271
			l0.02,0.102c-0.13,0.061-0.191,0.24-0.186,0.539s-0.004,0.485-0.023,0.56l0.209,1.069c0.007,0.035-0.001,0.09-0.021,0.164
			c0.021,0.102,0.05,0.167,0.091,0.194c-0.088,0.088-0.16,0.216-0.216,0.385c-0.055,0.17-0.097,0.275-0.124,0.316
			c-0.026,0.041-0.07,0.084-0.132,0.131c-0.063,0.048-0.107,0.092-0.134,0.133c-0.034,0.007-0.069,0.101-0.103,0.284
			c-0.082,0.122-0.212,0.271-0.389,0.446c-0.069,0.19-0.179,0.353-0.328,0.487l-0.103,0.02c-0.068,0.014-0.139,0.063-0.21,0.146
			c-0.071,0.086-0.124,0.131-0.158,0.138l-0.306,0.06c-0.123,0.095-0.219,0.148-0.286,0.161c-0.103,0.02-0.288,0.013-0.561-0.022
			c-0.271-0.035-0.476-0.04-0.61-0.014l-0.255,0.05c-0.035,0.007-0.054-0.007-0.061-0.041l-0.112-0.03
			c-0.075-0.021-0.146-0.024-0.213-0.011c-0.069,0.013-0.12,0.023-0.153,0.029c-0.035,0.007-0.072-0.004-0.112-0.031
			c-0.048-0.062-0.108-0.102-0.183-0.123c-0.035,0.007-0.098,0.002-0.188-0.016c-0.092-0.017-0.155-0.022-0.188-0.017
			c-0.115-0.048-0.315-0.168-0.6-0.359l-0.183-0.122c-0.468-0.227-0.705-0.357-0.712-0.391c-0.609-0.233-0.957-0.571-1.043-1.014
			c-0.123-0.082-0.193-0.174-0.213-0.276l-0.08-0.407l-0.243-0.43l-0.018-0.366c-0.02-0.102-0.102-0.245-0.243-0.428
			c-0.141-0.185-0.222-0.328-0.241-0.43l-0.03-0.153c-0.013-0.067-0.025-0.171-0.035-0.311c-0.009-0.139-0.02-0.242-0.033-0.312
			l-0.03-0.152c-0.006-0.033,0.009-0.089,0.046-0.168c0.038-0.077,0.054-0.133,0.047-0.167l-0.02-0.103
			c-0.161-0.286-0.275-0.599-0.342-0.938l-0.199-1.02c-0.006-0.034-0.021-0.065-0.046-0.097c-0.023-0.03-0.038-0.063-0.044-0.098
			l-0.04-0.203c-0.04-0.204-0.051-0.343-0.029-0.419c-0.122-0.257-0.191-0.438-0.212-0.54c-0.053-0.271-0.048-0.521,0.014-0.743
			l-0.039-0.204c-0.1-0.51-0.126-0.822-0.078-0.937c-0.156-0.076-0.249-0.199-0.282-0.369c-0.007-0.034-0.014-0.11-0.021-0.234
			c-0.006-0.122-0.015-0.217-0.028-0.284c-0.083-0.055-0.129-0.116-0.143-0.185c-0.026-0.135-0.034-0.312-0.023-0.525
			s0.011-0.354-0.002-0.422l-0.021-0.103c-0.006-0.033-0.057-0.103-0.146-0.209c-0.092-0.105-0.161-0.188-0.208-0.251l-0.039-0.203
			c-0.021-0.103-0.043-0.3-0.063-0.597c-0.023-0.295-0.051-0.527-0.084-0.697l-0.04-0.204c-0.007-0.033-0.03-0.108-0.07-0.225
			s-0.066-0.207-0.08-0.275l-0.02-0.103c-0.007-0.033,0-0.088,0.021-0.162s0.025-0.146,0.012-0.215
			c-0.006-0.033-0.032-0.116-0.076-0.25c-0.043-0.131-0.071-0.231-0.085-0.3c-0.02-0.102-0.02-0.189,0.002-0.266
			c-0.006-0.033-0.039-0.063-0.097-0.086c-0.058-0.023-0.09-0.054-0.096-0.088c-0.124-1.174-0.188-1.779-0.195-1.814
			c-0.014-0.067-0.001-0.175,0.042-0.325c0.041-0.148,0.052-0.274,0.032-0.376l-0.08-0.408c0.042-0.148,0.066-0.295,0.074-0.438
			c-0.048-0.062-0.055-0.096-0.021-0.103l0.041-0.061c-0.007-0.033-0.021-0.109-0.045-0.229c-0.023-0.118-0.005-0.202,0.057-0.248
			c-0.02-0.104-0.003-0.741,0.05-1.916c0.027-0.04,0.05-0.105,0.067-0.197c0.017-0.092,0.056-0.16,0.118-0.209l-0.02-0.102
			c-0.066-0.339,0.224-0.749,0.87-1.229C18.791,62.956,19.505,62.729,20.681,62.427z"/>
	</g>
	<g>
		<path fill="#231F20" d="M54.545,58.176l0.155-0.001c0.104,0,0.251,0.024,0.442,0.076c0.19,0.051,0.32,0.075,0.39,0.075
			s0.138,0.008,0.208,0.025c0.068,0.017,0.138,0.025,0.208,0.025l0.623-0.003c0.449-0.003,0.779,0.048,0.987,0.15
			c0.034-0.001,0.104,0.051,0.209,0.155c0.312-0.002,0.642,0.135,0.988,0.41c0.208-0.002,0.433,0.075,0.677,0.229
			c0.242,0.155,0.45,0.232,0.624,0.231c0.001,0.173,0.123,0.293,0.365,0.361c0.07,0.242,0.123,0.363,0.158,0.362
			c0.104,0.07,0.251,0.225,0.443,0.466c0.191,0.241,0.356,0.396,0.496,0.465c0.07,0.207,0.139,0.329,0.21,0.363
			c0.034,0.033,0.034,0.076,0,0.13c-0.034,0.052-0.052,0.096-0.052,0.13c0.07,0.138,0.192,0.328,0.367,0.569
			c0.174,0.241,0.313,0.431,0.418,0.569c0.001,0.277-0.016,0.433-0.05,0.467c0,0.035,0.017,0.052,0.052,0.052
			c0.138-0.001,0.243,0.052,0.313,0.154c0.07,0.104,0.131,0.242,0.184,0.414c0.054,0.174,0.114,0.295,0.185,0.363
			c-0.035,0.07-0.052,0.174-0.051,0.313c0.001,0.174,0.071,0.38,0.211,0.622c0.139,0.241,0.227,0.396,0.262,0.466
			c0.001,0.069,0.001,0.182,0.002,0.337c0.001,0.156,0.018,0.269,0.054,0.338c0.034,0.069,0.078,0.13,0.131,0.181
			c0.052,0.052,0.078,0.096,0.078,0.13c0.106,0.622,0.178,0.951,0.213,0.985c0,0.035-0.009,0.113-0.025,0.234
			s-0.025,0.217-0.024,0.285c0.002,0.52,0.091,0.953,0.266,1.298c0.002,0.415,0.021,0.778,0.058,1.09
			c0,0.104,0.035,0.251,0.106,0.441c0.069,0.19,0.105,0.32,0.105,0.389c0.001,0.104-0.051,0.208-0.153,0.312
			c0,0.07,0.009,0.165,0.026,0.286c0.019,0.122,0.027,0.217,0.028,0.285c0.001,0.313-0.049,0.59-0.152,0.832
			c0.034,0.104,0.053,0.243,0.054,0.416c0.001,0.242-0.016,0.415-0.049,0.52c0,0.069,0.018,0.139,0.053,0.207
			c0.034,0.069,0.034,0.138,0.001,0.208c0,0.035-0.034,0.07-0.104,0.104c-0.069,0.036-0.103,0.105-0.103,0.209l0.003,0.571
			c0,0.035,0.018,0.078,0.053,0.129c0.034,0.052,0.052,0.096,0.052,0.13c-0.102,0.313-0.152,0.486-0.152,0.521
			c0.001,0.139,0.054,0.312,0.158,0.519c0,0.069-0.035,0.139-0.103,0.208c-0.07,0.07-0.104,0.122-0.104,0.156
			c0.034,0.035,0.053,0.174,0.055,0.415c0,0.104,0.018,0.174,0.053,0.208c-0.035,0.035-0.07,0.078-0.104,0.13
			c-0.033,0.052-0.068,0.097-0.103,0.131c-0.035,0.035-0.069,0.078-0.103,0.13c-0.035,0.052-0.087,0.079-0.156,0.079
			c-0.136,0.624-0.237,1.039-0.306,1.248c-0.035,0-0.086,0.026-0.154,0.078c-0.07,0.053-0.14,0.062-0.208,0.026
			c-0.206,0.349-0.344,0.521-0.413,0.522c-0.033,0.208-0.137,0.398-0.31,0.572c-0.033,0.07-0.024,0.122,0.027,0.156
			s0.079,0.069,0.079,0.104c-0.726,0.385-1.417,0.925-2.07,1.62c-0.173,0.001-0.398,0.105-0.673,0.315
			c-0.104,0-0.226,0.045-0.363,0.131c-0.138,0.088-0.242,0.132-0.311,0.132l-0.312,0.002c-0.07,0-0.312,0.088-0.727,0.263
			c-0.346,0.175-0.535,0.28-0.569,0.314c-0.415,0.071-0.692,0.159-0.83,0.264l-0.208-0.052c-0.069,0.001-0.164,0.036-0.285,0.106
			c-0.121,0.069-0.216,0.104-0.284,0.104l-1.143,0.006c-0.416,0.072-0.745,0.107-0.987,0.108l-0.208,0.001
			c-0.069,0.001-0.139-0.032-0.207-0.103c-0.104,0.001-0.252,0.02-0.441,0.054c-0.191,0.036-0.338,0.054-0.441,0.055
			c-0.382,0.002-0.658-0.014-0.831-0.048c-0.07,0-0.174-0.016-0.312-0.051c-0.139-0.033-0.26-0.05-0.364-0.05
			c-0.034,0.001-0.087,0.01-0.155,0.027c-0.07,0.018-0.122,0.026-0.156,0.026c-0.104,0-0.242-0.051-0.416-0.153
			c-0.174-0.104-0.296-0.154-0.364-0.154l-0.208,0.001c-0.208,0.001-0.434-0.084-0.677-0.257c-0.104-0.033-0.227-0.094-0.364-0.18
			c-0.139-0.085-0.227-0.129-0.261-0.128h-0.155c-0.035-0.034-0.104-0.103-0.209-0.207c-0.104-0.103-0.191-0.172-0.261-0.205
			c-0.313-0.207-0.468-0.327-0.469-0.362c-0.382-0.032-0.851-0.256-1.405-0.668c-0.07-0.034-0.157-0.103-0.261-0.207
			c-0.105-0.103-0.192-0.172-0.261-0.205c-0.244-0.241-0.384-0.396-0.418-0.466l-0.417-0.31c0-0.069-0.053-0.147-0.157-0.232
			c-0.104-0.087-0.156-0.182-0.157-0.285l-0.26-0.103c-0.14-0.241-0.323-0.597-0.551-1.063s-0.394-0.785-0.498-0.958
			c-0.175-0.345-0.333-0.777-0.474-1.296c-0.106-0.346-0.159-0.536-0.159-0.571l-0.21-0.362c0-0.034-0.055-0.57-0.163-1.609
			c-0.106-0.519-0.16-0.795-0.16-0.83c-0.035-0.138-0.046-0.346-0.028-0.623c0.015-0.276,0.022-0.467,0.022-0.571
			c-0.001-0.068-0.019-0.182-0.054-0.337c-0.036-0.156-0.053-0.269-0.054-0.338c0-0.069,0.017-0.138,0.051-0.208
			c0.034-0.069,0.052-0.121,0.051-0.155c0-0.069-0.009-0.19-0.026-0.364c-0.02-0.173-0.011-0.312,0.023-0.415l0.051-0.208
			c0.033-0.068,0.033-0.156-0.001-0.26l-0.054-0.207c0.103-0.417,0.17-0.677,0.204-0.78c0.034-0.104,0.051-0.268,0.05-0.493
			s0.015-0.433,0.049-0.625c0.033-0.189,0.103-0.337,0.205-0.442c-0.002-0.38,0.134-0.778,0.41-1.196
			c0.065-0.623,0.236-1.021,0.513-1.196V64.83c-0.035-0.069-0.053-0.121-0.053-0.156c0.069-0.035,0.138-0.104,0.207-0.209
			c0.068-0.104,0.12-0.156,0.155-0.156c0.033-0.034,0.033-0.069-0.001-0.104c-0.035-0.034-0.053-0.069-0.053-0.104
			c0.069-0.034,0.129-0.095,0.181-0.183c0.053-0.086,0.111-0.146,0.182-0.183c0.032-0.242,0.153-0.502,0.359-0.78
			c0.207-0.277,0.326-0.486,0.36-0.625c0.585-0.695,0.896-1.077,0.929-1.147c0.069-0.034,0.328-0.175,0.777-0.419
			c0.069-0.034,0.173-0.113,0.311-0.236c0.137-0.12,0.259-0.199,0.362-0.234c0.034-0.001,0.096-0.018,0.182-0.053
			s0.146-0.053,0.182-0.053c0.034,0,0.155-0.054,0.362-0.158c0.208-0.104,0.381-0.157,0.52-0.158c0.033-0.034,0.12-0.13,0.258-0.287
			c0.137-0.156,0.275-0.252,0.414-0.287c0.069-0.034,0.241-0.079,0.519-0.133c0.276-0.054,0.448-0.132,0.519-0.236
			c0.138,0.034,0.38,0.05,0.727,0.048l0.26-0.001c0.069-0.001,0.147-0.034,0.233-0.105c0.086-0.069,0.163-0.104,0.233-0.104
			c0.691-0.176,1.055-0.282,1.09-0.316c0.068,0.033,0.155,0.051,0.259,0.05c0.208-0.001,0.38-0.071,0.519-0.21
			c0.069-0.035,0.207-0.053,0.415-0.054l0.675-0.004C54.285,58.229,54.44,58.211,54.545,58.176z M54.769,61.395
			c-0.033,0.277-0.205,0.503-0.516,0.677l0.001,0.26l-0.155,0.105c0,0.139-0.034,0.251-0.103,0.338
			c-0.069,0.087-0.147,0.183-0.232,0.287c-0.087,0.104-0.146,0.191-0.181,0.261c0,0.034,0.019,0.087,0.053,0.155
			c0.034,0.069,0.054,0.121,0.054,0.155l-0.104,0.053c-0.104,0.035-0.174,0.07-0.206,0.104l0.001,0.312
			c0.002,0.416-0.187,0.884-0.564,1.405l0.001,0.208c0.001,0.104-0.008,0.269-0.023,0.493c-0.017,0.226-0.024,0.39-0.024,0.493
			c0.001,0.208,0.036,0.416,0.108,0.624c-0.104,0.034-0.156,0.121-0.155,0.259c0,0.035,0,0.07,0,0.104
			c0.001,0.035-0.034,0.088-0.103,0.156c-0.034,0.104-0.06,0.226-0.076,0.364s-0.025,0.242-0.024,0.312
			c0.104,0.104,0.157,0.26,0.158,0.467c0.001,0.208-0.067,0.416-0.205,0.625c0.07,0.206,0.106,0.362,0.106,0.466
			c0.001,0.174-0.032,0.398-0.101,0.676c0,0.035,0.034,0.086,0.105,0.155c0.068,0.07,0.086,0.139,0.053,0.208
			c-0.069,0.207-0.102,0.589-0.099,1.143c0.001,0.207,0.011,0.528,0.03,0.961c0.021,0.433,0.03,0.753,0.031,0.96l0.002,0.313
			c0,0.034,0.017,0.096,0.053,0.182c0.034,0.087,0.053,0.147,0.053,0.182c0.07,0.241,0.115,0.588,0.135,1.037
			c0.019,0.451,0.047,0.763,0.083,0.936l0.157,0.466c0.142,0.519,0.264,0.829,0.369,0.934c0.104,0.103,0.294,0.224,0.573,0.36
			c0.068,0,0.129,0.017,0.182,0.051c0.052,0.035,0.095,0.052,0.13,0.051c0.068,0.035,0.138,0.052,0.207,0.051
			c0.034,0,0.121-0.017,0.26-0.053c0.139-0.035,0.242-0.035,0.312-0.002c0.482-0.348,0.862-0.575,1.14-0.68
			c0.033-0.069,0.095-0.174,0.18-0.313c0.086-0.14,0.163-0.243,0.233-0.313c0.067-0.105,0.145-0.295,0.23-0.573
			c0.084-0.277,0.144-0.468,0.179-0.572l0.154-0.26c0.034-0.069,0.06-0.157,0.077-0.261c0.017-0.104,0.042-0.19,0.076-0.26
			c0.206-0.313,0.309-0.521,0.309-0.625c-0.001-0.104-0.019-0.173-0.053-0.207c0.068-0.104,0.146-0.261,0.23-0.47
			c0.086-0.207,0.146-0.346,0.181-0.416l-0.054-0.207c0-0.104,0.033-0.225,0.103-0.364c0.068-0.138,0.103-0.225,0.103-0.26
			c0-0.034-0.001-0.112-0.001-0.233c-0.001-0.121,0.017-0.216,0.05-0.287c0-0.068,0.018-0.138,0.052-0.207
			c0.033-0.069,0.052-0.121,0.051-0.156l-0.003-0.779c0.033-0.173,0.092-0.442,0.177-0.806s0.127-0.599,0.127-0.702
			c0.066-0.415,0.003-1.004-0.19-1.765c-0.195-0.761-0.293-1.313-0.294-1.66c-0.104-0.173-0.185-0.457-0.238-0.855
			s-0.099-0.649-0.134-0.752c-0.245-0.553-0.367-0.899-0.368-1.038c-0.42-0.726-0.647-1.208-0.683-1.45
			c-0.14-0.068-0.338-0.188-0.599-0.36s-0.479-0.292-0.651-0.361C55.288,61.427,55.046,61.393,54.769,61.395z"/>
	</g>
	<g>
		<path fill="#231F20" d="M81.653,56.04c0.138-0.011,0.262,0.016,0.37,0.076l0.415-0.029c0.077,0.1,0.224,0.192,0.437,0.28
			c0.215,0.089,0.358,0.166,0.434,0.229c0.035-0.003,0.104,0.001,0.208,0.012c0.106,0.01,0.157-0.003,0.155-0.038
			c0.005,0.069,0.062,0.134,0.17,0.195c0.108,0.063,0.183,0.126,0.222,0.193c0.139-0.01,0.244,0.016,0.318,0.08
			c0.148,0.129,0.258,0.208,0.329,0.237l0.022,0.311c0.104-0.008,0.198-0.041,0.28-0.1c0.082-0.058,0.164-0.133,0.244-0.227
			c0.08-0.091,0.152-0.157,0.22-0.197c0.034-0.003,0.104-0.016,0.206-0.041c0.102-0.024,0.169-0.055,0.201-0.093
			c1.143-0.499,1.819-0.757,2.026-0.771c0.104-0.008,0.268-0.011,0.494-0.011c0.225,0.002,0.391-0.002,0.494-0.009
			c0.104-0.008,0.249-0.026,0.438-0.059c0.188-0.03,0.335-0.05,0.438-0.058l0.26-0.019c0.626,0.024,1.051,0.132,1.273,0.323
			c0.068-0.005,0.131,0.01,0.185,0.039c0.055,0.031,0.099,0.046,0.133,0.043c0.114,0.13,0.415,0.326,0.901,0.584
			c0.488,0.261,0.794,0.525,0.918,0.793c0.071,0.03,0.142,0.06,0.214,0.088c0.071,0.03,0.126,0.062,0.164,0.094
			c0.044,0.136,0.144,0.302,0.296,0.498l0.281,0.292c0.003,0.035-0.002,0.078-0.016,0.131c-0.014,0.054-0.019,0.098-0.016,0.132
			c0.035,0.033,0.099,0.063,0.188,0.092c0.089,0.027,0.151,0.058,0.189,0.089c0.013,0.174,0.106,0.289,0.285,0.344l0.022,0.312
			c0.003,0.034,0.06,0.1,0.171,0.195c0.048,0.205,0.171,0.466,0.368,0.78c0.196,0.316,0.303,0.577,0.317,0.785
			c0.112,0.095,0.175,0.247,0.19,0.453c0.013,0.174-0.027,0.35-0.119,0.53c0.003,0.035,0.04,0.18,0.11,0.435s0.111,0.453,0.121,0.59
			l0.012,0.155c0.003,0.035-0.02,0.098-0.065,0.187c-0.045,0.091-0.065,0.171-0.061,0.24l0.011,0.154
			c0.006,0.07,0.001,0.131-0.012,0.184c-0.015,0.054-0.037,0.1-0.068,0.135c-0.033,0.037-0.046,0.09-0.041,0.159
			c-0.078,0.354-0.135,0.531-0.169,0.534l0.022,0.311c0.03,0.414,0.007,0.815-0.07,1.202c-0.132,0.079-0.217,0.119-0.251,0.122
			c-0.026,0.106-0.093,0.276-0.196,0.51c-0.104,0.233-0.169,0.438-0.19,0.611c-0.032,0.038-0.112,0.122-0.242,0.253
			s-0.227,0.217-0.293,0.256l0.056,0.048c0.005,0.069,0.009,0.122,0.011,0.156c-0.166,0.115-0.34,0.328-0.526,0.636
			c-0.186,0.31-0.345,0.521-0.475,0.634l0.056,0.048c0.002,0.035,0.005,0.069,0.007,0.104c0.006,0.07-0.071,0.195-0.232,0.381
			c-0.212,0.433-0.351,0.669-0.417,0.708c0.007,0.104,0.008,0.226,0.001,0.364c-0.008,0.14-0.008,0.244-0.003,0.313
			c0.01,0.139,0.034,0.242,0.073,0.307c0.005,0.07-0.026,0.107-0.095,0.112c-0.03,0.071-0.044,0.125-0.042,0.159
			c0.005,0.07,0.05,0.204,0.135,0.407c-0.063,0.107-0.09,0.336-0.081,0.683c0.008,0.347-0.053,0.594-0.181,0.741
			c0.084,0.202,0.129,0.338,0.134,0.407c0.008,0.103-0.005,0.174-0.037,0.211c0.519,0.936,0.817,1.45,0.894,1.549l0.008,0.104
			c0.007,0.103,0.049,0.204,0.127,0.304c0.075,0.097,0.116,0.164,0.118,0.198l0.004,0.053c-0.03,0.071-0.043,0.125-0.04,0.159
			c0.214,0.087,0.396,0.196,0.545,0.324c0.035,0.033,0.057,0.082,0.062,0.151c0.106,0.028,0.208,0.116,0.306,0.264
			c0.097,0.15,0.182,0.24,0.255,0.27l-0.045,0.106c0.011,0.139,0.142,0.286,0.396,0.44c0.005,0.069,0.009,0.122,0.011,0.155
			c-0.064,0.075-0.077,0.127-0.04,0.158c0.037,0.033,0.159,0.041,0.366,0.025c0.264,0.293,0.405,0.562,0.423,0.803
			c0.074,0.065,0.151,0.188,0.236,0.374c0.082,0.185,0.143,0.311,0.182,0.378c-0.206,0.5-0.427,0.811-0.66,0.932
			c0.008,0.104-0.005,0.176-0.037,0.212c-0.236,0.087-0.385,0.184-0.446,0.292c-0.548,0.11-1.392,0.206-2.531,0.289
			c-0.334-0.288-0.692-0.436-1.073-0.443l-0.016-0.207c-0.069,0.005-0.157-0.022-0.266-0.085c-0.109-0.062-0.216-0.105-0.322-0.133
			c-0.303-0.325-0.67-0.61-1.104-0.856l-0.012-0.155c-0.285-0.084-0.525-0.309-0.726-0.677c-0.179-0.056-0.386-0.162-0.623-0.319
			c-0.237-0.155-0.391-0.249-0.463-0.278c-0.138,0.01-0.263-0.033-0.373-0.129c-0.038-0.032-0.061-0.117-0.071-0.256
			c-0.069,0.005-0.167-0.031-0.294-0.108c-0.128-0.077-0.243-0.13-0.351-0.157c-0.074-0.063-0.079-0.132-0.015-0.207
			c-0.246-0.051-0.414-0.195-0.5-0.432l-0.259,0.019c-0.032,0.037-0.046,0.091-0.04,0.159c-0.03,0.071-0.063,0.108-0.097,0.11
			l0.223,0.192c0.007,0.104,0.008,0.234,0.002,0.391c-0.007,0.156-0.007,0.27-0.001,0.339c0.002,0.035,0.021,0.068,0.059,0.1
			l0.06,0.1c0.042,0.102,0.07,0.256,0.086,0.462c0.013,0.174,0.056,0.292,0.13,0.356l-0.024,0.365
			c0.01,0.139,0.048,0.327,0.117,0.564c0.07,0.238,0.109,0.427,0.12,0.564l0.022,0.311c-0.321,0.371-0.844,0.582-1.568,0.635
			c-1.382,0.101-2.259-0.044-2.635-0.434c-0.422-0.073-0.857-0.337-1.308-0.79c-0.144-0.059-0.234-0.104-0.27-0.137l-0.455-0.539
			c-0.038-0.032-0.077-0.081-0.115-0.148l-0.057-0.049c-0.037-0.031-0.104-0.096-0.195-0.192c-0.095-0.099-0.16-0.162-0.197-0.195
			c-0.187-0.159-0.401-0.508-0.648-1.046c-0.04-0.066-0.077-0.229-0.113-0.485c-0.037-0.259-0.093-0.437-0.17-0.536
			c-0.01-0.137,0.001-0.225,0.034-0.263c-0.147-0.093-0.277-0.466-0.395-1.116c-0.005-0.068-0.036-0.146-0.094-0.228
			c-0.06-0.082-0.089-0.141-0.092-0.176l-0.234-1.076c-0.005-0.068,0.024-0.141,0.089-0.214c-0.038-0.031-0.066-0.204-0.089-0.515
			c-0.005-0.069-0.027-0.12-0.063-0.152c0.031-0.037,0.044-0.124,0.033-0.263c-0.022-0.311-0.02-0.484,0.014-0.521
			c-0.038-0.031-0.058-0.091-0.064-0.178c-0.006-0.086-0.012-0.163-0.017-0.232l-0.179-0.301c-0.018-0.241,0.018-0.469,0.107-0.684
			c-0.086-0.202-0.115-0.374-0.091-0.514c0.029-0.072,0.044-0.125,0.042-0.16c-0.006-0.068-0.032-0.18-0.077-0.332
			c-0.046-0.154-0.071-0.264-0.077-0.334c-0.01-0.137,0.033-0.262,0.13-0.373c-0.077-0.1-0.125-0.285-0.146-0.563
			c-0.03-0.414,0-0.729,0.088-0.944c-0.003-0.033-0.042-0.083-0.114-0.147l-0.037-0.518c-0.048-0.656-0.014-1.109,0.107-1.363
			c-0.087-0.234-0.149-0.63-0.189-1.183l0.044-0.107c0.031-0.036,0.047-0.073,0.044-0.107l-0.06-0.101
			c-0.002-0.033-0.005-0.067-0.007-0.103c-0.003-0.034-0.001-0.121,0.008-0.262c0.006-0.138,0.006-0.261-0.001-0.364l-0.016-0.207
			l0.09-0.215c-0.091-0.271-0.141-0.492-0.153-0.666c-0.018-0.241,0.019-0.451,0.11-0.632l-0.004-0.053l-0.059-0.1
			c-0.008-0.103,0.018-0.227,0.076-0.37c0.06-0.142,0.087-0.231,0.084-0.267l-0.063-0.881c-0.021-0.275-0.018-0.483,0.008-0.625
			l0.036-0.21l-0.007-0.104c-0.018-0.242,0.005-0.4,0.069-0.475c0.03-0.037,0.028-0.072-0.008-0.103l-0.056-0.049
			c0.029-0.071,0.034-0.245,0.015-0.521c-0.005-0.069,0.013-0.174,0.055-0.316c0.041-0.143,0.062-0.23,0.059-0.265
			c-0.03-0.415-0.014-0.658,0.051-0.732l-0.056-0.049l-0.052,0.004c-0.037-0.031-0.03-0.059,0.021-0.08
			c0.05-0.02,0.074-0.049,0.072-0.084l-0.026-0.361c-0.022-0.311,0.005-0.642,0.084-0.995l0.362-0.026
			c0.346-0.025,0.581-0.112,0.71-0.261c0.071,0.03,0.28,0.031,0.625,0.007l0.211,0.036l0.26-0.019
			c0.033-0.002,0.154-0.028,0.358-0.078C81.415,56.091,81.584,56.044,81.653,56.04z M89.251,59.549
			c-0.693,0.016-1.485,0.107-2.375,0.275c-0.064,0.075-0.163,0.151-0.296,0.23c-0.069,0.006-0.122-0.008-0.159-0.04
			c-0.064,0.074-0.162,0.15-0.295,0.229c-0.134,0.079-0.216,0.138-0.248,0.174c-0.265,0.193-0.429,0.31-0.495,0.349l-0.311,0.022
			c-0.068,0.04-0.117,0.079-0.149,0.116c-0.031,0.036-0.069,0.1-0.115,0.189c-0.046,0.091-0.084,0.171-0.113,0.243
			c-0.031,0.037-0.081,0.092-0.144,0.166l-0.1,0.06l0.033,0.466c0.005,0.07-0.029,0.193-0.103,0.373
			c-0.074,0.178-0.125,0.321-0.151,0.427c-0.02,0.21-0.012,0.557,0.023,1.04c0.035,0.484,0.077,0.811,0.123,0.979l0.016,0.208
			c0.015,0.207-0.029,0.557-0.132,1.051c0.111,0.097,0.174,0.247,0.189,0.455c0.002,0.035-0.021,0.07-0.071,0.108
			c-0.049,0.039-0.07,0.093-0.065,0.162c0.013,0.173,0.095,0.357,0.248,0.554l0.012,0.155c0.021,0.277,0.049,0.432,0.086,0.463
			l-0.152,0.063c-0.069,0.005-0.102,0.026-0.1,0.059l0.111,0.097c0.108,0.062,0.182,0.126,0.222,0.192
			c0.003,0.035-0.002,0.086-0.015,0.156c-0.013,0.072-0.017,0.124-0.014,0.158c0.012,0.172,0.11,0.339,0.296,0.498
			c0.096-0.11,0.326-0.283,0.691-0.518c0.365-0.235,0.609-0.461,0.732-0.679c0.71-0.26,1.162-0.71,1.36-1.349
			c0.099-0.075,0.2-0.214,0.308-0.413c0.107-0.198,0.176-0.315,0.209-0.353c0.271-0.09,0.398-0.238,0.384-0.445l-0.008-0.104
			c0.104-0.008,0.15-0.098,0.138-0.27c0.425-0.344,0.724-0.781,0.893-1.315c0.1-0.077,0.199-0.23,0.305-0.465
			c0.105-0.232,0.224-0.389,0.357-0.469l-0.056-0.048c-0.073-0.028-0.108-0.061-0.111-0.096c0.031-0.037,0.089-0.216,0.17-0.534
			c-0.04-0.065-0.064-0.168-0.075-0.307c-0.007-0.104,0.014-0.295,0.063-0.576c0.049-0.282,0.069-0.474,0.063-0.578
			c-0.127-0.303-0.245-0.503-0.357-0.599c-0.039-0.066-0.166-0.152-0.383-0.258C89.474,59.75,89.327,59.647,89.251,59.549z"/>
	</g>
</g>
</svg>
