<?xml version="1.0" encoding="utf-8"?>
<!-- Generator: Adobe Illustrator 16.0.0, SVG Export Plug-In . SVG Version: 6.00 Build 0)  -->
<!DOCTYPE svg PUBLIC "-//W3C//DTD SVG 1.1//EN" "http://www.w3.org/Graphics/SVG/1.1/DTD/svg11.dtd">
<svg version="1.1" id="Layer_1" xmlns="http://www.w3.org/2000/svg" xmlns:xlink="http://www.w3.org/1999/xlink" x="0px" y="0px"
	 width="100.574px" height="215.436px" viewBox="0 0 100.574 215.436" enable-background="new 0 0 100.574 215.436"
	 xml:space="preserve">
<g>
	<path fill="#FFFFFF" d="M20.049,52.023c0.278-5.532,4.464-12.812,6.991-17.42c3.438-6.262,5.184-8.559,4.614-16.09
		c-0.462-6.094-2.228-13.58-5.851-18.439c4.534-0.766,10.85,4.567,14.601,7.31c7.1,5.189,7.892,10.377,8.831,18.813
		c0.146-0.748,0.356-1.724,0.485-2.41c4.478,3.54,5.611,19.467,3.271,24.662c0.59-3.012,2.796-4.499,5.731-4.669
		c4.131-0.238,3.731,1.151,5.93,4.436c3.873,5.783,1.097,8.2,0.472,14.604c-0.821,8.419,4.003,5.947,8.817,11.32
		c3.699,4.127,1.953,11.404,4.72,15.74c2.331,3.648,7.188,5.011,9.776,8.707c3.307,4.729,4.871,11.11,5.285,17.158
		c0.43,6.28,0.651,12.729-3.316,17.902c-3.094,4.032-9.416,4.785-11.656,8.443c5.709,3.452,10.637,3.164,15.012,9.823
		c3.762,5.73,4.604,13.549,4.76,20.623c0.069,3.152-0.66,5.822-0.201,8.986c0.48,3.307,3.32,6.31,1.818,9.772
		c-0.236,0.545-7.039,5.298-8.16,5.671c-1.778,0.594-4.004-0.52-5.018-0.376c-2.461,0.354-2.654,0.695-4.771,1.507
		c-7.129,2.725-13.344,8.096-20.907,10.529c-7.046,2.269-12.47,4.502-20.227,5.408c-6.799,0.794-14.007,2.229-20.002,0.774
		c-8.561-2.073-9.035-5.763-11.881-13.264c-2.881-7.598-9.313-10.266-9.171-19.768c0.119-7.917,6.205-17.561,14.653-17.295
		c-2.383-3.382-6.247-5.808-8.365-9.577c-2.727-4.855-3.28-11.166-3.933-16.722c-1.433-12.225-2.803-23.724-1.718-35.569
		c0.432-4.678,0.643-9.68,0.805-14.447c0.165-4.891-1.703-11.358-0.611-15.962c2.941-12.418,15.857-11.384,24.181-4.702
		C25.014,67.506,19.702,58.843,20.049,52.023z"/>
	<g>
		<path fill="#7CCDCD" d="M43.009,160.395c-43.883,15.178-34.59,31.568-22.572,31.623c28.779,0.126,70.692-25.277,69.527-32.873
			C87.188,140.992,51.408,157.489,43.009,160.395z"/>
		<path fill="#231F20" d="M20.653,192.673c-0.001,0-0.001,0-0.002,0h-0.217c-5.4-0.023-9.831-3.122-10.534-7.366
			c-0.667-4.025,1.203-14.57,32.895-25.531c0.992-0.343,2.414-0.896,4.059-1.533c7.853-3.048,20.996-8.149,30.953-8.149
			c7.59,0,11.897,3.013,12.807,8.953c0.195,1.278-0.547,2.906-2.205,4.839C79.729,173.997,45.946,192.673,20.653,192.673z
			 M77.807,151.404c-9.711,0-23.222,5.243-30.479,8.06c-1.658,0.644-3.089,1.199-4.104,1.551
			c-31.611,10.933-32.508,21.192-32.03,24.077c0.599,3.612,4.487,6.249,9.247,6.271h0.211c24.519,0.001,58.437-18.633,66.762-28.332
			c1.359-1.583,2.036-2.928,1.904-3.787C88.509,153.968,84.744,151.404,77.807,151.404z"/>
	</g>
	<path fill="#5AB1AF" d="M45.902,163.718c-25.601,9.009-20.676,17.299-13.771,17.022c16.534-0.663,41.264-14.938,40.784-18.86
		C71.781,152.51,50.803,161.995,45.902,163.718z"/>
	<g>
		<g>
			<path fill="#7CCDCD" d="M12.947,141.396c1.928,5.178,3.84,11.319,7.623,15.14c2.708,2.735,6.735,4.599,10.207,5.222
				c8.52,1.534,16.002,0.981,23.147-1.511c6.313-2.2,10.301-12.495,12.557-20.642c1.436-5.183,8.736-51.57,5.891-56.93
				c-1.57-2.948-5.369-3.825-8.043-4.718c-22.121-7.381-52.526-3.332-53.974,0.706C5.648,91.783,10.248,134.153,12.947,141.396z"/>
			<path fill="#231F20" d="M39.902,163.301C39.902,163.301,39.901,163.301,39.902,163.301c-2.953,0-6.063-0.291-9.248-0.863
				c-3.911-0.702-7.963-2.777-10.576-5.416c-3.439-3.474-5.379-8.805-7.091-13.507c-0.231-0.637-0.46-1.265-0.688-1.879
				c-2.578-6.917-7.393-49.833-2.596-63.205c1.166-3.254,14.48-5.268,26.148-5.268c7.431,0,18.442,0.718,28.695,4.139
				c0.312,0.104,0.64,0.208,0.978,0.315c2.646,0.839,5.938,1.883,7.457,4.733c3.055,5.75-4.481,52.551-5.834,57.438
				c-3.373,12.178-7.744,19.28-12.994,21.109C49.517,162.515,44.855,163.301,39.902,163.301z M35.852,74.545
				c-14.216,0-24.211,2.578-24.847,4.353c-4.717,13.15,0.047,55.436,2.59,62.257c0.23,0.618,0.459,1.249,0.692,1.888
				c1.663,4.57,3.547,9.75,6.774,13.007c2.423,2.447,6.192,4.374,9.838,5.028c3.104,0.559,6.133,0.842,9.002,0.843c0,0,0,0,0.001,0
				c4.795,0,9.308-0.761,13.793-2.326c4.729-1.647,8.92-8.624,12.117-20.174c1.439-5.193,8.647-51.337,5.946-56.42
				c-1.252-2.353-4.247-3.302-6.653-4.064c-0.344-0.109-0.68-0.216-0.998-0.321C54.032,75.251,43.181,74.545,35.852,74.545z"/>
		</g>
		<g>
			<path fill="#A78056" d="M23.062,78.406c-5.446,0.86-12.278,1.617-9.891,3.562c1.027,0.468,2.646,3.067,14.315,4.067
				c4.075,0.35,22.083,2.132,27.903,1.835c1.527-0.078,12.938-1.184,11.455-3.481C62.682,77.938,28.794,77.501,23.062,78.406z"/>
			<path fill="#231F20" d="M53.857,88.594L53.857,88.594c-5.918,0-18.083-1.11-23.931-1.646c-1.063-0.097-1.921-0.176-2.499-0.225
				c-9.976-0.855-12.746-2.856-14.077-3.818c-0.194-0.141-0.362-0.262-0.465-0.309l-0.151-0.094
				c-0.771-0.628-0.807-1.222-0.701-1.608c0.389-1.427,3.078-1.978,9.122-2.895c0.607-0.092,1.211-0.184,1.799-0.276
				c1.443-0.229,4.517-0.364,8.224-0.364c3.271,0,32.074,0.187,36.248,6.653c0.29,0.448,0.322,0.943,0.091,1.396
				c-1.254,2.448-11.983,3.146-12.092,3.151C54.971,88.583,54.445,88.594,53.857,88.594z M13.552,81.385
				c0.193,0.102,0.38,0.236,0.608,0.4c1.134,0.82,3.791,2.739,13.386,3.563c0.579,0.05,1.44,0.128,2.506,0.226
				c5.827,0.532,17.95,1.64,23.804,1.64l0,0c0.563,0,1.064-0.01,1.498-0.031c3.426-0.176,10.557-1.34,10.936-2.408
				c-2.695-4.146-20.084-6.031-35.111-6.031c-3.639,0-6.633,0.13-8.008,0.347c-0.591,0.094-1.198,0.186-1.807,0.278
				c-2.765,0.419-7.347,1.115-7.965,1.857C13.423,81.259,13.47,81.313,13.552,81.385z"/>
		</g>
		<g>
			<path fill="#5AB1AF" d="M65.152,140.326c-3.533-0.328-1.897-6.723,2.377-6.849c1.5-0.044,0.996,0.417,2.168,0.55
				c0.785,0.089,3.346-0.117,3.984-0.571c6.905-4.904,6.819-19.593,6.473-21.597c-0.609-3.497-5.819-6.317-7.91-4.78
				c-1.162,0.858-5.314-1.027-2.236-6.902c0.861-1.642,1.477-1.31,3.047-1.472c3.447-0.356,9.646,1.48,11.674,4.664
				C91.111,113.373,85.541,142.209,65.152,140.326z"/>
			<path fill="#231F20" d="M67.031,141.051c-0.635,0-1.286-0.029-1.938-0.091c-1.575-0.146-2.558-1.347-2.504-3.06
				c0.075-2.376,2.07-4.977,4.921-5.061l0.211-0.003c0.805,0,1.112,0.155,1.432,0.358c0.144,0.091,0.248,0.157,0.615,0.199
				c0.103,0.012,0.238,0.017,0.398,0.017c1.205,0,2.822-0.244,3.146-0.474c6.381-4.532,6.646-18.469,6.211-20.969
				c-0.432-2.477-3.596-4.682-5.787-4.682c-0.465,0-0.842,0.104-1.117,0.306c-0.284,0.209-0.655,0.321-1.074,0.321
				c-1.035,0-2.094-0.645-2.699-1.644c-0.673-1.112-1.115-3.123,0.596-6.389c0.828-1.58,1.603-1.696,2.797-1.757
				c0.223-0.011,0.47-0.022,0.748-0.052c0.306-0.032,0.632-0.047,0.974-0.047c3.401,0,9.224,1.738,11.304,5.003
				c3.942,6.178,3.295,18.654-1.412,27.242C80.041,137.222,74.066,141.051,67.031,141.051z M67.721,134.112l-0.174,0.002
				c-2.326,0.069-3.635,2.267-3.686,3.827c-0.019,0.604,0.132,1.638,1.349,1.751c0.613,0.057,1.226,0.085,1.819,0.085
				c8.395,0,13.174-5.503,15.705-10.121c4.511-8.229,5.178-20.11,1.455-25.944c-1.657-2.601-6.722-4.414-10.229-4.414
				c-0.296,0-0.578,0.014-0.842,0.041c-0.303,0.031-0.572,0.045-0.814,0.059c-0.97,0.049-1.201,0.061-1.734,1.076
				c-1.118,2.137-1.344,3.961-0.633,5.137c0.431,0.711,1.119,1.029,1.608,1.029c0.163,0,0.271-0.037,0.319-0.072
				c0.5-0.368,1.13-0.554,1.873-0.554c2.736,0,6.49,2.56,7.044,5.737c0.274,1.583,0.643,16.988-6.73,22.227
				c-0.829,0.589-3.274,0.709-3.884,0.709c-0.218,0-0.404-0.009-0.542-0.024c-0.61-0.069-0.896-0.224-1.155-0.39
				C68.318,134.175,68.219,134.112,67.721,134.112z"/>
		</g>
		<path fill="#603813" d="M26.63,85.149c5.149,0.872,26.146,2.564,29.821,1.919c1.296-0.228,10.474-0.434,9.585-2.495
			c-0.788-1.825-9.888-0.717-14.382-1.594c-4.015,0.629-4.929-2.174-9.313-0.726C40.044,83.014,28.759,84.247,26.63,85.149z"/>
		<path fill="#603813" d="M52.451,72.487c0.07-4.077-3.416-5.114-4.124-8.17c-0.528-2.282-0.353-6.193,3.069-5.01
			C53.975,60.201,54.5,67.602,52.451,72.487z"/>
		<path fill="#804D23" d="M40.24,81.932c5.619,1.169-0.748-4.601,9.178-0.636c5.771,2.307,2.252,2.108,10.057,1.063
			c3.666-0.491,2.426,4.66-0.983,3.583c-6.335-2.011-9.828,1.742-16.152-0.493c-1.423-0.5-22.574,1.94-28.775-4.285
			c-8.756-13.287-4.446-14.349,2.757-11.967c3.266,1.078,4.321,4.539,10.93,4.99C35.009,74.711,40.24,81.932,40.24,81.932z"/>
		<path fill="#603813" d="M56.126,65.924c2.985-2.622-2.903-15.376,3.735-14.892c2.191,1.001,3.203,3.503,2.584,7.308
			C61.777,62.465,56.126,65.924,56.126,65.924z"/>
		<path fill="#C3996B" d="M60.361,54.81c-0.168-0.413-1.033-2.601,0.475-1.399c0.811,0.844,1.292,2.237-0.398,3.41
			C60.617,56.844,60.598,55.379,60.361,54.81z"/>
		<path fill="#C3996B" d="M44.851,81.834c0,0,1.293-1.017,5.521,0.87c4.229,1.888-3.26,0.622-4.863,0.333
			C43.905,82.75,44.851,81.834,44.851,81.834z"/>
		<path fill="#C3996B" d="M32.487,80.512c0,0-0.799,0.604-3.584-0.83c-2.784-1.436-6.75-0.938-9.417-4.533
			c-2.055-2.771-5.828-2.278-6.621-1.887c-2.34,1.153,3.406,8.219,4.937,8.486c1.528,0.268,8.829,3.4,15.489,1.473
			c2.807-0.814,5.724,1.483,3.571-0.912C35.571,80.868,32.487,80.512,32.487,80.512z"/>
	</g>
	<g opacity="0.5">
		<path fill="#C1B49A" d="M26.9,54.536c-0.491-6.907,0.898-11.069,4.264-17.151c3.127-5.646,4.645-12.104,5.301-18.406
			c0.537-5.109-0.15-7.988-2.779-12.202c4.715,5.781,8.885,10.639,7.955,18.258c-0.806,6.614-6.245,12.51-7.986,18.612
			c-1.566,5.491-0.141,15.159,1.673,20.035c2.185,5.873,5.926,11.932,5.485,18.423C39.94,77.373,28.05,70.722,26.9,54.536z"/>
		<path fill="#C1B49A" d="M43.292,57.012c0.103,2.479,0.953,7.629,1.017,8.292c-7.338-12.096-2.84-24.606,1.466-35.405
			C47.127,41.309,42.47,45.666,43.292,57.012z"/>
	</g>
	<g>
		<path fill="#231F20" d="M17.339,198.924c0.065-0.005,0.206,0.003,0.423,0.026c0.045,0.017,0.106,0.039,0.186,0.064
			c0.076,0.024,0.127,0.036,0.148,0.034l0.097-0.009c0.128-0.012,0.304,0.134,0.525,0.438c0.051,0.081,0.119,0.118,0.204,0.11
			l-0.022,0.1c0.003,0.042,0.017,0.072,0.04,0.092c0.051,0.319,0.115,0.6,0.19,0.841c0.076,0.241,0.136,0.414,0.178,0.519
			s0.064,0.179,0.068,0.221c0.107-0.01,0.173-0.113,0.198-0.311c0.063-0.026,0.112-0.068,0.15-0.126
			c0.038-0.057,0.066-0.099,0.086-0.121s0.055-0.048,0.106-0.073c0.052-0.027,0.087-0.052,0.106-0.074
			c0.039-0.047,0.109-0.103,0.211-0.167c0.103-0.063,0.174-0.118,0.213-0.165c0.042-0.004,0.158-0.036,0.347-0.097
			c0.189-0.062,0.336-0.096,0.444-0.105c0.191-0.017,0.346,0.012,0.46,0.087l0.065-0.005c0.043-0.004,0.092,0.008,0.149,0.034
			c0.056,0.027,0.104,0.038,0.147,0.035c0.021-0.002,0.103,0.001,0.244,0.009c0.141,0.01,0.245,0.021,0.311,0.037
			c0.07,0.058,0.116,0.086,0.138,0.084c0.023,0.02,0.058,0.039,0.103,0.055c0.045,0.019,0.078,0.037,0.103,0.055
			c0.091,0.058,0.218,0.153,0.382,0.29c-0.016,0.065,0.014,0.15,0.088,0.25c0.106-0.01,0.197,0.026,0.27,0.104
			c0.122-0.075,0.283-0.198,0.483-0.367c0.2-0.17,0.362-0.282,0.486-0.336c0.234-0.281,0.599-0.55,1.091-0.813
			c0.044-0.004,0.118-0.017,0.225-0.036c0.106-0.021,0.19-0.044,0.253-0.072c0.667-0.017,1.112,0.125,1.333,0.428
			c0.152,0.009,0.305,0.087,0.459,0.233c0.154,0.147,0.265,0.229,0.33,0.245c0.059,0.168,0.123,0.28,0.193,0.339l0.025,0.288
			c0.025,0.258,0.073,0.438,0.147,0.538c0.025,0.042,0.062,0.081,0.108,0.12c-0.018,0.045-0.021,0.12-0.012,0.228
			c0.009,0.107,0.044,0.245,0.104,0.412c0.004,0.043,0.012,0.085,0.027,0.127c0.015,0.041,0.022,0.073,0.024,0.095l0.045,0.482
			l0.062,0.316c0.008,0.086,0.002,0.142-0.018,0.164c0.002,0.021-0.023,0.1-0.076,0.234c0.053,0.103,0.081,0.166,0.082,0.187
			c-0.043,0.242-0.054,0.48-0.031,0.716c0.014,0.148,0.035,0.267,0.064,0.35c0.006,0.063-0.02,0.132-0.078,0.202
			c0.05,0.082,0.09,0.284,0.119,0.604c0.015,0.149,0.045,0.256,0.095,0.314c0.257-0.023,0.479-0.075,0.665-0.157
			c0.188-0.083,0.4-0.22,0.642-0.416c0.241-0.194,0.392-0.315,0.452-0.365c0.02-0.022,0.043-0.058,0.072-0.104
			c0.027-0.046,0.051-0.08,0.071-0.104c0.126-0.032,0.246-0.141,0.358-0.323c0.113-0.184,0.232-0.291,0.359-0.325
			c0.026-0.175,0.145-0.292,0.355-0.355c0.079-0.31,0.352-0.626,0.819-0.95c0.538-0.48,0.923-0.764,1.151-0.85
			c0.312-0.374,0.617-0.575,0.917-0.603c0.106-0.011,0.206,0.014,0.298,0.069c0.159,0.093,0.25,0.257,0.271,0.493
			c0.01,0.108-0.012,0.228-0.063,0.362c-0.02,0.045-0.046,0.101-0.082,0.17c-0.037,0.066-0.065,0.125-0.082,0.17l0.012,0.127
			c-0.018,0.045-0.055,0.103-0.113,0.173c-0.059,0.069-0.097,0.128-0.113,0.172c-0.038,0.069-0.072,0.169-0.104,0.301
			c-0.027,0.177-0.108,0.346-0.244,0.51c-0.02,0.022-0.074,0.065-0.166,0.128c-0.091,0.063-0.135,0.126-0.128,0.188
			c-0.022,0.003-0.084,0.03-0.188,0.083c-0.021,0.001-0.042,0.016-0.062,0.038l-0.061,0.037c-0.018,0.046-0.049,0.118-0.094,0.22
			c-0.045,0.102-0.086,0.177-0.125,0.223l-0.175,0.21c-0.117,0.141-0.183,0.254-0.195,0.341c-0.063,0.028-0.188,0.137-0.374,0.326
			c-0.189,0.189-0.366,0.314-0.533,0.373c-0.039,0.047-0.102,0.122-0.189,0.228c-0.088,0.104-0.172,0.199-0.249,0.282
			c-0.079,0.083-0.171,0.141-0.276,0.171c-0.236,0.237-0.41,0.361-0.516,0.372c0.001,0.021-0.018,0.05-0.059,0.085
			c-0.039,0.037-0.068,0.078-0.085,0.123c-0.021,0.001-0.073,0.029-0.155,0.078c-0.441,0.365-0.876,0.674-1.307,0.93l-0.097,0.009
			c-0.106,0.011-0.188,0.051-0.247,0.12c-0.172,0.018-0.286,0.061-0.345,0.129c-0.343,0.031-0.591,0.032-0.744,0.003l-0.14-0.115
			l-0.161,0.015c-0.047-0.039-0.084-0.079-0.108-0.12c-0.086,0.009-0.141,0.002-0.164-0.017c-0.065-0.017-0.102-0.057-0.107-0.12
			c-0.162-0.114-0.256-0.204-0.284-0.266c-0.021,0.002-0.087-0.014-0.198-0.047c-0.102-0.164-0.207-0.26-0.318-0.294
			c-0.025-0.041-0.088-0.127-0.186-0.258c-0.099-0.131-0.151-0.24-0.159-0.326c-0.002-0.021,0.006-0.053,0.023-0.099l-0.003-0.033
			c-0.047-0.039-0.072-0.09-0.079-0.153l-0.044-0.126c-0.025-0.041-0.069-0.105-0.132-0.197c-0.062-0.093-0.107-0.168-0.134-0.231
			l-0.009-0.096c-0.013-0.128-0.067-0.307-0.163-0.536c-0.097-0.229-0.165-0.438-0.203-0.629c-0.002-0.021,0-0.049,0.009-0.083
			c0.007-0.032,0.01-0.06,0.009-0.081c-0.006-0.064-0.02-0.148-0.04-0.255c-0.021-0.106-0.033-0.191-0.04-0.256
			c-0.006-0.063-0.003-0.149,0.009-0.26c0.012-0.109,0.016-0.185,0.013-0.229c-0.007-0.063-0.035-0.136-0.086-0.219l0.116-0.14
			c0.018-0.045-0.001-0.07-0.055-0.076c-0.055-0.006-0.083-0.02-0.086-0.041l-0.011-0.129c-0.008-0.085-0.023-0.192-0.046-0.319
			s-0.036-0.224-0.043-0.287c-0.012-0.128-0.009-0.215,0.009-0.26c0.018-0.045,0.009-0.083-0.026-0.111
			c-0.034-0.028-0.054-0.054-0.055-0.076c-0.002-0.02,0.003-0.08,0.016-0.179c0.012-0.1,0.017-0.168,0.012-0.211
			c-0.005-0.064-0.021-0.106-0.043-0.126c-0.15,0.015-0.296,0.081-0.435,0.202c-0.021,0.002-0.031,0.015-0.029,0.033l-0.025,0.069
			c-0.022,0.001-0.064,0.011-0.128,0.028c-0.063,0.017-0.104,0.037-0.125,0.059c-0.059,0.05-0.106,0.129-0.14,0.24
			c-0.04,0.025-0.107,0.118-0.2,0.277c-0.065,0.006-0.108,0-0.132-0.021l0.006,0.063l-0.166,0.306
			c0.008,0.087-0.021,0.241-0.087,0.463c0.077,0.145,0.088,0.25,0.03,0.321c0.069,0.058,0.133,0.161,0.189,0.306l0.023,0.257
			c0.016,0.172,0.048,0.299,0.1,0.379c0.171,0.459,0.262,0.732,0.269,0.818c0.002,0.022-0.007,0.043-0.026,0.067
			c-0.019,0.022-0.016,0.056,0.01,0.096c-0.018,0.045-0.006,0.065,0.038,0.062c0.042-0.004,0.064,0.006,0.067,0.025
			c0.012,0.13,0.035,0.326,0.07,0.592c0.035,0.269,0.058,0.454,0.067,0.563c-0.02,0.022-0.043,0.063-0.07,0.119
			c-0.026,0.057-0.062,0.087-0.104,0.09l-0.064,0.006c0.006,0.303-0.205,0.474-0.633,0.512l-0.129,0.012
			c-0.107,0.011-0.376-0.094-0.807-0.313c-0.048-0.061-0.159-0.158-0.334-0.293c-0.174-0.135-0.289-0.275-0.346-0.421
			c-0.092-0.057-0.194-0.17-0.307-0.345c-0.113-0.173-0.182-0.27-0.205-0.289l-0.006-0.064c-0.008-0.085-0.05-0.189-0.125-0.313
			c-0.002-0.021,0-0.053,0.006-0.097c0.007-0.045,0.01-0.076,0.008-0.098c-0.145-0.16-0.229-0.378-0.254-0.657
			c-0.012-0.128-0.01-0.226,0.004-0.292c-0.075-0.123-0.119-0.258-0.133-0.408l-0.065-0.707c-0.002-0.021-0.01-0.048-0.023-0.079
			c-0.015-0.03-0.022-0.067-0.026-0.11l-0.009-0.098c-0.005-0.042-0.025-0.094-0.063-0.155c-0.037-0.063-0.059-0.103-0.061-0.124
			c-0.021,0.001-0.036-0.051-0.046-0.158l0.02-0.131c-0.007-0.086-0.049-0.186-0.124-0.297c-0.074-0.11-0.115-0.188-0.117-0.231
			l-0.098,0.009c-0.277,0.024-0.526,0.146-0.743,0.359c-0.061,0.048-0.12,0.107-0.179,0.178c-0.197,0.19-0.314,0.342-0.347,0.453
			c0.002,0.021,0,0.059-0.006,0.114c-0.006,0.054-0.019,0.093-0.038,0.117c-0.066,0.222-0.096,0.363-0.09,0.429
			c0.004,0.043,0.017,0.123,0.039,0.239c0.021,0.116,0.035,0.208,0.04,0.271c-0.013,0.089-0.009,0.249,0.012,0.484
			c0.019,0.192,0.054,0.341,0.106,0.443c-0.108,0.227-0.147,0.511-0.116,0.854c0.009,0.086,0.024,0.213,0.052,0.383
			c0.026,0.17,0.043,0.299,0.051,0.383c-0.033,0.112-0.065,0.287-0.097,0.527c-0.033,0.241-0.056,0.405-0.068,0.492
			c-0.243,0.174-0.383,0.305-0.417,0.394c-0.315,0.094-0.505,0.145-0.569,0.15c-0.129,0.013-0.215,0.009-0.26-0.008
			c-0.022,0.002-0.057-0.027-0.105-0.088c-0.021,0-0.042,0.01-0.063,0.021c-0.021,0.014-0.052,0.021-0.096,0.025
			c-0.003-0.044-0.039-0.089-0.108-0.137c-0.069-0.047-0.118-0.103-0.145-0.165c-0.563-0.25-0.896-0.941-1.001-2.078l-0.053-0.577
			c-0.034-0.126-0.06-0.297-0.079-0.511c-0.005-0.043-0.015-0.106-0.033-0.191c-0.019-0.084-0.029-0.139-0.031-0.159
			c-0.031-0.105-0.052-0.271-0.062-0.496c-0.01-0.226-0.02-0.382-0.027-0.467c-0.076-0.123-0.115-0.194-0.117-0.216l-0.005-0.063
			c-0.007-0.064,0.005-0.18,0.033-0.343c0.027-0.164,0.039-0.279,0.033-0.344c-0.009-0.084-0.024-0.138-0.048-0.156
			c-0.007-0.085,0.009-0.142,0.05-0.167c-0.047-0.04-0.076-0.123-0.088-0.251c-0.002-0.021-0.002-0.076,0.002-0.162
			c0.003-0.086,0.002-0.151-0.002-0.194l-0.006-0.063l0.029-0.035c0.019-0.023,0.039-0.047,0.058-0.07
			c-0.002-0.021-0.019-0.036-0.053-0.043c-0.032-0.008-0.04-0.034-0.022-0.079l-0.057-0.609c-0.001-0.021,0.024-0.088,0.079-0.201
			l-0.007-0.065c-0.016-0.17-0.003-0.269,0.039-0.294c-0.067-0.253-0.102-0.399-0.106-0.442c-0.027-0.301,0.076-0.46,0.313-0.482
			c0.126-0.033,0.227-0.118,0.3-0.253C17.075,198.97,17.232,198.934,17.339,198.924z"/>
		<path fill="#231F20" d="M37.487,196.464c0.021-0.005,0.049-0.001,0.086,0.011c0.037,0.012,0.065,0.016,0.086,0.01
			c0.25-0.066,0.45-0.108,0.601-0.126c0.047,0.01,0.117,0.003,0.212-0.023c0.092-0.024,0.162-0.033,0.21-0.022l0.181,0.052
			c0.147,0.05,0.265,0.074,0.354,0.072l0.124-0.033c0.104-0.028,0.341-0.013,0.713,0.044c0.101,0.128,0.32,0.259,0.655,0.392
			c0.336,0.133,0.567,0.271,0.694,0.414c0.021-0.005,0.056,0.021,0.104,0.073c0.048,0.053,0.095,0.086,0.143,0.095
			c-0.017,0.027-0.018,0.062-0.007,0.103l0.057,0.085c0.037,0.058,0.052,0.108,0.041,0.156l0.048,0.055
			c0.032,0.036,0.052,0.063,0.057,0.085c0.026,0.016,0.043,0.034,0.047,0.054c0.007,0.021-0.001,0.035-0.022,0.039
			c0.187,0.196,0.324,0.46,0.412,0.792c0.006,0.021,0.004,0.076-0.004,0.168c-0.01,0.091-0.009,0.157,0.002,0.199l0.009,0.031
			l0.048,0.054c0.095,0.109,0.216,0.143,0.361,0.104l0.094-0.025c0.082-0.11,0.232-0.233,0.451-0.37
			c0.22-0.137,0.372-0.25,0.46-0.34l0.218-0.058l0.085-0.058c0.052-0.058,0.144-0.154,0.273-0.29
			c0.13-0.134,0.232-0.232,0.304-0.297c0.211-0.211,0.4-0.419,0.568-0.62l0.294-0.278c0.163-0.223,0.337-0.401,0.522-0.54
			c0.035-0.032,0.092-0.069,0.171-0.112c0.076-0.043,0.142-0.093,0.191-0.152c0.036-0.031,0.081-0.076,0.132-0.135
			c0.051-0.059,0.115-0.108,0.192-0.151c0.217-0.19,0.366-0.298,0.449-0.319c0.125-0.033,0.227-0.027,0.306,0.019
			c0.104,0.062,0.172,0.145,0.199,0.247c0.005,0.021,0.014,0.052,0.024,0.093l-0.022,0.039c-0.018,0.184-0.093,0.359-0.226,0.528
			c-0.017,0.026-0.02,0.078-0.01,0.153c0.009,0.074,0.006,0.126-0.009,0.151c-0.152,0.265-0.23,0.43-0.234,0.496l-0.055,0.049
			c-0.063,0.017-0.106,0.018-0.133,0.001c-0.005,0.068-0.025,0.137-0.063,0.2c-0.038,0.066-0.063,0.123-0.072,0.17
			c-0.084,0.022-0.147,0.072-0.193,0.151c-0.045,0.08-0.089,0.124-0.131,0.136c-0.02,0.095-0.089,0.208-0.209,0.34
			s-0.193,0.235-0.218,0.309c-0.048-0.009-0.089,0.002-0.124,0.032c-0.037,0.032-0.065,0.051-0.085,0.057
			c-0.005,0.067-0.037,0.154-0.098,0.26c-0.078,0.043-0.167,0.129-0.267,0.255c-0.099,0.126-0.198,0.215-0.296,0.263
			c-0.03,0.055-0.038,0.11-0.021,0.173c-0.057,0.037-0.14,0.104-0.247,0.199c-0.107,0.097-0.2,0.166-0.278,0.208l-0.269,0.238
			c-0.017,0.027-0.091,0.08-0.225,0.161c-0.135,0.08-0.215,0.158-0.24,0.229c-0.061,0.018-0.134,0.06-0.216,0.125
			c-0.083,0.067-0.145,0.105-0.187,0.116c-0.091,0.159-0.204,0.278-0.338,0.358c-0.063,0.017-0.155,0.042-0.28,0.075
			c-0.125,0.032-0.216,0.068-0.272,0.105l-0.312,0.083c-0.057,0.038-0.087,0.091-0.091,0.158c-0.042,0.012-0.075,0.01-0.102-0.006
			l-0.008-0.031c-0.037,0.032-0.138,0.236-0.304,0.616c-0.128,0.1-0.27,0.283-0.421,0.546c-0.152,0.263-0.291,0.456-0.412,0.577
			c-0.012,0.047-0.045,0.105-0.104,0.178s-0.094,0.131-0.103,0.178c-0.206,0.146-0.511,0.381-0.912,0.711
			c-0.026-0.015-0.06-0.017-0.102-0.006c-0.042,0.012-0.083,0.022-0.125,0.033c-0.03,0.053-0.102,0.094-0.216,0.125
			c-0.115,0.03-0.189,0.063-0.226,0.094c-0.026-0.014-0.051-0.02-0.07-0.014l-0.071-0.015c-0.555,0.171-1.072,0.151-1.549-0.055
			c-0.136-0.008-0.26-0.053-0.37-0.134c-0.021,0.006-0.047,0.013-0.078,0.021c-0.031,0.009-0.049,0.002-0.056-0.019
			c-0.005-0.021-0.031-0.037-0.079-0.047c-0.046-0.009-0.072-0.024-0.079-0.045l-0.039-0.022c-0.021,0.006-0.041,0.012-0.063,0.017
			c-0.021,0.006-0.045,0.001-0.07-0.015l-0.039-0.021c-0.005-0.021-0.016-0.035-0.027-0.042c-0.015-0.007-0.031-0.009-0.052-0.003
			c-0.032-0.035-0.094-0.081-0.186-0.134c-0.093-0.054-0.17-0.11-0.229-0.173c-0.062-0.061-0.1-0.123-0.117-0.185
			c-0.047-0.01-0.093-0.038-0.139-0.08c-0.044-0.043-0.08-0.074-0.106-0.088c-0.037-0.056-0.108-0.138-0.215-0.243
			c-0.106-0.104-0.188-0.184-0.246-0.233c-0.235-0.05-0.387-0.198-0.454-0.446c-0.189-0.127-0.319-0.326-0.393-0.597l-0.017-0.063
			c-0.005-0.021-0.021-0.039-0.048-0.054l-0.017-0.063l-0.027-0.226l-0.033-0.125c-0.011-0.041-0.009-0.075,0.007-0.103l0.014-0.069
			l-0.116-0.438c-0.005-0.02,0.001-0.061,0.019-0.121c0.017-0.061,0.021-0.1,0.017-0.122c0.016-0.358,0.057-0.658,0.127-0.9
			l0.113-0.197l0.014-0.071c0.016-0.025,0.021-0.049,0.017-0.069c0.07-0.063,0.117-0.099,0.138-0.104
			c0.014-0.116,0.069-0.258,0.169-0.43c0.099-0.171,0.158-0.304,0.178-0.398c0.057-0.037,0.14-0.143,0.249-0.315
			c0.109-0.174,0.212-0.285,0.312-0.334c-0.002-0.088,0.037-0.194,0.115-0.315c0.079-0.121,0.127-0.194,0.142-0.221
			c0.015-0.025,0.043-0.066,0.084-0.122c0.04-0.055,0.068-0.096,0.084-0.123c0.036-0.031,0.085-0.056,0.147-0.073
			c0.062-0.017,0.111-0.04,0.148-0.072c0.035-0.031,0.098-0.088,0.188-0.168c0.091-0.078,0.164-0.138,0.221-0.176l0.279-0.075
			c0.104-0.026,0.2-0.063,0.288-0.109C37.35,196.513,37.425,196.481,37.487,196.464z M37.244,201.669l-0.095,0.025
			c-0.019,0.095-0.013,0.22,0.019,0.379c0.032,0.158,0.045,0.271,0.041,0.34c0.025,0.015,0.058,0.051,0.096,0.107
			c0.037,0.057,0.079,0.09,0.126,0.1l0.084,0.313c0.063-0.019,0.162,0.022,0.299,0.12l0.654-0.175
			c0.04-0.101,0.153-0.219,0.339-0.357c0.185-0.139,0.304-0.236,0.354-0.295c0.01-0.049-0.008-0.11-0.05-0.188
			c-0.026-0.015-0.183-0.018-0.47-0.008c-0.079-0.045-0.129-0.065-0.149-0.061c-0.026-0.016-0.081-0.012-0.164,0.011
			c-0.132-0.075-0.219-0.108-0.26-0.099l-0.03,0.011l-0.08-0.048c-0.063,0.018-0.107,0.019-0.133,0.004l-0.087-0.078
			c-0.026-0.015-0.071-0.015-0.134,0.002C37.384,201.699,37.264,201.665,37.244,201.669z M38.456,198.341
			c-0.041,0.012-0.099,0.049-0.17,0.112c-0.072,0.064-0.129,0.103-0.17,0.111c-0.037,0.033-0.069,0.075-0.1,0.127
			c-0.031,0.054-0.057,0.082-0.077,0.086c-0.083,0.021-0.188,0.174-0.313,0.452l0.025,0.093l-0.083,0.19
			c-0.05,0.146-0.114,0.241-0.19,0.282c0.031,0.037,0.083,0.083,0.154,0.144c0.071,0.06,0.11,0.099,0.115,0.12l0.135,0.131
			c0.033,0.036,0.097,0.067,0.193,0.098c0.097,0.031,0.164,0.073,0.202,0.129c0.177-0.002,0.318,0.027,0.423,0.088
			c0.293,0.012,0.502,0.044,0.628,0.1c0.042-0.013,0.092-0.008,0.152,0.009c0.061,0.017,0.101,0.022,0.121,0.018
			c0.021-0.005,0.061-0.004,0.118,0.002c0.057,0.008,0.108,0.011,0.153,0.01c0.044,0,0.086-0.008,0.128-0.019
			c0.063-0.017,0.129-0.056,0.201-0.12c0.061-0.439,0.086-0.68,0.075-0.721l-0.025-0.094c0.04-0.1,0.049-0.19,0.026-0.274
			c-0.006-0.021-0.024-0.07-0.057-0.15c-0.032-0.08-0.055-0.142-0.066-0.184c-0.004-0.021-0.011-0.063-0.018-0.128
			c-0.006-0.064-0.015-0.118-0.025-0.16l-0.018-0.063c-0.031-0.035-0.076-0.078-0.135-0.13c-0.059-0.053-0.09-0.087-0.096-0.108
			c-0.048-0.098-0.1-0.162-0.15-0.192c-0.086-0.065-0.264-0.091-0.537-0.072C38.802,198.243,38.596,198.282,38.456,198.341z"/>
		<path fill="#231F20" d="M45.716,193.544c0.122-0.043,0.291-0.011,0.511,0.094l0.061-0.021c0.082-0.027,0.176-0.021,0.281,0.021
			c0.106,0.044,0.189,0.054,0.25,0.031c0.083,0.039,0.189,0.117,0.32,0.229c0.131,0.114,0.225,0.184,0.278,0.21
			c0.009,0.021,0.005,0.044-0.009,0.072l-0.02,0.041c0.109,0.053,0.176,0.109,0.197,0.17c0.034,0.033,0.071,0.043,0.111,0.027
			c0.057,0.027,0.087,0.051,0.094,0.07c0.008,0.021-0.002,0.058-0.029,0.113c0.153,0.175,0.248,0.312,0.283,0.413
			c0.014,0.041,0.031,0.057,0.052,0.05c0.007,0.021,0.004,0.045-0.009,0.072c-0.014,0.025-0.003,0.058,0.031,0.091
			c0.088-0.008,0.173-0.061,0.253-0.157l0.243-0.086l0.039-0.082c0.034-0.034,0.091-0.065,0.172-0.095l0.111-0.073
			c0.054-0.041,0.166-0.126,0.337-0.254c0.172-0.129,0.29-0.229,0.358-0.297c0.019-0.006,0.064-0.04,0.136-0.101
			c0.069-0.059,0.121-0.104,0.155-0.14c0.376-0.291,0.625-0.459,0.746-0.502l0.031-0.011c0.019-0.008,0.025-0.021,0.02-0.041
			c-0.008-0.021,0.002-0.023,0.03-0.012c0.054-0.042,0.142-0.084,0.263-0.127c0.143-0.05,0.247-0.076,0.314-0.078l0.225-0.044
			c0.047,0.007,0.109,0.024,0.188,0.054c0.08,0.029,0.144,0.047,0.189,0.053c0.021-0.007,0.061-0.009,0.118-0.007
			c0.058,0.003,0.108,0.008,0.158,0.013l0.03,0.091c0.041-0.015,0.095-0.01,0.158,0.014c0.064,0.022,0.107,0.031,0.129,0.023
			c0.158,0.196,0.267,0.305,0.32,0.33c0.018,0.177,0.037,0.296,0.059,0.356c0.007,0.021,0.052,0.085,0.136,0.19L53,194.33
			l0.021,0.062c0.027,0.081,0.043,0.155,0.043,0.224c0.002,0.068,0.002,0.148,0,0.241s-0.006,0.161-0.013,0.208
			c0.05,0.142,0.066,0.285,0.048,0.428l0.073,0.111c-0.103,0.036-0.166,0.126-0.194,0.273c-0.027,0.148-0.071,0.23-0.133,0.251
			c0.03,0.217,0.01,0.352-0.063,0.4c0.019-0.008,0.04,0.019,0.062,0.08c-0.025,0.055-0.059,0.089-0.1,0.104
			c-0.01,0.231-0.034,0.389-0.074,0.471l0.055,0.151c-0.026,0.056-0.063,0.147-0.107,0.277c-0.047,0.13-0.092,0.226-0.139,0.287
			c0.033,0.034,0.06,0.07,0.072,0.111c0.016,0.04,0.026,0.071,0.032,0.091c-0.085,0.213-0.083,0.509,0.005,0.888l-0.018,0.142
			c0.035,0.035,0.057,0.083,0.068,0.148c0.01,0.063,0.023,0.118,0.038,0.157l-0.06,0.124c0.055,0.026,0.088,0.088,0.101,0.187
			c0.013,0.098,0.038,0.174,0.08,0.229l0.071,0.009c0.04-0.015,0.07-0.025,0.091-0.033c0.142-0.049,0.239-0.128,0.292-0.238
			c0.025-0.055,0.063-0.08,0.109-0.074c-0.006-0.02-0.004-0.044,0.011-0.07c0.013-0.027,0.017-0.051,0.009-0.072
			c0.087-0.076,0.165-0.195,0.232-0.356c0.068-0.159,0.127-0.271,0.175-0.335c0.024-0.121,0.067-0.193,0.129-0.216
			c0.104-0.285,0.289-0.682,0.556-1.187c0.268-0.503,0.428-0.811,0.479-0.92l0.1-0.104c0.064-0.205,0.156-0.363,0.278-0.475
			c-0.016-0.041-0.016-0.074-0.003-0.103c0.181-0.268,0.278-0.405,0.3-0.413c0.03-0.237,0.167-0.4,0.41-0.484l0.063-0.022
			c0.02-0.007,0.071-0.037,0.154-0.09c0.085-0.052,0.146-0.086,0.188-0.1l0.062-0.021c0.041-0.014,0.11-0.01,0.21,0.014
			c0.1,0.021,0.168,0.025,0.209,0.011c0.02-0.008,0.085,0.016,0.194,0.067l0.086,0.244c0.015,0.042,0.011,0.076-0.013,0.108
			c-0.023,0.03-0.053,0.063-0.086,0.098c-0.033,0.034-0.058,0.066-0.069,0.093c-0.007,0.049-0.03,0.097-0.069,0.146
			c-0.04,0.047-0.066,0.087-0.078,0.113c0.021,0.129-0.035,0.229-0.17,0.298c-0.047,0.063-0.087,0.175-0.121,0.333
			c-0.035,0.162-0.086,0.275-0.152,0.345c-0.021,0.007-0.016,0.051,0.013,0.131c-0.033,0.036-0.069,0.111-0.108,0.228
			s-0.092,0.21-0.158,0.277c0.002,0.068-0.008,0.141-0.025,0.214c-0.021,0.076-0.051,0.167-0.094,0.273s-0.076,0.188-0.104,0.241
			c-0.02,0.008-0.043,0.039-0.068,0.093c-0.026,0.055-0.057,0.1-0.09,0.134c0.015,0.041-0.017,0.099-0.094,0.17
			c-0.076,0.073-0.107,0.129-0.095,0.17c0.007,0.021,0.021,0.026,0.042,0.021c-0.027,0.055-0.061,0.123-0.1,0.206
			c-0.039,0.081-0.07,0.155-0.094,0.22c-0.021,0.066-0.061,0.136-0.113,0.212c-0.054,0.075-0.106,0.134-0.16,0.176
			c0.016,0.041,0,0.098-0.043,0.169c-0.043,0.072-0.07,0.123-0.084,0.149c-0.041,0.015-0.07,0.042-0.09,0.083
			c-0.021,0.042-0.039,0.082-0.061,0.124c-0.02,0.042-0.036,0.076-0.049,0.103c-0.014,0.028-0.061,0.072-0.141,0.136
			c-0.082,0.063-0.127,0.107-0.142,0.135c-0.014,0.027-0.041,0.077-0.084,0.149c-0.044,0.071-0.058,0.128-0.043,0.169l-0.161,0.125
			c-0.013,0.095-0.109,0.209-0.291,0.341c-0.181,0.132-0.281,0.236-0.3,0.311c-0.081,0.03-0.181,0.087-0.298,0.175
			c-0.118,0.088-0.197,0.138-0.238,0.151l-0.091,0.032c-0.062,0.021-0.128,0.04-0.202,0.054c-0.074,0.016-0.133,0.03-0.173,0.043
			l-0.091,0.033c-0.416-0.013-0.938-0.137-1.567-0.372c-0.026-0.012-0.071-0.043-0.134-0.089s-0.117-0.072-0.164-0.079
			c-0.084-0.107-0.15-0.164-0.197-0.17c-0.111-0.188-0.21-0.337-0.293-0.443c-0.158-0.126-0.263-0.261-0.313-0.402
			c-0.007-0.021-0.018-0.063-0.028-0.127c-0.011-0.063-0.023-0.116-0.037-0.157l-0.183-0.519c-0.008-0.02-0.009-0.059-0.007-0.116
			s-0.014-0.104-0.048-0.138c0.012-0.095,0.004-0.149-0.023-0.163c0.013-0.025,0.015-0.057,0.004-0.086
			c-0.012-0.03-0.007-0.049,0.014-0.057l-0.021-0.06c-0.014-0.041-0.017-0.099-0.008-0.169c0.01-0.071,0.007-0.127-0.008-0.169
			c0.006-0.047,0.029-0.077,0.07-0.093c-0.007-0.02-0.021-0.043-0.043-0.069c-0.021-0.026-0.034-0.052-0.041-0.07
			c-0.008-0.021-0.013-0.133-0.016-0.337c0.012-0.027,0.039-0.048,0.08-0.063l0.071,0.008c-0.007-0.019-0.027-0.029-0.062-0.028
			c-0.034,0-0.055-0.009-0.063-0.03c-0.028-0.081-0.02-0.187,0.026-0.317c0.045-0.128,0.058-0.225,0.035-0.285l-0.031-0.092
			l0.039-0.082c0.019-0.074,0.046-0.13,0.079-0.165l-0.021-0.061c-0.014-0.041-0.002-0.136,0.036-0.286l-0.061,0.021
			c-0.061,0.021-0.147,0.067-0.258,0.141c-0.111,0.074-0.187,0.119-0.228,0.133l-0.396,0.138l-0.606,0.316l-0.213,0.075
			c-0.054,0.042-0.122,0.077-0.202,0.104c-0.081,0.03-0.149,0.064-0.202,0.107c-0.04,0.081-0.045,0.198-0.015,0.346
			c0.029,0.149,0.041,0.249,0.035,0.296c0.064,0.183,0.081,0.324,0.049,0.427c0.034,0.033,0.065,0.092,0.094,0.172
			c0.043,0.121,0.038,0.236-0.015,0.346c0.09,0.061,0.107,0.146,0.055,0.254l0.044,0.122c0.028,0.081,0.043,0.189,0.046,0.325
			c0.008,0.021,0.024,0.038,0.053,0.05l0.04,0.021l0.086,0.242c0.021,0.062,0.053,0.137,0.096,0.224
			c0.042,0.088,0.07,0.15,0.084,0.191l0.086,0.244c-0.045,0.199-0.062,0.341-0.054,0.429c0.034,0.034,0.055,0.062,0.063,0.08
			c0.021,0.062,0.023,0.131,0.004,0.204c-0.02,0.075-0.025,0.124-0.018,0.144c0.029,0.217,0.053,0.346,0.066,0.386l-0.018,0.144
			c-0.02,0.075-0.032,0.138-0.037,0.185c-0.027,0.056-0.062,0.136-0.104,0.242c-0.043,0.105-0.091,0.196-0.143,0.271
			c-0.055,0.077-0.117,0.14-0.191,0.188c-0.067,0.002-0.168,0.008-0.301,0.021c-0.132,0.013-0.219,0.025-0.259,0.04
			c-0.329-0.09-0.537-0.165-0.626-0.224l-0.144-0.02c-0.062-0.045-0.13-0.078-0.205-0.099c-0.008-0.02-0.039-0.042-0.094-0.069
			c-0.157-0.059-0.312-0.175-0.464-0.35c0.026-0.054,0.036-0.092,0.028-0.111l-0.062,0.021l-0.031-0.091
			c-0.021-0.063-0.037-0.152-0.046-0.275c-0.008-0.122-0.021-0.203-0.034-0.243l0.101-0.104c-0.008-0.021-0.022-0.062-0.043-0.121
			c-0.021-0.063-0.046-0.1-0.074-0.112l0.021-0.041c0.021-0.008,0.037-0.025,0.051-0.053l-0.042-0.021
			c-0.021,0.008-0.023-0.003-0.011-0.029c0.014-0.028,0.01-0.073-0.012-0.134c-0.051-0.142-0.053-0.245-0.006-0.306
			c0.013-0.026,0.006-0.048-0.021-0.061l-0.03,0.011c0.013-0.027,0.014-0.091,0.002-0.189c-0.013-0.098,0.009-0.168,0.063-0.211
			l-0.012-0.029l-0.052-0.051c-0.007-0.019,0.019-0.142,0.075-0.368l-0.021-0.062c-0.014-0.04-0.017-0.096-0.007-0.167
			c0.009-0.072,0.009-0.118,0.002-0.138l-0.021-0.063l0.021-0.042l-0.011-0.029c-0.021-0.062-0.029-0.114-0.022-0.162
			c0.005-0.049,0.004-0.081-0.003-0.103c-0.082-0.04-0.224-0.086-0.426-0.141s-0.347-0.112-0.437-0.17
			c-0.656-0.248-1.074-0.625-1.252-1.133c-0.015-0.041-0.002-0.067,0.039-0.082l-0.104-0.102c-0.002-0.067-0.009-0.155-0.025-0.264
			c-0.015-0.108-0.02-0.188-0.014-0.234c0.025-0.122,0.091-0.294,0.195-0.514l0.039-0.083c0.047-0.062,0.053-0.108,0.019-0.144
			c0.103-0.354,0.174-0.572,0.213-0.655l0.06-0.122c0.104-0.221,0.168-0.333,0.188-0.342l0.028-0.111
			c0.08-0.098,0.159-0.228,0.238-0.392c0.047,0.006,0.141-0.085,0.281-0.271c0.013-0.026,0.037-0.087,0.073-0.18
			c0.036-0.094,0.08-0.159,0.134-0.201c0.107-0.083,0.223-0.146,0.345-0.189l0.121-0.043c0.012-0.095,0.086-0.108,0.224-0.043
			C45.622,193.6,45.675,193.558,45.716,193.544z M46.342,195.033c-0.061,0.021-0.093,0.123-0.097,0.308
			c-0.026,0.057-0.069,0.094-0.13,0.114c0.008,0.088-0.022,0.167-0.089,0.236c0.036,0.101,0.04,0.179,0.015,0.233l-0.02,0.041
			c-0.021,0.009-0.048,0.028-0.081,0.063c-0.079,0.164-0.11,0.302-0.095,0.409l-0.039,0.082c-0.034,0.035-0.033,0.068,0.002,0.102
			c0.095,0.014,0.193,0.001,0.295-0.034c0.061-0.021,0.158-0.067,0.293-0.138c0.135-0.071,0.232-0.116,0.293-0.138
			c0.155-0.077,0.234-0.208,0.238-0.394l-0.031-0.091c-0.008-0.019-0.031-0.069-0.069-0.146c-0.038-0.077-0.079-0.18-0.122-0.301
			c-0.029-0.08-0.061-0.137-0.095-0.171c-0.082-0.039-0.13-0.079-0.145-0.119C46.445,195.031,46.404,195.01,46.342,195.033z"/>
		<path fill="#231F20" d="M54.549,190.947c0.118-0.051,0.285-0.07,0.502-0.059c0.215,0.012,0.361,0.001,0.441-0.034
			c0.158,0.096,0.277,0.127,0.355,0.093c0.036,0.032,0.104,0.066,0.203,0.104c0.1,0.04,0.176,0.095,0.229,0.165
			c0.068-0.005,0.213,0.167,0.434,0.516l0.029-0.014c0.021-0.009,0.054-0.041,0.101-0.096c0.046-0.055,0.079-0.086,0.099-0.095
			c0.014-0.076,0.049-0.145,0.104-0.204c0.058-0.059,0.138-0.13,0.243-0.21c0.105-0.081,0.193-0.147,0.266-0.203
			c0.051-0.045,0.109-0.136,0.18-0.271c0.07-0.137,0.148-0.252,0.236-0.35c0.088-0.096,0.194-0.159,0.321-0.189
			c0.199-0.299,0.511-0.525,0.935-0.686c0.02-0.009,0.051-0.004,0.092,0.012c0.043,0.018,0.088,0.027,0.137,0.029
			c0.238-0.148,0.525-0.15,0.859-0.003c0.334,0.148,0.535,0.221,0.602,0.215c0.057,0.022,0.145,0.09,0.264,0.202
			c0.118,0.113,0.221,0.187,0.305,0.219c0.011,0.021,0.015,0.046,0.019,0.08c0.002,0.035,0.009,0.063,0.019,0.082
			c0.018,0.04,0.049,0.089,0.1,0.15c0.05,0.061,0.083,0.108,0.1,0.148l0.039,0.089c0.02-0.008,0.049,0.004,0.086,0.033l0.055,0.046
			l0.037,0.091c0.026,0.059,0.078,0.141,0.16,0.246c0.08,0.104,0.139,0.197,0.174,0.276c0.026,0.012,0.058,0.028,0.09,0.049
			c0.031,0.021,0.063,0.037,0.092,0.047l0.128,0.298c0.026,0.058,0.037,0.141,0.037,0.247c-0.002,0.104,0.006,0.179,0.022,0.219
			c0.104,0.399,0.148,0.615,0.137,0.643c0.101,0.122,0.14,0.211,0.115,0.268c0.01,0.02,0.029,0.04,0.063,0.061
			c0.032,0.022,0.053,0.042,0.062,0.063c-0.019,0.337-0.033,0.519-0.045,0.548c0.086,0.031,0.161,0.128,0.229,0.286
			c0.042,0.1,0.043,0.181,0.002,0.244c0.008,0.021,0.03,0.021,0.069,0.004c0.039-0.017,0.06,0,0.057,0.047
			c0.018,0.04,0.02,0.098,0.005,0.174l-0.033,0.085c0.025,0.059,0.077,0.111,0.156,0.16s0.138,0.088,0.174,0.119
			c0.009,0.019,0.005,0.05-0.013,0.093c-0.018,0.042-0.018,0.084,0.001,0.123l0.024,0.059c0.01,0.021,0.043,0.07,0.101,0.151
			c0.06,0.08,0.097,0.139,0.112,0.179l-0.018,0.043c0.01,0.02,0.018,0.039,0.026,0.059c0.008,0.02,0.052,0.036,0.127,0.05
			c0.049,0.004,0.081,0.024,0.098,0.063c0.188-0.104,0.366-0.223,0.532-0.354c0.166-0.129,0.339-0.286,0.518-0.468
			c0.178-0.185,0.31-0.316,0.391-0.397c0.054-0.093,0.15-0.235,0.291-0.424c0.141-0.189,0.232-0.341,0.277-0.454l0.152-0.135
			c0.033-0.085,0.189-0.316,0.473-0.696c0.477-0.956,0.741-1.48,0.795-1.573l0.236-0.104c0.021-0.056,0.057-0.123,0.105-0.203
			c0.048-0.079,0.076-0.133,0.088-0.162l0.06-0.024c0.118-0.051,0.244-0.152,0.38-0.305c0.133-0.151,0.248-0.248,0.348-0.291
			c0.314-0.136,0.563-0.079,0.74,0.172l0.142,0.325c0.032,0.126,0.007,0.314-0.074,0.559c-0.081,0.246-0.108,0.423-0.087,0.53
			l-0.063,0.097c-0.043,0.066-0.064,0.122-0.068,0.17c-0.078,0.032-0.137,0.075-0.172,0.128c-0.036,0.05-0.067,0.115-0.09,0.195
			c-0.024,0.081-0.043,0.137-0.054,0.164c-0.022,0.057-0.075,0.125-0.155,0.208c-0.082,0.083-0.138,0.158-0.164,0.229
			c-0.029,0.07-0.021,0.154,0.021,0.254c-0.207,0.278-0.321,0.445-0.345,0.5l-0.018,0.042c-0.012,0.029-0.027,0.048-0.047,0.055
			c-0.138,0.061-0.191,0.177-0.164,0.353c-0.02,0.009-0.041,0.023-0.066,0.048c-0.025,0.021-0.049,0.037-0.067,0.046
			c-0.021,0.009-0.03,0.095-0.028,0.258c-0.022,0.058-0.101,0.148-0.232,0.276c-0.133,0.127-0.2,0.238-0.206,0.336
			c-0.06,0.024-0.136,0.092-0.229,0.203c-0.092,0.109-0.154,0.184-0.185,0.222c-0.043,0.065-0.122,0.151-0.238,0.26
			c-0.116,0.109-0.192,0.206-0.226,0.291c-0.02,0.009-0.051,0.033-0.092,0.075c-0.041,0.04-0.07,0.065-0.092,0.074
			c-0.011,0.026-0.063,0.121-0.158,0.278c-0.096,0.16-0.185,0.256-0.262,0.29l-0.119,0.051c-0.031,0.037-0.067,0.101-0.111,0.188
			c-0.044,0.089-0.075,0.138-0.096,0.146c-0.121,0.098-0.179,0.183-0.172,0.25c-0.092,0.063-0.195,0.158-0.313,0.293
			c-0.118,0.133-0.203,0.222-0.253,0.267l-0.146,0.064l-0.137,0.094c-0.145-0.009-0.234-0.004-0.275,0.013l-0.354,0.154
			c-0.313,0.041-0.551,0.027-0.721-0.04l-0.166-0.14c-0.073-0.063-0.194-0.126-0.363-0.194c-0.27-0.188-0.408-0.292-0.417-0.312
			c-0.291-0.133-0.54-0.328-0.747-0.591c-0.169-0.066-0.369-0.231-0.602-0.496c-0.229-0.262-0.363-0.408-0.399-0.44
			c-0.009-0.02-0.011-0.049-0.003-0.086c0.007-0.039,0.006-0.067-0.002-0.088c-0.146-0.124-0.285-0.333-0.412-0.628
			c-0.061-0.139-0.094-0.242-0.1-0.31c-0.109-0.093-0.142-0.162-0.09-0.208c-0.084-0.033-0.166-0.139-0.242-0.315
			c-0.076-0.18-0.129-0.273-0.157-0.284c0.002-0.047,0.016-0.101,0.038-0.156c-0.037-0.03-0.072-0.086-0.106-0.165
			s-0.049-0.166-0.043-0.262c-0.073-0.063-0.118-0.113-0.136-0.153l0.012-0.217c-0.037-0.03-0.068-0.075-0.094-0.133
			c-0.033-0.079-0.059-0.188-0.068-0.322c-0.013-0.135-0.029-0.233-0.057-0.293c-0.008-0.02-0.018-0.039-0.025-0.059l-0.055-0.048
			c-0.021,0.01-0.045,0.032-0.075,0.069c-0.032,0.036-0.071,0.054-0.118,0.051c0.024,0.06,0.027,0.146,0.006,0.26
			c-0.021,0.114-0.015,0.213,0.021,0.291c-0.073,0.102-0.124,0.271-0.149,0.504c-0.027,0.233-0.068,0.397-0.123,0.491l0.026,0.06
			c0.019,0.04,0.056,0.076,0.117,0.106c0.062,0.034,0.096,0.061,0.103,0.078c0.008,0.068-0.002,0.167-0.029,0.295
			c-0.026,0.128-0.032,0.236-0.019,0.324c0.11,0.092,0.195,0.208,0.255,0.345c0.104,0.237,0.102,0.427-0.002,0.563
			c0.141,0.22,0.229,0.37,0.264,0.449c-0.002,0.048-0.027,0.099-0.073,0.154c-0.046,0.055-0.063,0.093-0.058,0.112
			c0.019,0.04,0.057,0.075,0.116,0.107c0.062,0.03,0.097,0.058,0.104,0.078l0.166,0.384c-0.033,0.084-0.028,0.177,0.015,0.274
			l0.038,0.089c-0.032,0.037-0.02,0.174,0.034,0.407c-0.022,0.058-0.021,0.114,0.005,0.173c0.009,0.021,0.033,0.051,0.074,0.092
			c0.041,0.042,0.066,0.07,0.074,0.091c0.018,0.04,0.015,0.1-0.01,0.18c-0.023,0.08-0.027,0.14-0.011,0.18
			c-0.021,0.009-0.05,0.127-0.092,0.355c0.036,0.031,0.065,0.083,0.085,0.157c0.02,0.072,0.048,0.125,0.085,0.155
			c-0.009,0.145-0.103,0.279-0.282,0.404c-0.011,0.028-0.021,0.085-0.031,0.171s-0.029,0.148-0.061,0.185l-0.297,0.128
			c-0.143-0.008-0.256,0.006-0.334,0.04c-0.057-0.023-0.205-0.069-0.447-0.142c-0.24-0.07-0.417-0.152-0.527-0.246
			c-0.068,0.006-0.152-0.026-0.254-0.101c-0.102-0.073-0.178-0.111-0.225-0.114c-0.088-0.148-0.24-0.27-0.457-0.365
			c-0.217-0.093-0.344-0.154-0.379-0.187c-0.178-0.298-0.324-0.585-0.443-0.862l-0.09-0.207c-0.018-0.04-0.029-0.094-0.033-0.161
			c-0.008-0.066-0.014-0.11-0.021-0.132c-0.008-0.019-0.031-0.045-0.067-0.075c-0.037-0.03-0.06-0.056-0.067-0.075
			c-0.01-0.021-0.019-0.052-0.023-0.097c-0.008-0.043-0.016-0.074-0.023-0.095c-0.01-0.019-0.043-0.069-0.101-0.15
			c-0.058-0.08-0.101-0.149-0.125-0.209l-0.039-0.089c-0.076-0.178-0.147-0.287-0.212-0.329l-0.295-0.681
			c0.009-0.144-0.02-0.26-0.081-0.351c0.034-0.085,0.034-0.173,0.007-0.268c-0.027-0.092-0.07-0.204-0.126-0.332
			s-0.09-0.235-0.104-0.323c-0.008-0.02-0.015-0.075-0.019-0.166c-0.005-0.093-0.017-0.158-0.032-0.198
			c-0.086-0.196-0.123-0.31-0.111-0.337c-0.018-0.04-0.063-0.09-0.135-0.153c-0.105-0.188-0.22-0.49-0.341-0.907
			c-0.122-0.416-0.216-0.702-0.284-0.859c-0.067-0.158-0.004-0.337,0.188-0.54C54.232,191.167,54.391,191.015,54.549,190.947z"/>
		<path fill="#231F20" d="M65.657,182.16c0.288-0.143,0.577-0.213,0.866-0.213c0.037,0.078,0.152,0.165,0.345,0.262
			c0.038,0.029,0.091,0.063,0.157,0.102l0.072,0.071l0.057,0.116c0.058,0.116,0.063,0.22,0.014,0.316
			c0.001,0.05,0.018,0.084,0.051,0.103c0.033,0.021,0.055,0.038,0.064,0.059c-0.021,0.059-0.027,0.139-0.023,0.244
			c0.006,0.106,0.008,0.184,0.008,0.23c0,0.048-0.019,0.087-0.052,0.116c-0.034,0.028-0.077,0.063-0.13,0.1
			c-0.054,0.039-0.095,0.078-0.124,0.115c-0.021,0.01-0.032,0.042-0.043,0.094c-0.01,0.054-0.024,0.084-0.044,0.094l-0.202,0.173
			l-0.174,0.086c-0.136,0.066-0.419,0.123-0.853,0.169c-0.039-0.029-0.112-0.106-0.223-0.231c-0.111-0.125-0.193-0.198-0.252-0.218
			l-0.057-0.115c-0.038-0.076-0.066-0.184-0.086-0.317c-0.047-0.146-0.047-0.288,0.004-0.434c0.008-0.028,0.033-0.076,0.072-0.144
			c0.104-0.173,0.145-0.313,0.115-0.417c0.021-0.01,0.077-0.063,0.174-0.158C65.493,182.265,65.58,182.198,65.657,182.16z
			 M66.667,185.221c0.039-0.02,0.078-0.026,0.116-0.021c0.037,0.005,0.076,0.009,0.115,0.014s0.08,0.009,0.129,0.009
			s0.086,0.005,0.115,0.014c0.028,0.059,0.099,0.114,0.209,0.167c0.109,0.054,0.181,0.109,0.207,0.167
			c0.01,0.02,0.01,0.043,0.002,0.073c-0.021,0.057-0.024,0.095-0.016,0.114l0.113,0.23c0.076,0.251,0.171,0.491,0.285,0.722
			c-0.01,0.029-0.016,0.068-0.016,0.116s-0.01,0.076-0.029,0.086c0.059,0.067,0.131,0.188,0.217,0.361
			c0.076,0.155,0.123,0.273,0.143,0.359c0.01,0.021,0.021,0.058,0.035,0.109c0.014,0.053,0.03,0.1,0.05,0.137
			c0.134,0.271,0.19,0.435,0.171,0.491c0.021,0.039,0.066,0.087,0.145,0.146c0.076,0.059,0.13,0.115,0.156,0.174
			c0.021,0.039,0.024,0.084,0.016,0.138c-0.01,0.054-0.005,0.098,0.014,0.136l0.086,0.176c0.096,0.191,0.129,0.332,0.1,0.418
			c0.066,0.037,0.119,0.119,0.158,0.244c0.037,0.126,0.08,0.213,0.129,0.262c-0.039,0.211-0.012,0.414,0.084,0.605
			c0.01,0.02,0.043,0.051,0.1,0.096c0.059,0.042,0.087,0.089,0.087,0.137c0.011,0.019,0.033,0.032,0.071,0.035
			c0.039,0.006,0.063,0.019,0.072,0.037c0.01,0.02,0.014,0.077,0.014,0.173c0.029,0.01,0.086,0.102,0.172,0.274l0.057,0.116
			l0.158,0.318c0.086,0.027,0.188,0.014,0.303-0.043c0.096-0.047,0.26-0.178,0.492-0.388l0.521-0.688
			c0.02-0.058,0.056-0.117,0.109-0.18c0.053-0.063,0.084-0.107,0.094-0.138c0.106-0.22,0.185-0.354,0.231-0.402
			c0.06-0.123,0.193-0.359,0.406-0.704s0.354-0.618,0.422-0.819l0.06-0.029c0.01-0.027,0.022-0.048,0.043-0.057
			c0.01-0.03,0.018-0.075,0.021-0.137c0.005-0.063,0.014-0.109,0.021-0.138c0.01-0.027,0.041-0.086,0.095-0.173
			c0.054-0.085,0.095-0.147,0.124-0.186c0.115-0.201,0.184-0.308,0.203-0.316l0.086-0.043c-0.01-0.019,0.008-0.058,0.052-0.115
			c0.043-0.058,0.088-0.086,0.137-0.086l0.146-0.071l0.117-0.058c0.026-0.038,0.09-0.081,0.187-0.129
			c0.06-0.028,0.159-0.043,0.304-0.042c0.26,0.04,0.412,0.108,0.461,0.204c0.028,0.01,0.039,0.03,0.027,0.058
			c0.001,0.049,0.006,0.082,0.016,0.102c-0.002,0.048,0.004,0.082,0.014,0.1c0.029,0.06,0.048,0.099,0.058,0.116
			c-0.01,0.03-0.006,0.063,0.015,0.101c-0.021,0.203-0.017,0.332,0.012,0.391c-0.057,0.029-0.08,0.089-0.072,0.18
			c0.01,0.092,0.01,0.152,0,0.181c-0.039,0.021-0.064,0.039-0.08,0.059c-0.014,0.02-0.031,0.033-0.05,0.043
			c-0.021,0.059-0.021,0.154-0.002,0.288c-0.165,0.346-0.247,0.566-0.248,0.663l-0.144,0.07c0.01,0.02,0.006,0.051-0.01,0.094
			c-0.015,0.044-0.017,0.074-0.007,0.094c-0.028,0.038-0.056,0.104-0.08,0.202c-0.024,0.095-0.058,0.177-0.096,0.245
			c-0.009,0.027-0.043,0.057-0.101,0.086l-0.104,0.229c-0.028,0.038-0.066,0.129-0.115,0.273c-0.279,0.161-0.406,0.393-0.379,0.689
			c-0.098,0.145-0.145,0.24-0.145,0.288c-0.021,0.009-0.072,0.071-0.16,0.187l-0.131,0.173c-0.115,0.058-0.227,0.196-0.334,0.417
			l-0.114,0.056c-0.011,0.029-0.021,0.071-0.029,0.123c-0.01,0.053-0.021,0.094-0.03,0.123l-0.086,0.043
			c-0.058,0.028-0.115,0.081-0.174,0.158c-0.058,0.077-0.105,0.124-0.145,0.143c-0.021,0.011-0.055,0.015-0.102,0.016
			c-0.068,0.152-0.164,0.272-0.289,0.357c-0.002,0.049-0.041,0.116-0.117,0.201c-0.078,0.087-0.121,0.146-0.131,0.173
			c-0.136,0.019-0.229,0.042-0.287,0.071l-0.176,0.086c-0.066,0.009-0.156-0.001-0.266-0.03c-0.111-0.028-0.189-0.044-0.237-0.044
			l-0.333-0.016c-0.105-0.021-0.262-0.067-0.468-0.146c-0.206-0.076-0.353-0.131-0.438-0.159c0.01-0.029,0-0.05-0.027-0.059
			c-0.029-0.01-0.049-0.024-0.059-0.043c-0.097-0.001-0.244-0.071-0.445-0.212c-0.201-0.14-0.346-0.225-0.432-0.254
			c-0.039-0.029-0.059-0.066-0.058-0.115c-0.06-0.02-0.097-0.023-0.116-0.016c-0.039-0.029-0.133-0.125-0.285-0.289
			c-0.154-0.164-0.271-0.299-0.347-0.405c-0.026-0.059-0.104-0.152-0.229-0.283c-0.125-0.13-0.205-0.233-0.244-0.311
			c-0.037-0.077-0.043-0.158-0.014-0.245l-0.058-0.044c-0.038-0.028-0.071-0.047-0.103-0.06c-0.112-0.325-0.273-0.895-0.48-1.702
			c-0.01-0.02-0.004-0.054,0.021-0.102c0.022-0.048,0.03-0.081,0.021-0.101c-0.058-0.116-0.124-0.202-0.2-0.259
			c0.01-0.077-0.009-0.213-0.056-0.404c-0.048-0.193-0.062-0.343-0.042-0.448l-0.044-0.015c-0.009-0.02-0.019-0.039-0.027-0.059
			c-0.021-0.039-0.03-0.109-0.034-0.217c-0.006-0.104-0.013-0.167-0.021-0.188l-0.059-0.115c-0.018-0.038-0.027-0.202-0.025-0.49
			c0.011-0.221,0.025-0.36,0.046-0.418l-0.071-0.145c0.105-0.317,0.146-0.506,0.117-0.563c0.039-0.019,0.059-0.052,0.059-0.101
			c0-0.047,0.01-0.076,0.028-0.086c-0.009-0.02-0.017-0.045-0.021-0.079s-0.018-0.069-0.037-0.109
			C66.075,185.55,66.301,185.402,66.667,185.221z"/>
		<path fill="#231F20" d="M70.529,183.661c0.113-0.063,0.275-0.102,0.492-0.113s0.361-0.038,0.437-0.08
			c0.168,0.078,0.289,0.096,0.364,0.054c0.039,0.026,0.109,0.054,0.214,0.082c0.103,0.029,0.185,0.077,0.246,0.141
			c0.065-0.014,0.229,0.142,0.485,0.465l0.027-0.016c0.018-0.011,0.049-0.046,0.088-0.105c0.041-0.061,0.07-0.095,0.088-0.105
			c0.006-0.077,0.033-0.148,0.084-0.213c0.049-0.065,0.122-0.145,0.219-0.236c0.098-0.091,0.177-0.167,0.24-0.229
			c0.047-0.051,0.096-0.146,0.151-0.288c0.054-0.144,0.121-0.268,0.196-0.373c0.076-0.104,0.177-0.18,0.299-0.225
			c0.167-0.316,0.451-0.577,0.855-0.781c0.018-0.011,0.049-0.011,0.092,0.002c0.045,0.013,0.09,0.019,0.139,0.016
			c0.223-0.175,0.507-0.208,0.855-0.095c0.347,0.111,0.555,0.16,0.621,0.147c0.059,0.017,0.151,0.074,0.282,0.172
			c0.132,0.1,0.239,0.161,0.327,0.187c0.011,0.019,0.02,0.044,0.025,0.078c0.006,0.033,0.017,0.06,0.025,0.076
			c0.021,0.038,0.061,0.086,0.115,0.141s0.094,0.101,0.115,0.139l0.048,0.083c0.021-0.011,0.048-0.003,0.088,0.024l0.062,0.04
			l0.047,0.085c0.031,0.056,0.095,0.132,0.186,0.228c0.092,0.098,0.159,0.183,0.202,0.256c0.028,0.01,0.062,0.021,0.096,0.038
			c0.033,0.02,0.066,0.03,0.095,0.038l0.16,0.281c0.032,0.056,0.053,0.137,0.063,0.242c0.01,0.104,0.025,0.177,0.048,0.215
			c0.146,0.386,0.214,0.595,0.205,0.624c0.112,0.108,0.159,0.194,0.144,0.252c0.012,0.018,0.033,0.037,0.067,0.053
			c0.035,0.019,0.06,0.037,0.067,0.055c0.019,0.337,0.021,0.52,0.016,0.55c0.087,0.023,0.173,0.11,0.259,0.26
			c0.054,0.094,0.063,0.175,0.026,0.244c0.012,0.018,0.035,0.018,0.072-0.004s0.058-0.008,0.061,0.04
			c0.021,0.038,0.027,0.095,0.021,0.173l-0.023,0.088c0.031,0.055,0.091,0.103,0.174,0.143c0.085,0.038,0.146,0.071,0.186,0.099
			c0.013,0.019,0.012,0.049-0.002,0.095c-0.013,0.043-0.006,0.084,0.015,0.121l0.032,0.056c0.01,0.02,0.049,0.065,0.115,0.141
			c0.065,0.072,0.109,0.128,0.131,0.165l-0.013,0.045c0.011,0.019,0.021,0.038,0.031,0.056c0.011,0.02,0.056,0.031,0.132,0.036
			c0.049-0.002,0.084,0.016,0.104,0.053c0.177-0.125,0.341-0.261,0.492-0.408c0.15-0.146,0.305-0.32,0.463-0.521
			s0.273-0.347,0.347-0.438c0.042-0.099,0.123-0.25,0.243-0.454c0.117-0.201,0.195-0.362,0.228-0.479l0.136-0.151
			c0.024-0.088,0.155-0.335,0.396-0.743c0.372-1.001,0.577-1.551,0.621-1.649l0.225-0.126c0.017-0.06,0.044-0.13,0.083-0.214
			s0.063-0.142,0.07-0.17l0.057-0.032c0.111-0.063,0.227-0.178,0.344-0.343c0.115-0.164,0.222-0.273,0.314-0.326
			c0.299-0.17,0.551-0.141,0.756,0.09l0.176,0.308c0.045,0.124,0.039,0.313-0.015,0.564c-0.056,0.253-0.065,0.432-0.03,0.536
			l-0.052,0.104c-0.035,0.069-0.052,0.127-0.049,0.176c-0.075,0.042-0.128,0.092-0.159,0.146s-0.054,0.124-0.068,0.206
			s-0.025,0.138-0.035,0.168c-0.016,0.058-0.06,0.132-0.131,0.223c-0.072,0.091-0.119,0.173-0.14,0.246
			c-0.021,0.074-0.004,0.156,0.049,0.25c-0.177,0.298-0.272,0.478-0.29,0.534l-0.012,0.044c-0.008,0.03-0.021,0.05-0.041,0.061
			c-0.131,0.074-0.172,0.196-0.125,0.367c-0.02,0.011-0.039,0.029-0.063,0.055c-0.021,0.025-0.043,0.043-0.063,0.054
			s-0.02,0.098-0.001,0.261c-0.017,0.06-0.083,0.158-0.2,0.299c-0.119,0.142-0.174,0.26-0.169,0.354
			c-0.057,0.033-0.125,0.107-0.205,0.228c-0.079,0.12-0.134,0.201-0.161,0.24c-0.033,0.07-0.104,0.165-0.207,0.284
			c-0.105,0.121-0.17,0.227-0.195,0.313c-0.019,0.012-0.045,0.038-0.08,0.083c-0.037,0.046-0.064,0.074-0.083,0.084
			c-0.009,0.029-0.052,0.128-0.13,0.296c-0.077,0.168-0.153,0.272-0.229,0.315l-0.113,0.063c-0.026,0.04-0.057,0.104-0.09,0.199
			c-0.033,0.093-0.06,0.146-0.078,0.155c-0.109,0.112-0.158,0.201-0.146,0.269c-0.083,0.07-0.177,0.179-0.279,0.324
			c-0.103,0.146-0.178,0.243-0.223,0.294l-0.14,0.079l-0.125,0.108c-0.145,0.008-0.234,0.021-0.272,0.043l-0.336,0.19
			c-0.306,0.074-0.545,0.087-0.72,0.038l-0.18-0.121c-0.082-0.054-0.209-0.104-0.384-0.153c-0.288-0.157-0.438-0.245-0.446-0.265
			c-0.305-0.101-0.574-0.269-0.808-0.507c-0.176-0.048-0.394-0.19-0.649-0.428c-0.26-0.237-0.408-0.369-0.447-0.395
			c-0.012-0.021-0.016-0.049-0.012-0.088c0.002-0.039,0-0.066-0.012-0.085c-0.16-0.106-0.32-0.301-0.479-0.582
			c-0.074-0.131-0.118-0.229-0.131-0.297c-0.119-0.08-0.156-0.145-0.111-0.195c-0.09-0.024-0.18-0.12-0.275-0.289
			c-0.096-0.168-0.158-0.257-0.187-0.266c-0.003-0.048,0.003-0.101,0.02-0.159c-0.038-0.026-0.081-0.077-0.124-0.151
			c-0.041-0.075-0.064-0.161-0.07-0.257c-0.08-0.054-0.131-0.1-0.15-0.138l-0.012-0.215c-0.041-0.025-0.075-0.069-0.107-0.125
			c-0.042-0.075-0.076-0.179-0.104-0.313c-0.025-0.133-0.055-0.229-0.088-0.285c-0.01-0.019-0.021-0.037-0.03-0.055l-0.06-0.041
			c-0.02,0.011-0.043,0.036-0.068,0.075c-0.027,0.04-0.065,0.062-0.112,0.063c0.031,0.057,0.043,0.142,0.035,0.258
			c-0.009,0.116,0.009,0.212,0.051,0.287c-0.063,0.11-0.094,0.282-0.096,0.518c-0.002,0.236-0.024,0.403-0.067,0.501L75,186.314
			c0.021,0.038,0.063,0.069,0.127,0.095c0.064,0.026,0.104,0.048,0.111,0.066c0.014,0.066,0.014,0.166,0.002,0.296
			c-0.014,0.131-0.008,0.238,0.018,0.325c0.119,0.079,0.217,0.186,0.29,0.316c0.128,0.225,0.146,0.411,0.058,0.561
			c0.166,0.202,0.271,0.342,0.312,0.417c0.003,0.049-0.017,0.102-0.056,0.161c-0.041,0.061-0.057,0.1-0.045,0.118
			c0.021,0.038,0.063,0.07,0.129,0.096c0.063,0.024,0.101,0.047,0.109,0.066l0.207,0.364c-0.023,0.087-0.01,0.178,0.043,0.271
			l0.049,0.084c-0.027,0.04,0,0.174,0.078,0.4c-0.017,0.059-0.008,0.116,0.023,0.172c0.01,0.02,0.039,0.046,0.084,0.082
			s0.072,0.064,0.083,0.083c0.021,0.037,0.024,0.097,0.01,0.18s-0.013,0.145,0.009,0.181c-0.018,0.01-0.035,0.132-0.053,0.362
			c0.039,0.027,0.073,0.076,0.102,0.147c0.027,0.071,0.062,0.118,0.103,0.146c0.008,0.145-0.071,0.287-0.237,0.431
			c-0.009,0.029-0.013,0.088-0.013,0.174c-0.001,0.087-0.015,0.149-0.041,0.189l-0.28,0.159c-0.144,0.008-0.254,0.033-0.328,0.075
			c-0.06-0.017-0.211-0.047-0.459-0.092c-0.248-0.044-0.433-0.107-0.552-0.188c-0.065,0.014-0.153-0.011-0.264-0.071
			c-0.109-0.063-0.188-0.091-0.235-0.089c-0.104-0.14-0.268-0.243-0.492-0.313c-0.226-0.07-0.357-0.119-0.397-0.146
			c-0.208-0.277-0.386-0.548-0.533-0.811l-0.112-0.196c-0.021-0.036-0.037-0.089-0.051-0.154c-0.014-0.066-0.023-0.109-0.036-0.128
			c-0.011-0.02-0.036-0.041-0.075-0.069c-0.039-0.026-0.064-0.048-0.076-0.068c-0.01-0.019-0.021-0.049-0.033-0.093
			c-0.012-0.042-0.021-0.072-0.033-0.092c-0.01-0.018-0.049-0.064-0.115-0.138c-0.066-0.074-0.115-0.139-0.146-0.195l-0.047-0.084
			c-0.096-0.169-0.18-0.271-0.248-0.306l-0.365-0.645c-0.008-0.144-0.048-0.258-0.119-0.34c0.023-0.089,0.018-0.178-0.021-0.267
			c-0.037-0.09-0.092-0.195-0.16-0.317c-0.067-0.121-0.114-0.224-0.139-0.31c-0.011-0.021-0.022-0.074-0.037-0.164
			c-0.015-0.092-0.033-0.154-0.055-0.192c-0.105-0.188-0.154-0.295-0.146-0.324c-0.021-0.038-0.071-0.083-0.151-0.137
			c-0.124-0.175-0.271-0.464-0.435-0.866c-0.166-0.398-0.291-0.675-0.375-0.825c-0.086-0.148-0.043-0.334,0.129-0.554
			C70.238,183.912,70.379,183.746,70.529,183.661z"/>
		<path fill="#231F20" d="M84.484,174.829c0.156-0.113,0.384-0.21,0.683-0.295c0.298-0.081,0.472-0.126,0.519-0.135
			c0.107,0.003,0.311-0.01,0.606-0.04c0.297-0.029,0.53-0.037,0.696-0.027c0.019-0.011,0.058-0.021,0.119-0.025
			c0.063-0.006,0.105-0.029,0.129-0.071c0.061,0.009,0.154,0.041,0.285,0.092c0.129,0.052,0.23,0.092,0.304,0.119l0.252,0.017
			c0.103,0.032,0.231,0.111,0.389,0.236s0.271,0.202,0.345,0.229c0.025,0.035,0.102,0.067,0.228,0.096
			c0.126,0.027,0.208,0.067,0.246,0.121c0.163,0.227,0.274,0.346,0.335,0.354l0.005,0.115c0.056,0.041,0.468,0.485,1.239,1.333
			c0.087-0.063,0.152-0.176,0.193-0.339c0.041-0.162,0.1-0.283,0.174-0.364c0.063-0.206,0.127-0.355,0.188-0.455
			c0.166-0.543,0.507-1.135,1.026-1.773c-0.016-0.095,0.087-0.302,0.308-0.621c0.041-0.055,0.081-0.138,0.121-0.246
			c0.041-0.11,0.069-0.169,0.088-0.183c0.062-0.098,0.331-0.385,0.81-0.861c0.035-0.024,0.127-0.118,0.275-0.278
			s0.26-0.266,0.329-0.317c0.117-0.057,0.271-0.074,0.458-0.053c0.188,0.024,0.327,0.096,0.415,0.218
			c0.051,0.069,0.082,0.168,0.092,0.291c-0.01,0.063-0.042,0.164-0.096,0.31c-0.009,0.139-0.022,0.242-0.052,0.314
			c-0.019,0.015-0.034,0.024-0.053,0.038c-0.035,0.025-0.055,0.054-0.06,0.082c-0.005,0.03-0.005,0.076,0.001,0.141
			c0.005,0.063,0.005,0.107,0,0.139s-0.025,0.092-0.064,0.186c-0.039,0.095-0.054,0.165-0.045,0.212
			c-0.006,0.03-0.009,0.072-0.01,0.125c-0.001,0.055-0.004,0.097-0.009,0.127l-0.101,0.19l-0.145,0.461l-0.052,0.316
			c-0.195,0.168-0.329,0.463-0.396,0.882c-0.188,0.216-0.298,0.453-0.324,0.71c-0.057,0.068-0.099,0.137-0.125,0.21
			c-0.027,0.072-0.049,0.154-0.063,0.243c-0.015,0.092-0.033,0.157-0.056,0.2c-0.164,0.25-0.26,0.412-0.286,0.484
			c-0.015,0.09-0.046,0.18-0.089,0.264c-0.018,0.013-0.026,0.046-0.027,0.1s-0.004,0.096-0.01,0.125
			c-0.163,0.252-0.241,0.4-0.233,0.448c-0.092,0.092-0.175,0.225-0.249,0.396c-0.074,0.173-0.156,0.308-0.25,0.399
			c-0.017,0.012-0.021,0.05-0.018,0.111c0.006,0.063-0.024,0.104-0.09,0.125c0.039,0.13,0.018,0.227-0.069,0.288l0.035,0.215
			c-0.005,0.029,0.012,0.07,0.049,0.124c0.038,0.052,0.062,0.102,0.067,0.148c0.009,0.049-0.006,0.084-0.041,0.109
			c0.025,0.035,0.047,0.046,0.063,0.032c0.062,0.011,0.099,0.023,0.108,0.042c0.025,0.034,0.033,0.081,0.023,0.142l-0.015,0.091
			c0.062,0.01,0.104,0.063,0.135,0.161c0.031,0.097,0.076,0.15,0.138,0.16l-0.019,0.251c0.042,0.021,0.058,0.071,0.046,0.146
			c-0.013,0.075-0.013,0.121,0,0.141l0.057,0.078c0.051,0.068,0.088,0.176,0.11,0.317c0.136,0.115,0.234,0.215,0.298,0.303
			c0.102,0.14,0.149,0.263,0.147,0.369c0.055,0.041,0.126,0.121,0.215,0.244c0.164,0.228,0.218,0.412,0.164,0.559l0.094,0.131
			c0.127,0.174,0.198,0.293,0.22,0.357l0.035,0.213c0.036,0.054,0.098,0.102,0.184,0.146c0.008,0.048,0.132,0.329,0.371,0.845
			c0.065,0.165,0.111,0.266,0.137,0.3c0.051,0.07,0.105,0.109,0.166,0.119c0.008,0.048,0.041,0.122,0.102,0.226
			c0.062,0.103,0.078,0.188,0.051,0.262c0.061,0.01,0.104,0.032,0.127,0.067c0.061,0.302,0.088,0.652,0.084,1.053
			c0.009,0.048,0.006,0.108-0.006,0.184c-0.013,0.075-0.021,0.128-0.024,0.158c-0.028,0.072-0.05,0.161-0.065,0.266
			c-0.019,0.105-0.047,0.186-0.086,0.241l-0.162,0.436c-0.035,0.21-0.062,0.321-0.078,0.335c-0.019,0.013-0.059,0.075-0.123,0.188
			c-0.063,0.112-0.095,0.208-0.092,0.285c-0.07,0.051-0.146,0.131-0.225,0.242c-0.079,0.109-0.145,0.183-0.196,0.222
			c-0.034,0.025-0.102,0.046-0.196,0.062c-0.07,0.155-0.203,0.305-0.395,0.443c-0.279,0.202-0.523,0.286-0.732,0.25l-0.133,0.097
			c-0.094,0.015-0.248,0.039-0.462,0.073c-0.213,0.035-0.394,0.052-0.539,0.052s-0.284-0.02-0.419-0.057
			c-0.199,0.091-0.445,0.098-0.74,0.02c-0.148,0.052-0.367,0.024-0.656-0.084c-0.078,0.004-0.187-0.025-0.321-0.086
			c-0.138-0.061-0.235-0.097-0.294-0.105c-0.362-0.244-0.618-0.47-0.77-0.679c-0.013-0.019-0.011-0.032,0.008-0.045
			c-0.043-0.021-0.096-0.077-0.158-0.164c-0.1-0.141-0.154-0.233-0.162-0.28c-0.014-0.019-0.039-0.024-0.077-0.024
			c-0.038,0.001-0.071-0.016-0.097-0.051c-0.389-0.541-0.494-1.035-0.313-1.482c-0.099-0.246-0.079-0.459,0.058-0.638
			c-0.067-0.058-0.098-0.115-0.086-0.176c-0.015-0.018,0.016-0.051,0.084-0.102l-0.016-0.188l0.029-0.181l-0.012-0.071
			c-0.01-0.049-0.019-0.08-0.029-0.098c0.008-0.061,0.049-0.169,0.121-0.327c0.07-0.157,0.084-0.287,0.039-0.386
			c0.068-0.05,0.111-0.102,0.129-0.152c0.016-0.052,0.023-0.124,0.023-0.216c-0.002-0.093,0-0.155,0.006-0.184l0.123-0.327
			c0.028-0.18,0.055-0.292,0.076-0.333c0.004-0.031,0.021-0.063,0.051-0.098c0.027-0.033,0.045-0.065,0.051-0.095
			c0.009-0.061,0.021-0.135,0.035-0.225c0.016-0.09,0.033-0.157,0.057-0.199c0.009-0.061,0.046-0.192,0.109-0.397
			c-0.024-0.033-0.062-0.049-0.107-0.041c-0.049,0.01-0.1,0.031-0.148,0.068c-0.054,0.038-0.096,0.054-0.125,0.049
			c-0.018,0.013-0.049,0.018-0.094,0.008c-0.045-0.007-0.076-0.004-0.094,0.009c-0.572,0.199-0.977,0.267-1.21,0.196
			c-0.169,0.097-0.331,0.094-0.483-0.009c-0.1,0.045-0.24,0.053-0.42,0.024c-0.031-0.005-0.043-0.021-0.037-0.054l0.008-0.045
			c-0.03-0.005-0.078,0.003-0.145,0.022l-0.052,0.039c-0.042-0.022-0.149-0.052-0.321-0.087c-0.171-0.035-0.297-0.089-0.376-0.164
			c-0.019,0.013-0.049,0.015-0.095,0.008c-0.044-0.008-0.076-0.005-0.094,0.009c-0.099-0.063-0.23-0.119-0.4-0.17
			c-0.168-0.05-0.273-0.086-0.316-0.109c-0.08-0.073-0.188-0.148-0.32-0.225c-0.135-0.076-0.209-0.123-0.221-0.139l-0.095-0.131
			c-0.024-0.034-0.054-0.056-0.083-0.061c-0.029-0.004-0.051-0.016-0.063-0.032l-0.228-0.314c-0.188-0.262-0.301-0.473-0.337-0.632
			c-0.013-0.018-0.02-0.045-0.021-0.084s-0.015-0.075-0.039-0.11l-0.075-0.104c-0.009-0.048-0.021-0.118-0.034-0.213
			c-0.016-0.095-0.027-0.167-0.036-0.214c-0.007-0.048-0.028-0.104-0.063-0.172c-0.034-0.067-0.06-0.11-0.071-0.127
			c-0.013-0.017-0.021-0.073-0.021-0.165c0-0.091-0.004-0.163-0.013-0.209c-0.007-0.048-0.009-0.179-0.005-0.393
			c-0.023-0.144-0.018-0.228,0.018-0.251l-0.113-0.157c-0.006-0.154,0-0.278,0.014-0.367c0.04-0.056,0.082-0.145,0.124-0.269
			c0.045-0.123,0.067-0.201,0.071-0.231c0.022-0.042,0.022-0.135,0-0.278c-0.022-0.142-0.031-0.228-0.028-0.257
			c0.006-0.03,0.038-0.133,0.097-0.309c0.006-0.029,0.006-0.076,0.002-0.14c-0.007-0.062-0.008-0.108-0.002-0.139
			c0.018-0.013,0.043-0.051,0.075-0.114c0.033-0.064,0.046-0.121,0.039-0.167l0.131-0.094c0.056-0.253,0.24-0.584,0.554-0.996
			c0.021-0.042,0.039-0.094,0.049-0.154C83.91,175.282,84.188,175.042,84.484,174.829z M87.127,177.613l-0.037-0.053
			c-0.035,0.024-0.063,0.098-0.082,0.218c-0.02,0.119-0.072,0.212-0.16,0.274c0.025,0.035,0.024,0.088-0.002,0.16
			c-0.027,0.074-0.043,0.125-0.049,0.154l-0.104,0.076c0.027,0.113-0.008,0.256-0.104,0.433c-0.098,0.178-0.151,0.295-0.162,0.355
			l-0.104,0.075c0.118,0.42,0.171,0.658,0.161,0.72l0.045,0.007c0.025,0.036,0.045,0.063,0.057,0.079
			c0.039,0.052,0.072,0.127,0.104,0.224c0.029,0.099,0.058,0.163,0.084,0.198l0.035,0.053c0.084-0.031,0.219-0.019,0.41,0.042
			c0.189,0.063,0.328,0.063,0.416-0.001c0.053-0.038,0.105-0.109,0.161-0.216c0.056-0.105,0.104-0.187,0.146-0.243
			c-0.026-0.035-0.028-0.093-0.008-0.174c0.021-0.082,0.033-0.136,0.039-0.167l-0.023-0.143c-0.006-0.154-0.012-0.256-0.02-0.306
			c-0.039-0.235-0.109-0.424-0.209-0.563c0.014-0.092-0.029-0.205-0.13-0.345l-0.095-0.132c-0.051-0.068-0.111-0.19-0.184-0.364
			C87.238,177.802,87.178,177.682,87.127,177.613z M90.729,183.046c-0.127,0.118-0.229,0.316-0.305,0.598
			c-0.076,0.278-0.195,0.491-0.355,0.636c0.029,0.188,0.011,0.31-0.06,0.359l0.034,0.214c-0.039,0.054-0.072,0.156-0.096,0.308
			c-0.024,0.15-0.065,0.259-0.121,0.326c0.014,0.096,0.012,0.163-0.012,0.207c-0.004,0.029-0.016,0.07-0.031,0.122
			s-0.026,0.092-0.03,0.123c-0.005,0.028,0.015,0.102,0.058,0.217c0.043,0.114,0.035,0.206-0.021,0.272
			c0.008,0.048,0.021,0.077,0.044,0.088c0.021,0.011,0.038,0.024,0.051,0.043c-0.045,0.085-0.049,0.228-0.012,0.426
			c0.037,0.197,0.051,0.327,0.042,0.387c0.061,0.011,0.107,0.041,0.146,0.094c0.012,0.018,0.033,0.075,0.064,0.172
			c0.029,0.099,0.057,0.163,0.082,0.198l0.038,0.052c0.149,0.024,0.259,0.065,0.327,0.123c0.158-0.034,0.301-0.099,0.422-0.186
			l0.498-0.358l0.199-0.384l-0.075-0.104c0.026-0.073,0.077-0.195,0.151-0.368c0.074-0.172,0.123-0.327,0.146-0.462
			c0.021-0.135-0.003-0.27-0.074-0.405c0.024-0.149,0.021-0.266-0.013-0.348c-0.008-0.047-0.063-0.141-0.162-0.282
			c-0.075-0.104-0.111-0.263-0.107-0.479c-0.149-0.209-0.231-0.415-0.246-0.615c-0.088-0.124-0.137-0.246-0.147-0.371
			c-0.085-0.045-0.146-0.094-0.185-0.146c-0.024-0.035-0.06-0.109-0.103-0.224S90.784,183.085,90.729,183.046z"/>
	</g>
	<g>
		<path fill="#5AB1AF" d="M17.232,90.205c-1.432,0.581-2.738,1.957-1.631,3.394c0.359,0.465,0.912,1.109,1.467,1.354
			c0.721,0.317,1.146-0.114,1.666-0.574c0.948-0.836,1.352-1.81,0.887-3.015C19.225,90.331,17.232,90.205,17.232,90.205z"/>
		<path fill="#5AB1AF" d="M25.962,92.047c-1.719-0.463-3.876-0.111-3.859,1.979c0.003,0.676,0.063,1.651,0.401,2.263
			c0.44,0.795,1.132,0.696,1.928,0.638c1.454-0.11,2.501-0.719,2.919-2.151C27.705,93.552,25.962,92.047,25.962,92.047z"/>
		<path fill="#5AB1AF" d="M36.933,94.706c-0.994-1.475-2.855-2.619-4.21-1.025c-0.44,0.517-1.034,1.294-1.178,1.975
			c-0.184,0.893,0.405,1.268,1.044,1.741c1.173,0.869,2.365,1.094,3.615,0.278C37.269,96.984,36.933,94.706,36.933,94.706z"/>
		<path fill="#5AB1AF" d="M41.969,93.426c-1.4,1.098-2.415,3.034-0.731,4.273c0.546,0.404,1.363,0.942,2.054,1.037
			c0.9,0.124,1.236-0.489,1.664-1.16c0.786-1.233,0.923-2.436,0.027-3.626C44.222,92.934,41.969,93.426,41.969,93.426z"/>
		<path fill="#5AB1AF" d="M54.073,93.993c-1.616-0.741-3.804-0.754-4.132,1.312c-0.11,0.668-0.211,1.64,0.019,2.298
			c0.306,0.858,1.005,0.873,1.797,0.944c1.456,0.135,2.589-0.295,3.236-1.64C55.544,95.765,54.073,93.993,54.073,93.993z"/>
		<path fill="#5AB1AF" d="M62.479,92.23c-1.416-0.651-3.338-0.663-3.625,1.147c-0.095,0.588-0.184,1.439,0.02,2.018
			c0.266,0.753,0.88,0.766,1.574,0.829c1.277,0.115,2.269-0.26,2.839-1.438C63.77,93.785,62.479,92.23,62.479,92.23z"/>
		<path fill="#5AB1AF" d="M69.214,90.729c-0.812-0.939-2.194-1.583-3.003-0.367c-0.262,0.396-0.609,0.98-0.652,1.466
			c-0.057,0.633,0.383,0.847,0.865,1.123c0.885,0.505,1.729,0.563,2.527-0.102C69.637,92.281,69.214,90.729,69.214,90.729z"/>
		<path fill="#5AB1AF" d="M14.112,89.03c-0.811-0.939-2.194-1.58-3.003-0.364c-0.26,0.394-0.607,0.979-0.652,1.464
			c-0.056,0.635,0.384,0.845,0.867,1.122c0.886,0.508,1.727,0.563,2.528-0.102C14.533,90.582,14.112,89.03,14.112,89.03z"/>
	</g>
	<g>
		<path fill="#231F20" d="M33.544,106.329l0.402-0.029c0.08,0.002,0.225,0.034,0.438,0.094c0.212,0.061,0.385,0.092,0.52,0.096
			l0.2,0.006c0.425,0.066,1.236,0.235,2.432,0.51c0.024,0.028,0.098,0.063,0.217,0.107c0.118,0.043,0.19,0.104,0.215,0.187
			l0.24,0.008c0.053,0.055,0.242,0.174,0.57,0.356c0.329,0.185,0.545,0.383,0.646,0.601l-0.002,0.079
			c-0.002,0.055-0.011,0.121-0.026,0.2s-0.023,0.133-0.024,0.16c-0.002,0.08,0.009,0.134,0.036,0.161
			c-0.028,0.026-0.098,0.084-0.207,0.175c-0.108,0.091-0.205,0.161-0.286,0.212l-0.08-0.002c-0.054-0.001-0.119,0.003-0.2,0.015
			c-0.08,0.012-0.134,0.016-0.16,0.016c-0.027-0.001-0.067-0.028-0.118-0.083c-0.056,0.025-0.136,0.043-0.243,0.053
			c-0.106,0.011-0.188,0.016-0.24,0.014c-0.027-0.002-0.108,0.036-0.244,0.112c-0.137,0.077-0.244,0.113-0.324,0.111l-0.08-0.002
			c-0.187-0.005-0.309,0.005-0.362,0.03c-0.214,0.021-0.391,0.108-0.529,0.266c-0.348,0.044-0.711,0.114-1.088,0.209
			c-0.026-0.001-0.081,0.024-0.162,0.075c-0.082,0.052-0.15,0.077-0.203,0.075l-0.16-0.006c-0.083,0.078-0.15,0.13-0.205,0.154
			c-0.026,0-0.113,0.004-0.261,0.013c-0.147,0.01-0.249,0.026-0.303,0.052l-0.081,0.078c-0.082,0.077-0.15,0.115-0.204,0.113
			c-0.056,0.054-0.084,0.105-0.085,0.158c-0.187-0.005-0.357,0.07-0.508,0.226c-0.151,0.156-0.269,0.247-0.349,0.271
			c-0.027,0.026-0.028,0.053-0.003,0.08l-0.002,0.08c-0.081,0.023-0.17,0.095-0.267,0.213c-0.098,0.117-0.173,0.188-0.227,0.214
			l-0.007,0.241c-0.056,0.052-0.125,0.164-0.21,0.335c-0.085,0.171-0.184,0.282-0.291,0.332c-0.174,0.477-0.292,0.861-0.353,1.153
			c-0.027-0.001-0.055,0.018-0.082,0.058c-0.028,0.039-0.069,0.072-0.123,0.097l-0.015,0.521c-0.001,0.026-0.037,0.08-0.105,0.158
			c-0.068,0.077-0.104,0.156-0.106,0.236c-0.082,0.024-0.15,0.104-0.208,0.234c-0.058,0.132-0.112,0.211-0.167,0.236
			c0.102,0.163,0.086,0.282-0.051,0.358c0.051,0.109,0.075,0.19,0.073,0.243c-0.001,0.054-0.018,0.133-0.047,0.239
			c-0.029,0.105-0.045,0.186-0.047,0.238c0.156,0.14,0.469,0.229,0.935,0.269c0.466,0.04,0.766,0.076,0.899,0.105
			c0.054,0.001,0.08-0.011,0.081-0.037c0.055-0.025,0.095-0.037,0.121-0.037c-0.002,0.054,0.052,0.082,0.159,0.085
			c0.187,0.005,0.594,0.011,1.221,0.015c0.629,0.004,1.13-0.001,1.506-0.017c0.882-0.056,1.431-0.065,1.644-0.033
			c0.054,0.001,0.134,0.018,0.24,0.047c0.105,0.03,0.186,0.045,0.239,0.047c0.08,0.002,0.233,0.014,0.46,0.034
			c0.227,0.02,0.393,0.045,0.5,0.074c0.158,0.031,0.33,0.104,0.514,0.215c0.209,0.167,0.366,0.266,0.474,0.294
			c0.23,0.327,0.359,0.505,0.385,0.532c0.067,0.482,0.1,0.751,0.099,0.804c-0.006,0.188-0.064,0.333-0.174,0.437
			c-0.002,0.055,0.002,0.154,0.012,0.302c0.009,0.146,0.012,0.261,0.01,0.341c-0.002,0.053-0.032,0.186-0.092,0.397
			c-0.001,0.027,0.004,0.095,0.015,0.201c0.01,0.107,0.015,0.188,0.013,0.241l-0.003,0.12c-0.002,0.054-0.03,0.133-0.087,0.238
			c-0.007,0.239-0.025,0.387-0.053,0.438c0.075,0.163,0.112,0.271,0.11,0.324c-0.001,0.054-0.016,0.093-0.043,0.119
			c-0.028,0.053-0.017,0.094,0.036,0.122l0.08,0.002c-0.058,0.158-0.087,0.251-0.088,0.276c0.053,0.028,0.074,0.218,0.064,0.563
			c-0.001,0.027,0.024,0.055,0.078,0.083c0.052,0.029,0.078,0.069,0.077,0.123c-0.057,0.104-0.086,0.185-0.087,0.238
			c-0.002,0.054,0.002,0.113,0.014,0.181c0.012,0.067,0.029,0.141,0.055,0.222c0.024,0.081,0.036,0.148,0.034,0.202
			s-0.011,0.14-0.028,0.26c-0.017,0.12-0.025,0.207-0.026,0.261l0.035,0.16c-0.001,0.026-0.016,0.061-0.043,0.1
			c-0.028,0.04-0.042,0.073-0.043,0.1c0.05,0.108,0.075,0.189,0.073,0.242c-0.001,0.027-0.016,0.067-0.043,0.119l-0.002,0.041
			c-0.001,0.054,0.003,0.1,0.016,0.141s0.019,0.074,0.018,0.102L39.88,126c-0.083,0.105-0.113,0.211-0.089,0.319
			c-0.17,0.29-0.255,0.461-0.256,0.514c-0.001,0.027,0.012,0.061,0.037,0.102c0.025,0.041,0.038,0.074,0.037,0.101
			c-0.001,0.027-0.029,0.106-0.087,0.238c0.052,0.055,0.077,0.107,0.075,0.162c-0.002,0.053-0.023,0.126-0.065,0.219
			c-0.043,0.092-0.052,0.165-0.027,0.22c-0.029,0.105-0.112,0.197-0.248,0.273c-0.001,0.025,0.012,0.061,0.037,0.102
			c0.025,0.04,0.024,0.073-0.003,0.101c-0.001,0.025-0.063,0.125-0.189,0.295c-0.125,0.17-0.202,0.32-0.232,0.455
			c-0.359,0.391-0.713,0.594-1.06,0.61c-0.001,0.026-0.022,0.054-0.063,0.079c-0.04,0.025-0.095,0.05-0.162,0.076
			c-0.068,0.024-0.115,0.05-0.143,0.076c-0.026-0.001-0.067,0.023-0.123,0.077c-0.055,0.052-0.096,0.076-0.122,0.076
			c-0.027-0.001-0.054-0.001-0.08-0.002c-0.054-0.001-0.094,0.012-0.121,0.037c-0.081,0.024-0.229,0.034-0.442,0.027
			c-0.134-0.004-0.24-0.021-0.319-0.049c-0.424-0.146-0.674-0.273-0.751-0.382l-0.345-0.531c-0.054-0.056-0.125-0.118-0.216-0.188
			c-0.092-0.069-0.163-0.132-0.216-0.187c-0.051-0.109-0.1-0.278-0.146-0.506c-0.047-0.229-0.07-0.356-0.069-0.382
			c-0.025-0.056-0.063-0.144-0.112-0.265c-0.051-0.122-0.087-0.25-0.109-0.385c0.002-0.054-0.003-0.14-0.013-0.261
			c-0.011-0.121-0.014-0.222-0.012-0.301c0.002-0.054,0.048-0.246,0.138-0.578c0.089-0.332,0.123-0.604,0.104-0.819
			c-0.271,0.072-0.514,0.172-0.731,0.3l-0.08-0.002c-0.054-0.001-0.142,0.029-0.263,0.093c-0.122,0.063-0.224,0.094-0.304,0.092
			l-0.16-0.006c-0.378,0.123-0.622,0.224-0.73,0.301l-0.08-0.002c-0.08-0.002-0.235,0.026-0.464,0.087s-0.41,0.088-0.544,0.085
			c-0.213-0.006-0.506-0.041-0.879-0.105l-0.116-0.124c-0.054-0.001-0.094,0.012-0.121,0.037c-0.028,0.026-0.068,0.025-0.12-0.003
			l-0.16-0.005c-0.161-0.004-0.267-0.047-0.318-0.129c-0.535,0.039-1.013-0.095-1.431-0.401l-0.121-0.003
			c-0.026-0.001-0.212-0.073-0.555-0.217c-0.079-0.029-0.198-0.072-0.358-0.13c-0.158-0.059-0.277-0.115-0.355-0.171l-0.194-0.206
			c-0.21-0.113-0.341-0.21-0.393-0.292c-0.055,0.024-0.107,0.023-0.16-0.004c-0.076-0.137-0.194-0.22-0.354-0.25
			c-0.442-0.468-0.7-0.77-0.776-0.905c-0.026-0.027-0.104-0.109-0.233-0.247c-0.131-0.137-0.248-0.234-0.354-0.291
			c-0.023-0.081-0.075-0.169-0.151-0.265c-0.077-0.097-0.129-0.17-0.154-0.226c0.001-0.025-0.018-0.101-0.054-0.222
			c-0.037-0.122-0.081-0.209-0.132-0.264c0.026-0.026,0.041-0.053,0.042-0.079s-0.024-0.095-0.074-0.203
			c-0.051-0.108-0.088-0.203-0.112-0.284l0.004-0.121l-0.114-0.244c-0.103-0.163-0.152-0.298-0.149-0.404
			c0.002-0.054,0.018-0.106,0.045-0.159c-0.102-0.164-0.17-0.58-0.204-1.249c0.002-0.08,0.043-0.119,0.123-0.117
			c0.001-0.026-0.024-0.054-0.078-0.083c-0.053-0.027-0.078-0.055-0.077-0.082c0.008-0.293,0.04-0.48,0.096-0.559
			c-0.049-0.162-0.071-0.283-0.069-0.363s0.019-0.2,0.05-0.36s0.049-0.278,0.051-0.358c0.001-0.026,0.028-0.065,0.084-0.118
			l0.023-0.841c0.002-0.054,0.024-0.12,0.066-0.199c0.043-0.079,0.063-0.146,0.065-0.198c0.009-0.294,0.053-0.453,0.134-0.478
			c-0.053-0.028-0.057-0.088-0.015-0.182c0.043-0.092,0.064-0.151,0.065-0.179c0.03-0.132,0.05-0.305,0.056-0.519
			c0.006-0.215,0.011-0.374,0.014-0.481l0.126-0.197c0.028-0.08,0.046-0.212,0.052-0.398c0.005-0.188,0.021-0.32,0.052-0.399
			c0.026-0.025,0.068-0.092,0.125-0.197l0.004-0.12c0.004-0.133,0.115-0.304,0.334-0.512l0.004-0.121
			c0.002-0.08,0.031-0.172,0.088-0.277c0.057-0.105,0.085-0.185,0.087-0.238l0.002-0.08c0.056-0.052,0.14-0.183,0.253-0.394
			c0.112-0.211,0.236-0.341,0.372-0.392c-0.025-0.054-0.024-0.106,0.005-0.16c0.027-0.052,0.042-0.092,0.043-0.119l0.165-0.155
			c0.087-0.237,0.198-0.421,0.337-0.552c0.032-0.186,0.158-0.383,0.378-0.591c0.22-0.208,0.345-0.351,0.373-0.43l0.492-0.387
			l0.451-0.389l0.161,0.005c0.463-0.28,0.787-0.418,0.975-0.412c0.353-0.178,0.919-0.382,1.702-0.613
			c0.781-0.232,1.295-0.397,1.537-0.498l0.117,0.084c0.164-0.076,0.352-0.11,0.565-0.104l0.12,0.003
			c0.055-0.052,0.183-0.061,0.382-0.028c0.199,0.032,0.327,0.022,0.382-0.029C33.397,106.311,33.464,106.326,33.544,106.329z
			 M34.435,120.027c-0.082,0.023-0.202,0.034-0.362,0.03c-0.16-0.005-0.28-0.009-0.36-0.011c-0.376,0.043-0.944,0.061-1.706,0.053
			c-0.761-0.009-1.169-0.015-1.222-0.016c-0.081-0.002-0.174-0.024-0.279-0.068c-0.105-0.043-0.186-0.065-0.238-0.067
			c-0.401,0.016-0.611,0.304-0.627,0.865c0.018,0.295,0.065,0.522,0.141,0.686l0.11,0.365l0.233,0.247l0.076,0.162
			c0.025,0.027,0.076,0.117,0.152,0.266c0.076,0.149,0.14,0.238,0.192,0.268l0.119,0.043c0.081,0.002,0.147,0.018,0.2,0.045
			l0.115,0.164c0.052,0.056,0.171,0.085,0.357,0.091c0.214,0.006,0.402-0.029,0.564-0.104c0.053,0.001,0.101-0.011,0.143-0.036
			c0.04-0.024,0.081-0.058,0.122-0.097c0.042-0.039,0.076-0.071,0.103-0.098c0.026,0.027,0.053,0.042,0.079,0.042
			c0.109-0.104,0.191-0.143,0.245-0.113c0.027-0.053,0.11-0.144,0.248-0.273c0.163-0.102,0.285-0.152,0.365-0.149
			c0.056-0.079,0.317-0.337,0.783-0.779c0.028-0.053,0.139-0.17,0.331-0.352l0.368-0.229c0.001-0.025,0.11-0.144,0.33-0.352
			c-0.024-0.054-0.055-0.148-0.091-0.283c-0.036-0.134-0.082-0.216-0.134-0.245C34.768,120.051,34.648,120.034,34.435,120.027z"/>
		<path fill="#231F20" d="M50.966,106.989l0.12,0.003c0.08,0.002,0.193,0.025,0.34,0.07c0.145,0.044,0.245,0.066,0.299,0.068
			c0.053,0.001,0.106,0.011,0.159,0.024c0.054,0.015,0.106,0.022,0.16,0.025l0.481,0.014c0.347,0.01,0.599,0.057,0.757,0.142
			c0.026,0,0.079,0.042,0.157,0.125c0.24,0.007,0.49,0.122,0.752,0.344c0.16,0.004,0.332,0.068,0.516,0.194
			c0.184,0.125,0.343,0.19,0.477,0.194c-0.004,0.134,0.086,0.229,0.271,0.289c0.049,0.188,0.086,0.282,0.111,0.283
			c0.08,0.057,0.188,0.18,0.332,0.37c0.141,0.191,0.265,0.315,0.369,0.372c0.049,0.162,0.1,0.258,0.152,0.285
			c0.025,0.028,0.023,0.062-0.003,0.102c-0.026,0.039-0.042,0.071-0.043,0.099c0.051,0.109,0.14,0.259,0.269,0.449
			c0.127,0.19,0.23,0.341,0.309,0.45c-0.006,0.213-0.023,0.333-0.051,0.358c0,0.027,0.012,0.041,0.039,0.042
			c0.105,0.003,0.186,0.045,0.236,0.127s0.096,0.19,0.131,0.325c0.036,0.135,0.08,0.229,0.133,0.284
			c-0.028,0.054-0.045,0.133-0.047,0.239c-0.004,0.134,0.045,0.296,0.146,0.484c0.102,0.19,0.163,0.313,0.188,0.367
			c0,0.054-0.004,0.14-0.006,0.26c-0.005,0.12,0.006,0.208,0.031,0.263c0.023,0.055,0.057,0.102,0.096,0.143
			c0.039,0.042,0.06,0.076,0.059,0.102c0.066,0.483,0.111,0.739,0.139,0.767c-0.001,0.027-0.01,0.087-0.025,0.18
			c-0.016,0.094-0.024,0.167-0.025,0.22c-0.012,0.401,0.045,0.737,0.171,1.008c-0.009,0.32-0.003,0.602,0.017,0.843
			c-0.002,0.08,0.021,0.195,0.07,0.343c0.049,0.148,0.073,0.249,0.072,0.303c-0.004,0.08-0.047,0.159-0.129,0.237
			c-0.002,0.054,0.004,0.127,0.015,0.221c0.011,0.095,0.015,0.167,0.015,0.222c-0.008,0.239-0.054,0.453-0.14,0.638
			c0.024,0.081,0.035,0.188,0.031,0.322c-0.007,0.187-0.023,0.319-0.052,0.398c-0.002,0.055,0.011,0.107,0.035,0.161
			c0.024,0.055,0.022,0.108-0.006,0.16c0,0.027-0.027,0.053-0.082,0.078c-0.055,0.024-0.082,0.078-0.085,0.158l-0.013,0.439
			c0,0.027,0.013,0.061,0.038,0.102c0.024,0.041,0.036,0.074,0.036,0.101c-0.086,0.239-0.131,0.371-0.131,0.397
			c-0.004,0.106,0.033,0.241,0.107,0.403c-0.002,0.055-0.029,0.106-0.085,0.158c-0.055,0.052-0.082,0.091-0.083,0.118
			c0.025,0.027,0.036,0.135,0.03,0.322c-0.002,0.08,0.01,0.134,0.036,0.162c-0.027,0.025-0.057,0.059-0.084,0.098
			c-0.026,0.039-0.055,0.072-0.082,0.098c-0.028,0.026-0.057,0.06-0.084,0.1c-0.027,0.039-0.068,0.058-0.121,0.057
			c-0.12,0.477-0.209,0.795-0.268,0.954c-0.027,0-0.067,0.018-0.123,0.057c-0.055,0.039-0.106,0.044-0.16,0.017
			c-0.168,0.263-0.278,0.393-0.332,0.391c-0.031,0.159-0.115,0.305-0.252,0.434c-0.029,0.054-0.023,0.094,0.016,0.121
			c0.04,0.028,0.061,0.057,0.059,0.082c-0.57,0.278-1.117,0.677-1.639,1.196c-0.134-0.004-0.311,0.071-0.527,0.225
			c-0.08-0.002-0.176,0.029-0.283,0.094c-0.109,0.063-0.189,0.094-0.242,0.092l-0.24-0.007c-0.055-0.001-0.243,0.06-0.566,0.184
			c-0.271,0.127-0.422,0.203-0.447,0.229c-0.322,0.045-0.539,0.104-0.646,0.182l-0.158-0.045c-0.056-0.001-0.13,0.022-0.224,0.074
			c-0.097,0.052-0.17,0.075-0.224,0.074l-0.882-0.024c-0.32,0.044-0.576,0.063-0.763,0.058l-0.16-0.004
			c-0.054-0.002-0.106-0.03-0.158-0.085c-0.08-0.002-0.194,0.008-0.342,0.03c-0.148,0.022-0.262,0.033-0.342,0.03
			c-0.294-0.009-0.508-0.028-0.641-0.059c-0.054-0.002-0.134-0.017-0.238-0.047c-0.105-0.029-0.199-0.045-0.279-0.048
			c-0.027-0.001-0.067,0.005-0.12,0.017c-0.055,0.013-0.095,0.018-0.121,0.018c-0.08-0.002-0.187-0.045-0.317-0.13
			c-0.132-0.084-0.225-0.126-0.277-0.129l-0.16-0.005c-0.16-0.004-0.333-0.075-0.516-0.215c-0.079-0.028-0.172-0.079-0.276-0.148
			c-0.105-0.069-0.171-0.105-0.197-0.106l-0.119-0.003c-0.026-0.027-0.078-0.082-0.156-0.164c-0.078-0.083-0.143-0.138-0.195-0.167
			c-0.236-0.167-0.354-0.264-0.353-0.291c-0.294-0.035-0.649-0.219-1.067-0.552c-0.054-0.028-0.119-0.084-0.196-0.166
			c-0.078-0.082-0.143-0.137-0.195-0.166c-0.182-0.192-0.284-0.315-0.31-0.37l-0.314-0.25c0.002-0.053-0.037-0.115-0.115-0.184
			c-0.078-0.069-0.115-0.145-0.113-0.225l-0.198-0.085c-0.102-0.189-0.233-0.468-0.397-0.833c-0.163-0.366-0.283-0.616-0.359-0.752
			c-0.126-0.271-0.236-0.607-0.331-1.012c-0.073-0.27-0.108-0.417-0.107-0.444l-0.152-0.285c0.001-0.025-0.027-0.441-0.085-1.245
			c-0.068-0.402-0.103-0.617-0.102-0.645c-0.023-0.107-0.026-0.268-0.006-0.482c0.019-0.213,0.03-0.358,0.032-0.438
			c0.002-0.053-0.01-0.142-0.032-0.262c-0.024-0.121-0.034-0.208-0.033-0.263c0.002-0.053,0.016-0.105,0.045-0.159
			c0.028-0.052,0.043-0.092,0.044-0.118c0.001-0.054-0.003-0.147-0.012-0.281c-0.011-0.133,0-0.241,0.028-0.32l0.045-0.159
			c0.028-0.052,0.029-0.12,0.006-0.2l-0.035-0.161c0.089-0.318,0.148-0.518,0.177-0.597c0.029-0.08,0.046-0.206,0.051-0.38
			c0.005-0.173,0.023-0.333,0.054-0.479c0.03-0.146,0.087-0.258,0.17-0.336c0.009-0.294,0.124-0.599,0.348-0.912
			c0.066-0.479,0.209-0.783,0.427-0.911l0.002-0.08c-0.024-0.054-0.037-0.094-0.037-0.121c0.055-0.024,0.109-0.077,0.165-0.155
			c0.057-0.079,0.098-0.117,0.125-0.116c0.026-0.026,0.027-0.054,0.002-0.08c-0.026-0.027-0.038-0.056-0.038-0.082
			c0.054-0.025,0.103-0.071,0.145-0.138c0.041-0.064,0.09-0.109,0.145-0.136c0.031-0.186,0.131-0.384,0.297-0.593
			c0.167-0.209,0.265-0.367,0.294-0.473c0.47-0.522,0.719-0.809,0.746-0.861c0.055-0.025,0.258-0.126,0.611-0.304
			c0.053-0.025,0.136-0.083,0.245-0.174c0.109-0.09,0.204-0.147,0.285-0.172c0.026,0,0.075-0.011,0.142-0.036
			c0.067-0.023,0.115-0.036,0.143-0.035c0.026,0.001,0.121-0.037,0.283-0.112c0.163-0.076,0.298-0.112,0.405-0.109
			c0.025-0.024,0.095-0.097,0.205-0.214c0.11-0.117,0.219-0.187,0.327-0.211c0.054-0.023,0.188-0.055,0.404-0.089
			c0.214-0.034,0.35-0.09,0.405-0.168c0.105,0.03,0.293,0.048,0.561,0.056l0.2,0.006c0.053,0.001,0.113-0.022,0.183-0.074
			c0.068-0.052,0.128-0.076,0.181-0.075c0.538-0.119,0.822-0.19,0.849-0.217c0.054,0.027,0.119,0.043,0.199,0.046
			c0.161,0.004,0.296-0.045,0.406-0.148c0.054-0.024,0.161-0.036,0.321-0.031l0.521,0.016
			C50.765,107.023,50.887,107.013,50.966,106.989z M51.055,109.478c-0.031,0.213-0.171,0.382-0.415,0.509l-0.006,0.201l-0.121,0.077
			c-0.003,0.106-0.033,0.192-0.088,0.258c-0.057,0.065-0.118,0.138-0.187,0.215c-0.07,0.078-0.119,0.144-0.146,0.196
			c-0.001,0.026,0.012,0.067,0.036,0.122c0.025,0.054,0.038,0.095,0.037,0.12l-0.081,0.038c-0.081,0.025-0.136,0.051-0.163,0.076
			l-0.007,0.241c-0.009,0.32-0.167,0.676-0.472,1.069l-0.004,0.159c-0.003,0.081-0.013,0.208-0.031,0.381
			c-0.02,0.174-0.028,0.3-0.031,0.38c-0.004,0.16,0.018,0.32,0.066,0.482c-0.08,0.025-0.122,0.09-0.126,0.197
			c0,0.027-0.001,0.054-0.002,0.08c-0.001,0.027-0.029,0.066-0.084,0.118c-0.029,0.079-0.053,0.173-0.068,0.278
			c-0.017,0.106-0.025,0.188-0.027,0.24c0.078,0.083,0.115,0.204,0.111,0.364c-0.005,0.16-0.064,0.319-0.175,0.476
			c0.049,0.162,0.071,0.283,0.069,0.363c-0.004,0.134-0.035,0.307-0.095,0.52c-0.001,0.025,0.024,0.066,0.076,0.121
			c0.053,0.056,0.063,0.109,0.035,0.162c-0.058,0.159-0.093,0.452-0.104,0.879c-0.005,0.16-0.005,0.407-0.001,0.742
			c0.003,0.335,0.003,0.581-0.002,0.742l-0.007,0.24c-0.001,0.026,0.012,0.075,0.036,0.142c0.024,0.067,0.038,0.115,0.037,0.142
			c0.047,0.188,0.072,0.457,0.076,0.804s0.017,0.589,0.04,0.723l0.109,0.364c0.096,0.404,0.183,0.646,0.26,0.729
			c0.078,0.082,0.222,0.18,0.434,0.292c0.053,0.001,0.1,0.017,0.139,0.044s0.071,0.042,0.099,0.043
			c0.052,0.028,0.105,0.043,0.159,0.044c0.026,0.001,0.094-0.011,0.201-0.034c0.106-0.023,0.187-0.021,0.241,0.007
			c0.381-0.255,0.68-0.421,0.896-0.495c0.027-0.052,0.078-0.131,0.146-0.236c0.068-0.104,0.133-0.183,0.188-0.234
			c0.056-0.079,0.121-0.225,0.193-0.437c0.072-0.211,0.124-0.356,0.152-0.437l0.126-0.197c0.026-0.053,0.05-0.119,0.065-0.199
			s0.037-0.146,0.064-0.197c0.168-0.236,0.252-0.395,0.255-0.475c0.002-0.08-0.01-0.134-0.036-0.162
			c0.057-0.079,0.119-0.196,0.189-0.354c0.072-0.159,0.121-0.263,0.15-0.316l-0.035-0.161c0.002-0.081,0.03-0.173,0.088-0.277
			c0.058-0.105,0.084-0.171,0.086-0.198c0-0.026,0.002-0.086,0.006-0.181c0.002-0.094,0.018-0.166,0.046-0.22
			c0.002-0.053,0.017-0.104,0.045-0.158c0.026-0.053,0.042-0.093,0.043-0.119l0.019-0.602c0.029-0.133,0.082-0.339,0.157-0.617
			c0.074-0.277,0.114-0.458,0.116-0.537c0.063-0.319,0.027-0.774-0.102-1.367c-0.131-0.591-0.191-1.021-0.185-1.289
			c-0.075-0.135-0.13-0.357-0.161-0.666s-0.06-0.503-0.084-0.584c-0.175-0.433-0.26-0.703-0.257-0.81
			c-0.305-0.569-0.468-0.948-0.487-1.137c-0.106-0.056-0.258-0.154-0.453-0.293c-0.196-0.139-0.361-0.237-0.494-0.295
			C51.457,109.516,51.27,109.483,51.055,109.478z"/>
	</g>
	<g>
		<path fill="#231F20" d="M35.487,128.408l0.12,0.003c0.08,0.002,0.19,0.025,0.337,0.069c0.145,0.044,0.244,0.066,0.298,0.067
			c0.053,0.002,0.106,0.011,0.16,0.025c0.052,0.015,0.104,0.023,0.158,0.024l0.48,0.014c0.346,0.01,0.599,0.058,0.757,0.142
			c0.026,0.001,0.079,0.042,0.156,0.125c0.238,0.007,0.488,0.121,0.75,0.342c0.159,0.005,0.331,0.07,0.515,0.194
			c0.183,0.125,0.34,0.19,0.474,0.194c-0.004,0.134,0.088,0.229,0.272,0.288c0.048,0.188,0.085,0.281,0.112,0.283
			c0.078,0.056,0.188,0.18,0.329,0.369c0.141,0.191,0.264,0.314,0.369,0.37c0.048,0.162,0.099,0.257,0.151,0.285
			c0.026,0.027,0.025,0.062-0.002,0.101c-0.029,0.038-0.043,0.071-0.043,0.099c0.049,0.108,0.138,0.258,0.267,0.448
			c0.128,0.189,0.23,0.34,0.308,0.448c-0.006,0.215-0.023,0.333-0.051,0.358c-0.001,0.027,0.012,0.041,0.039,0.042
			c0.106,0.003,0.186,0.045,0.237,0.127c0.05,0.081,0.094,0.189,0.13,0.323c0.036,0.135,0.08,0.229,0.132,0.284
			c-0.028,0.053-0.044,0.133-0.047,0.238c-0.004,0.135,0.045,0.295,0.146,0.484s0.164,0.311,0.189,0.365
			c-0.001,0.054-0.004,0.14-0.007,0.26c-0.004,0.12,0.007,0.207,0.032,0.261c0.024,0.056,0.057,0.103,0.096,0.144
			s0.059,0.076,0.058,0.102c0.066,0.481,0.111,0.737,0.138,0.764c-0.001,0.027-0.01,0.088-0.025,0.181
			c-0.016,0.093-0.024,0.166-0.026,0.219c-0.012,0.399,0.045,0.735,0.172,1.005c-0.01,0.32-0.005,0.601,0.015,0.84
			c-0.002,0.08,0.021,0.194,0.07,0.343c0.049,0.147,0.073,0.248,0.071,0.302c-0.002,0.08-0.045,0.159-0.127,0.235
			c-0.001,0.055,0.003,0.127,0.015,0.222c0.01,0.094,0.015,0.167,0.013,0.22c-0.007,0.24-0.053,0.453-0.138,0.636
			c0.023,0.081,0.034,0.188,0.03,0.321c-0.005,0.187-0.022,0.319-0.051,0.398c-0.001,0.054,0.01,0.106,0.035,0.161
			c0.024,0.055,0.023,0.107-0.005,0.16c-0.001,0.027-0.028,0.054-0.081,0.077c-0.055,0.025-0.083,0.078-0.085,0.157l-0.013,0.439
			c-0.001,0.027,0.012,0.062,0.037,0.103s0.038,0.075,0.037,0.101c-0.087,0.238-0.131,0.371-0.132,0.396
			c-0.003,0.105,0.033,0.241,0.109,0.402c-0.002,0.055-0.029,0.106-0.085,0.158c-0.056,0.053-0.083,0.092-0.084,0.118
			c0.026,0.027,0.037,0.134,0.031,0.321c-0.002,0.08,0.01,0.134,0.035,0.161c-0.026,0.025-0.055,0.059-0.083,0.098
			c-0.027,0.039-0.056,0.071-0.082,0.097c-0.027,0.026-0.055,0.06-0.082,0.099c-0.029,0.039-0.069,0.058-0.122,0.056
			c-0.121,0.478-0.21,0.794-0.268,0.953c-0.026,0-0.067,0.018-0.122,0.056s-0.108,0.044-0.16,0.017
			c-0.168,0.262-0.278,0.392-0.331,0.391c-0.032,0.159-0.115,0.304-0.253,0.433c-0.028,0.054-0.022,0.094,0.017,0.12
			c0.039,0.028,0.059,0.057,0.058,0.082c-0.568,0.277-1.113,0.674-1.635,1.193c-0.134-0.004-0.309,0.071-0.526,0.224
			c-0.08-0.002-0.175,0.029-0.283,0.092c-0.108,0.063-0.189,0.096-0.242,0.094l-0.24-0.007c-0.054-0.002-0.242,0.06-0.563,0.184
			c-0.271,0.126-0.421,0.202-0.447,0.227c-0.321,0.046-0.537,0.105-0.646,0.183l-0.159-0.044c-0.054-0.001-0.128,0.022-0.222,0.074
			c-0.096,0.051-0.17,0.074-0.223,0.073l-0.879-0.024c-0.321,0.044-0.575,0.063-0.762,0.057l-0.16-0.004
			c-0.054-0.002-0.105-0.029-0.158-0.084c-0.08-0.002-0.193,0.008-0.341,0.03c-0.147,0.022-0.261,0.031-0.341,0.029
			c-0.293-0.008-0.506-0.026-0.638-0.058c-0.054-0.002-0.134-0.017-0.239-0.046c-0.105-0.03-0.198-0.046-0.278-0.048
			c-0.027,0-0.067,0.005-0.12,0.017c-0.055,0.012-0.095,0.019-0.121,0.018c-0.08-0.002-0.186-0.046-0.316-0.13
			c-0.131-0.083-0.224-0.126-0.276-0.128l-0.16-0.004c-0.16-0.005-0.332-0.076-0.513-0.215c-0.079-0.029-0.172-0.078-0.276-0.147
			s-0.171-0.105-0.197-0.106l-0.12-0.003c-0.025-0.027-0.077-0.082-0.154-0.165c-0.078-0.082-0.144-0.137-0.195-0.166
			c-0.236-0.167-0.354-0.263-0.353-0.29c-0.292-0.035-0.647-0.219-1.063-0.551c-0.053-0.027-0.118-0.083-0.195-0.166
			c-0.078-0.082-0.143-0.137-0.196-0.166c-0.181-0.191-0.284-0.314-0.309-0.369l-0.313-0.249c0.002-0.053-0.037-0.114-0.115-0.184
			c-0.078-0.068-0.116-0.144-0.113-0.224l-0.197-0.086c-0.102-0.188-0.233-0.466-0.396-0.831c-0.163-0.364-0.282-0.614-0.358-0.75
			c-0.125-0.27-0.236-0.606-0.331-1.01c-0.072-0.269-0.108-0.416-0.107-0.443l-0.151-0.284c0.001-0.026-0.027-0.44-0.084-1.242
			c-0.069-0.402-0.103-0.616-0.103-0.644c-0.023-0.106-0.026-0.267-0.006-0.479s0.03-0.359,0.032-0.439
			c0.002-0.053-0.009-0.141-0.032-0.261c-0.023-0.12-0.034-0.207-0.032-0.261c0.001-0.054,0.016-0.105,0.044-0.159
			c0.028-0.052,0.043-0.092,0.044-0.119c0.001-0.053-0.003-0.146-0.013-0.281c-0.01-0.133,0-0.239,0.03-0.318l0.044-0.158
			c0.028-0.052,0.03-0.119,0.006-0.2l-0.035-0.161c0.089-0.317,0.147-0.516,0.177-0.596c0.029-0.079,0.046-0.205,0.052-0.378
			c0.005-0.173,0.021-0.333,0.054-0.479c0.029-0.146,0.086-0.258,0.169-0.336c0.008-0.292,0.123-0.596,0.347-0.91
			c0.066-0.478,0.208-0.779,0.425-0.907l0.002-0.08c-0.025-0.054-0.037-0.094-0.037-0.121c0.055-0.025,0.109-0.077,0.165-0.156
			c0.056-0.078,0.098-0.117,0.124-0.116c0.026-0.024,0.027-0.052,0.002-0.08c-0.025-0.026-0.038-0.054-0.038-0.081
			c0.055-0.024,0.103-0.069,0.145-0.136c0.041-0.063,0.09-0.109,0.145-0.135c0.031-0.187,0.131-0.383,0.296-0.592
			c0.166-0.208,0.265-0.365,0.294-0.473c0.469-0.52,0.717-0.806,0.745-0.857c0.055-0.025,0.257-0.126,0.607-0.303
			c0.055-0.024,0.137-0.082,0.246-0.174c0.108-0.09,0.204-0.146,0.285-0.172c0.026,0.001,0.073-0.01,0.141-0.035
			c0.067-0.023,0.114-0.036,0.141-0.035c0.026,0,0.122-0.037,0.284-0.112s0.296-0.112,0.402-0.108
			c0.027-0.024,0.097-0.097,0.207-0.214c0.109-0.116,0.219-0.187,0.326-0.21c0.054-0.023,0.187-0.054,0.401-0.088
			s0.35-0.09,0.406-0.169c0.105,0.03,0.291,0.048,0.558,0.056l0.2,0.006c0.053,0.001,0.114-0.022,0.183-0.074
			c0.067-0.052,0.128-0.076,0.182-0.075c0.537-0.118,0.818-0.189,0.846-0.216c0.053,0.027,0.119,0.043,0.199,0.046
			c0.16,0.004,0.294-0.045,0.404-0.149c0.054-0.023,0.161-0.035,0.321-0.031l0.52,0.016
			C35.286,128.442,35.406,128.433,35.487,128.408z M35.576,130.891c-0.033,0.213-0.171,0.382-0.415,0.509l-0.006,0.2l-0.122,0.076
			c-0.003,0.106-0.032,0.192-0.088,0.258c-0.056,0.064-0.117,0.137-0.186,0.215c-0.069,0.079-0.118,0.144-0.146,0.195
			c-0.001,0.027,0.011,0.067,0.036,0.122c0.025,0.056,0.038,0.096,0.037,0.121l-0.081,0.038c-0.081,0.025-0.136,0.05-0.163,0.075
			l-0.007,0.24c-0.009,0.319-0.166,0.675-0.471,1.066l-0.004,0.16c-0.003,0.08-0.013,0.207-0.031,0.379
			c-0.018,0.172-0.028,0.3-0.031,0.379c-0.004,0.16,0.018,0.32,0.066,0.481c-0.08,0.025-0.122,0.09-0.125,0.197
			c-0.001,0.026-0.002,0.054-0.003,0.08s-0.029,0.065-0.083,0.117c-0.03,0.079-0.052,0.173-0.069,0.278
			c-0.017,0.106-0.024,0.187-0.026,0.239c0.078,0.083,0.115,0.203,0.11,0.363c-0.005,0.159-0.063,0.317-0.174,0.476
			c0.048,0.161,0.072,0.282,0.069,0.362c-0.004,0.134-0.036,0.306-0.095,0.517c-0.001,0.027,0.024,0.067,0.076,0.122
			c0.052,0.055,0.063,0.109,0.036,0.162c-0.059,0.158-0.094,0.451-0.105,0.876c-0.005,0.16-0.006,0.407-0.002,0.741
			c0.004,0.333,0.004,0.58,0,0.739l-0.008,0.24c0,0.027,0.011,0.074,0.036,0.143c0.024,0.066,0.037,0.114,0.036,0.141
			c0.048,0.188,0.073,0.456,0.077,0.802c0.004,0.348,0.017,0.587,0.04,0.722l0.108,0.362c0.095,0.403,0.182,0.646,0.26,0.729
			c0.078,0.083,0.222,0.18,0.432,0.293c0.054,0.001,0.1,0.017,0.14,0.044c0.039,0.028,0.071,0.042,0.098,0.043
			c0.054,0.028,0.105,0.042,0.159,0.044c0.026,0.001,0.094-0.01,0.201-0.034c0.106-0.022,0.186-0.021,0.238,0.007
			c0.381-0.256,0.679-0.421,0.896-0.495c0.027-0.052,0.077-0.131,0.147-0.234c0.068-0.104,0.131-0.184,0.187-0.235
			c0.055-0.078,0.119-0.223,0.192-0.435c0.072-0.211,0.123-0.356,0.152-0.437l0.125-0.195c0.028-0.053,0.051-0.119,0.066-0.198
			c0.016-0.079,0.038-0.146,0.065-0.198c0.167-0.235,0.252-0.393,0.254-0.473c0.003-0.08-0.01-0.133-0.035-0.161
			c0.055-0.079,0.119-0.197,0.189-0.354c0.071-0.158,0.121-0.264,0.149-0.315l-0.035-0.161c0.002-0.08,0.031-0.172,0.088-0.277
			c0.056-0.104,0.084-0.171,0.085-0.197c0-0.026,0.002-0.087,0.005-0.181c0.003-0.093,0.019-0.166,0.046-0.219
			c0.002-0.053,0.018-0.105,0.045-0.158c0.028-0.053,0.043-0.092,0.044-0.119l0.017-0.6c0.03-0.132,0.083-0.338,0.157-0.616
			c0.075-0.277,0.114-0.457,0.116-0.537c0.063-0.317,0.028-0.771-0.102-1.362c-0.13-0.592-0.19-1.02-0.183-1.286
			c-0.075-0.136-0.129-0.357-0.16-0.665c-0.031-0.308-0.059-0.502-0.083-0.583c-0.175-0.432-0.261-0.7-0.257-0.808
			c-0.305-0.568-0.467-0.946-0.488-1.135c-0.105-0.056-0.255-0.153-0.451-0.293c-0.196-0.138-0.361-0.236-0.492-0.294
			C35.973,130.929,35.788,130.897,35.576,130.891z"/>
		<path fill="#231F20" d="M48.851,129.671l0.117,0.123c0.106-0.022,0.267-0.031,0.48-0.025c0.213,0.006,0.519,0.082,0.913,0.227
			c0.396,0.146,0.714,0.221,0.954,0.229c0.025,0.026,0.064,0.056,0.119,0.083l0.039,0.041c0.079,0.002,0.146-0.01,0.199-0.034
			c0.025,0.026,0.327,0.195,0.905,0.506c0.054,0.001,0.093-0.004,0.12-0.018c0.027-0.013,0.054-0.019,0.08-0.018
			c0.053,0.029,0.125,0.078,0.217,0.146c0.091,0.069,0.163,0.104,0.217,0.105c-0.001,0.026,0.012,0.054,0.037,0.081
			s0.039,0.055,0.038,0.081c0.418,0.306,0.702,0.62,0.854,0.945c0.024,0.054,0.069,0.096,0.137,0.124
			c0.064,0.027,0.099,0.056,0.098,0.083c-0.001,0.026,0.004,0.066,0.018,0.119c0.012,0.055,0.018,0.107,0.016,0.161
			c0.39,0.331,0.58,0.631,0.572,0.896l-0.045,0.159c0.025,0.054,0.064,0.082,0.119,0.083l0.118,0.043
			c0.052,0.082,0.087,0.203,0.109,0.362c0.021,0.161,0.046,0.255,0.071,0.282l-0.013,0.399c0,0.026,0.021,0.047,0.06,0.062
			c0.039,0.016,0.072,0.049,0.098,0.104l-0.004,0.12c-0.008,0.239-0.023,0.386-0.053,0.438c0.025,0.027,0.035,0.161,0.029,0.4
			c-0.004,0.08,0.014,0.174,0.051,0.281s0.055,0.201,0.053,0.281s-0.018,0.146-0.047,0.199c0,0.054,0.024,0.087,0.078,0.102
			c0.053,0.017,0.078,0.036,0.078,0.063c0.021,0.188,0.026,0.455,0.018,0.801c-0.008,0.268-0.027,0.466-0.057,0.598l-0.16-0.004
			l0.343,0.61c0.024,0.054,0.01,0.094-0.044,0.119c-0.028,0.053-0.042,0.092-0.043,0.118c0.047,0.188,0.043,0.335-0.014,0.438
			c0.051,0.108,0.071,0.296,0.064,0.563c-0.007,0.24-0.025,0.426-0.057,0.558c0.023,0.081,0.076,0.136,0.154,0.165
			c-0.027,0.026-0.041,0.066-0.043,0.119c-0.006,0.214-0.023,0.333-0.051,0.358c0.023,0.055,0.037,0.121,0.034,0.201l-0.052,0.398
			c0.049,0.162,0.072,0.282,0.068,0.362l-0.041,0.079c-0.029,0.053-0.057,0.104-0.084,0.156c-0.007,0.214-0.037,0.333-0.091,0.357
			c0.024,0.055,0.036,0.135,0.033,0.241c-0.004,0.106-0.028,0.238-0.072,0.397c-0.045,0.159-0.067,0.278-0.069,0.358
			c-0.004,0.134,0.006,0.227,0.031,0.281c-0.061,0.237-0.091,0.37-0.092,0.396c-0.001,0.027-0.07,0.105-0.207,0.234
			c0.025,0.027,0.038,0.082,0.036,0.162c-0.002,0.054-0.03,0.126-0.087,0.217c-0.057,0.092-0.084,0.15-0.085,0.178l-0.005,0.12
			c-0.01,0.4-0.139,0.65-0.381,0.75l0.039,0.082c-0.002,0.027-0.002,0.054-0.004,0.08c-0.004,0.187-0.129,0.33-0.373,0.429
			c0,0.054-0.01,0.114-0.023,0.18c-0.016,0.067-0.01,0.114,0.016,0.142c-0.164,0.209-0.265,0.393-0.294,0.552
			c-0.163,0.075-0.245,0.192-0.251,0.354c-0.165,0.155-0.275,0.285-0.332,0.391c-0.513,0.199-0.854,0.456-1.021,0.771
			c-0.026-0.001-0.094,0.024-0.202,0.074c-0.083,0.131-0.274,0.266-0.57,0.404c-0.298,0.138-0.487,0.246-0.569,0.324
			c-0.027,0.024-0.056,0.039-0.082,0.038c-0.025,0-0.053-0.001-0.078-0.002c-0.057,0.077-0.151,0.141-0.286,0.19
			c-0.135,0.049-0.229,0.101-0.285,0.152l-0.16-0.005c-0.106-0.003-0.233,0.02-0.382,0.068c-0.147,0.049-0.262,0.073-0.342,0.07
			c-0.054-0.001-0.18,0.015-0.381,0.049c-0.2,0.034-0.382,0.049-0.541,0.044l-0.04-0.001c-0.053-0.027-0.093-0.043-0.119-0.043
			l-0.28-0.008c-0.267-0.007-0.465-0.067-0.595-0.177l-0.08-0.002c-0.106-0.003-0.265-0.062-0.474-0.173
			c-0.53-0.176-0.897-0.359-1.105-0.552c-0.45-0.12-0.753-0.274-0.907-0.466c-0.239-0.007-0.434-0.186-0.584-0.537
			c0.001-0.025-0.024-0.054-0.077-0.082l-0.079-0.042c-0.022-0.134-0.118-0.33-0.283-0.589c-0.167-0.258-0.246-0.479-0.241-0.667
			l-0.04-0.001c-0.025-0.027-0.038-0.055-0.038-0.081c-0.023-0.081-0.049-0.168-0.072-0.262c-0.023-0.094-0.048-0.201-0.071-0.322
			c-0.022-0.121-0.048-0.208-0.072-0.262l-0.074-0.162c-0.025-0.081-0.029-0.174-0.013-0.28c0.016-0.105,0.025-0.186,0.027-0.24
			c0.001-0.025-0.019-0.06-0.058-0.102c-0.039-0.041-0.058-0.075-0.057-0.102s0.002-0.073,0.004-0.141
			c0.002-0.065-0.011-0.113-0.036-0.141c0.001-0.026-0.005-0.061-0.018-0.102c-0.013-0.04-0.017-0.086-0.016-0.14l0.005-0.16
			c0.001-0.053-0.003-0.133-0.014-0.241c-0.011-0.105-0.014-0.199-0.012-0.279c-0.022-0.161-0.023-0.381-0.002-0.66
			c0.022-0.28,0.034-0.473,0.037-0.579c0.004-0.106,0.019-0.173,0.046-0.199c0.001-0.025-0.031-0.293-0.097-0.803
			c0.001-0.026,0.014-0.053,0.042-0.079c0.027-0.025,0.042-0.052,0.043-0.079l-0.039-0.042c-0.027-0.026-0.037-0.121-0.032-0.281
			c-0.021-0.213-0.022-0.626-0.005-1.239c0.002-0.054,0.017-0.125,0.047-0.219c0.028-0.093,0.044-0.151,0.045-0.179l0.008-0.28
			l0.02-0.679c0.006-0.187,0.022-0.333,0.053-0.438c0.002-0.079,0.019-0.186,0.049-0.318c0.03-0.132,0.047-0.226,0.049-0.279
			l0.009-0.32c0.005-0.159,0.039-0.425,0.104-0.797c0.063-0.371,0.098-0.623,0.102-0.757c0.071-0.638,0.134-0.996,0.19-1.075
			c-0.025-0.054-0.037-0.121-0.035-0.2c0.004-0.106,0.033-0.24,0.092-0.397c0.001-0.026-0.005-0.08-0.015-0.161
			c-0.012-0.08-0.017-0.146-0.015-0.2c0.004-0.133,0.034-0.278,0.093-0.438c0.005-0.188,0.022-0.333,0.053-0.438
			c0.011-0.399,0.034-0.719,0.067-0.959c0.057-0.104,0.086-0.196,0.088-0.276c0.001-0.054-0.003-0.134-0.013-0.24
			c-0.012-0.107-0.016-0.174-0.015-0.201c0.002-0.08,0.018-0.146,0.046-0.199c0.002-0.08-0.022-0.146-0.074-0.203
			c0.001-0.053,0.029-0.111,0.085-0.177c0.055-0.064,0.083-0.109,0.084-0.137l0.366-0.229c0.026,0.001,0.066-0.004,0.121-0.017
			c0.054-0.012,0.106-0.023,0.161-0.036c0.053-0.011,0.094-0.03,0.122-0.056c0.053-0.025,0.128-0.077,0.223-0.154
			c0.096-0.077,0.17-0.128,0.225-0.154c0.268-0.019,0.523-0.091,0.767-0.218c0.107-0.022,0.215-0.034,0.321-0.031
			c0.026,0,0.066-0.011,0.121-0.037l0.081-0.037l0.159,0.005c0.026,0,0.102-0.003,0.222-0.015c0.12-0.01,0.221-0.014,0.301-0.012
			c0.106,0.003,0.184,0.032,0.235,0.087c0.083-0.078,0.185-0.121,0.305-0.131c0.12-0.01,0.261-0.013,0.421-0.008
			C48.61,129.705,48.744,129.695,48.851,129.671z M44.034,138.655l-0.004,0.12c0.026,0,0.053-0.012,0.081-0.038
			C44.113,138.684,44.086,138.656,44.034,138.655z M49.454,133.769c-0.054-0.001-0.203,0.113-0.449,0.348
			c-0.001,0.027,0.018,0.054,0.058,0.082c0.039,0.028,0.059,0.068,0.057,0.122c-0.057,0.104-0.086,0.198-0.088,0.277
			c-0.003,0.105,0.02,0.239,0.068,0.401c-0.118,0.371-0.193,0.662-0.226,0.874c-0.001,0.027,0.018,0.062,0.057,0.103
			c0.039,0.042,0.059,0.075,0.058,0.102c-0.163,0.103-0.248,0.273-0.255,0.513c-0.002,0.08,0.007,0.201,0.03,0.36
			c0.021,0.161,0.031,0.281,0.029,0.361l0.137,2.204c-0.004,0.159,0.009,0.399,0.039,0.722c0.031,0.32,0.044,0.548,0.04,0.681
			l-0.051,0.399c-0.003,0.08,0.01,0.134,0.035,0.161c-0.056,0.078-0.088,0.316-0.1,0.717l-0.003,0.08
			c0,0.026-0.017,0.079-0.044,0.158c-0.03,0.08-0.044,0.133-0.045,0.158c-0.002,0.055,0.002,0.141,0.012,0.261
			c0.011,0.12,0.015,0.207,0.014,0.26l-0.004,0.12c-0.001,0.054-0.01,0.113-0.025,0.18c-0.016,0.066-0.022,0.113-0.023,0.139
			c-0.002,0.055,0.021,0.161,0.071,0.322l-0.006,0.2c-0.005,0.16,0.076,0.322,0.246,0.487c0.168,0.165,0.319,0.249,0.453,0.253
			c0.158-0.022,0.294-0.085,0.403-0.188l0.289-0.271c0.001-0.054,0.037-0.133,0.106-0.237s0.105-0.197,0.107-0.277
			c0.061-0.237,0.158-0.396,0.294-0.472c0.001-0.026,0.03-0.133,0.089-0.317c0.009-0.292,0.084-0.598,0.228-0.914l0.006-0.239
			c0.01-0.319,0.06-0.624,0.146-0.916c0.001-0.026-0.02-0.055-0.059-0.082s-0.045-0.067-0.017-0.12
			c0.054-0.905,0.013-1.84-0.12-2.804c-0.039-0.455-0.111-0.725-0.217-0.808c0.034-0.265-0.098-0.803-0.394-1.61
			c-0.102-0.217-0.149-0.392-0.146-0.524l0.004-0.12l-0.151-0.325c0.027-0.024,0.042-0.051,0.042-0.078
			c-0.054-0.002-0.105-0.029-0.157-0.085c0.002-0.08-0.035-0.167-0.111-0.263c-0.077-0.095-0.128-0.184-0.152-0.265
			C49.599,133.813,49.506,133.771,49.454,133.769z M49.015,146.278c-0.004,0.134,0.008,0.213,0.033,0.241
			c0.162-0.076,0.244-0.126,0.245-0.153C49.187,146.31,49.095,146.28,49.015,146.278z"/>
	</g>
</g>
</svg>
