<?xml version="1.0" encoding="utf-8"?>
<!-- Generator: Adobe Illustrator 16.0.0, SVG Export Plug-In . SVG Version: 6.00 Build 0)  -->
<!DOCTYPE svg PUBLIC "-//W3C//DTD SVG 1.1//EN" "http://www.w3.org/Graphics/SVG/1.1/DTD/svg11.dtd">
<svg version="1.1" id="Layer_1" xmlns="http://www.w3.org/2000/svg" xmlns:xlink="http://www.w3.org/1999/xlink" x="0px" y="0px"
	 width="114.28px" height="95.794px" viewBox="0 0 114.28 95.794" enable-background="new 0 0 114.28 95.794" xml:space="preserve">
<path fill="#998282" d="M108.757,32.885h-6.353l-0.167-15.723c1.852-1.27,2.93-3.38,2.93-5.771V8.338
	c0-3.532-2.601-6.062-5.274-6.733c-0.171-0.043-0.29-0.079-0.466-0.108c-1.205-0.201-2.58-0.211-4.953-0.211
	c-1.235,0-2.314,0.293-3.277,0.305c-0.714,0.008-1.338,0.295-1.907,0.295h-0.773c-0.702,0-1.4-0.166-2.066,0.057
	c-0.637,0.213-1.283,0.524-1.893,0.96c-0.038,0-0.075-0.017-0.112-0.017h-2.402c-2.672,0-5.012,1.273-6.318,3.363
	c-0.916-1.682-2.789-3.58-6.642-4.03c-1.074-0.126-2.326-0.333-4.06-0.333h-2.524c-0.98,0-1.833,0.094-2.583,0.314
	c-0.615-0.174-1.251-0.314-1.896-0.314h-3.176c-1.163,0-2.262,0.377-3.24,0.826c-1.421-0.793-2.768-0.824-3.446-0.869
	c-0.146-0.01-0.292,0.043-0.438,0.043H44.91c-0.493,0-0.985,0.061-1.466,0.172c-0.518,0.119-0.994,0.277-1.434,0.46
	c-1.822-0.889-3.927-1.355-6.263-1.355c-2.17,0-4.166,0.509-5.909,1.529c-1.305-1.065-3.07-1.806-5.287-1.806h-0.854
	c-6.426,0-8.167,4.49-8.481,8.281c-0.015,0.18-0.049,0.417-0.049,0.597v0.203c0,3.901-0.09,7.907-0.202,11.78
	c-0.09,3.104-0.169,6.314-0.206,9.593c0,0.731-0.016,1.147-0.033,1.474c-0.001,0.014,0.006,0.072,0.005,0.072H7.523
	C3.921,32.885,1,35.93,1,39.531C1,71.037,26.633,96.81,58.141,96.81c31.507,0,57.14-25.764,57.14-57.27
	C115.28,35.938,112.359,32.885,108.757,32.885z M74.39,17.397c0.054-0.054,0.099-0.11,0.15-0.165c-0.004,0.2-0.008,0.4-0.012,0.601
	c-0.049-0.139-0.097-0.278-0.155-0.419C74.379,17.408,74.384,17.402,74.39,17.397z"/>
<g>
	<g>
		<g>
			<path fill="#FFFFFF" d="M21.231,41.056c-3.747,0-7.541-2.744-7.541-7.988c0-0.505,0.019-0.867,0.042-1.286
				c0.018-0.326,0.039-0.711,0.039-1.442c0.037-3.278,0.13-6.488,0.22-9.593c0.112-3.873,0.229-7.879,0.229-11.78V8.763
				c0-0.18,0.008-0.36,0.022-0.539C14.806,1.414,19.15,0,22.697,0h0.854c5.245,0,7.989,3.794,7.989,7.541
				c0,1.118-0.043,2.25-0.113,4.124c-0.092,2.465-0.236,6.311-0.398,13.216c2.888,1.58,3.769,4.62,3.769,6.477
				c0,0.043-0.042,2.165-0.042,2.165c-0.044,4.072-3.129,7.264-7.095,7.368c-1.072,0.044-5.228,0.165-6.227,0.165H21.231z"/>
			<path fill="#FFFFFF" d="M35.073,40.16c-4.042,0-13.443-1.687-13.443-17.312c0-3.151,0.171-6.329,0.523-9.713
				c0.91-7.792,5.968-12.973,12.595-12.973c5.524,0,9.777,2.588,11.975,7.286c1.582,3.382,1.795,7.315,1.795,10.718
				c0,7.619-0.455,16.043-5.874,19.635C40.157,39.477,37.961,40.16,35.073,40.16z"/>
			<path fill="#FFFFFF" d="M48.795,40.689c-3.711,0-6.738-2.423-7.321-5.806L36.765,9.719c-0.024-0.132-0.045-0.265-0.062-0.397
				c-0.037-0.245-0.09-0.647-0.09-1.129c0-2.797,1.532-6.139,5.831-7.13c0.48-0.111,0.973-0.167,1.466-0.167h2.809
				c0.146,0,0.292,0.005,0.438,0.015c0.679,0.046,2.025,0.136,3.446,0.929c0.979-0.449,2.077-0.699,3.24-0.699h3.176
				c2.249,0,4.415,1.1,5.793,2.94c0.845,1.129,1.301,2.5,1.301,3.909v0.814c0,0.426-0.042,0.852-0.125,1.27l-4.82,24.303
				c-0.625,3.676-3.744,6.313-7.522,6.313H48.795z"/>
			<path fill="#FFFFFF" d="M60.888,40.404c-2.797,0-5.985-1.821-6.803-5.89c-0.071-0.354-0.112-0.712-0.124-1.072
				c-0.224-6.839-0.451-14.891-0.451-22.767c0-1.844,0-3.437,0.729-5.131c0.58-1.349,2.448-4.486,7.26-4.486h2.524
				c1.733,0,2.985,0.056,4.06,0.182c7.149,0.835,7.512,6.142,7.512,7.197v2.931c0,1.857-0.742,3.55-2.204,5.029
				c-0.006,0.005-0.011,0.011-0.017,0.017c0.324,0.773,0.488,1.535,0.535,2.181c0.22,3.779,0.22,3.779,0.22,4.01
				c0,0.696-0.134,1.569-0.471,2.463c1.306,1.307,2.1,3.102,2.1,5.109v2.687c0,4.229-3.17,7.541-7.216,7.541H60.888z"/>
			<path fill="#FFFFFF" d="M80.31,40.16c-3.932,0-7.012-3.259-7.012-7.419c0-5.141,0.091-9.336,0.178-13.395
				c0.076-3.526,0.147-6.857,0.147-10.421c0-4.023,3.328-7.297,7.419-7.297h2.402c3.768,0,7.582,2.8,7.582,8.151
				c0,0.314-0.016,0.647-0.033,0.96l-0.009,0.178c0.001,1.851-0.139,8.494-0.262,14.355c-0.069,3.317-0.13,6.193-0.146,7.313
				l0.001,0.033c0,4.95-3.466,7.541-6.89,7.541H80.31z"/>
			<path fill="#FFFFFF" d="M91.587,40.567c-3.934,0-7.134-3.183-7.134-7.094l-0.252-17.105c-2.311-1.254-3.738-3.656-3.738-6.669
				V9.142c-0.023-0.357-0.04-0.674-0.04-0.989c0-4.285,2.597-6.679,5.026-7.49c0.666-0.223,1.364-0.336,2.066-0.336h0.773
				c0.569,0,1.207-0.008,1.921-0.017c0.963-0.012,2.055-0.024,3.29-0.024c2.373,0,3.774,0.01,4.98,0.211
				c0.175,0.029,0.348,0.065,0.519,0.108c2.674,0.673,5.381,3.201,5.381,6.733v3.054c0,2.391-1.185,4.469-3.036,5.738l0.064,16.586
				c0,0.159-0.005,0.318-0.016,0.478c-0.312,4.479-3.361,7.374-7.771,7.374H91.587z"/>
		</g>
		<g>
			<path fill="#FFFFFF" d="M20.743,8.966V8.763c0.162-1.954,0.162-2.239,1.954-2.239h0.854c0.773,0,1.466,0.122,1.466,1.018
				c0,2.646-0.285,5.862-0.611,21.821c0,1.018,0.978,1.018,1.954,1.018h0.204c0.896,0,1.71,0.041,1.71,0.978l-0.041,2.076
				c0,0.488-0.285,0.937-0.773,0.937c-0.896,0.04-5.17,0.162-6.025,0.162h-0.203c-0.855,0-1.018-0.691-1.018-1.465
				c0-0.855,0.081-1.141,0.081-2.729C20.376,23.174,20.743,16.091,20.743,8.966z"/>
			<path fill="#FFFFFF" d="M28.153,22.849c0-2.932,0.162-5.903,0.488-9.038c0.366-3.135,1.995-7.124,6.106-7.124
				c6.514,0,7.246,5.577,7.246,11.48c0,3.745-0.04,12.295-2.972,14.208c-1.384,0.937-2.32,1.262-3.949,1.262
				C28.927,33.637,28.153,27.733,28.153,22.849z M32.387,18.94c0,1.181,0.041,2.239,0.041,3.053c0,3.258,0.366,6.84,2.198,6.84
				c2.809,0,3.298-3.298,3.338-7.002V18.33c0-4.397-0.244-7.125-2.483-7.125C32.713,11.205,32.387,15.439,32.387,18.94z"/>
			<path fill="#FFFFFF" d="M43.177,8.519c0-0.041-0.04-0.244-0.04-0.326c0-0.569,0.244-0.651,0.773-0.773h2.809
				c0.61,0.041,0.733,0.041,1.018,0.448c0.244,0.366,0.244,1.018,0.326,1.425l2.32,16.284l2.483-17.18
				c0.041-0.529,0.61-0.733,0.977-0.733h3.176c0.244,0,0.448,0.163,0.57,0.326v0.814l-4.845,24.426
				c-0.081,0.611-0.488,0.937-1.1,0.937h-2.85c-0.285,0-0.854-0.081-0.896-0.407L43.177,8.519z"/>
			<path fill="#FFFFFF" d="M60.033,10.676c0-2.687,0.04-3.094,1.465-3.094h2.524c2.076,0,5.048,0.081,5.048,0.855v2.931
				c0,0.122-0.244,0.366-0.325,0.448c-1.344,0-2.605-0.082-3.908-0.082c-0.692,0-0.814,0.366-0.814,0.814
				c0,0.814,0.203,4.845,0.285,5.781c0.122,0.081,0.366,0.081,0.691,0.081h0.692c0.814,0,1.669,0.081,1.71,0.651
				c0.203,3.501,0.203,3.542,0.203,3.542c0,0.488-0.732,0.529-1.343,0.529h-0.61c-0.407,0-0.814,0-0.937-0.041
				c-0.244,0.203-0.285,0.732-0.285,1.222v2.076c0,0.691,0,1.384,0.041,2.116c0.081,0.733,0.244,0.978,0.977,0.978
				c0.937,0,1.832-0.081,2.81-0.081c0.528,0,0.977,0.244,0.977,0.773v2.687c0,0.407-0.203,1.018-0.692,1.018h-7.653
				c-0.244,0-0.366-0.447-0.407-0.651C60.236,25.739,60.033,18.167,60.033,10.676z"/>
			<path fill="#FFFFFF" d="M80.146,8.926c0-0.488,0.488-0.773,0.896-0.773h2.402c0.896,0,1.059,0.773,1.059,1.628
				c0,0.366-0.041,0.773-0.041,1.059c0,2.972-0.366,18.646-0.407,21.658c0,0,0,0.041,0,0.122c0,0.325-0.041,1.018-0.366,1.018H80.31
				c-0.326,0-0.488-0.61-0.488-0.896C79.821,23.134,80.146,16.62,80.146,8.926z"/>
			<path fill="#FFFFFF" d="M90.65,11.327c0-0.406-0.529-0.488-0.773-0.488c-0.529,0-1.14-0.041-1.71-0.041
				c-1.059,0-1.181-0.284-1.181-1.099V9.007c0-0.203-0.04-0.529-0.04-0.854c0-0.57,0.081-1.14,0.569-1.303h0.773
				c1.344,0,3.054-0.041,5.211-0.041c1.669,0,3.176,0,3.908,0.122c0.163,0.041,0.448,0.244,0.448,0.407v3.054
				c0,0.406-0.61,0.529-0.855,0.529c-0.244,0-1.465,0.081-1.75,0.122c-0.326,0.122-0.407,0.284-0.448,0.61l0.082,21.088
				c-0.082,1.181-0.366,1.303-1.263,1.303h-2.035c-0.244,0-0.61-0.244-0.61-0.57L90.65,11.327z"/>
		</g>
	</g>
	<g>
		<path fill="#FFFFFF" d="M57.141,95.794C25.633,95.794,0,70.037,0,38.531c0-3.602,2.921-6.646,6.523-6.646h101.233
			c3.603,0,6.523,3.045,6.523,6.646C114.28,70.037,88.647,95.794,57.141,95.794z"/>
		<path fill="#FFFFFF" d="M103.838,38.885h-7.837H18.28h-7.839H6.523c0,28,22.661,50.615,50.617,50.615s50.616-22.615,50.616-50.615
			H103.838z"/>
	</g>
	<g>
		<g>
			<path fill="#829C12" d="M6.523,38.655c0,27.956,22.661,50.615,50.617,50.615s50.616-22.659,50.616-50.615H6.523z"/>
			<path fill="#F2EBBF" d="M10.441,38.655c0,25.791,20.909,46.698,46.699,46.698c25.792,0,46.697-20.907,46.697-46.698H10.441z"/>
			<path fill="#F14428" d="M18.28,38.655c0,21.462,17.398,38.859,38.86,38.859c21.461,0,38.86-17.397,38.86-38.859H18.28z"/>
			<g>
				<g>
					<path fill="#345921" d="M83.24,48.164c0,1.469-0.948,3.206-2.874,3.223c-1.924-0.017-2.872-1.754-2.874-3.223
						c0-2.072,3.039-4.713,2.874-4.775C80.199,43.451,83.24,46.092,83.24,48.164z"/>
					<path fill="#234116" d="M83.24,48.164c0,1.469-0.948,3.206-2.874,3.223c0,0,0.165-7.936,0-7.998
						C80.366,43.389,83.24,46.092,83.24,48.164z"/>
				</g>
				<g>
					<path fill="#345921" d="M67.756,48.164c0,1.469-0.947,3.206-2.874,3.223c-1.925-0.017-2.871-1.754-2.873-3.223
						c0-2.072,3.039-4.713,2.873-4.775C64.716,43.451,67.756,46.092,67.756,48.164z"/>
					<path fill="#234116" d="M67.756,48.164c0,1.469-0.947,3.206-2.874,3.223c0,0,0.166-7.936,0-7.998
						C64.882,43.389,67.756,46.092,67.756,48.164z"/>
				</g>
				<g>
					<path fill="#345921" d="M52.272,48.164c0,1.469-0.947,3.206-2.874,3.223c-1.924-0.017-2.871-1.754-2.874-3.223
						c0-2.072,3.04-4.713,2.874-4.775C49.231,43.451,52.272,46.092,52.272,48.164z"/>
					<path fill="#234116" d="M52.272,48.164c0,1.469-0.947,3.206-2.874,3.223c0,0,0.166-7.936,0-7.998
						C49.398,43.389,52.272,46.092,52.272,48.164z"/>
				</g>
				<g>
					<path fill="#345921" d="M36.789,48.164c0,1.469-0.948,3.206-2.874,3.223c-1.924-0.017-2.871-1.754-2.874-3.223
						c0-2.072,3.039-4.713,2.874-4.775C33.749,43.451,36.789,46.092,36.789,48.164z"/>
					<path fill="#234116" d="M36.789,48.164c0,1.469-0.948,3.206-2.874,3.223c0,0,0.165-7.936,0-7.998
						C33.915,43.389,36.789,46.092,36.789,48.164z"/>
				</g>
				<g>
					<path fill="#345921" d="M75.777,59.915c0,1.471-0.948,3.206-2.874,3.225c-1.924-0.019-2.872-1.754-2.874-3.225
						c0-2.072,3.04-4.712,2.874-4.773C72.738,55.203,75.777,57.843,75.777,59.915z"/>
					<path fill="#234116" d="M75.777,59.915c0,1.471-0.948,3.206-2.874,3.225c0,0,0.166-7.937,0-7.998
						C72.903,55.142,75.777,57.843,75.777,59.915z"/>
				</g>
				<g>
					<path fill="#345921" d="M60.294,59.915c0,1.471-0.946,3.206-2.874,3.225c-1.924-0.019-2.87-1.754-2.874-3.225
						c0-2.072,3.04-4.712,2.874-4.773C57.254,55.203,60.294,57.843,60.294,59.915z"/>
					<path fill="#234116" d="M60.294,59.915c0,1.471-0.946,3.206-2.874,3.225c0,0,0.166-7.937,0-7.998
						C57.42,55.142,60.294,57.843,60.294,59.915z"/>
				</g>
				<g>
					<path fill="#345921" d="M44.81,59.915c0,1.471-0.946,3.206-2.874,3.225c-1.924-0.019-2.87-1.754-2.874-3.225
						c0-2.072,3.042-4.712,2.874-4.773C41.771,55.203,44.81,57.843,44.81,59.915z"/>
					<path fill="#234116" d="M44.81,59.915c0,1.471-0.946,3.206-2.874,3.225c0,0,0.168-7.937,0-7.998
						C41.936,55.142,44.81,57.843,44.81,59.915z"/>
				</g>
			</g>
		</g>
	</g>
	<g>
		<path fill="#F14B30" d="M20.743,8.966V8.763c0.162-1.954,0.162-2.239,1.954-2.239h0.854c0.773,0,1.466,0.122,1.466,1.018
			c0,2.646-0.285,5.862-0.611,21.821c0,1.018,0.978,1.018,1.954,1.018h0.204c0.896,0,1.71,0.041,1.71,0.978l-0.041,2.076
			c0,0.488-0.285,0.937-0.773,0.937c-0.896,0.04-5.17,0.162-6.025,0.162h-0.203c-0.855,0-1.018-0.691-1.018-1.465
			c0-0.855,0.081-1.141,0.081-2.729C20.376,23.174,20.743,16.091,20.743,8.966z"/>
		<path fill="#F14B30" d="M28.153,22.849c0-2.932,0.162-5.903,0.488-9.038c0.366-3.135,1.995-7.124,6.106-7.124
			c6.514,0,7.246,5.577,7.246,11.48c0,3.745-0.04,12.295-2.972,14.208c-1.384,0.937-2.32,1.262-3.949,1.262
			C28.927,33.637,28.153,27.733,28.153,22.849z M32.387,18.94c0,1.181,0.041,2.239,0.041,3.053c0,3.258,0.366,6.84,2.198,6.84
			c2.809,0,3.298-3.298,3.338-7.002V18.33c0-4.397-0.244-7.125-2.483-7.125C32.713,11.205,32.387,15.439,32.387,18.94z"/>
		<path fill="#F14B30" d="M43.177,8.519c0-0.041-0.04-0.244-0.04-0.326c0-0.569,0.244-0.651,0.773-0.773h2.809
			c0.61,0.041,0.733,0.041,1.018,0.448c0.244,0.366,0.244,1.018,0.326,1.425l2.32,16.284l2.483-17.18
			c0.041-0.529,0.61-0.733,0.977-0.733h3.176c0.244,0,0.448,0.163,0.57,0.326v0.814l-4.845,24.426
			c-0.081,0.611-0.488,0.937-1.1,0.937h-2.85c-0.285,0-0.854-0.081-0.896-0.407L43.177,8.519z"/>
		<path fill="#F14B30" d="M60.033,10.676c0-2.687,0.04-3.094,1.465-3.094h2.524c2.076,0,5.048,0.081,5.048,0.855v2.931
			c0,0.122-0.244,0.366-0.325,0.448c-1.344,0-2.605-0.082-3.908-0.082c-0.692,0-0.814,0.366-0.814,0.814
			c0,0.814,0.203,4.845,0.285,5.781c0.122,0.081,0.366,0.081,0.691,0.081h0.692c0.814,0,1.669,0.081,1.71,0.651
			c0.203,3.501,0.203,3.542,0.203,3.542c0,0.488-0.732,0.529-1.343,0.529h-0.61c-0.407,0-0.814,0-0.937-0.041
			c-0.244,0.203-0.285,0.732-0.285,1.222v2.076c0,0.691,0,1.384,0.041,2.116c0.081,0.733,0.244,0.978,0.977,0.978
			c0.937,0,1.832-0.081,2.81-0.081c0.528,0,0.977,0.244,0.977,0.773v2.687c0,0.407-0.203,1.018-0.692,1.018h-7.653
			c-0.244,0-0.366-0.447-0.407-0.651C60.236,25.739,60.033,18.167,60.033,10.676z"/>
		<path fill="#F14B30" d="M80.146,8.926c0-0.488,0.488-0.773,0.896-0.773h2.402c0.896,0,1.059,0.773,1.059,1.628
			c0,0.366-0.041,0.773-0.041,1.059c0,2.972-0.366,18.646-0.407,21.658c0,0,0,0.041,0,0.122c0,0.325-0.041,1.018-0.366,1.018H80.31
			c-0.326,0-0.488-0.61-0.488-0.896C79.821,23.134,80.146,16.62,80.146,8.926z"/>
		<path fill="#F14B30" d="M90.65,11.327c0-0.406-0.529-0.488-0.773-0.488c-0.529,0-1.14-0.041-1.71-0.041
			c-1.059,0-1.181-0.284-1.181-1.099V9.007c0-0.203-0.04-0.529-0.04-0.854c0-0.57,0.081-1.14,0.569-1.303h0.773
			c1.344,0,3.054-0.041,5.211-0.041c1.669,0,3.176,0,3.908,0.122c0.163,0.041,0.448,0.244,0.448,0.407v3.054
			c0,0.406-0.61,0.529-0.855,0.529c-0.244,0-1.465,0.081-1.75,0.122c-0.326,0.122-0.407,0.284-0.448,0.61l0.082,21.088
			c-0.082,1.181-0.366,1.303-1.263,1.303h-2.035c-0.244,0-0.61-0.244-0.61-0.57L90.65,11.327z"/>
	</g>
</g>
</svg>
