<?xml version="1.0" encoding="utf-8"?>
<!-- Generator: Adobe Illustrator 16.0.0, SVG Export Plug-In . SVG Version: 6.00 Build 0)  -->
<!DOCTYPE svg PUBLIC "-//W3C//DTD SVG 1.1//EN" "http://www.w3.org/Graphics/SVG/1.1/DTD/svg11.dtd">
<svg version="1.1" id="Layer_1" xmlns="http://www.w3.org/2000/svg" xmlns:xlink="http://www.w3.org/1999/xlink" x="0px" y="0px"
	 width="138.218px" height="110.717px" viewBox="0 0 138.218 110.717" enable-background="new 0 0 138.218 110.717"
	 xml:space="preserve">
<path fill="#998282" d="M11.656,101.011c2.557,1.012,4.876,1.596,7.091,1.596h0.001c0.763,0,1.475-0.164,2.16-0.271
	c1.785,2.67,4.662,3.466,6.148,3.888l1.222,0.313c0.076,0.021,0.398,0.029,0.476,0.048c0.696,0.163,1.345,0.237,2.345,0.237v-0.002
	c0,0,2.322-0.172,4.008-1.105c2.137,2.21,4.939,2.71,6.113,2.911c0.891,0.158,1.798,0.306,2.862,0.306
	c0.438,0,0.82-0.033,1.221-0.08c1.175,1.106,2.653,1.807,4.311,1.992c0.068,0.008,0.129,0.016,0.197,0.021
	c3.978,0.326,8.011,0.494,11.996,0.494c0.674,0,1.345-0.006,2.018-0.016c0.434-0.006,0.864-0.052,1.289-0.138
	c0.291-0.06,0.569-0.147,0.849-0.233c1.008,0.483,2.116,0.747,3.273,0.747c0.062,0,0.342-0.007,0.406-0.011
	c4.648-0.253,9.332-0.734,13.919-1.432c0.429-0.065,0.851-0.172,1.261-0.313c0.264-0.092,0.508-0.211,0.756-0.326
	c0.479,0.087,0.953,0.132,1.411,0.132c0.425,0,0.855-0.033,1.294-0.103c1.5-0.235,3.037-0.504,4.574-0.797
	c1.666-0.318,3.246-1.147,4.421-2.406c1.114,0.44,2.149,0.554,2.907,0.554c0.688,0,1.378-0.091,2.053-0.267
	c0.223-0.058,0.456-0.132,0.672-0.211l0.219-0.078c0.652-0.231,1.869-0.663,3.004-1.198c1.229-0.58,2.182-1.236,2.926-1.927
	c0.716,0.111,1.455,0.17,2.217,0.17c2.116,0,4.348-0.448,6.657-1.347c3.751-1.475,6.479-3.516,8.17-6.079
	c0.844,0.229,1.731,0.354,2.655,0.354c1.815,0,3.641-0.467,5.275-1.35c2.446-1.318,4.232-3.605,4.901-6.273
	c0.63-2.511,0.203-5.142-1.161-7.203c-0.73-1.108-1.631-2.026-2.654-2.726c-0.177-0.868-0.519-1.7-1.012-2.45
	c-3.841-5.836-7.673-11.679-11.484-17.504c-1.597-2.457-4.117-3.867-6.916-3.867c-1.205,0-2.383,0.266-3.5,0.79
	c-0.035,0.017-0.07,0.033-0.105,0.051c-0.793,0.388-1.589,0.763-2.391,1.127c-0.244,0.109-0.479,0.229-0.709,0.357
	c-1.248-2.658-3.961-4.439-6.953-4.439c-0.746,0-1.484,0.108-2.188,0.318l-0.34,0.101l-2.667-8.972
	c2.906-2.518,4.945-5.899,5.859-9.799c1.584-6.765-0.205-14.467-5.037-21.703c-2.362-3.842-4.987-7.158-6.766-9.328
	C89.558,1.914,87.558,1,85.494,1C84.83,1,84.158,1.095,83.5,1.29l-14.42,4.286c-1.312,0.39-2.447,1.143-3.305,2.136l-3.242-1.439
	c-0.913-0.405-1.88-0.603-2.839-0.603c-1.751,0-3.478,0.656-4.803,1.905c-2.046,1.928-5.081,4.885-7.908,8.38
	c-5.72,6.551-8.483,13.956-7.783,20.868c0.404,3.987,1.99,7.604,4.55,10.478l-3.791,8.54l-0.5-0.201
	c-0.938-0.39-1.928-0.588-2.945-0.588c-1.146,0-2.252,0.257-3.252,0.725c-1.813-0.812-3.681-1.246-5.569-1.246
	c-8.726,0-13.963,8.331-17.097,13.313c-4.887,7.789-8.14,13.533-9.236,17.83C0.052,90.601,2.075,97.224,11.656,101.011z"/>
<g>
	<path fill="#FFFFFF" d="M108.412,57.44c-0.963-3.234-3.99-5.495-7.365-5.495c-0.744,0-1.483,0.108-2.188,0.318l-0.34,0.101
		l-2.667-8.972c2.907-2.518,4.946-5.899,5.858-9.799c1.586-6.765-0.203-14.467-5.035-21.703c-2.363-3.842-4.988-7.158-6.766-9.328
		C88.558,0.914,86.558,0,84.494,0C83.83,0,83.158,0.095,82.5,0.29l-14.42,4.286c-1.312,0.39-2.447,1.143-3.305,2.136l-3.242-1.439
		c-0.913-0.405-1.88-0.603-2.839-0.603c-1.751,0-3.478,0.656-4.803,1.905c-2.046,1.928-5.081,4.885-7.908,8.38
		c-5.72,6.551-8.483,13.956-7.783,20.868c0.404,3.987,1.99,7.604,4.55,10.478l-3.791,8.54l-0.5-0.201
		c-0.938-0.39-1.928-0.588-2.945-0.588c-3.036,0-5.793,1.794-7.018,4.557c-1.726,3.867,0.019,8.42,3.9,10.152l15.352,6.813
		c0.985,0.438,2.032,0.659,3.11,0.659c3.033,0,30.711-4.137,34.096-4.135l0,0c0.731,0,1.459-0.104,2.188-0.318l16.097-4.783
		C107.296,65.79,109.619,61.503,108.412,57.44z"/>
	<g>
		<g>
			<path fill="#FFFFFF" d="M17.748,101.425c-2.215,0-4.535-0.492-7.093-1.505C1.073,96.14-0.949,89.558,0.358,84.628
				c1.097-4.301,4.35-9.997,9.235-17.783c3.133-4.982,8.371-13.313,17.097-13.313c2.102,0,4.182,0.51,6.185,1.514
				c5.506,2.7,9.7,9.518,6.951,17.27c-0.049,0.137-0.102,0.271-0.158,0.404l-0.061,0.141c-1.533,3.589-4.944,5.777-8.929,5.777
				c-2.064,0-3.685-0.558-4.467-0.89c0,0-0.108-0.045-0.121-0.05c-0.551,0.992-1.057,1.904-1.523,2.75
				c2.034,1.056,3.655,2.853,5.388,5.176c1.707,2.288,1.854,5.384,0.37,7.823C29.125,95.42,25.472,101.425,17.748,101.425z"/>
			<path fill="#FFFFFF" d="M43.019,107.927c-1.074,0-2.045-0.148-2.934-0.309c-1.163-0.199-4.068-0.699-6.201-2.887
				c-1.578,0.873-3.139,1.082-4.274,1.084h-0.001c-0.696,0-1.401-0.082-2.095-0.244c-0.079-0.02-0.158-0.038-0.236-0.061
				l-1.222-0.335c-1.632-0.463-4.956-1.405-6.652-4.75c-1.658-3.271-0.497-6.396,0-7.731c3.699-10.191,7.578-20.579,11.514-30.823
				c0.022-0.06,0.046-0.117,0.069-0.175c1.281-3.086,4.224-5.078,7.495-5.078c0.938,0,1.857,0.166,2.734,0.494
				c0.854,0.316,1.718,0.623,2.585,0.916c1.214,0.408,2.347,1.144,3.245,2.143c0.067-0.002,0.135-0.002,0.204-0.002
				c0.663,0,1.338,0.089,2.005,0.266c0.847,0.222,1.7,0.435,2.558,0.633c3.472,0.808,5.935,3.731,6.136,7.279
				c0.037,0.664-0.021,1.331-0.171,1.98l-0.118,0.505c-0.224,0.94-0.396,1.921-0.68,3.544c-0.657,3.76-1.882,10.757-5.577,27.221
				C50.753,104.51,48.167,107.927,43.019,107.927z"/>
			<path fill="#FFFFFF" d="M60.81,110.356c-3.983,0-8.023-0.168-12.008-0.496c-0.068-0.006-0.137-0.012-0.205-0.021
				c-2.124-0.237-3.985-1.312-5.24-3.019c-2.194-2.986-2.168-6.211,0.15-18.153c0.294-1.526,0.579-3.067,0.865-4.62
				c0.314-1.705,0.632-3.424,0.969-5.167c0.607-3.142,1.29-6.438,2.147-10.375c0.158-0.724,0.43-1.419,0.806-2.058
				c1.452-2.471,4.045-3.943,6.937-3.943c0.486,0,0.982,0.042,1.473,0.126c1.146,0.196,2.28,0.369,3.376,0.515
				c0.071,0.011,0.143,0.021,0.214,0.032c0.548,0.089,3.729,0.478,4.805,0.603c0.629,0.072,1.245,0.229,1.832,0.47
				c2.396,0.976,4.104,2.978,4.688,5.496c0.135,0.58,0.194,1.175,0.178,1.771c-0.034,1.299-0.115,2.523-0.201,3.82
				c-0.016,0.221-0.039,0.438-0.074,0.655c-0.422,2.608-1.752,4.414-3.421,5.502c0.781,1.429,1.229,3.313,1.029,5.757l-0.032,0.391
				c-0.025,0.319-0.073,0.639-0.143,0.951l-0.199,0.897c-0.182,1.173-0.584,2.243-1.162,3.173c0.537,0.35,1.031,0.765,1.473,1.24
				c1.057,1.14,2.279,3.14,2.112,6.195c-0.013,0.248-0.04,0.494-0.079,0.739c-0.155,0.956-0.314,1.913-0.475,2.871
				c-0.025,0.153-0.058,0.308-0.094,0.459c-0.712,3.008-3.22,5.375-6.389,6.028c-0.435,0.091-0.876,0.139-1.319,0.145
				C62.152,110.353,61.481,110.356,60.81,110.356z"/>
			<path fill="#FFFFFF" d="M68.235,110.717c-2.066,0-3.992-0.813-5.424-2.292c-2.498-2.581-2.986-5.838-2.611-17.427
				c0.046-1.493,0.08-2.998,0.115-4.515c0.038-1.688,0.077-3.393,0.133-5.121c0.098-3.103,0.244-6.359,0.462-10.25
				c0.043-0.77,0.213-1.524,0.502-2.238c1.243-3.068,4.129-4.977,7.531-4.977c0.07,0,0.204,0.002,0.274,0.004
				c0.986,0.031,1.957,0.049,2.928,0.049l0.94,0.002c1.184,0,3.99-0.055,4.609-0.068c0.057-0.001,0.112-0.002,0.168-0.002
				c0.557,0,1.109,0.066,1.649,0.197c2.485,0.604,4.401,2.229,5.396,4.576c0.239,0.566,0.403,1.162,0.486,1.772
				c0.177,1.282,0.295,2.517,0.41,3.71c0.021,0.223,0.031,0.447,0.031,0.672c0,2.572-0.957,4.508-2.359,5.828
				c0.923,1.262,1.604,2.975,1.785,5.268l0.033,0.419c0.023,0.313,0.025,0.628,0.008,0.94l-0.055,0.889
				c0.002,1.086-0.201,2.121-0.576,3.063c2.541,1.146,4.322,3.587,4.664,6.698c0.027,0.258,0.043,0.52,0.041,0.777
				c-0.002,0.94-0.006,1.882-0.012,2.822c-0.002,0.16-0.009,0.32-0.021,0.48c-0.239,3.14-2.408,5.874-5.524,6.965
				c-0.409,0.143-0.832,0.248-1.261,0.313c-4.581,0.695-9.264,1.179-13.919,1.432C68.577,110.71,68.296,110.717,68.235,110.717z"/>
			<path fill="#FFFFFF" d="M85.989,108.767c-3.27,0-7.353-2.059-8.104-7.855c-0.01-0.067-0.018-0.141-0.023-0.207
				c-0.941-9.381-1.972-18.938-3.061-28.403c-0.018-0.155-0.029-0.31-0.037-0.465c-0.262-5.396,3.141-7.514,4.615-8.175
				c0.397-0.178,0.812-0.319,1.234-0.42c1.305-0.313,2.514-0.473,3.485-0.6l0.298-0.041c1.318-0.177,2.646-0.385,3.947-0.617
				c0.209-0.037,0.418-0.064,0.628-0.084c0.39-0.033,0.771-0.049,1.138-0.049c5.568,0,9.74,3.277,12.398,9.742
				c0.084,0.208,0.16,0.42,0.226,0.635c1.185,3.916,1.946,6.754,2.203,8.207c0.058,0.328,0.093,0.66,0.103,0.993
				c0.049,1.517-0.178,2.825-0.545,3.943c2.42,2.835,4.57,5.877,5.661,9.254c0.347,1.097,1.651,6.479-5.024,9.635
				c-1.133,0.536-2.351,0.968-3.004,1.199l-0.219,0.078c-0.215,0.079-0.447,0.153-0.669,0.211c-0.675,0.176-1.366,0.267-2.054,0.267
				h-0.001c-0.759,0-1.793-0.111-2.906-0.554c-1.174,1.256-2.75,2.085-4.414,2.405c-1.545,0.294-3.083,0.562-4.583,0.798
				C86.844,108.731,86.414,108.767,85.989,108.767z"/>
			<path fill="#FFFFFF" d="M110.273,102.504c-5.9,0-10.531-3.409-12.393-9.119l-0.529-1.575c-0.109-0.33-0.645-1.986-0.686-3.347
				c-0.025-1.271,0.236-2.485,0.73-3.567c-2.273-1.472-4.486-3.76-5.716-7.596c-2.308-7.443,1.476-15.224,8.409-17.406
				c1.449-0.47,2.961-0.718,4.439-0.718c5.055,0,9.534,2.867,11.982,7.671c0.615,1.225,1.99,3.951,1.05,7.182
				c2.207,1.422,4.495,3.3,6.588,5.848c0.313,0.381,0.585,0.794,0.812,1.23l0.231,0.449c2.552,4.82,2.033,8.707,1.146,11.108
				c-1.381,3.726-4.545,6.582-9.407,8.493C114.619,102.056,112.388,102.504,110.273,102.504z"/>
			<path fill="#FFFFFF" d="M127.755,95.433c-3.49,0-6.545-1.711-8.17-4.576c-0.576-1.01-0.953-2.123-1.121-3.271
				c-0.742-0.555-1.396-1.242-1.922-2.044l-0.295-0.45c-3.435-5.253-7.326-11.207-10.582-17.01l-0.803-1.425
				c-0.388-0.688-0.656-1.438-0.794-2.215c-0.626-3.53,1.237-6.902,4.642-8.416c0.803-0.364,1.601-0.74,2.396-1.128
				c0.032-0.016,0.063-0.031,0.097-0.047c1.118-0.525,2.297-0.791,3.504-0.791c2.797,0,5.316,1.408,6.914,3.863
				c3.813,5.829,7.646,11.671,11.485,17.508c0.494,0.75,0.835,1.582,1.013,2.449c1.022,0.699,1.924,1.617,2.653,2.727
				c1.365,2.063,1.792,4.694,1.161,7.207c-0.67,2.668-2.458,4.955-4.907,6.272C131.398,94.966,129.574,95.433,127.755,95.433z"/>
		</g>
		<g>
			<path fill="#202933" d="M15.414,88.565c0.972,0.406,2.139,0.283,3.008-0.779c0.236-0.199,0.291-0.178,0.316-0.227
				c0.834-0.727,1.472-1.351,2.361-1.007c0.783,0.3,1.755,1.259,3.245,3.255c-2.302,3.785-4.959,6.039-11.113,3.604
				c-2.824-1.114-7.033-3.604-6.1-7.018c0.971-3.865,5.174-10.701,8.391-15.828c3.644-5.795,8.171-12.295,14.212-9.265
				c2.742,1.345,4.913,4.668,3.493,8.673c-0.028,0.065-0.058,0.133-0.086,0.198c-0.851,1.991-3.348,1.491-4.193,1.132
				c-0.078-0.031-0.156-0.064-0.234-0.098c-1.556-1.077,1.399-3.706-1.183-4.872c-0.133-0.062-0.291-0.074-0.469-0.157
				c-2.116-0.695-2.837,0.469-3.646,1.926c-0.107,0.192-0.216,0.387-0.323,0.58c-5.246,9.428-7.513,13.486-9.385,17.236
				C13.417,86.815,14.209,88.065,15.414,88.565z"/>
			<path fill="#202933" d="M40.485,91.444c0.157-0.769,0.544-2.555,0.545-2.555c-0.106-0.185-0.211-0.367-0.315-0.553
				c-1.275-0.287-2.547-0.595-3.814-0.922c-0.44-0.114-0.826-0.217-1.117-0.241c-0.547,0.019-0.761,0.287-0.916,0.738
				c-0.781,2.256-1.963,6.045-2.617,7.95c-0.67,1.953-1.584,3.255-3.147,2.891c-0.391-0.105-0.78-0.213-1.17-0.32
				c-2.647-0.752-2.748-1.197-1.967-3.3c3.726-10.266,7.555-20.517,11.486-30.753c0.228-0.548,0.812-0.898,1.316-0.711
				c0.929,0.346,1.862,0.678,2.799,0.992c0.595,0.199,0.514,0.844,0.364,1.408c-1.702,5.416-3.456,10.261-4.935,15.678
				c1.77,0.502,3.548,0.961,5.334,1.378c1.644-6.494,2.45-9.752,3.168-12.219c1.043-3.573,1.361-3.866,1.973-3.705
				c0.918,0.241,1.839,0.47,2.763,0.684c0.395,0.093,0.698,0.372,0.726,0.855c-0.039,0.168-0.079,0.337-0.118,0.505
				c-0.863,3.633-0.991,7.309-6.269,30.816c-0.259,1.162-2.005,0.891-3.246,0.666c-0.993-0.17-2.981-0.558-2.653-1.72
				C39.271,96.487,39.875,93.966,40.485,91.444z"/>
			<path fill="#202933" d="M55.526,69.532c1.208,0.207,2.419,0.393,3.633,0.554c0.761,0.125,4.409,0.563,5.133,0.647
				c0.31,0.125,0.436,0.285,0.507,0.593c-0.031,1.151-0.104,2.25-0.189,3.549c-0.08,0.495-0.158,0.944-0.976,0.888
				c-1.728-0.123-3.452-0.287-5.172-0.496c-0.163,0.133-0.327,0.267-0.492,0.398c-0.29,2.779-0.571,5.559-0.844,8.336
				c1.465,0.205,2.935,0.381,4.407,0.527c0.627,0.092,0.704,1.102,0.618,2.152c-0.012,0.133-0.022,0.267-0.033,0.399
				c-0.088,0.397-0.176,0.795-0.265,1.192c-0.034,0.399-0.198,1.047-0.864,1.009c-1.402-0.082-2.805-0.188-4.204-0.319
				c-0.056-0.006-0.179,0.083-0.296,0.124c-0.063,0.045-0.125,0.09-0.188,0.136c-0.263,2.592-0.518,5.182-0.767,7.771
				c0.044,0.563,0.292,0.99,1.076,1.048c2.146,0.153,4.296,0.257,6.445,0.306c1.023,0.022,1.169,0.672,1.131,1.37
				c-0.153,0.945-0.311,1.892-0.469,2.839c-0.083,0.351-0.544,0.693-0.993,0.786c-4.438,0.062-8.893-0.091-13.348-0.458
				c-0.696-0.078-1.328-0.878,1.002-12.882c0.621-3.228,1.191-6.464,1.835-9.792s1.349-6.699,2.114-10.214
				C54.606,69.524,55.08,69.456,55.526,69.532z"/>
			<path fill="#202933" d="M69.005,70.897c1.225,0.041,2.45,0.058,3.676,0.051c0.77,0.02,4.451-0.049,5.183-0.066
				c0.326,0.079,0.478,0.215,0.597,0.499c0.152,1.109,0.256,2.171,0.377,3.429c0,0.485-0.004,0.928-0.823,0.982
				c-1.729,0.115-3.464,0.188-5.195,0.218c-0.141,0.149-0.28,0.3-0.423,0.449c0.156,2.704,0.32,5.407,0.495,8.106
				c1.479,0.002,2.96-0.026,4.44-0.084c0.635,0.002,0.873,0.959,0.953,1.979c0.012,0.129,0.021,0.259,0.031,0.389
				c-0.023,0.394-0.047,0.785-0.072,1.18c0.03,0.389-0.029,1.031-0.693,1.085c-1.399,0.11-2.803,0.196-4.205,0.259
				c-0.057,0.003-0.163,0.104-0.271,0.159c-0.055,0.052-0.109,0.103-0.164,0.153c0.153,2.521,0.314,5.041,0.482,7.559
				c0.133,0.531,0.445,0.91,1.229,0.859c2.145-0.142,4.285-0.334,6.42-0.58c1.019-0.119,1.266,0.481,1.34,1.158
				c-0.002,0.928-0.006,1.855-0.014,2.784c-0.025,0.347-0.428,0.739-0.857,0.89c-4.383,0.666-8.805,1.121-13.247,1.362
				c-0.698,0.019-1.447-0.665-1.064-12.491c0.098-3.181,0.144-6.36,0.248-9.641c0.104-3.279,0.261-6.607,0.455-10.082
				C68.097,71.015,68.553,70.885,69.005,70.897z"/>
			<path fill="#202933" d="M81.753,71.5c-0.024-0.53-0.069-1.202,0.488-1.452c1.062-0.254,2.094-0.377,3.08-0.509
				c1.422-0.19,2.842-0.412,4.258-0.666c3.537-0.31,5.256,2.47,6.453,5.382c1.553,5.135,1.928,6.932,2.01,7.396
				c0.086,2.705-1.848,3.435-2.347,4.373c0.013,0.047,0.036,0.137,0.103,0.17c2.021,2.218,6.398,6.572,7.695,10.584
				c0.243,0.774-3.309,1.932-4.022,2.197c-0.979,0.256-1.384-0.817-1.716-1.371c-0.525-1.81-5.031-9.412-7.375-8.994
				c-0.387,0.074-1.041,0.242-1.082,0.637c0.32,1.709,0.642,3.417,0.961,5.125c0.346,1.833,0.619,3.632,0.963,5.465
				c0.105,0.564,0.125,1.001-0.682,1.156c-1.445,0.275-2.896,0.527-4.349,0.757c-1.122,0.175-1.28-1.075-1.368-1.745
				C83.869,90.483,82.844,80.981,81.753,71.5z M88.723,83.862c0.116,0.609,0.843,0.677,1.481,0.557
				c1.432-0.27,2.346-0.659,2.401-2.027c-0.255-1.981-0.547-3.182-0.989-5.026c-0.181-0.753-0.361-1.507-0.543-2.261
				c-0.474-0.924-1.301-1.295-2.294-1.125c-1.043,0.18-1.586,0.646-1.483,1.693C87.777,78.401,88.251,81.131,88.723,83.862z"/>
			<path fill="#202933" d="M103.985,89.574c-0.073-0.222-0.315-1.128-0.321-1.322c-0.004-0.194,0.082-0.661,0.358-0.746
				c0.313-0.098,0.626-0.194,0.938-0.295c0.662-0.211,1.322-0.426,2.271-0.698c2.202-0.473,2.105,5.493,5.014,4.672
				c0.422-0.108,0.823-0.263,1.168-0.396c1.668-0.651,1.629-1.195,1.153-2.245c-0.146-0.322-0.291-0.646-0.437-0.97
				c-0.135-0.296-0.303-0.525-0.51-0.843c-5.629-8.039-13.002-4.478-15.274-11.567c-1.087-3.509,0.413-7.513,3.846-8.593
				c4.537-1.471,7.091,1.507,8.084,3.455c0.517,1.024,1.103,2.18-0.104,2.757c-0.145,0.058-1.141,0.591-1.674,0.786
				c-0.08,0.031-0.16,0.062-0.24,0.091c-0.146,0.055-0.877,0.176-0.971-0.037c-1.574-2.914-2.52-3.029-3.078-2.845
				c-1.48,0.49-1.957,1.699-1.408,3.137c1.121,3.105,9.623,2.713,15.941,10.404c0.076,0.148,0.154,0.299,0.231,0.447
				c2.504,4.732,0.608,7.827-4.604,9.877c-4.623,1.793-8.441,0.847-9.832-3.426C104.353,90.67,104.169,90.122,103.985,89.574z"/>
			<path fill="#202933" d="M111.771,64.657c-0.27-0.479-0.539-0.957-0.809-1.436c-0.073-0.414,0.266-0.658,0.606-0.807
				c0.874-0.396,1.744-0.807,2.609-1.229c0.632-0.297,1.174-0.061,1.571,0.551c3.828,5.853,7.664,11.699,11.508,17.539
				c-0.077,0.867-0.646,1.439-1.981,2.136c-0.214,0.11-0.428,0.221-0.642,0.33c-0.805,0.413-1.713,0.76-2.244-0.048
				C118.871,76.31,114.998,70.407,111.771,64.657z M126.658,84.028c1.861-0.976,3.266-1.096,4.268,0.427
				c0.652,0.985,0.218,2.696-1.217,3.469c-1.49,0.806-3.356,0.673-4.033-0.521C125.085,86.369,125.291,84.741,126.658,84.028z"/>
		</g>
	</g>
	<g>
		<g>
			<path fill="#DCD7A7" d="M50.904,67.924l-2.41-1.069l0.038-0.086c-1.654-1.179-2.758-2.846-3.121-4.596l7.283-16.409
				c0.871,0.2,1.682,0.146,2.241-0.142c8.039,1.536,15.089-5.508,16.424-17.171c0.592-3.714,0.782-7.375,0.85-10.678
				c-4.584-2.034-9.167-4.068-13.751-6.104c-2.403,2.265-4.992,4.861-7.351,7.792c-7.756,8.813-8.243,18.768-1.718,23.698
				c0.162,0.607,0.666,1.244,1.399,1.756L43.5,61.332c-1.541,0.901-3.515,1.199-5.499,0.763l-2.446-0.982
				c-0.346-0.153-0.749,0.002-0.902,0.348C34.5,61.803,34.655,62.208,35,62.362l15.348,6.813c0.344,0.152,0.748-0.005,0.901-0.35
				C51.402,68.479,51.248,68.076,50.904,67.924z M50.641,41.504c-2.11-1.594-3.372-3.876-3.647-6.597
				c-0.439-4.348,1.626-9.479,5.67-14.073l0.061-0.07c2.083-2.593,4.369-4.91,6.158-6.633l11.213,4.978
				c-0.076,2.48-0.263,5.726-0.787,9.017l-0.012,0.091c-0.696,6.085-3.117,11.062-6.637,13.651c-2.203,1.618-4.74,2.212-7.337,1.716
				c0,0-0.963,0.013-2.504-0.672C51.335,42.253,50.641,41.504,50.641,41.504z"/>
			<path fill="#6C111C" d="M48.474,27.249c-1.183,2.645-1.722,5.271-1.48,7.658c0.275,2.721,1.537,5.003,3.647,6.597
				c0,0,0.694,0.749,2.178,1.407c1.541,0.685,2.504,0.672,2.504,0.672c2.597,0.496,5.134-0.098,7.337-1.716
				c1.934-1.424,3.521-3.588,4.688-6.24L48.474,27.249z"/>
		</g>
		<path fill="#4A0B14" d="M55.323,43.583c2.597,0.496,5.134-0.098,7.337-1.716c0.393-0.29,0.767-0.615,1.129-0.963
			c0.067-0.066,0.14-0.126,0.207-0.194c0.304-0.304,0.594-0.632,0.876-0.975c0.127-0.156,0.255-0.313,0.379-0.476
			c0.219-0.291,0.431-0.593,0.635-0.907c0.172-0.265,0.34-0.537,0.5-0.817c0.016-0.027,0.03-0.056,0.047-0.083
			c0.326-0.576,0.632-1.182,0.912-1.817c0.001-0.003,0.002-0.004,0.004-0.008l0,0l-9.485-4.211L52.77,42.888
			c0.018,0.008,0.03,0.016,0.049,0.023C54.36,43.596,55.323,43.583,55.323,43.583z"/>
	</g>
	<g>
		<g>
			<path fill="#DCD7A7" d="M100.619,58.976l-2.527,0.75l-0.026-0.09c-2.022,0.178-3.944-0.373-5.356-1.469l-5.115-17.209
				c0.793-0.413,1.373-0.981,1.613-1.563c7.11-4.052,7.898-13.986,1.342-23.724C88.585,12.464,86.354,9.556,84.259,7
				c-4.807,1.43-9.613,2.857-14.422,4.286c-0.356,3.283-0.641,6.938-0.53,10.699c-0.177,11.737,5.916,19.626,14.08,19.139
				c0.518,0.356,1.313,0.514,2.204,0.427l5.115,17.218c-0.586,1.687-1.895,3.193-3.687,4.149l-2.5,0.841
				c-0.362,0.107-0.567,0.487-0.46,0.85c0.105,0.361,0.486,0.568,0.852,0.463l16.096-4.783c0.361-0.107,0.566-0.49,0.459-0.852
				C101.359,59.074,100.978,58.867,100.619,58.976z M83.265,39.051c-2.641,0.158-5.082-0.758-7.059-2.648
				c-3.156-3.021-4.916-8.265-4.824-14.385v-0.093c-0.1-3.325,0.136-6.571,0.377-9.043L83.52,9.387
				c1.554,1.937,3.519,4.525,5.256,7.369l0.05,0.076c3.422,5.08,4.812,10.438,3.815,14.692c-0.625,2.661-2.169,4.76-4.466,6.068
				c0,0-0.725,0.635-2.342,1.114C84.279,39.17,83.265,39.051,83.265,39.051z"/>
			<path fill="#6C111C" d="M72.362,29.616c0.817,2.779,2.112,5.126,3.847,6.786c1.976,1.891,4.416,2.807,7.058,2.648
				c0,0,1.014,0.119,2.569-0.344c1.615-0.479,2.34-1.114,2.34-1.114c2.298-1.309,3.842-3.407,4.467-6.068
				c0.547-2.339,0.35-5.015-0.484-7.79L72.362,29.616z"/>
		</g>
		<path fill="#4A0B14" d="M88.175,37.593c2.297-1.309,3.841-3.407,4.466-6.068c0.11-0.476,0.185-0.966,0.233-1.466
			c0.008-0.094,0.024-0.187,0.03-0.282c0.034-0.428,0.042-0.866,0.034-1.31c-0.005-0.201-0.009-0.403-0.021-0.608
			c-0.022-0.363-0.058-0.729-0.105-1.102c-0.041-0.313-0.091-0.629-0.15-0.946c-0.006-0.031-0.014-0.063-0.019-0.094
			c-0.126-0.65-0.287-1.309-0.485-1.975c-0.002-0.003-0.002-0.004-0.003-0.008l0,0l-9.948,2.955l3.576,12.032
			c0.018-0.006,0.032-0.008,0.051-0.015C87.451,38.228,88.175,37.593,88.175,37.593z"/>
	</g>
	<path fill="#6C111C" d="M67.765,64.877c0.677-0.515,1.565-0.483,1.984,0.075c0.429,0.555,0.352,1.39-0.289,1.972
		c-0.612,0.56-1.593,0.603-2.066-0.01C66.929,66.299,67.094,65.388,67.765,64.877z"/>
	<path fill="#6C111C" d="M72.134,42.84c0.678-0.514,1.566-0.483,1.986,0.075c0.428,0.555,0.351,1.39-0.289,1.972
		c-0.612,0.559-1.594,0.602-2.066-0.01C71.298,44.262,71.464,43.35,72.134,42.84z"/>
	<path fill="#6C111C" d="M73.594,60.533c0.334-0.255,0.772-0.239,0.981,0.036c0.211,0.274,0.174,0.687-0.145,0.975
		c-0.303,0.277-0.787,0.298-1.021-0.005C73.18,61.235,73.262,60.785,73.594,60.533z"/>
	<path fill="#6C111C" d="M76.261,47.199c0.334-0.254,0.773-0.239,0.98,0.036c0.213,0.275,0.174,0.687-0.144,0.975
		c-0.302,0.277-0.787,0.298-1.021-0.005C75.847,47.901,75.929,47.451,76.261,47.199z"/>
	<g>
		<path fill="#6C111C" d="M67.87,53.434c-0.786,0-1.492-0.329-1.937-0.902c-0.913-1.206-0.604-2.979,0.686-3.958
			c1.254-0.954,3.066-0.853,3.871,0.218c0.877,1.136,0.657,2.743-0.523,3.819C69.391,53.133,68.627,53.434,67.87,53.434z
			 M68.574,48.888c-0.462,0-0.941,0.171-1.351,0.482c-0.852,0.646-1.073,1.79-0.496,2.553c0.523,0.675,1.805,0.642,2.564-0.052
			c0.787-0.717,0.957-1.757,0.403-2.474C69.446,49.067,69.049,48.888,68.574,48.888z"/>
	</g>
	<g>
		<path fill="#6C111C" d="M77.199,58.798c-0.228,0-0.457-0.02-0.689-0.061c-0.965-0.165-1.797-0.739-2.227-1.533
			c-0.395-0.727-0.426-1.554-0.09-2.333c0.598-1.351,2.021-2.255,3.546-2.255c0.322,0,0.64,0.042,0.943,0.124
			c0.938,0.256,1.69,0.851,2.06,1.631c0.328,0.692,0.332,1.468,0.012,2.185C80.175,57.894,78.746,58.798,77.199,58.798z
			 M77.739,53.795c-1.049,0-2.063,0.637-2.466,1.548c-0.24,0.559-0.107,1.016,0.046,1.301c0.261,0.479,0.779,0.828,1.392,0.934
			c1.266,0.216,2.508-0.438,2.965-1.495c0.183-0.409,0.183-0.824,0.002-1.205c-0.223-0.469-0.697-0.832-1.305-0.997
			C78.169,53.823,77.957,53.795,77.739,53.795z"/>
	</g>
</g>
</svg>
