<?xml version="1.0" encoding="utf-8"?>
<!-- Generator: Adobe Illustrator 16.0.0, SVG Export Plug-In . SVG Version: 6.00 Build 0)  -->
<!DOCTYPE svg PUBLIC "-//W3C//DTD SVG 1.1//EN" "http://www.w3.org/Graphics/SVG/1.1/DTD/svg11.dtd">
<svg version="1.1" id="Layer_1" xmlns="http://www.w3.org/2000/svg" xmlns:xlink="http://www.w3.org/1999/xlink" x="0px" y="0px"
	 width="113.595px" height="75.703px" viewBox="0 0 113.595 75.703" enable-background="new 0 0 113.595 75.703"
	 xml:space="preserve">
<path fill="#998282" d="M1.005,54.464c0.065,4.454,0.931,8.405,2.573,11.741c0.021,0.045,0.044,0.089,0.067,0.133
	c4.456,8.567,10.382,10.365,14.569,10.365l0.217-0.002c0.276-0.004,0.553-0.025,0.826-0.063l2.155-0.301
	c0.578-0.081,1.144-0.236,1.682-0.464c2.603-1.1,6.267-3.35,8.686-7.729c3.529,3.15,7.444,4.049,10.749,4.049l0.397-0.004
	c5.605-0.084,10.017-2.473,12.776-6.806c2.569,0.553,5.182,0.878,7.807,0.878c0,0,0.001,0,0.002,0c2.817,0,5.611-0.369,8.351-1
	c0.128,0.322,0.274,0.621,0.452,0.92l0.146,0.239c0.857,2.052,3.005,4.133,8.105,4.532c1.82,0.144,4.389,0.211,7.852,0.211
	c1.545,0,3.271-0.016,5.177-0.044c0.25-0.004,0.501-0.022,0.749-0.053c4.706-0.601,7.936-3.819,8.337-8.14
	c0.438-0.075,0.866-0.189,1.28-0.349c6.864-2.648,10.739-8.295,10.633-15.491c-0.103-6.98-2.521-12.844-7.187-17.428
	c-0.11-0.107-0.223-0.212-0.34-0.312c-0.373-0.318-0.722-0.626-1.047-0.92c0.022-0.002,0.044-0.005,0.066-0.007
	c4.176-0.46,7.174-3.781,7.168-7.92c0.019-2.785-1.112-6.839-6.526-10.507c-0.222-0.15-0.453-0.288-0.692-0.411
	c-2.315-1.191-4.452-1.771-6.531-1.771c-0.032,0-0.563,0.007-0.563,0.007c-0.317,0.004-0.635,0.031-0.949,0.081l-1.885,0.298
	c-0.495,0.078-0.979,0.212-1.444,0.398c-5.427,2.172-8.14,5.315-9.44,8.206c-1.872-2.264-4.327-2.541-5.721-2.541
	c-0.033,0-0.08,0-0.113,0c-0.621,0-1.237,0.002-1.832,0.181l-0.468,0.089c-1.096,0.218-2.308,0.714-3.328,1.816L65.981,4.757
	c-0.466-0.694-1.059-1.3-1.745-1.776l-1.127-0.785c-1.136-0.787-2.472-1.194-3.82-1.194c-0.702,0-1.407,0.112-2.09,0.334
	c-1.996,0.654-3.569,2.212-4.252,4.198L48.459,18.61c-2.142-1.487-4.589-2.274-7.193-2.274c-2.83,0-5.775,0.93-8.756,2.763
	c-2.02,1.243-3.675,3.027-4.996,5.376c-2.318-2.474-5.467-3.827-9.153-3.827l-0.896,0.012C8.706,20.79,4.359,29.285,2.256,36.388
	c-0.131,0.441-0.216,0.895-0.254,1.354c-0.71,8.611-1.037,14.036-0.999,16.635L1.005,54.464z"/>
<g>
	<path fill="#FFFFFF" d="M28.706,43.663c1.244,10.001,18.886,16.034,39.401,13.48c20.52-2.555,36.141-12.73,34.896-22.73
		s-18.886-16.035-39.401-13.48C43.083,23.486,27.461,33.663,28.706,43.663z"/>
	<g>
		<path fill="#FFFFFF" d="M62.51,65.261c-7.799,0-15.491-2.567-22.246-7.076c-0.179-0.119-0.35-0.338-0.514-0.471
			c-0.208-0.133-0.414-0.314-0.62-0.452c-2.527-1.692-3.6-4.896-2.612-7.772l15.43-44.953c0.683-1.987,2.256-3.545,4.252-4.2
			C56.882,0.113,57.587,0,58.289,0c1.349,0,2.685,0.406,3.82,1.193l1.127,0.78c0.687,0.476,1.279,1.077,1.745,1.771l27.091,40.323
			c1.802,2.681,1.436,6.266-0.871,8.527c-0.101,0.106-0.196,0.387-0.293,0.482c-7.966,7.745-18.043,12.184-28.396,12.184
			C62.511,65.261,62.511,65.261,62.51,65.261z"/>
		<path fill="#FFFFFF" d="M59.416,7.483l-1.127-0.781l-15.43,44.941c0.378,0.253,0.761,0.495,1.145,0.731l-0.018,0.049
			c13.14,8.771,29.88,7.688,42.228-4.318c0.1-0.098,0.193-0.201,0.293-0.299L59.416,7.483z"/>
	</g>
	<g>
		<g>
			<path fill="#FFFFFF" d="M17.215,75.703c-4.188,0-10.113-1.798-14.569-10.365C2.622,65.294,2.6,65.25,2.578,65.205
				c-1.643-3.336-2.508-7.287-2.573-11.742l-0.002-0.087c-0.038-2.598,0.289-8.024,0.999-16.635
				c0.038-0.459,0.123-0.912,0.254-1.354c3.06-10.332,8.177-15.624,15.208-15.729l0.896-0.011c5.743,0,10.192,3.271,12.206,8.972
				c0.155,0.438,0.264,0.891,0.324,1.352l0.304,2.29c0.243,1.83-0.281,3.653-1.404,5.062c1.817,1.256,3.311,3.362,3.703,6.51
				c0.225,0.807,0.364,1.739,0.389,2.817l0.394,8.542c0.003,0.066,0.015,0.74,0.015,0.74c0.182,12.292-6.936,17.143-11.195,18.942
				c-0.538,0.228-1.104,0.383-1.682,0.464l-2.155,0.301c-0.273,0.039-0.55,0.06-0.826,0.064L17.215,75.703z"/>
		</g>
		<g>
			<path fill="#FFFFFF" d="M16.564,26.363l0.674-0.01c2.931-0.043,4.932,1.457,6.006,4.499l0.304,2.29l-0.533,0.412l-0.405,0.006
				c-0.18,0.003-0.503-0.531-0.969-1.604c-1.363-1.779-2.771-2.657-4.223-2.636l-0.271,0.004c-2.749,0.041-4.816,3.22-6.201,9.537
				l-0.479,13.234c0.095,6.36,2,10.516,5.718,12.466l0.542,0.127l0.81-0.013c1.183-0.018,2.471-1.115,3.864-3.296
				c0.605-1.681,0.894-3.483,0.865-5.41l-0.553-9.979l-0.673,0.145c-3.238,0.048-4.864-0.423-4.879-1.412
				c-0.014-0.899,1.283-1.369,3.893-1.408c2.043-0.03,3.479-0.276,4.309-0.738c0.991,0.204,1.499,1.141,1.524,2.812
				c0.181-0.003,0.277,0.491,0.292,1.48l0.397,8.631l0.009,0.54c0.095,6.399-2.271,10.617-7.1,12.656l-2.155,0.301
				c-3.456,0.052-6.369-2.2-8.737-6.753c-1.206-2.45-1.834-5.41-1.885-8.879L6.706,53.23c-0.033-2.301,0.292-7.612,0.979-15.938
				C9.826,30.062,12.787,26.42,16.564,26.363z"/>
		</g>
	</g>
	<g>
		<g>
			<path fill="#FFFFFF" d="M41.529,71.192c-5.993,0-13.992-2.939-18.062-16.941c-0.04-0.138-0.076-0.278-0.107-0.419
				c-0.489-2.206-0.753-4.985-0.805-8.496c-0.013-14.844,2.832-23.469,8.954-27.237c2.98-1.833,5.926-2.762,8.756-2.762
				c3.336,0,6.422,1.274,8.925,3.685c3.518,3.388,6.045,8.958,7.726,17.027c1.555,7.474,1.73,14.556,0.524,21.052
				c-1.645,8.832-7.299,13.966-15.514,14.089L41.529,71.192z M39.438,42.793c0.085,5.688,0.961,8.3,1.521,9.396
				c0.011-0.104,0.021-0.211,0.03-0.322c0.38-4.546,0.002-9.274-1.125-14.054c-0.167,1.003-0.321,2.184-0.447,3.569L39.438,42.793z"
				/>
		</g>
		<g>
			<path fill="#FFFFFF" d="M35.024,23.809c3.854-2.37,7.024-2.356,9.515,0.042c2.491,2.399,4.429,6.921,5.813,13.564
				c1.382,6.644,1.548,12.798,0.496,18.461c-1.055,5.665-4.062,8.534-9.021,8.608l-0.135,0.002
				c-5.487,0.081-9.416-3.954-11.785-12.106c-0.387-1.743-0.602-4.124-0.646-7.144C29.25,33.321,31.173,26.18,35.024,23.809z
				 M32.709,41.137l0.025,1.754c0.107,7.222,1.393,12.106,3.86,14.652c1.045,1.964,2.903,2.927,5.577,2.888
				c3.225-0.048,5.059-2.718,5.5-8.006c0.442-5.29,0.012-10.688-1.291-16.195c-1.302-5.507-3.382-8.817-6.239-9.932
				C36.029,26.319,33.551,31.267,32.709,41.137z"/>
		</g>
	</g>
	<g>
		<g>
			<path fill="#FFFFFF" d="M97.054,62.348c-2.935,0-5.717-0.839-8.269-2.495c-0.265-0.172-0.518-0.362-0.756-0.57
				c-3.272-2.851-5.106-5.699-5.606-8.708c-0.479-2.88-0.157-5.401,0.957-7.493c1.54-2.902,4.316-4.668,7.422-4.714
				c0.032,0,0.072,0,0.104,0c0.349,0,0.682,0.021,1.001,0.06c-3.301-3.224-5.375-5.687-6.555-7.754
				c-1.836-3.219-2.566-6.938-2.169-11.052c0.356-3.715,2.465-8.82,10.479-12.027c0.465-0.186,0.949-0.32,1.444-0.398l1.885-0.298
				c0.314-0.049,0.632-0.077,0.949-0.082c0,0,0.531-0.007,0.563-0.007c2.079,0,4.216,0.58,6.531,1.771
				c0.239,0.123,0.471,0.26,0.692,0.411c5.414,3.668,6.545,7.722,6.526,10.507c0.006,4.138-2.992,7.46-7.168,7.92
				c-0.022,0.002-0.044,0.004-0.066,0.007c0.325,0.294,0.674,0.601,1.047,0.92c0.117,0.1,0.229,0.204,0.34,0.311
				c4.666,4.584,7.084,10.448,7.187,17.428c0.106,7.197-3.769,12.843-10.633,15.491c-0.441,0.17-0.899,0.293-1.367,0.367
				l-1.886,0.298c-0.313,0.049-0.628,0.077-0.944,0.081L97.054,62.348z"/>
		</g>
		<g>
			<path fill="#FFFFFF" d="M105.549,19.485c0.011,0.758-0.389,1.181-1.196,1.27s-1.788-0.559-2.938-1.941
				c-1.153-1.384-1.991-2.072-2.519-2.064l-0.54,0.008c-2.698,0.04-4.246,1.818-4.644,5.332c0.045,3.046,2.709,6.829,7.995,11.353
				c3.378,3.318,5.105,7.565,5.182,12.743c0.065,4.434-2.049,7.48-6.342,9.137l-1.886,0.298l-1.484,0.022
				c-1.67,0.024-3.251-0.446-4.743-1.414c-2.031-1.77-3.164-3.353-3.396-4.751c-0.232-1.397-0.146-2.478,0.261-3.242
				c0.405-0.764,0.94-1.151,1.603-1.161c0.661-0.01,1.331,1.555,2.007,4.693c1.37,1.42,2.909,2.117,4.619,2.092l0.539-0.009
				c3.412-0.513,5.096-2.247,5.052-5.203l-0.016-1.079c-0.045-2.994-1.123-5.948-3.235-8.858c-4.651-4.238-7.548-7.356-8.689-9.357
				s-1.582-4.363-1.319-7.085c0.262-2.723,2.36-4.871,6.296-6.446l1.885-0.298l0.404-0.006c0.99-0.015,2.164,0.327,3.524,1.027
				C104.381,16.18,105.574,17.826,105.549,19.485z"/>
		</g>
	</g>
	<g>
		<g>
			<path fill="#FFFFFF" d="M87.417,70.161c-3.463,0-6.031-0.069-7.852-0.212c-5.101-0.399-7.248-2.485-8.105-4.537l-0.146-0.246
				c-0.627-1.06-0.95-2.272-0.933-3.504l0.062-4.519l-0.185-3.838c-0.004-0.088-0.007-0.177-0.008-0.266
				c-0.092-10.979-0.089-19.348,0.011-24.874c0.052-2.889,0.128-5.024,0.234-6.529c0.416-5.902,3.269-7.693,5.592-8.155l0.468-0.141
				c0.595-0.179,1.211-0.274,1.832-0.284c0.033,0,0.08,0,0.113,0c2.41,0,8.008,1.098,8.242,11.207
				c0.271,3.475,0.604,12.688,1.018,28.062c0,0,0.668-0.008,0.692-0.008l5.265,0.057c1.034,0.011,2.052,0.261,2.973,0.73
				c3.108,1.585,4.991,4.483,5.036,7.752c0.073,4.855-3.296,8.561-8.384,9.21c-0.248,0.032-0.499,0.049-0.749,0.053
				C90.688,70.146,88.962,70.161,87.417,70.161z"/>
		</g>
		<g>
			<path fill="#FFFFFF" d="M78.487,19.761c0.989-0.015,1.508,1.597,1.556,4.835c0.296,3.557,0.692,15.066,1.188,34.531l0.133-0.138
				l1.351,0.115l5.667-0.084l5.265,0.057c0.906,0.462,1.366,1.086,1.377,1.87c0.021,1.427-0.822,2.249-2.528,2.467
				c-9.895,0.146-14.845-0.095-14.854-0.725l-0.554-0.937l0.064-4.726l-0.194-4.045c-0.185-21.95,0.013-32.931,0.59-32.938
				L78.487,19.761z"/>
		</g>
	</g>
	<g>
		<path fill="#F14B30" d="M16.564,26.363l0.674-0.01c2.931-0.043,4.932,1.457,6.006,4.499l0.304,2.29l-0.533,0.412l-0.405,0.006
			c-0.18,0.003-0.503-0.531-0.969-1.604c-1.363-1.779-2.771-2.657-4.223-2.636l-0.271,0.004c-2.749,0.041-4.816,3.22-6.201,9.537
			l-0.479,13.234c0.095,6.36,2,10.516,5.718,12.466l0.542,0.127l0.81-0.013c1.183-0.018,2.471-1.115,3.864-3.296
			c0.605-1.681,0.894-3.483,0.865-5.41l-0.553-9.979l-0.673,0.145c-3.238,0.048-4.864-0.423-4.879-1.412
			c-0.014-0.899,1.283-1.369,3.893-1.408c2.043-0.03,3.479-0.276,4.309-0.738c0.991,0.204,1.499,1.141,1.524,2.812
			c0.181-0.003,0.277,0.491,0.292,1.48l0.397,8.631l0.009,0.54c0.095,6.399-2.271,10.617-7.1,12.656l-2.155,0.301
			c-3.456,0.052-6.369-2.2-8.737-6.753c-1.206-2.45-1.834-5.41-1.885-8.879L6.706,53.23c-0.033-2.301,0.292-7.612,0.979-15.938
			C9.826,30.062,12.787,26.42,16.564,26.363z"/>
	</g>
	<g>
		<path fill="#F14B30" d="M35.024,23.809c3.854-2.37,7.024-2.356,9.515,0.042c2.491,2.399,4.429,6.921,5.813,13.564
			c1.382,6.644,1.548,12.798,0.496,18.461c-1.055,5.665-4.062,8.534-9.021,8.608l-0.135,0.002
			c-5.487,0.081-9.416-3.954-11.785-12.106c-0.387-1.743-0.602-4.124-0.646-7.144C29.25,33.321,31.173,26.18,35.024,23.809z
			 M32.709,41.137l0.025,1.754c0.107,7.222,1.393,12.106,3.86,14.652c1.045,1.964,2.903,2.927,5.577,2.888
			c3.225-0.048,5.059-2.718,5.5-8.006c0.442-5.29,0.012-10.688-1.291-16.195c-1.302-5.507-3.382-8.817-6.239-9.932
			C36.029,26.319,33.551,31.267,32.709,41.137z"/>
	</g>
	<g>
		<path fill="#F2EAB8" d="M85.084,47.326c0.102-0.099,0.195-0.2,0.293-0.301L59.416,7.483l-1.127-0.781l-15.43,44.941
			C55.997,60.414,72.739,59.331,85.084,47.326z"/>
		<path fill="#FBA70E" d="M86.214,48.105c0.1-0.098,0.193-0.201,0.293-0.299L59.416,7.483l-15.43,44.94
			C57.126,61.194,73.866,60.111,86.214,48.105z"/>
		<path fill="#E39709" d="M83.432,43.232l-0.968-1.44c-11.137,6.639-24.029,6.077-34.599-0.666l-2.101,6.122
			C57.741,53.895,72.132,52.796,83.432,43.232z"/>
		<g>
			<path fill="#DCD7A7" d="M71.725,41.438c-0.49-0.458-0.225-1.871,0.596-3.156c0.818-1.287,1.882-1.961,2.374-1.504
				c0.491,0.455,0.226,1.868-0.594,3.154C73.28,41.218,72.217,41.893,71.725,41.438z"/>
			<path fill="#F2EAB8" d="M74.336,41.41c0.535-0.302,0.905-0.881,1.012-1.584c0.085-0.744-0.177-1.212-0.291-1.081
				c-0.215,0.13-0.464,0.123-0.7,0.044c-0.708-0.672-1.351-1.441-1.933-2.311c-0.279-0.447-0.927-0.69-1.325-0.357
				c-0.379,0.332-0.654,0.763-0.821,1.29c-0.166,0.55,0.195,1.247,0.626,1.454c0.847,0.453,1.629,1.007,2.349,1.656
				c0.123,0.257,0.192,0.547,0.144,0.83C73.319,41.52,73.762,41.704,74.336,41.41z"/>
			<path fill="#F2EAB8" d="M75.224,42c0.043-0.066,0.782-1.224,0.823-1.291c1.038-1.629,0.982-3.78-0.125-4.807
				c-0.784-0.728-2.169-0.684-2.887,0.308c-0.244,0.339-0.011,0.906,0.359,0.928c0.144,0.009,0.406-0.353,0.568-0.395
				c0.227-0.059,0.437,0.025,0.538,0.221c0.332,0.639-0.026,1.282-0.361,1.843l-0.931,1.46c-0.362,0.536-0.785,1.118-1.383,0.896
				c-0.183-0.067-0.303-0.293-0.316-0.572c-0.007-0.199,0.215-0.599,0.171-0.765c-0.111-0.423-0.624-0.55-0.836-0.178
				c-0.608,1.092-0.288,2.717,0.497,3.444C72.447,44.117,74.188,43.629,75.224,42z"/>
		</g>
		<g>
			<path fill="#DCD7A7" d="M60.181,32.613c-0.238-0.718,0.622-1.797,1.918-2.413c1.298-0.617,2.543-0.533,2.779,0.184
				c0.238,0.718-0.621,1.8-1.919,2.415C61.664,33.414,60.418,33.332,60.181,32.613z"/>
			<path fill="#F2EAB8" d="M62.52,34.263c0.609,0.071,1.196-0.207,1.599-0.758c0.405-0.607,0.377-1.188,0.217-1.146
				c-0.247-0.021-0.469-0.187-0.646-0.406c-0.331-1.048-0.568-2.142-0.703-3.282c-0.051-0.57-0.523-1.205-1.026-1.161
				c-0.483,0.051-0.915,0.258-1.299,0.616c-0.39,0.381-0.374,1.229-0.083,1.688c0.556,0.943,1.009,1.93,1.366,2.967
				c-0.003,0.307-0.07,0.607-0.238,0.828C61.564,33.706,61.878,34.153,62.52,34.263z"/>
			<path fill="#F2EAB8" d="M63.052,35.35c0.066-0.033,1.233-0.586,1.301-0.619c1.642-0.779,2.539-2.72,2.005-4.335
				c-0.379-1.146-1.633-1.992-2.708-1.573c-0.369,0.146-0.41,0.797-0.089,1.053c0.123,0.099,0.519-0.056,0.681,0.011
				c0.226,0.095,0.377,0.307,0.382,0.54c0.016,0.779-0.586,1.12-1.133,1.401l-1.473,0.7c-0.559,0.241-1.191,0.488-1.626-0.093
				c-0.133-0.174-0.143-0.453-0.028-0.708c0.077-0.182,0.453-0.393,0.485-0.566c0.089-0.45-0.313-0.89-0.666-0.691
				c-1.023,0.576-1.452,2.221-1.072,3.367C59.646,35.452,61.409,36.129,63.052,35.35z"/>
		</g>
		<g>
			<path fill="#D94128" d="M53.898,42.301c-1.579-1.463-1.878-4.181-0.675-6.073c1.206-1.892,3.462-2.239,5.038-0.775
				c1.58,1.463,1.88,4.181,0.675,6.071C57.732,43.415,55.476,43.764,53.898,42.301z"/>
			<path fill="#F14B30" d="M58.52,39.138c-0.201-0.186-0.24-0.529-0.088-0.77c0.154-0.24,0.439-0.283,0.639-0.097
				c0.201,0.185,0.238,0.528,0.086,0.768C59.003,39.279,58.719,39.323,58.52,39.138z"/>
			<path fill="#F14B30" d="M55.24,40.384c-0.199-0.184-0.238-0.528-0.087-0.769c0.153-0.239,0.44-0.282,0.641-0.098
				c0.2,0.186,0.238,0.529,0.084,0.768C55.726,40.526,55.441,40.572,55.24,40.384z"/>
			<path fill="#F14B30" d="M55.92,36.656c-0.2-0.185-0.238-0.528-0.086-0.77c0.153-0.24,0.438-0.282,0.64-0.098
				c0.199,0.186,0.235,0.53,0.085,0.77C56.404,36.798,56.12,36.843,55.92,36.656z"/>
			<path fill="#F14B30" d="M53.302,38.298c-0.201-0.188-0.239-0.531-0.087-0.771c0.152-0.239,0.439-0.283,0.64-0.099
				c0.198,0.187,0.237,0.53,0.084,0.77C53.786,38.438,53.501,38.48,53.302,38.298z"/>
			<path fill="#F14B30" d="M57.301,41.714c-0.199-0.185-0.238-0.528-0.086-0.769s0.439-0.283,0.638-0.098
				c0.201,0.184,0.238,0.53,0.087,0.768C57.786,41.855,57.501,41.9,57.301,41.714z"/>
			<path fill="#F14B30" d="M56.929,39.115c-0.107-0.097-0.128-0.279-0.046-0.404c0.079-0.126,0.23-0.15,0.335-0.052
				c0.105,0.098,0.125,0.279,0.045,0.405C57.182,39.191,57.031,39.213,56.929,39.115z"/>
			<path fill="#F14B30" d="M57.753,37.013c-0.104-0.099-0.126-0.28-0.045-0.406c0.082-0.127,0.23-0.149,0.337-0.053
				c0.104,0.099,0.125,0.278,0.044,0.407C58.009,37.087,57.858,37.11,57.753,37.013z"/>
			<path fill="#F14B30" d="M58.279,40.842c-0.104-0.096-0.125-0.278-0.044-0.403c0.08-0.128,0.231-0.149,0.336-0.053
				c0.104,0.099,0.124,0.279,0.045,0.405C58.536,40.917,58.385,40.941,58.279,40.842z"/>
			<path fill="#F14B30" d="M55.645,42.031c-0.104-0.098-0.127-0.278-0.046-0.404c0.081-0.127,0.232-0.149,0.338-0.053
				c0.104,0.1,0.125,0.279,0.044,0.405C55.9,42.105,55.749,42.13,55.645,42.031z"/>
			<path fill="#F14B30" d="M53.56,40.171c-0.105-0.097-0.125-0.278-0.046-0.406c0.082-0.127,0.231-0.146,0.337-0.051
				c0.105,0.098,0.126,0.278,0.046,0.405C53.816,40.245,53.665,40.269,53.56,40.171z"/>
			<path fill="#F14B30" d="M55.032,38.049c-0.104-0.096-0.125-0.278-0.045-0.404c0.08-0.127,0.232-0.148,0.336-0.052
				c0.105,0.099,0.126,0.278,0.044,0.403C55.287,38.124,55.139,38.146,55.032,38.049z"/>
			<path fill="#F14B30" d="M54.321,36.503c-0.057-0.056-0.069-0.157-0.024-0.226c0.044-0.071,0.129-0.084,0.188-0.031
				c0.059,0.056,0.07,0.158,0.025,0.229C54.464,36.545,54.381,36.558,54.321,36.503z"/>
			<path fill="#F14B30" d="M57.186,35.527c-0.059-0.056-0.069-0.155-0.023-0.228c0.044-0.069,0.128-0.083,0.185-0.029
				c0.062,0.057,0.071,0.157,0.027,0.229C57.329,35.568,57.244,35.58,57.186,35.527z"/>
			<path fill="#F14B30" d="M56.65,37.791c-0.058-0.055-0.07-0.154-0.025-0.226c0.046-0.07,0.13-0.084,0.189-0.028
				c0.059,0.053,0.07,0.155,0.025,0.226C56.794,37.833,56.71,37.846,56.65,37.791z"/>
			<path fill="#F14B30" d="M54.416,41.678c-0.06-0.055-0.069-0.156-0.024-0.227c0.046-0.07,0.13-0.083,0.188-0.029
				c0.058,0.056,0.071,0.156,0.027,0.226C54.559,41.719,54.476,41.731,54.416,41.678z"/>
			<path fill="#F14B30" d="M57.833,39.832c-0.057-0.055-0.071-0.155-0.025-0.226c0.046-0.072,0.13-0.084,0.188-0.03
				c0.058,0.054,0.07,0.155,0.024,0.227C57.976,39.874,57.892,39.885,57.833,39.832z"/>
			<path fill="#F14B30" d="M56.34,40.844c-0.058-0.054-0.07-0.153-0.025-0.225s0.13-0.083,0.188-0.028
				c0.06,0.054,0.071,0.153,0.025,0.227C56.483,40.886,56.399,40.899,56.34,40.844z"/>
			<path fill="#F14B30" d="M54.523,38.942c-0.059-0.055-0.069-0.155-0.024-0.227s0.129-0.083,0.187-0.03
				c0.061,0.057,0.07,0.156,0.025,0.228C54.667,38.984,54.58,38.995,54.523,38.942z"/>
			<path fill="#F14B30" d="M53.066,39.045c-0.06-0.056-0.069-0.157-0.024-0.229c0.044-0.069,0.128-0.082,0.187-0.027
				c0.06,0.055,0.07,0.155,0.024,0.226C53.209,39.085,53.125,39.099,53.066,39.045z"/>
			<path fill="#F14B30" d="M58.877,37.53c-0.06-0.054-0.071-0.154-0.025-0.226c0.045-0.07,0.129-0.085,0.188-0.03
				c0.06,0.056,0.068,0.157,0.024,0.229C59.018,37.572,58.936,37.585,58.877,37.53z"/>
		</g>
		<g>
			<path fill="#6F8412" d="M64.837,42.893c-0.8-0.742-0.827-2.315-0.063-3.517c0.764-1.198,2.032-1.571,2.832-0.829
				c0.803,0.742,0.83,2.315,0.064,3.517C66.906,43.263,65.638,43.635,64.837,42.893z"/>
			<path fill="#849C18" d="M66.32,41.33c-0.379-0.352-0.393-1.098-0.029-1.668c0.364-0.569,0.965-0.747,1.345-0.396
				c0.382,0.353,0.396,1.102,0.032,1.67C67.304,41.508,66.702,41.684,66.32,41.33z"/>
			<path fill="#375926" d="M65.301,42.384c-0.118,0.177-0.364,0.172-0.547-0.008c-0.184-0.18-0.235-0.468-0.118-0.644
				c0.12-0.177,0.364-0.176,0.55,0.007C65.368,41.92,65.42,42.209,65.301,42.384z"/>
		</g>
		<g>
			<path fill="#6F8412" d="M54.453,30.341c-0.798-0.742-0.826-2.316-0.063-3.517c0.764-1.197,2.031-1.568,2.832-0.828
				c0.801,0.742,0.83,2.316,0.065,3.517C56.523,30.712,55.256,31.082,54.453,30.341z"/>
			<path fill="#849C18" d="M55.938,28.779c-0.381-0.352-0.393-1.099-0.029-1.668c0.362-0.57,0.965-0.746,1.345-0.395
				c0.381,0.353,0.394,1.101,0.03,1.669C56.922,28.955,56.318,29.133,55.938,28.779z"/>
			<path fill="#375926" d="M54.92,29.832c-0.12,0.177-0.364,0.174-0.548-0.007c-0.185-0.18-0.237-0.469-0.118-0.644
				c0.118-0.177,0.363-0.175,0.548,0.007C54.986,29.367,55.037,29.658,54.92,29.832z"/>
		</g>
		<g>
			<path fill="#6F8412" d="M65.873,27.373c-0.8-0.741-0.827-2.314-0.063-3.515c0.765-1.199,2.032-1.571,2.833-0.829
				c0.8,0.742,0.83,2.316,0.064,3.517S66.674,28.116,65.873,27.373z"/>
			<path fill="#849C18" d="M67.357,25.813c-0.378-0.353-0.394-1.101-0.029-1.67c0.363-0.57,0.965-0.747,1.346-0.395
				c0.38,0.353,0.393,1.101,0.031,1.671C68.342,25.99,67.738,26.165,67.357,25.813z"/>
			<path fill="#375926" d="M66.34,26.866c-0.121,0.175-0.365,0.173-0.549-0.009c-0.184-0.18-0.236-0.468-0.117-0.644
				c0.118-0.178,0.363-0.174,0.547,0.006C66.404,26.402,66.457,26.689,66.34,26.866z"/>
		</g>
		<g>
			<path fill="#849C18" d="M60.23,22.743c0.498-0.782,1.465-0.898,2.157-0.256c0.692,0.639,0.849,1.799,0.348,2.581
				c-0.498,0.783-1.466,0.899-2.157,0.257C59.888,24.685,59.729,23.526,60.23,22.743L60.23,22.743z M62.179,24.553
				c0.265-0.415,0.166-1.043-0.218-1.398c-0.383-0.356-0.912-0.309-1.176,0.106c-0.263,0.414-0.166,1.042,0.218,1.397
				C61.389,25.015,61.914,24.967,62.179,24.553L62.179,24.553z"/>
		</g>
		<g>
			<path fill="#849C18" d="M60.404,41.248c0.295-0.461,0.863-0.529,1.27-0.15c0.407,0.376,0.498,1.056,0.205,1.518
				c-0.293,0.46-0.862,0.527-1.27,0.15C60.205,42.39,60.11,41.709,60.404,41.248L60.404,41.248z M61.553,42.311
				c0.153-0.244,0.099-0.612-0.127-0.821c-0.227-0.21-0.538-0.183-0.693,0.062c-0.155,0.243-0.099,0.613,0.127,0.824
				C61.087,42.584,61.396,42.555,61.553,42.311L61.553,42.311z"/>
		</g>
		<g>
			<defs>
				<path id="SVGID_5_" d="M86.214,48.105c0.1-0.098,0.193-0.201,0.293-0.299L59.416,7.483l-15.43,44.94
					C57.126,61.194,73.866,60.111,86.214,48.105z"/>
			</defs>
			<clipPath id="SVGID_2_">
				<use xlink:href="#SVGID_5_"  overflow="visible"/>
			</clipPath>
			<g clip-path="url(#SVGID_2_)">
				<g>
					<path fill="#DCD7A7" d="M63.73,19.199c-0.492-0.456-0.226-1.869,0.594-3.156c0.82-1.287,1.884-1.96,2.376-1.504
						c0.492,0.457,0.226,1.867-0.595,3.155C65.286,18.981,64.222,19.656,63.73,19.199z"/>
					<path fill="#F2EAB8" d="M66.343,19.175c0.534-0.304,0.903-0.886,1.011-1.585c0.087-0.746-0.177-1.213-0.292-1.082
						c-0.213,0.13-0.464,0.123-0.7,0.046c-0.706-0.674-1.351-1.443-1.933-2.313c-0.276-0.446-0.929-0.69-1.326-0.354
						c-0.379,0.33-0.651,0.761-0.821,1.288c-0.165,0.549,0.197,1.248,0.627,1.453c0.846,0.453,1.629,1.008,2.349,1.657
						c0.123,0.256,0.193,0.548,0.145,0.829C65.324,19.282,65.768,19.467,66.343,19.175z"/>
					<path fill="#F2EAB8" d="M67.231,19.764c0.041-0.067,0.78-1.225,0.822-1.291c1.036-1.63,0.981-3.781-0.125-4.809
						c-0.785-0.729-2.17-0.685-2.887,0.306c-0.245,0.343-0.013,0.909,0.357,0.931c0.142,0.01,0.407-0.354,0.568-0.396
						c0.226-0.058,0.438,0.027,0.538,0.222c0.332,0.638-0.025,1.283-0.361,1.843l-0.932,1.461c-0.36,0.534-0.784,1.116-1.381,0.894
						c-0.181-0.066-0.305-0.293-0.317-0.57c-0.007-0.2,0.215-0.6,0.173-0.766c-0.115-0.425-0.627-0.551-0.837-0.178
						c-0.61,1.09-0.288,2.718,0.496,3.444C64.455,21.881,66.193,21.393,67.231,19.764z"/>
				</g>
				<g>
					<path fill="#D94128" d="M70.081,33.584c-1.577-1.463-1.878-4.183-0.674-6.073c1.206-1.893,3.462-2.241,5.04-0.776
						c1.575,1.46,1.876,4.18,0.671,6.073C73.914,34.696,71.657,35.045,70.081,33.584z"/>
					<path fill="#F14B30" d="M74.701,30.423c-0.2-0.186-0.238-0.532-0.085-0.771c0.151-0.239,0.438-0.286,0.638-0.1
						c0.199,0.186,0.237,0.53,0.085,0.77C75.186,30.562,74.9,30.606,74.701,30.423z"/>
					<path fill="#F14B30" d="M71.422,31.668c-0.199-0.185-0.237-0.53-0.084-0.769c0.151-0.241,0.438-0.285,0.638-0.099
						c0.2,0.184,0.237,0.529,0.084,0.769C71.907,31.809,71.622,31.854,71.422,31.668z"/>
					<path fill="#F14B30" d="M72.104,27.939c-0.199-0.185-0.239-0.529-0.087-0.77c0.151-0.24,0.439-0.283,0.639-0.1
						c0.199,0.187,0.239,0.53,0.084,0.771C72.588,28.08,72.303,28.125,72.104,27.939z"/>
					<path fill="#F14B30" d="M69.483,29.579c-0.198-0.187-0.238-0.53-0.086-0.769c0.153-0.24,0.438-0.285,0.639-0.099
						c0.2,0.185,0.237,0.528,0.084,0.77C69.967,29.72,69.683,29.765,69.483,29.579z"/>
					<path fill="#F14B30" d="M73.483,32.996c-0.199-0.186-0.239-0.529-0.086-0.768c0.152-0.241,0.439-0.284,0.638-0.099
						c0.199,0.184,0.238,0.529,0.085,0.77C73.968,33.139,73.682,33.181,73.483,32.996z"/>
					<path fill="#F14B30" d="M73.109,30.398c-0.104-0.098-0.125-0.276-0.045-0.406c0.08-0.125,0.231-0.146,0.336-0.05
						c0.104,0.098,0.125,0.278,0.045,0.404C73.364,30.474,73.216,30.495,73.109,30.398z"/>
					<path fill="#F14B30" d="M73.936,28.295c-0.104-0.097-0.127-0.278-0.046-0.405s0.232-0.149,0.337-0.051
						c0.105,0.098,0.126,0.277,0.045,0.403C74.191,28.37,74.042,28.393,73.936,28.295z"/>
					<path fill="#F14B30" d="M74.463,32.124c-0.104-0.096-0.127-0.278-0.046-0.404c0.083-0.125,0.23-0.147,0.336-0.051
						c0.105,0.098,0.126,0.278,0.046,0.404C74.718,32.201,74.568,32.222,74.463,32.124z"/>
					<path fill="#F14B30" d="M71.828,33.316c-0.105-0.099-0.126-0.281-0.045-0.408c0.08-0.125,0.23-0.147,0.334-0.05
						c0.106,0.098,0.127,0.278,0.047,0.405C72.083,33.389,71.932,33.412,71.828,33.316z"/>
					<path fill="#F14B30" d="M69.742,31.453c-0.106-0.098-0.125-0.278-0.045-0.403c0.083-0.127,0.23-0.151,0.335-0.054
						c0.105,0.098,0.127,0.281,0.046,0.407C69.998,31.527,69.848,31.55,69.742,31.453z"/>
					<path fill="#F14B30" d="M71.214,29.332c-0.104-0.096-0.124-0.279-0.043-0.404c0.081-0.126,0.229-0.148,0.335-0.053
						c0.105,0.098,0.126,0.278,0.046,0.405C71.471,29.407,71.32,29.43,71.214,29.332z"/>
					<path fill="#F14B30" d="M70.505,27.785c-0.061-0.055-0.069-0.154-0.025-0.226c0.045-0.07,0.128-0.085,0.187-0.028
						c0.061,0.056,0.07,0.154,0.026,0.225C70.646,27.827,70.563,27.84,70.505,27.785z"/>
					<path fill="#F14B30" d="M73.368,26.811c-0.058-0.055-0.07-0.156-0.025-0.229c0.046-0.069,0.13-0.081,0.188-0.026
						c0.058,0.054,0.07,0.154,0.025,0.225C73.512,26.852,73.428,26.864,73.368,26.811z"/>
					<path fill="#F14B30" d="M72.834,29.074c-0.059-0.054-0.071-0.156-0.025-0.227c0.045-0.07,0.129-0.082,0.187-0.029
						c0.06,0.055,0.071,0.157,0.025,0.228C72.977,29.117,72.894,29.128,72.834,29.074z"/>
					<path fill="#F14B30" d="M70.601,32.959c-0.059-0.054-0.071-0.155-0.027-0.223c0.046-0.073,0.131-0.086,0.188-0.031
						c0.06,0.055,0.07,0.155,0.026,0.227C70.742,33.002,70.658,33.015,70.601,32.959z"/>
					<path fill="#F14B30" d="M74.015,31.114c-0.059-0.054-0.067-0.155-0.023-0.226c0.045-0.069,0.128-0.084,0.187-0.029
						c0.06,0.054,0.069,0.156,0.025,0.226C74.159,31.156,74.074,31.168,74.015,31.114z"/>
					<path fill="#F14B30" d="M72.522,32.129c-0.06-0.055-0.07-0.157-0.024-0.228c0.044-0.07,0.13-0.084,0.188-0.029
						c0.058,0.056,0.069,0.157,0.024,0.228C72.666,32.17,72.581,32.183,72.522,32.129z"/>
					<path fill="#F14B30" d="M70.705,30.225c-0.059-0.055-0.068-0.155-0.025-0.224c0.048-0.072,0.131-0.086,0.188-0.031
						c0.06,0.055,0.071,0.156,0.026,0.228C70.849,30.266,70.766,30.278,70.705,30.225z"/>
					<path fill="#F14B30" d="M69.248,30.326c-0.06-0.055-0.07-0.154-0.023-0.226c0.045-0.071,0.127-0.084,0.187-0.031
						c0.06,0.057,0.069,0.157,0.025,0.229C69.391,30.368,69.307,30.381,69.248,30.326z"/>
					<path fill="#F14B30" d="M75.058,28.813c-0.056-0.054-0.068-0.155-0.023-0.227c0.046-0.068,0.128-0.084,0.188-0.028
						c0.059,0.055,0.07,0.157,0.025,0.226C75.202,28.854,75.118,28.868,75.058,28.813z"/>
				</g>
				<g>
					<path fill="#D94128" d="M55.028,22.131c-1.577-1.463-1.876-4.183-0.673-6.073c1.206-1.891,3.462-2.238,5.038-0.777
						c1.579,1.462,1.88,4.182,0.673,6.073C58.862,23.245,56.607,23.594,55.028,22.131z"/>
					<path fill="#F14B30" d="M59.65,18.969c-0.2-0.185-0.238-0.53-0.086-0.77c0.153-0.239,0.438-0.284,0.638-0.1
						c0.199,0.186,0.238,0.531,0.087,0.771C60.135,19.109,59.85,19.154,59.65,18.969z"/>
					<path fill="#F14B30" d="M56.372,20.215c-0.198-0.185-0.238-0.527-0.086-0.769c0.152-0.24,0.439-0.283,0.64-0.1
						c0.198,0.186,0.238,0.53,0.084,0.771C56.856,20.356,56.572,20.401,56.372,20.215z"/>
					<path fill="#F14B30" d="M57.051,16.486c-0.199-0.184-0.238-0.529-0.085-0.769c0.153-0.24,0.438-0.284,0.639-0.1
						c0.2,0.186,0.238,0.53,0.086,0.771C57.536,16.63,57.25,16.672,57.051,16.486z"/>
					<path fill="#F14B30" d="M54.432,18.126c-0.199-0.185-0.237-0.529-0.085-0.77c0.153-0.239,0.439-0.284,0.64-0.1
						c0.199,0.187,0.238,0.531,0.084,0.771C54.917,18.269,54.632,18.312,54.432,18.126z"/>
					<path fill="#F14B30" d="M58.433,21.545c-0.199-0.186-0.239-0.529-0.086-0.771c0.153-0.239,0.439-0.282,0.639-0.099
						c0.199,0.186,0.238,0.529,0.085,0.771C58.917,21.687,58.632,21.73,58.433,21.545z"/>
					<path fill="#F14B30" d="M58.059,18.947c-0.105-0.097-0.125-0.28-0.045-0.405c0.08-0.128,0.231-0.148,0.336-0.052
						s0.126,0.278,0.044,0.404C58.314,19.021,58.163,19.043,58.059,18.947z"/>
					<path fill="#F14B30" d="M58.885,16.84c-0.105-0.096-0.126-0.276-0.045-0.402s0.23-0.151,0.335-0.053
						c0.106,0.098,0.126,0.279,0.046,0.405C59.14,16.917,58.991,16.94,58.885,16.84z"/>
					<path fill="#F14B30" d="M59.411,20.672c-0.105-0.096-0.125-0.279-0.045-0.404c0.079-0.127,0.232-0.148,0.336-0.051
						c0.105,0.097,0.125,0.278,0.045,0.404C59.667,20.748,59.518,20.771,59.411,20.672z"/>
					<path fill="#F14B30" d="M56.776,21.861c-0.104-0.097-0.126-0.278-0.045-0.405c0.08-0.125,0.23-0.148,0.337-0.052
						c0.104,0.098,0.123,0.279,0.044,0.407C57.032,21.937,56.881,21.96,56.776,21.861z"/>
					<path fill="#F14B30" d="M54.69,20.001c-0.104-0.098-0.125-0.279-0.045-0.406c0.081-0.125,0.231-0.148,0.335-0.05
						c0.107,0.098,0.128,0.277,0.047,0.403C54.945,20.075,54.798,20.099,54.69,20.001z"/>
					<path fill="#F14B30" d="M56.164,17.879c-0.104-0.097-0.126-0.279-0.046-0.404c0.081-0.126,0.233-0.149,0.337-0.053
						c0.106,0.098,0.126,0.279,0.045,0.406C56.42,17.954,56.271,17.978,56.164,17.879z"/>
					<path fill="#F14B30" d="M55.453,16.331c-0.058-0.052-0.071-0.155-0.024-0.223c0.044-0.072,0.129-0.085,0.187-0.03
						c0.061,0.056,0.07,0.156,0.024,0.226C55.595,16.374,55.512,16.388,55.453,16.331z"/>
					<path fill="#F14B30" d="M58.316,15.356c-0.058-0.054-0.069-0.154-0.024-0.225c0.045-0.071,0.128-0.084,0.188-0.03
						c0.06,0.055,0.07,0.157,0.025,0.228C58.46,15.398,58.377,15.411,58.316,15.356z"/>
					<path fill="#F14B30" d="M57.783,17.621c-0.06-0.055-0.07-0.155-0.026-0.227c0.046-0.069,0.13-0.084,0.189-0.029
						c0.06,0.056,0.068,0.158,0.024,0.228C57.926,17.663,57.841,17.677,57.783,17.621z"/>
					<path fill="#F14B30" d="M55.548,21.506c-0.058-0.054-0.068-0.155-0.024-0.225c0.046-0.07,0.13-0.083,0.188-0.029
						c0.059,0.055,0.071,0.156,0.025,0.227C55.691,21.548,55.607,21.563,55.548,21.506z"/>
					<path fill="#F14B30" d="M58.965,19.661c-0.058-0.054-0.069-0.156-0.024-0.227c0.045-0.069,0.128-0.081,0.186-0.027
						c0.061,0.055,0.072,0.155,0.026,0.225C59.108,19.703,59.023,19.716,58.965,19.661z"/>
					<path fill="#F14B30" d="M57.472,20.674c-0.059-0.053-0.069-0.155-0.026-0.225c0.046-0.071,0.13-0.084,0.188-0.029
						c0.06,0.055,0.07,0.156,0.025,0.226C57.615,20.716,57.531,20.729,57.472,20.674z"/>
					<path fill="#F14B30" d="M55.655,18.771c-0.059-0.053-0.071-0.156-0.025-0.225c0.044-0.071,0.13-0.084,0.188-0.03
						c0.059,0.055,0.069,0.157,0.023,0.228C55.797,18.813,55.714,18.828,55.655,18.771z"/>
					<path fill="#F14B30" d="M54.198,18.874c-0.059-0.056-0.071-0.154-0.026-0.226c0.045-0.072,0.129-0.084,0.188-0.029
						c0.061,0.055,0.071,0.154,0.025,0.227C54.34,18.917,54.257,18.929,54.198,18.874z"/>
					<path fill="#F14B30" d="M60.008,17.358c-0.058-0.052-0.071-0.154-0.025-0.225c0.044-0.069,0.13-0.082,0.188-0.028
						c0.061,0.056,0.069,0.156,0.024,0.227C60.15,17.401,60.069,17.416,60.008,17.358z"/>
				</g>
				<g>
					<path fill="#849C18" d="M49.209,35.518c0.293-0.461,0.862-0.529,1.27-0.152c0.407,0.376,0.5,1.059,0.204,1.52
						c-0.292,0.459-0.861,0.527-1.269,0.15C49.006,36.658,48.915,35.979,49.209,35.518L49.209,35.518z M50.355,36.581
						c0.156-0.245,0.098-0.614-0.128-0.824c-0.225-0.208-0.536-0.18-0.691,0.063s-0.099,0.614,0.126,0.823
						C49.891,36.854,50.2,36.823,50.355,36.581L50.355,36.581z"/>
				</g>
			</g>
		</g>
	</g>
	<g>
		<path fill="#F14B30" d="M105.549,19.485c0.011,0.758-0.389,1.181-1.196,1.27s-1.788-0.559-2.938-1.941
			c-1.153-1.384-1.991-2.072-2.519-2.064l-0.54,0.008c-2.698,0.04-4.246,1.818-4.644,5.332c0.045,3.046,2.709,6.829,7.995,11.353
			c3.378,3.318,5.105,7.565,5.182,12.743c0.065,4.434-2.049,7.48-6.342,9.137l-1.886,0.298l-1.484,0.022
			c-1.67,0.024-3.251-0.446-4.743-1.414c-2.031-1.77-3.164-3.353-3.396-4.751c-0.232-1.397-0.146-2.478,0.261-3.242
			c0.405-0.764,0.94-1.151,1.603-1.161c0.661-0.01,1.331,1.555,2.007,4.693c1.37,1.42,2.909,2.117,4.619,2.092l0.539-0.009
			c3.412-0.513,5.096-2.247,5.052-5.203l-0.016-1.079c-0.045-2.994-1.123-5.948-3.235-8.858c-4.651-4.238-7.548-7.356-8.689-9.357
			s-1.582-4.363-1.319-7.085c0.262-2.723,2.36-4.871,6.296-6.446l1.885-0.298l0.404-0.006c0.99-0.015,2.164,0.327,3.524,1.027
			C104.381,16.18,105.574,17.826,105.549,19.485z"/>
	</g>
	<g>
		<path fill="#F14B30" d="M78.487,19.761c0.989-0.015,1.508,1.597,1.556,4.835c0.296,3.557,0.692,15.066,1.188,34.531l0.133-0.138
			l1.351,0.115l5.667-0.084l5.265,0.057c0.906,0.462,1.366,1.086,1.377,1.87c0.021,1.427-0.822,2.249-2.528,2.467
			c-9.895,0.146-14.845-0.095-14.854-0.725l-0.554-0.937l0.064-4.726l-0.194-4.045c-0.185-21.95,0.013-32.931,0.59-32.938
			L78.487,19.761z"/>
	</g>
</g>
</svg>
