<?xml version="1.0" encoding="utf-8"?>
<!-- Generator: Adobe Illustrator 16.0.0, SVG Export Plug-In . SVG Version: 6.00 Build 0)  -->
<!DOCTYPE svg PUBLIC "-//W3C//DTD SVG 1.1//EN" "http://www.w3.org/Graphics/SVG/1.1/DTD/svg11.dtd">
<svg version="1.1" id="Layer_1" xmlns="http://www.w3.org/2000/svg" xmlns:xlink="http://www.w3.org/1999/xlink" x="0px" y="0px"
	 width="83.781px" height="65.766px" viewBox="0 0 83.781 65.766" enable-background="new 0 0 83.781 65.766" xml:space="preserve">
<g>
	<path fill="#FFFFFF" d="M0.859,25.179C2.631,18.26,14.74-4.462,35.486,2.066c4.306-4.312,9.854-1.368,15.711,4.143
		c4.62,4.347,6.8,8.042,8.181,14.281c3.567-1.185,4.075,0.677,6.517,0.997c2.668,0.352,2.429-2.792,4.549-3.549
		c4.745-1.693,10.864,3.31,12.322,7.164c1.427,3.772,1.855,10.754-2.139,13.23c-1.87,1.158-5.229,0.078-6.526,1.387
		c-1.15,1.16-0.986,5.671-1.068,7.2c-0.447,8.289-7.735,21.325-18.326,18.435c-4.844-1.324-5.188-5.096-10.467-4.416
		c-2.05,0.264-4.247,1.272-6.535,0.505c-3.082-1.039-2.935-4.424-5.291-6.21c-6.688-5.067-18.024-3.505-24.894-8.146
		C-3.526,39.627,0.859,25.179,0.859,25.179z"/>
	<g>
		<path fill="#5AB1AF" d="M54.661,29.078c0.335-6.176-6.184-23.563-15.046-20.136c-6.173,2.389,0.984,8.466-1.742,11.384
			c-2.435,2.605-5.262-2.671-7.313-3.842c-7.902-4.516-24.33,20.566-17.733,26.535c4.28,3.877,18.077,5.946,19.929,7.019
			c2.32,1.337,3.347,4.444,5.798,5.443c5.045,2.064,14.354-2.502,17.975-6.505c5.336-5.893,1.965-11.591-2.025-17.165L54.661,29.078
			z"/>
		<path fill="#231F20" d="M41.479,56.643c-0.001,0-0.001,0-0.002,0c-1.193,0-2.261-0.189-3.171-0.563
			c-1.467-0.598-2.442-1.825-3.387-3.013c-0.778-0.981-1.516-1.908-2.488-2.469c-0.511-0.295-2.468-0.776-4.539-1.285
			c-4.963-1.22-12.462-3.063-15.501-5.815c-2.197-1.988-2.32-5.906-0.347-11.032c3.123-8.105,10.81-17.173,16.421-17.173
			c0.875,0,1.688,0.211,2.415,0.626c0.71,0.405,1.44,1.18,2.215,1.999c1.094,1.159,2.331,2.473,3.324,2.473
			c0.339,0,0.658-0.167,0.979-0.509c0.885-0.946,0.371-2.46-0.225-4.213c-0.819-2.417-1.942-5.727,2.206-7.333
			c3.007-1.163,6.055-0.229,8.826,2.697c4.667,4.927,7.323,13.999,7.104,18.079l-0.146,2.506c4.021,5.646,7.396,11.662,1.846,17.792
			C53.914,52.832,46.775,56.643,41.479,56.643z M28.467,16.593c-5.021,0-12.298,8.785-15.209,16.342
			c-1.741,4.522-1.74,8.023,0.006,9.603c2.796,2.533,10.104,4.329,14.938,5.518c2.766,0.68,4.239,1.051,4.879,1.421
			c1.188,0.684,2.035,1.752,2.856,2.785c0.878,1.105,1.708,2.149,2.859,2.619c0.755,0.31,1.656,0.465,2.681,0.467
			c0.001,0,0.001,0,0.002,0c4.956,0,11.653-3.587,14.565-6.806c4.977-5.493,2.005-10.655-2.071-16.352l-0.134-0.188l0.173-2.961
			c0.203-3.76-2.384-12.505-6.748-17.114c-2.401-2.535-4.903-3.349-7.415-2.379c-2.846,1.102-2.402,2.886-1.445,5.705
			c0.668,1.969,1.358,4.002-0.057,5.518c-0.57,0.609-1.22,0.92-1.927,0.92c-1.554,0-2.935-1.463-4.271-2.879
			c-0.705-0.747-1.371-1.453-1.913-1.763C29.709,16.746,29.113,16.593,28.467,16.593z"/>
	</g>
	<path fill="#468885" d="M17.509,15.813c6.744-3.433,10.319,1.392,12.124,6.12c2.164,5.66,9.344,7.813,11.118,3.73
		c4.661-10.729,13.507,5.665,1.146,16.335c-9.565,8.253-15.604-1.43-17.789-2.144C11.918,35.865,10.331,19.463,17.509,15.813z"/>
	<path fill="#7CCDCD" d="M53.081,34.685c0,0-7.596,14.416-14.831,13.986c-7.231-0.424-1.188,3.839,1.781,5.533
		c2.974,1.69,20.617-4.118,15.782-16.388C55.546,37.137,53.081,34.685,53.081,34.685z"/>
	<g>
		<path fill="#231F20" d="M57.945,59.677c-3.53,0-6.988-1.919-9.291-5.372c-0.199-0.299-0.118-0.702,0.18-0.9
			c0.303-0.199,0.702-0.118,0.9,0.18c2.764,4.145,7.358,5.813,11.434,4.16c4.665-1.894,8.808-8.369,6.999-20.897
			c-0.797-0.142-1.539-0.432-2.193-0.87c-4.776-3.2-5.84-6.192-5.24-7.927c0.371-1.07,1.351-1.683,2.542-1.592
			c2.023,0.151,4.768,2.377,5.839,8.153c0.064,0.35,0.125,0.696,0.182,1.038c1.04,0.019,2.245-0.286,3.401-0.876
			c2.538-1.295,4.232-3.637,4.316-5.966c0.093-2.534-1.629-4.946-4.977-6.975c-0.307-0.186-0.405-0.585-0.22-0.892
			c0.186-0.305,0.586-0.405,0.892-0.219c4.771,2.889,5.68,6.017,5.603,8.131c-0.103,2.792-2.073,5.569-5.023,7.076
			c-1.272,0.649-2.572,0.988-3.796,1.016c1.806,13.085-2.748,19.937-7.835,22.002C60.442,59.439,59.189,59.677,57.945,59.677z
			 M63.048,27.747c-0.533,0-0.927,0.26-1.088,0.727c-0.339,0.98,0.277,3.438,4.735,6.424c0.38,0.254,0.801,0.443,1.252,0.568
			c-0.035-0.205-0.072-0.411-0.111-0.619c-1.001-5.401-3.398-7.002-4.657-7.096C63.134,27.749,63.091,27.747,63.048,27.747z"/>
	</g>
	<g>
		<path fill="#5AB1AF" d="M24.092,23.915c1.375-3.624,13.24-9.884,12.109-14.355c-2.39-9.463-14.968-1.831-21.872,2.857
			C5.695,18.279,0.192,40.51,17.781,45.713c1.765,0.521-1.27-8.771,5.092-7.37C26.6,38.967,19.455,36.137,24.092,23.915z"/>
		<path fill="#231F20" d="M17.916,46.383c-0.104,0-0.211-0.016-0.317-0.048C9.136,43.833,6.509,37.844,5.795,33.26
			c-1.333-8.565,3.147-17.971,8.17-21.381c4.729-3.212,11.608-7.482,16.719-7.482c3.194,0,5.32,1.729,6.146,5.003
			c0.775,3.063-3.219,6.402-7.081,9.633c-2.24,1.873-4.556,3.81-5.051,5.112c-2.829,7.458-1.134,11.279-0.41,12.913
			c0.297,0.669,0.511,1.152,0.219,1.603c-0.178,0.273-0.483,0.412-0.909,0.412l0,0c-0.205,0-0.461-0.028-0.831-0.09
			c-0.421-0.092-0.78-0.135-1.101-0.135c-2.188,0-2.438,2.063-2.54,4.763C19.07,45.099,19.021,46.383,17.916,46.383z M30.683,5.695
			c-5.302,0-13.347,5.464-15.989,7.259C10,16.141,5.82,24.981,7.078,33.061c0.648,4.168,3.026,9.604,10.643,11.955
			c0.065-0.335,0.091-0.967,0.107-1.454c0.085-2.249,0.228-6.014,3.838-6.014c0.413,0,0.866,0.055,1.348,0.16
			c0.053,0.009,0.104,0.018,0.153,0.024c-0.021-0.05-0.045-0.102-0.065-0.148c-0.788-1.777-2.636-5.942,0.385-13.899
			c0.614-1.62,2.847-3.486,5.431-5.647c3.223-2.694,7.23-6.046,6.656-8.319C34.889,7.01,33.289,5.695,30.683,5.695z"/>
	</g>
	<path fill="#5AB1AF" d="M24.695,40.183c0,0-6.854,1.927-1.42,2.695c3.053,0.435-0.806,3.349-1.754,3.359
		c-1.508,0.018-5.682-2.037-5.682-2.037s2.246-9.402,7.156-6.614C23.593,39.216,24.695,40.183,24.695,40.183z"/>
	<path fill="#7CCDCD" d="M28.678,15.164c0,0-8.108,5.027-8.692,12.744c-0.325,4.27-3.311,4.783-4.12,2.184
		c-0.811-2.597,4.052-17.036,9.852-20.264c4.198-2.337,5.62-1.27,6.728,0.654C33.637,12.563,30.736,14.118,28.678,15.164z"/>
	<g>
		<g>
			<defs>
				<path id="SVGID_1_" d="M23.641,24.207c1.291-3.398,12.434-9.269,11.371-13.466c-2.246-8.876-14.059-1.719-20.543,2.677
					c-8.107,5.499-13.271,26.352,3.247,31.234c1.658,0.489-1.192-8.229,4.78-6.912C25.999,38.326,19.289,35.671,23.641,24.207z"/>
			</defs>
			<clipPath id="SVGID_2_">
				<use xlink:href="#SVGID_1_"  overflow="visible"/>
			</clipPath>
			<g clip-path="url(#SVGID_2_)">
				<path fill="#FFFFFF" d="M15.027,11.874c-2.403,0.536-6.707,2.61-4.836,4.258c0.622,0.573,1.768,1.456,1.934,2.319
					c0.224,1.065-1.588,1.421-2.619,2.189c-1.818,1.366-1.813,1.441-0.523,2.239c0.556,0.31,1.978,1.532,1.846,2.321
					c-0.113,0.681-1.673,1.627-2.194,2.181c-1.002,1.006-1.703,1.321-0.383,2.228c0.906,0.646,2.002,1.196,1.182,2.209
					c-0.515,0.645-1.237,0.967-1.799,1.368c-0.313,0.136,1.364,1.81,1.799,2.474c0.54,0.605,1.21,0.914,0.729-0.513
					c-0.485-1.362-1.247-1.202-0.135-2.096c0.471-0.389,1.563-1.176,1.423-2.106c-0.118-0.999-2.095-2.254-1.747-2.509
					c1.346-1.124,3.649-2.208,2.344-4.352c-0.509-0.789-1.337-1.646-0.963-2.053c0.565-0.637,1.905-1.239,2.663-1.639
					c1.32-0.725,1.876-0.692,1.342-2.373c-0.302-0.922-1.041-1.61-1.512-2.478c-0.841-1.52,1.763-1.712,3.313-1.705
					c0.719-0.048,2.447-0.603,0.526-1.808C16.743,11.646,15.674,11.612,15.027,11.874z"/>
				<path fill="#FFFFFF" d="M16.722,15.649c0.293-0.813,2.1-0.252,2.119,0.972c0.094,1.351-2.116,0.443-2.153-0.864
					C16.698,15.722,16.71,15.686,16.722,15.649z"/>
				<path fill="#FFFFFF" d="M13.637,23.429c-0.509-1.438,1.677-1.514,1.726-0.326C15.414,24.122,14.104,24.226,13.637,23.429z"/>
				<path fill="#FFFFFF" d="M11.899,28.667c0.352-1.205,1.854-0.479,1.479,0.666C13.067,30.363,11.663,29.826,11.899,28.667z"/>
				<path fill="#FFFFFF" d="M10.906,34.108c0.177-0.969,1.17-0.518,1.061,0.438C11.853,35.708,10.846,35.104,10.906,34.108z"/>
				<path fill="#FFFFFF" d="M6.675,30.368c0.699-0.957,1.805,0.383,1.154,0.961C7.211,31.846,6.175,31.158,6.675,30.368z"/>
				<path fill="#FFFFFF" d="M7.089,24.725c0.946-0.801,1.538,0.229,1.044,0.735C6.833,26.604,6.47,25.28,7.089,24.725z"/>
				<path fill="#FFFFFF" d="M8.075,18.867c-0.721-0.49,0.908-1.745,1.518-1.214C10.374,18.318,8.296,19.056,8.075,18.867z"/>
			</g>
		</g>
	</g>
</g>
</svg>
