<?xml version="1.0" encoding="utf-8"?>
<!-- Generator: Adobe Illustrator 16.0.0, SVG Export Plug-In . SVG Version: 6.00 Build 0)  -->
<!DOCTYPE svg PUBLIC "-//W3C//DTD SVG 1.1//EN" "http://www.w3.org/Graphics/SVG/1.1/DTD/svg11.dtd">
<svg version="1.1" id="Layer_1" xmlns="http://www.w3.org/2000/svg" xmlns:xlink="http://www.w3.org/1999/xlink" x="0px" y="0px"
	 width="177.22px" height="97.578px" viewBox="0 0 177.22 97.578" enable-background="new 0 0 177.22 97.578" xml:space="preserve">
<path fill="#998282" d="M6.068,96.208c2.869,0.714,5.512,1.422,7.856,2.104c0.613,0.178,1.241,0.266,1.865,0.266
	c1.496,0,2.97-0.503,4.168-1.459c1.697-1.354,2.631-3.449,2.503-5.617c-0.047-0.795-0.087-1.694-0.12-2.695
	c1.848-0.417,2.847-0.595,3.343-0.67c0.565,2.898,0.939,4.059,1.26,4.847c0.792,1.955,2.462,3.421,4.503,3.955
	c0.558,0.146,1.125,0.217,1.689,0.217c1.5,0,2.976-0.506,4.174-1.464c2.148-1.718,3.903-3.188,5.24-4.156
	c1.783,0.946,3.768,1.349,5.869,1.349c0.011,0,0.021,0,0.032,0c0.371,0,0.742,0.088,1.108,0.027c2.62-0.44,4.57-0.983,6.1-1.827
	c2.045-1.018,4.098-2.389,6.104-4.136c0.037-0.032,0.074-0.05,0.11-0.082c0.51-0.464,0.979-0.917,1.431-1.374
	c1.552,0.537,2.205,0.813,2.449,0.921c1.538,0.674,2.893,1.302,4.025,1.863c0.936,0.463,1.95,0.695,2.964,0.695
	c0.362,0,0.725-0.029,1.083-0.089c1.023,0.856,2.295,1.399,3.659,1.528c0.21,0.02,0.419,0.029,0.628,0.029
	c1.945,0,3.808-0.851,5.083-2.347l1.215-1.425c0.021,0,0.043,0.005,0.064,0.005c0.989,0,1.981-0.22,2.901-0.663
	c2.235-1.077,4.117-2.015,5.692-2.834c0.599,1.2,1.153,2.359,1.663,3.477c0.864,1.892,2.56,3.273,4.586,3.738
	c0.495,0.113,0.995,0.169,1.493,0.169c1.541,0,3.053-0.534,4.263-1.536c1.126-0.933,2.216-1.614,3.238-2.025
	c1.143-0.459,2.097-1.222,2.813-2.161c1.241,1.335,2.992,2.146,4.881,2.146c0.168,0,0.338-0.007,0.509-0.02
	c1.351-0.103,2.323-0.566,3.265-1.015c0.177-0.084,0.351-0.177,0.52-0.276c2.301-1.357,3.785-2.105,4.709-2.52
	c0.055,0.001,0.109,0.012,0.164,0.012c0.989,0,1.981-0.22,2.901-0.663c2.236-1.078,4.118-2.015,5.692-2.834
	c0.599,1.2,1.153,2.359,1.663,3.477c0.864,1.892,2.56,3.273,4.586,3.738c0.495,0.113,0.995,0.169,1.493,0.169
	c1.541,0,3.053-0.534,4.263-1.536c1.003-0.831,1.976-1.451,2.901-1.87c1.082,0.916,2.232,1.637,3.474,2.107
	c1.939,0.708,3.691,1.052,5.357,1.052c0.336,0,0.662-0.015,0.901-0.035c2.878-0.214,5.824-1.218,8.955-2.86
	c0.886,0.027,1.888-0.025,2.999-0.025c0.042,0,0.083,0,0.124,0c3.099,0,5.799-2.038,6.506-5.065c0.739-3.162,1.13-7.99,1.23-15.299
	c0.029-2.09-0.922-4.047-2.567-5.333c0.446-1.702,0.782-2.714,1.018-3.327c0.87-2.266,0.443-4.818-1.114-6.679
	c-1.283-1.533-3.167-2.391-5.124-2.391c-0.418,0-0.84,0.041-1.26,0.122l-2.905,0.558c-0.166,0.031-0.33,0.071-0.493,0.114
	c-3.979,1.082-6.774,2.059-8.747,3.056c-1.118,0.47-2.214,1.061-3.297,1.765l0.003-0.135c0.073-1.895,0.188-3.552,0.343-4.925
	c0.288-2.563-0.924-5.062-3.113-6.423c-1.081-0.672-2.304-1.007-3.527-1.007c-1.256,0-2.511,0.354-3.61,1.06
	c-0.764,0.49-1.592,0.986-2.45,1.484c3.133-2.686,5.926-5.936,8.339-9.726c0.142-0.222,0.27-0.452,0.384-0.689
	c0.804-1.67,1.327-2.781,1.622-3.76c1.041-2.813,1.568-5.651,1.568-8.444c0-1.28-0.304-2.669-1.078-4.942
	c-0.949-2.803-2.814-5.273-5.578-7.369c-3.261-2.439-7.251-3.677-11.861-3.677c-0.181,0-0.362,0.008-0.542,0.022
	c-5.076,0.413-9.261,1.438-12.777,3.133c-2.869,1.088-5.544,2.407-7.954,3.924c-0.864,0.544-1.569,1.268-2.092,2.098
	c-1.12-0.482-2.286-0.826-3.499-1.01c-0.175-0.026-0.351-0.047-0.527-0.059c-0.641-0.046-1.273-0.069-1.881-0.069
	c-2.532,0-4.83,0.404-6.829,1.203c-0.171,0.068-0.339,0.144-0.504,0.226c-3.037,1.513-5.563,3.302-7.53,5.337
	c-0.281,0.293-0.522,0.555-0.759,0.812c0.044-2.52-0.282-4.922-1.086-7.1c-3.436-9.31-14.933-12.823-23.909-8.595
	c-2.53,1.195-12.413,5.852-15.348,7.235c-2.662,1.254-4.99,2.931-6.942,4.91c-0.183-0.438-0.4-0.864-0.679-1.262
	c-1.258-1.797-3.308-2.851-5.474-2.851c-0.229,0-0.459,0.012-0.69,0.036L32.309,11.2c-0.169,0.018-0.338,0.041-0.505,0.071
	c-4.688,0.852-7.978,1.691-10.302,2.63c-3.663,1.174-7.24,3.403-10.925,6.808c-0.144,0.132-0.28,0.271-0.412,0.415
	c-1.248,1.374-2.32,2.879-3.186,4.474c-0.043,0.078-0.084,0.158-0.123,0.238c-1.897,3.856-2.859,7.979-2.859,12.254
	c0,1.077,0.134,2.525,0.422,4.558c0.04,0.285,0.099,0.566,0.175,0.843c0.658,2.383,1.368,3.955,2.354,5.152
	c1.464,2.063,3.148,3.575,5.063,4.564c-0.259,0.165-0.716,0.439-1.491,0.855c-2.354,1.29-4.025,2.196-5.013,2.715
	c-2.233,1.171-3.617,3.5-3.577,6.022c0.101,6.375-0.005,11.866-0.314,16.354c-0.329,5.16-0.533,8.615-0.608,10.271
	C0.863,92.602,2.981,95.44,6.068,96.208z"/>
<g>
	<ellipse fill="#FFFFFF" cx="64.269" cy="48.356" rx="38.822" ry="22.434"/>
	<g>
		<g>
			<path fill="#FFFFFF" d="M14.79,97.578c-0.624,0-1.252-0.087-1.865-0.266c-2.345-0.682-4.987-1.389-7.856-2.104
				c-3.087-0.769-5.205-3.607-5.062-6.785c0.075-1.655,0.279-5.11,0.608-10.27c0.31-4.488,0.415-9.979,0.314-16.354
				c-0.04-2.521,1.344-4.851,3.577-6.022c0.987-0.518,2.658-1.424,5.013-2.714c1.36-0.729,1.763-1.036,1.779-1.049
				c1.217-1.045,2.741-1.595,4.308-1.595c0.476,0,0.955,0.051,1.432,0.154c1.049,0.227,2.007,0.704,2.81,1.371
				c2.919-1.346,6.224-3.02,9.821-4.975c0.994-0.541,2.093-0.811,3.19-0.811c1.066,0,2.132,0.255,3.104,0.765
				c1.975,1.036,3.303,2.989,3.54,5.206c0.506,4.726,1.038,8.868,1.582,12.316c0.901,4.242,1.763,7.847,2.559,10.717
				c0.026,0.097,0.052,0.195,0.074,0.293c0.839,3.659,1.39,5.481,1.703,6.366c0.955,2.685,0.102,5.68-2.124,7.458l-1.303,1.041
				c-0.089,0.071-0.179,0.139-0.271,0.206c-1.355,0.975-3.178,2.376-5.415,4.165c-1.198,0.958-2.674,1.464-4.174,1.464
				c-0.564,0-1.132-0.071-1.689-0.217c-2.041-0.533-3.711-2-4.503-3.955c-0.32-0.788-0.694-1.948-1.26-4.847
				c-0.496,0.076-1.495,0.254-3.343,0.671c0.033,1.001,0.073,1.899,0.12,2.695c0.128,2.168-0.806,4.263-2.503,5.617
				C17.76,97.075,16.286,97.578,14.79,97.578z"/>
			<path fill="#FFFFFF" d="M47.419,92.123c-4.063-0.02-7.706-1.879-10.258-5.237c-0.077-0.102-0.151-0.205-0.223-0.311
				c-1.525-2.264-2.423-4.851-2.667-7.688c-0.213-2.713,0.125-5.525,1.003-8.407c0.031-0.101,0.064-0.202,0.1-0.301
				c0.708-1.981,1.413-3.575,2.149-4.856c0.436-0.853,1.094-1.792,2.219-3.191c1.601-1.969,3.706-3.751,6.277-5.323
				c0.157-0.096,0.318-0.186,0.483-0.268c2.171-1.092,4.783-1.667,7.766-1.709c0.032,0,0.063-0.001,0.096-0.001
				c0.144,0,0.287,0.005,0.431,0.014c2.58,0.167,5.013,1.071,7.229,2.689c0.222,0.161,0.433,0.336,0.632,0.523
				c2.259,2.118,3.899,4.776,4.876,7.9c0.031,0.101,0.061,0.203,0.087,0.305c0.474,1.81,0.695,3.668,0.659,5.527
				c0.001,1.88-0.42,3.834-1.285,5.967c-1.05,2.677-3.052,5.335-6.118,8.125c-0.036,0.033-0.073,0.065-0.11,0.097
				c-2.007,1.748-4.061,3.148-6.104,4.167c-1.529,0.843-3.479,1.445-6.1,1.885c-0.366,0.062-0.737,0.093-1.108,0.093
				C47.44,92.124,47.43,92.124,47.419,92.123z"/>
			<path fill="#FFFFFF" d="M77.113,89.44c-0.209,0-0.418-0.01-0.628-0.03c-1.364-0.128-2.636-0.671-3.659-1.526
				c-0.358,0.059-0.721,0.088-1.083,0.088c-1.014,0-2.028-0.23-2.964-0.693c-1.133-0.561-2.487-1.187-4.025-1.862
				c-0.282-0.125-1.104-0.465-3.227-1.183c-2.851-0.963-4.706-3.713-4.531-6.718c0.073-1.264,0.127-3.253,0.161-5.914
				c0.022-1.907,0.021-4.808-0.006-8.614c-0.009-0.715-0.033-2.379-0.072-4.949c-0.026-1.771,0.651-3.481,1.885-4.753
				c1.727-1.781,3.941-3.358,6.583-4.687c2.214-1.155,4.047-1.794,5.742-1.999c0.716-0.104,1.436-0.156,2.141-0.156
				c2.021,0,3.975,0.423,5.81,1.258c3.681,1.701,5.384,4.254,6.17,6.1c0.079,0.186,0.149,0.375,0.212,0.567
				c1.361,4.216,0.583,8.821-2.313,13.687c-0.129,0.217-0.271,0.426-0.423,0.627c-0.014,0.017-0.026,0.034-0.039,0.051
				c1.048,1.487,2.268,3.046,3.636,4.645c2.138,2.498,2.141,6.18,0.007,8.681l-4.292,5.032C80.921,88.59,79.059,89.44,77.113,89.44z
				"/>
			<path fill="#FFFFFF" d="M99.812,89.56c-0.498,0-0.998-0.056-1.493-0.169c-2.026-0.465-3.722-1.847-4.586-3.738
				c-0.51-1.118-1.064-2.277-1.663-3.477c-1.575,0.82-3.457,1.757-5.692,2.834c-0.92,0.443-1.912,0.663-2.901,0.663
				c-1.271,0-2.538-0.363-3.64-1.079c-1.958-1.272-3.11-3.474-3.04-5.808c0.117-3.832,0.131-7.233,0.042-10.11
				c-0.104-2.884-0.177-7.529-0.218-14.164c-0.015-2.405,1.265-4.633,3.351-5.833l6.662-3.833c1.022-0.589,2.173-0.891,3.332-0.891
				c0.605,0,1.213,0.083,1.806,0.249c1.334,0.375,2.51,1.152,3.373,2.211c2.628-1.322,4.977-2.644,6.983-3.933
				c1.1-0.706,2.354-1.059,3.61-1.059c1.223,0,2.445,0.335,3.525,1.006c2.189,1.36,3.402,3.858,3.115,6.42
				c-0.153,1.375-0.269,3.034-0.343,4.93l-0.534,26.154c-0.055,2.679-1.703,5.065-4.188,6.064c-1.022,0.411-2.112,1.092-3.238,2.024
				C102.864,89.026,101.353,89.56,99.812,89.56z"/>
			<path fill="#FFFFFF" d="M115.006,85.983c-2.854,0-5.419-1.823-6.335-4.564c-0.839-2.51-1.681-5.644-2.571-9.576
				c-2.49-9.641-2.647-10.635-2.731-11.17c-0.115-0.731-0.107-1.461,0.013-2.165c-0.889-1.199-1.68-2.87-1.974-5.158
				c-0.012-0.093-0.021-0.186-0.03-0.279c-0.423-4.919,1.903-9.166,6.384-11.65c0.147-0.083,0.299-0.159,0.453-0.229
				c1.6-0.735,3.334-1.221,5.153-1.445c0.271-0.033,0.544-0.05,0.817-0.05c0.063,0,0.128,0.001,0.191,0.003
				c2.982,0.085,5.329,0.807,7.174,2.204c0.027,0.021,0.054,0.041,0.081,0.062c1.179,0.921,2.132,2.059,2.835,3.383
				c0.022,0.043,0.045,0.086,0.067,0.13c0.563,1.121,0.948,2.413,1.176,3.951c0.062,0.418,0.084,0.841,0.066,1.264
				c-0.021,0.489-0.077,1.029-0.188,1.606c0.69,0.963,1.12,2.104,1.226,3.313c0.635,7.28,1.229,13.852,1.769,19.532
				c0.277,2.924-1.387,5.686-4.102,6.807c-0.854,0.353-2.446,1.112-5.182,2.725c-0.169,0.1-0.343,0.192-0.52,0.276
				c-0.941,0.449-1.914,0.912-3.265,1.015C115.344,85.977,115.174,85.983,115.006,85.983z"/>
			<path fill="#FFFFFF" d="M140.508,86.051c-0.498,0-0.998-0.056-1.493-0.169c-2.026-0.465-3.722-1.847-4.586-3.738
				c-0.51-1.118-1.064-2.277-1.663-3.477c-1.574,0.819-3.456,1.756-5.692,2.834c-0.92,0.443-1.912,0.663-2.901,0.663
				c-1.271,0-2.539-0.363-3.641-1.079c-1.958-1.272-3.11-3.475-3.039-5.809c0.117-3.811,0.132-7.212,0.043-10.11
				c-0.105-2.87-0.178-7.516-0.219-14.162c-0.015-2.405,1.265-4.633,3.35-5.833l6.663-3.834c1.023-0.589,2.174-0.891,3.333-0.891
				c0.605,0,1.213,0.083,1.807,0.249c1.334,0.375,2.509,1.152,3.373,2.211c2.628-1.322,4.976-2.644,6.981-3.932
				c1.1-0.706,2.354-1.059,3.61-1.059c1.224,0,2.446,0.335,3.527,1.007c2.189,1.361,3.401,3.861,3.113,6.423
				c-0.154,1.374-0.27,3.03-0.343,4.925l-0.534,26.156c-0.055,2.678-1.702,5.064-4.188,6.064c-1.024,0.412-2.113,1.093-3.239,2.025
				C143.561,85.518,142.049,86.051,140.508,86.051z"/>
			<path fill="#FFFFFF" d="M156.503,85.804c-1.666,0-3.418-0.344-5.357-1.052c-1.964-0.745-3.724-2.05-5.3-3.908
				c-1.249-1.297-1.972-2.927-2.563-4.521c-0.1-0.269-0.183-0.544-0.246-0.824c-0.412-1.788-0.633-3.019-0.716-3.991
				c-0.327-3.784,0.211-7.516,1.599-11.087c0.033-0.085,0.068-0.17,0.105-0.254c0.652-1.492,1.494-2.919,2.502-4.242
				c0.118-0.156,0.244-0.306,0.376-0.451c2.979-3.268,5.966-5.506,9.122-6.833c1.973-0.998,4.769-1.973,8.747-3.055
				c0.163-0.044,0.327-0.083,0.493-0.114l2.905-0.558c0.42-0.081,0.842-0.12,1.26-0.12c1.957,0,3.841,0.861,5.124,2.394
				c1.558,1.861,1.984,4.419,1.114,6.685c-0.235,0.613-0.571,1.638-1.018,3.34c1.646,1.286,2.597,3.268,2.567,5.357
				c-0.101,7.31-0.491,12.187-1.23,15.349c-0.707,3.028-3.407,5.162-6.506,5.162c-0.041,0-0.082,0-0.124-0.001
				c-1.111-0.021-2.113-0.044-2.999-0.072c-3.131,1.642-6.077,2.549-8.955,2.763C157.165,85.79,156.839,85.804,156.503,85.804z"/>
		</g>
		<g>
			<path fill="#FFFFFF" d="M32.859,52.84c0.532,4.968,1.085,9.242,1.653,12.821c0.947,4.467,1.845,8.229,2.692,11.286
				c0.733,3.2,1.373,5.57,1.921,7.111L37.823,85.1c-1.456,1.047-3.353,2.505-5.688,4.372c-0.322-0.795-0.744-2.673-1.267-5.634
				s-1.333-6.36-2.43-10.196c-0.378-2.021-0.638-3.238-0.779-3.656c0.056-0.005,0.081-0.036,0.076-0.091l-0.083,0.008
				c-0.894,2.848-1.563,5.289-2.005,7.324c-0.262,0.557-0.51,1.612-0.74,3.165l-0.389,0.033c-0.893,0.077-2.446,0.365-4.66,0.865
				c-0.178-0.266-0.83-1.553-1.958-3.86c-1.789-3.221-2.839-5.201-3.148-5.941l-0.084,0.008c0.036,0.419,0.002,1.198-0.104,2.34
				l0.072-0.007c0.004,0.05-0.019,0.076-0.066,0.081c-0.072,7.649,0.002,13.311,0.219,16.984c-2.466-0.717-5.169-1.439-8.107-2.171
				c0.072-1.604,0.272-4.985,0.602-10.146c0.322-4.67,0.431-10.298,0.327-16.885c1.009-0.529,2.715-1.454,5.119-2.771
				c1.378-0.738,2.335-1.338,2.872-1.799c1.82,3.907,3.594,7.352,5.321,10.332c0.342-2.062,0.657-3.798,0.942-5.208l0.774-4.233
				C25.732,56.588,29.137,54.863,32.859,52.84z"/>
			<path fill="#FFFFFF" d="M54.364,61.514c1.301,0.084,2.541,0.558,3.72,1.418c1.415,1.327,2.438,3,3.069,5.021
				c0.325,1.244,0.473,2.505,0.441,3.78c0.011,1.02-0.26,2.202-0.811,3.551c-0.655,1.694-2.126,3.579-4.407,5.654
				c-1.642,1.429-3.256,2.526-4.842,3.297c-0.823,0.485-2.185,0.887-4.084,1.206c-2.005-0.01-3.661-0.876-4.971-2.599
				c-0.887-1.316-1.404-2.825-1.551-4.527c-0.145-1.837,0.102-3.8,0.737-5.887c0.606-1.697,1.191-3.017,1.759-3.959
				c0.145-0.352,0.652-1.065,1.522-2.146c1.106-1.361,2.625-2.631,4.556-3.811C50.771,61.875,52.391,61.542,54.364,61.514z
				 M47.133,76.608c0.023,1.573,0.918,2.287,2.685,2.142c1.788-0.624,3.078-1.481,3.871-2.569c1.331-1.845,1.933-3.524,1.802-5.038
				c-0.359-1.299-0.988-1.99-1.888-2.075c-2.137,0.424-3.947,1.854-5.432,4.288C47.53,74.578,47.185,75.663,47.133,76.608z"/>
			<path fill="#FFFFFF" d="M72.161,53.228c1.534-0.238,2.971-0.052,4.31,0.558c1.384,0.64,2.314,1.52,2.791,2.638
				c0.749,2.32,0.183,5.06-1.696,8.216c-1.029,1.354-2.014,2.551-2.95,3.588l0.863,1.455c1.558,2.565,3.533,5.247,5.926,8.043
				l-4.292,5.032l-5.841-10.244c0.208,3.146,0.353,5.143,0.433,5.99c0.079,0.848,0.094,1.776,0.039,2.786
				c-1.233-0.61-2.669-1.274-4.306-1.992c-0.739-0.328-1.996-0.794-3.771-1.394c0.079-1.363,0.137-3.436,0.172-6.217
				c0.022-1.929,0.021-4.843-0.005-8.743c-0.01-0.759-0.034-2.428-0.073-5.005c1.22-1.258,2.831-2.389,4.833-3.391
				C70.101,53.758,71.29,53.317,72.161,53.228z M70.4,61.682c0.033,0.952,0.069,1.648,0.106,2.089l0.202,1.85l0.682-0.533
				c1.582-1.479,2.33-2.708,2.246-3.685c-0.069-0.803-0.436-1.135-1.099-0.992C72.077,60.45,71.365,60.874,70.4,61.682z"/>
			<path fill="#FFFFFF" d="M105.737,48.107c-0.175,1.563-0.302,3.388-0.382,5.477l-0.535,26.215
				c-1.672,0.672-3.342,1.698-5.009,3.079c-2.313-5.066-5.427-10.831-9.339-17.295l0.146,5.009l0.225,4.664
				c-1.787,0.984-4.242,2.229-7.368,3.735c0.121-3.976,0.136-7.482,0.042-10.52c-0.104-2.838-0.175-7.505-0.215-13.999l6.662-3.833
				c1.652,3.014,3.469,6.093,5.448,9.233c0.744,1.055,1.427,2.028,2.045,2.926c0.159-2.792,0.267-6.202,0.32-10.229
				C100.766,51.082,103.419,49.595,105.737,48.107z"/>
			<path fill="#FFFFFF" d="M114.185,46.377c1.53,0.044,2.641,0.328,3.332,0.852c0.438,0.342,0.786,0.759,1.047,1.25
				c0.237,0.472,0.415,1.114,0.535,1.926c-0.054,1.257-0.638,2.387-1.754,3.39c-1.384,1.152-3.017,1.884-4.896,2.194
				c-1.049,0.139-2.145-0.202-3.284-1.025c-0.604-0.481-0.98-1.304-1.13-2.466c-0.196-2.282,0.791-4.027,2.967-5.234
				C111.982,46.813,113.043,46.518,114.185,46.377z M120.156,56.189c0.637,7.301,1.228,13.827,1.773,19.582
				c-1.549,0.64-3.557,1.689-6.025,3.146c-0.521,0.248-0.818,0.378-0.896,0.384c-0.768-2.297-1.572-5.308-2.414-9.031
				c-1.626-6.294-2.5-9.841-2.626-10.639c0.788-0.482,2.674-1.112,5.66-1.891C116.936,57.163,118.445,56.646,120.156,56.189z"/>
			<path fill="#FFFFFF" d="M146.434,44.598c-0.176,1.563-0.303,3.388-0.382,5.477l-0.535,26.215
				c-1.671,0.672-3.342,1.698-5.009,3.079c-2.313-5.066-5.427-10.831-9.338-17.295l0.146,5.009l0.223,4.664
				c-1.786,0.984-4.241,2.229-7.367,3.735c0.122-3.976,0.136-7.482,0.043-10.52c-0.104-2.838-0.176-7.505-0.216-13.999l6.663-3.834
				c1.651,3.015,3.468,6.094,5.447,9.234c0.745,1.055,1.427,2.028,2.045,2.926c0.16-2.792,0.267-6.201,0.321-10.229
				C141.462,47.573,144.115,46.086,146.434,44.598z"/>
			<path fill="#FFFFFF" d="M169.431,51.476c-0.718,1.869-1.539,4.943-2.464,9.22l-0.461,0.04c-1.473,0.127-3.261,0.721-5.363,1.782
				c-1.543,0.688-2.789,1.854-3.737,3.496c-0.551,1.291-0.808,2.506-0.773,3.644c0.12,1.388,0.976,2.015,2.567,1.877
				c1.569-0.479,2.337-0.909,2.305-1.285c0.026-2.056,0.025-3.247-0.003-3.575l-0.079-0.922c-0.014-0.154,0.865-0.489,2.635-1.008
				c3.235-1.208,5.396-1.964,6.48-2.268c-0.092,6.667-0.445,11.308-1.056,13.92c-2.016-0.037-3.599-0.085-4.749-0.14
				c-2.875,1.725-5.482,2.674-7.823,2.848c-0.943,0.081-2.1-0.129-3.472-0.63c-0.888-0.337-1.78-1.063-2.678-2.173
				c-0.34-0.273-0.743-1.04-1.211-2.302c-0.325-1.413-0.516-2.434-0.569-3.062c-0.24-2.778,0.15-5.477,1.169-8.097
				c0.44-1.008,1.005-1.964,1.693-2.867c2.364-2.594,4.695-4.349,6.993-5.265c1.499-0.798,4.063-1.69,7.69-2.677L169.431,51.476z"/>
		</g>
	</g>
	<path fill="#FFFFFF" d="M69.24,52.948c8.547-4.028,23.869-28.17,18.548-42.579c-3.436-9.31-14.933-12.823-23.909-8.595
		c-2.53,1.195-12.413,5.852-15.348,7.235C36.397,14.726,31.197,29.2,36.914,41.333C42.634,53.466,57.105,58.666,69.24,52.948z"/>
	<g>
		<g>
			<path fill="#FFFFFF" d="M18.008,54.072c-2.032,0-4.255-0.558-6.719-1.706c-2.034-0.981-3.806-2.559-5.342-4.725
				c-0.985-1.196-1.695-2.769-2.354-5.151c-0.076-0.277-0.135-0.559-0.175-0.843c-0.288-2.032-0.422-3.48-0.422-4.558
				c0-4.274,0.962-8.397,2.859-12.254c0.039-0.081,0.08-0.16,0.123-0.239c0.865-1.594,1.938-3.099,3.186-4.474
				c0.132-0.144,0.269-0.283,0.412-0.415c3.685-3.404,7.262-5.634,10.925-6.807c2.324-0.938,5.614-1.778,10.302-2.629
				c0.167-0.03,0.336-0.055,0.505-0.072l3.438-0.356c0.231-0.024,0.462-0.036,0.69-0.036c2.166,0,4.216,1.053,5.474,2.851
				c1.392,1.988,1.596,4.573,0.534,6.755c-0.389,0.799-0.98,2.2-1.826,4.638c0.178,0.133,0.35,0.275,0.516,0.427
				c1.554,1.424,2.345,3.497,2.135,5.594c-0.833,8.306-1.79,14.031-2.925,17.503c-0.905,2.77-3.485,4.607-6.348,4.607
				c-0.232,0-0.467-0.012-0.702-0.037c-1.445-0.152-2.691-0.291-3.762-0.417c-3.681,1.576-7.063,2.345-10.291,2.345
				C18.241,54.073,18.009,54.072,18.008,54.072z"/>
			<path fill="#FFFFFF" d="M95.454,50.463c-0.203,0-0.405-0.009-0.607-0.028c-4.435-0.405-8.088-2.689-10.564-6.606
				c-0.068-0.107-0.133-0.216-0.194-0.327c-1.453-2.617-2.19-5.534-2.19-8.671c0.022-3.029,0.671-6.13,1.93-9.265
				c0.039-0.098,0.08-0.195,0.124-0.291c1.002-2.19,1.956-3.926,2.91-5.292c0.548-0.882,1.364-1.855,2.771-3.326
				c1.967-2.035,4.493-3.823,7.53-5.337c0.165-0.082,0.333-0.157,0.504-0.226c1.999-0.798,4.297-1.203,6.829-1.203
				c0.607,0,1.24,0.023,1.881,0.069c0.177,0.013,0.353,0.032,0.527,0.059c2.774,0.421,5.323,1.631,7.576,3.597
				c0.205,0.178,0.398,0.369,0.579,0.571c2.287,2.546,3.842,5.634,4.623,9.177c0.023,0.104,0.044,0.208,0.062,0.314
				c0.352,2.057,0.419,4.142,0.201,6.199c-0.175,2.05-0.824,4.152-1.983,6.421c-1.414,2.857-3.906,5.623-7.614,8.451
				c-0.038,0.029-0.077,0.058-0.116,0.086c-2.446,1.784-4.899,3.165-7.295,4.108c-1.749,0.782-3.969,1.26-6.945,1.5
				C95.813,50.456,95.633,50.463,95.454,50.463z"/>
			<path fill="#FFFFFF" d="M119.332,49.739c-1.54,0-3.043-0.533-4.246-1.522c-1.421-1.169-2.296-2.872-2.421-4.708l-0.376-5.538
				c-0.289-3.222-0.612-6.494-0.962-9.729l-1.883-12.672c-0.391-2.622,0.807-5.227,3.051-6.638c2.41-1.517,5.085-2.836,7.954-3.924
				c3.517-1.694,7.701-2.72,12.777-3.133c0.18-0.015,0.361-0.022,0.542-0.022c4.61,0,8.601,1.237,11.861,3.677
				c2.764,2.095,4.629,4.566,5.578,7.369c0.774,2.273,1.078,3.662,1.078,4.942c0,2.792-0.527,5.631-1.568,8.444
				c-0.295,0.979-0.818,2.09-1.622,3.759c-0.114,0.237-0.242,0.468-0.384,0.69c-3.795,5.962-8.523,10.598-14.055,13.78l-2.342,1.349
				c-0.196,0.113-0.398,0.216-0.605,0.309c-4.304,1.926-8.078,3.075-11.538,3.513C119.892,49.721,119.611,49.739,119.332,49.739z"/>
		</g>
		<g>
			<path fill="#FFFFFF" d="M35.436,16.49c-1.023,2.104-2.288,5.599-3.794,10.484h-0.54c-1.727,0-3.867,0.512-6.421,1.534
				c-1.865,0.646-3.433,1.879-4.701,3.695c-0.77,1.449-1.191,2.836-1.265,4.162c0,1.628,0.933,2.442,2.799,2.442
				c1.874-0.4,2.812-0.822,2.812-1.264c0.237-2.39,0.355-3.777,0.355-4.162v-1.08c0-0.181,1.057-0.483,3.168-0.909
				c3.887-1.08,6.478-1.743,7.771-1.988c-0.777,7.751-1.653,13.115-2.627,16.095c-2.341-0.246-4.178-0.459-5.512-0.639
				c-3.52,1.719-6.65,2.562-9.392,2.529c-1.105,0-2.431-0.36-3.978-1.081c-0.999-0.482-1.965-1.416-2.897-2.799
				c-0.368-0.352-0.761-1.285-1.179-2.799c-0.237-1.678-0.355-2.885-0.355-3.622c0-3.257,0.724-6.358,2.173-9.305
				c0.613-1.13,1.366-2.186,2.259-3.168c3.012-2.782,5.9-4.591,8.667-5.426c1.825-0.777,4.898-1.56,9.22-2.345L35.436,16.49z"/>
			<path fill="#FFFFFF" d="M105.901,16.625c1.506,0.229,2.901,0.904,4.187,2.025c1.514,1.686,2.537,3.736,3.069,6.15
				c0.253,1.481,0.299,2.963,0.135,4.444c-0.09,1.187-0.523,2.537-1.302,4.051c-0.933,1.907-2.831,3.953-5.695,6.138
				c-2.055,1.498-4.044,2.615-5.967,3.352c-1.007,0.483-2.632,0.814-4.874,0.995c-2.332-0.213-4.174-1.388-5.524-3.523
				c-0.9-1.621-1.35-3.43-1.35-5.427c0.016-2.152,0.499-4.411,1.448-6.776c0.876-1.915,1.689-3.393,2.443-4.432
				c0.204-0.393,0.867-1.174,1.988-2.345c1.424-1.474,3.318-2.799,5.684-3.978C101.683,16.686,103.602,16.461,105.901,16.625z
				 M95.97,33.468c-0.131,1.833,0.839,2.754,2.91,2.762c2.144-0.548,3.731-1.415,4.763-2.603c1.735-2.013,2.603-3.907,2.603-5.684
				c-0.286-1.547-0.949-2.414-1.988-2.603c-2.529,0.278-4.78,1.76-6.752,4.444C96.637,31.144,96.125,32.372,95.97,33.468z"/>
			<path fill="#FFFFFF" d="M133.769,8.535c3.151,0,5.77,0.782,7.857,2.345c1.652,1.253,2.737,2.64,3.253,4.162
				c0.482,1.416,0.725,2.349,0.725,2.799c0,2.104-0.422,4.244-1.265,6.421c0,0.172-0.422,1.134-1.265,2.885
				c-3.225,5.066-7.141,8.925-11.749,11.576l-2.345,1.351c-3.658,1.637-6.874,2.632-9.648,2.983l-0.381-5.61
				c-0.303-3.38-0.635-6.731-0.994-10.055l-1.903-12.804c2.12-1.334,4.469-2.48,7.047-3.438
				C125.883,9.758,129.439,8.887,133.769,8.535z M126.488,32.388c7.489-4.289,11.123-7.882,10.902-10.779
				c-0.5-1.964-1.731-3.184-3.695-3.658c-3.904-0.131-6.99,0.896-9.257,3.082C124.799,25.223,125.482,29.008,126.488,32.388z"/>
		</g>
	</g>
	<g>
		<g>
			<path fill="#A1EDF2" d="M36.39,16.171c-1.023,2.104-2.288,5.599-3.794,10.484h-0.54c-1.727,0-3.867,0.512-6.421,1.534
				c-1.865,0.646-3.433,1.879-4.701,3.695c-0.77,1.449-1.191,2.836-1.265,4.162c0,1.628,0.933,2.442,2.799,2.442
				c1.874-0.4,2.812-0.822,2.812-1.264c0.237-2.39,0.355-3.777,0.355-4.162v-1.08c0-0.181,1.057-0.483,3.168-0.909
				c3.887-1.08,6.478-1.743,7.771-1.988c-0.777,7.751-1.653,13.115-2.627,16.095c-2.341-0.246-4.178-0.459-5.512-0.639
				c-3.52,1.719-6.65,2.562-9.392,2.529c-1.105,0-2.431-0.36-3.978-1.081c-0.999-0.482-1.965-1.416-2.897-2.799
				c-0.368-0.352-0.761-1.285-1.179-2.799c-0.237-1.678-0.355-2.885-0.355-3.622c0-3.257,0.724-6.358,2.173-9.305
				c0.613-1.13,1.366-2.186,2.259-3.168c3.012-2.782,5.9-4.591,8.667-5.426c1.825-0.777,4.898-1.56,9.22-2.345L36.39,16.171z"/>
			<path fill="#A1EDF2" d="M106.855,16.307c1.506,0.229,2.901,0.904,4.187,2.025c1.514,1.686,2.537,3.736,3.069,6.15
				c0.253,1.481,0.299,2.963,0.135,4.444c-0.09,1.187-0.523,2.537-1.302,4.051c-0.933,1.907-2.831,3.953-5.695,6.138
				c-2.055,1.498-4.044,2.615-5.967,3.352c-1.007,0.483-2.632,0.814-4.874,0.995c-2.332-0.213-4.174-1.388-5.524-3.523
				c-0.9-1.621-1.35-3.43-1.35-5.427c0.016-2.152,0.499-4.411,1.448-6.776c0.876-1.915,1.689-3.393,2.443-4.432
				c0.204-0.393,0.867-1.174,1.988-2.345c1.424-1.474,3.318-2.799,5.684-3.978C102.637,16.368,104.556,16.143,106.855,16.307z
				 M96.924,33.15c-0.131,1.833,0.839,2.754,2.91,2.762c2.144-0.548,3.731-1.415,4.763-2.603c1.735-2.013,2.603-3.907,2.603-5.684
				c-0.286-1.547-0.949-2.414-1.988-2.603c-2.529,0.278-4.78,1.76-6.752,4.444C97.591,30.826,97.079,32.053,96.924,33.15z"/>
			<path fill="#A1EDF2" d="M134.723,8.216c3.151,0,5.77,0.782,7.857,2.345c1.652,1.253,2.737,2.64,3.253,4.162
				c0.482,1.416,0.725,2.349,0.725,2.799c0,2.104-0.422,4.244-1.265,6.421c0,0.172-0.422,1.134-1.265,2.885
				c-3.225,5.066-7.141,8.925-11.749,11.576l-2.345,1.351c-3.658,1.637-6.874,2.632-9.648,2.983l-0.381-5.61
				c-0.303-3.38-0.635-6.731-0.994-10.055l-1.903-12.804c2.12-1.334,4.469-2.48,7.047-3.438
				C126.837,9.44,130.394,8.569,134.723,8.216z M127.442,32.07c7.489-4.289,11.123-7.882,10.902-10.779
				c-0.5-1.964-1.731-3.184-3.695-3.658c-3.904-0.131-6.99,0.896-9.257,3.082C125.753,24.905,126.437,28.69,127.442,32.07z"/>
		</g>
		<g>
			<path fill="#FFFFFF" d="M35.435,15.217c-1.023,2.104-2.287,5.599-3.793,10.484h-0.541c-1.727,0-3.867,0.512-6.42,1.534
				c-1.865,0.646-3.434,1.879-4.701,3.695c-0.77,1.449-1.191,2.836-1.266,4.162c0,1.628,0.934,2.442,2.799,2.442
				c1.875-0.4,2.813-0.822,2.813-1.264c0.236-2.39,0.355-3.777,0.355-4.162v-1.08c0-0.181,1.057-0.483,3.168-0.909
				c3.887-1.08,6.477-1.743,7.77-1.988c-0.777,7.751-1.652,13.115-2.627,16.095c-2.34-0.246-4.178-0.459-5.512-0.639
				c-3.52,1.719-6.65,2.562-9.391,2.529c-1.105,0-2.432-0.36-3.979-1.081c-0.998-0.482-1.965-1.416-2.896-2.799
				c-0.369-0.352-0.762-1.285-1.18-2.799c-0.236-1.678-0.355-2.885-0.355-3.622c0-3.257,0.725-6.358,2.174-9.305
				c0.613-1.13,1.365-2.186,2.258-3.168c3.012-2.782,5.9-4.591,8.668-5.426c1.824-0.777,4.898-1.56,9.219-2.345L35.435,15.217z"/>
			<path fill="#FFFFFF" d="M105.901,15.353c1.506,0.229,2.9,0.904,4.186,2.025c1.514,1.686,2.537,3.736,3.07,6.15
				c0.252,1.481,0.299,2.963,0.135,4.444c-0.09,1.187-0.523,2.537-1.303,4.051c-0.932,1.907-2.83,3.953-5.695,6.138
				c-2.055,1.498-4.043,2.615-5.967,3.352c-1.006,0.483-2.631,0.814-4.873,0.995c-2.332-0.213-4.174-1.388-5.525-3.523
				c-0.9-1.621-1.35-3.43-1.35-5.427c0.016-2.152,0.5-4.411,1.449-6.776c0.875-1.915,1.689-3.393,2.443-4.432
				c0.203-0.393,0.867-1.174,1.988-2.345c1.424-1.474,3.318-2.799,5.684-3.978C101.683,15.413,103.601,15.188,105.901,15.353z
				 M95.97,32.195c-0.131,1.833,0.838,2.754,2.91,2.762c2.143-0.548,3.73-1.415,4.762-2.603c1.736-2.013,2.604-3.907,2.604-5.684
				c-0.287-1.547-0.949-2.414-1.988-2.603c-2.529,0.278-4.781,1.76-6.752,4.444C96.636,29.871,96.124,31.099,95.97,32.195z"/>
			<path fill="#FFFFFF" d="M133.769,7.262c3.15,0,5.77,0.782,7.857,2.345c1.652,1.253,2.736,2.64,3.252,4.162
				c0.482,1.416,0.725,2.349,0.725,2.799c0,2.104-0.422,4.244-1.264,6.421c0,0.172-0.422,1.134-1.266,2.885
				c-3.225,5.066-7.141,8.925-11.748,11.576l-2.346,1.351c-3.658,1.637-6.873,2.632-9.648,2.983l-0.381-5.61
				c-0.303-3.38-0.635-6.731-0.994-10.055l-1.902-12.804c2.119-1.334,4.469-2.48,7.047-3.438
				C125.882,8.485,129.438,7.614,133.769,7.262z M126.487,31.115c7.49-4.289,11.123-7.882,10.902-10.779
				c-0.5-1.964-1.73-3.184-3.695-3.658c-3.904-0.131-6.99,0.896-9.256,3.082C124.798,23.95,125.481,27.735,126.487,31.115z"/>
		</g>
		<g>
			<path fill="#0CD9C7" d="M33.526,13.308c-1.023,2.104-2.289,5.599-3.795,10.484h-0.539c-1.727,0-3.867,0.512-6.422,1.534
				c-1.865,0.646-3.432,1.879-4.701,3.695c-0.77,1.449-1.191,2.836-1.264,4.162c0,1.628,0.932,2.442,2.799,2.442
				c1.873-0.4,2.811-0.822,2.811-1.264c0.238-2.39,0.355-3.777,0.355-4.162v-1.08c0-0.181,1.057-0.483,3.168-0.909
				c3.887-1.08,6.479-1.743,7.771-1.988c-0.777,7.751-1.654,13.115-2.627,16.095c-2.342-0.246-4.178-0.459-5.512-0.639
				c-3.52,1.719-6.65,2.562-9.393,2.529c-1.105,0-2.43-0.36-3.977-1.081c-1-0.482-1.965-1.416-2.898-2.799
				c-0.367-0.352-0.76-1.285-1.178-2.799c-0.238-1.678-0.355-2.885-0.355-3.622c0-3.257,0.723-6.358,2.172-9.305
				c0.613-1.13,1.367-2.186,2.26-3.168c3.012-2.782,5.9-4.591,8.666-5.426c1.826-0.777,4.898-1.56,9.221-2.345L33.526,13.308z"/>
			<path fill="#0CD9C7" d="M103.991,13.443c1.506,0.229,2.902,0.904,4.188,2.025c1.514,1.686,2.537,3.736,3.068,6.15
				c0.254,1.481,0.299,2.963,0.135,4.444c-0.09,1.187-0.523,2.537-1.301,4.051c-0.934,1.907-2.832,3.953-5.695,6.138
				c-2.055,1.498-4.045,2.615-5.967,3.352c-1.008,0.483-2.633,0.814-4.875,0.995c-2.332-0.213-4.174-1.388-5.523-3.523
				c-0.9-1.621-1.35-3.43-1.35-5.427c0.016-2.152,0.498-4.411,1.447-6.776c0.877-1.915,1.689-3.393,2.443-4.432
				c0.205-0.393,0.867-1.174,1.988-2.345c1.424-1.474,3.318-2.799,5.684-3.978C99.772,13.504,101.692,13.279,103.991,13.443z
				 M94.06,30.286c-0.131,1.833,0.84,2.754,2.91,2.762c2.145-0.548,3.732-1.415,4.764-2.603c1.734-2.013,2.602-3.907,2.602-5.684
				c-0.285-1.547-0.949-2.414-1.988-2.603c-2.529,0.278-4.779,1.76-6.752,4.444C94.728,27.962,94.216,29.189,94.06,30.286z"/>
			<path fill="#0CD9C7" d="M131.858,5.353c3.152,0,5.77,0.782,7.857,2.345c1.652,1.253,2.738,2.64,3.254,4.162
				c0.482,1.416,0.725,2.349,0.725,2.799c0,2.104-0.422,4.244-1.266,6.421c0,0.172-0.422,1.134-1.264,2.885
				c-3.225,5.066-7.141,8.925-11.75,11.576l-2.344,1.351c-3.658,1.637-6.875,2.632-9.648,2.983l-0.381-5.61
				c-0.303-3.38-0.635-6.731-0.994-10.055l-1.904-12.804c2.121-1.334,4.469-2.48,7.047-3.438
				C123.974,6.576,127.53,5.705,131.858,5.353z M124.579,29.206c7.488-4.289,11.123-7.882,10.902-10.779
				c-0.5-1.964-1.732-3.184-3.695-3.658c-3.904-0.131-6.99,0.896-9.258,3.082C122.89,22.041,123.573,25.826,124.579,29.206z"/>
		</g>
		<g>
			<linearGradient id="SVGID_2_" gradientUnits="userSpaceOnUse" x1="8.7246" y1="29.7129" x2="144.6484" y2="29.7129">
				<stop  offset="0" style="stop-color:#05B3E8"/>
				<stop  offset="1" style="stop-color:#0CD9C7"/>
			</linearGradient>
			<path fill="url(#SVGID_2_)" d="M34.48,14.262c-1.023,2.104-2.288,5.599-3.794,10.484h-0.54c-1.727,0-3.867,0.512-6.421,1.534
				c-1.865,0.646-3.433,1.879-4.701,3.695c-0.77,1.449-1.191,2.836-1.265,4.162c0,1.628,0.933,2.442,2.799,2.442
				c1.874-0.4,2.812-0.822,2.812-1.264c0.237-2.39,0.355-3.777,0.355-4.162v-1.08c0-0.181,1.057-0.483,3.168-0.909
				c3.887-1.08,6.478-1.743,7.771-1.988c-0.777,7.751-1.653,13.115-2.627,16.095c-2.341-0.246-4.178-0.459-5.512-0.639
				c-3.52,1.719-6.65,2.562-9.392,2.529c-1.105,0-2.431-0.36-3.978-1.081c-0.999-0.482-1.965-1.416-2.897-2.799
				c-0.368-0.352-0.761-1.285-1.179-2.799c-0.237-1.678-0.355-2.885-0.355-3.622c0-3.257,0.724-6.358,2.173-9.305
				c0.613-1.13,1.366-2.186,2.259-3.168c3.012-2.782,5.9-4.591,8.667-5.426c1.825-0.777,4.898-1.56,9.22-2.345L34.48,14.262z"/>
			<linearGradient id="SVGID_4_" gradientUnits="userSpaceOnUse" x1="8.7246" y1="27.9497" x2="144.6484" y2="27.9497">
				<stop  offset="0" style="stop-color:#05B3E8"/>
				<stop  offset="1" style="stop-color:#0CD9C7"/>
			</linearGradient>
			<path fill="url(#SVGID_4_)" d="M104.946,14.398c1.506,0.229,2.901,0.904,4.187,2.025c1.514,1.686,2.537,3.736,3.069,6.15
				c0.253,1.481,0.299,2.963,0.135,4.444c-0.09,1.187-0.523,2.537-1.302,4.051c-0.933,1.907-2.831,3.953-5.695,6.138
				c-2.055,1.498-4.044,2.615-5.967,3.352c-1.007,0.483-2.632,0.814-4.874,0.995c-2.332-0.213-4.174-1.388-5.524-3.523
				c-0.9-1.621-1.35-3.43-1.35-5.427c0.016-2.152,0.499-4.411,1.448-6.776c0.876-1.915,1.689-3.393,2.443-4.432
				c0.204-0.393,0.867-1.174,1.988-2.345c1.424-1.474,3.318-2.799,5.684-3.978C100.728,14.458,102.646,14.234,104.946,14.398z
				 M95.015,31.241c-0.131,1.833,0.839,2.754,2.91,2.762c2.144-0.548,3.731-1.415,4.763-2.603c1.735-2.013,2.603-3.907,2.603-5.684
				c-0.286-1.547-0.949-2.414-1.988-2.603c-2.529,0.278-4.78,1.76-6.752,4.444C95.682,28.917,95.17,30.144,95.015,31.241z"/>
			<linearGradient id="SVGID_5_" gradientUnits="userSpaceOnUse" x1="8.7246" y1="23.5679" x2="144.6484" y2="23.5679">
				<stop  offset="0" style="stop-color:#05B3E8"/>
				<stop  offset="1" style="stop-color:#0CD9C7"/>
			</linearGradient>
			<path fill="url(#SVGID_5_)" d="M132.813,6.307c3.151,0,5.77,0.782,7.857,2.345c1.652,1.253,2.737,2.64,3.253,4.162
				c0.482,1.416,0.725,2.349,0.725,2.799c0,2.104-0.422,4.244-1.265,6.421c0,0.172-0.422,1.134-1.265,2.885
				c-3.225,5.066-7.141,8.925-11.749,11.576l-2.345,1.351c-3.658,1.637-6.874,2.632-9.648,2.983l-0.381-5.61
				c-0.303-3.38-0.635-6.731-0.994-10.055l-1.903-12.804c2.12-1.334,4.469-2.48,7.047-3.438
				C124.928,7.531,128.484,6.66,132.813,6.307z M125.533,30.161c7.489-4.289,11.123-7.882,10.902-10.779
				c-0.5-1.964-1.731-3.184-3.695-3.658c-3.904-0.131-6.99,0.896-9.257,3.082C123.844,22.996,124.527,26.781,125.533,30.161z"/>
		</g>
	</g>
	<g>
		<g>
			<path fill="#A1EDF2" d="M34.927,54.907c0.531,4.968,1.084,9.242,1.652,12.821c0.947,4.467,1.846,8.229,2.693,11.286
				c0.732,3.2,1.373,5.57,1.92,7.111l-1.303,1.041c-1.455,1.047-3.352,2.505-5.688,4.372c-0.322-0.795-0.744-2.673-1.266-5.634
				c-0.523-2.961-1.334-6.36-2.43-10.196c-0.379-2.021-0.639-3.238-0.779-3.656c0.055-0.005,0.08-0.036,0.076-0.091L29.72,71.97
				c-0.893,2.848-1.563,5.289-2.004,7.324c-0.262,0.557-0.51,1.612-0.74,3.165l-0.389,0.033c-0.893,0.077-2.447,0.365-4.66,0.865
				c-0.178-0.266-0.83-1.553-1.959-3.86c-1.789-3.221-2.838-5.201-3.148-5.941l-0.084,0.008c0.037,0.419,0.002,1.198-0.104,2.34
				l0.072-0.007c0.004,0.05-0.018,0.076-0.066,0.081c-0.072,7.649,0.002,13.311,0.219,16.984c-2.465-0.717-5.168-1.439-8.107-2.171
				c0.072-1.604,0.273-4.985,0.602-10.146c0.322-4.67,0.432-10.298,0.328-16.885c1.008-0.529,2.715-1.454,5.119-2.771
				c1.377-0.738,2.334-1.338,2.871-1.799c1.82,3.907,3.594,7.352,5.322,10.332c0.342-2.062,0.656-3.798,0.941-5.208l0.775-4.233
				C27.8,58.655,31.204,56.93,34.927,54.907z"/>
			<path fill="#A1EDF2" d="M56.431,63.581c1.301,0.084,2.541,0.558,3.721,1.418c1.414,1.327,2.438,3,3.068,5.021
				c0.326,1.244,0.473,2.505,0.441,3.78c0.012,1.02-0.26,2.202-0.811,3.551c-0.654,1.694-2.125,3.579-4.406,5.654
				c-1.643,1.429-3.256,2.526-4.842,3.297c-0.824,0.485-2.186,0.887-4.084,1.206c-2.006-0.01-3.662-0.876-4.971-2.599
				c-0.887-1.316-1.404-2.825-1.551-4.527c-0.145-1.837,0.102-3.8,0.736-5.887c0.607-1.697,1.191-3.017,1.76-3.959
				c0.145-0.352,0.652-1.065,1.521-2.146c1.107-1.361,2.625-2.631,4.557-3.811C52.837,63.942,54.458,63.609,56.431,63.581z
				 M49.2,78.675c0.023,1.573,0.918,2.287,2.684,2.142c1.789-0.624,3.078-1.481,3.871-2.569c1.332-1.845,1.934-3.524,1.803-5.038
				c-0.359-1.299-0.988-1.99-1.889-2.075c-2.137,0.424-3.947,1.854-5.432,4.288C49.597,76.645,49.251,77.729,49.2,78.675z"/>
			<path fill="#A1EDF2" d="M74.228,55.295c1.535-0.238,2.971-0.052,4.311,0.558c1.383,0.64,2.314,1.52,2.791,2.638
				c0.748,2.32,0.182,5.06-1.697,8.216c-1.029,1.354-2.014,2.551-2.949,3.588l0.863,1.455c1.557,2.565,3.533,5.247,5.926,8.043
				l-4.293,5.032l-5.84-10.244c0.207,3.146,0.352,5.143,0.432,5.99s0.094,1.776,0.039,2.786c-1.232-0.61-2.668-1.274-4.305-1.992
				c-0.74-0.328-1.996-0.794-3.771-1.394c0.08-1.363,0.137-3.436,0.172-6.217c0.023-1.929,0.021-4.843-0.004-8.743
				c-0.01-0.759-0.035-2.428-0.074-5.005c1.221-1.258,2.832-2.389,4.834-3.391C72.167,55.825,73.356,55.384,74.228,55.295z
				 M72.468,63.749c0.033,0.952,0.068,1.648,0.105,2.089l0.203,1.85l0.682-0.533c1.582-1.479,2.33-2.708,2.246-3.685
				c-0.07-0.803-0.436-1.135-1.1-0.992C74.144,62.517,73.433,62.94,72.468,63.749z"/>
			<path fill="#A1EDF2" d="M107.804,50.174c-0.174,1.563-0.301,3.388-0.381,5.477l-0.535,26.215
				c-1.672,0.672-3.342,1.698-5.01,3.079c-2.313-5.066-5.426-10.831-9.338-17.295l0.146,5.009l0.225,4.664
				c-1.787,0.984-4.242,2.229-7.369,3.735c0.121-3.976,0.137-7.482,0.043-10.52c-0.104-2.838-0.176-7.505-0.215-13.999l6.662-3.833
				c1.652,3.014,3.469,6.093,5.447,9.233c0.744,1.055,1.428,2.028,2.045,2.926c0.16-2.792,0.268-6.202,0.32-10.229
				C102.833,53.148,105.485,51.662,107.804,50.174z"/>
			<path fill="#A1EDF2" d="M116.251,48.444c1.531,0.044,2.641,0.328,3.332,0.852c0.438,0.342,0.787,0.759,1.047,1.25
				c0.238,0.472,0.416,1.114,0.535,1.926c-0.053,1.257-0.637,2.387-1.754,3.39c-1.383,1.152-3.016,1.884-4.895,2.194
				c-1.049,0.139-2.145-0.202-3.285-1.025c-0.604-0.481-0.98-1.304-1.129-2.466c-0.197-2.282,0.791-4.027,2.967-5.234
				C114.05,48.88,115.11,48.585,116.251,48.444z M122.224,58.256c0.637,7.301,1.227,13.827,1.773,19.582
				c-1.549,0.64-3.557,1.689-6.025,3.146c-0.521,0.248-0.818,0.378-0.896,0.384c-0.768-2.297-1.572-5.308-2.414-9.031
				c-1.625-6.294-2.5-9.841-2.625-10.639c0.787-0.482,2.674-1.112,5.66-1.891C119.003,59.229,120.513,58.713,122.224,58.256z"/>
			<path fill="#A1EDF2" d="M148.501,46.665c-0.176,1.563-0.303,3.388-0.383,5.477l-0.535,26.215
				c-1.67,0.672-3.342,1.698-5.008,3.079c-2.314-5.066-5.428-10.831-9.338-17.295l0.146,5.009l0.223,4.664
				c-1.787,0.984-4.242,2.229-7.367,3.735c0.121-3.976,0.135-7.482,0.043-10.52c-0.105-2.838-0.176-7.505-0.217-13.999l6.664-3.834
				c1.65,3.015,3.467,6.094,5.447,9.234c0.744,1.055,1.426,2.028,2.045,2.926c0.16-2.792,0.266-6.201,0.32-10.229
				C143.528,49.64,146.183,48.153,148.501,46.665z"/>
			<path fill="#A1EDF2" d="M171.497,53.543c-0.717,1.869-1.539,4.943-2.463,9.22l-0.461,0.04c-1.473,0.127-3.262,0.721-5.363,1.782
				c-1.543,0.688-2.789,1.854-3.738,3.496c-0.551,1.291-0.807,2.506-0.773,3.644c0.121,1.388,0.977,2.015,2.568,1.877
				c1.568-0.479,2.336-0.909,2.305-1.285c0.025-2.056,0.025-3.247-0.004-3.575l-0.078-0.922c-0.014-0.154,0.865-0.489,2.635-1.008
				c3.234-1.208,5.395-1.964,6.48-2.268c-0.092,6.667-0.445,11.308-1.057,13.92c-2.016-0.037-3.598-0.085-4.748-0.14
				c-2.875,1.725-5.482,2.674-7.824,2.848c-0.943,0.081-2.1-0.129-3.471-0.63c-0.889-0.337-1.781-1.063-2.678-2.173
				c-0.34-0.273-0.744-1.04-1.211-2.302c-0.326-1.413-0.516-2.434-0.57-3.062c-0.24-2.778,0.15-5.477,1.17-8.097
				c0.439-1.008,1.004-1.964,1.693-2.867c2.363-2.594,4.695-4.349,6.992-5.265c1.5-0.798,4.063-1.69,7.691-2.677L171.497,53.543z"/>
		</g>
		<g>
			<path fill="#FFFFFF" d="M33.894,53.874c0.531,4.968,1.084,9.242,1.652,12.821c0.947,4.467,1.846,8.229,2.693,11.286
				c0.732,3.2,1.373,5.57,1.92,7.111l-1.303,1.041c-1.455,1.047-3.352,2.505-5.688,4.372c-0.322-0.795-0.744-2.673-1.266-5.634
				c-0.523-2.961-1.334-6.36-2.43-10.196c-0.379-2.021-0.639-3.238-0.779-3.656c0.055-0.005,0.08-0.036,0.076-0.091l-0.084,0.008
				c-0.893,2.848-1.563,5.289-2.004,7.324c-0.262,0.557-0.51,1.612-0.74,3.165l-0.389,0.033c-0.893,0.077-2.447,0.365-4.66,0.865
				c-0.178-0.266-0.83-1.553-1.959-3.86c-1.789-3.221-2.838-5.201-3.148-5.941l-0.084,0.008c0.037,0.419,0.002,1.198-0.104,2.34
				l0.072-0.007c0.004,0.05-0.018,0.076-0.066,0.081c-0.072,7.649,0.002,13.311,0.219,16.984c-2.465-0.717-5.168-1.439-8.107-2.171
				c0.072-1.604,0.273-4.985,0.602-10.146c0.322-4.67,0.432-10.298,0.328-16.885c1.008-0.529,2.715-1.454,5.119-2.771
				c1.377-0.738,2.334-1.338,2.871-1.799c1.82,3.907,3.594,7.352,5.322,10.332c0.342-2.062,0.656-3.798,0.941-5.208l0.775-4.233
				C26.767,57.622,30.171,55.896,33.894,53.874z"/>
			<path fill="#FFFFFF" d="M55.397,62.548c1.301,0.084,2.541,0.558,3.721,1.418c1.414,1.327,2.438,3,3.068,5.021
				c0.326,1.244,0.473,2.505,0.441,3.78c0.012,1.02-0.26,2.202-0.811,3.551c-0.654,1.694-2.125,3.579-4.406,5.654
				c-1.643,1.429-3.256,2.526-4.842,3.297c-0.824,0.485-2.186,0.887-4.084,1.206c-2.006-0.01-3.662-0.876-4.971-2.599
				c-0.887-1.316-1.404-2.825-1.551-4.527c-0.145-1.837,0.102-3.8,0.736-5.887c0.607-1.697,1.191-3.017,1.76-3.959
				c0.145-0.352,0.652-1.065,1.521-2.146c1.107-1.361,2.625-2.631,4.557-3.811C51.804,62.909,53.425,62.576,55.397,62.548z
				 M48.167,77.642c0.023,1.573,0.918,2.287,2.684,2.142c1.789-0.624,3.078-1.481,3.871-2.569c1.332-1.845,1.934-3.524,1.803-5.038
				c-0.359-1.299-0.988-1.99-1.889-2.075c-2.137,0.424-3.947,1.854-5.432,4.288C48.563,75.611,48.218,76.696,48.167,77.642z"/>
			<path fill="#FFFFFF" d="M73.194,54.262c1.535-0.238,2.971-0.052,4.311,0.558c1.383,0.64,2.314,1.52,2.791,2.638
				c0.748,2.32,0.182,5.06-1.697,8.216c-1.029,1.354-2.014,2.551-2.949,3.588l0.863,1.455c1.557,2.565,3.533,5.247,5.926,8.043
				l-4.293,5.032l-5.84-10.244c0.207,3.146,0.352,5.143,0.432,5.99s0.094,1.776,0.039,2.786c-1.232-0.61-2.668-1.274-4.305-1.992
				c-0.74-0.328-1.996-0.794-3.771-1.394c0.08-1.363,0.137-3.436,0.172-6.217c0.023-1.929,0.021-4.843-0.004-8.743
				c-0.01-0.759-0.035-2.428-0.074-5.005c1.221-1.258,2.832-2.389,4.834-3.391C71.134,54.792,72.323,54.351,73.194,54.262z
				 M71.435,62.716c0.033,0.952,0.068,1.648,0.105,2.089l0.203,1.85l0.682-0.533c1.582-1.479,2.33-2.708,2.246-3.685
				c-0.07-0.803-0.436-1.135-1.1-0.992C73.11,61.483,72.399,61.907,71.435,62.716z"/>
			<path fill="#FFFFFF" d="M106.771,49.141c-0.174,1.563-0.301,3.388-0.381,5.477l-0.535,26.215
				c-1.672,0.672-3.342,1.698-5.01,3.079c-2.313-5.066-5.426-10.831-9.338-17.295l0.146,5.009l0.225,4.664
				c-1.787,0.984-4.242,2.229-7.369,3.735c0.121-3.976,0.137-7.482,0.043-10.52c-0.104-2.838-0.176-7.505-0.215-13.999l6.662-3.833
				c1.652,3.014,3.469,6.093,5.447,9.233c0.744,1.055,1.428,2.028,2.045,2.926c0.16-2.792,0.268-6.202,0.32-10.229
				C101.8,52.115,104.452,50.629,106.771,49.141z"/>
			<path fill="#FFFFFF" d="M115.218,47.411c1.531,0.044,2.641,0.328,3.332,0.852c0.438,0.342,0.787,0.759,1.047,1.25
				c0.238,0.472,0.416,1.114,0.535,1.926c-0.053,1.257-0.637,2.387-1.754,3.39c-1.383,1.152-3.016,1.884-4.895,2.194
				c-1.049,0.139-2.145-0.202-3.285-1.025c-0.604-0.481-0.98-1.304-1.129-2.466c-0.197-2.282,0.791-4.027,2.967-5.234
				C113.017,47.847,114.077,47.552,115.218,47.411z M121.19,57.223c0.637,7.301,1.227,13.827,1.773,19.582
				c-1.549,0.64-3.557,1.689-6.025,3.146c-0.521,0.248-0.818,0.378-0.896,0.384c-0.768-2.297-1.572-5.308-2.414-9.031
				c-1.625-6.294-2.5-9.841-2.625-10.639c0.787-0.482,2.674-1.112,5.66-1.891C117.97,58.196,119.479,57.68,121.19,57.223z"/>
			<path fill="#FFFFFF" d="M147.468,45.632c-0.176,1.563-0.303,3.388-0.383,5.477l-0.535,26.215
				c-1.67,0.672-3.342,1.698-5.008,3.079c-2.314-5.066-5.428-10.831-9.338-17.295l0.146,5.009l0.223,4.664
				c-1.787,0.984-4.242,2.229-7.367,3.735c0.121-3.976,0.135-7.482,0.043-10.52c-0.105-2.838-0.176-7.505-0.217-13.999l6.664-3.834
				c1.65,3.015,3.467,6.094,5.447,9.234c0.744,1.055,1.426,2.028,2.045,2.926c0.16-2.792,0.266-6.201,0.32-10.229
				C142.495,48.606,145.149,47.12,147.468,45.632z"/>
			<path fill="#FFFFFF" d="M170.464,52.51c-0.717,1.869-1.539,4.943-2.463,9.22l-0.461,0.04c-1.473,0.127-3.262,0.721-5.363,1.782
				c-1.543,0.688-2.789,1.854-3.738,3.496c-0.551,1.291-0.807,2.506-0.773,3.644c0.121,1.388,0.977,2.015,2.568,1.877
				c1.568-0.479,2.336-0.909,2.305-1.285c0.025-2.056,0.025-3.247-0.004-3.575l-0.078-0.922c-0.014-0.154,0.865-0.489,2.635-1.008
				c3.234-1.208,5.395-1.964,6.48-2.268c-0.092,6.667-0.445,11.308-1.057,13.92c-2.016-0.037-3.598-0.085-4.748-0.14
				c-2.875,1.725-5.482,2.674-7.824,2.848c-0.943,0.081-2.1-0.129-3.471-0.63c-0.889-0.337-1.781-1.063-2.678-2.173
				c-0.34-0.273-0.744-1.04-1.211-2.302c-0.326-1.413-0.516-2.434-0.57-3.062c-0.24-2.778,0.15-5.477,1.17-8.097
				c0.439-1.008,1.004-1.964,1.693-2.867c2.363-2.594,4.695-4.349,6.992-5.265c1.5-0.798,4.063-1.69,7.691-2.677L170.464,52.51z"/>
		</g>
		<g>
			<path fill="#0CD9C7" d="M31.825,51.807c0.533,4.968,1.086,9.242,1.654,12.821c0.947,4.467,1.844,8.229,2.691,11.286
				c0.734,3.2,1.373,5.57,1.922,7.111l-1.303,1.041c-1.457,1.047-3.354,2.505-5.688,4.372c-0.322-0.795-0.744-2.673-1.268-5.634
				c-0.521-2.961-1.332-6.36-2.43-10.196c-0.377-2.021-0.637-3.238-0.779-3.656c0.057-0.005,0.082-0.036,0.076-0.091l-0.082,0.008
				c-0.895,2.848-1.563,5.289-2.006,7.324c-0.262,0.557-0.51,1.612-0.74,3.165l-0.389,0.033c-0.893,0.077-2.445,0.365-4.66,0.865
				c-0.178-0.266-0.83-1.553-1.957-3.86c-1.789-3.221-2.84-5.201-3.148-5.941l-0.084,0.008c0.035,0.419,0.002,1.198-0.104,2.34
				l0.072-0.007c0.004,0.05-0.02,0.076-0.066,0.081c-0.072,7.649,0.002,13.311,0.219,16.984c-2.467-0.717-5.17-1.439-8.107-2.171
				c0.072-1.604,0.271-4.985,0.602-10.146c0.322-4.67,0.43-10.298,0.326-16.885c1.01-0.529,2.715-1.454,5.119-2.771
				c1.379-0.738,2.336-1.338,2.873-1.799c1.82,3.907,3.594,7.352,5.32,10.332c0.342-2.062,0.658-3.798,0.943-5.208l0.773-4.233
				C24.698,55.555,28.103,53.829,31.825,51.807z"/>
			<path fill="#0CD9C7" d="M53.331,60.48c1.301,0.084,2.541,0.558,3.719,1.418c1.416,1.327,2.438,3,3.07,5.021
				c0.324,1.244,0.473,2.505,0.441,3.78c0.01,1.02-0.26,2.202-0.811,3.551c-0.656,1.694-2.127,3.579-4.408,5.654
				c-1.641,1.429-3.256,2.526-4.842,3.297c-0.822,0.485-2.184,0.887-4.084,1.206c-2.004-0.01-3.66-0.876-4.971-2.599
				c-0.887-1.316-1.404-2.825-1.551-4.527c-0.145-1.837,0.102-3.8,0.738-5.887c0.605-1.697,1.191-3.017,1.758-3.959
				c0.145-0.352,0.652-1.065,1.523-2.146c1.105-1.361,2.625-2.631,4.555-3.811C49.737,60.842,51.356,60.509,53.331,60.48z
				 M46.099,75.574c0.023,1.573,0.918,2.287,2.686,2.142c1.787-0.624,3.078-1.481,3.871-2.569c1.33-1.845,1.932-3.524,1.801-5.038
				c-0.359-1.299-0.988-1.99-1.887-2.075c-2.137,0.424-3.947,1.854-5.432,4.288C46.497,73.544,46.151,74.629,46.099,75.574z"/>
			<path fill="#0CD9C7" d="M71.128,52.194c1.533-0.238,2.971-0.052,4.309,0.558c1.385,0.64,2.314,1.52,2.791,2.638
				c0.75,2.32,0.184,5.06-1.695,8.216c-1.029,1.354-2.014,2.551-2.951,3.588l0.863,1.455c1.559,2.565,3.533,5.247,5.926,8.043
				l-4.291,5.032l-5.842-10.244c0.209,3.146,0.354,5.143,0.434,5.99c0.078,0.848,0.094,1.776,0.039,2.786
				c-1.234-0.61-2.67-1.274-4.307-1.992c-0.738-0.328-1.996-0.794-3.77-1.394c0.078-1.363,0.137-3.436,0.172-6.217
				c0.021-1.929,0.021-4.843-0.006-8.743c-0.01-0.759-0.033-2.428-0.072-5.005c1.219-1.258,2.83-2.389,4.832-3.391
				C69.067,52.725,70.257,52.283,71.128,52.194z M69.366,60.648c0.033,0.952,0.07,1.648,0.107,2.089l0.201,1.85l0.682-0.533
				c1.582-1.479,2.33-2.708,2.246-3.685c-0.068-0.803-0.436-1.135-1.098-0.992C71.044,59.416,70.331,59.84,69.366,60.648z"/>
			<path fill="#0CD9C7" d="M104.704,47.073c-0.176,1.563-0.303,3.388-0.383,5.477l-0.535,26.215
				c-1.672,0.672-3.342,1.698-5.008,3.079c-2.314-5.066-5.428-10.831-9.34-17.295l0.146,5.009l0.225,4.664
				c-1.787,0.984-4.242,2.229-7.367,3.735c0.121-3.976,0.135-7.482,0.041-10.52c-0.104-2.838-0.174-7.505-0.215-13.999l6.662-3.833
				c1.652,3.014,3.469,6.093,5.449,9.233c0.744,1.055,1.426,2.028,2.045,2.926c0.158-2.792,0.266-6.202,0.32-10.229
				C99.731,50.048,102.386,48.562,104.704,47.073z"/>
			<path fill="#0CD9C7" d="M113.151,45.344c1.529,0.044,2.641,0.328,3.332,0.852c0.438,0.342,0.785,0.759,1.047,1.25
				c0.236,0.472,0.414,1.114,0.535,1.926c-0.055,1.257-0.639,2.387-1.754,3.39c-1.385,1.152-3.018,1.884-4.896,2.194
				c-1.049,0.139-2.145-0.202-3.283-1.025c-0.605-0.481-0.98-1.304-1.131-2.466c-0.195-2.282,0.791-4.027,2.967-5.234
				C110.948,45.779,112.009,45.484,113.151,45.344z M119.122,55.155c0.637,7.301,1.229,13.827,1.773,19.582
				c-1.549,0.64-3.557,1.689-6.025,3.146c-0.52,0.248-0.818,0.378-0.895,0.384c-0.768-2.297-1.572-5.308-2.414-9.031
				c-1.627-6.294-2.5-9.841-2.627-10.639c0.789-0.482,2.674-1.112,5.66-1.891C115.901,56.129,117.411,55.612,119.122,55.155z"/>
			<path fill="#0CD9C7" d="M145.399,43.564c-0.176,1.563-0.303,3.388-0.381,5.477l-0.535,26.215
				c-1.672,0.672-3.342,1.698-5.01,3.079c-2.313-5.066-5.426-10.831-9.338-17.295l0.146,5.009l0.223,4.664
				c-1.785,0.984-4.24,2.229-7.367,3.735c0.123-3.976,0.137-7.482,0.043-10.52c-0.104-2.838-0.176-7.505-0.215-13.999l6.662-3.834
				c1.652,3.015,3.469,6.094,5.447,9.234c0.746,1.055,1.428,2.028,2.045,2.926c0.16-2.792,0.268-6.201,0.322-10.229
				C140.429,46.539,143.081,45.053,145.399,43.564z"/>
			<path fill="#0CD9C7" d="M168.397,50.442c-0.719,1.869-1.539,4.943-2.465,9.22l-0.461,0.04c-1.473,0.127-3.26,0.721-5.363,1.782
				c-1.543,0.688-2.789,1.854-3.736,3.496c-0.551,1.291-0.809,2.506-0.773,3.644c0.119,1.388,0.975,2.015,2.566,1.877
				c1.57-0.479,2.338-0.909,2.305-1.285c0.027-2.056,0.025-3.247-0.002-3.575l-0.08-0.922c-0.014-0.154,0.865-0.489,2.635-1.008
				c3.236-1.208,5.396-1.964,6.48-2.268c-0.092,6.667-0.445,11.308-1.055,13.92c-2.016-0.037-3.6-0.085-4.75-0.14
				c-2.875,1.725-5.482,2.674-7.822,2.848c-0.943,0.081-2.1-0.129-3.473-0.63c-0.887-0.337-1.779-1.063-2.678-2.173
				c-0.34-0.273-0.742-1.04-1.211-2.302c-0.324-1.413-0.516-2.434-0.568-3.062c-0.24-2.778,0.15-5.477,1.168-8.097
				c0.441-1.008,1.006-1.964,1.693-2.867c2.365-2.594,4.695-4.349,6.994-5.265c1.498-0.798,4.063-1.69,7.689-2.677L168.397,50.442z"
				/>
		</g>
		<g>
			
				<linearGradient id="SVGID_6_" gradientUnits="userSpaceOnUse" x1="76.9521" y1="92.7041" x2="242.457" y2="92.7041" gradientTransform="matrix(0.9963 -0.0859 0.0859 0.9963 -79.2612 -12.2556)">
				<stop  offset="0" style="stop-color:#05B3E8"/>
				<stop  offset="1" style="stop-color:#0CD9C7"/>
			</linearGradient>
			<path fill="url(#SVGID_6_)" d="M32.859,52.84c0.532,4.968,1.085,9.242,1.653,12.821c0.947,4.467,1.845,8.229,2.692,11.286
				c0.733,3.2,1.373,5.57,1.921,7.111L37.823,85.1c-1.456,1.047-3.353,2.505-5.688,4.372c-0.322-0.795-0.744-2.673-1.267-5.634
				s-1.333-6.36-2.43-10.196c-0.378-2.021-0.638-3.238-0.779-3.656c0.056-0.005,0.081-0.036,0.076-0.091l-0.083,0.008
				c-0.894,2.848-1.563,5.289-2.005,7.324c-0.262,0.557-0.51,1.612-0.74,3.165l-0.389,0.033c-0.893,0.077-2.446,0.365-4.66,0.865
				c-0.178-0.266-0.83-1.553-1.958-3.86c-1.789-3.221-2.839-5.201-3.148-5.941l-0.084,0.008c0.036,0.419,0.002,1.198-0.104,2.34
				l0.072-0.007c0.004,0.05-0.019,0.076-0.066,0.081c-0.072,7.649,0.002,13.311,0.219,16.984c-2.466-0.717-5.169-1.439-8.107-2.171
				c0.072-1.604,0.272-4.985,0.602-10.146c0.322-4.67,0.431-10.298,0.327-16.885c1.009-0.529,2.715-1.454,5.119-2.771
				c1.378-0.738,2.335-1.338,2.872-1.799c1.82,3.907,3.594,7.352,5.321,10.332c0.342-2.062,0.657-3.798,0.942-5.208l0.774-4.233
				C25.732,56.588,29.137,54.863,32.859,52.84z"/>
			
				<linearGradient id="SVGID_7_" gradientUnits="userSpaceOnUse" x1="76.9521" y1="96.5757" x2="242.457" y2="96.5757" gradientTransform="matrix(0.9963 -0.0859 0.0859 0.9963 -79.2612 -12.2556)">
				<stop  offset="0" style="stop-color:#05B3E8"/>
				<stop  offset="1" style="stop-color:#0CD9C7"/>
			</linearGradient>
			<path fill="url(#SVGID_7_)" d="M54.364,61.514c1.301,0.084,2.541,0.558,3.72,1.418c1.415,1.327,2.438,3,3.069,5.021
				c0.325,1.244,0.473,2.505,0.441,3.78c0.011,1.02-0.26,2.202-0.811,3.551c-0.655,1.694-2.126,3.579-4.407,5.654
				c-1.642,1.429-3.256,2.526-4.842,3.297c-0.823,0.485-2.185,0.887-4.084,1.206c-2.005-0.01-3.661-0.876-4.971-2.599
				c-0.887-1.316-1.404-2.825-1.551-4.527c-0.145-1.837,0.102-3.8,0.737-5.887c0.606-1.697,1.191-3.017,1.759-3.959
				c0.145-0.352,0.652-1.065,1.522-2.146c1.106-1.361,2.625-2.631,4.556-3.811C50.771,61.875,52.391,61.542,54.364,61.514z
				 M47.133,76.608c0.023,1.573,0.918,2.287,2.685,2.142c1.788-0.624,3.078-1.481,3.871-2.569c1.331-1.845,1.933-3.524,1.802-5.038
				c-0.359-1.299-0.988-1.99-1.888-2.075c-2.137,0.424-3.947,1.854-5.432,4.288C47.53,74.578,47.185,75.663,47.133,76.608z"/>
			
				<linearGradient id="SVGID_8_" gradientUnits="userSpaceOnUse" x1="76.9521" y1="93.1626" x2="242.457" y2="93.1626" gradientTransform="matrix(0.9963 -0.0859 0.0859 0.9963 -79.2612 -12.2556)">
				<stop  offset="0" style="stop-color:#05B3E8"/>
				<stop  offset="1" style="stop-color:#0CD9C7"/>
			</linearGradient>
			<path fill="url(#SVGID_8_)" d="M72.161,53.228c1.534-0.238,2.971-0.052,4.31,0.558c1.384,0.64,2.314,1.52,2.791,2.638
				c0.749,2.32,0.183,5.06-1.696,8.216c-1.029,1.354-2.014,2.551-2.95,3.588l0.863,1.455c1.558,2.565,3.533,5.247,5.926,8.043
				l-4.292,5.032l-5.841-10.244c0.208,3.146,0.353,5.143,0.433,5.99c0.079,0.848,0.094,1.776,0.039,2.786
				c-1.233-0.61-2.669-1.274-4.306-1.992c-0.739-0.328-1.996-0.794-3.771-1.394c0.079-1.363,0.137-3.436,0.172-6.217
				c0.022-1.929,0.021-4.843-0.005-8.743c-0.01-0.759-0.034-2.428-0.073-5.005c1.22-1.258,2.831-2.389,4.833-3.391
				C70.101,53.758,71.29,53.317,72.161,53.228z M70.4,61.682c0.033,0.952,0.069,1.648,0.106,2.089l0.202,1.85l0.682-0.533
				c1.582-1.479,2.33-2.708,2.246-3.685c-0.069-0.803-0.436-1.135-1.099-0.992C72.077,60.45,71.365,60.874,70.4,61.682z"/>
			
				<linearGradient id="SVGID_9_" gradientUnits="userSpaceOnUse" x1="76.9521" y1="93.0981" x2="242.457" y2="93.0981" gradientTransform="matrix(0.9963 -0.0859 0.0859 0.9963 -79.2612 -12.2556)">
				<stop  offset="0" style="stop-color:#05B3E8"/>
				<stop  offset="1" style="stop-color:#0CD9C7"/>
			</linearGradient>
			<path fill="url(#SVGID_9_)" d="M105.737,48.107c-0.175,1.563-0.302,3.388-0.382,5.477l-0.535,26.215
				c-1.672,0.672-3.342,1.698-5.009,3.079c-2.313-5.066-5.427-10.831-9.339-17.295l0.146,5.009l0.225,4.664
				c-1.787,0.984-4.242,2.229-7.368,3.735c0.121-3.976,0.136-7.482,0.042-10.52c-0.104-2.838-0.175-7.505-0.215-13.999l6.662-3.833
				c1.652,3.014,3.469,6.093,5.448,9.233c0.744,1.055,1.427,2.028,2.045,2.926c0.159-2.792,0.267-6.202,0.32-10.229
				C100.766,51.082,103.419,49.595,105.737,48.107z"/>
			
				<linearGradient id="SVGID_10_" gradientUnits="userSpaceOnUse" x1="76.9521" y1="91.4697" x2="242.457" y2="91.4697" gradientTransform="matrix(0.9963 -0.0859 0.0859 0.9963 -79.2612 -12.2556)">
				<stop  offset="0" style="stop-color:#05B3E8"/>
				<stop  offset="1" style="stop-color:#0CD9C7"/>
			</linearGradient>
			<path fill="url(#SVGID_10_)" d="M114.185,46.377c1.53,0.044,2.641,0.328,3.332,0.852c0.438,0.342,0.786,0.759,1.047,1.25
				c0.237,0.472,0.415,1.114,0.535,1.926c-0.054,1.257-0.638,2.387-1.754,3.39c-1.384,1.152-3.017,1.884-4.896,2.194
				c-1.049,0.139-2.145-0.202-3.284-1.025c-0.604-0.481-0.98-1.304-1.13-2.466c-0.196-2.282,0.791-4.027,2.967-5.234
				C111.982,46.813,113.043,46.518,114.185,46.377z M120.156,56.189c0.637,7.301,1.228,13.827,1.773,19.582
				c-1.549,0.64-3.557,1.689-6.025,3.146c-0.521,0.248-0.818,0.378-0.896,0.384c-0.768-2.297-1.572-5.308-2.414-9.031
				c-1.626-6.294-2.5-9.841-2.626-10.639c0.788-0.482,2.674-1.112,5.66-1.891C116.936,57.163,118.445,56.646,120.156,56.189z"/>
			
				<linearGradient id="SVGID_11_" gradientUnits="userSpaceOnUse" x1="76.9521" y1="93.0977" x2="242.457" y2="93.0977" gradientTransform="matrix(0.9963 -0.0859 0.0859 0.9963 -79.2612 -12.2556)">
				<stop  offset="0" style="stop-color:#05B3E8"/>
				<stop  offset="1" style="stop-color:#0CD9C7"/>
			</linearGradient>
			<path fill="url(#SVGID_11_)" d="M146.434,44.598c-0.176,1.563-0.303,3.388-0.382,5.477l-0.535,26.215
				c-1.671,0.672-3.342,1.698-5.009,3.079c-2.313-5.066-5.427-10.831-9.338-17.295l0.146,5.009l0.223,4.664
				c-1.786,0.984-4.241,2.229-7.367,3.735c0.122-3.976,0.136-7.482,0.043-10.52c-0.104-2.838-0.176-7.505-0.216-13.999l6.663-3.834
				c1.651,3.015,3.468,6.094,5.447,9.234c0.745,1.055,1.427,2.028,2.045,2.926c0.16-2.792,0.267-6.201,0.321-10.229
				C141.462,47.573,144.115,46.086,146.434,44.598z"/>
			
				<linearGradient id="SVGID_12_" gradientUnits="userSpaceOnUse" x1="76.9521" y1="98.085" x2="242.457" y2="98.085" gradientTransform="matrix(0.9963 -0.0859 0.0859 0.9963 -79.2612 -12.2556)">
				<stop  offset="0" style="stop-color:#05B3E8"/>
				<stop  offset="1" style="stop-color:#0CD9C7"/>
			</linearGradient>
			<path fill="url(#SVGID_12_)" d="M169.431,51.476c-0.718,1.869-1.539,4.943-2.464,9.22l-0.461,0.04
				c-1.473,0.127-3.261,0.721-5.363,1.782c-1.543,0.688-2.789,1.854-3.737,3.496c-0.551,1.291-0.808,2.506-0.773,3.644
				c0.12,1.388,0.976,2.015,2.567,1.877c1.569-0.479,2.337-0.909,2.305-1.285c0.026-2.056,0.025-3.247-0.003-3.575l-0.079-0.922
				c-0.014-0.154,0.865-0.489,2.635-1.008c3.235-1.208,5.396-1.964,6.48-2.268c-0.092,6.667-0.445,11.308-1.056,13.92
				c-2.016-0.037-3.599-0.085-4.749-0.14c-2.875,1.725-5.482,2.674-7.823,2.848c-0.943,0.081-2.1-0.129-3.472-0.63
				c-0.888-0.337-1.78-1.063-2.678-2.173c-0.34-0.273-0.743-1.04-1.211-2.302c-0.325-1.413-0.516-2.434-0.569-3.062
				c-0.24-2.778,0.15-5.477,1.169-8.097c0.44-1.008,1.005-1.964,1.693-2.867c2.364-2.594,4.695-4.349,6.993-5.265
				c1.499-0.798,4.063-1.69,7.69-2.677L169.431,51.476z"/>
		</g>
	</g>
	<g>
		<path fill="#F2EAB8" d="M85.426,11.483C82.241,2.565,71.587-0.8,63.27,3.25c-2.345,1.143-11.502,5.604-14.222,6.93
			c-4.224,2.056-7.539,5.296-9.753,9.155c2.135-3.307,5.151-6.109,8.926-7.947c2.597-1.267,11.339-5.524,13.578-6.615
			c7.941-3.869,18.002-0.897,20.908,7.322c4.498,12.719-9.267,34.34-16.829,38.025c-9.316,4.537-20.072,1.791-25.941-6.003
			c6.079,9.445,18.076,13.133,28.301,8.153C76.158,48.411,90.355,25.285,85.426,11.483z"/>
		<path fill="#FBA70E" d="M46.547,36.792c-3.212-6.813-0.292-14.941,6.522-18.151c6.817-3.212,14.942-0.291,18.155,6.523
			c3.21,6.813,0.289,14.941-6.524,18.152C57.886,46.528,49.758,43.608,46.547,36.792z"/>
		<path fill="#FFCA05" d="M49.013,36.306c-2.78-5.901-0.181-12.975,5.808-15.796c5.987-2.823,13.095-0.324,15.877,5.576
			c2.781,5.899,0.182,12.971-5.805,15.793C58.901,44.702,51.794,42.206,49.013,36.306z"/>
	</g>
</g>
</svg>
