<?xml version="1.0" encoding="utf-8"?>
<!-- Generator: Adobe Illustrator 16.0.0, SVG Export Plug-In . SVG Version: 6.00 Build 0)  -->
<!DOCTYPE svg PUBLIC "-//W3C//DTD SVG 1.1//EN" "http://www.w3.org/Graphics/SVG/1.1/DTD/svg11.dtd">
<svg version="1.1" id="Layer_1" xmlns="http://www.w3.org/2000/svg" xmlns:xlink="http://www.w3.org/1999/xlink" x="0px" y="0px"
	 width="143.754px" height="141.623px" viewBox="0 0 143.754 141.623" enable-background="new 0 0 143.754 141.623"
	 xml:space="preserve">
<g>
	<path fill="#FFFFFF" d="M27.052,27.254c2.159-1.981,2.006-7.933,5.082-10.754c3.529-3.236,7.119-4.511,12.078-4.865
		c0.975-5.227,4.245-10.807,10.112-11.248c3.319,9.057,9.123-0.966,13.363-0.36c5.543,0.791,6.659,6.777,4.054,12.038
		c5.913,0.931,14.376,11.829,19.811,10.441c0.346-4.899,19.273-3.287,21.849,0.516c3.071,4.533,0.804,7.524,4.649,11.274
		c3.813,3.717,8.109,2.913,8.57,9.988c6.855-0.71,21.484-3.944,15.884,8.759c-2.918,6.617-11.782,6.293-12.063,14.911
		c-0.279,8.567,7.273,11.364,9.997,17.771c2.314,5.445,3.603,21.559-4.252,21.502c0.147,8.674-8.868,15.125-17.426,13.207
		c1.999,5.643-1.95,8.48-7.404,6.627c-3.823-1.301-4.106-6.068-7.162-7.01c-9.233-2.846-11.426,10.84-17.451,14.992
		c-7.118,4.902-16.069,9.771-22.971,3.867c-4.326-3.699-5.261-6.744-10.488-10.145c-3.389-2.207-5.666-4.719-9.461-6.102
		c-5.013-1.83-6.94-1.008-10.27-4.842c-2.97-3.42-4.455-6.549-7.688-10.117c-3.266-3.609-5.402-6.004-7.943-10.553
		c-2.138-3.828-5.314-6.73-7.489-10.66c-1.633-2.953-2.084-8.049-3.345-10.65c-2.77-5.717-4.59-6.833-5.018-13.522
		c-0.43-6.737-3.357-18.336-1.408-23.735C3.101,31.833,20.827,32.969,27.052,27.254z"/>
	<g>
		<path fill="#C3996B" d="M110.219,61.822c-1.753,0.395-3.559,1.799-5.484,1.222c-3.696-1.106-2.853-5.359-5.019-7.613
			c-0.285-0.295-1.87-0.802-2.245-0.957c-0.936-0.388-1.845-0.751-2.711-1.369c-1.218-0.869-2.194-1.88-3.138-3.05
			c-1.084-1.347-1.801-2.344-1.646-3.946c0.046-0.464,0.611-1.453,0.561-1.865c-0.208-1.642-2.063-3.066-2.863-4.458
			c1.117-0.833,0.619-3.603,0.327-4.73c-0.638-2.48-1.817-1.647-3.093,0.047c-3.514,4.662-1.32,9.833,1.258,14.537
			c1.666,3.04,3.852,4.48,5.974,6.847c2.063,2.303,3.503,5.313,5.69,7.493c2.403,2.393,8.454,4.832,11.753,4.178
			c4.063-0.803,6.239-2.76,5.163-6.477C114.224,61.536,111.366,61.562,110.219,61.822z"/>
		<path fill="#5AB1AF" d="M69.229,52.293c-2.165-2.902-7.024-7.954-10.758-9.077c-1.959-0.591-3.46-2.139-5.794-1.042
			c-10.061,4.722-3.005,8.801,1.696,9.136c1.885,6.706,7.846,15.092,10.333,17.751c4.1,4.381,7.266,10.373,11.789,14.436
			c4.468,4.01,12.399,10.314,14.979,6.656c11.608-10.051-3.648-16.257-7.311-20.204C78.78,64.149,69.229,52.293,69.229,52.293z"/>
		<path fill="#FAAF40" d="M61.854,52.814c-4.619,0.039-4.995-3.148-7.379,0.555c-1.138,1.767-2.894,6.57-2.541,7.753
			c0.225,0.762,3.256,2.006,4.08,2.922c0.96,1.067,1.529,2.141,1.883,3.478c0.993,3.765-0.342,4.366,2.738,6.614
			c1.607,1.171,11.188,4.801,13.282,3.27c5.413-15.057-5.152-8.322-5.399-10.141c-0.373-2.745-1.09-5.429-1.936-7.952
			c-12.651,1.944-7.62-4.085-5.485-4.848L61.854,52.814z"/>
		<g>
			<path fill="#C3996B" d="M101.233,100.17c-8.535-4.52-14.028-8.398-21.061-14.846C66.85,73.112,59.112,59.13,48.852,43.645
				c-2.97-4.477-2.999-12.686-5.581-14.742c-22.686,11.309,3.42,39.844,10.541,46.454c6.82,6.333,14.694,14.451,21.854,21.099
				c5.11,4.744,10.865,15.459,19.222,16.389c3.443,0.383,11.891-0.357,13.942-5.445C110.745,102.651,104.114,101.696,101.233,100.17
				z"/>
			<path fill="#231F20" d="M96.619,113.613C96.619,113.613,96.619,113.613,96.619,113.613c-0.653,0-1.278-0.031-1.808-0.091
				c-6.244-0.694-10.942-6.419-15.088-11.47c-1.592-1.939-3.096-3.771-4.523-5.097c-3.629-3.37-7.479-7.153-11.201-10.812
				c-3.75-3.685-7.291-7.165-10.653-10.288c-7.582-7.038-21.453-23.607-19.678-35.941c0.718-4.995,3.847-8.906,9.297-11.623
				l0.389-0.194l0.34,0.271c1.506,1.2,2.169,3.915,2.937,7.057c0.659,2.7,1.407,5.76,2.788,7.841
				c1.93,2.913,3.782,5.791,5.574,8.574c7.654,11.89,14.884,23.121,25.64,32.98c6.994,6.412,12.468,10.271,20.919,14.745
				c0.597,0.316,1.396,0.618,2.243,0.938c2.285,0.862,4.874,1.84,5.758,3.856c0.427,0.976,0.396,2.083-0.092,3.293
				C107.688,112.052,101.435,113.613,96.619,113.613z M43.149,29.731c-4.763,2.493-7.497,5.982-8.129,10.378
				c-1.694,11.774,11.855,27.877,19.256,34.747c3.376,3.135,7.09,6.785,10.681,10.314c3.715,3.651,7.558,7.428,11.173,10.785
				c1.495,1.388,3.027,3.255,4.649,5.231c3.98,4.85,8.492,10.346,14.184,10.979c0.48,0.053,1.053,0.081,1.656,0.081
				c4.391,0,10.058-1.336,11.578-5.104c0.351-0.869,0.386-1.601,0.107-2.235c-0.653-1.49-2.958-2.359-4.99-3.127
				c-0.888-0.335-1.726-0.651-2.399-1.008c-8.565-4.536-14.113-8.447-21.202-14.946C68.826,75.85,61.55,64.546,53.847,52.58
				c-1.789-2.779-3.639-5.653-5.564-8.558c-1.512-2.28-2.29-5.463-2.976-8.272C44.691,33.228,44.106,30.832,43.149,29.731z"/>
		</g>
		<path fill="#77111A" d="M38.599,21.605c1.393,3.5-4.148,4.91,3.152,8.005c4.405,1.871-5.579,5.353,0.74,9.204
			c11.497,0.889-2.236,22.323,19.272,6.115c-2.249-1.855-4.056-4.823-5.72-9.04c-1.76-4.455,3.324-6.515-0.735-9.964
			C57.849,19.241,43.962,15.338,38.599,21.605z"/>
		<g>
			<path fill="#BE1E2D" d="M88.328,81.122c0,0,32.141,33.223,41.994,25.443c-2.436,5.697-1.6,6.203-3.478,6.77
				c-13.984,4.217-43.076-15.881-43.302-23.256C83.315,82.706,88.328,81.122,88.328,81.122z"/>
			<path fill="#F05A28" d="M92.853,81.542c0,0,43.067,15.225,37.47,25.023c-5.599,9.799-37.493-7.906-43.56-19.852
				C83.026,79.362,92.853,81.542,92.853,81.542z"/>
			<g>
				<path fill="#BE1E2D" d="M105.094,89.542c0,0-14.323-8.891-16.071-7.82c-1.748,1.072,1.199,10.207,5.71,10.73
					C99.241,92.969,106.41,90.344,105.094,89.542z"/>
				<path fill="#BE1E2D" d="M117.687,94.559c0,0,14.488,7.352,11.879,9.746c-2.608,2.396-14.941,1.926-15.076-1.123
					C114.353,100.135,116.272,93.819,117.687,94.559z"/>
				<path fill="#BE1E2D" d="M112.088,91.879c0,0-13.772,0.379-12.825,2.672s8.991,7.451,11.103,6.125
					C112.475,99.352,113.944,91.801,112.088,91.879z"/>
			</g>
			<g>
				<path fill="#F6921E" d="M124.152,100.086c-0.313,1.182,1.362,3.656,2.701,2.6C127.278,101.762,125.034,100.213,124.152,100.086z
					"/>
				<path fill="#F6921E" d="M120.136,99.95c0.733,0.676,4.682,2.555,3.256,3.744C121.704,105.108,120.136,99.95,120.136,99.95z"/>
				<path fill="#F6921E" d="M119.374,103.524c-1.537-1.496-1.76-3.389-1.336-5.182C118.038,98.342,122.165,103.331,119.374,103.524z
					"/>
			</g>
			<g>
				<path fill="#F6921E" d="M95.403,84.436c-1.211,0.66-4.565,0.215-3.854-1.207C92.431,82.569,94.952,83.79,95.403,84.436z"/>
				<path fill="#F6921E" d="M96.962,87.542c-1.009-0.34-4.499-2.779-5.325-1.242C90.649,88.118,96.962,87.542,96.962,87.542z"/>
				<path fill="#F6921E" d="M93.236,89.391c2.212,0.682,4.402,0.193,6.259-0.768C99.495,88.624,92.476,87.129,93.236,89.391z"/>
			</g>
			<g>
				<path fill="#F6921E" d="M105.245,93.639c-0.658,1.135-4.114,2.916-4.473,1.631C101.12,94.336,104.358,93.526,105.245,93.639z"/>
				<path fill="#F6921E" d="M109.673,94.874c-0.569,0.762-2.388,4.611-3.091,3.486C105.742,97.036,109.673,94.874,109.673,94.874z"
					/>
				<path fill="#F6921E" d="M103.704,97.295c1.995-0.668,3.246-2.084,3.972-3.633C107.676,93.663,101.765,96.209,103.704,97.295z"/>
			</g>
		</g>
		<path fill="#7CCDCD" d="M77.945,67.171c0.35-0.63,2.104,0.284,3.258-0.184c3.035,3.762,6.553,7.877,8.693,12.188
			c-0.604,0.439,4.552,3.949,3.025,5.098c-11.823,4.074-5.437-13.164-10.391-10.683C71.698,79.018,77.945,67.171,77.945,67.171z"/>
		<path fill="#5AB1AF" d="M54.059,49.463c0,0,4.802-7.587,3.322-7.402s-6.365,1.4-8.752,3.245c-2.386,1.844,2.19,5.808,3.237,5.752
			S54.059,49.463,54.059,49.463z"/>
		<path fill="#468885" d="M97.376,83.524c-0.922-2.912-5.679-0.352-8.107-0.525c-8.036-0.566,4.109-9.894-5.676-9.714
			c-3.065,0.054-6.762,2.675-6.643-1.628c0.093-3.359,3.671-3.614,1.165-6.607c-2.907-3.472-5.952,2.023-8.049,0.574
			c-1.71-1.181,2.077-6.803,2.838-8.515c-4.089-3.363-4.999,1.306-9.539,1.208c-8.358-0.182,3.22-5.452,3.776-7.291
			c1.653-5.485-7.504,0.914-9.346,0.365c-4.273-1.272,2.425-4.49,3.968-6.462c-1.944-3.926-6.825-5.13-10.942-1.438
			c-2.26,1.031-3.154,2.79-1.971,4.296c1.981-1.761,4.131-3.562,6.546-4.99c3.928,0.061-5.141,5.517-4.066,7.245
			c1.957,4.059,4.658,6.09,9.585,2.76c-5.558,4.902-1.826,12.237,4.811,6.822c1.697,2.61-1.437,6.59,0.461,9.419
			c2.234,3.335,5.278-0.076,8.395-0.116c-0.515,2.623-4.221,6.54-2.125,8.799c3.248,3.508,7.875-4.048,10.07,0.498
			c1.206,2.494-1.117,7.693,3.205,8.48c4.29,0.777,6.487-3.145,7.055,2.713C94.781,88.397,98.041,85.635,97.376,83.524z"/>
		<path fill="#BE1E2D" d="M43.923,19.907c0.301,0.02,4.744-0.462,4.627,1.178c-0.119,1.642-4.734-0.622-4.58,1.775
			c0.156,2.4,1.286,1.936,2.111,4.327c0.823,2.39-1.271,2.955-2.01,1.461c-0.739-1.494-4.604-0.478-3.074-2.905
			c1.532-2.43,1.672-4.065,0.873-4.344C41.071,21.122,43.923,19.907,43.923,19.907z"/>
		<g>
			<path fill="#FAAF40" d="M55.342,17.474c0,0,2.061-9.008,0.329-10.545c-1.729-1.539-4.719,0.16-5.141,4.28
				C50.106,15.333,53.597,17.507,55.342,17.474z"/>
			<path fill="#FFFFFF" d="M54.604,13.387c0.799,0.095,0.991-7.371-0.838-5.122C52.526,9.79,53.589,13.268,54.604,13.387z"/>
		</g>
		<g>
			<path fill="#FAAF40" d="M60.509,14.63c0,0,10.136-3.266,7.146-6.978C64.374,3.576,59.16,13.739,60.509,14.63z"/>
			<path fill="#FFFFFF" d="M63.321,10.893c0.613-0.149,3.377-2.788,1.865-2.496C63.675,8.688,62.341,11.137,63.321,10.893z"/>
		</g>
		<g>
			<path fill="#FAAF40" d="M109.55,113.522c0,0,2.905,3.865,2.404,4.969c-0.496,1.104-1.208,2.809-2.287,0.928
				C108.585,117.542,108.707,113.877,109.55,113.522z"/>
			<path fill="#BE1E2D" d="M131.719,96.133c0.081-0.414,3.829,0.691,2.414,1.24C133.175,97.747,131.615,96.657,131.719,96.133z"/>
		</g>
		<g>
			<path fill="#FAAF40" d="M128.408,93.188c0,0,4.495-6.234,6.38-3.357C136.858,92.989,128.722,94.311,128.408,93.188z"/>
			<path fill="#FFFFFF" d="M131.601,92.086c0.238-0.387,2.664-1.699,2.128-0.725C133.194,92.334,131.214,92.706,131.601,92.086z"/>
		</g>
		<path fill="#BE1E2D" d="M53.242,31.331c1.493-1.075-0.309-6.383-2.138-6.63c-2.617-0.354-3.395,3.382-3.296,6
			c0.238,6.376,5.491,9.606,6.18,9.002C55.943,37.997,51.144,32.838,53.242,31.331z"/>
		<path fill="#A78056" d="M37.748,41.042c0,0,11.747,17.675,18.658,26.466c5.905,7.509,22.93,21.825,23.899,25.907
			c0.972,4.082,9.928,11.141,14.797,13.492c4.869,2.355-0.799,5.232-3.81,2.168c-3.013-3.063-17.103-19.59-20.612-21.963
			c-3.51-2.371-17.058-15.843-19.578-17.86C46.049,65.208,37.241,49.59,36.53,44.093C35.819,38.598,37.748,41.042,37.748,41.042z"/>
		<path fill="#F9C989" d="M42.506,42.745c-1.296,4.645,1.41,13.065,5.544,15.979c4.133,2.916,9.621,11.693,12.586,15.412
			c2.964,3.717,9.963,8.826,11.554,8.145c1.319-0.563-12.94-18.235-15.997-20.176c-3.057-1.943-10.696-18.303-10.998-19.367
			C44.399,39.909,42.686,42.106,42.506,42.745z"/>
		<g>
			<path fill="#231F20" d="M56.682,55.953c-0.033,0-0.065-0.002-0.099-0.007c-2.689-0.39-4.123-1.809-4.269-4.22
				c-0.801-0.036-1.882-0.295-2.718-0.701c-1.461-0.709-2.303-1.822-2.434-3.217l-0.063-0.69c-0.198-2.178-0.611-6.709-1.664-7.056
				c-0.231-0.076-0.668-0.141-1.13-0.209c-1.654-0.244-3.918-0.579-4.699-2.25c-0.515-1.102-0.245-2.485,0.824-4.229
				c1.059-1.725,1.423-2.613,1.546-3.045c-0.319,0.147-0.707,0.024-0.881-0.29c-0.183-0.33-0.064-0.745,0.266-0.928
				c0.535-0.297,1.273-0.441,1.738,0.043c0.557,0.582,0.513,1.643-1.506,4.933c-0.55,0.896-1.126,2.133-0.751,2.937
				c0.47,1.006,2.391,1.29,3.662,1.478c0.545,0.081,1.016,0.15,1.358,0.263c1.764,0.581,2.204,3.921,2.596,8.228l0.063,0.686
				c0.065,0.69,0.39,1.248,0.994,1.707c1.104,0.838,2.776,1.022,3.153,0.98c0.199-0.08,0.421-0.069,0.606,0.032
				c0.39,0.212,0.392,0.613,0.393,0.936c0.004,0.913,0.012,2.813,3.112,3.262c0.373,0.054,0.632,0.4,0.578,0.773
				C57.307,55.708,57.015,55.953,56.682,55.953z"/>
		</g>
		<g>
			<g>
				<g>
					<path fill="#C3996B" d="M126.856,86.645c0.91-6.021-2.327-13.309-7.571-20.724c-1.646-0.225-3.208-1.097-4.271-2.557
						c-0.153-0.213-0.288-0.433-0.413-0.654c-0.553,0.843-1.27,1.593-2.149,2.196c-3.685,2.52-8.753,1.522-11.322-2.23
						c-1.448-2.115-1.79-4.654-1.157-6.919c-3.385,1.394-7.437,0.321-9.724-2.822c-2.356-3.238-2.046-7.59,0.528-10.373
						c-1.369-0.357-2.633-1.176-3.535-2.418c-1.465-2.012-1.578-4.585-0.514-6.622c-4.959-3.864-8.963-6.594-10.881-7.587
						c-4.32-2.236-10.911-13.188-18.654-6.182c-1.064,2.759-2.086,5.933-2.229,8.777c-0.858,16.995,22.599,31.584,31.294,45.316
						c5.063,7.997,11.971,11.706,19.197,17.552C112.312,96.946,124.124,104.77,126.856,86.645z"/>
					<path fill="#231F20" d="M118.475,98.618L118.475,98.618c-4.645,0-9.9-3.817-13.45-6.688c-1.805-1.46-3.604-2.796-5.342-4.088
						c-5.216-3.875-10.144-7.535-14.002-13.629c-2.943-4.648-7.579-9.375-12.488-14.379c-9.582-9.769-19.49-19.871-18.911-31.336
						c0.123-2.429,0.845-5.285,2.274-8.989c0.039-0.1,0.1-0.189,0.179-0.26c1.824-1.65,3.758-2.487,5.748-2.487
						c3.865,0,7.286,3.131,10.035,5.646c1.34,1.227,2.606,2.385,3.644,2.922c2.139,1.107,6.349,4.041,10.987,7.655
						c0.26,0.203,0.338,0.562,0.186,0.854c-0.989,1.894-0.813,4.156,0.46,5.904c0.772,1.063,1.893,1.83,3.156,2.16
						c0.232,0.061,0.415,0.238,0.482,0.469c0.067,0.23,0.009,0.479-0.154,0.655c-2.398,2.593-2.6,6.592-0.478,9.508
						c1.431,1.967,3.721,3.141,6.126,3.141c0.965,0,1.902-0.185,2.786-0.548c0.241-0.099,0.518-0.052,0.713,0.121
						c0.195,0.173,0.274,0.443,0.204,0.694c-0.605,2.165-0.217,4.479,1.063,6.35c1.425,2.082,3.764,3.325,6.256,3.325
						c1.477,0,2.901-0.439,4.118-1.272c0.781-0.535,1.442-1.211,1.964-2.007c0.13-0.199,0.349-0.303,0.594-0.308
						c0.238,0.008,0.455,0.14,0.571,0.347c0.113,0.2,0.234,0.398,0.373,0.59c0.917,1.259,2.271,2.069,3.81,2.279
						c0.188,0.026,0.355,0.128,0.465,0.282c5.957,8.423,8.544,15.562,7.689,21.219C126.344,94.624,123.296,98.618,118.475,98.618z
						 M57.77,20.152c-1.336,3.49-2.012,6.166-2.125,8.413c-0.549,10.869,9.146,20.753,18.522,30.313
						c4.961,5.057,9.646,9.834,12.667,14.604c3.723,5.88,8.551,9.467,13.663,13.265c1.75,1.3,3.56,2.644,5.387,4.122
						c3.388,2.74,8.38,6.384,12.591,6.385c4.042,0,6.636-3.604,7.707-10.71c0.793-5.246-1.659-11.972-7.288-19.993
						c-1.731-0.311-3.254-1.241-4.33-2.647c-0.501,0.598-1.079,1.123-1.727,1.566c-1.446,0.989-3.136,1.511-4.889,1.511
						c-2.943,0-5.703-1.464-7.382-3.918c-1.275-1.861-1.798-4.098-1.5-6.287c-0.695,0.176-1.411,0.265-2.14,0.265
						c-2.84,0-5.542-1.384-7.229-3.703c-2.298-3.158-2.282-7.399-0.069-10.448c-1.165-0.498-2.186-1.307-2.938-2.343
						c-1.465-2.013-1.759-4.578-0.812-6.819c-4.344-3.364-8.371-6.163-10.345-7.185c-1.198-0.62-2.467-1.782-3.938-3.127
						c-2.708-2.479-5.778-5.289-9.113-5.289C60.86,18.125,59.317,18.789,57.77,20.152z"/>
				</g>
			</g>
			<path fill="#A78056" d="M121.03,75.497c-2.371-4.268-4.528-8.276-6.711-11.425c-0.471,0.572-6.459,5.76-12.599,0.412
				c-2.071-2.657-3.286-5.52-2.639-7.856c-2.369,0.907-6.878-0.052-9.243-3.302c-2.439-3.352-2.348-7.636,0.297-10.504
				c-1.412-0.371-2.716-1.221-3.649-2.505c-0.017-0.022-0.03-0.048-0.046-0.07c-2.586-1.699-5.024-3.643-7.354-6.445
				c-10.509-12.626-17.375-8.137-17.375-8.137c-3.772,2.831,1.904,5.962,6.333,9.329c4.427,3.364,16.923,21.893,24.356,27.38
				c7.43,5.488,19.553,22.514,25.425,26.854C123.7,93.571,124.292,81.372,121.03,75.497z"/>
			<path fill="#F9C989" d="M62.121,21.35c1.732,1.885-3.352,6.374-1.958,9.141c1.395,2.767,16.186,24.716,19.313,27.582
				c3.127,2.867,16.586,14.833,19.555,19.713c2.969,4.881,14.054,13.695,17.208,14.096c3.154,0.398,6.458,0.848,5.124,2.73
				c-1.919,2.709-7.424,1.572-22.994-12.334c-1.884-1.684-12.529-12.943-13.775-14.677c-1.246-1.732-19.979-21.453-23.954-29.396
				c-1.784-3.565-3.798-7.61-3.98-11.219C56.522,24.253,60.39,19.464,62.121,21.35z"/>
			<g>
				<path fill="#F9C989" d="M77.69,39.507c-0.335,0.816,1.74,1.766,2.529,1.744C80.442,40.238,78.831,38.45,77.69,39.507z"/>
				<path fill="#F9C989" d="M79.718,43.325c-0.501,1.475-0.434,3.031,0.836,4.26C83.067,47.411,79.718,43.325,79.718,43.325z"/>
				<path fill="#F9C989" d="M87.403,46.561c2.109-1.223-2.037-2.761-2.599-2.317C84.805,44.244,85.9,46.516,87.403,46.561z"/>
				<path fill="#F9C989" d="M120.331,82.004c0.424-0.801-1.465-1.986-2.231-2.045C117.761,80.971,119.099,82.967,120.331,82.004z"/>
				<path fill="#F9C989" d="M71.825,34.894c-1.115,1.251,2.666,1.88,3.414,2.252C75.239,37.146,73.14,33.412,71.825,34.894z"/>
				<path fill="#F9C989" d="M82.244,48.708c0,0,2.833,3.804,4.45,2.52C88.258,49.987,82.975,48.935,82.244,48.708z"/>
				<path fill="#F9C989" d="M112.493,65.701c-0.32,0.196-0.645,0.369-0.98,0.513c-0.246,1.12,3.818,2.107,3.818,2.107
					C115.015,67.099,114.169,66.075,112.493,65.701z"/>
				<path fill="#F9C989" d="M113.466,82.538c0.025,1.424,0.666,2.74,2.427,3.398C118.417,85.004,113.466,82.538,113.466,82.538z"/>
				<path fill="#F9C989" d="M109.454,72.927c-1.846,0.412,1.214,4.167,1.582,4.767C111.036,77.694,111.364,72.496,109.454,72.927z"
					/>
				<path fill="#F9C989" d="M91.798,56.708c-0.341,1.014,0.996,3.008,2.229,2.045C94.452,57.951,92.563,56.767,91.798,56.708z"/>
				<path fill="#F9C989" d="M114.609,71.235c0,0,1.101,4.26,2.655,2.979C118.579,73.137,115.218,71.762,114.609,71.235z"/>
				<path fill="#F9C989" d="M98.783,66.667c0.024,1.427,0.665,2.741,2.427,3.4C103.735,69.134,98.783,66.667,98.783,66.667z"/>
				<path fill="#F9C989" d="M109.317,66.801c-0.447,0.053-0.897,0.067-1.347,0.046c0.245,1.063,0.929,1.988,2.313,2.508
					C111.85,68.776,110.538,67.606,109.317,66.801z"/>
			</g>
		</g>
	</g>
	<g>
		<g>
			<path fill="#231F20" d="M95.911,28.76l0.201-0.013l0.208,0.088c0.223-0.015,0.348-0.011,0.371,0.009
				c0.044-0.023,0.121-0.04,0.232-0.047c0.067-0.004,0.186,0.011,0.356,0.044c0.17,0.034,0.301,0.048,0.391,0.042
				c0.069,0.042,0.178,0.091,0.327,0.148c0.15,0.059,0.266,0.107,0.348,0.146c0.08,0.041,0.163,0.113,0.248,0.22
				c0.086,0.107,0.144,0.228,0.175,0.359c0.025,0.044,0.073,0.086,0.143,0.126c0.07,0.041,0.116,0.072,0.14,0.093
				c0.024,0.021,0.044,0.07,0.061,0.147c0.016,0.077,0.024,0.128,0.026,0.149c0.001,0.022,0.015,0.044,0.038,0.065l0.037,0.064
				l0.013,0.201c0.002,0.023,0.033,0.071,0.094,0.146c0.061,0.075,0.093,0.136,0.096,0.18c0.003,0.046,0.011,0.101,0.027,0.167
				c0.016,0.065,0.035,0.121,0.061,0.163c0.002,0.046,0.017,0.102,0.043,0.166c0.027,0.066,0.041,0.11,0.043,0.133l0.006,0.1
				c0.003,0.046,0.001,0.106-0.006,0.187c-0.006,0.079-0.008,0.13-0.007,0.151c0.001,0.022,0.026,0.056,0.074,0.098
				c0.002,0.044,0.019,0.127,0.049,0.249c0.03,0.121,0.048,0.216,0.052,0.282c0.055,0.154,0.073,0.276,0.057,0.367
				c0.003,0.045,0.001,0.118-0.003,0.218c-0.006,0.102-0.005,0.187-0.001,0.254l0.009,0.135c0.062,0.265,0.096,0.453,0.103,0.564
				c0.009,0.134-0.007,0.237-0.048,0.307c0.001,0.022,0.015,0.056,0.039,0.099c0.025,0.043,0.04,0.086,0.043,0.131
				c0.001,0.022-0.003,0.052-0.012,0.085c-0.009,0.035-0.014,0.063-0.012,0.085l0.038,0.065c0.002,0.022,0.003,0.045,0.004,0.067
				l0.003,0.033c-0.021,0.024-0.032,0.047-0.03,0.068c0.001,0.022,0.011,0.073,0.027,0.15c0.016,0.078,0.025,0.139,0.028,0.184
				l0.037,0.065c0.025,0.044,0.039,0.077,0.04,0.098c0.003,0.045-0.004,0.113-0.021,0.204c-0.042,0.048-0.062,0.093-0.059,0.138
				c0.001,0.022,0.011,0.079,0.028,0.166c0.017,0.09,0.026,0.156,0.029,0.201c-0.02,0.047-0.029,0.08-0.028,0.103
				c0.002,0.022,0.005,0.078,0.011,0.168c0.006,0.089-0.014,0.135-0.059,0.138c0.074,0.108,0.114,0.207,0.12,0.296
				c0.002,0.022-0.001,0.073-0.007,0.151c-0.007,0.08-0.009,0.141-0.006,0.186c-0.042,0.048-0.062,0.095-0.06,0.14
				c-0.007,0.605-0.03,0.933-0.072,0.98c0.08,0.196,0.127,0.419,0.143,0.664c0.012,0.18-0.003,0.314-0.042,0.407
				c0.057,0.175,0.088,0.319,0.095,0.432c0.008,0.111-0.01,0.19-0.053,0.238c0.025,0.044,0.048,0.132,0.068,0.266
				c0.019,0.133,0.03,0.222,0.033,0.267l-0.095,0.106c0.024,0.045,0.041,0.11,0.046,0.199c0.006,0.09,0.001,0.202-0.012,0.338
				c-0.014,0.136-0.019,0.237-0.015,0.304l0.009,0.135c-0.06,0.116-0.101,0.187-0.121,0.21c0.013,0.2,0.008,0.313-0.013,0.337
				l0.013,0.2c0.016,0.247-0.024,0.507-0.12,0.782l0.07,0.568c0.02,0.313-0.059,0.509-0.231,0.587
				c0.022,0.021,0.036,0.054,0.039,0.098c0.003,0.046-0.016,0.104-0.057,0.172c-0.041,0.07-0.06,0.129-0.057,0.173
				c-0.042,0.049-0.137,0.148-0.284,0.304c-0.146,0.155-0.275,0.26-0.384,0.311l-0.132,0.042c-0.259,0.173-0.411,0.262-0.454,0.265
				c-0.56,0.035-0.932,0.036-1.111,0.002c-0.022,0.002-0.08-0.018-0.173-0.057s-0.162-0.068-0.207-0.088
				c-0.021,0.002-0.081-0.039-0.176-0.123c-0.318-0.048-0.551-0.18-0.698-0.394c-0.113-0.016-0.224-0.082-0.332-0.198
				c-0.108-0.117-0.176-0.186-0.198-0.205c-0.029-0.089-0.093-0.208-0.191-0.36c-0.099-0.149-0.163-0.269-0.191-0.357
				c-0.024-0.043-0.045-0.104-0.062-0.183c-0.016-0.076-0.024-0.138-0.027-0.183c-0.055-0.131-0.082-0.23-0.087-0.298l-0.025-0.401
				c-0.004-0.067-0.035-0.205-0.094-0.415c-0.058-0.21-0.104-0.392-0.135-0.547s-0.059-0.389-0.078-0.702
				c-0.028-0.088-0.047-0.222-0.059-0.4c-0.008-0.134,0.009-0.226,0.05-0.272c-0.047-0.042-0.075-0.13-0.083-0.265
				c-0.003-0.044,0.002-0.135,0.017-0.27c0.014-0.137,0.018-0.237,0.014-0.304l-0.015-0.235c-0.013-0.201,0.012-0.338,0.075-0.409
				c-0.001-0.021-0.02-0.043-0.055-0.063s-0.054-0.052-0.057-0.098c-0.003-0.044-0.001-0.09,0.009-0.134
				c0.008-0.046,0.011-0.092,0.008-0.137l-0.032-0.503c-0.021-0.336-0.015-0.593,0.02-0.775c-0.025-0.044-0.041-0.12-0.048-0.232
				c-0.006-0.089,0.007-0.225,0.041-0.406c0.033-0.182,0.049-0.295,0.046-0.34l-0.004-0.067c-0.025-0.043-0.038-0.075-0.04-0.098
				l0.029-0.069c-0.001-0.021-0.003-0.045-0.004-0.067c-0.006-0.089-0.015-0.234-0.027-0.436s-0.011-0.347,0.007-0.438
				c0.023-0.315,0.031-0.552,0.021-0.709c-0.001-0.021,0.02-0.057,0.062-0.104c-0.003-0.045-0.017-0.077-0.04-0.098
				c-0.023-0.021-0.037-0.054-0.04-0.099l0.053-0.778l-0.002-0.033l-0.038-0.065c-0.005-0.066,0.013-0.152,0.051-0.255
				c0.039-0.104,0.056-0.178,0.053-0.224c-0.004-0.065-0.007-0.194-0.008-0.386c-0.001-0.19,0.009-0.32,0.027-0.389l0.09-0.175
				c0.023-0.338,0.077-0.543,0.163-0.615c-0.002-0.022-0.014-0.044-0.037-0.064c-0.024-0.021-0.037-0.054-0.04-0.099
				c0.035-0.138,0.053-0.229,0.05-0.273l-0.025-0.402c-0.003-0.045,0.015-0.124,0.053-0.238c0.038-0.115,0.054-0.194,0.052-0.239
				c-0.01-0.155-0.045-0.367-0.107-0.634c0.043-0.046,0.07-0.126,0.085-0.24c0.016-0.113,0.034-0.182,0.055-0.206
				C95.179,28.873,95.487,28.787,95.911,28.76z"/>
		</g>
		<g>
			<path fill="#231F20" d="M110.209,36.663c0.1,0.032,0.303,0.136,0.611,0.309c0.055,0.055,0.132,0.125,0.231,0.213
				c0.1,0.087,0.166,0.136,0.198,0.146l0.149,0.049c0.197,0.064,0.364,0.393,0.5,0.984c0.023,0.153,0.101,0.251,0.232,0.294
				l-0.098,0.132c-0.022,0.067-0.021,0.122,0.001,0.166c-0.128,0.505-0.213,0.962-0.254,1.367c-0.041,0.407-0.064,0.701-0.068,0.881
				c-0.004,0.183-0.018,0.306-0.039,0.371c0.165,0.054,0.329-0.057,0.493-0.332c0.108-0.001,0.209-0.032,0.303-0.093
				c0.093-0.06,0.16-0.103,0.206-0.125c0.042-0.021,0.111-0.036,0.205-0.042c0.093-0.006,0.161-0.021,0.205-0.043
				c0.088-0.045,0.227-0.081,0.419-0.109c0.191-0.028,0.331-0.065,0.419-0.11c0.065,0.021,0.258,0.048,0.577,0.079
				c0.318,0.03,0.56,0.072,0.725,0.127c0.297,0.097,0.506,0.238,0.628,0.423l0.1,0.032c0.065,0.021,0.133,0.07,0.199,0.147
				c0.065,0.075,0.132,0.125,0.198,0.146c0.033,0.011,0.15,0.067,0.355,0.171c0.202,0.103,0.349,0.188,0.438,0.252
				c0.066,0.131,0.116,0.201,0.149,0.213c0.022,0.043,0.062,0.093,0.116,0.147c0.056,0.054,0.094,0.104,0.117,0.146
				c0.1,0.143,0.226,0.367,0.383,0.673c-0.066,0.088-0.076,0.23-0.031,0.428c0.165,0.054,0.276,0.164,0.332,0.327
				c0.23-0.034,0.548-0.113,0.953-0.237c0.404-0.122,0.718-0.185,0.938-0.187c0.525-0.267,1.236-0.437,2.137-0.509
				c0.066,0.021,0.184,0.052,0.355,0.089c0.169,0.037,0.309,0.056,0.42,0.055c1,0.399,1.569,0.894,1.705,1.486
				c0.22,0.108,0.396,0.321,0.53,0.639c0.135,0.317,0.246,0.509,0.334,0.573c-0.021,0.286,0.003,0.494,0.069,0.625l-0.145,0.445
				c-0.129,0.396-0.171,0.693-0.125,0.891c0.011,0.077,0.038,0.158,0.084,0.246c-0.056,0.056-0.11,0.166-0.164,0.33
				c-0.054,0.166-0.09,0.391-0.109,0.676c-0.022,0.066-0.035,0.135-0.039,0.206c-0.007,0.071-0.015,0.124-0.025,0.156l-0.242,0.743
				l-0.11,0.511c-0.043,0.132-0.087,0.21-0.131,0.231c-0.011,0.033-0.098,0.132-0.262,0.298c0.013,0.188,0.014,0.297,0.003,0.329
				c-0.218,0.331-0.385,0.678-0.503,1.041c-0.076,0.231-0.118,0.418-0.129,0.561c-0.032,0.099-0.113,0.182-0.245,0.248
				c0.023,0.154-0.046,0.478-0.207,0.974c-0.075,0.23-0.097,0.405-0.062,0.526c0.396,0.129,0.757,0.193,1.087,0.19
				c0.33-0.002,0.735-0.07,1.218-0.206c0.481-0.135,0.782-0.219,0.902-0.253c0.043-0.021,0.102-0.058,0.173-0.108
				c0.071-0.049,0.128-0.086,0.172-0.107c0.209,0.031,0.455-0.052,0.739-0.252c0.284-0.199,0.531-0.283,0.739-0.252
				c0.152-0.242,0.403-0.344,0.756-0.302c0.314-0.408,0.92-0.703,1.82-0.885c1.106-0.369,1.855-0.545,2.253-0.526
				c0.698-0.355,1.279-0.458,1.742-0.307c0.165,0.053,0.296,0.15,0.396,0.293c0.177,0.24,0.207,0.542,0.089,0.904
				c-0.054,0.166-0.162,0.331-0.326,0.496c-0.055,0.056-0.131,0.122-0.229,0.199c-0.099,0.078-0.176,0.145-0.229,0.199l-0.064,0.198
				c-0.056,0.056-0.146,0.116-0.278,0.183c-0.133,0.066-0.225,0.128-0.278,0.184c-0.1,0.077-0.214,0.204-0.344,0.381
				c-0.152,0.242-0.382,0.441-0.687,0.598c-0.045,0.021-0.154,0.051-0.329,0.084c-0.176,0.034-0.279,0.101-0.312,0.199
				c-0.033-0.011-0.144-0.01-0.329,0.002c-0.034-0.01-0.073-0.004-0.116,0.018l-0.114,0.018c-0.055,0.056-0.148,0.144-0.278,0.265
				c-0.131,0.122-0.24,0.205-0.328,0.249l-0.394,0.201c-0.263,0.134-0.433,0.261-0.508,0.382c-0.109,0.001-0.365,0.082-0.764,0.244
				c-0.399,0.162-0.742,0.232-1.027,0.213c-0.089,0.044-0.229,0.116-0.426,0.216c-0.197,0.102-0.382,0.188-0.551,0.26
				c-0.17,0.072-0.343,0.099-0.517,0.078c-0.505,0.2-0.839,0.273-1.004,0.221c-0.011,0.033-0.057,0.063-0.139,0.091
				c-0.083,0.028-0.151,0.069-0.206,0.125c-0.033-0.011-0.126-0.005-0.279,0.019c-0.888,0.258-1.729,0.439-2.532,0.543l-0.148-0.048
				c-0.165-0.054-0.312-0.047-0.443,0.021c-0.265-0.087-0.461-0.097-0.593-0.029c-0.528-0.172-0.897-0.33-1.106-0.471l-0.134-0.263
				l-0.247-0.08c-0.044-0.089-0.072-0.17-0.083-0.247c-0.133-0.043-0.211-0.086-0.232-0.129c-0.088-0.066-0.116-0.148-0.084-0.247
				c-0.167-0.273-0.25-0.465-0.25-0.574c-0.033-0.011-0.122-0.077-0.265-0.196c-0.046-0.307-0.142-0.52-0.285-0.64
				c-0.012-0.077-0.049-0.243-0.11-0.502c-0.063-0.257-0.071-0.451-0.027-0.584c0.011-0.032,0.042-0.077,0.097-0.132l0.017-0.05
				c-0.045-0.087-0.052-0.181-0.02-0.28l0.016-0.213c-0.012-0.077-0.034-0.203-0.068-0.379s-0.052-0.317-0.052-0.428l0.048-0.148
				c0.064-0.197,0.097-0.497,0.102-0.897c0.002-0.401,0.035-0.756,0.099-1.063c0.011-0.033,0.033-0.071,0.065-0.116
				c0.032-0.044,0.056-0.082,0.066-0.115c0.032-0.099,0.065-0.233,0.104-0.404c0.037-0.17,0.071-0.305,0.104-0.404
				c0.032-0.099,0.092-0.225,0.18-0.379c0.086-0.154,0.14-0.264,0.161-0.33c0.033-0.1,0.037-0.227,0.014-0.38l0.264-0.133
				c0.054-0.056,0.042-0.104-0.033-0.148c-0.079-0.044-0.112-0.081-0.102-0.114l0.064-0.198c0.043-0.132,0.09-0.3,0.139-0.503
				c0.047-0.203,0.087-0.354,0.119-0.453c0.064-0.198,0.123-0.324,0.178-0.38s0.066-0.116,0.033-0.182
				c-0.035-0.065-0.045-0.114-0.034-0.147s0.057-0.119,0.138-0.257s0.132-0.239,0.154-0.306c0.031-0.099,0.036-0.17,0.016-0.214
				c-0.232-0.075-0.49-0.067-0.773,0.021c-0.034-0.011-0.057,0.001-0.067,0.034l-0.081,0.082c-0.033-0.011-0.102-0.023-0.206-0.039
				s-0.179-0.013-0.222,0.01c-0.121,0.033-0.24,0.123-0.36,0.266c-0.077,0.012-0.235,0.106-0.476,0.283
				c-0.099-0.033-0.16-0.07-0.182-0.114l-0.032,0.099l-0.441,0.349c-0.044,0.133-0.187,0.342-0.425,0.629
				c0.023,0.264-0.03,0.428-0.161,0.495c0.066,0.131,0.095,0.323,0.086,0.575l-0.129,0.396c-0.086,0.265-0.118,0.473-0.094,0.627
				c-0.04,0.791-0.08,1.252-0.123,1.384c-0.011,0.033-0.039,0.061-0.082,0.083c-0.044,0.021-0.06,0.072-0.048,0.148
				c-0.055,0.056-0.049,0.093,0.018,0.115c0.065,0.021,0.093,0.049,0.082,0.081c-0.064,0.198-0.156,0.507-0.273,0.924
				c-0.118,0.418-0.203,0.71-0.257,0.874c-0.044,0.023-0.104,0.067-0.181,0.133c-0.077,0.067-0.147,0.09-0.213,0.068l-0.1-0.033
				c-0.184,0.452-0.605,0.569-1.266,0.354l-0.197-0.064c-0.166-0.054-0.497-0.381-0.994-0.981c-0.035-0.12-0.138-0.336-0.309-0.647
				c-0.173-0.312-0.255-0.594-0.246-0.847c-0.1-0.142-0.178-0.377-0.234-0.705c-0.058-0.329-0.098-0.516-0.119-0.56l0.032-0.099
				c0.043-0.132,0.048-0.313,0.013-0.544c0.011-0.032,0.034-0.079,0.074-0.14c0.037-0.062,0.061-0.108,0.071-0.141
				c-0.111-0.328-0.097-0.707,0.043-1.137c0.064-0.198,0.128-0.341,0.194-0.43c-0.035-0.23-0.015-0.46,0.061-0.691l0.355-1.089
				c0.01-0.032,0.016-0.077,0.016-0.132c-0.001-0.055,0.01-0.114,0.032-0.182l0.048-0.148c0.021-0.065,0.023-0.156,0.007-0.271
				c-0.018-0.115-0.021-0.188-0.01-0.223c-0.033-0.01-0.023-0.098,0.03-0.264l0.114-0.182c0.043-0.131,0.045-0.305,0.005-0.518
				c-0.041-0.214-0.049-0.354-0.027-0.42L113.4,43.67c-0.429-0.14-0.874-0.12-1.333,0.059c-0.12,0.034-0.246,0.084-0.377,0.15
				c-0.416,0.157-0.685,0.307-0.804,0.45c-0.011,0.033-0.038,0.089-0.082,0.165c-0.043,0.077-0.088,0.127-0.13,0.149
				c-0.24,0.287-0.376,0.48-0.408,0.579c-0.021,0.066-0.054,0.193-0.096,0.379c-0.044,0.187-0.079,0.33-0.111,0.429
				c-0.076,0.121-0.175,0.364-0.293,0.727c-0.097,0.297-0.139,0.538-0.126,0.725c-0.306,0.267-0.545,0.663-0.716,1.19
				c-0.044,0.133-0.102,0.333-0.169,0.603c-0.07,0.27-0.127,0.47-0.17,0.602c-0.119,0.144-0.279,0.384-0.48,0.72
				s-0.339,0.564-0.415,0.686c-0.472,0.103-0.763,0.209-0.869,0.318c-0.529-0.063-0.841-0.108-0.94-0.141
				c-0.197-0.064-0.325-0.125-0.38-0.179c-0.033-0.011-0.066-0.077-0.1-0.197c-0.033-0.011-0.069-0.013-0.107-0.008
				c-0.039,0.006-0.09-0.002-0.156-0.023c0.021-0.066-0.004-0.156-0.076-0.271c-0.072-0.114-0.108-0.227-0.109-0.336
				c-0.675-0.731-0.728-1.971-0.157-3.72l0.29-0.891c0.031-0.209,0.102-0.479,0.209-0.809c0.021-0.065,0.047-0.167,0.072-0.305
				c0.027-0.137,0.045-0.223,0.056-0.256c0.021-0.175,0.097-0.434,0.226-0.775c0.13-0.341,0.215-0.577,0.258-0.709
				c-0.033-0.23-0.046-0.361-0.035-0.396l0.032-0.099c0.032-0.1,0.122-0.262,0.269-0.487s0.236-0.389,0.269-0.487
				c0.043-0.132,0.054-0.22,0.031-0.264c0.042-0.132,0.104-0.203,0.179-0.216c-0.043-0.087-0.034-0.229,0.03-0.428
				c0.011-0.032,0.047-0.112,0.105-0.239c0.061-0.126,0.101-0.223,0.122-0.289l0.032-0.1l0.064-0.033
				c0.043-0.021,0.088-0.044,0.132-0.066c0.011-0.033-0.006-0.065-0.05-0.099c-0.044-0.032-0.04-0.076,0.015-0.132l0.307-0.94
				c0.011-0.032,0.093-0.115,0.245-0.248l0.032-0.1c0.086-0.264,0.167-0.401,0.245-0.413c0.062-0.418,0.104-0.658,0.126-0.725
				c0.15-0.462,0.407-0.635,0.771-0.516c0.209,0.032,0.411-0.031,0.608-0.186C109.785,36.561,110.044,36.609,110.209,36.663z"/>
		</g>
		<g>
			<path fill="#231F20" d="M105.198,32.913c-0.353,0.508-0.893,0.914-1.553,1.034c-0.365,0.066-0.768-0.271-0.59-0.61
				c0.568-1.196,0.988-2.263,1.211-3.294c0.228-0.998,1.039-1.794,2.052-2.046c0.655-0.155,1.271,0.417,1.01,1.045
				C106.758,30.409,106.159,31.439,105.198,32.913z"/>
		</g>
	</g>
	<g>
		<path fill="#231F20" d="M27.972,42.668c-0.027,0.002-0.098,0.159-0.21,0.473c-0.153,0.15-0.266,0.296-0.336,0.441
			c-0.082,0.007-0.181,0.062-0.296,0.168s-0.229,0.164-0.338,0.173c-0.127,0.147-0.23,0.212-0.315,0.19
			c-0.025,0.029-0.05,0.072-0.072,0.131L26.37,44.33c-0.107,0.036-0.252,0.124-0.434,0.263c-0.182,0.14-0.368,0.218-0.56,0.232
			c-0.044,0.142-0.2,0.258-0.468,0.349c-0.269,0.091-0.428,0.166-0.479,0.226c-0.282-0.087-0.438-0.131-0.465-0.128
			c-0.027,0.002-0.037,0.045-0.031,0.126L23.9,45.483c-0.053,0.032-0.126,0.065-0.22,0.101s-0.166,0.068-0.219,0.102
			c-0.053,0.031-0.074,0.089-0.068,0.171c-0.03-0.026-0.086-0.035-0.168-0.027c-0.027,0.002-0.088,0.02-0.182,0.055
			c-0.094,0.036-0.169,0.041-0.226,0.02c-0.027,0.002-0.07-0.016-0.128-0.052c-0.059-0.037-0.115-0.053-0.17-0.049
			c-0.058-0.022-0.09,0.001-0.098,0.07c-0.009,0.069-0.026,0.106-0.053,0.108l-0.083,0.006c-0.081,0.008-0.189,0.043-0.321,0.109
			c-0.133,0.065-0.213,0.1-0.24,0.103l-0.085-0.034c-0.24,0.103-0.374,0.155-0.401,0.157c-0.082,0.006-0.168-0.028-0.257-0.104
			c-0.022,0.057-0.062,0.087-0.116,0.092c-0.109,0.01-0.298,0.072-0.563,0.191c-0.267,0.118-0.469,0.183-0.605,0.194l-0.082,0.007
			c-0.093-0.132-0.209-0.19-0.346-0.18l-0.082,0.008c-0.082,0.006-0.16,0.068-0.232,0.185c-0.074,0.115-0.125,0.175-0.152,0.177
			l-0.122,0.011c-0.082,0.007-0.19,0.035-0.323,0.088c-0.135,0.053-0.229,0.081-0.283,0.085c-0.109,0.01-0.209-0.023-0.297-0.099
			c-0.028,0.002-0.095,0.042-0.198,0.119c-0.104,0.076-0.183,0.132-0.234,0.164c-0.056,0.004-0.139-0.01-0.251-0.042
			c-0.113-0.031-0.197-0.046-0.252-0.041c-0.027,0.002-0.067,0.019-0.12,0.051c-0.215,0.073-0.374,0.141-0.479,0.205
			c-0.096-0.157-0.166-0.167-0.209-0.024c-0.062-0.078-0.148-0.119-0.258-0.123c-0.111-0.006-0.196-0.033-0.255-0.083
			c-0.025,0.028-0.078,0.055-0.159,0.075c-0.081,0.02-0.135,0.045-0.159,0.074c-0.058-0.023-0.127-0.031-0.209-0.023
			c-0.058-0.023-0.113-0.032-0.168-0.027c-0.079,0.033-0.112,0.146-0.097,0.338l0.014,0.164c-0.033,0.278-0.038,0.541-0.018,0.787
			l0.026,0.329c0.027,0.329-0.011,0.553-0.11,0.671c0.059,0.051,0.094,0.131,0.103,0.24c0.015,0.191,0.013,0.33-0.008,0.413
			c0.116,0.074,0.298,0.101,0.544,0.081l0.287-0.024c0.055-0.005,0.13-0.018,0.225-0.039c0.095-0.022,0.156-0.033,0.184-0.036
			l0.616-0.05c0.024-0.029,0.081-0.007,0.171,0.069c0.055-0.005,0.081-0.021,0.078-0.048c0.025-0.03,0.052-0.046,0.079-0.048
			c0.194,0.01,0.458-0.037,0.795-0.148c0.336-0.109,0.603-0.131,0.801-0.065c0.16-0.068,0.267-0.104,0.322-0.108
			c0.027-0.002,0.098,0.019,0.212,0.065c0.027-0.003,0.062-0.013,0.102-0.029s0.073-0.026,0.101-0.029l0.579-0.006l0.167,0.027
			c0.027-0.002,0.127,0.031,0.298,0.101l0.287-0.023c0.056-0.005,0.111,0.018,0.172,0.068l0.246-0.021
			c0.059,0.05,0.103,0.074,0.13,0.073l0.041-0.004c0.025-0.029,0.053-0.032,0.083-0.007c0.002,0.026,0.016,0.04,0.044,0.037
			c0.082-0.007,0.185-0.015,0.308-0.024c0.123-0.011,0.213-0.005,0.271,0.02c0.029,0.023,0.08,0.056,0.151,0.09
			c0.071,0.036,0.122,0.066,0.152,0.092c0.272-0.023,0.454-0.01,0.541,0.038l0.123-0.011c0.054-0.004,0.145,0.002,0.271,0.02
			c0.125,0.018,0.215,0.024,0.271,0.02l0.164-0.014l0.616-0.051c0.246-0.021,0.429,0.02,0.548,0.122
			c0.024-0.031,0.035-0.073,0.03-0.127l0.329-0.028c0.029,0.025,0.081,0.07,0.155,0.133s0.14,0.105,0.197,0.129
			c0.055-0.005,0.086-0.035,0.096-0.091c0.01-0.057,0.026-0.099,0.052-0.128l0.037-0.045l0.042-0.002
			c0.055-0.005,0.124,0.01,0.21,0.044s0.142,0.05,0.169,0.048c0.247-0.02,0.385-0.019,0.414,0.007
			c0.083-0.006,0.148-0.039,0.199-0.099c0.278,0.033,0.459,0.047,0.541,0.038c0.109-0.008,0.189-0.029,0.242-0.061
			c0.145,0.071,0.328,0.125,0.552,0.162c0.062,0.077,0.079,0.206,0.053,0.388s-0.011,0.297,0.048,0.348
			c0.006,0.055-0.004,0.11-0.026,0.168c-0.023,0.058-0.034,0.1-0.031,0.127c0.005,0.055,0.028,0.094,0.072,0.118
			c0.043,0.023,0.065,0.05,0.067,0.077c-0.025,0.029-0.041,0.093-0.046,0.19c-0.007,0.096-0.008,0.158-0.006,0.187
			c0.004,0.054-0.011,0.117-0.046,0.189c-0.036,0.071-0.065,0.136-0.088,0.193l0.026,0.328c0.009,0.109-0.034,0.251-0.13,0.426
			c-0.097,0.172-0.141,0.313-0.131,0.423l0.006,0.083c-0.051,0.059-0.116,0.175-0.199,0.346c-0.082,0.173-0.148,0.288-0.199,0.348
			c-0.212,0.101-0.43,0.305-0.652,0.612s-0.429,0.497-0.615,0.566c-0.051,0.061-0.128,0.135-0.229,0.227
			c-0.104,0.091-0.18,0.166-0.23,0.226c-0.384,0.03-0.593,0.007-0.626-0.073c-0.027,0.002-0.047,0.024-0.057,0.066
			c-0.011,0.043-0.029,0.064-0.057,0.067L24.761,56c-0.22,0.019-0.401,0.145-0.548,0.376c-0.16,0.068-0.322,0.11-0.487,0.123
			l-0.862,0.07c-0.104,0.064-0.185,0.098-0.239,0.103l-0.247,0.02c-0.055,0.005-0.13,0.018-0.224,0.04
			c-0.096,0.021-0.156,0.033-0.184,0.036c-0.11,0.008-0.182-0.026-0.216-0.106l-0.41,0.033c-0.302,0.024-0.482,0.012-0.541-0.039
			c-0.028,0.002-0.075,0.02-0.14,0.053c-0.067,0.032-0.129,0.038-0.186,0.015c-0.105,0.064-0.321,0.116-0.649,0.157
			c-0.327,0.04-0.556,0.12-0.683,0.242c-0.059-0.022-0.155-0.029-0.291-0.018c-0.056,0.005-0.144,0.019-0.266,0.042
			s-0.211,0.037-0.266,0.043l-0.171-0.069l-0.247,0.021c-0.027,0.002-0.042-0.011-0.044-0.037c-0.03-0.025-0.059-0.037-0.085-0.035
			l-0.165,0.014c-0.084-0.021-0.143-0.058-0.174-0.11c-0.058-0.021-0.098-0.006-0.12,0.052c0.002,0.026-0.012,0.042-0.038,0.045
			c-0.058-0.023-0.161-0.036-0.313-0.038c-0.152-0.001-0.255,0.002-0.309,0.006c-0.028,0.002-0.078-0.009-0.148-0.029
			c-0.07-0.023-0.119-0.032-0.146-0.03c-0.027,0.003-0.088,0.029-0.18,0.077c-0.094,0.049-0.18,0.077-0.263,0.084l-0.164,0.013
			l-0.534,0.044c-0.086-0.048-0.24-0.07-0.46-0.065c-0.221,0.004-0.372-0.005-0.457-0.024c-0.036-0.107-0.098-0.185-0.185-0.233
			c-0.086-0.048-0.193-0.087-0.319-0.118c-0.127-0.03-0.22-0.072-0.279-0.123c-0.105,0.064-0.227,0.102-0.362,0.113
			c-0.109,0.01-0.182-0.013-0.213-0.065c-0.058-0.023-0.084-0.015-0.08,0.027c0.003,0.041-0.01,0.063-0.036,0.064
			c-0.109,0.01-0.612-0.06-1.507-0.207c-0.029-0.025-0.074-0.077-0.136-0.154c-0.056,0.004-0.125-0.005-0.21-0.024
			c-0.083-0.021-0.14-0.03-0.166-0.027l-0.038,0.045c-0.056,0.004-0.097,0.007-0.124,0.01c-0.086-0.049-0.205-0.066-0.355-0.054
			c-0.15,0.012-0.269,0.007-0.353-0.013c-0.028,0.002-0.083-0.007-0.168-0.027l-0.082,0.006c-0.028,0.002-0.071-0.021-0.13-0.071
			c-0.06-0.051-0.117-0.088-0.175-0.11c-0.138,0.012-0.244-0.035-0.321-0.14c-0.078-0.104-0.13-0.154-0.157-0.151l-0.044-0.038
			c-0.058-0.022-0.102-0.048-0.131-0.072c-0.059-0.051-0.141-0.127-0.246-0.229s-0.172-0.164-0.201-0.189l-0.033-0.411
			c-0.007-0.082-0.02-0.226-0.035-0.431c-0.018-0.206-0.043-0.349-0.076-0.429L8.107,53.64c-0.019-0.22-0.005-0.386,0.042-0.5
			c0.021-0.057,0.077-0.144,0.165-0.261c0.087-0.117,0.142-0.205,0.164-0.262L8.434,52.58L8.39,52.542l0.206-0.514
			C8.593,52,8.63,51.95,8.708,51.875c0.076-0.076,0.124-0.156,0.146-0.24c0.024-0.029,0.089-0.083,0.193-0.161
			c0.103-0.077,0.181-0.146,0.231-0.204c0.052-0.032,0.131-0.072,0.238-0.123c0.105-0.05,0.185-0.092,0.237-0.123
			c0.054-0.032,0.088-0.021,0.106,0.033c0.018,0.053,0.041,0.079,0.068,0.076c0.041-0.168,0.172-0.262,0.391-0.28l0.329-0.025
			c0.027-0.002,0.081-0.021,0.16-0.055c0.081-0.034,0.147-0.054,0.202-0.059c0.053-0.032,0.12-0.051,0.202-0.058
			s0.138-0.011,0.165-0.014l0.041-0.003c0.024-0.029,0.051-0.046,0.079-0.048l0.122-0.01c0.329-0.027,0.518-0.084,0.565-0.17
			c-0.13-0.238-0.208-0.521-0.234-0.85l-0.104-1.273c-0.027-0.33-0.093-0.627-0.197-0.894c-0.027,0.001-0.084-0.015-0.169-0.05
			c-0.086-0.033-0.156-0.049-0.211-0.044l-0.083,0.006c-0.035-0.107-0.172-0.171-0.408-0.193c-0.236-0.021-0.383-0.046-0.439-0.067
			l-0.862,0.07c-0.028,0.002-0.07-0.008-0.127-0.031c-0.082,0.007-0.137,0.025-0.161,0.055c-0.062-0.076-0.156-0.146-0.285-0.203
			c-0.129-0.06-0.209-0.102-0.238-0.126c-0.029-0.025-0.061-0.064-0.092-0.117c-0.032-0.053-0.063-0.091-0.092-0.115
			c-0.003-0.028-0.075-0.063-0.217-0.107c-0.088-0.074-0.194-0.19-0.317-0.346c-0.144-0.071-0.263-0.172-0.355-0.302l-0.007-0.082
			c-0.004-0.055-0.037-0.115-0.098-0.179c-0.061-0.064-0.092-0.11-0.094-0.137l-0.02-0.247c-0.064-0.105-0.098-0.185-0.103-0.24
			c-0.007-0.081,0.016-0.228,0.067-0.439c0.052-0.21,0.073-0.371,0.064-0.48l-0.018-0.205c-0.002-0.027,0.011-0.043,0.038-0.045
			l0.034-0.086c0.022-0.057,0.033-0.112,0.028-0.167c-0.005-0.056-0.009-0.097-0.011-0.124s0.01-0.055,0.035-0.085
			c0.052-0.032,0.089-0.076,0.113-0.133c-0.002-0.027,0.006-0.077,0.029-0.147c0.021-0.071,0.031-0.12,0.028-0.147
			c0.048-0.087,0.16-0.234,0.337-0.441l0.112-0.134c0.221-0.348,0.343-0.523,0.371-0.525c0.237-0.461,0.535-0.705,0.892-0.734
			c0.075-0.089,0.153-0.138,0.236-0.144l0.328-0.026l0.36-0.154l0.29,0.018c0.083-0.007,0.202-0.058,0.36-0.153
			c0.157-0.096,0.277-0.146,0.359-0.153l0.123-0.01c0.055-0.006,0.138-0.006,0.248,0c0.11,0.004,0.193,0.005,0.249,0l0.123-0.01
			c0.027-0.003,0.069,0.015,0.128,0.052c0.058,0.036,0.101,0.054,0.128,0.052l0.083-0.007c0.239-0.103,0.496-0.165,0.771-0.188
			l0.821-0.067c0.026-0.002,0.054-0.012,0.081-0.026c0.025-0.017,0.052-0.026,0.08-0.027l0.164-0.015
			c0.164-0.013,0.274-0.008,0.332,0.015c0.215-0.072,0.363-0.113,0.445-0.119c0.219-0.018,0.414,0.008,0.585,0.076l0.164-0.014
			c0.411-0.032,0.66-0.026,0.747,0.022c0.073-0.116,0.178-0.181,0.314-0.191c0.027-0.002,0.09-0.001,0.187,0.005
			s0.173,0.007,0.228,0.002c0.051-0.06,0.104-0.091,0.158-0.095c0.109-0.01,0.248,0,0.416,0.027s0.277,0.039,0.334,0.035
			l0.082-0.007c0.026-0.002,0.086-0.035,0.178-0.098c0.091-0.063,0.163-0.11,0.216-0.142l0.164-0.014
			c0.083-0.007,0.241-0.006,0.477,0.003c0.234,0.009,0.421,0.007,0.558-0.004l0.164-0.014c0.027-0.002,0.088-0.015,0.184-0.036
			c0.095-0.022,0.169-0.034,0.225-0.038l0.081-0.008c0.027-0.003,0.069,0.009,0.128,0.031c0.057,0.022,0.111,0.031,0.167,0.028
			c0.027-0.003,0.096-0.016,0.204-0.038c0.107-0.022,0.189-0.036,0.244-0.04c0.082-0.008,0.151,0.001,0.209,0.024
			c0.027-0.003,0.053-0.025,0.077-0.069c0.023-0.043,0.049-0.065,0.077-0.067c0.938,0.005,1.42,0.008,1.448,0.005
			c0.054-0.004,0.139,0.016,0.253,0.063c0.114,0.046,0.212,0.064,0.294,0.059l0.329-0.026c0.113,0.045,0.227,0.077,0.339,0.096
			c0.052-0.032,0.079-0.034,0.082-0.007l0.044,0.037c0.027-0.002,0.089-0.007,0.186-0.015c0.096-0.008,0.159,0.015,0.191,0.067
			c0.082-0.007,0.584,0.062,1.506,0.208c0.029,0.023,0.08,0.048,0.15,0.07c0.07,0.021,0.121,0.059,0.154,0.111l0.082-0.007
			c0.273-0.023,0.571,0.242,0.893,0.796C27.722,41.13,27.838,41.713,27.972,42.668z"/>
		<path fill="#231F20" d="M30.872,59.782c0.021,0.051,0.018,0.112-0.012,0.185c-0.029,0.071-0.033,0.133-0.012,0.185
			c0.053,0.482,0.066,0.761,0.037,0.833c0.042,0.101,0.061,0.183,0.057,0.244c-0.004,0.061-0.033,0.149-0.09,0.263
			c-0.058,0.112-0.089,0.199-0.092,0.261c-0.381,0.16-0.693,0.231-0.938,0.215c-0.065,0.058-0.112,0.144-0.137,0.26
			c-0.026,0.115-0.078,0.188-0.153,0.22c-0.051,0.021-0.107,0.03-0.168,0.025c-0.063-0.003-0.132-0.011-0.211-0.022
			c-0.08-0.011-0.15-0.02-0.211-0.023c-0.109,0.165-0.227,0.244-0.349,0.236c-0.065,0.057-0.077,0.136-0.034,0.236l-0.076,0.033
			c-0.051,0.021-0.101,0.079-0.15,0.175c-0.049,0.095-0.087,0.148-0.111,0.158c-0.131,0.115-0.247,0.194-0.348,0.236
			c-0.051,0.021-0.352,0.087-0.9,0.199c-0.03,0.07-0.082,0.123-0.158,0.155c-0.025,0.011-0.073,0.022-0.142,0.037
			c-0.068,0.014-0.128,0.031-0.179,0.053l-0.114,0.047c-0.025,0.011-0.098,0.086-0.218,0.227l-0.114,0.048
			c-0.051,0.021-0.13,0.046-0.235,0.077c-0.107,0.029-0.186,0.055-0.236,0.076c-0.102,0.042-0.193,0.11-0.272,0.204
			c-0.076,0.031-0.15,0.032-0.222,0.003c-0.076,0.033-0.218,0.121-0.424,0.268c-0.207,0.146-0.374,0.247-0.5,0.3l-0.153,0.063
			c-0.075,0.032-0.181,0.046-0.316,0.044c-0.136-0.003-0.229,0.007-0.279,0.027c-0.025,0.011-0.074,0.106-0.147,0.286
			c-0.232,0.157-0.373,0.246-0.424,0.268c-0.063,0.206-0.212,0.386-0.443,0.543c-0.04,0.046-0.084,0.05-0.13,0.011
			c-0.072-0.029-0.121-0.039-0.146-0.029c-0.476,0.289-0.726,0.439-0.751,0.45c-0.04,0.046-0.123,0.096-0.25,0.149l-0.266,0.111
			c-0.254,0.106-0.438,0.198-0.555,0.277c-0.051,0.021-0.119,0.072-0.204,0.152c-0.085,0.082-0.166,0.138-0.242,0.169
			c-0.04,0.047-0.098,0.086-0.174,0.118c-0.101,0.043-0.217,0.104-0.345,0.189c-0.13,0.084-0.268,0.18-0.417,0.287
			c-0.148,0.107-0.268,0.194-0.358,0.263l-0.357,0.104c-0.229,0.097-0.337,0.156-0.327,0.183c-0.065,0.056-0.152,0.167-0.262,0.333
			c-0.11,0.165-0.173,0.266-0.187,0.302l-0.154,0.378c-0.097,0.338-0.087,0.646,0.031,0.926c0.142,0.268,0.303,0.438,0.482,0.512
			s0.473,0.025,0.878-0.145l0.191-0.08c0.024-0.01,0.055-0.009,0.091,0.006s0.066,0.018,0.093,0.007l0.52-0.04l0.152-0.064
			l0.456-0.19c0.075-0.032,0.192-0.036,0.352-0.014c0.044-0.108,0.079-0.167,0.104-0.178c1.294-0.395,2.05-0.652,2.268-0.773
			c0.051-0.021,0.117-0.058,0.201-0.107s0.15-0.085,0.201-0.106c0.025-0.01,0.065-0.021,0.122-0.028
			c0.056-0.009,0.097-0.019,0.122-0.029c0.05-0.021,0.111-0.055,0.182-0.099c0.07-0.045,0.119-0.072,0.145-0.082
			c0.101-0.043,0.261-0.088,0.479-0.136c0.219-0.047,0.354-0.08,0.404-0.102s0.105-0.052,0.163-0.092
			c0.058-0.038,0.1-0.063,0.125-0.074c0.051-0.021,0.137-0.028,0.26-0.021c0.025-0.01,0.052-0.036,0.08-0.077
			c0.026-0.041,0.065-0.072,0.116-0.094c0.184,0.013,0.352-0.014,0.504-0.077c0.101-0.043,0.265-0.133,0.489-0.272
			c0.225-0.139,0.4-0.235,0.527-0.289l0.076-0.031c0.024-0.012,0.061-0.032,0.105-0.067c0.045-0.034,0.081-0.056,0.106-0.066
			l1.064-0.447l0.646-0.271l1.293-0.541l0.617-0.127l0.266-0.111c0.102-0.042,0.244-0.095,0.428-0.155
			c0.182-0.063,0.323-0.114,0.426-0.157l0.228-0.096c0.107,0.044,0.231,0.126,0.372,0.246l0.371,0.246
			c0.082,0.055,0.213,0.225,0.392,0.507l0.343,0.393c0.012,0.024,0.024,0.093,0.042,0.205c0.018,0.111,0.031,0.181,0.042,0.207
			c0.117,0.278,0.168,0.436,0.153,0.472c0.157,0.231,0.263,0.41,0.315,0.537l0.064,0.152c0.063,0.152,0.091,0.378,0.083,0.68
			c-0.008,0.301,0.016,0.516,0.068,0.642c-0.153,0.273-0.234,0.472-0.242,0.595c-0.051,0.021-0.104,0.072-0.158,0.155
			c-0.055,0.082-0.095,0.13-0.12,0.14c-0.04,0.047-0.11,0.092-0.212,0.134c-0.051,0.022-0.148,0.056-0.293,0.101
			c-0.146,0.045-0.255,0.086-0.331,0.117c-0.025,0.011-0.076,0.031-0.152,0.064l-0.092-0.008c-0.025,0.012-0.059,0.04-0.098,0.087
			c-0.041,0.046-0.073,0.075-0.098,0.087c-0.077,0.03-0.196,0.064-0.358,0.104c-0.163,0.038-0.282,0.073-0.358,0.105
			c-0.151,0.064-0.255,0.137-0.311,0.22c-0.335,0.052-0.541,0.094-0.617,0.126c-0.152,0.063-0.276,0.159-0.37,0.29
			c-0.036-0.016-0.099-0.004-0.187,0.033c-0.09,0.037-0.159,0.066-0.21,0.088c-0.024,0.01-0.073,0.001-0.146-0.029
			c-0.073-0.029-0.159-0.022-0.26,0.021c-0.102,0.042-0.259,0.167-0.469,0.376l-0.266,0.111c-0.203,0.084-0.383,0.085-0.536,0.001
			c-0.329,0.139-0.53,0.192-0.603,0.163c-0.051,0.021-0.07,0.045-0.06,0.07c-0.03,0.072-0.058,0.113-0.082,0.124
			c-0.062-0.005-0.13,0.01-0.206,0.041c-0.051,0.022-0.111,0.055-0.183,0.099c-0.07,0.045-0.119,0.072-0.144,0.084
			c-0.055,0.082-0.147,0.181-0.277,0.295L26.58,74.37c-0.203,0.086-0.331,0.17-0.386,0.252c-0.051,0.021-0.098,0.018-0.139-0.009
			c-0.041-0.028-0.087-0.03-0.138-0.009c-0.052,0.021-0.133,0.092-0.245,0.214c-0.113,0.121-0.207,0.198-0.283,0.23
			c-0.025,0.011-0.1,0.012-0.223,0.003c-0.039,0.048-0.174,0.119-0.401,0.215c-0.12,0.14-0.193,0.215-0.218,0.226l-0.115,0.047
			c-0.151,0.064-0.271,0.099-0.357,0.106c-0.025,0.011-0.1,0.012-0.222,0.004c-0.087,0.007-0.219,0.048-0.396,0.121
			c-0.203,0.085-0.52,0.255-0.949,0.51s-0.764,0.417-1.002,0.488c-0.025,0.011-0.078,0.025-0.16,0.045
			c-0.081,0.02-0.147,0.039-0.197,0.061c-0.199,0.023-0.461,0.074-0.787,0.151c-0.574,0.122-0.959,0.164-1.153,0.127
			c-0.194-0.038-0.311-0.063-0.346-0.079c-0.231-0.052-0.364-0.086-0.399-0.101l-0.229,0.097c-0.047-0.041-0.121-0.077-0.224-0.107
			c-0.103-0.031-0.178-0.068-0.224-0.107c-0.063-0.005-0.126-0.016-0.192-0.031c-0.067-0.017-0.126-0.014-0.176,0.008
			c-0.554-0.395-1.195-0.826-1.929-1.293l-0.079-0.189c-0.205-0.063-0.327-0.103-0.362-0.117c-0.031-0.076-0.106-0.164-0.223-0.264
			c-0.117-0.102-0.19-0.188-0.223-0.265c-0.047-0.04-0.088-0.104-0.125-0.193c-0.038-0.089-0.083-0.159-0.135-0.212
			s-0.108-0.08-0.169-0.085c-0.047-0.04-0.108-0.133-0.185-0.279c-0.077-0.146-0.156-0.248-0.238-0.303
			c0.014-0.035-0.001-0.089-0.045-0.159c-0.046-0.071-0.072-0.119-0.083-0.145c-0.037-0.016-0.159-0.201-0.37-0.561
			c-0.138-0.33-0.227-0.575-0.265-0.738c-0.039-0.163-0.082-0.39-0.13-0.682c-0.05-0.293-0.1-0.504-0.152-0.63
			c-0.012-0.025-0.013-0.1-0.004-0.223c-0.307-0.586-0.346-1.105-0.118-1.559c-0.043-0.103-0.056-0.239-0.038-0.41
			s0.011-0.295-0.021-0.371l-0.102-0.136c0.096-0.338,0.119-0.602,0.07-0.79c0.045-0.106,0.066-0.303,0.067-0.586
			c-0.001-0.283,0.06-0.495,0.181-0.635c-0.078-0.325-0.038-0.551,0.118-0.677c-0.014-0.172,0.044-0.39,0.173-0.653
			c0.128-0.262,0.199-0.411,0.214-0.446c0.051-0.021,0.103-0.059,0.155-0.11s0.097-0.07,0.134-0.056
			c-0.011-0.026-0.024-0.057-0.04-0.096c-0.017-0.037-0.022-0.087-0.019-0.148c0.04-0.047,0.139-0.186,0.296-0.415
			c0.156-0.229,0.306-0.39,0.447-0.479c0.05-0.021,0.108-0.061,0.174-0.117c0.065-0.058,0.111-0.091,0.137-0.103
			c0.05-0.021,0.166-0.099,0.348-0.235c0.182-0.136,0.336-0.229,0.462-0.283c0.127-0.052,0.233-0.084,0.32-0.09
			c0.109-0.165,0.273-0.234,0.494-0.207c0.12-0.14,0.352-0.297,0.696-0.471c0.344-0.175,0.541-0.272,0.592-0.294
			c0.077-0.031,0.191-0.11,0.349-0.235c0.155-0.125,0.272-0.203,0.348-0.235c0.051-0.021,0.117-0.058,0.201-0.106
			c0.084-0.05,0.15-0.085,0.201-0.107c0.151-0.064,0.365-0.124,0.64-0.179l0.061-0.07c0.04-0.047,0.066-0.088,0.082-0.123l0.19-0.08
			c0.126-0.053,0.305-0.144,0.534-0.271c0.23-0.126,0.409-0.216,0.535-0.269c0.051-0.021,0.113-0.032,0.188-0.033
			c0.073-0.002,0.123-0.008,0.149-0.019c0.075-0.032,0.174-0.081,0.296-0.146c0.121-0.066,0.22-0.115,0.296-0.146
			c0.051-0.021,0.151-0.049,0.302-0.082c0.149-0.033,0.263-0.065,0.338-0.098c0.076-0.031,0.207-0.095,0.392-0.187
			c0.185-0.093,0.327-0.16,0.429-0.202c0.127-0.054,0.223-0.109,0.288-0.166c0.062,0.004,0.146,0.028,0.255,0.072
			c0.024-0.01,0.045-0.034,0.059-0.07c0.004-0.062,0.032-0.103,0.083-0.124c0.086-0.006,0.219-0.047,0.396-0.121l0.95-0.398
			c0.04-0.047,0.111-0.092,0.212-0.135c0.102-0.041,0.341-0.112,0.717-0.211l0.607-0.255c0.507-0.213,0.877-0.324,1.112-0.332
			c0.08-0.095,0.133-0.146,0.158-0.156c0.051-0.021,0.228,0.009,0.53,0.091c0.035,0.014,0.097,0.019,0.184,0.012l0.108,0.045
			c0.107,0.043,0.412,0.273,0.915,0.688l0.317,0.224c0.172,0.196,0.326,0.459,0.465,0.788c0.043,0.102,0.098,0.25,0.165,0.445
			c0.066,0.195,0.116,0.331,0.147,0.407c0.022,0.051,0.063,0.131,0.123,0.238C30.826,59.69,30.862,59.757,30.872,59.782z"/>
		<path fill="#231F20" d="M36.808,73.04c0.274,0.378,0.437,0.72,0.486,1.023c-0.057,0.108-0.092,0.27-0.106,0.484
			c-0.015,0.214-0.06,0.363-0.132,0.451c0.026,0.083-0.002,0.197-0.084,0.34c-0.082,0.145-0.129,0.255-0.141,0.333
			c-0.408,0.327-0.786,0.789-1.136,1.382c-0.166,0.053-0.259,0.137-0.276,0.252c-0.045,0.031-0.125,0.038-0.239,0.021
			c-0.182,0.266-0.272,0.468-0.274,0.605l-0.361,0.414c0.086,0.073,0.214,0.108,0.382,0.105s0.286,0.021,0.356,0.071
			c0.172-0.09,0.403-0.087,0.693,0.008c0.29,0.096,0.473,0.149,0.55,0.162c0.032,0.044,0.112,0.097,0.24,0.156
			s0.217,0.123,0.265,0.19c0.442,0.188,0.739,0.363,0.891,0.525l0.479,0.519c0.015,0.022,0.09,0.078,0.224,0.169
			c0.132,0.09,0.231,0.181,0.296,0.27l0.479,0.519c0.016,0.022,0.045,0.052,0.089,0.088c0.043,0.036,0.073,0.065,0.089,0.088
			c0.017,0.022,0.039,0.065,0.068,0.129c0.028,0.064,0.06,0.117,0.092,0.162l0.3,0.344c-0.013,0.077,0.006,0.148,0.055,0.215
			l0.097,0.134l-0.01,0.058c0.016,0.021,0.032,0.044,0.048,0.066c0.032,0.045,0.085,0.117,0.157,0.217
			c0.072,0.101,0.114,0.181,0.125,0.242c-0.029,0.054-0.035,0.092-0.02,0.114l0.098,0.134c-0.02,0.115-0.012,0.195,0.021,0.239
			c0.01,0.061,0.012,0.11,0.006,0.148c-0.007,0.038-0.009,0.083-0.006,0.132c0.001,0.05-0.001,0.094-0.007,0.132
			c-0.007,0.038-0.005,0.088,0.006,0.149l0.015,0.091c-0.022,0.016-0.037,0.042-0.043,0.081c-0.006,0.038-0.021,0.065-0.042,0.081
			c0.005,0.336-0.028,0.548-0.102,0.634c0.081,0.112,0.14,0.357,0.178,0.736c-0.082,0.026-0.131,0.078-0.143,0.155
			c-0.009,0.175-0.064,0.437-0.17,0.784c-0.104,0.348-0.163,0.56-0.176,0.636l-0.166,0.122c-0.134,0.096-0.199,0.193-0.195,0.292
			c-0.066,0.049-0.138,0.067-0.215,0.056c-0.008,0.175-0.219,0.446-0.631,0.813l-0.062,0.196c-0.041,0.132-0.075,0.225-0.104,0.279
			l-0.067,0.049c-0.089,0.064-0.162,0.151-0.219,0.26c-0.079,0.125-0.173,0.159-0.281,0.102c-0.014,0.078-0.03,0.125-0.053,0.14
			c-0.111,0.081-0.216,0.217-0.314,0.407c-0.101,0.191-0.195,0.319-0.283,0.383c-0.045,0.033-0.104,0.067-0.18,0.104
			c-0.074,0.037-0.123,0.064-0.145,0.081c-0.067,0.048-0.115,0.1-0.143,0.153c-0.022,0.016-0.077,0.013-0.161-0.012
			c-0.086-0.022-0.149-0.019-0.194,0.015c0.097,0.133,0.105,0.263,0.027,0.388l-0.066,0.048c-0.023,0.016-0.066,0.039-0.13,0.068
			c-0.063,0.028-0.118,0.06-0.162,0.092l-0.066,0.049c-0.046,0.032-0.089,0.09-0.131,0.171c-0.043,0.082-0.075,0.132-0.098,0.147
			c-0.045,0.031-0.102,0.048-0.17,0.046c-0.068,0-0.114,0.007-0.136,0.022c-0.067,0.049-0.13,0.127-0.186,0.235
			c-0.057,0.109-0.118,0.188-0.186,0.236l-0.101,0.072c-0.034,0.093-0.055,0.159-0.061,0.197c-0.188,0.068-0.276,0.133-0.267,0.194
			c-0.045,0.031-0.095,0.034-0.148,0.006c-0.055-0.029-0.094-0.035-0.115-0.02c-0.029,0.055-0.038,0.112-0.027,0.173
			c0.01,0.062,0.003,0.1-0.019,0.116l-0.109,0.129c-0.066,0.05-0.164,0.068-0.29,0.058c-0.126-0.01-0.212,0.001-0.256,0.033
			c-0.022,0.016-0.048,0.051-0.076,0.105l-0.033,0.024c-0.039-0.007-0.063-0.039-0.072-0.1c-0.019,0.114-0.086,0.163-0.2,0.144
			c-0.041,0.133-0.128,0.247-0.262,0.343c-0.045,0.032-0.075,0.037-0.091,0.016c-0.017-0.023-0.028-0.039-0.036-0.051
			s-0.023-0.008-0.046,0.008c-0.044,0.032-0.046,0.076-0.006,0.133c0.04,0.055,0.027,0.106-0.039,0.155
			c-0.023,0.016-0.072,0.018-0.149,0.005l0.049,0.067c0.032,0.044,0.036,0.075,0.015,0.091c-0.021,0.017-0.066,0.014-0.132-0.007
			c-0.065-0.02-0.12-0.013-0.165,0.019c0.031,0.044,0.109,0.106,0.236,0.186c-0.354,0.12-0.604,0.081-0.749-0.12l-0.128,0.246
			c0.125,0.079,0.186,0.069,0.183-0.03c0.009,0.061,0.017,0.141,0.021,0.239c0.004,0.1,0.014,0.16,0.029,0.182
			c-0.038-0.006-0.146,0.055-0.324,0.185c-0.016-0.022-0.014-0.041,0.01-0.058c0.021-0.016,0.034-0.033,0.037-0.053
			s-0.003-0.04-0.02-0.063c-0.016-0.022-0.043-0.037-0.081-0.043s-0.063-0.038-0.073-0.101c-0.05,0.071-0.102,0.177-0.153,0.315
			c-0.051,0.14-0.11,0.232-0.178,0.282c-0.089,0.064-0.229,0.116-0.423,0.153c-0.193,0.038-0.322,0.081-0.39,0.13l-0.14-0.052
			c-0.093-0.034-0.17-0.047-0.23-0.036c-0.028,0.053-0.018,0.114,0.031,0.181c-0.046,0.033-0.109,0.062-0.191,0.088
			c-0.083,0.025-0.136,0.048-0.158,0.063c-0.045,0.033-0.065,0.074-0.063,0.122c0.001,0.051-0.02,0.092-0.063,0.124
			c-0.175-0.146-0.306-0.187-0.395-0.123c-0.142-0.101-0.242-0.146-0.303-0.137l-0.067,0.048c-0.044,0.033-0.125,0.074-0.241,0.124
			c-0.115,0.051-0.195,0.092-0.241,0.124c-0.054-0.028-0.111-0.037-0.172-0.026c-0.077-0.014-0.123-0.031-0.14-0.053
			c-0.022,0.016-0.059,0.024-0.107,0.026c-0.05,0.002-0.088,0.03-0.117,0.086c-0.34-0.094-0.6-0.126-0.781-0.096
			c-0.032-0.045-0.046-0.087-0.039-0.125c0.006-0.038,0.001-0.068-0.016-0.091l-0.199,0.146c-0.126-0.08-0.246-0.128-0.361-0.146
			c-0.276-0.24-0.444-0.357-0.506-0.347c-0.016-0.021-0.113-0.088-0.293-0.194c-0.038-0.007-0.082-0.042-0.13-0.108
			c-0.032-0.046-0.058-0.104-0.075-0.174c-0.019-0.073-0.035-0.12-0.052-0.142c-0.048-0.067-0.091-0.104-0.13-0.11l0.066-0.048
			l-0.048-0.067l-0.118-0.373l-0.048-0.065c-0.017-0.022-0.06-0.06-0.13-0.11s-0.123-0.099-0.154-0.143l-0.016-0.09
			c-0.016-0.023-0.027-0.016-0.033,0.023c-0.006,0.037-0.025,0.035-0.058-0.01c-0.054-0.028-0.056-0.077-0.006-0.148
			c0.051-0.07,0.067-0.118,0.052-0.139c-0.01-0.062-0.032-0.104-0.068-0.13c-0.034-0.024-0.05-0.058-0.043-0.095
			c0.006-0.039,0.087-0.113,0.242-0.227c0.022-0.016,0.048-0.052,0.076-0.106c-0.016-0.022-0.047-0.017-0.091,0.016
			c-0.077-0.013-0.143-0.033-0.196-0.062c0.078-0.125,0.102-0.21,0.07-0.255c0.028-0.054,0.063-0.063,0.107-0.027
			c0.043,0.038,0.076,0.048,0.098,0.031c0.111-0.08,0.157-0.216,0.139-0.405c-0.019-0.19-0.025-0.305-0.019-0.344
			c0.027-0.054,0.082-0.084,0.162-0.092c0.079-0.006,0.131-0.019,0.153-0.034l-0.072-0.101c-0.065-0.09-0.103-0.163-0.112-0.224
			c0.044-0.032,0.077-0.081,0.098-0.147c0.02-0.065,0.041-0.106,0.063-0.122l0.067-0.048c0.028-0.056,0.054-0.125,0.077-0.209
			c0.023-0.086,0.037-0.147,0.044-0.186c0.872-0.904,1.32-1.363,1.343-1.381c0.066-0.048,0.137-0.065,0.215-0.053
			c0.037,0.005,0.051-0.012,0.037-0.054c-0.013-0.041-0.008-0.069,0.016-0.085c0.066-0.049,0.228-0.2,0.484-0.454
			c0.257-0.255,0.453-0.43,0.586-0.526c0.111-0.081,0.193-0.107,0.248-0.079c0.007-0.038,0.067-0.107,0.182-0.207
			c0.113-0.1,0.158-0.191,0.133-0.273c0.021-0.017,0.069-0.044,0.145-0.08c0.075-0.038,0.143-0.061,0.203-0.071
			c0.041-0.131,0.172-0.277,0.395-0.438c0.188-0.069,0.33-0.155,0.426-0.257l0.267-0.193c0.21-0.086,0.349-0.15,0.416-0.199
			c0.066-0.049,0.109-0.13,0.128-0.246c0.244-0.177,0.604-0.405,1.082-0.684c0.045-0.031,0.051-0.07,0.02-0.114
			c0.005-0.038,0.02-0.065,0.042-0.082c0.083-0.026,0.19-0.088,0.324-0.184l0.802-0.58c0.019-0.116,0.072-0.205,0.161-0.27
			c0.067-0.048,0.163-0.103,0.291-0.16c0.126-0.06,0.213-0.104,0.258-0.137l0.267-0.192l0.033-0.024l0.092-0.015
			c0.044-0.033,0.096-0.079,0.154-0.139s0.099-0.097,0.121-0.113c0.067-0.049,0.119-0.069,0.158-0.063l0.494-0.512l0.635-0.459
			c0.356-0.258,0.615-0.462,0.777-0.614c0.044-0.031,0.052-0.079,0.022-0.144s-0.066-0.139-0.111-0.224
			c-0.046-0.086-0.065-0.149-0.059-0.188c-0.546-0.283-0.962-0.389-1.248-0.316c-0.017-0.023-0.045-0.027-0.086-0.014
			c-0.043,0.012-0.079-0.004-0.111-0.048c-0.061,0.01-0.205,0.021-0.434,0.033c-0.228,0.014-0.406,0.049-0.533,0.107
			c-0.038-0.007-0.077-0.013-0.114-0.018l-0.059-0.01c-0.089,0.064-0.172,0.091-0.248,0.078c-0.023,0.016-0.047,0.041-0.072,0.077
			c-0.025,0.035-0.049,0.061-0.07,0.077c-0.134,0.098-0.316,0.127-0.547,0.09c0.017,0.021,0.021,0.053,0.016,0.091l-0.066,0.049
			c-0.022,0.017-0.083,0.051-0.18,0.104s-0.168,0.096-0.212,0.128c-0.067,0.05-0.114,0.101-0.144,0.155
			c-0.109-0.057-0.193-0.08-0.254-0.07c-0.051,0.071-0.154,0.162-0.31,0.275c-0.156,0.112-0.428,0.276-0.816,0.489
			c-0.022,0.017-0.064,0.005-0.127-0.035c-0.063-0.039-0.124-0.054-0.185-0.044c-0.029,0.055-0.016,0.096,0.039,0.124
			c0.054,0.028,0.09,0.053,0.105,0.076c-0.045,0.032-0.109,0.071-0.195,0.116s-0.162,0.092-0.229,0.141
			c-0.022,0.017-0.07,0.008-0.145-0.023c-0.073-0.031-0.125-0.02-0.153,0.035c-0.044,0.032-0.042,0.081,0.007,0.148
			c-0.086,0.164-0.206,0.232-0.358,0.208c-0.013,0.077-0.052,0.14-0.118,0.188c-0.067,0.049-0.179,0.094-0.333,0.139
			c-0.155,0.044-0.254,0.082-0.299,0.114l-0.075,0.106c-0.051,0.069-0.107,0.11-0.168,0.121c-0.021,0.017-0.074,0.037-0.156,0.063
			L28.73,83.88c-0.022,0.018-0.048,0.052-0.076,0.106l-0.043,0.082l-0.066,0.049c-0.067,0.048-0.182,0.089-0.345,0.122
			c-0.162,0.032-0.276,0.073-0.344,0.122l-0.109,0.131l-0.033,0.023c-0.038-0.006-0.074-0.032-0.105-0.076l-0.194,0.294
			c-0.065-0.089-0.108-0.126-0.13-0.11c-0.045,0.033-0.058,0.074-0.035,0.129c0.02,0.051,0.02,0.086-0.002,0.102l-0.101,0.072
			c-0.245,0.179-0.373,0.305-0.386,0.382c-0.039-0.006-0.084,0.001-0.137,0.022s-0.109,0.037-0.169,0.047
			c-0.062,0.01-0.122,0.02-0.183,0.029l0.01-0.057c0.005-0.039,0-0.07-0.016-0.092c-0.013,0.077-0.053,0.114-0.121,0.113
			c-0.068,0-0.12,0.045-0.154,0.138c-0.017-0.022-0.064-0.029-0.145-0.023c-0.08,0.007-0.146-0.002-0.201-0.031
			c-0.156,0.112-0.313,0.177-0.473,0.19c-0.156,0.112-0.482,0.247-0.98,0.404c-0.314,0.127-0.594,0.209-0.837,0.249l-0.167,0.121
			c-0.178,0.13-0.41,0.229-0.697,0.303c-0.016-0.023-0.043-0.037-0.082-0.044c-0.039-0.006-0.063-0.039-0.072-0.1
			c-0.144,0.036-0.23,0.031-0.264-0.012c-0.299,0.148-0.656,0.101-1.069-0.142c-0.064-0.09-0.095-0.152-0.088-0.191
			c0.006-0.038-0.006-0.056-0.036-0.05c-0.03,0.004-0.054-0.004-0.07-0.026c-0.016-0.022-0.055-0.087-0.115-0.194
			c-0.063-0.109-0.116-0.197-0.165-0.264c-0.274-0.378-0.525-0.654-0.753-0.829l-0.432-0.807c0.027-0.055,0.033-0.117,0.016-0.189
			c-0.019-0.07-0.024-0.126-0.018-0.165c-0.017-0.021-0.004-0.049,0.042-0.082c-0.03-0.181-0.036-0.33-0.018-0.445l0.171-0.326
			l0.026-0.174c0.028-0.054,0.09-0.133,0.186-0.235s0.16-0.201,0.194-0.294c0.022-0.016,0.105-0.042,0.249-0.078
			c0.022-0.016,0.026-0.045,0.014-0.087c-0.014-0.041-0.008-0.069,0.015-0.085c0.021-0.017,0.062-0.021,0.119-0.011
			s0.098,0.006,0.119-0.011c-0.025-0.082-0.021-0.146,0.016-0.188c0.036-0.044,0.05-0.097,0.04-0.157
			c0.067-0.049,0.19-0.146,0.372-0.295c0.18-0.148,0.315-0.254,0.405-0.318c0.178-0.129,0.309-0.207,0.391-0.233
			c-0.026-0.082,0.017-0.164,0.128-0.244c0.111-0.081,0.228-0.132,0.349-0.151c0.007-0.039,0.05-0.096,0.131-0.171
			s0.116-0.145,0.106-0.205c0.334-0.241,0.583-0.389,0.749-0.441c0.146-0.173,0.308-0.323,0.486-0.453
			c0.333-0.242,0.603-0.386,0.807-0.432c0.037-0.23,0.147-0.311,0.334-0.242c0.218-0.261,0.417-0.455,0.595-0.585l0.101-0.07
			c0.021-0.017,0.044-0.033,0.066-0.049l0.091-0.016c0.022-0.016,0.059-0.06,0.109-0.13c0.051-0.071,0.105-0.111,0.168-0.121
			l0.156-0.063c0.201-0.146,0.484-0.386,0.854-0.719l0.058,0.008c0.021-0.016,0.044-0.031,0.067-0.048
			c0.066-0.049,0.14-0.146,0.223-0.289c0.081-0.145,0.156-0.241,0.223-0.289c0.066-0.049,0.16-0.083,0.282-0.103
			c0.234-0.238,0.419-0.405,0.553-0.502l0.701-0.508c0.289-0.209,0.492-0.373,0.61-0.493c0.021-0.016,0.063-0.028,0.124-0.039
			l0.058,0.009c0.021-0.016,0.062-0.077,0.118-0.187c0.111-0.081,0.241-0.159,0.392-0.232c0.149-0.075,0.32-0.156,0.511-0.244
			c0.191-0.087,0.339-0.152,0.444-0.195c0.045-0.031,0.132-0.087,0.263-0.164c0.13-0.077,0.226-0.12,0.286-0.131
			c0.022-0.016,0.165-0.076,0.428-0.183c0.263-0.105,0.439-0.19,0.528-0.256l0.066-0.048c0.182-0.03,0.34-0.094,0.474-0.19
			c0.056-0.109,0.096-0.171,0.119-0.187c0.037,0.006,0.053,0.027,0.047,0.065l-0.033,0.025c0.099-0.004,0.234-0.052,0.406-0.143
			s0.288-0.141,0.35-0.15c0.131,0.04,0.287,0.046,0.469,0.016c0.022-0.016,0.063-0.028,0.125-0.039l0.091-0.015
			c0.038,0.006,0.095-0.01,0.17-0.047s0.131-0.054,0.17-0.047c0.038,0.006,0.118,0.024,0.242,0.054
			c0.123,0.029,0.226,0.03,0.31,0.005C36.08,72.176,36.421,72.505,36.808,73.04z M23.09,83.895l-0.072-0.1
			c-0.034,0.092-0.024,0.152,0.03,0.182c0.021-0.016,0.029-0.03,0.021-0.041S23.067,83.911,23.09,83.895z M25.338,93.11
			c-0.064-0.09-0.152-0.094-0.264-0.013C25.139,93.186,25.226,93.19,25.338,93.11z M25.368,93.291l-0.049-0.066
			c-0.045,0.032-0.075,0.037-0.091,0.016l0.072,0.1L25.368,93.291z M27.746,93.553c-0.022,0.017-0.053,0.021-0.091,0.015
			l0.058,0.009C27.729,93.599,27.739,93.59,27.746,93.553z M29.841,93.001l-0.166,0.122c0.025,0.082,0.061,0.108,0.105,0.075
			C29.885,93.157,29.905,93.09,29.841,93.001z M31.402,94.875l-0.067,0.048c-0.039-0.006-0.061,0.011-0.066,0.05
			c0.032,0.044,0.07,0.05,0.114,0.018C31.428,94.958,31.434,94.918,31.402,94.875z M32.497,85.428l-0.072-0.101l-0.134,0.097
			C32.308,85.446,32.376,85.448,32.497,85.428z M32.719,94.022c-0.064-0.088-0.124-0.147-0.179-0.176
			C32.467,93.933,32.526,93.992,32.719,94.022z"/>
		<path fill="#231F20" d="M52.961,91.467l0.335,0.243c0.061,0.056,0.155,0.177,0.283,0.363c0.127,0.188,0.241,0.327,0.345,0.418
			l0.153,0.138c0.291,0.333,0.816,1.005,1.574,2.012c0.002,0.04,0.036,0.116,0.101,0.229c0.064,0.113,0.079,0.21,0.046,0.29
			l0.185,0.165c0.003,0.076,0.074,0.297,0.212,0.659c0.137,0.361,0.174,0.661,0.109,0.897l-0.055,0.063
			c-0.037,0.041-0.088,0.087-0.152,0.141c-0.065,0.051-0.107,0.088-0.125,0.108c-0.056,0.062-0.082,0.111-0.08,0.149
			c-0.039,0.003-0.131,0.004-0.276,0.002c-0.147-0.002-0.269-0.009-0.366-0.022l-0.062-0.056c-0.041-0.036-0.098-0.077-0.168-0.122
			c-0.07-0.043-0.116-0.076-0.137-0.094c-0.021-0.019-0.033-0.065-0.037-0.144c-0.06-0.017-0.135-0.056-0.226-0.119
			c-0.092-0.063-0.157-0.112-0.198-0.148c-0.021-0.02-0.11-0.043-0.267-0.072c-0.158-0.031-0.268-0.073-0.329-0.128l-0.062-0.056
			c-0.144-0.128-0.245-0.2-0.305-0.216c-0.182-0.126-0.379-0.173-0.591-0.142c-0.304-0.196-0.636-0.382-0.995-0.556
			c-0.021-0.02-0.08-0.035-0.178-0.049c-0.099-0.014-0.168-0.039-0.209-0.076l-0.123-0.11c-0.116,0.007-0.205,0.003-0.264-0.014
			c-0.021-0.018-0.092-0.073-0.214-0.163s-0.213-0.144-0.271-0.159l-0.117,0.006c-0.116,0.007-0.195-0.009-0.236-0.045
			c-0.078,0.004-0.135,0.028-0.171,0.068c-0.144-0.128-0.327-0.182-0.55-0.158c-0.223,0.021-0.373,0.016-0.453-0.019
			c-0.039,0.003-0.058,0.023-0.055,0.062l-0.055,0.062c-0.08-0.033-0.197-0.038-0.352-0.009c-0.154,0.028-0.261,0.034-0.319,0.018
			l-0.165,0.186c-0.078,0.004-0.207,0.045-0.387,0.123c-0.182,0.079-0.331,0.102-0.449,0.07c-0.452,0.259-0.8,0.483-1.042,0.671
			c-0.021-0.018-0.055-0.021-0.103-0.008c-0.049,0.012-0.102,0.011-0.161-0.006l-0.356,0.4c-0.019,0.021-0.081,0.037-0.187,0.053
			c-0.106,0.017-0.187,0.056-0.241,0.117c-0.081-0.034-0.187-0.02-0.319,0.046c-0.133,0.067-0.229,0.093-0.287,0.076
			c-0.028,0.195-0.121,0.278-0.278,0.248c-0.032,0.119-0.066,0.199-0.104,0.24c-0.036,0.041-0.102,0.094-0.194,0.157
			c-0.095,0.063-0.159,0.116-0.196,0.157c0.031,0.212,0.217,0.489,0.559,0.828c0.34,0.342,0.552,0.568,0.637,0.681
			c0.041,0.036,0.07,0.045,0.089,0.024c0.059,0.016,0.099,0.032,0.12,0.051c-0.037,0.042-0.014,0.098,0.067,0.172
			c0.144,0.127,0.461,0.401,0.952,0.822c0.49,0.419,0.889,0.746,1.194,0.982c0.731,0.543,1.169,0.896,1.315,1.064
			c0.041,0.035,0.093,0.102,0.157,0.195c0.063,0.093,0.116,0.158,0.157,0.195c0.061,0.054,0.174,0.165,0.34,0.33
			c0.164,0.166,0.279,0.296,0.343,0.389c0.104,0.131,0.192,0.302,0.263,0.512c0.055,0.27,0.112,0.45,0.177,0.545
			c-0.034,0.411-0.052,0.636-0.049,0.674c-0.269,0.425-0.421,0.656-0.457,0.697c-0.128,0.145-0.271,0.22-0.425,0.229
			c-0.037,0.041-0.101,0.122-0.191,0.245c-0.09,0.121-0.162,0.214-0.217,0.274c-0.037,0.041-0.149,0.125-0.336,0.253
			c-0.019,0.021-0.061,0.076-0.122,0.168c-0.063,0.091-0.112,0.157-0.149,0.197l-0.083,0.093c-0.036,0.041-0.112,0.084-0.226,0.13
			c-0.164,0.185-0.275,0.288-0.333,0.31c-0.048,0.179-0.091,0.289-0.127,0.329c-0.037,0.042-0.075,0.063-0.113,0.064
			c-0.058,0.023-0.075,0.063-0.052,0.12l0.062,0.055c-0.15,0.087-0.235,0.141-0.254,0.16c0.022,0.058-0.085,0.22-0.323,0.486
			c-0.018,0.02-0.016,0.059,0.008,0.115c0.022,0.059,0.016,0.106-0.021,0.147c-0.114,0.045-0.189,0.09-0.226,0.13
			c-0.037,0.041-0.073,0.092-0.108,0.152c-0.036,0.06-0.07,0.13-0.105,0.21c-0.034,0.079-0.069,0.141-0.105,0.182
			c-0.037,0.04-0.102,0.103-0.194,0.186s-0.157,0.146-0.193,0.187l-0.079,0.151c-0.019,0.021-0.053,0.035-0.1,0.048
			c-0.048,0.013-0.081,0.03-0.1,0.05c-0.032,0.119-0.066,0.199-0.103,0.24c-0.019,0.021-0.057,0.042-0.114,0.063l-0.027,0.031
			c-0.036,0.041-0.063,0.082-0.08,0.122s-0.035,0.069-0.053,0.09l-0.303,0.339c-0.135,0.027-0.229,0.091-0.28,0.191
			c-0.325,0.115-0.505,0.194-0.542,0.234c-0.019,0.021-0.03,0.055-0.037,0.104c-0.008,0.049-0.021,0.085-0.039,0.104
			c-0.019,0.021-0.094,0.064-0.226,0.13c0.004,0.077-0.012,0.136-0.049,0.177c-0.036,0.042-0.102,0.084-0.196,0.129
			c-0.096,0.044-0.15,0.096-0.167,0.154c-0.093,0.064-0.219,0.081-0.376,0.051c-0.018,0.021-0.031,0.056-0.038,0.105
			c-0.007,0.048-0.03,0.073-0.068,0.076c-0.019,0.021-0.133,0.056-0.345,0.108c-0.211,0.05-0.373,0.117-0.484,0.202
			c-0.542,0.069-0.955-0.006-1.239-0.223c-0.019,0.021-0.052,0.027-0.101,0.021s-0.109-0.023-0.179-0.048
			c-0.069-0.026-0.123-0.037-0.162-0.034c-0.021-0.02-0.069-0.026-0.147-0.021c-0.077,0.004-0.126-0.004-0.146-0.022
			c-0.021-0.017-0.041-0.036-0.062-0.054c-0.041-0.037-0.081-0.055-0.12-0.052c-0.079-0.034-0.202-0.126-0.366-0.272
			c-0.103-0.09-0.175-0.174-0.218-0.249c-0.236-0.396-0.349-0.662-0.337-0.799l0.079-0.646c-0.004-0.078-0.02-0.175-0.045-0.289
			c-0.026-0.116-0.041-0.213-0.046-0.29c0.032-0.119,0.106-0.284,0.221-0.493c0.114-0.211,0.181-0.328,0.199-0.347
			c0.017-0.061,0.044-0.154,0.085-0.283c0.042-0.129,0.099-0.254,0.17-0.374c0.036-0.042,0.09-0.112,0.162-0.214
			c0.072-0.103,0.137-0.183,0.191-0.244c0.036-0.042,0.199-0.162,0.49-0.364c0.289-0.201,0.498-0.393,0.624-0.575
			c-0.261-0.122-0.519-0.204-0.773-0.248l-0.062-0.055c-0.041-0.037-0.131-0.07-0.269-0.103c-0.138-0.03-0.237-0.073-0.299-0.128
			l-0.123-0.11c-0.38-0.154-0.637-0.236-0.773-0.248l-0.062-0.055c-0.062-0.055-0.203-0.134-0.423-0.239
			c-0.22-0.104-0.381-0.202-0.483-0.293c-0.164-0.147-0.371-0.369-0.622-0.666l-0.009-0.174c-0.042-0.038-0.082-0.055-0.12-0.053
			c-0.039,0.002-0.069-0.024-0.093-0.082l-0.123-0.11c-0.123-0.108-0.178-0.214-0.163-0.311c-0.447-0.325-0.734-0.747-0.859-1.266
			l-0.093-0.082c-0.021-0.019-0.119-0.197-0.294-0.538c-0.043-0.075-0.107-0.188-0.194-0.34c-0.086-0.15-0.142-0.273-0.166-0.37
			l-0.018-0.29c-0.091-0.229-0.129-0.393-0.115-0.489c-0.06-0.018-0.101-0.054-0.123-0.11c0.03-0.158-0.007-0.301-0.111-0.432
			c-0.039-0.66-0.042-1.068-0.012-1.226c-0.002-0.039-0.009-0.155-0.02-0.349c-0.012-0.195-0.039-0.349-0.085-0.463
			c0.034-0.08,0.053-0.183,0.056-0.311c0.002-0.125,0.012-0.219,0.028-0.277c0.018-0.021,0.053-0.092,0.104-0.211
			c0.052-0.12,0.074-0.219,0.07-0.297c0.039-0.001,0.067-0.013,0.086-0.033c0.019-0.02,0.043-0.091,0.076-0.209
			c0.031-0.118,0.065-0.218,0.1-0.297l0.082-0.092l0.072-0.268c0.027-0.197,0.079-0.335,0.151-0.418
			c0.037-0.041,0.084-0.072,0.142-0.096c0.027-0.195,0.249-0.568,0.666-1.118c0.055-0.062,0.113-0.064,0.174-0.009
			c0.019-0.021,0.017-0.061-0.006-0.116c-0.023-0.058-0.025-0.097-0.007-0.116c0.201-0.227,0.351-0.352,0.446-0.376
			c0.068-0.16,0.131-0.271,0.186-0.331c0.055-0.063,0.146-0.146,0.277-0.25c0.13-0.105,0.224-0.188,0.278-0.25
			c0.018-0.021,0.065-0.033,0.144-0.037l0.576-0.646c0.037-0.041,0.098-0.079,0.184-0.112c0.086-0.034,0.146-0.072,0.184-0.113
			c0.201-0.225,0.342-0.32,0.422-0.286c-0.023-0.058,0.013-0.107,0.107-0.153c0.095-0.043,0.151-0.075,0.17-0.097
			c0.111-0.084,0.241-0.207,0.388-0.372c0.146-0.163,0.256-0.287,0.329-0.369l0.229-0.071c0.075-0.044,0.177-0.137,0.306-0.279
			c0.127-0.144,0.229-0.238,0.305-0.28c0.038-0.003,0.115-0.026,0.23-0.072l0.081-0.092c0.093-0.103,0.292-0.162,0.604-0.18
			l0.083-0.093c0.055-0.062,0.138-0.115,0.253-0.161c0.114-0.045,0.189-0.088,0.227-0.129l0.055-0.061
			c0.077-0.005,0.229-0.053,0.458-0.145c0.229-0.09,0.412-0.111,0.553-0.061c0.016-0.059,0.052-0.1,0.109-0.122
			c0.057-0.022,0.095-0.044,0.113-0.064l0.232-0.014c0.226-0.13,0.436-0.2,0.631-0.211c0.147-0.125,0.377-0.196,0.688-0.214
			c0.311-0.019,0.503-0.049,0.579-0.091l0.644,0.021l0.612-0.005l0.124,0.109c0.549,0.086,0.896,0.192,1.04,0.321
			c0.394,0.094,0.975,0.309,1.743,0.645c0.77,0.337,1.282,0.546,1.54,0.629l0.037,0.143c0.178,0.049,0.349,0.146,0.513,0.293
			l0.093,0.082c0.077-0.004,0.183,0.072,0.319,0.23c0.135,0.157,0.241,0.233,0.319,0.229C52.856,91.356,52.899,91.412,52.961,91.467
			z M44.584,102.832c-0.079-0.034-0.181-0.106-0.304-0.218c-0.123-0.108-0.215-0.191-0.277-0.246
			c-0.324-0.215-0.781-0.577-1.375-1.09c-0.594-0.511-0.911-0.785-0.952-0.821c-0.062-0.056-0.119-0.135-0.174-0.238
			c-0.055-0.104-0.103-0.175-0.144-0.211c-0.325-0.254-0.681-0.166-1.064,0.265c-0.182,0.243-0.296,0.455-0.344,0.633l-0.154,0.359
			l0.02,0.349l-0.049,0.179c0.002,0.038-0.016,0.142-0.055,0.309c-0.04,0.168-0.049,0.28-0.025,0.338l0.065,0.113
			c0.061,0.054,0.103,0.11,0.126,0.168l-0.018,0.205c0.004,0.077,0.078,0.181,0.222,0.309c0.164,0.146,0.335,0.244,0.513,0.291
			c0.041,0.037,0.086,0.06,0.135,0.065c0.05,0.009,0.104,0.01,0.162,0.007c0.058-0.004,0.105-0.007,0.145-0.009
			c0.002,0.039,0.014,0.067,0.034,0.085c0.155-0.008,0.244,0.016,0.267,0.073c0.057-0.023,0.183-0.04,0.377-0.051
			c0.195,0.028,0.326,0.069,0.387,0.125c0.096-0.025,0.474-0.057,1.134-0.095c0.056-0.021,0.22-0.042,0.492-0.058l0.441,0.063
			c0.019-0.021,0.183-0.04,0.493-0.058c0.017-0.06,0.055-0.153,0.115-0.284c0.061-0.13,0.08-0.223,0.057-0.28
			C44.831,103.071,44.748,102.978,44.584,102.832z"/>
		<path fill="#231F20" d="M60.807,97.278c0.094,0.056,0.162,0.129,0.205,0.219l0.282,0.17c0.005,0.1,0.058,0.227,0.156,0.382
			s0.156,0.271,0.176,0.346c0.023,0.015,0.067,0.05,0.131,0.104s0.104,0.07,0.117,0.046c-0.028,0.048-0.021,0.115,0.021,0.205
			s0.062,0.165,0.057,0.226c0.094,0.058,0.149,0.123,0.17,0.199c0.037,0.15,0.072,0.252,0.105,0.304L62.1,99.688
			c0.07,0.043,0.146,0.063,0.226,0.064c0.08,0,0.167-0.012,0.262-0.035c0.094-0.023,0.172-0.033,0.233-0.027
			c0.022,0.014,0.074,0.036,0.152,0.066c0.077,0.03,0.135,0.041,0.173,0.031c0.971,0.198,1.527,0.341,1.668,0.426
			c0.07,0.042,0.179,0.115,0.325,0.219c0.146,0.104,0.255,0.177,0.325,0.22c0.07,0.042,0.174,0.097,0.311,0.163
			c0.137,0.065,0.241,0.12,0.312,0.162l0.177,0.106c0.396,0.302,0.621,0.565,0.678,0.791c0.047,0.029,0.082,0.066,0.103,0.11
			c0.021,0.045,0.043,0.074,0.067,0.089c0.014,0.137,0.119,0.401,0.318,0.791c0.197,0.392,0.274,0.703,0.232,0.933
			c0.033,0.053,0.065,0.105,0.098,0.156c0.034,0.053,0.055,0.098,0.064,0.135c-0.033,0.108-0.045,0.261-0.035,0.459l0.049,0.318
			c-0.014,0.024-0.037,0.05-0.07,0.079c-0.033,0.026-0.057,0.054-0.07,0.077c0.008,0.037,0.035,0.086,0.08,0.145
			s0.071,0.106,0.082,0.146c-0.071,0.117-0.063,0.235,0.027,0.353l-0.127,0.213c-0.015,0.023-0.007,0.092,0.021,0.204
			c-0.063,0.155-0.102,0.381-0.117,0.676c-0.018,0.294-0.068,0.512-0.152,0.653c0.027,0.113,0,0.24-0.085,0.382
			c-0.071,0.118-0.177,0.215-0.318,0.289c-0.015,0.024-0.058,0.135-0.127,0.333c-0.071,0.197-0.136,0.344-0.191,0.438l-0.063,0.107
			c-0.015,0.023-0.057,0.054-0.128,0.091s-0.12,0.081-0.147,0.127l-0.064,0.107c-0.028,0.047-0.059,0.084-0.092,0.112
			s-0.069,0.047-0.105,0.057c-0.039,0.01-0.071,0.037-0.1,0.084c-0.213,0.194-0.33,0.283-0.354,0.269l-0.127,0.212
			c-0.17,0.283-0.368,0.532-0.595,0.75c-0.123-0.01-0.196-0.022-0.22-0.036c-0.065,0.057-0.186,0.137-0.36,0.24
			s-0.309,0.208-0.402,0.312c-0.039,0.009-0.129,0.027-0.272,0.053c-0.145,0.025-0.246,0.037-0.308,0.031l0.015,0.057
			c-0.029,0.048-0.051,0.083-0.064,0.106c-0.161-0.001-0.371,0.058-0.633,0.172c-0.262,0.116-0.461,0.18-0.598,0.194l0.014,0.057
			c-0.014,0.023-0.027,0.047-0.041,0.071c-0.029,0.047-0.138,0.094-0.325,0.142c-0.336,0.183-0.534,0.272-0.595,0.268
			c-0.042,0.07-0.098,0.149-0.166,0.236c-0.068,0.088-0.117,0.154-0.146,0.201c-0.056,0.096-0.087,0.174-0.091,0.234
			c-0.029,0.048-0.066,0.057-0.113,0.028c-0.053,0.032-0.086,0.061-0.1,0.084c-0.028,0.048-0.062,0.155-0.1,0.325
			c-0.09,0.043-0.211,0.179-0.363,0.406c-0.154,0.229-0.307,0.362-0.456,0.398c-0.039,0.17-0.072,0.278-0.1,0.326
			c-0.043,0.07-0.083,0.111-0.12,0.119c-0.091,0.845-0.133,1.315-0.129,1.415l-0.042,0.069c-0.042,0.072-0.062,0.156-0.056,0.256
			c0.004,0.099-0.001,0.16-0.015,0.183l-0.021,0.036c-0.052,0.033-0.085,0.062-0.099,0.085c0.099,0.155,0.166,0.31,0.204,0.46
			c0.009,0.037,0,0.079-0.028,0.127c0.057,0.066,0.082,0.169,0.077,0.311s0.01,0.239,0.043,0.291l-0.077,0.049
			c-0.058,0.094-0.038,0.249,0.056,0.466c-0.028,0.048-0.05,0.083-0.063,0.106c-0.076,0.019-0.109,0.047-0.1,0.084
			c0.01,0.038,0.085,0.1,0.227,0.185c0.037,0.311,0.007,0.55-0.093,0.714c0.019,0.076,0.013,0.192-0.017,0.351
			c-0.031,0.158-0.049,0.268-0.054,0.328c-0.364,0.23-0.649,0.332-0.855,0.304c-0.043,0.07-0.083,0.111-0.12,0.12
			c-0.193-0.052-0.335-0.057-0.424-0.015c-0.406-0.179-0.997-0.502-1.774-0.969c-0.085-0.339-0.25-0.599-0.495-0.778l0.086-0.141
			c-0.049-0.029-0.093-0.087-0.135-0.178c-0.043-0.09-0.092-0.167-0.148-0.233c-0.047-0.348-0.155-0.701-0.324-1.06l0.063-0.106
			c-0.146-0.185-0.2-0.441-0.163-0.771c-0.09-0.118-0.176-0.281-0.257-0.491c-0.083-0.211-0.141-0.341-0.173-0.393
			c-0.095-0.057-0.156-0.142-0.185-0.255c-0.009-0.037,0.015-0.104,0.071-0.197c-0.048-0.03-0.095-0.097-0.142-0.206
			c-0.048-0.107-0.099-0.195-0.155-0.262c-0.019-0.074,0.009-0.122,0.085-0.141c-0.137-0.146-0.179-0.316-0.127-0.51l-0.177-0.105
			c-0.038,0.009-0.07,0.038-0.099,0.085c-0.053,0.033-0.091,0.042-0.113,0.027l0.057,0.227c-0.043,0.071-0.103,0.155-0.177,0.254
			c-0.076,0.1-0.128,0.173-0.156,0.221c-0.014,0.022-0.017,0.054-0.007,0.091l-0.007,0.093c-0.02,0.084-0.07,0.197-0.156,0.338
			c-0.07,0.118-0.097,0.215-0.077,0.291l-0.185,0.226c-0.057,0.096-0.117,0.234-0.181,0.42c-0.063,0.187-0.124,0.326-0.18,0.422
			l-0.128,0.211c-0.377,0.095-0.813-0.007-1.308-0.305c-0.942-0.566-1.446-1.061-1.512-1.484c-0.241-0.241-0.403-0.61-0.487-1.111
			c-0.066-0.104-0.104-0.174-0.113-0.211l-0.05-0.559c-0.009-0.038-0.012-0.087-0.007-0.149l-0.014-0.056
			c-0.01-0.037-0.022-0.109-0.038-0.216c-0.018-0.106-0.03-0.179-0.04-0.216c-0.047-0.188-0.027-0.514,0.058-0.975
			c0.005-0.063,0.054-0.185,0.148-0.368s0.139-0.325,0.135-0.424c0.056-0.094,0.104-0.146,0.142-0.156
			c-0.053-0.127,0.033-0.428,0.255-0.904c0.028-0.048,0.042-0.111,0.043-0.191c-0.001-0.079,0.007-0.131,0.021-0.155l0.34-0.806
			c0.027-0.048,0.079-0.08,0.155-0.099c-0.009-0.037,0.05-0.162,0.177-0.374c0.028-0.048,0.037-0.09,0.028-0.128
			c0.038-0.01,0.085-0.061,0.142-0.155c0.128-0.212,0.21-0.322,0.248-0.333c-0.01-0.037,0.004-0.085,0.039-0.144
			c0.035-0.06,0.066-0.113,0.095-0.159l0.022-0.276c0.099-0.163,0.226-0.296,0.382-0.396c0.037-0.17,0.096-0.295,0.177-0.375
			c0.051-0.032,0.085-0.06,0.099-0.084c0.028-0.047,0.062-0.131,0.103-0.25c0.04-0.121,0.074-0.205,0.103-0.252
			c0.057-0.094,0.142-0.156,0.255-0.184c-0.005-0.099,0.049-0.242,0.162-0.432c0.171-0.282,0.333-0.473,0.488-0.572
			c0.014-0.023,0.012-0.072-0.007-0.148l0.212-0.354c0.27-0.447,0.5-0.726,0.693-0.834c0.052-0.193,0.191-0.478,0.418-0.855
			l0.078-0.049c0.037-0.01,0.063-0.025,0.077-0.05l0.008-0.092c0.014-0.022,0.027-0.046,0.042-0.069
			c0.014-0.024,0.055-0.08,0.123-0.167c0.069-0.087,0.125-0.166,0.167-0.236l0.085-0.142l0.155-0.099
			c0.065-0.218,0.134-0.385,0.206-0.503c0.098-0.164,0.218-0.284,0.36-0.359l0.021-0.035l0.007-0.092
			c0.042-0.072,0.115-0.14,0.219-0.205c0.104-0.066,0.163-0.11,0.177-0.135l0.361-0.602c0.112-0.188,0.209-0.322,0.29-0.401
			l0.12-0.121l0.042-0.069c0.1-0.165,0.186-0.258,0.262-0.275c0.037-0.011,0.052-0.033,0.043-0.071l-0.014-0.057
			c0.051-0.033,0.133-0.144,0.247-0.333c0.028-0.047,0.089-0.105,0.18-0.18c0.093-0.072,0.146-0.121,0.159-0.145
			c0.17-0.283,0.292-0.435,0.368-0.452l-0.015-0.058l-0.035-0.021c-0.01-0.037,0.007-0.052,0.05-0.043
			c0.042,0.01,0.07,0.003,0.085-0.021l0.148-0.248c0.127-0.211,0.297-0.414,0.51-0.607l0.246,0.148
			c0.236,0.142,0.43,0.194,0.58,0.156c0.033,0.053,0.168,0.148,0.403,0.289l0.12,0.121l0.177,0.106
			c0.023,0.014,0.112,0.052,0.269,0.113C60.628,97.202,60.759,97.25,60.807,97.278z M64.134,103.026
			c-0.458-0.306-1.014-0.607-1.668-0.905c-0.076,0.02-0.176,0.023-0.297,0.015c-0.047-0.029-0.076-0.062-0.084-0.1
			c-0.076,0.019-0.176,0.023-0.297,0.014c-0.124-0.008-0.204-0.009-0.241,0c-0.26,0.005-0.42,0.005-0.48,0l-0.213-0.128
			c-0.062-0.005-0.111-0.002-0.147,0.008c-0.038,0.009-0.092,0.033-0.163,0.07c-0.071,0.038-0.132,0.073-0.184,0.106
			c-0.038,0.01-0.095,0.023-0.17,0.042l-0.092-0.007l-0.191,0.317c-0.028,0.048-0.106,0.112-0.236,0.194
			c-0.13,0.083-0.228,0.152-0.294,0.209c-0.108,0.127-0.262,0.355-0.459,0.686c-0.199,0.329-0.321,0.561-0.369,0.691l-0.084,0.143
			c-0.085,0.141-0.273,0.349-0.566,0.621c0.028,0.113,0,0.24-0.085,0.383c-0.014,0.023-0.046,0.035-0.096,0.037
			c-0.049,0.004-0.088,0.028-0.116,0.075c-0.071,0.117-0.102,0.276-0.092,0.474l-0.064,0.105c-0.113,0.189-0.165,0.303-0.155,0.34
			l-0.128-0.028c-0.047-0.029-0.077-0.03-0.092-0.008l0.029,0.113c0.041,0.09,0.061,0.165,0.056,0.227
			c-0.014,0.023-0.042,0.056-0.081,0.095c-0.041,0.041-0.067,0.073-0.081,0.096c-0.071,0.119-0.083,0.271-0.036,0.46
			c0.113-0.028,0.342-0.035,0.686-0.021c0.344,0.014,0.605-0.021,0.785-0.106c0.58,0.156,1.079,0.071,1.498-0.254
			c0.1-0.005,0.229-0.046,0.39-0.127c0.159-0.08,0.259-0.125,0.297-0.134c0.217,0.066,0.368,0.028,0.452-0.113l0.043-0.07
			c0.071,0.043,0.141,0.006,0.212-0.113c0.434-0.027,0.827-0.177,1.181-0.444c0.099-0.005,0.235-0.059,0.41-0.163
			c0.174-0.104,0.323-0.15,0.445-0.142l-0.014-0.056c-0.033-0.052-0.042-0.089-0.028-0.113c0.037-0.008,0.155-0.099,0.354-0.268
			c0.005-0.063,0.035-0.14,0.093-0.234c0.042-0.07,0.143-0.185,0.304-0.346c0.159-0.16,0.262-0.275,0.304-0.347
			c0.057-0.254,0.07-0.438,0.043-0.551c0.004-0.062-0.039-0.176-0.131-0.344C64.187,103.259,64.138,103.125,64.134,103.026z"/>
		<path fill="#231F20" d="M78.721,108.551c0.015,0.035,0.081,0.091,0.2,0.167c0.117,0.076,0.179,0.145,0.185,0.206l0.153,0.061
			c0.204,0.08,0.321,0.156,0.353,0.228c0.025,0.011,0.044,0.004,0.054-0.022l0.038,0.015c0.077,0.029,0.2,0.108,0.373,0.236
			c0.171,0.127,0.296,0.205,0.372,0.234c0.076,0.03,0.145,0.043,0.207,0.037c-0.011,0.026-0.021,0.053-0.03,0.077
			c-0.011,0.026-0.021,0.053-0.03,0.077l0.23,0.09c0.014,0.035,0.005,0.062-0.03,0.077l-0.016,0.038
			c0.077,0.031,0.13,0.081,0.161,0.153c0.031,0.07,0.071,0.115,0.123,0.137c0.016,0.036,0.047,0.107,0.094,0.214
			c0.046,0.107,0.054,0.198,0.023,0.275l0.07,0.16c-0.021,0.051-0.033,0.12-0.037,0.207c-0.006,0.087-0.013,0.143-0.022,0.169
			c-0.03,0.075-0.067,0.188-0.11,0.333c-0.042,0.146-0.066,0.261-0.07,0.349c-0.005,0.086,0.005,0.194,0.028,0.32
			c0.023,0.129,0.025,0.219,0.005,0.27c-0.01,0.024-0.033,0.046-0.068,0.062c-0.025-0.011-0.043-0.003-0.054,0.022
			c-0.021,0.051-0.017,0.134,0.013,0.248c0.028,0.116,0.033,0.199,0.014,0.25c-0.012,0.024-0.07,0.062-0.176,0.107
			c-0.107,0.046-0.172,0.095-0.191,0.146c-0.02,0.052-0.014,0.092,0.02,0.119c0.033,0.028,0.045,0.056,0.035,0.08
			c-0.106,0.195-0.146,0.371-0.12,0.528l-0.274,0.246l-0.32,0.141c-0.006,0.086,0.057,0.155,0.185,0.205
			c0.015,0.035,0.001,0.127-0.041,0.272c-0.043,0.146-0.049,0.255-0.018,0.325c-0.152,0.235-0.243,0.391-0.272,0.468
			c-0.041,0.104-0.055,0.172-0.038,0.208l-0.03,0.076c-0.021,0.052-0.111,0.134-0.274,0.246c0.011,0.122-0.024,0.286-0.105,0.49
			c-0.08,0.205-0.103,0.373-0.065,0.506c-0.011,0.025-0.05,0.068-0.118,0.131c-0.069,0.061-0.083,0.115-0.042,0.16
			c-0.035,0.017-0.078,0.014-0.13-0.006l-0.075,0.191c-0.037,0.015-0.093,0.008-0.169-0.023c-0.01,0.026-0.008,0.094,0.009,0.203
			c0.016,0.11,0.014,0.19-0.007,0.241c-0.04,0.103-0.117,0.146-0.229,0.132c-0.021,0.051-0.043,0.293-0.065,0.728
			c-0.025-0.011-0.058-0.008-0.092,0.008l-0.054,0.024l0.04,0.458c-0.01,0.025-0.042,0.05-0.095,0.073
			c-0.054,0.023-0.086,0.048-0.095,0.074c-0.012,0.024-0.008,0.129,0.009,0.313c-0.153,0.235-0.259,0.43-0.319,0.584
			c-0.101,0.256-0.141,0.506-0.119,0.75c-0.106,0.047-0.181,0.121-0.221,0.223c-0.021,0.052-0.035,0.164-0.044,0.338
			c-0.03,0.076-0.097,0.094-0.199,0.055c-0.06,0.301-0.062,0.492-0.005,0.573c-0.02,0.052-0.074,0.075-0.16,0.07l-0.152,0.161
			c-0.01,0.025-0.027,0.049-0.049,0.069c-0.024,0.021-0.033,0.062-0.027,0.122c-0.02,0.053,0.009,0.093,0.086,0.123
			c-0.091,0.23-0.124,0.35-0.099,0.359c-0.036,0.017-0.063,0.05-0.083,0.101c-0.011,0.025-0.006,0.086,0.016,0.183l0.031,0.146
			c-0.036,0.016-0.092,0.046-0.168,0.09c-0.076,0.043-0.133,0.072-0.168,0.088c-0.01,0.026,0,0.074,0.031,0.146
			s0.054,0.125,0.07,0.16c-0.123,0.159-0.215,0.24-0.274,0.246l-0.062,0.153c-0.04,0.103-0.146,0.298-0.318,0.584
			c0.062,0.143,0.068,0.278,0.018,0.405c-0.021,0.052-0.066,0.092-0.138,0.123c-0.101,0.256-0.202,0.438-0.304,0.545
			c0.016,0.036,0.006,0.098-0.029,0.188c-0.035,0.091-0.051,0.166-0.045,0.227l-0.214,0.093c-0.07,0.179-0.129,0.289-0.175,0.329
			l0.077,0.031c0.052,0.02,0.071,0.043,0.062,0.068c0.011,0.122-0.053,0.246-0.189,0.369c-0.03,0.225-0.07,0.4-0.12,0.528
			l-0.061,0.153c0.006,0.208-0.063,0.344-0.204,0.407c-0.004,0.233-0.052,0.467-0.143,0.696l-0.045,0.115
			c0.03,0.07,0.023,0.164-0.021,0.279c-0.047,0.115-0.061,0.189-0.046,0.226c-0.035,0.016-0.081,0.058-0.138,0.123
			c-0.055,0.067-0.102,0.108-0.137,0.123c-0.04,0.102-0.078,0.161-0.114,0.177c-0.061,0.005-0.139,0.033-0.232,0.086
			c-0.095,0.051-0.159,0.085-0.194,0.101c-0.041,0.102-0.119,0.188-0.236,0.261s-0.191,0.146-0.221,0.224l-0.055,0.022
			c-0.025-0.01-0.051-0.02-0.076-0.029c0.006,0.061-0.037,0.132-0.129,0.214l-0.146,0.032c-0.106,0.046-0.187,0.059-0.237,0.039
			c-0.01,0.025-0.05,0.054-0.121,0.085c-0.072,0.031-0.131,0.066-0.176,0.107c-0.052-0.02-0.123-0.025-0.214-0.018
			c-0.093,0.009-0.151,0.007-0.177-0.003s-0.059-0.038-0.1-0.083c-0.184,0.015-0.353-0.008-0.506-0.067
			c-0.153-0.061-0.369-0.205-0.648-0.433c-0.28-0.229-0.51-0.379-0.688-0.449c-0.052-0.02-0.076-0.052-0.073-0.096
			c0.002-0.043-0.01-0.069-0.034-0.08l-0.154-0.061c-0.123,0.011-0.235-0.004-0.337-0.044c-0.307-0.121-0.576-0.376-0.808-0.762
			c0.041-0.102,0.035-0.164-0.017-0.184l-0.152-0.061c-0.017-0.036-0.048-0.123-0.097-0.26c-0.05-0.139-0.085-0.255-0.105-0.352
			c0.01-0.025,0.033-0.046,0.068-0.062l0.076,0.03c-0.092-0.214-0.131-0.451-0.117-0.711c0.01-0.025,0.039-0.044,0.087-0.055
			c0.049-0.01,0.078-0.028,0.089-0.054c0.01-0.026,0.015-0.076,0.014-0.149c0-0.073,0.012-0.106,0.038-0.096
			c0.021-0.052-0.011-0.123-0.093-0.214c0.035-0.016,0.053-0.062,0.053-0.134c0-0.074,0.005-0.124,0.015-0.149
			c0.056-0.066,0.089-0.113,0.099-0.138l0.092-0.23c0.01-0.025,0.014-0.076,0.014-0.149c0-0.075,0.01-0.138,0.03-0.188l0.03-0.076
			l-0.023-0.054c0.01-0.026,0.021-0.052,0.03-0.077c0.011-0.025,0.034-0.104,0.071-0.237c0.038-0.133,0.054-0.23,0.049-0.291
			c0.035-0.017,0.086-0.069,0.152-0.161c0.065-0.092,0.116-0.146,0.152-0.162l-0.024-0.275c0.091-0.081,0.147-0.147,0.167-0.2
			l0.054-0.022c0.01-0.025,0.021-0.051,0.03-0.076l0.045-0.115c0.021-0.051,0.045-0.13,0.072-0.238
			c0.027-0.106,0.057-0.199,0.086-0.276c0.031-0.076,0.086-0.18,0.168-0.31c0.08-0.131,0.137-0.235,0.167-0.312l0.045-0.114
			c0.021-0.051,0.015-0.111-0.017-0.184c0.242-0.614,0.434-1.025,0.576-1.236c0.01-0.024,0.033-0.045,0.068-0.061l0.054-0.023
			c-0.005-0.061,0.015-0.149,0.06-0.265c0.046-0.114,0.078-0.198,0.099-0.249l-0.008-0.092c-0.016-0.035-0.019-0.066-0.009-0.092
			c0.011-0.025,0.049-0.085,0.115-0.177c0.064-0.092,0.108-0.163,0.128-0.216c-0.026-0.157-0.004-0.252,0.067-0.283
			c-0.016-0.034-0.008-0.091,0.023-0.168c0.02-0.051,0.051-0.112,0.095-0.184c0.042-0.072,0.069-0.121,0.079-0.146
			c0.021-0.051,0.044-0.13,0.072-0.236c0.026-0.108,0.046-0.174,0.056-0.2c0.04-0.102,0.114-0.177,0.222-0.223
			c-0.006-0.061-0.039-0.111-0.097-0.149c-0.06-0.038-0.097-0.074-0.111-0.11c-0.036,0.015-0.182-0.027-0.438-0.129
			c-0.077-0.029-0.133-0.036-0.168-0.021c-0.042-0.045-0.126-0.094-0.254-0.144c-0.052-0.021-0.165-0.05-0.341-0.09
			c-0.178-0.041-0.311-0.094-0.402-0.16c-0.025-0.01-0.069-0.049-0.131-0.117c-0.062-0.069-0.105-0.108-0.131-0.118
			c-0.026-0.011-0.07-0.028-0.135-0.054c-0.063-0.024-0.104-0.055-0.119-0.091l-0.022-0.053c-0.025-0.011-0.051-0.021-0.076-0.031
			l-0.108-0.175l-0.191-0.076l-0.508-0.511c-0.103-0.039-0.172-0.053-0.207-0.037c-0.057-0.081-0.201-0.219-0.435-0.415
			c-0.233-0.195-0.381-0.363-0.442-0.507l-0.191-0.075c-0.047-0.107-0.111-0.243-0.193-0.409c-0.083-0.165-0.161-0.321-0.236-0.469
			c-0.074-0.147-0.125-0.301-0.15-0.459c-0.217-0.352-0.32-0.613-0.311-0.787c-0.047-0.107-0.081-0.283-0.103-0.528
			c-0.021-0.244-0.034-0.397-0.04-0.458l0.061-0.154c-0.031-0.07-0.051-0.137-0.055-0.199l0.016-0.037l0.068-0.063
			c-0.064-0.438-0.005-0.888,0.177-1.348l0.151-0.384c0.02-0.051,0.036-0.11,0.049-0.18c0.012-0.068,0.024-0.116,0.034-0.142
			c0.03-0.077,0.063-0.123,0.099-0.138c0.01-0.025,0.036-0.111,0.079-0.257c0.042-0.146,0.087-0.239,0.133-0.28l0.206-0.185
			c0.01-0.026,0.013-0.054,0.011-0.084c-0.003-0.031,0.001-0.06,0.011-0.085s0.029-0.055,0.058-0.088
			c0.027-0.033,0.046-0.063,0.057-0.089c0.021-0.051,0.034-0.126,0.045-0.227c0.009-0.099,0.03-0.187,0.06-0.264l0.205-0.406
			l0.045-0.116c0.081-0.203,0.139-0.313,0.175-0.329l0.03-0.077c0.02-0.051,0.068-0.135,0.145-0.252
			c0.075-0.118,0.129-0.216,0.159-0.293l0.045-0.114c0.025,0.01,0.061,0.016,0.104,0.019c0.043,0.002,0.082-0.005,0.117-0.02
			c0.011-0.026,0.005-0.05-0.015-0.072c-0.021-0.023-0.009-0.055,0.038-0.097c0.01-0.024,0.042-0.035,0.099-0.027
			c0.056,0.007,0.09-0.001,0.1-0.026c-0.012-0.124-0.001-0.222,0.029-0.299l0.067-0.063c0.046-0.041,0.08-0.087,0.1-0.138
			l0.03-0.077l0.093-0.008c0.045-0.041,0.091-0.119,0.137-0.234c0.045-0.115,0.103-0.188,0.174-0.22
			c0.102-0.254,0.177-0.372,0.229-0.353c0.04-0.102,0.092-0.178,0.156-0.226c0.063-0.05,0.148-0.098,0.256-0.144
			c0.106-0.046,0.183-0.09,0.229-0.132c0.137,0.026,0.452,0.091,0.942,0.195c0.025,0.009,0.053,0.051,0.085,0.122
			c0.086,0.005,0.229,0.017,0.429,0.036l0.077,0.03l0.62,0.111c0.178,0.071,0.376,0.209,0.592,0.411
			c0.024,0.01,0.068,0.013,0.13,0.007c0.092,0.066,0.199,0.168,0.322,0.306c0.123,0.136,0.219,0.233,0.285,0.288
			c-0.016,0.113,0.019,0.251,0.101,0.417c0.083,0.165,0.112,0.317,0.088,0.455L73.62,108c-0.01,0.026-0.041,0.065-0.091,0.12
			c-0.052,0.054-0.074,0.111-0.068,0.173c-0.01,0.025-0.001,0.059,0.026,0.1c0.029,0.04,0.037,0.073,0.028,0.1L73.5,108.53
			c-0.036,0.016-0.059,0.037-0.068,0.063s-0.002,0.043,0.023,0.053l0.008,0.092l-0.054,0.022l-0.075,0.192
			c0.158,0.122,0.187,0.311,0.087,0.566c-0.03,0.076-0.069,0.135-0.114,0.177c-0.011,0.025-0.003,0.043,0.023,0.054l0.062,0.067
			c-0.006,0.087-0.039,0.192-0.103,0.314c-0.063,0.124-0.092,0.216-0.087,0.276c-0.102,0.108-0.142,0.21-0.12,0.307
			c-0.052-0.021-0.095-0.022-0.131-0.008l-0.127,0.659c-0.075,0.118-0.153,0.279-0.234,0.484c-0.05,0.128-0.162,0.483-0.331,1.065
			c-0.107,0.046-0.171,0.169-0.19,0.368c-0.01,0.026-0.033,0.046-0.069,0.061l-0.053,0.023c-0.035,0.017-0.046,0.042-0.03,0.077
			l0.062,0.069c0.015,0.035,0.002,0.066-0.038,0.095c-0.041,0.028-0.065,0.057-0.075,0.081c0.015,0.035-0.007,0.131-0.068,0.283
			l0.023,0.054c0.005,0.063,0.003,0.105-0.008,0.131l-0.067,0.061c-0.142,0.358-0.182,0.609-0.119,0.752
			c-0.021,0.051-0.037,0.11-0.049,0.18c-0.013,0.068-0.024,0.116-0.034,0.142l-0.03,0.077c0.046,0.106,0.06,0.26,0.041,0.458
			c-0.021,0.2-0.02,0.349,0.002,0.444l0.255,0.367c0.04,0.046,0.096,0.052,0.168,0.021c0.071-0.031,0.132-0.036,0.184-0.017
			l0.221-0.223c0.122-0.011,0.258-0.112,0.408-0.305c0.148-0.191,0.247-0.308,0.293-0.349c0.025,0.009,0.127-0.024,0.306-0.102
			c-0.016-0.035-0.013-0.078,0.007-0.13c0.021-0.052,0.021-0.095,0.008-0.131c0.061-0.005,0.133-0.058,0.217-0.158
			c0.084-0.1,0.174-0.159,0.271-0.181c0.011-0.024,0.05-0.069,0.118-0.13c0.068-0.063,0.082-0.116,0.041-0.162
			c0.071-0.031,0.159-0.121,0.263-0.273c0.104-0.15,0.204-0.235,0.302-0.257c-0.042-0.046-0.051-0.094-0.031-0.146
			c0.02-0.051,0.061-0.078,0.122-0.084c-0.016-0.034-0.014-0.078,0.007-0.129s0.07-0.121,0.148-0.209
			c0.078-0.086,0.123-0.143,0.133-0.168l0.016-0.039c-0.017-0.035-0.018-0.066-0.009-0.092c0.092-0.23,0.266-0.485,0.524-0.768
			c-0.011-0.122-0.006-0.209,0.015-0.26c0.021-0.053,0.08-0.146,0.179-0.285c0.099-0.138,0.163-0.246,0.193-0.322
			c0.04-0.102,0.095-0.258,0.162-0.467c0.067-0.211,0.122-0.366,0.163-0.469l0.029-0.076c0.036-0.016,0.06-0.036,0.069-0.063
			l0.045-0.114c0.031-0.076,0.064-0.203,0.105-0.379c0.04-0.177,0.075-0.303,0.105-0.38l0.045-0.115
			c0.01-0.025,0.038-0.059,0.084-0.1c0.045-0.041,0.074-0.074,0.084-0.1l0.061-0.153c0.01-0.026,0.033-0.047,0.068-0.062
			c0.071-0.031,0.112-0.059,0.122-0.085l0.663-0.669c0.357-0.007,0.663,0.039,0.92,0.141
			C78.662,108.661,78.69,108.627,78.721,108.551z"/>
		<path fill="#231F20" d="M82.485,127.461c0.242,0.151,0.462,0.34,0.656,0.564l0.108,0.072c0.038,0.068,0.087,0.203,0.146,0.403
			c0.059,0.202,0.121,0.341,0.187,0.415c-0.022,0.079-0.004,0.271,0.056,0.57l-0.262,0.955c-0.007,0.025-0.068,0.066-0.183,0.121
			c-0.115,0.054-0.192,0.104-0.233,0.148c-0.15,0.131-0.295,0.19-0.435,0.181c-0.202,0.115-0.328,0.209-0.376,0.281
			c-0.397-0.109-0.674-0.142-0.828-0.1c-0.038-0.067-0.137-0.122-0.296-0.166c-0.106-0.029-0.218-0.117-0.334-0.263
			c-0.117-0.147-0.215-0.23-0.294-0.253c0.01-0.14-0.071-0.261-0.242-0.364c-0.01-0.175-0.049-0.285-0.122-0.333
			c0.036-0.133,0.039-0.324,0.009-0.575c-0.032-0.25-0.029-0.442,0.008-0.574c0.043-0.159,0.099-0.258,0.167-0.297l0.247-0.274
			l0.01-0.04l0.022-0.079c0.007-0.026,0.055-0.069,0.144-0.131c0.087-0.062,0.125-0.123,0.113-0.183
			c0.094-0.031,0.209-0.086,0.344-0.163c0.025,0.007,0.181-0.035,0.463-0.129C81.752,127.274,82.062,127.344,82.485,127.461z
			 M87.706,104.872c0.186,0.05,0.338,0.172,0.457,0.36c0.119,0.19,0.228,0.313,0.326,0.367c-0.002,0.114,0.043,0.233,0.138,0.358
			c0.093,0.126,0.146,0.218,0.158,0.279c-0.008,0.025-0.015,0.074-0.019,0.144c-0.005,0.07-0.025,0.115-0.058,0.134
			c0.103,0.143,0.067,0.532-0.106,1.169c-0.03,0.419-0.071,0.722-0.121,0.906c-0.037,0.134-0.097,0.245-0.179,0.336
			c0.031,0.094,0.02,0.24-0.035,0.439c-0.055,0.198-0.089,0.324-0.104,0.377l0.024,0.221c0.018,0.148,0.011,0.274-0.019,0.38
			l-0.36,1.312c-0.007,0.027-0.052,0.087-0.134,0.177c-0.008,0.027-0.012,0.068-0.013,0.125c-0.002,0.058-0.006,0.1-0.014,0.125
			c-0.006,0.026-0.018,0.066-0.032,0.119l-0.062,0.068c-0.056,0.1-0.091,0.253-0.105,0.463c-0.015,0.209-0.033,0.354-0.055,0.434
			c-0.022,0.079-0.082,0.191-0.178,0.336c-0.016,0.053-0.011,0.141,0.014,0.261c-0.044,0.158-0.104,0.398-0.177,0.72
			c-0.074,0.322-0.137,0.576-0.188,0.761c-0.131,0.478-0.306,0.957-0.523,1.438c0.023,0.121,0.028,0.208,0.015,0.261
			c-0.008,0.026-0.067,0.138-0.178,0.335l-0.066,0.239c-0.065,0.237-0.137,0.604-0.215,1.095l-0.164,0.597
			c-0.015,0.053-0.024,0.114-0.029,0.185c-0.006,0.069-0.011,0.118-0.018,0.144c-0.016,0.054-0.045,0.11-0.09,0.168
			c-0.045,0.06-0.07,0.103-0.078,0.128c-0.006,0.027-0.005,0.07,0.008,0.131c0.011,0.061,0.011,0.117-0.004,0.17
			c-0.008,0.026-0.018,0.067-0.032,0.12l-0.063,0.067c-0.007,0.027,0.002,0.072,0.026,0.136c0.025,0.063,0.031,0.123,0.017,0.176
			s-0.043,0.103-0.083,0.148c-0.041,0.046-0.065,0.081-0.072,0.107c-0.016,0.054-0.031,0.135-0.047,0.244
			c-0.016,0.11-0.027,0.178-0.034,0.205c-0.022,0.078-0.063,0.153-0.125,0.221c-0.062,0.069-0.097,0.116-0.104,0.144
			c-0.041,0.045-0.039,0.09,0.007,0.13c0.045,0.041,0.065,0.075,0.059,0.102c-0.037,0.132-0.104,0.321-0.199,0.564
			c-0.096,0.245-0.158,0.421-0.187,0.526c-0.059,0.213-0.077,0.435-0.056,0.669c-0.111,0.197-0.185,0.363-0.221,0.494
			c-0.073,0.266-0.092,0.488-0.057,0.669c-0.094,0.345-0.136,0.547-0.123,0.607c-0.015,0.053-0.045,0.06-0.091,0.019
			c-0.046-0.042-0.082-0.065-0.108-0.072c-0.061,0.011-0.187,0.104-0.376,0.281c-0.026-0.008-0.062-0.011-0.105-0.009
			c-0.044,0.003-0.079,0-0.104-0.006c-0.079-0.023-0.173-0.07-0.281-0.143c-0.109-0.072-0.203-0.119-0.282-0.142
			c-0.031-0.095-0.147-0.239-0.35-0.438c0.015-0.053,0.002-0.113-0.036-0.181c-0.039-0.068-0.047-0.142-0.024-0.221
			c-0.213-0.372-0.324-0.587-0.335-0.648c-0.032-0.094-0.031-0.25,0-0.47s0.041-0.358,0.029-0.419l-0.053-0.271
			c-0.005-0.087,0.004-0.197,0.027-0.334c0.022-0.137,0.046-0.244,0.067-0.324c0.146-0.843,0.223-1.277,0.23-1.305
			c0.007-0.025,0.03-0.063,0.072-0.108c0.041-0.045,0.068-0.095,0.083-0.148c0.008-0.025,0.01-0.089,0.01-0.189
			c-0.001-0.1,0.006-0.176,0.021-0.229c0.029-0.106,0.104-0.307,0.229-0.601c0.123-0.293,0.195-0.537,0.221-0.729l0.153-0.557
			c0.015-0.053,0.034-0.153,0.062-0.304c0.027-0.148,0.055-0.277,0.084-0.383c0.022-0.079,0.055-0.228,0.101-0.443
			c0.044-0.215,0.082-0.376,0.11-0.481c0.016-0.053,0.051-0.129,0.105-0.229c0.056-0.098,0.091-0.174,0.105-0.227
			c0.008-0.027,0.007-0.076-0.002-0.15c-0.008-0.073-0.008-0.123-0.001-0.15l0.055-0.198c0.052-0.185,0.16-0.482,0.33-0.893
			l0.044-0.159l0.088-0.318c0.036-0.132,0.118-0.224,0.246-0.274c0.007-0.025-0.008-0.051-0.043-0.075
			c-0.036-0.024-0.047-0.063-0.032-0.115c0.081-0.092,0.14-0.226,0.174-0.401c0.033-0.176,0.075-0.3,0.124-0.373l-0.054-0.271
			c0.028-0.105,0.058-0.241,0.089-0.403c0.03-0.163,0.061-0.296,0.089-0.403c0.036-0.132,0.117-0.323,0.244-0.573
			c0.021-0.08,0.072-0.109,0.151-0.087c-0.02-0.033-0.031-0.094-0.035-0.182c-0.006-0.086-0.018-0.146-0.036-0.18
			c0.015-0.053,0.04-0.096,0.078-0.128c0.036-0.033,0.06-0.063,0.067-0.089c0.014-0.053,0.021-0.137,0.025-0.25
			c0.002-0.112,0.008-0.182,0.014-0.21c0.015-0.053,0.047-0.114,0.095-0.187s0.076-0.123,0.084-0.148
			c0.015-0.053,0.044-0.159,0.087-0.318c0.044-0.159,0.073-0.266,0.088-0.318c0.063-0.125,0.16-0.403,0.294-0.838
			c0.134-0.434,0.256-0.749,0.367-0.946c0.007-0.027,0.043-0.053,0.106-0.078c0.064-0.025,0.1-0.051,0.106-0.077
			c0.008-0.026,0.019-0.066,0.033-0.119c-0.02-0.034-0.019-0.063,0.003-0.085c0.02-0.023,0.043-0.03,0.069-0.024
			c-0.019-0.032-0.015-0.103,0.016-0.209l0.159-0.426c-0.023-0.12-0.032-0.194-0.024-0.221c0.007-0.026,0.03-0.063,0.072-0.108
			c0.041-0.046,0.068-0.095,0.084-0.147l-0.019-0.091c0.015-0.054,0.025-0.093,0.032-0.12c0.015-0.053,0.046-0.115,0.095-0.188
			s0.076-0.121,0.084-0.148c0.014-0.053,0.032-0.119,0.054-0.198c0.022-0.079,0.046-0.137,0.069-0.173s0.051-0.079,0.078-0.129
			c0.027-0.049,0.065-0.081,0.112-0.098C87.604,104.858,87.653,104.858,87.706,104.872z"/>
	</g>
</g>
</svg>
