<?xml version="1.0" encoding="utf-8"?>
<!-- Generator: Adobe Illustrator 16.0.0, SVG Export Plug-In . SVG Version: 6.00 Build 0)  -->
<!DOCTYPE svg PUBLIC "-//W3C//DTD SVG 1.1//EN" "http://www.w3.org/Graphics/SVG/1.1/DTD/svg11.dtd">
<svg version="1.1" id="Layer_1" xmlns="http://www.w3.org/2000/svg" xmlns:xlink="http://www.w3.org/1999/xlink" x="0px" y="0px"
	 width="94.714px" height="74.368px" viewBox="0 0 94.714 74.368" enable-background="new 0 0 94.714 74.368" xml:space="preserve">
<g>
	<path fill="#FFFFFF" d="M43.777,2.5c0,0-35.891,1.222-40.899,17.813c-5.009,16.593-5.286,35.216,14.201,42.736
		c19.489,7.521,41.411,9.084,46.486,5.545C68.637,65.057,43.777,2.5,43.777,2.5z"/>
	<path fill="#FFFFFF" d="M76.457,49.749c0,0,0.842,18.521,9.438,22.641c8.597,4.117-28.733,1.039-33.11-2.244
		c-4.38-3.283-22.978-12.986-21.967-13.548C39.063,52.021,76.457,49.749,76.457,49.749z"/>
	<path fill="#BE1E2D" d="M94.666,30.94c0.444-3.232-2.106-15.682-8.012-18.811C79.46,8.317,72.561,2.271,64.458,0.868
		c-7.947-1.375-16.207-1.111-24.092,0.749c-6.529,1.541-13.533,6.241-18.875,10.238c-5.63,4.214-11.023,9.721-11.967,17.076
		c-0.748,5.854,0.348,14.759,4.353,19.185c5.798,6.409,15.462,12.307,24.143,13.625c3.045,0.463,6.394,0.254,9.502-0.068
		c2.621-0.271,3.554,0.654,5.608,1.968c4.518,2.87,9.412,4.649,14.545,6.413c2.162,0.748,5.188,1.635,7.457,0.783
		c3.117-1.168,1.002-1.758-0.615-2.83c-3.176-2.107-3.908-7.387-4.227-11.051c2.024-0.674,10.604-2.785,12.356-3.705
		C90.664,49.043,93.566,38.911,94.666,30.94z"/>
	<g>
		<path fill="#FFFFFF" d="M16.068,25.45c0.188-0.071,0.484-0.117,0.89-0.136c0.404-0.019,0.676-0.045,0.814-0.076
			c0.05-0.039,0.095-0.035,0.135,0.014c0.034,0.021,0.065,0.029,0.093,0.022l0.074-0.061c0.049-0.04,0.104-0.053,0.166-0.038
			c0.191,0.073,0.327,0.087,0.404,0.04c0.006,0.028,0.027,0.06,0.064,0.095c0.037,0.035,0.063,0.082,0.075,0.137
			c0.083-0.021,0.187-0.013,0.311,0.017c0.123,0.031,0.228,0.036,0.311,0.018c0.04,0.05,0.136,0.085,0.288,0.11
			c0.006,0.027,0.043,0.063,0.111,0.104c0.027-0.006,0.088,0.003,0.181,0.025c0.093,0.022,0.152,0.031,0.181,0.024
			c0.183,0.163,0.302,0.238,0.358,0.226c0.306,0.193,0.546,0.285,0.719,0.275c0.136,0.085,0.211,0.156,0.224,0.211l0.083-0.02
			c0.084-0.019,0.181-0.004,0.294,0.043c0.113,0.049,0.197,0.065,0.253,0.053c0.218,0.185,0.353,0.329,0.406,0.434l0.208-0.047
			c0.039,0.049,0.116,0.098,0.229,0.144c0.113,0.049,0.187,0.083,0.221,0.104l0.028,0.125c0.057,0.249,0.191,0.394,0.405,0.434
			l0.028,0.124c0.226,0.096,0.354,0.212,0.387,0.351c0.006,0.028,0.012,0.056,0.019,0.083l-0.022,0.093l0.267,0.597l0.028,0.126
			c0.013,0.055,0.05,0.09,0.111,0.104c0.068,0.044,0.119,0.076,0.154,0.097c-0.042,0.331-0.02,0.69,0.069,1.079
			c0.013,0.057,0.038,0.139,0.077,0.245c0.04,0.109,0.068,0.204,0.088,0.287c0.019,0.084,0.046,0.173,0.082,0.266
			c0.036,0.095,0.082,0.201,0.139,0.319c0.056,0.12,0.091,0.206,0.104,0.262c0.096,0.3,0.188,0.731,0.271,1.296
			c0.085,0.565,0.146,0.931,0.184,1.098c0.063,0.278,0.176,0.515,0.337,0.712c0.02,0.083,0.041,0.21,0.064,0.38
			c0.023,0.169,0.046,0.296,0.064,0.379c0.007,0.028,0.03,0.066,0.07,0.116c0.04,0.048,0.066,0.102,0.079,0.156l-0.004,0.177
			c0.007,0.027,0.021,0.06,0.045,0.099c0.023,0.039,0.038,0.072,0.044,0.1c-0.027,0.007-0.038,0.023-0.032,0.051
			c-0.015,0.063,0.001,0.131,0.048,0.209c0.046,0.077,0.073,0.129,0.079,0.157c-0.015,0.062-0.037,0.126-0.066,0.189
			c-0.028,0.065-0.04,0.112-0.033,0.14c0.201,0.247,0.309,0.397,0.322,0.452c0.019,0.084,0.017,0.143-0.005,0.177
			c0.007,0.027,0.018,0.076,0.033,0.146c0.015,0.07,0.058,0.127,0.126,0.17c0.013,0.056,0.008,0.1-0.013,0.134l0.06,0.073
			c0.014,0.057,0.047,0.076,0.103,0.064c-0.021,0.034-0.025,0.079-0.013,0.135c0.031,0.139,0.035,0.225,0.015,0.26
			c-0.021,0.033-0.028,0.064-0.022,0.093c-0.016,0.063,0.004,0.086,0.061,0.073c0.055-0.014,0.086-0.006,0.092,0.021
			c-0.002,0.118,0.016,0.262,0.054,0.428c0.032,0.139,0.081,0.229,0.149,0.272c0.006,0.026-0.008,0.062-0.043,0.097
			c-0.035,0.038-0.05,0.07-0.044,0.098l0.153,0.098l0.047,0.209c0.082,0.359,0.146,0.579,0.193,0.654
			c0.007,0.029,0.017,0.041,0.03,0.037c0.014-0.002,0.024,0.01,0.03,0.037c-0.009,0.09,0.015,0.129,0.07,0.116
			c0.033,0.021,0.04,0.05,0.02,0.084c-0.022,0.033-0.029,0.063-0.023,0.091c0.041,0.051,0.076,0.146,0.108,0.283
			c0.031,0.141,0.08,0.229,0.149,0.271c0.037,0.166,0.077,0.275,0.117,0.324l-0.042,0.01c-0.021,0.035-0.028,0.064-0.022,0.093
			c0.094,0.153,0.424,0.196,0.992,0.126L29,42.268c0.056-0.014,0.133-0.059,0.231-0.139c0.157,0.05,0.239,0.09,0.246,0.117
			c0.027-0.006,0.052-0.025,0.073-0.061s0.046-0.055,0.073-0.061l0.683,0.106c0.027-0.006,0.065-0.028,0.115-0.069
			c0.11-0.024,0.234,0.006,0.372,0.092c0.268,0.024,0.619,0.225,1.054,0.593c0.034,0.021,0.088,0.067,0.163,0.139
			c0.074,0.069,0.117,0.134,0.13,0.188c0.075,0.334,0.112,0.56,0.11,0.676c0.019,0.084-0.026,0.27-0.137,0.557
			c-0.027,0.008-0.053,0.026-0.073,0.063c-0.022,0.033-0.047,0.055-0.074,0.061l-0.023,0.092c0.007,0.029-0.005,0.045-0.032,0.053
			l-0.275,0.324c-0.029,0.008-0.077,0.047-0.148,0.123c-0.07,0.073-0.12,0.112-0.147,0.119c-0.021,0.035-0.089,0.063-0.198,0.09
			c-0.111,0.024-0.192,0.058-0.241,0.099c-0.153,0.094-0.272,0.149-0.355,0.168c-0.077,0.047-0.188,0.071-0.333,0.075
			c-0.146,0.004-0.243,0.027-0.293,0.066L29.89,45.79l-0.032,0.053c-0.056,0.013-0.164,0.052-0.323,0.117
			c-0.16,0.063-0.269,0.104-0.324,0.117l-0.125,0.027c-0.035-0.021-0.065-0.029-0.094-0.021l-0.051-0.033l-0.156,0.08
			c-0.084,0.02-0.199,0.022-0.348,0.014c-0.149-0.01-0.236-0.014-0.264-0.006c-0.174,0.01-0.429,0.046-0.764,0.107
			c-0.337,0.063-0.562,0.104-0.672,0.131c-0.417,0.094-0.729,0.135-0.936,0.125c-0.027,0.006-0.076-0.012-0.144-0.056l-0.157,0.08
			c-0.057,0.013-0.145,0.011-0.264-0.007c-0.121-0.018-0.209-0.018-0.265-0.005c-0.021,0.034-0.035,0.036-0.042,0.009l-0.051-0.031
			l-0.041,0.01c-0.057,0.014-0.081,0.033-0.074,0.061c-0.069-0.043-0.176-0.063-0.32-0.059c-0.146,0.004-0.235-0.004-0.269-0.026
			c-0.028,0.007-0.061-0.009-0.098-0.044c-0.037-0.035-0.07-0.051-0.098-0.043c-0.083,0.02-0.142,0.018-0.176-0.004l-0.599-0.127
			c-0.179-0.018-0.287-0.037-0.319-0.061l-0.052-0.031l-0.083,0.019c-0.028,0.007-0.083-0.009-0.165-0.05
			c-0.082-0.039-0.165-0.051-0.248-0.03c-0.006-0.026-0.099-0.05-0.278-0.067c-0.04-0.05-0.117-0.099-0.229-0.146
			c-0.113-0.047-0.187-0.08-0.221-0.104c-0.053-0.104-0.158-0.211-0.314-0.322c-0.156-0.11-0.256-0.189-0.295-0.24
			c-0.034-0.02-0.08-0.09-0.136-0.209c-0.057-0.119-0.118-0.199-0.187-0.243c-0.02-0.083-0.068-0.202-0.148-0.358
			c-0.078-0.158-0.128-0.277-0.146-0.361c-0.088-0.127-0.172-0.37-0.254-0.73c-0.006-0.027-0.027-0.052-0.061-0.074
			c-0.034-0.021-0.055-0.045-0.061-0.072c-0.032-0.141-0.033-0.213-0.006-0.219c-0.068-0.043-0.125-0.133-0.17-0.269
			c-0.047-0.136-0.1-0.21-0.162-0.228l-0.019-0.082c-0.019-0.082-0.074-0.229-0.166-0.444c-0.093-0.212-0.15-0.373-0.176-0.485
			c-0.044-0.193-0.049-0.34-0.012-0.436l-0.144-0.057c-0.013-0.055-0.02-0.11-0.018-0.17s-0.004-0.115-0.017-0.172l-0.01-0.041
			c-0.034-0.021-0.054-0.047-0.061-0.074c-0.006-0.027-0.002-0.072,0.014-0.133l0.031-0.053c-0.006-0.027-0.023-0.039-0.05-0.031
			c-0.029,0.006-0.045-0.006-0.052-0.033l-0.053-0.426l-0.08-0.158l-0.028-0.125c-0.075-0.332-0.151-0.533-0.226-0.604
			c-0.013-0.057,0.003-0.117,0.046-0.188c-0.006-0.026-0.031-0.043-0.076-0.047c-0.045-0.006-0.057-0.023-0.035-0.059
			c-0.013-0.055-0.033-0.176-0.06-0.357c-0.027-0.185-0.05-0.318-0.069-0.402c-0.038-0.166-0.077-0.273-0.117-0.322
			c-0.06-0.133-0.121-0.338-0.184-0.616c-0.006-0.026-0.028-0.058-0.066-0.094c-0.036-0.035-0.058-0.066-0.064-0.095l-0.028-0.125
			c-0.013-0.056-0.056-0.147-0.129-0.278c-0.073-0.128-0.119-0.234-0.139-0.318c-0.006-0.026-0.007-0.063-0.003-0.108
			c0.005-0.045,0.004-0.081-0.002-0.109c-0.068-0.042-0.108-0.121-0.119-0.235c-0.012-0.113,0.007-0.191,0.057-0.232l-0.01-0.041
			c-0.056,0.012-0.09-0.009-0.103-0.064c-0.031-0.139-0.091-0.366-0.177-0.683c-0.086-0.315-0.148-0.558-0.187-0.724L17,33.212
			c-0.069-0.306-0.09-0.521-0.059-0.645c-0.006-0.027-0.018-0.076-0.033-0.146c-0.015-0.07-0.055-0.111-0.116-0.126
			c0.008-0.091-0.023-0.229-0.095-0.417c-0.072-0.188-0.087-0.316-0.044-0.385c-0.068-0.042-0.123-0.089-0.162-0.138
			c-0.007-0.028-0.02-0.084-0.038-0.167c-0.02-0.084-0.018-0.142,0.003-0.177c-0.127-0.175-0.226-0.415-0.295-0.722l-0.236-1.041
			c-0.007-0.027,0.01-0.054,0.048-0.076c0.039-0.023,0.055-0.049,0.049-0.077c-0.013-0.055-0.053-0.104-0.121-0.146
			c0.035-0.359,0.037-0.607,0.006-0.747c-0.038-0.166-0.111-0.295-0.22-0.388c-0.006-0.027-0.008-0.064-0.003-0.109
			c0.004-0.044,0.003-0.081-0.004-0.108c-0.08-0.099-0.13-0.189-0.148-0.272c-0.007-0.027-0.013-0.086-0.018-0.171
			c-0.005-0.087-0.014-0.158-0.025-0.214c-0.007-0.026-0.021-0.06-0.045-0.099s-0.039-0.071-0.045-0.1
			c0.058-0.131,0.074-0.251,0.05-0.361c0.058-0.131,0.165-0.301,0.321-0.512C15.925,25.657,16.025,25.519,16.068,25.45z"/>
		<path fill="#FFFFFF" d="M39.461,20.836l0.125-0.028c0.084-0.019,0.206-0.024,0.368-0.017c0.162,0.006,0.271,0.003,0.327-0.01
			c0.056-0.013,0.112-0.018,0.171-0.018c0.059,0.003,0.115-0.003,0.172-0.016l0.5-0.114c0.359-0.082,0.634-0.1,0.819-0.055
			c0.027-0.006,0.093,0.023,0.195,0.088c0.25-0.058,0.538-0.007,0.866,0.152c0.167-0.037,0.362-0.016,0.585,0.064
			c0.223,0.082,0.403,0.105,0.542,0.074c0.032,0.139,0.15,0.215,0.357,0.225c0.1,0.183,0.164,0.271,0.191,0.264
			c0.096,0.037,0.242,0.135,0.439,0.295c0.197,0.159,0.357,0.256,0.481,0.285c0.093,0.154,0.17,0.238,0.232,0.254
			c0.034,0.021,0.042,0.057,0.024,0.104c-0.02,0.049-0.025,0.087-0.019,0.114c0.08,0.099,0.212,0.229,0.396,0.392
			c0.184,0.162,0.329,0.291,0.438,0.382c0.051,0.223,0.064,0.352,0.044,0.385c0.006,0.028,0.022,0.038,0.051,0.031
			c0.11-0.024,0.203-0.002,0.278,0.069c0.074,0.07,0.148,0.171,0.222,0.299c0.073,0.131,0.144,0.217,0.212,0.26
			c-0.016,0.062-0.011,0.148,0.015,0.259c0.031,0.14,0.125,0.293,0.28,0.462c0.155,0.17,0.253,0.279,0.294,0.328
			c0.014,0.056,0.033,0.146,0.063,0.271c0.027,0.125,0.063,0.213,0.103,0.261c0.04,0.051,0.086,0.092,0.138,0.122
			c0.051,0.032,0.08,0.063,0.086,0.091c0.197,0.481,0.313,0.732,0.348,0.754c0.006,0.027,0.014,0.092,0.021,0.191
			c0.009,0.102,0.019,0.179,0.031,0.233c0.095,0.417,0.243,0.749,0.444,0.995c0.076,0.333,0.156,0.622,0.24,0.864
			c0.02,0.084,0.073,0.196,0.164,0.336c0.09,0.141,0.143,0.237,0.153,0.293c0.021,0.084-0.004,0.176-0.067,0.278
			c0.014,0.056,0.037,0.131,0.072,0.225c0.036,0.095,0.061,0.17,0.073,0.225c0.058,0.25,0.065,0.481,0.026,0.694
			c0.045,0.077,0.084,0.186,0.115,0.323c0.045,0.195,0.063,0.338,0.055,0.427c0.014,0.057,0.039,0.108,0.078,0.157
			c0.041,0.051,0.055,0.105,0.039,0.167c0.006,0.027-0.016,0.063-0.063,0.103c-0.05,0.041-0.063,0.102-0.046,0.185l0.104,0.458
			c0.008,0.028,0.028,0.061,0.066,0.095c0.035,0.035,0.059,0.067,0.064,0.095c-0.026,0.269-0.037,0.418-0.031,0.445
			c0.025,0.111,0.1,0.24,0.221,0.389c0.014,0.057-0.003,0.117-0.046,0.186s-0.062,0.115-0.056,0.143
			c0.035,0.022,0.074,0.131,0.117,0.324c0.021,0.084,0.047,0.136,0.08,0.157c-0.021,0.034-0.041,0.075-0.06,0.123
			c-0.019,0.049-0.039,0.09-0.06,0.124c-0.021,0.033-0.043,0.074-0.062,0.122c-0.019,0.048-0.056,0.079-0.108,0.092
			c0.002,0.524-0.007,0.876-0.023,1.056c-0.028,0.007-0.065,0.036-0.111,0.091s-0.1,0.074-0.161,0.059
			c-0.104,0.316-0.184,0.479-0.239,0.492c0.01,0.173-0.037,0.345-0.146,0.516c-0.015,0.062,0.002,0.103,0.05,0.12
			c0.047,0.019,0.074,0.041,0.081,0.067c-0.514,0.438-0.972,0.996-1.373,1.67c-0.14,0.031-0.3,0.156-0.483,0.373
			c-0.084,0.02-0.173,0.076-0.269,0.172c-0.097,0.095-0.171,0.146-0.227,0.16l-0.25,0.057c-0.056,0.014-0.233,0.127-0.536,0.342
			c-0.246,0.201-0.38,0.32-0.401,0.354c-0.32,0.133-0.527,0.252-0.618,0.359l-0.177-0.004c-0.057,0.014-0.126,0.059-0.21,0.137
			c-0.086,0.078-0.155,0.123-0.211,0.135l-0.916,0.209c-0.32,0.131-0.578,0.22-0.772,0.264l-0.167,0.038
			c-0.056,0.013-0.117-0.003-0.186-0.046c-0.083,0.02-0.198,0.061-0.345,0.122c-0.147,0.062-0.261,0.104-0.344,0.122
			c-0.306,0.07-0.531,0.105-0.676,0.109c-0.056,0.012-0.143,0.019-0.26,0.016c-0.118-0.004-0.218,0.005-0.301,0.023
			c-0.028,0.006-0.068,0.022-0.12,0.049c-0.053,0.026-0.094,0.043-0.121,0.051c-0.083,0.019-0.204,0.002-0.361-0.051
			c-0.158-0.053-0.264-0.07-0.32-0.059l-0.166,0.038c-0.166,0.037-0.363,0.011-0.589-0.085c-0.089-0.01-0.198-0.035-0.325-0.079
			c-0.127-0.046-0.204-0.063-0.231-0.058l-0.125,0.027c-0.034-0.021-0.103-0.064-0.204-0.127c-0.103-0.066-0.185-0.105-0.246-0.121
			c-0.288-0.109-0.436-0.179-0.441-0.207c-0.313,0.043-0.729-0.053-1.248-0.285c-0.063-0.016-0.145-0.055-0.246-0.119
			c-0.102-0.064-0.185-0.104-0.246-0.119c-0.238-0.15-0.378-0.249-0.418-0.301l-0.391-0.172c-0.013-0.057-0.068-0.108-0.167-0.16
			c-0.099-0.051-0.158-0.117-0.177-0.2l-0.228-0.035c-0.155-0.17-0.366-0.422-0.632-0.756c-0.266-0.333-0.456-0.562-0.57-0.681
			c-0.202-0.246-0.406-0.564-0.611-0.955c-0.146-0.259-0.223-0.401-0.229-0.431l-0.232-0.254c-0.006-0.025-0.146-0.448-0.419-1.262
			c-0.178-0.398-0.27-0.61-0.275-0.639c-0.054-0.104-0.1-0.27-0.135-0.494c-0.037-0.226-0.064-0.38-0.083-0.464
			c-0.013-0.056-0.048-0.143-0.104-0.262c-0.057-0.118-0.091-0.204-0.104-0.261c-0.013-0.055-0.011-0.113,0.004-0.177
			c0.015-0.061,0.021-0.105,0.014-0.133c-0.013-0.056-0.042-0.151-0.087-0.288c-0.047-0.135-0.064-0.248-0.055-0.337l0.003-0.177
			c0.015-0.061-0.001-0.131-0.048-0.208l-0.078-0.157c0.007-0.353,0.015-0.574,0.024-0.663c0.008-0.089-0.008-0.225-0.049-0.405
			s-0.065-0.35-0.071-0.51c-0.008-0.157,0.021-0.289,0.086-0.391c-0.069-0.306-0.031-0.65,0.115-1.034
			c-0.058-0.513,0.008-0.863,0.199-1.053l-0.02-0.084c-0.04-0.048-0.063-0.087-0.069-0.115c0.049-0.04,0.091-0.108,0.128-0.204
			c0.037-0.097,0.069-0.146,0.098-0.153c0.021-0.033,0.015-0.061-0.02-0.084c-0.034-0.02-0.054-0.045-0.061-0.073
			c0.049-0.04,0.087-0.1,0.113-0.179c0.025-0.079,0.063-0.139,0.112-0.179c-0.017-0.2,0.033-0.431,0.149-0.692
			c0.116-0.26,0.176-0.448,0.178-0.565c0.347-0.662,0.527-1.024,0.542-1.087c0.049-0.039,0.231-0.197,0.549-0.476
			c0.05-0.038,0.118-0.121,0.208-0.243c0.088-0.122,0.172-0.207,0.248-0.253c0.027-0.007,0.073-0.032,0.137-0.075
			c0.063-0.043,0.108-0.069,0.137-0.075c0.027-0.007,0.115-0.069,0.263-0.191c0.147-0.121,0.277-0.194,0.388-0.22
			c0.021-0.033,0.074-0.127,0.156-0.276s0.177-0.251,0.282-0.305c0.049-0.04,0.18-0.106,0.393-0.199
			c0.212-0.092,0.337-0.186,0.373-0.282c0.118,0.003,0.315-0.027,0.593-0.091l0.209-0.047c0.055-0.013,0.111-0.053,0.168-0.125
			c0.057-0.071,0.112-0.114,0.169-0.127c0.523-0.264,0.796-0.414,0.818-0.448c0.062,0.015,0.134,0.014,0.218-0.005
			c0.166-0.038,0.292-0.126,0.378-0.262c0.049-0.04,0.157-0.08,0.324-0.117l0.542-0.123C39.263,20.926,39.385,20.885,39.461,20.836z
			 M40.214,23.382c0.023,0.229-0.074,0.439-0.293,0.636l0.048,0.207l-0.106,0.112c0.025,0.111,0.018,0.209-0.021,0.29
			c-0.04,0.082-0.086,0.173-0.135,0.271c-0.052,0.1-0.084,0.18-0.1,0.241c0.006,0.028,0.03,0.067,0.07,0.116
			c0.04,0.049,0.063,0.088,0.07,0.115l-0.074,0.061c-0.076,0.047-0.126,0.088-0.147,0.121l0.057,0.249
			c0.075,0.334,0.008,0.744-0.202,1.229l0.037,0.167c0.02,0.083,0.042,0.217,0.069,0.4c0.026,0.185,0.05,0.316,0.069,0.399
			c0.037,0.167,0.104,0.327,0.197,0.481c-0.077,0.047-0.104,0.126-0.078,0.237c0.006,0.027,0.013,0.056,0.019,0.083
			c0.007,0.028-0.012,0.077-0.055,0.145c-0.009,0.089-0.008,0.191,0.004,0.305c0.011,0.115,0.023,0.199,0.036,0.255
			c0.102,0.065,0.172,0.181,0.21,0.347c0.038,0.167,0.02,0.346-0.053,0.537c0.093,0.155,0.149,0.273,0.169,0.356
			c0.031,0.14,0.044,0.326,0.039,0.56c0.006,0.029,0.043,0.063,0.111,0.106c0.068,0.043,0.095,0.096,0.08,0.157
			c-0.019,0.18,0.023,0.492,0.125,0.937c0.037,0.166,0.103,0.422,0.195,0.766c0.093,0.345,0.158,0.599,0.196,0.765l0.057,0.251
			c0.007,0.027,0.03,0.073,0.075,0.136c0.043,0.063,0.068,0.109,0.074,0.137c0.1,0.182,0.197,0.452,0.293,0.81
			c0.096,0.358,0.174,0.603,0.233,0.735l0.21,0.346c0.205,0.392,0.359,0.62,0.462,0.685c0.103,0.065,0.276,0.127,0.524,0.187
			c0.055-0.012,0.107-0.009,0.155,0.01c0.048,0.018,0.085,0.023,0.114,0.017c0.061,0.017,0.119,0.018,0.176,0.005
			c0.027-0.007,0.094-0.036,0.198-0.09c0.104-0.051,0.188-0.07,0.25-0.057c0.325-0.365,0.59-0.615,0.794-0.749
			c0.015-0.062,0.044-0.156,0.089-0.283c0.043-0.127,0.087-0.224,0.13-0.293c0.036-0.097,0.064-0.262,0.084-0.5
			c0.019-0.237,0.032-0.402,0.041-0.491l0.078-0.237c0.015-0.062,0.02-0.136,0.016-0.223c-0.006-0.086-0.001-0.16,0.015-0.222
			c0.11-0.288,0.155-0.475,0.137-0.557c-0.019-0.084-0.046-0.136-0.08-0.157c0.037-0.097,0.071-0.235,0.103-0.418
			c0.032-0.183,0.055-0.304,0.07-0.366l-0.08-0.157c-0.019-0.083-0.014-0.187,0.018-0.311c0.029-0.123,0.043-0.198,0.036-0.227
			c-0.007-0.027-0.021-0.09-0.043-0.188c-0.021-0.096-0.026-0.176-0.011-0.238c-0.012-0.055-0.011-0.113,0.005-0.176
			c0.014-0.062,0.019-0.107,0.013-0.135l-0.143-0.625c-0.004-0.145-0.004-0.37,0-0.678c0.002-0.308-0.005-0.503-0.024-0.587
			c-0.021-0.345-0.176-0.806-0.467-1.383c-0.292-0.575-0.469-1.003-0.532-1.28c-0.115-0.12-0.229-0.335-0.344-0.645
			c-0.115-0.31-0.195-0.504-0.242-0.582c-0.295-0.398-0.455-0.655-0.48-0.766c-0.465-0.508-0.734-0.855-0.806-1.044
			c-0.124-0.029-0.306-0.091-0.545-0.182c-0.24-0.092-0.437-0.149-0.588-0.174C40.638,23.314,40.437,23.331,40.214,23.382z"/>
		<path fill="#FFFFFF" d="M63.314,17.082c0.139-0.032,0.275-0.005,0.413,0.081l0.208-0.047c0.277-0.063,0.553-0.009,0.824,0.163
			l0.334-0.076c0.171,0.107,0.238,0.209,0.201,0.305c0.033,0.021,0.064,0.029,0.093,0.023l0.093,0.021
			c-0.043,0.068-0.063,0.116-0.055,0.146c0.006,0.027,0.033,0.051,0.082,0.068c0.048,0.019,0.074,0.041,0.08,0.068
			c0.008,0.029,0.002,0.074-0.014,0.135c-0.016,0.063-0.017,0.121-0.004,0.177l0.362,0.049c0.006,0.028,0.057,0.126,0.153,0.293
			c0.097,0.169,0.158,0.309,0.184,0.419c0.031,0.14,0.001,0.263-0.091,0.37l0.209,0.348l-0.022,0.092l-0.021,0.094
			c0.051,0.223,0.037,0.356-0.039,0.403c0.121,0.147,0.143,0.244,0.066,0.292c0.031,0.021,0.06,0.073,0.078,0.156
			c0.031,0.14-0.017,0.252-0.142,0.339c0.067,0.044,0.176,0.135,0.325,0.276c-0.039,0.097-0.033,0.242,0.011,0.436
			c0.045,0.195,0.03,0.329-0.04,0.403c0.02,0.083,0.049,0.15,0.089,0.199c-0.114,0.26-0.168,0.418-0.153,0.473
			c-0.017,0.063,0,0.132,0.047,0.209c0.045,0.077,0.072,0.13,0.078,0.157c0.014,0.056,0.008,0.101-0.013,0.134
			c0.007,0.027,0.043,0.063,0.111,0.106c-0.173,0.273-0.271,0.412-0.3,0.418c0.013,0.057,0.043,0.094,0.092,0.111
			c0.048,0.019,0.074,0.041,0.08,0.069c0.008,0.027-0.008,0.061-0.043,0.098s-0.035,0.066-0.002,0.088
			c0.08,0.099,0.127,0.175,0.141,0.23c0.014,0.055,0.003,0.175-0.027,0.356c-0.031,0.183-0.039,0.316-0.021,0.399l0.028,0.125
			c0.006,0.027-0.01,0.053-0.049,0.076c-0.037,0.024-0.041,0.046-0.006,0.067c0.033,0.022,0.069,0.115,0.107,0.281l0.07,0.117
			c0.043,0.194,0.051,0.354,0.021,0.477c0.038,0.429,0.022,0.681-0.048,0.755c0.068,0.043,0.105,0.079,0.111,0.106
			c-0.086,0.136-0.115,0.26-0.092,0.371c0.008,0.028,0.027,0.052,0.063,0.073c-0.042,0.331-0.105,0.565-0.191,0.701
			c0.006,0.027,0.014,0.057,0.02,0.084c0.007,0.027,0.013,0.055,0.02,0.083l-0.139,0.162l0.048,0.208
			c0.032,0.021,0.032,0.053-0.003,0.088c-0.034,0.038-0.049,0.07-0.043,0.099l0.027,0.124c-0.051,0.158-0.102,0.258-0.15,0.298
			c0.068,0.042,0.084,0.112,0.047,0.208s-0.038,0.154-0.003,0.176c-0.022,0.034-0.03,0.095-0.024,0.181
			c0.004,0.088-0.018,0.15-0.066,0.19c0.033,0.021,0.047,0.077,0.037,0.167l-0.03,0.051c0.03,0.139,0.036,0.227,0.015,0.26
			c-0.043,0.068-0.078,0.105-0.105,0.111c-0.016,0.063-0.018,0.151-0.006,0.265c0.011,0.114-0.004,0.206-0.047,0.273
			c-0.135,0.06-0.182,0.172-0.144,0.339c0.007,0.027,0.013,0.056,0.019,0.083l0.063,0.074c-0.016,0.063-0.08,0.164-0.193,0.307
			l0.039,0.166c-0.051,0.042-0.091,0.124-0.119,0.246c-0.031,0.125-0.084,0.209-0.162,0.257l0.02,0.082
			c0.038,0.167-0.02,0.297-0.174,0.391c0.013,0.056,0.035,0.094,0.068,0.114c0.035,0.023,0.056,0.048,0.063,0.075
			c0.012,0.056-0.021,0.129-0.104,0.22c-0.082,0.093-0.117,0.166-0.104,0.222c-0.021,0.034-0.031,0.088-0.028,0.159
			c0.002,0.074-0.014,0.135-0.046,0.186c-0.032,0.051-0.073,0.098-0.122,0.138c0.012,0.055-0.015,0.128-0.082,0.216
			c-0.068,0.089-0.093,0.175-0.074,0.258c-0.049,0.041-0.123,0.131-0.223,0.27c-0.1,0.14-0.191,0.219-0.273,0.237L64.63,35.4
			c-0.021,0.033-0.021,0.105,0.006,0.217c-0.045,0.068-0.143,0.149-0.295,0.242c-0.086,0.137-0.18,0.246-0.277,0.326l-0.212,0.224
			c-0.021,0.034-0.088,0.063-0.198,0.089c-0.021,0.034-0.097,0.124-0.224,0.27c-0.128,0.146-0.229,0.242-0.308,0.288l-0.125,0.028
			c-0.026,0.007-0.1,0.017-0.213,0.027c-0.113,0.012-0.199,0.022-0.255,0.035c-0.11,0.025-0.19,0.059-0.239,0.099
			c-0.028,0.007-0.08,0.033-0.158,0.08c-0.076,0.047-0.129,0.072-0.156,0.079c-0.133,0.06-0.352,0.124-0.657,0.193
			c-0.083,0.019-0.213,0.026-0.389,0.023c-0.177-0.004-0.32,0.006-0.431,0.031c-0.028,0.006-0.072,0.039-0.133,0.098
			c-0.061,0.057-0.104,0.088-0.132,0.094c-0.104,0.055-0.31,0.115-0.614,0.185c-0.224,0.052-0.379,0.071-0.469,0.063
			c-0.068-0.043-0.13-0.059-0.186-0.047c-0.027,0.008-0.102,0.01-0.219,0.006c-0.117-0.002-0.189,0-0.217,0.006
			c-0.029,0.007-0.099-0.014-0.212-0.061c-0.112-0.047-0.2-0.08-0.262-0.095c-0.069-0.043-0.104-0.077-0.112-0.104
			c-0.056,0.013-0.126-0.01-0.211-0.063c-0.086-0.053-0.17-0.07-0.253-0.052c-0.067-0.043-0.138-0.093-0.209-0.149
			c-0.071-0.056-0.156-0.111-0.256-0.161c-0.099-0.05-0.165-0.086-0.199-0.107c-0.175-0.253-0.326-0.408-0.456-0.466l-0.029-0.126
			c-0.25-0.205-0.424-0.386-0.517-0.539c-0.04-0.049-0.087-0.126-0.14-0.23s-0.1-0.182-0.141-0.231
			c-0.007-0.027-0.035-0.058-0.087-0.091c-0.051-0.032-0.097-0.071-0.137-0.121c-0.035-0.021-0.069-0.079-0.104-0.174
			c-0.037-0.094-0.058-0.154-0.063-0.183c-0.041-0.049-0.097-0.102-0.167-0.158c-0.072-0.057-0.11-0.099-0.117-0.128l-0.037-0.166
			c-0.127-0.175-0.215-0.301-0.262-0.379c-0.203-0.245-0.318-0.438-0.35-0.577L54.19,33.61c-0.229-0.239-0.366-0.456-0.41-0.65
			l-0.028-0.125c-0.006-0.027-0.024-0.046-0.057-0.053c-0.031-0.008-0.05-0.025-0.056-0.055c-0.025-0.11-0.097-0.263-0.214-0.454
			c-0.116-0.192-0.185-0.33-0.203-0.414l-0.02-0.083c-0.088-0.126-0.438-0.704-1.051-1.733l-0.121-0.146l-0.076-0.334
			c-0.232-0.385-0.385-0.729-0.453-1.035l-0.028-0.125l-0.009-0.042l-0.063-0.073c-0.047-0.078-0.076-0.209-0.09-0.396
			s-0.043-0.318-0.09-0.395c-0.006-0.028-0.029-0.066-0.069-0.116l-0.058-0.25c-0.024-0.111-0.088-0.258-0.188-0.439
			c-0.101-0.181-0.158-0.314-0.178-0.397l-0.027-0.125c-0.07-0.043-0.139-0.15-0.207-0.325c-0.068-0.174-0.138-0.282-0.205-0.326
			l-0.133-0.584c-0.025-0.11-0.066-0.231-0.127-0.364c-0.06-0.133-0.095-0.227-0.107-0.281c-0.006-0.028-0.002-0.08,0.009-0.156
			c0.013-0.076,0.001-0.123-0.033-0.146l-0.06-0.073c-0.014-0.055-0.022-0.097-0.028-0.124c-0.011-0.061-0.042-0.39-0.091-0.991
			c-0.014-0.056-0.043-0.151-0.088-0.289c-0.045-0.134-0.074-0.229-0.088-0.286l-0.008-0.041l0.03-0.051
			c0.028-0.007,0.024-0.021-0.01-0.042c-0.033-0.021-0.037-0.036-0.009-0.042c0.009-0.09,0.027-0.231,0.056-0.429
			c0.028-0.198,0.044-0.354,0.047-0.47l0.568-0.393c0.026-0.006,0.101-0.066,0.221-0.182c0.12-0.116,0.205-0.193,0.254-0.233
			l0.25-0.057c0.056-0.013,0.136-0.044,0.24-0.099c0.104-0.053,0.171-0.083,0.198-0.089c0.104-0.052,0.257-0.159,0.453-0.321
			c0.062,0.015,0.135,0.013,0.218-0.006c0.056-0.013,0.138-0.037,0.245-0.077c0.107-0.039,0.203-0.068,0.287-0.087l0.052,0.031
			c0.012,0.056,0.046,0.078,0.102,0.065c0.027-0.007,0.052-0.026,0.074-0.061c0.021-0.034,0.06-0.059,0.115-0.071
			c0.04,0.05,0.13,0.06,0.271,0.027c0.139-0.031,0.217-0.006,0.235,0.077c0.026-0.006,0.079-0.003,0.155,0.009
			c0.074,0.012,0.127,0.015,0.154,0.009c0.114,0.12,0.164,0.211,0.149,0.272c0.103,0.063,0.155,0.11,0.163,0.138
			c0.083-0.019,0.203-0.002,0.361,0.05l0.027,0.125c0.069,0.306,0.096,0.489,0.081,0.551c0.147,0.142,0.242,0.296,0.28,0.462
			l0.027,0.125c0.033,0.021,0.082,0.041,0.145,0.055c0.063,0.016,0.098,0.037,0.104,0.064c0.03,0.139,0.039,0.24,0.024,0.301
			c0.006,0.027,0.036,0.064,0.09,0.111c0.056,0.046,0.089,0.097,0.101,0.152c0.238,0.151,0.439,0.456,0.604,0.915
			c0.039,0.05,0.041,0.085,0.002,0.108c-0.038,0.022-0.054,0.049-0.048,0.076l0.103,0.063c0.068,0.044,0.1,0.08,0.092,0.111
			c-0.008,0.031-0.021,0.078-0.034,0.139c0.17,0.107,0.317,0.176,0.44,0.207c0.058,0.25,0.164,0.4,0.321,0.452l0.019,0.083
			c0.039,0.166,0.104,0.327,0.197,0.481c0.027-0.007,0.068-0.016,0.125-0.028c0.055-0.013,0.088-0.006,0.094,0.022
			c0.147,0.142,0.229,0.239,0.242,0.296c0.103,0.063,0.215,0.177,0.34,0.338c0.125,0.163,0.22,0.265,0.287,0.307
			c0.059,0.251,0.104,0.387,0.137,0.407c-0.014,0.063-0.012,0.142,0.012,0.238c0.021,0.099,0.009,0.167-0.04,0.207
			c0.006,0.028,0.062,0.074,0.162,0.138c-0.015,0.063-0.011,0.149,0.017,0.261c0.082,0.36,0.114,0.572,0.1,0.634
			c0.039,0.049,0.086,0.09,0.138,0.123c0.051,0.03,0.079,0.063,0.086,0.089c-0.015,0.062-0.007,0.163,0.024,0.301
			c0.076,0.334,0.301,0.618,0.676,0.854c0.007,0.028,0.035,0.096,0.09,0.199c0.053,0.105,0.082,0.172,0.088,0.199
			c0.008,0.028,0.035,0.087,0.085,0.177c0.05,0.093,0.089,0.171,0.119,0.236c0.03,0.066,0.062,0.11,0.097,0.132
			c0.012,0.057,0.051,0.097,0.115,0.126c0.064,0.03,0.117,0.069,0.158,0.119c0.074,0.07,0.145,0.186,0.21,0.346
			s0.122,0.279,0.169,0.356c0.049-0.04,0.076-0.113,0.082-0.216c0.005-0.104,0-0.22-0.014-0.348c-0.016-0.128-0.014-0.224,0-0.285
			c-0.006-0.027,0.013-0.076,0.057-0.145c-0.064-0.539-0.084-0.944-0.057-1.213c0.045-0.185,0.064-0.292,0.059-0.32
			c-0.006-0.026-0.02-0.272-0.036-0.736l0.05-0.361c0.014-0.062,0.035-0.197,0.062-0.408c0.022-0.209,0.039-0.374,0.041-0.491
			l0.049-0.361c-0.013-0.056-0.026-0.148-0.04-0.275c-0.016-0.128-0.016-0.224,0.001-0.284c-0.007-0.029,0.013-0.077,0.056-0.146
			L60.798,25.1c-0.031-0.139-0.028-0.255,0.009-0.352c-0.024-0.11-0.052-0.164-0.079-0.158c0.016-0.061,0.012-0.17-0.009-0.326
			c-0.021-0.155-0.011-0.267,0.032-0.335c-0.019-0.083-0.021-0.193-0.008-0.327c0.014-0.135,0.01-0.243-0.01-0.327
			c0.027-0.006,0.037-0.03,0.027-0.072c-0.01-0.04,0.017-0.053,0.078-0.039c-0.033-0.021-0.063-0.087-0.09-0.199
			c-0.049-0.222-0.012-0.376,0.114-0.464c-0.006-0.026-0.026-0.052-0.061-0.074l-0.052-0.031c0.008-0.089,0.013-0.237,0.01-0.44
			c-0.002-0.204,0.015-0.354,0.051-0.45c0.016-0.061,0.045-0.126,0.088-0.194c-0.006-0.027-0.018-0.076-0.033-0.146
			c-0.016-0.068-0.015-0.127,0.004-0.176c0.02-0.047,0.055-0.078,0.111-0.091l-0.02-0.083c-0.058-0.25-0.039-0.487,0.057-0.714
			c-0.025-0.11-0.068-0.174-0.131-0.189c0.027-0.269,0.083-0.471,0.169-0.607c0.021-0.034,0.062-0.079,0.122-0.138
			c0.061-0.058,0.099-0.11,0.117-0.157c0.018-0.048,0.018-0.114-0.002-0.197c0.154-0.093,0.229-0.213,0.227-0.357
			c0.133-0.059,0.252-0.175,0.359-0.345l0.166-0.038c0.027-0.006,0.057-0.071,0.088-0.195c0.469-0.251,0.707-0.423,0.716-0.513
			l0.222-0.182c0.027-0.006,0.067-0.022,0.12-0.05C63.248,17.105,63.287,17.088,63.314,17.082z M61.542,22.391
			c0.026-0.007,0.059,0.002,0.092,0.022C61.607,22.42,61.576,22.412,61.542,22.391z"/>
		<path fill="#FFFFFF" d="M73.765,13.92l0.125-0.028c0.306-0.07,0.492-0.083,0.561-0.041c0.077-0.046,0.213-0.092,0.407-0.136
			c0.11-0.025,0.265-0.054,0.463-0.083c0.197-0.03,0.323-0.053,0.38-0.065c0.084-0.019,0.207-0.054,0.37-0.104
			c0.163-0.053,0.287-0.088,0.37-0.107c0.027-0.006,0.072-0.001,0.135,0.013c0.063,0.017,0.105,0.021,0.135,0.014
			c0.026-0.006,0.074-0.024,0.142-0.054c0.065-0.029,0.126-0.051,0.183-0.063c0.027-0.007,0.168-0.03,0.422-0.073
			c0.252-0.043,0.455-0.051,0.606-0.028c0.056-0.013,0.095-0.036,0.115-0.07l0.083-0.019c0.13,0.058,0.264,0.071,0.402,0.039
			l0.168-0.037c0.055-0.013,0.149-0.042,0.285-0.088c0.137-0.044,0.245-0.077,0.328-0.097l0.125-0.028
			c0.057-0.013,0.201-0.016,0.436-0.011c0.381,0.001,0.658,0.069,0.836,0.205c0.033,0.021,0.105,0.077,0.215,0.17
			s0.195,0.161,0.265,0.203c0.034,0.021,0.087,0.061,0.158,0.117c0.071,0.056,0.127,0.109,0.168,0.159l0.153,0.489
			c0.015,0.319-0.032,0.622-0.143,0.909c-0.096,0.228-0.205,0.383-0.332,0.47c-0.051,0.04-0.141,0.091-0.272,0.149
			c-0.134,0.061-0.224,0.109-0.272,0.149c-0.099,0.082-0.203,0.134-0.314,0.159c-0.055,0.012-0.146,0.005-0.269-0.026
			c-0.135,0.177-0.438,0.319-0.909,0.427l-0.834,0.188c-0.111,0.025-0.306,0.077-0.578,0.153c-0.275,0.077-0.496,0.134-0.662,0.172
			l-0.291,0.066c-0.117-0.001-0.256,0.03-0.416,0.095c-0.084,0.019-0.189,0.035-0.317,0.05c-0.128,0.016-0.22,0.029-0.274,0.041
			c-0.057,0.014-0.131,0.037-0.226,0.073s-0.169,0.06-0.226,0.072c-0.055,0.012-0.133,0.023-0.232,0.031
			c-0.102,0.009-0.165,0.017-0.191,0.022c-0.141,0.031-0.229,0.081-0.272,0.149c0.04,0.049,0.073,0.129,0.099,0.239
			c-0.148,0.122-0.232,0.201-0.255,0.233c0.034,0.022,0.068,0.102,0.101,0.24l0.015,0.26c0.013,0.056-0.003,0.118-0.046,0.186
			c-0.043,0.068-0.061,0.117-0.055,0.145c0.033,0.021,0.039,0.049,0.02,0.083l0.092,0.022c0.028-0.006,0.047,0.006,0.053,0.032
			c0.064,0.16,0.164,0.504,0.299,1.027c0.134,0.524,0.271,0.902,0.41,1.133c-0.033,0.242-0.058,0.394-0.072,0.455
			c0.041,0.05,0.089,0.067,0.146,0.055c0.056-0.013,0.087-0.004,0.093,0.021c0.051,0.223,0.07,0.379,0.063,0.468
			c0.115,0.122,0.191,0.265,0.23,0.431c0.043,0.194,0.018,0.404-0.076,0.631c0.012,0.057,0.02,0.119,0.021,0.191
			c0.001,0.073,0.007,0.123,0.013,0.15c0.037,0.167,0.104,0.393,0.197,0.679c0.094,0.285,0.153,0.484,0.18,0.595
			c0.03,0.139,0.043,0.252,0.033,0.343c0.192,0.073,0.362,0.181,0.512,0.321c0.082-0.02,0.207-0.055,0.369-0.105
			c0.164-0.052,0.272-0.085,0.33-0.098c0.139-0.031,0.297-0.037,0.477-0.021c0.265-0.117,0.48-0.197,0.646-0.235l0.426-0.053
			c0.035,0.022,0.127,0.045,0.278,0.068c0.152,0.024,0.248,0.062,0.288,0.11l0.167-0.038c0.033,0.021,0.15,0.083,0.349,0.184
			c0.199,0.102,0.355,0.154,0.475,0.156c0.02,0.083,0.093,0.153,0.223,0.212c-0.043,0.068-0.031,0.152,0.036,0.254
			c0.065,0.103,0.104,0.167,0.108,0.194l0.02,0.083l-0.128,0.205c0.013,0.056-0.004,0.146-0.048,0.273s-0.057,0.231-0.037,0.314
			c-0.021,0.035-0.074,0.062-0.156,0.08c-0.004,0.117-0.041,0.272-0.115,0.464L79.99,27.79c-0.057,0.013-0.136,0.047-0.24,0.099
			c-0.043,0.07-0.092,0.108-0.147,0.121c-0.083,0.021-0.185,0.027-0.302,0.025c-0.116-0.002-0.217,0.006-0.301,0.024l-0.406,0.137
			l-0.124,0.028c-0.058,0.013-0.136,0.016-0.239,0.01c-0.104-0.005-0.169-0.006-0.195,0.001c-0.084,0.019-0.138,0.046-0.158,0.079
			c-0.064,0.103-0.07,0.266-0.021,0.486c0.007,0.027,0.012,0.086,0.018,0.172c0.006,0.088,0.015,0.158,0.026,0.213
			c0.024,0.111,0.073,0.261,0.146,0.449c0.072,0.188,0.117,0.324,0.137,0.407l0.104,0.458c0.09,0.01,0.329,0.035,0.719,0.078
			c0.39,0.042,0.666,0.104,0.83,0.183c0.057-0.013,0.097-0.027,0.121-0.049c0.023-0.02,0.051-0.034,0.078-0.04
			c0.27,0.027,0.569,0.002,0.902-0.074c0.25-0.057,0.563-0.155,0.939-0.301c0.026-0.006,0.109,0.035,0.246,0.12
			c0.082-0.019,0.252-0.079,0.506-0.181s0.451-0.168,0.59-0.2c0.193-0.044,0.355-0.037,0.486,0.021
			c0.016-0.062,0.084-0.085,0.203-0.068c0.121,0.017,0.194,0.021,0.223,0.015l0.084-0.02c0.033,0.022,0.067,0.044,0.103,0.065
			l0.095,0.023l0.401,0.038c0.147,0.143,0.235,0.269,0.263,0.38c0.032,0.021,0.1,0.058,0.198,0.107
			c0.101,0.052,0.166,0.088,0.2,0.108c0.066,0.042,0.13,0.188,0.188,0.439c0.051,0.222,0.057,0.38,0.021,0.477l-0.105,0.111
			c-0.133,0.323-0.261,0.526-0.387,0.614l-0.338,0.251l-0.208,0.047c-0.083,0.02-0.173,0.077-0.269,0.171
			c-0.096,0.096-0.17,0.148-0.227,0.161c-0.057,0.013-0.119,0.025-0.178,0.024c-0.061-0.001-0.104,0.001-0.131,0.007
			c-0.027,0.007-0.073,0.062-0.139,0.163c-0.082,0.019-0.191,0.088-0.324,0.206c-0.135,0.117-0.239,0.199-0.316,0.246
			c-0.057,0.013-0.18,0.048-0.37,0.106s-0.339,0.114-0.444,0.166c-0.209,0.106-0.426,0.185-0.646,0.234
			c-0.168,0.038-0.282,0.049-0.345,0.035l-0.114,0.069c-0.05,0.04-0.085,0.078-0.104,0.112c-0.063-0.016-0.149-0.01-0.261,0.015
			c-0.056,0.013-0.138,0.039-0.245,0.077c-0.107,0.039-0.189,0.066-0.244,0.079c-0.027,0.006-0.07,0.016-0.125,0.028l-0.053-0.033
			c-0.027,0.007-0.066,0.023-0.12,0.049c-0.053,0.027-0.092,0.044-0.118,0.051c-0.078,0.046-0.256,0.102-0.533,0.164l-0.582,0.133
			c-0.101,0.08-0.162,0.123-0.189,0.13c-0.078,0.047-0.199,0.089-0.365,0.127c-0.25,0.057-0.435,0.084-0.552,0.081l-0.181,0.172
			c-0.139,0.032-0.336,0.092-0.594,0.18c-0.258,0.087-0.457,0.147-0.596,0.179c-0.166,0.038-0.309,0.055-0.426,0.053
			c-0.068-0.043-0.236-0.077-0.506-0.104c-0.27-0.026-0.446-0.103-0.533-0.23c-0.057,0.013-0.143-0.011-0.258-0.072
			c-0.116-0.061-0.219-0.096-0.309-0.104c-0.095-0.154-0.283-0.279-0.567-0.376c-0.284-0.096-0.462-0.164-0.528-0.208
			c-0.025-0.11-0.102-0.18-0.225-0.211c-0.012-0.056-0.032-0.117-0.063-0.184c-0.029-0.064-0.048-0.113-0.054-0.141
			c-0.131-0.059-0.304-0.18-0.521-0.363c-0.039-0.049-0.054-0.104-0.037-0.167l-0.01-0.042c-0.252-0.205-0.398-0.405-0.443-0.601
			l-0.019-0.082c-0.114-0.121-0.245-0.368-0.389-0.745c-0.146-0.375-0.287-0.62-0.431-0.733l-0.019-0.084
			c-0.013-0.055-0.063-0.146-0.149-0.272c-0.088-0.127-0.138-0.217-0.149-0.273l0.004-0.175c-0.155-0.169-0.263-0.38-0.317-0.63
			c-0.037-0.166-0.09-0.359-0.152-0.578c-0.064-0.218-0.143-0.463-0.234-0.735c-0.09-0.271-0.154-0.491-0.191-0.657l-0.229-1
			c-0.023-0.111-0.047-0.274-0.066-0.487c-0.02-0.216-0.039-0.364-0.058-0.448c-0.013-0.055-0.042-0.15-0.087-0.286
			c-0.046-0.136-0.078-0.245-0.098-0.328c-0.031-0.139-0.043-0.253-0.033-0.344c-0.034-0.02-0.038-0.034-0.01-0.041l0.074-0.061
			c-0.349-0.885-0.563-1.508-0.646-1.869c-0.019-0.083-0.024-0.241-0.021-0.477l-0.041,0.009c-0.058,0.014-0.088,0.006-0.094-0.022
			c-0.037-0.166-0.093-0.438-0.164-0.816c-0.07-0.379-0.129-0.664-0.174-0.859c-0.006-0.026-0.025-0.081-0.059-0.162
			c-0.032-0.08-0.055-0.147-0.067-0.202c-0.024-0.11-0.006-0.219,0.06-0.32l-0.052-0.033c-0.057,0.014-0.075-0.011-0.062-0.073
			c-0.068-0.686-0.174-1.347-0.318-1.985c0.02-0.034,0.055-0.079,0.1-0.134c0.047-0.054,0.08-0.099,0.104-0.132
			c-0.041-0.049-0.072-0.057-0.094-0.023c-0.021,0.034-0.051,0.041-0.084,0.021c-0.036-0.166-0.038-0.364-0.002-0.59
			c0.035-0.229,0.059-0.387,0.066-0.477c0.027-0.006,0.057-0.041,0.086-0.106c0.028-0.064,0.07-0.104,0.127-0.116
			c0.029-0.123,0.139-0.287,0.326-0.49s0.297-0.367,0.326-0.491c0.027-0.006,0.213-0.092,0.555-0.257
			c0.168-0.037,0.264-0.132,0.286-0.284c0.034,0.021,0.078,0.026,0.136,0.014c0.056-0.013,0.14-0.061,0.25-0.145
			c0.113-0.083,0.185-0.13,0.211-0.136c0.076-0.047,0.199-0.09,0.365-0.128c0.168-0.038,0.34-0.046,0.521-0.029
			c0.055-0.013,0.128-0.043,0.219-0.094c0.091-0.05,0.177-0.091,0.257-0.123c0.08-0.034,0.162-0.06,0.245-0.079
			c0.026-0.006,0.072,0,0.136,0.013l0.082-0.019c0.057-0.013,0.137-0.044,0.24-0.098c0.104-0.053,0.199-0.088,0.282-0.107
			l0.177,0.003c0.109-0.024,0.253-0.071,0.428-0.14c0.174-0.069,0.303-0.113,0.387-0.133l0.125-0.028L73.765,13.92z"/>
	</g>
	<g>
		<path fill="#FFFFFF" d="M52.783,44.354c0.021,0.012,0.076,0.018,0.168,0.009c0.092-0.007,0.15,0.007,0.178,0.035l0.104-0.028
			c0.139-0.037,0.229-0.043,0.273-0.02c0.017-0.006,0.022-0.016,0.019-0.032l0.026-0.007c0.052-0.016,0.146-0.021,0.285-0.023
			c0.14,0,0.234-0.008,0.287-0.021c0.051-0.014,0.092-0.034,0.121-0.063c0.004,0.02,0.01,0.035,0.014,0.053
			c0.006,0.019,0.011,0.035,0.015,0.052l0.156-0.043c0.021,0.014,0.026,0.03,0.014,0.052l0.009,0.025
			c0.051-0.014,0.098-0.008,0.144,0.018c0.044,0.025,0.083,0.033,0.118,0.023c0.021,0.013,0.064,0.037,0.131,0.076
			c0.066,0.037,0.105,0.082,0.121,0.133l0.099,0.057c0.009,0.034,0.03,0.076,0.062,0.123c0.033,0.047,0.049,0.08,0.055,0.098
			c0.015,0.051,0.039,0.123,0.072,0.215c0.035,0.094,0.068,0.162,0.101,0.209c0.03,0.049,0.078,0.101,0.14,0.158
			c0.063,0.057,0.1,0.104,0.108,0.137c0.004,0.019,0,0.037-0.013,0.06c-0.018,0.005-0.022,0.017-0.02,0.033
			c0.01,0.034,0.044,0.075,0.104,0.124c0.062,0.05,0.096,0.091,0.104,0.125c0.007,0.018-0.012,0.059-0.049,0.125
			c-0.037,0.064-0.052,0.117-0.042,0.15c0.01,0.035,0.027,0.053,0.057,0.055c0.028,0,0.045,0.012,0.051,0.027
			c0.02,0.145,0.067,0.252,0.144,0.322l-0.047,0.234l-0.113,0.199c0.031,0.047,0.091,0.06,0.177,0.035
			c0.021,0.012,0.051,0.064,0.086,0.156c0.034,0.094,0.073,0.152,0.117,0.176c0.014,0.184,0.026,0.301,0.041,0.354
			c0.02,0.068,0.038,0.107,0.061,0.121l0.016,0.052c0.01,0.035-0.007,0.112-0.047,0.235c0.053,0.061,0.1,0.16,0.137,0.297
			c0.038,0.139,0.092,0.234,0.163,0.289c0.004,0.019,0,0.057-0.012,0.115c-0.013,0.058,0.003,0.092,0.042,0.101
			c-0.014,0.021-0.036,0.036-0.07,0.046l0.035,0.13c-0.014,0.021-0.045,0.04-0.098,0.054c0.006,0.019,0.033,0.053,0.084,0.104
			c0.052,0.051,0.082,0.094,0.092,0.127c0.02,0.069-0.006,0.123-0.068,0.157c0.01,0.035,0.094,0.171,0.25,0.406
			c-0.018,0.004-0.031,0.019-0.044,0.041l-0.021,0.031l0.201,0.225c0.004,0.018-0.002,0.041-0.021,0.074s-0.025,0.06-0.021,0.075
			c0.006,0.019,0.047,0.07,0.127,0.16c0.014,0.183,0.033,0.325,0.063,0.429c0.047,0.172,0.123,0.317,0.229,0.438
			c-0.037,0.065-0.047,0.134-0.026,0.202c0.009,0.035,0.045,0.099,0.108,0.193c0.014,0.051-0.015,0.088-0.084,0.105
			c0.088,0.181,0.162,0.279,0.223,0.301c0.01,0.035-0.01,0.066-0.057,0.1l-0.017,0.144c0.005,0.017,0.005,0.036,0.001,0.056
			s0.008,0.045,0.034,0.073c0.01,0.035,0.04,0.045,0.092,0.03c0.043,0.156,0.072,0.23,0.091,0.227
			c-0.014,0.021-0.015,0.051-0.006,0.086c0.006,0.018,0.031,0.047,0.08,0.09l0.073,0.063c-0.013,0.021-0.03,0.061-0.054,0.111
			c-0.021,0.054-0.039,0.09-0.053,0.111c0.006,0.018,0.029,0.038,0.073,0.063c0.044,0.027,0.076,0.046,0.099,0.058
			c0,0.132-0.017,0.209-0.047,0.235l0.028,0.104c0.021,0.07,0.039,0.213,0.063,0.43c0.086,0.049,0.143,0.117,0.166,0.203
			c0.01,0.035,0.002,0.074-0.022,0.119c0.047,0.174,0.065,0.307,0.056,0.401c0.021,0.015,0.041,0.05,0.057,0.11
			c0.018,0.06,0.037,0.104,0.064,0.136l-0.074,0.132c0.032,0.12,0.045,0.2,0.037,0.238l0.053-0.014
			c0.033-0.01,0.055-0.004,0.06,0.012c0.054,0.06,0.067,0.148,0.045,0.267c0.071,0.129,0.119,0.235,0.144,0.323l0.028,0.104
			c0.085,0.105,0.103,0.203,0.052,0.291c0.09,0.125,0.156,0.264,0.198,0.42l0.021,0.076c0.045,0.026,0.076,0.077,0.099,0.155
			c0.021,0.077,0.043,0.122,0.063,0.135c-0.012,0.021-0.02,0.062-0.022,0.118s-0.01,0.096-0.022,0.118
			c0.02,0.067,0.021,0.114,0.01,0.137c-0.03,0.024-0.059,0.071-0.088,0.136c-0.029,0.063-0.051,0.105-0.063,0.127
			c0.02,0.07,0.012,0.146-0.021,0.229c-0.031,0.083-0.041,0.149-0.026,0.203l-0.019,0.032c-0.019,0.006-0.035,0.01-0.053,0.015
			c0.026,0.028,0.031,0.084,0.018,0.162l-0.063,0.073c-0.038,0.065-0.073,0.104-0.108,0.113c0.006,0.018-0.006,0.047-0.029,0.092
			c-0.025,0.045-0.043,0.084-0.051,0.125c-0.033,0.01-0.073,0.033-0.118,0.074c-0.044,0.041-0.075,0.063-0.093,0.066
			c-0.018,0.005-0.045,0.002-0.084-0.006c-0.09,0.08-0.188,0.136-0.291,0.164c-0.103,0.027-0.271,0.037-0.506,0.027
			c-0.235-0.011-0.414,0.002-0.535,0.034c-0.033,0.011-0.06,0.002-0.074-0.021c-0.016-0.024-0.032-0.033-0.051-0.028l-0.104,0.028
			c-0.061,0.054-0.124,0.09-0.191,0.107c-0.207,0.057-0.447,0.029-0.719-0.082c-0.02-0.068-0.046-0.099-0.08-0.089l-0.104,0.028
			c-0.021-0.014-0.072-0.045-0.151-0.098c-0.08-0.054-0.145-0.102-0.191-0.144c-0.006-0.017-0.002-0.036,0.012-0.06l0.052-0.014
			c-0.132-0.076-0.245-0.184-0.34-0.324c-0.005-0.019,0.004-0.039,0.024-0.063c0.021-0.024,0.029-0.046,0.024-0.062
			c-0.005-0.019-0.022-0.047-0.051-0.084c-0.029-0.039-0.035-0.061-0.019-0.064c-0.01-0.035-0.054-0.061-0.133-0.075
			c0.014-0.022,0.004-0.054-0.023-0.091c-0.028-0.038-0.047-0.066-0.051-0.084c0.002-0.057,0.002-0.094-0.002-0.109l-0.043-0.156
			c-0.006-0.018-0.021-0.045-0.052-0.084c-0.028-0.037-0.048-0.074-0.058-0.108l-0.014-0.052l-0.033-0.02
			c-0.006-0.018-0.01-0.035-0.016-0.052c-0.005-0.019-0.022-0.067-0.056-0.151c-0.031-0.084-0.062-0.143-0.088-0.172
			c0.012-0.021,0.019-0.068,0.017-0.143s0.004-0.121,0.016-0.145l-0.119-0.135c0.016-0.078,0.02-0.135,0.01-0.17l0.02-0.031
			c-0.006-0.018-0.011-0.035-0.016-0.053l-0.021-0.078c-0.008-0.033-0.026-0.085-0.055-0.15c-0.027-0.067-0.049-0.127-0.063-0.18
			c-0.016-0.052-0.025-0.127-0.035-0.227c-0.008-0.1-0.02-0.176-0.034-0.229l-0.021-0.076c-0.01-0.035-0.036-0.063-0.08-0.09
			c-0.114-0.414-0.176-0.703-0.184-0.869c-0.005-0.017,0-0.037,0.012-0.059l0.02-0.034c-0.025-0.028-0.051-0.083-0.072-0.159
			c-0.021-0.078-0.035-0.135-0.046-0.168l-0.04-0.045c-0.021-0.014-0.035-0.029-0.039-0.046c-0.006-0.019-0.009-0.063-0.011-0.137
			c-0.001-0.074-0.007-0.128-0.017-0.163c-0.075-0.07-0.102-0.129-0.075-0.174c-0.021-0.012-0.04-0.045-0.054-0.098
			c-0.01-0.035-0.019-0.078-0.022-0.133c-0.006-0.054-0.011-0.09-0.017-0.105c-0.01-0.035-0.027-0.086-0.055-0.152
			c-0.029-0.066-0.045-0.107-0.05-0.126c-0.019-0.069-0.01-0.136,0.028-0.203c-0.026-0.028-0.063-0.042-0.108-0.038
			c-0.045,0.002-0.079-0.002-0.102-0.016c-0.013,0.021-0.105,0.057-0.277,0.104c-0.052,0.014-0.084,0.033-0.096,0.055
			c-0.04-0.006-0.104,0-0.188,0.023c-0.035,0.01-0.105,0.039-0.214,0.088c-0.108,0.047-0.198,0.072-0.271,0.073
			c-0.019,0.005-0.057,0.001-0.114-0.011s-0.099-0.016-0.114-0.012c-0.018,0.006-0.048,0.014-0.091,0.024s-0.076,0.013-0.099,0
			l-0.032-0.021c-0.017,0.006-0.034,0.011-0.052,0.015L51.38,53.14l-0.129,0.036l-0.465-0.068c-0.068,0.02-0.109,0.04-0.121,0.063
			c-0.063-0.021-0.191-0.035-0.39-0.047c-0.198-0.011-0.342-0.041-0.43-0.092l-0.13,0.035c-0.065-0.038-0.152-0.083-0.26-0.138
			c-0.107-0.054-0.209-0.104-0.307-0.152c-0.097-0.048-0.184-0.106-0.258-0.181c-0.25-0.1-0.406-0.194-0.469-0.288
			c-0.066-0.037-0.152-0.117-0.26-0.235c-0.107-0.119-0.175-0.193-0.201-0.225l-0.027-0.104c-0.045-0.024-0.08-0.053-0.106-0.082
			l-0.007-0.025l0.012-0.059c-0.205-0.205-0.35-0.461-0.435-0.772l-0.07-0.259c-0.01-0.034-0.024-0.072-0.045-0.113
			c-0.021-0.04-0.033-0.068-0.038-0.087c-0.014-0.052-0.015-0.089-0.002-0.11c-0.005-0.018-0.024-0.072-0.06-0.164
			c-0.034-0.093-0.048-0.158-0.04-0.199l0.035-0.176c-0.005-0.018-0.014-0.033-0.027-0.049c-0.014-0.016-0.022-0.029-0.027-0.048
			c-0.004-0.019-0.006-0.04-0.005-0.067c0.002-0.029,0.001-0.052-0.005-0.068c-0.009-0.034-0.031-0.08-0.064-0.137
			c-0.033-0.055-0.058-0.109-0.072-0.16l-0.052-0.293l-0.021-0.078c-0.037-0.137-0.05-0.217-0.038-0.238l-0.014-0.053
			c-0.01-0.034-0.018-0.096-0.023-0.188c-0.007-0.091-0.018-0.162-0.031-0.215l-0.021-0.077c0.018-0.004,0.038-0.015,0.062-0.03
			c0.023-0.016,0.042-0.035,0.055-0.057c-0.005-0.018-0.018-0.027-0.036-0.031c-0.021-0.005-0.026-0.025-0.019-0.064
			c-0.005-0.018,0.009-0.034,0.042-0.053c0.031-0.02,0.045-0.037,0.041-0.055c-0.055-0.061-0.088-0.115-0.102-0.167l0.012-0.06
			c0.008-0.037,0.007-0.075-0.003-0.11l-0.015-0.052l0.045-0.039c0.008-0.04,0.001-0.098-0.02-0.176s-0.02-0.139,0.005-0.184
			c-0.047-0.173-0.054-0.264-0.019-0.271c-0.02-0.07-0.021-0.129-0.008-0.18c0.014-0.051,0.04-0.109,0.078-0.176
			c0.037-0.066,0.061-0.117,0.068-0.156c0.081-0.041,0.27-0.131,0.566-0.268c0.018-0.005,0.048,0.005,0.092,0.03
			c0.048-0.03,0.127-0.08,0.238-0.147l0.053-0.016l0.366-0.184c0.12-0.033,0.276-0.039,0.47-0.018
			c0.017-0.005,0.039-0.021,0.068-0.048c0.074-0.001,0.17,0.009,0.288,0.032s0.205,0.037,0.261,0.039
			c0.037,0.065,0.108,0.125,0.217,0.179c0.107,0.056,0.183,0.123,0.224,0.204l0.104,0.082c0.006,0.018,0.006,0.051,0,0.097
			c-0.007,0.05,0.004,0.089,0.031,0.117c0.005,0.019,0.021,0.032,0.053,0.042s0.049,0.023,0.053,0.041l0.009,0.025
			c-0.013,0.021-0.017,0.043-0.013,0.06c0.006,0.017,0.017,0.022,0.033,0.019l0.039,0.045l-0.018,0.033l0.035,0.129
			c0.13,0.002,0.219,0.09,0.266,0.262c0.016,0.053,0.018,0.098,0.01,0.137c0.006,0.018,0.016,0.023,0.033,0.02l0.059,0.012
			c0.031,0.047,0.056,0.115,0.069,0.203c0.015,0.09,0.036,0.147,0.063,0.179c-0.012,0.097,0.008,0.165,0.057,0.207
			c-0.035,0.01-0.059,0.024-0.07,0.047l0.19,0.394c0.007,0.092,0.028,0.205,0.065,0.344c0.023,0.086,0.104,0.314,0.244,0.687
			c-0.037,0.065-0.022,0.154,0.045,0.267c0.004,0.017,0,0.037-0.013,0.059l-0.019,0.033c-0.014,0.021-0.008,0.039,0.014,0.051
			l0.061,0.014c0.021,0.012,0.026,0.033,0.018,0.063c-0.01,0.03-0.014,0.055-0.01,0.071c0.022,0.014,0.049,0.07,0.076,0.174
			l0.033,0.02c0.026,0.03,0.043,0.055,0.047,0.07l-0.012,0.061c0.064,0.24,0.145,0.387,0.23,0.438
			c0.011,0.035,0.023,0.072,0.046,0.113c0.021,0.041,0.032,0.068,0.036,0.086l0.016,0.052c0.064,0.038,0.133,0.112,0.2,0.224
			c0.067,0.112,0.125,0.189,0.175,0.23l0.275,0.093c0.039,0.008,0.07-0.011,0.097-0.054c0.024-0.045,0.056-0.071,0.089-0.08
			l0.028-0.203c0.059-0.053,0.091-0.159,0.094-0.316c0.003-0.16,0.008-0.259,0.017-0.299c0.018-0.005,0.057-0.063,0.119-0.172
			c-0.021-0.012-0.037-0.035-0.047-0.07s-0.025-0.058-0.047-0.07c0.029-0.026,0.047-0.082,0.053-0.168
			c0.004-0.084,0.026-0.149,0.069-0.199c-0.005-0.018-0.002-0.055,0.01-0.114c0.013-0.06-0.002-0.092-0.041-0.101
			c0.025-0.043,0.035-0.125,0.03-0.244s0.016-0.203,0.057-0.252c-0.039-0.008-0.063-0.028-0.072-0.063
			c-0.01-0.034,0-0.065,0.031-0.092c-0.023-0.013-0.039-0.036-0.048-0.069c-0.01-0.035-0.012-0.092-0.005-0.166
			c0.007-0.076,0.009-0.123,0.004-0.143l-0.007-0.025c-0.022-0.012-0.035-0.027-0.04-0.045c-0.043-0.154-0.053-0.355-0.025-0.604
			c-0.056-0.061-0.086-0.106-0.096-0.141c-0.009-0.035-0.016-0.107-0.02-0.219c-0.002-0.111-0.01-0.191-0.023-0.244
			c-0.02-0.068-0.052-0.171-0.1-0.307c-0.045-0.137-0.077-0.239-0.098-0.309l-0.014-0.051c0.012-0.021,0.016-0.043,0.012-0.06
			l-0.021-0.078c-0.015-0.052-0.046-0.131-0.095-0.239c-0.047-0.107-0.078-0.188-0.092-0.238l-0.021-0.076
			c-0.006-0.018-0.004-0.047,0.005-0.086c0.008-0.039,0.01-0.067,0.005-0.084l-0.027-0.104c-0.006-0.019-0.002-0.037,0.012-0.06
			c0.023-0.045,0.035-0.074,0.029-0.092l0.084-0.607c0.185-0.145,0.361-0.238,0.534-0.286
			C52.792,44.434,52.794,44.407,52.783,44.354z"/>
		<path fill="#FFFFFF" d="M62.267,40.672l0.078-0.021c0.052-0.014,0.128-0.021,0.23-0.021c0.102,0,0.17-0.004,0.204-0.014
			c0.034-0.011,0.069-0.015,0.107-0.016c0.036-0.002,0.071-0.006,0.106-0.016l0.312-0.086c0.224-0.062,0.396-0.08,0.513-0.058
			c0.018-0.005,0.059,0.013,0.125,0.05c0.155-0.043,0.338-0.019,0.549,0.072c0.104-0.027,0.227-0.021,0.368,0.023
			s0.257,0.057,0.343,0.031c0.024,0.086,0.102,0.131,0.231,0.133c0.067,0.11,0.108,0.164,0.127,0.16
			c0.062,0.021,0.155,0.077,0.282,0.172c0.13,0.096,0.232,0.149,0.312,0.166c0.063,0.096,0.113,0.146,0.152,0.152
			c0.022,0.014,0.028,0.034,0.019,0.064c-0.011,0.029-0.013,0.055-0.009,0.072c0.054,0.06,0.14,0.139,0.261,0.234
			c0.118,0.098,0.215,0.174,0.284,0.229c0.037,0.138,0.052,0.219,0.038,0.24c0.005,0.018,0.016,0.022,0.032,0.018
			c0.069-0.018,0.128-0.006,0.177,0.037c0.049,0.041,0.098,0.103,0.146,0.183c0.051,0.079,0.097,0.131,0.142,0.155
			c-0.008,0.039-0.002,0.094,0.017,0.162c0.024,0.086,0.088,0.182,0.188,0.281c0.103,0.104,0.166,0.17,0.192,0.199
			c0.011,0.034,0.025,0.09,0.047,0.167c0.021,0.078,0.046,0.132,0.072,0.162c0.025,0.03,0.057,0.054,0.088,0.071
			c0.033,0.021,0.054,0.039,0.058,0.056c0.138,0.296,0.217,0.45,0.237,0.464c0.007,0.018,0.013,0.057,0.021,0.119
			c0.009,0.064,0.017,0.111,0.024,0.146c0.072,0.258,0.175,0.463,0.309,0.611c0.057,0.209,0.114,0.387,0.176,0.536
			c0.014,0.052,0.051,0.121,0.111,0.207c0.061,0.085,0.096,0.146,0.104,0.179c0.016,0.053,0.004,0.11-0.035,0.178
			c0.011,0.035,0.027,0.08,0.053,0.139s0.043,0.105,0.052,0.141c0.043,0.154,0.056,0.301,0.036,0.434
			c0.031,0.049,0.061,0.115,0.083,0.201c0.033,0.121,0.047,0.209,0.045,0.267c0.011,0.035,0.026,0.065,0.056,0.097
			c0.024,0.03,0.034,0.063,0.026,0.104c0.005,0.017-0.008,0.038-0.037,0.065c-0.03,0.026-0.038,0.065-0.022,0.117l0.078,0.284
			c0.004,0.019,0.02,0.038,0.043,0.06c0.023,0.021,0.039,0.041,0.045,0.058c-0.01,0.169-0.014,0.263-0.008,0.28
			c0.019,0.067,0.067,0.147,0.147,0.238c0.01,0.033,0.002,0.072-0.022,0.116c-0.025,0.044-0.035,0.074-0.031,0.093
			c0.021,0.012,0.051,0.079,0.084,0.198c0.014,0.054,0.031,0.085,0.054,0.097c-0.013,0.021-0.024,0.049-0.034,0.08
			c-0.01,0.03-0.021,0.057-0.033,0.077c-0.013,0.022-0.023,0.05-0.035,0.08c-0.01,0.031-0.031,0.05-0.065,0.06
			c0.017,0.33,0.021,0.553,0.015,0.664c-0.018,0.006-0.039,0.024-0.066,0.062c-0.027,0.034-0.062,0.049-0.1,0.041
			c-0.058,0.2-0.104,0.306-0.138,0.315c0.011,0.107-0.015,0.219-0.077,0.328c-0.008,0.039,0.004,0.063,0.034,0.073
			s0.049,0.022,0.053,0.041c-0.311,0.289-0.581,0.651-0.815,1.086c-0.086,0.022-0.185,0.104-0.295,0.247
			c-0.051,0.016-0.105,0.055-0.162,0.115c-0.059,0.063-0.104,0.099-0.139,0.107l-0.154,0.043c-0.035,0.01-0.145,0.084-0.327,0.229
			c-0.148,0.133-0.229,0.211-0.242,0.232c-0.196,0.092-0.324,0.172-0.379,0.242l-0.11,0.002c-0.035,0.01-0.078,0.041-0.129,0.092
			c-0.051,0.052-0.094,0.082-0.128,0.09l-0.569,0.156c-0.197,0.092-0.356,0.153-0.478,0.188l-0.104,0.027
			c-0.035,0.011-0.074,0.002-0.117-0.022c-0.053,0.015-0.123,0.044-0.213,0.087c-0.092,0.043-0.162,0.071-0.213,0.086
			c-0.19,0.053-0.332,0.081-0.422,0.088c-0.035,0.01-0.09,0.016-0.164,0.016c-0.072,0.004-0.136,0.012-0.188,0.025
			c-0.018,0.004-0.042,0.016-0.074,0.033c-0.031,0.02-0.057,0.029-0.072,0.034c-0.053,0.015-0.129,0.008-0.229-0.021
			c-0.101-0.029-0.168-0.039-0.202-0.029l-0.104,0.029c-0.104,0.027-0.229,0.017-0.373-0.037c-0.057-0.004-0.125-0.018-0.207-0.043
			c-0.08-0.022-0.129-0.033-0.146-0.027l-0.078,0.021c-0.022-0.014-0.065-0.039-0.132-0.076c-0.066-0.039-0.119-0.061-0.158-0.068
			c-0.184-0.061-0.277-0.1-0.281-0.117c-0.194,0.035-0.459-0.014-0.793-0.145c-0.039-0.008-0.092-0.031-0.156-0.068
			c-0.065-0.038-0.119-0.061-0.157-0.068c-0.154-0.088-0.245-0.146-0.271-0.176l-0.25-0.1c-0.011-0.034-0.047-0.065-0.109-0.096
			c-0.063-0.029-0.104-0.068-0.117-0.121l-0.143-0.017c-0.104-0.101-0.242-0.254-0.418-0.456c-0.176-0.201-0.301-0.34-0.377-0.412
			c-0.135-0.148-0.271-0.344-0.41-0.582c-0.1-0.16-0.151-0.248-0.156-0.266l-0.152-0.152c-0.005-0.017-0.104-0.277-0.298-0.781
			c-0.122-0.244-0.187-0.375-0.19-0.394c-0.037-0.063-0.069-0.166-0.099-0.308c-0.028-0.141-0.051-0.235-0.065-0.288
			c-0.008-0.034-0.032-0.087-0.07-0.161c-0.039-0.072-0.063-0.126-0.072-0.161c-0.009-0.034-0.011-0.071-0.003-0.11
			c0.009-0.039,0.011-0.067,0.005-0.084c-0.009-0.035-0.029-0.095-0.063-0.179s-0.047-0.153-0.045-0.21l-0.002-0.109
			c0.008-0.041-0.004-0.084-0.034-0.131l-0.056-0.098c-0.004-0.221-0.006-0.359-0.002-0.416c0.002-0.057-0.012-0.141-0.041-0.253
			c-0.031-0.112-0.052-0.218-0.061-0.317c-0.009-0.099,0.006-0.184,0.043-0.25c-0.052-0.189-0.037-0.406,0.045-0.65
			c-0.051-0.32-0.02-0.543,0.096-0.668l-0.015-0.051c-0.026-0.029-0.042-0.055-0.047-0.07c0.028-0.026,0.055-0.07,0.075-0.133
			c0.02-0.062,0.039-0.094,0.056-0.1c0.013-0.021,0.009-0.039-0.015-0.052c-0.021-0.013-0.035-0.026-0.039-0.044
			c0.029-0.027,0.052-0.064,0.064-0.116c0.016-0.049,0.036-0.089,0.066-0.114c-0.018-0.125,0.009-0.271,0.074-0.438
			c0.066-0.167,0.099-0.287,0.097-0.359c0.199-0.427,0.302-0.658,0.312-0.699c0.028-0.024,0.14-0.129,0.332-0.313
			c0.028-0.025,0.069-0.079,0.123-0.158c0.051-0.078,0.102-0.135,0.147-0.167c0.019-0.005,0.045-0.021,0.084-0.05
			c0.038-0.027,0.065-0.047,0.084-0.053c0.017-0.004,0.069-0.045,0.159-0.125s0.169-0.131,0.238-0.148
			c0.012-0.023,0.041-0.082,0.09-0.179c0.048-0.097,0.104-0.162,0.168-0.198c0.029-0.027,0.109-0.072,0.242-0.137
			c0.131-0.063,0.205-0.127,0.228-0.188c0.073-0.002,0.196-0.027,0.369-0.074l0.129-0.035c0.035-0.01,0.069-0.036,0.103-0.084
			c0.034-0.045,0.067-0.073,0.104-0.084c0.322-0.18,0.488-0.281,0.502-0.303c0.039,0.008,0.084,0.004,0.136-0.011
			c0.104-0.028,0.181-0.087,0.229-0.174c0.031-0.026,0.098-0.056,0.201-0.083l0.336-0.094C62.144,40.732,62.22,40.702,62.267,40.672
			z M62.81,42.249c0.021,0.144-0.035,0.278-0.167,0.408l0.036,0.129l-0.064,0.072c0.02,0.068,0.018,0.13-0.005,0.184
			c-0.022,0.053-0.049,0.109-0.077,0.174c-0.029,0.063-0.048,0.115-0.055,0.154c0.004,0.019,0.02,0.041,0.047,0.07
			c0.025,0.029,0.042,0.053,0.047,0.07l-0.045,0.041c-0.047,0.029-0.076,0.058-0.089,0.08l0.042,0.154
			c0.057,0.207,0.025,0.467-0.094,0.776l0.027,0.104c0.016,0.051,0.032,0.133,0.056,0.248c0.022,0.115,0.04,0.198,0.055,0.25
			c0.028,0.104,0.073,0.203,0.138,0.295c-0.048,0.033-0.063,0.084-0.043,0.151c0.004,0.019,0.01,0.035,0.014,0.052
			c0.006,0.019-0.006,0.049-0.029,0.094c-0.003,0.057,0,0.119,0.011,0.191c0.011,0.07,0.021,0.123,0.029,0.158
			c0.065,0.038,0.112,0.107,0.142,0.211s0.022,0.217-0.019,0.34c0.063,0.094,0.103,0.168,0.116,0.221
			c0.022,0.086,0.035,0.203,0.039,0.351c0.006,0.017,0.029,0.038,0.074,0.063c0.043,0.024,0.062,0.058,0.053,0.097
			c-0.006,0.112,0.029,0.308,0.104,0.584c0.028,0.104,0.075,0.263,0.144,0.476c0.07,0.213,0.117,0.372,0.146,0.477l0.043,0.154
			c0.005,0.019,0.021,0.047,0.052,0.084c0.028,0.039,0.045,0.066,0.051,0.084c0.065,0.11,0.136,0.278,0.205,0.5
			c0.069,0.223,0.125,0.373,0.168,0.455l0.141,0.213c0.141,0.238,0.243,0.377,0.311,0.416c0.064,0.037,0.176,0.071,0.334,0.103
			c0.034-0.011,0.066-0.009,0.098,0.002c0.031,0.01,0.055,0.013,0.07,0.008c0.041,0.009,0.076,0.009,0.111-0.002
			c0.018-0.004,0.059-0.024,0.122-0.062s0.116-0.051,0.155-0.043c0.195-0.238,0.354-0.402,0.479-0.492
			c0.008-0.039,0.023-0.1,0.047-0.182c0.024-0.08,0.051-0.143,0.075-0.187c0.021-0.062,0.032-0.167,0.038-0.315
			c0.005-0.15,0.01-0.256,0.014-0.312l0.041-0.149c0.008-0.039,0.01-0.088,0.004-0.142s-0.004-0.101,0.004-0.14
			c0.061-0.185,0.084-0.301,0.069-0.354c-0.014-0.052-0.032-0.085-0.054-0.098c0.02-0.061,0.037-0.149,0.053-0.266
			c0.014-0.115,0.025-0.191,0.033-0.23l-0.055-0.098c-0.014-0.051-0.014-0.117,0.003-0.194c0.015-0.078,0.021-0.128,0.017-0.144
			c-0.005-0.019-0.016-0.058-0.031-0.117c-0.018-0.061-0.021-0.109-0.014-0.148c-0.01-0.035-0.011-0.072-0.003-0.109
			c0.008-0.041,0.009-0.068,0.005-0.088l-0.105-0.388c-0.008-0.093-0.014-0.233-0.021-0.427c-0.007-0.192-0.017-0.314-0.03-0.366
			c-0.021-0.218-0.134-0.502-0.332-0.854c-0.199-0.354-0.322-0.617-0.369-0.791c-0.076-0.07-0.152-0.205-0.233-0.396
			c-0.079-0.19-0.136-0.312-0.167-0.356c-0.196-0.244-0.305-0.4-0.323-0.47c-0.307-0.306-0.483-0.517-0.534-0.633
			c-0.078-0.017-0.195-0.05-0.349-0.101c-0.151-0.051-0.276-0.082-0.373-0.092C63.074,42.195,62.949,42.211,62.81,42.249z"/>
		<path fill="#FFFFFF" d="M70.667,38.315c0.035-0.009,0.074-0.002,0.119,0.023c0.043,0.025,0.082,0.033,0.117,0.022
			c0.317,0.007,0.497,0.022,0.542,0.046c0.068-0.019,0.123-0.021,0.162-0.016c0.039,0.008,0.093,0.033,0.161,0.081
			c0.068,0.047,0.122,0.073,0.161,0.079c0.071,0.261,0.091,0.469,0.06,0.625c0.031,0.048,0.084,0.084,0.155,0.111
			c0.071,0.026,0.116,0.064,0.131,0.116c0.009,0.035,0.009,0.072,0.002,0.11c-0.008,0.04-0.021,0.085-0.032,0.136
			c-0.015,0.05-0.025,0.095-0.033,0.134c0.098,0.084,0.139,0.166,0.123,0.244c0.031,0.047,0.082,0.063,0.15,0.043l0.014,0.053
			c0.01,0.035,0.043,0.07,0.102,0.11c0.057,0.04,0.088,0.069,0.093,0.086c0.063,0.095,0.104,0.177,0.123,0.244
			c0.009,0.035,0.026,0.233,0.052,0.599c0.045,0.025,0.073,0.063,0.088,0.115c0.006,0.018,0.008,0.049,0.013,0.096
			c0.003,0.045,0.01,0.086,0.019,0.119l0.021,0.077c0.005,0.019,0.047,0.07,0.127,0.16l0.021,0.078
			c0.01,0.034,0.018,0.087,0.028,0.159c0.011,0.07,0.021,0.123,0.03,0.158c0.019,0.067,0.055,0.135,0.107,0.192
			c0.016,0.052,0.01,0.101-0.017,0.144c0.015,0.052,0.06,0.15,0.137,0.297c0.077,0.146,0.128,0.262,0.151,0.349l0.027,0.104
			c0.015,0.052,0.015,0.121,0.002,0.209c-0.014,0.086-0.016,0.146-0.006,0.182c0.004,0.018,0.063,0.059,0.172,0.12
			c0.082,0.163,0.127,0.262,0.138,0.297c0.127,0.058,0.231,0.169,0.313,0.332c0.025,0.03,0.023,0.058-0.006,0.084
			c-0.025,0.044-0.035,0.075-0.029,0.092c0.146,0.332,0.222,0.507,0.227,0.522c0.025,0.029,0.052,0.088,0.074,0.175l0.051,0.181
			c0.048,0.174,0.091,0.301,0.132,0.383c0.011,0.033,0.037,0.082,0.082,0.145s0.074,0.119,0.088,0.171
			c0.027,0.03,0.048,0.069,0.062,0.122c0.02,0.068,0.051,0.148,0.094,0.24c0.044,0.09,0.094,0.187,0.15,0.291
			c0.057,0.105,0.104,0.189,0.139,0.254l0.037,0.242c0.044,0.154,0.074,0.229,0.091,0.225c0.03,0.048,0.096,0.113,0.192,0.197
			c0.098,0.084,0.158,0.135,0.18,0.146l0.23,0.132c0.211,0.092,0.41,0.11,0.602,0.059c0.186-0.069,0.309-0.158,0.371-0.27
			c0.063-0.109,0.057-0.303-0.021-0.578l-0.034-0.129c-0.006-0.019-0.002-0.037,0.012-0.06c0.014-0.021,0.017-0.043,0.012-0.06
			l0.02-0.34l-0.029-0.104l-0.084-0.311c-0.016-0.054-0.008-0.129,0.021-0.229c-0.065-0.038-0.103-0.065-0.104-0.082
			c-0.146-0.87-0.248-1.38-0.309-1.531c-0.009-0.032-0.025-0.079-0.052-0.139c-0.024-0.06-0.043-0.104-0.054-0.14
			c-0.004-0.017-0.006-0.045-0.008-0.082c0-0.035-0.004-0.063-0.008-0.08c-0.01-0.035-0.025-0.076-0.049-0.127
			c-0.023-0.049-0.037-0.082-0.042-0.1c-0.019-0.068-0.034-0.177-0.045-0.32c-0.013-0.146-0.022-0.234-0.032-0.271
			c-0.01-0.034-0.023-0.071-0.045-0.112s-0.033-0.07-0.037-0.088c-0.01-0.033-0.008-0.092,0.008-0.169
			c-0.004-0.017-0.02-0.037-0.043-0.06c-0.023-0.021-0.041-0.047-0.051-0.082c0.023-0.117,0.021-0.229-0.008-0.332
			c-0.02-0.069-0.063-0.182-0.134-0.34c-0.071-0.156-0.118-0.277-0.142-0.364l-0.016-0.052c-0.005-0.018-0.016-0.041-0.033-0.073
			c-0.02-0.033-0.029-0.058-0.035-0.075l-0.197-0.725l-0.121-0.439l-0.24-0.881l-0.029-0.41l-0.05-0.182
			c-0.019-0.068-0.041-0.164-0.063-0.288c-0.024-0.122-0.047-0.22-0.065-0.288l-0.043-0.155c0.038-0.065,0.103-0.139,0.19-0.219
			l0.19-0.22c0.042-0.049,0.162-0.118,0.359-0.21l0.282-0.188c0.018-0.005,0.063-0.008,0.137-0.011c0.074,0,0.119-0.004,0.137-0.009
			c0.189-0.052,0.297-0.071,0.318-0.06c0.162-0.08,0.287-0.135,0.374-0.158l0.104-0.028c0.104-0.028,0.252-0.027,0.445,0.004
			c0.193,0.029,0.334,0.033,0.42,0.01c0.164,0.123,0.284,0.191,0.363,0.207c0.01,0.034,0.037,0.073,0.087,0.116
			c0.049,0.042,0.075,0.071,0.08,0.088c0.026,0.03,0.05,0.08,0.067,0.148c0.01,0.035,0.022,0.101,0.041,0.198
			c0.018,0.098,0.032,0.17,0.047,0.223c0.006,0.019,0.015,0.052,0.028,0.104l-0.012,0.059c0.005,0.019,0.021,0.041,0.047,0.071
			c0.026,0.029,0.043,0.054,0.047,0.07c0.015,0.052,0.027,0.132,0.038,0.239c0.012,0.109,0.023,0.188,0.038,0.24
			c0.028,0.104,0.065,0.178,0.114,0.219c0.006,0.222,0.016,0.359,0.029,0.41c0.028,0.104,0.08,0.19,0.155,0.264
			c-0.013,0.021-0.011,0.063,0.007,0.123c0.016,0.063,0.029,0.109,0.038,0.143c0.005,0.02-0.006,0.049-0.03,0.094
			c-0.024,0.043-0.026,0.101-0.008,0.168c0.018,0.069,0.086,0.182,0.201,0.336l0.051,0.181c0.037,0.139,0.021,0.254-0.045,0.346
			c0.061,0.226,0.079,0.358,0.055,0.403c0.01,0.033,0.021,0.049,0.039,0.045c0.045,0.023,0.069,0.046,0.074,0.063
			c-0.009,0.039-0.006,0.084,0.01,0.137c0.01,0.035,0.025,0.076,0.049,0.127c0.021,0.049,0.035,0.082,0.041,0.1
			c0.048,0.043,0.104,0.109,0.166,0.204l0.094,0.338c0.038,0.138,0.081,0.228,0.13,0.271c0.011,0.035,0.004,0.063-0.019,0.088
			c-0.021,0.025-0.026,0.054-0.018,0.089c0.01,0.034,0.049,0.094,0.117,0.177s0.111,0.15,0.125,0.202
			c0.005,0.019,0,0.065-0.016,0.146c0.025,0.028,0.061,0.121,0.104,0.276c0.08,0.091,0.123,0.144,0.127,0.16l0.021,0.078
			c0.027,0.104,0.041,0.183,0.037,0.239c0.006,0.019,0,0.065-0.017,0.144c-0.003,0.058,0.013,0.146,0.045,0.267
			c0.038,0.139,0.121,0.356,0.25,0.654c0.128,0.299,0.204,0.53,0.229,0.689c0.005,0.017,0.011,0.054,0.016,0.106
			c0.006,0.056,0.014,0.099,0.021,0.134c-0.002,0.129,0.01,0.303,0.031,0.521c0.029,0.381,0.025,0.634-0.016,0.756
			s-0.066,0.194-0.08,0.216c-0.053,0.146-0.086,0.229-0.1,0.252l0.043,0.154c-0.029,0.025-0.059,0.07-0.088,0.135
			s-0.059,0.109-0.088,0.137c-0.008,0.039-0.021,0.078-0.037,0.121s-0.02,0.078-0.01,0.113c-0.302,0.324-0.635,0.702-0.998,1.137
			l-0.129,0.035c-0.059,0.127-0.094,0.202-0.105,0.225c-0.051,0.015-0.115,0.055-0.189,0.121c-0.074,0.065-0.138,0.106-0.189,0.121
			c-0.028,0.026-0.074,0.049-0.135,0.064c-0.061,0.018-0.109,0.04-0.147,0.068c-0.038,0.029-0.063,0.063-0.07,0.103
			c-0.028,0.026-0.095,0.06-0.194,0.097c-0.103,0.035-0.174,0.08-0.217,0.129c-0.021-0.014-0.058-0.008-0.106,0.016
			c-0.05,0.021-0.082,0.035-0.101,0.041c-0.013,0.021-0.144,0.086-0.394,0.189c-0.226,0.063-0.392,0.1-0.499,0.109
			s-0.259,0.02-0.452,0.025c-0.192,0.007-0.333,0.021-0.419,0.045c-0.018,0.006-0.064,0-0.145-0.016
			c-0.403,0.148-0.743,0.131-1.018-0.056c-0.068,0.019-0.158,0.015-0.268-0.011c-0.108-0.026-0.189-0.031-0.24-0.018l-0.098,0.055
			c-0.211-0.092-0.379-0.129-0.504-0.112c-0.065-0.038-0.19-0.067-0.373-0.095c-0.185-0.022-0.314-0.08-0.396-0.17
			c-0.217,0.022-0.358-0.021-0.426-0.133c-0.113-0.008-0.25-0.063-0.408-0.166c-0.157-0.105-0.248-0.164-0.271-0.178
			c-0.01-0.033-0.028-0.07-0.059-0.109c-0.029-0.039-0.037-0.067-0.025-0.09c-0.018,0.004-0.039,0.01-0.063,0.018
			c-0.024,0.007-0.06,0.008-0.099-0.002c-0.025-0.028-0.107-0.104-0.242-0.225s-0.227-0.23-0.271-0.33
			c-0.01-0.035-0.029-0.076-0.062-0.123s-0.05-0.078-0.056-0.098c-0.008-0.033-0.049-0.115-0.121-0.244
			c-0.072-0.128-0.12-0.234-0.146-0.322c-0.022-0.086-0.034-0.156-0.03-0.213c-0.098-0.084-0.129-0.197-0.093-0.338
			c-0.079-0.089-0.161-0.252-0.245-0.488c-0.084-0.237-0.13-0.373-0.14-0.407c-0.015-0.054-0.056-0.134-0.122-0.245
			c-0.068-0.109-0.107-0.193-0.123-0.245c-0.009-0.034-0.027-0.08-0.052-0.14c-0.025-0.057-0.043-0.104-0.054-0.137
			c-0.026-0.104-0.049-0.248-0.061-0.431l-0.04-0.045c-0.026-0.028-0.052-0.05-0.073-0.063l-0.035-0.129
			c-0.023-0.086-0.066-0.209-0.129-0.369c-0.063-0.158-0.104-0.279-0.129-0.367c-0.01-0.033-0.012-0.075-0.006-0.123
			c0.006-0.049,0.006-0.08,0.002-0.098c-0.016-0.053-0.037-0.119-0.07-0.203c-0.032-0.086-0.057-0.152-0.069-0.205
			c-0.011-0.034-0.019-0.1-0.026-0.2c-0.01-0.101-0.021-0.175-0.035-0.228c-0.015-0.053-0.043-0.142-0.088-0.27
			c-0.043-0.126-0.074-0.225-0.095-0.294c-0.022-0.087-0.051-0.153-0.082-0.2c0.009-0.039,0.03-0.091,0.067-0.156
			c-0.004-0.019-0.018-0.033-0.039-0.046c-0.04-0.008-0.063-0.028-0.073-0.063c0.003-0.057-0.013-0.145-0.045-0.266l-0.179-0.646
			c-0.025-0.031-0.049-0.08-0.067-0.148s-0.044-0.229-0.075-0.48l-0.113-0.414c-0.095-0.346-0.135-0.594-0.121-0.746
			c-0.053-0.061-0.082-0.1-0.086-0.115c-0.01-0.035,0.023-0.146,0.104-0.334c0.012-0.021,0.02-0.061,0.023-0.117l0.037-0.066
			c0.037-0.065,0.211-0.242,0.521-0.532l0.172-0.187c0.142-0.095,0.324-0.172,0.55-0.233c0.067-0.019,0.168-0.042,0.301-0.068
			c0.131-0.026,0.225-0.048,0.275-0.062c0.034-0.01,0.09-0.029,0.165-0.061C70.605,38.338,70.652,38.32,70.667,38.315z"/>
	</g>
</g>
</svg>
