<?xml version="1.0" encoding="utf-8"?>
<!-- Generator: Adobe Illustrator 16.0.0, SVG Export Plug-In . SVG Version: 6.00 Build 0)  -->
<!DOCTYPE svg PUBLIC "-//W3C//DTD SVG 1.1//EN" "http://www.w3.org/Graphics/SVG/1.1/DTD/svg11.dtd">
<svg version="1.1" id="Layer_1" xmlns="http://www.w3.org/2000/svg" xmlns:xlink="http://www.w3.org/1999/xlink" x="0px" y="0px"
	 width="148.801px" height="92.007px" viewBox="0 0 148.801 92.007" enable-background="new 0 0 148.801 92.007"
	 xml:space="preserve">
<g id="Layer_2">
</g>
<g>
	<path fill="#FFFFFF" d="M10.76,8.847c4.611,1.188,6.705,6.08,8.186,10.087c3.472,9.396,6.024,22.811,6.08,33.333
		c0.022,4.492-2.371,10.259-6.361,12.089c-5.725,2.626-9.795-3.976-11.39-8.485c-2.249-6.367-2.889-13.957-4.71-20.345
		c-1.247-4.36-1.805-20.398-2.467-15.864C-0.435,23.326,0.955,6.323,10.76,8.847z"/>
	<path fill="#FFFFFF" d="M118.239,9.284c3.653-4.798,8.594,4.443,13.063,4.532c6.144,0.121,12.263-4.637,15.729,2.183
		c4.248,8.359-0.043,23.048-3.467,30.946c-4.029,9.299-17.479,16.29-25.596,9.088c-4.756-4.224-7.93-5.863-8.543-12.253
		c-0.621-6.475-1.043-13.432,0.666-19.855c1.291-4.856,3.566-11.619,7.674-14.667L118.239,9.284z"/>
	<g>
		<path fill="#FFFFFF" d="M20.412,15.991C24.791,5.927,35.088,4.674,44.896,4.346c5.728-0.192,10.265,0.44,15.519,2.877
			c3.517,1.634,7.973,5.245,11.67,5.016c4.396-0.273,8.089-6.979,12-8.491C88.5,2.035,96.25,0.93,100.654,0.293
			c22.869-3.313,25.419,22.178,24.779,39.19c-0.183,4.796,2.888,10.929,2.706,14.585c-0.279,5.615-3.126,8.35-5.018,12.91
			c-3.586,8.645-1.551,19.717-15.074,20.959c-4.465,0.41-13.381-2.813-16.758-5.287c-5.353,6.072-32.055,15.436-33.674,3.852
			c-11.082-0.414-29.923,12.285-34.834-5.776c-1.992-7.325,1.172-10.838-0.854-17.593c-1.102-3.666-4.209-4.519-4.091-8.385
			c0.053-1.705,3.563-6.096,4.059-8.006C21.896,46.742,16.947,23.961,20.412,15.991z"/>
		<g>
			<g>
				<path fill="#BE1E2D" d="M59.492,60.147c9.078,5.733,20.467,1.994,7.745-9.396c-3.589-3.213-11.47-5.479-13.616-8.946
					c-3.153-5.091-2.22-8.95,0.311-12.281c6.041-7.961-25.542-13.378-28.271-4.003c-1.776,6.086,2.796,20.704,2.627,23.047
					c-0.207,2.934-2.785,5.436-2.598,8.336c0.381,5.973,9.356,12.973,15.047,14.633c8.377,2.438,12.389-3.619,15.98-10.234
					L59.492,60.147z"/>
				<path fill="#231F20" d="M44.328,72.798c-0.001,0-0.001,0-0.002,0c-1.192,0-2.468-0.193-3.788-0.578
					c-5.984-1.745-15.154-8.926-15.559-15.271c-0.112-1.734,0.633-3.287,1.353-4.787c0.596-1.24,1.158-2.414,1.245-3.644
					c0.047-0.646-0.417-2.808-0.907-5.096c-1.177-5.487-2.954-13.779-1.693-18.101c1.012-3.474,5.541-5.466,12.429-5.466
					c7.177,0,15.731,2.278,17.624,6.091c0.453,0.912,0.729,2.349-0.53,4.008c-2.812,3.701-2.896,7.24-0.272,11.476
					c1.116,1.802,4.155,3.368,7.095,4.882c2.347,1.21,4.773,2.46,6.392,3.908c5.948,5.326,6.36,8.633,5.658,10.469
					c-0.687,1.797-2.695,2.827-5.51,2.827c-2.673,0-5.727-0.935-8.433-2.569l-2.205,0.918
					C54.186,67.431,50.663,72.798,44.328,72.798z M37.405,21.281c-6.116,0-10.251,1.659-11.06,4.438
					c-1.161,3.977,0.571,12.057,1.718,17.403c0.654,3.055,0.994,4.687,0.936,5.495c-0.106,1.502-0.755,2.854-1.382,4.159
					c-0.671,1.397-1.304,2.718-1.216,4.08c0.362,5.672,9.067,12.399,14.535,13.993c1.191,0.348,2.332,0.523,3.391,0.523
					c0,0,0,0,0.001,0c5.642,0,8.783-4.927,11.764-10.412l0.12-0.223l3.348-1.393l0.313,0.197c2.561,1.617,5.473,2.545,7.988,2.545
					c2.191,0,3.714-0.696,4.179-1.91c0.356-0.936,0.558-3.674-5.278-8.897c-1.481-1.327-3.826-2.534-6.094-3.702
					c-3.255-1.679-6.329-3.263-7.652-5.399c-2.939-4.745-2.829-8.904,0.349-13.087c0.665-0.877,0.793-1.699,0.389-2.513
					C52.327,23.708,44.841,21.281,37.405,21.281z"/>
			</g>
			<path fill="#77111A" d="M56.064,17.486c5.738,4.188-0.988,7.228-3.901,10.693c-1.708,2.031-4.266,7.24-2.708,10.987
				c0.93,2.229,5.385,6.595-1.651,4.461c-11.408-3.457-8.695-9.731-9.026-11.772C36.925,20.462,49.961,13.023,56.064,17.486z"/>
			<path fill="#77111A" d="M53.198,61.274c0,0-17.881-0.585-20.928-7.937c-3.05-7.345-4.361,0.668-4.61,4.414
				c-0.243,3.748,13.957,18.383,23.753,7.725C51.958,64.886,53.198,61.274,53.198,61.274z"/>
			<g>
				<path fill="#231F20" d="M42.393,84.528c-3.895,0-6.953-1.267-9.042-3.147c-4.105-3.695-4.77-9.75-1.651-15.063
					c0.197-0.339,0.635-0.457,0.975-0.254c0.34,0.199,0.453,0.636,0.254,0.976c-2.766,4.715-2.213,10.053,1.376,13.283
					c4.111,3.7,12.497,4.684,24.011-3.121c-0.253-0.853-0.328-1.723-0.21-2.574c0.869-6.252,3.315-8.736,5.314-8.978
					c1.243-0.153,2.306,0.521,2.792,1.747c0.821,2.07-0.061,5.85-5.251,9.678c-0.305,0.227-0.607,0.444-0.909,0.658
					c0.506,1.018,1.333,1.986,2.433,2.816c2.632,1.988,5.943,2.561,8.437,1.461c2.603-1.149,4.188-4.006,4.583-8.262
					c0.037-0.393,0.386-0.683,0.777-0.644c0.391,0.037,0.68,0.384,0.643,0.776c-0.563,6.063-3.262,8.477-5.426,9.432
					c-2.96,1.307-6.833,0.667-9.872-1.626c-1.214-0.916-2.147-1.994-2.756-3.142C52.42,82.861,46.857,84.527,42.393,84.528z
					 M63.747,67.054c-0.052,0-0.104,0.003-0.158,0.01c-1.131,0.137-3.262,1.923-4.072,7.757c-0.069,0.496-0.051,1.001,0.048,1.507
					c0.183-0.132,0.366-0.266,0.55-0.4c4.854-3.579,5.283-6.717,4.771-8.006C64.664,67.363,64.255,67.054,63.747,67.054z"/>
			</g>
			<g>
				<path fill="#BE1E2D" d="M49.929,27.481c4.238-0.38,16.111,8.333,19.986,5.073c8.197-6.9-5.371-15.658-13.314-20.229
					c-9.932-5.715-34.524-0.483-31.225,19.378c0.331,1.995,8.055-5.461,9.718,1.494C36.267,37.178,35.633,28.765,49.929,27.481z"/>
				<path fill="#231F20" d="M35.677,35.092L35.677,35.092c-0.895,0-1.177-0.959-1.383-1.659c-0.52-2.164-1.546-2.437-2.384-2.437
					c-1.178,0-2.611,0.632-3.764,1.139c-0.958,0.421-1.714,0.754-2.324,0.754c-0.665,0-1.163-0.411-1.27-1.049
					c-0.95-5.719,0.308-10.818,3.637-14.745c4.861-5.736,12.929-7.78,18.857-7.78c3.865,0,7.406,0.813,9.97,2.288
					c6.721,3.867,15.718,9.701,16.25,15.68c0.194,2.187-0.753,4.175-2.814,5.911c-0.731,0.615-1.712,0.927-2.914,0.927
					c-2.816,0-6.531-1.669-10.125-3.283c-2.901-1.303-5.89-2.668-7.41-2.524c-8.673,0.778-11.612,4.259-12.868,5.744
					C36.628,34.658,36.261,35.092,35.677,35.092z M31.91,29.328c1.412,0,3.245,0.629,3.98,3.616
					c1.405-1.662,4.675-5.46,13.964-6.294c1.899-0.156,4.836,1.135,8.242,2.665c3.273,1.47,6.982,3.137,9.441,3.137
					c0.81,0,1.411-0.176,1.84-0.536c1.644-1.383,2.372-2.851,2.227-4.485c-0.517-5.806-11.734-12.261-15.42-14.383
					c-2.314-1.331-5.56-2.064-9.138-2.064c-5.556,0-13.092,1.889-17.585,7.189c-2.966,3.499-4.084,7.864-3.328,12.98
					c0.356-0.112,0.889-0.347,1.341-0.546C28.77,30.037,30.382,29.328,31.91,29.328z"/>
			</g>
			<path fill="#BE1E2D" d="M34.154,35.88c0,0-5.191-5.844-3.348-0.108c1.039,3.224-3.69,0.811-4.157-0.119
				c-0.74-1.479-0.714-6.588-0.714-6.588s10.364-2.292,9.966,3.894C34.578,34.329,34.154,35.88,34.154,35.88z"/>
			<path fill="#77111A" d="M55.721,26.552c0,0-9.928-3.345-16.867,1.561c-3.839,2.71-6.36,0.545-4.729-1.96
				c1.632-2.503,17.25-8.487,24.038-5.84c4.915,1.92,5.005,3.869,4.151,6.151C61.391,28.929,58.044,27.562,55.721,26.552z"/>
			<g>
				<g>
					<defs>
						<path id="SVGID_1_" d="M49.425,27.177c3.975-0.356,15.116,7.834,18.752,4.771c7.687-6.478-5.047-14.708-12.498-19.002
							c-9.317-5.369-32.387-0.467-29.288,18.188c0.312,1.871,7.555-5.127,9.119,1.404C36.612,36.279,36.017,28.377,49.425,27.177z"
							/>
					</defs>
					<clipPath id="SVGID_2_">
						<use xlink:href="#SVGID_1_"  overflow="visible"/>
					</clipPath>
					<g clip-path="url(#SVGID_2_)">
						<path fill="#FFFFFF" d="M55.417,11.765c-0.472-2.461-1.342-8.063-4.438-5.333c-1.026,0.963-2.236,2.88-3.178,3.551
							c-1.182,0.88-1.683-1.52-2.593-2.779c-1.591-2.201-1.904-2.243-2.753,0.481c-0.385,1.131-1.075,4.286-1.735,4.661
							c-0.601,0.336-2.379-1.518-3.351-1.969c-1.665-0.924-2.919-1.756-2.534,1.183c0.279,1.998,1.391,4.012-0.375,3.54
							c-1.154-0.266-2.599-0.953-4.042-1.141c-0.882-0.061,0.898,3.052,1.652,3.773c0.887,0.846,2.177,1.868,1.757,0.528
							c-0.35-1.374-1.527-2.368,0.77-1.451c1.014,0.378,2.688,1.634,2.883,0.774c0.199-0.875-0.82-4.974-0.214-4.627
							c2.253,1.362,3.949,4.17,4.964,0.5c0.396-1.379,1.053-3.255,1.575-2.936c0.785,0.478,1.653,2.082,2.186,2.865
							c0.974,1.389,0.973,2.002,2.521,0.346c0.874-0.891,1.572-2.147,2.623-3.028c1.904-1.467,1.812,1.751,1.985,3.387
							c0.136,0.798,0.957,2.375,2.064,0.256C55.563,13.613,55.654,12.477,55.417,11.765z"/>
						<path fill="#FFFFFF" d="M51.155,14.521c0.862,0.048,0.604,2.13-0.522,2.741c-1.277,0.913-1.008-2.072,0.403-2.734
							C51.076,14.525,51.116,14.523,51.155,14.521z"/>
						<path fill="#FFFFFF" d="M43.394,15.392c0.976-1.784,1.696,1.271,0.867,2.249C43.616,18.564,43.002,16.713,43.394,15.392z"/>
						<path fill="#FFFFFF" d="M39.023,16.676c0.971-0.343,1.583,2.648,0.909,2.93C39.357,19.845,38.174,17.133,39.023,16.676z"/>
						<path fill="#FFFFFF" d="M35.535,18.729c0.644-0.321,1.826,1.571,1.527,1.922C36.753,21.005,35.075,19.163,35.535,18.729z"/>
						<path fill="#FFFFFF" d="M32.302,9.724c1.803,0.275,1.651,3.173,0.325,2.701C31.148,12.105,30.617,9.806,32.302,9.724z"/>
						<path fill="#FFFFFF" d="M39.863,5.599c1.122,1.182,0.071,2.894-0.666,2.431C37.251,6.591,39.014,4.803,39.863,5.599z"/>
						<path fill="#FFFFFF" d="M47.894,4.135c1.058-1.271,2.083,0.872,1.195,1.878C48.006,7.413,47.484,4.594,47.894,4.135z"/>
					</g>
				</g>
			</g>
		</g>
		<g>
			<g>
				<path fill="#BE1E2D" d="M87.577,58.487c-9.879,6.816-20.313,3.191-8.281-8.925c3.396-3.42,11.129-6.142,13.07-9.729
					c2.85-5.266,1.77-8.216-1.029-12.242c-5.699-8.208,24.713-14.85,27.99-5.65c2.127,5.973-1.58,20.832-1.275,23.162
					c0.379,2.914,3.098,5.264,3.082,8.169c-0.032,5.985-8.584,13.497-14.166,15.483c-8.221,2.932-12.579-2.889-16.553-9.276
					L87.577,58.487z"/>
				<path fill="#231F20" d="M102.818,70.25c-5.958,0-9.638-4.996-12.875-10.181l-2.263-0.791c-3.172,2.12-6.579,3.33-9.399,3.33
					H78.28c-2.425,0-4.13-0.892-4.804-2.509c-1.076-2.585,0.811-6.506,5.313-11.039c1.531-1.542,3.883-2.933,6.154-4.278
					c2.846-1.683,5.786-3.424,6.795-5.287c2.623-4.847,1.815-7.464-0.986-11.497c-0.979-1.41-1.103-2.911-0.354-4.342
					c2.151-4.114,11.308-6.879,18.509-6.879c6.02,0,9.959,1.749,11.09,4.925c1.512,4.242,0.223,12.624-0.631,18.171
					c-0.355,2.313-0.691,4.497-0.607,5.138c0.158,1.224,0.789,2.359,1.455,3.564c0.808,1.455,1.642,2.961,1.633,4.7
					c-0.034,6.358-8.768,14.062-14.639,16.152C105.679,69.973,104.202,70.25,102.818,70.25z M87.471,57.695l3.417,1.194l0.133,0.214
					c3.187,5.122,6.483,9.721,11.798,9.721c1.221,0,2.535-0.248,3.91-0.738c5.365-1.91,13.661-9.133,13.691-14.816
					c0.008-1.366-0.703-2.646-1.453-4.003c-0.702-1.269-1.43-2.578-1.623-4.07c-0.104-0.804,0.138-2.452,0.613-5.539
					c0.83-5.405,2.088-13.573,0.697-17.476c-0.9-2.528-4.453-3.978-9.749-3.978c-7.483,0-15.542,2.856-17.245,6.113
					c-0.5,0.957-0.414,1.896,0.262,2.869c3.021,4.346,4.015,7.548,1.07,12.987c-1.197,2.212-4.173,3.973-7.322,5.836
					c-2.195,1.3-4.467,2.644-5.869,4.056c-5.697,5.736-5.4,8.546-5.009,9.486c0.591,1.42,2.438,1.633,3.488,1.633h0.001
					c2.628-0.001,5.868-1.197,8.892-3.283L87.471,57.695z"/>
			</g>
			<path fill="#77111A" d="M89.769,15.233c-6.319,5.395-1.175,6.696,2.565,10.808c2.189,2.409,4.191,7.011,2.721,11.672
				c-0.873,2.772-0.014,7.039,7.025,1.937c4.078-2.957,4.229-6.885,4.424-9.402C107.592,16.209,96.491,9.492,89.769,15.233z"/>
			<path fill="#77111A" d="M93.928,59.248c0,0,17.813-1.633,20.427-9.148c2.614-7.514,4.394,0.41,4.86,4.135
				c0.461,3.729-12.858,19.171-23.262,9.104C95.377,62.778,93.928,59.248,93.928,59.248z"/>
			<g>
				<path fill="#231F20" d="M78.045,82.85c-1.059,0-2.078-0.177-3.006-0.572c-1.522-0.653-3.399-2.188-3.688-5.806
					c-0.067-0.814-0.327-4.995,1.11-7.094c0.675-0.988,1.744-1.455,2.661-1.155c0.938,0.303,2.03,1.438,1.934,5.128
					c-0.012,0.395-0.338,0.709-0.73,0.693c-0.395-0.01-0.705-0.338-0.695-0.73c0.067-2.51-0.467-3.58-0.944-3.734
					c-0.3-0.095-0.741,0.156-1.046,0.604c-0.968,1.41-1,4.545-0.867,6.175c0.188,2.334,1.14,3.886,2.831,4.608
					c2.62,1.123,6.938,0.072,10.04-2.443c1.001-0.813,1.755-1.684,2.232-2.557c-0.256-0.16-0.515-0.325-0.772-0.493
					c-5.405-3.519-6.507-7.237-5.81-9.354c0.414-1.252,1.42-1.992,2.687-1.906c2.011,0.123,4.597,2.459,5.831,8.647
					c0.164,0.824,0.107,1.679-0.15,2.528c12,7.18,20.348,5.708,24.244,1.765c3.395-3.437,3.635-8.798,0.598-13.344
					c-0.219-0.327-0.131-0.771,0.197-0.988c0.326-0.218,0.77-0.13,0.987,0.197c3.423,5.123,3.114,11.206-0.769,15.137
					c-4.262,4.313-13.205,6.042-25.828-1.446c-0.569,1.02-1.428,2.012-2.551,2.922C84.297,81.447,81.027,82.85,78.045,82.85z
					 M83.809,65.632c-0.544,0-0.965,0.336-1.162,0.935c-0.436,1.315,0.178,4.423,5.232,7.711c0.172,0.112,0.342,0.222,0.512,0.33
					c0.105-0.501,0.115-0.993,0.021-1.468c-1.151-5.775-3.384-7.436-4.521-7.506C83.863,65.632,83.834,65.632,83.809,65.632z"/>
			</g>
			<g>
				<path fill="#BE1E2D" d="M95.211,25.32c-4.254-0.13-15.592,9.263-19.654,6.233c-8.588-6.407,4.445-15.947,12.107-20.974
					c9.578-6.286,34.438-2.504,32.307,17.52c-0.215,2.008-8.359-4.982-9.615,2.059C109.418,34.201,109.558,25.765,95.211,25.32z"/>
				<path fill="#231F20" d="M77.633,32.99c-1.025,0-1.893-0.259-2.575-0.768c-2.16-1.612-3.222-3.541-3.155-5.735
					c0.182-6.003,8.821-12.352,15.305-16.604c2.824-1.853,7.008-2.915,11.479-2.915c7.261,0,13.978,2.646,17.963,7.081
					c3.356,3.732,4.753,8.489,4.151,14.139c-0.072,0.683-0.588,1.124-1.313,1.124c-0.589,0-1.324-0.273-2.256-0.62
					c-1.105-0.411-2.48-0.923-3.617-0.923c-0.982,0-2.039,0.301-2.438,2.536c-0.169,0.734-0.412,1.781-1.354,1.781
					c-0.553,0-0.912-0.378-1.455-0.95c-1.341-1.41-4.479-4.712-13.182-4.981c0,0-0.001,0-0.002,0c-1.583,0-4.461,1.501-7.245,2.953
					C84.281,31.017,80.499,32.989,77.633,32.99L77.633,32.99z M98.686,8.636c-4.154,0-8.005,0.963-10.563,2.642
					c-3.558,2.333-14.377,9.432-14.554,15.26c-0.05,1.642,0.763,3.063,2.485,4.348c0.395,0.294,0.91,0.438,1.578,0.438
					c2.455,0,6.216-1.962,9.533-3.692c3.234-1.688,6.027-3.145,7.955-3.145l0.114,0.002c9.323,0.289,12.81,3.891,14.31,5.467
					c0.57-3.177,2.527-3.854,4.067-3.854c1.438,0,2.97,0.57,4.199,1.028c0.481,0.179,1.01,0.375,1.368,0.465
					c0.439-4.975-0.829-9.154-3.773-12.429C111.732,11.076,105.481,8.636,98.686,8.636z"/>
			</g>
			<path fill="#BE1E2D" d="M111.452,32.78c0,0,4.84-6.137,3.336-0.304c-0.849,3.276,3.729,0.592,4.143-0.363
				c0.652-1.521,0.326-6.617,0.326-6.617s-10.479-1.684-9.719,4.47C110.937,31.256,111.452,32.78,111.452,32.78z"/>
			<path fill="#77111A" d="M84.409,26.286c0,0,8.512-6.105,16.584-3.449c4.463,1.468,6.238-1.341,3.946-3.256
				c-2.292-1.919-18.979-3.067-24.692,1.455c-4.139,3.273-3.654,5.164-2.168,7.096C79.683,30.218,82.482,27.932,84.409,26.286z"/>
			<g>
				<g>
					<defs>
						<path id="SVGID_3_" d="M95.7,24.986c-3.99-0.124-14.634,8.703-18.439,5.861c-8.055-6.017,4.174-14.979,11.361-19.703
							c8.988-5.906,32.305-2.362,30.303,16.443c-0.202,1.887-7.842-4.677-9.021,1.938C109.022,33.321,109.153,25.4,95.7,24.986z"/>
					</defs>
					<clipPath id="SVGID_4_">
						<use xlink:href="#SVGID_3_"  overflow="visible"/>
					</clipPath>
					<g clip-path="url(#SVGID_4_)">
						<path fill="#FFFFFF" d="M89.444,11.05c0.172-2.13,0.512-7.575,3.844-5.637c1.105,0.713,2.438,2.353,3.396,2.869
							c1.202,0.689,1.536-1.747,2.358-3.188c1.435-2.514,1.766-2.665,2.763-0.022c0.452,1.08,1.261,4.231,1.924,4.529
							c0.603,0.269,2.353-1.982,3.327-2.657c1.671-1.3,2.941-2.488,2.662,0.811c-0.215,2.246-1.344,4.651,0.504,3.862
							c1.216-0.475,2.72-1.506,4.234-2.013c0.935-0.261-0.803,3.747-1.584,4.729c-0.908,1.157-2.272,2.497-1.875,0.841
							c0.33-1.673,1.551-2.967-0.871-1.603c-1.07,0.576-2.823,2.146-3.029,1.209c-0.197-0.946,0.773-5.554,0.146-5.079
							c-2.291,1.87-3.906,4.949-4.979,1.276c-0.428-1.375-1.156-3.189-1.657-2.775c-0.751,0.615-1.511,2.345-1.976,3.173
							c-0.85,1.486-0.782,2.028-2.355,0.605c-0.893-0.755-1.66-1.853-2.759-2.521c-1.985-1.063-1.593,1.886-1.563,3.286
							c-0.039,0.721-0.607,2.042-1.968,0.449C89.521,12.643,89.292,11.706,89.444,11.05z"/>
						<path fill="#FFFFFF" d="M93.863,12.943c-0.813,0.133-0.313,1.87,0.794,2.36c1.241,0.799,0.702-1.874-0.681-2.362
							C93.938,12.942,93.901,12.942,93.863,12.943z"/>
						<path fill="#FFFFFF" d="M101.191,13.104c-1-1.689-1.556,1.438-0.751,2.348C101.055,16.35,101.598,14.421,101.191,13.104z"/>
						<path fill="#FFFFFF" d="M105.506,13.963c-0.981-0.242-1.575,2.982-0.918,3.242C105.163,17.441,106.379,14.361,105.506,13.963z
							"/>
						<path fill="#FFFFFF" d="M109.167,15.885c-0.691-0.303-1.934,1.941-1.611,2.334C107.899,18.651,109.68,16.361,109.167,15.885z"
							/>
						<path fill="#FFFFFF" d="M112.275,5.209c-1.854,0.692-1.59,3.845-0.219,3.081C113.603,7.64,114.034,4.92,112.275,5.209z"/>
						<path fill="#FFFFFF" d="M104.299,2.387c-1.063,1.466,0.072,3.042,0.801,2.413C107.013,2.883,105.113,1.365,104.299,2.387z"/>
						<path fill="#FFFFFF" d="M96.154,2.573c-1.161-1.017-1.999,1.281-1.032,2.074C96.303,5.813,96.599,2.947,96.154,2.573z"/>
					</g>
				</g>
			</g>
		</g>
	</g>
	<g>
		<path fill="#231F20" d="M125.504,16.329c0.428,0.237,0.949,0.359,1.135,0.747c0.131,0.031,0.262,0.062,0.377,0.156
			c0.23,0.192,0.301,0.484,0.516,0.741c-0.121,0.522-0.324,1.096-0.611,1.442c0.039,0.422,0.432,0.514,0.354,0.84
			c-0.075,0.327-0.384,0.462-0.59,0.758c0.084,0.227,0.185,0.388-0.022,0.684c0.034,0.146,0.15,0.242,0.281,0.272l-0.031,0.131
			c-0.061,0.262,0.17,0.454,0.189,0.665s0.039,0.422-0.021,0.684c-0.123,0.522-0.455,1.064-0.598,1.376
			c0.051,0.081,0.085,0.227,0.055,0.356c-0.031,0.131-0.142,0.313-0.188,0.509l-0.045,0.195c-0.031,0.131,0.053,0.357,0.088,0.503
			l-0.046,0.196c-0.062,0.261-0.188,0.508-0.248,0.769c-0.046,0.196-0.026,0.408,0.009,0.554c-0.031,0.13-0.127,0.245-0.208,0.296
			c-0.071,0.604,0.003,1.172-0.135,1.76l-0.062,0.262c-0.076,0.326-0.414,0.592-0.476,0.854c0.021,0.211,0.135,0.307,0.235,0.469
			c-0.012,0.342,0.009,0.553-0.053,0.813c0.215,0.258,0.319,0.695,0.293,1.103c0.02,0.211-0.24,0.15-0.287,0.346
			c-0.058,0.539-0.244,1.046-0.125,1.418c0.035,0.146,0.004,0.277-0.041,0.473l-0.107,0.458c-0.076,0.326-0.152,0.653-0.162,0.995
			c-0.063,0.261,0.073,0.568-0.003,0.895c0.034,0.146,0.004,0.277-0.013,0.342c-0.151,0.654-0.059,1.434-0.096,2.183
			c-0.091,0.392-0.248,0.769-0.273,1.176c0.054,0.357,0.289,0.826,0.408,1.198l0.352,0.564c0.314,0.418,0.531,0.675,1.25,0.843
			c0.93,0.147,1.448-0.006,1.784-1.443l0.075-0.327c0.08-0.049,0.111-0.18,0.191-0.23c0.143-0.312,0.333-0.542,0.444-0.723
			l0.062-0.262c0.062-0.261,0.057-0.537,0.184-0.784c0.046-0.195,0.142-0.312,0.318-0.477c-0.051-0.081-0.166-0.177-0.137-0.307
			c0.438-1.276,0.988-2.457,1.146-3.729c0.062-0.262,0.041-0.473,0.104-0.734c0.03-0.131,0.126-0.246,0.156-0.376
			c0.046-0.196,0.025-0.408,0.072-0.604c0.106-0.457,0.344-0.885,0.531-1.392c0.047-0.196,0.025-0.407,0.057-0.538
			c0.031-0.131,0.127-0.246,0.224-0.361c0.03-0.131-0.086-0.227-0.04-0.423c0.192-0.231,0.318-0.478,0.379-0.738
			c0.139-0.589,0.078-1.222,0.231-1.875l0.03-0.131c0.029-0.131-0.004-0.276,0.026-0.407c0.058-0.538,0.274-1.176,0.427-1.829
			l0.26-1.11c0.185-0.784,0.287-1.518,0.52-2.222c0.141-0.312,0.35-0.608,0.426-0.935l0.106-0.457
			c0.122-0.523,0.278-0.899,0.399-1.422l0.092-0.393c0.162-0.1,0.389-0.185,0.682-0.254c0.227-0.085,0.469-0.236,0.68-0.255
			c0.291-0.069,0.698-0.044,1.041-0.032c0.275-0.005,0.633-0.059,0.844-0.078c0.197,0.045,0.428,0.237,0.623,0.283
			c0.263,0.061,0.555-0.009,0.771,0.248c0.341,0.012,0.685,0.022,1.011,0.099l0.262,0.061c0.719,0.168,1.185,0.828,1.888,1.062
			c0.136,0.307,0.255,0.68,0.551,0.887c-0.062,0.261,0.169,0.453,0.124,0.648c0.034,0.146,0.004,0.277-0.025,0.407
			c-0.076,0.327-0.22,0.639-0.311,1.03c-0.031,0.131-0.141,0.312-0.156,0.377c-0.029,0.131,0.068,0.292,0.038,0.423
			c-0.092,0.392-0.313,0.754-0.403,1.146c-0.047,0.195-0.093,0.392-0.009,0.618c-0.126,0.245-0.348,0.607-0.424,0.935
			c-0.062,0.262-0.058,0.538,0.026,0.764c-0.11,0.182-0.092,0.393-0.217,0.639c-0.11,0.181-0.308,0.135-0.398,0.526
			c-0.063,0.262-0.008,0.619,0.047,0.976l-0.105,0.458c-0.078,0.327-0.203,0.572-0.51,0.707c-0.093,0.393-0.037,0.75-0.359,0.95
			c-0.047,0.196,0.164,0.176,0.119,0.372c-0.097,0.115-0.127,0.246-0.143,0.312c-0.045,0.196-0.025,0.407-0.07,0.604
			c0.084,0.227,0.104,0.438,0.123,0.648l-0.199,0.85c-0.062,0.262-0.121,0.522-0.035,0.75c-0.047,0.195-0.242,0.149-0.288,0.346
			c-0.013,0.342,0.157,0.795,0.082,1.122c-0.015,0.064-0.111,0.181-0.206,0.296c0.084,0.227-0.042,0.473-0.104,0.733
			c0.034,0.146,0.135,0.308,0.09,0.503l-0.047,0.196c-0.045,0.195-0.092,0.393-0.203,0.573c-0.029,0.131-0.11,0.181-0.207,0.296
			c-0.109,0.181-0.17,0.442-0.217,0.638c-0.26,1.111-0.238,2.494-0.549,3.523c-0.029,0.131-0.156,0.377-0.201,0.573
			c-0.238,0.427-0.395,0.804-0.553,1.181c-0.298,0.688-0.501,1.261-0.936,1.643c-0.176,0.164-0.271,0.28-0.432,0.381
			c-0.178,0.166-0.289,0.347-0.515,0.432c-0.031,0.13-0.127,0.246-0.093,0.393c-0.293,0.069-0.434,0.381-0.711,0.385
			c-0.109,0.182-0.272,0.28-0.383,0.461c-1.199,0.41-2.33,0.834-3.545,1.309c-0.146,0.035-0.131-0.029-0.326-0.076
			c-0.162,0.1-0.388,0.186-0.498,0.366c-0.326-0.077-0.715,0.108-1.123,0.082c-0.422,0.039-0.782-0.183-1.057,0.099
			c-0.486,0.023-0.799-0.117-1.171,0.002c-0.166-0.177-0.343-0.012-0.522-0.123c-0.227,0.086-0.617-0.006-1.092-0.048
			c-0.392-0.092-0.849-0.198-1.225-0.354c-0.705-0.233-1.361-0.662-2-0.881c-0.131-0.03-0.182-0.11-0.296-0.207
			c-0.931-0.147-1.783-0.623-2.17-1.334c-0.522-0.121-0.69-0.574-1.084-0.666l-0.276,0.004c-0.266-0.338-0.531-0.676-0.974-0.848
			c-0.351-0.563-1.2-0.763-1.374-1.492c-0.377-0.156-0.737-0.379-0.777-0.802c-0.607-0.349-0.715-1.063-1.082-1.562
			c0.063-0.262-0.119-0.373,0.057-0.538c-0.113-0.096-0.209,0.021-0.375-0.157c-0.09-0.503-0.489-1.147-0.469-1.831
			c-0.02-0.211,0.025-0.408,0.006-0.619c0.043-0.472-0.031-1.041,0.09-1.563c0.047-0.195,0.076-0.326,0.188-0.507
			c-0.084-0.228,0.009-0.619,0.198-0.85c-0.158-0.796,0.171-1.614,0.225-2.429c0.041-0.473-0.048-0.976,0.043-1.367
			c0.063-0.262,0.041-0.473,0.103-0.734c0.075-0.327,0.233-0.703,0.376-1.015c-0.051-0.081-0.004-0.276-0.121-0.372l0.076-0.327
			c0.152-0.653,0.16-1.272,0.313-1.925c0.047-0.196,0.223-0.362,0.252-0.492c0.076-0.327,0.104-0.734,0.18-1.061
			c0.076-0.327,0.283-0.623,0.375-1.016c0.105-0.457,0.147-0.93,0.271-1.452c0.03-0.131,0.076-0.326,0.058-0.538
			c0.096-0.115,0.176-0.166,0.338-0.266c-0.035-0.146-0.166-0.177-0.121-0.372c0.111-0.182,0.158-0.377,0.219-0.639
			c0.138-0.588,0.225-1.256,0.382-1.633c-0.035-0.146-0.004-0.277,0.026-0.407c0.076-0.327,0.232-0.704,0.406-1.146l0.244-1.045
			c0.151-0.652,0.305-1.307,0.623-1.783c-0.035-0.146-0.07-0.292-0.055-0.357c0.061-0.261,0.367-0.396,0.624-0.611
			c0.162-0.101,0.272-0.281,0.354-0.332c0.338-0.266,1.196-0.408,1.78-0.548l0.599-0.204c0.424-0.039,0.961,0.018,1.483,0.14
			s1.03,0.31,1.423,0.401c0.262,0.061,0.604,0.072,0.799,0.117C125.224,16.057,125.325,16.218,125.504,16.329z"/>
	</g>
	<g>
		<path fill="#231F20" d="M6.683,16.806c0.156-0.039,0.352,0.078,0.527,0.115c0.234-0.061,0.586-0.316,0.879-0.141
			c0.137-0.119,0.293-0.158,0.525-0.219c0.547-0.139,1.174,0.033,1.797-0.125c1.096,0.385,2.463,0.201,2.977,1.566
			c0.139,0.215,0.549,0.193,0.764,0.387c0.119,0.137,0.199,0.449,0.336,0.662c0.039,0.156,0.217,0.195,0.236,0.273l0.119,0.469
			c0.139,0.213,0.51,0.367,0.59,0.68c0.156,0.293,0.217,0.527,0.355,0.74c0.08,0.313,0.295,0.506,0.334,0.662l0.061,0.236
			c0.08,0.311,0.063,0.564,0.121,0.799c0.02,0.078,0.117,0.137,0.217,0.193c0.176,0.371,0.297,0.84,0.475,1.209
			c0.156,0.293,0.275,0.43,0.297,0.838c0.078,0.313,0.102,0.725,0.201,1.113l0.078,0.313c0.197,0.449,0.375,0.818,0.496,1.287
			c0.059,0.234,0.119,0.469,0.023,0.742c0.039,0.156,0.234,0.271,0.295,0.506c0.039,0.156-0.02,0.254,0.021,0.41
			c0.02,0.078,0.117,0.137,0.158,0.291c0.02,0.08-0.039,0.176-0.02,0.256c0.041,0.154,0.197,0.447,0.277,0.76
			c0.02,0.078,0.217,0.193,0.256,0.35c0.061,0.234-0.037,0.51-0.035,0.842c0.061,0.232,0.219,0.525,0.297,0.838
			c0,0-0.037,0.176-0.018,0.254c-0.018,0.254,0.295,0.506,0.023,0.742c0.215,0.193,0.354,0.408,0.414,0.643
			c0.059,0.234,0.041,0.486,0.121,0.799c-0.059,0.1-0.096,0.275-0.076,0.354c0.141,0.877,0.516,1.697,0.266,2.342
			c0.275,0.43,0.492,0.955,0.633,1.5c0.08,0.313,0.158,0.625,0.082,0.977c0.158,0.293,0.336,0.662,0.416,0.975
			c0.039,0.156,0.1,0.391-0.018,0.586c0.236,0.273,0.297,0.84,0.475,1.209c0.119,0.137-0.115,0.197-0.174,0.295
			c0.117,0.135,0.158,0.291,0.197,0.447c0.141,0.547,0.082,0.977,0.223,1.523l0.08,0.313c-0.039,0.176-0.057,0.43-0.193,0.547
			c0.119,0.469,0.238,0.604,0.121,0.801l0.119,0.469c0.18,0.701,0.164,1.287,0.068,1.895l0.418,1.307
			c0.158,0.623,0.143,1.211-0.287,1.484c0.098,0.059,0.119,0.137,0.139,0.215c0.08,0.313-0.193,0.547-0.113,0.859
			c-0.447,0.529-0.754,1.273-1.299,1.746l-0.293,0.156c-0.33,0.334-0.406,0.686-0.953,0.826c-0.703,0.178-1.951,0.498-2.615,0.502
			c-0.254-0.021-0.625-0.174-0.959-0.172c-0.154,0.039-0.371-0.154-0.469-0.213c-0.742,0.022-1.367-0.148-1.818-0.615
			c-0.666,0.004-0.961-0.504-1.432-0.717c-0.236-0.604-0.883-0.854-1.217-1.519c-0.139-0.214-0.219-0.525-0.377-0.818
			c-0.137-0.213-0.275-0.428-0.334-0.661c-0.158-0.291-0.16-0.623-0.24-0.937c-0.236-0.604-0.65-1.246-0.967-2.164
			c-0.217-0.524-0.357-1.072-0.496-1.619C8.63,46.897,8.55,46.585,8.47,46.272c-0.059-0.234-0.119-0.467-0.002-0.664
			c-0.197-0.115-0.256-0.35-0.316-0.584c-0.1-0.391-0.063-0.898-0.182-1.367l-0.141-0.545c-0.1-0.391-0.178-0.703-0.004-0.996
			c-0.061-0.234-0.275-0.098-0.334-0.332c-0.061-0.232-0.021-0.408-0.082-0.643L7.11,39.97c-0.139-0.545-0.299-1.17-0.303-1.834
			c-0.117-0.137-0.156-0.293-0.217-0.527c-0.139-0.545-0.064-1.229-0.125-1.795c-0.021-0.078-0.139-0.215-0.178-0.371
			c-0.021-0.078,0.037-0.174-0.002-0.33c-0.082-0.646-0.359-1.406-0.441-2.051c-0.061-0.566-0.102-1.055-0.262-1.678
			c-0.039-0.156,0.039-0.176,0.096-0.273c-0.059-0.234-0.215-0.195-0.275-0.43c-0.08-0.643-0.338-1.326-0.223-1.854
			c-0.021-0.078-0.119-0.137-0.139-0.215c-0.1-0.389,0.055-0.762,0.033-1.172c-0.08-0.645-0.338-1.326-0.301-1.834l0.133-0.451
			c-0.061-0.566-0.279-1.092,0.109-1.523c-0.039-0.156-0.195-0.117-0.256-0.352c0.02-0.254,0.057-0.43-0.002-0.662l-0.24-0.938
			c-0.021-0.41,0.113-0.859,0.033-1.172c-0.139-0.545-0.336-0.994-0.533-1.443c0.174-0.293,0.055-0.762,0.131-1.113
			c0.389-0.432,1.285-0.826,2.064-1.025L6.683,16.806z"/>
	</g>
</g>
</svg>
