<?xml version="1.0" encoding="utf-8"?>
<!-- Generator: Adobe Illustrator 16.0.0, SVG Export Plug-In . SVG Version: 6.00 Build 0)  -->
<!DOCTYPE svg PUBLIC "-//W3C//DTD SVG 1.1//EN" "http://www.w3.org/Graphics/SVG/1.1/DTD/svg11.dtd">
<svg version="1.1" xmlns="http://www.w3.org/2000/svg" xmlns:xlink="http://www.w3.org/1999/xlink" x="0px" y="0px"
	 width="96.083px" height="77.374px" viewBox="0 0 96.083 77.374" enable-background="new 0 0 96.083 77.374" xml:space="preserve">
<g id="Layer_2">
</g>
<g id="Layer_1">
	<g>
		<path fill="#FFFFFF" d="M0.173,40.781c0.816-8.213,4.995-15.586,11.996-20.637c6.281-4.533,14.569-4.574,22.315-4.928
			c0.972-8.852,9.135-19.667,19.1-13.303c7.709,4.922,6.133,16.371,13.549,20.943c3.868-1.975,3.833,2.43,6.677,2.369
			c3.107-0.063,2.287-3.613,4.576-4.846c5.125-2.762,12.986,1.887,15.322,6.035c2.288,4.061,3.996,11.959-0.135,15.484
			c-1.934,1.648-5.958,1-7.214,2.723c-1.111,1.523-0.137,6.646,0.036,8.41c0.934,9.543-5.117,25.706-17.719,24.249
			c-5.763-0.668-6.814-4.914-12.725-3.219c-2.295,0.658-4.629,2.195-7.375,1.715c-3.702-0.648-4.124-4.541-7.127-6.17
			c-8.523-4.622-21.198-0.861-29.853-4.966C-2.317,58.047,0.173,40.781,0.173,40.781z"/>
		<g>
			<path fill="#5AB1AF" d="M62.304,35.854C61.608,28.744,54.365,3.656,44.84,9.117c-6.634,3.805-0.632,15.861-3.237,19.668
				c-2.326,3.4-6.476-2.133-9.022-3.113C22.768,21.893,8.379,53.404,16.952,59.07c5.564,3.682,21.684,3.641,23.985,4.541
				c2.883,1.123,4.597,4.495,7.569,5.21c6.123,1.479,15.958-5.362,19.396-10.565c5.067-7.66,0.223-13.58-5.306-19.252L62.304,35.854
				z"/>
			<path fill="#231F20" d="M50.328,69.776L50.328,69.776c-0.706,0-1.378-0.076-1.997-0.226c-1.779-0.428-3.107-1.661-4.392-2.854
				c-1.062-0.985-2.065-1.916-3.274-2.387c-0.634-0.248-2.952-0.456-5.407-0.677c-5.881-0.526-14.769-1.323-18.72-3.938
				c-3.283-2.171-3.87-7.73-1.608-15.254c2.867-9.539,9.782-19.834,15.955-19.834c0.677,0,1.338,0.122,1.965,0.363
				c0.882,0.34,1.851,1.096,2.876,1.896c1.356,1.06,2.894,2.26,4.021,2.26c0.307,0,0.768-0.08,1.237-0.767
				c0.874-1.276,0.565-3.994,0.239-6.871c-0.53-4.669-1.19-10.48,3.244-13.023c1.008-0.578,2.041-0.871,3.072-0.871
				c8.778,0,14.869,21.62,15.511,28.185l0.271,2.891c5.575,5.746,10.479,12.031,5.209,19.999
				C65.135,63.806,56.445,69.776,50.328,69.776z M30.885,26.108c-5.311,0-11.795,9.703-14.519,18.766
				c-2.027,6.744-1.653,11.817,0.999,13.57c3.636,2.405,12.296,3.182,18.027,3.696c3.276,0.293,5.022,0.461,5.818,0.772
				c1.475,0.574,2.631,1.647,3.749,2.686c1.195,1.109,2.325,2.157,3.723,2.493c0.505,0.122,1.058,0.185,1.645,0.185
				c5.569,0,13.827-5.708,16.95-10.434c4.724-7.141,0.433-12.52-5.217-18.315l-0.185-0.189l-0.319-3.415
				c-0.652-6.675-6.665-26.827-14.018-26.827c-0.767,0-1.549,0.227-2.326,0.672c-3.579,2.053-3.006,7.101-2.5,11.554
				c0.375,3.3,0.698,6.149-0.491,7.888c-0.645,0.941-1.477,1.419-2.476,1.419c-1.644,0-3.321-1.311-4.943-2.577
				c-0.936-0.73-1.818-1.42-2.492-1.679C31.856,26.197,31.377,26.108,30.885,26.108z"/>
		</g>
		<path fill="#468885" d="M17.557,27.18c7.104-5.094,12.028-0.209,14.914,4.877c3.46,6.088,12.033,7.297,13.349,2.324
			c3.454-13.068,16.416,4.115,4.155,18.457c-9.485,11.094-18.071,1.088-20.691,0.652C14.666,51.059,9.994,32.6,17.557,27.18z"/>
		<path fill="#7CCDCD" d="M61.475,42.533c0,0-6.161,17.789-14.499,18.563c-8.336,0.777-0.689,4.593,2.999,6.011
			c3.69,1.412,22.83-8.3,15.168-21.47C64.718,44.906,61.475,42.533,61.475,42.533z"/>
		<g>
			<path fill="#231F20" d="M69.676,70.362c-3.504,0-7.058-1.602-9.835-4.646c-0.279-0.307-0.258-0.781,0.048-1.06
				c0.308-0.279,0.781-0.258,1.06,0.048c3.877,4.252,9.416,5.359,13.783,2.759c4.998-2.977,8.601-11.095,4.352-25.091
				c-0.936-0.022-1.834-0.224-2.658-0.611c-6.013-2.822-7.748-6.055-7.366-8.14c0.235-1.288,1.241-2.154,2.625-2.262
				c2.364-0.156,5.86,1.885,8.09,8.295c0.136,0.389,0.265,0.772,0.389,1.153c1.229-0.179,2.515-0.717,3.733-1.594
				c2.672-1.922,4.199-4.892,3.89-7.567c-0.336-2.91-2.723-5.365-6.899-7.099c-0.383-0.158-0.564-0.598-0.405-0.979
				c0.158-0.383,0.598-0.564,0.979-0.405c5.951,2.469,7.534,5.883,7.815,8.312c0.37,3.207-1.397,6.723-4.504,8.957
				c-1.342,0.965-2.767,1.578-4.159,1.822c4.344,14.633,0.337,23.252-5.113,26.497C73.679,69.836,71.686,70.362,69.676,70.362z
				 M71.96,32.85c-0.056,0-0.109,0.002-0.161,0.006c-0.693,0.054-1.154,0.431-1.265,1.036c-0.216,1.179,0.916,3.878,6.527,6.512
				c0.479,0.225,0.993,0.368,1.53,0.433c-0.076-0.228-0.154-0.458-0.234-0.689C76.347,34.366,73.468,32.85,71.96,32.85z"/>
		</g>
		<g>
			<path fill="#5AB1AF" d="M42.185,40.291c0.938-4.379,0.833-8.738-0.582-11.506c-6.182-12.09-21.644-5.393-23.687-3.902
				c-9.368,6.836-15.832,33.525,5.164,36.4c2.106,0.289-3.085-5.723,4.426-5.229C31.872,56.117,39.019,55.059,42.185,40.291z"/>
			<path fill="#231F20" d="M23.217,62.043c-0.073,0-0.152-0.005-0.238-0.017c-9.457-1.295-12.836-7.092-14.005-11.726
				c-2.417-9.581,2.494-21.641,8.5-26.023c1.173-0.855,6.437-3.337,12.139-3.337c5.771,0,10.148,2.595,12.658,7.503
				c1.442,2.821,1.678,7.196,0.647,12.005c-3.501,16.33-12.191,16.358-15.071,16.358c-0.005,0-0.01,0-0.015,0l-0.337-0.002
				c-0.318-0.02-0.578-0.029-0.821-0.029c-1.229,0-2.063,0.23-2.416,0.667c-0.424,0.525-0.215,1.488-0.048,2.262
				c0.167,0.771,0.311,1.438-0.092,1.937C23.997,61.791,23.719,62.043,23.217,62.043z M23.183,60.547l0.034,0.746v-0.75
				C23.206,60.544,23.194,60.545,23.183,60.547z M29.612,22.44c-5.381,0-10.333,2.376-11.254,3.048
				c-5.506,4.018-10.17,15.571-7.931,24.445c1.042,4.131,4.045,9.286,12.412,10.558c-0.027-0.152-0.064-0.324-0.096-0.47
				c-0.223-1.028-0.527-2.438,0.347-3.521c0.665-0.824,1.837-1.226,3.583-1.226c0.273,0,0.566,0.01,0.881,0.031h0.277
				c4.45,0.001,10.703-1.572,13.619-15.173c0.945-4.411,0.752-8.525-0.517-11.007C38.666,24.69,34.857,22.44,29.612,22.44z"/>
		</g>
		<path fill="#5AB1AF" d="M26.485,53.906c0,0-3.964,3.254,2.375,3.188c3.563-0.039-0.336,3.965-1.416,4.143
			c-1.72,0.285-6.844-1.336-6.844-1.336l2.239-9.361L26.485,53.906z"/>
		<g>
			<path fill="#FFFFFF" d="M25.43,25.352c-2.11,0.559-5.81,0.229-4.843,2.93c0.334,0.939,1.139,2.281,1.132,3.207
				c-0.009,1.189-1.802,0.957-2.958,1.135c-2.058,0.316-2.166,0.344-1.186,2.049c0.404,0.701,1.602,2.598,1.287,3.34
				c-0.284,0.691-2.398,0.986-3.251,1.236c-1.567,0.455-2.717,0.33-1.415,2.189c0.883,1.256,2.4,2.211,0.76,2.988
				c-1.061,0.498-2.422,0.549-3.649,0.758c-0.717,0.09,1.245,2.742,1.939,3.473c0.835,0.773,2.152,1.205,1.688-0.412
				c-0.448-1.568-1.722-1.68,0.521-2.281c0.968-0.264,2.894-0.783,2.854-1.787c-0.041-0.996-2.339-3.086-1.748-3.25
				c2.167-0.523,5.084-1.119,3.936-3.654c-0.432-0.947-1.066-2.174-0.583-2.449c0.729-0.418,2.204-0.643,3.054-0.957
				c1.484-0.549,2.051-0.58,1.688-2.273c-0.199-0.941-0.807-1.719-1.074-2.711c-0.456-1.727,1.78-1.297,3.285-1.561
				c0.711-0.121,2.426-1.105,0.668-1.875C26.938,25.182,26.013,25.158,25.43,25.352z"/>
			<path fill="#FFFFFF" d="M26.537,29.148c0.341-0.775,2.151-0.678,2.195,0.43c0.055,1.379-2.378,1.092-2.238-0.316L26.537,29.148z"
				/>
			<path fill="#FFFFFF" d="M22.416,36.945c-0.362-1.504,2.05-1.34,2.05-0.213C24.466,37.783,22.84,37.857,22.416,36.945z"/>
			<path fill="#FFFFFF" d="M19.418,41.947c0.687-1.115,2.558-0.113,1.958,0.98C20.815,43.959,18.83,43.1,19.418,41.947z"/>
			<path fill="#FFFFFF" d="M16.659,47.32c0.571-0.959,2.131-0.262,1.814,0.686C18.083,49.178,16.24,48.355,16.659,47.32z"/>
			<path fill="#FFFFFF" d="M11.688,41.213c1.434-0.502,2.276,1.625,1.057,1.9C11.482,43.398,10.478,41.756,11.688,41.213z"/>
			<path fill="#FFFFFF" d="M15.031,35.289c1.238-0.078,1.472,1.354,0.764,1.582C13.919,37.184,14.185,35.326,15.031,35.289z"/>
			<path fill="#FFFFFF" d="M18.088,29.84c-0.393-1.039,1.257-1.148,1.604-0.295C20.164,30.701,18.193,30.27,18.088,29.84z"/>
		</g>
		<path fill="#7CCDCD" d="M31.602,37.533c0,0-2.936,9.457-7.876,9.699c-4.94,0.244-5.104,4.369-2.022,4.994
			s11.957,0.057,13.957-7.348c2-7.402,3.219-11.184,0.875-12.227C34.006,31.525,32.56,35.043,31.602,37.533z"/>
	</g>
</g>
</svg>
