<?xml version="1.0" encoding="utf-8"?>
<!-- Generator: Adobe Illustrator 16.0.0, SVG Export Plug-In . SVG Version: 6.00 Build 0)  -->
<!DOCTYPE svg PUBLIC "-//W3C//DTD SVG 1.1//EN" "http://www.w3.org/Graphics/SVG/1.1/DTD/svg11.dtd">
<svg version="1.1" id="Layer_1" xmlns="http://www.w3.org/2000/svg" xmlns:xlink="http://www.w3.org/1999/xlink" x="0px" y="0px"
	 width="150.916px" height="124.951px" viewBox="0 0 150.916 124.951" enable-background="new 0 0 150.916 124.951"
	 xml:space="preserve">
<path fill="#999999" d="M8.037,63.69c0.688,2.207,1.62,3.854,2.652,5.103c-1.245,1.247-2.288,3.267-2.378,6.539
	c-0.049,1.771,0.124,4.174,0.529,7.351c0.025,0.199,0.06,0.398,0.104,0.596c0.012,0.234,0.032,0.475,0.063,0.719l0.174,1.361
	c0.105,5.018,0.208,5.83,0.253,6.184c0.014,0.104,0.029,0.207,0.047,0.311c0.616,3.494,1.114,6.739,1.523,9.914
	c0.115,2.229,0.386,5.373,0.825,9.598c0.005,0.049,0.011,0.097,0.017,0.146c0.078,0.614,0.197,1.37,0.349,1.874
	c0.557,4.135,2.134,12.959,9.716,12.959h0.002c0.332,0,0.669-0.217,1.011-0.262l2.888-0.467c0.141-0.018,0.28-0.09,0.42-0.117
	c5.252-1.021,7.874-3.143,9.137-5.268c0.145,0.198,0.3,0.379,0.467,0.563c3.521,3.857,7.207,4.66,9.68,4.659
	c0.493,0,0.993-0.033,1.486-0.099c1.761-0.225,3.38-0.992,4.837-2.278c1.447,0.477,3.056,0.713,4.879,0.713
	c1.739,0,3.659-0.214,5.859-0.649c9.688-1.132,12.732-5.861,13.574-9.652c0.162-0.735,0.197-1.494,0.103-2.241
	c-0.202-1.582-0.921-3.166-2.153-4.416c0.539-0.115,1.083-0.263,1.631-0.443c1.096,1.542,2.894,2.829,5.572,3.091
	c0.236,0.021,0.397,0.039,0.508,0.053c0.598,0.334,1.151,0.6,1.613,0.82c0.293,0.14,0.678,0.322,0.872,0.437
	c0.242,0.274,0.507,0.528,0.788,0.759c0.063,0.069,0.123,0.137,0.188,0.201c0.289,0.472,0.707,1.048,1.302,1.604
	c0.29,0.272,0.6,0.521,0.924,0.74c0.819,0.891,1.854,1.561,3.036,1.938c1.844,2.476,4.348,2.94,5.455,3.016
	c0.232,0.018,0.467,0.025,0.701,0.025c0.137,0,0.271-0.002,0.398-0.008c0.182,0.086,0.336,0.154,0.459,0.209
	c1.748,0.769,3.297,0.832,4.223,0.868c0.086,0.005,0.172,0.007,0.258,0.011c0.441,0.088,0.869,0.151,1.287,0.193
	c0.971,0.645,2.105,1.025,3.299,1.082c0.104,0.006,0.209,0.008,0.314,0.008c0.441,0,0.881-0.045,1.307-0.133
	c0.39,0.07,0.787,0.105,1.191,0.105c0.633,0,1.248-0.09,1.831-0.258c0.106,0.004,0.214,0.008,0.319,0.008
	c0.529,0,1.477-0.074,2.527-0.506c0.06,0.021,0.112,0.037,0.16,0.054c0.764,0.276,1.561,0.418,2.369,0.418
	c1.496,0,2.911-0.483,4.065-1.326c1.032-0.313,2.225-0.935,3.274-2.146c0.307-0.123,0.762-0.309,1.282-0.596
	c0.94-0.224,1.867-0.646,2.683-1.281c0.895-0.265,1.736-0.711,2.477-1.326c0.119-0.1,0.234-0.201,0.346-0.309
	c1.086-0.277,2.102-0.834,2.932-1.641c0.68-0.659,1.154-1.354,1.492-1.973c0.111-0.09,0.207-0.201,0.313-0.299
	c0.885-0.478,1.649-1.158,2.237-1.998c0.003-0.002,0.007-0.007,0.009-0.008c0.703-0.427,1.636-1.152,2.34-2.334
	c0.147-0.244,0.285-0.507,0.408-0.787c0.31-0.359,0.562-0.727,0.769-1.084c0.778-0.729,1.385-1.656,1.734-2.724l0.152-0.458
	c0.14-0.416,0.291-0.87,0.438-1.355c1.004-0.813,1.754-1.908,2.161-3.187c0.305-0.954,0.403-1.935,0.298-2.888
	c0.053-0.407,0.068-0.818,0.047-1.229c0.746-1.48,1.146-3.214,0.852-4.877c0.072-0.592,0.215-1.093,0.215-1.438v-0.123
	c0-0.414-0.184-0.818-0.229-1.213c0.086-0.105,0.084-0.203,0.146-0.289c0.691-0.944,1.645-2.848,1.115-5.485
	c0.469-0.999,0.627-1.983,0.67-2.819c0.096-1.949-0.694-3.771-2.035-5.047c0.488-0.519,0.8-1.003,0.972-1.288
	c0.207-0.31,0.38-0.632,0.528-0.963c2.102-1.276,3.392-3.489,3.479-5.979c0.016-0.096,0.03-0.195,0.045-0.302
	c0.291-2.2-0.384-4.426-1.854-6.104c-1.425-1.625-3.456-2.558-5.574-2.558c-0.754,0-1.501,0.117-2.247,0.356l-0.355,0.109
	c-0.268,0.079-0.58,0.173-0.924,0.291c-0.283-0.037-0.582-0.059-0.895-0.059c-0.193,0-0.385,0.008-0.575,0.024
	c-1.577-1.215-3.269-1.383-4.079-1.383c-0.099,0-0.197,0.002-0.299,0.007c-0.21-0.043-0.445-0.084-0.703-0.116
	c-0.693-0.305-1.462-0.635-2.277-0.927c-0.291-0.105-0.582-0.216-0.873-0.326c-1.361-0.518-3.059-1.161-4.991-1.443
	c-1.461-0.215-2.923-0.487-4.479-0.836l-0.332-0.073c-1.693-0.377-3.611-0.805-5.699-0.928c-0.502-0.029-1.002-0.043-1.5-0.043
	c-3.108,0-6.33,0.556-9.848,1.699c-1.857,0.603-3.283,1.554-4.376,2.345c-1.196,0.196-2.282,0.714-3.176,1.462
	c0.084-0.295,0.185-0.584,0.258-0.882c0.163-0.667,0.222-1.355,0.169-2.041c-0.142-1.904-0.074-2.508-0.07-2.54
	c0.145-0.832,0.125-1.684-0.057-2.509c-0.39-1.776-0.621-3.002-0.73-3.854l-0.119-0.937c-0.086-0.667-0.086-0.667-1.155-4.028
	l-0.224-0.699c-0.084-0.266-0.187-0.526-0.303-0.778c-1.217-2.607-1.767-4.1-2.014-4.893c-0.111-0.358-0.254-0.706-0.425-1.039
	c-0.343-0.664-0.712-1.346-1.111-2.047c2.791-1.188,5.729-3.532,5.148-8.097c-0.015-0.114-0.032-0.228-0.054-0.341
	c-0.69-3.812-1.349-6.237-2.131-7.864c-0.127-0.263-0.271-0.518-0.432-0.761c-4.172-6.331-9.176-9.54-14.873-9.54
	c-0.607,0-1.227,0.039-1.837,0.117C72.95,1.608,69.514,3.3,66.615,6.143c-0.289,0.25-0.588,0.545-0.887,0.862
	c-2.799-2.12-5.854-3.195-9.143-3.195c-0.608,0-1.226,0.039-1.837,0.117c-2.593,0.331-4.981,1.207-7.148,2.592
	c-1.659-1.356-3.968-2.271-7.061-2.271c-0.754,0-1.562,0.054-2.402,0.161c-2.789,0.355-5.436,1.113-7.866,2.253
	c-1.232,0.578-2.254,1.527-2.92,2.716c-0.042,0.075-0.072,0.151-0.113,0.227c-0.592-0.107-1.207-0.169-1.847-0.169
	c-0.523,0-1.074,0.036-1.637,0.108l-1.036,0.132c-2.092,0.262-3.673,1.456-4.951,2.624c-1.347-0.607-2.969-0.959-4.894-0.959
	c-0.024,0-0.05,0-0.074,0c-0.723,0-1.435,0.08-2.109,0.311l-1.586,0.18c-0.44,0.057-0.875,0.146-1.296,0.291
	c-7.037,2.418-6.953,7.526-6.76,9.032l0.334,2.618c0.256,5.767,0.429,8.597,0.614,10.059c0.021,0.156,0.046,0.312,0.077,0.466
	c-0.002,0.039-0.004,0.075-0.005,0.113c-0.025,0.638-0.006,1.42,0.062,2.461c0.009,0.141,0.021,0.279,0.04,0.419
	c0.087,0.672,0.246,1.329,0.478,1.967c0.074,0.971,0.156,1.96,0.209,2.36c0.007,0.054,0.015,0.107,0.022,0.161
	c0.283,1.808,0.517,3.151,0.713,4.107c0.067,0.328,0.143,0.64,0.226,0.937c0.007,0.217,0.023,0.433,0.051,0.646
	C4.06,48.967,4.702,52.15,7.997,63.56C8.01,63.604,8.023,63.647,8.037,63.69z"/>
<g>
	<circle fill="#FFFFFF" cx="68.983" cy="71.892" r="23.302"/>
	<g>
		<g>
			<path fill="#FFFFFF" d="M17.435,71.519c-2.298,0-7.911-0.858-10.391-8.825c-0.013-0.043-0.026-0.086-0.039-0.129
				c-3.298-11.417-3.94-14.598-4.13-16.094c-0.027-0.214-0.044-0.428-0.05-0.643c-0.083-0.296-0.159-0.608-0.227-0.937
				c-0.197-0.957-0.43-2.301-0.713-4.107c-0.011-0.067-0.021-0.136-0.029-0.204c-0.044-0.352-0.122-1.246-0.203-2.319
				c-0.233-0.642-0.393-1.303-0.479-1.979c-0.017-0.134-0.03-0.268-0.038-0.401c-0.067-1.043-0.087-1.827-0.063-2.469
				c0.001-0.037,0.003-0.074,0.005-0.111c-0.031-0.152-0.056-0.306-0.076-0.461c-0.187-1.467-0.361-4.3-0.615-10.066l-0.334-2.62
				c-0.192-1.512-0.27-6.621,6.761-9.036c0.42-0.145,0.854-0.245,1.295-0.302L9.7,10.614c0.673-0.229,1.384-0.349,2.104-0.349
				c0.024,0,0.047,0,0.072,0c1.926,0.021,3.547,0.392,4.895,0.998c1.274-1.163,2.85-2.312,4.93-2.579l1.058-0.135
				c0.562-0.072,1.113-0.108,1.636-0.108c4.624,0,8.101,2.911,8.651,7.245c0.074,0.581,0.069,1.168-0.014,1.748
				c-0.64,4.466-1.243,6.823-1.783,8.284c-0.106,0.536-0.261,1.037-0.438,1.5c-0.165,1.029-0.511,2.329-1.137,4.15
				c0.159,0.131,0.341,0.271,0.549,0.423c0.313,0.227,0.605,0.481,0.873,0.76c1.514,1.575,2.615,3.438,3.249,5.475
				c1.4,1.927,2.231,4.428,2.896,6.963c0.167,0.561,0.303,1.147,0.413,1.776c0.763,1.382,1.319,2.993,1.663,4.82
				c0.641,1.308,1.034,2.572,1.193,3.837l0.067,0.526c0.016,0.123,0.027,0.247,0.036,0.37c0.422,1.163,0.711,2.34,0.86,3.513
				c0.396,3.107-0.878,6.088-3.412,7.968c-1.58,1.173-3.587,1.901-6.135,2.226c-0.107,0.016-0.215,0.025-0.323,0.033
				c-0.525,0.041-1.009,0.061-1.451,0.061c-2.011,0-3.627-0.432-4.897-1.124c-2.064,1.22-4.286,1.877-5.464,2.225
				c-0.335,0.099-0.677,0.171-1.023,0.216C18.325,71.49,17.875,71.519,17.435,71.519z"/>
			<path fill="#FFFFFF" d="M41.302,71.037c-2.931,0-5.461-1.215-7.072-3.325c-2.164-2.197-2.672-5.292-2.859-6.706l-2.06-10.034
				c-0.033-0.162-0.06-0.324-0.081-0.487c-0.096-0.75-0.167-1.894-0.31-4.422l-0.826-4.56c-0.047-0.26-0.078-0.521-0.094-0.784
				c-0.158-2.718-0.211-6.1-0.245-9.363c-0.046-0.917-0.148-1.977-0.319-3.32l-0.151-1.175c-0.136-1.08-0.097-2.664,0.759-4.352
				c-1.103-1.019-1.944-2.3-2.461-3.804c-0.033-0.097-0.064-0.193-0.093-0.291l-0.649-2.219c-0.237-0.81-0.315-1.658-0.229-2.497
				c0.183-1.787,0.771-3.576,1.747-5.316c0.667-1.188,1.688-2.138,2.921-2.716c2.432-1.14,5.079-1.897,7.867-2.253
				c0.839-0.106,1.647-0.161,2.401-0.161c6.906,0,9.936,4.546,10.432,8.438c0.358,2.815-0.474,5.66-2.477,8.478
				c0.93,1.051,1.663,2.321,2.158,3.781c0.843,2.263,1.323,4,1.51,5.461c0.063,0.49,0.071,0.962,0.045,1.423
				c0.161,0.55,0.28,1.127,0.357,1.731l0.084,0.662c0.142,1.111,0.149,2.229,0.025,3.339c0.006,0.041,0.117,0.912,0.117,0.912
				c0.089,0.696,0.165,1.813,0.232,4.87c0.063,0.316,0.219,0.992,0.587,2.231c0.18,0.606,0.271,1.236,0.269,1.869
				c-0.002,1.063-0.005,2.229-0.113,3.387l2.163,9.393c0.048,0.21,0.086,0.422,0.114,0.636l0.084,0.656
				c0.141,1.108,0.46,6.528-6.309,8.772c-1.503,0.782-3.266,1.296-5.353,1.563l-0.662,0.084
				C42.3,71.004,41.791,71.037,41.302,71.037z"/>
			<path fill="#FFFFFF" d="M58.955,68.513c-4.576,0-8.341-1.966-10.708-5.56c-1.414-1.506-2.507-3.188-3.262-5.022
				c-1.072-1.53-1.755-3.29-1.994-5.163l-0.117-0.918c-0.6-4.719,1.947-8.545,6.315-9.794c0.099-0.045,0.2-0.088,0.304-0.129
				c-0.916-1.317-1.643-2.585-2.175-3.791c-3.106-3.942-5.064-7.407-5.971-10.562c-1.364-3.997-1.489-4.638-1.58-5.344l-0.184-1.442
				c-0.026-0.21-0.044-0.419-0.054-0.626c-0.095-0.376-0.193-0.803-0.3-1.297c-0.162-0.747-0.191-1.517-0.087-2.273
				c0.617-4.473,2.663-7.135,4.396-8.63c2.9-2.845,6.337-4.537,10.22-5.031c0.608-0.077,1.227-0.117,1.836-0.117
				c5.697,0,10.701,3.21,14.873,9.539c0.162,0.245,0.307,0.502,0.434,0.767c0.781,1.626,1.437,4.05,2.128,7.861
				c0.021,0.113,0.038,0.227,0.052,0.34c0.139,1.093,0.394,5.83-5.117,8.153c0.388,0.681,0.747,1.344,1.079,1.989
				c0.17,0.333,0.313,0.679,0.424,1.036c0.249,0.797,0.801,2.293,2.014,4.897c0.118,0.252,0.219,0.512,0.304,0.777l0.198,0.621
				c1.105,3.473,1.105,3.473,1.189,4.179l0.11,0.861c0.108,0.853,0.341,2.077,0.732,3.855c0.183,0.829,0.201,1.686,0.056,2.521
				c-0.003,0.028-0.07,0.631,0.072,2.531c0.051,0.685-0.006,1.373-0.17,2.04c-0.698,2.846-1.899,5.554-3.572,8.06
				c-1,1.943-3.194,4.491-7.932,5.219c-0.421,0.146-0.859,0.25-1.308,0.308C60.409,68.464,59.667,68.513,58.955,68.513z"/>
			<path fill="#FFFFFF" d="M81.038,65.697c-4.574,0.001-8.339-1.964-10.707-5.558c-1.414-1.505-2.507-3.188-3.263-5.022
				c-1.072-1.529-1.755-3.289-1.995-5.164l-0.117-0.918c-0.599-4.713,1.941-8.535,6.3-9.789c0.104-0.046,0.21-0.091,0.318-0.135
				c-0.915-1.316-1.642-2.583-2.173-3.789c-3.106-3.942-5.065-7.407-5.971-10.563c-1.302-3.816-1.483-4.571-1.582-5.363
				l-0.182-1.423c-0.026-0.211-0.044-0.42-0.054-0.627c-0.095-0.377-0.193-0.806-0.3-1.302c-0.161-0.744-0.19-1.51-0.086-2.265
				c0.615-4.475,2.662-7.137,4.396-8.633c2.899-2.844,6.335-4.536,10.218-5.031C76.45,0.039,77.067,0,77.675,0
				c5.697,0,10.701,3.209,14.875,9.538c0.162,0.246,0.307,0.502,0.434,0.768c0.781,1.625,1.438,4.05,2.129,7.86
				c0.021,0.112,0.037,0.227,0.052,0.34c0.411,3.224-1.24,6.219-4.306,7.815c-0.254,0.132-0.519,0.256-0.793,0.37
				c0.381,0.67,0.734,1.322,1.062,1.957c0.171,0.334,0.313,0.683,0.427,1.041c0.246,0.793,0.797,2.285,2.012,4.893
				c0.117,0.252,0.22,0.513,0.304,0.778l0.22,0.691c1.073,3.373,1.073,3.373,1.16,4.045l0.118,0.932
				c0.108,0.844,0.34,2.068,0.731,3.85c0.183,0.828,0.201,1.685,0.055,2.521c-0.002,0.028-0.069,0.63,0.072,2.53
				c0.051,0.685-0.006,1.373-0.17,2.04c-0.697,2.845-1.897,5.554-3.572,8.062c-1,1.943-3.193,4.492-7.933,5.218
				c-0.421,0.146-0.858,0.249-1.308,0.308C82.492,65.649,81.75,65.697,81.038,65.697z"/>
		</g>
		<g>
			<path fill="#FFFFFF" d="M23.586,15.021c1.838-0.234,2.836,0.272,2.99,1.487c-0.564,3.939-1.146,6.447-1.705,7.553
				c0.046,0.361-0.125,0.85-0.471,1.528c0.079,0.624-0.398,2.385-1.466,5.256c-0.265,0.8-0.345,1.479-0.274,2.034
				c0.657,1.485,1.898,2.86,3.736,4.193c1.114,1.159,1.79,2.541,1.995,4.146c0.854,0.425,1.726,2.282,2.573,5.542
				c0.17,0.545,0.278,1.132,0.35,1.689l0.084,0.657c0.826,0.994,1.389,2.523,1.652,4.592c0.552,0.93,0.895,1.785,0.99,2.541
				l0.066,0.525l-0.03,0.803c0.503,1.07,0.802,2.1,0.927,3.084c0.201,1.575-1.11,2.544-3.899,2.899
				c-2.015,0.155-3.087-0.141-3.188-0.929c-0.629-0.754-1.692-3.086-3.15-6.936c-1.9-3.659-2.861-5.704-2.92-6.164l-0.132,0.017
				c-0.063,1.608-0.045,2.773,0.043,3.463l1.611,8.466l0.017,0.131c0.142,1.115-1.682,2.25-5.441,3.36
				c-2.133,0.272-3.712-1.127-4.671-4.207c-2.388-8.265-3.696-13.302-3.926-15.106l0.03-0.804c-0.164,0.021-0.514-1.669-1.046-5.068
				c-0.021-0.165-0.113-1.153-0.237-2.905l0.132-0.018c-0.325-0.458-0.516-0.9-0.578-1.393c-0.103-1.588-0.071-2.393,0.094-2.414
				c-0.013-0.099-0.088-0.421-0.266-1.032c-0.172-1.346-0.353-4.591-0.581-9.797l-0.368-2.889c-0.096-0.754,0.714-1.458,2.408-2.04
				l2.362-0.301c0.197-0.025,0.356-0.079,0.509-0.198c2.404,0.026,3.719,0.926,3.945,2.698c0.079,0.623,0.639,2.92,1.674,6.856
				L17.509,27c0.196-0.291,0.501-1.831,0.876-4.646c0.646-2.783,1.49-4.793,2.562-6.063c0.774-0.732,1.294-1.099,1.59-1.137
				L23.586,15.021z"/>
			<path fill="#FFFFFF" d="M43.507,12.516c0.18,1.411-0.542,3.07-2.171,4.945c0.021,0.164-1.398,0.545-4.285,1.18
				c-2.961,0.311-4.716-0.366-5.299-2.06l-0.649-2.219c0.09-0.878,0.402-1.818,0.946-2.788c1.856-0.87,3.82-1.421,5.922-1.688
				C41.383,9.451,43.227,10.316,43.507,12.516z M38.347,23.312c2.723-0.348,4.444,0.6,5.16,2.811
				c0.656,1.75,1.065,3.132,1.191,4.116c0.029,0.229-0.043,0.705-0.21,1.494c0.317,0.393,0.52,0.936,0.611,1.656l0.083,0.656
				c0.117,0.92,0.07,1.858-0.174,2.824l0.216,0.639l0.1,0.788c0.08,0.623,0.141,2.149,0.192,4.645
				c0.096,0.754,0.378,1.919,0.845,3.493c-0.006,2.569-0.072,3.879-0.171,3.891l2.388,10.367l0.084,0.656
				c0.104,0.82-0.716,1.458-2.425,1.909c-0.832,0.541-2.017,0.926-3.592,1.126l-0.655,0.083c-1.478,0.188-2.394-0.195-2.81-1.109
				c-0.678-0.348-1.124-1.49-1.371-3.426l-2.108-10.271c-0.075-0.59-0.16-2.046-0.29-4.364l-0.897-4.955
				c-0.141-2.416-0.198-5.477-0.235-9.175c-0.057-1.226-0.19-2.543-0.37-3.954l-0.151-1.181c-0.087-0.689,0.616-1.445,2.111-2.271
				c0.447-0.156,0.968-0.256,1.559-0.332L38.347,23.312z"/>
			<path fill="#FFFFFF" d="M65.02,15.943c0.498,1.037,1.028,3.104,1.59,6.201c0.121,0.951-1.129,1.61-3.754,1.945
				c-1.786-0.139-3-0.518-3.613-1.141c-0.437-0.545-1.029-1.802-1.814-3.771c-1.954-1.985-3.339-2.909-4.094-2.813l0.117,0.918
				c0.158,1.248,0.897,3.12,2.179,5.592c3.445,4.53,5.97,8.377,7.61,11.569c0.451,1.443,1.228,3.346,2.328,5.707
				c0.724,2.274,1.113,3.492,1.125,3.591l0.117,0.918c0.146,1.149,0.433,2.614,0.832,4.431c-0.154,0.886-0.147,2.253-0.007,4.137
				c-0.549,2.236-1.513,4.36-2.924,6.374c-0.424,1.121-1.571,1.801-3.474,2.044c-0.493,0.063-0.816,0.138-0.902,0.249
				c-3.281,0.418-5.578-0.591-6.917-2.988c-1.254-1.208-2.168-2.625-2.669-4.195c-0.736-0.806-1.157-1.753-1.287-2.771l-0.117-0.918
				c-0.213-1.674,0.568-2.608,2.308-2.83c-0.021-0.163,0.267-0.267,0.886-0.379c1.969-0.251,3.724,1.227,5.229,4.402
				c0.871,2.124,1.598,3.365,2.209,3.721l0.131-0.017c0.07-1.543,0.067-2.876,0.023-4.005c-0.647-3.252-1.424-5.688-2.266-7.314
				l-0.2-1.575c-0.53-0.232-1.186-1.45-1.929-3.623c-1.396-1.789-2.294-3.343-2.72-4.589c-2.926-3.596-4.751-6.665-5.438-9.179
				c-0.852-2.491-1.298-3.902-1.34-4.231l-0.185-1.443c-0.024-0.197-0.013-0.365,0.064-0.541c-0.087-0.156-0.268-0.801-0.514-1.937
				c0.295-2.139,1.096-3.707,2.337-4.699c1.919-1.945,4.111-3.06,6.639-3.381C58.354,8.922,61.836,11.113,65.02,15.943z"/>
			<path fill="#FFFFFF" d="M87.103,13.13c0.498,1.037,1.028,3.104,1.59,6.2c0.121,0.951-1.129,1.611-3.754,1.945
				c-1.785-0.139-3-0.517-3.612-1.141c-0.437-0.545-1.03-1.802-1.813-3.77c-1.955-1.985-3.34-2.909-4.095-2.813l0.117,0.918
				c0.159,1.248,0.897,3.121,2.18,5.593c3.444,4.53,5.97,8.376,7.61,11.568c0.449,1.444,1.227,3.346,2.326,5.707
				c0.725,2.275,1.113,3.493,1.127,3.592l0.115,0.918c0.146,1.149,0.434,2.613,0.832,4.431c-0.154,0.886-0.146,2.252-0.007,4.136
				c-0.549,2.237-1.513,4.361-2.923,6.375c-0.425,1.121-1.572,1.801-3.475,2.043c-0.493,0.063-0.816,0.138-0.902,0.249
				c-3.281,0.418-5.577-0.59-6.917-2.988c-1.254-1.207-2.168-2.624-2.669-4.195c-0.737-0.805-1.157-1.753-1.287-2.771l-0.117-0.918
				c-0.213-1.674,0.569-2.607,2.308-2.829c-0.021-0.163,0.267-0.268,0.887-0.379c1.968-0.251,3.725,1.227,5.229,4.401
				c0.871,2.124,1.598,3.365,2.209,3.722l0.131-0.017c0.07-1.544,0.066-2.877,0.023-4.006c-0.648-3.252-1.425-5.688-2.267-7.314
				l-0.2-1.575c-0.529-0.231-1.186-1.449-1.93-3.622c-1.396-1.789-2.293-3.344-2.719-4.589c-2.926-3.596-4.751-6.665-5.438-9.179
				c-0.852-2.492-1.299-3.902-1.34-4.231l-0.185-1.443c-0.024-0.197-0.013-0.366,0.064-0.542c-0.087-0.156-0.268-0.8-0.513-1.936
				c0.294-2.139,1.095-3.707,2.336-4.699c1.919-1.945,4.111-3.06,6.639-3.382C80.438,6.108,83.918,8.3,87.103,13.13z"/>
		</g>
	</g>
	<g>
		<g>
			<path fill="#FFFFFF" d="M20.919,124.951c-7.588,0-9.164-8.646-9.719-12.772c-0.15-0.5-0.267-1.05-0.345-1.656
				c-0.007-0.051-0.013-0.104-0.019-0.154c-0.438-4.219-0.709-7.363-0.826-9.598c-0.408-3.172-0.906-6.418-1.522-9.914
				c-0.019-0.104-0.034-0.207-0.047-0.311c-0.045-0.355-0.149-1.18-0.253-6.186l-0.174-1.359c-0.032-0.246-0.053-0.488-0.065-0.729
				c-0.043-0.192-0.077-0.389-0.102-0.586c-0.682-5.347-1.806-14.158,5.028-15.713c1.42-0.48,2.561-0.769,3.561-0.896
				c0.463-0.059,0.927-0.088,1.388-0.088c3.312,0,6.516,1.421,9.716,4.324c0.398-0.717,0.772-1.186,1.186-1.627
				c2.096-2.238,5.169-3.633,9.131-4.138l0.521-0.067c0.337-0.043,0.662-0.063,0.977-0.063c3.268,0,6.843,2.186,7.562,7.061
				c0.047,0.209,0.208,0.893,0.697,2.75c0.072,0.273,0.126,0.553,0.162,0.832c0.092,0.72,0.132,1.568,0.13,2.828l2.544,12.038
				c0.037,0.173,0.066,0.349,0.088,0.524l0.251,1.97c0.027,0.216,0.05,0.437,0.067,0.66c0.181,0.427,0.342,0.868,0.484,1.321
				c0.313,1.003,0.379,2.063,0.193,3.098c-0.074,0.415-0.103,0.684-0.113,0.826c0.967,3.431,1.572,6.154,1.848,8.316
				c0.432,3.392,0.694,5.926,0.8,7.748c0.249,4.264-0.885,6.651-2.463,7.957c-1.645,1.729-3.522,2.737-5.598,3.002
				c-0.494,0.063-0.994,0.097-1.487,0.097c-2.474,0-6.161-0.81-9.68-4.669c-0.167-0.182-0.322-0.372-0.465-0.57
				c-1.263,2.126-3.886,4.223-9.139,5.243c-0.139,0.026-0.278,0.049-0.418,0.065l-2.888,0.368
				C21.591,124.931,21.252,124.951,20.919,124.951z"/>
			<path fill="#FFFFFF" d="M55.722,122.79c-2.461,0-4.536-0.426-6.343-1.303c-1.542-0.747-2.728-2.071-3.302-3.688
				c-1.673-4.712-2.82-9.445-3.411-14.07c-0.153-1.203-0.268-2.635-0.356-4.453c-0.245-0.801-0.569-2.03-0.958-3.914
				c-0.074-0.357-0.118-0.723-0.13-1.088l-0.074-2.111c-0.21-0.923-0.42-2.184-0.74-4.102c-0.042-0.248-0.068-0.5-0.081-0.752
				l-0.348-7.064c-0.188-0.567-0.311-1.104-0.379-1.637l-0.062-0.482c-0.039-0.307-0.067-0.607-0.083-0.902
				c-0.273-0.746-0.41-1.539-0.397-2.345c0.006-0.413-0.021-0.696-0.038-0.83l-0.331-2.594c-0.325-2.548,0.449-6.188,5.981-9.068
				c0.684-0.355,1.424-0.588,2.189-0.686c0.04-0.005,0.079-0.01,0.116-0.015c0.599-0.204,1.23-0.321,1.875-0.344
				c0.875-0.03,1.653-0.045,2.336-0.045c0.77,0,1.443,0.018,2.042,0.054c0.49-0.125,1.005-0.223,1.544-0.292
				c0.221-0.028,0.443-0.045,0.666-0.051c2.236-0.057,4.228-0.155,6.088-0.301c0.169-0.013,0.339-0.02,0.508-0.02
				c0.8,0,1.594,0.146,2.343,0.435c3.604,1.387,5.922,4.162,6.362,7.615c0.126,0.992,0.023,1.998-0.302,2.943
				c-0.572,1.664-1.789,4.047-4.336,5.928c0.629,0.377,1.188,0.838,1.651,1.406c1.295,1.32,2.11,2.971,2.338,4.785
				c0.109,0.866,0.043,1.745-0.193,2.585c-0.892,3.167-3.124,5.507-6.152,6.56c0.058,0.611,0.107,1.455,0.17,2.793
				c0.487,0.886,0.763,1.875,0.802,2.892l0.047,1.207l0.118,0.931c0.145,1.133,0.281,2.01,0.401,2.683
				c0.492-0.048,0.958-0.07,1.413-0.07c5.31,0,8.128,3.448,8.565,6.865c0.096,0.748,0.061,1.508-0.103,2.243
				c-0.843,3.793-3.888,8.521-13.574,9.65C59.383,122.576,57.463,122.79,55.722,122.79z"/>
		</g>
		<g>
			<path fill="#FFFFFF" d="M25.519,76.634c1.108,1.626,2.386,4.064,3.875,7.377l0.131-0.017c1.99-7.156,3.285-11.123,3.961-11.845
				c1.027-1.098,2.769-1.818,5.197-2.129l0.525-0.066c0.688-0.088,1.121,0.424,1.268,1.572c0.033,0.263,0.311,1.395,0.828,3.363
				c0.071,0.558,0.087,1.457,0.072,2.657l2.689,12.729l0.251,1.97c0.046,0.36,0.075,0.856,0.054,1.46
				c0.332,0.525,0.571,1.096,0.741,1.641c-0.215,1.195-0.265,2.102-0.189,2.691l0.066,0.525c0.96,3.347,1.561,5.971,1.808,7.905
				c0.824,6.466,1.007,9.742,0.581,9.798c-0.772,1-1.507,1.524-2.195,1.612c-1.937,0.247-3.776-0.585-5.521-2.497l-0.603-4.726
				c-0.071-0.558-0.114-1.152-0.087-1.724l-0.729-3.643c0.011-0.701-0.045-1.395-0.137-2.116l-1.378-6.628l-0.071-2.658L36.64,93.76
				l-0.132,0.017c-0.226,3.73-0.606,5.979-1.133,6.813c-0.503,0.497-1.151,0.913-1.967,1.318c-2.888,0.366-4.378,0.19-4.466-0.499
				c-0.457-0.708-1.076-2.432-1.85-5.1l-0.132,0.017l0.033,0.263c0.291,1.496,0.438,2.379,0.467,2.608
				c0.301,2.362,0.493,5.706,0.614,10.06c0.396,1.018,0.624,1.756,0.678,2.182c0.042,0.328,0.044,1.396,0.008,3.201l0.165,0.245
				c0.18,1.41-1.451,2.486-4.933,3.162l-2.888,0.368c-1.674,0.214-2.842-2.405-3.532-7.82c-0.098,0.014-0.167-0.277-0.247-0.902
				c-0.441-4.244-0.711-7.411-0.812-9.5c-0.455-3.576-0.997-7.043-1.601-10.469c-0.063-0.492-0.142-2.416-0.21-5.843l-0.218-1.706
				c-0.038-0.295-0.029-0.496,0.048-0.673l-0.215-0.64c-0.716-5.611-0.643-8.454,0.242-8.567c1.181-0.418,2.083-0.666,2.706-0.746
				C19.663,71.244,22.412,72.928,25.519,76.634z M26.763,95.817l0.051,0.394l0.131-0.017L26.894,95.8L26.763,95.817z"/>
			<path fill="#FFFFFF" d="M53.997,68.004c0.34-0.211,0.885-0.38,1.606-0.473c2.293-0.06,4.415-0.161,6.43-0.318
				c1.368,0.526,2.099,1.3,2.232,2.351c-0.851,2.476-3.002,3.916-6.414,4.352l-1.543,0.197l-0.606,0.211l-0.017-0.133l-0.246,0.166
				c-0.177-0.078-0.345-0.09-0.509-0.069c-0.178,0.69-0.23,1.331-0.16,1.889l0.034,0.263c0.083,0.658,0.225,1.506,0.462,2.576
				l-0.402,1.818c0.286,1.197,0.529,1.801,0.727,1.775c0.196-0.025,0.816-0.139,1.887-0.375c3.409,0.332,5.122,0.682,5.16,0.978
				c0.583,0.392,0.908,0.851,0.979,1.408c-0.39,1.384-1.356,2.175-2.932,2.376c-0.263,0.033-1.487,0.622-3.68,1.734l-0.492,0.063
				l0.16,0.213c0.029,0.229,0.013,0.365-0.085,0.378c0.224,0.973,0.344,1.656,0.398,2.083l0.238,1.871
				c0.071,0.558,0.136,1.851,0.227,3.872c0.183,0.645,0.422,1.214,0.746,1.672l0.058,1.493l0.154,1.214
				c0.394,3.085,0.829,5.197,1.313,6.37c0.01,0.865,0.06,1.526,0.123,2.019l0.029,0.229c0.063,0.492,0.392,0.717,0.982,0.642
				c1.542-0.195,3.104-0.494,4.692-0.863c2.034-0.26,3.114,0.104,3.24,1.088c-0.572,2.574-3.313,4.091-8.217,4.613
				c-3.835,0.791-6.604,0.775-8.347-0.068c-1.507-4.243-2.547-8.479-3.087-12.713c-0.167-1.313-0.273-2.934-0.352-4.857
				c-0.239-0.57-0.608-1.891-1.044-4.002l-0.102-2.889c-0.123-0.186-0.367-1.588-0.798-4.168l-0.4-8.118
				c-0.23-0.505-0.342-0.856-0.371-1.087l-0.063-0.492c-0.05-0.393-0.067-0.791-0.023-1.23c-0.17-0.545-0.285-0.932-0.404-1.082
				c0.011-0.701-0.031-1.297-0.09-1.756l-0.331-2.594c-0.088-0.688,0.739-1.527,2.521-2.455c0.951-0.121,1.407-0.212,1.395-0.311
				C51.6,67.774,53.24,67.833,53.997,68.004z"/>
		</g>
	</g>
	<g>
		<g>
			<path fill="#FFFFFF" d="M105.926,120.427c-0.104,0-0.209-0.002-0.313-0.008c-1.192-0.057-2.329-0.438-3.297-1.082
				c-0.42-0.042-0.846-0.105-1.287-0.193c-0.086-0.004-0.174-0.007-0.26-0.011c-0.926-0.036-2.475-0.101-4.222-0.868
				c-0.123-0.055-0.278-0.123-0.458-0.209c-0.128,0.006-0.26,0.008-0.396,0.008c-0.233,0-0.467-0.008-0.7-0.025
				c-1.117-0.074-3.657-0.549-5.505-3.087c-1.008-0.359-1.957-0.943-2.744-1.744c-0.387-0.246-0.752-0.529-1.092-0.849
				c-0.514-0.479-0.891-0.963-1.155-1.352c-0.156-0.146-0.31-0.302-0.458-0.471c-0.273-0.227-0.528-0.477-0.764-0.746
				c-0.197-0.12-0.612-0.322-0.926-0.475c-0.443-0.215-0.973-0.474-1.539-0.791c-0.109-0.014-0.271-0.03-0.506-0.053
				c-4.066-0.397-6.138-3.146-6.737-5.584c-0.893-3.599,0.632-7.236,3.659-8.949c0.045-0.062,0.373-0.508,0.494-0.67
				c1.418-1.877,3.211-2.979,5.325-3.274c0.349-0.122,0.833-0.285,1.429-0.411c0.889-0.583,1.721-0.915,2.28-1.125
				c0.692-0.829,1.577-1.533,2.612-2.063c0.476-0.25,1.063-0.609,1.682-0.99c1.182-0.728,2.521-1.551,4.131-2.225
				c2.865-1.203,5.771-1.867,8.635-1.976c0.254-0.011,0.41-0.06,0.564-0.132c1.484-0.688,2.531-1.355,3.296-2.102
				c0.714-0.699,1.437-1.47,2.201-2.283c0.435-0.463,0.869-0.926,1.31-1.385c0.539-0.56,1.102-1.064,1.676-1.504
				c0.156-0.122,0.313-0.232,0.466-0.331c2.118-2.188,4.674-3.077,6.147-3.591c0.207-0.072,0.336-0.123,0.414-0.154
				c1.564-1.156,3.122-1.523,4.018-1.723c1.006-0.55,2.101-0.828,3.236-0.828c0.092,0,0.182,0.001,0.271,0.005
				c0.516-0.116,1.023-0.173,1.536-0.173c0.187,0,0.368,0.008,0.545,0.021c0.06-0.022,0.12-0.045,0.181-0.066
				c1.202-0.836,2.674-1.296,4.227-1.296c1.086,0,2.137,0.235,3.084,0.687c0.783,0.121,1.551,0.385,2.26,0.793l0.125,0.063
				c0.328,0.166,0.847,0.429,1.431,0.844c0.093-0.004,0.187-0.006,0.28-0.006c0.65,0,1.302,0.086,1.936,0.256
				c2.967,0.797,4.979,3.557,4.825,6.625c-0.042,0.835-0.22,1.82-0.688,2.819c0.527,2.639-0.463,4.541-1.154,5.485
				c-0.063,0.086-0.137,0.184-0.225,0.289c0.047,0.395,0.072,0.799,0.076,1.213v0.123c0.004,0.345,0.01,0.846-0.062,1.438
				c0.296,1.663,0.049,3.396-0.698,4.877c0.021,0.41,0.006,0.822-0.046,1.23c0.104,0.953,0.007,1.935-0.298,2.89
				c-0.408,1.276-1.158,2.375-2.163,3.188c-0.146,0.483-0.297,0.936-0.437,1.351l-0.151,0.458c-0.351,1.066-0.957,1.992-1.735,2.723
				c-0.207,0.358-0.459,0.725-0.768,1.084c-0.123,0.281-0.262,0.545-0.409,0.788c-0.704,1.183-1.638,1.907-2.339,2.334
				c-0.072,0.071-0.68,0.679-0.68,0.679c-0.319,0.313-0.666,0.588-1.035,0.825c-0.262,0.291-0.545,0.56-0.842,0.8
				c-0.34,0.621-0.815,1.316-1.496,1.978c-0.827,0.804-1.836,1.358-2.918,1.638c-0.117,0.114-0.237,0.223-0.357,0.323
				c-0.744,0.617-1.592,1.065-2.49,1.331c-0.816,0.63-1.742,1.049-2.682,1.27c-0.516,0.281-0.967,0.465-1.27,0.586
				c-1.05,1.213-2.242,1.834-3.274,2.146c-1.154,0.843-2.569,1.326-4.065,1.326c-0.81,0-1.605-0.141-2.369-0.418
				c-0.048-0.016-0.102-0.032-0.16-0.053c-1.053,0.431-2,0.504-2.529,0.504c-0.105,0-0.213-0.002-0.319-0.008
				c-0.583,0.17-1.198,0.26-1.831,0.26c-0.404,0-0.803-0.036-1.191-0.106C106.808,120.382,106.369,120.427,105.926,120.427z"/>
			<path fill="#FFFFFF" d="M68.452,106.265c-3.101,0-5.903-1.504-7.496-4.021c-1.595-2.521-1.753-5.703-0.422-8.51
				c0.722-1.515,1.791-3.449,3.723-5.099c0.188-0.161,0.529-0.546,0.86-0.918l0.449-0.501c0.146-0.16,0.204-0.281,0.234-0.355
				c0.186-0.471,0.381-0.952,0.577-1.436c0.392-0.967,0.785-1.934,1.139-2.913c0.063-0.174,0.095-0.274,0.111-0.331
				c0.075-1.234,0.271-2.723,0.95-4.24c0.062-0.578,0.178-1.127,0.348-1.646c0.204-1.179,0.606-2.096,0.896-2.719
				c0.275-1.284,0.801-2.238,1.153-2.805c0.33-0.838,0.827-1.59,1.448-2.215c0.103-0.119,0.207-0.238,0.31-0.356
				c0.27-0.312,0.64-0.734,0.734-0.896c1.305-2.396,3.333-3.567,4.424-4.196l0.258-0.149c2.742-1.624,5.414-2.669,8.179-3.201
				c0.64-0.125,1.321-0.19,2.006-0.19c0.991,0,1.856,0.133,2.58,0.281c0.164-0.381,0.371-0.793,0.633-1.214
				c0.349-1.182,0.994-2.33,1.935-3.431l0.082-0.099c0.39-0.48,0.799-0.863,1.182-1.165c1.01-1.344,2.506-2.272,4.222-2.554
				c1.091-0.791,2.517-1.742,4.375-2.345c3.517-1.144,6.739-1.699,9.849-1.699c0.498,0,0.998,0.014,1.498,0.043
				c2.088,0.123,4.008,0.551,5.701,0.928l0.332,0.073c1.557,0.349,3.018,0.621,4.479,0.836c1.934,0.282,3.63,0.926,4.993,1.442
				c0.291,0.111,0.582,0.222,0.873,0.327c0.815,0.292,1.584,0.622,2.277,0.927c0.258,0.032,0.494,0.073,0.704,0.116
				c0.101-0.005,0.2-0.007,0.298-0.007c0.813,0,2.502,0.168,4.079,1.383c0.19-0.017,0.382-0.024,0.575-0.024
				c0.313,0,0.611,0.021,0.895,0.059c0.344-0.118,0.656-0.212,0.924-0.291l0.354-0.109c0.747-0.239,1.494-0.356,2.248-0.356
				c2.118,0,4.149,0.932,5.573,2.558c1.471,1.679,2.146,3.904,1.854,6.104c-0.015,0.106-0.029,0.206-0.046,0.302
				c-0.085,2.491-1.378,4.704-3.479,5.979c-0.147,0.331-0.324,0.653-0.531,0.963c-0.318,0.526-1.1,1.727-2.619,2.579
				c-0.462,0.265-0.915,0.544-1.368,0.823c-1.213,0.748-2.589,1.597-4.229,2.288c-0.945,0.387-1.871,0.571-2.815,0.579
				c-0.794,0.233-1.675,0.486-2.615,0.693c-1.168,0.254-1.91,0.545-2.488,0.979c-2.289,1.714-5.112,2.674-8.631,2.933
				c-1.898,0.14-3.719,0.183-5.25,0.207c-0.047,0.001-0.086,0.004-0.115,0.007c-2.922,2.025-6.229,3.784-10.104,5.375
				c-0.021,0.01-0.041,0.019-0.064,0.026c-0.797,1.26-1.999,2.255-3.582,2.948c0.01-0.006,0.066-0.033,0.121-0.063
				c-2.352,1.188-4.84,1.895-7.465,2.137c-0.241,0.277-0.477,0.537-0.698,0.781c-0.243,0.27-0.487,0.535-0.718,0.813
				c-1.168,1.421-2.56,2.721-4.373,4.086c-0.198,0.149-0.319,0.247-0.393,0.309c-1.396,2.65-3.859,4.425-6.68,4.882
				c-1.424,1.125-2.883,1.898-4.117,2.555c-0.432,0.229-0.865,0.455-1.286,0.701c-3.023,1.761-6.14,2.016-8.79,2.033
				C68.5,106.265,68.466,106.265,68.452,106.265z"/>
			<path fill="#FFFFFF" d="M131.458,109.837c-1.184,0-2.371-0.32-3.428-0.975c-2.459-1.521-3.625-4.478-2.865-7.268
				c0.027-0.101,0.064-0.226,0.1-0.332c0.307-0.957,0.828-1.828,1.526-2.551c0.166-0.171,0.349-0.342,0.53-0.493
				c1.185-0.987,2.666-1.511,4.176-1.511c0.533,0,1.07,0.064,1.6,0.199c1.838,0.465,3.375,1.703,4.223,3.381
				c1.186,2.314,0.889,5.146-0.817,7.173c-0.198,0.235-0.462,0.508-0.69,0.713C134.582,109.272,133.024,109.837,131.458,109.837z"/>
			<path fill="#FFFFFF" d="M131.406,110.021c-0.322,0-0.648-0.024-0.976-0.073c-2.9-0.438-5.129-2.746-5.5-5.612
				c-0.164-1.209,0.006-2.491,0.5-3.604c0.112-0.254,0.241-0.5,0.387-0.738c0.338-0.559,0.807-1.113,1.298-1.549
				c1.226-1.094,2.78-1.655,4.345-1.655c1.188,0,2.379,0.321,3.439,0.981c2.485,1.543,3.641,4.552,2.826,7.36
				c-0.059,0.199-0.119,0.392-0.187,0.577C136.597,108.324,134.119,110.021,131.406,110.021z"/>
		</g>
		<g>
			<path fill="#FFFFFF" d="M140.381,74.917c-0.366,0.484-0.608,0.448-1.192,0.215c-0.694-0.275-1.301-0.634-1.633-1.195
				c-0.373-0.625-0.949-0.783-1.563-1.136c-0.037,0.722-0.071,1.404-0.107,2.089c-0.381-0.011-0.586-0.238-0.713-0.566l0.014-0.022
				c0.332-0.983-0.246-1.552-0.959-2.03c-0.273-0.184-0.951-0.016-0.918,0.193c0.035,0.23,0.297,0.419,0.449,0.631
				c0.034,0.051,0.045,0.125,0.078,0.24c-0.354,0.186-0.719,0.375-1.082,0.566c-0.109-0.077-0.215-0.157-0.316-0.244
				c-0.073-0.27-0.19-0.604-0.477-0.566c-0.441,0.057-0.402,0.454-0.354,0.805c-0.616,0-1.238,0.066-1.838-0.024
				c-0.312-0.048-0.597-0.431-0.959-0.315c-0.5,0.16-0.111,0.606-0.22,0.905c-0.122,0.33-0.366,0.199-0.502,0.101
				c-0.215-0.16-0.373-0.398-0.554-0.609c-0.146-0.168-0.355-0.336-0.539-0.201c-0.977,0.732-2.303,0.486-3.29,1.268
				c-0.593,0.472-1.356,0.769-2.088,1.025c-1.55,0.54-3.056,1.116-4.07,2.523c-0.147,0.203-0.506,0.248-0.728,0.42
				c-0.331,0.254-0.643,0.539-0.934,0.842c-1.223,1.271-2.402,2.586-3.66,3.818c-1.479,1.44-3.235,2.481-5.104,3.348
				c-0.973,0.451-1.98,0.691-3.066,0.732c-2.205,0.084-4.31,0.612-6.356,1.473c-1.911,0.802-3.548,2.057-5.364,3.007
				c-0.298,0.151-0.677,0.44-0.732,0.722c-0.158,0.797-0.838,0.785-1.344,1.104c-0.882,0.555-2.015,0.604-2.744,1.479
				c-0.231,0.277-0.779,0.416-1.179,0.404c-0.815-0.018-1.481,0.482-2.262,0.529c-0.552,0.035-0.843,0.35-1.164,0.775
				c-0.675,0.887-1.263,1.867-2.377,2.35c-0.615,0.268-0.816,1.021-0.634,1.763c0.125,0.505,0.607,0.606,0.986,0.644
				c0.996,0.09,2.021,0.217,2.853,0.711c1.565,0.929,3.215,1.358,4.433,2.78c0.085,0.236,0.262-0.125,0.501-0.125h0.002
				c0.128,1,0.322,1.011,0.705,1.06c0.002,0,0.002,0.205,0.005,0.207c0.315,0.293,0.4,0.691,0.721,0.984
				c0.429,0.409,1.051,0.206,1.051,0.111v0.007c0,1.354,0.808,1.404,2.074,0.659c0.063-0.037,0.246-0.063,0.312-0.094
				c0.067,0.094,0.203,0.178,0.286,0.253c-0.213,0.764,0.333,1.274,0.581,1.907c0.231,0.59,0.478,1.056,1.079,1.096
				c0.576,0.044,1.17-0.114,1.752-0.199c0.021,0,0.007-0.145,0.039-0.195c0.289-0.445,0.336-0.459,0.436-0.188
				c0.252,0.719,0.747,1.027,1.457,1.342c1.016,0.446,2.045,0.229,3.04,0.436c0.961,0.201,1.888,0.226,2.777-0.172
				c0.317,0.461,0.592,0.852,0.938,1.349c0.317-0.375,0.612-0.796,1.137-0.857c0.58-0.065,0.895,0.302,1.191,0.708
				c0.124,0.17,0.252,0.163,0.284-0.02c0.024-0.125-0.015-0.27-0.046-0.396c-0.035-0.137-0.096-0.264-0.145-0.396
				c0.428-0.205,0.846-0.444,1.289-0.618c0.473-0.181,0.75,0.03,0.779,0.573c0.01,0.201-0.143,0.488-0.051,0.594
				c0.289,0.342,0.404-0.063,0.572-0.213c0.444-0.397,1.107,0.109,1.537-0.364c0.805-0.354,1.578-0.651,2.246,0.283
				c0.141,0.198,0.489,0.261,0.75,0.36c0.241,0.098,0.434-0.033,0.518-0.231c0.107-0.245,0.266-0.578,0.18-0.767
				c-0.092-0.203-0.451-0.279-0.693-0.412c0.104-0.063,0.203-0.127,0.303-0.201c0.949-0.398,0.949-0.398,0.896-1.262
				c0.188,0.035,0.375,0.071,0.564,0.111c0.024,0.137,0.043,0.271,0.075,0.403c0.111,0.461-0.604,1.2,0.275,1.358
				c0.582,0.102,0.684-0.722,1.029-1.099c0.129-0.139-0.018-0.519-0.008-0.785c0.01-0.315,0.271-0.426,0.494-0.562
				c0.129,0.605,0.457,0.945,0.822,0.746c0.584-0.315,1.297-0.424,1.729-0.971c0.191-0.238,0.301-0.383,0.643-0.254
				c0.896,0.332,0.844-0.451,0.918-0.988c0.125-0.074,0.252-0.308,0.381-0.308h-0.002c0.262,0,0.521-0.106,0.781-0.205
				c0.249,0.22,0.559,0.563,0.846,0.322c0.242-0.203,0.168-0.488,0.029-0.795c-0.077-0.174-0.248-0.322-0.381-0.322h-0.02
				c0.194-1,0.268-0.436,0.215-0.668c0.002-0.002,0.002-0.06,0.004-0.063c0.078-0.176,0.16-0.379,0.24-0.559
				c1.092-0.259,1.934,0.553,2.836,0.766c0.707-0.688,0.568-1.967,1.422-2.131c1.404-0.277,0.303-1.461,0.912-1.943
				c0.053-0.041,0.08-0.118,0.129-0.169c0.271-0.271,0.469-0.167,0.619,0.129c0.092,0.176,0.18,0.354,0.268,0.532
				c0.449-0.439,0.881-0.893,1.345-1.313c0.198-0.173,0.548-0.227,0.669-0.432c0.238-0.393-0.256-0.594-0.365-0.907
				c-0.174-0.5,0.029-1.003,0.61-1.424c0.048-0.036,0.265,0.048,0.294,0.116c0.104,0.244,0.053,0.584,0.436,0.627
				c0.541-0.473,0.064-1.745,1.313-1.651c0.24-0.731,0.499-1.458,0.693-2.2c0.028-0.111-0.218-0.346-0.38-0.443
				c-0.221-0.133-0.366,0.023-0.438,0.246c-0.084,0.271-0.181,0.616-0.545,0.351c-0.251-0.181-0.198-0.54-0.032-0.767
				c0.163-0.217,0.432-0.351,0.653-0.522c0.12-0.005,0.239-0.043,0.353-0.093c0.121,0.06,0.237,0.139,0.364,0.177
				c0.183,0.051,0.408,0.117,0.486-0.136c0.032-0.109-0.12-0.29-0.202-0.372c-0.133-0.142-0.593-0.228-0.593-0.333v0.002
				l0.099-0.002c-0.133-0.24-0.014-0.479-0.146-0.719c-0.039-0.14,0.049-0.276,0.049-0.418c0,0,0-0.004,0-0.006v-0.015
				c0,0.001,0,0.003,0,0.003s-0.332,0.337-0.336,0.337h0.006c0.67,0,1.059,0.359,1.627,0.744c-0.059-0.455-0.096-0.878-0.145-1.272
				c0.273,0.231,0.5,0.412,0.756,0.59c0.104,0.068,0.293,0.066,0.397,0.016c0.07-0.036,0.121-0.275,0.078-0.359
				c-0.131-0.238-0.326-0.451-0.481-0.677c-0.129-0.182-0.205-0.377,0.098-0.473c0.422-0.136,0.55-0.341,0.271-0.755
				c-0.275-0.404-0.486-0.854-0.723-1.285c0.08-0.26,0.223-0.338,0.439-0.145c0.105,0.09,0.224,0.299,0.283,0.281
				c0.362-0.113,0.043-0.311,0.019-0.454c-0.054-0.27-0.156-0.53-0.24-0.795c0.071-0.183,0.146-0.356,0.215-0.538l0.017-0.006
				c0.254,0.059,0.664,0.245,0.744,0.148c0.395-0.449,0.184-1.533-0.275-1.492c-0.742,0.068-0.708-0.508-1.001-0.809
				c0.051-0.197,0.104-0.394,0.157-0.591c0.066,0.017,0.136,0.027,0.201,0.05c1.121,0.4,1.071,0.401,1.062-0.726
				c-0.007-0.724-0.136-1.362-0.563-1.937c-0.08-0.252-0.166-0.506-0.244-0.758c0.398-0.625-0.024-1.139-0.227-1.686
				c0.395-0.632,1.111-0.966,1.699-0.928c0.746,0.051,0.922-0.01,0.695-0.721c-0.269-0.857-0.431-1.752-0.949-2.466
				c0.412-0.76,1.539-0.715,1.588-1.698C140.949,74.503,140.594,74.642,140.381,74.917z M124.635,106.707
				C124.635,106.708,124.635,106.708,124.635,106.707L124.635,106.707v0.002l-0.002-0.001L124.635,106.707
				C124.635,106.708,124.635,106.708,124.635,106.707z M98.7,110.108l0.06,0.017l0,0L98.7,110.108L98.7,110.108z M98.981,106.74
				c0.193-0.043,0.391-0.099,0.59-0.164c-0.053,0.069-0.127,0.137-0.178,0.207c-0.141-0.011-0.314,0.03-0.406-0.037
				C98.985,106.744,98.983,106.742,98.981,106.74z M124.653,106.722c0.002-0.003,0.005-0.003,0.009-0.004
				c-0.002-0.002-0.002-0.003-0.004-0.005c0.004,0.001,0.006,0.001,0.007,0.002c-0.001,0.001-0.003,0.002-0.003,0.002
				c0,0.005,0.003,0.009,0.005,0.013C124.662,106.728,124.658,106.724,124.653,106.722z"/>
			<path fill="#FFFFFF" d="M143.192,59.246c-0.885,0.288-1.84,0.473-2.577,1.128c-0.134,0.01-0.267,0.021-0.402,0.033
				c-0.187-0.063-0.371-0.121-0.562-0.181c-0.286-0.166-0.66-0.508-0.895-0.185c-0.252,0.344-0.389,0.543-0.775,0.261
				c-0.229-0.164-0.438-0.385-0.752-0.292c-1.133,0.325-1.852-0.323-2.517-1.071c-0.138-0.155-0.222-0.465-0.446-0.373
				c-0.799,0.313-1.516-0.392-2.291-0.128c-1.041-0.442-2.063-0.933-3.127-1.313c-1.514-0.547-3.025-1.221-4.6-1.45
				c-1.664-0.245-3.303-0.555-4.939-0.921c-1.651-0.366-3.324-0.759-5.004-0.857c-3.057-0.18-6.035,0.4-8.949,1.348
				c-1.513,0.491-2.662,1.549-3.932,2.413c-0.424,0.288-0.556,1.138-1.184,0.25c-0.09-0.126-0.307-0.113-0.318,0.021
				c-0.066,0.816-0.912,0.814-1.29,1.281c-0.435,0.537-1.002,1.033-0.833,1.855c0.026,0.134,0.029,0.371-0.035,0.403
				c-1.055,0.514-0.973,1.658-1.371,2.518c-0.41,0.886-0.61,1.869-0.899,2.81c-0.125,0.403-0.218,0.821-0.386,1.207
				c-0.141,0.328-0.356,0.59-0.809,0.503c-0.416-0.072-0.842-0.099-1.26-0.086c-0.586,0.014-0.816-0.175-0.934-0.811
				c-0.097-0.527-0.65-0.959-1.215-1.076c-1.093-0.232-2.154-0.6-3.332-0.369c-2.188,0.421-4.197,1.289-6.078,2.402
				c-0.815,0.484-1.795,0.955-2.281,1.851c-0.564,1.042-1.395,1.856-2.133,2.752c-0.002-0.003-0.006-0.007-0.01-0.01l-0.017,0.04
				c0.002,0,0.003-0.042,0.005-0.042c-0.15,0.801-0.9,1.186-0.885,2.186c0.002,0,0.002,0,0.004,0c-0.362,1-0.917,1.67-0.839,2.65
				c0,0.002-0.002,0.022-0.002,0.024c-0.579,0.572-0.012,1.412-0.462,2.022c-0.571,0.776-0.68,1.717-0.729,2.632
				c-0.039,0.729-0.245,1.401-0.482,2.059c-0.553,1.53-1.191,3.033-1.791,4.547c-0.346,0.867-0.843,1.641-1.465,2.328
				c-0.619,0.682-1.211,1.396-1.904,1.996c-0.951,0.812-1.545,1.844-2.063,2.93c-0.779,1.644,0.207,3.221,2.041,3.21
				c1.914-0.013,3.83-0.146,5.548-1.146c1.889-1.101,3.957-1.92,5.52-3.526c0.364-0.373,0.767-0.605,1.321-0.526
				c1.305,0.185,2.302-0.569,2.783-1.543c0.531-1.088,1.317-1.749,2.211-2.423c1.188-0.895,2.311-1.866,3.264-3.024
				c0.719-0.872,1.539-1.666,2.212-2.573c0.608-0.817,1.396-1.162,2.346-1.273c0.421-0.051,0.849-0.055,1.269-0.094
				c1.783-0.161,3.482-0.625,5.082-1.432c0.373-0.193,0.855-0.303,1.015-0.721c0.547-1.412,1.784-1.923,3.041-2.438
				c3.149-1.293,6.173-2.82,8.978-4.78c1.055-0.738,2.295-1.066,3.612-1.089c1.625-0.026,3.255-0.072,4.876-0.19
				c1.855-0.137,3.704-0.528,5.2-1.647c1.522-1.142,3.194-1.736,5.007-2.131c1.173-0.257,2.318-0.635,3.477-0.961
				c0.267,0.129,0.539,0.162,0.812,0.051c1.753-0.738,3.29-1.854,4.933-2.785c0.168-0.09,0.25-0.324,0.393-0.514
				c-0.44-0.438-1.297-0.255-1.492-1.017c0.089-0.104,0.203-0.188,0.331-0.252c0.146-0.071,0.293-0.144,0.438-0.216
				c0.099-0.045,0.195-0.094,0.295-0.139c0.955-0.413,1.916-0.821,2.873-1.231c0.359-0.155,0.498-0.422,0.469-0.822
				c-0.02-0.266,0.064-0.536,0.103-0.806C144.478,59.769,143.842,59.038,143.192,59.246z"/>
			<path fill="#FFFFFF" d="M131.459,103.313c0.019-0.018,0.035-0.033,0.051-0.053c-0.006-0.009-0.01-0.018-0.014-0.027
				c-0.006,0.006-0.013,0.013-0.019,0.019C131.474,103.271,131.465,103.291,131.459,103.313z"/>
			<path fill="#FFFFFF" d="M131.401,103.494c0.021-0.06,0.039-0.121,0.058-0.183c-0.022,0.021-0.049,0.041-0.065,0.067
				C131.382,103.406,131.399,103.453,131.401,103.494z"/>
		</g>
		<g>
			<path fill="#EF6159" d="M140.381,74.917c-0.366,0.484-0.608,0.448-1.192,0.215c-0.694-0.275-1.301-0.634-1.633-1.195
				c-0.373-0.625-0.949-0.783-1.563-1.136c-0.037,0.722-0.071,1.404-0.107,2.089c-0.381-0.011-0.586-0.238-0.713-0.566l0.014-0.022
				c0.332-0.983-0.246-1.552-0.959-2.03c-0.273-0.184-0.951-0.016-0.918,0.193c0.035,0.23,0.297,0.419,0.449,0.631
				c0.034,0.051,0.045,0.125,0.078,0.24c-0.354,0.186-0.719,0.375-1.082,0.566c-0.109-0.077-0.215-0.157-0.316-0.244
				c-0.073-0.27-0.19-0.604-0.477-0.566c-0.441,0.057-0.402,0.454-0.354,0.805c-0.616,0-1.238,0.066-1.838-0.024
				c-0.312-0.048-0.597-0.431-0.959-0.315c-0.5,0.16-0.111,0.606-0.22,0.905c-0.122,0.33-0.366,0.199-0.502,0.101
				c-0.215-0.16-0.373-0.398-0.554-0.609c-0.146-0.168-0.355-0.336-0.539-0.201c-0.977,0.732-2.303,0.486-3.29,1.268
				c-0.593,0.472-1.356,0.769-2.088,1.025c-1.55,0.54-3.056,1.116-4.07,2.523c-0.147,0.203-0.506,0.248-0.728,0.42
				c-0.331,0.254-0.643,0.539-0.934,0.842c-1.223,1.271-2.402,2.586-3.66,3.818c-1.479,1.44-3.235,2.481-5.104,3.348
				c-0.973,0.451-1.98,0.691-3.066,0.732c-2.205,0.084-4.31,0.612-6.356,1.473c-1.911,0.802-3.548,2.057-5.364,3.007
				c-0.298,0.151-0.677,0.44-0.732,0.722c-0.158,0.797-0.838,0.785-1.344,1.104c-0.882,0.555-2.015,0.604-2.744,1.479
				c-0.231,0.277-0.779,0.416-1.179,0.404c-0.815-0.018-1.481,0.482-2.262,0.529c-0.552,0.035-0.843,0.35-1.164,0.775
				c-0.675,0.887-1.263,1.867-2.377,2.35c-0.615,0.268-0.816,1.021-0.634,1.763c0.125,0.505,0.607,0.606,0.986,0.644
				c0.996,0.09,2.021,0.217,2.853,0.711c1.565,0.929,3.215,1.358,4.433,2.78c0.085,0.236,0.262-0.125,0.501-0.125h0.002
				c0.128,1,0.322,1.011,0.705,1.06c0.002,0,0.002,0.205,0.005,0.207c0.315,0.293,0.4,0.691,0.721,0.984
				c0.429,0.409,1.051,0.206,1.051,0.111v0.007c0,1.354,0.808,1.404,2.074,0.659c0.063-0.037,0.246-0.063,0.312-0.094
				c0.067,0.094,0.203,0.178,0.286,0.253c-0.213,0.764,0.333,1.274,0.581,1.907c0.231,0.59,0.478,1.056,1.079,1.096
				c0.576,0.044,1.17-0.114,1.752-0.199c0.021,0,0.007-0.145,0.039-0.195c0.289-0.445,0.336-0.459,0.436-0.188
				c0.252,0.719,0.747,1.027,1.457,1.342c1.016,0.446,2.045,0.229,3.04,0.436c0.961,0.201,1.888,0.226,2.777-0.172
				c0.317,0.461,0.592,0.852,0.938,1.349c0.317-0.375,0.612-0.796,1.137-0.857c0.58-0.065,0.895,0.302,1.191,0.708
				c0.124,0.17,0.252,0.163,0.284-0.02c0.024-0.125-0.015-0.27-0.046-0.396c-0.035-0.137-0.096-0.264-0.145-0.396
				c0.428-0.205,0.846-0.444,1.289-0.618c0.473-0.181,0.75,0.03,0.779,0.573c0.01,0.201-0.143,0.488-0.051,0.594
				c0.289,0.342,0.404-0.063,0.572-0.213c0.444-0.397,1.107,0.109,1.537-0.364c0.805-0.354,1.578-0.651,2.246,0.283
				c0.141,0.198,0.489,0.261,0.75,0.36c0.241,0.098,0.434-0.033,0.518-0.231c0.107-0.245,0.266-0.578,0.18-0.767
				c-0.092-0.203-0.451-0.279-0.693-0.412c0.104-0.063,0.203-0.127,0.303-0.201c0.949-0.398,0.949-0.398,0.896-1.262
				c0.188,0.035,0.375,0.071,0.564,0.111c0.024,0.137,0.043,0.271,0.075,0.403c0.111,0.461-0.604,1.2,0.275,1.358
				c0.582,0.102,0.684-0.722,1.029-1.099c0.129-0.139-0.018-0.519-0.008-0.785c0.01-0.315,0.271-0.426,0.494-0.562
				c0.129,0.605,0.457,0.945,0.822,0.746c0.584-0.315,1.297-0.424,1.729-0.971c0.191-0.238,0.301-0.383,0.643-0.254
				c0.896,0.332,0.844-0.451,0.918-0.988c0.125-0.074,0.252-0.308,0.381-0.308h-0.002c0.262,0,0.521-0.106,0.781-0.205
				c0.249,0.22,0.559,0.563,0.846,0.322c0.242-0.203,0.168-0.488,0.029-0.795c-0.077-0.174-0.248-0.322-0.381-0.322h-0.02
				c0.194-1,0.268-0.436,0.215-0.668c0.002-0.002,0.002-0.06,0.004-0.063c0.078-0.176,0.16-0.379,0.24-0.559
				c1.092-0.259,1.934,0.553,2.836,0.766c0.707-0.688,0.568-1.967,1.422-2.131c1.404-0.277,0.303-1.461,0.912-1.943
				c0.053-0.041,0.08-0.118,0.129-0.169c0.271-0.271,0.469-0.167,0.619,0.129c0.092,0.176,0.18,0.354,0.268,0.532
				c0.449-0.439,0.881-0.893,1.345-1.313c0.198-0.173,0.548-0.227,0.669-0.432c0.238-0.393-0.256-0.594-0.365-0.907
				c-0.174-0.5,0.029-1.003,0.61-1.424c0.048-0.036,0.265,0.048,0.294,0.116c0.104,0.244,0.053,0.584,0.436,0.627
				c0.541-0.473,0.064-1.745,1.313-1.651c0.24-0.731,0.499-1.458,0.693-2.2c0.028-0.111-0.218-0.346-0.38-0.443
				c-0.221-0.133-0.366,0.023-0.438,0.246c-0.084,0.271-0.181,0.616-0.545,0.351c-0.251-0.181-0.198-0.54-0.032-0.767
				c0.163-0.217,0.432-0.351,0.653-0.522c0.12-0.005,0.239-0.043,0.353-0.093c0.121,0.06,0.237,0.139,0.364,0.177
				c0.183,0.051,0.408,0.117,0.486-0.136c0.032-0.109-0.12-0.29-0.202-0.372c-0.133-0.142-0.593-0.228-0.593-0.333v0.002
				l0.099-0.002c-0.133-0.24-0.014-0.479-0.146-0.719c-0.039-0.14,0.049-0.276,0.049-0.418c0,0,0-0.004,0-0.006v-0.015
				c0,0.001,0,0.003,0,0.003s-0.332,0.337-0.336,0.337h0.006c0.67,0,1.059,0.359,1.627,0.744c-0.059-0.455-0.096-0.878-0.145-1.272
				c0.273,0.231,0.5,0.412,0.756,0.59c0.104,0.068,0.293,0.066,0.397,0.016c0.07-0.036,0.121-0.275,0.078-0.359
				c-0.131-0.238-0.326-0.451-0.481-0.677c-0.129-0.182-0.205-0.377,0.098-0.473c0.422-0.136,0.55-0.341,0.271-0.755
				c-0.275-0.404-0.486-0.854-0.723-1.285c0.08-0.26,0.223-0.338,0.439-0.145c0.105,0.09,0.224,0.299,0.283,0.281
				c0.362-0.113,0.043-0.311,0.019-0.454c-0.054-0.27-0.156-0.53-0.24-0.795c0.071-0.183,0.146-0.356,0.215-0.538l0.017-0.006
				c0.254,0.059,0.664,0.245,0.744,0.148c0.395-0.449,0.184-1.533-0.275-1.492c-0.742,0.068-0.708-0.508-1.001-0.809
				c0.051-0.197,0.104-0.394,0.157-0.591c0.066,0.017,0.136,0.027,0.201,0.05c1.121,0.4,1.071,0.401,1.062-0.726
				c-0.007-0.724-0.136-1.362-0.563-1.937c-0.08-0.252-0.166-0.506-0.244-0.758c0.398-0.625-0.024-1.139-0.227-1.686
				c0.395-0.632,1.111-0.966,1.699-0.928c0.746,0.051,0.922-0.01,0.695-0.721c-0.269-0.857-0.431-1.752-0.949-2.466
				c0.412-0.76,1.539-0.715,1.588-1.698C140.949,74.503,140.594,74.642,140.381,74.917z M124.635,106.707
				C124.635,106.708,124.635,106.708,124.635,106.707L124.635,106.707v0.002l-0.002-0.001L124.635,106.707
				C124.635,106.708,124.635,106.708,124.635,106.707z M98.7,110.108l0.06,0.017l0,0L98.7,110.108L98.7,110.108z M98.981,106.74
				c0.193-0.043,0.391-0.099,0.59-0.164c-0.053,0.069-0.127,0.137-0.178,0.207c-0.141-0.011-0.314,0.03-0.406-0.037
				C98.985,106.744,98.983,106.742,98.981,106.74z M124.653,106.722c0.002-0.003,0.005-0.003,0.009-0.004
				c-0.002-0.002-0.002-0.003-0.004-0.005c0.004,0.001,0.006,0.001,0.007,0.002c-0.001,0.001-0.003,0.002-0.003,0.002
				c0,0.005,0.003,0.009,0.005,0.013C124.662,106.728,124.658,106.724,124.653,106.722z"/>
			<path fill="#EF6159" d="M143.192,59.246c-0.885,0.288-1.84,0.473-2.577,1.128c-0.134,0.01-0.267,0.021-0.402,0.033
				c-0.187-0.063-0.371-0.121-0.562-0.181c-0.286-0.166-0.66-0.508-0.895-0.185c-0.252,0.344-0.389,0.543-0.775,0.261
				c-0.229-0.164-0.438-0.385-0.752-0.292c-1.133,0.325-1.852-0.323-2.517-1.071c-0.138-0.155-0.222-0.465-0.446-0.373
				c-0.799,0.313-1.516-0.392-2.291-0.128c-1.041-0.442-2.063-0.933-3.127-1.313c-1.514-0.547-3.025-1.221-4.6-1.45
				c-1.664-0.245-3.303-0.555-4.939-0.921c-1.651-0.366-3.324-0.759-5.004-0.857c-3.057-0.18-6.035,0.4-8.949,1.348
				c-1.513,0.491-2.662,1.549-3.932,2.413c-0.424,0.288-0.556,1.138-1.184,0.25c-0.09-0.126-0.307-0.113-0.318,0.021
				c-0.066,0.816-0.912,0.814-1.29,1.281c-0.435,0.537-1.002,1.033-0.833,1.855c0.026,0.134,0.029,0.371-0.035,0.403
				c-1.055,0.514-0.973,1.658-1.371,2.518c-0.41,0.886-0.61,1.869-0.899,2.81c-0.125,0.403-0.218,0.821-0.386,1.207
				c-0.141,0.328-0.356,0.59-0.809,0.503c-0.416-0.072-0.842-0.099-1.26-0.086c-0.586,0.014-0.816-0.175-0.934-0.811
				c-0.097-0.527-0.65-0.959-1.215-1.076c-1.093-0.232-2.154-0.6-3.332-0.369c-2.188,0.421-4.197,1.289-6.078,2.402
				c-0.815,0.484-1.795,0.955-2.281,1.851c-0.564,1.042-1.395,1.856-2.133,2.752c-0.002-0.003-0.006-0.007-0.01-0.01l-0.017,0.04
				c0.002,0,0.003-0.042,0.005-0.042c-0.15,0.801-0.9,1.186-0.885,2.186c0.002,0,0.002,0,0.004,0c-0.362,1-0.917,1.67-0.839,2.65
				c0,0.002-0.002,0.022-0.002,0.024c-0.579,0.572-0.012,1.412-0.462,2.022c-0.571,0.776-0.68,1.717-0.729,2.632
				c-0.039,0.729-0.245,1.401-0.482,2.059c-0.553,1.53-1.191,3.033-1.791,4.547c-0.346,0.867-0.843,1.641-1.465,2.328
				c-0.619,0.682-1.211,1.396-1.904,1.996c-0.951,0.812-1.545,1.844-2.063,2.93c-0.779,1.644,0.207,3.221,2.041,3.21
				c1.914-0.013,3.83-0.146,5.548-1.146c1.889-1.101,3.957-1.92,5.52-3.526c0.364-0.373,0.767-0.605,1.321-0.526
				c1.305,0.185,2.302-0.569,2.783-1.543c0.531-1.088,1.317-1.749,2.211-2.423c1.188-0.895,2.311-1.866,3.264-3.024
				c0.719-0.872,1.539-1.666,2.212-2.573c0.608-0.817,1.396-1.162,2.346-1.273c0.421-0.051,0.849-0.055,1.269-0.094
				c1.783-0.161,3.482-0.625,5.082-1.432c0.373-0.193,0.855-0.303,1.015-0.721c0.547-1.412,1.784-1.923,3.041-2.438
				c3.149-1.293,6.173-2.82,8.978-4.78c1.055-0.738,2.295-1.066,3.612-1.089c1.625-0.026,3.255-0.072,4.876-0.19
				c1.855-0.137,3.704-0.528,5.2-1.647c1.522-1.142,3.194-1.736,5.007-2.131c1.173-0.257,2.318-0.635,3.477-0.961
				c0.267,0.129,0.539,0.162,0.812,0.051c1.753-0.738,3.29-1.854,4.933-2.785c0.168-0.09,0.25-0.324,0.393-0.514
				c-0.44-0.438-1.297-0.255-1.492-1.017c0.089-0.104,0.203-0.188,0.331-0.252c0.146-0.071,0.293-0.144,0.438-0.216
				c0.099-0.045,0.195-0.094,0.295-0.139c0.955-0.413,1.916-0.821,2.873-1.231c0.359-0.155,0.498-0.422,0.469-0.822
				c-0.02-0.266,0.064-0.536,0.103-0.806C144.478,59.769,143.842,59.038,143.192,59.246z"/>
			<path fill="#EF6159" d="M131.459,103.313c0.019-0.018,0.035-0.033,0.051-0.053c-0.006-0.009-0.01-0.018-0.014-0.027
				c-0.006,0.006-0.013,0.013-0.019,0.019C131.474,103.271,131.465,103.291,131.459,103.313z"/>
			<path fill="#EF6159" d="M131.401,103.494c0.021-0.06,0.039-0.121,0.058-0.183c-0.022,0.021-0.049,0.041-0.065,0.067
				C131.382,103.406,131.399,103.453,131.401,103.494z"/>
		</g>
	</g>
	<g>
		<path fill="#EF6159" d="M23.586,15.021c1.838-0.234,2.836,0.272,2.99,1.487c-0.564,3.939-1.146,6.447-1.705,7.553
			c0.046,0.361-0.125,0.85-0.471,1.528c0.079,0.624-0.398,2.385-1.466,5.256c-0.265,0.8-0.345,1.479-0.274,2.034
			c0.657,1.485,1.898,2.86,3.736,4.193c1.114,1.159,1.79,2.541,1.995,4.146c0.854,0.425,1.726,2.282,2.573,5.542
			c0.17,0.545,0.278,1.132,0.35,1.689l0.084,0.657c0.826,0.994,1.389,2.523,1.652,4.592c0.552,0.93,0.895,1.785,0.99,2.541
			l0.066,0.525l-0.03,0.803c0.503,1.07,0.802,2.1,0.927,3.084c0.201,1.575-1.11,2.544-3.899,2.899
			c-2.015,0.155-3.087-0.141-3.188-0.929c-0.629-0.754-1.692-3.086-3.15-6.936c-1.9-3.659-2.861-5.704-2.92-6.164l-0.132,0.017
			c-0.063,1.608-0.045,2.773,0.043,3.463l1.611,8.466l0.017,0.131c0.142,1.115-1.682,2.25-5.441,3.36
			c-2.133,0.272-3.712-1.127-4.671-4.207c-2.388-8.265-3.696-13.302-3.926-15.106l0.03-0.804c-0.164,0.021-0.514-1.669-1.046-5.068
			c-0.021-0.165-0.113-1.153-0.237-2.905l0.132-0.018c-0.325-0.458-0.516-0.9-0.578-1.393c-0.103-1.588-0.071-2.393,0.094-2.414
			c-0.013-0.099-0.088-0.421-0.266-1.032c-0.172-1.346-0.353-4.591-0.581-9.797l-0.368-2.889c-0.096-0.754,0.714-1.458,2.408-2.04
			l2.362-0.301c0.197-0.025,0.356-0.079,0.509-0.198c2.404,0.026,3.719,0.926,3.945,2.698c0.079,0.623,0.639,2.92,1.674,6.856
			L17.509,27c0.196-0.291,0.501-1.831,0.876-4.646c0.646-2.783,1.49-4.793,2.562-6.063c0.774-0.732,1.294-1.099,1.59-1.137
			L23.586,15.021z"/>
		<path fill="#EF6159" d="M43.507,12.516c0.18,1.411-0.542,3.07-2.171,4.945c0.021,0.164-1.398,0.545-4.285,1.18
			c-2.961,0.311-4.716-0.366-5.299-2.06l-0.649-2.219c0.09-0.878,0.402-1.818,0.946-2.788c1.856-0.87,3.82-1.421,5.922-1.688
			C41.383,9.451,43.227,10.316,43.507,12.516z M38.347,23.312c2.723-0.348,4.444,0.6,5.16,2.811c0.656,1.75,1.065,3.132,1.191,4.116
			c0.029,0.229-0.043,0.705-0.21,1.494c0.317,0.393,0.52,0.936,0.611,1.656l0.083,0.656c0.117,0.92,0.07,1.858-0.174,2.824
			l0.216,0.639l0.1,0.788c0.08,0.623,0.141,2.149,0.192,4.645c0.096,0.754,0.378,1.919,0.845,3.493
			c-0.006,2.569-0.072,3.879-0.171,3.891l2.388,10.367l0.084,0.656c0.104,0.82-0.716,1.458-2.425,1.909
			c-0.832,0.541-2.017,0.926-3.592,1.126l-0.655,0.083c-1.478,0.188-2.394-0.195-2.81-1.109c-0.678-0.348-1.124-1.49-1.371-3.426
			l-2.108-10.271c-0.075-0.59-0.16-2.046-0.29-4.364l-0.897-4.955c-0.141-2.416-0.198-5.477-0.235-9.175
			c-0.057-1.226-0.19-2.543-0.37-3.954l-0.151-1.181c-0.087-0.689,0.616-1.445,2.111-2.271c0.447-0.156,0.968-0.256,1.559-0.332
			L38.347,23.312z"/>
		<path fill="#EF6159" d="M65.02,15.943c0.498,1.037,1.028,3.104,1.59,6.201c0.121,0.951-1.129,1.61-3.754,1.945
			c-1.786-0.139-3-0.518-3.613-1.141c-0.437-0.545-1.029-1.802-1.814-3.771c-1.954-1.985-3.339-2.909-4.094-2.813l0.117,0.918
			c0.158,1.248,0.897,3.12,2.179,5.592c3.445,4.53,5.97,8.377,7.61,11.569c0.451,1.443,1.228,3.346,2.328,5.707
			c0.724,2.274,1.113,3.492,1.125,3.591l0.117,0.918c0.146,1.149,0.433,2.614,0.832,4.431c-0.154,0.886-0.147,2.253-0.007,4.137
			c-0.549,2.236-1.513,4.36-2.924,6.374c-0.424,1.121-1.571,1.801-3.474,2.044c-0.493,0.063-0.816,0.138-0.902,0.249
			c-3.281,0.418-5.578-0.591-6.917-2.988c-1.254-1.208-2.168-2.625-2.669-4.195c-0.736-0.806-1.157-1.753-1.287-2.771l-0.117-0.918
			c-0.213-1.674,0.568-2.608,2.308-2.83c-0.021-0.163,0.267-0.267,0.886-0.379c1.969-0.251,3.724,1.227,5.229,4.402
			c0.871,2.124,1.598,3.365,2.209,3.721l0.131-0.017c0.07-1.543,0.067-2.876,0.023-4.005c-0.647-3.252-1.424-5.688-2.266-7.314
			l-0.2-1.575c-0.53-0.232-1.186-1.45-1.929-3.623c-1.396-1.789-2.294-3.343-2.72-4.589c-2.926-3.596-4.751-6.665-5.438-9.179
			c-0.852-2.491-1.298-3.902-1.34-4.231l-0.185-1.443c-0.024-0.197-0.013-0.365,0.064-0.541c-0.087-0.156-0.268-0.801-0.514-1.937
			c0.295-2.139,1.096-3.707,2.337-4.699c1.919-1.945,4.111-3.06,6.639-3.381C58.354,8.922,61.836,11.113,65.02,15.943z"/>
		<path fill="#EF6159" d="M87.103,13.13c0.498,1.037,1.028,3.104,1.59,6.2c0.121,0.951-1.129,1.611-3.754,1.945
			c-1.785-0.139-3-0.517-3.612-1.141c-0.437-0.545-1.03-1.802-1.813-3.77c-1.955-1.985-3.34-2.909-4.095-2.813l0.117,0.918
			c0.159,1.248,0.897,3.121,2.18,5.593c3.444,4.53,5.97,8.376,7.61,11.568c0.449,1.444,1.227,3.346,2.326,5.707
			c0.725,2.275,1.113,3.493,1.127,3.592l0.115,0.918c0.146,1.149,0.434,2.613,0.832,4.431c-0.154,0.886-0.146,2.252-0.007,4.136
			c-0.549,2.237-1.513,4.361-2.923,6.375c-0.425,1.121-1.572,1.801-3.475,2.043c-0.493,0.063-0.816,0.138-0.902,0.249
			c-3.281,0.418-5.577-0.59-6.917-2.988c-1.254-1.207-2.168-2.624-2.669-4.195c-0.737-0.805-1.157-1.753-1.287-2.771l-0.117-0.918
			c-0.213-1.674,0.569-2.607,2.308-2.829c-0.021-0.163,0.267-0.268,0.887-0.379c1.968-0.251,3.725,1.227,5.229,4.401
			c0.871,2.124,1.598,3.365,2.209,3.722l0.131-0.017c0.07-1.544,0.066-2.877,0.023-4.006c-0.648-3.252-1.425-5.688-2.267-7.314
			l-0.2-1.575c-0.529-0.231-1.186-1.449-1.93-3.622c-1.396-1.789-2.293-3.344-2.719-4.589c-2.926-3.596-4.751-6.665-5.438-9.179
			c-0.852-2.492-1.299-3.902-1.34-4.231l-0.185-1.443c-0.024-0.197-0.013-0.366,0.064-0.542c-0.087-0.156-0.268-0.8-0.513-1.936
			c0.294-2.139,1.095-3.707,2.336-4.699c1.919-1.945,4.111-3.06,6.639-3.382C80.438,6.108,83.918,8.3,87.103,13.13z"/>
	</g>
	<g>
		<path fill="#EF6159" d="M25.519,76.634c1.108,1.626,2.386,4.064,3.875,7.377l0.131-0.017c1.99-7.156,3.285-11.123,3.961-11.845
			c1.027-1.098,2.769-1.818,5.197-2.129l0.525-0.066c0.688-0.088,1.121,0.424,1.268,1.572c0.033,0.263,0.311,1.395,0.828,3.363
			c0.071,0.558,0.087,1.457,0.072,2.657l2.689,12.729l0.251,1.97c0.046,0.36,0.075,0.856,0.054,1.46
			c0.332,0.525,0.571,1.096,0.741,1.641c-0.215,1.195-0.265,2.102-0.189,2.691l0.066,0.525c0.96,3.347,1.561,5.971,1.808,7.905
			c0.824,6.466,1.007,9.742,0.581,9.798c-0.772,1-1.507,1.524-2.195,1.612c-1.937,0.247-3.776-0.585-5.521-2.497l-0.603-4.726
			c-0.071-0.558-0.114-1.152-0.087-1.724l-0.729-3.643c0.011-0.701-0.045-1.395-0.137-2.116l-1.378-6.628l-0.071-2.658L36.64,93.76
			l-0.132,0.017c-0.226,3.73-0.606,5.979-1.133,6.813c-0.503,0.497-1.151,0.913-1.967,1.318c-2.888,0.366-4.378,0.19-4.466-0.499
			c-0.457-0.708-1.076-2.432-1.85-5.1l-0.132,0.017l0.033,0.263c0.291,1.496,0.438,2.379,0.467,2.608
			c0.301,2.362,0.493,5.706,0.614,10.06c0.396,1.018,0.624,1.756,0.678,2.182c0.042,0.328,0.044,1.396,0.008,3.201l0.165,0.245
			c0.18,1.41-1.451,2.486-4.933,3.162l-2.888,0.368c-1.674,0.214-2.842-2.405-3.532-7.82c-0.098,0.014-0.167-0.277-0.247-0.902
			c-0.441-4.244-0.711-7.411-0.812-9.5c-0.455-3.576-0.997-7.043-1.601-10.469c-0.063-0.492-0.142-2.416-0.21-5.843l-0.218-1.706
			c-0.038-0.295-0.029-0.496,0.048-0.673l-0.215-0.64c-0.716-5.611-0.643-8.454,0.242-8.567c1.181-0.418,2.083-0.666,2.706-0.746
			C19.663,71.244,22.412,72.928,25.519,76.634z M26.763,95.817l0.051,0.394l0.131-0.017L26.894,95.8L26.763,95.817z"/>
		<path fill="#EF6159" d="M53.997,68.004c0.34-0.211,0.885-0.38,1.606-0.473c2.293-0.06,4.415-0.161,6.43-0.318
			c1.368,0.526,2.099,1.3,2.232,2.351c-0.851,2.476-3.002,3.916-6.414,4.352l-1.543,0.197l-0.606,0.211l-0.017-0.133l-0.246,0.166
			c-0.177-0.078-0.345-0.09-0.509-0.069c-0.178,0.69-0.23,1.331-0.16,1.889l0.034,0.263c0.083,0.658,0.225,1.506,0.462,2.576
			l-0.402,1.818c0.286,1.197,0.529,1.801,0.727,1.775c0.196-0.025,0.816-0.139,1.887-0.375c3.409,0.332,5.122,0.682,5.16,0.978
			c0.583,0.392,0.908,0.851,0.979,1.408c-0.39,1.384-1.356,2.175-2.932,2.376c-0.263,0.033-1.487,0.622-3.68,1.734l-0.492,0.063
			l0.16,0.213c0.029,0.229,0.013,0.365-0.085,0.378c0.224,0.973,0.344,1.656,0.398,2.083l0.238,1.871
			c0.071,0.558,0.136,1.851,0.227,3.872c0.183,0.645,0.422,1.214,0.746,1.672l0.058,1.493l0.154,1.214
			c0.394,3.085,0.829,5.197,1.313,6.37c0.01,0.865,0.06,1.526,0.123,2.019l0.029,0.229c0.063,0.492,0.392,0.717,0.982,0.642
			c1.542-0.195,3.104-0.494,4.692-0.863c2.034-0.26,3.114,0.104,3.24,1.088c-0.572,2.574-3.313,4.091-8.217,4.613
			c-3.835,0.791-6.604,0.775-8.347-0.068c-1.507-4.243-2.547-8.479-3.087-12.713c-0.167-1.313-0.273-2.934-0.352-4.857
			c-0.239-0.57-0.608-1.891-1.044-4.002l-0.102-2.889c-0.123-0.186-0.367-1.588-0.798-4.168l-0.4-8.118
			c-0.23-0.505-0.342-0.856-0.371-1.087l-0.063-0.492c-0.05-0.393-0.067-0.791-0.023-1.23c-0.17-0.545-0.285-0.932-0.404-1.082
			c0.011-0.701-0.031-1.297-0.09-1.756l-0.331-2.594c-0.088-0.688,0.739-1.527,2.521-2.455c0.951-0.121,1.407-0.212,1.395-0.311
			C51.6,67.774,53.24,67.833,53.997,68.004z"/>
	</g>
	<g>
		<path fill="#6A2242" d="M140.381,74.917c-0.366,0.484-0.608,0.448-1.192,0.215c-0.694-0.275-1.301-0.634-1.633-1.195
			c-0.373-0.625-0.949-0.783-1.563-1.136c-0.037,0.722-0.071,1.404-0.107,2.089c-0.381-0.011-0.586-0.238-0.713-0.566l0.014-0.022
			c0.332-0.983-0.246-1.552-0.959-2.03c-0.273-0.184-0.951-0.016-0.918,0.193c0.035,0.23,0.297,0.419,0.449,0.631
			c0.034,0.051,0.045,0.125,0.078,0.24c-0.354,0.186-0.719,0.375-1.082,0.566c-0.109-0.077-0.215-0.157-0.316-0.244
			c-0.073-0.27-0.19-0.604-0.477-0.566c-0.441,0.057-0.402,0.454-0.354,0.805c-0.616,0-1.238,0.066-1.838-0.024
			c-0.312-0.048-0.597-0.431-0.959-0.315c-0.5,0.16-0.111,0.606-0.22,0.905c-0.122,0.33-0.366,0.199-0.502,0.101
			c-0.215-0.16-0.373-0.398-0.554-0.609c-0.146-0.168-0.355-0.336-0.539-0.201c-0.977,0.732-2.303,0.486-3.29,1.268
			c-0.593,0.472-1.356,0.769-2.088,1.025c-1.55,0.54-3.056,1.116-4.07,2.523c-0.147,0.203-0.506,0.248-0.728,0.42
			c-0.331,0.254-0.643,0.539-0.934,0.842c-1.223,1.271-2.402,2.586-3.66,3.818c-1.479,1.44-3.235,2.481-5.104,3.348
			c-0.973,0.451-1.98,0.691-3.066,0.732c-2.205,0.084-4.31,0.612-6.356,1.473c-1.911,0.802-3.548,2.057-5.364,3.007
			c-0.298,0.151-0.677,0.44-0.732,0.722c-0.158,0.797-0.838,0.785-1.344,1.104c-0.882,0.555-2.015,0.604-2.744,1.479
			c-0.231,0.277-0.779,0.416-1.179,0.404c-0.815-0.018-1.481,0.482-2.262,0.529c-0.552,0.035-0.843,0.35-1.164,0.775
			c-0.675,0.887-1.263,1.867-2.377,2.35c-0.615,0.268-0.816,1.021-0.634,1.763c0.125,0.505,0.607,0.606,0.986,0.644
			c0.996,0.09,2.021,0.217,2.853,0.711c1.565,0.929,3.215,1.358,4.433,2.78c0.085,0.236,0.262-0.125,0.501-0.125h0.002
			c0.128,1,0.322,1.011,0.705,1.06c0.002,0,0.002,0.205,0.005,0.207c0.315,0.293,0.4,0.691,0.721,0.984
			c0.429,0.409,1.051,0.206,1.051,0.111v0.007c0,1.354,0.808,1.404,2.074,0.659c0.063-0.037,0.246-0.063,0.312-0.094
			c0.067,0.094,0.203,0.178,0.286,0.253c-0.213,0.764,0.333,1.274,0.581,1.907c0.231,0.59,0.478,1.056,1.079,1.096
			c0.576,0.044,1.17-0.114,1.752-0.199c0.021,0,0.007-0.145,0.039-0.195c0.289-0.445,0.336-0.459,0.436-0.188
			c0.252,0.719,0.747,1.027,1.457,1.342c1.016,0.446,2.045,0.229,3.04,0.436c0.961,0.201,1.888,0.226,2.777-0.172
			c0.317,0.461,0.592,0.852,0.938,1.349c0.317-0.375,0.612-0.796,1.137-0.857c0.58-0.065,0.895,0.302,1.191,0.708
			c0.124,0.17,0.252,0.163,0.284-0.02c0.024-0.125-0.015-0.27-0.046-0.396c-0.035-0.137-0.096-0.264-0.145-0.396
			c0.428-0.205,0.846-0.444,1.289-0.618c0.473-0.181,0.75,0.03,0.779,0.573c0.01,0.201-0.143,0.488-0.051,0.594
			c0.289,0.342,0.404-0.063,0.572-0.213c0.444-0.397,1.107,0.109,1.537-0.364c0.805-0.354,1.578-0.651,2.246,0.283
			c0.141,0.198,0.489,0.261,0.75,0.36c0.241,0.098,0.434-0.033,0.518-0.231c0.107-0.245,0.266-0.578,0.18-0.767
			c-0.092-0.203-0.451-0.279-0.693-0.412c0.104-0.063,0.203-0.127,0.303-0.201c0.949-0.398,0.949-0.398,0.896-1.262
			c0.188,0.035,0.375,0.071,0.564,0.111c0.024,0.137,0.043,0.271,0.075,0.403c0.111,0.461-0.604,1.2,0.275,1.358
			c0.582,0.102,0.684-0.722,1.029-1.099c0.129-0.139-0.018-0.519-0.008-0.785c0.01-0.315,0.271-0.426,0.494-0.562
			c0.129,0.605,0.457,0.945,0.822,0.746c0.584-0.315,1.297-0.424,1.729-0.971c0.191-0.238,0.301-0.383,0.643-0.254
			c0.896,0.332,0.844-0.451,0.918-0.988c0.125-0.074,0.252-0.308,0.381-0.308h-0.002c0.262,0,0.521-0.106,0.781-0.205
			c0.249,0.22,0.559,0.563,0.846,0.322c0.242-0.203,0.168-0.488,0.029-0.795c-0.077-0.174-0.248-0.322-0.381-0.322h-0.02
			c0.194-1,0.268-0.436,0.215-0.668c0.002-0.002,0.002-0.06,0.004-0.063c0.078-0.176,0.16-0.379,0.24-0.559
			c1.092-0.259,1.934,0.553,2.836,0.766c0.707-0.688,0.568-1.967,1.422-2.131c1.404-0.277,0.303-1.461,0.912-1.943
			c0.053-0.041,0.08-0.118,0.129-0.169c0.271-0.271,0.469-0.167,0.619,0.129c0.092,0.176,0.18,0.354,0.268,0.532
			c0.449-0.439,0.881-0.893,1.345-1.313c0.198-0.173,0.548-0.227,0.669-0.432c0.238-0.393-0.256-0.594-0.365-0.907
			c-0.174-0.5,0.029-1.003,0.61-1.424c0.048-0.036,0.265,0.048,0.294,0.116c0.104,0.244,0.053,0.584,0.436,0.627
			c0.541-0.473,0.064-1.745,1.313-1.651c0.24-0.731,0.499-1.458,0.693-2.2c0.028-0.111-0.218-0.346-0.38-0.443
			c-0.221-0.133-0.366,0.023-0.438,0.246c-0.084,0.271-0.181,0.616-0.545,0.351c-0.251-0.181-0.198-0.54-0.032-0.767
			c0.163-0.217,0.432-0.351,0.653-0.522c0.12-0.005,0.239-0.043,0.353-0.093c0.121,0.06,0.237,0.139,0.364,0.177
			c0.183,0.051,0.408,0.117,0.486-0.136c0.032-0.109-0.12-0.29-0.202-0.372c-0.133-0.142-0.593-0.228-0.593-0.333v0.002l0.099-0.002
			c-0.133-0.24-0.014-0.479-0.146-0.719c-0.039-0.14,0.049-0.276,0.049-0.418c0,0,0-0.004,0-0.006v-0.015c0,0.001,0,0.003,0,0.003
			s-0.332,0.337-0.336,0.337h0.006c0.67,0,1.059,0.359,1.627,0.744c-0.059-0.455-0.096-0.878-0.145-1.272
			c0.273,0.231,0.5,0.412,0.756,0.59c0.104,0.068,0.293,0.066,0.397,0.016c0.07-0.036,0.121-0.275,0.078-0.359
			c-0.131-0.238-0.326-0.451-0.481-0.677c-0.129-0.182-0.205-0.377,0.098-0.473c0.422-0.136,0.55-0.341,0.271-0.755
			c-0.275-0.404-0.486-0.854-0.723-1.285c0.08-0.26,0.223-0.338,0.439-0.145c0.105,0.09,0.224,0.299,0.283,0.281
			c0.362-0.113,0.043-0.311,0.019-0.454c-0.054-0.27-0.156-0.53-0.24-0.795c0.071-0.183,0.146-0.356,0.215-0.538l0.017-0.006
			c0.254,0.059,0.664,0.245,0.744,0.148c0.395-0.449,0.184-1.533-0.275-1.492c-0.742,0.068-0.708-0.508-1.001-0.809
			c0.051-0.197,0.104-0.394,0.157-0.591c0.066,0.017,0.136,0.027,0.201,0.05c1.121,0.4,1.071,0.401,1.062-0.726
			c-0.007-0.724-0.136-1.362-0.563-1.937c-0.08-0.252-0.166-0.506-0.244-0.758c0.398-0.625-0.024-1.139-0.227-1.686
			c0.395-0.632,1.111-0.966,1.699-0.928c0.746,0.051,0.922-0.01,0.695-0.721c-0.269-0.857-0.431-1.752-0.949-2.466
			c0.412-0.76,1.539-0.715,1.588-1.698C140.949,74.503,140.594,74.642,140.381,74.917z M124.635,106.707
			C124.635,106.708,124.635,106.708,124.635,106.707L124.635,106.707v0.002l-0.002-0.001L124.635,106.707
			C124.635,106.708,124.635,106.708,124.635,106.707z M98.7,110.108l0.06,0.017l0,0L98.7,110.108L98.7,110.108z M98.981,106.74
			c0.193-0.043,0.391-0.099,0.59-0.164c-0.053,0.069-0.127,0.137-0.178,0.207c-0.141-0.011-0.314,0.03-0.406-0.037
			C98.985,106.744,98.983,106.742,98.981,106.74z M124.653,106.722c0.002-0.003,0.005-0.003,0.009-0.004
			c-0.002-0.002-0.002-0.003-0.004-0.005c0.004,0.001,0.006,0.001,0.007,0.002c-0.001,0.001-0.003,0.002-0.003,0.002
			c0,0.005,0.003,0.009,0.005,0.013C124.662,106.728,124.658,106.724,124.653,106.722z"/>
		<path fill="#6A2242" d="M143.192,59.246c-0.885,0.288-1.84,0.473-2.577,1.128c-0.134,0.01-0.267,0.021-0.402,0.033
			c-0.187-0.063-0.371-0.121-0.562-0.181c-0.286-0.166-0.66-0.508-0.895-0.185c-0.252,0.344-0.389,0.543-0.775,0.261
			c-0.229-0.164-0.438-0.385-0.752-0.292c-1.133,0.325-1.852-0.323-2.517-1.071c-0.138-0.155-0.222-0.465-0.446-0.373
			c-0.799,0.313-1.516-0.392-2.291-0.128c-1.041-0.442-2.063-0.933-3.127-1.313c-1.514-0.547-3.025-1.221-4.6-1.45
			c-1.664-0.245-3.303-0.555-4.939-0.921c-1.651-0.366-3.324-0.759-5.004-0.857c-3.057-0.18-6.035,0.4-8.949,1.348
			c-1.513,0.491-2.662,1.549-3.932,2.413c-0.424,0.288-0.556,1.138-1.184,0.25c-0.09-0.126-0.307-0.113-0.318,0.021
			c-0.066,0.816-0.912,0.814-1.29,1.281c-0.435,0.537-1.002,1.033-0.833,1.855c0.026,0.134,0.029,0.371-0.035,0.403
			c-1.055,0.514-0.973,1.658-1.371,2.518c-0.41,0.886-0.61,1.869-0.899,2.81c-0.125,0.403-0.218,0.821-0.386,1.207
			c-0.141,0.328-0.356,0.59-0.809,0.503c-0.416-0.072-0.842-0.099-1.26-0.086c-0.586,0.014-0.816-0.175-0.934-0.811
			c-0.097-0.527-0.65-0.959-1.215-1.076c-1.093-0.232-2.154-0.6-3.332-0.369c-2.188,0.421-4.197,1.289-6.078,2.402
			c-0.815,0.484-1.795,0.955-2.281,1.851c-0.564,1.042-1.395,1.856-2.133,2.752c-0.002-0.003-0.006-0.007-0.01-0.01l-0.017,0.04
			c0.002,0,0.003-0.042,0.005-0.042c-0.15,0.801-0.9,1.186-0.885,2.186c0.002,0,0.002,0,0.004,0c-0.362,1-0.917,1.67-0.839,2.65
			c0,0.002-0.002,0.022-0.002,0.024c-0.579,0.572-0.012,1.412-0.462,2.022c-0.571,0.776-0.68,1.717-0.729,2.632
			c-0.039,0.729-0.245,1.401-0.482,2.059c-0.553,1.53-1.191,3.033-1.791,4.547c-0.346,0.867-0.843,1.641-1.465,2.328
			c-0.619,0.682-1.211,1.396-1.904,1.996c-0.951,0.812-1.545,1.844-2.063,2.93c-0.779,1.644,0.207,3.221,2.041,3.21
			c1.914-0.013,3.83-0.146,5.548-1.146c1.889-1.101,3.957-1.92,5.52-3.526c0.364-0.373,0.767-0.605,1.321-0.526
			c1.305,0.185,2.302-0.569,2.783-1.543c0.531-1.088,1.317-1.749,2.211-2.423c1.188-0.895,2.311-1.866,3.264-3.024
			c0.719-0.872,1.539-1.666,2.212-2.573c0.608-0.817,1.396-1.162,2.346-1.273c0.421-0.051,0.849-0.055,1.269-0.094
			c1.783-0.161,3.482-0.625,5.082-1.432c0.373-0.193,0.855-0.303,1.015-0.721c0.547-1.412,1.784-1.923,3.041-2.438
			c3.149-1.293,6.173-2.82,8.978-4.78c1.055-0.738,2.295-1.066,3.612-1.089c1.625-0.026,3.255-0.072,4.876-0.19
			c1.855-0.137,3.704-0.528,5.2-1.647c1.522-1.142,3.194-1.736,5.007-2.131c1.173-0.257,2.318-0.635,3.477-0.961
			c0.267,0.129,0.539,0.162,0.812,0.051c1.753-0.738,3.29-1.854,4.933-2.785c0.168-0.09,0.25-0.324,0.393-0.514
			c-0.44-0.438-1.297-0.255-1.492-1.017c0.089-0.104,0.203-0.188,0.331-0.252c0.146-0.071,0.293-0.144,0.438-0.216
			c0.099-0.045,0.195-0.094,0.295-0.139c0.955-0.413,1.916-0.821,2.873-1.231c0.359-0.155,0.498-0.422,0.469-0.822
			c-0.02-0.266,0.064-0.536,0.103-0.806C144.478,59.769,143.842,59.038,143.192,59.246z"/>
		<path fill="#6A2242" d="M131.459,103.313c0.019-0.018,0.035-0.033,0.051-0.053c-0.006-0.009-0.01-0.018-0.014-0.027
			c-0.006,0.006-0.013,0.013-0.019,0.019C131.474,103.271,131.465,103.291,131.459,103.313z"/>
		<path fill="#6A2242" d="M131.401,103.494c0.021-0.06,0.039-0.121,0.058-0.183c-0.022,0.021-0.049,0.041-0.065,0.067
			C131.382,103.406,131.399,103.453,131.401,103.494z"/>
	</g>
</g>
</svg>
