<?xml version="1.0" encoding="utf-8"?>
<!-- Generator: Adobe Illustrator 16.0.0, SVG Export Plug-In . SVG Version: 6.00 Build 0)  -->
<!DOCTYPE svg PUBLIC "-//W3C//DTD SVG 1.1//EN" "http://www.w3.org/Graphics/SVG/1.1/DTD/svg11.dtd">
<svg version="1.1" id="Layer_1" xmlns="http://www.w3.org/2000/svg" xmlns:xlink="http://www.w3.org/1999/xlink" x="0px" y="0px"
	 width="216.244px" height="106.014px" viewBox="0 0 216.244 106.014" enable-background="new 0 0 216.244 106.014"
	 xml:space="preserve">
<g>
	<path fill="#FFFFFF" d="M216.183,63.7c-0.283-3.437-1.061-6.495-2.504-9.659c-1.654-3.625-4.136-7.423-2.379-11.552
		c0.864-2.022,2.782-2.234,2.981-5.02c0.178-2.478-1.105-3.852-2.281-5.847c-2.63-4.457-6.371-7.896-11.336-8.935
		c-17.065-3.566-25.741,6.248-28.22,8.976c-0.082-0.439-0.161-0.883-0.256-1.321c-1.234-5.684-3.397-7.259-8.707-9.564
		c-3.799-1.653-9.991-5.604-14.412-4.612c-8.738,1.955-3.17,25.856-6.096,32.564c-2.133-2.402-1.766-4.584-2.807-7.158
		c-1.02-2.523-2.941-4.578-4.455-6.827c-2.908-4.329-5.104-9.282-9.287-13.069c-3.852-3.479-6.992-6.16-9.664-10.624
		C114.62,7.472,110.556,3.647,109.126,0c-7.497,1.493-8.524,19.766-9.469,25.813c-0.592,3.779-1.146,10.433-5.933,10.258
		c-1.146-4.695-30.126-12.219-44.204-3.725c-4.902-1.423-8.425-2.846-14.041-2.946c-7.345-0.131-20.563-1.575-25.616,4.306
		l-1.22,1.146c-2.592,2.432-2.044,2.274-3.563,5.373c-4.504,9.2-5.958,17.452-4.586,27.713c0.668,4.998,0.584,8.048,3.98,12.087
		c3.729,4.436,8.245,5.71,13.518,7.519c2.227,0.765,7.331,0.757,9.076,1.863c1.477,0.939,1.816,3.697,2.711,5.624
		c3.078,6.646,6.795,3.157,12.237,1.581c2.966-0.857,4.169-1.139,6.384-3.2c2.308-2.151,2.316-3.969,5.819-3.921
		c5.083,0.072,6.301,4.461,10.267,5.834c4.634,1.604,8.324-2.938,13.255,0.12c2.69,1.669,3.198,2.618,6.239,3.626
		c2.293,0.76,4.652,1.174,7.364,1.477c6.104,0.68,9.878,0.55,15.11,3.613c5.58,3.265,8.348,1.887,12.893-1.586
		c5.103-3.899,10.021-3.016,15.904-4.488c6.309-1.579,10.539-5.645,16.188-8.388c4.39-2.133,8.785-5.134,13.5-5.247
		c5.459-0.132,12.203,1.281,16.777-2.938c0.409-0.382,0.799-0.834,1.154-1.339c7.896,2.625,18.365,2.148,23.416-0.297
		C212.707,76.771,216.795,71.185,216.183,63.7z M173.907,50.347c1.418,2.096,5.838,5.688,5.516,8.315
		c-0.305,2.491-2.615,3.216-4.346,4.593c-0.542-1.375,0.091-2.506-0.236-4.09c-0.601-2.921-0.889-5.948-1.063-9.014
		C173.821,50.217,173.864,50.283,173.907,50.347z"/>
	<g>
		<path fill="#231F20" d="M192.584,28.563c1.088,0.02,1.888,0.066,2.399,0.139c1.535,0.158,2.332,0.299,2.395,0.429
			c0.703,0.076,1.788,0.288,3.258,0.635l1.813,0.609c0.571,0.269,0.92,0.435,1.049,0.499c0.188,0.133,0.396,0.248,0.618,0.349
			c0.222,0.1,0.43,0.185,0.621,0.251c0.379,0.264,0.693,0.588,0.943,0.978c0.127,0.002,0.271,0.069,0.428,0.2
			c0.156,0.132,0.27,0.196,0.334,0.197c0.059,0.192,0.263,0.471,0.608,0.827c0.345,0.359,0.548,0.668,0.607,0.926
			c0.44,0.392,0.655,1.005,0.641,1.837c-0.006,0.32-0.044,0.576-0.11,0.767c-0.076,0.642-0.535,1.177-1.373,1.609
			c-0.064,0.063-0.164,0.157-0.293,0.282l-0.291,0.091c-0.063-0.001-0.19-0.034-0.383-0.104c-0.189-0.065-0.318-0.102-0.383-0.103
			c-0.766-0.143-1.34-0.28-1.723-0.416c-0.129-0.064-0.318-0.165-0.57-0.298c-0.255-0.134-0.445-0.199-0.574-0.202l-0.479-0.009
			c-0.191-0.004-0.496-0.023-0.911-0.063c-0.417-0.039-0.719-0.062-0.911-0.063c-0.129-0.003-0.321,0.026-0.578,0.085
			c-0.258,0.06-0.45,0.087-0.579,0.085l-0.382-0.103c-0.129-0.003-0.306,0.059-0.53,0.183c-0.229,0.125-0.438,0.218-0.631,0.276
			c-0.457,0.44-0.781,0.691-0.976,0.751c-0.003,0.192-0.235,0.573-0.693,1.143c-0.134,0.254-0.329,0.41-0.585,0.47
			c-0.005,0.257-0.125,0.719-0.359,1.388c-0.237,0.668-0.358,1.229-0.366,1.675c-0.007,0.385,0.02,0.673,0.081,0.865
			c0.24,0.773,0.711,1.296,1.412,1.563c0.127,0.002,0.289,0.005,0.479,0.009c0.192,0.003,0.399,0.007,0.625,0.011
			c0.224,0.004,0.399,0.007,0.528,0.01c0.703,0.014,2.014,0.263,3.926,0.743c0.063,0.065,0.159,0.036,0.29-0.091
			c0.063,0.066,0.539,0.298,1.431,0.698l0.381,0.199c0.063,0.001,0.127,0.034,0.19,0.1c0.062,0.066,0.125,0.099,0.19,0.1
			c0.062,0.065,0.221,0.182,0.475,0.346c0.252,0.165,0.475,0.281,0.665,0.349l0.276,0.677c0.19,0.069,0.348,0.216,0.473,0.441
			c0.124,0.229,0.217,0.373,0.281,0.438c0.062,0.065,0.188,0.164,0.379,0.295c0.189,0.133,0.314,0.263,0.377,0.393
			c-0.001,0.063,0.012,0.144,0.044,0.24c0.028,0.097,0.044,0.178,0.043,0.24c1.2,0.92,1.95,1.958,2.252,3.116
			c0.86,1.938,1.29,3.034,1.286,3.29c0.125,0.132,0.313,0.39,0.563,0.779c-0.066,0.128-0.102,0.286-0.104,0.479
			c-0.004,0.192-0.006,0.321-0.008,0.385l0.188,0.195c0.062,0.065,0.124,0.163,0.188,0.291c-0.002,0.064-0.004,0.192-0.008,0.385
			s0.025,0.354,0.088,0.482c0.119,0.516,0.178,0.805,0.177,0.867c-0.003,0.191-0.136,0.383-0.396,0.57
			c0.063,0.065,0.094,0.161,0.092,0.289c-0.002,0.063-0.037,0.208-0.104,0.431c-0.069,0.224-0.071,0.398-0.01,0.527
			c-0.13,0.063-0.245,0.236-0.347,0.522s-0.217,0.462-0.347,0.522c0.188,0.324,0.278,0.646,0.272,0.966
			c-0.01,0.514-0.18,0.99-0.508,1.434c0,0.064-0.065,0.127-0.194,0.188c-0.13,0.063-0.229,0.125-0.292,0.188
			c-0.068,0.256-0.219,0.572-0.449,0.953c-0.232,0.379-0.382,0.697-0.45,0.951c-0.063-0.001-0.178,0.046-0.339,0.139
			c-0.162,0.093-0.307,0.14-0.436,0.137c-0.067,0.19-0.199,0.413-0.396,0.665c-0.195,0.254-0.329,0.443-0.395,0.57
			c-0.063-0.002-0.146,0.03-0.241,0.091c-0.099,0.063-0.181,0.126-0.243,0.188c-0.066,0.063-0.131,0.093-0.193,0.092l-0.01,0.48
			c-0.064,0.063-0.132,0.158-0.197,0.284c-0.065,0.129-0.131,0.224-0.195,0.285c-0.066,0.063-0.131,0.095-0.193,0.093
			c-0.129-0.003-0.193,0.029-0.193,0.093l-0.101,0.189c-0.067,0.128-0.134,0.225-0.196,0.285c-0.13-0.002-0.227,0.029-0.291,0.092
			c-0.131,0.063-0.26,0.188-0.392,0.377c-0.132,0.189-0.246,0.332-0.345,0.427c-0.098,0.096-0.242,0.205-0.438,0.33
			c-0.193,0.125-0.388,0.184-0.578,0.181c-0.068,0.129-0.23,0.253-0.488,0.376c-0.26,0.123-0.422,0.216-0.485,0.278
			c-0.065-0.001-0.192,0.014-0.386,0.041c-0.192,0.029-0.354,0.042-0.48,0.038c-0.52,0.248-0.84,0.37-0.968,0.368
			c-0.129-0.003-0.256-0.067-0.381-0.198c-0.644,0.116-1.097,0.334-1.356,0.647c-0.129-0.002-0.273,0.012-0.434,0.04
			c-0.161,0.03-0.274,0.043-0.338,0.042c-0.129,0.063-0.354,0.091-0.674,0.085c-0.064-0.001-0.228,0.092-0.485,0.279
			c-0.261,0.188-0.453,0.279-0.581,0.276c-0.129-0.002-0.287-0.101-0.477-0.297c-0.258,0.062-0.932,0.079-2.019,0.061
			c-0.448-0.008-0.771,0.02-0.963,0.08c-0.257-0.005-0.417-0.04-0.479-0.105c-0.129,0.063-0.338,0.107-0.627,0.134
			c-0.289,0.027-0.5,0.104-0.629,0.229c-0.19-0.066-0.447-0.104-0.768-0.109c-0.191-0.003-0.48,0.007-0.865,0.032
			c-0.386,0.026-0.643,0.036-0.77,0.034c-0.192-0.003-0.496-0.072-0.908-0.209c-0.415-0.135-0.75-0.236-1.004-0.307l-0.288-0.005
			l-0.095-0.098c-0.064-0.001-0.129-0.003-0.191-0.004l-0.191-0.003c-0.192-0.004-0.479-0.072-0.863-0.208
			c-0.381-0.135-0.668-0.204-0.859-0.208c-1.15-0.213-1.82-0.384-2.01-0.518l-0.283-0.293c-0.445-0.07-0.982-0.562-1.605-1.47
			c-0.307-0.838-0.487-1.481-0.543-1.933l0.021-1.249l-0.092-0.194l0.098-0.094c0.001-0.063,0.002-0.128,0.003-0.192
			c0.007-0.318-0.022-0.544-0.083-0.675c0.788-1.072,1.665-1.762,2.631-2.065c0.063,0.001,0.226-0.012,0.48-0.04
			c0.257-0.025,0.449-0.07,0.58-0.134l0.287,0.006c0.063,0.001,0.225-0.012,0.481-0.039c0.255-0.027,0.448-0.041,0.577-0.038
			c0.191,0.004,0.352,0.04,0.479,0.104c0.388-0.121,0.74-0.18,1.062-0.174c0.384,0.007,0.703,0.077,0.957,0.21
			c0.192-0.062,0.674-0.085,1.442-0.071l0.385,0.007c0.063,0.002,0.207-0.026,0.434-0.088c0.227-0.06,0.401-0.088,0.53-0.086
			l0.479,0.009c0.256,0.005,0.467-0.089,0.629-0.277c0.164-0.188,0.279-0.314,0.345-0.378c0.063-0.063,0.179-0.142,0.341-0.233
			c0.161-0.093,0.273-0.171,0.341-0.234c0.804-1.907,1.208-3.055,1.216-3.438c0.006-0.32-0.057-0.513-0.184-0.581
			c0.148-1.149-0.402-2.506-1.657-4.065c-0.188-0.132-0.506-0.36-0.948-0.689c-0.441-0.327-0.758-0.556-0.947-0.689
			c-0.131-0.002-0.227-0.019-0.288-0.053c-0.063-0.032-0.159-0.051-0.287-0.053c-0.126-0.195-0.315-0.294-0.571-0.299
			c-0.123-0.259-0.314-0.357-0.57-0.298c-0.062-0.194-0.377-0.424-0.947-0.69c-0.76-0.653-1.36-1.081-1.805-1.281
			c-0.063-0.064-0.094-0.161-0.09-0.29c-0.191-0.066-0.43-0.216-0.714-0.444c-0.284-0.229-0.489-0.379-0.616-0.444l0.002-0.192
			c-0.063-0.063-0.093-0.129-0.092-0.193c-0.188-0.194-0.506-0.474-0.945-0.833c-0.443-0.359-0.758-0.605-0.947-0.738
			c-0.123-0.32-0.624-1.003-1.501-2.044c-0.187-0.389-0.312-0.582-0.374-0.583l0.007-0.385c-0.315-0.325-0.472-0.554-0.469-0.683
			l0.005-0.288c0.001-0.063-0.061-0.271-0.182-0.627c-0.123-0.354-0.181-0.596-0.179-0.725c-0.616-1.356-0.987-2.195-1.108-2.52
			c-0.121-0.386-0.18-0.676-0.176-0.867c0.002-0.128,0.067-0.318,0.201-0.573c-0.061-0.192-0.088-0.481-0.08-0.866
			c0.016-0.896,0.188-1.662,0.521-2.298c0.006-0.318,0.141-0.669,0.403-1.049l0.008-0.384c0.134-0.318,0.381-0.697,0.74-1.142
			c0.359-0.439,0.606-0.821,0.741-1.141c0.521-0.502,0.816-0.913,0.888-1.233c0.063,0.001,0.291-0.187,0.683-0.563
			c0.065-0.063,0.228-0.188,0.487-0.377c0.258-0.188,0.453-0.343,0.584-0.47l0.097,0.002c0.063-0.062,0.13-0.094,0.194-0.093
			c0.129-0.125,0.389-0.281,0.776-0.467s0.646-0.34,0.777-0.466c0.256-0.061,0.644-0.196,1.161-0.412
			c0.516-0.215,0.934-0.353,1.257-0.41c0.13-0.188,0.39-0.281,0.772-0.273l0.48,0.008c0.128-0.061,0.289-0.122,0.482-0.185
			c0.193-0.059,0.322-0.121,0.388-0.185l0.385,0.007l0.869-0.273C191.301,28.574,191.815,28.55,192.584,28.563z"/>
	</g>
	<g>
		<path fill="#F6921E" d="M43.213,62.493c-0.428,5.016,1.244,10.558,4.953,14.317c2.456,2.491,5.869,3.565,8.968,4.963
			c1.88,0.849,3.711,1.027,5.575,1.772c1.536,0.613,3.055,1.567,4.678,1.975c2.649,0.663,6.768,0.782,9.187-0.549
			c3.108-1.715,7.315-3.862,9.574-6.657c3.204-3.965,5.083-8.487,6.8-13.242c1.905-5.305,0.592-10.515-0.45-15.796
			c-1.128-5.735-4.854-8.193-10.062-10.763c-4.43-2.188-8.972-1.631-13.536-2.341c-3.784-0.59-9.235-0.683-11.682,2.536
			C57.218,38.71,45.026,41.127,43.213,62.493z"/>
		<path fill="#231F20" d="M71.517,86.603L71.517,86.603c-1.467,0-2.985-0.179-4.275-0.5c-1.084-0.271-2.107-0.767-3.096-1.243
			c-0.555-0.269-1.105-0.534-1.659-0.756c-0.822-0.328-1.629-0.54-2.484-0.766c-1.009-0.265-2.053-0.539-3.115-1.019
			c-0.615-0.277-1.242-0.541-1.871-0.807c-2.57-1.083-5.228-2.203-7.277-4.282c-3.625-3.675-5.588-9.342-5.124-14.789
			c1.716-20.231,12.505-23.817,14.262-24.27c1.583-1.938,4.31-2.921,8.108-2.921c1.259,0,2.607,0.11,4.006,0.328
			c1.412,0.22,2.856,0.318,4.253,0.413c3.105,0.212,6.316,0.431,9.457,1.981c4.959,2.446,9.164,4.979,10.384,11.185l0.257,1.281
			c0.972,4.818,1.977,9.802,0.169,14.834c-1.542,4.269-3.472,9.178-6.898,13.416c-2.133,2.641-5.888,4.691-8.905,6.342l-0.846,0.464
			C75.204,86.411,73.04,86.603,71.517,86.603z M64.986,36.452c-2.417,0-5.644,0.455-7.29,2.621l-0.137,0.18l-0.223,0.045
			c-0.118,0.024-11.777,2.64-13.525,23.246c-0.436,5.108,1.397,10.413,4.783,13.847c1.881,1.908,4.427,2.98,6.889,4.019
			c0.639,0.271,1.275,0.537,1.898,0.818c0.971,0.438,1.921,0.688,2.927,0.952c0.853,0.224,1.734,0.454,2.625,0.812
			c0.585,0.233,1.17,0.516,1.736,0.789c0.934,0.451,1.9,0.918,2.865,1.159c1.197,0.3,2.612,0.465,3.984,0.465
			c1.954,0,3.647-0.34,4.768-0.957l0.85-0.466c2.924-1.6,6.563-3.588,8.547-6.043c3.308-4.095,5.194-8.894,6.702-13.069
			c1.694-4.716,0.766-9.317-0.217-14.188l-0.257-1.286c-1.019-5.184-4.079-7.55-9.739-10.342c-2.928-1.445-5.881-1.646-9.007-1.859
			c-1.422-0.097-2.893-0.197-4.356-0.425C67.469,36.558,66.184,36.452,64.986,36.452z"/>
	</g>
	<path fill="#F9C989" d="M66.104,51.802c-1.697,0.24-3.405,2.054-4.372,3.567c-0.643,1.005-0.739,2.218-0.97,3.354
		c-0.141,0.688-0.06,1.311-0.166,1.984c-0.088,0.559-0.29,1.134-0.301,1.702c-0.019,0.931,0.256,2.307,0.879,3.008
		c0.805,0.903,1.838,2.14,2.935,2.675c1.56,0.766,3.203,1.047,4.911,1.253c1.906,0.23,3.535-0.6,5.211-1.346
		c1.815-0.808,2.352-2.23,2.811-4.154c0.389-1.637-0.142-3.103-0.249-4.671c-0.093-1.301-0.476-3.115-1.728-3.687
		C75.065,55.488,73.336,50.787,66.104,51.802z"/>
	<g>
		<path fill="#FFFFFF" d="M66.881,55.276c-1.158,0.162-2.325,0.829-2.984,1.862c-0.438,0.686-0.504,1.512-0.66,2.285
			c-0.096,0.473-0.043,0.894-0.113,1.354c-0.06,0.381-0.198,0.773-0.207,1.161c-0.014,0.636,0.174,1.574,0.599,2.052
			c0.55,0.615,1.254,1.457,2.005,1.825c1.063,0.521,2.184,0.712,3.35,0.854c1.299,0.159,2.413-0.408,3.555-0.917
			c1.24-0.553,1.602-1.522,1.917-2.835c0.265-1.117-0.081-2.118-0.171-3.188C74.025,58.016,71.813,54.584,66.881,55.276z"/>
		<path fill="#231F20" d="M69.318,67.299L69.318,67.299c-0.171,0-0.345-0.01-0.521-0.03c-1.083-0.134-2.34-0.323-3.541-0.911
			c-0.79-0.389-1.481-1.167-2.037-1.794l-0.152-0.171c-0.62-0.696-0.764-1.877-0.751-2.465c0.007-0.305,0.074-0.597,0.133-0.854
			c0.03-0.13,0.061-0.26,0.081-0.388c0.028-0.184,0.033-0.36,0.039-0.538c0.008-0.251,0.017-0.536,0.08-0.843
			c0.03-0.149,0.057-0.303,0.084-0.454c0.114-0.649,0.244-1.388,0.658-2.035c0.727-1.141,2-1.938,3.407-2.134
			c0.457-0.064,0.91-0.098,1.344-0.098c4.225,0,6.451,3.041,6.625,5.097c0.025,0.305,0.073,0.603,0.12,0.898
			c0.123,0.775,0.25,1.577,0.037,2.479c-0.318,1.321-0.729,2.563-2.256,3.243l-0.273,0.123
			C71.442,66.854,70.457,67.299,69.318,67.299z M68.143,55.785c-0.379,0-0.775,0.028-1.178,0.085
			c-1.048,0.146-2.03,0.757-2.562,1.591c-0.286,0.448-0.384,1.007-0.489,1.6c-0.028,0.162-0.057,0.323-0.089,0.482
			c-0.045,0.226-0.05,0.436-0.057,0.646c-0.007,0.225-0.016,0.447-0.052,0.682c-0.024,0.158-0.061,0.316-0.097,0.475
			c-0.051,0.222-0.099,0.43-0.103,0.61c-0.011,0.533,0.156,1.313,0.447,1.64l0.154,0.174c0.486,0.548,1.09,1.229,1.667,1.513
			c0.929,0.455,1.935,0.646,3.158,0.797c1.04,0.131,1.962-0.294,2.96-0.744l0.278-0.125c0.947-0.422,1.263-1.119,1.578-2.428
			c0.158-0.667,0.055-1.319-0.055-2.011c-0.052-0.326-0.103-0.652-0.131-0.986C73.455,58.389,71.74,55.785,68.143,55.785z"/>
	</g>
	<path fill="#8A5D3B" d="M92.121,58.104c0.03-14.241-4.034-16.363-6.016-17.399c-2.109-1.102-4.054,0.451-6.151-1.383
		c-1.74-1.523-2.486-2.226-4.688-3.023c-2.358-0.856-7.043-0.837-7.043-0.837c-2.34,1.39-5.505-0.656-8.176,0.475
		c-1.122,0.475-1.806,1.303-2.772,1.911c-1.105,0.693-2.322,0.803-3.504,1.256c-4.098,1.563-6.89,6.956-7.294,10.969
		c-0.103,0.997-0.255,2.469-0.066,3.45c0.217,1.141,1.143,1.716,1.533,2.697c0.975,2.46-0.878,4.136-0.679,6.481
		c0.219,2.572,2.486,4.006,3.775,5.982c1.029,1.575,0.122,5.321,1.407,6.528c1.582,1.486,3.491-2.253,5.583-0.178
		c1.131,1.127,0.548,5.097,3.295,4.664c0.143-1.759,0.178-3.354,2.391-1.809c0.932,0.651,1.745,2.348,2.075,3.396
		c0.891,2.832-0.774,5.833,0.733,8.236c3.478,0.617,1.836-4.568,1.463-6.68c-0.406-2.271-1.434-6.317,0.181-8.443
		c4.603-1.125,1.579,6.446,4.835,6.729c0.365-2.45-0.45-4.705-0.136-7.171c2.22-0.758,3.294,4.974,4.011,6.425
		c0.432,0.877,1.93,1.7,2.864,1.177c1.278-0.718,1.782-2.761,2.938-3.062c3.203,1.402,4.127-3.33,5.067-4.913
		c1.05-1.759,0.833-1.607,1.317-3.536c0.595-2.363-0.35-3.414,0.105-5.871C89.592,61.889,92.116,60.632,92.121,58.104z
		 M77.042,63.844c-0.459,1.925-0.995,3.349-2.811,4.155c-1.676,0.746-1.479,2.465-3.383,2.231c-0.074-0.007-1.403,3.05-3.078,2.079
		c-1.099-0.641-1.563-1.188-1.985-2.569c-0.123-0.396-3.456,1.122-3.771-2.601c-0.1-1.221-0.035-0.819-0.84-1.724
		c-0.623-0.701-0.897-2.077-0.879-3.008c0.011-0.568,0.213-1.145,0.301-1.702c0.106-0.675,0.025-1.296,0.166-1.984
		c0.206-1.022-0.254-3.188,0.8-3.051c0.43,0.057,2.819-4.544,9.178-3.107c0.102,0.021,4.79,1.362,5.569,4.359
		c0.104,0.954,0.19,2.132-0.156,2.665c-0.612,0.936-0.703,2.541,0.148,2.435c0.203-0.024,0.535-0.411,0.834-0.229
		C77.706,62.145,77.208,63.139,77.042,63.844z"/>
	<path fill="#754C28" d="M52.893,66.024c1.898-0.458,1.807,3.931,1.859,5.167c0.052,1.235,0.938,2.049-0.57,2.444
		c-0.793,0.206-1.647-1.438-1.111-2.432C54.583,68.406,51.883,66.27,52.893,66.024z"/>
	<path fill="#754C28" d="M79.829,78.853c-0.141-1.359-3.573,0.042-3.405-8.096c0.055-2.629-2.123-1.649-1.103-0.719
		c0.589,0.539,0.385,10.232,4.038,10.174C80.11,79.962,79.879,79.343,79.829,78.853z"/>
	<g>
		<g>
			<path fill="#603813" d="M51.514,61.09c0,0-2.508,2.05-0.747,1.809c1.761-0.243,6.675-3.196,4.325-2.675
				C52.742,60.741,51.514,61.09,51.514,61.09z"/>
			<path fill="#603813" d="M73.118,43.234c0,0-1.586,1.291-0.475,1.141c1.11-0.151,4.209-2.015,2.726-1.687
				C73.889,43.014,73.118,43.234,73.118,43.234z"/>
			<path fill="#603813" d="M67.155,39.188c0,0,1.528-1.685,0.371-1.277c-1.162,0.409-4.228,3.019-2.695,2.348
				C66.362,39.588,67.155,39.188,67.155,39.188z"/>
			<path fill="#603813" d="M61.979,42.472c0.301-0.149,1.819-1.367,0.605-1.187c-1.217,0.183-4.72,2.169-3.088,1.798
				C61.127,42.716,61.409,42.757,61.979,42.472z"/>
			<path fill="#603813" d="M83.143,38.18c0.299-0.146,1.817-1.363,0.604-1.186c-1.216,0.183-4.72,2.17-3.089,1.799
				C82.292,38.424,82.571,38.464,83.143,38.18z"/>
			<path fill="#603813" d="M58.817,49.167c0.296-0.146,1.813-1.365,0.602-1.184c-1.216,0.183-4.72,2.167-3.089,1.797
				C57.963,49.409,58.243,49.451,58.817,49.167z"/>
			<path fill="#603813" d="M52.041,45.959c0.182-0.279,0.854-2.106-0.094-1.328c-0.945,0.786-2.924,4.293-1.719,3.136
				C51.436,46.606,51.698,46.498,52.041,45.959z"/>
			<path fill="#603813" d="M84.71,54.301c0.521,0.036,3.561-0.175,1.776-0.676c-1.788-0.498-8.137-0.702-5.633-0.137
				C83.358,54.048,83.704,54.234,84.71,54.301z"/>
			<path fill="#603813" d="M48.477,51.734c0.232-0.329,1.221-2.448,0.107-1.525c-1.116,0.93-3.737,5.021-2.291,3.653
				S48.031,52.364,48.477,51.734z"/>
			<path fill="#603813" d="M54.458,67.532c-0.308,0.109-2.117,0.336-1.092-0.4c1.029-0.736,4.769-1.839,3.322-0.935
				C55.239,67.098,55.045,67.326,54.458,67.532z"/>
			<path fill="#603813" d="M86.88,45.078c0,0-2.62,0.877-1.142,1.218c1.477,0.339,6.292-0.531,4.26-0.829
				C87.964,45.172,86.88,45.078,86.88,45.078z"/>
			<path fill="#603813" d="M78.759,43.876c0,0-1.307,2.965,0.152,1.952c1.46-1.015,4.493-5.884,2.637-4.353
				C79.691,43.009,78.759,43.876,78.759,43.876z"/>
		</g>
		<path fill="#7CCDCD" d="M66.977,47.861c-2.497-1.45-3.67-3.994-2.286-3.44c1.382,0.555,2.875,2.485,3.204,3.507
			C68.225,48.946,66.977,47.861,66.977,47.861z"/>
		<path fill="#BE1E2D" d="M54.715,60.607c-3.382,1.356-5.055,1.197-3.793,0.289c1.262-0.904,3.525-1.245,4.426-1.037
			C56.249,60.068,54.715,60.607,54.715,60.607z"/>
		<path fill="#5AB1AF" d="M81.458,40.631c-0.053,2.212-1.808,4.188-2.798,4.867C77.669,46.18,78.507,42.33,81.458,40.631z"/>
		<path fill="#FFFFFF" d="M59.683,41.785c2.444-1.843,4.438-3.062,3.583-1.613c-0.856,1.444-3.096,2.727-3.93,2.925
			C58.507,43.294,59.683,41.785,59.683,41.785z"/>
		<path fill="#7CCDCD" d="M80.162,37.759c1.898-1.429,4.565-1.54,3.749-0.674c-0.813,0.871-2.963,1.402-4.002,1.34
			C78.872,38.364,80.162,37.759,80.162,37.759z"/>
		<path fill="#7CCDCD" d="M55.299,49.135c1.898-1.428,4.564-1.536,3.75-0.673c-0.813,0.867-2.967,1.4-4.005,1.34
			C54.005,49.739,55.299,49.135,55.299,49.135z"/>
		<path fill="#5AB1AF" d="M45.186,52.713c0.398-2.301,3.395-4.418,3.291-2.84c-0.104,1.577-1.498,3.677-2.376,4.317
			C45.225,54.829,45.186,52.713,45.186,52.713z"/>
		<path fill="#FAAF40" d="M88.535,41.355c1.913-0.662,4.927,0.585,3.469,1.111c-1.46,0.531-3.669,0.302-4.438-0.106
			C86.798,41.953,88.535,41.355,88.535,41.355z"/>
		<path fill="#FAAF40" d="M74.875,43.521c-2.139,0.61-4.164-0.393-2.905-0.804c1.256-0.41,2.995-0.313,3.549-0.051
			C76.071,42.93,74.875,43.521,74.875,43.521z"/>
		<path fill="#FAAF40" d="M64.553,39.201c1.354-1.768,3.576-2.17,2.814-1.092c-0.764,1.083-2.219,2.041-2.818,2.159
			C63.949,40.387,64.553,39.201,64.553,39.201z"/>
		<path fill="#BE1E2D" d="M51.765,45.179c-0.422,2.188-2.232,3.542-2.029,2.233c0.201-1.311,1.075-2.814,1.56-3.188
			C51.778,43.85,51.765,45.179,51.765,45.179z"/>
		<path fill="#FFFFFF" d="M81.887,52.504c2.813-0.567,6.76,0.565,4.828,1.182c-1.934,0.612-4.884,0.115-5.918-0.509
			C79.764,52.55,81.887,52.504,81.887,52.504z"/>
		<path fill="#7CCDCD" d="M53.311,65.674c0.484-0.893,4.191-0.416,3.289,0.31c-0.902,0.723-2.701,1.018-3.465,0.867
			C52.375,66.697,53.311,65.674,53.311,65.674z"/>
	</g>
	<path fill="#754C28" d="M85.702,61.649c1.805,0.739-1.655,3.693-0.096,5.297c1.562,1.604,1.458,6.911-0.84,7.536
		c-2.303,0.629-4.465,0.278-4.691-3.235c-0.229-3.517,2.047,0.125,2.975-1.831c0.929-1.955-0.227-4.188,1.099-6.322
		C85.47,60.957,83.189,60.617,85.702,61.649z"/>
	<g>
		<path fill="#231F20" d="M31.717,32.885l0.998-0.081c0.199,0.004,0.563,0.076,1.093,0.219c0.529,0.144,0.958,0.217,1.292,0.223
			l0.498,0.009c1.06,0.153,3.08,0.555,6.059,1.206c0.064,0.067,0.248,0.153,0.545,0.259c0.296,0.104,0.476,0.259,0.539,0.458
			l0.598,0.012c0.13,0.135,0.606,0.426,1.43,0.872c0.822,0.447,1.362,0.938,1.618,1.475l-0.003,0.199
			c-0.003,0.135-0.022,0.299-0.059,0.498c-0.038,0.198-0.056,0.332-0.058,0.396c-0.003,0.199,0.027,0.333,0.093,0.4
			c-0.067,0.065-0.237,0.212-0.506,0.438c-0.271,0.23-0.506,0.407-0.707,0.537l-0.2-0.004c-0.134-0.002-0.3,0.012-0.499,0.041
			c-0.2,0.03-0.334,0.044-0.399,0.043c-0.067-0.002-0.166-0.068-0.295-0.205c-0.136,0.064-0.336,0.11-0.602,0.14
			c-0.267,0.028-0.466,0.042-0.599,0.039c-0.066-0.001-0.269,0.095-0.603,0.288c-0.337,0.192-0.604,0.287-0.803,0.284l-0.199-0.004
			c-0.466-0.009-0.766,0.021-0.898,0.083c-0.534,0.06-0.969,0.282-1.309,0.675c-0.866,0.118-1.768,0.302-2.701,0.55
			c-0.066-0.001-0.2,0.063-0.401,0.191c-0.202,0.13-0.37,0.192-0.502,0.19l-0.398-0.007c-0.204,0.194-0.372,0.326-0.506,0.39
			c-0.066-0.001-0.284,0.012-0.648,0.039c-0.367,0.027-0.617,0.072-0.751,0.136l-0.203,0.195c-0.202,0.195-0.37,0.292-0.503,0.29
			c-0.136,0.132-0.204,0.263-0.206,0.395c-0.466-0.008-0.886,0.185-1.257,0.576c-0.374,0.394-0.659,0.621-0.858,0.684
			c-0.068,0.064-0.07,0.133-0.004,0.198L29.8,45.411c-0.201,0.063-0.421,0.241-0.658,0.536c-0.239,0.296-0.424,0.476-0.559,0.539
			l-0.01,0.598c-0.137,0.131-0.307,0.41-0.514,0.838c-0.207,0.43-0.446,0.707-0.714,0.834c-0.419,1.189-0.703,2.148-0.849,2.876
			c-0.067-0.001-0.134,0.049-0.201,0.146c-0.069,0.099-0.171,0.181-0.304,0.243l-0.023,1.295c-0.001,0.065-0.088,0.198-0.257,0.395
			c-0.17,0.196-0.256,0.395-0.26,0.594c-0.2,0.063-0.37,0.261-0.509,0.59c-0.14,0.331-0.276,0.526-0.409,0.591
			c0.258,0.403,0.219,0.701-0.115,0.896c0.127,0.269,0.19,0.47,0.188,0.603c-0.003,0.134-0.04,0.332-0.11,0.596
			c-0.072,0.266-0.108,0.464-0.11,0.597c0.393,0.341,1.169,0.555,2.331,0.641c1.161,0.088,1.906,0.168,2.238,0.239
			c0.133,0.002,0.2-0.028,0.201-0.097c0.134-0.063,0.234-0.096,0.302-0.095c-0.003,0.134,0.128,0.202,0.394,0.206
			c0.464,0.009,1.478,0.012,3.041,0.005c1.561-0.004,2.808-0.031,3.739-0.082c2.195-0.16,3.559-0.201,4.089-0.126
			c0.133,0.002,0.332,0.04,0.598,0.11c0.263,0.07,0.462,0.106,0.596,0.109c0.198,0.003,0.58,0.027,1.145,0.07
			c0.563,0.044,0.978,0.102,1.242,0.171c0.398,0.075,0.826,0.249,1.287,0.521c0.524,0.408,0.918,0.648,1.184,0.72
			c0.584,0.808,0.908,1.247,0.973,1.313c0.179,1.199,0.265,1.866,0.263,1.999c-0.009,0.466-0.147,0.828-0.417,1.089
			c-0.003,0.135,0.009,0.385,0.036,0.749c0.026,0.365,0.038,0.646,0.035,0.847c-0.003,0.134-0.075,0.465-0.218,0.994
			c-0.001,0.065,0.012,0.232,0.041,0.499c0.028,0.267,0.042,0.467,0.039,0.599l-0.005,0.3c-0.003,0.134-0.072,0.331-0.21,0.594
			c-0.011,0.599-0.052,0.964-0.119,1.096c0.191,0.401,0.286,0.671,0.284,0.803c-0.002,0.134-0.038,0.232-0.104,0.297
			c-0.069,0.133-0.039,0.231,0.094,0.3l0.199,0.003c-0.141,0.397-0.211,0.631-0.212,0.695c0.132,0.068,0.189,0.535,0.175,1.398
			c-0.002,0.065,0.063,0.135,0.194,0.203c0.131,0.067,0.197,0.17,0.195,0.303c-0.14,0.264-0.209,0.462-0.211,0.594
			c-0.003,0.134,0.01,0.284,0.042,0.45c0.029,0.166,0.076,0.35,0.14,0.551c0.063,0.2,0.094,0.367,0.091,0.499
			c-0.002,0.134-0.023,0.349-0.062,0.648c-0.039,0.298-0.059,0.514-0.062,0.646l0.093,0.398c-0.001,0.066-0.037,0.148-0.104,0.248
			c-0.068,0.098-0.103,0.182-0.104,0.247c0.127,0.269,0.19,0.469,0.188,0.602c-0.001,0.066-0.037,0.166-0.105,0.298l-0.001,0.101
			c-0.003,0.134,0.011,0.249,0.043,0.35c0.03,0.1,0.047,0.184,0.046,0.249l-0.02,1.097c-0.204,0.265-0.276,0.528-0.214,0.794
			c-0.411,0.726-0.618,1.153-0.621,1.285c-0.001,0.067,0.03,0.149,0.096,0.251c0.063,0.102,0.096,0.186,0.095,0.25
			c-0.001,0.066-0.071,0.266-0.21,0.595c0.131,0.137,0.194,0.269,0.192,0.401c-0.003,0.133-0.056,0.314-0.159,0.546
			c-0.104,0.23-0.124,0.413-0.06,0.548c-0.071,0.265-0.274,0.493-0.61,0.688c-0.001,0.064,0.029,0.148,0.095,0.251
			c0.063,0.101,0.063,0.184-0.004,0.249c-0.001,0.064-0.155,0.313-0.462,0.739c-0.308,0.427-0.498,0.805-0.569,1.137
			c-0.882,0.979-1.756,1.496-2.619,1.547c-0.001,0.065-0.053,0.132-0.153,0.197c-0.101,0.063-0.235,0.128-0.402,0.191
			c-0.168,0.063-0.286,0.127-0.353,0.192c-0.066-0.001-0.167,0.063-0.303,0.194c-0.136,0.129-0.237,0.194-0.303,0.192
			c-0.067-0.001-0.133-0.002-0.198-0.003c-0.134-0.003-0.233,0.029-0.3,0.094c-0.201,0.063-0.567,0.091-1.099,0.08
			c-0.333-0.006-0.598-0.045-0.795-0.112c-1.059-0.354-1.684-0.662-1.879-0.932l-0.873-1.312c-0.132-0.137-0.312-0.288-0.54-0.458
			c-0.231-0.171-0.41-0.323-0.54-0.459c-0.129-0.269-0.253-0.688-0.376-1.252c-0.123-0.567-0.184-0.887-0.182-0.951
			c-0.065-0.135-0.161-0.353-0.288-0.652c-0.128-0.303-0.222-0.619-0.281-0.953c0.002-0.134-0.012-0.349-0.038-0.647
			c-0.03-0.299-0.04-0.548-0.037-0.747c0.003-0.132,0.111-0.612,0.325-1.44c0.214-0.824,0.292-1.505,0.235-2.039
			c-0.668,0.188-1.271,0.443-1.808,0.767l-0.199-0.004c-0.134-0.002-0.352,0.078-0.653,0.236c-0.302,0.162-0.552,0.239-0.751,0.236
			l-0.398-0.008c-0.938,0.315-1.539,0.569-1.808,0.765l-0.2-0.003c-0.199-0.004-0.584,0.074-1.15,0.229
			c-0.568,0.154-1.018,0.229-1.35,0.225c-0.532-0.01-1.262-0.088-2.189-0.238l-0.293-0.306c-0.135-0.002-0.235,0.031-0.302,0.096
			c-0.067,0.065-0.167,0.063-0.298-0.006l-0.398-0.007c-0.398-0.007-0.663-0.112-0.791-0.314c-1.333,0.111-2.523-0.21-3.573-0.96
			L18.1,80.791c-0.066-0.001-0.529-0.175-1.386-0.522c-0.198-0.068-0.495-0.175-0.891-0.315c-0.396-0.139-0.692-0.277-0.891-0.414
			l-0.489-0.508c-0.527-0.273-0.855-0.513-0.983-0.716c-0.136,0.064-0.268,0.063-0.399-0.007c-0.193-0.335-0.488-0.539-0.886-0.614
			c-1.109-1.147-1.76-1.89-1.953-2.228c-0.066-0.065-0.262-0.27-0.588-0.608c-0.327-0.337-0.622-0.575-0.884-0.714
			c-0.063-0.2-0.192-0.417-0.387-0.654c-0.196-0.236-0.327-0.42-0.39-0.556c0.001-0.065-0.046-0.25-0.14-0.552
			c-0.095-0.301-0.207-0.518-0.337-0.652c0.066-0.064,0.102-0.131,0.103-0.197c0.002-0.066-0.063-0.234-0.189-0.502
			c-0.13-0.268-0.225-0.502-0.287-0.703l0.006-0.299L6.84,69.422c-0.26-0.402-0.387-0.736-0.382-1.003
			c0.002-0.133,0.038-0.265,0.106-0.396c-0.258-0.403-0.438-1.438-0.542-3.101c0.004-0.198,0.104-0.297,0.304-0.293
			c0.002-0.064-0.063-0.134-0.195-0.204c-0.133-0.066-0.196-0.135-0.195-0.201c0.013-0.73,0.087-1.194,0.224-1.393
			c-0.126-0.4-0.187-0.701-0.183-0.899c0.004-0.199,0.041-0.498,0.115-0.896c0.073-0.396,0.112-0.695,0.116-0.895
			c0.001-0.065,0.068-0.164,0.204-0.296l0.038-2.092c0.002-0.133,0.055-0.299,0.158-0.496s0.155-0.361,0.158-0.496
			c0.013-0.729,0.12-1.127,0.321-1.189c-0.134-0.068-0.146-0.218-0.042-0.449c0.104-0.229,0.156-0.379,0.157-0.445
			c0.071-0.33,0.113-0.762,0.123-1.294c0.01-0.529,0.017-0.929,0.021-1.194l0.308-0.493c0.069-0.198,0.109-0.529,0.117-0.995
			c0.009-0.464,0.047-0.797,0.118-0.994c0.066-0.063,0.169-0.229,0.308-0.493l0.005-0.3c0.006-0.331,0.278-0.758,0.821-1.28
			l0.006-0.3c0.003-0.199,0.072-0.43,0.211-0.692c0.137-0.263,0.208-0.46,0.21-0.595l0.004-0.198
			c0.134-0.131,0.34-0.459,0.615-0.986c0.274-0.526,0.579-0.854,0.916-0.981c-0.065-0.133-0.063-0.266,0.007-0.397
			c0.067-0.13,0.104-0.229,0.104-0.297l0.406-0.392c0.21-0.596,0.481-1.055,0.82-1.382c0.074-0.463,0.383-0.955,0.925-1.478
			c0.54-0.522,0.846-0.883,0.917-1.081l1.213-0.976l1.114-0.978l0.398,0.008c1.142-0.711,1.945-1.062,2.41-1.054
			c0.872-0.449,2.277-0.973,4.217-1.568c1.937-0.597,3.207-1.021,3.81-1.277l0.296,0.204c0.402-0.191,0.868-0.282,1.4-0.272
			l0.299,0.005c0.136-0.13,0.452-0.157,0.948-0.082c0.497,0.075,0.812,0.048,0.948-0.083C31.352,32.846,31.518,32.882,31.717,32.885
			z M34.298,66.924c-0.202,0.063-0.501,0.091-0.899,0.083c-0.398-0.007-0.697-0.013-0.896-0.016
			c-0.935,0.117-2.347,0.174-4.24,0.173c-1.894,0-2.908-0.002-3.041-0.005c-0.199-0.003-0.432-0.058-0.694-0.162
			c-0.265-0.104-0.463-0.157-0.595-0.16c-0.997,0.049-1.509,0.771-1.533,2.166c0.052,0.732,0.176,1.3,0.367,1.701l0.283,0.901
			l0.586,0.608l0.193,0.401c0.063,0.069,0.194,0.287,0.387,0.655c0.192,0.369,0.354,0.589,0.486,0.656l0.297,0.104
			c0.199,0.004,0.364,0.041,0.496,0.109l0.293,0.402c0.13,0.137,0.427,0.207,0.893,0.215c0.531,0.011,0.999-0.081,1.401-0.272
			c0.133,0.002,0.249-0.027,0.351-0.094c0.101-0.063,0.201-0.146,0.303-0.243c0.102-0.098,0.187-0.181,0.255-0.245
			c0.064,0.068,0.13,0.103,0.197,0.104c0.27-0.26,0.47-0.354,0.602-0.288c0.068-0.132,0.271-0.359,0.61-0.688
			c0.404-0.258,0.706-0.386,0.905-0.382c0.135-0.197,0.777-0.85,1.929-1.959c0.068-0.132,0.34-0.426,0.813-0.883l0.908-0.582
			c0.001-0.065,0.271-0.359,0.812-0.884c-0.064-0.133-0.142-0.366-0.235-0.701c-0.094-0.333-0.206-0.535-0.338-0.604
			C35.126,66.973,34.829,66.933,34.298,66.924z"/>
	</g>
	<g>
		<path fill="#231F20" d="M149.84,21.108c0.521-0.063,1.302,0.006,2.341,0.21c1.036,0.205,1.74,0.31,2.113,0.315
			c0.15-0.069,0.262-0.03,0.333,0.118c0.072,0.076,0.146,0.114,0.222,0.115l0.226-0.107c0.149-0.069,0.299-0.066,0.446,0.01
			c0.441,0.306,0.773,0.423,0.998,0.353c0,0.074,0.033,0.168,0.106,0.28c0.071,0.113,0.108,0.245,0.104,0.393
			c0.224,0.004,0.481,0.084,0.777,0.237c0.293,0.155,0.555,0.233,0.777,0.237c0.07,0.15,0.289,0.304,0.66,0.459
			c-0.002,0.073,0.068,0.188,0.217,0.338c0.072,0.001,0.223,0.061,0.443,0.176c0.222,0.115,0.367,0.174,0.442,0.175
			c0.363,0.528,0.618,0.792,0.769,0.795c0.658,0.683,1.209,1.064,1.654,1.146c0.29,0.304,0.438,0.529,0.434,0.678l0.224,0.004
			c0.224,0.004,0.463,0.103,0.722,0.292c0.256,0.191,0.459,0.287,0.608,0.289c0.435,0.605,0.687,1.056,0.756,1.354l0.558,0.01
			c0.071,0.149,0.236,0.321,0.494,0.511c0.258,0.191,0.422,0.325,0.495,0.399l-0.006,0.335c-0.012,0.67,0.239,1.12,0.757,1.354
			l-0.006,0.334c0.514,0.383,0.77,0.759,0.762,1.13c-0.002,0.075-0.002,0.15-0.004,0.225l-0.115,0.221l0.305,1.681l-0.006,0.335
			c-0.004,0.149,0.068,0.264,0.218,0.34c0.146,0.151,0.255,0.266,0.328,0.34c-0.313,0.814-0.478,1.741-0.496,2.781
			c-0.002,0.149,0.011,0.373,0.044,0.671c0.031,0.3,0.046,0.56,0.042,0.781c-0.004,0.225,0.009,0.468,0.042,0.728
			c0.033,0.263,0.083,0.561,0.152,0.896c0.066,0.336,0.101,0.579,0.099,0.728c0.06,0.82,0.021,1.973-0.118,3.458
			c-0.138,1.486-0.212,2.453-0.22,2.898c-0.015,0.743,0.123,1.416,0.411,2.017c-0.004,0.224-0.029,0.559-0.074,1.004
			c-0.046,0.445-0.07,0.78-0.074,1.003c-0.001,0.075,0.034,0.188,0.105,0.337c0.07,0.152,0.107,0.301,0.104,0.448l-0.118,0.444
			c-0.002,0.074,0.014,0.168,0.051,0.279c0.033,0.113,0.052,0.207,0.051,0.28c-0.075-0.001-0.112,0.036-0.113,0.108
			c-0.078,0.149-0.082,0.334-0.011,0.56c0.069,0.224,0.104,0.374,0.104,0.447c-0.078,0.147-0.174,0.295-0.287,0.44
			c-0.115,0.148-0.172,0.259-0.174,0.332c0.357,0.751,0.536,1.202,0.533,1.351c-0.004,0.224-0.045,0.371-0.119,0.442
			c-0.001,0.075-0.004,0.206-0.007,0.392c-0.004,0.188,0.065,0.355,0.214,0.508c-0.003,0.148-0.043,0.261-0.117,0.333l0.106,0.225
			c-0.002,0.15,0.069,0.226,0.22,0.229c-0.076,0.072-0.113,0.185-0.117,0.333c-0.007,0.373-0.05,0.595-0.123,0.667
			c-0.076,0.072-0.115,0.147-0.115,0.222c-0.078,0.147-0.043,0.223,0.106,0.226c0.148,0.002,0.224,0.042,0.222,0.115
			c-0.08,0.295-0.123,0.667-0.131,1.113c-0.008,0.373,0.063,0.634,0.209,0.785c-0.002,0.074-0.06,0.147-0.172,0.22
			c-0.113,0.073-0.171,0.146-0.172,0.221l0.329,0.341l-0.011,0.559c-0.018,0.968,0.01,1.563,0.08,1.788
			c-0.002,0.075,0.016,0.11,0.055,0.111c0.035,0,0.055,0.039,0.053,0.112c-0.078,0.222-0.044,0.334,0.105,0.337
			c0.072,0.076,0.07,0.151-0.004,0.225c-0.076,0.072-0.114,0.146-0.115,0.221c0.07,0.149,0.104,0.411,0.098,0.782
			c-0.007,0.374,0.063,0.635,0.209,0.785c-0.008,0.446,0.023,0.745,0.096,0.896l-0.11-0.002c-0.076,0.074-0.115,0.146-0.116,0.221
			c0.141,0.45,0.952,0.764,2.439,0.938l-0.008,0.335c0.148,0.003,0.373-0.066,0.674-0.212c0.367,0.229,0.553,0.383,0.551,0.456
			c0.072,0.002,0.148-0.033,0.227-0.106c0.074-0.072,0.148-0.109,0.225-0.106l1.662,0.697c0.072,0.002,0.187-0.031,0.336-0.104
			c0.297,0.006,0.592,0.161,0.886,0.463c0.665,0.235,1.435,0.957,2.306,2.162c0.072,0.075,0.182,0.226,0.327,0.452
			c0.144,0.226,0.216,0.413,0.213,0.562c-0.017,0.895-0.065,1.488-0.144,1.784c-0.004,0.223-0.235,0.666-0.694,1.327
			c-0.075-0.002-0.149,0.036-0.226,0.107c-0.075,0.072-0.151,0.108-0.225,0.107l-0.115,0.222c-0.002,0.074-0.041,0.11-0.114,0.108
			l-0.904,0.653c-0.075-0.002-0.226,0.069-0.45,0.215c-0.227,0.146-0.377,0.217-0.449,0.216c-0.078,0.072-0.265,0.105-0.561,0.101
			c-0.298-0.005-0.521,0.028-0.671,0.101c-0.45,0.141-0.785,0.21-1.009,0.206c-0.227,0.068-0.523,0.063-0.893-0.018
			c-0.373-0.081-0.634-0.086-0.781-0.014l-0.115,0.108l-0.113,0.109c-0.15-0.003-0.445,0.029-0.895,0.097
			c-0.447,0.064-0.748,0.099-0.896,0.096l-0.334-0.006c-0.072-0.076-0.148-0.114-0.221-0.115l-0.109-0.114l-0.447,0.104
			c-0.225-0.005-0.521-0.065-0.892-0.186c-0.37-0.117-0.593-0.178-0.666-0.179c-0.444-0.083-1.112-0.15-2.006-0.204
			s-1.488-0.082-1.784-0.087c-1.115-0.021-1.936-0.109-2.451-0.269c-0.074-0.001-0.186-0.075-0.33-0.229l-0.449,0.104
			c-0.148-0.003-0.371-0.063-0.666-0.179c-0.297-0.117-0.519-0.177-0.666-0.179c-0.076,0.072-0.112,0.072-0.111-0.002l-0.109-0.114
			l-0.111-0.002c-0.15-0.002-0.226,0.035-0.227,0.107c-0.146-0.149-0.404-0.268-0.775-0.349c-0.371-0.08-0.592-0.159-0.664-0.234
			c-0.074-0.002-0.148-0.06-0.221-0.172c-0.072-0.113-0.146-0.171-0.221-0.172c-0.223-0.005-0.372-0.043-0.443-0.12l-1.438-0.694
			c-0.445-0.156-0.704-0.272-0.774-0.351l-0.111-0.112l-0.223-0.004c-0.074-0.001-0.205-0.076-0.387-0.23
			c-0.184-0.15-0.387-0.229-0.609-0.233c0-0.072-0.222-0.188-0.664-0.347c-0.072-0.149-0.236-0.32-0.494-0.512
			c-0.256-0.189-0.422-0.323-0.492-0.399c-0.07-0.298-0.27-0.637-0.598-1.016c-0.328-0.377-0.527-0.641-0.6-0.792
			c-0.072-0.075-0.146-0.282-0.212-0.616c-0.069-0.337-0.177-0.58-0.322-0.731c0.005-0.225-0.046-0.561-0.149-1.009
			c-0.104-0.447-0.152-0.783-0.148-1.008c-0.145-0.373-0.204-1.045-0.188-2.013c0.002-0.073-0.037-0.149-0.107-0.226
			c-0.073-0.073-0.109-0.149-0.107-0.226c0.008-0.371,0.047-0.557,0.121-0.556c-0.146-0.151-0.234-0.411-0.265-0.785
			c-0.032-0.373-0.12-0.597-0.267-0.675l0.004-0.225c0.004-0.223-0.045-0.632-0.146-1.229s-0.148-1.044-0.143-1.342
			c0.009-0.521,0.089-0.894,0.242-1.112l-0.33-0.229c0.002-0.147,0.022-0.296,0.063-0.444c0.039-0.148,0.063-0.296,0.064-0.444
			l0.002-0.111c-0.074-0.074-0.109-0.149-0.107-0.226c0.001-0.073,0.039-0.186,0.117-0.333l0.113-0.109
			c0-0.072-0.036-0.111-0.109-0.112c-0.074-0.002-0.109-0.039-0.109-0.114l0.133-1.114l-0.104-0.448l0.007-0.335
			c0.016-0.893-0.051-1.452-0.193-1.678c0.002-0.147,0.078-0.296,0.23-0.442c0.001-0.072-0.054-0.13-0.165-0.171
			c-0.11-0.038-0.129-0.095-0.053-0.168c0.003-0.147,0.024-0.464,0.071-0.945c0.047-0.483,0.072-0.837,0.076-1.061
			c0.008-0.446-0.025-0.744-0.097-0.896c-0.067-0.373-0.095-0.932-0.081-1.677c0.002-0.072-0.035-0.168-0.105-0.28
			c-0.073-0.113-0.108-0.207-0.107-0.281l0.006-0.335c0.004-0.148-0.048-0.409-0.152-0.784c-0.104-0.374-0.155-0.672-0.151-0.895
			c0.001-0.073,0.021-0.167,0.062-0.278c0.039-0.111,0.061-0.203,0.062-0.278c-0.147-0.149-0.199-0.374-0.156-0.673
			c0.043-0.295,0.138-0.479,0.29-0.553l0.002-0.111c-0.15-0.002-0.223-0.077-0.22-0.228c0.007-0.371-0.001-0.985-0.022-1.844
			c-0.022-0.854-0.029-1.508-0.021-1.952l0.03-1.675c0.015-0.817,0.098-1.374,0.254-1.67c0.001-0.072,0.004-0.204,0.007-0.391
			c0.003-0.186-0.069-0.317-0.218-0.396c0.078-0.221,0.084-0.592,0.021-1.114c-0.066-0.521-0.023-0.854,0.129-1.002
			c-0.146-0.15-0.256-0.302-0.326-0.452c0.002-0.073,0.004-0.225,0.008-0.446c0.006-0.224,0.043-0.371,0.121-0.444
			c-0.215-0.523-0.314-1.194-0.301-2.016l0.051-2.789c0.002-0.073,0.059-0.128,0.17-0.164c0.113-0.035,0.17-0.09,0.172-0.165
			c0.002-0.147-0.07-0.297-0.217-0.45c0.313-0.887,0.475-1.517,0.48-1.89c0.008-0.446-0.098-0.819-0.314-1.122
			c0.002-0.073,0.021-0.166,0.062-0.276c0.038-0.111,0.06-0.203,0.062-0.278c-0.146-0.3-0.213-0.563-0.209-0.785
			c0-0.073,0.021-0.224,0.063-0.445c0.041-0.222,0.063-0.405,0.066-0.557c0.002-0.073-0.018-0.167-0.053-0.28
			c-0.035-0.111-0.052-0.204-0.051-0.278c0.229-0.293,0.346-0.59,0.352-0.889c0.229-0.292,0.606-0.658,1.137-1.095
			C149.347,21.546,149.687,21.256,149.84,21.108z"/>
	</g>
	<g>
		<g>
			<path fill="#F9C989" d="M104.012,30.13c-2.175,6.974-3.534,14.39-5.098,21.463C96.686,61.7,93.327,72.529,92.69,82.876
				c9.143,5.002,29.066,3.377,38.195-0.021c5.165-1.922,17.875-2.869,20.21-8.365c2.176-5.136-2.539-11.463-5.012-15.061
				c-6.395-9.306-13.23-18.349-19.161-27.51c-2.735-4.222-6.711-7.875-9.789-11.986c-3.112-4.158-2.875-11.739-7.254-14.844
				c-1.19-0.451-0.698,2.945-1.149,3.432C108.729,8.521,106.126,23.354,104.012,30.13z"/>
			<path fill="#231F20" d="M109.717,86.645C109.717,86.645,109.718,86.645,109.717,86.645c-5.195,0-12.417-0.563-17.315-3.242
				l-0.334-0.184l0.023-0.381c0.469-7.627,2.406-15.509,4.279-23.13c0.67-2.726,1.362-5.543,1.958-8.245
				c0.364-1.647,0.718-3.313,1.072-4.989c1.162-5.48,2.363-11.148,4.039-16.522c2.079-6.662,4.673-21.386,4.7-21.533l0.03-0.175
				l0.121-0.13c0.025-0.087,0.063-0.648,0.087-1.021c0.077-1.178,0.173-2.644,1.299-2.644c0.136,0,0.275,0.027,0.416,0.081
				l0.134,0.071c2.692,1.907,3.727,5.326,4.725,8.634c0.725,2.396,1.408,4.662,2.664,6.339c1.302,1.74,2.799,3.433,4.244,5.069
				c1.957,2.211,3.979,4.498,5.566,6.95c3.618,5.59,7.66,11.255,11.569,16.733c2.505,3.511,5.095,7.141,7.583,10.762l0.424,0.613
				c2.557,3.689,6.831,9.862,4.646,15.021c-1.803,4.238-9.069,5.886-14.91,7.209c-2.178,0.492-4.234,0.96-5.645,1.483
				C125.827,85.378,117.435,86.645,109.717,86.645z M93.313,82.527c3.672,1.884,9.473,2.918,16.404,2.918
				c7.587,0,15.813-1.237,20.959-3.152c1.484-0.552,3.579-1.025,5.798-1.528c5.572-1.264,12.508-2.834,14.069-6.509
				c1.927-4.55-2.112-10.384-4.528-13.868l-0.426-0.617c-2.482-3.612-5.068-7.238-7.57-10.745
				c-3.918-5.489-7.968-11.166-11.601-16.777c-1.54-2.378-3.532-4.631-5.458-6.81c-1.463-1.654-2.977-3.365-4.309-5.146
				c-1.381-1.846-2.129-4.318-2.852-6.711c-0.91-3.015-1.851-6.129-4.05-7.839c-0.104,0.332-0.149,1.024-0.177,1.428
				c-0.051,0.759-0.092,1.252-0.276,1.581c-0.261,1.466-2.716,15.154-4.713,21.558c-1.66,5.319-2.854,10.96-4.01,16.414
				c-0.355,1.679-0.709,3.349-1.075,5c-0.599,2.715-1.293,5.54-1.964,8.271C95.707,67.436,93.817,75.126,93.313,82.527z"/>
		</g>
		<g>
			<path fill="#C3996B" d="M90.427,81.488c-4.911,1.616-4.823,10.807,1.507,13.789c5.053,2.381,14.479,1.909,20.004,1.252
				c12.693-1.504,27.629-4.812,38.528-11c4.359-2.475,14.966-6.033,10.566-12.691c-1.146-1.73-6.554-3.544-8.603-2.758
				c-2.968,1.143-3.684,5.119-6.875,6.759c-10.98,5.638-27.029,7.791-39.77,7.591c-6.17-0.1-8.037-1.632-12.742-5.426
				c-0.567,0.205-1.899,0.879-1.599,2.135L90.427,81.488z"/>
			<path fill="#231F20" d="M103.267,97.662c-5.096,0-8.995-0.62-11.589-1.842c-3.945-1.859-5.513-5.919-5.317-9.118
				c0.174-2.838,1.66-5.054,3.878-5.783l0.564-0.193c0.032-1.144,1.06-1.933,2.038-2.285l0.318-0.114l0.263,0.212
				c4.711,3.799,6.445,5.197,12.375,5.292c0.536,0.009,1.076,0.013,1.623,0.013c14.517,0,28.669-2.816,37.862-7.535
				c1.439-0.74,2.367-2.052,3.263-3.318c0.979-1.388,1.995-2.822,3.67-3.467c0.396-0.152,0.894-0.229,1.474-0.229
				c2.521,0,6.722,1.516,7.846,3.216c1.055,1.597,1.384,3.164,0.979,4.662c-0.943,3.492-5.574,5.78-9.293,7.619
				c-0.912,0.45-1.773,0.875-2.455,1.263c-12.552,7.129-29.668,9.998-38.756,11.074C109.949,97.37,106.76,97.662,103.267,97.662z
				 M92.948,79.696c-0.425,0.207-1.077,0.642-0.918,1.302l0.127,0.529l-1.535,0.528c-1.776,0.584-2.918,2.348-3.063,4.72
				c-0.171,2.795,1.194,6.34,4.631,7.959c2.398,1.131,6.229,1.728,11.077,1.728c2.68,0,5.734-0.188,8.6-0.527
				c8.997-1.065,25.937-3.902,38.305-10.927c0.712-0.403,1.588-0.837,2.517-1.296c3.317-1.64,7.863-3.886,8.666-6.855
				c0.316-1.167,0.047-2.373-0.819-3.688c-0.812-1.227-4.521-2.678-6.845-2.678c-0.428,0-0.789,0.052-1.043,0.148
				c-1.336,0.515-2.203,1.74-3.121,3.04c-0.979,1.386-1.992,2.817-3.694,3.691c-9.354,4.803-23.713,7.669-38.41,7.669
				c-0.553,0-1.1-0.004-1.642-0.013C99.527,84.929,97.534,83.393,92.948,79.696z"/>
		</g>
		<path fill="#FAAF40" d="M109.44,24.465c-1.06-7.279,4.229-2.771,5.918,0.383c0.91,1.698,0.391,3.882,1.949,5.565
			c1.225,1.324,4.234,0.594,5.743,2.287c4.06,4.559-1.551,9.163,0.607,14.469c2.269,5.581,8.336,4.261,13.104,4.526
			c0.5,5.873-3.337,8.54-3.695,13.154c5.658,1.338,7.806-3.267,11.356,1.655c4.071,5.645,1.335,8.238-4.229,9.459
			c-9.416,2.062-23.389,8.076-26.862,6.113c-9.074-5.127-4.959-3.592-11.991-5.853c-3.577-4.896-3.834-8.782-2.102-14.818
			c1.99-6.942-0.376-8.213-1.726-14.266c-1.861-8.35,3.318-6.707,7.031-10.338c3.313-3.24,1.72-6.702,4.63-9.797L109.44,24.465z"/>
		<path fill="#FFFFFF" d="M129.544,63.539c4.905,4.045,5.193-1.731,9.465-2.16c-0.255,1.236-0.193,2.477-0.919,3.46
			c4.902,1.684,6.065-3.49,3.812-6.245c-2.205-2.694-6.197-4.024-9.715-3.564c-0.987,1.094-0.121,1.343,0.082,1.975
			c0.508,0.371,2.313,0.396,3.094,0.262C135.205,57.978,130.952,61.379,129.544,63.539z"/>
		<path fill="#F9C989" d="M127.519,70.351c2.729,0.675,7.287-0.834,10.198-0.788c3.068,0.05,8.304-2.146,10.843-0.9
			c-0.91,4.769-13.345,5.637-17.166,6.668c-3.582,0.969-15.535,4.611-11.346-3.357C120.668,71.935,123.558,63.188,127.519,70.351z"
			/>
		<path fill="#A87C4F" d="M98.897,79.76c-0.256-3.99,2.971-4.989,5.914-4.178c2.031,0.562,5.803-2.369,7.654-0.816
			c2.683,2.247-5.651,2.658-6.667,2.842c-1.28,0.229-2.015,1.267-3.155,1.595c-1.229,0.355-2.724-0.249-3.549,0.804
			c-0.295-0.195-0.152-0.352-0.189-0.656L98.897,79.76z"/>
		<g>
			<path fill="#468885" d="M98.219,70.904c0.321-1.691,1.942-3.398,3.348-4.731c1.612-1.529,2.19-2.081,2.211-4.174
				c0.012-1.241-0.734-3.703,1.289-4.374c2.629-0.873,0.698,2.24,1.433,3.061c2.396-0.645,1.287-3.559,1.331-4.893
				c0.089-0.413,0.568-0.984,1.629-0.951c0.814,0.938-0.014,1.826,0.684,2.689c1.082-0.235,1.7-1.536,1.785-2.347
				c0.159-1.479-0.771-2.33,1.488-2.753c1.02,0.587,0.391,2.871,2.189,1.146c0.99-0.948,0.248-2.549,2.146-2.977
				c0.99,1.262,0.108,2.938-1.037,4.196c-0.333,0.366-2.038,0.708-1.627,1.516c0.369,0.729,2.039-0.604,2.546-0.864
				c0.538,0.946-0.871,2.93-2.047,3.555c-1.43,0.764-2.656,0.019-4.145,0.814c-0.321,0.131-0.291,0.34,0.08,0.614
				c4.093-0.096,1.924,2.229-1.254,2.308c-0.562,0.014-3.71-0.18-1.831,1.127c0.706,0.487,2.976-0.802,2.322,1.243
				c-1.071,3.349-5.455,1.026-6.621,1.196c-2.766,0.399-4.128,3.719-5.062,5.614C98.362,71.92,98.155,71.248,98.219,70.904z"/>
			<g>
				<path fill="#7CCDCD" d="M104.458,65.201c-0.059,0-0.119-0.009-0.178-0.027c-0.316-0.098-0.493-0.435-0.395-0.751
					c0.625-2.005,3.29-4.002,6.111-6.114c3.081-2.31,6.267-4.695,6.729-6.998c0.063-0.325,0.377-0.535,0.705-0.471
					c0.325,0.065,0.535,0.382,0.471,0.706c-0.553,2.752-3.926,5.278-7.188,7.723c-2.544,1.905-5.175,3.878-5.684,5.513
					C104.95,65.037,104.713,65.201,104.458,65.201z"/>
			</g>
		</g>
		<g>
			<path fill="#468885" d="M110.556,42.052c1.188-0.592,3.129-0.429,4.723-0.217c1.832,0.241,2.488,0.327,3.74-0.63
				c0.742-0.567,1.776-2.146,3.33-1.266c2.025,1.144-0.928,1.45-0.996,2.26c1.756,1.114,2.85-0.886,3.666-1.479
				c0.297-0.141,0.908-0.122,1.496,0.52c-0.091,0.915-1.091,0.838-1.203,1.646c0.754,0.529,1.883,0.292,2.41-0.033
				c0.969-0.592,0.942-1.532,2.484-0.396c0.236,0.872-1.479,1.563,0.574,1.823c1.13,0.144,1.656-1.037,2.992-0.115
				c-0.181,1.17-1.68,1.426-3.08,1.334c-0.409-0.026-1.588-0.873-1.832-0.263c-0.223,0.56,1.522,0.926,1.971,1.104
				c-0.256,0.757-2.237,0.844-3.283,0.439c-1.268-0.489-1.527-1.561-2.852-2.066c-0.26-0.129-0.369-0.014-0.321,0.332
				c2.401,2.369-0.22,2.167-2.084,0.329c-0.327-0.323-2.015-2.272-1.716-0.558c0.115,0.64,2.179,1.382,0.591,1.946
				c-2.601,0.919-3.729-2.741-4.497-3.352c-1.816-1.447-4.566-0.715-6.227-0.386C110.034,42.607,110.313,42.173,110.556,42.052z"/>
			<g>
				<path fill="#7CCDCD" d="M130.967,45.269c-1.868,0-4.171-0.552-6.422-1.088c-2.575-0.616-5.244-1.255-6.476-0.806
					c-0.309,0.112-0.654-0.046-0.769-0.357c-0.112-0.313,0.048-0.655,0.358-0.77c1.57-0.575,4.287,0.076,7.162,0.766
					c2.979,0.71,6.351,1.513,7.947,0.737c0.297-0.144,0.656-0.021,0.801,0.276c0.146,0.298,0.021,0.656-0.275,0.802
					C132.653,45.143,131.86,45.269,130.967,45.269z"/>
			</g>
		</g>
		<path fill="#FAAF40" d="M113.655,79.985c0,0-4.148-0.95-2.629,7.437c1.521,8.387-2.494,14.289,1.099,13.015
			c4.653-1.648,0.667-8.237,1.028-10.353s1.123-7.585,6.793-6.756C127.497,76.341,113.655,79.985,113.655,79.985z"/>
		<g>
			<path fill="#BE1E2D" d="M120.245,72.097c0,0,24.783-2.206,24.609-7.376c1.674,2.222,2.166,2.072,1.803,2.828
				c-2.706,5.628-20.822,10.122-24.088,8.354C119.306,74.134,120.245,72.097,120.245,72.097z"/>
			<path fill="#F05A28" d="M121.89,70.721c0,0,20.536-10.281,22.965-6c2.426,4.279-15.563,10.286-22.697,9.284
				C117.767,73.391,121.89,70.721,121.89,70.721z"/>
			<g>
				<path fill="#BE1E2D" d="M129.317,68.718c0,0-8.486,2.464-8.59,3.303c-0.103,0.84,4.807,2.159,6.492,0.814
					C128.906,71.488,130.092,68.488,129.317,68.718z"/>
				<path fill="#BE1E2D" d="M135.567,65.853c0,0,7.873-2.901,8.063-1.449s-4.006,5.37-5.368,4.651
					C136.899,68.339,134.788,66.13,135.567,65.853z"/>
				<path fill="#BE1E2D" d="M132.595,67.017c0,0-4.3,4.597-2.996,4.86c1.297,0.263,6.133-1.079,6.243-2.101
					C135.952,68.757,133.161,66.388,132.595,67.017z"/>
			</g>
			<g>
				<path fill="#F6921E" d="M140.051,65.119c0.41,0.399,2.023,0.468,2.001-0.235C141.792,64.517,140.394,64.863,140.051,65.119z"/>
				<path fill="#F6921E" d="M138.694,66.397c0.525-0.07,2.619-0.892,2.673-0.127C141.433,67.176,138.694,66.397,138.694,66.397z"/>
				<path fill="#F6921E" d="M139.993,67.542c-1.145,0.128-2.037-0.272-2.678-0.857C137.315,66.684,140.812,66.58,139.993,67.542z"/>
			</g>
			<g>
				<path fill="#F6921E" d="M123.972,70.611c-0.106,0.563-1.388,1.546-1.771,0.961C122.199,71.118,123.545,70.598,123.972,70.611z"
					/>
				<path fill="#F6921E" d="M125.817,70.879c-0.473,0.243-2.657,0.775-2.26,1.431C124.022,73.088,125.817,70.879,125.817,70.879z"/>
				<path fill="#F6921E" d="M125.411,72.56c1.013-0.554,1.51-1.393,1.693-2.241C127.104,70.318,124.188,72.243,125.411,72.56z"/>
			</g>
			<g>
				<path fill="#F6921E" d="M131.14,69.693c0.277,0.498-0.068,2.075-0.742,1.869C130.104,71.216,130.804,69.955,131.14,69.693z"/>
				<path fill="#F6921E" d="M133.106,68.552c0.146,0.379,1.224,1.934,0.508,1.884C132.771,70.379,133.106,68.552,133.106,68.552z"/>
				<path fill="#F6921E" d="M132.224,71.111c0.357-0.819,0.148-1.583-0.287-2.209C131.937,68.902,131.123,71.473,132.224,71.111z"/>
			</g>
		</g>
		<g>
			<path fill="#BE1E2D" d="M133.929,53.267c0.664,0.18,1.971,1.919,1.971,1.919s-2.476,1.253-7.787,2.264
				c-5.313,1.012-5.529,1.153-6.217,4.923c-0.688,3.769-0.371,6.354-1.961,6.504c-1.595,0.153-3.732-2.051-3.732-2.051
				s2.725-2.7,2.988-4.404c0.262-1.7,2.074-5.403,4.031-5.988c1.957-0.587,4.192,0.055,5.961-1.178
				C130.948,54.021,132.688,52.937,133.929,53.267z"/>
			<path fill="#77111A" d="M135.321,54.474c0,0-3.953,2.043-5.404,2.096c-1.452,0.053-5.698,0.381-6.645,1.109
				c-0.945,0.724-1.574,1.315-1.873,2.757c-0.301,1.44-0.683,4.013-1.105,4.801c-0.423,0.79-0.742,1.762-1.07,1.992
				c-0.326,0.231,1.266,1.953,1.646,1.287s0.562-3.55,0.709-4.016c0.147-0.468,0.371-4.618,1.114-4.963
				c1.785-1.714,8.709-2.283,11.074-3.521c0.558-0.29,2.312-0.846,2.133-0.83C135.716,55.201,135.321,54.474,135.321,54.474z"/>
		</g>
		<g>
			<path fill="#468885" d="M109.896,31.831c2.444-0.276,4.916,0.231,6.893-1.542c2.035-1.822,1.678-4.491-0.879-5.367
				c-1.405-0.479-6.282,0.197-7.334,1.525C107.384,27.949,107.485,31.722,109.896,31.831z"/>
			<path fill="#7CCDCD" d="M108.199,28.643c0.056,0.86,0.552,1.82,1.339,2.461c0.673-1.327,0.184-2.64-0.957-3.714
				C108.185,27.715,108.199,28.643,108.199,28.643z"/>
		</g>
		<g>
			<path fill="#468885" d="M110.567,68.682c-1.344,2.589-3.479,4.688-3.044,7.811c0.451,3.208,3.316,4.625,5.873,2.688
				c1.402-1.065,3.963-6.32,3.351-8.238C116.056,68.775,112.272,66.379,110.567,68.682z"/>
			<path fill="#7CCDCD" d="M114.833,69.119c-0.887-0.515-2.16-0.661-3.313-0.309c0.862,1.538,2.479,1.928,4.295,1.516
				C115.755,69.719,114.833,69.119,114.833,69.119z"/>
		</g>
		<path fill="#FFFFFF" d="M111.356,40.827c0.449,0.813-4.226,4.317-4.944-0.813c-0.705-5.032,4.51-5.162,7.956-5.704
			c3.182-0.502,7.574-2.012,9.808,1.677c2.322,3.835-0.896,6.492-4.521,6.178c0.164-0.919-0.348-2.294-0.172-3.123
			c-2.781,0.641-1.618,7.422-1.282,9.715c-3.277,0.044-4.267,0.587-5.292-2.217c-0.641-1.753,0.115-4.993,0.084-6.869
			c-0.883-0.359-1.186,0.109-1.621,0.331L111.356,40.827z"/>
		<g>
			<path fill="#BE1E2D" d="M106.642,47.243l-0.086,4.807c0,0,6.009-3.73,12.105-2.186c6.097,1.541,10.609,3.554,13.138,0.979
				c2.525-2.573,0.106-6.027,0.106-6.027s-2.141,3.966-7.492,2.746C119.062,46.344,109.183,43.863,106.642,47.243z"/>
			<path fill="#77111A" d="M106.586,50.395c0,0,3.168-2.346,4.947-2.101c1.778,0.245,4.524-1.604,9.901,1.107
				c1.133,0.639,6.642,1.377,8.43,1.063c1.789-0.314,2.835-4.015,2.715-4.312c-0.122-0.298,2.008,4.743-2.283,6.321
				c-2.361,0.868-3.71-0.639-11.054-1.854c-7.343-1.219-10.909,0.429-12.122,1.66C105.91,53.513,106.578,50.817,106.586,50.395z"/>
		</g>
		<path fill="#A78056" d="M131.739,86.449c0,0,26.564-7.366,25.688-11.729c-0.876-4.362,2.676-1.022,3.225,1.406
			c0.545,2.431-32.004,18.836-37.057,15.483C118.542,88.259,129.158,87.199,131.739,86.449z"/>
	</g>
</g>
</svg>
