<?xml version="1.0" encoding="utf-8"?>
<!-- Generator: Adobe Illustrator 16.0.0, SVG Export Plug-In . SVG Version: 6.00 Build 0)  -->
<!DOCTYPE svg PUBLIC "-//W3C//DTD SVG 1.1//EN" "http://www.w3.org/Graphics/SVG/1.1/DTD/svg11.dtd">
<svg version="1.1" id="Layer_1" xmlns="http://www.w3.org/2000/svg" xmlns:xlink="http://www.w3.org/1999/xlink" x="0px" y="0px"
	 width="68.16px" height="60.117px" viewBox="0 0 68.16 60.117" enable-background="new 0 0 68.16 60.117" xml:space="preserve">
<g id="Layer_2">
</g>
<g>
	<path fill="#FFFFFF" d="M1.203,37.207c7.575,11.674,22.345,2.416,22.345,5.435c-1.966,6.896-1.423,19.026,7.94,17.312
		c7.243-1.328,7.49-7.063,10.598-10.586c2.283,2.647,3.596-0.646,5.697,0.264c2.297,0.992,0.606,3.389,1.938,5.004
		c2.981,3.617,10.256,2.541,13.258,0.158c2.938-2.332,6.614-7.701,4.604-11.586c-0.939-1.817-4.138-2.558-4.551-4.223
		c-0.365-1.475,1.918-4.997,2.582-6.259c3.598-6.832,3.997-20.721-5.84-23.464c-4.5-1.254-6.572,1.593-10.466-1.468
		c-1.511-1.187-2.783-3.044-4.978-3.519c-2.957-0.642-2.754,0.815-5.49,1.118c-7.756,0.856-16.063-5.8-23.762-5.372
		C2.701,0.709-2.581,31.376,1.203,37.207z"/>
	<g>
		<path fill="#5AB1AF" d="M41.031,38.664c-2.68,5.09-6.858,21.191-12.301,14.226c-3.788-4.853,0.38-11.104-0.404-14.735
			c-0.701-3.24-12.815-0.063-15.013-0.105c-8.464-0.162-13.86-25.292,3.165-31.603c5.038-1.867,16.473,4.548,18.462,4.576
			c2.491,0.039,4.793-1.953,7.228-1.583c5.015,0.759,10.269,8.848,11.25,13.771c1.451,7.251-2.1,9.35-7.944,11.897L41.031,38.664z"
			/>
		<path fill="#231F20" d="M31.442,55.214c-1.103,0-2.176-0.657-3.188-1.953c-2.586-3.313-1.71-7.26-1.007-10.43
			c0.383-1.729,0.745-3.358,0.488-4.551c-0.138-0.634-1.28-0.982-3.218-0.982c-2.364,0-5.372,0.498-7.789,0.9
			c-1.528,0.254-2.736,0.453-3.371,0.453c-3.828-0.072-7.22-4.599-8.306-11.005C3.757,20.003,5.917,9.716,16.268,5.879
			c0.678-0.251,1.487-0.378,2.406-0.378c3.733,0,8.751,2.046,12.415,3.54c1.728,0.704,3.358,1.369,3.86,1.377h0.002
			c1.086,0,2.096-0.381,3.166-0.785c1.315-0.497,2.696-1.012,4.141-0.791c5.328,0.806,10.719,9.071,11.752,14.25
			c1.525,7.631-2.26,9.933-8.223,12.537l-4.279,3.428c-0.555,1.078-1.196,2.676-1.873,4.361
			C37.414,48.947,34.897,55.214,31.442,55.214z M24.518,36.091c0.984,0,3.979,0,4.397,1.935c0.313,1.45-0.076,3.207-0.489,5.067
			c-0.682,3.074-1.455,6.562,0.779,9.425c0.772,0.987,1.524,1.487,2.236,1.487c2.639,0,5.2-6.379,7.071-11.037
			c0.743-1.852,1.387-3.451,1.983-4.586l0.155-0.189l4.578-3.639c5.61-2.445,8.979-4.296,7.595-11.226
			c-0.943-4.731-5.984-12.571-10.748-13.293c-1.162-0.176-2.303,0.264-3.535,0.728c-1.123,0.425-2.285,0.863-3.529,0.863
			c-0.776-0.011-2.033-0.511-4.379-1.467c-3.571-1.456-8.462-3.451-11.959-3.451c-0.775,0-1.444,0.103-1.986,0.304
			C7.03,10.592,5.025,20.257,6.243,27.445c0.972,5.733,3.95,9.938,7.082,9.999h0.001c0.569,0,1.791-0.202,3.206-0.438
			C18.992,36.599,22.054,36.091,24.518,36.091z"/>
	</g>
	<path fill="#7CCDCD" d="M43.846,32.979c0,0,0.813-15.136-5.169-18.246c-5.979-3.111,0.881-3.632,4.063-3.567
		c3.18,0.067,14.499,13.125,4.783,20.615C46.985,32.195,43.846,32.979,43.846,32.979z"/>
	<g>
		<path fill="#231F20" d="M52.855,53.492c-0.332,0-0.602-0.268-0.604-0.6c-0.002-0.334,0.267-0.605,0.6-0.607
			c3.643-0.021,6.167-1.127,7.303-3.195c1.043-1.899,0.809-4.578-0.601-6.822c-0.642-1.023-1.437-1.814-2.3-2.323
			c-0.207,0.247-0.422,0.494-0.641,0.743c-3.611,4.102-6.863,4.566-8.552,3.725c-0.999-0.5-1.485-1.451-1.271-2.483
			c0.35-1.671,2.625-3.554,7.965-3.83c0.73-0.036,1.465,0.085,2.168,0.353c7.422-9.143,7.203-16.289,4.382-20.026
			c-2.466-3.267-6.933-4.122-11.114-2.134c-0.301,0.144-0.661,0.015-0.805-0.285c-0.145-0.302-0.016-0.662,0.285-0.805
			c4.718-2.244,9.777-1.24,12.598,2.496c3.076,4.076,3.443,11.719-4.24,21.308c0.965,0.604,1.84,1.494,2.547,2.621
			c1.637,2.609,1.887,5.769,0.637,8.047c-0.948,1.726-3.166,3.789-8.354,3.82C52.859,53.492,52.856,53.492,52.855,53.492z
			 M55.019,39.298c-0.066,0-0.133,0.002-0.199,0.005c-4.984,0.259-6.648,1.927-6.846,2.87c-0.102,0.484,0.127,0.906,0.628,1.158
			c1.051,0.525,3.729,0.39,7.104-3.443c0.131-0.146,0.258-0.295,0.385-0.442C55.738,39.349,55.378,39.298,55.019,39.298z"/>
	</g>
	<g>
		<path fill="#FFFFFF" d="M29.077,31.819c-1.576-0.78-4.548-1.112-3.353-3.089c0.415-0.687,1.264-1.616,1.408-2.348
			c0.183-0.939-1.27-1.044-2.153-1.369c-1.572-0.58-1.653-0.618-0.606-1.807c0.431-0.488,1.68-1.793,1.55-2.43
			c-0.113-0.59-1.734-1.162-2.367-1.495c-1.163-0.612-2.09-0.695-0.765-1.955c0.896-0.849,2.248-1.36,1.078-2.236
			c-0.757-0.563-1.824-0.82-2.759-1.183c-0.551-0.186,1.423-1.964,2.088-2.429c0.781-0.477,1.891-0.605,1.266,0.596
			c-0.605,1.165-1.628,1.049,0.045,1.882c0.722,0.363,2.157,1.084,1.966,1.868c-0.193,0.78-2.34,2.061-1.9,2.283
			c1.626,0.762,3.831,1.7,2.52,3.515c-0.493,0.68-1.19,1.546-0.853,1.84c0.508,0.447,1.636,0.86,2.256,1.244
			c1.083,0.672,1.525,0.786,0.968,2.064c-0.307,0.711-0.912,1.227-1.281,1.967c-0.637,1.288,1.196,1.309,2.342,1.757
			c0.541,0.21,1.737,1.261,0.227,1.587C30.239,32.195,29.504,32.064,29.077,31.819z"/>
		<path fill="#FFFFFF" d="M30.558,29c0.145,0.668,1.589,0.881,1.802,0.014c0.263-1.08-1.702-1.244-1.818-0.109L30.558,29z"/>
		<path fill="#FFFFFF" d="M28.556,22.188c-0.527,1.129,1.402,1.387,1.583,0.499C30.308,21.855,29.037,21.537,28.556,22.188z"/>
		<path fill="#FFFFFF" d="M26.992,17.762c0.363,0.99,2,0.5,1.702-0.46C28.416,16.398,26.712,16.758,26.992,17.762z"/>
		<path fill="#FFFFFF" d="M25.676,13.08c0.296,0.85,1.639,0.549,1.54-0.25C27.097,11.844,25.511,12.196,25.676,13.08z"/>
		<path fill="#FFFFFF" d="M20.775,17.103c1.052,0.626,2.057-0.917,1.139-1.329C20.963,15.345,19.908,16.479,20.775,17.103z"/>
		<path fill="#FFFFFF" d="M22.463,22.313c0.966,0.261,1.378-0.832,0.856-1.127C21.889,20.639,21.802,22.146,22.463,22.313z"/>
		<path fill="#FFFFFF" d="M24.001,27.102c-0.477,0.757,0.809,1.107,1.22,0.491C25.778,26.754,24.154,26.779,24.001,27.102z"/>
	</g>
	<g>
		<g>
			<defs>
				<path id="SVGID_1_" d="M39.179,38.153c-2.574,4.892-6.006,22.604-11.233,15.911c-3.64-4.66-2.256-13.691-3.01-17.18
					c-0.674-3.114-8.975,0.865-11.086,0.824C5.719,37.55,0.536,13.412,16.891,7.35c4.839-1.792,15.824,4.37,17.735,4.396
					c2.394,0.038,4.604-1.875,6.941-1.521c4.816,0.729,9.864,8.5,10.809,13.229c1.394,6.967-3.807,9.792-9.422,12.24L39.179,38.153z
					"/>
			</defs>
			<clipPath id="SVGID_2_">
				<use xlink:href="#SVGID_1_"  overflow="visible"/>
			</clipPath>
			<g clip-path="url(#SVGID_2_)">
				<path fill="#FFFFFF" d="M30.101,8.107c-0.775,1.453-2.807,3.144-0.944,4.388c0.648,0.433,1.738,0.884,2.206,1.482
					c0.603,0.77-0.419,1.548-0.91,2.257c-0.875,1.266-0.92,1.34,0.445,1.93c0.562,0.245,2.13,0.849,2.354,1.489
					c0.206,0.593-0.71,1.871-1.012,2.474c-0.556,1.104-1.2,1.616,0.406,2.142c1.082,0.356,2.336,0.188,1.904,1.533
					c-0.281,0.868-0.94,1.601-1.452,2.368c-0.316,0.429,2.022,1.125,2.745,1.238c0.816,0.068,1.701-0.334,0.643-1.137
					c-1.025-0.778-1.723-0.193-0.902-1.737c0.358-0.67,1.063-1.999,0.528-2.623c-0.528-0.619-2.75-0.783-2.535-1.195
					c0.821-1.449,1.987-3.34,0.119-4.382c-0.703-0.391-1.646-0.852-1.543-1.277c0.151-0.643,0.783-1.549,1.051-2.193
					c0.465-1.118,0.735-1.428-0.308-2.335c-0.581-0.503-1.284-0.69-1.925-1.192c-1.109-0.876,0.233-1.755,0.859-2.698
					c0.295-0.448,0.659-1.966-0.619-1.554C30.775,7.225,30.299,7.687,30.101,8.107z"/>
				<path fill="#FFFFFF" d="M32.598,9.983c-0.226-0.673,0.736-1.547,1.326-0.854c0.728,0.858-0.642,1.931-1.293,0.951L32.598,9.983z
					"/>
				<path fill="#FFFFFF" d="M34.496,17.134c-0.949-0.783,0.351-1.92,0.925-1.193C35.958,16.616,35.177,17.504,34.496,17.134z"/>
				<path fill="#FFFFFF" d="M35.537,21.903c-0.225-1.072,1.23-1.392,1.485-0.378C37.262,22.479,35.826,22.947,35.537,21.903z"/>
				<path fill="#FFFFFF" d="M36.884,26.787c-0.202-0.91,0.939-1.266,1.264-0.494C38.548,27.248,37.203,27.673,36.884,26.787z"/>
				<path fill="#FFFFFF" d="M31.268,25.416c0.466-1.06,1.976-0.126,1.5,0.678C32.279,26.929,30.933,26.391,31.268,25.416z"/>
				<path fill="#FFFFFF" d="M29.932,19.875c0.585-0.689,1.431,0.114,1.19,0.625C30.337,21.67,29.524,20.336,29.932,19.875z"/>
				<path fill="#FFFFFF" d="M28.693,14.788c-0.728-0.468,0.046-1.391,0.657-1.018C30.179,14.273,28.964,15.011,28.693,14.788z"/>
			</g>
		</g>
	</g>
</g>
</svg>
