<?xml version="1.0" encoding="utf-8"?>
<!-- Generator: Adobe Illustrator 16.0.0, SVG Export Plug-In . SVG Version: 6.00 Build 0)  -->
<!DOCTYPE svg PUBLIC "-//W3C//DTD SVG 1.1//EN" "http://www.w3.org/Graphics/SVG/1.1/DTD/svg11.dtd">
<svg version="1.1" id="Layer_1" xmlns="http://www.w3.org/2000/svg" xmlns:xlink="http://www.w3.org/1999/xlink" x="0px" y="0px"
	 width="190.6px" height="98.412px" viewBox="0 0 190.6 98.412" enable-background="new 0 0 190.6 98.412" xml:space="preserve">
<path fill="#999999" d="M190.7,43.863c0.592-1.2,0.899-2.521,0.899-3.858c0-2.837-1.017-5.433-2.872-7.531
	c0.121-0.241,0.244-0.481,0.352-0.731c0.455-0.966,0.789-2.101,0.951-3.43c0.068-0.556,0.125-1.216,0.177-2.039
	c0.358-1.504,0.533-2.859,0.533-4.118c0-0.306-0.008-0.823-0.035-1.552l0.012-0.165c0.05-0.678,0.02-1.359-0.09-2.03l-0.282-1.739
	c-0.021-0.129-0.044-0.258-0.071-0.386c-0.423-2.027-0.893-3.623-1.431-4.938c-1.44-3.871-5.03-6.297-9.319-6.297h-0.188
	c-0.712,0-1.422,0.049-2.113,0.221c-0.443,0.111-0.872,0.46-1.286,0.62c-0.351-0.036-0.706,0.159-1.064,0.159
	c-0.008,0-0.039,0-0.048,0c-0.371,0-0.742-0.209-1.11-0.163c-0.865,0.057-1.721,0.096-2.559,0.352
	c-0.118,0.028-0.232,0.009-0.349,0.042c-0.928-0.246-1.9-0.41-2.908-0.41c-0.706,0-1.404,0.007-2.098,0.104
	c-1.547-1.185-3.46-1.925-5.533-1.925h-0.234c-0.752,0-1.466,0.103-2.139,0.222c-0.625-0.17-1.305-0.288-2.045-0.379
	c-0.358-0.045-0.72-0.058-1.08-0.058c-0.387,0-0.774,0.031-1.159,0.082c-2.275,0.305-4.076,1-5.438,2.105
	c-1.848-1.191-4.047-1.972-6.42-1.972h-0.282c-1.398,0-2.747,0.152-4.014,0.614c-0.989-0.333-2.052-0.614-3.171-0.614h-0.235
	c-0.366,0-0.731,0.238-1.095,0.284c-1.168,0.147-2.209,0.555-3.125,0.972c-0.283-0.029-0.602,0.023-0.902,0.008
	c-1.664-0.886-3.557-1.319-5.41-1.319c-1.67,0-3.299,0.266-4.843,0.765c-0.169,0.055-0.325,0.144-0.491,0.209
	c-1.344-0.447-2.801-0.692-4.352-0.692c-0.101,0-0.201,0.003-0.302,0.007c-1.135,0.039-2.146-0.042-3.058,0.158
	c-0.605-0.114-1.231-0.391-1.876-0.391h-0.235c-0.366,0-0.731,0.238-1.095,0.284c-1.168,0.147-2.209,0.555-3.125,0.972
	c-0.549-0.057-1.131-0.034-1.749-0.034c-0.945,0-1.859,0.146-2.732,0.379c-0.12-0.01-0.238-0.018-0.357-0.023
	c-0.575-0.028-1.179-0.069-1.828-0.135c-0.292-0.03-0.586-0.042-0.879-0.042c-0.084,0-0.167,0.002-0.25,0.004
	C95.959,5.4,95.54,5.354,95.079,5.312c-0.268-0.024-0.533-0.037-0.799-0.037c-0.355,0-0.709,0.022-1.059,0.065
	c-0.408,0.026-0.813,0.083-1.214,0.166c-1.823-0.763-3.472-0.912-4.466-0.912c-2.723,0-5.323,0.864-7.548,2.504
	c-2.127,1.475-3.678,3.721-4.399,6.387c-0.266,0.984-0.159,2.007-0.072,3.021c0.005,0.058,0.213,0.114,0.213,0.171v0.496
	c0,0.926-0.069,1.684,0.224,3.115c0.139,0.82,0.581,1.655,0.894,2.513c-0.85,1.438-1.117,3.125-1.117,4.946v0.329
	c0,0.695-0.242,1.381-0.109,2.052L43.586,8.102c-0.554-0.382-1.226-0.715-1.874-1.006c-0.217-0.099-0.477-0.189-0.694-0.269
	c-0.45-0.171-0.904-0.312-1.359-0.422c-0.262-0.063-0.529-0.133-0.748-0.17c-0.396-0.068-0.795-0.107-1.153-0.127
	C37.481,6.083,37.2,6.047,36.87,6.047c-0.003,0-0.005,0-0.008,0c-0.569,0-1.147,0.074-1.726,0.167
	c-0.37,0.06-0.731,0.18-1.165,0.296c-0.223,0.059-0.441,0.113-0.641,0.181c-0.369,0.123-0.728,0.262-1.119,0.438
	c-0.202,0.092-0.4,0.19-0.639,0.316c-0.365,0.195-0.677,0.4-0.928,0.586c-1.849,1.061-2.711,2.459-3.09,3.125l-5.194,7.5
	c-2.585-1.248-5.78-0.809-7.922,1.334l-0.75,0.746l-0.743-0.746c-2.711-2.707-7.102-2.707-9.813,0l-0.102,0.103
	c-2.709,2.71-2.711,7.104,0,9.813l0.746,0.743l6.07,6.074l-5.277,7.619c-0.642,0.928-1.138,1.921-1.479,2.961
	c-0.105,0.273-0.192,0.554-0.262,0.839c-0.105,0.439-0.185,0.889-0.231,1.306c-0.023,0.184-0.045,0.367-0.06,0.563
	c-0.032,0.443-0.04,0.863-0.025,1.23c0.009,0.263,0.03,0.521,0.055,0.743c0.021,0.236,0.063,0.677,0.166,1.159
	c0.115,0.564,0.272,1.117,0.466,1.642c0.108,0.297,0.234,0.584,0.355,0.829c0.169,0.372,0.336,0.695,0.513,0.997
	c0.14,0.238,0.293,0.473,0.465,0.724c0.245,0.353,0.517,0.699,0.82,1.047c0.154,0.178,0.311,0.349,0.456,0.493
	c0.51,0.516,1.032,0.955,1.607,1.354l50.964,35.208c0.57,0.394,1.179,0.729,1.917,1.056c0.149,0.064,0.299,0.116,0.494,0.189
	c0.467,0.178,0.924,0.306,1.396,0.42c0.031,0.008,0.091-0.008,0.122-0.002c0.158,0.037,0.314,0.012,0.555,0.057
	c0.431,0.076,0.867,0.04,1.349,0.067c0.221,0.018,0.441-0.177,0.661-0.177c0.009,0,0.018,0,0.026,0c0.603,0,1.212,0.151,1.771,0.058
	c0.349-0.056,0.689,0.086,1.077-0.017c0.017-0.005,0.104-0.036,0.12-0.04c0.217-0.059,0.436-0.126,0.609-0.185
	c0.382-0.128,0.763-0.281,1.204-0.483c0.155-0.072,0.305-0.148,0.454-0.228c1.688-0.877,3.076-2.093,4.129-3.617l4.542-6.574
	c0.531,2.203,1.287,4.127,2.279,5.79c0.309,0.516,0.669,0.816,1.076,1.259c3.857,4.184,7.721,6.036,11.811,6.036h5.537
	c2.17,0,4.396-0.092,6.615-0.635c0.221-0.055,0.44-0.026,0.656-0.097c3.098-1.02,5.289-2.356,6.854-3.815
	c1.498,0.433,2.834,0.547,3.761,0.547h0.567c0.971,0,2.084-0.084,3.55-0.354c1.466,0.27,2.579,0.407,3.549,0.407
	c3.481,0,6.562-1.307,8.727-3.591c0.243-0.165,0.483-0.47,0.718-0.66c3.447,6.553,8.795,7.198,11.067,7.198h0.284
	c0.521,0,1.04,0.085,1.553-0.007c5.052-0.913,8.357-1.967,10.719-3.564c0.082-0.056,0.163-0.079,0.243-0.138
	c0.038-0.028,0.068-0.045,0.106-0.073c0.184,0.142,0.368,0.289,0.563,0.418c2.817,1.84,6.422,2.739,11.021,2.739
	c0.904,0,1.869-0.034,2.874-0.102c0.123,0.002,0.244,0.003,0.365,0.003c5.049,0,13.966-1.244,16.964-9.575
	c0.341-0.947,0.516-1.946,0.516-2.953c0-6.166-4.856-9.413-9.892-10.156c-0.008-0.403-0.156-0.85-0.156-1.344v-0.927l0.252-1.213
	c0.107-1.216,0.029-2.435-0.359-3.58c0.043-0.551,0.113-1.013,0.139-1.408c3.309-1.068,5.959-3.452,7.388-6.814
	c0.459-1.079,0.704-2.24,0.704-3.413c0-2.259-0.707-4.407-2.034-6.24c-0.124-0.203-0.254-0.399-0.395-0.588
	C188.627,47.411,189.946,45.391,190.7,43.863z"/>
<path fill="#999999" d="M64.337,2.163l-0.428,0.426l-0.425-0.426c-1.55-1.55-4.06-1.55-5.609,0l-0.058,0.057
	c-1.551,1.551-1.551,4.062,0,5.612l0.425,0.425l5.667,5.669l5.67-5.669l0.426-0.425c1.551-1.551,1.551-4.062,0-5.612l-0.059-0.057
	C68.397,0.613,65.886,0.613,64.337,2.163z"/>
<path fill="#999999" d="M18.789,2.177l-0.258,0.256l-0.255-0.256c-0.929-0.929-2.434-0.929-3.363,0l-0.035,0.034
	c-0.929,0.93-0.93,2.436,0,3.364l0.256,0.256l3.397,3.401l3.401-3.401l0.255-0.256c0.931-0.929,0.931-2.435,0-3.364l-0.034-0.034
	C21.224,1.249,19.717,1.249,18.789,2.177z"/>
<g>
	<g>
		<path fill="#FFFFFF" d="M22.608,29.649l0.742-0.743c2.714-2.71,2.714-7.104,0-9.813L23.25,18.99c-2.711-2.707-7.104-2.707-9.811,0
			l-0.75,0.746l-0.743-0.746c-2.711-2.707-7.102-2.707-9.813,0l-0.102,0.103c-2.709,2.71-2.711,7.104,0,9.813l0.746,0.743
			l9.911,9.919L22.608,29.649z"/>
	</g>
	<g>
		<path fill="#FFFFFF" d="M63.874,96.047c-0.22,0-0.44,0.194-0.661,0.178c-0.482-0.027-0.919,0.024-1.349-0.052
			c-0.24-0.045-0.397-0.028-0.555-0.063c-0.031-0.007-0.09,0.005-0.121-0.002c-0.473-0.115-0.929-0.244-1.396-0.422
			c-0.195-0.074-0.344-0.126-0.494-0.191c-0.738-0.327-1.347-0.662-1.917-1.056L6.417,59.231c-0.576-0.399-1.097-0.839-1.607-1.355
			c-0.146-0.146-0.302-0.317-0.456-0.495c-0.304-0.347-0.576-0.693-0.821-1.046c-0.172-0.25-0.326-0.484-0.465-0.723
			c-0.177-0.302-0.344-0.626-0.513-0.998C2.435,54.37,2.31,54.085,2.201,53.79c-0.194-0.526-0.351-1.08-0.467-1.646
			c-0.103-0.481-0.144-0.922-0.166-1.159c-0.024-0.222-0.045-0.479-0.054-0.743c-0.015-0.367-0.007-0.787,0.025-1.23
			c0.015-0.196,0.035-0.379,0.06-0.563c0.047-0.417,0.125-0.866,0.231-1.306c0.069-0.285,0.156-0.565,0.261-0.839
			c0.341-1.04,0.837-2.033,1.48-2.961l22.984-33.186c0.379-0.666,1.241-2.066,3.09-3.126c0.251-0.186,0.563-0.392,0.927-0.586
			c0.239-0.126,0.437-0.227,0.639-0.319c0.391-0.176,0.75-0.318,1.119-0.441c0.199-0.067,0.418-0.13,0.641-0.188
			c0.434-0.116,0.795-0.221,1.166-0.281c0.577-0.093,1.155-0.166,1.726-0.166c0.002,0,0.005,0,0.007,0
			c0.33,0,0.606,0.036,0.883,0.061c0.357,0.021,0.752,0.076,1.147,0.145c0.219,0.036,0.477,0.098,0.738,0.162
			c0.455,0.11,0.891,0.248,1.341,0.418c0.218,0.079,0.437,0.167,0.655,0.266c0.647,0.292,1.24,0.624,1.794,1.005l50.966,35.21
			c0.57,0.395,1.096,0.839,1.612,1.361c0.146,0.146,0.305,0.321,0.46,0.501c0.299,0.338,0.58,0.698,0.836,1.071
			c0.153,0.224,0.284,0.425,0.406,0.63c0.225,0.385,0.413,0.752,0.596,1.159c0.094,0.191,0.211,0.461,0.312,0.739
			c0.19,0.522,0.349,1.079,0.462,1.634c0.072,0.345,0.12,0.707,0.157,1.073c0.001,0.011,0.011,0.109,0.012,0.12
			c0.023,0.223,0.04,0.429,0.049,0.637c0.017,0.388,0.011,0.805-0.02,1.259c-0.002,0.039-0.005,0.079-0.009,0.118
			c-0.014,0.164-0.031,0.325-0.052,0.489c-0.21,1.82-0.856,3.556-1.911,5.085L73.266,91.536c-1.053,1.524-2.442,2.74-4.129,3.616
			c-0.15,0.079-0.299,0.154-0.454,0.227c-0.442,0.202-0.823,0.353-1.205,0.48c-0.173,0.059-0.392,0.123-0.609,0.181
			c-0.016,0.004-0.104,0.028-0.12,0.032c-0.388,0.104-0.729-0.022-1.078,0.033c-0.559,0.093-1.169-0.058-1.771-0.058
			C63.892,96.047,63.883,96.047,63.874,96.047z"/>
		<path fill="#FFFFFF" d="M91.505,52.043c0.012-0.175,0.018-0.347,0.01-0.522c-0.004-0.094-0.016-0.187-0.024-0.279
			c-0.017-0.158-0.028-0.314-0.061-0.47c-0.048-0.233-0.114-0.464-0.196-0.688c-0.033-0.092-0.08-0.178-0.12-0.267
			c-0.073-0.163-0.151-0.322-0.242-0.478c-0.05-0.084-0.104-0.165-0.161-0.248c-0.107-0.156-0.225-0.306-0.354-0.449
			c-0.057-0.065-0.111-0.132-0.173-0.193c-0.196-0.198-0.409-0.387-0.647-0.552L38.574,12.69c-0.239-0.165-0.489-0.296-0.743-0.41
			c-0.084-0.038-0.17-0.066-0.255-0.099c-0.173-0.065-0.347-0.121-0.524-0.164c-0.104-0.025-0.207-0.051-0.313-0.068
			c-0.163-0.028-0.326-0.043-0.488-0.053c-0.111-0.008-0.222-0.022-0.332-0.022c-0.235,0.002-0.469,0.022-0.7,0.06
			c-0.157,0.025-0.309,0.068-0.462,0.109c-0.095,0.025-0.188,0.048-0.28,0.079c-0.155,0.052-0.306,0.113-0.456,0.181
			c-0.086,0.039-0.169,0.084-0.252,0.128c-0.145,0.077-0.08,0.154-0.216,0.247c-0.008,0.006,0.183,0.01,0.183,0.016v0.005
			c-1,0.309-1.063,0.689-1.39,1.163L9.202,47.364c-0.329,0.476-0.619,0.683-0.751,1.683H8.437c-0.002,0-0.008-0.154-0.01-0.15
			c-0.043,0.178-0.071,0.276-0.092,0.458c-0.01,0.078-0.021,0.115-0.027,0.193c-0.013,0.173-0.018,0.324-0.011,0.496
			c0.003,0.091,0.013,0.17,0.022,0.26c0.016,0.163,0.028,0.32,0.063,0.481c0.047,0.229,0.109,0.452,0.19,0.669
			c0.038,0.107,0.094,0.206,0.142,0.309c0.065,0.147,0.135,0.291,0.217,0.431c0.055,0.094,0.117,0.185,0.18,0.275
			c0.102,0.146,0.211,0.285,0.33,0.42c0.063,0.072,0.123,0.145,0.191,0.213c0.195,0.197,0.406,0.383,0.643,0.547l50.965,35.21
			c0.24,0.166,0.494,0.299,0.752,0.413c0.072,0.031,0.145,0.056,0.216,0.084c0.192,0.073,0.384,0.134,0.581,0.182
			c0.086,0.02,0.17,0.039,0.258,0.056c0.193,0.034,0.387,0.053,0.581,0.063c0.083,0.004,0.165,0.015,0.247,0.015
			c0.246-0.001,0.49-0.022,0.732-0.063c0.147-0.023,0.289-0.065,0.436-0.104c0.096-0.026,0.195-0.051,0.29-0.083
			c0.167-0.056,0.327-0.122,0.487-0.195c0.057-0.026,0.11-0.055,0.165-0.084c0.656-0.337,1.25-0.815,1.698-1.464l23.035-33.342
			c0.443-0.643,0.681-1.359,0.765-2.086C91.491,52.181,91.499,52.113,91.505,52.043z"/>
	</g>
	<g>
		<g>
			<g>
				<path fill="#FFFFFF" d="M86.213,39.797c-4.228,0-7.867-2.103-9.798-5.573c-0.596-0.903-1.072-1.876-1.412-2.889
					c-0.592-1.333-0.899-2.777-0.899-4.258v-0.329c0-1.821,0.484-3.509,1.334-4.946c-0.313-0.857-0.538-1.692-0.677-2.513
					c-0.292-1.432-0.421-2.189-0.421-3.115v-0.496c-0.005-0.057-0.01-0.113-0.015-0.171c-0.087-1.015,0.005-2.038,0.271-3.021
					c0.721-2.667,2.273-4.913,4.399-6.387c2.225-1.64,4.825-2.503,7.548-2.503c2.245,0,7.831,0.746,11.218,7.657
					c0.17,0.346,0.316,0.703,0.439,1.068c0.406,1.212,0.615,2.537,0.722,4.57c0.008,0.152,0.012,0.305,0.012,0.458
					c0,1.64-0.443,3.287-1.317,4.727c0,0.001,0.073,0.396,0.073,0.396c0.222,1.215,0.305,1.669,0.305,2.49v0.329
					c0.003,0.21,0.029,0.486,0.06,0.823c0.078,0.877,0.023,1.759-0.162,2.616c-0.001,0.024-0.002,0.048-0.004,0.074
					c-0.048,0.913-0.239,1.813-0.567,2.667c-0.601,1.567-1.456,3.021-2.545,4.33c-1.708,2.291-4.359,3.702-7.403,3.919
					C86.99,39.771,86.603,39.797,86.213,39.797z"/>
				<path fill="#FFFFFF" d="M94.315,39.127c-2.656,0-4.958-0.625-6.843-1.856c-1.917-1.253-3.264-3.208-3.751-5.445
					c-0.476-2.182-0.717-4.361-0.717-6.477c0-0.416,0.014-0.854,0.043-1.353c-0.043-0.356-0.08-0.741-0.112-1.163
					c-0.038-0.49-0.034-0.983,0.012-1.472l0.021-0.231c-0.023-0.373-0.037-0.758-0.053-1.16c-0.013-0.335-0.006-0.671,0.02-1.006
					l0.145-1.864c-0.02-0.247-0.029-0.492-0.029-0.739v-0.106c-0.063-0.598-0.063-1.203,0-1.807V13.8
					c0-3.13,1.764-7.124,6.714-8.942c0.791-0.291,1.618-0.465,2.456-0.518c0.35-0.042,0.703-0.064,1.058-0.064
					c0.266,0,0.532,0.012,0.799,0.037c0.461,0.042,0.88,0.089,1.266,0.142c0.083-0.002,0.167-0.002,0.25-0.002
					c0.293,0,0.586,0.015,0.878,0.044c0.65,0.066,1.253,0.114,1.828,0.142c1.3,0.064,2.57,0.417,3.715,1.036
					c3.296,1.778,5.264,4.996,5.264,8.608c0,1.338-0.308,2.658-0.899,3.858c-0.029,0.06-0.06,0.119-0.09,0.178
					c0.056,0.409,0.083,0.823,0.083,1.24c0,1.17-0.235,2.329-0.692,3.407c-0.118,0.279-0.248,0.55-0.387,0.813
					c1.131,1.59,1.714,3.485,1.714,5.332c0,1.007-0.174,2.007-0.515,2.955c-0.592,1.646-3.138,7.006-11.055,7.03
					C95.045,39.117,94.669,39.127,94.315,39.127z"/>
				<path fill="#FFFFFF" d="M105.95,38.833c-0.973,0-1.916-0.138-2.813-0.404c-0.58,0.09-1.105,0.122-1.557,0.122
					c-5.912,0-10.371-4.518-10.371-10.51c0-0.204,0.007-0.407,0.021-0.61c0.04-0.563,0.07-1.013,0.092-1.348
					c-0.11-0.91-0.16-1.617-0.16-2.226c0-0.339,0.018-0.651,0.047-0.94c0-0.254,0.011-0.509,0.033-0.762
					c-0.008-0.076-0.017-0.159-0.027-0.249c-0.064-0.576-0.07-1.156-0.019-1.733c0.14-1.583,0.249-3.063,0.33-4.509
					c-0.027-0.601-0.035-1.031-0.035-1.299c0-5.015,2.881-8.229,6.264-9.401c1.14-0.425,2.359-0.64,3.636-0.64
					c0.618,0,1.201,0.03,1.749,0.088c0.917-0.417,1.958-0.718,3.125-0.866c0.363-0.046,0.729-0.069,1.095-0.069h0.235
					c4.898,0,8.819,3.449,9.402,8.048c0.146,0.412,0.262,0.805,0.356,1.202c0.185,0.78,0.262,1.582,0.228,2.383l-0.059,1.381
					c0.076,0.67,0.113,1.382,0.113,2.149c0,0.462-0.022,0.911-0.067,1.346c0.014,0.293,0.021,0.596,0.021,0.91
					c0,0.633-0.03,1.218-0.094,1.769c0,0.006,0,0.011,0,0.017c0,1.311-0.047,2.35-0.155,3.242c0.011,0.321,0.015,0.555,0.015,0.707
					c0,0.464-0.032,0.883-0.099,1.382c0.003,0.087,0.004,0.175,0.004,0.262c0,4.075-2.513,8.943-9.565,10.382
					C107.121,38.774,106.536,38.833,105.95,38.833z"/>
				<path fill="#FFFFFF" d="M113.348,39.902c-1.714,0-3.342-0.432-4.767-1.229c-2.041-0.791-3.762-2.212-4.895-4.117
					c-0.349-0.586-0.627-1.21-0.83-1.861c-0.475-1.522-0.751-3.125-0.841-4.886c-0.081-0.707-0.118-1.511-0.118-2.508v-0.145
					c-0.095-1.04-0.142-1.934-0.142-2.721c0-0.18,0.005-0.354,0.016-0.521c-0.02-0.255-0.037-0.528-0.051-0.823
					c-0.014-0.275-0.015-0.55-0.003-0.826c0.011-0.254,0.022-0.496,0.034-0.729c-0.045-0.458-0.055-0.918-0.027-1.377l0.071-1.202
					c-0.024-0.805-0.035-1.578-0.039-2.319c-0.113-0.562-0.188-1.174-0.188-1.838c0-0.936,0.308-9.15,10.961-9.519
					c0.101-0.003,0.201-0.005,0.302-0.005c4.46,0,8.199,1.929,10.449,5.321c1.045,1.405,1.962,3.126,2.793,5.239
					c0.077,0.196,0.147,0.395,0.21,0.596c0.649,2.08,0.914,3.5,0.914,4.9c0,0.127-0.002,0.255-0.006,0.383
					c0.069,0.596,0.1,1.079,0.1,1.544c0,0.521-0.032,1.071-0.101,1.715c0.004,0.134,0.007,0.268,0.007,0.4
					c0,0.827-0.118,1.649-0.349,2.442c-0.055,0.185-0.063,0.264-0.063,0.272c-0.085,0.937-0.321,1.854-0.699,2.716
					c-0.246,0.562-0.32,0.794-0.323,0.804c-0.329,1.262-0.924,2.387-1.748,3.35c-0.469,0.778-1.059,1.48-1.748,2.079
					C119.316,39.006,115.863,39.902,113.348,39.902z"/>
				<path fill="#FFFFFF" d="M121.483,39.879c-3.573,0-6.653-1.739-8.348-4.575c-0.868-1.32-1.568-3.121-1.641-5.524l-0.263-3.464
					c-0.017-0.22-0.025-0.44-0.025-0.661c0-0.421,0.024-0.852,0.078-1.627l-0.066-1.248c-0.019-0.355-0.016-0.711,0.009-1.067
					c0.072-1.044,0.207-2.269,0.344-3.452c0.01-0.186,0.011-0.385,0.011-0.595v-0.423c0-0.325,0.019-0.66,0.059-1.001
					c-0.062-0.217-0.114-0.433-0.159-0.647c-0.027-0.129-0.05-0.259-0.071-0.39l-0.13-0.811c-0.179-1.118-0.139-2.26,0.118-3.362
					c0.345-1.48,1-2.878,1.947-4.156c1.083-1.461,2.596-2.547,4.327-3.105c1.543-0.499,3.173-0.751,4.843-0.751
					c6.857,0,10.559,5.101,10.559,9.9c0,1.017-0.154,2.265-0.667,3.605c0.197,0.999,0.291,1.869,0.291,2.693
					c0,0.187-0.006,0.369-0.017,0.545c0.011,0.193,0.017,0.388,0.017,0.583v0.235c0,0.612-0.049,1.219-0.146,1.817
					c-0.01,0.353-0.037,0.755-0.09,1.316c0.118,0.796,0.126,1.604,0.022,2.403c-0.026,0.199-0.055,0.394-0.086,0.584l0.255,2.551
					c0.029,0.289,0.044,0.578,0.044,0.868v0.235c0,3.622-2.306,7.805-7.335,8.997c-1.131,0.351-2.351,0.527-3.646,0.527H121.483z"/>
				<path fill="#FFFFFF" d="M131.639,38.833c-0.973,0-1.916-0.138-2.813-0.404c-0.58,0.09-1.105,0.122-1.557,0.122
					c-5.912,0-10.371-4.518-10.371-10.51c0-0.204,0.007-0.407,0.021-0.61c0.04-0.563,0.07-1.013,0.092-1.348
					c-0.11-0.91-0.16-1.617-0.16-2.226c0-0.335,0.018-0.647,0.047-0.937c0-0.256,0.011-0.511,0.033-0.766
					c-0.008-0.076-0.017-0.159-0.027-0.248c-0.064-0.576-0.07-1.156-0.019-1.733c0.14-1.583,0.249-3.063,0.33-4.509
					c-0.027-0.601-0.035-1.031-0.035-1.299c0-5.015,2.881-8.229,6.264-9.401c1.14-0.425,2.359-0.64,3.636-0.64
					c0.618,0,1.2,0.03,1.749,0.088c0.917-0.417,1.957-0.718,3.125-0.866c0.363-0.046,0.729-0.069,1.095-0.069h0.235
					c4.898,0,8.818,3.449,9.402,8.048c0.146,0.412,0.262,0.805,0.356,1.202c0.185,0.78,0.261,1.582,0.228,2.383l-0.059,1.381
					c0.075,0.67,0.113,1.382,0.113,2.149c0,0.462-0.022,0.911-0.068,1.346c0.015,0.293,0.021,0.596,0.021,0.91
					c0,0.633-0.031,1.218-0.094,1.769c0,0.006,0,0.011,0,0.017c0,1.312-0.048,2.352-0.156,3.245
					c0.011,0.319,0.015,0.552,0.015,0.704c0,0.459-0.033,0.884-0.098,1.377c0.002,0.089,0.004,0.178,0.004,0.267
					c0,4.075-2.514,8.943-9.566,10.382C132.81,38.774,132.225,38.833,131.639,38.833z"/>
				<path fill="#FFFFFF" d="M143.899,39.773c-0.8,0-1.593-0.095-2.363-0.279c-0.479,0.06-0.96,0.09-1.443,0.09
					c-0.301,0-0.589-0.014-0.864-0.039c-0.126,0.015-0.254,0.029-0.385,0.042c-0.288,0.029-0.577,0.043-0.866,0.043
					c-3.989,0-7.033-2.299-9.051-6.836c-1.001-1.971-1.508-4.091-1.508-6.307c0-0.085,0.002-0.17,0.004-0.254
					c-0.057-0.77-0.087-1.352-0.095-1.827c-0.039-0.364-0.055-0.728-0.048-1.091c-0.008-0.416,0.014-0.834,0.066-1.251
					c0.055-1.271,0.245-3.423,0.88-7.531c0.333-2.318,1.289-4.558,2.829-6.564c0.057-0.074,0.115-0.147,0.175-0.22
					c2.358-2.877,5.64-4.462,9.238-4.462h0.282c4.911,0,9.094,2.817,10.916,7.353c0.2,0.499,0.354,1.015,0.459,1.542
					c0.144,0.717,0.217,1.436,0.217,2.134c0,0.239-0.008,0.475-0.023,0.709c0.015,0.229,0.023,0.463,0.023,0.701
					c0,0.319-0.018,0.638-0.053,0.956c0.002,0.067,0.004,0.134,0.005,0.202c0.056,0.526,0.063,1.059,0.021,1.591
					c0.017,0.215,0.024,0.428,0.026,0.642c0.015,0.054,0.027,0.107,0.041,0.161c0.032,0.136,0.062,0.272,0.088,0.41
					c0.293,0.801,0.468,1.644,0.516,2.501c0.02,0.331,0.043,0.53,0.055,0.62c0.066,0.249,0.121,0.501,0.164,0.756
					c0.384,2.245,0.454,3.032,0.454,3.771c0,0.591-0.059,1.287-0.234,2.042c0.031,0.476,0.046,0.859,0.046,1.201
					c0,3.592-2.317,7.758-7.493,8.967c-0.656,0.153-1.322,0.229-1.984,0.229C143.976,39.774,143.913,39.773,143.899,39.773z"/>
				<path fill="#FFFFFF" d="M156.87,39.984c-0.165,0-0.329-0.004-0.493-0.014c-0.165,0.009-0.329,0.014-0.494,0.014
					c-1.296,0-3.116-0.277-5.052-1.439c-2.372-1.146-4.979-3.633-5.757-9.009c-0.151-0.795-0.22-1.667-0.22-2.742v-0.141
					c0-0.116,0.016-0.592,0.08-1.424l0.014-0.183v-0.18c0-0.6,0.054-1.186,0.156-1.752c-0.535-1.469-0.865-3.228-1.064-5.598
					c-0.016-0.179-0.024-0.359-0.029-0.539c-0.033-1.54-0.079-3.068-0.136-4.562c-0.005-0.111-0.007-0.221-0.007-0.332
					c0-3.979,2.703-8.355,8.741-9.165c0.385-0.052,0.772-0.077,1.159-0.077c0.36,0,0.722,0.022,1.08,0.067
					c0.74,0.092,1.42,0.228,2.045,0.398c0.673-0.12,1.387-0.184,2.139-0.184h0.234c4.446,0,8.178,3.137,9.074,7.629
					c0.048,0.24,0.086,0.482,0.113,0.726c0.204,1.799,0.56,3.815,1.058,5.992c0.114,0.499,0.184,1.007,0.209,1.518
					c0.021,0.25,0.069,0.712,0.145,1.393c0.036,0.319,0.054,0.64,0.054,0.961v0.47c0,0.429-0.017,0.843-0.05,1.244
					c0.002,0.086,0.003,0.173,0.003,0.26c0,0.264-0.013,0.529-0.036,0.792c-0.127,1.391-0.246,2.411-0.376,3.21
					c-0.147,0.911-0.367,1.721-0.643,2.441c-0.216,0.724-0.473,1.395-0.771,2.019c-0.575,1.706-1.479,3.155-2.696,4.322
					c-0.052,0.05-0.104,0.099-0.157,0.147c-1.196,1.091-2.611,2.283-4.497,2.947C159.648,39.59,158.408,39.984,156.87,39.984z"/>
				<path fill="#FFFFFF" d="M167.367,38.363c-0.38,0-0.764-0.021-1.175-0.067c-0.411,0.046-0.795,0.067-1.175,0.067h-0.188
					c-3.515,0-7.842-1.867-9.798-7.036c-0.572-1.245-1.02-2.706-1.387-4.52c-0.056-0.276-0.098-0.555-0.127-0.835
					c-0.105-0.718-0.122-1.453-0.044-2.189l0.021-0.199c-0.016-0.377-0.023-0.757-0.023-1.137v-0.188c0-1,0.066-1.935,0.199-2.803
					c0.046-0.988,0.24-1.98,0.55-3.208c0.204-1.259,0.636-2.649,1.29-4.524c0.344-0.985,0.861-1.9,1.527-2.702
					c1.597-1.92,3.383-2.863,4.817-3.323c1.621-0.571,3.315-0.86,5.042-0.86c4.998,0,9.175,3.159,10.779,8.097
					c0.646,1.701,1.021,3.485,1.117,5.321c0.048,0.386,0.072,0.781,0.072,1.182c0,0.408-0.027,0.783-0.076,1.161
					c0.082,0.792,0.123,1.613,0.123,2.458c0,1.14-0.104,2.303-0.324,3.696c-0.139,1.594-0.618,3.18-1.432,4.735
					c-0.699,1.878-1.816,3.308-3.136,4.325C172.264,37.427,169.919,38.363,167.367,38.363z"/>
				<path fill="#FFFFFF" d="M174.951,39.186c-2.052,0-5.097-0.649-7.957-3.741c-0.186-0.201-0.361-0.41-0.527-0.627
					c-0.949-1.243-1.776-2.721-2.526-4.518c-0.089-0.212-0.169-0.428-0.241-0.646c-0.703-2.146-1.045-4.48-1.045-7.135
					c0-0.294,0-1.069,0.329-7.554v-0.53c0-4.586,3.011-8.324,7.171-9.314c0.838-0.255,1.693-0.412,2.559-0.468
					c0.369-0.047,0.739-0.071,1.11-0.071c0.008,0,0.04,0,0.048,0c0.358,0,0.714,0.018,1.064,0.054
					c0.414-0.159,0.843-0.294,1.286-0.405c0.691-0.173,1.401-0.26,2.113-0.26h0.188c4.289,0,7.878,2.465,9.319,6.335
					c0.538,1.315,1.008,2.949,1.431,4.977c0.027,0.128,0.051,0.256,0.071,0.385l0.282,1.739c0.109,0.671,0.14,1.352,0.09,2.03
					l-0.012,0.166c0.027,0.729,0.035,1.245,0.035,1.551c0,1.259-0.175,2.614-0.533,4.118c-0.052,0.824-0.108,1.484-0.177,2.039
					c-0.162,1.33-0.496,2.464-0.951,3.43c-1.201,2.798-3.307,5.085-6.128,6.647c-0.243,0.134-0.492,0.257-0.746,0.368
					c-1.681,0.731-3.256,1.167-4.781,1.32c-0.456,0.073-0.917,0.109-1.378,0.109C175.03,39.186,174.967,39.186,174.951,39.186z"/>
			</g>
			<g>
				<g>
					<path fill="#FFFFFF" d="M92.974,98.412c-4.09,0-7.953-2.034-11.81-6.219c-0.408-0.442-0.768-0.925-1.076-1.441
						c-2.024-3.39-3.077-7.847-3.207-13.595c-0.034-0.155-0.065-0.313-0.094-0.475c-0.108-0.601-0.245-1.504-0.409-2.716
						c-0.095-0.702-0.105-1.413-0.028-2.118c0.094-0.87,0.151-1.46,0.186-1.859c-0.869-3.982-0.947-5.224-0.947-6.14
						c0-0.264,0.012-0.527,0.036-0.79l0.328-3.604c-0.531-3.491-0.789-6.615-0.789-9.52c0-1.002,0.01-4.948,0.144-13.622
						c0.01-0.652,0.093-1.301,0.248-1.934c0.519-2.128,3.044-9.07,13.729-9.07c0.292,0,0.585,0.015,0.876,0.044
						c6.064,0.612,10.044,2.497,11.896,5.623c1.652,2.161,2.57,5.009,2.739,8.516c0.896,3.589,1.671,7.791,2.361,12.801
						c0.055,0.395,0.082,0.792,0.082,1.191c0,0.668-0.058,1.109-0.212,2.289l-0.039,0.3l0.942,4.827
						c0.167,0.86,0.205,1.74,0.111,2.609c0.362,1.073,0.619,2.288,0.619,3.604v0.284c0,0.985-0.15,1.899-0.367,2.737
						c0.052,1.264,0.083,2.243,0.083,2.657c0,0.599-0.062,1.196-0.184,1.783c-0.027,0.131-0.053,0.252-0.075,0.362
						c3.299,0.807,5.205,2.467,6.303,4.177c1.158,1.563,1.906,3.621,1.906,6.171c0,3.231-1.369,9.102-10.54,12.121
						c-0.216,0.071-0.435,0.134-0.656,0.188c-2.22,0.543-4.446,0.818-6.615,0.818H92.974z"/>
					<path fill="#FFFFFF" d="M124.063,94.117c-0.97,0-2.083-0.12-3.549-0.389c-1.466,0.269-2.579,0.389-3.55,0.389h-0.567
						c-2.947,0-10.02-1.037-13.317-10.435c-1.268-2.569-2.289-5.886-3.187-10.335c-0.08-0.398-0.133-0.802-0.157-1.208
						c-0.162-0.836-0.201-1.701-0.11-2.567l0.207-1.965c-0.075-1.297-0.112-2.617-0.112-3.935v-0.568c0-2.54,0-5.354,0.593-7.887
						c0.085-1.319,0.409-3.164,1.338-6.764c0.235-2.026,1.029-5.022,3.24-11.362c0.345-0.99,0.866-1.91,1.538-2.716
						c1.938-2.323,4.156-3.86,6.606-4.58c3.084-1.115,6.314-1.68,9.607-1.68c7.58,0,13.498,4.726,15.919,12.673
						c1.486,3.765,2.306,7.749,2.44,11.866c0.105,0.609,0.162,1.253,0.162,1.932c0,0.687-0.048,1.306-0.411,3.13
						c0.367,2.419,0.554,5.035,0.554,7.802V65.8c0,2.387-0.287,5.28-0.878,8.83c-0.166,2.973-1.17,6.069-2.993,9.231
						c-0.979,3.192-2.687,5.333-4.646,6.657C130.624,92.802,127.544,94.117,124.063,94.117z"/>
					<path fill="#FFFFFF" d="M144.574,97.312c-2.359,0-8.039-0.813-11.459-8.085c-1.467-2.232-2.393-4.94-2.813-8.22
						c-1.969-7.343-3.028-13.102-3.223-17.524c-0.068-0.3-0.129-0.613-0.18-0.938c-0.124-0.787-0.235-1.786-0.35-3.145
						c-0.187-2.207-0.382-5.378-0.581-9.437c-0.186-0.845-0.304-1.787-0.337-2.837c-0.003-0.092-0.004-0.185-0.004-0.277v-2.411
						c0,0.002,0,0.003,0,0.003c-0.003,0-0.041-0.558-0.302-2.09c-0.126-0.745-0.156-1.503-0.088-2.255
						c0.016-0.178,0.03-0.342,0.043-0.491c-0.246-1.034-0.363-1.8-0.363-2.693c0-5.185,3.561-9.404,9.072-10.749
						c0.677-0.165,1.371-0.248,2.067-0.248h1.987c4.798,0,7.942,1.115,9.999,2.639c1.67-1.293,3.418-1.917,4.741-2.218
						c1.447-0.42,2.695-0.42,3.29-0.42h0.283c7.406,0,11.281,5.175,11.281,10.287v1.277c0,0.583-0.059,1.164-0.175,1.735
						c-0.266,1.31-0.513,2.42-0.778,3.386c0.146,0.579,0.258,1.2,0.332,1.866c0.035,0.32,0.054,0.642,0.054,0.963v1.136
						c0,1.972-0.271,4.758-0.853,8.734v2.481c0,1.012-0.089,2.138-1.146,6.809c0.007,0.144,0.011,0.287,0.011,0.431v0.426
						c0,0.34-0.021,0.68-0.06,1.019c-0.246,2.09-0.477,3.721-0.785,5.073c0.097,0.756,0.136,1.179,0.136,1.717
						c0,0.874-0.132,1.743-0.39,2.577c-0.559,1.806-0.909,4.007-1.043,6.542c-0.025,0.487-0.092,0.971-0.198,1.447
						c-0.648,2.895-1.91,7.035-5.37,9.551c-0.08,0.059-0.161,0.115-0.243,0.171c-2.361,1.597-5.668,2.717-10.719,3.63
						c-0.513,0.093-1.032,0.139-1.553,0.139H144.574z"/>
					<path fill="#FFFFFF" d="M169.064,96.426c-4.6,0-8.204-0.895-11.021-2.735c-1.917-1.252-3.265-3.208-3.753-5.445
						c-1.169-5.365-1.763-10.683-1.763-15.807c0-1.306,0.067-2.791,0.214-4.708c-0.157-0.963-0.323-2.308-0.472-4.244
						c-0.037-0.487-0.033-0.977,0.012-1.463l0.192-2.106c-0.097-1.076-0.149-2.453-0.223-4.397c-0.013-0.335-0.007-0.671,0.02-1.005
						l0.568-7.34c-0.113-0.652-0.169-1.273-0.169-1.888v-0.532c0-0.282,0.008-0.56,0.022-0.834c-0.189-0.959-0.217-1.95-0.075-2.932
						c0.048-0.333,0.053-0.556,0.053-0.636v-2.804c0-2.706,1.134-7.662,8.726-10.459c0.954-0.351,1.961-0.533,2.977-0.538
						c0.515-0.094,1.038-0.142,1.566-0.142c0.266,0,0.532,0.012,0.799,0.037c1.999,0.184,3.459,0.38,4.563,0.578
						c0.527-0.055,1.071-0.083,1.631-0.083c0.294,0,0.587,0.015,0.88,0.044c2.348,0.238,4.452,0.401,6.434,0.498
						c1.296,0.064,2.563,0.416,3.706,1.031c4.226,2.274,6.649,6.096,6.649,10.487c0,1.338-0.308,2.658-0.899,3.858
						c-0.754,1.528-2.071,3.548-4.268,5.25c0.14,0.188,0.272,0.384,0.396,0.588c1.327,1.833,2.038,3.98,2.038,6.24
						c0,1.173-0.236,2.333-0.695,3.413c-1.429,3.362-4.06,5.747-7.368,6.814c-0.026,0.396-0.061,0.858-0.104,1.408
						c0.39,1.146,0.538,2.365,0.431,3.581l-0.107,1.213v0.927c0,0.485,0.004,0.925,0.012,1.323
						c6.679,0.889,9.748,5.688,9.748,10.177c0,1.007-0.175,2.007-0.516,2.955c-1.287,3.576-5.202,9.575-16.964,9.575
						c-0.121,0-0.242,0-0.365-0.001C170.934,96.391,169.969,96.426,169.064,96.426z"/>
				</g>
				<g>
					<path fill="#FFFFFF" d="M92.974,98.412c-4.09,0-7.953-2.034-11.81-6.219c-0.408-0.442-0.768-0.925-1.076-1.441
						c-2.024-3.39-3.077-7.847-3.207-13.595c-0.034-0.155-0.065-0.313-0.094-0.475c-0.108-0.601-0.245-1.504-0.409-2.716
						c-0.095-0.702-0.105-1.413-0.028-2.118c0.094-0.87,0.151-1.46,0.186-1.859c-0.869-3.982-0.947-5.224-0.947-6.14
						c0-0.264,0.012-0.527,0.036-0.79l0.328-3.604c-0.531-3.491-0.789-6.615-0.789-9.52c0-1.002,0.01-4.948,0.144-13.622
						c0.01-0.652,0.093-1.301,0.248-1.934c0.519-2.128,3.044-9.07,13.729-9.07c0.292,0,0.585,0.015,0.876,0.044
						c6.064,0.612,10.044,2.497,11.896,5.623c1.652,2.161,2.57,5.009,2.739,8.516c0.896,3.589,1.671,7.791,2.361,12.801
						c0.055,0.395,0.082,0.792,0.082,1.191c0,0.668-0.058,1.109-0.212,2.289l-0.039,0.3l0.942,4.827
						c0.167,0.86,0.205,1.74,0.111,2.609c0.362,1.073,0.619,2.288,0.619,3.604v0.284c0,0.985-0.15,1.899-0.367,2.737
						c0.052,1.264,0.083,2.243,0.083,2.657c0,0.599-0.062,1.196-0.184,1.783c-0.027,0.131-0.053,0.252-0.075,0.362
						c3.299,0.807,5.205,2.467,6.303,4.177c1.158,1.563,1.906,3.621,1.906,6.171c0,3.231-1.369,9.102-10.54,12.121
						c-0.216,0.071-0.435,0.134-0.656,0.188c-2.22,0.543-4.446,0.818-6.615,0.818H92.974z"/>
					<path fill="#FFFFFF" d="M124.063,94.117c-0.97,0-2.083-0.12-3.549-0.389c-1.466,0.269-2.579,0.389-3.55,0.389h-0.567
						c-2.947,0-10.02-1.037-13.317-10.435c-1.268-2.569-2.289-5.886-3.187-10.335c-0.08-0.398-0.133-0.802-0.157-1.208
						c-0.162-0.836-0.201-1.701-0.11-2.567l0.207-1.965c-0.075-1.297-0.112-2.617-0.112-3.935v-0.568c0-2.54,0-5.354,0.593-7.887
						c0.085-1.319,0.409-3.164,1.338-6.764c0.235-2.026,1.029-5.022,3.24-11.362c0.345-0.99,0.866-1.91,1.538-2.716
						c1.938-2.323,4.156-3.86,6.606-4.58c3.084-1.115,6.314-1.68,9.607-1.68c7.58,0,13.498,4.726,15.919,12.673
						c1.486,3.765,2.306,7.749,2.44,11.866c0.105,0.609,0.162,1.253,0.162,1.932c0,0.687-0.048,1.306-0.411,3.13
						c0.367,2.419,0.554,5.035,0.554,7.802V65.8c0,2.387-0.287,5.28-0.878,8.83c-0.166,2.973-1.17,6.069-2.993,9.231
						c-0.979,3.192-2.687,5.333-4.646,6.657C130.624,92.802,127.544,94.117,124.063,94.117z"/>
					<path fill="#FFFFFF" d="M144.574,97.312c-2.359,0-8.039-0.813-11.459-8.085c-1.467-2.232-2.393-4.94-2.813-8.22
						c-1.969-7.343-3.028-13.102-3.223-17.524c-0.068-0.3-0.129-0.613-0.18-0.938c-0.124-0.787-0.235-1.786-0.35-3.145
						c-0.187-2.207-0.382-5.378-0.581-9.437c-0.186-0.845-0.304-1.787-0.337-2.837c-0.003-0.092-0.004-0.185-0.004-0.277v-2.411
						c0,0.002,0,0.003,0,0.003c-0.003,0-0.041-0.558-0.302-2.09c-0.126-0.745-0.156-1.503-0.088-2.255
						c0.016-0.178,0.03-0.342,0.043-0.491c-0.246-1.034-0.363-1.8-0.363-2.693c0-5.185,3.561-9.404,9.072-10.749
						c0.677-0.165,1.371-0.248,2.067-0.248h1.987c4.798,0,7.942,1.115,9.999,2.639c1.67-1.293,3.418-1.917,4.741-2.218
						c1.447-0.42,2.695-0.42,3.29-0.42h0.283c7.406,0,11.281,5.175,11.281,10.287v1.277c0,0.583-0.059,1.164-0.175,1.735
						c-0.266,1.31-0.513,2.42-0.778,3.386c0.146,0.579,0.258,1.2,0.332,1.866c0.035,0.32,0.054,0.642,0.054,0.963v1.136
						c0,1.972-0.271,4.758-0.853,8.734v2.481c0,1.012-0.089,2.138-1.146,6.809c0.007,0.144,0.011,0.287,0.011,0.431v0.426
						c0,0.34-0.021,0.68-0.06,1.019c-0.246,2.09-0.477,3.721-0.785,5.073c0.097,0.756,0.136,1.179,0.136,1.717
						c0,0.874-0.132,1.743-0.39,2.577c-0.559,1.806-0.909,4.007-1.043,6.542c-0.025,0.487-0.092,0.971-0.198,1.447
						c-0.648,2.895-1.91,7.035-5.37,9.551c-0.08,0.059-0.161,0.115-0.243,0.171c-2.361,1.597-5.668,2.717-10.719,3.63
						c-0.513,0.093-1.032,0.139-1.553,0.139H144.574z"/>
					<path fill="#FFFFFF" d="M169.064,96.426c-4.6,0-8.204-0.895-11.021-2.735c-1.917-1.252-3.265-3.208-3.753-5.445
						c-1.169-5.365-1.763-10.683-1.763-15.807c0-1.306,0.067-2.791,0.214-4.708c-0.157-0.963-0.323-2.308-0.472-4.244
						c-0.037-0.487-0.033-0.977,0.012-1.463l0.192-2.106c-0.097-1.076-0.149-2.453-0.223-4.397c-0.013-0.335-0.007-0.671,0.02-1.005
						l0.568-7.34c-0.113-0.652-0.169-1.273-0.169-1.888v-0.532c0-0.282,0.008-0.56,0.022-0.834c-0.189-0.959-0.217-1.95-0.075-2.932
						c0.048-0.333,0.053-0.556,0.053-0.636v-2.804c0-2.706,1.134-7.662,8.726-10.459c0.954-0.351,1.961-0.533,2.977-0.538
						c0.515-0.094,1.038-0.142,1.566-0.142c0.266,0,0.532,0.012,0.799,0.037c1.999,0.184,3.459,0.38,4.563,0.578
						c0.527-0.055,1.071-0.083,1.631-0.083c0.294,0,0.587,0.015,0.88,0.044c2.348,0.238,4.452,0.401,6.434,0.498
						c1.296,0.064,2.563,0.416,3.706,1.031c4.226,2.274,6.649,6.096,6.649,10.487c0,1.338-0.308,2.658-0.899,3.858
						c-0.754,1.528-2.071,3.548-4.268,5.25c0.14,0.188,0.272,0.384,0.396,0.588c1.327,1.833,2.038,3.98,2.038,6.24
						c0,1.173-0.236,2.333-0.695,3.413c-1.429,3.362-4.06,5.747-7.368,6.814c-0.026,0.396-0.061,0.858-0.104,1.408
						c0.39,1.146,0.538,2.365,0.431,3.581l-0.107,1.213v0.927c0,0.485,0.004,0.925,0.012,1.323
						c6.679,0.889,9.748,5.688,9.748,10.177c0,1.007-0.175,2.007-0.516,2.955c-1.287,3.576-5.202,9.575-16.964,9.575
						c-0.121,0-0.242,0-0.365-0.001C170.934,96.391,169.969,96.426,169.064,96.426z"/>
				</g>
				<g>
					<path fill="#FFFFFF" d="M92.974,98.412c-4.09,0-7.953-2.034-11.81-6.219c-0.408-0.442-0.768-0.925-1.076-1.441
						c-2.024-3.39-3.077-7.847-3.207-13.595c-0.034-0.155-0.065-0.313-0.094-0.475c-0.108-0.601-0.245-1.504-0.409-2.716
						c-0.095-0.702-0.105-1.413-0.028-2.118c0.094-0.87,0.151-1.46,0.186-1.859c-0.869-3.982-0.947-5.224-0.947-6.14
						c0-0.264,0.012-0.527,0.036-0.79l0.328-3.604c-0.531-3.491-0.789-6.615-0.789-9.52c0-1.002,0.01-4.948,0.144-13.622
						c0.01-0.652,0.093-1.301,0.248-1.934c0.519-2.128,3.044-9.07,13.729-9.07c0.292,0,0.585,0.015,0.876,0.044
						c6.064,0.612,10.044,2.497,11.896,5.623c1.652,2.161,2.57,5.009,2.739,8.516c0.896,3.589,1.671,7.791,2.361,12.801
						c0.055,0.395,0.082,0.792,0.082,1.191c0,0.668-0.058,1.109-0.212,2.289l-0.039,0.3l0.942,4.827
						c0.167,0.86,0.205,1.74,0.111,2.609c0.362,1.073,0.619,2.288,0.619,3.604v0.284c0,0.985-0.15,1.899-0.367,2.737
						c0.052,1.264,0.083,2.243,0.083,2.657c0,0.599-0.062,1.196-0.184,1.783c-0.027,0.131-0.053,0.252-0.075,0.362
						c3.299,0.807,5.205,2.467,6.303,4.177c1.158,1.563,1.906,3.621,1.906,6.171c0,3.231-1.369,9.102-10.54,12.121
						c-0.216,0.071-0.435,0.134-0.656,0.188c-2.22,0.543-4.446,0.818-6.615,0.818H92.974z"/>
					<path fill="#FFFFFF" d="M124.063,94.117c-0.97,0-2.083-0.12-3.549-0.389c-1.466,0.269-2.579,0.389-3.55,0.389h-0.567
						c-2.947,0-10.02-1.037-13.317-10.435c-1.268-2.569-2.289-5.886-3.187-10.335c-0.08-0.398-0.133-0.802-0.157-1.208
						c-0.162-0.836-0.201-1.701-0.11-2.567l0.207-1.965c-0.075-1.297-0.112-2.617-0.112-3.935v-0.568c0-2.54,0-5.354,0.593-7.887
						c0.085-1.319,0.409-3.164,1.338-6.764c0.235-2.026,1.029-5.022,3.24-11.362c0.345-0.99,0.866-1.91,1.538-2.716
						c1.938-2.323,4.156-3.86,6.606-4.58c3.084-1.115,6.314-1.68,9.607-1.68c7.58,0,13.498,4.726,15.919,12.673
						c1.486,3.765,2.306,7.749,2.44,11.866c0.105,0.609,0.162,1.253,0.162,1.932c0,0.687-0.048,1.306-0.411,3.13
						c0.367,2.419,0.554,5.035,0.554,7.802V65.8c0,2.387-0.287,5.28-0.878,8.83c-0.166,2.973-1.17,6.069-2.993,9.231
						c-0.979,3.192-2.687,5.333-4.646,6.657C130.624,92.802,127.544,94.117,124.063,94.117z"/>
					<path fill="#FFFFFF" d="M144.574,97.312c-2.359,0-8.039-0.813-11.459-8.085c-1.467-2.232-2.393-4.94-2.813-8.22
						c-1.969-7.343-3.028-13.102-3.223-17.524c-0.068-0.3-0.129-0.613-0.18-0.938c-0.124-0.787-0.235-1.786-0.35-3.145
						c-0.187-2.207-0.382-5.378-0.581-9.437c-0.186-0.845-0.304-1.787-0.337-2.837c-0.003-0.092-0.004-0.185-0.004-0.277v-2.411
						c0,0.002,0,0.003,0,0.003c-0.003,0-0.041-0.558-0.302-2.09c-0.126-0.745-0.156-1.503-0.088-2.255
						c0.016-0.178,0.03-0.342,0.043-0.491c-0.246-1.034-0.363-1.8-0.363-2.693c0-5.185,3.561-9.404,9.072-10.749
						c0.677-0.165,1.371-0.248,2.067-0.248h1.987c4.798,0,7.942,1.115,9.999,2.639c1.67-1.293,3.418-1.917,4.741-2.218
						c1.447-0.42,2.695-0.42,3.29-0.42h0.283c7.406,0,11.281,5.175,11.281,10.287v1.277c0,0.583-0.059,1.164-0.175,1.735
						c-0.266,1.31-0.513,2.42-0.778,3.386c0.146,0.579,0.258,1.2,0.332,1.866c0.035,0.32,0.054,0.642,0.054,0.963v1.136
						c0,1.972-0.271,4.758-0.853,8.734v2.481c0,1.012-0.089,2.138-1.146,6.809c0.007,0.144,0.011,0.287,0.011,0.431v0.426
						c0,0.34-0.021,0.68-0.06,1.019c-0.246,2.09-0.477,3.721-0.785,5.073c0.097,0.756,0.136,1.179,0.136,1.717
						c0,0.874-0.132,1.743-0.39,2.577c-0.559,1.806-0.909,4.007-1.043,6.542c-0.025,0.487-0.092,0.971-0.198,1.447
						c-0.648,2.895-1.91,7.035-5.37,9.551c-0.08,0.059-0.161,0.115-0.243,0.171c-2.361,1.597-5.668,2.717-10.719,3.63
						c-0.513,0.093-1.032,0.139-1.553,0.139H144.574z"/>
					<path fill="#FFFFFF" d="M169.064,96.426c-4.6,0-8.204-0.895-11.021-2.735c-1.917-1.252-3.265-3.208-3.753-5.445
						c-1.169-5.365-1.763-10.683-1.763-15.807c0-1.306,0.067-2.791,0.214-4.708c-0.157-0.963-0.323-2.308-0.472-4.244
						c-0.037-0.487-0.033-0.977,0.012-1.463l0.192-2.106c-0.097-1.076-0.149-2.453-0.223-4.397c-0.013-0.335-0.007-0.671,0.02-1.005
						l0.568-7.34c-0.113-0.652-0.169-1.273-0.169-1.888v-0.532c0-0.282,0.008-0.56,0.022-0.834c-0.189-0.959-0.217-1.95-0.075-2.932
						c0.048-0.333,0.053-0.556,0.053-0.636v-2.804c0-2.706,1.134-7.662,8.726-10.459c0.954-0.351,1.961-0.533,2.977-0.538
						c0.515-0.094,1.038-0.142,1.566-0.142c0.266,0,0.532,0.012,0.799,0.037c1.999,0.184,3.459,0.38,4.563,0.578
						c0.527-0.055,1.071-0.083,1.631-0.083c0.294,0,0.587,0.015,0.88,0.044c2.348,0.238,4.452,0.401,6.434,0.498
						c1.296,0.064,2.563,0.416,3.706,1.031c4.226,2.274,6.649,6.096,6.649,10.487c0,1.338-0.308,2.658-0.899,3.858
						c-0.754,1.528-2.071,3.548-4.268,5.25c0.14,0.188,0.272,0.384,0.396,0.588c1.327,1.833,2.038,3.98,2.038,6.24
						c0,1.173-0.236,2.333-0.695,3.413c-1.429,3.362-4.06,5.747-7.368,6.814c-0.026,0.396-0.061,0.858-0.104,1.408
						c0.39,1.146,0.538,2.365,0.431,3.581l-0.107,1.213v0.927c0,0.485,0.004,0.925,0.012,1.323
						c6.679,0.889,9.748,5.688,9.748,10.177c0,1.007-0.175,2.007-0.516,2.955c-1.287,3.576-5.202,9.575-16.964,9.575
						c-0.121,0-0.242,0-0.365-0.001C170.934,96.391,169.969,96.426,169.064,96.426z"/>
				</g>
			</g>
		</g>
		<g>
			<g>
				<path fill="#FFFFFF" d="M89.926,15.092c0.13,0.388,0.224,1.14,0.282,2.256c0,0.341-0.47,0.517-1.41,0.517
					c-0.622-0.129-1.033-0.316-1.222-0.563c-0.129-0.212-0.282-0.682-0.47-1.41c-0.6-0.787-1.046-1.175-1.316-1.175v0.329
					c0,0.446,0.177,1.14,0.518,2.067c1.01,1.751,1.727,3.22,2.161,4.418c0.095,0.529,0.282,1.233,0.564,2.115
					c0.152,0.834,0.235,1.28,0.235,1.315v0.329c0,0.411,0.035,0.94,0.094,1.598c-0.094,0.306-0.153,0.788-0.188,1.457
					c-0.293,0.764-0.729,1.469-1.315,2.115c-0.2,0.376-0.635,0.563-1.316,0.563c-0.176,0-0.293,0.012-0.329,0.048
					c-1.175,0-1.938-0.459-2.303-1.363c-0.388-0.481-0.646-1.022-0.752-1.598c-0.223-0.317-0.329-0.67-0.329-1.034v-0.329
					c0-0.6,0.317-0.893,0.94-0.893c0-0.059,0.105-0.083,0.329-0.095c0.705,0,1.257,0.6,1.645,1.786
					c0.212,0.787,0.411,1.258,0.611,1.41h0.047c0.094-0.541,0.152-1.011,0.188-1.41c-0.082-1.175-0.246-2.067-0.47-2.679v-0.563
					c-0.176-0.106-0.353-0.564-0.517-1.363c-0.411-0.693-0.658-1.28-0.752-1.739c-0.869-1.397-1.375-2.562-1.504-3.478
					c-0.188-0.916-0.282-1.434-0.282-1.551v-0.517c0-0.071,0.012-0.13,0.047-0.188c-0.023-0.059-0.059-0.294-0.094-0.705
					c0.2-0.74,0.552-1.257,1.034-1.551c0.764-0.6,1.586-0.893,2.49-0.893C87.894,12.32,89.021,13.248,89.926,15.092z"/>
				<path fill="#FFFFFF" d="M95.007,13.271c0.13-0.059,0.329-0.094,0.588-0.094c0.811,0.082,1.563,0.141,2.279,0.176
					c0.458,0.247,0.682,0.553,0.682,0.929c-0.411,0.834-1.234,1.245-2.456,1.245h-0.552l-0.224,0.047v-0.047l-0.094,0.047
					c-0.059-0.035-0.118-0.047-0.177-0.047c-0.094,0.235-0.141,0.458-0.141,0.658v0.094c0,0.235,0.012,0.541,0.047,0.929
					l-0.223,0.622c0.047,0.436,0.105,0.658,0.176,0.658s0.294-0.012,0.682-0.047c1.187,0.271,1.773,0.47,1.773,0.576
					c0.188,0.164,0.282,0.34,0.282,0.54c-0.199,0.47-0.575,0.705-1.14,0.705c-0.094,0-0.552,0.152-1.374,0.446H94.96l0.047,0.082
					c0,0.082-0.012,0.13-0.047,0.13c0.035,0.353,0.047,0.599,0.047,0.752v0.669c0,0.2-0.035,0.658-0.094,1.375
					c0.035,0.235,0.094,0.446,0.188,0.623l-0.047,0.528v0.435c0,1.104,0.059,1.868,0.177,2.303
					c-0.035,0.306-0.047,0.541-0.047,0.717v0.082c0,0.177,0.105,0.271,0.317,0.271c0.552,0,1.115-0.035,1.691-0.094
					c0.729,0,1.093,0.176,1.093,0.528c-0.317,0.882-1.352,1.293-3.102,1.258c-1.387,0.105-2.362-0.023-2.938-0.399
					c-0.341-1.563-0.517-3.103-0.517-4.618c0-0.47,0.035-1.045,0.094-1.727c-0.059-0.212-0.13-0.693-0.188-1.457l0.095-1.022
					c-0.036-0.07-0.06-0.575-0.095-1.504l0.224-2.878c-0.059-0.188-0.082-0.317-0.082-0.4v-0.176c0-0.141,0.012-0.282,0.047-0.435
					c-0.035-0.2-0.059-0.341-0.094-0.399c0.035-0.247,0.047-0.458,0.047-0.623V13.8c0-0.247,0.328-0.506,0.998-0.752
					c0.341,0,0.506-0.012,0.506-0.047C94.173,13.083,94.749,13.177,95.007,13.271z"/>
				<path fill="#FFFFFF" d="M107.596,12.202c0.505,0,0.752,0.177,0.752,0.518c0.047,0,0.094,0.341,0.141,1.034
					c0.188,0.411,0.317,0.739,0.376,0.986l-0.094,2.209c0.094,0.446,0.141,1.011,0.141,1.691v0.048c0,0.399-0.047,0.717-0.141,0.939
					c0.059,0.306,0.094,0.729,0.094,1.269v0.048c0,0.552-0.047,0.951-0.141,1.222c0.035,0.271,0.047,0.446,0.047,0.517
					c0,1.352-0.059,2.256-0.188,2.726c0.035,0.623,0.048,1.022,0.048,1.223c0,0.105-0.048,0.435-0.142,0.986l0.047,0.658
					c0,0.869-0.857,1.48-2.585,1.833c-0.493,0-0.928-0.329-1.315-0.987c-0.129-0.505-0.435-1.516-0.94-3.008l-0.705-2.49h-0.047
					c-0.035,0.317-0.047,0.552-0.047,0.705v0.188c0.059,1.645,0.094,2.55,0.094,2.726c-0.07,1.316-0.152,2.033-0.234,2.162
					c-0.423,0.282-0.811,0.423-1.175,0.423c-1.093,0-1.646-0.599-1.646-1.785c0.095-1.352,0.142-2.127,0.142-2.304
					c-0.13-0.928-0.188-1.551-0.188-1.88c0-0.105,0.035-0.316,0.094-0.657l-0.047-0.282c0.035-0.317,0.047-0.576,0.047-0.752
					c0-0.294-0.035-0.693-0.094-1.222c0.153-1.728,0.282-3.479,0.376-5.264c-0.035-0.635-0.047-1.069-0.047-1.316
					c0-0.787,0.153-1.175,0.47-1.175c0.188-0.094,0.424-0.141,0.705-0.141c1.258,0,1.88,0.141,1.88,0.423
					c0.047,0.199,0.247,0.493,0.611,0.893c0.141,0.259,0.282,0.623,0.423,1.081c0.317,0.353,0.47,0.857,0.47,1.504
					c0.376,0.364,0.564,0.928,0.564,1.691c0.246,0.341,0.458,1.141,0.61,2.397c0.095,0.023,0.142,0.199,0.142,0.517h0.047
					c0-0.223,0.082-1.116,0.235-2.679c0-0.811,0.012-1.28,0.047-1.41c-0.035-0.152-0.047-0.364-0.047-0.61v-0.282
					c0-0.164,0.012-0.306,0.047-0.423c-0.035-0.165-0.047-0.317-0.047-0.47v-0.611c0.094-0.693,0.141-1.151,0.141-1.363v-0.986
					c0-0.271,0.282-0.446,0.846-0.518H107.596z M106.045,21.743v0.141h0.047v-0.141H106.045z"/>
				<path fill="#FFFFFF" d="M112.925,12.002c1.504,0,2.573,0.528,3.195,1.598c0.635,0.787,1.246,1.938,1.833,3.431
					c0.341,1.093,0.518,1.856,0.518,2.303c0,0.177-0.012,0.388-0.048,0.658c0.095,0.623,0.142,1.046,0.142,1.269
					c0,0.341-0.047,0.835-0.142,1.504c0.036,0.271,0.048,0.471,0.048,0.611c-0.188,0.646-0.317,1.28-0.376,1.927
					c-0.376,0.857-0.623,1.527-0.752,2.021c-0.399,0.316-0.67,0.692-0.799,1.128l-0.658,0.423c-0.882,1.539-1.728,2.303-2.538,2.303
					c-0.388,0-0.693-0.177-0.893-0.518c-0.623,0-1.046-0.188-1.27-0.563c-0.282-0.904-0.435-1.915-0.47-3.055
					c-0.059-0.329-0.094-0.905-0.094-1.739v-0.563c-0.094-0.929-0.142-1.704-0.142-2.303c0-0.023,0.035-0.13,0.095-0.329
					c-0.06-0.282-0.106-0.764-0.142-1.457c0.035-0.799,0.059-1.258,0.095-1.363l-0.095-0.61l0.095-1.599
					c-0.036-1.045-0.048-2.032-0.048-2.961v-0.61c-0.129-0.388-0.188-0.623-0.188-0.705c0-0.47,0.846-0.74,2.538-0.799H112.925z
					 M113.348,13.741l0.752,3.196v0.939c0.317,0.224,0.47,0.693,0.47,1.41c0,0.047-0.035,0.177-0.094,0.376
					c0.094,0,0.152,0.224,0.188,0.658v0.094c0,0.212-0.012,0.399-0.047,0.564l0.047,0.329c-0.035,0.388-0.047,0.599-0.047,0.61
					c0.06,0.388,0.095,0.717,0.095,0.987v2.961c0,0.129-0.035,0.258-0.095,0.376v0.047h0.047c0.529-0.952,0.8-1.751,0.8-2.397
					c0.188-0.669,0.281-1.527,0.281-2.584v-0.329c0-2.714-0.517-4.888-1.551-6.533L113.348,13.741z M114.429,26.759v0.094h0.047
					v-0.094H114.429z M114.569,26.336v0.094h0.047v-0.094H114.569z"/>
				<path fill="#FFFFFF" d="M124.35,12.918c0,0.506-0.329,1.058-0.986,1.646c0,0.059-0.518,0.129-1.563,0.223
					c-1.057-0.023-1.645-0.341-1.773-0.963l-0.13-0.811c0.071-0.306,0.224-0.623,0.459-0.94c0.692-0.224,1.409-0.329,2.161-0.329
					C123.739,11.744,124.35,12.131,124.35,12.918z M122.047,16.491c0.976,0,1.539,0.411,1.692,1.222
					c0.152,0.646,0.234,1.151,0.234,1.504c0,0.082-0.047,0.247-0.141,0.517c0.094,0.153,0.141,0.353,0.141,0.611v0.235
					c0,0.329-0.059,0.657-0.188,0.986l0.047,0.235v0.282c0,0.223-0.047,0.764-0.142,1.645c0,0.271,0.048,0.693,0.142,1.269
					c-0.117,0.905-0.2,1.363-0.235,1.363l0.376,3.76v0.235c0,0.293-0.317,0.481-0.939,0.563c-0.317,0.153-0.752,0.235-1.316,0.235
					h-0.234c-0.529,0-0.835-0.177-0.94-0.518c-0.224-0.152-0.329-0.575-0.329-1.269l-0.282-3.713c0-0.211,0.036-0.729,0.095-1.551
					l-0.095-1.786c0.06-0.857,0.177-1.938,0.329-3.242c0.035-0.436,0.047-0.905,0.047-1.41v-0.423c0-0.247,0.282-0.481,0.847-0.705
					c0.164-0.035,0.353-0.047,0.563-0.047H122.047z"/>
				<path fill="#FFFFFF" d="M133.284,12.202c0.505,0,0.752,0.177,0.752,0.518c0.047,0,0.094,0.341,0.141,1.034
					c0.188,0.411,0.317,0.739,0.376,0.986l-0.094,2.209c0.094,0.446,0.141,1.011,0.141,1.691v0.048c0,0.399-0.047,0.717-0.141,0.939
					c0.059,0.306,0.094,0.729,0.094,1.269v0.048c0,0.552-0.047,0.951-0.141,1.222c0.035,0.271,0.047,0.446,0.047,0.517
					c0,1.352-0.059,2.256-0.188,2.726c0.035,0.623,0.047,1.022,0.047,1.223c0,0.105-0.047,0.435-0.141,0.986l0.047,0.658
					c0,0.869-0.857,1.48-2.585,1.833c-0.493,0-0.928-0.329-1.315-0.987c-0.129-0.505-0.435-1.516-0.94-3.008l-0.704-2.49h-0.048
					c-0.035,0.317-0.047,0.552-0.047,0.705v0.188c0.059,1.645,0.095,2.55,0.095,2.726c-0.071,1.316-0.153,2.033-0.235,2.162
					c-0.423,0.282-0.811,0.423-1.175,0.423c-1.093,0-1.646-0.599-1.646-1.785c0.095-1.352,0.142-2.127,0.142-2.304
					c-0.13-0.928-0.188-1.551-0.188-1.88c0-0.105,0.035-0.316,0.095-0.657l-0.048-0.282c0.035-0.317,0.048-0.576,0.048-0.752
					c0-0.294-0.036-0.693-0.095-1.222c0.153-1.728,0.282-3.479,0.376-5.264c-0.035-0.635-0.047-1.069-0.047-1.316
					c0-0.787,0.153-1.175,0.47-1.175c0.188-0.094,0.423-0.141,0.705-0.141c1.258,0,1.88,0.141,1.88,0.423
					c0.047,0.199,0.247,0.493,0.611,0.893c0.141,0.259,0.282,0.623,0.423,1.081c0.317,0.353,0.47,0.857,0.47,1.504
					c0.376,0.364,0.564,0.928,0.564,1.691c0.246,0.341,0.458,1.141,0.61,2.397c0.095,0.023,0.142,0.199,0.142,0.517h0.047
					c0-0.223,0.082-1.116,0.234-2.679c0-0.811,0.013-1.28,0.048-1.41c-0.035-0.152-0.048-0.364-0.048-0.61v-0.282
					c0-0.164,0.013-0.306,0.048-0.423c-0.035-0.165-0.048-0.317-0.048-0.47v-0.611c0.095-0.693,0.142-1.151,0.142-1.363v-0.986
					c0-0.271,0.282-0.446,0.846-0.518H133.284z M131.733,21.743v0.141h0.047v-0.141H131.733z"/>
				<path fill="#FFFFFF" d="M140.751,12.014c1.374,0,2.314,0.623,2.819,1.88c0.035,0.176,0.047,0.317,0.047,0.423
					c0,0.224-0.035,0.388-0.094,0.517c0.059,0.411,0.094,0.717,0.094,0.894c-0.059,0.294-0.094,0.528-0.094,0.705l0.047,0.563
					c-0.059,0.153-0.094,0.282-0.094,0.376c0.059,0.282,0.105,0.423,0.141,0.423l-0.141,0.658c0.094,0.329,0.141,0.576,0.141,0.752
					c0,0.505-0.435,0.752-1.315,0.752c-0.847,0-1.375-0.294-1.599-0.893c-0.152-0.271-0.234-0.553-0.234-0.847v-0.517
					c0-0.035,0.012-0.047,0.047-0.047l-0.047-0.094c0-0.306-0.059-1.199-0.188-2.68c0.035-0.199,0.047-0.411,0.047-0.657v-0.235
					h-0.047c-0.281,0.105-0.423,0.399-0.423,0.893l-0.752,2.444l0.047,0.235v0.281l-0.188,1.504l-0.235,0.705
					c0.059,0.177,0.105,0.388,0.142,0.611c-0.095,0.223-0.142,0.552-0.142,0.986c0.952-0.599,2.057-0.893,3.29-0.893h0.047
					l0.235,0.047v-0.047l0.094,0.047h0.047c0.893,0,1.375,0.177,1.457,0.518c0,0.505,0.129,0.951,0.376,1.362
					c0.059,1.034,0.176,1.821,0.329,2.351c0.223,1.304,0.329,2.079,0.329,2.303c0,0.082-0.059,0.188-0.188,0.328v0.424
					c0,0.129-0.047,0.305-0.141,0.517c0.094,0.976,0.141,1.633,0.141,1.974c0,0.2-0.246,0.353-0.752,0.471V31l-0.094,0.048
					c-0.399,0-0.775-0.153-1.128-0.471c-0.152-0.341-0.235-0.575-0.235-0.705c-0.834,0.658-1.656,0.987-2.443,0.987h-0.047
					c-0.106,0-0.271-0.047-0.518-0.141c-0.105,0.059-0.199,0.094-0.281,0.094h-0.282c-0.07,0-0.13-0.012-0.188-0.047
					c-0.176,0.059-0.446,0.105-0.799,0.141c-0.246,0-0.646-0.623-1.175-1.88c-0.435-0.787-0.658-1.633-0.658-2.538
					c0-0.035,0.012-0.047,0.047-0.047c-0.094-1.128-0.141-1.892-0.141-2.303v-0.235c0-0.105-0.012-0.246-0.047-0.423
					c0.035-0.047,0.047-0.141,0.047-0.281c0-0.035-0.012-0.048-0.047-0.048l0.047-0.234c0.012-1.281,0.271-3.631,0.799-7.05
					c0.13-0.904,0.506-1.774,1.128-2.585c0.693-0.846,1.527-1.269,2.491-1.269H140.751z M138.776,22.917l-0.047,0.282
					c0.035,0.059,0.047,0.117,0.047,0.188l-0.047,0.235c0.035,0.129,0.047,0.234,0.047,0.329c0,0.035-0.012,0.082-0.047,0.141
					c0,0.035,0.012,0.047,0.047,0.047c-0.035,0.271-0.047,0.446-0.047,0.517c0,0.2,0.035,0.518,0.094,0.94
					c-0.059,0.224-0.094,0.411-0.094,0.563c0.094,0.717,0.282,1.445,0.564,2.209c0.012,0.06,0.035,0.095,0.094,0.095
					c0.259-0.247,0.435-0.67,0.517-1.27c0.282-0.646,0.423-1.14,0.423-1.457v-1.081c0-0.258,0.06-0.881,0.188-1.879v-0.048h-0.141
					c-0.693,0-1.223-0.082-1.599-0.234V22.917z"/>
				<path fill="#FFFFFF" d="M155.319,12.225c0.105,0,0.199,0.459,0.282,1.363c0.599,2.69,1.08,4.712,1.456,6.063
					c0.036,0.059,0.083,0.271,0.142,0.658h0.047c0-0.188,0.141-0.893,0.423-2.115v-0.047c0-0.47,0.012-1.222,0.047-2.256
					c-0.094-0.493-0.141-0.904-0.141-1.222v-0.611c0-0.293,0.012-0.657,0.047-1.081l-0.047-0.281c0-0.564,0.481-0.847,1.457-0.847
					h0.234c0.259,0,0.436,0.2,0.518,0.611c0.246,2.174,0.657,4.488,1.222,6.956c0,0.129,0.059,0.764,0.188,1.927v0.47
					c0,0.423-0.035,0.764-0.094,1.034c0.035,0.164,0.047,0.317,0.047,0.47c-0.211,2.314-0.399,3.478-0.563,3.478
					c-0.177,0.74-0.388,1.281-0.658,1.646c-0.129,0.634-0.329,1.092-0.611,1.362c-0.799,0.729-1.315,1.116-1.551,1.175
					c-0.493,0.188-0.787,0.282-0.893,0.282l-0.329-0.047l-0.658,0.047c-0.246,0-0.563-0.152-0.939-0.47
					c-0.623,0-1.046-0.929-1.27-2.773c-0.059-0.188-0.094-0.599-0.094-1.222v-0.141c0-0.082,0.035-0.506,0.094-1.27v-0.517
					c0-0.493,0.341-0.787,1.034-0.893c0.446-0.13,0.882-0.188,1.316-0.188h0.188c0.165,0,0.271,0.411,0.329,1.222
					c0.047,0.165,0.141,0.835,0.282,2.021c0.129,0.388,0.188,0.67,0.188,0.846c1.034-1.668,1.551-3.255,1.551-4.747
					c-0.023-0.716-0.07-1.08-0.141-1.08c-0.6,0.411-1.398,0.61-2.396,0.61h-0.142c-1.151,0-1.962-0.74-2.443-2.209
					c-0.317-0.634-0.553-1.856-0.705-3.665c-0.035-1.587-0.082-3.161-0.141-4.7c0-0.235,0.388-0.411,1.175-0.517
					C154.802,11.697,155.319,11.909,155.319,12.225z"/>
				<path fill="#FFFFFF" d="M169.436,15.821c0.435,1.058,0.657,2.186,0.657,3.384c0.036,0,0.048,0.082,0.048,0.235
					c0,0.059-0.06,0.388-0.188,0.986c0.152,0.764,0.235,1.646,0.235,2.632v0.094c0,0.67-0.095,1.54-0.282,2.633
					c0,0.646-0.271,1.386-0.799,2.208c-0.142,0.693-0.388,1.034-0.752,1.034c-0.153,0.411-0.481,0.611-0.987,0.611
					c-0.199,0-0.587-0.059-1.175-0.188c-0.588,0.13-0.976,0.188-1.175,0.188h-0.188c-0.811,0-1.386-0.564-1.738-1.692
					c-0.341-0.622-0.635-1.586-0.894-2.866c0-0.224-0.012-0.341-0.047-0.376l0.095-0.894c-0.036-0.505-0.048-0.963-0.048-1.362
					v-0.188c0-1.422,0.083-2.162,0.235-2.209c-0.035-0.059-0.047-0.105-0.047-0.141c0-0.282,0.141-0.952,0.423-2.021
					c0-0.411,0.317-1.504,0.94-3.289c0.293-0.353,0.575-0.553,0.846-0.611c0.74-0.282,1.504-0.423,2.303-0.423
					C168.166,13.565,169.013,14.317,169.436,15.821z M166.381,15.961c-0.13,0.459-0.271,1.316-0.424,2.585v0.799
					c0,0.106-0.047,0.212-0.141,0.329v0.188c0,0.822-0.035,1.339-0.094,1.551c0.035,0.211,0.047,0.388,0.047,0.517v0.47
					c0,1.116,0.176,2.573,0.517,4.371h0.047c0.271-0.376,0.506-1.163,0.705-2.35c0.13-0.929,0.188-1.868,0.188-2.82
					c0-0.481-0.059-1.28-0.188-2.396v-0.235c0-0.129,0.012-0.305,0.047-0.517c-0.246-1.011-0.47-1.845-0.657-2.491H166.381z"/>
				<path fill="#FFFFFF" d="M178.523,12.696c0.635,0,1.022,0.246,1.175,0.752c0.341,0.775,0.693,1.985,1.034,3.618l0.282,1.739
					l-0.048,0.658c0.036,0.822,0.048,1.386,0.048,1.691c0,0.717-0.153,1.634-0.471,2.773c-0.105,2.067-0.234,3.102-0.376,3.102
					c-0.411,1.14-1.233,2.056-2.443,2.726c-0.999,0.435-1.845,0.658-2.538,0.658h-0.047l-0.094,0.047v-0.047l-0.095,0.047
					c-0.458,0-0.975-0.317-1.551-0.94c-0.493-0.646-0.963-1.516-1.409-2.584c-0.412-1.258-0.611-2.727-0.611-4.418
					c0-0.493,0.105-2.938,0.329-7.332v-0.752c0-0.563,0.223-0.846,0.658-0.846c0.353-0.152,0.716-0.235,1.08-0.235h0.282
					l0.094-0.047v0.047c0.036,0,0.048-0.012,0.048-0.047c0.61,0,1.092,0.294,1.456,0.894c0.13,0.446,0.188,0.787,0.188,1.033
					c-0.059,0.729-0.094,1.199-0.094,1.41c0,0.177,0.094,0.775,0.281,1.786c-0.035,0.752-0.082,1.352-0.141,1.786l0.094,1.175
					l-0.047,0.094c0,0.07,0.012,0.129,0.047,0.188c-0.035,0.411-0.047,0.74-0.047,0.986v0.705c0,0.481,0.059,1.151,0.188,2.021
					h-0.047c0.059,0.376,0.141,0.717,0.234,1.034c0.177-0.164,0.423-1.093,0.752-2.772c0-0.2,0.142-1.022,0.423-2.444
					c0.13-0.622,0.2-2.009,0.235-4.136c0.035,0,0.059-0.188,0.094-0.563c-0.035-0.388-0.07-0.6-0.094-0.658h0.047
					c-0.059-0.164-0.094-0.528-0.094-1.081v-1.175c0-0.435,0.329-0.729,0.986-0.893H178.523z"/>
			</g>
			<g>
				<g>
					<g>
						<path fill="#FFFFFF" d="M94.535,35.739c1.029,0.675,1.562,2.343,1.562,4.969c0.959,3.621,1.739,7.88,2.414,12.777
							c0,0.143-0.106,0.888-0.284,2.271v0.994l1.136,5.82c-0.178,1.207-0.284,1.952-0.284,2.271
							c0.568,0.994,0.853,1.739,0.853,2.271v0.284c0,0.319-0.143,0.816-0.427,1.562c0.106,2.307,0.143,3.585,0.143,3.833
							c-0.178,0.852-0.284,1.455-0.284,1.846v0.142c0,0.249,0.106,1.739,0.284,4.543v2.414c0,0.958,1.277,1.42,3.833,1.42
							c2.449,0,3.691,0.319,3.691,0.993c0.283,0.036,0.426,0.426,0.426,1.136c0,1.562-1.526,2.84-4.543,3.833
							c-1.598,0.391-3.123,0.568-4.543,0.568h-5.537c-1.49,0-3.301-1.136-5.395-3.407c-1.313-2.2-1.987-5.644-1.987-10.364
							c-0.106,0-0.284-1.029-0.568-3.123c0.178-1.633,0.284-2.804,0.284-3.549c-0.675-2.981-0.994-4.792-0.994-5.395l0.426-4.686
							c-0.567-3.442-0.852-6.495-0.852-9.228c0-2.023,0.035-6.495,0.143-13.487c0.39-1.597,2.129-2.413,5.252-2.413
							C92.796,34.39,94.535,34.958,94.535,35.739z"/>
						<path fill="#FFFFFF" d="M130.31,43.654c1.313,3.194,1.987,6.602,1.987,10.222c0.106,0,0.142,0.248,0.142,0.71
							c0,0.178-0.178,1.171-0.567,2.981c0.461,2.307,0.71,4.969,0.71,7.95V65.8c0,2.023-0.284,4.65-0.853,7.951
							c0,1.951-0.816,4.188-2.413,6.672c-0.426,2.094-1.171,3.123-2.271,3.123c-0.462,1.242-1.455,1.846-2.981,1.846
							c-0.604,0-1.774-0.177-3.549-0.567c-1.774,0.391-2.946,0.567-3.55,0.567h-0.567c-2.449,0-4.188-1.703-5.253-5.11
							c-1.029-1.881-1.917-4.792-2.697-8.66c0-0.675-0.036-1.029-0.143-1.136l0.284-2.697c-0.106-1.526-0.142-2.91-0.142-4.117
							v-0.568c0-4.294,0.248-6.53,0.71-6.672c-0.106-0.178-0.143-0.319-0.143-0.426c0-0.853,0.426-2.875,1.278-6.105
							c0-1.242,0.958-4.543,2.839-9.938c0.888-1.064,1.739-1.668,2.556-1.846c2.236-0.852,4.543-1.277,6.956-1.277
							C126.476,36.839,129.031,39.111,130.31,43.654z M121.081,44.08c-0.391,1.385-0.816,3.976-1.277,7.809v2.413
							c0,0.319-0.143,0.639-0.426,0.994v0.567c0,2.484-0.106,4.046-0.284,4.686c0.106,0.639,0.142,1.171,0.142,1.562v1.419
							c0,3.372,0.532,7.773,1.562,13.203h0.143c0.816-1.136,1.526-3.514,2.129-7.098c0.391-2.805,0.568-5.644,0.568-8.519
							c0-1.455-0.178-3.868-0.568-7.24v-0.71c0-0.391,0.036-0.923,0.143-1.562c-0.745-3.053-1.42-5.572-1.987-7.524H121.081z"/>
						<path fill="#FFFFFF" d="M138.044,34.639c3.407,0,5.111,0.567,5.111,1.703c0.639,1.668,1.384,4.827,2.271,9.512
							c-0.106,1.242-0.143,2.308-0.143,3.124c0.852,1.738,1.598,5.11,2.271,10.079c0.106,2.521,0.284,4.792,0.568,6.814h0.142
							c0.745-4.152,1.136-7.418,1.136-9.796c0.391-1.881,1.029-6.14,1.987-12.776v-0.994c0-4.756,1.242-7.276,3.691-7.524
							c0.106-0.106,0.462-0.142,0.994-0.142h0.283c1.704,0,2.556,0.532,2.556,1.562v1.277c-0.497,2.449-0.887,3.833-1.136,4.117
							l0.143,0.71v1.42l-0.143,0.283c0.249,0,0.462,0.462,0.568,1.42v1.136c0,1.598-0.284,4.295-0.853,8.093v3.123
							c0,0.604-0.426,2.732-1.277,6.389l0.142,0.852v0.426c-0.354,3.017-0.674,4.756-0.993,5.253v0.284
							c0.178,1.349,0.284,2.094,0.284,2.271c-0.746,2.413-1.242,5.288-1.42,8.66c-0.532,2.378-1.207,3.833-1.987,4.4
							c-1.207,0.816-3.656,1.598-7.383,2.271h-0.284c-1.562,0-2.839-1.242-3.833-3.691c-0.993-1.242-1.597-3.087-1.846-5.536
							c-2.094-7.702-3.123-13.451-3.123-17.32c-0.319,0-0.71-4.508-1.136-13.487c-0.178,0-0.248-0.567-0.284-1.703v-2.413
							c0-0.71-0.142-1.882-0.426-3.55c0.106-1.171,0.143-1.881,0.143-2.129c-0.284-1.065-0.427-1.669-0.427-1.846
							c0-1.101,0.816-1.882,2.414-2.271H138.044z"/>
						<path fill="#FFFFFF" d="M171.155,35.952c0.391-0.177,0.994-0.283,1.775-0.283c2.448,0.248,4.72,0.426,6.885,0.532
							c1.385,0.745,2.059,1.668,2.059,2.804c-1.242,2.52-3.727,3.762-7.418,3.762h-1.668l-0.674,0.143v-0.143l-0.284,0.143
							c-0.178-0.106-0.354-0.143-0.532-0.143c-0.284,0.71-0.426,1.385-0.426,1.988v0.283c0,0.71,0.035,1.633,0.142,2.805
							l-0.675,1.881c0.143,1.313,0.32,1.987,0.533,1.987s0.887-0.035,2.059-0.142c3.584,0.816,5.359,1.419,5.359,1.739
							c0.567,0.496,0.852,1.028,0.852,1.632c-0.604,1.42-1.739,2.13-3.443,2.13c-0.283,0-1.668,0.461-4.152,1.349h-0.532
							l0.142,0.248c0,0.249-0.035,0.391-0.142,0.391c0.106,1.065,0.142,1.811,0.142,2.271v2.023c0,0.604-0.106,1.987-0.283,4.152
							c0.106,0.71,0.283,1.349,0.567,1.881l-0.142,1.598v1.313c0,3.337,0.178,5.644,0.532,6.957
							c-0.106,0.923-0.142,1.633-0.142,2.165v0.248c0,0.532,0.319,0.816,0.958,0.816c1.668,0,3.372-0.106,5.11-0.284
							c2.201,0,3.301,0.532,3.301,1.598c-0.958,2.662-4.081,3.904-9.369,3.798c-4.188,0.319-7.135-0.071-8.873-1.207
							c-1.029-4.721-1.563-9.37-1.563-13.948c0-1.42,0.107-3.159,0.284-5.218c-0.177-0.639-0.391-2.094-0.567-4.4l0.283-3.088
							c-0.106-0.213-0.177-1.739-0.283-4.543l0.674-8.695c-0.177-0.568-0.248-0.959-0.248-1.207v-0.532
							c0-0.426,0.035-0.853,0.142-1.313c-0.106-0.604-0.177-1.029-0.284-1.207c0.107-0.745,0.143-1.384,0.143-1.881v-2.804
							c0-0.745,0.994-1.526,3.017-2.271c1.029,0,1.526-0.035,1.526-0.142C168.636,35.384,170.375,35.668,171.155,35.952z"/>
					</g>
				</g>
				<g>
					<path fill="#FFFFFF" d="M94.535,35.739c1.029,0.675,1.562,2.343,1.562,4.969c0.959,3.621,1.739,7.88,2.414,12.777
						c0,0.143-0.106,0.888-0.284,2.271v0.994l1.136,5.82c-0.178,1.207-0.284,1.952-0.284,2.271c0.568,0.994,0.853,1.739,0.853,2.271
						v0.284c0,0.319-0.143,0.816-0.427,1.562c0.106,2.307,0.143,3.585,0.143,3.833c-0.178,0.852-0.284,1.455-0.284,1.846v0.142
						c0,0.249,0.106,1.739,0.284,4.543v2.414c0,0.958,1.277,1.42,3.833,1.42c2.449,0,3.691,0.319,3.691,0.993
						c0.283,0.036,0.426,0.426,0.426,1.136c0,1.562-1.526,2.84-4.543,3.833c-1.598,0.391-3.123,0.568-4.543,0.568h-5.537
						c-1.49,0-3.301-1.136-5.395-3.407c-1.313-2.2-1.987-5.644-1.987-10.364c-0.106,0-0.284-1.029-0.568-3.123
						c0.178-1.633,0.284-2.804,0.284-3.549c-0.675-2.981-0.994-4.792-0.994-5.395l0.426-4.686c-0.567-3.442-0.852-6.495-0.852-9.228
						c0-2.023,0.035-6.495,0.143-13.487c0.39-1.597,2.129-2.413,5.252-2.413C92.796,34.39,94.535,34.958,94.535,35.739z"/>
					<path fill="#FFFFFF" d="M130.31,43.654c1.313,3.194,1.987,6.602,1.987,10.222c0.106,0,0.142,0.248,0.142,0.71
						c0,0.178-0.178,1.171-0.567,2.981c0.461,2.307,0.71,4.969,0.71,7.95V65.8c0,2.023-0.284,4.65-0.853,7.951
						c0,1.951-0.816,4.188-2.413,6.672c-0.426,2.094-1.171,3.123-2.271,3.123c-0.462,1.242-1.455,1.846-2.981,1.846
						c-0.604,0-1.774-0.177-3.549-0.567c-1.774,0.391-2.946,0.567-3.55,0.567h-0.567c-2.449,0-4.188-1.703-5.253-5.11
						c-1.029-1.881-1.917-4.792-2.697-8.66c0-0.675-0.036-1.029-0.143-1.136l0.284-2.697c-0.106-1.526-0.142-2.91-0.142-4.117
						v-0.568c0-4.294,0.248-6.53,0.71-6.672c-0.106-0.178-0.143-0.319-0.143-0.426c0-0.853,0.426-2.875,1.278-6.105
						c0-1.242,0.958-4.543,2.839-9.938c0.888-1.064,1.739-1.668,2.556-1.846c2.236-0.852,4.543-1.277,6.956-1.277
						C126.476,36.839,129.031,39.111,130.31,43.654z M121.081,44.08c-0.391,1.385-0.816,3.976-1.277,7.809v2.413
						c0,0.319-0.143,0.639-0.426,0.994v0.567c0,2.484-0.106,4.046-0.284,4.686c0.106,0.639,0.142,1.171,0.142,1.562v1.419
						c0,3.372,0.532,7.773,1.562,13.203h0.143c0.816-1.136,1.526-3.514,2.129-7.098c0.391-2.805,0.568-5.644,0.568-8.519
						c0-1.455-0.178-3.868-0.568-7.24v-0.71c0-0.391,0.036-0.923,0.143-1.562c-0.745-3.053-1.42-5.572-1.987-7.524H121.081z"/>
					<path fill="#FFFFFF" d="M138.044,34.639c3.407,0,5.111,0.567,5.111,1.703c0.639,1.668,1.384,4.827,2.271,9.512
						c-0.106,1.242-0.143,2.308-0.143,3.124c0.852,1.738,1.598,5.11,2.271,10.079c0.106,2.521,0.284,4.792,0.568,6.814h0.142
						c0.745-4.152,1.136-7.418,1.136-9.796c0.391-1.881,1.029-6.14,1.987-12.776v-0.994c0-4.756,1.242-7.276,3.691-7.524
						c0.106-0.106,0.462-0.142,0.994-0.142h0.283c1.704,0,2.556,0.532,2.556,1.562v1.277c-0.497,2.449-0.887,3.833-1.136,4.117
						l0.143,0.71v1.42l-0.143,0.283c0.249,0,0.462,0.462,0.568,1.42v1.136c0,1.598-0.284,4.295-0.853,8.093v3.123
						c0,0.604-0.426,2.732-1.277,6.389l0.142,0.852v0.426c-0.354,3.017-0.674,4.756-0.993,5.253v0.284
						c0.178,1.349,0.284,2.094,0.284,2.271c-0.746,2.413-1.242,5.288-1.42,8.66c-0.532,2.378-1.207,3.833-1.987,4.4
						c-1.207,0.816-3.656,1.598-7.383,2.271h-0.284c-1.562,0-2.839-1.242-3.833-3.691c-0.993-1.242-1.597-3.087-1.846-5.536
						c-2.094-7.702-3.123-13.451-3.123-17.32c-0.319,0-0.71-4.508-1.136-13.487c-0.178,0-0.248-0.567-0.284-1.703v-2.413
						c0-0.71-0.142-1.882-0.426-3.55c0.106-1.171,0.143-1.881,0.143-2.129c-0.284-1.065-0.427-1.669-0.427-1.846
						c0-1.101,0.816-1.882,2.414-2.271H138.044z"/>
					<path fill="#FFFFFF" d="M171.155,35.952c0.391-0.177,0.994-0.283,1.775-0.283c2.448,0.248,4.72,0.426,6.885,0.532
						c1.385,0.745,2.059,1.668,2.059,2.804c-1.242,2.52-3.727,3.762-7.418,3.762h-1.668l-0.674,0.143v-0.143l-0.284,0.143
						c-0.178-0.106-0.354-0.143-0.532-0.143c-0.284,0.71-0.426,1.385-0.426,1.988v0.283c0,0.71,0.035,1.633,0.142,2.805
						l-0.675,1.881c0.143,1.313,0.32,1.987,0.533,1.987s0.887-0.035,2.059-0.142c3.584,0.816,5.359,1.419,5.359,1.739
						c0.567,0.496,0.852,1.028,0.852,1.632c-0.604,1.42-1.739,2.13-3.443,2.13c-0.283,0-1.668,0.461-4.152,1.349h-0.532l0.142,0.248
						c0,0.249-0.035,0.391-0.142,0.391c0.106,1.065,0.142,1.811,0.142,2.271v2.023c0,0.604-0.106,1.987-0.283,4.152
						c0.106,0.71,0.283,1.349,0.567,1.881l-0.142,1.598v1.313c0,3.337,0.178,5.644,0.532,6.957
						c-0.106,0.923-0.142,1.633-0.142,2.165v0.248c0,0.532,0.319,0.816,0.958,0.816c1.668,0,3.372-0.106,5.11-0.284
						c2.201,0,3.301,0.532,3.301,1.598c-0.958,2.662-4.081,3.904-9.369,3.798c-4.188,0.319-7.135-0.071-8.873-1.207
						c-1.029-4.721-1.563-9.37-1.563-13.948c0-1.42,0.107-3.159,0.284-5.218c-0.177-0.639-0.391-2.094-0.567-4.4l0.283-3.088
						c-0.106-0.213-0.177-1.739-0.283-4.543l0.674-8.695c-0.177-0.568-0.248-0.959-0.248-1.207v-0.532
						c0-0.426,0.035-0.853,0.142-1.313c-0.106-0.604-0.177-1.029-0.284-1.207c0.107-0.745,0.143-1.384,0.143-1.881v-2.804
						c0-0.745,0.994-1.526,3.017-2.271c1.029,0,1.526-0.035,1.526-0.142C168.636,35.384,170.375,35.668,171.155,35.952z"/>
				</g>
				<g>
					<g>
						<path fill="#FFFFFF" d="M94.535,35.739c1.029,0.675,1.562,2.343,1.562,4.969c0.959,3.621,1.739,7.88,2.414,12.777
							c0,0.143-0.106,0.888-0.284,2.271v0.994l1.136,5.82c-0.178,1.207-0.284,1.952-0.284,2.271
							c0.568,0.994,0.853,1.739,0.853,2.271v0.284c0,0.319-0.143,0.816-0.427,1.562c0.106,2.307,0.143,3.585,0.143,3.833
							c-0.178,0.852-0.284,1.455-0.284,1.846v0.142c0,0.249,0.106,1.739,0.284,4.543v2.414c0,0.958,1.277,1.42,3.833,1.42
							c2.449,0,3.691,0.319,3.691,0.993c0.283,0.036,0.426,0.426,0.426,1.136c0,1.562-1.526,2.84-4.543,3.833
							c-1.598,0.391-3.123,0.568-4.543,0.568h-5.537c-1.49,0-3.301-1.136-5.395-3.407c-1.313-2.2-1.987-5.644-1.987-10.364
							c-0.106,0-0.284-1.029-0.568-3.123c0.178-1.633,0.284-2.804,0.284-3.549c-0.675-2.981-0.994-4.792-0.994-5.395l0.426-4.686
							c-0.567-3.442-0.852-6.495-0.852-9.228c0-2.023,0.035-6.495,0.143-13.487c0.39-1.597,2.129-2.413,5.252-2.413
							C92.796,34.39,94.535,34.958,94.535,35.739z"/>
						<path fill="#FFFFFF" d="M130.31,43.654c1.313,3.194,1.987,6.602,1.987,10.222c0.106,0,0.142,0.248,0.142,0.71
							c0,0.178-0.178,1.171-0.567,2.981c0.461,2.307,0.71,4.969,0.71,7.95V65.8c0,2.023-0.284,4.65-0.853,7.951
							c0,1.951-0.816,4.188-2.413,6.672c-0.426,2.094-1.171,3.123-2.271,3.123c-0.462,1.242-1.455,1.846-2.981,1.846
							c-0.604,0-1.774-0.177-3.549-0.567c-1.774,0.391-2.946,0.567-3.55,0.567h-0.567c-2.449,0-4.188-1.703-5.253-5.11
							c-1.029-1.881-1.917-4.792-2.697-8.66c0-0.675-0.036-1.029-0.143-1.136l0.284-2.697c-0.106-1.526-0.142-2.91-0.142-4.117
							v-0.568c0-4.294,0.248-6.53,0.71-6.672c-0.106-0.178-0.143-0.319-0.143-0.426c0-0.853,0.426-2.875,1.278-6.105
							c0-1.242,0.958-4.543,2.839-9.938c0.888-1.064,1.739-1.668,2.556-1.846c2.236-0.852,4.543-1.277,6.956-1.277
							C126.476,36.839,129.031,39.111,130.31,43.654z M121.081,44.08c-0.391,1.385-0.816,3.976-1.277,7.809v2.413
							c0,0.319-0.143,0.639-0.426,0.994v0.567c0,2.484-0.106,4.046-0.284,4.686c0.106,0.639,0.142,1.171,0.142,1.562v1.419
							c0,3.372,0.532,7.773,1.562,13.203h0.143c0.816-1.136,1.526-3.514,2.129-7.098c0.391-2.805,0.568-5.644,0.568-8.519
							c0-1.455-0.178-3.868-0.568-7.24v-0.71c0-0.391,0.036-0.923,0.143-1.562c-0.745-3.053-1.42-5.572-1.987-7.524H121.081z"/>
						<path fill="#FFFFFF" d="M138.044,34.639c3.407,0,5.111,0.567,5.111,1.703c0.639,1.668,1.384,4.827,2.271,9.512
							c-0.106,1.242-0.143,2.308-0.143,3.124c0.852,1.738,1.598,5.11,2.271,10.079c0.106,2.521,0.284,4.792,0.568,6.814h0.142
							c0.745-4.152,1.136-7.418,1.136-9.796c0.391-1.881,1.029-6.14,1.987-12.776v-0.994c0-4.756,1.242-7.276,3.691-7.524
							c0.106-0.106,0.462-0.142,0.994-0.142h0.283c1.704,0,2.556,0.532,2.556,1.562v1.277c-0.497,2.449-0.887,3.833-1.136,4.117
							l0.143,0.71v1.42l-0.143,0.283c0.249,0,0.462,0.462,0.568,1.42v1.136c0,1.598-0.284,4.295-0.853,8.093v3.123
							c0,0.604-0.426,2.732-1.277,6.389l0.142,0.852v0.426c-0.354,3.017-0.674,4.756-0.993,5.253v0.284
							c0.178,1.349,0.284,2.094,0.284,2.271c-0.746,2.413-1.242,5.288-1.42,8.66c-0.532,2.378-1.207,3.833-1.987,4.4
							c-1.207,0.816-3.656,1.598-7.383,2.271h-0.284c-1.562,0-2.839-1.242-3.833-3.691c-0.993-1.242-1.597-3.087-1.846-5.536
							c-2.094-7.702-3.123-13.451-3.123-17.32c-0.319,0-0.71-4.508-1.136-13.487c-0.178,0-0.248-0.567-0.284-1.703v-2.413
							c0-0.71-0.142-1.882-0.426-3.55c0.106-1.171,0.143-1.881,0.143-2.129c-0.284-1.065-0.427-1.669-0.427-1.846
							c0-1.101,0.816-1.882,2.414-2.271H138.044z"/>
						<path fill="#FFFFFF" d="M171.155,35.952c0.391-0.177,0.994-0.283,1.775-0.283c2.448,0.248,4.72,0.426,6.885,0.532
							c1.385,0.745,2.059,1.668,2.059,2.804c-1.242,2.52-3.727,3.762-7.418,3.762h-1.668l-0.674,0.143v-0.143l-0.284,0.143
							c-0.178-0.106-0.354-0.143-0.532-0.143c-0.284,0.71-0.426,1.385-0.426,1.988v0.283c0,0.71,0.035,1.633,0.142,2.805
							l-0.675,1.881c0.143,1.313,0.32,1.987,0.533,1.987s0.887-0.035,2.059-0.142c3.584,0.816,5.359,1.419,5.359,1.739
							c0.567,0.496,0.852,1.028,0.852,1.632c-0.604,1.42-1.739,2.13-3.443,2.13c-0.283,0-1.668,0.461-4.152,1.349h-0.532
							l0.142,0.248c0,0.249-0.035,0.391-0.142,0.391c0.106,1.065,0.142,1.811,0.142,2.271v2.023c0,0.604-0.106,1.987-0.283,4.152
							c0.106,0.71,0.283,1.349,0.567,1.881l-0.142,1.598v1.313c0,3.337,0.178,5.644,0.532,6.957
							c-0.106,0.923-0.142,1.633-0.142,2.165v0.248c0,0.532,0.319,0.816,0.958,0.816c1.668,0,3.372-0.106,5.11-0.284
							c2.201,0,3.301,0.532,3.301,1.598c-0.958,2.662-4.081,3.904-9.369,3.798c-4.188,0.319-7.135-0.071-8.873-1.207
							c-1.029-4.721-1.563-9.37-1.563-13.948c0-1.42,0.107-3.159,0.284-5.218c-0.177-0.639-0.391-2.094-0.567-4.4l0.283-3.088
							c-0.106-0.213-0.177-1.739-0.283-4.543l0.674-8.695c-0.177-0.568-0.248-0.959-0.248-1.207v-0.532
							c0-0.426,0.035-0.853,0.142-1.313c-0.106-0.604-0.177-1.029-0.284-1.207c0.107-0.745,0.143-1.384,0.143-1.881v-2.804
							c0-0.745,0.994-1.526,3.017-2.271c1.029,0,1.526-0.035,1.526-0.142C168.636,35.384,170.375,35.668,171.155,35.952z"/>
					</g>
				</g>
			</g>
		</g>
		<g>
			<g>
				<path fill="#F7991C" d="M89.926,15.092c0.13,0.388,0.224,1.14,0.282,2.256c0,0.341-0.47,0.517-1.41,0.517
					c-0.622-0.129-1.033-0.316-1.222-0.563c-0.129-0.212-0.282-0.682-0.47-1.41c-0.6-0.787-1.046-1.175-1.316-1.175v0.329
					c0,0.446,0.177,1.14,0.518,2.067c1.01,1.751,1.727,3.22,2.161,4.418c0.095,0.529,0.282,1.233,0.564,2.115
					c0.152,0.834,0.235,1.28,0.235,1.315v0.329c0,0.411,0.035,0.94,0.094,1.598c-0.094,0.306-0.153,0.788-0.188,1.457
					c-0.293,0.764-0.729,1.469-1.315,2.115c-0.2,0.376-0.635,0.563-1.316,0.563c-0.176,0-0.293,0.012-0.329,0.048
					c-1.175,0-1.938-0.459-2.303-1.363c-0.388-0.481-0.646-1.022-0.752-1.598c-0.223-0.317-0.329-0.67-0.329-1.034v-0.329
					c0-0.6,0.317-0.893,0.94-0.893c0-0.059,0.105-0.083,0.329-0.095c0.705,0,1.257,0.6,1.645,1.786
					c0.212,0.787,0.411,1.258,0.611,1.41h0.047c0.094-0.541,0.152-1.011,0.188-1.41c-0.082-1.175-0.246-2.067-0.47-2.679v-0.563
					c-0.176-0.106-0.353-0.564-0.517-1.363c-0.411-0.693-0.658-1.28-0.752-1.739c-0.869-1.397-1.375-2.562-1.504-3.478
					c-0.188-0.916-0.282-1.434-0.282-1.551v-0.517c0-0.071,0.012-0.13,0.047-0.188c-0.023-0.059-0.059-0.294-0.094-0.705
					c0.2-0.74,0.552-1.257,1.034-1.551c0.764-0.6,1.586-0.893,2.49-0.893C87.894,12.32,89.021,13.248,89.926,15.092z"/>
				<path fill="#F7991C" d="M95.007,13.271c0.13-0.059,0.329-0.094,0.588-0.094c0.811,0.082,1.563,0.141,2.279,0.176
					c0.458,0.247,0.682,0.553,0.682,0.929c-0.411,0.834-1.234,1.245-2.456,1.245h-0.552l-0.224,0.047v-0.047l-0.094,0.047
					c-0.059-0.035-0.118-0.047-0.177-0.047c-0.094,0.235-0.141,0.458-0.141,0.658v0.094c0,0.235,0.012,0.541,0.047,0.929
					l-0.223,0.622c0.047,0.436,0.105,0.658,0.176,0.658s0.294-0.012,0.682-0.047c1.187,0.271,1.773,0.47,1.773,0.576
					c0.188,0.164,0.282,0.34,0.282,0.54c-0.199,0.47-0.575,0.705-1.14,0.705c-0.094,0-0.552,0.152-1.374,0.446H94.96l0.047,0.082
					c0,0.082-0.012,0.13-0.047,0.13c0.035,0.353,0.047,0.599,0.047,0.752v0.669c0,0.2-0.035,0.658-0.094,1.375
					c0.035,0.235,0.094,0.446,0.188,0.623l-0.047,0.528v0.435c0,1.104,0.059,1.868,0.177,2.303
					c-0.035,0.306-0.047,0.541-0.047,0.717v0.082c0,0.177,0.105,0.271,0.317,0.271c0.552,0,1.115-0.035,1.691-0.094
					c0.729,0,1.093,0.176,1.093,0.528c-0.317,0.882-1.352,1.293-3.102,1.258c-1.387,0.105-2.362-0.023-2.938-0.399
					c-0.341-1.563-0.517-3.103-0.517-4.618c0-0.47,0.035-1.045,0.094-1.727c-0.059-0.212-0.13-0.693-0.188-1.457l0.095-1.022
					c-0.036-0.07-0.06-0.575-0.095-1.504l0.224-2.878c-0.059-0.188-0.082-0.317-0.082-0.4v-0.176c0-0.141,0.012-0.282,0.047-0.435
					c-0.035-0.2-0.059-0.341-0.094-0.399c0.035-0.247,0.047-0.458,0.047-0.623V13.8c0-0.247,0.328-0.506,0.998-0.752
					c0.341,0,0.506-0.012,0.506-0.047C94.173,13.083,94.749,13.177,95.007,13.271z"/>
				<path fill="#F7991C" d="M107.596,12.202c0.505,0,0.752,0.177,0.752,0.518c0.047,0,0.094,0.341,0.141,1.034
					c0.188,0.411,0.317,0.739,0.376,0.986l-0.094,2.209c0.094,0.446,0.141,1.011,0.141,1.691v0.048c0,0.399-0.047,0.717-0.141,0.939
					c0.059,0.306,0.094,0.729,0.094,1.269v0.048c0,0.552-0.047,0.951-0.141,1.222c0.035,0.271,0.047,0.446,0.047,0.517
					c0,1.352-0.059,2.256-0.188,2.726c0.035,0.623,0.048,1.022,0.048,1.223c0,0.105-0.048,0.435-0.142,0.986l0.047,0.658
					c0,0.869-0.857,1.48-2.585,1.833c-0.493,0-0.928-0.329-1.315-0.987c-0.129-0.505-0.435-1.516-0.94-3.008l-0.705-2.49h-0.047
					c-0.035,0.317-0.047,0.552-0.047,0.705v0.188c0.059,1.645,0.094,2.55,0.094,2.726c-0.07,1.316-0.152,2.033-0.234,2.162
					c-0.423,0.282-0.811,0.423-1.175,0.423c-1.093,0-1.646-0.599-1.646-1.785c0.095-1.352,0.142-2.127,0.142-2.304
					c-0.13-0.928-0.188-1.551-0.188-1.88c0-0.105,0.035-0.316,0.094-0.657l-0.047-0.282c0.035-0.317,0.047-0.576,0.047-0.752
					c0-0.294-0.035-0.693-0.094-1.222c0.153-1.728,0.282-3.479,0.376-5.264c-0.035-0.635-0.047-1.069-0.047-1.316
					c0-0.787,0.153-1.175,0.47-1.175c0.188-0.094,0.424-0.141,0.705-0.141c1.258,0,1.88,0.141,1.88,0.423
					c0.047,0.199,0.247,0.493,0.611,0.893c0.141,0.259,0.282,0.623,0.423,1.081c0.317,0.353,0.47,0.857,0.47,1.504
					c0.376,0.364,0.564,0.928,0.564,1.691c0.246,0.341,0.458,1.141,0.61,2.397c0.095,0.023,0.142,0.199,0.142,0.517h0.047
					c0-0.223,0.082-1.116,0.235-2.679c0-0.811,0.012-1.28,0.047-1.41c-0.035-0.152-0.047-0.364-0.047-0.61v-0.282
					c0-0.164,0.012-0.306,0.047-0.423c-0.035-0.165-0.047-0.317-0.047-0.47v-0.611c0.094-0.693,0.141-1.151,0.141-1.363v-0.986
					c0-0.271,0.282-0.446,0.846-0.518H107.596z M106.045,21.743v0.141h0.047v-0.141H106.045z"/>
				<path fill="#F7991C" d="M112.925,12.002c1.504,0,2.573,0.528,3.195,1.598c0.635,0.787,1.246,1.938,1.833,3.431
					c0.341,1.093,0.518,1.856,0.518,2.303c0,0.177-0.012,0.388-0.048,0.658c0.095,0.623,0.142,1.046,0.142,1.269
					c0,0.341-0.047,0.835-0.142,1.504c0.036,0.271,0.048,0.471,0.048,0.611c-0.188,0.646-0.317,1.28-0.376,1.927
					c-0.376,0.857-0.623,1.527-0.752,2.021c-0.399,0.316-0.67,0.692-0.799,1.128l-0.658,0.423c-0.882,1.539-1.728,2.303-2.538,2.303
					c-0.388,0-0.693-0.177-0.893-0.518c-0.623,0-1.046-0.188-1.27-0.563c-0.282-0.904-0.435-1.915-0.47-3.055
					c-0.059-0.329-0.094-0.905-0.094-1.739v-0.563c-0.094-0.929-0.142-1.704-0.142-2.303c0-0.023,0.035-0.13,0.095-0.329
					c-0.06-0.282-0.106-0.764-0.142-1.457c0.035-0.799,0.059-1.258,0.095-1.363l-0.095-0.61l0.095-1.599
					c-0.036-1.045-0.048-2.032-0.048-2.961v-0.61c-0.129-0.388-0.188-0.623-0.188-0.705c0-0.47,0.846-0.74,2.538-0.799H112.925z
					 M113.348,13.741l0.752,3.196v0.939c0.317,0.224,0.47,0.693,0.47,1.41c0,0.047-0.035,0.177-0.094,0.376
					c0.094,0,0.152,0.224,0.188,0.658v0.094c0,0.212-0.012,0.399-0.047,0.564l0.047,0.329c-0.035,0.388-0.047,0.599-0.047,0.61
					c0.06,0.388,0.095,0.717,0.095,0.987v2.961c0,0.129-0.035,0.258-0.095,0.376v0.047h0.047c0.529-0.952,0.8-1.751,0.8-2.397
					c0.188-0.669,0.281-1.527,0.281-2.584v-0.329c0-2.714-0.517-4.888-1.551-6.533L113.348,13.741z M114.429,26.759v0.094h0.047
					v-0.094H114.429z M114.569,26.336v0.094h0.047v-0.094H114.569z"/>
				<path fill="#F7991C" d="M124.35,12.918c0,0.506-0.329,1.058-0.986,1.646c0,0.059-0.518,0.129-1.563,0.223
					c-1.057-0.023-1.645-0.341-1.773-0.963l-0.13-0.811c0.071-0.306,0.224-0.623,0.459-0.94c0.692-0.224,1.409-0.329,2.161-0.329
					C123.739,11.744,124.35,12.131,124.35,12.918z M122.047,16.491c0.976,0,1.539,0.411,1.692,1.222
					c0.152,0.646,0.234,1.151,0.234,1.504c0,0.082-0.047,0.247-0.141,0.517c0.094,0.153,0.141,0.353,0.141,0.611v0.235
					c0,0.329-0.059,0.657-0.188,0.986l0.047,0.235v0.282c0,0.223-0.047,0.764-0.142,1.645c0,0.271,0.048,0.693,0.142,1.269
					c-0.117,0.905-0.2,1.363-0.235,1.363l0.376,3.76v0.235c0,0.293-0.317,0.481-0.939,0.563c-0.317,0.153-0.752,0.235-1.316,0.235
					h-0.234c-0.529,0-0.835-0.177-0.94-0.518c-0.224-0.152-0.329-0.575-0.329-1.269l-0.282-3.713c0-0.211,0.036-0.729,0.095-1.551
					l-0.095-1.786c0.06-0.857,0.177-1.938,0.329-3.242c0.035-0.436,0.047-0.905,0.047-1.41v-0.423c0-0.247,0.282-0.481,0.847-0.705
					c0.164-0.035,0.353-0.047,0.563-0.047H122.047z"/>
				<path fill="#F7991C" d="M133.284,12.202c0.505,0,0.752,0.177,0.752,0.518c0.047,0,0.094,0.341,0.141,1.034
					c0.188,0.411,0.317,0.739,0.376,0.986l-0.094,2.209c0.094,0.446,0.141,1.011,0.141,1.691v0.048c0,0.399-0.047,0.717-0.141,0.939
					c0.059,0.306,0.094,0.729,0.094,1.269v0.048c0,0.552-0.047,0.951-0.141,1.222c0.035,0.271,0.047,0.446,0.047,0.517
					c0,1.352-0.059,2.256-0.188,2.726c0.035,0.623,0.047,1.022,0.047,1.223c0,0.105-0.047,0.435-0.141,0.986l0.047,0.658
					c0,0.869-0.857,1.48-2.585,1.833c-0.493,0-0.928-0.329-1.315-0.987c-0.129-0.505-0.435-1.516-0.94-3.008l-0.704-2.49h-0.048
					c-0.035,0.317-0.047,0.552-0.047,0.705v0.188c0.059,1.645,0.095,2.55,0.095,2.726c-0.071,1.316-0.153,2.033-0.235,2.162
					c-0.423,0.282-0.811,0.423-1.175,0.423c-1.093,0-1.646-0.599-1.646-1.785c0.095-1.352,0.142-2.127,0.142-2.304
					c-0.13-0.928-0.188-1.551-0.188-1.88c0-0.105,0.035-0.316,0.095-0.657l-0.048-0.282c0.035-0.317,0.048-0.576,0.048-0.752
					c0-0.294-0.036-0.693-0.095-1.222c0.153-1.728,0.282-3.479,0.376-5.264c-0.035-0.635-0.047-1.069-0.047-1.316
					c0-0.787,0.153-1.175,0.47-1.175c0.188-0.094,0.423-0.141,0.705-0.141c1.258,0,1.88,0.141,1.88,0.423
					c0.047,0.199,0.247,0.493,0.611,0.893c0.141,0.259,0.282,0.623,0.423,1.081c0.317,0.353,0.47,0.857,0.47,1.504
					c0.376,0.364,0.564,0.928,0.564,1.691c0.246,0.341,0.458,1.141,0.61,2.397c0.095,0.023,0.142,0.199,0.142,0.517h0.047
					c0-0.223,0.082-1.116,0.234-2.679c0-0.811,0.013-1.28,0.048-1.41c-0.035-0.152-0.048-0.364-0.048-0.61v-0.282
					c0-0.164,0.013-0.306,0.048-0.423c-0.035-0.165-0.048-0.317-0.048-0.47v-0.611c0.095-0.693,0.142-1.151,0.142-1.363v-0.986
					c0-0.271,0.282-0.446,0.846-0.518H133.284z M131.733,21.743v0.141h0.047v-0.141H131.733z"/>
				<path fill="#F7991C" d="M140.751,12.014c1.374,0,2.314,0.623,2.819,1.88c0.035,0.176,0.047,0.317,0.047,0.423
					c0,0.224-0.035,0.388-0.094,0.517c0.059,0.411,0.094,0.717,0.094,0.894c-0.059,0.294-0.094,0.528-0.094,0.705l0.047,0.563
					c-0.059,0.153-0.094,0.282-0.094,0.376c0.059,0.282,0.105,0.423,0.141,0.423l-0.141,0.658c0.094,0.329,0.141,0.576,0.141,0.752
					c0,0.505-0.435,0.752-1.315,0.752c-0.847,0-1.375-0.294-1.599-0.893c-0.152-0.271-0.234-0.553-0.234-0.847v-0.517
					c0-0.035,0.012-0.047,0.047-0.047l-0.047-0.094c0-0.306-0.059-1.199-0.188-2.68c0.035-0.199,0.047-0.411,0.047-0.657v-0.235
					h-0.047c-0.281,0.105-0.423,0.399-0.423,0.893l-0.752,2.444l0.047,0.235v0.281l-0.188,1.504l-0.235,0.705
					c0.059,0.177,0.105,0.388,0.142,0.611c-0.095,0.223-0.142,0.552-0.142,0.986c0.952-0.599,2.057-0.893,3.29-0.893h0.047
					l0.235,0.047v-0.047l0.094,0.047h0.047c0.893,0,1.375,0.177,1.457,0.518c0,0.505,0.129,0.951,0.376,1.362
					c0.059,1.034,0.176,1.821,0.329,2.351c0.223,1.304,0.329,2.079,0.329,2.303c0,0.082-0.059,0.188-0.188,0.328v0.424
					c0,0.129-0.047,0.305-0.141,0.517c0.094,0.976,0.141,1.633,0.141,1.974c0,0.2-0.246,0.353-0.752,0.471V31l-0.094,0.048
					c-0.399,0-0.775-0.153-1.128-0.471c-0.152-0.341-0.235-0.575-0.235-0.705c-0.834,0.658-1.656,0.987-2.443,0.987h-0.047
					c-0.106,0-0.271-0.047-0.518-0.141c-0.105,0.059-0.199,0.094-0.281,0.094h-0.282c-0.07,0-0.13-0.012-0.188-0.047
					c-0.176,0.059-0.446,0.105-0.799,0.141c-0.246,0-0.646-0.623-1.175-1.88c-0.435-0.787-0.658-1.633-0.658-2.538
					c0-0.035,0.012-0.047,0.047-0.047c-0.094-1.128-0.141-1.892-0.141-2.303v-0.235c0-0.105-0.012-0.246-0.047-0.423
					c0.035-0.047,0.047-0.141,0.047-0.281c0-0.035-0.012-0.048-0.047-0.048l0.047-0.234c0.012-1.281,0.271-3.631,0.799-7.05
					c0.13-0.904,0.506-1.774,1.128-2.585c0.693-0.846,1.527-1.269,2.491-1.269H140.751z M138.776,22.917l-0.047,0.282
					c0.035,0.059,0.047,0.117,0.047,0.188l-0.047,0.235c0.035,0.129,0.047,0.234,0.047,0.329c0,0.035-0.012,0.082-0.047,0.141
					c0,0.035,0.012,0.047,0.047,0.047c-0.035,0.271-0.047,0.446-0.047,0.517c0,0.2,0.035,0.518,0.094,0.94
					c-0.059,0.224-0.094,0.411-0.094,0.563c0.094,0.717,0.282,1.445,0.564,2.209c0.012,0.06,0.035,0.095,0.094,0.095
					c0.259-0.247,0.435-0.67,0.517-1.27c0.282-0.646,0.423-1.14,0.423-1.457v-1.081c0-0.258,0.06-0.881,0.188-1.879v-0.048h-0.141
					c-0.693,0-1.223-0.082-1.599-0.234V22.917z"/>
				<path fill="#F7991C" d="M155.319,12.225c0.105,0,0.199,0.459,0.282,1.363c0.599,2.69,1.08,4.712,1.456,6.063
					c0.036,0.059,0.083,0.271,0.142,0.658h0.047c0-0.188,0.141-0.893,0.423-2.115v-0.047c0-0.47,0.012-1.222,0.047-2.256
					c-0.094-0.493-0.141-0.904-0.141-1.222v-0.611c0-0.293,0.012-0.657,0.047-1.081l-0.047-0.281c0-0.564,0.481-0.847,1.457-0.847
					h0.234c0.259,0,0.436,0.2,0.518,0.611c0.246,2.174,0.657,4.488,1.222,6.956c0,0.129,0.059,0.764,0.188,1.927v0.47
					c0,0.423-0.035,0.764-0.094,1.034c0.035,0.164,0.047,0.317,0.047,0.47c-0.211,2.314-0.399,3.478-0.563,3.478
					c-0.177,0.74-0.388,1.281-0.658,1.646c-0.129,0.634-0.329,1.092-0.611,1.362c-0.799,0.729-1.315,1.116-1.551,1.175
					c-0.493,0.188-0.787,0.282-0.893,0.282l-0.329-0.047l-0.658,0.047c-0.246,0-0.563-0.152-0.939-0.47
					c-0.623,0-1.046-0.929-1.27-2.773c-0.059-0.188-0.094-0.599-0.094-1.222v-0.141c0-0.082,0.035-0.506,0.094-1.27v-0.517
					c0-0.493,0.341-0.787,1.034-0.893c0.446-0.13,0.882-0.188,1.316-0.188h0.188c0.165,0,0.271,0.411,0.329,1.222
					c0.047,0.165,0.141,0.835,0.282,2.021c0.129,0.388,0.188,0.67,0.188,0.846c1.034-1.668,1.551-3.255,1.551-4.747
					c-0.023-0.716-0.07-1.08-0.141-1.08c-0.6,0.411-1.398,0.61-2.396,0.61h-0.142c-1.151,0-1.962-0.74-2.443-2.209
					c-0.317-0.634-0.553-1.856-0.705-3.665c-0.035-1.587-0.082-3.161-0.141-4.7c0-0.235,0.388-0.411,1.175-0.517
					C154.802,11.697,155.319,11.909,155.319,12.225z"/>
				<path fill="#F7991C" d="M169.436,15.821c0.435,1.058,0.657,2.186,0.657,3.384c0.036,0,0.048,0.082,0.048,0.235
					c0,0.059-0.06,0.388-0.188,0.986c0.152,0.764,0.235,1.646,0.235,2.632v0.094c0,0.67-0.095,1.54-0.282,2.633
					c0,0.646-0.271,1.386-0.799,2.208c-0.142,0.693-0.388,1.034-0.752,1.034c-0.153,0.411-0.481,0.611-0.987,0.611
					c-0.199,0-0.587-0.059-1.175-0.188c-0.588,0.13-0.976,0.188-1.175,0.188h-0.188c-0.811,0-1.386-0.564-1.738-1.692
					c-0.341-0.622-0.635-1.586-0.894-2.866c0-0.224-0.012-0.341-0.047-0.376l0.095-0.894c-0.036-0.505-0.048-0.963-0.048-1.362
					v-0.188c0-1.422,0.083-2.162,0.235-2.209c-0.035-0.059-0.047-0.105-0.047-0.141c0-0.282,0.141-0.952,0.423-2.021
					c0-0.411,0.317-1.504,0.94-3.289c0.293-0.353,0.575-0.553,0.846-0.611c0.74-0.282,1.504-0.423,2.303-0.423
					C168.166,13.565,169.013,14.317,169.436,15.821z M166.381,15.961c-0.13,0.459-0.271,1.316-0.424,2.585v0.799
					c0,0.106-0.047,0.212-0.141,0.329v0.188c0,0.822-0.035,1.339-0.094,1.551c0.035,0.211,0.047,0.388,0.047,0.517v0.47
					c0,1.116,0.176,2.573,0.517,4.371h0.047c0.271-0.376,0.506-1.163,0.705-2.35c0.13-0.929,0.188-1.868,0.188-2.82
					c0-0.481-0.059-1.28-0.188-2.396v-0.235c0-0.129,0.012-0.305,0.047-0.517c-0.246-1.011-0.47-1.845-0.657-2.491H166.381z"/>
				<path fill="#F7991C" d="M178.523,12.696c0.635,0,1.022,0.246,1.175,0.752c0.341,0.775,0.693,1.985,1.034,3.618l0.282,1.739
					l-0.048,0.658c0.036,0.822,0.048,1.386,0.048,1.691c0,0.717-0.153,1.634-0.471,2.773c-0.105,2.067-0.234,3.102-0.376,3.102
					c-0.411,1.14-1.233,2.056-2.443,2.726c-0.999,0.435-1.845,0.658-2.538,0.658h-0.047l-0.094,0.047v-0.047l-0.095,0.047
					c-0.458,0-0.975-0.317-1.551-0.94c-0.493-0.646-0.963-1.516-1.409-2.584c-0.412-1.258-0.611-2.727-0.611-4.418
					c0-0.493,0.105-2.938,0.329-7.332v-0.752c0-0.563,0.223-0.846,0.658-0.846c0.353-0.152,0.716-0.235,1.08-0.235h0.282
					l0.094-0.047v0.047c0.036,0,0.048-0.012,0.048-0.047c0.61,0,1.092,0.294,1.456,0.894c0.13,0.446,0.188,0.787,0.188,1.033
					c-0.059,0.729-0.094,1.199-0.094,1.41c0,0.177,0.094,0.775,0.281,1.786c-0.035,0.752-0.082,1.352-0.141,1.786l0.094,1.175
					l-0.047,0.094c0,0.07,0.012,0.129,0.047,0.188c-0.035,0.411-0.047,0.74-0.047,0.986v0.705c0,0.481,0.059,1.151,0.188,2.021
					h-0.047c0.059,0.376,0.141,0.717,0.234,1.034c0.177-0.164,0.423-1.093,0.752-2.772c0-0.2,0.142-1.022,0.423-2.444
					c0.13-0.622,0.2-2.009,0.235-4.136c0.035,0,0.059-0.188,0.094-0.563c-0.035-0.388-0.07-0.6-0.094-0.658h0.047
					c-0.059-0.164-0.094-0.528-0.094-1.081v-1.175c0-0.435,0.329-0.729,0.986-0.893H178.523z"/>
			</g>
			<g>
				<g>
					<path fill="#EF6159" d="M94.535,35.739c1.029,0.675,1.562,2.343,1.562,4.969c0.959,3.621,1.739,7.88,2.414,12.777
						c0,0.143-0.106,0.888-0.284,2.271v0.994l1.136,5.82c-0.178,1.207-0.284,1.952-0.284,2.271c0.568,0.994,0.853,1.739,0.853,2.271
						v0.284c0,0.319-0.143,0.816-0.427,1.562c0.106,2.307,0.143,3.585,0.143,3.833c-0.178,0.852-0.284,1.455-0.284,1.846v0.142
						c0,0.249,0.106,1.739,0.284,4.543v2.414c0,0.958,1.277,1.42,3.833,1.42c2.449,0,3.691,0.319,3.691,0.993
						c0.283,0.036,0.426,0.426,0.426,1.136c0,1.562-1.526,2.84-4.543,3.833c-1.598,0.391-3.123,0.568-4.543,0.568h-5.537
						c-1.49,0-3.301-1.136-5.395-3.407c-1.313-2.2-1.987-5.644-1.987-10.364c-0.106,0-0.284-1.029-0.568-3.123
						c0.178-1.633,0.284-2.804,0.284-3.549c-0.675-2.981-0.994-4.792-0.994-5.395l0.426-4.686c-0.567-3.442-0.852-6.495-0.852-9.228
						c0-2.023,0.035-6.495,0.143-13.487c0.39-1.597,2.129-2.413,5.252-2.413C92.796,34.39,94.535,34.958,94.535,35.739z"/>
					<path fill="#EF6159" d="M130.31,43.654c1.313,3.194,1.987,6.602,1.987,10.222c0.106,0,0.142,0.248,0.142,0.71
						c0,0.178-0.178,1.171-0.567,2.981c0.461,2.307,0.71,4.969,0.71,7.95V65.8c0,2.023-0.284,4.65-0.853,7.951
						c0,1.951-0.816,4.188-2.413,6.672c-0.426,2.094-1.171,3.123-2.271,3.123c-0.462,1.242-1.455,1.846-2.981,1.846
						c-0.604,0-1.774-0.177-3.549-0.567c-1.774,0.391-2.946,0.567-3.55,0.567h-0.567c-2.449,0-4.188-1.703-5.253-5.11
						c-1.029-1.881-1.917-4.792-2.697-8.66c0-0.675-0.036-1.029-0.143-1.136l0.284-2.697c-0.106-1.526-0.142-2.91-0.142-4.117
						v-0.568c0-4.294,0.248-6.53,0.71-6.672c-0.106-0.178-0.143-0.319-0.143-0.426c0-0.853,0.426-2.875,1.278-6.105
						c0-1.242,0.958-4.543,2.839-9.938c0.888-1.064,1.739-1.668,2.556-1.846c2.236-0.852,4.543-1.277,6.956-1.277
						C126.476,36.839,129.031,39.111,130.31,43.654z M121.081,44.08c-0.391,1.385-0.816,3.976-1.277,7.809v2.413
						c0,0.319-0.143,0.639-0.426,0.994v0.567c0,2.484-0.106,4.046-0.284,4.686c0.106,0.639,0.142,1.171,0.142,1.562v1.419
						c0,3.372,0.532,7.773,1.562,13.203h0.143c0.816-1.136,1.526-3.514,2.129-7.098c0.391-2.805,0.568-5.644,0.568-8.519
						c0-1.455-0.178-3.868-0.568-7.24v-0.71c0-0.391,0.036-0.923,0.143-1.562c-0.745-3.053-1.42-5.572-1.987-7.524H121.081z"/>
					<path fill="#EF6159" d="M138.044,34.639c3.407,0,5.111,0.567,5.111,1.703c0.639,1.668,1.384,4.827,2.271,9.512
						c-0.106,1.242-0.143,2.308-0.143,3.124c0.852,1.738,1.598,5.11,2.271,10.079c0.106,2.521,0.284,4.792,0.568,6.814h0.142
						c0.745-4.152,1.136-7.418,1.136-9.796c0.391-1.881,1.029-6.14,1.987-12.776v-0.994c0-4.756,1.242-7.276,3.691-7.524
						c0.106-0.106,0.462-0.142,0.994-0.142h0.283c1.704,0,2.556,0.532,2.556,1.562v1.277c-0.497,2.449-0.887,3.833-1.136,4.117
						l0.143,0.71v1.42l-0.143,0.283c0.249,0,0.462,0.462,0.568,1.42v1.136c0,1.598-0.284,4.295-0.853,8.093v3.123
						c0,0.604-0.426,2.732-1.277,6.389l0.142,0.852v0.426c-0.354,3.017-0.674,4.756-0.993,5.253v0.284
						c0.178,1.349,0.284,2.094,0.284,2.271c-0.746,2.413-1.242,5.288-1.42,8.66c-0.532,2.378-1.207,3.833-1.987,4.4
						c-1.207,0.816-3.656,1.598-7.383,2.271h-0.284c-1.562,0-2.839-1.242-3.833-3.691c-0.993-1.242-1.597-3.087-1.846-5.536
						c-2.094-7.702-3.123-13.451-3.123-17.32c-0.319,0-0.71-4.508-1.136-13.487c-0.178,0-0.248-0.567-0.284-1.703v-2.413
						c0-0.71-0.142-1.882-0.426-3.55c0.106-1.171,0.143-1.881,0.143-2.129c-0.284-1.065-0.427-1.669-0.427-1.846
						c0-1.101,0.816-1.882,2.414-2.271H138.044z"/>
					<path fill="#EF6159" d="M171.155,35.952c0.391-0.177,0.994-0.283,1.775-0.283c2.448,0.248,4.72,0.426,6.885,0.532
						c1.385,0.745,2.059,1.668,2.059,2.804c-1.242,2.52-3.727,3.762-7.418,3.762h-1.668l-0.674,0.143v-0.143l-0.284,0.143
						c-0.178-0.106-0.354-0.143-0.532-0.143c-0.284,0.71-0.426,1.385-0.426,1.988v0.283c0,0.71,0.035,1.633,0.142,2.805
						l-0.675,1.881c0.143,1.313,0.32,1.987,0.533,1.987s0.887-0.035,2.059-0.142c3.584,0.816,5.359,1.419,5.359,1.739
						c0.567,0.496,0.852,1.028,0.852,1.632c-0.604,1.42-1.739,2.13-3.443,2.13c-0.283,0-1.668,0.461-4.152,1.349h-0.532l0.142,0.248
						c0,0.249-0.035,0.391-0.142,0.391c0.106,1.065,0.142,1.811,0.142,2.271v2.023c0,0.604-0.106,1.987-0.283,4.152
						c0.106,0.71,0.283,1.349,0.567,1.881l-0.142,1.598v1.313c0,3.337,0.178,5.644,0.532,6.957
						c-0.106,0.923-0.142,1.633-0.142,2.165v0.248c0,0.532,0.319,0.816,0.958,0.816c1.668,0,3.372-0.106,5.11-0.284
						c2.201,0,3.301,0.532,3.301,1.598c-0.958,2.662-4.081,3.904-9.369,3.798c-4.188,0.319-7.135-0.071-8.873-1.207
						c-1.029-4.721-1.563-9.37-1.563-13.948c0-1.42,0.107-3.159,0.284-5.218c-0.177-0.639-0.391-2.094-0.567-4.4l0.283-3.088
						c-0.106-0.213-0.177-1.739-0.283-4.543l0.674-8.695c-0.177-0.568-0.248-0.959-0.248-1.207v-0.532
						c0-0.426,0.035-0.853,0.142-1.313c-0.106-0.604-0.177-1.029-0.284-1.207c0.107-0.745,0.143-1.384,0.143-1.881v-2.804
						c0-0.745,0.994-1.526,3.017-2.271c1.029,0,1.526-0.035,1.526-0.142C168.636,35.384,170.375,35.668,171.155,35.952z"/>
				</g>
			</g>
		</g>
	</g>
	<g>
		<path fill="#EF6159" d="M94.535,35.739c1.029,0.675,1.562,2.343,1.562,4.969c0.959,3.621,1.739,7.88,2.414,12.777
			c0,0.143-0.106,0.888-0.284,2.271v0.994l1.136,5.82c-0.178,1.207-0.284,1.952-0.284,2.271c0.568,0.994,0.853,1.739,0.853,2.271
			v0.284c0,0.319-0.143,0.816-0.427,1.562c0.106,2.307,0.143,3.585,0.143,3.833c-0.178,0.852-0.284,1.455-0.284,1.846v0.142
			c0,0.249,0.106,1.739,0.284,4.543v2.414c0,0.958,1.277,1.42,3.833,1.42c2.449,0,3.691,0.319,3.691,0.993
			c0.283,0.036,0.426,0.426,0.426,1.136c0,1.562-1.526,2.84-4.543,3.833c-1.598,0.391-3.123,0.568-4.543,0.568h-5.537
			c-1.49,0-3.301-1.136-5.395-3.407c-1.313-2.2-1.987-5.644-1.987-10.364c-0.106,0-0.284-1.029-0.568-3.123
			c0.178-1.633,0.284-2.804,0.284-3.549c-0.675-2.981-0.994-4.792-0.994-5.395l0.426-4.686c-0.567-3.442-0.852-6.495-0.852-9.228
			c0-2.023,0.035-6.495,0.143-13.487c0.39-1.597,2.129-2.413,5.252-2.413C92.796,34.39,94.535,34.958,94.535,35.739z"/>
		<path fill="#EF6159" d="M130.31,43.654c1.313,3.194,1.987,6.602,1.987,10.222c0.106,0,0.142,0.248,0.142,0.71
			c0,0.178-0.178,1.171-0.567,2.981c0.461,2.307,0.71,4.969,0.71,7.95V65.8c0,2.023-0.284,4.65-0.853,7.951
			c0,1.951-0.816,4.188-2.413,6.672c-0.426,2.094-1.171,3.123-2.271,3.123c-0.462,1.242-1.455,1.846-2.981,1.846
			c-0.604,0-1.774-0.177-3.549-0.567c-1.774,0.391-2.946,0.567-3.55,0.567h-0.567c-2.449,0-4.188-1.703-5.253-5.11
			c-1.029-1.881-1.917-4.792-2.697-8.66c0-0.675-0.036-1.029-0.143-1.136l0.284-2.697c-0.106-1.526-0.142-2.91-0.142-4.117v-0.568
			c0-4.294,0.248-6.53,0.71-6.672c-0.106-0.178-0.143-0.319-0.143-0.426c0-0.853,0.426-2.875,1.278-6.105
			c0-1.242,0.958-4.543,2.839-9.938c0.888-1.064,1.739-1.668,2.556-1.846c2.236-0.852,4.543-1.277,6.956-1.277
			C126.476,36.839,129.031,39.111,130.31,43.654z M121.081,44.08c-0.391,1.385-0.816,3.976-1.277,7.809v2.413
			c0,0.319-0.143,0.639-0.426,0.994v0.567c0,2.484-0.106,4.046-0.284,4.686c0.106,0.639,0.142,1.171,0.142,1.562v1.419
			c0,3.372,0.532,7.773,1.562,13.203h0.143c0.816-1.136,1.526-3.514,2.129-7.098c0.391-2.805,0.568-5.644,0.568-8.519
			c0-1.455-0.178-3.868-0.568-7.24v-0.71c0-0.391,0.036-0.923,0.143-1.562c-0.745-3.053-1.42-5.572-1.987-7.524H121.081z"/>
		<path fill="#EF6159" d="M138.044,34.639c3.407,0,5.111,0.567,5.111,1.703c0.639,1.668,1.384,4.827,2.271,9.512
			c-0.106,1.242-0.143,2.308-0.143,3.124c0.852,1.738,1.598,5.11,2.271,10.079c0.106,2.521,0.284,4.792,0.568,6.814h0.142
			c0.745-4.152,1.136-7.418,1.136-9.796c0.391-1.881,1.029-6.14,1.987-12.776v-0.994c0-4.756,1.242-7.276,3.691-7.524
			c0.106-0.106,0.462-0.142,0.994-0.142h0.283c1.704,0,2.556,0.532,2.556,1.562v1.277c-0.497,2.449-0.887,3.833-1.136,4.117
			l0.143,0.71v1.42l-0.143,0.283c0.249,0,0.462,0.462,0.568,1.42v1.136c0,1.598-0.284,4.295-0.853,8.093v3.123
			c0,0.604-0.426,2.732-1.277,6.389l0.142,0.852v0.426c-0.354,3.017-0.674,4.756-0.993,5.253v0.284
			c0.178,1.349,0.284,2.094,0.284,2.271c-0.746,2.413-1.242,5.288-1.42,8.66c-0.532,2.378-1.207,3.833-1.987,4.4
			c-1.207,0.816-3.656,1.598-7.383,2.271h-0.284c-1.562,0-2.839-1.242-3.833-3.691c-0.993-1.242-1.597-3.087-1.846-5.536
			c-2.094-7.702-3.123-13.451-3.123-17.32c-0.319,0-0.71-4.508-1.136-13.487c-0.178,0-0.248-0.567-0.284-1.703v-2.413
			c0-0.71-0.142-1.882-0.426-3.55c0.106-1.171,0.143-1.881,0.143-2.129c-0.284-1.065-0.427-1.669-0.427-1.846
			c0-1.101,0.816-1.882,2.414-2.271H138.044z"/>
		<path fill="#EF6159" d="M171.155,35.952c0.391-0.177,0.994-0.283,1.775-0.283c2.448,0.248,4.72,0.426,6.885,0.532
			c1.385,0.745,2.059,1.668,2.059,2.804c-1.242,2.52-3.727,3.762-7.418,3.762h-1.668l-0.674,0.143v-0.143l-0.284,0.143
			c-0.178-0.106-0.354-0.143-0.532-0.143c-0.284,0.71-0.426,1.385-0.426,1.988v0.283c0,0.71,0.035,1.633,0.142,2.805l-0.675,1.881
			c0.143,1.313,0.32,1.987,0.533,1.987s0.887-0.035,2.059-0.142c3.584,0.816,5.359,1.419,5.359,1.739
			c0.567,0.496,0.852,1.028,0.852,1.632c-0.604,1.42-1.739,2.13-3.443,2.13c-0.283,0-1.668,0.461-4.152,1.349h-0.532l0.142,0.248
			c0,0.249-0.035,0.391-0.142,0.391c0.106,1.065,0.142,1.811,0.142,2.271v2.023c0,0.604-0.106,1.987-0.283,4.152
			c0.106,0.71,0.283,1.349,0.567,1.881l-0.142,1.598v1.313c0,3.337,0.178,5.644,0.532,6.957c-0.106,0.923-0.142,1.633-0.142,2.165
			v0.248c0,0.532,0.319,0.816,0.958,0.816c1.668,0,3.372-0.106,5.11-0.284c2.201,0,3.301,0.532,3.301,1.598
			c-0.958,2.662-4.081,3.904-9.369,3.798c-4.188,0.319-7.135-0.071-8.873-1.207c-1.029-4.721-1.563-9.37-1.563-13.948
			c0-1.42,0.107-3.159,0.284-5.218c-0.177-0.639-0.391-2.094-0.567-4.4l0.283-3.088c-0.106-0.213-0.177-1.739-0.283-4.543
			l0.674-8.695c-0.177-0.568-0.248-0.959-0.248-1.207v-0.532c0-0.426,0.035-0.853,0.142-1.313c-0.106-0.604-0.177-1.029-0.284-1.207
			c0.107-0.745,0.143-1.384,0.143-1.881v-2.804c0-0.745,0.994-1.526,3.017-2.271c1.029,0,1.526-0.035,1.526-0.142
			C168.636,35.384,170.375,35.668,171.155,35.952z"/>
	</g>
	<g>
		<g>
			<path fill="#FCBE0F" d="M32.136,13.861c1.449-2.1,4.332-2.625,6.438-1.171l50.962,35.207c2.1,1.452,2.633,4.341,1.182,6.439
				L67.683,87.678c-1.455,2.104-4.344,2.627-6.443,1.181l-50.965-35.21c-2.104-1.452-2.633-4.341-1.177-6.445L32.136,13.861z"/>
			<path fill="#F7991C" d="M41.331,43.627L8.513,48.595c-0.496,1.894,0.133,3.928,1.762,5.054l50.965,35.21
				c1.627,1.125,3.755,0.995,5.346-0.146l-7.04-32.813L41.331,43.627z"/>
			<path fill="#F8C44F" d="M40.567,44.738L8.423,48.726c-0.448,1.819,0.223,3.797,1.852,4.923l50.965,35.21
				c1.627,1.125,3.721,1.05,5.253-0.016l-7.722-31.829L40.567,44.738z"/>
			<path fill="#F7991C" d="M33.151,12.929l9.426,48.45l48.645-8.328c0.547-1.948-0.057-4.028-1.686-5.154L38.574,12.69
				C36.944,11.564,34.789,11.736,33.151,12.929z"/>
			<path fill="#F8C44F" d="M33.317,12.693l11.148,45.955l46.922-5.832c0.447-1.814-0.223-3.793-1.852-4.919L38.574,12.69
				C36.944,11.564,34.856,11.638,33.317,12.693z"/>
		</g>
	</g>
	<g>
		<path fill="#FFFFFF" d="M68.579,7.256l0.426-0.425c1.551-1.551,1.551-4.062,0-5.612l-0.059-0.057c-1.549-1.55-4.061-1.55-5.609,0
			l-0.428,0.426l-0.425-0.426c-1.55-1.55-4.06-1.55-5.609,0l-0.058,0.057c-1.551,1.551-1.551,4.062,0,5.612l0.425,0.425l5.667,5.669
			L68.579,7.256z"/>
	</g>
	<g>
		<path fill="#FFFFFF" d="M20.933,4.832l0.255-0.256c0.931-0.929,0.931-2.435,0-3.364l-0.034-0.034c-0.93-0.929-2.437-0.929-3.364,0
			l-0.258,0.256l-0.255-0.256c-0.929-0.929-2.434-0.929-3.363,0l-0.035,0.034c-0.929,0.93-0.93,2.436,0,3.364l0.256,0.256
			l3.397,3.401L20.933,4.832z"/>
	</g>
</g>
</svg>
