<?xml version="1.0" encoding="utf-8"?>
<!-- Generator: Adobe Illustrator 16.0.0, SVG Export Plug-In . SVG Version: 6.00 Build 0)  -->
<!DOCTYPE svg PUBLIC "-//W3C//DTD SVG 1.1//EN" "http://www.w3.org/Graphics/SVG/1.1/DTD/svg11.dtd">
<svg version="1.1" id="Layer_1" xmlns="http://www.w3.org/2000/svg" xmlns:xlink="http://www.w3.org/1999/xlink" x="0px" y="0px"
	 width="181.621px" height="139.373px" viewBox="0 0 181.621 139.373" enable-background="new 0 0 181.621 139.373"
	 xml:space="preserve">
<path fill="#999999" d="M172.084,39.115l-1.215,0.247l-84.863-8.769l-11.639-14.32l0.026-0.042l-4.468-2.283
	c-0.584-1.313-1.331-2.579-2.281-3.748l-0.221-0.269C61.629,2.8,51.148,1.718,44.017,7.512l-1.961,1.594l-1.594-1.959
	c-5.796-7.132-16.274-8.216-23.409-2.419l-0.268,0.218c-5.649,4.592-7.485,12.12-5.129,18.598c-0.484,0.602-0.813,1.342-0.898,2.168
	c-0.234,2.277,1.42,4.315,3.699,4.55l1.593,0.164l2.639,3.246c-1.07,0.651-1.843,1.766-1.981,3.108
	c-0.236,2.275,1.419,4.313,3.697,4.55l4.923,0.509l1.873,2.304l-2.185-0.226c-2.279-0.234-4.316,1.422-4.553,3.7
	c-0.232,2.278,1.424,4.317,3.699,4.552l6.516,0.672c1.088,0.112,2.113-0.215,2.922-0.827l3.572,4.396l3.16-2.569l27.506,2.841
	c0.357,0.037,0.705,0.013,1.044-0.038l2.115,0.218c1.687,0.175,3.316-0.087,4.779-0.692l8.298,0.857L1,73.93l10.538,51.782
	l52.337-10.648l2.684,25.31l91.205-9.669l-3.607-34.011l28.465-5.792L172.084,39.115z"/>
<g>
	<g>
		<path fill="#FFFFFF" d="M73.671,20.32c5.415,0.56,9.352,5.404,8.792,10.817l-1.647,15.932c-0.558,5.417-5.401,9.352-10.818,8.79
			l-15.93-1.645c-5.415-0.558-9.351-5.4-8.791-10.817l1.646-15.931c0.56-5.415,5.404-9.352,10.818-8.79L73.671,20.32z"/>
		<path fill="#FFFFFF" d="M32.762,47.99c-0.231,2.277,1.425,4.315,3.702,4.553l30.374,3.137c2.276,0.236,4.314-1.42,4.553-3.699l0,0
			c0.234-2.277-1.424-4.317-3.701-4.553l-30.375-3.139C35.037,44.056,32.999,45.712,32.762,47.99L32.762,47.99z"/>
		<path fill="#FFFFFF" d="M15.707,35.779c-0.236,2.275,1.419,4.313,3.697,4.55l30.375,3.138c2.275,0.233,4.316-1.424,4.551-3.699
			l0,0c0.234-2.277-1.42-4.316-3.697-4.551l-30.375-3.138C17.98,31.842,15.941,33.499,15.707,35.779L15.707,35.779z"/>
		<path fill="#FFFFFF" d="M9.758,24.711c-0.234,2.277,1.42,4.315,3.699,4.55l30.373,3.139c2.277,0.236,4.318-1.422,4.551-3.698l0,0
			c0.236-2.278-1.42-4.317-3.698-4.55l-30.374-3.139C12.032,20.777,9.994,22.434,9.758,24.711L9.758,24.711z"/>
		<path fill="#FFFFFF" d="M12.228,13.982c-0.235,2.278,1.421,4.316,3.7,4.551l30.373,3.14c2.275,0.234,4.315-1.425,4.551-3.7l0,0
			c0.236-2.277-1.421-4.316-3.699-4.551l-30.374-3.138C14.501,10.05,12.463,11.704,12.228,13.982L12.228,13.982z"/>
		<path fill="#FFFFFF" d="M167.613,64.76L49.684,52.574c-2.144-0.218-3.545-3.654-3.128-7.67l1.218-11.809
			c0.417-4.017,2.488-7.093,4.631-6.871L170.332,38.41L167.613,64.76z"/>
		<g>
			<path fill="#EF6159" d="M14.959,29.313l-1.59-1.961C7.572,20.221,8.654,9.741,15.785,3.945l0.268-0.218
				c7.135-5.797,17.613-4.713,23.409,2.419l1.594,1.959l1.961-1.594c7.132-5.794,17.612-4.712,23.407,2.42L66.645,9.2
				c5.795,7.131,4.713,17.611-2.42,23.407l-1.961,1.594L36.172,55.408L14.959,29.313z"/>
		</g>
		<g>
			<g>
				<path fill="#FFFFFF" d="M68.67,12.755l-8.648,7.504c-3.041,2.555-7.582,2.16-10.139-0.883L48.34,17.54
					c-0.064-0.079-0.118-0.163-0.18-0.244L59.204,8.04L68.67,12.755z"/>
			</g>
			<polygon fill="#FFFFFF" points="56.447,16.192 68.072,23.592 73.394,15.231 59.33,8.046 			"/>
			<path fill="#FFFFFF" d="M94.4,41.15L73.293,15.183c-0.734,0.367-1.436,0.813-2.089,1.345c-6.349,5.158-5.987,16.116,0.806,24.476
				c3.541,4.359,8.135,7.146,12.62,8.086L94.4,41.15z"/>
		</g>
		<path fill="#FFFFFF" d="M19.463,46.616c-0.232,2.278,1.424,4.317,3.699,4.552l6.516,0.672c2.277,0.236,4.313-1.42,4.551-3.697l0,0
			c0.236-2.278-1.422-4.319-3.7-4.554l-6.513-0.673C21.736,42.682,19.699,44.338,19.463,46.616L19.463,46.616z"/>
	</g>
	
		<rect x="3.516" y="54.994" transform="matrix(0.9799 -0.1994 0.1994 0.9799 -14.4097 19.7411)" fill="#EF6159" width="174.589" height="52.844"/>
	<g>
		<path fill="#FFFFFF" d="M14.646,77.832c1.74-0.295,2.913-0.027,3.563,0.77c0.188,0.386,0.308,0.659,0.336,0.827l0.178,1.049
			c0.62,0.901,0.999,1.842,1.169,2.843c0.188,0.68,0.321,1.32,0.418,1.893c0.202,1.633,0.341,2.591,0.389,2.877
			c0.164,0.537,0.258,0.938,0.306,1.225l-0.028,0.986l0.465,1.589c0.141,1.275,0.279,2.233,0.389,2.878
			c0.092,0.548,0.326,1.784,0.725,3.703l-0.031,0.397c0.105,0.62,0.575,2.381,1.382,5.262l0.032,0.19
			c0.109,0.645,0.214,1.411,0.292,2.305c0.343,0.434,0.542,0.89,0.623,1.366c0.057,0.334,0.143,0.982,0.229,1.925
			c0.34,0.85,0.561,1.573,0.657,2.145l0.017,0.096c-0.003,0.712-0.538,1.171-1.635,1.356c-0.14,0.194-1.049,0.471-2.702,0.85
			c-1.836,0.311-2.83,0.087-2.96-0.677c-0.547-0.913-0.955-2.167-1.218-3.718l-0.678-4.006c-0.357-1.388-0.55-2.09-0.563-2.162
			c-0.165-0.979-0.36-2.563-0.601-4.705c-0.56-2.874-0.993-4.715-1.334-5.564c-0.022-0.561-0.066-0.97-0.114-1.256
			c-0.089-0.524-0.423-2.063-0.982-4.642c0.022-2.187-0.17-4.484-0.573-6.868l-0.162-0.954c-0.076-0.453,0.411-1.052,1.459-1.817
			L14.646,77.832z"/>
		<path fill="#FFFFFF" d="M39.998,74.252c0.768,0.336,1.316,1.396,1.614,3.16c1.056,2.324,2.064,5.097,3.074,8.311
			c0.017,0.096,0.03,0.607,0.068,1.559l0.113,0.668l1.425,3.781c0.017,0.83,0.03,1.344,0.066,1.559
			c0.495,0.604,0.771,1.071,0.832,1.429l0.032,0.191c0.036,0.215-0.004,0.564-0.11,1.097c0.335,1.539,0.504,2.393,0.532,2.561
			c-0.021,0.592-0.025,1.01,0.02,1.271l0.016,0.096c0.028,0.167,0.271,1.155,0.707,3.02l0.275,1.622
			c0.108,0.644,1.02,0.809,2.736,0.518c1.646-0.278,2.517-0.206,2.594,0.248c0.194-0.01,0.334,0.238,0.415,0.715
			c0.178,1.049-0.703,2.08-2.616,3.092c-1.029,0.443-2.034,0.736-2.988,0.898l-3.721,0.63c-1.001,0.169-2.346-0.388-4.011-1.676
			c-1.133-1.33-1.979-3.565-2.515-6.737c-0.07,0.012-0.308-0.66-0.736-2.033c-0.066-1.118-0.129-1.918-0.213-2.418
			c-0.792-1.926-1.212-3.105-1.281-3.511l-0.246-3.196c-0.773-2.249-1.313-4.268-1.623-6.103c-0.229-1.359-0.714-4.369-1.438-9.078
			c0.08-1.118,1.155-1.864,3.254-2.22C38.677,73.543,39.909,73.727,39.998,74.252z"/>
		<path fill="#FFFFFF" d="M58.702,72.852c3.267-0.553,5.364,0.244,6.287,2.37c0.377,0.771,0.931,1.584,1.692,2.46
			c0.257,0.496,0.564,1.45,0.882,2.893c1.161,2.649,1.981,5.331,2.438,8.026c0.562,3.313,0.582,6.475,0.041,9.511
			c-0.097,1.021-0.536,1.904-1.313,2.674c-0.098,0.581-0.781,1.188-2.047,1.818c-1.314,0.493-2.271,0.777-2.893,0.882l-0.381,0.065
			c-3.982,0.674-7.527-3.166-10.59-11.551c-0.321-1.468-0.531-2.413-0.675-2.83c-0.153-0.906-0.199-3.057-0.112-6.456
			c-0.146-0.859,0.255-2.987,1.177-6.381c0.227-1.412,1.211-2.266,2.904-2.552l0.857-0.146c0.687-0.436,1.063-0.671,1.159-0.688
			L58.702,72.852z M58.952,83.603c0.007,1.201,0.104,2.361,0.294,3.482c0.142,0.834,0.68,2.706,1.637,5.609l0.032,0.191
			c0.013,0.072-0.007,0.099-0.078,0.11c0.904,1,1.715,2.311,2.427,3.906c0.371,0.601,0.674,0.941,0.957,1.016
			c0.553-1.369,0.519-3.89-0.099-7.538l-0.128-0.175c-0.013-0.071,0.008-0.099,0.079-0.11c-0.758-2.89-1.552-5.257-2.388-7.151
			c-0.646-1.068-1.355-2.641-2.175-4.733c-0.327-0.338-0.578-0.516-0.781-0.556C58.443,79.003,58.508,80.979,58.952,83.603z"/>
		<path fill="#FFFFFF" d="M71.041,68.188c1.453-0.246,2.613,0.367,3.456,1.868c0.699,1.377,1.596,3.777,2.689,7.197l3.024,7.436
			c0.062,0.8,0.119,1.28,0.147,1.447c0.423,0.615,0.667,1.039,0.703,1.254l0.095-0.016c-0.081-0.477-0.065-2.123,0.052-4.914
			c-0.26-5.01-0.249-8.421,0.038-10.211c-0.03-2.35,0.635-3.641,1.992-3.87c1.778,0.067,2.718,0.398,2.818,0.994
			c0.225,2.195,0.252,3.515,0.09,4.008l0.209,0.652l0.064,0.382c-0.053,1.283,0,3.336,0.158,6.155
			c-0.157,0.517-0.113,2.078,0.108,4.69c-0.072,0.013-0.08,0.111-0.048,0.303c0.265,0.396,0.468,0.877,0.641,1.461
			c0.141,0.835,0.057,2.518-0.227,5.043c0.135,1.228,0.129,3.804-0.06,7.761c-0.389,1.905-2.005,3.087-4.794,3.56
			c-1.626,0.102-2.478-0.146-2.578-0.742c-2.619-2.573-4.316-5.353-5.143-8.353c-1.782-5.168-2.841-8.668-3.144-10.456
			c-0.692-0.472-1.463-2.99-2.263-7.565c-0.023-0.144-0.191-0.703-0.48-1.685c-0.012-0.071,0.007-0.099,0.078-0.11
			c-0.313-1.419-0.733-2.747-1.266-4.005c-0.145-0.859,0.979-1.613,3.35-2.236L71.041,68.188z"/>
		<path fill="#FFFFFF" d="M95.746,62.682l0.652-0.209c1.907-0.323,2.909-0.198,3.006,0.374c0.182,1.073-0.118,1.762-0.917,2.117
			c-0.817,0.531-1.766,1.011-2.891,1.471l-0.207-0.063c-0.071,0.012-0.091,0.039-0.079,0.111l-0.684,0.018l-1.717,0.291l0.016,0.095
			c0.404,0.79,1.095,1.974,2.077,3.574l0.017,0.683l0.049,0.286c0.169,0.561,0.385,0.818,0.623,0.778
			c0.62-0.105,1.76-0.323,3.417-0.676c0.763-0.13,1.193,0.091,1.29,0.663l0.049,0.286c0.189,1.121-1.08,2.17-3.776,3.191
			l-0.191,0.032l0.032,0.19c0.629,1.831,1.033,3.21,1.187,4.116l0.371,2.193c0.085,0.501,0.11,1.085,0.101,1.749
			c0.217,0.847,0.35,1.486,0.419,1.893c0.023,0.143,0.06,0.505,0.081,1.064c0.552,0.938,0.852,1.549,0.896,1.812
			c0.207,2.81,0.377,4.548,0.49,5.215c0.366,1.581,0.857,2.308,1.453,2.207c3.217-0.275,4.854-0.307,4.899-0.045
			c0.251,0.326,0.394,0.597,0.43,0.811c0.174,1.026-1.373,2.317-4.633,3.925c-0.611,0.299-1.358,0.523-2.241,0.674
			c-1.884,0.318-3.899-0.004-6.046-0.939c-0.466-0.436-0.842-1.501-1.121-3.146c-0.12,0.02-0.604-1.836-1.43-5.547
			c-0.119,0.021-0.235-0.23-0.32-0.731c-0.084-0.501-0.166-1.125-0.211-1.828c-0.333-1.243-0.8-3.421-1.399-6.533
			c0.002-0.417-0.054-0.898-0.146-1.446c-0.333-0.803-0.614-1.736-0.867-2.797c-0.36-2.563-0.632-4.309-0.793-5.262
			c-0.249-1.185-0.461-1.86-0.642-2.051c-0.036-0.656-0.102-1.184-0.162-1.542l-0.081-0.477c-0.012-0.071,0.008-0.101,0.079-0.112
			c-0.679-1.258-1.051-2.152-1.136-2.652c-0.064-0.382,0.52-0.849,1.729-1.373l6.549-1.893c-0.02-0.119,0.281-0.22,0.921-0.352
			l0.668-0.113c0.071-0.013,0.092-0.041,0.08-0.112C95.707,62.59,95.734,62.609,95.746,62.682z"/>
		<path fill="#FFFFFF" d="M115.083,59.775c1.55-0.262,2.699,0.156,3.446,1.232c0.312,0.83,1.016,2.231,2.105,4.181
			c-0.074,0.283-0.082,0.676-0.001,1.152c0.31-0.052,0.618,0.607,0.896,1.959c0.119-0.02,0.203,0.186,0.275,0.615l0.096-0.016
			c-0.077-0.453,0.246-1.881,0.943-4.28c0.213-0.919,0.348-2.587,0.457-4.983c0.142-0.467,0.463-0.741,0.964-0.826
			c1.813-0.307,2.771-0.15,2.876,0.47c0.183,0.067,0.331,0.361,0.42,0.886l-0.267,4.951c0.182,1.073-0.277,3.138-1.355,6.189
			c0.061,0.358-0.049,1.309-0.354,2.832c0.142,0.836,0.012,1.52-0.404,2.104c-0.027,0.128-0.031,0.251-0.011,0.37l0.017,0.096
			c0.559,1.131,0.859,1.891,0.92,2.248c0.097,0.571,0.856,2.455,2.26,5.676l0.098,0.572c0.076,0.453,0.13,1.352,0.194,2.738
			c0.12,0.568,0.24,0.844,0.312,0.832l0.039,1.244c0.192,0.408,0.296,0.734,0.34,0.997c-0.142,0.612-0.191,1.038-0.15,1.276
			l0.028,0.166l1.056,2.912c-0.217,0.748-1.162,1.251-2.807,1.529l-0.358,0.061c-1.932,0.327-3.043-0.44-3.361-2.325
			c-0.085-0.501-0.508-1.557-1.269-3.146c-0.844-3.536-1.827-7.318-2.923-11.328l-0.444-2.623c-0.878-1.421-1.586-2.993-2.1-4.723
			c-1.604-3.972-2.727-7.854-3.369-11.645l-0.093-0.549c0.15-0.418,0.38-0.652,0.714-0.709L115.083,59.775z"/>
		<path fill="#FFFFFF" d="M137.105,59.58c3.268-0.554,5.365,0.244,6.288,2.37c0.376,0.77,0.931,1.583,1.692,2.46
			c0.256,0.496,0.563,1.45,0.881,2.893c1.161,2.649,1.982,5.331,2.438,8.026c0.562,3.313,0.581,6.475,0.04,9.51
			c-0.096,1.021-0.536,1.905-1.313,2.675c-0.097,0.581-0.78,1.187-2.047,1.818c-1.314,0.492-2.271,0.777-2.892,0.882l-0.383,0.064
			c-3.982,0.675-7.526-3.166-10.589-11.551c-0.321-1.467-0.531-2.412-0.675-2.83c-0.153-0.906-0.198-3.056-0.112-6.456
			c-0.146-0.858,0.256-2.986,1.177-6.38c0.228-1.413,1.212-2.266,2.904-2.552l0.858-0.146c0.687-0.436,1.063-0.672,1.159-0.688
			L137.105,59.58z M137.355,70.33c0.008,1.201,0.105,2.362,0.295,3.483c0.142,0.834,0.679,2.706,1.637,5.608l0.032,0.191
			c0.013,0.072-0.008,0.099-0.079,0.111c0.905,1,1.715,2.31,2.427,3.906c0.371,0.601,0.675,0.94,0.957,1.016
			c0.554-1.37,0.519-3.89-0.099-7.538l-0.127-0.175c-0.013-0.071,0.007-0.099,0.078-0.11c-0.758-2.89-1.551-5.257-2.388-7.151
			c-0.646-1.069-1.354-2.641-2.174-4.734c-0.328-0.337-0.578-0.515-0.782-0.555C136.848,65.731,136.911,67.707,137.355,70.33z"/>
		<path fill="#FFFFFF" d="M149.961,56.227c2.469-0.05,3.753,0.149,3.834,0.626c0.849,0.813,1.368,1.707,1.534,2.685l0.388,2.289
			c0.117,0.691,0.203,1.927,0.231,3.688c0.594,1.912,1.078,3.326,1.505,4.26c0.005,0.023,0.054,0.457,0.115,1.255
			c0.777,2.272,1.343,4.458,1.702,6.58c0.706,1.844,1.319,2.72,1.82,2.636c0.024,0.143,0.326,0.19,0.906,0.141l0.222-0.43
			l-0.048-0.286c-0.037-0.215-0.085-0.354-0.176-0.46l-0.054-2.053l-0.049-0.286c-0.097-0.571-0.564-1.743-1.375-3.495
			c-0.143-1.275-0.257-2.091-0.325-2.496c-0.452-1.076-0.733-2.01-0.866-2.797l-0.178-1.049c-0.238-1.407-0.262-3.292-0.078-5.678
			c-0.411-2.433-0.38-4.131,0.115-5.121c0.765-0.988,1.816-1.584,3.129-1.806c0.799,0.232,1.46,0.66,1.975,1.235l0.289,1.129
			l0.403,2.385c0.044,0.263,0.129,0.616,0.273,1.032c-0.069,0.749-0.036,1.527,0.101,2.338l0.098,0.573
			c0.061,0.356,0.408,1.107,1.07,2.271l0.016,0.095c0.002,0.736,0.024,1.297,0.084,1.654c0.037,0.215,0.236,0.673,0.625,1.366
			c0.021,0.562,0.069,0.995,0.13,1.352c0.283,0.517,0.469,1.025,0.546,1.478l0.097,1.162c0.46,0.829,0.792,1.778,0.978,2.875
			l0.113,0.668c0.149,0.883,0.094,2.289-0.164,4.247c0.319,1.885-0.377,3.424-2.072,4.569c0.036,0.215-0.717,0.539-2.287,0.977
			c-1.083,0.846-2.485,1.401-4.226,1.696c-2.599,0.44-5.016-0.5-7.243-2.797c-1.625-2.202-2.637-4.558-3.057-7.038
			c-0.096,0.017-0.308-0.659-0.642-2.049c-0.053-0.311-0.085-0.943-0.116-1.845c-0.285-1.253-0.498-2.369-0.66-3.322l-0.549-3.244
			c-0.044-0.262-0.055-1.34-0.056-3.228c-0.259-0.373-0.625-1.366-1.09-2.956l-0.016-0.095c-0.081-0.477-0.029-0.756,0.157-0.812
			l-0.177-0.46c0.281-0.809,0.454-1.525,0.521-2.149c0.071-0.013,0.881-0.443,2.43-1.295L149.961,56.227z"/>
	</g>
	<g>
		
			<rect x="63.451" y="99.504" transform="matrix(0.9944 -0.1054 0.1054 0.9944 -11.7327 12.176)" fill="#6A2242" width="91.716" height="35.132"/>
		<g>
			<path fill="#FFFFFF" d="M82.562,111.392l0.012,0.104c0.027,0.246-0.151,0.516-0.54,0.796c-0.813,0.839-1.158,1.85-1.023,3.055
				c0.096,0.856,1.037,2.103,2.834,3.727c0.594,0.614,1.168,1.877,1.738,3.795l0.271,1.021l0.012,0.104l-0.108,1.377
				c0.054,0.479,0.007,0.879-0.125,1.223c0.085,0.752-0.048,1.33-0.384,1.723c-0.255,0.423-0.41,0.795-0.455,1.103
				c-0.425,0.191-0.727,0.421-0.921,0.681c-0.165,0.163-0.314,0.245-0.443,0.26l-0.363,0.04c-0.351,0.499-0.87,0.78-1.583,0.86
				l-0.26,0.029c-0.584,0.065-1.313-0.232-2.203-0.908c-0.944-0.932-1.479-1.961-1.604-3.076l-0.022-0.207
				c0.198-0.798,0.623-1.226,1.271-1.298l0.361-0.041c0.467-0.052,0.818,0.381,1.04,1.302c0.436,1.066,0.77,1.594,1.016,1.566
				c0.47-0.841,0.683-1.403,0.649-1.701l-0.227-2.023c-0.279-1.556-0.561-2.535-0.855-2.948c-0.201-0.267-0.362-0.655-0.498-1.152
				c-0.476-0.38-1.114-1.28-1.933-2.725c-0.314-0.581-0.609-1.572-0.856-2.949c-0.1-0.895,0.162-1.712,0.775-2.45
				c0.175-0.427,0.326-0.719,0.426-0.888c0.17-0.242,0.847-0.528,2.058-0.86C81.864,110.787,82.511,110.937,82.562,111.392z"/>
			<path fill="#FFFFFF" d="M89.785,111.501c1.776-0.199,2.882,0.293,3.315,1.465c0.178,0.426,0.454,0.882,0.837,1.377
				c0.122,0.274,0.26,0.797,0.387,1.584c0.546,1.463,0.907,2.932,1.071,4.396c0.202,1.801,0.118,3.505-0.266,5.123
				c-0.083,0.548-0.346,1.011-0.788,1.401c-0.07,0.31-0.456,0.614-1.157,0.917c-0.723,0.226-1.248,0.351-1.585,0.389l-0.207,0.022
				c-2.165,0.243-3.958-1.932-5.354-6.54c-0.129-0.801-0.214-1.316-0.277-1.545c-0.056-0.493-0.015-1.653,0.134-3.48
				c-0.053-0.467,0.229-1.601,0.826-3.401c0.165-0.753,0.721-1.184,1.641-1.287l0.467-0.052c0.384-0.214,0.594-0.329,0.646-0.335
				L89.785,111.501z M89.596,117.298c-0.033,0.646-0.016,1.275,0.053,1.885c0.051,0.453,0.285,1.477,0.712,3.07l0.012,0.104
				c0.005,0.039-0.007,0.053-0.046,0.058c0.458,0.565,0.854,1.296,1.189,2.177c0.182,0.334,0.335,0.528,0.485,0.576
				c0.339-0.721,0.397-2.079,0.175-4.063l-0.064-0.098c-0.004-0.039,0.007-0.054,0.047-0.058c-0.321-1.58-0.678-2.878-1.07-3.924
				c-0.317-0.595-0.65-1.464-1.029-2.615c-0.166-0.192-0.295-0.296-0.403-0.323C89.46,114.806,89.436,115.871,89.596,117.298z"/>
			<path fill="#FFFFFF" d="M111.967,108.474c0.09,0.082,0.323,0.647,0.718,1.705c0.227,0.146,0.355,0.367,0.386,0.64l0.11,0.985
				c0.022,0.194,0.119,0.695,0.272,1.492c0.025,0.221,0.025,0.574,0.013,1.049c0.065,0.215,0.104,0.448,0.135,0.72
				c0.015,0.13-0.011,0.5-0.086,1.113l0.046,0.414c0.83,2.139,1.288,3.518,1.359,4.153l0.029,0.259
				c0.04,0.363-0.081,1.048-0.35,2.036c0.133,0.602,0.227,1.09,0.272,1.492c0.167,1.491-0.114,2.375-0.856,2.669
				c-0.229,0.065-0.423,0.099-0.565,0.114c-0.635,0.072-1.17-0.143-1.597-0.66c-0.248-0.457-0.405-0.926-0.474-1.417
				c-0.024-2.438-0.099-4.163-0.212-5.175l-0.1-0.882c0.029-0.673,0.02-1.235-0.03-1.677l-0.122-1.09l-0.052,0.006
				c0.191,1.712-0.102,2.848-0.879,3.407l-0.604,0.226c-0.907,0.102-1.539,0.082-1.896-0.05l0.162,0.507
				c0.029,0.614,0.074,1.121,0.117,1.51c0.02,0.169,0.322,1.12,0.896,2.84c0.165,0.547,0.273,1.034,0.318,1.436
				c-0.204,0.758-0.539,1.163-1.02,1.217c0.01,0.091-0.493,0.279-1.51,0.589c-0.479,0.054-1.067-0.155-1.752-0.644
				c-0.542-0.74-0.913-1.696-1.108-2.869c-0.421-1.291-0.694-2.429-0.806-3.428l-0.151-1.348c-0.18-1.018-0.28-1.558-0.29-1.648
				l-0.075-0.674c-0.05-1.031-0.073-1.58-0.083-1.672l-0.104-0.934c-0.05-0.44-0.115-0.918-0.214-1.445
				c0.028-0.673,0.019-1.237-0.031-1.678c-0.027-0.246-0.121-0.734-0.272-1.492c0.281-0.766,0.669-1.178,1.175-1.234l0.985-0.11
				c0.338-0.038,0.758,0.086,1.25,0.385c0.11,0.04,0.292,0.375,0.532,0.991c0.765,0.728,1.216,1.359,1.367,1.895
				c0.052,0.467,0.479,1.574,1.267,3.323c0.104,0.344,0.193,0.675,0.266,0.968l0.052-0.006c0.252-0.908,0.404-3.301,0.453-7.191
				l-0.059-0.52c-0.052-0.467,0.296-0.769,1.055-0.906c0.293-0.071,0.525-0.11,0.72-0.132
				C111.265,107.831,111.715,108.083,111.967,108.474z"/>
			<path fill="#FFFFFF" d="M116.008,107.929c1.332,0.047,2.018,0.193,2.047,0.453c0.432,0.463,0.686,0.961,0.745,1.491l0.14,1.245
				c0.042,0.376,0.051,1.045,0.013,1.994c0.262,1.047,0.48,1.824,0.683,2.339c0.002,0.013,0.016,0.248,0.024,0.68
				c0.351,1.247,0.589,2.441,0.719,3.596c0.323,1.015,0.627,1.505,0.899,1.475c0.009,0.077,0.17,0.112,0.484,0.103l0.132-0.225
				l-0.017-0.156c-0.014-0.115-0.035-0.192-0.08-0.252l0.033-1.106l-0.018-0.155c-0.035-0.312-0.252-0.957-0.638-1.926
				c-0.038-0.69-0.073-1.133-0.098-1.354c-0.211-0.593-0.335-1.105-0.383-1.533l-0.064-0.569c-0.085-0.766-0.042-1.781,0.13-3.062
				c-0.148-1.322-0.08-2.235,0.216-2.755c0.442-0.509,1.027-0.797,1.74-0.876c0.424,0.147,0.767,0.398,1.026,0.724l0.121,0.616
				l0.146,1.297c0.017,0.143,0.051,0.336,0.116,0.564c-0.06,0.401-0.065,0.821-0.016,1.262l0.035,0.312
				c0.021,0.194,0.186,0.609,0.508,1.257l0.006,0.052c-0.021,0.396-0.027,0.698-0.005,0.894c0.013,0.115,0.107,0.368,0.295,0.754
				c-0.006,0.303,0.008,0.537,0.029,0.73c0.138,0.288,0.222,0.568,0.249,0.813l0.018,0.629c0.222,0.46,0.373,0.981,0.44,1.578
				l0.04,0.362c0.055,0.48-0.02,1.236-0.216,2.283c0.114,1.023-0.307,1.832-1.255,2.398c0.013,0.116-0.403,0.268-1.261,0.457
				c-0.609,0.422-1.382,0.68-2.328,0.785c-1.413,0.158-2.686-0.421-3.816-1.725c-0.81-1.235-1.282-2.534-1.434-3.883
				c-0.052,0.006-0.146-0.364-0.284-1.123c-0.019-0.169-0.018-0.51-0.006-0.998c-0.116-0.682-0.197-1.29-0.255-1.809l-0.198-1.764
				c-0.016-0.143,0.01-0.723,0.067-1.74c-0.129-0.208-0.295-0.755-0.498-1.624l-0.006-0.053c-0.029-0.259,0.008-0.407,0.109-0.432
				l-0.08-0.253c0.174-0.428,0.289-0.809,0.344-1.142c0.038-0.005,0.488-0.212,1.349-0.624L116.008,107.929z"/>
			<path fill="#FFFFFF" d="M130.188,104.617c0.747,0.456,1.144,0.844,1.182,1.181c0.307,0.505,0.694,0.921,1.138,1.238
				c0.396,0.73,0.646,1.555,0.751,2.488l0.094,0.83c0.14,1.246,0.118,1.878-0.051,1.896c-0.237,0.224-0.573,0.393-0.99,0.53
				c-1.084,0.058-1.636-0.064-1.666-0.337c-0.277-0.246-0.423-0.491-0.45-0.737l-0.221-1.971c-0.038-0.337-0.021-1.009,0.037-2
				c-0.182-0.334-0.342-0.709-0.496-1.152c-0.288-0.112-0.503-0.153-0.646-0.138l-0.053,0.006c-0.271,0.03-0.364,0.842-0.302,2.45
				c0.216,0.632,0.382,1.19,0.503,1.676c-0.003,0.328,0.02,0.642,0.053,0.94l0.012,0.104c0.247,1.271,0.381,1.991,0.399,2.16
				l0.11,0.985c0.148,1.322,0.375,2.517,0.666,3.601c0.021,0.182,0.047,0.534,0.065,1.044c0.792,2.497,1.338,3.735,1.623,3.703
				c-0.06-0.649,0.093-1.508,0.446-2.57c0.073-0.18,0.15-0.542,0.247-1.078c0.274-0.24,0.523-0.373,0.744-0.397l0.467-0.053
				c0.582-0.065,0.897,0.057,0.933,0.368c0.068,0.609,0.004,1.561-0.203,2.857c0.052,0.467-0.051,0.965-0.304,1.505
				c0.053,0.479-0.373,0.896-1.279,1.246c-0.589,0.486-1.214,0.766-1.849,0.837c-1.491,0.167-2.825-0.956-4.003-3.384
				c-0.229-0.748-0.533-2.055-0.914-3.941l-0.018-0.155c-0.017-0.143-0.02-0.287,0.005-0.42c-0.104-0.331-0.215-0.856-0.336-1.591
				c-0.036-3.134-0.088-5.005-0.155-5.602l0.151-3.324c0.098-0.3,0.233-0.842,0.396-1.62c0.729-0.647,1.411-0.999,2.033-1.068
				c0.366-0.133,0.554-0.207,0.553-0.221C129.357,104.593,129.794,104.623,130.188,104.617z"/>
			<path fill="#FFFFFF" d="M141.006,104.01c0.415-0.047,0.67,0.357,0.768,1.226c0.746,1.374,1.186,2.611,1.307,3.688
				c0.22,1.012,0.48,2.4,0.782,4.165c0.039-0.004,0.057,0.033,0.063,0.098l-0.045,1.003c0.22,0.672,0.481,1.837,0.811,3.479
				l0.006,0.053c0.016,0.143,0.024,0.339,0.013,0.575c0.335,0.764,0.523,1.399,0.583,1.932c0.022,0.194-0.02,0.408-0.137,0.645
				c0.013,0.117,0.175,0.625,0.486,1.521c-0.124,0.894-0.361,1.353-0.738,1.395c0.017,0.144-0.282,0.282-0.898,0.416
				c-1.161-0.065-1.762-0.262-1.798-0.586c-0.155,0.018-0.523-1.396-1.105-4.234l-0.362,0.041c-0.401,0.058-0.602,0.134-0.605,0.225
				c0.109,0.396,0.178,0.65,0.191,0.768c-0.02,0.186-0.021,0.29-0.018,0.316c0.124,0.156,0.19,0.294,0.202,0.397l0.023,0.208
				l-0.148,1.014c0.062,0.544-0.042,0.911-0.299,1.084c-0.388,0.294-0.893,0.468-1.515,0.538l-0.052,0.006
				c-0.934,0.104-1.417,0.015-1.447-0.259c-0.194,0.022-0.56-0.777-1.109-2.396c-0.258-0.43-0.693-2.323-1.319-5.681l-0.355-4.108
				c-0.073-0.293-0.11-0.513-0.128-0.668c-0.035-0.666-0.071-1.108-0.094-1.303c-0.11-0.631-0.168-1.031-0.186-1.187
				c-0.018-0.746-0.024-1.166-0.035-1.257c-0.146-0.364-0.231-0.657-0.255-0.863c-0.032-0.286,0.394-0.596,1.262-0.93
				c0.297,0.072,0.822,0.079,1.579,0.033c0.583-0.065,1.099,1.019,1.519,3.243c0.237,0.826,0.569,2.377,0.996,4.666
				c0.038-0.004,0.077,0.11,0.144,0.352c-0.034,0.044-0.046,0.294-0.021,0.737c0.146,0.365,0.236,0.696,0.267,0.969
				c0.033,0.298,0.093,0.948,0.168,1.976c0.082,0.373,0.181,0.559,0.272,0.548c0.324-0.036,0.618-0.227,0.881-0.571l0.051-0.006
				l-0.04-0.363c-0.074-0.661-0.313-1.737-0.729-3.226c-0.013-0.695-0.02-1.114-0.036-1.257c-0.234-0.802-0.378-1.493-0.446-2.103
				l-0.11-0.985c-0.104-0.921-0.206-1.959-0.296-3.117c-0.065-0.23-0.12-0.591-0.175-1.084c0.219-0.615,0.641-0.964,1.25-1.032
				L141.006,104.01z"/>
		</g>
	</g>
</g>
</svg>
