<?xml version="1.0" encoding="utf-8"?>
<!-- Generator: Adobe Illustrator 16.0.0, SVG Export Plug-In . SVG Version: 6.00 Build 0)  -->
<!DOCTYPE svg PUBLIC "-//W3C//DTD SVG 1.1//EN" "http://www.w3.org/Graphics/SVG/1.1/DTD/svg11.dtd">
<svg version="1.1" id="Layer_1" xmlns="http://www.w3.org/2000/svg" xmlns:xlink="http://www.w3.org/1999/xlink" x="0px" y="0px"
	 width="107.633px" height="121.88px" viewBox="0 0 107.633 121.88" enable-background="new 0 0 107.633 121.88"
	 xml:space="preserve">
<g>
	<path fill="#FFFFFF" d="M0.075,51.276c-0.588-8.937,2.285-17.5,8.342-24.017c5.434-5.844,13.612-7.188,21.204-8.776
		C29.077,8.833,35.302-4.045,46.226,1.222c8.451,4.076,8.838,16.604,16.941,20.353c3.482-2.725,4.197,2.004,6.996,1.496
		c3.058-0.555,1.645-4.234,3.695-5.916c4.595-3.765,13.148-0.009,16.159,4.078c2.95,3.998,5.98,12.203,2.498,16.632
		c-1.628,2.073-5.714,2.007-6.661,4.05c-0.84,1.811,0.994,7.154,1.465,9.017c2.543,10.096-0.687,28.382-13.381,28.786
		c-5.803,0.188-7.565-4.204-13.114-1.463c-2.155,1.066-4.199,3.082-6.993,2.994c-3.768-0.115-4.846-4.225-8.087-5.501
		c-9.204-3.626-21.085,2.39-30.33-0.657C0.55,70.19,0.075,51.276,0.075,51.276z"/>
	<g>
		<g>
			<path fill="#FFFFFF" d="M40.018,121.88c-0.564,0-1.169-0.05-1.846-0.152c-0.044,0.002-0.087,0.003-0.13,0.004
				c-0.01,0.002-0.02,0.004-0.03,0.005c-0.436,0.067-0.887,0.102-1.335,0.102c-1.531,0-3.045-0.389-4.504-1.156
				c-0.497-0.216-0.972-0.49-1.413-0.82c-0.088-0.066-0.29-0.224-0.598-0.48c-0.444-0.379-0.775-0.694-1.069-1.015
				c-0.508-0.554-0.921-1.183-1.227-1.86c-0.127-0.209-0.248-0.424-0.361-0.645c-0.256-0.499-0.451-1.027-0.581-1.573
				c-0.033-0.088-0.064-0.176-0.093-0.266c-0.036-0.109-0.069-0.22-0.1-0.331c-0.116-0.346-0.205-0.695-0.268-1.053
				c-0.01-0.056-0.019-0.112-0.027-0.169c-0.086-0.244-0.159-0.493-0.217-0.746c-0.271-0.735-0.414-1.507-0.429-2.278
				c-0.073-0.452-0.101-0.911-0.083-1.37c-0.011-0.061-0.021-0.12-0.03-0.181c-0.04-0.257-0.067-0.515-0.084-0.781
				c-0.057-0.222-0.103-0.447-0.138-0.676c-0.017-0.106-0.032-0.212-0.047-0.314c-0.568-0.028-1.138-0.127-1.696-0.298
				c-0.391-0.069-0.763-0.152-1.12-0.252c-1.12-0.174-2.191-0.618-3.116-1.309c-0.04-0.028-0.855-0.562-0.855-0.562
				c-0.333-0.216-0.657-0.458-0.964-0.722c-0.574-0.378-1.276-0.924-1.917-1.673c-0.351-0.366-0.688-0.781-1.024-1.257l-0.417-0.588
				c-0.185-0.265-0.35-0.541-0.496-0.827c-0.224-0.369-0.413-0.759-0.565-1.161c-0.551-1.059-0.924-2.216-1.112-3.457l-0.019-0.126
				c-0.08-0.28-0.16-0.621-0.215-1.005c-0.029-0.191-0.051-0.383-0.065-0.574c-0.093-0.529-0.133-1.053-0.122-1.566
				c-0.038-0.17-0.069-0.341-0.096-0.512c-0.032-0.21-0.055-0.421-0.067-0.632l-0.022-0.358c-0.047-0.315-0.108-0.801-0.104-1.396
				c-0.009-0.207-0.009-0.403-0.006-0.584c-0.091-0.895-0.009-1.791,0.236-2.643c0.02-0.326,0.062-0.649,0.126-0.967
				c0-0.005,0.001-0.011,0.002-0.016c0.005-0.401,0.04-0.793,0.102-1.172c0.08-0.677,0.248-1.339,0.502-1.967
				c0.203-0.504,0.462-0.997,0.786-1.484c0.813-1.461,2.132-2.598,3.734-3.177c0.223-0.081,0.737-0.256,1.546-0.521
				c0.32-0.105,0.646-0.187,0.978-0.245c0.048-0.014,0.096-0.027,0.144-0.04l0.432-0.157c0.431-0.156,0.877-0.271,1.331-0.34
				c0.434-0.066,0.883-0.101,1.335-0.101c0.215,0,0.432,0.008,0.649,0.022c0.102-0.005,0.203-0.007,0.305-0.007
				c0.219,0,0.439,0.011,0.66,0.031c0.672,0.063,1.36,0.21,2.104,0.448c0.243,0.055,0.482,0.123,0.716,0.203
				c0.249-0.204,0.513-0.392,0.791-0.562c0.422-0.257,0.852-0.483,1.286-0.678c0.003-0.002,0.006-0.004,0.009-0.006
				c1.125-0.688,2.392-1.03,3.656-1.03c0.427,0,0.854,0.039,1.274,0.117c0.203-0.016,0.409-0.022,0.622-0.022
				c0.141,0,0.305,0.003,0.49,0.013c0.312-0.042,0.626-0.063,0.941-0.063c0.925,0,1.855,0.184,2.734,0.556
				c0.15,0.064,0.298,0.133,0.442,0.207c0.32,0.138,0.631,0.301,0.929,0.487c0.397,0.196,0.777,0.432,1.134,0.703l0.211,0.155
				c0.571,0.415,1.076,0.906,1.503,1.456c0.587,0.66,1.044,1.428,1.346,2.259c0.135,0.31,0.249,0.623,0.341,0.94
				c0.299,0.504,0.533,1.021,0.702,1.551c0.28,0.617,0.471,1.268,0.571,1.949c0.043,0.304,0.072,0.644,0.073,1.011
				c0.11,0.477,0.169,0.964,0.178,1.455c0.176,0.597,0.273,1.219,0.285,1.854c0.011,0.064,0.049,0.314,0.049,0.314
				c0.039,0.25,0.063,0.495,0.073,0.732c0.125,0.378,0.219,0.768,0.278,1.165c0.056,0.372,0.082,0.743,0.079,1.116
				c0.018,0.3,0.016,0.6-0.005,0.897c0.005,0.02,0.011,0.038,0.016,0.058c0.164,0.424,0.286,0.863,0.365,1.313
				c0.032,0.186,0.057,0.371,0.075,0.557c0.063,0.307,0.104,0.618,0.125,0.931c0.281,0.748,0.43,1.533,0.445,2.32
				c0.001,0.011,0.006,0.039,0.006,0.043c0.091,0.312,0.161,0.632,0.208,0.959c0.028,0.189,0.047,0.379,0.059,0.568
				c0.27,0.72,0.417,1.476,0.441,2.237c0.065,0.473,0.083,0.958,0.05,1.447c0.064,0.25,0.115,0.504,0.154,0.762
				c0.067,0.454,0.091,0.907,0.074,1.355c0.068,0.325,0.113,0.653,0.135,0.982c0.067,0.312,0.115,0.627,0.142,0.945
				c0.004,0.018,0.008,0.035,0.012,0.052c0.154,0.481,0.259,0.973,0.315,1.466c0.089,0.233,0.167,0.472,0.234,0.716
				c0.128,0.373,0.227,0.758,0.291,1.152c0.16,0.977,0.109,1.965-0.136,2.903c-0.146,1.004-0.481,1.835-0.852,2.489
				c-0.081,0.281-0.179,0.559-0.294,0.828c-0.32,0.924-0.83,1.768-1.494,2.479c-0.68,1-1.608,1.808-2.69,2.343
				c-0.581,0.338-1.196,0.593-1.844,0.759c-0.521,0.188-1.058,0.323-1.61,0.406C40.901,121.848,40.464,121.88,40.018,121.88z"/>
			<path fill="#FFFFFF" d="M51.019,114.352c-0.287,0-0.556-0.014-0.809-0.038c-0.541-0.051-1.072-0.164-1.582-0.336
				c-1.077-0.229-1.965-0.614-2.691-1.065c-0.608-0.254-1.175-0.593-1.685-1.003c-0.443-0.219-0.862-0.463-1.277-0.771
				c-0.427-0.316-0.813-0.679-1.152-1.076c-0.303-0.313-0.577-0.654-0.817-1.019c-0.268-0.275-0.513-0.571-0.733-0.887
				c-0.214-0.307-0.403-0.627-0.565-0.956c-0.379-0.588-0.65-1.163-0.844-1.697c-0.185-0.394-0.354-0.817-0.508-1.277
				c-0.217-0.366-0.401-0.752-0.549-1.152c-0.205-0.411-0.413-0.904-0.568-1.48c-0.251-0.636-0.432-1.304-0.536-1.99
				c-0.017-0.109-0.048-0.259-0.084-0.43c-0.046-0.208-0.115-0.493-0.195-0.808c-0.159-0.614-0.271-1.142-0.343-1.625l-0.218-1.423
				c-0.065-0.427-0.103-0.88-0.118-1.412c-0.078-0.334-0.131-0.625-0.165-0.856c-0.05-0.317-0.082-0.639-0.096-0.96
				c-0.001-0.015-0.002-0.029-0.003-0.044c-0.24-0.85-0.4-1.532-0.5-2.113c-0.092-0.314-0.163-0.638-0.211-0.97
				c-0.034-0.221-0.098-0.706-0.174-1.379c-0.025-0.214-0.048-0.404-0.069-0.569c-0.081-0.298-0.144-0.594-0.191-0.891
				c-0.044-0.294-0.071-0.586-0.083-0.877c-0.033-0.298-0.047-0.599-0.042-0.9c-0.025-0.592-0.08-1.169-0.164-1.72
				c-0.097-0.63-0.105-1.266-0.031-1.888c0.015-0.647,0.099-1.306,0.252-1.969c0.038-0.161,0.064-0.275,0.08-0.355
				c0.249-1.414,0.913-2.665,1.863-3.634c0.003-0.004,0.007-0.008,0.01-0.012c0.191-0.244,0.4-0.483,0.625-0.72
				c0.755-1.079,1.804-1.927,3.022-2.439c0.494-0.339,1.035-0.617,1.614-0.823c0.118-0.042,0.237-0.08,0.356-0.116
				c0.1-0.044,0.205-0.087,0.315-0.129c0.616-0.249,1.28-0.426,2.012-0.539c0.211-0.031,0.415-0.055,0.612-0.072
				c0.415-0.12,0.821-0.209,1.236-0.27c0.01-0.002,0.02-0.003,0.03-0.005c0.342-0.096,0.686-0.17,1.034-0.221
				c0.106-0.016,0.214-0.029,0.321-0.04c0.354-0.097,0.723-0.183,1.119-0.24l0.111-0.019c0.323-0.05,0.649-0.078,0.976-0.083
				c0.309-0.039,0.601-0.063,0.881-0.075c0.055-0.009,0.11-0.018,0.166-0.026c0.274-0.042,0.659-0.088,1.146-0.128l0.064-0.006
				c0.467-0.109,0.82-0.176,1.055-0.213c0.308-0.048,0.637-0.076,0.953-0.083c0.111-0.015,0.407-0.049,0.886-0.097
				c0.332-0.032,0.629-0.049,0.901-0.054c0.315-0.043,0.631-0.064,0.947-0.064c0.095,0,0.189,0.002,0.284,0.006
				c0.129-0.024,0.542-0.09,0.542-0.09c0.349-0.054,0.795-0.085,1.147-0.085c0.231,0,0.601,0.013,1.108,0.058
				c1.979,0.158,3.67,0.813,5.033,1.949c0.238,0.194,0.444,0.386,0.635,0.57c0.14,0.114,0.317,0.266,0.527,0.46
				c0.398,0.366,0.78,0.79,1.106,1.235c0.551,0.752,0.947,1.607,1.164,2.515l0.17,0.712c0.144,0.601,0.207,1.219,0.188,1.836
				c-0.042,1.405-0.361,2.757-0.947,4.017c-0.033,0.07-0.066,0.139-0.101,0.208c-0.729,1.438-1.734,2.571-2.991,3.368
				c-0.503,0.323-0.984,0.55-1.382,0.711c-0.623,0.337-1.272,0.585-1.949,0.747c0.04,0.023,0.079,0.047,0.118,0.071
				c1.078,0.421,2.027,1.102,2.77,1.968c0.89,0.916,1.522,2.068,1.809,3.341c0.013,0.061,0.026,0.12,0.038,0.18
				c0.088,0.298,0.163,0.62,0.216,0.97c0,0,0.042,0.289,0.053,0.389c1.213,0.36,2.312,1.045,3.173,1.987
				c0.106,0.116,0.209,0.234,0.308,0.354c1.379,1.19,2.234,2.828,2.544,4.875c0.258,1.695,0.061,3.269-0.588,4.67
				c-0.223,0.481-0.5,0.936-0.824,1.353c-0.709,1.118-1.563,1.981-2.587,2.618l-0.456,0.29c-0.408,0.26-0.84,0.476-1.29,0.646
				c-0.384,0.212-0.783,0.389-1.194,0.529c-0.243,0.156-0.511,0.312-0.803,0.456c-0.596,0.296-1.23,0.504-1.884,0.62l-0.091,0.021
				c-0.575,0.215-1.134,0.374-1.691,0.487c-0.599,0.218-1.227,0.354-1.866,0.401c-0.205,0.046-0.375,0.077-0.508,0.099
				c-0.036,0.005-0.115,0.017-0.119,0.018c-0.391,0.104-0.766,0.175-1.117,0.231c-0.503,0.187-1.038,0.329-1.616,0.43
				c-0.408,0.144-0.829,0.251-1.26,0.317c0.002,0,0.004,0,0.005,0c0.015,0-0.057,0.019-0.141,0.041
				c-0.688,0.179-1.183,0.284-1.643,0.353C52.014,114.312,51.515,114.352,51.019,114.352z"/>
			<path fill="#FFFFFF" d="M74.272,108.73c-0.423,0-0.865-0.032-1.349-0.099c-0.083-0.001-0.335-0.006-0.379-0.006
				c-0.395,0-0.798-0.028-1.224-0.086c-1.343-0.021-2.669-0.112-4.075-0.779c-0.021-0.01-0.042-0.021-0.063-0.03
				c-1.174-0.473-2.287-1.246-3.327-2.317c-0.406-0.419-0.758-0.886-1.048-1.392c-0.564-0.981-0.939-1.818-1.182-2.633
				c-0.09-0.302-0.16-0.61-0.208-0.922c-0.116-0.397-0.196-0.803-0.24-1.211c-0.295-1.495-0.1-3.073,0.604-4.483
				c0.53-1.061,1.192-2,1.965-2.795c-0.68-0.404-1.285-0.921-1.791-1.527c-0.083-0.073-0.181-0.156-0.292-0.25
				c-0.288-0.242-0.555-0.507-0.799-0.792c-0.359-0.367-0.679-0.776-0.952-1.219c-0.454-0.604-0.803-1.256-1.043-1.955
				c-0.457-0.681-0.643-0.976-0.78-1.209c-0.073-0.124-0.142-0.25-0.207-0.378c-0.475-0.933-0.757-1.785-0.888-2.682
				c-0.047-0.298-0.074-0.604-0.08-0.918c-0.176-1.183-0.162-2.336,0.042-3.44c0.024-0.234,0.06-0.468,0.104-0.7
				c0.03-0.297,0.08-0.593,0.148-0.885c0.185-0.791,0.486-1.572,0.919-2.38c0.137-0.377,0.307-0.741,0.506-1.089
				c0.324-0.803,0.793-1.532,1.375-2.156c0.208-0.265,0.42-0.495,0.678-0.763c0.381-0.459,0.818-0.864,1.296-1.208
				c0.122-0.101,0.248-0.199,0.38-0.298c0.498-0.459,1.061-0.845,1.672-1.144c0.24-0.15,0.468-0.286,0.69-0.408
				c0.569-0.386,1.194-0.697,1.862-0.922c0.32-0.165,0.654-0.306,0.999-0.419c0.08-0.037,0.16-0.073,0.241-0.107
				c0.73-0.307,1.486-0.502,2.61-0.673c0.907-0.14,1.599-0.216,2.201-0.241c0.611-0.041,1.091-0.057,1.438-0.057
				c0.328,0,0.642,0.016,0.942,0.046c0.007,0,0.014,0,0.021,0c0.529,0,1.21,0.022,2.042,0.075c0.21,0.014,0.421,0.037,0.629,0.069
				l1.195,0.186c0.262,0.04,0.521,0.096,0.777,0.166c0.521,0.143,0.84,0.235,0.958,0.272c0.088,0.028,0.176,0.058,0.263,0.089
				c0.49,0.109,0.967,0.271,1.422,0.483c0.421,0.196,0.823,0.421,1.206,0.675c0.785,0.364,1.501,0.873,2.107,1.506
				c0.383,0.32,0.728,0.655,1.034,1.006c1.253,1.253,2.077,2.909,2.37,4.808c0.098,0.653,0.128,1.283,0.092,1.891
				c-0.045,1.295-0.402,2.54-1.037,3.665c1.134,0.892,2.052,1.968,2.715,3.186c0.306,0.463,0.58,0.887,0.821,1.292
				c0.647,0.746,1.118,1.607,1.401,2.522c0.168,0.374,0.304,0.762,0.405,1.16c0.196,0.497,0.378,1.038,0.482,1.732
				c0.11,0.708,0.112,1.42,0.012,2.117c0.004,0.326-0.014,0.652-0.055,0.977c0.097,1.271-0.093,2.54-0.557,3.735
				c-0.126,0.357-0.281,0.703-0.463,1.036c-0.291,1.07-0.827,2.04-1.547,2.842c-0.021,0.036-0.043,0.072-0.065,0.107
				c-0.234,0.542-0.518,1.034-0.851,1.485c-0.061,0.083-0.123,0.165-0.187,0.245c-0.055,0.081-0.112,0.161-0.17,0.24
				c-0.151,0.204-0.312,0.398-0.482,0.583c-0.002,0.003-0.003,0.005-0.005,0.007c-0.361,0.493-0.737,0.91-1.186,1.32
				c-0.266,0.244-0.546,0.469-0.838,0.672c-0.063,0.052-0.128,0.104-0.195,0.154c-0.667,0.577-1.438,1.024-2.272,1.316
				c-0.329,0.174-0.685,0.335-1.074,0.471c-0.319,0.175-0.653,0.325-0.998,0.449c-0.847,0.538-1.771,0.889-2.761,1.046
				c-0.363,0.057-0.755,0.088-1.123,0.088c-0.069,0-0.141-0.001-0.214-0.003c-0.095,0.027-0.191,0.052-0.287,0.075
				c-0.738,0.309-1.528,0.49-2.337,0.532c-0.348,0.08-0.619,0.129-0.767,0.152C75.084,108.7,74.68,108.73,74.272,108.73z"/>
			<path fill="#FFFFFF" d="M98.25,107.906c-0.26,0-0.52-0.015-0.778-0.043c-0.921-0.024-1.834-0.214-2.728-0.567
				c-0.785-0.216-1.525-0.566-2.186-1.033c-0.636-0.366-1.212-0.832-1.706-1.38c-0.76-0.727-1.356-1.623-1.729-2.63
				c-0.525-0.948-0.866-1.916-1.021-2.914c-0.204-1.354-0.077-2.507,0.204-3.46c0.054-0.319,0.133-0.652,0.243-0.995
				c0.07-0.297,0.159-0.59,0.268-0.876c-0.228-0.415-0.425-0.86-0.593-1.339c-0.053-0.093-0.103-0.187-0.151-0.281
				c-0.295-0.579-0.525-1.202-0.705-1.901c-0.068-0.267-0.122-0.506-0.164-0.716c-0.476-1.885-0.477-1.895-0.528-2.186
				c-0.012-0.071-0.024-0.144-0.034-0.216c-0.021-0.147-0.038-0.295-0.049-0.443c-0.041-0.184-0.075-0.369-0.103-0.555
				c-0.065-0.424-0.102-0.922-0.121-1.658c-0.025-0.12-0.046-0.241-0.065-0.363l-0.096-0.634l-0.009-0.037
				c-0.098-0.385-0.171-0.762-0.224-1.091l-0.065-0.311c-0.109-0.499-0.181-0.89-0.221-1.15c-0.028-0.19-0.049-0.38-0.063-0.569
				c-0.046-0.194-0.083-0.39-0.113-0.588l-0.043-0.283c-0.075-0.489-0.124-1.062-0.154-1.814l-0.047-0.31
				c-0.055-0.348-0.085-0.695-0.091-1.041c-0.007-0.069-0.013-0.138-0.019-0.206c-0.105-0.337-0.185-0.682-0.238-1.031l-0.016-0.047
				c-0.102-0.412-0.178-0.817-0.228-1.146c-0.056-0.368-0.089-0.746-0.103-1.153c-0.032-0.147-0.059-0.297-0.081-0.448
				c-0.024-0.163-0.043-0.327-0.057-0.491c-0.035-0.155-0.066-0.317-0.092-0.487c-0.069-0.443-0.097-0.897-0.086-1.358l-0.02-0.132
				c-0.055-0.349-0.084-0.7-0.086-1.053c-0.011-0.131-0.031-0.297-0.056-0.499c-0.128-1.065-0.167-1.904-0.12-2.673
				c0.003-0.084,0.009-0.167,0.016-0.251c-0.024-0.123-0.046-0.25-0.065-0.38c-0.045-0.3-0.069-0.605-0.074-0.913
				c-0.047-0.397-0.063-0.802-0.046-1.209c-0.049-0.592-0.032-1.169,0.053-1.742c0.198-1.769,1.023-3.39,2.339-4.586
				c1.052-0.974,2.419-1.625,3.908-1.841c0.34-0.052,0.751-0.084,1.159-0.084c1.371,0,2.717,0.351,3.934,1.021
				c0.86,0.344,1.643,0.855,2.301,1.501c0.638,0.485,1.161,1.024,1.595,1.639c0.386,0.546,0.691,1.144,0.906,1.773
				c0.453,0.963,0.679,1.896,0.808,2.595c0.246,0.747,0.401,1.369,0.492,1.959c0.029,0.19,0.051,0.38,0.067,0.568
				c0.28,0.655,0.472,1.33,0.573,2.016l0.298,1.951c0.057,0.343,0.083,0.674,0.087,0.987c0.01,0.077,0.019,0.154,0.027,0.231
				c0.093,0.327,0.177,0.681,0.235,1.061c0.022,0.153,0.041,0.306,0.054,0.459c0.032,0.144,0.059,0.288,0.081,0.433
				c0.026,0.172,0.072,0.429,0.141,0.77c0.123,0.629,0.206,1.102,0.259,1.448c0.097,0.634,0.165,1.28,0.204,1.934
				c0.058,0.233,0.104,0.47,0.139,0.709c0.062,0.433,0.079,0.813,0.074,1.165c0.037,0.15,0.085,0.333,0.142,0.541
				c0.069,0.255,0.124,0.513,0.163,0.772l0.069,0.454c0.077,0.27,0.151,0.586,0.204,0.938c0.013,0.086,0.024,0.173,0.034,0.259
				c0.154,0.438,0.266,0.891,0.334,1.356c0.048,0.306,0.076,0.62,0.082,0.938c0.01,0.058,0.019,0.115,0.027,0.173
				c0.021,0.139,0.037,0.277,0.049,0.416c0.032,0.149,0.06,0.3,0.083,0.452c0.055,0.352,0.097,0.769,0.128,1.303
				c0.226,0.628,0.36,1.284,0.4,1.949c0.114,0.353,0.2,0.715,0.257,1.083c0.085,0.292,0.151,0.589,0.198,0.891
				c0.107,0.691,0.108,1.396,0.009,2.085c0.21,0.298,0.396,0.613,0.558,0.942c0.535,0.832,0.906,1.79,1.055,2.764l0.22,1.441
				c0.177,1.171,0.174,3.233-1.34,5.328c-0.277,0.474-0.596,0.912-0.952,1.311c-0.991,1.497-2.54,2.586-4.355,2.979
				C100.058,107.731,99.154,107.906,98.25,107.906z"/>
		</g>
		<g>
			<path fill="#282D33" d="M32.839,79.861c0.046,0.033,0.172,0.057,0.379,0.064c0.206,0.01,0.336,0.051,0.388,0.125l0.24-0.036
				c0.32-0.049,0.526-0.04,0.619,0.028c0.039-0.006,0.058-0.029,0.051-0.068l0.06-0.01c0.12-0.018,0.337-0.01,0.649,0.023
				c0.313,0.035,0.529,0.043,0.648,0.024c0.121-0.019,0.218-0.054,0.292-0.107c0.006,0.041,0.012,0.081,0.018,0.121
				c0.007,0.04,0.013,0.08,0.019,0.12l0.36-0.055c0.045,0.033,0.052,0.074,0.019,0.119l0.009,0.061
				c0.12-0.02,0.227,0.008,0.319,0.074c0.092,0.068,0.178,0.096,0.259,0.084c0.045,0.034,0.139,0.102,0.275,0.203
				c0.14,0.102,0.218,0.213,0.236,0.332l0.208,0.153c0.013,0.08,0.047,0.177,0.105,0.292c0.059,0.113,0.091,0.191,0.097,0.23
				c0.019,0.119,0.054,0.289,0.107,0.506c0.055,0.217,0.111,0.383,0.169,0.496c0.058,0.115,0.149,0.244,0.274,0.389
				c0.123,0.146,0.193,0.257,0.205,0.337c0.007,0.041-0.009,0.085-0.041,0.13c-0.041,0.006-0.059,0.03-0.053,0.068
				c0.013,0.081,0.08,0.184,0.201,0.309s0.189,0.227,0.201,0.307c0.006,0.041-0.042,0.129-0.143,0.269
				c-0.104,0.138-0.147,0.247-0.135,0.327c0.012,0.08,0.05,0.127,0.113,0.136c0.063,0.013,0.098,0.038,0.104,0.077
				c0.008,0.326,0.089,0.58,0.238,0.762l-0.167,0.518l-0.304,0.416c0.058,0.114,0.187,0.156,0.387,0.125
				c0.046,0.033,0.096,0.16,0.15,0.375c0.053,0.219,0.126,0.361,0.219,0.43c-0.02,0.412-0.019,0.678,0,0.799
				c0.024,0.16,0.059,0.257,0.105,0.291l0.018,0.119c0.013,0.082-0.044,0.254-0.166,0.518c0.104,0.148,0.182,0.383,0.23,0.701
				c0.049,0.322,0.146,0.554,0.289,0.695c0.006,0.039-0.011,0.123-0.053,0.254c-0.042,0.127-0.021,0.209,0.066,0.234
				c-0.033,0.048-0.092,0.076-0.172,0.088l0.047,0.301c-0.033,0.046-0.11,0.078-0.23,0.096c0.006,0.041,0.059,0.125,0.161,0.252
				c0.102,0.129,0.157,0.233,0.17,0.313c0.024,0.161-0.04,0.273-0.193,0.336c0.013,0.082,0.164,0.406,0.456,0.977
				c-0.041,0.006-0.078,0.032-0.111,0.078l-0.051,0.068l0.392,0.557c0.007,0.039-0.017,0.094-0.066,0.162
				c-0.051,0.069-0.074,0.126-0.068,0.165c0.007,0.04,0.089,0.171,0.245,0.392c-0.02,0.414-0.009,0.74,0.027,0.98
				c0.062,0.4,0.195,0.749,0.404,1.044c-0.102,0.138-0.14,0.289-0.115,0.448c0.013,0.08,0.076,0.234,0.193,0.463
				c0.018,0.119-0.053,0.191-0.213,0.216c0.146,0.429,0.287,0.673,0.42,0.735c0.012,0.081-0.039,0.15-0.152,0.208l-0.075,0.318
				c0.006,0.04,0.002,0.081-0.011,0.124c-0.015,0.043,0.005,0.102,0.057,0.177c0.012,0.08,0.08,0.11,0.199,0.091
				c0.055,0.361,0.102,0.539,0.142,0.533c-0.034,0.045-0.044,0.107-0.032,0.189c0.007,0.039,0.059,0.113,0.157,0.222l0.147,0.161
				c-0.034,0.047-0.084,0.126-0.148,0.238s-0.114,0.191-0.146,0.238c0.006,0.039,0.054,0.094,0.146,0.16
				c0.093,0.068,0.161,0.12,0.208,0.152c-0.038,0.294-0.094,0.467-0.167,0.519l0.037,0.239c0.024,0.161,0.032,0.486,0.025,0.979
				c0.185,0.136,0.293,0.304,0.323,0.505c0.012,0.08-0.016,0.166-0.083,0.258c0.062,0.4,0.066,0.707,0.017,0.919
				c0.047,0.034,0.082,0.122,0.104,0.261c0.021,0.141,0.057,0.248,0.109,0.321l-0.203,0.276c0.043,0.281,0.05,0.465,0.022,0.551
				l0.119-0.018c0.08-0.014,0.125,0.002,0.131,0.041c0.104,0.147,0.114,0.351,0.03,0.609c0.129,0.309,0.21,0.562,0.24,0.763
				l0.036,0.24c0.162,0.261,0.177,0.485,0.042,0.669c0.168,0.303,0.279,0.633,0.335,0.994l0.027,0.18
				c0.092,0.068,0.153,0.191,0.181,0.373c0.027,0.18,0.063,0.287,0.11,0.32c-0.034,0.047-0.063,0.133-0.084,0.259
				c-0.021,0.126-0.05,0.212-0.083,0.259c0.024,0.16,0.019,0.264-0.014,0.31c-0.075,0.052-0.153,0.146-0.234,0.28
				c-0.082,0.137-0.14,0.228-0.173,0.273c0.024,0.16-0.012,0.33-0.107,0.508s-0.134,0.328-0.115,0.449l-0.051,0.068
				c-0.041,0.006-0.082,0.012-0.121,0.019c0.051,0.073,0.051,0.196-0.005,0.37l-0.162,0.146c-0.102,0.139-0.193,0.214-0.273,0.227
				c0.007,0.039-0.024,0.105-0.091,0.198c-0.069,0.092-0.117,0.181-0.145,0.269c-0.08,0.012-0.175,0.057-0.287,0.135
				c-0.109,0.078-0.187,0.121-0.227,0.127c-0.039,0.006-0.103-0.006-0.188-0.032c-0.222,0.155-0.453,0.255-0.693,0.291
				s-0.624,0.013-1.147-0.071c-0.525-0.084-0.928-0.104-1.208-0.062c-0.081,0.013-0.135-0.009-0.163-0.067
				c-0.031-0.057-0.064-0.082-0.104-0.076l-0.24,0.036c-0.148,0.104-0.302,0.17-0.461,0.194c-0.481,0.074-1.014-0.051-1.595-0.371
				c-0.025-0.161-0.076-0.234-0.156-0.223l-0.24,0.037c-0.047-0.035-0.152-0.121-0.316-0.258c-0.165-0.141-0.296-0.264-0.395-0.371
				c-0.006-0.041,0.008-0.084,0.042-0.129l0.121-0.019c-0.278-0.204-0.504-0.477-0.679-0.817c-0.007-0.041,0.018-0.086,0.071-0.135
				s0.077-0.094,0.071-0.135c-0.006-0.039-0.037-0.107-0.092-0.2c-0.057-0.095-0.063-0.144-0.022-0.15
				c-0.013-0.08-0.106-0.147-0.278-0.202c0.034-0.047,0.023-0.117-0.032-0.211c-0.056-0.095-0.085-0.162-0.092-0.201
				c0.022-0.127,0.029-0.211,0.023-0.25l-0.056-0.359c-0.006-0.041-0.036-0.109-0.092-0.202c-0.055-0.095-0.088-0.181-0.101-0.261
				l-0.019-0.119l-0.068-0.051c-0.006-0.041-0.013-0.082-0.019-0.121c-0.006-0.041-0.035-0.158-0.086-0.355
				c-0.052-0.197-0.102-0.334-0.154-0.408c0.034-0.045,0.059-0.15,0.075-0.318c0.014-0.164,0.039-0.271,0.073-0.318l-0.235-0.332
				c0.056-0.172,0.078-0.299,0.066-0.379l0.05-0.068c-0.006-0.04-0.012-0.08-0.019-0.121l-0.027-0.181
				c-0.012-0.079-0.041-0.198-0.084-0.354c-0.045-0.158-0.076-0.297-0.095-0.416c-0.019-0.121-0.024-0.293-0.019-0.52
				c0.007-0.227,0-0.4-0.019-0.52l-0.027-0.182c-0.012-0.078-0.064-0.152-0.155-0.221c-0.147-0.961-0.209-1.628-0.184-2
				c-0.007-0.039,0.008-0.084,0.042-0.13l0.051-0.069c-0.052-0.074-0.093-0.201-0.12-0.381c-0.027-0.181-0.047-0.31-0.06-0.391
				l-0.079-0.111c-0.046-0.033-0.071-0.07-0.078-0.111c-0.006-0.039-0.001-0.143,0.014-0.309c0.017-0.166,0.019-0.289,0.006-0.37
				c-0.15-0.181-0.192-0.318-0.125-0.411c-0.046-0.032-0.077-0.11-0.096-0.23c-0.013-0.08-0.018-0.182-0.016-0.305
				c0.002-0.124-0.001-0.205-0.008-0.244c-0.012-0.082-0.039-0.199-0.084-0.357c-0.045-0.156-0.07-0.255-0.076-0.296
				c-0.024-0.159,0.014-0.31,0.116-0.448c-0.052-0.073-0.131-0.111-0.232-0.117c-0.104-0.004-0.179-0.023-0.225-0.059
				c-0.034,0.048-0.252,0.1-0.651,0.16c-0.121,0.02-0.198,0.053-0.231,0.098c-0.087-0.026-0.229-0.027-0.43,0.004
				c-0.08,0.012-0.247,0.061-0.501,0.139c-0.255,0.08-0.465,0.111-0.632,0.096c-0.039,0.007-0.123-0.012-0.253-0.053
				c-0.129-0.041-0.214-0.059-0.254-0.053c-0.041,0.006-0.111,0.017-0.211,0.031c-0.1,0.016-0.174,0.006-0.219-0.027l-0.069-0.052
				c-0.041,0.007-0.081,0.013-0.12,0.019l-0.268-0.143l-0.3,0.045l-1.026-0.273c-0.16,0.023-0.257,0.061-0.291,0.105
				c-0.132-0.061-0.419-0.129-0.861-0.205c-0.441-0.077-0.754-0.182-0.939-0.318l-0.3,0.047c-0.139-0.104-0.321-0.229-0.55-0.378
				s-0.443-0.289-0.648-0.424c-0.203-0.132-0.383-0.29-0.532-0.472c-0.536-0.287-0.862-0.543-0.979-0.771
				c-0.14-0.102-0.313-0.301-0.521-0.597c-0.21-0.296-0.341-0.479-0.393-0.554l-0.037-0.242c-0.093-0.066-0.164-0.137-0.216-0.212
				l-0.009-0.06l0.041-0.131c-0.406-0.51-0.664-1.127-0.773-1.848l-0.092-0.602c-0.013-0.078-0.036-0.166-0.071-0.264
				c-0.036-0.098-0.057-0.165-0.063-0.206c-0.019-0.121-0.012-0.203,0.023-0.249c-0.006-0.041-0.036-0.168-0.09-0.387
				c-0.054-0.217-0.067-0.367-0.039-0.455l0.125-0.387c-0.006-0.039-0.022-0.079-0.048-0.116c-0.027-0.036-0.042-0.075-0.048-0.115
				c-0.007-0.04-0.006-0.093,0.007-0.155c0.01-0.063,0.013-0.113,0.007-0.154c-0.013-0.08-0.05-0.188-0.11-0.321
				c-0.062-0.134-0.102-0.261-0.12-0.382l-0.041-0.669l-0.027-0.181c-0.049-0.319-0.057-0.503-0.022-0.551l-0.019-0.119
				c-0.013-0.08-0.014-0.223-0.004-0.43c0.009-0.206,0.005-0.369-0.014-0.488l-0.027-0.182c0.039-0.006,0.089-0.023,0.146-0.053
				c0.057-0.028,0.103-0.066,0.136-0.113c-0.006-0.039-0.03-0.065-0.073-0.081c-0.043-0.013-0.051-0.063-0.022-0.149
				c-0.007-0.04,0.029-0.075,0.106-0.109c0.076-0.031,0.112-0.066,0.105-0.107c-0.105-0.146-0.165-0.281-0.183-0.402l0.041-0.129
				c0.026-0.086,0.035-0.17,0.022-0.25l-0.019-0.119l0.111-0.078c0.027-0.086,0.028-0.221,0.001-0.4s-0.009-0.314,0.061-0.408
				c-0.062-0.4-0.053-0.607,0.027-0.619c-0.024-0.159-0.013-0.296,0.031-0.404c0.044-0.109,0.117-0.232,0.22-0.371
				c0.102-0.139,0.167-0.251,0.194-0.338c0.194-0.07,0.642-0.221,1.345-0.451c0.039-0.006,0.106,0.024,0.198,0.094
				c0.114-0.059,0.306-0.148,0.572-0.273l0.121-0.018l0.873-0.317c0.28-0.043,0.633-0.015,1.058,0.083
				c0.039-0.006,0.098-0.035,0.171-0.087c0.165,0.016,0.379,0.065,0.638,0.148c0.258,0.083,0.451,0.136,0.577,0.157
				c0.063,0.154,0.21,0.307,0.438,0.457c0.228,0.148,0.377,0.32,0.448,0.514l0.217,0.213c0.006,0.041-0.004,0.114-0.027,0.22
				c-0.025,0.106-0.012,0.196,0.041,0.271c0.006,0.04,0.042,0.076,0.107,0.106c0.067,0.03,0.104,0.065,0.109,0.106l0.009,0.059
				c-0.034,0.048-0.047,0.091-0.041,0.131s0.028,0.057,0.068,0.051l0.079,0.109l-0.051,0.07l0.046,0.301
				c0.291,0.037,0.469,0.256,0.529,0.656c0.019,0.12,0.015,0.225-0.014,0.309c0.007,0.041,0.028,0.057,0.069,0.051l0.13,0.043
				c0.059,0.113,0.092,0.271,0.104,0.475c0.009,0.205,0.041,0.344,0.094,0.417c-0.051,0.214-0.026,0.372,0.073,0.48
				c-0.081,0.013-0.138,0.042-0.172,0.087l0.328,0.934c-0.01,0.207,0.011,0.471,0.06,0.791c0.03,0.199,0.153,0.734,0.368,1.604
				c-0.103,0.137-0.093,0.342,0.031,0.608c0.006,0.041-0.008,0.083-0.042,0.13l-0.051,0.068c-0.034,0.047-0.028,0.087,0.019,0.121
				l0.129,0.041c0.046,0.035,0.054,0.084,0.023,0.15c-0.031,0.066-0.043,0.119-0.037,0.16c0.046,0.033,0.087,0.17,0.124,0.411
				l0.069,0.05c0.052,0.074,0.081,0.132,0.087,0.172l-0.041,0.129c0.086,0.561,0.221,0.909,0.405,1.044
				c0.013,0.081,0.036,0.169,0.07,0.267c0.035,0.098,0.057,0.166,0.063,0.205l0.019,0.119c0.14,0.102,0.269,0.288,0.392,0.555
				c0.123,0.27,0.234,0.457,0.333,0.564l0.595,0.277c0.087,0.028,0.163-0.002,0.231-0.096c0.067-0.092,0.141-0.145,0.222-0.156
				l0.115-0.449c0.148-0.104,0.247-0.334,0.296-0.69c0.048-0.354,0.086-0.575,0.112-0.662c0.04-0.006,0.146-0.124,0.315-0.356
				c-0.047-0.032-0.074-0.089-0.087-0.17c-0.012-0.079-0.043-0.137-0.089-0.172c0.074-0.051,0.128-0.172,0.16-0.361
				s0.104-0.333,0.211-0.432c-0.006-0.039,0.011-0.125,0.053-0.254c0.043-0.129,0.02-0.207-0.066-0.236
				c0.067-0.092,0.112-0.271,0.132-0.543c0.021-0.27,0.086-0.453,0.192-0.551c-0.087-0.027-0.134-0.082-0.146-0.162
				s0.017-0.146,0.092-0.199c-0.046-0.032-0.075-0.09-0.087-0.17c-0.013-0.08-0.001-0.205,0.034-0.375
				c0.035-0.168,0.05-0.273,0.044-0.314l-0.009-0.06c-0.046-0.032-0.071-0.069-0.078-0.11c-0.055-0.361-0.023-0.815,0.098-1.367
				c-0.104-0.147-0.162-0.262-0.175-0.342c-0.012-0.08-0.006-0.246,0.017-0.495c0.023-0.249,0.025-0.434,0.007-0.554
				c-0.024-0.159-0.07-0.398-0.139-0.717c-0.07-0.316-0.116-0.555-0.141-0.715l-0.019-0.121c0.033-0.045,0.048-0.089,0.041-0.129
				l-0.027-0.18c-0.019-0.121-0.067-0.307-0.146-0.563c-0.081-0.253-0.129-0.44-0.146-0.561l-0.028-0.181
				c-0.006-0.039,0.004-0.102,0.032-0.188c0.027-0.086,0.038-0.15,0.032-0.189l-0.037-0.24c-0.006-0.04,0.009-0.084,0.044-0.131
				c0.066-0.09,0.098-0.157,0.091-0.197l0.349-1.344c0.45-0.274,0.875-0.441,1.275-0.502C32.847,80.044,32.857,79.98,32.839,79.861z
				"/>
			<path fill="#282D33" d="M50.142,76.048l0.18-0.027c0.439-0.066,0.706-0.066,0.799,0.002c0.114-0.059,0.312-0.108,0.592-0.151
				c0.159-0.024,0.383-0.048,0.665-0.071c0.283-0.022,0.465-0.04,0.545-0.053c0.121-0.018,0.299-0.055,0.537-0.113
				c0.237-0.056,0.416-0.093,0.535-0.111c0.04-0.006,0.103,0.004,0.189,0.032c0.086,0.028,0.149,0.038,0.189,0.032
				c0.039-0.006,0.108-0.027,0.205-0.062s0.186-0.06,0.266-0.071c0.04-0.006,0.242-0.026,0.605-0.063
				c0.364-0.035,0.65-0.027,0.864,0.022c0.08-0.013,0.136-0.042,0.171-0.089l0.12-0.018c0.179,0.096,0.366,0.128,0.567,0.098
				l0.24-0.037c0.08-0.012,0.22-0.043,0.417-0.094c0.196-0.051,0.355-0.085,0.476-0.104l0.18-0.027
				c0.08-0.012,0.286-0.002,0.619,0.028c0.538,0.04,0.927,0.165,1.163,0.375c0.047,0.034,0.142,0.123,0.287,0.265
				c0.144,0.141,0.262,0.246,0.355,0.313c0.046,0.035,0.116,0.096,0.211,0.184c0.096,0.088,0.169,0.17,0.223,0.243l0.17,0.712
				c-0.014,0.453-0.112,0.877-0.297,1.273c-0.158,0.313-0.331,0.521-0.519,0.633c-0.074,0.053-0.208,0.113-0.401,0.184
				c-0.195,0.072-0.329,0.133-0.402,0.186c-0.148,0.105-0.303,0.168-0.462,0.193c-0.081,0.012-0.207-0.01-0.38-0.064
				c-0.208,0.236-0.654,0.406-1.334,0.51l-1.201,0.184c-0.162,0.025-0.44,0.078-0.838,0.16c-0.397,0.08-0.715,0.139-0.955,0.176
				l-0.421,0.064c-0.166-0.016-0.366,0.016-0.601,0.092c-0.12,0.018-0.272,0.031-0.455,0.039c-0.183,0.007-0.314,0.018-0.395,0.029
				s-0.189,0.039-0.326,0.08c-0.138,0.041-0.245,0.068-0.325,0.08c-0.081,0.012-0.192,0.02-0.335,0.021
				c-0.145,0.001-0.236,0.005-0.275,0.011c-0.201,0.03-0.334,0.093-0.402,0.185c0.052,0.074,0.092,0.191,0.115,0.35
				c-0.222,0.158-0.35,0.261-0.384,0.305c0.046,0.035,0.085,0.153,0.116,0.353l-0.006,0.37c0.012,0.08-0.016,0.166-0.082,0.258
				c-0.069,0.092-0.1,0.159-0.094,0.198c0.046,0.034,0.052,0.075,0.018,0.12l0.131,0.042c0.039-0.007,0.063,0.011,0.068,0.05
				c0.076,0.234,0.183,0.73,0.319,1.488s0.293,1.309,0.467,1.648c-0.07,0.34-0.12,0.553-0.148,0.639
				c0.053,0.074,0.118,0.105,0.199,0.093c0.079-0.013,0.123,0.001,0.129,0.042c0.05,0.32,0.063,0.543,0.041,0.67
				c0.15,0.183,0.244,0.393,0.281,0.633c0.043,0.281-0.015,0.576-0.171,0.887c0.012,0.08,0.015,0.172,0.01,0.274
				c-0.006,0.104-0.003,0.176,0.003,0.216c0.036,0.239,0.106,0.566,0.212,0.98c0.102,0.416,0.168,0.702,0.192,0.862
				c0.03,0.2,0.033,0.362,0.014,0.489c0.264,0.124,0.495,0.293,0.692,0.51c0.119-0.02,0.299-0.057,0.535-0.113
				s0.396-0.092,0.477-0.104c0.199-0.031,0.427-0.023,0.679,0.02c0.388-0.141,0.702-0.23,0.942-0.268l0.609-0.031
				c0.046,0.034,0.175,0.076,0.388,0.126s0.345,0.11,0.398,0.185l0.24-0.037c0.044,0.033,0.204,0.133,0.475,0.296
				c0.271,0.165,0.489,0.255,0.655,0.269c0.019,0.121,0.117,0.229,0.296,0.324c-0.069,0.094-0.06,0.215,0.024,0.365
				c0.084,0.151,0.13,0.247,0.136,0.286l0.019,0.12l-0.203,0.277c0.012,0.08-0.02,0.207-0.095,0.383
				c-0.076,0.176-0.104,0.322-0.086,0.443c-0.034,0.047-0.111,0.078-0.232,0.098c-0.015,0.166-0.085,0.381-0.208,0.646l-0.813,0.309
				c-0.08,0.012-0.198,0.051-0.351,0.114c-0.068,0.093-0.143,0.144-0.223,0.155c-0.12,0.02-0.264,0.021-0.429,0.006
				c-0.166-0.016-0.309-0.014-0.43,0.004L55.523,96.8l-0.18,0.027c-0.081,0.012-0.193,0.01-0.34-0.01
				c-0.146-0.019-0.24-0.023-0.28-0.018c-0.119,0.018-0.197,0.049-0.229,0.096c-0.103,0.137-0.129,0.368-0.08,0.688
				c0.006,0.04,0.009,0.123,0.008,0.244c-0.003,0.125,0.003,0.227,0.015,0.307c0.025,0.16,0.078,0.377,0.161,0.651
				c0.083,0.273,0.134,0.47,0.152,0.591l0.101,0.66c0.127,0.022,0.463,0.084,1.012,0.184c0.547,0.102,0.934,0.217,1.158,0.346
				c0.081-0.012,0.139-0.031,0.176-0.058s0.075-0.042,0.115-0.048c0.38,0.064,0.809,0.061,1.289-0.014
				c0.361-0.055,0.814-0.164,1.364-0.33c0.039-0.006,0.151,0.06,0.336,0.194c0.12-0.019,0.366-0.087,0.737-0.204
				c0.371-0.119,0.656-0.193,0.857-0.225c0.278-0.043,0.51-0.017,0.688,0.08c0.027-0.086,0.126-0.111,0.296-0.076
				c0.168,0.036,0.273,0.051,0.314,0.044l0.12-0.019c0.045,0.035,0.091,0.068,0.138,0.102l0.129,0.043l0.568,0.097
				c0.197,0.216,0.308,0.405,0.332,0.563c0.046,0.035,0.138,0.092,0.272,0.174c0.136,0.082,0.227,0.141,0.272,0.174
				c0.093,0.069,0.166,0.281,0.221,0.643c0.049,0.32,0.043,0.547-0.019,0.68l-0.162,0.146c-0.219,0.443-0.422,0.721-0.61,0.832
				l-0.503,0.32l-0.301,0.047c-0.121,0.018-0.254,0.092-0.398,0.215c-0.145,0.125-0.257,0.193-0.337,0.206
				c-0.081,0.013-0.162,0.015-0.245,0.005c-0.084-0.006-0.146-0.008-0.186-0.002c-0.039,0.006-0.109,0.08-0.212,0.217
				c-0.12,0.019-0.281,0.105-0.482,0.259c-0.203,0.153-0.36,0.261-0.475,0.317c-0.081,0.012-0.259,0.049-0.535,0.113
				c-0.278,0.063-0.493,0.126-0.646,0.191c-0.311,0.128-0.623,0.217-0.943,0.266c-0.24,0.037-0.403,0.042-0.489,0.014l-0.171,0.088
				c-0.075,0.053-0.129,0.102-0.163,0.148c-0.086-0.029-0.21-0.03-0.369-0.006c-0.081,0.012-0.199,0.041-0.354,0.086
				c-0.158,0.043-0.276,0.072-0.356,0.085c-0.041,0.006-0.102,0.015-0.18,0.027l-0.069-0.052c-0.041,0.006-0.099,0.025-0.176,0.059
				c-0.078,0.031-0.136,0.051-0.177,0.058c-0.113,0.058-0.37,0.118-0.771,0.179l-0.841,0.129c-0.149,0.104-0.243,0.16-0.281,0.166
				c-0.115,0.057-0.293,0.105-0.532,0.143c-0.36,0.055-0.624,0.073-0.79,0.059l-0.272,0.227c-0.201,0.031-0.488,0.094-0.862,0.193
				c-0.375,0.098-0.661,0.162-0.86,0.191c-0.24,0.037-0.445,0.049-0.611,0.033c-0.092-0.068-0.328-0.135-0.706-0.199
				c-0.379-0.065-0.624-0.193-0.733-0.381c-0.081,0.012-0.2-0.03-0.358-0.129c-0.159-0.099-0.3-0.158-0.428-0.181
				c-0.116-0.228-0.371-0.424-0.766-0.591c-0.394-0.164-0.638-0.28-0.729-0.348c-0.024-0.16-0.124-0.268-0.295-0.324
				c-0.013-0.08-0.037-0.168-0.072-0.266c-0.036-0.097-0.056-0.166-0.063-0.205c-0.18-0.098-0.412-0.285-0.702-0.568
				c-0.052-0.074-0.063-0.154-0.037-0.242l-0.009-0.059c-0.334-0.318-0.523-0.617-0.566-0.896l-0.019-0.121
				c-0.15-0.182-0.31-0.546-0.474-1.094c-0.167-0.55-0.346-0.91-0.535-1.088l-0.019-0.119c-0.012-0.08-0.073-0.214-0.185-0.402
				c-0.11-0.188-0.172-0.321-0.184-0.402l0.022-0.25c-0.203-0.254-0.332-0.563-0.387-0.924c-0.037-0.24-0.091-0.519-0.158-0.836
				c-0.069-0.316-0.155-0.673-0.255-1.067c-0.102-0.394-0.172-0.712-0.208-0.952l-0.221-1.441c-0.024-0.16-0.039-0.393-0.044-0.7
				c-0.008-0.306-0.019-0.521-0.036-0.64c-0.013-0.08-0.045-0.219-0.095-0.416c-0.051-0.197-0.085-0.355-0.103-0.475
				c-0.031-0.2-0.036-0.364-0.015-0.49c-0.046-0.033-0.049-0.054-0.009-0.061l0.111-0.077c-0.403-1.292-0.644-2.197-0.723-2.718
				c-0.019-0.12-0.013-0.346,0.02-0.68l-0.062,0.01c-0.08,0.012-0.122,0-0.128-0.041c-0.037-0.24-0.087-0.633-0.148-1.176
				c-0.063-0.545-0.116-0.956-0.159-1.235c-0.006-0.04-0.028-0.12-0.066-0.237c-0.038-0.116-0.063-0.215-0.076-0.295
				c-0.023-0.158,0.014-0.31,0.117-0.448l-0.071-0.05c-0.08,0.012-0.105-0.025-0.077-0.111c-0.026-0.98-0.11-1.93-0.251-2.85
				c0.034-0.047,0.086-0.106,0.157-0.18c0.07-0.071,0.122-0.131,0.157-0.176c-0.054-0.074-0.095-0.088-0.13-0.043
				c-0.033,0.047-0.074,0.053-0.119,0.019c-0.037-0.239-0.019-0.519,0.056-0.839c0.074-0.317,0.122-0.539,0.145-0.667
				c0.039-0.006,0.084-0.053,0.131-0.144c0.049-0.088,0.111-0.139,0.192-0.15c0.055-0.172,0.227-0.394,0.513-0.663
				c0.287-0.269,0.458-0.489,0.514-0.663c0.04-0.006,0.312-0.108,0.813-0.309c0.24-0.036,0.384-0.159,0.435-0.373
				c0.046,0.035,0.108,0.045,0.189,0.032c0.079-0.013,0.204-0.071,0.373-0.179c0.167-0.107,0.271-0.166,0.312-0.172
				c0.113-0.057,0.29-0.105,0.53-0.143c0.24-0.035,0.488-0.033,0.74,0.01c0.079-0.012,0.186-0.047,0.321-0.109
				c0.133-0.061,0.26-0.111,0.376-0.15c0.118-0.037,0.235-0.066,0.355-0.084c0.039-0.006,0.104,0.004,0.189,0.031l0.12-0.018
				c0.079-0.012,0.197-0.051,0.352-0.115c0.153-0.064,0.291-0.107,0.41-0.125l0.25,0.025c0.159-0.025,0.367-0.078,0.621-0.158
				c0.255-0.078,0.441-0.129,0.562-0.146l0.181-0.028L50.142,76.048z"/>
			<path fill="#282D33" d="M71.491,71.375c0.68-0.104,1.184-0.161,1.511-0.17c0.973-0.067,1.485-0.063,1.538,0.011
				c0.446-0.027,1.145-0.012,2.097,0.049l1.195,0.186c0.385,0.105,0.621,0.172,0.708,0.199c0.132,0.063,0.272,0.111,0.422,0.15
				c0.148,0.039,0.287,0.07,0.413,0.092c0.265,0.123,0.495,0.292,0.692,0.508c0.08-0.012,0.176,0.014,0.288,0.078
				c0.112,0.066,0.188,0.096,0.229,0.09c0.059,0.113,0.214,0.264,0.47,0.449c0.252,0.188,0.412,0.357,0.477,0.512
				c0.317,0.197,0.515,0.557,0.595,1.076c0.03,0.201,0.034,0.364,0.014,0.49c0.021,0.406-0.207,0.791-0.685,1.15
				c-0.035,0.046-0.086,0.115-0.152,0.205l-0.172,0.09c-0.04,0.006-0.123-0.002-0.249-0.025c-0.126-0.02-0.211-0.028-0.25-0.022
				c-0.491-0.005-0.865-0.03-1.117-0.075c-0.087-0.027-0.217-0.068-0.388-0.125c-0.173-0.055-0.3-0.076-0.379-0.064l-0.3,0.046
				c-0.121,0.019-0.313,0.038-0.575,0.057c-0.264,0.021-0.456,0.038-0.576,0.058c-0.081,0.012-0.197,0.051-0.351,0.115
				c-0.154,0.064-0.271,0.102-0.352,0.114l-0.249-0.022c-0.08,0.012-0.185,0.068-0.312,0.17c-0.13,0.102-0.249,0.182-0.363,0.24
				c-0.237,0.324-0.413,0.514-0.527,0.572c0.019,0.119-0.086,0.381-0.311,0.785c-0.056,0.172-0.161,0.291-0.313,0.355
				c0.024,0.16-0.002,0.461-0.078,0.902s-0.092,0.805-0.05,1.082c0.037,0.242,0.085,0.418,0.144,0.532
				c0.232,0.456,0.582,0.73,1.047,0.824c0.079-0.013,0.18-0.027,0.301-0.046c0.119-0.018,0.249-0.038,0.39-0.06
				c0.14-0.021,0.25-0.038,0.33-0.05c0.44-0.068,1.283-0.053,2.527,0.043c0.046,0.034,0.103,0.006,0.171-0.088
				c0.046,0.035,0.368,0.129,0.965,0.282l0.259,0.085c0.04-0.006,0.082,0.008,0.129,0.041c0.046,0.035,0.09,0.047,0.13,0.041
				c0.045,0.035,0.156,0.09,0.333,0.165c0.174,0.076,0.325,0.125,0.452,0.146l0.244,0.393c0.126,0.022,0.239,0.098,0.342,0.225
				c0.102,0.129,0.176,0.21,0.222,0.242c0.045,0.035,0.136,0.083,0.267,0.145c0.134,0.063,0.225,0.13,0.277,0.203
				c0.006,0.041,0.023,0.089,0.053,0.146c0.029,0.058,0.047,0.106,0.054,0.146c0.846,0.445,1.425,1.012,1.735,1.703
				c0.743,1.114,1.129,1.753,1.153,1.912c0.091,0.068,0.235,0.211,0.433,0.427c-0.028,0.086-0.032,0.188-0.014,0.309
				s0.03,0.201,0.036,0.239l0.139,0.104c0.046,0.033,0.096,0.088,0.146,0.162c0.007,0.039,0.019,0.119,0.037,0.238
				c0.019,0.121,0.054,0.219,0.106,0.291c0.128,0.311,0.196,0.484,0.202,0.523c0.019,0.119-0.043,0.252-0.185,0.397
				c0.045,0.033,0.075,0.091,0.087,0.169c0.006,0.041-0.001,0.135-0.019,0.28c-0.02,0.147-0.002,0.257,0.051,0.33
				c-0.074,0.054-0.127,0.175-0.159,0.363c-0.033,0.188-0.087,0.312-0.16,0.362c0.15,0.183,0.241,0.373,0.271,0.572
				c0.049,0.322-0.006,0.637-0.163,0.947c0.006,0.041-0.026,0.088-0.101,0.139c-0.075,0.053-0.13,0.102-0.162,0.148
				c-0.017,0.166-0.076,0.38-0.179,0.642c-0.104,0.261-0.163,0.476-0.179,0.642c-0.039,0.006-0.105,0.047-0.195,0.122
				c-0.092,0.075-0.178,0.119-0.257,0.132c-0.022,0.125-0.081,0.278-0.176,0.456c-0.097,0.181-0.158,0.312-0.186,0.397
				c-0.041,0.006-0.087,0.035-0.143,0.083c-0.053,0.05-0.097,0.099-0.131,0.144c-0.033,0.047-0.072,0.071-0.111,0.078l0.046,0.301
				c-0.033,0.045-0.064,0.112-0.092,0.198c-0.028,0.087-0.06,0.153-0.093,0.198c-0.034,0.047-0.072,0.072-0.111,0.078
				c-0.08,0.013-0.117,0.039-0.11,0.078l-0.042,0.131c-0.027,0.086-0.06,0.152-0.093,0.197c-0.08,0.012-0.138,0.043-0.171,0.088
				c-0.074,0.053-0.142,0.145-0.203,0.277c-0.063,0.132-0.119,0.232-0.169,0.302c-0.051,0.069-0.131,0.153-0.238,0.251
				c-0.106,0.1-0.222,0.157-0.343,0.176c-0.027,0.087-0.115,0.183-0.263,0.285c-0.148,0.106-0.24,0.182-0.272,0.227
				c-0.041,0.007-0.119,0.029-0.236,0.066c-0.117,0.039-0.216,0.064-0.295,0.076c-0.297,0.209-0.485,0.32-0.565,0.332
				c-0.08,0.013-0.166-0.014-0.257-0.082c-0.389,0.141-0.648,0.324-0.777,0.549c-0.081,0.012-0.169,0.036-0.266,0.07
				c-0.098,0.037-0.166,0.057-0.205,0.063c-0.075,0.053-0.212,0.093-0.412,0.123c-0.04,0.006-0.131,0.084-0.273,0.227
				c-0.142,0.146-0.252,0.224-0.332,0.236c-0.08,0.012-0.189-0.032-0.328-0.135c-0.153,0.064-0.571,0.148-1.251,0.252
				c-0.281,0.043-0.478,0.095-0.593,0.153c-0.16,0.024-0.264,0.019-0.309-0.016c-0.074,0.054-0.199,0.103-0.377,0.15
				c-0.177,0.048-0.3,0.118-0.367,0.21c-0.127-0.021-0.29-0.018-0.489,0.013c-0.12,0.019-0.3,0.057-0.536,0.112
				c-0.237,0.059-0.396,0.092-0.477,0.104c-0.12,0.019-0.315,0.007-0.588-0.033c-0.273-0.04-0.493-0.067-0.659-0.085l-0.181,0.028
				l-0.068-0.05c-0.041,0.006-0.08,0.012-0.12,0.018l-0.12,0.019c-0.12,0.019-0.307,0.006-0.56-0.038
				c-0.251-0.043-0.438-0.055-0.558-0.037c-0.74-0.01-1.176-0.045-1.308-0.107l-0.208-0.154c-0.286,0.006-0.673-0.244-1.158-0.744
				c-0.28-0.488-0.462-0.871-0.544-1.146l-0.119-0.779L68.136,98.5l0.052-0.07c-0.006-0.039-0.013-0.078-0.019-0.119
				c-0.03-0.199-0.073-0.338-0.125-0.411c0.377-0.755,0.851-1.276,1.421-1.569c0.039-0.006,0.138-0.031,0.295-0.076
				c0.156-0.045,0.272-0.092,0.347-0.146l0.181-0.028c0.039-0.006,0.138-0.029,0.295-0.074c0.156-0.044,0.276-0.073,0.356-0.086
				c0.119-0.018,0.223-0.012,0.309,0.014c0.229-0.115,0.442-0.189,0.643-0.22c0.241-0.036,0.447-0.026,0.619,0.027
				c0.114-0.056,0.41-0.124,0.893-0.196l0.24-0.037c0.039-0.006,0.125-0.039,0.26-0.102c0.135-0.061,0.241-0.098,0.322-0.111
				l0.3-0.045c0.159-0.024,0.281-0.104,0.362-0.24c0.082-0.135,0.139-0.226,0.174-0.272c0.033-0.044,0.097-0.106,0.188-0.182
				c0.09-0.075,0.152-0.136,0.188-0.183c0.296-1.274,0.426-2.031,0.39-2.271c-0.03-0.199-0.088-0.314-0.175-0.343
				c-0.029-0.733-0.52-1.519-1.466-2.356c-0.133-0.062-0.354-0.172-0.665-0.329c-0.312-0.157-0.533-0.267-0.665-0.329
				c-0.081,0.012-0.142,0.013-0.185-0.002c-0.044-0.014-0.105-0.015-0.185-0.002c-0.1-0.108-0.229-0.15-0.389-0.125
				c-0.104-0.148-0.234-0.189-0.387-0.126c-0.06-0.114-0.28-0.224-0.665-0.329c-0.542-0.326-0.963-0.528-1.261-0.605
				c-0.046-0.033-0.075-0.091-0.087-0.172c-0.128-0.021-0.291-0.088-0.493-0.201c-0.201-0.113-0.346-0.183-0.431-0.211l-0.019-0.119
				c-0.046-0.033-0.072-0.071-0.079-0.112c-0.138-0.101-0.364-0.24-0.678-0.418c-0.314-0.177-0.536-0.297-0.67-0.358
				c-0.11-0.188-0.495-0.561-1.153-1.115c-0.157-0.221-0.256-0.33-0.296-0.324l-0.036-0.24c-0.231-0.169-0.352-0.293-0.364-0.373
				l-0.027-0.182c-0.006-0.039-0.067-0.163-0.181-0.371c-0.114-0.208-0.176-0.352-0.188-0.432c-0.529-0.78-0.85-1.264-0.96-1.451
				c-0.116-0.229-0.184-0.402-0.201-0.522c-0.013-0.08,0.008-0.206,0.063-0.38c-0.058-0.113-0.105-0.291-0.142-0.529
				c-0.086-0.563-0.06-1.057,0.079-1.488c-0.03-0.201,0.016-0.433,0.141-0.697l-0.037-0.24c0.05-0.213,0.162-0.476,0.34-0.789
				c0.178-0.314,0.291-0.578,0.341-0.79c0.271-0.369,0.411-0.657,0.421-0.864c0.039-0.006,0.162-0.146,0.365-0.424
				c0.034-0.045,0.123-0.141,0.265-0.287c0.141-0.145,0.245-0.261,0.314-0.354l0.06-0.01c0.033-0.047,0.07-0.072,0.11-0.079
				c0.068-0.093,0.214-0.218,0.435-0.373c0.223-0.157,0.367-0.28,0.435-0.374c0.153-0.063,0.38-0.189,0.68-0.38
				c0.299-0.189,0.545-0.319,0.739-0.39c0.062-0.133,0.213-0.217,0.453-0.254l0.301-0.046c0.073-0.052,0.168-0.106,0.281-0.166
				c0.115-0.058,0.188-0.11,0.223-0.157l0.24-0.037l0.513-0.262C70.692,71.517,71.011,71.449,71.491,71.375z"/>
			<path fill="#282D33" d="M91.108,61.802c0.279-0.043,0.559,0.028,0.832,0.211c0.272,0.183,0.493,0.283,0.66,0.297
				c0.063,0.156,0.197,0.289,0.398,0.4c0.201,0.113,0.329,0.207,0.381,0.28c0.006,0.041,0.026,0.11,0.063,0.206
				c0.035,0.098,0.036,0.17,0.002,0.215c0.225,0.129,0.41,0.675,0.558,1.636c0.211,0.583,0.339,1.015,0.382,1.294
				c0.03,0.2,0.018,0.387-0.038,0.559c0.099,0.108,0.171,0.312,0.217,0.612c0.046,0.3,0.075,0.491,0.087,0.57l0.166,0.282
				c0.111,0.189,0.18,0.363,0.203,0.521l0.303,1.982c0.007,0.041-0.02,0.146-0.074,0.319c0.006,0.039,0.024,0.099,0.058,0.175
				c0.031,0.078,0.051,0.137,0.057,0.176c0.006,0.041,0.016,0.1,0.027,0.18l-0.041,0.13c-0.017,0.167,0.029,0.394,0.136,0.687
				c0.105,0.29,0.169,0.496,0.188,0.617c0.018,0.119,0.005,0.307-0.039,0.558c0.013,0.081,0.07,0.194,0.176,0.343
				c0.037,0.24,0.1,0.599,0.195,1.076c0.093,0.477,0.161,0.857,0.204,1.137c0.11,0.721,0.164,1.471,0.159,2.249
				c0.104,0.149,0.164,0.263,0.176,0.343c0.006,0.041-0.008,0.227-0.038,0.559l0.055,0.36c0.055,0.36,0.177,0.895,0.369,1.604
				l0.138,0.9c0.012,0.08,0.033,0.169,0.07,0.266c0.035,0.098,0.057,0.166,0.063,0.205c0.012,0.08,0.004,0.174-0.019,0.279
				c-0.025,0.107-0.035,0.18-0.029,0.219c0.006,0.041,0.036,0.098,0.089,0.172c0.051,0.074,0.084,0.15,0.097,0.231
				c0.006,0.04,0.015,0.1,0.027,0.179l-0.041,0.131c0.006,0.039,0.044,0.096,0.116,0.166c0.072,0.071,0.114,0.146,0.126,0.226
				c0.013,0.081,0.006,0.165-0.022,0.249c-0.027,0.088-0.038,0.15-0.032,0.19c0.013,0.08,0.04,0.2,0.085,0.356
				c0.044,0.156,0.069,0.256,0.076,0.295c0.018,0.121,0.006,0.244-0.035,0.373c-0.042,0.13-0.061,0.215-0.055,0.254
				c-0.026,0.088,0.002,0.145,0.09,0.172c0.085,0.028,0.131,0.063,0.137,0.102c0.031,0.201,0.055,0.494,0.074,0.88
				c0.017,0.388,0.039,0.661,0.063,0.819c0.05,0.322,0.158,0.633,0.326,0.935c-0.031,0.333-0.03,0.599,0,0.799
				c0.062,0.401,0.17,0.712,0.326,0.933c0.08,0.521,0.146,0.818,0.198,0.893c0.013,0.082-0.025,0.105-0.111,0.078
				c-0.087-0.027-0.15-0.037-0.188-0.031c-0.075,0.052-0.188,0.253-0.338,0.604c-0.041,0.006-0.089,0.024-0.146,0.053
				c-0.057,0.03-0.105,0.048-0.146,0.054c-0.119,0.019-0.275,0.011-0.465-0.021c-0.188-0.033-0.344-0.039-0.463-0.021
				c-0.1-0.109-0.344-0.234-0.734-0.381c-0.013-0.08-0.064-0.152-0.157-0.222c-0.093-0.067-0.147-0.162-0.166-0.281
				c-0.508-0.373-0.787-0.597-0.84-0.671c-0.1-0.107-0.192-0.318-0.281-0.633c-0.088-0.314-0.16-0.508-0.211-0.582l-0.236-0.334
				c-0.058-0.113-0.112-0.268-0.163-0.466c-0.051-0.197-0.085-0.356-0.104-0.476c-0.309-1.223-0.468-1.855-0.475-1.895
				c-0.006-0.041,0.006-0.104,0.034-0.189c0.026-0.086,0.035-0.169,0.023-0.249c-0.007-0.04-0.042-0.126-0.101-0.261
				c-0.063-0.135-0.101-0.242-0.112-0.322c-0.024-0.16-0.042-0.475-0.052-0.945c-0.01-0.469-0.058-0.84-0.14-1.115l-0.128-0.841
				c-0.013-0.079-0.046-0.228-0.1-0.446c-0.055-0.216-0.092-0.404-0.116-0.564c-0.019-0.121-0.063-0.339-0.132-0.657
				c-0.069-0.315-0.116-0.556-0.141-0.716c-0.012-0.08-0.01-0.203,0.007-0.369c0.014-0.166,0.017-0.289,0.004-0.37
				c-0.006-0.04-0.038-0.106-0.091-0.2c-0.057-0.094-0.088-0.162-0.094-0.201l-0.046-0.301c-0.043-0.279-0.073-0.746-0.091-1.399
				l-0.036-0.24l-0.073-0.481c-0.031-0.199,0.023-0.371,0.167-0.516c-0.007-0.039-0.042-0.065-0.104-0.078
				c-0.063-0.01-0.101-0.055-0.113-0.135c0.056-0.172,0.054-0.387-0.007-0.645c-0.06-0.258-0.078-0.449-0.057-0.575l-0.234-0.333
				c-0.024-0.16-0.066-0.359-0.122-0.596c-0.059-0.237-0.097-0.436-0.121-0.596c-0.03-0.201-0.038-0.506-0.019-0.92
				c-0.019-0.121,0.032-0.189,0.153-0.207c-0.047-0.035-0.1-0.108-0.158-0.223c-0.059-0.113-0.11-0.188-0.156-0.223
				c-0.012-0.079-0.003-0.152,0.028-0.219c0.03-0.066,0.042-0.119,0.036-0.158c-0.012-0.08-0.05-0.197-0.114-0.352
				c-0.064-0.153-0.1-0.251-0.105-0.292c-0.013-0.08-0.008-0.183,0.014-0.31s0.029-0.209,0.022-0.248
				c-0.012-0.08-0.036-0.24-0.073-0.48c-0.036-0.242-0.061-0.4-0.073-0.48c0.01-0.207-0.026-0.643-0.107-1.306
				c-0.08-0.664-0.105-1.161-0.073-1.495c-0.006-0.039,0.025-0.096,0.096-0.168c0.071-0.072,0.104-0.129,0.099-0.168
				c-0.006-0.04-0.016-0.1-0.027-0.181c-0.047-0.034-0.064-0.072-0.049-0.116c0.014-0.041,0.041-0.067,0.08-0.074
				c-0.046-0.032-0.08-0.129-0.105-0.29l-0.041-0.671c-0.105-0.146-0.16-0.24-0.166-0.281c-0.006-0.039,0.005-0.102,0.033-0.189
				c0.027-0.086,0.035-0.168,0.022-0.25l-0.077-0.11c-0.013-0.08-0.021-0.14-0.028-0.181c-0.012-0.079-0.008-0.182,0.015-0.309
				c0.021-0.127,0.028-0.209,0.022-0.25c-0.013-0.078-0.027-0.18-0.046-0.301c-0.019-0.119-0.022-0.211-0.011-0.273
				c0.011-0.064,0.019-0.137,0.028-0.22c0.007-0.083,0.039-0.149,0.093-0.198C90.961,61.845,91.027,61.814,91.108,61.802z
				 M97.646,95.343c0.418,0.06,0.826,0.182,1.224,0.366l0.188,0.032c0.093,0.068,0.238,0.221,0.439,0.455
				c0.199,0.238,0.365,0.387,0.498,0.447c0.019,0.121,0.157,0.366,0.419,0.734l0.22,1.441c0.007,0.039-0.052,0.131-0.173,0.273
				c-0.121,0.141-0.197,0.254-0.225,0.341c-0.123,0.265-0.282,0.433-0.475,0.503c-0.205,0.276-0.318,0.479-0.339,0.604
				c-0.601,0.092-0.992,0.214-1.174,0.364c-0.093-0.068-0.258-0.084-0.499-0.047c-0.16,0.025-0.362-0.027-0.607-0.152
				c-0.244-0.128-0.426-0.182-0.547-0.162c-0.071-0.195-0.253-0.311-0.544-0.348c-0.118-0.229-0.239-0.354-0.364-0.375
				c-0.031-0.201-0.144-0.459-0.335-0.779c-0.192-0.316-0.303-0.577-0.334-0.778c-0.036-0.24-0.021-0.405,0.046-0.499l0.167-0.516
				l-0.009-0.063l-0.019-0.119c-0.007-0.039,0.032-0.127,0.114-0.262c0.08-0.137,0.096-0.24,0.043-0.314
				c0.109-0.098,0.229-0.24,0.366-0.426c0.039-0.006,0.222-0.156,0.546-0.451C96.547,95.533,97.006,95.441,97.646,95.343z"/>
		</g>
	</g>
	<g>
		<g>
			<path fill="#BE1E2D" d="M60.286,34.206c-1.8-6.915-12.878-30.562-21.432-23.677c-5.957,4.795,1.857,15.765-0.121,19.935
				c-1.766,3.719-6.729-1.095-9.398-1.666C19.053,26.598,9.771,59.973,19.124,64.23c6.073,2.768,21.986,0.206,24.401,0.734
				c3.023,0.657,5.242,3.718,8.292,3.962c6.278,0.502,14.921-7.795,17.504-13.469c3.808-8.36-1.905-13.451-8.252-18.188
				L60.286,34.206z"/>
			<path fill="#231F20" d="M52.371,69.698C52.371,69.698,52.371,69.698,52.371,69.698c-0.207,0-0.412-0.008-0.613-0.023
				c-1.825-0.146-3.329-1.155-4.783-2.132c-1.203-0.807-2.34-1.569-3.608-1.846c-0.12-0.025-0.377-0.057-0.929-0.057
				c-1.04,0-2.649,0.109-4.513,0.235c-2.725,0.185-6.117,0.414-9.359,0.414c-4.528,0-7.718-0.45-9.752-1.377
				c-4.914-2.236-4.967-10.859-3.379-18.183c2.024-9.336,7.113-18.787,12.922-18.787c0.379,0,0.761,0.041,1.135,0.121
				c0.924,0.198,2,0.793,3.138,1.424c1.374,0.761,2.931,1.624,4.043,1.624c0.647,0,1.061-0.29,1.383-0.97
				c0.664-1.399-0.066-4.036-0.839-6.827c-1.254-4.529-2.814-10.166,1.167-13.371c1.161-0.935,2.429-1.409,3.768-1.409
				c8.549,0,17.261,19.339,18.859,25.481l0.719,2.811c6.407,4.805,12.234,10.246,8.273,18.941
				C67.479,61.314,59.159,69.698,52.371,69.698z M42.437,64.14c0.566,0,0.963,0.029,1.249,0.092
				c1.547,0.336,2.858,1.215,4.125,2.065c1.354,0.908,2.633,1.767,4.067,1.881c5.935,0.505,14.358-7.753,16.761-13.031
				c3.549-7.793-1.531-12.435-8.018-17.277l-0.212-0.159l-0.849-3.32c-1.628-6.257-10.145-24.355-17.407-24.355
				c-1.002,0-1.927,0.353-2.828,1.078c-3.213,2.586-1.858,7.482-0.662,11.801c0.886,3.202,1.652,5.966,0.749,7.87
				c-0.567,1.195-1.514,1.827-2.738,1.827c-1.5,0-3.163-0.921-4.771-1.812c-1.038-0.575-2.018-1.118-2.724-1.269
				c-0.271-0.058-0.547-0.087-0.822-0.087c-4.962,0-9.606,9.07-11.457,17.604c-1.508,6.952-1.309,14.75,2.535,16.5
				c1.81,0.824,4.881,1.242,9.13,1.242c3.192,0,6.555-0.228,9.258-0.41C39.714,64.25,41.347,64.14,42.437,64.14z"/>
		</g>
		<path fill="#77111A" d="M14.733,32.638c6.22-6.144,11.846-2.09,15.493,2.484c4.37,5.472,13.026,5.324,13.548,0.205
			c1.366-13.447,16.856,1.496,6.991,17.579c-7.634,12.442-17.679,3.902-20.335,3.884C15.614,56.673,8.111,39.175,14.733,32.638z"/>
		<path fill="#77111A" d="M60.512,40.932c0,0-3.302,18.535-11.417,20.602c-8.111,2.072,0.038,4.644,3.902,5.467
			c3.866,0.816,21.252-11.769,11.623-23.579C64.086,42.767,60.512,40.932,60.512,40.932z"/>
		<g>
			<path fill="#231F20" d="M71.132,67.279c-2.922,0-5.949-1.07-8.607-3.193c-0.323-0.259-0.376-0.73-0.118-1.054
				c0.257-0.324,0.73-0.376,1.054-0.118c4.494,3.592,10.14,3.818,14.045,0.565c4.47-3.722,6.758-12.303,0.371-25.461
				c-0.925,0.123-1.845,0.066-2.72-0.188c-6.381-1.846-8.6-4.769-8.55-6.887c0.031-1.309,0.889-2.323,2.239-2.645
				c2.281-0.542,6.083,0.944,9.289,6.928c0.194,0.362,0.382,0.721,0.564,1.078c1.187-0.37,2.372-1.103,3.438-2.16
				c2.338-2.316,3.381-5.488,2.657-8.082c-0.788-2.821-3.528-4.873-7.925-5.931c-0.403-0.097-0.651-0.502-0.554-0.904
				c0.097-0.403,0.507-0.648,0.904-0.554c6.264,1.508,8.362,4.631,9.019,6.986c0.868,3.108-0.328,6.857-3.046,9.55
				c-1.174,1.163-2.486,1.992-3.823,2.452c6.578,13.771,3.97,22.912-0.904,26.97C76.342,66.4,73.78,67.279,71.132,67.279z
				 M69.758,29.696c-0.209,0-0.398,0.022-0.563,0.062c-0.677,0.161-1.073,0.606-1.088,1.221c-0.028,1.199,1.512,3.688,7.467,5.411
				c0.507,0.146,1.035,0.208,1.578,0.188c-0.111-0.213-0.224-0.427-0.339-0.643C74.164,30.99,71.355,29.696,69.758,29.696z"/>
		</g>
		<g>
			<path fill="#BE1E2D" d="M41.108,41.734c0.242-4.472-0.544-8.76-2.375-11.271c-7.996-10.978-22.221-1.943-24.004-0.15
				C6.545,38.529,4.336,65.905,25.523,65.459c2.126-0.047-3.942-5.172,3.553-5.858C33.399,58.979,40.292,56.815,41.108,41.734z"/>
			<path fill="#231F20" d="M25.02,66.342c-0.001,0-0.003,0-0.004,0c-9.361-0.001-13.507-5.253-15.336-9.659
				c-3.782-9.107-0.781-21.761,4.428-26.99c1.196-1.203,7.548-5.456,14.289-5.456c4.571,0,8.288,1.921,11.046,5.708
				c1.883,2.582,2.81,6.896,2.542,11.835c-0.824,15.221-7.69,17.956-12.784,18.689c-1.617,0.149-2.663,0.52-2.99,1.049
				c-0.33,0.532,0.02,1.433,0.3,2.155c0.296,0.765,0.577,1.486,0.163,2.106c-0.165,0.246-0.494,0.542-1.131,0.557
				C25.365,66.341,25.193,66.342,25.02,66.342z M28.396,25.994c-6.099,0-12.004,3.893-13.044,4.938
				c-4.721,4.739-7.519,16.726-4.051,25.078c1.622,3.906,5.312,8.563,13.679,8.576c-0.036-0.095-0.073-0.19-0.106-0.276
				c-0.377-0.972-0.946-2.439-0.156-3.716c0.652-1.053,2.051-1.664,4.278-1.867c4.815-0.694,10.49-3.264,11.236-17.041
				c0.242-4.476-0.583-8.478-2.208-10.706C35.614,27.671,32.375,25.994,28.396,25.994z"/>
		</g>
		<path fill="#BE1E2D" d="M27.732,57.637c0,0-3.405,3.838,2.844,2.777c3.514-0.594,0.289,3.97-0.749,4.315
			c-1.654,0.549-6.969-0.25-6.969-0.25l0.748-9.596L27.732,57.637z"/>
		<g>
			<path fill="#FFFFFF" d="M22.223,29.599c-1.996,0.884-5.701,1.137-4.324,3.652c0.478,0.877,1.481,2.076,1.62,2.989
				c0.176,1.176-1.63,1.229-2.744,1.583c-1.983,0.638-2.086,0.679-0.851,2.212c0.509,0.627,1.988,2.314,1.794,3.097
				c-0.174,0.726-2.215,1.35-3.018,1.728c-1.479,0.697-2.632,0.751-1.057,2.385c1.07,1.104,2.718,1.811,1.219,2.833
				c-0.971,0.659-2.307,0.921-3.485,1.32c-0.695,0.201,1.658,2.512,2.458,3.124c0.945,0.635,2.314,0.854,1.604-0.669
				c-0.688-1.48-1.964-1.39,0.156-2.335c0.916-0.411,2.736-1.227,2.54-2.211c-0.197-0.979-2.793-2.682-2.234-2.936
				c2.058-0.857,4.845-1.903,3.313-4.228c-0.573-0.868-1.393-1.98-0.957-2.328c0.653-0.524,2.076-0.979,2.865-1.421
				c1.381-0.775,1.935-0.896,1.313-2.512c-0.345-0.896-1.066-1.571-1.486-2.508c-0.72-1.633,1.556-1.561,3.002-2.055
				c0.683-0.233,2.223-1.472,0.367-1.956C23.687,29.196,22.769,29.319,22.223,29.599z"/>
			<path fill="#FFFFFF" d="M23.911,33.177c0.215-0.82,2.019-1.007,2.236,0.082c0.269,1.353-2.18,1.45-2.262,0.036L23.911,33.177z"/>
			<path fill="#FFFFFF" d="M21.06,41.524c-0.593-1.431,1.816-1.646,1.992-0.533C23.215,42.028,21.621,42.358,21.06,41.524z"/>
			<path fill="#FFFFFF" d="M18.882,46.932c0.503-1.208,2.509-0.512,2.087,0.663C20.577,48.701,18.48,48.161,18.882,46.932z"/>
			<path fill="#FFFFFF" d="M16.997,52.671c0.414-1.038,2.063-0.594,1.899,0.392C18.693,54.282,16.745,53.759,16.997,52.671z"/>
			<path fill="#FFFFFF" d="M11.132,47.415c1.338-0.718,2.504,1.249,1.341,1.711C11.271,49.608,10.022,48.143,11.132,47.415z"/>
			<path fill="#FFFFFF" d="M13.508,41.042c1.21-0.272,1.666,1.107,1.001,1.441C12.705,43.088,12.677,41.211,13.508,41.042z"/>
			<path fill="#FFFFFF" d="M15.674,35.183c-0.551-0.967,1.062-1.331,1.539-0.545C17.859,35.708,15.845,35.588,15.674,35.183z"/>
		</g>
		<path fill="#77111A" d="M30.224,40.666c0,0-1.419,9.8-6.262,10.813c-4.84,1.013-4.357,5.112-1.215,5.247
			c3.141,0.136,11.817-1.814,12.637-9.438c0.816-7.625,1.428-11.552-1.05-12.214C31.659,34.358,30.781,38.055,30.224,40.666z"/>
	</g>
</g>
</svg>
