<?xml version="1.0" encoding="utf-8"?>
<!-- Generator: Adobe Illustrator 16.0.0, SVG Export Plug-In . SVG Version: 6.00 Build 0)  -->
<!DOCTYPE svg PUBLIC "-//W3C//DTD SVG 1.1//EN" "http://www.w3.org/Graphics/SVG/1.1/DTD/svg11.dtd">
<svg version="1.1" id="Layer_1" xmlns="http://www.w3.org/2000/svg" xmlns:xlink="http://www.w3.org/1999/xlink" x="0px" y="0px"
	 width="132.73px" height="153.344px" viewBox="0 0 132.73 153.344" enable-background="new 0 0 132.73 153.344"
	 xml:space="preserve">
<g>
	<path fill="#FAAF40" d="M23.184,41.971c-0.846,5.813-0.139,11.85,0.363,16.074c0.986-1.977,2.235-4.08,2.428-6.189
		c1.87,0.148,3.137,1.793,4.118,3.086c0.255-3.865,0.031-8.9,1.405-12.516c4.454-0.221,10.575,1.33,13.857,4.643
		c0.479-8.715,1.867-20.064,7.563-26.754c1.092,8.355,4.04,10.891,9.881,16.539C67.954,32.781,83.1,6.59,83.418,0
		c4.046,0.316,11.27,28.492,8.896,33.504c3.423-3.344,5.507-4.412,10.015-6.1c3.237-1.213,9.584-0.441,11.867-2.52
		c-4.354,8.514-3.531,18.371-6.621,26.85c4.38,0.623,9.593-3.26,13.209-4.994c-0.172,9.049,1.01,17.399-1.689,26.327
		c-1.086,3.598-3.856,6.818-5.06,10.309c-1.054,3.053-3.882,7.428-4.16,10.512c3.556,0.238,6.076-1.572,9.55-1.229
		c4.656,0.461,9.74,3.25,10.686,7.688c0.698,3.273-0.142,5.896-1.313,8.738c-1.758,4.26-0.16,5.649,3.498,1.981
		c1.076,6.293,0.422,11.584-4.857,15.188c-5.794,3.957-11.92,0.19-18.385,0.414c0.231,3.688-4.115,9.52-8.031,6.367
		c-3.385,5.356-6.102,11.463-9.228,17.11c-3.657,6.601-13.021,2.004-13.36-4.894c-5.625,4.265-8.304,2.002-11.232,2.002
		c-10.833,7.029-36.644-8.895-29.093-12.403c0.431-2.349-2.902-7.384-3.954-9.3c-2.591-4.723-5.262-3.198-10.172-3.823
		c-8.93-1.14-14.734-5.498-19.602-12.886c-3.716-5.641-6.902-15.118-1.496-20.87c4.084-4.351,10.012,6.586,11.774,8.846
		c-3.922-5.76,3.319-10.133,8.229-9.909c-3.198-1.882-7.438-7.063-9.489-10.076c-2.898-4.262-3.209-7.805-3.209-13.107
		c0-4.82,0.229-9.667,3.022-13.593c1.672-2.355,10.429-8.508,10.365-8.162C23.577,41.971,23.198,41.873,23.184,41.971z"/>
	<g>
		<path fill="#231F20" d="M23.347,58.546c0.29-0.125,0.749-0.218,1.381-0.276c0.63-0.058,1.052-0.117,1.268-0.176
			c0.073-0.065,0.145-0.063,0.212,0.012c0.054,0.031,0.103,0.04,0.146,0.028l0.111-0.099c0.074-0.066,0.159-0.09,0.258-0.071
			c0.305,0.102,0.517,0.112,0.633,0.033c0.013,0.044,0.048,0.092,0.109,0.144c0.06,0.054,0.102,0.123,0.126,0.208
			c0.129-0.036,0.29-0.034,0.486,0.005c0.193,0.038,0.356,0.039,0.485,0.003c0.066,0.075,0.219,0.125,0.457,0.151
			c0.012,0.043,0.071,0.096,0.184,0.158c0.041-0.012,0.137-0.004,0.283,0.025c0.146,0.029,0.24,0.037,0.283,0.025
			c0.298,0.243,0.488,0.351,0.575,0.327c0.492,0.281,0.874,0.407,1.144,0.379c0.221,0.125,0.342,0.229,0.364,0.315l0.13-0.035
			c0.128-0.036,0.281-0.021,0.462,0.046c0.181,0.066,0.313,0.086,0.398,0.063c0.353,0.272,0.574,0.49,0.664,0.648l0.322-0.089
			c0.064,0.075,0.188,0.145,0.368,0.21c0.181,0.067,0.298,0.116,0.353,0.146l0.054,0.193c0.106,0.386,0.327,0.603,0.664,0.648
			l0.053,0.193c0.359,0.133,0.568,0.306,0.629,0.521c0.012,0.043,0.022,0.086,0.034,0.129l-0.026,0.146l0.458,0.913l0.054,0.192
			c0.023,0.087,0.084,0.14,0.182,0.158c0.109,0.063,0.191,0.109,0.246,0.141c-0.042,0.52,0.021,1.079,0.188,1.68
			c0.022,0.087,0.067,0.214,0.138,0.379c0.068,0.166,0.121,0.313,0.156,0.44c0.035,0.129,0.085,0.267,0.146,0.41
			c0.063,0.146,0.144,0.308,0.238,0.489c0.097,0.181,0.156,0.315,0.18,0.401c0.174,0.461,0.348,1.129,0.519,2.005
			c0.174,0.877,0.294,1.443,0.365,1.701c0.117,0.429,0.311,0.793,0.576,1.088c0.036,0.129,0.077,0.324,0.128,0.588
			c0.049,0.264,0.093,0.459,0.128,0.588c0.012,0.044,0.051,0.103,0.116,0.176c0.066,0.075,0.112,0.154,0.137,0.24l0.007,0.276
			c0.012,0.044,0.037,0.094,0.076,0.152c0.039,0.059,0.064,0.11,0.076,0.152c-0.044,0.012-0.059,0.04-0.047,0.083
			c-0.019,0.098,0.012,0.204,0.089,0.321c0.077,0.117,0.124,0.198,0.136,0.24c-0.021,0.099-0.049,0.199-0.09,0.303
			s-0.056,0.178-0.043,0.22c0.331,0.371,0.512,0.599,0.534,0.684c0.035,0.129,0.037,0.222,0.006,0.275
			c0.013,0.043,0.033,0.118,0.063,0.225c0.029,0.108,0.098,0.193,0.209,0.254c0.023,0.088,0.021,0.157-0.012,0.211l0.1,0.111
			c0.024,0.088,0.078,0.117,0.165,0.094c-0.032,0.055-0.035,0.125-0.012,0.211c0.06,0.215,0.073,0.351,0.042,0.404
			c-0.031,0.055-0.04,0.104-0.028,0.146c-0.02,0.099,0.013,0.135,0.101,0.111c0.085-0.023,0.136-0.014,0.146,0.029
			c0.004,0.184,0.042,0.402,0.113,0.661c0.06,0.215,0.144,0.354,0.252,0.415c0.012,0.043-0.009,0.096-0.061,0.154
			c-0.055,0.062-0.072,0.115-0.062,0.156l0.245,0.141l0.089,0.32c0.153,0.56,0.271,0.896,0.35,1.014
			c0.013,0.043,0.027,0.063,0.05,0.056c0.021-0.006,0.037,0.015,0.05,0.056c-0.009,0.141,0.031,0.199,0.119,0.176
			c0.054,0.031,0.064,0.074,0.034,0.129c-0.03,0.056-0.042,0.105-0.029,0.146c0.066,0.075,0.131,0.221,0.189,0.434
			c0.06,0.217,0.144,0.354,0.252,0.416c0.07,0.259,0.141,0.422,0.206,0.496l-0.063,0.02c-0.031,0.055-0.04,0.104-0.028,0.146
			c0.156,0.233,0.676,0.275,1.559,0.123l0.054,0.193c0.086-0.023,0.203-0.1,0.352-0.234c0.249,0.069,0.381,0.127,0.394,0.168
			c0.043-0.012,0.079-0.043,0.11-0.1c0.031-0.054,0.067-0.088,0.11-0.1l1.073,0.121c0.042-0.012,0.101-0.051,0.175-0.118
			c0.172-0.048,0.368-0.009,0.587,0.116c0.422,0.021,0.986,0.307,1.688,0.851c0.055,0.032,0.143,0.099,0.265,0.204
			c0.121,0.105,0.193,0.201,0.219,0.287c0.142,0.516,0.214,0.865,0.218,1.049c0.036,0.129-0.021,0.421-0.173,0.879
			c-0.043,0.012-0.08,0.045-0.111,0.1c-0.03,0.056-0.067,0.088-0.11,0.101l-0.028,0.146c0.012,0.045-0.005,0.071-0.046,0.084
			l-0.41,0.526c-0.043,0.013-0.116,0.08-0.221,0.2c-0.105,0.121-0.181,0.188-0.223,0.199c-0.031,0.057-0.134,0.105-0.306,0.154
			c-0.172,0.047-0.294,0.102-0.368,0.17c-0.233,0.156-0.416,0.254-0.545,0.289c-0.117,0.078-0.288,0.125-0.515,0.143
			c-0.229,0.016-0.377,0.057-0.451,0.125l-0.046,0.082l-0.047,0.082c-0.087,0.023-0.251,0.092-0.497,0.205
			c-0.247,0.115-0.412,0.185-0.498,0.209l-0.192,0.053c-0.056-0.032-0.104-0.042-0.146-0.03l-0.082-0.045l-0.239,0.134
			c-0.129,0.036-0.311,0.051-0.542,0.047c-0.232-0.006-0.371-0.002-0.414,0.01c-0.269,0.027-0.664,0.101-1.186,0.223
			c-0.521,0.12-0.868,0.205-1.038,0.251c-0.646,0.179-1.13,0.265-1.452,0.263c-0.044,0.012-0.12-0.013-0.23-0.076l-0.237,0.135
			c-0.088,0.023-0.226,0.027-0.414,0.011c-0.189-0.019-0.327-0.015-0.413,0.009c-0.031,0.057-0.052,0.063-0.063,0.018l-0.083-0.045
			l-0.063,0.019c-0.087,0.022-0.123,0.058-0.111,0.099c-0.109-0.062-0.276-0.084-0.504-0.068c-0.227,0.018-0.367,0.01-0.422-0.021
			c-0.044,0.012-0.096-0.008-0.155-0.063c-0.062-0.051-0.112-0.071-0.154-0.059c-0.131,0.034-0.223,0.037-0.275,0.004l-0.945-0.154
			c-0.279-0.016-0.449-0.037-0.503-0.069l-0.082-0.047l-0.129,0.036c-0.043,0.012-0.131-0.01-0.261-0.066
			c-0.131-0.057-0.261-0.066-0.39-0.031c-0.013-0.043-0.158-0.072-0.439-0.086c-0.067-0.074-0.19-0.146-0.369-0.211
			c-0.181-0.066-0.298-0.113-0.353-0.146c-0.092-0.159-0.263-0.32-0.516-0.481c-0.252-0.162-0.412-0.277-0.478-0.354
			c-0.056-0.03-0.132-0.137-0.228-0.318c-0.097-0.184-0.198-0.304-0.309-0.365c-0.036-0.131-0.121-0.313-0.256-0.555
			c-0.137-0.238-0.222-0.423-0.256-0.552c-0.146-0.19-0.296-0.565-0.449-1.124c-0.012-0.042-0.045-0.08-0.101-0.111
			c-0.055-0.029-0.089-0.068-0.101-0.111c-0.06-0.215-0.066-0.328-0.023-0.34c-0.109-0.062-0.204-0.195-0.284-0.406
			c-0.082-0.209-0.17-0.322-0.269-0.342l-0.036-0.129c-0.034-0.129-0.132-0.354-0.291-0.682c-0.158-0.326-0.262-0.575-0.309-0.747
			c-0.083-0.3-0.101-0.526-0.05-0.679l-0.229-0.075c-0.023-0.086-0.037-0.175-0.039-0.267s-0.014-0.181-0.038-0.267l-0.018-0.065
			c-0.056-0.029-0.089-0.067-0.101-0.11c-0.013-0.041-0.009-0.112,0.012-0.211l0.046-0.082c-0.012-0.043-0.039-0.06-0.081-0.048
			c-0.044,0.013-0.071-0.002-0.083-0.045l-0.112-0.662l-0.137-0.24l-0.053-0.191c-0.143-0.517-0.273-0.826-0.396-0.933
			c-0.022-0.085-0.005-0.183,0.06-0.292c-0.013-0.042-0.054-0.066-0.123-0.07c-0.071-0.004-0.091-0.033-0.061-0.088
			c-0.022-0.086-0.063-0.271-0.117-0.557c-0.057-0.284-0.103-0.491-0.138-0.62c-0.071-0.259-0.141-0.423-0.206-0.498
			c-0.103-0.202-0.212-0.519-0.331-0.948c-0.012-0.042-0.048-0.091-0.106-0.144c-0.063-0.052-0.099-0.099-0.109-0.142l-0.054-0.193
			c-0.023-0.086-0.098-0.227-0.22-0.424c-0.125-0.197-0.203-0.36-0.238-0.488c-0.012-0.043-0.019-0.1-0.015-0.17
			c0.006-0.071,0-0.127-0.012-0.17c-0.108-0.062-0.178-0.182-0.203-0.36c-0.025-0.178-0.002-0.3,0.073-0.366l-0.018-0.063
			c-0.087,0.023-0.142-0.008-0.165-0.094c-0.06-0.215-0.168-0.566-0.325-1.055c-0.157-0.486-0.271-0.86-0.343-1.118l-0.267-0.966
			c-0.13-0.472-0.177-0.805-0.139-1.001c-0.012-0.043-0.032-0.118-0.063-0.226c-0.028-0.106-0.093-0.171-0.189-0.19
			c0.007-0.139-0.053-0.354-0.178-0.644c-0.125-0.288-0.158-0.487-0.096-0.597c-0.109-0.062-0.197-0.13-0.265-0.206
			c-0.012-0.042-0.035-0.129-0.07-0.257c-0.035-0.129-0.039-0.22-0.007-0.275c-0.213-0.264-0.382-0.633-0.513-1.106L23.393,64.5
			c-0.012-0.043,0.012-0.083,0.07-0.125c0.059-0.038,0.082-0.079,0.069-0.123c-0.023-0.085-0.092-0.158-0.2-0.221
			c0.028-0.562,0.016-0.95-0.043-1.166c-0.071-0.258-0.194-0.454-0.371-0.591c-0.013-0.042-0.018-0.099-0.013-0.17
			c0.004-0.069,0-0.126-0.013-0.169c-0.134-0.148-0.218-0.287-0.254-0.416c-0.012-0.043-0.023-0.132-0.038-0.266
			c-0.015-0.134-0.032-0.245-0.056-0.331c-0.012-0.042-0.039-0.093-0.077-0.152c-0.04-0.058-0.065-0.109-0.077-0.152
			c0.083-0.207,0.101-0.397,0.052-0.569c0.081-0.206,0.236-0.48,0.468-0.822C23.139,58.881,23.286,58.657,23.347,58.546z"/>
		<path fill="#231F20" d="M43.879,53.098l0.387-0.107l0.439,0.086c0.428-0.118,0.672-0.161,0.727-0.13
			c0.072-0.066,0.218-0.131,0.432-0.189c0.13-0.036,0.367-0.054,0.714-0.058c0.346-0.002,0.604-0.027,0.774-0.074
			c0.152,0.05,0.387,0.101,0.701,0.152c0.313,0.053,0.559,0.101,0.732,0.146s0.364,0.153,0.574,0.327s0.371,0.383,0.485,0.628
			c0.066,0.074,0.176,0.136,0.328,0.187c0.152,0.052,0.256,0.091,0.312,0.122c0.055,0.032,0.112,0.119,0.178,0.263
			c0.062,0.146,0.1,0.239,0.11,0.281c0.014,0.044,0.045,0.081,0.101,0.111l0.101,0.111l0.106,0.387
			c0.012,0.043,0.092,0.125,0.24,0.246c0.147,0.121,0.234,0.225,0.259,0.31c0.022,0.087,0.063,0.19,0.121,0.313
			c0.056,0.123,0.116,0.222,0.185,0.295c0.024,0.086,0.075,0.187,0.153,0.303c0.078,0.117,0.124,0.198,0.136,0.24l0.053,0.193
			c0.024,0.087,0.045,0.208,0.066,0.363c0.019,0.157,0.035,0.256,0.047,0.299s0.072,0.096,0.183,0.157
			c0.023,0.087,0.089,0.242,0.197,0.466c0.107,0.225,0.179,0.401,0.214,0.529c0.169,0.277,0.256,0.507,0.261,0.691
			c0.024,0.087,0.052,0.228,0.083,0.427c0.031,0.201,0.064,0.364,0.101,0.493l0.071,0.258c0.228,0.491,0.371,0.844,0.431,1.059
			c0.071,0.257,0.082,0.463,0.031,0.615c0.012,0.043,0.051,0.103,0.117,0.175c0.066,0.075,0.11,0.154,0.136,0.24
			c0.012,0.043,0.016,0.1,0.013,0.169c-0.006,0.072,0.001,0.128,0.012,0.17l0.101,0.111c0.012,0.044,0.022,0.087,0.035,0.129
			l0.018,0.064c-0.03,0.055-0.039,0.104-0.027,0.146c0.013,0.043,0.047,0.138,0.111,0.281c0.063,0.145,0.104,0.26,0.129,0.346
			l0.103,0.111c0.063,0.075,0.104,0.133,0.115,0.175c0.024,0.087,0.037,0.222,0.044,0.405c-0.063,0.109-0.082,0.207-0.059,0.292
			c0.012,0.043,0.051,0.148,0.121,0.313c0.067,0.167,0.114,0.293,0.138,0.379c-0.02,0.097-0.021,0.168-0.011,0.21
			c0.013,0.044,0.042,0.151,0.089,0.322c0.048,0.172,0.027,0.27-0.058,0.292c0.188,0.18,0.305,0.356,0.352,0.527
			c0.013,0.043,0.028,0.144,0.049,0.299c0.02,0.157,0.042,0.277,0.065,0.363c-0.063,0.11-0.081,0.208-0.059,0.293
			c0.232,1.182,0.318,1.829,0.257,1.937c0.235,0.352,0.419,0.763,0.549,1.235c0.095,0.345,0.123,0.613,0.084,0.809
			c0.181,0.321,0.301,0.588,0.358,0.802c0.061,0.216,0.059,0.377-0.005,0.486c0.066,0.074,0.146,0.237,0.238,0.488
			c0.093,0.252,0.151,0.422,0.175,0.507l-0.14,0.247c0.064,0.076,0.124,0.198,0.171,0.368c0.047,0.173,0.084,0.394,0.112,0.663
			c0.026,0.27,0.06,0.468,0.096,0.598l0.071,0.258c-0.07,0.25-0.121,0.403-0.152,0.457c0.107,0.386,0.145,0.606,0.113,0.661
			l0.105,0.387c0.131,0.475,0.159,0.996,0.087,1.57l0.365,1.076c0.166,0.603,0.095,1.015-0.213,1.238
			c0.054,0.031,0.094,0.09,0.117,0.174c0.022,0.086,0.011,0.207-0.04,0.358c-0.052,0.151-0.063,0.271-0.04,0.356
			c-0.063,0.109-0.205,0.346-0.43,0.707c-0.224,0.363-0.431,0.615-0.621,0.761l-0.239,0.135c-0.433,0.442-0.692,0.677-0.778,0.7
			c-1.073,0.295-1.794,0.449-2.16,0.456c-0.043,0.012-0.162,0-0.356-0.04c-0.196-0.039-0.343-0.066-0.439-0.088
			c-0.043,0.013-0.175-0.043-0.394-0.168c-0.638,0.037-1.144-0.125-1.521-0.482c-0.226,0.018-0.468-0.066-0.726-0.25
			c-0.26-0.182-0.416-0.288-0.471-0.32c-0.091-0.158-0.264-0.365-0.518-0.619c-0.255-0.252-0.428-0.459-0.518-0.621
			c-0.066-0.073-0.131-0.182-0.192-0.326c-0.064-0.146-0.105-0.26-0.131-0.348c-0.157-0.232-0.253-0.414-0.288-0.543l-0.213-0.772
			c-0.036-0.129-0.153-0.386-0.351-0.769c-0.199-0.385-0.361-0.721-0.486-1.01c-0.125-0.287-0.272-0.732-0.438-1.335
			c-0.091-0.159-0.182-0.411-0.276-0.756c-0.07-0.258-0.076-0.439-0.014-0.55c-0.109-0.063-0.199-0.223-0.271-0.48
			c-0.023-0.085-0.051-0.263-0.079-0.533c-0.027-0.269-0.059-0.468-0.094-0.597l-0.124-0.451c-0.106-0.386-0.113-0.661-0.021-0.826
			c-0.012-0.042-0.057-0.077-0.134-0.102c-0.075-0.025-0.125-0.08-0.147-0.167c-0.023-0.085-0.038-0.174-0.039-0.266
			c-0.003-0.092-0.016-0.18-0.038-0.267l-0.268-0.966c-0.178-0.645-0.271-1.149-0.278-1.517c-0.067-0.073-0.129-0.218-0.188-0.434
			c-0.047-0.171-0.077-0.439-0.085-0.808c-0.009-0.367-0.024-0.593-0.049-0.679l-0.035-0.13c-0.066-0.073-0.104-0.132-0.116-0.175
			l0.027-0.146c-0.012-0.043-0.023-0.086-0.035-0.129c-0.047-0.171-0.124-0.45-0.229-0.837c-0.107-0.387-0.162-0.671-0.166-0.855
			c-0.08-0.624-0.161-1.086-0.244-1.388c-0.013-0.041,0.013-0.118,0.075-0.229c-0.023-0.085-0.063-0.144-0.117-0.175
			c-0.056-0.031-0.095-0.088-0.118-0.175l-0.215-1.534l-0.019-0.065l-0.1-0.111c-0.035-0.128-0.038-0.301-0.004-0.518
			c0.032-0.217,0.037-0.368,0.014-0.455c-0.036-0.129-0.093-0.378-0.172-0.75c-0.08-0.37-0.115-0.627-0.107-0.768l0.104-0.375
			c-0.092-0.667-0.07-1.088,0.065-1.264c-0.012-0.043-0.046-0.08-0.1-0.112c-0.055-0.029-0.095-0.088-0.118-0.175
			c0.017-0.28,0.012-0.464-0.014-0.551l-0.213-0.772c-0.023-0.086-0.021-0.247,0.005-0.487c0.027-0.237,0.028-0.399,0.005-0.485
			c-0.082-0.3-0.238-0.697-0.466-1.188c0.063-0.109,0.085-0.276,0.069-0.504c-0.019-0.227-0.01-0.366,0.021-0.421
			C42.498,53.617,43.064,53.322,43.879,53.098z"/>
	</g>
	<g>
		<path fill="#231F20" d="M72.965,47.174l0.609,0.009c0.118,0.014,0.335,0.078,0.646,0.194c0.311,0.117,0.566,0.187,0.766,0.209
			l0.302,0.034c0.631,0.153,1.829,0.512,3.591,1.077c0.034,0.045,0.14,0.107,0.313,0.188c0.176,0.08,0.272,0.183,0.301,0.307
			l0.36,0.041c0.07,0.09,0.341,0.293,0.813,0.61c0.471,0.317,0.768,0.645,0.894,0.983l-0.014,0.12
			c-0.009,0.081-0.032,0.179-0.065,0.298c-0.035,0.117-0.052,0.197-0.057,0.236c-0.014,0.12-0.003,0.203,0.033,0.246
			c-0.045,0.037-0.157,0.115-0.331,0.237c-0.18,0.122-0.329,0.216-0.46,0.282l-0.119-0.014c-0.08-0.009-0.184-0.01-0.304-0.004
			c-0.123,0.007-0.204,0.007-0.243,0.003c-0.039-0.005-0.097-0.051-0.167-0.141c-0.086,0.031-0.209,0.047-0.371,0.049
			c-0.162,0.003-0.284-0.002-0.364-0.011c-0.039-0.005-0.168,0.042-0.381,0.139c-0.215,0.099-0.379,0.14-0.5,0.126l-0.119-0.014
			c-0.283-0.032-0.466-0.032-0.55-0.001c-0.325,0.004-0.602,0.114-0.827,0.332c-0.531,0.021-1.086,0.08-1.664,0.176
			c-0.041-0.004-0.124,0.026-0.254,0.093c-0.131,0.067-0.232,0.096-0.314,0.086l-0.237-0.026c-0.135,0.106-0.244,0.175-0.328,0.206
			c-0.041-0.005-0.173-0.01-0.396-0.015c-0.223-0.004-0.377,0.009-0.461,0.039l-0.133,0.106c-0.135,0.106-0.241,0.155-0.321,0.146
			c-0.091,0.072-0.14,0.147-0.147,0.228c-0.281-0.032-0.545,0.06-0.791,0.274c-0.248,0.216-0.435,0.337-0.558,0.362
			c-0.047,0.036-0.051,0.077-0.015,0.121l-0.014,0.12c-0.125,0.026-0.27,0.121-0.428,0.286c-0.163,0.163-0.285,0.262-0.37,0.292
			l-0.041,0.361c-0.089,0.071-0.21,0.229-0.358,0.476c-0.147,0.248-0.309,0.401-0.478,0.464c-0.322,0.693-0.55,1.256-0.68,1.688
			c-0.041-0.005-0.084,0.021-0.131,0.076c-0.048,0.055-0.111,0.1-0.197,0.129l-0.089,0.781c-0.004,0.041-0.063,0.114-0.178,0.224
			c-0.113,0.108-0.176,0.224-0.188,0.344c-0.125,0.026-0.238,0.136-0.343,0.326c-0.104,0.191-0.197,0.303-0.279,0.333
			c0.131,0.258,0.091,0.437-0.122,0.533c0.062,0.17,0.087,0.295,0.078,0.375c-0.011,0.081-0.046,0.198-0.101,0.354
			c-0.06,0.156-0.093,0.273-0.102,0.354c0.218,0.228,0.673,0.401,1.369,0.521c0.695,0.12,1.142,0.212,1.34,0.274
			c0.078,0.009,0.121-0.007,0.126-0.047c0.085-0.03,0.146-0.045,0.188-0.04c-0.009,0.081,0.064,0.13,0.228,0.148
			c0.278,0.031,0.892,0.091,1.835,0.178c0.941,0.087,1.694,0.142,2.263,0.165c1.336,0.03,2.159,0.084,2.477,0.16
			c0.08,0.009,0.199,0.043,0.354,0.101c0.155,0.059,0.272,0.092,0.353,0.101c0.121,0.014,0.352,0.051,0.688,0.109
			c0.337,0.06,0.586,0.118,0.739,0.176c0.234,0.067,0.485,0.197,0.749,0.389c0.293,0.276,0.516,0.444,0.671,0.502
			c0.307,0.521,0.477,0.806,0.513,0.85c0.039,0.734,0.055,1.142,0.046,1.222c-0.032,0.28-0.14,0.492-0.314,0.634
			c-0.011,0.08-0.02,0.231-0.024,0.454s-0.013,0.394-0.026,0.514c-0.009,0.081-0.072,0.276-0.188,0.587
			c-0.005,0.041-0.006,0.143-0.005,0.305c0.001,0.162-0.001,0.283-0.01,0.363l-0.021,0.181c-0.009,0.08-0.063,0.196-0.162,0.347
			c-0.041,0.36-0.087,0.578-0.135,0.653c0.094,0.254,0.136,0.422,0.127,0.502c-0.01,0.08-0.038,0.138-0.081,0.173
			c-0.051,0.076-0.038,0.139,0.04,0.188l0.119,0.014c-0.109,0.23-0.163,0.367-0.167,0.406c0.073,0.05,0.082,0.335,0.022,0.855
			c-0.005,0.04,0.03,0.085,0.107,0.134c0.073,0.05,0.107,0.114,0.099,0.193c-0.099,0.151-0.15,0.268-0.16,0.347
			c-0.009,0.081-0.012,0.172-0.001,0.273c0.009,0.103,0.024,0.217,0.053,0.341c0.024,0.125,0.034,0.228,0.023,0.308
			c-0.009,0.08-0.032,0.209-0.072,0.387c-0.042,0.179-0.064,0.308-0.074,0.388l0.032,0.247c-0.006,0.04-0.03,0.087-0.076,0.144
			c-0.048,0.056-0.071,0.104-0.075,0.144c0.06,0.169,0.085,0.293,0.076,0.373c-0.005,0.041-0.031,0.099-0.079,0.174l-0.007,0.061
			c-0.011,0.08-0.011,0.15,0.005,0.213c0.013,0.063,0.017,0.115,0.013,0.154l-0.075,0.66c-0.136,0.146-0.193,0.303-0.172,0.468
			c-0.292,0.413-0.439,0.659-0.45,0.739c-0.004,0.039,0.011,0.093,0.044,0.156c0.03,0.064,0.047,0.117,0.041,0.157
			c-0.004,0.04-0.059,0.156-0.159,0.347c0.068,0.09,0.102,0.174,0.092,0.254c-0.009,0.08-0.053,0.187-0.127,0.32
			c-0.076,0.133-0.1,0.241-0.067,0.327c-0.059,0.153-0.195,0.281-0.408,0.38c-0.005,0.039,0.01,0.092,0.043,0.156
			c0.032,0.064,0.026,0.113-0.017,0.15c-0.005,0.039-0.111,0.179-0.321,0.42c-0.211,0.238-0.347,0.457-0.41,0.652
			c-0.59,0.543-1.146,0.803-1.67,0.784c-0.004,0.039-0.04,0.076-0.104,0.108C76.229,83,76.146,83.032,76.04,83.06
			c-0.104,0.028-0.182,0.062-0.224,0.097c-0.041-0.005-0.104,0.028-0.194,0.1c-0.089,0.072-0.152,0.104-0.193,0.101
			s-0.08-0.009-0.121-0.015c-0.08-0.008-0.141,0.005-0.187,0.039c-0.123,0.027-0.348,0.021-0.667-0.014
			c-0.201-0.023-0.358-0.063-0.475-0.115c-0.617-0.272-0.978-0.496-1.081-0.67l-0.449-0.842c-0.073-0.091-0.173-0.193-0.303-0.31
			c-0.127-0.116-0.228-0.22-0.299-0.308c-0.062-0.17-0.113-0.43-0.155-0.779c-0.041-0.35-0.061-0.545-0.056-0.584
			c-0.03-0.086-0.074-0.221-0.136-0.41c-0.061-0.188-0.1-0.387-0.113-0.592c0.01-0.08,0.013-0.211,0.014-0.395
			c-0.001-0.183,0.009-0.332,0.021-0.453c0.009-0.08,0.103-0.363,0.276-0.852c0.179-0.486,0.266-0.892,0.262-1.218
			c-0.414,0.075-0.794,0.194-1.137,0.358l-0.119-0.014c-0.08-0.01-0.218,0.026-0.408,0.105c-0.19,0.08-0.347,0.112-0.466,0.099
			l-0.242-0.027c-0.583,0.138-0.963,0.257-1.135,0.358l-0.121-0.014c-0.119-0.014-0.357,0.011-0.706,0.071
			c-0.354,0.063-0.629,0.081-0.83,0.059c-0.32-0.036-0.755-0.126-1.307-0.271l-0.161-0.2c-0.082-0.01-0.142,0.005-0.188,0.039
			c-0.046,0.036-0.105,0.029-0.182-0.021l-0.238-0.027c-0.24-0.027-0.396-0.105-0.46-0.234c-0.812-0.011-1.512-0.272-2.103-0.787
			l-0.181-0.02c-0.039-0.005-0.309-0.137-0.808-0.396c-0.115-0.053-0.29-0.134-0.52-0.241c-0.23-0.107-0.403-0.208-0.514-0.302
			l-0.267-0.335c-0.304-0.196-0.485-0.359-0.553-0.488c-0.087,0.031-0.167,0.022-0.239-0.027c-0.1-0.214-0.266-0.354-0.502-0.422
			c-0.604-0.758-0.953-1.243-1.053-1.458c-0.036-0.045-0.142-0.178-0.319-0.401c-0.178-0.224-0.34-0.384-0.491-0.482
			c-0.027-0.124-0.091-0.264-0.196-0.418c-0.104-0.153-0.173-0.271-0.202-0.357c0.004-0.039-0.013-0.153-0.053-0.341
			s-0.096-0.324-0.166-0.414c0.045-0.034,0.069-0.073,0.074-0.113c0.004-0.04-0.025-0.145-0.087-0.314
			c-0.063-0.168-0.106-0.315-0.132-0.441l0.02-0.18l-0.139-0.381c-0.133-0.258-0.189-0.467-0.172-0.628
			c0.01-0.08,0.038-0.157,0.088-0.233c-0.136-0.258-0.185-0.893-0.149-1.903c0.014-0.12,0.081-0.174,0.2-0.16
			c0.004-0.039-0.03-0.084-0.105-0.133c-0.077-0.05-0.111-0.094-0.106-0.135c0.05-0.439,0.121-0.716,0.217-0.827
			c-0.055-0.249-0.074-0.434-0.061-0.554c0.014-0.121,0.054-0.298,0.122-0.534c0.065-0.236,0.107-0.414,0.121-0.534
			c0.006-0.039,0.052-0.095,0.141-0.166l0.144-1.262c0.01-0.08,0.05-0.177,0.124-0.29c0.074-0.113,0.116-0.21,0.126-0.29
			c0.05-0.44,0.139-0.674,0.263-0.701c-0.078-0.048-0.075-0.14-0.001-0.273c0.075-0.133,0.117-0.22,0.121-0.26
			c0.063-0.195,0.111-0.453,0.147-0.774c0.037-0.32,0.063-0.561,0.082-0.721l0.214-0.28c0.055-0.115,0.097-0.313,0.129-0.594
			c0.031-0.28,0.074-0.479,0.129-0.595c0.045-0.034,0.117-0.128,0.214-0.279l0.021-0.181c0.021-0.199,0.212-0.441,0.571-0.726
			l0.021-0.181c0.014-0.12,0.068-0.256,0.166-0.406c0.1-0.15,0.153-0.267,0.162-0.348l0.014-0.12c0.091-0.07,0.231-0.256,0.429-0.56
			c0.195-0.302,0.398-0.481,0.608-0.539c-0.032-0.085-0.021-0.164,0.027-0.24c0.048-0.075,0.076-0.133,0.081-0.174l0.268-0.213
			c0.162-0.347,0.353-0.608,0.574-0.787c0.072-0.274,0.288-0.555,0.646-0.839c0.354-0.283,0.561-0.484,0.614-0.6l0.787-0.52
			l0.73-0.525l0.237,0.027c0.731-0.362,1.239-0.528,1.52-0.496c0.552-0.222,1.431-0.456,2.636-0.705
			c1.205-0.248,1.996-0.433,2.376-0.553l0.166,0.142c0.254-0.093,0.542-0.122,0.86-0.085l0.182,0.021
			c0.089-0.071,0.28-0.069,0.576,0.005c0.297,0.074,0.488,0.076,0.578,0.005C72.748,47.129,72.846,47.161,72.965,47.174z
			 M72.563,67.878c-0.126,0.027-0.308,0.026-0.548-0.001c-0.242-0.027-0.422-0.048-0.543-0.062c-0.569,0.017-1.425-0.029-2.567-0.14
			c-1.144-0.109-1.756-0.169-1.836-0.179c-0.12-0.014-0.258-0.06-0.41-0.138c-0.153-0.078-0.271-0.122-0.353-0.131
			c-0.604-0.027-0.955,0.379-1.051,1.22c-0.011,0.445,0.032,0.795,0.127,1.048l0.116,0.562l0.319,0.401l0.093,0.254
			c0.033,0.045,0.102,0.185,0.196,0.418c0.096,0.233,0.181,0.376,0.257,0.425l0.174,0.08c0.121,0.014,0.217,0.046,0.292,0.094
			l0.151,0.262c0.071,0.089,0.248,0.149,0.529,0.182c0.32,0.036,0.606,0.008,0.86-0.085c0.08,0.009,0.151-0.003,0.218-0.036
			c0.065-0.033,0.132-0.077,0.196-0.13c0.064-0.053,0.122-0.098,0.168-0.133c0.033,0.044,0.072,0.069,0.113,0.073
			c0.178-0.142,0.305-0.188,0.383-0.14c0.046-0.074,0.184-0.201,0.404-0.38c0.26-0.132,0.449-0.192,0.57-0.179
			c0.092-0.11,0.518-0.468,1.276-1.071c0.049-0.075,0.229-0.237,0.542-0.486l0.579-0.299c0.006-0.04,0.188-0.201,0.545-0.486
			c-0.031-0.084-0.066-0.229-0.104-0.438c-0.036-0.207-0.095-0.335-0.17-0.385C73.059,67.957,72.883,67.915,72.563,67.878z"/>
	</g>
	<g>
		<path fill="#231F20" d="M123.323,65.504c0.118,0.061,0.626,0.392,1.519,0.993c0.039,0.02,0.124,0.075,0.254,0.165
			c0.128,0.091,0.231,0.155,0.313,0.196l0.03,0.09l0.06,0.029c0.276,0.141,0.417,0.262,0.417,0.36
			c1.528,0.825,2.88,1.757,4.05,2.798c-0.021,0.04-0.012,0.12,0.028,0.24l0.027,0.238l0.358,0.182
			c0.077,0.238,0.097,0.398,0.058,0.478c0.119,0.061,0.213,0.171,0.281,0.33c0.07,0.16,0.143,0.259,0.224,0.3
			c-0.04,0.08-0.052,0.198-0.03,0.358c0.018,0.159,0.007,0.278-0.033,0.357l-0.627,0.207c-0.12,0.039-0.512,0.216-1.168,0.532
			c-0.757,0.017-1.275,0.004-1.555-0.037l-0.179-0.091c-0.396-0.201-0.785-0.272-1.164-0.215c-0.396-0.201-1.191-0.503-2.386-0.907
			c-0.062,0.02-0.149,0.024-0.269,0.014c-0.12-0.011-0.211-0.006-0.27,0.014c-0.243,0.775-0.375,1.184-0.395,1.223
			c-0.142,0.278-0.291,0.428-0.45,0.446c-0.04,0.079-0.071,0.188-0.091,0.328c-0.022,0.139-0.041,0.229-0.063,0.269
			c-0.021,0.04-0.095,0.114-0.226,0.223c-0.13,0.109-0.226,0.224-0.285,0.343c-0.08,0.159-0.183,0.507-0.303,1.044
			c-0.021,0.04-0.063,0.069-0.12,0.089l-0.062,0.119c-0.04,0.08-0.086,0.218-0.137,0.418c-0.051,0.198-0.096,0.338-0.136,0.417
			c-0.021,0.04-0.092,0.104-0.21,0.193c-0.121,0.09-0.19,0.154-0.21,0.193c-0.021,0.04-0.048,0.115-0.076,0.225
			c-0.03,0.109-0.065,0.203-0.105,0.282c-0.102,0.199-0.332,0.457-0.69,0.772l-0.002,0.449c-0.101,0.099-0.263,0.342-0.48,0.729
			c-0.223,0.389-0.432,0.631-0.633,0.729l-0.211,0.416c-0.102,0.201-0.235,0.442-0.406,0.73c-0.171,0.287-0.296,0.514-0.376,0.671
			c-0.141,0.278-0.233,0.507-0.271,0.687c-0.021,0.039,0,0.148,0.058,0.328c-0.001,0.101-0.03,0.16-0.091,0.178l-0.148,0.15
			c0.019,0.26-0.021,0.487-0.123,0.687c-0.161,0.317-0.36,0.565-0.602,0.743c-0.081,0.26-0.161,0.418-0.24,0.478
			c0.059,0.08,0.018,0.261-0.122,0.537c-0.021,0.04-0.051,0.101-0.091,0.181l-0.001,0.147c-0.04,0.08-0.142,0.18-0.301,0.297v0.149
			c-0.04,0.08-0.07,0.141-0.092,0.18c-0.04,0.08-0.104,0.158-0.194,0.236c-0.091,0.08-0.146,0.141-0.164,0.181
			c-0.002,0.101,0.021,0.198,0.072,0.299c0.049,0.099,0.063,0.17,0.044,0.209c-0.102,0.099-0.182,0.259-0.241,0.478
			c-0.063,0.219-0.132,0.356-0.211,0.418c-0.08,0.059-0.189,0.127-0.33,0.207c-0.141,0.078-0.219,0.139-0.239,0.178
			c-0.021,0.041-0.026,0.1-0.017,0.18c0.01,0.079,0.005,0.141-0.016,0.18l-0.15,0.299c-0.142,0.277-0.353,0.545-0.631,0.804
			c-0.003,0.397-0.073,0.735-0.215,1.015l-0.181,0.209c0.021,0.059-0.102,0.348-0.362,0.863c-0.06,0.119-0.102,0.299-0.122,0.537
			s-0.062,0.419-0.121,0.537c-0.081,0.16-0.21,0.268-0.391,0.326c-0.061,0.021-0.175,0.023-0.344,0.014
			c-0.17-0.012-0.305,0.033-0.403,0.133c-0.04-0.02-0.165-0.046-0.374-0.076c-0.209-0.029-0.372-0.076-0.492-0.137
			c-0.119,0.04-0.786,0.025-2.001-0.04l-1.281-0.424c-0.04-0.021-0.096-0.035-0.164-0.045c-0.071-0.011-0.125-0.026-0.165-0.046
			c-0.08-0.041-0.219-0.137-0.416-0.286c-0.198-0.149-0.357-0.257-0.479-0.315l-0.268-0.062c-0.416-0.36-0.665-0.562-0.744-0.603
			l-0.119-0.061c-0.118-0.357-0.236-0.617-0.354-0.777c-0.021-0.061-0.06-0.255-0.116-0.584c-0.059-0.328-0.147-0.572-0.266-0.732
			c0.061-0.118,0.069-0.237,0.03-0.357c-0.313-0.957-0.33-1.714-0.048-2.271c0.1-0.197,0.14-0.328,0.12-0.387
			c-0.021-0.061,0-0.101,0.061-0.121l0.092-0.027c-0.061-0.18-0.04-0.368,0.062-0.568l0.331-0.654
			c0.021-0.039,0.062-0.068,0.121-0.088c0.059-0.021,0.099-0.051,0.119-0.091c0.02-0.039,0.021-0.114,0.002-0.224
			c-0.021-0.109-0.021-0.186,0.001-0.225c1.145-2.066,1.847-3.259,2.107-3.576c0.039-0.078,0.107-0.119,0.208-0.117
			c0.021-0.039,0.04-0.055,0.063-0.045c0.019,0.011,0.039-0.004,0.06-0.045c-0.078-0.139,0-0.248,0.24-0.326l-0.12-0.061
			c-0.08-0.041-0.107-0.08-0.088-0.121l0.663-1.162c0.021-0.039,0.069-0.063,0.149-0.072c0.079-0.01,0.129-0.034,0.148-0.074
			c0.021-0.039,0.021-0.09,0.001-0.148c-0.021-0.061-0.021-0.109,0-0.15c0.021-0.038,0.176-0.322,0.47-0.848
			c0.288-0.527,0.524-0.869,0.705-1.027c0.021-0.039,0.021-0.09,0.001-0.15l0.061-0.119c0.22-0.337,0.521-0.883,0.904-1.639
			l1.538-3.039c0.061-0.12,0.175-0.273,0.345-0.462c0.171-0.188,0.286-0.343,0.347-0.462c0.078-0.059,0.204-0.207,0.375-0.445
			c0.17-0.238,0.325-0.347,0.465-0.327c0.08-0.358,0.143-0.576,0.183-0.656c0.041-0.079,0.181-0.233,0.42-0.462
			c0.24-0.227,0.41-0.391,0.511-0.489c0.101-0.1,0.21-0.243,0.33-0.432c0.121-0.188,0.23-0.333,0.331-0.432
			c0.479-0.356,0.739-0.573,0.779-0.654c-0.139-0.22-0.477-0.515-1.011-0.886c-0.537-0.371-0.864-0.686-0.981-0.945l-0.18-0.091
			c-0.237-0.12-0.378-0.24-0.416-0.36c-0.396-0.201-0.557-0.381-0.477-0.539l-0.357-0.182c-0.078-0.14-0.276-0.39-0.593-0.749
			c-0.317-0.36-0.524-0.641-0.624-0.84l0.062-0.12c0.06-0.118,0.148-0.248,0.271-0.387c0.119-0.139,0.19-0.227,0.211-0.268
			l1.494-0.291c0.079,0.039,0.225,0.051,0.435,0.031c0.208-0.019,0.393,0.012,0.553,0.093c0.039,0.02,0.058,0.055,0.059,0.104
			c-0.001,0.05,0.038,0.094,0.118,0.135c1.015,0.265,1.601,0.436,1.761,0.516l0.179,0.091c0.538-0.076,1.125,0.046,1.762,0.367
			c0.16-0.019,0.378,0.041,0.656,0.183l0.417,0.211l0.865,0.213c0.079,0.04,0.153,0.091,0.224,0.15
			c0.068,0.062,0.144,0.109,0.224,0.15c0.039,0.02,0.104,0.041,0.194,0.061c0.089,0.021,0.152,0.041,0.192,0.061l0.479,0.242
			c0.437,0.221,0.764,0.412,0.981,0.571C122.835,65.283,123.044,65.363,123.323,65.504z"/>
	</g>
	<g>
		<path fill="#231F20" d="M91.916,49.251c-0.011,0.038,0.164,0.206,0.522,0.505c0.127,0.274,0.268,0.493,0.425,0.657
			c-0.029,0.112-0.006,0.27,0.081,0.473c0.083,0.204,0.106,0.382,0.065,0.53c0.137,0.238,0.168,0.406,0.101,0.508
			c0.027,0.049,0.073,0.102,0.141,0.159l0.096,0.086c-0.004,0.16,0.042,0.394,0.141,0.7c0.098,0.308,0.107,0.592,0.036,0.853
			c0.167,0.127,0.247,0.39,0.236,0.787c-0.006,0.399,0.015,0.646,0.071,0.741c-0.251,0.333-0.383,0.518-0.394,0.555
			c-0.011,0.038,0.041,0.072,0.152,0.102l0.098,0.087c0.016,0.085,0.024,0.198,0.027,0.339c0.002,0.142,0.011,0.254,0.027,0.339
			c0.016,0.085,0.081,0.142,0.193,0.173c-0.048,0.027-0.087,0.097-0.118,0.209c-0.01,0.037-0.014,0.126-0.012,0.268
			c0.001,0.141-0.026,0.243-0.084,0.308c-0.011,0.038-0.053,0.086-0.13,0.145c-0.077,0.06-0.127,0.127-0.147,0.202
			c-0.058,0.064-0.041,0.118,0.049,0.162c0.087,0.045,0.126,0.086,0.115,0.122l-0.029,0.112c-0.031,0.112-0.032,0.271-0.011,0.479
			c0.023,0.207,0.03,0.33,0.021,0.367l-0.088,0.096c0.021,0.367,0.026,0.57,0.018,0.606c-0.029,0.112-0.118,0.209-0.262,0.29
			c0.066,0.059,0.088,0.125,0.067,0.199c-0.041,0.149-0.049,0.429-0.02,0.838c0.029,0.408,0.021,0.707-0.032,0.894l-0.029,0.111
			c-0.219,0.062-0.354,0.186-0.403,0.372l-0.03,0.111c-0.031,0.112,0.016,0.245,0.133,0.397c0.118,0.153,0.175,0.248,0.163,0.285
			l-0.046,0.168c-0.029,0.112-0.044,0.27-0.038,0.472c0.006,0.202-0.004,0.34-0.023,0.414c-0.041,0.15-0.131,0.266-0.273,0.347
			c-0.01,0.038,0.012,0.144,0.064,0.318c0.051,0.175,0.087,0.306,0.104,0.39c-0.021,0.076-0.078,0.18-0.176,0.313
			c-0.097,0.135-0.157,0.239-0.178,0.313c-0.011,0.038-0.006,0.099,0.012,0.183c-0.006,0.321,0.007,0.564,0.041,0.734
			c-0.255,0.051-0.299,0.139-0.133,0.265c-0.132,0.045-0.229,0.139-0.287,0.282c-0.062,0.145-0.138,0.244-0.232,0.299
			c0.026,0.047,0.034,0.129,0.024,0.246c-0.013,0.117-0.006,0.2,0.021,0.247c-0.058,0.065-0.103,0.152-0.133,0.265
			c-0.058,0.065-0.096,0.135-0.116,0.209c0.008,0.122,0.143,0.22,0.401,0.29l0.225,0.062c0.354,0.177,0.698,0.311,1.034,0.402
			l0.449,0.122c0.447,0.122,0.726,0.278,0.835,0.469c0.093-0.055,0.214-0.062,0.366-0.021c0.26,0.07,0.441,0.142,0.544,0.209
			c0.153-0.119,0.274-0.347,0.366-0.683l0.106-0.393c0.021-0.074,0.038-0.18,0.056-0.315c0.018-0.136,0.032-0.222,0.043-0.26
			l0.229-0.84c-0.027-0.047,0.03-0.112,0.172-0.193c0.021-0.075,0.013-0.117-0.024-0.128c-0.027-0.047-0.035-0.089-0.024-0.127
			c0.106-0.251,0.17-0.625,0.186-1.123c0.016-0.497,0.114-0.86,0.298-1.092c-0.017-0.245-0.011-0.403,0.011-0.479
			c0.01-0.037,0.071-0.121,0.188-0.25c0.012-0.037,0.015-0.087,0.012-0.147c-0.004-0.062-0.001-0.11,0.01-0.147l0.271-0.77
			l0.117-0.208c0.011-0.037,0.104-0.152,0.275-0.347l0.105-0.392c0.021-0.075,0.078-0.139,0.174-0.194l0.091-0.336
			c0.095-0.054,0.148-0.1,0.16-0.137l0.015-0.057c-0.029-0.047-0.019-0.085,0.03-0.111c0.035,0.01,0.063-0.003,0.071-0.041
			c0.03-0.112,0.068-0.252,0.114-0.42c0.046-0.169,0.095-0.284,0.154-0.349c0.047-0.027,0.112-0.08,0.193-0.158
			c0.08-0.078,0.146-0.131,0.192-0.158c0.103-0.373,0.207-0.605,0.311-0.697l0.046-0.168c0.021-0.074,0.072-0.191,0.154-0.35
			c0.085-0.157,0.137-0.272,0.156-0.348l0.063-0.225l0.229-0.84c0.092-0.336,0.232-0.559,0.424-0.667
			c-0.026-0.048-0.079-0.082-0.152-0.103l0.123-0.447c0.045-0.027,0.129-0.075,0.247-0.143c0.119-0.068,0.207-0.134,0.268-0.199
			c0.02-0.074-0.007-0.131-0.075-0.171c-0.071-0.038-0.118-0.082-0.146-0.13l-0.041-0.07l0.015-0.057
			c0.021-0.074,0.076-0.16,0.163-0.257c0.085-0.097,0.135-0.163,0.145-0.2c0.093-0.337,0.16-0.519,0.208-0.546
			c0.03-0.112,0.02-0.216-0.034-0.311c0.176-0.353,0.278-0.586,0.31-0.698c0.041-0.148,0.052-0.266,0.037-0.351
			c0.162-0.155,0.32-0.373,0.478-0.652c0.135-0.044,0.312-0.005,0.541,0.118c0.227,0.121,0.387,0.156,0.482,0.101
			c0.074,0.021,0.144,0.061,0.209,0.118c0.063,0.058,0.114,0.091,0.153,0.102c0.073,0.02,0.139,0.008,0.188-0.039
			c0.055-0.045,0.1-0.063,0.137-0.053c0.026,0.047,0.104,0.098,0.23,0.152c0.124,0.056,0.205,0.087,0.242,0.097
			c0.073,0.021,0.152,0.072,0.229,0.153c0.076,0.081,0.149,0.151,0.214,0.209l0.449,0.122c0.148,0.04,0.315,0.167,0.499,0.376
			c0.183,0.212,0.35,0.337,0.498,0.377l0.113,0.031c0.054,0.096,0.176,0.238,0.364,0.43c0.186,0.192,0.308,0.336,0.361,0.431
			c0.031,0.33,0.197,0.716,0.498,1.158c0.301,0.443,0.449,0.806,0.454,1.087c0.057,0.096,0.117,0.233,0.19,0.413
			c0.069,0.18,0.134,0.317,0.188,0.412c-0.143,0.522-0.274,0.788-0.396,0.794c-0.011,0.037,0.01,0.073,0.062,0.107
			c0.051,0.035,0.071,0.07,0.061,0.106l-0.046,0.168c-0.081,0.3-0.004,0.601,0.233,0.907c0.016,0.244-0.009,0.479-0.069,0.703
			l-0.32,1.176c0.032,0.17,0.04,0.292,0.02,0.366l-0.092,0.336c-0.021,0.075-0.038,0.181-0.057,0.316
			c-0.017,0.136-0.029,0.223-0.039,0.259c-0.041,0.15-0.123,0.229-0.244,0.235l-0.153,0.56c-0.112,0.411-0.215,0.644-0.312,0.697
			c-0.012,0.038-0.01,0.108,0.003,0.211c0.01,0.104-0.014,0.188-0.068,0.253c0.033,0.169-0.001,0.48-0.105,0.934
			c-0.104,0.454-0.104,0.794-0.006,1.021c-0.06,0.065-0.112,0.189-0.164,0.376c-0.021,0.075-0.044,0.199-0.071,0.372
			c-0.025,0.174-0.05,0.298-0.069,0.372l-0.173,0.193l-0.092,0.336c-0.011,0.038-0.036,0.051-0.071,0.041
			c-0.048,0.027-0.077,0.06-0.088,0.097l-0.062,0.224c-0.066,0.102-0.145,0.162-0.229,0.179c-0.059,0.064-0.055,0.126,0.011,0.184
			c0.035,0.01,0.05,0.034,0.04,0.07c-0.058,0.065-0.123,0.198-0.197,0.397c-0.074,0.201-0.123,0.338-0.144,0.412
			c-0.01,0.038-0.048,0.1-0.11,0.182c-0.063,0.083-0.098,0.145-0.106,0.181c-0.012,0.038-0.006,0.129,0.015,0.274
			c0.021,0.146,0.016,0.275-0.015,0.388l-0.063,0.224l-0.198,0.729c-0.106,0.092-0.21,0.284-0.309,0.578
			c-0.102,0.293-0.185,0.49-0.253,0.593c-0.16-0.003-0.292,0.04-0.396,0.132c-0.104,0.092-0.21,0.215-0.312,0.367
			c-0.101,0.152-0.2,0.256-0.295,0.311c0.033,0.17,0.026,0.348-0.024,0.535c-0.041,0.149-0.104,0.232-0.188,0.249
			c-0.059,0.064-0.059,0.104-0.003,0.12c0.057,0.016,0.08,0.042,0.069,0.078c-0.041,0.15-0.375,0.781-0.999,1.895
			c-0.048,0.027-0.137,0.063-0.271,0.107c-0.021,0.075-0.063,0.162-0.133,0.264c-0.068,0.104-0.106,0.174-0.116,0.209l0.04,0.072
			c-0.021,0.074-0.036,0.131-0.047,0.168c-0.104,0.092-0.186,0.24-0.24,0.445c-0.057,0.205-0.117,0.357-0.185,0.46
			c-0.012,0.038-0.052,0.106-0.118,0.21l-0.03,0.111c-0.011,0.037-0.063,0.084-0.157,0.138c-0.097,0.056-0.174,0.112-0.229,0.179
			c-0.051,0.188-0.165,0.307-0.339,0.358c-0.175,0.054-0.269,0.099-0.278,0.135l-0.071,0.041c-0.059,0.063-0.109,0.11-0.156,0.138
			c-0.096,0.056-0.234,0.127-0.419,0.217c-0.188,0.091-0.306,0.148-0.351,0.177l-0.561-0.153c-0.113-0.029-0.31-0.084-0.588-0.16
			c-0.279-0.076-0.481-0.111-0.605-0.104l-0.559-0.151c-0.302-0.082-0.514-0.181-0.644-0.297c-0.063-0.057-0.152-0.171-0.266-0.343
			c-0.114-0.173-0.203-0.286-0.268-0.345l-0.071,0.041l-0.072,0.041L95.01,79.4c-0.039-0.01-0.088-0.084-0.151-0.221
			c-0.063-0.138-0.145-0.24-0.247-0.31c-0.026-0.047-0.067-0.158-0.118-0.332c-0.057-0.176-0.106-0.311-0.162-0.406
			c-0.018-0.084-0.031-0.209-0.047-0.373c-0.018-0.166-0.033-0.289-0.049-0.375c-0.019-0.084,0.013-0.125,0.095-0.125
			c0.079,0.002,0.123-0.016,0.134-0.053c-0.202-0.137-0.265-0.354-0.183-0.652l0.121-0.448c0.011-0.036,0.012-0.116,0.007-0.238
			c-0.008-0.122-0.001-0.221,0.02-0.296c-0.017-0.085-0.011-0.183,0.021-0.295c0.029-0.112,0.051-0.187,0.061-0.224l0.016-0.057
			c-0.026-0.047-0.033-0.09-0.023-0.127l0.046-0.168c0.122-0.448,0.137-0.725,0.044-0.831c-0.377,0.059-0.788,0.026-1.237-0.096
			l-1.733-0.474c-0.449-0.122-0.874-0.179-1.277-0.168c-0.011,0.037-0.061,0.104-0.146,0.201c-0.088,0.096-0.139,0.183-0.158,0.257
			l-0.031,0.112c-0.16-0.004-0.313,0.146-0.453,0.448c-0.144,0.302-0.246,0.485-0.301,0.55l-0.321,1.176
			c-0.01,0.038-0.043,0.089-0.103,0.152c-0.03,0.112-0.031,0.193-0.004,0.24c-0.135,0.045-0.27,0.138-0.408,0.279
			c-0.138,0.144-0.232,0.229-0.279,0.255c-0.05,0.027-0.114,0.05-0.198,0.066c-0.087,0.017-0.152,0.04-0.198,0.066
			c-0.037-0.011-0.119,0.067-0.244,0.234c-0.145,0.082-0.349,0.167-0.612,0.255c-0.161,0.156-0.354,0.264-0.569,0.324l-0.11-0.029
			c-0.076-0.021-0.171-0.006-0.283,0.043c-0.116,0.05-0.188,0.068-0.229,0.059l-0.334-0.092c-0.173,0.033-0.294,0.041-0.367,0.021
			c-0.111-0.031-0.294-0.131-0.551-0.301c-0.254-0.17-0.458-0.275-0.605-0.316l-0.279-0.076c-0.037-0.01-0.052-0.034-0.041-0.071
			l-0.097-0.087c-0.064-0.057-0.135-0.097-0.209-0.117c-0.074-0.02-0.131-0.035-0.166-0.045c-0.039-0.011-0.071-0.039-0.099-0.087
			c-0.02-0.085-0.061-0.156-0.122-0.214c-0.037-0.011-0.1-0.047-0.181-0.109c-0.086-0.063-0.145-0.1-0.182-0.109
			c-0.094-0.104-0.233-0.324-0.422-0.657l-0.124-0.214c-0.355-0.458-0.529-0.705-0.52-0.743c-0.494-0.536-0.678-1.047-0.546-1.532
			c-0.08-0.144-0.105-0.271-0.076-0.383l0.123-0.448l-0.03-0.55l0.164-0.376c0.029-0.112,0.02-0.296-0.03-0.551
			c-0.051-0.255-0.063-0.438-0.031-0.55l0.046-0.168c0.021-0.074,0.06-0.184,0.119-0.328c0.062-0.144,0.101-0.254,0.121-0.328
			l0.046-0.168c0.01-0.037,0.053-0.086,0.128-0.146c0.077-0.059,0.119-0.106,0.13-0.145l0.03-0.111
			c-0.018-0.367,0.022-0.736,0.124-1.11l0.306-1.12c0.011-0.037,0.012-0.077,0.001-0.12c-0.009-0.042-0.007-0.082,0.004-0.12
			l0.062-0.224c0.062-0.225,0.119-0.368,0.179-0.433c0.006-0.319,0.024-0.535,0.055-0.646c0.082-0.299,0.211-0.545,0.386-0.738
			l0.061-0.224c0.152-0.561,0.279-0.887,0.385-0.979c-0.117-0.152-0.151-0.322-0.101-0.509c0.01-0.037,0.04-0.118,0.096-0.245
			c0.057-0.125,0.094-0.225,0.113-0.3c-0.056-0.095-0.072-0.18-0.052-0.255c0.04-0.149,0.119-0.328,0.235-0.537
			c0.118-0.208,0.188-0.35,0.208-0.425l0.031-0.111c0.01-0.037-0.007-0.132-0.045-0.284c-0.041-0.15-0.067-0.268-0.084-0.354
			l0.063-0.224c0.029-0.112,0.105-0.321,0.231-0.629c0.121-0.307,0.209-0.554,0.261-0.741l0.062-0.224
			c0.011-0.037,0.022-0.123,0.042-0.26c0.016-0.136,0.036-0.24,0.057-0.316l0.03-0.111c0.01-0.037,0.041-0.088,0.101-0.153
			c0.059-0.063,0.098-0.134,0.117-0.209c0.011-0.036,0.026-0.133,0.048-0.287c0.022-0.154,0.044-0.269,0.064-0.344
			c0.03-0.112,0.073-0.2,0.133-0.265c0.01-0.037-0.009-0.082-0.054-0.135c-0.047-0.052-0.063-0.098-0.055-0.135
			c0.458-1.239,0.692-1.878,0.703-1.915c0.021-0.075,0.088-0.177,0.205-0.306c0.112-0.128,0.187-0.249,0.216-0.361l0.122-0.448
			c0.117-0.128,0.214-0.263,0.29-0.402c-0.017-0.085-0.006-0.122,0.031-0.112l0.071-0.04c0.011-0.037,0.033-0.121,0.068-0.252
			c0.035-0.131,0.097-0.205,0.181-0.222c0.031-0.112,0.361-0.744,0.999-1.895c0.048-0.026,0.103-0.082,0.167-0.165
			c0.061-0.083,0.135-0.134,0.222-0.15l0.03-0.112c0.102-0.373,0.594-0.64,1.48-0.799C89.758,48.844,90.586,48.97,91.916,49.251z"/>
	</g>
	<g>
		<path fill="#231F20" d="M43.62,117.313c0.247,0.055,0.385,0.096,0.412,0.123c0.22-0.027,0.426-0.027,0.618,0h0.041
			c0.027,0.027,0.056,0.042,0.082,0.042h0.083c0.056,0,0.097,0.015,0.124,0.041l0.082,0.042c0.221,0,0.345,0.014,0.371,0.041
			c0.057-0.027,0.124-0.041,0.207-0.041c0.055,0,0.146,0.014,0.269,0.041c0.124,0.027,0.213,0.042,0.269,0.042
			c0,0.028,0.097,0.041,0.29,0.041l0.329-0.042c0.11,0.055,0.179,0.083,0.207,0.083l0.041-0.042
			c0.054-0.027,0.095-0.041,0.123-0.042c0.578,0.083,0.922,0.137,1.032,0.165c0.055,0,0.138,0.027,0.248,0.083h0.329
			c0.026,0,0.063,0.007,0.104,0.021s0.075,0.021,0.104,0.021h0.618l0.454,0.124c0.055,0.028,0.151,0.041,0.289,0.041
			s0.233,0,0.289,0c0.55,0.082,0.866,0.165,0.948,0.247c0.274-0.027,0.599,0.007,0.97,0.104c0.371,0.096,0.667,0.143,0.887,0.143
			c0.027,0.029,0.09,0.057,0.188,0.084c0.096,0.027,0.171,0.056,0.227,0.082c0.221,0,0.55,0.082,0.99,0.246
			c0.44,0.139,0.675,0.316,0.702,0.537c0,0.026-0.007,0.103-0.021,0.227s-0.021,0.213-0.021,0.27c0,0.055,0.006,0.131,0.021,0.227
			c0.016,0.097,0.021,0.158,0.021,0.186c0,0.084-0.014,0.139-0.041,0.166c-0.138,0.356-0.303,0.563-0.495,0.618
			c-0.221,0.222-0.345,0.33-0.371,0.33c-0.083,0.056-0.269,0.097-0.558,0.124c-0.287,0.027-0.475,0.083-0.557,0.166h-0.083
			c-0.055,0-0.116,0.007-0.186,0.021c-0.068,0.014-0.117,0.021-0.146,0.021c-0.138,0-0.344-0.006-0.617-0.021
			c-0.275-0.014-0.469-0.021-0.578-0.021c-0.247,0-0.428,0.015-0.536,0.042c-0.082,0.055-0.124,0.027-0.124-0.083
			c-0.165,0.056-0.262,0.083-0.288,0.083c-0.056,0.027-0.124,0-0.207-0.083c-0.055,0.028-0.151,0.048-0.288,0.063
			c-0.139,0.014-0.234,0.035-0.289,0.062c-0.056-0.026-0.165-0.041-0.33-0.041c-0.083,0-0.191,0.007-0.33,0.021
			c-0.138,0.015-0.221,0.021-0.248,0.021c-0.385,0-0.592,0.016-0.617,0.042c-0.057,0.028-0.098,0.028-0.124,0l-0.082-0.041
			c-0.057,0.056-0.234,0.083-0.537,0.083c-0.11,0-0.192,0.016-0.247,0.042c0,0.056-0.016,0.083-0.041,0.083
			c0.137,0.357,0.206,0.715,0.207,1.072c0,0.22-0.041,0.439-0.124,0.66c-0.027,0.027-0.015,0.041,0.041,0.041l0.083,0.041
			c-0.028,0.057-0.041,0.139-0.041,0.248c0,0.11-0.007,0.207-0.021,0.289c-0.014,0.084-0.048,0.139-0.103,0.166
			c0.026,0.027,0.041,0.164,0.041,0.412c0,0.084,0.014,0.139,0.041,0.166c-0.11,0.109-0.165,0.289-0.164,0.535
			c0,0.057,0.007,0.165,0.021,0.33c0.015,0.165,0.021,0.275,0.021,0.33c0,0.027-0.028,0.048-0.083,0.063
			c-0.056,0.014-0.069,0.047-0.041,0.103c0,0.028,0.027,0.048,0.082,0.062c0.055,0.015,0.083,0.049,0.083,0.104
			c0.026,0.057,0.026,0.124,0,0.207c-0.027,0.083-0.04,0.139-0.04,0.165c0,0.028,0.021,0.075,0.062,0.146
			c0.041,0.068,0.063,0.131,0.063,0.186c0,0.027-0.027,0.097-0.082,0.205c-0.056,0.111-0.083,0.18-0.083,0.207
			c-0.055,0.111-0.138,0.248-0.247,0.414c0,0.027,0.006,0.068,0.021,0.123c0.015,0.057,0.027,0.104,0.041,0.146
			c0.015,0.041,0.027,0.083,0.041,0.124c0.015,0.042,0.021,0.076,0.021,0.104c0,0.111-0.028,0.18-0.083,0.207
			c0.138,0.412,0.206,0.674,0.207,0.783c0,0.193-0.055,0.344-0.165,0.455c0.027,0.082,0.055,0.219,0.083,0.412
			c0.027,0.193,0.068,0.33,0.124,0.413c0.412,0,0.688,0.041,0.826,0.123c0.494-0.026,1.127-0.001,1.896,0.081
			c0.056,0,0.247,0.041,0.577,0.124h0.413c0.412,0,0.701,0.082,0.866,0.247c0.165,0,0.261,0.027,0.289,0.083
			c0.082,0.22,0.165,0.329,0.247,0.329c-0.057,0.275-0.081,0.469-0.081,0.578v0.125c0,0.027,0.014,0.068,0.041,0.123
			c0.026,0.056,0.041,0.11,0.041,0.166c0,0.164-0.123,0.303-0.371,0.412c-0.247,0.11-0.399,0.221-0.453,0.33
			c-0.082,0.028-0.247,0.098-0.495,0.207c-0.247,0.11-0.44,0.166-0.577,0.166c-0.027,0-0.062-0.006-0.104-0.021
			c-0.041-0.014-0.076-0.02-0.104-0.02s-0.083,0.014-0.165,0.041c-0.083,0.028-0.139,0.041-0.165,0.041h-0.083
			c-0.026,0-0.067,0.014-0.124,0.043l-0.041,0.041c-0.221,0.027-0.521,0.041-0.906,0.041c-0.275,0-0.743-0.027-1.403-0.082
			l-0.33,0.248c0,0.028,0.027,0.172,0.083,0.434s0.083,0.461,0.083,0.598c0,0.193-0.055,0.357-0.165,0.495
			c0.027,0.083,0.055,0.221,0.084,0.413c0.027,0.193,0.068,0.33,0.124,0.412c-0.056,0.111-0.097,0.275-0.124,0.496
			c-0.028,0.221-0.056,0.371-0.082,0.453l-0.165,0.166c-0.027,0.026-0.055,0.067-0.082,0.123l-0.041,0.125l-0.083,0.041
			c-0.082,0.027-0.138,0.055-0.165,0.084c-0.026,0-0.062,0.026-0.104,0.082c-0.041,0.055-0.075,0.096-0.104,0.125
			c-0.027,0.026-0.056,0.041-0.083,0.041c-0.055,0.027-0.097,0.041-0.123,0.043c-0.33,0.164-0.537,0.248-0.619,0.248
			c-0.439,0-0.688,0.014-0.742,0.041c-0.109-0.056-0.206-0.082-0.288-0.082c-0.057,0-0.14,0.006-0.248,0.021
			c-0.11,0.014-0.18,0.021-0.206,0.021h-0.124c-0.027,0-0.089-0.014-0.187-0.041c-0.097-0.027-0.172-0.041-0.227-0.041h-0.124
			c-0.056,0-0.131-0.027-0.228-0.084c-0.097-0.055-0.158-0.082-0.186-0.082c-0.083-0.027-0.207-0.049-0.372-0.062
			c-0.165-0.015-0.288-0.035-0.371-0.062c-0.109-0.056-0.247-0.172-0.412-0.351s-0.315-0.296-0.454-0.351
			c0-0.027-0.021-0.082-0.063-0.166c-0.042-0.082-0.063-0.15-0.063-0.207v-0.082c-0.221-0.439-0.33-0.688-0.33-0.743v-0.083
			c-0.056,0-0.11-0.123-0.166-0.371l-0.165-0.248v-0.165c0-0.056-0.014-0.124-0.04-0.207c-0.027-0.083-0.041-0.151-0.041-0.206
			c0-0.027,0.014-0.068,0.041-0.124c-0.111-0.108-0.166-0.261-0.166-0.454v-0.701c0-0.056-0.021-0.138-0.063-0.248
			c-0.043-0.109-0.063-0.178-0.063-0.207c0-0.026-0.008-0.096-0.021-0.205c-0.014-0.11-0.021-0.192-0.021-0.248
			c0-0.139,0.026-0.344,0.081-0.619c0-0.027,0.015-0.068,0.041-0.124s0.041-0.11,0.041-0.165s-0.021-0.117-0.062-0.186
			c-0.042-0.068-0.063-0.117-0.063-0.145s0.008-0.083,0.021-0.165s0.021-0.151,0.021-0.207c0-0.026-0.014-0.083-0.041-0.165
			c-0.026-0.082-0.041-0.137-0.041-0.165c0-0.055,0.015-0.116,0.04-0.187c0.027-0.067,0.041-0.116,0.041-0.145v-0.412
			c-0.055-0.275-0.055-0.439,0-0.496c-0.056-0.273-0.083-0.467-0.083-0.576c0-0.084,0.015-0.242,0.041-0.476
			c0.027-0.233,0.027-0.419-0.001-0.558v-0.123c0-0.027,0.015-0.043,0.041-0.043l0.042-0.082c0-0.055-0.021-0.124-0.063-0.206
			c-0.041-0.083-0.063-0.138-0.063-0.165s0.015-0.063,0.041-0.104c0.027-0.041,0.041-0.076,0.041-0.104v-0.248v-0.165
			c-0.001-0.108,0.041-0.192,0.123-0.248c-0.056-0.192-0.056-0.356,0-0.495l0.041-0.041v-0.042v-0.124
			c0-0.357,0.026-0.578,0.082-0.66c-0.056-0.109-0.083-0.207-0.083-0.289c0-0.027,0.007-0.082,0.021-0.164
			c0.013-0.084,0.021-0.151,0.021-0.207c0-0.192,0.015-0.303,0.041-0.33l0.082-0.041v-0.043c-0.026-0.026-0.042-0.055-0.042-0.082
			l0.083-0.041c0-0.248,0.015-0.44,0.041-0.578v-0.33c0.056-0.083,0.082-0.289,0.081-0.619v-0.248l0.124-0.496
			c0-0.083,0.027-0.206,0.082-0.371c0.055-0.164,0.082-0.273,0.082-0.33c0-0.027-0.014-0.068-0.041-0.123v-0.084
			c0.027-0.082,0.068-0.199,0.124-0.351c0.055-0.151,0.096-0.255,0.123-0.31l-0.001-0.33c0-0.055,0.021-0.129,0.063-0.227
			c0.04-0.096,0.074-0.171,0.103-0.227c0.056-0.275,0.083-0.496,0.082-0.662c0.109-0.082,0.186-0.247,0.227-0.494
			c0.042-0.248,0.076-0.385,0.104-0.413c0.055-0.108,0.192-0.289,0.411-0.537c0.055,0.028,0.109,0.041,0.165,0.041
			c0.055,0,0.138-0.021,0.248-0.062c0.108-0.043,0.206-0.063,0.289-0.063h0.123c0.055,0,0.097-0.026,0.124-0.083
			C43.564,117.34,43.591,117.313,43.62,117.313z"/>
	</g>
	<g>
		<path fill="#231F20" d="M59.931,118l0.246,0.024l0.233,0.147c0.272,0.027,0.423,0.058,0.446,0.086
			c0.059-0.021,0.154-0.024,0.292-0.012c0.082,0.008,0.223,0.051,0.423,0.125c0.199,0.076,0.354,0.119,0.464,0.131
			c0.076,0.063,0.199,0.145,0.369,0.244c0.171,0.099,0.3,0.183,0.391,0.246c0.09,0.064,0.176,0.17,0.258,0.316
			s0.129,0.303,0.14,0.47c0.021,0.06,0.071,0.118,0.147,0.181c0.077,0.063,0.128,0.11,0.152,0.141
			c0.022,0.029,0.037,0.094,0.042,0.191c0.004,0.097,0.006,0.16,0.003,0.187s0.007,0.058,0.032,0.086l0.032,0.087l-0.023,0.246
			c-0.003,0.027,0.024,0.094,0.084,0.195c0.059,0.104,0.085,0.182,0.079,0.234c-0.006,0.057-0.006,0.125,0,0.209
			c0.006,0.082,0.019,0.152,0.041,0.211c-0.007,0.055,0.001,0.125,0.021,0.209c0.019,0.086,0.027,0.142,0.024,0.168l-0.014,0.123
			c-0.005,0.057-0.02,0.129-0.043,0.225c-0.022,0.095-0.036,0.156-0.039,0.183c-0.003,0.027,0.021,0.071,0.07,0.132
			c-0.006,0.055-0.003,0.159,0.009,0.313c0.014,0.154,0.016,0.271,0.006,0.354c0.036,0.197,0.034,0.35-0.004,0.457
			c-0.006,0.055-0.021,0.143-0.048,0.264c-0.024,0.123-0.043,0.225-0.051,0.307l-0.018,0.164c0.021,0.334,0.026,0.568,0.014,0.706
			c-0.018,0.164-0.059,0.284-0.12,0.36c-0.003,0.027,0.007,0.069,0.028,0.127c0.021,0.059,0.03,0.115,0.024,0.168
			c-0.003,0.029-0.014,0.063-0.032,0.102c-0.018,0.04-0.026,0.074-0.029,0.102l0.032,0.086c-0.002,0.027-0.005,0.056-0.008,0.082
			l-0.004,0.041c-0.031,0.024-0.048,0.051-0.051,0.078s-0.002,0.09,0.002,0.188c0.004,0.097,0.004,0.173-0.001,0.229l0.032,0.086
			c0.021,0.059,0.029,0.101,0.027,0.127c-0.006,0.055-0.027,0.137-0.064,0.242c-0.062,0.051-0.094,0.102-0.101,0.155
			c-0.003,0.026-0.003,0.099,0,0.208c0.004,0.109,0.003,0.193-0.003,0.248c-0.033,0.053-0.052,0.093-0.055,0.117
			c-0.003,0.029-0.01,0.098-0.021,0.207c-0.013,0.109-0.044,0.162-0.1,0.156c0.068,0.146,0.099,0.271,0.087,0.381
			c-0.003,0.027-0.017,0.088-0.04,0.184c-0.022,0.096-0.038,0.169-0.044,0.225c-0.06,0.049-0.093,0.102-0.098,0.155
			c-0.13,0.731-0.225,1.124-0.284,1.175c0.057,0.254,0.071,0.531,0.041,0.832c-0.021,0.221-0.067,0.381-0.133,0.484
			c0.033,0.227,0.043,0.404,0.029,0.542c-0.015,0.138-0.053,0.229-0.111,0.278c0.021,0.059,0.031,0.17,0.028,0.334
			c-0.003,0.166-0.008,0.277-0.013,0.332l-0.137,0.109c0.021,0.059,0.027,0.143,0.017,0.252c-0.012,0.108-0.038,0.244-0.083,0.405
			s-0.068,0.283-0.077,0.364l-0.018,0.164c-0.096,0.13-0.159,0.207-0.188,0.229c-0.025,0.246-0.055,0.384-0.082,0.406l-0.025,0.247
			c-0.03,0.302-0.13,0.607-0.3,0.923l-0.03,0.702c-0.039,0.384-0.172,0.604-0.397,0.664c0.023,0.031,0.034,0.074,0.028,0.128
			c-0.006,0.056-0.041,0.12-0.104,0.196c-0.063,0.076-0.098,0.144-0.103,0.197c-0.062,0.049-0.195,0.152-0.404,0.313
			c-0.21,0.158-0.388,0.258-0.528,0.299l-0.168,0.023c-0.348,0.158-0.549,0.236-0.604,0.229c-0.684-0.069-1.133-0.142-1.347-0.219
			c-0.028-0.003-0.093-0.036-0.196-0.103c-0.104-0.065-0.183-0.115-0.233-0.147c-0.026-0.003-0.091-0.063-0.189-0.185
			c-0.375-0.121-0.63-0.326-0.766-0.617c-0.136-0.041-0.256-0.144-0.363-0.307c-0.107-0.162-0.175-0.259-0.199-0.289
			c-0.017-0.111-0.07-0.271-0.159-0.473c-0.091-0.202-0.146-0.359-0.159-0.473c-0.023-0.057-0.036-0.135-0.04-0.231
			s-0.003-0.173,0.002-0.229c-0.038-0.17-0.052-0.295-0.044-0.377l0.05-0.492c0.009-0.082-0.003-0.256-0.031-0.521
			c-0.027-0.265-0.047-0.494-0.055-0.689c-0.008-0.193,0.007-0.481,0.046-0.865c-0.017-0.112-0.014-0.277,0.009-0.497
			c0.018-0.164,0.056-0.271,0.115-0.319c-0.05-0.061-0.065-0.174-0.049-0.338c0.005-0.054,0.029-0.162,0.073-0.322
			c0.044-0.162,0.069-0.283,0.078-0.367l0.028-0.287c0.024-0.245,0.083-0.404,0.173-0.479c0.003-0.027-0.015-0.058-0.053-0.089
			c-0.038-0.03-0.056-0.073-0.05-0.129s0.018-0.108,0.038-0.162c0.019-0.054,0.03-0.106,0.037-0.161l0.062-0.617
			c0.042-0.41,0.101-0.722,0.177-0.936c-0.021-0.059-0.025-0.154-0.012-0.292c0.011-0.108,0.055-0.271,0.131-0.483
			c0.078-0.213,0.119-0.348,0.125-0.402l0.008-0.082c-0.021-0.057-0.03-0.1-0.027-0.127l0.049-0.078
			c0.003-0.026,0.006-0.055,0.009-0.082c0.011-0.109,0.028-0.287,0.054-0.533c0.024-0.247,0.058-0.423,0.095-0.529
			c0.093-0.377,0.149-0.662,0.17-0.854c0.003-0.025,0.033-0.064,0.094-0.114c0.006-0.055-0.004-0.097-0.028-0.128
			c-0.023-0.029-0.033-0.07-0.027-0.127l0.217-0.932l0.005-0.041l-0.032-0.088c0.008-0.082,0.045-0.182,0.113-0.299
			c0.066-0.117,0.103-0.203,0.108-0.259c0.009-0.082,0.03-0.237,0.067-0.47s0.072-0.387,0.109-0.467l0.144-0.192
			c0.097-0.405,0.203-0.644,0.32-0.714c0.003-0.025-0.009-0.057-0.032-0.087c-0.024-0.028-0.035-0.071-0.029-0.126
			c0.072-0.159,0.109-0.266,0.115-0.32l0.05-0.492c0.006-0.055,0.042-0.147,0.11-0.279c0.07-0.131,0.106-0.225,0.112-0.278
			c0.02-0.19,0.019-0.455-0.004-0.789c0.061-0.049,0.109-0.14,0.15-0.274c0.041-0.133,0.077-0.213,0.108-0.238
			C59.02,117.993,59.411,117.948,59.931,118z"/>
	</g>
	<path fill="#F6921E" d="M98.276,118.301c0,0,9.392-17.004,26.156-11.689c8.435,2.672,2.836,10.213,0.077,14.664
		s2.837,6.223,5.633,3.922C133.95,122.064,127.883,143.137,98.276,118.301z"/>
	<path fill="#F6921E" d="M40.53,104.368c0,0-7.895,18.104-27.651,5.887c-11.474-7.092-6.043-19.773-4.271-16.066
		c4.846,10.135,10.492,8.469,10.492,8.469s-5.646-8.469-0.252-10.264C28.086,89.318,33.596,111.411,40.53,104.368z"/>
	<path fill="#FAAF40" d="M103.01,116.648c0,0,13.395-13.489,19.472-5.758c-2.099,4.188-6.015,4.838-6.015,4.838
		s3.448-0.879,6.058,2.616c-3.441,0.89-9.875,0.511-9.875,0.511s1.909,5.174,3.881,8.11
		C107.061,124.068,103.01,116.648,103.01,116.648z"/>
	<path fill="#F6921E" d="M26.097,83.193c0,0-15.503-12.099-7.891-30.213c1.574,10.897,4.6,11.685,8.084,16.239
		C31.539,76.075,26.097,83.193,26.097,83.193z"/>
	<path fill="#F6921E" d="M82.016,48.48c0,0-15.504-12.1-7.892-30.213c1.574,10.896,4.599,11.684,8.085,16.238
		C87.454,41.361,82.016,48.48,82.016,48.48z"/>
	<path fill="#BE1E2D" d="M93.93,62.325c0.391-0.08,0.835-0.242,1.342-0.492c2.737-1.344,1.512-3.384-0.885-3.403
		C90.987,58.404,90.824,62.981,93.93,62.325z"/>
	<path fill="#BE1E2D" d="M91.856,23.256c-0.428-2.119-1.92-1.967-3.161-1.049c-1.241,0.92-0.602,3.619,0.521,3.441
		C90.639,25.424,92.175,24.824,91.856,23.256z"/>
	<path fill="#BE1E2D" d="M79.925,11.322c-0.43-2.117-1.923-1.967-3.164-1.049c-1.241,0.922-0.6,3.621,0.521,3.443
		C78.706,13.49,80.242,12.893,79.925,11.322z"/>
	<g>
		<path fill="#BE1E2D" d="M88.58,12.469c2.716,1.574,6.711-0.35,4.729-1.816c-0.951-0.701-3.644-0.227-4.328,0.311
			C88.482,11.359,88.255,11.691,88.58,12.469z"/>
		<path fill="#BE1E2D" d="M55.464,33.373c3.077-0.621,4.794-4.713,2.335-4.496c-1.174,0.104-2.874,2.242-3.034,3.102
			C54.658,32.607,54.708,33.006,55.464,33.373z"/>
		<path fill="#BE1E2D" d="M66.025,7.76c1.702-1.744-0.31-4.244-1.893-2.965C63.38,5.404,63.86,7.1,64.426,7.527
			C64.842,7.838,65.195,7.975,66.025,7.76z"/>
		<path fill="#BE1E2D" d="M72.895,19.586c1.702-1.742-0.309-4.242-1.889-2.965c-0.759,0.609-0.276,2.305,0.29,2.732
			C71.712,19.662,72.066,19.801,72.895,19.586z"/>
		<path fill="#BE1E2D" d="M98.276,44.129c2.718,1.574,6.713-0.352,4.731-1.816c-0.948-0.701-3.642-0.227-4.326,0.311
			C98.181,43.02,97.954,43.352,98.276,44.129z"/>
		<path fill="#BE1E2D" d="M83.625,65.872c1.699-1.746-0.312-4.242-1.896-2.967c-0.753,0.611-0.272,2.307,0.294,2.732
			C82.44,65.95,82.792,66.087,83.625,65.872z"/>
	</g>
	<path fill="#BE1E2D" d="M27.248,111.893c0,0-11.528,1.822-16.295-8.818c5.36,3.732,6.928,2.74,10.314,3.076
		C26.366,106.652,27.248,111.893,27.248,111.893z"/>
	<path fill="#BE1E2D" d="M84.779,47.115c0,0-9.095-11.076-0.792-22.74c-0.62,7.998,1.405,9.041,3.156,12.834
		C89.78,42.922,84.779,47.115,84.779,47.115z"/>
	<g>
		<path fill="#231F20" d="M29.574,94.312c0.03-0.006,0.074,0.009,0.13,0.046c0.056,0.038,0.115,0.066,0.185,0.084
			c0.03-0.006,0.068-0.02,0.112-0.045c0.042-0.023,0.079-0.04,0.109-0.046c0.063-0.013,0.13,0.007,0.203,0.058
			c0.075,0.049,0.144,0.067,0.204,0.055c0.031-0.006,0.075-0.021,0.135-0.049c0.06-0.026,0.104-0.043,0.136-0.049
			c0.056-0.043,0.127-0.049,0.212-0.018c0.087,0.031,0.146,0.045,0.177,0.039c0.062-0.012,0.146,0.011,0.254,0.07
			c0.107,0.059,0.191,0.082,0.254,0.069c0.006,0.032,0.029,0.067,0.069,0.106c0.039,0.041,0.05,0.096,0.031,0.164
			c0.029-0.006,0.073-0.031,0.131-0.074c0.022-0.037,0.058-0.028,0.101,0.029c0.105,0.043,0.256,0.158,0.452,0.345l0.156,0.065
			c0.007,0.031,0.021,0.068,0.046,0.111c0.023,0.044,0.055,0.077,0.092,0.104c0.044,0.057,0.183,0.236,0.419,0.543
			c0.235,0.309,0.377,0.504,0.428,0.592l0.446,1.068c0.137-0.125,0.208-0.33,0.217-0.621l0.748-1.105
			c0.207-0.585,0.71-1.132,1.51-1.641c0.024-0.037,0.067-0.061,0.131-0.072c0.168-0.129,0.324-0.225,0.475-0.285
			c0.061-0.012,0.203-0.07,0.421-0.177c0.221-0.106,0.407-0.175,0.563-0.205l0.046-0.009c0.024-0.039,0.053-0.059,0.084-0.065
			c0.432-0.083,0.704-0.087,0.814-0.013c0.173-0.1,0.275-0.15,0.307-0.156c0.248-0.048,0.469,0.021,0.666,0.207
			c0.229,0.021,0.503,0.111,0.822,0.273s0.532,0.267,0.638,0.311c0.029,0.154,0.128,0.328,0.293,0.52
			c0.165,0.193,0.278,0.362,0.34,0.512c0.037,0.025,0.075,0.058,0.115,0.098c0.039,0.04,0.079,0.081,0.118,0.121
			c0.039,0.041,0.081,0.089,0.124,0.145c0.062,0.148,0.156,0.348,0.284,0.594c0.127,0.248,0.216,0.416,0.268,0.503
			c0.055-0.042,0.091-0.104,0.105-0.188c0.017-0.082,0.036-0.144,0.062-0.181c0.024-0.036,0.052-0.065,0.08-0.087
			c0.026-0.021,0.054-0.051,0.08-0.088c-0.008-0.029,0.002-0.064,0.026-0.102s0.048-0.082,0.07-0.134
			c0.021-0.052,0.045-0.096,0.07-0.134c0.023-0.036,0.06-0.107,0.104-0.212c0.05-0.233,0.119-0.376,0.206-0.425l0.067-0.398
			c0.006,0.031,0.013,0.063,0.019,0.094l0.055,0.036c0.105-0.116,0.245-0.304,0.42-0.562c0.05-0.074,0.178-0.205,0.383-0.387
			c0.204-0.185,0.344-0.332,0.419-0.441c0.118-0.055,0.304-0.172,0.559-0.35c0.254-0.178,0.458-0.281,0.613-0.313l0.092-0.018
			c0.063-0.013,0.096-0.043,0.103-0.092s0.024-0.078,0.057-0.082c0.26,0.014,0.467,0.006,0.621-0.025
			c0.216-0.041,0.535-0.135,0.955-0.281c0.062-0.012,0.161,0.002,0.297,0.039c0.406-0.045,1.006-0.018,1.796,0.084
			c0.037,0.025,0.098,0.095,0.185,0.206c0.024-0.037,0.07-0.046,0.14-0.027c0.109,0.074,0.227,0.142,0.35,0.196
			c0.124,0.057,0.263,0.109,0.416,0.16c0.155,0.051,0.268,0.101,0.342,0.15c0.073,0.211,0.24,0.371,0.502,0.479
			c0.264,0.108,0.437,0.22,0.522,0.332c0.035,0.024,0.087,0.039,0.151,0.042c0.064,0.005,0.111,0.002,0.144-0.004
			c0.098,0.175,0.272,0.373,0.525,0.598c0.251,0.225,0.425,0.422,0.522,0.596c0.147,0.1,0.248,0.207,0.305,0.326
			c0.035,0.023,0.041,0.055,0.019,0.092l-0.028,0.102l0.212,0.104c0.036,0.024,0.043,0.057,0.02,0.094
			c-0.021,0.068-0.026,0.117-0.021,0.147c0.075,0.05,0.215,0.199,0.425,0.447c0.202,0.218,0.349,0.478,0.439,0.78
			c0.097,0.174,0.152,0.293,0.165,0.354c0.012,0.063-0.003,0.161-0.039,0.296c0.03,0.155,0.108,0.315,0.237,0.483
			c0.079,0.08,0.175,0.158,0.284,0.232c0.056,0.118,0.11,0.315,0.164,0.594c0.03,0.156,0.067,0.389,0.111,0.701
			c0.043,0.313,0.081,0.545,0.111,0.699c0.006,0.032,0.035,0.059,0.087,0.08c0.054,0.021,0.086,0.064,0.098,0.126
			c0.042,0.218,0.148,0.356,0.321,0.418c-0.021,0.068-0.004,0.146,0.045,0.231c0.048,0.088,0.077,0.146,0.083,0.178
			s-0.005,0.064-0.029,0.102c0.186,0.125,0.298,0.295,0.339,0.512c0.02,0.093,0.011,0.207-0.027,0.342
			c0.122,0.139,0.201,0.298,0.236,0.484c0.042,0.217,0.034,0.426-0.021,0.627c0.166,0.033,0.267,0.143,0.302,0.328
			c0.02,0.092,0.017,0.158-0.01,0.194c0.129,0.167,0.215,0.359,0.257,0.575c0.036,0.188,0.028,0.314-0.021,0.389
			c-0.02,0.068,0.001,0.129,0.06,0.182s0.091,0.095,0.097,0.125c0.013,0.063,0.001,0.127-0.032,0.199
			c-0.035,0.071-0.051,0.121-0.045,0.152c0.074,0.051,0.152,0.203,0.234,0.459c0.081,0.258,0.175,0.407,0.278,0.45
			c-0.019,0.069-0.015,0.172,0.013,0.312c0.027,0.139,0.03,0.242,0.013,0.311c0.055,0.117,0.093,0.316,0.117,0.604
			c0.021,0.284,0.063,0.5,0.125,0.647c-0.02,0.069-0.064,0.157-0.141,0.269l0.045,0.231c0.042,0.217,0.004,0.353-0.113,0.407
			c0.043,0.057,0.07,0.115,0.082,0.176c0.012,0.063,0.007,0.16-0.016,0.292c-0.022,0.134-0.024,0.245-0.006,0.338l0.018,0.092
			c-0.118,0.056-0.184,0.132-0.196,0.231c-0.013,0.099-0.015,0.212-0.007,0.337c0.009,0.128,0.003,0.224-0.016,0.292
			c0.013,0.063,0.039,0.121,0.083,0.178c0.042,0.057,0.066,0.1,0.073,0.13c-0.024,0.036-0.135,0.179-0.327,0.425
			s-0.381,0.387-0.567,0.422c-0.168,0.289-0.55,0.557-1.144,0.799c-0.167,0.129-0.268,0.195-0.298,0.201
			c-0.063,0.174-0.187,0.277-0.372,0.313c-0.063,0.013-0.13-0.007-0.203-0.058l-0.15,0.223c-0.062,0.012-0.139,0.027-0.229,0.045
			c-0.094,0.018-0.152,0.045-0.179,0.082c-0.222,0.012-0.497-0.007-0.828-0.057c-0.328-0.047-0.524-0.065-0.587-0.055l-0.915-0.254
			l-0.026-0.14c-0.08,0.08-0.188,0.036-0.313-0.132c-0.124,0.023-0.241-0.002-0.353-0.077c-0.11-0.074-0.208-0.167-0.294-0.278
			c-0.087-0.111-0.166-0.193-0.24-0.242c-0.012-0.063,0.054-0.14,0.196-0.231c-0.146-0.261-0.223-0.405-0.229-0.437
			c-0.019-0.093-0.004-0.176,0.047-0.25l-0.056-0.037c-0.068-0.018-0.12-0.041-0.157-0.065c-0.036-0.185-0.103-0.284-0.201-0.297
			l-0.026-0.14c-0.006-0.031-0.03-0.115-0.073-0.25c-0.042-0.137-0.072-0.25-0.091-0.344c-0.019-0.093-0.019-0.172,0.002-0.24
			l-0.322-0.418c-0.048-0.088-0.088-0.207-0.117-0.361c-0.036-0.186-0.076-0.307-0.119-0.362c-0.006-0.03,0.021-0.06,0.079-0.087
			c0.06-0.027,0.087-0.057,0.08-0.088c-0.038-0.023-0.091-0.053-0.162-0.088c-0.07-0.035-0.107-0.067-0.114-0.098
			c-0.083-0.434-0.161-0.674-0.236-0.724c0.019-0.067,0.018-0.164-0.007-0.288c-0.013-0.063-0.057-0.197-0.128-0.408
			c-0.073-0.211-0.104-0.365-0.09-0.464c-0.007-0.03-0.016-0.077-0.026-0.139l0.028-0.103c-0.007-0.031-0.031-0.074-0.073-0.129
			c-0.038-0.025-0.025-0.043,0.037-0.056c-0.068-0.019-0.13-0.087-0.185-0.206c-0.056-0.117-0.102-0.188-0.139-0.213
			c-0.006-0.031-0.037-0.025-0.093,0.018c-0.057,0.043-0.087,0.049-0.093,0.019c0.023-0.037,0.018-0.164-0.024-0.38l0.036-0.055
			c0.024-0.037,0.035-0.07,0.028-0.104l-0.108-0.314c-0.006-0.031-0.008-0.078-0.004-0.144c0.003-0.063,0.003-0.113-0.004-0.144
			l-0.019-0.092c-0.012-0.063-0.037-0.146-0.071-0.25c-0.037-0.105-0.06-0.174-0.064-0.205c-0.012-0.063,0.002-0.16,0.039-0.297
			c-0.098-0.173-0.225-0.5-0.383-0.982c-0.072-0.371-0.1-0.67-0.078-0.899c-0.147-0.26-0.253-0.56-0.318-0.899
			c-0.036-0.188-0.048-0.408-0.033-0.668c-0.043-0.055-0.076-0.145-0.102-0.269c-0.018-0.093-0.029-0.233-0.033-0.427
			c-0.006-0.19-0.018-0.332-0.035-0.426c-0.022-0.123-0.078-0.24-0.165-0.353c-0.006-0.03-0.01-0.094-0.013-0.19
			c-0.002-0.096-0.009-0.174-0.021-0.236c-0.019-0.092-0.047-0.15-0.082-0.176c0.012-0.098,0.002-0.241-0.034-0.426
			c-0.061-0.309-0.196-0.555-0.407-0.738c-0.213-0.182-0.458-0.248-0.735-0.194l-0.187,0.036c-0.117,0.056-0.325,0.304-0.624,0.746
			c0.022,0.123,0.021,0.285-0.003,0.482c-0.027,0.196-0.03,0.342-0.012,0.436l0.054,0.277c0.006,0.03-0.001,0.08-0.021,0.147
			l-0.026,0.103l0.055,0.037c0.036,0.024,0.058,0.053,0.063,0.084c0.042,0.217,0.051,0.344,0.025,0.379l-0.086,0.307l0.074,0.13
			l-0.033,0.823c0.006,0.031,0.028,0.107,0.068,0.228c0.039,0.122,0.063,0.212,0.076,0.274c0.035,0.186,0.022,0.363-0.04,0.537
			c0.109,0.236,0.174,0.399,0.191,0.492l0.045,0.231c0.013,0.063-0.005,0.146-0.048,0.25c-0.045,0.104-0.061,0.188-0.048,0.25
			c0.006,0.03,0.031,0.082,0.078,0.153c0.046,0.07,0.074,0.138,0.086,0.199l0.019,0.092c0.019,0.094,0.009,0.207-0.029,0.344
			c-0.038,0.136-0.052,0.232-0.038,0.296c0.133,0.358,0.218,0.631,0.254,0.815l0.036,0.186c0.012,0.063,0.003,0.145-0.024,0.246
			c-0.028,0.102-0.037,0.186-0.024,0.245l0.099,0.511c0.013,0.063,0.003,0.176-0.028,0.342c-0.033,0.166-0.039,0.297-0.021,0.389
			c0.006,0.033,0.045,0.072,0.12,0.121c0.072,0.051,0.101,0.108,0.082,0.178c0.043,0.057,0.054,0.109,0.03,0.162
			c-0.021,0.052-0.028,0.094-0.022,0.125c0.121,0.137,0.204,0.313,0.246,0.529l0.144,0.741c0.006,0.031,0,0.081-0.02,0.149
			c-0.02,0.066-0.025,0.115-0.02,0.146c0.006,0.03,0.024,0.084,0.056,0.158c0.028,0.074,0.051,0.143,0.063,0.204l0.019,0.093
			c0.013,0.063-0.01,0.155-0.066,0.277c-0.055,0.123-0.076,0.216-0.064,0.277c0.013,0.063,0.047,0.168,0.108,0.315
			c0.061,0.147,0.1,0.269,0.118,0.36c0.018,0.094,0.018,0.175-0.001,0.242c0.012,0.063-0.002,0.162-0.039,0.295
			c-0.039,0.137-0.051,0.236-0.039,0.297c0.019,0.093,0.057,0.253,0.118,0.482c0.061,0.229,0.086,0.409,0.08,0.539
			c-0.025,0.037-0.063,0.131-0.114,0.286c-0.05,0.153-0.101,0.269-0.149,0.341c-0.02,0.069-0.02,0.148-0.002,0.242
			c0.02,0.094,0.03,0.155,0.036,0.186c0.006,0.031-0.031,0.086-0.111,0.166c-0.079,0.08-0.114,0.151-0.104,0.213
			c-0.279,0.215-0.496,0.336-0.65,0.365l-0.093,0.019c-0.031,0.006-0.063,0.045-0.098,0.114c-0.034,0.072-0.068,0.109-0.099,0.115
			l-0.093,0.019c-0.093,0.019-0.204,0.022-0.334,0.017c-0.13-0.007-0.21-0.008-0.24-0.002c-0.093,0.018-0.151,0.045-0.177,0.083
			c-0.067-0.019-0.191-0.036-0.369-0.049c-0.18-0.013-0.304-0.028-0.371-0.049c-0.067-0.019-0.126,0.009-0.177,0.081l-0.046,0.01
			c-0.136-0.037-0.31-0.02-0.52,0.053c-0.211,0.073-0.338,0.084-0.381,0.026l-0.556,0.108c-0.087-0.112-0.132-0.184-0.138-0.213
			c-0.39-0.022-0.732-0.308-1.032-0.859c-0.012-0.063-0.015-0.118-0.009-0.168c0.007-0.049,0.007-0.088,0.001-0.12
			c-0.006-0.03-0.058-0.046-0.153-0.042c-0.095,0.003-0.146-0.012-0.151-0.042c-0.023-0.123-0.098-0.255-0.22-0.39
			c-0.123-0.137-0.192-0.252-0.212-0.345l-0.018-0.093l-0.266-0.622c-0.006-0.028-0.022-0.075-0.051-0.134
			c-0.026-0.059-0.043-0.104-0.049-0.135l-0.081-0.418c-0.019-0.092-0.053-0.182-0.101-0.269c-0.051-0.087-0.079-0.161-0.092-0.224
			c-0.007-0.029-0.008-0.078-0.005-0.143c0.004-0.063,0-0.127-0.013-0.189l-0.063-0.084c-0.012-0.061-0.021-0.107-0.026-0.139
			l-0.019-0.094c-0.018-0.092-0.059-0.26-0.123-0.505c-0.063-0.243-0.104-0.428-0.13-0.551c-0.029-0.154-0.038-0.361-0.023-0.621
			l-0.194-0.251c0.014-0.1,0.006-0.225-0.022-0.379c-0.03-0.154-0.11-0.396-0.237-0.725c-0.128-0.328-0.21-0.584-0.246-0.77
			l-0.158-1.557l-0.09-0.463l-0.009-0.047c0.02-0.068,0.026-0.117,0.021-0.149l-0.025-0.14c-0.03-0.154-0.107-0.379-0.229-0.677
			c-0.078-0.241-0.166-0.608-0.262-1.104c-0.065-0.34-0.098-0.588-0.098-0.75c-0.034-0.506-0.087-0.945-0.158-1.316
			c-0.119-0.617-0.28-1.115-0.483-1.494c-0.022-0.121-0.024-0.219-0.007-0.287c-0.165-0.191-0.449-0.248-0.851-0.17
			c-0.218,0.041-0.368,0.086-0.455,0.135c-0.29,0.153-0.532,0.473-0.728,0.959l-0.199,0.472c0.008,0.03,0.017,0.077,0.027,0.139
			c0.012,0.063,0.006,0.112-0.02,0.147c0.007,0.031-0.027,0.103-0.103,0.213l0.043,0.472c0.013,0.063,0.021,0.157,0.03,0.284
			c0.008,0.127,0.019,0.221,0.03,0.283c0.006,0.029,0.028,0.107,0.067,0.226c0.039,0.122,0.066,0.212,0.078,0.274l0.027,0.139
			c0.012,0.063-0.009,0.13-0.06,0.204c-0.049,0.075-0.07,0.126-0.064,0.157c-0.014,0.099,0.012,0.223,0.071,0.371
			c0.063,0.148,0.063,0.244,0.009,0.287c0.018,0.092,0.06,0.18,0.123,0.265c0.064,0.083,0.103,0.155,0.113,0.218l0.02,0.094
			c0.022,0.123,0.021,0.284-0.003,0.48c-0.027,0.199-0.029,0.343-0.013,0.436l0.027,0.139c0.012,0.064,0.057,0.134,0.137,0.214
			c0.079,0.082,0.13,0.168,0.146,0.26c0.006,0.032,0.006,0.072,0,0.121c-0.008,0.049-0.007,0.089-0.001,0.121
			c0.019,0.093,0.068,0.188,0.149,0.282c0.085,0.098,0.129,0.162,0.135,0.191c0.049,0.088,0.101,0.229,0.154,0.428
			c0.055,0.199,0.089,0.328,0.101,0.389c0.03,0.154,0.072,0.292,0.127,0.408c0.012,0.063,0.047,0.16,0.104,0.293
			c0.059,0.133,0.094,0.23,0.105,0.291c0.012,0.063,0.004,0.144-0.025,0.246c-0.027,0.102-0.036,0.184-0.023,0.244l0.055,0.279
			c0.036,0.186,0.027,0.314-0.021,0.389c0.151,0.131,0.257,0.334,0.311,0.612c0.024,0.125,0.03,0.315,0.017,0.575
			c-0.021,0.066,0.004,0.109,0.072,0.13l0.111,0.074c0.004,0.192,0.081,0.338,0.229,0.437c0.019,0.094,0.025,0.221,0.023,0.381
			c0,0.16,0.005,0.271,0.018,0.332c0.029,0.155,0.101,0.271,0.211,0.344c0.024,0.125,0.037,0.275,0.04,0.451
			c0,0.176,0.011,0.311,0.028,0.401l0.026,0.14c0.019,0.094,0.025,0.211,0.021,0.356c-0.003,0.146,0.001,0.249,0.013,0.31
			c0.024,0.125,0.072,0.211,0.146,0.26c-0.001,0.322-0.042,0.521-0.122,0.603l0.063,0.324l-0.224,0.332
			c0.061,0.31,0.033,0.587-0.079,0.833c-0.149,0.223-0.334,0.354-0.55,0.395c-0.024,0.039-0.063,0.086-0.116,0.144
			c-0.054,0.06-0.092,0.106-0.117,0.144c-0.062,0.012-0.173,0.057-0.334,0.137c-0.16,0.08-0.286,0.127-0.38,0.146l-0.14,0.026
			l-0.046,0.01c-0.068-0.018-0.117-0.025-0.147-0.02l-0.509-0.142c-0.031,0.006-0.05,0.033-0.057,0.083
			c-0.008,0.049-0.041,0.08-0.104,0.092c-0.537,0.041-0.845,0.02-0.926-0.063c-0.057,0.045-0.103,0.054-0.139,0.027
			c-0.037-0.022-0.087-0.031-0.148-0.019c-0.189-0.155-0.667-0.222-1.434-0.203c-0.197-0.026-0.35-0.06-0.453-0.104
			c-0.05-0.086-0.125-0.185-0.226-0.291c-0.103-0.109-0.178-0.207-0.227-0.293c-0.528-0.412-0.825-0.787-0.892-1.125l-0.019-0.094
			c-0.007-0.031-0.028-0.066-0.067-0.107c-0.04-0.039-0.063-0.075-0.069-0.106c-0.006-0.03-0.008-0.079-0.003-0.144
			c0.003-0.064,0.002-0.111-0.005-0.145c-0.019-0.093-0.065-0.252-0.141-0.478c-0.076-0.226-0.127-0.401-0.149-0.524
			c-0.042-0.216-0.034-0.426,0.021-0.629c-0.128-0.167-0.213-0.359-0.256-0.576c-0.018-0.094-0.037-0.234-0.057-0.421
			c-0.021-0.188-0.037-0.313-0.049-0.375c-0.029-0.153-0.097-0.405-0.195-0.757c-0.1-0.35-0.17-0.631-0.212-0.848
			c-0.239-1.236-0.406-2.184-0.502-2.838l-0.128-0.166l-0.036-0.187c-0.029-0.153-0.03-0.362-0.001-0.625
			c0.028-0.262,0.03-0.455,0.007-0.577c0.002-0.16-0.024-0.381-0.079-0.66c-0.054-0.277-0.096-0.494-0.125-0.648
			c-0.024-0.123-0.054-0.311-0.085-0.561c-0.032-0.25-0.063-0.451-0.093-0.607l-0.056-0.277c-0.11-0.074-0.182-0.188-0.211-0.344
			l-0.09-0.465c-0.006-0.029-0.022-0.075-0.05-0.135c-0.028-0.058-0.044-0.104-0.051-0.135c-0.019-0.092-0.025-0.26-0.024-0.5
			c0.002-0.24-0.007-0.406-0.024-0.5c-0.019-0.094-0.077-0.232-0.179-0.422s-0.156-0.314-0.169-0.377
			c-0.019-0.093-0.055-0.238-0.108-0.436c-0.055-0.197-0.106-0.34-0.153-0.428c-0.024-0.121-0.062-0.315-0.112-0.578
			c-0.05-0.264-0.089-0.457-0.111-0.58l0.021-0.629c-0.066-0.181-0.072-0.459-0.019-0.84c0.055-0.377,0.043-0.688-0.036-0.93
			c0.024-0.036,0.065-0.158,0.122-0.359c0.093-0.019,0.167-0.049,0.224-0.092l0.028-0.104c-0.007-0.029,0.007-0.049,0.038-0.055
			c0.021-0.035,0.097-0.074,0.219-0.113c0.119-0.041,0.211-0.065,0.271-0.078C28.934,94.483,29.295,94.366,29.574,94.312z
			 M52.258,104.392c-0.063,0.012-0.105,0.037-0.13,0.073C52.221,104.448,52.264,104.422,52.258,104.392z M52.609,110.915
			l-0.026-0.141l-0.046,0.01c-0.025,0.039-0.058,0.043-0.094,0.018C52.429,110.9,52.486,110.938,52.609,110.915z"/>
	</g>
	<g>
		<path fill="#231F20" d="M70.829,87.228c0.03,0.034,0.127,0.071,0.289,0.112c0.161,0.041,0.256,0.095,0.285,0.162l0.195,0.01
			c0.261,0.013,0.422,0.054,0.483,0.123c0.031,0,0.051-0.014,0.052-0.047l0.049,0.002c0.099,0.004,0.269,0.045,0.509,0.123
			c0.241,0.078,0.41,0.119,0.51,0.123c0.098,0.006,0.18-0.006,0.247-0.037c-0.003,0.033-0.005,0.066-0.006,0.099
			c-0.002,0.033-0.003,0.065-0.005,0.099l0.293,0.014c0.03,0.035,0.029,0.068-0.005,0.099l-0.003,0.05
			c0.098,0.004,0.178,0.041,0.24,0.109c0.062,0.068,0.125,0.104,0.189,0.107c0.031,0.035,0.095,0.103,0.188,0.205
			c0.092,0.104,0.136,0.203,0.131,0.301l0.141,0.154c-0.003,0.065,0.009,0.147,0.037,0.248c0.027,0.1,0.04,0.166,0.039,0.197
			c-0.005,0.098-0.005,0.238,0.003,0.417c0.008,0.181,0.025,0.319,0.054,0.42c0.026,0.099,0.079,0.218,0.154,0.351
			c0.074,0.136,0.11,0.235,0.107,0.301c-0.002,0.033-0.021,0.064-0.054,0.095c-0.033-0.002-0.051,0.015-0.053,0.046
			c-0.003,0.066,0.032,0.157,0.109,0.275c0.074,0.119,0.11,0.21,0.107,0.275c-0.002,0.032-0.055,0.096-0.155,0.188
			c-0.104,0.093-0.155,0.172-0.159,0.236c-0.003,0.066,0.021,0.107,0.067,0.125c0.048,0.021,0.07,0.045,0.068,0.078
			c-0.046,0.26-0.022,0.473,0.065,0.642l-0.214,0.381l-0.31,0.278c0.027,0.1,0.123,0.154,0.287,0.162
			c0.03,0.035,0.049,0.143,0.058,0.322c0.007,0.18,0.042,0.305,0.104,0.372c-0.081,0.323-0.124,0.533-0.129,0.632
			c-0.006,0.131,0.005,0.213,0.036,0.246L74.83,95.42c-0.004,0.066-0.074,0.193-0.214,0.381c0.058,0.135,0.081,0.332,0.067,0.593
			c-0.013,0.261,0.026,0.459,0.116,0.595c-0.002,0.032-0.029,0.096-0.082,0.191c-0.054,0.095-0.049,0.16,0.014,0.197
			c-0.033,0.031-0.083,0.043-0.146,0.041l-0.013,0.246c-0.035,0.031-0.102,0.043-0.198,0.039c-0.002,0.032,0.025,0.106,0.086,0.225
			c0.061,0.117,0.089,0.207,0.086,0.273c-0.007,0.131-0.077,0.209-0.209,0.234c-0.003,0.064,0.063,0.346,0.204,0.844
			c-0.033-0.003-0.066,0.014-0.102,0.043l-0.052,0.047l0.22,0.5c-0.002,0.033-0.026,0.072-0.077,0.119
			c-0.053,0.047-0.078,0.086-0.08,0.118c-0.001,0.033,0.042,0.149,0.129,0.351c-0.081,0.322-0.126,0.582-0.137,0.776
			c-0.017,0.326,0.033,0.623,0.15,0.89c-0.103,0.094-0.156,0.207-0.162,0.336c-0.004,0.065,0.022,0.197,0.077,0.396
			c-0.005,0.099-0.072,0.144-0.202,0.138c0.047,0.361,0.117,0.577,0.212,0.646c-0.003,0.066-0.055,0.111-0.152,0.141l-0.109,0.239
			c-0.002,0.032-0.012,0.065-0.029,0.097c-0.02,0.032-0.013,0.082,0.018,0.147c-0.003,0.065,0.044,0.101,0.141,0.104
			c-0.015,0.293-0.005,0.44,0.027,0.442c-0.034,0.03-0.054,0.08-0.057,0.146c-0.002,0.033,0.027,0.099,0.088,0.201l0.092,0.15
			c-0.035,0.031-0.087,0.086-0.156,0.164c-0.068,0.078-0.12,0.133-0.153,0.164c-0.002,0.033,0.027,0.082,0.089,0.15
			c0.063,0.069,0.108,0.121,0.142,0.154c-0.078,0.225-0.149,0.354-0.215,0.381l-0.011,0.195c-0.007,0.131-0.053,0.391-0.137,0.777
			c0.123,0.138,0.181,0.287,0.172,0.451c-0.003,0.065-0.038,0.129-0.105,0.189c-0.017,0.327-0.063,0.568-0.135,0.729
			c0.03,0.035,0.044,0.108,0.038,0.223c-0.006,0.115,0.005,0.205,0.035,0.271l-0.206,0.186c-0.012,0.23-0.035,0.375-0.069,0.439
			l0.099,0.004c0.063,0.004,0.097,0.021,0.095,0.055c0.059,0.133,0.034,0.295-0.073,0.486c0.053,0.264,0.074,0.477,0.066,0.641
			L74,111.161c0.085,0.233,0.06,0.412-0.076,0.537c0.084,0.264,0.119,0.545,0.104,0.838l-0.007,0.146
			c0.063,0.068,0.09,0.176,0.082,0.322c-0.007,0.146,0.004,0.236,0.036,0.271c-0.035,0.03-0.071,0.094-0.108,0.189
			c-0.036,0.097-0.073,0.16-0.106,0.191c-0.007,0.131-0.026,0.211-0.062,0.242c-0.065,0.029-0.145,0.092-0.229,0.186
			c-0.086,0.094-0.146,0.156-0.181,0.188c-0.007,0.13-0.063,0.258-0.166,0.385c-0.104,0.125-0.159,0.236-0.164,0.334l-0.053,0.047
			c-0.031-0.002-0.063-0.004-0.097-0.006c0.029,0.066,0.008,0.164-0.063,0.291l-0.152,0.09c-0.104,0.094-0.188,0.139-0.252,0.135
			c-0.002,0.033-0.036,0.08-0.105,0.143c-0.067,0.063-0.12,0.124-0.155,0.188c-0.065-0.002-0.147,0.018-0.247,0.062
			c-0.102,0.044-0.167,0.065-0.199,0.063c-0.033,0-0.081-0.021-0.146-0.057c-0.199,0.088-0.396,0.127-0.593,0.118
			c-0.196-0.01-0.494-0.09-0.896-0.241c-0.4-0.15-0.717-0.232-0.944-0.242c-0.065-0.004-0.104-0.029-0.118-0.08
			c-0.014-0.049-0.037-0.076-0.068-0.078l-0.196-0.01c-0.134,0.06-0.268,0.086-0.396,0.08c-0.391-0.021-0.79-0.205-1.196-0.551
			c0.007-0.131-0.023-0.197-0.089-0.201l-0.195-0.01c-0.031-0.035-0.102-0.119-0.207-0.255c-0.108-0.136-0.192-0.254-0.252-0.354
			c0.002-0.033,0.02-0.065,0.054-0.097l0.098,0.005c-0.186-0.205-0.319-0.457-0.402-0.755c0.001-0.032,0.026-0.065,0.078-0.095
			c0.05-0.03,0.075-0.063,0.077-0.094c0.002-0.032-0.013-0.092-0.04-0.174c-0.028-0.084-0.026-0.125,0.007-0.123
			c0.003-0.064-0.061-0.133-0.187-0.205c0.033-0.03,0.036-0.088,0.008-0.17c-0.028-0.084-0.043-0.143-0.041-0.174
			c0.037-0.096,0.059-0.16,0.061-0.193l0.015-0.293c0.002-0.032-0.013-0.09-0.041-0.174c-0.027-0.082-0.04-0.156-0.037-0.223
			l0.005-0.098l-0.047-0.051c0.002-0.033,0.004-0.066,0.005-0.099c0.003-0.032-0.001-0.131-0.01-0.295
			c-0.008-0.164-0.026-0.278-0.056-0.345c0.033-0.032,0.071-0.111,0.108-0.24c0.039-0.128,0.075-0.208,0.109-0.24l-0.131-0.301
			c0.071-0.127,0.108-0.223,0.112-0.288l0.05-0.047c0.002-0.032,0.003-0.065,0.005-0.099l0.008-0.146
			c0.003-0.065,0-0.163-0.01-0.295c-0.011-0.13-0.012-0.245-0.007-0.343s0.026-0.234,0.067-0.413
			c0.041-0.177,0.065-0.315,0.07-0.413l0.008-0.146c0.003-0.064-0.025-0.131-0.088-0.201c0.039-0.781,0.097-1.318,0.178-1.608
			c0.002-0.032,0.02-0.063,0.055-0.097l0.052-0.045c-0.03-0.067-0.041-0.174-0.033-0.321c0.007-0.146,0.013-0.252,0.017-0.317
			l-0.044-0.101c-0.031-0.034-0.048-0.067-0.046-0.101c0.002-0.031,0.022-0.113,0.063-0.242c0.038-0.129,0.06-0.225,0.063-0.291
			c-0.09-0.168-0.101-0.283-0.03-0.346c-0.031-0.033-0.045-0.101-0.04-0.197c0.003-0.065,0.015-0.146,0.037-0.244
			c0.021-0.098,0.032-0.161,0.033-0.194c0.005-0.065,0-0.163-0.01-0.295c-0.011-0.13-0.015-0.212-0.013-0.246
			c0.006-0.13,0.062-0.241,0.164-0.335c-0.029-0.066-0.085-0.109-0.166-0.131c-0.079-0.02-0.136-0.047-0.166-0.082
			c-0.034,0.031-0.215,0.038-0.541,0.021c-0.098-0.004-0.163,0.01-0.197,0.041c-0.063-0.037-0.177-0.059-0.34-0.066
			c-0.065-0.003-0.205,0.007-0.418,0.029c-0.214,0.021-0.385,0.014-0.515-0.026c-0.032-0.001-0.098-0.028-0.191-0.083
			c-0.095-0.053-0.159-0.081-0.191-0.083c-0.031-0.001-0.09-0.004-0.171-0.008c-0.082-0.005-0.14-0.022-0.17-0.058l-0.046-0.051
			c-0.032-0.003-0.064-0.004-0.098-0.006l-0.188-0.156l-0.244-0.012l-0.765-0.381c-0.131-0.006-0.214,0.006-0.248,0.037
			c-0.095-0.07-0.31-0.17-0.646-0.303c-0.337-0.129-0.567-0.264-0.69-0.401l-0.245-0.013c-0.093-0.102-0.217-0.23-0.373-0.385
			c-0.154-0.154-0.304-0.301-0.443-0.438s-0.255-0.29-0.345-0.458c-0.377-0.313-0.593-0.568-0.647-0.768
			c-0.093-0.104-0.199-0.289-0.315-0.556c-0.118-0.269-0.191-0.435-0.221-0.501l0.01-0.195c-0.062-0.068-0.106-0.137-0.136-0.203
			l0.002-0.049l0.054-0.096c-0.239-0.469-0.343-0.998-0.313-1.584l0.023-0.488c0.003-0.064-0.001-0.139-0.014-0.222
			c-0.013-0.082-0.018-0.14-0.016-0.172c0.005-0.099,0.022-0.162,0.059-0.192c0.001-0.033-0.001-0.14-0.009-0.318
			c-0.008-0.18,0.006-0.303,0.043-0.366l0.162-0.286c0.001-0.032-0.006-0.064-0.021-0.1c-0.016-0.032-0.021-0.066-0.02-0.1
			c0.001-0.031,0.011-0.072,0.029-0.121c0.02-0.048,0.029-0.088,0.031-0.121c0.003-0.064-0.01-0.154-0.036-0.271
			c-0.025-0.115-0.038-0.222-0.032-0.32l0.074-0.534l0.008-0.147c0.014-0.261,0.037-0.406,0.071-0.438l0.005-0.098
			c0.004-0.064,0.024-0.178,0.066-0.34c0.04-0.161,0.063-0.291,0.068-0.389l0.007-0.146c0.031,0.001,0.073-0.004,0.123-0.02
			c0.05-0.014,0.092-0.035,0.125-0.066c0.002-0.032-0.015-0.059-0.044-0.076c-0.031-0.018-0.029-0.059,0.006-0.123
			c0.002-0.031,0.034-0.055,0.102-0.068c0.065-0.013,0.101-0.035,0.103-0.068c-0.061-0.133-0.086-0.25-0.081-0.348l0.054-0.096
			c0.035-0.064,0.056-0.128,0.059-0.193l0.006-0.098l0.101-0.043c0.035-0.063,0.057-0.169,0.063-0.316
			c0.008-0.146,0.046-0.25,0.114-0.313c0.018-0.324,0.057-0.486,0.122-0.484c0.007-0.129,0.036-0.234,0.089-0.313
			c0.054-0.079,0.131-0.165,0.233-0.259c0.103-0.092,0.172-0.17,0.207-0.233c0.165-0.024,0.544-0.071,1.135-0.14
			c0.032,0,0.08,0.037,0.144,0.104c0.099-0.027,0.264-0.068,0.495-0.121l0.099,0.004l0.74-0.109c0.229,0.011,0.502,0.09,0.821,0.236
			c0.032,0.002,0.082-0.012,0.149-0.041c0.127,0.039,0.288,0.111,0.479,0.219c0.191,0.107,0.334,0.181,0.432,0.218
			c0.024,0.132,0.115,0.274,0.271,0.431c0.155,0.154,0.246,0.313,0.271,0.479l0.138,0.203c-0.002,0.033-0.021,0.09-0.058,0.168
			c-0.037,0.08-0.041,0.154-0.012,0.221c-0.002,0.033,0.021,0.066,0.068,0.102c0.046,0.037,0.069,0.069,0.067,0.103l-0.002,0.049
			c-0.035,0.032-0.054,0.063-0.055,0.097c-0.002,0.032,0.014,0.049,0.046,0.051l0.044,0.101l-0.051,0.046l-0.013,0.244
			c0.225,0.078,0.33,0.279,0.313,0.604c-0.005,0.099-0.024,0.18-0.061,0.242c-0.002,0.033,0.013,0.051,0.046,0.051l0.096,0.055
			c0.027,0.1,0.029,0.23,0.005,0.393c-0.024,0.163-0.021,0.277,0.008,0.344c-0.073,0.16-0.08,0.291-0.021,0.392
			c-0.064-0.003-0.114,0.011-0.147,0.042l0.106,0.79c-0.04,0.161-0.066,0.372-0.08,0.634c-0.009,0.163,0.002,0.604,0.031,1.325
			c-0.103,0.093-0.127,0.256-0.073,0.487c-0.001,0.033-0.02,0.063-0.054,0.095l-0.051,0.047c-0.035,0.03-0.036,0.063-0.005,0.097
			l0.095,0.055c0.031,0.035,0.029,0.074-0.006,0.123c-0.034,0.047-0.055,0.088-0.056,0.119c0.03,0.034,0.041,0.149,0.031,0.346
			l0.047,0.051c0.029,0.066,0.044,0.117,0.042,0.148l-0.055,0.096c-0.022,0.457,0.028,0.754,0.152,0.89
			c-0.004,0.065,0,0.14,0.013,0.222s0.018,0.14,0.017,0.172l-0.005,0.098c0.093,0.104,0.165,0.271,0.222,0.501
			c0.053,0.231,0.109,0.397,0.171,0.499l0.426,0.314c0.063,0.037,0.129,0.023,0.197-0.039c0.068-0.062,0.135-0.09,0.2-0.088
			l0.164-0.334c0.133-0.059,0.247-0.225,0.344-0.498c0.095-0.273,0.16-0.441,0.195-0.506c0.032,0.002,0.136-0.074,0.308-0.229
			c-0.031-0.034-0.045-0.083-0.042-0.148c0.003-0.066-0.012-0.115-0.041-0.15c0.065-0.027,0.128-0.115,0.184-0.26
			c0.057-0.144,0.135-0.246,0.235-0.307c0.002-0.031,0.028-0.098,0.083-0.191c0.054-0.096,0.05-0.162-0.016-0.197
			c0.069-0.061,0.135-0.197,0.193-0.406s0.139-0.344,0.24-0.404c-0.064-0.035-0.095-0.087-0.091-0.152
			c0.004-0.063,0.037-0.111,0.104-0.141c-0.031-0.035-0.045-0.084-0.042-0.15c0.004-0.063,0.033-0.16,0.088-0.289
			c0.057-0.127,0.085-0.209,0.087-0.241l0.002-0.05c-0.03-0.033-0.047-0.066-0.045-0.1c0.016-0.293,0.113-0.648,0.298-1.063
			c-0.059-0.134-0.086-0.233-0.083-0.298c0.003-0.065,0.034-0.194,0.094-0.389c0.059-0.193,0.09-0.338,0.095-0.436
			c0.007-0.131,0.009-0.326,0.005-0.588c-0.003-0.262-0.001-0.459,0.005-0.588l0.005-0.098c0.034-0.031,0.054-0.064,0.055-0.097
			l0.008-0.146c0.005-0.099-0.004-0.252-0.026-0.467c-0.021-0.214-0.03-0.371-0.024-0.468l0.008-0.146
			c0.001-0.032,0.02-0.08,0.056-0.146c0.035-0.063,0.055-0.11,0.056-0.144l0.011-0.196c0.002-0.032,0.021-0.063,0.054-0.095
			c0.069-0.063,0.104-0.109,0.106-0.143l0.49-1.005c0.399-0.144,0.763-0.207,1.088-0.19C70.805,87.374,70.824,87.325,70.829,87.228z
			"/>
	</g>
	<g>
		<g>
			<path fill="#BE1E2D" d="M79.167,120.773c-5.243-4.267,0.224-4.522-0.248-14.211c-0.367-7.53-4.889-20.838,3.864-26.875
				c9.933-6.853,19.419-0.788,15.837,8.263s1.445,3.559,4.027,1.416c5.284-4.859,21.729-6.195,19.296,12.649
				C118.744,124.154,90.447,129.945,79.167,120.773z"/>
			<path fill="#231F20" d="M92.896,125.702c-5.712,0-10.756-1.543-14.203-4.347c-3.217-2.618-2.854-4.071-1.875-6.627
				c0.654-1.706,1.552-4.042,1.353-8.129c-0.077-1.575-0.345-3.445-0.628-5.425c-1.091-7.616-2.448-17.094,4.814-22.104
				c2.921-2.016,5.998-3.081,8.899-3.081c3.219,0,5.966,1.325,7.536,3.634c1.602,2.355,1.787,5.41,0.523,8.601
				c-0.943,2.386-1.159,3.448-1.191,3.903c0.684-0.357,2.014-1.547,2.777-2.232c0.452-0.404,0.886-0.792,1.268-1.107
				c2.15-1.98,5.839-3.277,9.364-3.277c3.453,0,6.447,1.242,8.432,3.498c2.554,2.904,3.47,7.314,2.723,13.103
				C120.449,117.602,106.006,125.702,92.896,125.702z M91.256,77.491c-2.596,0-5.378,0.973-8.048,2.814
				c-6.498,4.482-5.214,13.451-4.184,20.656c0.289,2.016,0.563,3.92,0.643,5.564c0.215,4.404-0.747,6.91-1.449,8.74
				c-0.824,2.148-1.102,2.873,1.422,4.926c3.18,2.585,7.888,4.01,13.256,4.01c12.465,0,26.19-7.658,28.307-22.293
				c0.688-5.332-0.106-9.342-2.362-11.908c-2.172-2.469-5.172-2.988-7.306-2.988c-3.121,0-6.488,1.167-8.379,2.904
				c-0.396,0.332-0.814,0.707-1.252,1.097c-1.891,1.692-3.106,2.719-4.063,2.719c-0.403,0-0.745-0.177-0.965-0.5
				c-0.438-0.644-0.427-1.836,1.047-5.56c1.074-2.715,0.942-5.273-0.37-7.205C96.265,78.575,93.97,77.491,91.256,77.491z"/>
		</g>
		<path fill="#FFFFFF" d="M119.799,99.27c0.168,3.039-2.713,6.42-3.633,4.518c-0.849-1.762,1.863-4.565,0.158-6.229
			c-1.707-1.664-8.854-1.937-7.435-4.994S119.255,89.389,119.799,99.27z"/>
		<path fill="#77111A" d="M90.632,78.618c0,0,2.679-0.646,5.102,1.252c2.427,1.897,2.796,5.17,0.646,8.323
			c-1.01,1.479-1.021,2.377-1.05,3.14c-0.074,1.805-2.11,1.969-2.163-0.287c-0.052-2.256,1.944-3.801,0.903-5.484
			c-1.043-1.684-3.371-2.096-4.617-2C88.202,83.659,85.016,79.25,90.632,78.618z"/>
		<path fill="#FFFFFF" d="M113.215,105.07c0,0-2.783,0.58-2.708,3.591c0.069,3.01,3.681,2.241,4.139-0.675
			C115.108,105.068,113.215,105.07,113.215,105.07z"/>
	</g>
	<g>
		<path fill="#231F20" d="M97.971,121.105l0.152,0.073c0.372,0.18,0.575,0.32,0.611,0.421c0.116,0.015,0.295,0.08,0.532,0.194
			c0.136,0.064,0.318,0.164,0.547,0.295c0.229,0.131,0.378,0.213,0.445,0.246c0.102,0.049,0.259,0.115,0.47,0.197
			c0.212,0.08,0.369,0.146,0.471,0.195c0.033,0.016,0.075,0.059,0.129,0.125c0.051,0.066,0.094,0.107,0.128,0.125
			c0.032,0.016,0.096,0.037,0.189,0.061c0.091,0.024,0.173,0.053,0.241,0.086c0.033,0.016,0.198,0.106,0.495,0.271
			c0.297,0.165,0.514,0.321,0.651,0.472c0.065,0.031,0.125,0.039,0.176,0.021l0.103,0.049c0.086,0.167,0.214,0.292,0.384,0.374
			l0.203,0.099c0.067,0.031,0.19,0.082,0.369,0.146c0.178,0.065,0.316,0.122,0.419,0.172l0.151,0.073
			c0.068,0.031,0.221,0.148,0.46,0.347c0.392,0.313,0.622,0.614,0.693,0.899c0.018,0.051,0.046,0.168,0.082,0.353
			c0.035,0.185,0.069,0.327,0.105,0.429c0.018,0.049,0.038,0.133,0.066,0.25c0.025,0.118,0.041,0.219,0.043,0.303l-0.245,0.635
			c-0.248,0.341-0.547,0.613-0.897,0.82c-0.286,0.156-0.526,0.227-0.729,0.213c-0.085,0-0.221-0.022-0.405-0.07
			c-0.188-0.048-0.321-0.07-0.405-0.07c-0.168,0.002-0.32-0.029-0.456-0.095c-0.067-0.033-0.152-0.116-0.255-0.249
			c-0.286,0.07-0.717-0.033-1.293-0.311l-1.018-0.492c-0.135-0.064-0.377-0.172-0.725-0.317s-0.621-0.271-0.825-0.368l-0.355-0.171
			c-0.12-0.099-0.289-0.181-0.509-0.245c-0.103-0.05-0.226-0.119-0.369-0.209c-0.145-0.091-0.25-0.152-0.317-0.186
			c-0.068-0.033-0.166-0.069-0.293-0.109c-0.127-0.041-0.224-0.076-0.291-0.109s-0.157-0.086-0.268-0.162
			c-0.111-0.073-0.183-0.119-0.217-0.135c-0.17-0.084-0.306-0.105-0.404-0.07c0,0.085-0.031,0.195-0.097,0.33
			c-0.253,0.002-0.405,0.014-0.455,0.031c0.017,0.049-0.015,0.16-0.097,0.33l-0.198,0.279c-0.032,0.068-0.101,0.119-0.199,0.154
			c-0.102,0.035-0.159,0.07-0.176,0.104c0.017,0.051,0.001,0.084-0.049,0.102l0.076,0.101c0.033,0.017,0.042,0.042,0.026,0.076
			c-0.065,0.219-0.245,0.655-0.538,1.308c-0.295,0.653-0.463,1.156-0.51,1.51c-0.232,0.224-0.383,0.359-0.449,0.41
			c0,0.084,0.036,0.144,0.104,0.176c0.067,0.033,0.094,0.066,0.077,0.101c-0.132,0.271-0.239,0.449-0.321,0.535
			c0.021,0.219-0.02,0.43-0.117,0.633c-0.114,0.237-0.314,0.435-0.598,0.589c-0.032,0.068-0.078,0.141-0.137,0.217
			s-0.095,0.131-0.11,0.166c-0.099,0.203-0.218,0.49-0.354,0.862c-0.14,0.372-0.241,0.626-0.307,0.763
			c-0.082,0.17-0.164,0.295-0.246,0.381c0.138,0.234,0.225,0.485,0.263,0.754c0.103,0.05,0.258,0.115,0.469,0.195
			c0.213,0.082,0.353,0.139,0.421,0.172c0.169,0.082,0.34,0.205,0.511,0.371c0.371,0.096,0.659,0.193,0.861,0.293l0.483,0.295
			c0.019,0.051,0.095,0.15,0.231,0.301c0.138,0.15,0.205,0.266,0.207,0.35l0.202,0.098c0.019,0.051,0.088,0.211,0.209,0.479
			s0.241,0.451,0.36,0.55c-0.049,0.103-0.03,0.235,0.057,0.404c-0.102,0.034-0.157,0.133-0.173,0.292
			c-0.015,0.16-0.028,0.258-0.046,0.292l-0.049,0.103l-0.303,0.104c-0.032,0.067-0.125,0.149-0.273,0.243
			c-0.15,0.095-0.251,0.193-0.301,0.295c-0.05,0.018-0.126,0.002-0.228-0.047c-0.101,0.119-0.268,0.246-0.499,0.385l-0.786-0.191
			c-0.068-0.033-0.179-0.064-0.33-0.097c-0.102,0.036-0.185,0.036-0.252,0.003c-0.103-0.049-0.213-0.124-0.331-0.223
			c-0.119-0.1-0.23-0.174-0.332-0.223l-0.532-0.195l-0.152-0.073c-0.067-0.033-0.153-0.095-0.256-0.187
			c-0.103-0.09-0.171-0.146-0.205-0.162c-0.101-0.049-0.177-0.064-0.228-0.047c-0.149,0.053-0.291,0.215-0.422,0.486
			c-0.017,0.034-0.059,0.098-0.123,0.191c-0.066,0.093-0.116,0.174-0.149,0.242c-0.064,0.135-0.138,0.33-0.218,0.584
			c-0.082,0.254-0.146,0.431-0.195,0.533l-0.271,0.559c0.084,0.084,0.311,0.308,0.679,0.673c0.365,0.364,0.602,0.657,0.706,0.874
			c0.067,0.031,0.122,0.049,0.165,0.049c0.041-0.001,0.079,0.007,0.113,0.023c0.257,0.25,0.588,0.472,0.995,0.668
			c0.305,0.146,0.71,0.301,1.218,0.463c0.033,0.016,0.086,0.125,0.156,0.326c0.103,0.049,0.324,0.125,0.672,0.23
			c0.348,0.104,0.604,0.197,0.773,0.279c0.236,0.113,0.399,0.257,0.486,0.423c0.064-0.052,0.154-0.019,0.266,0.099
			c0.112,0.116,0.185,0.182,0.219,0.198l0.102,0.049c0.018,0.052,0.035,0.103,0.053,0.151l0.077,0.1l0.385,0.374
			c0.035,0.269,0.022,0.472-0.043,0.604c0.018,0.052,0.058,0.145,0.117,0.277c0.061,0.133,0.1,0.227,0.118,0.275
			c0.034,0.102-0.022,0.305-0.17,0.609c-0.131,0.271-0.254,0.44-0.37,0.51l-0.203,0.027c-0.399,0.225-0.702,0.33-0.904,0.315
			l-0.556-0.019l-0.254-0.123c-0.103-0.049-0.241-0.063-0.418-0.045c-0.177,0.021-0.299,0.014-0.367-0.021
			c-0.067-0.034-0.131-0.073-0.189-0.123c-0.062-0.05-0.107-0.083-0.142-0.101c-0.034-0.016-0.126,0.002-0.275,0.056
			c-0.104-0.05-0.271-0.067-0.507-0.056c-0.235,0.01-0.411,0.009-0.529-0.006c-0.069-0.033-0.226-0.101-0.472-0.196
			c-0.244-0.099-0.444-0.163-0.595-0.193c-0.306-0.063-0.593-0.161-0.864-0.292c-0.202-0.098-0.33-0.181-0.382-0.246l-0.178-0.023
			c-0.083,0-0.15,0.011-0.201,0.029c-0.052-0.068-0.145-0.135-0.28-0.199c-0.067-0.032-0.174-0.073-0.316-0.123
			c-0.145-0.047-0.25-0.088-0.317-0.121c-0.034-0.016-0.085-0.041-0.151-0.072l-0.026-0.076c-0.034-0.018-0.089-0.033-0.165-0.048
			c-0.076-0.017-0.131-0.032-0.164-0.049c-0.119-0.017-0.348-0.104-0.687-0.269l-0.712-0.345c-0.17,0.003-0.271-0.005-0.303-0.021
			c-0.119-0.016-0.28-0.072-0.482-0.17c-0.307-0.148-0.519-0.271-0.639-0.371l-0.327,0.029c-0.17-0.082-0.423-0.185-0.761-0.306
			c-0.34-0.122-0.593-0.224-0.763-0.306c-0.203-0.1-0.365-0.197-0.483-0.297c-0.036-0.102-0.182-0.274-0.437-0.523
			c-0.256-0.249-0.377-0.475-0.363-0.678c-0.068-0.032-0.136-0.129-0.206-0.287c-0.069-0.159-0.146-0.279-0.231-0.363
			c0.028-0.236-0.063-0.521-0.276-0.854c-0.216-0.334-0.341-0.551-0.375-0.651c0.065-0.135,0.046-0.271-0.056-0.403
			c0.031-0.066,0.061-0.147,0.085-0.24c0.021-0.094,0.044-0.157,0.061-0.191c-0.088-0.167-0.167-0.436-0.238-0.805
			c-0.002-0.084,0.03-0.151,0.099-0.204l0.023-0.052c-0.09-0.418-0.077-0.748,0.038-0.984l0.049-0.102
			c-0.021-0.219,0.052-0.582,0.212-1.09c0.16-0.507,0.216-0.877,0.162-1.113l0.05-0.103c0.031-0.067,0.056-0.202,0.069-0.405
			c0.015-0.201,0.037-0.336,0.07-0.404l0.147-0.178c-0.021-0.303,0.042-0.607,0.189-0.912c0.099-0.205,0.204-0.445,0.318-0.726
			c0.112-0.278,0.234-0.597,0.365-0.952c0.131-0.354,0.245-0.634,0.344-0.838l0.59-1.22c0.064-0.136,0.176-0.322,0.332-0.56
			c0.156-0.238,0.26-0.408,0.309-0.51c0.033-0.068,0.081-0.191,0.146-0.369c0.064-0.178,0.122-0.316,0.172-0.418
			c0.081-0.17,0.164-0.297,0.247-0.383c-0.02-0.05-0.01-0.066,0.023-0.051l0.127-0.001c0.37-1.201,0.662-2.021,0.875-2.462
			c0.05-0.102,0.174-0.271,0.372-0.51l-0.05-0.024c-0.069-0.032-0.095-0.065-0.078-0.101c0.099-0.203,0.267-0.529,0.504-0.979
			c0.238-0.449,0.414-0.792,0.529-1.029c0.016-0.033,0.04-0.105,0.073-0.215c0.031-0.111,0.063-0.199,0.097-0.268
			c0.065-0.135,0.174-0.229,0.324-0.282l-0.025-0.075c-0.067-0.033-0.068-0.074-0.002-0.125c0.494-0.766,0.931-1.537,1.308-2.316
			c0.049-0.018,0.122-0.036,0.215-0.055c0.092-0.018,0.162-0.035,0.214-0.053c-0.003-0.084-0.028-0.117-0.077-0.1
			c-0.051,0.018-0.085,0-0.102-0.049c0.098-0.205,0.26-0.408,0.481-0.613c0.227-0.206,0.379-0.352,0.462-0.436
			c0.033,0.016,0.093,0.002,0.178-0.041c0.082-0.043,0.157-0.049,0.228-0.016c0.132-0.104,0.38-0.182,0.741-0.236
			c0.359-0.056,0.606-0.136,0.742-0.238c0.032,0.017,0.295,0.08,0.784,0.19c0.203,0.099,0.381,0.079,0.529-0.058
			c0.018,0.05,0.061,0.092,0.129,0.125c0.067,0.031,0.193,0.052,0.379,0.058c0.187,0.007,0.295,0.017,0.33,0.033
			c0.116,0.017,0.278,0.071,0.481,0.17s0.391,0.231,0.561,0.396c0.067,0.033,0.169,0.062,0.306,0.084
			c0.135,0.024,0.257,0.052,0.366,0.084c0.109,0.031,0.217,0.072,0.317,0.121c0.033,0.017,0.075,0.059,0.128,0.125l0.102,0.049
			c0.068,0.033,0.178,0.066,0.33,0.097c0.15,0.032,0.278,0.071,0.381,0.122l0.179,0.148c0.135,0.065,0.321,0.135,0.559,0.207
			c0.235,0.073,0.406,0.135,0.507,0.184l0.153,0.074L97.971,121.105z"/>
	</g>
	<g>
		<path fill="#231F20" d="M70.417,117.325c0.115,0.018,0.216,0.064,0.295,0.139l0.354,0.058c0.042,0.099,0.146,0.205,0.309,0.323
			c0.163,0.117,0.269,0.21,0.318,0.277c0.029,0.006,0.085,0.021,0.174,0.051c0.085,0.031,0.131,0.029,0.136,0
			c-0.01,0.061,0.022,0.125,0.104,0.199c0.078,0.073,0.127,0.143,0.148,0.205c0.117,0.021,0.198,0.063,0.249,0.133
			c0.098,0.138,0.174,0.226,0.229,0.265l-0.043,0.265c0.088,0.016,0.174,0.006,0.253-0.025c0.081-0.032,0.163-0.08,0.252-0.141
			c0.084-0.063,0.158-0.104,0.225-0.123c0.026,0.006,0.09,0.008,0.18,0.008c0.091-0.002,0.152-0.014,0.188-0.039
			c1.06-0.188,1.679-0.271,1.855-0.24c0.088,0.015,0.229,0.045,0.416,0.091c0.189,0.046,0.329,0.077,0.417,0.091
			c0.088,0.016,0.214,0.027,0.378,0.039c0.165,0.012,0.293,0.025,0.379,0.039l0.224,0.037c0.52,0.146,0.854,0.32,1.005,0.525
			c0.057,0.01,0.105,0.033,0.146,0.069c0.038,0.037,0.073,0.058,0.104,0.063c0.067,0.133,0.282,0.355,0.641,0.672
			c0.355,0.316,0.559,0.599,0.608,0.849c0.052,0.039,0.107,0.078,0.164,0.117c0.052,0.04,0.092,0.076,0.117,0.11
			c0.011,0.123,0.06,0.281,0.146,0.478l0.18,0.302c-0.005,0.029-0.02,0.064-0.042,0.107c-0.021,0.042-0.035,0.078-0.039,0.105
			c0.024,0.035,0.072,0.074,0.141,0.115c0.068,0.04,0.114,0.078,0.142,0.112c-0.023,0.147,0.029,0.263,0.168,0.347l-0.043,0.264
			c-0.005,0.031,0.03,0.097,0.105,0.199c-0.001,0.182,0.051,0.426,0.152,0.729c0.103,0.304,0.137,0.544,0.107,0.721
			c0.075,0.103,0.097,0.243,0.067,0.421c-0.023,0.146-0.092,0.287-0.205,0.42c-0.006,0.029-0.002,0.158,0.007,0.387
			s0.001,0.402-0.02,0.521l-0.021,0.132c-0.005,0.03-0.032,0.078-0.09,0.145s-0.092,0.13-0.102,0.188l-0.021,0.133
			c-0.011,0.06-0.026,0.108-0.047,0.151c-0.021,0.041-0.052,0.074-0.085,0.101c-0.034,0.023-0.058,0.065-0.066,0.125
			c-0.134,0.281-0.219,0.418-0.248,0.412l-0.043,0.266c-0.058,0.355-0.156,0.688-0.299,0.996c-0.127,0.039-0.206,0.057-0.235,0.052
			c-0.044,0.084-0.135,0.214-0.268,0.388c-0.136,0.176-0.229,0.334-0.283,0.477c-0.033,0.023-0.119,0.078-0.253,0.162
			s-0.234,0.138-0.296,0.156l0.034,0.051c-0.011,0.06-0.019,0.104-0.022,0.133c-0.16,0.064-0.349,0.207-0.567,0.43
			c-0.218,0.223-0.393,0.367-0.523,0.438l0.036,0.051c-0.005,0.029-0.011,0.06-0.016,0.089c-0.01,0.06-0.101,0.149-0.271,0.272
			c-0.265,0.32-0.429,0.489-0.49,0.51c-0.015,0.088-0.039,0.19-0.074,0.307c-0.034,0.115-0.055,0.203-0.063,0.262
			c-0.021,0.118-0.021,0.209,0.002,0.272c-0.01,0.06-0.046,0.083-0.104,0.073c-0.041,0.055-0.061,0.098-0.063,0.125
			c-0.01,0.061-0.002,0.183,0.029,0.369c-0.074,0.078-0.143,0.264-0.205,0.557s-0.164,0.488-0.301,0.586
			c0.031,0.188,0.039,0.311,0.029,0.367c-0.014,0.09-0.037,0.146-0.071,0.17c0.248,0.889,0.395,1.382,0.438,1.48l-0.015,0.088
			c-0.016,0.088,0,0.182,0.046,0.28c0.045,0.099,0.063,0.162,0.06,0.19l-0.008,0.045c-0.039,0.055-0.063,0.096-0.066,0.125
			c0.163,0.117,0.293,0.244,0.392,0.382c0.023,0.034,0.032,0.081,0.022,0.14c0.083,0.045,0.152,0.139,0.202,0.283
			c0.053,0.145,0.106,0.236,0.162,0.275l-0.06,0.08c-0.021,0.119,0.063,0.269,0.242,0.449c-0.01,0.06-0.017,0.104-0.021,0.133
			c-0.068,0.049-0.089,0.092-0.064,0.125c0.022,0.035,0.126,0.065,0.303,0.096c0.162,0.299,0.227,0.552,0.191,0.757
			c0.051,0.069,0.092,0.188,0.124,0.36c0.034,0.173,0.06,0.291,0.078,0.354c-0.272,0.379-0.521,0.596-0.741,0.65
			c-0.015,0.088-0.038,0.146-0.071,0.169c-0.218,0.024-0.361,0.077-0.438,0.155c-0.479-0.018-1.206-0.106-2.179-0.266
			c-0.223-0.309-0.493-0.504-0.813-0.587l0.029-0.177c-0.059-0.01-0.128-0.051-0.206-0.124c-0.081-0.073-0.159-0.132-0.244-0.177
			c-0.188-0.332-0.439-0.646-0.755-0.939l0.021-0.133c-0.223-0.127-0.381-0.364-0.474-0.713c-0.139-0.083-0.29-0.213-0.457-0.393
			c-0.17-0.179-0.277-0.287-0.334-0.326c-0.117-0.021-0.214-0.082-0.287-0.185c-0.023-0.034-0.025-0.11-0.007-0.229
			c-0.061-0.01-0.135-0.06-0.228-0.149c-0.091-0.09-0.179-0.157-0.264-0.201c-0.047-0.067-0.037-0.127,0.029-0.178
			c-0.195-0.093-0.307-0.246-0.331-0.462l-0.221-0.036c-0.034,0.024-0.059,0.065-0.067,0.125c-0.038,0.056-0.072,0.079-0.1,0.073
			l0.145,0.205c-0.015,0.09-0.04,0.199-0.075,0.328c-0.035,0.131-0.06,0.227-0.068,0.285c-0.005,0.028,0.007,0.062,0.028,0.096
			l0.03,0.096c0.016,0.093,0.009,0.229-0.021,0.404c-0.023,0.147-0.013,0.256,0.038,0.324l-0.097,0.303
			c-0.02,0.117-0.021,0.283-0.014,0.496c0.012,0.213,0.009,0.381-0.011,0.498l-0.043,0.266c-0.345,0.246-0.824,0.318-1.443,0.218
			c-1.18-0.192-1.888-0.489-2.125-0.892c-0.339-0.146-0.651-0.454-0.938-0.926c-0.109-0.078-0.178-0.135-0.199-0.168l-0.273-0.545
			c-0.025-0.033-0.049-0.082-0.065-0.146l-0.038-0.052c-0.026-0.034-0.069-0.104-0.127-0.202c-0.061-0.101-0.103-0.168-0.125-0.202
			c-0.125-0.172-0.234-0.507-0.335-1.008c-0.021-0.064-0.02-0.208,0.002-0.432c0.021-0.225,0.011-0.385-0.035-0.481
			c0.019-0.118,0.047-0.188,0.081-0.214c-0.104-0.108-0.139-0.446-0.107-1.018c0.01-0.059,0-0.129-0.033-0.209
			c-0.03-0.08-0.044-0.137-0.039-0.166l0.02-0.949c0.01-0.06,0.049-0.112,0.117-0.162c-0.026-0.034-0.018-0.186,0.026-0.449
			c0.01-0.061,0.003-0.105-0.021-0.141c0.034-0.023,0.06-0.096,0.079-0.215c0.043-0.264,0.081-0.408,0.117-0.435
			c-0.026-0.034-0.032-0.087-0.021-0.161c0.012-0.072,0.022-0.141,0.032-0.199l-0.09-0.287c0.034-0.205,0.109-0.391,0.228-0.553
			c-0.03-0.188-0.021-0.337,0.029-0.449c0.038-0.055,0.06-0.096,0.063-0.125c0.011-0.06,0.013-0.158,0.004-0.295
			c-0.01-0.139-0.008-0.234,0.003-0.295c0.019-0.117,0.08-0.214,0.184-0.287c-0.045-0.099-0.047-0.266-0.009-0.502
			c0.058-0.354,0.144-0.611,0.263-0.773c0.005-0.028-0.02-0.077-0.068-0.146l0.072-0.442c0.092-0.56,0.213-0.935,0.366-1.121
			c-0.025-0.215,0.001-0.559,0.078-1.03l0.06-0.081c0.031-0.023,0.052-0.051,0.058-0.081l-0.028-0.097
			c0.005-0.028,0.01-0.059,0.015-0.088c0.005-0.028,0.021-0.103,0.057-0.219c0.034-0.113,0.06-0.217,0.073-0.306l0.028-0.177
			l0.117-0.163c-0.021-0.244-0.02-0.44,0.006-0.589c0.034-0.205,0.105-0.375,0.218-0.51l0.007-0.043l-0.027-0.097
			c0.015-0.089,0.059-0.187,0.139-0.295c0.079-0.106,0.119-0.177,0.124-0.207l0.123-0.751c0.038-0.234,0.083-0.41,0.131-0.523
			l0.074-0.17l0.015-0.088c0.033-0.205,0.084-0.334,0.152-0.383c0.034-0.023,0.039-0.055,0.015-0.089l-0.035-0.052
			c0.036-0.055,0.076-0.198,0.115-0.436c0.009-0.059,0.045-0.144,0.109-0.255c0.063-0.11,0.098-0.18,0.103-0.21
			c0.059-0.354,0.12-0.555,0.19-0.604l-0.037-0.051l-0.045-0.008c-0.024-0.033-0.016-0.056,0.032-0.064
			c0.047-0.008,0.073-0.024,0.079-0.055l0.051-0.311c0.043-0.266,0.132-0.537,0.268-0.818l0.312,0.051
			c0.295,0.049,0.51,0.023,0.647-0.074c0.052,0.037,0.229,0.082,0.522,0.13l0.17,0.073l0.221,0.035
			c0.029,0.006,0.134,0.008,0.316,0.008C70.205,117.319,70.358,117.314,70.417,117.325z M76.085,121.79
			c-0.585-0.125-1.269-0.207-2.047-0.242c-0.068,0.05-0.166,0.094-0.295,0.134c-0.06-0.011-0.103-0.032-0.126-0.065
			c-0.068,0.049-0.167,0.094-0.294,0.133c-0.128,0.041-0.21,0.072-0.24,0.098c-0.264,0.107-0.424,0.173-0.487,0.191l-0.266-0.043
			c-0.063,0.021-0.113,0.043-0.147,0.066c-0.032,0.023-0.077,0.07-0.135,0.139c-0.057,0.065-0.104,0.125-0.145,0.18
			c-0.033,0.024-0.086,0.063-0.153,0.111l-0.096,0.028l-0.064,0.397c-0.01,0.06-0.063,0.156-0.162,0.291
			c-0.097,0.138-0.168,0.246-0.212,0.328c-0.059,0.172-0.122,0.465-0.189,0.877c-0.066,0.414-0.098,0.695-0.092,0.848l-0.029,0.178
			c-0.028,0.178-0.136,0.462-0.321,0.855c0.075,0.103,0.097,0.242,0.067,0.418c-0.006,0.031-0.028,0.058-0.078,0.078
			c-0.051,0.022-0.081,0.063-0.092,0.123c-0.022,0.146,0.012,0.317,0.1,0.514l-0.021,0.134c-0.039,0.235-0.047,0.371-0.021,0.405
			l-0.141,0.021c-0.061-0.01-0.093,0-0.097,0.03l0.075,0.103c0.078,0.074,0.127,0.143,0.147,0.205
			c-0.005,0.03-0.02,0.072-0.045,0.129c-0.024,0.059-0.038,0.102-0.043,0.129c-0.023,0.148,0.023,0.309,0.148,0.479
			c0.103-0.073,0.329-0.173,0.684-0.297c0.354-0.123,0.603-0.265,0.751-0.423c0.646-0.075,1.118-0.36,1.41-0.857
			c0.099-0.044,0.211-0.14,0.341-0.283c0.13-0.146,0.212-0.23,0.246-0.256c0.244-0.021,0.383-0.119,0.411-0.296l0.015-0.089
			c0.088,0.016,0.146-0.053,0.169-0.2c0.428-0.202,0.765-0.51,1.015-0.923c0.098-0.045,0.215-0.152,0.349-0.329
			c0.135-0.175,0.266-0.28,0.394-0.321l-0.037-0.052c-0.055-0.038-0.078-0.073-0.073-0.103c0.034-0.024,0.116-0.162,0.248-0.413
			c-0.019-0.063-0.021-0.154,0-0.272c0.015-0.089,0.068-0.244,0.167-0.472c0.1-0.228,0.153-0.384,0.168-0.474
			c-0.045-0.278-0.104-0.471-0.179-0.573c-0.021-0.063-0.108-0.16-0.271-0.293C76.234,122.002,76.13,121.888,76.085,121.79z"/>
	</g>
</g>
</svg>
