<?xml version="1.0" encoding="utf-8"?>
<!-- Generator: Adobe Illustrator 16.0.0, SVG Export Plug-In . SVG Version: 6.00 Build 0)  -->
<!DOCTYPE svg PUBLIC "-//W3C//DTD SVG 1.1//EN" "http://www.w3.org/Graphics/SVG/1.1/DTD/svg11.dtd">
<svg version="1.1" id="Layer_1" xmlns="http://www.w3.org/2000/svg" xmlns:xlink="http://www.w3.org/1999/xlink" x="0px" y="0px"
	 width="92.849px" height="133.796px" viewBox="0 0 92.849 133.796" enable-background="new 0 0 92.849 133.796"
	 xml:space="preserve">
<path fill="#998282" d="M1.251,100.54c0.344,1.375,0.973,2.644,1.882,3.787c0.425,0.529,0.904,1.011,1.428,1.437
	c-0.046,0.181-0.088,0.364-0.125,0.549c-0.324,1.627-0.217,3.28,0.294,4.833c-0.526,1.163-1.022,2.416-1.478,3.729
	c-0.125,0.303-0.238,0.594-0.337,0.872c-0.101,0.284-0.202,0.579-0.301,0.88c-0.787,2.399-0.496,4.906,0.819,7.057
	c0.14,0.228,0.292,0.447,0.456,0.658c1.13,1.446,2.646,2.497,4.412,3.048c0.814,0.251,1.654,0.378,2.496,0.378
	c1.355,0,2.715-0.338,3.932-0.978c0.042-0.022,0.085-0.046,0.127-0.069c1.632-0.901,2.854-2.275,3.533-3.975
	c0.077-0.193,0.159-0.399,0.246-0.624l0.548-1.344c0.333-0.79,0.698-1.583,1.088-2.363c0.366-0.057,0.731-0.125,1.096-0.204
	c0.048-0.01,0.096-0.021,0.144-0.031c0.523,0.726,1.006,1.472,1.426,2.204c0.627,1.111,1.204,2.275,1.713,3.457
	c0.566,1.315,1.112,2.664,1.623,4.01c0.015,0.039,0.03,0.077,0.046,0.116c0.04,0.101,0.076,0.201,0.108,0.308
	c0.156,0.507,0.336,0.999,0.535,1.465c1.04,2.504,3.234,4.316,5.937,4.872c0.614,0.123,1.24,0.186,1.859,0.186
	c1.012,0,2.012-0.164,2.978-0.49c1.527-0.517,2.905-1.429,4.013-2.669c1.684-1.909,2.392-4.452,1.942-6.978
	c-0.009-0.05-0.019-0.101-0.028-0.15c-0.127-0.633-0.297-1.255-0.513-1.868c-0.124-0.349-0.255-0.696-0.395-1.043
	c-0.043-0.116-0.082-0.212-0.125-0.324c0.866-0.358,1.709-0.796,2.524-1.298c0.695,0.286,1.423,0.516,2.198,0.652
	c0.054,0.009,0.106,0.018,0.16,0.026c0.525,0.079,1.073,0.12,1.63,0.12c0.686,0,1.409-0.063,2.119-0.179
	c1.118-0.18,2.226-0.556,3.351-1.121c1.06,0.362,2.153,0.555,3.264,0.555c0.808,0,1.619-0.099,2.442-0.3
	c0.838-0.209,1.648-0.506,2.425-0.889c0.821,0.218,1.674,0.328,2.544,0.328c0.633,0,1.289-0.071,1.995-0.201
	c1.177,0.62,2.47,0.949,3.809,0.949c0.311,0,0.624-0.018,0.898-0.049c1.803-0.197,3.442-1.005,4.641-2.262
	c0.455,0.064,0.919,0.097,1.389,0.097c0.56,0,1.132-0.047,1.704-0.139c2.062-0.284,3.99-1.18,5.589-2.597
	c0.761-0.673,1.478-1.374,2.129-2.082c0.054-0.058,0.468-0.535,0.619-0.705c0.331-0.369,0.687-0.805,1.075-1.313
	c0.264-0.343,0.599-0.771,1.012-1.289c0.467-0.587,1.04-1.324,1.719-2.217c0.115-0.151,0.224-0.307,0.326-0.467
	c0.598-0.791,1.036-1.675,1.307-2.635c0.513-1.729,0.464-3.52-0.159-5.24c-0.173-0.465-0.383-0.909-0.63-1.331
	c0.215-0.7,0.332-1.438,0.347-2.198c0.006-0.309-0.009-0.618-0.044-0.925c-0.178-1.559-0.759-3.059-1.693-4.354
	c-0.946-1.306-2.204-2.333-3.638-2.97c-0.08-0.036-0.161-0.07-0.243-0.103c-1.006-0.402-2.043-0.606-3.083-0.606
	c-0.461,0-0.917,0.043-1.366,0.123c0.087-0.668,0.155-1.356,0.182-2.086c0.552-21.477-0.959-30.674-1.023-31.055
	c-0.054-0.314-0.134-0.619-0.227-0.916c0.296-1.015,0.461-2.154,0.461-3.424c0-0.265,0.022-0.528-0.007-0.791
	c-0.166-1.462-0.328-4.878-0.328-12.855v-5.05c0-0.171-0.043-0.342-0.055-0.512l-0.407-5.285l0.058-6.524
	c4.243-1.104,6.404-4.646,6.404-8.149V9.599c0-3.278-1.856-6.146-5.02-7.67c-0.951-0.459-1.973-0.694-3.022-0.694
	c-0.268,0-0.527,0.016-0.794,0.046l-3.216,0.371c-5.003,0.106-8.728,0.327-11.384,0.675C62.904,2.55,61.427,2.91,60.167,3.4
	C57.154,1.448,54.111,1,52.004,1c-1.601,0-3.47,0.34-6.065,1.103c-0.498,0.146-0.978,0.347-1.431,0.599
	c-1.293,0.72-2.459,1.47-3.503,2.249c-2.712-2.844-6.638-3.371-9.409-3.514l-0.38-0.018c-0.93-0.049-1.838-0.073-2.699-0.073
	c-2.424,0-4.571,0.187-6.502,0.567c-0.049-0.003-0.557-0.028-0.557-0.028c-0.111-0.005-0.223-0.008-0.334-0.008
	c-1.676,0-3.301,0.602-4.575,1.702c-2.946,2.544-3.673,5.403-3.762,7.316l-0.176,3.412c-0.005,0.097-0.008,0.193-0.009,0.289
	c-0.09,8.926-0.266,19.363-0.522,31.023c-0.026,0.449-0.12,1.211-0.405,2.374c-0.277,1.127-0.269,2.306,0.023,3.429
	c0.022,0.088,0.052,0.168,0.076,0.254c-0.026,0.029-0.057,0.054-0.083,0.083c-1.289,1.42-1.939,3.307-1.799,5.219l2.16,29.403
	c-1.54,0.833-3.06,1.785-4.542,2.873c-0.917,0.679-1.828,1.398-2.707,2.14c-0.069,0.058-0.137,0.117-0.204,0.179l-0.945,0.863
	c-2.186,1.993-3.101,4.95-2.448,7.911C1.22,100.412,1.236,100.476,1.251,100.54z"/>
<g>
	<ellipse fill="#FFFFFF" cx="43.458" cy="31.991" rx="19.875" ry="22.625"/>
	<g>
		<g>
			<g>
				<g>
					<path fill="#FFFFFF" d="M24.46,57.744c-1.523,0-3.204-0.018-5.042-0.055c-0.064-0.001-0.603-0.026-0.603-0.026
						c-3.063-0.154-6.791-2.135-8.118-7.24c-0.292-1.124-0.3-2.302-0.023-3.429c0.285-1.163,0.379-1.924,0.406-2.375
						c0.256-11.66,0.433-22.097,0.523-31.022c0.001-0.097,0.004-0.193,0.009-0.29l0.176-3.412c0.088-1.913,0.814-4.772,3.762-7.317
						c1.274-1.1,2.899-1.702,4.575-1.702c0.111,0,0.222,0.002,0.334,0.008c0,0,0.508,0.025,0.557,0.028
						c1.93-0.381,4.078-0.567,6.502-0.567c0.861,0,1.769,0.024,2.698,0.073l0.38,0.018c2.835,0.146,6.885,0.688,9.6,3.709
						c1.577,1.754,2.372,4.027,2.241,6.4c-0.096,2.084-0.902,3.923-2.247,5.329c0.875,1.415,1.303,3.063,1.189,4.8L41.345,21.3
						c-0.135,2.786-1.736,7.561-10.912,7.561c-0.394,0-0.814-0.006-1.259-0.019l0.035,10.767c0,0,4.464,0.191,4.499,0.193
						c3.795,0.22,7.891,2.948,8.487,8.548c0.038,0.357,0.048,0.716,0.031,1.074l-0.02,0.409c-0.13,2.473-1.458,6.691-8.91,7.553
						C31.218,57.627,28.328,57.744,24.46,57.744z"/>
					<path fill="#FFFFFF" d="M61.319,58.041c-1.219,0-4.157-0.276-6.694-2.644c-1.771,0.488-3.591,0.733-5.453,0.733h-1.228
						c-4.828,0-13.48-1.773-17.19-13.646c-0.026-0.083-0.05-0.166-0.073-0.25c-0.797-2.928-1.201-5.796-1.201-8.525
						c0-5.835,1.706-10.834,4.983-14.737c-0.62-1.144-0.967-2.475-0.967-3.92c0-5.164,3.368-9.655,10.011-13.351
						c0.453-0.252,0.933-0.453,1.43-0.599C47.534,0.34,49.405,0,51.005,0c3.95,0,11.197,1.524,15.353,11.729l-0.014,0.005
						c0.386,0.92,0.679,2.031,0.832,3.371c0.133,1.161,0.26,2.792,0.389,4.984c0.241,4.096,0.491,10.272,0.743,18.36
						c0.169,1.737,0.314,2.933,0.428,3.743c1.571,1.625,2.447,3.751,2.447,6.119c0,0.444-0.042,0.888-0.126,1.324
						c-1.193,6.198-5.46,8.406-9.056,8.406H61.319z M48.92,38.471c0.153,0.031,0.413,0.065,0.811,0.065c0.051,0,0.103,0,0.156-0.001
						c-0.1-2.311-0.16-5.033-0.181-8.134c-0.322-0.032-0.699-0.06-1.139-0.076c-0.727,1.468-1.043,2.774-0.967,3.988
						C47.685,35.657,48.117,37.02,48.92,38.471z"/>
					<path fill="#FFFFFF" d="M71.924,58.041c-2.148,0-9.141-0.884-9.184-12.219l-0.133-4.823c-0.002-0.1-0.003-0.2-0.001-0.3
						l0.134-8.768l-0.134-9.587c-0.002-0.161,0.001-0.321,0.01-0.481l0.249-4.535c-0.045-0.003-0.09-0.007-0.134-0.01
						c-0.982-0.075-1.716-0.156-2.312-0.255c-3.348-0.559-5.298-2.615-6.05-4.883l-0.137-0.409
						c-0.239-0.715-0.361-1.464-0.361-2.218c0-4.613,3.278-7.381,9.742-8.228c2.656-0.347,6.383-0.568,11.386-0.674l3.22-0.372
						c0.267-0.031,0.535-0.046,0.802-0.046c1.049,0,2.088,0.236,3.039,0.694c3.164,1.525,5.053,4.392,5.053,7.67v0.409
						c0,3.504-2.203,7.044-6.446,8.149l-0.101,6.524l0.388,5.285c0.012,0.17,0.019,0.341,0.019,0.512v5.05
						c0,7.978,0.198,11.394,0.364,12.855c0.03,0.263,0.045,0.527,0.045,0.791c0,6.779-4.689,9.866-9.047,9.866H71.924z"/>
				</g>
				<g>
					<path fill="#FFFFFF" d="M24.46,57.744c-1.523,0-3.204-0.018-5.042-0.055c-0.064-0.001-0.603-0.026-0.603-0.026
						c-3.063-0.154-6.791-2.135-8.118-7.24c-0.292-1.124-0.3-2.302-0.023-3.429c0.285-1.163,0.379-1.924,0.406-2.375
						c0.256-11.66,0.433-22.097,0.523-31.022c0.001-0.097,0.004-0.193,0.009-0.29l0.176-3.412c0.088-1.913,0.814-4.772,3.762-7.317
						c1.274-1.1,2.899-1.702,4.575-1.702c0.111,0,0.222,0.002,0.334,0.008c0,0,0.508,0.025,0.557,0.028
						c1.93-0.381,4.078-0.567,6.502-0.567c0.861,0,1.769,0.024,2.698,0.073l0.38,0.018c2.835,0.146,6.885,0.688,9.6,3.709
						c1.577,1.754,2.372,4.027,2.241,6.4c-0.096,2.084-0.902,3.923-2.247,5.329c0.875,1.415,1.303,3.063,1.189,4.8L41.345,21.3
						c-0.135,2.786-1.736,7.561-10.912,7.561c-0.394,0-0.814-0.006-1.259-0.019l0.035,10.767c0,0,4.464,0.191,4.499,0.193
						c3.795,0.22,7.891,2.948,8.487,8.548c0.038,0.357,0.048,0.716,0.031,1.074l-0.02,0.409c-0.13,2.473-1.458,6.691-8.91,7.553
						C31.218,57.627,28.328,57.744,24.46,57.744z"/>
					<path fill="#FFFFFF" d="M61.319,58.041c-1.219,0-4.157-0.276-6.694-2.644c-1.771,0.488-3.591,0.733-5.453,0.733h-1.228
						c-4.828,0-13.48-1.773-17.19-13.646c-0.026-0.083-0.05-0.166-0.073-0.25c-0.797-2.928-1.201-5.796-1.201-8.525
						c0-5.835,1.706-10.834,4.983-14.737c-0.62-1.144-0.967-2.475-0.967-3.92c0-5.164,3.368-9.655,10.011-13.351
						c0.453-0.252,0.933-0.453,1.43-0.599C47.534,0.34,49.405,0,51.005,0c3.95,0,11.197,1.524,15.353,11.729l-0.014,0.005
						c0.386,0.92,0.679,2.031,0.832,3.371c0.133,1.161,0.26,2.792,0.389,4.984c0.241,4.096,0.491,10.272,0.743,18.36
						c0.169,1.737,0.314,2.933,0.428,3.743c1.571,1.625,2.447,3.751,2.447,6.119c0,0.444-0.042,0.888-0.126,1.324
						c-1.193,6.198-5.46,8.406-9.056,8.406H61.319z M48.92,38.471c0.153,0.031,0.413,0.065,0.811,0.065c0.051,0,0.103,0,0.156-0.001
						c-0.1-2.311-0.16-5.033-0.181-8.134c-0.322-0.032-0.699-0.06-1.139-0.076c-0.727,1.468-1.043,2.774-0.967,3.988
						C47.685,35.657,48.117,37.02,48.92,38.471z"/>
					<path fill="#FFFFFF" d="M71.924,58.041c-2.148,0-9.141-0.884-9.184-12.219l-0.133-4.823c-0.002-0.1-0.003-0.2-0.001-0.3
						l0.134-8.768l-0.134-9.587c-0.002-0.161,0.001-0.321,0.01-0.481l0.249-4.535c-0.045-0.003-0.09-0.007-0.134-0.01
						c-0.982-0.075-1.716-0.156-2.312-0.255c-3.348-0.559-5.298-2.615-6.05-4.883l-0.137-0.409
						c-0.239-0.715-0.361-1.464-0.361-2.218c0-4.613,3.278-7.381,9.742-8.228c2.656-0.347,6.383-0.568,11.386-0.674l3.22-0.372
						c0.267-0.031,0.535-0.046,0.802-0.046c1.049,0,2.088,0.236,3.039,0.694c3.164,1.525,5.053,4.392,5.053,7.67v0.409
						c0,3.504-2.203,7.044-6.446,8.149l-0.101,6.524l0.388,5.285c0.012,0.17,0.019,0.341,0.019,0.512v5.05
						c0,7.978,0.198,11.394,0.364,12.855c0.03,0.263,0.045,0.527,0.045,0.791c0,6.779-4.689,9.866-9.047,9.866H71.924z"/>
				</g>
			</g>
			<g>
				<path fill="#FFFFFF" d="M18.549,98.92c-3.656,0-6.709-2.823-6.978-6.487L8.894,55.979c-0.141-1.913,0.51-3.799,1.799-5.219
					c1.289-1.419,3.104-2.248,5.021-2.292c0,0,7.472-0.171,7.525-0.171c1.831,0,3.59,0.717,4.9,2.001
					c1.349,1.322,2.105,3.132,2.1,5.021l-0.005,1.554c-0.004,1.247-0.335,2.421-0.914,3.437c0.567,0.947,0.907,2.024,0.979,3.147
					l0.255,3.987c0.168,2.628-1.143,5.039-3.253,6.37l0.425,8.328c2.634,0.874,4.593,3.274,4.78,6.196l0.191,2.969
					c0.123,1.903-0.537,3.773-1.825,5.179s-3.094,2.225-5,2.269C25.872,98.754,18.604,98.92,18.549,98.92z"/>
				<path fill="#FFFFFF" d="M27.243,97.7c-1.839,0-3.607-0.724-4.919-2.02c-1.35-1.333-2.101-3.157-2.081-5.055l0.375-35.415
					c0.039-3.711,2.968-6.746,6.675-6.918l3.762-0.175c0.109-0.005,0.219-0.007,0.328-0.007c0.718,0,1.415,0.109,2.074,0.314
					c0.504-0.116,1.029-0.177,1.566-0.177c0.048,0,3.216,0.064,3.216,0.064c3.82,0.078,6.872,3.205,6.857,7.025l-0.136,35.144
					c-0.015,3.856-3.145,6.973-7,6.973c-0.002,0-3.65-0.004-3.65-0.004c-0.52,0-1.027-0.058-1.517-0.167
					c-0.63,0.204-1.301,0.321-1.996,0.337C30.799,97.62,27.296,97.7,27.243,97.7z"/>
				<path fill="#FFFFFF" d="M45.002,98.581c-2.651,0-11.352-0.949-11.967-13.168c-0.005-0.098-0.009-0.189-0.014-0.271
					c-0.295-1.974,0.268-3.99,1.559-5.53c1.076-1.283,2.565-2.126,4.187-2.403c-0.179-7.135-0.918-17.034-1.454-21.629
					c-0.235-2.02,0.419-4.042,1.794-5.541c1.328-1.448,3.201-2.269,5.159-2.269c0.069,0,3.605,0.103,3.605,0.103
					c3.421,0.1,6.269,2.66,6.731,6.051c2.068,15.17,3.364,34.644-2.211,41.261c-1.76,2.09-4.172,3.292-6.79,3.383
					C45.444,98.576,45.221,98.581,45.002,98.581z"/>
				<path fill="#FFFFFF" d="M55.592,98.49c-5.932,0-8.275-3.561-9.007-5.092c-0.568-1.191-1.271-2.666-2.038-20.062
					c-0.802-18.209-0.101-19.395,0.961-21.188c1.286-2.173,4.166-4.761,10.584-4.761c1.206,0,3.485,0.099,5.325,0.754
					c5.087,1.786,5.741,7.092,6.384,15.582c0.42,5.55,0.604,12.331,0.479,17.695c-0.169,7.265-0.328,14.129-6.273,15.966
					C60.692,97.81,58.183,98.49,55.592,98.49z"/>
				<path fill="#FFFFFF" d="M70.633,97.333c-3.479,0-6.844-1.621-9.474-4.563c-3.534-3.955-5.171-9.682-4.491-15.713
					c0.184-1.629,0.92-3.083,2.016-4.174c-1.273-3.064-2.533-8.438-2.835-18.097c-0.062-1.973,0.712-3.881,2.132-5.253
					c1.309-1.265,3.055-1.966,4.864-1.966c0.153,0,0.306,0.005,0.458,0.015l2.501,0.164c0.523,0.034,1.031,0.126,1.517,0.269
					c0.934-0.591,2.021-0.968,3.192-1.059l3.187-0.249c0.185-0.015,0.369-0.022,0.551-0.022c3.384,0,6.321,2.442,6.896,5.831
					c0.065,0.381,1.575,9.578,1.023,31.054C81.82,93.101,76.124,97.333,70.633,97.333z"/>
			</g>
			<g>
				<g>
					<path fill="#FFFFFF" d="M33.76,133.796c-0.625,0-1.257-0.064-1.877-0.19c-2.68-0.544-4.88-2.36-5.922-4.873
						c-0.198-0.463-0.377-0.954-0.532-1.46c-0.031-0.099-0.066-0.199-0.106-0.299c-0.017-0.042-0.033-0.083-0.049-0.126
						c-0.51-1.345-1.056-2.693-1.622-4.006c-0.512-1.187-1.088-2.351-1.713-3.458c-0.42-0.733-0.902-1.479-1.425-2.206
						c-0.048,0.011-0.096,0.021-0.144,0.032c-0.364,0.079-0.729,0.147-1.096,0.204c-0.39,0.78-0.754,1.572-1.087,2.361l-0.563,1.383
						l-0.229,0.583c-0.677,1.689-1.939,3.104-3.558,3.99c-0.033,0.019-0.067,0.037-0.101,0.054c-1.218,0.641-2.579,0.98-3.936,0.98
						c-0.847,0-1.692-0.128-2.511-0.383c-1.75-0.546-3.267-1.597-4.396-3.042c-0.166-0.212-0.319-0.433-0.459-0.663
						c-1.312-2.149-1.603-4.652-0.818-7.047c0.104-0.315,0.206-0.611,0.308-0.896c0.095-0.269,0.208-0.56,0.333-0.864
						c0.454-1.31,0.949-2.561,1.477-3.726c-0.511-1.551-0.618-3.205-0.294-4.832c0.037-0.186,0.079-0.369,0.125-0.55
						c-0.528-0.429-1.011-0.915-1.438-1.449c-0.895-1.119-1.527-2.392-1.873-3.774c-0.016-0.063-0.031-0.126-0.045-0.19
						c-0.652-2.957,0.26-5.913,2.439-7.906l0.901-0.822c0.071-0.064,0.188-0.168,0.261-0.23c0.887-0.746,1.797-1.465,2.706-2.137
						c2.212-1.624,4.504-2.972,6.834-4.023c2.361-1.063,4.783-1.837,7.206-2.307c1.217-0.256,2.518-0.425,3.867-0.502
						c0.414-0.023,0.815-0.034,1.214-0.034c1.1,0,2.2,0.087,3.27,0.258c1.759,0.278,3.443,0.854,4.996,1.71
						c1.822,1.006,3.361,2.428,4.575,4.229c1.673,2.474,2.497,5.407,2.377,8.478c-0.002,0.059-0.005,0.117-0.009,0.175
						c-0.11,1.728-0.463,3.424-1.048,5.042c-0.542,1.497-1.248,2.921-2.098,4.237c-0.701,1.083-1.492,2.115-2.358,3.076
						c1.191,1.658,2.276,3.364,3.232,5.082c0.032,0.058,0.617,1.171,0.617,1.171c0.22,0.417,0.454,0.873,0.71,1.386
						c0.284,0.57,0.585,1.222,0.904,1.964c0.289,0.673,0.608,1.477,0.958,2.413c0.138,0.344,0.268,0.689,0.39,1.034
						c0.213,0.602,0.384,1.225,0.512,1.862c0.011,0.055,0.021,0.109,0.031,0.164c0.447,2.527-0.265,5.07-1.952,6.977
						c-1.094,1.229-2.475,2.144-4.008,2.662C35.78,133.63,34.776,133.796,33.76,133.796z"/>
					<path fill="#FFFFFF" d="M36.12,121.429c-0.498,0-1.001-0.029-1.495-0.085c-2.667-0.294-5.069-1.596-6.926-3.761
						c-1.549-1.811-2.471-4.017-2.675-6.388c-0.145-1.71-0.004-3.401,0.414-5.039c0.015-0.057,0.03-0.113,0.046-0.17
						c0.357-1.264,0.836-2.486,1.424-3.632c0.547-1.064,1.175-2.082,1.868-3.031c0.687-0.939,1.442-1.826,2.249-2.639
						c0.708-0.714,1.439-1.387,2.173-2.003c0.031-0.026,0.062-0.051,0.093-0.077c0.762-0.617,1.615-1.181,2.61-1.723
						c1.131-0.619,2.336-1.091,3.578-1.4c0.959-0.237,1.915-0.356,2.854-0.356c0.665,0,1.33,0.06,1.977,0.177
						c2.388,0.435,4.493,1.786,5.934,3.806c0.875,1.205,1.432,2.602,1.635,4.07c0.854,0.796,1.525,1.746,1.995,2.824
						c0.678,1.543,0.845,3.294,0.469,4.947c-0.264,1.227-0.791,2.384-1.569,3.443c0,0-0.613,0.839-0.653,0.892
						c-1.052,1.358-1.835,2.313-2.467,3.004c-0.585,0.642-1.151,1.227-1.675,1.733c-0.867,0.853-1.952,1.727-3.178,2.552
						c-1.417,0.953-2.924,1.688-4.481,2.188C38.94,121.204,37.526,121.429,36.12,121.429z"/>
					<path fill="#FFFFFF" d="M48.145,119.774c-0.56,0-1.111-0.041-1.639-0.122c-0.049-0.007-0.098-0.016-0.146-0.024
						c-1.87-0.327-3.516-1.093-4.892-2.278c-1.255-1.087-2.211-2.425-2.856-3.991c-0.525-1.275-0.832-2.663-0.912-4.124
						c-0.065-1.2,0.015-2.453,0.236-3.725c0.316-1.692,0.77-3.372,1.363-5.076c0.545-1.569,1.177-3.145,1.875-4.68
						c0.685-1.507,1.423-2.971,2.194-4.348c0.756-1.354,1.5-2.591,2.208-3.673c0.77-1.17,1.591-2.323,2.453-3.445
						c1.13-1.47,2.429-2.771,3.862-3.869c0.661-0.493,1.314-0.909,2.071-1.327c1.049-0.575,2.13-0.992,3.233-1.251
						c0.768-0.181,1.558-0.274,2.342-0.274c0.769,0,1.537,0.089,2.285,0.265c2.089,0.499,3.881,1.707,5.218,3.501
						c1.294,1.697,1.98,3.712,1.986,5.836c0.002,1.333-0.205,2.659-0.615,3.945c-0.315,0.989-0.719,1.953-1.202,2.867
						c-0.316,0.597-0.592,1.109-0.833,1.546c-0.04,0.072-0.081,0.144-0.123,0.214c-0.789,1.32-1.642,2.589-2.537,3.772
						c-0.039,0.051-0.077,0.102-0.115,0.152c0.877,1.417,1.304,3.09,1.202,4.857c-0.004,0.078-0.01,0.155-0.017,0.233
						c-0.125,1.368-0.553,2.647-1.272,3.803c-0.219,0.351-0.441,0.683-0.667,0.994c-1.411,2.006-2.702,3.6-3.945,4.871
						c-1.358,1.389-2.625,2.454-3.875,3.253c-1.621,1.037-3.178,1.664-4.763,1.919C49.554,119.712,48.831,119.774,48.145,119.774z"
						/>
					<path fill="#FFFFFF" d="M56.877,119.029c-1.365,0-2.707-0.276-3.988-0.821c-2.244-0.949-4.01-2.695-4.96-4.913
						c-0.583-1.36-0.906-2.828-0.957-4.361c-0.042-1.343,0.108-2.672,0.444-3.967c0.272-1.045,0.578-1.938,0.936-2.737
						c0.896-1.963,1.956-3.808,3.169-5.531c1.358-1.93,2.964-3.629,4.769-5.048c0.066-0.052,0.133-0.103,0.201-0.152
						c0.873-0.637,1.799-1.206,2.751-1.693c1.554-0.795,3.23-1.228,4.976-1.28c0.11-0.004,0.238-0.006,0.365-0.006
						c0.554,0,1.097,0.041,1.625,0.12c0.066-0.019,0.133-0.038,0.199-0.055c0.32-0.083,0.645-0.144,0.973-0.181
						c0.317-0.036,0.632-0.054,0.945-0.054c2.041,0,3.965,0.728,5.564,2.106c1.564,1.354,2.573,3.122,2.933,5.125
						c0.035,0.198,0.063,0.396,0.085,0.594c1.726,1.552,2.729,3.766,2.746,6.154c0.001,0.181-0.005,0.361-0.018,0.541
						c-0.113,1.599-0.652,3.105-1.561,4.356c-0.059,0.081-0.099,0.143-0.14,0.209c-0.075,0.12-0.153,0.237-0.235,0.353
						c-0.849,1.195-1.491,2.092-1.929,2.689c0,0-1.195,1.635-1.229,1.679c-0.65,0.845-1.382,1.692-2.174,2.519
						c-1.573,1.641-3.584,2.765-5.813,3.25c-0.81,0.167-1.547,0.243-2.268,0.243c-0.869,0-1.722-0.11-2.543-0.328
						c-0.779,0.384-1.591,0.682-2.431,0.89C58.496,118.931,57.684,119.029,56.877,119.029z"/>
					<path fill="#FFFFFF" d="M70.091,118.917c-1.824,0-3.567-0.599-5.04-1.733c-1.406-1.075-2.433-2.534-2.96-4.216
						c-0.817-2.519-0.348-5.248,1.274-7.341c0.107-0.139,0.212-0.276,0.314-0.412c-0.071-0.195-0.135-0.393-0.193-0.595
						c-0.703-2.48-0.229-5.095,1.298-7.184c0.383-0.524,0.746-1.056,1.078-1.576c0.288-0.454,0.572-0.927,0.843-1.406
						c0.159-0.352,0.596-1.296,0.66-1.44c0.213-0.479,0.391-0.817,0.517-1.036c0.165-0.285,0.331-0.54,0.498-0.775
						c0.143-0.201,0.296-0.395,0.46-0.58c1.379-1.56,3.305-2.49,5.423-2.619c0.257-0.014,0.458-0.019,0.654-0.019
						c0.523,0,1.041,0.039,1.539,0.114c0.305,0.046,0.606,0.113,0.902,0.199c0.345-0.377,0.718-0.726,1.114-1.044
						c1.376-1.111,3.105-1.722,4.882-1.722c1.041,0,2.079,0.205,3.085,0.607c0.085,0.034,0.169,0.069,0.252,0.107
						c1.433,0.64,2.688,1.668,3.632,2.974c0.923,1.277,1.506,2.778,1.686,4.339c0.035,0.304,0.05,0.61,0.045,0.916
						c-0.013,0.766-0.13,1.508-0.347,2.213c0.248,0.425,0.46,0.874,0.633,1.342c0.621,1.706,0.67,3.502,0.154,5.237
						c-0.271,0.958-0.709,1.84-1.305,2.627c-0.102,0.159-0.209,0.314-0.323,0.464c-0.679,0.894-1.253,1.632-1.721,2.219
						c-0.409,0.512-0.741,0.937-1.002,1.278c-0.417,0.544-0.777,0.979-1.074,1.312c-0.161,0.181-0.571,0.654-0.627,0.715
						c-0.649,0.707-1.368,1.409-2.134,2.086c-1.597,1.416-3.526,2.312-5.586,2.595c-0.573,0.092-1.146,0.139-1.706,0.139
						c-0.469,0-0.932-0.032-1.386-0.096c-1.178,1.242-2.817,2.057-4.62,2.259C70.716,118.899,70.402,118.917,70.091,118.917z"/>
				</g>
				<g>
					<path fill="#FFFFFF" d="M33.76,133.796c-0.625,0-1.257-0.064-1.877-0.19c-2.68-0.544-4.88-2.36-5.922-4.873
						c-0.198-0.463-0.377-0.954-0.532-1.46c-0.031-0.099-0.066-0.199-0.106-0.299c-0.017-0.042-0.033-0.083-0.049-0.126
						c-0.51-1.345-1.056-2.693-1.622-4.006c-0.512-1.187-1.088-2.351-1.713-3.458c-0.42-0.733-0.902-1.479-1.425-2.206
						c-0.048,0.011-0.096,0.021-0.144,0.032c-0.364,0.079-0.729,0.147-1.096,0.204c-0.39,0.78-0.754,1.572-1.087,2.361l-0.563,1.383
						l-0.229,0.583c-0.677,1.689-1.939,3.104-3.558,3.99c-0.033,0.019-0.067,0.037-0.101,0.054c-1.218,0.641-2.579,0.98-3.936,0.98
						c-0.847,0-1.692-0.128-2.511-0.383c-1.75-0.546-3.267-1.597-4.396-3.042c-0.166-0.212-0.319-0.433-0.459-0.663
						c-1.312-2.149-1.603-4.652-0.818-7.047c0.104-0.315,0.206-0.611,0.308-0.896c0.095-0.269,0.208-0.56,0.333-0.864
						c0.454-1.31,0.949-2.561,1.477-3.726c-0.511-1.551-0.618-3.205-0.294-4.832c0.037-0.186,0.079-0.369,0.125-0.55
						c-0.528-0.429-1.011-0.915-1.438-1.449c-0.895-1.119-1.527-2.392-1.873-3.774c-0.016-0.063-0.031-0.126-0.045-0.19
						c-0.652-2.957,0.26-5.913,2.439-7.906l0.901-0.822c0.071-0.064,0.188-0.168,0.261-0.23c0.887-0.746,1.797-1.465,2.706-2.137
						c2.212-1.624,4.504-2.972,6.834-4.023c2.361-1.063,4.783-1.837,7.206-2.307c1.217-0.256,2.518-0.425,3.867-0.502
						c0.414-0.023,0.815-0.034,1.214-0.034c1.1,0,2.2,0.087,3.27,0.258c1.759,0.278,3.443,0.854,4.996,1.71
						c1.822,1.006,3.361,2.428,4.575,4.229c1.673,2.474,2.497,5.407,2.377,8.478c-0.002,0.059-0.005,0.117-0.009,0.175
						c-0.11,1.728-0.463,3.424-1.048,5.042c-0.542,1.497-1.248,2.921-2.098,4.237c-0.701,1.083-1.492,2.115-2.358,3.076
						c1.191,1.658,2.276,3.364,3.232,5.082c0.032,0.058,0.617,1.171,0.617,1.171c0.22,0.417,0.454,0.873,0.71,1.386
						c0.284,0.57,0.585,1.222,0.904,1.964c0.289,0.673,0.608,1.477,0.958,2.413c0.138,0.344,0.268,0.689,0.39,1.034
						c0.213,0.602,0.384,1.225,0.512,1.862c0.011,0.055,0.021,0.109,0.031,0.164c0.447,2.527-0.265,5.07-1.952,6.977
						c-1.094,1.229-2.475,2.144-4.008,2.662C35.78,133.63,34.776,133.796,33.76,133.796z"/>
					<path fill="#FFFFFF" d="M36.12,121.429c-0.498,0-1.001-0.029-1.495-0.085c-2.667-0.294-5.069-1.596-6.926-3.761
						c-1.549-1.811-2.471-4.017-2.675-6.388c-0.145-1.71-0.004-3.401,0.414-5.039c0.015-0.057,0.03-0.113,0.046-0.17
						c0.357-1.264,0.836-2.486,1.424-3.632c0.547-1.064,1.175-2.082,1.868-3.031c0.687-0.939,1.442-1.826,2.249-2.639
						c0.708-0.714,1.439-1.387,2.173-2.003c0.031-0.026,0.062-0.051,0.093-0.077c0.762-0.617,1.615-1.181,2.61-1.723
						c1.131-0.619,2.336-1.091,3.578-1.4c0.959-0.237,1.915-0.356,2.854-0.356c0.665,0,1.33,0.06,1.977,0.177
						c2.388,0.435,4.493,1.786,5.934,3.806c0.875,1.205,1.432,2.602,1.635,4.07c0.854,0.796,1.525,1.746,1.995,2.824
						c0.678,1.543,0.845,3.294,0.469,4.947c-0.264,1.227-0.791,2.384-1.569,3.443c0,0-0.613,0.839-0.653,0.892
						c-1.052,1.358-1.835,2.313-2.467,3.004c-0.585,0.642-1.151,1.227-1.675,1.733c-0.867,0.853-1.952,1.727-3.178,2.552
						c-1.417,0.953-2.924,1.688-4.481,2.188C38.94,121.204,37.526,121.429,36.12,121.429z"/>
					<path fill="#FFFFFF" d="M48.145,119.774c-0.56,0-1.111-0.041-1.639-0.122c-0.049-0.007-0.098-0.016-0.146-0.024
						c-1.87-0.327-3.516-1.093-4.892-2.278c-1.255-1.087-2.211-2.425-2.856-3.991c-0.525-1.275-0.832-2.663-0.912-4.124
						c-0.065-1.2,0.015-2.453,0.236-3.725c0.316-1.692,0.77-3.372,1.363-5.076c0.545-1.569,1.177-3.145,1.875-4.68
						c0.685-1.507,1.423-2.971,2.194-4.348c0.756-1.354,1.5-2.591,2.208-3.673c0.77-1.17,1.591-2.323,2.453-3.445
						c1.13-1.47,2.429-2.771,3.862-3.869c0.661-0.493,1.314-0.909,2.071-1.327c1.049-0.575,2.13-0.992,3.233-1.251
						c0.768-0.181,1.558-0.274,2.342-0.274c0.769,0,1.537,0.089,2.285,0.265c2.089,0.499,3.881,1.707,5.218,3.501
						c1.294,1.697,1.98,3.712,1.986,5.836c0.002,1.333-0.205,2.659-0.615,3.945c-0.315,0.989-0.719,1.953-1.202,2.867
						c-0.316,0.597-0.592,1.109-0.833,1.546c-0.04,0.072-0.081,0.144-0.123,0.214c-0.789,1.32-1.642,2.589-2.537,3.772
						c-0.039,0.051-0.077,0.102-0.115,0.152c0.877,1.417,1.304,3.09,1.202,4.857c-0.004,0.078-0.01,0.155-0.017,0.233
						c-0.125,1.368-0.553,2.647-1.272,3.803c-0.219,0.351-0.441,0.683-0.667,0.994c-1.411,2.006-2.702,3.6-3.945,4.871
						c-1.358,1.389-2.625,2.454-3.875,3.253c-1.621,1.037-3.178,1.664-4.763,1.919C49.554,119.712,48.831,119.774,48.145,119.774z"
						/>
					<path fill="#FFFFFF" d="M56.877,119.029c-1.365,0-2.707-0.276-3.988-0.821c-2.244-0.949-4.01-2.695-4.96-4.913
						c-0.583-1.36-0.906-2.828-0.957-4.361c-0.042-1.343,0.108-2.672,0.444-3.967c0.272-1.045,0.578-1.938,0.936-2.737
						c0.896-1.963,1.956-3.808,3.169-5.531c1.358-1.93,2.964-3.629,4.769-5.048c0.066-0.052,0.133-0.103,0.201-0.152
						c0.873-0.637,1.799-1.206,2.751-1.693c1.554-0.795,3.23-1.228,4.976-1.28c0.11-0.004,0.238-0.006,0.365-0.006
						c0.554,0,1.097,0.041,1.625,0.12c0.066-0.019,0.133-0.038,0.199-0.055c0.32-0.083,0.645-0.144,0.973-0.181
						c0.317-0.036,0.632-0.054,0.945-0.054c2.041,0,3.965,0.728,5.564,2.106c1.564,1.354,2.573,3.122,2.933,5.125
						c0.035,0.198,0.063,0.396,0.085,0.594c1.726,1.552,2.729,3.766,2.746,6.154c0.001,0.181-0.005,0.361-0.018,0.541
						c-0.113,1.599-0.652,3.105-1.561,4.356c-0.059,0.081-0.099,0.143-0.14,0.209c-0.075,0.12-0.153,0.237-0.235,0.353
						c-0.849,1.195-1.491,2.092-1.929,2.689c0,0-1.195,1.635-1.229,1.679c-0.65,0.845-1.382,1.692-2.174,2.519
						c-1.573,1.641-3.584,2.765-5.813,3.25c-0.81,0.167-1.547,0.243-2.268,0.243c-0.869,0-1.722-0.11-2.543-0.328
						c-0.779,0.384-1.591,0.682-2.431,0.89C58.496,118.931,57.684,119.029,56.877,119.029z"/>
					<path fill="#FFFFFF" d="M70.091,118.917c-1.824,0-3.567-0.599-5.04-1.733c-1.406-1.075-2.433-2.534-2.96-4.216
						c-0.817-2.519-0.348-5.248,1.274-7.341c0.107-0.139,0.212-0.276,0.314-0.412c-0.071-0.195-0.135-0.393-0.193-0.595
						c-0.703-2.48-0.229-5.095,1.298-7.184c0.383-0.524,0.746-1.056,1.078-1.576c0.288-0.454,0.572-0.927,0.843-1.406
						c0.159-0.352,0.596-1.296,0.66-1.44c0.213-0.479,0.391-0.817,0.517-1.036c0.165-0.285,0.331-0.54,0.498-0.775
						c0.143-0.201,0.296-0.395,0.46-0.58c1.379-1.56,3.305-2.49,5.423-2.619c0.257-0.014,0.458-0.019,0.654-0.019
						c0.523,0,1.041,0.039,1.539,0.114c0.305,0.046,0.606,0.113,0.902,0.199c0.345-0.377,0.718-0.726,1.114-1.044
						c1.376-1.111,3.105-1.722,4.882-1.722c1.041,0,2.079,0.205,3.085,0.607c0.085,0.034,0.169,0.069,0.252,0.107
						c1.433,0.64,2.688,1.668,3.632,2.974c0.923,1.277,1.506,2.778,1.686,4.339c0.035,0.304,0.05,0.61,0.045,0.916
						c-0.013,0.766-0.13,1.508-0.347,2.213c0.248,0.425,0.46,0.874,0.633,1.342c0.621,1.706,0.67,3.502,0.154,5.237
						c-0.271,0.958-0.709,1.84-1.305,2.627c-0.102,0.159-0.209,0.314-0.323,0.464c-0.679,0.894-1.253,1.632-1.721,2.219
						c-0.409,0.512-0.741,0.937-1.002,1.278c-0.417,0.544-0.777,0.979-1.074,1.312c-0.161,0.181-0.571,0.654-0.627,0.715
						c-0.649,0.707-1.368,1.409-2.134,2.086c-1.597,1.416-3.526,2.312-5.586,2.595c-0.573,0.092-1.146,0.139-1.706,0.139
						c-0.469,0-0.932-0.032-1.386-0.096c-1.178,1.242-2.817,2.057-4.62,2.259C70.716,118.899,70.402,118.917,70.091,118.917z"/>
				</g>
				<g>
					<path fill="#FFFFFF" d="M33.76,133.796c-0.625,0-1.257-0.064-1.877-0.19c-2.68-0.544-4.88-2.36-5.922-4.873
						c-0.198-0.463-0.377-0.954-0.532-1.46c-0.031-0.099-0.066-0.199-0.106-0.299c-0.017-0.042-0.033-0.083-0.049-0.126
						c-0.51-1.345-1.056-2.693-1.622-4.006c-0.512-1.187-1.088-2.351-1.713-3.458c-0.42-0.733-0.902-1.479-1.425-2.206
						c-0.048,0.011-0.096,0.021-0.144,0.032c-0.364,0.079-0.729,0.147-1.096,0.204c-0.39,0.78-0.754,1.572-1.087,2.361l-0.563,1.383
						l-0.229,0.583c-0.677,1.689-1.939,3.104-3.558,3.99c-0.033,0.019-0.067,0.037-0.101,0.054c-1.218,0.641-2.579,0.98-3.936,0.98
						c-0.847,0-1.692-0.128-2.511-0.383c-1.75-0.546-3.267-1.597-4.396-3.042c-0.166-0.212-0.319-0.433-0.459-0.663
						c-1.312-2.149-1.603-4.652-0.818-7.047c0.104-0.315,0.206-0.611,0.308-0.896c0.095-0.269,0.208-0.56,0.333-0.864
						c0.454-1.31,0.949-2.561,1.477-3.726c-0.511-1.551-0.618-3.205-0.294-4.832c0.037-0.186,0.079-0.369,0.125-0.55
						c-0.528-0.429-1.011-0.915-1.438-1.449c-0.895-1.119-1.527-2.392-1.873-3.774c-0.016-0.063-0.031-0.126-0.045-0.19
						c-0.652-2.957,0.26-5.913,2.439-7.906l0.901-0.822c0.071-0.064,0.188-0.168,0.261-0.23c0.887-0.746,1.797-1.465,2.706-2.137
						c2.212-1.624,4.504-2.972,6.834-4.023c2.361-1.063,4.783-1.837,7.206-2.307c1.217-0.256,2.518-0.425,3.867-0.502
						c0.414-0.023,0.815-0.034,1.214-0.034c1.1,0,2.2,0.087,3.27,0.258c1.759,0.278,3.443,0.854,4.996,1.71
						c1.822,1.006,3.361,2.428,4.575,4.229c1.673,2.474,2.497,5.407,2.377,8.478c-0.002,0.059-0.005,0.117-0.009,0.175
						c-0.11,1.728-0.463,3.424-1.048,5.042c-0.542,1.497-1.248,2.921-2.098,4.237c-0.701,1.083-1.492,2.115-2.358,3.076
						c1.191,1.658,2.276,3.364,3.232,5.082c0.032,0.058,0.617,1.171,0.617,1.171c0.22,0.417,0.454,0.873,0.71,1.386
						c0.284,0.57,0.585,1.222,0.904,1.964c0.289,0.673,0.608,1.477,0.958,2.413c0.138,0.344,0.268,0.689,0.39,1.034
						c0.213,0.602,0.384,1.225,0.512,1.862c0.011,0.055,0.021,0.109,0.031,0.164c0.447,2.527-0.265,5.07-1.952,6.977
						c-1.094,1.229-2.475,2.144-4.008,2.662C35.78,133.63,34.776,133.796,33.76,133.796z"/>
					<path fill="#FFFFFF" d="M36.12,121.429c-0.498,0-1.001-0.029-1.495-0.085c-2.667-0.294-5.069-1.596-6.926-3.761
						c-1.549-1.811-2.471-4.017-2.675-6.388c-0.145-1.71-0.004-3.401,0.414-5.039c0.015-0.057,0.03-0.113,0.046-0.17
						c0.357-1.264,0.836-2.486,1.424-3.632c0.547-1.064,1.175-2.082,1.868-3.031c0.687-0.939,1.442-1.826,2.249-2.639
						c0.708-0.714,1.439-1.387,2.173-2.003c0.031-0.026,0.062-0.051,0.093-0.077c0.762-0.617,1.615-1.181,2.61-1.723
						c1.131-0.619,2.336-1.091,3.578-1.4c0.959-0.237,1.915-0.356,2.854-0.356c0.665,0,1.33,0.06,1.977,0.177
						c2.388,0.435,4.493,1.786,5.934,3.806c0.875,1.205,1.432,2.602,1.635,4.07c0.854,0.796,1.525,1.746,1.995,2.824
						c0.678,1.543,0.845,3.294,0.469,4.947c-0.264,1.227-0.791,2.384-1.569,3.443c0,0-0.613,0.839-0.653,0.892
						c-1.052,1.358-1.835,2.313-2.467,3.004c-0.585,0.642-1.151,1.227-1.675,1.733c-0.867,0.853-1.952,1.727-3.178,2.552
						c-1.417,0.953-2.924,1.688-4.481,2.188C38.94,121.204,37.526,121.429,36.12,121.429z"/>
					<path fill="#FFFFFF" d="M48.145,119.774c-0.56,0-1.111-0.041-1.639-0.122c-0.049-0.007-0.098-0.016-0.146-0.024
						c-1.87-0.327-3.516-1.093-4.892-2.278c-1.255-1.087-2.211-2.425-2.856-3.991c-0.525-1.275-0.832-2.663-0.912-4.124
						c-0.065-1.2,0.015-2.453,0.236-3.725c0.316-1.692,0.77-3.372,1.363-5.076c0.545-1.569,1.177-3.145,1.875-4.68
						c0.685-1.507,1.423-2.971,2.194-4.348c0.756-1.354,1.5-2.591,2.208-3.673c0.77-1.17,1.591-2.323,2.453-3.445
						c1.13-1.47,2.429-2.771,3.862-3.869c0.661-0.493,1.314-0.909,2.071-1.327c1.049-0.575,2.13-0.992,3.233-1.251
						c0.768-0.181,1.558-0.274,2.342-0.274c0.769,0,1.537,0.089,2.285,0.265c2.089,0.499,3.881,1.707,5.218,3.501
						c1.294,1.697,1.98,3.712,1.986,5.836c0.002,1.333-0.205,2.659-0.615,3.945c-0.315,0.989-0.719,1.953-1.202,2.867
						c-0.316,0.597-0.592,1.109-0.833,1.546c-0.04,0.072-0.081,0.144-0.123,0.214c-0.789,1.32-1.642,2.589-2.537,3.772
						c-0.039,0.051-0.077,0.102-0.115,0.152c0.877,1.417,1.304,3.09,1.202,4.857c-0.004,0.078-0.01,0.155-0.017,0.233
						c-0.125,1.368-0.553,2.647-1.272,3.803c-0.219,0.351-0.441,0.683-0.667,0.994c-1.411,2.006-2.702,3.6-3.945,4.871
						c-1.358,1.389-2.625,2.454-3.875,3.253c-1.621,1.037-3.178,1.664-4.763,1.919C49.554,119.712,48.831,119.774,48.145,119.774z"
						/>
					<path fill="#FFFFFF" d="M56.877,119.029c-1.365,0-2.707-0.276-3.988-0.821c-2.244-0.949-4.01-2.695-4.96-4.913
						c-0.583-1.36-0.906-2.828-0.957-4.361c-0.042-1.343,0.108-2.672,0.444-3.967c0.272-1.045,0.578-1.938,0.936-2.737
						c0.896-1.963,1.956-3.808,3.169-5.531c1.358-1.93,2.964-3.629,4.769-5.048c0.066-0.052,0.133-0.103,0.201-0.152
						c0.873-0.637,1.799-1.206,2.751-1.693c1.554-0.795,3.23-1.228,4.976-1.28c0.11-0.004,0.238-0.006,0.365-0.006
						c0.554,0,1.097,0.041,1.625,0.12c0.066-0.019,0.133-0.038,0.199-0.055c0.32-0.083,0.645-0.144,0.973-0.181
						c0.317-0.036,0.632-0.054,0.945-0.054c2.041,0,3.965,0.728,5.564,2.106c1.564,1.354,2.573,3.122,2.933,5.125
						c0.035,0.198,0.063,0.396,0.085,0.594c1.726,1.552,2.729,3.766,2.746,6.154c0.001,0.181-0.005,0.361-0.018,0.541
						c-0.113,1.599-0.652,3.105-1.561,4.356c-0.059,0.081-0.099,0.143-0.14,0.209c-0.075,0.12-0.153,0.237-0.235,0.353
						c-0.849,1.195-1.491,2.092-1.929,2.689c0,0-1.195,1.635-1.229,1.679c-0.65,0.845-1.382,1.692-2.174,2.519
						c-1.573,1.641-3.584,2.765-5.813,3.25c-0.81,0.167-1.547,0.243-2.268,0.243c-0.869,0-1.722-0.11-2.543-0.328
						c-0.779,0.384-1.591,0.682-2.431,0.89C58.496,118.931,57.684,119.029,56.877,119.029z"/>
					<path fill="#FFFFFF" d="M70.091,118.917c-1.824,0-3.567-0.599-5.04-1.733c-1.406-1.075-2.433-2.534-2.96-4.216
						c-0.817-2.519-0.348-5.248,1.274-7.341c0.107-0.139,0.212-0.276,0.314-0.412c-0.071-0.195-0.135-0.393-0.193-0.595
						c-0.703-2.48-0.229-5.095,1.298-7.184c0.383-0.524,0.746-1.056,1.078-1.576c0.288-0.454,0.572-0.927,0.843-1.406
						c0.159-0.352,0.596-1.296,0.66-1.44c0.213-0.479,0.391-0.817,0.517-1.036c0.165-0.285,0.331-0.54,0.498-0.775
						c0.143-0.201,0.296-0.395,0.46-0.58c1.379-1.56,3.305-2.49,5.423-2.619c0.257-0.014,0.458-0.019,0.654-0.019
						c0.523,0,1.041,0.039,1.539,0.114c0.305,0.046,0.606,0.113,0.902,0.199c0.345-0.377,0.718-0.726,1.114-1.044
						c1.376-1.111,3.105-1.722,4.882-1.722c1.041,0,2.079,0.205,3.085,0.607c0.085,0.034,0.169,0.069,0.252,0.107
						c1.433,0.64,2.688,1.668,3.632,2.974c0.923,1.277,1.506,2.778,1.686,4.339c0.035,0.304,0.05,0.61,0.045,0.916
						c-0.013,0.766-0.13,1.508-0.347,2.213c0.248,0.425,0.46,0.874,0.633,1.342c0.621,1.706,0.67,3.502,0.154,5.237
						c-0.271,0.958-0.709,1.84-1.305,2.627c-0.102,0.159-0.209,0.314-0.323,0.464c-0.679,0.894-1.253,1.632-1.721,2.219
						c-0.409,0.512-0.741,0.937-1.002,1.278c-0.417,0.544-0.777,0.979-1.074,1.312c-0.161,0.181-0.571,0.654-0.627,0.715
						c-0.649,0.707-1.368,1.409-2.134,2.086c-1.597,1.416-3.526,2.312-5.586,2.595c-0.573,0.092-1.146,0.139-1.706,0.139
						c-0.469,0-0.932-0.032-1.386-0.096c-1.178,1.242-2.817,2.057-4.62,2.259C70.716,118.899,70.402,118.917,70.091,118.917z"/>
				</g>
			</g>
		</g>
		<g>
			<g>
				<g>
					<path fill="#FFFFFF" d="M29.853,7.409l0.409,0.02c3.548,0.183,5.276,1.092,5.186,2.729c-0.039,0.845-0.656,1.358-1.852,1.54
						c-1.859-0.546-3.575-0.864-5.147-0.955l-0.409-0.02l-5.79-0.02l-0.117,8.754c2.456-0.338,6.16-0.565,11.112-0.683
						c0.806,0.364,1.189,0.845,1.15,1.442L34.356,20.9c-0.039,0.806-2.099,1.104-6.18,0.896c-0.014,0.131-2.021,0.215-6.024,0.254
						l0.078,24.272h0.136l10.938,0.468c1.131,0.065,1.774,0.832,1.931,2.301l-0.02,0.409c-0.053,1.001-5.271,1.397-15.655,1.189
						l-0.41-0.02c-0.779-0.039-1.338-0.709-1.676-2.009c0.351-1.429,0.552-2.69,0.604-3.782c0.261-11.84,0.436-22.244,0.526-31.212
						l0.176-3.412c0.039-0.845,0.487-1.638,1.346-2.379l0.409,0.02l0.272,0.273C23.094,7.468,26.11,7.215,29.853,7.409z"/>
					<path fill="#FFFFFF" d="M51.005,7c3.912,0,6.869,2.456,8.87,7.369c0.455,0,0.937,8.176,1.443,24.526
						c0.48,5.004,0.936,7.506,1.364,7.506c1.001,0.416,1.501,1.053,1.501,1.91c-0.351,1.82-1.078,2.729-2.183,2.729h-0.683
						c-1.859,0-3.087-1.592-3.685-4.776c-2.665,1.91-5.485,2.866-8.462,2.866h-1.228c-5.187,0-8.689-2.912-10.509-8.734
						c-0.637-2.34-0.955-4.568-0.955-6.688c0-5.771,2.138-10.092,6.414-12.965c2.001-1,4.094-1.501,6.277-1.501h0.546
						c2.041,0,4.315,0.546,6.824,1.638v-0.683c0.039-4.938-1.353-8.11-4.173-9.514l-1.364-0.137h-0.409
						c-2.704,0-5.706,1.82-9.008,5.459h-0.136c-0.638,0-0.955-0.318-0.955-0.955c0-2.443,2.138-4.854,6.414-7.233
						C48.77,7.272,50.134,7,51.005,7z M40.614,34.752c0.156,2.477,0.937,4.939,2.34,7.39c1.403,2.449,3.935,3.574,7.594,3.372
						c3.658-0.201,5.793-2.141,6.404-5.819c-0.169-3.041-0.254-6.973-0.254-11.795v-0.253c0-1.313-0.691-2.347-2.076-3.101
						c-1.384-0.753-3.45-1.163-6.199-1.228c-2.749-0.065-4.776,1.205-6.083,3.811C41.034,29.735,40.458,32.276,40.614,34.752z"/>
					<path fill="#FFFFFF" d="M79.021,7.234c0.728,0.351,1.092,0.806,1.092,1.364v0.409c0,1.001-0.773,1.501-2.319,1.501h-3.003
						l-1.364,0.137l-0.137-0.137l0.409,4.504l-0.137,8.871l0.41,5.595v5.05c0,6.693,0.136,11.242,0.409,13.646
						c0,1.911-0.683,2.866-2.047,2.866h-0.41c-1.455,0-2.184-1.774-2.184-5.322l-0.136-4.913l0.136-8.87l-0.136-9.689l0.546-9.963
						l-0.137-1.638c-6.005-0.182-9.007-0.409-9.007-0.683l-0.137-0.409c0-1.078,4.867-1.716,14.603-1.91L79.021,7.234z"/>
				</g>
				<g>
					<path fill="#FFFFFF" d="M29.853,7.409l0.409,0.02c3.548,0.183,5.276,1.092,5.186,2.729c-0.039,0.845-0.656,1.358-1.852,1.54
						c-1.859-0.546-3.575-0.864-5.147-0.955l-0.409-0.02l-5.79-0.02l-0.117,8.754c2.456-0.338,6.16-0.565,11.112-0.683
						c0.806,0.364,1.189,0.845,1.15,1.442L34.356,20.9c-0.039,0.806-2.099,1.104-6.18,0.896c-0.014,0.131-2.021,0.215-6.024,0.254
						l0.078,24.272h0.136l10.938,0.468c1.131,0.065,1.774,0.832,1.931,2.301l-0.02,0.409c-0.053,1.001-5.271,1.397-15.655,1.189
						l-0.41-0.02c-0.779-0.039-1.338-0.709-1.676-2.009c0.351-1.429,0.552-2.69,0.604-3.782c0.261-11.84,0.436-22.244,0.526-31.212
						l0.176-3.412c0.039-0.845,0.487-1.638,1.346-2.379l0.409,0.02l0.272,0.273C23.094,7.468,26.11,7.215,29.853,7.409z"/>
					<path fill="#FFFFFF" d="M51.005,7c3.912,0,6.869,2.456,8.87,7.369c0.455,0,0.937,8.176,1.443,24.526
						c0.48,5.004,0.936,7.506,1.364,7.506c1.001,0.416,1.501,1.053,1.501,1.91c-0.351,1.82-1.078,2.729-2.183,2.729h-0.683
						c-1.859,0-3.087-1.592-3.685-4.776c-2.665,1.91-5.485,2.866-8.462,2.866h-1.228c-5.187,0-8.689-2.912-10.509-8.734
						c-0.637-2.34-0.955-4.568-0.955-6.688c0-5.771,2.138-10.092,6.414-12.965c2.001-1,4.094-1.501,6.277-1.501h0.546
						c2.041,0,4.315,0.546,6.824,1.638v-0.683c0.039-4.938-1.353-8.11-4.173-9.514l-1.364-0.137h-0.409
						c-2.704,0-5.706,1.82-9.008,5.459h-0.136c-0.638,0-0.955-0.318-0.955-0.955c0-2.443,2.138-4.854,6.414-7.233
						C48.77,7.272,50.134,7,51.005,7z M40.614,34.752c0.156,2.477,0.937,4.939,2.34,7.39c1.403,2.449,3.935,3.574,7.594,3.372
						c3.658-0.201,5.793-2.141,6.404-5.819c-0.169-3.041-0.254-6.973-0.254-11.795v-0.253c0-1.313-0.691-2.347-2.076-3.101
						c-1.384-0.753-3.45-1.163-6.199-1.228c-2.749-0.065-4.776,1.205-6.083,3.811C41.034,29.735,40.458,32.276,40.614,34.752z"/>
					<path fill="#FFFFFF" d="M79.021,7.234c0.728,0.351,1.092,0.806,1.092,1.364v0.409c0,1.001-0.773,1.501-2.319,1.501h-3.003
						l-1.364,0.137l-0.137-0.137l0.409,4.504l-0.137,8.871l0.41,5.595v5.05c0,6.693,0.136,11.242,0.409,13.646
						c0,1.911-0.683,2.866-2.047,2.866h-0.41c-1.455,0-2.184-1.774-2.184-5.322l-0.136-4.913l0.136-8.87l-0.136-9.689l0.546-9.963
						l-0.137-1.638c-6.005-0.182-9.007-0.409-9.007-0.683l-0.137-0.409c0-1.078,4.867-1.716,14.603-1.91L79.021,7.234z"/>
				</g>
			</g>
			<g>
				<path fill="#FFFFFF" d="M25.712,91.756l-7.16,0.164l-2.678-36.454l7.364-0.169l-0.005,1.554l-3.475,0.212l0.532,7.132
					l3.023-0.291l0.255,3.987l-3.547,0.613l1.041,20.386l4.459-0.103L25.712,91.756z"/>
				<path fill="#FFFFFF" d="M31.38,55.11l2.708,12.805l0.938-12.667l3.071,0.063l-0.136,35.144l-3.643-0.004l-3.216-18.828
					l-0.465,19L27.243,90.7l0.375-35.415L31.38,55.11z"/>
				<path fill="#FFFFFF" d="M42.936,84.218c0,0-0.413,3.427,1.554,3.514c2.828,0.157,0.235-29.023-0.224-32.962l3.4,0.1
					c0,0,4.97,36.447-2.311,36.703c-5.93,0.269-5.136-6.184-5.411-7.464L42.936,84.218z"/>
				<path fill="#FFFFFF" d="M59.908,90.706c-2.478,0.812-6.19,1.383-7.007-0.327c-0.817-1.713-2.354-33.001-1.368-34.666
					c0.985-1.664,6.188-1.474,7.551-0.973C61.271,55.489,62.389,89.983,59.908,90.706z"/>
				<path fill="#FFFFFF" d="M68.598,68.012c2.373-0.055,2.461-14.078,2.461-14.078l3.187-0.249c0,0,1.468,8.661,0.927,29.705
					c-0.454,12.345-12.943,6.819-11.548-5.548l1.552-0.124c0.308,2.699,2.323,10.24,6.408,8.106
					c1.375-0.698,0.775-17.987,0.775-17.987c0.485,5.09-2.531,7.467-6.297,3.871c-2.76-2.556-3.217-17.142-3.217-17.142l2.501,0.164
					C65.346,54.73,66.552,68.059,68.598,68.012z"/>
			</g>
			<g>
				<g>
					<g>
						<path fill="#FFFFFF" d="M7.042,97.842c-0.114-0.518-0.004-0.93,0.329-1.234c0.333-0.303,0.647-0.59,0.943-0.861
							c0.77-0.648,1.557-1.271,2.361-1.865c1.81-1.328,3.66-2.417,5.551-3.271c1.891-0.851,3.796-1.459,5.716-1.827
							c0.903-0.193,1.864-0.317,2.879-0.375c1.015-0.057,2.008-0.008,2.979,0.147c0.971,0.154,1.878,0.463,2.721,0.928
							c0.843,0.465,1.561,1.136,2.151,2.012c0.853,1.261,1.248,2.692,1.186,4.292c-0.068,1.071-0.284,2.108-0.645,3.107
							c-0.363,1.002-0.827,1.941-1.394,2.818c-0.567,0.876-1.209,1.695-1.925,2.457c-0.717,0.761-1.448,1.451-2.195,2.066
							c-0.797,0.652-1.577,1.215-2.34,1.686c1.451,1.25,2.764,2.672,3.941,4.264c1.176,1.594,2.228,3.222,3.154,4.887
							c0.174,0.335,0.357,0.684,0.548,1.045c0.191,0.362,0.401,0.772,0.632,1.234c0.229,0.461,0.475,0.993,0.734,1.599
							s0.547,1.332,0.863,2.182c0.114,0.282,0.221,0.565,0.322,0.849c0.1,0.283,0.183,0.585,0.247,0.902
							c0.077,0.434-0.024,0.807-0.301,1.12c-0.277,0.312-0.613,0.535-1.006,0.668c-0.394,0.134-0.799,0.157-1.218,0.072
							c-0.418-0.085-0.705-0.325-0.859-0.72c-0.111-0.254-0.209-0.524-0.296-0.808c-0.088-0.286-0.188-0.57-0.302-0.853
							c-0.547-1.442-1.126-2.874-1.738-4.295c-0.612-1.42-1.295-2.798-2.046-4.128c-0.715-1.247-1.513-2.447-2.394-3.601
							c-0.881-1.153-1.851-2.187-2.909-3.099c-1.281,0.472-2.566,0.847-3.855,1.128c-1.29,0.281-2.583,0.333-3.884,0.157
							c-0.586,1.071-1.157,2.147-1.714,3.229c-0.558,1.083-1.072,2.183-1.543,3.299l-0.606,1.486
							c-0.084,0.218-0.164,0.418-0.237,0.603c-0.075,0.187-0.214,0.335-0.419,0.447c-0.36,0.189-0.73,0.224-1.111,0.105
							c-0.382-0.119-0.7-0.341-0.955-0.667c-0.235-0.385-0.281-0.792-0.14-1.223c0.081-0.245,0.163-0.483,0.245-0.714
							c0.082-0.232,0.177-0.47,0.285-0.72c0.428-1.259,0.893-2.433,1.395-3.524c0.501-1.091,1.02-2.155,1.555-3.19
							c-0.205-0.124-0.391-0.264-0.559-0.422c-0.168-0.159-0.319-0.347-0.453-0.568c-0.427-0.631-0.571-1.292-0.432-1.989
							c0.138-0.693,0.48-1.28,1.025-1.756c0.494-0.439,1.059-0.741,1.694-0.902c0.635-0.162,1.264-0.261,1.886-0.305
							c0.953-1.673,1.932-3.29,2.938-4.853c1.006-1.562,2.063-3.085,3.174-4.571c0.094-0.127,0.235-0.322,0.424-0.58
							c0.188-0.257,0.39-0.523,0.603-0.8c0.213-0.274,0.423-0.528,0.628-0.757c0.205-0.23,0.358-0.38,0.459-0.452
							c-1.954,0.549-3.758,1.265-5.413,2.148c-1.656,0.884-3.239,1.87-4.75,2.957c-0.4,0.313-0.788,0.615-1.163,0.909
							c-0.375,0.294-0.734,0.608-1.077,0.942c-0.199,0.171-0.377,0.339-0.535,0.504c-0.159,0.166-0.336,0.333-0.535,0.503
							c-0.306,0.184-0.659,0.194-1.059,0.033s-0.735-0.41-1.005-0.749C7.328,98.613,7.143,98.244,7.042,97.842z M13.412,106.368
							c-0.154,0.078-0.315,0.162-0.481,0.255c-0.167,0.092-0.292,0.189-0.375,0.287c-0.085,0.098-0.12,0.207-0.106,0.322
							c0.014,0.117,0.121,0.223,0.322,0.318c0.114-0.191,0.222-0.388,0.321-0.592C13.191,106.755,13.297,106.56,13.412,106.368z
							 M20.152,107.413c-0.491-0.239-0.956-0.437-1.396-0.593c-0.441-0.156-0.884-0.282-1.331-0.38l-0.928,1.524
							C17.75,107.968,18.968,107.784,20.152,107.413z M25.951,93.109c0.043,0.143,0.048,0.297,0.013,0.464
							c-0.036,0.166-0.163,0.424-0.381,0.773c-0.219,0.351-0.563,0.855-1.032,1.513c-0.47,0.659-1.105,1.538-1.905,2.632
							c-0.684,0.934-1.333,1.873-1.946,2.814c-0.614,0.941-1.221,1.888-1.82,2.842c0.994,0.359,1.817,0.7,2.467,1.024
							c0.65,0.325,1.255,0.676,1.816,1.056c1.516-0.794,2.925-1.812,4.227-3.054c0.733-0.732,1.412-1.527,2.036-2.38
							s1.138-1.776,1.542-2.768c0.192-0.464,0.332-0.968,0.42-1.509c0.087-0.541,0.109-1.068,0.064-1.579s-0.169-0.999-0.372-1.463
							c-0.203-0.463-0.528-0.862-0.974-1.195c-0.807-0.616-1.73-0.953-2.772-1.012c-1.042-0.058-2.03-0.003-2.964,0.163
							C25.239,91.655,25.767,92.215,25.951,93.109z"/>
						<path fill="#FFFFFF" d="M33.011,113.026c-0.597-0.698-0.935-1.509-1.014-2.43c-0.078-0.921-0.004-1.823,0.222-2.705
							c0.233-0.824,0.539-1.604,0.917-2.342c0.379-0.737,0.81-1.436,1.292-2.097c0.482-0.66,1.005-1.272,1.567-1.839
							c0.562-0.566,1.128-1.088,1.7-1.568c0.424-0.343,0.943-0.684,1.559-1.02c0.615-0.336,1.254-0.586,1.916-0.751
							c0.662-0.164,1.292-0.191,1.891-0.083c0.598,0.109,1.092,0.436,1.481,0.982c0.355,0.489,0.486,1.037,0.392,1.638
							c-0.095,0.602-0.248,1.166-0.46,1.691c-0.475,1.088-1.124,2.084-1.946,2.991c-0.822,0.906-1.72,1.635-2.691,2.19
							c-0.743,0.411-1.513,0.705-2.31,0.884c-0.796,0.181-1.59,0.153-2.379-0.081c-0.125,0.339-0.217,0.666-0.275,0.983
							c-0.06,0.316-0.06,0.619,0.001,0.907c0.06,0.289,0.185,0.547,0.375,0.777c0.19,0.229,0.481,0.395,0.875,0.497
							c0.702,0.185,1.477,0.052,2.324-0.398c0.848-0.451,1.673-1.033,2.477-1.746c0.803-0.711,1.536-1.452,2.197-2.223
							c0.661-0.768,1.17-1.379,1.526-1.835c0.165-0.225,0.334-0.473,0.507-0.745c0.174-0.27,0.375-0.478,0.604-0.622
							c0.232-0.115,0.458-0.156,0.681-0.122c0.222,0.034,0.423,0.128,0.604,0.285c0.182,0.156,0.318,0.34,0.41,0.552
							c0.092,0.21,0.11,0.423,0.053,0.635c-0.051,0.271-0.177,0.545-0.376,0.817c-0.2,0.275-0.383,0.525-0.547,0.75
							c-0.902,1.166-1.601,2.021-2.097,2.564c-0.497,0.544-0.953,1.017-1.37,1.419c-0.612,0.602-1.354,1.196-2.227,1.783
							c-0.873,0.587-1.776,1.029-2.708,1.328c-0.933,0.3-1.854,0.397-2.766,0.294C34.504,114.289,33.704,113.833,33.011,113.026z
							 M37.474,105.96c0.975-0.288,1.842-0.8,2.603-1.537c0.76-0.737,1.381-1.502,1.862-2.296c0.185-0.286,0.308-0.58,0.369-0.883
							c0.061-0.302,0.019-0.49-0.125-0.562c-0.676,0.284-1.301,0.65-1.876,1.1s-1.118,0.941-1.629,1.471
							c-0.882,0.869-1.632,1.812-2.251,2.826C36.754,106.103,37.104,106.063,37.474,105.96z"/>
						<path fill="#FFFFFF" d="M55.15,104.026c0.138-0.222,0.283-0.438,0.437-0.648c0.153-0.209,0.346-0.372,0.578-0.486
							c0.413-0.195,0.799-0.159,1.157,0.111c0.358,0.269,0.523,0.642,0.496,1.117c-0.024,0.268-0.104,0.515-0.243,0.737
							c-0.138,0.221-0.277,0.429-0.419,0.623c-1.194,1.702-2.279,3.051-3.255,4.048c-0.976,0.998-1.857,1.748-2.644,2.251
							c-0.787,0.503-1.487,0.805-2.103,0.904c-0.616,0.102-1.145,0.117-1.588,0.049c-0.612-0.107-1.122-0.336-1.529-0.688
							c-0.408-0.353-0.725-0.804-0.952-1.354s-0.357-1.162-0.394-1.836c-0.037-0.676,0.011-1.39,0.143-2.143
							c0.237-1.267,0.595-2.592,1.078-3.977c0.481-1.383,1.027-2.744,1.637-4.083c0.609-1.34,1.253-2.617,1.932-3.83
							c0.678-1.214,1.33-2.301,1.956-3.258c0.673-1.022,1.389-2.026,2.147-3.014c0.758-0.987,1.613-1.845,2.566-2.574
							c0.326-0.243,0.726-0.496,1.2-0.758c0.474-0.26,0.956-0.448,1.447-0.563c0.491-0.116,0.967-0.118,1.429-0.009
							c0.462,0.11,0.871,0.41,1.227,0.9c0.382,0.488,0.574,1.034,0.576,1.64c0.001,0.605-0.094,1.206-0.284,1.803
							s-0.432,1.172-0.722,1.721c-0.292,0.551-0.55,1.031-0.775,1.439c-0.664,1.11-1.367,2.157-2.112,3.143
							c-0.746,0.986-1.527,1.955-2.344,2.904c-0.532,0.592-1.097,1.188-1.695,1.788c-0.599,0.601-1.2,1.186-1.801,1.756
							c-0.603,0.571-1.208,1.106-1.819,1.603c-0.611,0.499-1.195,0.927-1.753,1.286c-0.182,0.317-0.337,0.623-0.467,0.917
							c-0.129,0.296-0.247,0.582-0.351,0.859c-0.371,1.047-0.478,1.9-0.32,2.561c0.157,0.662,0.419,1.045,0.785,1.151
							c0.282,0.085,0.66-0.002,1.135-0.263c0.474-0.261,1.008-0.654,1.602-1.18c0.593-0.525,1.234-1.182,1.919-1.969
							C53.711,105.917,54.419,105.026,55.15,104.026z M52.619,97.983c0.996-1.059,1.947-2.149,2.854-3.272
							c0.907-1.122,1.75-2.318,2.532-3.588c0.319-0.539,0.62-1.068,0.901-1.587c0.281-0.519,0.496-1.083,0.644-1.69
							c0.055-0.242,0.02-0.363-0.103-0.364c-0.123-0.001-0.28,0.054-0.472,0.164c-0.191,0.112-0.4,0.254-0.626,0.427
							c-0.225,0.173-0.398,0.327-0.52,0.458c-0.952,0.966-1.822,1.987-2.611,3.067c-0.789,1.08-1.51,2.218-2.163,3.415
							c-0.451,0.82-0.889,1.638-1.313,2.454c-0.424,0.816-0.818,1.658-1.182,2.527c0.343-0.334,0.687-0.662,1.032-0.982
							C51.937,98.689,52.279,98.347,52.619,97.983z"/>
						<path fill="#FFFFFF" d="M65.07,111.084c-0.639,0.131-1.213,0.109-1.724-0.069c-0.511-0.178-0.929-0.498-1.254-0.963
							c-0.194-0.272-0.346-0.64-0.453-1.101c-0.337,0.394-0.676,0.758-1.019,1.092c-0.344,0.334-0.702,0.655-1.075,0.964
							c-0.602,0.453-1.241,0.762-1.917,0.929c-0.676,0.165-1.343,0.109-2.001-0.171c-0.602-0.254-1.022-0.664-1.265-1.229
							c-0.241-0.562-0.373-1.175-0.395-1.835c-0.021-0.663,0.054-1.32,0.224-1.975c0.17-0.654,0.354-1.199,0.549-1.635
							c0.697-1.526,1.531-2.98,2.504-4.361c0.972-1.381,2.096-2.573,3.371-3.574c0.578-0.421,1.182-0.793,1.813-1.116
							c0.63-0.323,1.298-0.496,2.004-0.518c1.085-0.036,1.929,0.311,2.53,1.039c0.135-0.251,0.316-0.501,0.548-0.749
							c0.23-0.248,0.451-0.398,0.663-0.453c0.403-0.046,0.787,0.088,1.149,0.401c0.332,0.288,0.536,0.64,0.611,1.059
							c0.075,0.42-0.003,0.806-0.235,1.157c-0.327,0.479-0.667,0.955-1.022,1.423c-0.354,0.469-0.692,0.973-1.012,1.511
							c-0.757,1.238-1.379,2.292-1.865,3.159c-0.487,0.868-0.883,1.748-1.189,2.638c-0.108,0.249-0.181,0.509-0.218,0.778
							c-0.037,0.27-0.039,0.493-0.005,0.666c0.033,0.172,0.121,0.289,0.264,0.346c0.143,0.058,0.352-0.019,0.628-0.227
							c0.326-0.243,0.621-0.52,0.886-0.832c0.264-0.31,0.525-0.643,0.785-0.998l2.932-4.012c0.142-0.193,0.286-0.409,0.437-0.647
							c0.15-0.238,0.325-0.428,0.527-0.569c0.41-0.224,0.813-0.212,1.21,0.038c0.396,0.25,0.596,0.626,0.599,1.128
							c-0.021,0.297-0.102,0.542-0.243,0.736c-0.142,0.193-0.281,0.401-0.419,0.623c-0.822,1.158-1.444,2.026-1.868,2.605
							c-0.424,0.581-0.801,1.097-1.13,1.547c-0.498,0.647-1.057,1.294-1.678,1.941C66.696,110.478,65.947,110.894,65.07,111.084z
							 M61.444,100.472c-0.871,0.956-1.726,2.057-2.563,3.305c-0.838,1.247-1.449,2.454-1.833,3.619
							c-0.044,0.094-0.101,0.256-0.169,0.484c-0.069,0.229-0.118,0.456-0.146,0.682c-0.03,0.224-0.02,0.423,0.027,0.594
							c0.047,0.172,0.178,0.245,0.393,0.22c0.612-0.129,1.166-0.466,1.662-1.009c0.496-0.543,0.924-1.028,1.284-1.453
							c1.026-1.269,1.953-2.577,2.779-3.927s1.653-2.692,2.481-4.027c-0.013-0.589-0.201-0.863-0.564-0.822s-0.773,0.208-1.23,0.496
							c-0.457,0.29-0.895,0.634-1.312,1.036C61.833,100.072,61.565,100.339,61.444,100.472z"/>
						<path fill="#FFFFFF" d="M70.437,101.568c0.471-0.645,0.915-1.293,1.331-1.946c0.415-0.653,0.814-1.325,1.199-2.019
							c0.195-0.435,0.358-0.794,0.49-1.074c0.131-0.282,0.234-0.507,0.311-0.679c0.076-0.17,0.136-0.295,0.182-0.375
							c0.045-0.079,0.092-0.15,0.139-0.216c0.145-0.164,0.346-0.252,0.603-0.268c0.257-0.014,0.496-0.005,0.718,0.028
							c0.453,0.155,0.813,0.438,1.078,0.851c0.161,0.218,0.226,0.424,0.193,0.619c-0.032,0.197-0.075,0.416-0.129,0.658
							c-0.149,0.608-0.269,1.219-0.362,1.835c-0.093,0.616-0.172,1.238-0.236,1.864c0.834-1.04,1.557-1.926,2.167-2.661
							c0.61-0.734,1.144-1.372,1.6-1.91c0.455-0.539,0.857-1.014,1.206-1.422c0.348-0.409,0.692-0.794,1.032-1.159
							c0.145-0.164,0.289-0.334,0.432-0.514c0.143-0.179,0.302-0.336,0.477-0.475c0.248-0.206,0.573-0.228,0.973-0.068
							c0.316,0.141,0.587,0.369,0.813,0.683s0.362,0.661,0.405,1.039c-0.003,0.207-0.059,0.375-0.167,0.506
							c-0.107,0.131-0.222,0.262-0.343,0.395c-0.048,0.063-0.101,0.137-0.159,0.216c-0.059,0.082-0.186,0.229-0.378,0.443
							c-0.194,0.214-0.464,0.525-0.813,0.934c-0.348,0.41-0.822,0.965-1.423,1.669c-0.601,0.704-1.357,1.588-2.271,2.651
							c-0.914,1.064-2.02,2.35-3.318,3.856c0.21,0.891,0.472,1.503,0.783,1.838c0.31,0.333,0.798,0.195,1.465-0.412
							c0.719-0.614,1.417-1.358,2.094-2.233c0.676-0.874,1.524-1.975,2.543-3.303c0.118-0.161,0.242-0.329,0.371-0.507
							c0.13-0.176,0.267-0.347,0.412-0.512c0.219-0.231,0.465-0.341,0.739-0.328c0.273,0.014,0.515,0.096,0.723,0.25
							c0.208,0.154,0.362,0.365,0.461,0.634c0.098,0.27,0.097,0.558-0.003,0.864c-0.038,0.152-0.104,0.285-0.199,0.398
							c-0.096,0.115-0.189,0.251-0.28,0.409c-0.639,0.842-1.18,1.537-1.62,2.09c-0.441,0.553-0.803,1.015-1.087,1.387
							c-0.284,0.371-0.53,0.673-0.734,0.902c-0.206,0.231-0.392,0.445-0.56,0.641c-0.485,0.527-1.023,1.054-1.617,1.579
							c-0.593,0.526-1.253,0.831-1.979,0.914c-0.88,0.159-1.611,0.022-2.192-0.414s-1.062-1-1.44-1.696
							c-0.431,0.522-0.874,1.061-1.327,1.614c-0.454,0.554-1.063,1.303-1.827,2.246c-0.121,0.133-0.223,0.247-0.308,0.345
							c-0.083,0.099-0.207,0.156-0.368,0.174c-0.322,0.037-0.625-0.053-0.909-0.271c-0.284-0.217-0.471-0.484-0.562-0.799
							c-0.121-0.341-0.074-0.648,0.139-0.924c0.213-0.276,0.415-0.542,0.603-0.8c0.569-0.744,1.043-1.366,1.421-1.867
							c0.378-0.5,0.704-0.93,0.977-1.286c0.272-0.355,0.503-0.655,0.694-0.898c0.19-0.244,0.367-0.477,0.532-0.704
							c-0.08-0.699-0.12-1.403-0.119-2.112l-0.424,0.58c-0.212,0.29-0.45,0.531-0.714,0.724s-0.584,0.193-0.96-0.001
							c-0.346-0.167-0.576-0.451-0.69-0.851C70.105,102.3,70.178,101.922,70.437,101.568z"/>
					</g>
				</g>
				<g>
					<path fill="#FFFFFF" d="M7.042,97.842c-0.114-0.518-0.004-0.93,0.329-1.234c0.333-0.303,0.647-0.59,0.943-0.861
						c0.77-0.648,1.557-1.271,2.361-1.865c1.81-1.328,3.66-2.417,5.551-3.271c1.891-0.851,3.796-1.459,5.716-1.827
						c0.903-0.193,1.864-0.317,2.879-0.375c1.015-0.057,2.008-0.008,2.979,0.147c0.971,0.154,1.878,0.463,2.721,0.928
						c0.843,0.465,1.561,1.136,2.151,2.012c0.853,1.261,1.248,2.692,1.186,4.292c-0.068,1.071-0.284,2.108-0.645,3.107
						c-0.363,1.002-0.827,1.941-1.394,2.818c-0.567,0.876-1.209,1.695-1.925,2.457c-0.717,0.761-1.448,1.451-2.195,2.066
						c-0.797,0.652-1.577,1.215-2.34,1.686c1.451,1.25,2.764,2.672,3.941,4.264c1.176,1.594,2.228,3.222,3.154,4.887
						c0.174,0.335,0.357,0.684,0.548,1.045c0.191,0.362,0.401,0.772,0.632,1.234c0.229,0.461,0.475,0.993,0.734,1.599
						s0.547,1.332,0.863,2.182c0.114,0.282,0.221,0.565,0.322,0.849c0.1,0.283,0.183,0.585,0.247,0.902
						c0.077,0.434-0.024,0.807-0.301,1.12c-0.277,0.312-0.613,0.535-1.006,0.668c-0.394,0.134-0.799,0.157-1.218,0.072
						c-0.418-0.085-0.705-0.325-0.859-0.72c-0.111-0.254-0.209-0.524-0.296-0.808c-0.088-0.286-0.188-0.57-0.302-0.853
						c-0.547-1.442-1.126-2.874-1.738-4.295c-0.612-1.42-1.295-2.798-2.046-4.128c-0.715-1.247-1.513-2.447-2.394-3.601
						c-0.881-1.153-1.851-2.187-2.909-3.099c-1.281,0.472-2.566,0.847-3.855,1.128c-1.29,0.281-2.583,0.333-3.884,0.157
						c-0.586,1.071-1.157,2.147-1.714,3.229c-0.558,1.083-1.072,2.183-1.543,3.299l-0.606,1.486
						c-0.084,0.218-0.164,0.418-0.237,0.603c-0.075,0.187-0.214,0.335-0.419,0.447c-0.36,0.189-0.73,0.224-1.111,0.105
						c-0.382-0.119-0.7-0.341-0.955-0.667c-0.235-0.385-0.281-0.792-0.14-1.223c0.081-0.245,0.163-0.483,0.245-0.714
						c0.082-0.232,0.177-0.47,0.285-0.72c0.428-1.259,0.893-2.433,1.395-3.524c0.501-1.091,1.02-2.155,1.555-3.19
						c-0.205-0.124-0.391-0.264-0.559-0.422c-0.168-0.159-0.319-0.347-0.453-0.568c-0.427-0.631-0.571-1.292-0.432-1.989
						c0.138-0.693,0.48-1.28,1.025-1.756c0.494-0.439,1.059-0.741,1.694-0.902c0.635-0.162,1.264-0.261,1.886-0.305
						c0.953-1.673,1.932-3.29,2.938-4.853c1.006-1.562,2.063-3.085,3.174-4.571c0.094-0.127,0.235-0.322,0.424-0.58
						c0.188-0.257,0.39-0.523,0.603-0.8c0.213-0.274,0.423-0.528,0.628-0.757c0.205-0.23,0.358-0.38,0.459-0.452
						c-1.954,0.549-3.758,1.265-5.413,2.148c-1.656,0.884-3.239,1.87-4.75,2.957c-0.4,0.313-0.788,0.615-1.163,0.909
						c-0.375,0.294-0.734,0.608-1.077,0.942c-0.199,0.171-0.377,0.339-0.535,0.504c-0.159,0.166-0.336,0.333-0.535,0.503
						c-0.306,0.184-0.659,0.194-1.059,0.033s-0.735-0.41-1.005-0.749C7.328,98.613,7.143,98.244,7.042,97.842z M13.412,106.368
						c-0.154,0.078-0.315,0.162-0.481,0.255c-0.167,0.092-0.292,0.189-0.375,0.287c-0.085,0.098-0.12,0.207-0.106,0.322
						c0.014,0.117,0.121,0.223,0.322,0.318c0.114-0.191,0.222-0.388,0.321-0.592C13.191,106.755,13.297,106.56,13.412,106.368z
						 M20.152,107.413c-0.491-0.239-0.956-0.437-1.396-0.593c-0.441-0.156-0.884-0.282-1.331-0.38l-0.928,1.524
						C17.75,107.968,18.968,107.784,20.152,107.413z M25.951,93.109c0.043,0.143,0.048,0.297,0.013,0.464
						c-0.036,0.166-0.163,0.424-0.381,0.773c-0.219,0.351-0.563,0.855-1.032,1.513c-0.47,0.659-1.105,1.538-1.905,2.632
						c-0.684,0.934-1.333,1.873-1.946,2.814c-0.614,0.941-1.221,1.888-1.82,2.842c0.994,0.359,1.817,0.7,2.467,1.024
						c0.65,0.325,1.255,0.676,1.816,1.056c1.516-0.794,2.925-1.812,4.227-3.054c0.733-0.732,1.412-1.527,2.036-2.38
						s1.138-1.776,1.542-2.768c0.192-0.464,0.332-0.968,0.42-1.509c0.087-0.541,0.109-1.068,0.064-1.579s-0.169-0.999-0.372-1.463
						c-0.203-0.463-0.528-0.862-0.974-1.195c-0.807-0.616-1.73-0.953-2.772-1.012c-1.042-0.058-2.03-0.003-2.964,0.163
						C25.239,91.655,25.767,92.215,25.951,93.109z"/>
					<path fill="#FFFFFF" d="M33.011,113.026c-0.597-0.698-0.935-1.509-1.014-2.43c-0.078-0.921-0.004-1.823,0.222-2.705
						c0.233-0.824,0.539-1.604,0.917-2.342c0.379-0.737,0.81-1.436,1.292-2.097c0.482-0.66,1.005-1.272,1.567-1.839
						c0.562-0.566,1.128-1.088,1.7-1.568c0.424-0.343,0.943-0.684,1.559-1.02c0.615-0.336,1.254-0.586,1.916-0.751
						c0.662-0.164,1.292-0.191,1.891-0.083c0.598,0.109,1.092,0.436,1.481,0.982c0.355,0.489,0.486,1.037,0.392,1.638
						c-0.095,0.602-0.248,1.166-0.46,1.691c-0.475,1.088-1.124,2.084-1.946,2.991c-0.822,0.906-1.72,1.635-2.691,2.19
						c-0.743,0.411-1.513,0.705-2.31,0.884c-0.796,0.181-1.59,0.153-2.379-0.081c-0.125,0.339-0.217,0.666-0.275,0.983
						c-0.06,0.316-0.06,0.619,0.001,0.907c0.06,0.289,0.185,0.547,0.375,0.777c0.19,0.229,0.481,0.395,0.875,0.497
						c0.702,0.185,1.477,0.052,2.324-0.398c0.848-0.451,1.673-1.033,2.477-1.746c0.803-0.711,1.536-1.452,2.197-2.223
						c0.661-0.768,1.17-1.379,1.526-1.835c0.165-0.225,0.334-0.473,0.507-0.745c0.174-0.27,0.375-0.478,0.604-0.622
						c0.232-0.115,0.458-0.156,0.681-0.122c0.222,0.034,0.423,0.128,0.604,0.285c0.182,0.156,0.318,0.34,0.41,0.552
						c0.092,0.21,0.11,0.423,0.053,0.635c-0.051,0.271-0.177,0.545-0.376,0.817c-0.2,0.275-0.383,0.525-0.547,0.75
						c-0.902,1.166-1.601,2.021-2.097,2.564c-0.497,0.544-0.953,1.017-1.37,1.419c-0.612,0.602-1.354,1.196-2.227,1.783
						c-0.873,0.587-1.776,1.029-2.708,1.328c-0.933,0.3-1.854,0.397-2.766,0.294C34.504,114.289,33.704,113.833,33.011,113.026z
						 M37.474,105.96c0.975-0.288,1.842-0.8,2.603-1.537c0.76-0.737,1.381-1.502,1.862-2.296c0.185-0.286,0.308-0.58,0.369-0.883
						c0.061-0.302,0.019-0.49-0.125-0.562c-0.676,0.284-1.301,0.65-1.876,1.1s-1.118,0.941-1.629,1.471
						c-0.882,0.869-1.632,1.812-2.251,2.826C36.754,106.103,37.104,106.063,37.474,105.96z"/>
					<path fill="#FFFFFF" d="M55.15,104.026c0.138-0.222,0.283-0.438,0.437-0.648c0.153-0.209,0.346-0.372,0.578-0.486
						c0.413-0.195,0.799-0.159,1.157,0.111c0.358,0.269,0.523,0.642,0.496,1.117c-0.024,0.268-0.104,0.515-0.243,0.737
						c-0.138,0.221-0.277,0.429-0.419,0.623c-1.194,1.702-2.279,3.051-3.255,4.048c-0.976,0.998-1.857,1.748-2.644,2.251
						c-0.787,0.503-1.487,0.805-2.103,0.904c-0.616,0.102-1.145,0.117-1.588,0.049c-0.612-0.107-1.122-0.336-1.529-0.688
						c-0.408-0.353-0.725-0.804-0.952-1.354s-0.357-1.162-0.394-1.836c-0.037-0.676,0.011-1.39,0.143-2.143
						c0.237-1.267,0.595-2.592,1.078-3.977c0.481-1.383,1.027-2.744,1.637-4.083c0.609-1.34,1.253-2.617,1.932-3.83
						c0.678-1.214,1.33-2.301,1.956-3.258c0.673-1.022,1.389-2.026,2.147-3.014c0.758-0.987,1.613-1.845,2.566-2.574
						c0.326-0.243,0.726-0.496,1.2-0.758c0.474-0.26,0.956-0.448,1.447-0.563c0.491-0.116,0.967-0.118,1.429-0.009
						c0.462,0.11,0.871,0.41,1.227,0.9c0.382,0.488,0.574,1.034,0.576,1.64c0.001,0.605-0.094,1.206-0.284,1.803
						s-0.432,1.172-0.722,1.721c-0.292,0.551-0.55,1.031-0.775,1.439c-0.664,1.11-1.367,2.157-2.112,3.143
						c-0.746,0.986-1.527,1.955-2.344,2.904c-0.532,0.592-1.097,1.188-1.695,1.788c-0.599,0.601-1.2,1.186-1.801,1.756
						c-0.603,0.571-1.208,1.106-1.819,1.603c-0.611,0.499-1.195,0.927-1.753,1.286c-0.182,0.317-0.337,0.623-0.467,0.917
						c-0.129,0.296-0.247,0.582-0.351,0.859c-0.371,1.047-0.478,1.9-0.32,2.561c0.157,0.662,0.419,1.045,0.785,1.151
						c0.282,0.085,0.66-0.002,1.135-0.263c0.474-0.261,1.008-0.654,1.602-1.18c0.593-0.525,1.234-1.182,1.919-1.969
						C53.711,105.917,54.419,105.026,55.15,104.026z M52.619,97.983c0.996-1.059,1.947-2.149,2.854-3.272
						c0.907-1.122,1.75-2.318,2.532-3.588c0.319-0.539,0.62-1.068,0.901-1.587c0.281-0.519,0.496-1.083,0.644-1.69
						c0.055-0.242,0.02-0.363-0.103-0.364c-0.123-0.001-0.28,0.054-0.472,0.164c-0.191,0.112-0.4,0.254-0.626,0.427
						c-0.225,0.173-0.398,0.327-0.52,0.458c-0.952,0.966-1.822,1.987-2.611,3.067c-0.789,1.08-1.51,2.218-2.163,3.415
						c-0.451,0.82-0.889,1.638-1.313,2.454c-0.424,0.816-0.818,1.658-1.182,2.527c0.343-0.334,0.687-0.662,1.032-0.982
						C51.937,98.689,52.279,98.347,52.619,97.983z"/>
					<path fill="#FFFFFF" d="M65.07,111.084c-0.639,0.131-1.213,0.109-1.724-0.069c-0.511-0.178-0.929-0.498-1.254-0.963
						c-0.194-0.272-0.346-0.64-0.453-1.101c-0.337,0.394-0.676,0.758-1.019,1.092c-0.344,0.334-0.702,0.655-1.075,0.964
						c-0.602,0.453-1.241,0.762-1.917,0.929c-0.676,0.165-1.343,0.109-2.001-0.171c-0.602-0.254-1.022-0.664-1.265-1.229
						c-0.241-0.562-0.373-1.175-0.395-1.835c-0.021-0.663,0.054-1.32,0.224-1.975c0.17-0.654,0.354-1.199,0.549-1.635
						c0.697-1.526,1.531-2.98,2.504-4.361c0.972-1.381,2.096-2.573,3.371-3.574c0.578-0.421,1.182-0.793,1.813-1.116
						c0.63-0.323,1.298-0.496,2.004-0.518c1.085-0.036,1.929,0.311,2.53,1.039c0.135-0.251,0.316-0.501,0.548-0.749
						c0.23-0.248,0.451-0.398,0.663-0.453c0.403-0.046,0.787,0.088,1.149,0.401c0.332,0.288,0.536,0.64,0.611,1.059
						c0.075,0.42-0.003,0.806-0.235,1.157c-0.327,0.479-0.667,0.955-1.022,1.423c-0.354,0.469-0.692,0.973-1.012,1.511
						c-0.757,1.238-1.379,2.292-1.865,3.159c-0.487,0.868-0.883,1.748-1.189,2.638c-0.108,0.249-0.181,0.509-0.218,0.778
						c-0.037,0.27-0.039,0.493-0.005,0.666c0.033,0.172,0.121,0.289,0.264,0.346c0.143,0.058,0.352-0.019,0.628-0.227
						c0.326-0.243,0.621-0.52,0.886-0.832c0.264-0.31,0.525-0.643,0.785-0.998l2.932-4.012c0.142-0.193,0.286-0.409,0.437-0.647
						c0.15-0.238,0.325-0.428,0.527-0.569c0.41-0.224,0.813-0.212,1.21,0.038c0.396,0.25,0.596,0.626,0.599,1.128
						c-0.021,0.297-0.102,0.542-0.243,0.736c-0.142,0.193-0.281,0.401-0.419,0.623c-0.822,1.158-1.444,2.026-1.868,2.605
						c-0.424,0.581-0.801,1.097-1.13,1.547c-0.498,0.647-1.057,1.294-1.678,1.941C66.696,110.478,65.947,110.894,65.07,111.084z
						 M61.444,100.472c-0.871,0.956-1.726,2.057-2.563,3.305c-0.838,1.247-1.449,2.454-1.833,3.619
						c-0.044,0.094-0.101,0.256-0.169,0.484c-0.069,0.229-0.118,0.456-0.146,0.682c-0.03,0.224-0.02,0.423,0.027,0.594
						c0.047,0.172,0.178,0.245,0.393,0.22c0.612-0.129,1.166-0.466,1.662-1.009c0.496-0.543,0.924-1.028,1.284-1.453
						c1.026-1.269,1.953-2.577,2.779-3.927s1.653-2.692,2.481-4.027c-0.013-0.589-0.201-0.863-0.564-0.822s-0.773,0.208-1.23,0.496
						c-0.457,0.29-0.895,0.634-1.312,1.036C61.833,100.072,61.565,100.339,61.444,100.472z"/>
					<path fill="#FFFFFF" d="M70.437,101.568c0.471-0.645,0.915-1.293,1.331-1.946c0.415-0.653,0.814-1.325,1.199-2.019
						c0.195-0.435,0.358-0.794,0.49-1.074c0.131-0.282,0.234-0.507,0.311-0.679c0.076-0.17,0.136-0.295,0.182-0.375
						c0.045-0.079,0.092-0.15,0.139-0.216c0.145-0.164,0.346-0.252,0.603-0.268c0.257-0.014,0.496-0.005,0.718,0.028
						c0.453,0.155,0.813,0.438,1.078,0.851c0.161,0.218,0.226,0.424,0.193,0.619c-0.032,0.197-0.075,0.416-0.129,0.658
						c-0.149,0.608-0.269,1.219-0.362,1.835c-0.093,0.616-0.172,1.238-0.236,1.864c0.834-1.04,1.557-1.926,2.167-2.661
						c0.61-0.734,1.144-1.372,1.6-1.91c0.455-0.539,0.857-1.014,1.206-1.422c0.348-0.409,0.692-0.794,1.032-1.159
						c0.145-0.164,0.289-0.334,0.432-0.514c0.143-0.179,0.302-0.336,0.477-0.475c0.248-0.206,0.573-0.228,0.973-0.068
						c0.316,0.141,0.587,0.369,0.813,0.683s0.362,0.661,0.405,1.039c-0.003,0.207-0.059,0.375-0.167,0.506
						c-0.107,0.131-0.222,0.262-0.343,0.395c-0.048,0.063-0.101,0.137-0.159,0.216c-0.059,0.082-0.186,0.229-0.378,0.443
						c-0.194,0.214-0.464,0.525-0.813,0.934c-0.348,0.41-0.822,0.965-1.423,1.669c-0.601,0.704-1.357,1.588-2.271,2.651
						c-0.914,1.064-2.02,2.35-3.318,3.856c0.21,0.891,0.472,1.503,0.783,1.838c0.31,0.333,0.798,0.195,1.465-0.412
						c0.719-0.614,1.417-1.358,2.094-2.233c0.676-0.874,1.524-1.975,2.543-3.303c0.118-0.161,0.242-0.329,0.371-0.507
						c0.13-0.176,0.267-0.347,0.412-0.512c0.219-0.231,0.465-0.341,0.739-0.328c0.273,0.014,0.515,0.096,0.723,0.25
						c0.208,0.154,0.362,0.365,0.461,0.634c0.098,0.27,0.097,0.558-0.003,0.864c-0.038,0.152-0.104,0.285-0.199,0.398
						c-0.096,0.115-0.189,0.251-0.28,0.409c-0.639,0.842-1.18,1.537-1.62,2.09c-0.441,0.553-0.803,1.015-1.087,1.387
						c-0.284,0.371-0.53,0.673-0.734,0.902c-0.206,0.231-0.392,0.445-0.56,0.641c-0.485,0.527-1.023,1.054-1.617,1.579
						c-0.593,0.526-1.253,0.831-1.979,0.914c-0.88,0.159-1.611,0.022-2.192-0.414s-1.062-1-1.44-1.696
						c-0.431,0.522-0.874,1.061-1.327,1.614c-0.454,0.554-1.063,1.303-1.827,2.246c-0.121,0.133-0.223,0.247-0.308,0.345
						c-0.083,0.099-0.207,0.156-0.368,0.174c-0.322,0.037-0.625-0.053-0.909-0.271c-0.284-0.217-0.471-0.484-0.562-0.799
						c-0.121-0.341-0.074-0.648,0.139-0.924c0.213-0.276,0.415-0.542,0.603-0.8c0.569-0.744,1.043-1.366,1.421-1.867
						c0.378-0.5,0.704-0.93,0.977-1.286c0.272-0.355,0.503-0.655,0.694-0.898c0.19-0.244,0.367-0.477,0.532-0.704
						c-0.08-0.699-0.12-1.403-0.119-2.112l-0.424,0.58c-0.212,0.29-0.45,0.531-0.714,0.724s-0.584,0.193-0.96-0.001
						c-0.346-0.167-0.576-0.451-0.69-0.851C70.105,102.3,70.178,101.922,70.437,101.568z"/>
				</g>
				<g>
					<g>
						<path fill="#FFFFFF" d="M7.042,97.842c-0.114-0.518-0.004-0.93,0.329-1.234c0.333-0.303,0.647-0.59,0.943-0.861
							c0.77-0.648,1.557-1.271,2.361-1.865c1.81-1.328,3.66-2.417,5.551-3.271c1.891-0.851,3.796-1.459,5.716-1.827
							c0.903-0.193,1.864-0.317,2.879-0.375c1.015-0.057,2.008-0.008,2.979,0.147c0.971,0.154,1.878,0.463,2.721,0.928
							c0.843,0.465,1.561,1.136,2.151,2.012c0.853,1.261,1.248,2.692,1.186,4.292c-0.068,1.071-0.284,2.108-0.645,3.107
							c-0.363,1.002-0.827,1.941-1.394,2.818c-0.567,0.876-1.209,1.695-1.925,2.457c-0.717,0.761-1.448,1.451-2.195,2.066
							c-0.797,0.652-1.577,1.215-2.34,1.686c1.451,1.25,2.764,2.672,3.941,4.264c1.176,1.594,2.228,3.222,3.154,4.887
							c0.174,0.335,0.357,0.684,0.548,1.045c0.191,0.362,0.401,0.772,0.632,1.234c0.229,0.461,0.475,0.993,0.734,1.599
							s0.547,1.332,0.863,2.182c0.114,0.282,0.221,0.565,0.322,0.849c0.1,0.283,0.183,0.585,0.247,0.902
							c0.077,0.434-0.024,0.807-0.301,1.12c-0.277,0.312-0.613,0.535-1.006,0.668c-0.394,0.134-0.799,0.157-1.218,0.072
							c-0.418-0.085-0.705-0.325-0.859-0.72c-0.111-0.254-0.209-0.524-0.296-0.808c-0.088-0.286-0.188-0.57-0.302-0.853
							c-0.547-1.442-1.126-2.874-1.738-4.295c-0.612-1.42-1.295-2.798-2.046-4.128c-0.715-1.247-1.513-2.447-2.394-3.601
							c-0.881-1.153-1.851-2.187-2.909-3.099c-1.281,0.472-2.566,0.847-3.855,1.128c-1.29,0.281-2.583,0.333-3.884,0.157
							c-0.586,1.071-1.157,2.147-1.714,3.229c-0.558,1.083-1.072,2.183-1.543,3.299l-0.606,1.486
							c-0.084,0.218-0.164,0.418-0.237,0.603c-0.075,0.187-0.214,0.335-0.419,0.447c-0.36,0.189-0.73,0.224-1.111,0.105
							c-0.382-0.119-0.7-0.341-0.955-0.667c-0.235-0.385-0.281-0.792-0.14-1.223c0.081-0.245,0.163-0.483,0.245-0.714
							c0.082-0.232,0.177-0.47,0.285-0.72c0.428-1.259,0.893-2.433,1.395-3.524c0.501-1.091,1.02-2.155,1.555-3.19
							c-0.205-0.124-0.391-0.264-0.559-0.422c-0.168-0.159-0.319-0.347-0.453-0.568c-0.427-0.631-0.571-1.292-0.432-1.989
							c0.138-0.693,0.48-1.28,1.025-1.756c0.494-0.439,1.059-0.741,1.694-0.902c0.635-0.162,1.264-0.261,1.886-0.305
							c0.953-1.673,1.932-3.29,2.938-4.853c1.006-1.562,2.063-3.085,3.174-4.571c0.094-0.127,0.235-0.322,0.424-0.58
							c0.188-0.257,0.39-0.523,0.603-0.8c0.213-0.274,0.423-0.528,0.628-0.757c0.205-0.23,0.358-0.38,0.459-0.452
							c-1.954,0.549-3.758,1.265-5.413,2.148c-1.656,0.884-3.239,1.87-4.75,2.957c-0.4,0.313-0.788,0.615-1.163,0.909
							c-0.375,0.294-0.734,0.608-1.077,0.942c-0.199,0.171-0.377,0.339-0.535,0.504c-0.159,0.166-0.336,0.333-0.535,0.503
							c-0.306,0.184-0.659,0.194-1.059,0.033s-0.735-0.41-1.005-0.749C7.328,98.613,7.143,98.244,7.042,97.842z M13.412,106.368
							c-0.154,0.078-0.315,0.162-0.481,0.255c-0.167,0.092-0.292,0.189-0.375,0.287c-0.085,0.098-0.12,0.207-0.106,0.322
							c0.014,0.117,0.121,0.223,0.322,0.318c0.114-0.191,0.222-0.388,0.321-0.592C13.191,106.755,13.297,106.56,13.412,106.368z
							 M20.152,107.413c-0.491-0.239-0.956-0.437-1.396-0.593c-0.441-0.156-0.884-0.282-1.331-0.38l-0.928,1.524
							C17.75,107.968,18.968,107.784,20.152,107.413z M25.951,93.109c0.043,0.143,0.048,0.297,0.013,0.464
							c-0.036,0.166-0.163,0.424-0.381,0.773c-0.219,0.351-0.563,0.855-1.032,1.513c-0.47,0.659-1.105,1.538-1.905,2.632
							c-0.684,0.934-1.333,1.873-1.946,2.814c-0.614,0.941-1.221,1.888-1.82,2.842c0.994,0.359,1.817,0.7,2.467,1.024
							c0.65,0.325,1.255,0.676,1.816,1.056c1.516-0.794,2.925-1.812,4.227-3.054c0.733-0.732,1.412-1.527,2.036-2.38
							s1.138-1.776,1.542-2.768c0.192-0.464,0.332-0.968,0.42-1.509c0.087-0.541,0.109-1.068,0.064-1.579s-0.169-0.999-0.372-1.463
							c-0.203-0.463-0.528-0.862-0.974-1.195c-0.807-0.616-1.73-0.953-2.772-1.012c-1.042-0.058-2.03-0.003-2.964,0.163
							C25.239,91.655,25.767,92.215,25.951,93.109z"/>
						<path fill="#FFFFFF" d="M33.011,113.026c-0.597-0.698-0.935-1.509-1.014-2.43c-0.078-0.921-0.004-1.823,0.222-2.705
							c0.233-0.824,0.539-1.604,0.917-2.342c0.379-0.737,0.81-1.436,1.292-2.097c0.482-0.66,1.005-1.272,1.567-1.839
							c0.562-0.566,1.128-1.088,1.7-1.568c0.424-0.343,0.943-0.684,1.559-1.02c0.615-0.336,1.254-0.586,1.916-0.751
							c0.662-0.164,1.292-0.191,1.891-0.083c0.598,0.109,1.092,0.436,1.481,0.982c0.355,0.489,0.486,1.037,0.392,1.638
							c-0.095,0.602-0.248,1.166-0.46,1.691c-0.475,1.088-1.124,2.084-1.946,2.991c-0.822,0.906-1.72,1.635-2.691,2.19
							c-0.743,0.411-1.513,0.705-2.31,0.884c-0.796,0.181-1.59,0.153-2.379-0.081c-0.125,0.339-0.217,0.666-0.275,0.983
							c-0.06,0.316-0.06,0.619,0.001,0.907c0.06,0.289,0.185,0.547,0.375,0.777c0.19,0.229,0.481,0.395,0.875,0.497
							c0.702,0.185,1.477,0.052,2.324-0.398c0.848-0.451,1.673-1.033,2.477-1.746c0.803-0.711,1.536-1.452,2.197-2.223
							c0.661-0.768,1.17-1.379,1.526-1.835c0.165-0.225,0.334-0.473,0.507-0.745c0.174-0.27,0.375-0.478,0.604-0.622
							c0.232-0.115,0.458-0.156,0.681-0.122c0.222,0.034,0.423,0.128,0.604,0.285c0.182,0.156,0.318,0.34,0.41,0.552
							c0.092,0.21,0.11,0.423,0.053,0.635c-0.051,0.271-0.177,0.545-0.376,0.817c-0.2,0.275-0.383,0.525-0.547,0.75
							c-0.902,1.166-1.601,2.021-2.097,2.564c-0.497,0.544-0.953,1.017-1.37,1.419c-0.612,0.602-1.354,1.196-2.227,1.783
							c-0.873,0.587-1.776,1.029-2.708,1.328c-0.933,0.3-1.854,0.397-2.766,0.294C34.504,114.289,33.704,113.833,33.011,113.026z
							 M37.474,105.96c0.975-0.288,1.842-0.8,2.603-1.537c0.76-0.737,1.381-1.502,1.862-2.296c0.185-0.286,0.308-0.58,0.369-0.883
							c0.061-0.302,0.019-0.49-0.125-0.562c-0.676,0.284-1.301,0.65-1.876,1.1s-1.118,0.941-1.629,1.471
							c-0.882,0.869-1.632,1.812-2.251,2.826C36.754,106.103,37.104,106.063,37.474,105.96z"/>
						<path fill="#FFFFFF" d="M55.15,104.026c0.138-0.222,0.283-0.438,0.437-0.648c0.153-0.209,0.346-0.372,0.578-0.486
							c0.413-0.195,0.799-0.159,1.157,0.111c0.358,0.269,0.523,0.642,0.496,1.117c-0.024,0.268-0.104,0.515-0.243,0.737
							c-0.138,0.221-0.277,0.429-0.419,0.623c-1.194,1.702-2.279,3.051-3.255,4.048c-0.976,0.998-1.857,1.748-2.644,2.251
							c-0.787,0.503-1.487,0.805-2.103,0.904c-0.616,0.102-1.145,0.117-1.588,0.049c-0.612-0.107-1.122-0.336-1.529-0.688
							c-0.408-0.353-0.725-0.804-0.952-1.354s-0.357-1.162-0.394-1.836c-0.037-0.676,0.011-1.39,0.143-2.143
							c0.237-1.267,0.595-2.592,1.078-3.977c0.481-1.383,1.027-2.744,1.637-4.083c0.609-1.34,1.253-2.617,1.932-3.83
							c0.678-1.214,1.33-2.301,1.956-3.258c0.673-1.022,1.389-2.026,2.147-3.014c0.758-0.987,1.613-1.845,2.566-2.574
							c0.326-0.243,0.726-0.496,1.2-0.758c0.474-0.26,0.956-0.448,1.447-0.563c0.491-0.116,0.967-0.118,1.429-0.009
							c0.462,0.11,0.871,0.41,1.227,0.9c0.382,0.488,0.574,1.034,0.576,1.64c0.001,0.605-0.094,1.206-0.284,1.803
							s-0.432,1.172-0.722,1.721c-0.292,0.551-0.55,1.031-0.775,1.439c-0.664,1.11-1.367,2.157-2.112,3.143
							c-0.746,0.986-1.527,1.955-2.344,2.904c-0.532,0.592-1.097,1.188-1.695,1.788c-0.599,0.601-1.2,1.186-1.801,1.756
							c-0.603,0.571-1.208,1.106-1.819,1.603c-0.611,0.499-1.195,0.927-1.753,1.286c-0.182,0.317-0.337,0.623-0.467,0.917
							c-0.129,0.296-0.247,0.582-0.351,0.859c-0.371,1.047-0.478,1.9-0.32,2.561c0.157,0.662,0.419,1.045,0.785,1.151
							c0.282,0.085,0.66-0.002,1.135-0.263c0.474-0.261,1.008-0.654,1.602-1.18c0.593-0.525,1.234-1.182,1.919-1.969
							C53.711,105.917,54.419,105.026,55.15,104.026z M52.619,97.983c0.996-1.059,1.947-2.149,2.854-3.272
							c0.907-1.122,1.75-2.318,2.532-3.588c0.319-0.539,0.62-1.068,0.901-1.587c0.281-0.519,0.496-1.083,0.644-1.69
							c0.055-0.242,0.02-0.363-0.103-0.364c-0.123-0.001-0.28,0.054-0.472,0.164c-0.191,0.112-0.4,0.254-0.626,0.427
							c-0.225,0.173-0.398,0.327-0.52,0.458c-0.952,0.966-1.822,1.987-2.611,3.067c-0.789,1.08-1.51,2.218-2.163,3.415
							c-0.451,0.82-0.889,1.638-1.313,2.454c-0.424,0.816-0.818,1.658-1.182,2.527c0.343-0.334,0.687-0.662,1.032-0.982
							C51.937,98.689,52.279,98.347,52.619,97.983z"/>
						<path fill="#FFFFFF" d="M65.07,111.084c-0.639,0.131-1.213,0.109-1.724-0.069c-0.511-0.178-0.929-0.498-1.254-0.963
							c-0.194-0.272-0.346-0.64-0.453-1.101c-0.337,0.394-0.676,0.758-1.019,1.092c-0.344,0.334-0.702,0.655-1.075,0.964
							c-0.602,0.453-1.241,0.762-1.917,0.929c-0.676,0.165-1.343,0.109-2.001-0.171c-0.602-0.254-1.022-0.664-1.265-1.229
							c-0.241-0.562-0.373-1.175-0.395-1.835c-0.021-0.663,0.054-1.32,0.224-1.975c0.17-0.654,0.354-1.199,0.549-1.635
							c0.697-1.526,1.531-2.98,2.504-4.361c0.972-1.381,2.096-2.573,3.371-3.574c0.578-0.421,1.182-0.793,1.813-1.116
							c0.63-0.323,1.298-0.496,2.004-0.518c1.085-0.036,1.929,0.311,2.53,1.039c0.135-0.251,0.316-0.501,0.548-0.749
							c0.23-0.248,0.451-0.398,0.663-0.453c0.403-0.046,0.787,0.088,1.149,0.401c0.332,0.288,0.536,0.64,0.611,1.059
							c0.075,0.42-0.003,0.806-0.235,1.157c-0.327,0.479-0.667,0.955-1.022,1.423c-0.354,0.469-0.692,0.973-1.012,1.511
							c-0.757,1.238-1.379,2.292-1.865,3.159c-0.487,0.868-0.883,1.748-1.189,2.638c-0.108,0.249-0.181,0.509-0.218,0.778
							c-0.037,0.27-0.039,0.493-0.005,0.666c0.033,0.172,0.121,0.289,0.264,0.346c0.143,0.058,0.352-0.019,0.628-0.227
							c0.326-0.243,0.621-0.52,0.886-0.832c0.264-0.31,0.525-0.643,0.785-0.998l2.932-4.012c0.142-0.193,0.286-0.409,0.437-0.647
							c0.15-0.238,0.325-0.428,0.527-0.569c0.41-0.224,0.813-0.212,1.21,0.038c0.396,0.25,0.596,0.626,0.599,1.128
							c-0.021,0.297-0.102,0.542-0.243,0.736c-0.142,0.193-0.281,0.401-0.419,0.623c-0.822,1.158-1.444,2.026-1.868,2.605
							c-0.424,0.581-0.801,1.097-1.13,1.547c-0.498,0.647-1.057,1.294-1.678,1.941C66.696,110.478,65.947,110.894,65.07,111.084z
							 M61.444,100.472c-0.871,0.956-1.726,2.057-2.563,3.305c-0.838,1.247-1.449,2.454-1.833,3.619
							c-0.044,0.094-0.101,0.256-0.169,0.484c-0.069,0.229-0.118,0.456-0.146,0.682c-0.03,0.224-0.02,0.423,0.027,0.594
							c0.047,0.172,0.178,0.245,0.393,0.22c0.612-0.129,1.166-0.466,1.662-1.009c0.496-0.543,0.924-1.028,1.284-1.453
							c1.026-1.269,1.953-2.577,2.779-3.927s1.653-2.692,2.481-4.027c-0.013-0.589-0.201-0.863-0.564-0.822s-0.773,0.208-1.23,0.496
							c-0.457,0.29-0.895,0.634-1.312,1.036C61.833,100.072,61.565,100.339,61.444,100.472z"/>
						<path fill="#FFFFFF" d="M70.437,101.568c0.471-0.645,0.915-1.293,1.331-1.946c0.415-0.653,0.814-1.325,1.199-2.019
							c0.195-0.435,0.358-0.794,0.49-1.074c0.131-0.282,0.234-0.507,0.311-0.679c0.076-0.17,0.136-0.295,0.182-0.375
							c0.045-0.079,0.092-0.15,0.139-0.216c0.145-0.164,0.346-0.252,0.603-0.268c0.257-0.014,0.496-0.005,0.718,0.028
							c0.453,0.155,0.813,0.438,1.078,0.851c0.161,0.218,0.226,0.424,0.193,0.619c-0.032,0.197-0.075,0.416-0.129,0.658
							c-0.149,0.608-0.269,1.219-0.362,1.835c-0.093,0.616-0.172,1.238-0.236,1.864c0.834-1.04,1.557-1.926,2.167-2.661
							c0.61-0.734,1.144-1.372,1.6-1.91c0.455-0.539,0.857-1.014,1.206-1.422c0.348-0.409,0.692-0.794,1.032-1.159
							c0.145-0.164,0.289-0.334,0.432-0.514c0.143-0.179,0.302-0.336,0.477-0.475c0.248-0.206,0.573-0.228,0.973-0.068
							c0.316,0.141,0.587,0.369,0.813,0.683s0.362,0.661,0.405,1.039c-0.003,0.207-0.059,0.375-0.167,0.506
							c-0.107,0.131-0.222,0.262-0.343,0.395c-0.048,0.063-0.101,0.137-0.159,0.216c-0.059,0.082-0.186,0.229-0.378,0.443
							c-0.194,0.214-0.464,0.525-0.813,0.934c-0.348,0.41-0.822,0.965-1.423,1.669c-0.601,0.704-1.357,1.588-2.271,2.651
							c-0.914,1.064-2.02,2.35-3.318,3.856c0.21,0.891,0.472,1.503,0.783,1.838c0.31,0.333,0.798,0.195,1.465-0.412
							c0.719-0.614,1.417-1.358,2.094-2.233c0.676-0.874,1.524-1.975,2.543-3.303c0.118-0.161,0.242-0.329,0.371-0.507
							c0.13-0.176,0.267-0.347,0.412-0.512c0.219-0.231,0.465-0.341,0.739-0.328c0.273,0.014,0.515,0.096,0.723,0.25
							c0.208,0.154,0.362,0.365,0.461,0.634c0.098,0.27,0.097,0.558-0.003,0.864c-0.038,0.152-0.104,0.285-0.199,0.398
							c-0.096,0.115-0.189,0.251-0.28,0.409c-0.639,0.842-1.18,1.537-1.62,2.09c-0.441,0.553-0.803,1.015-1.087,1.387
							c-0.284,0.371-0.53,0.673-0.734,0.902c-0.206,0.231-0.392,0.445-0.56,0.641c-0.485,0.527-1.023,1.054-1.617,1.579
							c-0.593,0.526-1.253,0.831-1.979,0.914c-0.88,0.159-1.611,0.022-2.192-0.414s-1.062-1-1.44-1.696
							c-0.431,0.522-0.874,1.061-1.327,1.614c-0.454,0.554-1.063,1.303-1.827,2.246c-0.121,0.133-0.223,0.247-0.308,0.345
							c-0.083,0.099-0.207,0.156-0.368,0.174c-0.322,0.037-0.625-0.053-0.909-0.271c-0.284-0.217-0.471-0.484-0.562-0.799
							c-0.121-0.341-0.074-0.648,0.139-0.924c0.213-0.276,0.415-0.542,0.603-0.8c0.569-0.744,1.043-1.366,1.421-1.867
							c0.378-0.5,0.704-0.93,0.977-1.286c0.272-0.355,0.503-0.655,0.694-0.898c0.19-0.244,0.367-0.477,0.532-0.704
							c-0.08-0.699-0.12-1.403-0.119-2.112l-0.424,0.58c-0.212,0.29-0.45,0.531-0.714,0.724s-0.584,0.193-0.96-0.001
							c-0.346-0.167-0.576-0.451-0.69-0.851C70.105,102.3,70.178,101.922,70.437,101.568z"/>
					</g>
				</g>
			</g>
		</g>
		<g>
			<g>
				<g>
					<path fill="#FF8D11" d="M29.853,7.409l0.409,0.02c3.548,0.183,5.276,1.092,5.186,2.729c-0.039,0.845-0.656,1.358-1.852,1.54
						c-1.859-0.546-3.575-0.864-5.147-0.955l-0.409-0.02l-5.79-0.02l-0.117,8.754c2.456-0.338,6.16-0.565,11.112-0.683
						c0.806,0.364,1.189,0.845,1.15,1.442L34.356,20.9c-0.039,0.806-2.099,1.104-6.18,0.896c-0.014,0.131-2.021,0.215-6.024,0.254
						l0.078,24.272h0.136l10.938,0.468c1.131,0.065,1.774,0.832,1.931,2.301l-0.02,0.409c-0.053,1.001-5.271,1.397-15.655,1.189
						l-0.41-0.02c-0.779-0.039-1.338-0.709-1.676-2.009c0.351-1.429,0.552-2.69,0.604-3.782c0.261-11.84,0.436-22.244,0.526-31.212
						l0.176-3.412c0.039-0.845,0.487-1.638,1.346-2.379l0.409,0.02l0.272,0.273C23.094,7.468,26.11,7.215,29.853,7.409z"/>
					<path fill="#FF8D11" d="M51.005,7c3.912,0,6.869,2.456,8.87,7.369c0.455,0,0.937,8.176,1.443,24.526
						c0.48,5.004,0.936,7.506,1.364,7.506c1.001,0.416,1.501,1.053,1.501,1.91c-0.351,1.82-1.078,2.729-2.183,2.729h-0.683
						c-1.859,0-3.087-1.592-3.685-4.776c-2.665,1.91-5.485,2.866-8.462,2.866h-1.228c-5.187,0-8.689-2.912-10.509-8.734
						c-0.637-2.34-0.955-4.568-0.955-6.688c0-5.771,2.138-10.092,6.414-12.965c2.001-1,4.094-1.501,6.277-1.501h0.546
						c2.041,0,4.315,0.546,6.824,1.638v-0.683c0.039-4.938-1.353-8.11-4.173-9.514l-1.364-0.137h-0.409
						c-2.704,0-5.706,1.82-9.008,5.459h-0.136c-0.638,0-0.955-0.318-0.955-0.955c0-2.443,2.138-4.854,6.414-7.233
						C48.77,7.272,50.134,7,51.005,7z M40.614,34.752c0.156,2.477,0.937,4.939,2.34,7.39c1.403,2.449,3.935,3.574,7.594,3.372
						c3.658-0.201,5.793-2.141,6.404-5.819c-0.169-3.041-0.254-6.973-0.254-11.795v-0.253c0-1.313-0.691-2.347-2.076-3.101
						c-1.384-0.753-3.45-1.163-6.199-1.228c-2.749-0.065-4.776,1.205-6.083,3.811C41.034,29.735,40.458,32.276,40.614,34.752z"/>
					<path fill="#FF8D11" d="M79.021,7.234c0.728,0.351,1.092,0.806,1.092,1.364v0.409c0,1.001-0.773,1.501-2.319,1.501h-3.003
						l-1.364,0.137l-0.137-0.137l0.409,4.504l-0.137,8.871l0.41,5.595v5.05c0,6.693,0.136,11.242,0.409,13.646
						c0,1.911-0.683,2.866-2.047,2.866h-0.41c-1.455,0-2.184-1.774-2.184-5.322l-0.136-4.913l0.136-8.87l-0.136-9.689l0.546-9.963
						l-0.137-1.638c-6.005-0.182-9.007-0.409-9.007-0.683l-0.137-0.409c0-1.078,4.867-1.716,14.603-1.91L79.021,7.234z"/>
				</g>
			</g>
			<g>
				<path fill="#24B7F5" d="M25.712,91.756l-7.16,0.164l-2.678-36.454l7.364-0.169l-0.005,1.554l-3.475,0.212l0.532,7.132
					l3.023-0.291l0.255,3.987l-3.547,0.613l1.041,20.386l4.459-0.103L25.712,91.756z"/>
				<path fill="#24B7F5" d="M31.38,55.11l2.708,12.805l0.938-12.667l3.071,0.063l-0.136,35.144l-3.643-0.004l-3.216-18.828
					l-0.465,19L27.243,90.7l0.375-35.415L31.38,55.11z"/>
				<path fill="#24B7F5" d="M42.936,84.218c0,0-0.413,3.427,1.554,3.514c2.828,0.157,0.235-29.023-0.224-32.962l3.4,0.1
					c0,0,4.97,36.447-2.311,36.703c-5.93,0.269-5.136-6.184-5.411-7.464L42.936,84.218z"/>
				<path fill="#24B7F5" d="M59.908,90.706c-2.478,0.812-6.19,1.383-7.007-0.327c-0.817-1.713-2.354-33.001-1.368-34.666
					c0.985-1.664,6.188-1.474,7.551-0.973C61.271,55.489,62.389,89.983,59.908,90.706z"/>
				<path fill="#24B7F5" d="M68.598,68.012c2.373-0.055,2.461-14.078,2.461-14.078l3.187-0.249c0,0,1.468,8.661,0.927,29.705
					c-0.454,12.345-12.943,6.819-11.548-5.548l1.552-0.124c0.308,2.699,2.323,10.24,6.408,8.106
					c1.375-0.698,0.775-17.987,0.775-17.987c0.485,5.09-2.531,7.467-6.297,3.871c-2.76-2.556-3.217-17.142-3.217-17.142l2.501,0.164
					C65.346,54.73,66.552,68.059,68.598,68.012z"/>
			</g>
			<g>
				<g>
					<path fill="#FF5594" d="M7.042,97.842c-0.114-0.518-0.004-0.93,0.329-1.234c0.333-0.303,0.647-0.59,0.943-0.861
						c0.77-0.648,1.557-1.271,2.361-1.865c1.81-1.328,3.66-2.417,5.551-3.271c1.891-0.851,3.796-1.459,5.716-1.827
						c0.903-0.193,1.864-0.317,2.879-0.375c1.015-0.057,2.008-0.008,2.979,0.147c0.971,0.154,1.878,0.463,2.721,0.928
						c0.843,0.465,1.561,1.136,2.151,2.012c0.853,1.261,1.248,2.692,1.186,4.292c-0.068,1.071-0.284,2.108-0.645,3.107
						c-0.363,1.002-0.827,1.941-1.394,2.818c-0.567,0.876-1.209,1.695-1.925,2.457c-0.717,0.761-1.448,1.451-2.195,2.066
						c-0.797,0.652-1.577,1.215-2.34,1.686c1.451,1.25,2.764,2.672,3.941,4.264c1.176,1.594,2.228,3.222,3.154,4.887
						c0.174,0.335,0.357,0.684,0.548,1.045c0.191,0.362,0.401,0.772,0.632,1.234c0.229,0.461,0.475,0.993,0.734,1.599
						s0.547,1.332,0.863,2.182c0.114,0.282,0.221,0.565,0.322,0.849c0.1,0.283,0.183,0.585,0.247,0.902
						c0.077,0.434-0.024,0.807-0.301,1.12c-0.277,0.312-0.613,0.535-1.006,0.668c-0.394,0.134-0.799,0.157-1.218,0.072
						c-0.418-0.085-0.705-0.325-0.859-0.72c-0.111-0.254-0.209-0.524-0.296-0.808c-0.088-0.286-0.188-0.57-0.302-0.853
						c-0.547-1.442-1.126-2.874-1.738-4.295c-0.612-1.42-1.295-2.798-2.046-4.128c-0.715-1.247-1.513-2.447-2.394-3.601
						c-0.881-1.153-1.851-2.187-2.909-3.099c-1.281,0.472-2.566,0.847-3.855,1.128c-1.29,0.281-2.583,0.333-3.884,0.157
						c-0.586,1.071-1.157,2.147-1.714,3.229c-0.558,1.083-1.072,2.183-1.543,3.299l-0.606,1.486
						c-0.084,0.218-0.164,0.418-0.237,0.603c-0.075,0.187-0.214,0.335-0.419,0.447c-0.36,0.189-0.73,0.224-1.111,0.105
						c-0.382-0.119-0.7-0.341-0.955-0.667c-0.235-0.385-0.281-0.792-0.14-1.223c0.081-0.245,0.163-0.483,0.245-0.714
						c0.082-0.232,0.177-0.47,0.285-0.72c0.428-1.259,0.893-2.433,1.395-3.524c0.501-1.091,1.02-2.155,1.555-3.19
						c-0.205-0.124-0.391-0.264-0.559-0.422c-0.168-0.159-0.319-0.347-0.453-0.568c-0.427-0.631-0.571-1.292-0.432-1.989
						c0.138-0.693,0.48-1.28,1.025-1.756c0.494-0.439,1.059-0.741,1.694-0.902c0.635-0.162,1.264-0.261,1.886-0.305
						c0.953-1.673,1.932-3.29,2.938-4.853c1.006-1.562,2.063-3.085,3.174-4.571c0.094-0.127,0.235-0.322,0.424-0.58
						c0.188-0.257,0.39-0.523,0.603-0.8c0.213-0.274,0.423-0.528,0.628-0.757c0.205-0.23,0.358-0.38,0.459-0.452
						c-1.954,0.549-3.758,1.265-5.413,2.148c-1.656,0.884-3.239,1.87-4.75,2.957c-0.4,0.313-0.788,0.615-1.163,0.909
						c-0.375,0.294-0.734,0.608-1.077,0.942c-0.199,0.171-0.377,0.339-0.535,0.504c-0.159,0.166-0.336,0.333-0.535,0.503
						c-0.306,0.184-0.659,0.194-1.059,0.033s-0.735-0.41-1.005-0.749C7.328,98.613,7.143,98.244,7.042,97.842z M13.412,106.368
						c-0.154,0.078-0.315,0.162-0.481,0.255c-0.167,0.092-0.292,0.189-0.375,0.287c-0.085,0.098-0.12,0.207-0.106,0.322
						c0.014,0.117,0.121,0.223,0.322,0.318c0.114-0.191,0.222-0.388,0.321-0.592C13.191,106.755,13.297,106.56,13.412,106.368z
						 M20.152,107.413c-0.491-0.239-0.956-0.437-1.396-0.593c-0.441-0.156-0.884-0.282-1.331-0.38l-0.928,1.524
						C17.75,107.968,18.968,107.784,20.152,107.413z M25.951,93.109c0.043,0.143,0.048,0.297,0.013,0.464
						c-0.036,0.166-0.163,0.424-0.381,0.773c-0.219,0.351-0.563,0.855-1.032,1.513c-0.47,0.659-1.105,1.538-1.905,2.632
						c-0.684,0.934-1.333,1.873-1.946,2.814c-0.614,0.941-1.221,1.888-1.82,2.842c0.994,0.359,1.817,0.7,2.467,1.024
						c0.65,0.325,1.255,0.676,1.816,1.056c1.516-0.794,2.925-1.812,4.227-3.054c0.733-0.732,1.412-1.527,2.036-2.38
						s1.138-1.776,1.542-2.768c0.192-0.464,0.332-0.968,0.42-1.509c0.087-0.541,0.109-1.068,0.064-1.579s-0.169-0.999-0.372-1.463
						c-0.203-0.463-0.528-0.862-0.974-1.195c-0.807-0.616-1.73-0.953-2.772-1.012c-1.042-0.058-2.03-0.003-2.964,0.163
						C25.239,91.655,25.767,92.215,25.951,93.109z"/>
					<path fill="#FF5594" d="M33.011,113.026c-0.597-0.698-0.935-1.509-1.014-2.43c-0.078-0.921-0.004-1.823,0.222-2.705
						c0.233-0.824,0.539-1.604,0.917-2.342c0.379-0.737,0.81-1.436,1.292-2.097c0.482-0.66,1.005-1.272,1.567-1.839
						c0.562-0.566,1.128-1.088,1.7-1.568c0.424-0.343,0.943-0.684,1.559-1.02c0.615-0.336,1.254-0.586,1.916-0.751
						c0.662-0.164,1.292-0.191,1.891-0.083c0.598,0.109,1.092,0.436,1.481,0.982c0.355,0.489,0.486,1.037,0.392,1.638
						c-0.095,0.602-0.248,1.166-0.46,1.691c-0.475,1.088-1.124,2.084-1.946,2.991c-0.822,0.906-1.72,1.635-2.691,2.19
						c-0.743,0.411-1.513,0.705-2.31,0.884c-0.796,0.181-1.59,0.153-2.379-0.081c-0.125,0.339-0.217,0.666-0.275,0.983
						c-0.06,0.316-0.06,0.619,0.001,0.907c0.06,0.289,0.185,0.547,0.375,0.777c0.19,0.229,0.481,0.395,0.875,0.497
						c0.702,0.185,1.477,0.052,2.324-0.398c0.848-0.451,1.673-1.033,2.477-1.746c0.803-0.711,1.536-1.452,2.197-2.223
						c0.661-0.768,1.17-1.379,1.526-1.835c0.165-0.225,0.334-0.473,0.507-0.745c0.174-0.27,0.375-0.478,0.604-0.622
						c0.232-0.115,0.458-0.156,0.681-0.122c0.222,0.034,0.423,0.128,0.604,0.285c0.182,0.156,0.318,0.34,0.41,0.552
						c0.092,0.21,0.11,0.423,0.053,0.635c-0.051,0.271-0.177,0.545-0.376,0.817c-0.2,0.275-0.383,0.525-0.547,0.75
						c-0.902,1.166-1.601,2.021-2.097,2.564c-0.497,0.544-0.953,1.017-1.37,1.419c-0.612,0.602-1.354,1.196-2.227,1.783
						c-0.873,0.587-1.776,1.029-2.708,1.328c-0.933,0.3-1.854,0.397-2.766,0.294C34.504,114.289,33.704,113.833,33.011,113.026z
						 M37.474,105.96c0.975-0.288,1.842-0.8,2.603-1.537c0.76-0.737,1.381-1.502,1.862-2.296c0.185-0.286,0.308-0.58,0.369-0.883
						c0.061-0.302,0.019-0.49-0.125-0.562c-0.676,0.284-1.301,0.65-1.876,1.1s-1.118,0.941-1.629,1.471
						c-0.882,0.869-1.632,1.812-2.251,2.826C36.754,106.103,37.104,106.063,37.474,105.96z"/>
					<path fill="#FF5594" d="M55.15,104.026c0.138-0.222,0.283-0.438,0.437-0.648c0.153-0.209,0.346-0.372,0.578-0.486
						c0.413-0.195,0.799-0.159,1.157,0.111c0.358,0.269,0.523,0.642,0.496,1.117c-0.024,0.268-0.104,0.515-0.243,0.737
						c-0.138,0.221-0.277,0.429-0.419,0.623c-1.194,1.702-2.279,3.051-3.255,4.048c-0.976,0.998-1.857,1.748-2.644,2.251
						c-0.787,0.503-1.487,0.805-2.103,0.904c-0.616,0.102-1.145,0.117-1.588,0.049c-0.612-0.107-1.122-0.336-1.529-0.688
						c-0.408-0.353-0.725-0.804-0.952-1.354s-0.357-1.162-0.394-1.836c-0.037-0.676,0.011-1.39,0.143-2.143
						c0.237-1.267,0.595-2.592,1.078-3.977c0.481-1.383,1.027-2.744,1.637-4.083c0.609-1.34,1.253-2.617,1.932-3.83
						c0.678-1.214,1.33-2.301,1.956-3.258c0.673-1.022,1.389-2.026,2.147-3.014c0.758-0.987,1.613-1.845,2.566-2.574
						c0.326-0.243,0.726-0.496,1.2-0.758c0.474-0.26,0.956-0.448,1.447-0.563c0.491-0.116,0.967-0.118,1.429-0.009
						c0.462,0.11,0.871,0.41,1.227,0.9c0.382,0.488,0.574,1.034,0.576,1.64c0.001,0.605-0.094,1.206-0.284,1.803
						s-0.432,1.172-0.722,1.721c-0.292,0.551-0.55,1.031-0.775,1.439c-0.664,1.11-1.367,2.157-2.112,3.143
						c-0.746,0.986-1.527,1.955-2.344,2.904c-0.532,0.592-1.097,1.188-1.695,1.788c-0.599,0.601-1.2,1.186-1.801,1.756
						c-0.603,0.571-1.208,1.106-1.819,1.603c-0.611,0.499-1.195,0.927-1.753,1.286c-0.182,0.317-0.337,0.623-0.467,0.917
						c-0.129,0.296-0.247,0.582-0.351,0.859c-0.371,1.047-0.478,1.9-0.32,2.561c0.157,0.662,0.419,1.045,0.785,1.151
						c0.282,0.085,0.66-0.002,1.135-0.263c0.474-0.261,1.008-0.654,1.602-1.18c0.593-0.525,1.234-1.182,1.919-1.969
						C53.711,105.917,54.419,105.026,55.15,104.026z M52.619,97.983c0.996-1.059,1.947-2.149,2.854-3.272
						c0.907-1.122,1.75-2.318,2.532-3.588c0.319-0.539,0.62-1.068,0.901-1.587c0.281-0.519,0.496-1.083,0.644-1.69
						c0.055-0.242,0.02-0.363-0.103-0.364c-0.123-0.001-0.28,0.054-0.472,0.164c-0.191,0.112-0.4,0.254-0.626,0.427
						c-0.225,0.173-0.398,0.327-0.52,0.458c-0.952,0.966-1.822,1.987-2.611,3.067c-0.789,1.08-1.51,2.218-2.163,3.415
						c-0.451,0.82-0.889,1.638-1.313,2.454c-0.424,0.816-0.818,1.658-1.182,2.527c0.343-0.334,0.687-0.662,1.032-0.982
						C51.937,98.689,52.279,98.347,52.619,97.983z"/>
					<path fill="#FF5594" d="M65.07,111.084c-0.639,0.131-1.213,0.109-1.724-0.069c-0.511-0.178-0.929-0.498-1.254-0.963
						c-0.194-0.272-0.346-0.64-0.453-1.101c-0.337,0.394-0.676,0.758-1.019,1.092c-0.344,0.334-0.702,0.655-1.075,0.964
						c-0.602,0.453-1.241,0.762-1.917,0.929c-0.676,0.165-1.343,0.109-2.001-0.171c-0.602-0.254-1.022-0.664-1.265-1.229
						c-0.241-0.562-0.373-1.175-0.395-1.835c-0.021-0.663,0.054-1.32,0.224-1.975c0.17-0.654,0.354-1.199,0.549-1.635
						c0.697-1.526,1.531-2.98,2.504-4.361c0.972-1.381,2.096-2.573,3.371-3.574c0.578-0.421,1.182-0.793,1.813-1.116
						c0.63-0.323,1.298-0.496,2.004-0.518c1.085-0.036,1.929,0.311,2.53,1.039c0.135-0.251,0.316-0.501,0.548-0.749
						c0.23-0.248,0.451-0.398,0.663-0.453c0.403-0.046,0.787,0.088,1.149,0.401c0.332,0.288,0.536,0.64,0.611,1.059
						c0.075,0.42-0.003,0.806-0.235,1.157c-0.327,0.479-0.667,0.955-1.022,1.423c-0.354,0.469-0.692,0.973-1.012,1.511
						c-0.757,1.238-1.379,2.292-1.865,3.159c-0.487,0.868-0.883,1.748-1.189,2.638c-0.108,0.249-0.181,0.509-0.218,0.778
						c-0.037,0.27-0.039,0.493-0.005,0.666c0.033,0.172,0.121,0.289,0.264,0.346c0.143,0.058,0.352-0.019,0.628-0.227
						c0.326-0.243,0.621-0.52,0.886-0.832c0.264-0.31,0.525-0.643,0.785-0.998l2.932-4.012c0.142-0.193,0.286-0.409,0.437-0.647
						c0.15-0.238,0.325-0.428,0.527-0.569c0.41-0.224,0.813-0.212,1.21,0.038c0.396,0.25,0.596,0.626,0.599,1.128
						c-0.021,0.297-0.102,0.542-0.243,0.736c-0.142,0.193-0.281,0.401-0.419,0.623c-0.822,1.158-1.444,2.026-1.868,2.605
						c-0.424,0.581-0.801,1.097-1.13,1.547c-0.498,0.647-1.057,1.294-1.678,1.941C66.696,110.478,65.947,110.894,65.07,111.084z
						 M61.444,100.472c-0.871,0.956-1.726,2.057-2.563,3.305c-0.838,1.247-1.449,2.454-1.833,3.619
						c-0.044,0.094-0.101,0.256-0.169,0.484c-0.069,0.229-0.118,0.456-0.146,0.682c-0.03,0.224-0.02,0.423,0.027,0.594
						c0.047,0.172,0.178,0.245,0.393,0.22c0.612-0.129,1.166-0.466,1.662-1.009c0.496-0.543,0.924-1.028,1.284-1.453
						c1.026-1.269,1.953-2.577,2.779-3.927s1.653-2.692,2.481-4.027c-0.013-0.589-0.201-0.863-0.564-0.822s-0.773,0.208-1.23,0.496
						c-0.457,0.29-0.895,0.634-1.312,1.036C61.833,100.072,61.565,100.339,61.444,100.472z"/>
					<path fill="#FF5594" d="M70.437,101.568c0.471-0.645,0.915-1.293,1.331-1.946c0.415-0.653,0.814-1.325,1.199-2.019
						c0.195-0.435,0.358-0.794,0.49-1.074c0.131-0.282,0.234-0.507,0.311-0.679c0.076-0.17,0.136-0.295,0.182-0.375
						c0.045-0.079,0.092-0.15,0.139-0.216c0.145-0.164,0.346-0.252,0.603-0.268c0.257-0.014,0.496-0.005,0.718,0.028
						c0.453,0.155,0.813,0.438,1.078,0.851c0.161,0.218,0.226,0.424,0.193,0.619c-0.032,0.197-0.075,0.416-0.129,0.658
						c-0.149,0.608-0.269,1.219-0.362,1.835c-0.093,0.616-0.172,1.238-0.236,1.864c0.834-1.04,1.557-1.926,2.167-2.661
						c0.61-0.734,1.144-1.372,1.6-1.91c0.455-0.539,0.857-1.014,1.206-1.422c0.348-0.409,0.692-0.794,1.032-1.159
						c0.145-0.164,0.289-0.334,0.432-0.514c0.143-0.179,0.302-0.336,0.477-0.475c0.248-0.206,0.573-0.228,0.973-0.068
						c0.316,0.141,0.587,0.369,0.813,0.683s0.362,0.661,0.405,1.039c-0.003,0.207-0.059,0.375-0.167,0.506
						c-0.107,0.131-0.222,0.262-0.343,0.395c-0.048,0.063-0.101,0.137-0.159,0.216c-0.059,0.082-0.186,0.229-0.378,0.443
						c-0.194,0.214-0.464,0.525-0.813,0.934c-0.348,0.41-0.822,0.965-1.423,1.669c-0.601,0.704-1.357,1.588-2.271,2.651
						c-0.914,1.064-2.02,2.35-3.318,3.856c0.21,0.891,0.472,1.503,0.783,1.838c0.31,0.333,0.798,0.195,1.465-0.412
						c0.719-0.614,1.417-1.358,2.094-2.233c0.676-0.874,1.524-1.975,2.543-3.303c0.118-0.161,0.242-0.329,0.371-0.507
						c0.13-0.176,0.267-0.347,0.412-0.512c0.219-0.231,0.465-0.341,0.739-0.328c0.273,0.014,0.515,0.096,0.723,0.25
						c0.208,0.154,0.362,0.365,0.461,0.634c0.098,0.27,0.097,0.558-0.003,0.864c-0.038,0.152-0.104,0.285-0.199,0.398
						c-0.096,0.115-0.189,0.251-0.28,0.409c-0.639,0.842-1.18,1.537-1.62,2.09c-0.441,0.553-0.803,1.015-1.087,1.387
						c-0.284,0.371-0.53,0.673-0.734,0.902c-0.206,0.231-0.392,0.445-0.56,0.641c-0.485,0.527-1.023,1.054-1.617,1.579
						c-0.593,0.526-1.253,0.831-1.979,0.914c-0.88,0.159-1.611,0.022-2.192-0.414s-1.062-1-1.44-1.696
						c-0.431,0.522-0.874,1.061-1.327,1.614c-0.454,0.554-1.063,1.303-1.827,2.246c-0.121,0.133-0.223,0.247-0.308,0.345
						c-0.083,0.099-0.207,0.156-0.368,0.174c-0.322,0.037-0.625-0.053-0.909-0.271c-0.284-0.217-0.471-0.484-0.562-0.799
						c-0.121-0.341-0.074-0.648,0.139-0.924c0.213-0.276,0.415-0.542,0.603-0.8c0.569-0.744,1.043-1.366,1.421-1.867
						c0.378-0.5,0.704-0.93,0.977-1.286c0.272-0.355,0.503-0.655,0.694-0.898c0.19-0.244,0.367-0.477,0.532-0.704
						c-0.08-0.699-0.12-1.403-0.119-2.112l-0.424,0.58c-0.212,0.29-0.45,0.531-0.714,0.724s-0.584,0.193-0.96-0.001
						c-0.346-0.167-0.576-0.451-0.69-0.851C70.105,102.3,70.178,101.922,70.437,101.568z"/>
				</g>
			</g>
		</g>
	</g>
</g>
</svg>
