<?xml version="1.0" encoding="utf-8"?>
<!-- Generator: Adobe Illustrator 16.0.0, SVG Export Plug-In . SVG Version: 6.00 Build 0)  -->
<!DOCTYPE svg PUBLIC "-//W3C//DTD SVG 1.1//EN" "http://www.w3.org/Graphics/SVG/1.1/DTD/svg11.dtd">
<svg version="1.1" id="Layer_1" xmlns="http://www.w3.org/2000/svg" xmlns:xlink="http://www.w3.org/1999/xlink" x="0px" y="0px"
	 width="155.461px" height="119.801px" viewBox="0 0 155.461 119.801" enable-background="new 0 0 155.461 119.801"
	 xml:space="preserve">
<path fill="#998282" d="M124.2,114.34c1.254-0.363,2.411-0.801,3.471-1.311c1.021-0.023,2.052-0.205,3.103-0.554l0.465-0.156
	c2.246-0.753,4.023-2.17,5.175-3.96c0.323,0.047,0.647,0.206,0.976,0.215c0.151,0.004,0.303,0.135,0.455,0.135h0.002
	c2.543,0,5.043-0.658,7.434-1.709c0.443-0.193,0.885-0.457,1.326-0.654c0.226-0.102,0.445-0.246,0.662-0.367
	c0.535-0.303,1.07-0.626,1.604-0.934c0.347-0.2,0.679-0.436,0.994-0.685c9.416-7.458,6.337-15.456,5.178-17.711
	c-1.255-2.456-3.468-5.388-7.318-7.394c0.592-2.031,0.459-4.252-0.512-6.297c-0.15-0.323-0.329-0.654-0.531-0.987
	c0.527-1.097,0.932-2.255,1.164-3.479c0.266-1.416,0.312-2.846,0.139-4.275c0.164-0.518,0.295-1.043,0.396-1.576
	c0.003-0.018,0.04-0.196,0.054-0.27c0.055-0.285,0.1-0.574,0.135-0.867c0.068-0.262,0.127-0.523,0.177-0.785
	c1.729-9.204-7.248-17.552-21.831-20.299c-2.725-0.514-5.436-0.774-8.053-0.774c-8.463,0-14.932,2.781-17.969,7.469
	c-0.772,0.336-1.539,0.694-2.291,1.074c-2.5,1.258-4.834,2.724-6.914,4.319c-1.584-2.614-3.953-3.877-6.168-4.223
	c-1.209-1.294-2.771-2.23-4.568-2.669c-0.73-0.18-1.477-0.271-2.217-0.271c-2.148,0-4.093,0.738-5.63,2.004
	c-1.664-1.017-3.319-1.631-5.089-1.826l-0.133-0.016c-0.312-0.035-0.624-0.053-0.937-0.053c-0.103,0-0.981,0.029-1.318,0.038
	c-0.635,0.017-1.267,0.106-1.881,0.269c-1.112,0.292-2.093,0.655-2.98,1.061c-1.428-1.525-3.226-2.771-5.369-3.678
	c-0.352-0.148-0.712-0.272-1.081-0.371c-1.271-0.341-2.565-0.514-3.845-0.514c-1.843,0-3.65,0.354-5.396,1.049
	c-0.767-1.981-2.025-3.677-3.709-5.008l4.395-2.686c2.31-1.41,11.657-13.26,13.245-18.309l0.177,0.293
	c0.33,0.534,0.885,0.797,1.242,0.579l5.651-3.453c0.357-0.219,0.379-0.832,0.052-1.368l-7.147-11.7
	c-0.331-0.538-0.887-0.797-1.242-0.578l-5.649,3.45c-0.359,0.22-0.381,0.832-0.053,1.369l0.179,0.294
	C46.998,5.297,32.19,8.207,29.882,9.617L3.877,25.502c-2.688,1.642-3.539,5.156-1.895,7.849l4.766,7.802l0.397,0.65L11.91,49.6
	c1.591,2.605,4.929,3.478,7.58,2.047c-0.076,0.151-0.155,0.316-0.229,0.465c-1.523,2.947-3.048,5.896-4.575,8.842
	c-0.353,0.68-0.61,1.407-0.763,2.158c-0.46,2.264-0.126,4.485,0.839,6.364c-0.946,0.649-1.893,1.478-2.798,2.534
	c-2.738,0.766-4.968,2.746-6.056,5.492c-0.792,1.916-0.872,4.029-0.215,6.021c0.022,0.064,0.044,0.133,0.067,0.197
	c-0.768,1.513-1.537,3.025-2.307,4.537c-0.107,0.211-0.206,0.428-0.295,0.646l-1.267,3.139c-1.048,2.361-1.177,4.927-0.355,7.263
	c0.872,2.479,2.753,4.507,5.299,5.71c0.01,0.005,0.276,0.129,0.276,0.129c0.41,0.189,0.834,0.348,1.27,0.469
	c1.165,0.323,2.242,0.48,3.294,0.48c3.669,0,6.862-1.998,8.371-5.301c0.715-1.614,1.429-3.223,2.143-4.832
	c-0.488,1.301-0.976,2.601-1.467,3.898c-0.255,0.676-0.421,1.383-0.493,2.1c-0.516,5.127,2.298,9.582,7.021,11.097
	c1.072,0.341,2.164,0.514,3.245,0.513c3.684,0,6.994-1.99,8.854-5.326c0.284-0.511,0.513-1.048,0.684-1.604
	c0.16-0.521,0.332-1.095,0.512-1.702c-0.065,0.341-0.129,0.671-0.196,1.021l-0.122,0.631c-0.53,2.726-0.008,5.416,1.469,7.576
	c1.479,2.164,3.802,3.631,6.541,4.129c0.781,0.143,1.556,0.215,2.302,0.215c2.446,0,4.701-0.791,6.487-2.207
	c3.057,2.625,6.95,4.146,11.461,4.408c0.489,0.027,0.964,0.041,1.427,0.041c1.565,0,3.059-0.158,4.492-0.484
	c1.97-0.461,3.617-1.068,4.999-1.77c1.791,1.479,3.992,2.307,6.341,2.307c0.133,0,0.356-0.006,0.489-0.014
	c0,0,0.981-0.049,1.394-0.072c2.263-0.129,4.417-1.189,5.909-2.912c0.246-0.283,0.472-0.561,0.678-0.844
	c1.708,1.401,3.87,2.186,6.208,2.186c0.503,0,1.017-0.037,1.54-0.111c2.934-0.426,5.41-1.957,7.016-4.183
	c1.871,0.655,3.935,0.993,6.172,0.993C117.895,115.846,120.939,115.34,124.2,114.34z"/>
<path fill="#998282" d="M78.078,23.265c1.066-0.373,1.626-1.538,1.252-2.607c-0.374-1.062-1.54-1.624-2.604-1.25
	c-1.067,0.373-1.625,1.541-1.254,2.605C75.847,23.077,77.015,23.639,78.078,23.265z"/>
<path fill="#998282" d="M70.069,17.971c-0.963-0.746-2.349-0.565-3.092,0.396c-0.744,0.967-0.565,2.353,0.396,3.099
	c0.964,0.741,2.341,0.561,3.089-0.393c0-0.004,0.005-0.006,0.007-0.009c1.18-1.525,1.095-3.63-0.091-5.05
	c0.36,0.657,0.339,1.483-0.103,2.136C70.21,18.09,70.145,18.027,70.069,17.971z"/>
<path fill="#998282" d="M73.519,15.475c2.033,1.099,4.583,0.285,5.657-1.767c1.072-2.047,0.271-4.556-1.763-5.655
	c-5.124-2.765-9.816,0.584-9.816,0.584C70.522,8.543,70.785,13.989,73.519,15.475z"/>
<polygon fill="#998282" points="94.305,45.709 94.305,36.709 104.305,36.709 104.305,27.709 94.305,27.709 94.305,19.709 
	86.305,19.709 86.305,27.709 76.304,27.709 76.304,36.709 86.305,36.709 86.305,45.709 "/>
<g>
	<g>
		<path fill="#FFFFFF" d="M102.198,88.013c-5.417,0-9.966-1.65-13.167-4.772c-1.213-1.146-2.197-2.459-2.926-3.906
			c-0.041-0.084-0.082-0.168-0.123-0.252c-0.576-0.729-1.074-1.51-1.491-2.332c-0.046-0.092-0.091-0.185-0.134-0.276
			c-0.479-0.642-0.896-1.313-1.248-2.011c0,0-0.096-0.19-0.125-0.248c-0.125-0.252-0.244-0.508-0.355-0.771
			c-0.134-0.227-0.26-0.455-0.377-0.688c-1.16-2.303-3.176-8.437,2.954-16.003c2.931-3.617,7.333-7.015,12.397-9.564
			c0.754-0.38,1.52-0.738,2.293-1.074c3.037-4.688,9.504-7.469,17.969-7.469c2.617,0,5.326,0.261,8.052,0.774
			c14.583,2.747,23.56,11.095,21.831,20.299c-0.049,0.262-0.107,0.524-0.178,0.786c-0.034,0.293-0.079,0.582-0.133,0.867
			c-0.015,0.072-0.051,0.252-0.055,0.27c-0.1,0.533-0.232,1.059-0.396,1.576c0.174,1.431,0.127,2.859-0.139,4.275
			c-1.553,8.235-10.136,13.764-21.356,13.764c-1.114,0-2.239-0.055-3.369-0.16c-1.615,1.188-3.358,2.254-5.218,3.189
			C112.059,86.724,106.975,88.013,102.198,88.013z"/>
		<path fill="#FFFFFF" d="M124.382,47.555c-9.188-1.731-17.271,0.224-18.051,4.368c-0.039,0.201-0.043,0.402-0.045,0.605
			c-1.62,0.531-3.289,1.211-4.962,2.054c-8.352,4.205-13.588,10.667-11.689,14.435c0.114,0.226,0.256,0.437,0.412,0.633
			c0.088,0.292,0.197,0.578,0.336,0.853c0.021,0.043,0.053,0.078,0.073,0.119s0.03,0.088,0.052,0.129
			c0.264,0.524,0.618,0.987,1.029,1.406c0.091,0.295,0.201,0.581,0.341,0.858c0.313,0.618,0.735,1.159,1.246,1.633
			c0.097,0.332,0.219,0.653,0.376,0.966c0.314,0.627,0.744,1.174,1.262,1.652c3.381,3.365,11.049,3.336,18.416-0.373
			c2.533-1.275,4.733-2.842,6.51-4.536c0.188,0.038,0.373,0.088,0.565,0.123c9.188,1.731,17.451-1.187,18.456-6.513
			c0.204-1.088,0.077-2.19-0.313-3.272c0.006-0.022,0.017-0.045,0.021-0.067c0.037-0.192,0.041-0.389,0.059-0.582
			c0.373-0.604,0.643-1.252,0.771-1.943c0.009-0.044,0.007-0.088,0.015-0.132c0.01-0.047,0.029-0.092,0.041-0.141
			c0.057-0.304,0.082-0.609,0.086-0.915c0.098-0.232,0.174-0.473,0.221-0.723C140.389,54.048,133.573,49.286,124.382,47.555z"/>
	</g>
	<g>
		<g>
			<g>
				<path fill="#FFFFFF" d="M29.177,76.682c-2.641,0.001-5.188-0.623-7.575-1.854c-0.962-0.469-1.913-1.097-2.868-1.897
					c-0.161-0.067-0.319-0.14-0.476-0.218l-0.355-0.176c-3.862-1.91-5.862-6.099-4.981-10.426c0.153-0.751,0.41-1.479,0.763-2.159
					c1.527-2.945,3.052-5.892,4.575-8.84c1.292-2.561,2.695-5.567,4.253-9.124c0.065-0.148,0.135-0.296,0.208-0.44
					c1.02-1.999,3.729-7.309,9.626-7.309c1.102,0,2.206,0.213,3.231,0.619c6.502,1.935,10.04,7.281,9.277,14.146
					c-0.173,1.43-0.519,2.737-1.039,3.968L43.7,53.249c-0.147,0.348-0.306,0.688-0.476,1.019c0.113,0.301,0.217,0.606,0.314,0.916
					c0.1,0.318,0.179,0.644,0.239,0.972c0.564,3.081,0.091,6.568-1.444,10.661c-2.792,7.462-7.899,9.27-10.694,9.684
					C30.83,76.62,29.998,76.682,29.177,76.682z"/>
				<path fill="#FFFFFF" d="M46.567,82.838c-1.451,0-2.961-0.209-4.487-0.623c-5.174-1.403-9.022-4.869-10.86-9.771
					c-2.113-5.241-0.345-11.579,2.989-19.44c1.391-3.857,3.858-7.021,7.337-9.405c0.215-0.147,0.438-0.284,0.666-0.411
					c2.309-1.28,4.75-1.929,7.257-1.929c1.28,0,2.574,0.173,3.846,0.514c0.369,0.099,0.729,0.223,1.081,0.371
					c5.362,2.267,8.605,6.635,9.131,12.3c0.367,4.029,0.013,7.356-1.081,10.19c-0.495,1.279-1.279,2.377-2.256,3.234
					c0.356,1.17,0.533,2.566,0.369,4.213c-0.029,0.289-0.073,0.578-0.132,0.862c-0.434,2.091-2.628,8.981-12.637,9.845
					C47.344,82.825,46.959,82.838,46.567,82.838z"/>
				<path fill="#FFFFFF" d="M63.138,86.075c-0.304,0-0.608-0.018-0.91-0.051c-0.383-0.043-0.767-0.087-1.149-0.134
					c-2.65-0.319-5.178-1.358-7.301-3.005c-0.292-0.227-0.57-0.473-0.83-0.736c-2.789-2.834-4.217-5.841-4.246-8.936
					c-0.029-3.697,1.412-6.098,2.625-7.461c0.588-0.66,1.241-1.229,1.946-1.698c-0.111-0.244-0.213-0.484-0.305-0.724
					c-1.152-2.987-1.262-6.184-0.339-9.525c0.715-2.579,2.978-7.174,10.121-9.046c0.614-0.161,1.244-0.251,1.878-0.268
					c0.336-0.009,1.215-0.038,1.318-0.038c0.313,0,0.625,0.018,0.937,0.053l0.236,0.027c1.891,0.206,3.751,0.932,5.644,2.213
					c0.276,0.187,0.541,0.39,0.792,0.608c4.225,3.676,4.857,7.503,4.624,10.103c-0.187,2.211-1.147,4.172-2.609,5.629
					c1.651,3.086,2.393,6.541,2.164,10.188c-0.392,6.407-4.831,11.247-11.584,12.617c-0.495,0.102-0.998,0.154-1.503,0.164
					C64.161,86.064,63.156,86.075,63.138,86.075z"/>
				<path fill="#FFFFFF" d="M82.111,86.775c-2.674,0-7.763-0.954-11.782-7.351c-0.211-0.336-0.398-0.688-0.559-1.049
					c-0.994-2.244-1.47-4.972-1.454-8.34c0.004-1.09,0.067-3.213,0.176-6.431c-0.349-0.272-0.679-0.575-0.987-0.905
					c-1.486-1.593-2.3-3.682-2.313-5.917c-0.052-2.608,0.846-5.011,2.544-6.789c0.807-0.845,1.754-1.512,2.795-1.982
					c1.645-2.274,4.235-3.668,7.205-3.668c0.741,0,1.485,0.092,2.216,0.271c1.798,0.441,3.358,1.378,4.565,2.669
					c2.867,0.445,6,2.42,7.346,6.89c0.18,0.598,0.291,1.214,0.332,1.837c0.238,3.562-1.648,6.812-4.732,8.449
					c-0.014,0.461-0.025,0.896-0.033,1.308c4.44,1.086,6.568,4.319,7.151,7.237l0.082,0.342c0.101,0.421,0.168,0.85,0.203,1.281
					c0.142,1.807,0.024,7.953-7.454,11.172c-0.036,0.016-0.072,0.029-0.107,0.045c-1.275,0.527-2.67,0.83-4.143,0.896l-0.577,0.025
					C82.438,86.772,82.273,86.775,82.111,86.775z"/>
			</g>
			<g>
				<path fill="#FFFFFF" d="M10.674,105.094c-1.049,0-2.125-0.157-3.288-0.479c-0.438-0.121-0.865-0.279-1.276-0.471
					c0,0-0.266-0.124-0.276-0.129c-2.545-1.203-4.427-3.23-5.299-5.71c-0.821-2.336-0.693-4.899,0.355-7.263l1.267-3.139
					c0.089-0.22,0.188-0.436,0.295-0.646c0.77-1.512,1.539-3.024,2.307-4.537c-0.023-0.064-0.045-0.133-0.067-0.197
					c-0.657-1.99-0.577-4.104,0.214-6.02c1.088-2.746,3.319-4.729,6.058-5.494c3.496-4.084,7.595-4.786,9.998-4.786
					c0.169,0,0.338,0.004,0.508,0.01c3.23,0.124,6.397,0.978,9.402,2.536c4.93,2.555,7.488,7.336,7.016,13.115
					c-0.841,10.257-8.175,10.775-9.637,10.775c-0.914,0-1.821-0.137-2.706-0.406c-0.841,0.25-1.733,0.383-2.653,0.383
					c-0.219,0-0.439-0.008-0.664-0.021c-1.058,2.383-2.122,4.779-3.184,7.178C17.535,103.096,14.343,105.094,10.674,105.094z"/>
				<path fill="#FFFFFF" d="M29.493,112.569c-1.084,0-2.178-0.174-3.252-0.516c-4.715-1.512-7.529-5.969-7.014-11.094
					c0.072-0.719,0.238-1.424,0.493-2.101c0.708-1.872,1.413-3.745,2.114-5.618c1.175-3.662,2.352-7.324,3.532-10.984
					c0.12-0.371,0.265-0.732,0.436-1.084c0.242-0.903,0.486-1.809,0.73-2.713c0.271-1,0.728-1.94,1.346-2.773
					c2.507-3.374,5.649-3.878,7.3-3.878c0.874,0,1.812,0.147,2.643,0.421l0.284,0.094c0.242,0.078,0.479,0.166,0.71,0.262
					c0.156-0.006,0.312-0.008,0.468-0.008c1.337,0,2.679,0.188,3.987,0.557l0.242,0.066c5.386,1.5,8.897,5.527,9.662,11.059
					c0.065,0.471,0.09,0.945,0.073,1.421l-0.049,1.528c-0.017,0.566-0.092,1.129-0.224,1.681c-0.979,4.091-4.619,6.84-9.057,6.84
					c-0.496,0.001-1.016-0.032-1.546-0.099c-0.145-0.018-0.29-0.039-0.433-0.063c-1.236,4.41-2.177,7.687-2.909,10.072
					c-0.171,0.556-0.399,1.092-0.682,1.6C36.488,110.577,33.178,112.569,29.493,112.569z"/>
				<path fill="#FFFFFF" d="M49.536,117.506c-0.744,0-1.517-0.07-2.297-0.213c-2.745-0.498-5.068-1.965-6.547-4.129
					c-1.477-2.16-1.999-4.852-1.469-7.576l0.122-0.631c1.074-5.613,1.939-9.928,2.568-12.799c0.197-0.898,0.408-1.863,0.675-2.834
					c-0.694-1.785-0.813-3.675-0.464-5.384l0.032-0.155c0.666-3.281,2.886-5.976,6.164-7.535c1.249-0.694,2.698-1.082,4.249-1.082
					c0.462,0,0.929,0.033,1.428,0.102c0.117,0.018,0.579,0.1,0.579,0.1l0.173,0.031c0.215,0.038,0.428,0.086,0.639,0.143
					c7.32,1.938,9.161,7.377,8.514,11.447l-0.068,0.418c-0.125,0.773-0.359,1.525-0.696,2.232c-0.333,0.701-0.719,1.354-1.15,1.951
					c-0.094,1.113-0.276,2.367-0.488,3.826c-0.386,2.654-0.994,6.576-1.859,11.988l-0.047,0.279l-0.172,1.668
					c-0.148,1.451-0.678,2.838-1.534,4.02C55.98,116,52.937,117.506,49.536,117.506z"/>
				<path fill="#FFFFFF" d="M68.906,119.75c-0.461,0-0.936-0.014-1.423-0.041c-5.711-0.332-10.45-2.652-13.724-6.713
					c-4.487-5.285-3.567-13.306-2.001-20.539c0.653-4.381,2.978-8.273,6.743-11.281c0.204-0.163,0.416-0.316,0.634-0.461
					c2.963-1.938,6.32-2.922,9.978-2.922c0.378,0,0.761,0.012,1.148,0.033c0.288,0.016,0.575,0.047,0.859,0.092
					c8.204,1.32,11.685,5.949,13.159,9.603c1.682,4.174,2.147,7.847,1.43,11.235c-0.27,1.27-0.82,2.418-1.581,3.39
					c0.599,1.091,1.009,2.33,1.192,3.679c0.051,0.363,0.076,0.731,0.076,1.1c0.006,2.865-1.15,9.804-11.996,12.343
					C71.961,119.592,70.469,119.75,68.906,119.75z"/>
				<path fill="#FFFFFF" d="M84.744,119.801c-3.313,0-6.342-1.612-8.315-4.428c-0.919-1.313-1.438-2.863-1.494-4.463
					c-0.159-4.588-0.32-9.177-0.483-13.765c-0.004-0.124-0.006-0.247-0.005-0.371c0.026-2.774,0.045-5.551,0.056-8.325
					c-0.258-1.437-0.132-2.916,0.366-4.287c1.309-3.604,4.486-5.955,8.292-6.133c0.128-0.006,0.286-0.01,0.415-0.01
					c0.586,0,1.197,0.063,1.818,0.193c1.304-0.399,2.668-0.672,4.09-0.813c0.002,0,0.065-0.007,0.095-0.01
					c0.672-0.066,1.345-0.102,1.998-0.102c3.813,0,7.257,1.123,10.237,3.338c0.377,0.279,0.73,0.592,1.057,0.935
					c2.191,2.301,3.585,5.258,4.141,8.787l0.69,4.42c0.685,3.996,1.373,7.991,2.067,11.985c0.168,0.967,0.162,1.955-0.016,2.918
					c-0.814,4.422-4.268,7.703-8.795,8.359c-0.523,0.075-1.036,0.112-1.539,0.112c-2.338,0-4.501-0.783-6.209-2.187
					c-0.206,0.283-0.432,0.559-0.675,0.84c-1.49,1.724-3.642,2.785-5.902,2.916c-0.421,0.023-1.403,0.074-1.403,0.074
					C85.1,119.797,84.876,119.801,84.744,119.801z"/>
				<path fill="#FFFFFF" d="M114.146,114.846c-3.205,0-6.061-0.678-8.486-2.018c-4.398-2.422-7.374-6.32-8.6-11.271
					c-0.957-3.866-0.899-8.015,0.174-12.681c1.336-5.765,5.052-10.137,10.748-12.658c1.121-0.496,2.199-0.911,3.238-1.246
					c1.148-1.997,3.031-3.506,5.309-4.227c0.941-0.309,1.863-0.455,2.796-0.455c4.284,0,7.514,2.654,9.599,7.893
					c0.057,0.141,0.107,0.281,0.156,0.424c1.171,3.482,2.34,6.967,3.508,10.453c1.245,3.396,2.496,6.791,3.752,10.186
					c0.178,0.478,0.309,0.971,0.396,1.473c0.805,4.688-1.867,9.049-6.497,10.604l-0.466,0.155c-1.051,0.349-2.082,0.528-3.103,0.554
					c-1.06,0.51-2.217,0.946-3.471,1.311C119.939,114.34,116.895,114.846,114.146,114.846z"/>
				<path fill="#FFFFFF" d="M136.383,107.443c-0.328-0.008-0.656-0.036-0.98-0.084c-1.67-0.243-6.754-0.983-9.543-5.144
					c-1.912-2.854-2.42-6.082-1.435-9.094c0.203-0.623,0.462-1.217,0.773-1.777c-3.013-1.963-5.03-4.907-5.875-8.566
					c-1.11-4.828,0.892-9.419,5.95-13.65c0.369-0.311,0.766-0.588,1.184-0.828c0.404-0.232,0.811-0.469,1.213-0.705
					c0.26-0.152,0.528-0.291,0.805-0.414l0.287-0.131c1.615-0.729,3.473-1.151,5.662-1.28c0.162-0.011,0.325-0.015,0.488-0.015
					c0.122,0,0.244,0.002,0.365,0.008c6.752,0.299,9.673,3.501,10.934,6.191c0.975,2.045,1.107,4.269,0.516,6.301
					c3.851,2.006,6.063,4.937,7.318,7.395c1.159,2.254,4.238,10.251-5.182,17.706c-0.311,0.245-0.637,0.47-0.98,0.667
					c-0.537,0.313-1.074,0.62-1.613,0.926c-0.217,0.12-0.438,0.232-0.662,0.334c-0.441,0.198-0.883,0.395-1.325,0.59
					c-2.388,1.049-4.884,1.578-7.429,1.58C136.695,107.45,136.539,107.448,136.383,107.443z"/>
			</g>
		</g>
		<g>
			<g>
				<path fill="#FFCF59" d="M34.923,44.932c0.071,0.036,0.142,0.071,0.212,0.105c2.944,0.712,4.19,2.436,3.859,5.419
					c-0.07,0.581-0.215,1.135-0.437,1.659c-0.042,0.1-0.084,0.199-0.126,0.298c-0.619,1.467-1.733,2.61-3.394,3.375
					c1.457,1.158,2.441,2.549,2.963,4.223c0.279,1.527-0.059,3.615-1.052,6.264c-0.991,2.647-2.363,4.138-4.154,4.401
					c-1.785,0.267-3.517-0.034-5.134-0.895c-0.678-0.307-1.528-0.992-2.518-2.07c-0.061,0.125-0.345,0.107-0.852-0.055
					c-0.119-0.06-0.237-0.117-0.355-0.177c-0.49-0.242-0.669-0.694-0.535-1.353c1.529-2.949,3.056-5.899,4.581-8.853
					c1.478-2.928,2.961-6.133,4.48-9.602C33.538,45.563,34.358,44.651,34.923,44.932z M34.674,47.063
					c-0.955,2.322-1.898,4.649-2.832,6.981c1.421,0.686,2.977,0.144,4.59-1.617c0.134-0.234,0.269-0.47,0.403-0.705
					c0.087-0.197,0.174-0.395,0.262-0.592c0.618-1.344,0.523-2.346-0.265-3.021C36.043,47.435,35.331,47.084,34.674,47.063z
					 M31.193,55.796c-0.038,0.012-0.076,0.023-0.114,0.035c-0.012,0.024-0.023,0.049-0.035,0.073
					c-1.271,2.775-2.538,5.554-3.801,8.333c-0.271,1.365-0.266,2.112,0.001,2.238c0.318,0.625,0.758,1.066,1.315,1.318
					c0.088,0.039,0.177,0.08,0.265,0.119c2.846,1.777,4.981,0.692,6.317-3.076c1.344-3.787,0.246-6.582-3.154-8.664
					C31.723,56.049,31.458,55.923,31.193,55.796z"/>
				<path fill="#FFCF59" d="M53.538,52.133c2.501,1.058,3.869,2.819,4.113,5.441c0.238,2.617,0.086,4.768-0.561,6.443
					c-0.527-0.093-1.055-0.188-1.582-0.29c-2.605-0.615-5.192-1.325-7.755-2.131c-0.22-0.064-0.44-0.133-0.661-0.199
					c-0.283-0.059-0.565-0.118-0.849-0.18c-0.019-0.033-0.039-0.067-0.058-0.102c-2.164,4.594-2.951,7.822-2.151,9.725
					c0.789,1.897,1.824,3.021,3.028,3.349c0.092,0.024,0.185,0.05,0.277,0.075c1.726,0.465,3.068,0.217,3.99-0.702
					c0.925-0.92,1.734-1.41,2.45-1.465c0.716-0.056,1.016,0.45,0.909,1.528c-0.385,1.855-2.107,3.01-5.244,3.281
					c-0.854,0.065-1.803-0.037-2.833-0.316c-2.63-0.713-4.434-2.352-5.315-4.795c-0.961-2.23,0.125-6.691,2.998-13.428
					c0.807-2.361,2.277-4.191,4.297-5.576C50.214,51.893,51.836,51.677,53.538,52.133z M46.866,58.957
					c0.16,0.228,2.967,1.286,8.538,2.51c0.03-0.131,0.06-0.264,0.09-0.395c0.141-3.175-0.518-5.273-1.987-6.356
					c-0.243-0.119-0.486-0.24-0.728-0.361c-2.043-0.552-3.737,0.359-5.171,2.801C47.361,57.757,47.114,58.357,46.866,58.957z"/>
				<path fill="#FFCF59" d="M72.296,59.109c-0.031,0.454-0.29,0.688-0.776,0.696c-0.486,0.01-1.037-0.434-1.625-1.331
					c-0.588-0.896-1.023-1.364-1.33-1.397c-0.105-0.012-0.209-0.022-0.314-0.034c-1.563-0.174-2.611,0.737-3.171,2.782
					c-0.244,1.8,0.979,4.32,4.054,7.382c1.938,2.201,2.898,4.813,2.704,7.914c-0.162,2.644-1.786,4.379-4.969,5.023
					c-0.454,0.008-0.909,0.014-1.364,0.018c-0.353-0.039-0.707-0.08-1.06-0.123c-1.19-0.145-2.274-0.59-3.231-1.33
					c-1.257-1.277-1.861-2.354-1.869-3.207c-0.007-0.853,0.172-1.478,0.53-1.879c0.357-0.4,0.755-0.565,1.202-0.496
					c0.446,0.07,0.736,1.067,0.901,2.996c0.807,0.988,1.825,1.563,3.022,1.703c0.125,0.016,0.251,0.029,0.377,0.043
					c2.431-0.002,3.711-0.939,3.856-2.699c0.018-0.215,0.037-0.43,0.055-0.646c0.153-1.788-0.399-3.614-1.562-5.507
					c-2.71-2.877-4.176-5.029-4.681-6.325c-0.501-1.301-0.509-2.74-0.073-4.319c0.438-1.582,1.875-2.622,4.24-3.242
					c0.366-0.01,0.732-0.021,1.097-0.035c0.077,0.009,0.154,0.018,0.23,0.026c0.564,0.062,1.208,0.344,1.945,0.843
					C71.771,57.084,72.395,58.119,72.296,59.109z"/>
				<path fill="#FFCF59" d="M80.337,55.019c0.562,0.138,0.875,0.626,0.942,1.472c0.078,0.229,0.132,0.687,0.16,1.372
					c0.094-0.002,0.188-0.004,0.281-0.006c0.244-0.006,0.489-0.012,0.733-0.019c1.039,0.012,2.079,0.009,3.119-0.011
					c0.262-0.016,0.503,0.351,0.729,1.1c0.022,0.33-0.167,0.556-0.567,0.672c-0.062-0.011-0.123-0.022-0.186-0.034
					c-1.316,0.053-2.634,0.081-3.951,0.085c0.012,0.604,0.024,1.208,0.037,1.812c0.022,0.508,0.045,1.017,0.067,1.523
					c-0.458,9.141-0.187,14.172,1.094,15.072c0.747,0.65,1.388,0.962,1.905,0.939c0.104-0.004,0.208-0.01,0.313-0.014
					c1.168-0.314,1.732-0.704,1.707-1.141c-0.061-0.178-0.121-0.355-0.18-0.534c-0.001-0.015-0.002-0.03-0.003-0.046
					c-0.042-0.729,0.188-1.109,0.694-1.143c0.084-0.004,0.168-0.011,0.252-0.017c0.863,0.138,1.316,0.45,1.355,0.958
					c0.047,0.193,0.094,0.387,0.139,0.58c0.092,1.172-0.717,2.163-2.474,2.919c-0.387,0.16-0.839,0.253-1.354,0.276
					c-0.174,0.008-0.348,0.016-0.523,0.021c-1.74,0.071-3.427-1.091-4.925-3.475c-0.513-1.155-0.753-2.805-0.743-4.944
					c0.005-1.293,0.109-4.411,0.279-9.354c0.019-1.182,0.037-2.362,0.055-3.544c-1.07-0.002-2.14-0.021-3.209-0.056
					c-0.176-0.006-0.259-0.15-0.249-0.436c-0.038-0.826,0.273-1.225,0.934-1.207c0.824,0.014,1.647,0.018,2.471,0.012
					c0.033-0.08,0.068-0.161,0.102-0.241c-0.003-0.543-0.006-1.086-0.009-1.629C79.445,55.201,79.777,54.881,80.337,55.019z"/>
			</g>
			<g>
				<path fill="#FFCF59" d="M29.426,78.482c1.922,0.996,2.775,2.667,2.577,5.095c-0.199,2.424-0.767,3.467-1.75,3.102
					c-0.137-0.053-0.273-0.104-0.41-0.154c-0.696-0.264-0.711-1.341-0.046-3.223c-0.199-1.695-1.16-2.906-2.9-3.692
					c-1.742-0.788-3.121-0.821-4.18-0.06c-0.646,0.551-1.172,1.258-1.573,2.125c-0.182,0.479-0.363,0.959-0.544,1.439
					c1.309,0.553,2.623,1.084,3.942,1.594c1.151,0.487,1.588,1.068,1.303,1.77c-0.22,0.543-1.871,0.211-4.899-1.163
					c-0.307-0.138-0.613-0.276-0.919-0.417c-0.068,0.146-0.135,0.294-0.203,0.439c-2,4.488-3.994,8.978-5.983,13.47
					c-0.191,0.419-0.818,0.491-1.878,0.196c-0.076-0.035-0.151-0.07-0.227-0.105c-1.058-0.5-1.347-1.243-0.875-2.212
					c0.443-1.103,0.888-2.204,1.334-3.306c1.654-3.25,3.304-6.502,4.95-9.754c-0.417-0.174-0.833-0.349-1.249-0.524
					c-0.808-0.401-1.125-0.776-0.954-1.112c0.313-0.916,1.266-0.902,2.88-0.012c0.059-0.121,0.118-0.242,0.177-0.363
					c0.108-0.307,0.217-0.613,0.326-0.92c1.415-2.652,3.148-3.902,5.185-3.822C25.55,76.948,27.501,77.484,29.426,78.482z"/>
				<path fill="#FFCF59" d="M43.387,83.465c0.1,0.027,0.199,0.056,0.298,0.082c2.14,0.597,3.344,1.973,3.654,4.211
					c-0.018,0.521-0.035,1.046-0.051,1.568c-0.099,0.411-0.613,0.566-1.545,0.452c-0.905-0.228-1.198-0.946-0.883-2.146
					c-0.196-0.975-0.937-1.645-2.229-2.037c-1.293-0.395-2.444-0.148-3.486,0.746c-0.215,0.525-0.431,1.053-0.647,1.578
					c-2.258,8.148-3.909,14.041-5.017,17.654c-0.536,0.963-1.328,1.285-2.36,0.957c-0.987-0.316-1.419-1.115-1.292-2.38
					c0.734-1.942,1.465-3.886,2.193-5.829c1.193-3.722,2.389-7.441,3.588-11.16c0.111-0.22,0.222-0.438,0.333-0.656
					c0.313-1.174,0.629-2.346,0.946-3.52c0.305-0.41,0.546-0.585,0.726-0.525c0.099,0.033,0.198,0.064,0.297,0.098
					c0.539,0.176,0.795,0.625,0.773,1.354C40.283,83.176,41.833,83.026,43.387,83.465z"/>
				<path fill="#FFCF59" d="M55.229,85.834c0.134,0.024,0.269,0.051,0.403,0.074c1.789,0.475,2.613,1.17,2.458,2.146
					c-0.021,0.133-0.043,0.266-0.064,0.397c-0.651,1.369-1.644,1.946-2.955,1.709c-0.208-0.037-0.417-0.074-0.625-0.113
					c-1.413-0.522-2.022-1.229-1.847-2.088c0.011-0.053,0.021-0.105,0.032-0.158c0.168-0.83,0.863-1.457,2.063-1.902
					C54.712,85.808,54.89,85.788,55.229,85.834z M56.135,92.469c0.2-0.145-0.577,5.188-2.305,15.996
					c-0.027,0.16-0.054,0.32-0.08,0.479c-0.067,0.646-0.134,1.289-0.2,1.935c-0.459,0.634-1.284,0.852-2.469,0.637
					c-1.128-0.205-1.582-0.872-1.366-1.982c0.041-0.211,0.082-0.424,0.123-0.636c2.153-11.259,3.384-16.858,3.682-16.804
					C53.801,91.763,54.666,91.899,56.135,92.469z M54.7,87.545c-0.059,0.125-0.118,0.252-0.178,0.377
					c-0.036,0.189,0.106,0.381,0.425,0.572c0.511-0.07,0.797-0.293,0.863-0.664c-0.307-0.056-0.614-0.111-0.92-0.168
					c-0.029-0.033-0.059-0.065-0.088-0.099C54.768,87.558,54.734,87.551,54.7,87.545z"/>
				<path fill="#FFCF59" d="M72.172,88.456c3.527,0.567,5.783,2.014,6.801,4.53c1.012,2.513,1.381,4.647,1.006,6.421
					c-0.692,0.018-1.385,0.031-2.077,0.039c-3.455-0.076-6.906-0.277-10.347-0.602c-0.294-0.024-0.589-0.051-0.884-0.076
					c-0.371-0.006-0.742-0.014-1.113-0.023c-0.034-0.029-0.068-0.06-0.103-0.09c-1.363,4.922-1.394,8.252,0.122,9.98
					c1.504,1.726,3.08,2.636,4.648,2.729c0.12,0.008,0.24,0.014,0.36,0.021c2.246,0.127,3.831-0.383,4.726-1.467
					c0.898-1.084,1.773-1.727,2.647-1.926c0.875-0.199,1.381,0.233,1.528,1.313c0.004,1.894-1.83,3.382-5.605,4.267
					c-1.031,0.232-2.22,0.315-3.556,0.238c-3.41-0.197-6.057-1.482-7.831-3.736c-1.806-2.031-1.79-6.637-0.215-13.802
					c0.304-2.478,1.595-4.54,3.754-6.265C67.828,88.833,69.849,88.329,72.172,88.456z M65.676,96.402
					c0.27,0.188,4.092,0.761,11.484,0.851c0.002-0.135,0.004-0.27,0.007-0.403c-0.68-3.14-2.105-5.063-4.297-5.847
					c-0.346-0.071-0.69-0.145-1.035-0.217c-2.775-0.16-4.667,1.039-5.756,3.707C65.946,95.129,65.812,95.766,65.676,96.402z"/>
				<path fill="#FFCF59" d="M92.665,88.004c0.002,0.027,0.005,0.055,0.008,0.082c0.032-0.03,0.063-0.062,0.095-0.092
					c2.51-0.252,4.64,0.278,6.476,1.644c1.001,1.051,1.664,2.501,1.957,4.364c0.233,1.49,0.466,2.98,0.7,4.473
					c0.688,4.021,1.382,8.044,2.08,12.064c-0.176,0.955-0.793,1.517-1.842,1.668c-0.783,0.112-1.345-0.135-1.676-0.734
					c-0.333-0.6-0.671-2.189-1.023-4.768c-0.428-4.277-0.866-8.554-1.316-12.828c-0.227-2.764-1.716-3.935-4.469-3.641
					c-0.139,0.016-0.278,0.029-0.418,0.043c-2.385,0.242-4.164,1.137-5.396,2.756c1.199,13.811,1.479,20.735,0.683,20.781
					c-0.4,0.023-0.801,0.045-1.203,0.064c-0.041,0.002-0.082,0.004-0.121,0.006c-0.641,0.031-1.184-0.27-1.625-0.899
					c-0.159-4.59-0.32-9.18-0.483-13.771c0.029-3.047,0.048-6.096,0.06-9.145c-0.045-0.24-0.09-0.48-0.133-0.723
					c0.158-0.438,0.457-0.667,0.896-0.688c0.439-0.021,0.807,0.443,1.107,1.397C88.643,88.894,90.503,88.219,92.665,88.004z"/>
				<path fill="#FFCF59" d="M121.52,80.961c0.604-0.201,1.295,0.68,2.08,2.648c1.183,3.518,2.362,7.035,3.541,10.555
					c1.262,3.441,2.529,6.881,3.801,10.318c0.111,0.646-0.213,1.102-0.973,1.355c-0.156,0.053-0.313,0.104-0.47,0.156
					c-0.851,0.281-1.478,0.086-1.874-0.578c-0.882,0.961-2.359,1.764-4.425,2.355c-4.986,1.537-8.775,1.498-11.177,0.173
					c-2.416-1.329-3.906-3.36-4.563-6.013c-0.656-2.654-0.54-5.6,0.205-8.833c0.751-3.242,2.75-5.494,6.029-6.945
					c3.281-1.456,5.843-1.944,7.847-1.348c-0.158-0.486-0.315-0.974-0.474-1.46c-0.672-1.305-0.553-2.086,0.353-2.354
					C121.454,80.983,121.486,80.973,121.52,80.961z M110.27,98.555c0.982,4.723,2.721,7.294,5.269,7.613
					c2.536,0.322,4.687,0.152,6.388-0.451c1.704-0.604,3.061-1.617,4.038-3.008c0.07-0.158,0.14-0.317,0.209-0.478
					c-0.278-0.744-0.556-1.487-0.833-2.231c-0.214-0.676-0.428-1.352-0.642-2.025c-1.357-3.624-2.701-7.253-4.029-10.889
					c-1.039-0.633-3.196,0.035-6.642,1.816C110.592,90.67,109.293,93.817,110.27,98.555z"/>
				<path fill="#FFCF59" d="M141.092,77.857c0.204,0.406,0.025,0.778-0.541,1.108c-0.564,0.33-1.447,0.318-2.623-0.055
					c-1.175-0.371-1.941-0.482-2.32-0.311c-0.129,0.061-0.26,0.117-0.39,0.177c-1.938,0.873-2.671,2.312-2.198,4.394
					c0.705,1.67,3.526,3.029,8.715,3.639c3.416,0.609,5.89,2.199,7.303,4.968c1.209,2.354,0.285,4.896-2.946,7.451
					c-0.506,0.294-1.014,0.585-1.522,0.872c-0.418,0.188-0.838,0.374-1.256,0.559c-1.414,0.621-2.873,0.914-4.352,0.875
					c-2.109-0.308-3.385-0.851-3.863-1.563c-0.479-0.716-0.623-1.353-0.44-1.91c0.182-0.558,0.542-0.94,1.086-1.156
					c0.544-0.217,1.422,0.446,2.664,1.976c1.45,0.336,2.907,0.189,4.334-0.44c0.149-0.065,0.299-0.132,0.448-0.198
					c2.738-1.529,3.688-3.15,2.916-4.738c-0.094-0.193-0.187-0.389-0.28-0.582c-0.779-1.617-2.382-2.813-4.734-3.668
					c-4.661-0.701-7.551-1.603-8.853-2.377c-1.301-0.78-2.115-1.987-2.485-3.592c-0.37-1.609,0.735-3.384,3.196-5.441
					c0.428-0.246,0.854-0.494,1.279-0.744c0.097-0.043,0.191-0.088,0.287-0.131c0.702-0.316,1.618-0.502,2.76-0.568
					C139.398,76.491,140.682,76.95,141.092,77.857z"/>
			</g>
		</g>
		<g>
			<g>
				<path fill="#FFFFFF" d="M33.74,43.749c0.071,0.036,0.142,0.071,0.212,0.105c2.944,0.712,4.19,2.436,3.859,5.419
					c-0.07,0.581-0.215,1.135-0.437,1.659c-0.042,0.1-0.084,0.199-0.126,0.298c-0.619,1.467-1.733,2.61-3.394,3.375
					c1.457,1.158,2.441,2.549,2.963,4.223c0.279,1.526-0.059,3.615-1.052,6.264c-0.991,2.648-2.363,4.137-4.154,4.4
					c-1.785,0.268-3.517-0.033-5.134-0.894c-0.678-0.308-1.528-0.993-2.518-2.071c-0.061,0.125-0.345,0.107-0.852-0.055
					c-0.119-0.059-0.237-0.117-0.355-0.176c-0.49-0.242-0.669-0.695-0.535-1.354c1.529-2.949,3.056-5.899,4.581-8.852
					c1.478-2.928,2.961-6.133,4.48-9.602C32.355,44.38,33.176,43.469,33.74,43.749z M33.491,45.881
					c-0.955,2.322-1.898,4.649-2.832,6.981c1.421,0.686,2.977,0.144,4.59-1.617c0.134-0.234,0.269-0.47,0.403-0.705
					c0.087-0.197,0.174-0.395,0.262-0.592c0.618-1.344,0.523-2.346-0.265-3.021C34.86,46.252,34.148,45.901,33.491,45.881z
					 M30.011,54.613c-0.038,0.012-0.076,0.023-0.114,0.035c-0.012,0.024-0.023,0.049-0.035,0.073
					c-1.271,2.775-2.538,5.554-3.801,8.333c-0.271,1.364-0.266,2.112,0.001,2.237c0.318,0.625,0.758,1.066,1.315,1.318
					c0.088,0.04,0.177,0.08,0.265,0.12c2.846,1.776,4.981,0.692,6.317-3.077c1.344-3.787,0.246-6.581-3.154-8.663
					C30.54,54.866,30.275,54.74,30.011,54.613z"/>
				<path fill="#FFFFFF" d="M52.355,50.95c2.501,1.058,3.869,2.819,4.113,5.441c0.238,2.617,0.086,4.768-0.561,6.443
					c-0.527-0.094-1.055-0.189-1.582-0.291c-2.605-0.614-5.192-1.324-7.755-2.131c-0.22-0.064-0.44-0.131-0.661-0.199
					c-0.283-0.059-0.565-0.118-0.849-0.179c-0.019-0.034-0.039-0.068-0.058-0.103c-2.164,4.594-2.951,7.822-2.151,9.727
					c0.789,1.896,1.824,3.02,3.028,3.348c0.092,0.025,0.185,0.05,0.277,0.074c1.726,0.465,3.068,0.217,3.99-0.701
					c0.925-0.92,1.734-1.41,2.45-1.465c0.716-0.057,1.016,0.449,0.909,1.528c-0.385,1.854-2.107,3.011-5.244,3.28
					c-0.854,0.066-1.803-0.036-2.833-0.314c-2.63-0.715-4.434-2.353-5.315-4.797c-0.961-2.23,0.125-6.691,2.998-13.428
					c0.807-2.361,2.277-4.191,4.297-5.576C49.031,50.71,50.654,50.494,52.355,50.95z M45.684,57.774
					c0.16,0.228,2.967,1.286,8.538,2.511c0.03-0.132,0.06-0.264,0.09-0.395c0.141-3.175-0.518-5.273-1.987-6.356
					c-0.243-0.119-0.486-0.24-0.728-0.361c-2.043-0.552-3.737,0.359-5.171,2.801C46.179,56.574,45.932,57.175,45.684,57.774z"/>
				<path fill="#FFFFFF" d="M71.113,57.927c-0.031,0.454-0.29,0.688-0.776,0.696c-0.486,0.01-1.037-0.434-1.625-1.331
					c-0.588-0.896-1.023-1.364-1.33-1.397c-0.105-0.012-0.209-0.022-0.314-0.034c-1.563-0.174-2.611,0.737-3.171,2.782
					c-0.244,1.8,0.979,4.32,4.054,7.383c1.938,2.201,2.898,4.813,2.704,7.913c-0.162,2.644-1.786,4.379-4.969,5.024
					c-0.454,0.008-0.909,0.014-1.364,0.017c-0.353-0.039-0.707-0.08-1.06-0.123c-1.19-0.144-2.274-0.589-3.231-1.33
					c-1.257-1.276-1.861-2.354-1.869-3.206c-0.007-0.854,0.172-1.479,0.53-1.879c0.357-0.4,0.755-0.566,1.202-0.496
					c0.446,0.069,0.736,1.067,0.901,2.996c0.807,0.988,1.825,1.563,3.022,1.702c0.125,0.017,0.251,0.03,0.377,0.044
					c2.431-0.003,3.711-0.939,3.856-2.699c0.018-0.216,0.037-0.431,0.055-0.646c0.153-1.787-0.399-3.614-1.562-5.506
					c-2.71-2.877-4.176-5.03-4.681-6.326c-0.501-1.3-0.509-2.739-0.073-4.318c0.438-1.582,1.875-2.622,4.24-3.242
					c0.366-0.01,0.732-0.021,1.097-0.035c0.077,0.009,0.154,0.018,0.23,0.026c0.564,0.062,1.208,0.344,1.945,0.843
					C70.588,55.901,71.212,56.937,71.113,57.927z"/>
				<path fill="#FFFFFF" d="M79.154,53.836c0.561,0.138,0.875,0.626,0.941,1.472c0.079,0.229,0.133,0.687,0.16,1.372
					c0.094-0.002,0.188-0.004,0.282-0.006c0.244-0.006,0.489-0.012,0.733-0.019c1.039,0.012,2.078,0.009,3.119-0.011
					c0.262-0.016,0.502,0.351,0.729,1.1c0.021,0.33-0.167,0.556-0.567,0.672c-0.062-0.011-0.124-0.022-0.186-0.034
					c-1.317,0.053-2.634,0.081-3.951,0.085c0.013,0.604,0.024,1.208,0.037,1.812c0.022,0.509,0.044,1.017,0.067,1.522
					c-0.459,9.141-0.188,14.173,1.094,15.072c0.746,0.65,1.388,0.963,1.904,0.939c0.104-0.004,0.209-0.009,0.313-0.014
					c1.168-0.314,1.732-0.703,1.707-1.141c-0.061-0.178-0.12-0.354-0.18-0.533c0-0.016-0.002-0.031-0.002-0.047
					c-0.043-0.729,0.188-1.109,0.693-1.142c0.084-0.005,0.168-0.011,0.252-0.017c0.863,0.137,1.317,0.449,1.356,0.957
					c0.046,0.193,0.093,0.388,0.139,0.58c0.093,1.172-0.717,2.164-2.474,2.92c-0.387,0.16-0.84,0.252-1.354,0.275
					c-0.175,0.008-0.349,0.016-0.524,0.021c-1.74,0.072-3.426-1.09-4.924-3.475c-0.513-1.154-0.753-2.804-0.744-4.943
					c0.005-1.293,0.109-4.411,0.279-9.354c0.019-1.182,0.037-2.363,0.055-3.545c-1.07-0.002-2.14-0.021-3.209-0.056
					c-0.176-0.006-0.259-0.15-0.249-0.436c-0.038-0.826,0.273-1.225,0.934-1.207c0.824,0.014,1.647,0.018,2.471,0.012
					c0.034-0.08,0.068-0.161,0.102-0.241c-0.003-0.543-0.006-1.086-0.009-1.629C78.264,54.019,78.596,53.698,79.154,53.836z"/>
			</g>
			<g>
				<path fill="#FFFFFF" d="M28.243,77.299c1.922,0.996,2.775,2.668,2.577,5.095c-0.199,2.425-0.767,3.468-1.75,3.103
					c-0.137-0.053-0.273-0.104-0.41-0.154c-0.696-0.264-0.711-1.342-0.046-3.223c-0.199-1.695-1.16-2.906-2.9-3.693
					c-1.742-0.787-3.121-0.82-4.18-0.059c-0.646,0.551-1.172,1.258-1.573,2.125c-0.182,0.479-0.363,0.959-0.544,1.439
					c1.309,0.552,2.623,1.083,3.942,1.593c1.151,0.488,1.588,1.069,1.303,1.771c-0.22,0.543-1.871,0.211-4.899-1.164
					c-0.307-0.137-0.613-0.276-0.919-0.416c-0.068,0.146-0.135,0.293-0.203,0.439c-2,4.487-3.994,8.977-5.983,13.469
					c-0.191,0.42-0.818,0.492-1.878,0.197c-0.076-0.035-0.151-0.07-0.227-0.105c-1.058-0.5-1.347-1.243-0.875-2.213
					c0.443-1.103,0.888-2.203,1.334-3.305c1.654-3.25,3.304-6.502,4.95-9.755c-0.417-0.173-0.833-0.348-1.249-0.524
					c-0.808-0.401-1.125-0.776-0.954-1.112c0.313-0.915,1.266-0.901,2.88-0.011c0.059-0.121,0.118-0.242,0.177-0.363
					c0.108-0.307,0.217-0.613,0.326-0.92c1.415-2.653,3.148-3.903,5.185-3.823C24.368,75.766,26.319,76.301,28.243,77.299z"/>
				<path fill="#FFFFFF" d="M42.205,82.282c0.1,0.027,0.199,0.057,0.298,0.084c2.14,0.596,3.344,1.971,3.654,4.209
					c-0.018,0.522-0.035,1.047-0.051,1.568c-0.099,0.412-0.613,0.566-1.545,0.453c-0.905-0.229-1.198-0.947-0.883-2.146
					c-0.196-0.975-0.937-1.644-2.229-2.037c-1.293-0.395-2.444-0.148-3.486,0.746c-0.215,0.526-0.431,1.053-0.647,1.578
					c-2.258,8.148-3.909,14.042-5.017,17.655c-0.536,0.963-1.328,1.284-2.36,0.956c-0.987-0.316-1.419-1.115-1.292-2.379
					c0.734-1.942,1.465-3.887,2.193-5.83c1.193-3.721,2.389-7.441,3.588-11.16c0.111-0.219,0.222-0.438,0.333-0.656
					c0.313-1.173,0.629-2.346,0.946-3.519c0.305-0.41,0.546-0.585,0.726-0.526c0.099,0.033,0.198,0.064,0.297,0.098
					c0.539,0.176,0.795,0.625,0.773,1.354C39.101,81.993,40.65,81.844,42.205,82.282z"/>
				<path fill="#FFFFFF" d="M54.047,84.652c0.134,0.024,0.269,0.05,0.403,0.074c1.789,0.474,2.613,1.169,2.458,2.146
					c-0.021,0.133-0.043,0.266-0.064,0.397c-0.651,1.369-1.644,1.946-2.955,1.709c-0.208-0.037-0.417-0.075-0.625-0.114
					c-1.413-0.521-2.022-1.229-1.847-2.087c0.011-0.054,0.021-0.106,0.032-0.159c0.168-0.83,0.863-1.457,2.063-1.902
					C53.529,84.625,53.707,84.605,54.047,84.652z M54.952,91.288c0.2-0.146-0.577,5.186-2.305,15.996
					c-0.027,0.158-0.054,0.318-0.08,0.479c-0.067,0.645-0.134,1.289-0.2,1.936c-0.459,0.633-1.284,0.85-2.469,0.635
					c-1.128-0.205-1.582-0.871-1.366-1.981c0.041-0.212,0.082-0.425,0.123-0.636c2.153-11.26,3.384-16.859,3.682-16.803
					C52.619,90.581,53.483,90.717,54.952,91.288z M53.517,86.362c-0.059,0.126-0.118,0.252-0.178,0.379
					c-0.036,0.188,0.106,0.379,0.425,0.571c0.511-0.069,0.797-0.294,0.863-0.664c-0.307-0.056-0.614-0.11-0.92-0.168
					c-0.029-0.032-0.059-0.065-0.088-0.099C53.585,86.375,53.551,86.37,53.517,86.362z"/>
				<path fill="#FFFFFF" d="M70.989,87.273c3.527,0.567,5.783,2.013,6.8,4.53c1.012,2.513,1.381,4.646,1.006,6.421
					c-0.692,0.019-1.384,0.03-2.076,0.039c-3.455-0.076-6.906-0.277-10.347-0.603c-0.294-0.023-0.589-0.05-0.884-0.076
					c-0.371-0.006-0.742-0.014-1.113-0.022c-0.034-0.03-0.068-0.06-0.103-0.09c-1.363,4.921-1.394,8.251,0.122,9.981
					c1.504,1.725,3.08,2.635,4.648,2.728c0.12,0.007,0.24,0.014,0.36,0.021c2.246,0.127,3.831-0.382,4.726-1.466
					c0.898-1.085,1.773-1.728,2.647-1.926c0.875-0.199,1.381,0.233,1.528,1.313c0.004,1.894-1.83,3.381-5.604,4.266
					c-1.031,0.232-2.22,0.316-3.556,0.238c-3.41-0.197-6.057-1.481-7.831-3.736c-1.806-2.03-1.79-6.637-0.215-13.801
					c0.304-2.479,1.595-4.541,3.754-6.266C66.646,87.65,68.667,87.146,70.989,87.273z M64.493,95.219
					c0.27,0.189,4.092,0.762,11.484,0.852c0.002-0.135,0.004-0.27,0.007-0.404c-0.68-3.139-2.105-5.063-4.297-5.847
					c-0.346-0.071-0.69-0.144-1.035-0.217c-2.775-0.159-4.667,1.04-5.756,3.707C64.763,93.946,64.629,94.583,64.493,95.219z"/>
				<path fill="#FFFFFF" d="M91.482,86.823c0.002,0.026,0.004,0.053,0.008,0.08c0.031-0.029,0.063-0.061,0.095-0.092
					c2.511-0.251,4.64,0.279,6.476,1.645c1,1.051,1.664,2.5,1.957,4.363c0.232,1.491,0.465,2.98,0.699,4.473
					c0.689,4.022,1.383,8.045,2.081,12.064c-0.176,0.956-0.793,1.518-1.843,1.669c-0.783,0.112-1.344-0.135-1.676-0.735
					c-0.332-0.6-0.67-2.189-1.022-4.768c-0.428-4.277-0.866-8.553-1.317-12.827c-0.226-2.764-1.715-3.935-4.469-3.641
					c-0.139,0.015-0.277,0.028-0.416,0.043c-2.387,0.241-4.164,1.137-5.396,2.755c1.199,13.811,1.479,20.736,0.683,20.781
					c-0.401,0.023-0.802,0.045-1.204,0.064c-0.039,0.002-0.08,0.004-0.121,0.006c-0.64,0.031-1.184-0.27-1.625-0.898
					c-0.158-4.59-0.32-9.18-0.482-13.77c0.029-3.049,0.048-6.098,0.059-9.146c-0.045-0.24-0.089-0.481-0.133-0.724
					c0.159-0.438,0.458-0.666,0.896-0.688c0.44-0.021,0.808,0.443,1.108,1.398C87.459,87.711,89.32,87.036,91.482,86.823z"/>
				<path fill="#FFFFFF" d="M120.336,79.779c0.605-0.202,1.296,0.679,2.08,2.647c1.184,3.519,2.363,7.035,3.542,10.556
					c1.263,3.44,2.528,6.881,3.801,10.317c0.111,0.646-0.213,1.102-0.973,1.355c-0.157,0.053-0.313,0.104-0.47,0.157
					c-0.852,0.28-1.479,0.086-1.875-0.579c-0.881,0.961-2.359,1.764-4.424,2.355c-4.986,1.537-8.775,1.498-11.178,0.174
					c-2.415-1.33-3.906-3.361-4.563-6.014c-0.656-2.654-0.539-5.599,0.205-8.832c0.752-3.242,2.75-5.494,6.031-6.945
					c3.28-1.456,5.842-1.945,7.846-1.348c-0.158-0.486-0.316-0.974-0.475-1.461c-0.672-1.304-0.552-2.084,0.354-2.354
					C120.271,79.801,120.305,79.79,120.336,79.779z M109.086,97.372c0.982,4.723,2.721,7.295,5.27,7.614
					c2.535,0.321,4.687,0.152,6.388-0.45c1.704-0.605,3.06-1.619,4.038-3.009c0.07-0.159,0.14-0.317,0.209-0.478
					c-0.278-0.744-0.557-1.488-0.833-2.232c-0.214-0.675-0.429-1.352-0.642-2.025c-1.357-3.623-2.701-7.252-4.029-10.888
					c-1.039-0.633-3.197,0.034-6.643,1.815C109.41,89.487,108.111,92.635,109.086,97.372z"/>
				<path fill="#FFFFFF" d="M139.91,76.674c0.203,0.406,0.025,0.779-0.541,1.109c-0.564,0.33-1.448,0.317-2.623-0.055
					c-1.176-0.372-1.941-0.482-2.321-0.311c-0.129,0.06-0.259,0.117-0.389,0.177c-1.938,0.872-2.671,2.312-2.199,4.394
					c0.705,1.67,3.526,3.029,8.715,3.639c3.416,0.608,5.89,2.199,7.304,4.968c1.209,2.354,0.285,4.896-2.946,7.45
					c-0.507,0.295-1.015,0.586-1.523,0.873c-0.418,0.188-0.837,0.373-1.256,0.559c-1.414,0.621-2.872,0.913-4.351,0.875
					c-2.109-0.309-3.385-0.852-3.864-1.564c-0.479-0.715-0.623-1.352-0.44-1.91c0.183-0.557,0.543-0.939,1.086-1.155
					c0.545-0.218,1.422,0.446,2.664,1.976c1.451,0.336,2.907,0.189,4.334-0.441c0.149-0.064,0.299-0.131,0.449-0.198
					c2.738-1.529,3.688-3.149,2.916-4.738c-0.094-0.192-0.188-0.388-0.281-0.582c-0.779-1.616-2.381-2.812-4.733-3.668
					c-4.662-0.7-7.552-1.603-8.853-2.376c-1.302-0.781-2.115-1.988-2.486-3.592c-0.369-1.609,0.736-3.385,3.197-5.441
					c0.428-0.246,0.854-0.494,1.279-0.744c0.096-0.043,0.191-0.088,0.287-0.131c0.702-0.316,1.618-0.502,2.759-0.568
					C138.215,75.308,139.5,75.768,139.91,76.674z"/>
			</g>
		</g>
		<g>
			<g>
				<path fill="#E39709" d="M32.558,42.566c0.071,0.036,0.142,0.071,0.212,0.105c2.944,0.712,4.19,2.436,3.859,5.419
					c-0.07,0.581-0.215,1.135-0.437,1.659c-0.042,0.1-0.084,0.199-0.126,0.298c-0.619,1.467-1.733,2.61-3.394,3.375
					c1.457,1.158,2.441,2.549,2.963,4.223c0.279,1.526-0.059,3.615-1.052,6.264c-0.991,2.648-2.363,4.137-4.154,4.401
					c-1.785,0.267-3.517-0.034-5.134-0.894c-0.678-0.308-1.528-0.994-2.518-2.072c-0.061,0.125-0.345,0.109-0.852-0.055
					c-0.119-0.059-0.237-0.117-0.355-0.176c-0.49-0.242-0.669-0.695-0.535-1.354c1.529-2.948,3.056-5.898,4.581-8.851
					c1.478-2.928,2.961-6.133,4.48-9.602C31.173,43.197,31.993,42.286,32.558,42.566z M32.309,44.698
					c-0.955,2.322-1.898,4.649-2.832,6.981c1.421,0.686,2.977,0.144,4.59-1.617c0.134-0.234,0.269-0.47,0.403-0.705
					c0.087-0.197,0.174-0.395,0.262-0.592c0.618-1.344,0.523-2.346-0.265-3.021C33.678,45.069,32.965,44.719,32.309,44.698z
					 M28.828,53.431c-0.038,0.012-0.076,0.023-0.114,0.035c-0.012,0.024-0.023,0.049-0.035,0.073
					c-1.271,2.775-2.538,5.554-3.801,8.333c-0.271,1.365-0.266,2.112,0.001,2.238c0.318,0.625,0.758,1.066,1.315,1.318
					c0.088,0.039,0.177,0.08,0.265,0.119c2.846,1.777,4.981,0.693,6.317-3.076c1.344-3.787,0.246-6.581-3.154-8.663
					C29.357,53.684,29.093,53.558,28.828,53.431z"/>
				<path fill="#E39709" d="M51.173,49.768c2.501,1.058,3.869,2.819,4.113,5.441c0.238,2.617,0.086,4.768-0.561,6.443
					c-0.527-0.093-1.055-0.188-1.582-0.29c-2.605-0.615-5.192-1.325-7.755-2.131c-0.22-0.065-0.44-0.132-0.661-0.199
					c-0.283-0.059-0.565-0.118-0.849-0.179c-0.019-0.034-0.039-0.068-0.058-0.103c-2.164,4.594-2.951,7.823-2.151,9.726
					c0.789,1.897,1.824,3.021,3.028,3.349c0.092,0.024,0.185,0.049,0.277,0.074c1.726,0.465,3.068,0.217,3.99-0.701
					c0.925-0.921,1.734-1.41,2.45-1.466s1.016,0.45,0.909,1.528c-0.385,1.855-2.107,3.011-5.244,3.281
					c-0.854,0.065-1.803-0.037-2.833-0.315c-2.63-0.714-4.434-2.353-5.315-4.796c-0.961-2.23,0.125-6.691,2.998-13.428
					c0.807-2.361,2.277-4.191,4.297-5.576C47.849,49.527,49.471,49.312,51.173,49.768z M44.501,56.592
					c0.16,0.228,2.967,1.286,8.538,2.511c0.03-0.132,0.06-0.264,0.09-0.395c0.141-3.175-0.518-5.273-1.987-6.356
					c-0.243-0.119-0.486-0.24-0.728-0.361c-2.043-0.552-3.737,0.359-5.171,2.801C44.996,55.392,44.749,55.992,44.501,56.592z"/>
				<path fill="#E39709" d="M69.931,56.744c-0.031,0.454-0.29,0.688-0.776,0.696c-0.486,0.01-1.037-0.434-1.625-1.331
					c-0.588-0.896-1.023-1.364-1.33-1.397c-0.105-0.012-0.209-0.022-0.314-0.034c-1.563-0.174-2.611,0.737-3.171,2.782
					c-0.244,1.8,0.979,4.32,4.054,7.382c1.938,2.201,2.898,4.814,2.704,7.914c-0.162,2.644-1.786,4.379-4.969,5.023
					c-0.454,0.008-0.909,0.014-1.364,0.018c-0.353-0.039-0.707-0.08-1.06-0.123c-1.19-0.145-2.274-0.59-3.231-1.33
					c-1.257-1.277-1.861-2.354-1.869-3.206c-0.007-0.853,0.172-1.478,0.53-1.88c0.357-0.4,0.755-0.565,1.202-0.495
					c0.446,0.069,0.736,1.067,0.901,2.995c0.807,0.988,1.825,1.563,3.022,1.703c0.125,0.016,0.251,0.029,0.377,0.043
					c2.431-0.002,3.711-0.939,3.856-2.699c0.018-0.215,0.037-0.43,0.055-0.645c0.153-1.789-0.399-3.615-1.562-5.508
					c-2.71-2.877-4.176-5.029-4.681-6.325c-0.501-1.301-0.509-2.74-0.073-4.319c0.438-1.582,1.875-2.622,4.24-3.242
					c0.366-0.01,0.732-0.021,1.097-0.035c0.077,0.009,0.154,0.018,0.23,0.026c0.564,0.062,1.208,0.344,1.945,0.843
					C69.405,54.719,70.03,55.754,69.931,56.744z"/>
				<path fill="#E39709" d="M77.972,52.653c0.561,0.138,0.875,0.626,0.942,1.472c0.079,0.229,0.132,0.687,0.16,1.372
					c0.094-0.002,0.188-0.004,0.281-0.006c0.244-0.006,0.49-0.012,0.733-0.019c1.039,0.012,2.079,0.009,3.119-0.011
					c0.263-0.016,0.503,0.351,0.729,1.1c0.021,0.33-0.168,0.556-0.567,0.672c-0.062-0.011-0.124-0.022-0.187-0.034
					c-1.316,0.053-2.634,0.081-3.951,0.085c0.013,0.604,0.024,1.208,0.037,1.812c0.022,0.508,0.045,1.016,0.067,1.523
					c-0.458,9.139-0.187,14.172,1.095,15.071c0.746,0.649,1.387,0.962,1.904,0.938c0.104-0.004,0.208-0.008,0.313-0.012
					c1.168-0.316,1.732-0.705,1.707-1.142c-0.061-0.179-0.121-0.354-0.18-0.534c-0.001-0.016-0.002-0.029-0.003-0.046
					c-0.042-0.729,0.188-1.108,0.694-1.142c0.084-0.006,0.168-0.012,0.252-0.018c0.863,0.137,1.316,0.45,1.355,0.958
					c0.047,0.193,0.094,0.388,0.14,0.58c0.092,1.173-0.718,2.163-2.474,2.919c-0.388,0.16-0.84,0.254-1.354,0.276
					c-0.175,0.008-0.349,0.016-0.524,0.022c-1.74,0.07-3.427-1.092-4.925-3.476c-0.512-1.155-0.753-2.804-0.743-4.944
					c0.005-1.293,0.109-4.41,0.279-9.354c0.019-1.182,0.037-2.363,0.055-3.545c-1.07-0.002-2.14-0.021-3.209-0.056
					c-0.176-0.006-0.259-0.15-0.249-0.436c-0.038-0.826,0.273-1.225,0.934-1.207c0.824,0.014,1.647,0.018,2.471,0.012
					c0.034-0.08,0.068-0.161,0.102-0.241c-0.003-0.543-0.006-1.086-0.009-1.629C77.08,52.836,77.413,52.516,77.972,52.653z"/>
			</g>
			<g>
				<path fill="#E39709" d="M27.061,76.118c1.922,0.995,2.775,2.666,2.577,5.094c-0.199,2.424-0.767,3.468-1.75,3.102
					c-0.137-0.053-0.273-0.104-0.41-0.154c-0.696-0.264-0.711-1.341-0.046-3.222c-0.199-1.696-1.16-2.907-2.9-3.692
					c-1.742-0.789-3.121-0.822-4.18-0.061c-0.646,0.551-1.172,1.258-1.573,2.125c-0.182,0.479-0.363,0.96-0.544,1.439
					c1.309,0.553,2.623,1.084,3.942,1.594c1.151,0.488,1.588,1.068,1.303,1.77c-0.22,0.543-1.871,0.211-4.899-1.162
					c-0.307-0.139-0.613-0.277-0.919-0.418c-0.068,0.146-0.135,0.295-0.203,0.44c-2,4.487-3.994,8.978-5.983,13.469
					c-0.191,0.419-0.818,0.491-1.878,0.197c-0.076-0.035-0.151-0.071-0.227-0.106c-1.058-0.5-1.347-1.242-0.875-2.212
					c0.443-1.103,0.888-2.204,1.334-3.306c1.654-3.249,3.304-6.501,4.95-9.754c-0.417-0.174-0.833-0.348-1.249-0.524
					c-0.808-0.401-1.125-0.776-0.954-1.112c0.313-0.916,1.266-0.901,2.88-0.012c0.059-0.121,0.118-0.242,0.177-0.363
					c0.108-0.307,0.217-0.613,0.326-0.92c1.415-2.652,3.148-3.902,5.185-3.822C23.185,74.583,25.136,75.12,27.061,76.118z"/>
				<path fill="#E39709" d="M41.022,81.1c0.1,0.027,0.199,0.057,0.298,0.083c2.14,0.596,3.344,1.972,3.654,4.21
					c-0.018,0.521-0.035,1.046-0.051,1.568c-0.099,0.412-0.613,0.566-1.545,0.453c-0.905-0.229-1.198-0.947-0.883-2.146
					c-0.196-0.975-0.937-1.645-2.229-2.037c-1.293-0.395-2.444-0.148-3.486,0.746c-0.215,0.525-0.431,1.053-0.647,1.578
					c-2.258,8.148-3.909,14.042-5.017,17.654c-0.536,0.963-1.328,1.285-2.36,0.957c-0.987-0.316-1.419-1.115-1.292-2.379
					c0.734-1.942,1.465-3.887,2.193-5.83c1.193-3.722,2.389-7.441,3.588-11.16c0.111-0.219,0.222-0.438,0.333-0.656
					c0.313-1.174,0.629-2.346,0.946-3.52c0.305-0.41,0.546-0.584,0.726-0.525c0.099,0.033,0.198,0.064,0.297,0.098
					c0.539,0.176,0.795,0.625,0.773,1.354C37.918,80.811,39.468,80.661,41.022,81.1z"/>
				<path fill="#E39709" d="M52.864,83.469c0.134,0.025,0.269,0.051,0.403,0.074c1.789,0.475,2.613,1.17,2.458,2.146
					c-0.021,0.134-0.043,0.267-0.064,0.397c-0.651,1.369-1.644,1.947-2.955,1.709c-0.208-0.037-0.417-0.074-0.625-0.113
					c-1.413-0.521-2.022-1.229-1.847-2.088c0.011-0.053,0.021-0.105,0.032-0.158c0.168-0.83,0.863-1.457,2.063-1.902
					C52.347,83.442,52.524,83.422,52.864,83.469z M53.77,90.104c0.2-0.145-0.577,5.186-2.305,15.996
					c-0.027,0.158-0.054,0.318-0.08,0.479c-0.067,0.646-0.134,1.289-0.2,1.936c-0.459,0.633-1.284,0.852-2.469,0.636
					c-1.128-0.205-1.582-0.872-1.366-1.981c0.041-0.213,0.082-0.424,0.123-0.637c2.153-11.259,3.384-16.859,3.682-16.803
					C51.436,89.397,52.301,89.534,53.77,90.104z M52.334,85.18c-0.059,0.126-0.118,0.252-0.178,0.378
					c-0.036,0.188,0.106,0.38,0.425,0.571c0.511-0.069,0.797-0.293,0.863-0.664c-0.307-0.055-0.614-0.11-0.92-0.168
					c-0.029-0.032-0.059-0.065-0.088-0.098C52.402,85.192,52.369,85.187,52.334,85.18z"/>
				<path fill="#E39709" d="M69.807,86.09c3.527,0.568,5.783,2.014,6.8,4.531c1.012,2.512,1.381,4.646,1.006,6.42
					c-0.692,0.019-1.384,0.031-2.076,0.039c-3.455-0.076-6.906-0.276-10.347-0.602c-0.294-0.023-0.589-0.05-0.884-0.076
					c-0.371-0.006-0.742-0.014-1.113-0.023c-0.034-0.029-0.068-0.06-0.103-0.09c-1.363,4.922-1.394,8.252,0.122,9.981
					c1.504,1.726,3.08,2.636,4.648,2.728c0.12,0.008,0.24,0.015,0.36,0.021c2.246,0.127,3.831-0.382,4.726-1.466
					c0.898-1.085,1.773-1.728,2.647-1.927c0.875-0.198,1.381,0.233,1.528,1.313c0.004,1.894-1.83,3.382-5.605,4.267
					c-1.031,0.232-2.22,0.315-3.556,0.238c-3.41-0.197-6.057-1.482-7.831-3.736c-1.806-2.03-1.79-6.637-0.215-13.801
					c0.304-2.479,1.595-4.541,3.754-6.266C65.463,86.467,67.484,85.963,69.807,86.09z M63.311,94.038
					c0.27,0.188,4.092,0.76,11.484,0.851c0.002-0.136,0.004-0.271,0.007-0.404c-0.68-3.14-2.105-5.063-4.297-5.847
					c-0.346-0.071-0.69-0.145-1.035-0.217c-2.775-0.16-4.667,1.039-5.756,3.707C63.581,92.764,63.446,93.4,63.311,94.038z"/>
				<path fill="#E39709" d="M90.3,85.64c0.002,0.026,0.005,0.054,0.009,0.081c0.031-0.03,0.063-0.061,0.094-0.092
					c2.511-0.252,4.64,0.279,6.476,1.644c1.001,1.052,1.664,2.501,1.957,4.364c0.233,1.49,0.466,2.98,0.7,4.473
					c0.689,4.021,1.382,8.044,2.081,12.064c-0.177,0.955-0.793,1.517-1.843,1.668c-0.783,0.113-1.344-0.135-1.676-0.734
					s-0.671-2.189-1.022-4.768c-0.429-4.277-0.867-8.553-1.317-12.827c-0.226-2.765-1.716-3.935-4.469-3.642
					c-0.139,0.016-0.277,0.029-0.417,0.043c-2.386,0.242-4.164,1.137-5.396,2.756c1.198,13.811,1.479,20.736,0.683,20.781
					c-0.401,0.023-0.802,0.045-1.204,0.064c-0.04,0.002-0.081,0.004-0.121,0.006c-0.641,0.031-1.184-0.27-1.625-0.898
					c-0.159-4.59-0.32-9.181-0.482-13.771c0.028-3.048,0.047-6.097,0.059-9.146c-0.045-0.24-0.09-0.48-0.133-0.723
					c0.158-0.438,0.457-0.667,0.896-0.688c0.439-0.021,0.807,0.443,1.108,1.397C86.275,86.528,88.139,85.854,90.3,85.64z"/>
				<path fill="#E39709" d="M119.154,78.597c0.604-0.202,1.296,0.679,2.08,2.647c1.183,3.519,2.363,7.035,3.541,10.555
					c1.263,3.441,2.529,6.882,3.802,10.318c0.11,0.646-0.214,1.102-0.974,1.355c-0.156,0.053-0.313,0.104-0.47,0.156
					c-0.851,0.281-1.478,0.086-1.874-0.578c-0.882,0.961-2.359,1.764-4.425,2.355c-4.985,1.537-8.774,1.498-11.177,0.174
					c-2.415-1.33-3.906-3.361-4.563-6.014c-0.656-2.654-0.539-5.6,0.205-8.833c0.751-3.241,2.75-5.493,6.03-6.944
					c3.28-1.457,5.842-1.945,7.846-1.349c-0.157-0.485-0.315-0.974-0.474-1.46c-0.672-1.305-0.553-2.085,0.354-2.354
					C119.089,78.618,119.121,78.607,119.154,78.597z M107.904,96.189c0.982,4.724,2.721,7.294,5.269,7.614
					c2.536,0.32,4.687,0.152,6.388-0.451c1.705-0.605,3.061-1.618,4.039-3.008c0.069-0.159,0.139-0.318,0.209-0.479
					c-0.279-0.744-0.557-1.488-0.834-2.232c-0.213-0.674-0.428-1.35-0.642-2.024c-1.356-3.624-2.701-7.253-4.028-10.888
					c-1.039-0.633-3.197,0.033-6.643,1.816C108.227,88.305,106.928,91.452,107.904,96.189z"/>
				<path fill="#E39709" d="M138.727,75.493c0.205,0.405,0.025,0.777-0.541,1.107c-0.564,0.331-1.447,0.318-2.623-0.055
					c-1.174-0.371-1.941-0.482-2.32-0.311c-0.129,0.061-0.26,0.118-0.389,0.178c-1.939,0.873-2.672,2.311-2.199,4.394
					c0.705,1.67,3.527,3.028,8.715,3.638c3.416,0.609,5.89,2.2,7.303,4.969c1.209,2.354,0.285,4.895-2.945,7.451
					c-0.506,0.293-1.015,0.584-1.523,0.871c-0.418,0.188-0.837,0.374-1.256,0.559c-1.414,0.621-2.872,0.914-4.352,0.875
					c-2.109-0.308-3.385-0.851-3.863-1.563c-0.479-0.715-0.623-1.353-0.44-1.91c0.183-0.557,0.542-0.94,1.086-1.155
					c0.544-0.217,1.422,0.445,2.664,1.975c1.451,0.337,2.907,0.189,4.334-0.439c0.149-0.066,0.299-0.133,0.449-0.199
					c2.737-1.529,3.687-3.15,2.916-4.738c-0.095-0.193-0.187-0.389-0.281-0.582c-0.778-1.617-2.381-2.813-4.733-3.668
					c-4.662-0.701-7.552-1.602-8.854-2.377c-1.301-0.78-2.115-1.987-2.484-3.592c-0.371-1.608,0.735-3.383,3.195-5.441
					c0.428-0.246,0.854-0.494,1.279-0.744c0.097-0.043,0.191-0.087,0.287-0.13c0.703-0.317,1.619-0.502,2.76-0.569
					C137.033,74.125,138.316,74.584,138.727,75.493z"/>
			</g>
		</g>
		<g>
			<g>
				<path fill="#FBA70E" d="M32.558,42.566c0.071,0.036,0.142,0.071,0.212,0.105c2.944,0.712,4.19,2.436,3.859,5.419
					c-0.07,0.581-0.215,1.135-0.437,1.659c-0.042,0.1-0.084,0.199-0.126,0.298c-0.619,1.467-1.733,2.61-3.394,3.375
					c1.457,1.158,2.441,2.549,2.963,4.223c0.279,1.526-0.059,3.615-1.052,6.264c-0.991,2.648-2.363,4.137-4.154,4.401
					c-1.785,0.267-3.517-0.034-5.134-0.894c-0.678-0.308-1.528-0.994-2.518-2.072c-0.061,0.125-0.345,0.109-0.852-0.055
					c-0.119-0.059-0.237-0.117-0.355-0.176c-0.49-0.242-0.669-0.695-0.535-1.354c1.529-2.948,3.056-5.898,4.581-8.851
					c1.478-2.928,2.961-6.133,4.48-9.602C31.173,43.197,31.993,42.286,32.558,42.566z M32.309,44.698
					c-0.955,2.322-1.898,4.649-2.832,6.981c1.421,0.686,2.977,0.144,4.59-1.617c0.134-0.234,0.269-0.47,0.403-0.705
					c0.087-0.197,0.174-0.395,0.262-0.592c0.618-1.344,0.523-2.346-0.265-3.021C33.678,45.069,32.965,44.719,32.309,44.698z
					 M28.828,53.431c-0.038,0.012-0.076,0.023-0.114,0.035c-0.012,0.024-0.023,0.049-0.035,0.073
					c-1.271,2.775-2.538,5.554-3.801,8.333c-0.271,1.365-0.266,2.112,0.001,2.238c0.318,0.625,0.758,1.066,1.315,1.318
					c0.088,0.039,0.177,0.08,0.265,0.119c2.846,1.777,4.981,0.693,6.317-3.076c1.344-3.787,0.246-6.581-3.154-8.663
					C29.357,53.684,29.093,53.558,28.828,53.431z"/>
				<path fill="#FBA70E" d="M51.173,49.768c2.501,1.058,3.869,2.819,4.113,5.441c0.238,2.617,0.086,4.768-0.561,6.443
					c-0.527-0.093-1.055-0.188-1.582-0.29c-2.605-0.615-5.192-1.325-7.755-2.131c-0.22-0.065-0.44-0.132-0.661-0.199
					c-0.283-0.059-0.565-0.118-0.849-0.179c-0.019-0.034-0.039-0.068-0.058-0.103c-2.164,4.594-2.951,7.823-2.151,9.726
					c0.789,1.897,1.824,3.021,3.028,3.349c0.092,0.024,0.185,0.049,0.277,0.074c1.726,0.465,3.068,0.217,3.99-0.701
					c0.925-0.921,1.734-1.41,2.45-1.466s1.016,0.45,0.909,1.528c-0.385,1.855-2.107,3.011-5.244,3.281
					c-0.854,0.065-1.803-0.037-2.833-0.315c-2.63-0.714-4.434-2.353-5.315-4.796c-0.961-2.23,0.125-6.691,2.998-13.428
					c0.807-2.361,2.277-4.191,4.297-5.576C47.849,49.527,49.471,49.312,51.173,49.768z M44.501,56.592
					c0.16,0.228,2.967,1.286,8.538,2.511c0.03-0.132,0.06-0.264,0.09-0.395c0.141-3.175-0.518-5.273-1.987-6.356
					c-0.243-0.119-0.486-0.24-0.728-0.361c-2.043-0.552-3.737,0.359-5.171,2.801C44.996,55.392,44.749,55.992,44.501,56.592z"/>
				<path fill="#FBA70E" d="M69.931,56.744c-0.031,0.454-0.29,0.688-0.776,0.696c-0.486,0.01-1.037-0.434-1.625-1.331
					c-0.588-0.896-1.023-1.364-1.33-1.397c-0.105-0.012-0.209-0.022-0.314-0.034c-1.563-0.174-2.611,0.737-3.171,2.782
					c-0.244,1.8,0.979,4.32,4.054,7.382c1.938,2.201,2.898,4.814,2.704,7.914c-0.162,2.644-1.786,4.379-4.969,5.023
					c-0.454,0.008-0.909,0.014-1.364,0.018c-0.353-0.039-0.707-0.08-1.06-0.123c-1.19-0.145-2.274-0.59-3.231-1.33
					c-1.257-1.277-1.861-2.354-1.869-3.206c-0.007-0.853,0.172-1.478,0.53-1.88c0.357-0.4,0.755-0.565,1.202-0.495
					c0.446,0.069,0.736,1.067,0.901,2.995c0.807,0.988,1.825,1.563,3.022,1.703c0.125,0.016,0.251,0.029,0.377,0.043
					c2.431-0.002,3.711-0.939,3.856-2.699c0.018-0.215,0.037-0.43,0.055-0.645c0.153-1.789-0.399-3.615-1.562-5.508
					c-2.71-2.877-4.176-5.029-4.681-6.325c-0.501-1.301-0.509-2.74-0.073-4.319c0.438-1.582,1.875-2.622,4.24-3.242
					c0.366-0.01,0.732-0.021,1.097-0.035c0.077,0.009,0.154,0.018,0.23,0.026c0.564,0.062,1.208,0.344,1.945,0.843
					C69.405,54.719,70.03,55.754,69.931,56.744z"/>
				<path fill="#FBA70E" d="M77.972,52.653c0.561,0.138,0.875,0.626,0.942,1.472c0.079,0.229,0.132,0.687,0.16,1.372
					c0.094-0.002,0.188-0.004,0.281-0.006c0.244-0.006,0.49-0.012,0.733-0.019c1.039,0.012,2.079,0.009,3.119-0.011
					c0.263-0.016,0.503,0.351,0.729,1.1c0.021,0.33-0.168,0.556-0.567,0.672c-0.062-0.011-0.124-0.022-0.187-0.034
					c-1.316,0.053-2.634,0.081-3.951,0.085c0.013,0.604,0.024,1.208,0.037,1.812c0.022,0.508,0.045,1.016,0.067,1.523
					c-0.458,9.139-0.187,14.172,1.095,15.071c0.746,0.649,1.387,0.962,1.904,0.938c0.104-0.004,0.208-0.008,0.313-0.012
					c1.168-0.316,1.732-0.705,1.707-1.142c-0.061-0.179-0.121-0.354-0.18-0.534c-0.001-0.016-0.002-0.029-0.003-0.046
					c-0.042-0.729,0.188-1.108,0.694-1.142c0.084-0.006,0.168-0.012,0.252-0.018c0.863,0.137,1.316,0.45,1.355,0.958
					c0.047,0.193,0.094,0.388,0.14,0.58c0.092,1.173-0.718,2.163-2.474,2.919c-0.388,0.16-0.84,0.254-1.354,0.276
					c-0.175,0.008-0.349,0.016-0.524,0.022c-1.74,0.07-3.427-1.092-4.925-3.476c-0.512-1.155-0.753-2.804-0.743-4.944
					c0.005-1.293,0.109-4.41,0.279-9.354c0.019-1.182,0.037-2.363,0.055-3.545c-1.07-0.002-2.14-0.021-3.209-0.056
					c-0.176-0.006-0.259-0.15-0.249-0.436c-0.038-0.826,0.273-1.225,0.934-1.207c0.824,0.014,1.647,0.018,2.471,0.012
					c0.034-0.08,0.068-0.161,0.102-0.241c-0.003-0.543-0.006-1.086-0.009-1.629C77.08,52.836,77.413,52.516,77.972,52.653z"/>
			</g>
			<g>
				<path fill="#FBA70E" d="M27.061,76.118c1.922,0.995,2.775,2.666,2.577,5.094c-0.199,2.424-0.767,3.468-1.75,3.102
					c-0.137-0.053-0.273-0.104-0.41-0.154c-0.696-0.264-0.711-1.341-0.046-3.222c-0.199-1.696-1.16-2.907-2.9-3.692
					c-1.742-0.789-3.121-0.822-4.18-0.061c-0.646,0.551-1.172,1.258-1.573,2.125c-0.182,0.479-0.363,0.96-0.544,1.439
					c1.309,0.553,2.623,1.084,3.942,1.594c1.151,0.488,1.588,1.068,1.303,1.77c-0.22,0.543-1.871,0.211-4.899-1.162
					c-0.307-0.139-0.613-0.277-0.919-0.418c-0.068,0.146-0.135,0.295-0.203,0.44c-2,4.487-3.994,8.978-5.983,13.469
					c-0.191,0.419-0.818,0.491-1.878,0.197c-0.076-0.035-0.151-0.071-0.227-0.106c-1.058-0.5-1.347-1.242-0.875-2.212
					c0.443-1.103,0.888-2.204,1.334-3.306c1.654-3.249,3.304-6.501,4.95-9.754c-0.417-0.174-0.833-0.348-1.249-0.524
					c-0.808-0.401-1.125-0.776-0.954-1.112c0.313-0.916,1.266-0.901,2.88-0.012c0.059-0.121,0.118-0.242,0.177-0.363
					c0.108-0.307,0.217-0.613,0.326-0.92c1.415-2.652,3.148-3.902,5.185-3.822C23.185,74.583,25.136,75.12,27.061,76.118z"/>
				<path fill="#FBA70E" d="M41.022,81.1c0.1,0.027,0.199,0.057,0.298,0.083c2.14,0.596,3.344,1.972,3.654,4.21
					c-0.018,0.521-0.035,1.046-0.051,1.568c-0.099,0.412-0.613,0.566-1.545,0.453c-0.905-0.229-1.198-0.947-0.883-2.146
					c-0.196-0.975-0.937-1.645-2.229-2.037c-1.293-0.395-2.444-0.148-3.486,0.746c-0.215,0.525-0.431,1.053-0.647,1.578
					c-2.258,8.148-3.909,14.042-5.017,17.654c-0.536,0.963-1.328,1.285-2.36,0.957c-0.987-0.316-1.419-1.115-1.292-2.379
					c0.734-1.942,1.465-3.887,2.193-5.83c1.193-3.722,2.389-7.441,3.588-11.16c0.111-0.219,0.222-0.438,0.333-0.656
					c0.313-1.174,0.629-2.346,0.946-3.52c0.305-0.41,0.546-0.584,0.726-0.525c0.099,0.033,0.198,0.064,0.297,0.098
					c0.539,0.176,0.795,0.625,0.773,1.354C37.918,80.811,39.468,80.661,41.022,81.1z"/>
				<path fill="#FBA70E" d="M52.864,83.469c0.134,0.025,0.269,0.051,0.403,0.074c1.789,0.475,2.613,1.17,2.458,2.146
					c-0.021,0.134-0.043,0.267-0.064,0.397c-0.651,1.369-1.644,1.947-2.955,1.709c-0.208-0.037-0.417-0.074-0.625-0.113
					c-1.413-0.521-2.022-1.229-1.847-2.088c0.011-0.053,0.021-0.105,0.032-0.158c0.168-0.83,0.863-1.457,2.063-1.902
					C52.347,83.442,52.524,83.422,52.864,83.469z M53.77,90.104c0.2-0.145-0.577,5.186-2.305,15.996
					c-0.027,0.158-0.054,0.318-0.08,0.479c-0.067,0.646-0.134,1.289-0.2,1.936c-0.459,0.633-1.284,0.852-2.469,0.636
					c-1.128-0.205-1.582-0.872-1.366-1.981c0.041-0.213,0.082-0.424,0.123-0.637c2.153-11.259,3.384-16.859,3.682-16.803
					C51.436,89.397,52.301,89.534,53.77,90.104z M52.334,85.18c-0.059,0.126-0.118,0.252-0.178,0.378
					c-0.036,0.188,0.106,0.38,0.425,0.571c0.511-0.069,0.797-0.293,0.863-0.664c-0.307-0.055-0.614-0.11-0.92-0.168
					c-0.029-0.032-0.059-0.065-0.088-0.098C52.402,85.192,52.369,85.187,52.334,85.18z"/>
				<path fill="#FBA70E" d="M69.807,86.09c3.527,0.568,5.783,2.014,6.8,4.531c1.012,2.512,1.381,4.646,1.006,6.42
					c-0.692,0.019-1.384,0.031-2.076,0.039c-3.455-0.076-6.906-0.276-10.347-0.602c-0.294-0.023-0.589-0.05-0.884-0.076
					c-0.371-0.006-0.742-0.014-1.113-0.023c-0.034-0.029-0.068-0.06-0.103-0.09c-1.363,4.922-1.394,8.252,0.122,9.981
					c1.504,1.726,3.08,2.636,4.648,2.728c0.12,0.008,0.24,0.015,0.36,0.021c2.246,0.127,3.831-0.382,4.726-1.466
					c0.898-1.085,1.773-1.728,2.647-1.927c0.875-0.198,1.381,0.233,1.528,1.313c0.004,1.894-1.83,3.382-5.605,4.267
					c-1.031,0.232-2.22,0.315-3.556,0.238c-3.41-0.197-6.057-1.482-7.831-3.736c-1.806-2.03-1.79-6.637-0.215-13.801
					c0.304-2.479,1.595-4.541,3.754-6.266C65.463,86.467,67.484,85.963,69.807,86.09z M63.311,94.038
					c0.27,0.188,4.092,0.76,11.484,0.851c0.002-0.136,0.004-0.271,0.007-0.404c-0.68-3.14-2.105-5.063-4.297-5.847
					c-0.346-0.071-0.69-0.145-1.035-0.217c-2.775-0.16-4.667,1.039-5.756,3.707C63.581,92.764,63.446,93.4,63.311,94.038z"/>
				<path fill="#FBA70E" d="M90.3,85.64c0.002,0.026,0.005,0.054,0.009,0.081c0.031-0.03,0.063-0.061,0.094-0.092
					c2.511-0.252,4.64,0.279,6.476,1.644c1.001,1.052,1.664,2.501,1.957,4.364c0.233,1.49,0.466,2.98,0.7,4.473
					c0.689,4.021,1.382,8.044,2.081,12.064c-0.177,0.955-0.793,1.517-1.843,1.668c-0.783,0.113-1.344-0.135-1.676-0.734
					s-0.671-2.189-1.022-4.768c-0.429-4.277-0.867-8.553-1.317-12.827c-0.226-2.765-1.716-3.935-4.469-3.642
					c-0.139,0.016-0.277,0.029-0.417,0.043c-2.386,0.242-4.164,1.137-5.396,2.756c1.198,13.811,1.479,20.736,0.683,20.781
					c-0.401,0.023-0.802,0.045-1.204,0.064c-0.04,0.002-0.081,0.004-0.121,0.006c-0.641,0.031-1.184-0.27-1.625-0.898
					c-0.159-4.59-0.32-9.181-0.482-13.771c0.028-3.048,0.047-6.097,0.059-9.146c-0.045-0.24-0.09-0.48-0.133-0.723
					c0.158-0.438,0.457-0.667,0.896-0.688c0.439-0.021,0.807,0.443,1.108,1.397C86.275,86.528,88.139,85.854,90.3,85.64z"/>
				<path fill="#FBA70E" d="M119.154,78.597c0.604-0.202,1.296,0.679,2.08,2.647c1.183,3.519,2.363,7.035,3.541,10.555
					c1.263,3.441,2.529,6.882,3.802,10.318c0.11,0.646-0.214,1.102-0.974,1.355c-0.156,0.053-0.313,0.104-0.47,0.156
					c-0.851,0.281-1.478,0.086-1.874-0.578c-0.882,0.961-2.359,1.764-4.425,2.355c-4.985,1.537-8.774,1.498-11.177,0.174
					c-2.415-1.33-3.906-3.361-4.563-6.014c-0.656-2.654-0.539-5.6,0.205-8.833c0.751-3.241,2.75-5.493,6.03-6.944
					c3.28-1.457,5.842-1.945,7.846-1.349c-0.157-0.485-0.315-0.974-0.474-1.46c-0.672-1.305-0.553-2.085,0.354-2.354
					C119.089,78.618,119.121,78.607,119.154,78.597z M107.904,96.189c0.982,4.724,2.721,7.294,5.269,7.614
					c2.536,0.32,4.687,0.152,6.388-0.451c1.705-0.605,3.061-1.618,4.039-3.008c0.069-0.159,0.139-0.318,0.209-0.479
					c-0.279-0.744-0.557-1.488-0.834-2.232c-0.213-0.674-0.428-1.35-0.642-2.024c-1.356-3.624-2.701-7.253-4.028-10.888
					c-1.039-0.633-3.197,0.033-6.643,1.816C108.227,88.305,106.928,91.452,107.904,96.189z"/>
				<path fill="#FBA70E" d="M138.727,75.493c0.205,0.405,0.025,0.777-0.541,1.107c-0.564,0.331-1.447,0.318-2.623-0.055
					c-1.174-0.371-1.941-0.482-2.32-0.311c-0.129,0.061-0.26,0.118-0.389,0.178c-1.939,0.873-2.672,2.311-2.199,4.394
					c0.705,1.67,3.527,3.028,8.715,3.638c3.416,0.609,5.89,2.2,7.303,4.969c1.209,2.354,0.285,4.895-2.945,7.451
					c-0.506,0.293-1.015,0.584-1.523,0.871c-0.418,0.188-0.837,0.374-1.256,0.559c-1.414,0.621-2.872,0.914-4.352,0.875
					c-2.109-0.308-3.385-0.851-3.863-1.563c-0.479-0.715-0.623-1.353-0.44-1.91c0.183-0.557,0.542-0.94,1.086-1.155
					c0.544-0.217,1.422,0.445,2.664,1.975c1.451,0.337,2.907,0.189,4.334-0.439c0.149-0.066,0.299-0.133,0.449-0.199
					c2.737-1.529,3.687-3.15,2.916-4.738c-0.095-0.193-0.187-0.389-0.281-0.582c-0.778-1.617-2.381-2.813-4.733-3.668
					c-4.662-0.701-7.552-1.602-8.854-2.377c-1.301-0.78-2.115-1.987-2.484-3.592c-0.371-1.608,0.735-3.383,3.195-5.441
					c0.428-0.246,0.854-0.494,1.279-0.744c0.097-0.043,0.191-0.087,0.287-0.13c0.703-0.317,1.619-0.502,2.76-0.569
					C137.033,74.125,138.316,74.584,138.727,75.493z"/>
			</g>
		</g>
	</g>
	<g>
		<path fill="#F14B30" d="M75.726,18.407c1.063-0.374,2.229,0.188,2.604,1.25c0.374,1.069-0.186,2.234-1.252,2.607
			c-1.063,0.374-2.23-0.188-2.605-1.252C74.101,19.948,74.659,18.78,75.726,18.407z"/>
		<path fill="#F14B30" d="M69.469,20.064c1.18-1.525,1.095-3.63-0.091-5.05c0.36,0.657,0.339,1.483-0.103,2.136
			c-0.065-0.061-0.131-0.123-0.207-0.18c-0.963-0.746-2.349-0.564-3.092,0.396c-0.744,0.967-0.565,2.353,0.396,3.099
			c0.964,0.741,2.341,0.561,3.089-0.393l0,0C69.462,20.069,69.467,20.067,69.469,20.064z"/>
		<path fill="#F14B30" d="M76.414,7.053c2.033,1.1,2.835,3.608,1.763,5.655c-1.074,2.052-3.624,2.865-5.657,1.767
			c-2.734-1.485-2.997-6.932-5.922-6.838C66.597,7.637,71.29,4.288,76.414,7.053z"/>
		<g>
			<path fill="#FFFFFF" d="M58.004,16.306l0.177,0.293c0.33,0.534,0.885,0.797,1.242,0.579l5.651-3.453
				c0.357-0.219,0.379-0.832,0.052-1.368l-7.147-11.7c-0.331-0.538-0.887-0.797-1.242-0.578l-5.649,3.45
				c-0.359,0.22-0.381,0.832-0.053,1.369l0.179,0.294C45.996,4.298,31.188,7.208,28.88,8.618L2.877,24.502
				c-2.688,1.642-3.539,5.156-1.895,7.849l4.766,7.802l0.397,0.65L10.91,48.6c1.646,2.694,5.161,3.543,7.851,1.899l25.998-15.885
				C47.069,33.204,56.417,21.354,58.004,16.306z"/>
			<path fill="#F14B30" d="M17.352,48.822l26.541-16.213c1.708-1.388,6.435-8.257,9.057-13.229
				c-1.219-1.849-3.327-2.844-6.087-5.097c-1.308-1.063-2.65-3.341-3.855-5.878c-5.176,0.313-11.082,1.169-12.741,1.899
				L3.728,26.517C3.18,26.854,3.059,27.662,3.46,28.32l12.168,19.916C16.03,48.896,16.806,49.157,17.352,48.822z"/>
			<path fill="#D94128" d="M47.364,14.681L9.325,37.92l6.304,10.316c0.401,0.659,1.178,0.921,1.724,0.586l26.541-16.213
				c1.708-1.388,6.435-8.257,9.057-13.229C51.808,17.646,49.876,16.65,47.364,14.681z"/>
		</g>
	</g>
	<g>
		<path fill="#F2C074" d="M123.885,60.51c2.439,4.845-2.354,12.178-10.708,16.383c-8.352,4.205-17.098,3.688-19.534-1.154
			c-2.441-4.847,2.354-12.18,10.705-16.385C112.701,55.148,121.445,55.666,123.885,60.51z"/>
		
			<ellipse transform="matrix(-0.4497 -0.8932 0.8932 -0.4497 96.393 195.5643)" fill="#DCB26A" cx="108.44" cy="68.088" rx="9.644" ry="16.724"/>
		
			<ellipse transform="matrix(-0.4496 -0.8932 0.8932 -0.4496 96.228 190.3468)" fill="#D94128" cx="106.757" cy="65.527" rx="9.576" ry="16.656"/>
		
			<ellipse transform="matrix(-0.4497 -0.8932 0.8932 -0.4497 96.7489 185.8743)" fill="#F2C074" cx="105.633" cy="63.134" rx="9.576" ry="16.933"/>
		
			<ellipse transform="matrix(-0.4497 -0.8932 0.8932 -0.4497 96.7825 185.4045)" fill="#DCB26A" cx="105.508" cy="62.887" rx="9.299" ry="16.933"/>
		<path fill="#F2C074" d="M119.879,53.789c1.896,3.763-3.339,10.225-11.688,14.43c-8.354,4.205-16.664,4.563-18.558,0.798
			c-1.897-3.769,3.339-10.229,11.689-14.435C109.675,50.378,117.984,50.022,119.879,53.789z"/>
		<path fill="#DCB26A" d="M107.729,65.517c-6.615,3.33-13.162,3.675-14.627,0.763c-0.697-1.384-0.106-3.256,1.407-5.195
			c-1.983,2.205-2.846,4.401-2.056,5.969c1.464,2.91,8.014,2.568,14.629-0.762c3.467-1.748,6.251-3.965,7.918-6.102
			C113.3,62.081,110.779,63.981,107.729,65.517z"/>
		
			<ellipse transform="matrix(-0.4465 -0.8948 0.8948 -0.4465 82.3863 177.0441)" fill="#DCB26A" cx="95.951" cy="63.041" rx="0.279" ry="0.555"/>
		<path fill="#DCB26A" d="M96.95,65.334c0.067,0.137-0.099,0.357-0.373,0.496s-0.552,0.141-0.621,0.004
			c-0.069-0.141,0.099-0.361,0.374-0.5C96.602,65.196,96.878,65.193,96.95,65.334z"/>
		
			<ellipse transform="matrix(-0.45 -0.893 0.893 -0.45 89.17 182.1425)" fill="#DCB26A" cx="100.671" cy="63.614" rx="0.276" ry="0.555"/>
		
			<ellipse transform="matrix(-0.4479 -0.8941 0.8941 -0.4479 88.6699 185.8974)" fill="#DCB26A" cx="101.73" cy="65.572" rx="0.278" ry="0.555"/>
		
			<ellipse transform="matrix(-0.45 -0.893 0.893 -0.45 100.4257 186.2987)" fill="#DCB26A" cx="107.58" cy="62.225" rx="0.278" ry="0.556"/>
		
			<ellipse transform="matrix(-0.4479 -0.8941 0.8941 -0.4479 103.4031 181.3618)" fill="#DCB26A" cx="107.696" cy="58.756" rx="0.276" ry="0.555"/>
		<path fill="#DCB26A" d="M100.343,58.963c0.069,0.135-0.098,0.359-0.372,0.496c-0.271,0.137-0.549,0.138-0.617,0.002
			c-0.07-0.138,0.096-0.36,0.369-0.498C99.997,58.825,100.273,58.824,100.343,58.963z"/>
		
			<ellipse transform="matrix(-0.4497 -0.8932 0.8932 -0.4497 104.6372 175.2915)" fill="#DCB26A" cx="106.32" cy="55.41" rx="0.278" ry="0.553"/>
		
			<ellipse transform="matrix(-0.4507 -0.8927 0.8927 -0.4507 115.3791 180.3502)" fill="#DCB26A" cx="113.176" cy="54.678" rx="0.277" ry="0.553"/>
		
			<ellipse transform="matrix(-0.4514 -0.8923 0.8923 -0.4514 94.9809 180.1482)" fill="#DCB26A" cx="102.865" cy="60.878" rx="0.277" ry="0.554"/>
		
			<ellipse transform="matrix(-0.4497 -0.8932 0.8932 -0.4497 85.7876 173.9133)" fill="#DCB26A" cx="96.47" cy="60.529" rx="0.277" ry="0.554"/>
		
			<ellipse transform="matrix(-0.4515 -0.8923 0.8923 -0.4515 95.1837 184.672)" fill="#DCB26A" cx="104.356" cy="63.079" rx="0.276" ry="0.555"/>
		
			<ellipse transform="matrix(-0.4497 -0.8932 0.8932 -0.4497 108.0126 185.6592)" fill="#DCB26A" cx="111.203" cy="59.554" rx="0.279" ry="0.554"/>
		<path fill="#DCB26A" d="M99.016,61.571c0.068,0.139-0.096,0.361-0.373,0.498c-0.271,0.139-0.55,0.139-0.619,0.001
			c-0.066-0.136,0.098-0.358,0.371-0.497C98.67,61.435,98.948,61.435,99.016,61.571z"/>
		<path fill="#F2C074" d="M138.709,65.967c-1.005,5.326-9.268,8.244-18.456,6.513c-9.188-1.729-15.826-7.456-14.821-12.782
			c1.004-5.33,9.27-8.246,18.453-6.516C133.078,54.913,139.714,60.633,138.709,65.967z"/>
		<path fill="#DCB26A" d="M138.264,65.706c-0.986,5.232-9.144,8.092-18.223,6.381c-9.072-1.711-15.632-7.34-14.645-12.573
			c0.984-5.234,9.142-8.093,18.218-6.384C132.691,54.84,139.251,60.471,138.264,65.706z"/>
		<path fill="#D94128" d="M138.418,62.627c-0.979,5.197-9.1,8.029-18.137,6.328c-9.041-1.703-15.573-7.297-14.596-12.495
			c0.981-5.198,9.104-8.029,18.141-6.328C132.865,51.837,139.396,57.428,138.418,62.627z"/>
		<path fill="#F2C074" d="M139.248,60.101c-0.979,5.198-9.223,8.007-18.41,6.276c-9.189-1.731-15.845-7.347-14.867-12.547
			c0.979-5.195,9.225-8.007,18.412-6.275C133.573,49.286,140.229,54.903,139.248,60.101z"/>
		<path fill="#DCB26A" d="M139.302,59.828c-0.952,5.047-9.174,7.737-18.362,6.002c-9.187-1.731-15.866-7.229-14.916-12.272
			c0.951-5.046,9.17-7.734,18.358-6.003C133.573,49.286,140.251,54.782,139.302,59.828z"/>
		
			<ellipse transform="matrix(0.1851 -0.9827 0.9827 0.1851 46.099 165.7081)" fill="#F2C074" cx="122.968" cy="55.057" rx="7.634" ry="16.931"/>
		<path fill="#DCB26A" d="M122.832,60.132c-7.277-1.369-12.689-5.076-12.087-8.275c0.286-1.524,1.896-2.655,4.274-3.275
			c-2.92,0.549-4.934,1.768-5.258,3.496c-0.604,3.197,4.809,6.906,12.086,8.276c3.813,0.717,7.375,0.646,9.994-0.04
			C129.346,60.786,126.188,60.764,122.832,60.132z"/>
		<path fill="#DCB26A" d="M115.52,51.111c-0.024,0.149-0.293,0.226-0.595,0.17c-0.303-0.057-0.522-0.227-0.495-0.375
			c0.03-0.151,0.299-0.226,0.598-0.17C115.329,50.791,115.55,50.959,115.52,51.111z"/>
		<path fill="#DCB26A" d="M114.376,53.435c-0.028,0.154-0.296,0.23-0.597,0.173c-0.303-0.058-0.521-0.227-0.495-0.376
			c0.026-0.15,0.296-0.227,0.598-0.172C114.186,53.12,114.406,53.286,114.376,53.435z"/>
		
			<ellipse transform="matrix(0.1852 -0.9827 0.9827 0.1852 43.0621 160.5993)" fill="#DCB26A" cx="118.382" cy="54.331" rx="0.277" ry="0.554"/>
		
			<ellipse transform="matrix(0.1855 -0.9826 0.9826 0.1855 40.599 162.0277)" fill="#DCB26A" cx="118.038" cy="56.524" rx="0.279" ry="0.555"/>
		<path fill="#DCB26A" d="M125.253,57.534c-0.028,0.15-0.292,0.228-0.594,0.17c-0.304-0.056-0.521-0.225-0.494-0.375
			c0.028-0.152,0.296-0.228,0.597-0.168C125.063,57.215,125.285,57.385,125.253,57.534z"/>
		<path fill="#DCB26A" d="M127.458,54.843c-0.026,0.151-0.296,0.227-0.599,0.169c-0.299-0.056-0.521-0.223-0.492-0.374
			c0.027-0.151,0.295-0.23,0.598-0.172C127.266,54.526,127.488,54.692,127.458,54.843z"/>
		
			<ellipse transform="matrix(0.1857 -0.9826 0.9826 0.1857 48.5784 159.2932)" fill="#DCB26A" cx="120.401" cy="50.336" rx="0.276" ry="0.556"/>
		<path fill="#DCB26A" d="M128.398,51.35c-0.025,0.147-0.297,0.227-0.597,0.17c-0.303-0.056-0.521-0.228-0.493-0.377
			c0.026-0.151,0.293-0.228,0.596-0.17C128.206,51.028,128.426,51.198,128.398,51.35z"/>
		
			<ellipse transform="matrix(0.1857 -0.9826 0.9826 0.1857 55.0268 176.0668)" fill="#DCB26A" cx="133.746" cy="54.832" rx="0.276" ry="0.555"/>
		<path fill="#DCB26A" d="M122.328,53.594c-0.03,0.151-0.299,0.226-0.598,0.17c-0.303-0.056-0.523-0.227-0.494-0.376
			c0.029-0.151,0.297-0.224,0.6-0.17C122.132,53.273,122.355,53.44,122.328,53.594z"/>
		<path fill="#DCB26A" d="M117.464,49.43c-0.028,0.151-0.297,0.228-0.601,0.168c-0.299-0.056-0.521-0.224-0.49-0.374
			c0.023-0.15,0.294-0.225,0.595-0.169C117.271,49.111,117.491,49.278,117.464,49.43z"/>
		
			<ellipse transform="matrix(0.188 -0.9822 0.9822 0.188 43.6126 165.0542)" fill="#DCB26A" cx="121.628" cy="56.151" rx="0.278" ry="0.556"/>
		<path fill="#DCB26A" d="M129.762,57.607c-0.027,0.15-0.297,0.227-0.595,0.17c-0.304-0.057-0.524-0.227-0.497-0.377
			c0.027-0.148,0.296-0.225,0.596-0.171C129.57,57.286,129.79,57.456,129.762,57.607z"/>
		<path fill="#DCB26A" d="M118.303,51.706c-0.025,0.15-0.296,0.226-0.594,0.17c-0.305-0.057-0.523-0.225-0.496-0.374
			c0.028-0.151,0.297-0.228,0.596-0.172C118.111,51.389,118.331,51.557,118.303,51.706z"/>
	</g>
	<g>
		<rect x="75.304" y="26.709" fill="#FFFFFF" width="28" height="9"/>
		<rect x="85.305" y="18.709" fill="#FFFFFF" width="8" height="26"/>
	</g>
</g>
</svg>
