<?xml version="1.0" encoding="utf-8"?>
<!-- Generator: Adobe Illustrator 16.0.0, SVG Export Plug-In . SVG Version: 6.00 Build 0)  -->
<!DOCTYPE svg PUBLIC "-//W3C//DTD SVG 1.1//EN" "http://www.w3.org/Graphics/SVG/1.1/DTD/svg11.dtd">
<svg version="1.1" id="Layer_1" xmlns="http://www.w3.org/2000/svg" xmlns:xlink="http://www.w3.org/1999/xlink" x="0px" y="0px"
	 width="108.75px" height="141.893px" viewBox="0 0 108.75 141.893" enable-background="new 0 0 108.75 141.893"
	 xml:space="preserve">
<g>
	<path fill="#A87C4F" d="M108.135,131.769c0.059-7.236,0.4-13.458,0.036-20.96c-0.306-6.24-1.933-12.247-5.862-17.098
		c-4.688-5.786-7.959-7.276-15.348-7.653c0.545-3.149-0.882-6.274-1.146-9.509c-0.252-3.094-0.065-6.416,0.067-9.492
		c4.349,0.687,9.123-3.683,11.251-7.271c2.948-4.973,1.038-9.537-0.759-14.039c-2.194-0.104-4.438-0.002-6.638-0.105
		c0.012-5.021-15.522-11.034-19.829-10.123c0.573-7.141-2.12-13.946-3.834-20.684C63.4,4.327,59.298,2.873,49.722,0
		c-0.277,5.176,1.101,11.519-0.029,16.525c-1.29,5.711-6.693,8.816-7.566,14.633c-4.78,1.404-5.666-2.982-9.082-4.744
		c-2.432-1.254-7.132-1.612-10.044-0.43c-7.087,2.881-2.777,10.61-2.687,16.461c-2.041,0.027-18.845-13.459-19.086-2.07v-0.533
		c-3.847,3.736,2.346,21.142,4.919,25.843c3.978,7.268,9.312,11.256,8.83,20.388c-17.86,0.031-14.016,22.058-12.711,35.297
		c0.562,5.678,1.102,13.523,5.763,17.572c5.594,4.854,11.585,2.496,18.215,1.447c2.909-0.462,6.537-3.153,8.97-3.121
		c0.96,0.012,5.017,3.219,5.993,3.429c5.656,1.213,13.377,0.644,18.645-1.521c9.08-3.728,10.869-1.137,19.58,0.204
		c5.705,0.878,12.133-0.316,17.686-0.588c2.636-0.127,7.261,0.965,9.59-0.491C110.242,136.091,108.111,134.278,108.135,131.769z"/>
	<g>
		<path fill="#231F20" d="M6.861,43.969l0.256-0.131l0.321-0.004c0.283-0.146,0.447-0.212,0.49-0.199
			c0.042-0.057,0.134-0.121,0.275-0.194c0.085-0.044,0.25-0.092,0.491-0.146c0.242-0.053,0.42-0.107,0.533-0.168
			c0.114,0.015,0.285,0.017,0.514,0.006c0.229-0.01,0.406-0.012,0.535-0.006s0.279,0.055,0.452,0.146s0.316,0.213,0.433,0.369
			c0.057,0.043,0.144,0.069,0.258,0.082c0.114,0.014,0.192,0.026,0.236,0.041c0.042,0.014,0.097,0.065,0.162,0.157
			c0.065,0.094,0.105,0.152,0.12,0.182c0.015,0.028,0.043,0.05,0.086,0.063l0.087,0.063l0.132,0.256
			c0.015,0.029,0.082,0.074,0.204,0.137c0.122,0.063,0.198,0.123,0.228,0.18c0.028,0.058,0.072,0.125,0.131,0.201
			c0.058,0.078,0.115,0.14,0.173,0.182c0.029,0.058,0.08,0.12,0.152,0.189c0.071,0.071,0.115,0.121,0.13,0.148l0.066,0.129
			c0.028,0.057,0.062,0.139,0.099,0.244c0.036,0.106,0.063,0.175,0.077,0.203c0.014,0.027,0.065,0.057,0.151,0.084
			c0.029,0.057,0.098,0.155,0.207,0.297c0.107,0.143,0.185,0.255,0.229,0.34c0.159,0.17,0.254,0.319,0.283,0.447
			c0.03,0.057,0.07,0.151,0.121,0.286c0.052,0.136,0.1,0.244,0.144,0.33l0.087,0.17c0.232,0.313,0.386,0.539,0.458,0.681
			c0.088,0.171,0.125,0.313,0.112,0.428c0.016,0.028,0.05,0.064,0.108,0.105c0.058,0.043,0.101,0.092,0.13,0.147
			c0.016,0.029,0.026,0.068,0.033,0.117c0.008,0.051,0.02,0.09,0.034,0.117l0.087,0.063c0.015,0.027,0.029,0.058,0.043,0.084
			l0.021,0.043c-0.014,0.043-0.013,0.079,0.002,0.107s0.055,0.089,0.119,0.18c0.066,0.094,0.113,0.167,0.143,0.225l0.086,0.063
			c0.058,0.043,0.094,0.078,0.108,0.105c0.03,0.058,0.059,0.149,0.089,0.276c-0.027,0.087-0.027,0.158,0.002,0.215
			c0.016,0.027,0.059,0.097,0.132,0.201c0.072,0.107,0.123,0.188,0.152,0.244c0,0.072,0.009,0.122,0.023,0.15
			c0.014,0.027,0.052,0.1,0.109,0.213c0.059,0.113,0.06,0.186,0.003,0.214c0.157,0.099,0.267,0.204,0.325,0.317
			c0.015,0.027,0.039,0.097,0.076,0.202c0.037,0.107,0.07,0.188,0.1,0.244c-0.027,0.087-0.026,0.158,0.002,0.215
			c0.338,0.796,0.493,1.236,0.466,1.322c0.217,0.211,0.405,0.475,0.565,0.785c0.117,0.229,0.177,0.412,0.178,0.555
			c0.175,0.199,0.298,0.368,0.371,0.511c0.072,0.143,0.096,0.256,0.067,0.342c0.058,0.043,0.137,0.145,0.239,0.309
			c0.102,0.162,0.167,0.272,0.196,0.329l-0.063,0.193c0.058,0.042,0.116,0.12,0.175,0.232c0.059,0.113,0.117,0.265,0.177,0.447
			c0.059,0.187,0.11,0.32,0.154,0.405l0.088,0.171c-0.012,0.186-0.025,0.301-0.039,0.342c0.132,0.256,0.19,0.406,0.176,0.449
			l0.133,0.255c0.16,0.313,0.257,0.675,0.291,1.089l0.414,0.701c0.205,0.398,0.215,0.697,0.032,0.899
			c0.043,0.015,0.079,0.049,0.108,0.104c0.029,0.058,0.037,0.143,0.024,0.257c-0.013,0.115-0.005,0.2,0.024,0.257
			c-0.027,0.087-0.094,0.272-0.197,0.56c-0.104,0.288-0.211,0.495-0.324,0.625l-0.148,0.13c-0.238,0.375-0.386,0.576-0.442,0.604
			c-0.71,0.365-1.192,0.578-1.449,0.639c-0.028,0.015-0.114,0.021-0.257,0.023s-0.25,0.004-0.321,0.004
			c-0.028,0.016-0.129-0.006-0.301-0.061c-0.44,0.119-0.819,0.081-1.136-0.115c-0.156,0.045-0.338,0.021-0.547-0.067
			c-0.208-0.092-0.333-0.144-0.376-0.156c-0.087-0.101-0.239-0.219-0.454-0.359c-0.216-0.141-0.367-0.26-0.454-0.358
			c-0.058-0.041-0.119-0.107-0.184-0.201c-0.066-0.092-0.113-0.166-0.142-0.224c-0.146-0.141-0.239-0.254-0.283-0.34l-0.264-0.51
			c-0.043-0.086-0.163-0.248-0.358-0.489c-0.195-0.238-0.358-0.452-0.489-0.636c-0.13-0.184-0.298-0.475-0.503-0.873
			c-0.086-0.098-0.188-0.262-0.305-0.488c-0.088-0.17-0.118-0.299-0.091-0.385c-0.086-0.027-0.172-0.127-0.261-0.297
			c-0.028-0.057-0.073-0.178-0.132-0.362c-0.061-0.185-0.11-0.319-0.154-0.404l-0.154-0.299c-0.131-0.255-0.176-0.447-0.135-0.576
			c-0.015-0.027-0.051-0.045-0.107-0.053c-0.058-0.006-0.101-0.038-0.13-0.095c-0.028-0.057-0.052-0.117-0.066-0.182
			c-0.016-0.063-0.036-0.123-0.066-0.183l-0.328-0.639c-0.22-0.425-0.358-0.766-0.42-1.022c-0.057-0.042-0.122-0.134-0.195-0.275
			c-0.058-0.113-0.118-0.297-0.178-0.555c-0.061-0.257-0.104-0.412-0.134-0.47l-0.044-0.086c-0.058-0.041-0.094-0.076-0.107-0.104
			l-0.002-0.107c-0.015-0.027-0.029-0.057-0.044-0.085c-0.058-0.112-0.153-0.298-0.285-0.554c-0.131-0.255-0.212-0.446-0.242-0.574
			c-0.147-0.427-0.271-0.739-0.375-0.938c-0.015-0.027-0.008-0.085,0.02-0.171c-0.029-0.057-0.065-0.092-0.108-0.105
			c-0.043-0.013-0.079-0.048-0.107-0.105L7.841,51L7.82,50.96l-0.085-0.063c-0.044-0.085-0.071-0.205-0.08-0.363
			c-0.01-0.156-0.027-0.263-0.057-0.32c-0.045-0.085-0.121-0.252-0.23-0.5c-0.111-0.248-0.174-0.422-0.189-0.522l0.019-0.277
			c-0.162-0.455-0.209-0.754-0.139-0.897c-0.014-0.027-0.043-0.05-0.086-0.063s-0.079-0.049-0.108-0.105
			c-0.031-0.199-0.062-0.327-0.091-0.385l-0.263-0.512c-0.029-0.057-0.052-0.17-0.068-0.342c-0.016-0.17-0.039-0.284-0.068-0.342
			c-0.102-0.198-0.27-0.453-0.501-0.767c0.027-0.084,0.02-0.206-0.026-0.362c-0.044-0.156-0.06-0.257-0.046-0.3
			C5.969,44.536,6.321,44.246,6.861,43.969z"/>
		<path fill="#231F20" d="M27.72,34.646c0.206-0.089,0.536-0.153,0.988-0.194c0.451-0.041,0.754-0.082,0.908-0.125
			c0.054-0.047,0.104-0.044,0.151,0.009c0.039,0.023,0.074,0.03,0.105,0.021l0.079-0.071c0.053-0.047,0.114-0.063,0.185-0.051
			c0.219,0.073,0.37,0.082,0.454,0.024c0.008,0.031,0.034,0.064,0.078,0.104c0.043,0.037,0.072,0.087,0.09,0.148
			c0.092-0.025,0.208-0.023,0.348,0.004c0.141,0.028,0.257,0.028,0.349,0.004c0.048,0.055,0.157,0.091,0.328,0.108
			c0.009,0.031,0.052,0.07,0.13,0.113c0.03-0.008,0.099-0.002,0.203,0.021c0.105,0.021,0.173,0.026,0.204,0.02
			c0.213,0.174,0.35,0.252,0.411,0.234c0.354,0.2,0.626,0.293,0.82,0.272c0.155,0.09,0.243,0.166,0.26,0.228l0.093-0.025
			c0.092-0.024,0.202-0.014,0.331,0.033c0.129,0.049,0.224,0.063,0.286,0.047c0.252,0.197,0.409,0.352,0.474,0.467l0.231-0.063
			c0.047,0.054,0.136,0.104,0.265,0.15c0.129,0.048,0.212,0.083,0.251,0.105l0.039,0.139c0.075,0.276,0.232,0.432,0.474,0.465
			l0.038,0.14c0.257,0.096,0.407,0.221,0.449,0.375c0.008,0.03,0.017,0.062,0.025,0.092l-0.021,0.104l0.328,0.654l0.037,0.139
			c0.018,0.063,0.061,0.102,0.131,0.113c0.078,0.046,0.136,0.08,0.176,0.103c-0.031,0.372,0.013,0.772,0.13,1.203
			c0.018,0.063,0.05,0.153,0.099,0.271c0.049,0.119,0.087,0.225,0.111,0.318c0.025,0.092,0.061,0.188,0.104,0.293
			c0.046,0.104,0.102,0.221,0.171,0.352c0.068,0.13,0.111,0.226,0.128,0.287c0.123,0.331,0.245,0.811,0.367,1.438
			c0.122,0.63,0.208,1.034,0.258,1.221c0.085,0.309,0.222,0.567,0.411,0.78c0.026,0.093,0.056,0.232,0.091,0.423
			c0.034,0.188,0.065,0.33,0.09,0.422c0.009,0.03,0.036,0.072,0.085,0.126c0.047,0.054,0.079,0.11,0.096,0.173l0.005,0.197
			c0.008,0.03,0.025,0.065,0.054,0.108c0.028,0.041,0.047,0.078,0.055,0.109c-0.03,0.008-0.041,0.026-0.033,0.059
			c-0.015,0.07,0.007,0.146,0.063,0.23c0.056,0.084,0.087,0.143,0.096,0.172c-0.014,0.07-0.035,0.143-0.064,0.217
			c-0.03,0.074-0.04,0.127-0.032,0.157c0.238,0.267,0.365,0.431,0.382,0.491c0.025,0.093,0.027,0.158,0.005,0.196
			c0.008,0.031,0.022,0.086,0.044,0.162c0.021,0.077,0.07,0.14,0.148,0.184c0.018,0.062,0.015,0.111-0.008,0.15l0.071,0.08
			c0.017,0.063,0.056,0.084,0.117,0.066c-0.022,0.039-0.024,0.09-0.008,0.15c0.042,0.155,0.051,0.251,0.029,0.29
			s-0.029,0.074-0.021,0.104c-0.015,0.071,0.009,0.097,0.07,0.08c0.061-0.018,0.097-0.009,0.105,0.021
			c0.003,0.134,0.029,0.291,0.08,0.476c0.042,0.154,0.102,0.254,0.181,0.299c0.008,0.031-0.007,0.068-0.045,0.111
			c-0.037,0.043-0.052,0.079-0.044,0.11l0.176,0.102l0.064,0.23c0.108,0.4,0.19,0.644,0.247,0.727c0.008,0.03,0.02,0.044,0.035,0.04
			c0.015-0.005,0.027,0.01,0.036,0.04c-0.007,0.101,0.021,0.144,0.083,0.126c0.039,0.022,0.048,0.055,0.026,0.092
			c-0.022,0.04-0.029,0.075-0.021,0.104c0.048,0.056,0.093,0.157,0.135,0.312s0.102,0.254,0.181,0.299
			c0.05,0.185,0.1,0.304,0.146,0.356l-0.047,0.013c-0.022,0.039-0.028,0.074-0.021,0.104c0.111,0.168,0.483,0.199,1.117,0.093
			l0.037,0.139c0.062-0.018,0.146-0.072,0.253-0.168c0.179,0.051,0.272,0.092,0.28,0.122c0.03-0.009,0.059-0.032,0.081-0.071
			c0.021-0.039,0.049-0.063,0.079-0.071l0.77,0.089c0.03-0.01,0.072-0.036,0.125-0.084c0.123-0.033,0.264-0.006,0.421,0.084
			c0.302,0.017,0.705,0.222,1.208,0.612c0.039,0.022,0.102,0.071,0.189,0.147c0.087,0.076,0.138,0.145,0.155,0.206
			c0.101,0.368,0.152,0.62,0.155,0.751c0.024,0.093-0.017,0.303-0.126,0.631c-0.03,0.008-0.059,0.031-0.08,0.069
			c-0.022,0.04-0.049,0.063-0.079,0.072l-0.021,0.104c0.009,0.03-0.003,0.051-0.034,0.059l-0.294,0.378
			c-0.03,0.009-0.083,0.058-0.158,0.144c-0.076,0.088-0.13,0.135-0.16,0.143c-0.022,0.04-0.096,0.076-0.219,0.109
			s-0.211,0.073-0.265,0.122c-0.168,0.111-0.298,0.181-0.39,0.206c-0.085,0.055-0.209,0.089-0.37,0.101
			c-0.163,0.011-0.271,0.04-0.323,0.088l-0.033,0.059l-0.034,0.061c-0.062,0.016-0.181,0.063-0.357,0.146
			c-0.176,0.08-0.295,0.131-0.356,0.146l-0.139,0.038c-0.039-0.022-0.074-0.028-0.104-0.021l-0.059-0.033l-0.173,0.097
			c-0.093,0.024-0.223,0.035-0.389,0.031c-0.167-0.004-0.266-0.002-0.296,0.006c-0.193,0.02-0.477,0.071-0.85,0.158
			c-0.375,0.085-0.624,0.145-0.746,0.178c-0.462,0.127-0.81,0.188-1.042,0.186c-0.031,0.008-0.085-0.01-0.163-0.055l-0.173,0.096
			c-0.062,0.019-0.16,0.021-0.296,0.007c-0.136-0.013-0.234-0.011-0.296,0.007c-0.022,0.04-0.037,0.044-0.046,0.013l-0.06-0.033
			l-0.046,0.012c-0.062,0.019-0.088,0.042-0.079,0.072c-0.079-0.045-0.199-0.062-0.361-0.051c-0.163,0.012-0.264,0.006-0.303-0.019
			c-0.031,0.011-0.068-0.006-0.111-0.043c-0.044-0.037-0.081-0.053-0.111-0.045c-0.093,0.025-0.158,0.027-0.197,0.004l-0.676-0.112
			c-0.201-0.012-0.322-0.027-0.361-0.05l-0.059-0.034l-0.093,0.024c-0.03,0.01-0.093-0.007-0.187-0.048
			c-0.095-0.04-0.188-0.048-0.279-0.022c-0.009-0.03-0.113-0.053-0.315-0.063c-0.047-0.053-0.135-0.103-0.264-0.149
			c-0.13-0.048-0.214-0.082-0.253-0.105c-0.063-0.113-0.187-0.229-0.366-0.346c-0.181-0.116-0.296-0.201-0.343-0.255
			c-0.04-0.021-0.094-0.1-0.162-0.229c-0.068-0.129-0.142-0.217-0.22-0.262c-0.025-0.092-0.086-0.226-0.184-0.396
			c-0.096-0.172-0.156-0.305-0.182-0.396c-0.104-0.137-0.21-0.405-0.319-0.807c-0.008-0.03-0.032-0.057-0.071-0.08
			c-0.039-0.021-0.063-0.049-0.071-0.079c-0.042-0.153-0.048-0.234-0.017-0.243c-0.079-0.045-0.147-0.143-0.204-0.292
			c-0.058-0.149-0.121-0.231-0.19-0.246l-0.025-0.092c-0.025-0.094-0.095-0.257-0.208-0.489c-0.113-0.233-0.187-0.413-0.22-0.536
			c-0.06-0.215-0.071-0.377-0.034-0.486l-0.163-0.055c-0.018-0.062-0.027-0.125-0.028-0.191c-0.002-0.064-0.01-0.129-0.026-0.19
			l-0.013-0.046c-0.04-0.021-0.063-0.048-0.072-0.079c-0.008-0.031-0.005-0.081,0.009-0.152l0.033-0.059
			c-0.008-0.029-0.028-0.041-0.059-0.033c-0.031,0.008-0.05-0.003-0.059-0.033l-0.079-0.475l-0.098-0.172l-0.037-0.14
			c-0.101-0.37-0.194-0.593-0.281-0.668c-0.018-0.062-0.003-0.131,0.042-0.211c-0.009-0.028-0.038-0.047-0.089-0.05
			c-0.05-0.003-0.064-0.023-0.042-0.063c-0.016-0.062-0.045-0.193-0.083-0.398c-0.04-0.204-0.071-0.353-0.097-0.445
			c-0.051-0.185-0.101-0.303-0.147-0.355c-0.072-0.146-0.15-0.372-0.234-0.682c-0.009-0.029-0.035-0.063-0.078-0.103
			c-0.044-0.038-0.069-0.072-0.077-0.104l-0.038-0.138c-0.017-0.063-0.068-0.164-0.157-0.305c-0.088-0.143-0.146-0.258-0.171-0.353
			c-0.008-0.028-0.012-0.069-0.008-0.121c0.003-0.051,0-0.091-0.009-0.121c-0.079-0.045-0.126-0.131-0.145-0.26
			c-0.019-0.127-0.001-0.214,0.053-0.262l-0.013-0.047c-0.063,0.018-0.101-0.004-0.118-0.066c-0.041-0.153-0.118-0.405-0.23-0.756
			c-0.112-0.35-0.193-0.617-0.243-0.803l-0.189-0.693c-0.092-0.338-0.124-0.577-0.097-0.717c-0.007-0.031-0.022-0.085-0.043-0.162
			c-0.021-0.076-0.067-0.122-0.138-0.137c0.006-0.102-0.036-0.254-0.124-0.461c-0.09-0.207-0.112-0.351-0.066-0.43
			c-0.079-0.044-0.143-0.094-0.189-0.146c-0.009-0.03-0.026-0.092-0.051-0.186c-0.025-0.093-0.027-0.157-0.005-0.197
			c-0.15-0.189-0.271-0.454-0.364-0.793l-0.315-1.154c-0.008-0.03,0.009-0.06,0.051-0.088s0.06-0.058,0.051-0.089
			c-0.017-0.063-0.064-0.114-0.144-0.159c0.022-0.403,0.014-0.682-0.029-0.836c-0.05-0.185-0.139-0.326-0.264-0.424
			c-0.008-0.031-0.012-0.072-0.009-0.122s0-0.091-0.009-0.122c-0.095-0.105-0.155-0.205-0.181-0.298
			c-0.007-0.03-0.018-0.096-0.026-0.19c-0.011-0.098-0.023-0.176-0.04-0.238c-0.009-0.029-0.027-0.065-0.055-0.108
			c-0.029-0.041-0.046-0.078-0.055-0.108c0.059-0.146,0.072-0.284,0.038-0.406c0.06-0.148,0.17-0.346,0.336-0.589
			C27.569,34.885,27.674,34.725,27.72,34.646z"/>
		<path fill="#231F20" d="M52.238,41.014c0.031-0.004,0.073,0.01,0.124,0.035c0.051,0.027,0.092,0.04,0.124,0.036
			c0.381-0.035,0.685-0.047,0.91-0.037c0.066,0.027,0.171,0.032,0.314,0.021c0.143-0.014,0.247-0.007,0.314,0.019l0.251,0.12
			c0.203,0.11,0.369,0.175,0.499,0.194l0.191-0.02c0.158-0.014,0.503,0.066,1.031,0.24c0.115,0.215,0.402,0.46,0.863,0.737
			c0.459,0.278,0.764,0.538,0.914,0.78c0.031-0.003,0.076,0.041,0.131,0.131c0.059,0.092,0.119,0.149,0.187,0.176
			c-0.028,0.035-0.041,0.084-0.034,0.146l0.063,0.14c0.039,0.093,0.047,0.172,0.021,0.238l0.057,0.091
			c0.037,0.062,0.058,0.106,0.061,0.139c0.035,0.029,0.055,0.06,0.059,0.091c0.002,0.032-0.012,0.05-0.043,0.052
			c0.224,0.332,0.357,0.753,0.404,1.262c0.004,0.032-0.013,0.113-0.048,0.245c-0.037,0.132-0.051,0.229-0.045,0.293l0.004,0.047
			l0.058,0.092c0.111,0.182,0.279,0.262,0.502,0.241l0.145-0.015c0.146-0.142,0.396-0.284,0.753-0.431
			c0.354-0.146,0.606-0.272,0.759-0.384l0.332-0.031l0.139-0.062c0.091-0.072,0.248-0.191,0.474-0.355
			c0.224-0.166,0.397-0.285,0.519-0.362c0.36-0.257,0.689-0.513,0.986-0.765l0.498-0.336c0.293-0.283,0.594-0.504,0.898-0.66
			c0.062-0.038,0.152-0.078,0.276-0.123c0.125-0.043,0.232-0.102,0.321-0.174c0.061-0.037,0.135-0.092,0.227-0.166
			c0.088-0.072,0.194-0.13,0.318-0.174c0.364-0.228,0.607-0.346,0.734-0.357c0.191-0.018,0.34,0.018,0.443,0.104
			c0.139,0.115,0.217,0.252,0.231,0.41c0.003,0.031,0.007,0.08,0.013,0.144l-0.043,0.052c-0.072,0.265-0.227,0.502-0.462,0.718
			c-0.028,0.034-0.047,0.108-0.052,0.221c-0.006,0.113-0.023,0.188-0.053,0.222c-0.287,0.349-0.442,0.57-0.465,0.669l-0.093,0.058
			c-0.095,0.009-0.161-0.001-0.194-0.03c-0.022,0.099-0.07,0.192-0.143,0.278c-0.072,0.087-0.121,0.164-0.146,0.229
			c-0.127,0.012-0.232,0.069-0.319,0.174s-0.161,0.159-0.226,0.165c-0.053,0.134-0.183,0.282-0.392,0.446
			c-0.209,0.163-0.342,0.295-0.396,0.396c-0.067-0.024-0.131-0.02-0.19,0.02c-0.062,0.038-0.108,0.058-0.14,0.062
			c-0.022,0.099-0.092,0.218-0.207,0.355c-0.125,0.043-0.274,0.146-0.452,0.307c-0.177,0.16-0.345,0.267-0.499,0.312
			c-0.059,0.069-0.082,0.151-0.073,0.248c-0.093,0.041-0.229,0.116-0.412,0.229c-0.181,0.113-0.334,0.192-0.458,0.235l-0.453,0.282
			c-0.029,0.034-0.152,0.096-0.369,0.18s-0.353,0.177-0.406,0.278c-0.096,0.009-0.211,0.052-0.348,0.128
			c-0.139,0.078-0.238,0.119-0.303,0.125c-0.173,0.209-0.367,0.354-0.584,0.438c-0.095,0.01-0.238,0.022-0.429,0.04
			c-0.191,0.02-0.333,0.048-0.425,0.088l-0.478,0.044c-0.093,0.042-0.149,0.111-0.174,0.209c-0.063,0.006-0.112-0.005-0.147-0.033
			l-0.002-0.049c-0.063,0.039-0.261,0.313-0.598,0.826c-0.214,0.115-0.465,0.349-0.753,0.695s-0.538,0.596-0.747,0.743
			c-0.025,0.065-0.092,0.146-0.195,0.232c-0.104,0.093-0.168,0.169-0.193,0.235c-0.338,0.16-0.841,0.433-1.511,0.815
			c-0.035-0.029-0.083-0.041-0.146-0.035c-0.065,0.006-0.129,0.012-0.191,0.018c-0.059,0.07-0.175,0.113-0.349,0.129
			c-0.175,0.018-0.293,0.045-0.353,0.081c-0.035-0.028-0.069-0.042-0.101-0.038l-0.1-0.039c-0.854,0.112-1.607-0.042-2.255-0.463
			c-0.196-0.045-0.367-0.141-0.508-0.289c-0.032,0.004-0.071,0.007-0.12,0.013c-0.048,0.004-0.072-0.01-0.075-0.041
			c-0.003-0.031-0.038-0.062-0.104-0.087c-0.067-0.024-0.102-0.055-0.104-0.087l-0.053-0.043c-0.031,0.003-0.063,0.005-0.095,0.01
			c-0.032,0.003-0.065-0.011-0.101-0.039l-0.051-0.043c-0.003-0.031-0.014-0.056-0.031-0.069c-0.017-0.014-0.042-0.021-0.073-0.017
			c-0.038-0.062-0.118-0.142-0.239-0.242c-0.122-0.103-0.22-0.204-0.293-0.311c-0.075-0.104-0.115-0.206-0.125-0.301
			c-0.066-0.026-0.127-0.076-0.183-0.151c-0.055-0.073-0.1-0.127-0.135-0.155c-0.041-0.092-0.125-0.229-0.255-0.408
			c-0.129-0.181-0.229-0.315-0.302-0.404c-0.333-0.129-0.517-0.385-0.553-0.766c-0.246-0.234-0.389-0.558-0.427-0.971l-0.01-0.097
			c-0.003-0.031-0.021-0.062-0.057-0.09l-0.008-0.096l0.016-0.338l-0.018-0.191c-0.006-0.063,0.006-0.111,0.034-0.146l0.038-0.102
			l-0.062-0.667c-0.003-0.031,0.016-0.09,0.056-0.174s0.06-0.142,0.057-0.174c0.111-0.522,0.247-0.953,0.407-1.289l0.217-0.26
			l0.038-0.101c0.029-0.035,0.043-0.067,0.039-0.1c0.121-0.076,0.197-0.115,0.229-0.118c0.049-0.165,0.166-0.359,0.354-0.586
			s0.307-0.405,0.358-0.538c0.093-0.041,0.24-0.175,0.443-0.402c0.203-0.227,0.383-0.364,0.539-0.412
			c0.019-0.129,0.103-0.272,0.248-0.432c0.146-0.157,0.232-0.254,0.261-0.289c0.028-0.033,0.081-0.087,0.154-0.158
			c0.073-0.069,0.124-0.123,0.153-0.157c0.061-0.037,0.139-0.063,0.234-0.07c0.095-0.009,0.173-0.031,0.233-0.07
			c0.061-0.037,0.166-0.104,0.318-0.197c0.151-0.094,0.273-0.161,0.365-0.202l0.429-0.04c0.16-0.016,0.31-0.044,0.449-0.09
			C52.025,41.05,52.144,41.022,52.238,41.014z M50.59,48.573l-0.144,0.014c-0.052,0.135-0.074,0.319-0.067,0.561
			c0.006,0.24-0.002,0.408-0.025,0.508c0.034,0.028,0.072,0.088,0.114,0.181c0.039,0.094,0.093,0.152,0.16,0.178l0.044,0.478
			c0.097-0.009,0.231,0.074,0.409,0.251l1.001-0.095c0.083-0.137,0.278-0.282,0.583-0.439c0.307-0.155,0.504-0.271,0.594-0.343
			c0.025-0.066,0.017-0.162-0.026-0.287c-0.035-0.027-0.264-0.071-0.686-0.128c-0.104-0.087-0.172-0.128-0.203-0.126
			c-0.035-0.027-0.117-0.037-0.243-0.024c-0.175-0.144-0.294-0.213-0.356-0.208l-0.048,0.007l-0.104-0.089
			c-0.096,0.011-0.161,0-0.195-0.028l-0.109-0.134c-0.035-0.028-0.1-0.039-0.195-0.03C50.789,48.65,50.621,48.57,50.59,48.573z
			 M53.191,44.002c-0.063,0.006-0.156,0.047-0.277,0.122c-0.121,0.076-0.214,0.116-0.276,0.122c-0.062,0.038-0.12,0.092-0.178,0.161
			c-0.059,0.069-0.103,0.105-0.134,0.108c-0.128,0.012-0.318,0.207-0.571,0.582l0.015,0.144l-0.169,0.257
			c-0.109,0.201-0.227,0.325-0.351,0.369c0.037,0.061,0.102,0.143,0.192,0.246c0.088,0.104,0.136,0.172,0.139,0.203l0.165,0.225
			c0.037,0.063,0.124,0.126,0.258,0.193c0.135,0.066,0.223,0.146,0.264,0.24c0.26,0.039,0.459,0.116,0.599,0.231
			c0.424,0.088,0.723,0.189,0.894,0.301c0.063-0.006,0.138,0.012,0.222,0.052c0.083,0.041,0.141,0.059,0.173,0.057
			c0.031-0.004,0.089,0.008,0.171,0.031c0.082,0.024,0.156,0.042,0.222,0.052c0.065,0.011,0.129,0.012,0.193,0.007
			c0.095-0.01,0.203-0.051,0.324-0.127c0.197-0.628,0.293-0.973,0.287-1.037l-0.013-0.143c0.083-0.138,0.119-0.269,0.106-0.396
			c-0.004-0.03-0.02-0.109-0.047-0.234s-0.043-0.222-0.051-0.284c-0.002-0.031,0-0.098,0.006-0.192
			c0.008-0.098,0.008-0.178,0.002-0.241l-0.008-0.095c-0.039-0.061-0.095-0.137-0.166-0.226c-0.072-0.089-0.109-0.149-0.113-0.183
			c-0.047-0.154-0.104-0.263-0.174-0.319c-0.107-0.118-0.363-0.198-0.769-0.241C53.723,43.945,53.41,43.949,53.191,44.002z"/>
		<path fill="#231F20" d="M65.325,40.754l0.478,0.041c0.223,0.021,0.575,0.193,1.061,0.523c0.023,0.098,0.092,0.248,0.203,0.449
			c0.109,0.2,0.16,0.366,0.149,0.492l-0.017,0.19c-0.006,0.064,0.021,0.131,0.078,0.199c0.059,0.069,0.086,0.12,0.084,0.15
			l-0.032,0.383c0.052,0.133,0.071,0.295,0.055,0.485c-0.006,0.063,0.021,0.129,0.078,0.198c-0.051,0.604-0.073,1.051-0.065,1.34
			c-0.002,0.032,0.011,0.081,0.035,0.147c0.026,0.065,0.039,0.114,0.036,0.146l-0.021,0.238c-0.006,0.063,0.005,0.129,0.031,0.195
			c0.024,0.065,0.037,0.115,0.035,0.146c0.021,0.13,0.004,0.329-0.051,0.597c-0.056,0.269-0.072,0.468-0.051,0.597
			c-0.008,0.063,0.018,0.153,0.072,0.271c0.054,0.118,0.094,0.208,0.121,0.274c-0.03,0.351-0.037,0.604-0.019,0.768
			c-0.003,0.032,0.011,0.065,0.039,0.101c0.062,0.037,0.09,0.088,0.083,0.15c0.029,0.034,0.08,0.096,0.152,0.182
			s0.14,0.147,0.201,0.186c0.131-0.053,0.205-0.158,0.22-0.317c0.069-0.091,0.175-0.272,0.311-0.55
			c0.136-0.276,0.259-0.475,0.363-0.594c0.034-0.029,0.097-0.104,0.188-0.225c0.09-0.12,0.154-0.228,0.194-0.32
			c0.034-0.028,0.088-0.104,0.164-0.228c0.073-0.12,0.13-0.212,0.167-0.272c0.352-0.354,0.551-0.642,0.604-0.861
			c0.035-0.061,0.324-0.437,0.865-1.128c0.032-0.027,0.077-0.081,0.133-0.157c0.054-0.073,0.1-0.127,0.133-0.155
			c0.076-0.153,0.162-0.299,0.254-0.436c0.092-0.136,0.208-0.286,0.352-0.451c0.141-0.162,0.248-0.291,0.32-0.38
			c0.098-0.023,0.216-0.103,0.355-0.233c0.14-0.133,0.26-0.211,0.356-0.234c0.034-0.028,0.101-0.039,0.194-0.031
			c0.096,0.009,0.16-0.002,0.195-0.03c0.03,0.002,0.098-0.023,0.197-0.079c0.1-0.057,0.2-0.096,0.301-0.118
			c0.03,0.002,0.104-0.008,0.219-0.03c0.113-0.021,0.218-0.029,0.313-0.021l0.048,0.005c0.028,0.034,0.06,0.053,0.093,0.055
			c0.051,0.134,0.188,0.241,0.403,0.323c0.177,0.56,0.263,0.872,0.257,0.935c-0.017,0.191,0.004,0.338,0.059,0.438
			c-0.036,0.063-0.098,0.104-0.18,0.129s-0.123,0.055-0.127,0.086l-0.008,0.096c-0.017,0.19-0.169,0.466-0.455,0.826l0.045,0.051
			l-0.006,0.049c-0.013,0.158-0.124,0.325-0.33,0.5c-0.037,0.062-0.152,0.181-0.343,0.355c-0.19,0.176-0.294,0.344-0.308,0.502
			l-0.004,0.047c0.027,0.035,0.041,0.068,0.039,0.101c-0.041,0.094-0.107,0.136-0.203,0.127l-0.008,0.096
			c-0.027,0.318-0.156,0.5-0.383,0.545L73.05,47.66l0.043,0.052c-0.034,0.03-0.069,0.06-0.103,0.087
			c-0.035,0.029-0.069,0.06-0.104,0.089c0.024,0.065,0.02,0.139-0.02,0.215c-0.039,0.075-0.061,0.131-0.063,0.162l-0.009,0.096
			c-0.346,0.291-0.524,0.516-0.538,0.675l-0.009,0.096l-0.153,0.132l-0.025,0.285l-0.297,0.119
			c-0.037,0.029-0.041,0.077-0.014,0.144l0.039,0.1l-0.009,0.096c-0.037,0.063-0.058,0.107-0.06,0.14l-0.336,0.549
			c-0.037,0.061-0.062,0.154-0.071,0.281c-0.037,0.063-0.116,0.149-0.239,0.268c-0.122,0.119-0.203,0.224-0.242,0.316l-0.056,0.092
			c-0.037,0.061-0.091,0.104-0.156,0.131c-0.008,0.095-0.062,0.228-0.153,0.395c-0.095,0.168-0.146,0.302-0.152,0.396
			c-0.068,0.026-0.137,0.077-0.206,0.151c-0.07,0.073-0.123,0.126-0.157,0.153l-0.238-0.021c-0.035,0.03-0.061,0.14-0.076,0.329
			c-0.295,0.071-0.582,0.256-0.862,0.552c-0.132,0.021-0.354,0.019-0.673-0.009c-0.254-0.021-0.432-0.021-0.528,0.002l-0.66-0.151
			c-0.048-0.196-0.153-0.253-0.321-0.173c-0.062-0.035-0.215-0.113-0.461-0.23l0.008-0.096c0.004-0.031-0.012-0.049-0.043-0.052
			c-0.156-0.045-0.301-0.146-0.432-0.301c-0.131-0.155-0.242-0.237-0.339-0.245c-0.159-0.398-0.489-0.826-0.996-1.287l0.052-0.043
			l0.006-0.048c0.002-0.031-0.041-0.091-0.131-0.18c-0.088-0.088-0.129-0.163-0.123-0.228c-0.064-0.005-0.117-0.05-0.158-0.134
			c-0.041-0.082-0.076-0.126-0.107-0.129c0.002-0.031-0.01-0.088-0.034-0.172c-0.024-0.081-0.02-0.152,0.019-0.215
			c-0.029-0.033-0.059-0.068-0.088-0.104c-0.027-0.035-0.058-0.069-0.086-0.104c-0.024-0.099-0.07-0.206-0.142-0.324
			c-0.069-0.117-0.104-0.191-0.101-0.225c0.016-0.189-0.062-0.421-0.229-0.691c0.003-0.031,0.013-0.056,0.029-0.07
			c0.019-0.014,0.026-0.037,0.03-0.069c0.002-0.03-0.027-0.05-0.092-0.056l-0.043-0.052c-0.024-0.1-0.051-0.252-0.08-0.464
			c-0.031-0.21-0.058-0.364-0.082-0.464l-0.086-0.104c0.002-0.031,0.008-0.087,0.014-0.167c0.007-0.079-0.004-0.136-0.033-0.171
			c0.003-0.031-0.018-0.082-0.061-0.149c-0.041-0.066-0.061-0.133-0.055-0.195c0.002-0.031,0.041-0.109,0.116-0.23l-0.136-0.107
			c0.005-0.063-0.008-0.272-0.043-0.629c-0.033-0.354-0.043-0.629-0.025-0.818c0.023-0.286,0.074-0.489,0.146-0.612
			c0.007-0.063-0.022-0.098-0.086-0.104l-0.097-0.009c0.075-0.121,0.146-0.194,0.212-0.223c-0.022-0.098-0.025-0.258-0.007-0.48
			c0.009-0.096,0.029-0.245,0.062-0.45c0.035-0.205,0.058-0.371,0.066-0.499l-0.021-0.29c0.046-0.156,0.146-0.332,0.309-0.527
			c0.161-0.193,0.262-0.338,0.301-0.43c0.104-0.088,0.465-0.186,1.084-0.293C64.969,40.805,65.198,40.743,65.325,40.754z"/>
		<path fill="#231F20" d="M82.48,43.662c0.742,0.563,1.152,1.002,1.233,1.321c0.097,0.126,0.203,0.318,0.315,0.58
			c0.111,0.261,0.205,0.436,0.281,0.521c-0.009,0.03-0.006,0.081,0.008,0.151c0.016,0.07-0.002,0.131-0.049,0.185
			c0.076,0.087,0.125,0.216,0.146,0.387c0.02,0.171,0.057,0.278,0.109,0.326c-0.024,0.094-0.027,0.198-0.012,0.319
			c0.019,0.121,0.02,0.211,0.002,0.273c0.127,0.265,0.18,0.442,0.154,0.535c-0.018,0.063-0.046,0.137-0.085,0.227
			c-0.041,0.088-0.065,0.147-0.073,0.178c-0.017,0.063-0.01,0.163,0.02,0.303c-0.1,0.37-0.143,0.591-0.127,0.66
			c-0.039,0.023-0.1,0.121-0.18,0.299s-0.16,0.288-0.236,0.333c0.044,0.078,0.037,0.227-0.021,0.44l-0.086,0.324
			c-0.101,0.007-0.209,0.067-0.323,0.187c-0.113,0.119-0.205,0.186-0.274,0.198c-0.089,0.209-0.263,0.394-0.521,0.556
			c-0.26,0.162-0.436,0.299-0.529,0.403c-0.036,0.256,0.012,0.516,0.14,0.781l0.092,0.023c0.093,0.024,0.199,0.028,0.319,0.012
			c0.119-0.018,0.211-0.019,0.273-0.002l0.092,0.024c0.108-0.037,0.289-0.063,0.541-0.078s0.412-0.029,0.482-0.045
			c0.698-0.143,1.125-0.194,1.279-0.153c0.212-0.175,0.337-0.272,0.376-0.296c0.03,0.009,0.058,0.032,0.081,0.07l0.033,0.06
			l0.457-0.226c0.062,0.018,0.134-0.005,0.216-0.065s0.17-0.078,0.263-0.054l0.092,0.024c0.305-0.149,0.908-0.368,1.812-0.656
			c0.069-0.015,0.167-0.005,0.29,0.028c0.029,0.008,0.101-0.006,0.21-0.044c0.108-0.036,0.198-0.063,0.269-0.077
			c0.063,0.018,0.145,0.021,0.244,0.016c0.102-0.005,0.166-0.004,0.197,0.004c0.102-0.006,0.246-0.059,0.438-0.155
			c0.191-0.098,0.338-0.148,0.438-0.155c0.093,0.024,0.174,0.03,0.243,0.016c0.063,0.018,0.15-0.009,0.269-0.077
			c0.333-0.01,0.515-0.011,0.546-0.002l0.094,0.024c0.068-0.014,0.15-0.009,0.244,0.016l0.832,0.224
			c0.098,0.125,0.145,0.262,0.139,0.409c-0.008,0.146-0.039,0.327-0.096,0.543c-0.06,0.217-0.084,0.375-0.078,0.475
			c-0.25,0.066-0.39,0.096-0.42,0.088c-0.33,0.373-0.563,0.561-0.693,0.557L91.861,54c-0.377,0.165-0.623,0.348-0.741,0.545
			l-0.093-0.022c-0.094-0.025-0.205,0.026-0.34,0.155c-0.363,0.003-0.758,0.179-1.182,0.527c-0.093-0.024-0.209,0.01-0.352,0.104
			c-0.141,0.095-0.245,0.148-0.314,0.163c-0.07,0.014-0.16,0.015-0.273,0.002c-0.111-0.015-0.203-0.015-0.271,0.001
			c-0.031-0.01-0.063,0.017-0.095,0.072c-0.032,0.06-0.063,0.082-0.095,0.074c-0.092-0.023-0.227,0.014-0.401,0.115
			c-0.177,0.102-0.326,0.137-0.449,0.104c-0.03-0.008-0.065-0.001-0.104,0.021c-0.047,0.055-0.103,0.072-0.164,0.056
			c-0.039,0.022-0.063,0.05-0.069,0.079c-0.009,0.031-0.032,0.06-0.071,0.081c-0.762,0.128-1.156,0.188-1.188,0.179
			c-0.18,0.052-0.428,0.117-0.747,0.196c-0.318,0.081-0.532,0.14-0.642,0.176c-0.055-0.047-0.127-0.083-0.22-0.107
			s-0.209-0.022-0.349,0.006c-0.141,0.029-0.24,0.035-0.303,0.019c-0.287,0.089-0.463,0.124-0.523,0.107
			c-0.092-0.024-0.15-0.057-0.173-0.096c-0.031-0.01-0.068,0.007-0.11,0.045c-0.044,0.038-0.081,0.053-0.111,0.045l-0.602-0.161
			c-0.729,0.004-1.37-0.068-1.925-0.217c-0.37-0.1-0.666-0.229-0.888-0.388c-0.056-0.047-0.1-0.065-0.133-0.06
			c-0.035,0.008-0.068,0.007-0.1-0.001c-0.783-0.408-1.415-0.891-1.895-1.447c0.039-0.022,0.049-0.055,0.025-0.094l-0.033-0.059
			c-0.093-0.024-0.182-0.064-0.266-0.12c-0.016-0.069-0.063-0.206-0.139-0.409c-0.08-0.201-0.104-0.351-0.08-0.442
			c-0.27-0.104-0.383-0.3-0.34-0.586c-0.03-0.009-0.066-0.025-0.108-0.054s-0.095-0.051-0.155-0.066
			c-0.279-0.438-0.469-1.216-0.566-2.332c0.07-0.014,0.091-0.059,0.061-0.133c-0.029-0.074-0.04-0.127-0.031-0.157
			c0.008-0.029,0.031-0.058,0.07-0.08l0.014-0.046l-0.057-0.164c-0.007-0.102,0.044-0.352,0.15-0.752l0.063-0.23
			c0.034-0.123,0.055-0.325,0.063-0.604c0.01-0.278,0.029-0.479,0.063-0.603l0.137-0.509c0.031,0.009,0.064-0.024,0.101-0.098
			c0.036-0.071,0.069-0.104,0.101-0.098c-0.021-0.039-0.025-0.089-0.009-0.15c0.024-0.094,0.106-0.219,0.249-0.38l-0.021-0.104
			c-0.015-0.07-0.018-0.121-0.01-0.152c0.057-0.084,0.152-0.23,0.292-0.441s0.273-0.372,0.403-0.486
			c0.129-0.114,0.268-0.2,0.415-0.261c0.05-0.187,0.177-0.316,0.379-0.396c0.202-0.077,0.331-0.158,0.388-0.243
			c0.069-0.014,0.172-0.027,0.309-0.042c0.136-0.014,0.238-0.025,0.309-0.041c0.219-0.073,0.503-0.213,0.854-0.416
			c0.031,0.009,0.086-0.01,0.164-0.055c0.304-0.02,0.522-0.042,0.664-0.071c0.068-0.014,0.162-0.021,0.278-0.023
			c0.115-0.002,0.208-0.011,0.278-0.024l0.314-0.063c0.029,0.008,0.057,0.031,0.08,0.07l0.092,0.024
			c0.203-0.012,0.35-0.006,0.441,0.019c0.063,0.018,0.137,0.045,0.227,0.085c0.086,0.04,0.146,0.064,0.178,0.073
			C82.346,43.676,82.41,43.677,82.48,43.662z M80.996,47.924l-0.059,0.034l-0.187-0.05c-0.618-0.164-0.979-0.046-1.087,0.354
			c-0.016,0.062-0.048,0.119-0.096,0.173l-0.188,0.147c-0.023,0.092-0.068,0.254-0.129,0.484c-0.063,0.231-0.105,0.395-0.131,0.485
			c-0.057,0.085-0.107,0.22-0.157,0.404c-0.032,0.123-0.042,0.22-0.026,0.289c0.104,0.096,0.221,0.159,0.345,0.192
			c0.309,0.082,0.745,0.05,1.313-0.096c0.258-0.098,0.432-0.197,0.526-0.306c0.039-0.021,0.094-0.041,0.165-0.056
			c0.068-0.015,0.107-0.037,0.115-0.067c0.16-0.222,0.279-0.487,0.363-0.796c0.082-0.308,0.088-0.521,0.021-0.639
			C81.413,48.152,81.148,47.965,80.996,47.924z"/>
	</g>
	<g>
		<path fill="#FFFFFF" d="M16.44,92.635h0.16c0.161,0.161,0.522,0.321,1.085,0.482s0.897,0.35,1.005,0.563h0.482
			c0.106,0.269,0.401,0.603,0.884,1.005c0.482,0.4,0.724,0.683,0.724,0.844l0.724-0.482c0.106-0.053,0.253-0.093,0.441-0.12
			c0.188-0.025,0.348-0.065,0.482-0.12c0.133-0.054,0.294-0.094,0.482-0.12c0.187-0.026,0.361-0.066,0.522-0.121
			c0.053,0,0.201-0.053,0.441-0.16c0.241-0.107,0.415-0.161,0.522-0.161h0.161c0.053,0,0.321-0.04,0.804-0.12
			c0.482-0.081,0.83-0.121,1.045-0.121c0.374,0,0.643,0.028,0.804,0.081h0.401c0.856,0,1.339,0.027,1.447,0.08
			c0.053,0,0.106,0.027,0.16,0.08c0.053,0.054,0.094,0.095,0.121,0.121c0.026,0.027,0.066,0.04,0.12,0.04h0.402
			c0.428,0.321,0.749,0.51,0.964,0.563c0.161,0.055,0.375,0.095,0.644,0.12c0.268,0.028,0.428,0.04,0.482,0.04
			c0.321,0.161,0.508,0.241,0.563,0.241c0.91,0.804,1.366,1.527,1.366,2.17c0,0.055,0.026,0.135,0.08,0.241
			c0.161,0.161,0.214,0.322,0.161,0.482v0.079h0.08c0.053,0,0.093,0,0.12,0c0.026,0,0.04,0.028,0.04,0.081
			c0,0.216,0.067,0.522,0.201,0.925c0.134,0.401,0.201,0.736,0.201,1.005v0.161c0.053,0.054,0.294,0.51,0.724,1.365
			c-0.055,0.107-0.081,0.321-0.081,0.644c0,0.054-0.054,0.241-0.16,0.563c0,0.055,0.026,0.096,0.08,0.121
			c0.053,0.027,0.08,0.067,0.08,0.12c0,0.054-0.027,0.108-0.08,0.161v0.16c0,0.054,0.066,0.161,0.201,0.32
			c0.133,0.161,0.201,0.297,0.201,0.402c0,0.16-0.041,0.39-0.121,0.684c-0.08,0.296-0.12,0.495-0.12,0.604v0.241
			c-0.215,0.964-0.536,1.876-0.965,2.731c-0.161,0-0.295,0.135-0.401,0.401c-0.108,0.269-0.215,0.402-0.322,0.402
			c0.053,0.215,0.254,0.4,0.604,0.563c0.348,0.16,0.549,0.27,0.603,0.321c0.106,0.107,0.268,0.281,0.482,0.521
			c0.213,0.241,0.374,0.416,0.481,0.522c0.053,0,0.107,0.027,0.161,0.08c0.053,0.054,0.106,0.054,0.161,0l0.481,0.481
			c0,0.161,0.026,0.295,0.081,0.401c0.106,0.108,0.428,0.482,0.964,1.126v0.401c0.107,0.161,0.254,0.456,0.442,0.884
			c0.188,0.43,0.361,0.724,0.522,0.885c-0.054,0.107-0.08,0.229-0.08,0.361c0,0.135,0,0.255,0,0.36l0.723,1.447
			c0,0.054-0.027,0.188-0.08,0.401c0.053,0.161,0.188,0.401,0.402,0.724c-0.055,0.054-0.028,0.295,0.08,0.725
			c-0.054,0.054-0.08,0.32-0.08,0.804c0,0.16-0.028,0.361-0.081,0.603c-0.054,0.241-0.08,0.416-0.08,0.522
			c0,0.16,0.053,0.416,0.161,0.764c0.106,0.35,0.16,0.576,0.16,0.684c-0.321,0.804-0.482,1.285-0.482,1.446
			c0,0.055,0.013,0.12,0.04,0.2c0.026,0.081,0.041,0.148,0.041,0.201c0,0.108-0.041,0.229-0.121,0.361
			c-0.08,0.135-0.12,0.229-0.12,0.281c-0.321,0.43-0.563,0.776-0.724,1.044l-0.241,0.081c0,0.16-0.08,0.35-0.241,0.563
			c-0.16,0.215-0.241,0.43-0.241,0.643c-0.16,0-0.295,0.121-0.401,0.362c-0.108,0.24-0.241,0.361-0.402,0.361
			c-0.054,0.481-0.321,0.856-0.804,1.125c-0.054,0.054-0.134,0.135-0.241,0.24c-0.214,0.216-0.375,0.321-0.481,0.321
			c-0.161,0.321-0.35,0.591-0.563,0.804c-0.108,0-0.215,0.04-0.322,0.121c-0.107,0.08-0.229,0.188-0.361,0.321
			c-0.135,0.134-0.255,0.229-0.361,0.281c-0.055,0-0.121,0-0.201,0c-0.08,0-0.148,0.026-0.201,0.08
			c-0.107,0.054-0.241,0.175-0.401,0.36c-0.161,0.188-0.295,0.311-0.402,0.362c-0.482,0.107-1.125,0.215-1.929,0.321
			c-0.804,0.107-1.34,0.188-1.607,0.241c-0.108,0-0.269,0.054-0.482,0.16c-0.269,0-0.616-0.025-1.045-0.081
			c-0.429-0.053-0.804-0.105-1.125-0.159c-0.054-0.107-0.16-0.188-0.321-0.241s-0.269-0.107-0.321-0.161
			c-0.965-0.16-2.063-0.615-3.295-1.366c-0.108,0.108-0.229,0.27-0.362,0.482c-0.134,0.215-0.241,0.389-0.321,0.521
			c-0.08,0.133-0.201,0.27-0.361,0.401c-0.161,0.135-0.35,0.229-0.563,0.281c-0.322,0.591-1.233,0.938-2.733,1.045
			c-0.16,0-0.884-0.08-2.17-0.241c-0.429,0-0.804-0.053-1.125-0.16c-0.536-0.106-0.964-0.268-1.286-0.481
			c-0.429-0.43-0.911-1.046-1.446-1.85c-0.215-0.268-0.402-0.535-0.563-0.804l-0.241-1.125c-0.054-0.106-0.135-0.241-0.241-0.402
			c-0.108-0.16-0.188-0.294-0.241-0.4c-0.054-0.106-0.08-0.269-0.08-0.482c0-0.105,0.026-0.321,0.08-0.643
			c0.053-0.322,0.053-0.563,0-0.725c-0.054-0.053-0.12-0.105-0.201-0.161c-0.08-0.053-0.147-0.105-0.2-0.159v-0.402
			c-0.161-0.106-0.255-0.269-0.281-0.481c-0.028-0.214-0.041-0.469-0.041-0.764c0-0.294-0.027-0.522-0.08-0.684
			c0-0.054,0-0.106,0-0.16c0.106,0,0.134-0.054,0.08-0.161c-0.16-0.429-0.24-0.884-0.24-1.366v-2.01
			c0-0.534-0.028-0.938-0.081-1.205c0.053-0.053,0.081-0.133,0.081-0.241c0-0.105,0.026-0.161,0.08-0.161
			c0-0.213-0.054-0.374-0.161-0.48c0.053-0.75,0.053-1.835,0-3.256c-0.054-1.419-0.08-2.344-0.08-2.772
			c0-0.053,0.026-0.105,0.08-0.16c0.053-0.053,0.081-0.106,0.081-0.161c-0.055-0.16-0.081-0.455-0.081-0.884s0.134-1.5,0.402-3.215
			c0.053,0,0.093-0.066,0.12-0.201c0.026-0.133,0.093-0.173,0.201-0.12c-0.054-0.053-0.08-0.134-0.08-0.24c0-0.107,0-0.188,0-0.241
			l-0.081-0.161c-0.054-0.053-0.08-0.106-0.08-0.16c0-0.161,0.013-0.389,0.04-0.684c0.026-0.294,0.066-0.655,0.121-1.085
			c0.053-0.43,0.08-0.75,0.08-0.966c0.106-1.23,0.321-1.9,0.643-2.009c0-0.105-0.054-0.174-0.16-0.201
			c-0.108-0.025-0.161-0.065-0.161-0.12l0.161-0.16c0.053-0.054,0.053-0.08,0-0.08l-0.161-0.08c0.321-1.339,0.482-2.036,0.482-2.09
			l-0.08-0.081c-0.055-0.054-0.055-0.106,0-0.16c0.053-0.106,0.08-0.415,0.08-0.925c0-0.509,0.08-0.896,0.241-1.165
			c0-0.054,0.026-0.241,0.08-0.563c0.053-0.321,0.106-0.589,0.161-0.804l0.321-0.644l0.161-0.563l0.723-0.24
			c0.429-0.429,0.75-0.724,0.965-0.885c0.482-0.053,0.964-0.188,1.446-0.401c0.053,0.055,0.241,0.08,0.563,0.08l0.402-0.08v-0.159
			H16.44z M23.433,99.709c-0.43,0-0.912,0.214-1.447,0.644c-0.16,0-0.321-0.026-0.481-0.08c-0.27,0.643-0.402,1.045-0.402,1.205
			c0.321,0.269,0.482,0.51,0.482,0.724c0,0.16-0.094,0.415-0.281,0.764c-0.188,0.35-0.281,0.604-0.281,0.764
			c0,0.161,0.066,0.376,0.201,0.644c0.133,0.27,0.2,0.456,0.2,0.563c0,0.054-0.027,0.107-0.08,0.161
			c-0.054,0-0.094,0.026-0.12,0.079c-0.028,0.055-0.041,0.107-0.041,0.16c0.107,0.215,0.161,0.431,0.161,0.645
			c0,0.16-0.054,0.295-0.161,0.4c0.107,0.056,0.254,0.148,0.442,0.281c0.188,0.135,0.388,0.229,0.603,0.281
			c0.107-0.053,0.214-0.188,0.322-0.401l2.974-0.724c1.338-0.16,2.089-0.294,2.25-0.401c0.535-0.268,0.804-0.67,0.804-1.206
			c0-0.16-0.014-0.32-0.04-0.481c-0.027-0.16-0.068-0.361-0.121-0.604c-0.054-0.241-0.08-0.414-0.08-0.521
			c-0.054-0.054-0.135-0.106-0.241-0.16c-0.215-0.161-0.349-0.269-0.401-0.321c-0.055-0.054-0.135-0.106-0.241-0.161
			c-0.215-0.105-0.321-0.188-0.321-0.24l-0.644-0.321c0-0.106-0.16-0.254-0.482-0.442c-0.321-0.187-0.51-0.36-0.563-0.521
			c-0.215-0.054-0.481-0.173-0.804-0.361c-0.321-0.188-0.563-0.281-0.723-0.281C23.807,99.736,23.646,99.709,23.433,99.709z
			 M22.308,114.497c-0.215,0.27-0.376,0.857-0.482,1.769c-0.054,0.16-0.08,0.401-0.08,0.724v0.241c0,0.054,0.053,0.188,0.16,0.4
			c0.106,0.216,0.161,0.351,0.161,0.402c0,0.054-0.04,0.147-0.121,0.281c-0.08,0.134-0.12,0.229-0.12,0.28
			c0,0.055-0.027,0.281-0.08,0.684c-0.055,0.402-0.161,0.711-0.322,0.925c0.268,0.054,0.402,0.401,0.402,1.045
			c0,0.27,0.106,0.481,0.321,0.644c-0.108,0.215-0.161,0.376-0.161,0.481c0,0.16,0.041,0.361,0.121,0.604
			c0.08,0.241,0.12,0.416,0.12,0.521c0,0.161-0.054,0.295-0.16,0.402c0.321,0.106,0.401,0.295,0.241,0.563
			c0.16,0.055,0.348,0.241,0.563,0.563c-0.269,0.16-0.402,0.295-0.402,0.4c0,0.161,0.201,0.416,0.603,0.765
			c0.402,0.35,0.63,0.603,0.684,0.764c0.482,0.054,1.071,0.027,1.769-0.08c0.695-0.106,1.178-0.161,1.446-0.161
			c0-0.053,0.08-0.188,0.241-0.4h0.401c0.107-0.161,0.389-0.35,0.845-0.563c0.454-0.213,0.735-0.374,0.844-0.48
			c0.106-0.107,0.268-0.35,0.481-0.725c0.214-0.374,0.455-0.643,0.724-0.804c0.161-0.535,0.268-0.91,0.321-1.125
			c0-0.107-0.08-0.201-0.241-0.281c-0.16-0.081-0.269-0.174-0.321-0.28v-0.241c0-0.107,0.04-0.269,0.121-0.482
			c0.08-0.214,0.12-0.374,0.12-0.481c0-0.106-0.027-0.201-0.08-0.281c-0.054-0.08-0.08-0.146-0.08-0.201v-0.804
			c0-0.481-0.055-0.856-0.161-1.125l-0.643-0.644c-0.108-0.161-0.241-0.294-0.402-0.401c-0.161-0.16-0.496-0.349-1.005-0.563
			c-0.51-0.213-0.897-0.428-1.165-0.643c-0.054,0-0.135,0.014-0.241,0.04c-0.108,0.026-0.215,0.014-0.321-0.04
			c-1.555-0.856-2.841-1.394-3.857-1.607C22.44,114.577,22.36,114.551,22.308,114.497z"/>
	</g>
	<path fill="#BE1E2D" d="M82.982,68.615c0.576,9.929-9.325,23.38-12.393,32.856c-2.152,6.641-3.918,23.979-12.34,26.248
		c-16.807,4.479-37.108-38.952-38.555-51.754c-1.055-9.26,2.35-23.366,13.9-19.524c10.465,3.462,8.872,16.796,12.68,24.433
		C49.433,55.9,81.382,41.559,82.982,68.615z"/>
	<g>
		<path fill="#A78056" d="M34.26,68.769c2.004,1.241,5.796,3.654,8.211,3.599c-0.208-1.385-2.632-2.261-3.798-3.048
			c-1.334-0.898-2.551-2.032-3.936-3.003c-2.344-1.646-5.685-3.851-8.454-4.457C26.228,62.122,31.574,67.104,34.26,68.769z"/>
		<path fill="#A78056" d="M31.748,76.406c2.208,1.232,6.398,3.638,8.912,3.337c-0.346-1.57-2.959-2.344-4.251-3.132
			c-1.479-0.902-2.856-2.089-4.393-3.068c-2.602-1.663-6.303-3.871-9.251-4.298C22.733,69.552,28.785,74.756,31.748,76.406z"/>
		<path fill="#A78056" d="M27.544,79.933c2.704,1.264,7.829,3.723,11.051,3.714c-0.305-1.369-3.563-2.279-5.137-3.079
			c-1.801-0.91-3.453-2.059-5.323-3.043c-3.166-1.673-1.892,0.187-5.6-0.467C22.46,77.315,23.921,78.239,27.544,79.933z"/>
		<g>
			<path fill="#A78056" d="M56.083,91.535c3.181,2.163,9.202,6.367,13.047,6.244c-0.317-2.431-4.171-3.946-6.021-5.316
				c-2.115-1.563-4.045-3.547-6.239-5.24c-3.72-2.867-9.025-6.709-13.431-7.748C43.347,79.936,51.818,88.639,56.083,91.535z"/>
			<path fill="#A78056" d="M65.807,77.382c2.9,1.649,8.404,4.854,11.893,4.798c-0.309-1.824-3.82-2.995-5.514-4.04
				c-1.934-1.192-3.703-2.694-5.709-3.983c-3.4-2.184-8.25-5.112-12.253-5.929C54.144,68.572,61.909,75.171,65.807,77.382z"/>
			<path fill="#A78056" d="M47.733,95.716c2.901,1.649,8.406,4.855,11.893,4.799c-0.312-1.824-3.817-2.997-5.512-4.038
				c-1.934-1.194-3.701-2.696-5.71-3.985c-3.397-2.183-8.252-5.109-12.255-5.928C36.071,86.907,43.836,93.506,47.733,95.716z"/>
			<path fill="#A78056" d="M71.643,71.482c1.504,0.854,4.354,2.514,6.16,2.483c-0.158-0.944-1.978-1.55-2.854-2.091
				c-1.004-0.616-1.92-1.396-2.959-2.063c-1.762-1.131-4.271-2.646-6.348-3.071C65.602,66.919,69.624,70.339,71.643,71.482z"/>
			<path fill="#A78056" d="M36.65,95.028c1.327,0.653,3.841,1.927,5.424,1.918c-0.146-0.715-1.747-1.184-2.519-1.598
				c-0.885-0.473-1.693-1.068-2.611-1.578c-1.553-0.867-0.93,0.1-2.751-0.234C34.156,93.671,34.872,94.15,36.65,95.028z"/>
			<path fill="#A78056" d="M50.098,77.108c2.476,4.27,8.515,5.694,12.541,7.717c4.109,2.063,8.1,5.953,12.588,6.603
				c-0.746-2.81-8.482-6.128-11.232-7.824c-2.559-1.581-12.33-9.571-14.701-7.234L50.098,77.108z"/>
		</g>
	</g>
	<g>
		<path fill="#FFFFFF" d="M46.365,92.635h0.16c0.161,0.161,0.522,0.321,1.085,0.482s0.897,0.35,1.005,0.563h0.482
			c0.106,0.269,0.401,0.603,0.884,1.005c0.482,0.4,0.724,0.683,0.724,0.844l0.724-0.482c0.106-0.053,0.253-0.093,0.441-0.12
			c0.188-0.025,0.348-0.065,0.482-0.12c0.133-0.054,0.294-0.094,0.482-0.12c0.187-0.026,0.361-0.066,0.522-0.121
			c0.053,0,0.201-0.053,0.441-0.16c0.241-0.107,0.415-0.161,0.522-0.161h0.161c0.053,0,0.321-0.04,0.804-0.12
			c0.481-0.081,0.829-0.121,1.045-0.121c0.374,0,0.644,0.028,0.804,0.081h0.401c0.856,0,1.339,0.027,1.446,0.08
			c0.054,0,0.106,0.027,0.16,0.08c0.053,0.054,0.094,0.095,0.121,0.121c0.026,0.027,0.066,0.04,0.12,0.04h0.402
			c0.428,0.321,0.749,0.51,0.964,0.563c0.161,0.055,0.375,0.095,0.645,0.12c0.268,0.028,0.428,0.04,0.481,0.04
			c0.321,0.161,0.508,0.241,0.563,0.241c0.91,0.804,1.365,1.527,1.365,2.17c0,0.055,0.026,0.135,0.08,0.241
			c0.161,0.161,0.215,0.322,0.161,0.482v0.079h0.08c0.053,0,0.093,0,0.12,0c0.025,0,0.04,0.028,0.04,0.081
			c0,0.216,0.067,0.522,0.2,0.925c0.135,0.401,0.201,0.736,0.201,1.005v0.161c0.053,0.054,0.295,0.51,0.725,1.365
			c-0.055,0.107-0.081,0.321-0.081,0.644c0,0.054-0.054,0.241-0.16,0.563c0,0.055,0.026,0.096,0.08,0.121
			c0.053,0.027,0.08,0.067,0.08,0.12c0,0.054-0.027,0.108-0.08,0.161v0.16c0,0.054,0.065,0.161,0.201,0.32
			c0.133,0.161,0.2,0.297,0.2,0.402c0,0.16-0.041,0.39-0.121,0.684c-0.079,0.296-0.119,0.495-0.119,0.604v0.241
			c-0.215,0.964-0.536,1.876-0.965,2.731c-0.161,0-0.295,0.135-0.401,0.401c-0.108,0.269-0.215,0.402-0.321,0.402
			c0.053,0.215,0.254,0.4,0.604,0.563c0.348,0.16,0.549,0.27,0.604,0.321c0.105,0.107,0.268,0.281,0.481,0.521
			c0.213,0.241,0.374,0.416,0.481,0.522c0.053,0,0.106,0.027,0.16,0.08c0.053,0.054,0.106,0.054,0.161,0l0.481,0.481
			c0,0.161,0.025,0.295,0.08,0.401c0.106,0.108,0.429,0.482,0.965,1.126v0.401c0.107,0.161,0.254,0.456,0.441,0.884
			c0.188,0.43,0.361,0.724,0.522,0.885c-0.054,0.107-0.08,0.229-0.08,0.361c0,0.135,0,0.255,0,0.36l0.724,1.447
			c0,0.054-0.027,0.188-0.08,0.401c0.053,0.161,0.188,0.401,0.401,0.724c-0.056,0.054-0.028,0.295,0.08,0.725
			c-0.054,0.054-0.08,0.32-0.08,0.804c0,0.16-0.028,0.361-0.081,0.603c-0.054,0.241-0.08,0.416-0.08,0.522
			c0,0.16,0.053,0.416,0.161,0.764c0.106,0.35,0.16,0.576,0.16,0.684c-0.321,0.804-0.481,1.285-0.481,1.446
			c0,0.055,0.012,0.12,0.039,0.2c0.026,0.081,0.041,0.148,0.041,0.201c0,0.108-0.041,0.229-0.121,0.361
			c-0.08,0.135-0.119,0.229-0.119,0.281c-0.321,0.43-0.563,0.776-0.725,1.044l-0.24,0.081c0,0.16-0.08,0.35-0.242,0.563
			c-0.16,0.215-0.24,0.43-0.24,0.643c-0.16,0-0.295,0.121-0.401,0.362c-0.108,0.24-0.241,0.361-0.401,0.361
			c-0.055,0.481-0.321,0.856-0.805,1.125c-0.054,0.054-0.134,0.135-0.24,0.24c-0.215,0.216-0.375,0.321-0.481,0.321
			c-0.161,0.321-0.351,0.591-0.563,0.804c-0.107,0-0.215,0.04-0.322,0.121c-0.106,0.08-0.229,0.188-0.36,0.321
			c-0.136,0.134-0.255,0.229-0.36,0.281c-0.056,0-0.121,0-0.201,0s-0.148,0.026-0.201,0.08c-0.107,0.054-0.241,0.175-0.401,0.36
			c-0.161,0.188-0.295,0.311-0.401,0.362c-0.482,0.107-1.125,0.215-1.93,0.321c-0.804,0.107-1.34,0.188-1.607,0.241
			c-0.107,0-0.269,0.054-0.481,0.16c-0.269,0-0.616-0.025-1.045-0.081c-0.429-0.053-0.804-0.105-1.125-0.159
			c-0.054-0.107-0.16-0.188-0.321-0.241c-0.16-0.053-0.27-0.107-0.32-0.161c-0.965-0.16-2.063-0.615-3.295-1.366
			c-0.108,0.108-0.229,0.27-0.362,0.482c-0.134,0.215-0.241,0.389-0.321,0.521s-0.201,0.27-0.361,0.401
			c-0.161,0.135-0.35,0.229-0.563,0.281c-0.322,0.591-1.233,0.938-2.733,1.045c-0.16,0-0.884-0.08-2.17-0.241
			c-0.429,0-0.804-0.053-1.125-0.16c-0.536-0.106-0.964-0.268-1.286-0.481c-0.429-0.43-0.911-1.046-1.446-1.85
			c-0.215-0.268-0.402-0.535-0.563-0.804l-0.241-1.125c-0.054-0.106-0.135-0.241-0.241-0.402c-0.108-0.16-0.188-0.294-0.241-0.4
			c-0.054-0.106-0.08-0.269-0.08-0.482c0-0.105,0.026-0.321,0.08-0.643c0.053-0.322,0.053-0.563,0-0.725
			c-0.054-0.053-0.12-0.105-0.201-0.161c-0.08-0.053-0.147-0.105-0.2-0.159v-0.402c-0.161-0.106-0.255-0.269-0.281-0.481
			c-0.028-0.214-0.041-0.469-0.041-0.764c0-0.294-0.027-0.522-0.08-0.684c0-0.054,0-0.106,0-0.16c0.106,0,0.134-0.054,0.08-0.161
			c-0.16-0.429-0.24-0.884-0.24-1.366v-2.01c0-0.534-0.028-0.938-0.081-1.205c0.053-0.053,0.081-0.133,0.081-0.241
			c0-0.105,0.026-0.161,0.08-0.161c0-0.213-0.054-0.374-0.161-0.48c0.053-0.75,0.053-1.835,0-3.256
			c-0.054-1.419-0.08-2.344-0.08-2.772c0-0.053,0.026-0.105,0.08-0.16c0.053-0.053,0.081-0.106,0.081-0.161
			c-0.055-0.16-0.081-0.455-0.081-0.884s0.134-1.5,0.402-3.215c0.053,0,0.093-0.066,0.12-0.201c0.026-0.133,0.093-0.173,0.201-0.12
			c-0.054-0.053-0.08-0.134-0.08-0.24c0-0.107,0-0.188,0-0.241l-0.081-0.161c-0.054-0.053-0.08-0.106-0.08-0.16
			c0-0.161,0.013-0.389,0.04-0.684c0.026-0.294,0.066-0.655,0.121-1.085c0.053-0.43,0.08-0.75,0.08-0.966
			c0.106-1.23,0.321-1.9,0.643-2.009c0-0.105-0.054-0.174-0.16-0.201c-0.108-0.025-0.161-0.065-0.161-0.12l0.161-0.16
			c0.053-0.054,0.053-0.08,0-0.08l-0.161-0.08c0.321-1.339,0.482-2.036,0.482-2.09l-0.08-0.081c-0.055-0.054-0.055-0.106,0-0.16
			c0.053-0.106,0.08-0.415,0.08-0.925c0-0.509,0.08-0.896,0.241-1.165c0-0.054,0.026-0.241,0.08-0.563
			c0.053-0.321,0.106-0.589,0.161-0.804l0.321-0.644l0.161-0.563l0.723-0.24c0.429-0.429,0.75-0.724,0.965-0.885
			c0.482-0.053,0.964-0.188,1.446-0.401c0.053,0.055,0.241,0.08,0.563,0.08l0.402-0.08v-0.159H46.365z M53.357,99.709
			c-0.43,0-0.912,0.214-1.447,0.644c-0.16,0-0.321-0.026-0.481-0.08c-0.27,0.643-0.402,1.045-0.402,1.205
			c0.321,0.269,0.482,0.51,0.482,0.724c0,0.16-0.094,0.415-0.281,0.764c-0.188,0.35-0.281,0.604-0.281,0.764
			c0,0.161,0.066,0.376,0.201,0.644c0.133,0.27,0.2,0.456,0.2,0.563c0,0.054-0.027,0.107-0.08,0.161
			c-0.054,0-0.094,0.026-0.12,0.079c-0.028,0.055-0.041,0.107-0.041,0.16c0.107,0.215,0.161,0.431,0.161,0.645
			c0,0.16-0.054,0.295-0.161,0.4c0.107,0.056,0.254,0.148,0.442,0.281c0.188,0.135,0.388,0.229,0.603,0.281
			c0.107-0.053,0.214-0.188,0.322-0.401l2.974-0.724c1.338-0.16,2.089-0.294,2.25-0.401c0.534-0.268,0.804-0.67,0.804-1.206
			c0-0.16-0.014-0.32-0.04-0.481c-0.026-0.16-0.067-0.361-0.121-0.604c-0.054-0.241-0.079-0.414-0.079-0.521
			c-0.055-0.054-0.136-0.106-0.242-0.16c-0.215-0.161-0.349-0.269-0.4-0.321c-0.055-0.054-0.135-0.106-0.241-0.161
			c-0.215-0.105-0.321-0.188-0.321-0.24l-0.644-0.321c0-0.106-0.16-0.254-0.481-0.442c-0.322-0.187-0.511-0.36-0.563-0.521
			c-0.216-0.054-0.481-0.173-0.804-0.361c-0.321-0.188-0.563-0.281-0.723-0.281C53.731,99.736,53.57,99.709,53.357,99.709z
			 M52.232,114.497c-0.215,0.27-0.376,0.857-0.482,1.769c-0.054,0.16-0.08,0.401-0.08,0.724v0.241c0,0.054,0.053,0.188,0.16,0.4
			c0.106,0.216,0.161,0.351,0.161,0.402c0,0.054-0.04,0.147-0.121,0.281c-0.08,0.134-0.12,0.229-0.12,0.28
			c0,0.055-0.027,0.281-0.08,0.684c-0.055,0.402-0.161,0.711-0.322,0.925c0.268,0.054,0.402,0.401,0.402,1.045
			c0,0.27,0.106,0.481,0.321,0.644c-0.108,0.215-0.161,0.376-0.161,0.481c0,0.16,0.041,0.361,0.121,0.604
			c0.08,0.241,0.12,0.416,0.12,0.521c0,0.161-0.054,0.295-0.16,0.402c0.321,0.106,0.401,0.295,0.241,0.563
			c0.16,0.055,0.348,0.241,0.563,0.563c-0.269,0.16-0.402,0.295-0.402,0.4c0,0.161,0.201,0.416,0.603,0.765
			c0.402,0.35,0.63,0.603,0.684,0.764c0.482,0.054,1.071,0.027,1.769-0.08c0.695-0.106,1.178-0.161,1.445-0.161
			c0-0.053,0.08-0.188,0.242-0.4h0.4c0.107-0.161,0.389-0.35,0.845-0.563c0.454-0.213,0.735-0.374,0.845-0.48
			c0.105-0.107,0.268-0.35,0.48-0.725c0.214-0.374,0.455-0.643,0.725-0.804c0.16-0.535,0.268-0.91,0.32-1.125
			c0-0.107-0.08-0.201-0.24-0.281c-0.16-0.081-0.27-0.174-0.322-0.28v-0.241c0-0.107,0.041-0.269,0.121-0.482
			s0.121-0.374,0.121-0.481c0-0.106-0.027-0.201-0.08-0.281c-0.055-0.08-0.08-0.146-0.08-0.201v-0.804
			c0-0.481-0.056-0.856-0.162-1.125l-0.643-0.644c-0.107-0.161-0.24-0.294-0.402-0.401c-0.16-0.16-0.496-0.349-1.004-0.563
			c-0.511-0.213-0.897-0.428-1.166-0.643c-0.054,0-0.135,0.014-0.24,0.04c-0.108,0.026-0.215,0.014-0.321-0.04
			c-1.555-0.856-2.841-1.394-3.857-1.607C52.365,114.577,52.285,114.551,52.232,114.497z"/>
	</g>
	<g>
		<path fill="#FFFFFF" d="M88.745,93.038h0.241c0.16,0,0.388,0.04,0.683,0.12c0.294,0.08,0.495,0.121,0.603,0.121
			c0.269,0.054,0.67,0.08,1.207,0.08h0.963c0.59,0.107,0.912,0.188,0.966,0.241c0.053,0,0.161,0.08,0.321,0.24
			c0.481,0,0.99,0.216,1.526,0.644c0.321,0,0.669,0.121,1.045,0.36c0.374,0.241,0.695,0.362,0.964,0.362
			c0,0.27,0.188,0.456,0.563,0.563c0.106,0.375,0.188,0.563,0.241,0.563c0.16,0.108,0.389,0.35,0.684,0.725
			c0.294,0.375,0.549,0.615,0.764,0.723c0.106,0.322,0.213,0.51,0.321,0.563c0.054,0.056,0.054,0.121,0,0.201
			s-0.08,0.148-0.08,0.201c0.106,0.215,0.294,0.51,0.563,0.884c0.268,0.376,0.48,0.671,0.643,0.886c0,0.429-0.027,0.67-0.08,0.723
			c0,0.055,0.026,0.081,0.08,0.081c0.214,0,0.374,0.08,0.482,0.24c0.105,0.16,0.201,0.376,0.281,0.644
			c0.08,0.27,0.172,0.456,0.28,0.563c-0.054,0.106-0.08,0.269-0.08,0.481c0,0.27,0.106,0.59,0.321,0.964
			c0.213,0.376,0.348,0.617,0.4,0.725c0,0.107,0,0.28,0,0.521s0.026,0.416,0.082,0.522c0.053,0.106,0.119,0.201,0.199,0.28
			c0.081,0.08,0.121,0.148,0.121,0.201c0.16,0.964,0.268,1.475,0.321,1.526c0,0.055-0.015,0.175-0.04,0.362
			c-0.027,0.188-0.04,0.335-0.04,0.44c0,0.804,0.133,1.476,0.401,2.01c0,0.644,0.025,1.205,0.08,1.688
			c0,0.161,0.054,0.402,0.16,0.724s0.162,0.522,0.162,0.604s-0.082,0.229-0.242,0.441c0,0.107,0.014,0.256,0.041,0.441
			c0.025,0.188,0.039,0.336,0.039,0.442c0,0.481-0.08,0.911-0.24,1.285c0.053,0.16,0.08,0.375,0.08,0.644
			c0,0.376-0.027,0.644-0.08,0.804c0,0.108,0.025,0.215,0.08,0.321c0.054,0.107,0.054,0.215,0,0.321c0,0.055-0.055,0.107-0.16,0.16
			c-0.108,0.055-0.161,0.161-0.161,0.321v0.885c0,0.055,0.026,0.12,0.081,0.2c0.053,0.081,0.08,0.148,0.08,0.201
			c-0.161,0.482-0.241,0.751-0.241,0.804c0,0.215,0.08,0.482,0.241,0.805c0,0.107-0.055,0.215-0.161,0.32
			c-0.106,0.108-0.16,0.188-0.16,0.241c0.054,0.054,0.08,0.135,0.08,0.241c0,0.376,0.026,0.616,0.08,0.724
			c-0.054,0.055-0.106,0.12-0.16,0.2c-0.056,0.081-0.108,0.148-0.161,0.201c-0.054,0.055-0.107,0.121-0.16,0.201
			c-0.055,0.08-0.135,0.12-0.24,0.12c-0.215,0.965-0.377,1.606-0.482,1.93h-0.08c0.105,0.106,0.213,0.269,0.32,0.48
			c0.107,0.216,0.188,0.351,0.242,0.402v0.401c0.16,0.161,0.213,0.27,0.16,0.321c0.213,0.215,0.373,0.591,0.481,1.125
			c0.429,0.696,0.563,1.152,0.401,1.366c0.106,0.055,0.146,0.148,0.121,0.281c-0.027,0.134-0.015,0.229,0.039,0.281
			c-0.106,0.107-0.229,0.309-0.361,0.603c-0.135,0.295-0.229,0.496-0.28,0.604l-0.161,0.161c-0.16,0.376-0.349,0.615-0.563,0.724
			c-0.752,0.59-1.287,0.938-1.607,1.045l-0.643,0.241c-0.055,0.054-0.121,0.08-0.201,0.08s-0.148-0.026-0.201-0.08
			c-0.536,0.269-0.964,0.375-1.286,0.32c-0.106,0.055-0.269,0.08-0.481,0.08c-0.215,0-0.375,0-0.481,0
			c-0.108-0.105-0.281-0.188-0.522-0.24c-0.24-0.054-0.416-0.106-0.521-0.16l-0.321-0.322c-0.055-0.053-0.108-0.08-0.161-0.08
			c-0.106,0-0.16-0.026-0.16-0.08c-0.107-0.214-0.188-0.348-0.24-0.401c0-0.054-0.121-0.16-0.362-0.321s-0.415-0.321-0.522-0.482
			l-0.48-0.563l-0.563,0.241c-0.537,0.269-0.832,0.43-0.885,0.481c-0.643,0.107-1.072,0.241-1.285,0.401l-0.322-0.08
			c-0.106,0-0.254,0.054-0.44,0.161c-0.188,0.106-0.336,0.159-0.442,0.159h-1.769c-1.071,0.108-1.688,0.161-1.849,0.161
			c-0.107,0-0.215-0.053-0.321-0.161c-0.16,0-0.39,0.028-0.683,0.081c-0.295,0.055-0.522,0.08-0.685,0.08
			c-0.59,0-1.019-0.025-1.286-0.08c-0.107,0-0.269-0.025-0.48-0.081c-0.215-0.053-0.402-0.079-0.563-0.079
			c-0.055,0-0.135,0.014-0.241,0.04c-0.107,0.026-0.188,0.039-0.24,0.039c-0.161,0-0.377-0.079-0.645-0.24
			c-0.27-0.16-0.455-0.241-0.563-0.241h-0.321c-0.321,0-0.671-0.133-1.045-0.401c-0.106-0.053-0.255-0.133-0.44-0.24
			c-0.188-0.106-0.311-0.161-0.363-0.161c0-0.054-0.053-0.08-0.159-0.08c-0.161,0-0.337-0.094-0.522-0.281
			c-0.188-0.188-0.336-0.308-0.441-0.361c-0.482-0.32-0.725-0.509-0.725-0.563c-0.59-0.053-1.313-0.402-2.17-1.045
			c-0.107-0.054-0.24-0.161-0.4-0.321c-0.162-0.161-0.295-0.268-0.402-0.322c-0.375-0.374-0.59-0.614-0.643-0.723l-0.645-0.482
			c0-0.105-0.08-0.228-0.24-0.36c-0.16-0.135-0.24-0.282-0.24-0.442l-0.402-0.161c-0.215-0.374-0.496-0.924-0.844-1.646
			c-0.35-0.725-0.604-1.219-0.765-1.486c-0.269-0.535-0.51-1.206-0.724-2.01c-0.16-0.535-0.24-0.83-0.24-0.884l-0.322-0.563
			c0-0.053-0.08-0.885-0.24-2.491c-0.16-0.804-0.24-1.231-0.24-1.286c-0.055-0.214-0.068-0.534-0.041-0.965
			c0.025-0.428,0.041-0.724,0.041-0.884c0-0.106-0.028-0.281-0.081-0.522c-0.054-0.24-0.08-0.413-0.08-0.521
			c0-0.106,0.026-0.214,0.08-0.321c0.053-0.106,0.081-0.188,0.081-0.241c0-0.105-0.016-0.294-0.041-0.563
			c-0.027-0.268-0.014-0.482,0.041-0.644l0.08-0.321c0.053-0.106,0.053-0.241,0-0.401l-0.08-0.322
			c0.16-0.643,0.267-1.044,0.32-1.204c0.054-0.161,0.08-0.414,0.08-0.765c0-0.348,0.026-0.669,0.08-0.964
			c0.053-0.294,0.161-0.521,0.322-0.684c0-0.589,0.213-1.205,0.643-1.85c0.106-0.964,0.375-1.58,0.805-1.849v-0.16
			c-0.055-0.107-0.08-0.188-0.08-0.241c0.105-0.053,0.213-0.161,0.32-0.32c0.106-0.161,0.188-0.241,0.242-0.241
			c0.053-0.053,0.053-0.107,0-0.161c-0.056-0.053-0.082-0.106-0.082-0.16c0.107-0.054,0.201-0.146,0.282-0.282
			c0.08-0.133,0.173-0.227,0.281-0.28c0.053-0.374,0.239-0.775,0.563-1.205c0.32-0.43,0.508-0.75,0.563-0.966
			c0.91-1.07,1.393-1.659,1.445-1.768c0.106-0.053,0.51-0.268,1.207-0.644c0.105-0.054,0.268-0.174,0.48-0.361
			c0.215-0.188,0.402-0.308,0.563-0.361c0.055,0,0.147-0.025,0.283-0.081c0.133-0.053,0.227-0.08,0.28-0.08s0.24-0.08,0.563-0.24
			c0.32-0.16,0.589-0.241,0.804-0.241c0.054-0.053,0.187-0.2,0.401-0.441c0.214-0.241,0.429-0.389,0.644-0.441
			c0.106-0.054,0.374-0.12,0.804-0.201c0.428-0.08,0.695-0.201,0.805-0.361c0.695,0.107,1.205,0.134,1.525,0.08
			c0.107,0,0.229-0.053,0.362-0.16c0.133-0.106,0.253-0.161,0.36-0.161c1.072-0.268,1.635-0.428,1.688-0.481
			c0.106,0.055,0.241,0.081,0.402,0.081c0.321,0,0.589-0.107,0.804-0.322c0.16-0.053,0.723-0.08,1.688-0.08
			C88.343,93.118,88.584,93.092,88.745,93.038z M89.066,98.021c-0.055,0.43-0.321,0.776-0.805,1.045v0.401l-0.24,0.16
			c0,0.215-0.055,0.391-0.162,0.522c-0.106,0.135-0.229,0.281-0.36,0.441c-0.136,0.16-0.229,0.296-0.281,0.401
			c0,0.055,0.026,0.135,0.08,0.241c0.054,0.107,0.081,0.188,0.081,0.241l-0.161,0.08c-0.161,0.055-0.269,0.107-0.321,0.16v0.482
			c0,0.643-0.295,1.366-0.885,2.17v0.321c0,0.161-0.014,0.416-0.039,0.764c-0.027,0.349-0.041,0.604-0.041,0.764
			c0,0.321,0.053,0.644,0.161,0.965c-0.161,0.055-0.241,0.188-0.241,0.401c0,0.055,0,0.107,0,0.16c0,0.055-0.054,0.135-0.16,0.241
			c-0.055,0.161-0.094,0.35-0.121,0.563c-0.026,0.216-0.039,0.376-0.039,0.482c0.16,0.161,0.24,0.402,0.24,0.724
			c0,0.322-0.107,0.644-0.321,0.964c0.106,0.322,0.161,0.563,0.161,0.725c0,0.269-0.055,0.617-0.161,1.045
			c0,0.107,0.041,0.188,0.12,0.241c0.08,0.054,0.121,0.135,0.121,0.24c0,0.16-0.027,0.442-0.08,0.845
			c-0.055,0.401-0.08,0.736-0.08,1.005s0.013,0.616,0.039,1.045c0.027,0.429,0.041,0.777,0.041,1.045v1.366
			c0,0.054,0.025,0.146,0.08,0.281c0.053,0.134,0.08,0.229,0.08,0.28c0.106,0.375,0.174,0.911,0.201,1.607
			c0.025,0.696,0.065,1.179,0.12,1.446l0.241,0.724c0.213,0.804,0.4,1.286,0.563,1.446c0.16,0.16,0.455,0.35,0.885,0.563
			c0.105,0,0.201,0.028,0.281,0.081c0.08,0.054,0.146,0.08,0.201,0.08c0.105,0.054,0.213,0.08,0.32,0.08
			c0.053,0,0.188-0.026,0.402-0.08c0.213-0.053,0.373-0.053,0.48,0c0.215-0.106,0.375-0.214,0.482-0.321
			c-0.215-0.321-0.321-0.563-0.321-0.724l-0.241-0.644c0-0.106-0.066-0.254-0.201-0.441c-0.133-0.188-0.199-0.334-0.199-0.442
			c0-0.105-0.041-0.254-0.121-0.44c-0.08-0.188-0.094-0.362-0.04-0.522c0-0.053-0.027-0.081-0.08-0.081h-0.081
			c0-0.105-0.135-0.348-0.4-0.723c-0.055-0.053-0.08-0.161-0.08-0.322c0-0.16,0-0.267,0-0.321c-0.056-0.053-0.148-0.146-0.281-0.28
			c-0.135-0.134-0.229-0.229-0.282-0.281c0.053-0.106,0.026-0.294-0.08-0.563c0.214-0.32,0.724-0.775,1.526-1.365
			c0.16,0,0.269-0.026,0.322-0.08c0.213-0.214,0.428-0.321,0.643-0.321l1.447-0.965c0.16,0,0.414-0.053,0.764-0.161
			c0.348-0.106,0.604-0.16,0.763-0.16c0.269,0,0.481,0.08,0.644,0.241l0.482-0.081c0.053,0,0.105,0.028,0.16,0.081
			c0-0.053,0-0.174,0-0.362c0-0.187,0.025-0.334,0.081-0.44c0-0.107,0.026-0.214,0.08-0.322c0.053-0.106,0.08-0.188,0.08-0.24
			v-1.206c0.053-0.268,0.147-0.683,0.28-1.246c0.135-0.563,0.201-0.924,0.201-1.085c0.106-0.643,0.014-1.553-0.281-2.731
			s-0.441-2.035-0.441-2.571c-0.16-0.268-0.281-0.71-0.361-1.326c-0.08-0.615-0.147-1.005-0.201-1.166
			c-0.375-0.855-0.563-1.393-0.563-1.606c-0.643-1.125-0.992-1.874-1.045-2.25c-0.215-0.106-0.521-0.294-0.924-0.563
			c-0.402-0.268-0.737-0.455-1.006-0.563C89.87,98.075,89.494,98.021,89.066,98.021z"/>
	</g>
	<g opacity="0.7">
		<path fill="#C1B49A" d="M45.331,46.134c0.271-5.992,1.886-9.433,5.391-14.324c3.259-4.545,5.213-9.947,6.413-15.304
			c0.977-4.344,0.676-6.891-1.166-10.778c3.477,5.446,6.577,10.045,5.01,16.508c-1.358,5.608-6.631,10.134-8.744,15.209
			c-1.898,4.565-1.646,13.027-0.573,17.405c1.289,5.272,3.896,10.861,2.865,16.401C54.251,67.094,44.692,60.174,45.331,46.134z"/>
		<path fill="#C1B49A" d="M59.182,49.911c-0.158,2.145,0.055,6.661,0.043,7.236c-5.097-11.145,0.029-21.454,4.821-30.313
			C64.063,36.787,59.618,40.07,59.182,49.911z"/>
	</g>
</g>
</svg>
