<?xml version="1.0" encoding="utf-8"?>
<!-- Generator: Adobe Illustrator 16.0.0, SVG Export Plug-In . SVG Version: 6.00 Build 0)  -->
<!DOCTYPE svg PUBLIC "-//W3C//DTD SVG 1.1//EN" "http://www.w3.org/Graphics/SVG/1.1/DTD/svg11.dtd">
<svg version="1.1" id="Layer_1" xmlns="http://www.w3.org/2000/svg" xmlns:xlink="http://www.w3.org/1999/xlink" x="0px" y="0px"
	 width="86.289px" height="232.098px" viewBox="0 0 86.289 232.098" enable-background="new 0 0 86.289 232.098"
	 xml:space="preserve">
<path fill="#999999" d="M45.002,109.658c17.51-0.823,35.879-24.646,41.325-53.768c2.454-13.14,0.087-25.42-5.821-35.022
	c-0.08-0.132-0.165-0.259-0.246-0.389c-0.394-0.624-0.801-1.235-1.224-1.837c-0.116-0.164-0.233-0.326-0.351-0.487
	c-0.416-0.571-0.845-1.131-1.285-1.679c-0.121-0.148-0.238-0.299-0.36-0.445c-0.492-0.595-1-1.173-1.522-1.736
	c-0.074-0.08-0.145-0.163-0.22-0.242c-1.231-1.308-2.547-2.532-3.94-3.669c-0.106-0.086-0.217-0.167-0.323-0.253
	c-0.574-0.458-1.16-0.902-1.761-1.33c-0.188-0.133-0.377-0.261-0.564-0.391c-0.54-0.372-1.09-0.731-1.648-1.078
	c-0.215-0.132-0.43-0.264-0.646-0.393c-0.569-0.339-1.151-0.662-1.742-0.974c-0.2-0.107-0.399-0.218-0.604-0.321
	c-0.707-0.358-1.428-0.699-2.161-1.02c-0.087-0.039-0.173-0.082-0.261-0.12c-0.844-0.362-1.705-0.698-2.584-1.007
	c-0.119-0.043-0.246-0.078-0.367-0.119c-0.729-0.25-1.469-0.482-2.221-0.695c-0.272-0.076-0.551-0.143-0.824-0.215
	c-0.616-0.16-1.237-0.312-1.867-0.446c-0.32-0.067-0.643-0.132-0.967-0.193c-0.607-0.115-1.221-0.22-1.842-0.312
	c-0.33-0.049-0.662-0.1-0.996-0.141c-0.66-0.083-1.328-0.146-2-0.201c-0.297-0.024-0.588-0.057-0.888-0.076
	c-0.97-0.06-1.95-0.098-2.944-0.1C15.304,1.053-3.567,26.311,1.962,55.892c0.154,0.826,0.321,1.646,0.497,2.463
	c0.133,0.62,0.276,1.235,0.421,1.852c0.034,0.143,0.065,0.286,0.1,0.429c6.443,26.922,23.758,48.244,40.308,49.024l-1.254,2.149
	c-0.192-0.002-0.588-0.004-0.588-0.004v1.005l-0.425,0.995l-3.1,5.629h3.847c-0.172,5-0.882,8.406-1.568,11.472
	c-0.806,3.59-1.642,7.177-1.642,14.48c0,7.303,0.836,10.954,1.642,14.545c0.788,3.52,1.607,7.123,1.607,14.277
	c0,7.153-0.819,10.943-1.607,14.462c-0.806,3.59-4.259,36.764-4.259,44.764h1.356c0-7,3.433-40.963,4.226-44.479
	c0.806-3.59,1.639-7.388,1.639-14.691c0-7.303-0.833-11.056-1.639-14.646c-0.793-3.519-1.608-7.176-1.608-14.329
	c0-7.152,0.815-10.559,1.606-14.075c0.706-3.136,1.431-6.777,1.603-11.777h1.024h6.218l-3.111-5.629L45.002,109.658z"/>
<g>
	<g>
		<path fill="#48172D" d="M36.295,232.098h-1.356c0-7.304,3.453-41.021,4.259-44.61c0.788-3.519,1.607-7.154,1.607-14.31
			s-0.819-10.789-1.607-14.308c-0.806-3.592-1.642-7.303-1.642-14.604c0-7.305,0.836-11.014,1.642-14.604
			c0.788-3.518,1.607-7.154,1.607-14.308h1.354c0,7.304-0.833,11.017-1.641,14.604c-0.791,3.518-1.606,7.152-1.606,14.307
			s0.815,10.79,1.608,14.309c0.806,3.591,1.639,7.302,1.639,14.604c0,7.305-0.833,11.018-1.639,14.606
			C39.728,191.303,36.295,224.944,36.295,232.098z"/>
	</g>
	<g>
		<polygon fill="#6A2242" points="43.146,107.172 46.252,112.563 49.363,117.951 43.146,117.951 36.919,117.951 40.03,112.563 		"/>
		<g>
			<g>
				<path fill="#48172D" d="M85.328,54.892c-5.535,29.598-24.418,53.737-42.182,53.807C25.381,108.629,6.489,84.486,0.962,54.892
					C-4.567,25.311,14.304,0.053,43.146,0C71.984,0.053,90.854,25.311,85.328,54.892z"/>
				<path fill="#6A2242" d="M43.146,0C14.304,0.053-4.567,25.311,0.962,54.892c0.588,3.145,1.336,6.218,2.21,9.216
					c8.484,19.155,22.375,32.642,35.647,32.693c17.764-0.072,36.646-24.207,42.18-53.809c1.362-7.304,1.233-14.341-0.156-20.804
					C73.74,8.865,60.182,0.033,43.146,0z"/>
			</g>
		</g>
	</g>
	<path fill="#48172D" d="M44.605,110.908c-1.247-0.066-2.61-0.104-4.141-0.104v1.354c1.533,0,2.896,0.04,4.141,0.106V110.908z"/>
	<g>
		<path fill="#FFFFFF" d="M20.365,51.458l0.157,0.079c0.059,0,0.078-0.021,0.078-0.079l0.394,0.079c0.099,0,0.157-0.021,0.157-0.079
			c1.908,0.178,2.892,0.688,2.99,1.495l0.472,5.113v1.26c0,1.021-0.099,2.34-0.314,3.934c0.099,0.767,0.157,1.356,0.157,1.73v2.91
			c0,0.491-0.02,1.003-0.079,1.495c0.06,0.235,0.079,0.648,0.079,1.26c0,0.216-0.099,0.963-0.314,2.28l0.314,3.146
			c-0.099,0.492-0.157,0.886-0.157,1.181v0.078c0.708,0.413,1.73,0.729,3.068,0.944c0.413,0.512,0.629,0.982,0.629,1.416
			c0,0.473-0.373,0.787-1.102,0.943c-0.57,0.374-1.199,0.551-1.888,0.551h-0.314l-0.473-0.078c-0.078,0.06-0.334,0.117-0.786,0.157
			c-2.715,0-4.465-0.551-5.271-1.651c-0.255-0.887-0.393-1.574-0.393-2.046c0-0.808,0.02-2.104,0.079-3.854
			c0-0.079-0.02-0.453-0.079-1.102c0.06-0.374,0.079-0.964,0.079-1.811h0.078c-0.098-0.274-0.157-0.826-0.157-1.651v-1.103
			c0-0.688,0.06-1.16,0.157-1.416c-0.059-0.099-0.078-0.177-0.078-0.235c0-0.217,0.059-0.747,0.157-1.573
			c-0.099-0.57-0.157-1.16-0.157-1.811V62.63c0-1.947,0.177-3.875,0.55-5.743c0.138-2.104,0.256-3.265,0.393-3.462
			c-0.098-0.393-0.157-0.629-0.157-0.708c0-0.491,0.531-0.904,1.574-1.259H20.365z"/>
		<path fill="#FFFFFF" d="M40.957,56.867c0.728,1.771,1.101,3.657,1.101,5.665c0.06,0,0.079,0.137,0.079,0.393
			c0,0.099-0.099,0.649-0.314,1.652c0.256,1.277,0.394,2.754,0.394,4.405v0.157c0,1.121-0.158,2.576-0.473,4.405
			c0,1.082-0.452,2.321-1.337,3.698c-0.236,1.159-0.649,1.729-1.259,1.729c-0.256,0.688-0.807,1.022-1.652,1.022
			c-0.335,0-0.983-0.099-1.967-0.314c-0.983,0.217-1.633,0.314-1.967,0.314h-0.315c-1.356,0-2.32-0.943-2.91-2.832
			c-0.57-1.042-1.063-2.655-1.495-4.799c0-0.374-0.02-0.57-0.079-0.631l0.158-1.493c-0.06-0.847-0.079-1.613-0.079-2.282v-0.314
			c0-2.38,0.138-3.619,0.394-3.696c-0.06-0.1-0.079-0.179-0.079-0.236c0-0.472,0.236-1.593,0.708-3.383
			c0-0.688,0.531-2.519,1.574-5.509c0.491-0.59,0.963-0.924,1.416-1.021c1.239-0.472,2.518-0.708,3.854-0.708
			C38.832,53.091,40.249,54.35,40.957,56.867z M35.842,57.104c-0.217,0.768-0.452,2.202-0.708,4.327v1.337
			c0,0.177-0.079,0.354-0.236,0.551v0.314c0,1.377-0.059,2.242-0.157,2.597c0.06,0.354,0.079,0.649,0.079,0.865v0.787
			c0,1.868,0.295,4.308,0.865,7.316h0.078c0.453-0.63,0.847-1.947,1.181-3.935c0.216-1.554,0.314-3.127,0.314-4.721
			c0-0.808-0.099-2.145-0.314-4.012v-0.395c0-0.217,0.02-0.512,0.078-0.866c-0.412-1.69-0.786-3.088-1.101-4.169h-0.079V57.104z"/>
		<path fill="#FFFFFF" d="M45.242,51.871c1.888,0,2.832,0.314,2.832,0.943c0.354,0.926,0.768,2.676,1.259,5.271
			c-0.06,0.688-0.078,1.278-0.078,1.729c0.472,0.965,0.886,2.832,1.259,5.586c0.06,1.396,0.157,2.655,0.314,3.776h0.078
			c0.412-2.301,0.63-4.11,0.63-5.429c0.216-1.042,0.569-3.402,1.103-7.08V56.12c0-2.637,0.688-4.032,2.045-4.17
			c0.06-0.061,0.256-0.079,0.551-0.079h0.156c0.944,0,1.418,0.295,1.418,0.864v0.709c-0.275,1.356-0.492,2.124-0.631,2.281
			l0.079,0.395v0.786l-0.079,0.156c0.139,0,0.256,0.256,0.314,0.787v0.63c0,0.886-0.157,2.38-0.473,4.484v1.729
			c0,0.334-0.235,1.516-0.707,3.54l0.078,0.474v0.234c-0.197,1.673-0.373,2.637-0.552,2.911v0.157
			c0.099,0.748,0.158,1.161,0.158,1.259c-0.413,1.338-0.688,2.932-0.787,4.8c-0.295,1.317-0.669,2.124-1.103,2.438
			c-0.668,0.452-2.024,0.885-4.09,1.259h-0.158c-0.864,0-1.573-0.688-2.123-2.046c-0.551-0.688-0.887-1.711-1.023-3.068
			c-1.16-4.268-1.73-7.453-1.73-9.598c-0.176,0-0.394-2.498-0.629-7.475c-0.098,0-0.138-0.314-0.157-0.943V57.3
			c0-0.394-0.078-1.042-0.235-1.967c0.059-0.649,0.078-1.042,0.078-1.181c-0.157-0.591-0.236-0.925-0.236-1.022
			c0-0.609,0.453-1.042,1.337-1.259H45.242z"/>
		<path fill="#FFFFFF" d="M63.59,52.599c0.217-0.098,0.551-0.157,0.983-0.157c1.356,0.139,2.616,0.236,3.815,0.295
			c0.768,0.413,1.141,0.926,1.141,1.556c-0.688,1.396-2.064,2.084-4.11,2.084h-0.925l-0.373,0.079v-0.079l-0.157,0.079
			c-0.099-0.06-0.196-0.079-0.295-0.079c-0.157,0.394-0.235,0.768-0.235,1.102v0.157c0,0.394,0.02,0.905,0.078,1.555l-0.373,1.042
			c0.077,0.729,0.176,1.103,0.295,1.103c0.117,0,0.49-0.021,1.141-0.079c1.986,0.453,2.97,0.787,2.97,0.964
			c0.315,0.275,0.474,0.57,0.474,0.905c-0.336,0.786-0.965,1.18-1.908,1.18c-0.157,0-0.926,0.256-2.301,0.748h-0.297l0.079,0.137
			c0,0.139-0.021,0.218-0.079,0.218c0.061,0.59,0.079,1.003,0.079,1.259v1.121c0,0.334-0.059,1.102-0.157,2.302
			c0.06,0.393,0.157,0.747,0.314,1.042l-0.078,0.885v0.729c0,1.85,0.098,3.128,0.295,3.854c-0.061,0.512-0.078,0.905-0.078,1.2
			v0.138c0,0.295,0.176,0.452,0.53,0.452c0.925,0,1.868-0.06,2.832-0.157c1.22,0,1.829,0.295,1.829,0.886
			c-0.531,1.476-2.262,2.164-5.191,2.104c-2.322,0.177-3.953-0.039-4.918-0.669c-0.57-2.615-0.865-5.192-0.865-7.729
			c0-0.787,0.06-1.75,0.158-2.893c-0.1-0.354-0.218-1.16-0.314-2.438l0.156-1.711c-0.06-0.118-0.099-0.965-0.156-2.519l0.373-4.819
			c-0.098-0.313-0.139-0.53-0.139-0.669V57.48c0-0.234,0.021-0.472,0.08-0.728c-0.061-0.334-0.1-0.57-0.158-0.669
			c0.06-0.413,0.078-0.768,0.078-1.042v-1.555c0-0.412,0.551-0.846,1.672-1.259c0.57,0,0.847-0.02,0.847-0.079
			C62.193,52.284,63.158,52.441,63.59,52.599z"/>
	</g>
	<g>
		<path fill="#FFFFFF" d="M24.214,34.047c0.431,0,0.642,0.15,0.642,0.44c0.04,0,0.08,0.291,0.12,0.883
			c0.16,0.352,0.271,0.632,0.321,0.843l-0.081,1.884c0.081,0.382,0.121,0.862,0.121,1.444v0.04c0,0.341-0.04,0.61-0.121,0.802
			c0.051,0.261,0.081,0.622,0.081,1.083v0.04c0,0.471-0.04,0.812-0.121,1.042c0.03,0.23,0.04,0.382,0.04,0.441
			c0,1.152-0.05,1.925-0.16,2.325c0.03,0.531,0.04,0.872,0.04,1.042c0,0.092-0.04,0.371-0.12,0.844l0.04,0.562
			c0,0.741-0.731,1.263-2.205,1.563c-0.42,0-0.791-0.28-1.122-0.843c-0.11-0.432-0.371-1.294-0.802-2.565l-0.602-2.126h-0.04
			c-0.03,0.271-0.04,0.472-0.04,0.602v0.161c0.05,1.403,0.08,2.175,0.08,2.325c-0.061,1.123-0.131,1.733-0.201,1.845
			c-0.36,0.24-0.691,0.361-1.002,0.361c-0.933,0-1.403-0.512-1.403-1.524c0.08-1.151,0.12-1.813,0.12-1.965
			c-0.11-0.792-0.16-1.323-0.16-1.604c0-0.092,0.029-0.271,0.08-0.563l-0.04-0.241c0.029-0.271,0.04-0.49,0.04-0.642
			c0-0.25-0.03-0.591-0.08-1.042c0.13-1.474,0.24-2.968,0.32-4.491c-0.03-0.542-0.04-0.912-0.04-1.123
			c0-0.672,0.131-1.002,0.401-1.002c0.16-0.081,0.36-0.121,0.602-0.121c1.072,0,1.604,0.121,1.604,0.361
			c0.04,0.17,0.211,0.421,0.521,0.762c0.12,0.221,0.24,0.531,0.361,0.922c0.271,0.302,0.4,0.732,0.4,1.283
			c0.321,0.313,0.481,0.792,0.481,1.444c0.21,0.29,0.391,0.973,0.521,2.045c0.08,0.02,0.12,0.17,0.12,0.44h0.04
			c0-0.189,0.07-0.952,0.2-2.285c0-0.691,0.011-1.094,0.04-1.203c-0.029-0.13-0.04-0.312-0.04-0.521v-0.24
			c0-0.141,0.011-0.261,0.04-0.36c-0.029-0.141-0.04-0.271-0.04-0.4v-0.521c0.08-0.593,0.12-0.982,0.12-1.163V34.49
			c0-0.23,0.241-0.382,0.723-0.441L24.214,34.047L24.214,34.047z M22.891,42.188v0.12h0.04v-0.12H22.891z"/>
		<path fill="#FFFFFF" d="M30.03,34.959c0.11-0.05,0.28-0.08,0.501-0.08c0.691,0.07,1.333,0.12,1.945,0.149
			c0.391,0.212,0.581,0.473,0.581,0.792c-0.351,0.713-1.053,1.063-2.095,1.063H30.49l-0.19,0.04v-0.04l-0.08,0.04
			c-0.05-0.029-0.101-0.04-0.15-0.04c-0.08,0.201-0.12,0.392-0.12,0.562v0.08c0,0.201,0.01,0.462,0.04,0.792l-0.19,0.531
			c0.04,0.371,0.09,0.563,0.15,0.563c0.06,0,0.25-0.011,0.581-0.04c1.013,0.229,1.514,0.4,1.514,0.49
			c0.16,0.142,0.241,0.291,0.241,0.462c-0.171,0.4-0.491,0.602-0.973,0.602c-0.08,0-0.472,0.131-1.173,0.382h-0.15l0.04,0.069
			c0,0.069-0.01,0.109-0.04,0.109c0.03,0.302,0.04,0.513,0.04,0.643v0.571c0,0.171-0.03,0.562-0.08,1.174
			c0.03,0.2,0.08,0.381,0.16,0.53l-0.04,0.451v0.37c0,0.942,0.05,1.595,0.15,1.965c-0.03,0.262-0.04,0.462-0.04,0.612v0.069
			c0,0.149,0.09,0.23,0.271,0.23c0.471,0,0.952-0.029,1.443-0.081c0.622,0,0.933,0.15,0.933,0.451
			c-0.271,0.752-1.153,1.104-2.646,1.073c-1.183,0.09-2.016-0.021-2.507-0.341c-0.29-1.334-0.44-2.646-0.44-3.94
			c0-0.399,0.03-0.892,0.08-1.474c-0.05-0.181-0.11-0.591-0.16-1.243l0.08-0.872c-0.03-0.06-0.051-0.491-0.08-1.283l0.19-2.456
			c-0.051-0.16-0.07-0.271-0.07-0.341v-0.15c0-0.119,0.01-0.239,0.04-0.37c-0.03-0.171-0.05-0.29-0.08-0.342
			c0.03-0.21,0.04-0.391,0.04-0.53V35.41c0-0.21,0.28-0.432,0.852-0.643c0.291,0,0.432-0.01,0.432-0.04
			C29.318,34.799,29.809,34.879,30.03,34.959z"/>
		<path fill="#FFFFFF" d="M37.588,34.959c0.11-0.05,0.28-0.08,0.501-0.08c0.691,0.07,1.333,0.12,1.945,0.149
			c0.391,0.212,0.581,0.473,0.581,0.792c-0.351,0.713-1.053,1.063-2.095,1.063h-0.472l-0.19,0.04v-0.04l-0.08,0.04
			c-0.05-0.029-0.101-0.04-0.15-0.04c-0.08,0.201-0.12,0.392-0.12,0.562v0.08c0,0.201,0.01,0.462,0.04,0.792l-0.19,0.531
			c0.04,0.371,0.09,0.563,0.15,0.563c0.06,0,0.25-0.011,0.581-0.04c1.013,0.229,1.514,0.4,1.514,0.49
			c0.16,0.142,0.241,0.291,0.241,0.462c-0.171,0.4-0.491,0.602-0.973,0.602c-0.08,0-0.472,0.131-1.173,0.382h-0.15l0.04,0.069
			c0,0.069-0.01,0.109-0.04,0.109c0.03,0.302,0.04,0.513,0.04,0.643v0.571c0,0.171-0.03,0.562-0.08,1.174
			c0.03,0.2,0.08,0.381,0.16,0.53l-0.04,0.451v0.37c0,0.942,0.05,1.595,0.15,1.965c-0.03,0.262-0.04,0.462-0.04,0.612v0.069
			c0,0.149,0.09,0.23,0.271,0.23c0.471,0,0.952-0.029,1.443-0.081c0.622,0,0.933,0.15,0.933,0.451
			c-0.271,0.752-1.153,1.104-2.646,1.073c-1.183,0.09-2.016-0.021-2.507-0.341c-0.29-1.334-0.44-2.646-0.44-3.94
			c0-0.399,0.03-0.892,0.08-1.474c-0.05-0.181-0.11-0.591-0.16-1.243l0.08-0.872c-0.03-0.06-0.051-0.491-0.08-1.283l0.19-2.456
			c-0.051-0.16-0.07-0.271-0.07-0.341v-0.15c0-0.119,0.01-0.239,0.04-0.37c-0.03-0.171-0.05-0.29-0.08-0.342
			c0.03-0.21,0.04-0.391,0.04-0.53V35.41c0-0.21,0.28-0.432,0.852-0.643c0.291,0,0.432-0.01,0.432-0.04
			C36.876,34.799,37.368,34.879,37.588,34.959z"/>
		<path fill="#FFFFFF" d="M44.395,33.877c1.282,0,2.194,0.451,2.727,1.363c0.542,0.672,1.063,1.653,1.564,2.927
			c0.289,0.933,0.439,1.584,0.439,1.965c0,0.15-0.01,0.331-0.04,0.562c0.08,0.531,0.12,0.894,0.12,1.083
			c0,0.291-0.04,0.713-0.12,1.283c0.03,0.23,0.04,0.401,0.04,0.521c-0.16,0.551-0.271,1.093-0.32,1.644
			c-0.32,0.732-0.531,1.304-0.642,1.726c-0.341,0.271-0.571,0.592-0.683,0.963l-0.562,0.359c-0.752,1.313-1.474,1.965-2.165,1.965
			c-0.331,0-0.592-0.149-0.763-0.44c-0.531,0-0.892-0.16-1.082-0.48c-0.241-0.771-0.371-1.635-0.401-2.605
			c-0.05-0.281-0.08-0.772-0.08-1.484v-0.479c-0.08-0.792-0.12-1.454-0.12-1.965c0-0.021,0.029-0.11,0.08-0.281
			c-0.051-0.24-0.091-0.651-0.12-1.243c0.029-0.682,0.05-1.072,0.08-1.163l-0.08-0.521l0.08-1.364
			c-0.03-0.893-0.04-1.734-0.04-2.526V35.16c-0.11-0.331-0.161-0.531-0.161-0.603c0-0.4,0.723-0.632,2.166-0.682L44.395,33.877
			L44.395,33.877z M44.755,35.36l0.642,2.728v0.802c0.271,0.191,0.4,0.592,0.4,1.203c0,0.04-0.029,0.15-0.08,0.321
			c0.08,0,0.131,0.189,0.16,0.562v0.08c0,0.181-0.01,0.341-0.04,0.481l0.04,0.279c-0.029,0.331-0.04,0.513-0.04,0.521
			c0.052,0.331,0.08,0.611,0.08,0.842v2.526c0,0.109-0.028,0.221-0.08,0.32v0.04h0.04c0.451-0.813,0.682-1.493,0.682-2.046
			c0.162-0.57,0.241-1.303,0.241-2.205v-0.279c0-2.316-0.44-4.171-1.323-5.574L44.755,35.36z M45.677,46.468v0.08h0.04v-0.08H45.677
			z M45.797,46.107v0.08h0.04v-0.08H45.797z"/>
		<path fill="#FFFFFF" d="M60.784,34.658c0,0.432-0.28,0.901-0.843,1.403c0,0.05-0.44,0.11-1.332,0.19
			c-0.902-0.021-1.403-0.291-1.514-0.822l-0.111-0.69c0.061-0.262,0.19-0.532,0.392-0.804c0.592-0.189,1.203-0.279,1.845-0.279
			C60.264,33.656,60.784,33.987,60.784,34.658z M58.818,37.706c0.832,0,1.313,0.351,1.445,1.043
			c0.129,0.551,0.199,0.981,0.199,1.283c0,0.069-0.04,0.21-0.12,0.439c0.08,0.131,0.12,0.301,0.12,0.521v0.2
			c0,0.28-0.05,0.562-0.16,0.843l0.04,0.199v0.241c0,0.19-0.04,0.651-0.12,1.403c0,0.229,0.041,0.591,0.12,1.082
			c-0.101,0.771-0.171,1.163-0.2,1.163l0.32,3.208v0.201c0,0.25-0.271,0.409-0.802,0.479c-0.271,0.131-0.642,0.201-1.123,0.201h-0.2
			c-0.451,0-0.712-0.15-0.803-0.441c-0.189-0.131-0.28-0.49-0.28-1.083l-0.241-3.168c0-0.18,0.03-0.621,0.082-1.322l-0.082-1.523
			c0.051-0.732,0.15-1.654,0.281-2.767c0.03-0.371,0.04-0.772,0.04-1.203v-0.361c0-0.21,0.24-0.411,0.722-0.602
			c0.142-0.03,0.301-0.04,0.481-0.04h0.28V37.706z"/>
		<path fill="#FFFFFF" d="M68.15,36.514c0.109,0.33,0.189,0.972,0.24,1.925c0,0.29-0.4,0.44-1.203,0.44
			c-0.53-0.11-0.881-0.271-1.043-0.481c-0.109-0.18-0.24-0.581-0.399-1.202c-0.513-0.672-0.894-1.003-1.123-1.003v0.28
			c0,0.382,0.149,0.973,0.44,1.765c0.861,1.494,1.475,2.747,1.845,3.771c0.081,0.451,0.241,1.053,0.481,1.805
			c0.131,0.712,0.2,1.094,0.2,1.123v0.28c0,0.351,0.029,0.802,0.08,1.363c-0.08,0.261-0.131,0.672-0.161,1.243
			c-0.25,0.65-0.621,1.253-1.121,1.805c-0.172,0.32-0.543,0.48-1.123,0.48c-0.15,0-0.252,0.011-0.281,0.04
			c-1.002,0-1.653-0.392-1.965-1.163c-0.33-0.41-0.552-0.872-0.643-1.362c-0.189-0.271-0.279-0.571-0.279-0.883v-0.28
			c0-0.512,0.271-0.762,0.801-0.762c0-0.051,0.092-0.07,0.281-0.08c0.602,0,1.072,0.511,1.403,1.522
			c0.181,0.672,0.351,1.073,0.521,1.203h0.041c0.08-0.461,0.129-0.862,0.159-1.203c-0.069-1.002-0.211-1.765-0.401-2.285v-0.48
			c-0.149-0.091-0.301-0.481-0.439-1.163c-0.352-0.592-0.563-1.093-0.643-1.483c-0.741-1.192-1.172-2.186-1.282-2.968
			c-0.161-0.782-0.241-1.223-0.241-1.323v-0.44c0-0.061,0.012-0.11,0.04-0.16c-0.021-0.05-0.05-0.251-0.08-0.603
			c0.171-0.632,0.472-1.071,0.884-1.322c0.65-0.513,1.353-0.763,2.125-0.763C66.416,34.147,67.378,34.939,68.15,36.514z"/>
	</g>
	<g>
		<path fill="#FFFFFF" d="M20.141,16.491c0.438,0,0.935,0.555,1.479,1.675c0,0.263,0.127,0.594,0.39,0.973
			c0.107,0.556,0.204,0.936,0.272,1.13c0.127,0.391,0.195,0.672,0.195,0.856c0,0.067-0.029,0.146-0.078,0.232
			c0.106,0,0.194,0.399,0.272,1.207c0.204,0.613,0.312,1.228,0.312,1.831c0.068,0.204,0.126,0.478,0.155,0.817l-0.116,0.701
			c0.106,0.281,0.155,0.467,0.155,0.545c0,0.049-0.029,0.185-0.077,0.39c0.077,0.186,0.116,0.352,0.116,0.506
			c-0.029,0.264-0.039,0.419-0.039,0.469c0.078,0,0.156,0.232,0.233,0.699l-0.038,0.078v0.039c0.077,1.063,0.116,1.626,0.116,1.713
			v0.195c0,0.39-0.106,0.584-0.312,0.584c-0.233,0.126-0.535,0.194-0.896,0.194c-0.613,0-0.983-0.126-1.09-0.39
			c-0.565-1.12-0.887-2.327-0.974-3.622c-0.029-0.078-0.312-0.126-0.856-0.154h-0.234c-0.029,0-0.068,0.049-0.116,0.154l0.038,0.078
			v0.233c0,0.137-0.038,0.341-0.116,0.623c0.059,0.39,0.098,0.584,0.116,0.584c-0.048,0.225-0.165,0.517-0.35,0.856
			c0,0.486-0.088,0.77-0.273,0.856c-0.204,0.155-0.359,0.232-0.467,0.232c-0.73,0-1.167-0.302-1.323-0.896v-0.468
			c0-0.69,0.088-1.586,0.272-2.688c0-0.146-0.01-0.477-0.038-0.974c0.204-1.129,0.505-2.988,0.895-5.568
			c0.341-1.431,0.506-2.308,0.506-2.608c0.107-0.264,0.36-0.468,0.74-0.623c0.087-0.313,0.457-0.468,1.09-0.468h0.041V16.491z
			 M19.712,20.931c-0.126,1.148-0.282,2.19-0.467,3.115v0.077c0,0.225,0.01,0.458,0.039,0.701c-0.078,0.39-0.117,0.729-0.117,1.013
			c0.263,0.029,0.458,0.039,0.584,0.039h0.351v-0.039c0-0.127-0.029-0.419-0.078-0.856c0.078-0.408,0.117-0.75,0.117-1.013v-0.194
			c0-0.828-0.127-1.781-0.39-2.843H19.712L19.712,20.931z"/>
		<path fill="#FFFFFF" d="M26.451,16.277l0.078,0.038c0.029,0,0.039-0.01,0.039-0.038l0.195,0.038c0.048,0,0.077-0.01,0.077-0.038
			c0.944,0.088,1.432,0.342,1.479,0.739l0.234,2.531v0.623c0,0.506-0.049,1.158-0.156,1.947c0.049,0.38,0.078,0.672,0.078,0.855
			v1.44c0,0.244-0.01,0.497-0.039,0.739c0.029,0.117,0.039,0.321,0.039,0.623c0,0.107-0.049,0.479-0.156,1.13l0.156,1.558
			c-0.049,0.244-0.078,0.438-0.078,0.585v0.038c0.351,0.205,0.857,0.359,1.519,0.468c0.205,0.253,0.312,0.486,0.312,0.701
			c0,0.232-0.185,0.389-0.545,0.467c-0.282,0.187-0.594,0.272-0.935,0.272h-0.155l-0.234-0.039
			c-0.039,0.028-0.165,0.059-0.389,0.078c-1.344,0-2.21-0.272-2.609-0.817c-0.127-0.438-0.194-0.779-0.194-1.013
			c0-0.399,0.01-1.042,0.038-1.908c0-0.039-0.009-0.225-0.038-0.545c0.029-0.186,0.038-0.479,0.038-0.896h0.039
			c-0.048-0.137-0.077-0.409-0.077-0.817v-0.545c0-0.342,0.029-0.574,0.077-0.701c-0.029-0.048-0.039-0.087-0.039-0.116
			c0-0.107,0.029-0.37,0.078-0.779c-0.049-0.282-0.078-0.574-0.078-0.896v-0.194c0-0.964,0.088-1.918,0.273-2.843
			c0.067-1.042,0.126-1.616,0.194-1.714c-0.049-0.194-0.078-0.313-0.078-0.351c0-0.244,0.263-0.447,0.779-0.623h0.078V16.277z"/>
		<path fill="#FFFFFF" d="M33.218,16.277l0.078,0.038c0.029,0,0.039-0.01,0.039-0.038l0.195,0.038c0.048,0,0.077-0.01,0.077-0.038
			c0.944,0.088,1.432,0.342,1.479,0.739l0.234,2.531v0.623c0,0.506-0.049,1.158-0.156,1.947c0.049,0.38,0.078,0.672,0.078,0.855
			v1.44c0,0.244-0.01,0.497-0.039,0.739c0.029,0.117,0.039,0.321,0.039,0.623c0,0.107-0.049,0.479-0.156,1.13l0.156,1.558
			c-0.049,0.244-0.078,0.438-0.078,0.585v0.038c0.351,0.205,0.857,0.359,1.519,0.468c0.205,0.253,0.312,0.486,0.312,0.701
			c0,0.232-0.185,0.389-0.545,0.467c-0.282,0.187-0.594,0.272-0.935,0.272H35.36l-0.234-0.039c-0.039,0.028-0.165,0.059-0.389,0.078
			c-1.344,0-2.21-0.272-2.609-0.817c-0.127-0.438-0.194-0.779-0.194-1.013c0-0.399,0.01-1.042,0.038-1.908
			c0-0.039-0.009-0.225-0.038-0.545c0.029-0.186,0.038-0.479,0.038-0.896h0.039c-0.048-0.137-0.077-0.409-0.077-0.817v-0.545
			c0-0.342,0.029-0.574,0.077-0.701c-0.029-0.048-0.039-0.087-0.039-0.116c0-0.107,0.029-0.37,0.078-0.779
			c-0.049-0.282-0.078-0.574-0.078-0.896v-0.194c0-0.964,0.088-1.918,0.273-2.843c0.067-1.042,0.126-1.616,0.194-1.714
			c-0.049-0.194-0.078-0.313-0.078-0.351c0-0.244,0.263-0.447,0.779-0.623h0.078V16.277z"/>
		<path fill="#FFFFFF" d="M46.658,15.976c0.088,0,0.166,0.379,0.232,1.129c0.498,2.229,0.896,3.903,1.209,5.023
			c0.027,0.049,0.066,0.224,0.115,0.545h0.039c0-0.155,0.117-0.74,0.352-1.752v-0.039c0-0.39,0.01-1.013,0.039-1.869
			c-0.078-0.409-0.117-0.75-0.117-1.013v-0.506c0-0.244,0.01-0.546,0.039-0.896l-0.039-0.233c0-0.468,0.398-0.7,1.207-0.7h0.195
			c0.213,0,0.358,0.165,0.428,0.506c0.205,1.801,0.545,3.719,1.013,5.763c0,0.107,0.049,0.633,0.155,1.598v0.39
			c0,0.351-0.028,0.633-0.077,0.855c0.028,0.138,0.038,0.264,0.038,0.391c-0.176,1.918-0.33,2.882-0.467,2.882
			c-0.146,0.613-0.321,1.061-0.545,1.362c-0.107,0.525-0.272,0.905-0.507,1.13c-0.661,0.604-1.091,0.925-1.284,0.974
			c-0.41,0.155-0.652,0.233-0.74,0.233l-0.272-0.039l-0.545,0.039c-0.205,0-0.468-0.127-0.778-0.391
			c-0.517,0-0.867-0.769-1.052-2.297c-0.049-0.156-0.078-0.497-0.078-1.013V27.93c0-0.068,0.029-0.418,0.078-1.051V26.45
			c0-0.409,0.282-0.652,0.856-0.74c0.369-0.106,0.729-0.155,1.09-0.155h0.156c0.136,0,0.224,0.341,0.271,1.013
			c0.039,0.137,0.117,0.69,0.232,1.675c0.107,0.32,0.156,0.555,0.156,0.7c0.856-1.383,1.285-2.695,1.285-3.933
			c-0.02-0.595-0.059-0.896-0.117-0.896c-0.496,0.341-1.158,0.507-1.985,0.507h-0.116c-0.954,0-1.626-0.613-2.025-1.83
			c-0.263-0.526-0.457-1.538-0.584-3.038c-0.029-1.313-0.067-2.618-0.117-3.895c0-0.193,0.322-0.341,0.975-0.429
			C46.23,15.537,46.658,15.712,46.658,15.976z"/>
		<path fill="#FFFFFF" d="M58.848,18.954c0.36,0.876,0.547,1.811,0.547,2.804c0.027,0,0.037,0.068,0.037,0.194
			c0,0.049-0.048,0.32-0.154,0.817c0.127,0.633,0.193,1.362,0.193,2.182v0.076c0,0.557-0.076,1.275-0.232,2.183
			c0,0.535-0.225,1.147-0.662,1.83c-0.116,0.574-0.321,0.855-0.623,0.855c-0.126,0.341-0.398,0.506-0.816,0.506
			c-0.166,0-0.488-0.049-0.975-0.154c-0.486,0.105-0.809,0.154-0.975,0.154h-0.154c-0.672,0-1.149-0.467-1.441-1.4
			c-0.281-0.518-0.525-1.314-0.738-2.376c0-0.186-0.011-0.282-0.039-0.313l0.076-0.738c-0.027-0.419-0.037-0.8-0.037-1.131v-0.154
			c0-1.179,0.066-1.791,0.193-1.83c-0.029-0.049-0.039-0.088-0.039-0.117c0-0.233,0.117-0.788,0.352-1.675
			c0-0.34,0.263-1.246,0.777-2.727c0.244-0.292,0.479-0.457,0.701-0.506c0.613-0.232,1.246-0.351,1.908-0.351
			C57.797,17.085,58.498,17.708,58.848,18.954z M56.316,19.071c-0.105,0.38-0.224,1.091-0.35,2.143v0.662
			c0,0.087-0.039,0.175-0.117,0.271v0.155c0,0.682-0.029,1.11-0.078,1.285c0.029,0.176,0.039,0.321,0.039,0.429v0.39
			c0,0.926,0.146,2.133,0.43,3.621h0.039c0.224-0.312,0.418-0.964,0.584-1.946c0.105-0.77,0.154-1.548,0.154-2.336
			c0-0.399-0.049-1.063-0.154-1.986v-0.194c0-0.106,0.01-0.254,0.039-0.429c-0.205-0.837-0.391-1.528-0.547-2.063h-0.039V19.071z"/>
		<path fill="#FFFFFF" d="M66.872,16.365c0.524,0,0.847,0.204,0.974,0.622c0.282,0.644,0.574,1.646,0.856,2.999l0.233,1.44
			l-0.039,0.545c0.028,0.682,0.039,1.149,0.039,1.402c0,0.594-0.127,1.353-0.39,2.297c-0.088,1.714-0.194,2.57-0.312,2.57
			c-0.342,0.943-1.022,1.703-2.025,2.259c-0.827,0.359-1.527,0.545-2.104,0.545h-0.039l-0.078,0.039v-0.039l-0.076,0.039
			c-0.38,0-0.809-0.264-1.285-0.778c-0.409-0.536-0.799-1.256-1.169-2.143c-0.34-1.041-0.506-2.259-0.506-3.66
			c0-0.408,0.088-2.435,0.272-6.074v-0.623c0-0.468,0.186-0.701,0.545-0.701c0.291-0.127,0.594-0.193,0.896-0.193H62.9l0.078-0.039
			v0.039c0.027,0,0.037-0.011,0.037-0.039c0.508,0,0.906,0.243,1.209,0.738c0.105,0.37,0.154,0.652,0.154,0.857
			c-0.049,0.604-0.078,0.992-0.078,1.168c0,0.146,0.078,0.643,0.234,1.479c-0.029,0.622-0.068,1.118-0.117,1.479l0.078,0.974
			l-0.039,0.078c0,0.06,0.01,0.107,0.039,0.155c-0.029,0.341-0.039,0.613-0.039,0.818v0.584c0,0.398,0.049,0.954,0.154,1.675h-0.038
			c0.049,0.312,0.116,0.594,0.194,0.855c0.146-0.137,0.352-0.904,0.623-2.298c0-0.165,0.116-0.847,0.352-2.023
			c0.105-0.518,0.165-1.665,0.193-3.428c0.029,0,0.049-0.155,0.078-0.468c-0.029-0.321-0.059-0.496-0.078-0.545h0.039
			c-0.049-0.137-0.078-0.438-0.078-0.896v-0.975c0-0.359,0.272-0.604,0.818-0.74h0.157V16.365z"/>
	</g>
</g>
</svg>
