<?xml version="1.0" encoding="utf-8"?>
<!-- Generator: Adobe Illustrator 16.0.0, SVG Export Plug-In . SVG Version: 6.00 Build 0)  -->
<!DOCTYPE svg PUBLIC "-//W3C//DTD SVG 1.1//EN" "http://www.w3.org/Graphics/SVG/1.1/DTD/svg11.dtd">
<svg version="1.1" id="Layer_1" xmlns="http://www.w3.org/2000/svg" xmlns:xlink="http://www.w3.org/1999/xlink" x="0px" y="0px"
	 width="60.016px" height="83.089px" viewBox="0 0 60.016 83.089" enable-background="new 0 0 60.016 83.089" xml:space="preserve">
<path fill="#999999" d="M5.813,24.589c-0.643,1.727-0.908,3.596-0.748,5.482c0.004,0.059,0.021,0.237,0.023,0.271
	c0.042,0.39,0.102,0.776,0.181,1.159l0.024,0.138c0.018,0.079,0.033,0.158,0.054,0.237c0.072,0.309,0.156,0.612,0.258,0.932
	c0.044,0.147,0.092,0.293,0.144,0.438c0.165,0.468,0.343,0.896,0.536,1.291l13.157,27.121c0.092,0.41,0.223,0.813,0.395,1.205
	l1.81,4.131c0.339,0.775,0.82,1.473,1.416,2.057c1.602,2.186,3.858,3.771,6.451,4.554l1.676,5.731
	c0.768,2.625,3.072,4.506,5.798,4.73c0.183,0.016,0.365,0.021,0.547,0.021c1.806,0,3.509-0.737,4.738-2.002
	c0.563,0.152,1.146,0.229,1.727,0.229c0.985,0,1.974-0.221,2.888-0.663c0.876-0.426,1.633-1.032,2.23-1.765
	c0.947-0.016,1.896-0.234,2.773-0.66c1.454-0.705,2.58-1.907,3.197-3.357c1.938-0.201,3.732-1.256,4.844-2.945
	c1.506-2.293,1.438-5.276-0.168-7.5l-3.413-4.721c1.148-3.139,1.009-6.797-0.616-10.15l-15.709-32.38
	c-1.579-3.256-4.365-5.671-7.581-6.738L30.84,5.8c-0.751-2.639-3.054-4.539-5.785-4.775C24.862,1.008,24.671,1,24.481,1
	c-1.807,0-3.51,0.738-4.739,2.004c-0.563-0.153-1.146-0.229-1.728-0.229c-0.984,0-1.972,0.22-2.885,0.662
	c-0.879,0.426-1.638,1.034-2.235,1.769c-0.946,0.016-1.894,0.234-2.771,0.66C8.67,6.57,7.544,7.771,6.926,9.221
	c-1.938,0.201-3.73,1.256-4.841,2.944c-1.506,2.293-1.438,5.277,0.168,7.501L5.813,24.589z"/>
<g>
	<g>
		<path fill="#FFFFFF" d="M36.532,83.089c-0.182,0-0.364-0.008-0.547-0.023c-2.727-0.227-5.03-2.105-5.798-4.73l-1.676-5.731
			c-2.593-0.784-4.851-2.368-6.451-4.554c-0.596-0.584-1.077-1.281-1.416-2.057l-1.81-4.131c-0.172-0.392-0.303-0.795-0.395-1.205
			L5.284,33.537c-0.193-0.396-0.371-0.823-0.536-1.291c-0.052-0.144-0.1-0.29-0.144-0.438c-0.102-0.318-0.186-0.623-0.258-0.932
			c-0.021-0.079-0.036-0.158-0.054-0.237l-0.024-0.138c-0.079-0.382-0.139-0.77-0.181-1.159c-0.004-0.034-0.021-0.213-0.023-0.271
			c-0.16-1.887,0.105-3.756,0.748-5.482l-3.561-4.923c-1.606-2.223-1.674-5.208-0.168-7.501C2.193,9.477,3.987,8.422,5.925,8.22
			C6.544,6.771,7.67,5.57,9.124,4.865c0.878-0.425,1.824-0.644,2.771-0.66c0.599-0.734,1.356-1.342,2.235-1.768
			c0.913-0.442,1.899-0.662,2.885-0.662c0.582,0,1.163,0.077,1.728,0.229C19.972,0.739,21.676,0,23.481,0
			c0.188,0,0.381,0.008,0.572,0.025c2.731,0.237,5.034,2.137,5.785,4.775l1.604,5.634c3.216,1.067,6.002,3.482,7.581,6.738
			l15.709,32.38c1.625,3.354,1.766,7.012,0.616,10.15l3.413,4.721c1.606,2.223,1.674,5.207,0.168,7.5
			c-1.11,1.689-2.904,2.744-4.844,2.945c-0.618,1.451-1.744,2.653-3.197,3.358c-0.88,0.426-1.826,0.646-2.773,0.661
			c-0.599,0.732-1.355,1.338-2.231,1.764c-0.913,0.444-1.9,0.664-2.887,0.664c-0.581,0-1.162-0.076-1.727-0.229
			C40.041,82.35,38.338,83.089,36.532,83.089z"/>
		<path fill="#FFFFFF" d="M36.53,76.48l2.109-4.37l4.356,2.597l0.654-5.027l4.354,2.602l0.658-5.033l4.741,1.049l-6.113-8.455
			c2.148-1.484,2.835-4.635,1.493-7.402l-3.743-7.715l0.001,0.001l-1.916-3.948l0,0l-3.131-6.455l0,0l-1.519-3.129l-3.529-7.275l0,0
			l-1.872-3.859c-1.342-2.767-4.238-4.18-6.738-3.412L23.483,6.609l-2.112,4.373l-4.355-2.599l-0.657,5.03l-4.354-2.601l-0.657,5.03
			l-4.738-1.049l6.188,8.561c-1.53,1.279-2.321,3.231-2.146,5.191c0,0.03,0.005,0.058,0.007,0.085
			c0.021,0.189,0.048,0.378,0.088,0.563c0.009,0.051,0.019,0.099,0.027,0.147c0.041,0.172,0.088,0.341,0.143,0.51
			c0.019,0.054,0.03,0.108,0.051,0.16c0.075,0.216,0.16,0.431,0.264,0.641l5.333,10.994l0.252,0.519l0,0l4.505,9.285l0.541,1.118
			l0,0l3.134,6.458l-0.104,0.104l1.809,4.049l0,0l0.134-0.043c1.24,2.558,4.093,3.793,6.753,3.236L36.53,76.48z"/>
	</g>
	<g>
		<g>
			<g>
				<polygon fill="#FC611F" points="33.339,65.257 46.569,58.841 53.406,68.294 48.665,67.246 48.007,72.281 43.651,69.677 
					42.997,74.707 38.64,72.11 36.53,76.48 				"/>
				<polygon fill="#DE3F18" points="34.56,64.666 45.345,59.433 49.681,64.585 46.142,64.403 45.148,67.56 42.053,66.384 
					41.063,69.542 37.97,68.367 35.926,71.257 				"/>
			</g>
			<g>
				<polygon fill="#FC611F" points="13.446,24.251 26.679,17.832 23.483,6.609 21.371,10.982 17.015,8.383 16.357,13.414 
					12.005,10.813 11.347,15.843 6.608,14.794 				"/>
				<polygon fill="#DE3F18" points="14.668,23.655 25.452,18.426 24.089,11.829 22.044,14.722 18.949,13.548 17.955,16.708 
					14.865,15.529 13.873,18.689 10.336,18.501 				"/>
			</g>
		</g>
		<path fill="#DE3F18" d="M35.048,65.847c-3.013,1.463-6.646,0.203-8.108-2.814L11.23,30.653c-1.463-3.019-0.204-6.648,2.813-8.112
			l10.923-5.298c3.02-1.464,6.648-0.203,8.111,2.813l15.709,32.381c1.462,3.018,0.205,6.648-2.813,8.109L35.048,65.847z"/>
		<path fill="#FC611F" d="M37.173,64.817c-2.625,1.274-5.939-0.138-7.403-3.157L14.063,29.279c-1.464-3.015-0.521-6.494,2.104-7.768
			l9.507-4.611c2.628-1.275,5.94,0.14,7.403,3.156l15.709,32.381c1.462,3.018,0.521,6.494-2.104,7.768L37.173,64.817z"/>
		<g>
			<path fill="#DCDAC8" d="M14.946,22.105l20.003,1.811l-1.872-3.859c-0.013-0.032-0.032-0.059-0.05-0.088L21.5,18.923
				L14.946,22.105z"/>
			<path fill="#DBB8CA" d="M38.082,30.373l-27.455-2.487c-0.019,0.931,0.171,1.876,0.604,2.768l0.538,1.109l28.229,2.558
				L38.082,30.373z"/>
			<polygon fill="#DBB8CA" points="45.044,44.723 43.128,40.775 14.9,38.219 16.815,42.166 			"/>
			<path fill="#DBB8CA" d="M49.389,55.062c-0.003-0.881-0.193-1.777-0.604-2.625l-0.611-1.26l-28.227-2.555l1.913,3.945
				L49.389,55.062z"/>
			<polygon fill="#DBB8CA" points="38.761,64.046 45.313,60.867 24.993,59.027 26.908,62.974 			"/>
		</g>
		<g>
			<path fill="#F6E4E7" d="M34.949,23.916l-1.872-3.859c-0.013-0.032-0.032-0.059-0.05-0.088L21.5,18.923l-5.333,2.588
				c-0.348,0.168-0.662,0.378-0.95,0.617L34.949,23.916z"/>
			<path fill="#F6E4E7" d="M14.063,29.279l1.363,2.815l24.57,2.226l-1.915-3.947l-24.449-2.215
				C13.741,28.538,13.885,28.912,14.063,29.279z"/>
			<polygon fill="#F6E4E7" points="20.473,42.498 45.044,44.723 43.128,40.775 18.56,38.55 			"/>
			<path fill="#F6E4E7" d="M25.522,52.902l23.866,2.16c-0.004-0.881-0.193-1.777-0.604-2.625l-0.611-1.26l-24.568-2.223
				L25.522,52.902z"/>
			<path fill="#F6E4E7" d="M29.769,61.66c0.309,0.635,0.701,1.193,1.148,1.68l7.844,0.707l6.553-3.18l-16.661-1.508L29.769,61.66z"
				/>
		</g>
	</g>
</g>
</svg>
