<?xml version="1.0" encoding="utf-8"?>
<!-- Generator: Adobe Illustrator 16.0.0, SVG Export Plug-In . SVG Version: 6.00 Build 0)  -->
<!DOCTYPE svg PUBLIC "-//W3C//DTD SVG 1.1//EN" "http://www.w3.org/Graphics/SVG/1.1/DTD/svg11.dtd">
<svg version="1.1" id="Layer_1" xmlns="http://www.w3.org/2000/svg" xmlns:xlink="http://www.w3.org/1999/xlink" x="0px" y="0px"
	 width="114.732px" height="133.963px" viewBox="0 0 114.732 133.963" enable-background="new 0 0 114.732 133.963"
	 xml:space="preserve">
<g>
	<path fill="#FAAF40" d="M20.042,36.28c-0.731,5.022-0.12,10.243,0.313,13.894c0.854-1.708,1.934-3.526,2.101-5.349
		c1.615,0.127,2.71,1.549,3.56,2.666c0.22-3.341,0.026-7.693,1.214-10.818c3.851-0.19,9.143,1.15,11.979,4.014
		c0.412-7.533,1.613-17.344,6.536-23.126c0.943,7.223,3.492,9.414,8.542,14.296C58.74,28.336,71.833,5.696,72.109,0
		c3.497,0.273,9.739,24.629,7.688,28.961c2.96-2.89,4.76-3.813,8.655-5.271c2.801-1.049,8.282-0.383,10.259-2.178
		c-3.765,7.358-3.055,15.879-5.725,23.208c3.785,0.538,8.291-2.817,11.418-4.317c-0.148,7.822,0.873,15.04-1.46,22.757
		c-0.938,3.11-3.334,5.896-4.375,8.909c-0.909,2.64-3.354,6.421-3.595,9.087c3.073,0.206,5.252-1.358,8.254-1.063
		c4.025,0.398,8.419,2.81,9.236,6.646c0.604,2.83-0.122,5.098-1.136,7.555c-1.52,3.682-0.138,4.884,3.023,1.713
		c0.932,5.44,0.363,10.014-4.196,13.129c-5.01,3.42-10.305,0.164-15.895,0.356c0.201,3.188-3.557,8.229-6.942,5.504
		c-2.926,4.631-5.271,9.909-7.976,14.792c-3.16,5.704-11.255,1.73-11.549-4.229c-4.862,3.685-7.177,1.729-9.709,1.729
		c-9.365,6.076-19.744,6.675-24.696,6.675c-7.71,0.002-15.433-1.844-21.104-6.911c-2.21-1.975-3.999-4.724-5.276-7.271
		c-0.64-1.278-2.022-4.111-1.124-5.556c1.298-2.086,2.886-0.705,4.952,0.008c6.316,2.184,15.574,5.367,22.1,2.334
		c0.371-2.029-2.51-6.383-3.418-8.039c-2.237-4.082-4.548-2.766-8.792-3.305c-7.718-0.983-12.736-4.752-16.942-11.139
		c-3.214-4.875-5.968-13.066-1.294-18.04c3.531-3.76,8.653,5.692,10.179,7.646c-3.391-4.979,2.87-8.76,7.113-8.566
		c-2.765-1.625-6.43-6.104-8.202-8.71c-2.505-3.684-2.774-6.746-2.774-11.329c0-4.166,0.201-8.355,2.612-11.748
		c1.448-2.037,9.016-7.355,8.96-7.056C20.38,36.28,20.053,36.196,20.042,36.28z"/>
	<g>
		<path fill="#231F20" d="M28.178,49.932c0.01,0.037,0.245,0.092,0.704,0.165c0.247,0.17,0.478,0.287,0.694,0.348
			c0.03,0.11,0.134,0.232,0.311,0.363c0.176,0.131,0.284,0.271,0.325,0.42c0.236,0.135,0.351,0.263,0.345,0.384
			c0.047,0.027,0.112,0.049,0.198,0.064l0.126,0.024c0.078,0.14,0.237,0.315,0.475,0.529c0.24,0.214,0.396,0.451,0.466,0.709
			c0.206,0.024,0.406,0.209,0.604,0.555c0.193,0.346,0.338,0.545,0.434,0.598c-0.046,0.413-0.063,0.638-0.054,0.675
			c0.01,0.037,0.071,0.04,0.183,0.01l0.126,0.024c0.059,0.064,0.122,0.156,0.196,0.275c0.072,0.121,0.138,0.212,0.195,0.275
			c0.057,0.064,0.142,0.081,0.253,0.051c-0.026,0.047-0.024,0.126,0.006,0.237c0.011,0.037,0.052,0.116,0.125,0.235
			c0.073,0.12,0.102,0.222,0.084,0.306c0.011,0.038-0.003,0.102-0.038,0.19c-0.034,0.09-0.041,0.172-0.021,0.245
			c-0.019,0.086,0.021,0.125,0.12,0.116c0.098-0.007,0.151,0.009,0.162,0.046l0.03,0.111c0.031,0.111,0.109,0.25,0.234,0.415
			c0.125,0.166,0.193,0.266,0.204,0.303l-0.026,0.127c0.204,0.303,0.312,0.475,0.32,0.511c0.03,0.111,0.006,0.237-0.074,0.38
			c0.084,0.017,0.137,0.063,0.157,0.137c0.041,0.148,0.177,0.391,0.41,0.725c0.23,0.336,0.374,0.596,0.425,0.781l0.031,0.111
			c-0.156,0.163-0.208,0.338-0.157,0.522l0.031,0.111c0.029,0.111,0.136,0.202,0.313,0.272c0.178,0.07,0.274,0.125,0.284,0.162
			l0.046,0.166c0.03,0.111,0.101,0.254,0.206,0.423c0.106,0.171,0.171,0.294,0.19,0.366c0.041,0.148,0.021,0.294-0.061,0.436
			c0.011,0.039,0.082,0.119,0.217,0.24c0.133,0.124,0.229,0.217,0.286,0.281c0.021,0.074,0.024,0.193,0.009,0.356
			c-0.015,0.163-0.012,0.284,0.01,0.356c0.01,0.039,0.044,0.089,0.103,0.152c0.155,0.276,0.291,0.479,0.405,0.606
			c-0.19,0.173-0.187,0.271,0.021,0.294c-0.09,0.105-0.126,0.234-0.103,0.387c0.021,0.154,0.006,0.279-0.048,0.373
			c0.048,0.027,0.095,0.094,0.146,0.2c0.049,0.105,0.098,0.173,0.146,0.198c-0.019,0.086-0.012,0.184,0.021,0.295
			c-0.018,0.085-0.016,0.164,0.005,0.237c0.067,0.102,0.231,0.117,0.491,0.046l0.223-0.063c0.392-0.027,0.755-0.088,1.09-0.181
			l0.444-0.122c0.445-0.123,0.763-0.13,0.952-0.023c0.054-0.094,0.154-0.162,0.303-0.203c0.261-0.071,0.451-0.104,0.572-0.098
			c0.07-0.178,0.061-0.436-0.031-0.769l-0.106-0.39c-0.021-0.075-0.061-0.174-0.113-0.299s-0.087-0.206-0.098-0.243l-0.229-0.834
			c-0.047-0.027-0.03-0.112,0.051-0.255c-0.021-0.073-0.051-0.105-0.086-0.096c-0.048-0.025-0.077-0.059-0.087-0.095
			c-0.035-0.271-0.172-0.622-0.41-1.056c-0.239-0.434-0.34-0.795-0.3-1.086c-0.136-0.202-0.214-0.34-0.232-0.414
			c-0.012-0.037,0.001-0.141,0.033-0.31c-0.011-0.037-0.031-0.081-0.064-0.132c-0.035-0.05-0.058-0.094-0.067-0.131l-0.159-0.795
			l-0.005-0.238c-0.011-0.037,0.011-0.182,0.062-0.436l-0.107-0.39c-0.021-0.074-0.005-0.158,0.049-0.253L40.06,57.61
			c0.055-0.095,0.075-0.16,0.065-0.197l-0.017-0.057c-0.046-0.025-0.057-0.063-0.03-0.111c0.036-0.01,0.051-0.033,0.041-0.07
			c-0.031-0.111-0.069-0.251-0.115-0.417c-0.046-0.168-0.062-0.292-0.044-0.378c0.026-0.046,0.056-0.125,0.086-0.233
			s0.058-0.186,0.085-0.233c-0.103-0.369-0.132-0.622-0.088-0.754l-0.046-0.168c-0.021-0.073-0.035-0.198-0.043-0.377
			c-0.012-0.176-0.023-0.303-0.044-0.377l-0.063-0.223l-0.229-0.836c-0.093-0.332-0.085-0.594,0.021-0.783
			c-0.047-0.027-0.106-0.03-0.182-0.01l-0.122-0.445c0.025-0.047,0.073-0.13,0.141-0.249c0.067-0.117,0.108-0.22,0.126-0.304
			c-0.021-0.074-0.07-0.109-0.149-0.109c-0.08,0.002-0.144-0.01-0.19-0.037l-0.069-0.04l-0.016-0.056
			c-0.021-0.074-0.02-0.176,0.006-0.303c0.025-0.125,0.032-0.208,0.021-0.244c-0.093-0.334-0.124-0.524-0.099-0.572
			c-0.029-0.111-0.093-0.193-0.188-0.247c-0.028-0.392-0.059-0.644-0.088-0.755c-0.041-0.148-0.09-0.254-0.148-0.319
			c0.063-0.216,0.086-0.481,0.08-0.8c0.09-0.104,0.265-0.162,0.521-0.174c0.256-0.011,0.41-0.063,0.465-0.157
			c0.075-0.021,0.152-0.022,0.237-0.006c0.084,0.017,0.146,0.021,0.183,0.01c0.075-0.021,0.123-0.064,0.145-0.13
			c0.021-0.066,0.051-0.104,0.089-0.114c0.047,0.027,0.139,0.032,0.272,0.015c0.135-0.017,0.221-0.03,0.26-0.041
			c0.072-0.021,0.164-0.016,0.272,0.014c0.107,0.03,0.204,0.055,0.289,0.07l0.444-0.123c0.147-0.041,0.354-0.017,0.617,0.07
			c0.265,0.087,0.471,0.109,0.619,0.068l0.111-0.031c0.094,0.056,0.271,0.116,0.528,0.185c0.259,0.069,0.436,0.13,0.53,0.184
			c0.193,0.268,0.529,0.513,1.012,0.739c0.481,0.227,0.796,0.461,0.941,0.699c0.095,0.054,0.217,0.141,0.37,0.258
			c0.151,0.117,0.273,0.203,0.369,0.256c0.144,0.521,0.165,0.813,0.063,0.881c0.011,0.038,0.046,0.059,0.106,0.061
			c0.062,0.005,0.096,0.024,0.104,0.062l0.046,0.167c0.082,0.297,0.303,0.515,0.66,0.656c0.137,0.201,0.235,0.415,0.296,0.637
			l0.322,1.17c0.114,0.128,0.184,0.229,0.203,0.303l0.092,0.334c0.021,0.076,0.06,0.175,0.112,0.3
			c0.055,0.124,0.087,0.206,0.098,0.242c0.041,0.148,0.011,0.257-0.091,0.324l0.153,0.557c0.112,0.409,0.143,0.659,0.087,0.755
			c0.011,0.037,0.048,0.097,0.108,0.179c0.063,0.083,0.086,0.167,0.069,0.251c0.116,0.128,0.243,0.412,0.385,0.852
			c0.143,0.44,0.313,0.734,0.513,0.878c-0.018,0.085,0.001,0.22,0.052,0.405c0.021,0.074,0.062,0.191,0.129,0.354
			c0.063,0.162,0.104,0.28,0.127,0.354l-0.051,0.254l0.092,0.333c0.011,0.037-0.004,0.061-0.04,0.071
			c-0.027,0.048-0.035,0.091-0.024,0.128l0.062,0.221c-0.007,0.122-0.041,0.213-0.106,0.271c-0.016,0.084,0.019,0.135,0.104,0.15
			c0.036-0.01,0.062,0.003,0.07,0.04c-0.017,0.086-0.007,0.232,0.031,0.441s0.066,0.352,0.087,0.425
			c0.011,0.038,0.011,0.107-0.002,0.21c-0.011,0.104-0.012,0.174-0.002,0.21c0.011,0.038,0.063,0.113,0.152,0.228
			c0.092,0.116,0.153,0.228,0.184,0.339l0.063,0.223l0.199,0.724c-0.045,0.133-0.034,0.35,0.029,0.65
			c0.063,0.304,0.09,0.514,0.085,0.636c-0.14,0.079-0.229,0.184-0.272,0.315s-0.069,0.288-0.08,0.471
			c-0.009,0.183-0.04,0.321-0.095,0.416c0.114,0.128,0.198,0.285,0.25,0.471c0.041,0.148,0.028,0.252-0.036,0.308
			c-0.016,0.085,0.004,0.12,0.06,0.104s0.089-0.004,0.101,0.033c0.041,0.148,0.075,0.857,0.105,2.125
			c-0.027,0.05-0.087,0.125-0.177,0.229c0.021,0.074,0.025,0.172,0.021,0.293c-0.007,0.121-0.004,0.201,0.006,0.238l0.071,0.041
			c0.021,0.073,0.036,0.129,0.046,0.166c-0.044,0.133-0.037,0.301,0.02,0.504s0.08,0.365,0.075,0.487
			c0.011,0.038,0.011,0.117,0.006,0.238l0.029,0.11c0.012,0.037-0.012,0.104-0.065,0.199c-0.053,0.094-0.088,0.184-0.104,0.269
			c0.053,0.187,0.016,0.346-0.107,0.479c-0.123,0.134-0.179,0.22-0.168,0.255l-0.04,0.071c-0.019,0.085-0.04,0.149-0.065,0.197
			c-0.055,0.096-0.138,0.229-0.25,0.397c-0.112,0.172-0.184,0.28-0.209,0.328l-0.557,0.152c-0.111,0.031-0.308,0.085-0.585,0.162
			c-0.278,0.076-0.47,0.148-0.569,0.215l-0.557,0.152c-0.297,0.082-0.531,0.108-0.699,0.074c-0.084-0.017-0.219-0.068-0.402-0.158
			s-0.317-0.142-0.401-0.158l-0.041,0.07l-0.04,0.071l-0.762-0.151c-0.036,0.012-0.117-0.026-0.239-0.111
			c-0.125-0.086-0.246-0.133-0.368-0.139c-0.047-0.025-0.138-0.103-0.271-0.226c-0.135-0.122-0.248-0.21-0.344-0.265
			c-0.057-0.063-0.134-0.162-0.229-0.297c-0.098-0.133-0.175-0.229-0.231-0.295c-0.057-0.064-0.052-0.114,0.017-0.154
			c0.069-0.039,0.101-0.077,0.091-0.114c-0.244-0.012-0.406-0.167-0.488-0.464l-0.123-0.445c-0.01-0.037-0.049-0.105-0.115-0.207
			c-0.068-0.103-0.112-0.188-0.133-0.264c-0.059-0.063-0.102-0.152-0.133-0.264c-0.03-0.11-0.051-0.186-0.062-0.223l-0.016-0.057
			c-0.048-0.025-0.077-0.059-0.088-0.096l-0.045-0.166c-0.123-0.445-0.25-0.689-0.383-0.734c-0.293,0.241-0.662,0.423-1.107,0.545
			l-1.725,0.477c-0.445,0.123-0.841,0.291-1.181,0.504c0.012,0.037,0.004,0.119-0.021,0.244c-0.024,0.129-0.027,0.229-0.007,0.303
			l0.029,0.111c-0.138,0.078-0.19,0.283-0.16,0.612c0.031,0.331,0.037,0.539,0.021,0.624l0.322,1.169
			c0.01,0.037,0.007,0.099-0.011,0.183c0.031,0.109,0.07,0.182,0.117,0.207c-0.091,0.104-0.16,0.254-0.206,0.445
			c-0.048,0.192-0.084,0.313-0.109,0.36c-0.028,0.048-0.074,0.101-0.138,0.157c-0.063,0.058-0.109,0.111-0.137,0.156
			c-0.037,0.01-0.065,0.118-0.09,0.324c-0.081,0.143-0.212,0.318-0.395,0.528c-0.061,0.217-0.168,0.405-0.322,0.567l-0.111,0.029
			c-0.074,0.021-0.146,0.081-0.219,0.182c-0.073,0.101-0.129,0.153-0.165,0.164l-0.334,0.093c-0.128,0.114-0.229,0.184-0.303,0.204
			c-0.111,0.029-0.318,0.037-0.624,0.021c-0.304-0.016-0.53-0.003-0.679,0.037l-0.277,0.077c-0.037,0.01-0.062-0.004-0.071-0.041
			l-0.126-0.023c-0.085-0.018-0.165-0.016-0.238,0.006c-0.075,0.021-0.131,0.035-0.168,0.045c-0.036,0.011-0.079,0.002-0.126-0.024
			c-0.059-0.063-0.129-0.104-0.213-0.121c-0.037,0.011-0.107,0.011-0.209-0.002c-0.104-0.013-0.174-0.013-0.211-0.002
			c-0.132-0.043-0.364-0.159-0.695-0.349l-0.213-0.121c-0.537-0.211-0.811-0.334-0.821-0.371c-0.694-0.206-1.109-0.553-1.242-1.036
			c-0.143-0.08-0.229-0.177-0.261-0.287l-0.123-0.444l-0.304-0.455l-0.052-0.406c-0.031-0.11-0.133-0.262-0.305-0.454
			c-0.174-0.191-0.275-0.345-0.308-0.455l-0.046-0.166c-0.021-0.075-0.041-0.188-0.063-0.343c-0.022-0.152-0.043-0.268-0.064-0.342
			l-0.045-0.166c-0.011-0.037,0.002-0.102,0.037-0.189c0.035-0.09,0.048-0.153,0.037-0.191l-0.03-0.109
			c-0.203-0.305-0.356-0.642-0.458-1.012l-0.307-1.115c-0.012-0.035-0.031-0.07-0.061-0.103c-0.027-0.032-0.049-0.067-0.06-0.104
			l-0.062-0.223c-0.062-0.223-0.083-0.375-0.065-0.461c-0.156-0.275-0.249-0.47-0.279-0.58c-0.082-0.297-0.1-0.572-0.049-0.826
			l-0.062-0.223c-0.152-0.557-0.209-0.901-0.165-1.033c-0.179-0.07-0.295-0.197-0.347-0.384c-0.01-0.036-0.021-0.122-0.04-0.258
			c-0.018-0.135-0.036-0.239-0.056-0.314c-0.096-0.054-0.152-0.116-0.174-0.191c-0.04-0.147-0.064-0.342-0.07-0.58
			c-0.006-0.238-0.018-0.394-0.038-0.468l-0.03-0.111c-0.011-0.037-0.069-0.11-0.182-0.22c-0.11-0.109-0.193-0.195-0.251-0.261
			l-0.063-0.223c-0.029-0.111-0.07-0.33-0.119-0.656c-0.052-0.324-0.102-0.58-0.151-0.766l-0.063-0.223
			c-0.01-0.037-0.043-0.118-0.097-0.244c-0.056-0.123-0.092-0.224-0.112-0.298l-0.029-0.111c-0.011-0.036-0.007-0.097,0.01-0.182
			c0.016-0.085,0.014-0.164-0.007-0.238c-0.011-0.037-0.045-0.127-0.104-0.271c-0.061-0.144-0.099-0.251-0.119-0.327
			c-0.03-0.11-0.036-0.209-0.021-0.293c-0.011-0.037-0.049-0.066-0.113-0.089c-0.064-0.021-0.104-0.051-0.115-0.088
			c-0.234-1.291-0.358-1.957-0.369-1.994c-0.021-0.074-0.015-0.195,0.021-0.365c0.032-0.168,0.035-0.309,0.004-0.421l-0.123-0.445
			c0.033-0.168,0.049-0.331,0.045-0.491c-0.058-0.063-0.067-0.1-0.03-0.11l0.039-0.071c-0.011-0.037-0.033-0.121-0.068-0.25
			c-0.036-0.131-0.021-0.225,0.043-0.281c-0.031-0.112-0.067-0.82-0.106-2.128c0.025-0.046,0.045-0.122,0.059-0.225
			c0.011-0.103,0.049-0.183,0.112-0.241L25,52.297c-0.103-0.37,0.186-0.849,0.862-1.435C26.127,50.675,26.899,50.363,28.178,49.932z
			"/>
	</g>
	<g>
		<path fill="#231F20" d="M68.897,41.295l0.172,0.02c0.115,0.013,0.274,0.06,0.479,0.141c0.202,0.082,0.343,0.127,0.42,0.136
			c0.076,0.009,0.151,0.027,0.227,0.055c0.073,0.029,0.148,0.046,0.227,0.055l0.688,0.078c0.497,0.057,0.855,0.155,1.07,0.296
			c0.038,0.005,0.107,0.07,0.211,0.198c0.343,0.039,0.689,0.233,1.037,0.583c0.23,0.026,0.468,0.141,0.717,0.343
			c0.248,0.202,0.468,0.314,0.659,0.336c-0.022,0.191,0.097,0.341,0.355,0.448c0.047,0.276,0.088,0.416,0.126,0.42
			c0.105,0.091,0.249,0.281,0.43,0.572c0.18,0.292,0.342,0.485,0.486,0.578c0.051,0.238,0.11,0.382,0.184,0.428
			c0.034,0.043,0.029,0.09-0.016,0.144c-0.045,0.053-0.07,0.099-0.074,0.137c0.06,0.162,0.169,0.388,0.331,0.677
			c0.16,0.29,0.289,0.518,0.387,0.683c-0.034,0.307-0.073,0.478-0.116,0.511c-0.004,0.038,0.014,0.06,0.053,0.063
			c0.151,0.018,0.26,0.088,0.323,0.211c0.063,0.124,0.112,0.285,0.148,0.482c0.036,0.198,0.086,0.339,0.156,0.424
			c-0.049,0.073-0.08,0.186-0.098,0.338c-0.021,0.191,0.027,0.43,0.149,0.715c0.122,0.285,0.199,0.469,0.229,0.549
			c-0.009,0.077-0.021,0.201-0.042,0.373c-0.02,0.172-0.017,0.299,0.016,0.38c0.028,0.081,0.068,0.152,0.12,0.216
			c0.052,0.064,0.073,0.116,0.069,0.153c0.036,0.702,0.07,1.074,0.105,1.116c-0.005,0.039-0.024,0.124-0.06,0.255
			c-0.033,0.133-0.055,0.236-0.063,0.313c-0.065,0.574-0.024,1.063,0.123,1.467c-0.052,0.459-0.078,0.862-0.08,1.212
			c-0.013,0.114,0.007,0.282,0.061,0.5c0.053,0.219,0.074,0.367,0.065,0.443c-0.013,0.115-0.083,0.223-0.211,0.325
			c-0.009,0.077-0.012,0.184-0.007,0.318c0.004,0.137,0.002,0.243-0.008,0.319c-0.038,0.344-0.132,0.645-0.276,0.898
			c0.023,0.119,0.025,0.274,0.005,0.465c-0.03,0.269-0.072,0.457-0.122,0.567c-0.009,0.077,0.002,0.155,0.03,0.236
			c0.028,0.081,0.021,0.157-0.025,0.229c-0.005,0.038-0.046,0.072-0.128,0.102c-0.08,0.03-0.127,0.103-0.14,0.216l-0.072,0.632
			c-0.004,0.039,0.009,0.088,0.041,0.149c0.031,0.062,0.045,0.112,0.041,0.149c-0.153,0.332-0.232,0.518-0.237,0.555
			c-0.018,0.154,0.02,0.351,0.106,0.594c-0.008,0.076-0.057,0.148-0.141,0.216c-0.087,0.068-0.13,0.122-0.134,0.159
			c0.031,0.043,0.034,0.199,0.004,0.466c-0.013,0.114-0.003,0.194,0.032,0.236c-0.044,0.034-0.088,0.077-0.131,0.13
			c-0.046,0.053-0.09,0.098-0.133,0.131c-0.041,0.034-0.086,0.077-0.13,0.13c-0.046,0.053-0.105,0.075-0.183,0.066
			c-0.23,0.672-0.397,1.118-0.502,1.339c-0.037-0.005-0.099,0.017-0.18,0.066c-0.085,0.048-0.161,0.049-0.234,0.002
			c-0.271,0.356-0.446,0.53-0.523,0.521c-0.064,0.226-0.203,0.423-0.416,0.592c-0.046,0.072-0.043,0.132,0.01,0.176
			c0.054,0.045,0.078,0.087,0.074,0.125c-0.853,0.329-1.686,0.835-2.497,1.519c-0.192-0.022-0.453,0.063-0.785,0.26
			c-0.115-0.015-0.256,0.02-0.419,0.098c-0.164,0.078-0.284,0.111-0.36,0.104l-0.344-0.039c-0.078-0.008-0.355,0.059-0.836,0.195
			c-0.404,0.148-0.629,0.24-0.671,0.273c-0.468,0.025-0.785,0.085-0.95,0.183L67.5,69.96c-0.078-0.009-0.188,0.018-0.328,0.078
			c-0.145,0.063-0.252,0.088-0.328,0.079l-1.263-0.144c-0.469,0.024-0.836,0.021-1.104-0.01l-0.229-0.025
			c-0.077-0.01-0.148-0.056-0.216-0.142c-0.115-0.013-0.281-0.012-0.494,0.002c-0.217,0.015-0.381,0.015-0.495,0.002
			c-0.421-0.048-0.726-0.102-0.911-0.161c-0.076-0.009-0.19-0.041-0.338-0.097c-0.149-0.056-0.28-0.09-0.396-0.104
			c-0.039-0.004-0.097,0-0.176,0.011c-0.078,0.011-0.137,0.014-0.175,0.009c-0.114-0.014-0.262-0.088-0.439-0.225
			c-0.18-0.137-0.307-0.209-0.382-0.219l-0.229-0.024c-0.229-0.026-0.468-0.149-0.713-0.372c-0.11-0.051-0.237-0.133-0.38-0.246
			c-0.142-0.112-0.231-0.172-0.271-0.176l-0.172-0.021c-0.035-0.042-0.103-0.128-0.204-0.256c-0.103-0.128-0.188-0.215-0.261-0.262
			c-0.317-0.269-0.475-0.422-0.471-0.46c-0.417-0.086-0.904-0.394-1.465-0.922c-0.073-0.047-0.159-0.135-0.26-0.262
			c-0.103-0.129-0.19-0.216-0.262-0.263c-0.238-0.298-0.371-0.487-0.4-0.569l-0.42-0.396c0.009-0.076-0.039-0.169-0.143-0.278
			c-0.104-0.107-0.149-0.22-0.138-0.334l-0.272-0.147c-0.122-0.285-0.279-0.7-0.47-1.244c-0.189-0.546-0.331-0.919-0.425-1.124
			c-0.147-0.403-0.266-0.902-0.354-1.493c-0.07-0.395-0.104-0.612-0.101-0.65l-0.184-0.428c0.004-0.037,0.014-0.638,0.029-1.798
			c-0.052-0.587-0.072-0.899-0.068-0.938c-0.021-0.156-0.005-0.388,0.05-0.691c0.055-0.304,0.087-0.514,0.102-0.628
			c0.009-0.077,0.003-0.203-0.017-0.38c-0.02-0.177-0.022-0.303-0.015-0.379c0.008-0.076,0.035-0.15,0.083-0.224
			c0.047-0.071,0.073-0.127,0.077-0.166c0.009-0.076,0.015-0.21,0.018-0.404c0.001-0.193,0.029-0.345,0.08-0.456l0.083-0.223
			c0.047-0.072,0.059-0.168,0.032-0.287l-0.03-0.236c0.167-0.445,0.276-0.724,0.327-0.833c0.051-0.111,0.091-0.29,0.119-0.539
			c0.028-0.249,0.073-0.477,0.136-0.683c0.063-0.205,0.157-0.359,0.285-0.461c0.048-0.42,0.25-0.844,0.609-1.268
			c0.152-0.68,0.395-1.098,0.723-1.255l0.014-0.114c-0.03-0.081-0.042-0.14-0.037-0.179c0.079-0.029,0.165-0.098,0.254-0.203
			c0.091-0.106,0.153-0.157,0.192-0.153c0.042-0.032,0.046-0.071,0.014-0.114c-0.034-0.042-0.051-0.083-0.046-0.122
			c0.081-0.027,0.155-0.088,0.225-0.177c0.068-0.089,0.143-0.148,0.225-0.179c0.067-0.263,0.235-0.534,0.499-0.814
			c0.265-0.279,0.424-0.494,0.479-0.643c0.736-0.691,1.13-1.073,1.177-1.146c0.08-0.028,0.384-0.149,0.912-0.361
			c0.08-0.028,0.205-0.102,0.374-0.219c0.167-0.116,0.312-0.187,0.431-0.213c0.038,0.005,0.106-0.007,0.208-0.034
			c0.099-0.027,0.168-0.039,0.206-0.034c0.038,0.004,0.179-0.039,0.422-0.127c0.242-0.089,0.439-0.124,0.593-0.107
			c0.043-0.033,0.15-0.128,0.323-0.282c0.172-0.155,0.337-0.242,0.495-0.264c0.08-0.029,0.276-0.056,0.589-0.078
			c0.313-0.023,0.514-0.088,0.604-0.193c0.147,0.056,0.415,0.105,0.798,0.148l0.286,0.033c0.076,0.009,0.167-0.02,0.271-0.086
			c0.104-0.065,0.193-0.094,0.271-0.085c0.787-0.104,1.199-0.174,1.242-0.208c0.072,0.048,0.167,0.077,0.281,0.09
			c0.229,0.026,0.429-0.028,0.601-0.164c0.081-0.029,0.235-0.031,0.465-0.005l0.746,0.085C68.603,41.319,68.778,41.32,68.897,41.295
			z M68.721,44.878c-0.072,0.303-0.291,0.528-0.658,0.681l-0.031,0.287l-0.186,0.095c-0.018,0.153-0.07,0.273-0.158,0.36
			c-0.087,0.087-0.186,0.182-0.293,0.286c-0.108,0.104-0.188,0.192-0.233,0.264c-0.004,0.038,0.009,0.099,0.039,0.179
			c0.027,0.081,0.042,0.142,0.036,0.179l-0.12,0.044c-0.119,0.026-0.2,0.056-0.242,0.089l-0.039,0.345
			c-0.052,0.459-0.321,0.951-0.808,1.478l-0.025,0.229c-0.013,0.114-0.044,0.295-0.091,0.542c-0.049,0.246-0.078,0.426-0.092,0.541
			c-0.025,0.229-0.015,0.463,0.037,0.701c-0.12,0.025-0.188,0.115-0.205,0.268c-0.004,0.038-0.009,0.077-0.013,0.114
			c-0.005,0.039-0.049,0.093-0.135,0.16c-0.051,0.109-0.095,0.241-0.132,0.392c-0.037,0.151-0.06,0.265-0.067,0.341
			c0.103,0.128,0.14,0.306,0.113,0.535c-0.027,0.229-0.129,0.45-0.309,0.663c0.051,0.237,0.069,0.414,0.058,0.529
			c-0.021,0.191-0.089,0.436-0.2,0.733c-0.004,0.038,0.027,0.1,0.096,0.185c0.066,0.086,0.077,0.164,0.03,0.236
			c-0.102,0.221-0.188,0.638-0.257,1.249c-0.026,0.229-0.059,0.584-0.093,1.064s-0.065,0.835-0.092,1.064l-0.039,0.344
			c-0.005,0.039,0.007,0.108,0.033,0.208c0.027,0.1,0.039,0.169,0.035,0.207c0.046,0.276,0.05,0.665,0.014,1.164
			c-0.037,0.499-0.048,0.848-0.03,1.042l0.111,0.536c0.088,0.591,0.185,0.95,0.285,1.078c0.102,0.128,0.296,0.286,0.586,0.473
			c0.076,0.01,0.142,0.037,0.193,0.081c0.053,0.045,0.098,0.069,0.137,0.074c0.073,0.046,0.146,0.074,0.226,0.083
			c0.035,0.004,0.135-0.004,0.292-0.024c0.156-0.021,0.271-0.008,0.345,0.039c0.579-0.321,1.027-0.523,1.347-0.603
			c0.047-0.072,0.127-0.18,0.24-0.322c0.112-0.142,0.211-0.246,0.297-0.314c0.089-0.106,0.199-0.307,0.33-0.603
			c0.13-0.294,0.221-0.497,0.272-0.607l0.203-0.268c0.048-0.072,0.088-0.164,0.12-0.277c0.03-0.112,0.07-0.204,0.118-0.276
			c0.269-0.318,0.409-0.535,0.422-0.649c0.014-0.115,0.002-0.194-0.03-0.236c0.09-0.106,0.193-0.269,0.315-0.486
			c0.121-0.219,0.205-0.364,0.253-0.437l-0.03-0.238c0.014-0.115,0.066-0.244,0.161-0.389c0.094-0.144,0.144-0.235,0.147-0.273
			s0.014-0.124,0.029-0.259c0.015-0.133,0.046-0.236,0.094-0.309c0.009-0.076,0.034-0.15,0.082-0.224
			c0.047-0.071,0.073-0.126,0.077-0.165l0.098-0.86c0.061-0.187,0.16-0.477,0.302-0.866c0.143-0.392,0.22-0.644,0.231-0.759
			c0.128-0.45,0.135-1.107,0.021-1.973c-0.114-0.865-0.149-1.489-0.106-1.872c-0.095-0.204-0.145-0.529-0.15-0.977
			c-0.008-0.445-0.024-0.729-0.049-0.848c-0.2-0.642-0.289-1.04-0.271-1.193c-0.367-0.855-0.557-1.419-0.563-1.691
			c-0.146-0.093-0.348-0.252-0.614-0.476c-0.265-0.225-0.488-0.385-0.671-0.483C69.292,44.981,69.027,44.913,68.721,44.878z"/>
	</g>
	<g>
		<path fill="#231F20" d="M90.664,45.696c0.11,0.03,0.597,0.224,1.458,0.577c0.036,0.011,0.116,0.042,0.241,0.097
			c0.125,0.055,0.226,0.091,0.3,0.111l0.042,0.071l0.056,0.015c0.259,0.071,0.396,0.148,0.415,0.233
			c1.438,0.433,2.741,0.987,3.914,1.666c-0.01,0.037,0.011,0.103,0.066,0.197l0.063,0.197l0.335,0.091
			c0.106,0.189,0.152,0.322,0.133,0.396c0.109,0.029,0.209,0.106,0.295,0.229c0.087,0.125,0.166,0.196,0.241,0.217
			c-0.021,0.074-0.01,0.177,0.035,0.309c0.044,0.132,0.056,0.234,0.035,0.309l-0.496,0.283c-0.096,0.055-0.395,0.272-0.896,0.654
			c-0.638,0.145-1.078,0.225-1.32,0.237l-0.168-0.046c-0.371-0.102-0.713-0.094-1.023,0.021c-0.371-0.101-1.097-0.219-2.177-0.354
			c-0.048,0.027-0.124,0.047-0.227,0.059c-0.104,0.012-0.179,0.031-0.226,0.059c-0.07,0.699-0.11,1.066-0.121,1.104
			c-0.07,0.26-0.172,0.412-0.304,0.456c-0.021,0.075-0.027,0.173-0.021,0.293c0.007,0.122,0.006,0.202-0.005,0.239
			c-0.01,0.037-0.061,0.113-0.151,0.227c-0.092,0.115-0.152,0.229-0.184,0.34c-0.04,0.148-0.064,0.461-0.075,0.938
			c-0.01,0.037-0.039,0.068-0.087,0.096l-0.029,0.111c-0.021,0.075-0.034,0.2-0.042,0.377c-0.011,0.178-0.022,0.304-0.043,0.377
			c-0.012,0.038-0.06,0.104-0.146,0.201c-0.087,0.096-0.135,0.163-0.146,0.199c-0.011,0.038-0.019,0.104-0.024,0.203
			c-0.008,0.098-0.021,0.184-0.041,0.258c-0.051,0.187-0.201,0.444-0.45,0.775l0.075,0.379c-0.066,0.102-0.16,0.336-0.28,0.702
			c-0.121,0.366-0.256,0.608-0.407,0.727l-0.105,0.39c-0.051,0.186-0.123,0.416-0.218,0.688c-0.097,0.273-0.162,0.485-0.202,0.634
			c-0.071,0.26-0.109,0.47-0.111,0.628c-0.01,0.037,0.024,0.126,0.105,0.269c0.017,0.084,0.001,0.14-0.046,0.166L88.6,62.253
			c0.062,0.217,0.065,0.417,0.017,0.603c-0.081,0.298-0.208,0.542-0.381,0.734c-0.022,0.232-0.063,0.382-0.12,0.446
			c0.063,0.057,0.06,0.217-0.012,0.475c-0.011,0.038-0.024,0.094-0.046,0.168l0.025,0.127c-0.021,0.075-0.087,0.176-0.202,0.303
			l0.025,0.127c-0.021,0.075-0.036,0.131-0.047,0.168c-0.021,0.074-0.062,0.153-0.124,0.235c-0.063,0.083-0.099,0.144-0.107,0.179
			c0.017,0.086,0.055,0.165,0.113,0.241c0.06,0.076,0.085,0.134,0.073,0.17c-0.067,0.102-0.107,0.25-0.121,0.446
			c-0.015,0.195-0.05,0.325-0.105,0.39c-0.06,0.064-0.14,0.142-0.244,0.232c-0.104,0.09-0.162,0.155-0.172,0.192
			c-0.011,0.037-0.004,0.088,0.018,0.154c0.022,0.065,0.027,0.117,0.019,0.153l-0.076,0.279c-0.07,0.26-0.202,0.522-0.396,0.789
			c0.067,0.339,0.065,0.638-0.005,0.896l-0.116,0.208c0.026,0.048-0.025,0.313-0.156,0.796c-0.031,0.11-0.034,0.271-0.01,0.477
			c0.021,0.205,0.021,0.363-0.011,0.476c-0.041,0.149-0.132,0.265-0.273,0.345c-0.048,0.027-0.145,0.051-0.289,0.07
			c-0.146,0.02-0.252,0.081-0.318,0.184c-0.037-0.01-0.146-0.01-0.329,0c-0.182,0.01-0.329,0-0.439-0.03
			c-0.097,0.054-0.663,0.159-1.702,0.313l-1.159-0.138c-0.038-0.01-0.086-0.013-0.147-0.01c-0.061,0.004-0.108,0-0.146-0.011
			c-0.074-0.021-0.209-0.076-0.402-0.17c-0.192-0.093-0.348-0.153-0.458-0.186l-0.237-0.004c-0.415-0.232-0.661-0.359-0.734-0.38
			l-0.111-0.03c-0.162-0.284-0.308-0.482-0.437-0.599c-0.026-0.046-0.093-0.204-0.199-0.474c-0.104-0.269-0.224-0.459-0.352-0.574
			c0.029-0.111,0.019-0.215-0.036-0.31c-0.434-0.756-0.577-1.394-0.437-1.914c0.052-0.186,0.063-0.302,0.036-0.35
			c-0.027-0.047-0.019-0.084,0.03-0.111l0.07-0.041c-0.081-0.142-0.097-0.305-0.045-0.491l0.167-0.612
			c0.01-0.037,0.036-0.068,0.086-0.097c0.047-0.026,0.075-0.059,0.086-0.096c0.01-0.036-0.002-0.1-0.038-0.19
			c-0.036-0.089-0.048-0.152-0.038-0.189c0.609-1.948,1-3.079,1.165-3.394c0.021-0.073,0.07-0.119,0.158-0.136
			c0.01-0.037,0.021-0.054,0.042-0.049c0.019,0.005,0.032-0.011,0.044-0.048c-0.094-0.104-0.044-0.211,0.146-0.319l-0.11-0.03
			c-0.075-0.021-0.106-0.049-0.097-0.087l0.359-1.098c0.01-0.037,0.049-0.066,0.114-0.089c0.063-0.021,0.104-0.052,0.112-0.089
			c0.01-0.036,0.001-0.079-0.023-0.126c-0.027-0.048-0.035-0.09-0.025-0.127c0.01-0.036,0.092-0.304,0.248-0.8
			c0.155-0.497,0.294-0.828,0.42-0.993c0.01-0.036,0.001-0.079-0.025-0.126l0.03-0.112c0.128-0.323,0.288-0.839,0.481-1.544
			l0.773-2.842c0.03-0.11,0.103-0.261,0.213-0.45c0.111-0.188,0.183-0.339,0.213-0.45c0.058-0.064,0.138-0.212,0.241-0.443
			c0.103-0.231,0.215-0.351,0.336-0.357c0.007-0.316,0.021-0.513,0.041-0.588c0.021-0.073,0.111-0.228,0.276-0.463
			c0.162-0.234,0.278-0.402,0.346-0.503c0.067-0.103,0.137-0.243,0.205-0.423c0.069-0.181,0.138-0.322,0.205-0.424
			c0.345-0.385,0.527-0.613,0.548-0.688c-0.156-0.163-0.493-0.353-1.011-0.575c-0.519-0.221-0.85-0.431-0.995-0.631l-0.168-0.045
			c-0.223-0.061-0.361-0.138-0.415-0.232c-0.371-0.102-0.536-0.227-0.495-0.375l-0.335-0.092c-0.092-0.104-0.304-0.281-0.633-0.531
			c-0.332-0.249-0.556-0.451-0.674-0.603l0.03-0.111c0.029-0.112,0.084-0.236,0.161-0.375c0.077-0.138,0.121-0.227,0.133-0.264
			l1.217-0.507c0.073,0.021,0.196,0.005,0.37-0.047c0.174-0.053,0.335-0.059,0.482-0.019c0.037,0.011,0.062,0.037,0.069,0.079
			s0.049,0.073,0.124,0.094c0.904,0.047,1.431,0.091,1.58,0.131l0.168,0.046c0.439-0.158,0.96-0.156,1.554,0.006
			c0.131-0.044,0.327-0.031,0.588,0.04l0.391,0.106l0.771,0.03c0.073,0.02,0.146,0.05,0.215,0.088
			c0.068,0.04,0.141,0.069,0.215,0.09c0.036,0.01,0.097,0.016,0.176,0.018s0.138,0.007,0.175,0.018l0.445,0.121
			c0.408,0.111,0.719,0.217,0.933,0.314C90.211,45.594,90.404,45.626,90.664,45.696z"/>
	</g>
	<g>
		<path fill="#231F20" d="M45.998,76.649c0.097-0.017,0.538-0.037,1.323-0.063c0.032-0.005,0.105-0.009,0.222-0.011
			s0.205-0.01,0.27-0.02l0.057,0.041l0.049-0.008c0.225-0.036,0.357-0.025,0.399,0.034c1.26-0.169,2.457-0.195,3.597-0.082
			c0.006,0.033,0.045,0.075,0.12,0.129l0.118,0.129l0.289-0.046c0.148,0.109,0.229,0.194,0.239,0.259
			c0.097-0.016,0.198,0.011,0.308,0.074c0.109,0.065,0.196,0.092,0.262,0.081c0.01,0.064,0.055,0.141,0.135,0.227
			s0.125,0.162,0.136,0.227l-0.284,0.392c-0.054,0.075-0.209,0.347-0.462,0.815c-0.439,0.335-0.753,0.549-0.935,0.645l-0.146,0.021
			c-0.32,0.052-0.583,0.177-0.781,0.373c-0.321,0.051-0.922,0.214-1.801,0.484c-0.026,0.039-0.077,0.08-0.152,0.125
			s-0.127,0.086-0.153,0.123c0.188,0.563,0.287,0.86,0.292,0.894c0.036,0.225,0.01,0.376-0.075,0.456
			c0.011,0.063,0.039,0.143,0.086,0.232c0.049,0.092,0.074,0.153,0.079,0.186c0.005,0.033-0.007,0.109-0.038,0.229
			c-0.028,0.121-0.037,0.229-0.021,0.325c0.021,0.129,0.11,0.378,0.268,0.749c0.006,0.031-0.005,0.066-0.031,0.104l0.016,0.097
			c0.011,0.063,0.044,0.167,0.098,0.307c0.057,0.14,0.089,0.241,0.101,0.306c0.005,0.031-0.01,0.102-0.042,0.205
			c-0.033,0.103-0.046,0.172-0.041,0.203s0.021,0.088,0.051,0.166c0.029,0.077,0.049,0.147,0.059,0.211
			c0.026,0.162,0,0.414-0.077,0.754l0.191,0.268c-0.017,0.102-0.008,0.314,0.028,0.638c0.035,0.324,0.014,0.56-0.062,0.703
			l0.055,0.336c0.024,0.162,0.05,0.363,0.07,0.606c0.022,0.244,0.044,0.431,0.064,0.559c0.036,0.227,0.081,0.398,0.134,0.521
			c0.005,0.033,0.063,0.09,0.176,0.17c0.042,0.061,0.05,0.107,0.023,0.146l-0.026,0.152c0.123,0.146,0.197,0.298,0.224,0.458
			c0.042,0.258,0.027,0.488-0.037,0.697c0.063,0.188,0.084,0.317,0.062,0.387c0.071,0.021,0.123,0.146,0.159,0.37
			c0.005,0.032,0.013,0.079,0.021,0.145l0.064,0.089c0.011,0.064-0.007,0.166-0.051,0.305l0.063,0.09
			c0.012,0.064,0.02,0.111,0.023,0.145c0.01,0.064,0.005,0.141-0.015,0.225c-0.019,0.086-0.025,0.146-0.021,0.178
			c0.043,0.061,0.1,0.105,0.173,0.145c0.072,0.039,0.109,0.074,0.114,0.105c-0.017,0.102,0.006,0.23,0.063,0.385
			c0.059,0.156,0.076,0.27,0.055,0.338c-0.021,0.07-0.058,0.158-0.105,0.264c-0.05,0.107-0.071,0.178-0.065,0.209
			c0.006,0.033,0.027,0.069,0.067,0.113c0.039,0.043,0.063,0.08,0.067,0.112l0.038,0.241c0.036,0.225,0.026,0.473-0.028,0.746
			c0.169,0.236,0.273,0.468,0.309,0.691l-0.018,0.199c0.037,0.028,0.09,0.25,0.156,0.667c0.016,0.097,0.066,0.22,0.158,0.371
			c0.089,0.149,0.143,0.274,0.157,0.37c0.021,0.129-0.009,0.249-0.091,0.359c-0.025,0.039-0.093,0.09-0.197,0.154
			c-0.104,0.066-0.166,0.15-0.182,0.252c-0.032,0.006-0.118,0.043-0.255,0.115c-0.137,0.071-0.253,0.115-0.349,0.13
			c-0.056,0.076-0.455,0.354-1.201,0.835l-0.941,0.301c-0.031,0.004-0.071,0.02-0.116,0.041c-0.046,0.024-0.085,0.039-0.116,0.045
			c-0.064,0.01-0.188,0.015-0.368,0.01c-0.184-0.004-0.321,0.002-0.417,0.018l-0.187,0.079c-0.4-0.035-0.635-0.047-0.697-0.037
			l-0.098,0.017c-0.224-0.162-0.405-0.265-0.544-0.31c-0.036-0.026-0.144-0.125-0.319-0.295c-0.175-0.17-0.331-0.274-0.471-0.319
			c-0.015-0.097-0.061-0.171-0.135-0.226c-0.597-0.433-0.93-0.873-1.002-1.322c-0.025-0.159-0.058-0.255-0.096-0.28
			c-0.037-0.027-0.042-0.06-0.017-0.099l0.041-0.055c-0.11-0.082-0.181-0.201-0.207-0.363l-0.084-0.528
			c-0.006-0.033,0.005-0.067,0.033-0.104c0.025-0.037,0.037-0.071,0.032-0.104c-0.005-0.031-0.037-0.076-0.097-0.133
			c-0.058-0.057-0.09-0.102-0.095-0.133c-0.21-1.713-0.305-2.72-0.285-3.02c-0.011-0.063,0.014-0.117,0.072-0.159
			c-0.006-0.032,0-0.05,0.017-0.054c0.017-0.002,0.021-0.019,0.018-0.052c-0.107-0.048-0.106-0.147,0.002-0.297l-0.098,0.017
			c-0.064,0.01-0.099,0-0.104-0.033l-0.105-0.971c-0.007-0.033,0.014-0.068,0.057-0.108c0.043-0.039,0.062-0.076,0.057-0.108
			c-0.005-0.031-0.026-0.063-0.063-0.088c-0.038-0.027-0.06-0.057-0.064-0.089s-0.034-0.267-0.087-0.703
			c-0.054-0.437-0.062-0.739-0.022-0.911c-0.006-0.031-0.025-0.061-0.063-0.089l-0.016-0.097c-0.015-0.295-0.07-0.746-0.168-1.356
			l-0.395-2.458c-0.016-0.097-0.014-0.236,0.007-0.422c0.021-0.184,0.021-0.325,0.007-0.421c0.021-0.069,0.031-0.211,0.03-0.425
			c-0.002-0.213,0.044-0.346,0.137-0.393c-0.106-0.246-0.163-0.402-0.175-0.468c-0.011-0.063,0.007-0.215,0.052-0.452
			c0.043-0.236,0.074-0.406,0.092-0.51c0.016-0.102,0.019-0.232,0.009-0.396c-0.009-0.162-0.005-0.295,0.011-0.396
			c0.132-0.417,0.192-0.656,0.184-0.723c-0.178-0.069-0.503-0.1-0.979-0.09c-0.477,0.012-0.806-0.035-0.985-0.139l-0.146,0.023
			c-0.193,0.031-0.326,0.02-0.401-0.035c-0.32,0.052-0.492,0.013-0.514-0.116l-0.288,0.047c-0.105-0.049-0.332-0.11-0.673-0.188
			c-0.343-0.076-0.586-0.153-0.729-0.229l-0.016-0.097c-0.016-0.098-0.019-0.21-0.007-0.346c0.012-0.133,0.016-0.217,0.011-0.25
			l0.759-0.813c0.064-0.01,0.154-0.064,0.271-0.166c0.114-0.1,0.237-0.162,0.366-0.184c0.031-0.006,0.059,0.009,0.08,0.037
			c0.021,0.029,0.063,0.039,0.127,0.028c0.713-0.278,1.135-0.428,1.264-0.448l0.146-0.022c0.283-0.276,0.686-0.455,1.198-0.538
			c0.086-0.081,0.242-0.138,0.468-0.174l0.337-0.055l0.604-0.244c0.063-0.01,0.13-0.014,0.197-0.008
			c0.065,0.006,0.131,0.004,0.196-0.006c0.03-0.006,0.077-0.021,0.141-0.049c0.061-0.025,0.108-0.041,0.141-0.047l0.386-0.063
			c0.354-0.057,0.63-0.082,0.827-0.082C45.615,76.728,45.772,76.687,45.998,76.649z"/>
	</g>
	<g>
		<path fill="#231F20" d="M80.314,101.952c0.235,0.186,0.36,0.3,0.376,0.344c0.248,0.084,0.469,0.189,0.659,0.318l0.044,0.021
			c0.015,0.043,0.037,0.072,0.066,0.087l0.088,0.043c0.059,0.026,0.096,0.063,0.111,0.105l0.065,0.087
			c0.233,0.112,0.358,0.19,0.374,0.235c0.072-0.002,0.153,0.02,0.241,0.062c0.059,0.028,0.146,0.09,0.265,0.183
			c0.117,0.094,0.204,0.153,0.266,0.183c-0.015,0.03,0.081,0.094,0.285,0.192l0.372,0.125c0.09,0.116,0.148,0.182,0.179,0.194
			l0.064-0.022c0.072,0,0.123,0.006,0.152,0.021c0.574,0.386,0.911,0.621,1.015,0.706c0.059,0.029,0.132,0.102,0.223,0.216
			l0.351,0.169c0.029,0.016,0.063,0.04,0.1,0.076c0.037,0.035,0.07,0.061,0.1,0.074l0.66,0.318l0.42,0.365
			c0.043,0.059,0.14,0.122,0.286,0.192c0.146,0.069,0.249,0.12,0.308,0.147c0.544,0.371,0.838,0.621,0.884,0.752
			c0.308,0.113,0.634,0.315,0.979,0.609c0.347,0.294,0.635,0.496,0.87,0.61c0.016,0.043,0.065,0.104,0.155,0.183
			c0.088,0.079,0.154,0.146,0.198,0.205c0.235,0.113,0.544,0.371,0.929,0.773c0.397,0.373,0.555,0.684,0.472,0.933
			c-0.015,0.029-0.062,0.104-0.139,0.229c-0.081,0.125-0.133,0.218-0.161,0.275c-0.027,0.059-0.061,0.143-0.094,0.253
			c-0.036,0.109-0.061,0.179-0.074,0.208c-0.043,0.088-0.087,0.139-0.129,0.154c-0.332,0.311-0.611,0.445-0.846,0.404
			c-0.349,0.121-0.537,0.175-0.565,0.16c-0.115,0.017-0.336-0.035-0.656-0.154c-0.322-0.119-0.549-0.156-0.68-0.11l-0.088-0.043
			c-0.059-0.028-0.129-0.053-0.208-0.073c-0.081-0.021-0.137-0.039-0.164-0.053c-0.146-0.07-0.363-0.184-0.648-0.341
			c-0.286-0.156-0.487-0.263-0.604-0.318c-0.264-0.128-0.463-0.204-0.593-0.231c-0.116,0.017-0.146-0.034-0.089-0.152
			c-0.205-0.025-0.322-0.047-0.351-0.061c-0.073,0-0.133-0.063-0.178-0.193c-0.074,0.001-0.187-0.025-0.34-0.082
			c-0.154-0.057-0.268-0.084-0.34-0.084c-0.045-0.057-0.154-0.129-0.33-0.213c-0.088-0.043-0.209-0.092-0.362-0.148
			c-0.153-0.056-0.246-0.092-0.274-0.104c-0.41-0.198-0.638-0.289-0.68-0.273c-0.073,0-0.117-0.021-0.132-0.063l-0.066-0.086
			c-0.088,0.029-0.292-0.033-0.613-0.188c-0.118-0.058-0.214-0.084-0.286-0.083c-0.028,0.059-0.057,0.08-0.086,0.066
			c-0.038,0.451-0.147,0.867-0.332,1.248c-0.113,0.234-0.271,0.447-0.472,0.641c-0.044,0.016-0.036,0.036,0.022,0.064l0.066,0.086
			c-0.06,0.045-0.115,0.127-0.171,0.242c-0.059,0.117-0.115,0.217-0.172,0.297c-0.058,0.082-0.122,0.123-0.194,0.123
			c0.015,0.043-0.041,0.196-0.169,0.461c-0.042,0.088-0.057,0.153-0.04,0.196c-0.175,0.062-0.325,0.224-0.453,0.487
			c-0.028,0.059-0.076,0.179-0.146,0.361c-0.072,0.183-0.121,0.304-0.148,0.361c-0.015,0.03-0.055,0.038-0.12,0.023
			c-0.064-0.014-0.098,0.016-0.097,0.089c-0.016,0.03,0.004,0.065,0.056,0.108s0.063,0.094,0.035,0.151
			c0.001,0.073-0.035,0.146-0.106,0.22s-0.114,0.127-0.129,0.155c-0.014,0.029-0.017,0.093-0.008,0.187
			c0.009,0.095-0.001,0.171-0.029,0.229c-0.014,0.029-0.079,0.09-0.194,0.178s-0.181,0.147-0.193,0.178
			c-0.115,0.089-0.273,0.191-0.477,0.313c-0.015,0.029-0.028,0.076-0.041,0.143c-0.016,0.065-0.023,0.123-0.03,0.176
			c-0.008,0.051-0.013,0.102-0.02,0.152c-0.009,0.051-0.019,0.092-0.032,0.121c-0.058,0.116-0.121,0.176-0.193,0.176
			c-0.065,0.512-0.128,0.826-0.184,0.941c-0.101,0.206-0.236,0.338-0.41,0.398c-0.013,0.102-0.055,0.264-0.124,0.482
			c-0.069,0.217-0.097,0.387-0.08,0.502c0.44,0.213,0.711,0.397,0.815,0.558c0.541,0.226,1.2,0.58,1.979,1.063
			c0.058,0.028,0.242,0.172,0.552,0.43l0.439,0.213c0.438,0.212,0.704,0.449,0.795,0.709c0.176,0.086,0.265,0.164,0.266,0.236
			c-0.024,0.277,0.006,0.438,0.095,0.479c-0.2,0.266-0.329,0.456-0.386,0.572L82,123.036c-0.015,0.029-0.021,0.08-0.021,0.152
			s-0.013,0.14-0.041,0.197c-0.085,0.176-0.287,0.258-0.606,0.248c-0.32-0.01-0.539,0.029-0.653,0.117
			c-0.103-0.014-0.313-0.023-0.634-0.035c-0.32-0.01-0.554-0.051-0.7-0.121c-0.029-0.014-0.062-0.037-0.099-0.074
			c-0.037-0.035-0.071-0.063-0.101-0.074c-0.028-0.016-0.096-0.027-0.196-0.041c-0.103-0.014-0.168-0.027-0.197-0.041l-0.088-0.042
			c-0.029-0.017-0.081-0.021-0.152-0.021l-0.065,0.022c-0.25-0.084-0.577-0.225-0.988-0.424c-0.292-0.142-0.775-0.409-1.45-0.81
			l-0.48,0.095c-0.014,0.028-0.06,0.196-0.135,0.504c-0.076,0.307-0.148,0.533-0.22,0.68c-0.1,0.205-0.243,0.354-0.431,0.443
			c-0.015,0.102-0.056,0.262-0.124,0.48c-0.07,0.219-0.099,0.387-0.081,0.503c-0.115,0.089-0.244,0.243-0.388,0.464
			c-0.143,0.221-0.249,0.367-0.32,0.441l-0.262,0.091c-0.042,0.015-0.094,0.044-0.15,0.089l-0.107,0.11l-0.108,0.002
			c-0.103-0.015-0.176-0.013-0.22,0.003c-0.028-0.014-0.08-0.003-0.151,0.035c-0.072,0.035-0.13,0.063-0.173,0.078
			c-0.045,0.015-0.08,0.017-0.109,0.002c-0.072,0-0.124-0.006-0.153-0.021c-0.436,0.008-0.698-0.012-0.786-0.054
			c-0.469-0.228-0.739-0.341-0.813-0.339c-0.09-0.116-0.177-0.194-0.266-0.236c-0.061-0.027-0.15-0.064-0.273-0.105
			c-0.124-0.041-0.202-0.069-0.23-0.084l-0.133-0.063c-0.027-0.015-0.088-0.062-0.177-0.14c-0.088-0.078-0.161-0.133-0.22-0.16
			l-0.133-0.063c-0.06-0.028-0.125-0.097-0.198-0.204c-0.074-0.107-0.126-0.168-0.155-0.184c-0.073-0.072-0.194-0.158-0.363-0.258
			s-0.29-0.187-0.364-0.258c-0.088-0.114-0.176-0.311-0.26-0.586c-0.083-0.274-0.185-0.478-0.302-0.605
			c0.015-0.03,0.021-0.1,0.02-0.208c-0.003-0.108,0.012-0.192,0.04-0.251l0.043-0.088c-0.01-0.583,0.002-0.902,0.029-0.962
			l0.043-0.089c-0.06-0.026-0.055-0.188,0.017-0.479l-0.051-0.349l0.085-0.176c0.028-0.059,0.05-0.14,0.063-0.241
			c0.013-0.103,0.033-0.183,0.063-0.24c0.014-0.029,0.049-0.065,0.106-0.11c-0.061-0.174-0.042-0.363,0.058-0.568l0.36-0.747
			c0.028-0.06,0.05-0.156,0.063-0.296c0.012-0.137,0.024-0.223,0.039-0.252c0.015-0.027,0.042-0.105,0.085-0.229
			c0.041-0.124,0.075-0.215,0.104-0.274c0.07-0.146,0.206-0.352,0.406-0.616c0.014-0.028,0.05-0.065,0.106-0.11
			c0.059-0.044,0.102-0.096,0.13-0.154c0.027-0.058,0.037-0.135,0.029-0.229c-0.009-0.094-0.007-0.156,0.008-0.186
			s0.05-0.086,0.107-0.166c0.056-0.08,0.099-0.15,0.127-0.209c0.015-0.029,0.028-0.096,0.041-0.196
			c0.014-0.104,0.027-0.167,0.041-0.197c0.028-0.058,0.075-0.118,0.14-0.177c0.065-0.059,0.104-0.104,0.118-0.133l0.213-0.439
			c0.082-0.32,0.168-0.496,0.255-0.527c0.082-0.32,0.152-0.539,0.209-0.656c0.043-0.088,0.14-0.25,0.288-0.484
			c0.149-0.234,0.245-0.434,0.287-0.594l0.063-0.133c0.014-0.028,0.036-0.037,0.064-0.022l0.086-0.065
			c0.028-0.059,0.042-0.143,0.041-0.252c-0.002-0.108,0.004-0.178,0.02-0.207c0.014-0.028,0.046-0.06,0.097-0.088
			c0.051-0.031,0.083-0.061,0.097-0.091l0.129-0.264l0.085-0.177c0.056-0.115,0.143-0.183,0.259-0.198
			c0.04-0.232,0.125-0.409,0.255-0.527l0.065-0.022l0.021-0.043l0.063-0.133c0.184-0.381,0.325-0.602,0.428-0.66
			c-0.003-0.146,0.018-0.264,0.061-0.352c0.015-0.027,0.05-0.084,0.107-0.165c0.056-0.081,0.099-0.149,0.128-0.209
			c0.099-0.205,0.17-0.315,0.213-0.33l0.109-0.002l0.021-0.044c-0.016-0.043-0.016-0.079-0.002-0.107l0.11-0.002
			c0.128-0.265,0.239-0.463,0.341-0.595l0.17-0.353c0.101-0.061,0.237-0.266,0.406-0.616l0.128-0.265l0.387-0.463
			c0.042-0.088,0.134-0.207,0.278-0.354c0.143-0.148,0.229-0.25,0.258-0.311c0.015-0.027,0.02-0.08,0.021-0.152l0.042-0.088
			c0.07-0.074,0.176-0.178,0.313-0.311c0.135-0.133,0.232-0.222,0.291-0.267l0.17-0.353c0.028-0.058,0.088-0.127,0.182-0.209
			c0.095-0.082,0.169-0.145,0.228-0.188c0.2-0.265,0.343-0.483,0.428-0.66c0.159-0.032,0.325-0.169,0.497-0.411
			c0.171-0.242,0.278-0.371,0.321-0.387c0.116-0.088,0.354-0.208,0.716-0.359c0.045,0.06,0.096,0.102,0.155,0.129
			c0.058,0.028,0.155,0.049,0.296,0.063c0.137,0.014,0.251,0.041,0.339,0.084l0.132,0.063c0.058,0.029,0.116,0.021,0.175-0.022
			C80.242,101.952,80.284,101.937,80.314,101.952z"/>
	</g>
	<g>
		<path fill="#231F20" d="M37.71,99.853c0.214,0.049,0.333,0.084,0.355,0.107c0.19-0.023,0.368-0.023,0.535,0h0.035
			c0.023,0.023,0.048,0.035,0.071,0.035l0.07-0.001c0.049,0,0.083,0.013,0.107,0.036l0.071,0.035c0.189,0,0.297,0.013,0.32,0.035
			c0.048-0.022,0.106-0.035,0.179-0.035c0.048,0,0.125,0.013,0.231,0.035c0.106,0.023,0.185,0.035,0.231,0.035
			c0,0.024,0.083,0.036,0.25,0.035l0.285-0.036c0.095,0.05,0.153,0.071,0.178,0.071l0.036-0.035
			c0.047-0.023,0.083-0.036,0.105-0.036c0.5,0.071,0.797,0.119,0.893,0.144c0.048,0,0.119,0.022,0.215,0.07h0.285
			c0.022,0,0.053,0.006,0.089,0.019c0.036,0.012,0.064,0.018,0.089,0.018l0.535-0.001l0.393,0.107
			c0.047,0.023,0.13,0.035,0.249,0.035s0.202,0,0.25,0c0.478,0.07,0.75,0.142,0.821,0.213c0.237-0.023,0.517,0.007,0.838,0.09
			c0.321,0.082,0.576,0.123,0.767,0.123c0.023,0.023,0.077,0.048,0.161,0.07c0.083,0.024,0.147,0.05,0.195,0.071
			c0.19,0,0.476,0.071,0.856,0.214c0.38,0.119,0.582,0.273,0.605,0.463c0,0.024-0.007,0.09-0.018,0.196
			c-0.013,0.107-0.019,0.185-0.019,0.232c0,0.047,0.006,0.112,0.019,0.194c0.012,0.084,0.019,0.139,0.019,0.162
			c0,0.07-0.013,0.118-0.036,0.143c-0.119,0.309-0.262,0.486-0.427,0.535c-0.19,0.189-0.298,0.285-0.321,0.285
			c-0.07,0.047-0.23,0.082-0.48,0.106c-0.249,0.024-0.41,0.071-0.481,0.144h-0.071c-0.048,0-0.102,0.006-0.159,0.019
			c-0.061,0.012-0.103,0.019-0.125,0.019c-0.119,0-0.298-0.007-0.535-0.018c-0.237-0.012-0.404-0.02-0.499-0.02
			c-0.214,0-0.369,0.014-0.464,0.037c-0.071,0.047-0.106,0.022-0.106-0.072c-0.143,0.049-0.227,0.072-0.25,0.072
			c-0.048,0.023-0.105,0-0.178-0.07c-0.048,0.022-0.131,0.041-0.25,0.054c-0.119,0.012-0.202,0.028-0.25,0.053
			c-0.048-0.022-0.144-0.034-0.285-0.034c-0.071,0-0.166,0.006-0.285,0.018c-0.119,0.014-0.189,0.019-0.214,0.019
			c-0.333,0-0.512,0.013-0.535,0.036c-0.048,0.023-0.083,0.023-0.105,0l-0.071-0.036c-0.049,0.048-0.203,0.071-0.464,0.072
			c-0.096,0-0.167,0.013-0.214,0.036c0,0.048-0.014,0.07-0.036,0.07c0.119,0.311,0.18,0.619,0.18,0.928
			c0,0.191-0.036,0.381-0.106,0.57c-0.023,0.023-0.013,0.035,0.035,0.035l0.071,0.036c-0.023,0.048-0.036,0.119-0.036,0.214
			c0,0.096-0.005,0.18-0.017,0.25c-0.013,0.071-0.042,0.119-0.089,0.144c0.022,0.022,0.035,0.143,0.035,0.356
			c0,0.07,0.012,0.118,0.035,0.143c-0.096,0.095-0.143,0.25-0.143,0.464c0,0.048,0.006,0.144,0.019,0.285
			c0.013,0.143,0.019,0.237,0.019,0.284c0,0.023-0.023,0.043-0.071,0.055s-0.06,0.041-0.035,0.089c0,0.024,0.023,0.042,0.071,0.054
			c0.047,0.012,0.071,0.043,0.071,0.09c0.022,0.047,0.022,0.106,0,0.179c-0.024,0.071-0.036,0.118-0.036,0.143
			s0.018,0.065,0.054,0.125c0.035,0.06,0.055,0.112,0.056,0.16c0,0.022-0.024,0.083-0.071,0.178
			c-0.048,0.097-0.071,0.155-0.071,0.179c-0.048,0.097-0.119,0.215-0.214,0.356c0,0.024,0.005,0.06,0.018,0.106
			c0.013,0.049,0.023,0.09,0.035,0.125c0.013,0.035,0.023,0.072,0.036,0.106c0.012,0.036,0.019,0.066,0.019,0.089
			c0,0.096-0.023,0.155-0.07,0.18c0.119,0.355,0.179,0.582,0.179,0.678c0,0.167-0.048,0.298-0.143,0.393
			c0.022,0.071,0.047,0.19,0.071,0.356c0.023,0.166,0.06,0.285,0.106,0.356c0.356-0.002,0.594,0.035,0.714,0.105
			c0.428-0.023,0.976-0.001,1.641,0.07c0.048,0,0.215,0.035,0.5,0.105l0.355-0.001c0.356,0,0.606,0.071,0.749,0.214
			c0.143,0,0.226,0.024,0.249,0.071c0.071,0.19,0.143,0.284,0.214,0.284c-0.047,0.238-0.07,0.404-0.07,0.5v0.105
			c0,0.024,0.013,0.061,0.036,0.107c0.023,0.048,0.035,0.095,0.035,0.143c0,0.144-0.105,0.262-0.32,0.357
			c-0.214,0.095-0.344,0.189-0.392,0.285c-0.071,0.023-0.214,0.084-0.428,0.179s-0.381,0.144-0.499,0.144
			c-0.024,0-0.054-0.006-0.09-0.018c-0.035-0.012-0.065-0.02-0.089-0.02c-0.024,0-0.071,0.014-0.144,0.037
			c-0.072,0.022-0.119,0.035-0.143,0.035h-0.071c-0.024,0-0.06,0.013-0.107,0.035l-0.034,0.035c-0.19,0.023-0.452,0.036-0.785,0.037
			c-0.237,0-0.643-0.023-1.212-0.07l-0.285,0.215c0,0.023,0.022,0.147,0.07,0.373c0.049,0.228,0.072,0.398,0.072,0.519
			c0,0.167-0.048,0.31-0.143,0.428c0.022,0.071,0.047,0.19,0.07,0.356s0.061,0.285,0.107,0.356
			c-0.048,0.095-0.083,0.237-0.105,0.429c-0.024,0.189-0.049,0.319-0.071,0.393l-0.144,0.143c-0.023,0.023-0.049,0.06-0.071,0.106
			l-0.035,0.106l-0.071,0.035c-0.07,0.023-0.118,0.049-0.142,0.071c-0.024,0-0.055,0.022-0.089,0.071
			c-0.036,0.048-0.066,0.083-0.091,0.107c-0.022,0.022-0.048,0.034-0.07,0.034c-0.048,0.023-0.083,0.036-0.106,0.036
			c-0.285,0.145-0.464,0.215-0.535,0.215c-0.381,0-0.595,0.012-0.642,0.036c-0.096-0.049-0.179-0.071-0.25-0.071
			c-0.048,0-0.119,0.006-0.214,0.02c-0.097,0.012-0.155,0.018-0.18,0.018h-0.105c-0.024,0-0.078-0.013-0.161-0.035
			c-0.083-0.023-0.147-0.035-0.196-0.035h-0.105c-0.048,0-0.113-0.024-0.196-0.071c-0.084-0.048-0.137-0.071-0.16-0.07
			c-0.07-0.024-0.179-0.042-0.32-0.054c-0.143-0.012-0.25-0.03-0.321-0.055c-0.095-0.047-0.214-0.147-0.357-0.303
			c-0.143-0.154-0.272-0.256-0.392-0.302c0-0.024-0.02-0.071-0.054-0.144c-0.036-0.071-0.055-0.131-0.055-0.178v-0.072
			c-0.189-0.379-0.286-0.594-0.286-0.643v-0.07c-0.048,0-0.096-0.106-0.143-0.32l-0.143-0.215v-0.143
			c0-0.048-0.014-0.107-0.036-0.179c-0.023-0.072-0.035-0.131-0.035-0.179c0-0.023,0.012-0.06,0.035-0.106
			c-0.097-0.095-0.145-0.226-0.145-0.394v-0.605c0-0.047-0.018-0.118-0.054-0.214c-0.035-0.095-0.054-0.154-0.054-0.179
			c0-0.023-0.007-0.082-0.02-0.178c-0.012-0.096-0.018-0.166-0.018-0.215c0-0.119,0.022-0.297,0.07-0.535
			c0-0.022,0.013-0.059,0.036-0.105c0.023-0.048,0.035-0.096,0.035-0.143c0-0.049-0.018-0.103-0.055-0.162
			c-0.035-0.059-0.053-0.101-0.053-0.125c0-0.022,0.005-0.07,0.018-0.143c0.012-0.07,0.018-0.13,0.018-0.178
			c0-0.023-0.013-0.071-0.034-0.143c-0.024-0.071-0.036-0.119-0.036-0.144c0-0.048,0.012-0.103,0.036-0.161
			c0.021-0.059,0.034-0.101,0.034-0.125l-0.001-0.355c-0.048-0.237-0.048-0.381,0-0.428c-0.048-0.238-0.07-0.404-0.07-0.5
			c0-0.07,0.012-0.207,0.035-0.41c0.021-0.201,0.021-0.361,0-0.48v-0.107c0-0.022,0.012-0.035,0.034-0.035l0.036-0.07
			c0-0.049-0.019-0.107-0.054-0.18c-0.036-0.07-0.054-0.117-0.054-0.143c0-0.023,0.012-0.054,0.036-0.089
			c0.021-0.036,0.034-0.065,0.034-0.09l-0.001-0.214v-0.144c0-0.095,0.036-0.165,0.107-0.214c-0.048-0.166-0.048-0.309,0-0.428
			l0.035-0.036v-0.035v-0.106c-0.001-0.31,0.021-0.5,0.069-0.57c-0.048-0.096-0.07-0.18-0.07-0.25c0-0.023,0.006-0.071,0.018-0.143
			c0.012-0.072,0.02-0.131,0.02-0.179c0-0.166,0.012-0.262,0.034-0.284l0.071-0.037v-0.035c-0.022-0.022-0.035-0.047-0.035-0.071
			l0.07-0.035c0-0.214,0.012-0.38,0.035-0.499v-0.285c0.048-0.07,0.071-0.25,0.07-0.535v-0.214l0.106-0.429
			c0-0.071,0.023-0.178,0.071-0.32c0.047-0.143,0.071-0.236,0.071-0.285c0-0.022-0.014-0.06-0.037-0.106v-0.071
			c0.022-0.07,0.06-0.172,0.106-0.303s0.083-0.221,0.106-0.268v-0.285c0-0.049,0.019-0.113,0.054-0.196
			c0.036-0.083,0.065-0.147,0.089-0.197c0.047-0.237,0.071-0.428,0.071-0.569c0.095-0.071,0.16-0.215,0.195-0.43
			c0.035-0.214,0.063-0.332,0.089-0.355c0.047-0.096,0.166-0.25,0.355-0.465c0.047,0.024,0.096,0.037,0.144,0.037
			s0.119-0.019,0.214-0.055c0.095-0.035,0.179-0.054,0.25-0.054l0.105-0.001c0.048,0,0.083-0.023,0.107-0.071
			C37.663,99.877,37.686,99.853,37.71,99.853z"/>
	</g>
	<g>
		<g>
			<path fill="#BE1E2D" d="M82.088,77.11c-6.15-8.625-15.935,4.742-18.279,9.752c-3.658,7.818-5.738,15.131-11.866,22.291
				c-6.4,7.479-11.523,11.254-20.72,13.033c-5.861,1.136-19.95-8.254-19.688-3.137c5.436,8.479,16.836,11.79,25.8,10.733
				c10.091-1.189,16.24-4.304,23.985-11.741c7.441-7.148,9.657-15.07,17.559-20.796C85.311,92.585,95,82.201,82.642,77.633
				L82.088,77.11z"/>
			<path fill="#231F20" d="M34.029,130.623L34.029,130.623c-7.66-0.001-17.734-2.949-23.038-11.224l-0.094-0.145l-0.009-0.172
				c-0.035-0.675,0.134-1.213,0.5-1.6c0.392-0.411,0.988-0.62,1.773-0.62c1.754,0,4.396,0.993,7.456,2.144
				c3.275,1.231,6.988,2.627,9.508,2.627c0.356,0,0.685-0.027,0.974-0.085c9.45-1.827,14.443-5.915,20.352-12.817
				c4.536-5.301,6.819-10.679,9.235-16.371c0.796-1.877,1.62-3.815,2.535-5.772c1.62-3.46,7.97-12.957,14.098-12.957
				c2.029,0,3.799,1.026,5.26,3.052l0.413,0.39c3.745,1.413,5.832,3.485,6.199,6.165c0.873,6.351-8.12,13.223-9.932,14.535
				c-4.296,3.112-6.88,6.896-9.616,10.901c-2.22,3.25-4.516,6.611-7.873,9.837c-7.928,7.613-14.303,10.731-24.359,11.917
				C36.315,130.558,35.177,130.623,34.029,130.623z M12.181,118.854c5.058,7.725,14.911,10.472,21.847,10.472h0.001
				c1.098,0,2.185-0.063,3.23-0.187c9.861-1.162,15.819-4.08,23.613-11.564c3.261-3.133,5.518-6.438,7.701-9.633
				c2.801-4.103,5.446-7.977,9.926-11.222c5.086-3.687,9.968-9.231,9.408-13.31c-0.303-2.196-2.149-3.938-5.489-5.171l-0.124-0.046
				l-0.733-0.709c-1.211-1.697-2.638-2.56-4.241-2.56c-5.03,0-10.992,8.085-12.924,12.21C63.49,89.071,62.671,91,61.88,92.865
				c-2.457,5.788-4.777,11.255-9.444,16.709c-6.099,7.125-11.266,11.346-21.089,13.247c-0.37,0.07-0.781,0.106-1.221,0.106
				c-2.754,0.001-6.419-1.377-9.964-2.709c-2.819-1.06-5.481-2.061-7-2.061c-0.41,0-0.698,0.075-0.833,0.217
				C12.238,118.476,12.188,118.635,12.181,118.854z"/>
		</g>
		<g>
			<path fill="#468885" d="M86.463,64.685c3.222,4-3.034,12.783-7.836,11.403c5.009,14.624,15.479-9.651,8.462-12.067
				C86.184,63.707,86.463,64.685,86.463,64.685z"/>
			<path fill="#231F20" d="M82.65,81.394L82.65,81.394c-1.918,0-3.478-1.715-4.636-5.096l-0.403-1.177l1.195,0.344
				c0.278,0.08,0.571,0.12,0.871,0.12l0,0c2.169,0,4.846-2.175,6.225-5.059c1.051-2.194,1.07-4.176,0.057-5.437l-0.083-0.102
				l-0.036-0.127c-0.047-0.166-0.178-0.744,0.146-1.175c0.274-0.363,0.743-0.479,1.315-0.279c2.31,0.795,3.249,3.556,2.577,7.574
				C89.037,76.01,85.932,81.394,82.65,81.394z M79.618,76.882c0.874,2.108,1.912,3.215,3.031,3.215c2.256,0,5.147-4.533,5.949-9.326
				c0.19-1.139,0.619-4.712-1.227-5.897c0.928,1.633,0.83,3.853-0.301,6.215c-1.377,2.879-4.358,5.794-7.394,5.795
				C79.654,76.871,79.638,76.882,79.618,76.882z"/>
		</g>
		<path fill="#77111A" d="M81.887,83.603c-6.46-6.09-5.021,6.135-14.693,19.312c-2.142,2.919-8.463,12.501-11.202,15.017
			c-3.159,2.9-4.888,3.938-7.269,5.002c5.512,3.95,18.915-15.261,21.709-19.386c4.756-7.032,15.686-10.981,17.336-18.985
			C88.42,82.698,82.776,84.438,81.887,83.603z"/>
		<path fill="#77111A" d="M55.735,107.028c1.992,3.832-14.835,20.294-19.362,16.24C47.618,118.88,55.735,107.028,55.735,107.028z"/>
		<path fill="#FFFFFF" d="M75.897,81.571c0,0,0.807-0.514,1.707,0.897c0.896,1.414,3.189,2.901,4.479,2.151
			c1.289-0.753,2.383,3.671-0.828,2.676c-3.215-0.995-4.894-2.349-5.481-3.665C75.183,82.315,75.897,81.571,75.897,81.571z"/>
		<path fill="#5AB1AF" d="M87.334,73.149c0,0-1.143,5.994-3.772,6.004c-2.628,0.012-3.596-0.906-2.258-1.215
			c1.338-0.307,1.995-0.176,3.382-1.506C86.073,75.104,86.555,72.808,87.334,73.149z"/>
	</g>
	<path fill="#F6921E" d="M84.022,98.976c0,0,6.504-15.479,21.403-12.459c7.496,1.52,3.379,8.518,1.418,12.596
		c-1.96,4.08,3.013,5.088,5.202,2.853C115.029,98.92,111.757,117.59,84.022,98.976z"/>
	<path fill="#F6921E" d="M35.035,90.216c0,0-6.821,15.65-23.902,5.088c-9.916-6.131-5.222-17.092-3.69-13.889
		c4.188,8.762,9.069,7.32,9.069,7.32s-4.883-7.32-0.218-8.871C24.279,77.207,29.042,96.304,35.035,90.216z"/>
	<path fill="#FAAF40" d="M87.938,97.119c0,0,10.27-12.83,16.206-6.745c-1.42,3.793-4.722,4.713-4.722,4.713s2.88-1.072,5.445,1.689
		c-2.876,1.08-8.439,1.35-8.439,1.35s2.115,4.27,4.082,6.614C92.104,103.122,87.938,97.119,87.938,97.119z"/>
	<path fill="#F6921E" d="M22.56,71.912c0,0-13.4-10.458-6.821-26.115c1.361,9.419,3.977,10.1,6.988,14.036
		C27.262,65.759,22.56,71.912,22.56,71.912z"/>
	<path fill="#F6921E" d="M55.174,71.912c0,0-13.402-10.458-6.822-26.115c1.362,9.419,3.977,10.1,6.988,14.036
		C59.874,65.759,55.174,71.912,55.174,71.912z"/>
	<path fill="#BE1E2D" d="M70.159,65.666c0.338-0.069,0.723-0.209,1.159-0.426c2.365-1.161,1.308-2.924-0.764-2.94
		C67.614,62.278,67.473,66.233,70.159,65.666z"/>
	<path fill="#BE1E2D" d="M68.366,31.896c-0.37-1.831-1.659-1.7-2.732-0.906c-1.075,0.795-0.521,3.128,0.452,2.975
		C67.313,33.77,68.641,33.252,68.366,31.896z"/>
	<path fill="#BE1E2D" d="M58.052,21.581c-0.371-1.831-1.66-1.7-2.735-0.907c-1.07,0.796-0.519,3.13,0.453,2.977
		C56.999,23.455,58.326,22.938,58.052,21.581z"/>
	<g>
		<path fill="#BE1E2D" d="M65.533,22.571c2.349,1.36,5.802-0.302,4.09-1.569c-0.822-0.606-3.148-0.196-3.741,0.269
			C65.451,21.612,65.254,21.899,65.533,22.571z"/>
		<path fill="#BE1E2D" d="M36.91,40.642c2.658-0.537,4.143-4.074,2.02-3.887c-1.017,0.09-2.486,1.938-2.623,2.68
			C36.211,39.979,36.255,40.323,36.91,40.642z"/>
		<path fill="#BE1E2D" d="M46.038,18.5c1.472-1.507-0.271-3.667-1.636-2.563c-0.65,0.527-0.236,1.993,0.252,2.363
			C45.016,18.568,45.32,18.687,46.038,18.5z"/>
		<path fill="#BE1E2D" d="M51.976,28.723c1.474-1.506-0.266-3.667-1.633-2.562c-0.654,0.526-0.237,1.992,0.251,2.361
			C50.954,28.79,51.258,28.908,51.976,28.723z"/>
		<path fill="#BE1E2D" d="M73.916,49.938c2.349,1.36,5.802-0.304,4.09-1.571c-0.82-0.605-3.147-0.194-3.74,0.27
			C73.833,48.979,73.636,49.267,73.916,49.938z"/>
		<path fill="#BE1E2D" d="M61.25,68.731c1.469-1.509-0.27-3.667-1.638-2.564c-0.651,0.529-0.237,1.995,0.254,2.363
			C60.227,68.799,60.531,68.917,61.25,68.731z"/>
	</g>
	<path fill="#BE1E2D" d="M23.554,96.722c0,0-9.964,1.573-14.087-7.623c4.637,3.227,5.99,2.368,8.918,2.657
		C22.792,92.19,23.554,96.722,23.554,96.722z"/>
	<path fill="#BE1E2D" d="M56.91,52.146c0,0-7.861-9.574-0.687-19.657c-0.535,6.914,1.216,7.815,2.729,11.095
		C61.233,48.521,56.91,52.146,56.91,52.146z"/>
	<g>
		<path fill="#231F20" d="M30.512,80.813c0.453-0.088,0.79-0.14,1.009-0.154c0.651-0.07,0.996-0.082,1.032-0.033
			c0.3-0.029,0.771-0.038,1.409-0.023l0.809,0.092c0.262,0.062,0.421,0.101,0.479,0.115c0.09,0.039,0.186,0.068,0.287,0.09
			c0.102,0.022,0.193,0.039,0.279,0.051c0.183,0.076,0.341,0.184,0.479,0.322c0.054-0.01,0.118,0.004,0.196,0.045
			c0.075,0.041,0.128,0.06,0.154,0.054c0.042,0.075,0.151,0.172,0.326,0.29c0.175,0.119,0.287,0.229,0.335,0.331
			c0.217,0.124,0.36,0.358,0.428,0.707c0.026,0.134,0.033,0.243,0.022,0.327c0.024,0.271-0.119,0.535-0.43,0.791
			c-0.021,0.031-0.056,0.08-0.098,0.143l-0.11,0.063c-0.027,0.006-0.084,0.004-0.169-0.008c-0.085-0.011-0.143-0.016-0.168-0.01
			c-0.331,0.01-0.583,0.002-0.754-0.021c-0.059-0.015-0.146-0.041-0.264-0.072c-0.117-0.033-0.202-0.044-0.256-0.034l-0.201,0.039
			c-0.079,0.017-0.208,0.034-0.384,0.054c-0.176,0.021-0.305,0.038-0.385,0.055c-0.055,0.011-0.131,0.039-0.232,0.086
			c-0.101,0.048-0.18,0.076-0.231,0.087l-0.168-0.009c-0.056,0.011-0.122,0.052-0.205,0.123s-0.161,0.129-0.237,0.17
			c-0.15,0.224-0.264,0.355-0.338,0.397c0.016,0.08-0.048,0.259-0.188,0.536c-0.032,0.118-0.099,0.2-0.199,0.247
			c0.021,0.106,0.011,0.31-0.028,0.608c-0.04,0.299-0.041,0.541-0.005,0.729c0.03,0.16,0.067,0.277,0.109,0.354
			c0.169,0.299,0.411,0.475,0.727,0.522c0.053-0.01,0.12-0.022,0.2-0.039c0.08-0.015,0.167-0.032,0.26-0.05
			c0.094-0.02,0.167-0.032,0.221-0.043c0.294-0.057,0.86-0.068,1.698-0.037c0.03,0.021,0.068,0.001,0.111-0.063
			c0.031,0.021,0.251,0.076,0.655,0.164l0.175,0.049c0.026-0.006,0.058,0.004,0.089,0.023c0.032,0.021,0.062,0.029,0.089,0.023
			c0.03,0.022,0.106,0.058,0.228,0.103c0.12,0.047,0.224,0.075,0.309,0.086l0.175,0.259c0.085,0.01,0.163,0.059,0.234,0.141
			c0.071,0.085,0.123,0.136,0.154,0.156c0.032,0.021,0.095,0.053,0.185,0.09c0.092,0.039,0.153,0.082,0.19,0.131
			c0.005,0.025,0.02,0.057,0.04,0.096c0.021,0.037,0.034,0.069,0.039,0.098c0.58,0.274,0.983,0.64,1.21,1.095
			c0.529,0.729,0.805,1.146,0.825,1.253c0.063,0.044,0.164,0.135,0.303,0.275c-0.017,0.059-0.017,0.127-0.001,0.207
			c0.017,0.08,0.026,0.135,0.031,0.16l0.096,0.064c0.031,0.021,0.065,0.057,0.104,0.105c0.005,0.025,0.015,0.078,0.029,0.158
			c0.017,0.081,0.041,0.145,0.078,0.193c0.097,0.203,0.146,0.318,0.15,0.345c0.016,0.08-0.022,0.171-0.113,0.271
			c0.031,0.022,0.054,0.061,0.063,0.112c0.006,0.026,0.003,0.091-0.006,0.188c-0.009,0.1,0.006,0.173,0.043,0.221
			c-0.05,0.037-0.081,0.12-0.099,0.248c-0.016,0.128-0.049,0.211-0.097,0.247c0.104,0.118,0.172,0.244,0.197,0.377
			c0.041,0.214,0.014,0.428-0.084,0.642c0.006,0.025-0.017,0.06-0.064,0.094c-0.048,0.039-0.083,0.074-0.104,0.104
			c-0.007,0.112-0.04,0.257-0.104,0.437c-0.063,0.178-0.098,0.322-0.104,0.436c-0.027,0.005-0.07,0.034-0.128,0.087
			c-0.061,0.054-0.115,0.085-0.17,0.095c-0.011,0.088-0.046,0.19-0.104,0.313c-0.061,0.123-0.098,0.213-0.113,0.271
			c-0.026,0.006-0.059,0.025-0.094,0.061c-0.034,0.035-0.063,0.068-0.084,0.1c-0.021,0.031-0.046,0.051-0.073,0.057l0.039,0.199
			c-0.021,0.032-0.041,0.077-0.056,0.135c-0.019,0.061-0.037,0.104-0.058,0.138c-0.021,0.032-0.046,0.05-0.072,0.055
			c-0.055,0.011-0.077,0.03-0.071,0.056l-0.025,0.09c-0.017,0.059-0.035,0.104-0.058,0.135c-0.054,0.011-0.091,0.033-0.112,0.064
			c-0.048,0.037-0.092,0.101-0.129,0.19c-0.038,0.09-0.073,0.16-0.104,0.207c-0.032,0.047-0.084,0.106-0.154,0.177
			c-0.069,0.067-0.145,0.109-0.224,0.125c-0.019,0.06-0.073,0.127-0.17,0.199c-0.098,0.075-0.156,0.127-0.177,0.16
			c-0.026,0.005-0.08,0.021-0.155,0.05c-0.079,0.029-0.146,0.05-0.197,0.06c-0.194,0.148-0.317,0.229-0.37,0.238
			c-0.055,0.012-0.112-0.007-0.177-0.05c-0.256,0.104-0.426,0.236-0.506,0.39c-0.055,0.012-0.113,0.029-0.178,0.057
			c-0.063,0.025-0.109,0.041-0.136,0.047c-0.049,0.037-0.14,0.066-0.272,0.093c-0.026,0.007-0.087,0.06-0.178,0.16
			s-0.163,0.156-0.216,0.167c-0.055,0.01-0.129-0.018-0.225-0.082c-0.104,0.049-0.38,0.115-0.834,0.203
			c-0.188,0.036-0.317,0.076-0.394,0.118c-0.106,0.021-0.178,0.021-0.208-0.003c-0.049,0.039-0.131,0.076-0.249,0.111
			c-0.118,0.037-0.197,0.088-0.239,0.15c-0.088-0.012-0.197-0.004-0.33,0.021c-0.08,0.017-0.198,0.047-0.355,0.09
			c-0.158,0.045-0.264,0.072-0.316,0.082c-0.081,0.017-0.213,0.015-0.396-0.006c-0.185-0.02-0.333-0.031-0.444-0.039l-0.12,0.023
			l-0.048-0.031c-0.025,0.004-0.055,0.01-0.08,0.016l-0.081,0.016c-0.078,0.016-0.204,0.012-0.376-0.012
			c-0.171-0.021-0.295-0.024-0.376-0.01c-0.496,0.014-0.789,0.002-0.881-0.037l-0.144-0.098c-0.191,0.012-0.458-0.146-0.798-0.469
			c-0.2-0.32-0.333-0.572-0.396-0.755l-0.102-0.521l-0.056-0.072l0.032-0.049c-0.006-0.025-0.011-0.053-0.016-0.08
			c-0.026-0.133-0.06-0.223-0.096-0.271c0.232-0.517,0.536-0.88,0.91-1.092c0.027-0.005,0.094-0.023,0.196-0.061
			c0.104-0.033,0.182-0.067,0.229-0.105l0.119-0.023c0.026-0.006,0.094-0.023,0.197-0.058c0.104-0.034,0.182-0.058,0.235-0.067
			c0.08-0.016,0.148-0.015,0.208,0c0.149-0.082,0.291-0.139,0.426-0.164c0.16-0.03,0.299-0.029,0.416,0.002
			c0.076-0.041,0.273-0.094,0.594-0.155l0.16-0.031c0.026-0.005,0.084-0.03,0.172-0.074c0.088-0.046,0.159-0.073,0.213-0.083
			l0.2-0.039c0.106-0.021,0.188-0.078,0.238-0.171c0.051-0.094,0.087-0.155,0.108-0.188c0.021-0.031,0.062-0.073,0.12-0.127
			c0.061-0.053,0.1-0.096,0.121-0.127c0.165-0.863,0.231-1.377,0.201-1.536c-0.026-0.134-0.068-0.208-0.126-0.226
			c-0.041-0.49-0.391-1.006-1.049-1.543c-0.09-0.037-0.242-0.104-0.455-0.203c-0.212-0.097-0.364-0.164-0.455-0.201
			c-0.053,0.011-0.096,0.012-0.123,0.002c-0.03-0.008-0.072-0.008-0.125,0.004c-0.07-0.069-0.156-0.094-0.264-0.073
			c-0.074-0.097-0.162-0.121-0.265-0.074c-0.042-0.075-0.193-0.143-0.455-0.202c-0.371-0.205-0.659-0.328-0.861-0.373
			c-0.032-0.021-0.055-0.06-0.063-0.113c-0.086-0.01-0.195-0.051-0.335-0.12c-0.14-0.07-0.236-0.113-0.296-0.13l-0.016-0.08
			c-0.032-0.021-0.05-0.047-0.057-0.074c-0.095-0.063-0.251-0.15-0.467-0.262c-0.215-0.11-0.368-0.185-0.459-0.223
			c-0.079-0.123-0.348-0.363-0.805-0.718c-0.11-0.146-0.18-0.216-0.207-0.21l-0.03-0.16c-0.159-0.107-0.244-0.187-0.255-0.24
			l-0.023-0.121c-0.005-0.025-0.048-0.107-0.13-0.246c-0.082-0.135-0.129-0.229-0.139-0.283c-0.377-0.51-0.604-0.825-0.683-0.949
			c-0.086-0.148-0.136-0.264-0.15-0.346c-0.01-0.053,0-0.139,0.034-0.256c-0.042-0.074-0.079-0.191-0.11-0.353
			c-0.072-0.375-0.067-0.708,0.015-1.001c-0.025-0.133-0.002-0.292,0.074-0.472l-0.03-0.16c0.025-0.146,0.097-0.324,0.206-0.539
			c0.11-0.216,0.182-0.396,0.209-0.539c0.173-0.256,0.258-0.453,0.26-0.591c0.024-0.005,0.104-0.104,0.233-0.296
			c0.021-0.031,0.077-0.099,0.169-0.198c0.092-0.102,0.157-0.184,0.2-0.247l0.04-0.008c0.022-0.031,0.046-0.052,0.073-0.056
			c0.043-0.063,0.137-0.152,0.282-0.264c0.145-0.111,0.236-0.197,0.282-0.262c0.101-0.048,0.25-0.139,0.443-0.273
			c0.195-0.136,0.357-0.229,0.486-0.281c0.038-0.092,0.137-0.151,0.297-0.184l0.201-0.039c0.048-0.035,0.108-0.074,0.185-0.117
			c0.074-0.043,0.123-0.08,0.146-0.111l0.16-0.031l0.338-0.189C29.979,80.931,30.192,80.876,30.512,80.813z"/>
	</g>
	<g>
		<path fill="#231F20" d="M62,74.926l0.466,0.022c0.934-0.01,1.749,0.06,2.448,0.207c0.026,0.002,0.063,0.018,0.104,0.048
			c0.04,0.03,0.075,0.046,0.104,0.048c0.109,0.033,0.244,0.068,0.396,0.104c0.154,0.037,0.272,0.084,0.354,0.145
			c-0.001,0.027,0.022,0.072,0.077,0.132c0.027,0.001,0.085,0.019,0.167,0.052c0.084,0.031,0.151,0.063,0.208,0.094
			c0.137,0.093,0.298,0.264,0.481,0.513c0.187,0.25,0.347,0.405,0.486,0.469l0.331,0.991c0.168,0.602,0.249,0.973,0.242,1.113
			c-0.018,0.338,0.001,0.537,0.055,0.597c-0.033,0.083-0.052,0.194-0.06,0.336c-0.018,0.338,0.07,0.567,0.262,0.69
			c-0.004,0.084-0.023,0.176-0.057,0.271c-0.032,0.1-0.051,0.176-0.054,0.231c-0.001,0.028,0.018,0.071,0.058,0.13
			c0.039,0.059,0.059,0.115,0.056,0.172c-0.001,0.027-0.02,0.084-0.052,0.167s-0.05,0.153-0.053,0.21l-0.005,0.084
			c-0.002,0.057,0.031,0.094,0.102,0.111c0.068,0.017,0.104,0.039,0.104,0.068c-0.002,0.027-0.011,0.063-0.027,0.104
			s-0.024,0.076-0.025,0.104c-0.004,0.086,0.012,0.206,0.046,0.362c0.035,0.157,0.05,0.265,0.047,0.319l-0.004,0.086
			c-0.001,0.027-0.019,0.068-0.048,0.123c-0.031,0.057-0.048,0.111-0.051,0.168c-0.007,0.113-0.023,0.184-0.055,0.21
			c0.055,0.06,0.083,0.188,0.088,0.386c0.004,0.197,0.032,0.326,0.087,0.385c-0.032,0.083-0.053,0.195-0.06,0.338
			c-0.01,0.196,0.022,0.396,0.098,0.598c-0.031,0.082-0.055,0.238-0.065,0.463c-0.015,0.281-0.093,0.461-0.238,0.539
			c-0.001,0.027,0.003,0.07,0.015,0.127c0.013,0.059,0.018,0.101,0.016,0.128c-0.008,0.17-0.085,0.293-0.23,0.37l-0.021,0.423
			c-0.015,0.282-0.065,0.478-0.155,0.586c-0.001,0.028,0.022,0.114,0.071,0.258c-0.033,0.111-0.053,0.195-0.056,0.251
			c0.025,0.059,0.035,0.145,0.029,0.258c-0.005,0.11,0.02,0.184,0.075,0.215c-0.085-0.004-0.172,0.049-0.262,0.155
			c-0.004,0.084,0.024,0.199,0.088,0.345c0.063,0.145,0.093,0.258,0.089,0.344c-0.002,0.027-0.025,0.083-0.072,0.164
			c-0.046,0.084-0.07,0.152-0.073,0.21l-0.004,0.084c-0.006,0.112,0.016,0.263,0.063,0.448c0.048,0.186,0.069,0.308,0.066,0.362
			c0.053,0.087,0.109,0.203,0.175,0.349c0.062,0.145,0.105,0.26,0.13,0.346c-0.018,0.338,0.137,0.691,0.456,1.061
			c0.32,0.369,0.493,0.584,0.52,0.641c0.057-0.024,0.156-0.034,0.298-0.026c0.254,0.013,0.436,0.078,0.54,0.196
			c-0.007,0.142,0.006,0.312,0.038,0.51c0.033,0.2,0.047,0.341,0.042,0.427c-0.002,0.058-0.036,0.167-0.101,0.333
			c-0.031,0.057-0.077,0.11-0.135,0.163c-0.06,0.054-0.09,0.095-0.092,0.122c-0.028,0.027-0.053,0.068-0.068,0.124
			c-0.019,0.056-0.026,0.099-0.028,0.126c-0.147,0.135-0.224,0.243-0.229,0.327c-0.382,0.293-0.604,0.493-0.664,0.603l-0.086-0.004
			c-0.112-0.006-0.264,0.036-0.45,0.127c-0.188,0.09-0.339,0.131-0.451,0.125c-0.058-0.003-0.102,0.01-0.13,0.035
			c-0.257,0.072-0.442,0.105-0.556,0.1c-0.17-0.008-0.281-0.041-0.335-0.102c-0.256,0.045-0.585-0.015-0.985-0.176
			c-0.402-0.161-0.655-0.344-0.756-0.546c-0.226-0.067-0.509-0.322-0.854-0.763c-0.242-0.238-0.376-0.4-0.4-0.486l-0.035-0.129
			c-0.023-0.086-0.05-0.145-0.076-0.174c-0.027-0.028-0.135-0.119-0.324-0.271c-0.179,0.16-0.31,0.239-0.394,0.233
			c-0.059-0.002-0.1-0.019-0.124-0.049l-0.016,0.297c-0.059,0.024-0.182,0.097-0.372,0.215c-0.188,0.117-0.341,0.174-0.452,0.168
			c-0.027-0.002-0.045,0.04-0.049,0.125l-0.006,0.126c-0.29,0.128-0.51,0.272-0.658,0.434c-0.141-0.007-0.318,0.034-0.536,0.122
			c-0.217,0.09-0.394,0.129-0.534,0.121l-0.127-0.006c-0.202,0.074-0.458,0.104-0.769,0.089l-0.254-0.013
			c-0.028-0.001-0.069-0.018-0.125-0.049l-0.042-0.002L58.3,95.673l-0.374-0.146c-0.222-0.066-0.346-0.129-0.371-0.188
			c-0.027-0.029-0.056-0.029-0.085-0.004c-0.03,0.025-0.06,0.039-0.087,0.038l-0.161-0.179c-0.14-0.034-0.305-0.112-0.496-0.235
			c-0.19-0.122-0.303-0.185-0.33-0.187c-0.025-0.029-0.146-0.127-0.366-0.293c-0.219-0.166-0.365-0.309-0.444-0.426
			c-0.253-0.013-0.52-0.096-0.792-0.251l-0.286-0.227c-0.026-0.029-0.105-0.146-0.236-0.351c-0.054-0.061-0.141-0.148-0.262-0.269
			c-0.121-0.118-0.223-0.216-0.303-0.291c-0.082-0.074-0.135-0.168-0.156-0.283c-0.082-0.061-0.265-0.364-0.548-0.917
			c0.001-0.027-0.056-0.045-0.167-0.05c0.031-0.056,0.04-0.097,0.027-0.126c-0.014-0.028-0.02-0.059-0.018-0.086l-0.083-0.046
			L52.68,91.11c-0.025-0.058-0.097-0.188-0.213-0.393c-0.117-0.201-0.172-0.39-0.163-0.559c0.004-0.084-0.008-0.155-0.032-0.213
			l-0.039-0.045c-0.026-0.029-0.041-0.06-0.039-0.088l0.007-0.125c0.01-0.197-0.036-0.42-0.137-0.664
			c-0.102-0.244-0.147-0.424-0.143-0.536c0.004-0.085,0.021-0.19,0.058-0.315c0.033-0.125,0.053-0.216,0.057-0.273
			c0.003-0.056-0.016-0.112-0.057-0.17c-0.039-0.06-0.058-0.116-0.055-0.174l-0.021-0.425c0.003-0.057,0.014-0.133,0.033-0.231
			c0.02-0.098,0.028-0.16,0.029-0.188c0.035-0.139,0.068-0.378,0.1-0.715c0.031-0.338,0.063-0.576,0.101-0.716l0.087-0.038
			c0.026,0.002,0.042-0.013,0.044-0.04c0.031-0.055,0.02-0.098-0.036-0.129c-0.055-0.031-0.082-0.061-0.08-0.09
			c0.032-0.082,0.11-0.381,0.235-0.898c0.125-0.516,0.25-0.898,0.375-1.146c0.057,0.004,0.1-0.008,0.128-0.035
			c0.029-0.026,0.054-0.062,0.068-0.103c0.018-0.042,0.039-0.075,0.068-0.104c0.003-0.056-0.009-0.099-0.035-0.128
			c-0.055-0.061-0.08-0.104-0.079-0.133c0.01-0.168,0.087-0.319,0.235-0.453c0.013-0.254,0.078-0.436,0.196-0.541l0.004-0.086
			c0.004-0.084,0.131-0.347,0.379-0.785c0.093-0.165,0.151-0.246,0.181-0.245c-0.027-0.001-0.04-0.044-0.035-0.129
			c0.116-0.079,0.246-0.263,0.389-0.554c0.143-0.289,0.284-0.486,0.432-0.593c0.254-0.553,0.571-0.975,0.953-1.267
			c0.004-0.085,0.037-0.182,0.1-0.291c0.028-0.026,0.074-0.074,0.135-0.143c0.061-0.066,0.104-0.129,0.137-0.184l0.212,0.011
			c0.087-0.053,0.253-0.149,0.501-0.293c0.247-0.144,0.44-0.239,0.586-0.29c0.031-0.054,0.076-0.115,0.137-0.184
			c0.062-0.066,0.104-0.114,0.135-0.143c0.059-0.023,0.101-0.021,0.128,0.008c0.143-0.051,0.33-0.153,0.564-0.312
			c0.058-0.024,0.146-0.077,0.262-0.155c0.118-0.08,0.22-0.131,0.306-0.156c0.058-0.023,0.144-0.049,0.258-0.07
			s0.2-0.047,0.259-0.07l0.301-0.113c0.518-0.145,0.789-0.229,0.818-0.256c0.026,0.029,0.082,0.047,0.167,0.051
			c0.112,0.006,0.229-0.045,0.348-0.151c0.027,0.001,0.084-0.003,0.169-0.013c0.086-0.01,0.154,0.001,0.211,0.031
			C61.518,74.959,61.718,74.911,62,74.926z M60.209,81.106c-0.314,0.069-0.603,0.184-0.864,0.34
			c-0.002,0.027-0.024,0.063-0.069,0.103c-0.043,0.04-0.052,0.075-0.024,0.104c-0.344,0.097-0.563,0.212-0.653,0.349
			c-0.003,0.058-0.026,0.112-0.072,0.166c-0.045,0.056-0.067,0.097-0.068,0.124c-0.029,0.025-0.062,0.089-0.094,0.186
			c-0.033,0.099-0.079,0.174-0.14,0.228l0.034,0.171c-0.114,0.023-0.176,0.118-0.185,0.287c-0.021,0.396-0.063,0.689-0.129,0.884
			c0.056,0.031,0.079,0.103,0.073,0.216c-0.001,0.028-0.017,0.069-0.048,0.125c-0.031,0.055-0.063,0.117-0.095,0.187
			c-0.031,0.069-0.048,0.118-0.049,0.146c0.025,0.03,0.036,0.088,0.032,0.172c-0.003,0.057-0.026,0.141-0.075,0.25
			c-0.049,0.11-0.073,0.194-0.076,0.25c-0.006,0.113,0.06,0.215,0.196,0.308c-0.031,0.083,0.006,0.185,0.112,0.303
			c-0.06,0.054-0.1,0.149-0.12,0.29s-0.075,0.236-0.163,0.289c0.052,0.115,0.073,0.229,0.068,0.342
			c-0.003,0.057-0.037,0.168-0.103,0.335c-0.002,0.027,0.024,0.058,0.08,0.089c0.056,0.03,0.081,0.061,0.08,0.088
			c-0.03,0.057,0.009,0.129,0.116,0.219c0.026,0.029,0.054,0.06,0.081,0.088c0.026,0.029,0.04,0.053,0.039,0.066
			c0,0.015,0.013,0.035,0.039,0.064c-0.001,0.027,0.024,0.064,0.079,0.109c0.054,0.045,0.079,0.097,0.076,0.151
			c-0.006,0.113-0.025,0.211-0.058,0.294c0.056,0.031,0.115,0.09,0.183,0.178c0.065,0.09,0.127,0.148,0.183,0.181l-0.029,0.592
			c0.055,0.031,0.165,0.086,0.33,0.164c0.165,0.08,0.289,0.149,0.371,0.209c0.025,0.06,0.204,0.151,0.536,0.281
			c-0.001,0.028,0.025,0.044,0.083,0.047c0.027,0.002,0.056,0.019,0.082,0.047c0.084,0.032,0.195,0.051,0.337,0.06
			c0.165,0.063,0.263,0.098,0.291,0.099c0.028,0.002,0.07-0.011,0.129-0.035s0.115-0.037,0.172-0.034l0.006-0.127
			c0.351-0.236,0.589-0.479,0.715-0.727c0.029-0.026,0.072-0.053,0.132-0.078l0.087-0.038l-0.041-0.045l0.002-0.042
			c0.004-0.085,0.096-0.207,0.271-0.368l0.004-0.042c0.005-0.111,0.094-0.207,0.269-0.283c-0.055-0.059-0.066-0.104-0.037-0.129
			c0.061-0.053,0.105-0.136,0.14-0.247c0.004-0.057,0.021-0.112,0.053-0.168c0.001-0.026,0.029-0.067,0.09-0.122
			c0.06-0.053,0.104-0.107,0.136-0.162c0.245-0.412,0.371-0.66,0.376-0.744c0.066-0.223,0.13-0.347,0.188-0.373
			c-0.084-0.004-0.126-0.033-0.123-0.09c0.008-0.141,0.067-0.236,0.185-0.287c0.017-0.311,0.085-0.574,0.209-0.795
			c-0.085-0.005-0.125-0.033-0.122-0.092c0.031-0.082,0.038-0.216,0.021-0.4c-0.021-0.185-0.014-0.318,0.021-0.401
			c0.001-0.028,0.017-0.041,0.044-0.04c0.028,0.001,0.043-0.012,0.045-0.04c0.001-0.026,0.003-0.056,0.004-0.084l-0.041-0.045
			c0.003-0.028,0.049-0.082,0.137-0.163c0.001-0.028,0.004-0.069,0.007-0.127l-0.038-0.086l0.044-0.041
			c0.003-0.057,0.005-0.1,0.006-0.127l0.025-0.508c0.019-0.364,0.003-0.621-0.046-0.765l0.044-0.04l0.044-0.039
			c-0.111-0.033-0.189-0.166-0.234-0.395l-0.337-0.018l-0.121-0.133l-0.085-0.005c-0.113-0.005-0.245-0.055-0.396-0.146
			c-0.151-0.092-0.27-0.142-0.354-0.146l-0.172,0.034c-0.054-0.061-0.108-0.091-0.165-0.094L61.72,81.44
			c-0.169-0.01-0.296,0-0.382,0.022l-0.161-0.178l-0.127-0.007c-0.142-0.008-0.294-0.035-0.461-0.086
			C60.419,81.14,60.293,81.112,60.209,81.106z"/>
	</g>
</g>
</svg>
