<?xml version="1.0" encoding="utf-8"?>
<!-- Generator: Adobe Illustrator 16.0.0, SVG Export Plug-In . SVG Version: 6.00 Build 0)  -->
<!DOCTYPE svg PUBLIC "-//W3C//DTD SVG 1.1//EN" "http://www.w3.org/Graphics/SVG/1.1/DTD/svg11.dtd">
<svg version="1.1" id="Layer_1" xmlns="http://www.w3.org/2000/svg" xmlns:xlink="http://www.w3.org/1999/xlink" x="0px" y="0px"
	 width="114.443px" height="79.923px" viewBox="0 0 114.443 79.923" enable-background="new 0 0 114.443 79.923"
	 xml:space="preserve">
<path fill="#998282" d="M1.087,69.688c0,0.263,0.012,0.992,0.023,1.703c0.01,0.585,0.02,1.157,0.02,1.354
	c0,0.618,0.086,1.44,0.256,2.036C2.302,77.979,5.2,80.42,8.435,80.42h3.539c0.443,0,1.545-0.059,2.753-0.564
	c0.871,0.364,1.829,0.564,2.839,0.564h3.058c1.631,0,2.941-0.655,3.981-1.362c1.919,1.074,4.344,1.619,7.422,1.619
	c0.086,0,0.172-0.054,0.258-0.057c2.825-0.11,5.032-0.826,6.755-1.773c1.331,0.758,3.014,1.215,5.089,1.215
	c0.744,0,1.365-0.062,1.802-0.103c0.392-0.021,0.781-0.081,1.164-0.17c0.676-0.159,1.494-0.433,2.302-0.896
	c1.318,0.638,2.572,0.764,3.332,0.764c0.001,0,3.196,0.043,3.196,0.043c1.634,0,3.135-0.48,4.363-1.321
	c2.38,1.389,4.927,1.759,6.953,1.759c1.967,0,3.801-0.088,5.446-0.708c1.237,1.092,2.835,1.991,4.603,1.991h3.233
	c0.688,0,1.546-0.129,2.427-0.452c0.759,0.292,1.576,0.452,2.422,0.452h3.539c0.673,0,2.854-0.329,4.636-1.938
	c1.089,0.732,2.378,0.938,3.71,0.938h3.408c3.147,0,5.945-2.111,6.964-5.172c0.195-0.585,0.307-1.223,0.333-1.838
	c0.05-1.148,0.05-2.257,0.05-3.315c0-1.39-0.022-2.786-0.044-4.177c-0.003-0.216-0.007-0.436-0.01-0.65
	c5.298-3.529,5.297-10.79,5.297-15.367c0-0.764-0.01-1.549-0.021-2.364c-0.011-0.82-0.023-1.675-0.023-2.575
	c0-3.479-2.288-6.229-5.563-7.021c3.016-2.096,5.333-4.664,6.623-7.454c1.439-3.113,1.558-6.43,0.333-9.344
	c-0.124-0.292-0.26-0.578-0.413-0.861c-0.11-0.383-0.241-0.756-0.394-1.122c-0.288-0.686-0.646-1.34-1.071-1.959
	c-0.098-0.351-0.205-0.696-0.319-1.034c0.206-1.943-0.079-3.912-0.852-5.755c-1.863-4.449-6.169-7.364-11.04-7.511
	C97.814,1.652,94.93,1,92.057,1c-1.905,0-3.779,0.286-5.581,0.855c-13.813,4.391-28.132,7.435-42.568,9.049
	c-4.703,0.531-9.107,2.92-12.384,6.655c-0.389,0.188-0.762,0.399-1.126,0.623c-0.812-0.52-1.75-0.888-2.816-1.029
	c-0.09-0.012-0.181-0.022-0.271-0.03l-1.813,0.08c-0.201-0.019-0.402,0.217-0.603,0.217h-0.221c-1.058,0-2.036-0.069-2.919,0.273
	c-1-0.329-2.196-0.653-3.613-0.664c-1.441-0.981-2.895-1.29-3.933-1.29c-2.166,0-3.891,0.68-5.174,1.68H8.688
	c-3.999,0-7.252,3.234-7.252,7.187c0,2.379-0.048,4.624-0.099,6.99c-0.06,2.75-0.121,5.598-0.121,9.09
	c0,0.815,0.136,1.599,0.376,2.33c-0.338,0.909-0.504,1.866-0.504,2.801l-0.019,2.095C1.032,51.862,1,55.328,1,58.285
	c0,5.374,0.054,9.046,0.077,10.615C1.083,69.306,1.087,69.571,1.087,69.688z"/>
<g>
	<g>
		<path fill="#FFFFFF" d="M43.532,51.964c-10.542,0-18.308-5.465-18.465-12.995c-0.006-0.323,0.002-0.645,0.026-0.968
			c-0.054-0.39-0.085-0.779-0.095-1.17c-0.016-0.747,0.045-1.49,0.181-2.227c-0.053-0.36-0.096-0.722-0.13-1.083
			c-0.976-1.688-1.518-3.6-1.563-5.597c-0.098-4.902,2.74-9.298,7.039-11.365c3.277-3.735,7.682-6.124,12.384-6.655
			C57.345,8.29,71.664,5.246,85.477,0.856C87.278,0.287,89.152,0,91.057,0c2.873,0,5.757,0.652,8.457,1.9
			c4.871,0.146,9.177,3.061,11.04,7.51c0.773,1.843,1.058,3.812,0.852,5.755c0.114,0.338,0.221,0.684,0.319,1.035
			c0.426,0.619,0.784,1.272,1.071,1.958c0.153,0.367,0.284,0.739,0.394,1.122c0.152,0.283,0.289,0.57,0.413,0.862
			c1.225,2.914,1.106,6.229-0.333,9.343c-2.268,4.906-7.704,9.128-14.542,11.294c-16.786,5.336-34.178,9.033-51.686,10.985
			C45.875,51.897,44.691,51.964,43.532,51.964L43.532,51.964z"/>
		<path fill="#FFFFFF" d="M104.05,12.135L104.05,12.135L104.05,12.135c-0.987-2.358-3.588-3.594-6.057-3.07
			c-3.2-1.933-6.955-2.57-10.381-1.488C73.318,12.12,58.607,15.245,43.7,16.912c-3.57,0.403-6.74,2.512-8.878,5.581
			c-2.471,0.525-4.338,2.713-4.287,5.268l0.001,0.001c-0.001,0.001-0.001,0.001-0.001,0.001c0.03,1.317,0.599,2.485,1.498,3.336
			c-0.008,0.271-0.023,0.535-0.019,0.809c0.022,1.034,0.164,2.035,0.4,2.994c-0.243,0.573-0.38,1.163-0.367,1.765
			c0.009,0.375,0.089,0.736,0.206,1.091c-0.087,0.35-0.144,0.705-0.137,1.065c0.082,3.926,6.44,6.802,14.144,5.936
			c17.09-1.906,33.95-5.49,50.338-10.699c7.391-2.342,12.028-7.557,10.507-11.175c-0.14-0.331-0.337-0.632-0.558-0.917
			c-0.037-0.371-0.109-0.733-0.255-1.081c-0.233-0.557-0.6-1.041-1.056-1.466c-0.176-0.971-0.451-1.941-0.854-2.895
			c-0.104-0.252-0.228-0.488-0.345-0.731C104.516,14.651,104.561,13.351,104.05,12.135C104.05,12.135,104.05,12.135,104.05,12.135z"
			/>
	</g>
	<g>
		<g>
			<g>
				<path fill="#FFFFFF" d="M16.565,79.006c-1.01,0-1.968-0.2-2.839-0.564c-1.208,0.506-2.31,0.564-2.753,0.564H7.435
					c-3.235,0-6.133-2.234-7.047-5.433c-0.17-0.594-0.256-1.209-0.256-1.828c0-0.197-0.01-0.769-0.02-1.354
					c-0.012-0.711-0.023-1.44-0.023-1.703c0-0.118-0.004-0.382-0.01-0.789C0.054,66.332,0,62.66,0,57.286
					c0-2.957,0.032-6.423,0.068-10.372l0.019-2.094c0-3.71,2.6-7.768,8.309-7.768c2.031,0,3.634,0.323,4.898,0.846
					c0.957-0.431,2.021-0.671,3.14-0.671h2.49c3.868,0,7.784,2.914,7.784,8.483l0.218,25.294c0,5.872-4.368,8.003-7.304,8.003
					H16.565z"/>
				<path fill="#FFFFFF" d="M31.027,79.574c-14.473,0-14.623-14.244-14.687-20.326c-0.012-1.155-0.024-2.246-0.077-3.214
					c-0.006-0.121-0.01-0.243-0.01-0.364v-1.922c0-2.379,0.086-5.863,0.494-8.954c0.01-0.074,0.021-0.147,0.033-0.22
					c0.681-4.092,3.718-6.736,7.737-6.736h2.622c1.263,0,2.559,0.376,3.695,1.058c0.877-0.426,1.861-0.665,2.901-0.665h3.67
					c2.97,0,6.477,2.082,7.125,5.94c0.052,0.308,0.082,0.619,0.09,0.931c0.185,7.271,0.264,11.686,0.264,14.76v2.796
					c0,3.101-0.139,6.684-1.8,9.959c-1.255,2.473-4.456,6.665-11.798,6.951C31.199,79.572,31.113,79.574,31.027,79.574z"/>
				<path fill="#FFFFFF" d="M43.129,79.049c-6.128,0-8.92-4.035-8.92-7.784V57.199c0-1.647,0.011-3.295,0.022-4.948
					c0.011-1.634,0.022-3.274,0.022-4.925c0-0.172-0.009-0.352-0.016-0.535c-0.015-0.37-0.028-0.748-0.028-1.125
					c0-7.021,5.063-8.877,7.741-8.877c0,0,3.665,0.044,3.665,0.044c1.463,0,2.813,0.362,3.969,1.03
					c0.937-0.395,1.939-0.594,2.938-0.594c0.036,0,2.793,0.044,2.793,0.044c3.655,0.042,6.748,2.83,7.211,6.518
					c0.03,0.239,0.047,0.479,0.051,0.721c0.044,2.701,0.044,5.402,0.044,8.103c0,3.083-0.031,5.947-0.063,8.891
					c-0.033,3.065-0.068,6.218-0.068,9.807c0,0.367-0.03,0.733-0.091,1.095c-0.615,3.681-3.688,6.252-7.475,6.252
					c0,0-3.195-0.043-3.196-0.043c-0.76,0-2.014-0.126-3.332-0.764c-0.808,0.462-1.626,0.734-2.302,0.894
					c-0.382,0.09-0.771,0.146-1.163,0.167C44.495,78.994,43.874,79.049,43.129,79.049z"/>
				<path fill="#FFFFFF" d="M66.241,79.137c-5.338,0-14.293-2.549-14.293-19.623v-0.35c0-3.61,0.102-7.796,1.316-11.775
					c2.064-6.764,6.906-10.644,13.283-10.644c3.264,0,9.224,1.108,12.47,8.527c0.367,0.84,0.557,1.748,0.557,2.665v0.437
					c0,1.849-0.607,3.53-1.666,4.82c1.004,1.13,1.476,2.329,1.663,2.919c0.08,0.251,0.144,0.508,0.193,0.767
					c0.421,2.229,0.421,4.23,0.421,5.997c0,3.093-0.387,5.339-1.428,8.286C77.012,76.085,72.217,79.137,66.241,79.137z"/>
				<path fill="#FFFFFF" d="M84.372,79.923c-0.846,0-1.663-0.16-2.422-0.452c-0.881,0.323-1.739,0.452-2.427,0.452H76.29
					c-4.022,0-7.172-3.362-7.172-7.653l-0.262-27.327c0-5.953,3.832-8.635,7.391-8.635h7.034c5.264,0,11.41,3.446,11.41,13.158
					c0,3.012-0.902,6.132-1.999,8.675c1.487,2.895,2.245,6.169,2.261,9.78l0.023,0.395c0.043,0.691,0.108,1.736,0.108,2.773
					c0,8.407-5.975,8.833-7.173,8.833H84.372z"/>
				<path fill="#FFFFFF" d="M96.256,79.312c-1.766,0-3.459-0.703-4.707-1.953l-0.437-0.438c-1.244-1.246-1.942-2.935-1.942-4.696
					v-7.427c-4.685-2.323-5.461-6.816-5.461-11.489c0-1.519,0.056-3.012,0.111-4.456c0.055-1.465,0.107-2.849,0.107-4.281
					c0-3.912,2.839-7.871,8.265-7.871c0.252,0,0.427,0.008,0.669,0.023c0.152,0.01,0.4,0.021,1.209,0.021
					c0.217,0,0.435,0.011,0.65,0.032c1.261,0.124,2.413,0.515,3.402,1.114c0.163-0.099,0.33-0.19,0.501-0.276
					c0.742-0.369,1.547-0.596,2.373-0.669c0.394-0.035,0.683-0.066,0.929-0.093c0.868-0.094,1.486-0.151,2.76-0.151
					c4.288,0,7.522,3.121,7.522,7.26c0,0.899,0.012,1.753,0.023,2.574c0.011,0.815,0.021,1.6,0.021,2.363
					c0,4.577,0,11.837-5.297,15.366c0.003,0.216,0.007,0.432,0.01,0.647c0.022,1.39,0.044,2.78,0.044,4.17
					c0,1.059,0,2.153-0.05,3.302c-0.026,0.617-0.139,1.227-0.333,1.812c-1.019,3.061-3.817,5.118-6.964,5.118H96.256z"/>
			</g>
			<g>
				<path fill="#FFFFFF" d="M7.193,46.944c-3.848,0-6.978-3.253-6.978-7.253c0-3.492,0.061-6.335,0.121-9.084
					c0.051-2.367,0.099-4.603,0.099-6.983c0-3.954,3.253-7.17,7.252-7.17h1.621c3.569,0,7.362,2.715,7.362,7.746
					c0,0.253-0.011,0.52-0.025,0.77l-0.002-0.055c0,1.321-0.094,5.796-0.177,9.745c-0.047,2.247-0.088,4.199-0.098,4.956
					c0,4.758-3.552,7.329-6.895,7.329H7.193z"/>
				<path fill="#FFFFFF" d="M12.982,34.222l-0.622-0.024c-4.34-0.071-6.766-3.007-7.249-5.917c-0.097-0.584-0.115-1.178-0.055-1.767
					c0.141-1.366,0.213-2.392,0.267-3.163c0.407-5.743,3.059-8.655,7.885-8.655c1.196,0,2.943,0.303,4.588,1.711
					c1.534,1.198,2.472,3.016,2.55,4.977l0.22,5.575c0.003,0.087,0.005,0.174,0.005,0.262c0,3.439-2.571,7.006-7.335,7.006
					C13.151,34.227,13.066,34.226,12.982,34.222z"/>
				<path fill="#FFFFFF" d="M14.914,47.272c-3.275,0-6.841-2.58-6.841-7.362c0-0.235,0.012-0.469,0.037-0.702l0.262-6.165
					c0.217-5.135,0.326-7.713,0.429-9.216c0.122-1.785,0.376-5.499,4.17-7.255l0.021,0.046c1.042-0.441,2.362-0.716,4.036-0.716
					c1.469,0,2.699,0.207,3.727,0.544c0.884-0.341,1.862-0.517,2.919-0.517h0.221c0.201,0,0.402,0.009,0.603,0.027l1.813,0.165
					c0.091,0.008,0.181,0.019,0.271,0.03c4.059,0.539,6.31,4.29,6.453,7.676l1.088,14.854c0.012,0.162,0.018,0.324,0.018,0.486
					v0.741c0,0.364-0.03,0.728-0.089,1.086c-0.551,3.328-3.56,5.836-6.999,5.836h-1.978c-0.183,0-0.366-0.007-0.549-0.022
					c-1.112-0.092-2.142-0.43-3.04-0.963c-1.393,1.178-3.023,1.453-4.24,1.453C17.22,47.3,14.914,47.272,14.914,47.272z"/>
			</g>
		</g>
		<g>
			<g>
				<path fill="#D94128" d="M6.736,68.688c0-0.568-0.087-4.544-0.087-11.402c0-3.451,0.044-7.602,0.087-12.406
					c0-1.093,0.743-1.18,1.66-1.18c2.271,0,2.927,0.175,2.927,1.441c0,2.534-0.131,5.111-0.131,7.646
					c0,1.397,0.131,3.058,0.131,4.63c0.131,0.48,0.437,0.524,0.874,0.524c0.218,0,2.621-0.262,2.752-0.393l0.35-0.35l0.218-12.538
					c0-0.48,0.48-0.786,0.917-0.786h2.49c0.961,0,1.136,0.873,1.136,1.835l0.218,25.119v0.175c0,0.567,0,1.354-0.655,1.354h-3.058
					c-0.568,0-0.786-0.568-0.786-1.093v-8.3c0-0.394-0.262-0.83-0.568-0.962h-1.267c-1.136,0-2.621,0.132-2.621,1.137
					c0,1.834,0.131,3.669,0.131,5.548v1.529c0,1.092-0.044,2.141-0.481,2.141H7.435c-0.306,0-0.568-0.307-0.655-0.612
					C6.779,71.309,6.736,69.168,6.736,68.688z"/>
				<path fill="#D94128" d="M22.901,55.669v-1.922c0-2.884,0.131-5.767,0.437-8.082c0.131-0.786,0.393-1.18,1.179-1.18h2.622
					c0.087,0,0.524,0.219,0.524,0.394v16.731c0,5.636,0.612,6.814,4.238,6.814c1.354,0,1.747-2.446,1.747-4.063l0.087-19.483h3.67
					c0.043,0,0.524,0.131,0.568,0.393c0.175,6.859,0.262,11.402,0.262,14.591v2.796c0,5.111-0.481,10.005-7.208,10.267
					C21.678,72.925,23.294,62.833,22.901,55.669z"/>
				<path fill="#D94128" d="M45.401,54.883c-0.044,2.577-0.044,5.286-0.044,7.907l-0.043,8.213c0,1.048,0,1.136-0.743,1.311
					c-0.175,0-0.743,0.087-1.442,0.087c-1.048,0-2.271-0.218-2.271-1.136V57.199c0-3.276,0.044-6.553,0.044-9.873
					c0-0.524-0.044-1.093-0.044-1.66c0-1.18,0.175-2.229,1.092-2.229l3.582,0.044c0.743,0,1.048,0.306,1.223,0.918
					c2.403,7.819,3.713,12.101,4.762,14.983l0.044-5.984c0-2.49-0.131-4.937-0.131-7.515c0-0.917,0.175-1.966,1.092-1.966
					l2.708,0.044c0.394,0,0.655,0.35,0.699,0.699c0.043,2.665,0.043,5.33,0.043,7.994c0,6.291-0.131,11.664-0.131,18.698
					c-0.087,0.523-0.437,0.698-0.917,0.698l-3.102-0.043c-1.092,0-1.442-1.354-1.66-2.229L45.401,54.883z"/>
				<path fill="#D94128" d="M58.596,59.165c0-5.199,0.087-15.771,7.951-15.771c3.233,0,5.155,1.747,6.378,4.543v0.437
					c0,0.306-0.044,0.612-0.306,0.699l-3.539,1.747c-0.655-2.053-1.617-2.839-2.534-2.839c-2.359,0-3.451,5.067-3.451,10.091
					c0,5.068,1.092,10.136,3.189,10.136c3.232,0,3.32-2.315,3.32-5.111c0-0.524-0.087-1.441-0.524-1.441h-2.315
					c-0.219,0-0.48-0.568-0.48-0.699v-2.971c0-0.219,0.218-0.611,0.48-0.611c0.568,0,3.713-0.132,4.412-0.132h0.437
					c0.743,0,1.354,0.044,1.616,0.874c0.306,1.616,0.306,3.146,0.306,4.762c0,2.359-0.262,3.845-1.048,6.072
					c-0.961,2.709-3.801,3.539-6.247,3.539c-6.946,0-7.645-7.776-7.645-12.975V59.165z"/>
				<path fill="#D94128" d="M75.504,44.879c0-0.307,0.044-1.923,0.743-1.923h7.034c3.713,0,4.762,2.971,4.762,6.51
					c0,3.407-2.01,7.558-3.058,8.999c0,0,0,0.087,0.043,0.131c0.83,0.961,3.276,3.889,3.276,9.437c0,0.35,0.131,1.791,0.131,3.058
					c0,1.18-0.087,2.185-0.524,2.185h-3.539c-0.131,0-0.35-0.262-0.35-0.394c0-5.592-0.349-7.47-0.524-8.213
					c-0.306-1.441-1.18-2.271-2.403-2.271c-0.043,0-0.524,0.044-0.568,0.044c-0.699,0.175-0.655,1.092-0.699,1.703l0.219,7.732
					c0,0.481,0,1.398-0.524,1.398H76.29c-0.393,0-0.524-0.655-0.524-1.005L75.504,44.879z M80.528,56.543
					c0.043,0,0.175-0.044,0.262-0.044c1.704-1.573,2.49-3.058,2.49-5.636c0-2.358-0.131-3.495-2.359-3.495
					c-0.786,0-0.917,0.524-0.961,1.354l0.043,7.077C80.003,56.281,80.047,56.543,80.528,56.543z"/>
				<path fill="#D94128" d="M95.82,60.475c0-0.306-0.394-0.743-0.524-0.83c-4.194-0.48-4.937-1.311-4.937-6.335
					c0-2.839,0.218-5.679,0.218-8.737c0-1.092,0.83-1.223,1.617-1.223c0.306,0,0.306,0.044,1.878,0.044
					c0.437,0.043,0.961,0.218,0.961,0.83c0,2.708-0.175,6.422-0.175,9.218c0,0.393,0.044,0.742,0.044,1.136
					c0.043,0.742,2.053,0.961,3.626,0.961c1.267,0,2.446-0.48,2.49-1.923l0.219-9.392c0-0.263,0.175-0.568,0.35-0.655
					c1.485-0.132,1.66-0.219,3.102-0.219c0.437,0,0.874,0.087,0.874,0.611c0,1.791,0.044,3.407,0.044,4.937
					c0,5.68-0.35,9.349-3.451,10.354c-0.568,0.175-1.529,0-1.879,0.48v1.224c0,2.708,0.087,5.417,0.087,8.125
					c0,1.005,0,2.01-0.043,3.015c-0.087,0.263-0.35,0.568-0.655,0.568h-3.408l-0.437-0.438V60.475z"/>
			</g>
			<g>
				<path fill="#D94128" d="M7.084,23.624c0-0.33,0.329-0.521,0.604-0.521h1.621c0.604,0,0.714,0.521,0.714,1.098
					c0,0.248-0.027,0.522-0.027,0.715c0,2.005-0.247,12.579-0.274,14.611c0,0,0,0.027,0,0.083c0,0.22-0.027,0.687-0.247,0.687h-2.28
					c-0.22,0-0.329-0.412-0.329-0.604C6.864,33.209,7.084,28.815,7.084,23.624z"/>
				<path fill="#D94128" d="M12.522,27.551c-0.385,0-0.797-0.027-0.852-0.357c0.576-5.603,0.082-5.85,1.538-5.85
					c0.22,0,0.247,0.137,0.494,0.302l0.22,5.575v0.083c0,0.247-0.385,0.274-0.687,0.274L12.522,27.551z"/>
				<path fill="#D94128" d="M14.748,39.581c0.687-15.984,0.659-16.809,1.016-16.974c-0.055,0,0.715-0.055,1.264-0.055
					c0.906,0,2.197,0.138,2.362,0.769l1.676,6.043c1.62-6.784,1.675-6.784,2.608-6.784h0.221l1.813,0.165
					c0.412,0.055,0.687,1.126,0.687,1.428l1.099,14.997v0.741c-0.027,0.165-0.303,0.274-0.439,0.274h-1.978
					c-0.33-0.027-0.439-0.356-0.467-0.659c-0.165-3.131-0.11-0.852-0.687-11.398c-1.511,5.164-2.197,6.482-2.774,6.482
					c-0.385,0-0.714-0.027-0.852-0.138c-0.796-0.576-0.356-1.071-2.472-6.646c-0.055,0.577-0.055,2.664-0.055,4.999
					c0,3.625-0.027,7.827-0.522,7.827l-2.252-0.027c-0.274,0-0.274-0.439-0.274-0.714C14.748,39.856,14.748,39.581,14.748,39.581z"
					/>
			</g>
		</g>
		<g>
			<g>
				<path fill="#D94128" d="M6.736,68.688c0-0.568-0.087-4.544-0.087-11.402c0-3.451,0.044-7.602,0.087-12.406
					c0-1.093,0.743-1.18,1.66-1.18c2.271,0,2.927,0.175,2.927,1.441c0,2.534-0.131,5.111-0.131,7.646
					c0,1.397,0.131,3.058,0.131,4.63c0.131,0.48,0.437,0.524,0.874,0.524c0.218,0,2.621-0.262,2.752-0.393l0.35-0.35l0.218-12.538
					c0-0.48,0.48-0.786,0.917-0.786h2.49c0.961,0,1.136,0.873,1.136,1.835l0.218,25.119v0.175c0,0.567,0,1.354-0.655,1.354h-3.058
					c-0.568,0-0.786-0.568-0.786-1.093v-8.3c0-0.394-0.262-0.83-0.568-0.962h-1.267c-1.136,0-2.621,0.132-2.621,1.137
					c0,1.834,0.131,3.669,0.131,5.548v1.529c0,1.092-0.044,2.141-0.481,2.141H7.435c-0.306,0-0.568-0.307-0.655-0.612
					C6.779,71.309,6.736,69.168,6.736,68.688z"/>
				<path fill="#D94128" d="M22.901,55.669v-1.922c0-2.884,0.131-5.767,0.437-8.082c0.131-0.786,0.393-1.18,1.179-1.18h2.622
					c0.087,0,0.524,0.219,0.524,0.394v16.731c0,5.636,0.612,6.814,4.238,6.814c1.354,0,1.747-2.446,1.747-4.063l0.087-19.483h3.67
					c0.043,0,0.524,0.131,0.568,0.393c0.175,6.859,0.262,11.402,0.262,14.591v2.796c0,5.111-0.481,10.005-7.208,10.267
					C21.678,72.925,23.294,62.833,22.901,55.669z"/>
				<path fill="#D94128" d="M45.401,54.883c-0.044,2.577-0.044,5.286-0.044,7.907l-0.043,8.213c0,1.048,0,1.136-0.743,1.311
					c-0.175,0-0.743,0.087-1.442,0.087c-1.048,0-2.271-0.218-2.271-1.136V57.199c0-3.276,0.044-6.553,0.044-9.873
					c0-0.524-0.044-1.093-0.044-1.66c0-1.18,0.175-2.229,1.092-2.229l3.582,0.044c0.743,0,1.048,0.306,1.223,0.918
					c2.403,7.819,3.713,12.101,4.762,14.983l0.044-5.984c0-2.49-0.131-4.937-0.131-7.515c0-0.917,0.175-1.966,1.092-1.966
					l2.708,0.044c0.394,0,0.655,0.35,0.699,0.699c0.043,2.665,0.043,5.33,0.043,7.994c0,6.291-0.131,11.664-0.131,18.698
					c-0.087,0.523-0.437,0.698-0.917,0.698l-3.102-0.043c-1.092,0-1.442-1.354-1.66-2.229L45.401,54.883z"/>
				<path fill="#D94128" d="M58.596,59.165c0-5.199,0.087-15.771,7.951-15.771c3.233,0,5.155,1.747,6.378,4.543v0.437
					c0,0.306-0.044,0.612-0.306,0.699l-3.539,1.747c-0.655-2.053-1.617-2.839-2.534-2.839c-2.359,0-3.451,5.067-3.451,10.091
					c0,5.068,1.092,10.136,3.189,10.136c3.232,0,3.32-2.315,3.32-5.111c0-0.524-0.087-1.441-0.524-1.441h-2.315
					c-0.219,0-0.48-0.568-0.48-0.699v-2.971c0-0.219,0.218-0.611,0.48-0.611c0.568,0,3.713-0.132,4.412-0.132h0.437
					c0.743,0,1.354,0.044,1.616,0.874c0.306,1.616,0.306,3.146,0.306,4.762c0,2.359-0.262,3.845-1.048,6.072
					c-0.961,2.709-3.801,3.539-6.247,3.539c-6.946,0-7.645-7.776-7.645-12.975V59.165z"/>
				<path fill="#D94128" d="M75.504,44.879c0-0.307,0.044-1.923,0.743-1.923h7.034c3.713,0,4.762,2.971,4.762,6.51
					c0,3.407-2.01,7.558-3.058,8.999c0,0,0,0.087,0.043,0.131c0.83,0.961,3.276,3.889,3.276,9.437c0,0.35,0.131,1.791,0.131,3.058
					c0,1.18-0.087,2.185-0.524,2.185h-3.539c-0.131,0-0.35-0.262-0.35-0.394c0-5.592-0.349-7.47-0.524-8.213
					c-0.306-1.441-1.18-2.271-2.403-2.271c-0.043,0-0.524,0.044-0.568,0.044c-0.699,0.175-0.655,1.092-0.699,1.703l0.219,7.732
					c0,0.481,0,1.398-0.524,1.398H76.29c-0.393,0-0.524-0.655-0.524-1.005L75.504,44.879z M80.528,56.543
					c0.043,0,0.175-0.044,0.262-0.044c1.704-1.573,2.49-3.058,2.49-5.636c0-2.358-0.131-3.495-2.359-3.495
					c-0.786,0-0.917,0.524-0.961,1.354l0.043,7.077C80.003,56.281,80.047,56.543,80.528,56.543z"/>
				<path fill="#D94128" d="M95.82,60.475c0-0.306-0.394-0.743-0.524-0.83c-4.194-0.48-4.937-1.311-4.937-6.335
					c0-2.839,0.218-5.679,0.218-8.737c0-1.092,0.83-1.223,1.617-1.223c0.306,0,0.306,0.044,1.878,0.044
					c0.437,0.043,0.961,0.218,0.961,0.83c0,2.708-0.175,6.422-0.175,9.218c0,0.393,0.044,0.742,0.044,1.136
					c0.043,0.742,2.053,0.961,3.626,0.961c1.267,0,2.446-0.48,2.49-1.923l0.219-9.392c0-0.263,0.175-0.568,0.35-0.655
					c1.485-0.132,1.66-0.219,3.102-0.219c0.437,0,0.874,0.087,0.874,0.611c0,1.791,0.044,3.407,0.044,4.937
					c0,5.68-0.35,9.349-3.451,10.354c-0.568,0.175-1.529,0-1.879,0.48v1.224c0,2.708,0.087,5.417,0.087,8.125
					c0,1.005,0,2.01-0.043,3.015c-0.087,0.263-0.35,0.568-0.655,0.568h-3.408l-0.437-0.438V60.475z"/>
			</g>
			<g>
				<path fill="#D94128" d="M7.084,23.624c0-0.33,0.329-0.521,0.604-0.521h1.621c0.604,0,0.714,0.521,0.714,1.098
					c0,0.248-0.027,0.522-0.027,0.715c0,2.005-0.247,12.579-0.274,14.611c0,0,0,0.027,0,0.083c0,0.22-0.027,0.687-0.247,0.687h-2.28
					c-0.22,0-0.329-0.412-0.329-0.604C6.864,33.209,7.084,28.815,7.084,23.624z"/>
				<path fill="#D94128" d="M12.522,27.551c-0.385,0-0.797-0.027-0.852-0.357c0.576-5.603,0.082-5.85,1.538-5.85
					c0.22,0,0.247,0.137,0.494,0.302l0.22,5.575v0.083c0,0.247-0.385,0.274-0.687,0.274L12.522,27.551z"/>
				<path fill="#D94128" d="M14.748,39.581c0.687-15.984,0.659-16.809,1.016-16.974c-0.055,0,0.715-0.055,1.264-0.055
					c0.906,0,2.197,0.138,2.362,0.769l1.676,6.043c1.62-6.784,1.675-6.784,2.608-6.784h0.221l1.813,0.165
					c0.412,0.055,0.687,1.126,0.687,1.428l1.099,14.997v0.741c-0.027,0.165-0.303,0.274-0.439,0.274h-1.978
					c-0.33-0.027-0.439-0.356-0.467-0.659c-0.165-3.131-0.11-0.852-0.687-11.398c-1.511,5.164-2.197,6.482-2.774,6.482
					c-0.385,0-0.714-0.027-0.852-0.138c-0.796-0.576-0.356-1.071-2.472-6.646c-0.055,0.577-0.055,2.664-0.055,4.999
					c0,3.625-0.027,7.827-0.522,7.827l-2.252-0.027c-0.274,0-0.274-0.439-0.274-0.714C14.748,39.856,14.748,39.581,14.748,39.581z"
					/>
			</g>
		</g>
	</g>
	<g>
		<path fill="#F2D8AA" d="M105.199,15.843c2.992,7.11-0.472,15.158-7.88,17.509c-16.331,5.191-33.139,8.763-50.169,10.663
			c-7.725,0.866-14.159-5.079-14.32-12.789l0,0c-0.162-7.725,5.093-14.253,11.685-14.996c14.907-1.666,29.618-4.792,43.912-9.334
			C94.752,4.896,102.208,8.721,105.199,15.843L105.199,15.843z"/>
		<g>
			<path fill="#F14B30" d="M104.864,11.453c1.084,2.581-0.304,5.553-3.125,6.563c-20.898,7.5-42.72,12.139-64.864,13.789
				c-2.987,0.222-5.463-1.929-5.524-4.728l0,0c-0.057-2.8,2.184-5.18,5.003-5.391c21.078-1.569,41.852-5.985,61.749-13.125
				C100.762,7.609,103.782,8.87,104.864,11.453L104.864,11.453z"/>
			<path fill="#D94128" d="M31.351,27.081c0.062,2.799,2.535,4.946,5.524,4.725c22.145-1.65,43.965-6.287,64.864-13.789
				c2.821-1.011,4.207-3.979,3.125-6.563C81.331,20.489,56.523,25.761,31.351,27.081z"/>
		</g>
		<g>
			<path fill="#FBA70E" d="M37.434,26.439c-0.51,0-0.949-0.386-1.003-0.905c-0.054-0.514,0.288-0.979,0.78-1.091
				c0.244-0.205,0.692-1.003,0.965-1.489c0.719-1.28,1.398-2.489,2.521-2.623c1.179-0.132,2.046,0.98,2.879,2.062
				c0.284,0.368,0.739,0.959,0.995,1.155c0.306-0.125,0.504-0.577,0.814-1.5c0.343-1.022,0.813-2.421,2.264-2.626
				c1.504-0.224,2.318,1.074,2.913,2.019c0.29,0.462,0.719,1.161,0.972,1.123c0.282-0.044,0.547-0.856,0.742-1.449
				c0.349-1.068,0.828-2.53,2.29-2.771c1.485-0.25,2.352,1.008,2.984,1.929c0.332,0.485,0.807,1.144,1.037,1.103
				c0.272-0.05,0.504-0.858,0.673-1.447c0.309-1.078,0.731-2.553,2.195-2.833c1.47-0.288,2.387,0.94,3.055,1.838
				c0.356,0.479,0.829,1.135,1.104,1.083c0.263-0.055,0.459-0.858,0.603-1.445c0.266-1.085,0.63-2.572,2.092-2.89
				c1.455-0.322,2.417,0.872,3.121,1.744c0.381,0.473,0.895,1.127,1.172,1.06c0.25-0.058,0.412-0.853,0.53-1.434
				c0.223-1.096,0.529-2.596,1.996-2.951c1.439-0.357,2.445,0.804,3.181,1.649c0.406,0.467,0.958,1.097,1.239,1.035
				c0.236-0.062,0.37-0.881,0.458-1.423c0.18-1.102,0.426-2.611,1.895-3.005c1.501-0.406,3.334,0.804,4.796,2.119
				c0.057-0.289,0.104-0.671,0.141-0.969c0.136-1.108,0.323-2.626,1.789-3.06c1.403-0.419,2.453,0.623,3.299,1.459
				c0.455,0.45,1.075,1.063,1.367,0.979c0.209-0.065,0.278-0.898,0.319-1.396c0.092-1.115,0.218-2.642,1.688-3.114
				c1.38-0.449,2.477,0.556,3.358,1.364c0.479,0.439,1.139,1.044,1.43,0.944c0.531-0.178,1.102,0.107,1.28,0.636
				c0.178,0.529-0.107,1.102-0.636,1.28c-1.423,0.477-2.543-0.547-3.44-1.372c-0.441-0.404-1.102-1.018-1.37-0.929
				c-0.188,0.061-0.26,0.936-0.295,1.356c-0.088,1.07-0.222,2.687-1.734,3.16c-1.449,0.449-2.569-0.663-3.387-1.472
				c-0.417-0.412-1.044-1.039-1.301-0.959c-0.198,0.059-0.303,0.911-0.359,1.369c-0.139,1.13-0.33,2.677-1.845,3.109
				c-0.352,0.104-0.774-0.041-1.034-0.298c-1.653-1.639-3.059-2.382-3.54-2.256c-0.208,0.056-0.349,0.917-0.425,1.379
				c-0.183,1.123-0.434,2.661-1.948,3.055c-1.491,0.383-2.516-0.802-3.268-1.665c-0.35-0.401-0.938-1.08-1.178-1.014
				c-0.223,0.054-0.393,0.891-0.495,1.392c-0.228,1.117-0.54,2.646-2.055,2.999c-1.502,0.342-2.485-0.872-3.201-1.76
				c-0.33-0.408-0.879-1.095-1.115-1.039c-0.232,0.051-0.438,0.894-0.562,1.397c-0.271,1.108-0.644,2.627-2.158,2.943
				c-1.522,0.308-2.453-0.941-3.133-1.855c-0.307-0.413-0.815-1.106-1.049-1.06c-0.247,0.047-0.491,0.897-0.636,1.405
				c-0.314,1.099-0.746,2.603-2.256,2.879c-1.536,0.273-2.42-1.01-3.063-1.949c-0.286-0.417-0.764-1.108-0.982-1.078
				c-0.257,0.042-0.525,0.863-0.703,1.406c-0.356,1.089-0.844,2.58-2.352,2.817c-1.549,0.244-2.388-1.08-2.994-2.043
				c-0.248-0.394-0.69-1.111-0.915-1.095c-0.219,0.031-0.469,0.776-0.635,1.269c-0.378,1.125-0.896,2.667-2.587,2.892
				c-1.122,0.145-1.907-0.876-2.74-1.958c-0.296-0.384-0.764-0.992-1.054-1.22c-0.283,0.291-0.713,1.056-0.983,1.538
				c-0.717,1.276-1.335,2.378-2.397,2.489C37.505,26.437,37.47,26.439,37.434,26.439z"/>
		</g>
		<path fill="#F2D8AA" d="M107.107,20.205c1.522,3.618-3.062,8.81-10.38,11.131c-16.231,5.158-32.931,8.707-49.854,10.597
			c-7.633,0.856-13.931-2.021-14.011-5.947l0,0c-0.083-3.938,5.612-7.414,12.666-8.209c15.843-1.77,31.474-5.091,46.667-9.92
			C98.963,15.713,105.581,16.572,107.107,20.205L107.107,20.205z"/>
		<path fill="#E39709" d="M107.92,22.202c1.521,3.618-3.117,8.833-10.507,11.175c-16.388,5.209-33.248,8.793-50.338,10.7
			c-7.703,0.865-14.063-2.011-14.144-5.937l0,0c-0.084-3.939,5.671-7.417,12.801-8.22c16.007-1.786,31.799-5.145,47.15-10.021
			C99.721,17.732,106.393,18.57,107.92,22.202L107.92,22.202z"/>
	</g>
</g>
</svg>
