<?xml version="1.0" encoding="utf-8"?>
<!-- Generator: Adobe Illustrator 16.0.0, SVG Export Plug-In . SVG Version: 6.00 Build 0)  -->
<!DOCTYPE svg PUBLIC "-//W3C//DTD SVG 1.1//EN" "http://www.w3.org/Graphics/SVG/1.1/DTD/svg11.dtd">
<svg version="1.1" id="Layer_1" xmlns="http://www.w3.org/2000/svg" xmlns:xlink="http://www.w3.org/1999/xlink" x="0px" y="0px"
	 width="156.267px" height="99.156px" viewBox="0 0 156.267 99.156" enable-background="new 0 0 156.267 99.156"
	 xml:space="preserve">
<g>
	<path fill="#999999" d="M4.401,77.739c0.001,0.003,0.002,0.005,0.003,0.007c0.245,0.659,0.489,1.318,0.734,1.978
		c2.331,5.897,6.611,10.761,11.614,13.839c5.324,6.631,19.449,7.562,33.635,1.742c6.542-2.685,12.064-6.384,16.035-10.42
		c0.445,0.046,0.896,0.082,1.361,0.082c0.379,0,0.755-0.032,1.123-0.096c3.852-0.161,5.99-2.063,7.072-3.513
		c1.617,1.392,3.674,2.173,5.979,2.173c0.712,0,1.689-0.073,3.965-0.585c0.663-0.094,1.427-0.024,2.227-0.391
		c1.845,1.596,3.754,2.262,5.213,2.262h0.169c2.273,0,4.307-0.96,5.958-2.203c1.788,0.948,3.956,1.337,6.596,1.337
		c0.553,0,1.141-0.135,1.75-0.135c0.059,0,0.117,0,0.176,0c2.742,0,4.846-0.567,6.476-1.329c1.756,0.891,3.867,1.361,6.428,1.361
		c0.553,0,1.141-0.032,1.75-0.032c0.059,0,0.117,0,0.176,0c3.103,0,5.393-0.706,7.096-1.639c1.141,1.371,3.258,2.944,6.986,2.944
		c0.23,0,0.462-0.027,0.691-0.051c3.721-0.387,9.963-1.97,9.963-8.176c0-0.678-0.076-1.431-0.44-3.135
		c0.033-0.263-0.042-0.581,0.008-0.951c0.041-0.3-0.056-0.604-0.056-0.905v-0.168c0-0.955,0.003-1.956-0.224-2.991
		c0.002-0.073,0.062-0.146,0.062-0.22c0-0.109,0.146-0.677,0.095-1.703l0.067-2.021v-0.093c0-0.026-0.123-0.28-0.021-1.071
		c0.037-0.284-0.014-0.57-0.014-0.856c0-0.498-0.08-1.018-0.203-1.818c0.087-0.543,0.089-1.096,0.04-1.645l-0.28-3.063l0.067-0.53
		c0.053-0.401,0.067-0.806,0.048-1.208c3.516-1.54,5.668-4.69,5.668-8.377c0-0.955-0.188-1.814-0.473-2.584
		c0.832-1.206,1.526-2.488,2.049-3.846c0.252-0.655,0.399-1.346,0.437-2.047c0.037-0.702,0.081-1.039,0.099-1.154
		c0.218-0.779,0.544-1.591,0.472-2.397c-0.033-0.389,0.112-1.573,0.112-2.254v-0.587c0-0.667-0.253-0.667-0.743-3.343l-0.164-0.21
		c-0.052-0.282-0.185-0.562-0.273-0.836c-0.537-1.675-0.758-2.539-0.823-2.905c-0.015-0.08-0.046-0.16-0.063-0.24
		c2.464-1.645,3.246-4.247,3.246-6.052c0-0.117-0.007-0.233-0.014-0.351c-0.143-2.727-0.394-4.458-0.839-5.788
		c-0.094-0.284-0.208-0.562-0.339-0.83c-3.708-7.561-9.136-8.689-12.04-8.689c-1.482,0-2.906,0.23-4.266,0.681
		C137.212,1.66,135.153,1,132.553,1c-2.042,0-4.027,0.306-5.901,0.907c-1.333,0.429-2.498,1.264-3.33,2.39
		c-0.88,1.189-1.491,2.46-1.848,3.775c-0.022-0.001-0.046-0.002-0.067-0.002c-0.809-1.377-2.025-2.549-3.61-3.4
		c-0.874-0.47-1.842-0.739-2.834-0.788c-1.154-0.058-2.373-0.152-3.725-0.289c-0.224-0.022-0.449-0.034-0.674-0.034
		c-0.308,0-0.61,0.013-0.905,0.037c-0.668-0.112-1.514-0.223-2.609-0.324c-0.206-0.019-0.412-0.028-0.616-0.028
		c-0.36,0-0.718,0.029-1.069,0.086c-0.455,0.012-0.904,0.019-1.348,0.123c-0.952-0.357-2.029-0.634-3.24-0.634h-0.168
		c-0.87,0-1.678,0.177-2.421,0.396C97.532,3.379,96.71,3.7,95.862,4.192c-0.475-0.271-0.985-0.55-1.528-0.731
		c-1.217-0.405-2.607-0.644-4.377-0.644h-1.174c-0.534,0-1.066,0.13-1.585,0.257c-1.255,0.307-2.368,0.858-3.306,1.543
		c-0.957-0.26-1.969-0.385-3.033-0.385c-2.104,0-4.17,0.366-6.146,1.075c-0.737,0.219-1.434,0.564-2.103,0.984
		c-1.253-1.702-3.533-3.369-7.717-3.757c-0.207-0.019-0.412-0.028-0.617-0.028c-0.098,0-0.196,0.156-0.293,0.161
		c-0.099-0.005-0.196,0.148-0.294,0.148c-0.042,0-0.419,0-0.419,0c-0.732,0-1.459-0.034-2.152,0.203
		c-5.604,1.906-6.209,5.921-6.209,7.593c0,0.262,0.015,0.465,0.039,0.695c-0.108,0.824-0.168,1.739-0.24,2.837
		c-0.416,2.241-0.62,4.565-0.62,6.957v0.42c0,0.676,0.037,1.34,0.113,2.009c-0.078,0.705-0.113,1.154-0.113,1.597
		c0,0.035,0,0.071,0,0.106c0,0.51,0,1.059,0,1.655v1.174c0,0.674-0.022,1.275,0.034,1.822c-0.002,0.597-0.039,0.85-0.044,0.937
		c-0.071,0.507-0.097,1.021-0.05,1.531c0.023,0.272,0.034,0.482,0.045,0.629c-0.068,2.084-0.082,3.427-0.082,4.055
		c0,1.158,0.208,2.402,0.68,4.034c0.217,0.752,0.563,1.46,1.026,2.092c0.315,0.433,0.673,0.824,1.053,1.194
		c-0.092,0.166-0.188,0.324-0.274,0.501c-4.876-9.643-14.788-15.915-25.695-16.074c0.067-2.248-1.508-4.263-3.791-4.656
		l-0.093-0.017c-2.498-0.432-4.873,1.245-5.305,3.742l-0.118,0.688l-0.688-0.117c-2.497-0.433-4.871,1.245-5.303,3.742l-0.016,0.093
		c-0.029,0.172-0.025,0.34-0.036,0.51c-0.461,0.285-0.902,0.59-1.33,0.904C4.538,40.029-0.783,51.715,1.543,63.689
		c0.234,1.209,0.549,2.381,0.92,3.522c-0.803,0.681-1.221,1.32-1.197,1.896c-0.028-0.016-0.059-0.028-0.086-0.044
		C2.254,71.953,3.327,74.847,4.401,77.739z"/>
	<ellipse fill="#FFFFFF" cx="119.992" cy="29.974" rx="18.143" ry="22.917"/>
	
		<ellipse transform="matrix(-0.9252 0.3796 -0.3796 -0.9252 112.2764 134.667)" fill="#FFFFFF" cx="42.863" cy="78.402" rx="30.874" ry="17.189"/>
	<g>
		<g>
			<g>
				<path fill="#FFFFFF" d="M66.701,83.966c-4.418,0-8.043-2.101-9.897-5.674c-0.842-1.196-1.465-2.481-1.863-3.84
					c-0.662-1.349-1.006-2.828-1.006-4.349V69.51c0-3.239,1.602-5.879,4.133-7.255c-0.005-0.015-0.01-0.03-0.014-0.044
					c-1.706-2.893-2.72-5.438-3.088-7.747c-0.523-2.562-0.608-3.218-0.608-3.96v-0.93c0-0.11,0.002-0.221,0.007-0.331
					c-0.023-0.216-0.046-0.449-0.067-0.702c-0.067-0.777,0.003-1.561,0.207-2.314c0.94-3.481,2.868-5.441,4.451-6.509
					c2.497-1.875,5.3-2.826,8.338-2.826c2.915,0,8.361,1.133,12.083,8.724c0.132,0.269,0.245,0.546,0.34,0.83
					c0.445,1.335,0.696,3.075,0.841,5.817c0.006,0.117,0.009,0.234,0.009,0.351c0,1.812-0.797,4.428-3.284,6.074
					c0.02,0.091,0.039,0.183,0.055,0.275c0.065,0.367,0.256,1.237,0.799,2.934c0.087,0.272,0.157,0.549,0.208,0.83l0.019,0.099
					c0.514,2.803,0.514,2.803,0.514,3.473v0.592c0,0.68,0.107,1.883,0.143,2.278c0.072,0.806-0.003,1.617-0.221,2.395
					c-0.018,0.116-0.063,0.457-0.1,1.169c-0.037,0.702-0.184,1.393-0.437,2.048c-0.767,1.994-1.877,3.841-3.305,5.499
					c-1.063,1.458-3.214,3.425-7.132,3.589C67.455,83.934,67.08,83.966,66.701,83.966z"/>
				<path fill="#FFFFFF" d="M92.28,83.29c-1.459,0-3.369-0.403-5.213-1.999c-0.8,0.368-1.563,0.561-2.227,0.655
					c-2.274,0.511-3.252,0.584-3.964,0.584c-4.405,0-7.912-2.826-9.152-7.376c-0.415-1.587-0.997-4.61-1.483-13.306
					c-0.317-3.107-0.538-8.156-0.694-15.856c-0.001-0.045-0.001-0.09-0.001-0.135c0-4.456,3.823-6.409,5.079-7.05
					c0.941-0.481,1.983-0.731,3.041-0.731h0.254c4.425,0,7.463,1.507,9.031,4.482c0.224,0.419,0.454,0.91,0.689,1.562
					c1.357-2.248,3.475-3.643,5.945-3.893c0.561-0.084,1.153-0.124,1.821-0.124h1.014c3.124,0,6.792,2.14,7.462,6.837
					c0.062,0.436,0.081,0.875,0.057,1.313c0.191,1.041,0.342,2.397,0.496,4.339c0.014,0.176,0.021,0.353,0.021,0.529
					c0,0.792-0.022,1.614-0.067,2.45c0.045,0.623,0.067,1.263,0.067,1.942c0,0.368-0.03,0.734-0.09,1.097l-0.089,0.535
					c0.062,0.512,0.095,0.917,0.095,1.326c0,0.579-0.075,1.154-0.223,1.713c-0.058,0.294-0.29,1.739-0.634,7.236
					c-0.035,0.55-0.137,1.094-0.305,1.619c-0.418,1.306-0.795,2.848-1.153,4.714c-0.076,0.395-0.187,0.782-0.333,1.157
					c-1.549,3.994-5.016,6.378-9.273,6.378H92.28z"/>
				<path fill="#FFFFFF" d="M105.001,82.763c-3.036,0-5.449-0.612-7.375-1.87c-1.471-0.96-2.504-2.46-2.877-4.175
					c-0.717-3.294-1.081-6.565-1.081-9.721c0-0.767,0.038-1.653,0.118-2.742c-0.092-0.599-0.185-1.394-0.268-2.468
					c-0.029-0.374-0.026-0.75,0.008-1.124l0.104-1.126c-0.055-0.671-0.086-1.485-0.127-2.549c-0.01-0.257-0.004-0.515,0.016-0.771
					l0.325-4.193c-0.062-0.404-0.091-0.797-0.091-1.182c0,0,0.002-0.581,0.007-0.711c-0.113-0.674-0.123-1.366-0.024-2.052
					c0.01-0.068,0.017-0.128,0.018-0.177v-1.664c0-1.997,0.801-5.644,6.164-7.623c0.69-0.255,1.418-0.394,2.154-0.412
					c0.352-0.057,0.708-0.085,1.068-0.085c0.204,0,0.408,0.009,0.612,0.028c1.106,0.102,1.959,0.212,2.633,0.326
					c0.298-0.025,0.604-0.037,0.915-0.037c0.226,0,0.452,0.011,0.677,0.034c1.361,0.139,2.587,0.234,3.749,0.291
					c0.994,0.049,1.964,0.319,2.84,0.791c3.012,1.622,4.739,4.375,4.739,7.553c0,1.025-0.236,2.037-0.689,2.957
					c-0.508,1.03-1.158,1.94-1.93,2.721c0.65,1.158,0.993,2.453,0.993,3.805c0,0.899-0.181,1.789-0.533,2.617
					c-0.869,2.042-2.352,3.581-4.222,4.469c0.158,0.684,0.209,1.392,0.146,2.098l-0.058,0.657v0.04
					c3.971,1.04,5.808,4.26,5.808,7.29c0,0.772-0.133,1.538-0.395,2.264c-0.898,2.496-3.587,6.684-11.497,6.684
					c-0.059,0-0.117,0-0.176,0C106.142,82.743,105.555,82.763,105.001,82.763z"/>
				<path fill="#FFFFFF" d="M119.831,82.763c-3.037,0-5.45-0.612-7.377-1.871c-1.468-0.959-2.5-2.457-2.874-4.17
					c-0.719-3.292-1.083-6.564-1.083-9.725c0-0.767,0.038-1.653,0.118-2.742c-0.092-0.599-0.185-1.394-0.268-2.468
					c-0.029-0.374-0.026-0.75,0.008-1.124l0.104-1.126c-0.055-0.671-0.086-1.485-0.127-2.549c-0.01-0.257-0.004-0.515,0.016-0.771
					l0.324-4.185c-0.062-0.405-0.091-0.797-0.091-1.19c0,0,0.002-0.584,0.007-0.716c-0.112-0.673-0.122-1.363-0.023-2.048
					c0.016-0.11,0.017-0.173,0.017-0.173v-1.667c0-1.997,0.801-5.643,6.166-7.623c0.69-0.255,1.418-0.394,2.153-0.411
					c0.352-0.057,0.708-0.086,1.068-0.086c0.204,0,0.408,0.009,0.612,0.028c1.052,0.097,1.914,0.201,2.643,0.325
					c0.296-0.024,0.598-0.037,0.907-0.037c0.226,0,0.452,0.011,0.677,0.034c1.361,0.139,2.587,0.234,3.749,0.291
					c0.994,0.049,1.964,0.319,2.84,0.791c3.012,1.622,4.739,4.375,4.739,7.553c0,1.025-0.236,2.037-0.689,2.957
					c-0.508,1.03-1.158,1.94-1.93,2.721c0.65,1.158,0.993,2.453,0.993,3.805c0,0.899-0.181,1.789-0.533,2.617
					c-0.869,2.042-2.352,3.581-4.222,4.469c0.158,0.684,0.209,1.392,0.146,2.098l-0.058,0.657v0.04
					c3.971,1.04,5.808,4.26,5.808,7.29c0,0.772-0.133,1.538-0.395,2.264c-0.898,2.496-3.587,6.684-11.497,6.684
					c-0.059,0-0.117,0-0.176,0C120.971,82.743,120.384,82.763,119.831,82.763z"/>
				<path fill="#FFFFFF" d="M135.838,84.093c-4.46,0-6.636-2.296-7.563-3.74c-1.503-2.318-2.121-5.633-2.161-11.673
					c-0.057-0.416-0.087-0.856-0.087-1.323c0-0.138,0.004-0.276,0.013-0.415c0.02-0.323,0.051-0.631,0.092-0.926
					c-0.014-0.173-0.02-0.346-0.02-0.519v-1.604c0-0.812-0.072-1.233-0.104-1.377c-0.155-0.72-0.191-1.461-0.105-2.192l0.077-0.651
					c-0.172-1.607-0.32-3.832-0.444-6.719c-0.338-0.172-0.663-0.375-0.97-0.604c-2.024-1.515-3.185-3.773-3.185-6.196
					c0-0.171,0.006-0.342,0.02-0.512c0.348-4.525,3.545-7.844,7.866-8.263c2.117-0.366,4.025-0.605,5.793-0.724
					c0.467-0.094,0.953-0.143,1.453-0.143c0.214,0,0.428,0.009,0.64,0.027c0.299-0.019,0.591-0.027,0.879-0.027h0.295
					c0.35-0.056,0.703-0.084,1.056-0.084c0.334,0,0.667,0.025,0.999,0.075c1.481,0.224,3.012,0.45,4.027,0.547
					c1.704,0.162,3.281,0.972,4.406,2.262c1.069,1.227,2.491,3.166,2.491,5.828c0,3.686-2.152,6.836-5.668,8.377
					c0.02,0.402,0.003,0.807-0.051,1.208l-0.071,0.531l0.272,3.062c0.049,0.549,0.029,1.101-0.057,1.645
					c0.123,0.801,0.168,1.32,0.168,1.818c0,0.286-0.018,0.572-0.055,0.856c-0.103,0.792-0.115,1.045-0.116,1.071l0,0.093
					l0.099,2.021c0.051,1.025,0.072,1.593,0.072,1.703c0,0.073-0.001,0.146-0.003,0.22c0.227,1.035,0.341,2.037,0.341,2.991v0.168
					c0,0.302-0.021,0.604-0.061,0.903c-0.051,0.37-0.093,0.687-0.125,0.949c0.363,1.705,0.439,2.455,0.439,3.132
					c0,2.664-1.294,7.268-9.963,8.169C136.3,84.081,136.069,84.093,135.838,84.093z"/>
			</g>
			<g>
				<path fill="#FFFFFF" d="M65.627,46.662c-5.125,0-8.83-1.514-11.014-4.5c-0.462-0.632-0.81-1.339-1.027-2.091
					c-0.471-1.632-0.681-2.876-0.681-4.035c0-0.627,0.01-1.97,0.078-4.055c-0.01-0.146-0.027-0.356-0.051-0.628
					c-0.046-0.511-0.033-1.024,0.038-1.532c0.006-0.087,0.018-0.34,0.019-0.936c-0.057-0.548-0.083-1.149-0.083-1.823v-1.174
					c0-0.597,0.027-1.146,0.084-1.655c0-0.036,0-0.071,0-0.106c0-0.443,0.035-0.891,0.113-1.597
					c-0.076-0.669-0.113-1.333-0.113-2.009v-0.42c0-2.391,0.211-4.736,0.628-6.976c0.072-1.099,0.139-2.032,0.248-2.855
					c-0.025-0.231-0.039-0.473-0.039-0.735c0-1.671,0.605-5.764,6.209-7.67c0.693-0.236,1.42-0.356,2.152-0.356c0,0,0.376,0,0.419,0
					c0.098,0,0.196,0.002,0.293,0.007c0.098-0.004,0.195-0.006,0.293-0.006c0.206,0,0.411,0.009,0.617,0.028
					c7.784,0.721,9.014,5.874,9.206,7.436c0.008,0.066,0.524,5.65,0.524,5.65c0.019,0.204,0.028,0.409,0.028,0.614v1.342
					c0,1.219-0.096,2.636-0.285,4.22c0.082,0.748,0.117,1.317,0.117,1.818v3.103c0,0.522-0.015,1.012-0.046,1.479
					c0.036,0.46,0.046,0.939,0.046,1.457c0,0.416-0.021,0.901-0.238,2.346c0.707,0.408,1.338,0.945,1.859,1.591
					c1.429,1.771,2.153,3.691,2.153,5.707c0,2.768-1.631,5.912-5.241,7.198c-1.424,0.709-3.003,1.08-4.63,1.08
					c0,0-0.459,0-0.522-0.002c-0.199,0.026-0.391,0.045-0.574,0.062C66.015,46.654,65.821,46.662,65.627,46.662z"/>
				<path fill="#FFFFFF" d="M80.616,45.299c-0.601,0-1.266-0.063-2.097-0.206c-0.832,0.143-1.496,0.206-2.096,0.206h-0.335
					c-1.611,0-6.926-0.524-9.28-7.101c-0.79-1.628-1.421-3.684-1.968-6.396c-0.055-0.273-0.093-0.55-0.114-0.828
					c-0.108-0.608-0.132-1.234-0.066-1.862l0.109-1.041c-0.041-0.754-0.062-1.521-0.062-2.288v-0.335c0-1.434,0-3.17,0.358-4.827
					c0.071-0.975,0.308-2.177,0.802-4.099c0.165-1.311,0.664-3.169,1.978-6.942c0.265-0.759,0.664-1.465,1.179-2.082
					c1.334-1.6,2.881-2.668,4.607-3.182c1.975-0.708,4.041-1.066,6.146-1.066c5.173,0,9.203,3.172,10.849,8.511
					c0.915,2.333,1.425,4.796,1.522,7.341c0.065,0.417,0.1,0.855,0.1,1.314c0,0.496-0.039,0.939-0.22,1.887
					c0.202,1.429,0.304,2.96,0.304,4.571v0.168c0,1.479-0.172,3.245-0.525,5.385c-0.122,1.924-0.753,3.902-1.882,5.901
					c-0.665,2.047-1.791,3.476-3.078,4.412C85.289,44.365,83.093,45.299,80.616,45.299z"/>
				<path fill="#FFFFFF" d="M92.732,47.186c-1.682,0-5.715-0.561-8.108-5.556c-0.947-1.473-1.549-3.222-1.827-5.308
					c-1.154-4.32-1.786-7.756-1.921-10.446c-0.036-0.168-0.068-0.341-0.096-0.52c-0.079-0.501-0.148-1.126-0.219-1.965
					c-0.11-1.297-0.225-3.141-0.34-5.487c-0.113-0.558-0.186-1.17-0.207-1.844c-0.002-0.071-0.003-1.54-0.003-1.54
					c-0.01-0.103-0.045-0.415-0.157-1.074c-0.098-0.573-0.12-1.156-0.067-1.734c0.001-0.013,0.002-0.026,0.003-0.04
					c-0.127-0.581-0.198-1.098-0.198-1.697c0-3.792,2.561-6.868,6.525-7.835c0.519-0.126,1.051-0.19,1.585-0.19h1.174
					c2.588,0,4.486,0.52,5.879,1.291c0.857-0.502,1.689-0.793,2.35-0.961c0.743-0.219,1.551-0.329,2.421-0.329h0.168
					c5.321,0,8.192,3.919,8.192,7.607v0.754c0,0.445-0.044,0.89-0.133,1.326c-0.129,0.638-0.254,1.209-0.386,1.727
					c0.061,0.292,0.108,0.594,0.144,0.909c0.027,0.244,0.04,0.489,0.04,0.734v0.671c0,1.215-0.16,2.898-0.502,5.268v1.358
					c0,0.809-0.1,1.633-0.671,4.168c0,0.036,0,0.36,0,0.36c0,0.261-0.015,0.522-0.046,0.782c-0.133,1.133-0.265,2.071-0.434,2.881
					c0.041,0.356,0.06,0.625,0.06,0.949c0,0.669-0.1,1.334-0.297,1.973c-0.293,0.947-0.478,2.123-0.549,3.493
					c-0.02,0.374-0.071,0.745-0.152,1.109c-0.438,1.955-1.305,4.761-3.774,6.551c-0.059,0.042-0.118,0.084-0.178,0.125
					c-1.582,1.07-3.715,1.806-6.918,2.384c-0.392,0.071-0.79,0.106-1.188,0.106H92.732z"/>
				<path fill="#FFFFFF" d="M107.194,46.663c-3.021,0-5.423-0.61-7.344-1.864c-1.47-0.96-2.503-2.459-2.876-4.174
					c-0.713-3.274-1.075-6.525-1.075-9.662c0-0.763,0.037-1.643,0.117-2.72c-0.091-0.596-0.184-1.385-0.265-2.451
					c-0.029-0.374-0.026-0.75,0.008-1.124l0.102-1.108c-0.055-0.669-0.085-1.479-0.125-2.535c-0.01-0.256-0.004-0.513,0.016-0.769
					l0.322-4.153c-0.061-0.403-0.091-0.794-0.091-1.179c0,0,0.002-0.579,0.007-0.709c-0.111-0.668-0.12-1.354-0.024-2.033
					c0.01-0.068,0.016-0.127,0.017-0.175v-1.654c0-1.997,0.799-5.641,6.155-7.614c0.688-0.253,1.411-0.392,2.143-0.41
					c0.352-0.057,0.709-0.086,1.069-0.086c0.205,0,0.411,0.01,0.616,0.029c1.096,0.101,1.941,0.211,2.61,0.324
					c0.295-0.024,0.597-0.037,0.905-0.037c0.225,0,0.45,0.011,0.673,0.034c1.352,0.137,2.571,0.231,3.725,0.289
					c0.992,0.049,1.96,0.319,2.834,0.789c3.009,1.618,4.735,4.367,4.735,7.543c0,1.026-0.236,2.038-0.69,2.958
					c-0.501,1.015-1.14,1.914-1.899,2.686c0.638,1.148,0.975,2.431,0.975,3.769c0,0.898-0.181,1.787-0.532,2.614
					c-0.861,2.027-2.33,3.559-4.181,4.447c0.152,0.673,0.199,1.37,0.138,2.064l-0.058,0.645c3.941,1.048,5.765,4.256,5.765,7.274
					c0,0.772-0.134,1.539-0.396,2.266c-0.896,2.489-3.578,6.666-11.457,6.666c-0.058,0-0.116,0-0.174,0
					C108.331,46.642,107.746,46.663,107.194,46.663z"/>
				<path fill="#FFFFFF" d="M129.625,48.004c-3.583,0-5.927-1.722-7.201-3.755c-1.117-1.485-1.703-3.436-1.746-5.829l-0.486-6.406
					c-0.013-0.168-0.019-0.337-0.019-0.506c0-0.525,0.041-1.228,0.155-2.831l-0.146-2.771c-0.015-0.269-0.012-0.539,0.006-0.808
					c0.112-1.644,0.322-3.583,0.602-5.98c0.037-0.494,0.054-1.091,0.054-1.866v-0.755c0-0.585,0.078-1.49,0.445-2.501
					c-0.388-0.733-0.654-1.495-0.809-2.243c-0.021-0.102-0.04-0.203-0.056-0.306L120.193,10c-0.135-0.846-0.105-1.711,0.086-2.546
					c0.333-1.453,0.992-2.852,1.958-4.158c0.833-1.125,1.997-1.961,3.33-2.389C127.441,0.305,129.427,0,131.469,0
					c6.84,0,9.955,4.552,9.955,8.781c0,1.913-0.589,3.728-1.756,5.423c0.218,0.541,0.391,1.112,0.515,1.712
					c0.389,1.67,0.57,2.976,0.57,4.102c0,0.324-0.021,0.631-0.059,0.924c0.039,0.355,0.059,0.718,0.059,1.088v0.42
					c0,0.807-0.084,1.606-0.251,2.389v0.294c0,0.527-0.041,1.251-0.233,3.105c0.021,0.18,0.063,0.506,0.146,1.015
					c0.105,0.642,0.116,1.296,0.032,1.941c-0.067,0.513-0.152,1.169-0.299,1.887l0.572,5.727c0.022,0.221,0.033,0.443,0.033,0.665
					v0.42c0,3.093-2.023,6.479-6.514,7.463c-1.247,0.435-2.63,0.647-4.196,0.647H129.625z"/>
				<path fill="#FFFFFF" d="M141.364,47.856c-4.403,0-8.018-2.094-9.868-5.656c-0.836-1.189-1.457-2.468-1.853-3.819
					c-0.659-1.345-1.001-2.819-1.001-4.336v-0.587c0-3.22,1.584-5.848,4.092-7.227v0c-1.694-2.875-2.702-5.404-3.068-7.701
					c-0.521-2.546-0.605-3.2-0.605-3.941v-0.923c0-0.11,0.002-0.22,0.007-0.33c-0.023-0.219-0.045-0.45-0.066-0.696
					c-0.066-0.775,0.004-1.557,0.207-2.309c0.936-3.47,2.858-5.424,4.438-6.489c2.487-1.869,5.279-2.815,8.305-2.815
					c2.905,0,8.332,1.129,12.04,8.689c0.132,0.269,0.245,0.545,0.34,0.829c0.443,1.331,0.694,3.062,0.837,5.789
					c0.006,0.117,0.009,0.233,0.009,0.35c0,1.805-0.79,4.407-3.253,6.052c0.017,0.08,0.033,0.16,0.047,0.24
					c0.065,0.366,0.255,1.23,0.792,2.905c0.088,0.274,0.158,0.553,0.21,0.836l0.038,0.21c0.49,2.675,0.49,2.675,0.49,3.342v0.587
					c0,0.681,0.106,1.865,0.142,2.254c0.072,0.806-0.002,1.619-0.22,2.397c-0.018,0.116-0.061,0.453-0.099,1.155
					c-0.037,0.701-0.185,1.392-0.437,2.047c-0.764,1.983-1.868,3.821-3.288,5.47c-1.062,1.456-3.208,3.418-7.117,3.583
					C142.114,47.825,141.741,47.856,141.364,47.856z"/>
			</g>
		</g>
		<g>
			<g>
				<path fill="#EF6159" d="M73.375,48.561c0.232,0.697,0.401,2.049,0.507,4.055c0,0.612-0.845,0.93-2.534,0.93
					c-1.119-0.232-1.858-0.57-2.196-1.014c-0.232-0.38-0.507-1.226-0.845-2.534c-1.077-1.415-1.88-2.112-2.365-2.112v0.592
					c0,0.802,0.316,2.048,0.929,3.717c1.816,3.146,3.104,5.786,3.886,7.94c0.169,0.95,0.507,2.217,1.014,3.801
					c0.275,1.5,0.423,2.302,0.423,2.365v0.592c0,0.739,0.063,1.689,0.169,2.872c-0.169,0.549-0.274,1.415-0.338,2.618
					c-0.528,1.373-1.31,2.64-2.365,3.802c-0.359,0.676-1.141,1.014-2.365,1.014c-0.316,0-0.528,0.021-0.592,0.084
					c-2.111,0-3.484-0.823-4.139-2.449c-0.697-0.866-1.162-1.838-1.352-2.872c-0.401-0.57-0.592-1.204-0.592-1.858V69.51
					c0-1.077,0.57-1.604,1.689-1.604c0-0.105,0.19-0.148,0.592-0.169c1.267,0,2.26,1.077,2.956,3.21
					c0.381,1.415,0.739,2.26,1.099,2.534h0.084c0.169-0.972,0.275-1.816,0.338-2.534c-0.147-2.112-0.443-3.717-0.845-4.815v-1.014
					c-0.316-0.189-0.633-1.014-0.929-2.449c-0.739-1.246-1.183-2.302-1.352-3.126c-1.563-2.513-2.471-4.604-2.703-6.251
					c-0.338-1.647-0.507-2.576-0.507-2.787v-0.93c0-0.126,0.021-0.232,0.084-0.338c-0.042-0.105-0.105-0.527-0.169-1.267
					c0.359-1.331,0.993-2.26,1.858-2.788c1.373-1.077,2.852-1.604,4.478-1.604C69.721,43.578,71.749,45.246,73.375,48.561z"/>
				<path fill="#EF6159" d="M77.919,44.76c1.773,0,2.809,0.316,3.125,0.929c0.57,1.057,1.141,3.59,1.689,7.603
					c0,0.845,0.063,1.795,0.169,2.872v0.676c0,0.127-0.021,0.232-0.084,0.338c0.232,0.443,0.338,0.845,0.338,1.183
					c-0.042,0.781-0.105,1.183-0.169,1.183c0.169,0,0.316,1.626,0.422,4.899c0.063,0,0.169,0.739,0.338,2.196h0.085
					c0.57-2.386,1.034-4.92,1.436-7.603c0-0.57,0.993-1.098,2.957-1.604h0.676c0.696,0,1.499,1.837,2.365,5.49
					c0.105,0.127,0.296,0.781,0.591,1.943h0.085v-1.014c0.169-1.542,0.274-3.295,0.338-5.237c-0.063-0.19-0.085-0.486-0.085-0.845
					c0.401-4.034,0.592-6.356,0.592-6.927c0.232-0.507,0.338-1.246,0.338-2.196v-0.592c0.316-0.781,0.739-1.183,1.267-1.183
					c0.296-0.063,0.634-0.084,1.014-0.084h1.014c0.465,0,0.739,0.358,0.845,1.098c-0.063,0.486-0.084,0.781-0.084,0.845
					c0.211,0.528,0.401,2.007,0.591,4.393c0,0.697-0.021,1.542-0.084,2.534c0.063,0.655,0.084,1.268,0.084,1.858l-0.253,1.521
					c0.105,0.761,0.169,1.246,0.169,1.437c-0.274,0.971-0.55,3.822-0.845,8.531c-0.507,1.584-0.95,3.4-1.352,5.491
					c-0.549,1.415-1.563,2.111-3.041,2.111H92.28c-0.55,0-1.141-0.507-1.774-1.521c-1.183,0-2.006-0.95-2.449-2.872
					c-0.169-0.718-0.401-2.006-0.676-3.886c-0.19,0-0.359,0.761-0.507,2.281c-0.423,0.654-0.845,1.731-1.268,3.21
					c-0.612,1.014-1.246,1.521-1.858,1.521c-1.457,0.338-2.429,0.507-2.872,0.507c-1.372,0-2.26-0.824-2.703-2.45
					c-0.507-1.942-0.929-5.977-1.267-12.079c-0.317-2.999-0.528-8.151-0.676-15.459c0-0.232,0.485-0.612,1.436-1.098H77.919z"/>
				<path fill="#EF6159" d="M106.243,45.288c0.232-0.105,0.592-0.169,1.057-0.169c1.457,0.148,2.809,0.254,4.097,0.317
					c0.823,0.443,1.225,0.992,1.225,1.668c-0.739,1.499-2.218,2.238-4.413,2.238h-0.993l-0.401,0.085v-0.085l-0.169,0.085
					c-0.105-0.063-0.211-0.085-0.316-0.085c-0.169,0.423-0.254,0.824-0.254,1.183v0.169c0,0.423,0.021,0.972,0.085,1.669
					l-0.401,1.119c0.085,0.781,0.19,1.183,0.316,1.183c0.127,0,0.528-0.021,1.226-0.085c2.133,0.486,3.188,0.845,3.188,1.035
					c0.338,0.296,0.507,0.612,0.507,0.972c-0.359,0.845-1.035,1.267-2.049,1.267c-0.169,0-0.992,0.274-2.471,0.803h-0.316
					l0.084,0.147c0,0.148-0.021,0.232-0.084,0.232c0.063,0.634,0.084,1.077,0.084,1.352v1.204c0,0.359-0.063,1.183-0.169,2.471
					c0.063,0.422,0.169,0.803,0.338,1.119l-0.084,0.95v0.781c0,1.985,0.105,3.358,0.316,4.14c-0.063,0.549-0.084,0.972-0.084,1.288
					v0.147c0,0.317,0.189,0.486,0.57,0.486c0.992,0,2.006-0.063,3.041-0.169c1.309,0,1.964,0.316,1.964,0.95
					c-0.57,1.584-2.429,2.323-5.575,2.26c-2.492,0.189-4.245-0.043-5.28-0.719c-0.611-2.809-0.928-5.574-0.928-8.299
					c0-0.845,0.063-1.88,0.169-3.104c-0.105-0.38-0.232-1.246-0.338-2.618l0.169-1.838c-0.063-0.127-0.105-1.035-0.169-2.703
					l0.401-5.174c-0.105-0.338-0.147-0.57-0.147-0.718v-0.317c0-0.253,0.021-0.507,0.084-0.781
					c-0.063-0.358-0.105-0.612-0.169-0.718c0.063-0.443,0.085-0.823,0.085-1.119v-1.669c0-0.443,0.59-0.907,1.794-1.352
					c0.612,0,0.908-0.021,0.908-0.084C104.744,44.95,105.779,45.119,106.243,45.288z"/>
				<path fill="#EF6159" d="M121.072,45.288c0.232-0.105,0.592-0.169,1.057-0.169c1.457,0.148,2.809,0.254,4.097,0.317
					c0.823,0.443,1.225,0.992,1.225,1.668c-0.739,1.499-2.217,2.238-4.414,2.238h-0.992l-0.401,0.085v-0.085l-0.169,0.085
					c-0.105-0.063-0.211-0.085-0.316-0.085c-0.169,0.423-0.254,0.824-0.254,1.183v0.169c0,0.423,0.021,0.972,0.085,1.669
					l-0.401,1.119c0.084,0.781,0.19,1.183,0.316,1.183c0.127,0,0.528-0.021,1.226-0.085c2.133,0.486,3.188,0.845,3.188,1.035
					c0.338,0.296,0.507,0.612,0.507,0.972c-0.359,0.845-1.035,1.267-2.049,1.267c-0.169,0-0.992,0.274-2.471,0.803h-0.316
					l0.084,0.147c0,0.148-0.021,0.232-0.084,0.232c0.063,0.634,0.084,1.077,0.084,1.352v1.204c0,0.359-0.063,1.183-0.169,2.471
					c0.063,0.422,0.169,0.803,0.338,1.119l-0.084,0.95v0.781c0,1.985,0.105,3.358,0.316,4.14c-0.063,0.549-0.084,0.972-0.084,1.288
					v0.147c0,0.317,0.189,0.486,0.57,0.486c0.992,0,2.006-0.063,3.041-0.169c1.309,0,1.964,0.316,1.964,0.95
					c-0.57,1.584-2.429,2.323-5.575,2.26c-2.492,0.189-4.245-0.043-5.279-0.719c-0.613-2.809-0.93-5.574-0.93-8.299
					c0-0.845,0.063-1.88,0.169-3.104c-0.105-0.38-0.232-1.246-0.338-2.618l0.169-1.838c-0.063-0.127-0.105-1.035-0.169-2.703
					l0.401-5.174c-0.105-0.338-0.148-0.57-0.148-0.718v-0.317c0-0.253,0.021-0.507,0.085-0.781
					c-0.063-0.358-0.105-0.612-0.169-0.718c0.063-0.443,0.084-0.823,0.084-1.119v-1.669c0-0.443,0.592-0.907,1.796-1.352
					c0.612,0,0.907-0.021,0.907-0.084C119.573,44.95,120.608,45.119,121.072,45.288z"/>
				<path fill="#EF6159" d="M139.385,43.113c1.816,0.274,3.273,0.485,4.393,0.592c0.57,0.654,0.846,1.14,0.846,1.436
					c0,1.119-0.655,1.9-1.943,2.365c-0.739,0.232-1.436,0.338-2.111,0.338h-2.365c-0.063,0.316-0.085,0.528-0.085,0.676
					c0.401,1.711,0.591,2.725,0.591,3.041c-0.063,0.443-0.147,0.781-0.253,1.014c0.232,0.401,0.401,0.823,0.507,1.268l-0.169,1.267
					l0.338,3.802c-0.105,0.569-0.169,0.929-0.169,1.098c0.169,0.95,0.254,1.542,0.254,1.773c-0.106,0.824-0.17,1.458-0.17,1.859
					v0.338c0.106,2.217,0.17,3.399,0.17,3.547l-0.085,0.761c0.274,0.887,0.423,1.711,0.423,2.45v0.168
					c-0.17,1.246-0.254,2.007-0.254,2.281c0.338,1.479,0.507,2.387,0.507,2.703c0,0.739-1.33,1.246-3.97,1.521
					c-1.035,0-1.669-0.232-1.943-0.676c-0.739-1.119-1.098-4.033-1.098-8.7c-0.063,0-0.085-0.232-0.085-0.676
					c0.042-0.676,0.105-1.014,0.169-1.014l-0.084-0.846v-1.604c0-1.077-0.085-2.006-0.254-2.788l0.169-1.436
					c-0.274-2.049-0.507-6.104-0.676-12.164c-0.507-0.105-1.668-0.274-3.464-0.507c-0.338-0.253-0.506-0.528-0.506-0.845
					c0.105-1.373,0.781-2.091,2.027-2.133c2.259-0.401,4.308-0.654,6.166-0.739c0-0.063,0.084-0.085,0.254-0.085
					c0.126,0,0.231,0.021,0.338,0.085c0.485-0.063,0.865-0.085,1.182-0.085h0.846L139.385,43.113z"/>
			</g>
			<g>
				<path fill="#EF6159" d="M62.357,8.194l0.167,0.084c0.063,0,0.084-0.021,0.084-0.084l0.419,0.084
					c0.105,0,0.168-0.021,0.168-0.084c2.034,0.188,3.082,0.733,3.188,1.594l0.503,5.451v1.342c0,1.09-0.105,2.494-0.336,4.192
					c0.105,0.818,0.168,1.447,0.168,1.846v3.103c0,0.524-0.021,1.069-0.084,1.594c0.063,0.251,0.084,0.691,0.084,1.342
					c0,0.23-0.104,1.027-0.335,2.432l0.335,3.354c-0.104,0.524-0.168,0.943-0.168,1.258v0.084c0.755,0.44,1.845,0.775,3.271,1.006
					c0.44,0.546,0.671,1.049,0.671,1.51c0,0.503-0.398,0.839-1.174,1.007c-0.607,0.398-1.278,0.587-2.013,0.587h-0.335l-0.504-0.084
					c-0.083,0.063-0.356,0.126-0.838,0.168c-2.894,0-4.76-0.587-5.619-1.762c-0.272-0.943-0.419-1.677-0.419-2.18
					c0-0.86,0.021-2.244,0.084-4.109c0-0.084-0.021-0.482-0.084-1.175c0.063-0.397,0.084-1.026,0.084-1.929h0.083
					c-0.104-0.293-0.167-0.88-0.167-1.761v-1.174c0-0.734,0.063-1.237,0.167-1.51c-0.063-0.104-0.083-0.188-0.083-0.252
					c0-0.23,0.063-0.796,0.167-1.677c-0.104-0.608-0.167-1.237-0.167-1.929v-0.42c0-2.075,0.188-4.13,0.587-6.122
					c0.146-2.243,0.272-3.479,0.419-3.689c-0.104-0.419-0.168-0.671-0.168-0.755c0-0.524,0.566-0.964,1.678-1.342H62.357z"/>
				<path fill="#EF6159" d="M84.305,13.959c0.776,1.887,1.175,3.899,1.175,6.038c0.063,0,0.083,0.146,0.083,0.419
					c0,0.105-0.104,0.692-0.335,1.762c0.272,1.362,0.419,2.935,0.419,4.696v0.168c0,1.194-0.167,2.746-0.503,4.695
					c0,1.153-0.482,2.475-1.426,3.942c-0.251,1.236-0.691,1.845-1.342,1.845c-0.272,0.733-0.859,1.09-1.761,1.09
					c-0.356,0-1.049-0.104-2.097-0.335c-1.049,0.23-1.74,0.335-2.097,0.335h-0.335c-1.447,0-2.475-1.006-3.104-3.019
					c-0.607-1.111-1.132-2.831-1.593-5.116c0-0.398-0.021-0.607-0.084-0.671l0.167-1.593c-0.063-0.901-0.083-1.72-0.083-2.433
					v-0.335c0-2.537,0.146-3.857,0.419-3.941c-0.063-0.105-0.084-0.188-0.084-0.252c0-0.503,0.252-1.698,0.755-3.605
					c0-0.734,0.566-2.684,1.677-5.871c0.524-0.629,1.027-0.985,1.51-1.09c1.321-0.503,2.684-0.755,4.109-0.755
					C82.042,9.934,83.55,11.276,84.305,13.959z M78.854,14.211c-0.23,0.817-0.481,2.348-0.754,4.612v1.426
					c0,0.188-0.084,0.377-0.252,0.587v0.335c0,1.468-0.063,2.391-0.168,2.768c0.063,0.378,0.084,0.692,0.084,0.923v0.839
					c0,1.991,0.314,4.591,0.923,7.799h0.084c0.481-0.671,0.901-2.076,1.258-4.193c0.23-1.656,0.335-3.333,0.335-5.031
					c0-0.86-0.104-2.285-0.335-4.277v-0.419c0-0.231,0.021-0.546,0.084-0.923c-0.44-1.803-0.839-3.292-1.175-4.444H78.854z"/>
				<path fill="#EF6159" d="M88.875,8.634c2.013,0,3.019,0.335,3.019,1.006c0.378,0.985,0.818,2.852,1.342,5.619
					c-0.063,0.733-0.084,1.363-0.084,1.845c0.504,1.027,0.944,3.02,1.342,5.954c0.063,1.489,0.168,2.831,0.336,4.025h0.084
					c0.44-2.452,0.671-4.382,0.671-5.786c0.23-1.111,0.607-3.627,1.174-7.548v-0.587c0-2.81,0.733-4.298,2.181-4.444
					C99,8.655,99.21,8.634,99.525,8.634h0.168c1.005,0,1.508,0.314,1.508,0.923v0.754c-0.293,1.447-0.523,2.265-0.67,2.433
					l0.084,0.419v0.839l-0.084,0.168c0.146,0,0.272,0.272,0.335,0.838v0.671c0,0.944-0.168,2.537-0.502,4.78v1.846
					c0,0.356-0.252,1.614-0.755,3.773l0.084,0.503v0.252c-0.21,1.782-0.398,2.81-0.587,3.103v0.168
					c0.104,0.797,0.167,1.237,0.167,1.342c-0.44,1.426-0.733,3.124-0.838,5.115c-0.314,1.405-0.713,2.265-1.175,2.6
					c-0.713,0.482-2.159,0.944-4.36,1.342h-0.168c-0.923,0-1.677-0.733-2.265-2.18c-0.587-0.734-0.943-1.824-1.09-3.271
					c-1.237-4.55-1.845-7.946-1.845-10.231c-0.188,0-0.42-2.663-0.671-7.967c-0.105,0-0.146-0.336-0.168-1.007V14.42
					c0-0.419-0.084-1.111-0.252-2.097c0.063-0.691,0.084-1.11,0.084-1.258c-0.167-0.629-0.251-0.985-0.251-1.09
					c0-0.65,0.481-1.111,1.426-1.342H88.875z"/>
				<path fill="#EF6159" d="M108.431,9.41c0.23-0.104,0.587-0.167,1.049-0.167c1.446,0.146,2.788,0.251,4.067,0.314
					c0.817,0.439,1.216,0.985,1.216,1.656c-0.734,1.488-2.201,2.222-4.382,2.222h-0.985l-0.398,0.084v-0.084l-0.168,0.084
					c-0.104-0.063-0.21-0.084-0.314-0.084c-0.168,0.42-0.251,0.818-0.251,1.175v0.167c0,0.42,0.021,0.965,0.083,1.656l-0.397,1.111
					c0.083,0.775,0.188,1.174,0.314,1.174c0.125,0,0.523-0.021,1.216-0.083c2.117,0.481,3.165,0.838,3.165,1.026
					c0.336,0.294,0.504,0.608,0.504,0.965c-0.356,0.839-1.027,1.258-2.034,1.258c-0.167,0-0.985,0.272-2.453,0.797h-0.314
					l0.084,0.146c0,0.147-0.021,0.23-0.084,0.23c0.063,0.629,0.084,1.069,0.084,1.342v1.195c0,0.356-0.063,1.174-0.167,2.453
					c0.063,0.419,0.167,0.797,0.335,1.111l-0.084,0.943v0.775c0,1.971,0.104,3.334,0.314,4.109
					c-0.063,0.545-0.084,0.965-0.084,1.279v0.146c0,0.314,0.189,0.482,0.566,0.482c0.985,0,1.991-0.063,3.019-0.168
					c1.301,0,1.95,0.314,1.95,0.943c-0.566,1.572-2.411,2.307-5.535,2.243c-2.474,0.189-4.214-0.042-5.241-0.713
					c-0.607-2.788-0.922-5.534-0.922-8.239c0-0.839,0.063-1.866,0.167-3.082c-0.104-0.377-0.23-1.236-0.335-2.6l0.168-1.824
					c-0.063-0.125-0.105-1.027-0.168-2.684l0.398-5.137c-0.105-0.335-0.147-0.565-0.147-0.712V14.61
					c0-0.252,0.021-0.504,0.084-0.776c-0.063-0.356-0.104-0.607-0.167-0.713c0.063-0.44,0.083-0.817,0.083-1.111v-1.656
					c0-0.439,0.587-0.901,1.782-1.342c0.608,0,0.901-0.021,0.901-0.084C106.943,9.075,107.97,9.243,108.431,9.41z"/>
				<path fill="#EF6159" d="M134.74,8.781c0,0.901-0.587,1.887-1.761,2.936c0,0.104-0.923,0.23-2.788,0.398
					c-1.888-0.042-2.936-0.608-3.166-1.72l-0.23-1.446c0.125-0.545,0.398-1.111,0.817-1.678c1.237-0.397,2.516-0.587,3.857-0.587
					C133.65,6.684,134.74,7.376,134.74,8.781z M130.63,15.155c1.74,0,2.747,0.733,3.02,2.18c0.272,1.153,0.419,2.055,0.419,2.684
					c0,0.147-0.084,0.44-0.251,0.923c0.167,0.272,0.251,0.629,0.251,1.09v0.42c0,0.587-0.104,1.174-0.335,1.761l0.084,0.42v0.503
					c0,0.398-0.084,1.362-0.252,2.935c0,0.482,0.084,1.237,0.252,2.265c-0.21,1.614-0.356,2.432-0.42,2.432l0.671,6.709v0.42
					c0,0.524-0.565,0.859-1.677,1.006c-0.566,0.272-1.342,0.42-2.349,0.42h-0.419c-0.943,0-1.488-0.314-1.678-0.923
					c-0.397-0.272-0.587-1.027-0.587-2.265l-0.503-6.625c0-0.377,0.063-1.3,0.168-2.768l-0.168-3.187
					c0.104-1.53,0.314-3.459,0.587-5.786c0.063-0.775,0.084-1.614,0.084-2.516v-0.755c0-0.44,0.503-0.86,1.51-1.258
					c0.293-0.063,0.629-0.084,1.006-0.084H130.63z"/>
				<path fill="#EF6159" d="M147.989,12.66c0.23,0.691,0.398,2.033,0.503,4.025c0,0.608-0.838,0.923-2.516,0.923
					c-1.111-0.231-1.845-0.566-2.181-1.007c-0.23-0.377-0.503-1.216-0.838-2.516c-1.069-1.405-1.866-2.097-2.349-2.097v0.587
					c0,0.797,0.314,2.034,0.923,3.69c1.803,3.123,3.082,5.744,3.857,7.883c0.168,0.943,0.503,2.201,1.007,3.773
					c0.272,1.488,0.419,2.285,0.419,2.349v0.587c0,0.733,0.063,1.677,0.168,2.852c-0.168,0.545-0.272,1.404-0.336,2.6
					c-0.524,1.362-1.3,2.62-2.348,3.773c-0.356,0.671-1.133,1.007-2.349,1.007c-0.314,0-0.524,0.021-0.587,0.083
					c-2.097,0-3.459-0.817-4.109-2.432c-0.691-0.859-1.153-1.824-1.342-2.852c-0.398-0.565-0.587-1.194-0.587-1.845v-0.587
					c0-1.069,0.566-1.594,1.678-1.594c0-0.104,0.188-0.146,0.587-0.167c1.258,0,2.243,1.068,2.935,3.187
					c0.378,1.404,0.734,2.243,1.091,2.516h0.084c0.167-0.964,0.272-1.803,0.335-2.516c-0.146-2.097-0.44-3.69-0.839-4.78v-1.007
					c-0.314-0.188-0.629-1.006-0.922-2.432c-0.734-1.237-1.175-2.285-1.342-3.103c-1.552-2.495-2.453-4.57-2.684-6.206
					c-0.336-1.636-0.504-2.558-0.504-2.768v-0.923c0-0.125,0.021-0.23,0.084-0.335c-0.042-0.104-0.104-0.524-0.167-1.258
					c0.356-1.321,0.985-2.243,1.845-2.768c1.362-1.069,2.83-1.594,4.444-1.594C144.362,7.711,146.375,9.368,147.989,12.66z"/>
			</g>
		</g>
		<g>
			<g>
				<path fill="#EF6159" d="M73.375,48.561c0.232,0.697,0.401,2.049,0.507,4.055c0,0.612-0.845,0.93-2.534,0.93
					c-1.119-0.232-1.858-0.57-2.196-1.014c-0.232-0.38-0.507-1.226-0.845-2.534c-1.077-1.415-1.88-2.112-2.365-2.112v0.592
					c0,0.802,0.316,2.048,0.929,3.717c1.816,3.146,3.104,5.786,3.886,7.94c0.169,0.95,0.507,2.217,1.014,3.801
					c0.275,1.5,0.423,2.302,0.423,2.365v0.592c0,0.739,0.063,1.689,0.169,2.872c-0.169,0.549-0.274,1.415-0.338,2.618
					c-0.528,1.373-1.31,2.64-2.365,3.802c-0.359,0.676-1.141,1.014-2.365,1.014c-0.316,0-0.528,0.021-0.592,0.084
					c-2.111,0-3.484-0.823-4.139-2.449c-0.697-0.866-1.162-1.838-1.352-2.872c-0.401-0.57-0.592-1.204-0.592-1.858V69.51
					c0-1.077,0.57-1.604,1.689-1.604c0-0.105,0.19-0.148,0.592-0.169c1.267,0,2.26,1.077,2.956,3.21
					c0.381,1.415,0.739,2.26,1.099,2.534h0.084c0.169-0.972,0.275-1.816,0.338-2.534c-0.147-2.112-0.443-3.717-0.845-4.815v-1.014
					c-0.316-0.189-0.633-1.014-0.929-2.449c-0.739-1.246-1.183-2.302-1.352-3.126c-1.563-2.513-2.471-4.604-2.703-6.251
					c-0.338-1.647-0.507-2.576-0.507-2.787v-0.93c0-0.126,0.021-0.232,0.084-0.338c-0.042-0.105-0.105-0.527-0.169-1.267
					c0.359-1.331,0.993-2.26,1.858-2.788c1.373-1.077,2.852-1.604,4.478-1.604C69.721,43.578,71.749,45.246,73.375,48.561z"/>
				<path fill="#EF6159" d="M77.919,44.76c1.773,0,2.809,0.316,3.125,0.929c0.57,1.057,1.141,3.59,1.689,7.603
					c0,0.845,0.063,1.795,0.169,2.872v0.676c0,0.127-0.021,0.232-0.084,0.338c0.232,0.443,0.338,0.845,0.338,1.183
					c-0.042,0.781-0.105,1.183-0.169,1.183c0.169,0,0.316,1.626,0.422,4.899c0.063,0,0.169,0.739,0.338,2.196h0.085
					c0.57-2.386,1.034-4.92,1.436-7.603c0-0.57,0.993-1.098,2.957-1.604h0.676c0.696,0,1.499,1.837,2.365,5.49
					c0.105,0.127,0.296,0.781,0.591,1.943h0.085v-1.014c0.169-1.542,0.274-3.295,0.338-5.237c-0.063-0.19-0.085-0.486-0.085-0.845
					c0.401-4.034,0.592-6.356,0.592-6.927c0.232-0.507,0.338-1.246,0.338-2.196v-0.592c0.316-0.781,0.739-1.183,1.267-1.183
					c0.296-0.063,0.634-0.084,1.014-0.084h1.014c0.465,0,0.739,0.358,0.845,1.098c-0.063,0.486-0.084,0.781-0.084,0.845
					c0.211,0.528,0.401,2.007,0.591,4.393c0,0.697-0.021,1.542-0.084,2.534c0.063,0.655,0.084,1.268,0.084,1.858l-0.253,1.521
					c0.105,0.761,0.169,1.246,0.169,1.437c-0.274,0.971-0.55,3.822-0.845,8.531c-0.507,1.584-0.95,3.4-1.352,5.491
					c-0.549,1.415-1.563,2.111-3.041,2.111H92.28c-0.55,0-1.141-0.507-1.774-1.521c-1.183,0-2.006-0.95-2.449-2.872
					c-0.169-0.718-0.401-2.006-0.676-3.886c-0.19,0-0.359,0.761-0.507,2.281c-0.423,0.654-0.845,1.731-1.268,3.21
					c-0.612,1.014-1.246,1.521-1.858,1.521c-1.457,0.338-2.429,0.507-2.872,0.507c-1.372,0-2.26-0.824-2.703-2.45
					c-0.507-1.942-0.929-5.977-1.267-12.079c-0.317-2.999-0.528-8.151-0.676-15.459c0-0.232,0.485-0.612,1.436-1.098H77.919z"/>
				<path fill="#EF6159" d="M106.243,45.288c0.232-0.105,0.592-0.169,1.057-0.169c1.457,0.148,2.809,0.254,4.097,0.317
					c0.823,0.443,1.225,0.992,1.225,1.668c-0.739,1.499-2.218,2.238-4.413,2.238h-0.993l-0.401,0.085v-0.085l-0.169,0.085
					c-0.105-0.063-0.211-0.085-0.316-0.085c-0.169,0.423-0.254,0.824-0.254,1.183v0.169c0,0.423,0.021,0.972,0.085,1.669
					l-0.401,1.119c0.085,0.781,0.19,1.183,0.316,1.183c0.127,0,0.528-0.021,1.226-0.085c2.133,0.486,3.188,0.845,3.188,1.035
					c0.338,0.296,0.507,0.612,0.507,0.972c-0.359,0.845-1.035,1.267-2.049,1.267c-0.169,0-0.992,0.274-2.471,0.803h-0.316
					l0.084,0.147c0,0.148-0.021,0.232-0.084,0.232c0.063,0.634,0.084,1.077,0.084,1.352v1.204c0,0.359-0.063,1.183-0.169,2.471
					c0.063,0.422,0.169,0.803,0.338,1.119l-0.084,0.95v0.781c0,1.985,0.105,3.358,0.316,4.14c-0.063,0.549-0.084,0.972-0.084,1.288
					v0.147c0,0.317,0.189,0.486,0.57,0.486c0.992,0,2.006-0.063,3.041-0.169c1.309,0,1.964,0.316,1.964,0.95
					c-0.57,1.584-2.429,2.323-5.575,2.26c-2.492,0.189-4.245-0.043-5.28-0.719c-0.611-2.809-0.928-5.574-0.928-8.299
					c0-0.845,0.063-1.88,0.169-3.104c-0.105-0.38-0.232-1.246-0.338-2.618l0.169-1.838c-0.063-0.127-0.105-1.035-0.169-2.703
					l0.401-5.174c-0.105-0.338-0.147-0.57-0.147-0.718v-0.317c0-0.253,0.021-0.507,0.084-0.781
					c-0.063-0.358-0.105-0.612-0.169-0.718c0.063-0.443,0.085-0.823,0.085-1.119v-1.669c0-0.443,0.59-0.907,1.794-1.352
					c0.612,0,0.908-0.021,0.908-0.084C104.744,44.95,105.779,45.119,106.243,45.288z"/>
				<path fill="#EF6159" d="M121.072,45.288c0.232-0.105,0.592-0.169,1.057-0.169c1.457,0.148,2.809,0.254,4.097,0.317
					c0.823,0.443,1.225,0.992,1.225,1.668c-0.739,1.499-2.217,2.238-4.414,2.238h-0.992l-0.401,0.085v-0.085l-0.169,0.085
					c-0.105-0.063-0.211-0.085-0.316-0.085c-0.169,0.423-0.254,0.824-0.254,1.183v0.169c0,0.423,0.021,0.972,0.085,1.669
					l-0.401,1.119c0.084,0.781,0.19,1.183,0.316,1.183c0.127,0,0.528-0.021,1.226-0.085c2.133,0.486,3.188,0.845,3.188,1.035
					c0.338,0.296,0.507,0.612,0.507,0.972c-0.359,0.845-1.035,1.267-2.049,1.267c-0.169,0-0.992,0.274-2.471,0.803h-0.316
					l0.084,0.147c0,0.148-0.021,0.232-0.084,0.232c0.063,0.634,0.084,1.077,0.084,1.352v1.204c0,0.359-0.063,1.183-0.169,2.471
					c0.063,0.422,0.169,0.803,0.338,1.119l-0.084,0.95v0.781c0,1.985,0.105,3.358,0.316,4.14c-0.063,0.549-0.084,0.972-0.084,1.288
					v0.147c0,0.317,0.189,0.486,0.57,0.486c0.992,0,2.006-0.063,3.041-0.169c1.309,0,1.964,0.316,1.964,0.95
					c-0.57,1.584-2.429,2.323-5.575,2.26c-2.492,0.189-4.245-0.043-5.279-0.719c-0.613-2.809-0.93-5.574-0.93-8.299
					c0-0.845,0.063-1.88,0.169-3.104c-0.105-0.38-0.232-1.246-0.338-2.618l0.169-1.838c-0.063-0.127-0.105-1.035-0.169-2.703
					l0.401-5.174c-0.105-0.338-0.148-0.57-0.148-0.718v-0.317c0-0.253,0.021-0.507,0.085-0.781
					c-0.063-0.358-0.105-0.612-0.169-0.718c0.063-0.443,0.084-0.823,0.084-1.119v-1.669c0-0.443,0.592-0.907,1.796-1.352
					c0.612,0,0.907-0.021,0.907-0.084C119.573,44.95,120.608,45.119,121.072,45.288z"/>
				<path fill="#EF6159" d="M139.385,43.113c1.816,0.274,3.273,0.485,4.393,0.592c0.57,0.654,0.846,1.14,0.846,1.436
					c0,1.119-0.655,1.9-1.943,2.365c-0.739,0.232-1.436,0.338-2.111,0.338h-2.365c-0.063,0.316-0.085,0.528-0.085,0.676
					c0.401,1.711,0.591,2.725,0.591,3.041c-0.063,0.443-0.147,0.781-0.253,1.014c0.232,0.401,0.401,0.823,0.507,1.268l-0.169,1.267
					l0.338,3.802c-0.105,0.569-0.169,0.929-0.169,1.098c0.169,0.95,0.254,1.542,0.254,1.773c-0.106,0.824-0.17,1.458-0.17,1.859
					v0.338c0.106,2.217,0.17,3.399,0.17,3.547l-0.085,0.761c0.274,0.887,0.423,1.711,0.423,2.45v0.168
					c-0.17,1.246-0.254,2.007-0.254,2.281c0.338,1.479,0.507,2.387,0.507,2.703c0,0.739-1.33,1.246-3.97,1.521
					c-1.035,0-1.669-0.232-1.943-0.676c-0.739-1.119-1.098-4.033-1.098-8.7c-0.063,0-0.085-0.232-0.085-0.676
					c0.042-0.676,0.105-1.014,0.169-1.014l-0.084-0.846v-1.604c0-1.077-0.085-2.006-0.254-2.788l0.169-1.436
					c-0.274-2.049-0.507-6.104-0.676-12.164c-0.507-0.105-1.668-0.274-3.464-0.507c-0.338-0.253-0.506-0.528-0.506-0.845
					c0.105-1.373,0.781-2.091,2.027-2.133c2.259-0.401,4.308-0.654,6.166-0.739c0-0.063,0.084-0.085,0.254-0.085
					c0.126,0,0.231,0.021,0.338,0.085c0.485-0.063,0.865-0.085,1.182-0.085h0.846L139.385,43.113z"/>
			</g>
			<g>
				<path fill="#EF6159" d="M62.357,8.194l0.167,0.084c0.063,0,0.084-0.021,0.084-0.084l0.419,0.084
					c0.105,0,0.168-0.021,0.168-0.084c2.034,0.188,3.082,0.733,3.188,1.594l0.503,5.451v1.342c0,1.09-0.105,2.494-0.336,4.192
					c0.105,0.818,0.168,1.447,0.168,1.846v3.103c0,0.524-0.021,1.069-0.084,1.594c0.063,0.251,0.084,0.691,0.084,1.342
					c0,0.23-0.104,1.027-0.335,2.432l0.335,3.354c-0.104,0.524-0.168,0.943-0.168,1.258v0.084c0.755,0.44,1.845,0.775,3.271,1.006
					c0.44,0.546,0.671,1.049,0.671,1.51c0,0.503-0.398,0.839-1.174,1.007c-0.607,0.398-1.278,0.587-2.013,0.587h-0.335l-0.504-0.084
					c-0.083,0.063-0.356,0.126-0.838,0.168c-2.894,0-4.76-0.587-5.619-1.762c-0.272-0.943-0.419-1.677-0.419-2.18
					c0-0.86,0.021-2.244,0.084-4.109c0-0.084-0.021-0.482-0.084-1.175c0.063-0.397,0.084-1.026,0.084-1.929h0.083
					c-0.104-0.293-0.167-0.88-0.167-1.761v-1.174c0-0.734,0.063-1.237,0.167-1.51c-0.063-0.104-0.083-0.188-0.083-0.252
					c0-0.23,0.063-0.796,0.167-1.677c-0.104-0.608-0.167-1.237-0.167-1.929v-0.42c0-2.075,0.188-4.13,0.587-6.122
					c0.146-2.243,0.272-3.479,0.419-3.689c-0.104-0.419-0.168-0.671-0.168-0.755c0-0.524,0.566-0.964,1.678-1.342H62.357z"/>
				<path fill="#EF6159" d="M84.305,13.959c0.776,1.887,1.175,3.899,1.175,6.038c0.063,0,0.083,0.146,0.083,0.419
					c0,0.105-0.104,0.692-0.335,1.762c0.272,1.362,0.419,2.935,0.419,4.696v0.168c0,1.194-0.167,2.746-0.503,4.695
					c0,1.153-0.482,2.475-1.426,3.942c-0.251,1.236-0.691,1.845-1.342,1.845c-0.272,0.733-0.859,1.09-1.761,1.09
					c-0.356,0-1.049-0.104-2.097-0.335c-1.049,0.23-1.74,0.335-2.097,0.335h-0.335c-1.447,0-2.475-1.006-3.104-3.019
					c-0.607-1.111-1.132-2.831-1.593-5.116c0-0.398-0.021-0.607-0.084-0.671l0.167-1.593c-0.063-0.901-0.083-1.72-0.083-2.433
					v-0.335c0-2.537,0.146-3.857,0.419-3.941c-0.063-0.105-0.084-0.188-0.084-0.252c0-0.503,0.252-1.698,0.755-3.605
					c0-0.734,0.566-2.684,1.677-5.871c0.524-0.629,1.027-0.985,1.51-1.09c1.321-0.503,2.684-0.755,4.109-0.755
					C82.042,9.934,83.55,11.276,84.305,13.959z M78.854,14.211c-0.23,0.817-0.481,2.348-0.754,4.612v1.426
					c0,0.188-0.084,0.377-0.252,0.587v0.335c0,1.468-0.063,2.391-0.168,2.768c0.063,0.378,0.084,0.692,0.084,0.923v0.839
					c0,1.991,0.314,4.591,0.923,7.799h0.084c0.481-0.671,0.901-2.076,1.258-4.193c0.23-1.656,0.335-3.333,0.335-5.031
					c0-0.86-0.104-2.285-0.335-4.277v-0.419c0-0.231,0.021-0.546,0.084-0.923c-0.44-1.803-0.839-3.292-1.175-4.444H78.854z"/>
				<path fill="#EF6159" d="M88.875,8.634c2.013,0,3.019,0.335,3.019,1.006c0.378,0.985,0.818,2.852,1.342,5.619
					c-0.063,0.733-0.084,1.363-0.084,1.845c0.504,1.027,0.944,3.02,1.342,5.954c0.063,1.489,0.168,2.831,0.336,4.025h0.084
					c0.44-2.452,0.671-4.382,0.671-5.786c0.23-1.111,0.607-3.627,1.174-7.548v-0.587c0-2.81,0.733-4.298,2.181-4.444
					C99,8.655,99.21,8.634,99.525,8.634h0.168c1.005,0,1.508,0.314,1.508,0.923v0.754c-0.293,1.447-0.523,2.265-0.67,2.433
					l0.084,0.419v0.839l-0.084,0.168c0.146,0,0.272,0.272,0.335,0.838v0.671c0,0.944-0.168,2.537-0.502,4.78v1.846
					c0,0.356-0.252,1.614-0.755,3.773l0.084,0.503v0.252c-0.21,1.782-0.398,2.81-0.587,3.103v0.168
					c0.104,0.797,0.167,1.237,0.167,1.342c-0.44,1.426-0.733,3.124-0.838,5.115c-0.314,1.405-0.713,2.265-1.175,2.6
					c-0.713,0.482-2.159,0.944-4.36,1.342h-0.168c-0.923,0-1.677-0.733-2.265-2.18c-0.587-0.734-0.943-1.824-1.09-3.271
					c-1.237-4.55-1.845-7.946-1.845-10.231c-0.188,0-0.42-2.663-0.671-7.967c-0.105,0-0.146-0.336-0.168-1.007V14.42
					c0-0.419-0.084-1.111-0.252-2.097c0.063-0.691,0.084-1.11,0.084-1.258c-0.167-0.629-0.251-0.985-0.251-1.09
					c0-0.65,0.481-1.111,1.426-1.342H88.875z"/>
				<path fill="#EF6159" d="M108.431,9.41c0.23-0.104,0.587-0.167,1.049-0.167c1.446,0.146,2.788,0.251,4.067,0.314
					c0.817,0.439,1.216,0.985,1.216,1.656c-0.734,1.488-2.201,2.222-4.382,2.222h-0.985l-0.398,0.084v-0.084l-0.168,0.084
					c-0.104-0.063-0.21-0.084-0.314-0.084c-0.168,0.42-0.251,0.818-0.251,1.175v0.167c0,0.42,0.021,0.965,0.083,1.656l-0.397,1.111
					c0.083,0.775,0.188,1.174,0.314,1.174c0.125,0,0.523-0.021,1.216-0.083c2.117,0.481,3.165,0.838,3.165,1.026
					c0.336,0.294,0.504,0.608,0.504,0.965c-0.356,0.839-1.027,1.258-2.034,1.258c-0.167,0-0.985,0.272-2.453,0.797h-0.314
					l0.084,0.146c0,0.147-0.021,0.23-0.084,0.23c0.063,0.629,0.084,1.069,0.084,1.342v1.195c0,0.356-0.063,1.174-0.167,2.453
					c0.063,0.419,0.167,0.797,0.335,1.111l-0.084,0.943v0.775c0,1.971,0.104,3.334,0.314,4.109
					c-0.063,0.545-0.084,0.965-0.084,1.279v0.146c0,0.314,0.189,0.482,0.566,0.482c0.985,0,1.991-0.063,3.019-0.168
					c1.301,0,1.95,0.314,1.95,0.943c-0.566,1.572-2.411,2.307-5.535,2.243c-2.474,0.189-4.214-0.042-5.241-0.713
					c-0.607-2.788-0.922-5.534-0.922-8.239c0-0.839,0.063-1.866,0.167-3.082c-0.104-0.377-0.23-1.236-0.335-2.6l0.168-1.824
					c-0.063-0.125-0.105-1.027-0.168-2.684l0.398-5.137c-0.105-0.335-0.147-0.565-0.147-0.712V14.61
					c0-0.252,0.021-0.504,0.084-0.776c-0.063-0.356-0.104-0.607-0.167-0.713c0.063-0.44,0.083-0.817,0.083-1.111v-1.656
					c0-0.439,0.587-0.901,1.782-1.342c0.608,0,0.901-0.021,0.901-0.084C106.943,9.075,107.97,9.243,108.431,9.41z"/>
				<path fill="#EF6159" d="M134.74,8.781c0,0.901-0.587,1.887-1.761,2.936c0,0.104-0.923,0.23-2.788,0.398
					c-1.888-0.042-2.936-0.608-3.166-1.72l-0.23-1.446c0.125-0.545,0.398-1.111,0.817-1.678c1.237-0.397,2.516-0.587,3.857-0.587
					C133.65,6.684,134.74,7.376,134.74,8.781z M130.63,15.155c1.74,0,2.747,0.733,3.02,2.18c0.272,1.153,0.419,2.055,0.419,2.684
					c0,0.147-0.084,0.44-0.251,0.923c0.167,0.272,0.251,0.629,0.251,1.09v0.42c0,0.587-0.104,1.174-0.335,1.761l0.084,0.42v0.503
					c0,0.398-0.084,1.362-0.252,2.935c0,0.482,0.084,1.237,0.252,2.265c-0.21,1.614-0.356,2.432-0.42,2.432l0.671,6.709v0.42
					c0,0.524-0.565,0.859-1.677,1.006c-0.566,0.272-1.342,0.42-2.349,0.42h-0.419c-0.943,0-1.488-0.314-1.678-0.923
					c-0.397-0.272-0.587-1.027-0.587-2.265l-0.503-6.625c0-0.377,0.063-1.3,0.168-2.768l-0.168-3.187
					c0.104-1.53,0.314-3.459,0.587-5.786c0.063-0.775,0.084-1.614,0.084-2.516v-0.755c0-0.44,0.503-0.86,1.51-1.258
					c0.293-0.063,0.629-0.084,1.006-0.084H130.63z"/>
				<path fill="#EF6159" d="M147.989,12.66c0.23,0.691,0.398,2.033,0.503,4.025c0,0.608-0.838,0.923-2.516,0.923
					c-1.111-0.231-1.845-0.566-2.181-1.007c-0.23-0.377-0.503-1.216-0.838-2.516c-1.069-1.405-1.866-2.097-2.349-2.097v0.587
					c0,0.797,0.314,2.034,0.923,3.69c1.803,3.123,3.082,5.744,3.857,7.883c0.168,0.943,0.503,2.201,1.007,3.773
					c0.272,1.488,0.419,2.285,0.419,2.349v0.587c0,0.733,0.063,1.677,0.168,2.852c-0.168,0.545-0.272,1.404-0.336,2.6
					c-0.524,1.362-1.3,2.62-2.348,3.773c-0.356,0.671-1.133,1.007-2.349,1.007c-0.314,0-0.524,0.021-0.587,0.083
					c-2.097,0-3.459-0.817-4.109-2.432c-0.691-0.859-1.153-1.824-1.342-2.852c-0.398-0.565-0.587-1.194-0.587-1.845v-0.587
					c0-1.069,0.566-1.594,1.678-1.594c0-0.104,0.188-0.146,0.587-0.167c1.258,0,2.243,1.068,2.935,3.187
					c0.378,1.404,0.734,2.243,1.091,2.516h0.084c0.167-0.964,0.272-1.803,0.335-2.516c-0.146-2.097-0.44-3.69-0.839-4.78v-1.007
					c-0.314-0.188-0.629-1.006-0.922-2.432c-0.734-1.237-1.175-2.285-1.342-3.103c-1.552-2.495-2.453-4.57-2.684-6.206
					c-0.336-1.636-0.504-2.558-0.504-2.768v-0.923c0-0.125,0.021-0.23,0.084-0.335c-0.042-0.104-0.104-0.524-0.167-1.258
					c0.356-1.321,0.985-2.243,1.845-2.768c1.362-1.069,2.83-1.594,4.444-1.594C144.362,7.711,146.375,9.368,147.989,12.66z"/>
			</g>
		</g>
	</g>
	<g>
		<g>
			<path fill="#6C1D27" d="M60.49,56.571c0.6,3.089-12.393,8.216-29.02,11.447C14.841,71.25,0.875,71.362,0.276,68.272
				c-0.602-3.094,12.389-8.22,29.018-11.451S59.889,53.477,60.49,56.571z"/>
			<path fill="#FFFFFF" d="M58.097,51.504c3.089,15.896-7.291,31.283-23.184,34.372S3.631,78.584,0.543,62.689
				c-3.088-15.891,7.291-31.28,23.184-34.367C39.622,25.232,55.01,35.614,58.097,51.504z"/>
			<path fill="#F6E4E7" d="M45.282,32.532c1.733,2.87,3.027,6.064,3.703,9.544c3.088,15.896-7.291,31.282-23.183,34.371
				c-7.77,1.51-15.406-0.217-21.554-4.21c6.178,10.229,18.253,16.051,30.664,13.64C50.806,82.788,61.186,67.4,58.097,51.504
				C56.518,43.377,51.713,36.712,45.282,32.532z"/>
			<path fill="#6C1D27" d="M60.037,56.823c-0.918,0.187-2.385,0.013-2.819,0.539c-0.423,0.511,0.116,1.79,0.153,2.681
				c-0.262,0.32-0.541,0.639-0.819,0.95c-0.934,0.085-2.44-0.348-2.972,0.127c-0.619,0.552,0.02,2.471-0.449,3.206
				c-0.091,0.08-0.18,0.156-0.273,0.234c-0.813,0.345-2.737-0.682-3.457-0.194c-0.749,0.508-0.26,2.815-1.055,3.282
				c-0.781,0.457-2.721-1.001-3.545-0.581c-0.809,0.41-0.634,2.772-1.482,3.142c-0.836,0.366-2.563-1.311-3.436-0.988
				c-0.852,0.317-0.98,2.683-1.869,2.96c-0.873,0.269-2.375-1.595-3.278-1.366c-0.888,0.221-1.305,2.563-2.218,2.741
				c-0.914,0.177-2.178-1.838-3.084-1.71c-0.924,0.127-1.615,2.416-2.527,2.494c-0.93,0.075-1.933-2.07-2.846-2.044
				c-0.926,0.026-1.9,2.229-2.813,2.201c-0.925-0.024-1.648-2.279-2.552-2.358c-0.923-0.079-2.174,2-3.069,1.867
				c-0.918-0.137-1.326-2.461-2.211-2.649c-0.852-0.183-2.251,1.487-3.137,1.47c-0.113-0.035-0.226-0.071-0.34-0.11
				c-0.709-0.506-0.836-2.524-1.613-2.802c-0.67-0.241-1.902,0.722-2.803,0.993c-0.377-0.188-0.754-0.379-1.119-0.577
				c-0.297-0.84-0.275-2.227-0.857-2.54c-0.604-0.325-1.895,0.385-2.814,0.553c-0.182-0.095-0.373-0.18-0.553-0.279
				c1.318,3.553,2.639,7.109,3.958,10.66C8.709,90.291,20.78,97.899,31.099,95.809c3.69-0.719,7.38-1.436,11.073-2.152
				C52.524,91.73,60.861,80.153,60.77,67.718c-0.109-3.787-0.217-7.576-0.322-11.366C60.316,56.513,60.169,56.662,60.037,56.823z"/>
			<g>
				<path fill="#F6E4E7" d="M28.54,53.331c-4.558,0.886-9.174,0.941-13.262-0.023c-4.547-1.075-7.654-3.514-8.75-6.864
					c-1.076-3.287-0.053-6.991,2.879-10.431c4.705-5.518,14.357-8.627,21.516-6.938c3.049,0.722,5.139,2.374,5.885,4.653
					c0.732,2.24,0.051,4.747-1.918,7.059c-3.148,3.693-9.369,5.701-14.162,4.567c-2.09-0.494-3.528-1.644-4.051-3.239
					c-0.514-1.569-0.052-3.309,1.303-4.896c2.104-2.466,6.257-3.809,9.455-3.053c1.455,0.342,2.505,1.194,2.877,2.335
					c0.369,1.125,0.04,2.405-0.905,3.514c-1.437,1.684-4.266,2.598-6.446,2.082c-0.589-0.14-0.955-0.731-0.814-1.322
					c0.139-0.592,0.73-0.957,1.32-0.817c1.377,0.324,3.368-0.314,4.268-1.369c0.436-0.51,0.614-1.022,0.49-1.402
					c-0.129-0.396-0.603-0.716-1.295-0.879c-2.384-0.563-5.715,0.509-7.277,2.338c-0.837,0.983-1.15,1.973-0.885,2.786
					c0.275,0.84,1.15,1.473,2.467,1.783c3.924,0.929,9.41-0.837,11.982-3.854c1.455-1.707,1.988-3.464,1.504-4.947
					c-0.5-1.523-2.027-2.659-4.303-3.197c-6.438-1.521-15.112,1.271-19.337,6.225c-2.415,2.834-3.292,5.789-2.462,8.32
					c0.849,2.596,3.395,4.516,7.168,5.408c10.26,2.424,24.088-2.028,30.824-9.928c0.395-0.463,1.088-0.517,1.551-0.123
					c0.463,0.396,0.517,1.088,0.122,1.55C43.751,47.979,36.227,51.836,28.54,53.331z"/>
			</g>
			<g>
				<path fill="#6C1D27" d="M21.728,52.534c-2.217,0-4.372-0.228-6.4-0.707c-4.547-1.075-7.656-3.512-8.752-6.863
					c-1.076-3.288-0.053-6.992,2.88-10.431c4.705-5.516,14.358-8.629,21.517-6.938c3.049,0.722,5.138,2.375,5.884,4.654
					c0.732,2.24,0.051,4.746-1.919,7.057c-3.15,3.693-9.37,5.701-14.162,4.568c-2.088-0.493-3.527-1.643-4.049-3.237
					c-0.514-1.57-0.052-3.31,1.301-4.899c2.103-2.466,6.255-3.807,9.457-3.052c1.454,0.342,2.503,1.193,2.877,2.333
					c0.369,1.125,0.039,2.407-0.906,3.516c-1.434,1.682-4.267,2.596-6.445,2.083c-0.591-0.139-0.958-0.731-0.818-1.322
					s0.734-0.958,1.322-0.818c1.378,0.323,3.371-0.315,4.268-1.369c0.437-0.513,0.615-1.024,0.491-1.405
					c-0.13-0.396-0.601-0.716-1.292-0.879c-2.385-0.563-5.719,0.508-7.279,2.339c-0.837,0.983-1.152,1.974-0.885,2.789
					c0.275,0.838,1.15,1.471,2.465,1.782c3.925,0.924,9.411-0.838,11.983-3.855c1.454-1.706,1.988-3.462,1.502-4.946
					c-0.499-1.524-2.025-2.66-4.3-3.198c-6.438-1.52-15.113,1.273-19.338,6.226c-2.417,2.834-3.292,5.789-2.463,8.321
					c0.849,2.595,3.395,4.515,7.168,5.407c10.262,2.424,24.089-2.028,30.826-9.926c0.395-0.462,1.088-0.517,1.55-0.123
					c0.462,0.394,0.517,1.088,0.123,1.55C42.447,48.087,31.515,52.534,21.728,52.534z"/>
			</g>
			<g>
				<path fill="#4A141B" d="M12.761,90.414c-2.308-4.127-6.015-11.104-7.524-15.976c-0.994-3.203-1.301-5.078-1.329-6.177
					c-0.089-0.216-0.2-0.386-0.36-0.472c-0.604-0.325-1.895,0.385-2.814,0.553c-0.182-0.095-0.373-0.18-0.553-0.279
					c1.074,2.89,2.146,5.784,3.221,8.676c1.184,2.71,2.291,5.004,3.309,6.923C8.387,86.255,10.45,88.533,12.761,90.414z"/>
				<path fill="#4A141B" d="M18.917,94.217c-2.633-4.918-6.775-12.997-8.275-17.829c-0.787-2.535-1.164-3.951-1.33-4.742
					c-0.272-0.732-0.505-1.562-0.984-1.732c-0.67-0.241-1.902,0.722-2.803,0.993c-0.008-0.004-0.019-0.011-0.029-0.014
					c0.039,0.101,0.072,0.192,0.11,0.296c4.035,10.869,7.55,17.445,10.22,21.407C16.831,93.209,17.864,93.755,18.917,94.217z"/>
				<path fill="#4A141B" d="M13.417,71.356c-0.584-0.125-1.426,0.614-2.184,1.091c2.916,10.699,6.621,18.129,9.383,22.438
					c0.625,0.222,1.254,0.412,1.886,0.576c-3.087-5.867-6.079-16.755-7.369-21.782C14.53,73.01,14.124,71.505,13.417,71.356z"/>
				<path fill="#4A141B" d="M18.697,72.138c-0.284-0.024-0.6,0.163-0.925,0.417c0.006,0.02,0.008,0.033,0.011,0.049
					c2.539,10.775,5.524,18.561,7.839,23.43c0.426,0.041,0.85,0.077,1.273,0.095c-3.09-8.017-6.416-21.229-6.74-22.528
					C19.681,72.952,19.219,72.185,18.697,72.138z"/>
				<path fill="#4A141B" d="M25.434,73.287c-0.467-0.506-0.931-1.006-1.373-0.991c-0.283,0.006-0.573,0.231-0.863,0.521
					c2.505,10.54,5.432,18.191,7.713,23.017c0.063-0.012,0.125-0.012,0.188-0.023c0.325-0.063,0.651-0.127,0.978-0.19
					c-3.208-8.479-6.613-22.236-6.613-22.236S25.453,73.344,25.434,73.287z"/>
				<path fill="#4A141B" d="M32.604,75.519c-0.215-0.734-0.415-1.418-0.605-2.07c-0.684-0.313-1.463-1.239-2.133-1.521
					c0.588,2.962,1.162,5.613,1.162,5.613s2.49,8.897,4.361,17.434c0.539-0.105,1.078-0.21,1.617-0.315
					C36.172,89.482,34.797,83.058,32.604,75.519z"/>
				<path fill="#4A141B" d="M55.92,60.99c-0.879-0.053-1.911-0.248-2.338,0.126c0.584,2.536,1.063,4.49,1.063,4.49
					s2.167,6.162,3.716,13.727c0.457-1.051,0.85-2.133,1.183-3.243C58.828,71.496,57.688,66.372,55.92,60.99z"/>
				<path fill="#4A141B" d="M52.993,65.353c-0.099-0.27-0.188-0.501-0.284-0.764c-0.876,0.195-2.628-0.684-3.308-0.224
					c-0.057,0.037-0.094,0.104-0.137,0.158c3.111,9.174,5.104,15.355,6.379,19.716c0.498-0.721,0.963-1.476,1.398-2.253
					C56.247,76.611,54.982,70.726,52.993,65.353z"/>
				<path fill="#4A141B" d="M44.961,67.031c0.564,1.895,3.738,12.668,6.03,22.335c0.915-0.76,1.777-1.61,2.593-2.524
					c-0.93-5.512-2.545-12.017-5.238-19.193C47.608,68.08,45.852,66.824,44.961,67.031z"/>
				<path fill="#4A141B" d="M43.258,70.216c-0.822,0.266-2.385-1.171-3.264-1.005c1.078,4.799,2.334,9.679,2.334,9.679
					s1.895,6.494,3.537,13.637c0.953-0.404,1.871-0.912,2.762-1.471C47.765,85.092,46.134,77.975,43.258,70.216z"/>
				<path fill="#4A141B" d="M38.741,77.204c-0.848-2.253-1.553-4.079-2.14-5.552c-0.626-0.414-1.271-0.888-1.769-0.838
					c1.103,4.586,3.027,11.244,3.027,11.244s1.586,5.435,3.115,11.831c0.398-0.077,0.797-0.155,1.197-0.232
					c0.438-0.082,0.867-0.205,1.299-0.321C42.497,88.644,40.998,83.226,38.741,77.204z"/>
				<path fill="#4A141B" d="M59.971,60.185c-0.418-1.199-0.799-2.274-1.15-3.245c-0.679,0.04-1.335,0.099-1.603,0.422
					c-0.339,0.41-0.063,1.313,0.08,2.113c0.721,3.084,1.38,5.686,1.38,5.686s0.785,3.063,1.715,7.305
					c0.254-1.556,0.389-3.146,0.377-4.747c-0.055-1.872-0.109-3.75-0.158-5.624C60.402,61.463,60.195,60.831,59.971,60.185z"/>
			</g>
		</g>
		<g>
			<path fill="#EF6159" d="M29.615,29.117l0.118-0.685c0.434-2.499-1.243-4.874-3.743-5.305l-0.093-0.017
				c-2.498-0.432-4.873,1.245-5.305,3.742l-0.118,0.688l-0.688-0.117c-2.497-0.433-4.871,1.245-5.303,3.742l-0.016,0.093
				c-0.432,2.5,1.245,4.876,3.742,5.304l0.687,0.118l9.145,1.58L29.615,29.117z"/>
			<path fill="#D65750" d="M25.99,23.127l-0.093-0.017c-2.498-0.432-4.873,1.245-5.305,3.742l-0.118,0.688l7.566,10.72l1.574-9.145
				l0.118-0.685C30.167,25.933,28.49,23.558,25.99,23.127z"/>
		</g>
	</g>
</g>
</svg>
