<?xml version="1.0" encoding="utf-8"?>
<!-- Generator: Adobe Illustrator 16.0.0, SVG Export Plug-In . SVG Version: 6.00 Build 0)  -->
<!DOCTYPE svg PUBLIC "-//W3C//DTD SVG 1.1//EN" "http://www.w3.org/Graphics/SVG/1.1/DTD/svg11.dtd">
<svg version="1.1" id="Layer_1" xmlns="http://www.w3.org/2000/svg" xmlns:xlink="http://www.w3.org/1999/xlink" x="0px" y="0px"
	 width="166.227px" height="107.458px" viewBox="0 0 166.227 107.458" enable-background="new 0 0 166.227 107.458"
	 xml:space="preserve">
<g id="Layer_2">
</g>
<g>
	<g>
		<path fill="#FFFFFF" d="M114.023,84.407c-6.188-0.002-13.708-2.488-18.285-6.052c-9.88-7.69-6.684-17.919-4.059-23.834
			l-0.081-0.344c-1.504-6.492,0.723-21.666,6.863-29.391c3.751-4.719,7.965-5.71,10.839-5.71c0.824,0,1.661,0.083,2.485,0.247
			c3.137,0.621,6.612,2.301,8.212,6.487c0.369-0.371,0.72-0.701,1.074-0.996c5.993-4.974,12.151-7.601,17.813-7.601
			c4.134,0,10.099,1.38,15.045,7.957c6.989,9.296,5.647,22.37-3.502,34.122c-3.818,4.905-8.591,8.082-13.206,11.151
			c-0.654,0.437-1.313,0.873-1.969,1.317c-1.479,0.998-3.137,1.718-4.602,2.352c-0.649,0.282-1.59,0.689-2.053,0.946
			c-0.17,0.261-0.428,0.733-0.625,1.099c-0.912,1.68-2.289,4.215-5.058,5.956C120.505,83.633,117.512,84.407,114.023,84.407
			C114.024,84.407,114.024,84.407,114.023,84.407z"/>
		<path fill="#FFFFFF" d="M148.336,29.378c-6.496-8.638-15.668-5.09-22.791,0.821c-1.851,1.536-7.757,9.367-10.654,7.186
			c-3.246-2.444,2.139-9.887-4.466-11.195c-9.482-1.879-13.435,20.247-12.016,26.375l0.642,2.71
			c-3.021,6.285-5.396,12.587,0.986,17.556c4.333,3.373,14.461,6.313,19.153,3.358c2.279-1.435,2.762-4.729,4.851-6.476
			c1.667-1.396,5.259-2.377,7.291-3.75c4.963-3.356,9.965-6.334,13.572-10.973C150.463,47.854,154.416,37.464,148.336,29.378z"/>
	</g>
	<g>
		<g>
			<path fill="#FFFFFF" d="M23.791,107.219c-0.129,0-0.253-0.004-0.373-0.012c-0.117,0.006-0.239,0.01-0.364,0.01
				c-0.204,0-0.407-0.01-0.609-0.031c-0.563-0.059-1.06-0.182-1.445-0.289c-0.551-0.051-1.073-0.16-1.566-0.327
				c-1.307-0.286-2.486-0.866-3.446-1.685c-0.495-0.346-0.939-0.758-1.317-1.227c-0.256-0.229-0.535-0.514-0.803-0.859
				c-0.262-0.211-0.546-0.469-0.829-0.781c-0.179-0.195-0.343-0.404-0.492-0.623l0.325-0.238c-0.043-0.035-0.085-0.074-0.126-0.111
				l-0.299,0.205c-0.179-0.26-0.338-0.529-0.486-0.806c-0.129-0.188-0.246-0.384-0.353-0.584c-0.193-0.233-0.379-0.479-0.556-0.733
				c-0.097-0.142-0.192-0.287-0.285-0.436c-0.218-0.23-0.418-0.48-0.6-0.747c0,0-0.205-0.297-0.257-0.375
				c-0.187-0.206-0.378-0.44-0.563-0.704c-0.307-0.443-0.564-0.91-0.772-1.39c-0.251-0.256-0.481-0.536-0.69-0.836
				c-0.004-0.007-0.009-0.013-0.013-0.021c-0.199-0.213-0.381-0.44-0.546-0.682c-0.103-0.146-0.195-0.293-0.278-0.436
				c-0.321-0.295-0.608-0.625-0.856-0.984L6.07,92.342c-0.341-0.491-0.563-0.922-0.727-1.234c-0.013-0.023-0.025-0.049-0.038-0.072
				c-0.172-0.195-0.354-0.422-0.543-0.695l-0.066-0.096c-0.112-0.162-0.217-0.33-0.313-0.502c-0.374-0.375-0.698-0.802-0.96-1.267
				c-0.087-0.153-0.174-0.298-0.259-0.438c-0.284-0.475-0.638-1.063-0.996-1.846c-0.038-0.082-0.073-0.165-0.107-0.249
				c-0.072-0.178-0.133-0.353-0.185-0.517c-0.21-0.397-0.408-0.87-0.546-1.42C1.141,83.592,1,83.161,0.91,82.72
				c-0.144-0.394-0.25-0.737-0.346-1.042c-0.048-0.153-0.097-0.313-0.154-0.484c-0.184-0.539-0.285-1.099-0.308-1.66
				c-0.299-1.621-0.042-3.814,2.02-6.275c0.192-0.229,0.434-0.481,0.659-0.68c1.103-0.97,2.313-1.611,3.286-2.125l0.398-0.213
				c0.877-0.475,1.844-0.712,2.81-0.712c0.096,0,0.19,0.003,0.286,0.007c0.09-0.009,0.186-0.016,0.284-0.021
				c0.108-0.007,0.217-0.009,0.325-0.009c0.504,0,1.005,0.063,1.492,0.19c0.917,0.089,1.795,0.392,2.568,0.876
				c0.223,0.105,0.437,0.221,0.641,0.346c0.363,0.125,0.713,0.287,1.044,0.479c-0.042-1.528,0.512-3.03,1.568-4.174
				c1.085-1.173,2.343-1.652,3.139-1.871c0.141-0.062,0.284-0.117,0.43-0.168c0.003-0.001,0.007-0.002,0.011-0.004
				c0.252-0.127,0.517-0.237,0.789-0.33c0.423-0.144,0.858-0.237,1.297-0.282c0.198-0.039,0.429-0.074,0.684-0.1
				c0.147-0.016,0.289-0.023,0.423-0.029c0.555-0.139,1.128-0.21,1.704-0.21c0.278,0,0.535,0.017,0.76,0.041
				c0.176-0.017,0.352-0.024,0.529-0.024c0.449,0,0.896,0.053,1.338,0.154l0.115,0.018c0.426,0.063,1.139,0.17,1.925,0.467
				c0.417,0.156,0.813,0.359,1.183,0.605c0.597,0.195,1.469,0.525,2.363,1.174c0.059,0.033,0.113,0.065,0.163,0.097
				c1.248,0.581,2.261,1.585,2.852,2.842c0.111,0.108,0.217,0.222,0.32,0.337c0.631,0.721,1.119,1.529,1.451,2.406l0.101,0.267
				c0.254,0.382,0.488,0.826,0.672,1.339c0.095,0.188,0.195,0.411,0.29,0.664c0.185,0.482,0.302,0.981,0.356,1.483
				c0.097,0.171,0.18,0.332,0.25,0.479c0.521,0.643,0.904,1.387,1.12,2.184c0.09,0.193,0.167,0.373,0.23,0.545
				c0.167,0.445,0.278,0.906,0.333,1.376c0.062,0.294,0.098,0.577,0.114,0.844c0.019,0.085,0.035,0.169,0.05,0.255
				c0.114,0.219,0.223,0.456,0.319,0.713l0.079,0.209c0.038,0.101,0.08,0.219,0.122,0.354c0.271,0.603,0.438,1.241,0.496,1.896
				c0.082,0.309,0.162,0.685,0.21,1.109c0.049,0.439,0.049,0.879,0.001,1.311c0.255,0.896,0.332,1.701,0.387,2.276
				c0.012,0.128,0.021,0.255,0.039,0.377c0.036,0.263,0.054,0.527,0.055,0.792c0.001,0.01,0.003,0.02,0.004,0.028
				c0.051,0.178,0.104,0.383,0.148,0.614c0.027,0.121,0.051,0.232,0.071,0.338c0.117,0.541,0.159,1.099,0.122,1.654
				c-0.009,0.135-0.021,0.264-0.037,0.387c-0.014,0.82-0.188,1.627-0.521,2.393c-0.061,0.191-0.129,0.373-0.203,0.545
				c-0.156,0.407-0.318,0.721-0.428,0.926c-0.7,1.522-1.998,2.643-3.528,3.145c-0.297,0.137-0.554,0.234-0.742,0.304
				c-0.165,0.081-0.333,0.155-0.505,0.222l-0.493,0.187c-0.384,0.149-1.34,0.519-2.64,0.519c-0.087,0-0.175-0.002-0.265-0.006
				c-0.384-0.008-0.737-0.05-1.052-0.107c-0.093-0.006-0.185-0.014-0.275-0.023c-0.124-0.014-0.245-0.029-0.366-0.049
				c-0.354-0.016-0.706-0.063-1.052-0.141c-0.035-0.008-0.07-0.017-0.104-0.024c-0.087,0.256-0.188,0.506-0.303,0.749
				c-0.234,0.495-0.534,0.951-0.889,1.359c-0.123,0.17-0.263,0.345-0.419,0.52c-0.283,0.313-0.599,0.596-0.939,0.841
				c-0.34,0.298-0.753,0.595-1.249,0.851c-0.747,0.386-1.457,0.565-1.968,0.658c-0.441,0.174-0.905,0.295-1.375,0.36
				c-0.202,0.047-0.405,0.082-0.61,0.106C24.309,107.202,24.05,107.219,23.791,107.219z"/>
			<path fill="#FFFFFF" d="M47.998,98.463c-1.544-0.008-2.946-0.238-4.273-0.701c-0.934-0.227-1.796-0.678-2.514-1.311
				c-0.038-0.021-0.075-0.041-0.112-0.062c-0.125-0.052-0.248-0.106-0.369-0.168c-1.789-0.888-3.024-2.275-4.096-3.642
				c-0.229-0.295-0.428-0.604-0.596-0.929c-0.045-0.077-0.089-0.155-0.13-0.233c-0.454-0.705-0.693-1.36-0.828-1.783
				c-0.231-0.381-0.567-0.957-0.833-1.7c-0.038-0.104-0.071-0.208-0.103-0.308c-0.229-0.551-0.371-1.129-0.426-1.711
				c-0.234-0.737-0.32-1.516-0.254-2.287v-0.075c0-0.55,0-1.646,0.436-2.878c0.147-0.67,0.419-1.377,0.882-2.088
				c0.347-0.711,0.837-1.354,1.452-1.885c0.074-0.063,0.146-0.123,0.217-0.179c0.181-0.267,0.382-0.519,0.603-0.752
				c0.399-0.456,0.867-0.851,1.388-1.166c0.049-0.028,0.109-0.063,0.17-0.104c0.292-0.224,0.568-0.396,0.791-0.524
				c0.016-0.013,0.03-0.024,0.046-0.036c0.669-0.523,1.442-0.896,2.27-1.094c0.266-0.098,0.561-0.186,0.883-0.256
				c0.146-0.032,0.286-0.059,0.418-0.078c0.522-0.148,1.064-0.225,1.611-0.225c0.282,0,0.565,0.021,0.849,0.062l0.245,0.032
				c0.907,0.119,2.606,0.344,4.21,1.434c0.484,0.266,0.856,0.536,1.114,0.734c0.776,0.439,1.438,1.044,1.942,1.766
				c0.382,0.352,0.717,0.752,0.995,1.193c0.078,0.082,0.153,0.169,0.227,0.256c0.395-0.329,0.913-0.689,1.565-0.984
				c0.318-0.187,0.654-0.342,1.003-0.466c0.074-0.026,0.147-0.051,0.221-0.073c0.272-0.119,0.555-0.218,0.844-0.293
				c0.358-0.111,0.67-0.176,0.912-0.213c0.613-0.117,1.112-0.138,1.408-0.148l0.108-0.006c0.177-0.016,0.354-0.022,0.528-0.022
				c1.168,0,2.303,0.351,3.282,1.01c1.639,1.104,2.646,2.771,2.993,4.955c0.473,1.845,0.022,3.787-1.167,5.228
				c-0.198,0.478-0.458,0.93-0.777,1.343c-0.429,0.821-1.044,1.526-1.789,2.063c-0.049,0.043-0.099,0.084-0.15,0.125
				c-0.228,0.299-0.481,0.575-0.76,0.825c-0.223,0.257-0.491,0.522-0.812,0.782c-0.115,0.093-0.234,0.182-0.355,0.266
				c-0.094,0.065-0.187,0.127-0.278,0.184c-0.14,0.145-0.282,0.279-0.426,0.402c-0.337,0.381-0.723,0.715-1.146,0.998l-0.062,0.049
				c-0.185,0.143-0.452,0.35-0.805,0.572c-0.182,0.157-0.346,0.29-0.482,0.4l-0.171,0.141c-0.585,0.566-1.26,0.987-1.983,1.258
				c-0.276,0.186-0.593,0.365-0.946,0.523c-0.467,0.253-0.972,0.443-1.505,0.568c-0.031,0.009-0.063,0.018-0.094,0.025
				c-0.681,0.313-1.565,0.661-2.514,0.885c-0.645,0.149-1.269,0.234-1.869,0.254c-0.253,0.035-0.508,0.053-0.761,0.053l0,0
				C48.149,98.469,48.074,98.467,47.998,98.463z"/>
			<path fill="#FFFFFF" d="M67.764,95.187c-0.304,0-0.604-0.019-0.896-0.056c-0.086,0.004-0.175,0.004-0.234,0.004
				c-0.154,0-0.31-0.004-0.472-0.014c-0.197,0.021-0.396,0.03-0.592,0.03c-0.699,0-1.395-0.125-2.051-0.368
				c-0.3-0.07-0.702-0.178-1.155-0.353c-0.411-0.099-0.809-0.24-1.185-0.421c-0.583-0.196-1.136-0.485-1.637-0.858
				c-0.037-0.019-0.073-0.036-0.11-0.054c-0.489-0.245-1.229-0.615-2.012-1.244c-0.288-0.23-0.553-0.486-0.792-0.768
				c-0.271-0.23-0.6-0.531-0.938-0.918c-0.427-0.401-0.793-0.867-1.085-1.379c-0.266-0.373-0.543-0.84-0.77-1.414
				c-0.008-0.014-0.017-0.027-0.024-0.041c-0.179-0.312-0.313-0.594-0.411-0.821c-0.046-0.076-0.09-0.154-0.133-0.231
				c-0.318-0.57-0.503-1.098-0.613-1.502c-0.142-0.281-0.301-0.635-0.439-1.059c-0.105-0.319-0.182-0.646-0.231-0.979l-0.067-0.464
				c-0.072-0.2-0.133-0.403-0.184-0.61c-0.083-0.344-0.177-0.652-0.267-0.959c-0.232-0.787-0.521-1.767-0.718-3.055
				c-0.014-0.082-0.023-0.167-0.033-0.25c-0.016-0.082-0.03-0.166-0.042-0.248c-0.015-0.102-0.028-0.203-0.039-0.304
				c-0.063-0.224-0.127-0.478-0.18-0.756c-0.042-0.118-0.078-0.229-0.11-0.336c-0.225-0.478-0.427-1.06-0.53-1.741
				c0-0.002,0-0.004-0.001-0.006c-0.079-0.217-0.151-0.45-0.213-0.702c-0.102-0.304-0.188-0.638-0.245-0.997
				c0-0.003-0.001-0.007-0.002-0.011c-0.086-0.274-0.152-0.556-0.198-0.845c-0.009-0.057-0.018-0.113-0.024-0.17
				c-0.186-0.58-0.305-1.115-0.411-1.59l-0.088-0.389c-0.032-0.139-0.061-0.275-0.082-0.416c-0.043-0.271-0.068-0.545-0.074-0.816
				c-0.075-0.361-0.144-0.816-0.148-1.346c-0.001-0.057-0.002-0.113-0.002-0.17c-0.098-0.956,0.016-1.818,0.157-2.493
				c0.132-1.083,0.454-2.137,0.933-3.083c0.157-0.558,0.411-1.148,0.801-1.744c0.435-1.072,1.175-1.99,2.123-2.643
				c0.081-0.085,0.165-0.169,0.253-0.253c0.91-1.046,1.941-1.595,2.477-1.882l0.109-0.059c0.71-0.452,1.509-0.747,2.344-0.865
				c0.31-0.044,0.5-0.092,0.547-0.106c0.141-0.053,0.231-0.082,0.375-0.124c0.51-0.148,1.029-0.233,1.55-0.252
				c0.436-0.079,0.885-0.127,1.337-0.143c0.146-0.004,0.281-0.006,0.418-0.006c0.685,0,1.316,0.053,1.778,0.091
				c0.401,0.033,0.799,0.108,1.186,0.223c1.167,0.345,1.939,0.835,2.357,1.104c1.386,0.684,2.283,1.547,2.86,2.42
				c0.301,0.332,0.564,0.695,0.784,1.088l0.014,0.021c0.424,0.604,1.416,2.024,1.503,4.056c0.008,0.184,0.007,0.36,0,0.532
				c0.001,0.015,0.003,0.028,0.005,0.043c0.051,0.157,0.095,0.318,0.134,0.484c0.234,0.641,0.374,1.329,0.4,2.05
				c0.016,0.37-0.002,0.721-0.04,1.047c0.019,0.166,0.029,0.334,0.036,0.501c0.003,0.087,0.005,0.173,0.006,0.259
				c0.061,0.315,0.097,0.637,0.109,0.967c0.024,0.552-0.024,1.102-0.148,1.641c-0.015,0.456-0.073,0.938-0.181,1.35
				c-0.025,0.096-0.051,0.188-0.079,0.277c-0.005,0.1-0.013,0.197-0.022,0.295c-0.077,0.734-0.255,1.454-0.523,2.135
				c-0.126,0.654-0.354,1.284-0.665,1.869c-0.139,0.43-0.326,0.84-0.557,1.225c-0.005,0.014-0.011,0.027-0.016,0.041
				c-0.098,0.363-0.229,0.717-0.393,1.054c0.001,0.021,0.009,0.133,0.011,0.167c0.008,0.035,0.015,0.068,0.022,0.104
				c0.183-0.121,0.38-0.244,0.59-0.361c0.125-0.094,0.251-0.18,0.377-0.262c0.331-0.246,0.688-0.461,1.066-0.637
				c0.111-0.057,0.237-0.117,0.376-0.179c0.185-0.106,0.389-0.214,0.61-0.313c0.168-0.119,0.365-0.25,0.589-0.385
				c1.529-1.189,3.423-1.65,4.946-1.65c0.204,0,0.405,0.008,0.604,0.023c1.921,0.146,3.621,0.995,4.79,2.389
				c1.146,1.365,1.677,3.118,1.496,4.938c-0.139,1.418-0.694,2.798-1.61,3.99c-0.438,0.582-0.908,0.992-1.313,1.285
				c-0.008,0.008-0.016,0.017-0.022,0.024c-0.279,0.356-0.614,0.711-1.018,1.043c-0.132,0.13-0.271,0.259-0.424,0.384
				c-0.137,0.141-0.279,0.272-0.424,0.393c-0.229,0.191-0.452,0.35-0.652,0.478c-0.159,0.146-0.354,0.318-0.585,0.5
				c-0.241,0.247-0.504,0.476-0.789,0.681c-0.255,0.183-0.522,0.355-0.797,0.529c-0.015,0.01-0.03,0.02-0.044,0.028
				c-0.549,0.63-1.226,1.136-1.984,1.483c-0.08,0.063-0.157,0.119-0.231,0.172c-0.631,0.615-1.396,1.086-2.241,1.371
				c-0.107,0.055-0.227,0.112-0.356,0.172c-0.069,0.039-0.141,0.078-0.212,0.115c-0.634,0.332-1.32,0.545-2.027,0.631
				c-0.152,0.037-0.306,0.067-0.459,0.092c-0.408,0.117-0.956,0.234-1.598,0.259c0,0-0.303,0.01-0.376,0.01
				c-0.041,0-0.082-0.001-0.123-0.002c-0.11,0.013-0.222,0.021-0.333,0.024C68.021,95.183,67.891,95.187,67.764,95.187z"/>
			<path fill="#FFFFFF" d="M85.85,95.948c-0.249,0-0.591-0.021-0.838-0.053l-0.177-0.023c-0.11-0.015-0.219-0.031-0.327-0.053
				c-0.118-0.007-0.236-0.018-0.354-0.031c-0.441-0.055-0.851-0.14-1.228-0.248c-0.226-0.031-0.462-0.074-0.711-0.129
				c-0.885-0.057-1.744-0.313-2.514-0.744c-0.284-0.117-0.662-0.285-1.078-0.527c-0.379-0.158-0.74-0.354-1.078-0.588
				c-0.543-0.286-1.043-0.657-1.479-1.104l-0.076-0.056c-0.419-0.301-1.119-0.805-1.792-1.563c-0.247-0.277-0.467-0.576-0.656-0.894
				c-0.222-0.267-0.485-0.608-0.745-1.034c-0.358-0.48-0.644-1.016-0.841-1.584c-0.18-0.391-0.372-0.904-0.491-1.521l0,0
				c-0.122-0.344-0.202-0.652-0.255-0.898c-0.253-0.675-0.356-1.29-0.395-1.803c-0.083-0.301-0.169-0.676-0.221-1.106
				c-0.042-0.349-0.053-0.7-0.033-1.053l0.024-0.401c-0.029-0.203-0.047-0.406-0.055-0.611c-0.013-0.33-0.041-0.631-0.067-0.928
				c-0.071-0.8-0.159-1.795-0.09-3.082c0.004-0.078,0.01-0.156,0.017-0.234c0.001-0.075,0.004-0.151,0.008-0.227
				c0.005-0.099,0.014-0.195,0.022-0.291c-0.017-0.215-0.027-0.455-0.023-0.719c-0.014-0.1-0.023-0.191-0.033-0.281
				c-0.128-0.511-0.211-1.117-0.178-1.802c-0.032-0.216-0.055-0.446-0.064-0.688c-0.039-0.316-0.057-0.656-0.041-1.021
				c-0.029-0.284-0.037-0.573-0.023-0.864c0.002-0.048,0.005-0.096,0.009-0.145c-0.063-0.596-0.073-1.125-0.082-1.573l-0.008-0.376
				c-0.004-0.146-0.002-0.291,0.004-0.438c0.014-0.275,0.044-0.547,0.093-0.812c0.002-0.354,0.027-0.801,0.123-1.296
				c0.013-0.064,0.024-0.128,0.038-0.191c0.104-0.947,0.393-1.762,0.67-2.389c0.354-1.018,0.882-1.97,1.541-2.789
				c0.27-0.506,0.637-1.025,1.137-1.523c0.635-0.938,1.525-1.67,2.563-2.114c0.102-0.071,0.205-0.142,0.313-0.208
				c1.069-0.82,2.156-1.163,2.72-1.342l0.136-0.043c0.697-0.278,1.44-0.421,2.189-0.421c0.057,0,0.379,0.006,0.379,0.006
				c0.271,0,0.397-0.017,0.399-0.017c0.135-0.025,0.236-0.039,0.373-0.055c0.217-0.023,0.497-0.04,0.715-0.04
				c0.276,0,0.551,0.019,0.821,0.054c0.029,0,0.06,0,0.088,0c0.415,0,0.836,0.028,1.251,0.085c0.828,0.111,1.544,0.291,2.119,0.435
				c0.389,0.097,0.766,0.232,1.125,0.406c1.086,0.521,1.765,1.121,2.137,1.455c1.255,0.897,1.993,1.903,2.416,2.861
				c0.246,0.389,0.446,0.805,0.597,1.241c0.317,0.69,1.056,2.303,0.708,4.384c-0.028,0.168-0.063,0.329-0.1,0.482
				c0.015,0.152,0.024,0.308,0.029,0.466c0.103,0.677,0.098,1.381-0.023,2.091c-0.062,0.357-0.148,0.691-0.251,1
				c-0.017,0.15-0.037,0.303-0.063,0.454c-0.014,0.083-0.029,0.166-0.046,0.248c-0.007,0.346-0.042,0.663-0.09,0.944
				c-0.092,0.553-0.256,1.082-0.491,1.586c-0.112,0.439-0.271,0.896-0.459,1.27c-0.042,0.081-0.084,0.161-0.127,0.238
				c-0.024,0.087-0.05,0.174-0.079,0.26c-0.226,0.691-0.547,1.348-0.947,1.95c-0.269,0.638-0.636,1.226-1.083,1.743
				c-0.217,0.363-0.472,0.701-0.76,1.009c-0.008,0.012-0.016,0.024-0.023,0.036c-0.095,0.182-0.198,0.357-0.311,0.527
				c0.134-0.052,0.272-0.101,0.417-0.146c0.216-0.104,0.437-0.196,0.66-0.275c0.229-0.101,0.464-0.187,0.705-0.258
				c0.169-0.054,0.39-0.119,0.653-0.179c0.203-0.07,0.428-0.138,0.671-0.195c0.193-0.086,0.436-0.188,0.722-0.289
				c1.063-0.526,2.282-0.807,3.581-0.807c0.685,0,1.358,0.081,2.002,0.239c1.918,0.472,3.482,1.631,4.394,3.264
				c0.892,1.594,1.065,3.453,0.492,5.232c-0.437,1.363-1.281,2.602-2.445,3.576c-0.559,0.477-1.105,0.768-1.499,0.943
				c-0.023,0.016-0.049,0.031-0.073,0.049c-0.337,0.281-0.727,0.547-1.173,0.782c-0.155,0.101-0.319,0.196-0.492,0.289
				c-0.147,0.1-0.296,0.19-0.444,0.271c-0.029,0.018-0.059,0.032-0.089,0.049c-0.25,0.131-0.484,0.232-0.699,0.314
				c-0.195,0.117-0.438,0.255-0.723,0.396c-0.271,0.184-0.556,0.345-0.854,0.479c-0.284,0.128-0.583,0.246-0.884,0.363
				c-0.032,0.012-0.063,0.023-0.096,0.035c-0.655,0.5-1.407,0.857-2.208,1.05c-0.108,0.054-0.212,0.103-0.311,0.146
				c-0.72,0.463-1.535,0.77-2.392,0.889c-0.124,0.037-0.261,0.074-0.411,0.111c-0.058,0.021-0.115,0.038-0.17,0.057
				c-0.576,0.181-1.174,0.271-1.773,0.271c-0.105,0-0.21-0.003-0.316-0.009c-0.127,0.009-0.254,0.013-0.382,0.013
				c-0.032,0-0.064,0-0.097,0C86.365,95.931,86.12,95.948,85.85,95.948z"/>
			<path fill="#FFFFFF" d="M100.454,98.125c-0.542,0-1.074-0.074-1.583-0.217c-0.063-0.01-0.122-0.021-0.178-0.031
				c-0.742-0.073-1.45-0.287-2.094-0.617c-1.394-0.5-2.663-1.305-3.661-2.322c-0.234-0.202-0.456-0.419-0.661-0.65
				c-0.119-0.113-0.234-0.23-0.346-0.354c-0.372-0.348-0.7-0.743-0.976-1.184c-0.024-0.037-0.047-0.076-0.071-0.115
				c-0.17-0.264-0.321-0.541-0.449-0.832c-0.276-0.536-0.487-1.067-0.634-1.596c-0.013-0.037-0.025-0.072-0.038-0.108
				c-0.079-0.202-0.146-0.408-0.204-0.618c-0.426-0.791-0.696-1.663-0.791-2.559c-0.213-0.957-0.231-1.957-0.053-2.944
				c0.035-0.354,0.1-0.701,0.194-1.032c0.074-0.261,0.167-0.517,0.276-0.765c0.078-0.238,0.18-0.495,0.309-0.763
				c0.087-0.262,0.2-0.551,0.35-0.854c0.271-0.566,0.633-1.093,1.082-1.572c0.4-0.517,0.959-1.17,1.606-1.736
				c0.3-0.262,0.625-0.492,0.971-0.688c0.417-0.301,0.874-0.548,1.361-0.731c0.145-0.08,0.274-0.146,0.386-0.2
				c0.584-0.401,1.234-0.693,1.92-0.863c0.256-0.104,0.58-0.222,0.961-0.323c0.162-0.07,0.303-0.123,0.415-0.166
				c0.227-0.105,0.459-0.197,0.697-0.273c0.25-0.098,0.608-0.221,1.042-0.316c0.419-0.093,0.847-0.14,1.275-0.14
				c0.021,0,0.04,0,0.061,0.001c0.238,0.002,0.455,0.018,0.642,0.035c0.25-0.023,0.537-0.043,0.867-0.043
				c0.049,0,0.168,0.002,0.217,0.004c0.517,0.013,1.029,0.094,1.525,0.238l0.376,0.111c0.297,0.041,0.734,0.113,1.264,0.275
				c0.393,0.121,0.765,0.277,1.116,0.467c0.294,0.105,0.625,0.234,0.968,0.391c0.081,0.037,0.162,0.075,0.241,0.116
				c0.388,0.168,0.713,0.324,0.996,0.486c0.313,0.181,0.61,0.391,0.888,0.626c0.045,0.037,0.09,0.078,0.137,0.119
				c0.833,0.438,1.398,0.925,1.718,1.199l0.078,0.067c0.719,0.597,1.307,1.37,1.69,2.229c0.406,0.537,1.027,1.418,1.412,2.629
				c0.001,0,0.387,0.002,0.387,0.002c0.399-0.043,0.785-0.064,1.168-0.064c0.402,0,0.812,0.023,1.218,0.072
				c0.254,0.023,0.474,0.059,0.646,0.089c0.008,0,0.017,0,0.026,0c0.343,0,0.685,0.024,1.033,0.073
				c0.641,0.035,1.762,0.152,2.948,0.722c1.578,0.757,2.696,1.914,3.326,3.44c0.807,1.928,0.624,4.146-0.499,5.91
				c-0.419,0.654-0.946,1.215-1.573,1.67c-0.02,0.016-0.039,0.029-0.06,0.045c-0.766,0.566-1.506,0.908-2.193,1.117
				c-0.469,0.234-0.967,0.406-1.492,0.517c-0.017,0.003-0.031,0.007-0.049,0.01c-0.623,0.235-1.281,0.362-1.942,0.379
				c-0.364,0.069-0.735,0.104-1.106,0.104c-0.072,0-0.145-0.002-0.218-0.004c-0.23,0.035-0.436,0.059-0.604,0.072
				c-0.421,0.098-0.848,0.149-1.274,0.154c-0.303,0.048-0.606,0.07-0.911,0.07c-0.046,0-0.143,0-0.145,0
				c-0.475,0.121-0.967,0.186-1.467,0.186c-0.116,0-0.23-0.003-0.348-0.01c-0.147,0.006-0.282,0.01-0.418,0.01
				c-0.206,0-0.409-0.008-0.609-0.023c-0.018,0.002-0.037,0.002-0.055,0.002c-0.143,0-0.282-0.006-0.426-0.014
				c-0.033,0-0.065,0-0.099,0c-0.182,0-0.352-0.008-0.504-0.019c-0.158,0.013-0.315,0.021-0.475,0.021
				c-0.211,0-0.423-0.013-0.634-0.035c-0.295,0.033-0.592,0.049-0.89,0.049c-0.188,0-0.382-0.006-0.585-0.021
				c-0.201-0.015-0.401-0.038-0.601-0.073c-0.193-0.033-0.375-0.074-0.543-0.117c-0.129,0.033-0.261,0.062-0.393,0.084
				c-0.361,0.147-0.882,0.359-1.547,0.527c-0.022,0.008-0.046,0.016-0.068,0.022c-0.7,0.308-1.458,0.476-2.232,0.493
				c-0.417,0.01-0.924,0.063-1.41,0.121C100.913,98.113,100.682,98.125,100.454,98.125z"/>
			<path fill="#FFFFFF" d="M117.146,107.458c-0.791,0-1.586-0.158-2.337-0.481c-0.912-0.206-1.754-0.626-2.462-1.212
				c-0.676-0.465-1.253-1.049-1.729-1.75c-0.44-0.526-0.783-1.122-1.017-1.758c-0.283-0.605-0.463-1.258-0.528-1.926
				c-0.158-0.94-0.091-1.922,0.223-2.854c0.114-0.604,0.353-1.564,0.99-2.572c0.264-0.412,0.805-1.148,1.658-1.794
				c0.166-0.133,0.34-0.258,0.521-0.375c0.229-0.179,0.458-0.327,0.672-0.452c0.21-0.146,0.43-0.281,0.659-0.4
				c0.059-0.25,0.127-0.477,0.191-0.672c0.055-0.351,0.14-0.696,0.257-1.033c0.163-0.471,0.345-0.84,0.441-1.038
				c0,0-0.009,0.022-0.021,0.057c0.036-0.088,0.072-0.176,0.111-0.262c0.204-0.544,0.559-1.461,1.327-2.481
				c0.001-0.002,0.002-0.004,0.003-0.004c0.068-0.125,0.144-0.252,0.226-0.38c0.315-0.493,0.638-0.876,0.865-1.144
				c0.17-0.309,0.339-0.559,0.478-0.75c0.102-0.198,0.231-0.439,0.401-0.707l0.058-0.108c0.167-0.315,0.346-0.641,0.546-0.954
				c0.09-0.141,0.183-0.271,0.275-0.395c0.076-0.143,0.159-0.283,0.249-0.422l0.114-0.182c0.332-0.514,0.684-0.945,0.989-1.298
				l0.069-0.106c0.176-0.274,0.371-0.533,0.583-0.773c0.104-0.234,0.223-0.463,0.356-0.684c0.19-0.379,0.356-0.685,0.56-1
				c0.206-0.319,0.421-0.6,0.627-0.84c0.041-0.069,0.084-0.14,0.128-0.209c0.072-0.113,0.154-0.231,0.246-0.354
				c0.064-0.119,0.138-0.241,0.216-0.362c0.246-0.384,0.513-0.705,0.771-0.975c0.186-0.273,0.416-0.572,0.704-0.872
				c0.051-0.063,0.101-0.134,0.15-0.203c0.371-0.501,0.924-1.25,1.723-1.946c0.005-0.007,0.01-0.014,0.015-0.021
				c0.193-0.295,0.407-0.567,0.642-0.818c0.313-0.411,0.639-0.735,0.932-0.985c1.688-1.896,3.677-2.195,4.767-2.195
				c1.075,0,2.119,0.27,3.102,0.798c1.461,0.793,2.285,1.786,2.795,2.604c0.569,0.646,0.984,1.398,1.228,2.203
				c0.207,0.445,0.408,1.006,0.518,1.664c0.12,0.723,0.104,1.443-0.036,2.135c-0.079,1.024-0.422,2.17-1.248,3.342
				c-0.204,0.477-0.474,0.996-0.824,1.494c-0.033,0.048-0.067,0.095-0.102,0.141c-0.15,0.46-0.354,0.9-0.604,1.318
				c-0.356,0.635-0.739,1.13-1.029,1.506c-0.063,0.082-0.128,0.162-0.186,0.244c-0.184,0.257-0.38,0.494-0.591,0.715
				c-0.132,0.256-0.299,0.54-0.509,0.836c-0.075,0.105-0.15,0.206-0.229,0.303c-0.063,0.1-0.125,0.195-0.191,0.289
				c-0.104,0.148-0.197,0.303-0.295,0.457c-0.223,0.354-0.452,0.717-0.711,1.08c-0.302,0.425-0.63,0.838-0.992,1.245
				c-0.093,0.157-0.191,0.313-0.3,0.463c-0.222,0.313-0.452,0.577-0.671,0.796c-0.021,0.044-0.045,0.089-0.067,0.135
				c-0.128,0.248-0.296,0.531-0.457,0.76l-0.145,0.203c-0.116,0.228-0.267,0.483-0.454,0.75c-0.02,0.026-0.037,0.053-0.056,0.078
				c-0.188,0.424-0.404,0.782-0.613,1.077c-0.169,0.235-0.352,0.457-0.547,0.664c-0.013,0.017-0.023,0.033-0.036,0.052
				c-0.07,0.098-0.145,0.195-0.219,0.291c-0.06,0.094-0.12,0.186-0.186,0.276c-0.233,0.33-0.458,0.603-0.649,0.821
				c-0.225,0.498-0.517,0.964-0.869,1.383c-0.126,0.256-0.271,0.504-0.435,0.74c-0.125,0.242-0.268,0.477-0.427,0.701
				c-0.311,0.438-0.681,0.83-1.094,1.168c-0.029,0.176-0.067,0.352-0.113,0.524c-0.124,0.832-0.424,1.629-0.881,2.337
				c-0.336,0.615-1.093,1.913-2.643,2.834c-0.092,0.055-0.186,0.105-0.28,0.156c-0.688,0.359-1.316,0.518-1.688,0.598
				c-0.422,0.135-0.847,0.227-1.272,0.28C118.251,107.379,117.699,107.458,117.146,107.458z"/>
		</g>
		<g>
			<path fill="#282D33" d="M10.171,75.413c0.317,0.114,0.604,0.18,0.922,0.164c0.278,0.328,0.692,0.207,0.936,0.616
				c0.188,0.044,0.41,0.009,0.498,0.294c0.125,0.074,0.314-0.012,0.408,0.012c0.429,0.457,1.022,0.385,1.379,1.002
				c0.621-0.017,0.943,0.681,1.458,0.904c0.025,0.313-0.069,0.418,0.077,0.676c0.061,0.104,0.276-0.059,0.368-0.033
				c0.33,0.178,0.475,0.563,0.871,0.455c-0.033,0.078-0.003,0.131,0.055,0.232c0.088,0.155,0.327,0.309,0.354,0.489
				c0.025,0.18-0.064,0.284,0.021,0.438c0.027,0.182,0.24,0.024,0.358,0.102c0.02,0.033,0.04,0.068,0.059,0.104
				c0.146,0.258,0.469,0.438,0.646,0.617c0.028,0.053-0.001,0.131-0.001,0.131c0.146,0.129,0.351,0.23,0.466,0.438
				c0.058,0.104,0.057,0.232-0.003,0.389c0.146-0.001,0.175,0.051,0.205,0.104c0.261,0.463,0.987,0.853,1.245,1.317
				c0.019,0.034,0.037,0.068,0.057,0.103c-0.117,0.182-0.118,0.438-0.062,0.541c0.021,0.035,0.039,0.068,0.059,0.104
				c0.145,0.258,0.604,0.184,0.747,0.313c0.027,0.053,0.057,0.104,0.086,0.156c0.171,0.311,0.483,0.494,0.598,0.701
				c0.085,0.154,0.086,0.282,0.03,0.436c0.143,0.131,0.481,0.238,0.651,0.422c0.112,0.207,0.058,0.488,0.172,0.693
				c0.028,0.053,0.113,0.08,0.142,0.131c0.17,0.183,0.338,0.365,0.563,0.523c-0.083,0.102-0.107,0.305,0.085,0.283
				c-0.244,0.302,0.117,0.462,0.013,0.768c0.166,0.055,0.226,0.286,0.391,0.34C24,89.581,24.11,89.659,24.171,89.89
				c0.139,0.131,0.301,0.058,0.517-0.037c0.072-0.032,0.145-0.063,0.216-0.097c0.299-0.065,0.706-0.178,1.085-0.342
				c0.146-0.062,0.29-0.123,0.435-0.185c0.325-0.138,0.653-0.272,0.976-0.153c0.055-0.15,0.164-0.195,0.271-0.24
				c0.164-0.066,0.382-0.155,0.572-0.168c0.059-0.275-0.071-0.537-0.175-0.748c-0.061-0.121-0.121-0.244-0.181-0.364
				c-0.104-0.21-0.237-0.345-0.315-0.501c-0.155-0.314-0.202-0.547-0.39-0.785c-0.133-0.135-0.021-0.18,0.01-0.255
				c-0.078-0.157-0.221-0.036-0.217-0.164c-0.217-0.853-1.074-1.202-1.126-1.995c-0.136-0.134-0.272-0.268-0.325-0.373
				c-0.052-0.104-0.02-0.179-0.014-0.309c-0.051-0.104-0.136-0.133-0.188-0.237c-0.102-0.252-0.203-0.503-0.306-0.755
				c-0.015-0.077-0.03-0.155-0.045-0.232c-0.052-0.104-0.012-0.308-0.004-0.435c-0.052-0.104-0.189-0.239-0.181-0.367
				c-0.053-0.104-0.02-0.181,0.014-0.255c-0.051-0.104-0.104-0.209-0.155-0.313c0.034-0.076,0.069-0.151,0.044-0.203
				c0.06-0.022-0.112-0.082-0.078-0.157c0,0,0.061-0.023,0.034-0.075c-0.068-0.284-0.258-0.523-0.301-0.757
				c0.071-0.15,0.055-0.33,0.125-0.481c-0.153-0.314-0.292-0.447-0.209-0.728c-0.025-0.054-0.051-0.104-0.076-0.156
				c-0.102-0.21-0.104-0.519-0.207-0.729c-0.034-0.069-0.066-0.14-0.102-0.209c-0.126-0.262-0.253-0.524-0.38-0.787
				c-0.127-0.262-0.191-0.547-0.078-0.773c-0.089-0.027-0.151-0.007-0.213,0.018c0.073-0.15-0.126-0.263-0.203-0.42
				c0.049-0.203,0.215-0.324,0.242-0.582c-0.101-0.209-0.241-0.035-0.419-0.094c-0.025-0.052-0.089-0.029-0.114-0.082
				c-0.076-0.156,0.041-0.385-0.035-0.543c-0.075-0.156-0.306-0.318-0.188-0.547c-0.075-0.156-0.165-0.188-0.255-0.217
				c-0.061-0.286-0.097-0.52-0.197-0.729c-0.051-0.104-0.102-0.211-0.216-0.291c0.055-0.205,0.062-0.515,0.001-0.801
				c0.255-0.273,0.972-0.22,1.161-0.468c0.198-0.067,0.38-0.009,0.511-0.054c0.198-0.066,0.126-0.225,0.259-0.271
				c0.18,0.06,0.42-0.081,0.644-0.095c0.289-0.034,0.4,0.048,0.688,0.016c0.176-0.059,0.353-0.115,0.528-0.173
				c0.597-0.192,0.911,0.188,1.505,0.003c0.044-0.015,0.088-0.027,0.132-0.042c0.42,0.108,0.946,0.128,1.297,0.259
				c0.656,0.695,1.765,0.545,2.4,1.25c0.322,0.084,0.576,0.366,0.896,0.453c0.124,0.318,0.395,0.655,0.116,0.854
				c0.042,0.105,0.212-0.002,0.253,0.104c0.021,0.055,0.042,0.107,0.062,0.16c0.123,0.318,0.479,0.514,0.793,0.6
				c0.125,0.144,0.269,0.338,0.369,0.604c0.142,0.374,0.282,0.747,0.423,1.121c0.103,0.089,0.205,0.178,0.245,0.284
				c0.104,0.088,0.08,0.213,0.121,0.32c0.08,0.213,0.203,0.354,0.263,0.516c0.041,0.105,0.02,0.23-0.084,0.318
				c0.067,0.178,0.135,0.356,0.202,0.534c0.102,0.267,0.223,0.587,0.142,0.729c0.061,0.16,0.222,0.23,0.223,0.408
				c0.479,0.393,0.485,1.278,1.079,1.638c-0.021,0.126,0.02,0.231,0.081,0.392c0.08,0.215,0.239,0.463,0.317,0.676
				c-0.019,0.127-0.057,0.195-0.036,0.248c0.041,0.108,0.138,0.196,0.12,0.321c0.021,0.054-0.037,0.069-0.056,0.192
				c-0.018,0.125,0.14,0.373-0.012,0.48c0.002,0.176,0.154,0.072,0.195,0.18c-0.055,0.192,0.145,0.549,0.188,0.832
				c0.041,0.108-0.014,0.303,0.027,0.408c0.061,0.161,0.292,0.27,0.393,0.536c0.027,0.071,0.054,0.142,0.081,0.214
				c0.062,0.158,0.106,0.443,0.262,0.692c-0.102,0.388,0.172,0.78,0.225,1.241c-0.378,0.296-0.193,0.775-0.34,1.182
				c0.096,0.09,0.231,0.285,0.293,0.445c0.042,0.107,0.083,0.212-0.003,0.301c0.008,0.176,0.127,0.02,0.168,0.125
				c0.227,0.586,0.23,1.363,0.325,2.055c-0.01,0.125-0.062,0.143-0.146,0.229c0.084,0.213,0.022,0.354,0.087,0.513
				c0.021,0.055,0.094,0.092,0.136,0.196c-0.027,0.37,0.161,0.55,0.206,0.956c0.042,0.105,0.057,0.283,0.077,0.337
				c-0.008,0.124-0.118,0.282-0.104,0.459c0.171,0.425-0.153,0.478-0.166,0.724c-0.029,0.071,0.015,0.176-0.064,0.266
				c-0.063,0.266-0.246,0.513-0.328,0.726c-0.243-0.034-0.297,0.108-0.495,0.181c-0.324,0.178-0.743,0.272-1.016,0.438
				c-0.164,0.063-0.329,0.125-0.493,0.188c-0.197,0.076-0.394,0.152-0.638,0.125c-0.222,0.023-0.491-0.183-0.812-0.242
				c-0.049,0.021,0,0.125-0.05,0.146c-0.246-0.026-0.468-0.124-0.741-0.077c-0.197-0.045-0.348-0.234-0.622-0.186
				c-0.225-0.098-0.4-0.338-0.678-0.414c-0.201-0.168-0.379-0.409-0.558-0.525c-0.127-0.137,0.101-0.167,0.049-0.271
				c-0.304,0-0.434-0.135-0.563-0.397c-0.068-0.14-0.138-0.278-0.207-0.419c-0.052-0.104-0.256-0.271-0.334-0.43
				c-0.129-0.135-0.154-0.313-0.284-0.449c-0.026-0.053-0.104-0.083-0.131-0.137c-0.025-0.051-0.052-0.104-0.077-0.155
				c-0.156-0.313-0.259-0.649-0.521-0.668c-0.287,0.308-0.626,0.513-0.99,0.667c-0.491,0.271-1.038,0.445-1.606,0.699
				c-0.361,0.16-0.747,0.398-1.049,0.668c0.085,0.154-0.013,0.328,0.104,0.535c0.02,0.035,0.038,0.068,0.057,0.104
				c-0.298,0.27,0.229,0.869,0.173,1.221c0.152,0.385,0.435,0.773,0.608,1.084c0.086,0.154-0.023,0.402,0.203,0.361
				c-0.159,0.271-0.032,0.604-0.091,0.828c-0.039,0.15-0.136,0.197-0.174,0.348c-0.067,0.1-0.008,0.201,0.003,0.328
				c-0.058,0.225-0.143,0.398-0.227,0.573c-0.007,0.2-0.06,0.427-0.142,0.601c-0.032,0.018-0.064,0.032-0.096,0.049
				c-0.145,0.072-0.146,0.272-0.259,0.396c-0.095,0.049-0.206,0.173-0.284,0.146c-0.063,0.101-0.127,0.199-0.223,0.248
				c-0.331,0.172-0.816,0.09-1.194,0.291c-0.079,0.041-0.158,0.084-0.236,0.125c-0.047,0.025-0.158-0.051-0.206-0.025
				c-0.173,0.025-0.236,0.127-0.361,0.128c-0.047,0.024-0.16-0.05-0.365-0.074c-0.126,0.001-0.27,0.078-0.396,0.078
				c-0.207-0.021-0.527-0.121-0.77-0.192c-0.126,0.002-0.159-0.047-0.241-0.072c-0.37-0.068-0.607,0.064-0.904-0.184
				c-0.548-0.037-1.203-0.219-1.545-0.72c-0.164-0.044-0.281-0.117-0.349-0.216c-0.092-0.135-0.183-0.268-0.273-0.4
				c-0.152-0.123-0.353-0.217-0.455-0.365c-0.063-0.127-0.127-0.252-0.19-0.377c-0.206-0.303-0.624-0.41-0.915-0.731
				c-0.034-0.05-0.068-0.101-0.104-0.149c-0.138-0.199-0.226-0.428-0.363-0.627c-0.033-0.05-0.068-0.1-0.103-0.148
				c-0.104-0.15,0.049-0.236-0.054-0.387c-0.034-0.051-0.119-0.07-0.068-0.1c-0.309-0.243-0.565-0.514-0.806-0.863
				c-0.241-0.35-0.431-0.728-0.688-0.998c-0.068-0.1-0.121-0.07-0.188-0.171c-0.046-0.065-0.092-0.133-0.138-0.198
				c-0.104-0.15-0.207-0.301-0.224-0.43c-0.189-0.171-0.38-0.341-0.484-0.49c-0.172-0.248-0.291-0.527-0.321-0.785
				c-0.046-0.067-0.093-0.135-0.138-0.201c-0.207-0.299-0.536-0.67-0.51-0.959c-0.23-0.01-0.388-0.131-0.492-0.279
				c-0.103-0.148-0.15-0.328-0.289-0.527c-0.089-0.021-0.213-0.091-0.248-0.141c-0.241-0.35-0.282-0.738-0.455-0.988
				c-0.021-0.033-0.045-0.066-0.067-0.101c-0.159-0.12-0.43-0.179-0.624-0.349c-0.046-0.065-0.092-0.133-0.138-0.199
				c-0.241-0.348-0.439-0.857-0.749-1.309c-0.047-0.066-0.093-0.133-0.139-0.199c-0.104-0.148-0.264-0.268-0.401-0.467
				c-0.023-0.033-0.046-0.066-0.069-0.101c-0.069-0.101-0.021-0.263-0.125-0.412c-0.103-0.149-0.299-0.317-0.438-0.519
				c-0.068-0.101-0.103-0.147-0.113-0.28c-0.068-0.099-0.187-0.036-0.313-0.104c-0.355-0.63-0.701-1.127-1.027-1.842
				c-0.114-0.281-0.036-0.525-0.208-0.775c-0.068-0.101-0.232-0.219-0.274-0.4c-0.008-0.13-0.017-0.264-0.093-0.495
				c0-0.001-0.129-0.065-0.068-0.099c-0.034-0.051,0.027-0.084,0.027-0.084C6.876,81.7,6.59,81.647,6.731,81.368
				c-0.353-0.765-0.475-1.312-0.728-2.06c0.059-0.165-0.042-0.315,0.078-0.513c-0.022-0.032-0.045-0.065-0.067-0.101
				c-0.338-0.502,0.285-1.221,0.665-1.675c0.697-0.611,1.725-1.107,2.595-1.579C9.531,75.581,9.852,75.43,10.171,75.413z"/>
			<path fill="#282D33" d="M46.827,78.881c0.544,0.177,0.844,0.627,1.32,0.815c0.04,0.162,0.17,0.193,0.152,0.366
				c0.332,0.105,0.436,0.538,0.694,0.602c0.077,0.324,0.265,0.346,0.327,0.614c0.225,0.185,0.339,0.162,0.472,0.476
				c0.038,0.162,0.031,0.389,0.057,0.496c0.026,0.106,0.107,0.205,0.189,0.303c0.074,0.322,0.056,0.494,0.231,0.742
				c-0.076,0.186,0.093,0.658-0.093,0.863c0.137,0.084,0.188,0.301,0.225,0.463c0.03,0.125,0.06,0.252,0.089,0.377
				c-0.251,0.16-0.23,0.496-0.411,0.699c0.111,0.713-0.46,0.939-0.541,1.525c0.135,0.313,0.296,0.504,0.576,0.729
				c0.035-0.008,0.071-0.016,0.107-0.021c0.268-0.057,0.39-0.249,0.604-0.292c0.035-0.007,0.07-0.015,0.105-0.021
				c0.218-0.27,0.637-0.408,0.979-0.64c0.384-0.296,0.858-0.718,1.24-0.783c0.076-0.18,0.098-0.351,0.239-0.487
				c0.11-0.019,0.132,0.092,0.188,0.082c0.121-0.15,0.241-0.301,0.363-0.451c0.221-0.034,0.168-0.305,0.443-0.348
				c0.037-0.006,0.074-0.012,0.11-0.017c0.46-0.573,1.062-1.048,1.615-1.509c0.103-0.067,0.271-0.092,0.327-0.098
				c0.16-0.076,0.246-0.252,0.463-0.337c0.16-0.075,0.33-0.097,0.491-0.171c0.313-0.203,0.493-0.552,0.819-0.699
				c0.113-0.013,0.17-0.019,0.276-0.084c0.114-0.014,0.214-0.134,0.263-0.193c0.221-0.078,0.449-0.102,0.606-0.227
				c0.038-0.005,0.076-0.009,0.114-0.013c0.107-0.065,0.164-0.069,0.28-0.082c0.336-0.087,0.629-0.062,1.028-0.097
				c0.5,0.336,0.399,0.996,0.572,1.521c-0.158,0.122-0.194,0.289-0.426,0.256c-0.132,0.338-0.199,0.725-0.521,0.864
				c-0.035,0.167,0.033,0.271,0.047,0.376c-0.25,0.243-0.499,0.486-0.562,0.876c-0.036,0.004-0.072,0.009-0.107,0.013
				c-0.221,0.023-0.254,0.19-0.295,0.305c-0.522,0.224-0.797,0.642-1.011,1.051c-0.324,0.041-0.33,0.372-0.573,0.568
				c-0.197,0.137-0.42,0.111-0.563,0.24c-0.106,0.016-0.027,0.17-0.125,0.238c-0.365,0.105-0.346,0.546-0.77,0.609
				c-0.097,0.07-0.077,0.177-0.236,0.201c-0.042,0.063-0.024,0.17-0.066,0.23c-0.437,0.29-0.659,0.548-1.107,0.734
				c-0.356,0.393-0.833,0.701-1.189,1.047c-0.114-0.035-0.218-0.018-0.27-0.008c-0.259,0.05-0.367,0.295-0.624,0.345
				c-0.132,0.139-0.301,0.34-0.453,0.371c-0.104,0.021-0.153,0.03-0.219-0.015c-0.09,0.076-0.064,0.184-0.167,0.205
				c-0.307,0.063-0.396,0.137-0.664,0.137c-0.523,0.281-1.296,0.621-1.954,0.777c-0.406,0.094-0.774,0.125-1.059,0.08
				c-0.167-0.018-0.137,0.092-0.253,0.063c-0.973,0.01-1.829-0.112-2.645-0.418c0.018-0.12-0.085-0.094-0.103-0.146
				c-0.102,0.027-0.152,0.042-0.323,0.03c-0.205-0.294-0.634-0.411-0.738-0.731c-0.327,0.032-0.536-0.084-0.694-0.392
				c-0.104,0.028-0.174-0.011-0.33,0.032c-0.75-0.371-1.432-1.176-2.071-1.991c0.069-0.138-0.129-0.198-0.167-0.306
				c-0.037-0.107,0.017-0.123-0.002-0.176c-0.055-0.043-0.108-0.086-0.164-0.131c-0.201-0.234-0.261-0.572-0.354-0.84
				c-0.032-0.089-0.063-0.178-0.094-0.268c-0.226-0.465-0.541-0.846-0.693-1.272c-0.076-0.215-0.097-0.444-0.209-0.589
				c0.091-0.085-0.04-0.282,0.072-0.314c-0.076-0.037-0.095-0.092-0.114-0.145c-0.057-0.161-0.02-0.408-0.001-0.529
				c-0.019-0.054-0.169-0.129-0.207-0.236c0.076-0.666-0.112-1.379,0.354-1.857c-0.203-0.59,0.413-0.639,0.387-1.096
				c0.197-0.17,0.472-0.299,0.612-0.451c0.28-0.305,0.487-0.646,0.656-0.919c0.061-0.017,0.103-0.082,0.145-0.149
				c0.161-0.099,0.48-0.291,0.687-0.455c0.205-0.164,0.443-0.219,0.59-0.369c0.119-0.026,0.207-0.162,0.311-0.242
				c0.12-0.026,0.194,0.013,0.255,0c0.163-0.094,0.327-0.188,0.507-0.229c0.239-0.053,0.374-0.023,0.553-0.063
				c0.06-0.014,0.12-0.025,0.226-0.105C45.425,78.313,46.319,78.36,46.827,78.881z M45.599,83.411
				c-0.076,0.019-0.15,0.034-0.226,0.053c-0.624,0.143-1.067,0.479-0.921,0.963c0.016,0.056,0.031,0.109,0.009,0.23
				c-0.035,0.086-0.069,0.17-0.104,0.256c0.042,0.336,0.297,0.791,0.341,1.129c-0.007,0.174,0.042,0.334,0.091,0.496
				c0.032,0.107,0.064,0.215,0.15,0.31c0.125,0.026,0.305,0.041,0.469,0c0.488-0.119,0.958-0.517,1.28-0.819
				c0.174-0.213,0.311-0.355,0.362-0.598c0.08-0.133,0.246-0.17,0.217-0.276c0.038-0.294-0.006-0.683-0.093-1.005
				c-0.072-0.27-0.145-0.539-0.357-0.663c-0.382-0.089-0.726-0.241-1.179-0.139C45.625,83.292,45.528,83.372,45.599,83.411z"/>
			<path fill="#282D33" d="M63.035,58.892c0.512,0.151,0.74,0.36,1.185,0.621c0.295,0.157,0.8,0.313,0.817,0.633
				c0.003,0.054-0.064,0.106-0.063,0.161c0.009,0.158,0.361,0.156,0.159,0.316c0.21,0,0.356,0.051,0.428,0.104
				c0.236,0.479,0.746,0.956,0.768,1.437c0.007,0.16-0.06,0.269-0.12,0.428c0.078,0.214,0.157,0.425,0.169,0.691
				c0.007,0.16,0.011,0.268-0.119,0.428c0.145,0.158,0.362,0.479,0.371,0.69c0.007,0.16-0.059,0.214-0.121,0.32
				c0.276,0.104,0.352,0.317,0.36,0.53c0.011,0.267-0.113,0.533-0.236,0.802c0.143,0.213,0.221,0.478,0.23,0.743
				c0.01,0.215-0.048,0.48-0.237,0.643c0.138,0.159,0.343,0.316,0.353,0.583c0.002,0.054,0.004,0.106-0.056,0.214
				c-0.066,0.001-0.195,0.055-0.195,0.055c0.002,0.055,0.004,0.107,0.007,0.16c0.012,0.268,0.087,0.532,0.097,0.746
				c0.001,0.035,0.003,0.07,0.004,0.106c-0.056,0.213-0.308,0.377-0.364,0.538c-0.121,0.215,0.021,0.426-0.103,0.588
				c0.007,0.16,0.199,0.156,0.208,0.316c-0.044,0.428-0.218,0.857-0.517,1.184c0.068,0.105,0.073,0.213,0.079,0.32
				c0.013,0.266-0.163,0.535-0.407,0.649c0.078,0.267-0.105,0.323-0.097,0.483c0.003,0.054,0.006,0.107,0.009,0.16
				c-0.484,0.229-0.256,0.971-0.669,1.252c0.006,0.09,0.011,0.18,0.018,0.269c0.007,0.106-0.117,0.11-0.175,0.167
				c-0.043,0.271-0.021,0.59-0.322,0.656c-0.025,0.537-0.304,0.871-0.579,1.208c0.131,0.153,0.19,0.151,0.146,0.368
				c0.192,0.15,0.271,0.416,0.35,0.681c0.007,0.106-0.17,0.114-0.166,0.17c0.195,0.259,0.098,0.531,0.293,0.79
				c0.004,0.053,0.008,0.105,0.011,0.16c0.027,0.374,0.231,0.794,0.253,1.113c0.011,0.16-0.037,0.324-0.139,0.49
				c0.007,0.106,0.122,0.102,0.133,0.262c-0.118-0.047-0.172,0.009-0.23,0.013c0.013,0.161,0.237,0.095,0.248,0.255
				c0.016,0.214-0.021,0.484,0.212,0.579c-0.053,0.058-0.042,0.218-0.155,0.224c0.063,0.104,0.245,0.254,0.255,0.416
				c0,0-0.052,0.055-0.048,0.109c0.229,0.041,0.141,0.421,0.426,0.461c0.022,0.373,0.218,0.791,0.458,1.102
				c0.063,0.104-0.104,0.111-0.043,0.217c0.006,0.105,0.289,0.199,0.188,0.365c0.28,0.092,0.238,0.309,0.414,0.514
				c0.348,0.359,0.899,0.494,1.497,0.474c0.38-0.013,0.813-0.133,1.193-0.247c0.867-0.285,1.303-0.82,1.854-0.98
				c0.222-0.106,0.388-0.267,0.555-0.424c0.609-0.052,0.783-0.578,1.292-0.729c0.342-0.364,0.747-0.727,1.318-0.921
				c0.119-0.154,0.238-0.31,0.524-0.353c0.113,0.004,0.006-0.156,0.119-0.152c0.175-0.102,0.352-0.197,0.583-0.241
				c0.118-0.101,0.298-0.251,0.529-0.292c0.528-0.238,0.843-0.641,1.378-0.818c0.259-0.404,1.038-0.671,1.68-0.621
				c0.523,0.039,0.912,0.28,0.854,0.853c-0.041,0.415-0.249,0.765-0.443,1.011c-0.066,0.1-0.304,0.188-0.432,0.334
				c-0.246,0.191-0.44,0.49-0.74,0.682c-0.078,0.256-0.26,0.4-0.552,0.541c-0.016,0.209-0.242,0.248-0.364,0.398
				c-0.116,0.045-0.124,0.15-0.183,0.199c-0.119,0.099-0.288,0.142-0.407,0.24c-0.411,0.348-0.712,0.754-1.27,0.943
				c-0.004,0.069-0.007,0.141-0.011,0.209c-0.626,0.449-1.401,0.801-1.853,1.479c-0.379,0.101-0.6,0.361-0.923,0.465
				c-0.221,0.367-0.806,0.42-0.967,0.845c-0.531,0.058-0.742,0.431-1.266,0.492c-0.106,0.002-0.053,0.106-0.157,0.161
				c-0.07,0.002-0.141,0.003-0.21,0.005c-0.21,0.005-0.367,0.063-0.471,0.118c-0.053,0.001-0.104,0.003-0.157,0.004
				c-0.263,0.008-0.468,0.174-0.729,0.184c-0.052,0.002-0.104,0.004-0.156,0.006c-0.053-0.033-0.106-0.066-0.16-0.102
				c-0.209,0.009-0.313,0.066-0.476-0.086c-0.05,0.057,0.006,0.16-0.097,0.218c-0.313,0.015-0.577-0.026-0.689-0.181
				c-0.151,0.113-0.309,0.121-0.465,0.131c-0.313,0.018-0.634-0.068-1.154,0.02c-0.437-0.24-1.222-0.182-1.526-0.643
				c-0.162-0.041-0.153,0.066-0.312,0.08c-0.014-0.161-0.225-0.145-0.288-0.246c-0.152,0.066-0.216-0.036-0.375-0.021
				c-0.581-0.49-1.354-0.688-1.953-1.168c-0.065-0.103-0.078-0.209-0.192-0.252c-0.248-0.248-0.544-0.433-0.802-0.731
				c-0.01-0.071-0.02-0.144-0.027-0.216c-0.108,0.013-0.184-0.143-0.354-0.178c-0.035-0.27-0.331-0.4-0.431-0.717
				c-0.007-0.055,0.041-0.113,0.034-0.167c-0.139-0.202-0.279-0.405-0.419-0.608c-0.148-0.256-0.178-0.471-0.328-0.729
				c-0.007-0.053-0.135-0.148-0.143-0.201c-0.144-0.203-0.118-0.425-0.212-0.688c-0.103-0.316-0.313-0.566-0.416-0.883
				c-0.032-0.215-0.063-0.43-0.096-0.646c-0.03-0.216-0.063-0.431-0.037-0.651c-0.022-0.162-0.14-0.149-0.222-0.305
				c-0.297-1.225-0.673-2.113-0.886-3.512c0.052-0.063,0.095-0.176,0.14-0.29c-0.016-0.106-0.197-0.088-0.213-0.195
				c-0.017-0.108,0.036-0.167,0.02-0.276c-0.049-0.32-0.229-0.686-0.285-1.063c-0.018-0.105-0.033-0.215,0.013-0.328
				c-0.243-0.357-0.293-0.681-0.43-1.158c-0.079-0.1-0.16-0.201-0.177-0.31c-0.024-0.162,0.076-0.337,0.043-0.554
				c-0.104-0.262-0.327-0.457-0.369-0.725c-0.01-0.056,0.046-0.115,0.038-0.17c-0.08-0.101-0.161-0.201-0.179-0.31
				c-0.024-0.16,0.015-0.33-0.011-0.492c-0.025-0.161-0.042-0.269-0.189-0.362c-0.017-0.107,0.04-0.168,0.089-0.283
				c-0.368-0.672-0.481-1.371-0.693-2.281c-0.017-0.106,0.105-0.174,0.181-0.127c-0.017-0.107-0.147-0.094-0.174-0.256
				c0.023-0.275-0.179-0.693-0.154-0.971c-0.025-0.16,0.091-0.281,0.073-0.39c-0.033-0.069-0.066-0.14-0.101-0.209
				c-0.043-0.271,0.032-0.659,0.118-0.995c0.034-0.659,0.27-1.393,0.688-1.863c0.122-0.121-0.016-0.109,0.022-0.33
				c0.068-0.008,0.061-0.06,0.053-0.113c-0.04-0.27,0.292-0.405,0.395-0.687c0.046-0.168,0.163-0.341,0.204-0.562
				c0.405-0.139,0.433-0.469,0.849-0.553c-0.028-0.215,0.17-0.338,0.367-0.459c0.222-0.504,0.912-0.709,1.446-1.063
				c0.635-0.091,1.268-0.228,1.751-0.409c0.21-0.063,0.22,0.044,0.437,0.036c0.275-0.118,0.629-0.185,0.985-0.196
				C62.025,58.809,62.531,58.85,63.035,58.892z M61.295,65.715c0.146,0.102,0.217,0.15,0.227,0.26c0.016,0.16-0.172,0.33-0.156,0.49
				c0.01,0.107,0.22,0.205,0.229,0.313c-0.052,0.164-0.307,0.284-0.292,0.445c0.036,0.374,0.536,0.781,0.573,1.21
				c0.01,0.106-0.224,0.44-0.203,0.655c0.008,0.09,0.017,0.18,0.025,0.269c0.028,0.322-0.022,0.485-0.452,0.726
				c0.491,0.404,0.792,0.873,1.151,1.338c-0.305,0.179-0.411,0.398-0.386,0.666c0.024,0.27,0.242,0.58,0.265,0.849
				c0.184-0.063,0.256,0.041,0.501-0.026c0.288-0.336,0.118-0.865,0.078-1.348c-0.025-0.32,0.012-0.646,0.379-0.876
				c-0.137-0.103-0.206-0.154-0.219-0.313c0.792-0.623,0.197-1.67,0.479-2.271c0.057-0.109,0.375-0.28,0.438-0.336
				c0.113-0.271,0.162-0.54,0.145-0.809c-0.05-0.748-0.572-1.537-0.953-2.063C62.188,65.084,61.877,65.418,61.295,65.715z
				 M64.858,82.042c0.055-0.057-0.008-0.106-0.116-0.047C64.802,82.043,64.858,82.042,64.858,82.042z"/>
			<path fill="#282D33" d="M86.218,60.325c0.474,0.229,0.657,0.465,1.042,0.784c0.259,0.196,0.726,0.429,0.678,0.733
				c-0.008,0.051-0.085,0.091-0.093,0.143c-0.023,0.153,0.324,0.208,0.092,0.328c0.208,0.033,0.341,0.105,0.401,0.17
				c0.137,0.491,0.543,1.027,0.467,1.487c-0.025,0.153-0.111,0.243-0.204,0.385c0.034,0.215,0.069,0.431,0.027,0.685
				c-0.025,0.152-0.042,0.254-0.203,0.387c0.11,0.174,0.261,0.513,0.227,0.716c-0.024,0.153-0.101,0.192-0.184,0.282
				c0.251,0.146,0.283,0.361,0.248,0.563c-0.043,0.253-0.219,0.486-0.396,0.72c0.1,0.226,0.122,0.49,0.079,0.744
				c-0.033,0.203-0.144,0.447-0.364,0.567c0.104,0.174,0.274,0.358,0.23,0.612c-0.008,0.05-0.018,0.102-0.099,0.193
				c-0.066-0.012-0.204,0.018-0.204,0.018c-0.008,0.053-0.018,0.104-0.025,0.154c-0.042,0.254-0.021,0.519-0.056,0.723
				c-0.006,0.033-0.011,0.066-0.017,0.102c-0.099,0.193-0.381,0.307-0.469,0.45c-0.163,0.185-0.066,0.407-0.22,0.54
				c-0.025,0.152,0.166,0.184,0.141,0.336c-0.13,0.396-0.387,0.775-0.748,1.036c0.047,0.11,0.029,0.213,0.014,0.315
				c-0.041,0.254-0.27,0.481-0.533,0.551c0.023,0.264-0.17,0.289-0.194,0.441c-0.008,0.051-0.016,0.104-0.022,0.153
				c-0.525,0.138-0.448,0.877-0.913,1.077c-0.012,0.085-0.024,0.171-0.037,0.257c-0.015,0.101-0.138,0.085-0.205,0.129
				c-0.097,0.25-0.141,0.556-0.451,0.569c-0.133,0.505-0.475,0.777-0.813,1.051c0.098,0.169,0.157,0.176,0.069,0.374
				c0.159,0.175,0.183,0.438,0.207,0.702c-0.014,0.102-0.19,0.082-0.197,0.134c0.142,0.276-0.012,0.521,0.13,0.797
				c-0.007,0.052-0.015,0.103-0.021,0.153c-0.049,0.359,0.067,0.791,0.024,1.098c-0.021,0.154-0.102,0.303-0.236,0.443
				c-0.014,0.102,0.1,0.113,0.078,0.27c-0.106-0.064-0.171-0.02-0.229-0.025c-0.021,0.152,0.216,0.127,0.194,0.281
				c-0.029,0.205-0.12,0.455,0.092,0.584c-0.063,0.043-0.085,0.198-0.198,0.187c0.043,0.108,0.189,0.28,0.168,0.437
				c0,0-0.063,0.045-0.07,0.096c0.218,0.078,0.055,0.423,0.328,0.507c-0.052,0.358,0.055,0.786,0.229,1.118
				c0.041,0.109-0.126,0.091-0.086,0.199c-0.015,0.102,0.246,0.235,0.112,0.377c0.259,0.133,0.173,0.332,0.306,0.555
				c0.271,0.396,0.789,0.615,1.385,0.693c0.379,0.051,0.83,0.008,1.229-0.039c0.916-0.127,1.455-0.561,2.035-0.623
				c0.24-0.063,0.437-0.188,0.635-0.31c0.615,0.054,0.894-0.416,1.427-0.476c0.413-0.287,0.888-0.563,1.495-0.651
				c0.148-0.125,0.298-0.251,0.591-0.245c0.111,0.021,0.038-0.146,0.149-0.125c0.194-0.064,0.389-0.128,0.627-0.131
				c0.137-0.074,0.347-0.188,0.585-0.188c0.573-0.137,0.967-0.465,1.535-0.543c0.338-0.34,1.168-0.459,1.797-0.303
				c0.513,0.125,0.851,0.422,0.68,0.952c-0.124,0.386-0.4,0.683-0.646,0.882c-0.086,0.082-0.339,0.123-0.496,0.242
				c-0.284,0.141-0.538,0.391-0.875,0.52c-0.129,0.229-0.338,0.336-0.657,0.42c-0.058,0.195-0.292,0.193-0.442,0.315
				c-0.125,0.022-0.153,0.121-0.222,0.158c-0.138,0.071-0.314,0.087-0.453,0.159c-0.479,0.26-0.859,0.593-1.451,0.68
				c-0.019,0.064-0.036,0.131-0.054,0.196c-0.713,0.321-1.553,0.522-2.136,1.09c-0.396,0.032-0.668,0.243-1.01,0.287
				c-0.293,0.312-0.884,0.264-1.129,0.64c-0.538-0.035-0.822,0.283-1.354,0.256c-0.105-0.016-0.073,0.092-0.188,0.129
				c-0.069-0.012-0.14-0.021-0.209-0.031c-0.208-0.03-0.376-0.002-0.489,0.035c-0.052-0.008-0.104-0.016-0.157-0.022
				c-0.261-0.035-0.498,0.088-0.759,0.056c-0.052-0.008-0.104-0.015-0.156-0.021c-0.046-0.04-0.092-0.081-0.139-0.122
				c-0.208-0.026-0.322,0.011-0.452-0.159c-0.062,0.044-0.026,0.15-0.14,0.189c-0.313-0.037-0.565-0.118-0.646-0.283
				c-0.174,0.083-0.33,0.064-0.486,0.048c-0.313-0.034-0.611-0.169-1.144-0.171c-0.383-0.299-1.169-0.37-1.376-0.855
				c-0.152-0.066-0.164,0.039-0.322,0.025c0.02-0.156-0.192-0.173-0.233-0.281c-0.165,0.04-0.206-0.068-0.365-0.08
				c-0.474-0.56-1.195-0.869-1.688-1.424c-0.044-0.107-0.034-0.211-0.139-0.27c-0.193-0.274-0.448-0.498-0.641-0.823
				c0.005-0.069,0.011-0.14,0.016-0.209c-0.108-0.007-0.151-0.166-0.312-0.228c0.02-0.261-0.244-0.433-0.278-0.748
				c0.004-0.053,0.063-0.102,0.067-0.152c-0.097-0.215-0.192-0.43-0.29-0.645c-0.095-0.268-0.081-0.478-0.177-0.744
				c0.003-0.053-0.103-0.162-0.099-0.215c-0.1-0.216-0.03-0.422-0.07-0.686c-0.036-0.316-0.191-0.588-0.229-0.903
				c0.012-0.209,0.024-0.419,0.037-0.628s0.024-0.419,0.095-0.625c0.01-0.156-0.106-0.164-0.157-0.324
				c-0.045-1.209-0.233-2.113-0.162-3.475c0.063-0.051,0.128-0.15,0.196-0.252c0.006-0.104-0.176-0.116-0.17-0.221
				c0.006-0.104,0.069-0.152,0.075-0.258c0.018-0.313-0.085-0.688-0.066-1.056c0.006-0.104,0.011-0.209,0.08-0.31
				c-0.167-0.379-0.151-0.693-0.188-1.17c-0.059-0.107-0.116-0.217-0.111-0.32c0.008-0.158,0.143-0.309,0.154-0.518
				c-0.051-0.267-0.229-0.486-0.218-0.748c0.003-0.053,0.068-0.104,0.071-0.154c-0.058-0.109-0.117-0.217-0.112-0.322
				c0.009-0.156,0.08-0.311,0.088-0.469c0.008-0.156,0.014-0.262-0.111-0.374c0.005-0.104,0.072-0.152,0.143-0.255
				c-0.226-0.697-0.194-1.379-0.22-2.275c0.005-0.105,0.139-0.148,0.202-0.093c0.005-0.104-0.126-0.113-0.119-0.271
				c0.078-0.259-0.036-0.688,0.044-0.945c0.007-0.156,0.145-0.254,0.15-0.357c-0.02-0.07-0.038-0.145-0.057-0.215
				c0.013-0.264,0.165-0.62,0.316-0.926c0.167-0.619,0.544-1.276,1.051-1.657c0.144-0.095,0.006-0.104,0.088-0.31
				c0.068,0.006,0.071-0.047,0.075-0.099c0.015-0.262,0.368-0.339,0.525-0.588c0.078-0.151,0.229-0.297,0.313-0.499
				c0.425-0.066,0.518-0.374,0.943-0.387c0.016-0.208,0.234-0.292,0.454-0.376c0.318-0.44,1.039-0.525,1.636-0.772
				c0.642,0.018,1.292-0.009,1.805-0.103c0.22-0.024,0.208,0.077,0.422,0.104c0.295-0.066,0.656-0.072,1.011-0.023
				C85.239,60.081,85.729,60.204,86.218,60.325z M83.128,66.508c0.123,0.121,0.183,0.18,0.171,0.283
				c-0.02,0.153-0.237,0.285-0.254,0.439c-0.012,0.104,0.176,0.23,0.164,0.334c-0.083,0.146-0.36,0.221-0.377,0.374
				c-0.041,0.36,0.371,0.828,0.32,1.24c-0.013,0.104-0.309,0.383-0.333,0.589c-0.01,0.087-0.02,0.173-0.029,0.259
				c-0.036,0.312-0.12,0.457-0.592,0.614c0.402,0.463,0.604,0.956,0.864,1.456c-0.336,0.118-0.484,0.312-0.515,0.569
				c-0.03,0.256,0.121,0.588,0.09,0.847c0.193-0.03,0.243,0.079,0.5,0.057c0.351-0.271,0.291-0.802,0.348-1.266
				c0.039-0.308,0.142-0.61,0.551-0.769c-0.114-0.119-0.173-0.18-0.152-0.332c0.906-0.461,0.531-1.554,0.931-2.078
				c0.078-0.094,0.427-0.203,0.499-0.246c0.167-0.238,0.269-0.485,0.305-0.741c0.103-0.718-0.255-1.552-0.523-2.111
				C84.134,66.057,83.76,66.325,83.128,66.508z M83.348,82.57c0.064-0.045,0.014-0.103-0.104-0.063
				C83.292,82.563,83.348,82.57,83.348,82.57z"/>
			<path fill="#282D33" d="M105.048,80.008c0.297,0.092,0.713,0.222,1.109,0.4c0.218,0.123,0.515,0.219,0.731,0.344
				c0.199,0.17,0.417,0.453,0.73,0.666c0.079,0.025,0.156,0.053,0.234,0.078c0.471,0.158,0.743,0.465,1.091,0.744
				c0.127,0.784,1.121,1.404,1.239,2.299c0.15,0.108-0.012,0.315,0.194,0.443c-0.078,0.023-0.101,0.07-0.121,0.115
				c-0.042,0.09,0.028,0.225-0.113,0.384c-0.021,0.044,0.048,0.177,0.005,0.267c0.035,0.065-0.008,0.158-0.063,0.138
				c0.076,0.397-0.006,0.847-0.243,1.343c-0.142,0.16-0.316,0.256-0.402,0.438c-0.021,0.045,0.012,0.109-0.01,0.154
				c0.025,0.223,0.146,0.371,0.42,0.473c0.054,0.021,0.109,0.041,0.164,0.062c0.7-0.11,1.38,0.097,2.119,0.065
				c0.128,0.051,0.255,0.102,0.383,0.152c0.022-0.045,0.188,0.02,0.188,0.02c0.5-0.067,1.009-0.02,1.512-0.08
				c0.479-0.018,1.04-0.051,1.546-0.102c0.251,0,0.502,0.002,0.754,0.004c0.455-0.07,0.887-0.097,1.405-0.024
				c0.271,0.014,0.493,0.114,0.846,0.112c0.328,0.045,0.38-0.043,0.819,0.055c0.273,0.02,0.712,0.007,1.044,0.166
				c0.167,0.08,0.334,0.16,0.419,0.365c0.058,0.139,0.087,0.316-0.021,0.484c-0.054,0.084-0.136,0.098-0.161,0.139
				c-0.271,0.199-0.461,0.271-0.975,0.3c-0.188,0.073-0.24,0.268-0.399,0.301c-0.322,0.065-0.674,0.065-0.938,0.269
				c-0.108-0.051-0.188-0.033-0.325-0.15c-0.236,0.162-0.479,0.107-0.636,0.253c-0.378-0.172-0.505,0.041-0.799-0.036
				c-0.394,0.204-0.927,0.075-1.37,0.262c-0.19-0.137-0.317-0.029-0.4-0.119c-0.127,0.106-0.282,0.148-0.438,0.188
				c-0.531-0.117-0.885,0.165-1.389,0.011c-0.075,0.02-0.178,0.088-0.225,0.174c-0.421-0.063-0.75,0.07-1.199-0.056
				c-0.229,0.07-0.389,0.007-0.647,0.013c-0.281,0.051-0.812-0.154-1.083,0.01c-0.318-0.121-0.543-0.047-0.831-0.1
				c-0.226,0.075-0.502,0.133-0.863,0.107c-0.286-0.051-0.687-0.245-0.973-0.293c-0.159-0.055-0.36-0.021-0.531-0.186
				c-0.125,0.01-0.2,0.036-0.295,0.109c-0.158-0.055-0.063-0.128-0.117-0.146c-0.453,0.058-0.755,0.324-1.065,0.484
				c-0.879,0.079-1.449,0.578-2.313,0.68c-0.181,0.152-0.459,0.121-0.64,0.274c-0.646,0.015-1.307,0.082-1.963,0.159
				c-0.067-0.125-0.206-0.059-0.345-0.149c-0.259,0.084-0.532-0.094-0.825-0.069c-0.019-0.108-0.138-0.088-0.173-0.148
				c-0.998-0.215-1.763-0.77-2.161-1.281c-0.194-0.1-0.356-0.294-0.416-0.464c-0.091-0.073-0.157-0.037-0.195-0.099
				c0.031-0.096-0.127-0.133-0.15-0.243c-0.013-0.021-0.024-0.041-0.038-0.062c-0.038-0.061-0.157-0.037-0.195-0.098
				c-0.037-0.061-0.009-0.158-0.113-0.184c-0.122-0.34-0.46-0.729-0.359-1.069c-0.199-0.097-0.088-0.278-0.221-0.413
				c-0.062-0.377-0.221-0.62-0.286-0.999c-0.284-0.22-0.393-0.657-0.311-0.95c-0.192-0.355-0.21-0.723-0.103-1.115
				c0.009-0.032,0.019-0.064,0.027-0.099c0.027-0.098-0.015-0.159-0.001-0.208c0.05-0.111,0.1-0.222,0.149-0.332
				c0.019-0.064,0.036-0.131,0.055-0.195c0.041-0.147,0.168-0.172,0.182-0.221c0.068-0.244,0.079-0.503,0.19-0.688
				c0.026-0.098,0.167-0.17,0.266-0.305c0.294-0.402,0.663-0.84,0.993-1.129c0.145-0.07,0.272-0.092,0.36-0.177
				c0.014-0.048,0.145-0.069,0.173-0.167c0.13-0.021,0.145-0.07,0.317-0.027c0.362-0.385,0.889-0.463,1.317-0.826
				c0.514-0.026,0.902-0.449,1.523-0.391c0.212-0.257,0.614-0.307,0.933-0.48c0.135-0.016,0.302-0.127,0.514-0.174
				c0.194,0.002,0.434,0.068,0.626,0.072c0.332-0.013,0.62-0.088,1.013-0.078c0.179,0.053,0.356,0.104,0.535,0.158
				c0.537,0.16,0.69,0.102,1.049,0.211C104.905,79.859,104.928,79.971,105.048,80.008z M99.189,86.293
				c-0.277,0.293-0.353,0.69-0.573,0.998c0.076,0.123-0.004,0.363,0.143,0.455c-0.211,0.101-0.081,0.238-0.162,0.479
				c0.253,0.117,0.257,0.275,0.333,0.398c0.375,0.099,0.767,0.15,1.125,0.301c0.387-0.258,1.104-0.11,1.641-0.268
				c0.091-0.08,0.108-0.127,0.107-0.283c-0.163-0.203-0.488-0.297-0.687-0.406c-0.036-0.063-0.057-0.172-0.165-0.202
				c-0.036-0.063-0.2-0.108-0.255-0.124c-0.036-0.063-0.077-0.283-0.296-0.344c-0.018-0.006-0.036-0.01-0.054-0.016
				c-0.055-0.015-0.038-0.062-0.077-0.123c-0.054-0.016-0.164-0.046-0.202-0.109c-0.02-0.057-0.039-0.113-0.059-0.172
				c-0.039-0.063-0.148-0.092-0.203-0.106c-0.132-0.14-0.176-0.36-0.452-0.435C99.299,86.323,99.244,86.309,99.189,86.293z
				 M103.692,83.064c-0.19-0.005-0.357,0.103-0.49,0.116c-0.287-0.085-0.62,0.13-0.936,0.303c-0.017,0.047-0.035,0.094-0.052,0.143
				c-0.297,0.123-0.513,0.377-0.887,0.375c-0.012,0.207,0.164,0.414,0.169,0.572c0.027,0.096,0.056,0.189,0.083,0.284
				c0.045,0.222,0.419,0.381,0.388,0.636c0.206,0.111,0.449,0.286,0.563,0.479c0.298,0.191,0.687,0.465,0.852,0.674
				c0.221,0.066,0.24,0.178,0.386,0.275c0.202,0.113,0.384,0.274,0.604,0.345c0.165,0.052,0.294,0.04,0.423,0.028
				c0.299-0.273,0.69-0.461,0.846-0.832c0.021-0.047,0.039-0.094,0.06-0.14c0.169-0.103,0.265-0.177,0.322-0.315
				c0.06-0.139,0.081-0.342,0.158-0.527c0.039-0.092,0.173-0.258,0.232-0.396c0.013-0.031,0.025-0.063,0.039-0.094
				c0.021-0.203-0.109-0.354-0.108-0.511c0.02-0.204,0.002-0.313-0.035-0.38c-0.129-0.309-1.241-0.93-1.854-1.012
				C104.148,83.045,103.865,83.116,103.692,83.064z"/>
			<path fill="#282D33" d="M119.567,98.383c0.021,0.064,0.121,0.115,0.121,0.115c0.104,0.326-0.055,0.738,0.151,1.008
				c-0.203,0.281-0.114,0.438-0.133,0.646c-0.232,0.32-0.352,0.754-0.697,0.96c-0.106,0.056-0.461,0.095-0.643,0.169
				c-0.183,0.071-0.411,0.12-0.631,0.066c-0.228,0.05-0.427,0.063-0.589,0.201c-0.379-0.187-0.712-0.346-1.032-0.338
				c-0.04-0.127-0.184-0.194-0.325-0.262c-0.38-0.181-0.332-0.535-0.643-0.732c0.063-0.188-0.028-0.338-0.194-0.469
				c0.032-0.146,0.063-0.293-0.055-0.4c0.221-0.439,0.14-0.907,0.378-1.284c0.027-0.042,0.235-0.271,0.313-0.29
				c0.08-0.126,0.309-0.184,0.412-0.242c0.077-0.02,0.004-0.107,0.081-0.127c0.131-0.104,0.384-0.092,0.439-0.281
				c0.204-0.016,0.358-0.051,0.513-0.086c0.251,0.117,0.46-0.002,0.665-0.011c0.378,0.126,0.879,0.369,1.179,0.519
				C119.17,97.799,119.385,98.071,119.567,98.383z M134.259,75.077c-0.13,0.32,0.294,0.613,0.346,0.926
				c-0.147,0.086-0.012,0.275-0.197,0.283c0.314,0.573-0.105,0.789-0.475,1.315c-0.077,0.237-0.237,0.715-0.437,0.997
				c-0.114,0.162-0.263,0.248-0.381,0.295c0.017,0.348-0.309,0.561-0.445,0.879c-0.052,0.195,0.048,0.421-0.152,0.703
				c-0.225,0.439-0.63,0.889-0.942,1.333c-0.059,0.081-0.146,0.086-0.265,0.136c-0.057,0.08-0.054,0.194-0.109,0.273
				c-0.06,0.082-0.176,0.13-0.203,0.17c-0.289,0.291-0.31,0.672-0.511,0.955c-0.086,0.121-0.229,0.209-0.375,0.298
				c-0.058,0.081-0.055,0.194-0.055,0.308c-0.343,0.485-0.626,1.002-0.998,1.526c-0.344,0.483-0.746,0.937-1.229,1.399
				c-0.001,0.111-0.001,0.224-0.06,0.305c-0.057,0.08-0.199,0.171-0.369,0.302c-0.058,0.081-0.113,0.162-0.172,0.243
				c-0.257,0.363-0.457,0.758-0.659,1.15c-0.143,0.201-0.285,0.402-0.429,0.604c-0.114,0.161-0.116,0.272-0.173,0.354
				c-0.087,0.121-0.282,0.182-0.34,0.264c-0.057,0.08-0.004,0.221-0.09,0.342c-0.058,0.08-0.17,0.132-0.198,0.172
				c-0.031,0.15,0.05,0.249-0.036,0.37c-0.086,0.12-0.252,0.144-0.31,0.224c-0.114,0.162-0.175,0.354-0.261,0.473
				c-0.173,0.244-0.28,0.187-0.448,0.318c-0.167,0.135,0.104,0.166,0.02,0.287c-0.287,0.404-0.652,0.711-0.909,1.073
				c-0.143,0.201-0.262,0.474-0.3,0.729c-0.166,0.135-0.334,0.269-0.477,0.47c-0.172,0.243-0.291,0.511-0.305,0.726
				c-0.173,0.243-0.338,0.379-0.379,0.633c-0.113,0.16-0.072-0.095-0.257-0.134c-0.211,0.001-0.427,0.11-0.614,0.181
				c-0.103-0.053-0.182-0.037-0.284-0.09c-0.307-0.154-0.377-0.354-0.686-0.509c0.009-0.216-0.193-0.426-0.345-0.608
				c0.109-0.164-0.098-0.268,0.04-0.474c-0.099-0.267-0.278-0.519-0.272-0.844c0.004-0.324,0.221-0.657,0.304-1
				c0.054-0.084,0.001-0.22,0.002-0.327c0.08-0.234,0.215-0.441,0.321-0.719c0.215-0.442,0.267-0.855,0.695-1.413
				c0.054-0.084,0.216-0.113,0.297-0.238c0.08-0.126,0.077-0.347,0.158-0.473c0.294-0.458,0.755-0.836,1.021-1.363
				c0.053-0.192,0.241-0.376,0.376-0.584s0.211-0.444,0.399-0.737c0.188-0.291,0.344-0.654,0.558-0.988
				c0.107-0.168,0.33-0.275,0.438-0.442c0.053-0.083,0.018-0.267,0.071-0.351c0.045-0.069,0.089-0.139,0.134-0.209
				c0.188-0.291,0.46-0.596,0.732-0.9c0.035-0.057,0.071-0.111,0.107-0.167c0.071-0.11,0.143-0.222,0.214-0.333
				c0.08-0.125,0.22-0.223,0.452-0.214c0.054-0.083-0.151-0.134-0.071-0.257c0.367-0.201,0.376-0.584,0.658-0.772
				c-0.007-0.112-0.101-0.217-0.02-0.342c0.188-0.292,0.287-0.573,0.476-0.864c0.134-0.209,0.328-0.388,0.523-0.564
				c0.054-0.084,0.143-0.094,0.265-0.029c-0.042-0.188,0.064-0.354-0.03-0.46c0.08-0.125,0.23-0.104,0.284-0.187
				c0.081-0.127,0.091-0.396,0.172-0.522c0.107-0.167,0.313-0.229,0.365-0.312c0.197-0.176,0.231-0.49,0.431-0.666
				c0.476-0.478,0.923-1.301,1.491-1.783c0.118-0.049,0.271-0.024,0.392-0.073c0.118-0.049,0.033-0.315,0.228-0.214
				c-0.037-0.077,0.017-0.159,0.07-0.242c0.12-0.143,0.241-0.281,0.362-0.422c-0.01-0.119-0.021-0.234,0.005-0.277
				c0.056-0.082,0.239-0.097,0.32-0.221c0.027-0.042,0.018-0.16,0.07-0.243c0.081-0.124,0.293-0.18,0.375-0.304
				c0.282-0.297,0.396-0.74,0.922-0.457C133.877,74.188,133.666,74.635,134.259,75.077z"/>
		</g>
	</g>
	<g>
		<g>
			<g>
				<path fill="#BE1E2D" d="M98.41,52.565c-1.419-6.128,2.532-28.254,12.016-26.375c6.604,1.309,1.22,8.751,4.466,11.195
					c2.897,2.182,8.805-5.649,10.654-7.186c7.123-5.911,16.295-9.459,22.791-0.821c6.079,8.086,2.127,18.476-3.431,25.613
					c-3.608,4.639-8.61,7.615-13.573,10.973c-2.032,1.373-5.624,2.354-7.291,3.75c-2.089,1.746-2.57,5.041-4.851,6.476
					c-4.692,2.955-14.82,0.015-19.153-3.358c-6.384-4.969-4.006-11.271-0.986-17.556L98.41,52.565z"/>
				<path fill="#231F20" d="M114.024,78.04c-4.746,0-10.926-2.024-14.375-4.709c-6.628-5.16-4.3-11.773-1.265-18.127l-0.59-2.493
					c-1.035-4.469,0.641-17.658,5.651-23.962c2.077-2.612,4.496-3.698,7.103-3.18c4.401,0.872,4.134,4.272,3.92,7.005
					c-0.141,1.797-0.274,3.495,0.803,4.306c0.228,0.171,0.485,0.254,0.789,0.254c2.033,0,5.298-3.487,7.249-5.57
					c0.774-0.827,1.387-1.48,1.831-1.851c3.371-2.797,8.491-6.131,13.745-6.131c3.903,0,7.253,1.822,9.956,5.417
					c1.971,2.621,7.549,12.272-3.438,26.382c-3.183,4.092-7.323,6.847-11.708,9.763c-0.669,0.444-1.34,0.892-2.01,1.345
					c-0.984,0.666-2.297,1.234-3.564,1.784c-1.398,0.606-2.847,1.233-3.675,1.929c-0.881,0.735-1.457,1.797-2.065,2.92
					c-0.735,1.353-1.495,2.75-2.854,3.604C118.145,77.596,116.292,78.04,114.024,78.04z M109.3,26.709
					c-1.736,0-3.373,0.951-4.863,2.826c-4.708,5.924-6.373,18.733-5.411,22.887l0.692,2.925l-0.097,0.202
					c-3.09,6.433-5.163,12.136,0.805,16.781c2.805,2.184,8.659,4.441,13.598,4.441c2.026,0,3.651-0.377,4.831-1.119
					c1.078-0.679,1.728-1.873,2.415-3.139c0.641-1.178,1.301-2.396,2.366-3.286c0.969-0.813,2.433-1.446,3.983-2.118
					c1.215-0.525,2.472-1.07,3.358-1.672c0.673-0.455,1.348-0.902,2.019-1.35c4.296-2.857,8.354-5.559,11.411-9.486
					c10.434-13.4,5.259-22.404,3.424-24.845c-2.451-3.259-5.46-4.911-8.944-4.911c-4.876,0-9.727,3.176-12.937,5.84
					c-0.385,0.318-1.001,0.978-1.717,1.741c-2.358,2.52-5.591,5.971-8.173,5.971c-0.581,0-1.103-0.171-1.551-0.508
					c-1.631-1.229-1.465-3.357-1.303-5.416c0.21-2.689,0.393-5.011-2.905-5.664C109.965,26.744,109.628,26.709,109.3,26.709z"/>
			</g>
			<path fill="#77111A" d="M100.98,57.907c0,0,10.144,13.104,17.315,11.407c7.175-1.698,1.867,3.636-0.813,5.854
				c-2.681,2.217-21.379-0.502-18.69-13.644C98.942,60.795,100.98,57.907,100.98,57.907z"/>
			<path fill="#77111A" d="M145.125,41.089c0,0-0.021-15.422-10.675-10.926c-10.653,4.495,2.016,11.661,0.59,14.778
				c-4.406,9.626-9.952,5.833-14.627,13.317c-1.289,2.064-0.793,7.408,4.307,4.99C129.819,60.833,144.906,54.993,145.125,41.089z"/>
			<path fill="#77111A" d="M110.354,33.528c3.656,5.551-3.635,13.053-0.485,14.552c3.148,1.498,5.569,10.834,1.461,9.633
				c-4.11-1.201-11.389-0.818-10.112-10.992C102.493,36.547,108.013,29.972,110.354,33.528z"/>
		</g>
		<g>
			<path fill="#7CCDCD" d="M123.261,2.187c-3.318,1.922-6.709,4.408-9.537,10.777c1.467,0.574,13.396-12.177,25.063-10.381
				C135.181-2.506,124.702,1.35,123.261,2.187z"/>
			<path fill="#5AB1AF" d="M116.163,24.384c13.434-17.794,31.345-14.202,35.047-14.085C135.061,0.859,119.157,12.698,116.163,24.384
				z"/>
		</g>
		<g>
			<path fill="#7CCDCD" d="M166.184,66.817c-0.466,1.637-3.379,2.653-4.421,2.967c-2.404,0.723-5.105,1.227-9.392-0.285
				c0.391-0.959,11.791-3.112,13.28-4.582C166.099,65.304,166.329,66.301,166.184,66.817z"/>
			<path fill="#5AB1AF" d="M165.52,58.448c-0.206,3.295-6.021,5.334-8.02,5.936c-4.306,1.293-9.142,2.195-16.81-0.51
				c13.426-1.344,21.104-5.576,23.773-8.203C165.263,56.366,165.569,57.691,165.52,58.448z"/>
		</g>
	</g>
</g>
</svg>
