<?xml version="1.0" encoding="utf-8"?>
<!-- Generator: Adobe Illustrator 16.0.0, SVG Export Plug-In . SVG Version: 6.00 Build 0)  -->
<!DOCTYPE svg PUBLIC "-//W3C//DTD SVG 1.1//EN" "http://www.w3.org/Graphics/SVG/1.1/DTD/svg11.dtd">
<svg version="1.1" id="Layer_1" xmlns="http://www.w3.org/2000/svg" xmlns:xlink="http://www.w3.org/1999/xlink" x="0px" y="0px"
	 width="107.109px" height="162.632px" viewBox="0 0 107.109 162.632" enable-background="new 0 0 107.109 162.632"
	 xml:space="preserve">
<g>
	<path fill="#FFFFFF" d="M29.733,31.626c-2.582-2.857-4.254-8.137-1.532-11.312c-2.148-5.405-4.849-11.901,0.059-16.335
		c4.771-4.314,15.137-6.182,19.453-0.08c1.494,2.113,0.354,4.456,2.467,6.305c2.959,2.591,6.381,0.486,9.059,0.096
		c2.9-0.423,6.111-1.415,9.209-0.779c3.414,0.701,4.324,2.872,7.496,3.948c2.791,0.948,5.031-0.259,8.068,0.473
		c3.125,0.753,3.811,3.302,7.291,1.981c3.482-1.318,4.273-7.035,9.23-3.823c3.438,2.23,0.541,5.169,1.934,8.108
		c0.973,2.059,3.58,1.764,4.393,4.263c0.939,2.888-0.959,5.528-2.307,7.573c-3.617,5.488-8.977,6.548-13.52,10.19
		c-7.822,6.271,2.102,9.868,4.491,16.452c1.181,3.246,1.021,6.781,2.142,10.156c1.205,3.631,3.78,4.357,5.092,8.48
		c2.51,7.9-2.799,17.755-6.455,24.968c-2.73,5.39-10.82,12.551-11.549,18.076c2.94,0.033,5.412-0.412,8.535,0.352
		c0.807,0.197,1.407,1.824,2.182,2.074c1.713,0.558,3.959-0.758,5.602,0.566c3.195,2.58,2.707,13.291,1.986,17.039
		c-1.547,8.039-6.676,30.443-18.211,19.08c-2.227-2.191-2.676-4.363-5.918-4.924c-2.373-0.41-6.936,1.018-9.299,1.467
		c-6.447,1.229-11.519,1.297-17.568-0.783c-5.33-1.83-9.393-7.904-15.293-7.303c-3.791,0.389-5.979,2.322-10.178,1.643
		c-2.826-0.457-4.699-1.846-7.367-2.994c-4.279-1.846-10.934-0.533-14.963-3.074c-6.939-4.379-1.947-11.584-1.727-17.563
		c0.112-2.998-2.591-5.354-2.533-7.621c0.119-4.828,5.139-2.82,6.018-6.371c0.59-2.386-1.764-5.271-2.192-7.666
		c-0.453-2.537-0.437-6.897,0.026-9.436c0.586-3.193,2.603-4.49,3.26-7.561c0.785-3.67-1.625-6.56-0.588-10.379
		c1.324-4.871,6.896-9.514,11.199-11.052c2.303-0.821,5.016-0.35,7.816-0.812c5.276-0.87,4.407-1.176,5.271-5.941
		c0.396-2.184,1.992-5.443,2.185-7.114c0.342-2.96-2.277-5.521-0.902-8.643c1.346-3.057,5.258-3.194,7.596-4.599
		c-1.699-1.66-4.506-1.066-6.6-2.306c-1.699-1.008-1.607-1.429-2.752-3.126L29.733,31.626z"/>
	<g>
		<path fill="#5AB1AF" d="M37.456,103.916c-0.133-0.017-0.343,0.023-0.625,0.123c-0.284,0.101-0.525,0.135-0.726,0.109l0.052-0.398
			l-3.896-0.502c0.099,0.283-0.008,0.574-0.315,0.873c-0.31,0.299-0.473,0.516-0.489,0.647c-0.018,0.134,0.002,0.239,0.062,0.313
			c-0.135-0.018-0.25,0.086-0.345,0.311c-0.098,0.227-0.196,0.467-0.297,0.725c-0.103,0.258-0.229,0.444-0.378,0.561l-0.052,0.398
			l-0.398-0.052c-0.035,0.267,0.081,0.417,0.348,0.452c-0.604,0.465-0.924,0.863-0.967,1.195l-0.5-0.063
			c0.199,0.024,0.207,0.095,0.024,0.207c-0.186,0.112-0.209,0.175-0.075,0.192c-0.303,0.234-0.625,0.632-0.967,1.197l0.063-0.5
			c-0.311,0.299-0.617,0.564-0.917,0.795c-0.133-0.018-0.283,0.1-0.45,0.349c-0.169,0.25-0.352,0.36-0.551,0.335
			c-0.337,0.499-1.259,1.091-2.769,1.775c-0.251-0.166-0.524-0.15-0.819,0.047c-0.297,0.201-0.546,0.287-0.745,0.261
			c-0.133-0.017-0.263-0.067-0.387-0.151c-0.493,0.139-1.172,0.153-2.037,0.043c-1.333-0.173-2.435-0.551-3.307-1.139
			c-2.086-1.148-3.522-2.621-4.308-4.416c-0.051-0.141-0.202-0.534-0.458-1.178c-0.257-0.641-0.482-1.245-0.681-1.813
			c-0.197-0.567-0.338-1.06-0.419-1.476l0.155-1.199l0.398,0.051c0.018-0.133-0.028-0.309-0.135-0.525
			c-0.109-0.217-0.149-0.424-0.123-0.625c-0.134-0.017-0.211,0.06-0.232,0.226c-0.021,0.167-0.099,0.241-0.23,0.224
			c0.077-0.599,0.248-0.882,0.516-0.848l-0.399-0.051c0.068-0.533,0.235-0.783,0.503-0.749c-0.268-0.034-0.383-0.185-0.349-0.451
			l0.399,0.052c0.158-0.184,0.265-0.475,0.315-0.875c0.068-0.533,0.187-0.923,0.354-1.173l-0.399-0.052
			c0.034-0.266,0.186-0.383,0.451-0.348l0.335-2.599c0.267,0.034,0.417-0.081,0.452-0.348l0.104-0.8
			c0.107-0.324,0.493-0.953,1.156-1.883c0.661-0.932,1.022-1.629,1.083-2.096c0.052-0.398-0.041-0.75-0.271-1.051
			c0.018-0.133,0.059-0.196,0.126-0.188c0.064,0.008,0.113-0.086,0.139-0.287c-0.066-0.008-0.165-0.174-0.292-0.494
			c-0.129-0.321-0.179-0.582-0.151-0.782c-0.152,0.116-0.257,0.137-0.313,0.062c0.008-0.066-0.055-0.109-0.188-0.125l0.115-0.9
			c-0.267-0.033-0.383-0.184-0.349-0.45l0.104-0.8c-0.199-0.025-0.243-0.471-0.133-1.338c0.026-0.199,0.009-0.336-0.049-0.412
			c0.266,0.033,0.418-0.081,0.452-0.348c-0.269-0.035-0.418,0.082-0.452,0.348c0.146-1.132,0.369-1.814,0.671-2.047l-0.374-0.251
			c0.167-0.249,0.362-0.715,0.587-1.397c0.225-0.683,0.417-1.148,0.586-1.397c0.62-1.139,1.568-2.439,2.842-3.901
			c0.141-0.048,0.33-0.211,0.568-0.485c0.239-0.273,0.537-0.489,0.896-0.646l0.502-0.748c0.602-0.464,1.202-0.658,1.802-0.581
			c1.543-0.411,2.848-0.546,3.914-0.409c0.266,0.034,0.79,0.17,1.572,0.405c-0.066-0.008,0.195,0.062,0.788,0.204
			c0.132,0.017,0.235-0.003,0.312-0.062l0.273,0.239c0.184,0.16,0.193,0.33,0.035,0.513c0.813,0.511,1.196,0.967,1.146,1.366
			c0.132,0.018,0.228,0.064,0.287,0.139c0.057,0.076,0.159,0.208,0.305,0.395c0.146,0.188,0.31,0.362,0.49,0.521l-0.052,0.399
			c-0.018,0.134,0.041,0.209,0.176,0.226c0.133,0.017,0.189,0.092,0.174,0.225l-0.052,0.4c0.332,0.043,0.481,0.199,0.448,0.464
			c-0.334-0.043-0.519,0.069-0.553,0.335c0.332,0.043,0.479,0.231,0.437,0.564c-0.368,0.224-0.568,0.47-0.604,0.735l0.5,0.064
			c-0.018,0.134-0.092,0.429-0.216,0.887c-0.129,0.458-0.208,0.82-0.242,1.086c-0.052,0.399-0.023,0.708,0.084,0.925
			c-0.268-0.035-0.42-0.037-0.456-0.008c-0.039,0.03-0.073,0.178-0.107,0.443c0.131,0.56-0.101,1.173-0.694,1.841
			c-0.594,0.67-0.913,1.17-0.956,1.502c-0.135-0.017-0.205,0.024-0.219,0.125c-0.013,0.101-0.074,0.043-0.181-0.176
			c0.063,0.551-0.053,1.061-0.351,1.529s-0.455,0.771-0.473,0.904c-0.199-0.025-0.375,0.02-0.524,0.135
			c-0.151,0.117-0.126,0.188,0.074,0.213l-0.026,0.199c-0.116-0.148-0.24-0.233-0.373-0.25l-0.115,0.898
			c-0.185-0.158-0.335-0.043-0.452,0.348c-0.034,0.268-0.187,0.384-0.451,0.35c0.188,0.635-0.083,0.902-0.816,0.809
			c-0.103,0.801-0.306,1.316-0.604,1.547l-0.4-0.051c-0.033,0.268-0.187,0.383-0.452,0.348c0.057,0.617-0.125,1.102-0.542,1.455
			c-0.417,0.353-0.64,0.629-0.664,0.828c-0.026,0.199,0.223,0.639,0.742,1.314l-0.024,0.199c-0.049-0.141,0.092-0.191,0.426-0.146
			c0.099,0.282,0.281,0.578,0.548,0.881c0.265,0.307,0.441,0.635,0.532,0.983l0.2,0.026c0.114,0.15,0.896,0.658,2.344,1.521
			c0.388,0.66,0.749,1.011,1.083,1.054l-0.052,0.4c0.332,0.043,0.673,0.155,1.022,0.335c0.349,0.181,0.557,0.274,0.624,0.284
			c0.227-0.174,0.363-0.461,0.415-0.861c0.043-0.332-0.088-1.162-0.39-2.488c0.009-0.064-0.075-0.602-0.25-1.606
			c-0.176-1.004-0.229-1.772-0.159-2.308c0.061-0.465,0.139-0.828,0.242-1.084c0.067-0.533,0.253-0.916,0.553-1.148
			c0.075-0.057,0.178-0.195,0.308-0.417c0.132-0.22,0.271-0.405,0.428-0.554c0.153-0.148,0.366-0.207,0.632-0.174
			c0.25,0.17,0.476,0.385,0.68,0.646c0.202,0.266,0.361,0.471,0.479,0.621c0.115,0.15,0.239,0.234,0.374,0.251
			c0.296,0.851,0.896,1.708,1.802,2.567l-0.451,0.35c0.23,0.301,0.365,0.318,0.4,0.051c-0.019,0.135,0.021,0.359,0.114,0.676
			c0.095,0.316,0.136,0.543,0.117,0.674c-0.034,0.268-0.02,0.658,0.052,1.176c0.067,0.518,0.094,0.842,0.076,0.975l-0.052,0.399
			c-0.151,0.118-0.237,0.274-0.264,0.476c-0.025,0.198-0.104,0.29-0.237,0.273c0.139,0.492,0.12,0.896-0.056,1.211
			c-0.179,0.316-0.365,0.461-0.564,0.436c0.116,0.151,0.152,0.393,0.109,0.725c-0.043,0.334-0.021,0.676,0.072,1.025
			c0.063,0.008,0.652,0.17,1.766,0.482C36.491,102.996,37.183,103.408,37.456,103.916z M10.813,104.136l0.053-0.399
			c-0.2-0.026-0.276,0.032-0.227,0.175L10.813,104.136z M19.266,83.487c1.789-1.801,3.527-3.203,5.215-4.204
			c0.025-0.199,0.12-0.407,0.285-0.624c0.162-0.215,0.358-0.427,0.59-0.635c0.229-0.207,0.428-0.436,0.596-0.686
			c0.561-0.672,0.901-1.474,1.021-2.407c0.146-1.132-0.246-2.028-1.177-2.691c-0.26-0.1-0.653-0.188-1.188-0.255
			c-0.934-0.121-1.814,0.02-2.645,0.421c-0.831,0.4-1.445,0.83-1.842,1.286c-0.398,0.457-0.92,1.084-1.563,1.881
			c-0.161,0.182-0.358,0.411-0.597,0.685c-0.238,0.274-0.458,0.517-0.652,0.729c-0.198,0.212-0.304,0.385-0.321,0.518l-0.051,0.399
			c-0.135-0.017-0.214,0.074-0.238,0.274c-0.025,0.2-0.114,0.358-0.266,0.475c-0.077,0.6-0.104,1.341-0.083,2.223
			c0.021,0.884,0.011,1.493-0.032,1.825c0.299,0.311,0.393,0.898,0.28,1.764l0.348,0.451c0.115,0.151,0.162,0.326,0.137,0.525
			c-0.025,0.2,0.026,0.309,0.162,0.326c0.133,0.018,0.281-0.1,0.448-0.348c0.167-0.25,0.318-0.367,0.452-0.35
			C18.867,84.214,19.24,83.687,19.266,83.487z M16.959,104.522c0.466,0.06,0.713-0.01,0.739-0.209l-0.274-0.237
			c-0.135-0.019-0.211,0.057-0.232,0.223C17.17,104.466,17.092,104.541,16.959,104.522z M22.02,107.816
			c0.733,0.096,1.465-0.064,2.196-0.479c0.729-0.414,1.296-0.864,1.699-1.354c0.399-0.489,0.947-1.198,1.644-2.125
			c0.695-0.927,1.164-1.542,1.408-1.851c-2.533-0.326-4.293-0.857-5.28-1.594c-0.066-0.01-0.227-0.097-0.474-0.266
			c-0.25-0.167-0.44-0.26-0.573-0.277c-0.118-0.149-0.3-0.308-0.549-0.477c-0.25-0.167-0.432-0.326-0.548-0.477
			c-0.955-1.004-1.599-1.527-1.932-1.57l0.053-0.4c-0.379,0.291-0.742,0.752-1.094,1.383c-0.353,0.633-0.681,1.064-0.979,1.295
			c0.04,0.209,0.036,0.514-0.016,0.914c-0.216,1.666-0.248,2.709-0.101,3.137c0.23,0.301,0.326,0.617,0.283,0.951
			c1.05,1.828,2.209,2.824,3.475,2.988C21.424,107.707,21.687,107.773,22.02,107.816z M26.505,111.646
			c-0.334-0.043-0.483-0.197-0.448-0.464C26.389,111.225,26.539,111.38,26.505,111.646z"/>
	</g>
	<g>
		<path fill="#FAAF40" d="M15.228,117.729c0.086,0.011,0.465,0.104,1.14,0.276c0.026,0.004,0.092,0.02,0.188,0.047
			s0.175,0.044,0.232,0.052l0.037,0.048l0.042,0.006c0.198,0.025,0.31,0.069,0.332,0.129c1.107,0.174,2.131,0.449,3.067,0.832
			c-0.004,0.028,0.02,0.074,0.068,0.139l0.068,0.14l0.258,0.033c0.099,0.129,0.145,0.221,0.138,0.278
			c0.086,0.01,0.166,0.058,0.243,0.14c0.076,0.083,0.142,0.127,0.2,0.134c-0.009,0.059,0.011,0.133,0.058,0.225
			c0.046,0.094,0.065,0.168,0.058,0.226l-0.338,0.261c-0.064,0.051-0.263,0.242-0.596,0.576c-0.457,0.173-0.775,0.277-0.954,0.311
			l-0.128-0.016c-0.286-0.037-0.538,0.003-0.755,0.121c-0.286-0.037-0.836-0.049-1.648-0.039c-0.03,0.025-0.086,0.047-0.16,0.066
			s-0.13,0.041-0.16,0.065c0.021,0.524,0.026,0.802,0.022,0.829c-0.024,0.2-0.084,0.323-0.178,0.369
			c-0.008,0.059-0.002,0.13,0.015,0.219c0.019,0.09,0.025,0.148,0.022,0.178c-0.004,0.028-0.034,0.09-0.091,0.184
			c-0.056,0.095-0.089,0.186-0.1,0.271c-0.016,0.113-0.003,0.346,0.04,0.7c-0.004,0.029-0.021,0.056-0.055,0.08l-0.011,0.085
			c-0.009,0.059-0.006,0.15,0.008,0.284c0.011,0.132,0.014,0.228,0.006,0.284c-0.004,0.029-0.032,0.082-0.085,0.162
			c-0.056,0.08-0.084,0.135-0.088,0.162c-0.004,0.029-0.003,0.08,0.002,0.154c0.006,0.072,0.004,0.137-0.003,0.194
			c-0.02,0.144-0.104,0.349-0.254,0.618l0.095,0.273c-0.038,0.082-0.084,0.266-0.135,0.547c-0.053,0.285-0.127,0.479-0.229,0.58
			l-0.039,0.301c-0.019,0.143-0.048,0.318-0.091,0.531c-0.042,0.211-0.069,0.375-0.083,0.488c-0.026,0.2-0.033,0.359-0.02,0.477
			c-0.003,0.028,0.032,0.092,0.106,0.188c0.021,0.062,0.017,0.104-0.017,0.128l-0.061,0.123c0.067,0.154,0.092,0.303,0.072,0.443
			c-0.029,0.229-0.097,0.424-0.205,0.584c0.007,0.175-0.008,0.289-0.044,0.342c0.053,0.035,0.067,0.154,0.042,0.354
			c-0.004,0.028-0.01,0.071-0.017,0.129l0.03,0.09c-0.008,0.059-0.046,0.141-0.117,0.246l0.03,0.092
			c-0.007,0.058-0.013,0.101-0.016,0.128c-0.008,0.058-0.031,0.12-0.068,0.188c-0.038,0.066-0.059,0.115-0.063,0.145
			c0.021,0.063,0.058,0.115,0.108,0.166c0.052,0.05,0.076,0.09,0.072,0.117c-0.04,0.082-0.055,0.197-0.044,0.343
			c0.009,0.147-0.004,0.247-0.038,0.3c-0.037,0.055-0.089,0.119-0.157,0.197c-0.067,0.078-0.104,0.132-0.106,0.16
			c-0.004,0.027,0.005,0.064,0.029,0.111c0.021,0.047,0.031,0.086,0.027,0.112l-0.026,0.214c-0.025,0.2-0.097,0.409-0.21,0.625
			c0.083,0.244,0.111,0.465,0.087,0.664l-0.064,0.166c0.023,0.032,0.013,0.234-0.035,0.604c-0.011,0.086,0.003,0.205,0.043,0.354
			c0.037,0.149,0.053,0.269,0.041,0.354c-0.015,0.113-0.069,0.209-0.168,0.283c-0.032,0.023-0.1,0.051-0.205,0.082
			c-0.106,0.028-0.179,0.086-0.218,0.166c-0.029-0.002-0.109,0.008-0.244,0.034c-0.134,0.026-0.243,0.034-0.328,0.022
			c-0.065,0.051-0.474,0.187-1.228,0.406l-0.872,0.02c-0.029-0.004-0.064-0.001-0.11,0.008c-0.044,0.01-0.08,0.012-0.107,0.008
			c-0.059-0.008-0.163-0.035-0.315-0.084c-0.153-0.049-0.271-0.078-0.357-0.091l-0.178,0.021c-0.331-0.129-0.524-0.198-0.583-0.205
			l-0.085-0.012c-0.148-0.193-0.275-0.324-0.385-0.396c-0.023-0.032-0.09-0.143-0.196-0.33c-0.104-0.188-0.212-0.316-0.317-0.389
			c0.011-0.086-0.01-0.16-0.06-0.227c-0.396-0.515-0.569-0.971-0.519-1.371c0.019-0.143,0.015-0.23-0.01-0.263
			c-0.025-0.033-0.021-0.06,0.011-0.085l0.049-0.037c-0.074-0.098-0.103-0.216-0.084-0.357l0.061-0.472
			c0.005-0.028,0.021-0.056,0.055-0.081c0.032-0.023,0.05-0.051,0.054-0.078c0.003-0.029-0.012-0.074-0.047-0.138
			c-0.037-0.063-0.052-0.108-0.048-0.138c0.251-1.504,0.423-2.381,0.513-2.629c0.007-0.057,0.041-0.098,0.103-0.119
			c0.003-0.026,0.013-0.041,0.025-0.039c0.017,0.002,0.024-0.012,0.028-0.039c-0.078-0.068-0.053-0.152,0.076-0.252l-0.087-0.012
			c-0.058-0.008-0.083-0.024-0.079-0.053l0.152-0.852c0.003-0.027,0.028-0.055,0.074-0.077c0.048-0.022,0.072-0.048,0.076-0.077
			c0.004-0.027-0.007-0.059-0.031-0.091c-0.025-0.032-0.037-0.063-0.033-0.093c0.005-0.027,0.037-0.232,0.103-0.616
			c0.063-0.384,0.134-0.642,0.209-0.776c0.004-0.029-0.007-0.06-0.03-0.092l0.011-0.086c0.062-0.253,0.126-0.65,0.196-1.191
			l0.281-2.183c0.011-0.085,0.048-0.204,0.111-0.354c0.063-0.15,0.1-0.271,0.109-0.355c0.036-0.053,0.081-0.17,0.133-0.352
			c0.054-0.182,0.124-0.281,0.213-0.299c-0.026-0.236-0.036-0.381-0.029-0.439c0.008-0.057,0.06-0.182,0.156-0.371
			c0.096-0.189,0.164-0.326,0.204-0.409c0.039-0.082,0.075-0.192,0.108-0.334c0.032-0.142,0.069-0.252,0.108-0.333
			c0.215-0.32,0.325-0.508,0.334-0.566c-0.133-0.104-0.4-0.209-0.809-0.321c-0.404-0.11-0.673-0.231-0.801-0.364l-0.127-0.018
			c-0.172-0.021-0.282-0.064-0.333-0.129c-0.284-0.037-0.419-0.111-0.404-0.227l-0.257-0.033c-0.079-0.068-0.253-0.178-0.522-0.328
			c-0.271-0.15-0.458-0.276-0.562-0.377l0.012-0.086c0.012-0.084,0.037-0.183,0.081-0.293c0.042-0.111,0.066-0.18,0.069-0.209
			l0.849-0.5c0.058,0.008,0.146-0.017,0.271-0.072c0.123-0.058,0.242-0.078,0.355-0.063c0.027,0.003,0.048,0.021,0.059,0.05
			c0.01,0.031,0.045,0.049,0.102,0.057c0.674-0.057,1.068-0.08,1.184-0.064l0.128,0.016c0.311-0.162,0.693-0.215,1.15-0.156
			c0.094-0.045,0.239-0.055,0.438-0.029l0.301,0.039l0.572-0.057c0.057,0.006,0.111,0.021,0.168,0.043
			c0.055,0.021,0.111,0.035,0.168,0.043c0.028,0.004,0.072,0.002,0.132-0.004c0.059-0.008,0.102-0.01,0.131-0.006l0.342,0.045
			c0.313,0.039,0.556,0.086,0.723,0.137C14.884,117.701,15.028,117.705,15.228,117.729z"/>
		<path fill="#FAAF40" d="M30.409,119.035l0.471,0.062c0.949,0.063,1.771,0.2,2.471,0.405c0.028,0.002,0.063,0.022,0.102,0.057
			c0.041,0.033,0.073,0.053,0.103,0.057c0.11,0.043,0.241,0.09,0.396,0.139c0.153,0.047,0.27,0.106,0.348,0.174
			c-0.003,0.029,0.02,0.076,0.068,0.14c0.028,0.004,0.085,0.024,0.167,0.065c0.08,0.039,0.146,0.078,0.202,0.113
			c0.132,0.104,0.28,0.291,0.45,0.559c0.167,0.268,0.318,0.439,0.454,0.515l0.258,1.034c0.122,0.625,0.174,1.008,0.155,1.15
			c-0.044,0.343-0.041,0.545,0.01,0.611c-0.04,0.081-0.067,0.193-0.087,0.336c-0.044,0.342,0.025,0.584,0.212,0.723
			c-0.012,0.086-0.038,0.177-0.079,0.272c-0.042,0.097-0.066,0.173-0.073,0.229c-0.005,0.027,0.013,0.074,0.049,0.137
			c0.034,0.063,0.049,0.122,0.041,0.18c-0.003,0.028-0.025,0.084-0.063,0.166c-0.041,0.082-0.063,0.15-0.069,0.209l-0.013,0.084
			c-0.007,0.059,0.023,0.098,0.094,0.121c0.067,0.023,0.102,0.051,0.099,0.078c-0.004,0.027-0.017,0.063-0.035,0.104
			c-0.021,0.041-0.032,0.076-0.035,0.104c-0.012,0.086-0.006,0.21,0.018,0.372s0.03,0.271,0.022,0.329l-0.011,0.085
			c-0.004,0.029-0.024,0.07-0.06,0.123c-0.036,0.054-0.059,0.107-0.065,0.166c-0.015,0.113-0.038,0.184-0.07,0.208
			c0.05,0.063,0.068,0.196,0.06,0.397c-0.014,0.203,0.007,0.336,0.057,0.398c-0.04,0.083-0.068,0.195-0.087,0.337
			c-0.025,0.2-0.009,0.405,0.051,0.616c-0.039,0.08-0.074,0.236-0.104,0.464c-0.037,0.287-0.133,0.462-0.286,0.528
			c-0.003,0.029-0.002,0.072,0.005,0.133c0.008,0.059,0.01,0.104,0.007,0.131c-0.021,0.171-0.111,0.29-0.264,0.357l-0.057,0.428
			c-0.035,0.285-0.104,0.479-0.206,0.582c-0.004,0.027,0.014,0.117,0.054,0.268c-0.044,0.11-0.069,0.194-0.077,0.252
			c0.021,0.061,0.024,0.148,0.011,0.262c-0.015,0.115,0.005,0.188,0.059,0.226c-0.086-0.011-0.179,0.035-0.278,0.138
			c-0.012,0.086,0.009,0.205,0.062,0.355c0.054,0.152,0.075,0.271,0.064,0.355c-0.004,0.029-0.032,0.084-0.087,0.164
			c-0.056,0.079-0.084,0.148-0.092,0.205l-0.012,0.086c-0.015,0.114-0.007,0.268,0.028,0.461c0.031,0.192,0.045,0.316,0.038,0.373
			c0.046,0.094,0.095,0.217,0.148,0.367c0.053,0.152,0.089,0.271,0.104,0.361c-0.044,0.343,0.083,0.714,0.379,1.113
			c0.297,0.401,0.455,0.633,0.476,0.692c0.063-0.021,0.163-0.022,0.308-0.004c0.256,0.033,0.434,0.114,0.533,0.243
			c-0.02,0.143-0.02,0.316-0.003,0.521c0.018,0.205,0.021,0.35,0.01,0.436c-0.008,0.058-0.051,0.168-0.129,0.33
			c-0.037,0.055-0.088,0.105-0.151,0.154c-0.064,0.051-0.099,0.09-0.103,0.119c-0.032,0.023-0.06,0.063-0.08,0.119
			c-0.022,0.057-0.034,0.098-0.038,0.125c-0.162,0.124-0.247,0.229-0.258,0.314c-0.412,0.267-0.653,0.453-0.727,0.56l-0.085-0.011
			c-0.114-0.016-0.271,0.016-0.469,0.091c-0.198,0.077-0.354,0.106-0.467,0.093c-0.06-0.008-0.104,0.002-0.136,0.025
			c-0.268,0.053-0.459,0.07-0.571,0.057c-0.172-0.021-0.282-0.064-0.332-0.13c-0.264,0.024-0.596-0.062-0.988-0.258
			c-0.396-0.194-0.637-0.399-0.726-0.615c-0.222-0.087-0.489-0.368-0.806-0.844c-0.228-0.261-0.35-0.437-0.367-0.524l-0.025-0.135
			c-0.019-0.089-0.038-0.148-0.063-0.182c-0.025-0.032-0.129-0.133-0.31-0.301c-0.193,0.147-0.333,0.217-0.418,0.207
			c-0.058-0.008-0.1-0.027-0.124-0.061l-0.038,0.299c-0.062,0.021-0.191,0.084-0.394,0.189c-0.202,0.104-0.36,0.148-0.476,0.134
			c-0.028-0.004-0.048,0.038-0.06,0.123l-0.017,0.128c-0.304,0.105-0.537,0.234-0.702,0.389c-0.144-0.019-0.326,0.008-0.554,0.08
			s-0.412,0.1-0.555,0.08l-0.128-0.016c-0.21,0.061-0.474,0.068-0.786,0.027l-0.257-0.031c-0.029-0.004-0.07-0.023-0.124-0.061
			l-0.043-0.006l-0.343-0.044l-0.368-0.178c-0.222-0.087-0.343-0.16-0.361-0.222c-0.025-0.031-0.054-0.035-0.086-0.01
			c-0.032,0.023-0.063,0.034-0.092,0.03l-0.147-0.192c-0.14-0.047-0.303-0.141-0.485-0.279c-0.187-0.141-0.292-0.213-0.32-0.217
			c-0.024-0.031-0.143-0.141-0.35-0.328c-0.209-0.186-0.349-0.342-0.419-0.467c-0.257-0.033-0.518-0.139-0.784-0.318l-0.271-0.252
			c-0.026-0.031-0.098-0.157-0.213-0.375c-0.052-0.064-0.132-0.162-0.246-0.293c-0.113-0.131-0.208-0.236-0.284-0.319
			c-0.077-0.081-0.122-0.183-0.136-0.3c-0.078-0.067-0.239-0.395-0.483-0.977c0.004-0.027-0.052-0.05-0.165-0.063
			c0.035-0.054,0.049-0.097,0.038-0.126c-0.012-0.03-0.014-0.061-0.01-0.088l-0.082-0.055l-0.079-0.055
			c-0.021-0.061-0.083-0.199-0.186-0.415c-0.104-0.216-0.144-0.409-0.121-0.581c0.012-0.085,0.006-0.158-0.016-0.219l-0.036-0.049
			c-0.025-0.031-0.035-0.063-0.031-0.092l0.017-0.129c0.025-0.197-0.005-0.428-0.087-0.685c-0.083-0.257-0.116-0.442-0.102-0.558
			c0.011-0.086,0.039-0.19,0.084-0.314c0.044-0.125,0.07-0.215,0.079-0.271c0.007-0.057-0.008-0.117-0.043-0.18
			c-0.035-0.064-0.051-0.123-0.042-0.181l0.013-0.433c0.008-0.057,0.022-0.135,0.052-0.233c0.027-0.099,0.042-0.16,0.046-0.188
			c0.047-0.14,0.101-0.379,0.158-0.719c0.058-0.342,0.11-0.58,0.158-0.72l0.091-0.032c0.028,0.004,0.045-0.008,0.048-0.037
			c0.036-0.054,0.027-0.098-0.025-0.134c-0.054-0.034-0.077-0.067-0.073-0.097c0.039-0.082,0.142-0.381,0.31-0.895
			c0.169-0.516,0.327-0.895,0.475-1.136c0.056,0.007,0.102-0.002,0.134-0.026c0.031-0.024,0.058-0.059,0.077-0.099
			c0.021-0.041,0.047-0.073,0.079-0.099c0.008-0.057-0.003-0.102-0.026-0.135c-0.051-0.063-0.073-0.11-0.069-0.14
			c0.022-0.172,0.112-0.317,0.274-0.442c0.033-0.258,0.114-0.436,0.243-0.535l0.011-0.084c0.011-0.086,0.159-0.342,0.446-0.77
			c0.107-0.16,0.176-0.238,0.205-0.234c-0.029-0.004-0.037-0.049-0.026-0.135c0.125-0.07,0.271-0.248,0.438-0.531
			c0.166-0.283,0.328-0.471,0.487-0.567c0.301-0.54,0.656-0.942,1.068-1.209c0.011-0.086,0.052-0.183,0.124-0.289
			c0.031-0.024,0.081-0.069,0.146-0.134c0.066-0.063,0.118-0.121,0.152-0.176l0.215,0.029c0.094-0.047,0.271-0.133,0.533-0.259
			c0.262-0.125,0.469-0.207,0.618-0.246c0.036-0.053,0.088-0.112,0.153-0.176c0.066-0.063,0.115-0.108,0.146-0.134
			c0.062-0.021,0.104-0.014,0.129,0.018c0.15-0.039,0.35-0.129,0.601-0.271c0.062-0.02,0.153-0.066,0.278-0.137
			c0.124-0.072,0.232-0.115,0.322-0.133c0.06-0.021,0.148-0.039,0.268-0.052c0.118-0.013,0.206-0.031,0.268-0.054l0.315-0.09
			c0.536-0.104,0.819-0.168,0.854-0.193c0.023,0.031,0.079,0.054,0.165,0.064c0.113,0.016,0.235-0.027,0.364-0.127
			c0.027,0.004,0.087,0.004,0.174,0.002c0.087-0.004,0.156,0.012,0.211,0.047C29.917,119.031,30.125,119,30.409,119.035z
			 M28.097,125.173c-0.325,0.045-0.627,0.137-0.906,0.273c-0.003,0.029-0.028,0.063-0.077,0.1c-0.048,0.037-0.061,0.072-0.034,0.104
			c-0.356,0.07-0.587,0.171-0.692,0.303c-0.007,0.057-0.035,0.11-0.085,0.162c-0.051,0.053-0.078,0.094-0.081,0.12
			c-0.032,0.024-0.069,0.086-0.11,0.183c-0.042,0.097-0.094,0.168-0.158,0.219l0.021,0.177c-0.118,0.015-0.188,0.106-0.21,0.276
			c-0.052,0.4-0.118,0.695-0.202,0.888c0.056,0.036,0.073,0.11,0.06,0.226c-0.004,0.028-0.023,0.069-0.061,0.123
			c-0.035,0.055-0.073,0.113-0.109,0.182c-0.038,0.066-0.059,0.117-0.063,0.145c0.024,0.032,0.031,0.092,0.021,0.178
			c-0.008,0.058-0.038,0.141-0.097,0.248c-0.059,0.108-0.09,0.191-0.097,0.248c-0.015,0.114,0.042,0.223,0.174,0.326
			c-0.039,0.082-0.009,0.188,0.091,0.316c-0.064,0.05-0.113,0.146-0.146,0.285c-0.033,0.142-0.097,0.233-0.188,0.279
			c0.042,0.123,0.057,0.239,0.041,0.354c-0.007,0.058-0.05,0.168-0.129,0.331c-0.004,0.029,0.021,0.063,0.074,0.097
			c0.054,0.037,0.078,0.067,0.074,0.097c-0.035,0.055-0.002,0.131,0.101,0.23c0.024,0.031,0.051,0.064,0.075,0.098
			c0.022,0.031,0.036,0.055,0.034,0.069c-0.001,0.015,0.01,0.037,0.035,0.067c-0.005,0.029,0.021,0.068,0.07,0.119
			c0.053,0.051,0.073,0.104,0.065,0.16c-0.016,0.114-0.041,0.213-0.08,0.295c0.053,0.035,0.109,0.102,0.17,0.195
			s0.116,0.16,0.171,0.195l-0.077,0.6c0.053,0.036,0.16,0.102,0.323,0.193c0.161,0.094,0.281,0.175,0.359,0.242
			c0.021,0.062,0.194,0.17,0.522,0.328c-0.004,0.028,0.022,0.047,0.08,0.053c0.028,0.005,0.055,0.023,0.079,0.056
			c0.082,0.04,0.193,0.067,0.337,0.087c0.164,0.079,0.26,0.12,0.289,0.124c0.028,0.004,0.072-0.005,0.134-0.026
			c0.061-0.021,0.119-0.027,0.176-0.021l0.018-0.129c0.375-0.212,0.637-0.438,0.784-0.683c0.031-0.023,0.078-0.047,0.139-0.068
			l0.093-0.031l-0.039-0.049l0.006-0.042c0.012-0.086,0.113-0.203,0.308-0.353l0.006-0.043c0.015-0.113,0.113-0.203,0.295-0.267
			c-0.05-0.063-0.059-0.108-0.026-0.136c0.064-0.049,0.118-0.129,0.162-0.239c0.007-0.058,0.028-0.11,0.065-0.165
			c0.003-0.027,0.036-0.066,0.102-0.117c0.063-0.049,0.114-0.101,0.15-0.154c0.283-0.397,0.431-0.641,0.441-0.726
			c0.086-0.221,0.158-0.342,0.221-0.362c-0.086-0.012-0.126-0.045-0.118-0.104c0.019-0.143,0.089-0.234,0.21-0.275
			c0.041-0.314,0.133-0.578,0.277-0.791c-0.087-0.013-0.125-0.045-0.118-0.103c0.038-0.083,0.056-0.218,0.053-0.406
			c-0.006-0.188,0.012-0.325,0.052-0.407c0.004-0.027,0.021-0.041,0.049-0.037c0.027,0.004,0.045-0.008,0.049-0.037
			c0.003-0.027,0.007-0.058,0.011-0.086l-0.037-0.047c0.003-0.029,0.054-0.08,0.15-0.156c0.004-0.026,0.01-0.069,0.017-0.127
			l-0.03-0.092l0.047-0.037c0.009-0.058,0.014-0.1,0.018-0.129l0.065-0.514c0.049-0.369,0.053-0.63,0.015-0.781l0.049-0.035
			l0.048-0.037c-0.11-0.043-0.18-0.184-0.207-0.42l-0.343-0.043l-0.111-0.146l-0.085-0.011c-0.114-0.016-0.245-0.076-0.39-0.182
			c-0.146-0.105-0.262-0.164-0.347-0.176l-0.179,0.021c-0.049-0.063-0.104-0.102-0.161-0.107l-0.17-0.021
			c-0.172-0.021-0.303-0.023-0.391-0.008l-0.149-0.193l-0.128-0.016c-0.144-0.019-0.297-0.06-0.462-0.125
			C28.307,125.222,28.182,125.184,28.097,125.173z"/>
		<path fill="#FAAF40" d="M46.097,120.494c0.484,0.063,0.839,0.123,1.063,0.18c0.677,0.146,1.024,0.25,1.048,0.31
			c0.31,0.069,0.782,0.218,1.421,0.444l0.78,0.361c0.24,0.147,0.388,0.239,0.441,0.275c0.078,0.068,0.163,0.13,0.259,0.186
			c0.095,0.057,0.183,0.104,0.266,0.144c0.153,0.137,0.278,0.297,0.371,0.483c0.058,0.006,0.116,0.045,0.183,0.11
			c0.063,0.067,0.109,0.101,0.139,0.104c0.018,0.089,0.095,0.223,0.23,0.398c0.137,0.178,0.212,0.325,0.227,0.442
			c0.178,0.196,0.241,0.481,0.193,0.853c-0.018,0.143-0.047,0.254-0.087,0.336c-0.064,0.282-0.296,0.5-0.691,0.649
			c-0.032,0.024-0.081,0.063-0.146,0.112l-0.133,0.025c-0.029-0.004-0.086-0.025-0.167-0.064s-0.139-0.061-0.165-0.064
			c-0.335-0.102-0.584-0.191-0.748-0.271c-0.055-0.034-0.135-0.09-0.241-0.16c-0.106-0.072-0.188-0.112-0.244-0.119l-0.215-0.027
			c-0.085-0.011-0.22-0.035-0.402-0.074c-0.186-0.037-0.318-0.063-0.404-0.074c-0.058-0.006-0.146-0.004-0.263,0.01
			c-0.118,0.014-0.205,0.018-0.262,0.01l-0.165-0.064c-0.058-0.008-0.14,0.012-0.247,0.056s-0.205,0.075-0.295,0.093
			c-0.226,0.174-0.383,0.27-0.472,0.286c-0.012,0.086-0.135,0.244-0.364,0.476c-0.074,0.106-0.168,0.168-0.285,0.182
			c-0.015,0.113-0.092,0.313-0.229,0.602c-0.139,0.285-0.221,0.529-0.246,0.729c-0.021,0.171-0.024,0.301-0.006,0.391
			c0.067,0.355,0.253,0.612,0.552,0.768c0.058,0.008,0.129,0.017,0.215,0.026c0.085,0.013,0.178,0.022,0.277,0.036
			c0.099,0.014,0.179,0.023,0.234,0.029c0.314,0.041,0.887,0.218,1.716,0.525c0.024,0.033,0.069,0.024,0.134-0.025
			c0.024,0.031,0.226,0.16,0.604,0.383l0.16,0.107c0.027,0.004,0.055,0.021,0.08,0.054c0.022,0.032,0.051,0.051,0.079,0.055
			c0.023,0.031,0.09,0.093,0.193,0.177c0.104,0.086,0.198,0.149,0.281,0.188l0.09,0.315c0.081,0.039,0.145,0.112,0.189,0.221
			c0.042,0.107,0.077,0.177,0.103,0.209c0.024,0.031,0.076,0.082,0.154,0.15c0.078,0.067,0.128,0.133,0.149,0.192
			c-0.005,0.028-0.002,0.063,0.009,0.108c0.007,0.045,0.01,0.082,0.007,0.109c0.49,0.471,0.772,0.971,0.851,1.502
			c0.288,0.907,0.427,1.418,0.411,1.531c0.049,0.064,0.119,0.189,0.211,0.376c-0.035,0.054-0.059,0.122-0.068,0.208
			c-0.011,0.086-0.02,0.143-0.021,0.171l0.073,0.097c0.024,0.033,0.049,0.08,0.069,0.141c-0.004,0.027-0.012,0.085-0.021,0.171
			c-0.012,0.086-0.007,0.157,0.015,0.22c0.026,0.235,0.039,0.368,0.036,0.396c-0.012,0.086-0.079,0.164-0.204,0.234
			c0.023,0.032,0.033,0.077,0.026,0.135c-0.004,0.027-0.028,0.09-0.068,0.187c-0.041,0.097-0.051,0.175-0.029,0.235
			c-0.062,0.021-0.12,0.093-0.181,0.216c-0.06,0.123-0.119,0.194-0.181,0.216c0.068,0.154,0.093,0.303,0.074,0.443
			c-0.03,0.229-0.129,0.435-0.297,0.615c-0.004,0.028-0.037,0.053-0.097,0.074c-0.063,0.02-0.107,0.045-0.141,0.068
			c-0.044,0.109-0.126,0.244-0.248,0.402s-0.205,0.293-0.247,0.402c-0.029-0.004-0.081,0.012-0.158,0.045
			c-0.077,0.034-0.145,0.047-0.201,0.039c-0.04,0.082-0.107,0.176-0.21,0.278c-0.1,0.103-0.167,0.181-0.202,0.233
			c-0.029-0.004-0.066,0.008-0.113,0.028c-0.046,0.022-0.086,0.048-0.117,0.072c-0.033,0.024-0.063,0.034-0.092,0.03l-0.027,0.216
			c-0.032,0.024-0.065,0.063-0.103,0.116c-0.035,0.054-0.069,0.094-0.103,0.117c-0.033,0.024-0.063,0.035-0.09,0.031
			c-0.059-0.008-0.089,0.004-0.093,0.031l-0.053,0.081c-0.037,0.054-0.071,0.093-0.104,0.116c-0.058-0.008-0.103,0.002-0.135,0.025
			c-0.062,0.022-0.125,0.071-0.192,0.149c-0.068,0.077-0.126,0.137-0.175,0.174c-0.048,0.036-0.118,0.078-0.212,0.124
			c-0.092,0.047-0.182,0.064-0.268,0.053c-0.036,0.055-0.114,0.102-0.236,0.145c-0.121,0.043-0.198,0.076-0.229,0.101
			c-0.028-0.003-0.088-0.004-0.174,0c-0.087,0.003-0.16,0.001-0.217-0.007c-0.243,0.085-0.394,0.123-0.45,0.115
			c-0.058-0.008-0.11-0.043-0.16-0.106c-0.293,0.021-0.505,0.095-0.638,0.224c-0.057-0.008-0.122-0.01-0.194-0.004
			c-0.073,0.004-0.125,0.006-0.152,0.002c-0.063,0.021-0.162,0.021-0.306,0.004c-0.027-0.004-0.105,0.029-0.229,0.101
			c-0.126,0.071-0.216,0.103-0.273,0.097c-0.057-0.009-0.122-0.061-0.196-0.156c-0.118,0.015-0.419-0.012-0.903-0.072
			c-0.2-0.026-0.345-0.03-0.434-0.014c-0.115-0.015-0.186-0.037-0.21-0.069c-0.061,0.021-0.154,0.03-0.285,0.028
			c-0.129-0.002-0.228,0.021-0.292,0.069c-0.081-0.038-0.193-0.067-0.336-0.086c-0.087-0.012-0.216-0.021-0.39-0.028
			c-0.172-0.008-0.287-0.016-0.345-0.022c-0.085-0.011-0.218-0.058-0.396-0.138c-0.18-0.082-0.322-0.144-0.433-0.188l-0.129-0.018
			l-0.037-0.047c-0.029-0.004-0.058-0.008-0.085-0.012l-0.087-0.012c-0.085-0.012-0.21-0.057-0.372-0.135
			c-0.165-0.079-0.289-0.125-0.375-0.135c-0.503-0.152-0.793-0.262-0.871-0.33l-0.112-0.146c-0.194-0.054-0.41-0.299-0.644-0.734
			c-0.095-0.39-0.146-0.687-0.146-0.89l0.071-0.556l-0.031-0.092l0.049-0.037c0.004-0.027,0.008-0.057,0.012-0.086
			c0.018-0.143,0.016-0.244-0.005-0.305c0.404-0.441,0.83-0.705,1.275-0.793c0.028,0.004,0.103,0.008,0.219,0.006
			c0.114,0.002,0.202-0.01,0.265-0.029l0.128,0.017c0.028,0.003,0.101,0.007,0.217,0.007c0.115,0,0.202,0.004,0.259,0.012
			c0.087,0.012,0.154,0.035,0.21,0.07c0.178-0.035,0.339-0.044,0.481-0.025c0.17,0.021,0.309,0.07,0.416,0.142
			c0.089-0.017,0.304-0.004,0.646,0.04l0.171,0.021c0.027,0.004,0.095-0.002,0.197-0.019c0.104-0.017,0.186-0.021,0.241-0.013
			l0.215,0.027c0.113,0.016,0.211-0.017,0.294-0.093c0.082-0.077,0.14-0.127,0.173-0.151c0.031-0.024,0.086-0.055,0.162-0.088
			s0.133-0.063,0.163-0.088c0.453-0.812,0.69-1.303,0.713-1.474c0.02-0.144,0-0.231-0.053-0.269
			c0.122-0.506-0.057-1.139-0.539-1.896c-0.078-0.067-0.208-0.187-0.389-0.354c-0.182-0.168-0.313-0.285-0.389-0.354
			c-0.059-0.007-0.101-0.021-0.125-0.037c-0.027-0.019-0.069-0.03-0.126-0.038c-0.048-0.093-0.128-0.146-0.24-0.16
			c-0.043-0.121-0.124-0.176-0.24-0.162c-0.019-0.09-0.147-0.207-0.39-0.354c-0.306-0.329-0.554-0.55-0.74-0.661
			c-0.025-0.031-0.034-0.076-0.027-0.134c-0.081-0.038-0.18-0.116-0.295-0.233c-0.116-0.115-0.2-0.191-0.254-0.229l0.012-0.086
			c-0.025-0.031-0.035-0.063-0.031-0.09c-0.075-0.099-0.202-0.236-0.382-0.42c-0.179-0.183-0.308-0.308-0.387-0.377
			c-0.039-0.148-0.228-0.478-0.567-0.985c-0.063-0.183-0.109-0.275-0.139-0.278l0.021-0.171c-0.125-0.161-0.184-0.271-0.175-0.327
			l0.017-0.129c0.004-0.027-0.014-0.124-0.05-0.289c-0.038-0.164-0.054-0.273-0.045-0.332c-0.207-0.636-0.331-1.027-0.369-1.178
			c-0.035-0.18-0.048-0.311-0.036-0.396c0.007-0.057,0.047-0.139,0.119-0.246c-0.019-0.088-0.017-0.219,0.007-0.391
			c0.051-0.398,0.165-0.732,0.346-0.999c0.02-0.144,0.098-0.292,0.232-0.448l0.021-0.172c0.074-0.135,0.203-0.291,0.388-0.472
			c0.182-0.179,0.311-0.335,0.386-0.472c0.259-0.198,0.41-0.367,0.458-0.506c0.028,0.002,0.139-0.069,0.332-0.219
			c0.031-0.025,0.111-0.072,0.236-0.145c0.125-0.07,0.219-0.129,0.283-0.18l0.043,0.004c0.031-0.023,0.063-0.035,0.091-0.031
			c0.064-0.049,0.188-0.105,0.369-0.17c0.184-0.063,0.307-0.119,0.371-0.17c0.117-0.012,0.296-0.055,0.537-0.125
			c0.24-0.07,0.436-0.111,0.581-0.121c0.068-0.079,0.188-0.106,0.359-0.084l0.214,0.027c0.06-0.021,0.136-0.041,0.225-0.06
			c0.089-0.017,0.149-0.038,0.183-0.063l0.171,0.022l0.401-0.079C45.523,120.434,45.754,120.449,46.097,120.494z"/>
		<path fill="#FAAF40" d="M77.981,125.824c0.086,0.01,0.465,0.104,1.14,0.276c0.026,0.004,0.092,0.021,0.188,0.046
			c0.099,0.027,0.175,0.045,0.232,0.053l0.037,0.049l0.042,0.004c0.199,0.026,0.312,0.069,0.332,0.131
			c1.107,0.173,2.131,0.447,3.067,0.83c-0.004,0.029,0.02,0.076,0.068,0.14l0.069,0.142l0.257,0.032
			c0.099,0.128,0.145,0.222,0.138,0.276c0.086,0.013,0.166,0.06,0.243,0.142c0.076,0.082,0.142,0.127,0.2,0.136
			c-0.009,0.057,0.012,0.131,0.058,0.225s0.065,0.168,0.058,0.226l-0.338,0.261c-0.064,0.051-0.263,0.242-0.596,0.576
			c-0.457,0.172-0.775,0.275-0.954,0.311l-0.128-0.016c-0.286-0.037-0.538,0.002-0.755,0.119c-0.285-0.035-0.836-0.049-1.648-0.037
			c-0.03,0.023-0.085,0.047-0.159,0.064c-0.075,0.02-0.131,0.042-0.161,0.066c0.021,0.523,0.026,0.801,0.022,0.83
			c-0.024,0.198-0.084,0.321-0.178,0.367c-0.008,0.059-0.002,0.131,0.015,0.221c0.019,0.088,0.025,0.147,0.022,0.176
			c-0.004,0.029-0.034,0.091-0.091,0.185c-0.056,0.095-0.088,0.185-0.1,0.271c-0.016,0.113-0.003,0.348,0.04,0.701
			c-0.004,0.027-0.021,0.056-0.055,0.08l-0.011,0.086c-0.009,0.058-0.005,0.15,0.008,0.283c0.011,0.131,0.014,0.227,0.006,0.283
			c-0.004,0.027-0.032,0.082-0.085,0.162c-0.056,0.08-0.084,0.135-0.088,0.162c-0.004,0.029-0.003,0.08,0.002,0.152
			c0.006,0.074,0.004,0.14-0.003,0.195c-0.02,0.143-0.104,0.35-0.254,0.62l0.095,0.272c-0.038,0.082-0.084,0.265-0.135,0.547
			c-0.052,0.285-0.127,0.479-0.229,0.58l-0.039,0.3c-0.019,0.144-0.048,0.319-0.091,0.532c-0.041,0.211-0.068,0.375-0.083,0.488
			c-0.025,0.2-0.033,0.358-0.02,0.477c-0.003,0.029,0.032,0.092,0.106,0.188c0.021,0.063,0.017,0.104-0.017,0.129l-0.061,0.123
			c0.067,0.154,0.092,0.303,0.072,0.444c-0.029,0.229-0.097,0.422-0.205,0.582c0.007,0.175-0.008,0.289-0.044,0.343
			c0.053,0.035,0.067,0.153,0.042,0.354c-0.004,0.029-0.01,0.072-0.017,0.129l0.031,0.09c-0.009,0.059-0.047,0.141-0.118,0.247
			l0.03,0.091c-0.007,0.059-0.013,0.1-0.016,0.128c-0.008,0.058-0.031,0.12-0.068,0.188c-0.038,0.066-0.059,0.115-0.063,0.145
			c0.021,0.061,0.058,0.116,0.109,0.165c0.052,0.052,0.075,0.091,0.071,0.118c-0.04,0.083-0.055,0.197-0.044,0.343
			c0.009,0.146-0.004,0.246-0.038,0.3c-0.037,0.055-0.089,0.118-0.156,0.197c-0.068,0.077-0.104,0.133-0.107,0.16
			c-0.004,0.027,0.005,0.064,0.029,0.111c0.021,0.047,0.031,0.084,0.027,0.113l-0.026,0.213c-0.025,0.199-0.097,0.408-0.21,0.625
			c0.083,0.244,0.111,0.465,0.087,0.664l-0.064,0.166c0.024,0.031,0.013,0.233-0.035,0.604c-0.011,0.086,0.003,0.203,0.043,0.354
			c0.037,0.15,0.053,0.268,0.041,0.354c-0.015,0.114-0.069,0.208-0.168,0.282c-0.031,0.024-0.1,0.052-0.205,0.082
			c-0.105,0.029-0.179,0.086-0.218,0.168c-0.028-0.004-0.108,0.008-0.244,0.033c-0.134,0.025-0.243,0.033-0.328,0.022
			c-0.064,0.05-0.474,0.187-1.228,0.407l-0.872,0.018c-0.029-0.003-0.064,0-0.11,0.008c-0.044,0.01-0.08,0.012-0.107,0.008
			c-0.059-0.006-0.163-0.035-0.315-0.084c-0.152-0.047-0.271-0.078-0.357-0.09l-0.178,0.021c-0.331-0.131-0.524-0.198-0.583-0.206
			l-0.085-0.011c-0.148-0.193-0.275-0.325-0.384-0.397c-0.023-0.03-0.091-0.142-0.196-0.329c-0.104-0.188-0.213-0.316-0.318-0.39
			c0.011-0.085-0.009-0.16-0.06-0.226c-0.396-0.515-0.569-0.972-0.519-1.371c0.019-0.143,0.015-0.229-0.009-0.262
			c-0.025-0.033-0.022-0.063,0.011-0.087l0.048-0.036c-0.074-0.098-0.103-0.217-0.084-0.359l0.062-0.471
			c0.004-0.027,0.021-0.055,0.054-0.08c0.032-0.023,0.051-0.052,0.055-0.08c0.003-0.027-0.013-0.072-0.048-0.137
			c-0.037-0.063-0.052-0.107-0.048-0.137c0.251-1.504,0.423-2.381,0.513-2.63c0.007-0.058,0.041-0.097,0.103-0.117
			c0.003-0.028,0.013-0.042,0.025-0.04c0.017,0.002,0.024-0.012,0.028-0.04c-0.078-0.067-0.053-0.151,0.076-0.251l-0.087-0.012
			c-0.058-0.008-0.083-0.025-0.079-0.053l0.152-0.852c0.003-0.027,0.028-0.054,0.074-0.076c0.048-0.023,0.072-0.05,0.076-0.078
			c0.004-0.027-0.007-0.06-0.031-0.09c-0.025-0.033-0.037-0.064-0.033-0.093c0.005-0.028,0.037-0.233,0.103-0.616
			c0.064-0.384,0.134-0.643,0.209-0.779c0.004-0.027-0.007-0.059-0.03-0.09l0.011-0.086c0.062-0.254,0.127-0.65,0.196-1.191
			l0.281-2.182c0.011-0.086,0.048-0.205,0.111-0.355c0.063-0.151,0.1-0.27,0.109-0.355c0.036-0.054,0.081-0.171,0.134-0.353
			c0.053-0.183,0.123-0.281,0.213-0.3c-0.027-0.234-0.037-0.381-0.03-0.438c0.008-0.058,0.061-0.181,0.156-0.37
			c0.097-0.189,0.165-0.326,0.204-0.408s0.075-0.192,0.108-0.334c0.032-0.142,0.069-0.252,0.109-0.334
			c0.214-0.32,0.324-0.508,0.333-0.565c-0.132-0.104-0.4-0.211-0.809-0.322c-0.404-0.108-0.673-0.229-0.8-0.362l-0.128-0.018
			c-0.172-0.021-0.282-0.064-0.333-0.13c-0.284-0.037-0.419-0.112-0.404-0.228l-0.257-0.033c-0.079-0.066-0.253-0.176-0.522-0.328
			c-0.271-0.149-0.458-0.275-0.562-0.375l0.012-0.086c0.012-0.086,0.037-0.184,0.081-0.295c0.042-0.109,0.066-0.18,0.069-0.209
			l0.849-0.498c0.058,0.007,0.146-0.019,0.271-0.073c0.123-0.058,0.242-0.078,0.355-0.063c0.028,0.004,0.048,0.021,0.059,0.051
			c0.01,0.031,0.045,0.049,0.102,0.058c0.674-0.058,1.068-0.079,1.185-0.063l0.127,0.017c0.311-0.163,0.693-0.216,1.15-0.156
			c0.094-0.046,0.239-0.058,0.438-0.03l0.301,0.039l0.572-0.058c0.057,0.008,0.112,0.022,0.168,0.044
			c0.055,0.021,0.111,0.036,0.168,0.043c0.028,0.004,0.072,0.003,0.132-0.005c0.06-0.007,0.103-0.009,0.131-0.005l0.342,0.044
			c0.313,0.041,0.556,0.087,0.723,0.137C77.638,125.792,77.782,125.796,77.981,125.824z"/>
		<path fill="#FAAF40" d="M94.458,128.556c0.024,0.033,0.105,0.072,0.246,0.119c0.139,0.047,0.219,0.102,0.239,0.162l0.172,0.021
			c0.228,0.029,0.365,0.076,0.417,0.142c0.026,0.004,0.045-0.01,0.049-0.037l0.043,0.006c0.085,0.011,0.23,0.059,0.438,0.143
			c0.206,0.086,0.354,0.133,0.438,0.145c0.087,0.012,0.159,0.007,0.22-0.016c-0.004,0.028-0.008,0.059-0.012,0.086
			c-0.003,0.028-0.007,0.057-0.012,0.086l0.258,0.032c0.023,0.032,0.021,0.062-0.012,0.087l-0.006,0.043
			c0.087,0.01,0.153,0.047,0.203,0.111s0.103,0.102,0.16,0.107c0.025,0.033,0.074,0.097,0.149,0.193
			c0.074,0.096,0.104,0.188,0.095,0.273l0.11,0.144c-0.008,0.058-0.002,0.132,0.018,0.22c0.017,0.09,0.023,0.148,0.021,0.178
			c-0.011,0.084-0.02,0.207-0.025,0.365c-0.007,0.16-0.001,0.283,0.018,0.373c0.019,0.088,0.056,0.194,0.112,0.317
			c0.055,0.124,0.08,0.214,0.073,0.271c-0.004,0.028-0.022,0.056-0.056,0.08c-0.028-0.004-0.045,0.01-0.048,0.037
			c-0.008,0.057,0.019,0.141,0.077,0.248c0.058,0.109,0.084,0.193,0.077,0.25c-0.004,0.028-0.056,0.079-0.151,0.154
			c-0.097,0.074-0.147,0.141-0.154,0.197c-0.009,0.058,0.01,0.096,0.05,0.115c0.041,0.02,0.06,0.045,0.056,0.072
			c-0.059,0.225-0.053,0.413,0.014,0.566l-0.215,0.32l-0.289,0.224c0.017,0.089,0.098,0.144,0.239,0.161
			c0.024,0.031,0.034,0.128,0.028,0.285c-0.007,0.158,0.016,0.271,0.064,0.336c-0.094,0.277-0.146,0.459-0.156,0.545
			c-0.016,0.113-0.01,0.188,0.015,0.22l-0.011,0.085c-0.009,0.059-0.079,0.164-0.216,0.32c0.041,0.121,0.05,0.296,0.021,0.523
			c-0.03,0.229-0.009,0.405,0.062,0.53c-0.004,0.028-0.031,0.082-0.086,0.162c-0.054,0.081-0.055,0.14-0.001,0.174
			c-0.03,0.026-0.077,0.034-0.134,0.026l-0.027,0.214c-0.031,0.024-0.092,0.032-0.177,0.021c-0.004,0.028,0.018,0.096,0.062,0.203
			s0.063,0.189,0.056,0.246c-0.015,0.114-0.082,0.18-0.199,0.191c-0.007,0.058,0.032,0.31,0.12,0.755
			c-0.029-0.003-0.059,0.008-0.09,0.032l-0.05,0.037l0.159,0.455c-0.004,0.028-0.029,0.062-0.078,0.099
			c-0.048,0.038-0.074,0.071-0.078,0.099c-0.004,0.029,0.025,0.135,0.09,0.316c-0.094,0.277-0.151,0.502-0.174,0.674
			c-0.036,0.285-0.012,0.55,0.073,0.792c-0.1,0.073-0.153,0.17-0.168,0.282c-0.008,0.059,0.007,0.175,0.041,0.354
			c-0.012,0.086-0.073,0.121-0.188,0.105c0.016,0.322,0.063,0.517,0.144,0.584c-0.008,0.059-0.058,0.096-0.146,0.111l-0.114,0.203
			c-0.003,0.028-0.014,0.057-0.031,0.084c-0.02,0.025-0.017,0.069,0.005,0.131c-0.009,0.058,0.031,0.09,0.116,0.102
			c-0.032,0.257-0.034,0.388-0.007,0.391c-0.032,0.025-0.052,0.066-0.06,0.123c-0.004,0.029,0.018,0.09,0.063,0.184l0.068,0.14
			c-0.032,0.024-0.081,0.067-0.147,0.133c-0.065,0.063-0.114,0.108-0.146,0.134c-0.004,0.027,0.019,0.074,0.068,0.139
			c0.049,0.066,0.088,0.113,0.111,0.146c-0.083,0.193-0.155,0.3-0.215,0.32l-0.021,0.171c-0.016,0.113-0.073,0.339-0.175,0.674
			c0.101,0.129,0.141,0.266,0.121,0.406c-0.008,0.059-0.043,0.111-0.106,0.16c-0.036,0.285-0.095,0.496-0.168,0.632
			c0.023,0.03,0.029,0.099,0.018,0.196c-0.013,0.102-0.009,0.182,0.013,0.242l-0.192,0.147c-0.026,0.2-0.059,0.327-0.092,0.38
			l0.086,0.012c0.056,0.008,0.083,0.025,0.078,0.053c0.044,0.123,0.011,0.264-0.098,0.424c0.026,0.234,0.032,0.424,0.014,0.566
			l-0.021,0.172c0.059,0.209,0.023,0.365-0.104,0.465c0.057,0.238,0.067,0.486,0.034,0.742l-0.017,0.129
			c0.051,0.063,0.066,0.162,0.051,0.289c-0.016,0.129-0.014,0.209,0.013,0.24c-0.032,0.025-0.068,0.079-0.106,0.16
			c-0.04,0.082-0.077,0.135-0.109,0.161c-0.015,0.112-0.037,0.183-0.068,0.208c-0.063,0.02-0.134,0.068-0.217,0.146
			c-0.082,0.076-0.139,0.127-0.17,0.15c-0.015,0.113-0.071,0.223-0.173,0.325c-0.101,0.103-0.155,0.196-0.167,0.282l-0.048,0.037
			c-0.029-0.004-0.058-0.006-0.086-0.01c0.021,0.061-0.004,0.144-0.076,0.25l-0.14,0.069c-0.098,0.074-0.174,0.108-0.23,0.101
			c-0.003,0.028-0.038,0.066-0.102,0.117c-0.065,0.049-0.115,0.102-0.15,0.154c-0.059-0.008-0.132,0.006-0.223,0.037
			c-0.09,0.031-0.151,0.045-0.18,0.041c-0.027-0.004-0.069-0.021-0.122-0.059c-0.184,0.063-0.359,0.084-0.529,0.063
			c-0.172-0.021-0.429-0.113-0.771-0.273s-0.611-0.252-0.813-0.277c-0.057-0.008-0.089-0.034-0.099-0.078
			c-0.009-0.045-0.026-0.069-0.056-0.072l-0.172-0.021c-0.122,0.041-0.239,0.056-0.353,0.041c-0.345-0.045-0.683-0.232-1.016-0.564
			c0.016-0.113-0.006-0.176-0.063-0.184l-0.17-0.021c-0.026-0.031-0.081-0.111-0.166-0.238c-0.086-0.127-0.15-0.236-0.197-0.33
			c0.004-0.027,0.021-0.056,0.055-0.08l0.085,0.013c-0.147-0.193-0.249-0.425-0.303-0.69c0.004-0.029,0.029-0.056,0.076-0.078
			c0.045-0.023,0.07-0.05,0.074-0.078c0.004-0.027-0.006-0.08-0.022-0.154c-0.02-0.075-0.015-0.11,0.014-0.107
			c0.008-0.057-0.043-0.121-0.147-0.191c0.031-0.025,0.038-0.075,0.019-0.149c-0.02-0.075-0.027-0.128-0.023-0.155
			c0.039-0.082,0.063-0.138,0.065-0.166l0.033-0.257c0.003-0.028-0.006-0.081-0.024-0.155s-0.024-0.141-0.018-0.197l0.011-0.086
			l-0.037-0.047c0.005-0.029,0.008-0.06,0.012-0.086c0.004-0.029,0.008-0.115,0.012-0.26c0.004-0.146-0.004-0.248-0.025-0.309
			c0.032-0.025,0.069-0.092,0.113-0.202c0.043-0.11,0.081-0.179,0.112-0.204l-0.095-0.273c0.071-0.104,0.11-0.188,0.118-0.244
			l0.048-0.037c0.004-0.028,0.008-0.057,0.012-0.086l0.017-0.129c0.007-0.057,0.011-0.144,0.013-0.26
			c0-0.115,0.007-0.215,0.018-0.302c0.011-0.086,0.041-0.204,0.089-0.358c0.049-0.152,0.08-0.271,0.091-0.357l0.018-0.128
			c0.007-0.058-0.016-0.117-0.063-0.183c0.088-0.685,0.177-1.15,0.269-1.4c0.004-0.027,0.021-0.055,0.054-0.08l0.048-0.037
			c-0.021-0.061-0.022-0.154-0.006-0.283c0.017-0.128,0.028-0.221,0.035-0.277l-0.031-0.092c-0.026-0.031-0.037-0.063-0.033-0.092
			c0.004-0.027,0.027-0.097,0.071-0.207c0.043-0.109,0.069-0.193,0.076-0.252c-0.068-0.152-0.069-0.255-0.004-0.305
			c-0.026-0.032-0.033-0.092-0.022-0.178c0.008-0.057,0.023-0.127,0.051-0.211c0.024-0.084,0.039-0.139,0.043-0.168
			c0.009-0.058,0.012-0.144,0.013-0.26c-0.001-0.115,0.002-0.188,0.005-0.217c0.015-0.113,0.071-0.208,0.168-0.283
			c-0.021-0.061-0.066-0.103-0.136-0.125c-0.07-0.023-0.116-0.052-0.142-0.084c-0.033,0.024-0.191,0.02-0.477-0.019
			c-0.085-0.011-0.146-0.005-0.179,0.021c-0.053-0.035-0.149-0.063-0.293-0.08c-0.058-0.009-0.181-0.01-0.368-0.004
			c-0.19,0.004-0.341-0.016-0.449-0.06c-0.029-0.005-0.083-0.032-0.163-0.086s-0.135-0.082-0.162-0.087
			c-0.029-0.004-0.08-0.01-0.15-0.02c-0.07-0.009-0.12-0.029-0.145-0.063l-0.037-0.049c-0.028-0.004-0.058-0.008-0.086-0.012
			l-0.154-0.15l-0.214-0.026l-0.646-0.388c-0.114-0.016-0.188-0.01-0.221,0.016c-0.077-0.066-0.261-0.171-0.547-0.311
			c-0.287-0.139-0.479-0.271-0.579-0.4l-0.214-0.027c-0.074-0.097-0.175-0.217-0.301-0.365c-0.127-0.146-0.246-0.283-0.36-0.416
			c-0.111-0.129-0.203-0.271-0.271-0.426c-0.31-0.301-0.48-0.541-0.517-0.719c-0.073-0.098-0.153-0.267-0.237-0.51
			c-0.085-0.242-0.14-0.395-0.159-0.455l0.021-0.172c-0.052-0.063-0.087-0.126-0.106-0.188l0.006-0.043l0.054-0.08
			c-0.178-0.429-0.231-0.899-0.166-1.414l0.057-0.426c0.007-0.058,0.009-0.123,0.003-0.195c-0.005-0.073-0.005-0.125-0.001-0.152
			c0.011-0.086,0.03-0.141,0.063-0.166c0.003-0.027,0.008-0.122,0.015-0.281c0.007-0.156,0.025-0.264,0.063-0.316l0.161-0.24
			c0.004-0.028,0-0.059-0.01-0.09c-0.013-0.028-0.016-0.059-0.012-0.088c0.005-0.027,0.016-0.063,0.035-0.104
			c0.021-0.042,0.032-0.076,0.035-0.105c0.008-0.057,0.002-0.137-0.013-0.239c-0.016-0.103-0.019-0.197-0.007-0.283l0.104-0.465
			l0.018-0.129c0.028-0.228,0.06-0.354,0.093-0.38l0.011-0.086c0.008-0.057,0.034-0.153,0.082-0.293
			c0.047-0.139,0.075-0.252,0.086-0.338l0.017-0.127c0.028,0.002,0.065,0,0.11-0.008c0.045-0.01,0.083-0.025,0.115-0.052
			c0.004-0.028-0.008-0.052-0.034-0.069c-0.027-0.018-0.023-0.053,0.014-0.105c0.004-0.028,0.034-0.047,0.094-0.055
			c0.06-0.006,0.091-0.023,0.095-0.053c-0.043-0.121-0.06-0.226-0.048-0.311l0.055-0.08c0.035-0.055,0.058-0.107,0.064-0.166
			l0.012-0.085l0.091-0.032c0.036-0.055,0.063-0.145,0.078-0.271c0.017-0.129,0.057-0.217,0.122-0.268
			c0.036-0.285,0.082-0.425,0.141-0.417c0.016-0.114,0.049-0.204,0.101-0.271c0.052-0.064,0.127-0.137,0.224-0.211
			c0.096-0.074,0.163-0.137,0.197-0.191c0.146-0.01,0.481-0.023,1.007-0.044c0.028,0.004,0.066,0.038,0.118,0.103
			c0.088-0.018,0.235-0.041,0.442-0.072l0.087,0.011l0.656-0.046c0.199,0.025,0.436,0.115,0.706,0.266
			c0.028,0.004,0.072-0.005,0.134-0.025c0.11,0.043,0.245,0.119,0.405,0.227c0.161,0.107,0.281,0.182,0.363,0.221
			c0.014,0.117,0.083,0.25,0.21,0.396c0.126,0.146,0.192,0.294,0.205,0.439l0.104,0.188c-0.004,0.029-0.023,0.076-0.063,0.145
			s-0.047,0.133-0.024,0.192c-0.004,0.028,0.015,0.062,0.053,0.094c0.039,0.034,0.058,0.065,0.054,0.095l-0.005,0.043
			c-0.032,0.023-0.052,0.051-0.056,0.08c-0.004,0.027,0.011,0.045,0.038,0.049l0.031,0.09l-0.048,0.037l-0.028,0.215
			c0.192,0.082,0.271,0.268,0.234,0.552c-0.013,0.086-0.036,0.155-0.071,0.209c-0.003,0.028,0.01,0.044,0.038,0.048l0.08,0.055
			c0.017,0.09,0.009,0.205-0.023,0.344c-0.032,0.143-0.039,0.242-0.018,0.304c-0.075,0.136-0.089,0.249-0.044,0.343
			c-0.057-0.008-0.103,0.002-0.133,0.025l0.039,0.701c-0.049,0.14-0.084,0.322-0.113,0.551c-0.02,0.143-0.041,0.531-0.064,1.166
			c-0.096,0.074-0.129,0.216-0.098,0.422c-0.004,0.027-0.022,0.057-0.054,0.08l-0.048,0.037c-0.033,0.025-0.037,0.055-0.013,0.086
			l0.08,0.054c0.024,0.032,0.021,0.067-0.014,0.106c-0.035,0.039-0.053,0.074-0.058,0.102c0.024,0.032,0.026,0.135,0.005,0.307
			l0.036,0.047c0.021,0.062,0.029,0.105,0.025,0.135l-0.053,0.08c-0.052,0.398-0.028,0.662,0.071,0.792
			c-0.008,0.058-0.01,0.122-0.004,0.194c0.006,0.074,0.007,0.125,0.002,0.152l-0.011,0.086c0.074,0.098,0.128,0.248,0.158,0.455
			c0.032,0.207,0.069,0.355,0.117,0.45l0.351,0.306c0.055,0.036,0.112,0.029,0.179-0.021c0.063-0.049,0.123-0.07,0.182-0.063
			l0.166-0.281c0.122-0.043,0.233-0.182,0.337-0.414c0.103-0.232,0.172-0.377,0.208-0.43c0.028,0.004,0.123-0.058,0.284-0.182
			c-0.025-0.031-0.034-0.076-0.027-0.135c0.008-0.057-0.001-0.102-0.026-0.133c0.063-0.021,0.122-0.094,0.182-0.217
			s0.136-0.207,0.229-0.254c0.004-0.027,0.031-0.083,0.086-0.162c0.055-0.08,0.054-0.138,0-0.175
			c0.064-0.049,0.13-0.164,0.196-0.344c0.068-0.181,0.147-0.292,0.239-0.339c-0.053-0.035-0.075-0.082-0.068-0.139
			c0.008-0.059,0.041-0.098,0.103-0.119c-0.024-0.03-0.032-0.076-0.025-0.133c0.008-0.058,0.039-0.14,0.097-0.248
			c0.059-0.109,0.089-0.178,0.093-0.207l0.006-0.041c-0.024-0.033-0.036-0.063-0.032-0.092c0.033-0.257,0.145-0.563,0.336-0.914
			c-0.042-0.121-0.06-0.209-0.053-0.268c0.008-0.057,0.044-0.169,0.107-0.334c0.064-0.166,0.104-0.291,0.114-0.377
			c0.014-0.113,0.029-0.285,0.044-0.516c0.015-0.231,0.03-0.402,0.045-0.518l0.011-0.086c0.032-0.023,0.052-0.051,0.056-0.079
			l0.017-0.129c0.011-0.086,0.015-0.224,0.009-0.412c-0.005-0.188-0.001-0.325,0.011-0.412l0.017-0.128
			c0.004-0.027,0.022-0.068,0.06-0.123c0.035-0.053,0.057-0.094,0.061-0.121l0.021-0.173c0.005-0.026,0.022-0.055,0.055-0.08
			c0.063-0.049,0.1-0.088,0.104-0.116l0.499-0.85c0.361-0.098,0.686-0.13,0.97-0.094C94.428,128.683,94.447,128.642,94.458,128.556z
			"/>
	</g>
	<g>
		<g>
			<path fill="#468885" d="M58.263,59.328c8.066,0.679,19.115-16.179,17.693-23.697c-8.687,2.715-9.658,4.528-16.111,9.317
				c-0.438-1.102-3.408-11.095-3.789-12.151c-3.412,2.333-1.227,15.917-2.988,19.443c-3.377-2.712-8.024-9.628-12.924-5.532
				C42.538,58.274,58.263,59.328,58.263,59.328z"/>
			<g>
				<path fill="#BE1E2D" d="M62.136,121.753c-13.381-6.297-24.85-25.282-27.094-39.729c-1.045-6.691,0.541-15.887,4.557-21.629
					c5.734-8.201,12.654-1.728,22.055-2.391c7.181-0.512,14.234-8.879,21.025-3.727c6.617,5.037,8.896,16.618,8.109,24.303
					C89.583,90.319,76.292,124.93,62.136,121.753z"/>
				<path fill="#231F20" d="M63.979,122.708c-0.673,0-1.348-0.074-2.008-0.223l-0.155-0.053
					C47.651,115.766,36.504,96.328,34.3,82.14c-1.146-7.331,0.825-16.657,4.684-22.174c2.153-3.08,4.716-4.514,8.063-4.514
					c1.847,0,3.774,0.41,5.818,0.843c2.728,0.58,5.573,1.188,8.733,0.962c2.523-0.18,5.14-1.438,7.67-2.654
					c2.807-1.349,5.707-2.744,8.604-2.744c1.921,0,3.641,0.596,5.257,1.822c6.604,5.028,9.258,16.621,8.402,24.977
					C90.371,89.982,77.964,122.708,63.979,122.708z M62.379,121.041c0.526,0.111,1.064,0.168,1.601,0.168
					c12.924,0,24.971-32.059,26.063-42.705c0.813-7.95-1.648-18.934-7.817-23.629c-1.345-1.021-2.768-1.517-4.35-1.517
					c-2.557,0-5.178,1.261-7.954,2.596c-2.657,1.278-5.404,2.599-8.214,2.799c-3.365,0.237-6.461-0.418-9.152-0.991
					c-1.964-0.417-3.817-0.811-5.507-0.811c-2.894,0-4.938,1.159-6.835,3.874c-3.657,5.231-5.521,14.098-4.43,21.083
					C37.933,95.75,49.126,114.75,62.379,121.041z"/>
			</g>
			<g>
				<path fill="#5AB1AF" d="M60.659,57.56c-8.066,0.68-19.457-21.231-18.037-28.75c8.686,2.715,10.002,9.582,16.455,14.371
					c0.436-1.102-0.25-7.211,0.131-8.266c3.412,2.333,4.885,12.031,6.646,15.557c3.377-2.711,8.023-9.627,12.924-5.529
					C76.384,56.507,60.659,57.56,60.659,57.56z"/>
				<path fill="#231F20" d="M60.288,58.325c-3.31,0-6.587-3.118-8.755-5.734c-5.932-7.155-10.619-18.78-9.648-23.921l0.156-0.828
					l0.805,0.251c5.528,1.728,8.252,5.149,10.886,8.457c1.405,1.765,2.852,3.582,4.745,5.194c0.008-0.854-0.036-1.989-0.068-2.855
					c-0.087-2.221-0.129-3.613,0.096-4.23l0.329-0.911l0.799,0.547c2.475,1.692,3.902,6.515,5.162,10.77
					c0.461,1.559,0.901,3.05,1.341,4.173c0.462-0.423,0.95-0.903,1.455-1.4c2.34-2.303,4.99-4.914,8.014-4.914
					c1.282,0,2.514,0.485,3.657,1.442l0.344,0.288l-0.091,0.439c-2.48,11.985-18.138,13.169-18.804,13.214
					C60.579,58.319,60.434,58.325,60.288,58.325z M43.26,29.818c-0.256,5.101,4.153,15.452,9.428,21.816
					c2.909,3.51,5.689,5.36,7.909,5.178c0.161-0.011,14.778-1.126,17.345-11.571c-0.762-0.548-1.529-0.816-2.339-0.816
					c-2.408,0-4.827,2.381-6.961,4.482c-0.814,0.803-1.586,1.562-2.316,2.149L65.6,51.639l-0.416-0.832
					c-0.627-1.256-1.211-3.228-1.829-5.315c-0.923-3.119-2.029-6.86-3.515-8.884c0.008,0.715,0.04,1.557,0.065,2.224
					c0.095,2.424,0.139,3.944-0.132,4.625l-0.358,0.909l-0.785-0.583c-2.588-1.92-4.359-4.146-6.072-6.297
					C50.102,34.4,47.773,31.477,43.26,29.818z"/>
			</g>
			<g>
				<path fill="#FFFFFF" d="M60.493,73.436c-2.154-3.192-1.287-6.563,0.844-9.503C61.337,63.933,66.438,74.181,60.493,73.436z"/>
				<path fill="#FFFFFF" d="M56.161,75.348c-2.41,1.876-3.068,7.423,1.08,6.485C59.478,80.497,57.628,76.185,56.161,75.348z"/>
				<path fill="#FFFFFF" d="M45.673,64.917c0.074,1.758,2.813,8.592-0.678,8.945C40.858,74.288,45.673,64.917,45.673,64.917z"/>
				<path fill="#FFFFFF" d="M63.39,81.292c0.506,1.437,5.531,10.702,0.631,10.936C58.95,92.481,63.39,81.292,63.39,81.292z"/>
				<path fill="#FFFFFF" d="M69.591,76.73c1.834-0.541,9.008,5.906,2.699,6.962C69.009,82.473,69.591,76.73,69.591,76.73z"/>
			</g>
		</g>
		<path fill="#468885" d="M51.325,38.56c0,0,9.811,9.632,9.096,15.767c-0.717,6.136-10.166-5.827-10.728-11.915
			C49.133,36.324,51.325,38.56,51.325,38.56z"/>
		<path fill="#77111A" d="M70.243,57.673c0,0,16.756-7.745,17.461,15.998c0.557,18.708-3.738,15.364-4.455,6.645
			c-0.713-8.721-2.279-13.678-6.146-13.456C73.238,67.082,65.722,65.484,70.243,57.673z"/>
		<g>
			<path fill="#3B2314" d="M32.911,86.74c0,0,2.045-10.849,10.694-2.326c5.533,5.448,17.205,9.455,21.66,5.496
				c4.455-3.957,6.008-16.436,16.508-18.52c2.824-0.56,16.724-0.276,14.783,8.804c-3.842,22.147-23.315,41.237-27.307,45.531
				c-3.986,4.297-0.123,12.549-0.81,18.008c-1.219,9.724-8.629,10.619-14.41,4.492c-5.78-6.125,7.197-12.425,3.353-20.826
				C54.753,123.429,35.513,102.944,32.911,86.74z"/>
			<path fill="#8A5D3B" d="M79.331,79.241c0,0,5.59-4.097,11.52-2.561c5.935,1.533-2.494,22.418-6.621,25.432
				c-4.127,3.017-1.078-11,0.479-14.782C86.269,83.544,75.038,86.091,79.331,79.241z"/>
			<path fill="#8A5D3B" d="M74.979,115.011c0,0,5.049-5.945,9.25-12.898c4.205-6.945-1.735-8.836-2.133-6.641
				c-1.451,8.072-6.76,15.49-7.982,16.599C72.894,113.177,72.948,115.835,74.979,115.011z"/>
			<path fill="#8A5D3B" d="M64.741,134.981c0,0,5.274,12.744-2.722,13.392c-7.998,0.646-6.783-4.664-3.137-4.474
				c1.522,0.08,2.645-1.909,2.809-4.403C61.854,137.003,61.569,133.55,64.741,134.981z"/>
			<path fill="#FFFFFF" d="M83.042,81.083c0,0-3.842,1.236-1.373,3.307c2.469,2.072,5.115,4.477,5.182,3.053
				c0.067-1.424,3.031-4.328,0.64-5.613C85.095,80.547,83.042,81.083,83.042,81.083z"/>
			<path fill="#FFFFFF" d="M82.899,91.427c0,0-1.606,3.375,0.345,3.753c1.95,0.374,2.196-3.437,2.186-3.397
				C85.413,91.828,85.196,90.257,82.899,91.427z"/>
			<path fill="#754C28" d="M49.819,90.39c7.521,5.465,14,3.73,17.607,0.793c3.605-2.939,7.492,6.303-2.594,11.439
				c-2.793,1.422-2.476,5.898-2.027,10.123c0.445,4.229-6.846,8.489-7.379,2.856c-0.531-5.636,3.172-12.392-0.314-15.244
				c-3.483-2.854-2.176-4.108-4.545-3.269c-2.366,0.836,3.197,10.449-2.489,9.726c-5.55-0.707-5.123-5.836-5.318-11.412
				c-0.193-5.575-7.285-6.56-7.221-9.274C35.599,83.41,38.251,81.983,49.819,90.39z"/>
		</g>
	</g>
	<g>
		<path fill="#231F20" d="M37.175,8.712c0.423-0.053,0.736-0.079,0.938-0.081c0.605-0.025,0.925-0.015,0.955,0.031
			c0.277-0.009,0.711,0.011,1.303,0.063l0.738,0.136c0.238,0.07,0.384,0.117,0.437,0.134c0.082,0.042,0.168,0.075,0.26,0.101
			c0.093,0.026,0.178,0.047,0.256,0.063c0.162,0.08,0.304,0.189,0.422,0.326c0.051-0.007,0.108,0.012,0.179,0.054
			c0.067,0.042,0.114,0.062,0.141,0.058c0.035,0.071,0.128,0.168,0.284,0.288c0.153,0.12,0.25,0.229,0.288,0.325
			c0.192,0.127,0.311,0.354,0.353,0.678c0.017,0.125,0.017,0.226,0.001,0.305c0.007,0.252-0.143,0.487-0.442,0.703
			c-0.022,0.028-0.056,0.071-0.1,0.126l-0.106,0.052c-0.025,0.003-0.076-0.003-0.155-0.02c-0.077-0.014-0.13-0.021-0.154-0.018
			c-0.306-0.012-0.537-0.033-0.692-0.064c-0.054-0.018-0.134-0.046-0.238-0.084c-0.105-0.038-0.186-0.053-0.233-0.046l-0.188,0.023
			c-0.075,0.01-0.194,0.019-0.357,0.026c-0.165,0.008-0.284,0.018-0.357,0.027c-0.051,0.006-0.125,0.029-0.222,0.066
			c-0.097,0.037-0.17,0.058-0.221,0.065l-0.154-0.018c-0.049,0.006-0.114,0.039-0.194,0.101c-0.081,0.061-0.157,0.108-0.229,0.142
			c-0.153,0.198-0.265,0.313-0.337,0.348c0.011,0.075-0.059,0.236-0.205,0.482c-0.037,0.106-0.104,0.179-0.199,0.216
			c0.013,0.1-0.01,0.286-0.063,0.56s-0.069,0.498-0.048,0.672c0.02,0.149,0.047,0.26,0.08,0.333
			c0.138,0.287,0.351,0.462,0.639,0.527c0.049-0.006,0.111-0.015,0.186-0.024c0.076-0.009,0.156-0.021,0.244-0.031
			c0.086-0.011,0.155-0.02,0.206-0.026c0.274-0.035,0.798-0.012,1.568,0.067c0.028,0.023,0.063,0.005,0.106-0.051
			c0.028,0.022,0.228,0.085,0.596,0.192l0.16,0.055c0.023-0.003,0.051,0.006,0.078,0.028c0.028,0.022,0.055,0.031,0.079,0.027
			c0.028,0.023,0.097,0.059,0.204,0.108c0.107,0.049,0.201,0.082,0.278,0.098l0.146,0.248c0.077,0.016,0.146,0.064,0.208,0.144
			c0.063,0.082,0.106,0.133,0.135,0.154c0.026,0.022,0.083,0.054,0.164,0.095c0.081,0.04,0.138,0.084,0.168,0.13
			c0.004,0.025,0.014,0.055,0.03,0.091c0.018,0.036,0.027,0.067,0.031,0.092c0.519,0.29,0.868,0.651,1.05,1.084
			c0.444,0.705,0.673,1.106,0.688,1.207c0.055,0.044,0.143,0.133,0.262,0.271c-0.019,0.054-0.022,0.117-0.014,0.191
			c0.01,0.075,0.017,0.126,0.019,0.15l0.085,0.064c0.028,0.023,0.059,0.057,0.089,0.104c0.004,0.024,0.011,0.075,0.021,0.149
			c0.01,0.074,0.03,0.135,0.061,0.182c0.075,0.194,0.114,0.303,0.118,0.327c0.01,0.075-0.032,0.157-0.122,0.244
			c0.028,0.022,0.046,0.059,0.052,0.108c0.005,0.025-0.002,0.082-0.016,0.172c-0.013,0.092-0.006,0.16,0.025,0.206
			c-0.047,0.032-0.08,0.106-0.104,0.223c-0.023,0.117-0.059,0.192-0.104,0.223c0.091,0.115,0.144,0.235,0.159,0.359
			c0.025,0.2-0.014,0.396-0.114,0.585c0.003,0.025-0.021,0.054-0.066,0.084c-0.048,0.032-0.08,0.062-0.103,0.088
			c-0.014,0.104-0.054,0.235-0.121,0.396c-0.068,0.161-0.109,0.294-0.12,0.395c-0.026,0.004-0.067,0.028-0.125,0.074
			c-0.057,0.045-0.112,0.071-0.162,0.077c-0.016,0.079-0.055,0.173-0.116,0.282c-0.062,0.11-0.103,0.19-0.121,0.244
			c-0.024,0.003-0.056,0.02-0.088,0.05c-0.035,0.029-0.063,0.06-0.085,0.086c-0.021,0.028-0.046,0.044-0.07,0.048l0.024,0.187
			c-0.021,0.029-0.042,0.069-0.061,0.122c-0.021,0.054-0.039,0.094-0.063,0.122c-0.021,0.028-0.045,0.043-0.069,0.047
			c-0.051,0.006-0.072,0.022-0.069,0.047l-0.028,0.079c-0.018,0.054-0.039,0.095-0.061,0.122c-0.051,0.007-0.086,0.024-0.107,0.052
			c-0.047,0.031-0.09,0.088-0.13,0.169c-0.042,0.08-0.078,0.143-0.11,0.185s-0.084,0.093-0.151,0.152
			c-0.068,0.061-0.141,0.095-0.216,0.104c-0.02,0.054-0.075,0.111-0.168,0.174c-0.094,0.063-0.15,0.108-0.173,0.136
			c-0.024,0.003-0.073,0.016-0.146,0.038c-0.073,0.022-0.135,0.035-0.187,0.043c-0.187,0.125-0.305,0.19-0.354,0.196
			c-0.051,0.006-0.104-0.012-0.159-0.057c-0.244,0.083-0.408,0.192-0.491,0.33c-0.051,0.006-0.105,0.02-0.166,0.04
			c-0.062,0.021-0.104,0.032-0.129,0.035c-0.047,0.031-0.132,0.055-0.257,0.07c-0.025,0.004-0.084,0.048-0.174,0.137
			c-0.09,0.088-0.16,0.134-0.21,0.14c-0.051,0.006-0.118-0.022-0.201-0.088c-0.097,0.037-0.358,0.083-0.782,0.137
			c-0.175,0.022-0.298,0.05-0.369,0.084c-0.106,0.015-0.17,0.01-0.197-0.012c-0.049,0.031-0.125,0.062-0.236,0.088
			c-0.111,0.027-0.189,0.068-0.232,0.125c-0.077-0.016-0.18-0.016-0.304,0c-0.075,0.01-0.187,0.031-0.335,0.061
			c-0.148,0.032-0.248,0.052-0.297,0.058c-0.074,0.009-0.197,0-0.365-0.03c-0.169-0.029-0.305-0.05-0.406-0.063l-0.112,0.015
			l-0.043-0.034c-0.024,0.003-0.051,0.008-0.074,0.01l-0.074,0.009c-0.075,0.009-0.189,0-0.348-0.032
			c-0.156-0.031-0.271-0.041-0.347-0.032c-0.46-0.018-0.729-0.047-0.811-0.088l-0.126-0.099c-0.179-0.002-0.415-0.162-0.708-0.479
			c-0.167-0.307-0.272-0.549-0.32-0.72l-0.061-0.486l-0.047-0.07l0.03-0.042c-0.002-0.024-0.006-0.051-0.008-0.076
			c-0.018-0.124-0.041-0.209-0.07-0.257c0.244-0.463,0.548-0.779,0.905-0.951c0.024-0.003,0.087-0.018,0.186-0.043
			c0.098-0.025,0.17-0.052,0.217-0.084l0.113-0.014c0.022-0.003,0.086-0.017,0.185-0.042c0.098-0.025,0.172-0.042,0.223-0.048
			c0.073-0.009,0.139-0.004,0.191,0.014c0.144-0.069,0.278-0.112,0.403-0.127c0.147-0.02,0.275-0.009,0.383,0.027
			c0.072-0.034,0.258-0.071,0.558-0.109l0.149-0.019c0.023-0.003,0.078-0.022,0.163-0.059c0.085-0.036,0.151-0.058,0.202-0.063
			l0.188-0.023c0.098-0.014,0.176-0.061,0.229-0.144c0.053-0.083,0.09-0.139,0.11-0.167c0.022-0.028,0.063-0.065,0.12-0.111
			c0.059-0.045,0.097-0.082,0.119-0.11c0.205-0.787,0.298-1.254,0.278-1.404c-0.018-0.125-0.052-0.198-0.104-0.215
			c-0.007-0.456-0.299-0.952-0.874-1.488c-0.081-0.04-0.218-0.111-0.407-0.215c-0.189-0.103-0.325-0.173-0.407-0.214
			c-0.05,0.007-0.088,0.005-0.113-0.004c-0.027-0.01-0.066-0.011-0.115-0.004c-0.061-0.069-0.14-0.098-0.238-0.085
			c-0.063-0.093-0.145-0.121-0.239-0.083c-0.034-0.072-0.17-0.143-0.408-0.215c-0.33-0.212-0.588-0.343-0.771-0.396
			c-0.028-0.022-0.046-0.058-0.053-0.107c-0.078-0.016-0.179-0.061-0.301-0.133c-0.124-0.073-0.213-0.119-0.267-0.137l-0.01-0.076
			c-0.026-0.021-0.044-0.045-0.047-0.07c-0.084-0.064-0.223-0.155-0.414-0.271c-0.192-0.114-0.33-0.192-0.41-0.233
			c-0.065-0.117-0.3-0.354-0.698-0.71c-0.095-0.141-0.154-0.209-0.18-0.206l-0.019-0.15c-0.143-0.109-0.214-0.188-0.22-0.238
			l-0.016-0.112c-0.004-0.025-0.039-0.103-0.104-0.234c-0.068-0.13-0.104-0.221-0.11-0.271c-0.317-0.492-0.507-0.798-0.573-0.917
			c-0.069-0.143-0.107-0.253-0.117-0.327c-0.007-0.05,0.009-0.127,0.047-0.235c-0.035-0.071-0.063-0.183-0.081-0.333
			c-0.045-0.349-0.021-0.655,0.073-0.921c-0.017-0.125,0.018-0.268,0.098-0.431l-0.02-0.149c0.035-0.131,0.109-0.293,0.225-0.485
			c0.114-0.191,0.188-0.354,0.224-0.485c0.174-0.225,0.267-0.4,0.275-0.529c0.024-0.004,0.103-0.09,0.233-0.257
			c0.021-0.029,0.077-0.086,0.168-0.174c0.09-0.088,0.156-0.159,0.201-0.216l0.037-0.004c0.021-0.028,0.045-0.045,0.07-0.048
			c0.043-0.057,0.136-0.131,0.273-0.226c0.143-0.093,0.232-0.168,0.276-0.225c0.097-0.037,0.238-0.112,0.428-0.225
			c0.189-0.112,0.343-0.19,0.466-0.231c0.04-0.081,0.136-0.131,0.285-0.15l0.188-0.024c0.047-0.031,0.106-0.063,0.178-0.099
			C36.039,9.06,36.085,9.029,36.106,9l0.149-0.019l0.323-0.155C36.677,8.789,36.874,8.751,37.175,8.712z"/>
		<path fill="#231F20" d="M63.649,17.554c0.075,0.026,0.176,0.04,0.303,0.042l0.376,0.082l0.073,0.039h0.038l0.038-0.037
			l0.076,0.001c0.1,0.002,0.25,0.03,0.451,0.083c0.201,0.055,0.326,0.082,0.376,0.082c0.024,0.001,0.051,0.014,0.075,0.04
			c0.05,0.025,0.144,0.045,0.281,0.063c0.139,0.015,0.231,0.021,0.282,0.023c0.227,0.078,0.352,0.118,0.376,0.118
			c0.352,0.082,0.538,0.147,0.563,0.198c0.151-0.098,0.29-0.084,0.413,0.044c0.176-0.022,0.473,0.002,0.887,0.071
			c0.413,0.07,0.683,0.106,0.809,0.108l0.077,0.001c0.049,0,0.139,0.021,0.265,0.063c0.124,0.039,0.225,0.06,0.3,0.061l0.038,0.001
			l0.075-0.037c0.075,0.002,0.188,0.035,0.338,0.1c0.15,0.066,0.265,0.1,0.339,0.101h0.074c0.024,0.026,0.038,0.051,0.037,0.076
			c0.024-0.023,0.076-0.036,0.151-0.035c0.024,0.001,0.088,0.015,0.188,0.041c0.099,0.028,0.175,0.041,0.225,0.042h0.076
			c0.072,0.128,0.197,0.168,0.375,0.121c0.075,0.026,0.169,0.091,0.279,0.192c0.112,0.103,0.219,0.168,0.318,0.194
			c0.023,0.025,0.086,0.121,0.185,0.285c0.098,0.167,0.185,0.274,0.259,0.326l0.075,0.077c0.073,0.052,0.123,0.103,0.146,0.154
			c0.049,0.101,0.072,0.215,0.07,0.34l-0.001,0.077c-0.026,0.05-0.039,0.088-0.041,0.112c-0.05,0-0.106,0.03-0.17,0.092
			c-0.064,0.062-0.109,0.092-0.136,0.092c-0.023-0.001-0.036-0.006-0.035-0.02c0-0.013-0.014-0.019-0.037-0.02
			c-0.025-0.001-0.059,0.024-0.097,0.073c-0.04,0.051-0.07,0.076-0.097,0.075c-0.2-0.029-0.477-0.021-0.83,0.023
			c-0.354,0.045-0.604,0.065-0.756,0.063c-0.052,0.05-0.152,0.074-0.303,0.071l-0.189-0.004c-0.024,0-0.052,0.006-0.076,0.018
			c-0.024,0.014-0.051,0.019-0.074,0.019l-0.379-0.007c-0.024,0-0.037-0.005-0.036-0.019c0-0.012-0.014-0.019-0.037-0.02
			l-0.113-0.001c-0.025,0-0.089,0.005-0.189,0.015c-0.101,0.012-0.177,0.017-0.226,0.016c-0.025,0-0.07-0.007-0.132-0.021
			c-0.063-0.014-0.119-0.021-0.171-0.021l-0.112-0.002c-0.102-0.001-0.252-0.023-0.453-0.064c-0.199-0.041-0.363-0.063-0.488-0.064
			l-0.112-0.002c-0.053,0-0.089-0.02-0.111-0.059c-0.026-0.037-0.051-0.058-0.075-0.058c-0.025-0.001-0.038,0.024-0.039,0.075
			l-0.04,0.074c-0.705,0.04-1.17,0.095-1.397,0.167c-0.051,0-0.126-0.026-0.228-0.078l-0.265,0.107c-0.05,0-0.101-0.026-0.149-0.078
			h-0.075c-0.102-0.002-0.189,0.085-0.269,0.26c-0.079,0.174-0.169,0.273-0.27,0.296c0,0.025,0.012,0.051,0.037,0.076l-0.002,0.038
			c-0.103,0.074-0.166,0.173-0.192,0.298c-0.077,0.049-0.13,0.163-0.157,0.337c-0.027,0.177-0.066,0.29-0.118,0.338
			c-0.003,0.126-0.042,0.245-0.119,0.357c-0.077,0.112-0.13,0.192-0.154,0.242c-0.025,0.025-0.026,0.051-0.002,0.076L64.08,23.6
			c-0.053,0.024-0.104,0.086-0.154,0.186c-0.052,0.101-0.116,0.162-0.191,0.186c-0.001,0.025,0.012,0.05,0.037,0.076l-0.003,0.076
			l-0.037-0.001l-0.038,0.037c-0.001,0.077-0.027,0.158-0.078,0.245c-0.054,0.087-0.078,0.144-0.078,0.169
			c-0.025-0.001-0.059,0.036-0.098,0.111c-0.038,0.075-0.084,0.125-0.134,0.148c-0.055,0.253-0.172,0.413-0.349,0.487
			c-0.026,0.049-0.016,0.1,0.035,0.151c-0.054,0.15-0.131,0.263-0.231,0.335c-0.053,0.151-0.156,0.313-0.311,0.486
			c-0.152,0.174-0.243,0.298-0.271,0.373c-0.074-0.001-0.157,0.049-0.246,0.147c-0.091,0.1-0.173,0.162-0.249,0.185l-0.115,0.188
			c-0.052-0.001-0.089,0.004-0.113,0.017c-0.026,0.012-0.053,0.018-0.076,0.018c-0.053,0.099-0.104,0.174-0.154,0.224l-0.075-0.001
			c-0.181,0.248-0.435,0.37-0.761,0.365h-0.076c-0.024-0.001-0.069-0.008-0.132-0.021c-0.063-0.014-0.119-0.021-0.169-0.022
			c-0.052-0.001-0.089,0.011-0.114,0.036c-0.579-0.034-1.065-0.219-1.463-0.552c-0.149-0.029-0.301-0.144-0.448-0.347
			c-0.023,0-0.067-0.014-0.132-0.041c-0.062-0.025-0.104-0.026-0.131-0.003c-0.248-0.205-0.573-0.386-0.973-0.542
			c-0.073-0.128-0.187-0.193-0.336-0.195c-0.052-0.051-0.138-0.128-0.262-0.23c-0.125-0.103-0.212-0.192-0.26-0.269
			c-0.077,0-0.126-0.015-0.15-0.041c0-0.024-0.013-0.043-0.036-0.058c-0.025-0.012-0.024-0.031,0.001-0.057
			c-0.076-0.001-0.146-0.039-0.207-0.116c-0.062-0.077-0.117-0.115-0.167-0.116c-0.051-0.001-0.096,0.023-0.134,0.073
			c-0.037,0.051-0.07,0.074-0.096,0.074c-0.052,0-0.107,0.017-0.171,0.053c-0.063,0.037-0.106,0.054-0.133,0.055
			c-0.004,0.201-0.107,0.362-0.31,0.484c-0.001,0.102-0.062,0.194-0.176,0.281c-0.114,0.086-0.172,0.155-0.174,0.204l-0.076,0.037
			l-0.074,0.037c-0.054,0.125-0.131,0.187-0.229,0.185l-0.078,0.15c-0.102,0.048-0.229,0.14-0.382,0.276
			c-0.153,0.136-0.268,0.229-0.345,0.278c-0.025,0-0.095,0.018-0.208,0.053c-0.114,0.036-0.208,0.054-0.284,0.053l-0.113-0.002
			c-0.024,0.024-0.063,0.056-0.114,0.093c-0.051,0.037-0.09,0.068-0.115,0.093c-0.023-0.026-0.138-0.003-0.34,0.068l-0.113-0.001
			c-0.051-0.001-0.126,0.003-0.228,0.015c-0.101,0.011-0.176,0.017-0.227,0.015c-0.076-0.001-0.138-0.027-0.188-0.077
			c-0.052,0.023-0.113,0.034-0.188,0.033l-0.452-0.12c-0.024-0.026-0.05-0.027-0.075-0.001c-0.025,0.024-0.051,0.024-0.075-0.002
			c-0.698-0.338-1.098-0.558-1.196-0.661c-0.125-0.028-0.313-0.118-0.563-0.273l-0.11-0.115c-0.026,0-0.069-0.013-0.133-0.041
			c-0.063-0.025-0.105-0.04-0.131-0.039c-0.051-0.025-0.13-0.115-0.241-0.268c-0.11-0.153-0.203-0.243-0.277-0.269
			c-0.025-0.05-0.074-0.133-0.147-0.248c-0.074-0.114-0.123-0.209-0.146-0.284c-0.125-0.179-0.185-0.369-0.181-0.57
			c-0.125-0.177-0.204-0.556-0.245-1.136c0.022,0.001,0.049,0.007,0.073,0.02c0.025,0.013,0.051,0.021,0.076,0.021l0.002-0.151
			c0-0.025-0.02-0.032-0.056-0.02c-0.038,0.013-0.07,0.018-0.096,0.017c-0.05-0.152-0.071-0.265-0.069-0.34l0.001-0.077l0.152-0.072
			c-0.074-0.078-0.138-0.103-0.188-0.079c-0.001-0.05-0.006-0.125-0.017-0.227c-0.012-0.101-0.017-0.176-0.016-0.227
			c0.002-0.125,0.041-0.225,0.117-0.299c-0.072-0.127-0.107-0.241-0.105-0.343c0.001-0.024,0.007-0.067,0.021-0.131
			c0.013-0.063,0.021-0.119,0.022-0.17c0.023-0.074,0.075-0.111,0.151-0.11c0.001-0.025-0.013-0.037-0.037-0.038l-0.074-0.039
			c0.004-0.277,0.06-0.641,0.169-1.092l0.002-0.113c0-0.075,0.015-0.176,0.042-0.301c0.026-0.125,0.042-0.212,0.042-0.264
			l0.003-0.151c0.051-0.049,0.078-0.149,0.08-0.301c0.023,0.001,0.063-0.022,0.112-0.073l0.002-0.076
			c0.002-0.074,0.022-0.175,0.063-0.3c0.039-0.125,0.06-0.226,0.061-0.301l0.003-0.151c0.024,0.001,0.081-0.017,0.172-0.054
			c0.088-0.035,0.157-0.066,0.209-0.091c0.156-0.425,0.388-0.635,0.688-0.63c0.254-0.121,0.531-0.181,0.833-0.175
			c0.377,0.005,0.642,0.136,0.787,0.39c0.075,0,0.125,0.014,0.149,0.04c-0.001,0.075,0.034,0.183,0.107,0.322
			c0.073,0.141,0.121,0.261,0.146,0.361c0.025-0.024,0.051,0.014,0.073,0.115c0.024,0.025,0.037,0.05,0.036,0.076
			c0,0.025-0.021,0.056-0.058,0.093c-0.039,0.038-0.032,0.069,0.017,0.095c0,0.025,0.025,0.051,0.075,0.078l0.075,0.039
			c0.021,0.126,0.033,0.265,0.031,0.416l-0.004,0.189c-0.026,0-0.052,0.011-0.076,0.036c-0.025,0.025-0.053,0.037-0.076,0.037
			c0.023,0.051,0.036,0.101,0.035,0.15c0,0.051-0.021,0.12-0.061,0.207c-0.04,0.088-0.06,0.145-0.06,0.169
			c0.022,0.051,0.035,0.127,0.033,0.228s0.021,0.176,0.071,0.227c0,0.026-0.001,0.063-0.001,0.114l-0.039,0.074
			c0.073,0.103,0.122,0.21,0.146,0.324c0.021,0.113,0.033,0.259,0.03,0.434c-0.003,0.177,0.007,0.315,0.031,0.416l-0.113-0.002
			c-0.001,0.026,0.012,0.052,0.036,0.077c0.024,0.026,0.036,0.052,0.036,0.076c-0.001,0.025-0.026,0.062-0.076,0.112
			c0.123,0.128,0.133,0.279,0.028,0.454l0.108,0.341c0.07,0.253,0.104,0.441,0.104,0.567l-0.003,0.151
			c0.124,0.128,0.21,0.181,0.263,0.156c0,0.025-0.038,0.037-0.114,0.036c0,0.05,0.005,0.12,0.017,0.208
			c0.011,0.088,0.016,0.156,0.016,0.208l-0.002,0.112c0.124,0.128,0.186,0.242,0.184,0.342c0.101,0.002,0.195-0.04,0.285-0.126
			c0.09-0.087,0.159-0.143,0.21-0.166c0.028-0.151,0.13-0.287,0.309-0.412c0.002-0.1,0.055-0.207,0.157-0.318
			c0.101-0.111,0.153-0.205,0.154-0.281c0.127-0.072,0.19-0.159,0.192-0.261l0.001-0.075l0.152-0.035
			c0.026-0.1,0.078-0.213,0.156-0.338c0.078-0.124,0.129-0.237,0.156-0.337c0.024,0,0.051-0.012,0.075-0.038
			c0.025-0.023,0.052-0.037,0.076-0.036c0-0.05,0.021-0.095,0.06-0.132c0.038-0.036,0.058-0.08,0.059-0.13l0.075,0.001l0.001-0.038
			c-0.024-0.026-0.024-0.051,0.001-0.076c0.024,0,0.051-0.024,0.077-0.075c0.024-0.049,0.063-0.062,0.112-0.036
			c0.053-0.124,0.168-0.242,0.347-0.352c0.178-0.111,0.293-0.19,0.344-0.24c0.024,0.001,0.037,0.007,0.037,0.019
			c0,0.014,0.012,0.019,0.037,0.021l0.078-0.112c0.023,0,0.088-0.023,0.188-0.072c0.024,0,0.037-0.037,0.04-0.113
			c0.102-0.023,0.233-0.072,0.398-0.145c0.164-0.073,0.298-0.12,0.397-0.144c0.024,0,0.096-0.005,0.208-0.017
			c0.113-0.01,0.195-0.027,0.247-0.052c0.124,0.053,0.212,0.054,0.263,0.004c0.051,0.051,0.2,0.104,0.451,0.158
			c-0.001,0.051,0.012,0.102,0.035,0.151c0.049,0.052,0.074,0.09,0.073,0.115c0.101,0.001,0.163-0.009,0.189-0.035
			c0.023,0.025,0.072,0.09,0.147,0.191c0.073,0.103,0.146,0.167,0.223,0.193c-0.001,0.075-0.014,0.112-0.04,0.112
			c0.052,0.026,0.101,0.078,0.148,0.154c0.05,0.076,0.099,0.128,0.147,0.154c-0.025,0.074-0.001,0.137,0.073,0.188
			c0.022,0.126,0.097,0.279,0.219,0.456l0.147,0.267c-0.002,0.05,0.011,0.113,0.034,0.189c0.022,0.076,0.035,0.126,0.036,0.151
			c0.1,0.053,0.158,0.186,0.182,0.4c0.021,0.213,0.057,0.333,0.108,0.359c-0.002,0.101,0.021,0.195,0.068,0.285
			c0.049,0.089,0.085,0.151,0.111,0.189c0.023,0.038,0.085,0.103,0.185,0.191c0.1,0.09,0.161,0.135,0.188,0.136
			c0.023,0.026,0.063,0.038,0.112,0.04c0.051,0,0.101,0.001,0.15,0.002c0.051,0.001,0.082-0.024,0.097-0.074
			c0.014-0.05,0.032-0.075,0.059-0.074l0.074-0.037c0.025-0.024,0.026-0.062,0.003-0.113c0.023,0.001,0.044-0.018,0.058-0.056
			c0.013-0.038,0.044-0.043,0.095-0.017c0.026-0.125,0.155-0.299,0.387-0.522c0.053-0.2,0.183-0.45,0.389-0.749
			c0.004-0.175,0.055-0.275,0.156-0.3c0.002-0.049,0.042-0.226,0.123-0.525c0.023-0.025,0.051-0.039,0.075-0.038
			c-0.05-0.15-0.011-0.251,0.117-0.3c-0.024,0-0.037-0.012-0.037-0.038c0.002-0.051,0.015-0.1,0.04-0.15
			c0.026-0.05,0.04-0.1,0.04-0.15c0.001-0.051,0.027-0.076,0.077-0.076c-0.024-0.024-0.036-0.063-0.036-0.113
			c0.002-0.05,0.021-0.106,0.062-0.168c0.037-0.062,0.057-0.106,0.058-0.131c0.025-0.05,0.039-0.138,0.042-0.263
			c0.002-0.126,0.004-0.214,0.005-0.265c0.001-0.051,0.026-0.132,0.079-0.244s0.091-0.193,0.117-0.244
			c0.026-0.074,0.047-0.188,0.063-0.338c0.015-0.15,0.034-0.265,0.062-0.339l0.038-0.037c0.025-0.023,0.039-0.049,0.039-0.075
			c0.026-0.024,0.046-0.063,0.059-0.112c0.015-0.051,0.032-0.094,0.06-0.131c0.025-0.038,0.052-0.056,0.077-0.055
			c0-0.026,0.006-0.063,0.021-0.113c0.013-0.049,0.021-0.088,0.021-0.113c0-0.025,0.024-0.037,0.075-0.036
			c0.024,0,0.052-0.012,0.076-0.036l0.001-0.039l-0.037-0.076c0.052-0.049,0.146-0.142,0.287-0.278
			c0.143-0.135,0.27-0.241,0.383-0.315c0.115-0.073,0.235-0.133,0.362-0.182c-0.001-0.025,0.021-0.05,0.059-0.075
			c0.037-0.024,0.075-0.05,0.113-0.073c0.037-0.024,0.082-0.062,0.134-0.111C63.222,17.572,63.397,17.549,63.649,17.554z"/>
		<path fill="#231F20" d="M73.917,17.905c0.631,0.373,0.993,0.68,1.085,0.922c0.089,0.088,0.188,0.231,0.3,0.425
			s0.201,0.322,0.268,0.383c-0.003,0.025,0.005,0.065,0.021,0.118c0.018,0.054,0.01,0.103-0.022,0.149
			c0.067,0.061,0.116,0.157,0.148,0.289c0.031,0.133,0.07,0.214,0.117,0.246c-0.013,0.075-0.005,0.159,0.02,0.251
			c0.025,0.092,0.032,0.164,0.026,0.213c0.123,0.196,0.18,0.331,0.169,0.405c-0.007,0.05-0.022,0.111-0.046,0.185
			c-0.024,0.072-0.038,0.123-0.041,0.146c-0.008,0.05,0.007,0.128,0.041,0.236c-0.043,0.297-0.058,0.474-0.039,0.527
			c-0.029,0.021-0.066,0.105-0.113,0.251c-0.047,0.145-0.098,0.24-0.154,0.282c0.042,0.057,0.051,0.172,0.024,0.347l-0.039,0.262
			c-0.077,0.013-0.157,0.071-0.233,0.175c-0.079,0.102-0.146,0.163-0.198,0.181c-0.051,0.171-0.17,0.332-0.357,0.48
			c-0.188,0.151-0.313,0.272-0.379,0.365c-0.004,0.202,0.057,0.402,0.18,0.598l0.076,0.01c0.074,0.011,0.157,0.004,0.25-0.02
			c0.092-0.024,0.164-0.033,0.214-0.025l0.075,0.01c0.081-0.038,0.22-0.075,0.415-0.111c0.196-0.035,0.32-0.061,0.374-0.079
			c0.535-0.175,0.864-0.253,0.988-0.236c0.149-0.156,0.24-0.245,0.269-0.266c0.024,0.004,0.048,0.021,0.069,0.048l0.032,0.043
			l0.338-0.217c0.049,0.008,0.103-0.017,0.162-0.072c0.058-0.054,0.125-0.076,0.201-0.065l0.073,0.012
			c0.226-0.146,0.678-0.371,1.358-0.679c0.053-0.018,0.129-0.019,0.229-0.004c0.025,0.004,0.079-0.013,0.162-0.052
			c0.082-0.04,0.148-0.068,0.202-0.085c0.05,0.007,0.114,0.003,0.192-0.011c0.078-0.013,0.129-0.019,0.154-0.015
			c0.077-0.013,0.188-0.068,0.329-0.161c0.141-0.094,0.249-0.147,0.328-0.162c0.074,0.01,0.14,0.007,0.191-0.01
			c0.05,0.006,0.118-0.021,0.204-0.085c0.26-0.038,0.4-0.056,0.427-0.051l0.074,0.01c0.054-0.017,0.118-0.021,0.19-0.01l0.674,0.1
			c0.089,0.089,0.138,0.19,0.146,0.307c0.007,0.116-0.001,0.261-0.025,0.435c-0.025,0.175-0.031,0.301-0.019,0.38
			c-0.189,0.074-0.296,0.108-0.32,0.104c-0.227,0.324-0.391,0.49-0.492,0.5l-0.04,0.262c-0.276,0.163-0.453,0.328-0.528,0.494
			l-0.075-0.011c-0.075-0.011-0.158,0.041-0.251,0.154c-0.285,0.035-0.578,0.208-0.878,0.52c-0.075-0.012-0.163,0.027-0.265,0.114
			c-0.104,0.086-0.181,0.139-0.233,0.156c-0.054,0.019-0.123,0.026-0.213,0.026c-0.09-0.001-0.16,0.009-0.213,0.025
			c-0.025-0.004-0.048,0.018-0.067,0.066c-0.02,0.049-0.042,0.069-0.066,0.065c-0.074-0.011-0.178,0.032-0.306,0.127
			c-0.129,0.097-0.242,0.137-0.342,0.122c-0.026-0.004-0.053,0.005-0.081,0.027c-0.031,0.045-0.073,0.063-0.122,0.058
			c-0.029,0.021-0.045,0.045-0.049,0.069c-0.003,0.025-0.021,0.048-0.049,0.069c-0.583,0.169-0.89,0.251-0.913,0.248
			c-0.136,0.056-0.324,0.13-0.566,0.222c-0.242,0.092-0.404,0.157-0.486,0.194c-0.047-0.03-0.106-0.054-0.181-0.064
			c-0.075-0.011-0.167,0.001-0.271,0.036c-0.108,0.036-0.187,0.049-0.235,0.042c-0.219,0.095-0.352,0.139-0.401,0.132
			c-0.073-0.012-0.123-0.031-0.144-0.061c-0.025-0.003-0.054,0.012-0.083,0.045c-0.03,0.035-0.059,0.049-0.083,0.046L74.607,28
			c-0.569,0.068-1.078,0.07-1.525,0.004c-0.299-0.044-0.543-0.118-0.73-0.222c-0.047-0.031-0.084-0.044-0.108-0.035
			c-0.027,0.01-0.054,0.012-0.078,0.008c-0.65-0.249-1.188-0.569-1.613-0.961c0.028-0.021,0.033-0.046,0.011-0.075l-0.031-0.043
			c-0.074-0.011-0.146-0.034-0.218-0.07c-0.019-0.053-0.066-0.156-0.146-0.308c-0.079-0.15-0.113-0.265-0.104-0.34
			c-0.22-0.057-0.327-0.2-0.316-0.428c-0.025-0.004-0.056-0.014-0.093-0.032c-0.034-0.018-0.076-0.03-0.128-0.039
			c-0.259-0.317-0.477-0.908-0.652-1.774c0.053-0.018,0.063-0.054,0.033-0.11c-0.028-0.055-0.042-0.094-0.038-0.12
			c0.003-0.024,0.02-0.047,0.048-0.069l0.005-0.037l-0.059-0.124c-0.014-0.077,0.003-0.278,0.052-0.602l0.025-0.187
			c0.016-0.099,0.015-0.258-0.005-0.478c-0.02-0.219-0.021-0.378-0.007-0.477l0.06-0.412c0.025,0.004,0.05-0.024,0.071-0.084
			c0.021-0.062,0.045-0.089,0.069-0.085c-0.021-0.029-0.028-0.068-0.021-0.118c0.012-0.075,0.063-0.182,0.161-0.319l-0.025-0.081
			c-0.02-0.053-0.024-0.093-0.021-0.117c0.035-0.071,0.099-0.195,0.188-0.374c0.09-0.177,0.181-0.315,0.271-0.416
			c0.09-0.102,0.191-0.182,0.302-0.242c0.021-0.149,0.108-0.263,0.261-0.344c0.151-0.08,0.244-0.154,0.28-0.226
			c0.054-0.017,0.134-0.038,0.238-0.06c0.104-0.023,0.183-0.043,0.236-0.061c0.165-0.078,0.375-0.211,0.633-0.403
			c0.023,0.003,0.063-0.016,0.123-0.059c0.233-0.041,0.405-0.079,0.512-0.114c0.054-0.019,0.126-0.033,0.217-0.046
			c0.093-0.011,0.162-0.026,0.218-0.044l0.239-0.079c0.024,0.004,0.048,0.02,0.07,0.048l0.073,0.011
			c0.157-0.026,0.271-0.036,0.348-0.024c0.049,0.007,0.11,0.021,0.184,0.045c0.073,0.025,0.122,0.038,0.147,0.041
			C73.812,17.927,73.862,17.922,73.917,17.905z M73.14,21.377l-0.043,0.031l-0.15-0.022c-0.496-0.072-0.77,0.053-0.816,0.376
			c-0.007,0.049-0.027,0.098-0.061,0.144l-0.133,0.131c-0.012,0.075-0.029,0.207-0.059,0.393c-0.027,0.187-0.046,0.317-0.058,0.392
			c-0.036,0.071-0.064,0.181-0.087,0.331c-0.015,0.1-0.015,0.176,0.004,0.23c0.094,0.064,0.188,0.104,0.288,0.118
			c0.248,0.036,0.588-0.028,1.021-0.194c0.19-0.099,0.319-0.194,0.386-0.286c0.026-0.021,0.068-0.04,0.122-0.059
			c0.053-0.017,0.082-0.038,0.086-0.062c0.104-0.188,0.173-0.409,0.21-0.657s0.024-0.416-0.04-0.501
			C73.487,21.516,73.264,21.394,73.14,21.377z"/>
		<path fill="#231F20" d="M85.422,20.046c0.584,0.444,0.908,0.792,0.97,1.042c0.078,0.099,0.161,0.252,0.25,0.458
			c0.086,0.206,0.16,0.343,0.22,0.411c-0.006,0.024-0.004,0.064,0.009,0.119c0.011,0.056-0.002,0.104-0.04,0.146
			c0.061,0.068,0.098,0.169,0.112,0.304c0.019,0.135,0.046,0.22,0.088,0.258c-0.02,0.073-0.021,0.157-0.009,0.251
			c0.014,0.095,0.015,0.167,0.001,0.215c0.1,0.209,0.14,0.351,0.121,0.423c-0.015,0.049-0.036,0.106-0.067,0.177
			c-0.032,0.069-0.052,0.117-0.06,0.141c-0.012,0.049-0.008,0.129,0.017,0.238c-0.079,0.292-0.111,0.465-0.102,0.52
			c-0.032,0.019-0.079,0.097-0.143,0.237c-0.063,0.139-0.126,0.225-0.188,0.261c0.034,0.062,0.029,0.178-0.016,0.348l-0.069,0.255
			c-0.08,0.004-0.164,0.053-0.255,0.146c-0.09,0.093-0.163,0.146-0.217,0.156c-0.07,0.163-0.208,0.31-0.411,0.437
			c-0.204,0.128-0.343,0.234-0.419,0.317c-0.027,0.201,0.01,0.407,0.109,0.615l0.072,0.02c0.073,0.02,0.156,0.022,0.251,0.01
			c0.097-0.014,0.166-0.015,0.216-0.001l0.073,0.02c0.085-0.029,0.228-0.05,0.426-0.061c0.198-0.013,0.325-0.023,0.382-0.035
			c0.551-0.112,0.887-0.152,1.008-0.12c0.168-0.137,0.268-0.214,0.299-0.233c0.023,0.006,0.044,0.026,0.063,0.056l0.024,0.047
			l0.361-0.178c0.049,0.014,0.104-0.004,0.17-0.051s0.135-0.062,0.207-0.042l0.073,0.019c0.238-0.117,0.717-0.289,1.429-0.514
			c0.055-0.011,0.13-0.003,0.228,0.022c0.024,0.007,0.08-0.004,0.167-0.033c0.085-0.028,0.154-0.049,0.211-0.06
			c0.049,0.013,0.112,0.016,0.191,0.012s0.132-0.003,0.156,0.003c0.079-0.004,0.192-0.046,0.346-0.122
			c0.149-0.077,0.266-0.117,0.345-0.123c0.073,0.02,0.138,0.024,0.192,0.013c0.048,0.012,0.119-0.008,0.211-0.061
			c0.263-0.008,0.406-0.008,0.431-0.001l0.073,0.02c0.055-0.011,0.118-0.006,0.191,0.012l0.655,0.177
			c0.077,0.1,0.113,0.207,0.107,0.322c-0.004,0.116-0.029,0.26-0.074,0.43c-0.047,0.17-0.066,0.294-0.063,0.373
			c-0.196,0.052-0.308,0.074-0.331,0.068c-0.263,0.294-0.444,0.44-0.548,0.438l-0.069,0.255c-0.295,0.13-0.489,0.272-0.583,0.429
			l-0.073-0.02c-0.073-0.019-0.162,0.022-0.269,0.124c-0.285,0.001-0.599,0.139-0.933,0.414c-0.071-0.021-0.164,0.008-0.274,0.081
			c-0.112,0.075-0.195,0.117-0.25,0.129c-0.057,0.011-0.127,0.012-0.215,0c-0.09-0.01-0.16-0.009-0.216,0.001
			c-0.024-0.007-0.051,0.014-0.074,0.059c-0.024,0.045-0.051,0.064-0.074,0.058c-0.072-0.019-0.179,0.012-0.317,0.091
			c-0.139,0.08-0.256,0.107-0.354,0.082c-0.024-0.007-0.053-0.001-0.083,0.017c-0.038,0.042-0.08,0.057-0.13,0.042
			c-0.03,0.019-0.049,0.04-0.056,0.064c-0.007,0.023-0.024,0.045-0.057,0.063c-0.601,0.099-0.912,0.145-0.936,0.139
			c-0.142,0.041-0.339,0.092-0.591,0.154c-0.25,0.063-0.419,0.109-0.506,0.138c-0.042-0.038-0.099-0.065-0.172-0.086
			c-0.072-0.02-0.165-0.018-0.273,0.004c-0.11,0.022-0.188,0.027-0.238,0.014c-0.229,0.069-0.365,0.097-0.413,0.084
			c-0.073-0.02-0.119-0.046-0.137-0.077c-0.024-0.006-0.055,0.006-0.088,0.036c-0.033,0.03-0.063,0.042-0.089,0.035l-0.473-0.127
			c-0.574,0.002-1.079-0.056-1.517-0.175c-0.292-0.078-0.524-0.179-0.7-0.304c-0.043-0.038-0.078-0.054-0.104-0.047
			c-0.026,0.005-0.054,0.005-0.076-0.001c-0.617-0.322-1.114-0.704-1.49-1.144c0.028-0.019,0.037-0.042,0.02-0.073l-0.025-0.046
			c-0.073-0.019-0.144-0.051-0.209-0.095c-0.012-0.054-0.049-0.162-0.108-0.322c-0.063-0.16-0.082-0.276-0.063-0.35
			c-0.213-0.083-0.303-0.237-0.268-0.462c-0.023-0.008-0.053-0.021-0.086-0.043c-0.032-0.021-0.074-0.039-0.122-0.052
			c-0.22-0.345-0.368-0.959-0.443-1.838c0.056-0.011,0.071-0.046,0.049-0.104c-0.023-0.058-0.031-0.1-0.025-0.125
			c0.006-0.022,0.024-0.045,0.057-0.063l0.01-0.036l-0.043-0.129c-0.006-0.079,0.034-0.277,0.119-0.593l0.05-0.183
			c0.026-0.097,0.043-0.255,0.051-0.476c0.007-0.219,0.022-0.378,0.049-0.475l0.108-0.4c0.023,0.006,0.051-0.019,0.078-0.077
			c0.028-0.057,0.056-0.083,0.078-0.076c-0.017-0.031-0.02-0.07-0.006-0.119c0.021-0.073,0.085-0.172,0.197-0.299l-0.018-0.082
			c-0.013-0.056-0.014-0.095-0.007-0.119c0.044-0.066,0.12-0.183,0.229-0.35c0.11-0.165,0.216-0.293,0.317-0.382
			c0.104-0.09,0.213-0.157,0.329-0.205c0.039-0.146,0.139-0.25,0.299-0.312c0.158-0.061,0.262-0.125,0.306-0.191
			c0.055-0.011,0.137-0.022,0.243-0.033c0.106-0.009,0.188-0.021,0.243-0.031c0.172-0.057,0.396-0.167,0.675-0.327
			c0.023,0.007,0.065-0.007,0.13-0.044c0.237-0.013,0.411-0.031,0.521-0.054c0.056-0.011,0.129-0.019,0.221-0.02
			c0.092,0,0.164-0.008,0.22-0.019l0.249-0.051c0.022,0.006,0.045,0.025,0.063,0.056l0.073,0.021
			c0.159-0.01,0.274-0.005,0.349,0.015c0.049,0.014,0.106,0.036,0.178,0.068c0.069,0.031,0.115,0.05,0.142,0.057
			C85.314,20.057,85.366,20.057,85.422,20.046z M84.245,23.404l-0.046,0.026l-0.146-0.039c-0.485-0.132-0.771-0.039-0.854,0.277
			c-0.016,0.048-0.039,0.094-0.077,0.136l-0.147,0.117c-0.02,0.072-0.054,0.199-0.103,0.383c-0.051,0.181-0.084,0.31-0.104,0.382
			c-0.045,0.067-0.085,0.172-0.125,0.318c-0.025,0.098-0.033,0.174-0.021,0.229c0.083,0.075,0.174,0.125,0.271,0.15
			c0.242,0.065,0.587,0.042,1.035-0.072c0.203-0.075,0.342-0.156,0.417-0.239c0.03-0.02,0.072-0.032,0.129-0.044
			c0.055-0.01,0.085-0.028,0.093-0.053c0.124-0.174,0.222-0.383,0.285-0.626c0.065-0.242,0.071-0.411,0.02-0.503
			C84.575,23.584,84.366,23.435,84.245,23.404z"/>
		<path fill="#231F20" d="M97.854,16.234l0.069,0.029c0.021,0.011,0.041,0.032,0.055,0.065l0.004,0.084
			c0.021,0.009,0.066,0.036,0.131,0.078c0.064,0.041,0.114,0.083,0.15,0.127c0.022,0.01,0.035,0.044,0.039,0.1
			c0.016,0.089,0.063,0.138,0.143,0.144c-0.026,0.126-0.002,0.288,0.076,0.487c-0.063,0.522-0.081,0.816-0.055,0.881
			c-0.021,0.047-0.043,0.133-0.07,0.258c-0.028,0.125-0.057,0.223-0.086,0.292c-0.031,0.069-0.066,0.121-0.109,0.158
			c-0.03,0.07-0.102,0.326-0.214,0.772l-0.091,0.208c-0.04,0.092-0.092,0.227-0.154,0.405c-0.064,0.179-0.111,0.302-0.143,0.372
			c-0.08,0.185-0.158,0.301-0.235,0.35c-0.117,0.333-0.275,0.73-0.478,1.191c-0.02,0.046-0.006,0.093,0.042,0.142
			c0.047,0.048,0.067,0.083,0.056,0.107c0.599,0.453,0.974,0.793,1.119,1.022l0.104,0.044c0.047,0.021,0.137,0.128,0.271,0.324
			c-0.021,0.183,0.001,0.316,0.073,0.403c-0.054,0.059-0.072,0.119-0.059,0.18c0.013,0.061,0.012,0.115-0.009,0.161
			c0.002,0.056,0.004,0.133,0.003,0.228c-0.001,0.097,0.007,0.161,0.02,0.193c0.006,0.113,0.004,0.181-0.006,0.203
			c-0.029,0.069-0.087,0.135-0.167,0.196c-0.082,0.061-0.141,0.097-0.171,0.109c-0.049-0.02-0.115-0.021-0.203-0.006
			c-0.09,0.017-0.146,0.02-0.17,0.009l-0.069-0.029l-0.054-0.064l-0.05,0.019c-0.044,0.037-0.077,0.05-0.1,0.04l-0.276-0.121
			c-0.069-0.03-0.108-0.033-0.118-0.009c-0.023-0.011-0.045-0.026-0.063-0.048c-0.018-0.021-0.038-0.039-0.061-0.047
			c-0.024-0.011-0.063,0-0.117,0.031c-0.056,0.031-0.095,0.042-0.117,0.032c-0.021-0.011-0.08-0.021-0.171-0.034
			c-0.091-0.011-0.148-0.023-0.17-0.033c-0.047-0.021-0.111-0.063-0.193-0.125c-0.082-0.064-0.156-0.11-0.227-0.141l-0.07-0.03
			l-0.083,0.004c-0.057,0.003-0.097-0.001-0.119-0.011c-0.047-0.02-0.087-0.038-0.121-0.053c-0.034-0.016-0.068-0.03-0.104-0.045
			c-0.035-0.015-0.075-0.033-0.12-0.053c-0.047-0.02-0.081-0.035-0.104-0.044l-0.051,0.02l-0.051,0.019
			c-0.063,0.274-0.157,0.425-0.28,0.454c-0.051,0.307-0.091,0.495-0.122,0.565l-0.211,0.484c-0.043,0.037-0.098,0.066-0.162,0.093
			c0.019,0.146-0.013,0.31-0.094,0.495c-0.05,0.115-0.147,0.278-0.295,0.488c-0.02,0.047-0.034,0.095-0.044,0.146
			c-0.009,0.051-0.018,0.088-0.027,0.11c-0.21,0.294-0.357,0.476-0.442,0.548l-0.046,0.104c-0.021,0.047-0.049,0.097-0.085,0.149
			c-0.036,0.052-0.061,0.091-0.07,0.114c-0.061,0.138-0.09,0.235-0.085,0.291c-0.021,0.047-0.074,0.106-0.161,0.178
			c-0.004,0.136-0.062,0.331-0.171,0.583c-0.111,0.255-0.18,0.444-0.206,0.569c-0.021,0.047-0.048,0.138-0.079,0.275
			c-0.033,0.137-0.063,0.24-0.094,0.31l-0.045,0.104c-0.088,0.072-0.136,0.119-0.146,0.142c-0.02,0.047-0.035,0.096-0.044,0.147
			c-0.009,0.05-0.017,0.088-0.027,0.112c-0.042,0.035-0.1,0.087-0.168,0.152c-0.07,0.065-0.11,0.109-0.121,0.133l-0.043,0.104
			c-0.063,0.139-0.094,0.304-0.095,0.495l0.07,0.031c0.013,0.033,0.029,0.055,0.053,0.064c0.094,0.04,0.189,0.056,0.29,0.043
			c0.102-0.01,0.227-0.045,0.374-0.104c0.15-0.059,0.252-0.089,0.31-0.092c0.151-0.099,0.278-0.139,0.382-0.123
			c0.144-0.074,0.385-0.189,0.726-0.343c0.342-0.153,0.589-0.279,0.741-0.377l0.05-0.018c0.033-0.013,0.057-0.003,0.069,0.03
			c0.042-0.036,0.084-0.101,0.125-0.192c0.089-0.017,0.313-0.124,0.676-0.324c0.075-0.049,0.19-0.108,0.345-0.179
			c0.154-0.07,0.254-0.122,0.297-0.16c0.068,0.031,0.12,0.039,0.153,0.025c0.01-0.022,0.028-0.048,0.056-0.078
			c0.026-0.03,0.057-0.05,0.091-0.063c0.164-0.066,0.572-0.313,1.227-0.741l0.199-0.079c0.033-0.013,0.082-0.031,0.148-0.058
			l0.065-0.055c0.031-0.013,0.064-0.026,0.098-0.039l0.05-0.02c0.032-0.013,0.071-0.037,0.115-0.074l0.05-0.019l0.333-0.102
			c0.229-0.148,0.375-0.235,0.441-0.261c0.01-0.022,0.037-0.039,0.083-0.047c0.044-0.008,0.071-0.023,0.082-0.047l0.562-0.249
			c0.246-0.059,0.434-0.085,0.57-0.081c0.032-0.014,0.071-0.01,0.118,0.01c0.115,0.05,0.206,0.158,0.271,0.324
			c0.156,0.206,0.177,0.448,0.055,0.724l-0.044,0.104c-0.084,0.128-0.206,0.267-0.368,0.416c-0.161,0.15-0.278,0.277-0.351,0.383
			c-0.086,0.071-0.224,0.164-0.407,0.275c-0.188,0.11-0.313,0.208-0.374,0.29l-0.253,0.014c-0.05,0.115-0.108,0.187-0.175,0.211
			c-0.1,0.04-0.259,0.122-0.478,0.245c-0.221,0.125-0.391,0.201-0.512,0.23c-0.03,0.07-0.076,0.126-0.135,0.168
			c-0.062,0.043-0.096,0.075-0.105,0.099c-0.057,0.002-0.134,0.023-0.232,0.063c-0.021,0.045-0.068,0.092-0.146,0.142
			c-0.075,0.049-0.118,0.086-0.129,0.109c-0.136-0.005-0.272,0.06-0.411,0.19c-0.22,0.125-0.339,0.209-0.36,0.255
			c-0.021-0.011-0.07,0.01-0.146,0.06c-0.076,0.048-0.133,0.052-0.169,0.008c-0.146,0.212-0.283,0.303-0.408,0.275
			c-0.307,0.388-0.621,0.608-0.945,0.658c-0.01,0.025-0.039,0.06-0.087,0.108c-0.048,0.047-0.095,0.089-0.137,0.125
			c-0.023-0.01-0.054-0.003-0.093,0.022c-0.037,0.024-0.068,0.031-0.092,0.021c-0.432,0.361-0.757,0.507-0.975,0.44
			c-0.111,0.006-0.297,0.083-0.554,0.231s-0.473,0.2-0.644,0.153c-0.022-0.011-0.057,0.002-0.1,0.039
			c-0.043,0.036-0.076,0.048-0.099,0.04c-0.162-0.07-0.303-0.063-0.421,0.022c-0.049-0.021-0.077-0.048-0.091-0.08
			c-0.043,0.035-0.093,0.055-0.148,0.058c-0.056,0.002-0.118-0.01-0.188-0.041c-0.067-0.03-0.113-0.05-0.138-0.06
			c-0.021-0.01-0.065-0.009-0.127,0.007c-0.061,0.015-0.122,0.015-0.186,0.001c-0.063-0.014-0.116-0.031-0.163-0.051
			c-0.369-0.16-0.684-0.448-0.941-0.863c-0.356-0.567-0.537-1.002-0.542-1.306l-0.005-0.084c0.021-0.047,0.047-0.076,0.079-0.089
			c-0.082-0.063-0.116-0.298-0.104-0.704c-0.016-0.089-0.028-0.198-0.042-0.328c-0.012-0.129-0.021-0.221-0.021-0.278
			c0.023-0.373,0.04-0.599,0.047-0.678c-0.002-0.057,0.012-0.134,0.04-0.231c0.027-0.097,0.053-0.168,0.073-0.214
			c0.009-0.023,0.02-0.081,0.032-0.171c0.013-0.091,0.02-0.171,0.021-0.237c0.002-0.068,0.013-0.125,0.033-0.172
			c0.021-0.046,0.062-0.158,0.126-0.336c0.063-0.179,0.1-0.307,0.105-0.387c0.011-0.022,0.032-0.039,0.064-0.053
			c0.033-0.013,0.048-0.047,0.046-0.104c0.017-0.102,0.069-0.257,0.161-0.464l0.48-1.107c0.021-0.047,0.047-0.076,0.08-0.089
			c0.032-0.014,0.056-0.032,0.064-0.055l0.046-0.104c0.01-0.023,0.024-0.078,0.051-0.163c0.022-0.085,0.05-0.164,0.079-0.233
			c0.021-0.046,0.061-0.124,0.123-0.235c0.063-0.109,0.108-0.2,0.139-0.269l0.075-0.173c0.01-0.022,0.036-0.052,0.08-0.089
			c0.043-0.036,0.075-0.077,0.095-0.122c0.021-0.047,0.043-0.119,0.074-0.216c0.027-0.097,0.047-0.157,0.057-0.181
			c0.127-0.164,0.195-0.259,0.205-0.281c0.398-0.788,0.679-1.241,0.843-1.363c0.071-0.297,0.146-0.525,0.217-0.687
			c0.061-0.139,0.128-0.233,0.204-0.282l0.06-0.138c0.103-0.23,0.196-0.354,0.286-0.37l-0.009-0.17
			c0.041-0.035,0.106-0.137,0.193-0.305c0.088-0.168,0.163-0.265,0.229-0.292l-0.021-0.049c-0.003-0.057,0.013-0.091,0.047-0.104
			c0.021-0.047,0.06-0.09,0.119-0.134c0.06-0.042,0.095-0.075,0.104-0.097c-0.003-0.056,0.021-0.143,0.072-0.257
			c0.099-0.231,0.234-0.418,0.407-0.563c0.355-0.504,0.563-0.785,0.615-0.844c0.029-0.069,0.076-0.132,0.143-0.185
			c0.063-0.055,0.103-0.093,0.111-0.117c0.042-0.035,0.08-0.088,0.11-0.156c0.06-0.139,0.171-0.297,0.329-0.475
			c0.16-0.177,0.273-0.347,0.346-0.509c0.032-0.013,0.068-0.031,0.107-0.057c0.037-0.024,0.072-0.042,0.104-0.056l0.017-0.035
			c-0.014-0.033-0.015-0.061-0.004-0.083c0.02-0.047,0.061-0.111,0.125-0.193c0.064-0.027,0.107-0.062,0.128-0.109
			c0.044-0.036,0.097-0.095,0.16-0.177c0.063-0.082,0.101-0.135,0.109-0.159c0.053-0.059,0.128-0.121,0.229-0.189
			c0.097-0.067,0.161-0.107,0.195-0.121l0.089-0.208c0.113-0.004,0.18-0.03,0.2-0.077c0.068,0.031,0.156,0.047,0.266,0.053
			C97.765,16.215,97.83,16.223,97.854,16.234z"/>
	</g>
</g>
</svg>
