<?xml version="1.0" encoding="utf-8"?>
<!-- Generator: Adobe Illustrator 16.0.0, SVG Export Plug-In . SVG Version: 6.00 Build 0)  -->
<!DOCTYPE svg PUBLIC "-//W3C//DTD SVG 1.1//EN" "http://www.w3.org/Graphics/SVG/1.1/DTD/svg11.dtd">
<svg version="1.1" id="Layer_1" xmlns="http://www.w3.org/2000/svg" xmlns:xlink="http://www.w3.org/1999/xlink" x="0px" y="0px"
	 width="75.593px" height="58.586px" viewBox="0 0 75.593 58.586" enable-background="new 0 0 75.593 58.586" xml:space="preserve">
<g>
	<g>
		<g>
			<path fill="#FFFFFF" d="M62.533,52.304c-2.443,0-5.05-0.556-7.533-1.603c-1.52-0.642-3.041-1.828-6.642-4.691
				c-1.815-1.443-5.155-4.102-6.304-4.746c-5.814-2.292-7.88-6.278-8.859-8.911c-1.36,0.476-3.107,0.926-5.265,0.926
				c-1.949,0-3.976-0.385-6.023-1.142c-0.632-0.233-1.627-0.588-2.791-1.002c-8.233-2.924-10.579-3.858-11.948-4.758
				c-4.557-2.991-7.236-7.699-7.167-12.593C0.067,9.108,2.596,4.893,6.937,2.216C7.771,1.699,10.805,0,14.467,0
				c4.092,0,7.547,2.238,9.018,5.843c0.255,0.622,0.447,1.251,0.58,1.881c2.561-0.593,4.784-1.273,5.926-1.858
				c1.505-0.771,3.062-1.163,4.622-1.163c6.045,0,8.604,5.188,9.831,7.682c0.146,0.299,0.29,0.597,0.438,0.878
				c0.246-0.023,0.49-0.052,0.731-0.079c0.82-0.094,1.751-0.199,2.798-0.199c3.494,0,6.418,1.241,8.688,3.688
				c3.144,3.382,3.368,7.215,3.503,9.505c0.021,0.388,0.043,0.782,0.087,1.18c0,0,0.058,0.504,0.071,0.634
				c0.799-0.396,1.668-0.696,2.594-0.886c0.627-0.129,1.271-0.195,1.908-0.195c6.406,0,10.098,6.14,10.318,11.919
				c0.183,4.851-1.758,7.922-3.416,9.646C69.787,50.943,66.367,52.304,62.533,52.304L62.533,52.304z"/>
			<path fill="#FFFFFF" d="M34.512,58.586c-2.725,0-5.444-0.576-8.084-1.711c-5.432-2.334-14.525-6.244-16.791-15.39
				c-0.292-1.179-0.592-2.983-0.972-5.271c-0.388-2.332-1.184-7.117-1.672-8.529c-0.512-0.991-0.78-2.093-0.78-3.212
				c0-4.119,3.161-7.347,7.196-7.347c0.374,0,0.823,0.03,1.321,0.123c5.843,0.202,12.852,2.761,15.826,9.438
				c1.02,2.286,1.02,2.286,3.48,3.6c0.273,0.146,0.465,0.221,0.567,0.221c0.262,0,0.767-0.08,1.301-0.164
				c1.001-0.159,2.373-0.377,4.01-0.377c4.944,0,9.979,1.957,16.325,6.344c1.806,1.248,2.921,3.271,3.015,5.464
				c0.092,2.192-0.852,4.304-2.545,5.698C50.065,52.941,43.208,58.586,34.512,58.586L34.512,58.586z"/>
		</g>
		<g>
			<path fill="#FFFFFF" d="M64.759,33.961c-3.207,0.658-2.659,4.197-0.793,5.422c0,0,2.806,0.183,2.529,1.576
				c-0.215,1.08-2.129,2.414-3.117,2.808c-3.355,1.343-7.854-7.665-8.871-9.913c-0.354-1.9-0.555-3.764-0.773-5.718
				c-0.271-2.424,0.063-4.736-1.765-6.702c-2-2.155-4.455-1.314-7.021-1.156c-2.836,0.175-4.617-0.916-5.941-3.184
				c-1.511-2.588-2.544-6.68-5.824-4.998c-5.715,2.928-22.985,5.664-23.553,3.002c-0.222-1.04-0.183-3.373,0.596-4.152
				c1.002-1.004,2.717,1.224,2.717,1.224c2.058,0.868,5.303-0.649,4.063-3.681c-1.012-2.479-4.735-1.34-6.394-0.314
				c-5.247,3.235-4.48,9.148,0.4,12.353c1.312,0.861,10.581,4.031,13.325,5.045c6.691,2.476,8.457-2.502,12.339-0.548
				c4.06,2.043,1.259,7.175,8.08,9.779c2.563,0.979,11.349,8.767,12.968,9.448c5.378,2.271,11.097,1.004,10.864-5.156
				C68.512,37.147,67.382,33.422,64.759,33.961z"/>
			<path fill="#FFFFFF" d="M30.742,36.463c-4.059-2.164-4.777-2.883-6.579-6.925c-2.517-5.647-10.464-5.296-10.464-5.296
				c-0.324-0.209-0.486-0.131-0.486,0.232c1.241,2.09,2.539,12.588,3.219,15.327c1.415,5.713,7.721,8.477,12.762,10.644
				c8.471,3.644,15.384-2.052,23.065-8.377C38.416,32.499,37.435,40.034,30.742,36.463z"/>
		</g>
		<g>
			<path fill="#FFFFFF" d="M64.759,33.961c-3.207,0.658-2.659,4.197-0.793,5.422c0,0,2.806,0.183,2.529,1.576
				c-0.215,1.08-2.129,2.414-3.117,2.808c-3.355,1.343-7.854-7.665-8.871-9.913c-0.354-1.9-0.555-3.764-0.773-5.718
				c-0.271-2.424,0.063-4.736-1.765-6.702c-2-2.155-4.455-1.314-7.021-1.156c-2.836,0.175-4.617-0.916-5.941-3.184
				c-1.511-2.588-2.544-6.68-5.824-4.998c-5.715,2.928-22.985,5.664-23.553,3.002c-0.222-1.04-0.183-3.373,0.596-4.152
				c1.002-1.004,2.717,1.224,2.717,1.224c2.058,0.868,5.303-0.649,4.063-3.681c-1.012-2.479-4.735-1.34-6.394-0.314
				c-5.247,3.235-4.48,9.148,0.4,12.353c1.312,0.861,10.581,4.031,13.325,5.045c6.691,2.476,8.457-2.502,12.339-0.548
				c4.06,2.043,1.259,7.175,8.08,9.779c2.563,0.979,11.349,8.767,12.968,9.448c5.378,2.271,11.097,1.004,10.864-5.156
				C68.512,37.147,67.382,33.422,64.759,33.961z"/>
			<path fill="#FFFFFF" d="M30.742,36.463c-4.059-2.164-4.777-2.883-6.579-6.925c-2.517-5.647-10.464-5.296-10.464-5.296
				c-0.324-0.209-0.486-0.131-0.486,0.232c1.241,2.09,2.539,12.588,3.219,15.327c1.415,5.713,7.721,8.477,12.762,10.644
				c8.471,3.644,15.384-2.052,23.065-8.377C38.416,32.499,37.435,40.034,30.742,36.463z"/>
		</g>
	</g>
	<g>
		<path fill="#BE1E2D" d="M68.585,39.094c-0.073-1.946-1.203-5.672-3.826-5.133c-3.207,0.658-2.659,4.197-0.793,5.422
			c0,0,2.806,0.183,2.529,1.576c-0.215,1.08-2.129,2.414-3.117,2.808c-3.355,1.343-7.854-7.665-8.871-9.913
			c-0.354-1.9-0.555-3.764-0.773-5.718c-0.271-2.424,0.063-4.736-1.765-6.702c-2-2.155-4.455-1.314-7.021-1.156
			c-2.836,0.175-4.617-0.916-5.941-3.184c-1.511-2.588-2.544-6.68-5.824-4.998c-5.715,2.928-22.985,5.664-23.553,3.002
			c-0.222-1.04-0.183-3.373,0.596-4.152c1.002-1.004,2.717,1.224,2.717,1.224c2.058,0.868,5.303-0.649,4.063-3.681
			c-1.012-2.479-4.735-1.34-6.394-0.314c-5.247,3.235-4.48,9.148,0.4,12.353c1.312,0.861,10.581,4.031,13.325,5.045
			c6.691,2.476,8.457-2.502,12.339-0.548c4.06,2.043,1.259,7.175,8.08,9.779c2.563,0.979,11.349,8.767,12.968,9.448
			C63.1,46.521,68.818,45.256,68.585,39.094z"/>
		<path fill="#BE1E2D" d="M13.699,24.242c-0.324-0.209-0.486-0.131-0.486,0.232c1.241,2.09,2.539,12.588,3.219,15.327
			c1.415,5.713,7.721,8.477,12.762,10.644c8.471,3.644,15.384-2.052,23.065-8.377c-13.844-9.569-14.824-2.034-21.517-5.604
			c-4.059-2.164-4.777-2.883-6.579-6.925C21.646,23.891,13.699,24.242,13.699,24.242z"/>
		<path fill="#FFFFFF" d="M51.194,25.084c0.976,2.497,1.038,4.984,1.201,7.54c-1.136,0.569-2.269-5.044-2.752-6.047
			c-0.558-1.154-0.862-1.815-1.851-2.618c-0.785-0.638-2.127-2.002-1.885-1.947C45.91,22.011,50.03,22.107,51.194,25.084z"/>
		<path fill="#FFFFFF" d="M31.07,45.233c0.666,0.145,1.345,0.395,2.012,0.479c0.591,0.078,1.249,0.041,1.82-0.049
			c0.992-0.162,2.031-0.352,3.05-0.297c0.446,0.024,1.491,0.182,1.874,0.52c0.943,0.836-0.199,1.74-0.824,2.156
			c-4.594,3.047-11.212-1.172-12.412-2.326c-0.558-0.534-2.751-2.305-1.938-3.191c0.965-1.05,2.418,0.695,3.178,1.217
			C28.528,44.219,30.632,45.137,31.07,45.233z"/>
	</g>
</g>
</svg>
