<?xml version="1.0" encoding="utf-8"?>
<!-- Generator: Adobe Illustrator 16.0.0, SVG Export Plug-In . SVG Version: 6.00 Build 0)  -->
<!DOCTYPE svg PUBLIC "-//W3C//DTD SVG 1.1//EN" "http://www.w3.org/Graphics/SVG/1.1/DTD/svg11.dtd">
<svg version="1.1" id="Layer_1" xmlns="http://www.w3.org/2000/svg" xmlns:xlink="http://www.w3.org/1999/xlink" x="0px" y="0px"
	 width="135.012px" height="67.389px" viewBox="0 0 135.012 67.389" enable-background="new 0 0 135.012 67.389"
	 xml:space="preserve">
<g>
	<path fill="#FFFFFF" d="M8.355,6.807c6.513-1.536,14.143-1.014,20.522-0.067c6.845,1.013,14.184,0.733,21.028,0.384
		c5.298-0.271,17.97-2.19,16.181,6.404c2.776,0.342,3.944,3.005,6.758,1.615c2.389-1.18,3.816-5.533,5.459-7.467
		c4.995-5.885,8.051,1.208,13.549-1.561c1.902-0.959,3.083-4.335,5.204-5.189c2.69-1.083,5.565-0.03,7.909,0.806
		c3.09,1.104,6.795,4.243,10.248,3.746c3.625-0.521,3.854-4.247,6.93-5.251c4.678-1.526,11.187,5,12.443,9.017
		c2.596,8.285-7.281,11.271-13.104,12.064c0.837,7.96-7.509,24.173-15.384,25.879c-1.064,5.848,3.769,10.083-1.852,15.018
		c-5.551,4.873-9.935,5.223-16.773,4.739c-3.531-0.249-6.697-1.063-9.961-0.608c-3.39,0.474-6.535,1.013-10.175,1.013
		c-7.401,0-13.104,0.781-18.141-4.45c-2.416,2.014-8.302,3.542-11.467,4.063c-1.479,0.243-3.938,0.223-5.429-0.019
		c-1.896-0.307-2.548-1.104-4.029-1.494c-3.929-1.035-7.853,0.556-12.238,0.597c-2.908,0.025-8.822-0.659-11.314-1.97
		c-4.965-2.609-4.965-14.526-4.559-19.374c0.592-7.049,1.868-13.235,1.051-20.343C0.518,18.326,0.833,8.582,8.355,6.807z"/>
	<g>
		<path fill="#BE1E2D" d="M126.514,6.363c-1.385-1.371-4.754-3.321-6.301-1.137c-1.896,2.671,0.923,4.883,3.123,4.503
			c0,0,2.174-1.783,2.924-0.576c0.582,0.936,0.094,3.217-0.359,4.18c-1.533,3.272-10.972-0.235-13.25-1.185
			c-1.557-1.146-2.977-2.369-4.471-3.646c-1.854-1.585-3.188-3.502-5.866-3.69c-2.933-0.208-4.15,2.083-5.919,3.951
			c-1.951,2.063-3.998,2.484-6.514,1.731c-2.871-0.858-6.421-3.143-7.668,0.326c-2.175,6.042-12.922,19.836-15.154,18.278
			c-0.872-0.607-2.437-2.339-2.399-3.438c0.046-1.418,2.819-0.964,2.819-0.964c2.097-0.771,3.431-4.095,0.453-5.462
			c-2.432-1.119-4.374,2.256-4.885,4.137c-1.623,5.946,2.976,9.742,8.729,8.75c1.548-0.268,10.482-4.281,13.181-5.415
			c6.578-2.763,4.469-7.604,8.639-8.827c4.36-1.28,5.819,4.382,12.58,1.626c2.542-1.035,14.277-1.347,15.926-1.954
			C127.579,15.535,130.891,10.705,126.514,6.363z"/>
		<path fill="#BE1E2D" d="M76.278,32.998c-0.379,0.068-0.444,0.236-0.196,0.502c2.335,0.68,10.452,7.461,12.819,8.999
			c4.936,3.206,11.429,0.918,16.591-0.941c8.676-3.125,9.836-12.005,11.128-21.872c-16.647,2.464-12.22,8.639-19.545,10.602
			c-4.443,1.189-5.458,1.156-9.536-0.565C81.842,27.314,76.278,32.998,76.278,32.998z"/>
		<path fill="#FFFFFF" d="M104.242,8.006c2.417,1.157,4.161,2.931,6.024,4.686c-0.438,1.192-5.102-2.135-6.14-2.536
			c-1.195-0.464-1.869-0.737-3.141-0.648c-1.009,0.069-2.921-0.01-2.706-0.136C98.282,9.371,101.358,6.626,104.242,8.006z"/>
		<path fill="#FFFFFF" d="M103.302,36.468c0.585-0.351,1.251-0.632,1.798-1.024c0.484-0.346,0.939-0.822,1.295-1.278
			c0.615-0.796,1.244-1.645,2.025-2.299c0.344-0.287,1.214-0.887,1.725-0.9c1.259-0.034,1.043,1.407,0.869,2.139
			c-1.273,5.363-8.99,6.801-10.654,6.777c-0.771-0.011-3.584,0.194-3.596-1.009c-0.012-1.428,2.242-1.144,3.152-1.282
			C100.753,37.463,102.917,36.698,103.302,36.468z"/>
	</g>
	<g>
		<path fill="#5AB1AF" d="M8.541,11.595c0.224,0.05,0.348,0.088,0.373,0.112c0.197-0.024,0.385-0.024,0.56,0H9.51
			c0.024,0.023,0.05,0.037,0.074,0.037H9.66c0.05,0,0.087,0.013,0.11,0.037l0.075,0.036c0.198,0,0.312,0.014,0.336,0.037
			c0.049-0.023,0.111-0.037,0.188-0.037c0.049,0,0.13,0.014,0.241,0.037c0.111,0.025,0.192,0.038,0.242,0.038
			c0,0.024,0.087,0.037,0.263,0.037l0.298-0.037c0.1,0.05,0.161,0.074,0.187,0.074l0.037-0.037c0.05-0.023,0.087-0.037,0.112-0.037
			c0.521,0.074,0.833,0.124,0.933,0.148c0.05,0,0.124,0.024,0.224,0.075h0.3c0.023,0,0.056,0.006,0.093,0.019
			s0.068,0.019,0.094,0.019h0.561l0.409,0.112c0.05,0.024,0.137,0.037,0.262,0.037c0.124,0,0.211,0,0.262,0
			c0.497,0.074,0.783,0.149,0.857,0.224c0.248-0.023,0.541,0.008,0.877,0.094c0.335,0.088,0.603,0.131,0.802,0.131
			c0.023,0.024,0.08,0.05,0.168,0.075c0.087,0.023,0.155,0.05,0.205,0.073c0.198,0,0.497,0.074,0.896,0.225
			c0.397,0.125,0.608,0.286,0.635,0.484c0,0.024-0.008,0.094-0.02,0.205c-0.013,0.111-0.019,0.192-0.019,0.242
			s0.006,0.118,0.019,0.205c0.012,0.088,0.02,0.145,0.02,0.168c0,0.074-0.014,0.125-0.037,0.149c-0.125,0.322-0.274,0.51-0.448,0.56
			c-0.199,0.199-0.312,0.298-0.335,0.298c-0.075,0.051-0.243,0.088-0.504,0.112c-0.262,0.025-0.43,0.074-0.504,0.149h-0.074
			c-0.05,0-0.106,0.006-0.168,0.019c-0.063,0.013-0.106,0.019-0.131,0.019c-0.124,0-0.312-0.006-0.561-0.019
			c-0.248-0.013-0.423-0.019-0.521-0.019c-0.226,0-0.387,0.013-0.485,0.036c-0.074,0.051-0.112,0.025-0.112-0.073
			c-0.147,0.05-0.235,0.073-0.261,0.073c-0.05,0.025-0.112,0-0.187-0.073c-0.051,0.023-0.138,0.043-0.262,0.056
			c-0.125,0.013-0.212,0.031-0.262,0.056c-0.05-0.023-0.147-0.037-0.298-0.037c-0.075,0-0.175,0.008-0.299,0.02
			c-0.125,0.013-0.199,0.019-0.225,0.019c-0.349,0-0.534,0.014-0.56,0.037c-0.05,0.025-0.088,0.025-0.112,0l-0.073-0.037
			c-0.051,0.052-0.213,0.075-0.485,0.075c-0.101,0-0.174,0.013-0.224,0.037c0,0.05-0.014,0.074-0.037,0.074
			c0.124,0.323,0.187,0.646,0.187,0.97c0,0.199-0.037,0.398-0.112,0.597c-0.023,0.025-0.013,0.038,0.038,0.038l0.074,0.037
			c-0.024,0.05-0.037,0.125-0.037,0.225s-0.007,0.187-0.019,0.261c-0.014,0.075-0.044,0.125-0.094,0.148
			c0.023,0.025,0.036,0.149,0.036,0.373c0,0.075,0.014,0.125,0.038,0.149c-0.1,0.1-0.148,0.261-0.148,0.485
			c0,0.05,0.006,0.147,0.019,0.298c0.012,0.148,0.02,0.249,0.02,0.299c0,0.023-0.025,0.044-0.074,0.056
			c-0.051,0.014-0.063,0.044-0.038,0.095c0,0.023,0.025,0.043,0.075,0.056s0.074,0.044,0.074,0.093c0.023,0.051,0.023,0.112,0,0.188
			c-0.024,0.074-0.037,0.125-0.037,0.148c0,0.025,0.019,0.069,0.056,0.131c0.038,0.063,0.057,0.118,0.057,0.168
			c0,0.024-0.024,0.087-0.074,0.188c-0.051,0.1-0.074,0.162-0.074,0.187c-0.05,0.101-0.125,0.225-0.225,0.373
			c0,0.024,0.007,0.063,0.02,0.111c0.012,0.051,0.023,0.094,0.037,0.131c0.012,0.037,0.023,0.074,0.037,0.112
			c0.013,0.037,0.019,0.067,0.019,0.093c0,0.1-0.023,0.162-0.074,0.187c0.124,0.373,0.188,0.609,0.188,0.709
			c0,0.175-0.05,0.313-0.149,0.41c0.024,0.074,0.05,0.199,0.074,0.373c0.025,0.174,0.063,0.299,0.112,0.373
			c0.373,0,0.621,0.037,0.746,0.112c0.446-0.025,1.02,0,1.716,0.074c0.05,0,0.224,0.037,0.521,0.111h0.373
			c0.373,0,0.634,0.074,0.783,0.225c0.149,0,0.236,0.023,0.261,0.074c0.075,0.198,0.149,0.299,0.226,0.299
			c-0.052,0.249-0.075,0.423-0.075,0.521v0.112c0,0.025,0.013,0.063,0.037,0.112c0.023,0.049,0.038,0.1,0.038,0.147
			c0,0.149-0.112,0.274-0.336,0.373c-0.225,0.101-0.361,0.2-0.41,0.299c-0.075,0.025-0.226,0.088-0.448,0.188
			c-0.224,0.1-0.396,0.148-0.521,0.148c-0.024,0-0.057-0.006-0.094-0.019s-0.067-0.02-0.093-0.02s-0.075,0.014-0.149,0.037
			c-0.074,0.024-0.125,0.037-0.148,0.037h-0.074c-0.024,0-0.063,0.014-0.112,0.037l-0.036,0.037
			c-0.199,0.025-0.474,0.038-0.821,0.038c-0.248,0-0.671-0.024-1.269-0.075l-0.299,0.224c0,0.025,0.024,0.156,0.074,0.393
			c0.05,0.237,0.075,0.417,0.075,0.541c0,0.175-0.05,0.324-0.149,0.448c0.024,0.073,0.05,0.198,0.074,0.373
			c0.025,0.174,0.063,0.298,0.112,0.373c-0.05,0.1-0.087,0.247-0.112,0.446c-0.024,0.199-0.05,0.336-0.074,0.41l-0.148,0.149
			c-0.024,0.023-0.051,0.062-0.074,0.111l-0.037,0.111l-0.075,0.037c-0.074,0.023-0.124,0.05-0.148,0.075
			c-0.024,0-0.057,0.023-0.094,0.073c-0.036,0.051-0.067,0.088-0.094,0.112c-0.023,0.024-0.05,0.037-0.074,0.037
			c-0.05,0.024-0.087,0.037-0.11,0.037c-0.299,0.149-0.485,0.224-0.561,0.224c-0.397,0-0.622,0.014-0.672,0.038
			c-0.1-0.051-0.187-0.075-0.261-0.075c-0.051,0-0.125,0.007-0.226,0.02c-0.1,0.013-0.161,0.019-0.187,0.019H9.1
			c-0.024,0-0.081-0.013-0.168-0.037c-0.088-0.024-0.155-0.036-0.205-0.036H8.615c-0.051,0-0.118-0.025-0.205-0.074
			c-0.087-0.051-0.145-0.075-0.168-0.075c-0.074-0.025-0.188-0.044-0.337-0.056c-0.147-0.014-0.261-0.031-0.335-0.057
			c-0.1-0.051-0.224-0.155-0.372-0.316c-0.149-0.162-0.286-0.269-0.41-0.317c0-0.023-0.021-0.074-0.058-0.148
			s-0.056-0.137-0.056-0.188v-0.074c-0.199-0.396-0.299-0.621-0.299-0.672V28.94c-0.05,0-0.101-0.111-0.148-0.336L6.079,28.38
			v-0.149c0-0.049-0.014-0.11-0.037-0.187c-0.025-0.074-0.038-0.136-0.038-0.188c0-0.023,0.013-0.062,0.038-0.11
			c-0.101-0.101-0.149-0.236-0.149-0.41v-0.635c0-0.051-0.019-0.124-0.057-0.225C5.798,26.38,5.78,26.318,5.78,26.292
			c0-0.024-0.006-0.087-0.019-0.188c-0.013-0.099-0.019-0.174-0.019-0.224c0-0.124,0.023-0.312,0.073-0.561
			c0-0.023,0.014-0.062,0.038-0.111c0.024-0.049,0.037-0.1,0.037-0.149c0-0.049-0.019-0.104-0.057-0.167
			c-0.037-0.063-0.057-0.104-0.057-0.131c0-0.024,0.007-0.075,0.02-0.149c0.013-0.073,0.019-0.137,0.019-0.187
			c0-0.024-0.013-0.074-0.037-0.149c-0.023-0.073-0.036-0.124-0.036-0.147c0-0.05,0.013-0.106,0.036-0.168
			c0.024-0.063,0.037-0.105,0.037-0.131v-0.373c-0.05-0.248-0.05-0.397,0-0.447c-0.05-0.249-0.073-0.423-0.073-0.522
			c0-0.074,0.013-0.218,0.036-0.429c0.024-0.212,0.024-0.379,0-0.504v-0.112c0-0.023,0.014-0.036,0.037-0.036l0.038-0.074
			c0-0.05-0.02-0.112-0.057-0.188s-0.056-0.124-0.056-0.148s0.013-0.057,0.036-0.095c0.024-0.036,0.037-0.066,0.037-0.093v-0.224
			v-0.149c0-0.1,0.038-0.174,0.112-0.224c-0.05-0.174-0.05-0.323,0-0.448l0.037-0.037V19.69v-0.111c0-0.322,0.023-0.521,0.075-0.598
			c-0.052-0.099-0.075-0.187-0.075-0.261c0-0.024,0.006-0.075,0.019-0.149c0.014-0.073,0.02-0.137,0.02-0.187
			c0-0.174,0.013-0.273,0.038-0.299l0.073-0.037v-0.037c-0.024-0.024-0.036-0.05-0.036-0.074l0.073-0.038
			c0-0.224,0.014-0.396,0.037-0.521v-0.299c0.05-0.074,0.075-0.262,0.075-0.561v-0.224l0.111-0.447c0-0.075,0.023-0.187,0.075-0.336
			c0.049-0.149,0.073-0.248,0.073-0.299c0-0.024-0.013-0.063-0.037-0.111v-0.075c0.024-0.073,0.063-0.18,0.112-0.315
			c0.049-0.137,0.086-0.23,0.111-0.28v-0.299c0-0.049,0.019-0.117,0.056-0.205c0.038-0.087,0.068-0.154,0.094-0.205
			c0.051-0.248,0.074-0.447,0.074-0.597c0.101-0.074,0.168-0.225,0.205-0.447c0.038-0.224,0.068-0.349,0.094-0.373
			c0.051-0.1,0.174-0.262,0.373-0.485c0.05,0.025,0.1,0.037,0.149,0.037c0.049,0,0.124-0.019,0.224-0.056s0.188-0.056,0.261-0.056
			h0.112c0.05,0,0.087-0.024,0.111-0.075C8.491,11.621,8.515,11.595,8.541,11.595z"/>
		<path fill="#5AB1AF" d="M22.641,10.402c0.1,0,0.188,0.024,0.261,0.074h0.3c0.049,0.074,0.147,0.149,0.298,0.225
			c0.148,0.074,0.248,0.138,0.299,0.187c0.023,0,0.074,0.007,0.148,0.02s0.111,0.007,0.111-0.02c0,0.051,0.037,0.1,0.112,0.149
			c0.074,0.05,0.124,0.1,0.148,0.148c0.1,0,0.174,0.024,0.225,0.074c0.099,0.1,0.174,0.162,0.224,0.187v0.225
			c0.074,0,0.144-0.02,0.205-0.056c0.063-0.037,0.124-0.088,0.188-0.149c0.062-0.063,0.117-0.105,0.168-0.13
			c0.023,0,0.073-0.006,0.148-0.02c0.074-0.013,0.124-0.03,0.148-0.057c0.846-0.298,1.344-0.447,1.492-0.447
			c0.074,0,0.191,0.006,0.354,0.02c0.162,0.013,0.28,0.019,0.354,0.019s0.181-0.006,0.316-0.019c0.136-0.014,0.242-0.02,0.317-0.02
			h0.187c0.447,0.05,0.745,0.149,0.896,0.298c0.05,0,0.094,0.015,0.131,0.038c0.037,0.024,0.067,0.037,0.093,0.037
			c0.075,0.101,0.28,0.255,0.616,0.466c0.335,0.212,0.541,0.417,0.615,0.616c0.05,0.024,0.099,0.05,0.148,0.074
			c0.049,0.025,0.087,0.05,0.111,0.074c0.023,0.1,0.087,0.225,0.187,0.373l0.188,0.225c0,0.024-0.006,0.056-0.02,0.093
			c-0.013,0.037-0.019,0.068-0.019,0.095c0.024,0.023,0.068,0.05,0.131,0.073c0.063,0.025,0.105,0.051,0.131,0.074
			c0,0.125,0.063,0.212,0.188,0.262v0.225c0,0.024,0.037,0.074,0.11,0.148c0.024,0.148,0.101,0.343,0.225,0.578
			c0.124,0.236,0.187,0.43,0.187,0.578c0.075,0.074,0.112,0.188,0.112,0.336c0,0.124-0.037,0.248-0.112,0.373
			c0,0.024,0.02,0.13,0.058,0.316c0.036,0.187,0.056,0.33,0.056,0.43v0.111c0,0.024-0.02,0.068-0.056,0.131
			c-0.038,0.063-0.058,0.118-0.058,0.168v0.111c0,0.051-0.006,0.094-0.019,0.131c-0.014,0.037-0.031,0.067-0.057,0.093
			c-0.024,0.025-0.036,0.063-0.036,0.112c-0.075,0.249-0.125,0.373-0.149,0.373v0.224c0,0.299-0.037,0.585-0.112,0.858
			c-0.1,0.05-0.162,0.073-0.187,0.073c-0.024,0.075-0.081,0.193-0.168,0.354c-0.087,0.162-0.144,0.305-0.167,0.429
			c-0.025,0.025-0.088,0.081-0.188,0.168c-0.101,0.088-0.175,0.145-0.225,0.168l0.038,0.037c0,0.051,0,0.088,0,0.112
			c-0.125,0.074-0.262,0.218-0.411,0.429c-0.148,0.212-0.273,0.354-0.373,0.429l0.038,0.038c0,0.024,0,0.05,0,0.074
			c0,0.05-0.063,0.137-0.188,0.261c-0.175,0.299-0.285,0.461-0.336,0.485c0,0.074-0.007,0.162-0.019,0.261
			c-0.013,0.101-0.02,0.175-0.02,0.226c0,0.1,0.013,0.174,0.037,0.224c0,0.05-0.024,0.074-0.074,0.074
			c-0.024,0.051-0.037,0.088-0.037,0.111c0,0.051,0.023,0.149,0.074,0.299c-0.051,0.074-0.081,0.236-0.094,0.484
			c-0.013,0.249-0.067,0.423-0.168,0.522c0.05,0.148,0.075,0.249,0.075,0.298c0,0.075-0.013,0.125-0.038,0.148
			c0.323,0.696,0.51,1.082,0.56,1.156v0.075c0,0.074,0.024,0.148,0.075,0.224c0.05,0.074,0.074,0.125,0.074,0.149v0.037
			c-0.024,0.05-0.037,0.087-0.037,0.111c0.149,0.074,0.273,0.161,0.373,0.262c0.024,0.023,0.037,0.063,0.037,0.11
			c0.075,0.025,0.143,0.095,0.205,0.205c0.063,0.112,0.118,0.182,0.168,0.206l-0.037,0.074c0,0.101,0.087,0.212,0.261,0.336
			c0,0.05,0,0.087,0,0.111c-0.05,0.051-0.063,0.088-0.037,0.112c0.024,0.024,0.112,0.036,0.263,0.036
			c0.173,0.225,0.261,0.424,0.261,0.598c0.05,0.051,0.099,0.144,0.149,0.279c0.049,0.138,0.087,0.23,0.11,0.279
			c-0.174,0.35-0.349,0.561-0.521,0.635c0,0.074-0.015,0.124-0.038,0.148c-0.174,0.051-0.286,0.112-0.335,0.187
			c-0.398,0.052-1.008,0.075-1.828,0.075c-0.224-0.224-0.473-0.349-0.746-0.373V29.5c-0.05,0-0.112-0.024-0.187-0.074
			c-0.075-0.05-0.149-0.087-0.225-0.112c-0.199-0.248-0.448-0.472-0.746-0.672v-0.11c-0.199-0.075-0.36-0.248-0.484-0.522
			c-0.125-0.05-0.269-0.137-0.43-0.261c-0.162-0.124-0.268-0.199-0.316-0.225c-0.101,0-0.188-0.038-0.262-0.111
			c-0.024-0.024-0.036-0.087-0.036-0.188c-0.052,0-0.119-0.031-0.205-0.094c-0.089-0.063-0.168-0.105-0.243-0.13
			c-0.05-0.05-0.05-0.101,0-0.149c-0.174-0.05-0.286-0.161-0.336-0.336h-0.188c-0.023,0.025-0.037,0.063-0.037,0.112
			c-0.023,0.05-0.05,0.074-0.073,0.074l0.148,0.148c0,0.074-0.007,0.168-0.019,0.279c-0.015,0.112-0.021,0.193-0.021,0.243
			c0,0.023,0.014,0.05,0.038,0.074l0.037,0.074c0.024,0.074,0.037,0.188,0.037,0.335c0,0.125,0.023,0.212,0.074,0.263l-0.037,0.261
			c0,0.1,0.019,0.236,0.057,0.41c0.037,0.175,0.056,0.312,0.056,0.41v0.225c-0.248,0.248-0.634,0.373-1.155,0.373
			c-0.995,0-1.617-0.149-1.865-0.448c-0.299-0.074-0.597-0.285-0.896-0.634c-0.1-0.05-0.161-0.087-0.187-0.112l-0.298-0.41
			c-0.025-0.023-0.051-0.062-0.075-0.11l-0.037-0.038c-0.024-0.024-0.067-0.074-0.131-0.148s-0.105-0.125-0.13-0.148
			c-0.125-0.124-0.262-0.387-0.411-0.783c-0.024-0.05-0.043-0.168-0.056-0.354c-0.014-0.186-0.044-0.316-0.094-0.392
			c0-0.1,0.013-0.162,0.037-0.187c-0.1-0.075-0.175-0.35-0.224-0.821c0-0.049-0.021-0.105-0.057-0.168
			c-0.037-0.063-0.057-0.105-0.057-0.13l-0.111-0.783c0-0.05,0.023-0.101,0.074-0.149c-0.024-0.023-0.037-0.148-0.037-0.373
			c0-0.05-0.014-0.087-0.037-0.111c0.023-0.024,0.037-0.087,0.037-0.188c0-0.224,0.013-0.348,0.037-0.373
			c-0.024-0.023-0.037-0.067-0.037-0.131c0-0.062,0-0.117,0-0.167l-0.111-0.225c0-0.173,0.037-0.335,0.111-0.484
			c-0.051-0.148-0.063-0.272-0.037-0.373c0.023-0.05,0.037-0.087,0.037-0.112c0-0.049-0.014-0.13-0.037-0.241
			c-0.024-0.112-0.037-0.192-0.037-0.242c0-0.101,0.037-0.188,0.111-0.262c-0.051-0.074-0.074-0.212-0.074-0.41
			c0-0.298,0.037-0.522,0.111-0.671c0-0.024-0.024-0.063-0.074-0.112V19.13c0-0.472,0.05-0.796,0.148-0.97
			c-0.05-0.175-0.074-0.46-0.074-0.858l0.037-0.074c0.024-0.023,0.037-0.05,0.037-0.074l-0.037-0.074c0-0.024,0-0.051,0-0.074
			c0-0.024,0.006-0.087,0.02-0.188c0.013-0.1,0.019-0.187,0.019-0.262v-0.147l0.075-0.149c-0.051-0.199-0.075-0.36-0.075-0.485
			c0-0.174,0.038-0.321,0.112-0.446V15.29l-0.037-0.075c0-0.074,0.023-0.161,0.074-0.261c0.05-0.101,0.074-0.162,0.074-0.188v-0.635
			c0-0.198,0.013-0.348,0.037-0.447l0.037-0.148V13.46c0-0.174,0.024-0.286,0.074-0.336c0.024-0.024,0.024-0.05,0-0.074
			l-0.037-0.037c0.024-0.05,0.037-0.174,0.037-0.373c0-0.05,0.019-0.125,0.057-0.225c0.037-0.1,0.057-0.161,0.057-0.188
			c0-0.298,0.023-0.472,0.073-0.521l-0.036-0.038h-0.037c-0.025-0.024-0.02-0.043,0.019-0.057c0.037-0.012,0.056-0.03,0.056-0.056
			v-0.262c0-0.225,0.038-0.459,0.112-0.708h0.261c0.249,0,0.424-0.05,0.522-0.149c0.05,0.025,0.199,0.037,0.447,0.037l0.148,0.037
			H22c0.023,0,0.111-0.012,0.262-0.037C22.466,10.426,22.59,10.402,22.641,10.402z M27.901,13.311c-0.498-0.023-1.069,0-1.717,0.075
			c-0.05,0.05-0.124,0.1-0.224,0.148c-0.05,0-0.087-0.013-0.111-0.037c-0.051,0.05-0.125,0.1-0.225,0.148
			c-0.101,0.049-0.161,0.087-0.188,0.111c-0.199,0.125-0.323,0.2-0.373,0.225H24.84c-0.05,0.024-0.087,0.051-0.111,0.074
			c-0.024,0.025-0.057,0.069-0.094,0.131c-0.037,0.063-0.068,0.118-0.093,0.168c-0.025,0.024-0.063,0.063-0.112,0.111l-0.074,0.037
			v0.336c0,0.051-0.03,0.137-0.094,0.262c-0.063,0.124-0.104,0.225-0.13,0.298c-0.025,0.149-0.038,0.398-0.038,0.746
			c0,0.35,0.013,0.585,0.038,0.709v0.149c0,0.148-0.051,0.396-0.149,0.746c0.074,0.074,0.111,0.187,0.111,0.335
			c0,0.024-0.019,0.051-0.056,0.075s-0.057,0.063-0.057,0.11c0,0.125,0.049,0.263,0.149,0.411v0.111
			c0,0.199,0.012,0.312,0.037,0.336l-0.112,0.037c-0.05,0-0.074,0.013-0.074,0.037l0.074,0.074c0.075,0.051,0.124,0.101,0.149,0.149
			c0,0.024-0.007,0.062-0.02,0.111c-0.013,0.051-0.019,0.088-0.019,0.111c0,0.124,0.062,0.249,0.187,0.373
			c0.074-0.074,0.248-0.187,0.522-0.336c0.271-0.148,0.459-0.299,0.559-0.446c0.522-0.149,0.871-0.448,1.045-0.896
			c0.074-0.05,0.155-0.143,0.242-0.28c0.087-0.136,0.145-0.217,0.168-0.242c0.199-0.05,0.299-0.148,0.299-0.299v-0.073
			c0.074,0,0.111-0.063,0.111-0.188c0.323-0.224,0.56-0.521,0.709-0.896c0.075-0.05,0.155-0.154,0.242-0.316
			s0.181-0.268,0.279-0.317l-0.036-0.037c-0.052-0.023-0.075-0.05-0.075-0.074c0.023-0.024,0.075-0.148,0.148-0.373
			c-0.024-0.049-0.037-0.124-0.037-0.225c0-0.073,0.024-0.211,0.074-0.41c0.05-0.197,0.075-0.336,0.075-0.409
			c-0.075-0.225-0.149-0.373-0.224-0.448c-0.025-0.049-0.112-0.117-0.263-0.205C28.049,13.466,27.95,13.386,27.901,13.311z"/>
		<path fill="#5AB1AF" d="M39.651,11.558h0.112c0.273,0,0.436,0.024,0.484,0.074c0.074-0.024,0.198-0.037,0.373-0.037
			c0.1,0,0.235,0.007,0.409,0.02c0.175,0.013,0.286,0.019,0.337,0.019c0.074,0,0.187-0.006,0.336-0.019
			c0.148-0.013,0.261-0.02,0.336-0.02c0.023,0,0.062,0.013,0.11,0.037c0.051,0.025,0.087,0.037,0.112,0.037
			c0.024,0,0.068-0.006,0.131-0.02c0.063-0.012,0.117-0.019,0.168-0.019c0.024,0,0.148,0.007,0.372,0.019
			c0.226,0.014,0.398,0.044,0.522,0.095c0.05,0,0.087-0.014,0.111-0.037h0.074c0.101,0.074,0.211,0.11,0.336,0.11h0.149
			c0.05,0,0.136-0.006,0.261-0.019c0.124-0.012,0.224-0.019,0.299-0.019h0.111c0.05,0,0.174,0.024,0.373,0.073
			c0.323,0.075,0.547,0.188,0.672,0.336c0.024,0.025,0.074,0.088,0.149,0.188c0.073,0.1,0.136,0.175,0.187,0.224
			c0.024,0.025,0.062,0.069,0.111,0.131c0.05,0.063,0.087,0.118,0.111,0.168l0.037,0.447c-0.05,0.274-0.148,0.522-0.298,0.746
			c-0.125,0.175-0.249,0.286-0.373,0.336c-0.051,0.025-0.138,0.05-0.262,0.074c-0.125,0.024-0.212,0.051-0.261,0.075
			c-0.101,0.05-0.199,0.073-0.3,0.073c-0.05,0-0.125-0.023-0.224-0.073c-0.149,0.125-0.436,0.187-0.858,0.187H43.12
			c-0.101,0-0.273,0.006-0.521,0.02c-0.249,0.013-0.448,0.019-0.597,0.019H41.74c-0.101-0.024-0.225-0.024-0.373,0
			c-0.074,0-0.168-0.006-0.279-0.019c-0.112-0.014-0.193-0.02-0.243-0.02s-0.118,0.006-0.205,0.02
			c-0.087,0.013-0.155,0.019-0.205,0.019s-0.118-0.006-0.205-0.019c-0.087-0.014-0.144-0.02-0.168-0.02
			c-0.124,0-0.211,0.024-0.261,0.074c0.024,0.051,0.037,0.125,0.037,0.224c-0.149,0.075-0.236,0.125-0.261,0.149
			c0.023,0.024,0.036,0.1,0.036,0.224l-0.036,0.226c0,0.05-0.025,0.1-0.075,0.147c-0.05,0.051-0.074,0.088-0.074,0.112
			c0.024,0.024,0.024,0.05,0,0.074l0.074,0.038c0.023,0,0.037,0.013,0.037,0.036c0.024,0.149,0.044,0.461,0.057,0.934
			c0.012,0.473,0.056,0.82,0.13,1.044c-0.074,0.199-0.124,0.324-0.147,0.373c0.023,0.051,0.062,0.075,0.11,0.075
			s0.075,0.013,0.075,0.037c0,0.198-0.013,0.336-0.038,0.409c0.075,0.125,0.112,0.262,0.112,0.41c0,0.175-0.063,0.35-0.188,0.522
			c0,0.05-0.007,0.105-0.019,0.168c-0.013,0.063-0.02,0.104-0.02,0.131c0,0.147,0.013,0.354,0.037,0.615
			c0.024,0.261,0.037,0.44,0.037,0.541c0,0.124-0.013,0.224-0.037,0.298c0.149,0.1,0.273,0.224,0.373,0.373
			c0.074,0,0.188-0.006,0.336-0.02c0.149-0.012,0.248-0.019,0.299-0.019c0.125,0,0.262,0.024,0.41,0.074
			c0.248-0.05,0.447-0.074,0.598-0.074l0.373,0.037c0.023,0.024,0.099,0.063,0.224,0.111c0.124,0.051,0.198,0.101,0.224,0.149h0.149
			c0.024,0.024,0.111,0.1,0.261,0.224c0.149,0.125,0.273,0.199,0.373,0.225c0,0.074,0.05,0.148,0.149,0.224
			c-0.05,0.051-0.057,0.125-0.02,0.225s0.057,0.161,0.057,0.187v0.075l-0.149,0.148c0,0.051-0.031,0.124-0.093,0.225
			c-0.063,0.1-0.094,0.187-0.094,0.261c-0.024,0.025-0.074,0.037-0.148,0.037c-0.025,0.1-0.088,0.225-0.187,0.373l-0.522,0.112
			c-0.05,0-0.125,0.013-0.224,0.036c-0.052,0.051-0.101,0.074-0.149,0.074c-0.074,0-0.162-0.012-0.261-0.037
			c-0.102-0.023-0.188-0.037-0.262-0.037l-0.373,0.037h-0.111c-0.051,0-0.119-0.012-0.205-0.037
			c-0.088-0.023-0.144-0.036-0.168-0.036c-0.075,0-0.125,0.013-0.149,0.036c-0.074,0.074-0.111,0.213-0.111,0.41
			c0,0.025-0.006,0.075-0.02,0.149c-0.013,0.074-0.019,0.14-0.019,0.189c0,0.101,0.013,0.236,0.037,0.41
			c0.023,0.175,0.037,0.299,0.037,0.373v0.41c0.074,0.025,0.272,0.094,0.598,0.205c0.322,0.112,0.546,0.219,0.671,0.317
			c0.05,0,0.087-0.007,0.112-0.02c0.023-0.012,0.049-0.019,0.073-0.019c0.225,0.073,0.485,0.111,0.783,0.111
			c0.225,0,0.511-0.024,0.858-0.074c0.023,0,0.087,0.05,0.187,0.148c0.074,0,0.229-0.019,0.467-0.056
			c0.235-0.038,0.416-0.058,0.541-0.058c0.174,0,0.311,0.038,0.409,0.112c0.024-0.05,0.087-0.056,0.188-0.019
			c0.1,0.037,0.162,0.056,0.187,0.056h0.075c0.024,0.025,0.049,0.05,0.074,0.075l0.075,0.037l0.335,0.11
			c0.1,0.149,0.148,0.274,0.148,0.373c0.024,0.025,0.075,0.069,0.149,0.131c0.074,0.063,0.124,0.106,0.148,0.132
			c0.05,0.05,0.074,0.187,0.074,0.409c0,0.199-0.024,0.336-0.074,0.41l-0.111,0.074c-0.174,0.249-0.323,0.398-0.447,0.448
			l-0.336,0.148h-0.187c-0.074,0-0.162,0.031-0.262,0.094s-0.175,0.094-0.225,0.094s-0.101-0.006-0.148-0.02
			c-0.051-0.013-0.088-0.02-0.111-0.02c-0.025,0-0.074,0.038-0.149,0.112c-0.074,0-0.181,0.037-0.316,0.111
			c-0.138,0.074-0.242,0.124-0.316,0.148c-0.05,0-0.162,0.006-0.336,0.019c-0.174,0.014-0.313,0.031-0.41,0.058
			c-0.199,0.05-0.398,0.073-0.597,0.073c-0.149,0-0.249-0.013-0.3-0.036l-0.11,0.036c-0.051,0.024-0.088,0.051-0.112,0.075
			c-0.05-0.024-0.125-0.038-0.224-0.038c-0.052,0-0.125,0.006-0.225,0.02c-0.1,0.013-0.175,0.02-0.225,0.02
			c-0.024,0-0.063,0-0.111,0l-0.037-0.038c-0.024,0-0.063,0.007-0.111,0.02s-0.088,0.02-0.112,0.02
			c-0.074,0.024-0.236,0.037-0.484,0.037h-0.521c-0.101,0.05-0.162,0.074-0.188,0.074c-0.073,0.024-0.187,0.037-0.336,0.037
			c-0.224,0-0.386-0.013-0.483-0.037l-0.188,0.112c-0.125,0-0.305,0.012-0.541,0.037c-0.235,0.023-0.417,0.036-0.541,0.036
			c-0.148,0-0.273-0.013-0.373-0.036c-0.05-0.051-0.187-0.112-0.41-0.188c-0.223-0.075-0.36-0.174-0.409-0.299
			c-0.052,0-0.119-0.037-0.205-0.111c-0.088-0.075-0.168-0.124-0.243-0.148c-0.05-0.149-0.188-0.292-0.41-0.43
			c-0.223-0.137-0.36-0.229-0.41-0.279c0-0.1-0.05-0.175-0.148-0.225c0-0.05-0.007-0.104-0.02-0.168
			c-0.013-0.062-0.019-0.104-0.019-0.131c-0.101-0.074-0.225-0.211-0.373-0.41c-0.025-0.049-0.025-0.099,0-0.147v-0.038
			c-0.175-0.225-0.262-0.422-0.262-0.598V27.37c-0.074-0.124-0.138-0.36-0.187-0.709c-0.051-0.349-0.125-0.584-0.225-0.709v-0.074
			c0-0.05-0.024-0.137-0.074-0.262c-0.05-0.124-0.074-0.211-0.074-0.262l0.037-0.148c-0.1-0.174-0.149-0.373-0.149-0.598
			c0-0.148-0.007-0.322-0.019-0.521c-0.013-0.198-0.031-0.422-0.056-0.671c-0.025-0.248-0.038-0.448-0.038-0.598v-0.896
			c0-0.1,0.013-0.242,0.038-0.429c0.023-0.188,0.036-0.317,0.036-0.394c0-0.049-0.007-0.136-0.019-0.261
			c-0.013-0.124-0.019-0.224-0.019-0.298c0-0.125,0.012-0.226,0.036-0.299c-0.024-0.024-0.024-0.037,0-0.037l0.074-0.037
			c-0.125-0.821-0.187-1.394-0.187-1.717c0-0.074,0.023-0.211,0.074-0.41h-0.037c-0.051,0-0.074-0.012-0.074-0.037
			c0-0.149,0.006-0.393,0.019-0.729c0.014-0.336,0.02-0.59,0.02-0.765c0-0.024-0.006-0.074-0.02-0.149
			c-0.013-0.073-0.019-0.136-0.019-0.187c0-0.099,0.037-0.187,0.111-0.261l-0.037-0.037c-0.051,0-0.063-0.024-0.037-0.075
			c0.074-0.597,0.111-1.181,0.111-1.753c0.024-0.024,0.063-0.056,0.111-0.093c0.05-0.038,0.087-0.068,0.112-0.095
			c-0.025-0.05-0.05-0.062-0.074-0.036c-0.025,0.024-0.051,0.024-0.075,0c0-0.149,0.037-0.317,0.112-0.504
			c0.074-0.188,0.124-0.316,0.148-0.393c0.024,0,0.057-0.023,0.094-0.074c0.037-0.05,0.08-0.074,0.131-0.074
			c0.049-0.1,0.174-0.218,0.373-0.354c0.198-0.136,0.321-0.254,0.373-0.354c0.023,0,0.197-0.038,0.521-0.112
			c0.149,0,0.249-0.063,0.299-0.188c0.024,0.025,0.063,0.037,0.112,0.037c0.049,0,0.13-0.023,0.242-0.074
			c0.112-0.05,0.18-0.074,0.205-0.074c0.074-0.024,0.187-0.037,0.336-0.037c0.148,0,0.298,0.024,0.447,0.075
			c0.05,0,0.117-0.014,0.205-0.038c0.087-0.024,0.168-0.043,0.242-0.057c0.074-0.012,0.148-0.019,0.225-0.019
			c0.023,0,0.062,0.013,0.11,0.037h0.075c0.049,0,0.124-0.013,0.225-0.037c0.099-0.024,0.187-0.037,0.261-0.037l0.148,0.037
			c0.101,0,0.229-0.013,0.393-0.037s0.28-0.037,0.354-0.037h0.112L39.651,11.558z"/>
		<path fill="#5AB1AF" d="M53.416,11.558h0.111c0.273,0,0.436,0.024,0.484,0.074c0.075-0.024,0.199-0.037,0.373-0.037
			c0.1,0,0.236,0.007,0.41,0.02s0.286,0.019,0.336,0.019c0.075,0,0.187-0.006,0.336-0.019s0.261-0.02,0.336-0.02
			c0.024,0,0.063,0.013,0.111,0.037c0.05,0.025,0.087,0.037,0.111,0.037s0.068-0.006,0.132-0.02
			c0.062-0.012,0.116-0.019,0.168-0.019c0.023,0,0.147,0.007,0.371,0.019c0.226,0.014,0.398,0.044,0.522,0.095
			c0.05,0,0.087-0.014,0.112-0.037h0.073c0.101,0.074,0.212,0.11,0.337,0.11h0.148c0.05,0,0.136-0.006,0.261-0.019
			c0.124-0.012,0.225-0.019,0.3-0.019h0.11c0.05,0,0.174,0.024,0.373,0.073c0.323,0.075,0.547,0.188,0.672,0.336
			c0.024,0.025,0.074,0.088,0.149,0.188c0.074,0.1,0.136,0.175,0.187,0.224c0.024,0.025,0.063,0.069,0.111,0.131
			c0.05,0.063,0.087,0.118,0.112,0.168l0.037,0.447c-0.051,0.274-0.149,0.522-0.299,0.746c-0.125,0.175-0.249,0.286-0.373,0.336
			c-0.051,0.025-0.138,0.05-0.262,0.074c-0.125,0.024-0.212,0.051-0.261,0.075c-0.1,0.05-0.199,0.073-0.299,0.073
			c-0.05,0-0.125-0.023-0.225-0.073c-0.148,0.125-0.436,0.187-0.857,0.187h-0.746c-0.101,0-0.273,0.006-0.521,0.02
			c-0.249,0.013-0.447,0.019-0.597,0.019h-0.262c-0.101-0.024-0.225-0.024-0.373,0c-0.074,0-0.168-0.006-0.279-0.019
			c-0.112-0.014-0.193-0.02-0.243-0.02s-0.118,0.006-0.205,0.02c-0.087,0.013-0.154,0.019-0.205,0.019
			c-0.05,0-0.117-0.006-0.204-0.019c-0.088-0.014-0.145-0.02-0.169-0.02c-0.123,0-0.211,0.024-0.261,0.074
			c0.024,0.051,0.037,0.125,0.037,0.224c-0.148,0.075-0.236,0.125-0.261,0.149c0.023,0.024,0.037,0.1,0.037,0.224l-0.037,0.226
			c0,0.05-0.025,0.1-0.075,0.147c-0.05,0.051-0.074,0.088-0.074,0.112c0.024,0.024,0.024,0.05,0,0.074l0.074,0.038
			c0.024,0,0.037,0.013,0.037,0.036c0.025,0.149,0.044,0.461,0.057,0.934s0.057,0.82,0.13,1.044
			c-0.073,0.199-0.124,0.324-0.147,0.373c0.023,0.051,0.062,0.075,0.111,0.075c0.049,0,0.074,0.013,0.074,0.037
			c0,0.198-0.013,0.336-0.038,0.409c0.075,0.125,0.112,0.262,0.112,0.41c0,0.175-0.063,0.35-0.187,0.522
			c0,0.05-0.008,0.105-0.02,0.168c-0.013,0.063-0.019,0.104-0.019,0.131c0,0.147,0.012,0.354,0.037,0.615
			c0.023,0.261,0.036,0.44,0.036,0.541c0,0.124-0.013,0.224-0.036,0.298c0.148,0.1,0.272,0.224,0.373,0.373
			c0.073,0,0.187-0.006,0.336-0.02c0.148-0.012,0.248-0.019,0.298-0.019c0.125,0,0.262,0.024,0.411,0.074
			c0.248-0.05,0.446-0.074,0.597-0.074l0.373,0.037c0.023,0.024,0.099,0.063,0.224,0.111c0.124,0.051,0.198,0.101,0.225,0.149H56.4
			c0.024,0.024,0.111,0.1,0.262,0.224c0.148,0.125,0.272,0.199,0.373,0.225c0,0.074,0.05,0.148,0.148,0.224
			c-0.05,0.051-0.056,0.125-0.019,0.225s0.056,0.161,0.056,0.187v0.075l-0.149,0.148c0,0.051-0.03,0.124-0.093,0.225
			c-0.063,0.1-0.094,0.187-0.094,0.261c-0.024,0.025-0.074,0.037-0.148,0.037c-0.024,0.1-0.088,0.225-0.187,0.373l-0.522,0.112
			c-0.05,0-0.125,0.013-0.224,0.036c-0.051,0.051-0.1,0.074-0.149,0.074c-0.073,0-0.161-0.012-0.261-0.037
			c-0.101-0.023-0.187-0.037-0.262-0.037l-0.373,0.037h-0.111c-0.051,0-0.119-0.012-0.205-0.037
			c-0.088-0.023-0.144-0.036-0.168-0.036c-0.074,0-0.125,0.013-0.148,0.036c-0.075,0.074-0.112,0.213-0.112,0.41
			c0,0.025-0.006,0.075-0.019,0.149c-0.014,0.074-0.02,0.137-0.02,0.187c0,0.101,0.013,0.236,0.037,0.41
			c0.024,0.175,0.037,0.299,0.037,0.373v0.41c0.075,0.025,0.272,0.094,0.598,0.205c0.322,0.112,0.546,0.219,0.671,0.317
			c0.051,0,0.087-0.007,0.112-0.02c0.024-0.012,0.049-0.019,0.074-0.019c0.224,0.073,0.484,0.111,0.783,0.111
			c0.224,0,0.51-0.024,0.857-0.075c0.024,0,0.087,0.051,0.188,0.149c0.074,0,0.229-0.019,0.466-0.056
			c0.236-0.038,0.416-0.058,0.541-0.058c0.174,0,0.311,0.038,0.41,0.112c0.023-0.05,0.087-0.056,0.187-0.019
			c0.101,0.036,0.162,0.056,0.188,0.056h0.075c0.023,0.025,0.049,0.05,0.073,0.075l0.075,0.037l0.335,0.11
			c0.101,0.149,0.149,0.274,0.149,0.373c0.023,0.025,0.075,0.069,0.148,0.131c0.074,0.063,0.124,0.106,0.149,0.132
			c0.049,0.05,0.074,0.187,0.074,0.409c0,0.199-0.025,0.336-0.074,0.41l-0.112,0.074c-0.174,0.249-0.323,0.398-0.447,0.448
			l-0.336,0.148h-0.187c-0.074,0-0.162,0.031-0.261,0.094c-0.101,0.063-0.176,0.094-0.226,0.094s-0.1-0.006-0.147-0.02
			c-0.052-0.013-0.088-0.02-0.112-0.02c-0.025,0-0.074,0.038-0.149,0.112c-0.073,0-0.181,0.036-0.315,0.111
			c-0.138,0.074-0.243,0.124-0.317,0.148c-0.05,0-0.162,0.006-0.336,0.019c-0.174,0.014-0.312,0.031-0.41,0.058
			c-0.198,0.05-0.397,0.073-0.597,0.073c-0.149,0-0.249-0.013-0.299-0.036l-0.111,0.036c-0.051,0.024-0.088,0.051-0.112,0.075
			c-0.05-0.024-0.125-0.038-0.224-0.038c-0.051,0-0.125,0.006-0.224,0.02c-0.101,0.013-0.175,0.02-0.226,0.02
			c-0.023,0-0.062,0-0.11,0l-0.037-0.038c-0.025,0-0.063,0.006-0.112,0.02c-0.049,0.013-0.088,0.02-0.112,0.02
			c-0.073,0.024-0.235,0.037-0.483,0.037h-0.522c-0.1,0.05-0.162,0.074-0.187,0.074c-0.074,0.023-0.188,0.037-0.336,0.037
			c-0.225,0-0.387-0.014-0.484-0.037l-0.187,0.112c-0.125,0-0.306,0.012-0.541,0.036c-0.236,0.024-0.417,0.037-0.541,0.037
			c-0.149,0-0.274-0.013-0.373-0.037c-0.051-0.05-0.188-0.111-0.41-0.187c-0.224-0.075-0.361-0.174-0.41-0.299
			c-0.051,0-0.119-0.037-0.205-0.111c-0.088-0.075-0.168-0.124-0.243-0.148c-0.05-0.149-0.187-0.292-0.41-0.43
			c-0.223-0.137-0.359-0.229-0.409-0.279c0-0.1-0.051-0.175-0.149-0.225c0-0.05-0.006-0.104-0.019-0.168
			c-0.014-0.062-0.02-0.104-0.02-0.131c-0.1-0.074-0.224-0.211-0.373-0.41c-0.024-0.049-0.024-0.099,0-0.147v-0.038
			c-0.175-0.225-0.261-0.422-0.261-0.598v-0.073c-0.075-0.124-0.138-0.36-0.188-0.709c-0.051-0.349-0.125-0.584-0.225-0.709v-0.074
			c0-0.05-0.024-0.137-0.074-0.262c-0.05-0.124-0.074-0.212-0.074-0.262l0.037-0.148c-0.1-0.175-0.148-0.373-0.148-0.598
			c0-0.148-0.007-0.322-0.02-0.521c-0.013-0.198-0.03-0.422-0.056-0.671c-0.025-0.248-0.038-0.448-0.038-0.598V21.92
			c0-0.101,0.013-0.242,0.038-0.429c0.023-0.188,0.037-0.317,0.037-0.394c0-0.049-0.007-0.136-0.02-0.261
			c-0.013-0.124-0.019-0.224-0.019-0.298c0-0.125,0.012-0.226,0.037-0.299c-0.025-0.024-0.025-0.037,0-0.037l0.074-0.037
			c-0.125-0.821-0.188-1.394-0.188-1.717c0-0.074,0.024-0.211,0.075-0.41H47.26c-0.05,0-0.074-0.013-0.074-0.037
			c0-0.149,0.006-0.393,0.02-0.729c0.013-0.336,0.019-0.59,0.019-0.765c0-0.024-0.006-0.074-0.019-0.149
			c-0.014-0.073-0.02-0.136-0.02-0.187c0-0.099,0.037-0.188,0.112-0.261l-0.038-0.037c-0.05,0-0.062-0.024-0.037-0.075
			c0.075-0.597,0.112-1.181,0.112-1.753c0.023-0.024,0.062-0.056,0.11-0.093c0.051-0.038,0.088-0.068,0.112-0.095
			c-0.024-0.05-0.05-0.062-0.074-0.036c-0.024,0.024-0.051,0.024-0.074,0c0-0.149,0.036-0.317,0.111-0.505
			c0.074-0.187,0.124-0.315,0.149-0.392c0.023,0,0.056-0.024,0.093-0.074s0.08-0.075,0.131-0.075
			c0.049-0.099,0.174-0.217,0.373-0.354c0.198-0.136,0.322-0.254,0.373-0.354c0.024,0,0.198-0.037,0.521-0.111
			c0.148,0,0.249-0.063,0.299-0.188c0.023,0.025,0.062,0.037,0.111,0.037s0.131-0.023,0.242-0.074
			c0.112-0.05,0.181-0.074,0.205-0.074c0.074-0.024,0.188-0.037,0.336-0.037c0.149,0,0.298,0.024,0.447,0.075
			c0.05,0,0.118-0.014,0.205-0.038s0.168-0.043,0.243-0.057c0.074-0.012,0.147-0.019,0.224-0.019c0.024,0,0.063,0.013,0.111,0.037
			h0.075c0.049,0,0.124-0.013,0.224-0.037c0.099-0.024,0.187-0.037,0.261-0.037l0.149,0.037c0.1,0,0.229-0.014,0.392-0.037
			c0.163-0.024,0.28-0.037,0.354-0.037h0.111L53.416,11.558z"/>
	</g>
	<g>
		<path fill="#231F20" d="M10.073,33.918l0.193,0.049c0.421,0,0.664,0.017,0.729,0.048c0.031,0,0.049,0.033,0.049,0.098l0.049,0.05
			h0.194c0.292,0,0.454,0.064,0.485,0.193h0.194l0.146,0.194c0.162,0,0.275,0.049,0.342,0.146c0.03-0.031,0.063-0.031,0.097,0
			c0.064,0.032,0.113,0.05,0.146,0.05c0.063,0.291,0.259,0.519,0.582,0.681c0,0.065-0.017,0.114-0.049,0.146v0.049
			c0.261,0.193,0.391,0.39,0.391,0.584c0.098,0.031,0.17,0.146,0.219,0.34c0.049,0.195,0.089,0.309,0.122,0.341
			c-0.065,0.194-0.082,0.357-0.049,0.486c0,0.033,0.049,0.049,0.146,0.049c0,0.26-0.017,0.422-0.049,0.486
			c0,0.064,0.032,0.098,0.098,0.098c0.064,0.064,0.113,0.113,0.146,0.146c0,0.099,0.041,0.203,0.122,0.316
			c0.08,0.114,0.138,0.203,0.17,0.268v0.292c0.063,0.131,0.098,0.211,0.098,0.243c0,0.065-0.017,0.146-0.049,0.243
			s-0.049,0.162-0.049,0.194s0.017,0.081,0.049,0.146l0.194,0.292c-0.032,0.229-0.048,0.553-0.048,0.974
			c0,0.486,0.03,0.859,0.097,1.118c-0.065,0.131-0.114,0.212-0.146,0.243c0,0.163,0.017,0.365,0.05,0.608
			c0.03,0.243,0.048,0.413,0.048,0.511c0,0.13-0.018,0.243-0.048,0.34c0.03,0.065,0.048,0.212,0.048,0.438v0.875
			c0,0.193-0.048,0.324-0.146,0.39v0.146c0,0.064-0.017,0.179-0.049,0.341s-0.049,0.274-0.049,0.34v0.195
			c0.13-0.065,0.284-0.221,0.462-0.463c0.179-0.243,0.316-0.396,0.414-0.462c0-0.031,0.016-0.072,0.049-0.121
			c0.031-0.05,0.048-0.105,0.048-0.171c0.292-0.194,0.52-0.471,0.683-0.826c0.129-0.099,0.404-0.373,0.826-0.827
			s0.794-0.762,1.118-0.924c0.551-0.487,1.07-0.73,1.558-0.73c0.519,0,0.777,0.229,0.777,0.683l-0.146,0.875l0.049,0.049
			c0.032,0.032,0.049,0.064,0.049,0.098c0,0.097-0.081,0.227-0.243,0.389c-0.356,0.876-0.681,1.429-0.973,1.654
			c0,0.032-0.017,0.09-0.049,0.17c-0.032,0.081-0.032,0.154,0,0.219c-0.454,0.455-0.764,0.827-0.924,1.119
			c-0.033,0.032-0.082,0.049-0.146,0.049c0,0.261-0.097,0.405-0.292,0.438c-0.097,0.357-0.309,0.616-0.632,0.778
			c-0.033,0.26-0.194,0.543-0.486,0.851c-0.292,0.309-0.471,0.56-0.535,0.754c-0.098,0.292-0.13,0.455-0.098,0.487
			c0.098,0.032,0.228,0.097,0.39,0.193c0.162,0.098,0.292,0.162,0.39,0.194v0.194c0.292,0.033,0.47,0.243,0.535,0.633
			c0.031,0.032,0.081,0.049,0.146,0.049c0.064,0.032,0.097,0.064,0.097,0.097c0,0.099,0.064,0.203,0.194,0.316
			c0.13,0.114,0.195,0.219,0.195,0.316h0.193c-0.032,0.097-0.009,0.187,0.073,0.268c0.08,0.081,0.121,0.138,0.121,0.17
			c0.064,0.065,0.129,0.099,0.194,0.099c0.098,0.323,0.26,0.552,0.485,0.681v0.049c0.032,0.032,0.05,0.065,0.05,0.097
			c0.13,0.065,0.274,0.212,0.438,0.438c0.161,0.227,0.308,0.373,0.438,0.438c0.031,0.098,0.089,0.203,0.17,0.316
			s0.138,0.202,0.17,0.268c0.032,0.032,0.081,0.064,0.146,0.098s0.113,0.064,0.146,0.098v0.146c0,0.064,0.032,0.139,0.098,0.219
			c0.064,0.082,0.098,0.139,0.098,0.171c0,0.065,0.049,0.13,0.146,0.194s0.162,0.13,0.194,0.193c0.063,0.033,0.138,0.09,0.219,0.17
			c0.081,0.082,0.138,0.14,0.171,0.171c0.161,0.39,0.243,0.682,0.243,0.875c0,0.131-0.018,0.229-0.049,0.292
			c0,0.033,0.023,0.065,0.072,0.099c0.049,0.032,0.072,0.081,0.072,0.146c-0.032,0.163-0.13,0.342-0.292,0.535
			c-0.162,0.194-0.243,0.373-0.243,0.535c-0.097,0.098-0.284,0.228-0.559,0.389c-0.276,0.163-0.463,0.292-0.561,0.391h-0.098
			c-0.13,0-0.309,0.081-0.535,0.243c-0.064,0.031-0.422,0.08-1.068,0.146c-0.065-0.031-0.195-0.097-0.391-0.194
			c-0.193-0.097-0.333-0.17-0.413-0.219c-0.082-0.049-0.179-0.138-0.292-0.268c-0.113-0.129-0.188-0.275-0.219-0.438l-0.194-0.146
			c0-0.031-0.023-0.08-0.072-0.146c-0.05-0.063-0.073-0.129-0.073-0.193c-0.098-0.064-0.203-0.172-0.316-0.316
			c-0.112-0.146-0.187-0.235-0.219-0.269c-0.065,0-0.097-0.016-0.097-0.049c-0.065-0.063-0.13-0.162-0.195-0.292l-0.194-0.193
			c-0.031-0.064-0.081-0.162-0.146-0.292c-0.065-0.129-0.13-0.228-0.195-0.292c-0.032-0.031-0.097-0.064-0.193-0.098
			c-0.098-0.031-0.162-0.063-0.194-0.098c-0.032,0-0.073-0.031-0.122-0.097c-0.048-0.065-0.089-0.099-0.121-0.099l-0.729-0.729
			c-0.033-0.032-0.05-0.064-0.05-0.099c0-0.03-0.017-0.063-0.049-0.097l-0.049-0.049c-0.065,0-0.13-0.049-0.194-0.146
			c-0.064-0.097-0.146-0.146-0.242-0.146c-0.032,0.032-0.05,0.081-0.05,0.146c0,0.065,0.05,0.195,0.146,0.391
			c0,0.032-0.018,0.081-0.049,0.146c0,0.033,0.023,0.099,0.072,0.194c0.049,0.098,0.072,0.179,0.072,0.244
			c-0.032,0.063-0.097,0.146-0.193,0.243c0.063,0.13,0.098,0.242,0.098,0.34c0,0.26-0.146,0.567-0.438,0.925
			c-0.031,0.032-0.031,0.057,0,0.072c0.032,0.017,0.05,0.041,0.05,0.072c-0.065,0.032-0.131,0.146-0.194,0.342
			c-0.032,0-0.057,0.023-0.073,0.071c-0.017,0.05-0.057,0.073-0.121,0.073c0,0.065-0.049,0.146-0.146,0.243
			c-0.098,0.098-0.146,0.194-0.146,0.292v0.098c-0.098,0-0.179,0.065-0.243,0.194c-0.032,0-0.081,0-0.146,0
			c-0.032,0-0.048,0.017-0.048,0.049c-0.033,0.032-0.049,0.065-0.049,0.097c0,0.033-0.018,0.065-0.05,0.099l-0.292,0.146
			c-0.162,0-0.315,0.065-0.462,0.195c-0.146,0.13-0.234,0.194-0.268,0.194h-0.049c-0.065-0.032-0.113-0.049-0.146-0.049
			c-0.39,0-0.601-0.017-0.633-0.05c-0.032,0-0.081,0.01-0.146,0.024c-0.064,0.017-0.113,0.023-0.146,0.023
			c-0.292-0.063-0.487-0.146-0.584-0.242c-0.973-0.099-1.477-0.146-1.508-0.146c-0.099-0.097-0.146-0.161-0.146-0.194
			c-0.032-0.03-0.064-0.03-0.097,0c-0.033,0.033-0.065,0.05-0.098,0.05l-0.342-0.194c-0.031-0.032-0.112-0.098-0.242-0.194
			c-0.131-0.098-0.228-0.179-0.291-0.242c-0.065-0.099-0.132-0.261-0.195-0.487c-0.065-0.227-0.13-0.39-0.194-0.486v-0.097
			c0-0.064-0.017-0.146-0.049-0.243c-0.032-0.098-0.049-0.162-0.049-0.194c0-0.064,0-0.179,0-0.341s-0.018-0.292-0.048-0.39
			c-0.099-0.682-0.146-1.361-0.146-2.043v-0.632c0.064-0.194,0.099-0.391,0.099-0.584c-0.065-0.064-0.099-0.13-0.099-0.194
			c-0.032-0.129-0.041-0.324-0.023-0.584c0.017-0.259,0.023-0.438,0.023-0.535c0-0.031-0.023-0.04-0.071-0.022
			c-0.05,0.017-0.091,0.022-0.122,0.022c0-0.063,0.031-0.113,0.098-0.146c0.063-0.032,0.097-0.064,0.097-0.099
			c-0.064-1.102-0.017-1.978,0.146-2.626c-0.065-0.26-0.099-0.454-0.099-0.584c0-0.098,0.017-0.274,0.05-0.535
			c0.031-0.259,0.031-0.47,0-0.632c0.031-0.032,0.049-0.13,0.049-0.292c0-0.063-0.018-0.219-0.049-0.462
			c-0.033-0.243-0.033-0.414,0-0.511c0-0.032,0-0.065,0-0.099l0.049-0.098c0-0.097-0.018-0.259-0.049-0.486
			c-0.033-0.227-0.05-0.404-0.05-0.534V44.43c0.064-0.129,0.099-0.226,0.099-0.291c0.031-0.13,0.031-0.315,0-0.56
			c-0.033-0.243-0.033-0.414,0-0.512c0-0.031,0.048-0.098,0.146-0.193c-0.13-0.099-0.162-0.26-0.098-0.487
			c0.064-0.226,0.064-0.372,0-0.438c0-0.13,0.049-0.243,0.146-0.341l-0.146-0.292c0.064-0.227,0.104-0.584,0.122-1.069
			c0.016-0.486,0.04-0.812,0.073-0.974c0.097-0.584,0.146-0.892,0.146-0.925v-0.146l0.146-0.292v-0.292
			c0-0.26,0.016-0.453,0.048-0.583c0.032-0.099,0.049-0.228,0.049-0.391v-0.924c0-0.032,0.032-0.146,0.098-0.341
			c0.064-0.194,0.098-0.341,0.098-0.438l-0.049-0.193c0.228-0.552,0.745-0.827,1.557-0.827c0.032,0,0.073,0.023,0.122,0.073
			c0.049,0.048,0.104,0.057,0.17,0.022C9.294,33.951,9.749,33.918,10.073,33.918z"/>
		<path fill="#231F20" d="M25.93,35.037h0.292l0.292,0.146c0.323,0,0.502,0.018,0.535,0.049c0.063-0.031,0.178-0.049,0.34-0.049
			c0.098,0,0.269,0.032,0.511,0.098c0.243,0.064,0.431,0.098,0.561,0.098c0.098,0.064,0.251,0.146,0.462,0.243
			s0.372,0.179,0.486,0.243c0.112,0.064,0.227,0.179,0.341,0.341c0.112,0.162,0.187,0.34,0.219,0.535
			c0.032,0.064,0.098,0.13,0.194,0.193c0.098,0.065,0.162,0.114,0.193,0.146c0.032,0.032,0.058,0.105,0.073,0.22
			s0.024,0.187,0.024,0.219s0.016,0.065,0.049,0.098l0.049,0.098v0.292c0,0.032,0.04,0.104,0.121,0.219s0.122,0.203,0.122,0.269
			c0,0.064,0.008,0.146,0.023,0.242c0.017,0.098,0.04,0.18,0.072,0.243c0,0.065,0.018,0.146,0.049,0.243
			c0.032,0.097,0.049,0.162,0.049,0.194v0.146c0,0.065-0.009,0.154-0.023,0.269c-0.018,0.112-0.024,0.187-0.024,0.219
			s0.032,0.081,0.099,0.146c0,0.065,0.016,0.188,0.049,0.365c0.031,0.18,0.048,0.315,0.048,0.413
			c0.065,0.229,0.081,0.406,0.049,0.535c0,0.065-0.008,0.17-0.023,0.316c-0.018,0.146-0.024,0.268-0.024,0.363v0.194
			c0.065,0.39,0.098,0.665,0.098,0.827c0,0.193-0.031,0.341-0.098,0.438c0,0.033,0.017,0.082,0.049,0.146s0.049,0.13,0.049,0.193
			c0,0.033-0.009,0.073-0.023,0.122c-0.018,0.049-0.024,0.091-0.024,0.121l0.049,0.099c0,0.031,0,0.064,0,0.097v0.049
			c-0.031,0.033-0.049,0.065-0.049,0.099c0,0.032,0.008,0.104,0.024,0.219c0.016,0.114,0.023,0.203,0.023,0.268l0.05,0.099
			c0.031,0.063,0.049,0.112,0.049,0.146c0,0.065-0.018,0.163-0.049,0.292c-0.065,0.065-0.099,0.13-0.099,0.194
			c0,0.033,0.008,0.113,0.024,0.243c0.016,0.13,0.023,0.228,0.023,0.292c-0.031,0.064-0.049,0.113-0.049,0.146
			c0,0.033,0,0.114,0,0.243c0,0.13-0.032,0.195-0.097,0.195c0.097,0.161,0.146,0.309,0.146,0.438c0,0.032-0.009,0.105-0.023,0.219
			c-0.018,0.114-0.024,0.203-0.024,0.269c-0.064,0.064-0.097,0.13-0.097,0.193c-0.065,0.876-0.13,1.348-0.195,1.411
			c0.099,0.292,0.146,0.616,0.146,0.974c0,0.26-0.033,0.454-0.099,0.584c0.064,0.26,0.099,0.47,0.099,0.632
			c0,0.163-0.033,0.275-0.099,0.341c0.032,0.065,0.058,0.194,0.073,0.389s0.024,0.324,0.024,0.391l-0.146,0.146
			c0.032,0.065,0.049,0.163,0.049,0.292c0,0.13-0.017,0.292-0.049,0.486s-0.048,0.341-0.048,0.438v0.195
			c-0.098,0.162-0.163,0.26-0.195,0.291c0,0.292-0.017,0.455-0.048,0.486v0.292c0,0.356-0.082,0.729-0.244,1.119l0.049,0.826
			c0,0.454-0.13,0.729-0.389,0.826c0.031,0.033,0.049,0.082,0.049,0.146s-0.032,0.146-0.098,0.243
			c-0.065,0.097-0.098,0.179-0.098,0.242c-0.065,0.065-0.211,0.203-0.438,0.413c-0.228,0.212-0.422,0.35-0.584,0.414l-0.194,0.048
			c-0.389,0.229-0.615,0.342-0.681,0.342c-0.812,0-1.346-0.032-1.604-0.099c-0.032,0-0.114-0.03-0.243-0.097
			c-0.13-0.064-0.229-0.113-0.292-0.146c-0.032,0-0.113-0.063-0.243-0.193c-0.454-0.098-0.778-0.309-0.973-0.632
			c-0.162-0.032-0.316-0.139-0.463-0.316c-0.146-0.178-0.234-0.283-0.268-0.316c-0.032-0.129-0.114-0.308-0.243-0.534
			c-0.13-0.228-0.211-0.405-0.243-0.535c-0.032-0.064-0.057-0.153-0.072-0.269c-0.018-0.112-0.024-0.202-0.024-0.268
			c-0.065-0.194-0.097-0.34-0.097-0.438v-0.583c0-0.098-0.033-0.3-0.099-0.607c-0.064-0.309-0.113-0.575-0.146-0.803
			c-0.033-0.228-0.049-0.566-0.049-1.021c-0.033-0.129-0.049-0.323-0.049-0.584c0-0.194,0.031-0.323,0.098-0.389
			c-0.065-0.064-0.098-0.194-0.098-0.391c0-0.063,0.016-0.193,0.049-0.389c0.03-0.194,0.049-0.341,0.049-0.438v-0.341
			c0-0.292,0.048-0.485,0.146-0.584c0-0.03-0.023-0.063-0.072-0.097c-0.049-0.032-0.072-0.081-0.072-0.146
			c0-0.063,0.007-0.129,0.023-0.193s0.023-0.129,0.023-0.194V48.66c0-0.486,0.032-0.859,0.098-1.119
			c-0.031-0.064-0.049-0.179-0.049-0.341c0-0.13,0.032-0.323,0.099-0.583c0.063-0.261,0.097-0.422,0.097-0.486v-0.101
			c-0.032-0.064-0.048-0.113-0.048-0.146l0.048-0.098c0-0.032,0-0.064,0-0.099c0-0.129,0-0.34,0-0.632s0.017-0.502,0.049-0.633
			c0.064-0.453,0.098-0.794,0.098-1.021c0-0.03,0.032-0.079,0.099-0.146c0-0.064-0.019-0.113-0.049-0.146
			c-0.033-0.031-0.05-0.081-0.05-0.146l0.146-1.118v-0.049L23.5,41.699c0-0.098,0.03-0.22,0.097-0.364
			c0.064-0.146,0.098-0.251,0.098-0.316c0-0.098,0.009-0.283,0.024-0.56c0.016-0.275,0.04-0.462,0.072-0.561l0.146-0.242
			c0.064-0.486,0.162-0.778,0.292-0.875c0-0.032-0.017-0.064-0.049-0.099c-0.033-0.032-0.049-0.08-0.049-0.146
			c0.063-0.195,0.098-0.324,0.098-0.391v-0.584c0-0.063,0.031-0.178,0.098-0.34c0.063-0.162,0.098-0.274,0.098-0.341
			c0-0.227-0.033-0.535-0.098-0.924c0.063-0.064,0.112-0.178,0.146-0.341c0.031-0.162,0.064-0.26,0.097-0.292
			C24.86,35.134,25.314,35.037,25.93,35.037z"/>
		<path fill="#231F20" d="M39.453,35.524c0.551,0,0.956,0.018,1.216,0.049c0.777,0.064,1.184,0.13,1.216,0.194
			c0.356,0.032,0.907,0.13,1.654,0.291l0.924,0.292c0.292,0.13,0.47,0.212,0.535,0.243c0.098,0.065,0.202,0.122,0.315,0.171
			c0.113,0.048,0.22,0.089,0.315,0.121c0.195,0.13,0.355,0.292,0.487,0.486c0.063,0,0.137,0.032,0.219,0.098
			c0.08,0.065,0.138,0.097,0.17,0.097c0.032,0.099,0.138,0.236,0.315,0.414c0.179,0.18,0.283,0.333,0.316,0.462
			c0.226,0.194,0.34,0.503,0.34,0.925c0,0.162-0.017,0.292-0.049,0.39c-0.032,0.324-0.26,0.601-0.681,0.827
			c-0.032,0.032-0.081,0.081-0.146,0.146l-0.146,0.049c-0.032,0-0.098-0.017-0.194-0.049c-0.097-0.031-0.163-0.049-0.194-0.049
			c-0.39-0.063-0.682-0.129-0.876-0.194c-0.064-0.031-0.162-0.08-0.292-0.146s-0.227-0.098-0.292-0.098h-0.243
			c-0.097,0-0.251-0.009-0.462-0.024s-0.363-0.024-0.462-0.024c-0.064,0-0.162,0.018-0.292,0.05
			c-0.13,0.031-0.227,0.049-0.292,0.049l-0.193-0.049c-0.065,0-0.154,0.031-0.269,0.098c-0.114,0.064-0.219,0.113-0.315,0.146
			c-0.228,0.229-0.39,0.357-0.486,0.39c0,0.098-0.113,0.292-0.34,0.584c-0.065,0.13-0.163,0.211-0.292,0.243
			c0,0.13-0.058,0.364-0.17,0.705c-0.114,0.341-0.171,0.625-0.171,0.852c0,0.194,0.017,0.341,0.049,0.438
			c0.129,0.39,0.372,0.648,0.729,0.777c0.064,0,0.146,0,0.243,0c0.098,0,0.202,0,0.316,0c0.112,0,0.202,0,0.268,0
			c0.356,0,1.021,0.114,1.994,0.341c0.032,0.032,0.081,0.018,0.146-0.049c0.032,0.033,0.275,0.146,0.73,0.341l0.194,0.098
			c0.03,0,0.063,0.017,0.097,0.049c0.032,0.033,0.065,0.049,0.098,0.049c0.032,0.032,0.113,0.09,0.243,0.17
			c0.129,0.082,0.243,0.139,0.341,0.171l0.146,0.34c0.098,0.033,0.178,0.105,0.243,0.22c0.063,0.113,0.112,0.188,0.146,0.22
			c0.031,0.032,0.098,0.081,0.194,0.146c0.097,0.065,0.162,0.131,0.194,0.194c0,0.033,0.008,0.073,0.023,0.122
			s0.024,0.09,0.024,0.121c0.614,0.455,1.005,0.973,1.167,1.557c0.454,0.974,0.682,1.524,0.682,1.654
			c0.064,0.065,0.161,0.194,0.291,0.389c-0.032,0.065-0.048,0.146-0.048,0.243c0,0.099,0,0.163,0,0.194l0.097,0.098
			c0.032,0.032,0.064,0.081,0.099,0.146c0,0.032,0,0.098,0,0.194c0,0.098,0.016,0.18,0.049,0.243
			c0.063,0.26,0.097,0.405,0.097,0.438c0,0.098-0.065,0.193-0.194,0.292c0.032,0.032,0.05,0.081,0.05,0.146
			c0,0.033-0.018,0.105-0.05,0.219c-0.031,0.114-0.031,0.203,0,0.269c-0.064,0.033-0.121,0.122-0.17,0.268
			c-0.049,0.146-0.104,0.236-0.171,0.269c0.099,0.163,0.146,0.325,0.146,0.485c0,0.261-0.081,0.504-0.243,0.729
			c0,0.033-0.033,0.065-0.098,0.098c-0.065,0.032-0.114,0.065-0.146,0.099c-0.033,0.13-0.104,0.291-0.219,0.485
			s-0.188,0.356-0.221,0.486c-0.031,0-0.089,0.024-0.17,0.073c-0.081,0.048-0.153,0.071-0.219,0.071
			c-0.032,0.099-0.098,0.213-0.194,0.342c-0.098,0.13-0.162,0.228-0.193,0.292c-0.033,0-0.073,0.017-0.122,0.049
			s-0.09,0.063-0.121,0.097c-0.033,0.033-0.065,0.049-0.098,0.049v0.243c-0.033,0.032-0.065,0.081-0.099,0.146
			c-0.031,0.064-0.064,0.113-0.097,0.146c-0.033,0.032-0.065,0.049-0.098,0.049c-0.065,0-0.099,0.018-0.099,0.049l-0.048,0.098
			c-0.033,0.064-0.064,0.114-0.098,0.146c-0.065,0-0.114,0.018-0.146,0.049c-0.064,0.032-0.13,0.098-0.194,0.194
			c-0.065,0.098-0.121,0.17-0.17,0.219c-0.05,0.049-0.121,0.105-0.22,0.171c-0.098,0.064-0.193,0.098-0.292,0.098
			c-0.032,0.064-0.113,0.13-0.243,0.194s-0.211,0.113-0.242,0.146c-0.033,0-0.099,0.009-0.194,0.024
			c-0.098,0.017-0.179,0.023-0.243,0.023c-0.26,0.13-0.422,0.194-0.486,0.194s-0.13-0.031-0.194-0.097
			c-0.324,0.064-0.553,0.179-0.682,0.34c-0.064,0-0.139,0.009-0.219,0.023c-0.081,0.018-0.139,0.024-0.17,0.024
			c-0.064,0.033-0.179,0.049-0.341,0.049c-0.033,0-0.114,0.049-0.243,0.146c-0.13,0.098-0.228,0.146-0.292,0.146
			c-0.065,0-0.146-0.049-0.243-0.146c-0.13,0.032-0.471,0.049-1.021,0.049c-0.229,0-0.39,0.017-0.486,0.049
			c-0.13,0-0.211-0.017-0.243-0.049c-0.064,0.032-0.17,0.058-0.315,0.072c-0.146,0.018-0.251,0.058-0.316,0.121
			c-0.097-0.03-0.227-0.048-0.389-0.048c-0.099,0-0.243,0.008-0.438,0.024c-0.194,0.017-0.325,0.022-0.39,0.022
			c-0.097,0-0.251-0.03-0.462-0.097c-0.211-0.064-0.382-0.113-0.512-0.146h-0.146l-0.049-0.048c-0.033,0-0.065,0-0.099,0h-0.097
			c-0.098,0-0.243-0.031-0.438-0.098c-0.194-0.064-0.341-0.098-0.438-0.098c-0.584-0.098-0.924-0.179-1.021-0.243l-0.146-0.146
			c-0.228-0.031-0.504-0.274-0.827-0.729c-0.163-0.421-0.26-0.746-0.292-0.974v-0.633l-0.049-0.098l0.049-0.048
			c0-0.032,0-0.064,0-0.099c0-0.161-0.017-0.274-0.049-0.341c0.39-0.551,0.827-0.907,1.313-1.068c0.031,0,0.112-0.009,0.242-0.024
			c0.129-0.017,0.228-0.041,0.292-0.073h0.146c0.032,0,0.113-0.008,0.243-0.023c0.13-0.017,0.227-0.024,0.292-0.024
			c0.098,0,0.178,0.017,0.243,0.049c0.194-0.063,0.373-0.098,0.534-0.098c0.194,0,0.356,0.033,0.486,0.098
			c0.098-0.032,0.341-0.049,0.729-0.049h0.194c0.031,0,0.104-0.016,0.22-0.049c0.112-0.031,0.201-0.048,0.268-0.048h0.243
			c0.129,0,0.233-0.049,0.314-0.146c0.081-0.097,0.139-0.162,0.171-0.193c0.031-0.032,0.09-0.073,0.171-0.122
			c0.08-0.048,0.138-0.089,0.17-0.121c0.39-0.974,0.584-1.558,0.584-1.751c0-0.162-0.032-0.261-0.098-0.292
			c0.064-0.584-0.228-1.266-0.876-2.043c-0.098-0.064-0.26-0.179-0.485-0.341c-0.229-0.161-0.391-0.274-0.486-0.341
			c-0.065,0-0.114-0.008-0.146-0.023c-0.031-0.017-0.081-0.024-0.146-0.024c-0.065-0.098-0.163-0.146-0.292-0.146
			c-0.065-0.129-0.162-0.179-0.292-0.146c-0.032-0.098-0.194-0.211-0.486-0.341c-0.389-0.323-0.696-0.535-0.924-0.632
			c-0.033-0.032-0.049-0.081-0.049-0.146c-0.098-0.03-0.219-0.104-0.365-0.219c-0.146-0.113-0.251-0.186-0.314-0.219v-0.098
			c-0.033-0.031-0.05-0.064-0.05-0.098c-0.098-0.098-0.26-0.234-0.485-0.413c-0.229-0.179-0.391-0.3-0.486-0.365
			c-0.064-0.161-0.325-0.502-0.778-1.021c-0.098-0.194-0.163-0.292-0.193-0.292v-0.194c-0.163-0.162-0.243-0.274-0.243-0.341v-0.146
			c0-0.032-0.033-0.139-0.098-0.316c-0.065-0.178-0.099-0.3-0.099-0.364c-0.324-0.682-0.519-1.103-0.583-1.265
			c-0.064-0.195-0.098-0.341-0.098-0.438c0-0.063,0.032-0.161,0.098-0.292c-0.033-0.097-0.049-0.242-0.049-0.438
			c0-0.453,0.08-0.843,0.243-1.167c0-0.162,0.063-0.341,0.194-0.535v-0.194c0.063-0.161,0.187-0.355,0.364-0.584
			c0.179-0.227,0.299-0.421,0.364-0.584c0.26-0.259,0.405-0.47,0.438-0.632c0.031,0,0.146-0.098,0.341-0.292
			c0.031-0.032,0.112-0.098,0.243-0.193c0.129-0.099,0.227-0.179,0.292-0.243h0.049c0.032-0.032,0.063-0.049,0.097-0.049
			c0.065-0.064,0.195-0.146,0.39-0.243c0.194-0.099,0.323-0.179,0.39-0.243c0.13-0.032,0.324-0.105,0.584-0.219
			c0.259-0.113,0.47-0.188,0.633-0.221c0.064-0.097,0.194-0.146,0.389-0.146H37.6c0.064-0.032,0.146-0.064,0.243-0.099
			c0.098-0.03,0.162-0.063,0.194-0.097h0.194l0.438-0.146C38.803,35.541,39.063,35.524,39.453,35.524z"/>
		<path fill="#231F20" d="M57.595,35.524c0.551,0,0.956,0.018,1.216,0.049c0.778,0.064,1.185,0.13,1.216,0.194
			c0.356,0.032,0.907,0.13,1.654,0.291l0.924,0.292c0.292,0.13,0.471,0.212,0.535,0.243c0.098,0.065,0.202,0.122,0.316,0.171
			c0.112,0.048,0.219,0.089,0.314,0.121c0.195,0.13,0.356,0.292,0.487,0.486c0.063,0,0.137,0.032,0.219,0.098
			c0.08,0.065,0.139,0.097,0.17,0.097c0.032,0.099,0.139,0.236,0.316,0.414c0.178,0.18,0.283,0.333,0.315,0.462
			c0.227,0.194,0.341,0.503,0.341,0.925c0,0.162-0.018,0.292-0.05,0.39c-0.031,0.324-0.26,0.601-0.681,0.827
			c-0.032,0.032-0.081,0.081-0.146,0.146l-0.146,0.049c-0.032,0-0.097-0.017-0.194-0.049c-0.097-0.031-0.162-0.049-0.193-0.049
			c-0.391-0.063-0.683-0.129-0.876-0.194c-0.065-0.031-0.162-0.08-0.292-0.146s-0.228-0.098-0.292-0.098h-0.243
			c-0.097,0-0.251-0.009-0.462-0.024s-0.364-0.024-0.462-0.024c-0.065,0-0.162,0.018-0.292,0.05c-0.13,0.031-0.226,0.048-0.29,0.048
			l-0.194-0.049c-0.064,0-0.154,0.031-0.268,0.098c-0.114,0.063-0.22,0.113-0.316,0.146c-0.227,0.229-0.389,0.357-0.486,0.39
			c0,0.098-0.112,0.292-0.34,0.584c-0.064,0.13-0.163,0.211-0.292,0.243c0,0.13-0.057,0.364-0.17,0.705
			c-0.114,0.341-0.171,0.625-0.171,0.852c0,0.194,0.017,0.341,0.049,0.438c0.129,0.39,0.372,0.648,0.729,0.777
			c0.063,0,0.146,0,0.243,0s0.201,0,0.315,0c0.113,0,0.202,0,0.269,0c0.355,0,1.021,0.114,1.993,0.341
			c0.032,0.032,0.081,0.018,0.146-0.049c0.032,0.033,0.275,0.146,0.729,0.341l0.194,0.098c0.031,0,0.064,0.017,0.097,0.049
			c0.032,0.033,0.065,0.049,0.099,0.049c0.032,0.032,0.113,0.09,0.243,0.17c0.129,0.082,0.242,0.139,0.341,0.171l0.146,0.34
			c0.099,0.033,0.179,0.105,0.243,0.22c0.064,0.113,0.113,0.188,0.146,0.22c0.03,0.032,0.097,0.081,0.193,0.146
			c0.098,0.065,0.162,0.131,0.194,0.194c0,0.033,0.008,0.073,0.024,0.122c0.016,0.049,0.023,0.09,0.023,0.121
			c0.615,0.455,1.005,0.973,1.167,1.557c0.454,0.974,0.683,1.524,0.683,1.654c0.063,0.065,0.16,0.194,0.29,0.389
			c-0.031,0.065-0.048,0.146-0.048,0.243c0,0.099,0,0.163,0,0.194l0.098,0.098c0.031,0.032,0.063,0.081,0.098,0.146
			c0,0.032,0,0.098,0,0.194c0,0.098,0.016,0.18,0.049,0.243c0.064,0.26,0.098,0.405,0.098,0.438c0,0.098-0.065,0.193-0.194,0.292
			c0.032,0.031,0.049,0.081,0.049,0.146c0,0.033-0.017,0.105-0.049,0.219c-0.032,0.114-0.032,0.203,0,0.269
			c-0.065,0.033-0.121,0.122-0.17,0.268c-0.049,0.146-0.105,0.236-0.171,0.269c0.098,0.163,0.146,0.325,0.146,0.485
			c0,0.261-0.081,0.504-0.243,0.729c0,0.033-0.032,0.064-0.098,0.098c-0.065,0.032-0.114,0.065-0.146,0.099
			c-0.033,0.13-0.105,0.291-0.22,0.485c-0.113,0.194-0.188,0.356-0.22,0.486c-0.032,0-0.089,0.024-0.17,0.073
			c-0.081,0.048-0.154,0.071-0.219,0.071c-0.032,0.099-0.099,0.213-0.194,0.342c-0.098,0.13-0.163,0.228-0.194,0.292
			c-0.032,0-0.072,0.017-0.122,0.049c-0.049,0.032-0.09,0.063-0.121,0.097c-0.032,0.033-0.064,0.049-0.098,0.049v0.243
			c-0.033,0.032-0.064,0.081-0.098,0.146c-0.032,0.064-0.065,0.113-0.098,0.146s-0.064,0.049-0.098,0.049
			c-0.064,0-0.098,0.018-0.098,0.048l-0.048,0.099c-0.033,0.064-0.065,0.114-0.099,0.146c-0.064,0-0.113,0.018-0.146,0.048
			c-0.065,0.033-0.13,0.099-0.195,0.195c-0.064,0.097-0.121,0.17-0.17,0.219s-0.121,0.105-0.219,0.171
			c-0.099,0.064-0.194,0.098-0.292,0.098c-0.032,0.064-0.114,0.13-0.243,0.194c-0.13,0.064-0.211,0.113-0.243,0.146
			c-0.033,0-0.098,0.009-0.194,0.024c-0.098,0.017-0.179,0.023-0.242,0.023c-0.261,0.13-0.423,0.194-0.486,0.194
			c-0.065,0-0.13-0.031-0.195-0.098c-0.324,0.065-0.552,0.18-0.681,0.341c-0.065,0-0.139,0.009-0.219,0.023
			c-0.081,0.018-0.14,0.024-0.17,0.024c-0.065,0.033-0.18,0.049-0.342,0.049c-0.032,0-0.113,0.049-0.242,0.146
			c-0.131,0.099-0.229,0.146-0.292,0.146c-0.065,0-0.146-0.049-0.243-0.146c-0.13,0.033-0.472,0.05-1.021,0.05
			c-0.228,0-0.389,0.017-0.485,0.049c-0.131,0-0.212-0.017-0.243-0.049c-0.065,0.032-0.17,0.058-0.316,0.072
			c-0.146,0.018-0.251,0.058-0.315,0.121c-0.098-0.03-0.228-0.048-0.39-0.048c-0.098,0-0.243,0.008-0.438,0.024
			c-0.195,0.017-0.325,0.022-0.391,0.022c-0.097,0-0.251-0.03-0.462-0.097c-0.211-0.064-0.382-0.113-0.511-0.146h-0.146
			l-0.049-0.048c-0.033,0-0.064,0-0.098,0h-0.097c-0.099,0-0.243-0.031-0.438-0.098c-0.194-0.064-0.34-0.098-0.438-0.098
			c-0.584-0.098-0.925-0.179-1.021-0.243l-0.146-0.146c-0.229-0.032-0.505-0.274-0.827-0.729c-0.163-0.421-0.261-0.746-0.292-0.974
			v-0.633l-0.049-0.098l0.049-0.048c0-0.032,0-0.064,0-0.099c0-0.162-0.018-0.274-0.049-0.341c0.39-0.551,0.826-0.907,1.313-1.068
			c0.032,0,0.113-0.009,0.243-0.024c0.129-0.017,0.227-0.041,0.292-0.073h0.146c0.032,0,0.113-0.008,0.243-0.023
			c0.13-0.017,0.228-0.024,0.292-0.024c0.099,0,0.179,0.017,0.243,0.049c0.195-0.063,0.373-0.098,0.535-0.098
			c0.194,0,0.355,0.033,0.486,0.098c0.098-0.032,0.341-0.049,0.729-0.049h0.195c0.03,0,0.104-0.016,0.219-0.049
			c0.113-0.031,0.202-0.048,0.268-0.048h0.243c0.129,0,0.234-0.049,0.315-0.146c0.081-0.097,0.138-0.162,0.171-0.193
			c0.031-0.032,0.089-0.073,0.17-0.122s0.138-0.09,0.17-0.121c0.39-0.974,0.584-1.558,0.584-1.751c0-0.162-0.032-0.261-0.097-0.292
			c0.063-0.584-0.229-1.266-0.876-2.043c-0.099-0.064-0.26-0.179-0.486-0.342c-0.228-0.16-0.39-0.273-0.486-0.34
			c-0.064,0-0.113-0.008-0.146-0.023c-0.032-0.017-0.081-0.024-0.146-0.024c-0.064-0.098-0.162-0.146-0.292-0.146
			c-0.064-0.129-0.161-0.179-0.292-0.146c-0.031-0.098-0.193-0.211-0.485-0.341c-0.39-0.323-0.697-0.535-0.924-0.632
			c-0.033-0.032-0.05-0.081-0.05-0.146c-0.098-0.03-0.219-0.104-0.364-0.219c-0.146-0.113-0.251-0.186-0.315-0.219v-0.098
			c-0.033-0.031-0.049-0.064-0.049-0.098c-0.098-0.098-0.26-0.235-0.486-0.413c-0.228-0.179-0.39-0.3-0.485-0.365
			c-0.065-0.161-0.325-0.502-0.778-1.021c-0.098-0.194-0.163-0.292-0.194-0.292v-0.194c-0.163-0.162-0.243-0.274-0.243-0.341v-0.146
			c0-0.032-0.032-0.139-0.098-0.316s-0.098-0.3-0.098-0.364c-0.324-0.682-0.52-1.103-0.583-1.265
			c-0.065-0.195-0.099-0.341-0.099-0.438c0-0.063,0.032-0.161,0.099-0.292c-0.033-0.097-0.049-0.242-0.049-0.438
			c0-0.453,0.079-0.843,0.242-1.167c0-0.162,0.064-0.341,0.194-0.535v-0.194c0.064-0.162,0.188-0.355,0.365-0.584
			c0.178-0.227,0.299-0.421,0.364-0.584c0.26-0.259,0.404-0.47,0.438-0.632c0.032,0,0.146-0.098,0.341-0.292
			c0.032-0.032,0.113-0.098,0.243-0.193c0.129-0.099,0.227-0.179,0.292-0.243h0.049c0.032-0.032,0.064-0.049,0.098-0.049
			c0.064-0.064,0.194-0.146,0.39-0.243c0.194-0.099,0.323-0.179,0.389-0.243c0.13-0.032,0.324-0.105,0.584-0.219
			c0.259-0.113,0.471-0.188,0.633-0.221c0.064-0.097,0.194-0.146,0.39-0.146h0.243c0.063-0.032,0.146-0.064,0.242-0.099
			c0.099-0.03,0.162-0.063,0.194-0.097h0.195l0.438-0.146C56.946,35.541,57.206,35.524,57.595,35.524z"/>
		<path fill="#231F20" d="M76.71,36.642h0.146c0.356,0,0.567,0.033,0.633,0.099c0.099-0.032,0.26-0.05,0.486-0.05
			c0.129,0,0.309,0.009,0.535,0.024c0.227,0.017,0.372,0.024,0.438,0.024c0.098,0,0.242-0.009,0.438-0.024
			c0.195-0.017,0.341-0.024,0.438-0.024c0.03,0,0.079,0.018,0.146,0.05c0.064,0.031,0.113,0.049,0.146,0.049
			c0.03,0,0.089-0.008,0.17-0.024c0.08-0.017,0.152-0.023,0.219-0.023c0.032,0,0.194,0.008,0.486,0.023
			c0.292,0.017,0.519,0.058,0.681,0.121c0.064,0,0.113-0.016,0.146-0.049h0.098c0.13,0.098,0.274,0.146,0.438,0.146h0.194
			c0.063,0,0.178-0.008,0.341-0.023c0.161-0.017,0.291-0.024,0.389-0.024h0.146c0.063,0,0.226,0.032,0.486,0.099
			c0.421,0.097,0.713,0.242,0.875,0.438c0.031,0.032,0.098,0.114,0.193,0.243c0.099,0.13,0.179,0.228,0.243,0.292
			c0.032,0.032,0.081,0.09,0.146,0.17c0.063,0.081,0.112,0.154,0.146,0.219l0.049,0.584c-0.064,0.357-0.193,0.682-0.389,0.974
			c-0.163,0.228-0.325,0.373-0.486,0.438c-0.064,0.033-0.179,0.065-0.341,0.098c-0.163,0.032-0.276,0.065-0.341,0.099
			c-0.13,0.064-0.26,0.097-0.389,0.097c-0.065,0-0.163-0.031-0.292-0.097c-0.194,0.162-0.567,0.243-1.119,0.243h-0.974
			c-0.13,0-0.356,0.008-0.681,0.023c-0.324,0.018-0.584,0.023-0.778,0.023h-0.341c-0.13-0.031-0.292-0.031-0.486,0
			c-0.097,0-0.219-0.007-0.363-0.023c-0.146-0.017-0.252-0.023-0.316-0.023s-0.154,0.008-0.268,0.023
			c-0.114,0.018-0.203,0.023-0.269,0.023c-0.064,0-0.153-0.007-0.268-0.023s-0.188-0.023-0.219-0.023
			c-0.163,0-0.276,0.031-0.342,0.097c0.032,0.065,0.05,0.163,0.05,0.292c-0.194,0.098-0.31,0.163-0.342,0.194
			c0.032,0.032,0.05,0.13,0.05,0.292l-0.05,0.292c0,0.064-0.031,0.13-0.097,0.193c-0.064,0.065-0.098,0.114-0.098,0.146
			c0.032,0.032,0.032,0.064,0,0.097l0.098,0.049c0.031,0,0.049,0.018,0.049,0.05c0.031,0.193,0.057,0.601,0.072,1.216
			c0.017,0.615,0.073,1.069,0.171,1.361c-0.098,0.261-0.163,0.423-0.195,0.486c0.032,0.065,0.081,0.097,0.146,0.097
			c0.063,0,0.097,0.019,0.097,0.05c0,0.26-0.017,0.438-0.048,0.534c0.097,0.163,0.146,0.342,0.146,0.535
			c0,0.229-0.081,0.454-0.243,0.682c0,0.064-0.009,0.139-0.024,0.219c-0.017,0.082-0.023,0.139-0.023,0.171
			c0,0.194,0.017,0.462,0.049,0.803c0.032,0.34,0.049,0.576,0.049,0.705c0,0.162-0.017,0.292-0.049,0.389
			c0.193,0.131,0.355,0.292,0.485,0.486c0.099,0,0.243-0.007,0.438-0.022c0.195-0.018,0.324-0.024,0.39-0.024
			c0.162,0,0.341,0.032,0.535,0.097c0.323-0.063,0.583-0.097,0.778-0.097l0.486,0.048c0.03,0.033,0.129,0.082,0.292,0.146
			c0.16,0.064,0.259,0.13,0.291,0.193H80.6c0.031,0.033,0.146,0.13,0.34,0.292c0.195,0.162,0.356,0.261,0.486,0.292
			c0,0.098,0.065,0.194,0.195,0.292c-0.065,0.065-0.073,0.162-0.024,0.291c0.049,0.131,0.072,0.212,0.072,0.244v0.098l-0.194,0.193
			c0,0.065-0.041,0.163-0.121,0.292c-0.082,0.13-0.122,0.243-0.122,0.341c-0.031,0.032-0.097,0.05-0.193,0.05
			c-0.033,0.13-0.114,0.292-0.243,0.485l-0.681,0.146c-0.065,0-0.163,0.017-0.292,0.049c-0.065,0.064-0.131,0.098-0.195,0.098
			c-0.097,0-0.211-0.017-0.34-0.049c-0.13-0.032-0.243-0.049-0.341-0.049L78.46,53.72h-0.146c-0.064,0-0.153-0.017-0.268-0.049
			s-0.188-0.049-0.219-0.049c-0.099,0-0.163,0.017-0.195,0.049c-0.097,0.098-0.146,0.276-0.146,0.535
			c0,0.032-0.009,0.098-0.023,0.193c-0.018,0.099-0.024,0.18-0.024,0.243c0,0.13,0.017,0.31,0.049,0.535
			c0.032,0.229,0.05,0.39,0.05,0.486v0.535c0.097,0.031,0.355,0.121,0.777,0.268c0.421,0.146,0.713,0.284,0.875,0.413
			c0.064,0,0.113-0.007,0.146-0.024c0.031-0.016,0.063-0.022,0.097-0.022c0.292,0.097,0.633,0.146,1.021,0.146
			c0.292,0,0.664-0.031,1.119-0.098c0.03,0,0.112,0.064,0.242,0.195c0.098,0,0.3-0.024,0.607-0.073s0.543-0.073,0.706-0.073
			c0.227,0,0.404,0.049,0.535,0.146c0.03-0.065,0.112-0.073,0.243-0.024c0.129,0.048,0.21,0.072,0.242,0.072h0.098
			c0.031,0.033,0.063,0.064,0.098,0.098l0.097,0.049l0.438,0.146c0.129,0.193,0.194,0.356,0.194,0.485
			c0.031,0.033,0.098,0.091,0.193,0.172c0.099,0.081,0.162,0.138,0.194,0.17c0.064,0.064,0.098,0.242,0.098,0.534
			c0,0.261-0.032,0.438-0.098,0.535l-0.146,0.098c-0.228,0.324-0.422,0.52-0.584,0.584l-0.438,0.193H84.05
			c-0.098,0-0.211,0.041-0.341,0.122s-0.228,0.121-0.291,0.121c-0.065,0-0.131-0.007-0.195-0.023s-0.113-0.023-0.146-0.023
			c-0.033,0-0.099,0.048-0.194,0.146c-0.098,0-0.236,0.049-0.414,0.146c-0.179,0.098-0.315,0.162-0.413,0.195
			c-0.064,0-0.211,0.007-0.438,0.023c-0.229,0.017-0.406,0.04-0.535,0.072c-0.26,0.064-0.521,0.098-0.778,0.098
			c-0.194,0-0.325-0.017-0.39-0.049l-0.146,0.049c-0.064,0.032-0.113,0.064-0.146,0.098c-0.064-0.032-0.162-0.048-0.291-0.048
			c-0.065,0-0.163,0.007-0.292,0.023c-0.13,0.017-0.229,0.023-0.292,0.023c-0.033,0-0.081,0-0.146,0l-0.048-0.048
			c-0.033,0-0.082,0.007-0.146,0.023c-0.065,0.016-0.113,0.023-0.146,0.023c-0.098,0.031-0.309,0.049-0.633,0.049h-0.681
			c-0.131,0.063-0.212,0.098-0.243,0.098c-0.099,0.032-0.243,0.049-0.438,0.049c-0.292,0-0.504-0.017-0.633-0.049l-0.243,0.146
			c-0.162,0-0.396,0.017-0.705,0.049s-0.544,0.049-0.705,0.049c-0.194,0-0.356-0.017-0.485-0.049
			c-0.065-0.065-0.243-0.146-0.535-0.243s-0.471-0.228-0.535-0.389c-0.065,0-0.154-0.049-0.268-0.146
			c-0.114-0.097-0.22-0.162-0.316-0.193c-0.065-0.194-0.243-0.382-0.535-0.561c-0.292-0.178-0.47-0.299-0.535-0.364
			c0-0.13-0.064-0.227-0.193-0.292c0-0.063-0.009-0.138-0.024-0.219s-0.024-0.138-0.024-0.171c-0.13-0.097-0.292-0.274-0.485-0.535
			c-0.032-0.063-0.032-0.129,0-0.194v-0.049c-0.228-0.291-0.34-0.551-0.34-0.777v-0.098c-0.099-0.162-0.18-0.47-0.243-0.925
			c-0.065-0.453-0.163-0.761-0.292-0.924V55.32c0-0.063-0.033-0.178-0.099-0.34c-0.064-0.162-0.098-0.274-0.098-0.341l0.049-0.194
			c-0.13-0.227-0.193-0.485-0.193-0.777c0-0.194-0.01-0.421-0.024-0.682c-0.017-0.26-0.041-0.552-0.073-0.876
			c-0.031-0.322-0.048-0.584-0.048-0.777v-1.167c0-0.13,0.017-0.316,0.048-0.561c0.032-0.244,0.049-0.413,0.049-0.511
			c0-0.063-0.008-0.178-0.023-0.341c-0.018-0.161-0.024-0.291-0.024-0.389c0-0.162,0.018-0.292,0.049-0.391
			c-0.031-0.031-0.031-0.048,0-0.048l0.099-0.049c-0.163-1.07-0.243-1.815-0.243-2.237c0-0.098,0.031-0.274,0.097-0.535h-0.048
			c-0.064,0-0.098-0.017-0.098-0.049c0-0.194,0.008-0.511,0.023-0.948c0.017-0.438,0.024-0.771,0.024-0.997
			c0-0.031-0.009-0.098-0.024-0.194c-0.017-0.098-0.023-0.179-0.023-0.243c0-0.129,0.049-0.243,0.146-0.34l-0.048-0.049
			c-0.064,0-0.082-0.032-0.049-0.099c0.097-0.777,0.146-1.539,0.146-2.286c0.031-0.03,0.08-0.071,0.146-0.121
			c0.064-0.049,0.113-0.089,0.146-0.121c-0.032-0.064-0.065-0.08-0.099-0.05c-0.032,0.033-0.063,0.033-0.097,0
			c0-0.193,0.049-0.413,0.146-0.655c0.099-0.243,0.162-0.413,0.195-0.512c0.031,0,0.072-0.031,0.121-0.098
			c0.049-0.064,0.104-0.097,0.17-0.097c0.065-0.13,0.227-0.284,0.486-0.462c0.26-0.18,0.422-0.332,0.486-0.464
			c0.031,0,0.26-0.048,0.682-0.146c0.193,0,0.322-0.08,0.389-0.243c0.032,0.032,0.081,0.049,0.146,0.049
			c0.063,0,0.17-0.031,0.314-0.098c0.146-0.064,0.235-0.097,0.269-0.097c0.098-0.032,0.242-0.05,0.438-0.05
			c0.194,0,0.389,0.032,0.583,0.098c0.065,0,0.154-0.017,0.269-0.048c0.113-0.032,0.219-0.058,0.315-0.073s0.194-0.024,0.292-0.024
			c0.032,0,0.08,0.018,0.146,0.049h0.098c0.063,0,0.162-0.017,0.292-0.049c0.129-0.031,0.243-0.049,0.34-0.049l0.195,0.049
			c0.129,0,0.299-0.016,0.511-0.049c0.21-0.032,0.364-0.049,0.462-0.049h0.146L76.71,36.642z"/>
		<path fill="#231F20" d="M93.686,35.524c0.551,0,0.956,0.018,1.216,0.049c0.778,0.064,1.185,0.13,1.217,0.194
			c0.355,0.032,0.906,0.13,1.653,0.291l0.924,0.292c0.292,0.13,0.471,0.212,0.535,0.243c0.099,0.065,0.202,0.122,0.316,0.171
			c0.113,0.048,0.219,0.089,0.314,0.121c0.195,0.13,0.356,0.292,0.487,0.486c0.064,0,0.137,0.032,0.219,0.098
			c0.08,0.065,0.139,0.097,0.17,0.097c0.032,0.099,0.139,0.236,0.316,0.414c0.178,0.18,0.283,0.333,0.316,0.462
			c0.226,0.194,0.34,0.503,0.34,0.925c0,0.162-0.018,0.292-0.049,0.39c-0.032,0.324-0.261,0.601-0.682,0.827
			c-0.031,0.032-0.081,0.081-0.146,0.146l-0.146,0.049c-0.031,0-0.097-0.017-0.193-0.049c-0.098-0.031-0.163-0.049-0.194-0.049
			c-0.39-0.063-0.682-0.129-0.876-0.194c-0.065-0.031-0.162-0.08-0.292-0.146s-0.228-0.098-0.292-0.098h-0.243
			c-0.097,0-0.251-0.009-0.462-0.024s-0.364-0.024-0.462-0.024c-0.065,0-0.162,0.018-0.292,0.05
			c-0.13,0.031-0.228,0.049-0.292,0.049l-0.194-0.049c-0.064,0-0.153,0.031-0.268,0.098c-0.114,0.064-0.219,0.113-0.316,0.146
			c-0.227,0.229-0.389,0.357-0.485,0.39c0,0.098-0.113,0.292-0.341,0.584c-0.064,0.13-0.163,0.211-0.292,0.243
			c0,0.13-0.057,0.364-0.17,0.705s-0.171,0.625-0.171,0.852c0,0.194,0.018,0.341,0.049,0.438c0.129,0.39,0.372,0.648,0.729,0.777
			c0.063,0,0.146,0,0.243,0s0.202,0,0.315,0s0.202,0,0.269,0c0.355,0,1.021,0.114,1.994,0.341c0.031,0.032,0.081,0.018,0.146-0.049
			c0.032,0.033,0.275,0.146,0.73,0.341l0.193,0.098c0.031,0,0.064,0.017,0.098,0.049c0.031,0.033,0.064,0.049,0.098,0.049
			c0.032,0.032,0.113,0.09,0.243,0.17c0.129,0.082,0.243,0.139,0.341,0.171l0.146,0.34c0.099,0.033,0.179,0.105,0.243,0.22
			c0.064,0.113,0.113,0.188,0.146,0.22c0.031,0.032,0.097,0.081,0.193,0.146c0.098,0.065,0.162,0.131,0.194,0.194
			c0,0.033,0.008,0.073,0.024,0.122c0.016,0.049,0.023,0.09,0.023,0.121c0.615,0.455,1.005,0.973,1.167,1.557
			c0.454,0.974,0.683,1.524,0.683,1.654c0.063,0.065,0.161,0.194,0.291,0.389c-0.032,0.065-0.048,0.146-0.048,0.243
			c0,0.099,0,0.163,0,0.194l0.097,0.098c0.032,0.032,0.063,0.081,0.098,0.146c0,0.032,0,0.098,0,0.194
			c0,0.098,0.017,0.18,0.049,0.243c0.064,0.26,0.098,0.405,0.098,0.438c0,0.098-0.065,0.193-0.194,0.292
			c0.032,0.032,0.049,0.081,0.049,0.146c0,0.033-0.017,0.105-0.049,0.219c-0.032,0.114-0.032,0.203,0,0.269
			c-0.065,0.033-0.121,0.122-0.17,0.268c-0.049,0.146-0.105,0.236-0.171,0.269c0.098,0.163,0.146,0.325,0.146,0.485
			c0,0.261-0.081,0.504-0.242,0.729c0,0.033-0.033,0.065-0.099,0.098c-0.064,0.032-0.114,0.065-0.146,0.099
			c-0.033,0.13-0.105,0.291-0.22,0.485c-0.113,0.194-0.188,0.356-0.22,0.486c-0.032,0-0.089,0.024-0.17,0.073
			c-0.081,0.048-0.154,0.071-0.219,0.071c-0.032,0.099-0.099,0.213-0.194,0.342c-0.098,0.13-0.163,0.228-0.194,0.292
			c-0.032,0-0.072,0.017-0.121,0.049c-0.05,0.032-0.091,0.063-0.121,0.097c-0.033,0.033-0.065,0.049-0.099,0.049v0.243
			c-0.032,0.032-0.064,0.081-0.098,0.146c-0.032,0.064-0.065,0.113-0.097,0.146c-0.033,0.032-0.065,0.049-0.099,0.049
			c-0.064,0-0.098,0.018-0.098,0.049l-0.048,0.098c-0.033,0.064-0.065,0.114-0.099,0.146c-0.064,0-0.113,0.018-0.146,0.049
			c-0.065,0.032-0.13,0.098-0.195,0.194c-0.064,0.098-0.121,0.17-0.17,0.219s-0.121,0.105-0.219,0.171
			c-0.098,0.064-0.194,0.098-0.292,0.098c-0.032,0.064-0.114,0.13-0.243,0.194c-0.13,0.064-0.211,0.113-0.243,0.146
			c-0.033,0-0.098,0.009-0.193,0.024c-0.099,0.017-0.18,0.023-0.243,0.023c-0.26,0.13-0.422,0.194-0.486,0.194
			s-0.13-0.031-0.195-0.097c-0.323,0.064-0.552,0.179-0.681,0.34c-0.065,0-0.139,0.009-0.219,0.023
			c-0.081,0.018-0.14,0.024-0.17,0.024c-0.065,0.033-0.18,0.049-0.341,0.049c-0.033,0-0.114,0.049-0.243,0.146
			c-0.13,0.098-0.229,0.146-0.292,0.146c-0.065,0-0.146-0.049-0.243-0.146c-0.13,0.032-0.471,0.049-1.021,0.049
			c-0.228,0-0.389,0.017-0.485,0.049c-0.13,0-0.211-0.017-0.243-0.049c-0.065,0.032-0.17,0.058-0.316,0.072
			c-0.146,0.018-0.251,0.058-0.315,0.121c-0.098-0.03-0.228-0.048-0.39-0.048c-0.098,0-0.242,0.008-0.438,0.024
			s-0.325,0.022-0.391,0.022c-0.097,0-0.251-0.03-0.462-0.097c-0.211-0.064-0.382-0.113-0.511-0.146h-0.146l-0.05-0.048
			c-0.032,0-0.064,0-0.098,0h-0.097c-0.099,0-0.243-0.031-0.438-0.098c-0.193-0.064-0.34-0.098-0.438-0.098
			c-0.584-0.098-0.924-0.179-1.021-0.243l-0.146-0.146c-0.229-0.031-0.504-0.274-0.827-0.729c-0.163-0.421-0.26-0.746-0.292-0.974
			v-0.633l-0.049-0.098l0.049-0.048c0-0.032,0-0.064,0-0.099c0-0.161-0.018-0.274-0.049-0.341c0.39-0.551,0.827-0.907,1.313-1.068
			c0.032,0,0.113-0.009,0.243-0.024c0.129-0.017,0.227-0.041,0.292-0.073h0.146c0.031,0,0.112-0.008,0.242-0.023
			c0.13-0.017,0.228-0.024,0.292-0.024c0.099,0,0.179,0.017,0.243,0.049c0.195-0.063,0.373-0.098,0.535-0.098
			c0.194,0,0.356,0.033,0.486,0.098c0.098-0.032,0.341-0.049,0.729-0.049h0.195c0.031,0,0.104-0.016,0.219-0.049
			c0.113-0.031,0.202-0.048,0.269-0.048h0.25c0.129,0,0.233-0.049,0.314-0.146c0.081-0.097,0.138-0.162,0.171-0.193
			c0.031-0.032,0.089-0.073,0.17-0.122c0.081-0.048,0.139-0.089,0.17-0.121c0.391-0.974,0.584-1.558,0.584-1.751
			c0-0.162-0.031-0.261-0.097-0.292c0.064-0.584-0.228-1.266-0.876-2.043c-0.098-0.064-0.26-0.179-0.486-0.341
			c-0.228-0.161-0.39-0.274-0.485-0.341c-0.065,0-0.114-0.008-0.146-0.023c-0.032-0.017-0.081-0.024-0.146-0.024
			c-0.065-0.098-0.163-0.146-0.292-0.146c-0.065-0.129-0.162-0.179-0.292-0.146c-0.032-0.098-0.194-0.211-0.486-0.341
			c-0.389-0.323-0.697-0.535-0.924-0.632c-0.033-0.032-0.049-0.081-0.049-0.146c-0.099-0.03-0.22-0.104-0.365-0.219
			c-0.146-0.113-0.251-0.186-0.315-0.219v-0.098c-0.032-0.031-0.049-0.064-0.049-0.098c-0.098-0.098-0.26-0.234-0.486-0.413
			c-0.228-0.179-0.39-0.3-0.485-0.365c-0.065-0.161-0.325-0.502-0.778-1.021c-0.098-0.194-0.163-0.292-0.194-0.292v-0.194
			c-0.162-0.162-0.242-0.274-0.242-0.341v-0.146c0-0.032-0.033-0.139-0.099-0.316c-0.064-0.178-0.098-0.3-0.098-0.364
			c-0.324-0.682-0.519-1.103-0.583-1.265c-0.065-0.195-0.098-0.341-0.098-0.438c0-0.063,0.031-0.161,0.098-0.292
			c-0.033-0.097-0.049-0.242-0.049-0.438c0-0.453,0.08-0.843,0.243-1.167c0-0.162,0.063-0.341,0.193-0.535v-0.194
			c0.064-0.161,0.188-0.355,0.365-0.584c0.178-0.227,0.299-0.421,0.364-0.584c0.26-0.259,0.404-0.47,0.438-0.632
			c0.032,0,0.146-0.098,0.341-0.292c0.032-0.032,0.113-0.098,0.243-0.193c0.129-0.099,0.228-0.179,0.292-0.243h0.049
			c0.032-0.032,0.064-0.049,0.098-0.049c0.064-0.064,0.194-0.146,0.39-0.243c0.194-0.099,0.323-0.179,0.39-0.243
			c0.13-0.032,0.323-0.105,0.584-0.219c0.259-0.113,0.47-0.188,0.633-0.221c0.063-0.097,0.193-0.146,0.389-0.146h0.243
			c0.063-0.032,0.146-0.064,0.243-0.099c0.098-0.03,0.162-0.063,0.193-0.097h0.195l0.438-0.146
			C93.037,35.541,93.296,35.524,93.686,35.524z"/>
	</g>
</g>
</svg>
