<?xml version="1.0" encoding="utf-8"?>
<!-- Generator: Adobe Illustrator 16.0.0, SVG Export Plug-In . SVG Version: 6.00 Build 0)  -->
<!DOCTYPE svg PUBLIC "-//W3C//DTD SVG 1.1//EN" "http://www.w3.org/Graphics/SVG/1.1/DTD/svg11.dtd">
<svg version="1.1" id="Layer_1" xmlns="http://www.w3.org/2000/svg" xmlns:xlink="http://www.w3.org/1999/xlink" x="0px" y="0px"
	 width="56.049px" height="46.065px" viewBox="0 0 56.049 46.065" enable-background="new 0 0 56.049 46.065" xml:space="preserve">
<g>
	<path fill="#FFFFFF" d="M35.582,6.187c3.58,2.812,8.604,4.893,11.461,8.535c1.33,1.694,1.145,2.741,1.913,4.468
		c1.081,2.43,1.972,3.163,3.944,5.052c3.679,3.522,2.011,4.46,0.54,8.82c-1.431,4.239-2.467,6.5-6.292,9.633
		c-7.353,6.029-12.392,2.092-20.543,2.287c-3.88,0.092-7.079,1.759-10.712-0.904c-2.835-2.078-5.809-5.01-8.305-7.474
		c-3.447-3.402-7.259-8.037-7.053-12.995c0.24-5.734,6.633-8.409,9.71-12.467c6.2-8.173,16.271-17.063,24.515-5.877L35.582,6.187z"
		/>
	<path fill="#468885" d="M40.999,27.562c2.521-1.871,4.423-4.87,7.463-5.662c1.619-0.424,6.645-0.598,7.587,0.892
		c-1.517,1.575-4.159,4.366-5.971,5.474c-3.235,1.979-4.896,0.469-8.568-0.059L40.999,27.562z"/>
	<g>
		<path fill="#77111A" d="M20.002,36.612c0.943,1.939,2.308,3.431,4.13,4.111c4.873,1.817,7.557-5.426,11.49-5.598
			c9.813-0.43,7.725-9.398,7.591-12.225c-0.024-0.495-1.085-2.033-4.46-5.293c-3.156-3.053-5.198-4.881-7.787-5.03
			c-4.771-4.545-7.046-5.827-13.832-1.808c-7.184,4.257-7.918,22.774,0.078,25.754C18.229,36.903,19.146,36.874,20.002,36.612z"/>
		<g>
			<path fill="#BE1E2D" d="M27.948,33.346c1.478,3.77,9.852-0.142,11.031-3.871c1.898-5.997-5.213-12.052-10.345-11.383
				c-6.006,0.785-7.263,5.79-2.752,9.251c1.275,0.983,2.814,3.155,4.88,0.75c2.35-2.738-2.103-3.952-3.353-1.22
				c-1.534-0.876-0.981-3.58,0.931-4.24c1.639-0.567,5.594-0.013,6.031,3.241c0.854,6.36-7.633,1.842-7.19,6.505
				C27.212,32.726,27.948,33.346,27.948,33.346z"/>
			<path fill="#BE1E2D" d="M18.764,10.972c4.21,2.342-1.47,3.439-3.026,5.619c-1.438,2.017-1.171,13.917-4.628,10.145
				C6.161,21.333,16.007,9.435,18.764,10.972z"/>
			<path fill="#BE1E2D" d="M16.214,33.564c2.509,4.171,8.688,3.716,8.103,2.688c-5.819-10.206-1.935-19.381,3.664-19.758
				c4.171-0.281,7.817,0.336,12.536,6.786c0.398,0.543,1.432-0.29,1.704-0.889C44.503,17.381,33.04,9.493,27.52,9.415
				c-4.935-0.065-5.505,4.143-8.632,6.994c-2.901,2.646-5.692,3.615-0.88,6.916C18.008,23.325,12.617,27.582,16.214,33.564z"/>
			<path fill="#BE1E2D" d="M31.094,38.703c5.032,4.084,18.201-4.532,15.521-8.924c-3.158-5.177-5.359,1.799-7.537,3.755
				c-2.347,2.111-10.202,1.782-9.09,4.447C30.114,38.288,31.094,38.703,31.094,38.703z"/>
		</g>
	</g>
	<path fill="#468885" d="M4.761,11.349c6.984,1.951,6.264,9.223,10.41,14.089C8.713,28.16,3.313,21.561,1.045,16.295
		c3.646,0.061-2.653-5.462-0.636-6.606L4.761,11.349z"/>
</g>
</svg>
