<?xml version="1.0" encoding="utf-8"?>
<!-- Generator: Adobe Illustrator 16.0.0, SVG Export Plug-In . SVG Version: 6.00 Build 0)  -->
<!DOCTYPE svg PUBLIC "-//W3C//DTD SVG 1.1//EN" "http://www.w3.org/Graphics/SVG/1.1/DTD/svg11.dtd">
<svg version="1.1" id="Layer_1" xmlns="http://www.w3.org/2000/svg" xmlns:xlink="http://www.w3.org/1999/xlink" x="0px" y="0px"
	 width="92.29px" height="96.904px" viewBox="0 0 92.29 96.904" enable-background="new 0 0 92.29 96.904" xml:space="preserve">
<g id="Layer_2">
</g>
<g>
	<path fill="#FFFFFF" d="M3.897,58.948C-3.571,67.57,0.931,77.14,7.062,85.365c4.12,5.526,10.831,13.471,19.032,11.112
		c2.96-0.852,4.701-5.077,7.274-6.18c4.387-1.878,8.592-0.233,13.081-1.105c4.1-0.796,17.399-3.582,19.553-7.337
		c1.906-3.32-0.166-8.931-1.191-12.163c-0.907-2.856-2.46-10.947-3.715-13.004c-8.143-13.348-31.046-19.781-42.189-6.903
		C18.907,49.785,7.206,55.125,3.897,58.948z"/>
	<g>
		<path fill="#FFFFFF" d="M6.377,31.982c0.73-7.357,9.573-32.496,31.818-29.056c3.733-5.081,9.867-2.938,16.722,1.784
			c5.404,3.726,8.211,7.166,10.6,13.335c3.465-1.769,4.273,0.057,6.822,0.001c2.785-0.056,2.05-3.235,4.1-4.34
			c4.59-2.474,11.633,1.69,13.725,5.405c2.049,3.639,3.58,10.713-0.121,13.871c-1.731,1.477-5.336,0.896-6.461,2.438
			c-0.996,1.365-0.123,5.954,0.031,7.534c0.836,8.548-4.583,23.025-15.871,21.72c-5.162-0.599-6.105-4.4-11.398-2.884
			c-2.055,0.59-4.146,1.967-6.606,1.536c-3.316-0.58-3.694-4.066-6.384-5.526c-7.635-4.139-18.989-0.771-26.741-4.446
			C4.146,47.448,6.377,31.982,6.377,31.982z"/>
		<g>
			<path fill="#BE1E2D" d="M62.032,27.568c-0.621-6.369-10.007-23.143-18.539-18.25c-5.943,3.408,2.329,8.508-0.005,11.918
				c-2.083,3.046-5.8-1.91-8.082-2.789c-8.788-3.385-21.677,24.842-13.999,29.917c4.984,3.299,19.424,3.263,21.485,4.068
				c2.583,1.005,4.118,4.024,6.78,4.665c5.486,1.324,14.295-4.802,17.375-9.463c4.539-6.861,0.199-12.164-4.752-17.245
				L62.032,27.568z"/>
			<path fill="#231F20" d="M51.305,57.896L51.305,57.896c-0.627,0-1.225-0.067-1.776-0.201c-1.577-0.379-2.762-1.479-3.908-2.54
				c-0.955-0.887-1.857-1.724-2.951-2.149c-0.575-0.225-2.558-0.401-4.854-0.607c-5.264-0.473-13.219-1.187-16.747-3.521
				c-2.919-1.929-3.436-6.886-1.417-13.6c2.563-8.524,8.735-17.727,14.237-17.727c0.6,0,1.185,0.108,1.74,0.321
				c0.782,0.302,1.646,0.978,2.562,1.691c1.222,0.954,2.608,2.036,3.637,2.035c0.287,0,0.719-0.073,1.154-0.71
				c0.777-1.136,0.008-2.617-0.883-4.333c-1.273-2.454-2.858-5.509,1.09-7.771c1.115-0.64,2.296-0.964,3.511-0.964
				c7.954,0,15.389,13.979,15.946,19.688l0.244,2.607c4.983,5.136,9.375,10.749,4.673,17.858
				C64.53,52.563,56.768,57.896,51.305,57.896z M33.887,18.781c-4.781,0-10.612,8.713-13.059,16.851
				c-1.824,6.066-1.48,10.635,0.917,12.221c3.269,2.163,11.038,2.858,16.179,3.319c2.845,0.257,4.489,0.413,5.192,0.688
				c1.311,0.511,2.343,1.468,3.341,2.394c1.077,0.999,2.092,1.942,3.359,2.247c0.458,0.11,0.958,0.166,1.488,0.166
				c5.007,0,12.426-5.125,15.229-9.369c4.25-6.424,0.211-11.46-4.68-16.478l-0.152-0.156l-0.283-3.037
				c-0.512-5.233-7.537-18.573-14.723-18.573c-0.997,0-1.972,0.27-2.898,0.8c-2.784,1.597-2.045,3.373-0.61,6.139
				c0.982,1.895,1.999,3.852,0.806,5.594C43.43,22.41,42.7,22.83,41.826,22.83c-1.453,0-2.948-1.167-4.394-2.297
				c-0.841-0.656-1.636-1.276-2.247-1.512C34.771,18.862,34.335,18.781,33.887,18.781z"/>
		</g>
		<path fill="#77111A" d="M21.949,19.798c6.364-4.563,10.774-0.187,13.359,4.369c3.099,5.454,10.779,6.536,11.958,2.081
			c3.094-11.705,14.705,3.688,3.721,16.533c-8.496,9.938-16.188,0.976-18.535,0.585C19.359,41.188,15.175,24.653,21.949,19.798z"/>
		<path fill="#77111A" d="M61.29,33.552c0,0-5.519,15.936-12.988,16.628c-7.466,0.695-0.616,4.112,2.687,5.384
			c3.308,1.265,20.45-7.435,13.589-19.23C64.194,35.677,61.29,33.552,61.29,33.552z"/>
		<g>
			<path fill="#231F20" d="M68.636,58.422c-3.124,0-6.292-1.429-8.769-4.145c-0.229-0.251-0.211-0.64,0.039-0.868
				c0.252-0.228,0.641-0.213,0.869,0.04c3.492,3.827,8.482,4.825,12.418,2.48c4.5-2.682,7.745-9.986,3.91-22.579
				c-0.844-0.016-1.654-0.193-2.398-0.543c-5.357-2.515-6.906-5.384-6.567-7.229c0.207-1.127,1.088-1.886,2.3-1.979
				c2.081-0.158,5.203,1.681,7.189,7.392c0.125,0.362,0.246,0.723,0.361,1.077c1.125-0.154,2.301-0.644,3.415-1.444
				c2.411-1.731,3.788-4.414,3.509-6.83c-0.305-2.63-2.453-4.845-6.216-6.404c-0.313-0.132-0.462-0.49-0.331-0.805
				c0.129-0.314,0.49-0.459,0.803-0.333c5.306,2.202,6.717,5.239,6.965,7.4c0.33,2.853-1.244,5.98-4.012,7.971
				c-1.213,0.873-2.504,1.423-3.764,1.633c3.911,13.111,0.334,20.83-4.536,23.73C72.202,57.952,70.426,58.422,68.636,58.422z
				 M70.68,24.82c-0.051,0-0.1,0.002-0.146,0.005c-0.65,0.051-1.082,0.405-1.186,0.975c-0.196,1.072,0.82,3.521,5.88,5.896
				c0.461,0.216,0.958,0.35,1.478,0.402c-0.078-0.232-0.158-0.467-0.24-0.701C74.654,26.187,72.047,24.82,70.68,24.82z"/>
		</g>
		<g>
			<path fill="#BE1E2D" d="M29.95,27.061c0.841-3.923,12.001-12.182,10.147-16.58c-3.924-9.309-15.601,0.465-21.934,6.34
				c-7.917,7.347-10.075,30.952,8.733,33.527c1.886,0.258-2.67-8.777,4.058-8.335C34.866,42.068,27.114,40.289,29.95,27.061z"/>
			<path fill="#231F20" d="M26.973,51.073L26.8,51.06c-7.079-0.97-12.106-5.077-14.156-11.566
				c-2.708-8.573,0.415-18.918,5.031-23.201c4.802-4.455,11.812-10.378,17.218-10.378c2.695,0,4.67,1.441,5.869,4.286
				c1.282,3.042-2.292,7.094-5.749,11.012c-1.995,2.263-4.059,4.602-4.358,5.998c-1.727,8.054,0.597,11.688,1.588,13.24
				c0.417,0.651,0.746,1.167,0.447,1.713c-0.311,0.567-1.033,0.569-1.563,0.569c-0.002,0-0.005,0-0.007,0l-0.174-0.001
				c-0.182-0.011-0.32-0.017-0.453-0.017c-0.944,0-1.606,0.229-2.024,0.697c-0.885,0.992-0.649,3.06-0.476,4.567
				c0.152,1.33,0.253,2.209-0.222,2.741C27.568,50.948,27.285,51.073,26.973,51.073z M34.892,7.354
				c-5.466,0-13.574,7.521-16.238,9.993c-4.293,3.983-7.182,13.658-4.638,21.713c1.308,4.141,4.568,9.301,12.663,10.527
				c0.007-0.356-0.063-0.968-0.118-1.442c-0.204-1.779-0.483-4.217,0.832-5.69c0.781-0.876,1.956-1.271,3.609-1.161h0.071
				c-0.015-0.021-0.029-0.046-0.043-0.066c-1.087-1.701-3.634-5.687-1.784-14.317c0.379-1.766,2.375-4.028,4.687-6.647
				c2.866-3.249,6.432-7.292,5.501-9.502C38.468,8.469,36.982,7.354,34.892,7.354z"/>
		</g>
		<path fill="#BE1E2D" d="M33.107,43.607c0,0-6.711,3.043-1.032,2.982c3.19-0.034-0.302,3.551-1.27,3.711
			c-1.541,0.255-6.13-1.196-6.13-1.196s0.829-9.971,6.288-7.886C31.828,42.792,33.107,43.607,33.107,43.607z"/>
		<path fill="#77111A" d="M33.274,17.391c0,0-7.51,6.409-6.903,14.396c0.334,4.418-2.638,5.41-3.875,2.879
			c-1.235-2.532,1.486-18.063,6.915-22.271c3.931-3.046,5.552-2.178,6.984-0.38C37.941,13.953,35.218,15.998,33.274,17.391z"/>
		<g>
			<g>
				<defs>
					<path id="SVGID_1_" d="M29.533,27.429c0.791-3.681,11.272-11.427,9.532-15.552c-3.685-8.73-14.651,0.435-20.6,5.947
						c-7.437,6.89-9.462,29.031,8.201,31.448c1.772,0.24-2.507-8.234,3.812-7.82C34.151,41.507,26.87,39.837,29.533,27.429z"/>
				</defs>
				<clipPath id="SVGID_2_">
					<use xlink:href="#SVGID_1_"  overflow="visible"/>
				</clipPath>
				<g clip-path="url(#SVGID_2_)">
					<path fill="#FFFFFF" d="M18.672,16.876c-2.358,1.326-6.343,4.781-4.049,5.488c0.769,0.271,2.143,0.757,2.477,1.544
						c0.432,0.956-1.389,1.724-2.322,2.709c-1.649,1.756-1.631,1.783-0.181,2.206c0.622,0.139,2.268,1.058,2.226,1.874
						c-0.029,0.691-1.527,1.887-1.998,2.519c-0.914,1.16-1.583,1.549-0.167,2.281c0.971,0.54,2.131,0.95,1.36,2.128
						c-0.48,0.754-1.186,1.196-1.708,1.683c-0.29,0.181,1.429,1.85,1.872,2.467c0.546,0.558,1.249,0.713,0.724-0.718
						c-0.534-1.366-1.3-1.088-0.216-2.219c0.46-0.494,1.547-1.48,1.336-2.417c-0.192-1.017-2.331-2.015-2.001-2.316
						c1.271-1.328,3.534-2.769,1.906-4.712c-0.629-0.706-1.616-1.366-1.294-1.831c0.487-0.732,1.773-1.585,2.478-2.127
						c1.221-0.959,1.789-1.054,0.946-2.623c-0.474-0.857-1.372-1.349-2.046-2.032c-1.203-1.172,1.459-2.145,3.018-2.593
						c0.707-0.236,2.317-1.396,0.117-1.962C20.384,16.066,19.276,16.409,18.672,16.876z"/>
					<path fill="#FFFFFF" d="M21.246,20.049c0.136-0.893,2.031-0.836,2.251,0.473c0.333,1.426-1.941,0.938-2.263-0.354
						C21.238,20.128,21.242,20.088,21.246,20.049z"/>
					<path fill="#FFFFFF" d="M19.469,28.488c-0.715-1.364,1.483-1.793,1.688-0.57C21.346,28.967,20.06,29.216,19.469,28.488z"/>
					<path fill="#FFFFFF" d="M18.304,34.025c0.248-1.281,1.851-0.718,1.572,0.497C19.65,35.604,18.167,35.236,18.304,34.025z"/>
					<path fill="#FFFFFF" d="M17.642,39.8c0.139-1.052,1.193-0.743,1.124,0.257C18.686,41.273,17.61,40.868,17.642,39.8z"/>
					<path fill="#FFFFFF" d="M13.148,36.456c0.61-1.041,1.838,0.173,1.229,0.859C13.802,37.921,12.729,37.287,13.148,36.456z"/>
					<path fill="#FFFFFF" d="M12.925,30.986c0.85-0.978,1.603-0.133,1.162,0.456C12.905,32.776,12.38,31.641,12.925,30.986z"/>
					<path fill="#FFFFFF" d="M12.983,25.485c-0.83-0.144,0.589-1.845,1.33-1.581C15.255,24.24,13.24,25.558,12.983,25.485z"/>
				</g>
			</g>
		</g>
	</g>
	<g>
		<path fill="#231F20" d="M20.642,58.183c0.288-0.081,0.608-0.048,0.969-0.09c0.173-0.049,0.304-0.022,0.477-0.071l0.69-0.197
			c0.402-0.114,0.747-0.212,1.141-0.137c0.173-0.05,0.206,0.063,0.279,0.104c0.403-0.113,0.871,0.002,1.224,0.149
			c0.632-0.18,0.993,0.215,1.584,0.108c0.082,0.288,0.328,0.279,0.517,0.287c0.107,0.157,0.156,0.329,0.287,0.354
			c0.484,0.174,0.861,0.625,1.329,0.74c0.107,0.155,0.156,0.327,0.345,0.338c0.09,0.098-0.009,0.188,0.024,0.304
			c0.418,0.378,0.803,0.641,1.222,1.019c0.049,0.174,0.229,0.371,0.089,0.534c0.017,0.059,0.017,0.059,0.074,0.041
			c0.46-0.131,0.656,0.561,1.041,0.823c-0.024,0.13,0.008,0.245,0.041,0.36c0.147,0.518,0.631,0.689,0.86,1.061
			c0.123,0.213,0.147,0.519,0.271,0.73c0.106,0.154,0.238,0.182,0.328,0.278c0.156,0.328,0.229,0.807,0.541,1.027
			c0.049,0.173,0.04,0.361,0.105,0.592c0.147,0.519,0.426,1.06,0.696,1.354c0.098,0.345,0.196,0.689,0.401,1.189
			c0.172,0.388,0.426,0.625,0.491,0.855c0.049,0.172,0.008,0.245-0.074,0.395c0.065,0.229,0.172,0.385,0.237,0.615
			c0.082,0.287,0.122,0.648,0.089,0.969c0.107,0.156,0.156,0.329,0.189,0.443c0.049,0.173,0.114,0.402,0.105,0.592
			c0.008,0.246,0.254,0.238,0.189,0.443c0.09,0.098-0.214,0.123-0.132,0.41l0.18,0.632c0.033,0.115,0.165,0.141,0.197,0.256
			c-0.008,0.188-0.058,0.45-0.009,0.623c0.065,0.229,0.246,0.429,0.336,0.525c0.065,0.23-0.106,0.279-0.115,0.47
			c0.147,0.081,0.14,0.271,0.188,0.441c0.016,0.059,0.049,0.173,0.122,0.214c-0.123,0.222-0.098,0.525-0.37,0.664
			c0.033,0.551,0.073,0.911,0.048,1.479c-0.172,0.05-0.124,0.222-0.37,0.229c-0.066,0.205,0.032,0.551-0.296,0.705
			c0.024,0.305-0.042,0.511-0.166,0.73c-0.008,0.188,0.165,0.141,0.197,0.255c-0.69,0.632-1.356,1.566-1.792,2.437
			c-0.345,0.1-0.469,0.319-0.649,0.559c-0.288,0.082-0.395,0.359-0.667,0.5l-0.345,0.098c-0.345,0.1-0.468,0.32-0.723,0.518
			c-0.197,0.181-0.411,0.304-0.534,0.523c-0.329,0.155-0.657,0.313-0.838,0.55l-0.247,0.009c-0.229,0.064-0.353,0.286-0.566,0.409
			c-0.444,0.188-0.862,0.245-1.265,0.359c-0.329,0.155-0.657,0.312-1.06,0.425l-0.23,0.066c-0.057,0.016-0.188-0.009-0.263-0.049
			c-0.345,0.098-0.6,0.294-0.944,0.392c-0.287,0.082-0.632,0.18-0.936,0.204c-0.288,0.082-0.493,0.017-0.78,0.099
			c-0.115,0.032-0.214,0.123-0.329,0.155c-0.304,0.024-0.657-0.124-0.96-0.1l-0.23,0.064c-0.115,0.033-0.55,0.031-0.83-0.075
			c-0.304,0.024-0.615-0.197-0.788-0.148l-0.172,0.049c-0.205-0.065-0.386-0.263-0.648-0.312c-0.206-0.066-0.509-0.042-0.632-0.257
			c-0.648,0.123-1.207-0.091-1.765-0.305c-0.205-0.067-0.501-0.23-0.706-0.298c-0.221-0.124-0.427-0.188-0.607-0.387l-0.558-0.214
			c-0.123-0.214-0.427-0.188-0.508-0.477L15.32,85.79c-0.598-0.574-1.172-1.281-1.787-1.914c-0.362-0.395-0.574-0.706-0.927-1.289
			c-0.123-0.214-0.172-0.387-0.353-0.584l-0.345-0.337c-0.319-0.469-0.441-1.116-0.679-1.731c-0.139-0.271-0.352-0.584-0.434-0.871
			c-0.188-0.443-0.204-0.938-0.376-1.322c-0.065-0.229-0.262-0.485-0.327-0.715c-0.05-0.173,0.033-0.32,0-0.436
			c-0.008-0.246-0.205-0.501-0.245-0.861l-0.008-0.247c0.008-0.189-0.172-0.386-0.205-0.501c-0.008-0.246-0.032-0.55-0.015-0.927
			c-0.033-0.552-0.376-1.323-0.146-1.823c-0.164-0.575-0.048-1.044,0.083-1.454c-0.105-0.591-0.139-1.141,0.199-1.485
			c-0.017-0.058-0.107-0.155-0.14-0.271c0.214-0.122,0.132-0.409,0.288-0.518c0.025-0.13-0.09-0.098-0.123-0.214
			c0.14-0.163,0.148-0.353,0.288-0.516c-0.155-0.766,0.354-1.158,0.363-1.782c0.23-0.5,0.592-0.976,0.675-1.559
			c0.181-0.238,0.436-0.436,0.731-0.705c0.197-0.182,0.346-0.533,0.6-0.73c0.1-0.09,0.271-0.14,0.371-0.229
			c0.312-0.215,0.534-0.524,0.879-0.623c0.181-0.238,0.255-0.632,0.567-0.847c0.354-0.286,0.904-0.317,1.036-0.729
			c0.246-0.009,0.533-0.091,0.821-0.173l0.287-0.081c0.173-0.05,0.238-0.254,0.452-0.377c0.427-0.246,0.903-0.319,1.108-0.688
			c0.132,0.024,0.189,0.009,0.305-0.024c0.229-0.064,0.427-0.244,0.51-0.393c0.098-0.091,0.271-0.141,0.443-0.188l0.747-0.213
			c0.172-0.05,0.345-0.099,0.501-0.204L20.642,58.183z M21.351,62.642c0.049,0.173,0.107,0.155,0.082,0.287l-0.14,0.164
			c0.074,0.477-0.222,0.747-0.297,1.142c0.05,0.173,0.164,0.14,0.213,0.313c-0.042,0.074-0.271,0.141-0.296,0.271l0.098,0.345
			c0.18,0.633,0.024,1.174-0.19,1.732l0.065,0.229c0.098,0.346,0.154,0.764,0.253,1.107c0.065,0.229,0.205,0.501,0.311,0.657
			c-0.213,0.123-0.033,0.32-0.058,0.451c0.017,0.06-0.024,0.132-0.066,0.205c-0.032,0.319,0.074,0.478,0.099,0.78
			c0.147,0.082,0.254,0.238,0.319,0.468c0.065,0.23,0.032,0.552-0.034,0.755c0.107,0.155,0.213,0.313,0.263,0.485
			c0.082,0.288,0.09,0.533,0.097,0.779c0.049,0.173,0.28,0.106,0.287,0.354c-0.016,0.377,0.115,0.837,0.246,1.296
			c0.196,0.69,0.466,1.423,0.663,2.112l0.098,0.345c0.033,0.114,0.197,0.254,0.229,0.369c0.385,0.698,0.557,1.521,0.852,2.119
			c0.049,0.173,0.213,0.313,0.32,0.469c0.352,0.583,0.328,0.715,0.696,0.921c0.369,0.205,0.353,0.146,0.747,0.223
			c0.172-0.05,0.263,0.049,0.377,0.017c0.132,0.025,0.189,0.009,0.246-0.008c0.23-0.065,0.37-0.229,0.616-0.237
			c0.32-0.401,0.642-0.805,1.052-1.105c0.107-0.279,0.141-0.601,0.265-0.821c0.058-0.451,0.042-0.944,0.1-1.395l0.091-0.339
			c0.05-0.262-0.057-0.418,0.009-0.623c0.066-0.204,0.214-0.559,0.148-0.787c-0.016-0.059-0.049-0.173-0.123-0.215
			c0.148-0.353,0.091-0.771,0.182-1.107l-0.123-0.214c-0.082-0.287,0.041-0.508,0.034-0.755c0.008-0.188-0.115-0.403-0.106-0.592
			c-0.049-0.174,0.033-0.319,0-0.436c-0.025-0.305-0.164-0.575-0.246-0.862c-0.106-0.592-0.056-1.289-0.129-1.766
			c-0.187-1.313-1.221-2.324-1.597-3.646c-0.418-0.379-0.574-1.142-0.91-1.668c-0.287-0.354-0.615-0.633-0.729-1.033
			c-0.435-0.438-0.911-0.8-1.205-1.398c-0.583-0.083-1.042-0.387-1.609-0.412c-0.188-0.009-0.607,0.049-0.837,0.114
			C21.771,62.149,21.59,62.388,21.351,62.642z"/>
		<path fill="#231F20" d="M37.95,51.085c0.288-0.082,0.559-0.221,0.879-0.188c0.115-0.032,0.09,0.099,0.164,0.14l0.229-0.063
			c0.23-0.066,0.518-0.147,0.64,0.064l0.23-0.064l0.238,0.182c0.172-0.049,0.361-0.041,0.451,0.058
			c0.041-0.073,0.189,0.009,0.304-0.023c0.246,0.427,0.525,0.534,0.918,0.607c0.05,0.174-0.008,0.189,0.008,0.247
			c0.279,0.107,0.542,0.156,0.656,0.56c0.32,0.033,0.377,0.452,0.632,0.688c-0.009,0.189-0.017,0.378,0.105,0.592
			c0.033,0.115,0.132,0.024,0.188,0.009c0.065,0.229,0.156,0.329,0.107,0.593c0.106,0.155,0.263,0.049,0.369,0.205
			c0.082,0.287,0.345,0.337,0.542,0.591l0.098,0.346c0.091,0.1,0.18,0.197,0.196,0.254c0.049,0.174,0,0.437,0.033,0.552
			c0.016,0.057,0.09,0.099,0.107,0.155c0.049,0.172,0.164,0.14,0.328,0.279c0.057,0.419,0.155,0.765,0.269,1.167
			c0.131,0.46,0.246,0.862,0.491,1.289c-0.024,0.131-0.049,0.263-0.09,0.336c0.147,0.517,0.377,0.888,0.491,1.29
			c0.033,0.115,0.065,0.229,0.057,0.419c0.09,0.099,0.155,0.328,0.206,0.501l0.293,1.034c0.05,0.173,0.099,0.345-0.041,0.51
			l0.049,0.172c0.082,0.287,0.031,0.55,0.113,0.837l0.065,0.23c0.396-0.36,0.403-0.985,0.724-1.387
			c-0.031-0.114,0.066-0.204,0.019-0.377c0.278-0.329,0.468-0.757,0.526-1.206c0.625-0.862,0.807-1.971,1.711-2.726
			c0.346-0.532,0.675-1.124,1.595-1.386c0.517-0.146,0.968-0.088,1.147,0.544c0.099,0.345,0.082,0.722,0.123,1.084
			c0.016,0.058,0.131,0.024,0.164,0.139c0.064,0.23-0.076,0.396-0.158,0.542c-0.09,0.771-0.148,1.658-0.592,2.282
			c0.104,0.155-0.051,0.263,0.072,0.477c-0.289,0.518-0.576,1.032-0.716,1.633c-0.041,0.074-0.099,0.09-0.156,0.105
			c0.082,0.287,0.017,0.493-0.196,0.616c0.016,0.492-0.19,0.862-0.486,1.132c0.131,0.896-0.666,1.37-0.668,2.241
			c-0.008,0.189-0.205,0.369,0.049,0.607c0.378,0.018,0.673,0.181,1.052,0.198l0.065,0.229c0.418-0.058,0.673,0.182,0.845,0.566
			c0.091,0.1,0.247-0.008,0.337,0.093c0.156,0.328,0.518,0.287,0.672,0.615l0.23-0.064c-0.018,0.378,0.254,0.239,0.377,0.452
			c0.074,0.041,0.148,0.082,0.263,0.05c0.213,0.312,0.468,0.55,0.804,0.641c0.016,0.059,0.074,0.042,0.106,0.155
			c0.524,0.1,0.804,0.642,1.329,0.741c0.139,0.271,0.402,0.319,0.598,0.575c0.092,0.099,0.264,0.05,0.411,0.133l0.049,0.172
			c0.065,0.229,0.312,0.222,0.361,0.394c0.123,0.216,0.409,0.134,0.532,0.347c0.246-0.009,0.371,0.206,0.576,0.271
			c0.195,0.255,0.467,0.552,0.58,0.954c0.033,0.113,0.065,0.23,0.041,0.36c0.033,0.114,0.205,0.065,0.254,0.237
			c0.106,0.593-0.377,0.854-0.271,1.445c-0.305,0.459-0.813,0.854-1.061,1.296l-0.115,0.033c-0.229,0.065-0.411,0.304-0.551,0.467
			c-0.426,0.245-0.771,0.344-1.215,0.533c-0.73-0.166-1.527-0.126-1.929-0.881l-0.278-0.107c-0.105-0.155-0.238-0.181-0.287-0.354
			c-0.336-0.092-0.533-0.346-0.83-0.511c-0.058,0.017-0.114,0.031-0.131-0.024c-0.147-0.082-0.238-0.181-0.328-0.279l-0.295-0.164
			c-0.238-0.182-0.377-0.453-0.599-0.574c-0.147-0.084-0.378-0.02-0.526-0.101c-0.131-0.024-0.222-0.124-0.353-0.148l-1.106-0.616
			c-0.074-0.041-0.107-0.157-0.182-0.197c-0.018-0.058-0.074-0.041-0.074-0.041c-0.229,0.065-0.328-0.279-0.615-0.198
			c-0.041,0.074-0.025,0.131-0.01,0.188c0.049,0.173,0.215,0.313,0.305,0.411c0.016,0.058-0.024,0.133-0.008,0.188
			c0.049,0.172,0.254,0.238,0.318,0.469c-0.023,0.132-0.107,0.278-0.148,0.354c0.09,0.098,0.196,0.254,0.229,0.368
			c0.114,0.401-0.06,0.888-0.207,1.24c-0.024,0.13,0.074,0.041,0.106,0.154c-0.156,0.107-0.107,0.279-0.116,0.47
			c-0.114,0.031-0.009,0.188-0.181,0.236c0.023,0.306-0.248,0.443-0.166,0.73l0.033,0.113c-0.173,0.051-0.197,0.183-0.223,0.313
			c-0.1,0.091-0.229,0.065-0.213,0.123c-0.1,0.09,0.049,0.173-0.051,0.262c-0.246,0.01-0.196,0.183-0.295,0.271
			c-0.518,0.146-0.478,0.508-0.73,0.705c-0.059,0.017-0.132-0.024-0.247,0.008c-0.229,0.064-0.485,0.262-0.765,0.155
			c-0.113,0.031-0.212,0.123-0.327,0.154c-0.246,0.009-0.55,0.033-0.771-0.091c-0.649,0.122-1.265,0.36-1.832,0.335
			c-0.074-0.042-0.205-0.065-0.238-0.181c-0.132-0.026-0.083,0.146-0.214,0.123l-0.468-0.116c-0.147-0.082-0.558-0.214-0.779-0.338
			c-0.328-0.279-0.459-0.739-0.787-1.02l-0.032-0.114c-0.065-0.229-0.214-0.313-0.263-0.485c-0.139-0.271-0.164-0.574-0.303-0.846
			c-0.344-0.771-0.63-1.562-0.859-2.366l-0.212-0.746c0.008-0.188,0-0.436-0.082-0.723c-0.074-0.041-0.163-0.141-0.18-0.198
			c-0.188-0.442-0.205-0.935-0.376-1.321c-0.091-0.099-0.099,0.091-0.23,0.065c-0.049-0.172,0.181-0.238,0.148-0.354
			c-0.352-1.019-0.679-2.169-0.711-3.152c-0.123-0.214-0.246-0.429-0.312-0.657c-0.13-0.46-0.146-0.953-0.335-1.396
			c0.042-0.073,0.009-0.188-0.04-0.36c-0.098-0.346-0.344-0.772-0.385-1.134c-0.032-0.114,0.009-0.189-0.008-0.246
			c-0.098-0.346-0.344-0.771-0.458-1.175l-0.343-1.207c0.024-0.132,0.05-0.264,0.017-0.378c-0.058-0.419-0.303-0.847-0.36-1.266
			c-0.049-0.173,0.066-0.205,0.106-0.278c-0.483-0.174-0.072-0.911-0.426-1.061c-0.049-0.172-0.023-0.303,0.058-0.451
			c-0.089-0.098-0.139-0.271-0.27-0.295c0.034-0.756-0.327-1.586-0.457-2.48c-0.041-0.36-0.023-0.738-0.138-1.142l-0.049-0.172
			c-0.049-0.173,0.049-0.263,0.074-0.395l-0.098-0.346c-0.065-0.229-0.131-0.459-0.139-0.706c0.008-0.188-0.024-0.303-0.074-0.476
			l-0.311-1.093c-0.023-0.305,0.067-0.643-0.031-0.985l-0.124-0.214c0.091-0.771,0.584-1.224,1.562-1.501
			c0.115-0.032,0.222,0.123,0.378,0.018c0.501-0.205,1.06-0.426,1.577-0.573L37.95,51.085z"/>
	</g>
</g>
</svg>
